<svg id="Layer_1" data-name="Layer 1" xmlns="http://www.w3.org/2000/svg" xmlns:xlink="http://www.w3.org/1999/xlink" viewBox="0 0 300 345"><defs><style>.cls-1{fill:url(#linear-gradient);}.cls-2{fill:#d8a76c;}.cls-3{fill:#da77ac;}.cls-4{fill:#bc864a;}.cls-5,.cls-6{fill:none;stroke-linecap:round;}.cls-5{stroke:#f38db6;stroke-linejoin:round;stroke-width:40px;}.cls-6{stroke:#e565a0;stroke-miterlimit:10;stroke-width:8px;}.cls-7{fill:#cd4d92;}.cls-8{fill:#2f2c38;}.cls-9{fill:#fff;}.cls-10{fill:#f38db6;}.cls-11{fill:#e565a0;}.cls-12{fill:#eaba86;}.cls-13{fill:#c4629d;}.cls-14{fill:#f3c1da;}.cls-15{fill:#fbd9e8;}.cls-16{fill:#c6af2e;}.cls-17{fill:#fef065;}.cls-18{fill:#0b9ac1;}.cls-19{fill:#4fc9f5;}.cls-20{fill:#39b54a;}.cls-21{fill:#8dc63f;}</style><linearGradient id="linear-gradient" x1="150" y1="356.11" x2="150" y2="161.16" gradientUnits="userSpaceOnUse"><stop offset="0" stop-color="#d8a76c"/><stop offset="0.69" stop-color="#9e6243"/></linearGradient></defs><g id="underwater_2" data-name="underwater 2"><path class="cls-1" d="M263.62,345H36.38A36.38,36.38,0,0,1,0,308.62V259.14H300v49.48A36.38,36.38,0,0,1,263.62,345Z"/><rect class="cls-2" y="45" width="300" height="253.39" rx="36.38"/><path class="cls-3" d="M289.76,284.59c-9.84-8.62-24.3-16.65-36.8-5.26-13.1,11.93-3.31,27.15,6.57,37.39a16.53,16.53,0,0,0,24-.36l7.44-8.05A16.57,16.57,0,0,0,289.76,284.59Z"/><path class="cls-3" d="M46.82,279.33c-12.51-11.39-27-3.36-36.81,5.26a16.57,16.57,0,0,0-1.23,23.72l7.44,8.05a16.53,16.53,0,0,0,24,.36C50.13,306.48,59.91,291.26,46.82,279.33Z"/><path class="cls-4" d="M200.37,215.58c0-31.33-24-73.42-53.59-73.42s-53.59,39.08-53.59,73.42c0,25,15.59,45.2,53.59,45.2S200.37,240.55,200.37,215.58Z"/><path class="cls-5" d="M84.81,261.77s20.58-15.66,65.19-15.66,65.19,15.66,65.19,15.66"/><path class="cls-6" d="M84.81,261.77s20.58-15.66,65.19-15.66,65.19,15.66,65.19,15.66"/><path class="cls-3" d="M197.62,232.37c-12.06-3.48-27.86-6.26-47.62-6.26-23.08,0-40.76,3.79-53.38,8.06,6.44,15.69,22.25,26.61,50.16,26.61C175.74,260.78,191.68,249,197.62,232.37Z"/><path class="cls-7" d="M150,242.11c-18.57,0-33.1,2.64-43.85,5.81a41.12,41.12,0,0,0,8.6,6A153.05,153.05,0,0,1,150,250.11,157.15,157.15,0,0,1,180.61,253a40.4,40.4,0,0,0,8.21-6.4A160,160,0,0,0,150,242.11Z"/><path class="cls-2" d="M188.94,202.77c0-29.23-18.88-68.49-42.16-68.49s-42.17,36.45-42.17,68.49c0,23.29,12.27,42.17,42.17,42.17S188.94,226.06,188.94,202.77Z"/><ellipse class="cls-8" cx="260.93" cy="222.83" rx="21.24" ry="23.27" transform="translate(-41.88 61.44) rotate(-12.44)"/><circle class="cls-9" cx="265.47" cy="214.53" r="8.68"/><ellipse class="cls-8" cx="39.07" cy="222.83" rx="23.27" ry="21.24" transform="translate(-186.95 212.99) rotate(-77.56)"/><circle class="cls-9" cx="44.45" cy="214.53" r="8.68"/><path class="cls-10" d="M249.21,270.14c12.51-11.39,27-3.36,36.81,5.25a16.58,16.58,0,0,1,1.22,23.73l-7.43,8.05a16.54,16.54,0,0,1-24,.36C245.9,297.29,236.12,282.06,249.21,270.14Z"/><path class="cls-11" d="M261.43,275.13l19.16,7.75a4.84,4.84,0,0,1-3.63,9,5.26,5.26,0,0,1-1.33-.81L259.92,277.6a1.47,1.47,0,0,1,1.51-2.47Z"/><path class="cls-11" d="M255.06,281.9l15.85,12.61a4.84,4.84,0,0,1-6,7.58,5.13,5.13,0,0,1-1.06-1.18l-10.91-17.06a1.47,1.47,0,0,1,.44-2A1.49,1.49,0,0,1,255.06,281.9Z"/><path class="cls-10" d="M50.79,270.14c-12.51-11.39-27-3.36-36.81,5.25a16.58,16.58,0,0,0-1.22,23.73l7.43,8.05a16.54,16.54,0,0,0,24,.36C54.1,297.29,63.88,282.06,50.79,270.14Z"/><path class="cls-11" d="M40.08,277.6,24.37,291a4.84,4.84,0,0,1-6.29-7.35,4.7,4.7,0,0,1,1.33-.81l19.16-7.75a1.47,1.47,0,0,1,1.51,2.47Z"/><path class="cls-11" d="M47.09,283.85,36.18,300.91a4.84,4.84,0,1,1-7.09-6.4L44.94,281.9a1.47,1.47,0,0,1,2.15,2Z"/><ellipse class="cls-12" cx="174.83" cy="193.07" rx="8.84" ry="11.99" transform="translate(-37.49 42.19) rotate(-12.44)"/><circle class="cls-12" cx="166.79" cy="172.5" r="6.15"/><path class="cls-13" d="M185.69,136.56c0,7.05-4.7,15.92-12.75,15.92s-12.76-8.87-12.76-15.92,3.91-18.13,12.76-18.13S185.69,129.52,185.69,136.56Z"/><circle class="cls-13" cx="70.67" cy="172.16" r="9.31"/><path class="cls-13" d="M263.62,51.77H36.38A36.38,36.38,0,0,0,0,88.15v93c3.83,2.63,9.07,4.31,16.39,4.31,34.22,0,35.56-51.38,51.9-51.38s11.18,23.55,36.32,23.55,18.52-52.29,62.18-52.29,45.74,77.61,90,77.61c23.79,0,34.48-14.37,43.21-27.68V88.15A36.38,36.38,0,0,0,263.62,51.77Z"/><path class="cls-14" d="M185.69,129.79c0,7-4.7,15.91-12.75,15.91s-12.76-8.87-12.76-15.91,3.91-18.13,12.76-18.13S185.69,122.75,185.69,129.79Z"/><circle class="cls-14" cx="70.67" cy="165.39" r="9.31"/><path class="cls-14" d="M263.62,45H36.38A36.38,36.38,0,0,0,0,81.38v93c3.83,2.63,9.07,4.3,16.39,4.3,34.22,0,35.56-51.37,51.9-51.37s11.18,23.55,36.32,23.55,18.52-52.3,62.18-52.3,45.74,77.62,90,77.62c23.79,0,34.48-14.38,43.21-27.68V81.38A36.38,36.38,0,0,0,263.62,45Z"/><ellipse class="cls-15" cx="265.15" cy="83.61" rx="16.01" ry="21.71" transform="translate(9.82 193.61) rotate(-40.81)"/><ellipse class="cls-15" cx="274.15" cy="142.16" rx="11.66" ry="15.82"/><circle class="cls-15" cx="227.79" cy="72.59" r="13.92"/><rect class="cls-13" x="144.54" y="85.36" width="22.54" height="6.03" rx="3.02" transform="translate(-17.86 44.48) rotate(-15.38)"/><rect class="cls-16" x="143.55" y="81.78" width="22.54" height="6.03" rx="3.02" transform="translate(-16.94 44.09) rotate(-15.38)"/><path class="cls-17" d="M162,79.7l-15.92,4.37a3,3,0,0,0-2.2,2.81,3,3,0,0,0,3.33,1.29l15.92-4.38a3,3,0,0,0,2.2-2.81A3,3,0,0,0,162,79.7Z"/><rect class="cls-13" x="274.53" y="105.34" width="22.54" height="6.03" rx="3.02" transform="translate(-18.5 79.66) rotate(-15.38)"/><rect class="cls-16" x="273.55" y="101.76" width="22.54" height="6.03" rx="3.02" transform="translate(-17.59 79.27) rotate(-15.38)"/><path class="cls-17" d="M292,99.67l-15.91,4.38a3,3,0,0,0-2.2,2.81,3,3,0,0,0,3.32,1.29l15.92-4.38a3,3,0,0,0,2.2-2.81A3,3,0,0,0,292,99.67Z"/><rect class="cls-13" x="249.24" y="154.88" width="22.54" height="6.03" rx="3.02" transform="matrix(0.98, -0.22, 0.22, 0.98, -27.9, 59.83)"/><rect class="cls-16" x="248.44" y="151.25" width="22.54" height="6.03" rx="3.02" transform="translate(-27.13 59.57) rotate(-12.44)"/><path class="cls-17" d="M267.12,149.54,251,153.1a3,3,0,0,0-2.34,2.69,3,3,0,0,0,3.25,1.45L268,153.69a3,3,0,0,0,2.35-2.69A3,3,0,0,0,267.12,149.54Z"/><rect class="cls-13" x="160.48" y="60.41" width="22.54" height="6.03" rx="3.02" transform="translate(-8.42 95.98) rotate(-30.51)"/><rect class="cls-16" x="158.6" y="57.21" width="22.54" height="6.03" rx="3.02" transform="translate(-7.06 94.58) rotate(-30.51)"/><path class="cls-17" d="M175.45,53.44l-14.23,8.38a3,3,0,0,0-1.39,3.28,3,3,0,0,0,3.55.38L177.6,57.1A3,3,0,0,0,179,53.81,3,3,0,0,0,175.45,53.44Z"/><rect class="cls-13" x="94.58" y="83.57" width="22.54" height="6.03" rx="3.02" transform="translate(14.91 -15.55) rotate(9.04)"/><rect class="cls-16" x="95.17" y="79.9" width="22.54" height="6.03" rx="3.02" transform="translate(14.34 -15.69) rotate(9.04)"/><path class="cls-17" d="M115.06,81.23l-16.3-2.59a3,3,0,0,0-3.16,1.64,3,3,0,0,0,2.49,2.55l16.31,2.6a3,3,0,0,0,3.16-1.65A3,3,0,0,0,115.06,81.23Z"/><rect class="cls-13" x="35.24" y="101.99" width="22.54" height="6.03" rx="3.02" transform="translate(-26.18 16.09) rotate(-15.38)"/><rect class="cls-16" x="34.25" y="98.41" width="22.54" height="6.03" rx="3.02" transform="translate(-25.26 15.7) rotate(-15.38)"/><path class="cls-17" d="M52.68,96.32,36.76,100.7a3,3,0,0,0-2.2,2.81,3,3,0,0,0,3.33,1.29l15.92-4.38A3,3,0,0,0,56,97.61,3,3,0,0,0,52.68,96.32Z"/><rect class="cls-13" x="239.34" y="95.37" width="22.54" height="6.03" rx="3.02" transform="translate(-17.12 69.98) rotate(-15.38)"/><rect class="cls-16" x="238.35" y="91.78" width="22.54" height="6.03" rx="3.02" transform="translate(-16.2 69.59) rotate(-15.38)"/><path class="cls-17" d="M256.78,89.7l-15.91,4.38a3,3,0,0,0-2.21,2.81A3,3,0,0,0,242,98.18l15.92-4.38a3,3,0,0,0,2.2-2.81A3,3,0,0,0,256.78,89.7Z"/><rect class="cls-13" x="88.84" y="117.52" width="22.54" height="6.03" rx="3.02" transform="translate(72.35 -33.67) rotate(29.51)"/><rect class="cls-18" x="90.67" y="114.29" width="22.54" height="6.03" rx="3.02" transform="matrix(0.87, 0.49, -0.49, 0.87, 71, -35)"/><path class="cls-19" d="M110.61,118.74l-14.36-8.13a3,3,0,0,0-3.54.44,3,3,0,0,0,1.44,3.26l14.37,8.13a3,3,0,0,0,3.54-.44A3,3,0,0,0,110.61,118.74Z"/><rect class="cls-13" x="262.21" y="118.96" width="22.54" height="6.03" rx="3.02" transform="translate(28.45 -50.16) rotate(11.05)"/><rect class="cls-18" x="262.93" y="115.31" width="22.54" height="6.03" rx="3.02" transform="translate(27.76 -50.36) rotate(11.05)"/><path class="cls-19" d="M282.88,117l-16.21-3.17a3,3,0,0,0-3.22,1.54,3,3,0,0,0,2.41,2.63l16.2,3.17a3,3,0,0,0,3.22-1.54A3,3,0,0,0,282.88,117Z"/><rect class="cls-13" x="53.69" y="63.34" width="22.54" height="6.03" rx="3.02" transform="translate(-11.51 13.68) rotate(-11.05)"/><rect class="cls-18" x="52.98" y="59.69" width="22.54" height="6.03" rx="3.02" transform="translate(-10.83 13.48) rotate(-11.05)"/><path class="cls-19" d="M71.77,58.16l-16.2,3.17A3,3,0,0,0,53.17,64a3,3,0,0,0,3.22,1.53l16.2-3.16A3,3,0,0,0,75,59.7,3,3,0,0,0,71.77,58.16Z"/><rect class="cls-13" x="213" y="126.14" width="22.54" height="6.03" rx="3.02" transform="translate(92.7 -93.71) rotate(29.51)"/><rect class="cls-18" x="214.83" y="122.9" width="22.54" height="6.03" rx="3.02" transform="translate(91.34 -95.03) rotate(29.51)"/><path class="cls-19" d="M234.77,127.36l-14.37-8.14a3,3,0,0,0-3.54.44,3,3,0,0,0,1.45,3.26l14.37,8.13a3,3,0,0,0,3.54-.44A3,3,0,0,0,234.77,127.36Z"/><rect class="cls-13" x="201.67" y="66" width="22.54" height="6.03" rx="3.02" transform="translate(61.61 -95.93) rotate(29.51)"/><rect class="cls-18" x="203.5" y="62.76" width="22.54" height="6.03" rx="3.02" transform="translate(60.25 -97.25) rotate(29.51)"/><path class="cls-19" d="M223.44,67.22l-14.36-8.13a3,3,0,0,0-3.54.43A3,3,0,0,0,207,62.78l14.36,8.14a3,3,0,0,0,3.54-.44A3,3,0,0,0,223.44,67.22Z"/><rect class="cls-13" x="12.75" y="76.25" width="22.54" height="6.03" rx="3.02" transform="translate(12.75 -2.79) rotate(9.04)"/><rect class="cls-20" x="13.33" y="72.58" width="22.54" height="6.03" rx="3.02" transform="translate(12.18 -2.93) rotate(9.04)"/><path class="cls-21" d="M33.23,73.91l-16.3-2.59A3,3,0,0,0,13.76,73a3,3,0,0,0,2.5,2.55l16.3,2.59a3,3,0,0,0,3.17-1.64A3,3,0,0,0,33.23,73.91Z"/><rect class="cls-13" x="197.27" y="94.95" width="22.54" height="6.03" rx="3.02" transform="translate(45.73 -65.07) rotate(19.88)"/><rect class="cls-20" x="198.53" y="91.45" width="22.54" height="6.03" rx="3.02" transform="translate(44.62 -65.7) rotate(19.88)"/><path class="cls-21" d="M218.59,94.44l-15.52-5.62a3,3,0,0,0-3.42,1,3,3,0,0,0,2,3l15.53,5.61a3,3,0,0,0,3.42-1A3,3,0,0,0,218.59,94.44Z"/><rect class="cls-13" x="123.66" y="64.38" width="22.54" height="6.03" rx="3.02" transform="translate(8.48 -14.81) rotate(6.48)"/><rect class="cls-20" x="124.08" y="60.69" width="22.54" height="6.03" rx="3.02" transform="translate(8.06 -14.88) rotate(6.48)"/><path class="cls-21" d="M143.89,61.64l-16.4-1.87a3,3,0,0,0-3.09,1.79A3,3,0,0,0,127,64l16.4,1.87a3,3,0,0,0,3.09-1.79A3,3,0,0,0,143.89,61.64Z"/><rect class="cls-13" x="8.89" y="142.27" width="22.54" height="6.03" rx="3.02" transform="translate(-27.47 6.56) rotate(-11.05)"/><rect class="cls-20" x="8.18" y="138.62" width="22.54" height="6.03" rx="3.02" transform="translate(-26.79 6.35) rotate(-11.05)"/><path class="cls-21" d="M27,137.1l-16.2,3.16a3,3,0,0,0-2.41,2.64,3,3,0,0,0,3.22,1.53l16.21-3.16a3,3,0,0,0,2.4-2.64A3,3,0,0,0,27,137.1Z"/><rect class="cls-13" x="246.59" y="64.68" width="22.54" height="6.03" rx="3.02" transform="translate(24.66 196.91) rotate(-43.7)"/><rect class="cls-20" x="244.02" y="61.99" width="22.54" height="6.03" rx="3.02" transform="translate(25.81 194.39) rotate(-43.7)"/><path class="cls-21" d="M259.17,57.13l-11.93,11.4a3,3,0,0,0-.61,3.52,3,3,0,0,0,3.54-.45L262.1,60.2a3,3,0,0,0,.61-3.52A3,3,0,0,0,259.17,57.13Z"/></g></svg>