<svg id="Layer_1" data-name="Layer 1" xmlns="http://www.w3.org/2000/svg" xmlns:xlink="http://www.w3.org/1999/xlink" viewBox="0 0 300 345"><defs><style>.cls-1{fill:url(#linear-gradient);}.cls-2{fill:#9bd4ee;}.cls-14,.cls-3,.cls-9{fill:none;}.cls-3{stroke:#90b83e;stroke-width:19px;}.cls-13,.cls-14,.cls-3,.cls-9{stroke-miterlimit:10;}.cls-4{fill:#559441;}.cls-5{fill:url(#linear-gradient-2);}.cls-6{fill:url(#linear-gradient-3);}.cls-7{fill:#90b83e;}.cls-8{fill:#789b3e;}.cls-13,.cls-14,.cls-9{stroke:#cd488a;stroke-linecap:round;}.cls-9{stroke-width:12px;}.cls-10,.cls-13{fill:#f38db6;}.cls-11{fill:#e96ea6;}.cls-12{fill:#f3c1da;}.cls-13{stroke-width:4px;}.cls-14{stroke-width:5px;}.cls-15{fill:#2f2c38;}.cls-16{fill:#e573ac;}</style><linearGradient id="linear-gradient" x1="150" y1="356.11" x2="150" y2="161.16" gradientUnits="userSpaceOnUse"><stop offset="0.07" stop-color="#416eb5"/><stop offset="0.54" stop-color="#032657"/></linearGradient><linearGradient id="linear-gradient-2" x1="113.69" y1="330.87" x2="113.69" y2="290.99" gradientUnits="userSpaceOnUse"><stop offset="0" stop-color="#90b83e"/><stop offset="1" stop-color="#559441"/></linearGradient><linearGradient id="linear-gradient-3" x1="277.64" y1="330.87" x2="277.64" y2="290.99" xlink:href="#linear-gradient-2"/></defs><g id="underwater_2" data-name="underwater 2"><path class="cls-1" d="M263.62,345H36.38A36.38,36.38,0,0,1,0,308.62V259.14H300v49.48A36.38,36.38,0,0,1,263.62,345Z"/><rect class="cls-2" y="45" width="300" height="253.39" rx="36.38"/><line class="cls-3" x1="150" y1="314.53" x2="150" y2="344.97"/><polygon class="cls-4" points="262.56 298.9 259.66 321.17 199.89 289.74 207.05 276.4 262.56 298.9"/><path class="cls-5" d="M0,262v23.8a36.38,36.38,0,0,0,36.38,36.38H216.84a10.54,10.54,0,0,0,10.53-10.53V298.39h-191A36.38,36.38,0,0,1,0,262Z"/><path class="cls-6" d="M263.62,298.39h-8.33v15.47a8.33,8.33,0,0,0,8.33,8.33A36.38,36.38,0,0,0,300,285.81V262A36.38,36.38,0,0,1,263.62,298.39Z"/><path class="cls-7" d="M263.62,218.32H36.38A36.38,36.38,0,0,0,0,254.7V262a36.38,36.38,0,0,0,36.38,36.38h191S200.56,286,205.58,281.51s49.71,16.88,49.71,16.88h8.33A36.38,36.38,0,0,0,300,262V254.7A36.38,36.38,0,0,0,263.62,218.32Z"/><ellipse class="cls-8" cx="150" cy="246.39" rx="93.17" ry="38.16"/><path class="cls-9" d="M232.63,243.3s32.67-27.06,16.08-41.36a10.92,10.92,0,0,0-12.2-1.92h0c-.36.15-.7.31-1,.49l-.18.09c-.3.16-.59.32-.87.49l-.16.1a23.27,23.27,0,0,0-2,1.34c-.83-26.21-14.64-54.63-32.59-73.2-.13-.14-.27-.27-.41-.41a16.15,16.15,0,0,1-4.15-7.49,19.54,19.54,0,0,0-18.93-14.72c-22.89,0-20.34,21.43-21.36,21.43h-9.7c-1,0-.13-21.43-21.36-21.43a19.54,19.54,0,0,0-18.93,14.72,16.15,16.15,0,0,1-4.15,7.49l-.41.41c-18,18.57-31.76,47-32.59,73.2a22.55,22.55,0,0,0-2-1.34l-.15-.09c-.29-.18-.59-.34-.89-.5l-.16-.09c-3.92-2-8.62-2.58-13.26,1.42C34.7,216.24,67.37,243.3,67.37,243.3s-22.93,3.57-19.91,13.28c1.2,3.84,21.74-2.21,34.87-6.51l.22-.07,2.25-.75.07,0,.95-.32.21-.07.31-.11c13,11.2,33.46,18.32,63.66,18.32s50.67-7.12,63.66-18.32l.31.11.21.07.95.32.07,0,2.25.75.22.07c13.13,4.3,33.67,10.35,34.87,6.51C255.56,246.87,232.63,243.3,232.63,243.3Z"/><path class="cls-10" d="M226,209.08s11.57-16.76,22.73-7.14c16.59,14.3-16.08,41.36-16.08,41.36s22.93,3.57,19.91,13.28c-1.77,5.67-45.7-10.22-45.7-10.22"/><path class="cls-10" d="M74,209.08s-11.57-16.76-22.73-7.14C34.7,216.24,67.37,243.3,67.37,243.3s-22.93,3.57-19.91,13.28c1.77,5.67,45.7-10.22,45.7-10.22"/><path class="cls-11" d="M74,209.07s-6.25-9-14-10C58.31,218.8,62.93,237.77,77,251.79c8.83-2.76,16.2-5.43,16.2-5.43Z"/><path class="cls-11" d="M240,199.06c-7.75,1-14,10-14,10l-19.14,37.29s7.37,2.67,16.2,5.43C237.07,237.77,241.69,218.8,240,199.06Z"/><path class="cls-10" d="M199.7,129.34c-.13-.14-.27-.27-.41-.41a16.15,16.15,0,0,1-4.15-7.49,19.54,19.54,0,0,0-18.93-14.72c-22.89,0-20.34,21.43-21.36,21.43h-9.7c-1,0-.13-21.43-21.36-21.43a19.54,19.54,0,0,0-18.93,14.72,16.15,16.15,0,0,1-4.15,7.49l-.41.41C59,172.09,39.59,267.05,150,267.05S241,172.09,199.7,129.34Z"/><path class="cls-12" d="M173.5,171.7A29.82,29.82,0,0,0,150,183.14,29.89,29.89,0,0,0,96.6,201.6c0,38.43,53.4,54.28,53.4,54.28S203.4,240,203.4,201.6A29.9,29.9,0,0,0,173.5,171.7Z"/><path class="cls-13" d="M189.32,232.36c-4.08,5.88-4.85,21.71,1,22.93,7.42,1.54,13.28-14.76,13.28-14.76"/><path class="cls-13" d="M110.68,232.36c4.08,5.88,4.85,21.71-1,22.93-7.42,1.54-13.28-14.76-13.28-14.76"/><path class="cls-14" d="M135.84,151c10.33,0,14.16-4.51,14.16-4.51s3.49,4.51,14.16,4.51"/><ellipse class="cls-15" cx="179.23" cy="126.45" rx="4.39" ry="5.7"/><circle class="cls-16" cx="191.67" cy="144.75" r="8.04"/><ellipse class="cls-15" cx="120.77" cy="126.45" rx="4.39" ry="5.7"/><circle class="cls-16" cx="108.33" cy="144.75" r="8.04"/></g></svg>