<?xml version="1.0" encoding="UTF-8" standalone="no"?>
<!DOCTYPE svg PUBLIC "-//W3C//DTD SVG 1.1//EN" "http://www.w3.org/Graphics/SVG/1.1/DTD/svg11.dtd">
<svg width="100%" height="100%" viewBox="0 0 300 345" version="1.1" xmlns="http://www.w3.org/2000/svg" xmlns:xlink="http://www.w3.org/1999/xlink" xml:space="preserve" xmlns:serif="http://www.serif.com/" style="fill-rule:evenodd;clip-rule:evenodd;stroke-linejoin:round;stroke-miterlimit:2;">
    <g id="avatar_nose_9">
        <g transform="matrix(0.965926,-0.258819,0.258819,0.965926,-51.4225,46.2656)">
            <circle cx="150" cy="218.429" r="31.45" style="fill:#ff3104;"/>
        </g>
        <g transform="matrix(0.965926,-0.258819,0.258819,0.965926,-51.4225,46.2656)">
            <path d="M167.306,228.062C166.803,229.555 165.682,230.559 164.594,231.66C162.849,233.427 162.867,236.279 164.635,238.024C166.402,239.769 169.253,239.751 170.998,237.984C173.061,235.895 174.88,233.769 175.835,230.937C176.628,228.584 175.362,226.029 173.008,225.236C170.655,224.442 168.1,225.709 167.306,228.062ZM152.8,199.061C161.968,200.713 167.272,206.07 169.101,216.63C169.525,219.078 171.856,220.72 174.303,220.297C176.75,219.873 178.393,217.542 177.969,215.095C175.353,199.989 167.51,192.567 154.396,190.204C151.952,189.764 149.61,191.391 149.169,193.835C148.729,196.279 150.356,198.621 152.8,199.061Z" style="fill:#ff4c24;"/>
        </g>
    </g>
</svg>
