<svg id="Layer_1" data-name="Layer 1" xmlns="http://www.w3.org/2000/svg" viewBox="0 0 300 345"><g id="assets"><g id="hair"><path d="M300,109.65V81.38A36.38,36.38,0,0,0,263.62,45H36.38A36.38,36.38,0,0,0,0,81.38v28.27c17.37,6.07,4.28,26,4.28,26a53,53,0,0,0,17-8,16.76,16.76,0,0,0,1.68,1.2c5.38,3.28,2.69,12.38,2.69,12.38,5.26-1.53,9.73-8.39,7.07-13.67-2.22-4.41-5.9-7.37,1.7-11.93a20.26,20.26,0,0,0,6.42-6.73c2.62,4.18-.87,7.74-3.24,12.44C33.7,129,40.21,139,47.87,141.22c0,0-3.72-12.6,3.36-17.65a25.11,25.11,0,0,0,8.9,9.68c7.83,4.76,3.91,18,3.91,18,7.66-2.24,14.17-12.22,10.3-19.9-3.23-6.42-8.6-10.72,2.47-17.36l.33-.21a15.87,15.87,0,0,0,2.43,1.82c7.6,4.56,3.92,7.52,1.7,11.93-2.66,5.28,1.81,12.14,7.07,13.67,0,0-2.69-9.1,2.69-12.38a16.15,16.15,0,0,0,3.82-3.28c8.2,8.23,20.77,11.26,20.77,11.26s-8.75-13.3-2.47-21.47a50.53,50.53,0,0,0,6.17,10.31c5.38,7.37,3.51,20,3.51,20s10.41-11.23,6.67-20.11c-3.41-8.1.36-11,5.57-19.9,8.38,15.35,15.06,19.23,9.74,31.85-5.44,12.94,9.71,29.28,9.71,29.28s-2.73-18.39,5.1-29.11,15.66-23.49,7.49-34,4.94-20.26,4.94-20.26,14.3,9.71,11.4,21.11-11.74,17-4.08,30c0,0,.68-10.9,14.64-18.56a21,21,0,0,0,8.51-8.41c5,5.56-1.3,15.22-1.3,15.22s16.88-4.07,18.83-16.28a15.09,15.09,0,0,1,1.75,7.09c-.22,12.09-6.18,11.41-1.75,28.09,0,0,3.23-15.41,15.55-23.61,0,2-1.65,4-2.87,6.46-2.65,5.28,1.82,12.14,7.08,13.67,0,0-2.69-9.11,2.69-12.38a16.29,16.29,0,0,0,4.09-3.63c.54.4,1.08.77,1.63,1.1,7.83,4.77,3.91,18,3.91,18,7.66-2.23,14.17-12.21,10.3-19.89-.75-1.49-1.62-2.87-2.37-4.19.5.16,1,.31,1.52.42,8.66,1.88,6.12,5.86,5.43,10.75-.82,5.85,5.62,10.91,11.09,10.68,0,0-5.47-7.76-1.42-12.59.07-.09.13-.18.2-.26,8.1,6.89,18.84,9.49,18.84,9.49S282.63,115.72,300,109.65Z" fill="#fabc2e"/><path d="M300,102.44V74.17a36.38,36.38,0,0,0-36.38-36.38H36.38A36.38,36.38,0,0,0,0,74.17v28.27c17.37,6.07,4.28,26,4.28,26a53,53,0,0,0,17-8,16.76,16.76,0,0,0,1.68,1.2c5.38,3.28,2.69,12.38,2.69,12.38,5.26-1.53,9.73-8.39,7.07-13.67-2.22-4.41-5.9-7.37,1.7-11.93a20.26,20.26,0,0,0,6.42-6.73c2.62,4.17-.87,7.74-3.24,12.44-3.87,7.68,2.64,17.66,10.3,19.89,0,0-3.72-12.61,3.36-17.65a25.18,25.18,0,0,0,8.9,9.68c7.83,4.76,3.91,18,3.91,18,7.66-2.24,14.17-12.22,10.3-19.9-3.23-6.42-8.6-10.72,2.47-17.36l.33-.21a15.87,15.87,0,0,0,2.43,1.82c7.6,4.56,3.92,7.52,1.7,11.93-2.66,5.28,1.81,12.14,7.07,13.67,0,0-2.69-9.1,2.69-12.38a16.15,16.15,0,0,0,3.82-3.28c8.2,8.23,20.77,11.26,20.77,11.26s-8.75-13.3-2.47-21.47a50.53,50.53,0,0,0,6.17,10.31c5.38,7.37,3.51,20,3.51,20s10.41-11.23,6.67-20.12c-3.41-8.09.36-11,5.57-19.89,8.38,15.35,15.06,19.23,9.74,31.85-5.44,12.94,9.71,29.28,9.71,29.28s-2.73-18.39,5.1-29.11,15.66-23.49,7.49-34,4.94-20.26,4.94-20.26,14.3,9.71,11.4,21.11-11.74,17-4.08,30c0,0,.68-10.9,14.64-18.56a21,21,0,0,0,8.51-8.41c5,5.56-1.3,15.22-1.3,15.22s16.88-4.07,18.83-16.28a15.09,15.09,0,0,1,1.75,7.09c-.22,12.09-6.18,11.4-1.75,28.09,0,0,3.23-15.41,15.55-23.61,0,2-1.65,4-2.87,6.46-2.65,5.28,1.82,12.14,7.08,13.67,0,0-2.69-9.11,2.69-12.38a16.29,16.29,0,0,0,4.09-3.63c.54.4,1.08.77,1.63,1.1,7.83,4.77,3.91,18,3.91,18,7.66-2.23,14.17-12.21,10.3-19.89-.75-1.49-1.62-2.87-2.37-4.19.5.16,1,.31,1.52.42,8.66,1.88,6.12,5.86,5.43,10.75-.82,5.85,5.62,10.91,11.09,10.68,0,0-5.47-7.76-1.42-12.59.07-.09.13-.18.2-.26,8.1,6.89,18.84,9.49,18.84,9.49S282.63,108.51,300,102.44Z" fill="#3f1c12"/></g></g></svg>