<?xml version="1.0" encoding="UTF-8" standalone="no"?>
<!-- Created with Inkscape (http://www.inkscape.org/) -->

<svg
   width="267.81076mm"
   height="42.777447mm"
   viewBox="0 0 267.81076 42.777446"
   version="1.1"
   id="svg5"
   xml:space="preserve"
   inkscape:version="1.2 (dc2aedaf03, 2022-05-15)"
   sodipodi:docname="Defeated Text 2.svg"
   xmlns:inkscape="http://www.inkscape.org/namespaces/inkscape"
   xmlns:sodipodi="http://sodipodi.sourceforge.net/DTD/sodipodi-0.dtd"
   xmlns="http://www.w3.org/2000/svg"
   xmlns:svg="http://www.w3.org/2000/svg"><sodipodi:namedview
     id="namedview7"
     pagecolor="#505050"
     bordercolor="#ffffff"
     borderopacity="1"
     inkscape:showpageshadow="0"
     inkscape:pageopacity="0"
     inkscape:pagecheckerboard="1"
     inkscape:deskcolor="#505050"
     inkscape:document-units="mm"
     showgrid="false"
     inkscape:zoom="0.60938539"
     inkscape:cx="609.63063"
     inkscape:cy="146.04879"
     inkscape:window-width="1366"
     inkscape:window-height="705"
     inkscape:window-x="-8"
     inkscape:window-y="-8"
     inkscape:window-maximized="1"
     inkscape:current-layer="layer1" /><defs
     id="defs2"><filter
       style="color-interpolation-filters:sRGB"
       inkscape:label="Drop Shadow"
       id="filter1746"
       x="-0.015482349"
       y="0"
       width="1.0154823"
       height="1.1367021"><feFlood
         flood-opacity="1"
         flood-color="rgb(15,0,57)"
         result="flood"
         id="feFlood1736" /><feComposite
         in="flood"
         in2="SourceGraphic"
         operator="in"
         result="composite1"
         id="feComposite1738" /><feGaussianBlur
         in="composite1"
         stdDeviation="0"
         result="blur"
         id="feGaussianBlur1740" /><feOffset
         dx="-4.82866"
         dy="5.76324"
         result="offset"
         id="feOffset1742" /><feComposite
         in="SourceGraphic"
         in2="offset"
         operator="over"
         result="composite2"
         id="feComposite1744" /></filter><filter
       style="color-interpolation-filters:sRGB"
       inkscape:label="Drop Shadow"
       id="filter7142"
       x="-0.030976692"
       y="-0.026760422"
       width="1.1160975"
       height="1.1343127"><feFlood
         flood-opacity="1"
         flood-color="rgb(77,40,13)"
         result="flood"
         id="feFlood7132" /><feComposite
         in="flood"
         in2="SourceGraphic"
         operator="in"
         result="composite1"
         id="feComposite7134" /><feGaussianBlur
         in="composite1"
         stdDeviation="0"
         result="blur"
         id="feGaussianBlur7136" /><feOffset
         dx="1.7134"
         dy="2.9595"
         result="offset"
         id="feOffset7138" /><feComposite
         in="SourceGraphic"
         in2="offset"
         operator="over"
         result="composite2"
         id="feComposite7140" /></filter><filter
       style="color-interpolation-filters:sRGB"
       inkscape:label="Drop Shadow"
       id="filter7154"
       x="-0.038689766"
       y="-0.026760422"
       width="1.1450052"
       height="1.1343127"><feFlood
         flood-opacity="1"
         flood-color="rgb(77,40,13)"
         result="flood"
         id="feFlood7144" /><feComposite
         in="flood"
         in2="SourceGraphic"
         operator="in"
         result="composite1"
         id="feComposite7146" /><feGaussianBlur
         in="composite1"
         stdDeviation="0"
         result="blur"
         id="feGaussianBlur7148" /><feOffset
         dx="1.7134"
         dy="2.9595"
         result="offset"
         id="feOffset7150" /><feComposite
         in="SourceGraphic"
         in2="offset"
         operator="over"
         result="composite2"
         id="feComposite7152" /></filter><filter
       style="color-interpolation-filters:sRGB"
       inkscape:label="Drop Shadow"
       id="filter7166"
       x="-0.036630228"
       y="-0.026760422"
       width="1.1372862"
       height="1.1343127"><feFlood
         flood-opacity="1"
         flood-color="rgb(77,40,13)"
         result="flood"
         id="feFlood7156" /><feComposite
         in="flood"
         in2="SourceGraphic"
         operator="in"
         result="composite1"
         id="feComposite7158" /><feGaussianBlur
         in="composite1"
         stdDeviation="0"
         result="blur"
         id="feGaussianBlur7160" /><feOffset
         dx="1.7134"
         dy="2.9595"
         result="offset"
         id="feOffset7162" /><feComposite
         in="SourceGraphic"
         in2="offset"
         operator="over"
         result="composite2"
         id="feComposite7164" /></filter><filter
       style="color-interpolation-filters:sRGB"
       inkscape:label="Drop Shadow"
       id="filter7178"
       x="-0.032112505"
       y="-0.026760422"
       width="1.1203543"
       height="1.1343127"><feFlood
         flood-opacity="1"
         flood-color="rgb(77,40,13)"
         result="flood"
         id="feFlood7168" /><feComposite
         in="flood"
         in2="SourceGraphic"
         operator="in"
         result="composite1"
         id="feComposite7170" /><feGaussianBlur
         in="composite1"
         stdDeviation="0"
         result="blur"
         id="feGaussianBlur7172" /><feOffset
         dx="1.7134"
         dy="2.9595"
         result="offset"
         id="feOffset7174" /><feComposite
         in="SourceGraphic"
         in2="offset"
         operator="over"
         result="composite2"
         id="feComposite7176" /></filter><filter
       style="color-interpolation-filters:sRGB"
       inkscape:label="Drop Shadow"
       id="filter7190"
       x="-0.031026583"
       y="-0.025690002"
       width="1.1162844"
       height="1.1289402"><feFlood
         flood-opacity="1"
         flood-color="rgb(77,40,13)"
         result="flood"
         id="feFlood7180" /><feComposite
         in="flood"
         in2="SourceGraphic"
         operator="in"
         result="composite1"
         id="feComposite7182" /><feGaussianBlur
         in="composite1"
         stdDeviation="0"
         result="blur"
         id="feGaussianBlur7184" /><feOffset
         dx="1.7134"
         dy="2.9595"
         result="offset"
         id="feOffset7186" /><feComposite
         in="SourceGraphic"
         in2="offset"
         operator="over"
         result="composite2"
         id="feComposite7188" /></filter><filter
       style="color-interpolation-filters:sRGB"
       inkscape:label="Drop Shadow"
       id="filter7202"
       x="-0.030534863"
       y="-0.026760422"
       width="1.1144415"
       height="1.1343127"><feFlood
         flood-opacity="1"
         flood-color="rgb(77,40,13)"
         result="flood"
         id="feFlood7192" /><feComposite
         in="flood"
         in2="SourceGraphic"
         operator="in"
         result="composite1"
         id="feComposite7194" /><feGaussianBlur
         in="composite1"
         stdDeviation="0"
         result="blur"
         id="feGaussianBlur7196" /><feOffset
         dx="1.7134"
         dy="2.9595"
         result="offset"
         id="feOffset7198" /><feComposite
         in="SourceGraphic"
         in2="offset"
         operator="over"
         result="composite2"
         id="feComposite7200" /></filter><filter
       style="color-interpolation-filters:sRGB"
       inkscape:label="Drop Shadow"
       id="filter12608"
       x="-0.031126573"
       y="-0.026760204"
       width="1.1552924"
       height="1.1335083"><feFlood
         flood-opacity="1"
         flood-color="rgb(15,0,57)"
         result="flood"
         id="feFlood12598" /><feComposite
         in="flood"
         in2="SourceGraphic"
         operator="in"
         result="composite1"
         id="feComposite12600" /><feGaussianBlur
         in="composite1"
         stdDeviation="0"
         result="blur"
         id="feGaussianBlur12602" /><feOffset
         dx="1.40187"
         dy="1.40187"
         result="offset"
         id="feOffset12604" /><feComposite
         in="SourceGraphic"
         in2="offset"
         operator="over"
         result="composite2"
         id="feComposite12606" /></filter><filter
       style="color-interpolation-filters:sRGB"
       inkscape:label="Drop Shadow"
       id="filter14084"
       x="-0.035946546"
       y="-0.026760204"
       width="1.1793395"
       height="1.1335083"><feFlood
         flood-opacity="1"
         flood-color="rgb(15,0,57)"
         result="flood"
         id="feFlood14074" /><feComposite
         in="flood"
         in2="SourceGraphic"
         operator="in"
         result="composite1"
         id="feComposite14076" /><feGaussianBlur
         in="composite1"
         stdDeviation="0"
         result="blur"
         id="feGaussianBlur14078" /><feOffset
         dx="1.40187"
         dy="1.40187"
         result="offset"
         id="feOffset14080" /><feComposite
         in="SourceGraphic"
         in2="offset"
         operator="over"
         result="composite2"
         id="feComposite14082" /></filter><filter
       style="color-interpolation-filters:sRGB"
       inkscape:label="Drop Shadow"
       id="filter15560"
       x="-0.037195652"
       y="-0.026760204"
       width="1.1855714"
       height="1.1335083"><feFlood
         flood-opacity="1"
         flood-color="rgb(15,0,57)"
         result="flood"
         id="feFlood15550" /><feComposite
         in="flood"
         in2="SourceGraphic"
         operator="in"
         result="composite1"
         id="feComposite15552" /><feGaussianBlur
         in="composite1"
         stdDeviation="0"
         result="blur"
         id="feGaussianBlur15554" /><feOffset
         dx="1.40187"
         dy="1.40187"
         result="offset"
         id="feOffset15556" /><feComposite
         in="SourceGraphic"
         in2="offset"
         operator="over"
         result="composite2"
         id="feComposite15558" /></filter><filter
       style="color-interpolation-filters:sRGB"
       inkscape:label="Drop Shadow"
       id="filter17038"
       x="-0.03594656"
       y="-0.026760204"
       width="1.1793396"
       height="1.1335083"><feFlood
         flood-opacity="1"
         flood-color="rgb(15,0,57)"
         result="flood"
         id="feFlood17028" /><feComposite
         in="flood"
         in2="SourceGraphic"
         operator="in"
         result="composite1"
         id="feComposite17030" /><feGaussianBlur
         in="composite1"
         stdDeviation="0"
         result="blur"
         id="feGaussianBlur17032" /><feOffset
         dx="1.40187"
         dy="1.40187"
         result="offset"
         id="feOffset17034" /><feComposite
         in="SourceGraphic"
         in2="offset"
         operator="over"
         result="composite2"
         id="feComposite17036" /></filter><filter
       style="color-interpolation-filters:sRGB"
       inkscape:label="Drop Shadow"
       id="filter17776"
       x="-0.030976459"
       y="-0.026760204"
       width="1.1545435"
       height="1.1335083"><feFlood
         flood-opacity="1"
         flood-color="rgb(15,0,57)"
         result="flood"
         id="feFlood17766" /><feComposite
         in="flood"
         in2="SourceGraphic"
         operator="in"
         result="composite1"
         id="feComposite17768" /><feGaussianBlur
         in="composite1"
         stdDeviation="0"
         result="blur"
         id="feGaussianBlur17770" /><feOffset
         dx="1.40187"
         dy="1.40187"
         result="offset"
         id="feOffset17772" /><feComposite
         in="SourceGraphic"
         in2="offset"
         operator="over"
         result="composite2"
         id="feComposite17774" /></filter><filter
       style="color-interpolation-filters:sRGB"
       inkscape:label="Drop Shadow"
       id="filter18514"
       x="-0.032112247"
       y="-0.026760204"
       width="1.16021"
       height="1.1335083"><feFlood
         flood-opacity="1"
         flood-color="rgb(15,0,57)"
         result="flood"
         id="feFlood18504" /><feComposite
         in="flood"
         in2="SourceGraphic"
         operator="in"
         result="composite1"
         id="feComposite18506" /><feGaussianBlur
         in="composite1"
         stdDeviation="0"
         result="blur"
         id="feGaussianBlur18508" /><feOffset
         dx="1.40187"
         dy="1.40187"
         result="offset"
         id="feOffset18510" /><feComposite
         in="SourceGraphic"
         in2="offset"
         operator="over"
         result="composite2"
         id="feComposite18512" /></filter><filter
       style="color-interpolation-filters:sRGB"
       inkscape:label="Drop Shadow"
       id="filter19252"
       x="-0.035946549"
       y="-0.026760204"
       width="1.1793396"
       height="1.1335083"><feFlood
         flood-opacity="1"
         flood-color="rgb(15,0,57)"
         result="flood"
         id="feFlood19242" /><feComposite
         in="flood"
         in2="SourceGraphic"
         operator="in"
         result="composite1"
         id="feComposite19244" /><feGaussianBlur
         in="composite1"
         stdDeviation="0"
         result="blur"
         id="feGaussianBlur19246" /><feOffset
         dx="1.40187"
         dy="1.40187"
         result="offset"
         id="feOffset19248" /><feComposite
         in="SourceGraphic"
         in2="offset"
         operator="over"
         result="composite2"
         id="feComposite19250" /></filter><filter
       style="color-interpolation-filters:sRGB"
       inkscape:label="Drop Shadow"
       id="filter19990"
       x="-0.031126577"
       y="-0.026760204"
       width="1.1552924"
       height="1.1335083"><feFlood
         flood-opacity="1"
         flood-color="rgb(15,0,57)"
         result="flood"
         id="feFlood19980" /><feComposite
         in="flood"
         in2="SourceGraphic"
         operator="in"
         result="composite1"
         id="feComposite19982" /><feGaussianBlur
         in="composite1"
         stdDeviation="0"
         result="blur"
         id="feGaussianBlur19984" /><feOffset
         dx="1.40187"
         dy="1.40187"
         result="offset"
         id="feOffset19986" /><feComposite
         in="SourceGraphic"
         in2="offset"
         operator="over"
         result="composite2"
         id="feComposite19988" /></filter></defs><g
     inkscape:label="Layer 1"
     inkscape:groupmode="layer"
     id="layer1"
     transform="translate(4.9406434,-55.785269)"><g
       id="g20443"
       transform="matrix(2.1533108,0,0,2.1533108,-116.18406,-154.68539)"
       style="opacity:1"><path
         d="m 61.210024,115.73784 c 4.089405,0 5.988058,-1.58221 5.988058,-4.96571 v -7.59461 c 0,-3.383494 -1.898653,-4.965705 -5.988058,-4.965705 h -8.203153 c -0.608542,0 -0.876301,0.267759 -0.876301,0.876301 v 15.773424 c 0,0.60854 0.267759,0.8763 0.876301,0.8763 z m -3.553888,-12.87676 h 2.896662 c 0.778934,0 1.14406,0.36513 1.14406,1.1684 v 5.91503 c 0,0.82762 -0.365126,1.19275 -1.14406,1.19275 h -2.896662 z"
         id="path10503"
         style="font-size:24.3417px;font-family:Bungee;-inkscape-font-specification:Bungee;letter-spacing:-0.965729px;fill:#ff1800;fill-opacity:1;stroke:#0f0039;stroke-width:0.938;stroke-linecap:round;stroke-linejoin:round;stroke-dasharray:none;stroke-opacity:1;paint-order:stroke fill markers;filter:url(#filter12608)" /><path
         d="m 81.494605,115.73784 c 0.608543,0 0.876302,-0.26776 0.876302,-0.8763 v -2.84798 c 0,-0.60854 -0.267759,-0.8763 -0.876302,-0.8763 h -6.718309 v -2.09339 h 4.746632 c 0.608542,0 0.876301,-0.26776 0.876301,-0.8763 v -2.60456 c 0,-0.60854 -0.267759,-0.8763 -0.876301,-0.8763 h -4.746632 v -1.87431 h 6.718309 c 0.608543,0 0.876302,-0.26776 0.876302,-0.8763 v -2.847984 c 0,-0.608542 -0.267759,-0.876301 -0.876302,-0.876301 H 70.200057 c -0.608543,0 -0.876301,0.267759 -0.876301,0.876301 v 15.773424 c 0,0.60854 0.267758,0.8763 0.876301,0.8763 z"
         id="path10500"
         style="font-size:24.3417px;font-family:Bungee;-inkscape-font-specification:Bungee;letter-spacing:-0.965729px;fill:#ff1800;fill-opacity:1;stroke:#0f0039;stroke-width:0.938;stroke-linecap:round;stroke-linejoin:round;stroke-dasharray:none;stroke-opacity:1;paint-order:stroke fill markers;filter:url(#filter14084)" /><path
         d="m 88.926746,115.73784 c 0.608543,0 0.876301,-0.26776 0.876301,-0.8763 v -4.79532 h 4.235456 c 0.608543,0 0.876301,-0.26776 0.876301,-0.8763 v -2.921 c 0,-0.60854 -0.267758,-0.8763 -0.876301,-0.8763 h -4.235456 v -2.53154 h 6.207134 c 0.608542,0 0.876301,-0.26776 0.876301,-0.8763 v -2.896664 c 0,-0.608542 -0.267759,-0.876301 -0.876301,-0.876301 H 85.153783 c -0.608543,0 -0.876302,0.267759 -0.876302,0.876301 v 15.773424 c 0,0.60854 0.267759,0.8763 0.876302,0.8763 z"
         id="path10497"
         style="font-size:24.3417px;font-family:Bungee;-inkscape-font-specification:Bungee;letter-spacing:-0.965729px;fill:#ff1800;fill-opacity:1;stroke:#0f0039;stroke-width:0.938;stroke-linecap:round;stroke-linejoin:round;stroke-dasharray:none;stroke-opacity:1;paint-order:stroke fill markers;filter:url(#filter15560)" /><path
         d="m 110.52577,115.73784 c 0.60855,0 0.8763,-0.26776 0.8763,-0.8763 v -2.84798 c 0,-0.60854 -0.26775,-0.8763 -0.8763,-0.8763 h -6.71831 v -2.09339 h 4.74664 c 0.60854,0 0.8763,-0.26776 0.8763,-0.8763 v -2.60456 c 0,-0.60854 -0.26776,-0.8763 -0.8763,-0.8763 h -4.74664 v -1.87431 h 6.71831 c 0.60855,0 0.8763,-0.26776 0.8763,-0.8763 v -2.847984 c 0,-0.608542 -0.26775,-0.876301 -0.8763,-0.876301 H 99.231225 c -0.608543,0 -0.876301,0.267759 -0.876301,0.876301 v 15.773424 c 0,0.60854 0.267758,0.8763 0.876301,0.8763 z"
         id="path10494"
         style="font-size:24.3417px;font-family:Bungee;-inkscape-font-specification:Bungee;letter-spacing:-0.965729px;fill:#ff1800;fill-opacity:1;stroke:#0f0039;stroke-width:0.938;stroke-linecap:round;stroke-linejoin:round;stroke-dasharray:none;stroke-opacity:1;paint-order:stroke fill markers;filter:url(#filter17038)" /><path
         d="m 119.66183,103.32357 c 0.12171,-0.2921 0.26776,-0.41381 0.4625,-0.41381 h 0.60854 c 0.19473,0 0.34078,0.12171 0.46249,0.41381 l 1.14406,3.69994 h -3.82164 z m -1.38747,11.53797 v -3.40784 h 4.30848 v 3.40784 c 0,0.60854 0.2921,0.8763 0.94933,0.8763 h 3.67559 c 0.60854,0 0.8763,-0.26776 0.8763,-0.8763 v -6.42621 c 0,-0.97367 -0.2921,-2.19075 -0.94932,-3.89467 l -2.11773,-5.525569 c -0.19473,-0.559859 -0.5842,-0.803276 -1.21709,-0.803276 h -6.54791 c -0.65723,0 -1.0467,0.243417 -1.24143,0.803276 l -2.11773,5.525569 c -0.65722,1.70392 -0.94932,2.921 -0.94932,3.89467 v 6.42621 c 0,0.60854 0.26775,0.8763 0.8763,0.8763 h 3.57823 c 0.60854,0 0.8763,-0.26776 0.8763,-0.8763 z"
         id="path10491"
         style="font-size:24.3417px;font-family:Bungee;-inkscape-font-specification:Bungee;letter-spacing:-0.965729px;fill:#ff1800;fill-opacity:1;stroke:#0f0039;stroke-width:0.938;stroke-linecap:round;stroke-linejoin:round;stroke-dasharray:none;stroke-opacity:1;paint-order:stroke fill markers;filter:url(#filter17776)" /><path
         d="m 137.41484,115.73784 c 0.60854,0 0.8763,-0.26776 0.8763,-0.8763 v -11.95178 h 3.57823 c 0.60855,0 0.8763,-0.26776 0.8763,-0.8763 v -2.945344 c 0,-0.608542 -0.26775,-0.876301 -0.8763,-0.876301 h -12.85241 c -0.60855,0 -0.87631,0.267759 -0.87631,0.876301 v 2.945344 c 0,0.60854 0.26776,0.8763 0.87631,0.8763 h 3.57823 v 11.95178 c 0,0.60854 0.26775,0.8763 0.8763,0.8763 z"
         id="path10488"
         style="font-size:24.3417px;font-family:Bungee;-inkscape-font-specification:Bungee;letter-spacing:-0.965729px;fill:#ff1800;fill-opacity:1;stroke:#0f0039;stroke-width:0.938;stroke-linecap:round;stroke-linejoin:round;stroke-dasharray:none;stroke-opacity:1;paint-order:stroke fill markers;filter:url(#filter18514)" /><path
         d="m 156.31194,115.73784 c 0.60854,0 0.8763,-0.26776 0.8763,-0.8763 v -2.84798 c 0,-0.60854 -0.26776,-0.8763 -0.8763,-0.8763 h -6.71831 v -2.09339 h 4.74663 c 0.60855,0 0.8763,-0.26776 0.8763,-0.8763 v -2.60456 c 0,-0.60854 -0.26775,-0.8763 -0.8763,-0.8763 h -4.74663 v -1.87431 h 6.71831 c 0.60854,0 0.8763,-0.26776 0.8763,-0.8763 v -2.847984 c 0,-0.608542 -0.26776,-0.876301 -0.8763,-0.876301 h -11.29455 c -0.60854,0 -0.8763,0.267759 -0.8763,0.876301 v 15.773424 c 0,0.60854 0.26776,0.8763 0.8763,0.8763 z"
         id="path10485"
         style="font-size:24.3417px;font-family:Bungee;-inkscape-font-specification:Bungee;letter-spacing:-0.965729px;fill:#ff1800;fill-opacity:1;stroke:#0f0039;stroke-width:0.938;stroke-linecap:round;stroke-linejoin:round;stroke-dasharray:none;stroke-opacity:1;paint-order:stroke fill markers;filter:url(#filter19252)" /><path
         d="m 168.17427,115.73784 c 4.08941,0 5.98806,-1.58221 5.98806,-4.96571 v -7.59461 c 0,-3.383494 -1.89865,-4.965705 -5.98806,-4.965705 h -8.20315 c -0.60854,0 -0.8763,0.267759 -0.8763,0.876301 v 15.773424 c 0,0.60854 0.26776,0.8763 0.8763,0.8763 z m -3.55389,-12.87676 h 2.89667 c 0.77893,0 1.14406,0.36513 1.14406,1.1684 v 5.91503 c 0,0.82762 -0.36513,1.19275 -1.14406,1.19275 h -2.89667 z"
         id="path10482"
         style="font-size:24.3417px;font-family:Bungee;-inkscape-font-specification:Bungee;letter-spacing:-0.965729px;fill:#ff1800;fill-opacity:1;stroke:#0f0039;stroke-width:0.938;stroke-linecap:round;stroke-linejoin:round;stroke-dasharray:none;stroke-opacity:1;paint-order:stroke fill markers;filter:url(#filter19990)" /><path
         id="rect10561"
         style="fill:#bd1331;fill-opacity:1;stroke:none;stroke-width:1.438;stroke-linecap:round;stroke-linejoin:round;paint-order:stroke fill markers"
         d="m 52.130668,106.97487 v 7.88685 c 0,0.60854 0.267891,0.87592 0.876432,0.87592 h 8.203117 c 4.089401,0 5.987748,-1.58209 5.987748,-4.96559 v -3.79718 h -5.500956 v 2.96984 c 0,0.82762 -0.365183,1.19269 -1.144116,1.19269 h -2.896981 v -4.16253 z" /><path
         id="rect10576"
         style="fill:#bd1331;fill-opacity:1;stroke:none;stroke-width:1.438;stroke-linecap:round;stroke-linejoin:round;paint-order:stroke fill markers"
         d="m 69.323934,106.97487 v 7.88685 c 0,0.60854 0.267373,0.87592 0.875915,0.87592 h 11.294918 c 0.608543,0 0.875916,-0.26738 0.875916,-0.87592 v -2.8484 c 0,-0.60854 -0.267373,-0.87592 -0.875916,-0.87592 h -6.718453 v -2.09341 h 4.746481 c 0.608541,0 0.876432,-0.26789 0.876432,-0.87643 v -1.19269 z" /><path
         id="rect10574"
         style="fill:#bd1331;fill-opacity:1;stroke:none;stroke-width:1.438;stroke-linecap:round;stroke-linejoin:round;paint-order:stroke fill markers"
         d="m 84.277543,106.97487 v 7.88685 c 0,0.60854 0.26789,0.87592 0.876432,0.87592 h 3.772897 c 0.608542,0 0.876432,-0.26738 0.876432,-0.87592 v -4.79557 h 4.2354 c 0.608543,0 0.875916,-0.26789 0.875916,-0.87643 v -2.21485 z" /><path
         id="rect10572"
         style="fill:#bd1331;fill-opacity:1;stroke:none;stroke-width:1.438;stroke-linecap:round;stroke-linejoin:round;paint-order:stroke fill markers"
         d="m 98.35472,106.97487 v 7.88685 c 0,0.60854 0.26789,0.87592 0.876432,0.87592 h 11.294398 c 0.60855,0 0.87644,-0.26738 0.87644,-0.87592 v -2.8484 c 0,-0.60854 -0.26789,-0.87592 -0.87644,-0.87592 h -6.71793 v -2.09341 h 4.74648 c 0.60854,0 0.87643,-0.26789 0.87643,-0.87643 v -1.19269 z" /><path
         id="rect10564"
         style="fill:#bd1331;fill-opacity:1;stroke:none;stroke-width:1.438;stroke-linecap:round;stroke-linejoin:round;paint-order:stroke fill markers"
         d="m 113.12229,106.97487 c -0.12122,0.54866 -0.1788,1.02864 -0.1788,1.46037 v 6.42648 c 0,0.60854 0.26789,0.87592 0.87644,0.87592 h 3.57807 c 0.60854,0 0.87643,-0.26738 0.87643,-0.87592 v -3.40806 h 4.30827 v 3.40806 c 0,0.60854 0.29207,0.87592 0.94929,0.87592 h 3.67575 c 0.60854,0 0.87643,-0.26738 0.87643,-0.87592 v -6.42648 c 0,-0.43173 -0.0581,-0.9117 -0.17932,-1.46037 h -5.58053 l 0.015,0.0486 h -3.82147 l 0.015,-0.0486 z" /><path
         id="rect10568"
         style="fill:#bd1331;fill-opacity:1;stroke:none;stroke-width:1.438;stroke-linecap:round;stroke-linejoin:round;paint-order:stroke fill markers"
         d="m 132.59501,106.97487 v 7.88685 c 0,0.60854 0.26788,0.87592 0.87643,0.87592 h 3.94343 c 0.60854,0 0.87643,-0.26738 0.87643,-0.87592 v -7.88685 z" /><path
         id="rect10566"
         style="fill:#bd1331;fill-opacity:1;stroke:none;stroke-width:1.438;stroke-linecap:round;stroke-linejoin:round;paint-order:stroke fill markers"
         d="m 144.14107,107.02344 v 7.83828 c 0,0.60854 0.2679,0.87592 0.87643,0.87592 h 11.29441 c 0.60854,0 0.87643,-0.26738 0.87643,-0.87592 v -2.8484 c 0,-0.60854 -0.26789,-0.87592 -0.87643,-0.87592 h -6.71846 v -2.09341 h 4.747 c 0.60855,0 0.87592,-0.26789 0.87592,-0.87643 v -1.14412 z" /><path
         id="rect10570"
         style="fill:#bd1331;fill-opacity:1;stroke:none;stroke-width:1.438;stroke-linecap:round;stroke-linejoin:round;paint-order:stroke fill markers"
         d="m 159.09468,107.02344 v 7.83828 c 0,0.60854 0.26789,0.87592 0.87643,0.87592 h 8.20312 c 4.08941,0 5.98827,-1.58209 5.98827,-4.96559 v -3.74861 h -5.50148 v 2.92127 c 0,0.82762 -0.36518,1.19269 -1.14411,1.19269 h -2.89647 v -4.11396 z" /><path
         id="path10612"
         style="font-size:24.3417px;font-family:Bungee;-inkscape-font-specification:Bungee;letter-spacing:-0.965729px;fill:#ff7f25;fill-opacity:1;stroke-width:1.438;stroke-linecap:round;stroke-linejoin:round;paint-order:stroke fill markers"
         d="m 65.454796,99.230127 c 0.496218,0.758397 0.737939,1.735783 0.737939,2.942443 v 7.59437 c 0,3.3835 -1.898347,4.96559 -5.987748,4.96559 h -8.021216 v 0.18242 c 0,0.60854 0.267891,0.87591 0.876433,0.87591 h 8.203117 c 4.089401,0 5.987748,-1.58209 5.987748,-4.96559 v -7.59437 c 0,-1.87349 -0.582423,-3.19464 -1.796273,-4.000773 z m -8.804114,2.625663 v 8.2765 h 1.058335 v -7.21816 h 2.89698 c 0.02835,0 0.05491,0.002 0.08217,0.003 -0.03232,-0.72759 -0.397604,-1.06092 -1.140498,-1.06092 z" /><path
         id="path11790"
         style="font-size:24.3417px;font-family:Bungee;-inkscape-font-specification:Bungee;letter-spacing:-0.965729px;fill:#ff7f25;fill-opacity:1;stroke-width:1.438;stroke-linecap:round;stroke-linejoin:round;paint-order:stroke fill markers"
         d="m 81.868049,98.250904 v 2.626706 c 0,0.60854 -0.267373,0.87643 -0.875916,0.87643 H 74.27368 v 1.8743 h 0.529167 v -0.81597 H 81.5213 c 0.608542,0 0.875915,-0.26789 0.875915,-0.87643 v -2.847879 c 0,-0.476804 -0.165284,-0.743644 -0.529166,-0.837157 z m -1.971456,6.475046 v 2.38332 c 0,0.60854 -0.267891,0.87643 -0.876432,0.87643 H 74.27368 v 2.09341 h 0.529167 v -1.03508 h 4.74648 c 0.608542,0 0.876433,-0.26789 0.876433,-0.87643 v -2.60449 c 0,-0.4768 -0.165285,-0.74365 -0.529167,-0.83716 z m 1.971456,6.45025 v 2.62723 c 0,0.60854 -0.267373,0.87592 -0.875916,0.87592 H 69.697215 c -0.131736,0 -0.246211,-0.0129 -0.346748,-0.0388 v 0.22118 c 0,0.60854 0.267373,0.87591 0.875915,0.87591 H 81.5213 c 0.608542,0 0.875915,-0.26737 0.875915,-0.87591 v -2.84841 c 0,-0.4768 -0.165284,-0.74364 -0.529166,-0.83716 z" /><path
         id="path11866"
         style="font-size:24.3417px;font-family:Bungee;-inkscape-font-specification:Bungee;letter-spacing:-0.965729px;fill:#ff7f25;fill-opacity:1;stroke-width:1.438;stroke-linecap:round;stroke-linejoin:round;paint-order:stroke fill markers"
         d="m 96.357348,98.277362 v 2.675768 c 0,0.60854 -0.267891,0.87591 -0.876433,0.87591 h -6.206856 v 2.53163 h 0.529167 v -1.47329 h 6.206856 c 0.608541,0 0.876432,-0.26738 0.876432,-0.87592 v -2.896942 c 0,-0.476803 -0.165284,-0.743643 -0.529166,-0.837156 z m -1.971973,7.180918 v 2.69958 c 0,0.60854 -0.267373,0.87643 -0.875916,0.87643 h -4.2354 v 4.79557 c 0,0.60854 -0.26789,0.87592 -0.876432,0.87592 H 84.62473 c -0.131736,0 -0.246728,-0.0129 -0.347265,-0.0388 v 0.22118 c 0,0.60854 0.26789,0.87591 0.876432,0.87591 h 3.772896 c 0.608543,0 0.876433,-0.26737 0.876433,-0.87591 v -4.79558 h 4.2354 c 0.608542,0 0.875916,-0.26789 0.875916,-0.87643 v -2.92075 c 0,-0.4768 -0.165285,-0.74365 -0.529167,-0.83716 z" /><path
         id="path12036"
         style="font-size:24.3417px;font-family:Bungee;-inkscape-font-specification:Bungee;letter-spacing:-0.965729px;fill:#ff7f25;fill-opacity:1;stroke-width:1.438;stroke-linecap:round;stroke-linejoin:round;paint-order:stroke fill markers"
         d="m 124.08914,98.255402 2.01332,5.253948 c 0.65721,1.70391 0.94929,2.92066 0.94929,3.89433 v 6.42648 c 0,0.60854 -0.26789,0.87592 -0.87643,0.87592 h -3.56671 v 0.18242 c 0,0.60854 0.29207,0.87591 0.9493,0.87591 h 3.67574 c 0.60854,0 0.87643,-0.26737 0.87643,-0.87591 v -6.42648 c 0,-0.97367 -0.29207,-2.19042 -0.94929,-3.89434 l -2.1177,-5.525761 c -0.16605,-0.477401 -0.47451,-0.724026 -0.95395,-0.786517 z m -4.99711,3.623038 c -0.19474,0 0.12171,-0.2921 0,0 l -1.60662,4.11344 h 1.38545 l 0.817,-2.6417 c 0.12171,-0.2921 0.26776,-0.41341 0.4625,-0.41341 h 0.21188 l -0.19947,-0.64492 c -0.12171,-0.2921 -0.26778,-0.41341 -0.46251,-0.41341 z m -1.85002,8.54366 v 3.40806 c 0,0.60854 -0.26789,0.87592 -0.87643,0.87592 h -3.39617 v 0.18242 c 0,0.60854 0.26788,0.87591 0.87643,0.87591 h 3.57808 c 0.60853,0 0.87643,-0.26737 0.87643,-0.87591 v -3.40806 h 3.24993 v -1.05834 z"
         sodipodi:nodetypes="ccssscssssscccsccccsccsscsscsssscccc" /><path
         id="path12041"
         style="font-size:24.3417px;font-family:Bungee;-inkscape-font-specification:Bungee;letter-spacing:-0.965729px;fill:#ff7f25;fill-opacity:1;stroke-width:1.438;stroke-linecap:round;stroke-linejoin:round;paint-order:stroke fill markers"
         d="m 142.21167,98.269485 c 0.0207,0.09289 0.0315,0.197761 0.0315,0.315743 v 2.945572 c 0,0.60852 -0.26789,0.87643 -0.87644,0.87643 h -3.57807 v 11.95175 c 0,0.60855 -0.26789,0.87593 -0.87646,0.87593 h -3.94341 c -0.11792,0 -0.22287,-0.01 -0.31575,-0.0306 0.0863,0.38554 0.35476,0.55966 0.84492,0.55966 h 3.94342 c 0.60854,0 0.87644,-0.26738 0.87644,-0.87593 v -11.9517 h 3.57808 c 0.60853,0 0.87644,-0.26789 0.87644,-0.87644 v -2.945564 c 0,-0.490561 -0.17445,-0.759004 -0.56069,-0.844911 z m -14.01311,4.106225 c 0.0859,0.38626 0.35434,0.56069 0.84491,0.56069 h 3.04891 v -0.52917 h -3.57808 c -0.11798,0 -0.22285,-0.0109 -0.31574,-0.0314 z" /><path
         id="path12046"
         style="font-size:24.3417px;font-family:Bungee;-inkscape-font-specification:Bungee;letter-spacing:-0.965729px;fill:#ff7f25;fill-opacity:1;stroke-width:1.438;stroke-linecap:round;stroke-linejoin:round;paint-order:stroke fill markers"
         d="m 156.68559,98.250904 v 2.626706 c 0,0.60854 -0.26789,0.87643 -0.87643,0.87643 h -6.71846 v 1.8743 h 0.52917 v -0.81597 h 6.71845 c 0.60854,0 0.87643,-0.26789 0.87643,-0.87643 v -2.847879 c 0,-0.476804 -0.16528,-0.743644 -0.52916,-0.837157 z m -1.97197,6.475046 v 2.38332 c 0,0.60854 -0.26737,0.87643 -0.87592,0.87643 h -4.747 v 2.09341 h 0.52917 v -1.03508 h 4.747 c 0.60855,0 0.87591,-0.26789 0.87591,-0.87643 v -2.60449 c 0,-0.4768 -0.16528,-0.74365 -0.52916,-0.83716 z m 1.97197,6.45025 v 2.62723 c 0,0.60854 -0.26789,0.87592 -0.87643,0.87592 h -11.29441 c -0.13173,0 -0.24672,-0.0129 -0.34726,-0.0388 v 0.22118 c 0,0.60854 0.26789,0.87591 0.87643,0.87591 h 11.2944 c 0.60854,0 0.87643,-0.26737 0.87643,-0.87591 v -2.84841 c 0,-0.4768 -0.16528,-0.74364 -0.52916,-0.83716 z" /><path
         id="path12120"
         style="font-size:24.3417px;font-family:Bungee;-inkscape-font-specification:Bungee;letter-spacing:-0.965729px;fill:#ff7f25;fill-opacity:1;stroke-width:1.438;stroke-linecap:round;stroke-linejoin:round;paint-order:stroke fill markers"
         d="m 173.3715,100.11791 c 0.19304,0.5788 0.28836,1.24505 0.28836,2.00143 v 7.59437 c 0,3.3835 -1.89886,4.96559 -5.98827,4.96559 h -8.20312 c -0.13173,0 -0.24672,-0.0129 -0.34726,-0.0388 v 0.22118 c 0,0.60854 0.26789,0.87591 0.87643,0.87591 h 8.20312 c 4.0894,0 5.98826,-1.58209 5.98826,-4.96559 v -7.59437 c 0,-1.26964 -0.26739,-2.28582 -0.81752,-3.05976 z m -9.2537,1.68465 v 8.2765 h 0.52917 v -7.21816 h 2.89646 c 0.24553,0 0.45013,0.0368 0.61495,0.11162 v -0.002 c 0,-0.80327 -0.36518,-1.16841 -1.14411,-1.16841 z" /><path
         id="path16663"
         style="font-size:24.3417px;font-family:Bungee;-inkscape-font-specification:Bungee;letter-spacing:-0.965729px;fill:#ff7f25;fill-opacity:1;stroke-width:1.438;stroke-linecap:round;stroke-linejoin:round;paint-order:stroke fill markers"
         d="m 110.91935,98.277362 v 2.626708 c 0,0.60854 -0.26737,0.87643 -0.87592,0.87643 h -6.71849 v 1.8743 h 0.52917 v -0.81597 h 6.71849 c 0.60855,0 0.87592,-0.26789 0.87592,-0.87643 v -2.847881 c 0,-0.476804 -0.16528,-0.743644 -0.52917,-0.837157 z m -1.97146,6.475048 v 2.38332 c 0,0.60854 -0.2679,0.87643 -0.87644,0.87643 h -4.74651 v 2.09341 h 0.52917 v -1.03508 h 4.74651 c 0.60854,0 0.87644,-0.26789 0.87644,-0.87643 v -2.60449 c 0,-0.4768 -0.16529,-0.74365 -0.52917,-0.83716 z m 1.97146,6.45025 v 2.62723 c 0,0.60854 -0.26737,0.87592 -0.87592,0.87592 H 98.748465 c -0.131736,0 -0.246211,-0.0129 -0.346748,-0.0388 v 0.22118 c 0,0.60854 0.267373,0.87591 0.875915,0.87591 H 110.5726 c 0.60855,0 0.87592,-0.26737 0.87592,-0.87591 v -2.84841 c 0,-0.4768 -0.16528,-0.74364 -0.52917,-0.83716 z" /></g></g></svg>
