<?xml version="1.0" encoding="UTF-8" standalone="no"?>
<!-- Created with Inkscape (http://www.inkscape.org/) -->

<svg
   width="33.493351mm"
   height="57.610962mm"
   viewBox="0 0 33.493351 57.610962"
   version="1.1"
   id="svg8849"
   xml:space="preserve"
   inkscape:version="1.2 (dc2aedaf03, 2022-05-15)"
   sodipodi:docname="Energy Bolt Blue.svg"
   xmlns:inkscape="http://www.inkscape.org/namespaces/inkscape"
   xmlns:sodipodi="http://sodipodi.sourceforge.net/DTD/sodipodi-0.dtd"
   xmlns="http://www.w3.org/2000/svg"
   xmlns:svg="http://www.w3.org/2000/svg"><sodipodi:namedview
     id="namedview8851"
     pagecolor="#505050"
     bordercolor="#ffffff"
     borderopacity="1"
     inkscape:showpageshadow="0"
     inkscape:pageopacity="0"
     inkscape:pagecheckerboard="1"
     inkscape:deskcolor="#505050"
     inkscape:document-units="mm"
     showgrid="false"
     inkscape:zoom="1.4707821"
     inkscape:cx="27.196415"
     inkscape:cy="116.94458"
     inkscape:window-width="1366"
     inkscape:window-height="705"
     inkscape:window-x="-8"
     inkscape:window-y="-8"
     inkscape:window-maximized="1"
     inkscape:current-layer="g18084" /><defs
     id="defs8846"><inkscape:path-effect
       effect="fillet_chamfer"
       id="path-effect19074"
       is_visible="true"
       lpeversion="1"
       nodesatellites_param="F,0,0,1,0,0,0,1 @ F,0,0,1,0,2.2359708,0,1 @ F,0,0,1,0,3.9473829,0,1"
       unit="px"
       method="auto"
       mode="F"
       radius="0"
       chamfer_steps="1"
       flexible="false"
       use_knot_distance="true"
       apply_no_radius="true"
       apply_with_radius="true"
       only_selected="false"
       hide_knots="false" /><inkscape:path-effect
       effect="fillet_chamfer"
       id="path-effect18094"
       is_visible="true"
       lpeversion="1"
       nodesatellites_param="F,0,0,1,0,0,0,1 @ F,0,0,1,0,2.2359708,0,1 @ F,0,0,1,0,3.9473829,0,1"
       unit="px"
       method="auto"
       mode="F"
       radius="0"
       chamfer_steps="1"
       flexible="false"
       use_knot_distance="true"
       apply_no_radius="true"
       apply_with_radius="true"
       only_selected="false"
       hide_knots="false" /><inkscape:path-effect
       effect="fillet_chamfer"
       id="path-effect17045"
       is_visible="true"
       lpeversion="1"
       nodesatellites_param="F,0,0,1,0,0,0,1 @ F,0,0,1,0,2.2359708,0,1 @ F,0,0,1,0,3.9473829,0,1"
       unit="px"
       method="auto"
       mode="F"
       radius="0"
       chamfer_steps="1"
       flexible="false"
       use_knot_distance="true"
       apply_no_radius="true"
       apply_with_radius="true"
       only_selected="false"
       hide_knots="false" /></defs><g
     inkscape:label="Layer 1"
     inkscape:groupmode="layer"
     id="layer1"
     transform="translate(-132.08048,-105.74849)"><g
       id="g18084"><path
         id="rect11878"
         style="opacity:1;fill:#304dff;fill-opacity:1;stroke-width:0.979967;stroke-linecap:round;stroke-linejoin:round;paint-order:stroke fill markers"
         d="m 140.85616,105.90813 13.97195,-0.15957 c 0.98331,-0.0112 1.70009,1.26912 1.29807,2.16658 l -10.52926,23.50525 c -0.40201,0.89746 -1.15679,1.29014 -2.14014,1.28224 l -10.01309,-0.0804 c -0.98335,-0.008 -1.56534,-1.22021 -1.29808,-2.16657 l 6.57041,-23.26533 c 0.2673,-0.94637 1.15682,-1.27102 2.14014,-1.28225 z"
         sodipodi:nodetypes="sssssssss" /><path
         id="rect12682"
         style="opacity:1;fill:#304dff;fill-opacity:1;stroke-width:2.23541;stroke-linecap:round;stroke-linejoin:round;paint-order:stroke fill markers"
         d="m 146.23542,121.52475 18.03815,0.2258 c 1.2348,0.0155 1.66582,0.85096 0.96282,1.86622 -4.64342,6.706 -20.70727,29.91167 -26.62601,38.54554 -1.23253,1.79795 -1.82573,1.54426 -1.3491,-0.58308 z"
         sodipodi:nodetypes="cccc" /><path
         id="rect19886"
         style="opacity:1;fill:#0095ea;fill-opacity:1;stroke-width:1.59367;stroke-linecap:round;stroke-linejoin:round;paint-order:stroke fill markers"
         d="m 144.94412,127.2899 -7.68273,34.28938 c -0.47663,2.12734 0.11623,2.38086 1.34875,0.58291 5.33274,-7.77904 18.05411,-26.16096 24.08484,-34.87229 z" /><path
         id="rect19888"
         style="opacity:1;fill:#0095ea;fill-opacity:1;stroke-width:1.59367;stroke-linecap:round;stroke-linejoin:round;paint-order:stroke fill markers"
         d="m 133.03942,127.2899 -0.894,3.1657 c -0.26726,0.94636 0.31477,2.1588 1.29811,2.1668 l 10.01335,0.0801 c 0.98335,0.008 1.73791,-0.38463 2.13992,-1.28209 l 1.85053,-4.1305 z" /><path
         id="path20636"
         style="opacity:1;fill:#90ffe6;fill-opacity:1;stroke-width:0.979967;stroke-linecap:round;stroke-linejoin:round;paint-order:stroke fill markers"
         d="m 154.82828,105.74858 -0.17622,0.002 c 0.003,0.19872 -0.032,0.39595 -0.11317,0.57723 l -6.10712,13.63327 h 2.29856 l 5.39606,-12.04577 c 0.40202,-0.89746 -0.31482,-2.178 -1.29811,-2.1668 z m -22.74384,25.28838 c 0.041,0.79746 0.57021,1.57902 1.35909,1.58544 l 8.76123,0.0703 v -1.59216 c -0.10868,0.0102 -0.22024,0.0154 -0.33538,0.0145 z" /><path
         id="path21889"
         style="opacity:1;fill:#90ffe6;fill-opacity:1;stroke-width:2.23541;stroke-linecap:round;stroke-linejoin:round;paint-order:stroke fill markers"
         d="m 163.87267,121.74554 c 0.198,0.34039 0.14014,0.81651 -0.22375,1.34203 -4.56982,6.59971 -20.15379,29.11216 -26.28987,38.05608 l -0.0977,0.43563 c -0.47663,2.12734 0.11623,2.38086 1.34875,0.58291 5.91874,-8.63386 21.98287,-31.83946 26.62629,-38.54545 0.703,-1.01526 0.27206,-1.85054 -0.96274,-1.86604 z" /></g></g></svg>
