<?xml version="1.0" encoding="UTF-8" standalone="no"?>
<!-- Created with Inkscape (http://www.inkscape.org/) -->

<svg
   width="35.576141mm"
   height="30.294531mm"
   viewBox="0 0 35.576142 30.294531"
   version="1.1"
   id="svg5"
   xml:space="preserve"
   inkscape:version="1.2 (dc2aedaf03, 2022-05-15)"
   sodipodi:docname="Green Check.svg"
   xmlns:inkscape="http://www.inkscape.org/namespaces/inkscape"
   xmlns:sodipodi="http://sodipodi.sourceforge.net/DTD/sodipodi-0.dtd"
   xmlns="http://www.w3.org/2000/svg"
   xmlns:svg="http://www.w3.org/2000/svg"><sodipodi:namedview
     id="namedview7"
     pagecolor="#505050"
     bordercolor="#ffffff"
     borderopacity="1"
     inkscape:showpageshadow="0"
     inkscape:pageopacity="0"
     inkscape:pagecheckerboard="1"
     inkscape:deskcolor="#505050"
     inkscape:document-units="mm"
     showgrid="false"
     inkscape:zoom="1.1441182"
     inkscape:cx="11.79948"
     inkscape:cy="76.915132"
     inkscape:window-width="1366"
     inkscape:window-height="705"
     inkscape:window-x="-8"
     inkscape:window-y="-8"
     inkscape:window-maximized="1"
     inkscape:current-layer="layer1" /><defs
     id="defs2"><clipPath
       clipPathUnits="userSpaceOnUse"
       id="clipPath8965"><rect
         style="opacity:1;fill:#a9ea75;fill-opacity:0.996078;stroke:none;stroke-width:0.938001;stroke-linecap:round;stroke-linejoin:round;paint-order:stroke fill markers"
         id="rect8967"
         width="16.868631"
         height="5.7191596"
         x="15.605867"
         y="140.6048"
         transform="rotate(-10.212892)" /></clipPath><clipPath
       clipPathUnits="userSpaceOnUse"
       id="clipPath9525"><path
         id="path9527"
         style="opacity:1;fill:#a8e975;fill-opacity:1;stroke-width:0.938001;stroke-linecap:round;stroke-linejoin:round;paint-order:stroke fill markers"
         inkscape:transform-center-x="9.6482502"
         inkscape:transform-center-y="11.646169"
         d="m 72.552776,118.88971 5.41533,4.88263 c -8.145279,6.71302 -20.460619,20.32326 -20.79321,24.66011 l -3.494002,-6.98957 c 5.705301,-8.38769 12.097743,-15.75408 18.871882,-22.55317 z"
         sodipodi:nodetypes="ccccc" /></clipPath></defs><g
     inkscape:label="Layer 1"
     inkscape:groupmode="layer"
     id="layer1"
     transform="translate(-46.023935,-122.8634)"><g
       id="g10261"><path
         id="rect6513"
         style="fill:#4fcb11;fill-opacity:1;stroke-width:0.938001;stroke-linecap:round;stroke-linejoin:round;paint-order:stroke fill markers"
         inkscape:transform-center-x="9.6931992"
         inkscape:transform-center-y="11.600959"
         d="m 76.205555,122.8634 5.394521,4.90562 c -8.173746,6.67832 -20.54684,20.23608 -20.897867,24.57148 l -3.464253,-7.00437 c 5.74091,-8.36335 12.164614,-15.7025 18.967599,-22.47273 z"
         sodipodi:nodetypes="ccccc" /><path
         id="rect6516"
         style="fill:#4eca11;fill-opacity:0.968627;stroke-width:1.10034;stroke-linecap:round;stroke-linejoin:round;paint-order:stroke fill markers"
         d="m 46.023935,138.61071 6.656198,-1.19122 c 6.647677,9.73184 7.075952,12.13841 8.022205,14.87305 l -4.943082,0.86528 c 0.954002,-0.41408 -3.143819,-9.63826 -9.735321,-14.54711 z"
         sodipodi:nodetypes="ccccc" /><path
         id="rect7794"
         style="fill:#088b2d;fill-opacity:1;stroke:none;stroke-width:0.894601;stroke-linecap:round;stroke-linejoin:round;paint-order:stroke fill markers"
         d="m 58.979993,142.85882 c -0.587213,0.816 -1.168142,1.64135 -1.742013,2.47737 l 3.464388,7.00422 c 0.151602,-1.87237 2.547536,-5.46597 5.877161,-9.48159 z" /><path
         id="path8907"
         style="fill:#a8e975;fill-opacity:1;stroke-width:1.10034;stroke-linecap:round;stroke-linejoin:round;paint-order:stroke fill markers"
         d="m 46.023935,138.61071 6.656198,-1.19122 c 6.647677,9.73184 7.075952,12.13841 8.022205,14.87305 l -4.943082,0.86528 c 0.954002,-0.41408 -3.143819,-9.63826 -9.735321,-14.54711 z"
         sodipodi:nodetypes="ccccc"
         clip-path="url(#clipPath8965)" /><path
         id="path9523"
         style="fill:#a8e975;fill-opacity:1;stroke-width:0.938001;stroke-linecap:round;stroke-linejoin:round;paint-order:stroke fill markers"
         inkscape:transform-center-x="9.6931992"
         inkscape:transform-center-y="11.600959"
         d="m 76.205555,122.8634 5.394521,4.90562 c -8.173746,6.67832 -20.54684,20.23608 -20.897867,24.57148 l -3.464253,-7.00437 c 5.74091,-8.36335 12.164614,-15.7025 18.967599,-22.47273 z"
         sodipodi:nodetypes="ccccc"
         clip-path="url(#clipPath9525)" /><path
         id="rect7932"
         style="fill:#088b2d;fill-opacity:1;stroke:none;stroke-width:0.894601;stroke-linecap:round;stroke-linejoin:round;paint-order:stroke fill markers"
         d="m 50.428577,142.85882 c 3.908502,4.69403 6.047846,9.98772 5.330424,10.29911 l 4.943367,-0.86558 c -0.738115,-2.13313 -1.161392,-4.06715 -4.46691,-9.43353 z" /></g></g></svg>
