<?xml version="1.0" encoding="UTF-8" standalone="no"?>
<!-- Created with Inkscape (http://www.inkscape.org/) -->

<svg
   width="556.59198mm"
   height="213.58942mm"
   viewBox="0 0 556.59199 213.58942"
   version="1.1"
   id="svg13831"
   xml:space="preserve"
   inkscape:version="1.2 (dc2aedaf03, 2022-05-15)"
   sodipodi:docname="Wavy BG Overlay.svg"
   xmlns:inkscape="http://www.inkscape.org/namespaces/inkscape"
   xmlns:sodipodi="http://sodipodi.sourceforge.net/DTD/sodipodi-0.dtd"
   xmlns="http://www.w3.org/2000/svg"
   xmlns:svg="http://www.w3.org/2000/svg"><sodipodi:namedview
     id="namedview13833"
     pagecolor="#505050"
     bordercolor="#ffffff"
     borderopacity="1"
     inkscape:showpageshadow="0"
     inkscape:pageopacity="0"
     inkscape:pagecheckerboard="1"
     inkscape:deskcolor="#505050"
     inkscape:document-units="mm"
     showgrid="false"
     inkscape:zoom="0.29688928"
     inkscape:cx="1160.3652"
     inkscape:cy="629.86444"
     inkscape:window-width="1366"
     inkscape:window-height="705"
     inkscape:window-x="-8"
     inkscape:window-y="-8"
     inkscape:window-maximized="1"
     inkscape:current-layer="layer1" /><defs
     id="defs13828"><filter
       style="color-interpolation-filters:sRGB"
       id="filter15780"
       inkscape:label="filter0"><feBlend
         mode="normal"
         in2="SourceGraphic"
         id="feBlend15782" /></filter></defs><g
     inkscape:label="Layer 1"
     inkscape:groupmode="layer"
     id="layer1"
     transform="translate(168.55525,-121.86469)"><path
       id="rect15351"
       style="display:inline;opacity:1;fill:#9f9f9f;fill-opacity:1;stroke-width:9.28765;stroke-linecap:round;stroke-linejoin:round;paint-order:stroke fill markers"
       d="m -168.55525,177.40775 c 0,0 53.47795,-12.65815 89.21259,-26.37414 35.734608,-13.71599 53.725841,-28.48981 85.4141392,-29.15639 37.2923068,-0.78447 67.4053688,35.52781 104.7076008,35.65291 37.42891,0.12552 68.01204,-37.36237 105.35494,-35.06843 26.43072,1.62361 57.56075,20.70724 86.03177,34.03785 28.47092,13.3306 85.87096,20.9082 85.87096,20.9082 v 89.25431 h -556.592 z"
       sodipodi:nodetypes="cssssscccc" /><path
       id="path20540"
       style="display:inline;opacity:1;fill:#b7b7b7;fill-opacity:1;stroke-width:9.28765;stroke-linecap:round;stroke-linejoin:round;paint-order:stroke fill markers"
       d="m -168.55525,246.1998 c 0,0 53.47795,-12.65815 89.21259,-26.37414 35.734608,-13.71599 53.725841,-28.48981 85.4141392,-29.15639 37.2923068,-0.78447 67.4053688,35.52781 104.7076008,35.65291 37.42891,0.12552 68.01204,-37.36237 105.35494,-35.06843 26.43072,1.62361 57.56075,20.70724 86.03177,34.03785 28.47092,13.3306 85.87096,20.9082 85.87096,20.9082 v 89.25431 h -556.592 z"
       sodipodi:nodetypes="cssssscccc"
       inkscape:transform-center-y="-68.621262"
       inkscape:transform-center-x="-5.537215e-06" /></g></svg>
