<?xml version="1.0" encoding="UTF-8" standalone="no"?>
<!DOCTYPE svg PUBLIC "-//W3C//DTD SVG 1.1//EN" "http://www.w3.org/Graphics/SVG/1.1/DTD/svg11.dtd">
<svg width="100%" height="100%" viewBox="0 0 1359 1493" version="1.1" xmlns="http://www.w3.org/2000/svg" xmlns:xlink="http://www.w3.org/1999/xlink" xml:space="preserve" xmlns:serif="http://www.serif.com/" style="fill-rule:evenodd;clip-rule:evenodd;stroke-linejoin:round;stroke-miterlimit:1.5;">
    <g id="box" transform="matrix(1,0,0,1,-310.172,-336.271)">
        <g id="package">
            <path d="M1655.17,1825.11L1655.17,340.435L1603.19,409.719L1571.31,340.435L1529.63,409.719L1486.43,340.435L1445.12,409.719L1404,340.435L1356.47,409.719L1313.28,340.435L1273.1,409.719L1232.36,340.435L1183.88,409.719L1136.91,340.435L1096.17,409.719L1054.11,340.435L1012.04,409.719L975.451,340.435L926.22,409.719L888.495,340.435L844.169,409.719L800.031,340.435L756.27,409.719L709.811,340.435L667.666,408.245L629.941,340.435L584.579,409.719L544.844,340.435L499.379,409.719L456.427,340.435L414.428,409.76L367.641,340.435L323.927,409.719L323.927,1825.11L351.603,1770L383.728,1825.11L415.264,1770L448.567,1825.11L489.239,1770L529.322,1825.11L571.173,1770L604.771,1825.11L638.664,1770L676.389,1825.11L718.535,1770L757.143,1825.11L798.11,1770L837.308,1825.11L875.622,1770L913.642,1825.11L950.777,1770L992.333,1825.11L1030.94,1770L1064.54,1825.11L1100.2,1770L1137.04,1825.11L1171.23,1770L1201,1825.11L1234.6,1770L1273.2,1825.11L1306.51,1770L1344.53,1825.11L1377.83,1770L1416.15,1825.11L1451.45,1770L1487.53,1825.11L1522.89,1770L1567.8,1825.11L1599.76,1770L1655.17,1825.11Z" style="fill:rgb(174,174,174);"/>
            <path d="M1652.23,1828.06C1653.43,1829.25 1655.22,1829.6 1656.77,1828.96C1658.32,1828.31 1659.34,1826.79 1659.34,1825.11L1659.34,340.435C1659.34,338.642 1658.19,337.051 1656.49,336.484C1654.79,335.917 1652.91,336.502 1651.84,337.935L1604.05,401.629C1604.05,401.629 1575.09,338.694 1575.09,338.694C1574.45,337.292 1573.08,336.361 1571.54,336.276C1570,336.191 1568.54,336.965 1567.74,338.288L1529.57,401.745C1529.57,401.745 1489.96,338.231 1489.96,338.231C1489.2,336.999 1487.84,336.256 1486.39,336.27C1484.94,336.285 1483.6,337.055 1482.85,338.302L1445.13,401.572C1445.13,401.572 1407.58,338.309 1407.58,338.309C1406.86,337.087 1405.56,336.319 1404.14,336.272C1402.72,336.226 1401.37,336.907 1400.57,338.079L1356.64,402.113C1356.64,402.113 1316.81,338.232 1316.81,338.232C1316.04,336.991 1314.67,336.247 1313.21,336.271C1311.75,336.294 1310.41,337.081 1309.68,338.346L1273.08,401.46C1273.08,401.46 1235.95,338.324 1235.95,338.324C1235.23,337.102 1233.94,336.329 1232.52,336.273C1231.11,336.217 1229.76,336.886 1228.95,338.047L1183.93,402.377C1183.93,402.377 1140.36,338.098 1140.36,338.098C1139.56,336.915 1138.2,336.226 1136.78,336.272C1135.35,336.318 1134.04,337.092 1133.32,338.324L1096.11,401.599C1096.11,401.599 1057.67,338.274 1057.67,338.274C1056.91,337.03 1055.57,336.27 1054.11,336.27C1052.65,336.27 1051.31,337.029 1050.55,338.273L1012.29,401.278C1012.29,401.278 979.134,338.49 979.134,338.49C978.459,337.211 977.168,336.374 975.725,336.279C974.283,336.184 972.893,336.844 972.056,338.023L926.688,401.869C926.688,401.869 892.153,338.443 892.153,338.443C891.449,337.15 890.114,336.325 888.642,336.273C887.17,336.221 885.78,336.95 884.987,338.19L844.176,401.979C844.176,401.979 803.544,338.197 803.544,338.197C802.777,336.994 801.449,336.267 800.023,336.27C798.597,336.273 797.271,337.005 796.51,338.211L756.166,402.085C756.166,402.085 713.27,338.115 713.27,338.115C712.483,336.941 711.153,336.246 709.739,336.271C708.325,336.295 707.02,337.035 706.274,338.236L667.865,400.035C667.865,400.035 633.581,338.41 633.581,338.41C632.872,337.136 631.548,336.325 630.091,336.273C628.634,336.22 627.255,336.934 626.456,338.154L584.814,401.757C584.814,401.757 548.457,338.363 548.457,338.363C547.737,337.107 546.416,336.315 544.969,336.272C543.522,336.228 542.156,336.94 541.362,338.15L499.479,401.975C499.479,401.975 459.967,338.24 459.967,338.24C459.203,337.009 457.855,336.263 456.406,336.27C454.957,336.277 453.616,337.038 452.865,338.277L414.239,402.034C414.239,402.034 371.093,338.105 371.093,338.105C370.306,336.939 368.984,336.249 367.577,336.27C366.17,336.292 364.869,337.023 364.119,338.213L320.405,407.497C319.985,408.162 319.762,408.932 319.762,409.719L319.762,1825.11C319.762,1827.04 321.088,1828.72 322.967,1829.16C324.845,1829.61 326.783,1828.7 327.649,1826.98L351.876,1778.74C351.876,1778.74 380.13,1827.21 380.13,1827.21C380.879,1828.49 382.257,1829.28 383.745,1829.28C385.232,1829.27 386.604,1828.47 387.343,1827.18L415.362,1778.22C415.362,1778.22 445.002,1827.26 445.002,1827.26C445.721,1828.45 446.986,1829.21 448.375,1829.27C449.764,1829.34 451.093,1828.7 451.918,1827.58L489.214,1777.05C489.214,1777.05 525.954,1827.56 525.954,1827.56C526.729,1828.62 527.962,1829.26 529.279,1829.28C530.596,1829.29 531.842,1828.68 532.639,1827.63L570.796,1777.38C570.796,1777.38 601.215,1827.28 601.215,1827.28C601.969,1828.52 603.313,1829.27 604.763,1829.28C606.213,1829.28 607.559,1828.53 608.319,1827.29L638.851,1777.65C638.851,1777.65 672.952,1827.46 672.952,1827.46C673.707,1828.57 674.944,1829.24 676.279,1829.27C677.615,1829.31 678.886,1828.7 679.697,1827.64L718.388,1777.05C718.388,1777.05 753.732,1827.5 753.732,1827.5C754.499,1828.6 755.747,1829.26 757.084,1829.28C758.422,1829.29 759.687,1828.67 760.486,1827.6L798.036,1777.08C798.036,1777.08 833.914,1827.52 833.914,1827.52C834.7,1828.63 835.974,1829.28 837.33,1829.28C838.686,1829.27 839.954,1828.6 840.728,1827.49L875.609,1777.32C875.609,1777.32 910.214,1827.48 910.214,1827.48C910.996,1828.61 912.288,1829.28 913.665,1829.28C915.042,1829.27 916.326,1828.58 917.096,1827.44L950.968,1777.17C950.968,1777.17 989.007,1827.62 989.007,1827.62C989.81,1828.68 991.073,1829.3 992.406,1829.27C993.739,1829.25 994.979,1828.59 995.744,1827.5L1030.7,1777.6C1030.7,1777.6 1060.98,1827.28 1060.98,1827.28C1061.73,1828.5 1063.05,1829.26 1064.48,1829.28C1065.92,1829.29 1067.26,1828.58 1068.04,1827.37L1100.26,1777.58C1100.26,1777.58 1133.58,1827.42 1133.58,1827.42C1134.36,1828.6 1135.69,1829.3 1137.11,1829.27C1138.53,1829.25 1139.83,1828.51 1140.58,1827.31L1170.98,1778.3C1170.98,1778.3 1197.34,1827.09 1197.34,1827.09C1198.04,1828.4 1199.4,1829.24 1200.89,1829.27C1202.38,1829.31 1203.78,1828.55 1204.56,1827.28L1234.84,1777.61C1234.84,1777.61 1269.79,1827.5 1269.79,1827.5C1270.6,1828.65 1271.93,1829.32 1273.34,1829.27C1274.75,1829.23 1276.04,1828.47 1276.76,1827.26L1306.74,1777.67C1306.74,1777.67 1341.1,1827.48 1341.1,1827.48C1341.9,1828.64 1343.24,1829.32 1344.66,1829.27C1346.07,1829.23 1347.36,1828.47 1348.1,1827.26L1378.08,1777.65C1378.08,1777.65 1412.73,1827.49 1412.73,1827.49C1413.53,1828.63 1414.84,1829.3 1416.23,1829.27C1417.62,1829.25 1418.91,1828.53 1419.66,1827.36L1451.49,1777.66C1451.49,1777.66 1484.05,1827.39 1484.05,1827.39C1484.82,1828.57 1486.14,1829.28 1487.55,1829.28C1488.96,1829.27 1490.27,1828.55 1491.04,1827.36L1523.29,1777.09C1523.29,1777.09 1564.57,1827.74 1564.57,1827.74C1565.44,1828.8 1566.77,1829.37 1568.13,1829.26C1569.49,1829.15 1570.72,1828.38 1571.4,1827.2L1600.65,1776.76C1600.65,1776.76 1652.23,1828.06 1652.23,1828.06ZM1651.01,1815.09L1602.7,1767.05C1601.78,1766.14 1600.5,1765.7 1599.22,1765.87C1597.93,1766.04 1596.81,1766.79 1596.16,1767.91L1567.22,1817.81C1567.22,1817.81 1526.12,1767.37 1526.12,1767.37C1525.28,1766.33 1523.99,1765.77 1522.65,1765.84C1521.32,1765.92 1520.11,1766.63 1519.38,1767.75L1487.5,1817.45C1487.5,1817.45 1454.93,1767.72 1454.93,1767.72C1454.16,1766.54 1452.84,1765.83 1451.43,1765.84C1450.02,1765.84 1448.7,1766.56 1447.94,1767.75L1416.01,1817.61C1416.01,1817.61 1381.25,1767.62 1381.25,1767.62C1380.44,1766.46 1379.11,1765.79 1377.7,1765.84C1376.29,1765.88 1375,1766.64 1374.27,1767.85L1344.3,1817.44C1344.3,1817.44 1309.94,1767.63 1309.94,1767.63C1309.14,1766.47 1307.8,1765.79 1306.38,1765.84C1304.97,1765.88 1303.68,1766.64 1302.95,1767.85L1272.94,1817.48C1272.94,1817.48 1238.01,1767.61 1238.01,1767.61C1237.2,1766.46 1235.87,1765.79 1234.47,1765.84C1233.06,1765.88 1231.78,1766.63 1231.04,1767.83L1201.22,1816.75C1201.22,1816.75 1174.89,1768.02 1174.89,1768.02C1174.19,1766.71 1172.84,1765.88 1171.36,1765.84C1169.87,1765.79 1168.47,1766.54 1167.69,1767.8L1136.91,1817.42C1136.91,1817.42 1103.66,1767.68 1103.66,1767.68C1102.88,1766.52 1101.57,1765.83 1100.17,1765.84C1098.77,1765.85 1097.46,1766.56 1096.7,1767.74L1064.64,1817.28C1064.64,1817.28 1034.5,1767.83 1034.5,1767.83C1033.77,1766.63 1032.48,1765.88 1031.07,1765.84C1029.67,1765.79 1028.34,1766.46 1027.53,1767.61L992.209,1818.03C992.209,1818.03 954.103,1767.49 954.103,1767.49C953.292,1766.42 952.012,1765.8 950.666,1765.84C949.321,1765.87 948.075,1766.56 947.323,1767.67L913.601,1817.72C913.601,1817.72 879.05,1767.63 879.05,1767.63C878.274,1766.51 876.996,1765.84 875.63,1765.84C874.263,1765.83 872.982,1766.5 872.202,1767.62L837.269,1817.87C837.269,1817.87 801.504,1767.59 801.504,1767.59C800.732,1766.5 799.486,1765.85 798.154,1765.84C796.821,1765.82 795.562,1766.45 794.767,1767.52L757.243,1817.99C757.243,1817.99 721.946,1767.61 721.946,1767.61C721.184,1766.52 719.95,1765.86 718.622,1765.84C717.294,1765.81 716.033,1766.41 715.227,1767.47L676.576,1818.01C676.576,1818.01 642.101,1767.65 642.101,1767.65C641.304,1766.48 639.972,1765.8 638.562,1765.84C637.152,1765.87 635.855,1766.62 635.116,1767.82L604.787,1817.13C604.787,1817.13 574.729,1767.83 574.729,1767.83C574.012,1766.66 572.761,1765.91 571.385,1765.84C570.01,1765.77 568.689,1766.38 567.856,1767.48L529.394,1818.13C529.394,1818.13 492.607,1767.55 492.607,1767.55C491.827,1766.48 490.581,1765.84 489.253,1765.84C487.926,1765.83 486.676,1766.46 485.888,1767.53L448.912,1817.63C448.912,1817.63 418.829,1767.85 418.829,1767.85C418.065,1766.58 416.69,1765.82 415.214,1765.84C413.738,1765.85 412.382,1766.65 411.649,1767.93L383.695,1816.78C383.695,1816.78 355.201,1767.9 355.201,1767.9C354.432,1766.58 353.001,1765.79 351.473,1765.84C349.946,1765.88 348.567,1766.77 347.881,1768.13L328.092,1807.54C328.092,1807.54 328.092,456.957 328.092,410.923C328.092,410.923 367.758,348.054 367.758,348.054C367.758,348.054 410.976,412.09 410.976,412.09C411.77,413.267 413.11,413.959 414.53,413.924C415.95,413.889 417.254,413.133 417.99,411.918L456.468,348.406C456.468,348.406 495.839,411.914 495.839,411.914C496.589,413.122 497.903,413.865 499.325,413.884C500.748,413.902 502.081,413.193 502.861,412.004L544.605,348.39C544.605,348.39 580.966,411.791 580.966,411.791C581.687,413.048 583.008,413.839 584.456,413.882C585.904,413.925 587.27,413.212 588.064,412L629.651,348.481C629.651,348.481 664.026,410.27 664.026,410.27C664.744,411.559 666.09,412.373 667.565,412.409C669.04,412.444 670.424,411.697 671.203,410.444L709.944,348.111C709.944,348.111 752.811,412.039 752.811,412.039C753.595,413.209 754.918,413.903 756.327,413.884C757.736,413.864 759.039,413.134 759.791,411.943L800.046,348.211C800.046,348.21 840.656,411.957 840.656,411.957C841.42,413.156 842.743,413.883 844.165,413.884C845.587,413.885 846.911,413.161 847.677,411.964L888.206,348.615C888.206,348.615 922.562,411.711 922.562,411.711C923.249,412.972 924.538,413.791 925.972,413.877C927.406,413.962 928.783,413.303 929.615,412.131L974.927,348.362C974.927,348.362 1008.36,411.664 1008.36,411.664C1009.06,412.99 1010.42,413.837 1011.92,413.882C1013.41,413.927 1014.82,413.163 1015.6,411.881L1054.11,348.46C1054.11,348.46 1092.61,411.88 1092.61,411.88C1093.37,413.133 1094.73,413.894 1096.2,413.884C1097.66,413.874 1099.02,413.094 1099.76,411.83L1137.16,348.226C1137.16,348.226 1180.43,412.056 1180.43,412.056C1181.2,413.19 1182.48,413.874 1183.85,413.884C1185.22,413.894 1186.51,413.23 1187.29,412.107L1232.06,348.135C1232.06,348.135 1269.51,411.83 1269.51,411.83C1270.26,413.106 1271.63,413.888 1273.11,413.884C1274.59,413.88 1275.96,413.089 1276.7,411.808L1313.41,348.515C1313.41,348.515 1352.94,411.922 1352.94,411.922C1353.68,413.115 1354.97,413.852 1356.38,413.883C1357.78,413.914 1359.11,413.234 1359.9,412.075L1403.75,348.168C1403.75,348.168 1441.54,411.845 1441.54,411.845C1442.29,413.108 1443.65,413.883 1445.12,413.884C1446.58,413.885 1447.94,413.113 1448.7,411.852L1486.51,348.434C1486.51,348.434 1526.1,411.923 1526.1,411.923C1526.86,413.153 1528.21,413.895 1529.66,413.884C1531.11,413.872 1532.45,413.108 1533.2,411.866L1570.82,349.331C1570.82,349.331 1599.41,411.46 1599.41,411.46C1600.02,412.793 1601.29,413.705 1602.75,413.861C1604.21,414.016 1605.64,413.392 1606.52,412.219L1651.01,352.927C1651.01,495.742 1651.01,1815.09 1651.01,1815.09L1651.01,1815.09Z" style="fill:rgb(147,147,147);"/>
            <g id="shadows">
                <g transform="matrix(1.24615,0,0,0.975713,-115.449,24.1241)">
                    <rect x="352.586" y="499.42" width="1068.28" height="1182.05" style="fill:rgb(147,147,147);"/>
                    <path d="M1420.87,499.42L352.586,499.42L352.586,1681.47L1420.87,1681.47L1420.87,499.42ZM1414.18,507.961L1414.18,1672.93L359.273,1672.93L359.273,507.961L1414.18,507.961Z" style="fill:rgb(147,147,147);"/>
                </g>
                <g transform="matrix(1,0,0,-1,0,3464.22)">
                    <path d="M1632.82,1708.2L1632.82,1723.54L339.358,1723.54L339.358,1693.47L346.873,1708.2L359.78,1708.2L375.279,1682.42C385.115,1693.4 397.086,1701.97 411.145,1708.2L422.157,1708.2L439.91,1682.42C449.902,1691.53 462.181,1700.08 476.133,1708.2L496.778,1708.2L516.318,1682.42C527.122,1692.52 540.013,1701.07 554.777,1708.2L581.126,1708.2L596.86,1682.42C602.295,1692.9 612.601,1702.46 624.346,1708.2L647.965,1708.2L665.262,1682.42C675.417,1692.54 687.362,1701.05 700.816,1708.2L729.231,1708.2L747.212,1682.42C757.33,1694.34 767.839,1702.55 778.617,1708.2L808.439,1708.2L827.895,1682.42C834.235,1691.79 846.613,1700.48 858.562,1708.2L885.76,1708.2L902.226,1682.42C909.552,1692.54 919.032,1701.05 930.317,1708.2L961.671,1708.2L981.409,1682.42C988.717,1692.62 998.516,1701.3 1011.19,1708.2L1042.59,1708.2L1057.15,1682.42C1065.16,1692.48 1074.7,1701.02 1085.6,1708.2L1112.35,1708.2L1129.7,1682.42C1134.84,1692.27 1143.03,1700.82 1153.95,1708.2L1182.13,1708.2L1195.76,1682.42C1201.84,1693.34 1209.69,1701.82 1219.07,1708.2L1244.89,1708.2L1262.83,1682.42C1269.14,1692.34 1277.71,1700.76 1287.73,1708.2L1317.27,1708.2L1334.46,1682.42C1342.67,1693.75 1352.43,1702.23 1363.53,1708.2L1389.3,1708.2L1405.99,1682.42C1411.26,1692.82 1420.5,1701.1 1431.96,1708.2L1463.21,1708.2L1478.39,1682.42C1485.28,1695.31 1493.77,1703.14 1503.13,1708.2L1534.98,1708.2L1556.17,1682.42C1562.7,1694.87 1571.72,1702.35 1581.56,1708.2L1609.81,1708.2L1634.58,1682.42L1632.82,1708.2Z" style="fill:rgb(161,161,161);"/>
                </g>
            </g>
            <g id="lines" transform="matrix(1,0,0,1,0,71.7287)">
                <g transform="matrix(1,0,0,1,0,157.057)">
                    <path d="M1655.17,260.291L323.927,260.291" style="fill:none;stroke:rgb(147,147,147);stroke-width:8.33px;"/>
                </g>
                <g transform="matrix(1,0,0,1,0,129.273)">
                    <path d="M1655.17,260.291L323.927,260.291" style="fill:none;stroke:rgb(147,147,147);stroke-width:8.33px;"/>
                </g>
                <g transform="matrix(1,0,0,1,0,1384.66)">
                    <path d="M1655.17,260.291L323.927,260.291" style="fill:none;stroke:rgb(147,147,147);stroke-width:8.33px;"/>
                </g>
                <g transform="matrix(1,0,0,1,0,1356.88)">
                    <path d="M1655.17,260.291L323.927,260.291" style="fill:none;stroke:rgb(147,147,147);stroke-width:8.33px;"/>
                </g>
            </g>
            <g transform="matrix(1,0,0,1,0,210.037)">
                <g id="shadows1" serif:id="shadows">
                    <path d="M336.915,229.899L336.915,208.088L349.268,187.682L388.334,214.648L420.996,214.648L435.386,187.682L468.763,214.648L505.2,214.648L520.726,187.682L555.556,214.648L589.556,214.648L605.871,187.682L642.461,214.648L672.771,214.648L688.069,187.682L729.98,214.648L762.791,214.648L778.162,187.682L816.356,214.648L850.105,214.648L865.991,187.682L901.129,214.648L933.389,214.648L950.598,187.557L989.221,214.648L1020.52,214.648L1034.41,187.682L1078.08,214.648L1103.09,214.648L1117.57,187.682L1158.11,214.648L1190.98,214.648L1209.31,187.682L1248.13,214.648L1281.21,214.648L1295.69,187.682L1342.64,214.648L1363.35,214.648L1381.12,187.682L1420.68,214.648L1454.04,214.648L1468.63,187.682L1515.89,214.648L1537.81,214.648L1552.73,187.682L1583.72,214.648L1608.9,214.648L1628.95,187.682L1620.18,230.134L1590.13,229.899L336.915,229.899Z" style="fill:rgb(157,157,157);"/>
                </g>
            </g>
            <g id="light">
                <g transform="matrix(1,0,0,1,0,209.273)">
                    <path d="M1575.65,177.071C1579.41,186.819 1594.81,204.167 1594.81,204.167L1571.87,150.741C1571.87,150.741 1573.09,170.456 1575.65,177.071ZM980.68,175.775C985.174,185.21 1001.84,201.344 1001.84,201.344L975.738,149.806C975.738,149.806 977.63,169.372 980.68,175.775ZM894.363,175.775C898.857,185.21 915.523,201.344 915.523,201.344L888.602,149.806C888.602,149.806 891.313,169.372 894.363,175.775ZM463.272,175.848C467.856,185.24 487.932,201.214 487.932,201.214L457.263,149.936C457.263,149.936 460.161,169.475 463.272,175.848ZM374.592,175.848C379.177,185.24 400.927,201.214 400.927,201.214L368.584,149.936C368.584,149.936 371.482,169.475 374.592,175.848ZM550.951,175.848C555.536,185.24 573.564,201.214 573.564,201.214L544.943,149.936C544.943,149.936 547.84,169.475 550.951,175.848ZM635.819,175.954C640.532,185.282 657.569,201.023 657.569,201.023L630.497,150.127C630.497,150.127 632.621,169.624 635.819,175.954ZM1062.25,176.141C1067.19,185.351 1084.61,200.674 1084.61,200.674L1055.26,150.476C1055.26,150.476 1058.9,169.891 1062.25,176.141ZM1239.79,176.186C1244.79,185.367 1262.29,200.587 1262.29,200.587L1232.65,150.562C1232.65,150.562 1236.41,169.956 1239.79,176.186ZM1411.81,176.21C1416.83,185.376 1434.38,200.54 1434.38,200.54L1404.59,150.61C1404.59,150.61 1408.4,169.991 1411.81,176.21ZM1321.52,176.21C1326.54,185.376 1344.09,200.54 1344.09,200.54L1314.3,150.61C1314.3,150.61 1318.11,169.991 1321.52,176.21ZM1495.36,176.277C1500.46,185.399 1518.15,200.409 1518.15,200.409L1487.91,150.741C1487.91,150.741 1491.9,170.088 1495.36,176.277ZM808.725,176.379C813.947,185.432 831.828,200.207 831.828,200.207L801.761,150.943C801.761,150.943 805.182,170.236 808.725,176.379ZM1147.39,176.497C1152.75,185.468 1170.86,199.965 1170.86,199.965L1139.21,151.185C1139.21,151.185 1143.75,170.41 1147.39,176.497ZM719.166,176.62C724.671,185.504 743.009,199.708 743.009,199.708L711.703,151.441C711.703,151.441 715.432,170.591 719.166,176.62Z" style="fill:white;"/>
                </g>
                <path d="M1639.22,500.353C1639.68,502.692 1639.77,503.236 1639.54,505.604C1639.31,507.893 1634.59,509.012 1634.59,509.012C1634.59,509.012 1647.61,508.701 1647.83,506.412C1648.14,503.215 1648.02,501.87 1647.38,498.712C1646.93,496.457 1633.93,495.965 1633.93,495.965C1633.93,495.965 1638.76,498.098 1639.22,500.353ZM1638.36,472.31C1638.7,473.913 1638.84,477.427 1638.68,479.058C1638.46,481.347 1632.1,482.744 1632.1,482.744C1632.1,482.744 1646.75,482.164 1646.98,479.876C1647.22,477.385 1647.03,473.02 1646.51,470.572C1646.03,468.323 1631.5,467.973 1631.5,467.973C1631.5,467.973 1637.88,470.061 1638.36,472.31ZM1648.16,369.691C1648.16,369.691 1638.84,438.273 1638.63,440.337C1638.43,442.196 1638.03,444 1636.11,444.961C1634.05,445.988 1618.23,452.753 1618.23,452.753C1618.23,452.753 1637.78,453.443 1639.83,452.416C1643.98,450.347 1645.85,447.04 1646.62,443.195C1647.19,440.345 1647.05,437.143 1647.11,434.189C1647.34,422.306 1647.53,410.427 1647.88,398.546C1648.01,393.946 1648.16,369.691 1648.16,369.691Z" style="fill:white;"/>
                <g transform="matrix(1,0,0,1,0,50.7147)">
                    <path d="M1617.04,446.068C1190.08,458.464 762.807,457.089 335.308,446.068L1617.04,446.068Z" style="fill:rgb(206,206,206);"/>
                </g>
                <g transform="matrix(1,0,0,1,0,24.386)">
                    <path d="M1617.04,446.068C1190.08,458.464 762.807,457.089 335.308,446.068L1617.04,446.068Z" style="fill:rgb(206,206,206);"/>
                </g>
                <g transform="matrix(1,0,0,1,0,-56.0187)">
                    <path d="M1351.95,1841.06C1357.05,1831.94 1372.47,1819.89 1372.47,1819.89L1344.5,1866.6C1344.5,1866.6 1348.49,1847.25 1351.95,1841.06ZM1144.7,1840.52C1149.69,1831.34 1165.13,1818.43 1165.13,1818.43L1137.56,1866.14C1137.56,1866.14 1141.31,1846.75 1144.7,1840.52ZM455.695,1839.73C460.279,1830.33 482.503,1819.88 482.503,1819.88L449.686,1865.64C449.686,1865.64 452.584,1846.1 455.695,1839.73ZM536.512,1839.66C541.097,1830.27 564.712,1819.88 564.712,1819.88L530.504,1865.58C530.504,1865.58 533.402,1846.04 536.512,1839.66ZM1420.37,1838.93C1424.14,1829.19 1445.77,1818.43 1445.77,1818.43L1416.59,1865.26C1416.59,1865.26 1417.82,1845.55 1420.37,1838.93ZM1571.33,1838.93C1575.1,1829.19 1594.14,1818.43 1594.14,1818.43L1567.55,1865.26C1567.55,1865.26 1568.78,1845.55 1571.33,1838.93ZM1491.83,1838.93C1495.6,1829.19 1517.23,1818.43 1517.23,1818.43L1488.05,1865.26C1488.05,1865.26 1489.27,1845.55 1491.83,1838.93ZM1000,1839.28C1004.94,1830.07 1025.43,1818.43 1025.43,1818.43L993.01,1864.94C993.01,1864.94 996.649,1845.53 1000,1839.28ZM765.759,1838.89C770.981,1829.83 791.635,1818.43 791.635,1818.43L758.796,1864.32C758.796,1864.32 762.216,1845.03 765.759,1838.89ZM1279.77,1841.06C1284.79,1831.9 1299.78,1819.89 1299.78,1819.89L1273.73,1864.24C1273.73,1864.24 1276.36,1847.28 1279.77,1841.06ZM1073.62,1838.92C1078.98,1829.95 1093.39,1819.89 1093.39,1819.89L1065.45,1864.24C1065.45,1864.24 1069.98,1845.01 1073.62,1838.92ZM388.175,1838.04C392.262,1828.42 408.359,1819.88 408.359,1819.88L383.528,1864.23C383.528,1864.23 385.401,1844.57 388.175,1838.04ZM685.595,1838.95C691.099,1830.07 711.593,1818.43 711.593,1818.43L678.131,1864.13C678.131,1864.13 681.86,1844.98 685.595,1838.95ZM844.929,1837.95C849.424,1828.52 870.094,1818.43 870.094,1818.43L839.168,1863.92C839.168,1863.92 841.879,1844.35 844.929,1837.95ZM1209.93,1838.1C1214.95,1828.93 1229.3,1818.43 1229.3,1818.43L1202.71,1863.7C1202.71,1863.7 1206.52,1844.31 1209.93,1838.1ZM611.487,1836.85C616.2,1827.52 632.868,1818.43 632.868,1818.43L606.165,1862.67C606.165,1862.67 608.289,1843.18 611.487,1836.85ZM920.813,1836.64C925.307,1827.21 944.899,1818.43 944.899,1818.43L915.871,1862.61C915.871,1862.61 917.763,1843.04 920.813,1836.64Z" style="fill:white;"/>
                </g>
                <g transform="matrix(1,0,0,1,0,58.599)">
                    <path d="M1638.05,1674.28C1638.04,1729.57 1646.85,1737.51 1646.85,1737.51L1646.54,1720.59C1646.54,1720.59 1646.37,1729.54 1646.38,1674.28C1646.38,1671.99 1644.51,1670.12 1642.21,1670.12C1639.91,1670.12 1638.05,1671.98 1638.05,1674.28Z" style="fill:white;"/>
                </g>
                <g transform="matrix(1,0,0,1,0,1250.34)">
                    <path d="M1617.04,446.068C1190.08,458.464 762.807,457.089 335.308,446.068L1617.04,446.068Z" style="fill:rgb(206,206,206);"/>
                </g>
                <g transform="matrix(1,0,0,1,0,1224.01)">
                    <path d="M1617.04,446.068C1190.08,458.464 762.807,457.089 335.308,446.068L1617.04,446.068Z" style="fill:rgb(206,206,206);"/>
                </g>
            </g>
            <g transform="matrix(1,0,0,1,-10.7785,82.7707)">
                <path d="M1243.49,1690.32L808.96,260.592L810.809,257.664L854.947,326.948L899.274,257.664L936.998,326.948L986.229,257.664L1022.82,326.948L1064.88,257.664L1106.95,326.948L1147.69,257.664L1194.66,326.948L1243.13,257.664L1283.88,326.948L1324.05,257.664L1345.23,291.633L1665.95,1362.27L1665.95,1742.34L1610.54,1687.23L1578.58,1742.34L1533.67,1687.23L1498.31,1742.34L1462.23,1687.23L1426.92,1742.34L1388.61,1687.23L1355.31,1742.34L1317.29,1687.23L1283.98,1742.34L1245.38,1687.23L1243.49,1690.32ZM554.433,259.477L1005.42,1739.04L1003.11,1742.34L961.556,1687.23L933.266,1729.21L503.467,316.156L510.158,326.948L554.433,259.477ZM1540.4,326.948L1566,284.405L1665.95,598.15L1665.95,897.149L1474.41,295.898L1497.21,257.664L1540.4,326.948Z" style="fill:rgb(208,208,208);fill-opacity:0.25;"/>
            </g>
            <path d="M323.927,1646.53C313.787,1646.53 313.29,1630.14 313.29,1616.53L310.154,562.466C310.154,547.045 315.402,533.483 323.927,533.483L1653.81,533.483C1662.77,533.483 1668.29,547.045 1668.29,562.466L1664.99,1616.53C1664.99,1630.14 1664.47,1646.53 1653.81,1646.53L323.927,1646.53Z" style="fill:rgb(21,59,49);"/>
        </g>
        <g id="background">
            <g id="leaves" transform="matrix(0.918008,0.634071,-0.588232,0.851642,1465.84,-79.9709)">
                <g transform="matrix(0.737483,-0.549077,0.509382,0.794953,-1040.3,868.433)">
                    <path d="M915.459,1646.53C950.092,1596.24 930.719,1522.65 872.187,1482.22C860.033,1473.83 847.139,1467.52 834.033,1463.24C852.583,1408.14 878.468,1350.16 907.58,1290.69C909.048,1291.84 910.569,1292.96 912.138,1294.05C942.664,1315.13 980.091,1313.94 995.664,1291.4C1011.24,1268.85 999.098,1233.43 968.572,1212.34C963.138,1208.59 957.486,1205.54 951.778,1203.19C973.09,1161.9 994.977,1120.23 1016.13,1078.62C1091.01,1175.17 1148.34,1286.27 1180.86,1394.1C1162.02,1392.28 1144.49,1398.64 1134.72,1412.77C1118.78,1435.86 1129.57,1471.01 1158.81,1491.2C1173.68,1501.47 1190.47,1505.91 1205.48,1504.77C1207.61,1520.13 1209.14,1535.27 1210.04,1550.15C1212.09,1583.87 1210.91,1616.22 1206.24,1646.53L915.459,1646.53Z" style="fill:rgb(131,156,46);"/>
                </g>
                <g transform="matrix(0.737483,-0.549077,0.509382,0.794953,-1040.3,868.433)">
                    <path d="M1054.28,1646.53C1063.78,1419.08 1055.29,1225.37 1018.03,1085.63C1017.46,1082.45 1016.83,1080.1 1016.13,1078.62C1091.01,1175.17 1148.34,1286.27 1180.86,1394.1C1162.02,1392.28 1144.49,1398.64 1134.72,1412.77C1118.78,1435.86 1129.57,1471.01 1158.81,1491.2C1173.68,1501.47 1190.47,1505.91 1205.48,1504.77C1207.61,1520.13 1209.14,1535.27 1210.04,1550.15C1212.09,1583.87 1210.91,1616.22 1206.24,1646.53L1054.28,1646.53Z" style="fill:rgb(160,189,65);"/>
                </g>
                <g transform="matrix(0.737483,-0.549077,0.509382,0.794953,-1040.3,868.433)">
                    <path d="M1032.63,1646.53C1047.65,1458.81 1047.29,1269.89 1016.13,1078.62C1054.99,1218.85 1063.94,1415.22 1054.28,1646.53L1032.63,1646.53Z" style="fill:rgb(116,142,49);"/>
                </g>
            </g>
            <g id="shadow" transform="matrix(1,-5.55112e-17,5.55112e-17,1,10.7355,1.98952e-13)">
                <path d="M678.012,1646.53C679.301,1644.12 680.494,1641.63 681.588,1639.09C705.684,1582.93 672.134,1514.55 606.714,1486.48C593.14,1480.65 579.253,1477.02 565.56,1475.42C572.843,1417.74 586.746,1355.79 603.516,1291.73C605.184,1292.57 606.896,1293.37 608.649,1294.12C642.743,1308.75 679.195,1300.18 690,1275C700.805,1249.82 681.898,1217.49 647.804,1202.86C641.735,1200.26 635.592,1198.39 629.532,1197.22C642.254,1152.53 644.728,1107.35 657.231,1062.38C749.729,1142.2 838.644,1239.77 891.85,1339.04C873.024,1340.98 857.096,1350.68 850.324,1366.46C839.259,1392.25 856.793,1424.57 889.453,1438.58C906.055,1445.7 923.39,1446.74 937.88,1442.64C943.012,1457.28 947.505,1471.82 951.332,1486.22C966.377,1542.85 971.114,1597.35 963.422,1646.53L678.012,1646.53Z" style="fill:rgb(36,47,0);fill-opacity:0.5;"/>
            </g>
            <g id="leaves1" serif:id="leaves" transform="matrix(1.0253,0.439928,-0.408124,0.951182,879.584,-162.283)">
                <g transform="matrix(0.82368,-0.380957,0.353416,0.887867,-667.142,479.17)">
                    <path d="M678.012,1646.53C679.301,1644.12 680.494,1641.63 681.588,1639.09C705.684,1582.93 672.134,1514.55 606.714,1486.48C593.14,1480.65 579.253,1477.02 565.56,1475.42C572.843,1417.74 586.746,1355.79 603.516,1291.73C605.184,1292.57 606.896,1293.37 608.649,1294.12C642.743,1308.75 679.195,1300.18 690,1275C700.805,1249.82 681.898,1217.49 647.804,1202.86C641.735,1200.26 635.592,1198.39 629.532,1197.22C642.254,1152.53 655.463,1107.35 667.966,1062.38C760.464,1142.2 838.644,1239.77 891.85,1339.04C873.024,1340.98 857.096,1350.68 850.324,1366.46C839.259,1392.25 856.793,1424.57 889.453,1438.58C906.055,1445.7 923.39,1446.74 937.88,1442.64C943.012,1457.28 947.505,1471.82 951.332,1486.22C966.377,1542.85 971.114,1597.35 963.422,1646.53L678.012,1646.53Z" style="fill:rgb(131,156,46);"/>
                </g>
                <g transform="matrix(0.82368,-0.380957,0.353416,0.887867,-667.142,479.17)">
                    <path d="M823.142,1646.53C786.78,1406.17 738.678,1205.14 671.219,1068.87C670.031,1065.87 668.944,1063.68 667.966,1062.38C760.464,1142.2 838.644,1239.77 891.85,1339.04C873.024,1340.98 857.096,1350.68 850.324,1366.46C839.259,1392.25 856.793,1424.57 889.453,1438.58C906.055,1445.7 923.39,1446.74 937.88,1442.64C943.012,1457.28 947.505,1471.82 951.332,1486.22C966.377,1542.85 971.114,1597.35 963.422,1646.53L823.142,1646.53Z" style="fill:rgb(160,189,65);"/>
                </g>
                <g transform="matrix(0.82368,-0.380957,0.353416,0.887867,-667.142,479.17)">
                    <path d="M800.034,1646.53C778.11,1449.08 740.094,1253.62 667.966,1062.38C737.138,1198.71 786.204,1402.34 823.142,1646.53L800.034,1646.53Z" style="fill:rgb(116,142,49);"/>
                </g>
            </g>
            <g id="shadow1" serif:id="shadow" transform="matrix(1,5.55112e-17,5.55112e-17,1,-15.3596,-1.59162e-12)">
                <path d="M1666.36,1178.48L1665.39,1488.55C1663.99,1489.16 1662.61,1489.86 1661.26,1490.65C1638.4,1504.02 1633.59,1538.38 1650.52,1567.34C1654.6,1574.31 1659.57,1580.34 1665.09,1585.29L1664.99,1616.53C1664.99,1630.14 1664.47,1646.53 1653.81,1646.53L1276.43,1646.53C1274.68,1630.74 1274.97,1615.13 1277.1,1599.66C1309.94,1618.8 1348.75,1621.43 1380.27,1602.99C1430.05,1573.87 1442.93,1503.14 1409.01,1445.14C1401.97,1433.11 1393.46,1422.56 1383.96,1413.67C1421.84,1373.96 1467.14,1334.72 1515.8,1295.5C1516.59,1297.07 1517.44,1298.63 1518.35,1300.19C1536.03,1330.41 1568.51,1344.35 1590.84,1331.29C1613.16,1318.23 1616.93,1283.09 1599.25,1252.87C1596.11,1247.49 1592.49,1242.62 1588.55,1238.34C1614.31,1218.45 1640.42,1198.52 1666.36,1178.48Z" style="fill:rgb(36,47,0);"/>
            </g>
            <g id="leaves2" serif:id="leaves" transform="matrix(0.531696,0.908988,-0.843274,0.493257,2540.8,346.433)">
                <g transform="matrix(0.479455,-0.883552,0.819677,0.516817,-1502.16,2065.89)">
                    <path d="M1666.36,1178.48L1665.39,1488.55C1663.99,1489.16 1662.61,1489.86 1661.26,1490.65C1638.4,1504.02 1633.59,1538.38 1650.52,1567.34C1654.6,1574.31 1659.57,1580.34 1665.09,1585.29L1664.99,1616.53C1664.99,1630.14 1664.47,1646.53 1653.81,1646.53L1276.43,1646.53C1274.68,1630.74 1274.97,1615.13 1277.1,1599.66C1309.94,1618.8 1348.75,1621.43 1380.27,1602.99C1430.05,1573.87 1442.93,1503.14 1409.01,1445.14C1401.97,1433.11 1393.46,1422.56 1383.96,1413.67C1421.84,1373.96 1467.14,1334.72 1515.8,1295.5C1516.59,1297.07 1517.44,1298.63 1518.35,1300.19C1536.03,1330.41 1568.51,1344.35 1590.84,1331.29C1613.16,1318.23 1616.93,1283.09 1599.25,1252.87C1596.11,1247.49 1592.49,1242.62 1588.55,1238.34C1614.31,1218.45 1640.42,1198.52 1666.36,1178.48Z" style="fill:rgb(131,156,46);"/>
                </g>
                <g transform="matrix(0.479455,-0.883552,0.819677,0.516817,-1502.16,2065.89)">
                    <path d="M1666.08,1270.48L1665.39,1488.55C1663.99,1489.16 1662.61,1489.86 1661.26,1490.65C1638.4,1504.02 1633.59,1538.38 1650.52,1567.34C1654.6,1574.31 1659.57,1580.34 1665.09,1585.29L1664.99,1616.53C1664.99,1630.14 1664.47,1646.53 1653.81,1646.53L1505.22,1646.53C1576.72,1507.76 1632.59,1380.71 1666.08,1270.48Z" style="fill:rgb(160,189,65);"/>
                </g>
                <g transform="matrix(0.479455,-0.883552,0.819677,0.516817,-1502.16,2065.89)">
                    <path d="M1666.15,1245.1L1666.08,1270.49C1632.59,1380.7 1576.73,1507.74 1505.22,1646.53L1482.39,1646.53C1554.72,1518.94 1618.35,1386.48 1666.15,1245.1Z" style="fill:rgb(116,142,49);"/>
                </g>
            </g>
            <g id="shadow2" serif:id="shadow" transform="matrix(1,0,-5.55112e-17,1,18.8606,0)">
                <path d="M1045.9,1646.53C1037.42,1619.54 1034.83,1592.8 1037.26,1566.24C1073.42,1585.14 1115.16,1586.06 1148.06,1564.75C1200.02,1531.07 1210.36,1454.59 1171.13,1394.06C1162.99,1381.5 1153.36,1370.61 1142.73,1361.54C1181.4,1317.1 1228.06,1272.8 1278.31,1228.34C1279.24,1229.99 1280.23,1231.63 1281.28,1233.25C1301.72,1264.79 1337.24,1278.15 1360.54,1263.05C1383.84,1247.95 1386.16,1210.08 1365.72,1178.53C1362.08,1172.91 1357.96,1167.88 1353.52,1163.47C1389.44,1133.03 1426.05,1102.46 1461.94,1071.66C1494.76,1191.03 1505.52,1317.25 1494.3,1430.82C1477.36,1421.83 1458.48,1421.01 1443.88,1430.48C1420.02,1445.94 1416.55,1483.03 1436.13,1513.25C1446.09,1528.61 1460.09,1539.26 1474.6,1543.99C1470.66,1559.2 1466.24,1573.98 1461.33,1588.26C1454.29,1608.76 1446.26,1628.25 1437.23,1646.53L1045.9,1646.53Z" style="fill:rgb(36,47,0);fill-opacity:0.5;"/>
            </g>
            <g id="leaves3" serif:id="leaves" transform="matrix(0.614792,0.948693,-0.880109,0.570347,2330.94,160.275)">
                <g transform="matrix(0.481062,-0.800181,0.742333,0.51855,-1240.3,1782.06)">
                    <path d="M1045.9,1646.53C1037.42,1619.54 1034.83,1592.8 1037.26,1566.24C1073.42,1585.14 1115.16,1586.06 1148.06,1564.75C1200.02,1531.07 1210.36,1454.59 1171.13,1394.06C1162.99,1381.5 1153.36,1370.61 1142.73,1361.54C1181.4,1317.1 1228.06,1272.8 1278.31,1228.34C1279.24,1229.99 1280.23,1231.63 1281.28,1233.25C1301.72,1264.79 1337.24,1278.15 1360.54,1263.05C1383.84,1247.95 1386.16,1210.08 1365.72,1178.53C1362.08,1172.91 1357.96,1167.88 1353.52,1163.47C1389.44,1133.03 1426.05,1102.46 1461.94,1071.66C1494.76,1191.03 1505.52,1317.25 1494.3,1430.82C1477.36,1421.83 1458.48,1421.01 1443.88,1430.48C1420.02,1445.94 1416.55,1483.03 1436.13,1513.25C1446.09,1528.61 1460.09,1539.26 1474.6,1543.99C1470.66,1559.2 1466.24,1573.98 1461.33,1588.26C1454.29,1608.76 1446.26,1628.25 1437.23,1646.53L1045.9,1646.53Z" style="fill:rgb(131,156,46);"/>
                </g>
                <g transform="matrix(0.481062,-0.800181,0.742333,0.51855,-1240.3,1782.06)">
                    <path d="M1265.05,1646.53C1368.92,1425.54 1441.05,1230.74 1461.02,1078.96C1461.71,1075.76 1462.03,1073.31 1461.94,1071.66C1494.76,1191.03 1505.52,1317.25 1494.3,1430.82C1477.36,1421.83 1458.48,1421.01 1443.88,1430.48C1420.02,1445.94 1416.55,1483.03 1436.13,1513.25C1446.09,1528.61 1460.09,1539.26 1474.6,1543.99C1470.66,1559.2 1466.24,1573.98 1461.33,1588.26C1454.29,1608.76 1446.26,1628.25 1437.23,1646.53L1265.05,1646.53Z" style="fill:rgb(160,189,65);"/>
                </g>
                <g transform="matrix(0.481062,-0.800181,0.742333,0.51855,-1240.3,1782.06)">
                    <path d="M1239.02,1646.53C1333.93,1465.32 1414,1276.59 1461.94,1071.66C1443.37,1224.44 1370.62,1421.93 1265.05,1646.53L1239.02,1646.53Z" style="fill:rgb(116,142,49);"/>
                </g>
            </g>
            <path id="shadow3" serif:id="shadow" d="M312.016,1188.26C396.448,1223.54 490.512,1272.14 555.801,1328.3C540.979,1337.19 531.29,1351.88 531.29,1368.47C531.29,1395.58 551.717,1412.75 583.181,1407.77C599.557,1405.18 615.143,1397.27 623.102,1385.58C632.502,1396.62 648.571,1411.44 656.814,1422.77C703.211,1486.55 730.659,1568.06 730.729,1634.27C723.737,1637.91 717.338,1642.04 711.648,1646.53L449.126,1646.53C439.949,1616.87 411.168,1578.05 357.942,1578.05C344.702,1578.05 331.98,1580.11 320.136,1583.91C317.672,1574.66 315.323,1555.01 313.079,1545.41L312.626,1393.29C335.499,1386.48 343.105,1363.36 343.105,1347.6C343.105,1334.9 335.373,1310.06 312.358,1303.31L312.016,1188.26Z" style="fill:rgb(36,47,0);fill-opacity:0.5;"/>
            <g id="leaves4" serif:id="leaves">
                <path d="M312.016,1188.26C396.448,1223.54 475.405,1272.14 540.694,1328.3C525.873,1337.19 516.183,1351.88 516.183,1368.47C516.183,1395.58 542.045,1417.59 573.9,1417.59C590.092,1417.59 604.735,1411.9 615.223,1402.75C624.624,1413.79 633.464,1424.99 641.707,1436.32C688.105,1500.1 715.552,1568.06 715.622,1634.27C708.63,1637.91 702.231,1642.04 696.542,1646.53L469.458,1646.53C456.041,1601.19 411.168,1567.83 357.942,1567.83C344.702,1567.83 331.98,1569.9 320.136,1573.69C317.672,1564.44 315.323,1555.01 313.079,1545.41L312.626,1393.29C335.499,1386.48 351.802,1368.91 351.802,1348.34C351.802,1327.68 335.373,1310.06 312.358,1303.31L312.016,1188.26Z" style="fill:rgb(131,156,46);"/>
                <path d="M312.016,1188.26C396.448,1223.54 475.405,1272.14 540.694,1328.3C525.873,1337.19 516.183,1351.88 516.183,1368.47C516.183,1395.58 542.045,1417.59 573.9,1417.59C590.092,1417.59 604.735,1411.9 615.223,1402.75C624.624,1413.79 633.464,1424.99 641.707,1436.32C688.105,1500.1 715.552,1568.06 715.622,1634.27C708.63,1637.91 702.231,1642.04 696.542,1646.53L603.682,1646.53C502.713,1469.4 404.914,1321.92 312.114,1221.27L312.016,1188.26Z" style="fill:rgb(160,189,65);"/>
                <path d="M312.114,1221.27C404.888,1321.88 502.699,1469.38 603.681,1646.53L579.105,1646.53C502.649,1500.09 416.808,1359.59 312.143,1230.92L312.114,1221.27Z" style="fill:rgb(116,142,49);"/>
            </g>
            <path d="M310.95,829.863L310.154,562.466C310.154,547.045 315.402,533.483 323.927,533.483L1653.81,533.483C1662.77,533.483 1668.29,547.045 1668.29,562.466L1667.14,930.762L1611.49,791.142L1538.57,1028.3L1428.82,841.798L1322.64,1031.56L1131.2,658.209L989.221,1000L894.193,853.955L811.67,979.213L703.605,782.239L610.276,984.616L505.649,791.081L394.145,973.318L310.95,829.863Z" style="fill:rgb(0,28,21);"/>
        </g>
        <g id="Light">
            <path d="M961.132,1646.53L874.715,1646.53L529.435,533.483L615.851,533.483L961.132,1646.53ZM1665.89,1329.3L1664.99,1616.53C1664.99,1630.14 1664.47,1646.53 1653.81,1646.53L1162.19,1646.53L816.908,533.483L1419.02,533.483L1665.89,1329.3ZM1668.08,630.085L1666.68,1075.33L1498.6,533.483L1638.11,533.483L1668.08,630.085Z" style="fill:url(#_Linear1);"/>
            <g transform="matrix(1,0,0,1,-14.5368,0)">
                <path d="M1642.71,570.114L1642.71,1614.78C1642.71,1619.37 1536.17,1631.52 1540.77,1631.52C1545.37,1631.52 1659.37,1634.09 1659.37,1629.49L1659.37,691.429L1662.27,648.684C1668.72,576.534 1667.98,557.343 1662.99,551.495C1662.87,551.356 1658.94,546.7 1655.04,546.537C1560.13,542.574 357.926,547.457 353.509,547.457C353.006,547.457 349.229,554.901 376.375,555.291C396.962,555.587 424.736,556.749 458.168,556.16C489.806,555.603 525.731,555.57 563.884,556.935C572.818,557.255 581.964,556.603 591.252,557.11C642.799,559.92 696.688,560.234 750.837,558.025C798.681,556.073 848.592,558.542 899.211,558.804C954.014,559.088 994.009,556.785 1048.8,561.434C1095.98,565.436 1221.66,562.687 1265.87,558.669C1275.1,557.829 1284.36,558.777 1293.5,558.832C1493.01,560.023 1594.87,563.116 1636.78,564.736C1643.54,564.998 1642.71,569.875 1642.71,570.114Z" style="fill:url(#_Linear2);"/>
            </g>
        </g>
        <g id="Title">
            <g transform="matrix(1,-5.55112e-17,5.55112e-17,1,-23.9387,19.1938)">
                <path d="M1301.08,953.106C1097.67,885.932 893.46,884.9 688.35,957.583C730.637,955.912 768.839,957.251 794.521,967.816C760.75,986.493 737.469,1008.75 710.684,1047.51C755.864,1029.71 805.983,1009.36 846.58,1004.89C822.547,1026.86 812.636,1048.84 801.946,1070.81C955.9,1040.57 1113,1041.78 1272.19,1063.93C1246.93,1042.02 1215.81,1028.2 1181.46,1018.86C1210.07,1011.34 1244.02,1010.05 1281.01,1012.31C1225.89,988.238 1214.68,983.352 1155.37,966.263C1211.99,952.061 1236.88,945.387 1301.08,953.106Z" style="fill:rgb(1,2,0);"/>
                <path d="M1301.08,953.106C1097.67,885.932 893.46,884.9 688.35,957.583C730.637,955.912 768.839,957.251 794.521,967.816C760.75,986.493 737.469,1008.75 710.684,1047.51C755.864,1029.71 805.983,1009.36 846.58,1004.89C822.547,1026.86 812.636,1048.84 801.946,1070.81C955.9,1040.57 1113,1041.78 1272.19,1063.93C1246.93,1042.02 1215.81,1028.2 1181.46,1018.86C1210.07,1011.34 1244.02,1010.05 1281.01,1012.31C1225.89,988.238 1214.68,983.352 1155.37,966.263C1211.99,952.061 1236.88,945.387 1301.08,953.106ZM1234.75,942.174C1209.13,944.07 1186.6,949.84 1153.34,958.18C1149.69,959.097 1147.11,962.351 1147.04,966.118C1146.97,969.885 1149.44,973.228 1153.06,974.271C1194.73,986.274 1212.46,992.21 1238.68,1003.13C1217.22,1003.73 1197.26,1006.09 1179.34,1010.8C1175.69,1011.76 1173.14,1015.05 1173.13,1018.83C1173.11,1022.6 1175.63,1025.91 1179.28,1026.9C1201.17,1032.86 1221.72,1040.65 1240.17,1051.37C1097.03,1034.07 955.63,1034.27 816.74,1059.53C824.897,1043.37 834.55,1027.18 852.203,1011.04C854.864,1008.61 855.658,1004.74 854.171,1001.45C852.684,998.168 849.252,996.212 845.668,996.607C812.423,1000.27 772.866,1014.33 734.736,1029.12C754.116,1005.18 773.278,989.088 798.554,975.108C801.359,973.558 803.025,970.537 802.841,967.338C802.657,964.139 800.655,961.328 797.692,960.109C782.403,953.82 762.828,950.602 740.625,949.334C905.9,900.337 1070.59,899.305 1234.75,942.174Z" style="fill:rgb(0,28,21);"/>
            </g>
            <g id="box1" serif:id="box" transform="matrix(0.833383,0.0244173,-0.0244173,0.833383,158.569,162.458)">
                <g transform="matrix(0.953954,-0.142249,0.142249,0.953954,-112.014,176.659)">
                    <path d="M868.673,943.548C865.106,976.142 865.734,1008.14 871.948,1039.33C878.164,1039.47 889.686,1039.32 895.691,1038.61C896.956,1028.64 896.603,1000.67 893.527,990.36C906.424,990.562 918.202,987.225 928.49,979.177C934.151,962.564 934.006,946.241 928.49,930.187C907.888,928.016 887.877,931.747 868.673,943.548ZM894.346,970.242C898.427,971.758 902.113,972.214 906.552,968.364C908.853,963.549 908.23,959.184 905.881,955.085C901.874,953.617 897.995,953.557 894.346,956.024C892.1,961.121 892.299,965.145 894.346,970.242Z" style="fill:rgb(255,196,41);stroke:rgb(155,112,0);stroke-width:5.18px;stroke-linecap:round;"/>
                </g>
                <g transform="matrix(0.96532,-0.0646917,0.0699004,1.04304,-60.0119,16.7648)">
                    <path d="M956.965,930.381C952.47,961.667 951.889,992.708 956.336,1023.44C962.25,1025.24 973.953,1024.31 973.953,1024.31L976.949,1002.96L995.359,1003L995.831,1024.62C995.831,1024.62 1009.95,1025.33 1016.9,1023.02C1022.02,991.294 1021.43,960.205 1016.49,929.601C996.646,921.565 976.805,922.209 956.965,930.381ZM978.825,960.479C977.457,973.139 978.563,984.607 978.563,984.607L996.998,984.437C996.998,984.437 998.447,972.547 996.941,960.163C990.902,956.912 984.864,957.172 978.825,960.479Z" style="fill:rgb(255,196,41);stroke:rgb(155,112,0);stroke-width:4.96px;stroke-linecap:round;"/>
                </g>
                <g transform="matrix(0.999748,-0.0224423,0.0224423,0.999748,7.07012,0.257929)">
                    <path d="M978.184,947.196C977.043,974.218 976.935,1004.71 978.799,1030.73C1003.89,1039.93 1023.22,1040.57 1047.43,1037.22C1050.33,1028.64 1050.33,1019.93 1047.62,1011.08C1035.44,1012.84 1023.35,1012.83 1011.44,1009.52C1009.2,996.737 1009.52,983.958 1011.63,971.179C1019.86,968.058 1030.48,966.128 1046.06,966.68C1047.39,956.732 1047.17,946.783 1044.49,936.835C1019.69,933.307 996.728,934.549 978.184,947.196Z" style="fill:rgb(255,196,41);stroke:rgb(155,112,0);stroke-width:5px;stroke-linecap:round;"/>
                </g>
                <g transform="matrix(0.854459,0.12094,-0.12094,0.854459,317.565,3.51216)">
                    <path d="M1041.55,928.694L1075.44,925.912L1080.65,958.278C1088.46,946.298 1093.6,934.494 1095.62,922.893C1095.62,922.893 1121.19,919.426 1132.97,921.25C1127.75,938.603 1117.96,959.626 1107.16,977.38C1121.18,988.938 1142.74,1015.53 1151.56,1031.92C1140.1,1035.58 1128.79,1038.17 1114.11,1036.1C1105.08,1025.89 1082.22,995.217 1082.22,995.217L1085.48,1037.92L1053.4,1040.27L1041.55,928.694Z" style="fill:rgb(255,196,41);stroke:rgb(155,112,0);stroke-width:5.79px;stroke-linecap:round;"/>
                </g>
            </g>
            <g id="dino" transform="matrix(0.999841,-0.0178226,0.0178226,0.999841,-13.9497,-1.4338)">
                <path id="edge" d="M854.531,666.649L915.651,652.068L918.407,722.692L913.986,723.285L919.767,728.791L833.271,745.496C787.718,909.767 679.42,950.592 679.42,950.592C679.42,950.592 655.098,957.581 645.735,960.409L589.35,713.34C598.993,706.922 617.256,692.87 617.256,692.87C674.08,655.053 797.802,677.819 828.127,709.038L826.018,687.548L854.531,666.649ZM930.252,909.629L929.815,896.566L927.214,896.931L930.025,902.847L815.586,923.89L829.183,771.808L857.792,750.815L913.003,744.74L927.938,840.389L921.583,650.171L950.498,629.023L1029.66,621.902L1081.48,730.196L1079.81,676.715L1108.31,655.802L1159.43,650.063L1171.29,811.587C1176.33,790.541 1183.02,775.785 1190.68,765.499C1200.38,751.414 1257.36,723.3 1274.25,723.102C1301.85,722.78 1327.37,727.403 1350.03,738.857C1378.53,753.266 1385.59,782.795 1381.42,813.594C1378.23,850.054 1366.1,884.355 1347.23,917.03C1334.38,939.283 1308.1,957.956 1280.63,958.602C1254.26,959.222 1218.99,949.807 1196.05,941.64C1179.84,933.897 1169.99,921.271 1165.37,906.941L1164,900.908L1163.77,900.954C1164.21,902.976 1164.74,904.973 1165.37,906.941L1165.37,906.943C1150.38,910.236 1106.64,921.667 1086.75,925.544L1013.33,786.273L1008.27,898.401L1009.6,907.711L976.08,917.442L930.252,909.629ZM1260.62,795.425C1269.91,796.186 1278.59,798.626 1286.49,803.21C1299.13,810.544 1302.27,825.549 1300.44,841.192C1299.16,858.158 1294.56,874.199 1287.38,889.523C1279.36,887.957 1271.96,885.371 1264.61,882.365C1253.54,876.292 1249.14,864.34 1249.63,852.405C1250.83,823.07 1255.02,805.66 1260.62,795.425ZM690.247,752.18C711.711,752.329 733.411,759.317 736.611,767.681C740.75,775.774 726.737,807.003 707.935,829.682L690.247,752.18Z" style="fill:white;stroke:white;stroke-width:33.29px;stroke-linecap:round;"/>
                <g id="_3d" serif:id="3d" transform="matrix(0.999967,-0.00816721,0.00816721,0.999967,-31.0691,46.2484)">
                    <path d="M1219.77,905.384C1194.89,893.252 1185.19,869.654 1186.51,846.169C1190.04,783.356 1201.3,748.392 1215.84,729.205C1227.76,712.186 1246.1,703.083 1267.58,703.007C1295.18,702.91 1320.66,707.741 1343.23,719.381C1371.61,734.021 1378.43,763.608 1374.01,794.371C1370.52,830.803 1358.11,865.005 1338.97,897.525C1329,913.396 1312.97,924.185 1292.52,922.592C1265.78,920.507 1242.64,913.738 1219.77,905.384ZM614.95,672.136C625.338,665.345 643.262,651.751 643.262,651.751C643.262,651.751 816.312,664.464 827.294,693.882C841.618,722.471 703.08,910.116 703.08,910.116C703.08,910.116 678.701,916.906 669.315,919.658L614.95,672.136ZM1000,879.39L954.237,871.203L947.688,611.683L976.775,590.772L1108.97,781.559L1105.69,639.518L1134.36,618.839L1189.37,870.438C1174.35,873.608 1130.52,884.682 1110.6,888.396L1009.91,693.551L1033.6,869.933L1000,879.39ZM839.459,884.527L854.297,732.561L883.078,711.803L954.066,864.42L839.459,884.527ZM1256.64,862.185C1245.62,856.023 1241.32,844.035 1241.9,832.105C1243.47,800.196 1248.45,782.435 1254.9,772.688C1260.18,764.042 1268.31,759.418 1277.82,759.38C1290.05,759.33 1301.34,761.784 1311.33,767.697C1323.91,775.135 1326.93,790.164 1324.97,805.792C1323.42,824.299 1317.93,841.673 1309.45,858.193C1305.03,866.256 1297.93,871.737 1288.87,870.927C1277.02,869.868 1266.77,866.429 1256.64,862.185ZM681.633,719.472C705.117,704.118 756.788,714.352 761.763,727.678C767.879,739.885 732.623,803.944 702.148,812.877L681.633,719.472ZM857.06,706.568L945.23,690.286L880.504,627.612L851.821,648.278L857.06,706.568Z" style="fill:rgb(60,24,5);"/>
                </g>
                <g id="Dino" transform="matrix(0.999967,-0.00816721,0.00816721,0.999967,0.974804,30.4711)">
                    <path d="M1219.77,905.384C1194.89,893.252 1185.19,869.654 1186.51,846.169C1190.04,783.356 1201.3,748.392 1215.84,729.205C1227.76,712.186 1246.1,703.083 1267.58,703.007C1295.18,702.91 1320.66,707.741 1343.23,719.381C1371.61,734.021 1378.43,763.608 1374.01,794.371C1370.52,830.803 1358.11,865.005 1338.97,897.525C1329,913.396 1312.97,924.185 1292.52,922.592C1265.78,920.507 1242.64,913.738 1219.77,905.384ZM1256.64,862.185C1245.62,856.023 1241.32,844.035 1241.9,832.105C1243.47,800.196 1248.45,782.435 1254.9,772.688C1260.18,764.042 1268.31,759.418 1277.82,759.38C1290.05,759.33 1301.34,761.784 1311.33,767.697C1323.91,775.135 1326.93,790.164 1324.97,805.792C1323.42,824.299 1317.93,841.673 1309.45,858.193C1305.03,866.256 1297.93,871.737 1288.87,870.927C1277.02,869.868 1266.77,866.429 1256.64,862.185Z" style="fill:rgb(241,104,29);stroke:rgb(131,46,0);stroke-width:12.5px;stroke-linecap:round;"/>
                    <path id="n" d="M1000,879.39L954.237,871.203L947.688,611.683L1023.83,599.813L1108.97,781.559L1105.69,639.518L1156.86,634.197L1169.55,877.344L1110.6,888.396L1009.91,693.551L1000,879.39Z" style="fill:rgb(241,104,29);stroke:rgb(131,46,0);stroke-width:12.5px;stroke-linecap:round;"/>
                    <g id="i">
                        <path d="M839.459,884.527L854.297,732.561L909.558,726.932L928.49,872.759L839.459,884.527Z" style="fill:rgb(241,104,29);stroke:rgb(131,46,0);stroke-width:12.5px;stroke-linecap:round;"/>
                        <path d="M857.06,706.568L911.748,699.691L913.058,634.197L851.821,648.278L857.06,706.568Z" style="fill:rgb(241,104,29);stroke:rgb(131,46,0);stroke-width:12.5px;stroke-linecap:round;"/>
                    </g>
                    <path id="d" d="M614.95,672.136C677.184,631.448 814.112,658.57 827.294,693.882C843.501,726.231 750.074,895.986 669.315,919.658L614.95,672.136ZM681.633,719.472C705.117,704.118 756.788,714.352 761.763,727.678C767.879,739.885 732.623,803.944 702.148,812.877L681.633,719.472Z" style="fill:rgb(241,104,29);stroke:rgb(131,46,0);stroke-width:12.5px;stroke-linecap:round;"/>
                </g>
                <g id="light1" serif:id="light" transform="matrix(0.999841,0.0178226,-0.0178226,0.999841,13.2634,-17.4789)">
                    <path d="M1339.38,909.226C1333.52,918.949 1326.81,923.608 1319.76,925.811C1312.72,928.014 1305.34,927.76 1298.16,927.654C1312.65,926.142 1328.58,918.82 1339.38,909.226ZM1128.91,897.091L1170.85,888.42L1168.51,858.816L1164.56,883.228L1128.91,897.091ZM925.023,864.616L928.245,889.045L900.104,893.556L923.305,885.178L925.023,864.616ZM1340.01,743.734C1349.23,749.782 1356.77,759.932 1362.01,771.929C1367.26,783.925 1370.2,797.768 1370.22,811.2C1377.5,773.251 1366.77,750.199 1340.01,743.734ZM885.435,764.893L909.333,761.939L915.416,802.408L905.037,769.726L885.435,764.893ZM1125.34,666.278L1153.66,662.703L1159.88,746.775L1146.65,671.217L1125.34,666.278ZM641.612,704.384C664.478,692.572 701.04,689.885 736.123,693.599C771.206,697.313 804.284,705.141 821.232,718.931C779.263,699.56 691.037,690.611 641.612,704.384ZM909.664,702.124L909.598,670.944L878.488,677.228L905.302,676.959L909.664,702.124ZM966.117,642.293L1022.4,634.344L1050.76,689.338L1016.38,644.226L966.117,642.293Z" style="fill:rgb(255,193,159);"/>
                </g>
            </g>
        </g>
        <g id="blooks">
            <g id="shadow4" serif:id="shadow" transform="matrix(1,0,0,1,-23.9387,12.4497)">
                <path d="M1398.59,1221.79L1414.96,1227.66C1439.82,1236.57 1452.71,1264.16 1443.72,1289.24L1341.99,1573.01C1333.05,1597.93 1305.37,1611.15 1280.65,1602.29L999.259,1501.41C974.546,1492.55 961.562,1464.76 970.496,1439.83L1072.23,1156.06C1081.22,1130.99 1108.7,1117.87 1133.56,1126.78L1211.69,1154.79C1257.31,1137.4 1307.87,1134.4 1352.26,1157.86C1379.89,1172.47 1396.32,1195.96 1398.59,1221.79Z" style="fill:rgb(22,53,0);fill-opacity:0.25;fill-rule:nonzero;"/>
            </g>
            <g transform="matrix(1.10552,0.393608,-0.393608,1.10552,1089.21,1088.26)">
                <g id="blook_dino_egg.svg">
                    <g>
                        <g id="dinosaur">
                            <path d="M263.62,345L36.38,345C16.423,345 0,328.577 0,308.62L0,259.14L300,259.14L300,308.62C300,328.577 283.577,345 263.62,345Z" style="fill:url(#_Linear3);fill-rule:nonzero;"/>
                            <path d="M300,81.38C300,61.301 283.699,45 263.62,45L36.38,45C16.301,45 0,61.301 0,81.38L0,262.01C0,282.089 16.301,298.39 36.38,298.39L263.62,298.39C283.699,298.39 300,282.089 300,262.01L300,81.38Z" style="fill:rgb(221,163,94);"/>
                            <path d="M53.8,184.45L37.47,168.6L40.09,168.74L33.55,173.8L31.91,175.06C31.528,175.361 31.192,175.714 30.91,176.11C30.348,176.91 30.041,177.862 30.03,178.84C30.03,179.324 30.101,179.806 30.24,180.27C30.29,180.46 30.44,180.85 30.55,181.15L30.9,182.15L32.3,186.03L35.11,193.81L36.11,195.86L33.27,196.49C30.373,197.099 27.429,197.454 24.47,197.55L22.27,197.61L20.21,197.61C18.973,197.664 17.823,198.27 17.08,199.26C16.805,199.609 16.582,199.996 16.42,200.41C16.257,200.847 16.156,201.305 16.12,201.77L16.12,202.51C16.142,202.804 16.193,203.095 16.27,203.38C17.031,206.302 17.549,209.282 17.82,212.29C15.849,210.011 14.069,207.573 12.5,205C12.272,204.615 12.065,204.217 11.88,203.81C11.695,203.351 11.542,202.88 11.42,202.4C11.202,201.415 11.152,200.401 11.27,199.4C11.531,197.319 12.494,195.389 14,193.93C14.777,193.192 15.673,192.591 16.65,192.15C17.632,191.717 18.68,191.457 19.75,191.38L22.2,191.38C22.93,191.38 23.66,191.38 24.4,191.45C27.358,191.548 30.302,191.899 33.2,192.5L31.32,195.18L28.51,187.41L27.11,183.52L26.76,182.52C26.64,182.18 26.53,181.93 26.39,181.46C25.315,177.951 26.549,174.122 29.47,171.9L31.1,170.64L37.64,165.64L39,164.52L40.25,165.73L56.57,181.58L53.8,184.45Z" style="fill:rgb(201,131,64);fill-rule:nonzero;"/>
                            <path d="M31.58,116.35C30.484,114.467 29.56,112.489 28.82,110.44C28.083,108.449 27.456,106.419 26.94,104.36L26.55,102.82L26.36,102.05L26.26,101.64C26.26,101.43 26.18,101.23 26.16,101.02C25.861,98.405 27.187,95.856 29.5,94.6C30.163,94.247 30.874,93.991 31.61,93.84C32.61,93.59 33.61,93.33 34.69,93.11L37,92.6L37.4,92.52L38.04,92.42C39.751,92.224 41.472,92.726 42.81,93.81C43.461,94.342 44.005,94.993 44.41,95.73C44.606,96.095 44.77,96.476 44.9,96.87C44.95,97.06 45.02,97.3 45.05,97.44L45.13,97.83C45.35,98.83 45.57,99.89 45.76,100.93C46.15,103.01 46.48,105.1 46.68,107.23C46.943,109.376 47.05,111.538 47,113.7C45.859,111.853 44.857,109.925 44,107.93C43.13,105.93 42.39,103.99 41.71,101.99C41.37,100.99 41.06,99.99 40.71,98.99L40.59,98.62C40.59,98.5 40.53,98.49 40.51,98.43C40.462,98.326 40.402,98.229 40.33,98.14C40.199,97.963 40.032,97.817 39.84,97.71C39.483,97.495 39.058,97.423 38.65,97.51L35.84,98.23C34.84,98.49 33.84,98.71 32.76,98.95C32.46,99.001 32.166,99.078 31.88,99.18C31.705,99.266 31.546,99.381 31.41,99.52C31.11,99.811 30.94,100.212 30.94,100.63L30.94,100.79C30.949,100.914 30.966,101.038 30.99,101.16L31.1,101.94L31.32,103.51C31.616,105.612 31.796,107.728 31.86,109.85C31.968,112.021 31.874,114.197 31.58,116.35Z" style="fill:rgb(201,131,64);fill-rule:nonzero;"/>
                            <path d="M264.81,165.91C268.02,162.2 271.35,158.61 274.75,155.09C275.6,154.21 276.44,153.32 277.31,152.45C278.541,151.22 280.1,150.369 281.8,150C283.522,149.621 285.318,149.76 286.96,150.4C287.773,150.73 288.534,151.174 289.22,151.72C289.572,151.995 289.906,152.292 290.22,152.61C290.49,152.92 290.83,153.31 290.97,153.51L292.08,154.97L292.38,155.36L292.75,155.9C292.985,156.266 293.189,156.651 293.36,157.05C294.061,158.639 294.276,160.399 293.98,162.11C293.828,162.955 293.556,163.773 293.17,164.54C292.977,164.922 292.757,165.29 292.51,165.64L292.14,166.14L291.85,166.49C291.08,167.49 290.31,168.39 289.51,169.32C286.326,173.142 282.689,176.564 278.68,179.51C280.533,174.901 282.94,170.536 285.85,166.51C286.55,165.51 287.28,164.51 288,163.51L288.27,163.14L288.44,162.89C288.535,162.73 288.619,162.562 288.69,162.39C288.839,162.054 288.934,161.696 288.97,161.33C289.053,160.611 288.92,159.884 288.59,159.24C288.51,159.08 288.42,158.93 288.33,158.77L288.17,158.56L287.9,158.22L286.76,156.79C286.54,156.5 286.46,156.44 286.34,156.29C286.22,156.14 286.08,156.04 285.94,155.94C285.661,155.733 285.355,155.565 285.03,155.44C284.369,155.207 283.659,155.152 282.97,155.28C282.271,155.423 281.63,155.771 281.13,156.28C280.26,157.14 279.38,157.98 278.49,158.83C274.97,162.23 271.38,165.56 267.67,168.77L264.81,165.91Z" style="fill:rgb(201,131,64);fill-rule:nonzero;"/>
                            <path d="M253.55,208.81C210.9,284 150,290.32 96.57,260C43.14,229.68 17.27,174.22 59.92,99C102.57,23.78 194.35,-4.74 234,17.72C273.65,40.18 296.2,133.59 253.55,208.81Z" style="fill:rgb(240,224,193);fill-rule:nonzero;"/>
                            <path d="M228.83,243L230.45,241.26L231.29,240.32C231.78,239.77 232.29,239.21 232.77,238.64L233.67,237.59C234.14,237.04 234.61,236.49 235.08,235.92L236.01,234.78L237.36,233.1L238.31,231.89C238.75,231.32 239.19,230.75 239.62,230.17L240.57,228.9C241.01,228.31 241.43,227.72 241.86,227.13L242.81,225.81C243.24,225.21 243.66,224.59 244.08,223.98C244.4,223.53 244.71,223.08 245.02,222.62L246.29,220.7C246.59,220.24 246.9,219.79 247.19,219.33L248.5,217.28L249.34,215.94C249.82,215.17 250.29,214.39 250.76,213.6L251.46,212.44C252.16,211.26 252.86,210.06 253.55,208.84C254.16,207.77 254.75,206.69 255.33,205.62L255.83,204.62C256.24,203.84 256.65,203.06 257.05,202.28L257.57,201.28C257.983,200.467 258.383,199.657 258.77,198.85C258.9,198.57 259.04,198.29 259.18,198.01C260.25,195.75 261.28,193.48 262.25,191.19L262.25,191.13C262.72,190.02 263.18,188.9 263.63,187.78C263.75,187.49 263.86,187.19 263.98,186.89C264.34,186.03 264.66,185.15 264.98,184.28C265.03,184.13 265.09,183.98 265.14,183.84C285.28,129.73 276.6,71.53 255.14,38.84C258.14,72.12 252.23,109.98 232.89,144.09C219.36,167.95 186.3,183.17 181.3,181.71L178.66,180.94C174.641,179.76 170.289,181.267 167.86,184.68L163.68,190.54L161.83,190.3C156.56,189.62 153.45,196.42 147.9,194.72C142.35,193.02 143.99,180.62 143.99,180.62C144.19,175.42 140.3,170.889 135.13,170.3L129.95,169.69C126.879,169.317 123.804,170.389 121.63,172.59C119.976,174.294 118.955,176.515 118.74,178.88C118.525,181.245 118.26,195.2 104,187C101.5,185.57 98.21,187 95.83,188.62L90.69,192.15C89.791,192.859 89.054,193.752 88.53,194.77C86.692,197.857 82.697,198.966 79.53,197.27C78.35,196.64 77.16,195.99 75.99,195.32C61.15,186.9 48.44,176.55 38.73,164.32C38.2,173.465 38.964,182.639 41,191.57C41.21,192.47 41.44,193.36 41.67,194.25C41.717,194.404 41.754,194.561 41.78,194.72C41.88,195.386 42.061,196.038 42.32,196.66C42.48,197.09 42.6,197.54 42.74,197.99C43.07,198.99 43.41,200.09 43.74,201.13C43.74,201.21 43.8,201.28 43.82,201.35C44.16,202.35 44.52,203.26 44.89,204.2L45.11,204.78C45.51,205.78 45.93,206.78 46.36,207.78C46.397,207.851 46.431,207.925 46.46,208C46.867,208.913 47.287,209.813 47.72,210.7L48.02,211.33C48.49,212.33 49.02,213.23 49.47,214.17L49.6,214.39C50.06,215.25 50.54,216.1 51.03,216.95L51.42,217.62C51.96,218.52 52.5,219.42 53.06,220.3L53.21,220.53C53.73,221.34 54.21,222.15 54.81,222.94L55.3,223.66C55.89,224.51 56.48,225.35 57.1,226.18C57.4,226.59 57.72,226.98 58.02,227.39L58.56,228.07L59.73,229.56L60.59,230.56L61.86,232.09L62.19,232.46C63.19,233.607 64.22,234.74 65.28,235.86L66.16,236.79C66.61,237.26 67.06,237.71 67.52,238.17L68.52,239.17L69.88,240.47L71,241.58L72.35,242.81L73.6,243.9L75,245.05L76.48,246.28L77.65,247.28C78.52,247.97 79.4,248.65 80.29,249.28C80.65,249.56 81.03,249.83 81.4,250.11C81.98,250.54 82.56,250.97 83.15,251.39L84.37,252.25C84.94,252.66 85.52,253.06 86.11,253.46L87.34,254.29L89.18,255.49L90.37,256.25L92.44,257.53C92.78,257.74 93.11,257.95 93.44,258.15C94.44,258.78 95.53,259.39 96.59,259.99C97.42,260.47 98.26,260.93 99.09,261.38L100.51,262.14L101.6,262.72L103.3,263.58L104.13,264L106.03,264.92L106.65,265.22C107.34,265.55 108.03,265.86 108.72,266.17L109.19,266.39C109.92,266.72 110.66,267.03 111.39,267.39L111.73,267.54L114.14,268.54L114.28,268.6C115.12,268.94 115.96,269.26 116.8,269.6C123.47,272.136 130.354,274.067 137.37,275.37L137.44,275.37C149.239,277.595 161.351,277.595 173.15,275.37C180.654,273.917 187.947,271.532 194.86,268.27L195.01,268.2C195.83,267.82 196.64,267.42 197.45,267.01L197.79,266.83C198.54,266.45 199.29,266.06 200.03,265.65L200.48,265.4L202.61,264.2L203.13,263.89C203.81,263.49 204.49,263.07 205.13,262.65L205.69,262.3C206.36,261.88 207.03,261.44 207.69,261L208.26,260.62C208.93,260.17 209.59,259.71 210.26,259.24L210.81,258.85C211.48,258.37 212.16,257.85 212.81,257.37L213.31,257C214.02,256.46 214.73,255.9 215.44,255.34L215.8,255.05C216.61,254.4 217.41,253.74 218.21,253.05L218.27,253C220.77,250.88 223.237,248.61 225.67,246.19L226.18,245.67C226.8,245.05 227.42,244.42 228.03,243.78L228.83,243Z" style="fill-opacity:0.04;fill-rule:nonzero;"/>
                            <path d="M19.46,241.4L34.39,211C35.709,208.323 38.6,206.77 41.56,207.15L47.1,207.86C50.904,208.374 53.612,211.926 53.1,215.73L49.72,241.4L61.65,244.4L66.65,225.15C67.176,223.107 69.033,221.668 71.143,221.668C72.521,221.668 73.829,222.281 74.71,223.34L88.37,239.79L90.5,210.57C90.603,209.037 91.408,207.633 92.68,206.77L97.83,203.24C98.671,202.649 99.675,202.332 100.703,202.332C102.457,202.332 104.087,203.256 104.99,204.76L118.99,227.64L123.12,189.31C123.377,187.024 125.332,185.277 127.632,185.277C127.815,185.277 127.998,185.288 128.18,185.31L133.36,185.92C135.694,186.203 137.444,188.25 137.36,190.6L136.12,227.67L151.12,209.41C153.268,206.799 156.618,205.474 159.97,205.91L165.12,206.58L171.24,197.99C172.311,196.493 174.223,195.832 175.99,196.35L178.69,197.14C180.866,197.786 182.187,200.035 181.69,202.25L175,231.85L186.77,224.15C189.786,222.18 193.859,222.868 196.06,225.72L201.06,232.17L212.36,213.34C213.959,210.669 216.725,208.9 219.82,208.57L238.64,206.57L241.54,195.87C242.16,193.606 244.253,192.038 246.6,192.08L257.31,192.26C260.101,192.298 262.376,194.608 262.37,197.4L262.37,215L277.55,206.1C280.199,204.547 283.612,205.118 285.61,207.45L288.81,211.19C290.714,213.418 290.847,216.685 289.13,219.06L281.13,230.06L281.13,279.9L19.46,279.9L19.46,241.4Z" style="fill:rgb(221,163,94);fill-rule:nonzero;"/>
                            <path d="M19.46,241.4C21.67,234.6 24.36,228.03 27.21,221.53C28.66,218.3 30.12,215.07 31.64,211.86L32.48,210.06C32.62,209.8 32.74,209.54 32.9,209.29C33.493,208.29 34.274,207.413 35.2,206.71C37.082,205.275 39.448,204.623 41.8,204.89L47.09,205.52L47.43,205.52L47.87,205.59C48.16,205.638 48.447,205.701 48.73,205.78C50.458,206.253 52.014,207.215 53.21,208.55C54.808,210.346 55.656,212.688 55.58,215.09L55.51,215.97L55.42,216.64L55.25,218L54.89,220.63C53.89,227.63 52.89,234.63 51.7,241.63L50.2,239.42L62.13,242.42L59.71,243.86L62.93,231.41L64.55,225.18L64.65,224.79L64.65,224.6L64.73,224.33C64.839,223.964 64.983,223.609 65.16,223.27C65.5,222.575 65.965,221.948 66.53,221.42C67.666,220.373 69.128,219.748 70.67,219.65C72.219,219.549 73.755,220.003 75,220.93C75.314,221.151 75.602,221.406 75.86,221.69L76.22,222.08L76.48,222.39L77.48,223.63L81.59,228.63L89.81,238.52L86.27,239.65L87.64,220.93L88.32,211.56L88.41,210.38C88.45,209.835 88.557,209.298 88.73,208.78C89.087,207.727 89.691,206.774 90.49,206C90.681,205.804 90.885,205.62 91.1,205.45C91.3,205.28 91.56,205.11 91.69,205.01L92.69,204.35L94.6,203L96.53,201.68C96.66,201.58 96.95,201.41 97.17,201.28C97.405,201.141 97.649,201.017 97.9,200.91C100.479,199.816 103.475,200.355 105.51,202.28C105.893,202.654 106.229,203.074 106.51,203.53C106.79,203.96 106.94,204.22 107.16,204.58L108.39,206.58L110.84,210.58L120.66,226.58L116.96,227.41L119.5,203.85L120.82,192L121.13,189.06C121.443,186.143 123.669,183.77 126.56,183.27C126.91,183.21 127.265,183.18 127.62,183.18L128.6,183.18L130.08,183.35L133.02,183.7L133.39,183.7L133.82,183.76C134.159,183.816 134.493,183.897 134.82,184C135.5,184.229 136.138,184.567 136.71,185C137.86,185.856 138.699,187.064 139.1,188.44C139.285,189.121 139.37,189.825 139.35,190.53L139.35,192.01L138.95,203.85L138.16,227.55L134.62,226.21L146.92,211.21L148.46,209.34L149.23,208.41L149.62,207.94L150.09,207.39C152.1,205.229 154.848,203.898 157.79,203.66C158.273,203.63 158.757,203.63 159.24,203.66C159.71,203.66 160.24,203.74 160.62,203.79L165.43,204.42L163.54,205.24L169.54,196.75C170.014,196.065 170.615,195.478 171.31,195.02C172.027,194.563 172.824,194.247 173.66,194.09C174.496,193.943 175.353,193.967 176.18,194.16C176.66,194.28 176.82,194.34 177.13,194.43L177.97,194.67L178.8,194.91L179.22,195.04L179.81,195.24C180.601,195.554 181.32,196.027 181.92,196.63C183.137,197.84 183.813,199.494 183.79,201.21C183.779,201.633 183.732,202.055 183.65,202.47L183.45,203.33L183.07,205.03L177,232.29L174,230.17L180.81,225.72L184.22,223.49C184.81,223.11 185.3,222.77 185.97,222.35C186.716,221.9 187.525,221.563 188.37,221.35C190.073,220.899 191.872,220.961 193.54,221.53C195.203,222.098 196.663,223.142 197.74,224.53L202.74,230.97L199.45,231.17L205.89,220.43L209.11,215.07L210.72,212.38C212.671,209.107 216.068,206.951 219.86,206.58L226.08,205.91L238.52,204.55L236.73,206L238.5,199.47L239.39,196.21L239.61,195.39C239.708,195.025 239.832,194.667 239.98,194.32C240.291,193.588 240.72,192.913 241.25,192.32C242.304,191.162 243.71,190.381 245.25,190.1C245.636,190.029 246.028,189.992 246.42,189.99L249.01,189.99L255.77,190.1L257.51,190.1C258.296,190.124 259.071,190.287 259.8,190.58C261.279,191.152 262.521,192.21 263.32,193.58C263.727,194.251 264.021,194.984 264.19,195.75C264.323,196.445 264.376,197.153 264.35,197.86L264.35,214.86L261.35,213.13C265.01,210.56 268.76,208.13 272.56,205.81C273.56,205.23 274.45,204.63 275.41,204.06L276.13,203.64C276.452,203.443 276.786,203.266 277.13,203.11C280.114,201.802 283.584,202.212 286.18,204.18C286.497,204.424 286.801,204.684 287.09,204.96C287.35,205.24 287.66,205.58 287.8,205.76L289.95,208.32L290.48,208.97L290.75,209.29L291.1,209.75C292.999,212.317 293.359,215.723 292.04,218.63C291.878,218.974 291.694,219.308 291.49,219.63C291.302,219.927 291.098,220.214 290.88,220.49C288.114,224.108 284.821,227.29 281.11,229.93C282.443,225.576 284.429,221.448 287,217.69C287.18,217.41 287.21,217.33 287.31,217.16C287.388,217.007 287.458,216.85 287.52,216.69C287.637,216.368 287.711,216.032 287.74,215.69C287.79,215.022 287.673,214.352 287.4,213.74C287.293,213.48 287.159,213.232 287,213L286.83,212.8L286.55,212.49L286,211.87L283.8,209.35C283.672,209.195 283.535,209.048 283.39,208.91C283.276,208.799 283.152,208.699 283.02,208.61C282.767,208.419 282.488,208.268 282.19,208.16C281.597,207.925 280.953,207.845 280.32,207.93C280.007,207.965 279.7,208.046 279.41,208.17C279.254,208.231 279.104,208.305 278.96,208.39L278.23,208.81C277.23,209.37 276.29,209.9 275.32,210.44C271.43,212.62 267.48,214.7 263.45,216.64L260.45,218.09L260.45,198C260.472,197.579 260.449,197.156 260.38,196.74C260.308,196.388 260.18,196.051 260,195.74C259.46,194.834 258.495,194.261 257.44,194.22L255.8,194.22L249.04,194.11L246.56,194.11C245.692,194.113 244.863,194.475 244.27,195.11C243.914,195.503 243.66,195.976 243.53,196.49L243.31,197.31L242.42,200.57L240.65,207.1L240.29,208.41L238.93,208.56L226.49,209.91L220.27,210.59C217.718,210.811 215.426,212.26 214.13,214.47L212.52,217.15L209.3,222.52L202.8,233.2L201.29,235.72L199.5,233.4L194.5,226.95C193.278,225.39 191.239,224.697 189.32,225.19C188.853,225.311 188.408,225.503 188,225.76C187.51,226.06 186.89,226.48 186.34,226.84L183,229.06L176.18,233.52L172.05,236.22L173.14,231.41L179.26,204.27L179.64,202.57L179.83,201.73C179.862,201.579 179.879,201.425 179.88,201.27C179.882,200.638 179.633,200.03 179.19,199.58C178.972,199.361 178.709,199.19 178.42,199.08L178.19,199L177.77,198.87L176.93,198.63L176.1,198.39L175.37,198.18C175.066,198.12 174.754,198.12 174.45,198.18C173.815,198.284 173.25,198.646 172.89,199.18L166.89,207.67L166.19,208.67L165,208.51L160.2,207.89C159.869,207.838 159.535,207.804 159.2,207.79C158.867,207.763 158.533,207.763 158.2,207.79C157.559,207.84 156.928,207.971 156.32,208.18C155.096,208.595 153.993,209.306 153.11,210.25L152.8,210.62L152.41,211.09L151.64,212.02L150,213.9L137.7,228.9L134,233.43L134.19,227.54L134.99,203.85L135.38,192.01L135.38,190.52C135.434,189.372 134.711,188.321 133.62,187.96C133.491,187.915 133.356,187.885 133.22,187.87C133.121,187.847 133.021,187.831 132.92,187.82L132.55,187.82L129.55,187.47L128.08,187.3L127.8,187.3C127.73,187.295 127.66,187.295 127.59,187.3C127.454,187.285 127.316,187.285 127.18,187.3C126.048,187.488 125.175,188.418 125.06,189.56L124.74,192.51L123.48,204.29L121,227.82L120.37,233.65L117.31,228.65L107.49,212.65L105.04,208.65L103.81,206.65C103.62,206.34 103.38,205.93 103.22,205.65C103.095,205.45 102.944,205.269 102.77,205.11C102.073,204.451 101.105,204.158 100.16,204.32C99.926,204.361 99.698,204.428 99.48,204.52C99.374,204.567 99.27,204.621 99.17,204.68C99.043,204.745 98.922,204.822 98.81,204.91L96.87,206.23L94.93,207.56L93.93,208.22C93.807,208.298 93.691,208.385 93.58,208.48C93.481,208.549 93.39,208.63 93.31,208.72C92.978,209.058 92.728,209.469 92.58,209.92C92.511,210.144 92.467,210.376 92.45,210.61L92.36,211.76L91.68,221.13L90.34,239.9L90,244.85L86.81,241L78.59,231.11L74.48,226.17C73.929,225.458 73.324,224.789 72.67,224.17C72.184,223.801 71.579,223.624 70.97,223.67C70.354,223.712 69.77,223.958 69.31,224.37C69.094,224.579 68.915,224.822 68.78,225.09C68.707,225.226 68.65,225.371 68.61,225.52L68.61,225.83L68.51,226.22L66.9,232.44L63.67,244.89L63.18,246.81L61.26,246.33L49.32,243.33L47.64,242.91L47.82,241.12C48.5,234.06 49.35,227.03 50.25,220L50.59,217.37L50.76,216.05L50.85,215.4L50.85,214.96C50.885,213.782 50.47,212.633 49.69,211.75C49.301,211.311 48.837,210.946 48.32,210.67C48.06,210.533 47.785,210.425 47.5,210.35C47.36,210.302 47.216,210.265 47.07,210.24L46.54,210.24L41.28,209.51C39.438,209.243 37.601,210.077 36.59,211.64C36.5,211.76 36.43,211.91 36.35,212.04L36.05,212.62L35.44,213.8C33.83,216.96 32.17,220.09 30.49,223.21C27.05,229.35 23.49,235.49 19.46,241.4Z" style="fill:rgb(201,131,64);fill-rule:nonzero;"/>
                            <path d="M187.32,275.52C189.77,270.04 192.59,264.79 195.54,259.62C197.013,257.04 198.527,254.48 200.08,251.94L201.82,249.09C202.01,248.78 202.18,248.48 202.5,248.03C204.324,245.511 207.435,244.244 210.5,244.77C210.985,244.862 211.463,244.989 211.93,245.15L212.98,245.51L217.19,246.97L218.24,247.34L218.9,247.6C219.138,247.692 219.369,247.802 219.59,247.93C220.508,248.419 221.323,249.082 221.99,249.88C224.049,252.302 224.544,255.702 223.26,258.61L222.93,259.29L222.66,259.78L222.13,260.78L219.97,264.68C218.53,267.28 217.053,269.857 215.54,272.41L212.81,269.72C215.43,267.97 218.12,266.34 220.81,264.79C223.5,263.24 226.27,261.73 229.12,260.27C230.09,259.772 231.145,259.464 232.23,259.36C233.313,259.298 234.398,259.437 235.43,259.77C237.464,260.444 239.144,261.908 240.09,263.83C240.536,264.767 240.769,265.792 240.77,266.83L240.77,267.58C240.77,267.8 240.72,267.98 240.69,268.18C240.62,268.58 240.56,268.97 240.48,269.36C240.178,270.968 239.729,272.544 239.14,274.07C238.551,272.544 238.102,270.968 237.8,269.36C237.72,268.97 237.66,268.58 237.59,268.18C237.59,267.99 237.53,267.78 237.49,267.61L237.38,267.18C237.229,266.653 236.989,266.156 236.67,265.71C235.834,264.389 234.283,263.69 232.74,263.94C232.267,264.026 231.811,264.188 231.39,264.42C228.73,265.98 225.95,267.55 223.19,269.02C220.43,270.49 217.62,271.92 214.75,273.22L209,275.78L212,270.5C213.293,267.833 214.627,265.167 216,262.5L218,258.5L218.52,257.5L218.78,257.01L218.93,256.67C219.456,255.392 219.232,253.923 218.35,252.86C218.073,252.516 217.734,252.228 217.35,252.01C217.252,251.95 217.148,251.9 217.04,251.86C216.93,251.86 216.87,251.78 216.66,251.71L215.61,251.33L211.44,249.77L210.44,249.38C210.204,249.294 209.964,249.22 209.72,249.16C209.263,249.08 208.797,249.08 208.34,249.16C207.395,249.307 206.538,249.803 205.94,250.55C205.82,250.69 205.6,251.02 205.39,251.34L204.76,252.26L203.52,254.1C201.853,256.56 200.15,258.997 198.41,261.41C194.91,266.28 191.3,271 187.32,275.52Z" style="fill:rgb(201,131,64);fill-rule:nonzero;"/>
                            <path d="M92.68,274.05C89.985,269.785 87.902,265.163 86.49,260.32L86.2,259.43C86.067,259.026 85.97,258.611 85.91,258.19C85.78,257.299 85.831,256.391 86.06,255.52C86.523,253.745 87.666,252.222 89.24,251.28C89.631,251.043 90.047,250.848 90.48,250.7L91.1,250.5L91.55,250.38L93.36,249.92L97,249L98.81,248.54C99.61,248.295 100.443,248.174 101.28,248.18C104.17,248.261 106.743,250.075 107.79,252.77L108.46,254.52L109.76,258.01C111.5,262.67 113.18,267.36 114.76,272.1L110.94,272.37C111.65,268.15 112.51,263.96 113.43,259.79C113.66,258.79 113.89,257.7 114.14,256.66L114.32,255.88C114.413,255.495 114.533,255.117 114.68,254.75C114.991,254.018 115.42,253.343 115.95,252.75C117.024,251.533 118.488,250.727 120.09,250.47C120.487,250.407 120.888,250.373 121.29,250.37L122.38,250.37L123.17,250.48C123.552,250.53 123.93,250.611 124.3,250.72C125.835,251.164 127.173,252.121 128.09,253.43C128.539,254.076 128.877,254.793 129.09,255.55C129.267,256.232 129.355,256.935 129.35,257.64C129.4,259.78 129.49,261.92 129.48,264.06C129.533,268.39 129.134,272.713 128.29,276.96C126.973,272.835 126.082,268.586 125.63,264.28C125.39,262.15 125.23,260.02 125.03,257.89C125.024,257.526 124.964,257.166 124.85,256.82C124.556,256.02 123.886,255.413 123.06,255.2C122.916,255.162 122.769,255.139 122.62,255.13L121.82,255.04L121.32,255.04C121.185,255.041 121.051,255.058 120.92,255.09C120.395,255.197 119.921,255.475 119.57,255.88C119.398,256.076 119.259,256.299 119.16,256.54C119.108,256.67 119.064,256.804 119.03,256.94L118.86,257.72C118.62,258.72 118.37,259.8 118.12,260.83C117.12,264.99 116.05,269.13 114.85,273.24L113.26,278.64L111,273.52C109,268.96 107.11,264.35 105.3,259.72L103.94,256.25L103.27,254.51C103.163,254.224 103,253.962 102.79,253.74C102.366,253.287 101.78,253.021 101.16,253C100.146,253.116 99.143,253.313 98.16,253.59L94.52,254.42L92.7,254.83L91.98,255C91.821,255.04 91.667,255.097 91.52,255.17C90.914,255.483 90.454,256.022 90.24,256.67C90.135,256.992 90.091,257.331 90.11,257.67C90.1,257.76 90.1,257.85 90.11,257.94C90.122,258.048 90.142,258.155 90.17,258.26L90.41,259.16C91.853,263.994 92.617,269.005 92.68,274.05Z" style="fill:rgb(201,131,64);fill-rule:nonzero;"/>
                            <g transform="matrix(0.610007,-0.792396,0.792396,0.610007,-23.48,107.48)">
                                <ellipse cx="97.45" cy="77.59" rx="16.41" ry="8.72" style="fill:rgb(176,127,112);"/>
                            </g>
                            <g transform="matrix(0.610007,-0.792396,0.792396,0.610007,-11.28,136.63)">
                                <ellipse cx="133.17" cy="79.78" rx="12.02" ry="6.38" style="fill:rgb(176,127,112);"/>
                            </g>
                            <g transform="matrix(0.610007,-0.792396,0.792396,0.610007,-41.49,125.09)">
                                <ellipse cx="106.34" cy="104.7" rx="12.02" ry="6.38" style="fill:rgb(176,127,112);"/>
                            </g>
                            <g transform="matrix(0.610007,-0.792396,0.792396,0.610007,-29.84,153.28)">
                                <ellipse cx="140.8" cy="106.96" rx="8" ry="4.25" style="fill:rgb(176,127,112);"/>
                            </g>
                            <g transform="matrix(0.610007,-0.792396,0.792396,0.610007,-0.81,164.31)">
                                <ellipse cx="166.52" cy="82.97" rx="12.02" ry="6.38" style="fill:rgb(176,127,112);"/>
                            </g>
                            <g transform="matrix(0.610007,-0.792396,0.792396,0.610007,-54.93,107.41)">
                                <ellipse cx="81.65" cy="109.51" rx="8" ry="4.25" style="fill:rgb(176,127,112);"/>
                            </g>
                            <g transform="matrix(0.610007,-0.792396,0.792396,0.610007,15.97,149.19)">
                                <ellipse cx="159.56" cy="58.37" rx="8" ry="4.25" style="fill:rgb(176,127,112);"/>
                            </g>
                            <g transform="matrix(0.610007,-0.792396,0.792396,0.610007,9.19,123.62)">
                                <ellipse cx="130.18" cy="52.47" rx="8" ry="4.25" style="fill:rgb(176,127,112);"/>
                            </g>
                        </g>
                    </g>
                </g>
            </g>
            <g id="shadow5" serif:id="shadow" transform="matrix(1.56363,-0.239567,0.234343,1.52953,537.372,1126.88)">
                <path d="M300,308.62C300,328.577 283.577,345 263.62,345L36.38,345C16.423,345 0,328.577 0,308.62L0,81.38C0,61.301 16.301,45 36.38,45L263.62,45C283.699,45 300,61.301 300,81.38L300,308.62Z" style="fill:rgb(22,53,0);fill-opacity:0.25;fill-rule:nonzero;"/>
            </g>
            <g transform="matrix(1.39712,-0.213206,0.213206,1.39712,576.295,1138.79)">
                <g id="blook_dino_fossils.svg">
                    <g>
                        <g>
                            <g id="dinosaur1" serif:id="dinosaur">
                                <path d="M263.62,345L36.38,345C16.423,345 0,328.577 0,308.62L0,259.14L300,259.14L300,308.62C300,328.577 283.577,345 263.62,345Z" style="fill:url(#_Linear4);fill-rule:nonzero;"/>
                                <path d="M237.36,317.52C209.88,314.8 213.21,304.69 180.6,306.05C147.99,307.41 143.17,323.71 120.07,323C96.97,322.29 94,311.48 70,310.45C46,309.42 35,315.45 17.77,309.22C10.534,306.78 4.291,302.037 0,295.72L0,305.72C4.281,312.03 10.508,316.772 17.73,319.22C34.94,325.41 45.96,319.41 69.96,320.45C93.96,321.49 96.96,332.2 120.07,332.96C143.18,333.72 148,317.37 180.6,316C213.2,314.63 209.88,324.76 237.36,327.47C260.68,329.78 286.6,325.33 300,308.98L300,299C286.6,315.38 260.68,319.83 237.36,317.52Z" style="fill:url(#_Linear5);fill-rule:nonzero;"/>
                                <path d="M204.64,331.67C204.64,335.3 197.8,337.45 193.54,337.45C189.28,337.45 185.85,336.54 185.85,331.67C185.85,326.8 189.29,325.9 193.54,325.9C197.79,325.9 204.64,328.05 204.64,331.67Z" style="fill:rgb(166,86,65);fill-rule:nonzero;"/>
                                <circle cx="177.58" cy="326.24" r="5.43" style="fill:rgb(166,86,65);"/>
                                <path d="M129.62,312.29C129.62,315.01 123.76,317.49 120.89,317.49C118.02,317.49 113.33,316.3 113.33,312.29C113.33,308.28 118.02,307.09 120.89,307.09C123.76,307.09 129.62,309.57 129.62,312.29Z" style="fill:rgb(166,86,65);fill-rule:nonzero;"/>
                                <path d="M61.51,332.33C60.91,330.14 65.11,326.86 67.43,326.24C69.75,325.62 73.79,325.55 74.66,328.79C75.53,332.03 72.01,334 69.66,334.63C67.31,335.26 62.1,334.53 61.51,332.33Z" style="fill:rgb(166,86,65);fill-rule:nonzero;"/>
                                <path d="M137.12,305.49C137.94,307.12 137.78,310.05 136.12,310.88C134.46,311.71 132.02,310.08 131.2,308.46C130.964,307.995 130.841,307.481 130.841,306.96C130.841,305.144 132.334,303.651 134.15,303.651C135.394,303.651 136.536,304.351 137.1,305.46L137.12,305.49Z" style="fill:rgb(166,86,65);fill-rule:nonzero;"/>
                                <path d="M300,81.38C300,61.301 283.699,45 263.62,45L36.38,45C16.301,45 0,61.301 0,81.38L0,262.01C0,282.089 16.301,298.39 36.38,298.39L263.62,298.39C283.699,298.39 300,282.089 300,262.01L300,81.38Z" style="fill:rgb(214,155,90);"/>
                                <path d="M15,149.47C18,151.52 23.62,147.08 26,143.58C28.38,140.08 29.59,136.71 25.58,133.96C21.57,131.21 18.87,133.55 16.46,137.06C14.05,140.57 12,147.43 15,149.47Z" style="fill:rgb(211,140,43);fill-rule:nonzero;"/>
                                <path d="M241.34,88.16C242.34,92.53 251.13,93.32 256.26,92.16C261.39,91 265.26,89.04 264.02,83.16C262.78,77.28 258.33,77.16 253.2,78.23C248.07,79.3 240.39,83.79 241.34,88.16Z" style="fill:rgb(211,140,43);fill-rule:nonzero;"/>
                                <path d="M43.44,78.71C44.44,83.08 53.22,83.87 58.35,82.71C63.48,81.55 67.4,79.58 66.11,73.71C64.82,67.84 60.43,67.65 55.3,68.77C50.17,69.89 42.48,74.34 43.44,78.71Z" style="fill:rgb(211,140,43);fill-rule:nonzero;"/>
                                <path d="M216.47,276C217.42,280.37 226.25,281.16 231.38,280C236.51,278.84 240.43,276.88 239.14,271C237.85,265.12 233.46,264.95 228.33,266.07C223.2,267.19 215.51,271.59 216.47,276Z" style="fill:rgb(211,140,43);fill-rule:nonzero;"/>
                                <circle cx="23.93" cy="96.14" r="5.43" style="fill:rgb(211,140,43);"/>
                                <circle cx="166.39" cy="66.03" r="3.75" style="fill:rgb(211,140,43);"/>
                                <circle cx="219.74" cy="86.96" r="3.75" style="fill:rgb(211,140,43);"/>
                                <circle cx="246.8" cy="123.47" r="3.75" style="fill:rgb(211,140,43);"/>
                                <path d="M219.74,161.5C219.74,164.22 225.61,166.7 228.48,166.7C231.35,166.7 236.03,165.52 236.03,161.5C236.03,157.48 231.35,156.31 228.48,156.31C225.61,156.31 219.74,158.79 219.74,161.5Z" style="fill:rgb(211,140,43);fill-rule:nonzero;"/>
                                <path d="M127.24,273C127.24,275.71 133.11,278.19 135.97,278.19C138.83,278.19 143.53,277.01 143.53,273C143.53,268.99 138.84,267.8 135.97,267.8C133.1,267.8 127.24,270.27 127.24,273Z" style="fill:rgb(211,140,43);fill-rule:nonzero;"/>
                                <path d="M46.71,282.49C46.71,285.21 52.58,287.69 55.45,287.69C58.32,287.69 63.01,286.51 63.01,282.49C63.01,278.47 58.32,277.29 55.45,277.29C52.58,277.29 46.71,279.77 46.71,282.49Z" style="fill:rgb(211,140,43);fill-rule:nonzero;"/>
                                <path d="M292.47,161.42C293.06,159.22 288.86,155.95 286.54,155.32C284.22,154.69 280.19,154.63 279.31,157.87C278.43,161.11 281.97,163.09 284.31,163.71C286.65,164.33 291.88,163.61 292.47,161.42Z" style="fill:rgb(211,140,43);fill-rule:nonzero;"/>
                                <path d="M187.89,78.13C185.61,75.95 178.89,78.88 176.54,81.28C174.19,83.68 171.48,88.56 174.84,91.77C178.2,94.98 182.94,92.01 185.24,89.61C187.54,87.21 190.16,80.3 187.89,78.13Z" style="fill:rgb(211,140,43);fill-rule:nonzero;"/>
                                <path d="M109.52,99.38C107.25,97.21 100.52,100.13 98.17,102.54C95.82,104.95 93.11,109.81 96.47,113.03C99.83,116.25 104.58,113.26 106.88,110.86C109.18,108.46 111.8,101.56 109.52,99.38Z" style="fill:rgb(211,140,43);fill-rule:nonzero;"/>
                                <path d="M215.64,151.59C214.82,153.22 214.98,156.15 216.64,156.98C218.3,157.81 220.74,156.19 221.56,154.56C221.796,154.095 221.919,153.581 221.919,153.06C221.919,151.244 220.426,149.751 218.61,149.751C217.366,149.751 216.224,150.451 215.66,151.56L215.64,151.59Z" style="fill:rgb(211,140,43);fill-rule:nonzero;"/>
                                <path d="M266.39,254.67C266.39,257.38 272.26,259.86 275.13,259.86C278,259.86 282.68,258.68 282.68,254.67C282.68,250.66 278,249.47 275.13,249.47C272.26,249.47 266.39,252 266.39,254.67Z" style="fill:rgb(211,140,43);fill-rule:nonzero;"/>
                                <path d="M262.29,244.75C261.47,246.38 261.63,249.32 263.29,250.15C264.95,250.98 267.39,249.35 268.21,247.72C268.446,247.255 268.569,246.741 268.569,246.22C268.569,244.404 267.076,242.911 265.26,242.911C264.016,242.911 262.874,243.611 262.31,244.72L262.29,244.75Z" style="fill:rgb(211,140,43);fill-rule:nonzero;"/>
                                <path d="M162.88,282.65C162.06,284.28 162.22,287.22 163.88,288.04C165.54,288.86 167.98,287.25 168.8,285.62C169.036,285.155 169.159,284.641 169.159,284.12C169.159,282.304 167.666,280.811 165.85,280.811C164.606,280.811 163.464,281.511 162.9,282.62L162.88,282.65Z" style="fill:rgb(211,140,43);fill-rule:nonzero;"/>
                                <path d="M22,199.4C19.3,197.55 14.2,201.56 12,204.74C9.8,207.92 8.75,210.95 12.38,213.43C16.01,215.91 18.45,213.81 20.63,210.64C22.81,207.47 24.74,201.25 22,199.4Z" style="fill:rgb(211,140,43);fill-rule:nonzero;"/>
                                <path d="M253.38,59.59C252.52,55.59 244.53,54.92 239.89,55.94C235.25,56.96 231.71,58.77 232.89,64.08C234.07,69.39 238.03,69.56 242.67,68.54C247.31,67.52 254.25,63.54 253.38,59.59Z" style="fill:rgb(229,171,112);fill-rule:nonzero;"/>
                                <path d="M49.39,149.09C48.52,145.09 40.54,144.42 35.9,145.44C31.26,146.46 27.71,148.27 28.9,153.58C30.09,158.89 34,159.06 38.66,158C43.32,156.94 50.25,153 49.39,149.09Z" style="fill:rgb(229,171,112);fill-rule:nonzero;"/>
                                <path d="M20.5,228.6C22.9,231.86 30.5,229.25 34.3,226.43C38.1,223.61 40.62,220.5 37.39,216.13C34.16,211.76 30.46,213.22 26.64,216.05C22.82,218.88 18.09,225.34 20.5,228.6Z" style="fill:rgb(229,171,112);fill-rule:nonzero;"/>
                                <path d="M282.58,278C281.71,274.05 273.73,273.33 269.08,274.35C264.43,275.37 260.9,277.18 262.08,282.49C263.26,287.8 267.22,287.97 271.87,286.95C276.52,285.93 283.44,282 282.58,278Z" style="fill:rgb(229,171,112);fill-rule:nonzero;"/>
                                <circle cx="13.91" cy="247.65" r="4.92" style="fill:rgb(229,171,112);"/>
                                <circle cx="209.98" cy="287.74" r="3.39" style="fill:rgb(229,171,112);"/>
                                <circle cx="161.71" cy="268.8" r="3.39" style="fill:rgb(229,171,112);"/>
                                <circle cx="195.24" cy="137.57" r="3.39" style="fill:rgb(229,171,112);"/>
                                <path d="M213.16,113C213.16,109.94 206.53,107.14 203.29,107.14C200.05,107.14 194.76,108.47 194.76,113C194.76,117.53 200.05,118.87 203.29,118.87C206.53,118.87 213.16,116.1 213.16,113Z" style="fill:rgb(229,171,112);fill-rule:nonzero;"/>
                                <path d="M288.46,119.62C288.46,117.17 283.15,114.92 280.55,114.92C277.95,114.92 273.71,115.99 273.71,119.62C273.71,123.25 277.96,124.33 280.55,124.33C283.14,124.33 288.46,122.08 288.46,119.62Z" style="fill:rgb(229,171,112);fill-rule:nonzero;"/>
                                <path d="M269.55,169C269.55,166.54 264.24,164.3 261.65,164.3C259.06,164.3 254.81,165.37 254.81,169C254.81,172.63 259.05,173.7 261.65,173.7C264.25,173.7 269.55,171.44 269.55,169Z" style="fill:rgb(229,171,112);fill-rule:nonzero;"/>
                                <path d="M119.53,67C119.53,64.54 114.22,62.3 111.62,62.3C109.02,62.3 104.78,63.37 104.78,67C104.78,70.63 109.03,71.7 111.62,71.7C114.21,71.7 119.53,69.44 119.53,67Z" style="fill:rgb(229,171,112);fill-rule:nonzero;"/>
                                <path d="M39.4,73C39.4,70.55 34.1,68.3 31.5,68.3C28.9,68.3 24.66,69.37 24.66,73C24.66,76.63 28.9,77.7 31.5,77.7C34.1,77.7 39.4,75.43 39.4,73Z" style="fill:rgb(229,171,112);fill-rule:nonzero;"/>
                                <path d="M166.16,113.8C165.63,115.8 169.43,118.8 171.52,119.32C173.61,119.84 177.27,119.94 178.06,117.01C178.85,114.08 175.66,112.29 173.57,111.73C171.48,111.17 166.7,111.82 166.16,113.8Z" style="fill:rgb(229,171,112);fill-rule:nonzero;"/>
                                <path d="M249,156.23C251.06,158.23 257.19,155.55 259.27,153.38C261.35,151.21 263.85,146.8 260.81,143.89C257.77,140.98 253.47,143.67 251.39,145.89C249.31,148.11 246.9,154.27 249,156.23Z" style="fill:rgb(229,171,112);fill-rule:nonzero;"/>
                                <path d="M181.81,284.65C183.87,286.65 190,283.97 192.08,281.79C194.16,279.61 196.66,275.21 193.62,272.3C190.58,269.39 186.28,272.09 184.2,274.3C182.12,276.51 179.75,282.68 181.81,284.65Z" style="fill:rgb(229,171,112);fill-rule:nonzero;"/>
                                <path d="M217.79,124.22C218.71,122.38 218.53,119.07 216.67,118.14C214.81,117.21 212.05,119.03 211.13,120.87C210.828,121.42 210.669,122.038 210.669,122.666C210.669,124.712 212.353,126.396 214.399,126.396C215.855,126.396 217.183,125.544 217.79,124.22Z" style="fill:rgb(229,171,112);fill-rule:nonzero;"/>
                                <path d="M256.21,104.88C256.95,103.4 256.81,100.75 255.32,100C253.83,99.25 251.61,100.72 250.87,102.19C250.581,102.662 250.428,103.204 250.428,103.758C250.428,105.403 251.782,106.758 253.428,106.758C254.649,106.758 255.753,106.012 256.21,104.88Z" style="fill:rgb(229,171,112);fill-rule:nonzero;"/>
                                <path d="M281.63,228.73C281.63,228.73 275.19,243.89 271.57,244.73C267.95,245.57 270.9,230.59 270.9,230.59C270.9,230.59 262.52,248.84 259.6,247.86C256.68,246.88 256.28,229.36 256.28,229.36C256.28,229.36 250.09,243.96 246.28,243.47C242.47,242.98 242.42,228.06 242.42,228.06C242.42,228.06 237.16,240.45 233.87,240.06C230.58,239.67 232,227 232,227C232,227 226.56,238.81 224.25,238.65C221.94,238.49 220.56,222.65 220.56,222.65C220.56,222.65 220.23,234.5 217.1,234.28C213.97,234.06 212.29,221.76 212.29,221.76C212.29,221.76 212.52,232.6 208.04,232.38C203.56,232.16 204.24,221.31 204.24,221.31C204.24,221.31 202,233.05 198.54,232.49C195.08,231.93 196.19,218.49 196.19,218.49C196.19,218.49 191.27,230.79 187.36,230.23C183.45,229.67 184.36,216.61 184.36,216.61C184.36,216.61 181.75,228.87 178.17,229.34C174.59,229.81 174.24,215.81 174.24,215.81C174.24,215.81 173.18,227.21 168.93,227.1C164.68,226.99 164.11,215 164.11,215" style="fill:rgb(133,77,37);fill-rule:nonzero;"/>
                                <path d="M259.56,261.23C259.56,261.23 260.03,254.36 257.79,253.78C255.55,253.2 249.91,258.42 249.91,258.42C249.91,258.42 251.98,251.7 248.82,250.69C245.66,249.68 239.82,255.53 239.82,255.53C239.82,255.53 244.48,244.96 240.82,243.79C237.16,242.62 226.42,251.79 226.42,251.79C226.42,251.79 230.04,242.35 227.34,240.85C224.64,239.35 212.26,247.92 212.26,247.92C212.26,247.92 216.04,237.42 212.33,237.57C208.62,237.72 203.14,245.57 203.14,245.57C203.14,245.57 203.75,236.12 200.4,235.11C197.05,234.1 192.33,244.11 192.33,244.11C192.33,244.11 194.03,233.48 191.33,232.81C188.63,232.14 184.18,241.53 184.18,241.53C184.18,241.53 185.07,233.19 181.83,232.78C178.59,232.37 172.55,238.18 172.55,238.18C172.55,238.18 175.55,230.35 171.65,229.01C167.75,227.67 162.04,234.71 162.04,234.71C162.04,234.71 164.95,228.18 161.59,226.08C158.23,223.98 153.21,232.59 153.21,232.59" style="fill:rgb(133,77,37);fill-rule:nonzero;"/>
                                <path d="M279.46,231.18C279.72,231.196 279.98,231.204 280.241,231.204C286.923,231.204 292.517,225.921 292.9,219.25C293.49,208.57 291.57,193.61 278.16,186.34C256,174.34 239.44,180.43 221.9,169.09C218.52,166.91 201.22,155.37 182.37,140.95C171.76,132.83 163.44,121.61 150,116C136.26,110.26 111.83,107.09 100.84,108.83C13.62,122.67 21.54,215.98 76.84,233.83C99.71,241.21 136.39,249.52 176.16,258.29C223.44,268.71 241.99,275.29 252.51,274.35C256.71,273.96 260.73,273.92 263,270.35C263.688,269.25 264.053,267.978 264.053,266.68C264.053,263.564 261.948,260.814 258.94,260C231.68,252.91 143.55,229.68 144.57,226C147.29,216.12 164.82,220.16 175.95,221.31C207.66,224.52 256.58,229.81 279.46,231.18Z" style="fill:rgb(164,103,53);fill-rule:nonzero;"/>
                                <path d="M176,221.25C171.64,220.8 166.3,219.91 161.25,219.58C164.84,210.96 181.54,214.76 192.25,215.87C221.85,218.87 266.44,223.73 290.85,225.47C288.354,229.267 284.006,231.448 279.47,231.18C256.58,229.81 207.66,224.52 176,221.25Z" style="fill:rgb(150,88,41);fill-rule:nonzero;"/>
                                <path d="M92,110.6C32.25,136.72 43.91,212.6 93.21,228.47C116.08,235.85 152.75,244.15 192.53,252.93C232.99,261.85 252.41,267.93 263.76,268.93C263.589,269.428 263.361,269.904 263.08,270.35C260.81,273.94 256.79,273.98 252.59,274.35C242.07,275.35 223.52,268.71 176.24,258.29C136.47,249.52 99.79,241.21 76.92,233.83C23.5,216.62 14.26,129.19 92,110.6Z" style="fill:rgb(150,88,41);fill-rule:nonzero;"/>
                                <path d="M164,103.91C178.64,94.29 160.5,75.28 150.27,66.17C146.698,63.001 141.39,62.658 137.44,65.34C128.85,71.16 115.39,81.76 118.18,89.45C124.76,107.69 155.6,109.4 164,103.91Z" style="fill:rgb(164,103,53);fill-rule:nonzero;"/>
                                <path d="M55.05,71.69C56.227,67.095 60.401,63.856 65.144,63.856C66.079,63.856 67.009,63.982 67.91,64.23C79.91,67.56 98.61,74.42 99.91,85C101.91,100.67 66.55,113.76 55.91,106.1C48.9,101 52.11,83.11 55.05,71.69Z" style="fill:rgb(164,103,53);fill-rule:nonzero;"/>
                                <path d="M164,96.47C166.251,95.118 167.981,93.046 168.91,90.59C170.31,95.65 169.34,100.41 164,103.91C155.64,109.4 124.8,107.69 118.18,89.45C117.567,87.433 117.776,85.254 118.76,83.39C126.37,100.33 155.82,101.82 164,96.47Z" style="fill:rgb(150,88,41);fill-rule:nonzero;"/>
                                <path d="M47.68,121.74C50.77,106.55 18.47,111.14 18.47,111.14C18.47,111.14 12.59,133.14 19.66,136.43C31.26,141.8 46.37,128.19 47.68,121.74Z" style="fill:rgb(164,103,53);fill-rule:nonzero;"/>
                                <path d="M41,118.5C41.688,115.995 40.95,113.304 39.08,111.5C44.67,112.85 48.91,115.75 47.7,121.71C46.39,128.16 31.28,141.77 19.7,136.4C18.802,135.953 18.07,135.231 17.61,134.34C28.21,135.18 39.83,124.13 41,118.5Z" style="fill:rgb(150,88,41);fill-rule:nonzero;"/>
                                <path d="M24.08,160.33C20.63,155.82 15.7,158.33 11.53,162.16C8.886,164.564 7.377,167.976 7.377,171.549C7.377,175.239 8.986,178.751 11.78,181.16C14.16,183.16 16.62,184.42 18.54,183.56C27.35,179.64 27.1,164.28 24.08,160.33Z" style="fill:rgb(164,103,53);fill-rule:nonzero;"/>
                                <path d="M18.91,162.54C17.827,160.918 15.943,160.009 14,160.17C17.54,157.65 21.3,156.68 24.09,160.33C27.09,164.28 27.36,179.64 18.55,183.58C17.851,183.872 17.076,183.932 16.34,183.75C22.07,178.09 21.54,166 18.91,162.54Z" style="fill:rgb(150,88,41);fill-rule:nonzero;"/>
                                <path d="M56,98.66C65.46,105.49 94.5,95.84 99.35,82.58C99.66,83.359 99.878,84.171 100,85C102,100.67 66.64,113.76 56,106.1C52.13,103.31 51.35,96.68 51.91,89.38C52.28,93.49 53.49,96.87 56,98.66Z" style="fill:rgb(150,88,41);fill-rule:nonzero;"/>
                                <path d="M39.34,216.72C34.09,215.82 29.12,227.29 29.12,231.06C29.12,249.14 51.42,255.56 55.05,254.25C58.68,252.94 67.71,244 67.71,239.06C67.71,234.12 59.33,234.38 52.28,228.93C46,224.05 44.6,217.63 39.34,216.72Z" style="fill:rgb(164,103,53);fill-rule:nonzero;"/>
                                <path d="M24,240.86C19.26,240.04 14.78,250.39 14.78,253.79C14.78,270.1 34.9,275.89 38.18,274.71C41.46,273.53 49.57,265.42 49.57,261C49.57,256.58 42.01,256.78 35.65,251.86C30,247.46 28.72,241.67 24,240.86Z" style="fill:rgb(164,103,53);fill-rule:nonzero;"/>
                                <path d="M32.51,221.74C32.501,221.9 32.501,222.06 32.51,222.22C32.51,242.51 57.51,249.71 61.61,248.22C62.216,247.991 62.793,247.692 63.33,247.33C60.51,250.63 57.03,253.53 55.08,254.23C51.45,255.54 29.15,249.12 29.15,231.04C29.12,229.09 30.47,225 32.51,221.74Z" style="fill:rgb(150,88,41);fill-rule:nonzero;"/>
                                <path d="M16.38,248.08C16.68,266.08 38.97,272.51 42.62,271.2C42.873,271.105 43.12,270.995 43.36,270.87C41.867,272.447 40.106,273.747 38.16,274.71C34.88,275.89 14.76,270.1 14.76,253.79C14.949,251.804 15.498,249.869 16.38,248.08Z" style="fill:rgb(150,88,41);fill-rule:nonzero;"/>
                                <path d="M70.46,258.45C70.46,262.35 73.88,265.51 78.1,265.51C82.32,265.51 86.02,262.11 86.02,258.45C86.02,254.79 82.33,251.45 78.1,251.45C73.87,251.45 70.46,254.56 70.46,258.45Z" style="fill:rgb(164,103,53);fill-rule:nonzero;"/>
                                <path d="M69.62,272.37C69.734,275.107 72.017,277.296 74.756,277.296C74.837,277.296 74.919,277.294 75,277.29C78,277.29 79.3,274.92 79.3,272.37C79.3,269.82 77.95,267.45 75,267.45C74.919,267.446 74.837,267.444 74.756,267.444C72.017,267.444 69.734,269.633 69.62,272.37Z" style="fill:rgb(164,103,53);fill-rule:nonzero;"/>
                                <path d="M61.81,262.07C59.997,264.22 60.267,267.479 62.41,269.3C64.57,271.3 67.18,270.46 68.9,268.59C70.62,266.72 71.24,264.05 69.07,262.05C67.072,260.068 63.797,260.077 61.81,262.07Z" style="fill:rgb(164,103,53);fill-rule:nonzero;"/>
                                <path d="M89.85,258.62C89.85,264.14 94.27,264.13 98.49,264.13C102.71,264.13 122.64,264.52 122.64,258.62C122.64,252.72 102.71,253.11 98.49,253.11C94.27,253.11 89.85,253.1 89.85,258.62Z" style="fill:rgb(164,103,53);fill-rule:nonzero;"/>
                                <path d="M83.34,270.52C82.09,275.89 86.4,276.89 90.51,277.84C94.62,278.79 113.95,283.68 115.28,277.94C116.61,272.2 97.12,268.06 93,267.1C88.88,266.14 84.59,265.14 83.34,270.52Z" style="fill:rgb(164,103,53);fill-rule:nonzero;"/>
                                <path d="M263.89,214.68C267.82,217.57 272.94,217.29 275.34,214.04C277.74,210.79 276.5,205.8 272.58,202.91C268.66,200.02 261.41,197.34 258.34,201.49C255.27,205.64 260,211.78 263.89,214.68Z" style="fill:rgb(133,77,37);fill-rule:nonzero;"/>
                                <path d="M94.91,176.74C94.91,199.32 110.3,206.18 126.53,206.18C142.76,206.18 170.76,203.71 173.97,185.67C177.18,167.63 150.75,145.89 126.53,147.38C110.33,148.37 94.91,154.16 94.91,176.74Z" style="fill:rgb(133,77,37);fill-rule:nonzero;"/>
                                <path d="M272.58,208.17C268.65,205.27 261.41,202.6 258.34,206.75C258.202,206.953 258.076,207.163 257.96,207.38C257.15,205.38 257.06,203.24 258.34,201.49C261.41,197.34 268.65,200.01 272.58,202.91C276.01,205.45 277.39,209.58 276.07,212.75C275.381,210.914 274.167,209.321 272.58,208.17Z" style="fill:rgb(117,62,26);fill-rule:nonzero;"/>
                                <path d="M173.46,187.72C169.12,172.02 147.03,156.63 126.53,157.88C111.66,158.79 97.47,163.76 95.23,182.01C95.013,180.262 94.906,178.502 94.91,176.74C94.91,154.16 110.33,148.37 126.53,147.38C150.75,145.89 177.18,167.63 173.97,185.67C173.844,186.363 173.673,187.048 173.46,187.72Z" style="fill:rgb(117,62,26);fill-rule:nonzero;"/>
                            </g>
                        </g>
                    </g>
                </g>
            </g>
        </g>
    </g>
    <defs>
        <linearGradient id="_Linear1" x1="0" y1="0" x2="1" y2="0" gradientUnits="userSpaceOnUse" gradientTransform="matrix(6.8154e-14,-1113.04,1113.04,6.8154e-14,1000,1646.53)"><stop offset="0" style="stop-color:rgb(222,239,167);stop-opacity:0.17"/><stop offset="1" style="stop-color:rgb(95,96,96);stop-opacity:0.17"/></linearGradient>
        <linearGradient id="_Linear2" x1="0" y1="0" x2="1" y2="0" gradientUnits="userSpaceOnUse" gradientTransform="matrix(6.6085e-14,-1079.25,1079.25,6.6085e-14,1540.63,1626.46)"><stop offset="0" style="stop-color:rgb(245,255,211);stop-opacity:0.25"/><stop offset="0.56" style="stop-color:rgb(223,226,213);stop-opacity:0.25"/><stop offset="1" style="stop-color:rgb(214,214,214);stop-opacity:0.25"/></linearGradient>
        <linearGradient id="_Linear3" x1="0" y1="0" x2="1" y2="0" gradientUnits="userSpaceOnUse" gradientTransform="matrix(1.19372e-14,-194.95,194.95,1.19372e-14,150,356.11)"><stop offset="0" style="stop-color:rgb(220,163,94);stop-opacity:1"/><stop offset="1" style="stop-color:rgb(138,87,52);stop-opacity:1"/></linearGradient>
        <linearGradient id="_Linear4" x1="0" y1="0" x2="1" y2="0" gradientUnits="userSpaceOnUse" gradientTransform="matrix(1.19372e-14,-194.95,194.95,1.19372e-14,150,356.11)"><stop offset="0" style="stop-color:rgb(214,155,90);stop-opacity:1"/><stop offset="0.5" style="stop-color:rgb(149,76,51);stop-opacity:1"/><stop offset="1" style="stop-color:rgb(149,76,51);stop-opacity:1"/></linearGradient>
        <linearGradient id="_Linear5" x1="0" y1="0" x2="1" y2="0" gradientUnits="userSpaceOnUse" gradientTransform="matrix(6.85986e-15,-112.03,112.03,6.85986e-15,150,354.19)"><stop offset="0" style="stop-color:rgb(234,136,68);stop-opacity:1"/><stop offset="0.06" style="stop-color:rgb(234,136,68);stop-opacity:1"/><stop offset="0.52" style="stop-color:rgb(143,52,41);stop-opacity:1"/><stop offset="1" style="stop-color:rgb(143,52,41);stop-opacity:1"/></linearGradient>
    </defs>
</svg>
