<?xml version="1.0" encoding="UTF-8" standalone="no"?>
<!DOCTYPE svg PUBLIC "-//W3C//DTD SVG 1.1//EN" "http://www.w3.org/Graphics/SVG/1.1/DTD/svg11.dtd">
<svg width="100%" height="100%" viewBox="0 0 250 267" version="1.1" xmlns="http://www.w3.org/2000/svg" xmlns:xlink="http://www.w3.org/1999/xlink" xml:space="preserve" xmlns:serif="http://www.serif.com/" style="fill-rule:evenodd;clip-rule:evenodd;stroke-linecap:round;stroke-linejoin:round;">
    <g id="Mini_fall_store" transform="matrix(0.0795473,0,0,0.0795473,5.79696e-05,-210.984)">
        <g transform="matrix(1.02206,0,0,1.02206,-80.0076,-101.506)">
            <g transform="matrix(1,0,0,1,0,45.3488)">
                <path d="M2525.28,5513.37L2679.66,5849.89C2723.55,5960.97 2886.83,5939.33 2886.14,5841.57L2881.44,5512.64L2525.28,5513.37ZM2788.55,5801.12C2809.58,5801.12 2826.66,5818.19 2826.66,5839.22C2826.66,5860.25 2809.58,5877.32 2788.55,5877.32C2767.52,5877.32 2750.45,5860.25 2750.45,5839.22C2750.45,5818.19 2767.52,5801.12 2788.55,5801.12Z" style="fill:#845a04;"/>
                <g transform="matrix(0.978413,0,0,0.978413,78.2805,53.9656)">
                    <path d="M2866.56,5688.01L2865.01,5579.11L2500.99,5579.85L2550.61,5688.01L2866.56,5688.01Z" style="fill:#5e3f00;"/>
                </g>
                <path d="M2823.19,5823.32C2825.41,5828.16 2826.66,5833.55 2826.66,5839.22C2826.66,5860.25 2809.58,5877.32 2788.55,5877.32C2767.52,5877.32 2750.45,5860.25 2750.45,5839.22C2750.45,5833.55 2751.69,5828.16 2753.92,5823.32C2759.95,5836.43 2773.2,5845.53 2788.55,5845.53C2803.91,5845.53 2817.16,5836.43 2823.19,5823.32Z" style="fill:#462e01;"/>
            </g>
            <g>
                <rect x="1139.4" y="4837.62" width="1942.05" height="737.561" style="fill:#845a04;"/>
                <path d="M2886.25,4958.78L2682.33,4958.78L2682.33,5490.64L2886.25,5490.64L2886.25,4958.78ZM1339.4,4958.78L1236.17,4958.78L1236.17,5490.64L1339.4,5490.64L1339.4,4958.78ZM2465.03,4958.78L2261.11,4958.78L2261.11,5490.64L2465.03,5490.64L2465.03,4958.78ZM2055.65,4958.78L1851.73,4958.78L1851.73,5490.64L2055.65,5490.64L2055.65,4958.78ZM1681.79,4958.78L1477.87,4958.78L1477.87,5490.64L1681.79,5490.64L1681.79,4958.78Z" style="fill:#493001;"/>
                <path d="M3081.45,4837.62L1139.4,4837.62L1139.4,5575.18L3081.45,5575.18L3081.45,4837.62ZM2948.43,4970.64L2948.43,5442.16L1272.42,5442.16L1272.42,4970.64L2948.43,4970.64Z" style="fill:#d8a03c;"/>
                <path d="M2948.43,4970.64L2948.43,5442.16L1272.42,5442.16L1272.42,4970.64L2948.43,4970.64ZM2929.18,5422.92L1291.66,5422.92L1291.66,4989.88L2929.18,4989.88L2929.18,5422.92Z" style="fill:#2c1d00;"/>
                <g transform="matrix(1,0,0,0.409306,0,2857.55)">
                    <rect x="1139.4" y="4837.62" width="1942.05" height="737.561" style="fill-opacity:0.28;"/>
                </g>
            </g>
            <g transform="matrix(1,0,0,1,0,-30.2069)">
                <g>
                    <g transform="matrix(1,0,0,1.20475,0,-1170.77)">
                        <rect x="1337.08" y="5603.96" width="638.332" height="38.16" style="fill:#00344b;"/>
                    </g>
                    <g transform="matrix(1,0,0,1.24833,0,-1401.12)">
                        <rect x="1337.08" y="5603.96" width="638.332" height="38.16" style="fill:#538ca9;"/>
                    </g>
                </g>
                <g transform="matrix(0.707107,0.707107,-0.707107,0.707107,4452.94,472.39)">
                    <g transform="matrix(1,0,0,1.20475,0,-1170.77)">
                        <rect x="1337.08" y="5603.96" width="638.332" height="38.16" style="fill:#00344b;"/>
                    </g>
                    <g transform="matrix(1,0,0,1.24833,0,-1401.12)">
                        <rect x="1337.08" y="5603.96" width="638.332" height="38.16" style="fill:#538ca9;"/>
                    </g>
                </g>
                <g transform="matrix(-0.707107,0.707107,-0.707107,-0.707107,6795.23,8408.07)">
                    <g transform="matrix(1,0,0,1.20475,0,-1170.77)">
                        <rect x="1337.08" y="5603.96" width="638.332" height="38.16" style="fill:#00344b;"/>
                    </g>
                    <g transform="matrix(1,0,0,1.24833,0,-1401.12)">
                        <rect x="1337.08" y="5603.96" width="638.332" height="38.16" style="fill:#538ca9;"/>
                    </g>
                </g>
                <g transform="matrix(5.80258e-17,-0.947634,1.24833,7.64383e-17,-5356.25,7197.6)">
                    <rect x="1337.08" y="5603.96" width="638.332" height="38.16" style="fill:#538ca9;"/>
                </g>
                <g transform="matrix(1,0,0,1,-0.15014,-49.7944)">
                    <circle cx="1658.54" cy="5644.28" r="90.726" style="fill:#00344b;"/>
                </g>
                <g transform="matrix(1,0,0,1,-0.15014,-12.9918)">
                    <circle cx="1658.54" cy="5644.28" r="90.726" style="fill:#538ca9;"/>
                </g>
                <g transform="matrix(0.5,0,0,0.5,829.121,2809.15)">
                    <circle cx="1658.54" cy="5644.28" r="90.726" style="fill:#175978;"/>
                </g>
                <g transform="matrix(0.5,0,0,0.5,829.121,2809.15)">
                    <path d="M1658.54,5553.55C1708.62,5553.55 1749.27,5594.21 1749.27,5644.28C1749.27,5694.35 1708.62,5735.01 1658.54,5735.01C1608.47,5735.01 1567.82,5694.35 1567.82,5644.28C1567.82,5594.21 1608.47,5553.55 1658.54,5553.55ZM1658.54,5567.6C1700.86,5567.6 1735.22,5601.96 1735.22,5644.28C1735.22,5686.6 1700.86,5720.96 1658.54,5720.96C1616.22,5720.96 1581.86,5686.6 1581.86,5644.28C1581.86,5601.96 1616.22,5567.6 1658.54,5567.6Z" style="fill:#00344b;"/>
                </g>
                <g transform="matrix(1.07917,0,0,1.07917,-164.44,-522.65)">
                    <path d="M1689.11,5336.75C1872.13,5336.75 2020.73,5485.35 2020.73,5668.38C2020.73,5851.4 1872.13,6000 1689.11,6000C1506.08,6000 1357.48,5851.4 1357.48,5668.38C1357.48,5485.35 1506.08,5336.75 1689.11,5336.75ZM1689.11,5385.59C1845.18,5385.59 1971.9,5512.3 1971.9,5668.38C1971.9,5824.45 1845.18,5951.17 1689.11,5951.17C1533.03,5951.17 1406.32,5824.45 1406.32,5668.38C1406.32,5512.3 1533.03,5385.59 1689.11,5385.59Z" style="fill:#00344b;"/>
                </g>
                <g transform="matrix(1.07917,0,0,1.07917,-164.44,-475.014)">
                    <path d="M1689.11,5336.75C1872.13,5336.75 2020.73,5485.35 2020.73,5668.38C2020.73,5851.4 1872.13,6000 1689.11,6000C1506.08,6000 1357.48,5851.4 1357.48,5668.38C1357.48,5485.35 1506.08,5336.75 1689.11,5336.75ZM1689.11,5385.59C1845.18,5385.59 1971.9,5512.3 1971.9,5668.38C1971.9,5824.45 1845.18,5951.17 1689.11,5951.17C1533.03,5951.17 1406.32,5824.45 1406.32,5668.38C1406.32,5512.3 1533.03,5385.59 1689.11,5385.59Z" style="fill:#175978;"/>
                </g>
            </g>
            <g>
                <path d="M3153.23,4644.39C3153.23,4610.48 3125.69,4582.94 3091.77,4582.94L1131.84,4582.94C1097.92,4582.94 1070.38,4610.48 1070.38,4644.39L1070.38,4820.17C1070.38,4854.09 1097.92,4881.62 1131.84,4881.62L3091.77,4881.62C3125.69,4881.62 3153.23,4854.09 3153.23,4820.17L3153.23,4644.39Z" style="fill:#175777;"/>
                <g transform="matrix(1,0,0,0.937699,0,200.939)">
                    <path d="M3153.23,4644.39C3153.23,4610.48 3127.41,4582.94 3095.6,4582.94L1128.01,4582.94C1096.2,4582.94 1070.38,4610.48 1070.38,4644.39L1070.38,4820.17C1070.38,4854.09 1096.2,4881.62 1128.01,4881.62L3095.6,4881.62C3127.41,4881.62 3153.23,4854.09 3153.23,4820.17L3153.23,4644.39Z" style="fill:#538ca9;"/>
                </g>
            </g>
            <g id="cash-register" serif:id="cash register" transform="matrix(0.673854,0,0,0.673854,760.288,1833.81)">
                <g transform="matrix(1,0,0,1,26.2381,44.9684)">
                    <path d="M1023.47,4181.52C1023.06,4193.32 1029.69,4199.59 1044.63,4199.37L2004.99,4199.37C2012.23,4199.15 2016.18,4195.35 2015.54,4186.56L2015.37,4152.77C2015.37,4152.77 1996.61,4046.84 1951.94,4004.8L1708.39,3795.27L1708.39,3691.46C1708.39,3639.49 1666.2,3597.29 1614.22,3597.29L1117.64,3597.29C1065.67,3597.29 1023.47,3639.49 1023.47,3691.46L1023.47,4181.52Z" style="fill:#175777;"/>
                </g>
                <g transform="matrix(1,0,0,1,129.127,0)">
                    <path d="M1049.71,4199.37L1912.5,4199.37C1914.51,4112.82 1904.32,4056.81 1849.05,4004.8L1605.5,3795.27L1605.5,3691.46C1605.5,3639.49 1563.31,3597.29 1511.33,3597.29L1143.88,3597.29C1091.91,3597.29 1049.71,3639.49 1049.71,3691.46L1049.71,4199.37Z" style="fill:#f2f0dd;"/>
                </g>
                <rect x="1231.66" y="3527.38" width="79.023" height="97.018" style="fill:#666a6f;"/>
                <g transform="matrix(1,0,0,0.375809,0,2201.76)">
                    <rect x="1231.66" y="3527.38" width="79.023" height="97.018" style="fill:#3f3f3f;"/>
                </g>
                <path d="M1049.71,4199.37L1605.5,4199.37L1605.5,3691.46C1605.5,3639.49 1563.31,3597.29 1511.33,3597.29L1143.88,3597.29C1091.91,3597.29 1049.71,3639.49 1049.71,3691.46L1049.71,4199.37Z" style="fill:#ac9e82;"/>
                <g transform="matrix(1,0,0,1,26.2381,0)">
                    <path d="M1035.41,3813.82L1564.23,3813.82L1564.23,3701.29C1564.23,3650.32 1524.08,3608.94 1474.63,3608.94L1125.01,3608.94C1075.56,3608.94 1035.41,3650.32 1035.41,3701.29L1035.41,3813.82Z" style="fill:#897a5d;"/>
                </g>
                <g transform="matrix(1,0,0,1,26.2381,0)">
                    <path d="M1511.82,3644.85C1518.1,3644.85 1523.2,3649.95 1523.2,3656.23C1523.2,3662.52 1518.1,3667.62 1511.82,3667.62C1505.53,3667.62 1500.43,3662.52 1500.43,3656.23C1500.43,3649.95 1505.53,3644.85 1511.82,3644.85ZM1080.88,3644.85C1087.17,3644.85 1092.27,3649.95 1092.27,3656.23C1092.27,3662.52 1087.17,3667.62 1080.88,3667.62C1074.6,3667.62 1069.5,3662.52 1069.5,3656.23C1069.5,3649.95 1074.6,3644.85 1080.88,3644.85Z" style="fill:#3f3930;"/>
                </g>
                <g transform="matrix(1,0,0,1.00541,0,-22.4676)">
                    <path d="M1538.06,4025.63C1538.06,4017.97 1531.8,4011.76 1524.1,4011.76L1117.4,4011.76C1109.7,4011.76 1103.45,4017.97 1103.45,4025.63L1103.45,4136.64C1103.45,4144.29 1109.7,4150.51 1117.4,4150.51L1524.1,4150.51C1531.8,4150.51 1538.06,4144.29 1538.06,4136.64L1538.06,4025.63Z" style="fill:#96846e;"/>
                </g>
                <g transform="matrix(1,0,0,1,26.2381,0)">
                    <path d="M1099.89,4121.05C1104.1,4121.05 1107.52,4124.47 1107.52,4128.68C1107.52,4132.88 1104.1,4136.3 1099.89,4136.3C1095.69,4136.3 1092.27,4132.88 1092.27,4128.68C1092.27,4124.47 1095.69,4121.05 1099.89,4121.05ZM1489.4,4121.05C1493.61,4121.05 1497.02,4124.47 1497.02,4128.68C1497.02,4132.88 1493.61,4136.3 1489.4,4136.3C1485.19,4136.3 1481.78,4132.88 1481.78,4128.68C1481.78,4124.47 1485.19,4121.05 1489.4,4121.05ZM1099.94,4025.83C1104.13,4025.86 1107.52,4029.26 1107.52,4033.45C1107.52,4037.64 1104.13,4041.05 1099.94,4041.07L1099.89,4041.07C1095.69,4041.07 1092.27,4037.66 1092.27,4033.45C1092.27,4029.24 1095.69,4025.83 1099.89,4025.83L1099.94,4025.83ZM1489.45,4025.83C1493.63,4025.86 1497.02,4029.26 1497.02,4033.45C1497.02,4037.64 1493.63,4041.05 1489.45,4041.07L1489.4,4041.07C1485.19,4041.07 1481.78,4037.66 1481.78,4033.45C1481.78,4029.24 1485.19,4025.83 1489.4,4025.83L1489.45,4025.83Z" style="fill:#3f3930;"/>
                </g>
                <g transform="matrix(1,0,0,1.00541,0,-22.4676)">
                    <path d="M1538.06,4025.63C1538.06,4017.97 1531.8,4011.76 1524.1,4011.76L1117.4,4011.76C1109.7,4011.76 1103.45,4017.97 1103.45,4025.63L1103.45,4136.64C1103.45,4144.29 1109.7,4150.51 1117.4,4150.51L1524.1,4150.51C1531.8,4150.51 1538.06,4144.29 1538.06,4136.64L1538.06,4025.63ZM1529.72,4025.63L1529.72,4136.64C1529.72,4139.72 1527.2,4142.22 1524.1,4142.22L1117.4,4142.22C1114.3,4142.22 1111.79,4139.72 1111.79,4136.64L1111.79,4025.63C1111.79,4022.55 1114.3,4020.05 1117.4,4020.05L1524.1,4020.05C1527.2,4020.05 1529.72,4022.55 1529.72,4025.63Z" style="fill:#7a6447;"/>
                </g>
                <path d="M1477.62,3449.54C1477.62,3432.86 1464.08,3419.32 1447.4,3419.32L1133.67,3419.32C1117,3419.32 1103.45,3432.86 1103.45,3449.54L1103.45,3509.98C1103.45,3526.66 1117,3540.2 1133.67,3540.2L1447.4,3540.2C1464.08,3540.2 1477.62,3526.66 1477.62,3509.98L1477.62,3449.54Z" style="fill:#f2f0dd;"/>
                <g transform="matrix(0.869309,0,0,1,144.211,0)">
                    <path d="M1477.62,3449.54C1477.62,3432.86 1462.04,3419.32 1442.86,3419.32L1138.22,3419.32C1119.03,3419.32 1103.45,3432.86 1103.45,3449.54L1103.45,3509.98C1103.45,3526.66 1119.03,3540.2 1138.22,3540.2L1442.86,3540.2C1462.04,3540.2 1477.62,3526.66 1477.62,3509.98L1477.62,3449.54Z" style="fill:#ac9e82;"/>
                </g>
                <g transform="matrix(1,0,0,1,26.2381,0)">
                    <path d="M1084.35,3479.76L1394.33,3479.76L1394.33,3455.27C1394.33,3439.65 1381.65,3426.96 1366.02,3426.96L1112.66,3426.96C1097.03,3426.96 1084.35,3439.65 1084.35,3455.27L1084.35,3479.76Z" style="fill:#897a5d;"/>
                </g>
            </g>
            <g transform="matrix(0.978413,0,0,0.978413,78.2805,99.3144)">
                <path d="M2509.93,3394.81L2418.96,3458.84L2816.61,4023.84L2907.58,3959.81L2509.93,3394.81ZM1646.85,3394.81L1737.82,3458.84L1340.17,4023.84L1249.2,3959.81L1646.85,3394.81Z" style="fill:#845a04;"/>
            </g>
            <g transform="matrix(0.978413,0,0,0.978413,78.2805,99.3144)">
                <path d="M1504.69,3596.8L1646.85,3394.81L1737.82,3458.84L1640.73,3596.8L1504.69,3596.8ZM2652.09,3596.8L2509.93,3394.81L2418.96,3458.84L2516.05,3596.8L2652.09,3596.8Z" style="fill:#614100;"/>
            </g>
            <g transform="matrix(0.633958,-0.446182,0.522276,0.742077,-2269.25,2145.39)">
                <rect x="2363.36" y="3452.16" width="140.407" height="516.947" style="fill:#845a04;"/>
            </g>
            <g transform="matrix(0.978413,0,0,0.978413,78.2805,99.3144)">
                <path d="M1159.11,3700.4L1065.74,3567.73L974.76,3631.76L1023.07,3700.4L1159.11,3700.4Z" style="fill:#614100;"/>
            </g>
            <g transform="matrix(1,0,0,1,24.8122,0)">
                <path d="M331.518,3692.34C344.661,3694.69 354.649,3706.19 354.649,3720C354.649,3735.51 342.059,3748.1 326.551,3748.1C311.044,3748.1 298.454,3735.51 298.454,3720C298.454,3706.19 308.442,3694.69 321.585,3692.34L321.585,3655.58L331.518,3655.58L331.518,3692.34ZM326.551,3700.67C337.219,3700.67 345.879,3709.34 345.879,3720C345.879,3730.67 337.219,3739.33 326.551,3739.33C315.884,3739.33 307.224,3730.67 307.224,3720C307.224,3709.34 315.884,3700.67 326.551,3700.67Z" style="fill:#2c1d00;"/>
                <g transform="matrix(1,0,0,-1,0,7536.83)">
                    <path d="M331.518,3692.34C344.661,3694.69 354.649,3706.19 354.649,3720C354.649,3735.51 342.059,3748.1 326.551,3748.1C311.044,3748.1 298.454,3735.51 298.454,3720C298.454,3706.19 308.442,3694.69 321.585,3692.34L321.585,3655.58L331.518,3655.58L331.518,3692.34ZM326.551,3700.67C337.219,3700.67 345.879,3709.34 345.879,3720C345.879,3730.67 337.219,3739.33 326.551,3739.33C315.884,3739.33 307.224,3730.67 307.224,3720C307.224,3709.34 315.884,3700.67 326.551,3700.67Z" style="fill:#2c1d00;"/>
                </g>
                <g transform="matrix(1,0,0,1,0,0.619004)">
                    <path d="M317.384,3751.33C316.553,3748.4 315.735,3744.82 317.616,3742.18C318.336,3741.17 319.438,3740.62 320.518,3740.05C323.294,3738.59 326.205,3738.37 328.598,3739.39C330.901,3740.38 332.613,3742.53 333.259,3745.54C333.528,3746.79 333.611,3748.08 333.54,3749.36C333.339,3752.99 331.672,3755.67 329.492,3757.99C326.757,3760.91 323.271,3763.31 320.092,3765.91C313.185,3771.55 307.794,3778.69 308.111,3788.05C308.191,3790.42 308.562,3792.79 309.408,3795.01C312.017,3801.84 319.571,3805.71 327.26,3805.71C335.036,3805.71 342.515,3801.79 344.861,3794.47C345.809,3791.5 345.501,3788.73 344.806,3785.8C344.246,3783.45 341.881,3781.99 339.526,3782.55C337.172,3783.11 335.714,3785.47 336.273,3787.83C336.592,3789.17 336.943,3790.43 336.509,3791.79C335.319,3795.51 331.201,3796.94 327.26,3796.94C323.231,3796.94 318.968,3795.46 317.601,3791.88C317.1,3790.57 316.923,3789.16 316.876,3787.76C316.657,3781.28 320.86,3776.6 325.64,3772.7C329.119,3769.86 332.895,3767.18 335.888,3763.99C339.438,3760.2 341.968,3755.75 342.297,3749.84C342.411,3747.78 342.267,3745.72 341.834,3743.7C340.514,3737.55 336.759,3733.35 332.053,3731.33C327.437,3729.35 321.798,3729.47 316.443,3732.28C314.144,3733.49 312.008,3734.93 310.475,3737.09C307.042,3741.9 307.432,3748.39 308.948,3753.72C309.609,3756.05 312.035,3757.41 314.363,3756.74C316.692,3756.08 318.045,3753.66 317.384,3751.33Z" style="fill:#2c1d00;"/>
                </g>
                <g transform="matrix(-1,0,0,1,1219,0)">
                    <path d="M331.518,3692.34C344.661,3694.69 354.649,3706.19 354.649,3720C354.649,3735.51 342.059,3748.1 326.551,3748.1C311.044,3748.1 298.454,3735.51 298.454,3720C298.454,3706.19 308.442,3694.69 321.585,3692.34L321.585,3655.58L331.518,3655.58L331.518,3692.34ZM326.551,3700.67C337.219,3700.67 345.879,3709.34 345.879,3720C345.879,3730.67 337.219,3739.33 326.551,3739.33C315.884,3739.33 307.224,3730.67 307.224,3720C307.224,3709.34 315.884,3700.67 326.551,3700.67Z" style="fill:#2c1d00;"/>
                </g>
                <g transform="matrix(-1,0,0,-1,1219,7536.83)">
                    <path d="M331.518,3692.34C344.661,3694.69 354.649,3706.19 354.649,3720C354.649,3735.51 342.059,3748.1 326.551,3748.1C311.044,3748.1 298.454,3735.51 298.454,3720C298.454,3706.19 308.442,3694.69 321.585,3692.34L321.585,3655.58L331.518,3655.58L331.518,3692.34ZM326.551,3700.67C337.219,3700.67 345.879,3709.34 345.879,3720C345.879,3730.67 337.219,3739.33 326.551,3739.33C315.884,3739.33 307.224,3730.67 307.224,3720C307.224,3709.34 315.884,3700.67 326.551,3700.67Z" style="fill:#2c1d00;"/>
                </g>
                <g transform="matrix(-1,0,0,1,1219,0.619004)">
                    <path d="M317.384,3751.33C316.553,3748.4 315.735,3744.82 317.616,3742.18C318.336,3741.17 319.438,3740.62 320.518,3740.05C323.294,3738.59 326.205,3738.37 328.598,3739.39C330.901,3740.38 332.613,3742.53 333.259,3745.54C333.528,3746.79 333.611,3748.08 333.54,3749.36C333.339,3752.99 331.672,3755.67 329.492,3757.99C326.757,3760.91 323.271,3763.31 320.092,3765.91C313.185,3771.55 307.794,3778.69 308.111,3788.05C308.191,3790.42 308.562,3792.79 309.408,3795.01C312.017,3801.84 319.571,3805.71 327.26,3805.71C335.036,3805.71 342.515,3801.79 344.861,3794.47C345.809,3791.5 345.501,3788.73 344.806,3785.8C344.246,3783.45 341.881,3781.99 339.526,3782.55C337.172,3783.11 335.714,3785.47 336.273,3787.83C336.592,3789.17 336.943,3790.43 336.509,3791.79C335.319,3795.51 331.201,3796.94 327.26,3796.94C323.231,3796.94 318.968,3795.46 317.601,3791.88C317.1,3790.57 316.923,3789.16 316.876,3787.76C316.657,3781.28 320.86,3776.6 325.64,3772.7C329.119,3769.86 332.895,3767.18 335.888,3763.99C339.438,3760.2 341.968,3755.75 342.297,3749.84C342.411,3747.78 342.267,3745.72 341.834,3743.7C340.514,3737.55 336.759,3733.35 332.053,3731.33C327.437,3729.35 321.798,3729.47 316.443,3732.28C314.144,3733.49 312.008,3734.93 310.475,3737.09C307.042,3741.9 307.432,3748.39 308.948,3753.72C309.609,3756.05 312.035,3757.41 314.363,3756.74C316.692,3756.08 318.045,3753.66 317.384,3751.33Z" style="fill:#2c1d00;"/>
                </g>
            </g>
            <g transform="matrix(1,0,0,1,24.8122,0)">
                <g transform="matrix(1,0,0,0.967464,0,140.038)">
                    <path d="M1127.47,3903.84C1127.47,3874.98 1104.8,3851.54 1076.87,3851.54L184.188,3851.54C156.264,3851.54 133.593,3874.98 133.593,3903.84L133.593,4251.8C133.593,4280.66 156.264,4304.09 184.188,4304.09L1076.87,4304.09C1104.8,4304.09 1127.47,4280.66 1127.47,4251.8L1127.47,3903.84Z" style="fill:#d8a03c;"/>
                </g>
                <g transform="matrix(0.978413,0,0,0.978413,78.2805,99.3144)">
                    <g>
                        <g transform="matrix(0.557897,0,0,0.557897,-25.3594,2652.64)">
                            <path d="M958.53,2555.52L1003.85,2645.62C1013.52,2664.84 1036.96,2672.59 1056.18,2662.94C1056.18,2662.94 1056.18,2662.94 1056.18,2662.94C1075.42,2653.29 1083.2,2629.82 1073.52,2610.58L1035.3,2534.6C1044.91,2527.68 1052.69,2519.55 1058.88,2510.71C1080.2,2480.27 1082.47,2439.61 1069.84,2404.78C1069.84,2404.78 1069.84,2404.78 1069.84,2404.78C1054.93,2363.7 1020.05,2333.34 980.647,2331.75C980.274,2331.74 979.9,2331.73 979.527,2331.73L979.342,2331.73C979.342,2331.73 881.22,2330.69 881.22,2330.69C870.856,2330.57 860.837,2334.63 853.443,2341.9C853.412,2341.93 853.381,2341.96 853.35,2341.99C845.967,2349.32 841.812,2359.26 841.812,2369.69L841.812,2632.77C841.812,2654.3 859.292,2671.77 880.806,2671.77C902.326,2671.77 919.802,2654.29 919.802,2632.77C919.802,2632.77 919.802,2555.93 919.802,2555.93L958.53,2555.52ZM1553.93,2389.33C1559.91,2403.19 1573.7,2412.89 1589.75,2412.89L1638.73,2412.89L1638.73,2631.32C1638.73,2652.84 1656.21,2670.32 1677.73,2670.32C1699.24,2670.32 1716.72,2652.84 1716.72,2631.32L1716.72,2412.89C1716.72,2412.89 1765.7,2412.89 1765.7,2412.89C1787.23,2412.89 1804.69,2395.44 1804.69,2373.9C1804.69,2352.38 1787.22,2334.9 1765.7,2334.9C1765.7,2334.9 1589.75,2334.9 1589.75,2334.9C1574.19,2334.9 1560.75,2344.04 1554.5,2357.24C1548.52,2343.39 1534.73,2333.66 1518.69,2333.66L1367.28,2333.66C1345.74,2333.66 1328.29,2351.11 1328.29,2372.65C1328.29,2372.65 1328.29,2632.62 1328.29,2632.62C1328.29,2654.15 1345.75,2671.63 1367.28,2671.63L1520.77,2671.63C1542.29,2671.63 1559.76,2654.15 1559.76,2632.62C1559.76,2611.09 1542.3,2593.64 1520.77,2593.64C1520.77,2593.64 1406.28,2593.64 1406.28,2593.64L1406.28,2541.64L1478.25,2541.64C1499.77,2541.64 1517.25,2524.16 1517.25,2502.64C1517.25,2481.1 1499.78,2463.65 1478.25,2463.65C1478.25,2463.65 1406.28,2463.65 1406.28,2463.65C1406.28,2463.65 1406.28,2411.65 1406.28,2411.65C1406.28,2411.65 1518.69,2411.65 1518.69,2411.65C1534.24,2411.65 1547.68,2402.52 1553.93,2389.33ZM584.095,2611.14L584.095,2351.12C584.095,2333.15 571.842,2317.54 554.411,2313.25C554.381,2313.24 554.351,2313.23 554.32,2313.22C536.898,2309 518.824,2317.17 510.526,2333.09C510.528,2333.08 465.022,2420.31 465.022,2420.31C465.022,2420.31 422.552,2333.93 422.552,2333.93C414.556,2317.63 396.398,2309.04 378.728,2313.15C378.727,2313.15 378.726,2313.15 378.726,2313.15C361.061,2317.26 348.564,2333.01 348.564,2351.12L348.564,2629.29C348.564,2650.83 366.028,2668.27 387.559,2668.27C409.086,2668.27 426.553,2650.83 426.553,2629.29L426.553,2518.83L429.018,2523.84C435.493,2536.95 448.83,2545.39 463.502,2545.58C463.502,2545.58 463.502,2545.58 463.502,2545.58C478.196,2545.76 491.75,2537.64 498.549,2524.64L506.107,2510.16C506.107,2510.16 506.107,2627.73 506.107,2627.73C506.107,2649.27 523.568,2666.71 545.101,2666.71C562.088,2666.71 576.547,2655.85 581.881,2640.69C585.448,2652.36 594.428,2662.17 606.874,2666.3C627.294,2673.09 649.391,2661.98 656.167,2641.57L672.222,2593.19L749.601,2593.19L765.381,2641.43C772.07,2661.84 794.105,2673.04 814.56,2666.34C835.008,2659.66 846.197,2637.64 839.5,2617.17L748.51,2338.99C743.282,2323.01 728.391,2312.18 711.575,2312.12C711.54,2312.12 711.506,2312.12 711.472,2312.12C694.657,2312.12 679.724,2322.89 674.434,2338.86L584.095,2611.14ZM1161.57,2490.79L1161.57,2372.29C1161.57,2350.76 1144.1,2333.29 1122.58,2333.29C1101.06,2333.29 1083.58,2350.76 1083.58,2372.29L1083.58,2628.45C1083.58,2649.97 1101.06,2667.45 1122.58,2667.45C1144.1,2667.45 1161.57,2649.97 1161.57,2628.45L1161.57,2571.32C1175.65,2568.45 1188.62,2564.44 1200.55,2559.45C1200.55,2559.45 1250.5,2647.67 1250.5,2647.67C1250.5,2647.67 1250.5,2647.67 1250.5,2647.67C1261.11,2666.4 1284.92,2673 1303.65,2662.37C1322.36,2651.78 1328.97,2627.96 1318.37,2609.23L1264.54,2514.18C1296.36,2478.52 1313.36,2430.04 1317.2,2374.99C1318.7,2353.53 1302.51,2334.91 1281.05,2333.39C1259.57,2331.86 1240.9,2348.09 1239.4,2369.57C1239.4,2369.57 1239.4,2369.57 1239.4,2369.57C1236.48,2411.45 1224.46,2448.6 1196.17,2472.08C1196.17,2472.08 1196.17,2472.08 1196.16,2472.08C1186.5,2480.11 1174.99,2486.38 1161.57,2490.79L1161.57,2490.79ZM698.097,2515.2L711.186,2475.75C711.186,2475.75 724.09,2515.2 724.09,2515.2L698.097,2515.2ZM919.802,2477.93L919.802,2409.09C919.802,2409.09 977.84,2409.7 977.84,2409.7C981.059,2409.97 983.711,2411.97 986.108,2414.29C990.708,2418.75 994.161,2424.87 996.521,2431.37C1000.63,2442.7 1001.94,2456.07 995.006,2465.97C991.031,2471.64 984.245,2475.29 975.031,2477.36C975.028,2477.36 919.802,2477.93 919.802,2477.93L919.802,2477.93Z" style="fill:#fff;"/>
                        </g>
                        <g transform="matrix(0.557897,0,0,0.557897,-25.3594,2652.64)">
                            <path d="M994.118,2333.44C993.225,2333.25 991.726,2332.93 990.106,2332.67C988.207,2332.38 986.155,2332.16 984.909,2332.04C983.494,2331.91 982.073,2331.81 980.647,2331.75C980.274,2331.74 979.9,2331.73 979.527,2331.73L979.342,2331.73C979.342,2331.73 881.22,2330.69 881.22,2330.69C870.856,2330.57 860.837,2334.63 853.443,2341.9C853.412,2341.93 853.381,2341.96 853.35,2341.99C845.967,2349.32 841.812,2359.26 841.812,2369.69L841.812,2632.77C841.812,2654.3 859.292,2671.77 880.806,2671.77C902.326,2671.77 919.802,2654.29 919.802,2632.77C919.802,2632.77 919.802,2555.93 919.802,2555.93L958.53,2555.52L1003.85,2645.62C1013.52,2664.84 1036.96,2672.59 1056.18,2662.94C1056.18,2662.94 1056.18,2662.94 1056.18,2662.94C1075.42,2653.29 1083.2,2629.82 1073.52,2610.58L1035.3,2534.6C1044.91,2527.68 1052.69,2519.55 1058.88,2510.71C1080.2,2480.27 1082.47,2439.61 1069.84,2404.78C1069.84,2404.78 1069.84,2404.78 1069.84,2404.78C1056.65,2368.45 1027.85,2340.51 994.118,2333.44ZM1478.25,2463.65L1406.28,2463.65L1406.28,2426.34L1406.25,2426.31L1406.26,2426.31L1406.28,2426.34L1406.28,2411.65C1406.28,2411.65 1518.69,2411.65 1518.69,2411.65C1534.24,2411.65 1547.68,2402.52 1553.93,2389.33C1559.91,2403.19 1573.7,2412.89 1589.75,2412.89L1638.73,2412.89L1638.73,2631.32C1638.73,2652.84 1656.21,2670.32 1677.73,2670.32C1699.24,2670.32 1716.72,2652.84 1716.72,2631.32L1716.72,2412.89C1716.72,2412.89 1765.7,2412.89 1765.7,2412.89C1787.23,2412.89 1804.69,2395.44 1804.69,2373.9C1804.69,2352.38 1787.22,2334.9 1765.7,2334.9C1765.7,2334.9 1589.75,2334.9 1589.75,2334.9C1574.19,2334.9 1560.75,2344.04 1554.5,2357.24C1548.52,2343.39 1534.73,2333.66 1518.69,2333.66L1367.28,2333.66C1345.74,2333.66 1328.29,2351.11 1328.29,2372.65C1328.29,2372.65 1328.29,2632.62 1328.29,2632.62C1328.29,2654.15 1345.75,2671.63 1367.28,2671.63L1520.77,2671.63C1542.29,2671.63 1559.76,2654.15 1559.76,2632.62C1559.76,2611.09 1542.3,2593.64 1520.77,2593.64C1520.77,2593.64 1406.28,2593.64 1406.28,2593.64L1406.28,2541.64L1478.25,2541.64C1499.77,2541.64 1517.25,2524.16 1517.25,2502.64C1517.25,2481.1 1499.78,2463.65 1478.25,2463.65ZM584.095,2611.14L584.095,2351.12C584.095,2333.15 571.842,2317.54 554.411,2313.25C554.381,2313.24 554.351,2313.23 554.32,2313.22C536.898,2309 518.824,2317.17 510.526,2333.09C510.528,2333.08 465.022,2420.31 465.022,2420.31C465.022,2420.31 422.552,2333.93 422.552,2333.93C414.556,2317.63 396.398,2309.04 378.728,2313.15C378.727,2313.15 378.726,2313.15 378.726,2313.15C361.061,2317.26 348.564,2333.01 348.564,2351.12L348.564,2629.29C348.564,2650.83 366.028,2668.27 387.559,2668.27C409.086,2668.27 426.553,2650.83 426.553,2629.29L426.553,2518.83L429.018,2523.84C435.493,2536.95 448.83,2545.39 463.502,2545.58C463.502,2545.58 463.502,2545.58 463.502,2545.58C478.196,2545.76 491.75,2537.64 498.549,2524.64L506.107,2510.16C506.107,2510.16 506.107,2627.73 506.107,2627.73C506.107,2649.27 523.568,2666.71 545.101,2666.71C562.088,2666.71 576.547,2655.85 581.881,2640.69C585.448,2652.36 594.428,2662.17 606.874,2666.3C627.294,2673.09 649.391,2661.98 656.167,2641.57L672.222,2593.19L749.601,2593.19L765.381,2641.43C772.07,2661.84 794.105,2673.04 814.56,2666.34C835.008,2659.66 846.197,2637.64 839.5,2617.17L748.51,2338.99C743.282,2323.01 728.391,2312.18 711.575,2312.12C711.54,2312.12 711.506,2312.12 711.472,2312.12C694.657,2312.12 679.724,2322.89 674.434,2338.86L584.095,2611.14ZM1161.57,2490.79L1161.57,2372.29C1161.57,2350.76 1144.1,2333.29 1122.58,2333.29C1101.06,2333.29 1083.58,2350.76 1083.58,2372.29L1083.58,2628.45C1083.58,2649.97 1101.06,2667.45 1122.58,2667.45C1144.1,2667.45 1161.57,2649.97 1161.57,2628.45L1161.57,2571.32C1175.65,2568.45 1188.62,2564.44 1200.55,2559.45C1200.55,2559.45 1250.5,2647.67 1250.5,2647.67C1250.5,2647.67 1250.5,2647.67 1250.5,2647.67C1261.11,2666.4 1284.92,2673 1303.65,2662.37C1322.36,2651.78 1328.97,2627.96 1318.37,2609.23L1264.54,2514.18C1296.36,2478.52 1313.36,2430.04 1317.2,2374.99C1318.7,2353.53 1302.51,2334.91 1281.05,2333.39C1259.57,2331.86 1240.9,2348.09 1239.4,2369.57C1239.4,2369.57 1239.4,2369.57 1239.4,2369.57C1236.48,2411.45 1224.46,2448.6 1196.17,2472.08C1196.17,2472.08 1196.17,2472.08 1196.16,2472.08C1186.5,2480.11 1174.99,2486.38 1161.57,2490.79L1161.57,2490.79ZM971.656,2548.91C969.135,2543.9 963.981,2540.76 958.372,2540.82L919.644,2541.24C911.591,2541.33 905.109,2547.88 905.109,2555.93C905.109,2555.93 905.109,2632.77 905.109,2632.77C905.109,2646.18 894.218,2657.08 880.806,2657.08C867.398,2657.08 856.505,2646.18 856.505,2632.77C856.505,2632.77 856.505,2369.69 856.505,2369.69C856.505,2363.19 859.097,2356.99 863.701,2352.42C863.715,2352.41 863.729,2352.39 863.744,2352.38C868.35,2347.85 874.588,2345.31 881.044,2345.38L976.439,2346.39C978.242,2346.41 979.878,2346.43 980.054,2346.43C1013.87,2347.8 1043.23,2374.54 1056.02,2409.79C1056.02,2409.79 1056.02,2409.79 1056.02,2409.79C1067.05,2440.19 1065.46,2475.72 1046.85,2502.28C1046.84,2502.28 1046.84,2502.28 1046.84,2502.29C1041.56,2509.83 1034.92,2516.77 1026.72,2522.67C1020.86,2526.89 1018.93,2534.74 1022.18,2541.2L1060.4,2617.18C1066.43,2629.17 1061.58,2643.8 1049.6,2649.81C1049.6,2649.81 1049.59,2649.81 1049.59,2649.81C1037.61,2655.82 1023,2651 1016.98,2639.02L971.656,2548.91ZM1541.01,2363.06C1543.07,2368.45 1543.07,2377.83 1540.66,2383.04C1536.84,2391.3 1528.38,2396.96 1518.69,2396.96L1406.31,2396.96C1388.8,2396.96 1391.58,2411.65 1391.58,2411.65L1391.58,2463.64C1391.47,2474.44 1397.83,2478.23 1406.28,2478.35C1478.24,2479.37 1478.25,2478.35 1478.25,2478.35C1491.67,2478.35 1502.55,2489.22 1502.55,2502.64C1502.55,2516.05 1491.66,2526.95 1478.25,2526.95C1478.25,2526.95 1406.28,2526.95 1406.28,2526.95C1398.16,2526.95 1391.58,2533.52 1391.58,2541.64L1391.58,2593.64C1391.58,2601.76 1398.16,2608.34 1406.28,2608.34C1406.28,2608.34 1520.77,2608.34 1520.77,2608.34C1534.19,2608.34 1545.07,2619.2 1545.07,2632.62C1545.07,2646.04 1534.18,2656.93 1520.77,2656.93C1520.77,2656.93 1367.28,2656.93 1367.28,2656.93C1353.86,2656.93 1342.98,2646.04 1342.98,2632.62C1342.98,2632.62 1342.98,2372.65 1342.98,2372.65C1342.98,2359.23 1353.86,2348.36 1367.28,2348.36L1518.69,2348.36C1528.69,2348.36 1537.65,2354.28 1541.01,2363.06ZM1567.43,2383.51C1564.94,2378.72 1564.92,2370.47 1567.78,2363.52C1571.24,2355.1 1580.05,2349.6 1589.75,2349.6C1589.75,2349.6 1765.7,2349.6 1765.7,2349.6C1779.11,2349.6 1790,2360.49 1790,2373.9C1790,2387.33 1779.12,2398.19 1765.7,2398.19L1716.73,2398.19C1707.53,2398.62 1701.95,2406.87 1702.03,2412.89L1702.03,2631.32C1702.03,2644.73 1691.13,2655.62 1677.73,2655.62C1664.32,2655.62 1653.42,2644.73 1653.42,2631.32C1653.42,2631.32 1653.42,2477.27 1653.42,2412.89C1653.42,2404.77 1646.85,2398.19 1638.73,2398.19L1589.75,2398.19C1579.75,2398.19 1571.76,2391.86 1567.43,2383.51ZM598.04,2615.76C596.671,2619.89 594.243,2630.42 595.932,2636.39C598.001,2643.71 603.748,2649.78 611.504,2652.36C611.504,2652.36 611.504,2652.36 611.504,2652.36C624.231,2656.59 638,2649.66 642.223,2636.94L658.276,2588.56C660.271,2582.55 665.89,2578.49 672.222,2578.49L749.601,2578.49C755.956,2578.49 761.59,2582.58 763.566,2588.62C763.566,2588.62 779.344,2636.86 779.344,2636.86C783.512,2649.57 797.241,2656.55 809.987,2652.38C809.991,2652.38 809.995,2652.38 809.999,2652.38C822.739,2648.22 829.707,2634.49 825.534,2621.73C825.387,2621.28 734.804,2344.35 734.546,2343.56C731.287,2333.6 722.003,2326.85 711.52,2326.81C711.504,2326.81 711.488,2326.81 711.472,2326.81C700.99,2326.81 691.68,2333.52 688.382,2343.48L598.04,2615.76ZM568.02,2635.81C570.093,2629.39 569.402,2615.39 569.402,2611.14C569.402,2611.14 569.402,2351.12 569.402,2351.12C569.402,2339.92 561.764,2330.19 550.899,2327.51C550.885,2327.51 550.871,2327.51 550.856,2327.5C539.995,2324.87 528.727,2329.96 523.554,2339.88L523.552,2339.88L523.553,2339.88C523.344,2340.28 523.119,2340.67 522.875,2341.04C522.707,2341.46 522.507,2341.89 522.279,2342.32C514.909,2356.45 478.048,2427.1 478.048,2427.1L465.022,2435C465.022,2435 456.384,2436.04 451.823,2426.76L409.363,2340.4C404.381,2330.25 393.064,2324.9 382.055,2327.46C382.054,2327.46 382.054,2327.46 382.054,2327.46C371.046,2330.02 363.257,2339.83 363.257,2351.12L363.257,2629.29C363.257,2642.71 374.142,2653.58 387.559,2653.58C400.974,2653.58 411.86,2642.71 411.86,2629.29L411.86,2518.83C411.86,2511.99 416.57,2506.06 423.226,2504.51C429.881,2502.97 436.724,2506.21 439.739,2512.34C439.739,2512.34 442.195,2517.34 442.195,2517.34C446.232,2525.51 454.544,2530.77 463.689,2530.89C463.689,2530.89 463.689,2530.89 463.689,2530.89C472.846,2531 481.29,2525.94 485.528,2517.84L493.081,2503.36C496.09,2497.6 502.532,2494.49 508.916,2495.74C515.301,2496.98 520.108,2502.27 520.732,2508.75C520.732,2508.75 520.8,2510.43 520.8,2513.45C520.8,2532.5 520.8,2627.73 520.8,2627.73C520.8,2641.15 531.683,2652.02 545.101,2652.02C555.684,2652.02 564.941,2645.34 568.02,2635.81ZM1161.57,2505.48C1153.46,2505.48 1146.88,2498.9 1146.88,2490.79L1146.88,2372.29C1146.88,2358.87 1135.99,2347.98 1122.58,2347.98C1109.17,2347.98 1098.28,2358.87 1098.28,2372.29L1098.28,2628.45C1098.28,2641.87 1109.17,2652.76 1122.58,2652.76C1135.99,2652.76 1146.88,2641.86 1146.88,2628.45L1146.88,2571.32C1146.88,2564.34 1151.79,2558.33 1158.63,2556.93C1171.72,2554.26 1183.78,2550.54 1194.88,2545.89L1195.24,2547.26C1197.21,2545.7 1198.76,2544.86 1198.76,2544.86C1205.27,2544.06 1211.41,2547.66 1213.99,2553.5C1214.23,2553.84 1214.48,2554.23 1214.73,2554.68C1222.83,2568.97 1263.29,2640.43 1263.29,2640.43C1263.29,2640.43 1263.29,2640.43 1263.29,2640.43C1269.9,2652.1 1284.73,2656.21 1296.41,2649.59C1296.41,2649.59 1296.41,2649.59 1296.42,2649.59C1308.07,2642.99 1312.19,2628.14 1305.58,2616.47L1251.75,2521.42C1248.65,2515.94 1249.38,2509.09 1253.58,2504.39C1283.36,2471.01 1298.95,2425.5 1302.54,2373.97C1302.54,2373.97 1302.54,2373.97 1302.54,2373.97C1303.48,2360.6 1293.38,2348.99 1280.01,2348.05C1280.01,2348.05 1280,2348.05 1280,2348.05C1266.62,2347.09 1254.99,2357.21 1254.06,2370.59C1254.06,2370.59 1254.06,2370.59 1254.06,2370.59C1250.83,2416.81 1236.78,2457.48 1205.55,2483.38C1205.55,2483.38 1205.55,2483.39 1205.55,2483.39C1194.65,2492.43 1181.73,2499.57 1166.65,2504.58C1166.32,2504.7 1165.98,2504.81 1165.64,2504.91L1165.25,2505.02L1164.54,2505.18C1164.29,2505.22 1164.05,2505.27 1163.81,2505.31L1163.08,2505.41L1162.74,2505.43L1162.16,2505.47L1161.57,2505.48ZM684.152,2510.58C682.666,2515.06 683.422,2519.98 686.184,2523.8C688.946,2527.63 693.378,2529.9 698.097,2529.9L724.09,2529.9C728.799,2529.9 733.222,2527.64 735.986,2523.83C738.75,2520.02 739.519,2515.11 738.055,2510.64C738.055,2510.64 727.603,2478.68 725.513,2472.29C724.607,2469.52 723.741,2468.12 723.741,2468.12C720.766,2463.23 715.22,2460.51 709.53,2461.15C703.84,2461.8 699.044,2465.69 697.241,2471.13L684.152,2510.58ZM698.097,2515.2L711.186,2475.75C711.186,2475.75 724.09,2515.2 724.09,2515.2L698.097,2515.2ZM916.988,2394.65C917.864,2394.48 918.855,2394.39 919.974,2394.4L977.995,2395.01C978.346,2395.02 978.697,2395.03 979.047,2395.06C985.63,2395.6 991.426,2398.99 996.327,2403.74C1002.45,2409.66 1007.19,2417.7 1010.33,2426.36C1010.33,2426.36 1010.34,2426.36 1010.34,2426.36C1016.05,2442.12 1016.68,2460.63 1007.04,2474.39C1007.04,2474.4 1007.04,2474.4 1007.04,2474.4C1001.23,2482.68 991.709,2488.67 978.256,2491.69C978.228,2491.7 978.201,2491.71 978.173,2491.71C978.169,2491.71 919.955,2492.63 919.955,2492.63L919.802,2492.63L919.046,2492.61L918.299,2492.55L917.564,2492.46L916.84,2492.33L916.13,2492.17L915.432,2491.97L914.75,2491.74L914.082,2491.47L913.432,2491.18L912.798,2490.86L912.183,2490.5L911.587,2490.12L911.011,2489.71L910.456,2489.27L909.922,2488.81L909.412,2488.33L908.926,2487.81L908.464,2487.28L908.028,2486.73L907.618,2486.15L907.236,2485.55L906.882,2484.94L906.557,2484.3L906.263,2483.65L906,2482.99L905.769,2482.3L905.571,2481.61L905.407,2480.9L905.278,2480.17L905.184,2479.44L905.128,2478.69L905.109,2477.93L905.109,2409.09L905.112,2408.97C905.363,2400.02 910.672,2395.68 916.988,2394.65ZM919.802,2477.93L919.802,2409.09C919.802,2409.09 977.84,2409.7 977.84,2409.7C981.059,2409.97 983.711,2411.97 986.108,2414.29C990.708,2418.75 994.161,2424.87 996.521,2431.37C1000.63,2442.7 1001.94,2456.07 995.006,2465.97C991.031,2471.64 984.245,2475.29 975.031,2477.36C975.028,2477.36 919.802,2477.93 919.802,2477.93ZM477.898,2413.24C478.212,2413.9 478.446,2414.42 478.602,2414.77C478.757,2415.12 478.834,2415.3 478.834,2415.3C478.574,2414.58 478.261,2413.89 477.898,2413.24Z" style="fill:#7c550e;"/>
                        </g>
                    </g>
                </g>
                <g transform="matrix(8.00934,0,0,1,-1823.08,-1.42109e-14)">
                    <g transform="matrix(1.04573,0,0,1,-13.9359,13.313)">
                        <path d="M354.992,4173.18C354.992,4169.67 354.637,4166.83 354.199,4166.83L260.886,4166.83C260.448,4166.83 260.093,4169.67 260.093,4173.18L260.093,4191.07C260.093,4194.58 260.448,4197.43 260.886,4197.43L354.199,4197.43C354.637,4197.43 354.992,4194.58 354.992,4191.07L354.992,4173.18Z" style="fill:#175777;"/>
                    </g>
                    <g transform="matrix(1.04573,0,0,1,-13.9359,13.313)">
                        <path d="M355.528,4173.18C355.528,4167.25 354.939,4162.34 354.199,4162.34L260.886,4162.34C260.146,4162.34 259.557,4167.25 259.557,4173.18C259.557,4173.18 259.557,4191.07 259.557,4191.07C259.557,4197 260.146,4201.92 260.886,4201.92C260.886,4201.92 354.199,4201.92 354.199,4201.92C354.939,4201.92 355.528,4197 355.528,4191.07C355.528,4191.07 355.528,4173.18 355.528,4173.18ZM354.456,4173.18L354.456,4191.07C354.456,4192.16 354.335,4192.94 354.199,4192.94L260.886,4192.94C260.75,4192.94 260.629,4192.16 260.629,4191.07L260.629,4173.18C260.629,4172.09 260.75,4171.32 260.886,4171.32C260.886,4171.32 354.199,4171.32 354.199,4171.32C354.335,4171.32 354.456,4172.09 354.456,4173.18Z" style="fill:#09374d;"/>
                    </g>
                </g>
                <g transform="matrix(1,0,0,0.967464,0,140.038)">
                    <path d="M1127.47,3903.84C1127.47,3874.98 1104.8,3851.54 1076.87,3851.54L184.188,3851.54C156.264,3851.54 133.593,3874.98 133.593,3903.84L133.593,4251.8C133.593,4280.66 156.264,4304.09 184.188,4304.09L1076.87,4304.09C1104.8,4304.09 1127.47,4280.66 1127.47,4251.8L1127.47,3903.84ZM1087.27,3903.84L1087.27,4251.8C1087.27,4257.73 1082.61,4262.54 1076.87,4262.54L184.188,4262.54C178.45,4262.54 173.791,4257.73 173.791,4251.8L173.791,3903.84C173.791,3897.91 178.45,3893.1 184.188,3893.1L1076.87,3893.1C1082.61,3893.1 1087.27,3897.91 1087.27,3903.84Z" style="fill:#175777;"/>
                </g>
            </g>
            <g transform="matrix(1,0,0,0.967464,24.8122,140.038)">
                <path d="M1087.27,3903.84L1087.27,4251.8C1087.27,4257.73 1082.61,4262.54 1076.87,4262.54L184.188,4262.54C178.45,4262.54 173.791,4257.73 173.791,4251.8L173.791,3903.84C173.791,3897.91 178.45,3893.1 184.188,3893.1L1076.87,3893.1C1082.61,3893.1 1087.27,3897.91 1087.27,3903.84ZM186.053,3905.77L186.053,4249.87L1075.01,4249.87L1075.01,3905.77L186.053,3905.77Z" style="fill:#09374d;"/>
            </g>
            <g transform="matrix(6.81615e-17,-0.660739,2.2897,-1.0456e-17,-7787.54,5231.08)">
                <rect x="2363.36" y="3452.16" width="140.407" height="516.947" style="fill:#a0a0a0;"/>
            </g>
            <g transform="matrix(4.18477e-17,-0.660739,0.114811,-1.43629e-16,844.817,5231.08)">
                <rect x="2363.36" y="3452.16" width="140.407" height="516.947" style="fill:#848484;"/>
            </g>
            <g transform="matrix(4.14447e-17,-0.660739,0.0815046,-1.45669e-16,-164.506,5231.08)">
                <rect x="2363.36" y="3452.16" width="140.407" height="516.947" style="fill:#848484;"/>
            </g>
            <g transform="matrix(6.15554e-17,-0.98605,0.0972959,-2.18878e-16,-257.601,6018.08)">
                <path d="M2503.76,3524.54C2503.76,3484.59 2500.56,3452.16 2496.62,3452.16L2370.5,3452.16C2366.56,3452.16 2363.36,3484.59 2363.36,3524.54L2363.36,3896.74C2363.36,3936.68 2366.56,3969.11 2370.5,3969.11L2496.62,3969.11C2500.56,3969.11 2503.76,3936.68 2503.76,3896.74L2503.76,3524.54Z" style="fill:#175777;"/>
            </g>
            <g transform="matrix(0.978413,0,0,0.978413,78.2805,99.3144)">
                <path d="M1349.9,3455.43C1349.9,3439.64 1337.08,3426.83 1321.29,3426.83L1264.08,3426.83C1248.29,3426.83 1235.47,3439.64 1235.47,3455.43L1235.47,4632.82C1235.47,4648.6 1248.29,4661.42 1264.08,4661.42L1321.29,4661.42C1337.08,4661.42 1349.9,4648.6 1349.9,4632.82L1349.9,3455.43ZM2927.03,3455.43C2927.03,3439.64 2914.21,3426.83 2898.42,3426.83L2841.21,3426.83C2825.42,3426.83 2812.6,3439.64 2812.6,3455.43L2812.6,4632.82C2812.6,4648.6 2825.42,4661.42 2841.21,4661.42L2898.42,4661.42C2914.21,4661.42 2927.03,4648.6 2927.03,4632.82L2927.03,3455.43Z" style="fill:#d8a03c;"/>
            </g>
            <g transform="matrix(0.978413,0,0,0.978413,78.2805,99.3144)">
                <path d="M1235.47,3596.8L1349.9,3596.8L1349.9,3455.43C1349.9,3439.64 1337.08,3426.83 1321.29,3426.83L1264.08,3426.83C1248.29,3426.83 1235.47,3439.64 1235.47,3455.43L1235.47,3596.8ZM2812.6,3596.8L2927.03,3596.8L2927.03,3455.43C2927.03,3439.64 2914.21,3426.83 2898.42,3426.83L2841.21,3426.83C2825.42,3426.83 2812.6,3439.64 2812.6,3455.43L2812.6,3596.8Z" style="fill:#b8852b;"/>
            </g>
            <g>
                <g transform="matrix(3.23755,0,0,1,-2012.29,-599.379)">
                    <path d="M1480.55,3336.86C1480.55,3313.24 1474.63,3294.06 1467.33,3294.06L1083.6,3294.06C1076.31,3294.06 1070.38,3313.24 1070.38,3336.86L1070.38,3472.12C1070.38,3495.74 1076.31,3514.92 1083.6,3514.92L1467.33,3514.92C1474.63,3514.92 1480.55,3495.74 1480.55,3472.12L1480.55,3336.86Z" style="fill:#003049;"/>
                </g>
                <g transform="matrix(5.078,0,0,1,-4365.01,0)">
                    <path d="M1480.55,3294.06L1407.26,2826.18L1145.75,2826.18L1070.38,3294.06L1070.38,3514.92L1480.55,3514.92L1480.55,3294.06Z" style="fill:#175978;"/>
                </g>
                <g transform="matrix(0.978413,0,0,0.978413,78.2805,99.3144)">
                    <path d="M2976.26,3245.28C2998.18,3243.23 3015.38,3235.39 3027.24,3222.95C3039.22,3210.38 3045.97,3192.98 3046.07,3171.16C3046.09,3165.64 3041.63,3161.14 3036.11,3161.12C3030.59,3161.09 3026.09,3165.55 3026.07,3171.07C3025.99,3187.04 3021.53,3199.95 3012.77,3209.15C3003.89,3218.46 2990.81,3223.83 2974.4,3225.37C2968.9,3225.88 2964.86,3230.76 2965.37,3236.25C2965.89,3241.75 2970.76,3245.79 2976.26,3245.28ZM2825.7,3245.28C2847.63,3243.23 2864.83,3235.39 2876.69,3222.95C2888.67,3210.38 2895.41,3192.98 2895.51,3171.16C2895.54,3165.64 2891.08,3161.14 2885.56,3161.12C2880.04,3161.09 2875.54,3165.55 2875.51,3171.07C2875.44,3187.04 2870.98,3199.95 2862.21,3209.15C2853.34,3218.46 2840.25,3223.83 2823.84,3225.37C2818.35,3225.88 2814.3,3230.76 2814.82,3236.25C2815.33,3241.75 2820.21,3245.79 2825.7,3245.28ZM2674.71,3245.28C2696.63,3243.23 2713.83,3235.39 2725.69,3222.95C2737.67,3210.38 2744.41,3192.98 2744.51,3171.16C2744.54,3165.64 2740.08,3161.14 2734.56,3161.12C2729.04,3161.09 2724.54,3165.55 2724.51,3171.07C2724.44,3187.04 2719.98,3199.95 2711.22,3209.15C2702.34,3218.46 2689.25,3223.83 2672.85,3225.37C2667.35,3225.88 2663.31,3230.76 2663.82,3236.25C2664.33,3241.75 2669.21,3245.79 2674.71,3245.28ZM2373.13,3245.28C2395.05,3243.23 2412.25,3235.39 2424.12,3222.95C2436.09,3210.38 2442.84,3192.98 2442.94,3171.16C2442.96,3165.64 2438.5,3161.14 2432.98,3161.12C2427.47,3161.09 2422.96,3165.55 2422.94,3171.07C2422.86,3187.04 2418.41,3199.95 2409.64,3209.15C2400.76,3218.46 2387.68,3223.83 2371.27,3225.37C2365.77,3225.88 2361.73,3230.76 2362.24,3236.25C2362.76,3241.75 2367.63,3245.79 2373.13,3245.28ZM2524.96,3245.28C2546.89,3243.23 2564.08,3235.39 2575.95,3222.95C2587.92,3210.38 2594.67,3192.98 2594.77,3171.16C2594.8,3165.64 2590.34,3161.14 2584.82,3161.12C2579.3,3161.09 2574.8,3165.55 2574.77,3171.07C2574.7,3187.04 2570.24,3199.95 2561.47,3209.15C2552.59,3218.46 2539.51,3223.83 2523.1,3225.37C2517.61,3225.88 2513.56,3230.76 2514.07,3236.25C2514.59,3241.75 2519.47,3245.79 2524.96,3245.28ZM2225.47,3245.28C2247.39,3243.23 2264.59,3235.39 2276.45,3222.95C2288.43,3210.38 2295.18,3192.98 2295.28,3171.16C2295.3,3165.64 2290.84,3161.14 2285.32,3161.12C2279.8,3161.09 2275.3,3165.55 2275.28,3171.07C2275.2,3187.04 2270.74,3199.95 2261.98,3209.15C2253.1,3218.46 2240.02,3223.83 2223.61,3225.37C2218.11,3225.88 2214.07,3230.76 2214.58,3236.25C2215.1,3241.75 2219.97,3245.79 2225.47,3245.28ZM2072.7,3245.28C2094.62,3243.23 2111.82,3235.39 2123.68,3222.95C2135.66,3210.38 2142.41,3192.98 2142.51,3171.16C2142.53,3165.64 2138.07,3161.14 2132.55,3161.12C2127.03,3161.09 2122.53,3165.55 2122.51,3171.07C2122.43,3187.04 2117.97,3199.95 2109.21,3209.15C2100.33,3218.46 2087.25,3223.83 2070.84,3225.37C2065.34,3225.88 2061.3,3230.76 2061.81,3236.25C2062.32,3241.75 2067.2,3245.79 2072.7,3245.28ZM1923.06,3245.28C1944.98,3243.23 1962.18,3235.39 1974.04,3222.95C1986.02,3210.38 1992.76,3192.98 1992.87,3171.16C1992.89,3165.64 1988.43,3161.14 1982.91,3161.12C1977.39,3161.09 1972.89,3165.55 1972.87,3171.07C1972.79,3187.04 1968.33,3199.95 1959.57,3209.15C1950.69,3218.46 1937.6,3223.83 1921.2,3225.37C1915.7,3225.88 1911.66,3230.76 1912.17,3236.25C1912.68,3241.75 1917.56,3245.79 1923.06,3245.28ZM1771.85,3245.28C1793.78,3243.23 1810.97,3235.39 1822.84,3222.95C1834.81,3210.38 1841.56,3192.98 1841.66,3171.16C1841.68,3165.64 1837.22,3161.14 1831.7,3161.12C1826.19,3161.09 1821.68,3165.55 1821.66,3171.07C1821.59,3187.04 1817.13,3199.95 1808.36,3209.15C1799.48,3218.46 1786.4,3223.83 1769.99,3225.37C1764.49,3225.88 1760.45,3230.76 1760.96,3236.25C1761.48,3241.75 1766.36,3245.79 1771.85,3245.28ZM1622.21,3245.28C1644.13,3243.23 1661.33,3235.39 1673.19,3222.95C1685.17,3210.38 1691.92,3192.98 1692.02,3171.16C1692.04,3165.64 1687.58,3161.14 1682.06,3161.12C1676.54,3161.09 1672.04,3165.55 1672.02,3171.07C1671.94,3187.04 1667.49,3199.95 1658.72,3209.15C1649.84,3218.46 1636.76,3223.83 1620.35,3225.37C1614.85,3225.88 1610.81,3230.76 1611.32,3236.25C1611.84,3241.75 1616.71,3245.79 1622.21,3245.28ZM1474.13,3245.28C1496.06,3243.23 1513.25,3235.39 1525.12,3222.95C1537.09,3210.38 1543.84,3192.98 1543.94,3171.16C1543.97,3165.64 1539.51,3161.14 1533.99,3161.12C1528.47,3161.09 1523.96,3165.55 1523.94,3171.07C1523.87,3187.04 1519.41,3199.95 1510.64,3209.15C1501.76,3218.46 1488.68,3223.83 1472.27,3225.37C1466.78,3225.88 1462.73,3230.76 1463.24,3236.25C1463.76,3241.75 1468.63,3245.79 1474.13,3245.28ZM1172.24,3245.28C1194.16,3243.23 1211.36,3235.39 1223.23,3222.95C1235.2,3210.38 1241.95,3192.98 1242.05,3171.16C1242.07,3165.64 1237.61,3161.14 1232.1,3161.12C1226.58,3161.09 1222.07,3165.55 1222.05,3171.07C1221.98,3187.04 1217.52,3199.95 1208.75,3209.15C1199.87,3218.46 1186.79,3223.83 1170.38,3225.37C1164.88,3225.88 1160.84,3230.76 1161.35,3236.25C1161.87,3241.75 1166.75,3245.79 1172.24,3245.28ZM1322.4,3245.28C1344.33,3243.23 1361.53,3235.39 1373.39,3222.95C1385.37,3210.38 1392.11,3192.98 1392.21,3171.16C1392.24,3165.64 1387.78,3161.14 1382.26,3161.12C1376.74,3161.09 1372.24,3165.55 1372.21,3171.07C1372.14,3187.04 1367.68,3199.95 1358.91,3209.15C1350.03,3218.46 1336.95,3223.83 1320.54,3225.37C1315.05,3225.88 1311,3230.76 1311.52,3236.25C1312.03,3241.75 1316.91,3245.79 1322.4,3245.28ZM1322.4,3138.95C1344.33,3136.91 1361.53,3129.07 1373.39,3116.62C1385.37,3104.06 1392.11,3086.65 1392.21,3064.84C1392.24,3059.32 1387.78,3054.82 1382.26,3054.79C1376.74,3054.77 1372.24,3059.23 1372.21,3064.75C1372.14,3080.72 1367.68,3093.62 1358.91,3102.82C1350.03,3112.14 1336.95,3117.51 1320.54,3119.04C1315.05,3119.55 1311,3124.43 1311.52,3129.93C1312.03,3135.42 1316.91,3139.47 1322.4,3138.95ZM1172.24,3138.95C1194.16,3136.91 1211.36,3129.07 1223.23,3116.62C1235.2,3104.06 1241.95,3086.65 1242.05,3064.84C1242.07,3059.32 1237.61,3054.82 1232.1,3054.79C1226.58,3054.77 1222.07,3059.23 1222.05,3064.75C1221.98,3080.72 1217.52,3093.62 1208.75,3102.82C1199.87,3112.14 1186.79,3117.51 1170.38,3119.04C1164.88,3119.55 1160.84,3124.43 1161.35,3129.93C1161.87,3135.42 1166.75,3139.47 1172.24,3138.95ZM1473.61,3138.95C1495.53,3136.91 1512.73,3129.07 1524.6,3116.62C1536.57,3104.06 1543.32,3086.65 1543.42,3064.84C1543.44,3059.32 1538.98,3054.82 1533.46,3054.79C1527.94,3054.77 1523.44,3059.23 1523.42,3064.75C1523.34,3080.72 1518.89,3093.62 1510.12,3102.82C1501.24,3112.14 1488.16,3117.51 1471.75,3119.04C1466.25,3119.55 1462.21,3124.43 1462.72,3129.93C1463.24,3135.42 1468.11,3139.47 1473.61,3138.95ZM1623.77,3138.95C1645.7,3136.91 1662.89,3129.07 1674.76,3116.62C1686.74,3104.06 1693.48,3086.65 1693.58,3064.84C1693.61,3059.32 1689.15,3054.82 1683.63,3054.79C1678.11,3054.77 1673.61,3059.23 1673.58,3064.75C1673.51,3080.72 1669.05,3093.62 1660.28,3102.82C1651.4,3112.14 1638.32,3117.51 1621.91,3119.04C1616.42,3119.55 1612.37,3124.43 1612.88,3129.93C1613.4,3135.42 1618.28,3139.47 1623.77,3138.95ZM1773.41,3138.95C1795.34,3136.91 1812.54,3129.07 1824.4,3116.62C1836.38,3104.06 1843.12,3086.65 1843.22,3064.84C1843.25,3059.32 1838.79,3054.82 1833.27,3054.79C1827.75,3054.77 1823.25,3059.23 1823.22,3064.75C1823.15,3080.72 1818.69,3093.62 1809.92,3102.82C1801.05,3112.14 1787.96,3117.51 1771.55,3119.04C1766.06,3119.55 1762.01,3124.43 1762.53,3129.93C1763.04,3135.42 1767.92,3139.47 1773.41,3138.95ZM1922.01,3138.95C1943.94,3136.91 1961.14,3129.07 1973,3116.62C1984.98,3104.06 1991.72,3086.65 1991.82,3064.84C1991.85,3059.32 1987.39,3054.82 1981.87,3054.79C1976.35,3054.77 1971.85,3059.23 1971.82,3064.75C1971.75,3080.72 1967.29,3093.62 1958.52,3102.82C1949.64,3112.14 1936.56,3117.51 1920.15,3119.04C1914.66,3119.55 1910.61,3124.43 1911.13,3129.93C1911.64,3135.42 1916.52,3139.47 1922.01,3138.95ZM2073.74,3138.95C2095.67,3136.91 2112.86,3129.07 2124.73,3116.62C2136.7,3104.06 2143.45,3086.65 2143.55,3064.84C2143.57,3059.32 2139.12,3054.82 2133.6,3054.79C2128.08,3054.77 2123.57,3059.23 2123.55,3064.75C2123.48,3080.72 2119.02,3093.62 2110.25,3102.82C2101.37,3112.14 2088.29,3117.51 2071.88,3119.04C2066.39,3119.55 2062.34,3124.43 2062.85,3129.93C2063.37,3135.42 2068.25,3139.47 2073.74,3138.95ZM2222.86,3138.95C2244.79,3136.91 2261.98,3129.07 2273.85,3116.62C2285.82,3104.06 2292.57,3086.65 2292.67,3064.84C2292.7,3059.32 2288.24,3054.82 2282.72,3054.79C2277.2,3054.77 2272.7,3059.23 2272.67,3064.75C2272.6,3080.72 2268.14,3093.62 2259.37,3102.82C2250.49,3112.14 2237.41,3117.51 2221,3119.04C2215.51,3119.55 2211.46,3124.43 2211.97,3129.93C2212.49,3135.42 2217.37,3139.47 2222.86,3138.95ZM2373.55,3138.95C2395.47,3136.91 2412.67,3129.07 2424.53,3116.62C2436.51,3104.06 2443.25,3086.65 2443.35,3064.84C2443.38,3059.32 2438.92,3054.82 2433.4,3054.79C2427.88,3054.77 2423.38,3059.23 2423.36,3064.75C2423.28,3080.72 2418.82,3093.62 2410.06,3102.82C2401.18,3112.14 2388.09,3117.51 2371.68,3119.04C2366.19,3119.55 2362.14,3124.43 2362.66,3129.93C2363.17,3135.42 2368.05,3139.47 2373.55,3138.95ZM2524.23,3138.95C2546.16,3136.91 2563.35,3129.07 2575.22,3116.62C2587.19,3104.06 2593.94,3086.65 2594.04,3064.84C2594.07,3059.32 2589.61,3054.82 2584.09,3054.79C2578.57,3054.77 2574.07,3059.23 2574.04,3064.75C2573.97,3080.72 2569.51,3093.62 2560.74,3102.82C2551.86,3112.14 2538.78,3117.51 2522.37,3119.04C2516.88,3119.55 2512.83,3124.43 2513.34,3129.93C2513.86,3135.42 2518.74,3139.47 2524.23,3138.95ZM2673.35,3138.95C2695.28,3136.91 2712.47,3129.07 2724.34,3116.62C2736.31,3104.06 2743.06,3086.65 2743.16,3064.84C2743.18,3059.32 2738.72,3054.82 2733.21,3054.79C2727.69,3054.77 2723.18,3059.23 2723.16,3064.75C2723.09,3080.72 2718.63,3093.62 2709.86,3102.82C2700.98,3112.14 2687.9,3117.51 2671.49,3119.04C2665.99,3119.55 2661.95,3124.43 2662.46,3129.93C2662.98,3135.42 2667.86,3139.47 2673.35,3138.95ZM2824.56,3138.95C2846.48,3136.91 2863.68,3129.07 2875.54,3116.62C2887.52,3104.06 2894.26,3086.65 2894.37,3064.84C2894.39,3059.32 2889.93,3054.82 2884.41,3054.79C2878.89,3054.77 2874.39,3059.23 2874.37,3064.75C2874.29,3080.72 2869.83,3093.62 2861.07,3102.82C2852.19,3112.14 2839.11,3117.51 2822.7,3119.04C2817.2,3119.55 2813.16,3124.43 2813.67,3129.93C2814.18,3135.42 2819.06,3139.47 2824.56,3138.95ZM2824.56,3037.28C2846.48,3035.23 2863.68,3027.39 2875.54,3014.95C2887.52,3002.38 2894.26,2984.98 2894.37,2963.17C2894.39,2957.65 2889.93,2953.14 2884.41,2953.12C2878.89,2953.09 2874.39,2957.55 2874.37,2963.07C2874.29,2979.04 2869.83,2991.95 2861.07,3001.15C2852.19,3010.46 2839.11,3015.83 2822.7,3017.37C2817.2,3017.88 2813.16,3022.76 2813.67,3028.25C2814.18,3033.75 2819.06,3037.79 2824.56,3037.28ZM2673.35,3029.98C2695.28,3027.93 2712.47,3020.09 2724.34,3007.65C2736.31,2995.08 2743.06,2977.68 2743.16,2955.87C2743.18,2950.35 2738.72,2945.85 2733.21,2945.82C2727.69,2945.79 2723.18,2950.25 2723.16,2955.77C2723.09,2971.74 2718.63,2984.65 2709.86,2993.85C2700.98,3003.16 2687.9,3008.53 2671.49,3010.07C2665.99,3010.58 2661.95,3015.46 2662.46,3020.95C2662.98,3026.45 2667.86,3030.49 2673.35,3029.98ZM2524.23,3029.98C2546.16,3027.93 2563.35,3020.09 2575.22,3007.65C2587.19,2995.08 2593.94,2977.68 2594.04,2955.87C2594.07,2950.35 2589.61,2945.85 2584.09,2945.82C2578.57,2945.79 2574.07,2950.25 2574.04,2955.77C2573.97,2971.74 2569.51,2984.65 2560.74,2993.85C2551.86,3003.16 2538.78,3008.53 2522.37,3010.07C2516.88,3010.58 2512.83,3015.46 2513.34,3020.95C2513.86,3026.45 2518.74,3030.49 2524.23,3029.98ZM2374.59,3029.98C2396.51,3027.93 2413.71,3020.09 2425.58,3007.65C2437.55,2995.08 2444.3,2977.68 2444.4,2955.87C2444.42,2950.35 2439.96,2945.85 2434.44,2945.82C2428.93,2945.79 2424.42,2950.25 2424.4,2955.77C2424.32,2971.74 2419.87,2984.65 2411.1,2993.85C2402.22,3003.16 2389.14,3008.53 2372.73,3010.07C2367.23,3010.58 2363.19,3015.46 2363.7,3020.95C2364.22,3026.45 2369.09,3030.49 2374.59,3029.98ZM2222.34,3029.98C2244.26,3027.93 2261.46,3020.09 2273.33,3007.65C2285.3,2995.08 2292.05,2977.68 2292.15,2955.87C2292.17,2950.35 2287.71,2945.85 2282.2,2945.82C2276.68,2945.79 2272.17,2950.25 2272.15,2955.77C2272.08,2971.74 2267.62,2984.65 2258.85,2993.85C2249.97,3003.16 2236.89,3008.53 2220.48,3010.07C2214.98,3010.58 2210.94,3015.46 2211.45,3020.95C2211.97,3026.45 2216.85,3030.49 2222.34,3029.98ZM2072.7,3029.98C2094.62,3027.93 2111.82,3020.09 2123.68,3007.65C2135.66,2995.08 2142.41,2977.68 2142.51,2955.87C2142.53,2950.35 2138.07,2945.85 2132.55,2945.82C2127.03,2945.79 2122.53,2950.25 2122.51,2955.77C2122.43,2971.74 2117.97,2984.65 2109.21,2993.85C2100.33,3003.16 2087.25,3008.53 2070.84,3010.07C2065.34,3010.58 2061.3,3015.46 2061.81,3020.95C2062.32,3026.45 2067.2,3030.49 2072.7,3029.98ZM1922.54,3029.98C1944.46,3027.93 1961.66,3020.09 1973.52,3007.65C1985.5,2995.08 1992.24,2977.68 1992.34,2955.87C1992.37,2950.35 1987.91,2945.85 1982.39,2945.82C1976.87,2945.79 1972.37,2950.25 1972.34,2955.77C1972.27,2971.74 1967.81,2984.65 1959.05,2993.85C1950.17,3003.16 1937.08,3008.53 1920.67,3010.07C1915.18,3010.58 1911.13,3015.46 1911.65,3020.95C1912.16,3026.45 1917.04,3030.49 1922.54,3029.98ZM1772.89,3029.98C1794.82,3027.93 1812.02,3020.09 1823.88,3007.65C1835.86,2995.08 1842.6,2977.68 1842.7,2955.87C1842.73,2950.35 1838.27,2945.85 1832.75,2945.82C1827.23,2945.79 1822.73,2950.25 1822.7,2955.77C1822.63,2971.74 1818.17,2984.65 1809.4,2993.85C1800.52,3003.16 1787.44,3008.53 1771.03,3010.07C1765.54,3010.58 1761.49,3015.46 1762.01,3020.95C1762.52,3026.45 1767.4,3030.49 1772.89,3029.98ZM1621.17,3029.98C1643.09,3027.93 1660.29,3020.09 1672.15,3007.65C1684.13,2995.08 1690.87,2977.68 1690.97,2955.87C1691,2950.35 1686.54,2945.85 1681.02,2945.82C1675.5,2945.79 1671,2950.25 1670.97,2955.77C1670.9,2971.74 1666.44,2984.65 1657.67,2993.85C1648.8,3003.16 1635.71,3008.53 1619.31,3010.07C1613.81,3010.58 1609.77,3015.46 1610.28,3020.95C1610.79,3026.45 1615.67,3030.49 1621.17,3029.98ZM1473.09,3029.98C1495.01,3027.93 1512.21,3020.09 1524.07,3007.65C1536.05,2995.08 1542.8,2977.68 1542.9,2955.87C1542.92,2950.35 1538.46,2945.85 1532.94,2945.82C1527.42,2945.79 1522.92,2950.25 1522.9,2955.77C1522.82,2971.74 1518.36,2984.65 1509.6,2993.85C1500.72,3003.16 1487.63,3008.53 1471.23,3010.07C1465.73,3010.58 1461.69,3015.46 1462.2,3020.95C1462.71,3026.45 1467.59,3030.49 1473.09,3029.98ZM1325.01,3029.98C1346.93,3027.93 1364.13,3020.09 1376,3007.65C1387.97,2995.08 1394.72,2977.68 1394.82,2955.87C1394.84,2950.35 1390.38,2945.85 1384.87,2945.82C1379.35,2945.79 1374.85,2950.25 1374.82,2955.77C1374.75,2971.74 1370.29,2984.65 1361.52,2993.85C1352.64,3003.16 1339.56,3008.53 1323.15,3010.07C1317.65,3010.58 1313.61,3015.46 1314.12,3020.95C1314.64,3026.45 1319.52,3030.49 1325.01,3029.98ZM1325.01,2928.31C1346.93,2926.26 1364.13,2918.42 1376,2905.97C1387.97,2893.41 1394.72,2876.01 1394.82,2854.19C1394.84,2848.67 1390.38,2844.17 1384.87,2844.15C1379.35,2844.12 1374.85,2848.58 1374.82,2854.1C1374.75,2870.07 1370.29,2882.98 1361.52,2892.18C1352.64,2901.49 1339.56,2906.86 1323.15,2908.39C1317.65,2908.91 1313.61,2913.79 1314.12,2919.28C1314.64,2924.78 1319.52,2928.82 1325.01,2928.31ZM1473.09,2928.31C1495.01,2926.26 1512.21,2918.42 1524.07,2905.97C1536.05,2893.41 1542.8,2876.01 1542.9,2854.19C1542.92,2848.67 1538.46,2844.17 1532.94,2844.15C1527.42,2844.12 1522.92,2848.58 1522.9,2854.1C1522.82,2870.07 1518.36,2882.98 1509.6,2892.18C1500.72,2901.49 1487.63,2906.86 1471.23,2908.39C1465.73,2908.91 1461.69,2913.79 1462.2,2919.28C1462.71,2924.78 1467.59,2928.82 1473.09,2928.31ZM1623.77,2928.31C1645.7,2926.26 1662.89,2918.42 1674.76,2905.97C1686.74,2893.41 1693.48,2876.01 1693.58,2854.19C1693.61,2848.67 1689.15,2844.17 1683.63,2844.15C1678.11,2844.12 1673.61,2848.58 1673.58,2854.1C1673.51,2870.07 1669.05,2882.98 1660.28,2892.18C1651.4,2901.49 1638.32,2906.86 1621.91,2908.39C1616.42,2908.91 1612.37,2913.79 1612.89,2919.28C1613.4,2924.78 1618.28,2928.82 1623.77,2928.31ZM1772.89,2928.31C1794.82,2926.26 1812.02,2918.42 1823.88,2905.97C1835.86,2893.41 1842.6,2876.01 1842.7,2854.19C1842.73,2848.67 1838.27,2844.17 1832.75,2844.15C1827.23,2844.12 1822.73,2848.58 1822.7,2854.1C1822.63,2870.07 1818.17,2882.98 1809.4,2892.18C1800.52,2901.49 1787.44,2906.86 1771.03,2908.39C1765.54,2908.91 1761.49,2913.79 1762.01,2919.28C1762.52,2924.78 1767.4,2928.82 1772.89,2928.31ZM2072.7,2928.31C2094.62,2926.26 2111.82,2918.42 2123.68,2905.97C2135.66,2893.41 2142.41,2876.01 2142.51,2854.19C2142.53,2848.67 2138.07,2844.17 2132.55,2844.15C2127.03,2844.12 2122.53,2848.58 2122.51,2854.1C2122.43,2870.07 2117.97,2882.98 2109.21,2892.18C2100.33,2901.49 2087.25,2906.86 2070.84,2908.39C2065.34,2908.91 2061.3,2913.79 2061.81,2919.28C2062.32,2924.78 2067.2,2928.82 2072.7,2928.31ZM1922.54,2928.31C1944.46,2926.26 1961.66,2918.42 1973.52,2905.97C1985.5,2893.41 1992.24,2876.01 1992.34,2854.19C1992.37,2848.67 1987.91,2844.17 1982.39,2844.15C1976.87,2844.12 1972.37,2848.58 1972.34,2854.1C1972.27,2870.07 1967.81,2882.98 1959.05,2892.18C1950.17,2901.49 1937.08,2906.86 1920.67,2908.39C1915.18,2908.91 1911.13,2913.79 1911.65,2919.28C1912.16,2924.78 1917.04,2928.82 1922.54,2928.31ZM2224.95,2928.31C2246.87,2926.26 2264.07,2918.42 2275.93,2905.97C2287.91,2893.41 2294.66,2876.01 2294.76,2854.19C2294.78,2848.67 2290.32,2844.17 2284.8,2844.15C2279.28,2844.12 2274.78,2848.58 2274.76,2854.1C2274.68,2870.07 2270.22,2882.98 2261.46,2892.18C2252.58,2901.49 2239.49,2906.86 2223.09,2908.39C2217.59,2908.91 2213.55,2913.79 2214.06,2919.28C2214.57,2924.78 2219.45,2928.82 2224.95,2928.31ZM2674.91,2928.31C2696.84,2926.26 2714.04,2918.42 2725.9,2905.97C2737.88,2893.41 2744.62,2876.01 2744.72,2854.19C2744.75,2848.67 2740.29,2844.17 2734.77,2844.15C2729.25,2844.12 2724.75,2848.58 2724.72,2854.1C2724.65,2870.07 2720.19,2882.98 2711.43,2892.18C2702.55,2901.49 2689.46,2906.86 2673.05,2908.39C2667.56,2908.91 2663.51,2913.79 2664.03,2919.28C2664.54,2924.78 2669.42,2928.82 2674.91,2928.31ZM2372.5,2928.31C2394.43,2926.26 2411.63,2918.42 2423.49,2905.97C2435.47,2893.41 2442.21,2876.01 2442.31,2854.19C2442.34,2848.67 2437.88,2844.17 2432.36,2844.15C2426.84,2844.12 2422.34,2848.58 2422.31,2854.1C2422.24,2870.07 2417.78,2882.98 2409.01,2892.18C2400.13,2901.49 2387.05,2906.86 2370.64,2908.39C2365.15,2908.91 2361.1,2913.79 2361.62,2919.28C2362.13,2924.78 2367.01,2928.82 2372.5,2928.31ZM2524.75,2928.31C2546.68,2926.26 2563.87,2918.42 2575.74,2905.97C2587.72,2893.41 2594.46,2876.01 2594.56,2854.19C2594.59,2848.67 2590.13,2844.17 2584.61,2844.15C2579.09,2844.12 2574.59,2848.58 2574.56,2854.1C2574.49,2870.07 2570.03,2882.98 2561.26,2892.18C2552.38,2901.49 2539.3,2906.86 2522.89,2908.39C2517.4,2908.91 2513.35,2913.79 2513.87,2919.28C2514.38,2924.78 2519.26,2928.82 2524.75,2928.31Z" style="fill:#397fa0;"/>
                </g>
                <g>
                    <path d="M1165.9,3177.29L1165.9,3214.95C1165.9,3252.06 1196.03,3282.19 1233.15,3282.19C1270.26,3282.19 1300.39,3252.06 1300.39,3214.95L1300.39,3140.61L1312.87,3140.61L1312.87,3214.95C1312.87,3252.06 1343,3282.19 1380.11,3282.19C1417.23,3282.19 1447.36,3252.06 1447.36,3214.95L1447.36,3140.61L1459.75,3140.61L1459.75,3214.95C1459.75,3252.06 1489.88,3282.19 1527,3282.19C1564.11,3282.19 1594.24,3252.06 1594.24,3214.95L1594.24,3140.61L1606.65,3140.61L1606.65,3214.95C1606.65,3252.06 1636.78,3282.19 1673.9,3282.19C1711.01,3282.19 1741.14,3252.06 1741.14,3214.95L1741.14,3140.61L1753.56,3140.61L1753.56,3214.95C1753.56,3252.06 1783.69,3282.19 1820.81,3282.19C1857.92,3282.19 1888.05,3252.06 1888.05,3214.95L1888.05,3140.61L1900.4,3140.61L1900.4,3214.95C1900.4,3252.06 1930.53,3282.19 1967.64,3282.19C2004.76,3282.19 2034.89,3252.06 2034.89,3214.95L2034.89,3140.61L2047.42,3140.61L2047.42,3214.95C2047.42,3252.06 2077.55,3282.19 2114.67,3282.19C2151.78,3282.19 2181.91,3252.06 2181.91,3214.95L2181.91,3140.61L2194.22,3140.61L2194.22,3214.95C2194.22,3252.06 2224.35,3282.19 2261.47,3282.19C2298.58,3282.19 2328.71,3252.06 2328.71,3214.95L2328.71,3140.61L2341.28,3140.61L2341.28,3214.95C2341.28,3252.06 2371.41,3282.19 2408.53,3282.19C2445.64,3282.19 2475.77,3252.06 2475.77,3214.95L2475.77,3140.61L2488.23,3140.61L2488.23,3214.95C2488.23,3252.06 2518.37,3282.19 2555.48,3282.19C2592.59,3282.19 2622.72,3252.06 2622.72,3214.95L2622.72,3140.61L2635.25,3140.61L2635.25,3214.95C2635.25,3252.06 2665.38,3282.19 2702.5,3282.19C2739.61,3282.19 2769.74,3252.06 2769.74,3214.95L2769.74,3140.61L2782.15,3140.61L2782.15,3214.95C2782.15,3252.06 2812.28,3282.19 2849.39,3282.19C2886.51,3282.19 2916.64,3252.06 2916.64,3214.95L2916.64,3140.61L2929.09,3140.61L2929.09,3214.95C2929.09,3252.06 2959.22,3282.19 2996.34,3282.19C3033.45,3282.19 3063.58,3252.06 3063.58,3214.95L3063.58,3181.36L3076.17,3197.18L3076.17,3214.95C3076.17,3252.06 3106.3,3282.19 3143.42,3282.19L3143.79,3282.19L3153.08,3293.87C3149.91,3294.26 3146.69,3294.45 3143.42,3294.45C3110.24,3294.45 3081.79,3274.09 3069.88,3245.2C3057.97,3274.09 3029.51,3294.45 2996.34,3294.45C2963.23,3294.45 2934.81,3274.17 2922.87,3245.36C2910.92,3274.17 2882.5,3294.45 2849.39,3294.45C2816.3,3294.45 2787.91,3274.2 2775.94,3245.42C2763.97,3274.2 2735.58,3294.45 2702.5,3294.45C2669.35,3294.45 2640.92,3274.13 2628.99,3245.27C2617.06,3274.13 2588.62,3294.45 2555.48,3294.45C2522.37,3294.45 2493.95,3274.17 2482,3245.35C2470.05,3274.17 2441.64,3294.45 2408.53,3294.45C2375.36,3294.45 2346.91,3274.1 2334.99,3245.22C2323.08,3274.1 2294.63,3294.45 2261.47,3294.45C2228.42,3294.45 2200.06,3274.25 2188.07,3245.54C2176.07,3274.25 2147.71,3294.45 2114.67,3294.45C2081.52,3294.45 2053.08,3274.12 2041.15,3245.26C2029.23,3274.12 2000.79,3294.45 1967.64,3294.45C1934.58,3294.45 1906.21,3274.23 1894.22,3245.49C1882.24,3274.23 1853.87,3294.45 1820.81,3294.45C1787.71,3294.45 1759.31,3274.19 1747.35,3245.41C1735.39,3274.19 1706.99,3294.45 1673.9,3294.45C1640.81,3294.45 1612.42,3274.2 1600.45,3245.42C1588.48,3274.2 1560.09,3294.45 1527,3294.45C1493.92,3294.45 1465.53,3274.2 1453.56,3245.43C1441.58,3274.2 1413.19,3294.45 1380.11,3294.45C1346.99,3294.45 1318.57,3274.16 1306.63,3245.34C1294.69,3274.16 1266.27,3294.45 1233.15,3294.45C1200.03,3294.45 1171.62,3274.16 1159.67,3245.35C1147.72,3274.16 1119.31,3294.45 1086.19,3294.45C1081.07,3294.45 1076.06,3293.97 1071.21,3293.04L1080.3,3281.93C1082.24,3282.1 1084.21,3282.19 1086.19,3282.19C1123.31,3282.19 1153.44,3252.06 1153.44,3214.95L1153.44,3192.53L1165.9,3177.29Z" style="fill:#00344b;"/>
                    <path d="M1183.57,3155.7C1195.86,3169.12 1213.53,3177.53 1233.15,3177.53C1270.26,3177.53 1300.39,3147.4 1300.39,3110.29L1300.39,3035.95L1312.87,3035.95L1312.87,3110.29C1312.87,3147.4 1343,3177.53 1380.11,3177.53C1417.23,3177.53 1447.36,3147.4 1447.36,3110.29L1447.36,3035.95L1459.75,3035.95L1459.75,3110.29C1459.75,3147.4 1489.88,3177.53 1527,3177.53C1564.11,3177.53 1594.24,3147.4 1594.24,3110.29L1594.24,3035.95L1606.65,3035.95L1606.65,3110.29C1606.65,3147.4 1636.78,3177.53 1673.9,3177.53C1711.01,3177.53 1741.14,3147.4 1741.14,3110.29L1741.14,3035.95L1753.56,3035.95L1753.56,3110.29C1753.56,3147.4 1783.69,3177.53 1820.81,3177.53C1857.92,3177.53 1888.05,3147.4 1888.05,3110.29L1888.05,3035.95L1900.4,3035.95L1900.4,3110.29C1900.4,3147.4 1930.53,3177.53 1967.64,3177.53C2004.76,3177.53 2034.89,3147.4 2034.89,3110.29L2034.89,3035.95L2047.42,3035.95L2047.42,3110.29C2047.42,3147.4 2077.55,3177.53 2114.67,3177.53C2151.78,3177.53 2181.91,3147.4 2181.91,3110.29L2181.91,3035.95L2194.22,3035.95L2194.22,3110.29C2194.22,3147.4 2224.35,3177.53 2261.47,3177.53C2298.58,3177.53 2328.71,3147.4 2328.71,3110.29L2328.71,3035.95L2341.28,3035.95L2341.28,3110.29C2341.28,3147.4 2371.41,3177.53 2408.53,3177.53C2445.64,3177.53 2475.77,3147.4 2475.77,3110.29L2475.77,3035.95L2488.23,3035.95L2488.23,3110.29C2488.23,3147.4 2518.37,3177.53 2555.48,3177.53C2592.59,3177.53 2622.72,3147.4 2622.72,3110.29L2622.72,3035.95L2635.25,3035.95L2635.25,3110.29C2635.25,3147.4 2665.38,3177.53 2702.5,3177.53C2739.61,3177.53 2769.74,3147.4 2769.74,3110.29L2769.74,3035.95L2782.15,3035.95L2782.15,3110.29C2782.15,3147.4 2812.28,3177.53 2849.39,3177.53C2886.51,3177.53 2916.64,3147.4 2916.64,3110.29L2916.64,3035.95L2929.09,3035.95L2929.09,3110.29C2929.09,3147.4 2959.22,3177.53 2996.34,3177.53C3015.17,3177.53 3032.21,3169.77 3044.43,3157.28L3052.11,3166.93C3037.76,3181.07 3018.06,3189.8 2996.34,3189.8C2963.23,3189.8 2934.81,3169.51 2922.87,3140.7C2910.92,3169.51 2882.5,3189.8 2849.39,3189.8C2816.3,3189.8 2787.91,3169.54 2775.94,3140.76C2763.97,3169.54 2735.58,3189.8 2702.5,3189.8C2669.35,3189.8 2640.92,3169.47 2628.99,3140.62C2617.06,3169.47 2588.62,3189.8 2555.48,3189.8C2522.37,3189.8 2493.95,3169.51 2482,3140.7C2470.05,3169.51 2441.64,3189.8 2408.53,3189.8C2375.36,3189.8 2346.91,3169.45 2334.99,3140.57C2323.08,3169.45 2294.63,3189.8 2261.47,3189.8C2228.42,3189.8 2200.06,3169.6 2188.07,3140.88C2176.07,3169.6 2147.71,3189.8 2114.67,3189.8C2081.52,3189.8 2053.08,3169.47 2041.15,3140.61C2029.23,3169.47 2000.79,3189.8 1967.64,3189.8C1934.58,3189.8 1906.21,3169.58 1894.22,3140.83C1882.24,3169.58 1853.87,3189.8 1820.81,3189.8C1787.71,3189.8 1759.31,3169.53 1747.35,3140.75C1735.39,3169.53 1706.99,3189.8 1673.9,3189.8C1640.81,3189.8 1612.42,3169.54 1600.45,3140.76C1588.48,3169.54 1560.09,3189.8 1527,3189.8C1493.92,3189.8 1465.53,3169.55 1453.56,3140.78C1441.58,3169.55 1413.19,3189.8 1380.11,3189.8C1346.99,3189.8 1318.57,3169.5 1306.63,3140.68C1294.69,3169.5 1266.27,3189.8 1233.15,3189.8C1210.59,3189.8 1190.21,3180.38 1175.74,3165.27L1183.57,3155.7Z" style="fill:#00344b;"/>
                    <path d="M1312.87,2997.63L1312.87,3007.82C1312.87,3044.93 1343,3075.07 1380.11,3075.07C1417.23,3075.07 1447.36,3044.93 1447.36,3007.82L1447.36,2933.48L1459.75,2933.48L1459.75,3007.82C1459.75,3044.93 1489.88,3075.07 1527,3075.07C1564.11,3075.07 1594.24,3044.93 1594.24,3007.82L1594.24,2933.48L1606.65,2933.48L1606.65,3007.82C1606.65,3044.93 1636.78,3075.07 1673.9,3075.07C1711.01,3075.07 1741.14,3044.93 1741.14,3007.82L1741.14,2933.48L1753.56,2933.48L1753.56,3007.82C1753.56,3044.93 1783.69,3075.07 1820.81,3075.07C1857.92,3075.07 1888.05,3044.93 1888.05,3007.82L1888.05,2933.48L1900.4,2933.48L1900.4,3007.82C1900.4,3044.93 1930.53,3075.07 1967.64,3075.07C2004.76,3075.07 2034.89,3044.93 2034.89,3007.82L2034.89,2933.48L2047.42,2933.48L2047.42,3007.82C2047.42,3044.93 2077.55,3075.07 2114.67,3075.07C2151.78,3075.07 2181.91,3044.93 2181.91,3007.82L2181.91,2933.48L2194.22,2933.48L2194.22,3007.82C2194.22,3044.93 2224.35,3075.07 2261.47,3075.07C2298.58,3075.07 2328.71,3044.93 2328.71,3007.82L2328.71,2933.48L2341.28,2933.48L2341.28,3007.82C2341.28,3044.93 2371.41,3075.07 2408.53,3075.07C2445.64,3075.07 2475.77,3044.93 2475.77,3007.82L2475.77,2933.48L2488.23,2933.48L2488.23,3007.82C2488.23,3044.93 2518.37,3075.07 2555.48,3075.07C2592.59,3075.07 2622.72,3044.93 2622.72,3007.82L2622.72,2933.48L2635.25,2933.48L2635.25,3007.82C2635.25,3044.93 2665.38,3075.07 2702.5,3075.07C2739.61,3075.07 2769.74,3044.93 2769.74,3007.82L2769.74,2933.48L2782.15,2933.48L2782.15,3007.82C2782.15,3044.93 2812.28,3075.07 2849.39,3075.07C2886.51,3075.07 2916.64,3044.93 2916.64,3007.82L2916.64,2996.62L2929.25,3012.48C2931.19,3040.72 2950.59,3064.18 2976.72,3072.16L2988.48,3086.95C2958.79,3084.03 2933.86,3064.74 2922.87,3038.23C2910.92,3067.04 2882.5,3087.33 2849.39,3087.33C2816.3,3087.33 2787.91,3067.08 2775.94,3038.3C2763.97,3067.08 2735.58,3087.33 2702.5,3087.33C2669.35,3087.33 2640.92,3067.01 2628.99,3038.15C2617.06,3067.01 2588.62,3087.33 2555.48,3087.33C2522.37,3087.33 2493.95,3067.04 2482,3038.23C2470.05,3067.04 2441.64,3087.33 2408.53,3087.33C2375.36,3087.33 2346.91,3066.98 2334.99,3038.1C2323.08,3066.98 2294.63,3087.33 2261.47,3087.33C2228.42,3087.33 2200.06,3067.13 2188.07,3038.41C2176.07,3067.13 2147.71,3087.33 2114.67,3087.33C2081.52,3087.33 2053.08,3067 2041.15,3038.14C2029.23,3067 2000.79,3087.33 1967.64,3087.33C1934.58,3087.33 1906.21,3067.11 1894.22,3038.37C1882.24,3067.11 1853.87,3087.33 1820.81,3087.33C1787.71,3087.33 1759.31,3067.06 1747.35,3038.28C1735.39,3067.06 1706.99,3087.33 1673.9,3087.33C1640.81,3087.33 1612.42,3067.08 1600.45,3038.3C1588.48,3067.08 1560.09,3087.33 1527,3087.33C1493.92,3087.33 1465.53,3067.08 1453.56,3038.31C1441.58,3067.08 1413.19,3087.33 1380.11,3087.33C1346.99,3087.33 1318.57,3067.03 1306.63,3038.21C1295.48,3065.11 1269.99,3084.58 1239.71,3087.06L1251.63,3072.49C1278.13,3064.92 1297.97,3041.48 1300.18,3013.13L1312.87,2997.63Z" style="fill:#00344b;"/>
                    <path d="M1448.61,2831.69L1459.75,2831.69L1459.75,2906.03C1459.75,2943.15 1489.88,2973.28 1527,2973.28C1564.11,2973.28 1594.24,2943.15 1594.24,2906.03L1594.24,2831.69L1606.65,2831.69L1606.65,2906.03C1606.65,2943.15 1636.78,2973.28 1673.9,2973.28C1711.01,2973.28 1741.14,2943.15 1741.14,2906.03L1741.14,2831.69L1753.56,2831.69L1753.56,2906.03C1753.56,2943.15 1783.69,2973.28 1820.81,2973.28C1857.92,2973.28 1888.05,2943.15 1888.05,2906.03L1888.05,2831.69L1900.4,2831.69L1900.4,2906.03C1900.4,2943.15 1930.53,2973.28 1967.64,2973.28C2004.76,2973.28 2034.89,2943.15 2034.89,2906.03L2034.89,2831.69L2047.42,2831.69L2047.42,2906.03C2047.42,2943.15 2077.55,2973.28 2114.67,2973.28C2151.78,2973.28 2181.91,2943.15 2181.91,2906.03L2181.91,2831.69L2194.22,2831.69L2194.22,2906.03C2194.22,2943.15 2224.35,2973.28 2261.47,2973.28C2298.58,2973.28 2328.71,2943.15 2328.71,2906.03L2328.71,2831.69L2341.28,2831.69L2341.28,2906.03C2341.28,2943.15 2371.41,2973.28 2408.53,2973.28C2445.64,2973.28 2475.77,2943.15 2475.77,2906.03L2475.77,2831.69L2488.23,2831.69L2488.23,2906.03C2488.23,2943.15 2518.37,2973.28 2555.48,2973.28C2592.59,2973.28 2622.72,2943.15 2622.72,2906.03L2622.72,2831.69L2635.25,2831.69L2635.25,2906.03C2635.25,2943.15 2665.38,2973.28 2702.5,2973.28C2739.61,2973.28 2769.74,2943.15 2769.74,2906.03L2769.74,2831.69L2782.15,2831.69L2782.15,2906.03C2782.15,2943.15 2812.28,2973.28 2849.39,2973.28C2863.86,2973.28 2877.26,2968.7 2888.24,2960.91L2895.88,2970.52C2882.8,2979.97 2866.74,2985.54 2849.39,2985.54C2816.3,2985.54 2787.91,2965.28 2775.94,2936.51C2763.97,2965.28 2735.58,2985.54 2702.5,2985.54C2669.35,2985.54 2640.92,2965.22 2628.99,2936.36C2617.06,2965.22 2588.62,2985.54 2555.48,2985.54C2522.37,2985.54 2493.95,2965.25 2482,2936.44C2470.05,2965.25 2441.64,2985.54 2408.53,2985.54C2375.36,2985.54 2346.91,2965.19 2334.99,2936.31C2323.08,2965.19 2294.63,2985.54 2261.47,2985.54C2228.42,2985.54 2200.06,2965.34 2188.07,2936.62C2176.07,2965.34 2147.71,2985.54 2114.67,2985.54C2081.52,2985.54 2053.08,2965.21 2041.15,2936.35C2029.23,2965.21 2000.79,2985.54 1967.64,2985.54C1934.58,2985.54 1906.21,2965.32 1894.22,2936.58C1882.24,2965.32 1853.87,2985.54 1820.81,2985.54C1787.71,2985.54 1759.31,2965.28 1747.35,2936.49C1735.39,2965.28 1706.99,2985.54 1673.9,2985.54C1640.81,2985.54 1612.42,2965.28 1600.45,2936.51C1588.48,2965.28 1560.09,2985.54 1527,2985.54C1493.92,2985.54 1465.53,2965.29 1453.56,2936.52C1441.58,2965.29 1413.19,2985.54 1380.11,2985.54C1363.16,2985.54 1347.43,2980.22 1334.52,2971.16L1342.31,2961.64C1353.09,2968.98 1366.1,2973.28 1380.11,2973.28C1417.23,2973.28 1447.36,2943.15 1447.36,2906.03L1447.36,2833.22L1448.61,2831.69Z" style="fill:#00344b;"/>
                    <path d="M2787.13,2833.81C2792.01,2845.71 2800.2,2855.91 2810.56,2863.26L2827.77,2884.89C2804.29,2878.26 2785.2,2861.1 2775.94,2838.84C2763.97,2867.62 2735.58,2887.87 2702.5,2887.87C2669.35,2887.87 2640.92,2867.55 2628.99,2838.7C2617.06,2867.55 2588.62,2887.87 2555.48,2887.87C2522.37,2887.87 2493.95,2867.59 2482,2838.77C2470.05,2867.59 2441.64,2887.87 2408.53,2887.87C2375.36,2887.87 2346.91,2867.52 2334.99,2838.64C2323.08,2867.52 2294.63,2887.87 2261.47,2887.87C2228.42,2887.87 2200.06,2867.67 2188.07,2838.96C2176.07,2867.67 2147.71,2887.87 2114.67,2887.87C2081.52,2887.87 2053.08,2867.55 2041.15,2838.69C2029.23,2867.55 2000.79,2887.87 1967.64,2887.87C1934.58,2887.87 1906.21,2867.65 1894.22,2838.91C1882.24,2867.65 1853.87,2887.87 1820.81,2887.87C1787.71,2887.87 1759.31,2867.61 1747.35,2838.83C1735.39,2867.61 1706.99,2887.87 1673.9,2887.87C1640.81,2887.87 1612.42,2867.62 1600.45,2838.84C1588.48,2867.62 1560.09,2887.87 1527,2887.87C1493.92,2887.87 1465.53,2867.62 1453.56,2838.85C1444.9,2859.66 1427.65,2876.01 1406.25,2883.47L1453.12,2826.18L1462.14,2826.18C1469.96,2854.66 1496.05,2875.61 1527,2875.61C1557.95,2875.61 1584.04,2854.66 1591.86,2826.18L1609.04,2826.18C1616.85,2854.66 1642.95,2875.61 1673.9,2875.61C1704.85,2875.61 1730.94,2854.66 1738.75,2826.18L1755.95,2826.18C1763.76,2854.66 1789.86,2875.61 1820.81,2875.61C1851.75,2875.61 1877.85,2854.66 1885.66,2826.18L1902.79,2826.18C1910.6,2854.66 1936.69,2875.61 1967.64,2875.61C1998.59,2875.61 2024.69,2854.66 2032.5,2826.18L2049.81,2826.18C2057.62,2854.66 2083.72,2875.61 2114.67,2875.61C2145.62,2875.61 2171.71,2854.66 2179.52,2826.18L2196.61,2826.18C2204.42,2854.66 2230.52,2875.61 2261.47,2875.61C2292.41,2875.61 2318.51,2854.66 2326.32,2826.18L2343.67,2826.18C2351.48,2854.66 2377.58,2875.61 2408.53,2875.61C2439.47,2875.61 2465.57,2854.66 2473.38,2826.18L2490.62,2826.18C2498.43,2854.66 2524.53,2875.61 2555.48,2875.61C2586.43,2875.61 2612.52,2854.66 2620.33,2826.18L2637.64,2826.18C2645.45,2854.66 2671.55,2875.61 2702.5,2875.61C2733.45,2875.61 2759.54,2854.66 2767.35,2826.18L2781.07,2826.18L2787.13,2833.81Z" style="fill:#00344b;"/>
                </g>
                <g transform="matrix(5.078,0,0,1,-4365.01,0)">
                    <rect x="1070.38" y="3294.06" width="410.171" height="220.862" style="fill:#003049;"/>
                </g>
            </g>
        </g>
        <g transform="matrix(0.791696,0,0,0.791696,126.439,1249.72)">
            <g>
                <g transform="matrix(-1,0,0,1,1179.6,-44.8534)">
                    <g transform="matrix(0.867962,0,0.146805,1,-527.633,0)">
                        <path d="M782.042,5841.94C782.042,5833.45 774.096,5826.55 764.309,5826.55L677.333,5826.55C667.545,5826.55 659.599,5833.45 659.599,5841.94L659.599,5984.74C659.599,5993.24 667.545,6000.13 677.333,6000.13L764.309,6000.13C774.096,6000.13 782.042,5993.24 782.042,5984.74L782.042,5841.94Z" style="fill:#aa7921;"/>
                    </g>
                    <g transform="matrix(0.867962,0,0.146805,1,-497.36,0)">
                        <path d="M782.042,5841.94C782.042,5833.45 774.096,5826.55 764.309,5826.55L677.333,5826.55C667.545,5826.55 659.599,5833.45 659.599,5841.94L659.599,5984.74C659.599,5993.24 667.545,6000.13 677.333,6000.13L764.309,6000.13C774.096,6000.13 782.042,5993.24 782.042,5984.74L782.042,5841.94Z" style="fill:#d8a03c;"/>
                    </g>
                </g>
                <g transform="matrix(1,0,0,1,-119.087,-44.8534)">
                    <g transform="matrix(0.867962,0,0.146805,1,-527.633,0)">
                        <path d="M782.042,5841.94C782.042,5833.45 774.096,5826.55 764.309,5826.55L677.333,5826.55C667.545,5826.55 659.599,5833.45 659.599,5841.94L659.599,5984.74C659.599,5993.24 667.545,6000.13 677.333,6000.13L764.309,6000.13C774.096,6000.13 782.042,5993.24 782.042,5984.74L782.042,5841.94Z" style="fill:#aa7921;"/>
                    </g>
                    <g transform="matrix(0.867962,0,0.146805,1,-497.36,0)">
                        <path d="M782.042,5841.94C782.042,5833.45 774.096,5826.55 764.309,5826.55L677.333,5826.55C667.545,5826.55 659.599,5833.45 659.599,5841.94L659.599,5984.74C659.599,5993.24 667.545,6000.13 677.333,6000.13L764.309,6000.13C774.096,6000.13 782.042,5993.24 782.042,5984.74L782.042,5841.94Z" style="fill:#d8a03c;"/>
                    </g>
                </g>
                <g>
                    <g transform="matrix(0.867962,0,0.146805,1,-527.633,0)">
                        <path d="M782.042,5841.94C782.042,5833.45 774.096,5826.55 764.309,5826.55L677.333,5826.55C667.545,5826.55 659.599,5833.45 659.599,5841.94L659.599,5984.74C659.599,5993.24 667.545,6000.13 677.333,6000.13L764.309,6000.13C774.096,6000.13 782.042,5993.24 782.042,5984.74L782.042,5841.94Z" style="fill:#aa7921;"/>
                    </g>
                    <g transform="matrix(0.867962,0,0.146805,1,-497.36,0)">
                        <path d="M782.042,5841.94C782.042,5833.45 774.096,5826.55 764.309,5826.55L677.333,5826.55C667.545,5826.55 659.599,5833.45 659.599,5841.94L659.599,5984.74C659.599,5993.24 667.545,6000.13 677.333,6000.13L764.309,6000.13C774.096,6000.13 782.042,5993.24 782.042,5984.74L782.042,5841.94Z" style="fill:#d8a03c;"/>
                    </g>
                </g>
                <g transform="matrix(-1,0,0,1,1060.18,0)">
                    <g transform="matrix(0.867962,0,0.146805,1,-527.633,0)">
                        <path d="M782.042,5841.94C782.042,5833.45 774.096,5826.55 764.309,5826.55L677.333,5826.55C667.545,5826.55 659.599,5833.45 659.599,5841.94L659.599,5984.74C659.599,5993.24 667.545,6000.13 677.333,6000.13L764.309,6000.13C774.096,6000.13 782.042,5993.24 782.042,5984.74L782.042,5841.94Z" style="fill:#aa7921;"/>
                    </g>
                    <g transform="matrix(0.867962,0,0.146805,1,-497.36,0)">
                        <path d="M782.042,5841.94C782.042,5833.45 774.096,5826.55 764.309,5826.55L677.333,5826.55C667.545,5826.55 659.599,5833.45 659.599,5841.94L659.599,5984.74C659.599,5993.24 667.545,6000.13 677.333,6000.13L764.309,6000.13C774.096,6000.13 782.042,5993.24 782.042,5984.74L782.042,5841.94Z" style="fill:#d8a03c;"/>
                    </g>
                </g>
                <path d="M15.706,5880.67L150.692,4855.12C157.123,4806.26 202.014,4766.59 250.875,4766.59L809.536,4766.59C858.397,4766.59 903.288,4806.26 909.719,4855.12L1044.7,5880.67L15.706,5880.67Z" style="fill:#d8a03c;"/>
                <g transform="matrix(0.770726,0,0,0.770726,121.614,1157.34)">
                    <path d="M88.53,6000C39.669,6000 5.221,5960.33 11.653,5911.47L150.692,4855.12C157.123,4806.26 202.014,4766.59 250.875,4766.59L809.536,4766.59C858.397,4766.59 903.288,4806.26 909.719,4855.12L1048.76,5911.47C1055.19,5960.33 1020.74,6000 971.88,6000L88.53,6000Z" style="fill:#424460;"/>
                </g>
                <path d="M626.662,5099.49C628.188,5122.48 630.455,5145.34 632.483,5168.31C632.938,5173.47 633.367,5178.63 633.82,5183.79C631.954,5185.47 630.864,5187.97 631.082,5190.66C631.306,5193.43 632.863,5195.78 635.072,5197.12C636.14,5207.52 637.477,5217.89 639.49,5228.18C641.214,5236.98 643.05,5245.77 644.213,5254.68C644.69,5258.34 645.163,5262.61 646.702,5266.17C648.286,5269.83 650.801,5272.89 654.7,5274.86C660.681,5277.89 669.454,5276.49 675.561,5275.02C686.298,5272.42 696.336,5267.79 706.837,5264.5C711.227,5263.13 713.675,5258.45 712.301,5254.06C710.926,5249.67 706.247,5247.22 701.858,5248.6C691.707,5251.78 682.023,5256.31 671.645,5258.82C669.755,5259.27 667.461,5259.88 665.171,5260.11C664.129,5260.21 663.07,5260.42 662.229,5259.99C661.53,5259.64 661.692,5258.74 661.53,5258.02C661.117,5256.18 660.965,5254.25 660.74,5252.52C659.531,5243.27 657.638,5234.13 655.846,5224.97C654.017,5215.63 652.772,5206.2 651.779,5196.75C660.393,5195.25 668.991,5193.09 677.469,5191.31C681.97,5190.37 684.859,5185.95 683.915,5181.45C682.971,5176.95 678.55,5174.06 674.049,5175C666.183,5176.65 658.213,5178.69 650.225,5180.13C649.844,5175.7 649.476,5171.27 649.085,5166.84C646.975,5142.95 644.602,5119.18 643.088,5095.24C654.006,5092.93 665.29,5091.38 675.91,5089.78C684.221,5088.53 692.475,5086.27 700.916,5086.17C705.515,5086.12 709.206,5082.34 709.154,5077.74C709.102,5073.14 705.326,5069.45 700.727,5069.5C691.521,5069.61 682.497,5071.94 673.433,5073.3C656.766,5075.8 638.561,5078.29 622.371,5083.4C617.985,5084.78 615.547,5089.47 616.931,5093.85C618.239,5098 622.496,5100.4 626.662,5099.49Z" style="fill:#e7e7e8;"/>
                <path d="M542.131,5079.83C542.177,5120.41 545.217,5161.07 547.248,5201.6C547.563,5207.88 547.695,5214.17 548.102,5220.44C548.452,5225.83 549.088,5231.18 549.656,5236.55C550.039,5240.16 550.345,5243.78 550.536,5247.41C550.679,5250.15 550.789,5252.89 550.925,5255.62C551.215,5261.52 551.372,5273.49 554.879,5281.5C557.193,5286.78 560.825,5290.64 565.671,5292.43C571.421,5294.55 577.658,5294.43 583.908,5292.96C591.186,5291.24 598.504,5287.59 604.551,5285.28C613.152,5281.99 622.109,5279.61 630.59,5276.04C634.829,5274.25 636.821,5269.36 635.035,5265.12C633.25,5260.89 628.359,5258.89 624.12,5260.68C615.81,5264.18 607.025,5266.49 598.598,5269.71C593.951,5271.49 588.512,5274.18 582.941,5275.94C579.028,5277.17 575.047,5278.12 571.431,5276.79C570.687,5276.52 570.5,5275.62 570.145,5274.81C569.498,5273.34 569.07,5271.64 568.744,5269.89C567.703,5264.32 567.742,5258.27 567.571,5254.8C567.435,5252.05 567.324,5249.29 567.179,5246.54C566.974,5242.61 566.644,5238.7 566.23,5234.79C565.686,5229.65 565.069,5224.52 564.734,5219.36C564.332,5213.17 564.205,5206.96 563.894,5200.76C561.876,5160.51 558.843,5120.12 558.798,5079.81C558.793,5075.22 555.054,5071.48 550.455,5071.49C545.856,5071.49 542.126,5075.23 542.131,5079.83Z" style="fill:#e7e7e8;"/>
                <path d="M464.714,5257.91C477.567,5249.77 490.601,5241.47 504.249,5234.8C508.173,5259.18 511.817,5283.61 514.599,5308.16C515.117,5312.73 519.248,5316.02 523.818,5315.5C528.388,5314.98 531.678,5310.85 531.16,5306.28C524.725,5249.52 513.71,5193.35 505.235,5136.9C502.957,5121.72 500.926,5106.48 498.571,5091.33C497.953,5087.35 496.896,5080.59 494.342,5075.84C492.558,5072.51 490.092,5069.97 487.114,5068.51C486.622,5068.27 479.71,5065.56 476.095,5072.01C475.711,5072.7 473.987,5076.24 473.881,5076.46C471.508,5081.48 469.521,5086.7 467.921,5092.02C464.095,5104.73 461.047,5117.81 458.685,5130.86C450.743,5174.71 447.554,5218.26 448.091,5262.78C448.326,5282.28 446.153,5303.22 450.353,5322.38C451.338,5326.87 455.785,5329.72 460.277,5328.73C464.77,5327.75 467.618,5323.3 466.633,5318.81C462.672,5300.74 464.978,5280.97 464.756,5262.58C464.738,5261.02 464.724,5259.46 464.714,5257.91ZM501.616,5218.65C497.259,5192.22 492.725,5165.83 488.753,5139.37C486.775,5126.19 484.984,5112.97 483.004,5099.8C479.765,5110.97 477.151,5122.41 475.085,5133.83C468.794,5168.57 465.566,5203.11 464.853,5238.12C475.529,5231.44 486.39,5224.92 497.644,5219.48C498.925,5218.86 500.287,5218.59 501.616,5218.65Z" style="fill:#e7e7e8;"/>
                <path d="M419.955,5125.64C410.798,5096.47 371.321,5083.56 348.624,5106.43C333.069,5122.11 330.706,5146.94 334.427,5167.67C336.631,5179.94 342.697,5192.42 352.184,5200.74C363.444,5210.62 378.704,5215.24 390.772,5224.09C410.894,5238.85 424.522,5271.41 419.22,5296.32C414.496,5318.53 399.664,5336.76 378.118,5341.63C370.484,5343.36 360.322,5342.36 352.789,5339.31C342.501,5335.15 329.094,5318.82 331.431,5300.64C332.018,5296.07 328.79,5291.9 324.229,5291.31C319.667,5290.72 315.487,5293.95 314.901,5298.51C311.486,5325.07 331.51,5348.68 346.539,5354.76C357.023,5359 371.173,5360.29 381.796,5357.89C409.667,5351.58 429.411,5328.52 435.522,5299.79C442.059,5269.07 425.441,5228.85 400.629,5210.65C388.946,5202.09 374.074,5197.77 363.173,5188.21C356.468,5182.33 352.389,5173.4 350.831,5164.72C348.017,5149.05 348.693,5130.03 360.456,5118.17C374.388,5104.13 398.432,5112.73 404.053,5130.64C405.431,5135.02 410.112,5137.47 414.5,5136.09C418.888,5134.71 421.332,5130.03 419.955,5125.64Z" style="fill:#e7e7e8;"/>
                <path d="M345.156,5426.07C452.101,5338.46 562.89,5319.93 696.183,5322.11" style="fill:none;stroke:#e7e7e8;stroke-width:11.74px;"/>
                <g transform="matrix(0.770726,0,0,0.770726,121.614,1157.34)">
                    <path d="M88.53,6000C39.669,6000 5.221,5960.33 11.653,5911.47L150.692,4855.12C157.123,4806.26 202.014,4766.59 250.875,4766.59L809.536,4766.59C858.397,4766.59 903.288,4806.26 909.719,4855.12L1048.76,5911.47C1055.19,5960.33 1020.74,6000 971.88,6000L88.53,6000ZM88.53,5954.64C68.091,5954.64 53.935,5937.83 56.625,5917.39L195.664,4861.04C199.218,4834.04 223.875,4811.95 250.875,4811.95L809.536,4811.95C836.536,4811.95 861.193,4834.04 864.746,4861.04L1003.79,5917.39C1006.48,5937.83 992.319,5954.64 971.88,5954.64L88.53,5954.64Z" style="fill:#aa7921;"/>
                </g>
            </g>
        </g>
    </g>
</svg>
