<?xml version="1.0" encoding="UTF-8" standalone="no"?>
<!DOCTYPE svg PUBLIC "-//W3C//DTD SVG 1.1//EN" "http://www.w3.org/Graphics/SVG/1.1/DTD/svg11.dtd">
<svg width="100%" height="100%" viewBox="0 0 1359 1493" version="1.1" xmlns="http://www.w3.org/2000/svg" xmlns:xlink="http://www.w3.org/1999/xlink" xml:space="preserve" xmlns:serif="http://www.serif.com/" style="fill-rule:evenodd;clip-rule:evenodd;stroke-linejoin:round;stroke-miterlimit:1.5;">
    <g id="box" transform="matrix(1,0,0,1,-310.172,-336.271)">
        <g id="package">
            <path d="M1655.17,1825.11L1655.17,340.435L1603.19,409.719L1571.31,340.435L1529.63,409.719L1486.43,340.435L1445.12,409.719L1404,340.435L1356.47,409.719L1313.28,340.435L1273.1,409.719L1232.36,340.435L1183.88,409.719L1136.91,340.435L1096.17,409.719L1054.11,340.435L1012.04,409.719L975.451,340.435L926.22,409.719L888.495,340.435L844.169,409.719L800.031,340.435L756.27,409.719L709.811,340.435L667.666,408.245L629.941,340.435L584.579,409.719L544.844,340.435L499.379,409.719L456.427,340.435L414.428,409.76L367.641,340.435L323.927,409.719L323.927,1825.11L351.603,1770L383.728,1825.11L415.264,1770L448.567,1825.11L489.239,1770L529.322,1825.11L571.173,1770L604.771,1825.11L638.664,1770L676.389,1825.11L718.535,1770L757.143,1825.11L798.11,1770L837.308,1825.11L875.622,1770L913.642,1825.11L950.777,1770L992.333,1825.11L1030.94,1770L1064.54,1825.11L1100.2,1770L1137.04,1825.11L1171.23,1770L1201,1825.11L1234.6,1770L1273.2,1825.11L1306.51,1770L1344.53,1825.11L1377.83,1770L1416.15,1825.11L1451.45,1770L1487.53,1825.11L1522.89,1770L1567.8,1825.11L1599.76,1770L1655.17,1825.11Z" style="fill:rgb(174,174,174);"/>
            <path d="M1652.23,1828.06C1653.43,1829.25 1655.22,1829.6 1656.77,1828.96C1658.32,1828.31 1659.34,1826.79 1659.34,1825.11L1659.34,340.435C1659.34,338.642 1658.19,337.051 1656.49,336.484C1654.79,335.917 1652.91,336.502 1651.84,337.935L1604.05,401.629C1604.05,401.629 1575.09,338.694 1575.09,338.694C1574.45,337.292 1573.08,336.361 1571.54,336.276C1570,336.191 1568.54,336.965 1567.74,338.288L1529.57,401.745C1529.57,401.745 1489.96,338.231 1489.96,338.231C1489.2,336.999 1487.84,336.256 1486.39,336.27C1484.94,336.285 1483.6,337.055 1482.85,338.302L1445.13,401.572C1445.13,401.572 1407.58,338.309 1407.58,338.309C1406.86,337.087 1405.56,336.319 1404.14,336.272C1402.72,336.226 1401.37,336.907 1400.57,338.079L1356.64,402.113C1356.64,402.113 1316.81,338.232 1316.81,338.232C1316.04,336.991 1314.67,336.247 1313.21,336.271C1311.75,336.294 1310.41,337.081 1309.68,338.346L1273.08,401.46C1273.08,401.46 1235.95,338.324 1235.95,338.324C1235.23,337.102 1233.94,336.329 1232.52,336.273C1231.11,336.217 1229.76,336.886 1228.95,338.047L1183.93,402.377C1183.93,402.377 1140.36,338.098 1140.36,338.098C1139.56,336.915 1138.2,336.226 1136.78,336.272C1135.35,336.318 1134.04,337.092 1133.32,338.324L1096.11,401.599C1096.11,401.599 1057.67,338.274 1057.67,338.274C1056.91,337.03 1055.57,336.27 1054.11,336.27C1052.65,336.27 1051.31,337.029 1050.55,338.273L1012.29,401.278C1012.29,401.278 979.134,338.49 979.134,338.49C978.459,337.211 977.168,336.374 975.725,336.279C974.283,336.184 972.893,336.844 972.056,338.023L926.688,401.869C926.688,401.869 892.153,338.443 892.153,338.443C891.449,337.15 890.114,336.325 888.642,336.273C887.17,336.221 885.78,336.95 884.987,338.19L844.176,401.979C844.176,401.979 803.544,338.197 803.544,338.197C802.777,336.994 801.449,336.267 800.023,336.27C798.597,336.273 797.271,337.005 796.51,338.211L756.166,402.085C756.166,402.085 713.27,338.115 713.27,338.115C712.483,336.941 711.153,336.246 709.739,336.271C708.325,336.295 707.02,337.035 706.274,338.236L667.865,400.035C667.865,400.035 633.581,338.41 633.581,338.41C632.872,337.136 631.548,336.325 630.091,336.273C628.634,336.22 627.255,336.934 626.456,338.154L584.814,401.757C584.814,401.757 548.457,338.363 548.457,338.363C547.737,337.107 546.416,336.315 544.969,336.272C543.522,336.228 542.156,336.94 541.362,338.15L499.479,401.975C499.479,401.975 459.967,338.24 459.967,338.24C459.203,337.009 457.855,336.263 456.406,336.27C454.957,336.277 453.616,337.038 452.865,338.277L414.239,402.034C414.239,402.034 371.093,338.105 371.093,338.105C370.306,336.939 368.984,336.249 367.577,336.27C366.17,336.292 364.869,337.023 364.119,338.213L320.405,407.497C319.985,408.162 319.762,408.932 319.762,409.719L319.762,1825.11C319.762,1827.04 321.088,1828.72 322.967,1829.16C324.845,1829.61 326.783,1828.7 327.649,1826.98L351.876,1778.74C351.876,1778.74 380.13,1827.21 380.13,1827.21C380.879,1828.49 382.257,1829.28 383.745,1829.28C385.232,1829.27 386.604,1828.47 387.343,1827.18L415.362,1778.22C415.362,1778.22 445.002,1827.26 445.002,1827.26C445.721,1828.45 446.986,1829.21 448.375,1829.27C449.764,1829.34 451.093,1828.7 451.918,1827.58L489.214,1777.05C489.214,1777.05 525.954,1827.56 525.954,1827.56C526.729,1828.62 527.962,1829.26 529.279,1829.28C530.596,1829.29 531.842,1828.68 532.639,1827.63L570.796,1777.38C570.796,1777.38 601.215,1827.28 601.215,1827.28C601.969,1828.52 603.313,1829.27 604.763,1829.28C606.213,1829.28 607.559,1828.53 608.319,1827.29L638.851,1777.65C638.851,1777.65 672.952,1827.46 672.952,1827.46C673.707,1828.57 674.944,1829.24 676.279,1829.27C677.615,1829.31 678.886,1828.7 679.697,1827.64L718.388,1777.05C718.388,1777.05 753.732,1827.5 753.732,1827.5C754.499,1828.6 755.747,1829.26 757.084,1829.28C758.422,1829.29 759.687,1828.67 760.486,1827.6L798.036,1777.08C798.036,1777.08 833.914,1827.52 833.914,1827.52C834.7,1828.63 835.974,1829.28 837.33,1829.28C838.686,1829.27 839.954,1828.6 840.728,1827.49L875.609,1777.32C875.609,1777.32 910.214,1827.48 910.214,1827.48C910.996,1828.61 912.288,1829.28 913.665,1829.28C915.042,1829.27 916.326,1828.58 917.096,1827.44L950.968,1777.17C950.968,1777.17 989.007,1827.62 989.007,1827.62C989.81,1828.68 991.073,1829.3 992.406,1829.27C993.739,1829.25 994.979,1828.59 995.744,1827.5L1030.7,1777.6C1030.7,1777.6 1060.98,1827.28 1060.98,1827.28C1061.73,1828.5 1063.05,1829.26 1064.48,1829.28C1065.92,1829.29 1067.26,1828.58 1068.04,1827.37L1100.26,1777.58C1100.26,1777.58 1133.58,1827.42 1133.58,1827.42C1134.36,1828.6 1135.69,1829.3 1137.11,1829.27C1138.53,1829.25 1139.83,1828.51 1140.58,1827.31L1170.98,1778.3C1170.98,1778.3 1197.34,1827.09 1197.34,1827.09C1198.04,1828.4 1199.4,1829.24 1200.89,1829.27C1202.38,1829.31 1203.78,1828.55 1204.56,1827.28L1234.84,1777.61C1234.84,1777.61 1269.79,1827.5 1269.79,1827.5C1270.6,1828.65 1271.93,1829.32 1273.34,1829.27C1274.75,1829.23 1276.04,1828.47 1276.76,1827.26L1306.74,1777.67C1306.74,1777.67 1341.1,1827.48 1341.1,1827.48C1341.9,1828.64 1343.24,1829.32 1344.66,1829.27C1346.07,1829.23 1347.36,1828.47 1348.1,1827.26L1378.08,1777.65C1378.08,1777.65 1412.73,1827.49 1412.73,1827.49C1413.53,1828.63 1414.84,1829.3 1416.23,1829.27C1417.62,1829.25 1418.91,1828.53 1419.66,1827.36L1451.49,1777.66C1451.49,1777.66 1484.05,1827.39 1484.05,1827.39C1484.82,1828.57 1486.14,1829.28 1487.55,1829.28C1488.96,1829.27 1490.27,1828.55 1491.04,1827.36L1523.29,1777.09C1523.29,1777.09 1564.57,1827.74 1564.57,1827.74C1565.44,1828.8 1566.77,1829.37 1568.13,1829.26C1569.49,1829.15 1570.72,1828.38 1571.4,1827.2L1600.65,1776.76C1600.65,1776.76 1652.23,1828.06 1652.23,1828.06ZM1651.01,1815.09L1602.7,1767.05C1601.78,1766.14 1600.5,1765.7 1599.22,1765.87C1597.93,1766.04 1596.81,1766.79 1596.16,1767.91L1567.22,1817.81C1567.22,1817.81 1526.12,1767.37 1526.12,1767.37C1525.28,1766.33 1523.99,1765.77 1522.65,1765.84C1521.32,1765.92 1520.11,1766.63 1519.38,1767.75L1487.5,1817.45C1487.5,1817.45 1454.93,1767.72 1454.93,1767.72C1454.16,1766.54 1452.84,1765.83 1451.43,1765.84C1450.02,1765.84 1448.7,1766.56 1447.94,1767.75L1416.01,1817.61C1416.01,1817.61 1381.25,1767.62 1381.25,1767.62C1380.44,1766.46 1379.11,1765.79 1377.7,1765.84C1376.29,1765.88 1375,1766.64 1374.27,1767.85L1344.3,1817.44C1344.3,1817.44 1309.94,1767.63 1309.94,1767.63C1309.14,1766.47 1307.8,1765.79 1306.38,1765.84C1304.97,1765.88 1303.68,1766.64 1302.95,1767.85L1272.94,1817.48C1272.94,1817.48 1238.01,1767.61 1238.01,1767.61C1237.2,1766.46 1235.87,1765.79 1234.47,1765.84C1233.06,1765.88 1231.78,1766.63 1231.04,1767.83L1201.22,1816.75C1201.22,1816.75 1174.89,1768.02 1174.89,1768.02C1174.19,1766.71 1172.84,1765.88 1171.36,1765.84C1169.87,1765.79 1168.47,1766.54 1167.69,1767.8L1136.91,1817.42C1136.91,1817.42 1103.66,1767.68 1103.66,1767.68C1102.88,1766.52 1101.57,1765.83 1100.17,1765.84C1098.77,1765.85 1097.46,1766.56 1096.7,1767.74L1064.64,1817.28C1064.64,1817.28 1034.5,1767.83 1034.5,1767.83C1033.77,1766.63 1032.48,1765.88 1031.07,1765.84C1029.67,1765.79 1028.34,1766.46 1027.53,1767.61L992.209,1818.03C992.209,1818.03 954.103,1767.49 954.103,1767.49C953.292,1766.42 952.012,1765.8 950.666,1765.84C949.321,1765.87 948.075,1766.56 947.323,1767.67L913.601,1817.72C913.601,1817.72 879.05,1767.63 879.05,1767.63C878.274,1766.51 876.996,1765.84 875.63,1765.84C874.263,1765.83 872.982,1766.5 872.202,1767.62L837.269,1817.87C837.269,1817.87 801.504,1767.59 801.504,1767.59C800.732,1766.5 799.486,1765.85 798.154,1765.84C796.821,1765.82 795.562,1766.45 794.767,1767.52L757.243,1817.99C757.243,1817.99 721.946,1767.61 721.946,1767.61C721.184,1766.52 719.95,1765.86 718.622,1765.84C717.294,1765.81 716.033,1766.41 715.227,1767.47L676.576,1818.01C676.576,1818.01 642.101,1767.65 642.101,1767.65C641.304,1766.48 639.972,1765.8 638.562,1765.84C637.152,1765.87 635.855,1766.62 635.116,1767.82L604.787,1817.13C604.787,1817.13 574.729,1767.83 574.729,1767.83C574.012,1766.66 572.761,1765.91 571.385,1765.84C570.01,1765.77 568.689,1766.38 567.856,1767.48L529.394,1818.13C529.394,1818.13 492.607,1767.55 492.607,1767.55C491.827,1766.48 490.581,1765.84 489.253,1765.84C487.926,1765.83 486.676,1766.46 485.888,1767.53L448.912,1817.63C448.912,1817.63 418.829,1767.85 418.829,1767.85C418.065,1766.58 416.69,1765.82 415.214,1765.84C413.738,1765.85 412.382,1766.65 411.649,1767.93L383.695,1816.78C383.695,1816.78 355.201,1767.9 355.201,1767.9C354.432,1766.58 353.001,1765.79 351.473,1765.84C349.946,1765.88 348.567,1766.77 347.881,1768.13L328.092,1807.54C328.092,1807.54 328.092,456.957 328.092,410.923C328.092,410.923 367.758,348.054 367.758,348.054C367.758,348.054 410.976,412.09 410.976,412.09C411.77,413.267 413.11,413.959 414.53,413.924C415.95,413.889 417.254,413.133 417.99,411.918L456.468,348.406C456.468,348.406 495.839,411.914 495.839,411.914C496.589,413.122 497.903,413.865 499.325,413.884C500.748,413.902 502.081,413.193 502.861,412.004L544.605,348.39C544.605,348.39 580.966,411.791 580.966,411.791C581.687,413.048 583.008,413.839 584.456,413.882C585.904,413.925 587.27,413.212 588.064,412L629.651,348.481C629.651,348.481 664.026,410.27 664.026,410.27C664.744,411.559 666.09,412.373 667.565,412.409C669.04,412.444 670.424,411.697 671.203,410.444L709.944,348.111C709.944,348.111 752.811,412.039 752.811,412.039C753.595,413.209 754.918,413.903 756.327,413.884C757.736,413.864 759.039,413.134 759.791,411.943L800.046,348.211C800.046,348.21 840.656,411.957 840.656,411.957C841.42,413.156 842.743,413.883 844.165,413.884C845.587,413.885 846.911,413.161 847.677,411.964L888.206,348.615C888.206,348.615 922.562,411.711 922.562,411.711C923.249,412.972 924.538,413.791 925.972,413.877C927.406,413.962 928.783,413.303 929.615,412.131L974.927,348.362C974.927,348.362 1008.36,411.664 1008.36,411.664C1009.06,412.99 1010.42,413.837 1011.92,413.882C1013.41,413.927 1014.82,413.163 1015.6,411.881L1054.11,348.46C1054.11,348.46 1092.61,411.88 1092.61,411.88C1093.37,413.133 1094.73,413.894 1096.2,413.884C1097.66,413.874 1099.02,413.094 1099.76,411.83L1137.16,348.226C1137.16,348.226 1180.43,412.056 1180.43,412.056C1181.2,413.19 1182.48,413.874 1183.85,413.884C1185.22,413.894 1186.51,413.23 1187.29,412.107L1232.06,348.135C1232.06,348.135 1269.51,411.83 1269.51,411.83C1270.26,413.106 1271.63,413.888 1273.11,413.884C1274.59,413.88 1275.96,413.089 1276.7,411.808L1313.41,348.515C1313.41,348.515 1352.94,411.922 1352.94,411.922C1353.68,413.115 1354.97,413.852 1356.38,413.883C1357.78,413.914 1359.11,413.234 1359.9,412.075L1403.75,348.168C1403.75,348.168 1441.54,411.845 1441.54,411.845C1442.29,413.108 1443.65,413.883 1445.12,413.884C1446.58,413.885 1447.94,413.113 1448.7,411.852L1486.51,348.434C1486.51,348.434 1526.1,411.923 1526.1,411.923C1526.86,413.153 1528.21,413.895 1529.66,413.884C1531.11,413.872 1532.45,413.108 1533.2,411.866L1570.82,349.331C1570.82,349.331 1599.41,411.46 1599.41,411.46C1600.02,412.793 1601.29,413.705 1602.75,413.861C1604.21,414.016 1605.64,413.392 1606.52,412.219L1651.01,352.927C1651.01,495.742 1651.01,1815.09 1651.01,1815.09L1651.01,1815.09Z" style="fill:rgb(147,147,147);"/>
            <g id="shadows">
                <g transform="matrix(1.24615,0,0,0.975713,-115.449,24.1241)">
                    <rect x="352.586" y="499.42" width="1068.28" height="1182.05" style="fill:rgb(147,147,147);"/>
                    <path d="M1420.87,499.42L352.586,499.42L352.586,1681.47L1420.87,1681.47L1420.87,499.42ZM1414.18,507.961L1414.18,1672.93L359.273,1672.93L359.273,507.961L1414.18,507.961Z" style="fill:rgb(147,147,147);"/>
                </g>
                <g transform="matrix(1,0,0,-1,0,3464.22)">
                    <path d="M1632.82,1708.2L1632.82,1723.54L339.358,1723.54L339.358,1693.47L346.873,1708.2L359.78,1708.2L375.279,1682.42C385.115,1693.4 397.086,1701.97 411.145,1708.2L422.157,1708.2L439.91,1682.42C449.902,1691.53 462.181,1700.08 476.133,1708.2L496.778,1708.2L516.318,1682.42C527.122,1692.52 540.013,1701.07 554.777,1708.2L581.126,1708.2L596.86,1682.42C602.295,1692.9 612.601,1702.46 624.346,1708.2L647.965,1708.2L665.262,1682.42C675.417,1692.54 687.362,1701.05 700.816,1708.2L729.231,1708.2L747.212,1682.42C757.33,1694.34 767.839,1702.55 778.617,1708.2L808.439,1708.2L827.895,1682.42C834.235,1691.79 846.613,1700.48 858.562,1708.2L885.76,1708.2L902.226,1682.42C909.552,1692.54 919.032,1701.05 930.317,1708.2L961.671,1708.2L981.409,1682.42C988.717,1692.62 998.516,1701.3 1011.19,1708.2L1042.59,1708.2L1057.15,1682.42C1065.16,1692.48 1074.7,1701.02 1085.6,1708.2L1112.35,1708.2L1129.7,1682.42C1134.84,1692.27 1143.03,1700.82 1153.95,1708.2L1182.13,1708.2L1195.76,1682.42C1201.84,1693.34 1209.69,1701.82 1219.07,1708.2L1244.89,1708.2L1262.83,1682.42C1269.14,1692.34 1277.71,1700.76 1287.73,1708.2L1317.27,1708.2L1334.46,1682.42C1342.67,1693.75 1352.43,1702.23 1363.53,1708.2L1389.3,1708.2L1405.99,1682.42C1411.26,1692.82 1420.5,1701.1 1431.96,1708.2L1463.21,1708.2L1478.39,1682.42C1485.28,1695.31 1493.77,1703.14 1503.13,1708.2L1534.98,1708.2L1556.17,1682.42C1562.7,1694.87 1571.72,1702.35 1581.56,1708.2L1609.81,1708.2L1634.58,1682.42L1632.82,1708.2Z" style="fill:rgb(161,161,161);"/>
                </g>
            </g>
            <g id="lines" transform="matrix(1,0,0,1,0,71.7287)">
                <g transform="matrix(1,0,0,1,0,157.057)">
                    <path d="M1655.17,260.291L323.927,260.291" style="fill:none;stroke:rgb(147,147,147);stroke-width:8.33px;"/>
                </g>
                <g transform="matrix(1,0,0,1,0,129.273)">
                    <path d="M1655.17,260.291L323.927,260.291" style="fill:none;stroke:rgb(147,147,147);stroke-width:8.33px;"/>
                </g>
                <g transform="matrix(1,0,0,1,0,1384.66)">
                    <path d="M1655.17,260.291L323.927,260.291" style="fill:none;stroke:rgb(147,147,147);stroke-width:8.33px;"/>
                </g>
                <g transform="matrix(1,0,0,1,0,1356.88)">
                    <path d="M1655.17,260.291L323.927,260.291" style="fill:none;stroke:rgb(147,147,147);stroke-width:8.33px;"/>
                </g>
            </g>
            <g transform="matrix(1,0,0,1,0,210.037)">
                <g id="shadows1" serif:id="shadows">
                    <path d="M336.915,229.899L336.915,208.088L349.268,187.682L388.334,214.648L420.996,214.648L435.386,187.682L468.763,214.648L505.2,214.648L520.726,187.682L555.556,214.648L589.556,214.648L605.871,187.682L642.461,214.648L672.771,214.648L688.069,187.682L729.98,214.648L762.791,214.648L778.162,187.682L816.356,214.648L850.105,214.648L865.991,187.682L901.129,214.648L933.389,214.648L950.598,187.557L989.221,214.648L1020.52,214.648L1034.41,187.682L1078.08,214.648L1103.09,214.648L1117.57,187.682L1158.11,214.648L1190.98,214.648L1209.31,187.682L1248.13,214.648L1281.21,214.648L1295.69,187.682L1342.64,214.648L1363.35,214.648L1381.12,187.682L1420.68,214.648L1454.04,214.648L1468.63,187.682L1515.89,214.648L1537.81,214.648L1552.73,187.682L1583.72,214.648L1608.9,214.648L1628.95,187.682L1620.18,230.134L1590.13,229.899L336.915,229.899Z" style="fill:rgb(157,157,157);"/>
                </g>
            </g>
            <g id="light">
                <g transform="matrix(1,0,0,1,0,209.273)">
                    <path d="M1575.65,177.071C1579.41,186.819 1594.81,204.167 1594.81,204.167L1571.87,150.741C1571.87,150.741 1573.09,170.456 1575.65,177.071ZM980.68,175.775C985.174,185.21 1001.84,201.344 1001.84,201.344L975.738,149.806C975.738,149.806 977.63,169.372 980.68,175.775ZM894.363,175.775C898.857,185.21 915.523,201.344 915.523,201.344L888.602,149.806C888.602,149.806 891.313,169.372 894.363,175.775ZM463.272,175.848C467.856,185.24 487.932,201.214 487.932,201.214L457.263,149.936C457.263,149.936 460.161,169.475 463.272,175.848ZM374.592,175.848C379.177,185.24 400.927,201.214 400.927,201.214L368.584,149.936C368.584,149.936 371.482,169.475 374.592,175.848ZM550.951,175.848C555.536,185.24 573.564,201.214 573.564,201.214L544.943,149.936C544.943,149.936 547.84,169.475 550.951,175.848ZM635.819,175.954C640.532,185.282 657.569,201.023 657.569,201.023L630.497,150.127C630.497,150.127 632.621,169.624 635.819,175.954ZM1062.25,176.141C1067.19,185.351 1084.61,200.674 1084.61,200.674L1055.26,150.476C1055.26,150.476 1058.9,169.891 1062.25,176.141ZM1239.79,176.186C1244.79,185.367 1262.29,200.587 1262.29,200.587L1232.65,150.562C1232.65,150.562 1236.41,169.956 1239.79,176.186ZM1411.81,176.21C1416.83,185.376 1434.38,200.54 1434.38,200.54L1404.59,150.61C1404.59,150.61 1408.4,169.991 1411.81,176.21ZM1321.52,176.21C1326.54,185.376 1344.09,200.54 1344.09,200.54L1314.3,150.61C1314.3,150.61 1318.11,169.991 1321.52,176.21ZM1495.36,176.277C1500.46,185.399 1518.15,200.409 1518.15,200.409L1487.91,150.741C1487.91,150.741 1491.9,170.088 1495.36,176.277ZM808.725,176.379C813.947,185.432 831.828,200.207 831.828,200.207L801.761,150.943C801.761,150.943 805.182,170.236 808.725,176.379ZM1147.39,176.497C1152.75,185.468 1170.86,199.965 1170.86,199.965L1139.21,151.185C1139.21,151.185 1143.75,170.41 1147.39,176.497ZM719.166,176.62C724.671,185.504 743.009,199.708 743.009,199.708L711.703,151.441C711.703,151.441 715.432,170.591 719.166,176.62Z" style="fill:white;"/>
                </g>
                <path d="M1639.22,500.353C1639.68,502.692 1639.77,503.236 1639.54,505.604C1639.31,507.893 1634.59,509.012 1634.59,509.012C1634.59,509.012 1647.61,508.701 1647.83,506.412C1648.14,503.215 1648.02,501.87 1647.38,498.712C1646.93,496.457 1633.93,495.965 1633.93,495.965C1633.93,495.965 1638.76,498.098 1639.22,500.353ZM1638.36,472.31C1638.7,473.913 1638.84,477.427 1638.68,479.058C1638.46,481.347 1632.1,482.744 1632.1,482.744C1632.1,482.744 1646.75,482.164 1646.98,479.876C1647.22,477.385 1647.03,473.02 1646.51,470.572C1646.03,468.323 1631.5,467.973 1631.5,467.973C1631.5,467.973 1637.88,470.061 1638.36,472.31ZM1648.16,369.691C1648.16,369.691 1638.84,438.273 1638.63,440.337C1638.43,442.196 1638.03,444 1636.11,444.961C1634.05,445.988 1618.23,452.753 1618.23,452.753C1618.23,452.753 1637.78,453.443 1639.83,452.416C1643.98,450.347 1645.85,447.04 1646.62,443.195C1647.19,440.345 1647.05,437.143 1647.11,434.189C1647.34,422.306 1647.53,410.427 1647.88,398.546C1648.01,393.946 1648.16,369.691 1648.16,369.691Z" style="fill:white;"/>
                <g transform="matrix(1,0,0,1,0,50.7147)">
                    <path d="M1617.04,446.068C1190.08,458.464 762.807,457.089 335.308,446.068L1617.04,446.068Z" style="fill:rgb(206,206,206);"/>
                </g>
                <g transform="matrix(1,0,0,1,0,24.386)">
                    <path d="M1617.04,446.068C1190.08,458.464 762.807,457.089 335.308,446.068L1617.04,446.068Z" style="fill:rgb(206,206,206);"/>
                </g>
                <g transform="matrix(1,0,0,1,0,-56.0187)">
                    <path d="M1351.95,1841.06C1357.05,1831.94 1372.47,1819.89 1372.47,1819.89L1344.5,1866.6C1344.5,1866.6 1348.49,1847.25 1351.95,1841.06ZM1144.7,1840.52C1149.69,1831.34 1165.13,1818.43 1165.13,1818.43L1137.56,1866.14C1137.56,1866.14 1141.31,1846.75 1144.7,1840.52ZM455.695,1839.73C460.279,1830.33 482.503,1819.88 482.503,1819.88L449.686,1865.64C449.686,1865.64 452.584,1846.1 455.695,1839.73ZM536.512,1839.66C541.097,1830.27 564.712,1819.88 564.712,1819.88L530.504,1865.58C530.504,1865.58 533.402,1846.04 536.512,1839.66ZM1420.37,1838.93C1424.14,1829.19 1445.77,1818.43 1445.77,1818.43L1416.59,1865.26C1416.59,1865.26 1417.82,1845.55 1420.37,1838.93ZM1571.33,1838.93C1575.1,1829.19 1594.14,1818.43 1594.14,1818.43L1567.55,1865.26C1567.55,1865.26 1568.78,1845.55 1571.33,1838.93ZM1491.83,1838.93C1495.6,1829.19 1517.23,1818.43 1517.23,1818.43L1488.05,1865.26C1488.05,1865.26 1489.27,1845.55 1491.83,1838.93ZM1000,1839.28C1004.94,1830.07 1025.43,1818.43 1025.43,1818.43L993.01,1864.94C993.01,1864.94 996.649,1845.53 1000,1839.28ZM765.759,1838.89C770.981,1829.83 791.635,1818.43 791.635,1818.43L758.796,1864.32C758.796,1864.32 762.216,1845.03 765.759,1838.89ZM1279.77,1841.06C1284.79,1831.9 1299.78,1819.89 1299.78,1819.89L1273.73,1864.24C1273.73,1864.24 1276.36,1847.28 1279.77,1841.06ZM1073.62,1838.92C1078.98,1829.95 1093.39,1819.89 1093.39,1819.89L1065.45,1864.24C1065.45,1864.24 1069.98,1845.01 1073.62,1838.92ZM388.175,1838.04C392.262,1828.42 408.359,1819.88 408.359,1819.88L383.528,1864.23C383.528,1864.23 385.401,1844.57 388.175,1838.04ZM685.595,1838.95C691.099,1830.07 711.593,1818.43 711.593,1818.43L678.131,1864.13C678.131,1864.13 681.86,1844.98 685.595,1838.95ZM844.929,1837.95C849.424,1828.52 870.094,1818.43 870.094,1818.43L839.168,1863.92C839.168,1863.92 841.879,1844.35 844.929,1837.95ZM1209.93,1838.1C1214.95,1828.93 1229.3,1818.43 1229.3,1818.43L1202.71,1863.7C1202.71,1863.7 1206.52,1844.31 1209.93,1838.1ZM611.487,1836.85C616.2,1827.52 632.868,1818.43 632.868,1818.43L606.165,1862.67C606.165,1862.67 608.289,1843.18 611.487,1836.85ZM920.813,1836.64C925.307,1827.21 944.899,1818.43 944.899,1818.43L915.871,1862.61C915.871,1862.61 917.763,1843.04 920.813,1836.64Z" style="fill:white;"/>
                </g>
                <g transform="matrix(1,0,0,1,0,58.599)">
                    <path d="M1638.05,1674.28C1638.04,1729.57 1646.85,1737.51 1646.85,1737.51L1646.54,1720.59C1646.54,1720.59 1646.37,1729.54 1646.38,1674.28C1646.38,1671.99 1644.51,1670.12 1642.21,1670.12C1639.91,1670.12 1638.05,1671.98 1638.05,1674.28Z" style="fill:white;"/>
                </g>
                <g transform="matrix(1,0,0,1,0,1250.34)">
                    <path d="M1617.04,446.068C1190.08,458.464 762.807,457.089 335.308,446.068L1617.04,446.068Z" style="fill:rgb(206,206,206);"/>
                </g>
                <g transform="matrix(1,0,0,1,0,1224.01)">
                    <path d="M1617.04,446.068C1190.08,458.464 762.807,457.089 335.308,446.068L1617.04,446.068Z" style="fill:rgb(206,206,206);"/>
                </g>
            </g>
            <g transform="matrix(1,0,0,1,-10.7785,82.7707)">
                <path d="M933.266,1729.21L503.467,316.156L510.158,326.948L554.433,259.477L1005.42,1739.04L1003.11,1742.34L961.556,1687.23L933.266,1729.21ZM1243.49,1690.32L800.635,273.772L810.809,257.664L854.947,326.948L899.274,257.664L936.998,326.948L986.229,257.664L1022.82,326.948L1064.88,257.664L1106.95,326.948L1147.69,257.664L1194.66,326.948L1243.13,257.664L1283.88,326.948L1324.05,257.664L1345.23,291.633L1665.95,1298.4L1665.95,1742.34L1610.54,1687.23L1578.58,1742.34L1533.67,1687.23L1498.31,1742.34L1462.23,1687.23L1426.92,1742.34L1388.61,1687.23L1355.31,1742.34L1317.29,1687.23L1283.98,1742.34L1245.38,1687.23L1243.49,1690.32ZM1566,284.405L1665.95,598.15L1665.95,897.149L1474.41,295.898L1497.21,257.664L1540.4,326.948L1566,284.405Z" style="fill:rgb(208,208,208);fill-opacity:0.25;"/>
            </g>
            <path d="M323.927,1646.53C313.787,1646.53 313.29,1630.14 313.29,1616.53L310.154,562.466C310.154,547.045 315.402,533.483 323.927,533.483L1653.81,533.483C1662.77,533.483 1668.29,547.045 1668.29,562.466L1664.99,1616.53C1664.99,1630.14 1664.47,1646.53 1653.81,1646.53L323.927,1646.53Z" style="fill:rgb(11,11,11);"/>
            <g transform="matrix(1,0,0,1,-10.7785,82.7707)">
                <path d="M322.367,961.918L323.585,1371.18L535.149,1371.18L535.149,1563.76L839.058,1563.76L839.058,1371.18L1167.56,1371.18L1167.56,1563.76L1481.36,1563.76L1481.36,1371.18L1676.28,1371.18L1677.56,961.918L1481.36,961.918L1481.36,1371.18L1167.56,1371.18L1167.56,961.918L839.058,961.918L839.058,1371.18L535.149,1371.18L535.149,961.918L322.367,961.918ZM1481.36,450.712L1664.59,450.712C1673.55,450.712 1679.07,464.275 1679.07,479.696L1678.84,552.607L1481.36,552.607L1481.36,961.868L1167.56,961.868L1167.56,552.607L839.058,552.607L839.058,961.868L535.149,961.868L535.149,552.607L321.15,552.607L320.933,479.696C320.933,464.275 326.181,450.712 334.705,450.712L535.149,450.712L535.149,552.607L839.058,552.607L839.058,450.712L1167.56,450.712L1167.56,552.607L1481.36,552.607L1481.36,450.712Z" style="fill:rgb(97,32,87);"/>
            </g>
        </g>
        <g id="background">
            <g id="book">
                <g transform="matrix(1,0,0,1,-10.7785,82.7707)">
                    <path d="M942.489,1563.76L1057.51,1563.76L1057.51,1055.39C1057.51,1048.38 1051.82,1042.68 1044.8,1042.68L955.199,1042.68C948.184,1042.68 942.489,1048.38 942.489,1055.39L942.489,1563.76Z" style="fill:rgb(0,39,61);"/>
                </g>
                <g transform="matrix(1,0,0,1,-10.7785,82.7707)">
                    <path d="M362.829,1563.76L362.829,1094.99C362.829,1074.01 379.865,1056.97 400.848,1056.97L1599.15,1056.97C1620.13,1056.97 1637.17,1074.01 1637.17,1094.99L1637.17,1563.76L362.829,1563.76Z" style="fill:rgb(0,70,110);"/>
                </g>
                <g transform="matrix(1,0,0,1,-10.7785,82.7707)">
                    <path d="M358.662,1563.76L358.662,1094.99C358.662,1071.71 377.565,1052.8 400.848,1052.8L1599.15,1052.8C1622.43,1052.8 1641.34,1071.71 1641.34,1094.99L1641.34,1563.76L1633.01,1563.76L1633.01,1094.99C1633.01,1076.31 1617.84,1061.14 1599.15,1061.14L400.848,1061.14C382.164,1061.14 366.995,1076.31 366.995,1094.99L366.995,1563.76L358.662,1563.76Z" style="fill:rgb(0,39,61);"/>
                </g>
                <g transform="matrix(3.27226,0,0,2.44024,-932.18,-1449.16)">
                    <path d="M775.867,1070.38L767.011,1055.98C707.054,1074.19 583.86,1121.83 583.86,1121.83C583.86,1121.83 460.686,1076.93 404.218,1054.52L398.049,1070.38L398.049,1268.6L775.867,1268.6L775.867,1070.38Z" style="fill:rgb(170,137,105);"/>
                </g>
                <g transform="matrix(1,0,0,1,-10.7785,82.7707)">
                    <path d="M1614.99,1077.08L1614.99,1563.76L1610.82,1563.76L1610.82,1072.02L1614.99,1077.08ZM1608.22,1068.86L1608.22,1563.76L1604.05,1563.76L1604.05,1063.81L1608.22,1068.86ZM1600.83,1059.9L1600.83,1563.76L1596.66,1563.76L1596.66,1054.85L1600.83,1059.9ZM1593.02,1050.44L1593.02,1563.76L1588.86,1563.76L1588.86,1045.39L1593.02,1050.44ZM400.524,1563.76L396.357,1563.76L396.357,1050.83L400.524,1042.84L400.524,1563.76ZM393.137,1563.76L388.97,1563.76L388.97,1064.99L393.137,1057L393.137,1563.76ZM385.332,1563.76L381.166,1563.76L381.166,1079.95L385.332,1071.97L385.332,1563.76Z" style="fill:rgb(133,100,68);"/>
                </g>
                <g transform="matrix(3.13075,0,0,2.44024,-854.689,-1449.16)">
                    <path d="M776.986,1071.58C776.986,1069.45 776.928,1055.98 776.928,1055.98C776.928,1055.98 766.098,1057.8 764.197,1057.8L585.499,1078L405.748,1056.43C404.122,1056.43 397.579,1054.52 397.579,1054.52L398.049,1268.6L775.889,1268.6L776.986,1071.58Z" style="fill:rgb(189,165,141);"/>
                </g>
                <g transform="matrix(1,0,0,1,-10.7785,82.7707)">
                    <path d="M989.139,1563.76L989.139,1089.41C1103.51,973.671 1254.01,982.432 1401.74,1032.39C1463.79,1053.37 1514.97,1045.98 1555.63,1011.12L1555.63,1563.76L989.139,1563.76Z" style="fill:url(#_Radial1);"/>
                </g>
                <g transform="matrix(-1,0,0,1,1967.5,82.7707)">
                    <path d="M989.139,1563.76L989.139,1089.41C1063.67,998.105 1148.3,962.42 1234.6,967.339C1291.95,970.607 1344.15,1008.05 1401.74,1032.39C1450.07,1052.8 1514.97,1045.98 1555.63,1011.12L1555.63,1563.76L989.139,1563.76Z" style="fill:url(#_Radial2);"/>
                </g>
                <g transform="matrix(1,0,0,1,-10.7785,82.7707)">
                    <path d="M984.972,1084.38L984.972,1563.76L993.305,1563.76L993.305,1085.3L984.972,1084.38Z" style="fill:rgb(156,133,110);"/>
                </g>
            </g>
        </g>
        <g id="Light">
            <path d="M961.132,1646.53L874.715,1646.53L529.435,533.483L615.851,533.483L961.132,1646.53ZM1665.89,1329.3L1664.99,1616.53C1664.99,1630.14 1664.47,1646.53 1653.81,1646.53L1162.19,1646.53L816.908,533.483L1419.02,533.483L1665.89,1329.3ZM1668.08,630.085L1666.68,1075.33L1498.6,533.483L1638.11,533.483L1668.08,630.085Z" style="fill:url(#_Linear3);"/>
            <g transform="matrix(1,0,0,1,-14.5368,0)">
                <path d="M1642.71,570.114L1642.71,1614.78C1642.71,1619.37 1536.17,1631.52 1540.77,1631.52C1545.37,1631.52 1659.37,1634.09 1659.37,1629.49L1659.37,691.429L1662.27,648.684C1668.72,576.534 1667.98,557.343 1662.99,551.495C1662.87,551.356 1658.94,546.7 1655.04,546.537C1560.13,542.574 357.926,547.457 353.509,547.457C353.006,547.457 349.229,554.901 376.375,555.291C396.962,555.587 424.736,556.749 458.168,556.16C489.806,555.603 525.731,555.57 563.884,556.935C572.818,557.255 581.964,556.603 591.252,557.11C642.799,559.92 696.688,560.234 750.837,558.025C798.681,556.073 848.592,558.542 899.211,558.804C954.014,559.088 994.009,556.785 1048.8,561.434C1095.98,565.436 1221.66,562.687 1265.87,558.669C1275.1,557.829 1284.36,558.777 1293.5,558.832C1493.01,560.023 1594.87,563.116 1636.78,564.736C1643.54,564.998 1642.71,569.875 1642.71,570.114Z" style="fill:white;fill-opacity:0.25;"/>
            </g>
        </g>
        <g id="Title">
            <g transform="matrix(1,0,0,1,-10.7785,82.7707)">
                <path d="M1051.24,764.094C1040.29,768.688 1032.95,779.883 1033.82,792.387L1037.26,841.668L1027.68,894.776L1026.49,901.391C1024.05,914.941 1031.47,928.004 1043.64,933.172L1044.27,942.254C1045.38,958.2 1059.23,970.245 1075.18,969.133L1193.29,960.897L1280.83,976.681C1296.56,979.518 1311.63,969.049 1314.47,953.317L1314.72,951.905C1327.89,948.428 1337.17,935.981 1336.19,921.899L1331.71,857.698L1341.13,805.47C1343.42,792.768 1336.9,780.499 1325.94,774.953L1325.74,772.032C1324.64,756.321 1311,744.456 1295.29,745.551L1204.66,751.87L1086.29,730.526C1070.79,727.732 1055.94,738.046 1053.15,753.545L1051.24,764.094Z" style="fill:white;"/>
            </g>
            <g transform="matrix(1,0,0,1,4,0)">
                <g transform="matrix(1,0,0,1,-10.7785,82.7707)">
                    <path d="M363.956,660.823L495.882,896.9C589.937,808.7 692.904,779.7 805.812,816.735C887.559,836.704 964.604,830.221 1035.58,789.592C1109.38,753.665 1187.82,747.92 1272.39,782.017C1368.89,815.987 1444.71,838.364 1490.8,845.945C1512.56,849.525 1531.83,845.181 1546.67,832.294C1654.49,738.684 1659.17,587.7 1539.92,537.686C1521.92,529.894 1500.73,528.572 1477.61,535.895C1384.43,565.397 1328.05,567.572 1264.36,543.896C1150.1,501.423 1080.65,504.993 974.468,553.702C921.473,578.013 872.122,580.371 812.43,550.441C625.275,456.603 455.913,497.309 363.956,660.823Z" style="fill:rgb(0,170,255);"/>
                </g>
                <g transform="matrix(1,0,0,1,-10.7785,82.7707)">
                    <path d="M363.956,660.823L495.882,896.9C589.937,808.7 692.904,779.7 805.812,816.735C887.559,836.704 964.604,830.221 1035.58,789.592C1109.38,753.665 1187.82,747.92 1272.39,782.017C1368.89,815.987 1444.71,838.364 1490.8,845.945C1512.56,849.525 1531.83,845.181 1546.67,832.294C1654.49,738.684 1659.17,587.7 1539.92,537.686C1521.92,529.894 1500.73,528.572 1477.61,535.895C1384.43,565.397 1328.05,567.572 1264.36,543.896C1150.1,501.423 1080.65,504.993 974.468,553.702C921.473,578.013 872.122,580.371 812.43,550.441C625.275,456.603 455.913,497.309 363.956,660.823ZM373.525,660.863C418.106,583.7 480.642,535.275 554.473,517.22C630.017,498.746 717.16,511.996 808.694,557.891C871.042,589.152 922.59,586.669 977.943,561.276C1081.79,513.64 1149.71,510.169 1261.45,551.707C1326.77,575.984 1384.58,574.089 1480.12,543.84C1501.09,537.202 1520.29,538.271 1536.61,545.334C1536.64,545.347 1536.67,545.359 1536.7,545.371C1650.28,593.005 1643.9,736.845 1541.21,826.001C1528.19,837.303 1511.23,840.861 1492.15,837.722C1446.38,830.195 1371.13,807.936 1275.33,774.218C1188.41,739.225 1107.79,745.171 1031.93,782.1C1031.76,782.181 1031.6,782.268 1031.44,782.36C962.448,821.853 887.55,828.059 808.101,808.715C695.442,771.874 592.358,798.818 498.013,883.63C473.934,840.543 373.525,660.863 373.525,660.863Z"/>
                </g>
                <g transform="matrix(1,0,0,1,-10.7785,82.7707)">
                    <path d="M345.797,650.61C342.241,656.934 342.231,664.652 345.77,670.986L477.696,907.063C480.823,912.659 486.352,916.504 492.687,917.487C499.022,918.47 505.456,916.482 510.133,912.097C597.949,829.747 693.9,801.952 799.319,836.53C799.83,836.698 800.347,836.845 800.869,836.973C887.832,858.216 969.765,851.053 1045.3,808.029C1113.66,774.932 1186.3,769.771 1264.6,801.339C1264.88,801.456 1265.18,801.566 1265.47,801.669C1363.52,836.183 1440.59,858.8 1487.42,866.502C1515.88,871.183 1540.92,864.879 1560.33,848.025C1680.96,743.292 1681.43,574.526 1548.08,518.515C1525.89,508.946 1499.81,507.013 1471.32,516.034C1384.05,543.666 1331.28,546.544 1271.62,524.368C1151.07,479.559 1077.8,483.378 965.781,534.766C918.681,556.373 874.82,558.418 821.767,531.818C723.083,482.338 628.989,468.971 547.545,488.888C465.025,509.068 394.926,563.253 345.797,650.61ZM363.956,660.823L495.882,896.9C589.937,808.7 692.904,779.7 805.812,816.735C887.559,836.704 964.604,830.221 1035.58,789.592C1109.38,753.665 1187.82,747.92 1272.39,782.017C1368.89,815.987 1444.71,838.364 1490.8,845.945C1512.56,849.525 1531.83,845.181 1546.67,832.294C1654.49,738.684 1659.17,587.7 1539.92,537.686C1521.92,529.894 1500.73,528.572 1477.61,535.895C1384.43,565.397 1328.05,567.572 1264.36,543.896C1150.1,501.423 1080.65,504.993 974.468,553.702C921.473,578.013 872.122,580.371 812.43,550.441C625.275,456.603 455.913,497.309 363.956,660.823Z" style="fill:white;"/>
                </g>
                <g id="wonderland">
                    <g transform="matrix(1,0,0,1,-10.7785,82.7707)">
                        <path d="M406.522,666.919C412.084,646.524 422.532,631.83 435.939,620.587L497.945,741.825L468.451,591.676C480.14,579.941 492.974,573.069 506.755,570.226L584.661,703.035L553.252,550.587C566.619,542.84 581.563,538.512 598.067,537.563L643.976,767.112L590.734,783.965L535.194,710.806L551.006,805.798L507.616,838.648L406.522,666.919Z" style="fill:rgb(254,242,128);"/>
                    </g>
                    <g transform="matrix(1,0,0,1,-13.8527,81.746)">
                        <path d="M615.448,536.612L661.008,765.148C687.436,759.632 724.495,755.994 751.968,764.075L710.218,544.213C681.554,534.718 646.726,530.417 615.448,536.612ZM652.346,572.985L682.042,728.406C696.19,726.581 708.555,727.261 722.306,728.767L692.891,577.543C677.575,572.936 664.109,571.5 652.346,572.985Z" style="fill:rgb(254,242,128);"/>
                    </g>
                    <g transform="matrix(1,0,0,1,-10.7785,82.7707)">
                        <path d="M760.213,766.153L791.623,775.255L767.929,651.844L808.944,777.765L841.263,788.434L822.123,591.378L796.392,577.572L813.266,722.836L759.366,559.059L719.232,546.507L760.213,766.153Z" style="fill:rgb(254,242,128);"/>
                    </g>
                    <g transform="matrix(1,0,0,1,-10.7785,82.7707)">
                        <path d="M834.007,594.83L853.009,790.629C872.824,798.817 895.567,797.504 913.708,793.14C936.388,788.434 928.89,617.707 889.547,608.95C869.651,606.811 850.904,602.539 834.007,594.83ZM860.534,632.201L874.097,771.679L894.736,773.248C911.608,774.517 900.836,642.518 880.206,636.753L860.534,632.201Z" style="fill:rgb(254,242,128);"/>
                    </g>
                    <g transform="matrix(1,0,0,1,-10.7785,82.7707)">
                        <path d="M908.243,608.613C934.399,658.62 943.321,736.421 930.082,791.36C959.671,789.339 991.199,776.323 1016.61,760.078C1019.24,749.434 1020.41,740.069 1021.3,729.453L970.874,750.003C972.958,736.724 972.75,724.59 971.502,712.977L1018.25,695.28C1018.26,683.541 1018.07,671.434 1012.72,661.837L965.54,678.147C964.706,662.877 960.594,647.606 953.93,632.335L1001.84,610.824C998.573,601.357 991.818,590.84 985.225,579.19C954.847,594.94 926.84,606.251 908.243,608.613Z" style="fill:rgb(254,242,128);"/>
                    </g>
                    <g transform="matrix(1,0,0,1,-10.7785,82.7707)">
                        <path d="M1023.72,756.317C1037.01,698.414 1029.41,638.769 992.5,576.683L1043.81,559.987C1098.81,538.521 1134.48,626.085 1081.65,651.532L1150.22,723.382C1135.98,723.19 1120.95,723.306 1105.64,727.399L1058.63,674.75L1063.89,739.83C1046.69,744.848 1040.91,748.502 1023.72,756.317ZM1033.29,593.64C1039.98,604.911 1046.03,621.189 1049.39,636.457C1069.3,631.631 1083.71,619.374 1076.27,599.573C1070.2,583.439 1050.69,586.823 1033.29,593.64Z" style="fill:rgb(254,242,128);"/>
                    </g>
                    <g transform="matrix(1,0,0,1,-10.7785,82.7707)">
                        <path d="M1098.81,546.507L1158.44,722.327C1187.18,722.79 1204.66,721.748 1232.47,731.352L1219.81,692.766C1205.86,686.511 1195.6,685.96 1185.08,685.96L1139.26,546.507C1125.98,542.584 1112.48,543.022 1098.81,546.507Z" style="fill:rgb(254,242,128);"/>
                    </g>
                    <g transform="matrix(1,0,0,1,18.3614,92.7671)">
                        <path d="M1212.52,724.417L1157.25,546.507C1170.52,545.329 1187.55,549.499 1210.09,561.482L1298.63,754.127L1269.75,742.163L1232.47,658.59L1218.65,657.733L1242.61,733.957C1232.58,728.759 1222.55,725.326 1212.52,724.417ZM1211.53,634.975L1199.41,596.734L1207.43,598.582L1223,635.999L1211.53,634.975Z" style="fill:rgb(254,242,128);"/>
                    </g>
                    <g transform="matrix(1,0,0,1,5.27388,81.8568)">
                        <path d="M1242.94,580.104L1330.77,772.064L1358.81,782.787L1306.2,655.854L1386.48,787.696L1413.02,794.013L1400.54,594.584C1383.45,598.063 1367,605.79 1347.2,601.822L1381.57,739.499L1294.14,594.542L1242.94,580.104Z" style="fill:rgb(254,242,128);"/>
                    </g>
                    <g transform="matrix(1,0,0,1,-0.782119,82.7707)">
                        <path d="M1429.93,795.282L1421.31,592.307L1471.51,578.281C1482.01,574.191 1506.03,572.905 1513.56,574.78C1627.3,603.094 1568.12,819.083 1484.15,809.401L1429.93,795.282ZM1459.89,763.409L1462.03,623.31L1493.45,614.028C1558.83,615.257 1542.17,763.409 1488.78,769.115L1459.89,763.409Z" style="fill:rgb(254,242,128);"/>
                    </g>
                    <g transform="matrix(1,0,0,1,-14.7785,82.7707)">
                        <path d="M448.106,636.556L426.207,665.925L526.158,827.639L511.616,838.648L410.522,666.919C416.084,646.524 426.532,631.83 439.939,620.587L448.106,636.556ZM1435.7,601.475L1496.94,587.214C1558.47,579.19 1583,631.574 1576.83,698.873C1569.55,750.392 1546.46,789.821 1497.06,809.118L1498.15,809.401C1582.12,819.083 1641.29,603.094 1527.56,574.78C1520.02,572.905 1496.01,574.191 1485.5,578.281L1435.31,592.307L1435.7,601.475ZM838.547,595.074L840.023,615.602L857.009,790.629C860.186,791.942 863.437,793.01 866.73,793.86L850.55,613.179C860.219,608.73 884.206,612.924 898.702,612.595L888.39,608.343C870.617,606.069 853.83,601.966 838.547,595.074ZM1370.01,611.968L1367.25,600.908C1387.05,604.876 1403.5,597.149 1420.59,593.671L1433.08,793.099L1423.03,790.709L1411.49,605.04C1396.65,610.717 1382.89,612.823 1370.01,611.968ZM1334.2,674.112L1378.86,781.873L1366.12,777.001L1310.57,638.57L1314,630.802L1334.2,674.112ZM1477.45,622.891L1476.03,623.31L1473.89,763.409L1502.78,769.115C1513.01,768.021 1521.9,761.692 1529.12,752.16L1529.53,753.201C1519.08,770.533 1497.85,776.658 1464.53,769.571L1466.2,623.025L1476.9,621.521L1477.45,622.891ZM519.063,584.389L490.27,598.851L521.168,769.674L511.761,770.131L491.475,688.526L472.451,591.676C484.14,579.941 496.974,573.069 510.755,570.226L519.063,584.389ZM762.702,558.851L723.232,546.507L764.213,766.153L774.891,769.247L739.72,565.745L762.702,558.851ZM977.943,712.053L975.502,712.977C976.75,724.59 976.958,736.724 974.874,750.003L1025.3,729.453C1024.41,740.069 1023.24,749.434 1020.61,760.078C1016.79,762.52 1012.83,764.888 1008.76,767.159C1010.14,759.808 1011.25,752.526 1012.05,745.322L963.027,764.289C966.469,741.792 966.539,724.619 963.685,712.063L971.583,710.1L977.943,712.053ZM628.482,533.72L688.079,537.006C695.963,538.646 703.61,540.705 710.866,543.097L709.04,546.507C681.476,539.516 656.622,542.158 633.287,548.809L674.674,761.769C670.23,762.487 665.959,763.283 661.934,764.123L616.374,535.587C620.359,534.798 624.401,534.179 628.482,533.72ZM744.792,720.385L750.823,762.469C751.52,762.655 752.21,762.849 752.894,763.051L744.792,720.385ZM825.36,590.969L800.392,577.572L811.925,676.859L826.15,763.007L812.7,598.882L825.36,590.969ZM1193.7,567.158L1190.39,556.504C1203.66,555.325 1220.69,559.496 1243.23,571.478L1329.86,759.983L1316.92,757.073L1236.47,579.19C1220.99,570.501 1206.87,567.027 1193.7,567.158ZM1269.28,592.941L1309.75,603.036L1399.08,751.469L1407.01,751.496L1387.23,714.73L1314.2,593.628L1262.99,579.19L1269.28,592.941ZM1063.94,690.904L1067.89,739.83C1062.47,741.413 1058.18,742.861 1054.31,744.346L1052.43,667.828L1057.52,662.767L1063.94,690.904ZM1268.62,721.286L1275.1,741.881L1265.86,739.427L1265.41,739.249C1265.25,739.189 1265.09,739.129 1264.93,739.068L1264.49,738.9L1243.04,665.653L1246.01,663.193L1268.62,721.286ZM1106.26,556.673L1108.16,556.18C1117,554.595 1125.59,554.98 1133.89,557.637L1177.9,698.879C1189.92,698.45 1201.93,698.425 1213.62,702.998L1220.81,726.686L1235.73,729.091L1223.81,692.766C1209.86,686.511 1199.6,685.96 1189.08,685.96L1143.26,546.507C1129.98,542.584 1116.48,543.022 1102.81,546.507L1106.26,556.673ZM605.306,553.757L577.294,560.388L607.203,726.378L597.798,726.846L573.079,627.406L557.252,550.587C570.619,542.84 585.563,538.512 602.067,537.563L605.306,553.757ZM1003.03,588.211C1000.96,584.372 998.788,580.532 996.5,576.683L1047.81,559.987C1102.81,538.521 1138.48,626.085 1085.65,651.532L1154.22,723.382C1149.25,723.315 1144.18,723.286 1139.03,723.45L1075.97,657.192L1078.86,650.321L1082.64,650.689C1104.31,634.774 1104.61,605.56 1094.04,587.114C1084.87,571.125 1064.71,566.224 1057.09,569.217L1003.03,588.211ZM968.573,627.557L957.93,632.335C964.594,647.606 968.706,662.877 969.54,678.147L1016.72,661.837C1022.07,671.434 1022.26,683.541 1022.25,695.28L1011.85,699.218C1010.83,689.767 1009.97,680.747 1007.51,673.654L958.993,690.702C958.675,670.287 952.687,651.314 944.123,633.936L964.467,625.311L968.573,627.557ZM1234.12,611.661L1244.67,644.971L1256.14,645.996L1252.19,636.511L1262.3,650.405L1262.62,650.756L1259.46,652.959L1238.91,651.447L1223.93,603.86L1226.38,601.028L1234.12,611.661ZM1037.82,593.437L1037.29,593.64C1043.98,604.911 1050.03,621.189 1053.39,636.457C1070.99,632.191 1084.29,622.12 1082,606.162L1085.24,607.095C1087.57,626.987 1074.81,640.426 1046.93,646.988C1043.54,630.075 1037.97,614.169 1029.54,599.586L1031.35,591.574L1037.82,593.437ZM916.914,618.236C938.8,612.943 961.787,604.911 982.437,592.108L994.118,616.089L1005.84,610.824C1002.57,601.357 995.818,590.84 989.225,579.19C958.847,594.94 930.84,606.251 912.243,608.613C913.868,611.719 915.425,614.931 916.914,618.236Z" style="fill:rgb(168,158,58);"/>
                    </g>
                    <g transform="matrix(1,0,0,1,-14.7785,82.7707)">
                        <path d="M410.522,666.919C416.084,646.524 426.532,631.83 439.939,620.587L501.945,741.825L472.451,591.676C484.14,579.941 496.974,573.069 510.755,570.226L588.661,703.035L557.252,550.587C570.619,542.84 585.563,538.512 602.067,537.563L647.976,767.112L594.734,783.965L539.194,710.806L555.006,805.798L511.616,838.648L410.522,666.919ZM415.015,666.337C419.846,649.747 428.128,637.189 438.679,627.274L511.757,770.162L476.973,593.078C486.769,583.709 497.381,577.836 508.707,574.97L597.834,726.906L561.949,552.737C573.095,546.757 585.352,543.189 598.703,541.988L643.158,764.267L596.277,779.107L532.315,694.853L550.482,803.997L512.832,832.501L415.015,666.338L415.015,666.337ZM1443.93,795.282L1435.31,592.307L1485.5,578.281C1496.01,574.191 1520.02,572.905 1527.56,574.78C1641.29,603.094 1582.12,819.083 1498.15,809.401L1443.93,795.282ZM1447.96,792.026C1446.97,768.663 1440.64,619.575 1439.61,595.431L1486.82,582.239L1487.02,582.164C1496.89,578.318 1519.47,577.06 1526.55,578.824C1558.98,586.897 1576.52,611.116 1583.17,640.689C1589.99,671.05 1585.48,706.997 1573.64,737.651C1565.8,757.969 1554.73,775.973 1541.51,788.401C1528.93,800.233 1514.41,806.978 1498.91,805.294C1498.91,805.293 1447.96,792.026 1447.96,792.026ZM838.007,594.83L857.009,790.629C876.824,798.817 899.567,797.504 917.708,793.14C940.388,788.434 932.89,617.707 893.547,608.95C873.651,606.811 854.904,602.539 838.007,594.83ZM1262.99,579.19L1350.82,771.15L1378.86,781.873L1326.25,654.94L1406.53,786.782L1433.08,793.099L1420.59,593.671C1403.5,597.149 1387.05,604.876 1367.25,600.908L1401.62,738.585L1314.2,593.628L1262.99,579.19ZM842.832,601.411C858.295,607.542 875.123,611.143 892.85,613.066C896.091,613.854 898.987,616.117 901.689,619.356C904.891,623.192 907.739,628.358 910.291,634.465C922.854,664.528 927.902,716.605 925.768,752.689C925.003,765.618 923.345,776.453 920.68,783.337C919.94,785.25 919.146,786.817 918.23,787.943C917.786,788.49 917.39,788.951 916.861,789.061L916.797,789.074C900.061,793.099 879.326,794.506 860.91,787.683L842.832,601.411ZM912.243,608.613C938.399,658.62 947.321,736.421 934.082,791.36C963.671,789.339 995.199,776.323 1020.61,760.078C1023.24,749.434 1024.41,740.069 1025.3,729.453L974.874,750.003C976.958,736.724 976.75,724.59 975.502,712.977L1022.25,695.28C1022.26,683.541 1022.07,671.434 1016.72,661.837L969.54,678.147C968.706,662.877 964.594,647.606 957.93,632.335L1005.84,610.824C1002.57,601.357 995.818,590.84 989.225,579.19C958.847,594.94 930.84,606.251 912.243,608.613ZM764.213,766.153L795.623,775.255L771.929,651.844L812.944,777.765L845.263,788.434L826.123,591.378L800.392,577.572L817.266,722.836L763.366,559.059L723.232,546.507L764.213,766.153ZM1270.52,585.644L1311.48,597.191L1412.38,764.501L1372.79,605.912C1388.68,607.334 1402.62,602.177 1416.74,598.797L1428.57,787.742L1409.18,783.13C1400.36,768.63 1329.81,652.773 1329.81,652.773L1322.4,656.536L1371.3,774.522L1353.9,767.867L1270.52,585.644ZM918.509,611.803C936.427,608.253 961.013,598.271 987.588,584.718C992.568,593.337 997.445,601.292 1000.54,608.638L952.462,630.223L954.111,634.002C960.566,648.794 964.571,663.582 965.379,678.375L965.681,683.89L1014.59,666.983C1017.76,674.597 1018.06,683.543 1018.09,692.402L971.015,710.22L971.359,713.423C972.571,724.693 972.78,736.47 970.758,749.358L969.614,756.646L1020.51,735.903C1019.75,743.128 1018.71,750 1016.95,757.461C993.977,771.912 966.113,783.634 939.401,786.69C950.565,733.186 942.237,660.926 918.509,611.803ZM767.838,762.865C767.838,762.865 735.465,589.354 728.598,552.551L760.078,562.396L813.308,724.138L821.405,722.355L805.452,585.015L822.191,593.997L840.498,782.473L816.252,774.469L775.891,650.554L767.837,652.63L790.248,769.359L767.838,762.865ZM885.237,632.714L859.825,626.835L874.289,775.568L898.422,777.403C901.35,777.623 904.142,776.219 906.231,772.643C908.96,767.969 910.674,758.101 911.101,745.556C912.041,718.006 907.508,676.939 899.689,653.37C897.538,646.887 895.101,641.667 892.519,638.224C890.271,635.225 887.788,633.427 885.327,632.74L885.237,632.714ZM1471.91,620.182L1469.67,766.823L1502.59,773.325L1503.22,773.258C1515,771.999 1525.28,764.63 1533.42,753.351C1544.88,737.473 1552.15,713.737 1553.81,690.185C1555.19,670.463 1552.63,650.898 1545.56,636.172C1538.05,620.545 1525.57,610.201 1507.53,609.862L1506.88,609.85L1471.91,620.182ZM864.534,632.201L878.097,771.679L898.736,773.248C915.608,774.517 904.836,642.518 884.206,636.753L864.534,632.201ZM1473.89,763.409L1476.03,623.31L1507.45,614.028C1572.82,615.257 1556.17,763.409 1502.78,769.115L1473.89,763.409ZM1245.66,734.414L1190.39,556.504C1203.66,555.325 1220.69,559.496 1243.23,571.478L1331.77,764.123L1302.89,752.159L1265.61,668.586L1251.8,667.73L1275.75,743.954C1265.72,738.756 1255.69,735.322 1245.66,734.414ZM616.374,535.587L661.934,764.123C688.361,758.607 725.421,754.969 752.894,763.051L711.143,543.188C682.48,533.693 647.652,529.392 616.374,535.587ZM621.288,538.926C649.935,534.147 681.204,538.036 707.51,546.39L747.578,757.387C721.818,751.673 689.745,754.482 665.204,759.217L621.288,538.926ZM1027.71,756.317C1041.01,698.414 1033.41,638.769 996.5,576.683L1047.81,559.987C1102.81,538.521 1138.48,626.085 1085.65,651.532L1154.22,723.382C1139.98,723.19 1124.95,723.306 1109.64,727.399L1062.63,674.75L1067.89,739.83C1050.69,744.848 1044.91,748.502 1027.71,756.317ZM1248.84,730.578L1195.99,560.489C1207.59,560.75 1221.91,565.013 1240.03,574.503C1240.03,574.503 1305.68,717.348 1323.54,756.206L1306.02,748.945L1268.39,664.584L1246,663.196L1268.94,736.178C1262.24,733.404 1255.53,731.475 1248.84,730.578ZM1033.52,749.045C1044.25,694.132 1036.3,637.652 1002.7,579.046L1049.22,563.913L1049.33,563.869C1074.38,554.089 1094.94,569.35 1103.31,589.749C1111.72,610.227 1108.01,636.14 1083.85,647.778L1078.68,650.264L1144.45,719.177C1133.62,719.28 1122.43,719.998 1111.06,722.738L1057.48,662.723L1063.47,736.806C1051.03,740.63 1044.65,743.832 1033.52,749.045ZM652.75,567.826L648.346,568.382L679.612,732.016L683.501,731.514C697.302,729.733 709.364,730.415 722.778,731.884L728.402,732.5L697.426,573.253L695.017,572.528C679.053,567.727 665.011,566.279 652.75,567.826ZM1102.81,546.507L1162.44,722.327C1191.18,722.79 1208.66,721.748 1236.47,731.352L1223.81,692.766C1209.86,686.511 1199.6,685.96 1189.08,685.96L1143.26,546.507C1129.98,542.584 1116.48,543.022 1102.81,546.507ZM653.272,571.96L682.968,727.381C697.116,725.556 709.48,726.236 723.232,727.742L693.817,576.519C678.501,571.912 665.035,570.475 653.272,571.96ZM1108.23,549.534C1118.94,547.345 1129.54,547.222 1140,549.926L1186.06,690.127L1189.08,690.127C1198.66,690.127 1208.01,690.58 1220.43,695.839C1220.43,695.84 1229.97,724.89 1229.97,724.89C1206.91,718.082 1190.24,718.54 1165.44,718.204L1108.23,549.534ZM1226.38,601.03L1241.54,648.875L1262.63,650.759L1243.6,605L1226.38,601.03ZM1244.67,644.971L1232.55,606.73L1240.57,608.578L1256.14,645.996L1244.67,644.971ZM1035.77,589.761L1031.21,591.549L1033.71,595.766C1040.2,606.711 1046.06,622.525 1049.32,637.352L1050.23,641.509L1054.37,640.506C1067.61,637.297 1078.49,630.862 1083.43,621.696C1086.9,615.239 1087.65,607.382 1084.17,598.107C1080.46,588.252 1072.74,584.226 1063.2,583.837C1054.88,583.497 1045.04,586.13 1035.77,589.761ZM1037.29,593.64C1043.98,604.911 1050.03,621.189 1053.39,636.457C1073.3,631.631 1087.71,619.374 1080.27,599.573C1074.2,583.439 1054.69,586.823 1037.29,593.64Z" style="fill:rgb(11,11,11);"/>
                    </g>
                </g>
            </g>
            <g transform="matrix(0.975676,0.219216,-0.219216,0.975676,247.201,-245.487)">
                <g transform="matrix(0.97291,-0.290993,0.313696,1.04882,-262.099,350.394)">
                    <path d="M1301.24,832.842C1301.24,827.693 1296.73,823.512 1291.18,823.512L1060.06,823.512C1054.51,823.512 1050,827.693 1050,832.842L1050,969.681C1050,974.831 1054.51,979.011 1060.06,979.011L1291.18,979.011C1296.73,979.011 1301.24,974.831 1301.24,969.681L1301.24,832.842Z" style="fill:rgb(88,88,88);stroke:black;stroke-width:1.97px;"/>
                </g>
                <g transform="matrix(0.97291,-0.290993,0.300519,1.00476,-251.247,386.676)">
                    <path d="M1301.24,832.842C1301.24,827.693 1296.92,823.512 1291.6,823.512L1059.64,823.512C1054.32,823.512 1050,827.693 1050,832.842L1050,969.681C1050,974.831 1054.32,979.011 1059.64,979.011L1291.6,979.011C1296.92,979.011 1301.24,974.831 1301.24,969.681L1301.24,832.842Z" style="fill:rgb(167,167,167);"/>
                    <path d="M1303.29,832.842C1303.29,826.596 1298.05,821.525 1291.6,821.525L1059.64,821.525C1053.19,821.525 1047.95,826.596 1047.95,832.842L1047.95,969.681C1047.95,975.927 1053.19,980.998 1059.64,980.998L1291.6,980.998C1298.05,980.998 1303.29,975.927 1303.29,969.681L1303.29,832.842ZM1301.24,832.842C1301.24,827.693 1296.92,823.512 1291.6,823.512L1059.64,823.512C1054.32,823.512 1050,827.693 1050,832.842L1050,969.681C1050,974.831 1054.32,979.011 1059.64,979.011L1291.6,979.011C1296.92,979.011 1301.24,974.831 1301.24,969.681L1301.24,832.842Z"/>
                </g>
                <g transform="matrix(1.01457,-0.0432658,0.0466415,1.09373,-72.4255,15.3312)">
                    <path d="M1301.24,832.842C1301.24,827.693 1296.73,823.512 1291.18,823.512L1060.06,823.512C1054.51,823.512 1050,827.693 1050,832.842L1050,969.681C1050,974.831 1054.51,979.011 1060.06,979.011L1291.18,979.011C1296.73,979.011 1301.24,974.831 1301.24,969.681L1301.24,832.842Z" style="fill:rgb(154,154,154);stroke:black;stroke-width:1.97px;"/>
                </g>
                <g transform="matrix(1.01457,-0.0432658,0.0446822,1.04779,-70.812,53.1671)">
                    <path d="M1301.24,832.842C1301.24,827.693 1296.92,823.512 1291.6,823.512L1059.64,823.512C1054.32,823.512 1050,827.693 1050,832.842L1050,969.681C1050,974.831 1054.32,979.011 1059.64,979.011L1291.6,979.011C1296.92,979.011 1301.24,974.831 1301.24,969.681L1301.24,832.842Z" style="fill:white;"/>
                    <path d="M1303.29,832.842C1303.29,826.596 1298.05,821.525 1291.6,821.525L1059.64,821.525C1053.19,821.525 1047.95,826.596 1047.95,832.842L1047.95,969.681C1047.95,975.927 1053.19,980.998 1059.64,980.998L1291.6,980.998C1298.05,980.998 1303.29,975.927 1303.29,969.681L1303.29,832.842ZM1301.24,832.842C1301.24,827.693 1296.92,823.512 1291.6,823.512L1059.64,823.512C1054.32,823.512 1050,827.693 1050,832.842L1050,969.681C1050,974.831 1054.32,979.011 1059.64,979.011L1291.6,979.011C1296.92,979.011 1301.24,974.831 1301.24,969.681L1301.24,832.842Z"/>
                </g>
                <g transform="matrix(0.965926,-0.258819,0.258819,0.965926,-199.215,410.326)">
                    <path d="M1111.64,795.803L1111.13,795.696C1111.74,792.995 1110.37,790.982 1108.14,790.621C1108.63,792.266 1107.99,793.99 1106.89,794.844C1105.33,796.052 1103.11,794.985 1102.36,794.399C1100.64,793.054 1095.05,786.172 1095.03,786.156L1095.12,786.109C1096.02,785.659 1103.1,782.109 1105.08,781.616C1106.01,781.386 1108.46,781.315 1109.4,783.054C1110.06,784.285 1109.94,786.119 1108.82,787.42C1111.01,788.003 1113.08,786.721 1113.62,784.006L1114.13,784.119L1111.64,795.803ZM1093.51,775.54L1091.72,783.924L1091.43,783.862C1091.53,783.09 1091.51,782.535 1091.39,782.198C1091.17,781.6 1090.76,781.238 1090.18,781.113C1089.83,781.039 1089.33,781.058 1088.7,781.171L1088.11,781.274L1084.84,781.857L1083.64,787.472L1085.27,788.511L1085.99,788.999C1086.84,789.581 1087.54,789.929 1088.07,790.043C1088.39,790.11 1088.7,790.103 1089,790.02C1089.3,789.938 1089.56,789.796 1089.78,789.594C1090.08,789.311 1090.31,788.915 1090.46,788.405L1090.76,788.467L1089.54,794.184L1089.25,794.122C1089.32,793.665 1089.29,793.246 1089.17,792.864C1089.04,792.482 1088.8,792.083 1088.43,791.668C1088.14,791.321 1087.75,790.959 1087.26,790.583C1086.76,790.207 1086.01,789.689 1085.01,789.03L1073.97,781.795L1074.12,781.068L1088.72,778.374C1089.82,778.173 1090.61,777.996 1091.1,777.841C1091.59,777.687 1091.97,777.489 1092.25,777.247C1092.45,777.075 1092.62,776.866 1092.75,776.62C1092.89,776.373 1093.05,775.993 1093.22,775.478L1093.51,775.54ZM1084.28,781.95L1077.09,783.221L1083.16,787.156L1084.28,781.95Z" style="fill-rule:nonzero;"/>
                </g>
                <g transform="matrix(-0.984443,-0.175704,-0.175704,0.984443,2479.41,425.418)">
                    <path d="M1111.64,795.803L1111.13,795.696C1111.74,792.995 1110.37,790.982 1108.14,790.621C1108.63,792.266 1107.99,793.99 1106.89,794.844C1105.33,796.052 1103.11,794.985 1102.36,794.399C1100.64,793.054 1095.05,786.172 1095.03,786.156L1095.12,786.109C1096.02,785.659 1103.1,782.109 1105.08,781.616C1106.01,781.386 1108.46,781.315 1109.4,783.054C1110.06,784.285 1109.94,786.119 1108.82,787.42C1111.01,788.003 1113.08,786.721 1113.62,784.006L1114.13,784.119L1111.64,795.803ZM1093.51,775.54L1091.72,783.924L1091.43,783.862C1091.53,783.09 1091.51,782.535 1091.39,782.198C1091.17,781.6 1090.76,781.238 1090.18,781.113C1089.83,781.039 1089.33,781.058 1088.7,781.171L1088.11,781.274L1084.84,781.857L1083.64,787.472L1085.27,788.511L1085.99,788.999C1086.84,789.581 1087.54,789.929 1088.07,790.043C1088.39,790.11 1088.7,790.103 1089,790.02C1089.3,789.938 1089.56,789.796 1089.78,789.594C1090.08,789.311 1090.31,788.915 1090.46,788.405L1090.76,788.467L1089.54,794.184L1089.25,794.122C1089.32,793.665 1089.29,793.246 1089.17,792.864C1089.04,792.482 1088.8,792.083 1088.43,791.668C1088.14,791.321 1087.75,790.959 1087.26,790.583C1086.76,790.207 1086.01,789.689 1085.01,789.03L1073.97,781.795L1074.12,781.068L1088.72,778.374C1089.82,778.173 1090.61,777.996 1091.1,777.841C1091.59,777.687 1091.97,777.489 1092.25,777.247C1092.45,777.075 1092.62,776.866 1092.75,776.62C1092.89,776.373 1093.05,775.993 1093.22,775.478L1093.51,775.54ZM1084.28,781.95L1077.09,783.221L1083.16,787.156L1084.28,781.95Z" style="fill-rule:nonzero;"/>
                </g>
                <g id="pack" transform="matrix(0.292715,-0.0134632,0.0134632,0.292715,861.262,656.474)">
                    <g transform="matrix(1,0,0,1,-10.7785,82.7707)">
                        <path d="M669.645,815.708L669.785,799.985L766.253,799.985C797.763,799.985 827.962,829.184 831.458,865.244L831.458,919.991C830.351,950.155 797.058,989.178 763.517,989.291L720.306,989.291L720.42,1063.43C723.111,1082.32 733.792,1090.19 750.211,1090.15L750.211,1104.9L662.968,1104.9L662.968,1090.01C681.625,1090.57 693.847,1083.28 695.806,1063.43L695.806,856.332C696.589,832.46 692.425,821.101 669.645,815.708ZM720.325,971.688L720.325,815.134L764.08,815.134C793.997,817.575 811.797,843.873 812.726,863.563L812.726,914.346C813.004,952.441 779.388,972.191 763.264,972.038L720.325,971.688Z"/>
                    </g>
                    <g transform="matrix(1,0,0,1,-10.7785,82.7707)">
                        <path d="M785.235,1104.9L872.357,1104.9L872.357,1090.15C850.558,1091.29 842.771,1081.88 846.977,1063.43L861.161,991.305L912.365,991.305L931.948,1063.43C935.925,1083.56 924.549,1091.09 902.857,1090.15L902.857,1104.9L1001.41,1104.9L1001.41,1090.15C980.056,1091.07 963.475,1085.21 958.069,1063.43L887.652,799.985L884.43,799.985L829.321,1063.43C824.077,1086.53 807.058,1091.72 785.594,1090.15L785.235,1104.9ZM864.669,974.53L908.838,974.53L883.983,869.093L864.669,974.53Z"/>
                    </g>
                    <g transform="matrix(1,0,0,1,-10.7785,82.7707)">
                        <path d="M1139.51,1013.72L1118.59,1013.72L1118.59,1029.67C1118.59,1060.34 1093.69,1085.25 1063.02,1085.25C1032.34,1085.25 1007.44,1060.34 1007.44,1029.67L1007.44,876.351C1007.44,845.678 1032.34,820.774 1063.02,820.774C1093.69,820.774 1118.59,845.678 1118.59,876.351L1118.59,894.984L1139.51,894.984L1139.51,876.482C1139.51,834.262 1105.24,799.985 1063.02,799.985C1020.8,799.985 986.52,834.262 986.52,876.482L986.52,1028.4C986.52,1070.62 1020.8,1104.9 1063.02,1104.9C1105.24,1104.9 1139.51,1070.62 1139.51,1028.4L1139.51,1013.72Z"/>
                    </g>
                    <g transform="matrix(1,0,0,1,453.171,82.7707)">
                        <path d="M669.645,815.708L669.785,799.985L719.505,799.985L720.247,980.132L733.976,980.057L821.369,799.985L839.135,799.985L754.183,979.945L754.05,994.77L799.307,1063.43C812.256,1082.9 831.673,1090.09 854.853,1090.15L855.422,1104.9L762.998,1104.9L763.173,1090.15C783.493,1091.39 788.929,1082.91 777.507,1063.43L733.838,994.647L720.306,994.564L720.42,1063.43C723.111,1082.32 733.792,1090.19 750.211,1090.15L750.211,1104.9L662.968,1104.9L662.968,1090.01C681.625,1090.57 693.847,1083.28 695.806,1063.43L695.806,856.332C696.589,832.46 692.425,821.101 669.645,815.708Z"/>
                    </g>
                </g>
            </g>
        </g>
        <g id="blooks">
            <g transform="matrix(1.31412,-0.161219,0.161954,1.3201,468.189,1161.23)">
                <path d="M300,308.62C300,328.577 283.577,345 263.62,345L36.38,345C16.423,345 0,328.577 0,308.62L0,150.2C0,150.2 1.498,131.554 13.795,109.963C4.765,73.845 19.48,29.977 19.805,29.016L19.75,29L19.81,29L19.805,29.016C21.269,29.443 51.78,38.487 75.972,57.477C95.331,49.854 119.595,45 150,45C180.405,45 204.669,49.854 224.028,57.477C248.221,38.486 278.733,29.442 280.195,29.016L280.19,29L280.25,29L280.195,29.016C280.518,29.969 295.237,73.846 286.205,109.963C298.502,131.554 300,150.2 300,150.2L300,308.62Z" style="fill:rgb(207,160,116);fill-opacity:0.5;fill-rule:nonzero;"/>
            </g>
            <g transform="matrix(1.23357,-0.141564,0.141564,1.23357,484.84,1176.79)">
                <g id="blook_cheshire-cat.svg">
                    <g>
                        <g>
                            <g id="alice_in_wonderland">
                                <path d="M263.62,345L36.38,345C16.423,345 0,328.577 0,308.62L0,259.14L300,259.14L300,308.62C300,328.577 283.577,345 263.62,345Z" style="fill:url(#_Linear4);fill-rule:nonzero;"/>
                                <path d="M300,266.81L282.4,259.14L232.61,259.14L251.61,298.23L251.61,345L263.62,345C283.577,345 300,328.577 300,308.62L300,266.81Z" style="fill:url(#_Linear5);fill-rule:nonzero;"/>
                                <path d="M0,266.81L17.6,259.14L67.39,259.14L48.39,298.23L48.39,345L36.38,345C16.423,345 -0,328.577 -0,308.62L0,266.81Z" style="fill:url(#_Linear6);fill-rule:nonzero;"/>
                                <path d="M150,45C8.45,45 0,150.2 0,150.2L0,262C0,281.957 16.423,298.38 36.38,298.38L263.62,298.38C283.577,298.38 300,281.957 300,262L300,150.2C300,150.2 291.55,45 150,45Z" style="fill:rgb(221,115,153);fill-rule:nonzero;"/>
                                <path d="M200.87,84C220.67,46.09 280.25,29 280.25,29L280.19,29C280.19,29 300.19,87.69 280.37,125.6C280.37,125.6 266.14,127.83 236.66,112.44C207.18,97.05 200.87,84 200.87,84Z" style="fill:rgb(221,115,153);fill-rule:nonzero;"/>
                                <path d="M99.13,84C79.33,46.09 19.75,29 19.75,29L19.81,29C19.81,29 -0.19,87.69 19.63,125.6C19.63,125.6 33.86,127.83 63.34,112.44C92.82,97.05 99.13,84 99.13,84Z" style="fill:rgb(221,115,153);fill-rule:nonzero;"/>
                                <path d="M69.68,82.32C60.14,64.05 31.43,55.8 31.43,55.8C31.43,55.8 21.81,84.08 31.35,102.34C31.35,102.34 38.21,103.42 52.41,96C66.61,88.58 69.68,82.32 69.68,82.32Z" style="fill:rgb(198,44,107);fill-rule:nonzero;"/>
                                <path d="M230.32,82.32C239.86,64.05 268.57,55.8 268.57,55.8C268.57,55.8 278.19,84.08 268.65,102.34C268.65,102.34 261.79,103.42 247.59,96C233.39,88.58 230.32,82.32 230.32,82.32Z" style="fill:rgb(198,44,107);fill-rule:nonzero;"/>
                                <path d="M249.43,140.73L300,151.8L300,150.2C300,150.2 298.46,131.13 285.78,109.2L249.43,140.73Z" style="fill:rgb(161,80,149);fill-rule:nonzero;"/>
                                <path d="M300,238.43L300,190.63L262.49,192.88L300,238.43Z" style="fill:rgb(161,80,149);fill-rule:nonzero;"/>
                                <path d="M263.62,298.39C281.819,298.39 297.358,284.729 299.69,266.68L240.53,244.5L251.58,298.23L251.58,298.39L263.62,298.39Z" style="fill:rgb(161,80,149);fill-rule:nonzero;"/>
                                <path d="M50.57,140.73L0,151.8L0,150.2C0,150.2 1.54,131.13 14.22,109.2L50.57,140.73Z" style="fill:rgb(161,80,149);fill-rule:nonzero;"/>
                                <path d="M0,238.43L0,190.63L37.51,192.88L0,238.43Z" style="fill:rgb(161,80,149);fill-rule:nonzero;"/>
                                <path d="M36.07,298.39C17.871,298.39 2.332,284.729 0,266.68L59.17,244.5L48.11,298.23L48.11,298.39L36.07,298.39Z" style="fill:rgb(161,80,149);fill-rule:nonzero;"/>
                                <path d="M94.22,298.39L205.78,298.39C205.78,298.39 231.7,200.06 150,200.06C68.3,200.06 94.22,298.39 94.22,298.39Z" style="fill:rgb(246,169,203);fill-rule:nonzero;"/>
                                <rect x="94.22" y="298.39" width="111.56" height="46.61" style="fill:rgb(221,115,153);"/>
                                <path d="M150,286.8C111.75,286.8 79.94,278.45 55.44,261.99C35.9,248.85 26.9,234.3 23.94,228.65L21.17,223.38L26.39,226.24C47.19,237.66 85.52,251.24 150,251.24C214.48,251.24 252.81,237.63 273.61,226.24L278.83,223.38L276.06,228.65C273.06,234.3 264.11,248.85 244.56,261.99C220.06,278.45 188.25,286.8 150,286.8Z" style="fill:rgb(245,251,254);fill-rule:nonzero;"/>
                                <path d="M274.47,227.82C268.76,238.71 239.24,285 150,285C60.76,285 31.24,238.71 25.53,227.82C48.31,240.32 87,253.07 150,253.07C213,253.07 251.69,240.32 274.47,227.82M283.18,218.94L272.75,224.67C252.13,236 214.1,249.48 150,249.48C85.9,249.48 47.87,236 27.25,224.67L16.82,218.94L22.35,229.48C25.35,235.25 34.55,250.12 54.44,263.48C79.24,280.14 111.44,288.59 150,288.59C188.56,288.59 220.76,280.14 245.56,263.48C265.45,250.12 274.63,235.25 277.65,229.48L283.18,218.94Z" style="fill:rgb(65,64,66);fill-rule:nonzero;"/>
                                <path d="M42.77,234.8L47.55,255.12L66.91,243.72L74.27,271.89L94.88,250.01L106.5,283.57L123.75,251.87L136.55,286.01L150,250.97" style="fill:none;fill-rule:nonzero;stroke:rgb(209,211,212);stroke-width:3px;stroke-linejoin:bevel;stroke-miterlimit:4;"/>
                                <path d="M257.18,234.8L252.41,255.12L233.04,243.72L225.68,271.89L205.08,250.01L193.46,283.57L176.2,251.87L163.4,286.01L149.95,250.97" style="fill:none;fill-rule:nonzero;stroke:rgb(209,211,212);stroke-width:3px;stroke-linejoin:bevel;stroke-miterlimit:4;"/>
                                <path d="M274.47,227.82C268.76,238.71 239.24,285 150,285C60.76,285 31.24,238.71 25.53,227.82C48.31,240.32 87,253.07 150,253.07C213,253.07 251.69,240.32 274.47,227.82M284.17,217.93L272.55,224.31C252,235.61 214,249.07 150,249.07C86,249.07 48,235.61 27.45,224.31L15.83,217.93L22,229.67C25,235.47 34.27,250.4 54.23,263.82C79.08,280.53 111.31,289 150,289C188.69,289 220.92,280.53 245.79,263.82C265.79,250.4 274.98,235.47 278.02,229.67L284.17,217.93Z" style="fill:rgb(65,64,66);fill-rule:nonzero;"/>
                                <path d="M150,252.63L150,229.56" style="fill:none;fill-rule:nonzero;stroke:rgb(65,64,66);stroke-width:4px;stroke-linejoin:miter;stroke-miterlimit:10;"/>
                                <path d="M127.83,218.69C127.83,228.1 140.7,236.93 150,236.93C159.3,236.93 172.17,226.93 172.17,218.69C172.17,210.45 127.83,209.28 127.83,218.69Z" style="fill:rgb(65,64,66);fill-rule:nonzero;"/>
                                <path d="M279,192.19C279,212.33 262.68,216.32 242.55,216.32C222.42,216.32 206.1,212.32 206.1,192.19C206.1,172.194 222.554,155.74 242.55,155.74C262.546,155.74 279,172.194 279,192.19Z" style="fill:rgb(198,44,107);fill-rule:nonzero;"/>
                                <path d="M93.87,192.19C93.87,212.33 77.55,216.32 57.42,216.32C37.29,216.32 21,212.33 21,192.19C21,172.194 37.454,155.74 57.45,155.74C77.446,155.74 93.9,172.194 93.9,192.19L93.87,192.19Z" style="fill:rgb(198,44,107);fill-rule:nonzero;"/>
                                <path d="M88.29,214.93C80.97,233.69 66.67,225.44 47.92,218.12C29.17,210.8 13.06,207.18 20.38,188.42C25.828,174.463 39.352,165.225 54.335,165.225C74.331,165.225 90.785,181.679 90.785,201.675C90.785,206.21 89.939,210.705 88.29,214.93Z" style="fill:white;fill-rule:nonzero;"/>
                                <path d="M211.71,214.93C219.03,233.69 233.33,225.44 252.08,218.12C270.83,210.8 286.94,207.18 279.62,188.42C274.172,174.463 260.648,165.225 245.665,165.225C225.669,165.225 209.215,181.679 209.215,201.675C209.215,206.21 210.061,210.705 211.71,214.93Z" style="fill:white;fill-rule:nonzero;"/>
                                <path d="M73.44,193C66.208,192.995 60.259,187.042 60.259,179.81C60.259,177.197 61.036,174.641 62.49,172.47C51.16,172.67 47.06,182.76 47.06,195.18C47.06,207.6 51.43,217.9 62.83,217.9C74.23,217.9 78.6,207.71 78.6,195.16C78.6,194.08 78.6,193.01 78.51,191.96C76.905,192.637 75.182,192.991 73.44,193ZM57.44,210.15L57.43,210.15C54.435,210.15 51.97,207.685 51.97,204.69C51.97,201.695 54.435,199.23 57.43,199.23C60.425,199.23 62.89,201.695 62.89,204.69L62.89,204.7C62.879,207.682 60.422,210.13 57.44,210.13L57.42,210.13L57.44,210.15Z" style="fill:rgb(65,64,66);fill-rule:nonzero;"/>
                                <path d="M248.53,193L248.518,193C241.293,193 235.348,187.055 235.348,179.83C235.348,177.212 236.129,174.652 237.59,172.48L237.17,172.48C225.58,172.48 221.4,182.66 221.4,195.2C221.4,207.74 225.77,217.92 237.17,217.92C248.57,217.92 252.94,207.75 252.94,195.2C252.94,194.2 252.94,193.2 252.86,192.27C251.469,192.757 250.004,193.004 248.53,193ZM232.53,210.15C229.535,210.15 227.07,207.685 227.07,204.69C227.07,201.695 229.535,199.23 232.53,199.23C235.525,199.23 237.99,201.695 237.99,204.69L237.99,204.7C237.979,207.682 235.522,210.13 232.54,210.13L232.51,210.13L232.53,210.15Z" style="fill:rgb(65,64,66);fill-rule:nonzero;"/>
                                <g transform="matrix(0.195604,-0.980683,0.980683,0.195604,-61.75,176.04)">
                                    <ellipse cx="76.44" cy="125.66" rx="12.66" ry="18.85" style="fill:rgb(161,80,149);"/>
                                </g>
                                <g transform="matrix(0.843485,-0.537152,0.537152,0.843485,-47.43,136.91)">
                                    <ellipse cx="211.18" cy="149.83" rx="18.85" ry="12.66" style="fill:rgb(161,80,149);"/>
                                </g>
                                <path d="M119.77,70.47L101.53,110.9C101.53,110.9 132.1,115.24 151.38,91.68L150.07,123C150.07,123 189.5,112.2 189.5,78" style="fill:rgb(221,115,153);fill-rule:nonzero;"/>
                                <path d="M119.77,70.47C118.84,74.1 117.77,77.65 116.53,81.17C115.29,84.69 114.06,88.17 112.74,91.63C111.42,95.09 110.01,98.5 108.51,101.88C107.01,105.26 105.45,108.61 103.66,111.88L101.86,108.6C104.041,108.838 106.236,108.928 108.43,108.87C110.667,108.834 112.9,108.677 115.12,108.4C119.556,107.862 123.917,106.826 128.12,105.31C130.203,104.546 132.237,103.654 134.21,102.64C136.176,101.621 138.073,100.475 139.89,99.21C143.506,96.654 146.764,93.627 149.58,90.21L154,84.86L153.71,91.77L152.41,123.05L149.46,120.7C151.76,119.87 154.2,118.8 156.46,117.7C158.72,116.6 161.07,115.39 163.28,114.08C167.695,111.526 171.785,108.447 175.46,104.91C179.095,101.399 182.09,97.281 184.31,92.74C186.603,88.044 188.345,83.097 189.5,78C190.121,80.703 190.333,83.484 190.13,86.25C190.093,86.947 190.017,87.642 189.9,88.33C189.8,89.03 189.71,89.73 189.57,90.41C189.267,91.791 188.873,93.151 188.39,94.48C187.92,95.817 187.366,97.123 186.73,98.39C186.05,99.62 185.38,100.88 184.59,102.05C183.072,104.439 181.324,106.673 179.37,108.72C175.492,112.781 171.033,116.245 166.14,119C163.729,120.375 161.23,121.591 158.66,122.64C156.066,123.722 153.391,124.598 150.66,125.26L147.58,126.12L147.71,122.91L149,91.58L153.15,93.16C150.076,96.899 146.515,100.209 142.56,103C140.572,104.387 138.498,105.647 136.35,106.77C134.194,107.863 131.977,108.832 129.71,109.67C125.182,111.301 120.486,112.421 115.71,113.01C113.327,113.305 110.931,113.475 108.53,113.52L104.91,113.52C103.7,113.52 102.54,113.4 101.22,113.23L98.3,113L99.4,110C100.65,106.51 102.12,103.11 103.67,99.76C105.22,96.41 106.86,93.09 108.56,89.76C110.26,86.43 112,83.2 113.9,80C115.8,76.8 117.66,73.57 119.77,70.47Z" style="fill:rgb(198,44,107);fill-rule:nonzero;"/>
                            </g>
                        </g>
                    </g>
                </g>
            </g>
            <g transform="matrix(1.3086,0.157739,-0.157331,1.30521,1092.63,1122.65)">
                <path d="M300,308.62C300,328.577 283.577,345 263.62,345L36.38,345C16.423,345 0,328.577 0,308.62L0,107.16C0,93.543 7.498,81.663 18.588,75.427C19.712,70.589 21.103,65.752 22.725,60.994C34.985,25.03 67.636,-11.846 91.29,-5.833C112.649,-0.404 119.51,35.734 115.131,68.883L191.008,69.702C186.629,36.553 195.893,3.376 209.713,-1.113C232.918,-8.653 265.015,25.03 277.275,60.994C278.897,65.752 280.288,70.589 281.412,75.427C292.502,81.663 300,93.543 300,107.16L300,308.62Z" style="fill:rgb(207,160,116);fill-opacity:0.5;fill-rule:nonzero;"/>
            </g>
            <g transform="matrix(1.23129,0.160265,-0.160265,1.23129,1104.56,1135.94)">
                <g id="blook_white-rabbit.svg">
                    <g>
                        <g>
                            <g id="alice_in_wonderland1" serif:id="alice_in_wonderland">
                                <path d="M263.62,345L36.38,345C16.423,345 0,328.577 0,308.62L0,259.14L300,259.14L300,308.62C300,328.577 283.577,345 263.62,345Z" style="fill:url(#_Linear7);fill-rule:nonzero;"/>
                                <path d="M177.56,345L122.44,345C117.57,345 106.64,339.29 106.64,308.62L106.64,259.14L193.36,259.14L193.36,308.62C193.36,339.29 182.43,345 177.56,345Z" style="fill:rgb(255,210,0);fill-rule:nonzero;"/>
                                <path d="M300,107.16C300,87.081 283.699,70.78 263.62,70.78L36.38,70.78C16.301,70.78 0,87.081 0,107.16L0,262.02C0,282.099 16.301,298.4 36.38,298.4L263.62,298.4C283.699,298.4 300,282.099 300,262.02L300,107.16Z" style="fill:rgb(255,242,212);"/>
                                <circle cx="242.58" cy="209.68" r="36.45" style="fill:rgb(244,226,206);"/>
                                <circle cx="57.42" cy="209.68" r="36.45" style="fill:rgb(244,226,206);"/>
                                <circle cx="242.58" cy="219.8" r="36.45" style="fill:white;"/>
                                <circle cx="57.42" cy="219.8" r="36.45" style="fill:white;"/>
                                <path d="M89.18,214.51C86.794,216.534 83.764,217.646 80.635,217.646C73.388,217.646 67.425,211.683 67.425,204.436C67.425,201.617 68.328,198.87 70,196.6C68.91,196.442 67.809,196.363 66.708,196.363C54.09,196.363 43.708,206.746 43.708,219.363C43.708,231.981 54.09,242.363 66.708,242.363C79.325,242.363 89.708,231.981 89.708,219.363C89.708,217.732 89.534,216.105 89.19,214.51L89.18,214.51ZM57.18,234.27L57.17,234.27C54.175,234.27 51.71,231.805 51.71,228.81C51.71,225.815 54.175,223.35 57.17,223.35C60.165,223.35 62.63,225.815 62.63,228.81C62.63,231.805 60.165,234.27 57.17,234.27L57.14,234.27L57.18,234.27Z" style="fill:rgb(81,80,70);fill-rule:nonzero;"/>
                                <path d="M255.63,214.38C253.326,216.14 250.505,217.094 247.605,217.094C240.353,217.094 234.385,211.126 234.385,203.874C234.385,201.293 235.142,198.767 236.56,196.61C235.46,196.454 234.351,196.374 233.24,196.37L233.18,196.37C220.563,196.37 210.18,206.752 210.18,219.37C210.18,231.987 220.563,242.37 233.18,242.37C245.797,242.37 256.18,231.987 256.18,219.37C256.18,217.688 255.996,216.012 255.63,214.37L255.63,214.38ZM223.41,234.27C220.415,234.27 217.95,231.805 217.95,228.81C217.95,225.815 220.415,223.35 223.41,223.35C226.405,223.35 228.87,225.815 228.87,228.81C228.87,231.805 226.405,234.27 223.41,234.27Z" style="fill:rgb(81,80,70);fill-rule:nonzero;"/>
                                <circle cx="95.31" cy="227.02" r="23.77" style="fill:rgb(157,198,234);fill-opacity:0.5;"/>
                                <path d="M95.31,205.86C106.918,205.86 116.47,215.412 116.47,227.02C116.47,238.628 106.918,248.18 95.31,248.18C83.702,248.18 74.15,238.628 74.15,227.02L74.15,226.99C74.15,215.387 83.697,205.84 95.3,205.84L95.31,205.84M95.31,200.62L95.3,200.62C80.828,200.62 68.92,212.528 68.92,227C68.92,241.472 80.828,253.38 95.3,253.38C109.772,253.38 121.68,241.472 121.68,227C121.664,212.538 109.772,200.642 95.31,200.62Z" style="fill:rgb(65,64,66);fill-rule:nonzero;"/>
                                <circle cx="204.69" cy="227.02" r="23.77" style="fill:rgb(157,198,234);fill-opacity:0.5;"/>
                                <path d="M204.69,205.86L204.7,205.86C216.308,205.86 225.86,215.412 225.86,227.02C225.86,238.628 216.308,248.18 204.7,248.18C193.092,248.18 183.54,238.628 183.54,227.02L183.54,227C183.54,215.396 193.086,205.845 204.69,205.84M204.69,200.62C190.218,200.62 178.31,212.528 178.31,227C178.31,241.472 190.218,253.38 204.69,253.38C219.162,253.38 231.07,241.472 231.07,227C231.054,212.535 219.155,200.636 204.69,200.62Z" style="fill:rgb(65,64,66);fill-rule:nonzero;"/>
                                <path d="M118.11,225.54C118.11,225.54 127.78,216.32 150,216.32C172.22,216.32 181.84,225.54 181.84,225.54" style="fill:none;fill-rule:nonzero;stroke:rgb(65,64,66);stroke-width:5.2px;stroke-miterlimit:2;"/>
                                <circle cx="149.92" cy="242.23" r="41.85" style="fill:url(#_Radial8);"/>
                                <path d="M150,244.24L150,265.61" style="fill:none;fill-rule:nonzero;stroke:rgb(72,71,73);stroke-width:9px;stroke-miterlimit:2;"/>
                                <path d="M163.15,285.98L150,264.59L136.88,285.95" style="fill:none;fill-rule:nonzero;stroke:rgb(72,71,73);stroke-width:9px;stroke-miterlimit:2;"/>
                                <path d="M170.9,232.3C170.9,232.3 164.3,244.24 150,244.24C135.7,244.24 129.1,232.3 129.1,232.3" style="fill:none;fill-rule:nonzero;stroke:rgb(227,126,162);stroke-width:9px;stroke-linecap:round;stroke-linejoin:miter;stroke-miterlimit:4;"/>
                                <path d="M185.93,70.78C196.22,114.39 218.34,151.88 249.93,140.65C275.22,131.65 283.38,104.77 280.93,74.4C275.965,71.996 270.516,70.758 265,70.78L185.93,70.78Z" style="fill:rgb(244,226,206);fill-rule:nonzero;"/>
                                <path d="M37.77,70.78C31.155,70.777 24.664,72.582 19,76C17,105.7 25.26,131.81 50.12,140.65C81.66,151.88 103.78,114.39 114.12,70.78L37.77,70.78Z" style="fill:rgb(244,226,206);fill-rule:nonzero;"/>
                                <path d="M83.65,1.13C37.24,-13.95 -18.19,126.89 41,148C95.15,167.22 115.42,11.45 83.65,1.13Z" style="fill:rgb(255,242,212);fill-rule:nonzero;"/>
                                <path d="M216.35,1.13C262.76,-13.95 318.19,126.89 259,148C204.85,167.22 184.58,11.45 216.35,1.13Z" style="fill:rgb(255,242,212);fill-rule:nonzero;"/>
                                <path d="M67.69,83.35C48.25,77 25,129.34 49.84,138.18C72.51,146.24 81,87.67 67.69,83.35Z" style="fill:rgb(247,169,175);fill-rule:nonzero;"/>
                                <path d="M232.31,83.35C251.75,77.03 274.98,129.35 250.16,138.18C227.49,146.24 219,87.67 232.31,83.35Z" style="fill:rgb(247,169,175);fill-rule:nonzero;"/>
                                <path d="M14.48,274.7C14.48,274.7 1.71,293.51 11.76,303.56C17.14,308.94 23.95,306.11 29.11,302.32C31.11,306.79 34.33,310.74 39.6,311.82C53.52,314.67 55.82,290.9 55.82,290.9" style="fill:rgb(255,242,212);fill-rule:nonzero;"/>
                                <path d="M14.48,274.7C12.88,278.533 11.664,282.516 10.85,286.59C10.12,290.51 10.06,294.5 11.34,297.59C11.955,299.083 12.918,300.406 14.15,301.45C15.188,302.406 16.514,302.99 17.92,303.11C19.448,303.169 20.969,302.867 22.36,302.23C24.018,301.497 25.591,300.585 27.05,299.51L30.58,297L32.29,300.88C32.907,302.296 33.682,303.638 34.6,304.88C35.462,306.004 36.523,306.96 37.73,307.7C38.928,308.403 40.26,308.846 41.64,309C42.281,309.08 42.929,309.08 43.57,309C44.214,308.871 44.837,308.652 45.42,308.35C47.91,307.12 50.06,304.22 51.7,301.11C53.375,297.836 54.754,294.419 55.82,290.9C55.963,292.795 55.936,294.7 55.74,296.59C55.574,298.516 55.24,300.423 54.74,302.29C54.241,304.239 53.498,306.117 52.53,307.88C51.496,309.846 50.033,311.555 48.25,312.88C47.268,313.582 46.186,314.131 45.04,314.51C43.881,314.874 42.675,315.062 41.46,315.07C39.117,315.089 36.801,314.558 34.7,313.52C32.633,312.494 30.803,311.046 29.33,309.27C28.624,308.427 27.979,307.535 27.4,306.6C26.856,305.684 26.362,304.739 25.92,303.77L31.16,305.16C29.26,306.613 27.175,307.807 24.96,308.71C22.487,309.766 19.781,310.159 17.11,309.85C14.305,309.425 11.722,308.069 9.78,306C7.977,304.14 6.676,301.851 6,299.35C5.39,296.98 5.261,294.511 5.62,292.09C5.964,289.842 6.585,287.645 7.47,285.55C8.322,283.535 9.353,281.601 10.55,279.77C11.702,277.963 13.018,276.266 14.48,274.7Z" style="fill:rgb(207,183,188);fill-rule:nonzero;"/>
                                <path d="M244.18,291.24C244.18,291.24 246.48,315 260.4,312.15C265.67,311.07 268.91,307.15 270.89,302.65C276.05,306.44 282.89,309.28 288.24,303.89C298.29,293.89 285.52,275.04 285.52,275.04" style="fill:rgb(255,242,212);fill-rule:nonzero;"/>
                                <path d="M244.18,291.24C245.244,294.76 246.623,298.177 248.3,301.45C249.93,304.56 252.08,307.45 254.57,308.7C255.159,308.994 255.785,309.21 256.43,309.34C257.071,309.425 257.719,309.425 258.36,309.34C259.74,309.186 261.072,308.743 262.27,308.04C263.477,307.299 264.538,306.343 265.4,305.22C266.323,303.981 267.099,302.639 267.71,301.22L269.42,297.35L272.95,299.83C274.414,300.898 275.986,301.809 277.64,302.55C279.031,303.184 280.552,303.483 282.08,303.42C283.481,303.293 284.802,302.71 285.84,301.76C287.075,300.719 288.039,299.395 288.65,297.9C289.93,294.81 289.87,290.83 289.14,286.9C288.331,282.823 287.118,278.837 285.52,275C287.009,276.558 288.348,278.252 289.52,280.06C290.717,281.891 291.748,283.825 292.6,285.84C293.485,287.935 294.106,290.132 294.45,292.38C294.81,294.801 294.68,297.27 294.07,299.64C293.387,302.161 292.068,304.464 290.24,306.33C288.284,308.379 285.694,309.711 282.89,310.11C281.514,310.289 280.118,310.262 278.75,310.03C277.466,309.826 276.208,309.481 275,309C272.791,308.09 270.711,306.897 268.81,305.45L274.05,304.05C273.61,305.02 273.116,305.965 272.57,306.88C271.991,307.815 271.346,308.707 270.64,309.55C269.16,311.324 267.328,312.771 265.26,313.8C263.161,314.833 260.849,315.36 258.51,315.34C257.295,315.337 256.088,315.148 254.93,314.78C253.787,314.407 252.707,313.861 251.73,313.16C249.946,311.836 248.484,310.127 247.45,308.16C246.482,306.397 245.739,304.519 245.24,302.57C244.274,298.859 243.91,295.017 244.16,291.19L244.18,291.24Z" style="fill:rgb(207,183,188);fill-rule:nonzero;"/>
                                <path d="M19.05,241.33C19.05,241.33 -0.1,253.73 4.82,266.58C9.74,279.43 29.32,267.49 35.58,266.13" style="fill:rgb(255,242,212);fill-rule:nonzero;"/>
                                <path d="M19.05,241.33C17.22,243.48 15.48,245.56 13.87,247.7C12.292,249.74 10.881,251.903 9.65,254.17C8.513,256.17 7.773,258.37 7.47,260.65C7.358,261.65 7.395,262.661 7.58,263.65C7.773,264.59 8.111,265.494 8.58,266.33C8.946,267.045 9.482,267.66 10.14,268.12C10.858,268.623 11.677,268.964 12.54,269.12C14.866,269.459 17.233,269.401 19.54,268.95C22.07,268.58 24.68,267.95 27.35,267.4C28.69,267.12 30.04,266.81 31.42,266.59C32.812,266.306 34.23,266.172 35.65,266.19C33.23,267.59 31.03,269.19 28.65,270.6C26.212,272.067 23.641,273.299 20.97,274.28C18.039,275.428 14.89,275.913 11.75,275.7C9.889,275.525 8.091,274.934 6.49,273.97C4.86,272.928 3.515,271.494 2.58,269.8C1.741,268.24 1.169,266.55 0.89,264.8C0.657,263.083 0.711,261.339 1.05,259.64C1.735,256.526 3.162,253.623 5.21,251.18C7.06,248.916 9.225,246.929 11.64,245.28C12.767,244.446 13.946,243.684 15.17,243C16.413,242.334 17.711,241.775 19.05,241.33Z" style="fill:rgb(207,183,188);fill-rule:nonzero;"/>
                                <path d="M281,241.42C281,241.42 300.15,253.83 295.23,266.67C290.31,279.51 270.73,267.58 264.47,266.22" style="fill:rgb(255,242,212);fill-rule:nonzero;"/>
                                <path d="M281,241.42C282.339,241.872 283.637,242.437 284.88,243.11C286.145,243.76 287.364,244.495 288.53,245.31C290.945,246.959 293.11,248.946 294.96,251.21C297.008,253.653 298.435,256.556 299.12,259.67C299.848,263.13 299.305,266.738 297.59,269.83C296.655,271.524 295.31,272.958 293.68,274C292.079,274.964 290.281,275.555 288.42,275.73C285.28,275.943 282.131,275.458 279.2,274.31C276.528,273.331 273.957,272.099 271.52,270.63C269.09,269.23 266.89,267.63 264.47,266.22C265.89,266.207 267.308,266.341 268.7,266.62C270.08,266.85 271.43,267.15 272.77,267.43C275.44,268 278.05,268.61 280.58,268.98C282.887,269.431 285.254,269.489 287.58,269.15C288.444,268.999 289.264,268.657 289.98,268.15C290.638,267.694 291.174,267.082 291.54,266.37C292.008,265.529 292.345,264.622 292.54,263.68C292.725,262.691 292.762,261.68 292.65,260.68C292.345,258.4 291.605,256.2 290.47,254.2C289.239,251.933 287.828,249.77 286.25,247.73C284.52,245.65 282.78,243.57 281,241.42Z" style="fill:rgb(207,183,188);fill-rule:nonzero;"/>
                                <g transform="matrix(0.843485,-0.537152,0.537152,0.843485,-79.91,53.22)">
                                    <ellipse cx="51.35" cy="163.72" rx="18.85" ry="12.66" style="fill:rgb(207,183,188);"/>
                                </g>
                                <g transform="matrix(0.537152,-0.843485,0.843485,0.537152,-23.02,285.49)">
                                    <ellipse cx="248.65" cy="163.72" rx="12.66" ry="18.85" style="fill:rgb(207,183,188);"/>
                                </g>
                                <path d="M195.67,293.15C198.94,296.81 199.57,302.63 197.67,307.47C195.924,311.785 195.924,316.615 197.67,320.93C199.53,325.77 198.9,331.59 195.67,335.25C192.995,338.451 188.743,339.9 184.67,339C171.16,335.86 153.34,328.93 153.34,314.2C153.34,299.47 171.16,292.54 184.67,289.4C188.743,288.5 192.995,289.949 195.67,293.15Z" style="fill:rgb(206,34,53);fill-rule:nonzero;"/>
                                <path d="M104.33,293.15C101.06,296.81 100.43,302.63 102.33,307.47C104.076,311.785 104.076,316.615 102.33,320.93C100.47,325.77 101.1,331.59 104.33,335.25C107.005,338.451 111.257,339.9 115.33,339C128.84,335.86 146.66,328.93 146.66,314.2C146.66,299.47 128.84,292.54 115.33,289.4C111.257,288.5 107.005,289.949 104.33,293.15Z" style="fill:rgb(206,34,53);fill-rule:nonzero;"/>
                                <ellipse cx="150" cy="314.2" rx="18.96" ry="18.42" style="fill:rgb(140,20,28);"/>
                                <path d="M184.92,300.52C183.036,302.38 181.032,304.114 178.92,305.71C176.86,307.3 174.75,308.77 172.6,310.18C170.45,311.59 168.25,312.91 166.04,314.18L162.71,316L159.31,317.75L159.18,310.54C161.46,311.59 163.72,312.69 165.94,313.87C168.16,315.05 170.36,316.27 172.52,317.59C174.68,318.91 176.8,320.29 178.88,321.79C180.986,323.289 182.99,324.926 184.88,326.69C182.3,326.404 179.741,325.95 177.22,325.33C174.73,324.74 172.29,324.03 169.88,323.27C167.47,322.51 165.1,321.65 162.76,320.73C160.42,319.81 158.11,318.83 155.82,317.81L148.04,314.32L155.7,310.6L159.14,308.92L162.63,307.35C164.98,306.35 167.35,305.35 169.77,304.51C172.19,303.67 174.64,302.83 177.15,302.14C179.7,301.424 182.296,300.883 184.92,300.52Z" style="fill:rgb(140,20,28);fill-rule:nonzero;"/>
                                <path d="M115.08,300.52C117.691,300.894 120.274,301.445 122.81,302.17C125.32,302.86 127.81,303.67 130.19,304.54C132.57,305.41 134.98,306.37 137.33,307.38L140.82,308.95L144.26,310.63L151.92,314.35L144.14,317.84C141.85,318.84 139.54,319.84 137.2,320.76C134.86,321.68 132.48,322.53 130.08,323.3C127.68,324.07 125.23,324.77 122.74,325.36C120.219,325.98 117.66,326.434 115.08,326.72C116.97,324.956 118.974,323.319 121.08,321.82C123.16,320.32 125.29,318.94 127.44,317.62C129.59,316.3 131.8,315.07 134.02,313.9C136.24,312.73 138.5,311.62 140.78,310.57L140.65,317.78L137.25,316.03L133.89,314.18C131.68,312.91 129.47,311.6 127.33,310.18C125.19,308.76 123.07,307.3 121.01,305.71C118.922,304.111 116.941,302.378 115.08,300.52Z" style="fill:rgb(140,20,28);fill-rule:nonzero;"/>
                                <circle cx="11.29" cy="336.49" r="6.47" style="fill:rgb(255,210,0);stroke:rgb(213,137,30);stroke-width:3px;stroke-miterlimit:2;"/>
                                <circle cx="8.37" cy="327.57" r="6.47" style="fill:rgb(255,210,0);stroke:rgb(213,137,30);stroke-width:3px;stroke-miterlimit:2;"/>
                                <circle cx="9.83" cy="317" r="6.47" style="fill:rgb(255,210,0);stroke:rgb(213,137,30);stroke-width:3px;stroke-miterlimit:2;"/>
                                <circle cx="50.49" cy="298.39" r="39.2" style="fill:white;"/>
                                <circle cx="50.49" cy="298.39" r="39.2" style="fill:none;stroke:rgb(213,137,30);stroke-width:11px;stroke-miterlimit:2;"/>
                                <circle cx="50.49" cy="298.39" r="39.2" style="fill:none;stroke:rgb(255,205,5);stroke-width:4px;stroke-linejoin:miter;stroke-miterlimit:4;"/>
                                <path d="M50.49,266.22L50.49,276.19" style="fill:none;fill-rule:nonzero;stroke:rgb(72,71,73);stroke-width:3px;stroke-miterlimit:2;"/>
                                <path d="M50.49,320.6L50.49,330.56" style="fill:none;fill-rule:nonzero;stroke:rgb(72,71,73);stroke-width:3px;stroke-miterlimit:2;"/>
                                <path d="M82.66,298.39L72.7,298.39" style="fill:none;fill-rule:nonzero;stroke:rgb(72,71,73);stroke-width:3px;stroke-miterlimit:2;"/>
                                <path d="M28.28,298.39L18.32,298.39" style="fill:none;fill-rule:nonzero;stroke:rgb(72,71,73);stroke-width:3px;stroke-miterlimit:2;"/>
                                <path d="M73.24,321.14L66.19,314.1" style="fill:none;fill-rule:nonzero;stroke:rgb(72,71,73);stroke-width:3px;stroke-miterlimit:2;"/>
                                <path d="M34.79,282.69L27.74,275.65" style="fill:none;fill-rule:nonzero;stroke:rgb(72,71,73);stroke-width:3px;stroke-miterlimit:2;"/>
                                <path d="M27.74,321.14L34.79,314.1" style="fill:none;fill-rule:nonzero;stroke:rgb(72,71,73);stroke-width:3px;stroke-miterlimit:2;"/>
                                <path d="M66.19,282.69L73.24,275.65" style="fill:none;fill-rule:nonzero;stroke:rgb(72,71,73);stroke-width:3px;stroke-miterlimit:2;"/>
                                <path d="M49.19,298.94C47.96,296.59 46.88,294.17 45.85,291.72C44.82,289.27 43.85,286.81 42.95,284.32C42.05,281.83 41.15,279.32 40.33,276.79C39.51,274.26 38.73,271.72 38.07,269.12C39.49,271.39 40.78,273.73 42.07,276.12C43.36,278.51 44.5,280.84 45.66,283.23C46.82,285.62 47.92,288.03 48.96,290.46C50,292.89 50.96,295.36 51.83,297.88L49.19,298.94Z" style="fill:rgb(65,64,66);fill-rule:nonzero;"/>
                                <path d="M50,296.47C51.337,295.929 52.715,295.494 54.12,295.17C55.51,294.82 56.93,294.56 58.36,294.33C59.79,294.1 61.24,293.94 62.71,293.85C64.193,293.725 65.684,293.705 67.17,293.79C65.926,294.622 64.623,295.361 63.27,296C61.97,296.67 60.64,297.25 59.27,297.81C57.9,298.37 56.57,298.81 55.19,299.28C53.819,299.725 52.414,300.059 50.99,300.28L50,296.47Z" style="fill:rgb(65,64,66);fill-rule:nonzero;"/>
                                <circle cx="50.49" cy="298.39" r="6.28" style="fill:rgb(65,64,66);"/>
                            </g>
                        </g>
                    </g>
                </g>
            </g>
        </g>
    </g>
    <defs>
        <radialGradient id="_Radial1" cx="0" cy="0" r="1" gradientUnits="userSpaceOnUse" gradientTransform="matrix(370.539,0,0,370.438,1249.27,1321.37)"><stop offset="0" style="stop-color:rgb(236,230,217);stop-opacity:1"/><stop offset="0.44" style="stop-color:rgb(223,213,198);stop-opacity:1"/><stop offset="1" style="stop-color:rgb(193,173,153);stop-opacity:1"/></radialGradient>
        <radialGradient id="_Radial2" cx="0" cy="0" r="1" gradientUnits="userSpaceOnUse" gradientTransform="matrix(354.575,0,0,354.479,1249.27,1321.37)"><stop offset="0" style="stop-color:rgb(236,230,217);stop-opacity:1"/><stop offset="0.49" style="stop-color:rgb(225,215,201);stop-opacity:1"/><stop offset="1" style="stop-color:rgb(193,173,153);stop-opacity:1"/></radialGradient>
        <linearGradient id="_Linear3" x1="0" y1="0" x2="1" y2="0" gradientUnits="userSpaceOnUse" gradientTransform="matrix(6.8154e-14,-1113.04,1113.04,6.8154e-14,1000,1646.53)"><stop offset="0" style="stop-color:white;stop-opacity:0.17"/><stop offset="1" style="stop-color:rgb(241,175,230);stop-opacity:0.17"/></linearGradient>
        <linearGradient id="_Linear4" x1="0" y1="0" x2="1" y2="0" gradientUnits="userSpaceOnUse" gradientTransform="matrix(1.19372e-14,-194.95,194.95,1.19372e-14,150,356.11)"><stop offset="0" style="stop-color:rgb(246,169,203);stop-opacity:1"/><stop offset="0.4" style="stop-color:rgb(198,44,107);stop-opacity:1"/><stop offset="1" style="stop-color:rgb(198,44,107);stop-opacity:1"/></linearGradient>
        <linearGradient id="_Linear5" x1="0" y1="0" x2="1" y2="0" gradientUnits="userSpaceOnUse" gradientTransform="matrix(0.3,-170.27,170.27,0.3,266.19,351.17)"><stop offset="0" style="stop-color:rgb(161,80,149);stop-opacity:1"/><stop offset="0.4" style="stop-color:rgb(130,39,120);stop-opacity:1"/><stop offset="1" style="stop-color:rgb(130,39,120);stop-opacity:1"/></linearGradient>
        <linearGradient id="_Linear6" x1="0" y1="0" x2="1" y2="0" gradientUnits="userSpaceOnUse" gradientTransform="matrix(-20.217,-14619.4,14619.4,-20.217,2278.46,30410.6)"><stop offset="0" style="stop-color:rgb(161,80,149);stop-opacity:1"/><stop offset="0.4" style="stop-color:rgb(130,39,120);stop-opacity:1"/><stop offset="1" style="stop-color:rgb(130,39,120);stop-opacity:1"/></linearGradient>
        <linearGradient id="_Linear7" x1="0" y1="0" x2="1" y2="0" gradientUnits="userSpaceOnUse" gradientTransform="matrix(1.19372e-14,-194.95,194.95,1.19372e-14,150,356.11)"><stop offset="0" style="stop-color:rgb(137,206,184);stop-opacity:1"/><stop offset="0.69" style="stop-color:rgb(0,122,149);stop-opacity:1"/><stop offset="1" style="stop-color:rgb(0,122,149);stop-opacity:1"/></linearGradient>
        <radialGradient id="_Radial8" cx="0" cy="0" r="1" gradientUnits="userSpaceOnUse" gradientTransform="matrix(41.85,0,0,41.85,149.92,242.23)"><stop offset="0" style="stop-color:rgb(236,0,140);stop-opacity:0.5"/><stop offset="1" style="stop-color:rgb(182,203,233);stop-opacity:0"/></radialGradient>
    </defs>
</svg>
