<svg id="Layer_1" data-name="Layer 1" xmlns="http://www.w3.org/2000/svg" viewBox="0 0 150 137"><defs><style>.cls-1{fill:#e8971a;}.cls-2{fill:#feda00;}.cls-3{fill:#f5a800;}.cls-4{fill:#fff080;}.cls-5{fill:#fcf2b4;}.cls-6{fill:#fee589;}.cls-7{fill:#fff7ca;}.cls-8{fill:#efd275;}</style></defs><path class="cls-1" d="M62.18,86.58a31.31,31.31,0,0,1-22-9.8c-1.43-1.54-2.78-3.65-2-5.61a4.5,4.5,0,0,1,4.11-2.51,24.08,24.08,0,0,1,5,.7c5.75,1,11.6-.62,17.1-2.57a63.94,63.94,0,0,1,9.41-2.91,16.15,16.15,0,0,1,9.68.84A9.34,9.34,0,0,1,89,72.28a10.16,10.16,0,0,1-3.17,7.44,30.06,30.06,0,0,1-6.79,4.79"/><path class="cls-1" d="M111.94,90.63c2.64,3,3,7.47,1.81,11.23s-3.87,6.9-6.76,9.61-6.1,5.08-8.88,7.9a37.94,37.94,0,0,0-6,8.1c-.83,1.49-1.82,3.24-3.52,3.46-2.28.3-3.82-2.29-4.37-4.52-2.1-8.5.42-17.58,4.93-25a27.59,27.59,0,0,1,7.77-8.76,19.43,19.43,0,0,1,15.18-2.84"/><path class="cls-2" d="M.08,87.73A8.53,8.53,0,0,0,1.74,91.5c2.79,3.7,7.91,5.86,7.91,5.86a53.86,53.86,0,0,0,16.63,4.15,13.83,13.83,0,0,0,4.4,5.34c3.5,2.53,36.83,25.57,78.85-6q3.24-2.41,6.54-5.3,3-2.61,5.63-5.2c-.38-.67-.78-1.31-1.22-1.95a26.86,26.86,0,0,0-8.92-8.38,20.79,20.79,0,0,0-5.1-2c-.58-.15-1.18-.26-1.77-.36a13.13,13.13,0,0,0-1.55-.2c1.48-3.09,1.66-6.75,1.49-10.18a28.32,28.32,0,0,0-1.64-9A18.3,18.3,0,0,0,96.48,50,128.55,128.55,0,0,1,84.92,61.3,105.44,105.44,0,0,1,69.24,72.58C50,83.89,34.33,84.74,30,88.72c-3.87-1.86-10.63-5.37-13.13-8.28s-2.65-3.54-2.9-4.12a3,3,0,0,0-.62-.9c-3.66-2.67-10.37,5-10.37,5C.44,83.1-.25,85.56.08,87.73Z"/><path class="cls-3" d="M.08,87.73A8.53,8.53,0,0,0,1.74,91.5c2.79,3.7,7.91,5.86,7.91,5.86a53.86,53.86,0,0,0,16.63,4.15,13.83,13.83,0,0,0,4.4,5.34c3.5,2.53,36.83,25.57,78.85-6q3.24-2.41,6.54-5.3,3-2.61,5.63-5.2c-.38-.67-.78-1.31-1.22-1.95a26.86,26.86,0,0,0-8.92-8.38,20.79,20.79,0,0,0-5.1-2c-.91.87-1.84,1.72-2.8,2.55a65.61,65.61,0,0,1-7.36,5.55C78.66,97.6,63.09,101.52,51.05,102.18l-.53,0a65.79,65.79,0,0,1-11-.36C34.24,101,31.32,99,27.43,96.42c0,0-10.12-.21-19.52-9.39,3.4-3.4,5.59-7.55,6-10.71a3,3,0,0,0-.62-.9c-3.66-2.67-10.37,5-10.37,5C.44,83.1-.25,85.56.08,87.73Z"/><ellipse class="cls-4" cx="127" cy="18.37" rx="7.87" ry="5.02" transform="translate(73.37 134.95) rotate(-73.53)"/><ellipse class="cls-4" cx="118.8" cy="30.24" rx="3.26" ry="3.14" transform="translate(35.65 120.32) rotate(-61.57)"/><ellipse class="cls-4" cx="42.26" cy="94.34" rx="4.57" ry="7.59" transform="matrix(0, -1, 1, 0, -52.15, 136.44)"/><ellipse class="cls-4" cx="53.18" cy="87.86" rx="2.61" ry="2.51" transform="translate(-49.4 92.8) rotate(-61.57)"/><path class="cls-5" d="M68.7,72.76c5.12-.52,10.17-1.66,15.3-2.17,4.29-.42,8.86-.33,12.63,1.79a13,13,0,0,1,5.28,5.71,12.37,12.37,0,0,1,.76,2.08,3,3,0,0,1,.32.11c.21.08.41.18.62.28a16.12,16.12,0,0,1,9.32,13.75,17.5,17.5,0,0,1-.4,4c1-.82,2.09-1.67,3.14-2.57q3.67-3.12,6.85-6.24C159.86,53,148.64,17.67,147.7,14c-.09-.35-.2-.73-.33-1.12s-.18-.54-.27-.82-.3-.77-.47-1.17c-.28-.66-.6-1.35-.93-2-.08-.15-.15-.29-.23-.42-.17-.32-.34-.63-.53-.94,0,0,0-.06,0-.06-.22-.36-.44-.72-.67-1.07l-.67-.95A14.33,14.33,0,0,0,142,3.63c-.21-.21-.43-.4-.65-.58a6.86,6.86,0,0,0-1.69-1c-.57-.21-1.15-.4-1.72-.55l-.29-.06c-2.87-.63-5.94-.12-9.89,3.21l-1,.86c-4.55,4.23-11.09,24.19-30,44.58a132.39,132.39,0,0,1-11.58,11A120.56,120.56,0,0,1,68.7,72.76Z"/><path class="cls-6" d="M106.06,78.41c-.79.73-1.61,1.45-2.45,2.15a16.12,16.12,0,0,1,9.32,13.75,17.5,17.5,0,0,1-.4,4c1-.82,2.09-1.67,3.14-2.57q3.67-3.12,6.85-6.24C159.86,53,148.64,17.67,147.7,14c-.09-.35-.2-.73-.33-1.12s-.18-.54-.27-.82-.3-.77-.47-1.17c-.28-.66-.6-1.35-.93-2-.08-.15-.15-.29-.23-.42-.17-.32-.34-.63-.53-.94,0,0,0-.06,0-.06-.22-.36-.44-.72-.67-1.07l-.67-.95A14.33,14.33,0,0,0,142,3.63c-.21-.21-.43-.4-.65-.58a6.86,6.86,0,0,0-1.69-1c-.57-.21-1.15-.4-1.72-.55l-.29-.06C137.81,14.4,131.67,54.67,106.06,78.41Z"/><ellipse class="cls-7" cx="127.81" cy="18.75" rx="7.87" ry="4.99" transform="translate(71.79 135.14) rotate(-72.64)"/><ellipse class="cls-7" cx="119.45" cy="30.5" rx="3.26" ry="3.12" transform="translate(35.77 121.03) rotate(-61.57)"/><path class="cls-8" d="M50.53,56.85c6.76-.18,13.06-3.2,19.27-5.86s12.94-5.06,19.61-3.9a19.16,19.16,0,0,1,7.38,3c.1.07.22.15.33.24A19.46,19.46,0,0,1,104,58.83c3.73,6.44,2.36,16.73,2,19.18.27.06.53.1.8.17A22.46,22.46,0,0,1,112,80.31a28.66,28.66,0,0,1,9.34,8.6c.47.65.89,1.31,1.3,2l.21.35a20.93,20.93,0,0,1,2.37,5.37c1.68,6.48-1.25,13.24-4.84,18.9s-8,11-9.64,17.51c-.33,1.29-.69,2.79-1.89,3.37a3.51,3.51,0,0,1-2.95-.31c-4.7-2.32-6.49-8.36-5.62-13.53s3.79-9.69,6.44-14.21c.79-1.33,1.55-2.71,2.24-4.11,1.68-6.12,3.51-18.31-7.25-21.95,0,0-.3-12.06-18.42-11.48h-1.1c-4.28.54-8.52,1.39-12.81,1.86l-.71.09h0c-.74.08-1.45.14-2.19.18-5.88.36-12.1-.44-16.88-3.88a17.75,17.75,0,0,1-4.71-5c-.93-1.52-1.63-3.47-.78-5.05C45.26,56.91,48.16,56.92,50.53,56.85Z"/></svg>