<svg id="Layer_1" data-name="Layer 1" xmlns="http://www.w3.org/2000/svg" viewBox="0 0 150 121"><defs><style>.cls-1{fill:#feda00;}.cls-2{fill:#f5a800;}.cls-3{fill:#fff080;}.cls-4,.cls-5{fill:#d89000;}.cls-4{opacity:0.6;}.cls-5{opacity:0.36;}</style></defs><path class="cls-1" d="M88.57,76.5c.81-1.62,1.56-3.21,2.23-4.78.2-.45.41-.92.59-1.36L91.93,69c.31-.78.6-1.56.88-2.32.19-.54.39-1.09.57-1.63s.41-1.28.61-1.91l.55-1.88c.16-.58.3-1.15.44-1.71s.34-1.41.5-2.11c.06-.32.12-.63.19-1a.9.9,0,0,0,0-.16c.06-.3.11-.6.16-.88s.13-.7.18-1.05.13-.87.2-1.31h0c.1-.69.18-1.38.25-2,0-.34.06-.68.1-1s.05-.66.08-1c0-.66.08-1.3.1-1.95s0-1.28,0-1.9,0-1.28,0-1.92a1.21,1.21,0,0,0,0-.19c0-.23,0-.48,0-.71s0-.7-.07-1.05a4.38,4.38,0,0,0,0-.51c0-.58-.11-1.16-.17-1.72v0c-.07-.5-.13-1-.21-1.47a3.19,3.19,0,0,0,0-.42c0-.16,0-.32-.09-.49-.09-.55-.19-1.11-.3-1.64a.78.78,0,0,1,0-.16h0a4.74,4.74,0,0,0-.1-.49c0-.24-.1-.48-.16-.72l-.11-.51c0-.09-.05-.16-.07-.24-.11-.48-.24-1-.37-1.41s-.31-1.08-.48-1.59S94.13,28.8,94,28.3c-.26-.7-.52-1.39-.78-2,0,0,0,0,0,0-.19-.48-.39-.93-.6-1.37s-.4-.88-.6-1.31-.42-.82-.61-1.21l-.62-1.14c-.22-.41-.46-.8-.68-1.16s-.53-.86-.77-1.26A44,44,0,0,0,85.67,14l-.36-.42-.08-.09-.14-.15c-.12-.12-.25-.25-.38-.4l-.16-.15c-.15-.16-.32-.31-.49-.47L84,12.21c-.42-.38-.89-.77-1.38-1.15-.25-.18-.51-.37-.78-.55s-.33-.24-.5-.34-.24-.16-.37-.23l-.72-.4a.51.51,0,0,0-.16-.09l-.06,0-.12-.05s-.06,0-.1-.07a.76.76,0,0,0-.16-.06l0,0a2.41,2.41,0,0,0-.33-.15L79.15,9s0,0,0,0L79,9s0,0,0,0c-.24-.09-.47-.16-.7-.23a3.81,3.81,0,0,0-.65-.15s0,0,0,0l-.42-.06h0a.94.94,0,0,0-.29,0,1.23,1.23,0,0,0-.27,0c-.45,0-.9.07-1.33.13l-.22,0c-2.13.4-4.06,1.62-5.74,4.9-.15.28-.28.56-.41.85-2.14,4.78.44,24.68-11.52,48.12-.94,1.82-1.89,3.53-2.89,5.14-.19.34-.4.68-.62,1-.6,1-1.2,1.86-1.82,2.74-.17.26-.37.52-.55.78s-.48.66-.72,1-.39.53-.6.79c-.3.42-.62.82-.93,1.21-.52.64-1,1.28-1.57,1.89a77,77,0,0,1-6.78,7c-.53.49-1.06,1-1.57,1.4-1.83,1.59-3.55,3-5.06,4.16-.44.37-.87.7-1.28,1-.88.69-1.69,1.34-2.38,2-.25.21-.48.41-.69.62s-.38.35-.54.52a9.76,9.76,0,0,0-.78.85,3.07,3.07,0,0,0-.27.36,4.9,4.9,0,0,0-.43.7c-3.18-.17-8.8-.62-11.35-1.83a10.27,10.27,0,0,1-3.18-1.93,2.28,2.28,0,0,0-.67-.42c-3.26-.75-5.63,6.11-5.63,6.11-.1.27-.18.53-.26.79a5.5,5.5,0,0,0-.15.65,2.94,2.94,0,0,0-.08.49.65.65,0,0,0,0,.19,25.57,25.57,0,0,0,3.88,2,57.51,57.51,0,0,0,17.11,3.81h0l.76-.21.8-.22a10.44,10.44,0,0,0,4.56,2.3C36.94,108.05,69.27,114.64,88.57,76.5Z"/><path class="cls-2" d="M88.57,76.5c.81-1.62,1.56-3.21,2.23-4.78.2-.45.41-.92.59-1.36L91.93,69c.31-.78.6-1.56.88-2.32.19-.54.39-1.09.57-1.63s.41-1.28.61-1.91l.55-1.88c.16-.58.3-1.15.44-1.71s.34-1.41.5-2.11c.06-.32.12-.63.19-1a.9.9,0,0,0,0-.16c.06-.3.11-.6.16-.88s.13-.7.18-1.05.13-.87.2-1.31h0c.1-.7.18-1.39.26-2.06,0-.34.06-.68.1-1s.05-.66.08-1c0-.66.08-1.3.1-1.95s0-1.28,0-1.9,0-1.28,0-1.92c0-.31,0-.61,0-.9s0-.7-.07-1.05a4.38,4.38,0,0,0,0-.51c0-.58-.11-1.16-.17-1.72v0c-.07-.5-.13-1-.21-1.47a3.19,3.19,0,0,0,0-.42c0-.16,0-.32-.09-.49-.09-.55-.19-1.11-.3-1.64a.78.78,0,0,1,0-.16l-.12-.49c0-.24-.1-.48-.16-.72l-.11-.51c0-.09-.05-.16-.07-.24-.11-.48-.24-1-.37-1.41s-.31-1.08-.48-1.59S94.13,28.8,94,28.3c-.26-.7-.52-1.39-.78-2,0,0,0,0,0,0-.19-.48-.39-.93-.6-1.37s-.4-.88-.6-1.31-.42-.82-.61-1.21l-.62-1.14c-.22-.41-.46-.8-.68-1.16s-.53-.86-.77-1.26A44,44,0,0,0,85.67,14l-.36-.42-.08-.09-.14-.15c-.12-.12-.25-.25-.38-.4l-.16-.15c-.15-.16-.32-.31-.49-.47L84,12.21c-.42-.38-.89-.77-1.38-1.15h0c-.25-.19-.51-.38-.77-.54s-.33-.24-.5-.34-.24-.16-.37-.23l-.28-.17a3.09,3.09,0,0,0-.44-.23.51.51,0,0,0-.16-.09l-.06,0-.12-.05s-.06,0-.1-.07a.76.76,0,0,0-.16-.06l0,0a2.41,2.41,0,0,0-.33-.15L79.15,9s0,0,0,0L79,9s0,0,0,0c-.24-.09-.47-.16-.7-.23a3.81,3.81,0,0,0-.65-.15s0,0,0,0l-.42-.06h0a.94.94,0,0,0-.29,0,1.23,1.23,0,0,0-.27,0c-.45,0-.9.07-1.33.13l-.22,0c4.34,9.11,13.25,41-1,64.49-.54.86-1.09,1.73-1.69,2.57-8.68,12.39-18.15,19.23-26.16,23l-.35.15a48.15,48.15,0,0,1-7.58,2.77c-3.88.88-6.44.37-9.83-.24,0,0-6.95,2.65-16-.82a14.07,14.07,0,0,0,1-8.69,2.28,2.28,0,0,0-.67-.42c-3.26-.75-5.63,6.11-5.63,6.11-.1.27-.18.53-.26.79a5.5,5.5,0,0,0-.15.65,2.94,2.94,0,0,0-.08.49.65.65,0,0,0,0,.19,25.57,25.57,0,0,0,3.88,2,57.51,57.51,0,0,0,17.11,3.81h0l.76-.21.8-.22a10.44,10.44,0,0,0,4.56,2.3C36.94,108.05,69.27,114.64,88.57,76.5Z"/><ellipse class="cls-3" cx="73.6" cy="22.75" rx="3.71" ry="5.61" transform="translate(-2.36 9.91) rotate(-7.58)"/><circle class="cls-3" cx="71.46" cy="32.8" r="2.32"/><path class="cls-4" d="M88.57,76.5c.81-1.62,1.56-3.21,2.23-4.78.2-.45.41-.92.59-1.36L91.93,69c.31-.78.6-1.56.88-2.32.19-.54.39-1.09.57-1.63s.41-1.28.61-1.91l.55-1.88c.16-.58.3-1.15.44-1.71s.34-1.41.5-2.11c.06-.32.12-.63.19-1a.9.9,0,0,0,0-.16c.06-.3.11-.6.16-.88s.13-.7.18-1.05.13-.87.2-1.31h0c.1-.7.18-1.39.26-2.06,0-.34.06-.68.1-1s.05-.66.08-1c0-.66.08-1.3.1-1.95,0-1.37,0-2.72,0-4,0-.6,0-1.19-.1-1.76a4.38,4.38,0,0,0,0-.51c0-.58-.11-1.16-.17-1.72v0c-.07-.5-.13-1-.21-1.47a3.19,3.19,0,0,0,0-.42c0-.16,0-.32-.09-.49-.1-.6-.21-1.21-.34-1.8a4.74,4.74,0,0,0-.1-.49c0-.24-.1-.48-.16-.72l-.11-.51c0-.09-.05-.16-.07-.24-.11-.48-.24-1-.37-1.41s-.31-1.08-.48-1.59S94.13,28.8,94,28.3c-.26-.7-.52-1.39-.78-2,0,0,0,0,0,0-.19-.48-.39-.93-.6-1.37s-.4-.88-.6-1.31-.42-.82-.61-1.21l-.62-1.14c-.22-.41-.46-.8-.68-1.16s-.53-.86-.77-1.26A44,44,0,0,0,85.67,14l-.36-.42-.08-.09-.14-.15c-.12-.12-.25-.25-.38-.4l-.16-.15c-.15-.16-.32-.31-.49-.47L84,12.21c-.42-.38-.89-.77-1.38-1.15h0c-.25-.19-.51-.38-.77-.54s-.33-.24-.5-.34-.24-.16-.37-.23l-.28-.17a3.09,3.09,0,0,0-.44-.23.51.51,0,0,0-.16-.09l-.06,0-.12-.05s-.06,0-.1-.07a.76.76,0,0,0-.16-.06l0,0-.21-.09-.12-.06L79.15,9s0,0,0,0L79,9s0,0,0,0c-.24-.09-.47-.16-.7-.23a3.81,3.81,0,0,0-.65-.15s0,0,0,0l-.42-.06h0a.94.94,0,0,0-.29,0,1.23,1.23,0,0,0-.27,0c-.45,0-.9.07-1.33.13l-.22,0c-2.13.4-4.06,1.62-5.74,4.9-.15.28-.28.56-.41.85-2.14,4.78.44,24.68-11.52,48.12-.94,1.82-1.89,3.53-2.89,5.14-.21.34-.41.68-.62,1-.6,1-1.2,1.86-1.82,2.74-.19.28-.37.53-.55.78s-.48.66-.72,1-.39.53-.6.79c-.31.42-.62.81-.93,1.21-.52.64-1.05,1.28-1.57,1.89a77,77,0,0,1-6.78,7c-.53.49-1.06,1-1.57,1.4-1.83,1.59-3.55,3-5.06,4.16-.44.37-.87.7-1.28,1-.88.69-1.69,1.34-2.38,2-.25.21-.48.41-.69.62s-.38.35-.54.52a9.76,9.76,0,0,0-.78.85,3.07,3.07,0,0,0-.27.36,4.9,4.9,0,0,0-.43.7c-3.18-.17-8.8-.62-11.35-1.83a10.27,10.27,0,0,1-3.18-1.93,2.28,2.28,0,0,0-.67-.42c-3.26-.75-5.63,6.11-5.63,6.11-.1.27-.18.53-.26.79a5.5,5.5,0,0,0-.15.65,2.94,2.94,0,0,0-.08.49.65.65,0,0,0,0,.19,25.57,25.57,0,0,0,3.88,2,57.51,57.51,0,0,0,17.11,3.81h0l.76-.21.8-.22a10.44,10.44,0,0,0,4.56,2.3C36.94,108.05,69.27,114.64,88.57,76.5Z"/><ellipse class="cls-3" cx="36.64" cy="95.91" rx="5.57" ry="3.28" transform="translate(-31.69 19.28) rotate(-20.82)"/><path class="cls-1" d="M103.15,78.76c15.64-23.34,15.52-42.44,12.32-54.9a50.91,50.91,0,0,0-7-15.7c-.13-.19-.27-.41-.43-.63a1.18,1.18,0,0,1-.13-.18l-.06-.08-.33-.43-.14-.18c-.15-.19-.32-.4-.49-.59a.43.43,0,0,0-.09-.1l-.64-.72,0,0c-.25-.25-.49-.51-.74-.75,0,0,0,0,0,0l-.78-.71c-.17-.15-.33-.31-.52-.45l-.29-.25a2.77,2.77,0,0,1-.29-.22l-.09-.06c-.13-.1-.27-.19-.4-.3l-.23-.15,0,0-.13-.09-.12-.08-.41-.26a3,3,0,0,1-.3-.18s0,0-.07,0h0l-.29-.15a6.18,6.18,0,0,0-.92-.41,5.35,5.35,0,0,0-1.4-.33c-.5,0-1-.05-1.51,0l-.25,0C94.89.87,92.56,2,90.22,5.43c-.19.29-.37.59-.57.88-3.08,5.09-2.9,27.78-19.56,52.45C55.35,80.58,37.48,86.23,33,91.12a4.2,4.2,0,0,0-.59.73c-.18,0-.38-.06-.57-.1a6.68,6.68,0,0,0-1.12.84.73.73,0,0,0-.12,0c-1.21-.53-2.67-1.2-4.2-1.94A24.28,24.28,0,0,1,20,88.23c-2.69-1.71-3-2.2-3.3-2.6a2.64,2.64,0,0,0-.71-.56c-3.56-1.29-7.16,6.08-7.16,6.08-1.37,2.64-1.34,4.71-.56,6.33A6.91,6.91,0,0,0,10.44,100a19.21,19.21,0,0,0,7.73,2.88,46.44,46.44,0,0,0,14.32-.33,11.86,11.86,0,0,0,4.79,3.21C40.85,107.08,76.23,119,103.15,78.76Z"/><path class="cls-2" d="M37.28,105.8a11.86,11.86,0,0,1-4.79-3.21,46.44,46.44,0,0,1-14.32.33,19.12,19.12,0,0,1-7.73-2.87,6.94,6.94,0,0,1-2.22-2.57c-.78-1.62-.8-3.68.56-6.32,0,0,3.6-7.38,7.16-6.09a2.4,2.4,0,0,1,.7.56c.41,2.56-.37,6.25-2.3,9.63,9.7,5.13,17.87,3.12,17.87,3.12,3.73,1.15,6.53,2.09,11,1.64A56.63,56.63,0,0,0,52.11,98l.42-.13c9.5-3.1,21.08-9.48,32.53-22.18,21.93-24.3,16-63.7,12.29-74.92l.25,0c.49,0,1,0,1.51,0,3.31.27,7.63,4.62,9.41,7.43s21.55,30.42-5.37,70.6S40.84,107.08,37.28,105.8Z"/><ellipse class="cls-3" cx="93.75" cy="16.36" rx="4.19" ry="6.35" transform="translate(-0.16 0.96) rotate(-0.59)"/><circle class="cls-3" cx="90.66" cy="27.87" r="2.59"/><path class="cls-5" d="M103.15,78.76c15.64-23.34,15.52-42.44,12.32-54.9a50.91,50.91,0,0,0-7-15.7c-.13-.19-.27-.41-.43-.63a1.18,1.18,0,0,1-.13-.18l-.06-.08-.33-.43-.14-.18c-.15-.19-.32-.4-.49-.59a.43.43,0,0,0-.09-.1c-.43-.5-.89-1-1.4-1.49,0,0,0,0,0,0-.21-.19-.42-.4-.64-.59l-.14-.12c-.17-.15-.33-.31-.52-.45l-.29-.25a2.77,2.77,0,0,1-.29-.22l-.09-.06c-.13-.1-.27-.19-.4-.3l-.23-.15,0,0-.13-.09-.12-.08-.41-.26a3,3,0,0,1-.3-.18s0,0-.07,0h0a2.53,2.53,0,0,0-.29-.14,6.67,6.67,0,0,0-.92-.41,5.35,5.35,0,0,0-1.4-.33c-.5,0-1-.05-1.51,0l-.25,0C94.89.87,92.56,2,90.22,5.43c-.19.29-.37.59-.57.88-3.08,5.09-2.9,27.78-19.56,52.45C55.35,80.58,37.48,86.23,33,91.12a4.2,4.2,0,0,0-.59.73c-.18,0-.38-.06-.57-.1a6.68,6.68,0,0,0-1.12.84.73.73,0,0,0-.12,0c-1.21-.53-2.67-1.2-4.2-1.94A24.28,24.28,0,0,1,20,88.23c-2.69-1.71-3-2.2-3.3-2.6a2.64,2.64,0,0,0-.71-.56c-3.56-1.29-7.16,6.08-7.16,6.08-1.37,2.64-1.34,4.71-.56,6.33A6.91,6.91,0,0,0,10.44,100a19.21,19.21,0,0,0,7.73,2.88,46.44,46.44,0,0,0,14.32-.33,11.86,11.86,0,0,0,4.79,3.21C40.85,107.08,76.23,119,103.15,78.76Z"/><ellipse class="cls-3" cx="47.51" cy="93.59" rx="6.3" ry="3.71" transform="translate(-20.98 14.06) rotate(-13.82)"/><circle class="cls-3" cx="54.75" cy="86.22" r="2.1"/><path class="cls-1" d="M119.13,97.74c44-40.11,28.46-78.93,27.17-82.81a27.66,27.66,0,0,0-4.89-8.47,4.55,4.55,0,0,0-.35-.4,3.71,3.71,0,0,1-.26-.28c-.19-.2-.39-.4-.58-.58a.44.44,0,0,1-.11-.09,8.27,8.27,0,0,0-2.87-1.82,14.55,14.55,0,0,0-1.8-.49l-.29-.06c-3-.54-6.1.08-9.92,3.54-.31.28-.62.58-.93.89-2.21,2.21-4.64,8.4-8.83,16.69A142.36,142.36,0,0,1,98.08,50.93l-1.83,2.15h0a124,124,0,0,1-10.75,11,108.65,108.65,0,0,1-11.45,9c-18.2,12.35-34.27,14.66-41,18a9,9,0,0,0-1.16.63,6.68,6.68,0,0,0-1.12.84.73.73,0,0,0-.12,0c-1.21-.53-2.67-1.2-4.2-1.94-3.63-1.79-7.64-4-9.55-6-2.7-2.83-2.88-3.49-3.18-4.07a3.19,3.19,0,0,0-.67-.88C9.15,77,2.68,84.8,2.68,84.8.27,87.56-.31,90,.14,92.19A8.67,8.67,0,0,0,2,95.92a18.06,18.06,0,0,0,4.52,3.72,25.57,25.57,0,0,0,3.88,2,57.51,57.51,0,0,0,17.11,3.81h.1a14.41,14.41,0,0,0,4.79,5.24C36.32,113.27,75.14,137.85,119.13,97.74Z"/><path class="cls-2" d="M32.44,110.68a14.66,14.66,0,0,1-4.79-5.24,57.29,57.29,0,0,1-17.21-3.82S5.08,99.57,2,95.92a8.67,8.67,0,0,1-1.9-3.73C-.31,90,.27,87.56,2.68,84.8c0,0,6.47-7.76,10.35-5.17a3.19,3.19,0,0,1,.67.88c-.27,3.18-2.29,7.36-5.59,10.83,10.09,9,20.45,9,20.45,9,4.11,2.47,7.19,4.41,12.67,5.18a67.72,67.72,0,0,0,11.25.15l.53,0c12.27-.91,28-5.14,45.42-16.95,33.35-22.59,37.88-71.43,36.72-85.94l.29.06a14.55,14.55,0,0,1,1.8.49c3.88,1.29,7.77,7.76,9.06,11.64s16.82,42.7-27.17,82.81S36.32,113.27,32.44,110.68Z"/><ellipse class="cls-3" cx="126.24" cy="20.38" rx="7.81" ry="5.16" transform="translate(77.5 138.6) rotate(-76.76)"/><circle class="cls-3" cx="118.48" cy="32.4" r="3.23"/><ellipse class="cls-3" cx="43.62" cy="97.96" rx="7.76" ry="4.57"/><circle class="cls-3" cx="54.43" cy="91.27" r="2.59"/></svg>