<svg id="Layer_1" data-name="Layer 1" xmlns="http://www.w3.org/2000/svg" viewBox="0 0 150 144"><defs><style>.cls-1{fill:#fcf2b4;}.cls-2{fill:#fee589;}.cls-3{fill:#fff7ca;}</style></defs><path class="cls-1" d="M112.55,116c53.37-48.66,34.53-95.75,33-100.46-.14-.42-.31-.87-.5-1.34l-.41-1c-.22-.45-.44-.92-.69-1.41-.39-.79-.85-1.6-1.32-2.39-.11-.17-.2-.34-.31-.5-.25-.38-.49-.75-.74-1.11,0,0,0-.07,0-.08-.3-.43-.61-.85-.92-1.26s-.62-.77-.91-1.13a19.56,19.56,0,0,0-2.08-2.09c-.28-.23-.58-.47-.86-.67a8.35,8.35,0,0,0-2.2-1.16,22.11,22.11,0,0,0-2.18-.6A2.08,2.08,0,0,0,132,.76C128.37.1,124.59.85,120,5c-.38.35-.76.71-1.13,1.09-6.28,6.28-14.13,39.24-47.09,69.06C41.1,102.91,8,108.22,5.34,109.76S-.12,113.65,0,118.91A16.88,16.88,0,0,0,2.58,127a17.51,17.51,0,0,0,4.8,4.73C12.09,134.84,59.18,164.66,112.55,116Z"/><path class="cls-2" d="M112.55,116c53.37-48.66,34.53-95.75,33-100.46-.14-.42-.31-.87-.5-1.34l-.41-1c-.22-.45-.44-.92-.69-1.41-.39-.79-.85-1.6-1.32-2.39-.11-.17-.2-.34-.31-.5-.25-.38-.49-.75-.74-1.11,0,0,0-.07,0-.08-.3-.43-.61-.85-.92-1.26s-.62-.77-.91-1.13a19.56,19.56,0,0,0-2.08-2.09c-.28-.23-.58-.47-.86-.67a8.35,8.35,0,0,0-2.2-1.16,22.11,22.11,0,0,0-2.18-.6A2.08,2.08,0,0,0,132,.76C133.39,18.35,127.9,77.61,87.43,105c-21.14,14.34-40.21,19.45-55.09,20.55l-.64,0C26.63,126,4.24,127,0,118.91A16.88,16.88,0,0,0,2.58,127a17.51,17.51,0,0,0,4.8,4.73C12.09,134.84,59.18,164.66,112.55,116Z"/><ellipse class="cls-3" cx="121.18" cy="22.15" rx="9.48" ry="6.26" transform="translate(71.87 135.04) rotate(-76.76)"/><circle class="cls-3" cx="111.76" cy="36.74" r="3.92"/><ellipse class="cls-3" cx="20.94" cy="116.27" rx="9.41" ry="5.55"/><circle class="cls-3" cx="34.07" cy="108.15" r="3.14"/></svg>