<svg id="Layer_1" data-name="Layer 1" xmlns="http://www.w3.org/2000/svg" viewBox="0 0 150 119"><defs><style>.cls-1{fill:#feda00;}.cls-2{fill:#f5a800;}.cls-3{fill:#fff080;}</style></defs><path class="cls-1" d="M32.44,108.49a14.66,14.66,0,0,1-4.79-5.24,57.29,57.29,0,0,1-17.21-3.82S5.08,97.38,2,93.73A8.67,8.67,0,0,1,.14,90c-.45-2.16.13-4.63,2.54-7.39,0,0,6.47-7.76,10.35-5.17a3.19,3.19,0,0,1,.67.88c.3.58.48,1.24,3.18,4.07s9.81,6.23,13.87,8c5.36-5.15,29.48-5.65,54.74-28.5C112.66,37.33,119.13,10.15,124.3,5c.31-.31.62-.61.93-.89C129.05.63,132.17,0,135.15.55l.29,0a16.6,16.6,0,0,1,1.8.5,8.27,8.27,0,0,1,2.87,1.82.44.44,0,0,0,.11.09c.19.18.39.38.58.58a3.71,3.71,0,0,0,.26.28,3.46,3.46,0,0,1,.35.4,27.66,27.66,0,0,1,4.89,8.47c1.29,3.88,16.82,42.7-27.17,82.81S36.32,111.08,32.44,108.49Z"/><path class="cls-2" d="M32.44,108.49a14.66,14.66,0,0,1-4.79-5.24,57.29,57.29,0,0,1-17.21-3.82S5.08,97.38,2,93.73A8.67,8.67,0,0,1,.14,90c-.45-2.16.13-4.63,2.54-7.39,0,0,6.47-7.76,10.35-5.17a3.19,3.19,0,0,1,.67.88c-.27,3.18-2.29,7.36-5.59,10.83,10.09,9,20.45,9,20.45,9,4.11,2.47,7.19,4.41,12.67,5.18a67.72,67.72,0,0,0,11.25.15l.53,0c12.27-.91,28-5.14,45.42-17C131.78,63.9,136.31,15.06,135.15.55l.29,0a16.6,16.6,0,0,1,1.8.5c3.88,1.29,7.77,7.76,9.06,11.64s16.82,42.7-27.17,82.81S36.32,111.08,32.44,108.49Z"/><ellipse class="cls-3" cx="126.24" cy="18.19" rx="7.81" ry="5.16" transform="translate(79.63 136.91) rotate(-76.76)"/><circle class="cls-3" cx="118.48" cy="30.21" r="3.23"/><ellipse class="cls-3" cx="43.62" cy="95.77" rx="7.76" ry="4.57"/><circle class="cls-3" cx="54.43" cy="89.08" r="2.59"/></svg>