<svg xmlns="http://www.w3.org/2000/svg" viewBox="0 0 107.06 78.16"><defs><style>.cls-1{fill:#25232d;}.cls-2{fill:#ffcb29;}.cls-3{fill:#c2eeef;}.cls-4{fill:#93a3ad;}</style></defs><g id="Layer_3" data-name="Layer 3"><path class="cls-1" d="M69.14,43.79A24.64,24.64,0,0,1,68.9,47c-.2,1.4-.5,3-.9,4.59a54.68,54.68,0,0,1-1.71,5.6,42.62,42.62,0,0,1-1.84,4.33A28.16,28.16,0,0,1,61,67c-2.14,2.58-4.65,4.26-7.5,4.26S48.13,69.57,46,67a28.16,28.16,0,0,1-3.46-5.5,42.56,42.56,0,0,1-1.83-4.33A52.4,52.4,0,0,1,39,51.56,45.35,45.35,0,0,1,38.09,47a23.14,23.14,0,0,1-.25-3.18,16.64,16.64,0,0,1,.28-3,15.4,15.4,0,0,1,6.37-10,15.75,15.75,0,0,1,9-2.58,15.75,15.75,0,0,1,9,2.58,15.36,15.36,0,0,1,6.37,10.05A16.64,16.64,0,0,1,69.14,43.79Z"/><path class="cls-2" d="M64.42,61.55A43.09,43.09,0,0,0,53.5,60.22a43.19,43.19,0,0,0-10.94,1.33l3.68,5.72s0,0,0,0a47.08,47.08,0,0,1,14.48,0h0Z"/><path class="cls-2" d="M68,51.56a54.68,54.68,0,0,1-1.71,5.6A43.62,43.62,0,0,0,53.5,55.37a43.59,43.59,0,0,0-12.8,1.79A52.4,52.4,0,0,1,39,51.56,41.16,41.16,0,0,1,53.5,49.17,41.08,41.08,0,0,1,68,51.56Z"/><path class="cls-2" d="M69.14,43.79A24.64,24.64,0,0,1,68.9,47,39.94,39.94,0,0,0,53.5,44.2,39.92,39.92,0,0,0,38.09,47a23.14,23.14,0,0,1-.25-3.18,16.64,16.64,0,0,1,.28-3A40.06,40.06,0,0,1,53.5,38a40,40,0,0,1,15.36,2.74A16.64,16.64,0,0,1,69.14,43.79Z"/><path class="cls-1" d="M53.49,32.82a11.12,11.12,0,0,1,6.37,1.77,10.61,10.61,0,0,1,4.38,7,12.56,12.56,0,0,1,.2,2.19,20.85,20.85,0,0,1-.2,2.54c-.18,1.26-.46,2.68-.8,4.1a50.06,50.06,0,0,1-1.57,5.12,39,39,0,0,1-1.64,3.86A23.24,23.24,0,0,1,57.37,64c-1,1.17-2.43,2.56-3.88,2.56S50.58,65.16,49.61,64a23.31,23.31,0,0,1-2.86-4.57,37.44,37.44,0,0,1-1.64-3.88,46.44,46.44,0,0,1-1.56-5.09,40.87,40.87,0,0,1-.8-4.1,19.74,19.74,0,0,1-.21-2.55,11.87,11.87,0,0,1,.21-2.2,10.62,10.62,0,0,1,4.38-7,11.14,11.14,0,0,1,6.36-1.76m0-4.71a15.75,15.75,0,0,0-9,2.58,15.4,15.4,0,0,0-6.37,10.05,16.64,16.64,0,0,0-.28,3A23.14,23.14,0,0,0,38.09,47,45.35,45.35,0,0,0,39,51.56a52.4,52.4,0,0,0,1.72,5.6,42.56,42.56,0,0,0,1.83,4.33A28.16,28.16,0,0,0,46,67c2.14,2.58,4.65,4.26,7.5,4.26S58.85,69.57,61,67a28.16,28.16,0,0,0,3.46-5.5,42.62,42.62,0,0,0,1.84-4.33A54.68,54.68,0,0,0,68,51.56c.4-1.64.7-3.19.9-4.59a24.64,24.64,0,0,0,.24-3.18,16.64,16.64,0,0,0-.28-3,15.36,15.36,0,0,0-6.37-10,15.75,15.75,0,0,0-9-2.58Z"/><polygon class="cls-1" points="53.49 78.16 50.22 69.08 56.77 69.08 53.49 78.16"/><path class="cls-3" d="M44.09,36.74c-3.89.41-22.82,8-28.15,17.54-3.19,5.67-1.7,8.59.11,10s4.71,2.11,7.86,1.86a32,32,0,0,0,7.42-1.64,31.48,31.48,0,0,0,6.5-3.07A22,22,0,0,0,48.7,44C48.77,43.21,49.25,36.19,44.09,36.74Z"/><path class="cls-3" d="M63,36.74c3.89.41,22.82,8,28.15,17.54,3.19,5.67,1.7,8.59-.11,10s-4.71,2.11-7.86,1.86a32,32,0,0,1-7.42-1.64,31.48,31.48,0,0,1-6.5-3.07A22,22,0,0,1,58.36,44C58.29,43.21,57.81,36.19,63,36.74Z"/><ellipse cx="53.49" cy="17.39" rx="7.23" ry="4.04"/><path class="cls-1" d="M31.28,15.77c1,3.66,2.19,7,4.71,9.94A44.59,44.59,0,0,0,46.5,34.08c2.12,1.3,4-2,1.94-3.32a42.76,42.76,0,0,1-9.28-7.27C36.84,21,35.87,18,35,14.75c-.64-2.39-4.35-1.37-3.71,1Z"/><path class="cls-1" d="M69.85.34c-2.44,1.34-9.33,15.85-9.33,15.85l-.06.15c-.83-1.72-3.63-3-7-3s-6.14,1.27-7,3l-.06-.15S39.57,1.68,37.13.34,31.62,1.89,34,4.17s4.93,0,11.16,12.82a2.41,2.41,0,0,0-.84-.16c-2,0-3.57,2.45-3.57,4.79a16.93,16.93,0,0,0,2.78,7.8,11.75,11.75,0,0,0,10,5,11.76,11.76,0,0,0,10-5,17.06,17.06,0,0,0,2.77-7.8c0-2.34-1.6-4.79-3.57-4.79a2.41,2.41,0,0,0-.84.16C68.05,4.21,70.61,6.44,73,4.17S72.29-1,69.85.34Z"/><path class="cls-3" d="M49.38,32.65C46.6,29.57,26.4,18.27,12,19.89,3.41,20.86.84,24,.2,26.55s.28,5.43,2.43,8A28.78,28.78,0,0,0,9,39.85a34.37,34.37,0,0,0,7.46,3.59c8.68,3,17.79,2.26,27.07-2.07C44.47,40.91,53.06,36.73,49.38,32.65Z"/><path class="cls-1" d="M75.7,15.77c-1,3.66-2.19,7-4.71,9.94a44.39,44.39,0,0,1-10.51,8.37c-2.11,1.3-4-2-1.94-3.32a42.76,42.76,0,0,0,9.28-7.27C70.14,21,71.11,18,72,14.75c.64-2.39,4.36-1.37,3.71,1Z"/><path class="cls-3" d="M57.68,32.65c2.78-3.08,23-14.38,37.36-12.76,8.61,1,11.18,4.15,11.82,6.66s-.28,5.43-2.44,8a28.62,28.62,0,0,1-6.31,5.32,34.46,34.46,0,0,1-7.47,3.59c-8.67,3-17.78,2.26-27.06-2.07C62.59,40.91,54,36.73,57.68,32.65Z"/><path class="cls-4" d="M44.09,36.74c-3.89.41-22.82,8-28.15,17.54-3.19,5.67-1.7,8.59.11,10s4.71,2.11,7.86,1.86a32,32,0,0,0,7.42-1.64,31.48,31.48,0,0,0,6.5-3.07A22,22,0,0,0,48.7,44C48.77,43.21,49.25,36.19,44.09,36.74ZM41.7,39.51c.68-.23,1.2-.38,1.5-.45.58.21,1.14,1.34,1.4,2.84a106,106,0,0,0-9.87,5.36,26.76,26.76,0,0,0,2-5.74C38.71,40.62,40.47,39.94,41.7,39.51Zm3,5.25a20.71,20.71,0,0,1-3,9.23,24.79,24.79,0,0,0-1.31-8.11c1.4-.76,2.85-1.5,4.32-2.23A10.39,10.39,0,0,1,44.73,44.76ZM19.54,62.52c-1.43-1.14-2.57-3.51.15-8.34,2.53-4.5,8.48-8.4,13.8-11.12a30.07,30.07,0,0,1-5,10.08c-2.41,3.27-5.74,6.45-8.47,9.7A4.73,4.73,0,0,1,19.54,62.52Zm19.05-4.67a20.7,20.7,0,0,1-3.12,2.38,25.68,25.68,0,0,1-10.6,3.62,9.56,9.56,0,0,1-2.77-.19c.77-.93,1.57-1.85,2.4-2.77,4.93-2.12,10.59-4.26,14.27-7.2A26.59,26.59,0,0,1,38.59,57.85Zm-.23-6.54C36.09,54.14,31.51,56.22,27,58.1a61.29,61.29,0,0,0,4.58-5.51c.4-.57.78-1.14,1.13-1.71a42,42,0,0,1,5-3.44,24.17,24.17,0,0,1,.82,3.68A1.14,1.14,0,0,0,38.36,51.31Z"/><path class="cls-4" d="M49.38,32.65C46.6,29.57,26.4,18.27,12,19.89,3.41,20.86.84,24,.2,26.55s.28,5.43,2.43,8A28.78,28.78,0,0,0,9,39.85a34.37,34.37,0,0,0,7.46,3.59c8.68,3,17.79,2.26,27.07-2.07C44.47,40.91,53.06,36.73,49.38,32.65Zm-4.7-.24a13.78,13.78,0,0,1,1.42,1c.1.63-.91,1.85-2.53,3.06a120.62,120.62,0,0,0-12.16-5,47.28,47.28,0,0,0,7.94-2.06C41.61,30.56,43.45,31.63,44.68,32.41Zm-4.43,6a36.73,36.73,0,0,1-12.67,3.48A41.51,41.51,0,0,0,36.4,35.5c1.74.71,3.47,1.47,5.2,2.26C41.17,38,40.71,38.23,40.25,38.45ZM4.38,28.39c.5-2,2.64-4.51,10-5.33,6.83-.77,15,1.8,21.31,4.61a51.19,51.19,0,0,1-14.89,2.26c-5.3.07-11-.72-16.48-.94A3.75,3.75,0,0,1,4.38,28.39ZM21.14,41.72a26.39,26.39,0,0,1-4.66-1.13A25.06,25.06,0,0,1,5.94,33.84a7.76,7.76,0,0,1-1.41-2.5c1.55,0,3.12.14,4.7.25,5.42,2.85,11.29,6.33,16.94,7.57A48.33,48.33,0,0,1,21.14,41.72Zm7.61-4.47C24.06,37.14,18.89,34.57,14,32a90.38,90.38,0,0,0,9.22.33c.92,0,1.81-.07,2.7-.14a54,54,0,0,1,7,2,38.23,38.23,0,0,1-3.87,3.12A2,2,0,0,0,28.75,37.25Z"/><path class="cls-4" d="M58.36,44A22,22,0,0,0,69.23,61.46a31.48,31.48,0,0,0,6.5,3.07,32,32,0,0,0,7.42,1.64c3.15.25,6.09-.44,7.86-1.86s3.3-4.36.11-10C85.79,44.78,66.86,37.15,63,36.74,57.81,36.19,58.29,43.21,58.36,44Zm12-2.49a27.27,27.27,0,0,0,2,5.74,104.51,104.51,0,0,0-9.86-5.36c.26-1.5.82-2.63,1.4-2.84.3.07.82.22,1.5.45C66.59,39.94,68.35,40.62,70.36,41.52Zm-8.07,2.13c1.46.73,2.91,1.47,4.32,2.23A24.79,24.79,0,0,0,65.3,54a20.71,20.71,0,0,1-3-9.23A10.39,10.39,0,0,1,62.29,43.65ZM87.06,62.84c-2.73-3.25-6.06-6.43-8.47-9.7a29.88,29.88,0,0,1-5-10.08c5.32,2.72,11.27,6.62,13.8,11.12,2.71,4.83,1.58,7.2.15,8.34A4.73,4.73,0,0,1,87.06,62.84ZM68.29,53.69c3.67,2.94,9.34,5.08,14.27,7.2.83.92,1.63,1.84,2.4,2.77a9.58,9.58,0,0,1-2.77.19,25.68,25.68,0,0,1-10.6-3.62,20.7,20.7,0,0,1-3.12-2.38A26.59,26.59,0,0,1,68.29,53.69Zm.22-2.57a23,23,0,0,1,.82-3.68,42,42,0,0,1,5,3.44c.35.57.73,1.14,1.13,1.71A58.09,58.09,0,0,0,80,58.1c-4.48-1.88-9-4-11.32-6.79A1.14,1.14,0,0,0,68.51,51.12Z"/><path class="cls-4" d="M63.58,41.37c9.28,4.33,18.39,5,27.06,2.07a34.46,34.46,0,0,0,7.47-3.59,28.62,28.62,0,0,0,6.31-5.32c2.16-2.55,3.07-5.53,2.44-8S103.65,20.86,95,19.89c-14.38-1.62-34.58,9.68-37.36,12.76C54,36.73,62.59,40.91,63.58,41.37Zm4.13-11.95a47.28,47.28,0,0,0,7.94,2.06,120.62,120.62,0,0,0-12.16,5C61.87,35.26,60.86,34,61,33.41a13.78,13.78,0,0,1,1.42-1C63.6,31.63,65.45,30.56,67.71,29.42Zm-2.25,8.34c1.73-.79,3.46-1.55,5.2-2.26a41.26,41.26,0,0,0,8.82,6.43,36.73,36.73,0,0,1-12.67-3.48Q66.11,38.12,65.46,37.76ZM102.79,29c-5.46.22-11.18,1-16.48.94a51.14,51.14,0,0,1-14.89-2.26c6.35-2.81,14.48-5.38,21.31-4.61,7.3.82,9.44,3.35,10,5.33A3.75,3.75,0,0,1,102.79,29ZM80.89,39.16c5.64-1.24,11.52-4.72,16.94-7.57,1.58-.11,3.14-.21,4.69-.25a7.41,7.41,0,0,1-1.41,2.5,24.91,24.91,0,0,1-10.53,6.75,26.39,26.39,0,0,1-4.66,1.13A48.33,48.33,0,0,1,80.89,39.16ZM78,37.29a38.23,38.23,0,0,1-3.87-3.12,54,54,0,0,1,7-2c.88.07,1.78.11,2.69.14A90.47,90.47,0,0,0,93,32c-4.86,2.62-10,5.19-14.72,5.3A2,2,0,0,0,78,37.29Z"/></g></svg>