<svg xmlns="http://www.w3.org/2000/svg" viewBox="0 0 73.46 74.19"><defs><style>.cls-1{fill:#25232d;}.cls-2{fill:#ffcb29;}.cls-3{fill:#c2eeef;}.cls-4{fill:#93a3ad;}</style></defs><g id="Layer_3" data-name="Layer 3"><path class="cls-1" d="M52.38,39.82A24.64,24.64,0,0,1,52.14,43c-.2,1.4-.5,3-.9,4.59a54.68,54.68,0,0,1-1.71,5.6,42.62,42.62,0,0,1-1.84,4.33A27.86,27.86,0,0,1,44.23,63c-2.14,2.58-4.65,4.26-7.5,4.26S31.37,65.6,29.23,63a27.86,27.86,0,0,1-3.46-5.5,45,45,0,0,1-1.84-4.33,54.68,54.68,0,0,1-1.71-5.6A45.35,45.35,0,0,1,21.33,43a23.14,23.14,0,0,1-.25-3.18,16.64,16.64,0,0,1,.28-3,15.4,15.4,0,0,1,6.37-10.05,15.75,15.75,0,0,1,9-2.58,15.75,15.75,0,0,1,9,2.58A15.36,15.36,0,0,1,52.1,36.77,16.64,16.64,0,0,1,52.38,39.82Z"/><path class="cls-2" d="M47.66,57.58a43.09,43.09,0,0,0-10.92-1.33A43.13,43.13,0,0,0,25.8,57.58l3.68,5.72s0,0,0,0a47.08,47.08,0,0,1,14.48,0h0Z"/><path class="cls-2" d="M51.24,47.59a54.68,54.68,0,0,1-1.71,5.6A43.67,43.67,0,0,0,36.74,51.4a43.71,43.71,0,0,0-12.81,1.79,54.68,54.68,0,0,1-1.71-5.6A41.16,41.16,0,0,1,36.74,45.2,41.12,41.12,0,0,1,51.24,47.59Z"/><path class="cls-2" d="M52.38,39.82A24.64,24.64,0,0,1,52.14,43a39.94,39.94,0,0,0-15.4-2.77A39.92,39.92,0,0,0,21.33,43a23.14,23.14,0,0,1-.25-3.18,16.64,16.64,0,0,1,.28-3A40.06,40.06,0,0,1,36.74,34,40,40,0,0,1,52.1,36.77,16.64,16.64,0,0,1,52.38,39.82Z"/><path class="cls-1" d="M36.73,28.85a11.12,11.12,0,0,1,6.37,1.77,10.61,10.61,0,0,1,4.38,7,12.56,12.56,0,0,1,.2,2.19,20.85,20.85,0,0,1-.2,2.54c-.18,1.26-.46,2.68-.8,4.1a50.06,50.06,0,0,1-1.57,5.12,39,39,0,0,1-1.64,3.86A23.24,23.24,0,0,1,40.61,60c-1,1.17-2.43,2.56-3.88,2.56S33.82,61.19,32.85,60A23.31,23.31,0,0,1,30,55.44a37.44,37.44,0,0,1-1.64-3.88,46.44,46.44,0,0,1-1.56-5.09,40.87,40.87,0,0,1-.8-4.1,19.74,19.74,0,0,1-.21-2.55A11.68,11.68,0,0,1,26,37.63a10.62,10.62,0,0,1,4.38-7,11.14,11.14,0,0,1,6.36-1.76m0-4.71a15.75,15.75,0,0,0-9,2.58,15.4,15.4,0,0,0-6.37,10.05,16.64,16.64,0,0,0-.28,3A23.14,23.14,0,0,0,21.33,43a45.35,45.35,0,0,0,.89,4.59,54.68,54.68,0,0,0,1.71,5.6,45,45,0,0,0,1.84,4.33A27.86,27.86,0,0,0,29.23,63c2.14,2.58,4.65,4.26,7.5,4.26s5.36-1.68,7.5-4.26a27.86,27.86,0,0,0,3.46-5.5,42.62,42.62,0,0,0,1.84-4.33,54.68,54.68,0,0,0,1.71-5.6c.4-1.64.7-3.19.9-4.59a24.64,24.64,0,0,0,.24-3.18,16.64,16.64,0,0,0-.28-3,15.36,15.36,0,0,0-6.37-10.05,15.75,15.75,0,0,0-9-2.58Z"/><polygon class="cls-1" points="36.73 74.19 33.45 65.11 40.01 65.11 36.73 74.19"/><path class="cls-3" d="M31.63,26.61C28.52,25.19,11.38,26.93,4,38.67-.5,45.69-.39,50.93.47,54.09a11.11,11.11,0,0,0,5.35,7,14.39,14.39,0,0,0,6.24,1.39,14.93,14.93,0,0,0,6-1.28c6.43-2.81,11.3-9.88,14.47-21C32.91,39,35.76,28.49,31.63,26.61Z"/><path class="cls-3" d="M41.83,26.61c3.11-1.42,20.25.32,27.69,12.06,4.44,7,4.34,12.26,3.47,15.42a11.1,11.1,0,0,1-5.34,7,14.48,14.48,0,0,1-6.24,1.39,15,15,0,0,1-6-1.28c-6.43-2.81-11.29-9.88-14.47-21C40.55,39,37.7,28.49,41.83,26.61Z"/><path class="cls-1" d="M48,.34c-1.62.89-5.22,7.6-7.44,12a13.4,13.4,0,0,0-3.79-.55,13.14,13.14,0,0,0-3.81.56C30.7,8,27.1,1.23,25.48.34,23-1,20,1.89,22.35,4.17c2.08,2,4.31.52,9,8.74-3.52,1.58-5.91,4.65-5.91,8.19,0,5.15,5,9.32,11.27,9.32S48,26.25,48,21.1c0-3.54-2.4-6.63-5.93-8.2C47,4.3,49.22,6,51.09,4.17,53.47,1.89,50.4-1,48,.34Z"/><path class="cls-4" d="M31.63,26.61C28.52,25.19,11.38,26.93,4,38.67-.5,45.69-.39,50.93.47,54.09a11.11,11.11,0,0,0,5.35,7,14.39,14.39,0,0,0,6.24,1.39,14.93,14.93,0,0,0,6-1.28c6.43-2.81,11.3-9.88,14.47-21C32.91,39,35.76,28.49,31.63,26.61Zm-2.81,3a6.54,6.54,0,0,1,1.31.09c.37.62.4,2.64.07,5.09a52.84,52.84,0,0,0-9.43,3,54.56,54.56,0,0,0,3.53-7.74A27,27,0,0,1,28.82,29.61Zm.46,9.63a43,43,0,0,1-5.53,12.57A77,77,0,0,0,25.62,38.7c1.34-.43,2.71-.8,4.09-1.15C29.58,38.12,29.44,38.68,29.28,39.24ZM3.78,53.19c-.69-2.5-.72-6.73,3.06-12.69,3.53-5.57,9.45-8.42,14.47-9.78a50.08,50.08,0,0,1-7.4,12.79c-3,3.75-6.67,6.87-9.9,10.41A6.18,6.18,0,0,1,3.78,53.19ZM20,56.05a13.35,13.35,0,0,1-3.23,2,11.34,11.34,0,0,1-9.36,0,6.45,6.45,0,0,1-2-1.74c.92-1,1.86-2,2.81-3,4.52-.66,9.6-1,13.44-3.53Q20.91,52.95,20,56.05ZM22.1,45.92c-2.73,3.13-7,3.92-11,4.45a63.65,63.65,0,0,0,5.44-6c.51-.66,1-1.33,1.47-2a26.57,26.57,0,0,1,5-2.66c-.14,2-.37,4.07-.67,6.07A1,1,0,0,0,22.1,45.92Z"/><path class="cls-4" d="M40.89,40.18c3.18,11.13,8,18.2,14.47,21a15,15,0,0,0,6,1.28,14.48,14.48,0,0,0,6.24-1.39,11.1,11.1,0,0,0,5.34-7c.87-3.16,1-8.4-3.47-15.42C62.08,26.93,44.94,25.19,41.83,26.61,37.7,28.49,40.55,39,40.89,40.18Zm8.27-10.12a54.56,54.56,0,0,0,3.53,7.74,52.74,52.74,0,0,0-9.42-3c-.33-2.45-.31-4.47.06-5.09a6.67,6.67,0,0,1,1.31-.09A26.86,26.86,0,0,1,49.16,30.06Zm-5.4,7.49c1.37.35,2.74.72,4.09,1.15a76,76,0,0,0,1.86,13.11,43.24,43.24,0,0,1-5.53-12.57C44,38.68,43.88,38.12,43.76,37.55ZM69.45,53.92c-3.23-3.54-6.9-6.66-9.89-10.41a49.83,49.83,0,0,1-7.41-12.79c5,1.36,11,4.21,14.47,9.78,3.78,6,3.76,10.19,3.07,12.69C69.62,53.44,69.54,53.68,69.45,53.92ZM51.89,49.78c3.85,2.57,8.93,2.87,13.44,3.53,1,1,1.9,2,2.81,3a6.45,6.45,0,0,1-2,1.74,11.34,11.34,0,0,1-9.36,0,13.35,13.35,0,0,1-3.23-2C52.87,54,52.34,51.89,51.89,49.78Zm-.74-4.06c-.31-2-.54-4-.68-6.07a26.27,26.27,0,0,1,5,2.66c.47.69,1,1.36,1.47,2a65,65,0,0,0,5.44,6c-4.08-.53-8.31-1.32-11-4.45A1.29,1.29,0,0,0,51.15,45.72Z"/></g></svg>