<svg id="Layer_1" data-name="Layer 1" xmlns="http://www.w3.org/2000/svg" viewBox="0 0 19.81 47.69"><defs><style>.cls-1{fill:#00aeef;}.cls-2{fill:#1f58af;}.cls-3{fill:#ed1c24;}.cls-4{fill:#b01c25;}.cls-5{fill:#701019;}</style></defs><path class="cls-1" d="M19.78,15.52c0-.67,0-1.34,0-2L16,15.45a19.39,19.39,0,0,0,3.56-6A54.11,54.11,0,0,0,17.46,0a12.47,12.47,0,0,1-.31,3.45v0C16.46,6.73,14.43,12,8.51,17.88L8.45,18a27.84,27.84,0,0,0-2.16,2.42c-.22.26-.42.53-.61.79,0,0,0,0,0,0-.21.27-.4.54-.58.81s-.37.54-.54.82-.34.54-.5.81l-.46.82c-.1.17-.18.33-.27.5-.32.62-.61,1.24-.86,1.85-.13.3-.25.6-.37.91l-.27.74A25.31,25.31,0,0,0,1,31.5q-.1.43-.18.87L.65,33c-.06.33-.11.65-.14,1s-.06.48-.08.71c-.06.51-.09,1-.11,1.45,0,.2,0,.4,0,.59,0,.55,0,1,0,1.46,0,.09,0,.18,0,.26a22.59,22.59,0,0,0-.31,4,25.18,25.18,0,0,0,.54,5.24,20.38,20.38,0,0,0,1.84-5.06c0-.06,0-.12,0-.18h0c0-.56-.05-1.09-.06-1.62.22-.38.44-.74.65-1.07A17.18,17.18,0,0,1,8.63,34,29.11,29.11,0,0,0,12,31.31c.62-.59,1.28-1.27,2-2.08.22-.25.44-.5.67-.78s.73-.89,1.12-1.39.79-1,1.21-1.61a13.82,13.82,0,0,0,1.38-2.64c.12-.31.24-.62.34-.94a18.22,18.22,0,0,0,.69-2.66L16,20.45A17.91,17.91,0,0,0,19.78,15.52Z"/><path class="cls-2" d="M17.15,3.47c-.23,2.54-.54,5.84-.78,7.69,0,.23-.08.46-.13.7s-.11.47-.16.7a33.32,33.32,0,0,1-3,6.74l-2.78,4.17-.65,1h-6L4,23.63c.16-.27.32-.54.5-.81s.35-.55.54-.82.37-.54.58-.81c0,0,0,0,0,0,.19-.26.39-.53.61-.79A27.84,27.84,0,0,1,8.45,18l.06-.07C14.43,12,16.46,6.73,17.15,3.47Z"/><path class="cls-3" d="M14.62,28.45c-.23.28-.45.53-.67.78-.72.81-1.38,1.49-2,2.08-4,3.82-6.11,3.41-9.64,9.52,0,.53-1.36-2.38-1.36-2.38A16.14,16.14,0,0,1,2.24,35C3.05,33.24,4,31.45,4,31.45l1-1.21,1.49-1.79Z"/><path class="cls-4" d="M9.62,24.45l-.67,1-2.5,3L5,30.24,4,31.45S3.05,33.24,2.24,35A16.13,16.13,0,0,1,.31,38.5v0c0-.08,0-.17,0-.26,0-.42,0-.91,0-1.46,0-.19,0-.39,0-.59,0-.45,0-.94.11-1.45,0-.23,0-.47.08-.71s.08-.63.14-1l.12-.67q.07-.43.18-.87a25.31,25.31,0,0,1,.86-3.05l.27-.74c.12-.31.24-.61.37-.91.25-.61.54-1.23.86-1.85.09-.17.17-.33.27-.5Z"/><path class="cls-3" d="M18.67,21.87A14.59,14.59,0,0,1,17,25.45c-.84,1.15-1.62,2.15-2.33,3-.23.28-.45.53-.67.78-.72.81-1.38,1.49-2,2.08a12.77,12.77,0,0,1-6.25-.72A7.12,7.12,0,0,1,5,30.24l1.49-1.79,2.5-3,.67-1,.65-1a2,2,0,0,0,.46.12A16.33,16.33,0,0,0,18.67,21.87Z"/><path class="cls-4" d="M10.27,23.47l-.65,1-.67,1L5,30.24l-.06,0c-.1-.2-.2-.39-.28-.58A13,13,0,0,1,3.31,25c.09-.17.17-.33.27-.5L4,23.63c.16-.27.32-.54.5-.81s.35-.55.54-.82.37-.54.58-.81c0,0,0,0,0,0,.19-.26.39-.53.61-.79A27.84,27.84,0,0,1,8.45,18l.06-.07c.23,1.32.86,4.52,1.49,5.37a.87.87,0,0,0,.12.14A.53.53,0,0,0,10.27,23.47Z"/><path class="cls-5" d="M16.37,11.16c0,.23-.08.46-.13.7s-.11.47-.16.7a37.16,37.16,0,0,1-5.35,11l-.57.86c-1,1.45-2,2.8-2.88,4L5.7,30.59,5,31.54a13.66,13.66,0,0,0-2.71,9.29c0,.53,0,1.06.06,1.62,0,.06,0,.12,0,.18A20.38,20.38,0,0,1,.54,47.69,25.18,25.18,0,0,1,0,42.45a22.59,22.59,0,0,1,.31-4,2.23,2.23,0,0,1,0-.23A16.76,16.76,0,0,1,1,35.82,14.66,14.66,0,0,1,3.46,31c.38-.48.77-.94,1.16-1.41s.67-.79,1-1.18c1.16-1.36,2.31-2.68,3.4-4,.34-.4.67-.8,1-1.2C12.92,19.63,15.35,15.89,16.37,11.16Z"/></svg>