<svg id="Layer_1" data-name="Layer 1" xmlns="http://www.w3.org/2000/svg" xmlns:xlink="http://www.w3.org/1999/xlink" viewBox="0 0 39.82 54.4"><defs><style>.cls-1{fill:url(#linear-gradient);}.cls-2{fill:#dae6f5;}.cls-3{fill:#414042;}</style><linearGradient id="linear-gradient" x1="19.89" y1="81.15" x2="19.89" y2="41.33" gradientTransform="translate(0 -25)" gradientUnits="userSpaceOnUse"><stop offset="0.25" stop-color="#9dc6ea"/><stop offset="0.69" stop-color="#416eb5"/></linearGradient></defs><path class="cls-1" d="M35,54.4H4.82C2.16,54.4,0,51.83,0,48.66H0V40.85H39.78v7.81C39.78,51.83,37.62,54.4,35,54.4Z"/><path class="cls-2" d="M4.82,0H35c2.66,0,4.82,2.57,4.82,5.74V46.38c0,3.17-2.16,5.74-4.82,5.74H4.82C2.16,52.12,0,49.55,0,46.38V5.74C0,2.57,2.16,0,4.82,0Z"/><path class="cls-3" d="M7.43,8.73C6,8.51,6,6.4,6,6.4h-.2s0,2.11-1.44,2.33a.34.34,0,0,0-.27.32.32.32,0,0,0,.32.32h3a.32.32,0,0,0,.32-.32A.34.34,0,0,0,7.43,8.73Z"/><path class="cls-3" d="M7.54,4.86l-.33,0a1.58,1.58,0,0,0,.33-1,1.65,1.65,0,0,0-3.3,0,1.58,1.58,0,0,0,.33,1l-.33,0A1.65,1.65,0,1,0,5.89,6.55h0A1.65,1.65,0,1,0,7.54,4.86Z"/><path class="cls-3" d="M32.35,43.16c1.44.23,1.44,2.34,1.44,2.34H34s0-2.11,1.44-2.34a.32.32,0,0,0,0-.63h-3a.32.32,0,0,0,0,.63Z"/><path class="cls-3" d="M32.24,47a1.86,1.86,0,0,0,.33,0,1.61,1.61,0,0,0-.33,1,1.65,1.65,0,0,0,3.3,0,1.61,1.61,0,0,0-.33-1,1.86,1.86,0,0,0,.33,0,1.65,1.65,0,1,0-1.65-1.69h0A1.65,1.65,0,1,0,32.24,47Z"/><path class="cls-3" d="M14.29,17.1c-2.13-.34-2.13-3.46-2.13-3.46h-.3s0,3.12-2.13,3.46a.48.48,0,0,0-.4.47A.47.47,0,0,0,9.8,18h4.42a.47.47,0,0,0,.47-.47A.48.48,0,0,0,14.29,17.1Z"/><path class="cls-3" d="M14.46,11.36a2.63,2.63,0,0,0-.49.05,2.45,2.45,0,1,0-3.92,0,2.63,2.63,0,0,0-.49-.05A2.45,2.45,0,1,0,12,13.86h0a2.44,2.44,0,1,0,2.44-2.5Z"/><path class="cls-3" d="M25.53,17.1c2.13-.34,2.13-3.46,2.13-3.46H28s0,3.12,2.13,3.46a.48.48,0,0,1,.4.47A.47.47,0,0,1,30,18H25.6a.47.47,0,0,1-.47-.47A.48.48,0,0,1,25.53,17.1Z"/><path class="cls-3" d="M25.36,11.36a2.63,2.63,0,0,1,.49.05,2.45,2.45,0,1,1,3.92,0,2.63,2.63,0,0,1,.49-.05,2.45,2.45,0,1,1-2.44,2.5h0a2.44,2.44,0,1,1-2.44-2.5Z"/><path class="cls-3" d="M14.29,35c-2.13.34-2.13,3.46-2.13,3.46h-.3s0-3.12-2.13-3.46a.48.48,0,0,1-.4-.47.47.47,0,0,1,.47-.47h4.42a.47.47,0,0,1,.47.47A.48.48,0,0,1,14.29,35Z"/><path class="cls-3" d="M14.46,40.76a2.63,2.63,0,0,1-.49,0,2.45,2.45,0,1,1-3.92,0,2.63,2.63,0,0,1-.49,0A2.45,2.45,0,1,1,12,38.26h0a2.44,2.44,0,1,1,2.44,2.5Z"/><path class="cls-3" d="M25.53,35c2.13.34,2.13,3.46,2.13,3.46H28s0-3.12,2.13-3.46a.48.48,0,0,0,.4-.47.47.47,0,0,0-.47-.47H25.6a.47.47,0,0,0-.47.47A.48.48,0,0,0,25.53,35Z"/><path class="cls-3" d="M25.36,40.76a2.63,2.63,0,0,0,.49,0,2.45,2.45,0,1,0,3.92,0,2.63,2.63,0,0,0,.49,0,2.45,2.45,0,1,0-2.44-2.5h0a2.44,2.44,0,1,0-2.44,2.5Z"/></svg>