<svg id="Layer_1" data-name="Layer 1" xmlns="http://www.w3.org/2000/svg" xmlns:xlink="http://www.w3.org/1999/xlink" viewBox="0 0 39.82 54.4"><defs><style>.cls-1{fill:url(#linear-gradient);}.cls-2{fill:#dae6f5;}.cls-3{fill:#c11e1e;}</style><linearGradient id="linear-gradient" x1="19.89" y1="81.15" x2="19.89" y2="41.33" gradientTransform="translate(0 -25)" gradientUnits="userSpaceOnUse"><stop offset="0.25" stop-color="#9dc6ea"/><stop offset="0.69" stop-color="#416eb5"/></linearGradient></defs><path class="cls-1" d="M35,54.4H4.82C2.16,54.4,0,51.83,0,48.66H0V40.85H39.78v7.81C39.78,51.83,37.62,54.4,35,54.4Z"/><path class="cls-2" d="M4.82,0H35c2.66,0,4.82,2.57,4.82,5.74V46.38c0,3.17-2.16,5.74-4.82,5.74H4.82C2.16,52.12,0,49.55,0,46.38V5.74C0,2.57,2.16,0,4.82,0Z"/><path class="cls-3" d="M5.89,1.66A7.16,7.16,0,0,1,3,5.79a7.16,7.16,0,0,1,2.9,4.13,7.16,7.16,0,0,1,2.9-4.13A7.16,7.16,0,0,1,5.89,1.66Z"/><path class="cls-3" d="M33.89,42A7.16,7.16,0,0,1,31,46.08a7.16,7.16,0,0,1,2.9,4.13,7.16,7.16,0,0,1,2.9-4.13A7.16,7.16,0,0,1,33.89,42Z"/><path class="cls-3" d="M19.91,14a21,21,0,0,1-8.47,12,21,21,0,0,1,8.47,12.05,21,21,0,0,1,8.47-12A21,21,0,0,1,19.91,14Z"/></svg>