<svg id="Layer_1" data-name="Layer 1" xmlns="http://www.w3.org/2000/svg" xmlns:xlink="http://www.w3.org/1999/xlink" viewBox="0 0 39.82 52.12"><defs><style>.cls-1{fill:url(#linear-gradient);}.cls-2{fill:#dae6f5;}.cls-3{fill:#414042;}</style><linearGradient id="linear-gradient" x1="19.89" y1="81.15" x2="19.89" y2="41.33" gradientTransform="translate(0 -25)" gradientUnits="userSpaceOnUse"><stop offset="0.25" stop-color="#9dc6ea"/><stop offset="0.69" stop-color="#416eb5"/></linearGradient></defs><path class="cls-1" d="M35,54.4H4.82C2.16,54.4,0,51.83,0,48.66H0V40.85H39.78v7.81C39.78,51.83,37.62,54.4,35,54.4Z"/><path class="cls-2" d="M4.82,0H35c2.66,0,4.82,2.57,4.82,5.74V46.38c0,3.17-2.16,5.74-4.82,5.74H4.82C2.16,52.12,0,49.55,0,46.38V5.74C0,2.57,2.16,0,4.82,0Z"/><path class="cls-3" d="M19.89,2.87s-5.75,3.44-5.75,8.23a2.93,2.93,0,0,0,5.75.77,2.93,2.93,0,0,0,5.75-.77C25.64,6.31,19.89,2.87,19.89,2.87Z"/><path class="cls-3" d="M20,10.62h-.28s.06,4.27-3,4.73a.65.65,0,0,0-.55.64h0a.64.64,0,0,0,.64.64h6a.64.64,0,0,0,.64-.64h0a.65.65,0,0,0-.55-.64C20,14.89,20,10.62,20,10.62Z"/><path class="cls-3" d="M5.89,2.87s-3,1.79-3,4.26a1.52,1.52,0,0,0,3,.4,1.52,1.52,0,0,0,3-.4C8.87,4.66,5.89,2.87,5.89,2.87Z"/><path class="cls-3" d="M6,6.89H5.82s0,2.21-1.54,2.45A.33.33,0,0,0,4,9.67H4a.35.35,0,0,0,.34.33H7.45a.35.35,0,0,0,.34-.33h0a.33.33,0,0,0-.29-.33C5.93,9.1,6,6.89,6,6.89Z"/><path class="cls-3" d="M33.89,49s3-1.78,3-4.26a1.52,1.52,0,0,0-3-.4,1.52,1.52,0,0,0-3,.4C30.91,47.22,33.89,49,33.89,49Z"/><path class="cls-3" d="M33.82,45H34s0-2.21,1.54-2.45a.33.33,0,0,0,.29-.33h0a.35.35,0,0,0-.34-.33H32.33a.35.35,0,0,0-.34.33h0a.33.33,0,0,0,.29.33C33.85,42.77,33.82,45,33.82,45Z"/><path class="cls-3" d="M19.89,49.25s5.75-3.44,5.75-8.23a2.93,2.93,0,0,0-5.75-.77,2.93,2.93,0,0,0-5.75.77C14.14,45.81,19.89,49.25,19.89,49.25Z"/><path class="cls-3" d="M19.75,41.5H20s-.06-4.27,3-4.72a.65.65,0,0,0,.55-.64h0a.64.64,0,0,0-.64-.64h-6a.64.64,0,0,0-.64.64h0a.65.65,0,0,0,.55.64C19.81,37.23,19.75,41.5,19.75,41.5Z"/></svg>