<svg id="Layer_1" data-name="Layer 1" xmlns="http://www.w3.org/2000/svg" xmlns:xlink="http://www.w3.org/1999/xlink" viewBox="0 0 39.82 54.4"><defs><style>.cls-1{fill:url(#linear-gradient);}.cls-2{fill:#dae6f5;}.cls-3{fill:#414042;}</style><linearGradient id="linear-gradient" x1="19.93" y1="81.15" x2="19.93" y2="41.33" gradientTransform="translate(0 -25)" gradientUnits="userSpaceOnUse"><stop offset="0.25" stop-color="#9dc6ea"/><stop offset="0.69" stop-color="#416eb5"/></linearGradient></defs><path class="cls-1" d="M35,54.4H4.86C2.2,54.4,0,51.83,0,48.66H0V40.85H39.82v7.81C39.82,51.83,37.66,54.4,35,54.4Z"/><path class="cls-2" d="M4.82,0H35c2.66,0,4.82,2.57,4.82,5.74V46.38c0,3.17-2.16,5.74-4.82,5.74H4.82C2.16,52.12,0,49.55,0,46.38V5.74C0,2.57,2.16,0,4.82,0Z"/><path class="cls-3" d="M19.91,17.9S13.09,22,13.09,27.66a3.47,3.47,0,0,0,6.82.91,3.47,3.47,0,0,0,6.82-.91C26.73,22,19.91,17.9,19.91,17.9Z"/><path class="cls-3" d="M20.14,27.09H19.8s.07,5.07-3.56,5.61a.77.77,0,0,0-.65.76h0a.76.76,0,0,0,.76.76h7.12a.76.76,0,0,0,.76-.76h0a.77.77,0,0,0-.65-.76C20.14,32.16,20.14,27.09,20.14,27.09Z"/><path class="cls-3" d="M5.93,2.87s-3,1.79-3,4.26a1.52,1.52,0,0,0,3,.4,1.52,1.52,0,0,0,3-.4C8.91,4.66,5.93,2.87,5.93,2.87Z"/><path class="cls-3" d="M6,6.89H5.86s0,2.21-1.54,2.45A.33.33,0,0,0,4,9.67H4a.35.35,0,0,0,.34.33H7.49a.35.35,0,0,0,.34-.33h0a.33.33,0,0,0-.29-.33C6,9.1,6,6.89,6,6.89Z"/><path class="cls-3" d="M33.93,49s3-1.78,3-4.26a1.52,1.52,0,0,0-3-.4,1.52,1.52,0,0,0-3,.4C31,47.22,33.93,49,33.93,49Z"/><path class="cls-3" d="M33.86,45H34s0-2.21,1.54-2.45a.33.33,0,0,0,.29-.33h0a.35.35,0,0,0-.34-.33H32.37a.35.35,0,0,0-.34.33h0a.33.33,0,0,0,.29.33C33.89,42.77,33.86,45,33.86,45Z"/></svg>