<svg id="Layer_1" data-name="Layer 1" xmlns="http://www.w3.org/2000/svg" xmlns:xlink="http://www.w3.org/1999/xlink" viewBox="0 0 39.82 54.4"><defs><style>.cls-1{fill:url(#linear-gradient);}.cls-2{fill:#dae6f5;}.cls-3{fill:#414042;}</style><linearGradient id="linear-gradient" x1="19.89" y1="81.15" x2="19.89" y2="41.33" gradientTransform="translate(0 -25)" gradientUnits="userSpaceOnUse"><stop offset="0.25" stop-color="#9dc6ea"/><stop offset="0.69" stop-color="#416eb5"/></linearGradient></defs><path class="cls-1" d="M35,54.4H4.82C2.16,54.4,0,51.83,0,48.66H0V40.85H39.78v7.81C39.78,51.83,37.62,54.4,35,54.4Z"/><path class="cls-2" d="M4.82,0H35c2.66,0,4.82,2.57,4.82,5.74V46.38c0,3.17-2.16,5.74-4.82,5.74H4.82C2.16,52.12,0,49.55,0,46.38V5.74C0,2.57,2.16,0,4.82,0Z"/><path class="cls-3" d="M7.43,8.73C6,8.51,6,6.4,6,6.4h-.2s0,2.11-1.44,2.33a.34.34,0,0,0-.27.32.32.32,0,0,0,.32.32h3a.32.32,0,0,0,.32-.32A.34.34,0,0,0,7.43,8.73Z"/><path class="cls-3" d="M7.54,4.86l-.33,0a1.58,1.58,0,0,0,.33-1,1.65,1.65,0,0,0-3.3,0,1.58,1.58,0,0,0,.33,1l-.33,0A1.65,1.65,0,1,0,5.89,6.55h0A1.65,1.65,0,1,0,7.54,4.86Z"/><path class="cls-3" d="M32.35,43.16c1.44.23,1.44,2.34,1.44,2.34H34s0-2.11,1.44-2.34a.32.32,0,0,0,0-.63h-3a.32.32,0,0,0,0,.63Z"/><path class="cls-3" d="M32.24,47a1.86,1.86,0,0,0,.33,0,1.61,1.61,0,0,0-.33,1,1.65,1.65,0,0,0,3.3,0,1.61,1.61,0,0,0-.33-1,1.86,1.86,0,0,0,.33,0,1.65,1.65,0,1,0-1.65-1.69h0A1.65,1.65,0,1,0,32.24,47Z"/><path class="cls-3" d="M23.44,32.77c-3.29-.52-3.29-5.37-3.29-5.37h-.48s0,4.85-3.29,5.37a.73.73,0,0,0,.1,1.45h6.86a.73.73,0,0,0,.1-1.45Z"/><path class="cls-3" d="M23.7,23.86a3.82,3.82,0,0,0-.75.08,3.73,3.73,0,0,0,.75-2.25,3.79,3.79,0,1,0-7.58,0,3.73,3.73,0,0,0,.75,2.25,3.79,3.79,0,1,0,3,3.81h0a3.79,3.79,0,1,0,3.78-3.89Z"/></svg>