<svg id="Layer_1" data-name="Layer 1" xmlns="http://www.w3.org/2000/svg" xmlns:xlink="http://www.w3.org/1999/xlink" viewBox="0 0 39.82 54.4"><defs><style>.cls-1{fill:url(#linear-gradient);}.cls-2{fill:#dae6f5;}.cls-3{fill:#c11e1e;}</style><linearGradient id="linear-gradient" x1="19.89" y1="81.15" x2="19.89" y2="41.33" gradientTransform="translate(0 -25)" gradientUnits="userSpaceOnUse"><stop offset="0.25" stop-color="#9dc6ea"/><stop offset="0.69" stop-color="#416eb5"/></linearGradient></defs><path class="cls-1" d="M35,54.4H4.82C2.16,54.4,0,51.83,0,48.66H0V40.85H39.78v7.81C39.78,51.83,37.62,54.4,35,54.4Z"/><path class="cls-2" d="M4.82,0H35c2.66,0,4.82,2.57,4.82,5.74V46.38c0,3.17-2.16,5.74-4.82,5.74H4.82C2.16,52.12,0,49.55,0,46.38V5.74C0,2.57,2.16,0,4.82,0Z"/><path class="cls-3" d="M28.83,21.92a4.56,4.56,0,0,0-8.94-1.19A4.56,4.56,0,0,0,11,21.92c0,7.45,8.94,12.79,8.94,12.79S28.83,29.37,28.83,21.92Z"/><path class="cls-3" d="M8.89,4.45a1.52,1.52,0,0,0-3-.4,1.52,1.52,0,0,0-3,.4c0,2.47,3,4.26,3,4.26S8.87,6.92,8.89,4.45Z"/><path class="cls-3" d="M30.89,47.42a1.52,1.52,0,0,0,3,.4,1.52,1.52,0,0,0,3-.4c0-2.48-3-4.26-3-4.26S30.91,44.94,30.89,47.42Z"/></svg>