<svg id="Layer_1" data-name="Layer 1" xmlns="http://www.w3.org/2000/svg" xmlns:xlink="http://www.w3.org/1999/xlink" viewBox="0 0 300 345"><defs><style>.cls-1{fill:#e29729;}.cls-2{fill:#ffb54e;}.cls-3{fill:url(#linear-gradient);}.cls-4{fill:#fede55;}</style><linearGradient id="linear-gradient" x1="150" y1="404.84" x2="150" y2="245.55" gradientUnits="userSpaceOnUse"><stop offset="0" stop-color="#fee253"/><stop offset="0.66" stop-color="#f4ac45"/></linearGradient></defs><rect class="cls-1" x="47" y="320.74" width="82.86" height="24.26"/><rect class="cls-2" x="217.91" y="167.25" width="27.93" height="90.66"/><rect class="cls-2" x="96.78" y="70.9" width="53.22" height="82.15"/><path class="cls-3" d="M300,259.14v49.48A36.38,36.38,0,0,1,263.62,345H116.84c-2.7-10.45-15.61-18.37-31.12-18.37S57.29,334.55,54.59,345H36.38A36.38,36.38,0,0,1,0,308.62V259.14Z"/><path class="cls-4" d="M300,255.67v8.94c0,18.65-16.29,33.77-36.38,33.77H36.38C16.29,298.38,0,283.26,0,264.61v-3.06a247.14,247.14,0,0,1,19.45-79.41A247.59,247.59,0,0,1,55,115a33.45,33.45,0,0,0,18,5.16c17.61,0,31.89-13.26,31.89-29.61a28.33,28.33,0,0,0-8.07-19.68,296,296,0,0,1,25.6-19.22l2.8-1.6c17.1-9.8,39.52-4.87,50.07,11l70.58,106.21c-12.46,5.32-21.11,17-21.11,30.59,0,18.61,16.25,33.7,36.29,33.7a37.86,37.86,0,0,0,22.65-7.38l10.91,16.42a32,32,0,0,1,5.28,14.89Z"/><circle class="cls-2" cx="64.01" cy="229.35" r="29.79"/><circle class="cls-2" cx="155.61" cy="156.88" r="42.67"/><path class="cls-2" d="M184.3,298.38H129.86a27.22,27.22,0,0,1,54.44,0Z"/><path class="cls-1" d="M184.3,298.38c0,9.28-12.19,16.81-27.22,16.81s-27.22-7.53-27.22-16.81Z"/><ellipse class="cls-1" cx="231.88" cy="320.74" rx="19.86" ry="12.87"/></svg>