<svg id="Layer_1" data-name="Layer 1" xmlns="http://www.w3.org/2000/svg" xmlns:xlink="http://www.w3.org/1999/xlink" viewBox="0 0 300 345"><defs><style>.cls-1{fill:url(#linear-gradient);}.cls-2{fill:url(#linear-gradient-2);}.cls-3{fill:url(#linear-gradient-3);}.cls-4{fill:url(#linear-gradient-4);}.cls-5{fill:#fede55;}.cls-6{fill:url(#linear-gradient-5);}.cls-7{fill:url(#linear-gradient-6);}.cls-8{fill:url(#linear-gradient-7);}.cls-9{fill:url(#linear-gradient-8);}.cls-10{fill:url(#linear-gradient-9);}</style><linearGradient id="linear-gradient" x1="88.43" y1="383.49" x2="88.43" y2="300" gradientUnits="userSpaceOnUse"><stop offset="0" stop-color="#fdb748"/><stop offset="1" stop-color="#ef8729"/></linearGradient><linearGradient id="linear-gradient-2" x1="231.88" y1="246.52" x2="231.88" y2="146.48" gradientUnits="userSpaceOnUse"><stop offset="0" stop-color="#fee253"/><stop offset="0.73" stop-color="#f4ac45"/></linearGradient><linearGradient id="linear-gradient-3" x1="123.39" y1="163.23" x2="123.39" y2="24.8" gradientUnits="userSpaceOnUse"><stop offset="0" stop-color="#fee253"/><stop offset="0.66" stop-color="#f4ac45"/></linearGradient><linearGradient id="linear-gradient-4" x1="150" y1="404.84" x2="150" y2="245.55" xlink:href="#linear-gradient-3"/><linearGradient id="linear-gradient-5" x1="64.01" y1="285.43" x2="64.01" y2="189.67" gradientUnits="userSpaceOnUse"><stop offset="0" stop-color="#fee253"/><stop offset="0.84" stop-color="#f4ac45"/></linearGradient><linearGradient id="linear-gradient-6" x1="155.61" y1="231.32" x2="155.61" y2="96.04" gradientUnits="userSpaceOnUse"><stop offset="0" stop-color="#fee253"/><stop offset="0.85" stop-color="#f4ac45"/></linearGradient><linearGradient id="linear-gradient-7" x1="157.08" y1="326.13" x2="157.08" y2="246.24" xlink:href="#linear-gradient-6"/><linearGradient id="linear-gradient-8" x1="157.08" y1="272.95" x2="157.08" y2="332.71" xlink:href="#linear-gradient"/><linearGradient id="linear-gradient-9" x1="231.88" y1="355.66" x2="231.88" y2="299.58" xlink:href="#linear-gradient"/></defs><rect class="cls-1" x="47" y="320.74" width="82.86" height="24.26"/><rect class="cls-2" x="217.91" y="167.25" width="27.93" height="90.66"/><rect class="cls-3" x="96.78" y="70.9" width="53.22" height="82.15"/><path class="cls-4" d="M300,259.14v49.48A36.38,36.38,0,0,1,263.62,345H116.84c-2.7-10.45-15.61-18.37-31.12-18.37S57.29,334.55,54.59,345H36.38A36.38,36.38,0,0,1,0,308.62V259.14Z"/><path class="cls-5" d="M300,255.67v8.94c0,18.65-16.29,33.77-36.38,33.77H36.38C16.29,298.38,0,283.26,0,264.61v-3.06a247.14,247.14,0,0,1,19.45-79.41A247.59,247.59,0,0,1,55,115a33.45,33.45,0,0,0,18,5.16c17.61,0,31.89-13.26,31.89-29.61a28.33,28.33,0,0,0-8.07-19.68,296,296,0,0,1,25.6-19.22l2.8-1.6c17.1-9.8,39.52-4.87,50.07,11l70.58,106.21c-12.46,5.32-21.11,17-21.11,30.59,0,18.61,16.25,33.7,36.29,33.7a37.86,37.86,0,0,0,22.65-7.38l10.91,16.42a32,32,0,0,1,5.28,14.89Z"/><circle class="cls-6" cx="64.01" cy="229.35" r="29.79"/><circle class="cls-7" cx="155.61" cy="156.88" r="42.67"/><path class="cls-8" d="M184.3,298.38H129.86a27.22,27.22,0,0,1,54.44,0Z"/><path class="cls-9" d="M184.3,298.38c0,9.28-12.19,16.81-27.22,16.81s-27.22-7.53-27.22-16.81Z"/><ellipse class="cls-10" cx="231.88" cy="320.74" rx="19.86" ry="12.87"/></svg>