<svg xmlns="http://www.w3.org/2000/svg" xmlns:xlink="http://www.w3.org/1999/xlink" viewBox="0 0 47.55 64.18"><defs><style>.cls-1{fill:#e2935a;}.cls-2{fill:url(#radial-gradient);}.cls-3{fill:#fbdbc4;}</style><radialGradient id="radial-gradient" cx="21.3" cy="29.21" fy="14.392834227766377" r="33.61" gradientTransform="translate(0 -14.31) scale(1 1.49)" gradientUnits="userSpaceOnUse"><stop offset="0" stop-color="#feca98"/><stop offset="1" stop-color="#f3a567"/></radialGradient></defs><g id="Layer_2" data-name="Layer 2"><path class="cls-1" d="M47.55,37.78c0,14.58-10.65,26.4-23.77,26.4-8.35,0-15.69-4.77-19.92-12A28.35,28.35,0,0,1,0,37.78C0,23.21,8,.34,23.78.34A16.79,16.79,0,0,1,35.25,5.07C43.42,12.54,47.55,27.31,47.55,37.78Z"/><path class="cls-2" d="M42.6,31.69C42.6,46.27,32,58.08,18.83,58.08a22.21,22.21,0,0,1-15-5.89A28.35,28.35,0,0,1,0,37.78C0,23.21,8,.34,23.78.34A16.79,16.79,0,0,1,35.25,5.07C40.14,12.94,42.6,23.6,42.6,31.69Z"/><ellipse class="cls-3" cx="9.37" cy="28.75" rx="9.66" ry="5.51" transform="translate(-20.8 30.8) rotate(-75.84)"/><circle class="cls-3" cx="15.95" cy="12.48" r="3.98"/></g></svg>