<svg xmlns="http://www.w3.org/2000/svg" viewBox="0 0 63.07 132.22"><defs><style>.cls-1{fill:#dbc7ba;}.cls-2{fill:#a09690;}.cls-3{fill:#ede6d9;}</style></defs><g id="Layer_3" data-name="Layer 3"><path class="cls-1" d="M53.73,101.28c-2.83-1.38-9.21-5.8-11.55-12.63s-.07-44-.12-48.52,7.31-7.62,10.26-9.67a16.76,16.76,0,0,0,8-13.5A16,16,0,0,0,48.69.93h0A17.41,17.41,0,0,0,41.62.39a17.41,17.41,0,0,0-6.88,2.46c-3.46,2.25-6.08,2.5-8,1.84a5.23,5.23,0,0,1-1.6-.86A18.81,18.81,0,0,0,14.68,0a23.39,23.39,0,0,0-3.31.16,10.35,10.35,0,0,0-4,4,10.35,10.35,0,0,1,4-4C4.2,1,.39,5.37.06,13.16c-.25,6,0,8.86,7.49,15.1s9.11,9.06,9.33,16.38c.26,8.19,3.8,35.13,1.22,44A26.93,26.93,0,0,1,9,101.84c-.07,0-9.06,7-5.78,16.88s11.08,14.88,19.68,13.17A14.19,14.19,0,0,0,27,130.45h0a14.59,14.59,0,0,0,3.63-2.73,6.19,6.19,0,0,1,1.78-1.09c3.93-1.48,6.22,4.3,14,4.7A21.62,21.62,0,0,0,57.16,129c3.15-1.79,5.16-5,5.79-9.7C63.84,112.49,59.72,104,53.73,101.28ZM23.55,86.93a24.69,24.69,0,0,1-2.17,5.15,25.47,25.47,0,0,0,2.17-5.15c.84-2.89,1-7.73.89-13.22C24.58,79.2,24.39,84,23.55,86.93Zm-1.49-47.4,0-.24Zm0-.26a13.49,13.49,0,0,0-2.19-5.78A13.49,13.49,0,0,1,22,39.27ZM21.37,92.1h0Zm-12.66,25c-3.29-9.85,5.7-16.83,5.77-16.88a.91.91,0,0,0,.16-.13.91.91,0,0,1-.16.13c-.06,0-9.06,7-5.77,16.88,1.73,5.21,4.72,9.06,8.43,11.29C13.43,126.12,10.44,122.27,8.71,117.06Zm8.59,11.39-.08,0Z"/><path class="cls-2" d="M3.26,118.72C0,108.87,9,101.89,9,101.84A26.93,26.93,0,0,0,18.1,88.59c2.58-8.82-1-35.76-1.22-43.95-.22-7.32-1.8-10.14-9.33-16.38S-.19,19.13.06,13.16C.39,5.37,4.2,1,11.37.16,7.7,2.21,5.73,6,5.5,11.51c-.25,6,0,8.85,7.49,15.09S22.11,35.67,22.33,43c.25,8.19,3.8,35.13,1.22,44a26.94,26.94,0,0,1-9.07,13.25c-.07,0-9.06,7-5.77,16.88,3.1,9.33,10.25,14.32,18.3,13.39a14.36,14.36,0,0,1-4.07,1.44C14.34,133.6,6.55,128.58,3.26,118.72Z"/><ellipse class="cls-3" cx="49.61" cy="10.99" rx="5.76" ry="8.77" transform="translate(2.79 30.73) rotate(-35.36)"/><ellipse class="cls-3" cx="53.49" cy="22.71" rx="2.78" ry="2.38" transform="translate(-1.05 2.67) rotate(-2.83)"/><ellipse class="cls-3" cx="17.63" cy="7.64" rx="4.57" ry="5.46" transform="translate(0.05 15.4) rotate(-47.26)"/><ellipse class="cls-3" cx="53.14" cy="118.39" rx="6.51" ry="8.51" transform="translate(-27.58 16.78) rotate(-14.29)"/><ellipse class="cls-3" cx="48.64" cy="105.03" rx="2.26" ry="1.94" transform="translate(-5.12 2.53) rotate(-2.83)"/><ellipse class="cls-3" cx="22.66" cy="123.86" rx="3.19" ry="4.1" transform="translate(-91.33 70.38) rotate(-54.5)"/><path class="cls-3" d="M33.91,79.16,34.47,41a2.09,2.09,0,0,1,2.22-1.89h0A2,2,0,0,1,38.86,41l-.55,38.13A2.13,2.13,0,0,1,36.08,81h0A2,2,0,0,1,33.91,79.16Z"/><ellipse class="cls-3" cx="36.03" cy="84.62" rx="1.79" ry="1.53" transform="translate(-4.13 1.88) rotate(-2.83)"/><path class="cls-2" d="M57.16,129a21.62,21.62,0,0,1-10.73,2.35c-7.79-.4-10.08-6.18-14-4.7-1.23-1.29-2.18-3.85,1.84-8.25C34.26,118.38,41.52,132.52,57.16,129Z"/><path class="cls-2" d="M31.21,16.6C28.15,14,27,9.31,26.78,4.69c1.88.66,4.5.41,8-1.84A17.41,17.41,0,0,1,41.62.39a17.41,17.41,0,0,1,7.06.54C30.13,2.26,31.21,16.6,31.21,16.6Z"/></g></svg>