<svg xmlns="http://www.w3.org/2000/svg" viewBox="0 0 32.19 134.97"><defs><style>.cls-1{fill:#b26847;}.cls-2{fill:#d38466;}.cls-3{fill:#d2d6d8;}.cls-4{fill:#a4b5bc;}.cls-5{fill:#9e1212;}.cls-6{fill:#dae2e5;}.cls-7{fill:#751111;}</style></defs><g id="Layer_3" data-name="Layer 3"><rect class="cls-1" x="13.53" y="22.31" width="5.14" height="95.39"/><rect class="cls-2" x="14.46" y="26.46" width="2.01" height="48.41" rx="1"/><rect class="cls-2" x="14.46" y="81.44" width="2.01" height="8.91" rx="1"/><polygon class="cls-3" points="24.91 23.84 7.3 23.84 15.69 1.11 16.1 0 16.11 0.03 24.91 23.84"/><polygon class="cls-4" points="24.91 23.84 16.1 23.84 16.1 0 16.11 0.03 24.91 23.84"/><path class="cls-5" d="M13.53,83.47S5.66,94.17.59,97.22a24,24,0,0,0,12.94-1.51Z"/><path class="cls-5" d="M.59,101.8s11-2.55,12.94-11.45v24.14S1.94,125.49,6,135C-2.63,120.08.59,101.8.59,101.8Z"/><polyline class="cls-6" points="16.1 0 8.37 30.17 16.1 23.87 16.1 0"/><polygon class="cls-3" points="23.83 30.17 16.1 23.87 16.1 0 16.11 0.03 22.21 23.84 23.83 30.17"/><path class="cls-7" d="M5.49,95.4s6.66-2,8-7.91V94.2A11.9,11.9,0,0,1,5.49,95.4Z"/><path class="cls-7" d="M13.53,98.08s-6.09,7.45-10.35,8.6c7.3-1.41,10.35-4.3,10.35-4.3Z"/><path class="cls-7" d="M13.53,108.94S6,113.71,5.13,117.7c-.06-7.2,8.4-16.45,8.4-16.45Z"/><path class="cls-5" d="M18.67,83.47s7.86,10.7,12.94,13.75a24,24,0,0,1-12.94-1.51Z"/><path class="cls-5" d="M31.61,101.8s-11-2.55-12.94-11.45v24.14s11.58,11,7.52,20.48C34.82,120.08,31.61,101.8,31.61,101.8Z"/><path class="cls-7" d="M26.7,95.4s-6.66-2-8-7.91V94.2A11.86,11.86,0,0,0,26.7,95.4Z"/><path class="cls-7" d="M18.67,98.08s6.08,7.45,10.35,8.6c-7.31-1.41-10.35-4.3-10.35-4.3Z"/><path class="cls-7" d="M18.67,108.94s7.54,4.77,8.4,8.76c.05-7.2-8.4-16.45-8.4-16.45Z"/></g></svg>