<svg xmlns="http://www.w3.org/2000/svg" viewBox="0 0 44.23 140.1"><defs><style>.cls-1{fill:#4c82d8;}.cls-2{fill:#7fd2e5;}.cls-3{fill:#6722aa;}.cls-4{fill:#ae2ece;}.cls-5{fill:#aa43d1;}.cls-6{fill:#662a91;}.cls-7{fill:#df86ef;}</style></defs><g id="Layer_3" data-name="Layer 3"><rect class="cls-1" x="19.55" y="25.56" width="5.14" height="95.39"/><rect class="cls-2" x="20.48" y="29.71" width="2.01" height="48.41" rx="1"/><rect class="cls-2" x="20.48" y="84.69" width="2.01" height="8.91" rx="1"/><path class="cls-3" d="M1.38,117.11c1.78-4.16,9.05-7.67,13.83-9.58C9.42,112.47-.11,121.73,0,129.1c5.17-11.24,19.55-14.81,19.55-14.81v-19C6.72,102.59,1.38,117.11,1.38,117.11Z"/><path class="cls-4" d="M6.6,97.17a23.28,23.28,0,0,0,9.12-.35,21.29,21.29,0,0,1-9.12,5.56S3.39,123.16,12,140.1c-4.06-10.78,7.53-23.29,7.53-23.29V81.54S11.68,93.7,6.6,97.17Z"/><path class="cls-3" d="M11.51,95.1a10.72,10.72,0,0,0,8-1.36V86.1C18.17,92.78,11.51,95.1,11.51,95.1Z"/><path class="cls-3" d="M9.2,107.93a25.25,25.25,0,0,0,8.22-3.25c-2.5,3.71-6.31,10.27-6.28,15.78.86-4.54,8.41-10,8.41-10V98.15S13.46,106.62,9.2,107.93Z"/><path class="cls-3" d="M12.26,86.72c2.53-3.17,7.29-5.18,7.29-5.18V76.65S16.64,78.88,12.26,86.72Z"/><path class="cls-5" d="M22.11,0S9.88,19,11.28,37.53c3.38-10.44,10.83,3.12,10.83,3.12Z"/><path class="cls-3" d="M29,107.53c4.78,1.91,12.05,5.42,13.83,9.58,0,0-5.34-14.52-18.17-21.77v19s14.38,3.57,19.55,14.81C44.34,121.73,34.81,112.47,29,107.53Z"/><path class="cls-4" d="M37.63,102.38a21.29,21.29,0,0,1-9.12-5.56,23.28,23.28,0,0,0,9.12.35c-5.08-3.47-13-15.63-13-15.63v35.27s11.59,12.51,7.53,23.29C40.84,123.16,37.63,102.38,37.63,102.38Z"/><path class="cls-3" d="M32.72,95.1s-6.66-2.32-8-9v7.64A10.72,10.72,0,0,0,32.72,95.1Z"/><path class="cls-3" d="M35,107.93c-4.26-1.31-10.35-9.78-10.35-9.78V110.5s7.55,5.42,8.4,10c0-5.51-3.77-12.07-6.28-15.78A25.32,25.32,0,0,0,35,107.93Z"/><path class="cls-3" d="M32,86.72c-4.38-7.84-7.29-10.07-7.29-10.07v4.89S29.44,83.55,32,86.72Z"/><path class="cls-6" d="M22.11,0S34.35,19,33,37.53c-3.38-10.44-10.84,3.12-10.84,3.12Z"/><path class="cls-7" d="M22.11,6.7c-5,8.17-8,23.26-8,23.26,4-3.71,8,3.46,8,3.46s4-7.17,8-3.46C30.1,30,27.12,14.87,22.11,6.7Z"/></g></svg>