<svg xmlns="http://www.w3.org/2000/svg" viewBox="0 0 21.68 122.08"><defs><style>.cls-1{fill:#9e1212;}.cls-2{fill:#771915;}.cls-3{fill:#b26847;}.cls-4{fill:#d2d6d8;}.cls-5{fill:#99a5aa;}.cls-6{fill:#d38466;}</style></defs><g id="Layer_3" data-name="Layer 3"><polygon class="cls-1" points="11.21 90.13 8.27 91.99 0 97.22 0 94.81 6.71 88.99 0 91.96 0 88.81 8.27 83.58 8.45 83.47 11.21 90.13"/><polygon class="cls-1" points="10.47 90.13 13.41 91.99 21.68 97.22 21.68 94.81 14.97 88.99 21.68 91.96 21.68 88.81 13.41 83.58 13.23 83.47 10.47 90.13"/><polygon class="cls-1" points="8.27 95.45 8.27 113.6 13.41 116.84 21.68 122.08 21.68 117.7 14.97 110.45 21.68 114.35 21.68 110.45 15.58 104.41 21.68 106.36 21.68 103.12 13.41 97.9 8.53 94.81 8.27 95.45"/><polygon class="cls-2" points="13.41 104.42 16.77 108.94 13.41 107.44 13.41 104.42"/><polygon class="cls-2" points="13.41 89.34 21.68 97.22 13.41 92 13.41 89.34"/><polygon class="cls-2" points="21.68 122.08 13.41 112.12 13.41 116.84 21.68 122.08"/><polygon class="cls-1" points="13.41 95.45 13.41 113.6 8.27 116.84 0 122.08 0 117.7 6.71 110.45 0 114.35 0 110.45 6.1 104.41 0 106.36 0 103.12 8.27 97.9 13.15 94.81 13.41 95.45"/><rect class="cls-3" x="8.27" y="22.31" width="5.14" height="95.39"/><polygon class="cls-2" points="8.27 104.42 4.91 108.94 8.27 107.44 8.27 104.42"/><polygon class="cls-2" points="8.27 89.34 0 97.22 8.27 92 8.27 89.34"/><polygon class="cls-4" points="19.65 25.89 2.04 25.89 10.43 1.21 10.84 0 10.85 0.03 19.65 25.89"/><polygon class="cls-5" points="19.65 25.89 10.85 25.89 10.85 0.03 19.65 25.89"/><polygon class="cls-2" points="0 122.08 8.27 112.12 8.27 116.84 0 122.08"/><rect class="cls-6" x="9.2" y="26.46" width="2.01" height="48.41" rx="1"/><rect class="cls-6" x="9.2" y="81.44" width="2.01" height="8.91" rx="1"/></g></svg>