<svg xmlns="http://www.w3.org/2000/svg" viewBox="0 0 49.56 49.56"><defs><style>.cls-1{fill:#bfecf7;opacity:0.15;}.cls-2{fill:#3bbbed;}.cls-3{fill:#aaeaf9;}.cls-4{fill:#6dd3f2;}</style></defs><g id="Layer_3" data-name="Layer 3"><circle class="cls-1" cx="24.78" cy="24.78" r="24.78"/><path class="cls-2" d="M24.78,49.56A24.78,24.78,0,1,1,49.56,24.78,24.81,24.81,0,0,1,24.78,49.56Zm0-42.78a18,18,0,1,0,18,18A18,18,0,0,0,24.78,6.78Z"/><circle class="cls-3" cx="19.63" cy="11.81" r="6.64"/><circle class="cls-3" cx="9.8" cy="20.78" r="3.69"/><path class="cls-4" d="M39,24.78A14.35,14.35,0,0,1,11,29.39,14.35,14.35,0,0,0,34.75,14.64,14.27,14.27,0,0,1,39,24.78Z"/></g></svg>