<svg xmlns="http://www.w3.org/2000/svg" viewBox="0 0 84.86 85.07"><defs><style>.cls-1{fill:#38314f;}.cls-2{fill:#916100;}.cls-3{fill:#252338;}.cls-4{fill:#535075;}.cls-5{fill:#09080f;}</style></defs><g id="Layer_3" data-name="Layer 3"><path class="cls-1" d="M80.27,33.13c.07,1.51.12,3,.14,4.43A81,81,0,0,1,78.89,55h0C72.66,87.31,44.63,85,42.43,85S12.2,87.31,6,55H6A81,81,0,0,1,4.45,37.56c0-1.44.07-2.92.14-4.43a142.92,142.92,0,0,1,2-17.34l-.4-.17L0,13.07.51,10.7,2.34,2.16,4.54,0,25.76,3l-.85,1.92s-2.64,8.18-4.51,15.66c-.53,2.1-1,4.15-1.33,5.95-.44,2.37-.75,4.58-1,6.7,0,.83,0,1.66,0,2.46,0,0,0,0,0,0a36.79,36.79,0,0,0,.8,7C20.13,48.4,24.22,61,42.43,61S64.73,48.4,66,42.66a36.64,36.64,0,0,0,.8-6.89c0-.82,0-1.66,0-2.52-.21-2.13-.53-4.37-1-6.75C65,22.42,63.58,17,62.31,12.64S60,4.89,60,4.89L59.1,3,80.32,0l2.2,2.16,1.83,8.54.51,2.37-6.17,2.55-.41.17A142.65,142.65,0,0,1,80.27,33.13Z"/><polygon class="cls-2" points="4.54 0 2.34 2.16 24.91 4.89 25.76 2.97 4.54 0"/><polygon class="cls-2" points="80.32 0 82.53 2.16 59.95 4.89 59.1 2.97 80.32 0"/><path class="cls-3" d="M17.83,37.36a38.8,38.8,0,0,0,.81,9.55C19.89,52.66,24,65.23,42.43,65.23S65,52.66,66.23,46.91A40.06,40.06,0,0,0,67,37.45c0-1.35-.15-2.75-.29-4.2,0,.86,0,1.7,0,2.52A36.63,36.63,0,0,1,66,42.66C64.73,48.4,60.64,61,42.43,61S20.13,48.4,18.9,42.66a36.79,36.79,0,0,1-.8-7s0,0,0,0c0-.8,0-1.63,0-2.46-.14,1.42-.25,2.81-.28,4.13A0,0,0,0,0,17.83,37.36Z"/><path class="cls-4" d="M24.91,4.89s-2.63,8.18-4.51,15.66L6.57,15.79,0,13.07,2.34,2.16Z"/><path class="cls-4" d="M8.88,20.55S-6.94,84.76,48,81.84C3.28,73.61,8.88,20.55,8.88,20.55Z"/><path class="cls-4" d="M49,67.6s29,0,18.77-46.12C87.07,67.61,49,67.6,49,67.6Z"/><path class="cls-3" d="M14.7,34.26a3.94,3.94,0,1,1-.35-1.6A3.74,3.74,0,0,1,14.7,34.26Z"/><path class="cls-3" d="M16.38,52.74a3.93,3.93,0,1,1-.35-1.6A3.92,3.92,0,0,1,16.38,52.74Z"/><path class="cls-3" d="M27.84,70.53a4.65,4.65,0,0,1-9.29,0,4.51,4.51,0,0,1,.29-1.61,4.64,4.64,0,0,1,8.71,0A4.51,4.51,0,0,1,27.84,70.53Z"/><path class="cls-3" d="M48,75.21a5.6,5.6,0,1,1-.23-1.6A5.61,5.61,0,0,1,48,75.21Z"/><path class="cls-5" d="M14.35,32.66a3.91,3.91,0,0,1-7.14,0,3.91,3.91,0,0,1,7.14,0Z"/><path class="cls-5" d="M16,51.14a3.91,3.91,0,0,1-7.15,0,3.92,3.92,0,0,1,7.15,0Z"/><path class="cls-5" d="M27.55,68.92a4.64,4.64,0,0,1-8.71,0,4.64,4.64,0,0,1,8.71,0Z"/><path class="cls-5" d="M47.81,73.61a5.61,5.61,0,0,1-10.76,0,5.61,5.61,0,0,1,10.76,0Z"/><polygon class="cls-1" points="4.54 0 2.34 2.16 24.91 4.89 25.76 2.97 4.54 0"/><path class="cls-4" d="M60,4.89s2.64,8.18,4.51,15.66l13.83-4.76,6.57-2.72L82.53,2.16Z"/><path class="cls-3" d="M70.16,34.26a3.92,3.92,0,1,0,7.84,0,3.74,3.74,0,0,0-.35-1.6,3.91,3.91,0,0,0-7.14,0A3.74,3.74,0,0,0,70.16,34.26Z"/><path class="cls-3" d="M68.49,52.74a3.9,3.9,0,1,0,.34-1.6A3.91,3.91,0,0,0,68.49,52.74Z"/><path class="cls-3" d="M57,70.53a4.65,4.65,0,0,0,9.29,0A4.74,4.74,0,0,0,66,68.92a4.65,4.65,0,0,0-8.72,0A4.74,4.74,0,0,0,57,70.53Z"/><path class="cls-5" d="M70.51,32.66a3.91,3.91,0,0,0,7.14,0,3.91,3.91,0,0,0-7.14,0Z"/><path class="cls-5" d="M68.83,51.14a3.91,3.91,0,0,0,7.15,0,3.92,3.92,0,0,0-7.15,0Z"/><path class="cls-5" d="M57.31,68.92a4.65,4.65,0,0,0,8.72,0,4.65,4.65,0,0,0-8.72,0Z"/><polygon class="cls-1" points="80.32 0 82.53 2.16 59.95 4.89 59.1 2.97 80.32 0"/><rect class="cls-1" x="40.41" y="82.94" width="3.85" height="2.14"/></g></svg>