<svg xmlns="http://www.w3.org/2000/svg" viewBox="0 0 92.71 89.05"><defs><style>.cls-1{fill:#ababb2;}.cls-2{fill:#d7d7dd;}.cls-3{fill:#188209;}.cls-4{fill:#f7e714;}.cls-5{fill:#2348cc;}.cls-6{fill:#c41c1c;}.cls-7{fill:#3d3159;opacity:0.3;}.cls-8{fill:#efe7c2;opacity:0.4;}</style></defs><g id="Layer_3" data-name="Layer 3"><path class="cls-1" d="M78.19,69.17c-2.66-1.07-3.65-4.83-2.21-8.41,1.2-3,3.71-4.89,6-4.83a4,4,0,0,1,1.36.28C86,57.28,93.68,64.76,92.6,67.43a1.39,1.39,0,0,1-.3.47h0C90.21,70.12,80.68,70.17,78.19,69.17Z"/><path class="cls-2" d="M81.9,67.69c-2.66-1.06-3.65-4.82-2.21-8.4A8.77,8.77,0,0,1,82,55.93a4,4,0,0,1,1.36.28C86,57.28,93.68,64.76,92.6,67.43a1.39,1.39,0,0,1-.3.47h0C88.64,68.57,83.61,68.38,81.9,67.69Z"/><path class="cls-1" d="M34.22,79.67c-.6,2.41-5.91,9.91-8.19,9.35a1.38,1.38,0,0,1-.42-.21A5.78,5.78,0,0,1,24.08,86,27.76,27.76,0,0,1,23,78.69a8.19,8.19,0,0,1,.15-1.77c.6-2.41,3.56-3.74,6.62-3l.06,0c2.52.65,4.3,2.53,4.48,4.52A3.48,3.48,0,0,1,34.22,79.67Z"/><path class="cls-2" d="M30.63,76a3.75,3.75,0,0,1-.1,1.2c-.47,1.91-3.91,7-6.45,8.78A27.76,27.76,0,0,1,23,78.69a8.19,8.19,0,0,1,.15-1.77c.6-2.41,3.56-3.74,6.62-3l.06,0A4.32,4.32,0,0,1,30.63,76Z"/><path class="cls-1" d="M23,11.8c1.51,1.89.65,5.1-1.93,7.16-2.15,1.72-4.82,2.1-6.52,1.08a3.15,3.15,0,0,1-.89-.78c-1.52-1.89-4-10.62-2.07-12.16A1.4,1.4,0,0,1,12,6.88h0C14.47,6.1,21.55,10,23,11.8Z"/><path class="cls-2" d="M19.6,11.36c1.51,1.89.65,5.09-1.93,7.16A7.59,7.59,0,0,1,14.52,20a3.15,3.15,0,0,1-.89-.78c-1.52-1.89-4-10.62-2.07-12.16A1.4,1.4,0,0,1,12,6.88h0C15,7.9,18.62,10.14,19.6,11.36Z"/><path class="cls-3" d="M31,58A58.7,58.7,0,0,1,6.68,52.1,39.62,39.62,0,0,0,45.26,82.75a40.89,40.89,0,0,0,5.79-.42A53.39,53.39,0,0,1,31,58Z"/><path class="cls-4" d="M84.87,43.14A39.61,39.61,0,0,1,51.05,82.32,53.25,53.25,0,0,1,31,58c.49,0,1,0,1.46,0A59,59,0,0,0,82.65,30.07,39.54,39.54,0,0,1,84.87,43.14Z"/><path class="cls-1" d="M72.43,15.76c-2,2.38-6.08,2.22-9.22-.36-2.62-2.15-3.72-5.3-2.87-7.67a4.23,4.23,0,0,1,.73-1.31C63,4,73.12-1.43,75.46.49a1.53,1.53,0,0,1,.37.46h0C77.38,3.77,74.26,13.52,72.43,15.76Z"/><path class="cls-2" d="M72.17,11.51c-2,2.38-6.08,2.23-9.22-.35a9,9,0,0,1-2.61-3.43,4.23,4.23,0,0,1,.73-1.31C63,4,73.12-1.43,75.46.49a1.53,1.53,0,0,1,.37.46h0C75.29,4.9,73.43,10,72.17,11.51Z"/><path class="cls-5" d="M27.08,38A53,53,0,0,0,31,58,58.86,58.86,0,0,1,6.68,52.1,39.59,39.59,0,0,1,39.39,4,52.85,52.85,0,0,0,27.08,38Z"/><path class="cls-6" d="M82.65,30.07A59,59,0,0,1,32.46,58c-.49,0-1,0-1.46,0A53.08,53.08,0,0,1,39.39,4a39.59,39.59,0,0,1,43.26,26.1Z"/><path class="cls-7" d="M84.87,43.14A39.6,39.6,0,0,1,14.73,68.35,42.94,42.94,0,0,0,68.33,11,39.6,39.6,0,0,1,84.87,43.14Z"/><path class="cls-1" d="M46.13,73.09c-3.2-1.5-4.24-6-2.34-10.05,1.59-3.38,4.73-5.37,7.58-5.07a4.85,4.85,0,0,1,1.65.46c3.19,1.5,12.18,11,10.76,14a1.62,1.62,0,0,1-.39.52h0C60.75,75.35,49.12,74.49,46.13,73.09Z"/><path class="cls-1" d="M27.18,69.82a4.88,4.88,0,0,1-.65,1.48c-1.82,2.79-11.69,10.06-14.22,8.41a1.27,1.27,0,0,1-.41-.42h0l-.07-.12c-1.64-2.87.75-13.29,2.43-15.87a5.25,5.25,0,0,1,2.84-2.12,7.83,7.83,0,0,1,6.59,1.07C26.51,64.09,27.86,67.22,27.18,69.82Z"/><path class="cls-2" d="M22.9,69.82a4.88,4.88,0,0,1-.65,1.48c-1.28,2-6.53,6.13-10.43,7.87-1.64-2.87.75-13.29,2.43-15.87a5.25,5.25,0,0,1,2.84-2.12,8.85,8.85,0,0,1,2.3,1.07C22.22,64.09,23.58,67.22,22.9,69.82Z"/><path class="cls-2" d="M50.71,71.71c-3.19-1.5-4.24-6-2.33-10a9.72,9.72,0,0,1,3-3.7,4.85,4.85,0,0,1,1.65.46c3.19,1.5,12.18,11,10.76,14a1.62,1.62,0,0,1-.39.52h0C58.89,73.39,52.77,72.68,50.71,71.71Z"/><path class="cls-1" d="M67.84,76.07c-2.63-1.2-3.24-5.5-1.36-9.6C68,63,70.85,60.84,73.26,60.9a3.48,3.48,0,0,1,1.38.32C77.27,62.42,84.35,70.94,83,74a2.08,2.08,0,0,1-.37.54h0C80.18,77.09,70.31,77.2,67.84,76.07Z"/><path class="cls-2" d="M71.84,74.36c-2.63-1.2-3.24-5.5-1.37-9.6a11.64,11.64,0,0,1,2.79-3.86,3.48,3.48,0,0,1,1.38.32C77.27,62.42,84.35,70.94,83,74a2.08,2.08,0,0,1-.37.54h0C78.72,75.33,73.54,75.14,71.84,74.36Z"/><ellipse class="cls-8" cx="29.11" cy="23.6" rx="12.64" ry="11.52" transform="matrix(0.63, -0.77, 0.77, 0.63, -7.6, 31.1)"/><path class="cls-1" d="M51.75,49.21c-1.63,3.1-7,3.51-11.88.91-4.12-2.17-6.66-5.74-6.45-8.66a4.17,4.17,0,0,1,.47-1.65c1.63-3.1,12.51-11,16.19-9.08a2.66,2.66,0,0,1,.64.49h0C53.71,34.33,53.28,46.31,51.75,49.21Z"/><path class="cls-2" d="M49.88,44.23c-1.63,3.1-7,3.51-11.88.91a14.64,14.64,0,0,1-4.58-3.68,4.17,4.17,0,0,1,.47-1.65c1.63-3.1,12.51-11,16.19-9.08a2.66,2.66,0,0,1,.64.49h0C51.46,36,50.93,42.24,49.88,44.23Z"/><path class="cls-1" d="M63.21,26.41c-1.6,2.64-5.7,3.09-9.18,1-2.9-1.75-4.45-4.71-4-7.18a4.37,4.37,0,0,1,.54-1.39c1.6-2.65,10.78-9.53,13.38-8a1.35,1.35,0,0,1,.43.4h0C66.36,13.83,64.7,23.94,63.21,26.41Z"/><path class="cls-2" d="M62.33,22.25c-1.59,2.64-5.69,3.08-9.17,1a9.13,9.13,0,0,1-3.09-3,4.37,4.37,0,0,1,.54-1.39c1.6-2.65,10.78-9.53,13.38-8a1.35,1.35,0,0,1,.43.4h0C64.46,15.25,63.36,20.55,62.33,22.25Z"/><path class="cls-1" d="M20.49,40.37c2.33,1.92,2.35,5.74,0,8.55-1.93,2.35-4.87,3.24-7.14,2.36a4.59,4.59,0,0,1-1.26-.74C9.8,48.62,4.21,39,5.93,36.93a1.4,1.4,0,0,1,.42-.33h0C9,35.28,18.3,38.57,20.49,40.37Z"/><path class="cls-2" d="M16.48,40.44c2.34,1.91,2.36,5.74.05,8.55a7.63,7.63,0,0,1-3.14,2.29,4.59,4.59,0,0,1-1.26-.74C9.8,48.62,4.21,39,5.93,36.93a1.4,1.4,0,0,1,.42-.33h0C10.11,37.27,15,39.2,16.48,40.44Z"/><path class="cls-1" d="M14.77,22.4c2.19,2.08,1.92,5.9-.59,8.53-2.1,2.19-5.09,2.86-7.29,1.82a4.74,4.74,0,0,1-1.21-.83c-2.18-2.09-7-12.07-5.16-14A1.17,1.17,0,0,1,1,17.59H1C3.65,16.47,12.73,20.44,14.77,22.4Z"/><path class="cls-2" d="M10.78,22.17c2.18,2.08,1.91,5.9-.6,8.53a7.58,7.58,0,0,1-3.29,2.05,4.74,4.74,0,0,1-1.21-.83c-2.18-2.09-7-12.07-5.16-14A1.17,1.17,0,0,1,1,17.59H1C4.65,18.53,9.37,20.83,10.78,22.17Z"/></g></svg>