<svg xmlns="http://www.w3.org/2000/svg" viewBox="0 0 79.22 79.22"><defs><style>.cls-1{fill:#188209;}.cls-2{fill:#f7e714;}.cls-3{fill:#2348cc;}.cls-4{fill:#c41c1c;}.cls-5{fill:#3d3159;opacity:0.3;}.cls-6{fill:#efe7c2;opacity:0.4;}</style></defs><g id="Layer_3" data-name="Layer 3"><path class="cls-1" d="M25.35,54.45A58.86,58.86,0,0,1,1,48.57,39.57,39.57,0,0,0,45.4,78.79,53.25,53.25,0,0,1,25.35,54.45Z"/><path class="cls-2" d="M79.22,39.61A39.61,39.61,0,0,1,45.4,78.79a53.25,53.25,0,0,1-20-24.34c.49,0,1,0,1.46,0A59,59,0,0,0,77,26.54,39.54,39.54,0,0,1,79.22,39.61Z"/><path class="cls-3" d="M21.43,34.42a53,53,0,0,0,3.92,20A58.86,58.86,0,0,1,1,48.57,39.59,39.59,0,0,1,33.74.44,52.85,52.85,0,0,0,21.43,34.42Z"/><path class="cls-4" d="M77,26.54A59,59,0,0,1,26.81,54.48c-.49,0-1,0-1.46,0a53.08,53.08,0,0,1,8.39-54A39.59,39.59,0,0,1,77,26.54Z"/><path class="cls-5" d="M79.22,39.61A39.6,39.6,0,0,1,9.08,64.82a42.94,42.94,0,0,0,53.6-57.4A39.6,39.6,0,0,1,79.22,39.61Z"/><ellipse class="cls-6" cx="23.46" cy="20.06" rx="12.64" ry="11.52" transform="translate(-6.94 25.45) rotate(-50.58)"/><circle class="cls-6" cx="12.24" cy="38.69" r="4.63"/></g></svg>