<svg id="Layer_1" data-name="Layer 1" xmlns="http://www.w3.org/2000/svg" viewBox="0 0 43.74 238.65"><defs><style>.cls-1{fill:#5d7d9a;opacity:0.5;isolation:isolate;}.cls-2{fill:#313843;}</style></defs><path class="cls-1" d="M24.25,109c-12.22.84-14.95,5-16.69,13.64C5.24,134.13,2.55,145.54,0,157V112.45a42.4,42.4,0,0,1,2.82-6.66c1.27-2.44,4.61-3.8,7.6-6.09A51.69,51.69,0,0,1,0,82.71V64.05C9.33,77.08,18.14,94.14,24.25,109Z"/><path class="cls-1" d="M37.3,222.22c-26.1,3.64-22.7-3.21-37.3,13V186.39c3.58,5.07,7.15,10.46,11.25,15.42,1.73,2.08,4.74,3.5,7.43,4.31C26,208.31,34.21,214.23,37.3,222.22Z"/><path class="cls-1" d="M43.74,42.37c-.13.46-2.28-.66-2.41-.2-6.87-2.73-12-6.79-18.52-10.21-4.37-2.29-7.16-1.58-9.94,1.77-4.12,5-8.18,10-12.87,15.77V0C2.23,3.7,4.19,7.54,7,10.5c3.69,3.84,8.48,6.61,12.79,9.85a203,203,0,0,1,15.7,13.24C39.13,36.49,40.08,38.51,43.74,42.37Z"/><path class="cls-2" d="M24.25,109C12,109.83,9.3,117.35,7.56,126,5.24,137.54,2.55,149,0,160.4V115.86a42.4,42.4,0,0,1,2.82-6.66c1.27-2.44,4.61-3.8,7.6-6.09A51.69,51.69,0,0,1,0,86.12V67.46C7.69,80.64,15.7,94.36,24.25,109Z"/><path class="cls-2" d="M37.3,222.22c-26.1,3.64-22.7.2-37.3,16.43V189.8c3.58,5.07,7.15,10.46,11.25,15.42,1.73,2.08,4.74,3.5,7.43,4.31A35.58,35.58,0,0,1,37.3,222.22Z"/><path class="cls-2" d="M43.74,42.37c-.13.46.21.7-1.81,1s-12.6-4.54-19.12-8c-4.37-2.29-7.16-1.58-9.94,1.77-4.12,5-8.18,10-12.87,15.77V3.41C2.23,7.11,4.19,11,7,13.91c3.69,3.84,8.48,6.61,12.79,9.85,4.49,3.38,9,6.72,13.45,10.17C36.82,36.67,40.26,39.55,43.74,42.37Z"/></svg>