<svg id="Layer_1" data-name="Layer 1" xmlns="http://www.w3.org/2000/svg" viewBox="0 0 57.25 242.52"><defs><style>.cls-1{fill:#5d7d9a;opacity:0.5;isolation:isolate;}.cls-2{fill:#313843;}</style></defs><path class="cls-1" d="M44.29,25.63c4.12,3.32,8.24,6.54,12.22,9.91.24.2.49.42.74.66V59.49C54.54,54.55,52,49.86,49.36,45.2a19.08,19.08,0,0,0-2.66-3.59c-9.8-10.42-13.62-11.41-26.34-5C13.66,39.91.4,53.37,0,53.29,2.46,49.58,4.17,41.9,7.34,39c4.32-4,9.43-9.42,14.72-12C35.68,20.3,47.92,12.08,57.25,0V14.14c-.07.16-.16.32-.25.48C54.41,19.06,48.92,21.81,44.29,25.63Z"/><path class="cls-1" d="M57.25,104.49c-1.63,2.82-4.15,5.7-6.46,9.36,1.79,4.35,4.22,10,6.46,15.83v26.75c-5-11.85-10-23.72-15-35.55a8.43,8.43,0,0,0-2.71-3.25c-1.8,8.28-6.76-4-2.63-8.28S47,97.5,50.77,92.85A91.72,91.72,0,0,0,57.25,83Z"/><path class="cls-1" d="M57.25,196.65v19.88c-4.31.92-8.6,2.15-12.93,2.26-6.86.17-11.36,3.83-15.94,8.13-4.36,4.09-8.51,11.5-13.1,15.33-.38-.41-1.38.43-1.76,0a76.46,76.46,0,0,0,6.94-11.86,35.61,35.61,0,0,0,2.66-9c1.22-7.94,7.86-10.66,14-12.19C53.05,205.24,51.4,204.2,57.25,196.65Z"/><path class="cls-2" d="M44.29,30.66c4.12,3.32,8.24,6.54,12.22,9.91.24.2.49.42.74.66V64.52c-2.71-4.94-5.27-9.63-7.89-14.29a19.08,19.08,0,0,0-2.66-3.59c-9.8-10.42-13.62-11.41-26.34-5C13.66,44.94,7.57,49.5,1.2,53.52L0,53.29c2.46-3.71,4.34-8,7.51-11A60.87,60.87,0,0,1,22.06,32C35.68,25.33,47.92,17.11,57.25,5V19.17c-.07.16-.16.32-.25.48C54.41,24.09,48.92,26.84,44.29,30.66Z"/><path class="cls-2" d="M57.25,109.52c-1.63,2.82-4.15,5.7-6.46,9.36,1.79,4.35,4.22,10,6.46,15.83v26.75c-5-11.85-10-23.72-15-35.55a8.43,8.43,0,0,0-2.71-3.25c-4.75-3.49-5-7.35-.89-11.6S47,102.53,50.77,97.88A91.72,91.72,0,0,0,57.25,88Z"/><path class="cls-2" d="M57.25,201.68v19.88c-4.31.92-8.6,2.15-12.93,2.26C37.46,224,33,227.65,28.38,232,24,236,16.71,242.29,15.75,242.39s-1.85.29-2.23-.12a61.47,61.47,0,0,0,4.87-5.88c2.17-3.33,5.17-6.7,5.74-10.37,1.22-7.94,6.85-10.26,13-11.79C53.05,210.27,51.4,209.23,57.25,201.68Z"/></svg>