<svg id="Layer_1" data-name="Layer 1" xmlns="http://www.w3.org/2000/svg" xmlns:xlink="http://www.w3.org/1999/xlink" viewBox="0 0 300 345"><defs><style>.cls-1{fill:url(#linear-gradient);}.cls-2{fill:#c42020;}.cls-3{fill:#a89494;}.cls-4{fill:#c1b6b6;}.cls-5{fill:#dd3737;}</style><linearGradient id="linear-gradient" x1="150" y1="431.14" x2="150" y2="196.57" gradientUnits="userSpaceOnUse"><stop offset="0" stop-color="#c42020"/><stop offset="1" stop-color="#871717"/></linearGradient></defs><path class="cls-1" d="M300,90.62V196.8h0a150,150,0,0,1-300,0H0V90.62A29.19,29.19,0,0,1,29.2,61.43H82.71A29.19,29.19,0,0,1,111.9,90.62v117.2c0,54.43,76.62,54.43,76.62,0l.09-76.84,0-40.4a29.17,29.17,0,0,1,29.19-29.15h53A29.18,29.18,0,0,1,300,90.62Z"/><path class="cls-2" d="M300,42.94V149.12h0a150,150,0,0,1-300,0H0V42.94A29.2,29.2,0,0,1,29.2,13.75H82.71A29.19,29.19,0,0,1,111.9,42.94V160.15c0,54.43,76.62,54.43,76.62,0l.09-76.85,0-40.4a29.17,29.17,0,0,1,29.19-29.15h53A29.19,29.19,0,0,1,300,42.94Z"/><path class="cls-3" d="M111.9,42.94V83.3H0V42.94A29.2,29.2,0,0,1,29.2,13.75H82.71A29.19,29.19,0,0,1,111.9,42.94Z"/><path class="cls-3" d="M300,42.94V83.3H188.61l0-40.4a29.17,29.17,0,0,1,29.19-29.15h53A29.19,29.19,0,0,1,300,42.94Z"/><circle class="cls-4" cx="30.73" cy="43.3" r="19.85"/><circle class="cls-4" cx="64.89" cy="33.19" r="10.11"/><circle class="cls-4" cx="220.93" cy="43.11" r="19.85"/><circle class="cls-4" cx="255.08" cy="33" r="10.11"/><circle class="cls-5" cx="72.17" cy="222.85" r="29.41"/><circle class="cls-5" cx="107.42" cy="260.45" r="16.56"/></svg>