<svg id="Layer_1" data-name="Layer 1" xmlns="http://www.w3.org/2000/svg" xmlns:xlink="http://www.w3.org/1999/xlink" viewBox="0 0 300 345"><defs><style>.cls-1{fill:url(#linear-gradient);}.cls-2{fill:url(#linear-gradient-2);}.cls-3{fill:url(#linear-gradient-3);}.cls-4{fill:#c42020;}.cls-5{fill:#a89494;}.cls-6{fill:#c1b6b6;}.cls-7{fill:#dd3737;}</style><linearGradient id="linear-gradient" x1="55.71" y1="386.74" x2="55.71" y2="286.2" gradientUnits="userSpaceOnUse"><stop offset="0" stop-color="#a89494"/><stop offset="1" stop-color="#7a6868"/></linearGradient><linearGradient id="linear-gradient-2" x1="150" y1="288.11" x2="150" y2="120.17" gradientUnits="userSpaceOnUse"><stop offset="0" stop-color="#c42020"/><stop offset="1" stop-color="#9b1b1b"/></linearGradient><linearGradient id="linear-gradient-3" x1="244.05" y1="385.49" x2="244.05" y2="260.9" xlink:href="#linear-gradient"/></defs><path class="cls-1" d="M0,248.32H111.41l0,27.2,0,40.4a29.16,29.16,0,0,1-29.18,29.15h-53A29.19,29.19,0,0,1,0,315.88Z"/><path class="cls-2" d="M188.1,198.68c0-54.43-76.63-54.43-76.63,0v10.83H0a150,150,0,0,1,300,0H188.1Z"/><path class="cls-3" d="M300,248.32v67.56a29.19,29.19,0,0,1-29.19,29.19H217.28a29.18,29.18,0,0,1-29.18-29.19V248.32Z"/><path class="cls-4" d="M0,269.38V163.92H0C.87,82.36,67.68,16.5,150,16.5S299.13,82.36,300,163.92h0V269.38a29.1,29.1,0,0,1-29.2,29H217.29a29.09,29.09,0,0,1-29.19-29V153c0-54.06-76.62-54.06-76.62,0l-.09,76.33,0,40.12a28.81,28.81,0,0,1-8.56,20.48,29.19,29.19,0,0,1-20.63,8.48h-53A29.09,29.09,0,0,1,0,269.38Z"/><path class="cls-5" d="M188.1,269.38V229.3H300v40.08a29.1,29.1,0,0,1-29.2,29H217.29A29.09,29.09,0,0,1,188.1,269.38Z"/><path class="cls-5" d="M0,269.38V229.3H111.39l0,40.12a28.81,28.81,0,0,1-8.56,20.48,29.19,29.19,0,0,1-20.63,8.48h-53A29.09,29.09,0,0,1,0,269.38Z"/><circle class="cls-6" cx="27.08" cy="270.48" r="19.85"/><circle class="cls-6" cx="61.23" cy="280.59" r="10.11"/><circle class="cls-6" cx="217.27" cy="270.66" r="19.85"/><circle class="cls-6" cx="251.42" cy="280.77" r="10.11"/><circle class="cls-7" cx="68.51" cy="90.93" r="29.41"/><circle class="cls-7" cx="103.76" cy="53.33" r="16.56"/></svg>