<svg id="Layer_1" data-name="Layer 1" xmlns="http://www.w3.org/2000/svg" xmlns:xlink="http://www.w3.org/1999/xlink" viewBox="0 0 125.46 113.63"><defs><style>.cls-1,.cls-8{fill:#d2eef7;}.cls-2{fill:url(#linear-gradient);}.cls-3{fill:#e17827;}.cls-4{fill:#ca5c28;}.cls-5{fill:#acc7d2;}.cls-6{fill:#d49e7f;}.cls-7{fill:#dcbf9a;}.cls-8{opacity:0.46;}.cls-9{fill:#bd4b27;}.cls-10{fill:#fff;}.cls-11{fill:#e43525;}</style><linearGradient id="linear-gradient" x1="-187.51" y1="324.2" x2="-187.51" y2="427" gradientTransform="translate(-82.66 -309.14) rotate(-50.19)" gradientUnits="userSpaceOnUse"><stop offset="0" stop-color="#d2eef7"/><stop offset="1" stop-color="#7cd0e5"/></linearGradient></defs><path class="cls-1" d="M53.21,8.38A18.46,18.46,0,1,0,79.21,6,18.45,18.45,0,0,0,53.21,8.38ZM76.1,27.45a11.33,11.33,0,1,1-1.46-16A11.33,11.33,0,0,1,76.1,27.45Z"/><path class="cls-2" d="M92.62,30.43C105.42,41.1,119.45,58.71,125,77.56A10.57,10.57,0,0,1,123,87.33l-18.71,22.44a10.54,10.54,0,0,1-9.24,3.8c-19.53-2.11-39.37-12.74-52.17-23.4-7.32-6.1-12.14-17.07-12-24s-.7-13.67-5-18.68a17.07,17.07,0,0,0-2.13-2.12l-6.31-5.26L27.59,26.84,38.83,14.47l6.32,5.27a16.47,16.47,0,0,0,2.46,1.71C53.3,24.74,60.12,24.33,66.88,23S85.3,24.33,92.62,30.43Z"/><path class="cls-3" d="M60.31,51.68c-24,9.89-21.45,15.26-21.45,15.26l2.29,6.85s47.47,2.74,47.58,1.89,10.1-24,10.1-24l5.06-1S84.3,41.79,60.31,51.68Z"/><path class="cls-4" d="M116,84.65l-15.67,18.8a8.83,8.83,0,0,1-7.74,3.18C76.26,104.88,59.63,96,48.91,87c-6.13-5.1-10.18-14.29-10-20.08,0,0,2.18,12.53,27.44-6.45,24.48-18.4,36.84-10.29,37.57-9.78h0l0,0c6,7.58,11.14,16.47,13.88,25.73A8.85,8.85,0,0,1,116,84.65Z"/><path class="cls-5" d="M47.61,21.45c-.16.24-.33.47-.51.7L26.48,46.88c-.19.22-.39.43-.59.63a17.07,17.07,0,0,0-2.13-2.12l-6.31-5.26L27.59,26.84,38.83,14.48l6.31,5.26A17.08,17.08,0,0,0,47.61,21.45Z"/><path class="cls-1" d="M43.89,9.7a7.51,7.51,0,0,1,1,10.58L24.24,45A7.51,7.51,0,1,1,12.7,35.39L33.31,10.66A7.51,7.51,0,0,1,43.89,9.7Z"/><path class="cls-6" d="M24.46,1l0,0a3.54,3.54,0,0,1,.5.53l.2.29L35.54,16a4.59,4.59,0,0,1-.39,5.59L23.79,35.24a4.58,4.58,0,0,1-5.42,1.38L2.49,29l-.22-.1a3.76,3.76,0,0,1-.68-.44l0,0C-.71,26.52-.52,22.35,2.24,19L15.33,3.33C18.09,0,22.16-.92,24.46,1Z"/><path class="cls-7" d="M24.46,1l0,0a3.54,3.54,0,0,1,.5.53l.2.29c1.21,1.82.88,4.64-.93,6.8L9,26.87C7.23,29,4.51,29.87,2.49,29l-.22-.1a3.76,3.76,0,0,1-.68-.44l0,0C-.71,26.52-.52,22.35,2.24,19L15.33,3.33C18.09,0,22.16-.92,24.46,1Z"/><path class="cls-8" d="M33.07,11l8.76,7.3L21.7,42.4l-8.76-7.3.58-.7a5,5,0,0,0,6.34-.76L32.88,18a5,5,0,0,0-.39-6.37Z"/><rect class="cls-9" x="84.65" y="84.85" width="38.52" height="11.22" rx="5.61" transform="matrix(0.64, -0.77, 0.77, 0.64, -32.1, 112.36)"/><circle class="cls-10" cx="72.23" cy="64.05" r="19.64"/><polygon class="cls-11" points="85.25 58.25 83.86 49.58 78.8 56.76 76.35 55.22 76.44 59.93 71.29 53.08 70.04 56.64 58.63 52.72 58.63 52.72 58.63 52.72 64.54 63.23 61.27 65.1 68.94 68.94 64.28 69.7 66.24 71.83 60.09 78.09 68.87 77.9 69.08 80.78 76.31 75.24 79.01 80.81 81.51 71.87 89.86 67.8 83.91 66.16 88.12 57.94 85.25 58.25"/><rect class="cls-9" x="84.65" y="84.85" width="38.52" height="11.22" rx="5.61" transform="matrix(0.64, -0.77, 0.77, 0.64, -32.1, 112.36)"/></svg>