<svg id="Layer_1" data-name="Layer 1" xmlns="http://www.w3.org/2000/svg" xmlns:xlink="http://www.w3.org/1999/xlink" viewBox="0 0 87.93 136.46"><defs><style>.cls-1,.cls-7{fill:#d2eef7;}.cls-2{fill:url(#linear-gradient);}.cls-3{fill:#ca5c28;}.cls-4{fill:#acc7d2;}.cls-5{fill:#d49e7f;}.cls-6{fill:#dcbf9a;}.cls-7{opacity:0.46;}.cls-8{fill:#bd4b27;}.cls-9{fill:#fff;}.cls-10{fill:#e43525;}</style><linearGradient id="linear-gradient" x1="38.88" y1="48.87" x2="38.88" y2="151.67" gradientUnits="userSpaceOnUse"><stop offset="0" stop-color="#d2eef7"/><stop offset="1" stop-color="#7cd0e5"/></linearGradient></defs><path class="cls-1" d="M69.47,32.33A18.46,18.46,0,1,0,87.93,50.79,18.46,18.46,0,0,0,69.47,32.33Zm0,29.8A11.34,11.34,0,1,1,80.8,50.79,11.34,11.34,0,0,1,69.47,62.13Z"/><path class="cls-2" d="M77.76,76.73c0,16.66-4.55,38.71-15.45,55.07a10.57,10.57,0,0,1-8.83,4.66H24.26a10.55,10.55,0,0,1-8.83-4.67C4.54,115.44,0,93.39,0,76.73,0,67.2,5.34,56.48,10.74,52.17S20.8,42.88,21.92,36.4a17.15,17.15,0,0,0,.26-3V25.19l16.7-.72,16.7.72v8.22a17.15,17.15,0,0,0,.26,3C57,42.88,61.64,47.85,67,52.17S77.76,67.2,77.76,76.73Z"/><path class="cls-3" d="M71.46,79.38c0,14-3.81,32.44-12.95,46.15a8.85,8.85,0,0,1-7.4,3.9H26.63a8.84,8.84,0,0,1-7.4-3.91C10.1,111.82,6.3,93.34,6.3,79.38c0-8,4.47-17,9-20.58s8.35-7.7,9.34-13l0-.16c0-.2.07-.41.09-.61v0a5.6,5.6,0,0,1,5.46-4.31H47.54A5.62,5.62,0,0,1,53,44.94v0c0,.2,0,.41.09.61l0,.16c1,5.35,4.88,9.47,9.34,13S71.46,71.4,71.46,79.38Z"/><path class="cls-3" d="M71.46,79.41c0,14-3.81,32.44-12.95,46.15a8.84,8.84,0,0,1-7.4,3.91H26.63a8.82,8.82,0,0,1-7.4-3.92C10.1,111.85,6.29,93.37,6.29,79.41a24.85,24.85,0,0,1,.36-4.09c.1-.59.22-1.17.36-1.76H7c.06-.26.12-.52.19-.78l0,0a5.13,5.13,0,0,1,.68-1.34A5,5,0,0,1,12,69.25H65.74a5,5,0,0,1,4.1,2.12,4.89,4.89,0,0,1,.66,1.26c.09.33.18.65.25,1,.14.58.26,1.17.36,1.75v0A24.12,24.12,0,0,1,71.46,79.41Z"/><path class="cls-4" d="M55.84,36.4a8.11,8.11,0,0,1-.86.05H22.78a8.11,8.11,0,0,1-.86-.05,17.15,17.15,0,0,0,.26-3V25.19l16.7-.72,16.7.72v8.22A17.15,17.15,0,0,0,55.84,36.4Z"/><path class="cls-1" d="M62.49,26A7.51,7.51,0,0,1,55,33.53H22.78a7.51,7.51,0,0,1,0-15H55A7.51,7.51,0,0,1,62.49,26Z"/><path class="cls-5" d="M56.76,5.5v0a3.38,3.38,0,0,1-.09.72l-.09.34-4.3,17a4.59,4.59,0,0,1-4.54,3.28H30a4.59,4.59,0,0,1-4.54-3.28L21.15,6.58l-.06-.24a3.58,3.58,0,0,1-.1-.8v0c0-3,3.34-5.5,7.66-5.5H49.09C53.41,0,56.73,2.53,56.76,5.5Z"/><path class="cls-6" d="M56.76,5.5v0a3.38,3.38,0,0,1-.09.72l-.09.34c-.63,2.09-3,3.64-5.82,3.64H27c-2.83,0-5.2-1.56-5.83-3.66l-.06-.24a3.58,3.58,0,0,1-.1-.8v0c0-3,3.34-5.5,7.66-5.5H49.09C53.41,0,56.73,2.53,56.76,5.5Z"/><path class="cls-7" d="M54.6,18.51v11.4H23.16V18.51h.91a5,5,0,0,0,4.64,4.38H49.05a5,5,0,0,0,4.64-4.38Z"/><rect class="cls-8" x="19.62" y="118.22" width="38.52" height="11.22" rx="5.61"/><rect class="cls-8" x="19.62" y="118.22" width="38.52" height="11.22" rx="5.61"/><circle class="cls-9" cx="38.88" cy="85.03" r="19.26"/><polygon class="cls-10" points="51.42 91.2 57.09 84.7 48.5 85.4 48.12 82.59 44.63 85.62 46.55 77.43 43.08 78.72 38.88 67.66 38.88 67.66 38.88 67.66 34.67 78.72 31.2 77.43 33.13 85.62 29.63 82.59 29.25 85.4 20.66 84.7 26.33 91.2 24.29 93.17 33.01 95.13 30.5 100.67 38.81 96.94 47.12 100.67 44.63 95.15 53.46 93.17 51.42 91.2"/></svg>