<svg id="Layer_1" data-name="Layer 1" xmlns="http://www.w3.org/2000/svg" xmlns:xlink="http://www.w3.org/1999/xlink" viewBox="0 0 87.93 136.46"><defs><style>.cls-1,.cls-7{fill:#d2eef7;}.cls-2{fill:url(#linear-gradient);}.cls-3{fill:#ca5c28;}.cls-4{fill:#acc7d2;}.cls-5{fill:#d49e7f;}.cls-6{fill:#dcbf9a;}.cls-7{opacity:0.46;}.cls-8{fill:#e17827;}.cls-9{fill:#bd4b27;}.cls-10{fill:#5b1a19;}.cls-11{fill:#ed4632;}</style><linearGradient id="linear-gradient" x1="38.88" y1="48.87" x2="38.88" y2="151.67" gradientUnits="userSpaceOnUse"><stop offset="0" stop-color="#d2eef7"/><stop offset="1" stop-color="#7cd0e5"/></linearGradient></defs><path class="cls-1" d="M69.47,32.33A18.46,18.46,0,1,0,87.93,50.79,18.46,18.46,0,0,0,69.47,32.33Zm0,29.8A11.34,11.34,0,1,1,80.8,50.79,11.34,11.34,0,0,1,69.47,62.13Z"/><path class="cls-2" d="M77.76,76.73c0,16.66-4.55,38.71-15.45,55.07a10.57,10.57,0,0,1-8.83,4.66H24.26a10.55,10.55,0,0,1-8.83-4.67C4.54,115.44,0,93.39,0,76.73,0,67.2,5.34,56.48,10.74,52.17S20.8,42.88,21.92,36.4a17.15,17.15,0,0,0,.26-3V25.19l16.7-.72,16.7.72v8.22a17.15,17.15,0,0,0,.26,3C57,42.88,61.64,47.85,67,52.17S77.76,67.2,77.76,76.73Z"/><path class="cls-3" d="M71.46,79.41c0,14-3.81,32.44-12.95,46.15a8.84,8.84,0,0,1-7.4,3.91H26.63a8.82,8.82,0,0,1-7.4-3.92C10.1,111.85,6.29,93.37,6.29,79.41a24.85,24.85,0,0,1,.36-4.09c.1-.59.22-1.17.36-1.76H7c.06-.26.12-.52.19-.78l0,0a5.13,5.13,0,0,1,.68-1.34A5,5,0,0,1,12,69.25H65.74a5,5,0,0,1,4.1,2.12,4.89,4.89,0,0,1,.66,1.26c.09.33.18.65.25,1,.14.58.26,1.17.36,1.75v0A24.12,24.12,0,0,1,71.46,79.41Z"/><path class="cls-4" d="M55.84,36.4a8.11,8.11,0,0,1-.86.05H22.78a8.11,8.11,0,0,1-.86-.05,17.15,17.15,0,0,0,.26-3V25.19l16.7-.72,16.7.72v8.22A17.15,17.15,0,0,0,55.84,36.4Z"/><path class="cls-1" d="M62.49,26A7.51,7.51,0,0,1,55,33.53H22.78a7.51,7.51,0,0,1,0-15H55A7.51,7.51,0,0,1,62.49,26Z"/><path class="cls-5" d="M56.76,5.5v0a3.38,3.38,0,0,1-.09.72l-.09.34-4.3,17a4.59,4.59,0,0,1-4.54,3.28H30a4.59,4.59,0,0,1-4.54-3.28L21.15,6.58l-.06-.24a3.58,3.58,0,0,1-.1-.8v0c0-3,3.34-5.5,7.66-5.5H49.09C53.41,0,56.73,2.53,56.76,5.5Z"/><path class="cls-6" d="M56.76,5.5v0a3.38,3.38,0,0,1-.09.72l-.09.34c-.63,2.09-3,3.64-5.82,3.64H27c-2.83,0-5.2-1.56-5.83-3.66l-.06-.24a3.58,3.58,0,0,1-.1-.8v0c0-3,3.34-5.5,7.66-5.5H49.09C53.41,0,56.73,2.53,56.76,5.5Z"/><path class="cls-7" d="M54.6,18.51v11.4H23.16V18.51h.91a5,5,0,0,0,4.64,4.38H49.05a5,5,0,0,0,4.64-4.38Z"/><path class="cls-8" d="M70.81,74.36v1a5.09,5.09,0,0,1-5.07,5.08H12A5.08,5.08,0,0,1,7,75.36v-1a5.29,5.29,0,0,1,.06-.8H7c.06-.26.12-.52.19-.78l0,0a5.13,5.13,0,0,1,.68-1.34A5,5,0,0,1,12,69.25H65.74a5,5,0,0,1,4.1,2.12,4.89,4.89,0,0,1,.66,1.26,4,4,0,0,1,.25,1A4.56,4.56,0,0,1,70.81,74.36Z"/><rect class="cls-9" x="19.62" y="118.22" width="38.52" height="11.22" rx="5.61"/><rect class="cls-10" x="13.26" y="82.57" width="51.24" height="17.15" rx="7.64"/><path class="cls-11" d="M24.28,92.25l-.63,1.41a2.93,2.93,0,0,1-.26.48.29.29,0,0,1-.22.12.26.26,0,0,1-.21-.1,2.36,2.36,0,0,1-.26-.46c-.14-.26-.26-.5-.35-.71l-.69-1.56c-.1-.22-.2-.32-.3-.32s-.18.09-.19.27c0,.42,0,.8,0,1.15a3.15,3.15,0,0,0,.05.74.35.35,0,0,0,.1.17,2.87,2.87,0,0,0,.32.19.32.32,0,0,1,.18.31c0,.39-.5.59-1.51.59-.85,0-1.27-.19-1.27-.58a.33.33,0,0,1,.06-.21,2.12,2.12,0,0,1,.34-.2.42.42,0,0,0,.24-.21,2.23,2.23,0,0,0,.1-.53q0-.42.09-1.38c0-.64,0-1.19,0-1.64a3.39,3.39,0,0,0-.13-1.17.37.37,0,0,0-.11-.15,1.21,1.21,0,0,0-.23-.14c-.25-.12-.37-.27-.37-.46a.49.49,0,0,1,.14-.34.8.8,0,0,1,.37-.22,4.48,4.48,0,0,1,.62-.11,4.08,4.08,0,0,1,.65,0,2.67,2.67,0,0,1,.95.11.49.49,0,0,1,.22.14,1.83,1.83,0,0,1,.22.37l1.1,2a2.73,2.73,0,0,0,.24.4.26.26,0,0,0,.19.08.27.27,0,0,0,.19-.08,1.19,1.19,0,0,0,.19-.29l.74-1.45q.13-.29.18-.36a1.75,1.75,0,0,1,.51-.7,2.16,2.16,0,0,1,1.17-.23c1,0,1.49.23,1.49.68a.43.43,0,0,1-.06.24.88.88,0,0,1-.24.23.81.81,0,0,0-.3.53,11,11,0,0,0-.12,1.77,20,20,0,0,0,.12,2.34.81.81,0,0,0,.1.34,1.48,1.48,0,0,0,.34.27.38.38,0,0,1,.19.34c0,.24-.16.41-.49.52a3.12,3.12,0,0,1-.53.11l-.86,0A5.35,5.35,0,0,1,25,94.41c-.33-.1-.49-.26-.49-.49a.27.27,0,0,1,.07-.2,2,2,0,0,1,.32-.3.69.69,0,0,0,.19-.43,8.44,8.44,0,0,0,.05-1.07,2.18,2.18,0,0,0,0-.55.16.16,0,0,0-.17-.13.36.36,0,0,0-.28.2A5.62,5.62,0,0,0,24.28,92.25Z"/><path class="cls-11" d="M35.38,90.79l1,2.13a1.63,1.63,0,0,0,.23.39.55.55,0,0,0,.29.12c.25,0,.38.17.38.38s-.15.44-.46.55a4.67,4.67,0,0,1-1.52.17,10.81,10.81,0,0,1-1.76-.1.82.82,0,0,1-.42-.19.47.47,0,0,1-.15-.35.35.35,0,0,1,.08-.24.74.74,0,0,1,.3-.16c.17-.06.25-.15.25-.29s-.14-.37-.43-.41a10,10,0,0,0-1.28-.07,2.14,2.14,0,0,0-.84.09.44.44,0,0,0-.15.19.65.65,0,0,0-.06.26c0,.08,0,.13.05.15a1.11,1.11,0,0,0,.29.11.39.39,0,0,1,.32.38q0,.63-1.5.63a4.68,4.68,0,0,1-1.25-.12.46.46,0,0,1-.37-.48.37.37,0,0,1,.08-.25.76.76,0,0,1,.29-.17,1.1,1.1,0,0,0,.52-.34,4.3,4.3,0,0,0,.5-.93l.74-1.62a11.64,11.64,0,0,0,.55-1.34,3.06,3.06,0,0,0,.15-.87,2.89,2.89,0,0,1,.05-.63.79.79,0,0,1,.23-.34,1.22,1.22,0,0,1,.92-.37,1.58,1.58,0,0,1,1,.41A11.65,11.65,0,0,1,35.38,90.79Zm-3.66.66h1c.19,0,.29,0,.29-.12a2.65,2.65,0,0,0-.4-.86,3.58,3.58,0,0,0-.27-.41.27.27,0,0,0-.2-.11c-.13,0-.23.12-.32.36l-.15.37a3.51,3.51,0,0,0-.22.64C31.48,91.41,31.56,91.45,31.72,91.45Z"/><path class="cls-11" d="M38.37,92V89.18a1.82,1.82,0,0,0-.08-.68c0-.1-.18-.17-.4-.23s-.47-.25-.47-.48a.42.42,0,0,1,.2-.36,1.13,1.13,0,0,1,.58-.13l.63,0h1.33l1.07-.09a3.87,3.87,0,0,1,.56,0,3.17,3.17,0,0,1,1.53.36,2,2,0,0,1,1.18,1.93,2.09,2.09,0,0,1-.82,1.72,3,3,0,0,1-1.87.6l-.69,0-.27,0q-.15,0-.15.18v0l0,.86a.8.8,0,0,0,.09.37.86.86,0,0,0,.33.26c.23.12.35.26.35.4s-.17.39-.51.51a4.44,4.44,0,0,1-1.43.18c-1.3,0-1.94-.22-1.94-.67a.29.29,0,0,1,.08-.24,1.69,1.69,0,0,1,.39-.24.42.42,0,0,0,.23-.28C38.35,93,38.36,92.59,38.37,92Zm2.37-3.44V90.3c0,.14,0,.22.09.25a.86.86,0,0,0,.38.07.91.91,0,0,0,.59-.19,1.18,1.18,0,0,0,.34-.94,1.2,1.2,0,0,0-.4-1,1,1,0,0,0-.61-.19C40.87,88.31,40.74,88.38,40.74,88.51Z"/><path class="cls-11" d="M48.23,89.54V92A2.33,2.33,0,0,0,48.38,93a.81.81,0,0,0,.73.28,1.48,1.48,0,0,0,.94-.27,1.37,1.37,0,0,0,.49-.82c.05-.22.17-.34.35-.34a.56.56,0,0,1,.46.25,1.11,1.11,0,0,1,.18.65A2.58,2.58,0,0,1,51,94.15a1.24,1.24,0,0,1-.27.33.42.42,0,0,1-.28.08l-1.16-.14H45.65a1.22,1.22,0,0,1-.51-.08.39.39,0,0,1-.21-.36.28.28,0,0,1,.07-.22,1.23,1.23,0,0,1,.34-.2.72.72,0,0,0,.39-.4,6.84,6.84,0,0,0,.07-1.26c0-.32,0-.79,0-1.39s0-1,0-1.32a1.47,1.47,0,0,0-.07-.57.4.4,0,0,0-.27-.23A1.94,1.94,0,0,1,45,88.2a.38.38,0,0,1-.16-.3c0-.26.21-.45.63-.58a4.75,4.75,0,0,1,1.45-.18,8.12,8.12,0,0,1,1.53.11c.43.09.65.28.65.57a.32.32,0,0,1-.09.25,1.72,1.72,0,0,1-.42.23.42.42,0,0,0-.25.3A4.54,4.54,0,0,0,48.23,89.54Z"/><path class="cls-11" d="M52.76,87.25h2.7a11.51,11.51,0,0,0,1.19,0,3.72,3.72,0,0,0,.74-.14l.17,0a.59.59,0,0,1,.48.3,1.91,1.91,0,0,1,.35,1.15.94.94,0,0,1-.14.54.48.48,0,0,1-.4.2.41.41,0,0,1-.27-.07,1.43,1.43,0,0,1-.26-.32,1.16,1.16,0,0,0-.59-.47,3.94,3.94,0,0,0-1.16-.12c-.41,0-.65.07-.74.22a.77.77,0,0,0-.08.31c0,.13,0,.46,0,1,0,.21,0,.34.1.39a1.18,1.18,0,0,0,.55.08.45.45,0,0,0,.32-.09.51.51,0,0,0,.13-.33,2.38,2.38,0,0,1,.08-.42.39.39,0,0,1,.14-.2.41.41,0,0,1,.26-.09.47.47,0,0,1,.37.2,1.51,1.51,0,0,1,.18.54,4.28,4.28,0,0,1,.08.81A3.14,3.14,0,0,1,56.69,92a.46.46,0,0,1-.43.29.3.3,0,0,1-.25-.09.94.94,0,0,1-.1-.38.62.62,0,0,0-.69-.6.35.35,0,0,0-.33.15,1.24,1.24,0,0,0-.08.56c0,.16,0,.37,0,.64a3.37,3.37,0,0,0,.07.51.33.33,0,0,0,.26.22,3.12,3.12,0,0,0,.73.06,2.84,2.84,0,0,0,1.19-.2,1.57,1.57,0,0,0,.65-.73A1.52,1.52,0,0,1,58,92a.47.47,0,0,1,.31-.11.44.44,0,0,1,.37.19.83.83,0,0,1,.14.48,2.45,2.45,0,0,1-.16.79,3.64,3.64,0,0,1-.4.84,1.12,1.12,0,0,1-.2.24.32.32,0,0,1-.2.06l-.29,0a6.08,6.08,0,0,0-.9-.08H52.21a.65.65,0,0,1-.41-.12.39.39,0,0,1-.15-.33.34.34,0,0,1,.06-.22,1.09,1.09,0,0,1,.29-.17.67.67,0,0,0,.24-.17.85.85,0,0,0,.12-.3A10.91,10.91,0,0,0,52.53,91a7.7,7.7,0,0,0-.25-2.56.43.43,0,0,0-.12-.14,1.07,1.07,0,0,0-.26-.1.39.39,0,0,1-.3-.4.47.47,0,0,1,.1-.3.44.44,0,0,1,.26-.18A4.7,4.7,0,0,1,52.76,87.25Z"/></svg>