<svg id="Layer_1" data-name="Layer 1" xmlns="http://www.w3.org/2000/svg" viewBox="0 0 150 150"><defs><style>.cls-1,.cls-6{fill:#c95b28;}.cls-1,.cls-2{opacity:0.8;}.cls-3{fill:#bc4a27;opacity:0.8;isolation:isolate;}.cls-4{opacity:0.63;}.cls-5{fill:#f29555;}</style></defs><path class="cls-1" d="M149.73,68.56a14.9,14.9,0,0,1-5.39,8.76,31.69,31.69,0,0,1-6.09,3.8c-5.95,3-8.61,8.44-7.29,14.9.09.45.2.91.33,1.37a38.06,38.06,0,0,0,3.11,7.39,34,34,0,0,1,1.55,3.29,14.34,14.34,0,0,1,1,4.18v2.17a16.05,16.05,0,0,1-.26,2.29,13.73,13.73,0,0,1-5.81,9c-.29.21-.58.4-.87.58-4.42,2.8-9.26,3.23-14.35,1.89a43.12,43.12,0,0,0-6.63-1.65c-5-.49-9.42.7-12.77,4.9A37.46,37.46,0,0,1,90,138a28.61,28.61,0,0,1-13.65,5.5,26.34,26.34,0,0,1-11-.5c-6.11-1.7-10.35-5.76-13.59-11.21-1.43-2.4-1.9-5.12-2.79-7.71A40.49,40.49,0,0,0,47.25,120a7.33,7.33,0,0,0-8.55-3.76c-2,.58-3.93,1.39-5.92,2-9.31,3-16.64-4.54-17.44-12.13A47,47,0,0,1,15,98.34c.27-4.51-1.53-8.11-4.38-11.27-1.3-1.46-2.74-2.79-4.07-4.22A22.63,22.63,0,0,1,.42,71.57c-.07-.32-.12-.64-.17-.95A21.37,21.37,0,0,1,2.1,58.39a14,14,0,0,1,5.23-5.73c2.51-1.69,5.26-2.93,7.9-4.37,1.87-1,3.62-2.16,4.46-4.12a6.55,6.55,0,0,0,.47-1.8,12.5,12.5,0,0,0-.64-5c-.75-2.54-2-4.88-2.67-7.46a25.58,25.58,0,0,1-.57-3,22.46,22.46,0,0,1,4.22-16.4,24,24,0,0,1,10-8.27A23.84,23.84,0,0,1,40.47,0,37.49,37.49,0,0,1,53.41,3,36,36,0,0,1,61,7.07c1.78,1.29,3.44,2.74,5.2,4.07a21.49,21.49,0,0,0,5,3,5.31,5.31,0,0,0,6.17-1.36A27.12,27.12,0,0,1,83,8a15.57,15.57,0,0,1,7.85-2.28,11.44,11.44,0,0,1,11,10.62,9.57,9.57,0,0,0,.65,2.93,2,2,0,0,0,2.4,1.49l.24-.07a7.59,7.59,0,0,0,4.5-3,45.83,45.83,0,0,1,8.62-8.42A20.3,20.3,0,0,1,127,5.45a10.61,10.61,0,0,1,7,1.66c4.23,2.5,6.38,6.31,6.82,11.29a26,26,0,0,1,0,5.72l-.06.41a13.59,13.59,0,0,1-2.85,6.32c-2.11,2.69-4.3,5.34-5.61,8.58a7.69,7.69,0,0,0-.14,6.48,6.5,6.5,0,0,0,.65,1.07,4,4,0,0,0,1.64,1.38c1.32.58,2.71.94,4.06,1.44,5.66,2.07,9.89,5.71,11.14,12A17.67,17.67,0,0,1,149.73,68.56Z"/><g class="cls-2"><path class="cls-3" d="M20.16,42.37a6.55,6.55,0,0,1-.47,1.8s0,0,0,0l0-.06,0-.08-.15-.53c-.75-2.55-2-4.89-2.66-7.47a25.51,25.51,0,0,1-.54-2.74,26.66,26.66,0,0,1-.23-2.68V24.82c0,.3.06.5.06.5h0c0,.53.08,1.06.15,1.59s.17,1.16.29,1.74h0c.08.42.17.83.28,1.25.67,2.58,1.92,4.92,2.67,7.46A12.5,12.5,0,0,1,20.16,42.37Z"/><path class="cls-3" d="M136.92,115v3.83a16.07,16.07,0,0,1,0,1.7,14.76,14.76,0,0,1-1.6,6.24,14.13,14.13,0,0,1-4.47,5c-4.64,3.31-9.79,3.9-15.22,2.47A43.1,43.1,0,0,0,109,132.6c-5-.49-9.42.7-12.77,4.9A37.4,37.4,0,0,1,90,144.15a28.61,28.61,0,0,1-13.65,5.5,26.34,26.34,0,0,1-11-.5c-6.12-1.7-10.36-5.76-13.6-11.21-1.43-2.4-1.89-5.12-2.78-7.71-.5-1.42-1.09-2.79-1.73-4.16a7.36,7.36,0,0,0-8.55-3.75c-2,.58-3.94,1.4-5.93,2-9.3,3-16.63-4.54-17.44-12.13a47.9,47.9,0,0,1-.32-7.76c.26-4.51-1.53-8.11-4.38-11.27C9.3,91.72,7.86,90.39,6.53,89A22.65,22.65,0,0,1,.39,77.68,21.19,21.19,0,0,1,0,74.12V67.74l0,.2H0a20,20,0,0,0,.21,2.68c0,.31.1.63.17.95A22.63,22.63,0,0,0,6.55,82.85c1.33,1.43,2.77,2.76,4.07,4.22,2.85,3.16,4.65,6.76,4.38,11.27a47,47,0,0,0,.34,7.77c.8,7.59,8.13,15.13,17.44,12.13,2-.61,3.92-1.42,5.92-2A7.33,7.33,0,0,1,47.25,120,40.49,40.49,0,0,1,49,124.08c.89,2.59,1.36,5.31,2.79,7.71C55,137.24,59.24,141.3,65.35,143a26.34,26.34,0,0,0,11,.5A28.61,28.61,0,0,0,90,138a37.46,37.46,0,0,0,6.26-6.57c3.35-4.2,7.77-5.39,12.77-4.9a43.12,43.12,0,0,1,6.63,1.65c5.09,1.34,9.93.91,14.35-1.89.29-.18.58-.37.87-.58a13.73,13.73,0,0,0,5.81-9A16.7,16.7,0,0,0,136.92,115Z"/><path class="cls-3" d="M137.91,30.85a13.59,13.59,0,0,0,2.85-6.32l.06-.41c.06-.56.1-1.11.13-1.67v5a21.84,21.84,0,0,1-.24,3.23A13.57,13.57,0,0,1,137.86,37c-2.12,2.69-4.3,5.34-5.62,8.58l-.1.27a7.66,7.66,0,0,1,.16-6.42C133.61,36.19,135.8,33.54,137.91,30.85Z"/><path class="cls-3" d="M149.92,67.24v4.23a14.67,14.67,0,0,1-5.6,12,31.28,31.28,0,0,1-6.1,3.8A13,13,0,0,0,131,95.94c-1.29-6.43,1.37-11.83,7.3-14.82a31.69,31.69,0,0,0,6.09-3.8,14.9,14.9,0,0,0,5.39-8.76C149.81,68.12,149.87,67.68,149.92,67.24Z"/></g><g class="cls-4"><path class="cls-5" d="M40.29,8.28a4.32,4.32,0,0,1,4.16,1.91c1.73,2.75-.73,5.51-3.11,5.8a13.27,13.27,0,0,0-6.59,2.19c-3.51,2.61-4.6,5.81-4.05,10.26a13.83,13.83,0,0,1,.3,2.39,4,4,0,0,1-2.91,3.71A3.75,3.75,0,0,1,24,32.46a14.71,14.71,0,0,1-1.1-7.64,18.44,18.44,0,0,1,2-6.89,17.51,17.51,0,0,1,8.33-7.86A18.78,18.78,0,0,1,40.29,8.28Z"/><path class="cls-5" d="M72.61,137.73c-5.4-.46-10.27-2.15-14.29-6.16a20,20,0,0,1-5.39-10.39,4,4,0,0,1,.92-3.65c1.21-1.33,2.94-1.1,4,.5A38.35,38.35,0,0,1,60,121.76a14.36,14.36,0,0,0,10.54,7.77,18,18,0,0,0,4.87,0,4.11,4.11,0,0,1,4,3.25,4.05,4.05,0,0,1-3.12,4.46A14.31,14.31,0,0,1,72.61,137.73Z"/><path class="cls-5" d="M17.44,84.11c-1.71.13-2.8-1.1-4-2.06a19.36,19.36,0,0,1-5.2-6.18,16.47,16.47,0,0,1-1.79-9.72A14.22,14.22,0,0,1,8.9,59.57c1.51-2.13,3.73-2.32,5.39-.47a3.45,3.45,0,0,1,.32,3.6,10.19,10.19,0,0,0-1.22,4.61,11.26,11.26,0,0,0,1.7,6,16.4,16.4,0,0,0,4.3,4.33,3.82,3.82,0,0,1,1.28,4.27A3.2,3.2,0,0,1,17.44,84.11Z"/><path class="cls-5" d="M112.23,22.1c0-1.7,1-2.88,1.9-4.07a21.45,21.45,0,0,1,8.17-6.83,10.24,10.24,0,0,1,10.47.77A3.7,3.7,0,0,1,134,17.06a3.51,3.51,0,0,1-.61.77,2.94,2.94,0,0,1-3.45.45c-3.07-1.36-5.45-.9-7.86,1.55-1.5,1.54-3,3.12-4.49,4.63a3.08,3.08,0,0,1-4.35.23,3.12,3.12,0,0,1-.83-1.23A3.31,3.31,0,0,1,112.23,22.1Z"/><path class="cls-5" d="M29.6,111.61c-4.1.16-8.73-4.08-9-8.66a17.64,17.64,0,0,1,.57-5.83,5.42,5.42,0,0,1,1.15-2,2.93,2.93,0,0,1,3.38-.81c1.07.29,1.7,1.61,1.79,3,.07,1.12-.29,2.19-.19,3.31.2,2.3,1.85,3.24,3.58,4.11a4.62,4.62,0,0,1,2.41,2.09,3.26,3.26,0,0,1-1.41,4.39,3.35,3.35,0,0,1-1.27.35A7,7,0,0,1,29.6,111.61Z"/><path class="cls-5" d="M90.35,15.69a3.93,3.93,0,0,1-2.78,3.83A11.9,11.9,0,0,0,82,24.2a3.75,3.75,0,0,1-4,1.69,3.56,3.56,0,0,1-2.43-3.4,6.53,6.53,0,0,1,1.16-3.68,15.29,15.29,0,0,1,8.77-6.74,3.71,3.71,0,0,1,4.67,2.39A3.67,3.67,0,0,1,90.35,15.69Z"/><path class="cls-5" d="M131.06,112.66a9.57,9.57,0,0,1-3.71,7.57,10.45,10.45,0,0,1-6,2.66c-1.74.19-4.22-.67-4.53-3.11a3.65,3.65,0,0,1,2.09-3.62,11.28,11.28,0,0,0,5.51-4.87,3.74,3.74,0,0,1,4.2-1.6C130.07,110.26,131.14,111.44,131.06,112.66Z"/><path class="cls-5" d="M136.86,65.79c.35-1.66-.37-3.42-1.29-5.18a2.83,2.83,0,0,1,.87-3.91l0,0a1.91,1.91,0,0,1,2.35,0,15.89,15.89,0,0,1,4,3.49,6.23,6.23,0,0,1,1,4.11,8.34,8.34,0,0,1-1.91,5.37,5,5,0,0,1-2,1.49c-1.46.53-2.92-.69-3-2.48A25.41,25.41,0,0,1,136.86,65.79Z"/><path class="cls-5" d="M18.92,58a3,3,0,0,1-3.22-2.21,3.86,3.86,0,0,1,1.29-4,8.18,8.18,0,0,1,3.22-2,3.83,3.83,0,0,1,4.72,2.66c0,.1.05.2.07.3a3.9,3.9,0,0,1-1.5,3.78A10.22,10.22,0,0,1,18.92,58Z"/><path class="cls-5" d="M52.83,10.32a3.87,3.87,0,0,1,4.1,3.62c0,.13,0,.25,0,.38a3.77,3.77,0,0,1-3.61,3.91h-.11a4.27,4.27,0,0,1-4.3-4.14,3.62,3.62,0,0,1,3.45-3.78A3.49,3.49,0,0,1,52.83,10.32Z"/><path class="cls-5" d="M88.21,126.16a3.44,3.44,0,0,1,3.66,3.2,3.84,3.84,0,0,1,0,.48c-.17,2.71-1.86,4.31-4.39,4.31-2.28,0-3.41-1.55-3.53-3.75A4.46,4.46,0,0,1,88.21,126.16Z"/><path class="cls-5" d="M107.72,31a3.12,3.12,0,0,1-3.3-2.95,2.67,2.67,0,0,1,0-.4,3.21,3.21,0,0,1,3.06-3.35h.27a3.3,3.3,0,0,1,3.31,3.29v0A3.23,3.23,0,0,1,108,31Z"/><path class="cls-5" d="M133.72,78.05a2.91,2.91,0,0,1-3.12-2.7,3.53,3.53,0,0,1,0-.46,3,3,0,0,1,2.86-3.14h.2a3.3,3.3,0,0,1,3.2,3.19A3.19,3.19,0,0,1,133.72,78.05Z"/><path class="cls-5" d="M96,12.14a2.87,2.87,0,0,1,3,2.74,2.16,2.16,0,0,1,0,.44,3,3,0,0,1-6.06-.2,2.84,2.84,0,0,1,2.71-3Z"/></g><path class="cls-6" d="M16.57,28.65h0Z"/></svg>