<?xml version="1.0" encoding="utf-8"?>
<!-- Generator: Adobe Illustrator 25.1.0, SVG Export Plug-In . SVG Version: 6.00 Build 0)  -->
<svg version="1.1" id="Layer_1" xmlns="http://www.w3.org/2000/svg" xmlns:xlink="http://www.w3.org/1999/xlink" x="0px" y="0px"
	 viewBox="0 0 103.3 103.3" style="enable-background:new 0 0 103.3 103.3;" xml:space="preserve">
<style type="text/css">
	.st0{opacity:0.8;}
	.st1{fill:#BC4A27;}
	.st2{fill:#C95B28;}
	.st3{opacity:0.9;}
	.st4{fill:#F29555;}
</style>
<g class="st0">
	<path class="st1" d="M11,20.8c-0.2-0.8-0.3-1.5-0.4-2.3v3.7c-0.1,1.1-0.1,2.3,0,3.5v0.1l0,0c0.1,0.6,0.2,1.2,0.4,1.8
		c0.3,1.1,0.8,2.2,1.3,3.2C15.4,28.5,11.7,23.6,11,20.8z"/>
	<path class="st1" d="M6.4,58.4C2.8,54.9,0,50.2,0,45.3v7.9h0.1c0.4,4.5,3,8.7,6.4,11.9c1.3,1.2,3,2.4,3.9,4v1
		c0-1.9,0.6-3.8,0.6-5.9C10.9,61.7,8.2,60,6.4,58.4z"/>
	<g>
		<path class="st1" d="M90.9,28.9c-0.3,1.3,0.1,2.6,1.1,3.5c0.8-1.5,1.9-2.9,2.9-4.4c1.6-2.3,2.6-5,2.7-7.8l0,0v-7
			c-0.1,2.9-1,5.7-2.7,8C93.3,23.7,91.3,25.9,90.9,28.9z"/>
		<path class="st1" d="M101,49.7c-4.2,4.6-12.9,6.2-10.3,13.8c0.1,0.4,0.3,0.7,0.4,1.1c2-3.2,7-4.9,9.8-8.1c1.3-1.4,2.2-3.2,2.3-5.2
			l0,0v-7.3C103.2,46.2,102.4,48.2,101,49.7z"/>
		<path class="st1" d="M78.4,86.1c-3-0.5-6.5-0.6-9.4,0.8c-1.7,0.8-2.4,2.1-3.5,3.5c-4.3,5.5-10.4,6.4-17.2,6
			c-6.5-0.3-12.7-3.8-14.6-10c-0.4-1.8-0.9-3.5-1.5-5.3c-0.3-0.6-0.7-2.1-1.3-2.6c-1.2-1-4-0.5-5.6-0.4c-5.4,0.4-11.4,1.4-14.2-4.2
			c-0.5-1-0.7-2-0.8-3.1V77c-0.1,1.3,0.2,2.6,0.8,3.7c2.8,5.6,8.8,4.7,14.2,4.2c1.5-0.1,4.4-0.5,5.6,0.4c0.6,0.5,1,2,1.3,2.6
			c0.6,1.7,1.2,3.5,1.5,5.3c1.9,6.2,8,9.7,14.6,10c6.8,0.4,13-0.6,17.2-6c1-1.3,1.8-2.7,3.5-3.5c2.8-1.3,6.3-1.3,9.4-0.8
			c5.8,1,10.8,0.8,14.5-4.4c1-1.4,1.6-3,1.8-4.7l0,0v-0.1c0.1-0.6,0.1-1.3,0-1.9V77c-0.2,1.7-0.8,3.3-1.8,4.7
			C89.3,86.9,84.3,87.2,78.4,86.1z"/>
		<path class="st2" d="M101,49.7c1.5-1.5,2.3-3.5,2.3-5.6c0-3.8-2.8-7.3-6.7-9.3c-1.7-0.8-3.4-1.4-4.5-2.4c-1-0.9-1.4-2.2-1.1-3.5
			c0.4-3,2.3-5.2,4-7.7c1.7-2.3,2.6-5.1,2.7-8c0-0.4,0-0.7-0.1-1.1c-0.3-2.7-1.8-5.2-4-6.8c-5.4-4-10.8-0.3-15,3.3
			c-1.8,1.5-3.3,4.4-5.6,5.2c-3.2,1.1-2.5-3.1-3.2-4.9c-1.3-3.6-5.1-5.7-8.9-5c-1.8,0.3-3.5,1-5,2.1c-1.4,1-2.7,2.8-4.3,3.6
			c-3,1.4-7.9-3.9-10.2-5.3c-3.3-2.1-7.1-3.6-11-4.2c-7.6-1.3-15,2.7-18.2,9.7c-0.9,1.9-1.4,3.9-1.5,6c0,0,0,0,0,0.1
			c-0.1,0.8-0.1,1.6,0,2.5l0,0c0.1,0.8,0.2,1.6,0.4,2.3c0.7,2.8,4.4,7.7,1.3,10l-0.1,0.1c-1.1,0.6-3.1,1.1-4.5,1.9
			c-3,1.9-5.4,4.6-6.7,7.9c-0.4,1-0.7,2-0.8,3C0,44.2,0,44.8,0,45.3c0,4.9,2.8,9.6,6.4,13.1c1.7,1.7,4.5,3.4,4.5,5.9
			c0,2.1-0.5,4-0.6,5.9v0.6c0,1.1,0.3,2.1,0.8,3.1c2.8,5.6,8.9,4.7,14.2,4.2c1.5-0.1,4.4-0.5,5.6,0.4c0.6,0.5,1,2,1.3,2.6
			c0.6,1.7,1.2,3.5,1.5,5.3c1.9,6.2,8,9.7,14.6,10c6.8,0.4,13-0.6,17.2-6c1-1.3,1.8-2.7,3.5-3.5c2.8-1.3,6.3-1.3,9.4-0.8
			c5.8,1,10.8,0.8,14.5-4.4c1-1.4,1.6-3,1.8-4.8c0.4-4.2-2-8.3-3.6-12.4c-0.1-0.4-0.3-0.8-0.4-1.1C88.1,55.8,96.8,54.3,101,49.7z"/>
	</g>
</g>
<g class="st3">
	<path class="st4" d="M20.1,17.8c-0.5-4.1,2-7.1,6.1-7.8c3.9-0.6,2.2-6.4-1.6-5.8c-6.6,1.1-11.4,7-10.6,13.6c0.1,1.7,1.4,3,3.1,3
		C18.6,20.8,20.4,19.4,20.1,17.8z"/>
	<path class="st4" d="M8.2,46.8c-0.3-2.2,0.9-4.4,2.9-5.4c3.5-1.8,0.4-7-3.1-5.2c-3.9,2-6.2,6.2-5.9,10.6c0.1,1.7,1.4,3,3.1,3
		C6.7,49.8,8.4,48.4,8.2,46.8z"/>
	<path class="st4" d="M83.5,16.1c1.4-1.9,3.4-3.3,5.7-3.9c3.8-1,2.2-6.8-1.6-5.8c-3.8,1-7.1,3.4-9.4,6.6
		C76,16.3,81.3,19.3,83.5,16.1L83.5,16.1z"/>
	<path class="st4" d="M36.7,80.6c-0.7,3.9,1.2,7.8,4.7,9.8c3.4,1.9,6.5-3.2,3.1-5.2c-1.1-0.6-1.8-1.7-1.9-3c0.4-1.6-0.5-3.2-2.1-3.7
		C39.1,78.2,37,79,36.7,80.6L36.7,80.6z"/>
	<ellipse transform="matrix(0.3793 -0.9253 0.9253 0.3793 -55.3708 59.9406)" class="st4" cx="17" cy="71.2" rx="3.3" ry="4.8"/>
	<ellipse class="st4" cx="59.4" cy="10.8" rx="3.5" ry="3.3"/>
	<ellipse class="st4" cx="65.2" cy="16.2" rx="1.7" ry="1.6"/>
	<ellipse class="st4" cx="33.7" cy="6.8" rx="2.9" ry="2.7"/>
	<ellipse class="st4" cx="94.9" cy="41.5" rx="4" ry="3.8"/>
	<ellipse transform="matrix(0.8366 -0.5478 0.5478 0.8366 -29.7826 60.194)" class="st4" cx="86" cy="80" rx="4.6" ry="3.8"/>
	<ellipse class="st4" cx="87.3" cy="71.2" rx="1.8" ry="1.7"/>
	<ellipse class="st4" cx="51.7" cy="89.8" rx="3.1" ry="3"/>
	<ellipse class="st4" cx="75.9" cy="20.1" rx="3.1" ry="2.9"/>
</g>
</svg>
