<svg xmlns="http://www.w3.org/2000/svg" viewBox="0 0 103.29 103.29"><defs><style>.cls-1{fill:#bc4a27;}.cls-2{fill:#c95b28;}.cls-3{fill:#e17826;}</style></defs><g id="Layer_3" data-name="Layer 3"><path class="cls-1" d="M90.93,28.94A3.7,3.7,0,0,0,92,32.43c.8-1.52,1.91-2.89,2.89-4.38a14.72,14.72,0,0,0,2.69-7.8h0v-7a14.72,14.72,0,0,1-2.7,8C93.28,23.73,91.3,25.92,90.93,28.94Z"/><path class="cls-1" d="M11,20.76a17,17,0,0,1-.38-2.32l0,3.74a16,16,0,0,0,0,3.46v.1h0A16.09,16.09,0,0,0,11,27.57a22,22,0,0,0,1.27,3.21C15.41,28.48,11.7,23.58,11,20.76Z"/><path class="cls-1" d="M101,49.69C96.8,54.28,88.09,55.84,90.7,63.45c.13.37.27.75.41,1.12,2-3.21,7-4.93,9.84-8.08a8.37,8.37,0,0,0,2.32-5.15h0V44.07A8.31,8.31,0,0,1,101,49.69Z"/><path class="cls-1" d="M6.44,58.38C2.8,54.89,0,50.2,0,45.32v7.92H.06c.38,4.47,3,8.73,6.38,11.95,1.26,1.21,3,2.44,3.93,4v1c0-1.92.57-3.81.55-5.9C10.9,61.74,8.17,60,6.44,58.38Z"/><path class="cls-1" d="M78.45,86.12c-3-.54-6.51-.6-9.36.75-1.65.78-2.45,2.14-3.5,3.49-4.27,5.48-10.41,6.42-17.24,6-6.55-.35-12.66-3.83-14.6-10a40.14,40.14,0,0,0-1.55-5.26c-.26-.56-.67-2.11-1.27-2.58-1.19-1-4.05-.54-5.57-.42-5.36.42-11.43,1.37-14.21-4.24a7.38,7.38,0,0,1-.78-3.08V77a7.72,7.72,0,0,0,.78,3.71c2.78,5.6,8.85,4.66,14.21,4.24,1.52-.12,4.38-.53,5.57.42.6.47,1,2,1.27,2.57a40.42,40.42,0,0,1,1.55,5.28c1.94,6.19,8,9.67,14.6,10,6.83.37,13-.57,17.24-6,1-1.35,1.85-2.7,3.5-3.49,2.85-1.35,6.31-1.3,9.36-.75,5.82,1,10.83.76,14.46-4.39a9.91,9.91,0,0,0,1.81-4.67h0v-.08a10.16,10.16,0,0,0,0-1.91V77a9.88,9.88,0,0,1-1.82,4.73C89.28,86.88,84.27,87.15,78.45,86.12Z"/><path class="cls-1" d="M10.62,15.88V16a.13.13,0,0,1,0-.06Z"/><path class="cls-2" d="M101,49.69a8.31,8.31,0,0,0,2.34-5.62c0-3.76-2.75-7.33-6.72-9.27-1.7-.83-3.43-1.37-4.53-2.37a3.7,3.7,0,0,1-1.11-3.49c.37-3,2.35-5.21,4-7.69a14.72,14.72,0,0,0,2.7-8,10.09,10.09,0,0,0-.06-1.09,9.61,9.61,0,0,0-4-6.76c-5.37-4-10.81-.3-15,3.34-1.75,1.53-3.35,4.4-5.63,5.17C69.78,15,70.5,10.79,69.81,9a7.91,7.91,0,0,0-8.88-5,11.56,11.56,0,0,0-5,2.12c-1.44,1-2.67,2.85-4.28,3.61-3,1.38-7.9-3.87-10.25-5.3a29.23,29.23,0,0,0-11-4.19A17,17,0,0,0,12.16,9.91a17.26,17.26,0,0,0-1.53,6,.13.13,0,0,0,0,.06,15.68,15.68,0,0,0,0,2.47v0A17,17,0,0,0,11,20.76c.68,2.82,4.39,7.72,1.27,10l-.12.09c-1.12.62-3.09,1.08-4.52,1.92A17,17,0,0,0,.91,40.66a12.33,12.33,0,0,0-.8,3A11.21,11.21,0,0,0,0,45.32c0,4.88,2.8,9.57,6.44,13.06,1.73,1.66,4.46,3.36,4.48,5.91,0,2.09-.52,4-.55,5.9v.61a7.38,7.38,0,0,0,.78,3.08c2.78,5.61,8.85,4.66,14.21,4.24,1.52-.12,4.38-.54,5.57.42.6.47,1,2,1.27,2.58a40.14,40.14,0,0,1,1.55,5.26c1.94,6.2,8,9.68,14.6,10,6.83.37,13-.57,17.24-6,1-1.35,1.85-2.71,3.5-3.49,2.85-1.35,6.31-1.29,9.36-.75,5.82,1,10.83.76,14.46-4.39A9.88,9.88,0,0,0,94.73,77c.41-4.18-2-8.26-3.62-12.43-.14-.37-.28-.75-.41-1.12C88.09,55.84,96.8,54.28,101,49.69Z"/><path class="cls-3" d="M20.15,17.79c-.53-4.14,2-7.12,6.12-7.81,3.87-.65,2.23-6.41-1.63-5.77-6.56,1.1-11.45,7-10.62,13.58a3.14,3.14,0,0,0,3.07,3c1.49,0,3.26-1.39,3.06-3Z"/><path class="cls-3" d="M8.24,46.77a5.23,5.23,0,0,1,2.89-5.4c3.46-1.85.37-7-3.09-5.17A11,11,0,0,0,2.12,46.77a3.11,3.11,0,0,0,3.06,3c1.53,0,3.22-1.38,3.06-3Z"/><path class="cls-3" d="M83.46,16.13a9.82,9.82,0,0,1,5.7-3.87c3.8-1,2.19-6.79-1.62-5.77a16.35,16.35,0,0,0-9.37,6.62c-2.2,3.2,3.1,6.2,5.29,3Z"/><path class="cls-3" d="M36.73,80.62a9.34,9.34,0,0,0,4.68,9.76c3.42,1.92,6.51-3.24,3.09-5.16a3.49,3.49,0,0,1-1.87-3,3.07,3.07,0,0,0-2.13-3.68c-1.44-.39-3.54.48-3.77,2.09Z"/><ellipse class="cls-3" cx="16.99" cy="71.24" rx="3.3" ry="4.83" transform="translate(-55.37 59.94) rotate(-67.71)"/><ellipse class="cls-3" cx="59.4" cy="10.78" rx="3.47" ry="3.28"/><ellipse class="cls-3" cx="65.25" cy="16.21" rx="1.68" ry="1.59"/><ellipse class="cls-3" cx="33.71" cy="6.81" rx="2.89" ry="2.73"/><ellipse class="cls-3" cx="94.91" cy="41.45" rx="4.01" ry="3.79"/><ellipse class="cls-3" cx="85.54" cy="79.99" rx="4.58" ry="3.75" transform="matrix(0.84, -0.55, 0.55, 0.84, -29.83, 59.88)"/><ellipse class="cls-3" cx="87.33" cy="71.24" rx="1.8" ry="1.7"/><ellipse class="cls-3" cx="51.65" cy="89.81" rx="3.13" ry="2.96"/><ellipse class="cls-3" cx="75.95" cy="20.14" rx="3.09" ry="2.92"/></g></svg>