<svg id="Layer_1" data-name="Layer 1" xmlns="http://www.w3.org/2000/svg" viewBox="0 0 150.2 131.65"><defs><style>.cls-1{fill:#005630;}.cls-2{fill:#006c3c;}.cls-3{fill:#007d46;}.cls-4{fill:#009045;}.cls-5{fill:#bcdaef;}.cls-6{fill:#d6e5f3;}.cls-7{fill:#8cc5e5;}.cls-8{fill:#fff;}</style></defs><path class="cls-1" d="M16.12,64.1c10.1-.78,19.25,2.1,28.59,3.3a40.38,40.38,0,0,0,7.45.56c19-.95,37.52-4.8,55.94-9.2,4.53-1.09,8.83-3.15,13.63-3.07a1.62,1.62,0,0,0,1.43-.61c3.44-4.6,7.89-3.57,12.06-1.71,10.08,4.5,17.85,23.81,13.95,34.1-1,2.64-2.62,4.63-5.73,4.39-1.66-.13-1.69,1-2,2a35.82,35.82,0,0,1-4,9.23c-2.56,3.76-5.06,4.81-9.42,3.63-1.43-.38-1.69.36-2.19,1.18a35.32,35.32,0,0,1-4.88,6.52c-2.44,2.46-5.23,3.67-8.48,1.61-1.3-.82-1.85-.38-2.53.71-2.41,3.85-6.11,6.1-10.08,8-2.59,1.26-5.24,1.68-7.77,0-1.35-.89-2-.33-3,.55-9.74,8.74-20.16,8.44-29-.83-.86-.9-1.37-1.38-2.59-.38-2.3,1.88-5,1.85-7.73,1a32.72,32.72,0,0,1-12.33-6.45c-.77-.66-1.4-1.64-2.77-.73-3,2-5.59.67-8-1.4-3.69-3.24-5.73-7.62-8-11.82-.76-1.39-1.32-2.08-3.2-1.71-5,1-8.73-2.14-8.73-7.41,0-2.49-.14-4.11-3.12-4.9s-4-3.64-3.25-6.6C2,77.86,4.51,72,9.16,67.28,11.24,65.16,13.49,63.6,16.12,64.1Z"/><path class="cls-2" d="M143.09,63.29A26.16,26.16,0,0,1,145,71.18c.52,5.92-2.7,8.4-8.23,6.36-1-.36-2-.75-3.06-1.18.52,3.86,1.07,7.5,1.47,11.15a25.23,25.23,0,0,1,.1,5.21c-.43,4.45-2.73,6.17-7.1,5.36-2.67-.49-5.34-1-8-1.79-1.73-.5-2.33-.14-2.44,1.68a11.87,11.87,0,0,1-1,3.75c-1.45,3.32-4.47,4.28-7.48,2.3-1.7-1.11-3.2-2.52-5-4-.4,1.94-.68,3.63-1.11,5.27-.64,2.52-1.06,5.28-4,6.27s-4.08-1.76-5.87-3.59a67.87,67.87,0,0,1-2.59,6.39c-2.69,5.06-7.1,5.82-11.2,1.85-3.1-3-6-6.29-9-9.59A26.85,26.85,0,0,1,65,114.09c-3.67,3.8-6.15,3.56-9.06-1l-.86-1.33c-6.41,5.83-7.89,5.2-14-5.71-4.35,4.28-6.23,4.07-9.52-1.34-1.62-2.66-2.92-5.51-4.48-8.49-.74.78-1.27,1.43-1.89,2-2.5,2.24-5.36,2-7.27-.8a22.36,22.36,0,0,1-3-6.85c-.4-1.44-.92-2-2.66-1.93-5.54.29-7.13-1.72-5.91-7.1q1.11-4.92,2.52-9.79c.41-1.45.52-2.25-1.23-3-4.28-1.73-5.73-5.16-4.12-9.5a27,27,0,0,1,9.82-12.66l.27-.21A36.1,36.1,0,0,1,20.3,42.8l.44-.17a15.33,15.33,0,0,1,17.12,3.68C38.52,47,39,47.94,40.17,48c8.11.07,15.36,3.74,23,5.76,14.58,3.87,28.89,4.93,43.12-1.38,2.84-1.26,4.76-2.87,5.55-5.84,1.69-6.4,5.87-9.53,12.39-10.85a30.33,30.33,0,0,1,10.4-.12l1.16.18c.87.14,1.73.3,2.59.47,3.4.69,4.68,2.39,4.24,5.34a10.42,10.42,0,0,1-.28,1.29c-.35,1.23.21,1.8.77,2.57A80.05,80.05,0,0,1,147.85,52c2.43,4.14,1,7.7-3.62,9.07C142.79,61.48,142.52,61.92,143.09,63.29Z"/><path class="cls-3" d="M133.94,44.19a21.06,21.06,0,0,1,1.28,3.7,7.75,7.75,0,0,1,.17,1c.53,4.07-1.39,6.21-5.83,6.25-2.31,0-3.65,0-3.31,3.09.31,2.76-1.11,3.78-3,4.14a13.93,13.93,0,0,1-2.61.16c-.49.74,0,1.11.22,1.57a4.77,4.77,0,0,1,.73,2.31,1.56,1.56,0,0,1-.89,1.51,3.76,3.76,0,0,1-2.15.19c-3.33-.47-3.72.8-3,3.51,0,.23.1.46.13.71.22,1.14.27,2.33.42,3.5.54,4.27-.91,6-5.22,6.26a18.15,18.15,0,0,1-9.72-2.29c-1.23-.64-2.33-1.62-3.84-1.66-.92,5.15-2.43,6.07-7.35,4.53a17.86,17.86,0,0,1-3.14-.82c-2.14-1.16-3.4-1.07-4.54,1.52s-5.1,2.69-8.64.49c-1.27-.78-2.13-2.92-3.51-2.46C69,81.8,68.37,83.74,67.48,85c-3.92,5.42-6.54,5.61-11.25.88a20.2,20.2,0,0,1-4.9-8,2.17,2.17,0,0,0-.55-.9c-1.82,8-9.09,1.19-9.09,1.19a3.37,3.37,0,0,0-1.65.62c-2.91,2-6,.66-7.31-2.7-1.2-3.05-1.26-6.3-1.38-9.59-5.38,2.35-6.79,1.64-7.23-3.7a39.79,39.79,0,0,1-3.83,2.47c-4.41,2.22-7.88,0-7.84-4.89,0-3.53,1.52-6.52,3.25-9.45l.45-.76c.47-.77,1-1.56,1.54-2.49-1.57-.14-3.08-.29-4.05-1.18A2.93,2.93,0,0,1,12.76,45a3.56,3.56,0,0,1,.41-2.9,8.32,8.32,0,0,1,1.23-1.5,1.8,1.8,0,0,1,.2-.19l.7-.7a24.24,24.24,0,0,1,4.54-3.38c.87-.56,1.75-1.1,2.61-1.68a17.09,17.09,0,0,1-1.51-1.9c-.11-.16-.21-.32-.3-.47-1.51-2.49-1.14-4.39,1.14-6a6.88,6.88,0,0,1,.88-.54,15.18,15.18,0,0,1,1.93-.92c.49-.22,1-.4,1.48-.57a25.31,25.31,0,0,1,9.55-1.56,21,21,0,0,1,5,.78c6.68,1.89,13.35,3.8,19.66,6.89,11,5.41,22.27,5.14,33.51.53A9.59,9.59,0,0,0,97.65,28c2.7-3.48,6.9-5.07,9.89-8.29,1.5-1.6,5.31-2.15,9-1.9,3.33.21,6.6,1,8,2.37a5.72,5.72,0,0,1,2,3.49,5.13,5.13,0,0,1-.58,3c-1,1.84-.09,2.21,1.18,2.83,1,.52,2.09,1,3.11,1.63a20.39,20.39,0,0,1,3.21,2.18,14.53,14.53,0,0,1,1.09,1c.14.14.28.29.41.44a9.56,9.56,0,0,1,.75.93,5.19,5.19,0,0,1,.93,2.11c.3,1.61-.48,3.15-2.37,4.54C133.46,43,133.62,43.43,133.94,44.19Z"/><path class="cls-4" d="M117.09,32.93c-2.07-1.8-1.26-2.65,0-4.25,3.09-3.85,2.37-6-2.24-7.19-1.78-.44-2.94-.7-2.24-3.1.56-1.94-1.18-2.84-2.84-3.34a29.49,29.49,0,0,0-10.63-1.31,4.28,4.28,0,0,1-3.47-1.2C89.65,7.29,83,4.82,75.15,8.6a10.19,10.19,0,0,1-7,.46,40.41,40.41,0,0,0-6.8-1.22h-.05C54.7,6.9,52.05,10,51,12.63c-.62,0-1.27,0-1.94,0-.85,0-1.72,0-2.58,0h0c-8.47.13-8.4,3.14-7.71,4.8a11.2,11.2,0,0,0-4.08.95c-7.11,2.8-4.94,5.05-3.18,6.09-.2.37-.58.51-1,.79-2.89,2-2.83,3.82.17,5.62.68.4,1.41.71,2.36,1.18a18.07,18.07,0,0,0-5.77,6.69c-2,3.91-.67,6.17,3.65,6.1,1.46,0,2.9-.32,4.61-.53-.45,2.81-.31,5.37,2.91,6.06,2.92.63,4.4-2.18,6.62-3.34.71,2.6.8,5.27,2.8,7.06,2.63,2.35,4.72-.36,7-1.13,1.1,3.16,2.14,6.14,4.29,8.57,3.5,4,6.25,3.83,8.89-.75.85-1.48,1.31-1.51,2.54-.53,1.71,1.37,4,1.75,5.29-.07,2.43-3.44,3.68-1.5,5.18.63A7,7,0,0,0,82.21,62c3.56,3.12,7.58,2.31,9.61-1.92a18,18,0,0,0,1.46-6c.73.22,1.14.31,1.54.46,6.61,2.47,8,1.84,10.05-5,.52-1.76,1.47-1.5,2.66-1.44,2.18.13,4.38-1,3.47-3-1.43-3.13.75-3.13,2.31-4a27.21,27.21,0,0,0,3.1-1.8C118.84,37.55,119.34,34.87,117.09,32.93Z"/><path class="cls-1" d="M137.06,29.46c-2.9-4.16-7.37-7.08-12-9.31A61,61,0,0,0,109,15c-2.48-.44-5-.74-7.47-.95-1.68-1.63-4.33-2.64-6.4-3.5a82.85,82.85,0,0,0-12.46-4,72.19,72.19,0,0,0-14.11-2,27.64,27.64,0,0,0-12.26,1.9,10.26,10.26,0,0,0-5.23,4.92,10.94,10.94,0,0,0-.86,3.13A23.49,23.49,0,0,0,37,16.5a21.56,21.56,0,0,0-10.34,10,11,11,0,0,0-.94,3.21v0h0l-.26.24h0c-.28.15-.54.34-.81.49-.65.34-1.32.64-2,.94-3.27,1.46-6.69,3-8.72,6-2.69,4-1.43,8.78,1.53,12.21A18.74,18.74,0,0,0,25,55.26c4.77,1.28,9.67,2,14.51,3,4.25.88,8.25,2.51,10.68,6,2.18,3.15,3.91,6.94,6.78,9.62A14,14,0,0,0,67.79,77.5c5.34-.63,9.22-4,13-7.36,1.67-1.51,3.32-3,5-4.52.67-.58,1.35-1.12,2-1.69,0,0,0,0,0,0h0l.36-.24a5.89,5.89,0,0,1,1.1-.55,7.57,7.57,0,0,1,6.23.43c2.45,1.31,4.51,3.15,6.89,4.54a13.81,13.81,0,0,0,8.06,2.15,9.22,9.22,0,0,0,6.66-3.67c2.66-3.57,2.52-8.43,4-12.45a6.61,6.61,0,0,1,.49-1.11c.11-.2.23-.4.36-.61,0,0,.22-.28.25-.34l.23-.22h0l.5,0a22.25,22.25,0,0,0,7.05-1.65c2.07-.74,4-1.33,5.63-2.88A12.83,12.83,0,0,0,139,41.85,14,14,0,0,0,137.06,29.46ZM122.42,51.89l.08-.07h0S122.44,51.89,122.42,51.89Z"/><path class="cls-5" d="M134,37.46l-6.82,6.81-8.92,2.43-3.31,8.94L109.7,64,98.49,59.89,92,55.39l-7,2.68L74.22,68.54l-9.58,3.18-7.71-3.19-4.29-7.77-1.87-3.39-6.42-5.14L33,51.37l-6.43-.49C21,49.16,17,46.09,15.08,41.41l.44-7,8.58-5.18,4.8-7.1,1.59-2.36L46.29,13H51.1l3-7L71.65,3.61l5.81,1.81,19.15,6,.23.06L115,15.87l17,10.81,1.12,6.39Z"/><path class="cls-6" d="M57.61,54.26a10.33,10.33,0,0,1-5,6.5l-1.87-3.39-6.42-5.14L33,51.37a8.76,8.76,0,0,1-.08-1c-.79-3.82,2-7.58,5.72-8.73,4.33-1.33,9-1.82,13.17.39A11,11,0,0,1,57.61,54.26Z"/><path class="cls-6" d="M133.19,33.07a12.91,12.91,0,0,1-7.92.62,18.19,18.19,0,0,1-7.1-3.64c-1-.84-2.38-2.62-3.65-3.1.2,0,.69-.56-.86.38-.67.4-1.35.79-2,1.16a31.59,31.59,0,0,1-6.95,3.16,14.33,14.33,0,0,1-5.37.4,9,9,0,0,1,1,.78.36.36,0,0,0,.07.1,12.4,12.4,0,0,1,1.86,1.49,10.24,10.24,0,0,1,1,13.58c-2.93,3.65-8,4.88-12.58,3.71-1.41-.36-3.45-1.93-4.92-2,.17.1-1.1.51-1.17.55-1,.58-1.89,1.14-2.82,1.79-3.93,2.72-7.9,5.56-12.93,3.77a8.74,8.74,0,0,1-4.47-12.65c2-3.44,5.37-5.62,9-7.21A6.73,6.73,0,0,1,74.64,35c5-2.48,12.44-5,18.88-4.35a7.08,7.08,0,0,1,1.13-.09A10.7,10.7,0,0,1,91.47,28a10.4,10.4,0,0,1,1.22-14.17,11.78,11.78,0,0,1,3.92-2.43l.23.06L115,15.87c7.41,2.31,13.26,5.78,17,10.81A9.66,9.66,0,0,1,133.19,33.07Z"/><path class="cls-6" d="M73.45,21.05C69,23.75,63.89,23.49,59,24.5c-5.13,1-7.22,5.11-11.47,7.61-4.69,2.75-11.05,2.89-15.24-.89a10.5,10.5,0,0,1-3.38-9.13l1.59-2.36L46.29,13H51.1l3-7L71.65,3.61l5.81,1.81C81.48,10.52,78.76,17.84,73.45,21.05Z"/><polygon class="cls-7" points="25.69 25.22 25.69 25.22 25.69 25.22 25.69 25.22"/><path class="cls-7" d="M54.48,12.25a.35.35,0,0,1,0,.13h0A.28.28,0,0,0,54.48,12.25Z"/><path class="cls-7" d="M135.28,24.91c-2.86-4.16-7.26-7.08-11.78-9.31a59.27,59.27,0,0,0-15.83-5.13c-2.43-.44-4.89-.74-7.35-1C98.67,7.9,96.06,6.88,94,6a80.8,80.8,0,0,0-12.26-4A70.74,70.74,0,0,0,67.87,0,26.82,26.82,0,0,0,55.8,1.94a10.13,10.13,0,0,0-5.14,4.91A10.69,10.69,0,0,0,49.81,10a22.79,22.79,0,0,0-13,2A21.39,21.39,0,0,0,26.62,22a10.64,10.64,0,0,0-.92,3.21v0h0v0h0v0h0l-.27.23h0c-.28.14-.53.33-.81.48-.63.34-1.29.64-1.95.94-3.22,1.46-6.59,3-8.59,6-2.64,4-1.4,8.77,1.52,12.2a18.36,18.36,0,0,0,9.33,5.64c4.7,1.28,9.53,2,14.29,3,4.19.87,8.11,2.5,10.51,6,2.15,3.16,3.85,6.94,6.67,9.62A13.73,13.73,0,0,0,67.1,73c5.24-.64,9.07-4,12.77-7.36,1.64-1.51,3.27-3,4.94-4.53.65-.57,1.32-1.12,2-1.68l0,0,0,0,.35-.24a5.84,5.84,0,0,1,1.09-.55,7.31,7.31,0,0,1,6.13.44c2.4,1.3,4.43,3.14,6.78,4.53a13.35,13.35,0,0,0,7.93,2.15A9.05,9.05,0,0,0,115.7,62c2.61-3.57,2.47-8.43,4-12.44a6.61,6.61,0,0,1,.49-1.11,6,6,0,0,1,.35-.61l.25-.34.22-.23h0a4.1,4.1,0,0,0,.49,0,21.54,21.54,0,0,0,6.94-1.65c2-.73,4-1.33,5.54-2.87a13.08,13.08,0,0,0,3.18-5.46A14.23,14.23,0,0,0,135.28,24.91Zm-109.57.3h0C25.81,24.86,25.81,25,25.71,25.21Zm0,.08v0Zm0,.06,0-.06h0c0,.11,0,.27,0,.27S25.64,25.44,25.66,25.35ZM121,47.22h0l0,0Zm0,0h0Zm-.08.05h0C120.81,47.41,120.86,47.34,121,47.27Zm8.3-6.71c-.27.14-.1,0,0,0ZM133,34.94a15.12,15.12,0,0,1-.76,2.39c-.17.35-.36.69-.56,1l-.38.57-.09.12-.11.12a4.33,4.33,0,0,1-1.75,1.37l-.06,0-.62.2-1.44.51c-1,.38-2.1.75-3.18,1a9.21,9.21,0,0,1-2.65.45,5.1,5.1,0,0,0-2.84.66c-1.84,1.1-2.77,3.29-3.44,5.19a49.57,49.57,0,0,0-1.58,6.24,24.54,24.54,0,0,1-.74,2.8c-.07.21-.15.42-.23.62s-.22.45-.21.43l-.3.52c0,.06-.31.42-.32.45a4.75,4.75,0,0,1-4.8,1.35c-5-1.16-8.12-6-13.13-7.15a12.31,12.31,0,0,0-7.23.51,15.66,15.66,0,0,0-4.49,3c-3.13,2.73-6,5.83-9.3,8.37s-7.14,3.66-10.87,1.81a16.67,16.67,0,0,1-1.54-.89l-.12-.09.11.1L60,66.41c-.22-.19-.43-.4-.64-.61s-.32-.36-.48-.54c.06,0-.31-.4-.39-.5-.48-.66-.92-1.34-1.37-2-1.23-1.92-2.36-3.94-3.72-5.78a17.66,17.66,0,0,0-5-4.69c-4-2.43-8.57-3.08-13.06-3.94-2.35-.44-4.7-.9-7-1.45-.95-.22-1.89-.45-2.83-.73-.36-.1-.72-.21-1.08-.34-.17,0-.33-.12-.49-.18.59.22,0,0-.16-.08a15.86,15.86,0,0,1-1.93-1.08l-.45-.31L21,43.91c-.35-.27-.68-.55-1-.84a8.38,8.38,0,0,1-2.58-3.85c-.05-.18-.09-.37-.13-.55s-.05-.44-.05-.45c0-.2,0-.4,0-.6,0,0,0-.26,0-.34A6.51,6.51,0,0,1,17.63,36l.1-.21c.12-.2.23-.41.36-.61l.23-.31c.09-.11.19-.21.29-.32a9.73,9.73,0,0,1,.74-.69l.31-.24.38-.27c.35-.23.71-.44,1.08-.65,2.5-1.41,5.65-2.16,7.76-4.16a4.54,4.54,0,0,0,1.22-1.83,4.87,4.87,0,0,0,.19-1c0-.05,0-.15,0-.22.05-.23.1-.45.16-.67a12.48,12.48,0,0,1,2.74-4.48,17.9,17.9,0,0,1,11.6-6,18.35,18.35,0,0,1,6.76.68,2.31,2.31,0,0,0,2.88-2.62v0a1,1,0,0,0,0-.16c-.07-.3,0-.13,0,0,0-.26-.09-.76-.1-.85s0-.42,0-.63,0-.42,0-.51l0-.1.09-.44a7.46,7.46,0,0,1,.26-.84L55,8.46c.09-.16.36-.59.39-.63a8.13,8.13,0,0,1,1-1h0l0,0,.44-.29a10,10,0,0,1,1-.55l.31-.14s.2-.09.33-.13c.39-.15.8-.27,1.2-.39a24.91,24.91,0,0,1,2.54-.53l.15,0h.08l.57-.06c.49,0,1-.08,1.47-.1,1-.05,2-.05,3,0a58.19,58.19,0,0,1,12.21,1.7,79,79,0,0,1,11.4,3.49l.49.19.42.18c.4.17.8.34,1.2.53.72.33,1.43.68,2.13,1.07.51.29,1,.66,1.5.94l.23.2a3.64,3.64,0,0,1,.43.45,1.92,1.92,0,0,0,1.6.66h0a64.51,64.51,0,0,1,15.22,2.85,42.23,42.23,0,0,1,12.95,6.44,17.67,17.67,0,0,1,4.35,4.66,10.81,10.81,0,0,1,1.14,2.53c.09.31.15.62.21.94,0,.1.06.4.06.42,0,.3,0,.61,0,.92A9,9,0,0,1,133,34.94Z"/><path class="cls-7" d="M60.23,66.59c-.22-.18-.12-.09,0,0Z"/><path class="cls-7" d="M93.62,27.5l-.41.19c.09-.05-.32.13-.44.17-.52.19-1.06.36-1.6.5a31,31,0,0,1-3.32.69l-.68.09-.7.09c-.69.07-1.38.13-2.08.18-1.32.1-2.64.15-4,.17-2.69.05-5.38,0-8.06-.22-1.22-.09-2.43-.19-3.65-.33l-.82-.09-.5-.06-1.54-.23c-1-.15-1.94-.33-2.9-.56-.34-.09-.68-.18-1-.29l-.23-.08-.66-.26a2.08,2.08,0,0,0-1.84.27,2.15,2.15,0,0,0-.79.77s0,.07-.05.1l-.07.16-.07.18a1,1,0,0,0,0,.1,2.1,2.1,0,0,0,0,1.14l0,.08a1.09,1.09,0,0,0,0,.17,2,2,0,0,0,1,1.16,8.8,8.8,0,0,0,1.23.5A17.62,17.62,0,0,1,66,35.77c2,2,3.36,4.47,6.19,5.46s6.27-.2,9.12-1a40.13,40.13,0,0,0,8.55-3.3A19.15,19.15,0,0,0,96.8,30.6C98.09,28.56,95.59,26.55,93.62,27.5Z"/><path class="cls-8" d="M59.62,12.46a17.55,17.55,0,0,1,5.24-1.32,18.91,18.91,0,0,1,3,0,17.66,17.66,0,0,1,2.65.51,2,2,0,0,0,2.38-1.32A1.9,1.9,0,0,0,71.55,8,20.71,20.71,0,0,0,57.66,9.21,1.87,1.87,0,0,0,57,11.79a2,2,0,0,0,2.65.67Z"/><path class="cls-8" d="M77.23,13.09h2.06a1.44,1.44,0,0,0,.74-.17,1.34,1.34,0,0,0,.63-.39,1.41,1.41,0,0,0,.4-.6,1.43,1.43,0,0,0,.17-.73l-.07-.5a1.91,1.91,0,0,0-.5-.83,2.05,2.05,0,0,0-1.37-.56H77.23a1.48,1.48,0,0,0-.75.17,1.31,1.31,0,0,0-.62.39,1.33,1.33,0,0,0-.4.6,1.33,1.33,0,0,0-.17.73l.07.5a1.82,1.82,0,0,0,.5.83,2,2,0,0,0,1.37.56Z"/><path class="cls-8" d="M36.27,26.92A14.82,14.82,0,0,1,38.13,25c.16-.15.33-.29.5-.43l.28-.22c.21-.18-.26.18,0,0,.38-.27.76-.54,1.15-.78s.76-.44,1.16-.64l.59-.29.33-.15c.23-.1,0-.06-.05,0a3,3,0,0,1,.69-.26l.62-.2c.45-.14.9-.26,1.36-.36a1.89,1.89,0,0,0,1.35-2.32,2,2,0,0,0-2.38-1.31,18.21,18.21,0,0,0-10.16,6.18A2,2,0,0,0,33,25.59a1.92,1.92,0,0,0,.57,1.33,2,2,0,0,0,2.74,0Z"/><path class="cls-8" d="M50.23,21.39,52,21.06a1.4,1.4,0,0,0,.65-.34,1.34,1.34,0,0,0,.5-.53,1.39,1.39,0,0,0,.23-.7,1.37,1.37,0,0,0,0-.75l-.2-.45a1.88,1.88,0,0,0-.69-.68L52,17.42a2,2,0,0,0-1,0l-1.72.33a2.18,2.18,0,0,0-1.16.87,1.39,1.39,0,0,0-.23.7,1.37,1.37,0,0,0,0,.75l.2.46a1.93,1.93,0,0,0,.69.67l.47.19a2,2,0,0,0,1,0Z"/><path class="cls-8" d="M105.09,21.05a32.65,32.65,0,0,1,11.72,3.2,2,2,0,0,0,2.65-.68,1.87,1.87,0,0,0-.69-2.58,37.4,37.4,0,0,0-13.68-3.72,1.94,1.94,0,0,0-1.94,1.89,2,2,0,0,0,1.94,1.89Z"/><path class="cls-8" d="M123.14,29.1l1.72.67a1.55,1.55,0,0,0,.77,0,1.52,1.52,0,0,0,.72-.22,1.45,1.45,0,0,0,.55-.49,1.42,1.42,0,0,0,.34-.64l.07-.5a1.86,1.86,0,0,0-.26-.95l-.31-.39a1.94,1.94,0,0,0-.85-.48l-1.72-.67a1.55,1.55,0,0,0-.77,0,1.53,1.53,0,0,0-.72.23,1.51,1.51,0,0,0-.55.48,1.46,1.46,0,0,0-.34.65l-.07.5a1.89,1.89,0,0,0,.26.95l.31.38a2,2,0,0,0,.85.49Z"/><path class="cls-8" d="M76.43,48.6a23.35,23.35,0,0,1,2.38-1.51c.41-.22.83-.43,1.25-.64l.65-.29L81,46l0,0a26.78,26.78,0,0,1,5.38-1.4,1.88,1.88,0,0,0,1.35-2.32A2,2,0,0,0,85.33,41a24.5,24.5,0,0,0-10.86,4.33,1.9,1.9,0,0,0-.69,2.58,2,2,0,0,0,2.65.68Z"/><path class="cls-8" d="M91,43.23H92.7a1.47,1.47,0,0,0,.75-.16,1.49,1.49,0,0,0,.62-.39,1.38,1.38,0,0,0,.4-.61,1.41,1.41,0,0,0,.17-.73l-.07-.5a1.88,1.88,0,0,0-.5-.83l-.39-.29a2,2,0,0,0-1-.26H91a1.46,1.46,0,0,0-.74.16,1.59,1.59,0,0,0-.63.39,2,2,0,0,0-.56,1.33l.06.51a2,2,0,0,0,.5.83L90,43a2,2,0,0,0,1,.26Z"/></svg>