<?xml version="1.0" encoding="utf-8"?>
<!-- Generator: Adobe Illustrator 25.1.0, SVG Export Plug-In . SVG Version: 6.00 Build 0)  -->
<svg version="1.1" id="Layer_1" xmlns="http://www.w3.org/2000/svg" xmlns:xlink="http://www.w3.org/1999/xlink" x="0px" y="0px"
	 viewBox="0 0 150.1 116.7" style="enable-background:new 0 0 150.1 116.7;" xml:space="preserve">
<style type="text/css">
	.st0{fill:#3B5B72;}
	.st1{fill:#2A4B62;}
	.st2{fill:#4D6D84;}
	.st3{fill:#395D70;}
	.st4{fill:#BCDAEF;}
	.st5{fill:#D6E5F3;}
	.st6{fill:#8CC5E5;}
	.st7{fill:#FFFFFF;}
</style>
<path class="st0" d="M70.6,116.7C31.2,116.7,5.4,93.9,1.9,82.4c-2.3-7.6-2.4-20.2-1.1-34.6C1.2,44,1.7,40,2.2,36
	c0.5-3.6,1-7.2,1.6-10.8c0,0,0,0,0-0.1c0.1-0.9,0.3-1.9,0.5-2.8C6.1,12.6,30.6,5.7,31.4,6c5.1,1.6,10.1,3.5,15,5.8
	c1.5,0.7,3,1.4,4.5,2.1l0.3,0.2c2.7,1.3,5.4,2.8,8.1,4.3c3.2,1.8,6.3,3.6,9.3,5.5l2.5,1.6l2.9,1.9l1.2,0.8c1.6,1.1,3.2,2.1,4.7,3.2
	l1.3,1l0.1,0.1c1.3,0.9,2.5,1.8,3.7,2.7c1.9,1.5,3.7,2.9,5.4,4.3l0.4,0.3c1,0.9,2,1.8,2.9,2.8c0.6,0.5,1,1.1,1.6,1.7l0.3,0.4
	l0.1,0.1c0.7-0.7,1.3-1.4,1.9-2.1l1-1c0.3-0.3,0.7-0.7,1-1c1-1,2.1-1.9,3.3-2.7l0.4-0.3c0.2-0.1,0.3-0.3,0.5-0.4
	c0.5-0.3,0.9-0.7,1.4-0.9c0.8-0.5,1.7-1,2.6-1.4c0.1,0,0.2-0.1,0.2-0.1c0.5-0.2,1-0.4,1.5-0.6l0.5-0.2c0.2-0.1,0.4-0.1,0.7-0.2
	l0.6-0.1l0.6-0.1h0.6c0.2,0,0.4,0,0.6,0h0.5c1.2,0,2.3,0.3,3.3,0.7c0.6,0.2,1.2,0.5,1.8,0.9c3.4,1.9,6.5,4.4,9.1,7.3
	c2.4,2.6,4.6,5.4,6.6,8.4l0,0c0.3,0.4,0.5,0.7,0.8,1.1s0.6,0.9,0.9,1.4s0.7,1.1,1,1.6c1.4,2.3,2.7,4.7,3.9,7l0,0l0.4,0.7
	c0.4,0.7,0.7,1.4,1.1,2.2l0,0c2.5,5.1,6.7,13.2,6.7,15.7C156,99.8,110,116.5,70.6,116.7z"/>
<polygon class="st1" points="84.8,51.2 61.6,64.2 60.8,69.3 65.1,112.4 80.4,79.8 87.5,55.2 "/>
<polygon class="st0" points="71.9,97.9 80.1,72.3 100.6,77.4 93.2,91 "/>
<path class="st2" d="M95.4,44.2c-0.5,0.7-1,1.4-1.5,2.1c-2,2.7-4.3,5.2-6.9,7.4l0,0L86.7,54c-6,5-12.7,9.3-19.8,12.6l-0.4,0.2
	c-0.1,0.1-0.2,0.1-0.4,0.2c-1.3,0.6-2.6,1.2-4,1.8l-1.3,0.6c-2.1-1.1-4.2-2.2-6.2-3.3c-2.3-1.3-4.6-2.6-6.8-3.8
	c-4.6-2.7-8.8-5.3-12.6-7.8L34,53.4c-3-2-5.8-4-8.3-5.9c-0.1-0.1-0.3-0.2-0.4-0.3c-3.9-2.9-7.6-6.1-11.2-9.5
	c-1.4-1.3-2.6-2.5-3.7-3.8c-2.5-2.7-4.7-5.6-6.7-8.8l0,0c0.2-0.9,0.3-1.9,0.5-2.8C6.1,12.6,9.1,5.2,14,4c3.8-0.9,9-0.4,15,1.2
	c0.8,0.2,1.7,0.5,2.5,0.7c5.1,1.6,10.1,3.5,15,5.8c1.5,0.7,3,1.4,4.5,2.1l0.3,0.2c2.7,1.3,5.4,2.8,8.1,4.3c3.2,1.8,6.3,3.6,9.4,5.5
	l2.5,1.6l2.9,1.9l1.3,0.8c1.6,1.1,3.2,2.1,4.7,3.2l1.3,1l0,0l0.1,0.1c1.3,0.9,2.5,1.9,3.7,2.8c1.9,1.5,3.7,2.9,5.4,4.3l0.4,0.3
	c1,0.9,2,1.8,2.9,2.7c0.1,0.1,0.3,0.3,0.4,0.4l0,0C94.6,43.3,95,43.8,95.4,44.2z"/>
<path class="st1" d="M61.9,80.4c0,0-0.2-8-11.5-15.8s13.5,5,13.5,5L61.9,80.4z"/>
<path class="st1" d="M53.2,64.4c0,0,8.4,4.9,13.3,2.4s-2.8,6-2.8,6l-6-3.4L53.2,64.4z"/>
<path class="st2" d="M142.8,64.7c-11.6,9.2-21.7,13.9-30.3,16c-11.2,2.1-25.3,0.2-34.1-2.9c0.8-2.7,1.7-5.3,2.4-7.7
	c2.1-6.2,3.9-10.7,3.9-10.7c0.3-0.7,0.5-1.3,0.8-2c0.5-1.3,1-2.5,1.5-3.6c1.6-3.7,2.8-6.3,2.8-6.3l4-5c0.5,0.6,1,1.1,1.6,1.7
	l0.4,0.5c1.3-1.5,2.6-2.8,3.9-4.1c3.7-3.5,7.5-6,11.1-6.8c2.1-0.5,4.3-0.4,6.3,0.4c0.6,0.3,1.2,0.5,1.8,0.9c3.5,2,6.7,4.5,9.4,7.6
	c2.6,2.9,5,5.9,7.1,9.2l1,1.6l0.9,1.4c1.4,2.3,2.7,4.7,3.9,7C141.8,62.8,142.3,63.7,142.8,64.7z"/>
<path class="st3" d="M74.5,27.3L74.5,27.3c-1.7,4.1-5.6,6.9-10,7.1c0.3,1.7,0.7,3.4,1.1,5.1c0.6,2.4,1.3,5.1,0.6,7.6
	c-1.4,5.5-7.2,5.8-11.8,4.6c-2.5-0.7-6.2-1.7-8.2-3.5l-0.8,0.6c-1,0.9-2.1,1.6-3.3,2.3c-2.4,1.4-5.1,2.2-7.8,2.3
	c-2.7,0.1-5.3-0.6-7.6-1.9c-1.8-1-10.1-9.4-9.4-10.8S28.2,44.9,30,46c4,2.3,8.4,0.5,11.6-2.3c1.3-1.1,2.5-2.4,4.3-2.5
	s3.3,1.3,4.8,2.2c1.8,1,3.8,1.8,5.9,2.3c1.7,0.4,3.6,0.9,3.5-1.4c-0.2-4.2-1.9-8.8-2.8-12.9c-0.3-1,0-2.1,0.7-2.9
	c-0.4-2.1,1.2-4.6,3.9-3.8c2.4,0.8,5,0.5,7.2-0.9l0,0l2.5,1.6L74.5,27.3z"/>
<path class="st3" d="M96.1,44.6L96.1,44.6c-0.5,0.7-1.1,1.3-1.8,1.7c-1.3,0.8-2.8,1.2-4.3,1.4l-0.5,0.1c-4.1,0.6-8.6-0.1-10.8-4.1
	c-2-3.7-2.8-8.5-3.8-12.6c-0.3-1.1,0-2.2,0.8-3l0,0c1.6-1.5,4.7-1.5,5.3,1.3c0.2,1,0.4,1.9,0.7,2.9l0,0c0.3,1.1,0.6,2.2,0.9,3.3
	c0.4,1.5,0.8,4.7,2.2,5.6c1,0.7,4.1,0.8,5.5,0.2c-0.4,0.1-0.6-0.5-1.2-1c-0.7-0.5-1.5-1-2.2-1.4c-1.4-0.7-2-2.4-1.3-3.8l0,0
	c1.9,1.5,3.7,2.9,5.4,4.3l0.4,0.3c1,0.9,2,1.8,2.9,2.8c0.6,0.5,1,1.1,1.6,1.7L96.1,44.6z"/>
<path class="st3" d="M130.6,46.5c-0.2-0.1-0.3-0.1-0.5-0.2c0.1,0.3,0.1,0.6,0.1,0.9l0.2,0.2c0.5,0.3,1.8,1.4,2.1,0.9
	C132.9,47.3,131.1,46.7,130.6,46.5z M135.8,57.8c-2.6-2.9-8-1.4-10.8,0.1c-1,0.4-1.7,1.5-1.6,2.7c-0.7-0.6-1.6-0.9-2.5-0.9
	c0.4-0.6,0.7-1.1,0.9-1.8c0.5-1.3,1-4.8,2.4-6.3c1.5,0,3.4,1.7,4.8,2.3c2.4,1.3,5.3,1.1,7.5-0.5c0,0-1.1-2.3-1.4-2.7l0,0
	c-2-3-4.2-5.7-6.6-8.4l0,0c0,0.1-0.1,0.2-0.1,0.3c-0.2,0.7-0.1,1.5,0.2,2.2c-0.2-0.1-0.5-0.2-0.7-0.2c-1.9-0.4-3.8-0.1-5.5,0.7
	c-3.2,0.8-5.6,3.4-6.2,6.6c-0.1,0.6-0.1,1.2,0.1,1.8c-0.2,1-0.4,2.3-1.1,2.7s-3.3-0.1-4.2,0c-2.2,0.3-4.2,1.4-5.6,3
	c-1.5,1.6-2.5,3.6-3.8,5.3c-1.6,2-3,2.2-5.4,1.5s-5-1.6-7.7-1.2c-0.3,0-0.7,0.1-1,0.2c0.3-1.4,0.6-3.3,0.7-3.8
	c0.4-1.2-0.1-2.6-1.2-3.3c-0.4-0.3-0.8-0.5-1.3-0.6l-0.3-0.1c-0.3,0.7-0.5,1.3-0.8,2c-0.4,1-1.8,4.5-3.9,10.7l0.1,0.2l0.1,0.2
	c0.5,0.7,1.2,1.3,2,1.6c1.7,0.6,3.7,0,5.6-0.6c2.7-0.7,5.7,1.1,8.4,1.4c2.8,0.5,5.6-0.3,7.8-2.2c1.8-1.6,3-3.7,4.4-5.6
	c0.5-0.9,1.2-1.6,2.1-2.1c1.2-0.6,2.8-0.1,4.1-0.2c0.6,0,1.2-0.1,1.8-0.3c-0.6,0.8-1,1.8-1,2.8c0.1,1.9,1.6,3.4,3.5,3.5
	c1.8,0.2,3.7-0.9,5.5-1.4c2.2-0.6,4.6-0.7,6.8-1.5C135,64.8,138.6,61,135.8,57.8z"/>
<path class="st4" d="M65.8,16.8C64.7,15.4,48.3,0.8,37.9,4.5C32.2,1.3,25.7-0.3,19.2,0C14.1,0.2,8.7,2.1,6,6.7
	C4.2,10.2,3.9,14.3,5.3,18c-0.4,0.4-0.7,0.7-1,1.2c-6.2,8.3,5.5,22.5,15.8,22.7c2.5,4.2,6.7,7,11.6,7.5c6.6,1,12.6-1.6,13.4-7
	c3.2,4,7.9,7.7,12.9,7.6c3.4-0.1,6.2-3,6.1-6.4c0-0.4-0.1-0.8-0.1-1.1c-0.6-3.2-1.6-7.4-1.8-9.3c-0.2-1.6-0.5-2.9-0.8-4.1
	c0.4-1.4,1.5-1.2,3.3-0.8c2,0.4,4.5,0.8,5.9-1C73.7,23.3,66.8,18.3,65.8,16.8z"/>
<path class="st5" d="M34.4,6.3c-2.3-2.1-5.5-3.1-8.3-4.2c-0.1-0.1-0.3,0-0.3,0.1c0,0,0,0,0,0.1c-2.9-0.4-10.4-1.4-10.5-1.4
	s-4.9,4.1-6.9,5.8c-0.1,0-0.2,0-0.3,0.1C7.8,6.9,7.6,7.1,7.4,7.4l0,0c-1.4,2-1.5,5.1-0.9,7.4c0.5,2.1,1.9,3.8,3.8,4.8
	c-0.1,0.4-0.1,0.8,0,1.1c-1.4,0.3-2.5,1.4-2.7,2.8c-0.3,2,0.3,4,1.4,5.6c1,1.7,2.7,2.9,4.6,3.4c1.7,0.4,3.4-0.8,3.8-2.5
	c0,0,0-0.1,0-0.1c0.1-1.1,0-2.3-0.5-3.4c-0.5-1.3-1-2.6-1.5-3.9c0,0,0,0,0-0.1c2.3,0,4.5-0.8,6.2-2.4c0.9-0.9,1.6-2,2.1-3.2
	c0.4-0.8,1.2-0.9,2-0.9s1.8,0,2.7-0.1c2.7-0.1,5.9-0.8,7.2-3.5C36.5,10.4,36.1,7.9,34.4,6.3z"/>
<path class="st5" d="M54.8,16.3c2-2.8-0.2-5.5-2.3-7.3c-0.1-0.1-0.3-0.1-0.4,0c0,0-0.1,0.1-0.1,0.1l-5.7-1.4c0.1-0.1,0-0.3-0.1-0.3
	c0,0,0,0-0.1,0c-2.3-0.4-5.1,0-6.7,1.9c-1.6,2.1-1.5,5,0.1,7c1.8,2.1,4.4,3.2,7.2,3.1C49.5,19.3,53.1,18.6,54.8,16.3z"/>
<path class="st5" d="M51.3,23.9c-1.1-0.3-2.2-0.3-3.3,0c-1.9,0.9-3.1,2.8-3.2,4.9c-0.3,2.8,0.7,5.5,2.8,7.4c1,0.7,2.2,1,3.4,0.7
	c1.1-0.4,2-1.3,2.4-2.5c1-2.5,2.2-5.7,0.7-8.2C53.5,25.1,52.5,24.3,51.3,23.9z"/>
<path class="st5" d="M32.3,31.6c-2.3-1.1-5.3-1.4-7.3,0.4c-1.8,1.7-1.6,4.1-0.5,6.2c1,2.4,3.5,3.8,6.1,3.5c2.5-0.3,4.5-2.1,5.2-4.5
	C36.2,34.8,34.4,32.7,32.3,31.6z"/>
<path class="st6" d="M41.4,22c-0.1,0.5-0.2,1-0.4,1.4c-1.6,4-6.9,3.8-11.4,2.5c-1.7-0.7-3.3-1.5-5-2.4c-0.4-0.2-0.3-0.6-1.2-0.2
	s0.6,4.8,6.9,7.2c2.6,1.1,5.6,2.5,8.3,3c1.4,0.4,3-0.3,3.5-1.7c1-2.2,1.4-5.8,1.5-8C44,20.5,41.2,19.6,41.4,22z"/>
<path class="st4" d="M93.6,40.1c0.3-2.9-2.7-5.7-4.6-7.5c-2.1-2.3-4.6-4.2-7.5-5.6c-2.3-1-5.7-0.5-6.3,2.4c-0.3,1.6,0.6,3.4,1.7,5
	c0.4,2.3,1.2,4.5,2.2,6.6c1.6,2.8,4.6,2.9,7.5,2.9S93.3,43.8,93.6,40.1z"/>
<path class="st4" d="M133.6,52.6c-3.1,1.4-6-1.5-8.1-3.4c-2.8-2.5-4.1-1-5.2,1.4c-0.3,0.8-0.5,1.6-0.7,2.4c-0.4,1.4-1.1,2.7-2.1,3.8
	c-1.3,1.6-3.5,2.2-5.4,1.3c-0.6-0.2-1.3-1-1.9-1.1c-1.1-0.2-2.1,0.8-2.7,1.4c-3.2,3.1-4.4,8.5-8.8,10.3c-1.8,0.7-3.8,0.7-5.6-0.2
	c-2.2-1-3.9-3-6.5-1.7c-1.4,0.7-3.2,0.3-4.1-1c-0.7-0.6-1.2-1.4-1.4-2.3c-0.7-2.5,0.5-5.4,1.6-7.7c2.3-4.8,6.8-7.8,10.5-11.5
	c4.1-4,5.9-10.5,11.6-12.8c1.7-0.7,3.5-0.9,5.2-0.5c4.1-5.6,13.2-2.6,17.5,2C130.5,36.2,140.3,49.5,133.6,52.6z"/>
<path class="st5" d="M86.1,35.7c0.3-2.2-1.7-4.4-3.3-5.6c-0.8-0.7-1.7-1.1-2.7-1.2c-1.2,0-2.1,0.9-2.3,2c-0.2,0.3-0.3,0.6-0.3,0.9
	c-0.1,1.2,0.5,2.3,1.5,2.9c0.1,0.3,0.3,0.6,0.4,0.9c0.5,1,1.2,1.7,2.2,2.2c1.6,0.8,3.5,0.1,4.3-1.5C86,36.1,86,35.9,86.1,35.7z"/>
<path class="st5" d="M95.6,48.1c-1.7-0.3-3.4,0.9-4.8,2.3c-1,0.8-1.9,1.9-2.5,3l-0.4,0.5c-2.4,2.7-3.8,6.1-4,9.6
	c0,1,0.8,1.7,1.8,1.7c0.2,0,0.4,0,0.6-0.1c0.9,0.5,2,0.1,2.4-0.7c0.2-0.4,0.3-0.8,0.2-1.3c-0.7-2.5,2.7-3.7,4.4-4.8
	c1.5-0.8,2.7-2,3.6-3.4C97.9,52.9,98.7,48.7,95.6,48.1z"/>
<path class="st5" d="M111.6,32.1c-1.9,0-3.7,0.6-5.2,1.7c-0.5,0.4-1.1,0.8-1.6,1.2c-1.1,0.6-1.9,1.6-2.5,2.7l-0.1,0.1
	c-0.7-0.3-1.6,0-2,0.7c-1.6,2.4-5.1,6.3-2.1,9.1c0.7,0.7,1.6,1,2.5,1.1c0.3,0.1,0.6,0,0.9,0c0.2,0,0.4-0.1,0.6-0.1
	c1.2,0.2,2.5-0.2,3.4-1.1c1.9-1.8,1.8-5.1,5-5.1c4.2-0.1,9.5,2.5,12-2.5c0.5-0.9,0.7-1.9,0.6-3C124.1,31.1,114.8,28.2,111.6,32.1z"
	/>
<path class="st5" d="M113,46c-0.7-0.1-1.4-0.2-2.1-0.1c-1-0.2-2,0.1-2.8,0.8c-0.2,0.2-0.3,0.4-0.5,0.6c-0.2,0.2-0.5,0.4-0.7,0.7
	c-0.7,0.7-0.7,1.8,0,2.5c0.4,0.4,1,0.6,1.6,0.5c0.9,0.5,1.9,0.6,2.9,0.3c1.1-0.5,2-1.5,2.5-2.6c0.5-0.8,0.2-1.9-0.6-2.4
	C113.3,46.1,113.1,46,113,46z"/>
<path class="st4" d="M123.4,55.1c-2.1,2-3.9,4.3-5.4,6.8c-0.8,1.6-0.2,3.6,1.4,4.4c0.7,0.4,1.5,0.5,2.3,0.2c3-0.8,6.2-1.6,8.8-3.2
	c3-1.8,2.9-4.9,0.6-7.2S126.1,52.7,123.4,55.1z"/>
<path class="st6" d="M126.7,57.2c0.8,0.2,1.5,0.6,2,1.3c0.4,0.3,0.6,0.8,0.7,1.3c0,0.1-0.2,0.3-0.6,0.6c-2.3,1.2-4.7,2.1-7.2,2.6
	h-0.1c1.2-2,2.7-3.7,4.3-5.3C126,57.4,126.3,57.2,126.7,57.2 M126.7,53.7c-1.2,0-2.4,0.5-3.3,1.4c-2.1,2-3.9,4.3-5.4,6.8
	c-0.9,1.4-0.5,3.3,0.9,4.1c0.2,0.1,0.4,0.2,0.6,0.3c0.4,0.2,0.9,0.3,1.3,0.3c0.3,0,0.6,0,0.9-0.1c3-0.8,6.2-1.6,8.8-3.2
	c3-1.8,2.9-4.9,0.6-7.2C130.1,54.7,128.5,53.9,126.7,53.7L126.7,53.7z"/>
<path class="st7" d="M14.3,14.9c-0.6-1.3-0.3-2.9,0.9-3.7c2.2-1.4,0.1-5-2.1-3.5c-2.8,1.8-3.9,5.3-2.8,8.4c0.3,1.1,1.4,1.7,2.5,1.4
	C13.9,17.1,14.6,16,14.3,14.9L14.3,14.9z"/>
<path class="st7" d="M19.4,9.1h1.8c1,0,1.8-0.8,1.8-1.8s-0.8-1.8-1.8-1.8h-1.8c-1,0-1.8,0.8-1.8,1.8S18.4,9.1,19.4,9.1z"/>
<path class="st7" d="M43.8,12.9h0.8c0.5,0,0.9-0.2,1.2-0.5c0.3-0.3,0.5-0.8,0.5-1.2c0-1-0.8-1.7-1.8-1.8h-0.8
	c-0.5,0-0.9,0.2-1.2,0.5c-0.7,0.7-0.7,1.8,0,2.5C42.9,12.7,43.3,12.9,43.8,12.9z"/>
<path class="st7" d="M49.6,28.8c0-0.3-0.1-0.6-0.3-1l0.2,0.4l0,0L49.6,28.8L49.6,28.8l-0.1,0.4l0,0l-0.2,0.4
	c0.2-0.3,0.3-0.6,0.3-0.9c0.3-0.9-0.2-1.9-1.1-2.2s-1.9,0.2-2.2,1.1c0,0.1,0,0.1,0,0.2c0,0.1-0.1,0.3-0.1,0.4l0.2-0.4
	c-0.1,0.2-0.2,0.3-0.2,0.5c-0.1,0.3-0.1,0.6,0,0.9c0,0.1,0.1,0.3,0.2,0.4l-0.2-0.4c0.1,0.2,0.1,0.4,0.1,0.5c0.1,0.4,0.4,0.8,0.8,1
	c0.8,0.5,1.9,0.2,2.4-0.6l0.2-0.4C49.7,29.4,49.7,29.1,49.6,28.8L49.6,28.8z"/>
<path class="st6" d="M20.4,3.5L20.4,3.5c5.5-0.1,11,1.3,15.8,4.1C36.7,7.8,37.3,8,37.9,8c0.4,0,0.8-0.1,1.2-0.2
	c0.8-0.3,1.7-0.4,2.5-0.4c8.2,0,19.8,9.8,21.3,11.6c0.5,0.6,1,1.1,1.5,1.6c3,3,3.4,4,3.4,4.4c0,0,0,0.1-0.1,0.1
	c-0.2,0-0.3,0.1-0.5,0c-0.7,0-1.3-0.1-2-0.3c-0.8-0.2-1.7-0.3-2.5-0.3c-2.3-0.1-4.3,1.5-4.8,3.7c-0.1,0.5-0.2,1-0.1,1.5
	c0.1,0.4,0.2,0.8,0.2,1.2c0.2,0.8,0.3,1.7,0.5,2.7c0.2,1.3,0.6,3.1,1,5.3c0.3,1.4,0.6,2.9,0.8,4.2c0.2,0.9,0,1.8-0.6,2.5
	c-0.5,0.6-1.2,0.9-2,0.9h-0.1c-3.6,0-7.6-3.3-10-6.3c-0.7-0.8-1.7-1.3-2.7-1.3c-1.7,0-3.2,1.3-3.5,3c-0.5,3.1-4.2,4.2-7.3,4.2
	c-0.7,0-1.5-0.1-2.2-0.2c-3.8-0.4-7.2-2.5-9.1-5.8c-0.6-1-1.7-1.7-2.9-1.7C15.5,38.3,9.7,34,7.2,28.9c-0.9-1.8-2-5.1-0.1-7.7
	c0.1-0.2,0.3-0.4,0.5-0.6c1.1-1,1.5-2.5,1-3.9c-1-2.7-0.9-5.7,0.4-8.3c2.5-4.3,8-4.9,10.3-5L20.4,3.5 M20.3,0l-1.1,0
	C14.1,0.2,8.7,2.1,6,6.7C4.2,10.2,3.9,14.3,5.3,18c-0.4,0.4-0.7,0.7-1,1.2c-6.2,8.3,5.5,22.5,15.8,22.7c2.5,4.2,6.7,7,11.6,7.5
	c0.9,0.1,1.8,0.2,2.7,0.2c5.5,0,10-2.5,10.7-7.2C48.2,46.3,53,50,57.8,50H58c3.4-0.1,6.2-3,6.1-6.4c0-0.4-0.1-0.8-0.1-1.1
	c-0.6-3.2-1.6-7.4-1.8-9.3c-0.2-1.6-0.5-2.9-0.8-4.1c0.1-0.7,0.7-1.2,1.4-1.1c0.6,0,1.2,0.1,1.8,0.3c0.9,0.2,1.8,0.3,2.7,0.4
	c1.2,0.1,2.4-0.4,3.2-1.3c3.2-4-3.6-9-4.7-10.5c-1-1.3-13.9-12.9-24.1-12.9c-1.3,0-2.5,0.2-3.7,0.6C32.6,1.5,26.5,0,20.3,0L20.3,0z"
	/>
<path class="st6" d="M78.8,30L78.8,30 M79.2,30c0.3,0,0.7,0.1,1,0.2c2.4,1.2,4.5,2.9,6.3,4.9l0.4,0.4c0.9,0.9,3.3,3.3,3.2,4.3
	c0,0.1,0,0.1,0,0.2c-0.2,0.1-0.8,0.4-3,0.4h-0.5c-2.9,0-4-0.3-4.4-1.2c-0.9-1.8-1.5-3.7-1.9-5.6c-0.1-0.4-0.3-0.8-0.5-1.2
	c-0.6-0.7-0.9-1.5-1.1-2.3C78.9,30,79.1,30,79.2,30 M79.2,26.5c-1.8,0-3.6,0.8-3.9,2.9c-0.3,1.6,0.6,3.4,1.7,5
	c0.4,2.3,1.2,4.5,2.2,6.7c1.6,2.8,4.6,2.9,7.5,2.9h0.5c2.8,0,6.1-0.3,6.5-3.8c0.3-2.9-2.7-5.7-4.6-7.5c-2.1-2.3-4.6-4.3-7.5-5.7
	C80.9,26.7,80.1,26.5,79.2,26.5L79.2,26.5z"/>
<path class="st6" d="M116.5,28.2v3.5c3.2,0.2,6.3,1.6,8.5,3.9c2,2.3,3.8,4.8,5.3,7.5c2.3,4.1,2.1,5.9,2,6.2c-0.1,0-0.1,0.1-0.2,0.1
	c-0.1,0-0.1,0.1-0.2,0.1c-0.9,0-2.8-1.6-3.7-2.5l-0.4-0.3c-1.3-1.3-3-2.1-4.9-2.2l0,0c-3.8,0-5.3,3.7-5.8,4.9c-0.4,1-0.7,2-0.9,3
	c-0.3,0.9-0.8,1.7-1.4,2.3c-0.2,0.3-0.5,0.4-0.8,0.4c-0.1,0-0.2,0-0.3-0.1l-0.2-0.2c-0.8-0.6-1.7-1.1-2.6-1.3
	c-0.3-0.1-0.6-0.1-0.9-0.1c-1.9,0.1-3.7,1-4.9,2.4c-1.4,1.5-2.7,3.2-3.7,5c-1.3,2.1-2.4,3.9-4,4.6c-0.4,0.2-0.8,0.3-1.3,0.3
	c-0.5,0-1.1-0.1-1.6-0.4c-0.4-0.2-0.8-0.4-1.2-0.7c-1.5-1-3.2-1.6-5-1.7c-1.1,0-2.1,0.3-3.1,0.7c-0.1-0.1-0.2-0.2-0.3-0.3
	c-0.2-0.2-0.3-0.4-0.3-0.6c-0.4-1.6,0.9-4.4,1.3-5.3c1.4-2.9,4-5.2,6.7-7.7c1-0.9,2.1-1.8,3.1-2.8c1.7-1.7,3.1-3.7,4.4-5.7
	c1.9-2.8,3.5-5.3,6-6.3c0.7-0.3,1.5-0.4,2.2-0.4c0.4,0,0.7,0,1.1,0.1c0.2,0,0.4,0,0.6,0c1.1,0,2.2-0.5,2.8-1.4
	c0.8-1.1,2.2-1.7,3.6-1.6L116.5,28.2L116.5,28.2z M116.5,28.2c-2.5-0.1-4.9,1-6.4,3c-1.8-0.3-3.6-0.1-5.2,0.5
	c-5.7,2.3-7.5,8.7-11.6,12.8c-3.7,3.7-8.2,6.7-10.5,11.5c-1.1,2.2-2.2,5.2-1.6,7.7c0.2,0.9,0.7,1.7,1.4,2.3c0.6,0.8,1.6,1.3,2.6,1.3
	c0.5,0,1-0.1,1.5-0.4c0.5-0.3,1.1-0.4,1.7-0.4c1.7,0,3.1,1.3,4.8,2.1c0.9,0.4,2,0.7,3,0.7c0.9,0,1.8-0.2,2.6-0.5
	c4.4-1.8,5.5-7.2,8.8-10.3c0.6-0.8,1.5-1.3,2.5-1.5h0.3c0.6,0.1,1.3,0.9,1.9,1.1c0.6,0.3,1.2,0.4,1.9,0.4c1.4,0,2.7-0.6,3.5-1.7
	c1-1.1,1.7-2.4,2.1-3.8c0.2-0.8,0.4-1.6,0.7-2.4c0.7-1.5,1.4-2.7,2.6-2.7c1,0.1,1.9,0.6,2.5,1.3c1.7,1.5,4,3.8,6.4,3.8
	c0.6,0,1.2-0.1,1.7-0.4c6.7-3.1-3.1-16.3-6-19.4C124.7,30.2,120.7,28.4,116.5,28.2z"/>
<path class="st7" d="M104.3,43.7c0.4-2,1.9-3.7,3.8-4.4c2.1-0.8,1.2-4.1-0.9-3.4c-3.1,1.1-5.5,3.7-6.3,6.9
	C100.5,44.9,103.8,45.9,104.3,43.7L104.3,43.7z"/>
<path class="st7" d="M116.5,36.6l1.8-1c0.9-0.4,1.3-1.4,0.9-2.3c-0.4-0.9-1.4-1.3-2.3-0.9c-0.1,0.1-0.2,0.1-0.3,0.2l-1.8,1
	c-0.8,0.5-1.1,1.6-0.6,2.4C114.6,36.8,115.7,37,116.5,36.6L116.5,36.6z"/>
</svg>
