<svg id="Layer_1" data-name="Layer 1" xmlns="http://www.w3.org/2000/svg" viewBox="0 0 150.24 298.29"><defs><style>.cls-1{fill:#3b5b72;}.cls-2{fill:#2a4b62;}.cls-3{fill:#4d6d84;}.cls-4{fill:#bcdaef;}.cls-5{fill:#d6e5f3;}.cls-6{fill:#8cc5e5;}.cls-7{fill:#fff;}</style></defs><path class="cls-1" d="M150.22,250.12c0-1.07,0-2.15-.07-3.24,0-.9-.06-1.8-.1-2.7,0-.72-.06-1.44-.1-2.17-.08-1.72-.19-3.44-.3-5.17,0-.44-.05-.87-.09-1.3s-.08-1.11-.12-1.65c-.12-1.61-.25-3.23-.39-4.84,0-.43-.07-.87-.11-1.31l-.12-1.31-.12-1.31-.39-3.93q-.21-2-.42-3.9-.07-.69-.15-1.35c0-.41-.08-.83-.13-1.23l-.3-2.58-.54-4.5c-.08-.62-.15-1.22-.23-1.83-.43-3.45-.87-6.79-1.29-10-.24-1.79-.46-3.52-.69-5.21v0c-.67-5.06-1.27-9.65-1.72-13.54V173.2c0-2.5-.11-5-.27-7.49a2.28,2.28,0,0,1,0-.26l-.09-1.38c0-.46-.06-.93-.1-1.41a.41.41,0,0,0,0-.11c-.19-2.07-.41-4.12-.7-6.18-.46-3.29-1-6.58-1.77-9.84a1,1,0,0,0,0-.14c-.48-2.2-1-4.37-1.62-6.54,0-2.1,0-4.22,0-6.32a625.92,625.92,0,0,0-3.92-69.92l-.23-2.13c-.57-4.71-1.11-8.75-1.57-12s-.84-5.72-1.11-7.29c0-.35-.1-.7-.17-1.06v-1a173.23,173.23,0,0,0-22.92-18.59c-1-.74-2.1-1.46-3.16-2.16l-.17-.11-1.69-1.09-1.62-1A102,102,0,0,0,81.16,7.83l-1.32-.36c-11.49-3.19-23.1-2.61-32.5,5.63q-.51.45-1,.93l-.24.23-.11.11c-.67.67-1.34,1.37-2,2.12-.45.52-.9,1.07-1.33,1.63l-.6.81c-.71,1-1.39,2-2,3-.31.51-.62,1-.92,1.57-.11.2-.23.39-.32.59s-.36.66-.53,1c-.27.53-.53,1.08-.79,1.61a.51.51,0,0,0-.07.17c-.84,1.77-1.6,3.57-2.32,5.38-.24.62-.47,1.23-.7,1.85-.44,1.22-.86,2.46-1.25,3.7v0c-.2.62-.39,1.25-.58,1.88-.83,2.78-1.62,5.72-2.32,8.76-.27,1.13-.53,2.27-.77,3.43-.64,3-1.23,6.13-1.77,9.33-.19,1.18-.38,2.37-.56,3.57V65c0,.23-.07.46-.1.69v0c-5.11,33.9-4.88,75.74-3.92,103.29l-7.65,24.27-.37,1.19,0,.06c-1.12,3.13-2.22,6.31-3.28,9.51-.6,1.79-1.19,3.6-1.75,5.39-.46,1.43-.9,2.87-1.34,4.31-.64,2.16-1.28,4.31-1.89,6.46C2.8,234.53,0,248.4,0,259.45,0,268,1.7,274.88,5.75,278.92c23.1,23.18,116.14,23.56,134.69,11a13.92,13.92,0,0,0,2.37-2.1l0,0a19.15,19.15,0,0,0,2-2.7c.4-.69.77-1.43,1.13-2.21.1-.21.2-.43.29-.64s.17-.44.26-.66l.07-.16.24-.67c.11-.29.21-.58.31-.88a52.4,52.4,0,0,0,1.73-7c.13-.73.24-1.47.35-2.23.23-1.63.43-3.33.58-5.09.11-1.27.2-2.58.28-3.91,0-.79.07-1.59.11-2.4s0-1.86.07-2.8c0-.57,0-1.14,0-1.72C150.25,253.2,150.24,251.67,150.22,250.12Zm-69.73-113v0l.09-.25c.54-1.55,1.11-3,1.66-4.49,4.68-.8,9.13-1.25,13.09-1.56h.18a39.78,39.78,0,0,1,13.53,2.8,16.24,16.24,0,0,1,8.51,7.73c3,6.14,5.46,2.1,7.88,3.87a51.32,51.32,0,0,0,2.27,6.82,22.47,22.47,0,0,1-6.64,2.39,74.06,74.06,0,0,1-10.13,1.68C96.6,157.47,78.79,154.87,80.49,137.17Z"/><path class="cls-1" d="M145.93,282.9a24.06,24.06,0,0,1-1.14,2.21,17.42,17.42,0,0,1-2,2.8l0,0a14.12,14.12,0,0,1-2.43,2.14C121.83,302.61,28.81,302.21,5.71,279-3,270.31-.67,248.5,5.56,224.77c.4-1.5.82-3,1.25-4.53Q7.7,217,8.7,213.78c.43-1.44.87-2.87,1.34-4.31.56-1.79,1.15-3.6,1.75-5.39.74-2.21,1.51-4.41,2.28-6.59.34-1,.66-1.94,1-2.9v-.23l.38-1,.27-.75c2.5-6.92,5.07-13.61,7.49-19.65l0-.09c1.58-4,3.11-7.7,4.55-11.09.05-.1.09-.21.14-.32,2.56-6.06,4.79-11.08,6.38-14.59s2.52-5.49,2.52-5.49c2.34-.78,4.7-1.54,7.08-2.24q9.06-2.73,18.35-4.67Q72,132.36,82,131.17h.24l.54,0a91.66,91.66,0,0,1,12.51-.29h.09c-4,.3-8.41.76-13.09,1.56-.55,1.45-1.12,2.94-1.67,4.49a2.41,2.41,0,0,1-.08.25v0c-1.7,17.69,16.11,20.3,30.44,19a73.67,73.67,0,0,0,10.12-1.68,22.18,22.18,0,0,0,6.65-2.4,49.35,49.35,0,0,1-2.27-6.81c.88.66,1.74,2.05,2.6,4.94l0,.13A87.79,87.79,0,0,1,130,159q.3,1.74.51,3.48l.34,8.09,0,1,.08,1.76.26,5.39,1.17,23.58.35,7.39v.15c0,.66.24,1,.39,1,.67,0,1.93-4.82,3.33-10.87,1.07-4.42,2.16-9.48,3.15-13.81a74.68,74.68,0,0,1,2.49-9.34c.15-.37.28-.58.4-.64s.24,0,.33.27v1a.17.17,0,0,0,0,.07c.38,3.49.9,7.51,1.5,12C148.22,218.33,154.5,263.69,145.93,282.9Z"/><path class="cls-1" d="M134.05,64.29h0c0-.23-.05-.47-.08-.71l-.24-2.13c-.06-.59-.13-1.18-.2-1.75s-.14-1.13-.21-1.68l0-.28c-.28-2.25-.56-4.32-.83-6.16-.05-.32-.09-.63-.13-.93-.07-.6-.16-1.18-.24-1.74a.14.14,0,0,1,0-.09c-.19-1.31-.36-2.48-.53-3.49-.11-.73-.21-1.4-.31-2s-.13-.82-.19-1.17v0a2.68,2.68,0,0,1-.16-1.06v-1c-.89-.87-1.78-1.72-2.69-2.55s-1.59-1.47-2.41-2.21c-.44-.4-.87-.78-1.31-1.16s-1-.9-1.55-1.36c-.21-.17-.42-.36-.63-.54-.78-.65-1.55-1.3-2.34-1.94l-.34-.29c-.64-.52-1.27-1-1.91-1.53s-1-.79-1.49-1.16c-.78-.63-1.58-1.23-2.38-1.83s-1.86-1.37-2.79-2-2-1.42-3-2.13h0c-.52-.37-1-.73-1.55-1.08l-1.3-.89-.17-.11-1.69-1.09-1.62-1a101.35,101.35,0,0,0-11.5-6c-.78-.34-1.56-.68-2.35-1s-1.67-.67-2.52-1L84.72,9c-1.19-.45-2.38-.87-3.58-1.27l-1.32-.36c-.9-.25-1.81-.47-2.71-.67-1.3-.3-2.59-.54-3.88-.71C64,4.69,54.93,6.37,47.34,13.1q-.51.45-1,.93l-.24.23-.11.11c-.2.2-.42.4-.62.61-.47.47-.93,1-1.37,1.51s-.9,1.07-1.33,1.63l-.62.81c-.19.26-.35.53-.53.79l-.8,1.17-.57.89-.09.15c-.31.51-.62,1-.92,1.57-.11.2-.23.39-.32.59s-.36.66-.53,1c-.27.53-.53,1.08-.79,1.61a.51.51,0,0,0-.07.17c-.84,1.77-1.6,3.57-2.32,5.38-.24.62-.47,1.23-.7,1.85-.44,1.22-.86,2.46-1.25,3.7v0c-.19.62-.38,1.24-.56,1.86-.83,2.78-1.62,5.72-2.31,8.76-.26,1.15-.52,2.32-.76,3.51-.64,3-1.24,6.12-1.78,9.31q-.3,1.74-.57,3.51V65l-.12.8h0c-5.09,33.93-4.85,75.77-3.9,103.2.09,1.26.13,2.52.13,3.8v.1c.59,15.56,1.4,25.64,1.4,25.64a257.2,257.2,0,0,0,36.81,30.77c2.66,1.81,5.33,3.52,8.08,5.15A87.77,87.77,0,0,0,93,244.66l.34.08a42.11,42.11,0,0,0,9.29,1.15,24.91,24.91,0,0,0,16.07-5.33l.18-.14a31.42,31.42,0,0,0,8-10.41,53.21,53.21,0,0,0,3.37-8.85,80.26,80.26,0,0,0,2.44-11.25,1,1,0,0,0,0-.17,7.07,7.07,0,0,0,.16-1.11q1-6.72,1.79-13.35c.55-4.77,1-9.51,1.47-14.19,1.19-14.05,1.76-27.74,1.92-40.73,0-.22,0-.44,0-.66A618.81,618.81,0,0,0,134.05,64.29Zm-13,90.15a74.06,74.06,0,0,1-10.13,1.68c-14.33,1.35-32.14-1.25-30.44-19v0l.09-.25c.54-1.55,1.11-3,1.66-4.49,4.68-.8,9.13-1.25,13.09-1.56h.18a39.78,39.78,0,0,1,13.53,2.8,16.24,16.24,0,0,1,8.51,7.73c3,6.14,5.46,2.1,7.88,3.87a51.32,51.32,0,0,0,2.27,6.82A22.47,22.47,0,0,1,121.06,154.44Z"/><path class="cls-2" d="M142.82,287.93l-7-53.52,6.68-58.23.34-3.09V177C146.09,205.31,157.75,271,142.82,287.93Z"/><polygon class="cls-2" points="41.14 156.08 50.86 96.87 65.7 145.68 55.03 163.88 41.14 156.08"/><path class="cls-3" d="M142.82,176.84V177c0,.14,0,.3,0,.45a271.1,271.1,0,0,1-7,57,0,0,0,0,0,0,0c-2.36,1.76-8.51,4-17,6.06l-.13,0a184.46,184.46,0,0,1-25.36,4.18l-.38,0c-37.27,3.49-83.84-3.38-77.85-50.1l.67-2.11L23.13,169a61.85,61.85,0,0,1,4.68-7.29l.21-.28a64.06,64.06,0,0,1,14.52-13.91,83.16,83.16,0,0,1,20.59-10.33,117.09,117.09,0,0,1,18.53-4.73l.13,0,.45-.07c-.55,1.45-1.12,2.94-1.67,4.49a2.41,2.41,0,0,1-.08.25v0c-1.7,17.69,16.11,20.3,30.44,19a73.67,73.67,0,0,0,10.12-1.68,22.18,22.18,0,0,0,6.65-2.4,49.35,49.35,0,0,1-2.27-6.81c-2.42-1.77-4.92,2.27-7.88-3.87a16.28,16.28,0,0,0-8.51-7.73,39.82,39.82,0,0,0-13.53-2.8c3.22-.25,6.46-.37,9.7-.37s6.58.12,9.88.38a66.81,66.81,0,0,1,9.13,2.24c1,.32,1.94.66,2.9,1l2,.83,1.13.49.65.32c.47.24.92.44,1.35.67l.35.18a38.91,38.91,0,0,1,5.3,3.27l.18.51c.7,2,1.29,4,1.8,6a.57.57,0,0,1,0,.14,100.72,100.72,0,0,1,2.47,16,.41.41,0,0,1,0,.11c.31,4,.41,7.64.44,10.57C142.82,174.6,142.82,175.81,142.82,176.84Z"/><path class="cls-3" d="M134.14,63.48c0,.27,0,.54-.09.8h0a9.67,9.67,0,0,1-.28,1.32,15.91,15.91,0,0,1-1.88,4.17,37.7,37.7,0,0,1-7,8c-1.5,1.34-3.24,2.76-5.25,4.25a27.1,27.1,0,0,1-10.15,4A93.25,93.25,0,0,1,88,87.67a160.09,160.09,0,0,1-20.6-1.92,121.49,121.49,0,0,1-24.81-6.37c-7-2.75-12.22-6.08-14.44-9.83A7.47,7.47,0,0,1,27,65.83h0a.06.06,0,0,1,0-.06v0h0A4,4,0,0,1,27,65v-.26c.19-1.23.39-2.44.59-3.65.54-3.19,1.15-6.3,1.78-9.31.24-1.15.49-2.28.74-3.39.35-1.62.76-3.22,1.19-4.77s.74-2.68,1.12-4a87.49,87.49,0,0,1,4.95-12.8.51.51,0,0,1,.07-.17c.26-.53.52-1.07.79-1.6s.55-1.07.85-1.59.61-1.06.92-1.57c.63-1,1.31-2,2-3l.6-.81c.43-.56.88-1.11,1.33-1.63s.9-1,1.37-1.51A29.39,29.39,0,0,1,64.62,5.71h.08c.53,0,1.07-.08,1.61-.09h.14l1.56,0h.22c.5,0,1,0,1.51,0l.32,0,1.42.11L73.23,6c1.29.17,2.58.41,3.88.71.9.2,1.81.42,2.71.67l1.34.38c1.19.4,2.37.81,3.56,1.25l.6.24q1.28.48,2.52,1c.79.32,1.57.66,2.35,1,1,.46,2,.94,3.07,1.43l1.71.86,1.33.68c.63.33,1.25.68,1.88,1l1.08.6,2,1.18.42.25,1.62,1L105,19.32l1.47,1c.52.35,1,.71,1.55,1.08h0c1,.71,2,1.41,3,2.13s1.86,1.35,2.79,2,1.6,1.2,2.38,1.83c.5.37,1,.76,1.49,1.16s1.27,1,1.91,1.53l.34.29c.79.64,1.56,1.29,2.34,1.94.21.18.42.37.63.54.52.46,1,.9,1.55,1.36s.87.76,1.31,1.16c.82.74,1.61,1.47,2.41,2.21s1.78,1.69,2.67,2.55a1.77,1.77,0,0,1,0,.46.45.45,0,0,1,0,.23v.26a2.46,2.46,0,0,0,.18,1.08c.06.35.12.74.19,1.17.11.72.24,1.55.39,2.56s.28,1.84.45,2.91a.14.14,0,0,0,0,.09q.12.84.24,1.74c0,.3.08.61.13.93.26,1.84.54,3.91.83,6.16l0,.28c.07.55.15,1.1.21,1.68s.15,1.16.22,1.75Z"/><path class="cls-1" d="M130.92,173.38a4.19,4.19,0,0,1-.62.57,4.81,4.81,0,0,1-.87.53c-7.21,5-43.46,4.81-52.46-4.31-4.81-4.86-1-19.94,3.52-33-1.7,17.69,16.11,20.3,30.44,19a73.67,73.67,0,0,0,10.12-1.68,22.18,22.18,0,0,0,6.65-2.4,49.35,49.35,0,0,1-2.27-6.81c-2.42-1.77-4.92,2.27-7.88-3.87a16.28,16.28,0,0,0-8.51-7.73,39.82,39.82,0,0,0-13.53-2.8h-.18c-4,.3-8.41.76-13.09,1.56l.49-1.29c.36-.92.7-1.82,1-2.73.57-1.46,36-11.9,43.85-11.9a2.59,2.59,0,0,1,1.39.25.41.41,0,0,1,.14.19.07.07,0,0,1,0,0c.2,1.81.59,4.34,1.08,7.33.58,3.53,1.29,7.69,2,12.1C134.39,150.94,136.08,168.09,130.92,173.38Z"/><path class="cls-2" d="M130.92,173.38a4.19,4.19,0,0,1-.62.57,28.56,28.56,0,0,0,.5-3.34A35.9,35.9,0,0,0,130,159a46.52,46.52,0,0,0-2.25-7,49.35,49.35,0,0,1-2.27-6.81,37.82,37.82,0,0,1-1.21-12.15,22,22,0,0,1,1.87-7.94l2.93-8.41a.41.41,0,0,1,.14.19.07.07,0,0,1,0,0c.2,1.81.59,4.34,1.08,7.33.58,3.53,1.29,7.69,2,12.1C134.39,150.94,136.08,168.09,130.92,173.38Z"/><path class="cls-3" d="M127.7,152a22.18,22.18,0,0,1-6.65,2.4,73.67,73.67,0,0,1-10.12,1.68c-14.33,1.35-32.14-1.26-30.44-19v0a2.41,2.41,0,0,0,.08-.25c.55-1.55,1.12-3,1.67-4.49,4.68-.8,9.13-1.26,13.09-1.56h.18a39.82,39.82,0,0,1,13.53,2.8,16.28,16.28,0,0,1,8.51,7.73c3,6.14,5.46,2.1,7.88,3.87A49.35,49.35,0,0,0,127.7,152Z"/><path class="cls-3" d="M130.21,135.41a117,117,0,0,1-2.15,14.89c-.11.57-.23,1.16-.36,1.74a49.35,49.35,0,0,1-2.27-6.81c-2.42-1.77-4.92,2.27-7.88-3.87a16.28,16.28,0,0,0-8.51-7.73,39.82,39.82,0,0,0-13.53-2.8h-.18c-4,.3-8.41.76-13.09,1.56-.55,1.45-1.12,2.94-1.67,4.49a2.41,2.41,0,0,1-.08.25l.08-.77,1.22-3.9.4-1.31,1.53-4.92a22.38,22.38,0,0,1,1.94-3c6.77-9.06,18.53-11.58,26.29-12.06,1.29-.1,2.57-.15,3.86-.15s2.57,0,3.85.15a21.1,21.1,0,0,1,8.93,3.53c.2.69.39,1.41.57,2.19a.07.07,0,0,1,0,0,49.83,49.83,0,0,1,1.08,7.33A73.72,73.72,0,0,1,130.21,135.41Z"/><path class="cls-1" d="M133.45,73.37c-.61,4.28-5.86,8.32-10.76,3.18-2.77-2.41-3.46-9.46-6.22-2.41-1.29,3.27-3.22,6-5,9.16a17.22,17.22,0,0,1-2,2.79C103.76,92.58,94.6,92.47,88,87.67a19,19,0,0,1-4.49-4.59c-1.85-2.7-3.46-7-7.43-5.76-3.1,1-5,4.72-7.13,7a17.79,17.79,0,0,1-1.55,1.47c-4,3.44-9,4.68-14.12,2.28-4.07-1.87-7.53-5.15-10.69-8.65-2.06-2.3-4-4.7-5.83-6.86q-4.7-5.51-9-11.27l0,0-.06-.08c.54-3.19,1.15-6.3,1.78-9.31l.05.06a.21.21,0,0,0,0,.06c3.82,5.39,7.87,10.63,12.16,15.66,4,4.62,9.48,13,15.69,14.6,4.7,1.19,8.08-4.27,11.49-8a3.68,3.68,0,0,1-.19-4.85c5.69-7,15.91-4.3,19.06,3.49a3.06,3.06,0,0,1-.66,3.08c2,3,3.69,6.35,7.2,7.76a8.86,8.86,0,0,0,9.12-1.39c2.88-2.42,3.11-5.86,4-9.25,1.26-4.71,4.94-12.4,10.32-13,2.25-.23,3.67,3.35,5.33,4.9,1.26,1.19,4,4.7,3.71,6.53.41-2.82,3.28-3.07,5.15-1.74A3.67,3.67,0,0,1,133.45,73.37Z"/><path class="cls-1" d="M127.92,127.68a9.5,9.5,0,0,1-4.71,7.38,4,4,0,0,0-3.07,1.51,3.71,3.71,0,0,0-.57,4.71c-.48,3.41-4.31,5.24-7.74,4.49a9.82,9.82,0,0,1-6-4.47c.41-.31.82-.61,1.22-1,3.4-2.91-1.53-7.81-4.91-4.91a17.44,17.44,0,0,1-1.83,1.34,3.49,3.49,0,0,0-2,1.12c-6.07,2.7-13,.92-17.64-4.47-2.92-3.39-7.82,1.54-4.91,4.92a21.5,21.5,0,0,0,24.14,6.25c3.29,5.19,8.51,8.85,15.16,8.22a12.46,12.46,0,0,0,11.39-11.65,16.76,16.76,0,0,0,8.44-13.49C135.21,123.22,128.25,123.24,127.92,127.68Z"/><path class="cls-1" d="M127.51,233c-9,1-16.12-6.42-13.7-15.43a3.2,3.2,0,0,0-1.43-3.7,17.82,17.82,0,0,0,2.53-7.27c.29-3.84-.62-6.78,1.73-10.22,2.1-3,5.46-5.26,8.47-7.29,3.7-2.48.22-8.5-3.5-6-5.31,3.57-11.23,7.82-13.14,14.27-1.06,3.6.11,7.37-.93,10.91-.92,3.15-3.18,5.9-4.45,8.91A13.66,13.66,0,0,0,106,232.72c5,5.05,18,7.05,17.94,15.45,0,4.48,6.91,4.48,7,0a13.87,13.87,0,0,0-2.72-8.36C131.89,238.72,131.71,232.53,127.51,233Z"/><path class="cls-1" d="M87.07,202.21a12,12,0,0,0,2.26-9.33c-1-6.27-5-12.13-8.26-17.39a158.62,158.62,0,0,0-12.63-17.2c-2.87-3.44-7.76,1.5-4.91,4.91A146.48,146.48,0,0,1,76.93,182c.91,1.53,1.9,3.11,2.8,4.74a3.85,3.85,0,0,0-1.45,2.8,11.82,11.82,0,0,1-2.75,6.69,4.06,4.06,0,0,0-.85,1.63c-3.12-3-7.89,1.81-4.82,5a11.16,11.16,0,0,0,11.5,3.29A89.76,89.76,0,0,1,93,223.51c2.08,4.05,11,21.64,1,22.12-4.45.21-4.48,7.17,0,7,12.12-.59,12.69-13.81,9.42-22.61A94.78,94.78,0,0,0,87.07,202.21Z"/><path class="cls-4" d="M95.14,237.9l-1.78,7.66H83.6l-10.77-.24L62.3,250.51s-21.76-1-22.11-5.19-8.33-4.41-8.33-4.41l-8.93-5-2.81-7.09-1.7-8.07L12.6,206.39l-1-18.38s9.44-16.65,11.31-19l8.23-20.94,14.89-1.48,15.23,6.62,6,10.65,7.83,13.87,2.76,7.08,2.69,6.88-7.75,5.5,7.5,9.89,13,19.49Z"/><polygon class="cls-4" points="86.08 119.07 81.45 127.35 84.38 135.63 104.03 135.63 113.3 145.34 124.14 134.23 134.14 125.74 130.88 119.07 130.44 107.86 117.7 103.91 105.46 105.95 96.7 107.86 90.48 110.14 86.08 119.07"/><path class="cls-4" d="M134.32,60.69l-3.2,7-7-1.1-6.36-8.8-3.58,1.93L104,78.33l-8.9,2.87L88,72.42,74.73,62.61l-9,12.85-8.2,4.09L41.14,69.67,35.5,61.39l-6.2-9.07,2.37-13.87s0,0,0,0l.14-.84,7.81-7.22,3.85-16.25L48,8.76l2-2.38,2.25-.62L65.58,2.12l.12,0,.13,0L75.82,5h0l4.74,1.36,23.33,5.56,3.43.82,16.8,8.71,6.1,11.84,3.9,7.58Z"/><polygon class="cls-4" points="146.77 209.02 141.33 225.37 140.23 235.9 138.07 245.9 132.38 245.56 128.33 237.84 125.79 236 118.17 230.51 110.8 222.61 113.3 214.85 113.3 214.84 115.76 206.27 113.93 193.44 121.81 187.58 130.44 181.63 142.09 179.58 146.66 187.15 146.77 209.02"/><path class="cls-5" d="M73.54,25.29A15.93,15.93,0,0,1,65,25c-2-.51-3.8-1.49-5.58.16s-2.22,5-3.88,7a12,12,0,0,1-4.34,3.37C56,43.64,52.81,57.13,43.7,60.89a12.44,12.44,0,0,1-8.2.5,11.11,11.11,0,0,1-7.79-7.55,14.33,14.33,0,0,1,.76-9.31c.7-1.8,2.64-4.09,3.2-6.08,0,0,0,0,0,0a3.78,3.78,0,0,0,.14-.84l7.81-7.22,3.85-16.25L48,8.76a31,31,0,0,1,4.28-3A26,26,0,0,1,65.58,2.12h.25a22.69,22.69,0,0,1,4.74.59A15.16,15.16,0,0,1,75.82,5h0A12.28,12.28,0,0,1,81,12.75,10.74,10.74,0,0,1,73.54,25.29Z"/><path class="cls-5" d="M130.24,33.31a16.19,16.19,0,0,1-.72,1.92c-4.22,9.1-14.16,6.25-21,2.16s-13.76-12-9.45-20.51a11,11,0,0,1,4.86-4.94l3.43.82,16.73,9.71Z"/><path class="cls-5" d="M97.48,62.6a14.38,14.38,0,0,0,2.86-2.36l.12-.11c3.41.57,6.91-.18,8.92-3.26a8.93,8.93,0,0,0,.37-9c-1.65-3-4.6-4.45-7.67-5.65a4.59,4.59,0,0,0-1.74-.3,5.32,5.32,0,0,0-4.74-.73c-5.95,2.18-12.12,5.9-12,13.1C83.74,61.12,91.32,66.1,97.48,62.6Z"/><path class="cls-5" d="M128.33,113.29a8.26,8.26,0,0,1-5.92,8c-4.27,1.3-8-1.83-12.07-1.07-3.69.7-5.83,4.48-10.08,4.71a9.37,9.37,0,0,1-1.5,0,8.56,8.56,0,0,1-.12,2.41c-.59,3.19-3.44,5.66-6.44,6.55a9.06,9.06,0,0,1-9-2.3,6.32,6.32,0,0,1-1.75-4.22,5.93,5.93,0,0,1,1.75-4.21l1.42-1.22c1.68-1.46,6.59-1.84,7-1.93-3.92-8.57,5.09-13.62,12.28-14.11a5.06,5.06,0,0,1,4.49,1.78,6.08,6.08,0,0,1,3.08-2.57C118.42,102.37,128.26,104.07,128.33,113.29Z"/><path class="cls-5" d="M30.63,151.8A13.59,13.59,0,0,0,22.92,169a6.56,6.56,0,0,0,.76,1.47c-.34.24-.63.44-.84.61a37.29,37.29,0,0,0-7.12,8.17c-4.22,6.52-6.86,15.45-4.8,23.15a16.38,16.38,0,0,0,1.68,4c1.34,6.9,9.6,11.62,17.07,7.89,5-2.5,7.8-7.46,8.83-12.8,1.11-5.75-.86-13.63,4.48-17.5,4.4-3.19,7.71-6.32,8.81-11.88a16.1,16.1,0,0,0-3.76-14A14.16,14.16,0,0,0,30.63,151.8Z"/><path class="cls-5" d="M77.89,184.82a7.71,7.71,0,0,1-.86.44,10.29,10.29,0,0,1-11.28-2.53c-3.16-3.21-3.6-7.85-3.41-12.12a6.18,6.18,0,0,1,4.22-5.69,5.71,5.71,0,0,1,.74-1l7.83,13.87Z"/><path class="cls-5" d="M38.61,214a9.26,9.26,0,0,0-8.18,1.74,5.16,5.16,0,0,0-1,.51c-5.26,3.49-6.48,11.38-1.77,16s12.27,3.48,16.14-1.53C48.26,224.92,45.87,216,38.61,214Z"/><path class="cls-5" d="M84,216.68a7.5,7.5,0,0,1-10,4.72c-2.76-1-5.23-3.23-7.33-5.25-2.32-2.22-4.64-4.8-5.25-8a7.94,7.94,0,0,1,3.48-8.28,4.92,4.92,0,0,1,3.84-1.4c.41,0,.81.1,1.21.17a7.43,7.43,0,0,1,1.4.3,16.6,16.6,0,0,1,11.3,8.65C84,210.32,84.94,213.64,84,216.68Z"/><path class="cls-5" d="M140.91,179.62A22.22,22.22,0,0,0,125,185.28a6.57,6.57,0,0,0-1,1.1,6,6,0,0,0-3.64,1.49c-4.33,3.69-8.26,8.77-6.65,14.83,1.58,5.89,8.07,9.94,13.82,6.84a11.14,11.14,0,0,0,5.17-6.37c.68-2,.25-5.37,1.83-6.46,2-1.37,5.19-1.32,7.37-2.69a10.37,10.37,0,0,0,4.8-6.86C147.32,183.22,145.06,179.85,140.91,179.62Z"/><path class="cls-5" d="M128.81,229.62a8.21,8.21,0,0,1-3,6.38l-7.62-5.49-7.37-7.9,2.5-7.75a5.36,5.36,0,0,1,1.77.2C121.35,216.89,128.81,222.39,128.81,229.62Z"/><path class="cls-6" d="M61.68,75.45l.16-.08a.65.65,0,0,0-.19.09Z"/><path class="cls-6" d="M63.22,74.23l.06-.09-.07.1Z"/><path class="cls-6" d="M32.39,64.83A61.31,61.31,0,0,0,45,77.19c3.42,2.5,7.51,5.09,11.85,5.43a16.39,16.39,0,0,0,6.92-1.09,11.37,11.37,0,0,0,5.5-4.75c1.68-2.62,2.8-5.56,4.6-8.11A7.63,7.63,0,0,1,75,67.37c.15-.15.31-.29.47-.43-.15.14.36-.26.5-.35s.16-.08.24-.13a2.67,2.67,0,0,0,.4-.13,2.36,2.36,0,0,0,.38,0l.36.1.38.21a12.74,12.74,0,0,1,3.22,2.83,11.85,11.85,0,0,1,1,1.43c.41.64.79,1.3,1.15,2,.67,1.23,1.27,2.5,2,3.71a16.59,16.59,0,0,0,7.51,7.17,11.9,11.9,0,0,0,9.06.17c7-2.76,10.5-9.83,13.43-16.32a39,39,0,0,1,2-4.09l.49-.77.22-.31.07-.07.33-.35c2,3.49,3.2,8,7.37,9.52,2.64,1,5.71-.14,7.86-1.74a12.51,12.51,0,0,0,4.74-7.58,40.85,40.85,0,0,0-.69-17.87,47.79,47.79,0,0,0-23.87-30.44,44.88,44.88,0,0,0-10.13-3.75c-4-1-8.14-1.54-12.14-2.6A77.64,77.64,0,0,1,80.82,3.43,39.51,39.51,0,0,0,69.55.27C63-.52,56.7.32,51.11,4.12a30.31,30.31,0,0,0-8.45,8.44,38.21,38.21,0,0,0-4,8.81c-.68,2-1.26,4.07-2,6.07-7.21,4.63-12.14,13.68-11.06,22.22C26.28,55.26,29,60.38,32.39,64.83ZM95.14,77.9h0C94.82,77.78,95,77.86,95.14,77.9ZM117.7,61.16Zm.08,1.36ZM35.47,37.28ZM32.53,43c.09-.32.19-.62.29-.93,0-.11.19-.52.24-.64s.22-.51.27-.61l.48-.94c.3-.55.63-1.08,1-1.61l.47-.69.22-.29v0a29.64,29.64,0,0,1,2.15-2.34,8.12,8.12,0,0,1,1.83-1.62c-.21.11-.42.34,0,.08a4.15,4.15,0,0,1,.34-.24l.55-.38.54-.34a2.94,2.94,0,0,0,1.52-2c1-2.27,1.6-4.66,2.37-7q.33-1,.69-2l.36-.93s.06-.16.1-.25l.16-.37a28,28,0,0,1,2.18-4,23.09,23.09,0,0,1,7-6.72,17.11,17.11,0,0,1,4-1.92,16.6,16.6,0,0,1,2-.51l.86-.16L63,6.44a36,36,0,0,1,7.57.41,39.22,39.22,0,0,1,9.77,3.37,59.83,59.83,0,0,0,10.91,4c3.88.92,7.84,1.47,11.7,2.49a38.12,38.12,0,0,1,15.29,8.12A41.83,41.83,0,0,1,128.84,39a34,34,0,0,1,1.51,3.85,42.44,42.44,0,0,1,1.23,4.45c.15.69.28,1.39.39,2.09l.09.52s0,.26,0,.33.08.71.1.93a37.48,37.48,0,0,1,.16,4.62c0,1.08-.06,2.16-.15,3.23l-.06.54-.06.43a14.52,14.52,0,0,1-.45,1.84q-.09.29-.21.57l-.2.42c-.13.24-.29.47-.43.71l-.06.09-.21.24A5.57,5.57,0,0,1,128,65.44l-.24,0-.2-.13-.1-.09-.38-.4,0,0h0c-.93-1.55-1.73-3.12-2.53-4.75a10.17,10.17,0,0,0-3.37-4.34c-2.39-1.51-4.94-.47-6.89,1.21-2.15,1.86-3.42,4.57-4.57,7.1a56.79,56.79,0,0,1-4.88,9.3,16.57,16.57,0,0,1-2.78,3l-.27.22-.25.18c-.26.17-.53.35-.8.51s-.55.29-.82.44l-.16.07-.33.13q-.42.14-.84.24c-.13,0-.64.11-.66.12l-.62,0-.71,0L96,78.17c-.27-.08-.53-.16-.8-.26l-.39-.2A11.14,11.14,0,0,1,93.68,77c-.3-.21-.08-.06,0,0-.14-.11-.27-.23-.4-.35s-.53-.5-.78-.77a11.14,11.14,0,0,1-1.27-1.63,39.68,39.68,0,0,1-1.94-3.49A25.47,25.47,0,0,0,84,63.34a11.78,11.78,0,0,0-6.67-3.44,8.74,8.74,0,0,0-6.45,2.51c-2.52,2.24-4,5.4-5.56,8.33a34.53,34.53,0,0,1-1.76,3.08l-.23.32s0,0-.06.09l-.1.14.09-.13-.12.13c-.13.15-.27.3-.41.44l-.37.3-.13.08-.34.18s0,0-.16.08l-.12.06.09-.05a.51.51,0,0,1-.1,0l-.77.23c-.5.13-1,.22-1.52.3l-.35,0c-.41,0-.82.09-1.23.11-.24,0-.49,0-.72,0s-.29,0-.43-.09a11,11,0,0,1-1.12-.33l-.55-.2-.09,0a37.44,37.44,0,0,1-5.49-3.17c-.46-.32-.91-.64-1.36-1l-.39-.29-.67-.53c-1-.83-2-1.68-3-2.57a55.72,55.72,0,0,1-5.47-5.82l-.52-.65L37.49,61c-.4-.54-.78-1.09-1.16-1.65-.73-1.09-1.41-2.21-2-3.37-.27-.52-.53-1-.78-1.58-.05-.1-.15-.35-.2-.44-.12-.3-.24-.6-.34-.9a22,22,0,0,1-.93-3.29c0-.06,0-.3-.08-.45s-.06-.56-.07-.64a16.65,16.65,0,0,1,0-1.73A13,13,0,0,1,32.53,43Z"/><path class="cls-6" d="M127.68,110.37c0-.07-.05-.13-.07-.2l0,0A1,1,0,0,0,127.68,110.37Z"/><path class="cls-6" d="M127.8,112c0-.18,0-.34,0,0Z"/><path class="cls-6" d="M108.79,144.78c2,1.51,4.49,2.39,6.9,1.41A13.56,13.56,0,0,0,122,140.3a24.5,24.5,0,0,0,1.85-3.78c5.29-1.74,10.62-4.91,12-10.71.58-2.5.29-4.87-1.75-6.59-.8-.68-1.68-1.21-2.53-1.83l-.07,0-.05,0-.06-.08c1.29-2.61,2.15-5.63,1.17-8.47s-3.31-4.5-6-5.57c-5.07-2.06-11.19-1.82-16.49-1a13,13,0,0,0-4.29,1.21c-5.17-.32-10.32.86-14.33,4.28a18.26,18.26,0,0,0-5.39,8.43c-.12.36-.22.73-.31,1.11-3,2.24-5.68,5-6.78,8.63a10.11,10.11,0,0,0,3.19,11c3.17,2.51,7.5,3.47,11.48,3.48a23.48,23.48,0,0,0,9.53-2A23.27,23.27,0,0,0,108.79,144.78Zm22.27-21.33h0l.07.06ZM103,132.62a17.92,17.92,0,0,1-15.32,1.44c-2-.78-3.77-2.17-4-4.45-.19-2.43,1.15-4.6,2.79-6.26a25.2,25.2,0,0,1,2.94-2.42,3,3,0,0,0,1.21-1.69c.13-.5.21-1,.36-1.49s.26-.79.4-1.18l.09-.23c.14-.27.26-.55.39-.83.25-.48.53-1,.82-1.42.15-.24.31-.46.47-.69l.17-.22.27-.33a14.28,14.28,0,0,1,1.46-1.45l.33-.28.06-.05.12-.08c.34-.24.69-.47,1.06-.68a9.28,9.28,0,0,1,1.71-.84,17.48,17.48,0,0,1,2.92-.78,21.21,21.21,0,0,1,2.76-.19c.59,0,1.17,0,1.76,0a6.15,6.15,0,0,0,.73.06,2.27,2.27,0,0,0,1.56-.63h0s0,0,.15,0l.4-.15a18.62,18.62,0,0,1,2.54-.57l.74-.11h0l.34,0c.65-.08,1.3-.13,1.95-.18,1.28-.08,2.55-.1,3.83-.06.65,0,1.3,0,2,.11l1,.1.65.11a18.88,18.88,0,0,1,2,.44c.34.1.68.2,1,.32l.4.15,0,0h0c.49.29,1,.59,1.5.86l.31.28c.2.2.66.92.27.24.12.21.25.42.38.61l0,.06a1.55,1.55,0,0,1,0-.15,1.27,1.27,0,0,0,.06.18,1.19,1.19,0,0,1,.07.2s0,0,0,0c.07.27.11,1.15.12.36,0,.3,0,.61,0,.91,0,.14,0,.29,0,.43V112a.9.9,0,0,1,0,.18c-.09.39-.18.78-.31,1.17,0,.17-.12.34-.18.51s-.05.16-.06.2l-.08.15c-.17.39-.37.76-.57,1.13a1.82,1.82,0,0,0-.39.87s0,.07,0,.12a2.25,2.25,0,0,0-.06.63c-.07,2,1,3.51,2.68,4.77.56.42,1.18.78,1.73,1.21,0,0,.26.27.45.46h0c-.1-.09-.06,0,0,0-.09.45-.06.93-.19,1.39a5.86,5.86,0,0,1-.61,1.46,9,9,0,0,1-2.3,2.66,14.79,14.79,0,0,1-3,1.75c-1.29.59-2.73.82-4,1.41s-1.56,1.92-2,3.13l-.34.76c-.17.34-.34.68-.52,1a18.28,18.28,0,0,1-1.31,2.06,9.81,9.81,0,0,1-1.7,1.71c-.23.16-.93.57-.92.57l-.31.1-.21,0h0a4.21,4.21,0,0,1-.48-.12H113l-.43-.23a6.14,6.14,0,0,1-1.66-1.34,24,24,0,0,1-4.35-6.23A2.61,2.61,0,0,0,103,132.62Z"/><path class="cls-6" d="M147.9,185.56c-.43-3-1.49-6-4-7.81-3-2.09-6.65-1.28-9.77-.06a68.14,68.14,0,0,0-10.49,5.18,32.37,32.37,0,0,0-8.32,6.66,12,12,0,0,0-2.89,10,47.06,47.06,0,0,0,1.33,4.74c.36,1.29.63,2.37,0,3.48-3.52,4.17-6.23,9.68-4.31,15.2,2,5.91,8,7.76,12.54,11.33a20,20,0,0,1,5.44,6.83c1.45,2.95,1.7,6.45,4.64,8.45,3.14,2.14,6.83.54,8.47-2.6a21.52,21.52,0,0,0,2-9.56c0-2.5-.42-5-.24-7.5a6.6,6.6,0,0,1,.8-2.42c.84-1.74,1.59-3.54,2.29-5.35a56.47,56.47,0,0,0,3.79-18.43A98.89,98.89,0,0,0,147.9,185.56Zm-5.68,29.5a58.33,58.33,0,0,1-3,8.46c-1.07,2.39-2.08,4.39-2.15,7-.06,2.28.29,4.53.28,6.8A19.45,19.45,0,0,1,137,241a9.6,9.6,0,0,1-1.35,3.91c-.35.45-.45.61-.95.19-1-.78-1.18-2.37-1.57-3.49a25.06,25.06,0,0,0-4.24-7.67A26.9,26.9,0,0,0,122,228.1c-2.26-1.41-4.81-2.66-6.56-4.73s-1.86-5-.92-7.57a16.24,16.24,0,0,1,3.1-4.82,2.92,2.92,0,0,0,.21-.28,2.2,2.2,0,0,0,.2-.23c1.66-2.41,1.32-5.31.54-8-.66-2.27-1.75-4.59-1-7s2.76-4.13,4.62-5.56a53.42,53.42,0,0,1,7.42-4.61,39.78,39.78,0,0,1,8.25-3.54c2.31-.59,3.72.14,4.42,2.38a36.91,36.91,0,0,1,1.14,7.63c.26,2.69.46,5.39.52,8.09A53.13,53.13,0,0,1,142.22,215.06Z"/><path class="cls-6" d="M96.74,232c-.72-1.77-1.24-3.61-1.94-5.4a64.94,64.94,0,0,0-5.34-10.68,84.12,84.12,0,0,0-13.62-16.71A8.84,8.84,0,0,0,80.3,197c3.88-3.55,2-8.92.4-13.09a102.87,102.87,0,0,0-13.35-24.82c-5-6.86-11.55-14.57-20.49-15.94-8.69-1.33-16.74,3.9-21.25,11.08a83.85,83.85,0,0,0-7.25,15.85A40,40,0,0,0,10.68,212a41.61,41.61,0,0,0,6,10.17A20.13,20.13,0,0,0,21.4,237a20.85,20.85,0,0,0,13.53,6.75c6.53,5.79,14.45,10.53,23.43,10.45a21.76,21.76,0,0,0,12.46-3.84c1.6-1.17,3.13-2.75,5-3.54a7.09,7.09,0,0,1,4.89.06c3.72,1,7.56,3,11.48,1.68,4.15-1.37,6.52-5.74,6.38-10A19.15,19.15,0,0,0,96.74,232ZM92.2,242.55c-1.3,1.58-3.21,1.41-5,1-2.32-.6-4.52-1.61-6.88-2A11.29,11.29,0,0,0,72.12,243c-2.28,1.44-4.15,3.37-6.62,4.55A17.24,17.24,0,0,1,58.17,249c-5.57,0-10.74-2.31-15.23-5.45-1.08-.76-2.11-1.56-3.12-2.4-1.16-1-2.27-2.42-3.86-2.56-.24,0-.49,0-.74,0l-.27,0c-.41-.09-.83-.15-1.24-.24A15,15,0,0,1,23.45,231a13.44,13.44,0,0,1-1.14-3,12.87,12.87,0,0,1-.48-2.85,18.61,18.61,0,0,1,0-2.24c0-.25.08-1,.08-1.12s0,.07,0,.15c.09-1.33-.46-2-1.33-3.09a32.84,32.84,0,0,1-2.34-3.3,35,35,0,0,1-4.93-23.43A36.14,36.14,0,0,1,19.38,177c1.18-1.66,3.07-3.14,3.8-5,.43-1.12.85-2.26,1.31-3.38,3-7.56,6.83-17.09,15.58-19.84C51,145.28,59.6,156.8,64.9,164.58a101.72,101.72,0,0,1,8.7,15.52,87.07,87.07,0,0,1,3.21,8.26c.64,1.95,1.36,4.47-1,5.54s-5.27-.11-7.57-.91a2.17,2.17,0,0,0-2.67.86,2.57,2.57,0,0,0,.16,3.45,79.67,79.67,0,0,1,21.55,25.28,52.86,52.86,0,0,1,2.86,6.33c.86,2.39,1.83,4.77,2.65,7.16C93.54,238.18,93.72,240.71,92.2,242.55Z"/><path class="cls-6" d="M73.61,226.51A13.37,13.37,0,0,1,70,230.75a5.93,5.93,0,0,1-5.3.78,28,28,0,0,1-5.14-3.17l-4.92-3.25a2,2,0,0,1-1.12-2.32,2,2,0,0,1,2.44-1.39l.09,0a1.32,1.32,0,0,1,.38.13,34.82,34.82,0,0,0,15.48,2C73.41,223.36,74.34,225.31,73.61,226.51Z"/><path class="cls-6" d="M65.35,31.93l8.07,6c2.43,1.82,4.87,4.11,7.73,5.22a8.62,8.62,0,0,0,8-1.21c2.52-1.77,4.11-4.39,5.6-7A2,2,0,0,0,92.49,32a27.55,27.55,0,0,1-24.65-3.73,1.87,1.87,0,0,0-2,0,2.15,2.15,0,0,0-1.19.91A2,2,0,0,0,65.35,31.93Z"/><path class="cls-6" d="M136.93,224a2.85,2.85,0,0,1-3.43,1.17,4.83,4.83,0,0,1-2.3-2.12l-.19-.25s0,0,0-.1a.24.24,0,0,1-.06-.09h0l-.1-.12c-.22-.25-.45-.49-.68-.71l-.44-.4-.08-.07h0a.05.05,0,0,0,0,0l0-.05a.24.24,0,0,0-.11-.06c-.18-.13-.35-.26-.53-.37a10.21,10.21,0,0,0-1-.53l-.15-.07h0c-.08,0-.33-.13-.39-.15a1.94,1.94,0,0,1-1.27-1.14,2.11,2.11,0,0,1-.12-1.3,1.84,1.84,0,0,1,.75-1.07,1.89,1.89,0,0,1,1.69-.32,32.63,32.63,0,0,1,4.78,1.47,8.07,8.07,0,0,1,3.67,3A3.27,3.27,0,0,1,136.93,224Z"/><path class="cls-6" d="M131,222.81s-.07-.06-.13-.2h0A.93.93,0,0,0,131,222.81Z"/><path class="cls-7" d="M41.52,50.65c-.12-.2-.25-.4-.36-.61s-.11-.23-.18-.35c-.16-.32.08.08.06.16,0-.12-.19-.51-.24-.66s-.13-.45-.18-.68-.06-.26-.08-.39-.06-.45,0,0,0,0,0-.14,0-.21,0-.32a14.82,14.82,0,0,1,0-1.49c0-.33-.08.51,0,.19,0-.13,0-.26.07-.39s.1-.47.16-.69.13-.46.21-.68a1.15,1.15,0,0,0,.11-.29c0,.2-.2.44,0,.08a8.73,8.73,0,0,1,.7-1.22c0-.09.12-.17.18-.26.17-.25-.35.4,0,.07s.35-.39.54-.58a2.48,2.48,0,1,0-3.51-3.51,11.74,11.74,0,0,0-1.63,14.32,2.48,2.48,0,1,0,4.28-2.51Z"/><path class="cls-7" d="M52,28.12c-.1.72,0-.21.07-.39s.13-.58.2-.87a15.8,15.8,0,0,1,.51-1.61,1.51,1.51,0,0,0,.16-.41c0,.11-.19.42,0,.1s.25-.54.38-.81c.28-.52.58-1,.9-1.53.15-.23.3-.44.46-.66s.13-.24,0,0a2.39,2.39,0,0,1,.28-.35c.36-.43.75-.84,1.15-1.24l.66-.6.34-.28.14-.12-.15.12c.15,0,.52-.37.65-.46s.55-.36.83-.52A2.49,2.49,0,0,0,56,14.21a18.57,18.57,0,0,0-9,13.91,2.49,2.49,0,0,0,2.48,2.49A2.57,2.57,0,0,0,52,28.12Z"/><path class="cls-7" d="M64.79,16.09H66.4a1.78,1.78,0,0,0,1-.21,2.19,2.19,0,0,0,1.31-1.31,1.78,1.78,0,0,0,.21-1L68.79,13a2.45,2.45,0,0,0-.63-1.09l-.51-.39a2.37,2.37,0,0,0-1.25-.34H64.79a2,2,0,0,0-1,.21,1.82,1.82,0,0,0-.8.52,1.83,1.83,0,0,0-.51.8,1.82,1.82,0,0,0-.22.95l.09.66a2.5,2.5,0,0,0,.64,1.1l.5.39a2.52,2.52,0,0,0,1.26.33Z"/><path class="cls-7" d="M91.86,52.91a5.81,5.81,0,0,1,0-.72l-.09.66a6.72,6.72,0,0,1,.45-1.65l-.25.59a7.19,7.19,0,0,1,.92-1.56l-.39.5a7.05,7.05,0,0,1,1.28-1.28l-.5.39a6.8,6.8,0,0,1,1.4-.83l-.59.25a6.46,6.46,0,0,1,.94-.31,2.48,2.48,0,1,0-1.32-4.79,9.36,9.36,0,0,0-6.87,8.75,2.51,2.51,0,0,0,2.48,2.49,2.54,2.54,0,0,0,2.49-2.49Z"/><path class="cls-7" d="M103.17,50.71l1.07-.55a2.74,2.74,0,0,0,1.14-1.48,2,2,0,0,0,.05-1,1.89,1.89,0,0,0-.3-.92l-.39-.51a2.45,2.45,0,0,0-1.09-.63l-.66-.09a2.43,2.43,0,0,0-1.26.34l-1.07.54a2,2,0,0,0-.7.64,2,2,0,0,0-.44.84,2.88,2.88,0,0,0,.25,1.92l.39.5a2.47,2.47,0,0,0,1.09.64l.66.09a2.53,2.53,0,0,0,1.26-.34Z"/><path class="cls-7" d="M99.76,118.24a8.06,8.06,0,0,1,.78-1.21l-.39.5a8.07,8.07,0,0,1,1.41-1.39l-.5.38a9.05,9.05,0,0,1,1.8-1.06l-.59.25a8.65,8.65,0,0,1,2.12-.58l-.66.09a7.71,7.71,0,0,1,1.44,0,2.5,2.5,0,0,0,2.48-2.49,2.54,2.54,0,0,0-2.48-2.48,10.59,10.59,0,0,0-9.69,5.53,2.48,2.48,0,1,0,4.28,2.51Z"/><path class="cls-7" d="M114.44,114.54l2.69-.54a1.89,1.89,0,0,0,.85-.45,2.59,2.59,0,0,0,.89-2.61,2.53,2.53,0,0,0-1.14-1.48l-.6-.25a2.47,2.47,0,0,0-1.32,0l-2.69.54a1.8,1.8,0,0,0-.84.44,1.87,1.87,0,0,0-.64.7,1.89,1.89,0,0,0-.3.92,1.86,1.86,0,0,0,0,1,2.51,2.51,0,0,0,1.14,1.49l.59.25a2.68,2.68,0,0,0,1.32,0Z"/><path class="cls-7" d="M26.16,182.81l2.69-3.23a1.85,1.85,0,0,0,.52-.8,1.92,1.92,0,0,0,.21-.95,2,2,0,0,0-.21-1,1.92,1.92,0,0,0-.52-.8,2.49,2.49,0,0,0-1.75-.72,2.4,2.4,0,0,0-1.76.72l-2.69,3.23a2.39,2.39,0,0,0-.51,2.72,1.86,1.86,0,0,0,.51.79,2.47,2.47,0,0,0,3.51,0Z"/><path class="cls-7" d="M23.68,204.12a18.4,18.4,0,0,1-1.89-7.18q0-1,0-2c0-.38.05-.76.09-1.13a2.09,2.09,0,0,1,.06-.47,20.8,20.8,0,0,1,1.11-4.09,2.51,2.51,0,0,0-1.73-3.06A2.54,2.54,0,0,0,18.27,188a23.14,23.14,0,0,0,1.13,18.68,2.48,2.48,0,1,0,4.28-2.51Z"/><path class="cls-7" d="M124.15,197.89l3.77-3.77a2.56,2.56,0,0,0,.73-1.75,2.49,2.49,0,0,0-2.48-2.49,2.63,2.63,0,0,0-1.76.73l-3.77,3.77a2.56,2.56,0,0,0-.73,1.75,2.49,2.49,0,0,0,2.49,2.49,2.61,2.61,0,0,0,1.75-.73Z"/><path class="cls-7" d="M133.83,189.4l1.62-.54a1.8,1.8,0,0,0,.84-.44,1.87,1.87,0,0,0,.64-.7,1.89,1.89,0,0,0,.3-.92,1.86,1.86,0,0,0,0-1l-.25-.59a2.45,2.45,0,0,0-.89-.89l-.59-.25a2.46,2.46,0,0,0-1.32,0l-1.62.54a1.8,1.8,0,0,0-.84.44,2,2,0,0,0-.64.7,1.78,1.78,0,0,0-.29.92,1.85,1.85,0,0,0,0,1l.25.59a2.45,2.45,0,0,0,.89.89l.59.25a2.46,2.46,0,0,0,1.32,0Z"/></svg>