<svg id="Layer_1" data-name="Layer 1" xmlns="http://www.w3.org/2000/svg" viewBox="0 0 150.13 104.31"><defs><style>.cls-1{fill:#005630;}.cls-2{fill:#006c3c;}.cls-3{fill:#007d46;}.cls-4{fill:#009045;}.cls-5{fill:#bcdaef;}.cls-6{fill:#d6e5f3;}.cls-7{fill:#8cc5e5;}.cls-8{fill:#fff;}</style></defs><path class="cls-1" d="M122.24,87.83a23.71,23.71,0,0,1-2.82,3.22,5.39,5.39,0,0,1-4.87,1.61,1.37,1.37,0,0,0-1.62.73,15.58,15.58,0,0,1-1.32,1.71,4.72,4.72,0,0,1-7.14.46c-.42-.38-.77-.83-1.3-1.4-.73,1-1.36,2-2,2.87a15,15,0,0,1-3.8,4c-3,2.12-6,2.18-9,.06-.68-.47-1.17-.77-1.84-.05-3.33,3.6-7.46,3.36-11.74,2.39a7,7,0,0,1-1.51-.46c-1.26-.58-2.32-.82-3.41.49-.78.94-2.12.92-3.33.89a18.5,18.5,0,0,1-8.65-2.51,18.85,18.85,0,0,1-2.17-1.37.89.89,0,0,0-1.34.06c-1.63,1.41-3.51,1.32-5.41.65a39.13,39.13,0,0,1-8.89-4.68,29,29,0,0,1-5.31-4.27c-.44.52-.35,1.06-.49,1.51a2.18,2.18,0,0,1-2.83,1.72,6.23,6.23,0,0,1-2.16-.94,28.63,28.63,0,0,1-8.28-7.21c-.63-.84-1.33-1.63-1.89-2.51-.72-1.14-1.51-1.81-3-1.49A4.29,4.29,0,0,1,12.35,82a11.23,11.23,0,0,1-3.93-7c-.19-1.69-.48-3.37-.64-5.06-.07-.72-.32-1-1.06-1.07A9.65,9.65,0,0,1,3.46,68C.52,66.83-.65,64.5.35,61.56a45.49,45.49,0,0,1,2.47-6.4,4,4,0,0,0,.39-2.46,10.44,10.44,0,0,1,.35-4.26A6.83,6.83,0,0,1,7.47,43.8a16,16,0,0,0,5.37-3.94A8.84,8.84,0,0,1,16.6,37.4a3.76,3.76,0,0,1,3.91.55,3.24,3.24,0,0,0,1,.61A32.13,32.13,0,0,1,29.86,43c7.55,5.31,16.11,8,25.08,9.57a123.35,123.35,0,0,0,18.31,1.73,99.27,99.27,0,0,0,31.39-4.6c5.48-1.66,10.87-3.61,16.32-5.39a33.41,33.41,0,0,1,6.33-1.54c2.29-.27,4.6,0,6.86-1.08s4.8-.16,6.94,1.12a17.12,17.12,0,0,1,6.6,7.13,6.4,6.4,0,0,1,.81,4.72,3.35,3.35,0,0,0,.37,2.08A19.41,19.41,0,0,1,150,65.78c-.41,2.83-1.69,4.18-4.53,4.52-.78.1-1,.45-1.15,1.07a20.63,20.63,0,0,1-3.91,7.2c-1.25,1.54-2.75,2.49-4.82,1.7-.7-.26-1,.1-1.26.56-1,1.54-2,3.07-3,4.61a13.64,13.64,0,0,1-2,2.44C127.18,90,124.6,90.3,122.24,87.83Z"/><path class="cls-2" d="M137,65.22c-.41,2-.81,3.88-1.21,5.78a17.29,17.29,0,0,1-1.5,4.43c-1.29,2.45-3.23,3-5.7,1.88-1.48-.69-2.42-2-3.75-3.13-.75,2.62-2.4,4.59-3.7,6.76-1.54,2.56-3.36,2.91-5.92,1.3a18.63,18.63,0,0,1-5.07-5.13c-.64,1.31-1.11,2.58-2.49,3s-2.55-.19-3.74-1c-1.06,2-2.07,3.86-3,5.75a7.5,7.5,0,0,1-3,3.23c-2.22,1.27-3.83,1.09-5.63-.74-.72-.75-1.34-1.59-2-2.41-.64.08-.76.66-1,1a8.94,8.94,0,0,1-1.73,1.85c-2.06,1.57-3.7,1.39-5.41-.62a6.3,6.3,0,0,1-.39-.56c-1.23,1.32-2.32,2.57-3.5,3.74-3,3-4.44,3.16-8.11,1.05A36.38,36.38,0,0,1,62.86,86c-.63-.61-1-.85-2-.29-1.83,1.13-4.57.44-6.62-1.43-.42-.39-.81-.82-1.39-1.42-.17.79-.27,1.4-.43,2-.7,2.59-2.8,3.42-4.93,1.81a34.64,34.64,0,0,1-8.6-8.77,3.08,3.08,0,0,0-1.06-1.28c-.33.76-.62,1.53-1,2.26-1.67,3.29-4.64,3.72-7.06.92-1.14-1.33-2-2.88-3-4.32-.18-.26-.39-.5-.63-.8-.68,1.21-1.27,2.38-2,3.47-1.65,2.5-3.68,2.47-5.4,0-2.33-3.34-4.37-6.82-5.15-10.89a25.22,25.22,0,0,1-.46-6.27c-1.13-.09-1.82.58-2.61,1-2.6,1.27-4.47.37-5.11-2.46a7.21,7.21,0,0,1,.12-3.3,53.79,53.79,0,0,1,7.33-17.41,18.19,18.19,0,0,1,5.22-5.23c1.16-.76,2.35-1.16,3.65-.31a3.77,3.77,0,0,0,1.52.32A7.57,7.57,0,0,1,29.13,38a7.35,7.35,0,0,0,2,2.56,30.38,30.38,0,0,0,9.24,5.05c7.41,2.85,15.14,4.36,23,5.54,12.18,1.85,23.95-.2,35.56-3.61,7.51-2.21,15.11-4.14,22.44-6.93a19.26,19.26,0,0,0,4.18-2.1,8.91,8.91,0,0,1,6.5-1.61,1.89,1.89,0,0,0,1.74-.55,2.35,2.35,0,0,1,2.92-.25,24.19,24.19,0,0,1,7.42,5.65c1.87,2.32,2,3.49.05,5.77a.86.86,0,0,0-.14,1c.4,1.1.84,2.2,1.15,3.32a15.49,15.49,0,0,1-1.09,11.6c-1.5,2.93-3.18,3.53-6.24,2.17Z"/><path class="cls-3" d="M141.64,57.69a5.08,5.08,0,0,1-5.74,3.41,29.81,29.81,0,0,1-6.85-1.54c-.66-.24-1.07-.23-1.35.54a5.42,5.42,0,0,1-4.37,3.51A1.34,1.34,0,0,0,122.06,65a5.57,5.57,0,0,1-1.56,3.32c-1.65,1.72-3.64,1.88-5.78,1.13A29.87,29.87,0,0,1,107.94,66l-2.64-1.76c-.31,1-.52,1.87-.8,2.66a14.22,14.22,0,0,1-.94,2.35c-1.91,3.47-5.58,3.88-8.24.91-1.17-1.31-2.21-2.72-3.41-4.21L86.58,70.5l-.29.26c-3.34,3-7,2.93-10.17-.25a9,9,0,0,1-.77-1.05c-1.11,1.4-2.11,2.53-2.95,3.75-2.16,3.17-5.13,3.77-9.18,2.05a19.88,19.88,0,0,1-6.66-5.07c-1.29-1.38-2.6-2.74-4-4.16-.94,1.07-1.8,2-2.63,3-1.7,2-3.44,2.33-5.64.8-2.61-1.83-5.25-3.66-7-6.58-.75.91-1.38,1.72-2.06,2.49a14.06,14.06,0,0,1-3.21,2.85c-4.24,2.61-9,.3-9.56-4.66a29,29,0,0,1,0-3.09c-.7-.38-1.06.16-1.42.43a6.42,6.42,0,0,1-4.87,1,2.93,2.93,0,0,1-2.77-2.59,14.92,14.92,0,0,1,.2-5.65,27.76,27.76,0,0,1,2.08-6.51c-2.49-.92-2.95-1.95-1.84-4.3.52-1.12,1.15-2.18,1.78-3.32A5,5,0,0,0,14,38.77l-.25-.18a3.17,3.17,0,0,1-.49-.4,2.73,2.73,0,0,1-.95-3.1,4.9,4.9,0,0,1,.39-.9,11.2,11.2,0,0,1,2-2.67,10.5,10.5,0,0,1,4.53-2.6,3.69,3.69,0,0,0,2.52-1.86,5.46,5.46,0,0,1,1.92-1.9,20.7,20.7,0,0,1,1.92-1A35.33,35.33,0,0,1,37.06,21a47.83,47.83,0,0,1,5.85-.44,16.92,16.92,0,0,1,5.73,1.16A4,4,0,0,1,51.2,24a1.24,1.24,0,0,0,1.07.95c9.1,1.33,18.2,2.74,27.39,3.54a47.57,47.57,0,0,0,15.13-1.43A78,78,0,0,1,103.94,25a1.54,1.54,0,0,0,1.25-.8,4.31,4.31,0,0,1,3.44-2,27.36,27.36,0,0,1,13.29,1.51c.4.15.77.32,1.14.5a18.39,18.39,0,0,1,4,2.69,5.92,5.92,0,0,1,2,3,3.55,3.55,0,0,0,2.39,2.53,20.63,20.63,0,0,1,2.3,1.16,19.13,19.13,0,0,1,2,1.3c.37.25.72.53,1.06.81a8.34,8.34,0,0,1,.92.85h0a6.18,6.18,0,0,1,1.75,5.31,7.54,7.54,0,0,1-.7,2.21,1.46,1.46,0,0,0,.2,1.75,30.6,30.6,0,0,1,2.5,4.2A8.92,8.92,0,0,1,141.64,57.69Z"/><path class="cls-4" d="M119.49,34.54l-.71.31,1.47,2.47a10.33,10.33,0,0,1,1.31,3.17,5.8,5.8,0,0,1,.13.85,6.93,6.93,0,0,1-.29,2.8h0a5.89,5.89,0,0,1-4.07,3.79,14.94,14.94,0,0,1-8.1.29,15.16,15.16,0,0,1-4.16-1.76c-.27-.16-.54-.34-.81-.51l-2-1.37c-.87,1-1.48,2.34-3,2.58s-2.52-.86-3.65-1.55c-.63.46-.68,1.17-1,1.73A7.5,7.5,0,0,1,93.46,49h0a5,5,0,0,1-5.61,1.25,8,8,0,0,1-1.32-.64A13.17,13.17,0,0,1,83,46.23c-.39-.5-.75-1-1.13-1.56-3.27,2.18-4.21,2.22-7.23.19-.92,1.52-1.73,2.93-2.59,4.3a12,12,0,0,1-2.19,2.57c-.29.23-.58.46-.89.68l-.16.11a3.77,3.77,0,0,1-4.89-.2,14.32,14.32,0,0,1-1.52-1.38,2.66,2.66,0,0,1-.23-.24,16.48,16.48,0,0,1-2.14-3c-.88-1.57-1.73-3.18-2.61-4.79-4.2,4-6.91,3.27-10.18-.84a7.65,7.65,0,0,0-1.75,1.51,25.88,25.88,0,0,1-3.28,2.63,14.83,14.83,0,0,1-2.14,1.19,11.8,11.8,0,0,1-1.27.54,7.6,7.6,0,0,1-.92.3c-4,1-7.19-1.15-7.64-5h0a7.54,7.54,0,0,1-.06-.84,19.73,19.73,0,0,1,.15-2.67h0a33.14,33.14,0,0,1,.83-4.29c.15-.57.3-1.13.48-1.84-1.1-.16-2.11-.29-3.12-.45-4.34-.7-6.3-4-4.83-8a5.89,5.89,0,0,1,.24-.58,8.68,8.68,0,0,1,4.27-4.42c.7-.33,1.43-.62,2.15-.94a.82.82,0,0,0,.58-1c-.45-2.49.95-3.93,3-5A14.06,14.06,0,0,1,39.59,12c1.76-.09,3.52-.1,5.29-.11.7,0,1-.21,1.13-1a5.73,5.73,0,0,1,1.61-3.42,7.35,7.35,0,0,1,2.6-1.68l.27-.1A25.66,25.66,0,0,1,62.24,4.22a29.5,29.5,0,0,1,5.6.93A4.29,4.29,0,0,0,70.32,5,38.24,38.24,0,0,1,81.71,3.3a8.9,8.9,0,0,1,5,1.6C88,5.83,89.16,6.84,89,8.81c1.72-.4,3.39-.69,5-.94,1.26-.18,2.51-.34,3.76-.49A27.14,27.14,0,0,1,107,8l.17,0c5.33,1.2,6.63,5.12,4.13,9.2.42.59,1.13.61,1.72.84a48.3,48.3,0,0,1,6.55,3.09c.39.23.77.49,1.15.75a9.5,9.5,0,0,1,2.33,2.32C125.54,27.85,124.25,32.33,119.49,34.54Z"/><path class="cls-1" d="M133.78,33.67a5.23,5.23,0,0,1-3.66,1.82c-1,.1-2.54-.21-3.36.31s-.52-.12-.61,1c-.13,1.64,1.28,4,1.75,5.57,1.19,3.91,1.49,8.36-1.82,11.36s-8.56,3.05-12.55,1.44c-5.55-2.25-10.07-8.47-16.36-8.68-5.6-.2-7.54,6.74-11.34,9.67-4.07,3.12-9.64,2.66-13.82,0a10.28,10.28,0,0,1-3.91-4.85c-.77-1.74-1.6-4.14-3.92-3.86C62.41,47.62,60.59,49,59,49.8a24.33,24.33,0,0,1-5.51,2.09,17,17,0,0,1-13.71-3.36,45.91,45.91,0,0,1-4.07-3.94c-1.43-1.39-2.35-1.26-4.31-1-4.85.71-9.58.33-13.71-2.5a15.53,15.53,0,0,1-5.39-6,4.9,4.9,0,0,1,.39-.9,11.2,11.2,0,0,1,2-2.67,10.5,10.5,0,0,1,4.53-2.6,3.69,3.69,0,0,0,2.52-1.86,5.46,5.46,0,0,1,1.92-1.9,20.7,20.7,0,0,1,1.92-1A35.33,35.33,0,0,1,37.06,21a47.83,47.83,0,0,1,5.85-.44,16.92,16.92,0,0,1,5.73,1.16A4,4,0,0,1,51.2,24a1.24,1.24,0,0,0,1.07.95c9.1,1.33,18.2,2.74,27.39,3.54a47.57,47.57,0,0,0,15.13-1.43A78,78,0,0,1,103.94,25a1.54,1.54,0,0,0,1.25-.8,4.31,4.31,0,0,1,3.44-2,27.36,27.36,0,0,1,13.29,1.51c.4.15.77.32,1.14.5a18.39,18.39,0,0,1,4,2.69,5.92,5.92,0,0,1,2,3,3.55,3.55,0,0,0,2.39,2.53A20.63,20.63,0,0,1,133.78,33.67Z"/><path class="cls-5" d="M127.84,27.1c-.43,3.92-4.42,1-7.43,3.34s3.84,10.14,1,15.13c-1.78,3.14-6.43,3.64-9.88,2.31S105.36,44,102.26,42s-7.12-3.33-10.46-1.79c-4.29,2-5.54,7.76-9.82,9.73-3,1.39-6.79.37-9.41-1.67s-1.86-6.29-6-7.76-9.79,6.68-18.17,3.78-7.17-8.65-13.2-7.48-9.8,0-13.33-3.08a8.22,8.22,0,0,1-3.15-6,7.25,7.25,0,0,1,1.38-4,16.75,16.75,0,0,1,2.44-2.82,43.4,43.4,0,0,1,10-7.2c2.3-1.21,5.27-2.18,7.39-.69,4.7-9.48,14.47-10.89,26.32-9l.33,0A44,44,0,0,1,77.07,2.35c14.63-.69,29.86,4.82,38.05,9.21a29.23,29.23,0,0,1,5,3.26C125.72,19.66,128.28,23.18,127.84,27.1Z"/><path class="cls-6" d="M115.12,11.56c-2.26,3.36-6.79,4.37-10.73,3.19-4.24-1.27-7.74-2.74-12.28-1.88-5,.93-9.66,3.87-14.15-.27a7.49,7.49,0,0,1-.89-10.25C91.7,1.66,106.93,7.17,115.12,11.56Z"/><path class="cls-6" d="M57.5,26.47a4.32,4.32,0,0,1,.92,5c-1,1.95-3.51,2.2-5.37,1.42a16,16,0,0,1-2.41-1.47L50,31l-.07,0-.22-.08a4.84,4.84,0,0,0-.51-.14L49,30.71h0c-.22,0-.44,0-.67,0H47.9l-.09,0-.26.05c-.19,0-.39.11-.58.16l-.13,0-.17.09a4.09,4.09,0,0,0-.46.25l-.32.24a2.35,2.35,0,0,0-.33.3,1.83,1.83,0,0,1-2.17.28,1.8,1.8,0,0,1-.83-2,8.63,8.63,0,0,1,4.1-4.52,9.41,9.41,0,0,1,2.74-.87,2.1,2.1,0,0,1,1-.31,7,7,0,0,1,4.05.67A5.06,5.06,0,0,1,57.5,26.47Z"/><path class="cls-6" d="M65.3,17.89c-4.42,2.32-9.43-.27-14.09,1.21-3.75,1.19-6.11,4.12-8.78,6.83-2.92,3-6.35,5.57-10.56,6.26-4.93.81-10.14-1.66-11.5-6.74a9.92,9.92,0,0,1-.3-1.71,16.75,16.75,0,0,1,2.44-2.82,43.4,43.4,0,0,1,10-7.2c2.3-1.21,5.27-2.18,7.39-.69,4.7-9.48,14.47-10.89,26.32-9a8,8,0,0,1,2.23,2C71.47,10.16,69.62,15.63,65.3,17.89Z"/><path class="cls-6" d="M103.45,32.2c-2.12,3.9-6.24,4.12-10.09,3.33a20.66,20.66,0,0,0-10.5.37c-3.5,1.07-6.52,3.2-10.35,2a7.45,7.45,0,0,1-4.78-9.75C70.32,20.9,80.38,19,87.17,20.36a7.4,7.4,0,0,1,1.34-.27C94.59,19.5,108.18,23.47,103.45,32.2Z"/><path class="cls-7" d="M74.41,22.76c-4.21.08,19.37-5.8,27.65-2.62a21.33,21.33,0,0,1-3.88,3.35,7.16,7.16,0,0,1-4.89,1.12,15.22,15.22,0,0,1-3.6-1.49C85,20.89,78.61,22.67,74.41,22.76Z"/><path class="cls-7" d="M74.41,20.45c-.84,0-.34.32,1.49,1.05v2.33c-.56,1.06-1.18.82.25.39.87-.26,1.76-.46,2.65-.67,2.41-.55,4.85-1,7.29-1.34,4.86-.7,10.62-1.54,15.36.15l-1-3.84c-2,2-4.41,4.6-7.47,3.61-2.2-.71-3.85-1.86-6.21-2.21-4.13-.61-8.22.37-12.34.53-3,.12-3,4.73,0,4.61,2.49-.1,5-.53,7.45-.68A16.43,16.43,0,0,1,90.29,26c5.34,2.39,9.64-.41,13.4-4.2a2.32,2.32,0,0,0-1-3.84c-6.86-2.45-15.52-.73-22.45.63-2.23.43-5.15.72-7.16,1.9-2.43,1.44-1.4,4.59,1.35,4.6C77.37,25.07,77.37,20.46,74.41,20.45Z"/><path class="cls-6" d="M126.5,25.92a8.32,8.32,0,0,0-4.92-6.72,2.57,2.57,0,0,0-2.83-3.42c-3,.57-7.94,3.79-5.72,7.42,1.06,1.74,2.85,1.83,4.67,2a6.71,6.71,0,0,1,4.72,2.44C123.7,29.08,126.76,28,126.5,25.92Z"/><path class="cls-7" d="M129.94,24.05c-1-4.41-4.81-8.07-8.14-10.86-6.09-5.09-14.47-8-22-10.16C89,0,77.29-1.29,66.35,1.75,56,.24,44.81.9,38.83,10.23c-4-.84-8.15,1.64-11.5,3.88-4,2.69-9.19,6.4-10.6,11.29-1.36,4.73,1.72,8.89,5.44,11.45s8.16,3,12.62,2.32c1.8-.27,2.65-.39,4,.9a41.71,41.71,0,0,0,3.75,3.65,15.51,15.51,0,0,0,12.61,3.12A22.19,22.19,0,0,0,60.2,44.9c1.43-.71,3.11-2,4.74-2.22,2.14-.25,2.91,2,3.61,3.58a9.43,9.43,0,0,0,3.6,4.5c3.85,2.51,9,2.93,12.71,0,3.51-2.72,5.3-9.15,10.45-9,5.79.2,10,6,15.06,8,3.67,1.5,8.47,1.48,11.55-1.33s2.77-6.9,1.68-10.53c-.44-1.45-1.73-3.64-1.61-5.16.08-1-.21-.45.56-.93s2.22-.19,3.09-.28C129.64,31.22,130.74,27.61,129.94,24.05ZM125.56,27a.43.43,0,0,0-.18.06c-1.17.6-3.26.09-4.61.6a5,5,0,0,0-3.09,2.76c-1.05,2.64.47,5.66,1.27,8.16,1.18,3.67,1.3,7.72-3.72,7.69s-8.59-4.48-12.59-6.76c-3.49-2-7.9-3.18-11.73-1.43-3.49,1.6-5.06,5-7.46,7.71a6.37,6.37,0,0,1-10.84-1.65c-1.29-2.9-3-5.66-6.49-6.07-2.76-.33-5.31,1.35-7.66,2.56-3.84,2-7.48,2.66-11.47.54-2.87-1.54-4.39-4.63-7.23-6.11-3.58-1.87-7.77.47-11.58-.45A11.06,11.06,0,0,1,22.44,31c-2.35-2.78-1.22-5.44,1-7.83a36.34,36.34,0,0,1,6.6-5.39C32.27,16.38,36,13.54,38.7,15a2.33,2.33,0,0,0,3.15-.83c4.74-9.1,14.86-9.31,23.9-7.91a2.22,2.22,0,0,0,1.38,0c15.44-4.45,33.65,0,47.45,7.59A29.49,29.49,0,0,1,121.3,19,16.72,16.72,0,0,1,125,23.73a6.39,6.39,0,0,1,.6,2.14A5.49,5.49,0,0,1,125.56,27Z"/><path class="cls-8" d="M27.88,28a9.73,9.73,0,0,1,.91-1.68c.09-.14.19-.28.29-.41s.26-.3,0,0l.15-.2c.21-.24.42-.48.65-.71s.46-.44.71-.64a1.46,1.46,0,0,0,.19-.16l-.17.13.13-.1.38-.26a9.53,9.53,0,0,1,1.72-.93,1.52,1.52,0,0,0,.69-.9A1.55,1.55,0,0,0,33.34,21a1.45,1.45,0,0,0-.89-.68,1.7,1.7,0,0,0-1.15.15,11.58,11.58,0,0,0-6,6,1.67,1.67,0,0,0-.15,1.16,1.5,1.5,0,0,0,1.84,1,1.44,1.44,0,0,0,.89-.69Z"/><path class="cls-8" d="M36.36,21.05,37,20.9a1.16,1.16,0,0,0,.5-.27,1,1,0,0,0,.39-.42,1.09,1.09,0,0,0,.18-.55,1.22,1.22,0,0,0,0-.6l-.15-.36a1.45,1.45,0,0,0-.54-.53L37,18a1.55,1.55,0,0,0-.8,0l-.62.15a1,1,0,0,0-.51.26,1.31,1.31,0,0,0-.39.42,1,1,0,0,0-.17.56,1.07,1.07,0,0,0,0,.59l.15.36a1.55,1.55,0,0,0,.54.54l.36.15a1.51,1.51,0,0,0,.79,0Z"/><path class="cls-8" d="M47.77,13.75l.32-.26.16-.13c-.07.06-.21.16-.06.05l.68-.48a14.22,14.22,0,0,1,1.46-.85q.38-.2.75-.36s.26-.11.05,0,0,0,.06,0l.39-.15A15.17,15.17,0,0,1,53.2,11a1.49,1.49,0,1,0-.79-2.88,16.77,16.77,0,0,0-6.76,3.5,1.5,1.5,0,0,0,0,2.11,1.54,1.54,0,0,0,2.12,0Z"/><path class="cls-8" d="M56.08,10.46l1.25-.16a1.06,1.06,0,0,0,.58-.13,1.14,1.14,0,0,0,.48-.31,1.11,1.11,0,0,0,.31-.48,1.25,1.25,0,0,0,.13-.57l-.06-.4a1.57,1.57,0,0,0-.38-.66l-.3-.23a1.48,1.48,0,0,0-.76-.21l-1.25.16a1,1,0,0,0-.57.13,1,1,0,0,0-.48.31,1,1,0,0,0-.31.48,1,1,0,0,0-.13.57l0,.4A1.49,1.49,0,0,0,55,10l.3.23a1.42,1.42,0,0,0,.75.21Z"/><path class="cls-8" d="M79.73,9.31c.31-.07.61-.13.92-.18L81.16,9l.17,0c.6-.07,1.21-.13,1.81-.15s1.21,0,1.81,0l.87.06.44,0s.62.07.32,0a1.64,1.64,0,0,0,1.15-.15,1.49,1.49,0,0,0-.36-2.73,24.19,24.19,0,0,0-8.44.31,1.51,1.51,0,0,0-1,1.84,1.53,1.53,0,0,0,1.84,1Z"/><path class="cls-8" d="M75.47,30.36c-.34.26,0,0,.11-.08l.34-.22q.31-.19.63-.36l.37-.18.19-.08-.07,0c.24-.09.48-.18.73-.25l.75-.19.4-.07c.31-.05-.33,0,.06,0a9.49,9.49,0,0,1,1.6,0,1.51,1.51,0,0,0,1.49-1.5A1.53,1.53,0,0,0,80.58,26a9.92,9.92,0,0,0-3.71.42,10.9,10.9,0,0,0-3.51,1.87,1.5,1.5,0,0,0-.44,1.06,1.52,1.52,0,0,0,.44,1.06,1.48,1.48,0,0,0,1,.43,1.79,1.79,0,0,0,1.06-.43Z"/><path class="cls-8" d="M85.73,28.71H86a1.06,1.06,0,0,0,.58-.13,1.54,1.54,0,0,0,.92-1.36l-.06-.4a1.57,1.57,0,0,0-.38-.66l-.3-.23a1.58,1.58,0,0,0-.76-.21h-.31a1.27,1.27,0,0,0-.58.13,1.36,1.36,0,0,0-.79.79,1.14,1.14,0,0,0-.12.58l.05.4a1.57,1.57,0,0,0,.38.66l.31.23a1.5,1.5,0,0,0,.75.2Z"/></svg>