<svg id="Layer_1" data-name="Layer 1" xmlns="http://www.w3.org/2000/svg" viewBox="0 0 143.05 150.09"><defs><style>.cls-1{fill:#3b5b72;}.cls-2{fill:#2a4b62;}.cls-3{fill:#4d6d84;}.cls-4{fill:#bcdaef;}.cls-5{fill:#d6e5f3;}.cls-6{fill:#8cc5e5;}.cls-7{fill:#fff;}</style></defs><path class="cls-1" d="M142.64,91.61c0,4.7-14.54,52.58-29.83,57.79a17.38,17.38,0,0,1-6.35.66c-7.6-.37-18.24-3.71-28.41-7.64-4.9-1.9-9.69-3.93-14-5.85-5.83-2.6-10.73-5-13.72-6.46a9.08,9.08,0,0,1-4.43-4.82c-5-12.63-23-58.2-25.19-64.61-2.38-6.8-3-47.39,2.93-56.76a4.1,4.1,0,0,1,1.91-1.78C33.4-.84,99.28,24,106.84,29.36c9.54,4.17,23.66,30.1,31,47.45,1.34,3.18,2.45,6.07,3.27,8.48h0A24.28,24.28,0,0,1,142.64,91.61Z"/><path class="cls-1" d="M51.6,118.78l-1.06,8a8.86,8.86,0,0,1-4.82,6.76l-6,3a11.17,11.17,0,0,1-8.83.49l-5-1.82h0l-12.5-4.58C7.79,128.14-.22,121.91,0,115.82l2.58-25.4A32.87,32.87,0,0,1,4.71,79.87L9.57,67A6.82,6.82,0,0,1,16,62.58a6.74,6.74,0,0,1,5,2.24l6.74,7.42A67.56,67.56,0,0,1,38.56,88.15L46,103.37l4.52,9.3.22.46A9.84,9.84,0,0,1,51.6,118.78Z"/><path class="cls-2" d="M51.6,118.78l-1.06,8a8.86,8.86,0,0,1-4.82,6.76l-6,3a11.17,11.17,0,0,1-8.83.49l-5-1.82c.3-.05,8.87-1.24,4.72-6.32L20.81,117s12.28-16.34,11.64-17.59c-.34-.71,7,1.71,13.5,4l4.52,9.3.22.46A9.84,9.84,0,0,1,51.6,118.78Z"/><path class="cls-3" d="M50.48,112.68c.14,8-14.63,13.64-22.56,10l-10-8.06a9,9,0,0,1-3.23-7.31s0-6.88-.1-15c-.08-10.9-.16-24-.16-25.57,0-2.69.69-3.52,1.57-4.21a6.75,6.75,0,0,1,5,2.25l6.75,7.41A67.37,67.37,0,0,1,38.56,88.16l.56,1.14,2.82,5.82.13.26,3.89,8Z"/><path class="cls-2" d="M142.64,91.61c0,4.7-14.54,52.58-29.83,57.79a17.38,17.38,0,0,1-6.35.66c2.1-3.38,3.83-10.21.79-23.74-3.69-16.42,17.07-37.69,30.59-49.51,1.34,3.18,2.45,6.07,3.27,8.48h0A24.28,24.28,0,0,1,142.64,91.61Z"/><path class="cls-3" d="M141.12,85.3h0a.62.62,0,0,1,0,.13c-.08,4.83-4.65,13.6-10.78,21.85-.7.95-1.42,1.89-2.17,2.82-5,6.33-10.86,12-16,14.9a18.77,18.77,0,0,1-2.79,1.31c-7.12,0-19.54-4.31-27.18-10.12-4-3-17.78-22.74-30.25-41.17-3.7-5.46-7.27-10.81-10.44-15.56s-5.82-8.78-7.85-11.88c-2.59-3.93-7.12-12.09-7.81-16.75L23.66,3.93a4.19,4.19,0,0,1,1.92-1.79c7.83-3,73.7,21.88,81.27,27.22,3.51,1.54,7.65,6,11.83,12A150.24,150.24,0,0,1,127,54.74c2.05,3.67,4,7.44,5.81,11.13,1,2.11,2,4.19,2.92,6.19C138.05,77.11,139.91,81.73,141.12,85.3Z"/><path class="cls-2" d="M78.05,142.42c-4.9-1.9-9.69-3.93-14-5.85.4-7.15,1-17.32,1.49-22.16C66.23,107.62,75.51,134.81,78.05,142.42Z"/><path class="cls-1" d="M118.68,41.32A4.26,4.26,0,0,0,118,47c.68,1.09,1.67,3.1-.11,3.58-1.2.34-3.66-1.3-4.7-1.76C109,47,104.51,46,100.53,48.94c-4.14,3-5.1,8.21-4.4,13,.17,1.18,1.49,4.71,1.32,6.21l-.1,0a15.48,15.48,0,0,1-2.82-2.28c-3.52-3.38-7.78-6.59-13-5.26-4.45,1.14-6.47,5-10,7.47-7.93,5.48-17.34-2.17-21.88-8.39-1.54-2.12-4.16-3.11-6.58-1.73a4.8,4.8,0,0,0-1.59,1.55,4.6,4.6,0,0,0-.14,5A41.8,41.8,0,0,0,52,75a25.32,25.32,0,0,0,11.39,4.18A20.82,20.82,0,0,0,76,76.58a23.92,23.92,0,0,0,4.74-4c.88-.91,2.17-2.78,3.53-2.69s3.15,2.46,4.13,3.38a16.11,16.11,0,0,0,6,3.92c4.51,1.41,9.63-.18,11.64-4.66,2.2-4.91-1.15-9.23-.6-14.1.4-3.52,3.87-.86,5.86,0,4.53,2,9.59,2.63,13.54-1A10.87,10.87,0,0,0,127,54.74,150.24,150.24,0,0,0,118.68,41.32ZM97.6,68.2c.25-.25.29.07,0,0Z"/><path class="cls-1" d="M141.11,85.44c-.08,4.83-4.65,13.6-10.78,21.85a10.29,10.29,0,0,1-2.93.06,9,9,0,0,1-6.66-4.2A10.58,10.58,0,0,1,119.19,98c-.16-3.45,1.06-7,2-10.33q2.72-9.36,5.42-18.72a4.65,4.65,0,0,1,6.21-3.1,4.44,4.44,0,0,1,3.07,5.66l-.15.53q-1.8,6.18-3.58,12.34c-1.07,3.72-2.54,7.53-3.24,11.34a4.31,4.31,0,0,0-.13,2.08c1-.16,1.69-1.54,2.11-2.25,1.76-3.11,2.86-6.23,5.1-9.07A4.52,4.52,0,0,1,141.11,85.44Z"/><path class="cls-1" d="M48.91,99.9A8.88,8.88,0,0,1,46,103.38a7.57,7.57,0,0,1-5.85,1.18,11.79,11.79,0,0,1-3.83-1.67l-.57-.37c0,.47-.05,1,0,1.24.09,1.1.31,2.18.36,3.28a12.67,12.67,0,0,1-.63,4.85c-3,8.61-12.28,6.58-18,2.19l-.29-.23a9.24,9.24,0,0,1-2.38-6.5s0-6.88-.1-15a4.84,4.84,0,0,1,2.89,4.11,14.37,14.37,0,0,0,6,10.2A12.07,12.07,0,0,0,25.79,108a3.28,3.28,0,0,0,.52.2c-.15-.74,0-2.19,0-2.82a21.38,21.38,0,0,1-.25-3.83c.35-4.71,3.54-9.31,8.61-9.47a8.94,8.94,0,0,1,4.71,1.36l0-.11a4.74,4.74,0,0,1-.16-4c1.41-3.33,6.46-4.9,8.47-.8C49.36,92.11,50.76,96,48.91,99.9Z"/><path class="cls-4" d="M114.22,51.19C109,46.54,99.55,47.45,97,54.75v0a35.85,35.85,0,0,1,2.5,10.17c.3,3-3.33,5.55-6.1,4.63a14.43,14.43,0,0,1-6-3.91c-1.39-1.42-2.4-3.06-4.59-2.89-5,.37-9.17,6-13.57,8.09C63.78,73.41,58,73,53.27,69.1c-3.5-2.88-5.83-6.86-9.43-9.67s-7.69-5.24-10.76-8.78c-.25-.28-.48-.57-.72-.86-3.47-4.45-5.12-9.83-6.47-15.23-.35-1.38-.71-2.78-1.08-4.17-.14-.57-.29-1.13-.44-1.7-1-3.81-2-7.63-2.68-11.47C20.64,11.38,22.4,6,28.21,3.75a3.71,3.71,0,0,1,1.47-.23,7,7,0,0,1,4.59-1.95c.28,0,.55,0,.83,0a12.7,12.7,0,0,1,4,1c.58.23,1.15.48,1.7.76s1.08.55,1.59.83a24.4,24.4,0,0,0,7,2.4c2.08.41,4.21.65,6.34.87A89,89,0,0,1,70.51,9.91c1.15.32,2.29.66,3.42,1h0c1.44.48,2.82,1.06,4.24,1.55,17.19,6,32.53,16.16,42.86,31.88C125.25,50.81,120.4,56.63,114.22,51.19Z"/><polygon class="cls-4" points="42.75 96.02 40.86 98.38 35.58 93.91 31.14 93.73 27.94 102.93 28.19 109.64 25.17 112.73 17.66 107.2 12.4 98.38 11.71 94.97 10.02 86.62 11.9 79.47 13.94 64.67 14.05 63.88 20.16 60.78 21.36 62.04 29.07 70.12 30.26 72.17 38.65 86.62 42.75 96.02"/><polygon class="cls-4" points="140.3 86.62 140.3 95.63 137.74 99.26 133.06 100.35 124.79 96.76 126.11 87.94 129.05 68.14 131.04 66.52 131.05 66.52 132.2 65.58 137.23 71.03 140.3 86.62"/><path class="cls-5" d="M52.6,17.92c-3.09,3.54-6.88,1.21-10.55.62-1.63-.25-3.64-.23-4.85,1.08s-.58,2.68-.64,4.33a7.86,7.86,0,0,1-1,3.59c3.9,2.11,5.11,8.2,5.47,12.2.41,4.68-.65,10.89-6.6,11a7,7,0,0,1-1.31-.09c-.25-.28-.48-.57-.72-.86-3.47-4.45-5.12-9.83-6.47-15.23-.35-1.38-.71-2.78-1.08-4.17.12-.35.27-.7.42-1a8.93,8.93,0,0,1-.86-.66c-1-3.81-2-7.63-2.68-11.47C20.64,11.38,22.4,6,28.21,3.75a3.71,3.71,0,0,1,1.47-.23,7,7,0,0,1,4.59-1.95c.28,0,.55,0,.83,0A12.09,12.09,0,0,1,37.72,2a4.89,4.89,0,0,1,1.39.59,3.61,3.61,0,0,1,.86.72c.29,0,.56,0,.84,0A16.49,16.49,0,0,1,49.4,6.56L50,7C53.15,9.64,55.81,14.24,52.6,17.92Z"/><path class="cls-5" d="M91.79,29.05a4.62,4.62,0,0,0,1.11-2.16,8.37,8.37,0,0,0,.21-1c.54-4.42-4.34-7.92-7.86-9.54a20,20,0,0,0-6-1.72,4.33,4.33,0,0,0-3.2-3.4c-4.64-.66-9.58-.91-13.07,2.84s-2.79,10,1.75,12.42c2.27,1.23,4.68.92,7.11.46a11.8,11.8,0,0,1,6.94.91C82.8,29.47,88,33.36,91.79,29.05Z"/><path class="cls-5" d="M83.72,37.71l-.08.06C79.83,40.9,76,48.11,79.74,52.64a5.6,5.6,0,0,0,8.56,0c1.57-1.76,1.23-4.55,3.29-5.9,1.86-1.21,4.21-.37,6.19-1.47a5.68,5.68,0,0,0,2.36-7.65c-3.17-5.4-11.58-3.32-15.72-.44A5.83,5.83,0,0,0,83.72,37.71Z"/><path class="cls-5" d="M61.55,47a4.65,4.65,0,0,0-1.4-.55,5,5,0,0,0-1.47-.24,13,13,0,0,0-7.74,1.45,3.9,3.9,0,0,0-2.11,2.6c-1.78,2.59-2,6.1,1.3,8,2.06,1.21,4.07.35,6.18,0a15.41,15.41,0,0,1,6,.38c3.69.91,7.19-3.18,5.07-6.6A12.71,12.71,0,0,0,61.55,47Z"/><path class="cls-5" d="M27.72,79.24A7.57,7.57,0,0,1,26,81.34c-1.27,1.08-2.86,1.23-4.15,2.16l-.19.11v.25a15.51,15.51,0,0,0,.19,2.35,11.58,11.58,0,0,1-.41,4.38A7.09,7.09,0,0,1,11.71,95L10,86.62l1.88-7.15,2-14.8A8.68,8.68,0,0,1,21.36,62a10.33,10.33,0,0,1,3.48,1.12,4.17,4.17,0,0,1,2,1.31,3.2,3.2,0,0,1,.87,1.11,13.41,13.41,0,0,1,2.53,6.59A8.49,8.49,0,0,1,27.72,79.24Z"/><path class="cls-5" d="M135.69,75c-.18-3,0-6.31-3.1-7.93a6.39,6.39,0,0,0-1.54-.58h0l-2,1.62-2.94,19.8a5.61,5.61,0,0,0,3.07,0C134.28,86.61,136.3,79.67,135.69,75Z"/><path class="cls-6" d="M54,5.61A38.83,38.83,0,0,0,38.36.26c-4.8-.54-10.65-.51-14.43,3C16.52,10.05,21.17,24.56,25,32V30.07c-2.1,3.94,1.12,10.77,2.67,14.36,2.74,6.33,7,13.24,13.61,16.1.3.13,2.6.72,1.7.36-.39-.16-.32-.48,0,.08a29,29,0,0,0,2.3,3.22A30.29,30.29,0,0,0,53.49,72c3.9,2.32,8.45,2.24,12.86,1.92,4.15-.3,8.18-1.37,11.34-4.19,1.77-1.57,3-4.44,5.5-4.73,3.16-.38,5.48,3.27,7.87,4.92,3.19,2.19,8.16,3.3,10.56-.64,3-4.86-2.18-9.65-.9-14.57,1.88-7.2,11.15-2.54,15.18-.39,2.79,1.5,7.42,2.1,8.78-1.66,1-2.67-.54-6.3-1.59-8.7-3.13-7.16-8.59-12.21-14.76-16.7A136.44,136.44,0,0,0,82.68,12.55,94.18,94.18,0,0,0,67.84,7.37,63.25,63.25,0,0,0,60.62,6c-1.22-.16-2.45-.28-3.68-.34-.86,0-2.21.23-2.92-.08-2.25-1-4.21,2.34-1.94,3.33,1.61.7,3.12.52,4.86.6A49.43,49.43,0,0,1,64.7,10.6a81.36,81.36,0,0,1,13.56,4.24,133.14,133.14,0,0,1,25.3,13.73c6.6,4.52,12.84,9.5,16.09,17.07.52,1.2,1.85,3.88,1.42,5.25-.67,2.12-4.42-.62-5.73-1.27-4.7-2.36-9.88-4-14.67-.91C97.09,51,96.3,54.93,97,58.91c.41,2.24,4,9.85-1.09,9.1-3-.45-5.17-3.69-7.58-5.33C84.05,59.74,80.19,61,77,64.74c-3.61,4.32-8.05,5.36-13.5,5.41-2.44,0-4.9.12-7.14-1a19.44,19.44,0,0,1-5.28-4.1c-1.94-2-3.25-4.5-5.09-6.51-1-1.08-2.31-1.13-3.61-1.74a16.38,16.38,0,0,1-4.73-3.62,35,35,0,0,1-6.15-9.5A32.21,32.21,0,0,1,28.35,33.4c-.11-1.17.26-1.47.22-2.36-.06-1.46-1.37-3.18-1.89-4.5a38.85,38.85,0,0,1-1.49-4.7C23.67,15.69,22.45,6,30.51,4.2,37.71,2.62,46,5.27,52.08,8.94,54.21,10.21,56.15,6.89,54,5.61Z"/><path class="cls-6" d="M130,63.72c-3,2.55-3.8,6.44-4.59,10.13A121.2,121.2,0,0,0,123.23,89c-.28,3.35-1.57,8.72,1.56,11.14,2.54,2,7.35,2.56,10.39,1.89,8.55-1.86,8.74-12,7-18.69A108.51,108.51,0,0,0,137.24,69c-1.21-2.9-2.89-5.86-6.47-5.09-2.42.52-1.39,4.23,1,3.71,2.1-.45,6.17,14.89,6.66,16.79,1.61,6.27,1.13,15.34-7.74,13.79-.85-.15-2.71-.3-3.38-.91-1.11-1-.58-3.26-.51-4.55q.24-4.8.89-9.57c.43-3.17,1-6.33,1.71-9.46.6-2.68,1.14-5.37,3.34-7.23,1.89-1.6-.84-4.32-2.73-2.72Z"/><path class="cls-6" d="M34.72,95.36c1.64.48,2.44,2.62,3.78,3.61a4.75,4.75,0,0,0,5.17.51c1.72-1.09,1.89-3.17,1.36-5-1-3.16-2.77-6.28-4.22-9.25A109.22,109.22,0,0,0,30,67.23c-2.82-3.73-7.38-10.56-12.91-8.06a7.53,7.53,0,0,0-4.41,4.89c-.41,1.7-.09,3.35-.46,5A64.29,64.29,0,0,0,11,75.67c-.25,2.13,0,3.54-.28,5.1-1.44,7.76-1,17.18,3.37,23.91,2.3,3.55,8.48,11.75,13.62,9.7,6.95-2.78-1.4-20.22,7.09-19.18,2.46.3,2.44-3.55,0-3.85-3.85-.47-6.91,2.47-7.82,6a19.73,19.73,0,0,0-.12,6.77c.14,1.41.55,3.25.16,4.66-.74,2.68-2.75,1.12-4.2,0-3.32-2.61-6.69-6.72-7.83-10.87a37.48,37.48,0,0,1-.91-10,54.28,54.28,0,0,1,.52-6.63c.23-1.74,0-3.56.23-5.35a57.67,57.67,0,0,1,1.13-5.83,14.33,14.33,0,0,0,.42-2.83,10,10,0,0,1,0-2.19c.72-2.62,3.86-2.77,5.65-1.23,4.06,3.48,7.16,8.59,9.9,13.12a148.2,148.2,0,0,1,8.16,15.79c.31.7,1.81,3.46,1,3.28s-1.21-1.13-1.64-1.65a7.51,7.51,0,0,0-3.71-2.74c-2.38-.7-3.4,3-1,3.71Z"/><line class="cls-5" x1="28.38" y1="27.52" x2="30.84" y2="20.81"/><path class="cls-7" d="M30,18.7a5.85,5.85,0,0,1-1.11-2.37c0-.12-.05-.23-.07-.35s-.05-.38,0-.17c0-.23,0-.47,0-.7s0-.46,0-.7c0-.06,0-.26,0-.09,0-.14.05-.27.08-.41a9.27,9.27,0,0,1,.34-1.1c-.05.12.08-.15.09-.18l.15-.28c.12-.21.24-.42.38-.62l.19-.26c-.11.14,0,0,.05-.05s.28-.32.43-.47a6.17,6.17,0,0,1,.54-.48c.21-.17-.16.11.06,0l.34-.22A1.65,1.65,0,0,0,32.05,8a1.61,1.61,0,0,0-2.19-.57,9,9,0,0,0-2.59,12.88,1.64,1.64,0,0,0,2.19.57A1.62,1.62,0,0,0,30,18.7Z"/><path class="cls-7" d="M36.12,8.82l1.48-.24a1.18,1.18,0,0,0,.54-.29,1.14,1.14,0,0,0,.42-.45,1.28,1.28,0,0,0,.19-.6,1.17,1.17,0,0,0,0-.64l-.16-.38A1.69,1.69,0,0,0,38,5.64l-.38-.16a1.75,1.75,0,0,0-.85,0l-1.48.25a1.17,1.17,0,0,0-.55.29,1.19,1.19,0,0,0-.41.45,1.15,1.15,0,0,0-.19.59,1.16,1.16,0,0,0,0,.64l.16.38a1.54,1.54,0,0,0,.58.58l.38.16a1.54,1.54,0,0,0,.85,0Z"/><path class="cls-7" d="M66.69,17.64a17.65,17.65,0,0,1,2.3,0,10.76,10.76,0,0,1,2.09.32,15.41,15.41,0,0,1,2.2.65l.54.2c-.23-.09.24.11.29.14.38.17.74.36,1.1.55a1.6,1.6,0,1,0,1.62-2.77,19.16,19.16,0,0,0-10.14-2.32A1.63,1.63,0,0,0,65.09,16a1.61,1.61,0,0,0,1.6,1.6Z"/><path class="cls-7" d="M80.05,21.37l1.47.49a1.17,1.17,0,0,0,.64,0,1.44,1.44,0,0,0,1-.6,1.27,1.27,0,0,0,.29-.55l0-.43a1.54,1.54,0,0,0-.22-.81l-.25-.32a1.51,1.51,0,0,0-.7-.41l-1.48-.49a1.16,1.16,0,0,0-.64,0,1.21,1.21,0,0,0-.6.19,1.36,1.36,0,0,0-.45.41,1.25,1.25,0,0,0-.28.55l-.06.42a1.54,1.54,0,0,0,.22.81l.25.33a1.58,1.58,0,0,0,.71.41Z"/><path class="cls-7" d="M84,47.61c0,.12-.06.38,0,.11l0-.18c0-.13,0-.27.08-.4a7.32,7.32,0,0,1,.23-.8c0-.13.09-.26.14-.39l.06-.17c.08-.19-.15.34,0,.09s.24-.5.37-.74.27-.45.42-.67.16-.22.24-.33c-.27.4,0,0,.06-.07a8.07,8.07,0,0,1,1.22-1.19,1.66,1.66,0,0,0,.46-1.14,1.59,1.59,0,0,0-1.6-1.6,1.82,1.82,0,0,0-1.13.47,10.07,10.07,0,0,0-2.48,3,11,11,0,0,0-1.27,4,1.6,1.6,0,0,0,1.61,1.61,1.65,1.65,0,0,0,1.13-.47A1.91,1.91,0,0,0,84,47.61Z"/><path class="cls-6" d="M79.75,37c-1.15,4.32-6.22,5.53-10.11,5C64.19,41.2,59.38,38.11,54,37.25a1.65,1.65,0,0,0-2,1.12,1.62,1.62,0,0,0,1.12,2l.36.07L68,48.22c2.26,1.22,4.81,2.63,7.47,1.9,2.3-.64,3.87-2.68,5-4.66a19.59,19.59,0,0,0,2.43-8C83.05,35.6,80.21,35.28,79.75,37Z"/><path class="cls-7" d="M19.59,78.83q0-1,0-2c0-.28,0-.56.07-.84,0-.07.09-.66,0-.28,0-.14,0-.27.07-.41a19.66,19.66,0,0,1,1-3.69,1.6,1.6,0,0,0-1.12-2,1.63,1.63,0,0,0-2,1.12,21.62,21.62,0,0,0-1.29,8,1.61,1.61,0,1,0,3.21,0Z"/><path class="cls-7" d="M21.81,68.84c.05-.11.13-.28.17-.4v0a.29.29,0,0,1,0-.09c0-.09,0-.18,0-.27.05-.36.09-.72.14-1.08l-.06.43a2,2,0,0,1,.08-.43l-.16.38h0a1.16,1.16,0,0,0,.2-.6,1.39,1.39,0,0,0,0-.64,1.24,1.24,0,0,0-.29-.54,1.11,1.11,0,0,0-.45-.41L21.1,65a1.79,1.79,0,0,0-.86,0l-.38.17a1.67,1.67,0,0,0-.58.57c-.05.11-.13.28-.17.4v0a.29.29,0,0,1,0,.09c0,.09,0,.19,0,.28-.05.36-.09.71-.14,1.07l.06-.42a2.17,2.17,0,0,1-.08.43l.16-.39h0a1.09,1.09,0,0,0-.19.6,1.27,1.27,0,0,0,0,.64,1.18,1.18,0,0,0,.29.54,1.14,1.14,0,0,0,.45.42l.38.16a1.79,1.79,0,0,0,.86,0l.38-.16a1.79,1.79,0,0,0,.58-.58Z"/><path class="cls-7" d="M132.43,78.8l.74-3.45a1.7,1.7,0,0,0-.16-1.23,1.62,1.62,0,0,0-1-.74,1.64,1.64,0,0,0-1.23.16,1.62,1.62,0,0,0-.74,1l-.75,3.44a1.73,1.73,0,0,0,.16,1.24,1.69,1.69,0,0,0,1,.74,1.63,1.63,0,0,0,1.24-.17,1.6,1.6,0,0,0,.74-1Z"/><path class="cls-7" d="M53.34,53.12a3.1,3.1,0,0,1,.29-.5l-.25.33a3,3,0,0,1,.53-.53l-.33.25a3.21,3.21,0,0,1,.65-.37l-.39.16a3,3,0,0,1,.72-.2l-.43.06a2.74,2.74,0,0,1,.7,0l-.42-.06h0a1.16,1.16,0,0,0,.64,0,1.15,1.15,0,0,0,.59-.19,1.65,1.65,0,0,0,.74-1,1.63,1.63,0,0,0-.16-1.24,1.53,1.53,0,0,0-1-.73,6.11,6.11,0,0,0-.86-.09,5.06,5.06,0,0,0-.86.11,4.3,4.3,0,0,0-1.21.45,4.47,4.47,0,0,0-1,.79,3.86,3.86,0,0,0-.76,1.07,1.15,1.15,0,0,0-.19.59,1.16,1.16,0,0,0,0,.64,1.61,1.61,0,0,0,.73,1,1.62,1.62,0,0,0,2.2-.57Z"/><path class="cls-7" d="M59.06,52.65h1a1.17,1.17,0,0,0,.61-.14,1.11,1.11,0,0,0,.52-.33,1.08,1.08,0,0,0,.33-.51,1.2,1.2,0,0,0,.14-.62l-.06-.43a1.55,1.55,0,0,0-.41-.71l-.32-.25a1.75,1.75,0,0,0-.81-.22h-1a1.31,1.31,0,0,0-.62.14,1.41,1.41,0,0,0-.85.85,1.31,1.31,0,0,0-.14.62l.06.42a1.68,1.68,0,0,0,.41.71l.33.25a1.54,1.54,0,0,0,.81.22Z"/></svg>