<svg xmlns="http://www.w3.org/2000/svg" viewBox="0 0 116.16 190.3"><defs><style>.cls-1{fill:#fbcc2d;}.cls-2{fill:#ffad20;}.cls-3{fill:#41af1c;}.cls-4{fill:#348c14;}.cls-5{fill:#ffe885;}</style></defs><g id="Layer_3" data-name="Layer 3"><path class="cls-1" d="M9,0S96.54.86,115.28,80.08c8.59,53.25-48.75,88-48.75,88a13.9,13.9,0,0,1-10.06-4.48c-2.36-2.68-4.11-7-3.74-13.82,0,0,42.11-78.87-49.92-135.82C-.06,9.54-.43,6.53.37,4.47,2.06.15,9,0,9,0Z"/><path class="cls-2" d="M.37,4.47h0c49.68,23.27,73.45,47.57,82.76,70,19.07,46-22.7,84-26.67,89.08-2.36-2.68-4.11-7-3.74-13.82,0,0,42.11-78.87-49.92-135.82C-.06,9.54-.43,6.53.37,4.47Z"/><path class="cls-3" d="M52.73,149.73c3.91,2.3,5.17,6.65,6.71,10.55,1.4,3.56,3,6.76,7.09,7.75-21.26,8.9-17.84,22.63-24.92,22.27a16,16,0,0,1-5.43-1.37,31.25,31.25,0,0,1-8.45-5.67C34.78,179.13,49,160.31,52.73,149.73Z"/><path class="cls-4" d="M52.73,149.73c3.91,2.3,5.17,6.65,6.71,10.55-.46.3-13.35,9-23.26,28.64h0a31.25,31.25,0,0,1-8.45-5.67C34.78,179.13,49,160.31,52.73,149.73Z"/><path class="cls-5" d="M84.78,150c17.41-15.11,29.14-38.33,26.42-61.68-.67-5.76-9.43-3.68-8.77,2,2.34,20.06-9,40.24-23.74,53-4.39,3.8,1.72,10.42,6.09,6.63Z"/><circle class="cls-5" cx="103.33" cy="76.11" r="5.21"/><ellipse class="cls-5" cx="27.62" cy="9.77" rx="5.23" ry="9.95" transform="translate(10.17 33.3) rotate(-72.9)"/></g></svg>