<svg xmlns="http://www.w3.org/2000/svg" viewBox="0 0 162.33 190.3"><defs><style>.cls-1{fill:#f7e7a4;}.cls-2{fill:#fbcc2d;}.cls-3{fill:#e8b974;}.cls-4{fill:#ffad20;}.cls-5{fill:#41af1c;}.cls-6{fill:#348c14;}.cls-7{fill:#ffe885;}.cls-8{fill:#fff5d4;}</style></defs><g id="Layer_3" data-name="Layer 3"><path class="cls-1" d="M111.59,67.71C100,72.84,94.38,76.11,86.28,84c0,0-14-9-29.9-10.33-7.51-19.9-23.27-41-53.57-59.77C-.06,9.54-.43,6.53.37,4.47,2.06.15,9,0,9,0S87.17.77,111.6,67.71Z"/><path class="cls-2" d="M116.14,92.32h0c0,1.83-.14,3.63-.33,5.41h0C111.4,140.88,66.53,168,66.53,168a13.88,13.88,0,0,1-10.05-4.48L56,163c-2.1-2.71-3.6-6.86-3.26-13.24,0,0,12.86-24.08,8.84-55.24-.22-1.73-.5-3.47-.83-5.24a53,53,0,0,1,15.14-4.88A43.34,43.34,0,0,1,86.28,84,37.9,37.9,0,0,1,104,86.25a56.24,56.24,0,0,1,7.34,3.26Q113.77,90.82,116.14,92.32Z"/><path class="cls-3" d="M83.14,74.47A66.4,66.4,0,0,1,86.28,84s-14-9-29.9-10.33c-7.51-19.9-23.27-41-53.57-59.77C-.06,9.54-.43,6.53.37,4.47h0C50.06,27.75,73.84,52.05,83.14,74.47Z"/><path class="cls-4" d="M59.44,160.28c-1.43,1.55-2.48,2.66-3,3.27L56,163c-2.1-2.71-3.6-6.86-3.26-13.24,0,0,12.86-24.08,8.84-55.24-.22-1.73-.5-3.47-.83-5.24a53,53,0,0,1,15.14-4.88A43.34,43.34,0,0,1,86.28,84q.69,2.77,1.1,5.51C92.55,123.18,68.41,150.53,59.44,160.28Z"/><path class="cls-5" d="M52.73,149.73c3.91,2.3,5.17,6.65,6.71,10.55,1.4,3.56,3,6.76,7.09,7.75-21.26,8.9-17.84,22.63-24.92,22.27a16,16,0,0,1-5.43-1.37,31.25,31.25,0,0,1-8.45-5.67C34.78,179.13,49,160.31,52.73,149.73Z"/><path class="cls-6" d="M52.73,149.73c3.91,2.3,5.17,6.65,6.71,10.55-.46.3-13.35,9-23.26,28.64h0a31.25,31.25,0,0,1-8.45-5.67C34.78,179.13,49,160.31,52.73,149.73Z"/><path class="cls-7" d="M111.59,95.29c-.06,20.94-11.13,41.12-26.81,54.72-4.37,3.79-10.48-2.83-6.09-6.63,14.49-12.57,25.69-32.27,23.85-52,0-.35-.07-.69-.11-1a4.61,4.61,0,0,1,1.55-4.1,56.24,56.24,0,0,1,7.34,3.26A56,56,0,0,1,111.59,95.29Z"/><ellipse class="cls-8" cx="27.62" cy="9.77" rx="5.23" ry="9.95" transform="translate(10.17 33.3) rotate(-72.9)"/><path class="cls-8" d="M99.05,59.83c-7.66-19.52-23.78-37-44.18-42.37-5-1.33-5.81,6.68-.83,8,17.52,4.64,31.2,20.75,37.69,37.28,1.93,4.92,9.25,2,7.32-2.91Z"/><path class="cls-4" d="M86.28,89.64a47.89,47.89,0,0,0-24.71,4.85c-32.69,15.35-53.38,59.44-50.25,37.1,2.62,5.32,21.57-28.76,49.42-42.34a53,53,0,0,1,15.14-4.88A73.84,73.84,0,0,1,86.28,89.64Z"/><path class="cls-4" d="M115.81,97.75h0c-1.39-.87-2.79-1.69-4.22-2.45a54,54,0,0,0-9-3.9,37.58,37.58,0,0,0-15.16-1.87c-.37,0-.73.07-1.1.12,1.22-1.19-4.08-2.87,0-5.63A37.9,37.9,0,0,1,104,86.25a56.24,56.24,0,0,1,7.34,3.26q2.45,1.3,4.82,2.81h0c26.27,16.6,45,49.4,46.13,23.78C163.46,151.75,143.93,115.34,115.81,97.75Z"/><path class="cls-2" d="M86.28,84a43.34,43.34,0,0,0-10.4.36,53,53,0,0,0-15.14,4.88c-27.85,13.58-46.8,47.66-49.42,42.34-.89-1.79.09-8.08,3.22-21.18C22.09,78.77,40.23,72.3,56.38,73.68,72.29,75,86.28,84,86.28,84Z"/><path class="cls-2" d="M162.27,116.11c-1.17,25.62-19.86-7.18-46.13-23.78h0q-2.37-1.5-4.82-2.81A56.24,56.24,0,0,0,104,86.25,37.9,37.9,0,0,0,86.28,84c8.1-7.9,13.74-11.17,25.31-16.3h0c.83-.3,46.86-16.47,50.47,38.65A88.9,88.9,0,0,1,162.27,116.11Z"/></g></svg>