<svg xmlns="http://www.w3.org/2000/svg" viewBox="0 0 116.21 165.35"><defs><style>.cls-1{fill:#f7e7a4;}.cls-2{fill:#e8b974;}.cls-3{fill:#fff5d4;}</style></defs><g id="Layer_3" data-name="Layer 3"><path class="cls-1" d="M9,0S96.54.86,115.28,80.08c8.59,53.25-45.18,82.24-45.18,82.24s-9.54,5.9-13.63,1.23c-2.36-2.68-4.11-7-3.74-13.82,0,0,42.11-78.87-49.92-135.82C-.06,9.54-.43,6.53.37,4.47,2.06.15,9,0,9,0Z"/><path class="cls-2" d="M.37,4.47h0c49.68,23.27,73.45,47.57,82.76,70,19.07,46-22.7,84-26.67,89.08-2.36-2.68-4.11-7-3.74-13.82,0,0,42.11-78.87-49.92-135.82C-.06,9.54-.43,6.53.37,4.47Z"/><path class="cls-3" d="M107.2,79.15c-6.36-24.29-22.62-47.78-45.22-58-5.57-2.52-7.44,6.69-1.92,9.19,19.41,8.8,33,30.27,38.43,50.84,1.6,6.12,10.31,4.1,8.71-2Z"/><circle class="cls-3" cx="44.05" cy="17" r="5.21"/></g></svg>