<svg xmlns="http://www.w3.org/2000/svg" viewBox="0 0 45.71 107.1"><defs><style>.cls-1{fill:#15113e;}.cls-2{fill:#00a651;}.cls-3{fill:#00873a;}.cls-4{fill:#1e2a72;}.cls-5{fill:#cc914f;}.cls-6{fill:#8dc63f;}.cls-7{fill:#25afe5;}.cls-8{fill:#262262;}</style></defs><g id="Layer_3" data-name="Layer 3"><path class="cls-1" d="M34.74,80.26a114.2,114.2,0,0,1-10.4,24.9,0,0,0,0,1,0,0c-.11.22-1,1.92-1.42,1.92s-1.3-1.7-1.4-1.92a0,0,0,0,1,0,0,113.7,113.7,0,0,1-10.4-24.9c-.23-.78.51-1.5,1.5-1.5.4,0,.81,0,1.21,0a123.29,123.29,0,0,0,9,26.42.41.41,0,0,1,.06.11l.08.15.09-.17,0-.09c.86-1.66,5.6-11.27,9-26.41.39,0,.78,0,1.18,0C34.23,78.76,35,79.48,34.74,80.26Z"/><path class="cls-2" d="M32.21,60.67c-1.4,2.15-2.64,3.72-2.64,3.72A17.89,17.89,0,0,0,34,62.08a.54.54,0,0,1,.74.15l0,.05a.53.53,0,0,1,.05.33c-.07.67-.15,1.34-.23,2l0,.13a.57.57,0,0,1-.13.21,34.52,34.52,0,0,1-4.26,3.47,8.79,8.79,0,0,0,3.19-.23.53.53,0,0,1,.64.41.37.37,0,0,1,0,.21v.1l-.16,1,0,.11a.5.5,0,0,1-.21.35,31.61,31.61,0,0,1-3.89,2.48,11.28,11.28,0,0,0,2.9-.14.56.56,0,0,1,.62.46,1.15,1.15,0,0,1,0,.19c0,.12,0,.24-.07.35l-.12.68-.13.61a.56.56,0,0,1-.23.35,33.22,33.22,0,0,1-3,1.82,8.87,8.87,0,0,0,1.26,0,1.19,1.19,0,0,1,1.2,1.18,1.37,1.37,0,0,1,0,.19.44.44,0,0,1,0,.1s0,.06,0,.1c-3.42,15.14-8.16,24.75-9,26.41l0,.09c0,.06-.06.1-.07.13l0,0-.08-.15a.41.41,0,0,0-.06-.11,123.29,123.29,0,0,1-9-26.42.29.29,0,0,0,0-.09.28.28,0,0,1,0-.09,1.17,1.17,0,0,1,.88-1.34.92.92,0,0,1,.29,0,9.62,9.62,0,0,0,1.2,0c-1-.54-2-1.14-2.9-1.78A.54.54,0,0,1,13,75c0-.21-.09-.43-.13-.65s-.08-.43-.13-.66l-.06-.35a.54.54,0,0,1,.42-.65h.19a11.32,11.32,0,0,0,2.85.12,31.94,31.94,0,0,1-3.84-2.44.53.53,0,0,1-.21-.35l0-.15-.16-1v-.1a.55.55,0,0,1,.43-.64.5.5,0,0,1,.21,0,9,9,0,0,0,3.15.22A33.18,33.18,0,0,1,11.48,65a.55.55,0,0,1-.15-.24.28.28,0,0,1,0-.09c-.09-.66-.17-1.34-.25-2a.61.61,0,0,1,.06-.33.57.57,0,0,1,.39-.28.52.52,0,0,1,.38.09,17.7,17.7,0,0,0,4.35,2.28s-1.24-1.56-2.64-3.7a21.55,21.55,0,0,1-3.45-11.25c0-1.07,0-2.15,0-3.23C10.13,38.35,15.85,32,22.91,32h0C30,32,35.69,38.37,35.69,46.21c0,1.08,0,2.15,0,3.2A21.46,21.46,0,0,1,32.21,60.67Z"/><path class="cls-2" d="M6.16,49.29c.17,9.81,3.33,15.62,6.22,18.91l0,0L7.12,62.42c.51,6,2.72,9.88,5,12.35a18.43,18.43,0,0,0-3.23-.06,35.81,35.81,0,0,1,4.36,2.49c-.78.11-1.5.37-1.69,1,2.18.4,3.07,4.13,3.07,4.13l3.18-1.88c1,.74,1.62,1.24,1.62,1.24a6.85,6.85,0,0,0-1.12-3.48l1.12-7-1-.44c1.2-1.5,2.22-4.09-2.19-6.34C9.56,61,6.16,49.29,6.16,49.29Z"/><path class="cls-2" d="M16.27,36.63l6.58,21.84s.1-51.56,0-52.06C13.77,17.09,13.3,26,14.33,31.27c-1.27-2-2.79-5.33-4.18-10.93-2.48,4.33-.41,14,.78,18.62-1.37-1.09-3.22-3.43-4.74-8.46-1.5,22,10.08,33.59,10.08,33.59L12.84,39.91h0l3.06-4A8.14,8.14,0,0,0,16.27,36.63Z"/><path class="cls-3" d="M39.52,49.29c-.17,9.81-3.33,15.62-6.22,18.91l0,0,5.22-5.76c-.51,6-2.72,9.88-5,12.35a18.56,18.56,0,0,1,3.24-.06A35.81,35.81,0,0,0,32.4,77.2c.77.11,1.49.37,1.68,1-2.17.4-3.07,4.13-3.07,4.13l-3.18-1.88c-1,.74-1.62,1.24-1.62,1.24a6.81,6.81,0,0,1,1.13-3.48l-1.13-7,1-.44c-1.2-1.5-2.22-4.09,2.2-6.34C36.12,61,39.52,49.29,39.52,49.29Z"/><path class="cls-3" d="M29.44,36.92,22.85,58.77V6.41c9.09,10.68,9.56,19.84,8.53,25.15,1.27-2,2.79-5.33,4.18-10.93,2.48,4.33.41,14-.78,18.63,1.36-1.09,3.22-3.43,4.74-8.47,1.5,22-10.08,33.6-10.08,33.6L32.86,40.2h0l-3.06-4C29.6,36.67,29.44,36.92,29.44,36.92Z"/><path class="cls-4" d="M45.52,45.66S41,57.83,32.12,61.6l1-1A42.65,42.65,0,0,0,45.52,26c-2.06,5.36-4.59,7.85-6.45,9,1.62-4.88,4.44-15.22,1.06-19.83-1.88,6-4,9.52-5.68,11.64,1.4-5.65.76-15.41-11.6-26.78-12.36,11.37-13,20.81-11.6,26.46-1.72-2.11-3.79-5.67-5.68-11.63C2.2,19.44,5,29.77,6.64,34.66,4.78,33.5,2.25,31,.18,25.65A42.87,42.87,0,0,0,10.43,58c1.84,2.19,3.43,3.76,3.43,3.76C4.78,58.11.15,45.66.15,45.66.38,56.08,4.66,62.27,8.58,65.77h0L1.45,59.63A19.14,19.14,0,0,0,8.31,72.78a34.2,34.2,0,0,0-4.4-.06,54,54,0,0,1,5.93,2.65c-1.05.12-2,.4-2.29,1,3,.44,4.17,4.41,4.17,4.41h0a110.36,110.36,0,0,0,11,24.34l.07.12.11.16s0,0,0,0l.1-.14.06-.1C24.23,103.45,30.2,94,34.79,79a5,5,0,0,1,3.33-2.6c-.25-.62-1.23-.9-2.29-1a54.85,54.85,0,0,1,5.93-2.65,34,34,0,0,0-4.39.06,19.18,19.18,0,0,0,6.85-13.15l-7.09,6.13h0C41,62.26,45.29,56.08,45.52,45.66Z"/><path class="cls-2" d="M32.21,60.67c-1.4,2.15-2.64,3.72-2.64,3.72A17.89,17.89,0,0,0,34,62.08a.54.54,0,0,1,.74.15l0,.05a.53.53,0,0,1,.05.33c-.07.67-.15,1.34-.23,2l0,.13a.57.57,0,0,1-.13.21,34.52,34.52,0,0,1-4.26,3.47,8.79,8.79,0,0,0,3.19-.23.53.53,0,0,1,.64.41.37.37,0,0,1,0,.21v.1l-.16,1,0,.11a.5.5,0,0,1-.21.35,31.61,31.61,0,0,1-3.89,2.48,11.28,11.28,0,0,0,2.9-.14.56.56,0,0,1,.62.46,1.15,1.15,0,0,1,0,.19c0,.12,0,.24-.07.35l-.12.68-.13.61a.56.56,0,0,1-.23.35,33.22,33.22,0,0,1-3,1.82,8.87,8.87,0,0,0,1.26,0,1.19,1.19,0,0,1,1.2,1.18,1.37,1.37,0,0,1,0,.19.44.44,0,0,1,0,.1s0,.06,0,.1c-3.42,15.14-8.16,24.75-9,26.41l0,.09c0,.06-.06.1-.07.13l0,0-.08-.15a.41.41,0,0,0-.06-.11,123.29,123.29,0,0,1-9-26.42.29.29,0,0,0,0-.09.28.28,0,0,1,0-.09,1.17,1.17,0,0,1,.88-1.34.92.92,0,0,1,.29,0,9.62,9.62,0,0,0,1.2,0c-1-.54-2-1.14-2.9-1.78A.54.54,0,0,1,13,75c0-.21-.09-.43-.13-.65s-.08-.43-.13-.66l-.06-.35a.54.54,0,0,1,.42-.65h.19a11.32,11.32,0,0,0,2.85.12,31.94,31.94,0,0,1-3.84-2.44.53.53,0,0,1-.21-.35l0-.15-.16-1v-.1a.55.55,0,0,1,.43-.64.5.5,0,0,1,.21,0,9,9,0,0,0,3.15.22A33.18,33.18,0,0,1,11.48,65a.55.55,0,0,1-.15-.24.28.28,0,0,1,0-.09c-.09-.66-.17-1.34-.25-2a.61.61,0,0,1,.06-.33.57.57,0,0,1,.39-.28.52.52,0,0,1,.38.09,17.7,17.7,0,0,0,4.35,2.28s-1.24-1.56-2.64-3.7a21.55,21.55,0,0,1-3.45-11.25c0-1.07,0-2.15,0-3.23C10.13,38.35,15.85,32,22.91,32h0C30,32,35.69,38.37,35.69,46.21c0,1.08,0,2.15,0,3.2A21.46,21.46,0,0,1,32.21,60.67Z"/><path class="cls-2" d="M6.16,49.29c.17,9.81,3.33,15.62,6.22,18.91l0,0L7.12,62.42c.51,6,2.72,9.88,5,12.35a18.43,18.43,0,0,0-3.23-.06,35.81,35.81,0,0,1,4.36,2.49c-.78.11-1.5.37-1.69,1,2.18.4,3.07,4.13,3.07,4.13l3.18-1.88c1,.74,1.62,1.24,1.62,1.24a6.85,6.85,0,0,0-1.12-3.48l1.12-7-1-.44c1.2-1.5,2.22-4.09-2.19-6.34C9.56,61,6.16,49.29,6.16,49.29Z"/><path class="cls-2" d="M16.27,36.63l6.58,21.84s.1-51.56,0-52.06C13.77,17.09,13.3,26,14.33,31.27c-1.27-2-2.79-5.33-4.18-10.93-2.48,4.33-.41,14,.78,18.62-1.37-1.09-3.22-3.43-4.74-8.46-1.5,22,10.08,33.59,10.08,33.59L12.84,39.91h0l3.06-4A8.14,8.14,0,0,0,16.27,36.63Z"/><path class="cls-3" d="M39.52,49.29c-.17,9.81-3.33,15.62-6.22,18.91l0,0,5.22-5.76c-.51,6-2.72,9.88-5,12.35a18.56,18.56,0,0,1,3.24-.06A35.81,35.81,0,0,0,32.4,77.2c.77.11,1.49.37,1.68,1-2.17.4-3.07,4.13-3.07,4.13l-3.18-1.88c-1,.74-1.62,1.24-1.62,1.24a6.81,6.81,0,0,1,1.13-3.48l-1.13-7,1-.44c-1.2-1.5-2.22-4.09,2.2-6.34C36.12,61,39.52,49.29,39.52,49.29Z"/><path class="cls-3" d="M29.44,36.92,22.85,58.77V6.41c9.09,10.68,9.56,19.84,8.53,25.15,1.27-2,2.79-5.33,4.18-10.93,2.48,4.33.41,14-.78,18.63,1.36-1.09,3.22-3.43,4.74-8.47,1.5,22-10.08,33.6-10.08,33.6L32.86,40.2h0l-3.06-4C29.6,36.67,29.44,36.92,29.44,36.92Z"/><path class="cls-3" d="M32.21,60.67c-1.4,2.15-2.64,3.72-2.64,3.72A17.89,17.89,0,0,0,34,62.08a.54.54,0,0,1,.74.15l0,.05a.53.53,0,0,1,.05.33c-.07.67-.15,1.34-.23,2l0,.13a.57.57,0,0,1-.13.21,34.52,34.52,0,0,1-4.26,3.47,8.79,8.79,0,0,0,3.19-.23.53.53,0,0,1,.64.41.37.37,0,0,1,0,.21v.1l-.16,1,0,.11a.5.5,0,0,1-.21.35,31.61,31.61,0,0,1-3.89,2.48,11.28,11.28,0,0,0,2.9-.14.56.56,0,0,1,.62.46,1.15,1.15,0,0,1,0,.19c0,.12,0,.24-.07.35l-.12.68-.13.61a.56.56,0,0,1-.23.35,33.22,33.22,0,0,1-3,1.82,8.87,8.87,0,0,0,1.26,0,1.19,1.19,0,0,1,1.2,1.18,1.37,1.37,0,0,1,0,.19.44.44,0,0,1,0,.1s0,.06,0,.1c-3.42,15.14-8.16,24.75-9,26.41l0,.09c0,.06-.06.1-.07.13V32C30,32,35.69,38.37,35.69,46.21c0,1.08,0,2.15,0,3.2A21.46,21.46,0,0,1,32.21,60.67Z"/><path class="cls-5" d="M22.42,62.49C22,62.2,12.6,55.42,12.6,47c0-5.35,5.71-10.11,10.21-10.11S33,41.67,33,47c0,9.32-9.46,15.23-9.85,15.48l-.38.23Z"/><path class="cls-6" d="M22.81,37.59c4.21,0,9.54,4.53,9.54,9.44,0,9-9.54,14.91-9.54,14.91S13.27,55.17,13.27,47c0-4.91,5.33-9.44,9.54-9.44m0-1.34a11.15,11.15,0,0,0-7.26,3.24A10.64,10.64,0,0,0,11.93,47c0,8.73,9.69,15.71,10.11,16l.72.51.75-.46c.42-.26,10.18-6.38,10.18-16a10.67,10.67,0,0,0-3.61-7.54,11.24,11.24,0,0,0-7.27-3.24Z"/><path class="cls-7" d="M15.51,48.28c0,4.73,3.32,8.56,7.42,8.56s7.42-3.83,7.42-8.56S27,41.74,22.93,41.74,15.51,43.55,15.51,48.28Z"/><path class="cls-8" d="M17.16,47.65a6,6,0,0,0,4.35,5.85c.42.11.87-4.24,1.32-4.24.64,0,1.26,4.29,1.84,4.09a6,6,0,0,0,3.82-5.7c0-3.32-2.53-4.58-5.66-4.58S17.16,44.33,17.16,47.65Z"/></g></svg>