<svg id="Layer_1" data-name="Layer 1" xmlns="http://www.w3.org/2000/svg" viewBox="0 0 79.89 150"><defs><style>.cls-1{fill:#0f3244;}.cls-2{fill:#159ece;}.cls-3{fill:#078979;}.cls-4{fill:#ebf447;}.cls-5{fill:#efa02e;}.cls-6{fill:#25afe5;}.cls-7{fill:#262262;}.cls-8{fill:#4ce5a3;}</style></defs><path class="cls-1" d="M75.29,80.22s-9.55,4.15-15.85,11.16c2.29-.49,5.08,0,8.44,2.21A24.91,24.91,0,0,0,59.93,98c2.37,1.76,3.87,5.49,3.87,5.49-7.39,3-15.4,36.41-23,46-.69.95-1.27.55-1.63,0-7.65-9.54-15.65-43-23-45.95,0,0,1.5-3.73,3.88-5.49a25,25,0,0,0-8-4.4c3.37-2.22,6.15-2.7,8.44-2.21-6.3-7-15.85-11.16-15.85-11.16a31.48,31.48,0,0,1,9.66-1.38C8.54,74.85,5,68.16,2.84,62.47A57.73,57.73,0,0,1,0,52.07a22.28,22.28,0,0,0,5.45,5.86,50.1,50.1,0,0,1-2.28-8.59c0-.29-.11-.57-.15-.86,0-.08,0-.16,0-.24a27,27,0,0,1-.21-6.49A32.32,32.32,0,0,1,8.87,25.8c.07,4,1.76,5.7,1.76,5.7.53-6.36,4.14-10.61,9.75-14C17.77,21.93,18,28.4,18,28.4,18.49,18.42,39.74.19,39.94,0h0c.2.19,21.45,18.42,21.91,28.4,0,0,.26-6.47-2.35-10.91,5.61,3.4,9.22,7.65,9.75,14,0,0,1.69-1.74,1.77-5.7a32.26,32.26,0,0,1,6.09,16c.07.76.11,1.54.11,2.33a28.69,28.69,0,0,1-.32,4.16,2,2,0,0,1,0,.24l-.15.86a50.17,50.17,0,0,1-2.29,8.59,22,22,0,0,0,5.46-5.86S77.07,70.86,65.64,78.84A31.42,31.42,0,0,1,75.29,80.22Z"/><path class="cls-2" d="M68.25,82.13s-9.57,4.14-15.86,11.16c2.29-.49,5.08,0,8.44,2.21a24.78,24.78,0,0,0-8,4.4c2.38,1.76,3.88,5.49,3.88,5.49a7.72,7.72,0,0,0-7.35,1.83,11,11,0,0,0,4.13-1.12s-2.81,9.57-5.51,18.37a160.33,160.33,0,0,1-7.83,22.8l-.06.13-.09.18a1.54,1.54,0,0,0-.08-.19l-.08-.17a2,2,0,0,1-.09-.22q-1.76-4.22-3.31-8.53s0,0,0,0c-1.83-4.13-10.11-32.35-10.11-32.35a11,11,0,0,0,4.13,1.12,7.73,7.73,0,0,0-7.35-1.83s1.5-3.73,3.87-5.49a24.83,24.83,0,0,0-8-4.4c3.36-2.22,6.15-2.7,8.44-2.21-6.3-7-15.86-11.16-15.86-11.16a31.52,31.52,0,0,1,9.66-1.38C9.87,72.76,7,54,7,54c4.77,6.76,7.73,9.65,9.57,10.52-15.1-18.85-.7-36.79-.7-36.79a51.71,51.71,0,0,0,4.95,13.67c-.13-5.25,1.3-12.21,5.84-21.32a60.42,60.42,0,0,0-1.2,15.33C26.3,29,29.32,19.3,39.19,9.86c.19-.19.39-.37.6-.56l.2-.19.79.75C50.44,19.11,53.53,28.57,54.42,35a62,62,0,0,0-1.23-14.92c4.54,9.11,6,16.07,5.84,21.32A52.43,52.43,0,0,0,64,27.71s14.4,17.94-.71,36.79c1.84-.87,4.81-3.76,9.58-10.52,0,0-2.83,18.78-14.27,26.77A31.54,31.54,0,0,1,68.25,82.13Z"/><path class="cls-3" d="M68.25,82.13s-9.57,4.14-15.86,11.16c2.29-.49,5.08,0,8.44,2.21a24.78,24.78,0,0,0-8,4.4c2.38,1.76,3.88,5.49,3.88,5.49a7.72,7.72,0,0,0-7.35,1.83,11,11,0,0,0,4.13-1.12s-2.81,9.57-5.51,18.37a160.33,160.33,0,0,1-7.83,22.8l-.06.13-.09.18a1.54,1.54,0,0,0-.08-.19l-.08-.17a2,2,0,0,1-.09-.22V9.3l.2-.19.79.75C50.44,19.11,53.53,28.57,54.42,35a62,62,0,0,0-1.23-14.92c4.54,9.11,6,16.07,5.84,21.32A52.43,52.43,0,0,0,64,27.71s14.4,17.94-.71,36.79c1.84-.87,4.81-3.76,9.58-10.52,0,0-2.83,18.78-14.27,26.77A31.54,31.54,0,0,1,68.25,82.13Z"/><path class="cls-4" d="M59.46,70.11c1.47-1.2,3.19-2.66,5.17-4.44a7.87,7.87,0,0,1-7.17,1.69C65.9,63.36,68.17,52,68.17,52c-4.31,5.58-7.89,7.48-10.23,8.07a13.36,13.36,0,0,0,1-5.69c-1.79,3.11-2.94,4.11-3.68,4.28l-.1-.08c.81-1,3.55-4.8,2.61-9.24a19.87,19.87,0,0,1-4.28,2.91c.75-2.84.71-8.11-3.28-17.45,0,0,.79,11.39-2.37,14.76,2.71-5.91-7.92-21.73-7.92-21.73S29.32,43.61,32,49.52c-3.16-3.37-2.37-14.76-2.37-14.76-4,9.34-4,14.61-3.28,17.45A19.63,19.63,0,0,1,22.1,49.3c-1,4.61,2,8.54,2.69,9.35-.72,0-1.92-.93-3.86-4.31A13.2,13.2,0,0,0,22,60C19.6,59.44,16,57.54,11.72,52c0,0,2.27,11.4,10.71,15.4a7.87,7.87,0,0,1-7.17-1.69c2,1.78,3.7,3.24,5.16,4.44a44.06,44.06,0,0,0-8.7.1c5.53.7,10.78,4.31,14,7A27.9,27.9,0,0,0,17.52,77c4.84,0,11.56,5,15.05,8a39.3,39.3,0,0,0-8.21-.34A19,19,0,0,1,40,97.94,18.84,18.84,0,0,1,55.53,84.63a39.28,39.28,0,0,0-8.21.34c3.49-2.92,10.21-8,15-8a27.81,27.81,0,0,0-8.16.15c3.19-2.64,8.44-6.25,14-7A44.17,44.17,0,0,0,59.46,70.11Zm-5.84,4.42-1.54,3.29c-1.65.77-1.85,1.68-1.85,1.68l-4,5.74a8.26,8.26,0,0,0-2.65,1.28l-3.64,2.77-3.63-2.77a8.26,8.26,0,0,0-2.65-1.28l-4-5.74s-.21-.91-1.85-1.68l-1.54-3.29.32.22-2.52-7.89s-.33.14-.86.3a17.94,17.94,0,0,1,1.72-7,3.61,3.61,0,0,1-1,.15l1.29-1.69-.11,0L28,55.15h0s3.53-1.73,6.07-3.17a10.11,10.11,0,0,0,4.73,2.47v.07a4.83,4.83,0,0,0,1.11.06,4.75,4.75,0,0,0,1.11-.06v-.07A10,10,0,0,0,45.77,52c2.55,1.44,6.08,3.17,6.08,3.17h0l2,2.35L52.62,57l3.11,6.74v3.41l-2.44,7.61Z"/><path class="cls-5" d="M39.1,89.43C38.44,89,23,77.85,23,64.12c0-8.76,9.36-16.55,16.73-16.55s16.77,7.78,16.77,16.55c0,15.26-15.48,24.93-16.14,25.34l-.6.38Z"/><path class="cls-6" d="M27.84,66.17c0,7.74,5.43,14,12.14,14s12.21-6.27,12.21-14S46.74,55.48,40,55.48,27.84,58.44,27.84,66.17Z"/><path class="cls-7" d="M30.55,65.15a9.82,9.82,0,0,0,7.11,9.56c.7.18,1.42-6.94,2.17-6.94,1.05,0,2.05,7,3,6.7a9.85,9.85,0,0,0,6.27-9.32c0-5.45-4.16-7.49-9.27-7.49S30.55,59.7,30.55,65.15Z"/><path class="cls-8" d="M39.8,48.67c6.88,0,15.6,7.41,15.6,15.45,0,14.82-15.6,24.41-15.6,24.41S24.17,77.45,24.17,64.12c0-8,8.74-15.45,15.63-15.45m0-2.19A18.27,18.27,0,0,0,27.9,51.8,17.32,17.32,0,0,0,22,64.12c0,14.29,15.87,25.72,16.54,26.19l1.18.85L41,90.39C41.62,90,57.61,80,57.61,64.2a17.39,17.39,0,0,0-5.92-12.32A18.34,18.34,0,0,0,39.8,46.44Z"/></svg>