<svg id="Layer_1" data-name="Layer 1" xmlns="http://www.w3.org/2000/svg" viewBox="0 0 55.14 150"><defs><style>.cls-1{fill:#253784;}.cls-2{fill:#00a651;}.cls-3{fill:#00873a;}.cls-4{fill:#cc914f;}.cls-5{fill:#8dc63f;}.cls-6{fill:#25afe5;}.cls-7{fill:#262262;}</style></defs><path class="cls-1" d="M54.51,43.36C53.64,27.06,29.42,2,27.57.13V0l-.06.06L27.45,0V.13C25.56,2.06,1.37,27.07.51,43.36c-.82,15.28,21.52-3.06,26-6.85C28.89,38.47,55.37,59.54,54.51,43.36Z"/><path class="cls-1" d="M27.56,20.28h0C26.45,20.28-.15,21.75,0,50c0,0,.63,11.51,1.52,14.21v.08a31.3,31.3,0,0,0,3.33,7.07h0a35.93,35.93,0,0,0,2.58,3.57l.45.53.27.32h0c2.7,3.18,5,5.41,5,5.41a41.84,41.84,0,0,1-4.88-1.66c-.65-.27-1.3-.55-1.94-.87h0c-.83-.4-1.66-.83-2.56-1.32s-1.9,0-1.79.9a8.05,8.05,0,0,0,.24,1.47h0l.3,1.93a.87.87,0,0,0,.36.57,72,72,0,0,0,6.4,4.28c.89.53,1.8,1,2.7,1.55q-1.21.06-2.43,0a24.41,24.41,0,0,1-4.35-.45c-.8-.15-1.53.4-1.4,1.07l.43,2.06a1,1,0,0,0,.49.6c1.93,1.12,3.93,2.15,6,3.1l2.32,1H10.9a33,33,0,0,1-4.1-.14c-.8-.1-1.48.47-1.32,1.12.22,1,.45,1.88.7,2.82a.94.94,0,0,0,.49.58c2.43,1.3,4.61,2.3,5.65,2.75l.61.27h-.55a204.31,204.31,0,0,0,15,44l.1.2v-.2a5.3,5.3,0,0,1,.12-.75,205.1,205.1,0,0,1-.49-43.61,2,2,0,0,1,.49-1.15,1.94,1.94,0,0,0-2.14-.6,17,17,0,0,1-2,.58,57.18,57.18,0,0,0,3.74-4.35.92.92,0,0,0,.18-.68c-.1-.9-.22-1.84-.33-2.75a1.5,1.5,0,0,0,0-.3.94.94,0,0,0-1.22-.44,18.16,18.16,0,0,1-4.55,1.67,55.11,55.11,0,0,0,4.85-5.83.89.89,0,0,0,.15-.67l-.3-2a1,1,0,0,0-.1-.33.92.92,0,0,0-1.25-.34,15.65,15.65,0,0,1-5,2,57.12,57.12,0,0,0,5-7.68,1,1,0,0,0,.1-.62c-.2-1.08-.42-2.18-.65-3.33a.86.86,0,0,0-.33-.57.87.87,0,0,0-1.22.15l0,0a30.09,30.09,0,0,1-5.79,5.87S17.9,78,19,73.88a36.13,36.13,0,0,0,1-13.65l7.28-8.17L27.5,24.9h0l.16,27.16L35,60.28a35.73,35.73,0,0,0,1,13.65c1.16,4.06,2.33,7.18,2.33,7.18a28.77,28.77,0,0,1-5.78-5.83.89.89,0,0,0-1.24-.18h0a.91.91,0,0,0-.34.57c-.21,1.1-.43,2.2-.63,3.33a.89.89,0,0,0,.08.62,56.16,56.16,0,0,0,5,7.68,15.65,15.65,0,0,1-5-2,.9.9,0,0,0-1.23.33h0a1.06,1.06,0,0,0-.12.34l-.3,2a1,1,0,0,0,.17.66,52.51,52.51,0,0,0,4.92,5.9,18.24,18.24,0,0,1-4.55-1.66.93.93,0,0,0-1.22.43c0,.1-.06.2-.08.3-.12.92-.22,1.85-.32,2.75a.92.92,0,0,0,.18.68,57.05,57.05,0,0,0,3.8,4.27,18.17,18.17,0,0,1-2-.58,1.93,1.93,0,0,0-2.13.6,2.11,2.11,0,0,1,.48,1.15,205.09,205.09,0,0,1-.48,43.61,2.66,2.66,0,0,0,.1.75c.1.35,0,.1,0,.15l.08-.15c1.42-2.77,9.32-18.78,15-44H42.1l.7-.3c1.05-.47,3.19-1.44,5.58-2.72a1,1,0,0,0,.48-.58c.23-.94.48-1.87.7-2.82.15-.65-.53-1.22-1.32-1.12a29.46,29.46,0,0,1-4,.27H42.1l2.38-1.07c2-.93,4-2,5.9-3.06a1.06,1.06,0,0,0,.48-.6l.5-2.2c.13-.67-.6-1.22-1.4-1.07a25.92,25.92,0,0,1-4.3.45h-2.5c1-.52,1.87-1,2.78-1.58a69.37,69.37,0,0,0,6.34-4.25.89.89,0,0,0,.35-.57c.11-.63.2-1.3.3-1.93h0c.08-.48.15-1,.23-1.47.12-.81-1-1.35-1.78-.9s-1.75.92-2.57,1.32h0c-.63.3-1.27.58-1.92.85A42.35,42.35,0,0,1,42,81.13s2.25-2.24,5-5.42h0l.3-.37.41-.48a36,36,0,0,0,2.59-3.57h0a32.32,32.32,0,0,0,3.33-7.06v-.09c.88-2.7,1.53-14.21,1.53-14.21C55.26,21.77,28.66,20.28,27.56,20.28Z"/><path class="cls-1" d="M47.14,105.27a189.49,189.49,0,0,1-17.25,41.55h0c-.17.35-1.67,3.18-2.37,3.18s-2.16-2.83-2.33-3.18h0A190.42,190.42,0,0,1,7.74,105.27c-.37-1.3.85-2.51,2.5-2.51h2a204.31,204.31,0,0,0,15,44l.1.2a1.67,1.67,0,0,1,.12.23l.15-.28.08-.15c1.42-2.77,9.32-18.78,15-44,.66,0,1.31,0,2,0C46.29,102.82,47.52,104,47.14,105.27Z"/><path class="cls-2" d="M48.72,54V48.61c0-13.1-21.28-35.28-21.28-35.28S7.42,28.78,6.17,45.52a13.69,13.69,0,0,0,0,2.5c0,.19,0,.37,0,.56V54A36.13,36.13,0,0,0,12,72.73c2.33,3.56,4.4,6.16,4.4,6.16a29.35,29.35,0,0,1-7.25-3.8A.84.84,0,0,0,8.57,75a.83.83,0,0,0-.65.45.87.87,0,0,0-.1.55c.13,1.11.26,2.22.4,3.33v.17a1.11,1.11,0,0,0,.22.45,57.25,57.25,0,0,0,7.05,5.75,15.48,15.48,0,0,1-5.25-.39H9.86a.89.89,0,0,0-.7,1.06v.17l.26,1.66v.25a.91.91,0,0,0,.35.59,56.17,56.17,0,0,0,6.4,4.06,18.45,18.45,0,0,1-4.75-.2h-.3a.92.92,0,0,0-.71,1.1c.11.19.05.22.11.59a6,6,0,0,1,.22,1.1l.2,1.08a1,1,0,0,0,.4.58,52.63,52.63,0,0,0,4.82,3,13.35,13.35,0,0,1-2,0h-.49a2,2,0,0,0-1.31,2.22.29.29,0,0,0,0,.13.49.49,0,0,0,0,.17,203.77,203.77,0,0,0,15,44,1.24,1.24,0,0,0,.1.2,2.4,2.4,0,0,1,.11.23l.12-.21.08-.15c1.4-2.77,9.3-18.78,15-44v-.17a.49.49,0,0,1,0-.17,1.61,1.61,0,0,0,0-.31v0a2,2,0,0,0-2-2,14.72,14.72,0,0,1-2.1,0,54.05,54.05,0,0,0,5-3,.94.94,0,0,0,.38-.59l.2-1a6.33,6.33,0,0,0,.22-1.12l.1-.6a.76.76,0,0,0,0-.3h0a.91.91,0,0,0-1-.77,18.61,18.61,0,0,1-4.83.22,53.11,53.11,0,0,0,6.46-4.12.86.86,0,0,0,.37-.6v-.18l.28-1.67v-.15a1,1,0,0,0,0-.35.91.91,0,0,0-1.08-.7,14.86,14.86,0,0,1-5.32.24,54.94,54.94,0,0,0,7.1-5.8.77.77,0,0,0,.22-.35.67.67,0,0,0,0-.2c.15-1.1.28-2.22.4-3.33a1,1,0,0,0-.1-.55h0A.88.88,0,0,0,45.84,75a30.14,30.14,0,0,1-7.3,3.84s2.05-2.62,4.38-6.19A35.76,35.76,0,0,0,48.72,54Z"/><path class="cls-3" d="M48.75,45.52C47.51,28.78,27.49,13.33,27.49,13.33V42.2l.08.08v105l.12-.21.08-.15c1.4-2.77,9.3-18.78,15-44v-.17a.49.49,0,0,1,0-.17,1.61,1.61,0,0,0,0-.31v0a2,2,0,0,0-2-2,14.72,14.72,0,0,1-2.1,0,54.05,54.05,0,0,0,5-3,.94.94,0,0,0,.38-.59l.2-1a6.33,6.33,0,0,0,.22-1.12l.1-.6a.76.76,0,0,0,0-.3h0a.91.91,0,0,0-1-.77,18.61,18.61,0,0,1-4.83.22,53.11,53.11,0,0,0,6.46-4.12.86.86,0,0,0,.37-.6v-.18l.28-1.67v-.15a1,1,0,0,0,0-.35.91.91,0,0,0-1.08-.7,14.86,14.86,0,0,1-5.32.24,54.94,54.94,0,0,0,7.1-5.8.77.77,0,0,0,.22-.35.67.67,0,0,0,0-.2c.15-1.1.28-2.22.4-3.33a1,1,0,0,0-.1-.55h0A.88.88,0,0,0,45.84,75a30.14,30.14,0,0,1-7.3,3.84s2.05-2.62,4.38-6.19A35.76,35.76,0,0,0,48.72,54V48.61c0-.1,0-.21,0-.31A13.24,13.24,0,0,0,48.75,45.52Z"/><path class="cls-4" d="M26.56,75.71C25.89,75.23,10.17,63.93,10.17,50c0-8.92,9.54-16.85,17-16.85S44.29,41,44.29,50c0,15.53-15.77,25.38-16.43,25.79l-.62.39Z"/><path class="cls-5" d="M27.27,34.21c7,0,15.88,7.55,15.88,15.74,0,15.08-15.88,24.84-15.88,24.84S11.36,63.51,11.36,50c0-8.19,8.9-15.74,15.91-15.74m0-2.23A18.64,18.64,0,0,0,15.16,37.4,17.65,17.65,0,0,0,9.12,50C9.12,64.49,25.29,76.13,26,76.61l1.2.87,1.27-.79c.68-.41,17-10.61,17-26.66a17.69,17.69,0,0,0-6-12.55A18.6,18.6,0,0,0,27.27,32Z"/><path class="cls-6" d="M15.09,52c0,7.88,5.53,14.26,12.37,14.26S39.89,59.91,39.89,52,34.34,41.15,27.51,41.15,15.09,44.16,15.09,52Z"/><path class="cls-7" d="M17.86,51a10,10,0,0,0,7.23,9.73c.72.18,1.45-7.07,2.22-7.07,1.06,0,2.08,7.17,3.05,6.82A10,10,0,0,0,36.74,51c0-5.55-4.24-7.64-9.43-7.64S17.86,45.45,17.86,51Z"/></svg>