<svg xmlns="http://www.w3.org/2000/svg" viewBox="0 0 48.1 97.97"><defs><style>.cls-1{fill:#1e2a72;}.cls-2{fill:#00a651;}.cls-3{fill:#00873a;}.cls-4{fill:#cc914f;}.cls-5{fill:#8dc63f;}.cls-6{fill:#25afe5;}.cls-7{fill:#262262;}</style></defs><g id="Layer_3" data-name="Layer 3"><path class="cls-1" d="M48,29a10.79,10.79,0,0,0-1-1.6,1.18,1.18,0,0,0-1.48-.28c-2.56,1.38-4.66,2.56-6.07,3.37l4-11.83a1,1,0,0,0-.14-.93l-1.66-2.38a.57.57,0,0,0-.91,0l-5.14,8.7L38.39,13.3a1.58,1.58,0,0,0-.3-1.4l-1.56-2a1.07,1.07,0,0,0-1.78.21L30.82,20.65c.09-.39,1.7-7.58,1.18-10a33.39,33.39,0,0,1-4,8.13l2.56-12a2.25,2.25,0,0,0-.84-2.22L24.06,0h0L18.4,4.63a2.25,2.25,0,0,0-.84,2.22l2.56,12a33,33,0,0,1-4-8.13c-.53,2.39,1.09,9.58,1.18,10L13.34,10.1a1.06,1.06,0,0,0-1.77-.21L10,11.9a1.62,1.62,0,0,0-.31,1.4l2.78,10.76-5.13-8.7a.57.57,0,0,0-.91,0L4.77,17.71a1.06,1.06,0,0,0-.14.93l4,11.83c-1.41-.81-3.51-2-6.06-3.37a1.18,1.18,0,0,0-1.48.28,10,10,0,0,0-1,1.6.82.82,0,0,0,.09.85L8.75,41.1,2.08,36.81a.49.49,0,0,0-.76.33v1a1.33,1.33,0,0,0,.43,1L10,46.83a28.81,28.81,0,0,0-5.5-.32c3.24.28,11.4,6.72,11.4,6.72a22.92,22.92,0,0,1-5.33-2.4.66.66,0,0,0-.46-.08A.62.62,0,0,0,9.6,51a.5.5,0,0,0-.07.34c.09.71.19,1.42.3,2.11a.3.3,0,0,0,0,.1.61.61,0,0,0,.18.25,39.72,39.72,0,0,0,5.17,3.61,12.82,12.82,0,0,1-3.86-.24h-.26a.59.59,0,0,0-.53.67l0,.1.2,1,0,.16a.57.57,0,0,0,.26.37,41.59,41.59,0,0,0,4.7,2.56A16.27,16.27,0,0,1,12.27,62H12a.59.59,0,0,0-.52.69c0,.12.05.24.08.37s.11.46.16.69.1.46.16.68a.57.57,0,0,0,.28.37c1.15.67,2.33,1.29,3.55,1.86a14.43,14.43,0,0,1-1.47,0,2.19,2.19,0,0,0-.36,0,1.26,1.26,0,0,0-1.08,1.42.29.29,0,0,0,0,.09.3.3,0,0,1,0,.1A117.41,117.41,0,0,0,23.86,96l.07.12.09.16,0-.07.07-.11.06-.1c1-1.74,6.85-11.82,11-27.72l0-.1,0-.11a.67.67,0,0,0,0-.2,1.36,1.36,0,0,0-1.46-1.24,13.24,13.24,0,0,1-1.54,0c1.25-.58,2.46-1.22,3.64-1.91a.61.61,0,0,0,.28-.37l.15-.63c.05-.24.11-.48.15-.72s.06-.24.08-.36a.45.45,0,0,0,0-.2.66.66,0,0,0-.75-.49,16.2,16.2,0,0,1-3.55.15,41.13,41.13,0,0,0,4.76-2.6.54.54,0,0,0,.26-.37l0-.12.2-1,0-.1a.41.41,0,0,0,0-.22.66.66,0,0,0-.79-.43,12.74,12.74,0,0,1-3.9.24,40.12,40.12,0,0,0,5.21-3.65.52.52,0,0,0,.17-.22.5.5,0,0,0,0-.13c.11-.69.2-1.39.29-2.09A.48.48,0,0,0,38.5,51l0,0a.73.73,0,0,0-.91-.15,23,23,0,0,1-5.29,2.39c.57-.45,8.24-6.42,11.36-6.69a28.74,28.74,0,0,0-5.5.32l8.22-7.74a1.32,1.32,0,0,0,.42-1v-1a.48.48,0,0,0-.75-.33L39.35,41.1c3.52-4.63,7.5-9.85,8.57-11.27A.8.8,0,0,0,48,29ZM17.28,20.67Z"/><path class="cls-2" d="M43.62,32.16a10.76,10.76,0,0,0-.82-1.52.87.87,0,0,0-1.2-.27c-2.09,1.32-3.81,2.44-5,3.21L39.9,22.31a1.09,1.09,0,0,0-.12-.88l-1.35-2.26a.42.42,0,0,0-.74,0l-4.2,8.29v0l-.13-.15.14.12,2.27-10.25a1.76,1.76,0,0,0-.25-1.34L34.24,14a.81.81,0,0,0-1.45.2L29.58,24.23c.07-.37,1.39-7.22,1-9.5a34.23,34.23,0,0,1-3.28,7.74l2.09-11.39A2.34,2.34,0,0,0,28.66,9l-4.6-4.4h0L19.44,9a2.34,2.34,0,0,0-.69,2.11l2.09,11.39a33.77,33.77,0,0,1-3.28-7.74c-.43,2.28.89,9.13,1,9.5l-3.21-10a.81.81,0,0,0-1.45-.2l-1.27,1.91a1.72,1.72,0,0,0-.25,1.34l2.27,10.25-4.2-8.29a.42.42,0,0,0-.74,0L8.31,21.43a1.09,1.09,0,0,0-.11.88l3.26,11.27c-1.16-.77-2.87-1.89-5-3.21a.88.88,0,0,0-1.21.27,10.44,10.44,0,0,0-.81,1.52.91.91,0,0,0,.07.82c.89,1.35,4.13,6.32,7,10.74L6.11,39.63a.39.39,0,0,0-.62.31v1a1.33,1.33,0,0,0,.35.89l6.71,7.38a20.54,20.54,0,0,0-4.49-.31c2.65.28,9.31,6.41,9.31,6.41A18.24,18.24,0,0,1,13,53a.52.52,0,0,0-.38-.09.54.54,0,0,0-.39.28.61.61,0,0,0-.06.33c.08.67.16,1.34.25,2a.29.29,0,0,0,0,.09.49.49,0,0,0,.14.24,33.18,33.18,0,0,0,4.22,3.44,9,9,0,0,1-3.14-.23.81.81,0,0,0-.22,0,.54.54,0,0,0-.43.63l0,.11.15,1,0,.15a.56.56,0,0,0,.21.35,33.24,33.24,0,0,0,3.84,2.44,11.34,11.34,0,0,1-2.85-.13.56.56,0,0,0-.61.66c0,.12,0,.23.07.35l.12.66c0,.22.09.44.13.65a.56.56,0,0,0,.23.35c.94.64,1.91,1.23,2.9,1.77a9.63,9.63,0,0,1-1.2,0,1.36,1.36,0,0,0-.29,0,1.18,1.18,0,0,0-.88,1.35s0,.06,0,.09a.29.29,0,0,1,0,.09A123.26,123.26,0,0,0,23.9,96l.05.11.08.15a.28.28,0,0,1,0-.06.67.67,0,0,0,.06-.12l0-.08c.86-1.67,5.6-11.27,9-26.42,0,0,0-.06,0-.09a.43.43,0,0,0,0-.11.58.58,0,0,0,0-.19A1.18,1.18,0,0,0,32,68.06a8.75,8.75,0,0,1-1.25,0,30.8,30.8,0,0,0,3-1.81.54.54,0,0,0,.24-.35l.12-.61.12-.68c0-.12.05-.23.07-.35a.59.59,0,0,0,0-.19.56.56,0,0,0-.62-.46,11.2,11.2,0,0,1-2.89.14,32.72,32.72,0,0,0,3.88-2.48.5.5,0,0,0,.21-.35l0-.12.16-1,0-.09a.5.5,0,0,0,0-.21.53.53,0,0,0-.64-.41,9.26,9.26,0,0,1-3.19.23,33,33,0,0,0,4.26-3.48.5.5,0,0,0,.13-.21.42.42,0,0,0,0-.12c.09-.66.16-1.32.23-2a.54.54,0,0,0,0-.33l0,0a.54.54,0,0,0-.74-.14,17.69,17.69,0,0,1-4.32,2.28c.47-.43,6.73-6.11,9.28-6.38a20.65,20.65,0,0,0-4.5.31l6.71-7.38a1.28,1.28,0,0,0,.35-.89v-1a.39.39,0,0,0-.62-.31l-5.44,4.09,7-10.74A.89.89,0,0,0,43.62,32.16Zm-25.1-7.91Zm11,0h0l.1.07Zm1.15,31,0,0s0,0,0,0Z"/><path class="cls-1" d="M35.86,71.14A114.43,114.43,0,0,1,25.46,96v0c-.11.21-1,1.91-1.42,1.91s-1.3-1.7-1.4-1.91v0a113.92,113.92,0,0,1-10.4-24.9c-.23-.78.51-1.5,1.5-1.5.4,0,.81,0,1.21,0A122.64,122.64,0,0,0,23.9,96l.05.11.08.15.09-.17,0-.09c.86-1.67,5.6-11.27,9-26.42a11.57,11.57,0,0,0,1.18,0C35.35,69.64,36.09,70.36,35.86,71.14Z"/><path class="cls-3" d="M43.54,33l-7,10.74L42,39.63a.39.39,0,0,1,.62.31v1a1.28,1.28,0,0,1-.35.89l-6.71,7.38a20.65,20.65,0,0,1,4.5-.31c-2.55.27-8.81,6-9.28,6.38A17.69,17.69,0,0,0,35.08,53a.54.54,0,0,1,.74.14l0,0a.54.54,0,0,1,0,.33c-.07.68-.14,1.34-.23,2a.42.42,0,0,1,0,.12.5.5,0,0,1-.13.21,33,33,0,0,1-4.26,3.48,9.26,9.26,0,0,0,3.19-.23.53.53,0,0,1,.64.41.5.5,0,0,1,0,.21l0,.09-.16,1,0,.12a.5.5,0,0,1-.21.35,32.72,32.72,0,0,1-3.88,2.48,11.2,11.2,0,0,0,2.89-.14.56.56,0,0,1,.62.46.59.59,0,0,1,0,.19c0,.12,0,.23-.07.35l-.12.68-.12.61a.54.54,0,0,1-.24.35,30.8,30.8,0,0,1-3,1.81,8.75,8.75,0,0,0,1.25,0,1.18,1.18,0,0,1,1.2,1.17.58.58,0,0,1,0,.19.43.43,0,0,1,0,.11s0,.06,0,.09C29.76,84.77,25,94.37,24.16,96l0,.08a.67.67,0,0,1-.06.12V4.57L28.66,9a2.34,2.34,0,0,1,.69,2.11L27.26,22.47a34.23,34.23,0,0,0,3.28-7.74c.43,2.28-.89,9.13-1,9.5l3.21-10a.81.81,0,0,1,1.45-.2l1.27,1.91a1.76,1.76,0,0,1,.25,1.34L33.49,27.48l4.2-8.29a.42.42,0,0,1,.74,0l1.35,2.26a1.09,1.09,0,0,1,.12.88L36.64,33.58c1.15-.77,2.87-1.89,5-3.21a.87.87,0,0,1,1.2.27,10.76,10.76,0,0,1,.82,1.52A.89.89,0,0,1,43.54,33Z"/><path class="cls-4" d="M23.54,53.36c-.4-.29-9.82-7.06-9.82-15.45,0-5.35,5.71-10.11,10.21-10.11s10.21,4.75,10.21,10.11c0,9.31-9.46,15.23-9.85,15.48l-.38.23Z"/><path class="cls-5" d="M23.93,28.47c4.21,0,9.54,4.53,9.54,9.44,0,9.05-9.54,14.91-9.54,14.91s-9.54-6.77-9.54-14.91c0-4.91,5.33-9.44,9.54-9.44m0-1.34a11.15,11.15,0,0,0-7.26,3.24,10.63,10.63,0,0,0-3.62,7.54c0,8.73,9.69,15.7,10.11,16l.72.51.75-.46c.42-.26,10.18-6.38,10.18-16.05a10.65,10.65,0,0,0-3.61-7.54,11.19,11.19,0,0,0-7.27-3.24Z"/><path class="cls-6" d="M16.63,39.16c0,4.72,3.32,8.56,7.42,8.56s7.42-3.84,7.42-8.56-3.32-6.54-7.42-6.54S16.63,34.43,16.63,39.16Z"/><path class="cls-7" d="M18.28,38.53a6,6,0,0,0,4.35,5.85c.42.11.87-4.24,1.32-4.24.64,0,1.26,4.29,1.84,4.08a6,6,0,0,0,3.82-5.69C29.61,35.21,27.08,34,24,34S18.28,35.21,18.28,38.53Z"/></g></svg>