<svg xmlns="http://www.w3.org/2000/svg" viewBox="0 0 33.09 77.87"><defs><style>.cls-1{fill:#1e2a72;}.cls-2{fill:#00a651;}.cls-3{fill:#00873a;}.cls-4{fill:#cc914f;}.cls-5{fill:#8dc63f;}.cls-6{fill:#25afe5;}.cls-7{fill:#262262;}</style></defs><g id="Layer_3" data-name="Layer 3"><path class="cls-1" d="M16.54,0h0C15.87,0-.09.88,0,17.8c0,0,.38,6.91.91,8.53l0,.05a18.71,18.71,0,0,0,2,4.24h0a20.45,20.45,0,0,0,1.55,2.14l.27.32.16.19h0c1.62,1.91,3,3.25,3,3.25a25.34,25.34,0,0,1-2.93-1c-.39-.16-.78-.33-1.16-.52h0c-.5-.24-1-.5-1.54-.79s-1.14,0-1.07.54c0,.3.09.59.14.88h0l.18,1.16a.53.53,0,0,0,.22.34,41.42,41.42,0,0,0,3.84,2.57c.53.32,1.08.63,1.62.93a14.16,14.16,0,0,1-1.46,0,15.2,15.2,0,0,1-2.61-.27c-.48-.09-.92.24-.84.64l.26,1.24a.57.57,0,0,0,.29.36c1.16.67,2.36,1.29,3.58,1.86l1.39.62c-.42,0-.84,0-1.26,0A19.85,19.85,0,0,1,4.08,45c-.48-.06-.89.28-.79.67.13.57.27,1.13.42,1.69a.56.56,0,0,0,.29.35c1.46.78,2.77,1.38,3.39,1.65l.37.16-.33,0a122.47,122.47,0,0,0,9,26.41,1.34,1.34,0,0,0,.06.12v-.12c0-.14.05-.29.07-.45a123,123,0,0,1-.29-26.17,1.19,1.19,0,0,1,.29-.69,1.17,1.17,0,0,0-1.28-.36,9.73,9.73,0,0,1-1.2.35A33.44,33.44,0,0,0,16.32,46a.55.55,0,0,0,.11-.41c-.06-.54-.13-1.1-.2-1.65a.58.58,0,0,0,0-.18.56.56,0,0,0-.73-.26,11.09,11.09,0,0,1-2.73,1A33.34,33.34,0,0,0,15.68,41a.52.52,0,0,0,.09-.4l-.18-1.2a.66.66,0,0,0-.06-.2.55.55,0,0,0-.75-.2,9.34,9.34,0,0,1-3,1.21,34,34,0,0,0,3-4.61.59.59,0,0,0,.06-.37c-.12-.65-.25-1.31-.39-2a.5.5,0,0,0-.2-.34.52.52,0,0,0-.74.1,17.85,17.85,0,0,1-3.48,3.52s.71-1.87,1.39-4.35a21.79,21.79,0,0,0,.6-8.19l4.37-4.9.11-16.3h0l.1,16.3L21,24a21.59,21.59,0,0,0,.6,8.19C22.3,34.63,23,36.5,23,36.5A17.32,17.32,0,0,1,19.53,33a.53.53,0,0,0-.75-.1.54.54,0,0,0-.2.34c-.13.66-.26,1.32-.38,2a.52.52,0,0,0,.05.37,33.1,33.1,0,0,0,3,4.61,9.3,9.3,0,0,1-3-1.21.54.54,0,0,0-.74.2.68.68,0,0,0-.07.2l-.18,1.2a.58.58,0,0,0,.1.4,32.18,32.18,0,0,0,2.95,3.54,11.09,11.09,0,0,1-2.73-1,.56.56,0,0,0-.73.26,1.21,1.21,0,0,0-.05.18c-.07.55-.13,1.11-.19,1.65a.55.55,0,0,0,.11.41A33.44,33.44,0,0,0,19,48.61a9.73,9.73,0,0,1-1.2-.35,1.16,1.16,0,0,0-1.28.36,1.33,1.33,0,0,1,.29.69,123,123,0,0,1-.29,26.17q0,.24.06.45s0,.06,0,.09l.05-.09c.85-1.66,5.59-11.27,9-26.41l-.37,0,.42-.18c.63-.28,1.92-.86,3.35-1.63a.56.56,0,0,0,.29-.35c.14-.56.29-1.12.42-1.69.09-.39-.32-.73-.79-.67a17.34,17.34,0,0,1-2.39.16c-.43,0-.87,0-1.3,0l1.43-.64c1.2-.56,2.38-1.18,3.54-1.84a.61.61,0,0,0,.29-.36L30.82,41c.08-.4-.36-.73-.84-.64a15.9,15.9,0,0,1-2.58.27c-.5,0-1,0-1.5,0,.57-.31,1.12-.62,1.67-.95a42,42,0,0,0,3.8-2.55.51.51,0,0,0,.21-.34c.07-.38.12-.78.18-1.16h0c.05-.29.09-.58.14-.88.07-.49-.59-.81-1.07-.54s-1.05.55-1.54.79h0c-.38.18-.76.35-1.15.51a25.05,25.05,0,0,1-2.95,1s1.35-1.34,3-3.25h0l.18-.22.25-.29a22,22,0,0,0,1.55-2.14h0a19.14,19.14,0,0,0,2-4.24l0-.05c.53-1.62.92-8.53.92-8.53C33.16.89,17.2,0,16.54,0Z"/><path class="cls-1" d="M28.35,51A113.78,113.78,0,0,1,18,75.93v0c-.1.21-1,1.91-1.42,1.91s-1.3-1.7-1.4-1.91v0A114.29,114.29,0,0,1,4.71,51c-.22-.78.51-1.51,1.5-1.51.41,0,.81,0,1.22,0a122.47,122.47,0,0,0,9,26.41,1.34,1.34,0,0,0,.06.12,1.38,1.38,0,0,1,.07.14l.09-.17.05-.09c.85-1.66,5.59-11.27,9-26.41a11.64,11.64,0,0,0,1.18,0C27.84,49.53,28.58,50.26,28.35,51Z"/><path class="cls-2" d="M25.82,31.45c-1.4,2.14-2.63,3.71-2.63,3.71a18,18,0,0,0,4.38-2.3.53.53,0,0,1,.74.14l0,0a.61.61,0,0,1,.06.33c-.07.67-.15,1.34-.24,2a.27.27,0,0,1,0,.12.46.46,0,0,1-.13.21,33.16,33.16,0,0,1-4.26,3.48A9,9,0,0,0,26.93,39a.55.55,0,0,1,.65.42.74.74,0,0,1,0,.21v.09l-.17,1v.11a.53.53,0,0,1-.22.36,32.64,32.64,0,0,1-3.88,2.47,11.27,11.27,0,0,0,2.9-.13.54.54,0,0,1,.61.46.37.37,0,0,1,0,.18l-.06.36c0,.22-.09.45-.13.67l-.12.61a.56.56,0,0,1-.23.35,32.34,32.34,0,0,1-3,1.82,8.84,8.84,0,0,0,1.26,0,1.18,1.18,0,0,1,1.19,1.18,1.21,1.21,0,0,1,0,.19.36.36,0,0,0,0,.1l0,.1c-3.42,15.14-8.16,24.75-9,26.41l-.05.09-.07.13,0,0a1.38,1.38,0,0,0-.07-.14,1.34,1.34,0,0,1-.06-.12,122.47,122.47,0,0,1-9-26.41.36.36,0,0,1,0-.1.24.24,0,0,1,0-.08A1.18,1.18,0,0,1,8.27,48a1.55,1.55,0,0,1,.29,0,8,8,0,0,0,1.2,0,32.85,32.85,0,0,1-2.89-1.77.6.6,0,0,1-.24-.35l-.12-.65c0-.22-.09-.44-.13-.66s0-.24-.07-.35a.56.56,0,0,1,.43-.66h.18a11.34,11.34,0,0,0,2.85.12,33.6,33.6,0,0,1-3.84-2.44.53.53,0,0,1-.21-.35l0-.15-.16-1,0-.1A.54.54,0,0,1,6,39h.21a9.27,9.27,0,0,0,3.15.23,34.07,34.07,0,0,1-4.23-3.45A.59.59,0,0,1,5,35.51a.44.44,0,0,1,0-.1q-.13-1-.24-2a.48.48,0,0,1,.06-.33.49.49,0,0,1,.39-.27.49.49,0,0,1,.37.08,17.54,17.54,0,0,0,4.35,2.28s-1.24-1.56-2.64-3.7A21.64,21.64,0,0,1,3.77,20.21c0-1.07,0-2.14,0-3.23,0-7.85,5.72-14.22,12.78-14.22h0C23.59,2.78,29.3,9.14,29.3,17c0,1.08,0,2.15,0,3.21A21.47,21.47,0,0,1,25.82,31.45Z"/><path class="cls-3" d="M25.82,31.45c-1.4,2.14-2.63,3.71-2.63,3.71a18,18,0,0,0,4.38-2.3.53.53,0,0,1,.74.14l0,0a.61.61,0,0,1,.06.33c-.07.67-.15,1.34-.24,2a.27.27,0,0,1,0,.12.46.46,0,0,1-.13.21,33.16,33.16,0,0,1-4.26,3.48A9,9,0,0,0,26.93,39a.55.55,0,0,1,.65.42.74.74,0,0,1,0,.21v.09l-.17,1v.11a.53.53,0,0,1-.22.36,32.64,32.64,0,0,1-3.88,2.47,11.27,11.27,0,0,0,2.9-.13.54.54,0,0,1,.61.46.37.37,0,0,1,0,.18l-.06.36c0,.22-.09.45-.13.67l-.12.61a.56.56,0,0,1-.23.35,32.34,32.34,0,0,1-3,1.82,8.84,8.84,0,0,0,1.26,0,1.18,1.18,0,0,1,1.19,1.18,1.21,1.21,0,0,1,0,.19.36.36,0,0,0,0,.1l0,.1c-3.42,15.14-8.16,24.75-9,26.41l-.05.09-.07.13V2.76C23.59,2.78,29.3,9.14,29.3,17c0,1.08,0,2.15,0,3.21A21.47,21.47,0,0,1,25.82,31.45Z"/><path class="cls-4" d="M16,33.26c-.4-.29-9.83-7.07-9.83-15.46,0-5.35,5.72-10.11,10.22-10.11S26.64,12.44,26.64,17.8c0,9.32-9.46,15.23-9.86,15.48l-.37.23Z"/><path class="cls-5" d="M16.43,8.36c4.2,0,9.53,4.53,9.53,9.44,0,9.05-9.53,14.91-9.53,14.91S6.88,25.94,6.88,17.8c0-4.91,5.34-9.44,9.55-9.44m0-1.34a11.19,11.19,0,0,0-7.27,3.25A10.61,10.61,0,0,0,5.54,17.8c0,8.73,9.7,15.71,10.11,16l.72.52.76-.47c.41-.25,10.18-6.37,10.18-16a10.61,10.61,0,0,0-3.62-7.53A11.18,11.18,0,0,0,16.43,7Z"/><path class="cls-6" d="M9.12,19.05c0,4.73,3.32,8.56,7.42,8.56S24,23.78,24,19.05s-3.33-6.53-7.43-6.53S9.12,14.33,9.12,19.05Z"/><path class="cls-7" d="M10.78,18.43a6,6,0,0,0,4.34,5.84c.43.11.87-4.24,1.33-4.24.64,0,1.25,4.3,1.83,4.09a6,6,0,0,0,3.83-5.69c0-3.33-2.54-4.58-5.66-4.58S10.78,15.1,10.78,18.43Z"/></g></svg>