<svg id="Layer_1" data-name="Layer 1" xmlns="http://www.w3.org/2000/svg" viewBox="0 0 69.36 150"><defs><style>.cls-1{fill:#172568;}.cls-2{fill:#15ad90;}.cls-3{fill:#0a9157;}.cls-4{fill:#cc914f;}.cls-5{fill:#ebf447;}.cls-6{fill:#25afe5;}.cls-7{fill:#262262;}</style></defs><path class="cls-1" d="M69,65,50.24,86.22A58.62,58.62,0,0,0,69,37c-3.12,7.63-7,11.17-9.77,12.81,2.45-7,6.72-21.66,1.6-28.23C58,30.09,54.8,35.1,52.25,38.12c2.13-8,1.16-21.93-17.57-38.12C16,16.19,15,29.62,17.1,37.67c-2.61-3-5.74-8.07-8.61-16.56-5.1,6.52-.86,21.23,1.62,28.19C7.3,47.65,3.46,44.09.33,36.47A58.6,58.6,0,0,0,15.86,82.52C18.65,85.64.28,65,.28,65,.63,79.79,7.11,88.6,13.05,93.58h0L2.25,84.84a26.78,26.78,0,0,0,10.39,18.72A54.8,54.8,0,0,0,6,103.48a84.29,84.29,0,0,1,9,3.77c-1.59.17-3,.57-3.47,1.42,4.55.63,6.32,6.28,6.32,6.28h0A152.48,152.48,0,0,0,34.48,149.6l.11.17.16.23h0l.15-.2.1-.14c1.77-2.44,10.81-15.89,17.77-37.24a7.49,7.49,0,0,1,5-3.7c-.38-.89-1.87-1.28-3.47-1.43a86.41,86.41,0,0,1,9-3.77,52.69,52.69,0,0,0-6.65.09A26.84,26.84,0,0,0,67.06,84.89L56.32,93.61h0C62.18,88.59,68.68,79.79,69,65Z"/><path class="cls-2" d="M53.63,70.45V66c0-10.87-8.4-19.71-18.86-19.71h0c0-17.68,0-35.16,0-35.5C21.27,25.63,20.58,38,22.1,45.29,20.22,42.52,18,37.9,15.93,30.13c-3.66,6-.61,19.42,1.15,25.83-2-1.52-4.75-4.76-7-11.74C8.58,65,16,79.06,20.91,85.93l.14.22c2.07,3,3.9,5.13,3.9,5.13l-.1,0C15,86.44,10,70.28,10,70.28c.25,13.53,4.86,21.57,9.11,26.15h0l-7.68-7.94c.75,8.32,4,13.7,7.38,17.13a28.15,28.15,0,0,0-4.77-.08A54.46,54.46,0,0,1,20.51,109c-1.16.15-2.22.51-2.5,1.39,3.22.55,4.53,5.73,4.53,5.73l.24-.14A164.71,164.71,0,0,0,34.84,147.7a.46.46,0,0,1,.09.15l.12.21s.1-.1.1-.18v-.13c1.24-2.3,8.24-15.63,13.29-36.62v-.54h0A1.71,1.71,0,0,0,46.66,109a14.43,14.43,0,0,1-1.86,0,47,47,0,0,0,4.43-2.53.72.72,0,0,0,.34-.48l.19-.85.18-.94a.76.76,0,0,0,.11-.48v-.27a.83.83,0,0,0-.92-.64,17.52,17.52,0,0,1-4.28.2,48.68,48.68,0,0,0,5.74-3.44A.67.67,0,0,0,50.9,99v-.15l.24-1.39v-.14a.48.48,0,0,0,0-.29v0a.79.79,0,0,0-.94-.55,13.56,13.56,0,0,1-4.71.32A49.34,49.34,0,0,0,51.77,92a.7.7,0,0,0,.19-.29v-.18c.12-.92.24-1.84.34-2.77a.67.67,0,0,0-.07-.46v-.07A.82.82,0,0,0,51.14,88a26.83,26.83,0,0,1-6.54,3.2s1.83-2.17,3.9-5.15A28.48,28.48,0,0,0,53.63,70.45Z"/><path class="cls-3" d="M44.7,91.1c.17-.2.54-.66,1.06-1.32,4-4.57,15.36-19.93,13.53-45.15-2.25,7-5,10.23-7,11.74C54.05,50,57.1,36.54,53.44,30.53c-2,7.77-4.3,12.39-6.17,15.16,1.52-7.36.83-20.06-12.59-34.88V83.43l.37-1.15v65.78s.1-.1.1-.18v-.13c1.2-2.22,7.77-14.74,12.77-34.53a5.18,5.18,0,0,1,3.34-2.84c-.28-.88-1.35-1.24-2.48-1.39a52,52,0,0,1,6.43-3.42,28.27,28.27,0,0,0-4.78.08c3.37-3.43,6.63-8.81,7.38-17.13l-7.71,8C54.37,92,59,83.89,59.29,70.28,59.29,70.28,54.38,86.14,44.7,91.1Z"/><path class="cls-4" d="M34.06,85.5C33.4,85,18.58,74.35,18.58,61.07c0-8.44,9-16,16.1-16s16.07,7.54,16.07,16c0,14.7-14.92,24-15.54,24.41l-.6.36Z"/><path class="cls-5" d="M34.68,46.23c6.64,0,15,7.14,15,14.88,0,14.2-15,23.52-15,23.52s-15-10.68-15-23.56c0-7.75,8.41-14.89,15.05-14.89m0-2.11a17.5,17.5,0,0,0-11.45,5.11,16.74,16.74,0,0,0-5.71,11.89c0,13.76,15.28,24.77,15.94,25.23l1.14.8,1.18-.72c.66-.41,16.06-10.06,16.06-25.23a16.87,16.87,0,0,0-5.7-11.9,17.7,17.7,0,0,0-11.46-5.1Z"/><path class="cls-6" d="M23.16,63.09c0,7.46,5.24,13.5,11.71,13.5s11.7-6,11.7-13.5-5.28-10.32-11.7-10.32S23.16,55.63,23.16,63.09Z"/><path class="cls-7" d="M25.77,62.09a9.47,9.47,0,0,0,6.86,9.23c.66.17,1.37-6.69,2.08-6.69,1,0,2,6.77,2.9,6.45a9.48,9.48,0,0,0,6-9c0-5.23-4-7.22-8.93-7.22S25.77,56.86,25.77,62.09Z"/></svg>