<svg xmlns="http://www.w3.org/2000/svg" viewBox="0 0 76.12 83.35"><defs><style>.cls-1{fill:#fdb913;}.cls-2{fill:#c97235;}.cls-3{fill:#d8994e;}.cls-4{fill:#b75f2e;}.cls-5{fill:#e7883d;}.cls-6{fill:#f7941d;}.cls-7{fill:#be4047;}.cls-8{fill:#2a953c;}.cls-9{fill:#39b54a;}</style></defs><g id="Layer_3" data-name="Layer 3"><path class="cls-1" d="M70.24,20.47c-.34.78-.69,1.61-1.07,2.5-1.23,2.83-2.68,6.17-4.28,9.79-3.35,7.58-7.33,16.41-11.23,24.55-6.72,14-13.18,26-15.6,26-1.52,0-4.64-4.75-8.42-11.76-3-5.64-6.5-12.75-9.9-20-1.86-4-3.7-8-5.45-11.91l-2.1-4.71q-1.06-2.4-2-4.65a0,0,0,0,0,0,0v0C8.48,26.51,7,23.17,5.88,20.47a5.12,5.12,0,0,0,.56,0s.23-.13.67-.34c2.71-1.31,13.55-5.95,31-5.95a83.43,83.43,0,0,1,23.6,3.2,43.69,43.69,0,0,1,8,3.09A5.25,5.25,0,0,0,70.24,20.47Z"/><path class="cls-2" d="M76.12,9.85v4.2a6.43,6.43,0,0,1-5.88,6.42,5.25,5.25,0,0,1-.56,0s-11.37-6.29-31.62-6.29a91.14,91.14,0,0,0-9.75.51l-.29,0C14.09,16.27,6.44,20.5,6.44,20.5a5.12,5.12,0,0,1-.56,0A6.48,6.48,0,0,1,0,14.05V9.85C0,4,15,0,38.06,0A136.53,136.53,0,0,1,60.18,1.57C70.25,3.25,76.12,6.19,76.12,9.85Z"/><circle class="cls-3" cx="7.3" cy="10.25" r="3.84"/><circle class="cls-3" cx="15.37" cy="7.17" r="1.94"/><path class="cls-4" d="M76.12,9.85v4.2a6.43,6.43,0,0,1-5.88,6.42,5.25,5.25,0,0,1-.56,0s-11.37-6.29-31.62-6.29a91.14,91.14,0,0,0-9.75.51c3.57-.42,39.21-4.81,31.87-13.15C70.25,3.25,76.12,6.19,76.12,9.85Z"/><path class="cls-5" d="M42.45,38c.68-5.54,6.21-5.76,10.56-6s8.86-1.49,10.89-5.62c1.67-3.39-3.41-6.38-5.09-3-1,2.05-3.25,2.52-5.37,2.67-2.94.2-5.93,0-8.74,1.05A12.83,12.83,0,0,0,36.55,38C36.09,41.72,42,41.69,42.45,38Z"/><path class="cls-6" d="M69.68,20.5a43.64,43.64,0,0,0-8-3.09,1.78,1.78,0,0,0,.63.58A8.43,8.43,0,0,1,66,27.3C65,31.4,62,33.89,59.47,37a17.76,17.76,0,0,0-1.84,2.66,2.58,2.58,0,0,0-3.4,1.21c-2.29,5.86-8.56,5.25-13.17,7.38a12.13,12.13,0,0,0-6.55,12.34c.44,3.71,5.88,3.76,5.43,0a6.86,6.86,0,0,1,1.88-6c1.69-1.55,4.23-1.7,6.3-2.26A19.38,19.38,0,0,0,55,49c-1.17,2.85-3.5,5.06-5.63,7.23A26.3,26.3,0,0,0,43.06,65,27.84,27.84,0,0,0,42.13,68c-.7,1.78.56,4.55-2.81,6.75s-5.07-1.52-5.66-2.58S32.54,70,32,68.91s-.77-2-1.27-3c-2.34-6.83-7.42-12.23-10.26-18.81a2.74,2.74,0,0,0,3.67-1.93A10.8,10.8,0,0,1,25.32,42c.75-1.15,1.89-1.33,3.15-1.67,2.55-.67,5.09-1.77,6.27-4.29,1.61-3.42-3.48-6.42-5.09-3-.57,1.22-1.87,1.34-3.07,1.66a11.91,11.91,0,0,0-4,1.74,10.61,10.61,0,0,0-3.6,5.63,25.8,25.8,0,0,0-2.14-6.84,2.5,2.5,0,0,0,1.7-2.65c-.09-1.57-.48-3.92,1.19-4.5,1.9-.65,4.18-.35,6.16-.5,3.39-.27,6.8-1.15,9-3.88,2.39-2.92-1.76-7.11-4.17-4.17-2.88,3.5-8.67,1.78-12.61,2.86-3.44.95-4.92,3.49-5.38,6.52-.45-1.14-.73-2.34-1.11-3.54-.68-2.13-2.35-4.66-4.52-5.19-.44.21-.67.34-.67.34a5.12,5.12,0,0,1-.56,0c1.16,2.7,2.6,6,4.24,9.77v0a0,0,0,0,1,0,0q1,2.25,2,4.65l2.1,4.71c1.75,3.88,3.59,7.92,5.45,11.91,3.4,7.29,6.86,14.4,9.9,20,3.78,7,6.9,11.76,8.42,11.76,2.42,0,8.88-12,15.6-26,3.9-8.14,7.88-17,11.23-24.55,1.6-3.62,3-7,4.28-9.79.38-.89.73-1.72,1.07-2.5A5.25,5.25,0,0,1,69.68,20.5Z"/><path class="cls-7" d="M70.24,20.47c-.34.78-.69,1.61-1.07,2.5-2.32-5.63-10.3-4.91-13.42-3.72S34.68,14.62,24.59,17s-3.11,4-10.24,4.6c-6.82.57-4.44,8-4.23,8.62C8.48,26.51,7,23.17,5.88,20.47a5.12,5.12,0,0,0,.56,0s11.37-6.29,31.62-6.29S69.68,20.5,69.68,20.5A5.25,5.25,0,0,0,70.24,20.47Z"/><path class="cls-8" d="M55.92,34.33a5.18,5.18,0,0,1-4.44,1,11.68,11.68,0,0,1-5-2.76c-2.51-2.22-5.74-7.42-3.5-10a8,8,0,0,1,2.6-1.77,4.11,4.11,0,0,1,1.36-.41c2.14.17,2.09,2.54,1.52,5.16a5.65,5.65,0,0,0,1.82,5.22,8.1,8.1,0,0,0,5.25,2A.9.9,0,0,1,55.92,34.33Z"/><path class="cls-8" d="M33.44,39c-.72,3.73-2.63,8.27-6.3,8.37a.81.81,0,0,1-.65-.46,1.07,1.07,0,0,1,.12-1.2,10.54,10.54,0,0,0,2.95-5.52c.2-1,.41-4-1.45-5.86s-3.2-3.89-1.64-5.58a5.44,5.44,0,0,1,2.11-.85,5.63,5.63,0,0,1,2.12-.1C33.82,28.4,34.16,35.26,33.44,39Z"/><path class="cls-8" d="M45.58,62.91c-2.1,3-5.49,6.14-8.73,5.18-.15,0-.31-.1-.47-.16a1,1,0,0,1,.21-1.73,10.52,10.52,0,0,0,5-3.8c.62-.88,2-3.48,1.1-5.94s-1.27-4.7.61-5.66l.21-.1a6.58,6.58,0,0,1,4.25.88C50.3,53.42,47.78,59.81,45.58,62.91Z"/><path class="cls-9" d="M53.45,34.33a5,5,0,0,1-2,1,11.68,11.68,0,0,1-5-2.76c-2.51-2.22-5.74-7.42-3.5-10a8,8,0,0,1,2.6-1.77c1,.82.86,2.71.41,4.75a5.65,5.65,0,0,0,1.82,5.22,8.1,8.1,0,0,0,5.25,2A.9.9,0,0,1,53.45,34.33Z"/><path class="cls-9" d="M31,39c-.59,3-2,6.65-4.48,7.91a1.07,1.07,0,0,1,.12-1.2,10.54,10.54,0,0,0,2.95-5.52c.2-1,.41-4-1.45-5.86s-3.2-3.89-1.64-5.58a5.44,5.44,0,0,1,2.11-.85C31.37,28.92,31.67,35.4,31,39Z"/><path class="cls-9" d="M43.11,62.91c-1.56,2.21-3.85,4.54-6.26,5.18-.15,0-.31-.1-.47-.16a1,1,0,0,1,.21-1.73,10.52,10.52,0,0,0,5-3.8c.62-.88,2-3.48,1.1-5.94s-1.27-4.7.61-5.66a5.56,5.56,0,0,1,2,.78C47.83,53.42,45.31,59.81,43.11,62.91Z"/></g></svg>