<svg xmlns="http://www.w3.org/2000/svg" viewBox="0 0 76.12 83.35"><defs><style>.cls-1{fill:#fdb913;}.cls-2{fill:#c97235;}.cls-3{fill:#d8994e;}.cls-4{fill:#b75f2e;}.cls-5{fill:#f7941d;}.cls-6{fill:#be4047;}.cls-7{fill:#d07374;}.cls-8{fill:#37404f;}.cls-9{fill:#2a953c;}.cls-10{fill:#39b54a;}.cls-11{fill:#ddc1af;}.cls-12{fill:#ead5ca;}</style></defs><g id="Layer_3" data-name="Layer 3"><path class="cls-1" d="M70.24,20.47c-.34.78-.69,1.61-1.07,2.5-1.23,2.83-2.68,6.17-4.28,9.79-3.35,7.58-7.33,16.41-11.23,24.55-6.72,14-13.18,26-15.6,26-1.52,0-4.64-4.75-8.42-11.76-3-5.64-6.5-12.75-9.9-20-1.86-4-3.7-8-5.45-11.91l-2.1-4.71q-1.06-2.4-2-4.65a0,0,0,0,0,0,0v0C8.48,26.51,7,23.17,5.88,20.47a5.12,5.12,0,0,0,.56,0s.23-.13.67-.34c2.71-1.31,13.55-5.95,31-5.95a83.43,83.43,0,0,1,23.6,3.2,43.69,43.69,0,0,1,8,3.09A5.25,5.25,0,0,0,70.24,20.47Z"/><path class="cls-2" d="M76.12,9.85v4.2a6.43,6.43,0,0,1-5.88,6.42,5.25,5.25,0,0,1-.56,0s-11.37-6.29-31.62-6.29a91.14,91.14,0,0,0-9.75.51l-.29,0C14.09,16.27,6.44,20.5,6.44,20.5a5.12,5.12,0,0,1-.56,0A6.48,6.48,0,0,1,0,14.05V9.85C0,4,15,0,38.06,0A136.53,136.53,0,0,1,60.18,1.57C70.25,3.25,76.12,6.19,76.12,9.85Z"/><circle class="cls-3" cx="7.3" cy="10.25" r="3.84"/><circle class="cls-3" cx="15.37" cy="7.17" r="1.94"/><path class="cls-4" d="M76.12,9.85v4.2a6.43,6.43,0,0,1-5.88,6.42,5.25,5.25,0,0,1-.56,0s-11.37-6.29-31.62-6.29a91.14,91.14,0,0,0-9.75.51c3.57-.42,39.21-4.81,31.87-13.15C70.25,3.25,76.12,6.19,76.12,9.85Z"/><path class="cls-5" d="M42.45,38c.68-5.54,6.21-5.76,10.56-6s8.86-1.49,10.89-5.62c1.67-3.39-3.41-6.38-5.09-3-1,2.05-3.25,2.52-5.37,2.67-2.94.2-5.93,0-8.74,1.05A12.83,12.83,0,0,0,36.55,38C36.09,41.72,42,41.69,42.45,38Z"/><path class="cls-5" d="M69.68,20.5a43.64,43.64,0,0,0-8-3.09,1.78,1.78,0,0,0,.63.58A8.41,8.41,0,0,1,66,27.3C65,31.4,62,33.89,59.47,37a17.76,17.76,0,0,0-1.84,2.66,2.58,2.58,0,0,0-3.4,1.21c-2.29,5.86-8.56,5.25-13.17,7.38a12.13,12.13,0,0,0-6.55,12.34c.44,3.71,5.88,3.76,5.43,0a6.86,6.86,0,0,1,1.88-6c1.69-1.55,4.23-1.7,6.3-2.26A19.38,19.38,0,0,0,55,49c-1.17,2.85-3.5,5.06-5.63,7.23A26.3,26.3,0,0,0,43.06,65,27.84,27.84,0,0,0,42.13,68c-.7,1.78.56,4.55-2.81,6.75s-5.07-1.52-5.66-2.58S32.54,70,32,68.91s-.77-2-1.27-3c-2.34-6.83-7.42-12.23-10.26-18.81a2.74,2.74,0,0,0,3.67-1.93A10.8,10.8,0,0,1,25.32,42c.75-1.15,1.89-1.33,3.15-1.67,2.55-.67,5.09-1.77,6.27-4.29,1.61-3.42-3.48-6.42-5.09-3-.57,1.22-1.87,1.34-3.07,1.66a11.91,11.91,0,0,0-4,1.74,10.61,10.61,0,0,0-3.6,5.63,25.8,25.8,0,0,0-2.14-6.84,2.5,2.5,0,0,0,1.7-2.65c-.09-1.57-.48-3.92,1.19-4.5,1.9-.65,4.18-.35,6.16-.5,3.39-.27,6.8-1.15,9-3.88,2.39-2.92-1.76-7.11-4.17-4.17-2.88,3.5-8.67,1.78-12.61,2.86-3.44.95-4.92,3.49-5.38,6.52-.45-1.15-.73-2.34-1.11-3.54-.68-2.13-2.35-4.66-4.52-5.19-.44.21-.67.34-.67.34a5.12,5.12,0,0,1-.56,0c1.16,2.7,2.6,6,4.24,9.77v0a0,0,0,0,1,0,0q1,2.25,2,4.65l2.1,4.71c1.75,3.88,3.59,7.92,5.45,11.91,3.4,7.29,6.86,14.4,9.9,20,3.78,7,6.9,11.76,8.42,11.76,2.42,0,8.88-12,15.6-26,3.9-8.14,7.88-17,11.23-24.55,1.6-3.62,3-7,4.28-9.79.38-.89.73-1.72,1.07-2.5A5.25,5.25,0,0,1,69.68,20.5Z"/><circle class="cls-6" cx="23.42" cy="29.86" r="9.36"/><path class="cls-6" d="M64.89,32.76c-3.35,7.58-7.33,16.41-11.23,24.55A14.81,14.81,0,1,1,64.89,32.76Z"/><path class="cls-6" d="M37.37,60.87a11.29,11.29,0,0,1-7.73,10.72c-3-5.64-6.5-12.75-9.9-20a11.29,11.29,0,0,1,17.63,9.32Z"/><path class="cls-6" d="M70.24,20.47c-.34.78-.69,1.61-1.07,2.5-2.32-5.63-10.3-4.91-13.42-3.72S34.68,14.62,24.59,17s-3.11,4-10.24,4.6c-6.82.57-4.44,8-4.23,8.62C8.48,26.51,7,23.17,5.88,20.47a5.12,5.12,0,0,0,.56,0s11.37-6.29,31.62-6.29S69.68,20.5,69.68,20.5A5.25,5.25,0,0,0,70.24,20.47Z"/><circle class="cls-7" cx="19.74" cy="26.14" r="2.71"/><circle class="cls-7" cx="21.1" cy="31.4" r="1.36"/><circle class="cls-7" cx="47.92" cy="36.75" r="3.63"/><circle class="cls-7" cx="47.23" cy="43.99" r="1.81"/><circle class="cls-7" cx="26.89" cy="55.27" r="2.51"/><circle class="cls-7" cx="28.78" cy="59.93" r="1.26"/><path class="cls-8" d="M22.66,21.82a2.72,2.72,0,0,0,.53,3.79,3,3,0,0,0,1.5.7l-1.53,1.8a5.55,5.55,0,0,1-1.36-.88,5,5,0,0,1-1-7,5,5,0,0,1,7-.15,6.37,6.37,0,0,1,1.07,1.21l-1.53,1.8a3.06,3.06,0,0,0-.93-1.38A2.72,2.72,0,0,0,22.66,21.82Z"/><path class="cls-8" d="M41.85,51.54a2.71,2.71,0,0,0,.52,3.78,3.07,3.07,0,0,0,1.51.7l-1.53,1.8A6.08,6.08,0,0,1,41,57c-2.2-1.89-2.63-5-1-7a5,5,0,0,1,7-.15A5.81,5.81,0,0,1,48.13,51L46.6,52.83a3.06,3.06,0,0,0-.93-1.37A2.7,2.7,0,0,0,41.85,51.54Z"/><path class="cls-8" d="M27.23,48.89A2.71,2.71,0,0,0,30.43,51,3.12,3.12,0,0,0,32,50.29l.35,2.33a5.48,5.48,0,0,1-1.55.46,5,5,0,0,1-5.9-3.83,5,5,0,0,1,4.5-5.42,5.8,5.8,0,0,1,1.61,0l.36,2.33A3.15,3.15,0,0,0,29.67,46,2.71,2.71,0,0,0,27.23,48.89Z"/><path class="cls-8" d="M45.78,27A2.27,2.27,0,0,0,46.72,30a2.67,2.67,0,0,0,1.34.38l-1,1.69a5.09,5.09,0,0,1-1.25-.54,4.18,4.18,0,0,1-1.73-5.63,4.19,4.19,0,0,1,5.8-1.07,4.89,4.89,0,0,1,1,.85l-1,1.69a2.55,2.55,0,0,0-1-1A2.28,2.28,0,0,0,45.78,27Z"/><path class="cls-8" d="M34.66,68a2.26,2.26,0,0,0,2.9,1.33,2.49,2.49,0,0,0,1.18-.74l.57,1.89a4.79,4.79,0,0,1-1.23.57,3.95,3.95,0,1,1-2.28-7.5,5.26,5.26,0,0,1,1.34-.21l.58,1.89a2.57,2.57,0,0,0-1.4,0A2.26,2.26,0,0,0,34.66,68Z"/><path class="cls-9" d="M58.93,31.3a5.17,5.17,0,0,1-4.43,1,11.56,11.56,0,0,1-5-2.76c-2.5-2.21-5.74-7.41-3.5-10a8,8,0,0,1,2.6-1.76,4.52,4.52,0,0,1,1.36-.42c2.14.18,2.09,2.55,1.52,5.16a5.67,5.67,0,0,0,1.82,5.23,8.15,8.15,0,0,0,5.25,2A.9.9,0,0,1,58.93,31.3Z"/><path class="cls-9" d="M36.45,36c-.72,3.73-2.63,8.27-6.3,8.38a.78.78,0,0,1-.64-.47,1,1,0,0,1,.11-1.19,10.51,10.51,0,0,0,2.95-5.52c.2-1,.41-4-1.45-5.86s-3.19-3.89-1.64-5.59a5.79,5.79,0,0,1,2.11-.85,5.43,5.43,0,0,1,2.12-.09C36.83,25.37,37.17,32.22,36.45,36Z"/><path class="cls-9" d="M48.6,59.87c-2.1,3-5.49,6.14-8.74,5.19a4.19,4.19,0,0,1-.46-.16,1,1,0,0,1,.2-1.73,10.55,10.55,0,0,0,5-3.81c.61-.87,2-3.47,1.1-5.93s-1.28-4.7.61-5.67l.2-.1a6.61,6.61,0,0,1,4.25.89C53.31,50.39,50.8,56.78,48.6,59.87Z"/><path class="cls-10" d="M56.46,31.3a5.11,5.11,0,0,1-2,1,11.56,11.56,0,0,1-5-2.76c-2.5-2.21-5.74-7.41-3.5-10a8,8,0,0,1,2.6-1.76c1,.81.86,2.7.41,4.74a5.67,5.67,0,0,0,1.82,5.23,8.17,8.17,0,0,0,5.25,2A.9.9,0,0,1,56.46,31.3Z"/><path class="cls-10" d="M34,36c-.59,3.06-2,6.65-4.47,7.91a1,1,0,0,1,.11-1.19,10.51,10.51,0,0,0,2.95-5.52c.2-1,.41-4-1.45-5.86s-3.19-3.89-1.64-5.59a5.79,5.79,0,0,1,2.11-.85C34.38,25.89,34.68,32.37,34,36Z"/><path class="cls-10" d="M46.13,59.87c-1.57,2.21-3.86,4.55-6.27,5.19a4.19,4.19,0,0,1-.46-.16,1,1,0,0,1,.2-1.73,10.55,10.55,0,0,0,5-3.81c.61-.87,2-3.47,1.1-5.93s-1.28-4.7.61-5.67a5.6,5.6,0,0,1,2,.79C50.84,50.39,48.33,56.78,46.13,59.87Z"/><path class="cls-11" d="M44.41,19.2c-3.36-1.76-7.13-1.18-8,.58-.77,1.49-.72,3.12,2.43,5.2l-1.72,3.31a1.54,1.54,0,0,0,.65,2.08l1.35.7a1.54,1.54,0,0,0,2.08-.65l1.72-3.31c3.52,1.39,4.88.51,5.66-1C49.44,24.37,47.76,21,44.41,19.2Z"/><circle class="cls-12" cx="39.15" cy="21.16" r="2.11"/><rect class="cls-12" x="38.55" y="25.67" width="0.97" height="3.91" transform="translate(17.11 -14.87) rotate(27.42)"/><path class="cls-11" d="M23.11,35.59c-2.55,1.11-4,3.54-3.4,4.9.48,1.15,1.42,1.88,4.06,1.06l1.07,2.55a1.13,1.13,0,0,0,1.48.61l1-.44a1.17,1.17,0,0,0,.6-1.51l-1.07-2.55c2.42-1.36,2.55-2.56,2.07-3.71C28.38,35.15,25.67,34.49,23.11,35.59Z"/><ellipse class="cls-12" cx="21.78" cy="39.54" rx="1.55" ry="1.57"/><polygon class="cls-12" points="25.62 44.14 26.27 43.86 25.15 41.19 24.5 41.47 25.62 44.14"/><path class="cls-11" d="M38.59,43c-2.55,1.1-4,3.54-3.41,4.89.49,1.15,1.43,1.89,4.07,1.06l1.07,2.56a1.12,1.12,0,0,0,1.48.6l1-.44a1.15,1.15,0,0,0,.59-1.5l-1.06-2.56c2.42-1.35,2.55-2.55,2.07-3.7C43.86,42.53,41.15,41.88,38.59,43Z"/><ellipse class="cls-12" cx="37.26" cy="46.92" rx="1.55" ry="1.57"/><polygon class="cls-12" points="41.1 51.52 41.75 51.24 40.63 48.57 39.97 48.85 41.1 51.52"/></g></svg>