<svg xmlns="http://www.w3.org/2000/svg" viewBox="0 0 76.12 83.33"><defs><style>.cls-1{fill:#fdb913;}.cls-2{fill:#c97235;}.cls-3{fill:#d8994e;}.cls-4{fill:#b75f2e;}.cls-5{fill:#f7941d;}.cls-6{fill:#be4047;}.cls-7{fill:#f87d60;}.cls-8{fill:#2a953c;}.cls-9{fill:#39b54a;}</style></defs><g id="Layer_3" data-name="Layer 3"><path class="cls-1" d="M70.24,20.45c-.34.78-.69,1.61-1.07,2.49-1.23,2.84-2.68,6.18-4.28,9.79-3.35,7.58-7.33,16.41-11.23,24.56-6.72,14-13.18,26-15.6,26-1.52,0-4.64-4.75-8.42-11.77-3-5.64-6.5-12.75-9.9-20-1.86-4-3.7-8-5.45-11.9-.71-1.6-1.42-3.18-2.1-4.72s-1.39-3.15-2-4.64c0,0,0,0,0,0v0C8.48,26.48,7,23.14,5.88,20.45l.56,0,.67-.33c2.71-1.31,13.55-6,31-6a83.86,83.86,0,0,1,23.6,3.19,44.62,44.62,0,0,1,8,3.09Z"/><path class="cls-2" d="M76.12,9.83V14a6.45,6.45,0,0,1-4,5.94,6.23,6.23,0,0,1-1.92.48l-.56,0s-11.37-6.28-31.62-6.28a94,94,0,0,0-9.75.5l-.29,0C14.09,16.24,6.44,20.47,6.44,20.47l-.56,0A6.48,6.48,0,0,1,0,14V9.83C0,4,15,0,38.06,0A137.8,137.8,0,0,1,60.18,1.54C70.25,3.23,76.12,6.17,76.12,9.83Z"/><circle class="cls-3" cx="7.3" cy="10.22" r="3.84"/><circle class="cls-3" cx="15.37" cy="7.14" r="1.94"/><path class="cls-4" d="M76.12,9.83V14a6.45,6.45,0,0,1-4,5.94,6.23,6.23,0,0,1-1.92.48l-.56,0s-11.37-6.28-31.62-6.28a94,94,0,0,0-9.75.5c3.57-.41,39.21-4.8,31.87-13.15C70.25,3.23,76.12,6.17,76.12,9.83Z"/><path class="cls-5" d="M42.45,37.94c.68-5.55,6.21-5.77,10.56-6s8.86-1.48,10.89-5.61c1.67-3.39-3.41-6.39-5.09-3-1,2.05-3.25,2.53-5.37,2.67-2.94.21-5.93,0-8.74,1a12.86,12.86,0,0,0-8.15,10.86C36.09,41.7,42,41.66,42.45,37.94Z"/><path class="cls-5" d="M69.68,20.47a44.62,44.62,0,0,0-8-3.09,1.66,1.66,0,0,0,.62.58A8.42,8.42,0,0,1,66,27.28C65,31.37,62,33.87,59.47,37a18.85,18.85,0,0,0-1.84,2.66,2.59,2.59,0,0,0-3.4,1.22c-2.29,5.86-8.56,5.24-13.17,7.37a12.15,12.15,0,0,0-6.55,12.35c.44,3.71,5.88,3.76,5.43,0a6.84,6.84,0,0,1,1.88-6c1.69-1.56,4.23-1.71,6.3-2.26A19.4,19.4,0,0,0,55,49c-1.17,2.85-3.5,5.07-5.63,7.24A26.36,26.36,0,0,0,43.06,65a28,28,0,0,0-.93,3c-.7,1.78.56,4.55-2.81,6.75s-5.07-1.52-5.66-2.59S32.54,70,32,68.88s-.77-2-1.27-3c-2.34-6.84-7.42-12.24-10.26-18.81a2.75,2.75,0,0,0,3.67-1.94,10.9,10.9,0,0,1,1.15-3.24c.75-1.14,1.89-1.33,3.15-1.66,2.55-.68,5.09-1.77,6.27-4.3,1.61-3.41-3.48-6.41-5.09-3-.57,1.21-1.87,1.34-3.07,1.66a11.91,11.91,0,0,0-4,1.74A10.58,10.58,0,0,0,18.94,42a25.84,25.84,0,0,0-2.14-6.83,2.5,2.5,0,0,0,1.7-2.66C18.41,31,18,28.61,19.69,28c1.9-.65,4.18-.35,6.16-.5,3.39-.27,6.8-1.15,9-3.89,2.39-2.91-1.76-7.11-4.17-4.17-2.88,3.51-8.67,1.79-12.61,2.87-3.44.95-4.92,3.48-5.38,6.51-.45-1.14-.73-2.33-1.11-3.53C11,23.2,9.28,20.67,7.11,20.14l-.67.33-.56,0c1.16,2.69,2.6,6,4.24,9.77v0s0,0,0,0c.66,1.49,1.34,3.05,2,4.64s1.39,3.12,2.1,4.72c1.75,3.88,3.59,7.92,5.45,11.9,3.4,7.29,6.86,14.4,9.9,20,3.78,7,6.9,11.77,8.42,11.77,2.42,0,8.88-12,15.6-26,3.9-8.15,7.88-17,11.23-24.56,1.6-3.61,3-6.95,4.28-9.79.38-.88.73-1.71,1.07-2.49Z"/><circle class="cls-6" cx="23.42" cy="29.84" r="9.36"/><path class="cls-6" d="M64.89,32.73c-3.35,7.58-7.33,16.41-11.23,24.56A14.81,14.81,0,1,1,64.89,32.73Z"/><path class="cls-6" d="M37.37,60.85a11.29,11.29,0,0,1-7.73,10.71c-3-5.64-6.5-12.75-9.9-20a11.29,11.29,0,0,1,17.63,9.33Z"/><path class="cls-6" d="M70.24,20.45c-.34.78-.69,1.61-1.07,2.49-2.32-5.63-10.3-4.9-13.42-3.72S34.68,14.59,24.59,17s-3.11,4-10.24,4.6c-6.82.56-4.44,8-4.23,8.62C8.48,26.48,7,23.14,5.88,20.45l.56,0s11.37-6.28,31.62-6.28,31.62,6.28,31.62,6.28Z"/><circle class="cls-7" cx="19.74" cy="26.11" r="2.71"/><circle class="cls-7" cx="21.1" cy="31.37" r="1.36"/><circle class="cls-7" cx="47.92" cy="36.73" r="3.63"/><circle class="cls-7" cx="47.23" cy="43.96" r="1.81"/><circle class="cls-7" cx="26.89" cy="55.24" r="2.51"/><circle class="cls-7" cx="28.78" cy="59.9" r="1.26"/><path class="cls-8" d="M58.93,31.28a5.2,5.2,0,0,1-4.43,1,11.66,11.66,0,0,1-5-2.76c-2.5-2.22-5.74-7.41-3.5-10a7.88,7.88,0,0,1,2.6-1.76,4,4,0,0,1,1.36-.42c2.14.17,2.09,2.55,1.52,5.16a5.68,5.68,0,0,0,1.82,5.23,8.14,8.14,0,0,0,5.25,2C59.18,29.73,59.5,30.76,58.93,31.28Z"/><path class="cls-8" d="M36.45,35.93c-.72,3.73-2.63,8.27-6.3,8.37a.77.77,0,0,1-.64-.46,1.05,1.05,0,0,1,.11-1.2,10.44,10.44,0,0,0,2.95-5.52c.2-1,.41-4-1.45-5.85s-3.19-3.9-1.64-5.59a5.44,5.44,0,0,1,2.11-.85,5.63,5.63,0,0,1,2.12-.1C36.83,25.34,37.17,32.2,36.45,35.93Z"/><path class="cls-8" d="M48.6,59.85c-2.1,3-5.49,6.14-8.74,5.19a4.28,4.28,0,0,1-.46-.17,1,1,0,0,1,.2-1.73,10.53,10.53,0,0,0,5-3.8c.61-.87,2-3.48,1.1-5.94s-1.28-4.7.61-5.66l.2-.1a6.65,6.65,0,0,1,4.25.88C53.31,50.37,50.8,56.75,48.6,59.85Z"/><path class="cls-9" d="M56.46,31.28a5.11,5.11,0,0,1-2,1,11.66,11.66,0,0,1-5-2.76c-2.5-2.22-5.74-7.41-3.5-10a7.88,7.88,0,0,1,2.6-1.76c1,.81.86,2.7.41,4.74a5.68,5.68,0,0,0,1.82,5.23,8.16,8.16,0,0,0,5.25,2C56.71,29.73,57,30.76,56.46,31.28Z"/><path class="cls-9" d="M34,35.93c-.59,3-2,6.65-4.47,7.91a1.05,1.05,0,0,1,.11-1.2,10.44,10.44,0,0,0,2.95-5.52c.2-1,.41-4-1.45-5.85s-3.19-3.9-1.64-5.59a5.44,5.44,0,0,1,2.11-.85C34.38,25.86,34.68,32.34,34,35.93Z"/><path class="cls-9" d="M46.13,59.85c-1.57,2.21-3.86,4.54-6.27,5.19a4.28,4.28,0,0,1-.46-.17,1,1,0,0,1,.2-1.73,10.53,10.53,0,0,0,5-3.8c.61-.87,2-3.48,1.1-5.94s-1.28-4.7.61-5.66a5.58,5.58,0,0,1,2,.78C50.84,50.37,48.33,56.75,46.13,59.85Z"/></g></svg>