<svg id="Layer_1" data-name="Layer 1" xmlns="http://www.w3.org/2000/svg" viewBox="0 0 250.07 1165.28"><defs><style>.cls-1{fill:#5d7d9a;opacity:0.5;}.cls-2{fill:#313843;}</style></defs><path class="cls-1" d="M208.07,643s27,26,42,34.5v18.72s-45-35.22-65-32.22-18,10-39,10-91,41-91,41,102-61,127-87c26-30,68-73.49,68-120.75V585.5S210.07,619,208.07,643Z"/><path class="cls-2" d="M209.07,645s26,30,41,38.5v18.72s-45-35.22-65-32.22-20,6-41,6c-5.48,0-91.79,41.74-91,40,11-5,109.78-59.82,129-82,26-30,68-73.49,68-120.75V591.5S211.07,621,209.07,645Z"/><path class="cls-1" d="M250.07,469s-4-75-20-92c-19-5-59-16-59-16s49,1,57-13,22-40.4,22-62.2Z"/><path class="cls-2" d="M250.07,482s-4-75-20-92-59.5-28.87-59.5-28.87,49.5,13.87,57.5-.13,22-40.4,22-62.2Z"/><path class="cls-1" d="M35.07,1156c20.78-10.52,206-140.41,215-126.71V985.38S156,1069,121.05,1092s-92,73-115,50C-5.93,1128,14.29,1166.52,35.07,1156Z"/><path class="cls-2" d="M35.07,1164c20.78-10.52,206-140.41,215-126.71V993.38S156,1077,121.05,1100s-94.37,69.62-114.18,42.81S14.29,1174.52,35.07,1164Z"/><path class="cls-1" d="M91.07,76s114-13,125-21,27-37,34-55V221c-5-47-11-80-24-89-6.13-5.24-36-32-39-45S91.07,76,91.07,76Z"/><path class="cls-2" d="M91.07,76s115,1,126-7,26-37,33-55V227c-5-47-11-80-24-89-6.13-5.24-36-32-39-45S91.07,76,91.07,76Z"/></svg>