<svg id="Layer_1" data-name="Layer 1" xmlns="http://www.w3.org/2000/svg" viewBox="0 0 80 80"><defs><style>.cls-1{opacity:0.8;}.cls-2{fill:#69b792;}.cls-3{fill:#91c6a4;}.cls-4{fill:#f1613a;}</style></defs><g class="cls-1"><circle class="cls-2" cx="40" cy="40" r="36"/><circle class="cls-3" cx="40" cy="40" r="31"/><circle class="cls-2" cx="40.71" cy="15.96" r="9.5"/><circle class="cls-2" cx="64.04" cy="40.71" r="9.5"/><circle class="cls-2" cx="39.29" cy="64.04" r="9.5"/><circle class="cls-2" cx="15.96" cy="39.29" r="9.5"/><path class="cls-4" d="M68.28,11.72a40,40,0,1,0,0,56.56A40,40,0,0,0,68.28,11.72ZM72,56.41a30.39,30.39,0,0,1-5.15-9.87,6.35,6.35,0,0,0,1.75-1.24,6.49,6.49,0,0,0,0-9.19,6.56,6.56,0,0,0-2.24-1.46,30.7,30.7,0,0,1,5.26-11.78A36.15,36.15,0,0,1,72,56.41ZM56.41,8a30.39,30.39,0,0,1-9.87,5.15,6.35,6.35,0,0,0-1.24-1.75,6.49,6.49,0,0,0-9.19,0,6.56,6.56,0,0,0-1.46,2.24A30.7,30.7,0,0,1,22.87,8.34,36.15,36.15,0,0,1,56.41,8ZM8,23.59a30.39,30.39,0,0,1,5.15,9.87,6.35,6.35,0,0,0-1.75,1.24,6.49,6.49,0,0,0,0,9.19,6.56,6.56,0,0,0,2.24,1.46A30.7,30.7,0,0,1,8.34,57.13,36.15,36.15,0,0,1,8,23.59Zm2.62,37.15a36.37,36.37,0,0,0,7-15.15A6.49,6.49,0,0,0,17.1,32.9a34.44,34.44,0,0,0-7-13,37,37,0,0,1,4.41-5.36,36.55,36.55,0,0,1,4.72-4,36.37,36.37,0,0,0,15.15,7A6.49,6.49,0,0,0,47.1,17.1a34.44,34.44,0,0,0,13-7,37,37,0,0,1,5.36,4.41,36.55,36.55,0,0,1,4,4.72,36.37,36.37,0,0,0-7,15.15A6.49,6.49,0,0,0,62.9,47.1a34.44,34.44,0,0,0,7,13,37,37,0,0,1-4.41,5.36,36.55,36.55,0,0,1-4.72,4,36.37,36.37,0,0,0-15.15-7,6.49,6.49,0,0,0-12.69.44,34.44,34.44,0,0,0-13,7,37,37,0,0,1-5.36-4.41A36.55,36.55,0,0,1,10.58,60.74Zm13,11.3a30.39,30.39,0,0,1,9.87-5.15,6.35,6.35,0,0,0,1.24,1.75,6.49,6.49,0,0,0,9.19,0,6.56,6.56,0,0,0,1.46-2.24,30.7,30.7,0,0,1,11.78,5.26A36.15,36.15,0,0,1,23.59,72Z"/></g></svg>