<svg id="Layer_1" data-name="Layer 1" xmlns="http://www.w3.org/2000/svg" xmlns:xlink="http://www.w3.org/1999/xlink" viewBox="0 0 50 50"><defs><style>.cls-1{fill:#2fa04a;}.cls-2{fill:#217a41;}.cls-3{fill:url(#radial-gradient);}.cls-4{fill:#6bb84f;}.cls-5{fill:#e6edad;}</style><radialGradient id="radial-gradient" cx="20.11" cy="20.76" fx="12.944245306821461" fy="6.912221486293275" r="26.92" gradientTransform="translate(0)" gradientUnits="userSpaceOnUse"><stop offset="0" stop-color="#6bb84f"/><stop offset="1" stop-color="#288c45"/></radialGradient></defs><path class="cls-1" d="M50,25A24.92,24.92,0,0,1,.93,31.2,25.31,25.31,0,0,1,.16,25,25,25,0,0,1,24,0c.35,0,.71,0,1.07,0A25,25,0,0,1,50,25Z"/><path class="cls-2" d="M46.4,21.8a25,25,0,0,1-24.92,25A24.72,24.72,0,0,1,6.83,42,24.84,24.84,0,0,1,.93,31.2,25.31,25.31,0,0,1,.16,25,25,25,0,0,1,24,0c.35,0,.71,0,1.07,0A24.76,24.76,0,0,1,39.76,4.81,24.91,24.91,0,0,1,46.4,21.8Z"/><path class="cls-3" d="M39.92,20.45A20.95,20.95,0,0,1,.93,31.2,25.31,25.31,0,0,1,.16,25,24.88,24.88,0,0,1,24,0,21,21,0,0,1,39.92,20.45Z"/><path class="cls-4" d="M26.35,10.83A12,12,0,0,1,2.72,14,24.93,24.93,0,0,1,20.43.44,12.05,12.05,0,0,1,26.35,10.83Z"/><ellipse class="cls-4" cx="8.31" cy="29.35" rx="4.34" ry="4.35"/><ellipse class="cls-5" cx="17.09" cy="9.26" rx="4.39" ry="4.41"/><ellipse class="cls-5" cx="11.29" cy="18.74" rx="3.04" ry="3.05"/></svg>