<svg id="Layer_1" data-name="Layer 1" xmlns="http://www.w3.org/2000/svg" viewBox="0 0 25.44 43.3"><defs><style>.cls-1{fill:#5d7d9a;opacity:0.5;isolation:isolate;}.cls-2{fill:#313843;}</style></defs><path class="cls-1" d="M25.44,25.35c-1.35-.16-2.36-3.11-3.33-3.33a11.12,11.12,0,0,0-13.58,8C6.93,35.64,5.43,37.61,0,40.38V33.15c3.61-.45,7-8.87,7.12-13.07C5.21,17.67,3.48,15.71,0,16.52V0C1.71,1.54,3.46,3.07,4.5,4.08c2.48,2.41,5,5.37,8.06,6.45C19.8,13.07,24.05,20.61,25.44,25.35Z"/><path class="cls-2" d="M25.44,25.35c-1.35-.16-2.36-.19-3.33-.41A11.12,11.12,0,0,0,8.53,33C6.93,38.56,5.43,40.53,0,43.3V36.07C3.61,35.62,7,27.2,7.12,23,5.21,20.59,3.48,18.63,0,19.44V2.92C1.71,4.46,3.46,6,4.5,7c2.48,2.41,5,5.36,8.06,6.45C18.56,15.58,22,19.92,25.44,25.35Z"/></svg>