<svg id="Layer_1" data-name="Layer 1" xmlns="http://www.w3.org/2000/svg" viewBox="0 0 43.63 40.68"><defs><style>.cls-1{fill:#5d7d9a;opacity:0.5;isolation:isolate;}.cls-2{fill:#313843;}</style></defs><path class="cls-1" d="M0,35.37c2.78-4.08,6.79-11.73,8.09-12.82s6.7-6.14,12.37-6.72c9.48-1,18.6-4.2,23.17-15.83V37.49c-1.88-2.26-3.29-3.79-4.51-5.47-5.54-7.59-19.33-10.41-27.51-5.54-3.56,2.12-5.83,5.87-6.84,6S3.1,34.9,0,35.37Z"/><path class="cls-2" d="M0,35.37c2.73-3.19,5.92-6.09,8.09-9.63,3-4.87,6.7-6.14,12.37-6.72,9.48-1,18.6-4.2,23.17-15.83V40.68c-1.88-2.26-3.29-3.79-4.51-5.47-5.54-7.59-19.33-10.41-27.51-5.54-3.56,2.12-8,5.55-9,5.71A5.3,5.3,0,0,1,0,35.37Z"/></svg>