<svg xmlns="http://www.w3.org/2000/svg" viewBox="0 0 65.74 77.08"><defs><style>.cls-1{fill:#ca6446;}.cls-2{fill:#e6824b;}.cls-3{fill:#884442;}.cls-4{fill:#6c3d46;}.cls-5{fill:#ffac60;}.cls-6{fill:#aa5144;}</style></defs><g id="Layer_2" data-name="Layer 2"><path class="cls-1" d="M59.71,28.21V47.27A26.69,26.69,0,0,1,35.6,73.81v.55a2.73,2.73,0,0,1-5.46,0v-.55A26.69,26.69,0,0,1,6,47.27V28.21a11.06,11.06,0,0,0,5.16,1.26H54.54A11.1,11.1,0,0,0,59.71,28.21Z"/><path class="cls-2" d="M45.48,29.47v10.9c0,13.85-5.22,26.54-24.11,26.54a37.43,37.43,0,0,1-7.44-.71A26.55,26.55,0,0,1,6,47.27V28.21a11.06,11.06,0,0,0,5.16,1.26Z"/><path class="cls-3" d="M65.74,18.31a11.19,11.19,0,0,1-11.2,11.16H11.19A11.19,11.19,0,0,1,0,18.31C0,14.49,3,11,7,8.52a25.8,25.8,0,0,1,12.73-4h6.5A6.39,6.39,0,0,0,30.32,0h5.09c.6,1.77,1.79,3.84,4.12,4.48H46A25.73,25.73,0,0,1,58.76,8.52C62.73,11,65.74,14.49,65.74,18.31Z"/><path class="cls-4" d="M65.74,18.31a11.19,11.19,0,0,1-11.2,11.16H23.71S40.18,29,40.18,16.73,22.31,4.47,22.31,4.47H26.2A6.39,6.39,0,0,0,30.32,0h5.09c.6,1.77,1.79,3.84,4.12,4.48H46A25.73,25.73,0,0,1,58.76,8.52C62.73,11,65.74,14.49,65.74,18.31Z"/><ellipse class="cls-5" cx="16.27" cy="42.48" rx="7.12" ry="11.14" transform="translate(-5.19 2.37) rotate(-7.2)"/><ellipse class="cls-5" cx="19.31" cy="59.7" rx="4.23" ry="4.22"/><ellipse class="cls-6" cx="14.18" cy="17.56" rx="9.36" ry="6.79"/><path class="cls-1" d="M38.11,29.47s1.35,26.85-3.28,28.85c8.36-1.09,7.28-28.85,7.28-28.85Z"/></g></svg>