<svg id="Layer_1" data-name="Layer 1" xmlns="http://www.w3.org/2000/svg" viewBox="0 0 633.61 194.5"><defs><style>.cls-1{opacity:0.44;}.cls-2{fill:#282e38;}.cls-3{fill:#cdecfa;}.cls-4{fill:#303744;}</style></defs><g class="cls-1"><path class="cls-2" d="M408,116.58V35.5a13,13,0,0,0-13-13c-.35,0-.71,0-1.06,0l-32.4,2.64a13,13,0,0,0-11.94,13v20.5l-.39-.33c-8.27-6.43-20.72-9.42-39.17-9.42-15.22,0-27.44,3.48-36.48,10.35a13,13,0,0,0-11.87-7.72h-32.4a13,13,0,0,0-9.72,4.37,13,13,0,0,0-9.72-4.37h-32.4a13,13,0,0,0-10.17,4.91,12.81,12.81,0,0,0-1.2,1.83c-8.27-6.4-20.69-9.37-39.09-9.37-18.9,0-33.2,5.36-42.49,15.94C75.6,74.91,71.11,89.61,71.11,108.5c0,1,0,1.9,0,2.83H58.4V42.54a13,13,0,0,0-13-13H13a13,13,0,0,0-13,13V152.48a13,13,0,0,0,13,13H77.8a13,13,0,0,0,12.07-8.2c9.1,7.19,21.56,10.83,37.17,10.83a141.67,141.67,0,0,0,39.59-5.79,13,13,0,0,0,9.22-14.42L172,122.05a13.59,13.59,0,0,0-.6-2.4,33.6,33.6,0,0,0,4-6.13L185,155.39a13,13,0,0,0,12.67,10.09h43.74a13,13,0,0,0,12.66-10.09l4.37-19a48.33,48.33,0,0,0,9.08,15.76c9.29,10.57,23.61,15.93,42.57,15.93a141.67,141.67,0,0,0,39.59-5.79,13,13,0,0,0,7.6-6,36,36,0,0,0,11.92,7.46l.07,0c4.17,1.66,11.59,3.56,32.18,3.56a13,13,0,0,0,13-12.27l1.45-25.85A13,13,0,0,0,408,116.58Z"/><path class="cls-2" d="M625.15,71a40.16,40.16,0,0,0-15.93-16.32,46.94,46.94,0,0,0-23.43-5.74c-10.55,0-18.46,2.21-24.39,5.4a13,13,0,0,0-8-2.77h-16.2a13.37,13.37,0,0,0-1.42.08V42.54a13,13,0,0,0-13-13H490.38a13,13,0,0,0-11.1,6.22,13,13,0,0,0-11.1-6.22H435.79a13,13,0,0,0-13,13v61.74c0,10.91.66,19.61,2,26.59a49.36,49.36,0,0,0,9.09,20.9,37.89,37.89,0,0,0,19.84,13.35c6.81,2,15.15,3,25.46,3s18.65-1,25.52-3a38,38,0,0,0,19.47-12.79V181.5a13,13,0,0,0,13,13c.35,0,.7,0,1.06,0l32.39-2.64a13,13,0,0,0,12-13V165.48h5.63a44.54,44.54,0,0,0,19.59-4.21,40.32,40.32,0,0,0,14-10.81l.16-.2c7.73-9.92,11.65-24,11.65-41.76C633.61,94.23,630.77,81.59,625.15,71Z"/></g><path class="cls-3" d="M13,130a6.5,6.5,0,0,1-6.5-6.5V13.54A6.5,6.5,0,0,1,13,7H45.4a6.5,6.5,0,0,1,6.5,6.5V88.83H77.8a6.5,6.5,0,0,1,6.5,6.5v28.15a6.5,6.5,0,0,1-6.5,6.5Z"/><path class="cls-4" d="M45.4,13.54V95.33H77.8v28.15H13V13.54H45.4m0-13H13a13,13,0,0,0-13,13V123.48a13,13,0,0,0,13,13H77.8a13,13,0,0,0,13-13V95.33a13,13,0,0,0-13-13H58.4V13.54a13,13,0,0,0-13-13Z"/><path class="cls-3" d="M197.67,130a6.5,6.5,0,0,1-6.34-5L171.09,37a6.5,6.5,0,0,1,6.33-8h32.4a6.5,6.5,0,0,1,6.42,5.5l3.3,21.16,3.29-21.16a6.51,6.51,0,0,1,6.43-5.5h32.39A6.51,6.51,0,0,1,268,37l-20.25,88a6.5,6.5,0,0,1-6.33,5Z"/><path class="cls-4" d="M261.65,35.52l-20.24,88H197.67l-20.25-88h32.4l8.91,57.17h1.62l8.91-57.17h32.39m0-13H229.26a13,13,0,0,0-9.72,4.37,13,13,0,0,0-9.72-4.37h-32.4a13,13,0,0,0-12.67,15.92l20.25,88a13,13,0,0,0,12.67,10.09h43.74a13,13,0,0,0,12.66-10.09l20.25-87.95a13,13,0,0,0-12.67-15.92Zm0,26h0Z"/><path class="cls-3" d="M401.45,131.91c-19.71,0-26.43-1.77-29.78-3.1-7.22-2.92-11.87-7-13.85-12.09a26,26,0,0,1-1.75-9.78V9.14a6.5,6.5,0,0,1,6-6.48L394.44,0,395,0a6.51,6.51,0,0,1,6.5,6.5V92.87c.82.11,1.42.17,1.85.2a6.48,6.48,0,0,1,6.07,6.85l-1.45,25.86A6.51,6.51,0,0,1,401.45,131.91Z"/><path class="cls-4" d="M395,6.5V98.32a62.59,62.59,0,0,0,7.93,1.23l-1.45,25.86q-20.74,0-27.38-2.64-8.26-3.33-10.2-8.44a19.28,19.28,0,0,1-1.3-7.39V9.14L395,6.5m0-13c-.35,0-.71,0-1.06,0l-32.4,2.64a13,13,0,0,0-11.94,13v97.8a32.37,32.37,0,0,0,2.21,12.18c2.66,6.82,8.52,12.11,17.42,15.7l.07,0c4.17,1.66,11.59,3.56,32.18,3.56a13,13,0,0,0,13-12.27l1.45-25.85A13,13,0,0,0,408,87.58V6.5a13,13,0,0,0-13-13Z"/><path class="cls-3" d="M479.2,132.61c-9.68,0-17.41-.89-23.63-2.72a31.52,31.52,0,0,1-16.52-11.08,43,43,0,0,1-7.86-18.19c-1.28-6.56-1.9-14.85-1.9-25.34V13.54a6.5,6.5,0,0,1,6.5-6.5h32.39a6.5,6.5,0,0,1,6.5,6.5v76h5a19.51,19.51,0,0,0,4-.32,14.39,14.39,0,0,0,.18-2.51V13.54a6.5,6.5,0,0,1,6.5-6.5h32.39a6.5,6.5,0,0,1,6.5,6.5V75.28c0,10.48-.62,18.77-1.9,25.34a43,43,0,0,1-7.86,18.19,31.56,31.56,0,0,1-16.62,11.08C496.62,131.72,488.87,132.61,479.2,132.61Z"/><path class="cls-4" d="M522.77,13.54V75.28q0,15-1.78,24.1a36.46,36.46,0,0,1-6.64,15.48,25.07,25.07,0,0,1-13.28,8.79q-8.43,2.46-21.87,2.46t-21.79-2.46a25,25,0,0,1-13.2-8.79,36.34,36.34,0,0,1-6.64-15.48q-1.79-9.15-1.78-24.1V13.54h32.39V96h11.5c4.11,0,6.91-.56,8.43-1.68s2.27-3.66,2.27-7.65V13.54h32.39m0-13H490.38a13,13,0,0,0-11.1,6.22A13,13,0,0,0,468.18.54H435.79a13,13,0,0,0-13,13V75.28c0,10.91.66,19.61,2,26.59a49.36,49.36,0,0,0,9.09,20.9,37.91,37.91,0,0,0,19.83,13.35c6.82,2,15.16,3,25.47,3s18.64-1,25.52-3a37.92,37.92,0,0,0,19.94-13.36,49.43,49.43,0,0,0,9.09-20.9c1.36-7,2-15.69,2-26.59V13.54a13,13,0,0,0-13-13Z"/><path class="cls-3" d="M537.19,159a6.49,6.49,0,0,1-6.5-6.5v-117a6.5,6.5,0,0,1,6.5-6.5h16.2a6.51,6.51,0,0,1,5.37,2.84l1.35,2c6.2-5,14.8-7.45,25.68-7.45A40.4,40.4,0,0,1,606,31.28,33.66,33.66,0,0,1,619.39,45c5.13,9.71,7.72,21.32,7.72,34.53,0,16.3-3.46,29-10.28,37.77l-.08.1a33.89,33.89,0,0,1-11.77,9A38.14,38.14,0,0,1,588.22,130H576.09v19.88a6.5,6.5,0,0,1-6,6.48L537.72,159Zm38.9-65.09a18.78,18.78,0,0,0,3.18-.34c0-.15,0-.32,0-.53V65.09a24.22,24.22,0,0,0-3.13.24l-.07,0Z"/><path class="cls-4" d="M585.79,32.89a34,34,0,0,1,17,4A27.22,27.22,0,0,1,613.65,48q7,13.2,7,31.49,0,22.34-8.91,33.77a27.25,27.25,0,0,1-9.55,7.3,31.55,31.55,0,0,1-13.93,2.91H569.59v26.38l-32.4,2.64v-117h16.2l6,8.8q7.13-11.43,26.41-11.43m-16.2,67.54h5q5.83,0,8.5-1.32T585.79,93V58.57h-5a36.5,36.5,0,0,0-5.66.35,7.14,7.14,0,0,0-3.73,1.85,6,6,0,0,0-1.78,4.31v35.35m16.2-80.54c-10.55,0-18.46,2.21-24.39,5.4a13,13,0,0,0-8-2.77h-16.2a13,13,0,0,0-13,13v117a13,13,0,0,0,13,13c.35,0,.7,0,1.06,0l32.39-2.64a13,13,0,0,0,12-13V136.48h5.63a44.54,44.54,0,0,0,19.59-4.21,40.45,40.45,0,0,0,14-10.81l.15-.2c7.73-9.92,11.65-24,11.65-41.76,0-14.27-2.84-26.91-8.46-37.55a40.16,40.16,0,0,0-15.93-16.32,46.94,46.94,0,0,0-23.43-5.74Z"/><path class="cls-3" d="M127,132.61c-17,0-29.68-4.62-37.69-13.73C81.56,110,77.61,96.77,77.61,79.5s4-30.52,11.74-39.38C97.36,31,110,26.39,127,26.39c16.7,0,28.2,2.63,35.17,8,7.36,5.74,11.1,15.86,11.1,30.11,0,11-3.4,19.5-10.1,25.32A6.54,6.54,0,0,1,165.54,94l3.89,25.86a6.51,6.51,0,0,1-4.62,7.21A135.48,135.48,0,0,1,127,132.61Zm-1.46-65.94a23.74,23.74,0,0,0,4.66-.36c0-.15,0-.33,0-.53v-.71h-.15a23,23,0,0,0-4.66.36c0,.15,0,.32,0,.53v.71Z"/><path class="cls-4" d="M127,32.89q22.59,0,31.18,6.68t8.58,25q0,15.48-10.28,22.25t-37.5,6.77v6.16a90.45,90.45,0,0,0,9.72.53A93.41,93.41,0,0,0,159.11,95L163,120.84a128.21,128.21,0,0,1-36,5.27q-22.68,0-32.81-11.52T84.11,79.5q0-23.56,10.12-35.09T127,32.89m-8,40.28h6.64q5.83,0,8.5-1.32t2.68-6.07V58.57h-6.64q-5.84,0-8.51,1.32T118.94,66v7.21m8-53.28c-18.9,0-33.2,5.36-42.49,15.94C75.61,45.91,71.11,60.61,71.11,79.5s4.5,33.59,13.36,43.68c9.29,10.57,23.61,15.93,42.57,15.93a142,142,0,0,0,39.59-5.79,13,13,0,0,0,9.22-14.42L172,93.05a13.59,13.59,0,0,0-.6-2.4c4.63-5.67,8.35-14,8.35-26.1,0-16.35-4.57-28.21-13.59-35.24-8.27-6.43-20.72-9.42-39.17-9.42Z"/><path class="cls-3" d="M310.09,132.61c-17,0-29.69-4.62-37.69-13.73-7.79-8.86-11.74-22.11-11.74-39.38S264.61,49,272.4,40.12c8-9.11,20.66-13.73,37.61-13.73,16.7,0,28.21,2.63,35.17,8,7.36,5.73,11.09,15.86,11.09,30.11,0,11-3.39,19.5-10.09,25.32A6.54,6.54,0,0,1,348.59,94l3.89,25.86a6.51,6.51,0,0,1-4.62,7.21A135.48,135.48,0,0,1,310.09,132.61Zm-1.46-65.94a23.74,23.74,0,0,0,4.66-.36c0-.15,0-.33,0-.53v-.71h-.14a23,23,0,0,0-4.67.36c0,.15,0,.32,0,.53v.71Z"/><path class="cls-4" d="M310,32.89q22.59,0,31.18,6.68t8.59,25q0,15.48-10.29,22.25T302,93.57v6.16a90.45,90.45,0,0,0,9.72.53A93.41,93.41,0,0,0,342.16,95l3.89,25.86a128.21,128.21,0,0,1-36,5.27q-22.68,0-32.8-11.52T267.16,79.5q0-23.56,10.13-35.09T310,32.89m-8,40.28h6.64q5.83,0,8.5-1.32t2.68-6.07V58.57h-6.64q-5.84,0-8.51,1.32T302,66v7.21m8-53.28c-18.9,0-33.2,5.36-42.49,15.94-8.86,10.08-13.36,24.78-13.36,43.67s4.5,33.59,13.36,43.68c9.29,10.57,23.61,15.93,42.57,15.93a142,142,0,0,0,39.59-5.79,13,13,0,0,0,9.23-14.42L355,93.05a13.59,13.59,0,0,0-.6-2.4c4.63-5.67,8.36-14,8.36-26.1,0-16.35-4.58-28.21-13.6-35.24-8.27-6.43-20.72-9.42-39.17-9.42Z"/></svg>