<svg id="Layer_1" data-name="Layer 1" xmlns="http://www.w3.org/2000/svg" viewBox="0 0 904.96 108.16"><defs><style>.cls-1{opacity:0.44;}.cls-2{fill:#282e38;}.cls-3{fill:#cdecfa;}.cls-4{fill:#303744;}</style></defs><g class="cls-1"><path class="cls-2" d="M348,30c-4.94-3.54-12.47-5.19-23.71-5.19-11.43,0-20.07,3-25.67,8.85a25.47,25.47,0,0,0-3.14,4.05l.27-1.57A7,7,0,0,0,291,28.31a74.09,74.09,0,0,0-23.2-3.51c-8.88,0-15.86,1.44-21.34,4.42a18.43,18.43,0,0,0-8.23,9,26.06,26.06,0,0,0-3.46-4.56c-5.61-5.87-14.26-8.85-25.72-8.85s-20.12,3-25.72,8.85a26.77,26.77,0,0,0-4.73,6.94,26.49,26.49,0,0,0-4.72-6.94c-5.61-5.87-14.26-8.85-25.72-8.85s-20.12,3-25.72,8.85A25.49,25.49,0,0,0,119,38.17a16.81,16.81,0,0,0-6.08-8.82c-4-3.06-9.34-4.55-16.28-4.55a40.92,40.92,0,0,0-7.49.67v-9a7,7,0,0,0-7-7l-.52,0-20.4,1.53a7,7,0,0,0-5.7,3.77,43.93,43.93,0,0,0-8.43-1.93A71,71,0,0,0,37,12.05c-13.86,0-23.79,3.77-29.52,11.19a33.08,33.08,0,0,0-6,13.11A75.88,75.88,0,0,0,0,52.51,73.68,73.68,0,0,0,1.5,68.62a33.16,33.16,0,0,0,6,13A26.32,26.32,0,0,0,20,90.43c4.7,1.64,10.54,2.43,17.85,2.43s13.67-1.07,18.79-3.18c.15-.06.29-.15.43-.22a7,7,0,0,0,4.75,1.87h20.4a7,7,0,0,0,5.1-2.21,7,7,0,0,0,5.1,2.21h20.4a7,7,0,0,0,7-7V80.68A25.52,25.52,0,0,0,122.45,84c5.6,5.87,14.25,8.85,25.72,8.85s20.11-3,25.72-8.85a26.49,26.49,0,0,0,4.72-6.94A26.77,26.77,0,0,0,183.34,84c5.6,5.87,14.25,8.85,25.72,8.85s20.12-3,25.72-8.85c.22-.23.44-.48.65-.72a7,7,0,0,0,5,6.34,89.62,89.62,0,0,0,24.8,3.23A92.91,92.91,0,0,0,278.85,92a22.71,22.71,0,0,0,8-2.58,27.53,27.53,0,0,0,5.54-4.23,17.32,17.32,0,0,0,3.38-4.65A24.35,24.35,0,0,0,298.6,84c5.6,5.87,14.25,8.85,25.72,8.85a94.57,94.57,0,0,0,24.45-3.3,7,7,0,0,0,5.1-7.89l-2.45-15a6.74,6.74,0,0,0-.38-1.4c2.91-3.22,5.27-8,5.27-15.12C356.31,40.74,353.51,34,348,30ZM54.77,43.11v16.4a6.92,6.92,0,0,0-2.38-.44,7,7,0,0,0-2.39.42,38.1,38.1,0,0,1-13,2l-1.06,0V43c.7-.06,1.61-.1,2.79-.1a51.67,51.67,0,0,1,10.67,1.27,6.62,6.62,0,0,0,1.47.16,7,7,0,0,0,3.85-1.16ZM37,68.52a39.58,39.58,0,0,1-8.06-.82A39.58,39.58,0,0,0,37,68.52ZM31.07,36.9a17,17,0,0,1,6.33-1A17,17,0,0,0,31.07,36.9Zm7.65-1a58.21,58.21,0,0,1,12.14,1.43h0A58.21,58.21,0,0,0,38.72,35.88Zm9.85-15.66c.77.14,1.47.29,2.12.45a19.64,19.64,0,0,1,3.23,1l-1.53,7.8,1.53-7.8a19.64,19.64,0,0,0-3.23-1c-.65-.16-1.35-.31-2.12-.45s-1.58-.28-2.45-.4C47,19.94,47.81,20.08,48.57,20.22ZM37,19.05q-17.45,0-24,8.47A24.74,24.74,0,0,0,9.88,33,24.74,24.74,0,0,1,13,27.52Q19.55,19,37,19.05ZM13,77.39A24.83,24.83,0,0,1,9.88,72,24.83,24.83,0,0,0,13,77.39a17,17,0,0,0,2.36,2.51A17,17,0,0,1,13,77.39ZM46.68,85.2a33.74,33.74,0,0,0,7.24-2L52.39,66.07a41.73,41.73,0,0,1-11.19,2.3,41.73,41.73,0,0,0,11.19-2.3l1.53,17.14A33.74,33.74,0,0,1,46.68,85.2Zm62-50.29a9.9,9.9,0,0,1,3.83,6,9.9,9.9,0,0,0-3.83-6q-3.57-2.71-10.1-3.06Q105.12,32.19,108.69,34.91Zm-12-3.11a31.06,31.06,0,0,0-14.49,3.37A31.06,31.06,0,0,1,96.66,31.8Z"/><path class="cls-2" d="M483.4,29.35c-4-3-9.17-4.55-15.47-4.55a41.09,41.09,0,0,0-19.33,4.8l-1.22-1.22a7,7,0,0,0-4.95-2.05h-10.2a7,7,0,0,0-7,7V35c-4.12-5.62-12.14-10.24-27.37-10.24a87,87,0,0,0-25.64,3.48,7,7,0,0,0-4.83,7.84l2.45,14.59a7.08,7.08,0,0,0,.29,1.12c-5.74,5.32-7,12.16-7,17.2,0,11.4,4.9,16.93,9,19.55a24.94,24.94,0,0,0,7.44,3.34,36.53,36.53,0,0,0,9.05.94,34.41,34.41,0,0,0,12.12-2.39A30.07,30.07,0,0,0,405.87,88l1.32,1.32a7,7,0,0,0,4.95,2h10.2a6.93,6.93,0,0,0,4.94-2,7,7,0,0,0,5,2h20.4a7,7,0,0,0,5.1-2.21,7,7,0,0,0,5.1,2.21h20.4a7,7,0,0,0,7-7V43.53A17.16,17.16,0,0,0,483.4,29.35Z"/><path class="cls-2" d="M900.07,66.68a7.42,7.42,0,0,0-.38-1.4c2.9-3.22,5.27-8,5.27-15.12,0-9.42-2.81-16.21-8.33-20.17-4.94-3.54-12.48-5.19-23.72-5.19-11.43,0-20.06,3-25.66,8.85a25.74,25.74,0,0,0-3.19,4.12V16.5a7,7,0,0,0-7-7l-.52,0-20.4,1.53a7,7,0,0,0-6.48,7v8.3h-4.73a28.35,28.35,0,0,0-11.62,2.29,23,23,0,0,0-8.39,6.09,25.53,25.53,0,0,0-3,4.41C778.82,31.83,771,24.8,752.2,24.8a86.83,86.83,0,0,0-25.63,3.48,3.57,3.57,0,0,0-.46.16A7,7,0,0,0,720,24.8a7.37,7.37,0,0,0-1.32.12,39.31,39.31,0,0,0-13,4.88l-1.35-1.38a7,7,0,0,0-5-2.09h-10.2a7,7,0,0,0-3.77,1.11l-7.19-6.91A7,7,0,0,0,669,20L662.4,25.1c-2.07-.2-4.31-.3-6.69-.3-10.69,0-18.47,1.92-23.77,5.88a21.15,21.15,0,0,0-5.58,6.2,23.58,23.58,0,0,0-9.53-8.94,30,30,0,0,0-14-3.14c-6.26,0-11.47,1.16-15.58,3.45a7,7,0,0,0-4.82-1.92h-10.2a6.78,6.78,0,0,0-2.38.43V20.58a7,7,0,0,0-7-7h-20.4a7,7,0,0,0-7,6.57,7,7,0,0,0-7-6.57h-20.4a7,7,0,0,0-7,7v35.8a75.79,75.79,0,0,0,1.27,15.43,27.27,27.27,0,0,0,5.65,12,22.8,22.8,0,0,0,11.86,7.38,60.23,60.23,0,0,0,15.55,1.67A60.72,60.72,0,0,0,551,91.19,22.81,22.81,0,0,0,563,83.81a25.23,25.23,0,0,0,2.31-3.29v20.64a7,7,0,0,0,7,7l.53,0,20.4-1.53a7,7,0,0,0,6.47-7v-8.3h4.73A28.4,28.4,0,0,0,616,89a24.22,24.22,0,0,0,8.42-6l.09-.11a30,30,0,0,0,6.24-13.49,23.38,23.38,0,0,0,5.33,3.39l-.68,2a7.16,7.16,0,0,0-.32,1.29,7.2,7.2,0,0,0-1.54-.17,7,7,0,0,0-6.89,5.8L624,96.9a7,7,0,0,0,5.15,8,96.22,96.22,0,0,0,23.72,3.28,72.62,72.62,0,0,0,17.69-1.74C679.37,104.23,685,98.85,687,91a7,7,0,0,0,2.06.31h20.4a7,7,0,0,0,7-7V59.11l.28-.08c1.26-.36,2.23-.58,3-.72A25.08,25.08,0,0,0,717.46,69c0,11.4,4.89,16.93,9,19.55a24.94,24.94,0,0,0,7.44,3.34,36.53,36.53,0,0,0,9.05.94,34.41,34.41,0,0,0,12.12-2.39A30.55,30.55,0,0,0,760.22,88l1.31,1.32a7,7,0,0,0,5,2h10.2a7,7,0,0,0,7-7V81.91a23.57,23.57,0,0,0,8.83,7.81,29.91,29.91,0,0,0,14,3.14c6.29,0,11.51-1.15,15.6-3.44a7,7,0,0,0,4.8,1.91h10.2a7,7,0,0,0,7-7V79.89A26.33,26.33,0,0,0,847.25,84c5.6,5.87,14.25,8.85,25.71,8.85a94.59,94.59,0,0,0,24.46-3.3,7,7,0,0,0,5.1-7.89Zm-218,.24V70a16.49,16.49,0,0,0-1.59-1.22A18.56,18.56,0,0,0,682.06,66.92Z"/></g><path class="cls-3" d="M37.8,76.36c-6.91,0-12.38-.73-16.7-2.23a22.8,22.8,0,0,1-10.86-7.6A29.59,29.59,0,0,1,4.91,54.86,71.41,71.41,0,0,1,3.5,39.51a72,72,0,0,1,1.41-15.4,29.65,29.65,0,0,1,5.33-11.73c5-6.52,14-9.83,26.75-9.83a68.45,68.45,0,0,1,9.63.8A34.67,34.67,0,0,1,55.33,5.5a3.49,3.49,0,0,1,2,3.88L54.29,25a3.49,3.49,0,0,1-3.43,2.83,3.72,3.72,0,0,1-.74-.08,54.51,54.51,0,0,0-11.4-1.35c-4.37,0-5.81.52-6.14.68h0s-.15.24-.15.92V51.74A36.49,36.49,0,0,0,37,52a41.49,41.49,0,0,0,14.2-2.24,3.57,3.57,0,0,1,1.2-.21,3.51,3.51,0,0,1,3.49,3.19L57.41,69.9a3.5,3.5,0,0,1-2.16,3.54C50.56,75.38,44.69,76.36,37.8,76.36Z"/><path class="cls-4" d="M37,6.05a63.28,63.28,0,0,1,9.13.77,32.54,32.54,0,0,1,7.8,1.88L50.86,24.31a58.21,58.21,0,0,0-12.14-1.43q-5.51,0-7.65,1T28.93,28V54.7a39.58,39.58,0,0,0,8.06.82,45,45,0,0,0,15.4-2.45l1.53,17.14Q47.5,72.87,37.8,72.86t-15.55-2A19.21,19.21,0,0,1,13,64.39a25.81,25.81,0,0,1-4.69-10.3A67.48,67.48,0,0,1,7,39.51,68.33,68.33,0,0,1,8.33,24.87,25.84,25.84,0,0,1,13,14.52Q19.55,6,37,6.05m0-7C23.13-.95,13.2,2.82,7.47,10.24a33.08,33.08,0,0,0-6,13.11A75.88,75.88,0,0,0,0,39.51,73.68,73.68,0,0,0,1.5,55.62a33.16,33.16,0,0,0,6,13A26.32,26.32,0,0,0,20,77.43c4.7,1.64,10.54,2.43,17.85,2.43s13.67-1.07,18.79-3.18a7,7,0,0,0,4.3-7.09L59.36,52.45a7,7,0,0,0-9.36-6,38.1,38.1,0,0,1-13,2l-1.06,0V30c.7-.06,1.61-.1,2.79-.1a51.67,51.67,0,0,1,10.67,1.27,6.62,6.62,0,0,0,1.47.16,7,7,0,0,0,6.87-5.66l3.06-15.6a7,7,0,0,0-4-7.76,38.18,38.18,0,0,0-9.61-2.4A71.19,71.19,0,0,0,37-.95Z"/><path class="cls-3" d="M92.37,74.83a3.5,3.5,0,0,1-3.5-3.5V39.13a13.32,13.32,0,0,0-3.17.32,2.77,2.77,0,0,0,0,.46V71.33a3.5,3.5,0,0,1-3.5,3.5H61.77a3.5,3.5,0,0,1-3.5-3.5V5a3.51,3.51,0,0,1,3.24-3.49L81.91,0h.26a3.49,3.49,0,0,1,3.5,3.5V17a36,36,0,0,1,11-1.65c6.06,0,10.82,1.29,14.16,3.83a13.78,13.78,0,0,1,5.45,11.4v40.8a3.5,3.5,0,0,1-3.5,3.5Z"/><path class="cls-4" d="M82.17,3.5V22.17A31.06,31.06,0,0,1,96.66,18.8q7.95,0,12,3.11a10.24,10.24,0,0,1,4.08,8.62v40.8H92.37V35.63H89.21a13.56,13.56,0,0,0-5.35.77c-1.13.51-1.69,1.68-1.69,3.51V71.33H61.77V5L82.17,3.5m0-7-.52,0L61.25-1.95a7,7,0,0,0-6.48,7v66.3a7,7,0,0,0,7,7h20.4a7,7,0,0,0,5.1-2.21,7,7,0,0,0,5.1,2.21h20.4a7,7,0,0,0,7-7V30.53a17.16,17.16,0,0,0-6.83-14.18c-4-3.06-9.34-4.55-16.28-4.55a40.92,40.92,0,0,0-7.49.67v-9a7,7,0,0,0-7-7Z"/><path class="cls-3" d="M148.17,76.36c-10.48,0-18.28-2.61-23.19-7.77s-7.34-12.76-7.34-22.76,2.47-17.66,7.34-22.76,12.72-7.77,23.19-7.77,18.26,2.61,23.18,7.76,7.35,12.77,7.35,22.77-2.47,17.66-7.35,22.76S158.64,76.36,148.17,76.36Zm-1.58-38.85c0,.12,0,.27,0,.47V54.47a13.39,13.39,0,0,0,3.17-.32,2.91,2.91,0,0,0,0-.47V37.19A13.43,13.43,0,0,0,146.59,37.51Z"/><path class="cls-4" d="M148.17,18.8q14.28,0,20.65,6.68t6.38,20.35q0,13.67-6.38,20.35t-20.65,6.68q-14.28,0-20.66-6.68t-6.37-20.35q0-13.66,6.37-20.35t20.66-6.68M143.07,58h3.16a13.75,13.75,0,0,0,5.35-.77c1.13-.51,1.69-1.68,1.69-3.52v-20H150.1a13.78,13.78,0,0,0-5.35.77c-1.12.51-1.68,1.68-1.68,3.52V58m5.1-46.17c-11.47,0-20.12,3-25.72,8.85s-8.31,14.25-8.31,25.18,2.79,19.41,8.31,25.18,14.25,8.85,25.72,8.85,20.11-3,25.72-8.85,8.31-14.25,8.31-25.18-2.8-19.4-8.31-25.18-14.26-8.85-25.72-8.85Z"/><path class="cls-3" d="M209.06,76.36c-10.47,0-18.27-2.61-23.19-7.77s-7.34-12.76-7.34-22.76,2.47-17.66,7.34-22.76,12.72-7.77,23.19-7.77,18.27,2.61,23.19,7.76,7.34,12.77,7.34,22.77-2.47,17.66-7.34,22.76S219.53,76.36,209.06,76.36Zm-1.58-38.85c0,.12,0,.27,0,.47V54.47a13.5,13.5,0,0,0,3.18-.32c0-.12,0-.27,0-.47V37.19A13.5,13.5,0,0,0,207.48,37.51Z"/><path class="cls-4" d="M209.06,18.8q14.28,0,20.66,6.68t6.37,20.35q0,13.67-6.37,20.35t-20.66,6.68q-14.28,0-20.65-6.68T182,45.83q0-13.66,6.38-20.35t20.65-6.68M204,58h3.16a13.84,13.84,0,0,0,5.36-.77c1.12-.51,1.68-1.68,1.68-3.52v-20H211a13.8,13.8,0,0,0-5.36.77C204.52,35,204,36.14,204,38V58m5.1-46.17c-11.46,0-20.12,3-25.72,8.85S175,34.9,175,45.83s2.8,19.41,8.31,25.18,14.25,8.85,25.72,8.85,20.12-3,25.72-8.85,8.31-14.25,8.31-25.18-2.8-19.4-8.31-25.18-14.26-8.85-25.72-8.85Z"/><path class="cls-3" d="M265.26,76.36a85.58,85.58,0,0,1-23.82-3.1,3.48,3.48,0,0,1-2.47-4l2.55-14.49A3.49,3.49,0,0,1,245,51.92a3.37,3.37,0,0,1,1,.16l.32.09c-4.37-3.57-6.59-9.05-6.59-16.29,0-8,2.83-13.56,8.41-16.59,4.88-2.65,11.5-4,19.67-4a70.45,70.45,0,0,1,22.11,3.34,3.5,3.5,0,0,1,2.35,3.91l-2.34,13.87a3.5,3.5,0,0,1-1.58,2.37,4,4,0,0,1-.54.28l.49.39a17.81,17.81,0,0,1,5.18,6.69,21.77,21.77,0,0,1,1.5,8.4,29.53,29.53,0,0,1-1.12,8.39A15.35,15.35,0,0,1,290,69.66a24.41,24.41,0,0,1-4.83,3.69,19.47,19.47,0,0,1-6.84,2.16A89.78,89.78,0,0,1,265.26,76.36Z"/><path class="cls-4" d="M267.81,18.8a67,67,0,0,1,21,3.16l-2.34,13.87a58.65,58.65,0,0,0-15.91-2.24q-2.46,0-6.94.41v3.26q16.53,0,22.44,4.9a14.15,14.15,0,0,1,4.18,5.35,18.07,18.07,0,0,1,1.23,7,26.27,26.27,0,0,1-1,7.4,11.88,11.88,0,0,1-3,5.2,20.83,20.83,0,0,1-4.13,3.16A16,16,0,0,1,277.81,72a84.27,84.27,0,0,1-12.55.82,82.06,82.06,0,0,1-22.85-3L245,55.42a62.48,62.48,0,0,0,18.57,2.65,78.74,78.74,0,0,0,8.36-.41V54.4q-16.32,0-22.49-4.29t-6.17-14.23q0-9.95,6.58-13.51t18-3.57m0-7c-8.88,0-15.86,1.44-21.34,4.42-4.67,2.53-10.24,8-10.24,19.66,0,6.48,1.65,11.16,3.86,14.52a7,7,0,0,0-2,3.8l-2.55,14.49a7,7,0,0,0,4.94,7.94,89.62,89.62,0,0,0,24.8,3.23A92.91,92.91,0,0,0,278.85,79a22.71,22.71,0,0,0,8-2.58,27.53,27.53,0,0,0,5.54-4.23,18.62,18.62,0,0,0,4.79-8.22,33.28,33.28,0,0,0,1.26-9.39,25,25,0,0,0-1.78-9.75,19.85,19.85,0,0,0-3.92-5.93,6.7,6.7,0,0,0,.6-1.87l2.35-13.87A7,7,0,0,0,291,15.31a74.09,74.09,0,0,0-23.2-3.51Z"/><path class="cls-3" d="M324.32,76.36c-10.47,0-18.28-2.61-23.19-7.77s-7.34-12.76-7.34-22.76,2.47-17.66,7.34-22.76,12.7-7.77,23.14-7.77,17.42,1.48,21.67,4.53c4.56,3.27,6.87,9.1,6.87,17.33,0,7.66-3.19,12.13-6.42,14.69A3.49,3.49,0,0,1,348,54.24l2.45,15a3.5,3.5,0,0,1-2.55,3.94A91.15,91.15,0,0,1,324.32,76.36Zm-.92-37.7a14.12,14.12,0,0,0,3.51-.32,2.91,2.91,0,0,0,0-.47v-.68h-.68a14.16,14.16,0,0,0-3.52.32c0,.12,0,.27,0,.47v.68Z"/><path class="cls-4" d="M324.27,18.8q14.22,0,19.63,3.88t5.41,14.48q0,9-6.48,12.9T319.22,54v3.57c2,.2,4.08.31,6.12.31a63.4,63.4,0,0,0,19.17-3.06l2.45,15a87.17,87.17,0,0,1-22.64,3.06q-14.28,0-20.66-6.68t-6.37-20.35q0-13.66,6.37-20.35t20.61-6.68m-5,23.36h4.18a13.75,13.75,0,0,0,5.35-.77c1.13-.51,1.69-1.68,1.69-3.52V33.69h-4.18a13.8,13.8,0,0,0-5.36.77c-1.12.51-1.68,1.68-1.68,3.52v4.18m5-30.36c-11.43,0-20.07,3-25.67,8.85s-8.31,14.25-8.31,25.18S293.08,65.24,298.6,71s14.25,8.85,25.72,8.85a94.57,94.57,0,0,0,24.45-3.3,7,7,0,0,0,5.1-7.89l-2.45-15a6.74,6.74,0,0,0-.38-1.4c2.91-3.22,5.27-8,5.27-15.12,0-9.42-2.8-16.21-8.33-20.17-4.94-3.54-12.47-5.19-23.71-5.19Z"/><path class="cls-3" d="M388.63,76.36a33.45,33.45,0,0,1-8.17-.82A22.23,22.23,0,0,1,374,72.63c-4.89-3.09-7.4-8.69-7.4-16.6,0-5.75,1.81-12.14,8.28-16.51a3.51,3.51,0,0,1-1.6-2.39l-2.45-14.59a3.5,3.5,0,0,1,2.42-3.92,83.63,83.63,0,0,1,24.6-3.32c23.12,0,28,11.06,28,20.33v35.7a3.5,3.5,0,0,1-3.5,3.5h-10.2a3.5,3.5,0,0,1-2.48-1l-3.39-3.39a24.64,24.64,0,0,1-6.76,3.78A30.77,30.77,0,0,1,388.63,76.36Zm6.27-21.89a14.43,14.43,0,0,0,3.54-.3V53h-.68a14.16,14.16,0,0,0-3.52.32c0,.12,0,.27,0,.47v.68Z"/><path class="cls-4" d="M397.86,18.8q24.48,0,24.48,16.83v35.7h-10.2l-5.82-5.81a19.32,19.32,0,0,1-8.05,5.4,27.25,27.25,0,0,1-9.64,1.94,30.45,30.45,0,0,1-7.3-.71,18.31,18.31,0,0,1-5.4-2.45Q370.11,66,370.11,56q0-18.36,27.75-18.36h4.08V34c-2.18-.14-4-.21-5.41-.21a62.8,62.8,0,0,0-19.79,2.76L374.3,22a79.93,79.93,0,0,1,23.56-3.16M390.72,58h4.18q4.49,0,5.76-1a3.25,3.25,0,0,0,1.28-2.65V49.5h-4.18a13.8,13.8,0,0,0-5.36.77c-1.12.51-1.68,1.68-1.68,3.52V58m7.14-46.17a87,87,0,0,0-25.64,3.48,7,7,0,0,0-4.83,7.84l2.45,14.59a7.08,7.08,0,0,0,.29,1.12c-5.74,5.32-7,12.16-7,17.2,0,11.4,4.9,16.93,9,19.55a24.94,24.94,0,0,0,7.44,3.34,36.53,36.53,0,0,0,9.05.94,34.41,34.41,0,0,0,12.12-2.39A30.07,30.07,0,0,0,405.87,75l1.32,1.32a7,7,0,0,0,4.95,2h10.2a7,7,0,0,0,7-7V35.63c0-8.9-4.09-23.83-31.48-23.83Z"/><path class="cls-3" d="M462.83,74.83a3.5,3.5,0,0,1-3.5-3.5V39.13a12.06,12.06,0,0,0-3.2.36V71.33a3.5,3.5,0,0,1-3.5,3.5h-20.4a3.5,3.5,0,0,1-3.5-3.5v-51a3.5,3.5,0,0,1,3.5-3.5h10.2a3.5,3.5,0,0,1,2.48,1L448,21a38,38,0,0,1,19.93-5.65c5.52,0,10,1.29,13.34,3.83a13.79,13.79,0,0,1,5.46,11.4v40.8a3.5,3.5,0,0,1-3.5,3.5Z"/><path class="cls-4" d="M467.93,18.8q7.14,0,11.22,3.11a10.24,10.24,0,0,1,4.08,8.62v40.8h-20.4V35.63h-3.16a13.67,13.67,0,0,0-5.25.77,3,3,0,0,0-1.79,3.11V71.33h-20.4v-51h10.2l5.1,5.1a34.92,34.92,0,0,1,20.4-6.63m0-7a41.09,41.09,0,0,0-19.33,4.8l-1.22-1.22a7,7,0,0,0-4.95-2.05h-10.2a7,7,0,0,0-7,7v51a7,7,0,0,0,7,7h20.4a7,7,0,0,0,5.1-2.21,7,7,0,0,0,5.1,2.21h20.4a7,7,0,0,0,7-7V30.53a17.16,17.16,0,0,0-6.83-14.18c-4-3-9.17-4.55-15.47-4.55Z"/><path class="cls-3" d="M535.45,76.36a56.7,56.7,0,0,1-14.63-1.55,19.44,19.44,0,0,1-10.09-6.24,24,24,0,0,1-4.92-10.49,73.07,73.07,0,0,1-1.19-14.7V7.58a3.5,3.5,0,0,1,3.5-3.5h20.4a3.5,3.5,0,0,1,3.5,3.5V51.92h3.74a11.67,11.67,0,0,0,3.08-.29A6.69,6.69,0,0,0,539,50V7.58a3.5,3.5,0,0,1,3.5-3.5h20.4a3.5,3.5,0,0,1,3.5,3.5v35.8a73.38,73.38,0,0,1-1.2,14.7,23.89,23.89,0,0,1-4.91,10.49,19.49,19.49,0,0,1-10.15,6.24A57.33,57.33,0,0,1,535.45,76.36Z"/><path class="cls-4" d="M562.89,7.58v35.8a70,70,0,0,1-1.12,14,20.37,20.37,0,0,1-4.18,9,15.9,15.9,0,0,1-8.37,5.1,54.46,54.46,0,0,1-13.77,1.43,54,54,0,0,1-13.72-1.43,15.88,15.88,0,0,1-8.31-5.1,20.37,20.37,0,0,1-4.18-9,70,70,0,0,1-1.12-14V7.58h20.4V55.42h7.24q3.87,0,5.3-1c1-.65,1.43-2.13,1.43-4.44V7.58h20.4m0-7h-20.4a7,7,0,0,0-7,6.57,7,7,0,0,0-7-6.57h-20.4a7,7,0,0,0-7,7v35.8a75.79,75.79,0,0,0,1.27,15.43,27.27,27.27,0,0,0,5.65,12,22.8,22.8,0,0,0,11.86,7.38,60.23,60.23,0,0,0,15.55,1.67A60.72,60.72,0,0,0,551,78.19,22.81,22.81,0,0,0,563,70.81a27.39,27.39,0,0,0,5.66-12,76.72,76.72,0,0,0,1.27-15.43V7.58a7,7,0,0,0-7-7Z"/><path class="cls-3" d="M572.27,91.66a3.51,3.51,0,0,1-2.38-.93,3.54,3.54,0,0,1-1.12-2.57V20.33a3.5,3.5,0,0,1,3.5-3.5h10.2a3.52,3.52,0,0,1,2.82,1.42L586.56,20c3.84-3.1,9.3-4.67,16.31-4.67A26.45,26.45,0,0,1,615.21,18a20,20,0,0,1,8.24,7.79c3.22,5.62,4.85,12.34,4.85,20,0,9.45-2.16,16.79-6.43,21.84a20.66,20.66,0,0,1-7.27,5.17,24.88,24.88,0,0,1-10.2,2h-8.23v11.8a3.5,3.5,0,0,1-3.23,3.49l-20.4,1.53Zm23.9-37.19a13.43,13.43,0,0,0,3.18-.32c0-.12,0-.27,0-.47V37.19a20.46,20.46,0,0,0-2.7.17,1,1,0,0,0-.49.18.13.13,0,0,1,0,.06Z"/><path class="cls-4" d="M602.87,18.8a22.76,22.76,0,0,1,10.71,2.35,16.41,16.41,0,0,1,6.84,6.42q4.38,7.65,4.38,18.26,0,13-5.61,19.58a17.14,17.14,0,0,1-6,4.24,21.42,21.42,0,0,1-8.78,1.68H592.67v15.3l-20.4,1.53V20.33h10.2l3.78,5.1q4.49-6.63,16.62-6.63M592.67,58h3.17a13.78,13.78,0,0,0,5.35-.77c1.12-.51,1.68-1.68,1.68-3.52v-20h-3.16a24,24,0,0,0-3.57.21A4.57,4.57,0,0,0,593.8,35a3.41,3.41,0,0,0-1.13,2.5V58m10.2-46.17c-6.26,0-11.47,1.16-15.58,3.45a7,7,0,0,0-4.82-1.92h-10.2a7,7,0,0,0-7,7V88.16a7,7,0,0,0,7,7l.53,0,20.4-1.53a7,7,0,0,0,6.47-7v-8.3h4.73A28.4,28.4,0,0,0,616,76a24.22,24.22,0,0,0,8.42-6l.09-.11c4.82-5.69,7.26-13.8,7.26-24.1,0-8.27-1.78-15.59-5.31-21.74a23.52,23.52,0,0,0-9.66-9.15,30,30,0,0,0-14-3.14Z"/><path class="cls-3" d="M652.9,91.66a93.09,93.09,0,0,1-22.85-3.17,3.48,3.48,0,0,1-2.57-4l2.65-15.2a3.47,3.47,0,0,1,1.66-2.41,3.53,3.53,0,0,1,1.78-.49,3.41,3.41,0,0,1,1.14.19,43.49,43.49,0,0,0,4.83,1.34,4.88,4.88,0,0,1-.7-1.41,8.53,8.53,0,0,1-.3-2.43,3.58,3.58,0,0,1,.2-1.16l1.79-5.14a20.67,20.67,0,0,1-9.18-5.62c-3.15-3.44-4.74-8.64-4.74-15.47,0-7.09,2.49-12.54,7.42-16.22,4.68-3.48,11.77-5.18,21.68-5.18a62.38,62.38,0,0,1,7.7.44l7.71-5.94a3.51,3.51,0,0,1,4.56.26l10.71,10.3a3.5,3.5,0,0,1,.24,4.79l-4.57,5.37a33.81,33.81,0,0,1,.91,8.37c0,6.33-1.71,11.21-5.08,14.5a15.84,15.84,0,0,1-4.54,3,20.64,20.64,0,0,1,4.7,2c2.85,1.7,6.25,5.32,6.25,12.95,0,9.87-5,16.33-14.59,18.7A69.31,69.31,0,0,1,652.9,91.66Zm-.09-55.48a2.91,2.91,0,0,0,0,.47v3.13a13.43,13.43,0,0,0,3.18-.32c0-.11,0-.27,0-.46V35.87A13.52,13.52,0,0,0,652.81,36.18Z"/><path class="cls-4" d="M673.25,12.58,684,22.88l-5.81,6.83a26.91,26.91,0,0,1,1.32,9.18q0,8.07-4,12t-14.34,4.74l-.4,2.45q11,.61,15.55,3.31t4.54,9.95q0,12.35-11.93,15.3a66.38,66.38,0,0,1-16,1.53,89.06,89.06,0,0,1-22-3.06l2.65-15.2a63,63,0,0,0,20.3,3,41.43,41.43,0,0,0,4.9-.2V69.09q-9.07,0-11.88-.77a10.17,10.17,0,0,1-3.68-1.53,3.43,3.43,0,0,1-1-1.27,5.33,5.33,0,0,1-.15-1.43l3.06-8.77q-7.35-1.34-11.17-5.51T630.11,36.7q0-8.93,6-13.41t19.59-4.49a54.51,54.51,0,0,1,8.67.61l8.87-6.83m-24,30.7h3.16a13.62,13.62,0,0,0,5.36-.77q1.68-.76,1.68-3.51V32.37h-3.16a13.78,13.78,0,0,0-5.35.76c-1.13.51-1.69,1.68-1.69,3.52v6.63m24-37.7A7,7,0,0,0,669,7L662.4,12.1c-2.07-.2-4.31-.3-6.69-.3-10.69,0-18.47,1.92-23.77,5.88-4,3-8.83,8.74-8.83,19,0,7.73,1.9,13.73,5.66,17.83a22.8,22.8,0,0,0,7.34,5.3l-.68,2a7.16,7.16,0,0,0-.32,1.29,7.17,7.17,0,0,0-1.53-.17,7,7,0,0,0-6.9,5.8L624,83.9a7,7,0,0,0,5.15,8,96.22,96.22,0,0,0,23.72,3.28c7.35,0,13.13-.57,17.69-1.75,11.1-2.76,17.21-10.6,17.21-22.08,0-8.75-3.85-13.27-7.34-15.57,4-4,6-9.64,6-16.87a40,40,0,0,0-.62-7.43l3.44-4a7,7,0,0,0-.47-9.59L678.1,7.53a7,7,0,0,0-4.85-1.95Z"/><path class="cls-3" d="M689.06,74.83a3.5,3.5,0,0,1-3.5-3.5v-51a3.5,3.5,0,0,1,3.5-3.5h10.2a3.51,3.51,0,0,1,2.5,1.05l3.37,3.43a35,35,0,0,1,14.18-5.95,3.68,3.68,0,0,1,.66-.06,3.49,3.49,0,0,1,3.49,3.28l1.23,19.28a3.52,3.52,0,0,1-3.35,3.72,25.15,25.15,0,0,0-5.56,1.09A12.65,12.65,0,0,0,713,43.78V71.33a3.5,3.5,0,0,1-3.5,3.5Z"/><path class="cls-4" d="M720,18.8l1.22,19.28a28.63,28.63,0,0,0-6.37,1.22q-3.93,1.13-5.36,2.86V71.33h-20.4v-51h10.2L704.87,26A30.28,30.28,0,0,1,720,18.8m0-7a7.37,7.37,0,0,0-1.32.12,39.31,39.31,0,0,0-13,4.88l-1.35-1.38a7,7,0,0,0-5-2.09h-10.2a7,7,0,0,0-7,7v51a7,7,0,0,0,7,7h20.4a7,7,0,0,0,7-7V46.11l.28-.08a22.55,22.55,0,0,1,4.75-1,7,7,0,0,0,6.69-7.44L727,18.36a7,7,0,0,0-7-6.56Z"/><path class="cls-3" d="M743,76.36a33.45,33.45,0,0,1-8.17-.82,22.23,22.23,0,0,1-6.45-2.91C723.46,69.54,721,63.94,721,56c0-5.75,1.8-12.14,8.27-16.51a3.51,3.51,0,0,1-1.6-2.39l-2.44-14.59a3.5,3.5,0,0,1,2.41-3.92,83.68,83.68,0,0,1,24.6-3.32c23.13,0,28,11.06,28,20.33v35.7a3.5,3.5,0,0,1-3.5,3.5h-10.2a3.5,3.5,0,0,1-2.48-1l-3.39-3.39a24.5,24.5,0,0,1-6.76,3.78A30.77,30.77,0,0,1,743,76.36Zm6.27-21.89a14.36,14.36,0,0,0,3.54-.3V53h-.68a14.22,14.22,0,0,0-3.52.32c0,.12,0,.27,0,.47v.68Z"/><path class="cls-4" d="M752.2,18.8q24.48,0,24.48,16.83v35.7h-10.2l-5.81-5.81a19.42,19.42,0,0,1-8.06,5.4A27.25,27.25,0,0,1,743,72.86a30.3,30.3,0,0,1-7.29-.71,18.24,18.24,0,0,1-5.41-2.45Q724.45,66,724.46,56q0-18.36,27.74-18.36h4.08V34c-2.18-.14-4-.21-5.41-.21a62.69,62.69,0,0,0-19.78,2.76L728.64,22A79.93,79.93,0,0,1,752.2,18.8M745.06,58h4.18q4.49,0,5.77-1a3.27,3.27,0,0,0,1.27-2.65V49.5H752.1a13.84,13.84,0,0,0-5.36.77c-1.12.51-1.68,1.68-1.68,3.52V58M752.2,11.8a86.83,86.83,0,0,0-25.63,3.48,7,7,0,0,0-4.84,7.84l2.45,14.59a7.08,7.08,0,0,0,.29,1.12c-5.74,5.32-7,12.16-7,17.2,0,11.4,4.89,16.93,9,19.55a24.94,24.94,0,0,0,7.44,3.34,36.53,36.53,0,0,0,9.05.94,34.41,34.41,0,0,0,12.12-2.39A30.55,30.55,0,0,0,760.22,75l1.31,1.32a7,7,0,0,0,5,2h10.2a7,7,0,0,0,7-7V35.63c0-8.9-4.09-23.83-31.48-23.83Z"/><path class="cls-3" d="M806.46,76.36a26.41,26.41,0,0,1-12.33-2.74,20,20,0,0,1-8.25-7.79c-3.22-5.61-4.85-12.34-4.85-20,0-9.46,2.21-16.82,6.56-21.87a19.59,19.59,0,0,1,7.14-5.14,24.92,24.92,0,0,1,10.2-2h8.23V5a3.5,3.5,0,0,1,3.24-3.49L836.8,0h.26a3.49,3.49,0,0,1,3.5,3.5V71.33a3.5,3.5,0,0,1-3.5,3.5h-10.2a3.48,3.48,0,0,1-2.44-1L822.49,72C818.72,74.88,813.35,76.36,806.46,76.36ZM810,37.51a2.91,2.91,0,0,0,0,.47V54.47a13.71,13.71,0,0,0,3.2-.31v-17A13.32,13.32,0,0,0,810,37.51Z"/><path class="cls-4" d="M837.06,3.5V71.33h-10.2l-4.38-4.28q-4.5,5.81-16,5.81a22.76,22.76,0,0,1-10.71-2.35,16.39,16.39,0,0,1-6.83-6.42q-4.39-7.65-4.39-18.26,0-12.94,5.71-19.58A16.14,16.14,0,0,1,796.16,22a21.41,21.41,0,0,1,8.77-1.68h11.73V5l20.4-1.53M806.46,58h3.16a14.78,14.78,0,0,0,5.16-.67,3.16,3.16,0,0,0,1.88-3V33.69H813.5a13.75,13.75,0,0,0-5.35.77c-1.13.51-1.69,1.68-1.69,3.52V58M837.06-3.5l-.52,0-20.4,1.53a7,7,0,0,0-6.48,7v8.3h-4.73a28.35,28.35,0,0,0-11.62,2.29,23,23,0,0,0-8.39,6.09c-4.9,5.7-7.39,13.82-7.39,24.12,0,8.28,1.79,15.59,5.32,21.74a23.39,23.39,0,0,0,9.66,9.15,29.91,29.91,0,0,0,14,3.14c6.29,0,11.51-1.15,15.6-3.44a7,7,0,0,0,4.8,1.91h10.2a7,7,0,0,0,7-7V3.5a7,7,0,0,0-7-7Z"/><path class="cls-3" d="M873,76.36c-10.47,0-18.27-2.61-23.18-7.77s-7.34-12.76-7.34-22.76,2.47-17.66,7.34-22.76,12.7-7.77,23.13-7.77,17.42,1.48,21.68,4.53c4.55,3.27,6.86,9.1,6.86,17.33,0,7.66-3.18,12.13-6.42,14.69a3.45,3.45,0,0,1,1.58,2.39l2.45,15a3.49,3.49,0,0,1-2.55,3.94A91.09,91.09,0,0,1,873,76.36Zm-.91-37.7a14.12,14.12,0,0,0,3.51-.32c0-.12,0-.27,0-.47v-.68h-.68a14.12,14.12,0,0,0-3.51.32c0,.12,0,.27,0,.47v.68Z"/><path class="cls-4" d="M872.91,18.8q14.24,0,19.64,3.88T898,37.16q0,9-6.48,12.9T867.87,54v3.57c2,.2,4.07.31,6.11.31a63.42,63.42,0,0,0,19.18-3.06l2.45,15A87.3,87.3,0,0,1,873,72.86q-14.28,0-20.65-6.68t-6.37-20.35q0-13.66,6.37-20.35t20.6-6.68m-5,23.36h4.18a13.75,13.75,0,0,0,5.35-.77c1.12-.51,1.68-1.68,1.68-3.52V33.69H874.9a13.78,13.78,0,0,0-5.35.77c-1.12.51-1.68,1.68-1.68,3.52v4.18m5-30.36c-11.43,0-20.06,3-25.66,8.85s-8.31,14.25-8.31,25.18,2.79,19.41,8.31,25.18S861.5,79.86,873,79.86a94.59,94.59,0,0,0,24.46-3.3,7,7,0,0,0,5.1-7.89l-2.45-15a7.42,7.42,0,0,0-.38-1.4c2.9-3.22,5.27-8,5.27-15.12,0-9.42-2.81-16.21-8.33-20.17-4.94-3.54-12.48-5.19-23.72-5.19Z"/></svg>