<svg xmlns="http://www.w3.org/2000/svg" viewBox="0 0 79.66 81.49"><defs><style>.cls-1{fill:#a3a7aa;}.cls-2{fill:#494949;}.cls-3{fill:#4a4756;}.cls-4{fill:#2d2d2d;}.cls-5{fill:#2f2c38;}.cls-6{fill:#15141a;}.cls-7{fill:#6f6d7c;}.cls-8{fill:#d7d7dd;}</style></defs><g id="Layer_3" data-name="Layer 3"><path class="cls-1" d="M73.44,18.42a37.78,37.78,0,0,0-1.55-3.88l-.24-.49c-.35-.72-.72-1.42-1.1-2.06a35.46,35.46,0,0,0-8.81-10.2,7.55,7.55,0,0,0-10.26.82c-2.32,2.49-6.78,4-11.65,4s-9.33-1.54-11.65-4a7.55,7.55,0,0,0-10.26-.82,35.29,35.29,0,0,0-9,10.51c-.42.75-.81,1.51-1.17,2.26l-.16.36A35.49,35.49,0,0,0,4.4,29.63c0,18.34,13.45,52,35.43,52S75.26,48,75.26,29.63A35.19,35.19,0,0,0,73.44,18.42Z"/><path class="cls-2" d="M55.44,9.08a4.47,4.47,0,0,1,.61.14A4.47,4.47,0,0,0,55.44,9.08Z"/><path class="cls-2" d="M56.48,9.35l-.09,0,.08,0Z"/><path class="cls-2" d="M54.41,9a5.34,5.34,0,0,1,.69,0A5.34,5.34,0,0,0,54.41,9Z"/><path class="cls-2" d="M50.66,10a3.33,3.33,0,0,1,.46-.24,3.33,3.33,0,0,0-.46.24Z"/><path class="cls-2" d="M66.78,20.41l-.12-.23h0Z"/><path class="cls-2" d="M53.08,9.05l.27,0Z"/><path class="cls-2" d="M67.33,44.69l0,.1,0-.1c.07-.22.12-.44.19-.67h0C67.45,44.25,67.4,44.47,67.33,44.69Z"/><path class="cls-2" d="M32.21,71a22.35,22.35,0,0,1-3.4-1.76A22.35,22.35,0,0,0,32.21,71Z"/><path class="cls-2" d="M67.9,42.69c0-.17.1-.34.14-.51,0,.17-.1.34-.14.51Z"/><path class="cls-2" d="M53.91,9h0Z"/><path class="cls-2" d="M28.81,69.26a27.81,27.81,0,0,1-3.15-2.33A27.81,27.81,0,0,0,28.81,69.26Z"/><path class="cls-2" d="M52.32,9.22l.23-.06Z"/><path class="cls-2" d="M32.29,12.48h0l-.22-.12h0Z"/><path class="cls-2" d="M24.83,9h0Z"/><path class="cls-2" d="M57,63.8h0l.12-.15h0Z"/><path class="cls-2" d="M11.56,22.94l-.15.41h0Z"/><path class="cls-2" d="M13.17,47.81c.07.19.13.38.21.57.36,1,.76,1.91,1.18,2.85h0c-.42-.94-.82-1.89-1.18-2.85C13.3,48.19,13.24,48,13.17,47.81Z"/><path class="cls-2" d="M11.61,22.81s0,.08,0,.13,0-.09,0-.13Z"/><path class="cls-2" d="M42.06,72.38c.32,0,.64-.07,1-.13-.32.06-.64.09-1,.13Z"/><path class="cls-2" d="M11.78,22.37h0c-.06.14-.11.28-.16.42h0C11.67,22.65,11.72,22.51,11.78,22.37Z"/><path class="cls-3" d="M63.31,25H55.63L51,31.73l5.24,8,.57.83h6.51c.09-.38.18-.75.26-1.11.2-.88.36-1.73.5-2.57a6,6,0,0,1-4.92-3.14,3.08,3.08,0,0,1-3.31.09c-1.42-1.05-1.27-3.65.33-5.8s4-3,5.46-2a.52.52,0,0,1,.1.11,7.66,7.66,0,0,1,1.67-.83h0a3,3,0,0,0-.1-.32Z"/><path class="cls-3" d="M46.91,17.92a21.4,21.4,0,0,1-2.16.58l-.55.11h0a18,18,0,0,1,.44,3.24,4.89,4.89,0,0,1-9.74.67,2.86,2.86,0,0,1-2.33-.17c-1.44-.83-1.81-2.9-.92-4.74l-.27-.09c-.44-.17-.86-.36-1.27-.56L27.3,20.72l5.84,7.85h10L49,20.72Z"/><path class="cls-3" d="M55.84,49.67a2.14,2.14,0,0,1,4.28-.06q.59-1.3,1.11-2.64H56.1L51.44,54.1l3.62,4.12a39.66,39.66,0,0,0,2.34-3.43,4.23,4.23,0,0,1,.69-2.62,3.44,3.44,0,0,1,.35-.41,2.31,2.31,0,0,1-.46.05A2.14,2.14,0,0,1,55.84,49.67Z"/><path class="cls-3" d="M55.18,14.26a1.63,1.63,0,0,0-1-.31,1.44,1.44,0,0,0-.51.09L56.6,18h2.59A23.93,23.93,0,0,0,55.18,14.26Z"/><path class="cls-3" d="M48.86,42.85l-5.06-7.3H32.39L29,40.39l-1.88,2.88,6.08,9.31h9.82l6.07-9.31Zm-9.15,6.38a6,6,0,0,1-5.64-4.06,2.46,2.46,0,0,1-2-.11c-1.53-.88-1.63-3.57-.23-6s3.78-3.69,5.31-2.8a2.26,2.26,0,0,1,1,1.27,6.29,6.29,0,0,1,1.63-.23,6,6,0,1,1,0,11.92Z"/><path class="cls-3" d="M16.14,40.58h3.27l2.28-3.29,3.58-5.49L20.56,25H16.13l0,.08,0,0,0,.07a.19.19,0,0,0,0,.07l.24.08c3.57,1.26,5.58,4.78,4.49,7.85a5.9,5.9,0,0,1-5.38,3.71c.14.84.29,1.69.49,2.56C16,39.83,16.05,40.2,16.14,40.58Z"/><path class="cls-3" d="M24.85,54.1,20.2,47h-2c.09.23.18.47.28.7a2.15,2.15,0,0,1,1.38,2,2.21,2.21,0,0,1-.15.78l.12.27a4.14,4.14,0,0,1,1.74,1.45,4.31,4.31,0,0,1,.66,2.92c.24.39.49.78.74,1.15Z"/><path class="cls-3" d="M28.75,63a4.71,4.71,0,0,1,.62-1.14c1.32-1.78,3.55-2.37,5-1.31s1.49,3.35.17,5.13a5.9,5.9,0,0,1-.57.64,15.81,15.81,0,0,0,1.53.57,5.42,5.42,0,0,1-.05-.64c0-2,1.93-3.65,4.31-3.65S44,64.22,44,66.24a5.12,5.12,0,0,1-.05.63,17.31,17.31,0,0,0,5-2.55c.17-.11.32-.23.48-.35l.3-.23L46,59.43H30.3l-2.43,2.76.52.49Z"/><path class="cls-2" d="M11.41,23.35s0,.08,0,.12,0-.08,0-.12Z"/><path class="cls-4" d="M24.7,66.07l.35.33c.2.18.4.36.61.53C25.34,66.66,25,66.36,24.7,66.07Z"/><path class="cls-4" d="M66.56,20a1.74,1.74,0,0,0-.1-.19c-.14-.28-.3-.56-.45-.83.15.27.31.55.45.83A1.74,1.74,0,0,1,66.56,20Z"/><path class="cls-4" d="M28.78,10a6.1,6.1,0,0,1,1.14.9A6.1,6.1,0,0,0,28.78,10Z"/><path class="cls-4" d="M48.74,11.51a6.14,6.14,0,0,0,.77-.65A6.14,6.14,0,0,1,48.74,11.51Z"/><path class="cls-4" d="M32.29,12.48l-.22-.12Z"/><path class="cls-4" d="M19.62,50.63l.21.09-.12-.27Z"/><path class="cls-4" d="M22.75,64.1l.15.17.16.17C23,64.33,22.86,64.21,22.75,64.1Z"/><path class="cls-4" d="M23.52,64.91l.36.38.28.26C23.94,65.34,23.73,65.13,23.52,64.91Z"/><path class="cls-4" d="M67.52,44c-.19.65-.38,1.29-.6,1.95.06-.18.12-.36.17-.54s.12-.36.17-.54a1,1,0,0,0,0-.1l0-.1C67.4,44.47,67.45,44.25,67.52,44Z"/><path class="cls-4" d="M66.87,20.61l-.09-.2-.11-.23C66.74,20.32,66.8,20.47,66.87,20.61Z"/><path class="cls-4" d="M57.09,63.65c-.27.3-.53.6-.8.88l.06-.06c.11-.11.21-.23.31-.34L57,63.8h0Z"/><path class="cls-4" d="M68,23.2a.88.88,0,0,1,0,.15.88.88,0,0,0,0-.15l-.09-.26c-.08-.19-.15-.38-.22-.57s-.09-.18-.12-.27C67.69,22.47,67.84,22.83,68,23.2Z"/><path class="cls-4" d="M13.74,18.43c-.17.27-.33.54-.48.82s-.34.62-.5.94C13.06,19.6,13.39,19,13.74,18.43Z"/><path class="cls-4" d="M11,40.58c.1.42.2.85.31,1.28,0,.1,0,.21.08.32s.1.33.14.49C11.34,42,11.16,41.26,11,40.58Z"/><path class="cls-4" d="M48.3,11.81a3.88,3.88,0,0,1-.48.3A3.88,3.88,0,0,0,48.3,11.81Z"/><path class="cls-4" d="M53.77,66.93c.42-.36.84-.73,1.24-1.11l.35-.35C54.84,66,54.32,66.47,53.77,66.93Z"/><path class="cls-4" d="M31.37,12h0Z"/><path class="cls-4" d="M47.43,12.33l-.52.25Z"/><path class="cls-5" d="M50.66,10l3,4.08A1.44,1.44,0,0,1,54.2,14a1.63,1.63,0,0,1,1,.31,23.93,23.93,0,0,1,4,3.7H65.4l.14.22L65.4,18c-.39-.61-.8-1.21-1.24-1.79s-.73-.94-1.12-1.4a4.24,4.24,0,0,1-5.3.26,4.2,4.2,0,0,1-1.27-5.67l-.08,0-.34-.1a4.47,4.47,0,0,0-.61-.14L55.1,9a5.34,5.34,0,0,0-.69,0L54.2,9h-.29l-.56,0-.27,0-.53.11-.23.06a6.49,6.49,0,0,0-.74.26,4,4,0,0,0-.46.24,3.33,3.33,0,0,0-.46.24Z"/><path class="cls-5" d="M33.14,12.87,30.09,17c.41.2.83.39,1.27.56l.27.09c.05-.11.1-.23.16-.34a3.82,3.82,0,0,1,4.37-2c.16-.5.34-1,.52-1.45-.14,0-.29,0-.43-.06a16.4,16.4,0,0,1-3.07-.84h0Z"/><path class="cls-5" d="M44.2,18.61l.55-.11a21.4,21.4,0,0,0,2.16-.58L49,20.72l-5.83,7.85H46.3l5.83-7.85L46.3,12.87h0a16.78,16.78,0,0,1-2.54.74l-.39.08-.57.07a30.81,30.81,0,0,1,1.43,4.85Z"/><path class="cls-5" d="M16.08,25.13l0,0,0-.08h4.43l4.71,6.79-3.58,5.49-2.28,3.29h3.14l2.28-3.29,3.58-5.49-5.86-8.45H11.41s0,.08,0,.12a.56.56,0,0,0,0,.12c-.08.23-.15.46-.22.69a29.63,29.63,0,0,1,4.93,1,.19.19,0,0,1,0-.07Z"/><path class="cls-5" d="M15.88,39.47c-.2-.87-.35-1.72-.49-2.56a7.77,7.77,0,0,1-3.05-.44,18.61,18.61,0,0,1-2.19-1c0,.19,0,.38.06.58A44.8,44.8,0,0,0,11,40.58h5.14C16.05,40.2,16,39.83,15.88,39.47Z"/><path class="cls-5" d="M33.93,66.31a3.46,3.46,0,0,1-4.39.67,3.35,3.35,0,0,1-.79-4l-.36-.31-.52-.49-3.18,3.63,1,1.11a27.81,27.81,0,0,0,3.15,2.33A22.35,22.35,0,0,0,32.21,71a19.71,19.71,0,0,0,5.17,1.36,15.77,15.77,0,0,1-1.92-5.5A15.81,15.81,0,0,1,33.93,66.31Z"/><path class="cls-5" d="M58.43,62.06h0c.69-.87,1.35-1.79,2-2.72l-.47-.29a5.58,5.58,0,0,1-2.54-4.26,39.66,39.66,0,0,1-2.34,3.43Z"/><path class="cls-5" d="M67.32,36.47a7.81,7.81,0,0,1-3.27.43c-.14.84-.3,1.69-.5,2.57-.08.36-.17.73-.26,1.11h5.14c-.16.69-.34,1.4-.53,2.11,0-.17.1-.34.14-.51.14-.54.27-1.08.39-1.6a46.26,46.26,0,0,0,.84-5A18,18,0,0,1,67.32,36.47Z"/><path class="cls-5" d="M28,54.1,22.68,46H12.51c-.21-.62-.38-1.24-.57-1.85.08.26.14.51.23.77v0l.09.28c.08.26.16.52.25.78s.23.66.35,1c0,.09.06.18.1.28s.14.38.21.56.13.38.21.57c.36,1,.76,1.91,1.18,2.85a6.55,6.55,0,0,1,1.25-.61,2.18,2.18,0,0,1-.23-.95,2.14,2.14,0,0,1,2.9-2c-.1-.23-.19-.47-.28-.7h2l4.65,7.13L23,56.24c-.25-.37-.5-.76-.74-1.15a5.66,5.66,0,0,1-2.51,4l-.62.37c.16.23.3.48.46.7.27.39.56.78.84,1.16s.39.51.59.76a0,0,0,0,1,0,0Z"/><path class="cls-5" d="M56.78,23.35,55.63,25h7.68a3,3,0,0,1,.1.32,26.93,26.93,0,0,1,4.92-1c-.1-.32-.2-.64-.31-1Z"/><polygon class="cls-5" points="52 42.85 45.84 33.96 33.49 33.96 32.39 35.55 43.8 35.55 48.86 42.85 49.13 43.27 43.06 52.58 46.2 52.58 52.28 43.27 52 42.85"/><path class="cls-5" d="M56.75,46l-.65,1h5.13q-.52,1.34-1.11,2.64s0,0,0,.06a2.06,2.06,0,0,1-.29,1,5.47,5.47,0,0,1,5.07.42l.42-.94c.25-.6.49-1.21.73-1.81l.33-.89c.06-.18.13-.35.19-.52s.11-.34.17-.5.12-.34.17-.5Z"/><path class="cls-5" d="M47.85,58H31.58L30.3,59.43H46l3.79,4.31-.3.23c-.16.12-.31.24-.48.35a17.31,17.31,0,0,1-5,2.55,16.06,16.06,0,0,1-1.91,5.51c.32,0,.64-.07,1-.13a21.65,21.65,0,0,0,8.9-3.86l.63-.47.53-.42.69-.57,1-1.11Z"/><path class="cls-5" d="M22.83,18l6-8a6.29,6.29,0,0,0-.67-.37,6,6,0,0,0-.7-.28,5,5,0,0,0-.76-.21A5.26,5.26,0,0,0,25.87,9c-.22,0-.43,0-.65,0h-.39a5.7,5.7,0,0,0-.83.09,8.19,8.19,0,0,0-.85.23A4.19,4.19,0,0,1,21.92,15a4.25,4.25,0,0,1-5.42-.39c-.43.5-.84,1-1.24,1.53S14.41,17.35,14,18h8.8Z"/><path class="cls-4" d="M11.86,22.19a1.42,1.42,0,0,0-.08.18h0c-.06.14-.11.28-.16.42h0v0h0s0,.08,0,.13l-.15.41h0C11.55,23,11.7,22.58,11.86,22.19Z"/><path class="cls-6" d="M68.43,40.58H56.78l-.57-.83-5.24-8L55.63,25l1.15-1.66H68a.88.88,0,0,0,0-.15c-.13-.37-.28-.73-.43-1.1s-.43-1-.67-1.49c-.07-.14-.13-.29-.2-.43h0l-.1-.2a1.74,1.74,0,0,0-.1-.19c-.14-.28-.3-.56-.45-.83s-.31-.53-.47-.78L65.4,18H56.6L53.69,14l-3-4.08h0a4.89,4.89,0,0,0-.6.41,6.23,6.23,0,0,0-.55.49,6.14,6.14,0,0,1-.77.65,4.27,4.27,0,0,1-.44.3,3.88,3.88,0,0,1-.48.3l-.39.22-.52.25c-.22.1-.43.2-.66.29h0l5.83,7.85L46.3,28.57H33.14L27.3,20.72,30.09,17l3.05-4.09h0c-.31-.12-.61-.25-.89-.38h0l-.22-.12h0c-.24-.12-.48-.25-.7-.38h0a8.22,8.22,0,0,1-1.43-1.11,6.1,6.1,0,0,0-1.14-.9l-6,8H14c-.1.16-.2.31-.29.47-.35.58-.68,1.17-1,1.76,0,.09-.09.18-.13.27-.28.57-.53,1.15-.77,1.73-.16.39-.31.77-.45,1.16H22.55l5.86,8.45-3.58,5.49-2.28,3.29H11c.16.68.34,1.39.53,2.09.13.48.27,1,.41,1.45s.36,1.23.57,1.85H22.68L28,54.1l-7,8c.56.71,1.15,1.38,1.75,2,.11.11.21.23.31.34s.3.32.46.47.42.43.64.64l.54.52c.32.29.64.59,1,.86l-1-1.11,3.18-3.63,2.43-2.76L31.58,58H47.85l6.9,7.85-1,1.11c.55-.46,1.07-1,1.59-1.46.31-.31.62-.61.93-.94s.53-.58.8-.88h0c.45-.51.9-1,1.34-1.59h0l-3.37-3.84L51.44,54.1,56.1,47l.65-1H66.92c.22-.66.41-1.3.6-1.95h0c.13-.45.26-.89.38-1.33h0C68.09,42,68.27,41.27,68.43,40.58Zm-22.23,12h-13l-6.08-9.31L29,40.39l3.35-4.84L33.49,34H45.84L52,42.85l.28.42Z"/><path class="cls-7" d="M38.08,37.54a2.26,2.26,0,0,0-1-1.27c-1.53-.89-3.91.37-5.31,2.8s-1.3,5.11.23,6a2.46,2.46,0,0,0,2,.11,6,6,0,0,1,4-7.63Z"/><path class="cls-7" d="M32.55,22.35a2.86,2.86,0,0,0,2.33.17,4.9,4.9,0,0,1-.07-.67,25.92,25.92,0,0,1,1.35-6.63,3.82,3.82,0,0,0-4.37,2c-.06.11-.11.23-.16.34C30.74,19.45,31.11,21.52,32.55,22.35Z"/><path class="cls-7" d="M34.5,65.67c1.32-1.78,1.25-4.08-.17-5.13s-3.64-.47-5,1.31A4.71,4.71,0,0,0,28.75,63a3.35,3.35,0,0,0,.79,4,3.46,3.46,0,0,0,4.39-.67A5.9,5.9,0,0,0,34.5,65.67Z"/><path class="cls-7" d="M56.15,28.05c-1.6,2.15-1.75,4.75-.33,5.8a3.08,3.08,0,0,0,3.31-.09,4.72,4.72,0,0,1-.24-.56,6.11,6.11,0,0,1,2.82-7,.52.52,0,0,0-.1-.11C60.19,25,57.75,25.9,56.15,28.05Z"/><path class="cls-7" d="M19.86,49.67a2.14,2.14,0,0,0-4.28,0,2.18,2.18,0,0,0,.23.95,5.32,5.32,0,0,1,3.81,0l.09-.18A2.21,2.21,0,0,0,19.86,49.67Z"/><path class="cls-7" d="M60.12,49.61A2.14,2.14,0,1,0,58,51.81a2.31,2.31,0,0,0,.46-.05,4.23,4.23,0,0,1,1.4-1,2.06,2.06,0,0,0,.29-1S60.12,49.63,60.12,49.61Z"/><path class="cls-8" d="M34.81,21.85a4.91,4.91,0,0,0,9.81,0,18,18,0,0,0-.44-3.24,30.81,30.81,0,0,0-1.43-4.85c-.84-2.07-1.89-3.7-3-3.7s-2.2,1.63-3,3.71c-.18.46-.36,1-.52,1.45A25.92,25.92,0,0,0,34.81,21.85Z"/><path class="cls-8" d="M44,66.87a5.12,5.12,0,0,0,.05-.63c0-2-1.93-3.65-4.3-3.65s-4.31,1.63-4.31,3.65a5.42,5.42,0,0,0,.05.64,15.77,15.77,0,0,0,1.92,5.5c.67,1.11,1.47,1.91,2.34,1.91s1.66-.8,2.34-1.91h0A16.06,16.06,0,0,0,44,66.87Z"/><path class="cls-8" d="M19.1,59.42l.62-.37a5.66,5.66,0,0,0,2.51-4,4.31,4.31,0,0,0-.66-2.92,4.14,4.14,0,0,0-1.74-1.45l-.21-.09a5.32,5.32,0,0,0-3.81,0,6.55,6.55,0,0,0-1.25.61h0l-.06,0a25.37,25.37,0,0,0-4.23,4c-2.08,2.42-3.81,5.18-3,6.43s3.4.79,6.13,0A30,30,0,0,0,19.1,59.42Z"/><path class="cls-8" d="M10.15,35.48a18.61,18.61,0,0,0,2.19,1,7.77,7.77,0,0,0,3.05.44,5.9,5.9,0,0,0,5.38-3.71c1.09-3.07-.92-6.59-4.49-7.85L16,25.27a29.63,29.63,0,0,0-4.93-1A35.67,35.67,0,0,0,4.71,24c-2.36.16-4.22.7-4.63,1.84-.53,1.52,1.58,3.82,4.28,5.91A42.25,42.25,0,0,0,10.15,35.48Z"/><path class="cls-8" d="M16.07,14.14a4.18,4.18,0,0,0,.43.5,4.25,4.25,0,0,0,5.42.39,4.19,4.19,0,0,0,1.23-5.74l0-.06C21.93,7.53,17.2,3.63,15,4.14a1.33,1.33,0,0,0-.49.2,1.6,1.6,0,0,0-.59.89C13.17,7.5,15,12.56,16.07,14.14Z"/><path class="cls-8" d="M65.16,51.27c-.08-.06-.17-.09-.25-.14a5.47,5.47,0,0,0-5.07-.42,4.23,4.23,0,0,0-1.4,1,3.44,3.44,0,0,0-.35.41,4.23,4.23,0,0,0-.69,2.62,5.58,5.58,0,0,0,2.54,4.26l.47.29a28.88,28.88,0,0,0,5.64,2.33c2.79.84,5.55,1.21,6.32.07s-1-4.14-3.13-6.61A24.75,24.75,0,0,0,65.16,51.27Z"/><path class="cls-8" d="M68.33,24.31a26.93,26.93,0,0,0-4.92,1h0a7.66,7.66,0,0,0-1.67.83,6.11,6.11,0,0,0-2.82,7,4.72,4.72,0,0,0,.24.56,6,6,0,0,0,4.92,3.14,7.81,7.81,0,0,0,3.27-.43,18,18,0,0,0,2-.87A40.74,40.74,0,0,0,75.06,32c2.82-2.14,5.07-4.53,4.52-6.09-.42-1.18-2.4-1.71-4.86-1.85A35.51,35.51,0,0,0,68.33,24.31Z"/><path class="cls-8" d="M56.54,9.23l-.06.12h0A4.2,4.2,0,0,0,57.74,15a4.24,4.24,0,0,0,5.3-.26,3.36,3.36,0,0,0,.55-.63c1-1.5,2.72-6.13,2.28-8.55a1.82,1.82,0,0,0-.69-1.25,1.45,1.45,0,0,0-.75-.24C62.1,3.92,57.69,7.59,56.54,9.23Z"/><path class="cls-8" d="M39.71,37.31a6.29,6.29,0,0,0-1.63.23,6,6,0,1,0,1.63-.23Z"/></g></svg>