<svg xmlns="http://www.w3.org/2000/svg" viewBox="0 0 70.85 81.49"><defs><style>.cls-1{fill:#e5d8ca;}.cls-2{fill:#59ba42;}.cls-3{fill:#499633;}.cls-4{fill:#156d15;}.cls-5{fill:#93e286;}</style></defs><g id="Layer_3" data-name="Layer 3"><path class="cls-1" d="M69,18.26a34.76,34.76,0,0,0-1.56-3.87l-.23-.5c-.36-.72-.73-1.41-1.1-2.06A35.45,35.45,0,0,0,57.33,1.64a7.54,7.54,0,0,0-10.25.81c-2.32,2.49-6.79,4-11.65,4s-9.34-1.54-11.66-4a7.54,7.54,0,0,0-10.25-.81,35.29,35.29,0,0,0-9,10.51c-.43.74-.82,1.5-1.17,2.26a3.73,3.73,0,0,0-.16.35,34.77,34.77,0,0,0-1.55,4A35.61,35.61,0,0,0,0,29.48c0,18.33,13.45,52,35.43,52s35.42-33.68,35.42-52A35.53,35.53,0,0,0,69,18.26Z"/><path class="cls-2" d="M51.92,39.75l.57.83H59c.09-.38.18-.75.26-1.11a35,35,0,0,0,1-7.52,20.71,20.71,0,0,0-.77-5.59v-.07a2,2,0,0,0-.07-.23v0c-.1-.33-.21-.67-.32-1H51.34l-4.66,6.72Zm5.4-13.68c1.42,1.06,1.27,3.65-.33,5.8s-4,3-5.46,2-1.27-3.65.33-5.8S55.9,25,57.32,26.07Z"/><path class="cls-2" d="M62.49,20.41l-.12-.23h0Z"/><path class="cls-2" d="M20.54,9h0Z"/><path class="cls-2" d="M46.37,10a3.33,3.33,0,0,1,.46-.24,3.33,3.33,0,0,0-.46.24Z"/><path class="cls-2" d="M63,44.69l0,.1,0-.1c.07-.22.12-.44.19-.67h0C63.16,44.25,63.11,44.47,63,44.69Z"/><path class="cls-2" d="M50.89,14.26a1.63,1.63,0,0,0-1-.31,1.44,1.44,0,0,0-.51.09L52.31,18H54.9A23.93,23.93,0,0,0,50.89,14.26Z"/><path class="cls-2" d="M48.79,9.05l.27,0Z"/><path class="cls-2" d="M49.62,9h0Z"/><path class="cls-2" d="M53.69,51.81a2.14,2.14,0,1,1,2.14-2.2q.59-1.3,1.11-2.64H51.81L47.15,54.1l3.62,4.12A43.16,43.16,0,0,0,55,51.36,2.09,2.09,0,0,1,53.69,51.81Z"/><path class="cls-2" d="M50.12,9a5.34,5.34,0,0,1,.69,0A5.34,5.34,0,0,0,50.12,9Z"/><path class="cls-2" d="M53,9.71a7.23,7.23,0,0,1,.84.51A7.23,7.23,0,0,0,53,9.71Z"/><path class="cls-2" d="M44.57,42.85l-5.06-7.3H28.1l-3.35,4.84-1.88,2.88L29,52.58h9.82l6.07-9.31ZM33,42.26c-1.41,2.43-3.78,3.69-5.31,2.8s-1.63-3.57-.23-6,3.78-3.69,5.31-2.8S34.44,39.83,33,42.26Z"/><path class="cls-2" d="M51.15,9.08a4.47,4.47,0,0,1,.61.14C51.56,9.16,51.35,9.12,51.15,9.08Z"/><path class="cls-2" d="M52.1,9.32a6.57,6.57,0,0,1,.61.26A6.57,6.57,0,0,0,52.1,9.32Z"/><path class="cls-2" d="M21,31.8,16.27,25H11.83l0,.08,0,0,0,.06-.15.46a2.41,2.41,0,0,1,1.66.41c1.42,1.06,1.27,3.65-.33,5.8a6.48,6.48,0,0,1-2.23,1.93,39.19,39.19,0,0,0,.87,5.67c.08.36.17.73.26,1.11h3.27l2.28-3.29Z"/><path class="cls-2" d="M48,9.22l.23-.06Z"/><path class="cls-2" d="M63.61,42.69c0-.17.1-.34.14-.51,0,.17-.1.34-.14.51Z"/><path class="cls-2" d="M52.67,63.8h0l.13-.15h0Z"/><path class="cls-2" d="M24.46,63a4.71,4.71,0,0,1,.62-1.14c1.32-1.78,3.55-2.37,5-1.31s1.49,3.35.17,5.13a5.9,5.9,0,0,1-.57.64,14.59,14.59,0,0,0,5.79,1.23,15.75,15.75,0,0,0,9.28-3.22c.17-.11.32-.23.48-.35l.3-.23L41.7,59.43H26l-2.43,2.76.52.49Z"/><path class="cls-2" d="M20.56,54.1,15.91,47h-2c.09.23.18.47.28.7a2.15,2.15,0,0,1,1.38,2,2.21,2.21,0,0,1-.15.78,47.06,47.06,0,0,0,3.25,5.79Z"/><path class="cls-2" d="M42.62,17.92c-.7.22-1.42.42-2.16.58l-.55.11a25.14,25.14,0,0,1-4.48.4c-.62,0-1.22,0-1.82-.08A4.89,4.89,0,0,1,33,20.47c-1.11,1.92-3.25,2.76-4.78,1.88s-1.81-2.9-.92-4.74a2.14,2.14,0,0,1-.27-.09c-.44-.17-.86-.36-1.27-.56L23,20.72l5.83,7.85h10l5.83-7.85Z"/><path class="cls-2" d="M28,12.48h0l-.22-.12h0Z"/><path class="cls-2" d="M27.92,71a22.35,22.35,0,0,1-3.4-1.76A22.35,22.35,0,0,0,27.92,71Z"/><path class="cls-2" d="M38.73,72.25a18.93,18.93,0,0,1-3.3.29A18.93,18.93,0,0,0,38.73,72.25Z"/><path class="cls-2" d="M24.52,69.26a27.81,27.81,0,0,1-3.15-2.33A27.81,27.81,0,0,0,24.52,69.26Z"/><path class="cls-3" d="M20.41,66.07l.35.33c.2.18.4.36.61.53C21.05,66.66,20.73,66.36,20.41,66.07Z"/><path class="cls-3" d="M24.49,10a6.1,6.1,0,0,1,1.14.9A6.1,6.1,0,0,0,24.49,10Z"/><path class="cls-3" d="M62.27,20a1.74,1.74,0,0,0-.1-.19c-.14-.28-.3-.56-.45-.83.15.27.31.55.45.83A1.74,1.74,0,0,1,62.27,20Z"/><path class="cls-3" d="M11.59,39.47a39.19,39.19,0,0,1-.87-5.67,3,3,0,0,1-3.23.05c-1.41-1.05-1.27-3.65.33-5.8a5.59,5.59,0,0,1,3.8-2.39l.15-.46,0-.06,0,0,0-.08h4.44L21,31.8,17.4,37.29l-2.28,3.29h3.14l2.28-3.29,3.58-5.49-5.86-8.45H7.12a2.25,2.25,0,0,0-.08.24c-.12.35-.23.69-.34,1,0,.13-.07.26-.1.38A25.77,25.77,0,0,0,5.65,32a40.22,40.22,0,0,0,1.06,8.63h5.14C11.76,40.2,11.67,39.83,11.59,39.47Z"/><path class="cls-3" d="M7.65,44.12c.08.26.14.51.23.77v0c.11.35.22.7.34,1.06C8,45.35,7.84,44.73,7.65,44.12Z"/><path class="cls-3" d="M52.8,63.65c-.27.3-.53.6-.8.88l.06-.06c.21-.22.41-.45.61-.67h0Z"/><path class="cls-3" d="M19.23,64.92c.12.12.23.25.36.37l.28.26Z"/><path class="cls-3" d="M63.23,44c-.19.65-.38,1.29-.6,1.95.06-.18.12-.36.17-.54s.12-.36.17-.54a1,1,0,0,0,0-.1l0-.1C63.11,44.47,63.16,44.25,63.23,44Z"/><path class="cls-3" d="M28,12.48l-.22-.12Z"/><path class="cls-3" d="M63.68,23.2a.88.88,0,0,1,0,.15.88.88,0,0,0,0-.15l-.09-.26c-.08-.19-.15-.38-.22-.57s-.09-.18-.12-.27C63.4,22.47,63.55,22.83,63.68,23.2Z"/><path class="cls-3" d="M46.37,10l3,4.08a1.44,1.44,0,0,1,.51-.09,1.63,1.63,0,0,1,1,.31,23.93,23.93,0,0,1,4,3.7h6.21l.14.22L61.11,18c-.39-.61-.8-1.21-1.24-1.79a28.37,28.37,0,0,0-6-6h0A7.23,7.23,0,0,0,53,9.71l-.29-.13a6.57,6.57,0,0,0-.61-.26l-.34-.1a4.47,4.47,0,0,0-.61-.14L50.81,9a5.34,5.34,0,0,0-.69,0l-.21,0h-.29l-.56,0-.27,0-.53.11L48,9.22a6.49,6.49,0,0,0-.74.26,4,4,0,0,0-.46.24,3.33,3.33,0,0,0-.46.24Z"/><path class="cls-3" d="M44.45,11.51a6.14,6.14,0,0,0,.77-.65A6.14,6.14,0,0,1,44.45,11.51Z"/><path class="cls-3" d="M62.58,20.61l-.09-.2-.11-.23C62.45,20.32,62.51,20.47,62.58,20.61Z"/><path class="cls-3" d="M28.84,12.87,25.8,17c.41.2.83.39,1.27.56a2.14,2.14,0,0,0,.27.09c.05-.11.1-.23.16-.34,1.11-1.92,3.25-2.76,4.78-1.88a3.28,3.28,0,0,1,1.33,3.54c.6,0,1.2.08,1.82.08a25.14,25.14,0,0,0,4.48-.4l.55-.11c.74-.16,1.46-.36,2.16-.58l2.08,2.8-5.83,7.85H42l5.83-7.85L42,12.87h0a16.78,16.78,0,0,1-2.54.74l-.39.08a20,20,0,0,1-3.6.32,19.49,19.49,0,0,1-3.47-.3,16.4,16.4,0,0,1-3.07-.84h-.05Z"/><polygon class="cls-3" points="47.71 42.85 41.55 33.96 38.41 33.96 29.2 33.96 28.1 35.55 39.51 35.55 44.57 42.85 44.84 43.27 38.77 52.58 41.91 52.58 47.98 43.27 47.71 42.85"/><path class="cls-3" d="M23.7,54.1,18.39,46H8.22c.11.33.23.66.35,1,0,.09.06.18.1.28.13.38.27.75.42,1.13a53.54,53.54,0,0,0,6.18,11.74c.27.39.56.78.84,1.16s.39.51.59.76a0,0,0,0,1,0,0ZM13.43,51.81a2.14,2.14,0,1,1,.76-4.14c-.1-.23-.19-.47-.28-.7h2l4.65,7.13-1.89,2.14a47.06,47.06,0,0,1-3.25-5.79A2.15,2.15,0,0,1,13.43,51.81Z"/><path class="cls-3" d="M43.56,58H27.29L26,59.43H41.7l3.79,4.31-.3.23c-.16.12-.31.24-.48.35a15.75,15.75,0,0,1-9.28,3.22,14.59,14.59,0,0,1-5.79-1.23,3.46,3.46,0,0,1-4.39.67,3.35,3.35,0,0,1-.79-4l-.36-.31-.52-.49-3.19,3.63,1,1.11a27.81,27.81,0,0,0,3.15,2.33A22.35,22.35,0,0,0,27.92,71a19.3,19.3,0,0,0,7.51,1.52,18.93,18.93,0,0,0,3.3-.29,21.65,21.65,0,0,0,8.9-3.86l.63-.47.53-.42.69-.57,1-1.11Z"/><path class="cls-3" d="M44,11.81a3.88,3.88,0,0,1-.48.3A3.88,3.88,0,0,0,44,11.81Z"/><path class="cls-3" d="M9,19.25l-.5.94c.3-.59.63-1.18,1-1.76C9.28,18.7,9.12,19,9,19.25Z"/><path class="cls-3" d="M43.14,12.33l-.52.25Z"/><path class="cls-3" d="M7.49,22.37c-.06.14-.11.28-.16.42h0v0s0,.08-.05.13l-.15.41c.14-.39.29-.77.45-1.16A1.42,1.42,0,0,0,7.49,22.37Z"/><path class="cls-3" d="M6.71,40.58c.1.42.2.85.31,1.28,0,.1.05.21.08.32s.1.33.14.49C7.05,42,6.87,41.26,6.71,40.58Z"/><path class="cls-3" d="M27.08,12h0Z"/><path class="cls-3" d="M18.54,18l5.95-8a6.29,6.29,0,0,0-.67-.37,6,6,0,0,0-.7-.28,5,5,0,0,0-.76-.21A5.26,5.26,0,0,0,21.58,9c-.22,0-.43,0-.65,0h-.39a5.7,5.7,0,0,0-.83.09A6.61,6.61,0,0,0,17,10.22a28.66,28.66,0,0,0-6,6c-.43.58-.85,1.18-1.23,1.79h8.8Z"/><path class="cls-3" d="M18.46,64.1l.15.17.16.17C18.67,64.33,18.57,64.21,18.46,64.1Z"/><path class="cls-3" d="M64.13,24.59c-.12-.41-.25-.83-.4-1.24H52.49L51.34,25H59c.11.32.22.66.32,1v0a2,2,0,0,1,.07.23v.07A20.71,20.71,0,0,1,60.21,32a35,35,0,0,1-1,7.52c-.08.36-.17.73-.26,1.11h5.14c-.16.69-.34,1.4-.53,2.11,0-.17.1-.34.14-.51.14-.54.27-1.08.39-1.6A40.28,40.28,0,0,0,65.21,32a25.44,25.44,0,0,0-1-6.94A3.31,3.31,0,0,0,64.13,24.59Z"/><path class="cls-3" d="M49.48,66.93c.42-.36.84-.73,1.24-1.11.12-.11.23-.23.34-.35C50.55,66,50,66.47,49.48,66.93Z"/><path class="cls-3" d="M52.46,46l-.65,1h5.13q-.52,1.34-1.11,2.64s0,0,0,.06A2.13,2.13,0,0,1,55,51.36a43.16,43.16,0,0,1-4.22,6.86l3.37,3.84h0A51.37,51.37,0,0,0,61,50.19c.25-.6.49-1.21.73-1.81l.33-.89c.06-.18.13-.35.19-.52s.11-.34.17-.5.12-.34.17-.5Z"/><path class="cls-4" d="M64.14,40.58H52.49l-.57-.83-5.24-8L51.34,25l1.15-1.66H63.73a.88.88,0,0,0,0-.15c-.13-.37-.28-.73-.43-1.1s-.43-1-.67-1.49c-.07-.14-.13-.29-.2-.43h0a1.86,1.86,0,0,0-.1-.2,1.74,1.74,0,0,0-.1-.19c-.14-.28-.3-.56-.45-.83s-.31-.53-.47-.78L61.11,18h-8.8L49.4,14l-3-4.08h0a4.89,4.89,0,0,0-.6.41,6.23,6.23,0,0,0-.55.49,6.14,6.14,0,0,1-.77.65,4.27,4.27,0,0,1-.44.3,3.88,3.88,0,0,1-.48.3l-.39.22-.52.25c-.22.1-.43.2-.66.29h0l5.83,7.85L42,28.57H28.84L23,20.72,25.8,17l3-4.09h.05c-.31-.12-.61-.25-.89-.38h0l-.22-.12h0c-.24-.12-.48-.25-.7-.38h0a8.22,8.22,0,0,1-1.43-1.11,6.1,6.1,0,0,0-1.14-.9l-5.95,8H9.74c-.1.16-.2.31-.29.47-.35.58-.68,1.17-1,1.76-.05.09-.09.18-.13.27-.28.57-.53,1.15-.77,1.73-.16.39-.31.77-.45,1.16H18.26l5.86,8.45-3.58,5.49-2.28,3.29H6.71c.16.68.34,1.39.53,2.09.13.48.27,1,.41,1.45S8,45.35,8.22,46H18.39L23.7,54.1l-7,8c.56.71,1.15,1.38,1.75,2,.11.11.21.23.31.34l.46.48.64.63.54.52c.32.29.64.59,1,.86l-1-1.11,3.19-3.63L26,59.43,27.29,58H43.56l6.9,7.85-1,1.11c.54-.46,1.07-1,1.58-1.46.32-.3.63-.61.94-.94s.53-.58.8-.88h0c.45-.51.9-1,1.34-1.59h0l-3.37-3.84L47.15,54.1,51.81,47l.65-1H62.63c.22-.66.41-1.3.6-1.95h0c.13-.45.26-.89.38-1.33h0C63.8,42,64,41.27,64.14,40.58Zm-22.23,12H29l-6.08-9.31,1.88-2.88,3.35-4.84L29.2,34H41.55l6.16,8.89.28.42Z"/><path class="cls-5" d="M32.81,36.27c-1.53-.89-3.91.37-5.31,2.8s-1.3,5.11.23,6,3.9-.37,5.31-2.8S34.34,37.15,32.81,36.27Z"/><path class="cls-5" d="M28.26,22.35c1.53.88,3.67,0,4.78-1.88a4.89,4.89,0,0,0,.57-1.54,3.28,3.28,0,0,0-1.33-3.54c-1.53-.88-3.67,0-4.78,1.88-.06.11-.11.23-.16.34C26.45,19.45,26.82,21.52,28.26,22.35Z"/><path class="cls-5" d="M30.21,65.67c1.32-1.78,1.25-4.08-.17-5.13s-3.64-.47-5,1.31A4.71,4.71,0,0,0,24.46,63a3.35,3.35,0,0,0,.79,4,3.46,3.46,0,0,0,4.39-.67A5.9,5.9,0,0,0,30.21,65.67Z"/><path class="cls-5" d="M13,31.87c1.6-2.15,1.75-4.74.33-5.8a2.41,2.41,0,0,0-1.66-.41,5.59,5.59,0,0,0-3.8,2.39c-1.6,2.15-1.74,4.75-.33,5.8a3,3,0,0,0,3.23-.05A6.48,6.48,0,0,0,13,31.87Z"/><path class="cls-5" d="M51.53,33.85c1.42,1.06,3.86.17,5.46-2s1.75-4.74.33-5.8-3.86-.17-5.46,2S50.11,32.8,51.53,33.85Z"/><path class="cls-5" d="M14.19,47.67a2.14,2.14,0,1,0,1.23,2.78,2.21,2.21,0,0,0,.15-.78A2.15,2.15,0,0,0,14.19,47.67Z"/><path class="cls-5" d="M53.69,47.53a2.14,2.14,0,0,0,0,4.28,2.09,2.09,0,0,0,1.3-.45,2.13,2.13,0,0,0,.85-1.69s0,0,0-.06A2.13,2.13,0,0,0,53.69,47.53Z"/></g></svg>