<svg id="Layer_1" data-name="Layer 1" xmlns="http://www.w3.org/2000/svg" xmlns:xlink="http://www.w3.org/1999/xlink" viewBox="0 0 264 283"><defs><style>.cls-1{fill:url(#linear-gradient);}.cls-2{fill:#68a2c4;}.cls-3{fill:url(#linear-gradient-2);}.cls-4{fill:#2c3b54;}.cls-5{fill:#6395b6;}.cls-6{fill:url(#linear-gradient-3);}.cls-7{fill:#64b7d8;}</style><linearGradient id="linear-gradient" x1="132" y1="466.94" x2="132" y2="136.68" gradientUnits="userSpaceOnUse"><stop offset="0" stop-color="#4f5b74"/><stop offset="1" stop-color="#3b3c4c"/></linearGradient><linearGradient id="linear-gradient-2" x1="132" y1="-36.25" x2="132" y2="245.88" gradientUnits="userSpaceOnUse"><stop offset="0" stop-color="#5e7f9d"/><stop offset="1" stop-color="#505b73"/></linearGradient><linearGradient id="linear-gradient-3" x1="132" y1="312.2" x2="132" y2="-88.87" gradientUnits="userSpaceOnUse"><stop offset="0" stop-color="#47677f"/><stop offset="1" stop-color="#3c475b"/></linearGradient></defs><rect class="cls-1" y="19" width="264" height="264" rx="61.65"/><rect class="cls-2" width="264" height="264" rx="61.65"/><path class="cls-3" d="M264,67V204c0,33.15-27.6,60-61.65,60H61.65C27.6,264,0,237.13,0,204V67C0,33.87,27.6,7,61.65,7h140.7C236.4,7,264,33.87,264,67Z"/><path class="cls-4" d="M159.23,196.81H99.77A60.76,60.76,0,0,1,39,136.05V95.77C39,54.21,66.21,35,99.77,35h59.46A60.77,60.77,0,0,1,220,95.77v40.28A60.76,60.76,0,0,1,159.23,196.81Z"/><rect class="cls-5" x="44" y="44.38" width="181" height="155.62" rx="61.65"/><rect class="cls-6" x="42" y="38.19" width="180" height="155.62" rx="61.65"/><circle class="cls-7" cx="34" cy="32" r="18"/><ellipse class="cls-7" cx="209.17" cy="190.27" rx="17.05" ry="11.25" transform="translate(-72.91 170.68) rotate(-38.32)"/><ellipse class="cls-7" cx="79.5" cy="13" rx="24.5" ry="10"/></svg>