<svg id="Layer_1" data-name="Layer 1" xmlns="http://www.w3.org/2000/svg" viewBox="0 0 988 421.43"><defs><style>.cls-1,.cls-4{fill:#282e38;}.cls-1{opacity:0.44;}.cls-2{fill:#4f5b74;}.cls-3{fill:#3a4554;}.cls-5{fill:#5d7d9a;}.cls-6{fill:#7fa5ba;}.cls-7{fill:#90a7bc;}.cls-8{fill:#303e49;}</style></defs><path class="cls-1" d="M988,374.09a4.2,4.2,0,0,1-4.21,4.21A139.06,139.06,0,0,1,954,383.73a282.78,282.78,0,0,1-29.66.76,547,547,0,0,1-58.58-5q-15.54-2.07-30.94-4.73c-2-.34-4-.69-6-1l-1.47-.26,1.71,1.63.84.86a64.9,64.9,0,0,1,10.54,14.85c.88,1.76,6.93,17.48,6.93,23.59,0,.29,0,.57,0,.86v0a5,5,0,0,1-4.48,5.11,190.17,190.17,0,0,1-45-.64,195.7,195.7,0,0,1-22-4.39c-4.12-1.12-8.21-2.37-12.25-3.72h0s-48-13.29-79.68-46.28l-8.25,20.05a24.06,24.06,0,0,1-14.33,13.46,24.87,24.87,0,0,1-16.28.08,23.19,23.19,0,0,1-3.59-1.53l-46.75-24.64a22.87,22.87,0,0,1-12.37-20.2v-.38H405.65v.38a22.87,22.87,0,0,1-12.37,20.2l-46.75,24.64a23.19,23.19,0,0,1-3.59,1.53,24.87,24.87,0,0,1-16.28-.08,24.06,24.06,0,0,1-14.33-13.46l-8.25-20.05c-31.66,33-79.68,46.28-79.68,46.28h0c-4,1.35-8.13,2.6-12.25,3.72a195.7,195.7,0,0,1-22,4.39,190.17,190.17,0,0,1-45,.64,5,5,0,0,1-4.48-5.11v0c0-.29,0-.57,0-.86,0-6.11,6-21.83,6.93-23.59s1.7-3.17,2.64-4.68c.73-1.14,1.48-2.25,2.26-3.33a73.74,73.74,0,0,1,5.64-6.84c.26-.28.53-.55.8-.82l1.75-1.67-1.47.26-6.29,1.1h0c-2.59.45-5.19.88-7.78,1.3l-4.18.66q-9.32,1.47-18.69,2.72a547,547,0,0,1-58.58,5A282.78,282.78,0,0,1,34,383.73,139.06,139.06,0,0,1,4.21,378.3,4.2,4.2,0,0,1,0,374.09a4.22,4.22,0,0,1,.9-2.57l1.27-1.62a86.8,86.8,0,0,1,10.06-10.75,105.75,105.75,0,0,1,11.59-9.08l0,0,.41-.33c.63-.52,1.26-1,1.9-1.52.12-.11.25-.21.38-.31.66-.51,1.33-1,2-1.5l1.2-.89c.92-.66,1.86-1.31,2.8-1.94l.66-.45c1.19-.79,2.39-1.56,3.6-2.3,2.08-1.29,4.18-2.55,6.3-3.76l.3-.17c1.68-1,3.36-1.9,5.07-2.82h0c6-3.18,12.06-6.06,18.25-8.68l1.05-.44c5.33-2.27,10.77-4.21,16.24-6s11-3.35,16.57-4.74,11.17-2.55,16.81-3.49a158.17,158.17,0,0,1,17-2.1,177,177,0,0,1,19.75-2.17s-5.52-.91-15.12-6.57c-2.52-1.33-5-2.67-7.55-4.05-1.17-.63-2.34-1.28-3.51-1.93-3.14-1.77-6.26-3.58-9.37-5.51-1-.63-2-1.25-2.93-1.9h0a47.71,47.71,0,0,1-6.35-4.87h0l-.14-.13,0,0a3.78,3.78,0,0,1-1.06-1.89,3.86,3.86,0,0,1,0-1.82c3.1-.65,6.22-1.23,9.34-1.75,4.89-.83,9.8-1.55,14.74-1.95h0l.81.07h0l.34,0h0c3.61.31,7.17.72,10.72,1.2,10.55,1.47,21,3.42,31.27,5.74a234.87,234.87,0,0,1,33.39,7.19A170.94,170.94,0,0,1,240.27,301l6,3.2c15.84,8.49,28.42,15.58,38.24,21.32l4.11,2.43-1.65-4-.14-.34a15.75,15.75,0,0,1,1.32-14.59,16.66,16.66,0,0,1,12.88-7.58l.9-.07,15.33-1.15,5.13-.39V166a42.16,42.16,0,0,1,42.1-42.12h259A42.16,42.16,0,0,1,665.58,166V299.75l5.13.39,14.44,1.09,1.79.13a16.66,16.66,0,0,1,12.88,7.58,15.75,15.75,0,0,1,1.32,14.59l-1.79,4.37c10.34-6.14,24.2-14,42.35-23.75l6-3.2c20.77-11,44-16.84,64.91-19.85,10.32-2.33,20.74-4.28,31.3-5.75,3.44-.47,6.91-.87,10.4-1.17a247.32,247.32,0,0,1,25.54,5.66,3.74,3.74,0,0,1-1,1.63l-.16.15h0a61.73,61.73,0,0,1-9.29,6.77c-3.11,1.93-6.23,3.74-9.37,5.51-3.66,2-7.36,4-11.06,6-9.6,5.66-15.12,6.57-15.12,6.57a177,177,0,0,1,19.75,2.17,158.17,158.17,0,0,1,17,2.1c5.64.94,11.26,2.06,16.81,3.49s11.09,3,16.57,4.74,10.91,3.7,16.24,6a220.14,220.14,0,0,1,24.21,11.84q3.42,2,6.77,4c1.21.74,2.41,1.51,3.6,2.3l.66.45c.94.63,1.88,1.28,2.8,1.94l1.2.89c.67.49,1.34,1,2,1.5s1.53,1.21,2.28,1.83l.41.33,0,0a95.61,95.61,0,0,1,21.65,19.83l1.27,1.62A4.22,4.22,0,0,1,988,374.09Z"/><path class="cls-2" d="M969.37,331.58a134.71,134.71,0,0,1-25,5.19c-58.16,7.06-138.37-10.83-140.46-11.29,1.37.84,38.26,23.67,34.69,49-1.27.11-2.54.21-3.8.29-1.94.14-3.87.24-5.77.32-54.31,2.39-94.16-15.1-120-32.64-24.34-16.48-36.31-33-36.31-33s3.65-2.71,12.42-8.23c10.43-6.57,28.12-17.11,55.55-31.8,2-1,4-2.1,6-3.21,21.59-11.44,45.86-17.3,67.39-20.2a290.45,290.45,0,0,1,60.44-1.86c-25.37,24.9-41.67,27.58-41.67,27.58a181.37,181.37,0,0,1,21.45,2.44,247.32,247.32,0,0,1,25.54,5.66c26.71,7.43,60,21.62,86.55,48.68Q967.93,330,969.37,331.58Z"/><path class="cls-3" d="M672.73,309.46s12,16.51,36.31,33c27.38,18.55,70.39,37.05,129.61,32,3.57-25.33-25.64-45.12-27-46,2.41.53,101.19,21.24,157.73,3.06q-1.44-1.56-2.94-3.06c-7,0-117-1.51-205.85-49-7.48-4-14.07-7.36-19.88-10.11C690.19,296.47,672.73,309.46,672.73,309.46Z"/><path class="cls-4" d="M840.05,269.28q9.6-4.83,19-10.09c3.14-1.77,6.26-3.59,9.37-5.51a61.14,61.14,0,0,0,9.29-6.78h0l.16-.15a3.88,3.88,0,0,0,.05-5.48,3.79,3.79,0,0,0-2-1.08c-1.49-.3-3-.69-4.47-.86s-2.87-.3-4.27-.35l-4.15-.07-4.09.14c-5.41.3-10.73.85-16,1.58-10.56,1.47-21,3.41-31.3,5.74,10.53-1,21.09-1.49,31.59-1.56,5.25,0,10.48.14,15.63.54l3.82.37,3.74.56c1.23.21,2.38.53,3.57.78s2.14.73,3.2,1.06l-1.8-6.71h0a56.11,56.11,0,0,1-6.78,7.27c-2.57,2.4-5.24,4.75-7.94,7.07Q848.54,262.67,840.05,269.28Z"/><path class="cls-2" d="M809.6,328.52c3.94,2.14,21.84,35.91,14.3,36.77-4.54.51,10.65,0,10.65,0C837.32,365.28,820.85,332.6,809.6,328.52Z"/><path class="cls-2" d="M836.15,359.16s-75.58,12.27-151.15-46c-10.21,1-4.67,10.82-4.67,10.82s111.11,77.93,161,56.53C844.33,363.24,836.15,359.16,836.15,359.16Z"/><path class="cls-4" d="M682,322.49c-1.47-1.49-2.92-3-4.33-4.59l2.74-2.43a156.71,156.71,0,0,0,16.2,14.36,197.71,197.71,0,0,0,17.81,12.44A201.4,201.4,0,0,0,753.39,361,196,196,0,0,0,774.08,367a190.9,190.9,0,0,0,21.2,3.41A179,179,0,0,0,833,370c-.12-1-.27-1.94-.45-2.9a63.84,63.84,0,0,0-1.88-7.41c-.16-.51-.33-1-.51-1.49a58.49,58.49,0,0,0-6.49-12.81A93.14,93.14,0,0,0,813.58,333l-.4-.41c-.35-.36-.72-.71-1.09-1.06-2.47-2.47-5.06-4.86-7.8-7.11-1.27-1-2.55-2-3.88-3a75,75,0,0,1,7.31,3.6c16.53,2.69,33.11,5,49.72,6.76A539.45,539.45,0,0,0,915.28,335a272.25,272.25,0,0,0,28.66-1.52,145.33,145.33,0,0,0,18.3-3.12c-6.1-5-12.15-10.07-18.54-14.83a204.22,204.22,0,0,0-28.11-17.67A278.68,278.68,0,0,0,885,284.05c-1.49-.55-3-1.08-4.49-1.62s-3.24-1.17-4.87-1.73l-4.14-1.39-3.24-1.05c-1.74-.55-3.49-1.07-5.24-1.58l-2.51-.74c-2.6-.72-5.22-1.41-7.86-2a158.54,158.54,0,0,1,17,2.1c5.64.94,11.26,2.07,16.81,3.5s11.09,3,16.57,4.74,10.91,3.69,16.24,6a214.49,214.49,0,0,1,31,15.87c1.21.75,2.41,1.52,3.6,2.3l.66.46c.94.63,1.88,1.27,2.8,1.94l1.2.88c.67.5,1.34,1,2,1.51s1.53,1.21,2.28,1.82l.45.36,0,0,0,0h0a95.66,95.66,0,0,1,21.65,19.84l1.27,1.61a4.27,4.27,0,0,1,.9,2.58,4.18,4.18,0,0,1-4.21,4.2A138.46,138.46,0,0,1,953,349a282.77,282.77,0,0,1-29.66.75,549.57,549.57,0,0,1-58.58-5q-18.57-2.49-36.95-5.78l-1.47-.27c.85.83,1.73,1.62,2.55,2.49a65.34,65.34,0,0,1,10.54,14.85c.88,1.76,6.93,17.49,6.93,23.6,0,.28,0,.57,0,.85v0a5,5,0,0,1-4.48,5.11,190.7,190.7,0,0,1-45-.63,195.7,195.7,0,0,1-22-4.39q-6.18-1.68-12.25-3.73h0s-49.05-13.55-80.68-47.32l.08-3.78c-.56-.6-1.13-1.18-1.67-1.79Z"/><path class="cls-5" d="M930.84,314c-15-15.67-60.78-31.86-94.54-32.4S945.87,329.67,930.84,314Z"/><path class="cls-5" d="M856.6,248.71c-3.36-3.19-24.86-2.22-30.16,5.47S860,251.9,856.6,248.71Z"/><path class="cls-2" d="M314.27,309.46s-12,16.51-36.31,33c-27.38,18.55-70.39,37.05-129.61,32-3.57-25.33,33.32-48.17,34.69-49-2.41.53-108.87,24.28-165.41,6.1q1.44-1.56,2.94-3.06c53.17-54.23,133.54-56.78,133.54-56.78s-16.3-2.68-41.67-27.58A290.45,290.45,0,0,1,172.88,246c21.53,2.9,45.8,8.76,67.39,20.2l6,3.21C296.81,296.47,314.27,309.46,314.27,309.46Z"/><path class="cls-3" d="M314.27,309.46s-12,16.51-36.31,33c-27.38,18.55-70.39,37.05-129.61,32-3.57-25.33,25.64-45.12,27-46-2.41.53-101.19,21.24-157.73,3.06q1.44-1.56,2.94-3.06c7,0,117-1.51,205.85-49,7.48-4,14.07-7.36,19.88-10.11C296.81,296.47,314.27,309.46,314.27,309.46Z"/><path class="cls-4" d="M147,269.28q-9.6-4.83-19-10.09c-3.14-1.77-6.26-3.59-9.37-5.51a61.14,61.14,0,0,1-9.29-6.78h0l-.16-.15a3.88,3.88,0,0,1,0-5.48,3.79,3.79,0,0,1,2-1.08c1.49-.3,3-.69,4.47-.86s2.87-.3,4.27-.35l4.15-.07,4.09.14c5.41.3,10.73.85,16,1.58,10.56,1.47,21,3.41,31.3,5.74-10.53-1-21.09-1.49-31.59-1.56-5.25,0-10.48.14-15.63.54l-3.82.37-3.74.56c-1.23.21-2.38.53-3.57.78s-2.14.73-3.2,1.06l1.8-6.71h0a56.11,56.11,0,0,0,6.78,7.27c2.57,2.4,5.24,4.75,7.94,7.07Q138.46,262.67,147,269.28Z"/><path class="cls-2" d="M177.4,328.52c-3.94,2.14-21.84,35.91-14.3,36.77,4.54.51-10.65,0-10.65,0C149.68,365.28,166.15,332.6,177.4,328.52Z"/><path class="cls-2" d="M150.85,359.16s75.58,12.27,151.15-46c10.21,1,4.67,10.82,4.67,10.82s-111.11,77.93-161,56.53C142.67,363.24,150.85,359.16,150.85,359.16Z"/><path class="cls-4" d="M308.15,319.14c-1,1.14-2.11,2.26-3.19,3.36l1.71,1.53c-.54.61-1.11,1.19-1.67,1.79l.08,3.78c-31.63,33.77-80.68,47.33-80.68,47.33h0q-6.06,2-12.25,3.73a195.7,195.7,0,0,1-22,4.39,189.56,189.56,0,0,1-39.92,1.08q-2.53-.19-5.07-.45a5,5,0,0,1-4.48-5.1v0c0-.29,0-.58,0-.86a18.64,18.64,0,0,1,.29-2.89c1.22-7.15,5.88-19.18,6.64-20.7a64.9,64.9,0,0,1,10.54-14.85c.82-.88,1.7-1.67,2.55-2.5l-1.47.27q-18.39,3.28-36.95,5.78a549.57,549.57,0,0,1-58.58,5A280.08,280.08,0,0,1,34,349q-3.9-.33-7.8-.82a125.94,125.94,0,0,1-22-4.62,4.17,4.17,0,0,1-3-1.22,4.21,4.21,0,0,1-1.23-3,4.27,4.27,0,0,1,.9-2.58l1.27-1.61a87.6,87.6,0,0,1,10.06-10.76,105.66,105.66,0,0,1,11.59-9.07l0,0c.13-.12.27-.22.41-.33.75-.62,1.51-1.24,2.28-1.83s1.33-1,2-1.51l1.2-.88c.92-.67,1.86-1.31,2.8-1.94l.66-.46c1.19-.78,2.39-1.55,3.6-2.3a214.49,214.49,0,0,1,31-15.87c5.33-2.27,10.77-4.21,16.24-6s11-3.35,16.57-4.74q3.72-1,7.47-1.74c3.1-.65,6.22-1.23,9.34-1.75,4.89-.83,9.8-1.55,14.74-1.95h0l2.21-.16h0l-1,.24h0c-2.28.56-4.55,1.17-6.81,1.8-.84.23-1.67.49-2.51.73-1.75.51-3.5,1-5.24,1.58-1.08.34-2.16.7-3.24,1.06l-4.14,1.38-2.26.79-2.61.94c-1.5.54-3,1.07-4.49,1.62A282.48,282.48,0,0,0,71.41,297.9,204.22,204.22,0,0,0,43.3,315.57c-5.53,4.12-10.8,8.45-16.07,12.8l-2.47,2a147.18,147.18,0,0,0,18.3,3.13c1.8.2,3.61.38,5.42.52h0c7.68.67,15.44,1,23.23,1a539.45,539.45,0,0,0,57.84-3.31c16.61-1.78,33.19-4.07,49.72-6.76a75,75,0,0,1,7.31-3.6c-1.33,1-2.61,2-3.88,3-.62.51-1.23,1-1.84,1.55q-2.28,2-4.43,4.06c-.52.48-1,1-1.53,1.49l-.5.48h0c-.2.18-.4.38-.59.58l-.4.4a93.14,93.14,0,0,0-10.12,12.44,58.49,58.49,0,0,0-6.49,12.81c-.18.49-.35,1-.51,1.49l0,.05a55.73,55.73,0,0,0-1.49,5.6c-.13.59-.25,1.18-.37,1.77-.18,1-.33,1.92-.45,2.9a179,179,0,0,0,37.75.36,190.9,190.9,0,0,0,21.2-3.41A196,196,0,0,0,233.61,361a201.4,201.4,0,0,0,38.93-18.77,197.71,197.71,0,0,0,17.81-12.44,154.4,154.4,0,0,0,16.2-14.36l1.25,1.11.26.23,1.23,1.09C308.91,318.32,308.54,318.73,308.15,319.14Z"/><path class="cls-5" d="M56.16,314c15-15.67,60.78-31.86,94.54-32.4S41.13,329.67,56.16,314Z"/><path class="cls-5" d="M130.4,248.71c3.36-3.19,24.86-2.22,30.16,5.47S127,251.9,130.4,248.71Z"/><path class="cls-2" d="M653.28,235.19c-9.43-10.9-37.65-47.32,6.52-47.32,42.38,0,108.33-48.72,131.15-66.64a7.83,7.83,0,0,1,12.16,3.41c23.55,62.29-9.14,78.47-9.14,78.47s15.15,50.08-26,58.78c-.66.13,4.33,37-26.74,41.94-25.2,3.78-53,0-75-4.93-12.14-2.72-13.4-19.35-12.1-33.68l-5.4-.06Z"/><path class="cls-5" d="M747.72,162.05c-26,16.74-45.17,30.21-36.17,39.21,8.17,8.17,44,8.48,67.41-6.13s24.56-27.29,23.43-40C800.62,135.4,773.68,145.31,747.72,162.05Z"/><path class="cls-5" d="M748.05,218.32c-20.61,7.53-36,14-30.58,23.42,4.91,8.58,30.57,17.24,49.14,10.86s20.83-16.45,21.51-27C789.17,209.06,768.65,210.8,748.05,218.32Z"/><path class="cls-5" d="M711.55,287.05c4.42,10.36,39.59,16.86,46.35-7.91S711.55,276.83,711.55,287.05Z"/><circle class="cls-6" cx="781" cy="164.49" r="12.26"/><circle class="cls-6" cx="761.6" cy="173.68" r="5.11"/><circle class="cls-6" cx="772.83" cy="227.81" r="10.21"/><circle class="cls-6" cx="756.49" cy="235.98" r="4.09"/><circle class="cls-5" cx="706.45" cy="275.81" r="5.11"/><path class="cls-2" d="M337.21,265.16l-5.39.06c.61,6.72.65,14-.74,20-1.55,6.84-4.94,12.21-11.37,13.64-21.94,4.92-49.78,8.7-75,4.92-14.4-2.28-21.06-11.43-24.1-20.61a37.74,37.74,0,0,1-1.06-3.67c-2.23-9.25-1.27-17.59-1.57-17.65-41.12-8.7-26-58.79-26-58.79s-32.68-16.17-9.13-78.47a7.85,7.85,0,0,1,12.16-3.41c17.4,13.66,59.85,45.22,97.82,59.46,11.84,4.43,23.26,7.19,33.33,7.19,1.21,0,2.35,0,3.43.08,39.22,1.88,12.26,36.62,3.09,47.24Z"/><polygon class="cls-7" points="527.72 88.91 493.26 88.91 493.26 89.02 458.54 89.02 462.56 84.97 493 54.31 493.18 54.13 493.26 54.21 523.7 84.87 527.72 88.91"/><polygon class="cls-7" points="493.26 54.05 493.26 54.21 493.18 54.13 493.26 54.05"/><path class="cls-3" d="M331.08,285.26c-1.55,6.84-4.94,12.21-11.37,13.64-21.94,4.92-49.78,8.7-75,4.92-14.4-2.28-21.06-11.43-24.1-20.61l-1.06-3.67s89.63.43,73.29-98.86c11.84,4.43,23.26,7.19,33.33,7.19,1.21,0,2.35,0,3.43.08Z"/><path class="cls-3" d="M654.92,285.26c1.55,6.84,4.94,12.21,11.37,13.64,21.94,4.92,49.78,8.7,75,4.92,14.4-2.28,21.06-11.43,24.1-20.61l1.06-3.67s-89.63.43-73.29-98.86c-11.84,4.43-23.26,7.19-33.33,7.19-1.21,0-2.35,0-3.43.08Z"/><path class="cls-5" d="M401.09,76.66l-35.26,42L352.07,99.13s-30.64.71-30.64-28.74V12.73c0-10,8.17-17.77,15-8.75l55.07,61.87Z"/><path class="cls-5" d="M584.91,76.66l35.26,42,13.76-19.51s30.64.71,30.64-28.74V12.73c0-10-8.17-17.77-15-8.75L594.53,65.85Z"/><path class="cls-2" d="M584.91,76.66l35.26,42,13.76-19.51s30.64.71,30.64-28.74V44.73c-7.68,16.63-26,41.84-62.44,24.27a65.73,65.73,0,0,0-7.6-3.15Z"/><path class="cls-8" d="M527.72,92a5.11,5.11,0,0,1-7.15-1c-.51-.68-1-1.37-1.57-2-1-1.37-2.13-2.71-3.19-4C506.29,73.1,496.45,63.46,493,62.75c-3.46.71-13.3,10.35-22.82,22.12-1.06,1.33-2.14,2.67-3.19,4-.53.68-1.06,1.37-1.57,2a5.11,5.11,0,0,1-7.15,1,5.13,5.13,0,0,1-1-7.11s0,0,0,0c7.21-9.58,25.06-31.93,35.56-32.34h.37c10.5.41,28.35,22.76,35.56,32.34,0,0,0,0,0,0A5.11,5.11,0,0,1,527.72,92Z"/><path class="cls-2" d="M401.09,76.66l-35.26,42L352.07,99.13s-30.64.71-30.64-28.74V44.73c7.68,16.63,26,41.84,62.44,24.27a65.73,65.73,0,0,1,7.6-3.15Z"/><path class="cls-5" d="M664.58,127V313.21H321.42V127a42.13,42.13,0,0,1,42.1-42.12h259A42.13,42.13,0,0,1,664.58,127Z"/><path class="cls-2" d="M373.19,189.56s5.65-30.13,46.39-24.53c53,9.67,57.7,58.37,47.18,70.79S373.19,189.56,373.19,189.56Z"/><path class="cls-6" d="M558.36,287A42.47,42.47,0,0,1,549,313.21H437A42.47,42.47,0,0,1,427.64,287c0-9.88,3.65-19.09,10-26.92l0,0c6.14-7.64,14.82-13.89,25.16-18.12a79.2,79.2,0,0,1,60.38,0c10.34,4.23,19,10.48,25.16,18.12l0,0C554.71,268,558.36,277.16,558.36,287Z"/><path class="cls-3" d="M466.76,235.82a51.31,51.31,0,0,1-96.41-23.55c-.23-13.71,1.71-26.17,10.31-35.52,5.35-2.8,12.54-2.27,20.51.28,26.74,8.56,62.13,39.94,65.28,44.65C470.54,227.81,468.49,231.9,466.76,235.82Z"/><path class="cls-4" d="M466.76,235.82a51.38,51.38,0,0,1-29.34,24.37,51.33,51.33,0,0,1-44.61-50c-.2-12.61,1.41-24.15,8.36-33.2,26.74,8.56,62.13,39.94,65.28,44.65C470.54,227.81,468.49,231.9,466.76,235.82Z"/><path class="cls-4" d="M522.45,264.68l-3.33,3.55A35.4,35.4,0,0,1,502,278.4a36.06,36.06,0,0,1-8.76,1.15H493a36.08,36.08,0,0,1-8.77-1.15,35.42,35.42,0,0,1-17.09-10.17l-3.33-3.55a12.14,12.14,0,0,1,6.33-20.2A117.38,117.38,0,0,1,493,242.37h.26a117.38,117.38,0,0,1,22.86,2.11A12.14,12.14,0,0,1,522.45,264.68Z"/><polygon class="cls-7" points="517.89 126.5 508.01 135.89 493 150.17 477.98 135.89 468.1 126.5 468.83 117.49 493 98.13 517.16 117.49 517.89 126.5"/><path class="cls-4" d="M549.15,293.05c-3.68,6.66-13.38,16.54-27.62,16.54a35.3,35.3,0,0,1-13.19-2.71c-7-2.78-11.91-6.27-15.34-10.05-3.44,3.78-8.36,7.27-15.34,10.05a35.34,35.34,0,0,1-13.2,2.71c-14.24,0-23.94-9.88-27.61-16.54a8.16,8.16,0,0,1,14.23-8c1.21,2.05,7.68,11.79,20.51,6.66,8.89-3.55,11.93-7.88,12.38-13.32a37.51,37.51,0,0,0-1-10.17,8.17,8.17,0,0,1,6.41-9.62,82.62,82.62,0,0,0,7.27,0,8.19,8.19,0,0,1,6.42,9.62,37.15,37.15,0,0,0-1,10.17c.45,5.44,3.5,9.77,12.38,13.32,12.83,5.13,19.31-4.61,20.51-6.66a8.16,8.16,0,0,1,14.24,8Z"/><path class="cls-2" d="M517.16,119.55l-3.9,7L508,135.89l-15,11.52-15-11.52-5.25-9.31-3.9-7s1.92-1.39,1.7-2a29.33,29.33,0,0,0,3.57,4.92c7.68,8.36,16.59,7.34,18.9,7.34s11.21,1,18.89-7.34a28.78,28.78,0,0,0,3.57-4.92C515.24,118.16,517.16,119.55,517.16,119.55Z"/><ellipse class="cls-2" cx="402.11" cy="119.55" rx="26.55" ry="48" transform="translate(251.99 511.28) rotate(-85.59)"/><circle class="cls-2" cx="433.77" cy="231.9" r="18.38"/><polygon class="cls-7" points="405.63 27.67 384.12 57.6 376.58 103.21 376.58 122 394.96 129.77 422.25 126.49 435.81 117.51 433.77 96.06 422.25 54.42 408.41 27.67 405.63 27.67"/><path class="cls-5" d="M407.21,23.55S397,122.81,415.39,127.31,395,129.77,395,129.77l-18.38-10.22-3.07-16.94,15.32-50.46S403.13,23.55,407.21,23.55Z"/><ellipse class="cls-6" cx="639.04" cy="37.85" rx="24.51" ry="9.19" transform="translate(203.82 507.31) rotate(-50.56)"/><ellipse class="cls-6" cx="373.51" cy="267.64" rx="17.36" ry="29.62" transform="translate(-83.21 318.15) rotate(-41.93)"/><polygon class="cls-2" points="421.62 307.11 405.17 319.73 397 340.15 340.93 370.28 327.82 363.54 311.27 320.16 302.02 295.85 301 293.18 303.7 284.02 407.21 274.79 419.65 284.02 421.62 307.11"/><ellipse class="cls-4" cx="456.92" cy="174.9" rx="14.33" ry="28.14" transform="translate(-7.06 330.12) rotate(-39.44)"/><path class="cls-5" d="M386,291.56c-43.69,7.91-64.69,19.55-74.74,28.6L302,295.85c13.09-2.39,39.12-6.88,51.07-7.46C369.41,287.64,395.92,286.37,386,291.56Z"/><ellipse class="cls-6" cx="346.96" cy="37.85" rx="9.19" ry="24.51" transform="translate(54.97 229.05) rotate(-39.44)"/><path class="cls-4" d="M426.2,292.13l-5.8-12.36a18.3,18.3,0,0,0-17.93-10.43l-7.33.57-39.32,3-23.62,1.84-10.78.84-15.77,1.22A16.19,16.19,0,0,0,291.86,299l1.8,4.52L316.6,360.9a23.66,23.66,0,0,0,13.91,13.47,24,24,0,0,0,8,1.4,23.55,23.55,0,0,0,7.78-1.32,21.66,21.66,0,0,0,3.49-1.54l45.39-24.63a23,23,0,0,0,12-20.2v-2.49l8-3.64a22.3,22.3,0,0,0,11-29.82ZM395,321.65v6.43a10.74,10.74,0,0,1-5.59,9.44L344,362.15a11.4,11.4,0,0,1-16-5.78l-6.3-15.77-8.74-21.88-6.84-17.09-2.43-6.09-.43-1.08a3.95,3.95,0,0,1,3.35-5.39l14.83-1.15,9.17-.71,35.46-2.76L397,282l6.42-.49a3.62,3.62,0,0,1,.47,0,6,6,0,0,1,5.43,3.45l5.8,12.36a9.92,9.92,0,0,1,.35,7.76,10,10,0,0,1-5.29,5.7l-11.62,5.27A6.13,6.13,0,0,0,395,321.65Z"/><ellipse class="cls-5" cx="404.47" cy="298.15" rx="7.43" ry="9.67" transform="translate(-75.86 150.58) rotate(-19.32)"/><ellipse class="cls-5" cx="382.49" cy="322.9" rx="9.16" ry="13.13" transform="translate(-85.28 144.7) rotate(-19.32)"/><path class="cls-5" d="M238.28,162.05c26,16.74,45.17,30.21,36.17,39.21-8.17,8.17-43.95,8.48-67.41-6.13s-24.56-27.29-23.43-40C185.38,135.4,212.32,145.31,238.28,162.05Z"/><path class="cls-5" d="M238,218.32c20.61,7.53,36,14,30.58,23.42C263.62,250.32,238,259,219.39,252.6s-20.83-16.45-21.51-27C196.83,209.06,217.35,210.8,238,218.32Z"/><path class="cls-5" d="M274.45,287.05c-4.42,10.36-39.59,16.86-46.35-7.91S274.45,276.83,274.45,287.05Z"/><circle class="cls-6" cx="205" cy="164.49" r="12.26"/><circle class="cls-6" cx="224.4" cy="173.68" r="5.11"/><circle class="cls-6" cx="213.17" cy="227.81" r="10.21"/><circle class="cls-6" cx="229.51" cy="235.98" r="4.09"/><circle class="cls-5" cx="279.55" cy="275.81" r="5.11"/><path class="cls-2" d="M612.81,189.56s-5.65-30.13-46.39-24.53c-53,9.67-57.7,58.37-47.18,70.79S612.81,189.56,612.81,189.56Z"/><path class="cls-3" d="M519.24,235.82a51.31,51.31,0,0,0,96.41-23.55c.23-13.71-1.71-26.17-10.31-35.52-5.35-2.8-12.54-2.27-20.51.28-26.74,8.56-62.13,39.94-65.28,44.65C515.46,227.81,517.51,231.9,519.24,235.82Z"/><path class="cls-4" d="M519.24,235.82a51.38,51.38,0,0,0,29.34,24.37,51.33,51.33,0,0,0,44.61-50c.2-12.61-1.41-24.15-8.36-33.2-26.74,8.56-62.13,39.94-65.28,44.65C515.46,227.81,517.51,231.9,519.24,235.82Z"/><ellipse class="cls-2" cx="583.89" cy="119.55" rx="48" ry="26.55" transform="translate(-7.46 45.26) rotate(-4.41)"/><circle class="cls-2" cx="552.23" cy="231.9" r="18.38"/><polygon class="cls-7" points="580.37 27.67 601.88 57.6 609.42 103.21 609.42 122 591.04 129.77 563.75 126.49 550.19 117.51 552.23 96.06 563.75 54.42 577.59 27.67 580.37 27.67"/><path class="cls-5" d="M578.79,23.55s10.21,99.26-8.18,103.76S591,129.77,591,129.77l18.38-10.22,3.07-16.94L597.17,52.15S582.87,23.55,578.79,23.55Z"/><path class="cls-8" d="M436.52,84.87C430,61.15,419.32,32.39,412.8,25c-.67-.75-2.69-3.06-5.76-3.06-2.51,0-5,1.39-7.94,4.35-4.09,4.19-9.25,12-14.16,22-1.88,3.82-3.71,8-5.41,12.38a160.34,160.34,0,0,0-7.33,24.16c-.94,4.35-1.68,8.76-2.19,13.21-.22,2-.41,4-.51,6-.2,3.06-.26,6.15-.18,9.19a3.83,3.83,0,0,0,.12,1c3.21,13.6,15.81,21.69,33.74,21.69h.41c16.63-.1,35.44-7.53,38.16-19.77a3,3,0,0,0,.08-.45,38.17,38.17,0,0,0-.53-9.31A200.13,200.13,0,0,0,436.52,84.87ZM406.43,32.19s.06-.06.08-.08c2.47,3.37,6.29,12,10.23,22.49-15.06,3.3-22.2,1.66-24.65.75v0C397.46,43.67,403.14,35.11,406.43,32.19ZM388.39,64a33.44,33.44,0,0,0,12.49,2A86.68,86.68,0,0,0,420,63.53c2.17,6.23,4.29,12.76,6.15,19h0a5.17,5.17,0,0,0-.66.34c-18.9,12.28-37.06,4.84-43.48,1.44A156.43,156.43,0,0,1,388.39,64Zm44.13,50.26c-1.19,4.41-9.44,9.4-20,11.34a48.76,48.76,0,0,1-9,.88c-6.37,0-21.47-1.27-24.84-14A101.38,101.38,0,0,1,380,94.78c0-.29.08-.58.12-.86h0a55.57,55.57,0,0,0,23.1,5.25,49.39,49.39,0,0,0,25.57-7.24v0c.71,2.71,1.35,5.33,1.88,7.74C432.07,106.11,432.82,111.32,432.52,114.28Z"/><path class="cls-8" d="M616.5,104.05c-.1-2-.29-4-.51-6-.51-4.45-1.25-8.86-2.19-13.21a160.34,160.34,0,0,0-7.33-24.16c-1.7-4.4-3.53-8.56-5.41-12.38-4.91-10-10.07-17.83-14.16-22C584,23.35,581.47,22,579,22c-3.07,0-5.09,2.31-5.76,3.06-6.52,7.37-17.24,36.13-23.72,59.85a200.13,200.13,0,0,0-4.78,21.49,38.17,38.17,0,0,0-.53,9.31,3,3,0,0,0,.08.45c2.72,12.24,21.53,19.67,38.16,19.77h.41c17.93,0,30.53-8.09,33.74-21.69a3.83,3.83,0,0,0,.12-1C616.76,110.2,616.7,107.11,616.5,104.05Zm-37-71.94s.06,0,.08.08c3.29,2.92,9,11.48,14.34,23.14v0c-2.45.91-9.59,2.55-24.65-.75C573.2,44.07,577,35.48,579.49,32.11ZM566,63.53A86.68,86.68,0,0,0,585.12,66a33.44,33.44,0,0,0,12.49-2A156.43,156.43,0,0,1,604,84.37c-6.42,3.4-24.58,10.84-43.48-1.44a5.17,5.17,0,0,0-.66-.34h0C561.74,76.29,563.86,69.76,566,63.53Zm16.44,63a48.76,48.76,0,0,1-9-.88c-10.6-1.94-18.85-6.93-20-11.34-.3-3,.45-8.17,1.88-14.58.53-2.41,1.17-5,1.88-7.74v0a49.39,49.39,0,0,0,25.57,7.24,55.57,55.57,0,0,0,23.1-5.25h0c0,.28.1.57.12.86a101.38,101.38,0,0,1,1.27,17.73C603.94,125.23,588.84,126.48,582.47,126.5Z"/><path class="cls-8" d="M493.59,91.22a3,3,0,0,0-.59-.14,2.92,2.92,0,0,0-.6.14c-7.23,2.41-25.79,18.75-28.53,29.72a6.32,6.32,0,0,0-.14,1c-.41,11.63,20.16,26.07,26.47,30.21a5.06,5.06,0,0,0,2.8.84,5,5,0,0,0,2.79-.84c6.32-4.14,26.89-18.58,26.48-30.21a5.44,5.44,0,0,0-.15-1C519.39,110,500.82,93.63,493.59,91.22ZM493,141.76c-10-7-18.43-15.41-19-19a2.79,2.79,0,0,1,.14-.37c2.35-6,13-16.22,18.9-20.1,5.84,3.88,16.54,14.1,18.89,20.1a2.79,2.79,0,0,1,.14.37C511.42,126.35,503,134.73,493,141.76Z"/><ellipse class="cls-6" cx="612.49" cy="267.64" rx="29.62" ry="17.36" transform="translate(4.07 544.42) rotate(-48.07)"/><polygon class="cls-2" points="564.38 307.11 580.83 319.73 589 340.15 645.07 370.28 658.18 363.54 674.73 320.16 683.98 295.85 685 293.18 682.3 284.02 578.78 274.79 566.35 284.02 564.38 307.11"/><ellipse class="cls-4" cx="529.08" cy="174.9" rx="28.14" ry="14.33" transform="translate(57.88 472.37) rotate(-50.56)"/><path class="cls-5" d="M600,291.56c43.69,7.91,64.69,19.55,74.74,28.6L684,295.85c-13.09-2.39-39.12-6.88-51.07-7.46C616.59,287.64,590.08,286.37,600,291.56Z"/><path class="cls-4" d="M559,309.33A22.16,22.16,0,0,0,570.77,322l8,3.64v2.49a23,23,0,0,0,12,20.2l45.39,24.63a21.66,21.66,0,0,0,3.49,1.54,23.55,23.55,0,0,0,7.78,1.32,24,24,0,0,0,8-1.4A23.66,23.66,0,0,0,669.4,360.9l22.94-57.37,1.8-4.52a16.19,16.19,0,0,0-13.79-22.16l-15.77-1.22-10.78-.84L630.18,273l-39.32-3-7.33-.57a18.3,18.3,0,0,0-17.93,10.43l-5.8,12.36A22.06,22.06,0,0,0,559,309.33Zm28.41,6.74-11.62-5.27a10,10,0,0,1-5.29-5.7,9.92,9.92,0,0,1,.35-7.76l5.8-12.36a6,6,0,0,1,5.43-3.45,3.62,3.62,0,0,1,.47,0L589,282,620,284.45l35.46,2.76,9.17.71,14.83,1.15a3.95,3.95,0,0,1,3.35,5.39l-.43,1.08-2.43,6.09-6.84,17.09-8.74,21.88L658,356.37a11.4,11.4,0,0,1-16,5.78l-45.39-24.63a10.74,10.74,0,0,1-5.59-9.44v-6.43A6.13,6.13,0,0,0,587.45,316.07Z"/><ellipse class="cls-5" cx="581.53" cy="298.15" rx="9.67" ry="7.43" transform="translate(107.8 748.32) rotate(-70.68)"/><ellipse class="cls-5" cx="603.51" cy="322.9" rx="13.13" ry="9.16" transform="translate(99.15 785.62) rotate(-70.68)"/><path class="cls-4" d="M192,203.11a85.36,85.36,0,0,0-.7,18.3,50.94,50.94,0,0,0,3.9,16.86,25,25,0,0,0,9.84,11.63c4.13,2.62,9,3.87,14.17,4.95l5.71,1.21.19,5.48h0c0,9,.19,17.42,3.31,24a19.65,19.65,0,0,0,2.86,4.54,21.82,21.82,0,0,0,4,3.79A36.59,36.59,0,0,0,246,299.11c8,2.52,16.89,3.4,25.76,3.66a237.83,237.83,0,0,0,26.9-.94l.57,4.35a242.72,242.72,0,0,1-27.35,3.46c-9.24.55-18.67.56-28.27-1.5a46.69,46.69,0,0,1-14.19-5.45,32.87,32.87,0,0,1-11.37-11.5,46,46,0,0,1-5.33-14.72,140,140,0,0,1-1.87-14.22h0l5.91,6.69a40.06,40.06,0,0,1-10.26-3.18,37.63,37.63,0,0,1-4.84-2.69A35.14,35.14,0,0,1,187,240.87a54.07,54.07,0,0,1-.23-19.67A74.86,74.86,0,0,1,192,203.11Z"/><path class="cls-4" d="M179.42,188.92a69.56,69.56,0,0,1-6.07-20.27,79.08,79.08,0,0,1-.5-21.47c.26-1.8.48-3.6.8-5.39s.76-3.56,1.18-5.32l1.54-5.15.91-2.66.47-1.33.65-1.38a16.4,16.4,0,0,1,1.49-2.74,15.34,15.34,0,0,1,2-2.66c.41-.43.82-.86,1.25-1.27s1-.76,1.59-1.11a7,7,0,0,1,1.77-.91,7.91,7.91,0,0,1,2-.62,12.37,12.37,0,0,1,7.57.82,19.3,19.3,0,0,1,3,1.6,20.18,20.18,0,0,1,2.68,2.15l-.42-.37c5.93,4.48,11.83,9.13,17.83,13.58s11.93,9,18,13.42,12.1,8.79,18.2,13.12,12.33,8.44,19.13,11.71a68.39,68.39,0,0,1-10.71-3.76c-1.72-.78-3.48-1.51-5.18-2.35L253.49,164c-6.73-3.46-13.22-7.33-19.69-11.22s-12.78-8-19-12.3-12.44-8.49-18.51-13l-.16-.12-.26-.24a12.28,12.28,0,0,0-1.4-1.06,10.21,10.21,0,0,0-1.6-.83,3.88,3.88,0,0,0-2.58-.31c-1.29.22-3,2.08-4.16,4.75s-2.15,5.93-3.27,9.08l-1.3,4.77c-.39,1.6-.69,3.22-1,4.84a121.15,121.15,0,0,0-2.07,20A154.32,154.32,0,0,0,179.42,188.92Z"/><path class="cls-4" d="M794,203.11a85.36,85.36,0,0,1,.7,18.3,50.94,50.94,0,0,1-3.9,16.86,25,25,0,0,1-9.84,11.63c-4.13,2.62-9,3.87-14.17,4.95l-5.71,1.21-.19,5.48h0c0,9-.19,17.42-3.31,24a19.65,19.65,0,0,1-2.86,4.54,21.82,21.82,0,0,1-4,3.79A36.59,36.59,0,0,1,740,299.11c-8,2.52-16.89,3.4-25.76,3.66a237.83,237.83,0,0,1-26.9-.94l-.57,4.35a242.72,242.72,0,0,0,27.35,3.46c9.24.55,18.67.56,28.27-1.5a46.69,46.69,0,0,0,14.19-5.45,32.87,32.87,0,0,0,11.37-11.5,46,46,0,0,0,5.33-14.72,140,140,0,0,0,1.87-14.22h0l-5.91,6.69a40.06,40.06,0,0,0,10.26-3.18,37.63,37.63,0,0,0,4.84-2.69A35.14,35.14,0,0,0,799,240.87a54.07,54.07,0,0,0,.23-19.67A74.86,74.86,0,0,0,794,203.11Z"/><path class="cls-4" d="M806.58,188.92a69.56,69.56,0,0,0,6.07-20.27,79.08,79.08,0,0,0,.5-21.47c-.26-1.8-.48-3.6-.8-5.39s-.76-3.56-1.18-5.32l-1.54-5.15-.91-2.66-.47-1.33L807.6,126a16.4,16.4,0,0,0-1.49-2.74,15.34,15.34,0,0,0-2-2.66c-.41-.43-.82-.86-1.25-1.27s-1.05-.76-1.59-1.11a7,7,0,0,0-1.77-.91,7.91,7.91,0,0,0-2-.62,12.37,12.37,0,0,0-7.57.82,19.3,19.3,0,0,0-3,1.6,20.18,20.18,0,0,0-2.68,2.15l.42-.37c-5.93,4.48-11.83,9.13-17.83,13.58s-11.93,9-18,13.42-12.1,8.79-18.2,13.12-12.33,8.44-19.13,11.71a68.39,68.39,0,0,0,10.71-3.76c1.72-.78,3.48-1.51,5.18-2.35l5.07-2.56c6.73-3.46,13.22-7.33,19.69-11.22s12.78-8,19-12.3,12.44-8.49,18.51-13l.16-.12.26-.24a12.28,12.28,0,0,1,1.4-1.06,10.21,10.21,0,0,1,1.6-.83,3.88,3.88,0,0,1,2.58-.31c1.29.22,3,2.08,4.16,4.75s2.15,5.93,3.27,9.08l1.3,4.77c.39,1.6.69,3.22,1.05,4.84a121.15,121.15,0,0,1,2.07,20A154.32,154.32,0,0,1,806.58,188.92Z"/><circle class="cls-6" cx="349" cy="155.92" r="19.4"/><circle class="cls-6" cx="354.1" cy="189.62" r="8.17"/></svg>