<svg id="Layer_1" data-name="Layer 1" xmlns="http://www.w3.org/2000/svg" viewBox="0 0 142.31 142.31"><defs><style>.cls-1{fill:#4aa1ea;}.cls-2{fill:#c4dfe0;}.cls-3{fill:#56268f;}.cls-4{fill:#5d34bf;}.cls-5{fill:#f9f8de;}</style></defs><circle class="cls-1" cx="72.19" cy="37.51" r="1.99"/><circle class="cls-1" cx="82.86" cy="2.9" r="1.93"/><circle class="cls-1" cx="93.77" cy="39.41" r="4.27"/><circle class="cls-1" cx="97.6" cy="34.88" r="4.04"/><circle class="cls-1" cx="85.99" cy="37.17" r="2.07"/><circle class="cls-1" cx="105.32" cy="39.89" r="5"/><circle class="cls-1" cx="40.06" cy="77.95" r="1.36"/><circle class="cls-1" cx="43.97" cy="23.4" r="10.59"/><circle class="cls-1" cx="26.72" cy="25.7" r="3.19"/><circle class="cls-1" cx="30.63" cy="12.1" r="2.48"/><circle class="cls-1" cx="37.22" cy="37.94" r="9.03"/><circle class="cls-1" cx="60.61" cy="19.9" r="7.94"/><circle class="cls-1" cx="72.82" cy="13.05" r="11.7"/><circle class="cls-1" cx="74.58" cy="23.47" r="11.08"/><circle class="cls-1" cx="63.23" cy="29.5" r="3.71"/><circle class="cls-1" cx="39.99" cy="49.55" r="7.94"/><circle class="cls-1" cx="96.99" cy="28.58" r="6.84"/><circle class="cls-1" cx="89.09" cy="28.41" r="6.84"/><circle class="cls-1" cx="21.77" cy="43.5" r="5.11"/><circle class="cls-1" cx="56.43" cy="33.8" r="6.79"/><circle class="cls-1" cx="90.27" cy="21.12" r="7.1"/><circle class="cls-1" cx="106.82" cy="27.32" r="9.83"/><circle class="cls-1" cx="51.71" cy="44.13" r="2.71"/><circle class="cls-1" cx="87.8" cy="8.88" r="2.5"/><circle class="cls-1" cx="52.18" cy="9.15" r="2.39"/><circle class="cls-1" cx="25.76" cy="34.8" r="1.89"/><circle class="cls-1" cx="62.48" cy="6.5" r="3.66"/><circle class="cls-1" cx="100.8" cy="13.28" r="2.92"/><circle class="cls-1" cx="122.73" cy="28.87" r="2.92"/><circle class="cls-2" cx="67.52" cy="8.89" r="1.99"/><circle class="cls-2" cx="121.49" cy="28.42" r="1.19"/><circle class="cls-2" cx="106.71" cy="19.93" r="1.48"/><circle class="cls-2" cx="20.96" cy="41.86" r="1.32"/><circle class="cls-2" cx="38.07" cy="28.08" r="1.99"/><circle class="cls-2" cx="70.91" cy="4.22" r="1.29"/><circle class="cls-2" cx="44.28" cy="15.84" r="1.29"/><circle class="cls-2" cx="73.54" cy="18.73" r="2.62"/><circle class="cls-1" cx="104.8" cy="72.19" r="1.99"/><circle class="cls-1" cx="139.41" cy="82.86" r="1.93"/><circle class="cls-1" cx="102.9" cy="93.77" r="4.27"/><circle class="cls-1" cx="107.43" cy="97.6" r="4.04"/><circle class="cls-1" cx="105.14" cy="85.99" r="2.07"/><circle class="cls-1" cx="102.42" cy="105.32" r="5"/><circle class="cls-1" cx="77.45" cy="40.67" r="1.36"/><circle class="cls-1" cx="118.91" cy="43.97" r="10.59"/><circle class="cls-1" cx="116.61" cy="26.72" r="3.19"/><circle class="cls-1" cx="130.21" cy="30.63" r="2.48"/><circle class="cls-1" cx="104.37" cy="37.22" r="9.03"/><circle class="cls-1" cx="122.41" cy="60.61" r="7.94"/><circle class="cls-1" cx="129.26" cy="72.82" r="11.7"/><circle class="cls-1" cx="118.84" cy="74.58" r="11.08"/><circle class="cls-1" cx="112.81" cy="63.23" r="3.71"/><circle class="cls-1" cx="92.76" cy="39.99" r="7.94"/><circle class="cls-1" cx="113.73" cy="96.99" r="6.84"/><circle class="cls-1" cx="113.9" cy="89.09" r="6.84"/><circle class="cls-1" cx="98.81" cy="21.77" r="5.11"/><circle class="cls-1" cx="108.51" cy="56.43" r="6.79"/><circle class="cls-1" cx="121.19" cy="90.27" r="7.1"/><circle class="cls-1" cx="114.99" cy="106.82" r="9.83"/><circle class="cls-1" cx="98.18" cy="51.71" r="2.71"/><circle class="cls-1" cx="133.44" cy="87.8" r="2.5"/><circle class="cls-1" cx="133.16" cy="52.18" r="2.39"/><circle class="cls-1" cx="107.51" cy="25.76" r="1.89"/><circle class="cls-1" cx="135.81" cy="62.48" r="3.66"/><circle class="cls-1" cx="129.03" cy="100.8" r="2.92"/><circle class="cls-1" cx="113.44" cy="122.73" r="2.92"/><circle class="cls-2" cx="133.42" cy="67.52" r="1.99"/><circle class="cls-2" cx="113.9" cy="121.49" r="1.19"/><circle class="cls-2" cx="122.38" cy="106.71" r="1.48"/><circle class="cls-2" cx="114.23" cy="38.07" r="1.99"/><circle class="cls-2" cx="138.09" cy="70.91" r="1.29"/><circle class="cls-2" cx="126.47" cy="44.28" r="1.29"/><circle class="cls-2" cx="123.58" cy="73.54" r="2.62"/><circle class="cls-1" cx="70.12" cy="104.8" r="1.99"/><circle class="cls-1" cx="59.45" cy="139.41" r="1.93"/><circle class="cls-1" cx="48.54" cy="102.9" r="4.27"/><circle class="cls-1" cx="44.71" cy="107.43" r="4.04"/><circle class="cls-1" cx="56.32" cy="105.14" r="2.07"/><circle class="cls-1" cx="36.99" cy="102.42" r="5"/><circle class="cls-1" cx="74.79" cy="102.57" r="1.36"/><circle class="cls-1" cx="98.34" cy="118.91" r="10.59"/><circle class="cls-1" cx="115.59" cy="116.61" r="3.19"/><circle class="cls-1" cx="111.68" cy="130.21" r="2.48"/><circle class="cls-1" cx="105.09" cy="104.37" r="9.03"/><circle class="cls-1" cx="81.7" cy="122.41" r="7.94"/><circle class="cls-1" cx="69.49" cy="129.26" r="11.7"/><circle class="cls-1" cx="67.73" cy="118.84" r="11.08"/><circle class="cls-1" cx="79.08" cy="112.81" r="3.71"/><circle class="cls-1" cx="102.32" cy="92.76" r="7.94"/><circle class="cls-1" cx="45.32" cy="113.73" r="6.84"/><circle class="cls-1" cx="53.22" cy="113.9" r="6.84"/><circle class="cls-1" cx="120.54" cy="98.81" r="5.11"/><circle class="cls-1" cx="85.88" cy="108.51" r="6.79"/><circle class="cls-1" cx="52.04" cy="121.19" r="7.1"/><circle class="cls-1" cx="35.49" cy="114.99" r="9.83"/><circle class="cls-1" cx="90.6" cy="98.18" r="2.71"/><circle class="cls-1" cx="54.52" cy="133.44" r="2.5"/><circle class="cls-1" cx="90.13" cy="133.16" r="2.39"/><circle class="cls-1" cx="116.55" cy="107.51" r="1.89"/><circle class="cls-1" cx="79.83" cy="135.81" r="3.66"/><circle class="cls-1" cx="41.51" cy="129.03" r="2.92"/><circle class="cls-1" cx="19.58" cy="113.44" r="2.92"/><circle class="cls-2" cx="74.79" cy="133.42" r="1.99"/><circle class="cls-2" cx="20.82" cy="113.9" r="1.19"/><circle class="cls-2" cx="35.6" cy="122.38" r="1.48"/><circle class="cls-2" cx="121.35" cy="100.45" r="1.32"/><circle class="cls-2" cx="104.24" cy="114.23" r="1.99"/><circle class="cls-2" cx="71.4" cy="138.09" r="1.29"/><circle class="cls-2" cx="98.04" cy="126.47" r="1.29"/><circle class="cls-2" cx="68.77" cy="123.58" r="2.62"/><circle class="cls-1" cx="37.51" cy="70.12" r="1.99"/><circle class="cls-1" cx="100.8" cy="76.87" r="1.99"/><circle class="cls-1" cx="2.9" cy="59.45" r="1.93"/><circle class="cls-1" cx="39.41" cy="48.54" r="4.27"/><circle class="cls-1" cx="34.88" cy="44.71" r="4.04"/><circle class="cls-1" cx="37.17" cy="56.32" r="2.07"/><circle class="cls-1" cx="39.89" cy="36.99" r="5"/><circle class="cls-1" cx="59.75" cy="98.2" r="1.36"/><circle class="cls-1" cx="23.4" cy="98.34" r="10.59"/><circle class="cls-1" cx="25.7" cy="115.59" r="3.19"/><circle class="cls-1" cx="12.1" cy="111.68" r="2.48"/><circle class="cls-1" cx="37.94" cy="105.09" r="9.03"/><circle class="cls-1" cx="19.9" cy="81.7" r="7.94"/><circle class="cls-1" cx="13.05" cy="69.49" r="11.7"/><circle class="cls-1" cx="23.47" cy="67.73" r="11.08"/><circle class="cls-1" cx="29.5" cy="79.08" r="3.71"/><circle class="cls-1" cx="49.55" cy="102.32" r="7.94"/><circle class="cls-1" cx="28.58" cy="45.32" r="6.84"/><circle class="cls-1" cx="28.41" cy="53.22" r="6.84"/><circle class="cls-1" cx="43.5" cy="120.54" r="5.11"/><circle class="cls-1" cx="33.8" cy="85.88" r="6.79"/><circle class="cls-1" cx="21.12" cy="52.04" r="7.1"/><circle class="cls-1" cx="27.32" cy="35.49" r="9.83"/><circle class="cls-1" cx="44.13" cy="90.6" r="2.71"/><circle class="cls-1" cx="8.88" cy="54.52" r="2.5"/><circle class="cls-1" cx="9.15" cy="90.13" r="2.39"/><circle class="cls-1" cx="34.8" cy="116.55" r="1.89"/><circle class="cls-1" cx="6.5" cy="79.83" r="3.66"/><circle class="cls-1" cx="13.28" cy="41.51" r="2.92"/><circle class="cls-1" cx="28.87" cy="19.58" r="2.92"/><circle class="cls-2" cx="8.89" cy="74.79" r="1.99"/><circle class="cls-2" cx="28.42" cy="20.82" r="1.19"/><circle class="cls-2" cx="19.93" cy="35.6" r="1.48"/><circle class="cls-2" cx="41.86" cy="121.35" r="1.32"/><circle class="cls-2" cx="28.08" cy="104.24" r="1.99"/><circle class="cls-2" cx="4.22" cy="71.4" r="1.29"/><circle class="cls-2" cx="15.84" cy="98.04" r="1.29"/><circle class="cls-2" cx="18.73" cy="68.77" r="2.62"/><circle class="cls-1" cx="72.19" cy="37.51" r="1.99"/><circle class="cls-1" cx="82.86" cy="2.9" r="1.93"/><circle class="cls-1" cx="93.77" cy="39.41" r="4.27"/><circle class="cls-1" cx="97.6" cy="34.88" r="4.04"/><circle class="cls-1" cx="85.99" cy="37.17" r="2.07"/><circle class="cls-1" cx="105.32" cy="39.89" r="5"/><circle class="cls-1" cx="40.35" cy="64.95" r="1.36"/><circle class="cls-1" cx="102.74" cy="66.94" r="1.36"/><circle class="cls-1" cx="98.58" cy="82.73" r="1.36"/><circle class="cls-1" cx="43.97" cy="23.4" r="10.59"/><circle class="cls-1" cx="26.72" cy="25.7" r="3.19"/><circle class="cls-1" cx="30.63" cy="12.1" r="2.48"/><circle class="cls-1" cx="37.22" cy="37.94" r="9.03"/><circle class="cls-1" cx="60.61" cy="19.9" r="7.94"/><circle class="cls-1" cx="72.82" cy="13.05" r="11.7"/><circle class="cls-1" cx="74.58" cy="23.47" r="11.08"/><circle class="cls-1" cx="63.23" cy="29.5" r="3.71"/><circle class="cls-1" cx="39.99" cy="49.55" r="7.94"/><circle class="cls-1" cx="96.99" cy="28.58" r="6.84"/><circle class="cls-1" cx="89.09" cy="28.41" r="6.84"/><circle class="cls-1" cx="21.77" cy="43.5" r="5.11"/><circle class="cls-1" cx="56.43" cy="33.8" r="6.79"/><circle class="cls-1" cx="90.27" cy="21.12" r="7.1"/><circle class="cls-1" cx="106.82" cy="27.32" r="9.83"/><circle class="cls-1" cx="51.71" cy="44.13" r="2.71"/><circle class="cls-1" cx="87.8" cy="8.88" r="2.5"/><circle class="cls-1" cx="52.18" cy="9.15" r="2.39"/><circle class="cls-1" cx="25.76" cy="34.8" r="1.89"/><circle class="cls-1" cx="62.48" cy="6.5" r="3.66"/><circle class="cls-1" cx="100.8" cy="13.28" r="2.92"/><circle class="cls-1" cx="122.73" cy="28.87" r="2.92"/><circle class="cls-2" cx="67.52" cy="8.89" r="1.99"/><circle class="cls-2" cx="121.49" cy="28.42" r="1.19"/><circle class="cls-2" cx="106.71" cy="19.93" r="1.48"/><circle class="cls-2" cx="20.96" cy="41.86" r="1.32"/><circle class="cls-2" cx="37.47" cy="27.33" r="1.99"/><circle class="cls-2" cx="70.91" cy="4.22" r="1.29"/><circle class="cls-2" cx="44.28" cy="15.84" r="1.29"/><circle class="cls-2" cx="73.54" cy="18.73" r="2.62"/><path class="cls-3" d="M109,31.77a3.06,3.06,0,0,1-2.19,1.09,3,3,0,0,1-1.61-.36,1.76,1.76,0,0,1,.31-1.3,1.9,1.9,0,0,1,2-.76,2.13,2.13,0,0,1,.69.31.7.7,0,0,1,.16.13A1.86,1.86,0,0,1,109,31.77Z"/><path class="cls-3" d="M108.21,34.78a3.07,3.07,0,0,1-1.1-2.19,3,3,0,0,1,.36-1.61,1.8,1.8,0,0,1,1.3.3,1.9,1.9,0,0,1,.76,2,2,2,0,0,1-.3.68l-.13.17A2,2,0,0,1,108.21,34.78Z"/><path class="cls-3" d="M105.2,34a3.07,3.07,0,0,1,3.8-.73,1.76,1.76,0,0,1-.31,1.3,1.91,1.91,0,0,1-2,.76A2,2,0,0,1,106,35a1.09,1.09,0,0,1-.17-.13A1.84,1.84,0,0,1,105.2,34Z"/><path class="cls-3" d="M106,31a3,3,0,0,1,1.09,2.19,3,3,0,0,1-.36,1.61,1.8,1.8,0,0,1-1.3-.3,1.93,1.93,0,0,1-.76-2,2,2,0,0,1,.31-.68,1.09,1.09,0,0,1,.13-.17A1.86,1.86,0,0,1,106,31Z"/><path class="cls-3" d="M109,31.77a3.06,3.06,0,0,1-2.19,1.09,3,3,0,0,1-1.61-.36,1.76,1.76,0,0,1,.31-1.3,1.9,1.9,0,0,1,2-.76,2.13,2.13,0,0,1,.69.31.7.7,0,0,1,.16.13A1.86,1.86,0,0,1,109,31.77Z"/><ellipse class="cls-3" cx="108.45" cy="29.7" rx="1.17" ry="1.21" transform="translate(22.4 102.08) rotate(-55.39)"/><ellipse class="cls-3" cx="109.63" cy="30.88" rx="1.21" ry="1.17" transform="translate(21.94 103.56) rotate(-55.39)"/><ellipse class="cls-3" cx="108.45" cy="32.06" rx="1.17" ry="1.21" transform="translate(20.46 103.1) rotate(-55.39)"/><ellipse class="cls-3" cx="107.27" cy="30.88" rx="1.21" ry="1.17" transform="translate(20.92 101.62) rotate(-55.39)"/><ellipse class="cls-3" cx="108.45" cy="29.7" rx="1.17" ry="1.21" transform="translate(22.4 102.08) rotate(-55.39)"/><path class="cls-4" d="M64.46,27.11A3.73,3.73,0,0,1,61.15,31l-.22,0a3.79,3.79,0,0,1-2.06-.49,7.08,7.08,0,0,1-1.43,3.09s0,.06-.07.1a7.35,7.35,0,0,1-2.08,1.76,7,7,0,0,1-2.12.79,3.09,3.09,0,0,1-.62.11,4.93,4.93,0,0,1-.15,1h0c0,.15-.1.29-.16.43a3.91,3.91,0,0,1-4.55,2.29,4.17,4.17,0,0,1-.77-.28h0a3.9,3.9,0,0,1-1.54-1.31,7,7,0,0,1-3.21,1.2,3.94,3.94,0,0,1,.29,1.07A2.17,2.17,0,0,1,42,45a2.13,2.13,0,0,1-1.37-.42,4.68,4.68,0,0,1-.71.35,3.06,3.06,0,0,1-.43.13,3.61,3.61,0,0,1-.67.11A3.89,3.89,0,0,1,35,42.63a3.68,3.68,0,0,1-.23-1.15A3.82,3.82,0,0,1,36.7,38a7.06,7.06,0,0,1,8.08-11.47,7.35,7.35,0,0,1,13-1.45,3.71,3.71,0,0,1,6.65,2.07Z"/><circle class="cls-4" cx="60.06" cy="35.64" r="1.86"/><path class="cls-4" d="M60.19,22.81a5.19,5.19,0,0,0,4-2.33,3.32,3.32,0,1,0,3-4.38,3.22,3.22,0,0,0-2.14.95,5.19,5.19,0,1,0-4.88,5.76Z"/><path class="cls-4" d="M102.86,31.53a6.46,6.46,0,0,1-.12,1.53,6.17,6.17,0,0,1-4,4.57l-.42.13a5.95,5.95,0,0,1-2.76.12,5.2,5.2,0,0,1-.68-.17l-.49-.18a6.24,6.24,0,0,1-.9-.44,3.64,3.64,0,0,1-1.13,2.46,3.7,3.7,0,0,1-6.27-2.5,3.41,3.41,0,0,1,.18-1.32,8.42,8.42,0,0,1-1.24.18H85a8,8,0,0,1-2.31-.2,8.13,8.13,0,0,1-2.64-1.06l-.11-.07a8.88,8.88,0,0,1-2.91-3,6.14,6.14,0,0,1-3.15,3.08,4.46,4.46,0,0,1-.85.28,6.09,6.09,0,0,1-1.22.19h-.57a6.73,6.73,0,0,1-1.5-.27,4.76,4.76,0,0,1-.19.61,3.71,3.71,0,0,1-3.24,2.33,3.79,3.79,0,0,1-2.06-.49,3.71,3.71,0,0,1,1.29-6.88,6.75,6.75,0,0,1-.17-1.11A6.12,6.12,0,0,1,76.14,25a8.64,8.64,0,0,1,4.12-5.36,2.72,2.72,0,0,1,2-4.37,2.72,2.72,0,0,1,2.86,2.57,2.58,2.58,0,0,1-.07.68,8.68,8.68,0,0,1,8.18,8.21.15.15,0,0,1,0,.07,6.09,6.09,0,0,1,3.18-1.11A6.15,6.15,0,0,1,102.86,31.53Z"/><path class="cls-4" d="M109.74,29.63a3.08,3.08,0,0,1-2.91,3.23,3,3,0,0,1-1.61-.36,3.07,3.07,0,1,1,4.52-2.87Z"/><path class="cls-4" d="M97.1,39a2.43,2.43,0,1,0,2.55,2.3A2.43,2.43,0,0,0,97.1,39Z"/><circle class="cls-4" cx="103.09" cy="24.68" r="1.38"/><path class="cls-4" d="M51.24,21a2,2,0,1,0-2.07-1.87A2,2,0,0,0,51.24,21Z"/><path class="cls-4" d="M57.2,37.37a1.2,1.2,0,1,1-1.26-1.14A1.19,1.19,0,0,1,57.2,37.37Z"/><path class="cls-3" d="M46.92,39.79h0a3.9,3.9,0,0,1-1.54-1.31,7,7,0,0,1-3.21,1.2,3.94,3.94,0,0,1,.29,1.07A2.17,2.17,0,0,1,42,45a2.13,2.13,0,0,1-1.37-.42,4.68,4.68,0,0,1-.71.35,3.06,3.06,0,0,1-.43.13,4.93,4.93,0,0,1-1.71-3.23,2.83,2.83,0,0,1,0-.3,5,5,0,0,1,5.86-5.23h0a4.11,4.11,0,0,1,.53.13h0a4.81,4.81,0,0,1,2.2,1.31,4.94,4.94,0,0,1,1.3,2.33A4.17,4.17,0,0,1,46.92,39.79Z"/><circle class="cls-3" cx="44.57" cy="33.58" r="2.87"/><path class="cls-3" d="M57.2,37.37a1.2,1.2,0,1,1-1.26-1.14A1.19,1.19,0,0,1,57.2,37.37Z"/><path class="cls-3" d="M57.44,33.62s0,.06-.07.1a7.35,7.35,0,0,1-2.08,1.76,7,7,0,0,1-2.12.79,3.09,3.09,0,0,1-.62.11,4.93,4.93,0,0,1-.15,1,8.9,8.9,0,0,1-.11-.92,7,7,0,0,1,0-1.22c.2-1.79,1.05-3.19,2.17-3.51a2,2,0,0,1,.41-.07,2.2,2.2,0,0,1,.58.06h0A3.36,3.36,0,0,1,57.44,33.62Z"/><path class="cls-3" d="M40,44.46c0,.16,0,.32,0,.47a3.06,3.06,0,0,1-.43.13,3.61,3.61,0,0,1-.67.11A3.89,3.89,0,0,1,35,42.63a2.84,2.84,0,0,1,1.93-.88,2.77,2.77,0,0,1,.87.08A2.89,2.89,0,0,1,40,44.46Z"/><path class="cls-3" d="M61.16,30.84a.86.86,0,0,1,0,.16l-.22,0a3.79,3.79,0,0,1-2.06-.49,7.08,7.08,0,0,1-1.43,3.09s0,.06-.07.1a2.84,2.84,0,0,1-1.86-2h0a4.68,4.68,0,0,1-.07-.54,2.87,2.87,0,0,1,5.74-.3Z"/><path class="cls-3" d="M71.24,35.14a6.73,6.73,0,0,1-1.5-.27,4.76,4.76,0,0,1-.19.61,3.71,3.71,0,0,1-3.24,2.33,3.79,3.79,0,0,1-2.06-.49A3.9,3.9,0,0,1,64,36.24a3.66,3.66,0,0,1,7.2-1.1Z"/><path class="cls-3" d="M74.84,32a3.68,3.68,0,0,1-1,2.67,4.46,4.46,0,0,1-.85.28,6.09,6.09,0,0,1-1.22.19h-.57a6.73,6.73,0,0,1-1.5-.27,4.76,4.76,0,0,1-.19.61,3.68,3.68,0,1,1,5-4.85A3.63,3.63,0,0,1,74.84,32Z"/><path class="cls-3" d="M94.63,35.65a5.6,5.6,0,0,1-.2,1.88,6.24,6.24,0,0,1-.9-.44,3.64,3.64,0,0,1-1.13,2.46,3.7,3.7,0,0,1-6.27-2.5,3.41,3.41,0,0,1,.18-1.32,8.42,8.42,0,0,1-1.24.18H85a8,8,0,0,1-2.31-.2,6,6,0,0,1,11.39-2.27A5.9,5.9,0,0,1,94.63,35.65Z"/><circle class="cls-3" cx="81.3" cy="28.06" r="2.36"/><circle class="cls-3" cx="89.46" cy="29.35" r="1.83"/><circle class="cls-3" cx="87.66" cy="23.36" r="1.48"/><path class="cls-3" d="M102.74,33.06a6.17,6.17,0,0,1-4,4.57.5.5,0,0,1-.08-.07,2.87,2.87,0,0,1-1-2,3,3,0,0,1,1.73-2.84,3.22,3.22,0,0,1,3.3.37Z"/><ellipse class="cls-3" cx="99.03" cy="29.49" rx="1.54" ry="1.49" transform="translate(-1.41 5.23) rotate(-3.01)"/><path class="cls-3" d="M80.17,33.52a3.51,3.51,0,0,1-.12,1.13l-.11-.07a8.88,8.88,0,0,1-2.91-3,6.14,6.14,0,0,1-3.15,3.08,4.46,4.46,0,0,1-.85.28,4.27,4.27,0,0,1-.2-1,3.67,3.67,0,0,1,7.32-.53A.68.68,0,0,1,80.17,33.52Z"/><path class="cls-3" d="M85.46,34.31a2.88,2.88,0,0,1-.39,1.6H85a8.53,8.53,0,0,1-5-1.26l-.11-.07a2.81,2.81,0,0,1,.21-1.2,2.76,2.76,0,0,1,5.31.93Z"/><path class="cls-3" d="M100.13,34.58a3.43,3.43,0,0,1-1.43,3,2.18,2.18,0,0,1-.34.2,5.95,5.95,0,0,1-2.76.12,5.2,5.2,0,0,1-.68-.17,3.4,3.4,0,0,1-1.6-2.36,2.9,2.9,0,0,1-.06-.41,3.44,3.44,0,0,1,6.18-2.25A3.3,3.3,0,0,1,100.13,34.58Z"/><path class="cls-3" d="M95.63,37.46a1.93,1.93,0,0,1,0,.42,5.2,5.2,0,0,1-.68-.17,6.16,6.16,0,0,1-1.39-.62,3.64,3.64,0,0,1-1.13,2.46,2.17,2.17,0,0,1-1.21-1.86,2.21,2.21,0,0,1,2.09-2.34h0A2.24,2.24,0,0,1,95.63,37.46Z"/><circle class="cls-3" cx="90.97" cy="33.69" r="1.38"/><circle class="cls-3" cx="88.37" cy="36.93" r="1.38"/><circle class="cls-3" cx="75.24" cy="27.53" r="1.8"/><circle class="cls-3" cx="58.52" cy="19.96" r="1.8"/><circle class="cls-3" cx="64.81" cy="33.83" r="1.8"/><circle class="cls-3" cx="67.32" cy="28.71" r="1.38"/><circle class="cls-3" cx="61.88" cy="18.46" r="1.06"/><path class="cls-3" d="M53.17,36.27a3.09,3.09,0,0,1-.62.11,4.93,4.93,0,0,1-.15,1h0c0,.15-.1.29-.16.43a3.91,3.91,0,0,1-4.55,2.29,4.17,4.17,0,0,1-.77-.28h0a3.47,3.47,0,0,1-.53-1.68,2.16,2.16,0,0,1,0-.36,3.58,3.58,0,0,1,2-3.05,3.39,3.39,0,0,1,1.41-.37,3.54,3.54,0,0,1,2.54.88A3.35,3.35,0,0,1,53.17,36.27Z"/><circle class="cls-3" cx="49.95" cy="30.66" r="1.8"/><circle class="cls-3" cx="37.15" cy="34.01" r="1.58"/><path class="cls-3" d="M55.53,34a3.43,3.43,0,0,1-.24,1.46,7,7,0,0,1-2.12.79,3.09,3.09,0,0,1-.62.11,4.93,4.93,0,0,1-.15,1h0c0,.15-.1.29-.16.43h-.12a3.59,3.59,0,0,1-3.74-3.1,1.39,1.39,0,0,1,0-.3A3.5,3.5,0,0,1,49,32.16a3.62,3.62,0,0,1,2.77-1.54,3.55,3.55,0,0,1,2.75,1.07A3.63,3.63,0,0,1,55.53,34Z"/><circle class="cls-3" cx="40.4" cy="36.74" r="1.43"/><circle class="cls-3" cx="53.53" cy="26.87" r="1.14"/><circle class="cls-5" cx="58.26" cy="14.92" r="1.44"/><circle class="cls-5" cx="60.62" cy="25.52" r="1.14"/><circle class="cls-5" cx="51.85" cy="24.27" r="1.54"/><circle class="cls-5" cx="47.75" cy="25.88" r="0.86"/><circle class="cls-5" cx="70.52" cy="32.16" r="0.86"/><circle class="cls-5" cx="83.9" cy="32.53" r="1.44"/><circle class="cls-5" cx="44.04" cy="36.06" r="1.44"/><circle class="cls-5" cx="83.68" cy="21.12" r="1.08"/><circle class="cls-5" cx="86.8" cy="20.58" r="0.71"/><circle class="cls-5" cx="60.77" cy="16.94" r="0.72"/><path class="cls-4" d="M116.78,64.29a3.72,3.72,0,0,1-3.89-3.3.9.9,0,0,1,0-.23,3.74,3.74,0,0,1,.49-2,7.21,7.21,0,0,1-3.09-1.44l-.1-.07a7.29,7.29,0,0,1-1.76-2.07,7.18,7.18,0,0,1-.79-2.13,3.09,3.09,0,0,1-.11-.62,3.71,3.71,0,0,1-1-.15h0l-.43-.16a3.91,3.91,0,0,1-2.29-4.55,4.17,4.17,0,0,1,.28-.77h0a3.8,3.8,0,0,1,1.31-1.53,7.07,7.07,0,0,1-1.2-3.22,3.94,3.94,0,0,1-1.07.29,2.16,2.16,0,1,1-3.84-1.81,3.9,3.9,0,0,1-.35-.71,3.06,3.06,0,0,1-.13-.43,2.94,2.94,0,0,1-.11-.66,3.9,3.9,0,0,1,2.53-3.85,4.12,4.12,0,0,1,1.15-.23,3.84,3.84,0,0,1,3.53,1.93,7.05,7.05,0,0,1,11.46,8.08,7.36,7.36,0,0,1,1.46,13,3.71,3.71,0,0,1-2.07,6.65Z"/><circle class="cls-4" cx="108.25" cy="59.89" r="1.86"/><path class="cls-4" d="M121.08,60a5.19,5.19,0,0,0,2.33,4,3.32,3.32,0,1,0,4.38,3,3.26,3.26,0,0,0-1-2.14A5.19,5.19,0,1,0,121.08,60Z"/><path class="cls-4" d="M112.36,102.69a6.54,6.54,0,0,1-1.54-.12,6.18,6.18,0,0,1-4.57-4l-.12-.41a5.88,5.88,0,0,1-.22-1.32,6.23,6.23,0,0,1,.1-1.44,5.35,5.35,0,0,1,.17-.69,2.34,2.34,0,0,1,.18-.48,5.36,5.36,0,0,1,.44-.9,3.71,3.71,0,0,1,0-7.41,3.64,3.64,0,0,1,1.32.18A8.23,8.23,0,0,1,108,84.9v-.07a8.06,8.06,0,0,1,.2-2.31,8.44,8.44,0,0,1,1-2.64.76.76,0,0,1,.08-.11,8.71,8.71,0,0,1,3-2.91,6.16,6.16,0,0,1-3.08-3.14,5,5,0,0,1-.28-.85,5.54,5.54,0,0,1-.19-1.22c0-.2,0-.39,0-.57a6.82,6.82,0,0,1,.27-1.51,4.69,4.69,0,0,1-.61-.18,3.74,3.74,0,0,1-2.34-3.25,3.89,3.89,0,0,1,.5-2.06,3.71,3.71,0,0,1,6.88,1.29,6.75,6.75,0,0,1,1.11-.17A6.12,6.12,0,0,1,118.86,76a8.67,8.67,0,0,1,5.36,4.12,2.83,2.83,0,0,1,1.51-.55A2.71,2.71,0,1,1,126,85a2.57,2.57,0,0,1-.68-.06,8.68,8.68,0,0,1-8.22,8.17h-.06a6,6,0,0,1,1.11,3.17A6.15,6.15,0,0,1,112.36,102.69Z"/><path class="cls-4" d="M114.26,109.57a3.07,3.07,0,1,1-.33-6.13,3.07,3.07,0,0,1,.33,6.13Z"/><path class="cls-4" d="M104.86,96.93a2.43,2.43,0,1,0-2.3,2.56A2.43,2.43,0,0,0,104.86,96.93Z"/><circle class="cls-4" cx="119.21" cy="102.92" r="1.38"/><path class="cls-4" d="M122.89,51.07A2,2,0,1,0,124.76,49,2,2,0,0,0,122.89,51.07Z"/><path class="cls-4" d="M106.52,57a1.22,1.22,0,0,1-1.26-1.14A1.2,1.2,0,1,1,106.52,57Z"/><path class="cls-3" d="M104.1,46.75h0a3.8,3.8,0,0,1,1.31-1.53,7.07,7.07,0,0,1-1.2-3.22,3.94,3.94,0,0,1-1.07.29,2.16,2.16,0,1,1-3.84-1.81,3.9,3.9,0,0,1-.35-.71,3.06,3.06,0,0,1-.13-.43,4.87,4.87,0,0,1,3.23-1.7,1.39,1.39,0,0,1,.3,0,5,5,0,0,1,5.29,4.75,4.48,4.48,0,0,1-.07,1.11h0a2.5,2.5,0,0,1-.13.54h0a5,5,0,0,1-3.63,3.49A4.17,4.17,0,0,1,104.1,46.75Z"/><circle class="cls-3" cx="110.31" cy="44.4" r="2.87"/><path class="cls-3" d="M106.52,57a1.22,1.22,0,0,1-1.26-1.14A1.2,1.2,0,1,1,106.52,57Z"/><path class="cls-3" d="M110.27,57.27l-.1-.07a7.29,7.29,0,0,1-1.76-2.07,7.18,7.18,0,0,1-.79-2.13,3.09,3.09,0,0,1-.11-.62,3.71,3.71,0,0,1-1-.15,8.9,8.9,0,0,1,.92-.11,7,7,0,0,1,1.22,0c1.79.2,3.19,1.05,3.51,2.18a1.39,1.39,0,0,1,.06.4,1.65,1.65,0,0,1-.06.59h0A3.34,3.34,0,0,1,110.27,57.27Z"/><path class="cls-3" d="M99.43,39.78a3.65,3.65,0,0,1-.47,0,3.06,3.06,0,0,1-.13-.43,2.94,2.94,0,0,1-.11-.66,3.9,3.9,0,0,1,2.53-3.85,2.93,2.93,0,0,1,.81,2.81A2.89,2.89,0,0,1,99.43,39.78Z"/><path class="cls-3" d="M113.05,61h-.16a.9.9,0,0,1,0-.23,3.74,3.74,0,0,1,.49-2,7.21,7.21,0,0,1-3.09-1.44l-.1-.07a2.84,2.84,0,0,1,2-1.86h0a3.31,3.31,0,0,1,.55-.08,2.87,2.87,0,0,1,.3,5.74Z"/><path class="cls-3" d="M108.75,71.08a6.82,6.82,0,0,1,.27-1.51,4.69,4.69,0,0,1-.61-.18,3.74,3.74,0,0,1-2.34-3.25,3.89,3.89,0,0,1,.5-2.06,3.9,3.9,0,0,1,1.08-.21,3.66,3.66,0,0,1,1.1,7.21Z"/><path class="cls-3" d="M111.9,74.67a3.7,3.7,0,0,1-2.67-1,5,5,0,0,1-.28-.85,5.54,5.54,0,0,1-.19-1.22c0-.2,0-.39,0-.57a6.82,6.82,0,0,1,.27-1.51,4.69,4.69,0,0,1-.61-.18,3.67,3.67,0,1,1,4.85,5A3.83,3.83,0,0,1,111.9,74.67Z"/><path class="cls-3" d="M108.23,94.46a5.84,5.84,0,0,1-1.87-.19,5.36,5.36,0,0,1,.44-.9,3.71,3.71,0,0,1,0-7.41,3.64,3.64,0,0,1,1.32.18A8.23,8.23,0,0,1,108,84.9v-.07a8.06,8.06,0,0,1,.2-2.31,6,6,0,0,1,2.27,11.4A5.89,5.89,0,0,1,108.23,94.46Z"/><circle class="cls-3" cx="115.83" cy="81.14" r="2.36"/><circle class="cls-3" cx="114.53" cy="89.29" r="1.83"/><circle class="cls-3" cx="120.53" cy="87.49" r="1.48"/><path class="cls-3" d="M110.82,102.57a6.18,6.18,0,0,1-4.57-4s0-.06.08-.08a2.87,2.87,0,0,1,2-1,3,3,0,0,1,2.84,1.73,3.46,3.46,0,0,1,.29,1.2A3.12,3.12,0,0,1,110.82,102.57Z"/><ellipse class="cls-3" cx="114.4" cy="98.86" rx="1.49" ry="1.54" transform="translate(-5.03 6.13) rotate(-3.01)"/><path class="cls-3" d="M110.37,80a3.33,3.33,0,0,1-1.14-.12.76.76,0,0,1,.08-.11,8.71,8.71,0,0,1,3-2.91,6.16,6.16,0,0,1-3.08-3.14,5,5,0,0,1-.28-.85,3.85,3.85,0,0,1,1-.21,3.69,3.69,0,0,1,3.28,1.68A3.67,3.67,0,0,1,110.5,80,.3.3,0,0,1,110.37,80Z"/><path class="cls-3" d="M109.58,85.29a2.88,2.88,0,0,1-1.6-.39v-.07a8.52,8.52,0,0,1,1.25-5,.76.76,0,0,1,.08-.11,2.74,2.74,0,0,1,1.19.21,2.76,2.76,0,0,1-.92,5.31Z"/><path class="cls-3" d="M109.31,100a3.45,3.45,0,0,1-3-1.44,2.63,2.63,0,0,1-.2-.33,5.88,5.88,0,0,1-.22-1.32,6.23,6.23,0,0,1,.1-1.44,5.35,5.35,0,0,1,.17-.69,3.43,3.43,0,0,1,2.36-1.6,2.9,2.9,0,0,1,.41-.06,3.44,3.44,0,0,1,2.25,6.18A3.41,3.41,0,0,1,109.31,100Z"/><path class="cls-3" d="M106.43,95.46a1.94,1.94,0,0,1-.42,0,5.35,5.35,0,0,1,.17-.69,5.9,5.9,0,0,1,.62-1.38,3.69,3.69,0,0,1-2.46-1.14A2.17,2.17,0,0,1,106.2,91a2.22,2.22,0,0,1,2.34,2.1v0A2.23,2.23,0,0,1,106.43,95.46Z"/><circle class="cls-3" cx="110.2" cy="90.8" r="1.38"/><circle class="cls-3" cx="106.96" cy="88.2" r="1.38"/><circle class="cls-3" cx="116.36" cy="75.07" r="1.8"/><circle class="cls-3" cx="123.92" cy="58.36" r="1.8"/><circle class="cls-3" cx="110.05" cy="64.64" r="1.8"/><circle class="cls-3" cx="115.18" cy="67.15" r="1.38"/><circle class="cls-3" cx="125.43" cy="61.71" r="1.06"/><path class="cls-3" d="M107.62,53a3.09,3.09,0,0,1-.11-.62,3.71,3.71,0,0,1-1-.15h0l-.43-.16a3.91,3.91,0,0,1-2.29-4.55,4.17,4.17,0,0,1,.28-.77h0a3.47,3.47,0,0,1,1.68-.53,1.45,1.45,0,0,1,.36,0,3.55,3.55,0,0,1,3,2,3.46,3.46,0,0,1,.37,1.4,3.54,3.54,0,0,1-.88,2.54A3.35,3.35,0,0,1,107.62,53Z"/><circle class="cls-3" cx="113.23" cy="49.78" r="1.8"/><circle class="cls-3" cx="109.88" cy="36.99" r="1.58"/><path class="cls-3" d="M109.87,55.36a3.58,3.58,0,0,1-1.46-.23,7.18,7.18,0,0,1-.79-2.13,3.09,3.09,0,0,1-.11-.62,3.71,3.71,0,0,1-1-.15h0l-.43-.16s0-.08,0-.11a3.6,3.6,0,0,1,3.11-3.74.92.92,0,0,1,.29,0,3.6,3.6,0,1,1,.38,7.18Z"/><circle class="cls-3" cx="107.15" cy="40.23" r="1.43"/><circle class="cls-3" cx="117.02" cy="53.36" r="1.14"/><circle class="cls-5" cx="128.97" cy="58.09" r="1.44"/><circle class="cls-5" cx="118.36" cy="60.45" r="1.14"/><circle class="cls-5" cx="119.62" cy="51.68" r="1.54"/><circle class="cls-5" cx="118" cy="47.58" r="0.86"/><circle class="cls-5" cx="111.73" cy="70.35" r="0.86"/><circle class="cls-5" cx="111.36" cy="83.74" r="1.44"/><circle class="cls-5" cx="107.83" cy="43.87" r="1.44"/><circle class="cls-5" cx="122.77" cy="83.52" r="1.08"/><circle class="cls-5" cx="123.3" cy="86.63" r="0.71"/><circle class="cls-5" cx="126.95" cy="60.6" r="0.72"/><path class="cls-4" d="M79.6,116.61a3.72,3.72,0,0,1,3.3-3.89l.23,0a3.76,3.76,0,0,1,2.05.49,7.21,7.21,0,0,1,1.44-3.09.71.71,0,0,1,.07-.09,7.32,7.32,0,0,1,2.07-1.77,7.12,7.12,0,0,1,2.12-.79,3.36,3.36,0,0,1,.62-.11,4.38,4.38,0,0,1,.16-1h0c0-.15.1-.29.16-.43a3.91,3.91,0,0,1,4.55-2.29,4.07,4.07,0,0,1,.76.28h0a3.83,3.83,0,0,1,1.54,1.31,7.07,7.07,0,0,1,3.22-1.2,4.36,4.36,0,0,1-.3-1.07,2.16,2.16,0,1,1,1.82-3.84,4.26,4.26,0,0,1,.71-.35,2.7,2.7,0,0,1,.43-.13,3.5,3.5,0,0,1,.66-.11,3.9,3.9,0,0,1,3.85,2.54,4,4,0,0,1,.23,1.15,3.86,3.86,0,0,1-1.93,3.53,7,7,0,0,1,2.37,4.9,7.05,7.05,0,0,1-10.45,6.56,7.35,7.35,0,0,1-13,1.45,3.71,3.71,0,0,1-6.65-2.07Z"/><circle class="cls-4" cx="84" cy="108.08" r="1.86"/><path class="cls-4" d="M83.87,120.91a5.19,5.19,0,0,0-4.05,2.33,3.32,3.32,0,1,0-3,4.38,3.26,3.26,0,0,0,2.14-1,5.19,5.19,0,1,0,4.88-5.76Z"/><path class="cls-4" d="M41.2,112.19a6,6,0,0,1,.11-1.53,6.18,6.18,0,0,1,4-4.57l.41-.13a6.5,6.5,0,0,1,1.32-.22,6.23,6.23,0,0,1,1.44.1,5.2,5.2,0,0,1,.68.17,4.09,4.09,0,0,1,.49.18,5.36,5.36,0,0,1,.9.44,3.61,3.61,0,0,1,1.14-2.46,3.69,3.69,0,0,1,2.36-1,3.74,3.74,0,0,1,3.91,3.53,3.84,3.84,0,0,1-.18,1.32,8.23,8.23,0,0,1,1.24-.18h.07a8.06,8.06,0,0,1,2.31.2A8.22,8.22,0,0,1,64,109.07l.11.07a8.88,8.88,0,0,1,2.91,3,6.13,6.13,0,0,1,3.14-3.08,5,5,0,0,1,.85-.28,6.09,6.09,0,0,1,1.22-.19h.57a6.3,6.3,0,0,1,1.51.28,3.38,3.38,0,0,1,.18-.62,3.71,3.71,0,1,1,4,5,5.84,5.84,0,0,1,.18,1.11,6.12,6.12,0,0,1-10.77,4.3,8.65,8.65,0,0,1-4.13,5.36,2.79,2.79,0,0,1,.56,1.51,2.71,2.71,0,1,1-5.42.29,3.08,3.08,0,0,1,.07-.68A8.7,8.7,0,0,1,50.82,117a.15.15,0,0,1,0-.07A6,6,0,0,1,47.66,118,6.15,6.15,0,0,1,41.2,112.19Z"/><path class="cls-4" d="M34.32,114.09A3,3,0,0,1,35,112a3.07,3.07,0,0,1,3.8-.73,3.07,3.07,0,1,1-4.52,2.87Z"/><path class="cls-4" d="M47,104.69a2.43,2.43,0,1,0-2.55-2.3A2.43,2.43,0,0,0,47,104.69Z"/><circle class="cls-4" cx="40.96" cy="119.04" r="1.38"/><path class="cls-4" d="M92.81,122.72a2,2,0,1,0,2.08,1.87A2,2,0,0,0,92.81,122.72Z"/><path class="cls-4" d="M86.85,106.35a1.21,1.21,0,1,1,1.27,1.14A1.2,1.2,0,0,1,86.85,106.35Z"/><path class="cls-3" d="M97.13,103.93h0a3.83,3.83,0,0,1,1.54,1.31,7.07,7.07,0,0,1,3.22-1.2,4.36,4.36,0,0,1-.3-1.07,2.16,2.16,0,1,1,1.82-3.84,4.26,4.26,0,0,1,.71-.35,2.7,2.7,0,0,1,.43-.13,4.87,4.87,0,0,1,1.7,3.23,2.77,2.77,0,0,1,0,.3,5,5,0,0,1-4.76,5.29,5.1,5.1,0,0,1-1.11-.06h0a5.11,5.11,0,0,1-.53-.13h0a4.86,4.86,0,0,1-2.2-1.31,5,5,0,0,1-1.29-2.33A4.07,4.07,0,0,1,97.13,103.93Z"/><circle class="cls-3" cx="99.49" cy="110.14" r="2.87"/><path class="cls-3" d="M86.85,106.35a1.21,1.21,0,1,1,1.27,1.14A1.2,1.2,0,0,1,86.85,106.35Z"/><path class="cls-3" d="M86.62,110.1a.71.71,0,0,1,.07-.09,7.32,7.32,0,0,1,2.07-1.77,7.12,7.12,0,0,1,2.12-.79,3.36,3.36,0,0,1,.62-.11,4.38,4.38,0,0,1,.16-1,6.82,6.82,0,0,1,.1.92,7,7,0,0,1,0,1.22c-.21,1.79-1.06,3.19-2.18,3.51a1.87,1.87,0,0,1-.4.07,2.27,2.27,0,0,1-.59-.06h0A3.36,3.36,0,0,1,86.62,110.1Z"/><path class="cls-3" d="M104.11,99.26a2.44,2.44,0,0,1,0-.47,2.7,2.7,0,0,1,.43-.13,3.5,3.5,0,0,1,.66-.11,3.9,3.9,0,0,1,3.85,2.54,2.88,2.88,0,0,1-1.94.88,2.83,2.83,0,0,1-.87-.08A2.88,2.88,0,0,1,104.11,99.26Z"/><path class="cls-3" d="M82.9,112.88a.86.86,0,0,1,0-.16l.23,0a3.76,3.76,0,0,1,2.05.49,7.21,7.21,0,0,1,1.44-3.09.71.71,0,0,1,.07-.09,2.81,2.81,0,0,1,1.86,2h0a4.68,4.68,0,0,1,.08.54,2.87,2.87,0,0,1-5.74.3Z"/><path class="cls-3" d="M72.81,108.58a6.3,6.3,0,0,1,1.51.28,3.38,3.38,0,0,1,.18-.62,3.71,3.71,0,0,1,5.3-1.84,3.91,3.91,0,0,1,.22,1.09,3.66,3.66,0,0,1-7.21,1.09Z"/><path class="cls-3" d="M69.22,111.73a3.68,3.68,0,0,1,1-2.67,5,5,0,0,1,.85-.28,6.09,6.09,0,0,1,1.22-.19h.57a6.3,6.3,0,0,1,1.51.28,3.38,3.38,0,0,1,.18-.62,3.68,3.68,0,1,1-5,4.85A3.63,3.63,0,0,1,69.22,111.73Z"/><path class="cls-3" d="M49.42,108.07a6.17,6.17,0,0,1,.2-1.88,5.36,5.36,0,0,1,.9.44,3.61,3.61,0,0,1,1.14-2.46,3.69,3.69,0,0,1,2.36-1,3.74,3.74,0,0,1,3.91,3.53,3.84,3.84,0,0,1-.18,1.32,8.23,8.23,0,0,1,1.24-.18h.07a8.06,8.06,0,0,1,2.31.2A6,6,0,0,1,50,110.28,6.09,6.09,0,0,1,49.42,108.07Z"/><circle class="cls-3" cx="62.75" cy="115.66" r="2.36"/><circle class="cls-3" cx="54.6" cy="114.37" r="1.83"/><circle class="cls-3" cx="56.4" cy="120.36" r="1.48"/><path class="cls-3" d="M41.31,110.66a6.18,6.18,0,0,1,4-4.57.5.5,0,0,1,.08.07,2.9,2.9,0,0,1,1,2A3,3,0,0,1,44.61,111a3.22,3.22,0,0,1-3.3-.37Z"/><ellipse class="cls-3" cx="45.02" cy="114.23" rx="1.54" ry="1.49" transform="translate(-5.93 2.52) rotate(-3.01)"/><path class="cls-3" d="M63.89,110.2a3.25,3.25,0,0,1,.12-1.13l.11.07a8.88,8.88,0,0,1,2.91,3,6.13,6.13,0,0,1,3.14-3.08,5,5,0,0,1,.85-.28,3.49,3.49,0,0,1,.2,1,3.67,3.67,0,0,1-7.31.53A.34.34,0,0,1,63.89,110.2Z"/><path class="cls-3" d="M58.59,109.41a2.89,2.89,0,0,1,.4-1.6h.07a8.57,8.57,0,0,1,5,1.26l.11.07a2.81,2.81,0,0,1-.21,1.2,2.77,2.77,0,0,1-5.32-.93Z"/><path class="cls-3" d="M43.92,109.14a3.46,3.46,0,0,1,1.44-3l.33-.2a6.5,6.5,0,0,1,1.32-.22,6.23,6.23,0,0,1,1.44.1,5.2,5.2,0,0,1,.68.17,3.41,3.41,0,0,1,1.61,2.36,1.92,1.92,0,0,1,0,.41,3.44,3.44,0,0,1-6.87.36Z"/><path class="cls-3" d="M48.43,106.26a1.94,1.94,0,0,1,0-.42,5.2,5.2,0,0,1,.68.17,5.79,5.79,0,0,1,1.39.62,3.61,3.61,0,0,1,1.14-2.46A2.17,2.17,0,0,1,52.87,106a2.22,2.22,0,0,1-2.1,2.34h0A2.23,2.23,0,0,1,48.43,106.26Z"/><circle class="cls-3" cx="53.08" cy="110.03" r="1.38"/><circle class="cls-3" cx="55.68" cy="106.79" r="1.38"/><circle class="cls-3" cx="68.82" cy="116.19" r="1.8"/><circle class="cls-3" cx="85.53" cy="123.76" r="1.8"/><circle class="cls-3" cx="79.25" cy="109.89" r="1.8"/><circle class="cls-3" cx="76.74" cy="115.02" r="1.38"/><circle class="cls-3" cx="82.17" cy="125.26" r="1.06"/><path class="cls-3" d="M90.88,107.45a3.36,3.36,0,0,1,.62-.11,4.38,4.38,0,0,1,.16-1h0c0-.15.1-.29.16-.43a3.91,3.91,0,0,1,4.55-2.29,4.07,4.07,0,0,1,.76.28h0a3.59,3.59,0,0,1,.54,1.68,2.17,2.17,0,0,1,0,.36,3.56,3.56,0,0,1-2,3,3.31,3.31,0,0,1-1.4.37,3.65,3.65,0,0,1-3.39-2Z"/><circle class="cls-3" cx="94.11" cy="113.06" r="1.8"/><circle class="cls-3" cx="106.9" cy="109.71" r="1.58"/><path class="cls-3" d="M88.53,109.7a3.42,3.42,0,0,1,.23-1.46,7.12,7.12,0,0,1,2.12-.79,3.36,3.36,0,0,1,.62-.11,4.38,4.38,0,0,1,.16-1h0c0-.15.1-.29.16-.43h.11a3.58,3.58,0,0,1,3.74,3.1,1.36,1.36,0,0,1,0,.3,3.51,3.51,0,0,1-.64,2.23,3.6,3.6,0,0,1-5.52.47A3.62,3.62,0,0,1,88.53,109.7Z"/><circle class="cls-3" cx="103.66" cy="106.98" r="1.43"/><circle class="cls-3" cx="90.53" cy="116.85" r="1.14"/><circle class="cls-5" cx="85.8" cy="128.8" r="1.44"/><circle class="cls-5" cx="83.44" cy="118.2" r="1.14"/><circle class="cls-5" cx="92.2" cy="119.45" r="1.54"/><circle class="cls-5" cx="96.31" cy="117.84" r="0.86"/><circle class="cls-5" cx="73.54" cy="111.56" r="0.86"/><circle class="cls-5" cx="60.15" cy="111.19" r="1.44"/><circle class="cls-5" cx="100.02" cy="107.66" r="1.44"/><circle class="cls-5" cx="60.37" cy="122.6" r="1.08"/><circle class="cls-5" cx="57.26" cy="123.14" r="0.71"/><circle class="cls-5" cx="83.29" cy="126.78" r="0.72"/><path class="cls-4" d="M27.28,79.43a3.73,3.73,0,0,1,3.89,3.31,1.5,1.5,0,0,1,0,.22,3.71,3.71,0,0,1-.5,2.06,7.12,7.12,0,0,1,3.1,1.43l.09.07a7.26,7.26,0,0,1,2.56,4.2,4,4,0,0,1,.11.62,3.7,3.7,0,0,1,1,.15h0l.43.16a3.92,3.92,0,0,1,2.4,3.41,3.33,3.33,0,0,1-.11,1.14A3.52,3.52,0,0,1,40,97h0a3.74,3.74,0,0,1-1.31,1.54,6.89,6.89,0,0,1,1.21,3.21,3.76,3.76,0,0,1,1.07-.29,2.15,2.15,0,0,1,2-1.61,2.18,2.18,0,0,1,2.29,2,2.28,2.28,0,0,1-.42,1.38,3.85,3.85,0,0,1,.34.71,2.16,2.16,0,0,1,.14.43,2.93,2.93,0,0,1,.1.66,3.9,3.9,0,0,1-2.53,3.85,4.05,4.05,0,0,1-1.15.23,3.84,3.84,0,0,1-3.53-1.93,7.06,7.06,0,0,1-12.33-4.31,7.1,7.1,0,0,1,.87-3.77,7.36,7.36,0,0,1-1.46-13,3.71,3.71,0,0,1,2.08-6.65Z"/><circle class="cls-4" cx="35.81" cy="83.83" r="1.86"/><path class="cls-4" d="M23,83.7a5.18,5.18,0,0,0-2.34-4,3.34,3.34,0,1,0-3.43-.83A5.19,5.19,0,1,0,23,83.7Z"/><path class="cls-4" d="M31.7,41a6.46,6.46,0,0,1,1.53.12,6.17,6.17,0,0,1,4.57,4c0,.13.08.28.13.41a5.86,5.86,0,0,1,.21,1.32,5.73,5.73,0,0,1-.09,1.44,7,7,0,0,1-.17.69,4.68,4.68,0,0,1-.18.48,6.26,6.26,0,0,1-.44.9,3.71,3.71,0,0,1,2.46,1.14,3.65,3.65,0,0,1,1,2.36,3.72,3.72,0,0,1-3.53,3.91,3.67,3.67,0,0,1-1.32-.18,7.12,7.12,0,0,1,.18,1.24v.07a8.77,8.77,0,0,1-1.26,5l-.07.11a8.88,8.88,0,0,1-3,2.91A6.2,6.2,0,0,1,34.83,70a6,6,0,0,1,.28.85,6.2,6.2,0,0,1,.19,1.22c0,.2,0,.39,0,.57A6.3,6.3,0,0,1,35,74.15a4.4,4.4,0,0,1,.62.18,3.71,3.71,0,0,1,1.83,5.31,3.7,3.7,0,0,1-6.87-1.29,6.92,6.92,0,0,1-1.11.17,6.12,6.12,0,0,1-4.3-10.77,8.69,8.69,0,0,1-5.37-4.12,2.8,2.8,0,0,1-1.51.55A2.71,2.71,0,1,1,18,58.77a2.57,2.57,0,0,1,.68.06,8.67,8.67,0,0,1,8.21-8.17H27a6,6,0,0,1-1.11-3.17A6.14,6.14,0,0,1,31.7,41Z"/><path class="cls-4" d="M29.8,34.15a3,3,0,0,1,2.13.72,3.06,3.06,0,0,1-1.81,5.41,3.07,3.07,0,1,1-.32-6.13Z"/><path class="cls-4" d="M39.2,46.79a2.43,2.43,0,1,0,2.3-2.56A2.42,2.42,0,0,0,39.2,46.79Z"/><circle class="cls-4" cx="24.85" cy="40.8" r="1.38"/><path class="cls-4" d="M21.16,92.65a2,2,0,1,0-1.86,2.07A2,2,0,0,0,21.16,92.65Z"/><path class="cls-4" d="M37.54,86.68a1.21,1.21,0,0,1,1.25,1.14A1.2,1.2,0,1,1,36.4,88,1.21,1.21,0,0,1,37.54,86.68Z"/><path class="cls-3" d="M40,97h0a3.74,3.74,0,0,1-1.31,1.54,6.89,6.89,0,0,1,1.21,3.21,3.76,3.76,0,0,1,1.07-.29,2.15,2.15,0,0,1,2-1.61,2.18,2.18,0,0,1,2.29,2,2.28,2.28,0,0,1-.42,1.38,3.85,3.85,0,0,1,.34.71,2.16,2.16,0,0,1,.14.43,4.87,4.87,0,0,1-3.24,1.7,1.36,1.36,0,0,1-.29,0,5,5,0,0,1-5.23-5.86h0a2.93,2.93,0,0,1,.13-.53v0a4.83,4.83,0,0,1,1.31-2.19,4.91,4.91,0,0,1,2.32-1.3A3.52,3.52,0,0,1,40,97Z"/><circle class="cls-3" cx="33.75" cy="99.32" r="2.87"/><path class="cls-3" d="M37.54,86.68a1.21,1.21,0,0,1,1.25,1.14A1.2,1.2,0,1,1,36.4,88,1.21,1.21,0,0,1,37.54,86.68Z"/><path class="cls-3" d="M33.79,86.45l.09.07a7.26,7.26,0,0,1,2.56,4.2,4,4,0,0,1,.11.62,3.7,3.7,0,0,1,1,.15,8.71,8.71,0,0,1-.91.11,7,7,0,0,1-1.22,0c-1.79-.2-3.19-1-3.51-2.18a1.87,1.87,0,0,1-.07-.4,1.91,1.91,0,0,1,.06-.59h0A3.36,3.36,0,0,1,33.79,86.45Z"/><path class="cls-3" d="M44.63,103.94a3.45,3.45,0,0,1,.46,0,2.16,2.16,0,0,1,.14.43,2.93,2.93,0,0,1,.1.66,3.9,3.9,0,0,1-2.53,3.85,2.92,2.92,0,0,1-.89-1.94,3.62,3.62,0,0,1,.08-.87A2.9,2.9,0,0,1,44.63,103.94Z"/><path class="cls-3" d="M31,82.73h.16a1.5,1.5,0,0,1,0,.22,3.71,3.71,0,0,1-.5,2.06,7.12,7.12,0,0,1,3.1,1.43l.09.07a2.81,2.81,0,0,1-2,1.86h0a3.2,3.2,0,0,1-.54.08,2.87,2.87,0,0,1-.3-5.74Z"/><path class="cls-3" d="M35.31,72.64A6.3,6.3,0,0,1,35,74.15a4.4,4.4,0,0,1,.62.18,3.71,3.71,0,0,1,1.83,5.31,3.76,3.76,0,0,1-1.08.21,3.66,3.66,0,0,1-1.09-7.21Z"/><path class="cls-3" d="M32.16,69.05a3.72,3.72,0,0,1,2.67,1,6,6,0,0,1,.28.85,6.2,6.2,0,0,1,.19,1.22c0,.2,0,.39,0,.57A6.3,6.3,0,0,1,35,74.15a4.4,4.4,0,0,1,.62.18,3.68,3.68,0,1,1-4.85-5A3.83,3.83,0,0,1,32.16,69.05Z"/><path class="cls-3" d="M35.82,49.26a5.87,5.87,0,0,1,1.88.19,6.26,6.26,0,0,1-.44.9,3.71,3.71,0,0,1,2.46,1.14,3.65,3.65,0,0,1,1,2.36,3.72,3.72,0,0,1-3.53,3.91,3.67,3.67,0,0,1-1.32-.18,7.12,7.12,0,0,1,.18,1.24v.07a8.06,8.06,0,0,1-.2,2.31,6,6,0,0,1-2.27-11.39A5.71,5.71,0,0,1,35.82,49.26Z"/><circle class="cls-3" cx="28.22" cy="62.59" r="2.36"/><circle class="cls-3" cx="29.52" cy="54.43" r="1.83"/><circle class="cls-3" cx="23.52" cy="56.23" r="1.48"/><path class="cls-3" d="M33.23,41.15a6.17,6.17,0,0,1,4.57,4,.5.5,0,0,1-.07.08,2.91,2.91,0,0,1-2,1,3,3,0,0,1-2.83-1.73,3.25,3.25,0,0,1-.29-1.2A3.11,3.11,0,0,1,33.23,41.15Z"/><ellipse class="cls-3" cx="29.66" cy="44.86" rx="1.49" ry="1.54" transform="translate(-2.31 1.62) rotate(-3.01)"/><path class="cls-3" d="M33.69,63.72a3.57,3.57,0,0,1,1.13.12l-.07.11a8.88,8.88,0,0,1-3,2.91A6.2,6.2,0,0,1,34.83,70a6,6,0,0,1,.28.85,3.84,3.84,0,0,1-1,.21,3.67,3.67,0,0,1-3.27-1.68,3.65,3.65,0,0,1,2.75-5.64A.34.34,0,0,1,33.69,63.72Z"/><path class="cls-3" d="M34.48,58.43a2.85,2.85,0,0,1,1.59.39v.07a8.6,8.6,0,0,1-1.26,5l-.07.11a2.76,2.76,0,1,1-.27-5.52Z"/><path class="cls-3" d="M34.75,43.75a3.48,3.48,0,0,1,3,1.44c.07.1.13.21.2.33a5.86,5.86,0,0,1,.21,1.32,5.73,5.73,0,0,1-.09,1.44,7,7,0,0,1-.17.69,3.43,3.43,0,0,1-2.37,1.6,2.76,2.76,0,0,1-.4.06,3.44,3.44,0,0,1-3.62-3.25,3.4,3.4,0,0,1,1.37-2.93A3.36,3.36,0,0,1,34.75,43.75Z"/><path class="cls-3" d="M37.63,48.26a2,2,0,0,1,.42,0,7,7,0,0,1-.17.69,6.34,6.34,0,0,1-.62,1.38,3.71,3.71,0,0,1,2.46,1.14,2.17,2.17,0,0,1-1.86,1.21,2.21,2.21,0,0,1-2.34-2.1v0A2.24,2.24,0,0,1,37.63,48.26Z"/><circle class="cls-3" cx="33.86" cy="52.92" r="1.38"/><circle class="cls-3" cx="37.09" cy="55.52" r="1.38"/><circle class="cls-3" cx="27.69" cy="68.65" r="1.8"/><circle class="cls-3" cx="20.13" cy="85.36" r="1.8"/><circle class="cls-3" cx="34" cy="79.08" r="1.8"/><circle class="cls-3" cx="28.87" cy="76.57" r="1.38"/><circle class="cls-3" cx="18.63" cy="82.01" r="1.06"/><path class="cls-3" d="M36.44,90.72a4,4,0,0,1,.11.62,3.7,3.7,0,0,1,1,.15h0l.43.16a3.92,3.92,0,0,1,2.4,3.41,3.33,3.33,0,0,1-.11,1.14A3.52,3.52,0,0,1,40,97h0a3.4,3.4,0,0,1-1.68.53,2,2,0,0,1-.35,0,3.56,3.56,0,0,1-3-2,3.31,3.31,0,0,1-.37-1.4,3.46,3.46,0,0,1,.88-2.54A3.35,3.35,0,0,1,36.44,90.72Z"/><circle class="cls-3" cx="30.82" cy="93.94" r="1.8"/><circle class="cls-3" cx="34.17" cy="106.73" r="1.58"/><path class="cls-3" d="M34.18,88.36a3.53,3.53,0,0,1,1.46.23,7.2,7.2,0,0,1,.8,2.13,4,4,0,0,1,.11.62,3.7,3.7,0,0,1,1,.15h0l.43.16a.22.22,0,0,1,0,.11,3.58,3.58,0,0,1-3.1,3.74,1,1,0,0,1-.3,0,3.56,3.56,0,0,1-2.23-.63,3.6,3.6,0,0,1,1.85-6.55Z"/><circle class="cls-3" cx="36.9" cy="103.49" r="1.43"/><circle class="cls-3" cx="27.03" cy="90.36" r="1.14"/><circle class="cls-5" cx="15.08" cy="85.63" r="1.44"/><circle class="cls-5" cx="25.69" cy="83.27" r="1.14"/><circle class="cls-5" cx="24.44" cy="92.04" r="1.54"/><circle class="cls-5" cx="26.05" cy="96.14" r="0.86"/><circle class="cls-5" cx="32.33" cy="73.37" r="0.86"/><circle class="cls-5" cx="32.69" cy="59.98" r="1.44"/><circle class="cls-5" cx="36.23" cy="99.85" r="1.44"/><circle class="cls-5" cx="21.28" cy="60.2" r="1.08"/><circle class="cls-5" cx="20.75" cy="57.09" r="0.71"/><circle class="cls-5" cx="17.11" cy="83.12" r="0.72"/><path class="cls-4" d="M64.46,27.11A3.73,3.73,0,0,1,61.15,31l-.22,0a3.79,3.79,0,0,1-2.06-.49,7.08,7.08,0,0,1-1.43,3.09s0,.06-.07.1a7.35,7.35,0,0,1-2.08,1.76,7,7,0,0,1-2.12.79,3.09,3.09,0,0,1-.62.11,4.93,4.93,0,0,1-.15,1h0c0,.15-.1.29-.16.43a3.91,3.91,0,0,1-4.55,2.29,4.17,4.17,0,0,1-.77-.28h0a3.9,3.9,0,0,1-1.54-1.31,7,7,0,0,1-3.21,1.2,3.94,3.94,0,0,1,.29,1.07A2.17,2.17,0,0,1,42,45a2.13,2.13,0,0,1-1.37-.42,4.68,4.68,0,0,1-.71.35,3.06,3.06,0,0,1-.43.13,3.61,3.61,0,0,1-.67.11A3.89,3.89,0,0,1,35,42.63a3.68,3.68,0,0,1-.23-1.15A3.82,3.82,0,0,1,36.7,38a7.06,7.06,0,0,1,8.08-11.47,7.35,7.35,0,0,1,13-1.45,3.71,3.71,0,0,1,6.65,2.07Z"/><circle class="cls-4" cx="60.06" cy="35.64" r="1.86"/><path class="cls-4" d="M60.19,22.81a5.19,5.19,0,0,0,4-2.33,3.32,3.32,0,1,0,3-4.38,3.22,3.22,0,0,0-2.14.95,5.19,5.19,0,1,0-4.88,5.76Z"/><path class="cls-4" d="M102.86,31.53a6.46,6.46,0,0,1-.12,1.53,6.17,6.17,0,0,1-4,4.57l-.42.13a5.95,5.95,0,0,1-2.76.12,5.2,5.2,0,0,1-.68-.17l-.49-.18a6.24,6.24,0,0,1-.9-.44,3.64,3.64,0,0,1-1.13,2.46,3.7,3.7,0,0,1-6.27-2.5,3.41,3.41,0,0,1,.18-1.32,8.42,8.42,0,0,1-1.24.18H85a8,8,0,0,1-2.31-.2,8.13,8.13,0,0,1-2.64-1.06l-.11-.07a8.88,8.88,0,0,1-2.91-3,6.14,6.14,0,0,1-3.15,3.08,4.46,4.46,0,0,1-.85.28,6.09,6.09,0,0,1-1.22.19h-.57a6.73,6.73,0,0,1-1.5-.27,4.76,4.76,0,0,1-.19.61,3.71,3.71,0,0,1-3.24,2.33,3.79,3.79,0,0,1-2.06-.49,3.71,3.71,0,0,1,1.29-6.88,6.75,6.75,0,0,1-.17-1.11A6.12,6.12,0,0,1,76.14,25a8.64,8.64,0,0,1,4.12-5.36,2.72,2.72,0,0,1,2-4.37,2.72,2.72,0,0,1,2.86,2.57,2.58,2.58,0,0,1-.07.68,8.68,8.68,0,0,1,8.18,8.21.15.15,0,0,1,0,.07,6.09,6.09,0,0,1,3.18-1.11A6.15,6.15,0,0,1,102.86,31.53Z"/><path class="cls-4" d="M109.74,29.63a3.08,3.08,0,0,1-2.91,3.23,3,3,0,0,1-1.61-.36,3.07,3.07,0,1,1,4.52-2.87Z"/><path class="cls-4" d="M97.1,39a2.43,2.43,0,1,0,2.55,2.3A2.43,2.43,0,0,0,97.1,39Z"/><circle class="cls-4" cx="103.09" cy="24.68" r="1.38"/><path class="cls-4" d="M51.24,21a2,2,0,1,0-2.07-1.87A2,2,0,0,0,51.24,21Z"/><path class="cls-4" d="M57.2,37.37a1.2,1.2,0,1,1-1.26-1.14A1.19,1.19,0,0,1,57.2,37.37Z"/><path class="cls-3" d="M46.92,39.79h0a3.9,3.9,0,0,1-1.54-1.31,7,7,0,0,1-3.21,1.2,3.94,3.94,0,0,1,.29,1.07A2.17,2.17,0,0,1,42,45a2.13,2.13,0,0,1-1.37-.42,4.68,4.68,0,0,1-.71.35,3.06,3.06,0,0,1-.43.13,4.93,4.93,0,0,1-1.71-3.23,2.83,2.83,0,0,1,0-.3,5,5,0,0,1,5.86-5.23h0a4.11,4.11,0,0,1,.53.13h0a4.81,4.81,0,0,1,2.2,1.31,4.94,4.94,0,0,1,1.3,2.33A4.17,4.17,0,0,1,46.92,39.79Z"/><circle class="cls-3" cx="44.57" cy="33.58" r="2.87"/><path class="cls-3" d="M57.2,37.37a1.2,1.2,0,1,1-1.26-1.14A1.19,1.19,0,0,1,57.2,37.37Z"/><path class="cls-3" d="M57.44,33.62s0,.06-.07.1a7.35,7.35,0,0,1-2.08,1.76,7,7,0,0,1-2.12.79,3.09,3.09,0,0,1-.62.11,4.93,4.93,0,0,1-.15,1,8.9,8.9,0,0,1-.11-.92,7,7,0,0,1,0-1.22c.2-1.79,1.05-3.19,2.17-3.51a2,2,0,0,1,.41-.07,2.2,2.2,0,0,1,.58.06h0A3.36,3.36,0,0,1,57.44,33.62Z"/><path class="cls-3" d="M40,44.46c0,.16,0,.32,0,.47a3.06,3.06,0,0,1-.43.13,3.61,3.61,0,0,1-.67.11A3.89,3.89,0,0,1,35,42.63a2.84,2.84,0,0,1,1.93-.88,2.77,2.77,0,0,1,.87.08A2.89,2.89,0,0,1,40,44.46Z"/><path class="cls-3" d="M61.16,30.84a.86.86,0,0,1,0,.16l-.22,0a3.79,3.79,0,0,1-2.06-.49,7.08,7.08,0,0,1-1.43,3.09s0,.06-.07.1a2.84,2.84,0,0,1-1.86-2h0a4.68,4.68,0,0,1-.07-.54,2.87,2.87,0,0,1,5.74-.3Z"/><path class="cls-3" d="M71.24,35.14a6.73,6.73,0,0,1-1.5-.27,4.76,4.76,0,0,1-.19.61,3.71,3.71,0,0,1-3.24,2.33,3.79,3.79,0,0,1-2.06-.49A3.9,3.9,0,0,1,64,36.24a3.66,3.66,0,0,1,7.2-1.1Z"/><path class="cls-3" d="M74.84,32a3.68,3.68,0,0,1-1,2.67,4.46,4.46,0,0,1-.85.28,6.09,6.09,0,0,1-1.22.19h-.57a6.73,6.73,0,0,1-1.5-.27,4.76,4.76,0,0,1-.19.61,3.68,3.68,0,1,1,5-4.85A3.63,3.63,0,0,1,74.84,32Z"/><path class="cls-3" d="M94.63,35.65a5.6,5.6,0,0,1-.2,1.88,6.24,6.24,0,0,1-.9-.44,3.64,3.64,0,0,1-1.13,2.46,3.7,3.7,0,0,1-6.27-2.5,3.41,3.41,0,0,1,.18-1.32,8.42,8.42,0,0,1-1.24.18H85a8,8,0,0,1-2.31-.2,6,6,0,0,1,11.39-2.27A5.9,5.9,0,0,1,94.63,35.65Z"/><circle class="cls-3" cx="81.3" cy="28.06" r="2.36"/><circle class="cls-3" cx="89.46" cy="29.35" r="1.83"/><circle class="cls-3" cx="87.66" cy="23.36" r="1.48"/><path class="cls-3" d="M102.74,33.06a6.17,6.17,0,0,1-4,4.57.5.5,0,0,1-.08-.07,2.87,2.87,0,0,1-1-2,3,3,0,0,1,1.73-2.84,3.22,3.22,0,0,1,3.3.37Z"/><ellipse class="cls-3" cx="99.03" cy="29.49" rx="1.54" ry="1.49" transform="translate(-1.41 5.23) rotate(-3.01)"/><path class="cls-3" d="M80.17,33.52a3.51,3.51,0,0,1-.12,1.13l-.11-.07a8.88,8.88,0,0,1-2.91-3,6.14,6.14,0,0,1-3.15,3.08,4.46,4.46,0,0,1-.85.28,4.27,4.27,0,0,1-.2-1,3.67,3.67,0,0,1,7.32-.53A.68.68,0,0,1,80.17,33.52Z"/><path class="cls-3" d="M85.46,34.31a2.88,2.88,0,0,1-.39,1.6H85a8.53,8.53,0,0,1-5-1.26l-.11-.07a2.81,2.81,0,0,1,.21-1.2,2.76,2.76,0,0,1,5.31.93Z"/><path class="cls-3" d="M100.13,34.58a3.43,3.43,0,0,1-1.43,3,2.18,2.18,0,0,1-.34.2,5.95,5.95,0,0,1-2.76.12,5.2,5.2,0,0,1-.68-.17,3.4,3.4,0,0,1-1.6-2.36,2.9,2.9,0,0,1-.06-.41,3.44,3.44,0,0,1,6.18-2.25A3.3,3.3,0,0,1,100.13,34.58Z"/><path class="cls-3" d="M95.63,37.46a1.93,1.93,0,0,1,0,.42,5.2,5.2,0,0,1-.68-.17,6.16,6.16,0,0,1-1.39-.62,3.64,3.64,0,0,1-1.13,2.46,2.17,2.17,0,0,1-1.21-1.86,2.21,2.21,0,0,1,2.09-2.34h0A2.24,2.24,0,0,1,95.63,37.46Z"/><circle class="cls-3" cx="90.97" cy="33.69" r="1.38"/><circle class="cls-3" cx="88.37" cy="36.93" r="1.38"/><circle class="cls-3" cx="75.24" cy="27.53" r="1.8"/><circle class="cls-3" cx="58.52" cy="19.96" r="1.8"/><circle class="cls-3" cx="64.81" cy="33.83" r="1.8"/><circle class="cls-3" cx="67.32" cy="28.71" r="1.38"/><circle class="cls-3" cx="61.88" cy="18.46" r="1.06"/><path class="cls-3" d="M53.17,36.27a3.09,3.09,0,0,1-.62.11,4.93,4.93,0,0,1-.15,1h0c0,.15-.1.29-.16.43a3.91,3.91,0,0,1-4.55,2.29,4.17,4.17,0,0,1-.77-.28h0a3.47,3.47,0,0,1-.53-1.68,2.16,2.16,0,0,1,0-.36,3.58,3.58,0,0,1,2-3.05,3.39,3.39,0,0,1,1.41-.37,3.54,3.54,0,0,1,2.54.88A3.35,3.35,0,0,1,53.17,36.27Z"/><circle class="cls-3" cx="49.95" cy="30.66" r="1.8"/><circle class="cls-3" cx="37.15" cy="34.01" r="1.58"/><path class="cls-3" d="M55.53,34a3.43,3.43,0,0,1-.24,1.46,7,7,0,0,1-2.12.79,3.09,3.09,0,0,1-.62.11,4.93,4.93,0,0,1-.15,1h0c0,.15-.1.29-.16.43h-.12a3.59,3.59,0,0,1-3.74-3.1,1.39,1.39,0,0,1,0-.3A3.5,3.5,0,0,1,49,32.16a3.62,3.62,0,0,1,2.77-1.54,3.55,3.55,0,0,1,2.75,1.07A3.63,3.63,0,0,1,55.53,34Z"/><circle class="cls-3" cx="40.4" cy="36.74" r="1.43"/><circle class="cls-3" cx="53.53" cy="26.87" r="1.14"/><circle class="cls-5" cx="58.26" cy="14.92" r="1.44"/><circle class="cls-5" cx="60.62" cy="25.52" r="1.14"/><circle class="cls-5" cx="51.85" cy="24.27" r="1.54"/><circle class="cls-5" cx="47.75" cy="25.88" r="0.86"/><circle class="cls-5" cx="70.52" cy="32.16" r="0.86"/><circle class="cls-5" cx="83.9" cy="32.53" r="1.44"/><circle class="cls-5" cx="44.04" cy="36.06" r="1.44"/><circle class="cls-5" cx="83.68" cy="21.12" r="1.08"/><circle class="cls-5" cx="86.8" cy="20.58" r="0.71"/><circle class="cls-5" cx="60.77" cy="16.94" r="0.72"/><circle class="cls-3" cx="48.15" cy="41.74" r="2.24"/><circle class="cls-3" cx="101.71" cy="47.55" r="2.48"/><circle class="cls-3" cx="95.63" cy="100.9" r="2.03"/><circle class="cls-3" cx="41.59" cy="96.42" r="2.45"/><circle class="cls-3" cx="35.58" cy="63.83" r="2.21"/><circle class="cls-3" cx="108.49" cy="78.8" r="1.82"/><circle class="cls-3" cx="17.4" cy="68.7" r="2.12"/><circle class="cls-3" cx="68.7" cy="125.48" r="2.12"/><circle class="cls-3" cx="125.48" cy="74.86" r="2.12"/><circle class="cls-3" cx="94.64" cy="20.58" r="2.12"/><circle class="cls-4" cx="43.23" cy="23.28" r="1.4"/><circle class="cls-4" cx="119.13" cy="41.74" r="1.65"/><circle class="cls-4" cx="120.78" cy="94.96" r="1.53"/><circle class="cls-4" cx="51.18" cy="120.8" r="2.56"/><circle class="cls-4" cx="22.42" cy="48.57" r="2.27"/><circle class="cls-1" cx="81.12" cy="102.25" r="2.82"/><circle class="cls-1" cx="60.77" cy="40.54" r="2.82"/><circle class="cls-1" cx="102.43" cy="61.11" r="2.82"/><circle class="cls-1" cx="40.67" cy="82.79" r="2.82"/><circle class="cls-1" cx="103.83" cy="83.49" r="2.82"/><circle class="cls-1" cx="39.2" cy="59.88" r="2.43"/><circle class="cls-1" cx="82.79" cy="38.48" r="2.43"/><circle class="cls-1" cx="59.29" cy="103.07" r="2.43"/><circle class="cls-1" cx="64.46" cy="106.73" r="2.13"/><circle class="cls-1" cx="77.45" cy="35.63" r="2.13"/></svg>