<svg id="Layer_1" data-name="Layer 1" xmlns="http://www.w3.org/2000/svg" viewBox="0 0 106.39 106.39"><defs><style>.cls-1{fill:#56268f;}.cls-2{fill:#5d34bf;}.cls-3{fill:#f9f8de;}</style></defs><path class="cls-1" d="M85.72,18a2.69,2.69,0,0,1-3.34.64,1.52,1.52,0,0,1,.27-1.14,1.67,1.67,0,0,1,1.78-.67,1.75,1.75,0,0,1,.61.27l.15.11A1.73,1.73,0,0,1,85.72,18Z"/><path class="cls-1" d="M85,20.59a2.67,2.67,0,0,1-1-1.92,2.61,2.61,0,0,1,.32-1.42,1.56,1.56,0,0,1,1.14.27,1.68,1.68,0,0,1,.67,1.79,1.71,1.71,0,0,1-.27.6c0,.05-.07.11-.11.15A1.66,1.66,0,0,1,85,20.59Z"/><path class="cls-1" d="M82.36,19.88a2.64,2.64,0,0,1,1.92-1,2.61,2.61,0,0,1,1.42.31,1.6,1.6,0,0,1-.27,1.15,1.67,1.67,0,0,1-1.79.66,1.71,1.71,0,0,1-.6-.27.58.58,0,0,1-.15-.11A1.68,1.68,0,0,1,82.36,19.88Z"/><path class="cls-1" d="M83.07,17.23a2.66,2.66,0,0,1,1,1.92,2.61,2.61,0,0,1-.31,1.42,1.6,1.6,0,0,1-1.15-.27,1.67,1.67,0,0,1-.66-1.79,1.79,1.79,0,0,1,.27-.6l.11-.15A1.76,1.76,0,0,1,83.07,17.23Z"/><path class="cls-1" d="M85.72,18a2.69,2.69,0,0,1-3.34.64,1.52,1.52,0,0,1,.27-1.14,1.67,1.67,0,0,1,1.78-.67,1.75,1.75,0,0,1,.61.27l.15.11A1.73,1.73,0,0,1,85.72,18Z"/><ellipse class="cls-1" cx="85.22" cy="16.13" rx="1.03" ry="1.06" transform="translate(23.54 77.1) rotate(-55.39)"/><ellipse class="cls-1" cx="86.25" cy="17.17" rx="1.06" ry="1.03" transform="translate(23.13 78.4) rotate(-55.39)"/><ellipse class="cls-1" cx="85.22" cy="18.2" rx="1.03" ry="1.06" transform="translate(21.83 78) rotate(-55.39)"/><ellipse class="cls-1" cx="84.18" cy="17.17" rx="1.06" ry="1.03" transform="translate(22.23 76.69) rotate(-55.39)"/><ellipse class="cls-1" cx="85.22" cy="16.13" rx="1.03" ry="1.06" transform="translate(23.54 77.1) rotate(-55.39)"/><path class="cls-2" d="M46.54,13.85a3.27,3.27,0,0,1-2.91,3.42l-.19,0a3.28,3.28,0,0,1-1.81-.43,6.41,6.41,0,0,1-1.26,2.72s0,.05-.06.08a6.43,6.43,0,0,1-3.69,2.25,4.85,4.85,0,0,1-.55.09,3.78,3.78,0,0,1-.13.84h0c0,.13-.09.26-.14.38a3.45,3.45,0,0,1-3,2.11,3,3,0,0,1-1-.1,3.23,3.23,0,0,1-.68-.24h0a3.4,3.4,0,0,1-1.35-1.15,6.27,6.27,0,0,1-2.83,1.06,3.3,3.3,0,0,1,.26.93,1.91,1.91,0,0,1-.38,3.75,2,2,0,0,1-1.21-.37,4.6,4.6,0,0,1-.63.31c-.12,0-.24.09-.37.12a2.9,2.9,0,0,1-.59.09,3.42,3.42,0,0,1-3.38-2.23,3.13,3.13,0,0,1-.2-1,3.36,3.36,0,0,1,1.7-3.1,6.2,6.2,0,0,1,7.1-10.08A6.46,6.46,0,0,1,40.7,12a3.23,3.23,0,0,1,2.39-1.27A3.28,3.28,0,0,1,46.54,13.85Z"/><circle class="cls-2" cx="42.67" cy="21.35" r="1.64"/><path class="cls-2" d="M42.79,10.07A4.57,4.57,0,0,0,46.35,8a2.92,2.92,0,1,0,.72-3,4.56,4.56,0,1,0-4.28,5.07Z"/><path class="cls-2" d="M80.3,17.74a5.51,5.51,0,0,1-.1,1.35,5.41,5.41,0,0,1-3.48,4l-.37.11a4.93,4.93,0,0,1-1.16.19,4.88,4.88,0,0,1-1.27-.08q-.3-.06-.6-.15A2.41,2.41,0,0,1,72.9,23a5.34,5.34,0,0,1-.8-.38,3.19,3.19,0,0,1-1,2.16,3.27,3.27,0,0,1-5.52-2.2,3.2,3.2,0,0,1,.16-1.16,6.36,6.36,0,0,1-1.09.15H64.6a7.18,7.18,0,0,1-2-.18,7,7,0,0,1-2.32-.93.21.21,0,0,1-.1-.06,7.88,7.88,0,0,1-2.56-2.64,5.44,5.44,0,0,1-2.76,2.71,6,6,0,0,1-.75.25A5.42,5.42,0,0,1,53,20.9h-.5a5.89,5.89,0,0,1-1.33-.24,3.68,3.68,0,0,1-.16.54,3.26,3.26,0,1,1-3.53-4.43,6.44,6.44,0,0,1-.15-1A5.38,5.38,0,0,1,56.81,12a7.6,7.6,0,0,1,3.63-4.71,2.39,2.39,0,1,1,4.27-1.58,2.32,2.32,0,0,1-.06.59,7.64,7.64,0,0,1,7.19,7.23.13.13,0,0,1,0,.06,5.25,5.25,0,0,1,2.79-1A5.4,5.4,0,0,1,80.3,17.74Z"/><path class="cls-2" d="M86.35,16.07A2.65,2.65,0,0,1,85.72,18a2.7,2.7,0,1,1,.63-1.88Z"/><path class="cls-2" d="M75.24,24.33a2.14,2.14,0,1,0,2.25,2A2.14,2.14,0,0,0,75.24,24.33Z"/><circle class="cls-2" cx="80.51" cy="11.71" r="1.22"/><path class="cls-2" d="M34.92,8.48A1.74,1.74,0,1,0,33.1,6.83,1.74,1.74,0,0,0,34.92,8.48Z"/><path class="cls-2" d="M40.16,22.87a1.05,1.05,0,0,1-1,1.1,1.05,1.05,0,1,1-.11-2.1A1.05,1.05,0,0,1,40.16,22.87Z"/><path class="cls-1" d="M31.12,25h0a3.4,3.4,0,0,1-1.35-1.15,6.27,6.27,0,0,1-2.83,1.06,3.3,3.3,0,0,1,.26.93,1.91,1.91,0,0,1-.38,3.75,2,2,0,0,1-1.21-.37,4.6,4.6,0,0,1-.63.31c-.12,0-.24.09-.37.12a4.32,4.32,0,0,1-1.5-2.85,2.06,2.06,0,0,1,0-.26,4.41,4.41,0,0,1,4.18-4.65,4.54,4.54,0,0,1,1,.05h0a3.45,3.45,0,0,1,.46.12h0a4.27,4.27,0,0,1,1.94,1.15,4.39,4.39,0,0,1,1.14,2A3.23,3.23,0,0,1,31.12,25Z"/><circle class="cls-1" cx="29.05" cy="19.54" r="2.52"/><path class="cls-1" d="M40.16,22.87a1.05,1.05,0,0,1-1,1.1,1.05,1.05,0,1,1-.11-2.1A1.05,1.05,0,0,1,40.16,22.87Z"/><path class="cls-1" d="M40.37,19.58s0,.05-.06.08a6.43,6.43,0,0,1-3.69,2.25,4.85,4.85,0,0,1-.55.09,3.78,3.78,0,0,1-.13.84,6.72,6.72,0,0,1-.1-.8,6.42,6.42,0,0,1,0-1.08c.18-1.57.92-2.8,1.91-3.08a1.51,1.51,0,0,1,.36-.06,1.7,1.7,0,0,1,.51.05h0A3,3,0,0,1,40.37,19.58Z"/><path class="cls-1" d="M25,29.1a3,3,0,0,1,0,.42c-.12,0-.24.09-.37.12a2.9,2.9,0,0,1-.59.09,3.42,3.42,0,0,1-3.38-2.23,2.53,2.53,0,0,1,1.7-.78,2.83,2.83,0,0,1,.77.07A2.55,2.55,0,0,1,25,29.1Z"/><path class="cls-1" d="M43.64,17.13a.66.66,0,0,1,0,.14l-.19,0a3.28,3.28,0,0,1-1.81-.43,6.41,6.41,0,0,1-1.26,2.72s0,.05-.06.08a2.49,2.49,0,0,1-1.64-1.79h0a3.54,3.54,0,0,1-.07-.47,2.53,2.53,0,0,1,5-.27Z"/><path class="cls-1" d="M52.51,20.91a5.89,5.89,0,0,1-1.33-.24,3.68,3.68,0,0,1-.16.54,3.27,3.27,0,0,1-4.66,1.62,3.41,3.41,0,0,1-.19-1,3.22,3.22,0,0,1,6.34-1Z"/><path class="cls-1" d="M55.67,18.14a3.26,3.26,0,0,1-.84,2.35,6,6,0,0,1-.75.25A5.42,5.42,0,0,1,53,20.9h-.5a5.89,5.89,0,0,1-1.33-.24,3.68,3.68,0,0,1-.16.54,3.23,3.23,0,1,1,4.35-4.27A3.47,3.47,0,0,1,55.67,18.14Z"/><path class="cls-1" d="M73.07,21.36A5.3,5.3,0,0,1,72.9,23a5.34,5.34,0,0,1-.8-.38,3.19,3.19,0,0,1-1,2.16,3.27,3.27,0,0,1-5.52-2.2,3.2,3.2,0,0,1,.16-1.16,6.36,6.36,0,0,1-1.09.15H64.6a7.18,7.18,0,0,1-2-.18,5.26,5.26,0,0,1,10.5-.05Z"/><circle class="cls-1" cx="61.35" cy="14.68" r="2.08"/><circle class="cls-1" cx="68.52" cy="15.82" r="1.61"/><circle class="cls-1" cx="66.94" cy="10.55" r="1.3"/><path class="cls-1" d="M80.2,19.09a5.41,5.41,0,0,1-3.48,4,.16.16,0,0,1-.08-.06,2.57,2.57,0,0,1-.86-1.79,2.61,2.61,0,0,1,1.52-2.49,2.85,2.85,0,0,1,1-.26A2.74,2.74,0,0,1,80.2,19.09Z"/><ellipse class="cls-1" cx="76.94" cy="15.94" rx="1.36" ry="1.31" transform="translate(-0.73 4.06) rotate(-3.01)"/><path class="cls-1" d="M60.35,19.49a3,3,0,0,1-.1,1,.21.21,0,0,1-.1-.06,7.88,7.88,0,0,1-2.56-2.64,5.44,5.44,0,0,1-2.76,2.71,6,6,0,0,1-.75.25,3.86,3.86,0,0,1-.18-.91,3.25,3.25,0,0,1,1.47-2.89A3.29,3.29,0,0,1,57,16.43a3.22,3.22,0,0,1,3.38,2.94A.49.49,0,0,1,60.35,19.49Z"/><path class="cls-1" d="M65,20.18a2.54,2.54,0,0,1-.35,1.4H64.6a7.51,7.51,0,0,1-4.35-1.11.21.21,0,0,1-.1-.06,2.29,2.29,0,0,1,.19-1.05,2.43,2.43,0,0,1,4.67.81Z"/><path class="cls-1" d="M77.91,20.42A3.06,3.06,0,0,1,76.64,23a1.58,1.58,0,0,1-.29.17,4.93,4.93,0,0,1-1.16.19,4.88,4.88,0,0,1-1.27-.08q-.3-.06-.6-.15a3,3,0,0,1-1.41-2.08c0-.12,0-.23,0-.35a3,3,0,0,1,5.44-2A3.08,3.08,0,0,1,77.91,20.42Z"/><path class="cls-1" d="M73.94,23a1.14,1.14,0,0,1,0,.37q-.3-.06-.6-.15a5.75,5.75,0,0,1-1.22-.54,3.19,3.19,0,0,1-1,2.16A1.93,1.93,0,0,1,70,23.15a2,2,0,0,1,1.84-2.06h0A2,2,0,0,1,73.94,23Z"/><circle class="cls-1" cx="69.85" cy="19.64" r="1.21"/><circle class="cls-1" cx="67.57" cy="22.48" r="1.21"/><circle class="cls-1" cx="56.02" cy="14.22" r="1.58"/><circle class="cls-1" cx="41.32" cy="7.57" r="1.58"/><circle class="cls-1" cx="46.85" cy="19.76" r="1.58"/><circle class="cls-1" cx="49.06" cy="15.25" r="1.21"/><circle class="cls-1" cx="44.28" cy="6.25" r="0.93"/><path class="cls-1" d="M36.62,21.91a4.85,4.85,0,0,1-.55.09,3.78,3.78,0,0,1-.13.84h0c0,.13-.09.26-.14.38a3.45,3.45,0,0,1-3,2.11,3,3,0,0,1-1-.1,3.23,3.23,0,0,1-.68-.24h0a3.12,3.12,0,0,1-.47-1.48,1.61,1.61,0,0,1,0-.31,3.15,3.15,0,0,1,1.75-2.69,3,3,0,0,1,1.23-.32,3.15,3.15,0,0,1,3,1.72Z"/><circle class="cls-1" cx="33.78" cy="16.97" r="1.58"/><circle class="cls-1" cx="22.53" cy="19.92" r="1.39"/><path class="cls-1" d="M38.69,19.92a3.1,3.1,0,0,1-.21,1.29,6.32,6.32,0,0,1-1.86.7,4.85,4.85,0,0,1-.55.09,3.78,3.78,0,0,1-.13.84h0c0,.13-.09.26-.14.38l-.1,0a3.17,3.17,0,0,1-3.29-2.74.66.66,0,0,1,0-.25,3.1,3.1,0,0,1,.55-2,3.19,3.19,0,0,1,2.44-1.36,3.17,3.17,0,0,1,3.32,3Z"/><circle class="cls-1" cx="25.39" cy="22.31" r="1.26"/><circle class="cls-1" cx="36.93" cy="13.64" r="1"/><circle class="cls-3" cx="41.09" cy="3.13" r="1.26"/><circle class="cls-3" cx="43.16" cy="12.46" r="1.01"/><circle class="cls-3" cx="35.46" cy="11.36" r="1.36"/><circle class="cls-3" cx="31.85" cy="12.77" r="0.76"/><circle class="cls-3" cx="51.87" cy="18.29" r="0.76"/><circle class="cls-3" cx="63.64" cy="18.61" r="1.26"/><circle class="cls-3" cx="28.59" cy="21.72" r="1.26"/><circle class="cls-3" cx="63.44" cy="8.58" r="0.95"/><circle class="cls-3" cx="66.18" cy="8.11" r="0.63"/><circle class="cls-3" cx="43.29" cy="4.91" r="0.63"/><path class="cls-2" d="M92.54,46.54a3.27,3.27,0,0,1-3.42-2.91,1.11,1.11,0,0,1,0-.19,3.29,3.29,0,0,1,.44-1.81,6.3,6.3,0,0,1-2.72-1.26.47.47,0,0,0-.09-.06,6.31,6.31,0,0,1-1.54-1.83,5.81,5.81,0,0,1-.7-1.86,3.33,3.33,0,0,1-.1-.55,3.78,3.78,0,0,1-.84-.13h0l-.38-.14a3.45,3.45,0,0,1-2.11-3,3.27,3.27,0,0,1,.1-1,3.91,3.91,0,0,1,.24-.68h0a3.48,3.48,0,0,1,1.15-1.35,6.14,6.14,0,0,1-1-2.83,3.36,3.36,0,0,1-.94.26,1.91,1.91,0,0,1-3.75-.38,2,2,0,0,1,.37-1.21,3.64,3.64,0,0,1-.3-.63,1.6,1.6,0,0,1-.12-.37,2.9,2.9,0,0,1-.09-.59,3.42,3.42,0,0,1,2.22-3.38,3.18,3.18,0,0,1,1-.2A3.38,3.38,0,0,1,83,22.14a6.12,6.12,0,0,1,4.31-2.09,6.19,6.19,0,0,1,5.76,9.19A6.46,6.46,0,0,1,94.36,40.7a3.23,3.23,0,0,1,1.27,2.39A3.27,3.27,0,0,1,92.54,46.54Z"/><circle class="cls-2" cx="85.04" cy="42.67" r="1.64"/><path class="cls-2" d="M96.32,42.79a4.57,4.57,0,0,0,2.05,3.56A2.92,2.92,0,1,0,102.22,49a2.87,2.87,0,0,0-.83-1.89,4.56,4.56,0,1,0-5.07-4.28Z"/><path class="cls-2" d="M88.65,80.3a5.4,5.4,0,0,1-5.36-3.58c0-.12-.08-.25-.11-.37A4.93,4.93,0,0,1,83,75.19a4.88,4.88,0,0,1,.08-1.27q.06-.3.15-.6a2.41,2.41,0,0,1,.16-.42,4.56,4.56,0,0,1,.39-.8,3.19,3.19,0,0,1-2.17-1A3.25,3.25,0,0,1,80.7,69a3.28,3.28,0,0,1,3.11-3.44,3.17,3.17,0,0,1,1.15.16,7.53,7.53,0,0,1-.15-1.09V64.6a7.18,7.18,0,0,1,.18-2,7,7,0,0,1,.93-2.32.33.33,0,0,1,.06-.1,7.88,7.88,0,0,1,2.64-2.56,5.44,5.44,0,0,1-2.71-2.76,6,6,0,0,1-.25-.75A6.27,6.27,0,0,1,85.49,53c0-.17,0-.34,0-.5a5.89,5.89,0,0,1,.24-1.33,3.68,3.68,0,0,1-.54-.16,3.25,3.25,0,0,1-1.61-4.66,3.25,3.25,0,0,1,6,1.13,6.44,6.44,0,0,1,1-.15,5.38,5.38,0,0,1,3.78,9.47,7.64,7.64,0,0,1,4.72,3.63,2.35,2.35,0,0,1,1.32-.5,2.39,2.39,0,1,1,.25,4.77,2.32,2.32,0,0,1-.59-.06,7.64,7.64,0,0,1-7.23,7.19h-.06a5.25,5.25,0,0,1,1,2.79A5.4,5.4,0,0,1,88.65,80.3Z"/><path class="cls-2" d="M90.32,86.35a2.61,2.61,0,0,1-1.87-.63,2.7,2.7,0,1,1,1.87.63Z"/><path class="cls-2" d="M82.06,75.24a2.14,2.14,0,1,0-2,2.25A2.14,2.14,0,0,0,82.06,75.24Z"/><circle class="cls-2" cx="94.68" cy="80.51" r="1.22"/><path class="cls-2" d="M97.92,34.92a1.73,1.73,0,1,0,1.64-1.82A1.73,1.73,0,0,0,97.92,34.92Z"/><path class="cls-2" d="M83.52,40.16a1.06,1.06,0,1,1,1-1.11A1.05,1.05,0,0,1,83.52,40.16Z"/><path class="cls-1" d="M81.39,31.12h0a3.48,3.48,0,0,1,1.15-1.35,6.14,6.14,0,0,1-1-2.83,3.36,3.36,0,0,1-.94.26,1.91,1.91,0,0,1-3.75-.38,2,2,0,0,1,.37-1.21,3.64,3.64,0,0,1-.3-.63,1.6,1.6,0,0,1-.12-.37,4.3,4.3,0,0,1,2.84-1.5,2.06,2.06,0,0,1,.26,0,4.43,4.43,0,0,1,4.66,4.18,5.27,5.27,0,0,1-.06,1h0a2.39,2.39,0,0,1-.12.46h0a4.18,4.18,0,0,1-1.15,1.94,4.39,4.39,0,0,1-2,1.14A3.91,3.91,0,0,1,81.39,31.12Z"/><circle class="cls-1" cx="86.85" cy="29.05" r="2.52"/><path class="cls-1" d="M83.52,40.16a1.06,1.06,0,1,1,1-1.11A1.05,1.05,0,0,1,83.52,40.16Z"/><path class="cls-1" d="M86.82,40.37a.47.47,0,0,0-.09-.06,6.31,6.31,0,0,1-1.54-1.83,5.81,5.81,0,0,1-.7-1.86,3.33,3.33,0,0,1-.1-.55,3.78,3.78,0,0,1-.84-.13,6.89,6.89,0,0,1,.81-.1,6.27,6.27,0,0,1,1.07,0c1.57.18,2.8.92,3.08,1.91a1.13,1.13,0,0,1,.06.36,1.7,1.7,0,0,1,0,.51h0A2.94,2.94,0,0,1,86.82,40.37Z"/><path class="cls-1" d="M77.29,25a2.77,2.77,0,0,1-.41,0,1.6,1.6,0,0,1-.12-.37,2.9,2.9,0,0,1-.09-.59,3.42,3.42,0,0,1,2.22-3.38,2.58,2.58,0,0,1,.71,2.47A2.53,2.53,0,0,1,77.29,25Z"/><path class="cls-1" d="M89.26,43.64h-.14a1.11,1.11,0,0,1,0-.19,3.29,3.29,0,0,1,.44-1.81,6.3,6.3,0,0,1-2.72-1.26.47.47,0,0,0-.09-.06,2.49,2.49,0,0,1,1.79-1.64h0a3.7,3.7,0,0,1,.48-.07,2.53,2.53,0,0,1,.26,5Z"/><path class="cls-1" d="M85.48,52.51a5.89,5.89,0,0,1,.24-1.33,3.68,3.68,0,0,1-.54-.16,3.25,3.25,0,0,1-1.61-4.66,3.27,3.27,0,0,1,1-.19,3.22,3.22,0,0,1,1,6.34Z"/><path class="cls-1" d="M88.25,55.67a3.26,3.26,0,0,1-2.35-.84,6,6,0,0,1-.25-.75A6.27,6.27,0,0,1,85.49,53c0-.17,0-.34,0-.5a5.89,5.89,0,0,1,.24-1.33,3.68,3.68,0,0,1-.54-.16,3.23,3.23,0,1,1,4.27,4.35A3.42,3.42,0,0,1,88.25,55.67Z"/><path class="cls-1" d="M85,73.07a5.33,5.33,0,0,1-1.65-.17,4.56,4.56,0,0,1,.39-.8,3.19,3.19,0,0,1-2.17-1A3.25,3.25,0,0,1,80.7,69a3.28,3.28,0,0,1,3.11-3.44,3.17,3.17,0,0,1,1.15.16,7.53,7.53,0,0,1-.15-1.09V64.6a7.18,7.18,0,0,1,.18-2,5.25,5.25,0,0,1,2,10A5.33,5.33,0,0,1,85,73.07Z"/><circle class="cls-1" cx="91.71" cy="61.35" r="2.08"/><circle class="cls-1" cx="90.57" cy="68.52" r="1.61"/><circle class="cls-1" cx="95.84" cy="66.94" r="1.3"/><path class="cls-1" d="M87.31,80.2a5.41,5.41,0,0,1-4-3.48.24.24,0,0,1,.06-.08,2.57,2.57,0,0,1,1.79-.86,2.61,2.61,0,0,1,2.49,1.52,2.85,2.85,0,0,1,.26,1A2.74,2.74,0,0,1,87.31,80.2Z"/><ellipse class="cls-1" cx="90.45" cy="76.94" rx="1.31" ry="1.36" transform="translate(-3.91 4.85) rotate(-3.01)"/><path class="cls-1" d="M86.9,60.35a3,3,0,0,1-1-.1.33.33,0,0,1,.06-.1,7.88,7.88,0,0,1,2.64-2.56,5.44,5.44,0,0,1-2.71-2.76,6,6,0,0,1-.25-.75,4,4,0,0,1,.92-.18,3.25,3.25,0,0,1,2.88,1.47A3.29,3.29,0,0,1,90,57,3.22,3.22,0,0,1,87,60.34Z"/><path class="cls-1" d="M86.21,65a2.54,2.54,0,0,1-1.4-.35V64.6a7.51,7.51,0,0,1,1.11-4.35.33.33,0,0,1,.06-.1,2.26,2.26,0,0,1,1,.19A2.43,2.43,0,0,1,86.21,65Z"/><path class="cls-1" d="M86,77.91a3.07,3.07,0,0,1-2.62-1.27,1.58,1.58,0,0,1-.17-.29A4.93,4.93,0,0,1,83,75.19a4.88,4.88,0,0,1,.08-1.27q.06-.3.15-.6a3,3,0,0,1,2.08-1.41l.36,0a3,3,0,0,1,2,5.44A3.08,3.08,0,0,1,86,77.91Z"/><path class="cls-1" d="M83.44,73.94a1.14,1.14,0,0,1-.37,0q.06-.3.15-.6a5.79,5.79,0,0,1,.55-1.22,3.19,3.19,0,0,1-2.17-1A1.93,1.93,0,0,1,83.24,70a2,2,0,0,1,2.06,1.84v0A2,2,0,0,1,83.44,73.94Z"/><circle class="cls-1" cx="86.76" cy="69.85" r="1.21"/><circle class="cls-1" cx="83.91" cy="67.57" r="1.21"/><circle class="cls-1" cx="92.17" cy="56.02" r="1.58"/><circle class="cls-1" cx="98.82" cy="41.32" r="1.58"/><circle class="cls-1" cx="86.63" cy="46.85" r="1.58"/><circle class="cls-1" cx="91.14" cy="49.06" r="1.21"/><circle class="cls-1" cx="100.14" cy="44.28" r="0.93"/><path class="cls-1" d="M84.49,36.62a3.33,3.33,0,0,1-.1-.55,3.78,3.78,0,0,1-.84-.13h0l-.38-.14a3.45,3.45,0,0,1-2.11-3,3.27,3.27,0,0,1,.1-1,3.91,3.91,0,0,1,.24-.68h0a3.12,3.12,0,0,1,1.48-.47,1.61,1.61,0,0,1,.31,0,3.14,3.14,0,0,1,2.69,1.75,3,3,0,0,1,.32,1.23,3.1,3.1,0,0,1-.77,2.24A3.21,3.21,0,0,1,84.49,36.62Z"/><circle class="cls-1" cx="89.42" cy="33.78" r="1.58"/><circle class="cls-1" cx="86.48" cy="22.53" r="1.39"/><path class="cls-1" d="M86.47,38.69a3,3,0,0,1-1.28-.21,5.81,5.81,0,0,1-.7-1.86,3.33,3.33,0,0,1-.1-.55,3.78,3.78,0,0,1-.84-.13h0l-.38-.14a.34.34,0,0,1,0-.1,3.15,3.15,0,0,1,2.73-3.29.74.74,0,0,1,.26,0,3.07,3.07,0,0,1,2,.55,3.19,3.19,0,0,1,1.36,2.44,3.17,3.17,0,0,1-3,3.32Z"/><circle class="cls-1" cx="84.08" cy="25.39" r="1.26"/><circle class="cls-1" cx="92.75" cy="36.93" r="1"/><circle class="cls-3" cx="103.26" cy="41.09" r="1.26"/><circle class="cls-3" cx="93.93" cy="43.16" r="1.01"/><circle class="cls-3" cx="95.04" cy="35.46" r="1.36"/><circle class="cls-3" cx="93.62" cy="31.85" r="0.76"/><circle class="cls-3" cx="88.1" cy="51.87" r="0.76"/><circle class="cls-3" cx="87.78" cy="63.64" r="1.26"/><circle class="cls-3" cx="84.67" cy="28.59" r="1.26"/><circle class="cls-3" cx="97.81" cy="63.44" r="0.95"/><circle class="cls-3" cx="98.28" cy="66.18" r="0.63"/><circle class="cls-3" cx="101.48" cy="43.29" r="0.63"/><path class="cls-2" d="M59.85,92.54a3.27,3.27,0,0,1,2.91-3.42l.2,0a3.24,3.24,0,0,1,1.8.44A6.3,6.3,0,0,1,66,86.82l.07-.09a6.15,6.15,0,0,1,1.82-1.54,5.81,5.81,0,0,1,1.86-.7,3.33,3.33,0,0,1,.55-.1,3.28,3.28,0,0,1,.14-.84h0a2.46,2.46,0,0,1,.14-.38,3.42,3.42,0,0,1,3-2.11,3.37,3.37,0,0,1,1,.1,4.12,4.12,0,0,1,.67.24h0a3.41,3.41,0,0,1,1.35,1.15,6.19,6.19,0,0,1,2.83-1,3.36,3.36,0,0,1-.26-.94,1.91,1.91,0,0,1,.39-3.75,2,2,0,0,1,1.21.37,3.23,3.23,0,0,1,.62-.3,1.68,1.68,0,0,1,.38-.12,2.7,2.7,0,0,1,.58-.09,3.42,3.42,0,0,1,3.38,2.22,3.5,3.5,0,0,1,.21,1A3.38,3.38,0,0,1,84.26,83a6.2,6.2,0,0,1-7.11,10.07A6.46,6.46,0,0,1,65.7,94.36a3.27,3.27,0,0,1-5.85-1.82Z"/><circle class="cls-2" cx="63.72" cy="85.04" r="1.64"/><path class="cls-2" d="M63.61,96.32A4.59,4.59,0,0,0,60,98.37a2.92,2.92,0,1,0-2.6,3.85,2.86,2.86,0,0,0,1.88-.83,4.56,4.56,0,1,0,4.29-5.07Z"/><path class="cls-2" d="M26.09,88.65a5.4,5.4,0,0,1,3.59-5.36l.36-.11A5,5,0,0,1,31.2,83a4.88,4.88,0,0,1,1.27.08q.3.06.6.15a2.85,2.85,0,0,1,.43.16,4.83,4.83,0,0,1,.79.39,3.16,3.16,0,0,1,1-2.17,3.2,3.2,0,0,1,2.07-.9,3.28,3.28,0,0,1,3.44,3.11A3.17,3.17,0,0,1,40.64,85a7.73,7.73,0,0,1,1.09-.15h.06a7.83,7.83,0,0,1,4.36,1.11.47.47,0,0,1,.09.06,7.79,7.79,0,0,1,2.56,2.64,5.44,5.44,0,0,1,2.76-2.71,6,6,0,0,1,.75-.25,6.27,6.27,0,0,1,1.07-.16h.5a5.79,5.79,0,0,1,1.33.24,3.68,3.68,0,0,1,.16-.54,3.28,3.28,0,0,1,2.86-2.05,3.26,3.26,0,0,1,.67,6.48,6.44,6.44,0,0,1,.15,1,5.38,5.38,0,0,1-9.47,3.78A7.63,7.63,0,0,1,46,99.09a2.42,2.42,0,0,1,.49,1.32,2.39,2.39,0,1,1-4.77.25,2.32,2.32,0,0,1,.06-.59,7.65,7.65,0,0,1-7.19-7.23.13.13,0,0,1,0-.06,5.22,5.22,0,0,1-2.79,1A5.4,5.4,0,0,1,26.09,88.65Z"/><path class="cls-2" d="M20,90.32a2.61,2.61,0,0,1,.63-1.87,2.73,2.73,0,0,1,1.93-1A2.71,2.71,0,0,1,25.43,90a2.7,2.7,0,1,1-5.39.28Z"/><path class="cls-2" d="M31.15,82.06a2.14,2.14,0,1,0-2.24-2A2.14,2.14,0,0,0,31.15,82.06Z"/><circle class="cls-2" cx="25.88" cy="94.68" r="1.22"/><path class="cls-2" d="M71.47,97.92a1.73,1.73,0,1,0,1.82,1.64A1.73,1.73,0,0,0,71.47,97.92Z"/><path class="cls-2" d="M66.23,83.52a1.06,1.06,0,1,1,1.11,1A1.05,1.05,0,0,1,66.23,83.52Z"/><path class="cls-1" d="M75.27,81.39h0a3.41,3.41,0,0,1,1.35,1.15,6.19,6.19,0,0,1,2.83-1,3.36,3.36,0,0,1-.26-.94,1.91,1.91,0,0,1,.39-3.75,2,2,0,0,1,1.21.37,3.23,3.23,0,0,1,.62-.3,1.68,1.68,0,0,1,.38-.12,4.34,4.34,0,0,1,1.5,2.84,2.11,2.11,0,0,1,0,.26,4.42,4.42,0,0,1-4.18,4.66,5.27,5.27,0,0,1-1-.06h0a2.39,2.39,0,0,1-.46-.12h0a4.23,4.23,0,0,1-1.94-1.15,4.28,4.28,0,0,1-1.13-2A4.12,4.12,0,0,1,75.27,81.39Z"/><circle class="cls-1" cx="77.34" cy="86.85" r="2.52"/><path class="cls-1" d="M66.23,83.52a1.06,1.06,0,1,1,1.11,1A1.05,1.05,0,0,1,66.23,83.52Z"/><path class="cls-1" d="M66,86.82l.07-.09a6.15,6.15,0,0,1,1.82-1.54,5.81,5.81,0,0,1,1.86-.7,3.33,3.33,0,0,1,.55-.1,3.28,3.28,0,0,1,.14-.84q.06.39.09.81a5.39,5.39,0,0,1,0,1.07c-.17,1.57-.92,2.8-1.91,3.08a1,1,0,0,1-.35.06,1.8,1.8,0,0,1-.52,0h0A2.94,2.94,0,0,1,66,86.82Z"/><path class="cls-1" d="M81.4,77.29c0-.14,0-.28,0-.41a1.68,1.68,0,0,1,.38-.12,2.7,2.7,0,0,1,.58-.09,3.42,3.42,0,0,1,3.38,2.22,2.47,2.47,0,0,1-1.7.78,2.4,2.4,0,0,1-.76-.07A2.52,2.52,0,0,1,81.4,77.29Z"/><path class="cls-1" d="M62.75,89.26a.66.66,0,0,1,0-.14l.2,0a3.24,3.24,0,0,1,1.8.44A6.3,6.3,0,0,1,66,86.82l.07-.09a2.5,2.5,0,0,1,1.63,1.79h0a3.7,3.7,0,0,1,.07.48,2.53,2.53,0,0,1-5,.26Z"/><path class="cls-1" d="M53.88,85.48a5.79,5.79,0,0,1,1.33.24,3.68,3.68,0,0,1,.16-.54,3.28,3.28,0,0,1,2.86-2.05,3.24,3.24,0,0,1,1.8.44,3,3,0,0,1,.19,1,3.22,3.22,0,0,1-6.34,1Z"/><path class="cls-1" d="M50.73,88.25a3.21,3.21,0,0,1,.83-2.35,6,6,0,0,1,.75-.25,6.27,6.27,0,0,1,1.07-.16h.5a5.79,5.79,0,0,1,1.33.24,3.68,3.68,0,0,1,.16-.54A3.23,3.23,0,1,1,51,89.45,3.21,3.21,0,0,1,50.73,88.25Z"/><path class="cls-1" d="M33.32,85a5,5,0,0,1,.18-1.65,4.83,4.83,0,0,1,.79.39,3.16,3.16,0,0,1,1-2.17,3.2,3.2,0,0,1,2.07-.9,3.28,3.28,0,0,1,3.44,3.11A3.17,3.17,0,0,1,40.64,85a7.73,7.73,0,0,1,1.09-.15h.06a7.18,7.18,0,0,1,2,.18,5.25,5.25,0,0,1-10,2A5.15,5.15,0,0,1,33.32,85Z"/><circle class="cls-1" cx="45.04" cy="91.71" r="2.08"/><circle class="cls-1" cx="37.87" cy="90.57" r="1.61"/><circle class="cls-1" cx="39.45" cy="95.84" r="1.3"/><path class="cls-1" d="M26.19,87.31a5.44,5.44,0,0,1,3.49-4s.05,0,.07.06a2.53,2.53,0,0,1,.86,1.79,2.61,2.61,0,0,1-1.52,2.49,2.85,2.85,0,0,1-1,.26A2.76,2.76,0,0,1,26.19,87.31Z"/><ellipse class="cls-1" cx="29.45" cy="90.45" rx="1.36" ry="1.31" transform="translate(-4.7 1.67) rotate(-3.01)"/><path class="cls-1" d="M46,86.9a2.72,2.72,0,0,1,.11-1,.47.47,0,0,1,.09.06,7.79,7.79,0,0,1,2.56,2.64,5.44,5.44,0,0,1,2.76-2.71,6,6,0,0,1,.75-.25,3.49,3.49,0,0,1,.18.92A3.25,3.25,0,0,1,51,89.45a3.29,3.29,0,0,1-1.59.51A3.23,3.23,0,0,1,46.05,87,.49.49,0,0,1,46,86.9Z"/><path class="cls-1" d="M41.39,86.21a2.45,2.45,0,0,1,.34-1.4h.06a7.56,7.56,0,0,1,4.36,1.11.47.47,0,0,1,.09.06,2.26,2.26,0,0,1-.19,1,2.42,2.42,0,0,1-4.66-.81Z"/><path class="cls-1" d="M28.49,86a3,3,0,0,1,1.26-2.62,2,2,0,0,1,.29-.17A5,5,0,0,1,31.2,83a4.88,4.88,0,0,1,1.27.08q.3.06.6.15a3,3,0,0,1,1.41,2.08c0,.12,0,.24.05.36a3,3,0,0,1-5.44,2A3,3,0,0,1,28.49,86Z"/><path class="cls-1" d="M32.45,83.44a1.14,1.14,0,0,1,0-.37q.3.06.6.15a5.79,5.79,0,0,1,1.22.55,3.16,3.16,0,0,1,1-2.17,2,2,0,0,1-.78,3.7h0A2,2,0,0,1,32.45,83.44Z"/><circle class="cls-1" cx="36.54" cy="86.76" r="1.21"/><circle class="cls-1" cx="38.83" cy="83.91" r="1.21"/><circle class="cls-1" cx="50.38" cy="92.17" r="1.58"/><circle class="cls-1" cx="65.07" cy="98.82" r="1.58"/><circle class="cls-1" cx="59.54" cy="86.63" r="1.58"/><circle class="cls-1" cx="57.34" cy="91.14" r="1.21"/><circle class="cls-1" cx="62.12" cy="100.14" r="0.93"/><path class="cls-1" d="M69.77,84.49a3.33,3.33,0,0,1,.55-.1,3.28,3.28,0,0,1,.14-.84h0a2.46,2.46,0,0,1,.14-.38,3.42,3.42,0,0,1,3-2.11,3.37,3.37,0,0,1,1,.1,4.12,4.12,0,0,1,.67.24h0a3.12,3.12,0,0,1,.47,1.48,1.61,1.61,0,0,1,0,.31A3.12,3.12,0,0,1,74,85.88a3,3,0,0,1-1.23.32,3.1,3.1,0,0,1-2.24-.77A3.21,3.21,0,0,1,69.77,84.49Z"/><circle class="cls-1" cx="72.61" cy="89.42" r="1.58"/><circle class="cls-1" cx="83.86" cy="86.48" r="1.39"/><path class="cls-1" d="M67.71,86.47a2.88,2.88,0,0,1,.2-1.28,5.81,5.81,0,0,1,1.86-.7,3.33,3.33,0,0,1,.55-.1,3.28,3.28,0,0,1,.14-.84h0a2.46,2.46,0,0,1,.14-.38h.1A3.15,3.15,0,0,1,74,85.88a1.09,1.09,0,0,1,0,.26,3.14,3.14,0,0,1-.56,2,3.16,3.16,0,0,1-4.86.41A3.12,3.12,0,0,1,67.71,86.47Z"/><circle class="cls-1" cx="81.01" cy="84.08" r="1.26"/><circle class="cls-1" cx="69.46" cy="92.75" r="1"/><circle class="cls-3" cx="65.3" cy="103.26" r="1.26"/><circle class="cls-3" cx="63.23" cy="93.93" r="1.01"/><circle class="cls-3" cx="70.93" cy="95.04" r="1.36"/><circle class="cls-3" cx="74.54" cy="93.62" r="0.76"/><circle class="cls-3" cx="54.52" cy="88.1" r="0.76"/><circle class="cls-3" cx="42.76" cy="87.78" r="1.26"/><circle class="cls-3" cx="77.81" cy="84.67" r="1.26"/><circle class="cls-3" cx="42.95" cy="97.81" r="0.95"/><circle class="cls-3" cx="40.21" cy="98.28" r="0.63"/><circle class="cls-3" cx="63.1" cy="101.48" r="0.63"/><path class="cls-2" d="M13.85,59.85a3.27,3.27,0,0,1,3.42,2.91,1.36,1.36,0,0,1,0,.2,3.23,3.23,0,0,1-.43,1.8A6.41,6.41,0,0,1,19.58,66l.08.07a6.18,6.18,0,0,1,1.55,1.82,6.32,6.32,0,0,1,.7,1.86,4.85,4.85,0,0,1,.09.55,3.28,3.28,0,0,1,.84.14h0a2.46,2.46,0,0,1,.38.14,3.42,3.42,0,0,1,2.11,3,3.07,3.07,0,0,1-.1,1,3.36,3.36,0,0,1-.24.67h0a3.34,3.34,0,0,1-1.15,1.35,6.31,6.31,0,0,1,1.06,2.83,3.3,3.3,0,0,1,.93-.26,1.91,1.91,0,0,1,3.75.39,2,2,0,0,1-.37,1.21,4,4,0,0,1,.31.62c0,.12.09.25.12.38a2.7,2.7,0,0,1,.09.58A3.43,3.43,0,0,1,26.49,86a3.36,3.36,0,0,1-3.1-1.7,6.2,6.2,0,0,1-10.08-7.11A6.46,6.46,0,0,1,12,65.7a3.27,3.27,0,0,1,1.82-5.85Z"/><circle class="cls-2" cx="21.35" cy="63.72" r="1.64"/><path class="cls-2" d="M10.07,63.61A4.59,4.59,0,0,0,8,60a2.92,2.92,0,1,0-3-.72,4.56,4.56,0,1,0,5.07,4.29Z"/><path class="cls-2" d="M17.74,26.09a5.51,5.51,0,0,1,1.35.1,5.44,5.44,0,0,1,4,3.49c0,.11.08.24.11.36a5,5,0,0,1,.19,1.16,4.88,4.88,0,0,1-.08,1.27q-.06.3-.15.6a2.85,2.85,0,0,1-.16.43,5.74,5.74,0,0,1-.38.79,3.16,3.16,0,0,1,2.16,1,3.2,3.2,0,0,1,.9,2.07,3.28,3.28,0,0,1-3.1,3.44,3.2,3.2,0,0,1-1.16-.16,6.5,6.5,0,0,1,.15,1.09v.06a7.83,7.83,0,0,1-1.11,4.36.24.24,0,0,1-.06.09,7.79,7.79,0,0,1-2.64,2.56,5.44,5.44,0,0,1,2.71,2.76,6,6,0,0,1,.25.75,5.42,5.42,0,0,1,.16,1.07c0,.17,0,.34,0,.5a5.79,5.79,0,0,1-.24,1.33,3.68,3.68,0,0,1,.54.16,3.28,3.28,0,0,1,2.05,2.86,3.26,3.26,0,0,1-6.48.67,6.44,6.44,0,0,1-1,.15A5.38,5.38,0,0,1,12,49.58,7.58,7.58,0,0,1,7.31,46,2.48,2.48,0,0,1,6,46.45a2.39,2.39,0,1,1-.25-4.77,2.32,2.32,0,0,1,.59.06,7.65,7.65,0,0,1,7.23-7.19h.06a5.22,5.22,0,0,1-1-2.79A5.4,5.4,0,0,1,17.74,26.09Z"/><path class="cls-2" d="M16.07,20a2.65,2.65,0,0,1,1.88.63,2.72,2.72,0,0,1,1,1.93,2.71,2.71,0,0,1-2.56,2.83A2.7,2.7,0,1,1,16.07,20Z"/><path class="cls-2" d="M24.33,31.15a2.14,2.14,0,1,0,2-2.24A2.14,2.14,0,0,0,24.33,31.15Z"/><circle class="cls-2" cx="11.71" cy="25.88" r="1.22"/><path class="cls-2" d="M8.48,71.47a1.74,1.74,0,1,0-1.65,1.82A1.74,1.74,0,0,0,8.48,71.47Z"/><path class="cls-2" d="M22.87,66.23a1.06,1.06,0,1,1-1,1.11A1.05,1.05,0,0,1,22.87,66.23Z"/><path class="cls-1" d="M25,75.27h0a3.34,3.34,0,0,1-1.15,1.35,6.31,6.31,0,0,1,1.06,2.83,3.3,3.3,0,0,1,.93-.26,1.91,1.91,0,0,1,3.75.39,2,2,0,0,1-.37,1.21,4,4,0,0,1,.31.62c0,.12.09.25.12.38a4.37,4.37,0,0,1-2.85,1.5l-.26,0a4.41,4.41,0,0,1-4.65-4.18,4.54,4.54,0,0,1,.05-1h0a3.45,3.45,0,0,1,.12-.46h0a4.38,4.38,0,0,1,3.19-3.07A3.36,3.36,0,0,1,25,75.27Z"/><circle class="cls-1" cx="19.54" cy="77.34" r="2.52"/><path class="cls-1" d="M22.87,66.23a1.06,1.06,0,1,1-1,1.11A1.05,1.05,0,0,1,22.87,66.23Z"/><path class="cls-1" d="M19.58,66l.08.07a6.18,6.18,0,0,1,1.55,1.82,6.32,6.32,0,0,1,.7,1.86,4.85,4.85,0,0,1,.09.55,3.28,3.28,0,0,1,.84.14c-.26,0-.52.07-.8.09a5.52,5.52,0,0,1-1.08,0c-1.57-.17-2.8-.92-3.08-1.91a1.35,1.35,0,0,1-.06-.35,1.8,1.8,0,0,1,.05-.52h0A3,3,0,0,1,19.58,66Z"/><path class="cls-1" d="M29.1,81.4h.42c0,.12.09.25.12.38a2.7,2.7,0,0,1,.09.58,3.42,3.42,0,0,1-2.23,3.38,2.51,2.51,0,0,1-.78-1.7,2.73,2.73,0,0,1,.07-.76A2.54,2.54,0,0,1,29.1,81.4Z"/><path class="cls-1" d="M17.13,62.75h.14a1.36,1.36,0,0,1,0,.2,3.23,3.23,0,0,1-.43,1.8A6.41,6.41,0,0,1,19.58,66l.08.07a2.5,2.5,0,0,1-1.79,1.63h0a3.54,3.54,0,0,1-.47.07,2.53,2.53,0,0,1-.27-5Z"/><path class="cls-1" d="M20.91,53.88a5.79,5.79,0,0,1-.24,1.33,3.68,3.68,0,0,1,.54.16,3.28,3.28,0,0,1,2.05,2.86,3.23,3.23,0,0,1-.43,1.8,3.09,3.09,0,0,1-1,.19,3.22,3.22,0,0,1-1-6.34Z"/><path class="cls-1" d="M18.14,50.73a3.21,3.21,0,0,1,2.35.83,6,6,0,0,1,.25.75,5.42,5.42,0,0,1,.16,1.07c0,.17,0,.34,0,.5a5.79,5.79,0,0,1-.24,1.33,3.68,3.68,0,0,1,.54.16,3.24,3.24,0,1,1-3.07-4.64Z"/><path class="cls-1" d="M21.36,33.32A5,5,0,0,1,23,33.5a5.74,5.74,0,0,1-.38.79,3.16,3.16,0,0,1,2.16,1,3.2,3.2,0,0,1,.9,2.07,3.28,3.28,0,0,1-3.1,3.44,3.2,3.2,0,0,1-1.16-.16,6.5,6.5,0,0,1,.15,1.09v.06a7.18,7.18,0,0,1-.18,2,5.25,5.25,0,0,1-2-10A5,5,0,0,1,21.36,33.32Z"/><circle class="cls-1" cx="14.68" cy="45.04" r="2.08"/><circle class="cls-1" cx="15.82" cy="37.87" r="1.61"/><circle class="cls-1" cx="10.55" cy="39.45" r="1.3"/><path class="cls-1" d="M19.09,26.19a5.44,5.44,0,0,1,4,3.49.19.19,0,0,1-.06.07,2.53,2.53,0,0,1-1.79.86,2.61,2.61,0,0,1-2.49-1.52,2.85,2.85,0,0,1-.26-1A2.77,2.77,0,0,1,19.09,26.19Z"/><ellipse class="cls-1" cx="15.94" cy="29.45" rx="1.31" ry="1.36" transform="translate(-1.52 0.88) rotate(-3.01)"/><path class="cls-1" d="M19.49,46a2.72,2.72,0,0,1,1,.11.24.24,0,0,1-.06.09,7.79,7.79,0,0,1-2.64,2.56,5.44,5.44,0,0,1,2.71,2.76,6,6,0,0,1,.25.75,3.42,3.42,0,0,1-.91.18A3.25,3.25,0,0,1,16.94,51a3.29,3.29,0,0,1-.51-1.59,3.23,3.23,0,0,1,2.94-3.38Z"/><path class="cls-1" d="M20.18,41.39a2.45,2.45,0,0,1,1.4.34v.06a7.56,7.56,0,0,1-1.11,4.36.24.24,0,0,1-.06.09,2.29,2.29,0,0,1-1.05-.19,2.42,2.42,0,0,1,.81-4.66Z"/><path class="cls-1" d="M20.42,28.49A3,3,0,0,1,23,29.75a2,2,0,0,1,.17.29,5,5,0,0,1,.19,1.16,4.88,4.88,0,0,1-.08,1.27q-.06.3-.15.6a3,3,0,0,1-2.08,1.41l-.35.05a3,3,0,0,1-2-5.44A3,3,0,0,1,20.42,28.49Z"/><path class="cls-1" d="M23,32.45a1.14,1.14,0,0,1,.37,0q-.06.3-.15.6a5.75,5.75,0,0,1-.54,1.22,3.16,3.16,0,0,1,2.16,1,2,2,0,0,1-3.7-.78v0A2,2,0,0,1,23,32.45Z"/><circle class="cls-1" cx="19.64" cy="36.54" r="1.21"/><circle class="cls-1" cx="22.48" cy="38.83" r="1.21"/><circle class="cls-1" cx="14.22" cy="50.38" r="1.58"/><circle class="cls-1" cx="7.57" cy="65.07" r="1.58"/><circle class="cls-1" cx="19.76" cy="59.54" r="1.58"/><circle class="cls-1" cx="15.25" cy="57.34" r="1.21"/><circle class="cls-1" cx="6.25" cy="62.12" r="0.93"/><path class="cls-1" d="M21.91,69.77a4.85,4.85,0,0,1,.09.55,3.28,3.28,0,0,1,.84.14h0a2.46,2.46,0,0,1,.38.14,3.42,3.42,0,0,1,2.11,3,3.07,3.07,0,0,1-.1,1,3.36,3.36,0,0,1-.24.67h0a3.12,3.12,0,0,1-1.48.47,1.61,1.61,0,0,1-.31,0A3.13,3.13,0,0,1,20.51,74a3,3,0,0,1-.32-1.23,3.15,3.15,0,0,1,1.72-3Z"/><circle class="cls-1" cx="16.97" cy="72.61" r="1.58"/><circle class="cls-1" cx="19.92" cy="83.86" r="1.39"/><path class="cls-1" d="M19.92,67.71a2.94,2.94,0,0,1,1.29.2,6.32,6.32,0,0,1,.7,1.86,4.85,4.85,0,0,1,.09.55,3.28,3.28,0,0,1,.84.14h0a2.46,2.46,0,0,1,.38.14s0,.07,0,.1A3.17,3.17,0,0,1,20.51,74a.93.93,0,0,1-.25,0,3.16,3.16,0,0,1-2.38-5.42A3.12,3.12,0,0,1,19.92,67.71Z"/><circle class="cls-1" cx="22.31" cy="81.01" r="1.26"/><circle class="cls-1" cx="13.64" cy="69.46" r="1"/><circle class="cls-3" cx="3.13" cy="65.3" r="1.26"/><circle class="cls-3" cx="12.46" cy="63.23" r="1.01"/><circle class="cls-3" cx="11.36" cy="70.93" r="1.36"/><circle class="cls-3" cx="12.77" cy="74.54" r="0.76"/><circle class="cls-3" cx="18.29" cy="54.52" r="0.76"/><circle class="cls-3" cx="18.61" cy="42.76" r="1.26"/><circle class="cls-3" cx="21.72" cy="77.81" r="1.26"/><circle class="cls-3" cx="8.58" cy="42.95" r="0.95"/><circle class="cls-3" cx="8.11" cy="40.21" r="0.63"/><circle class="cls-3" cx="4.91" cy="63.1" r="0.63"/><path class="cls-2" d="M46.54,13.85a3.27,3.27,0,0,1-2.91,3.42l-.19,0a3.28,3.28,0,0,1-1.81-.43,6.41,6.41,0,0,1-1.26,2.72s0,.05-.06.08a6.43,6.43,0,0,1-3.69,2.25,4.85,4.85,0,0,1-.55.09,3.78,3.78,0,0,1-.13.84h0c0,.13-.09.26-.14.38a3.45,3.45,0,0,1-3,2.11,3,3,0,0,1-1-.1,3.23,3.23,0,0,1-.68-.24h0a3.4,3.4,0,0,1-1.35-1.15,6.27,6.27,0,0,1-2.83,1.06,3.3,3.3,0,0,1,.26.93,1.91,1.91,0,0,1-.38,3.75,2,2,0,0,1-1.21-.37,4.6,4.6,0,0,1-.63.31c-.12,0-.24.09-.37.12a2.9,2.9,0,0,1-.59.09,3.42,3.42,0,0,1-3.38-2.23,3.13,3.13,0,0,1-.2-1,3.36,3.36,0,0,1,1.7-3.1,6.2,6.2,0,0,1,7.1-10.08A6.46,6.46,0,0,1,40.7,12a3.23,3.23,0,0,1,2.39-1.27A3.28,3.28,0,0,1,46.54,13.85Z"/><circle class="cls-2" cx="42.67" cy="21.35" r="1.64"/><path class="cls-2" d="M42.79,10.07A4.57,4.57,0,0,0,46.35,8a2.92,2.92,0,1,0,.72-3,4.56,4.56,0,1,0-4.28,5.07Z"/><path class="cls-2" d="M80.3,17.74a5.51,5.51,0,0,1-.1,1.35,5.41,5.41,0,0,1-3.48,4l-.37.11a4.93,4.93,0,0,1-1.16.19,4.88,4.88,0,0,1-1.27-.08q-.3-.06-.6-.15A2.41,2.41,0,0,1,72.9,23a5.34,5.34,0,0,1-.8-.38,3.19,3.19,0,0,1-1,2.16,3.27,3.27,0,0,1-5.52-2.2,3.2,3.2,0,0,1,.16-1.16,6.36,6.36,0,0,1-1.09.15H64.6a7.18,7.18,0,0,1-2-.18,7,7,0,0,1-2.32-.93.21.21,0,0,1-.1-.06,7.88,7.88,0,0,1-2.56-2.64,5.44,5.44,0,0,1-2.76,2.71,6,6,0,0,1-.75.25A5.42,5.42,0,0,1,53,20.9h-.5a5.89,5.89,0,0,1-1.33-.24,3.68,3.68,0,0,1-.16.54,3.26,3.26,0,1,1-3.53-4.43,6.44,6.44,0,0,1-.15-1A5.38,5.38,0,0,1,56.81,12a7.6,7.6,0,0,1,3.63-4.71,2.39,2.39,0,1,1,4.27-1.58,2.32,2.32,0,0,1-.06.59,7.64,7.64,0,0,1,7.19,7.23.13.13,0,0,1,0,.06,5.25,5.25,0,0,1,2.79-1A5.4,5.4,0,0,1,80.3,17.74Z"/><path class="cls-2" d="M86.35,16.07A2.65,2.65,0,0,1,85.72,18a2.7,2.7,0,1,1,.63-1.88Z"/><path class="cls-2" d="M75.24,24.33a2.14,2.14,0,1,0,2.25,2A2.14,2.14,0,0,0,75.24,24.33Z"/><circle class="cls-2" cx="80.51" cy="11.71" r="1.22"/><path class="cls-2" d="M34.92,8.48A1.74,1.74,0,1,0,33.1,6.83,1.74,1.74,0,0,0,34.92,8.48Z"/><path class="cls-2" d="M40.16,22.87a1.05,1.05,0,0,1-1,1.1,1.05,1.05,0,1,1-.11-2.1A1.05,1.05,0,0,1,40.16,22.87Z"/><path class="cls-1" d="M31.12,25h0a3.4,3.4,0,0,1-1.35-1.15,6.27,6.27,0,0,1-2.83,1.06,3.3,3.3,0,0,1,.26.93,1.91,1.91,0,0,1-.38,3.75,2,2,0,0,1-1.21-.37,4.6,4.6,0,0,1-.63.31c-.12,0-.24.09-.37.12a4.32,4.32,0,0,1-1.5-2.85,2.06,2.06,0,0,1,0-.26,4.41,4.41,0,0,1,4.18-4.65,4.54,4.54,0,0,1,1,.05h0a3.45,3.45,0,0,1,.46.12h0a4.27,4.27,0,0,1,1.94,1.15,4.39,4.39,0,0,1,1.14,2A3.23,3.23,0,0,1,31.12,25Z"/><circle class="cls-1" cx="29.05" cy="19.54" r="2.52"/><path class="cls-1" d="M40.16,22.87a1.05,1.05,0,0,1-1,1.1,1.05,1.05,0,1,1-.11-2.1A1.05,1.05,0,0,1,40.16,22.87Z"/><path class="cls-1" d="M40.37,19.58s0,.05-.06.08a6.43,6.43,0,0,1-3.69,2.25,4.85,4.85,0,0,1-.55.09,3.78,3.78,0,0,1-.13.84,6.72,6.72,0,0,1-.1-.8,6.42,6.42,0,0,1,0-1.08c.18-1.57.92-2.8,1.91-3.08a1.51,1.51,0,0,1,.36-.06,1.7,1.7,0,0,1,.51.05h0A3,3,0,0,1,40.37,19.58Z"/><path class="cls-1" d="M25,29.1a3,3,0,0,1,0,.42c-.12,0-.24.09-.37.12a2.9,2.9,0,0,1-.59.09,3.42,3.42,0,0,1-3.38-2.23,2.53,2.53,0,0,1,1.7-.78,2.83,2.83,0,0,1,.77.07A2.55,2.55,0,0,1,25,29.1Z"/><path class="cls-1" d="M43.64,17.13a.66.66,0,0,1,0,.14l-.19,0a3.28,3.28,0,0,1-1.81-.43,6.41,6.41,0,0,1-1.26,2.72s0,.05-.06.08a2.49,2.49,0,0,1-1.64-1.79h0a3.54,3.54,0,0,1-.07-.47,2.53,2.53,0,0,1,5-.27Z"/><path class="cls-1" d="M52.51,20.91a5.89,5.89,0,0,1-1.33-.24,3.68,3.68,0,0,1-.16.54,3.27,3.27,0,0,1-4.66,1.62,3.41,3.41,0,0,1-.19-1,3.22,3.22,0,0,1,6.34-1Z"/><path class="cls-1" d="M55.67,18.14a3.26,3.26,0,0,1-.84,2.35,6,6,0,0,1-.75.25A5.42,5.42,0,0,1,53,20.9h-.5a5.89,5.89,0,0,1-1.33-.24,3.68,3.68,0,0,1-.16.54,3.23,3.23,0,1,1,4.35-4.27A3.47,3.47,0,0,1,55.67,18.14Z"/><path class="cls-1" d="M73.07,21.36A5.3,5.3,0,0,1,72.9,23a5.34,5.34,0,0,1-.8-.38,3.19,3.19,0,0,1-1,2.16,3.27,3.27,0,0,1-5.52-2.2,3.2,3.2,0,0,1,.16-1.16,6.36,6.36,0,0,1-1.09.15H64.6a7.18,7.18,0,0,1-2-.18,5.26,5.26,0,0,1,10.5-.05Z"/><circle class="cls-1" cx="61.35" cy="14.68" r="2.08"/><circle class="cls-1" cx="68.52" cy="15.82" r="1.61"/><circle class="cls-1" cx="66.94" cy="10.55" r="1.3"/><path class="cls-1" d="M80.2,19.09a5.41,5.41,0,0,1-3.48,4,.16.16,0,0,1-.08-.06,2.57,2.57,0,0,1-.86-1.79,2.61,2.61,0,0,1,1.52-2.49,2.85,2.85,0,0,1,1-.26A2.74,2.74,0,0,1,80.2,19.09Z"/><ellipse class="cls-1" cx="76.94" cy="15.94" rx="1.36" ry="1.31" transform="translate(-0.73 4.06) rotate(-3.01)"/><path class="cls-1" d="M60.35,19.49a3,3,0,0,1-.1,1,.21.21,0,0,1-.1-.06,7.88,7.88,0,0,1-2.56-2.64,5.44,5.44,0,0,1-2.76,2.71,6,6,0,0,1-.75.25,3.86,3.86,0,0,1-.18-.91,3.25,3.25,0,0,1,1.47-2.89A3.29,3.29,0,0,1,57,16.43a3.22,3.22,0,0,1,3.38,2.94A.49.49,0,0,1,60.35,19.49Z"/><path class="cls-1" d="M65,20.18a2.54,2.54,0,0,1-.35,1.4H64.6a7.51,7.51,0,0,1-4.35-1.11.21.21,0,0,1-.1-.06,2.29,2.29,0,0,1,.19-1.05,2.43,2.43,0,0,1,4.67.81Z"/><path class="cls-1" d="M77.91,20.42A3.06,3.06,0,0,1,76.64,23a1.58,1.58,0,0,1-.29.17,4.93,4.93,0,0,1-1.16.19,4.88,4.88,0,0,1-1.27-.08q-.3-.06-.6-.15a3,3,0,0,1-1.41-2.08c0-.12,0-.23,0-.35a3,3,0,0,1,5.44-2A3.08,3.08,0,0,1,77.91,20.42Z"/><path class="cls-1" d="M73.94,23a1.14,1.14,0,0,1,0,.37q-.3-.06-.6-.15a5.75,5.75,0,0,1-1.22-.54,3.19,3.19,0,0,1-1,2.16A1.93,1.93,0,0,1,70,23.15a2,2,0,0,1,1.84-2.06h0A2,2,0,0,1,73.94,23Z"/><circle class="cls-1" cx="69.85" cy="19.64" r="1.21"/><circle class="cls-1" cx="67.57" cy="22.48" r="1.21"/><circle class="cls-1" cx="56.02" cy="14.22" r="1.58"/><circle class="cls-1" cx="41.32" cy="7.57" r="1.58"/><circle class="cls-1" cx="46.85" cy="19.76" r="1.58"/><circle class="cls-1" cx="49.06" cy="15.25" r="1.21"/><circle class="cls-1" cx="44.28" cy="6.25" r="0.93"/><path class="cls-1" d="M36.62,21.91a4.85,4.85,0,0,1-.55.09,3.78,3.78,0,0,1-.13.84h0c0,.13-.09.26-.14.38a3.45,3.45,0,0,1-3,2.11,3,3,0,0,1-1-.1,3.23,3.23,0,0,1-.68-.24h0a3.12,3.12,0,0,1-.47-1.48,1.61,1.61,0,0,1,0-.31,3.15,3.15,0,0,1,1.75-2.69,3,3,0,0,1,1.23-.32,3.15,3.15,0,0,1,3,1.72Z"/><circle class="cls-1" cx="33.78" cy="16.97" r="1.58"/><circle class="cls-1" cx="22.53" cy="19.92" r="1.39"/><path class="cls-1" d="M38.69,19.92a3.1,3.1,0,0,1-.21,1.29,6.32,6.32,0,0,1-1.86.7,4.85,4.85,0,0,1-.55.09,3.78,3.78,0,0,1-.13.84h0c0,.13-.09.26-.14.38l-.1,0a3.17,3.17,0,0,1-3.29-2.74.66.66,0,0,1,0-.25,3.1,3.1,0,0,1,.55-2,3.19,3.19,0,0,1,2.44-1.36,3.17,3.17,0,0,1,3.32,3Z"/><circle class="cls-1" cx="25.39" cy="22.31" r="1.26"/><circle class="cls-1" cx="36.93" cy="13.64" r="1"/><circle class="cls-3" cx="41.09" cy="3.13" r="1.26"/><circle class="cls-3" cx="43.16" cy="12.46" r="1.01"/><circle class="cls-3" cx="35.46" cy="11.36" r="1.36"/><circle class="cls-3" cx="31.85" cy="12.77" r="0.76"/><circle class="cls-3" cx="51.87" cy="18.29" r="0.76"/><circle class="cls-3" cx="63.64" cy="18.61" r="1.26"/><circle class="cls-3" cx="28.59" cy="21.72" r="1.26"/><circle class="cls-3" cx="63.44" cy="8.58" r="0.95"/><circle class="cls-3" cx="66.18" cy="8.11" r="0.63"/><circle class="cls-3" cx="43.29" cy="4.91" r="0.63"/><circle class="cls-1" cx="32.2" cy="26.72" r="1.97"/><circle class="cls-1" cx="79.29" cy="31.82" r="2.18"/><circle class="cls-1" cx="73.95" cy="78.73" r="1.78"/><circle class="cls-1" cx="26.43" cy="74.79" r="2.15"/><circle class="cls-1" cx="21.15" cy="46.13" r="1.94"/><circle class="cls-1" cx="85.25" cy="59.3" r="1.6"/><circle class="cls-1" cx="5.16" cy="50.41" r="1.86"/><circle class="cls-1" cx="50.27" cy="100.34" r="1.86"/><circle class="cls-1" cx="100.19" cy="55.84" r="1.86"/><circle class="cls-1" cx="73.08" cy="8.11" r="1.86"/><circle class="cls-2" cx="27.87" cy="10.48" r="1.23"/><circle class="cls-2" cx="94.61" cy="26.72" r="1.45"/><circle class="cls-2" cx="96.06" cy="73.5" r="1.35"/><circle class="cls-2" cx="34.86" cy="96.23" r="2.25"/><circle class="cls-2" cx="9.58" cy="32.72" r="2"/></svg>