<svg id="Layer_1" data-name="Layer 1" xmlns="http://www.w3.org/2000/svg" viewBox="0 0 112.27 112.27"><defs><style>.cls-1{fill:#4aa1ea;}.cls-2{fill:#56268f;}.cls-3{fill:#5d34bf;}.cls-4{fill:#f9f8de;}</style></defs><circle class="cls-1" cx="34.25" cy="35.87" r="2.29"/><circle class="cls-1" cx="37.77" cy="33.14" r="0.87"/><circle class="cls-1" cx="60.66" cy="28.83" r="1.48"/><circle class="cls-1" cx="47.97" cy="28.83" r="0.71"/><circle class="cls-1" cx="79.91" cy="71.42" r="0.71"/><circle class="cls-1" cx="26.97" cy="45.82" r="1.33"/><circle class="cls-1" cx="56.26" cy="25.56" r="2.75"/><circle class="cls-1" cx="76.93" cy="34.34" r="2.29"/><circle class="cls-1" cx="79.65" cy="37.86" r="0.87"/><circle class="cls-1" cx="83.89" cy="63.61" r="1.48"/><circle class="cls-1" cx="84.11" cy="43.35" r="1.53"/><circle class="cls-1" cx="82.27" cy="46.34" r="0.71"/><circle class="cls-1" cx="29.11" cy="48.58" r="0.71"/><circle class="cls-1" cx="66.97" cy="27.06" r="1.33"/><circle class="cls-1" cx="86.44" cy="55.97" r="2.75"/><circle class="cls-1" cx="77.43" cy="80.64" r="2.29"/><circle class="cls-1" cx="73.75" cy="79.32" r="0.87"/><circle class="cls-1" cx="42.52" cy="82.93" r="1.48"/><circle class="cls-1" cx="69.45" cy="84.19" r="1.53"/><circle class="cls-1" cx="65.14" cy="82.67" r="0.71"/><circle class="cls-1" cx="85.72" cy="68.7" r="2.79"/><circle class="cls-1" cx="55.34" cy="86.55" r="2.75"/><circle class="cls-1" cx="35.78" cy="78.55" r="2.29"/><circle class="cls-1" cx="33.06" cy="75.02" r="0.87"/><circle class="cls-1" cx="48.29" cy="83.07" r="0.87"/><circle class="cls-1" cx="28.37" cy="60.26" r="1.48"/><circle class="cls-1" cx="28.6" cy="69.53" r="1.53"/><circle class="cls-1" cx="30.13" cy="65.22" r="0.71"/><circle class="cls-1" cx="45.74" cy="85.83" r="1.33"/><circle class="cls-1" cx="25.35" cy="55.22" r="2.75"/><circle class="cls-1" cx="34.25" cy="35.87" r="2.29"/><circle class="cls-1" cx="37.77" cy="33.14" r="0.87"/><circle class="cls-1" cx="32.93" cy="40.86" r="1.28"/><circle class="cls-1" cx="84.11" cy="50.8" r="1.48"/><circle class="cls-1" cx="42.86" cy="30.36" r="1.53"/><circle class="cls-1" cx="70.51" cy="30.21" r="0.71"/><circle class="cls-1" cx="26.97" cy="45.82" r="1.33"/><circle class="cls-1" cx="39.15" cy="19.03" r="4.78"/><circle class="cls-1" cx="30.71" cy="12.04" r="2.6"/><circle class="cls-1" cx="51.59" cy="3.48" r="2.6"/><circle class="cls-1" cx="77.43" cy="17.84" r="8.29"/><circle class="cls-1" cx="51.46" cy="19.98" r="6.46"/><circle class="cls-1" cx="67.79" cy="13.71" r="4.91"/><circle class="cls-1" cx="60.48" cy="9.28" r="6.46"/><circle class="cls-1" cx="63.61" cy="20.67" r="6.46"/><circle class="cls-1" cx="42.6" cy="12.19" r="4.79"/><circle class="cls-1" cx="37.72" cy="24.99" r="4.79"/><circle class="cls-1" cx="51.04" cy="14.11" r="6.46"/><circle class="cls-1" cx="85.98" cy="26.14" r="6.48"/><circle class="cls-1" cx="94.05" cy="31.63" r="4.46"/><circle class="cls-1" cx="89.15" cy="39.4" r="7.93"/><circle class="cls-1" cx="92.35" cy="19.72" r="1.81"/><circle class="cls-1" cx="75.81" cy="30.16" r="2.88"/><circle class="cls-1" cx="72.87" cy="9.01" r="1.26"/><circle class="cls-1" cx="100.38" cy="36.77" r="2.28"/><circle class="cls-1" cx="93.23" cy="39.15" r="4.78"/><circle class="cls-1" cx="100.23" cy="30.71" r="2.6"/><circle class="cls-1" cx="108.79" cy="51.59" r="2.6"/><circle class="cls-1" cx="94.43" cy="77.43" r="8.29"/><circle class="cls-1" cx="92.29" cy="51.46" r="6.46"/><circle class="cls-1" cx="98.56" cy="67.79" r="4.91"/><circle class="cls-1" cx="102.99" cy="60.48" r="6.46"/><circle class="cls-1" cx="91.59" cy="63.61" r="6.46"/><circle class="cls-1" cx="100.08" cy="42.6" r="4.79"/><circle class="cls-1" cx="87.28" cy="37.72" r="4.79"/><circle class="cls-1" cx="98.16" cy="51.04" r="6.46"/><circle class="cls-1" cx="86.13" cy="85.98" r="6.48"/><circle class="cls-1" cx="80.64" cy="94.05" r="4.46"/><circle class="cls-1" cx="72.87" cy="89.15" r="7.93"/><circle class="cls-1" cx="92.55" cy="92.35" r="1.81"/><circle class="cls-1" cx="82.11" cy="75.81" r="2.88"/><circle class="cls-1" cx="103.26" cy="72.87" r="1.26"/><circle class="cls-1" cx="75.5" cy="100.38" r="2.28"/><circle class="cls-1" cx="73.12" cy="93.23" r="4.78"/><circle class="cls-1" cx="81.56" cy="100.23" r="2.6"/><circle class="cls-1" cx="60.68" cy="108.79" r="2.6"/><circle class="cls-1" cx="34.84" cy="94.43" r="8.29"/><circle class="cls-1" cx="60.81" cy="92.29" r="6.46"/><circle class="cls-1" cx="44.48" cy="98.56" r="4.91"/><circle class="cls-1" cx="51.79" cy="102.99" r="6.46"/><circle class="cls-1" cx="48.66" cy="91.59" r="6.46"/><circle class="cls-1" cx="69.67" cy="100.08" r="4.79"/><circle class="cls-1" cx="74.55" cy="87.28" r="4.79"/><circle class="cls-1" cx="61.23" cy="98.16" r="6.46"/><circle class="cls-1" cx="26.28" cy="86.13" r="6.48"/><circle class="cls-1" cx="18.21" cy="80.64" r="4.46"/><circle class="cls-1" cx="23.12" cy="72.87" r="7.93"/><circle class="cls-1" cx="19.92" cy="92.55" r="1.81"/><circle class="cls-1" cx="36.46" cy="82.11" r="2.88"/><circle class="cls-1" cx="39.4" cy="103.26" r="1.26"/><circle class="cls-1" cx="11.89" cy="75.5" r="2.28"/><circle class="cls-1" cx="19.03" cy="73.12" r="4.78"/><circle class="cls-1" cx="12.04" cy="81.56" r="2.6"/><circle class="cls-1" cx="3.48" cy="60.68" r="2.6"/><circle class="cls-1" cx="17.84" cy="34.84" r="8.29"/><circle class="cls-1" cx="19.98" cy="60.81" r="6.46"/><circle class="cls-1" cx="13.71" cy="44.48" r="4.91"/><circle class="cls-1" cx="9.28" cy="51.79" r="6.46"/><circle class="cls-1" cx="20.67" cy="48.66" r="6.46"/><circle class="cls-1" cx="12.19" cy="69.67" r="4.79"/><circle class="cls-1" cx="24.99" cy="74.55" r="4.79"/><circle class="cls-1" cx="14.11" cy="61.23" r="6.46"/><circle class="cls-1" cx="26.14" cy="26.28" r="6.48"/><circle class="cls-1" cx="31.63" cy="18.21" r="4.46"/><circle class="cls-1" cx="39.4" cy="23.12" r="7.93"/><circle class="cls-1" cx="19.72" cy="19.92" r="1.81"/><circle class="cls-1" cx="30.16" cy="36.46" r="2.88"/><circle class="cls-1" cx="9.01" cy="39.4" r="1.26"/><circle class="cls-1" cx="36.77" cy="11.89" r="2.28"/><circle class="cls-1" cx="39.15" cy="19.03" r="4.78"/><circle class="cls-1" cx="30.71" cy="12.04" r="2.6"/><circle class="cls-1" cx="51.59" cy="3.48" r="2.6"/><circle class="cls-1" cx="77.43" cy="17.84" r="8.29"/><circle class="cls-1" cx="51.46" cy="19.98" r="6.46"/><circle class="cls-1" cx="67.79" cy="13.71" r="4.91"/><circle class="cls-1" cx="60.48" cy="9.28" r="6.46"/><circle class="cls-1" cx="63.61" cy="20.67" r="6.46"/><circle class="cls-1" cx="42.6" cy="12.19" r="4.79"/><circle class="cls-1" cx="37.72" cy="24.99" r="4.79"/><circle class="cls-1" cx="51.04" cy="14.11" r="6.46"/><circle class="cls-1" cx="85.98" cy="26.14" r="6.48"/><circle class="cls-1" cx="94.05" cy="31.63" r="4.46"/><circle class="cls-1" cx="89.15" cy="39.4" r="7.93"/><circle class="cls-1" cx="92.35" cy="19.72" r="1.81"/><circle class="cls-1" cx="75.81" cy="30.16" r="2.88"/><circle class="cls-1" cx="72.87" cy="9.01" r="1.26"/><circle class="cls-1" cx="100.38" cy="36.77" r="2.28"/><path class="cls-2" d="M95.14,32.39a2.51,2.51,0,0,1-2,.41,2.54,2.54,0,0,1-1.21-.67,1.5,1.5,0,0,1,.55-1A1.58,1.58,0,0,1,94.27,31a1.72,1.72,0,0,1,.48.41,1.36,1.36,0,0,1,.11.14A1.71,1.71,0,0,1,95.14,32.39Z"/><path class="cls-2" d="M93.79,34.62a2.49,2.49,0,0,1-.41-2,2.58,2.58,0,0,1,.7-1.22,1.5,1.5,0,0,1,1,.55,1.58,1.58,0,0,1,.15,1.83,1.68,1.68,0,0,1-.4.48l-.14.11A1.64,1.64,0,0,1,93.79,34.62Z"/><path class="cls-2" d="M91.55,33.27a2.55,2.55,0,0,1,3.23.31,1.56,1.56,0,0,1-.56,1,1.58,1.58,0,0,1-1.81.13,1.53,1.53,0,0,1-.47-.41.67.67,0,0,1-.11-.14A1.72,1.72,0,0,1,91.55,33.27Z"/><path class="cls-2" d="M92.91,31.05a2.54,2.54,0,0,1-.3,3.22,1.55,1.55,0,0,1-1-.55,1.6,1.6,0,0,1-.12-1.81,1.83,1.83,0,0,1,.4-.48.36.36,0,0,1,.14-.1A1.66,1.66,0,0,1,92.91,31.05Z"/><path class="cls-2" d="M95.14,32.39a2.51,2.51,0,0,1-2,.41,2.54,2.54,0,0,1-1.21-.67,1.5,1.5,0,0,1,.55-1A1.58,1.58,0,0,1,94.27,31a1.72,1.72,0,0,1,.48.41,1.36,1.36,0,0,1,.11.14A1.71,1.71,0,0,1,95.14,32.39Z"/><ellipse class="cls-2" cx="95.16" cy="30.6" rx="0.98" ry="1.01" transform="translate(2.04 66.94) rotate(-39.14)"/><ellipse class="cls-2" cx="95.86" cy="32.14" rx="1.01" ry="0.98" transform="translate(1.11 67.41) rotate(-38.95)"/><ellipse class="cls-2" cx="94.61" cy="32.49" rx="0.98" ry="1.01" transform="translate(0.72 67.02) rotate(-39.14)"/><ellipse class="cls-2" cx="93.94" cy="31.27" rx="1.01" ry="0.98" transform="translate(1.34 66.32) rotate(-39.14)"/><ellipse class="cls-2" cx="95.16" cy="30.6" rx="0.98" ry="1.01" transform="translate(2.04 66.94) rotate(-39.14)"/><path class="cls-3" d="M60.45,18.23a3.12,3.12,0,0,1-3.55,2.33l-.19-.06a3.12,3.12,0,0,1-1.53-.88,6,6,0,0,1-1.88,2.15l-.07.06a6.1,6.1,0,0,1-2.1,1,6,6,0,0,1-1.89.13,3.07,3.07,0,0,1-.53,0,4,4,0,0,1-.34.73h0a1.14,1.14,0,0,1-.23.31,3.3,3.3,0,0,1-3.3,1.13,2.78,2.78,0,0,1-.89-.36,3.17,3.17,0,0,1-.56-.4h0a3.33,3.33,0,0,1-.92-1.41,6,6,0,0,1-2.87.21,2.84,2.84,0,0,1,0,.92,1.82,1.82,0,0,1-1.34,3.33,1.93,1.93,0,0,1-1-.66,3.76,3.76,0,0,1-.66.1,1.14,1.14,0,0,1-.37,0,3.43,3.43,0,0,1-.56-.06,3.22,3.22,0,0,1-2.42-3.87v0a3.21,3.21,0,0,1,2.38-2.38,5.9,5.9,0,0,1,9.14-7.36A6.14,6.14,0,0,1,55.6,15a3.1,3.1,0,0,1,4.85,3.21Z"/><circle class="cls-3" cx="54.92" cy="24.05" r="1.56"/><path class="cls-3" d="M58,13.78a4.36,4.36,0,0,0,3.8-.92,2.78,2.78,0,1,0,1.46-2.55A4.34,4.34,0,1,0,58,13.8Z"/><path class="cls-3" d="M90.24,30.77a4.36,4.36,0,0,1-.45,1.2,5.13,5.13,0,0,1-4.24,2.73h-.37a4.67,4.67,0,0,1-1.11-.13,5.18,5.18,0,0,1-1.14-.41,4.94,4.94,0,0,1-.49-.3,1.52,1.52,0,0,1-.35-.26,3.31,3.31,0,0,1-.62-.56,3.1,3.1,0,0,1-6-1.74,2.82,2.82,0,0,1,.45-1,6.06,6.06,0,0,1-1-.15h-.05a7.17,7.17,0,0,1-1.78-.7A6.51,6.51,0,0,1,71.23,28l-.08-.08a7.5,7.5,0,0,1-1.63-3.09,5.16,5.16,0,0,1-3.24,1.74,4.78,4.78,0,0,1-.76,0,4.91,4.91,0,0,1-1-.14l-.46-.13a5.47,5.47,0,0,1-1.16-.58,3.46,3.46,0,0,1-.29.45,3.09,3.09,0,0,1-4.34.54,3.38,3.38,0,0,1-.35-.31,3.1,3.1,0,0,1,2.64-5.18,5.11,5.11,0,0,1,9.77-1.86A7.26,7.26,0,0,1,74.89,16a2.27,2.27,0,1,1,4.32-.31,2.44,2.44,0,0,1-.21.53,7.27,7.27,0,0,1,4.64,8.51.14.14,0,0,1,0,.06,5,5,0,0,1,2.83-.17A5.13,5.13,0,0,1,90.24,30.77Z"/><path class="cls-3" d="M96.21,30.85a2.47,2.47,0,0,1-1.07,1.54,2.51,2.51,0,0,1-2,.41,2.57,2.57,0,1,1,3.08-1.92h0Z"/><path class="cls-3" d="M83.83,35.43a2,2,0,1,0,1.52,2.45v0A2,2,0,0,0,83.83,35.43Z"/><circle class="cls-3" cx="92.04" cy="25.32" r="1.16"/><path class="cls-3" d="M51.27,10.23a1.65,1.65,0,1,0-1.23-2,1.66,1.66,0,0,0,1.23,2Z"/><path class="cls-3" d="M52.26,24.78a1,1,0,1,1-.76-1.21h0a1,1,0,0,1,.77,1.1A.36.36,0,0,1,52.26,24.78Z"/><path class="cls-2" d="M43.4,24.31h0a3.26,3.26,0,0,1-.93-1.41,5.91,5.91,0,0,1-2.86.22,3.08,3.08,0,0,1,0,.91,1.82,1.82,0,0,1-1.35,3.33,1.94,1.94,0,0,1-1-.64,3.76,3.76,0,0,1-.66.1,1.14,1.14,0,0,1-.37,0,4.09,4.09,0,0,1-.61-3,2.17,2.17,0,0,1,.07-.24,4.22,4.22,0,0,1,5.06-3.14h0a5.92,5.92,0,0,1,.89.32h0A3.26,3.26,0,0,1,42,21h0A4.22,4.22,0,0,1,44,24.71,3.17,3.17,0,0,1,43.4,24.31Z"/><circle class="cls-2" cx="42.96" cy="18.77" r="2.4"/><path class="cls-2" d="M52.26,24.78a1,1,0,1,1-.76-1.21h0a1,1,0,0,1,.77,1.1A.36.36,0,0,1,52.26,24.78Z"/><path class="cls-2" d="M53.29,21.81l-.08.07a6.16,6.16,0,0,1-2.08,1,6,6,0,0,1-1.89.13,3.07,3.07,0,0,1-.53,0,4,4,0,0,1-.34.73,5.16,5.16,0,0,1,.13-.77,5.42,5.42,0,0,1,.29-1c.58-1.39,1.58-2.31,2.56-2.31a1.27,1.27,0,0,1,.34,0,1.54,1.54,0,0,1,.46.19h0A2.85,2.85,0,0,1,53.29,21.81Z"/><path class="cls-2" d="M36.71,26.42a1.66,1.66,0,0,1-.11.38,1.53,1.53,0,0,1-.37,0,3.43,3.43,0,0,1-.56-.07,3.27,3.27,0,0,1-2.5-2.93,2.4,2.4,0,0,1,1.76-.26,2.91,2.91,0,0,1,.69.27A2.42,2.42,0,0,1,36.71,26.42Z"/><path class="cls-2" d="M56.93,20.46l0,.1-.19-.06a3.12,3.12,0,0,1-1.53-.88,6,6,0,0,1-1.88,2.15l-.07.06a2.39,2.39,0,0,1-1-2.07h0a2.41,2.41,0,0,1,4.8.43l0,.23Z"/><path class="cls-2" d="M64,26.27a5.7,5.7,0,0,1-1.13-.57,3.46,3.46,0,0,1-.29.45,3.09,3.09,0,0,1-4.34.54,3.38,3.38,0,0,1-.35-.31,4,4,0,0,1,.08-.92,3.07,3.07,0,0,1,6.06.78Z"/><path class="cls-2" d="M67.64,24.58a3,3,0,0,1-1.39,1.92,4.71,4.71,0,0,1-.75,0,5,5,0,0,1-1-.14L64,26.26a5.41,5.41,0,0,1-1.13-.56,3.46,3.46,0,0,1-.29.45,3.07,3.07,0,0,1-.16-4.35,3,3,0,0,1,2.93-.91,3.1,3.1,0,0,1,2.35,2.52A3.29,3.29,0,0,1,67.64,24.58Z"/><path class="cls-2" d="M82.68,32.15a4.79,4.79,0,0,1-.6,1.46,3.59,3.59,0,0,1-.61-.56,3.1,3.1,0,0,1-6-1.74,2.82,2.82,0,0,1,.45-1,6.06,6.06,0,0,1-1-.15l-.05,0a6.52,6.52,0,0,1-1.78-.69,5,5,0,0,1,9.66.83A5.22,5.22,0,0,1,82.68,32.15Z"/><circle class="cls-2" cx="73.75" cy="22.93" r="1.98"/><circle class="cls-2" cx="80" cy="25.88" r="1.53"/><circle class="cls-2" cx="79.96" cy="20.65" r="1.24"/><path class="cls-2" d="M89.79,32a5.13,5.13,0,0,1-4.24,2.73l-.06-.07a2.46,2.46,0,0,1-.31-1.87,2.49,2.49,0,0,1,2-1.87,2.73,2.73,0,0,1,1,0A2.61,2.61,0,0,1,89.79,32Z"/><ellipse class="cls-2" cx="87.66" cy="28.23" rx="1.25" ry="1.29" transform="translate(40.11 107.09) rotate(-76.76)"/><path class="cls-2" d="M71.57,27.06a3.1,3.1,0,0,1-.37.88l-.07-.08a7.29,7.29,0,0,1-1.64-3.09,5.13,5.13,0,0,1-3.24,1.74,4.71,4.71,0,0,1-.75,0,3.7,3.7,0,0,1,.08-.88,3.1,3.1,0,0,1,6-.25A3.14,3.14,0,0,1,71.62,27,.22.22,0,0,0,71.57,27.06Z"/><path class="cls-2" d="M75.63,28.93a2.41,2.41,0,0,1-.69,1.18h-.06a7.13,7.13,0,0,1-3.67-2.17l-.08-.09a2.32,2.32,0,0,1,3.7-1.25,2.28,2.28,0,0,1,.8,2.33Z"/><path class="cls-2" d="M87.35,32.58a2.91,2.91,0,0,1-1.86,2.05,1.09,1.09,0,0,1-.31.08,4.61,4.61,0,0,1-1.11-.13,5,5,0,0,1-1.14-.41,5.09,5.09,0,0,1-.5-.3,2.85,2.85,0,0,1-.73-2.27,1.59,1.59,0,0,1,.09-.33A2.86,2.86,0,0,1,85.15,29a2.86,2.86,0,0,1,2.2,3.55Z"/><path class="cls-2" d="M83.06,33.84a1.26,1.26,0,0,1-.1.33,3.6,3.6,0,0,1-.5-.29,4.79,4.79,0,0,1-1-.83A3.08,3.08,0,0,1,80,34.77,1.83,1.83,0,0,1,79.46,33,1.9,1.9,0,0,1,81.7,31.6h0A1.9,1.9,0,0,1,83.06,33.84Z"/><circle class="cls-2" cx="80.19" cy="29.72" r="1.15"/><circle class="cls-2" cx="77.36" cy="31.71" r="1.15"/><circle class="cls-2" cx="69.01" cy="21.09" r="1.5"/><circle class="cls-2" cx="57.35" cy="11.11" r="1.5"/><circle class="cls-2" cx="59.16" cy="23.71" r="1.5"/><circle class="cls-2" cx="62.38" cy="20.18" r="1.15"/><circle class="cls-2" cx="60.41" cy="10.69" r="0.88"/><path class="cls-2" d="M49.25,22.94a3.07,3.07,0,0,1-.53-.05,4,4,0,0,1-.34.73h0c0,.12-.16.21-.23.31a3.28,3.28,0,0,1-3.3,1.13A2.78,2.78,0,0,1,44,24.7a2.73,2.73,0,0,1-.56-.4h0a2.72,2.72,0,0,1,0-1.47,1,1,0,0,1,.08-.29,3,3,0,0,1,2.31-2,2.91,2.91,0,0,1,1.21.09,3,3,0,0,1,1.83,1.29A3.37,3.37,0,0,1,49.25,22.94Z"/><circle class="cls-2" cx="47.97" cy="17.69" r="1.5"/><circle class="cls-2" cx="36.92" cy="17.38" r="1.32"/><path class="cls-2" d="M51.66,21.69a2.94,2.94,0,0,1-.52,1.12,5.73,5.73,0,0,1-1.89.13,3.07,3.07,0,0,1-.53-.05,4,4,0,0,1-.34.73h0c0,.12-.16.21-.23.31l-.09,0a3,3,0,0,1-2.28-3.36.61.61,0,0,1,.07-.24,2.91,2.91,0,0,1,1-1.68,3,3,0,0,1,4.82,3Z"/><circle class="cls-2" cx="38.88" cy="20.33" r="1.2"/><circle class="cls-2" cx="51.73" cy="15.48" r="0.95"/><circle class="cls-4" cx="58.32" cy="6.99" r="1.2"/><circle class="cls-4" cx="57.73" cy="16.06" r="0.96"/><circle class="cls-4" cx="50.99" cy="13" r="1.29"/><circle class="cls-4" cx="47.32" cy="13.34" r="0.72"/><circle class="cls-4" cx="64.13" cy="23.7" r="0.72"/><circle class="cls-4" cx="74.8" cy="27.13" r="1.2"/><circle class="cls-4" cx="41.96" cy="20.64" r="1.2"/><circle class="cls-4" cx="77.29" cy="17.92" r="0.9"/><circle class="cls-4" cx="79.91" cy="18.22" r="0.6"/><circle class="cls-4" cx="59.87" cy="9.21" r="0.6"/><path class="cls-3" d="M93.76,60.33a3.11,3.11,0,0,1-2.35-3.57l0-.18a3.23,3.23,0,0,1,.88-1.53,6.17,6.17,0,0,1-2.15-1.88l-.06-.08a6.14,6.14,0,0,1-1.08-4,4.52,4.52,0,0,1,.06-.53,3.74,3.74,0,0,1-.73-.34h0L88.09,48A3.29,3.29,0,0,1,87,44.73a3.06,3.06,0,0,1,.35-.88,3.84,3.84,0,0,1,.41-.56h0a3.26,3.26,0,0,1,1.41-.93,5.72,5.72,0,0,1-.24-2.87,3.22,3.22,0,0,1-.93,0,1.82,1.82,0,0,1-3.32-1.35,1.91,1.91,0,0,1,.68-1,2.86,2.86,0,0,1-.11-.64,1.54,1.54,0,0,1,0-.37,2.8,2.8,0,0,1,.08-.57,3.24,3.24,0,0,1,2.92-2.49,2.88,2.88,0,0,1,1,.08,3.22,3.22,0,0,1,2.39,2.37,5.9,5.9,0,0,1,7.29,9.17A6.14,6.14,0,0,1,97,55.47a3.11,3.11,0,0,1-3.22,4.86Z"/><circle class="cls-3" cx="87.94" cy="54.8" r="1.56"/><path class="cls-3" d="M98.21,57.91a4.34,4.34,0,0,0,.88,3.78,2.8,2.8,0,1,0,2.54,1.46,4.34,4.34,0,1,0-3.49-5.26Z"/><path class="cls-3" d="M81.22,90.12a5.13,5.13,0,0,1-3.94-4.7,1.44,1.44,0,0,0,0-.36A4.81,4.81,0,0,1,77.4,84a5.1,5.1,0,0,1,.41-1.13,4.27,4.27,0,0,1,.3-.51c0-.13.16-.23.26-.35a4.75,4.75,0,0,1,.56-.62,3,3,0,0,1-1.71-1.49,3.1,3.1,0,0,1,3.48-4.45,2.92,2.92,0,0,1,1,.45,7.22,7.22,0,0,1,.14-1l0,0A6.21,6.21,0,0,1,82.57,73a7.07,7.07,0,0,1,1.49-2l.07-.06a7.61,7.61,0,0,1,3.1-1.64,5.08,5.08,0,0,1-1.73-3.24,3.14,3.14,0,0,1,0-.75,5,5,0,0,1,.13-1l.13-.46a6.16,6.16,0,0,1,.57-1.15,3,3,0,0,1-1.51-3.43,3.2,3.2,0,0,1,.88-1.53,3.1,3.1,0,0,1,5.18,2.63,6,6,0,0,1,1,.13,5.12,5.12,0,0,1,.93,9.65,7.25,7.25,0,0,1,3.35,4.56,2.32,2.32,0,0,1,1.33-.09,2.27,2.27,0,1,1-.87,4.46l-.17,0a2.36,2.36,0,0,1-.52-.21,7.26,7.26,0,0,1-8.51,4.64h0a5.08,5.08,0,0,1,.17,2.81,5.14,5.14,0,0,1-6.18,3.82Z"/><path class="cls-3" d="M81.14,96.09A2.61,2.61,0,0,1,79.2,93a2.47,2.47,0,0,1,.65-1.21,2.57,2.57,0,1,1,1.24,4.33Z"/><path class="cls-3" d="M76.55,83.75a2,2,0,1,0-2.44,1.51h0A2,2,0,0,0,76.55,83.75Z"/><circle class="cls-3" cx="86.67" cy="91.92" r="1.16"/><path class="cls-3" d="M101.76,51.15a1.65,1.65,0,0,0,3.21.75,1.65,1.65,0,0,0-3.21-.76Z"/><path class="cls-3" d="M87.22,52.1a1,1,0,1,1,1.21-.75h0a1,1,0,0,1-1.2.75Z"/><path class="cls-2" d="M87.69,43.28h0a3.15,3.15,0,0,1,1.41-.93,5.56,5.56,0,0,1-.21-2.86,3.22,3.22,0,0,1-.93,0,1.82,1.82,0,0,1-3.32-1.35,1.91,1.91,0,0,1,.68-1,2.86,2.86,0,0,1-.11-.64,1.54,1.54,0,0,1,0-.37,4.12,4.12,0,0,1,3-.63l.23.07a4.22,4.22,0,0,1,3.14,5,3.94,3.94,0,0,1-.32.89h0a1.9,1.9,0,0,1-.23.39h0a4,4,0,0,1-1.57,1.49,4.25,4.25,0,0,1-2.13.51A3.47,3.47,0,0,1,87.69,43.28Z"/><circle class="cls-2" cx="93.21" cy="42.84" r="2.4"/><path class="cls-2" d="M87.22,52.1a1,1,0,1,1,1.21-.75h0a1,1,0,0,1-1.2.75Z"/><path class="cls-2" d="M90.17,53.17a.47.47,0,0,0-.06-.09,6.23,6.23,0,0,1-1.06-3.95,4.52,4.52,0,0,1,.06-.53,3.74,3.74,0,0,1-.73-.34,5,5,0,0,1,.76.12,4.8,4.8,0,0,1,1,.29c1.39.57,2.31,1.58,2.31,2.56a1.19,1.19,0,0,1,0,.33,1.6,1.6,0,0,1-.19.47h0A2.83,2.83,0,0,1,90.17,53.17Z"/><path class="cls-2" d="M85.56,36.59l-.37-.11a1.53,1.53,0,0,1,0-.37,2.6,2.6,0,0,1,.07-.56,3.27,3.27,0,0,1,2.93-2.5,2.31,2.31,0,0,1,.26,1.76,2.1,2.1,0,0,1-.27.68A2.4,2.4,0,0,1,85.56,36.59Z"/><path class="cls-2" d="M91.53,56.81l-.12,0,0-.18a3.15,3.15,0,0,1,.88-1.53,6.08,6.08,0,0,1-2.15-1.88l-.06-.08a2.39,2.39,0,0,1,2.07-1h0l.45.07a2.4,2.4,0,0,1-1.09,4.63Z"/><path class="cls-2" d="M85.72,63.9a6.16,6.16,0,0,1,.57-1.15c-.15-.09-.3-.18-.45-.29a3.11,3.11,0,0,1-.18-4.67,3.16,3.16,0,0,1,.92.08,3.06,3.06,0,0,1-.78,6.05Z"/><path class="cls-2" d="M87.41,67.52a3,3,0,0,1-1.91-1.39,3.14,3.14,0,0,1,0-.75,5,5,0,0,1,.13-1l.13-.46a6.16,6.16,0,0,1,.57-1.15,3.12,3.12,0,0,1-.45-.29,3.08,3.08,0,0,1,4.54,4.15,3.07,3.07,0,0,1-3,.91Z"/><path class="cls-2" d="M79.84,82.56A4.81,4.81,0,0,1,78.38,82a4.76,4.76,0,0,1,.57-.62,3,3,0,0,1-1.72-1.49,3.11,3.11,0,0,1,3.49-4.45,2.89,2.89,0,0,1,1,.46,6.06,6.06,0,0,1,.15-1v-.06A6.78,6.78,0,0,1,82.58,73a5,5,0,0,1-.83,9.67A5.32,5.32,0,0,1,79.84,82.56Z"/><circle class="cls-2" cx="89.06" cy="73.63" r="1.98"/><circle class="cls-2" cx="86.11" cy="79.87" r="1.53"/><circle class="cls-2" cx="91.34" cy="79.83" r="1.24"/><path class="cls-2" d="M80,89.71a5.19,5.19,0,0,1-2.72-4.25l.08,0a2.39,2.39,0,0,1,1.86-.31,2.49,2.49,0,0,1,1.87,2.05,2.93,2.93,0,0,1,0,1A2.66,2.66,0,0,1,80,89.71Z"/><ellipse class="cls-2" cx="83.77" cy="87.53" rx="1.29" ry="1.25" transform="translate(-20.62 149.03) rotate(-76.76)"/><path class="cls-2" d="M84.94,71.44a2.62,2.62,0,0,1-.88-.37l.07-.06a7.61,7.61,0,0,1,3.1-1.64,5.08,5.08,0,0,1-1.73-3.24,3.14,3.14,0,0,1,0-.75,3.28,3.28,0,0,1,.88.08,3.08,3.08,0,0,1,2.28,3.7,3.07,3.07,0,0,1-3.58,2.3Z"/><path class="cls-2" d="M83.05,75.51a2.43,2.43,0,0,1-1.18-.7v0a7.14,7.14,0,0,1,2.18-3.69l.07-.06a2.09,2.09,0,0,1,.92.45,2.31,2.31,0,0,1-2,4.05Z"/><path class="cls-2" d="M79.42,87.23a2.87,2.87,0,0,1-2.06-1.86,2.81,2.81,0,0,1-.08-.31A4.81,4.81,0,0,1,77.4,84a5.1,5.1,0,0,1,.41-1.13,4.27,4.27,0,0,1,.3-.51,2.83,2.83,0,0,1,2.27-.74l.33.1a2.86,2.86,0,0,1,.38,5.5A3.06,3.06,0,0,1,79.42,87.23Z"/><path class="cls-2" d="M78.15,82.93a1.26,1.26,0,0,1-.33-.1c.09-.17.19-.34.29-.51a5.91,5.91,0,0,1,.83-1,3,3,0,0,1-1.72-1.49A1.86,1.86,0,0,1,79,79.3a1.89,1.89,0,0,1,1.39,2.23h0A1.9,1.9,0,0,1,78.15,82.93Z"/><circle class="cls-2" cx="82.27" cy="80.08" r="1.15"/><circle class="cls-2" cx="80.28" cy="77.23" r="1.15"/><circle class="cls-2" cx="90.91" cy="68.89" r="1.5"/><circle class="cls-2" cx="100.89" cy="57.23" r="1.5"/><circle class="cls-2" cx="88.28" cy="59.04" r="1.5"/><circle class="cls-2" cx="91.81" cy="62.26" r="1.15"/><circle class="cls-2" cx="101.31" cy="60.29" r="0.88"/><path class="cls-2" d="M89.05,49.12a3.05,3.05,0,0,1,0-.52,3.77,3.77,0,0,1-.73-.35h0L88.09,48A3.29,3.29,0,0,1,87,44.73a3.06,3.06,0,0,1,.35-.88,3.84,3.84,0,0,1,.41-.56h0a2.93,2.93,0,0,1,1.47,0,1.31,1.31,0,0,1,.28.09,2.94,2.94,0,0,1,2,2.31,2.75,2.75,0,0,1-.06,1.21A3,3,0,0,1,89,49.14Z"/><circle class="cls-2" cx="94.3" cy="47.84" r="1.5"/><circle class="cls-2" cx="94.61" cy="36.79" r="1.32"/><path class="cls-2" d="M90.3,51.54A2.68,2.68,0,0,1,89.2,51a5.94,5.94,0,0,1-.15-1.88,4.52,4.52,0,0,1,.06-.53,3.74,3.74,0,0,1-.73-.34h0L88.09,48a.29.29,0,0,1,0-.09,3,3,0,0,1,3.37-2.28l.24.07a3,3,0,0,1-1.38,5.87h0Z"/><circle class="cls-2" cx="91.66" cy="38.76" r="1.2"/><circle class="cls-2" cx="96.51" cy="51.61" r="0.95"/><circle class="cls-4" cx="105" cy="58.2" r="1.2"/><circle class="cls-4" cx="95.93" cy="57.61" r="0.96"/><circle class="cls-4" cx="98.99" cy="50.87" r="1.29"/><circle class="cls-4" cx="98.65" cy="47.2" r="0.72"/><circle class="cls-4" cx="88.28" cy="64.01" r="0.72"/><circle class="cls-4" cx="84.86" cy="74.68" r="1.2"/><circle class="cls-4" cx="91.35" cy="41.84" r="1.2"/><circle class="cls-4" cx="94.07" cy="77.16" r="0.9"/><circle class="cls-4" cx="93.77" cy="79.79" r="0.6"/><circle class="cls-4" cx="102.79" cy="59.74" r="0.6"/><path class="cls-3" d="M51.66,93.63a3.11,3.11,0,0,1,3.57-2.34l.18,0a3,3,0,0,1,1.53.88,6,6,0,0,1,1.87-2.15L58.9,90A6.1,6.1,0,0,1,61,89.08a5.7,5.7,0,0,1,1.89-.14,3.07,3.07,0,0,1,.52.06,3.27,3.27,0,0,1,.35-.73h0A1.78,1.78,0,0,1,64,88a3.25,3.25,0,0,1,3.3-1.13,3.38,3.38,0,0,1,1.43.75h0A3.26,3.26,0,0,1,69.63,89a6.07,6.07,0,0,1,2.87-.21,3.15,3.15,0,0,1,0-.92,1.81,1.81,0,0,1,1.35-3.32,1.91,1.91,0,0,1,1,.66,2.77,2.77,0,0,1,.64-.11,1.63,1.63,0,0,1,.38,0,5,5,0,0,1,.56.06,3.27,3.27,0,0,1,2.41,3.92,3.18,3.18,0,0,1-2.37,2.38,5.9,5.9,0,0,1-9.13,7.31,6.14,6.14,0,0,1-10.84-1.9,3.12,3.12,0,0,1-4.86-3.22Z"/><circle class="cls-3" cx="57.19" cy="87.82" r="1.56"/><path class="cls-3" d="M54.09,98.09A4.35,4.35,0,0,0,50.3,99a2.78,2.78,0,1,0-2.67,2.88,2.71,2.71,0,0,0,1.21-.33A4.35,4.35,0,1,0,54.11,98Z"/><path class="cls-3" d="M21.87,81.1a5.35,5.35,0,0,1,.45-1.21,5.19,5.19,0,0,1,4.25-2.72h.36a4.61,4.61,0,0,1,1.11.13,4.57,4.57,0,0,1,1.14.41q.26.14.51.3a2.11,2.11,0,0,1,.35.26,4.66,4.66,0,0,1,.61.56,3.1,3.1,0,1,1,5.49,2.78,9.13,9.13,0,0,1,1,.15l.06,0a6.6,6.6,0,0,1,1.77.7,6.85,6.85,0,0,1,1.88,1.46l.06.08a7.4,7.4,0,0,1,1.64,3.09,5.23,5.23,0,0,1,3.24-1.74q.38,0,.75,0a6,6,0,0,1,1,.15l.46.13a5.52,5.52,0,0,1,1.14.57,2.66,2.66,0,0,1,.29-.45,3.12,3.12,0,1,1,2,5,5.11,5.11,0,0,1-9.77,1.87A7.24,7.24,0,0,1,37.18,96a2.39,2.39,0,0,1,.1,1.35,2.27,2.27,0,0,1-4.42-1h0a2,2,0,0,1,.16-.54,7.25,7.25,0,0,1-4.63-8.51.07.07,0,0,1,0-.06,4.9,4.9,0,0,1-2.81.17A5.12,5.12,0,0,1,21.87,81.1Z"/><path class="cls-3" d="M15.9,81A2.45,2.45,0,0,1,17,79.48a2.5,2.5,0,0,1,2-.41A2.57,2.57,0,1,1,15.91,81Z"/><path class="cls-3" d="M28.29,76.44A2,2,0,1,0,26.78,74v0A2,2,0,0,0,28.29,76.44Z"/><circle class="cls-3" cx="20.08" cy="86.55" r="1.16"/><path class="cls-3" d="M60.84,101.64a1.65,1.65,0,1,0,1.24,2,1.65,1.65,0,0,0-1.24-2Z"/><path class="cls-3" d="M59.86,87.09a1,1,0,1,1,.76,1.21h0a1,1,0,0,1-.75-1.2Z"/><path class="cls-2" d="M68.71,87.56h0A3.15,3.15,0,0,1,69.64,89a5.91,5.91,0,0,1,2.86-.22,4.05,4.05,0,0,1,0-.92,1.82,1.82,0,0,1,1.36-3.32,2,2,0,0,1,1,.66,3.43,3.43,0,0,1,.64-.11,1.61,1.61,0,0,1,.38,0,4.13,4.13,0,0,1,.61,3,.88.88,0,0,1-.07.23,4.2,4.2,0,0,1-5,3.15h0a5.66,5.66,0,0,1-.9-.32h0a3.26,3.26,0,0,1-.4-.24h0a4.21,4.21,0,0,1-2-3.73A3.35,3.35,0,0,1,68.71,87.56Z"/><circle class="cls-2" cx="69.15" cy="93.09" r="2.4"/><path class="cls-2" d="M59.86,87.09a1,1,0,1,1,.76,1.21h0a1,1,0,0,1-.75-1.2Z"/><path class="cls-2" d="M58.82,90.05l.09-.06A6,6,0,0,1,61,89.06a5.47,5.47,0,0,1,1.89-.13,3,3,0,0,1,.52,0,3.77,3.77,0,0,1,.35-.73,6.35,6.35,0,0,1-.13.76,6.47,6.47,0,0,1-.28,1c-.59,1.39-1.6,2.31-2.57,2.3a.8.8,0,0,1-.34,0,1.56,1.56,0,0,1-.48-.14h0A2.84,2.84,0,0,1,58.82,90.05Z"/><path class="cls-2" d="M75.4,85.44l.11-.37a1.6,1.6,0,0,1,.38,0,4.87,4.87,0,0,1,.55.06,3.27,3.27,0,0,1,2.5,2.94,2.4,2.4,0,0,1-1.76.26,2.68,2.68,0,0,1-.68-.27A2.42,2.42,0,0,1,75.4,85.44Z"/><path class="cls-2" d="M55.2,91.4a.28.28,0,0,1,0-.13l.19,0a3.12,3.12,0,0,1,1.52.88,6.17,6.17,0,0,1,1.88-2.15l.09-.06a2.38,2.38,0,0,1,1,2.07h0a3.87,3.87,0,0,1-.06.46,2.4,2.4,0,0,1-4.64-1.1Z"/><path class="cls-2" d="M48.1,85.6a6.07,6.07,0,0,1,1.14.57,2.66,2.66,0,0,1,.29-.45,3.11,3.11,0,0,1,3.14-1.06,3,3,0,0,1,1.53.88,3.1,3.1,0,0,1-.09,1,3.06,3.06,0,0,1-6-.77Z"/><path class="cls-2" d="M44.48,87.28a3,3,0,0,1,1.38-1.92,4.71,4.71,0,0,1,.75,0,5.11,5.11,0,0,1,1,.14l.46.13a6.07,6.07,0,0,1,1.14.57,2.66,2.66,0,0,1,.29-.45,3.08,3.08,0,1,1-5.05,1.56Z"/><path class="cls-2" d="M29.43,79.72A5.08,5.08,0,0,1,30,78.26a4.66,4.66,0,0,1,.61.56,3.1,3.1,0,1,1,5.49,2.78,9.13,9.13,0,0,1,1,.15l.06,0a6.6,6.6,0,0,1,1.77.7,5,5,0,0,1-9.66-.84A4.91,4.91,0,0,1,29.43,79.72Z"/><circle class="cls-2" cx="38.36" cy="88.94" r="1.98"/><circle class="cls-2" cx="32.11" cy="85.99" r="1.53"/><circle class="cls-2" cx="32.15" cy="91.22" r="1.24"/><path class="cls-2" d="M22.33,79.89a5.16,5.16,0,0,1,4.25-2.72.08.08,0,0,1,.05.07,2.42,2.42,0,0,1,.31,1.87A2.49,2.49,0,0,1,24.88,81a2.7,2.7,0,0,1-1,0A2.57,2.57,0,0,1,22.33,79.89Z"/><ellipse class="cls-2" cx="24.47" cy="83.64" rx="1.25" ry="1.29" transform="translate(-62.55 88.3) rotate(-76.76)"/><path class="cls-2" d="M40.55,84.81a2.46,2.46,0,0,1,.37-.88L41,84a7.38,7.38,0,0,1,1.64,3.1,5.13,5.13,0,0,1,3.24-1.74,4.71,4.71,0,0,1,.75,0,2.92,2.92,0,0,1-.08.88,3.07,3.07,0,0,1-2.11,2.24,3.13,3.13,0,0,1-1.58,0,3.07,3.07,0,0,1-2.3-3.58A.37.37,0,0,1,40.55,84.81Z"/><path class="cls-2" d="M36.48,83a2.31,2.31,0,0,1,.68-1.19l.06,0A7.1,7.1,0,0,1,41,84,.27.27,0,0,1,41,84,2.34,2.34,0,1,1,36.48,83Z"/><path class="cls-2" d="M24.77,79.29a2.85,2.85,0,0,1,1.85-2.06l.31-.08a5.19,5.19,0,0,1,1.11.14,4.57,4.57,0,0,1,1.14.41q.26.14.51.3a2.85,2.85,0,0,1,.73,2.27,1.39,1.39,0,0,1-.1.33A2.84,2.84,0,0,1,27,82.85,2.87,2.87,0,0,1,24.82,81,3,3,0,0,1,24.77,79.29Z"/><path class="cls-2" d="M29.06,78a1.26,1.26,0,0,1,.1-.33,4.4,4.4,0,0,1,.51.29,5.46,5.46,0,0,1,1,.83,3,3,0,0,1,1.49-1.72,1.87,1.87,0,0,1,.55,1.79,1.91,1.91,0,0,1-2.23,1.39h0A1.9,1.9,0,0,1,29.06,78Z"/><circle class="cls-2" cx="31.92" cy="82.14" r="1.15"/><circle class="cls-2" cx="34.76" cy="80.16" r="1.15"/><circle class="cls-2" cx="43.11" cy="90.78" r="1.5"/><circle class="cls-2" cx="54.76" cy="100.76" r="1.5"/><circle class="cls-2" cx="52.95" cy="88.16" r="1.5"/><circle class="cls-2" cx="49.74" cy="91.69" r="1.15"/><circle class="cls-2" cx="51.71" cy="101.18" r="0.88"/><path class="cls-2" d="M62.87,88.93a3,3,0,0,1,.52,0,3.77,3.77,0,0,1,.35-.73h0a3.55,3.55,0,0,1,.23-.31,3.28,3.28,0,0,1,3.3-1.13,2.78,2.78,0,0,1,.89.36,2.67,2.67,0,0,1,.55.4h0a2.93,2.93,0,0,1,0,1.47l-.08.28a3,3,0,0,1-2.32,2,2.75,2.75,0,0,1-1.21,0A2.9,2.9,0,0,1,63.3,90,2.75,2.75,0,0,1,62.87,88.93Z"/><circle class="cls-2" cx="64.14" cy="94.18" r="1.5"/><circle class="cls-2" cx="75.2" cy="94.49" r="1.32"/><path class="cls-2" d="M60.46,90.18A2.62,2.62,0,0,1,61,89.06a5.47,5.47,0,0,1,1.89-.13,3,3,0,0,1,.52,0,3.77,3.77,0,0,1,.35-.73h0a3.55,3.55,0,0,1,.23-.31l.09,0a3,3,0,0,1,2.27,3.36.73.73,0,0,1-.07.24,3,3,0,0,1-1,1.68,3,3,0,0,1-4.81-3Z"/><circle class="cls-2" cx="73.24" cy="91.54" r="1.2"/><circle class="cls-2" cx="60.38" cy="96.38" r="0.95"/><circle class="cls-4" cx="53.79" cy="104.87" r="1.2"/><circle class="cls-4" cx="54.38" cy="95.8" r="0.96"/><circle class="cls-4" cx="61.12" cy="98.87" r="1.29"/><circle class="cls-4" cx="64.79" cy="98.53" r="0.72"/><circle class="cls-4" cx="47.99" cy="88.16" r="0.72"/><circle class="cls-4" cx="37.32" cy="84.74" r="1.2"/><circle class="cls-4" cx="70.16" cy="91.23" r="1.2"/><circle class="cls-4" cx="34.83" cy="93.95" r="0.9"/><circle class="cls-4" cx="32.2" cy="93.65" r="0.6"/><circle class="cls-4" cx="52.25" cy="102.66" r="0.6"/><path class="cls-3" d="M18.36,51.54a3.1,3.1,0,0,1,2.34,3.57.61.61,0,0,1-.05.18,3.18,3.18,0,0,1-.87,1.53,6.24,6.24,0,0,1,2.15,1.87l.05.09a6,6,0,0,1,1.08,4,3.07,3.07,0,0,1,0,.53,3.65,3.65,0,0,1,.72.34h0l.31.23a3.27,3.27,0,0,1,1.13,3.3,3,3,0,0,1-.36.89,2.15,2.15,0,0,1-.4.55h0a3.2,3.2,0,0,1-1.41.93,5.94,5.94,0,0,1,.22,2.87,3.22,3.22,0,0,1,.93,0,1.81,1.81,0,0,1,3.31,1.34,1.84,1.84,0,0,1-.66,1,3.55,3.55,0,0,1,.12.65,1.54,1.54,0,0,0,0,.37,2.7,2.7,0,0,1-.08.56,3.23,3.23,0,0,1-6.28,0,5.89,5.89,0,0,1-7.31-9.17,6.15,6.15,0,0,1,1.88-10.8,3.12,3.12,0,0,1,3.23-4.86Z"/><circle class="cls-3" cx="24.17" cy="57.07" r="1.56"/><path class="cls-3" d="M13.9,54A4.31,4.31,0,0,0,13,50.18a2.8,2.8,0,1,0-2.54-1.46A4.34,4.34,0,1,0,14,54Z"/><path class="cls-3" d="M30.89,21.75a5.35,5.35,0,0,1,1.21.45,5.18,5.18,0,0,1,2.72,4.25,1.1,1.1,0,0,0,0,.36A5,5,0,0,1,34.7,28a5.69,5.69,0,0,1-.42,1.13,5.24,5.24,0,0,1-.3.51c-.08.12-.16.24-.25.35a6.76,6.76,0,0,1-.57.62,3.06,3.06,0,0,1,1.71,1.49,3.1,3.1,0,0,1-4.5,4,5.2,5.2,0,0,1-.14,1l0,0a6.49,6.49,0,0,1-.68,1.78,7.29,7.29,0,0,1-1.47,1.88l-.09.07a7.5,7.5,0,0,1-3.09,1.63,5.16,5.16,0,0,1,1.74,3.25,4.66,4.66,0,0,1,0,.75,5.93,5.93,0,0,1-.13,1l-.14.46a5,5,0,0,1-.57,1.16,2.66,2.66,0,0,1,.45.29,3.1,3.1,0,1,1-5,2,6,6,0,0,1-.95-.13,5.12,5.12,0,0,1-.94-9.66A7.19,7.19,0,0,1,16,37.13a2.29,2.29,0,1,1-.47-4.36l.17,0a2.66,2.66,0,0,1,.53.21,7.26,7.26,0,0,1,8.51-4.64h0a5.1,5.1,0,0,1,6-6.63Z"/><path class="cls-3" d="M31,15.78a2.49,2.49,0,0,1,1.54,1.07,2.53,2.53,0,0,1,.4,2,2.42,2.42,0,0,1-.66,1.2A2.57,2.57,0,1,1,31,15.76Z"/><path class="cls-3" d="M35.56,28.12A2,2,0,1,0,38,26.61h0A2,2,0,0,0,35.56,28.12Z"/><circle class="cls-3" cx="25.45" cy="19.95" r="1.16"/><path class="cls-3" d="M10.36,60.72a1.66,1.66,0,1,0-2,1.23h0A1.66,1.66,0,0,0,10.36,60.72Z"/><path class="cls-3" d="M24.89,59.78a1,1,0,0,1,.85,1.14,1,1,0,0,1-1.15.85l-.16,0a1,1,0,0,1-.77-1.1.52.52,0,0,1,0-.11,1,1,0,0,1,1.2-.75Z"/><path class="cls-2" d="M24.44,68.56h0a3.26,3.26,0,0,1-1.41.93,5.94,5.94,0,0,1,.22,2.87,2.84,2.84,0,0,1,.92,0,1.81,1.81,0,0,1,3.32,1.34,1.85,1.85,0,0,1-.69,1,3.55,3.55,0,0,1,.12.65,1.54,1.54,0,0,0,0,.37,4.2,4.2,0,0,1-3,.62l-.23-.07a4.23,4.23,0,0,1-3.14-5.06,3.94,3.94,0,0,1,.32-.89h0A1.9,1.9,0,0,1,21.1,70h0a3.92,3.92,0,0,1,1.57-1.45A4.14,4.14,0,0,1,24.8,68,2.54,2.54,0,0,1,24.44,68.56Z"/><circle class="cls-2" cx="18.9" cy="69.03" r="2.4"/><path class="cls-2" d="M24.89,59.78a1,1,0,0,1,.85,1.14,1,1,0,0,1-1.15.85l-.16,0a1,1,0,0,1-.77-1.1.52.52,0,0,1,0-.11,1,1,0,0,1,1.2-.75Z"/><path class="cls-2" d="M21.94,58.7l.06.08a5.89,5.89,0,0,1,.92,2.08,5.66,5.66,0,0,1,.14,1.88,3.07,3.07,0,0,1,0,.53,3.65,3.65,0,0,1,.72.34,6.5,6.5,0,0,1-.75-.12,4.89,4.89,0,0,1-1-.29c-1.39-.57-2.31-1.58-2.3-2.56a1.27,1.27,0,0,1,0-.34,1.54,1.54,0,0,1,.19-.46h0A2.83,2.83,0,0,1,21.94,58.7Z"/><path class="cls-2" d="M26.55,75.28a2.38,2.38,0,0,1,.38.11,1.54,1.54,0,0,0,0,.37,3.43,3.43,0,0,1-.07.56,3.26,3.26,0,0,1-2.94,2.5,2.42,2.42,0,0,1-.26-1.76,2.68,2.68,0,0,1,.27-.68A2.41,2.41,0,0,1,26.55,75.28Z"/><path class="cls-2" d="M20.58,55.06l.12,0a.41.41,0,0,1-.05.18,3.14,3.14,0,0,1-.87,1.53,6.17,6.17,0,0,1,2.15,1.88l.05.08a2.38,2.38,0,0,1-2.07,1h0a3.11,3.11,0,0,1-.44-.06,2.41,2.41,0,0,1,1.08-4.64Z"/><path class="cls-2" d="M26.39,48a5.39,5.39,0,0,1-.58,1.18,2.66,2.66,0,0,1,.45.29,3.1,3.1,0,0,1,.53,4.36,3,3,0,0,1-.29.32,3.16,3.16,0,0,1-.92-.08,3.06,3.06,0,0,1,.77-6Z"/><path class="cls-2" d="M24.7,44.34a3.14,3.14,0,0,1,1.92,1.4,4.71,4.71,0,0,1,0,.75,5,5,0,0,1-.13,1l-.13.46a5.39,5.39,0,0,1-.58,1.18,2.66,2.66,0,0,1,.45.29,3.07,3.07,0,1,1-4.54-4.14,3,3,0,0,1,1.81-1A3.29,3.29,0,0,1,24.7,44.34Z"/><path class="cls-2" d="M32.27,29.31a4.87,4.87,0,0,1,1.47.61c-.18.21-.37.42-.57.62A3,3,0,0,1,34.88,32a3.1,3.1,0,0,1-4.49,4,6.06,6.06,0,0,1-.15,1v.06a7.14,7.14,0,0,1-.69,1.78,5,5,0,0,1,2.74-9.61Z"/><circle class="cls-2" cx="23.05" cy="38.24" r="1.98"/><circle class="cls-2" cx="26.01" cy="31.99" r="1.53"/><circle class="cls-2" cx="20.77" cy="32.03" r="1.24"/><path class="cls-2" d="M32.08,22.24a5.18,5.18,0,0,1,2.73,4.25l-.09.05a2.39,2.39,0,0,1-1.86.31A2.49,2.49,0,0,1,31,24.8a2.74,2.74,0,0,1,0-1A2.7,2.7,0,0,1,32.08,22.24Z"/><ellipse class="cls-2" cx="28.37" cy="24.34" rx="1.29" ry="1.25" transform="matrix(0.23, -0.97, 0.97, 0.23, -1.82, 46.38)"/><path class="cls-2" d="M27.18,40.43a2.62,2.62,0,0,1,.88.37l-.08.06a7.61,7.61,0,0,1-3.1,1.64,5.11,5.11,0,0,1,1.74,3.24,4.71,4.71,0,0,1,0,.75,3.28,3.28,0,0,1-.88-.08,3.08,3.08,0,0,1-2.24-2.11,3.17,3.17,0,0,1-.05-1.59,3.07,3.07,0,0,1,3.59-2.3Z"/><path class="cls-2" d="M29.07,36.36a2.5,2.5,0,0,1,1.18.7v0a7.3,7.3,0,0,1-2.17,3.69l-.09.06a2.2,2.2,0,0,1-.86-.44,2.31,2.31,0,0,1,1.95-4.06Z"/><path class="cls-2" d="M32.7,24.64a2.87,2.87,0,0,1,2.06,1.86,2.33,2.33,0,0,1,.08.31A5,5,0,0,1,34.7,28a5.69,5.69,0,0,1-.42,1.13,5.24,5.24,0,0,1-.3.51,2.83,2.83,0,0,1-2.27.74l-.32-.1a2.85,2.85,0,0,1-.38-5.5A3,3,0,0,1,32.7,24.64Z"/><path class="cls-2" d="M34,28.94a1,1,0,0,1,.33.1c-.09.17-.19.34-.29.51a5.41,5.41,0,0,1-.82,1A3,3,0,0,1,34.89,32a1.82,1.82,0,0,1-1.74.57,1.85,1.85,0,0,1-1.4-2.21v0h0A1.91,1.91,0,0,1,34,28.94Z"/><circle class="cls-2" cx="29.84" cy="31.79" r="1.15"/><circle class="cls-2" cx="31.83" cy="34.63" r="1.15"/><circle class="cls-2" cx="21.21" cy="42.98" r="1.5"/><circle class="cls-2" cx="11.23" cy="54.64" r="1.5"/><circle class="cls-2" cx="23.84" cy="52.83" r="1.5"/><circle class="cls-2" cx="20.31" cy="49.61" r="1.15"/><circle class="cls-2" cx="10.81" cy="51.58" r="0.88"/><path class="cls-2" d="M23.07,62.74a3.07,3.07,0,0,1-.05.53,3.65,3.65,0,0,1,.72.34h0l.31.23a3.28,3.28,0,0,1,1.13,3.3,2.78,2.78,0,0,1-.36.89,2.73,2.73,0,0,1-.4.56h0a3,3,0,0,1-1.47,0,1.38,1.38,0,0,1-.29-.08,3,3,0,0,1-2-2.31,3,3,0,0,1,0-1.22A3,3,0,0,1,22,63.17,3.11,3.11,0,0,1,23.07,62.74Z"/><circle class="cls-2" cx="17.81" cy="64.02" r="1.5"/><circle class="cls-2" cx="17.51" cy="75.08" r="1.32"/><path class="cls-2" d="M21.82,60.33a2.92,2.92,0,0,1,1.11.53,5.68,5.68,0,0,1,.14,1.88,3.07,3.07,0,0,1-.05.53,3.65,3.65,0,0,1,.72.34h0l.31.23a.29.29,0,0,1,0,.09,3,3,0,0,1-3.37,2.28,1.09,1.09,0,0,1-.24-.07,3,3,0,1,1,1.38-5.86Z"/><circle class="cls-2" cx="20.46" cy="73.11" r="1.2"/><circle class="cls-2" cx="15.6" cy="60.26" r="0.95"/><circle class="cls-4" cx="7.11" cy="53.66" r="1.2"/><circle class="cls-4" cx="16.18" cy="54.26" r="0.96"/><circle class="cls-4" cx="13.13" cy="61" r="1.29"/><circle class="cls-4" cx="13.46" cy="64.67" r="0.72"/><circle class="cls-4" cx="23.83" cy="47.85" r="0.72"/><circle class="cls-4" cx="27.26" cy="37.19" r="1.2"/><circle class="cls-4" cx="20.76" cy="70.04" r="1.2"/><circle class="cls-4" cx="18.04" cy="34.7" r="0.9"/><circle class="cls-4" cx="18.35" cy="32.08" r="0.6"/><circle class="cls-4" cx="9.32" cy="52.13" r="0.6"/><path class="cls-3" d="M60.45,18.23a3.12,3.12,0,0,1-3.55,2.33l-.19-.06a3.12,3.12,0,0,1-1.53-.88,6,6,0,0,1-1.88,2.15l-.07.06a6.1,6.1,0,0,1-2.1,1,6,6,0,0,1-1.89.13,3.07,3.07,0,0,1-.53,0,4,4,0,0,1-.34.73h0a1.14,1.14,0,0,1-.23.31,3.3,3.3,0,0,1-3.3,1.13,2.78,2.78,0,0,1-.89-.36,3.17,3.17,0,0,1-.56-.4h0a3.33,3.33,0,0,1-.92-1.41,6,6,0,0,1-2.87.21,2.84,2.84,0,0,1,0,.92,1.82,1.82,0,0,1-1.34,3.33,1.93,1.93,0,0,1-1-.66,3.76,3.76,0,0,1-.66.1,1.14,1.14,0,0,1-.37,0,3.43,3.43,0,0,1-.56-.06,3.22,3.22,0,0,1-2.42-3.87v0a3.21,3.21,0,0,1,2.38-2.38,5.9,5.9,0,0,1,9.14-7.36A6.14,6.14,0,0,1,55.6,15a3.1,3.1,0,0,1,4.85,3.21Z"/><circle class="cls-3" cx="54.92" cy="24.05" r="1.56"/><path class="cls-3" d="M58,13.78a4.36,4.36,0,0,0,3.8-.92,2.78,2.78,0,1,0,1.46-2.55A4.34,4.34,0,1,0,58,13.8Z"/><path class="cls-3" d="M90.24,30.77a4.36,4.36,0,0,1-.45,1.2,5.13,5.13,0,0,1-4.24,2.73h-.37a4.67,4.67,0,0,1-1.11-.13,5.18,5.18,0,0,1-1.14-.41,4.94,4.94,0,0,1-.49-.3,1.52,1.52,0,0,1-.35-.26,3.31,3.31,0,0,1-.62-.56,3.1,3.1,0,0,1-6-1.74,2.82,2.82,0,0,1,.45-1,6.06,6.06,0,0,1-1-.15h-.05a7.17,7.17,0,0,1-1.78-.7A6.51,6.51,0,0,1,71.23,28l-.08-.08a7.5,7.5,0,0,1-1.63-3.09,5.16,5.16,0,0,1-3.24,1.74,4.78,4.78,0,0,1-.76,0,4.91,4.91,0,0,1-1-.14l-.46-.13a5.47,5.47,0,0,1-1.16-.58,3.46,3.46,0,0,1-.29.45,3.09,3.09,0,0,1-4.34.54,3.38,3.38,0,0,1-.35-.31,3.1,3.1,0,0,1,2.64-5.18,5.11,5.11,0,0,1,9.77-1.86A7.26,7.26,0,0,1,74.89,16a2.27,2.27,0,1,1,4.32-.31,2.44,2.44,0,0,1-.21.53,7.27,7.27,0,0,1,4.64,8.51.14.14,0,0,1,0,.06,5,5,0,0,1,2.83-.17A5.13,5.13,0,0,1,90.24,30.77Z"/><path class="cls-3" d="M96.21,30.85a2.47,2.47,0,0,1-1.07,1.54,2.51,2.51,0,0,1-2,.41,2.57,2.57,0,1,1,3.08-1.92h0Z"/><path class="cls-3" d="M83.83,35.43a2,2,0,1,0,1.52,2.45v0A2,2,0,0,0,83.83,35.43Z"/><circle class="cls-3" cx="92.04" cy="25.32" r="1.16"/><path class="cls-3" d="M51.27,10.23a1.65,1.65,0,1,0-1.23-2,1.66,1.66,0,0,0,1.23,2Z"/><path class="cls-3" d="M52.26,24.78a1,1,0,1,1-.76-1.21h0a1,1,0,0,1,.77,1.1A.36.36,0,0,1,52.26,24.78Z"/><path class="cls-2" d="M43.4,24.31h0a3.26,3.26,0,0,1-.93-1.41,5.91,5.91,0,0,1-2.86.22,3.08,3.08,0,0,1,0,.91,1.82,1.82,0,0,1-1.35,3.33,1.94,1.94,0,0,1-1-.64,3.76,3.76,0,0,1-.66.1,1.14,1.14,0,0,1-.37,0,4.09,4.09,0,0,1-.61-3,2.17,2.17,0,0,1,.07-.24,4.22,4.22,0,0,1,5.06-3.14h0a5.92,5.92,0,0,1,.89.32h0A3.26,3.26,0,0,1,42,21h0A4.22,4.22,0,0,1,44,24.71,3.17,3.17,0,0,1,43.4,24.31Z"/><circle class="cls-2" cx="42.96" cy="18.77" r="2.4"/><path class="cls-2" d="M52.26,24.78a1,1,0,1,1-.76-1.21h0a1,1,0,0,1,.77,1.1A.36.36,0,0,1,52.26,24.78Z"/><path class="cls-2" d="M53.29,21.81l-.08.07a6.16,6.16,0,0,1-2.08,1,6,6,0,0,1-1.89.13,3.07,3.07,0,0,1-.53,0,4,4,0,0,1-.34.73,5.16,5.16,0,0,1,.13-.77,5.42,5.42,0,0,1,.29-1c.58-1.39,1.58-2.31,2.56-2.31a1.27,1.27,0,0,1,.34,0,1.54,1.54,0,0,1,.46.19h0A2.85,2.85,0,0,1,53.29,21.81Z"/><path class="cls-2" d="M36.71,26.42a1.66,1.66,0,0,1-.11.38,1.53,1.53,0,0,1-.37,0,3.43,3.43,0,0,1-.56-.07,3.27,3.27,0,0,1-2.5-2.93,2.4,2.4,0,0,1,1.76-.26,2.91,2.91,0,0,1,.69.27A2.42,2.42,0,0,1,36.71,26.42Z"/><path class="cls-2" d="M56.93,20.46l0,.1-.19-.06a3.12,3.12,0,0,1-1.53-.88,6,6,0,0,1-1.88,2.15l-.07.06a2.39,2.39,0,0,1-1-2.07h0a2.41,2.41,0,0,1,4.8.43l0,.23Z"/><path class="cls-2" d="M64,26.27a5.7,5.7,0,0,1-1.13-.57,3.46,3.46,0,0,1-.29.45,3.09,3.09,0,0,1-4.34.54,3.38,3.38,0,0,1-.35-.31,4,4,0,0,1,.08-.92,3.07,3.07,0,0,1,6.06.78Z"/><path class="cls-2" d="M67.64,24.58a3,3,0,0,1-1.39,1.92,4.71,4.71,0,0,1-.75,0,5,5,0,0,1-1-.14L64,26.26a5.41,5.41,0,0,1-1.13-.56,3.46,3.46,0,0,1-.29.45,3.07,3.07,0,0,1-.16-4.35,3,3,0,0,1,2.93-.91,3.1,3.1,0,0,1,2.35,2.52A3.29,3.29,0,0,1,67.64,24.58Z"/><path class="cls-2" d="M82.68,32.15a4.79,4.79,0,0,1-.6,1.46,3.59,3.59,0,0,1-.61-.56,3.1,3.1,0,0,1-6-1.74,2.82,2.82,0,0,1,.45-1,6.06,6.06,0,0,1-1-.15l-.05,0a6.52,6.52,0,0,1-1.78-.69,5,5,0,0,1,9.66.83A5.22,5.22,0,0,1,82.68,32.15Z"/><circle class="cls-2" cx="73.75" cy="22.93" r="1.98"/><circle class="cls-2" cx="80" cy="25.88" r="1.53"/><circle class="cls-2" cx="79.96" cy="20.65" r="1.24"/><path class="cls-2" d="M89.79,32a5.13,5.13,0,0,1-4.24,2.73l-.06-.07a2.46,2.46,0,0,1-.31-1.87,2.49,2.49,0,0,1,2-1.87,2.73,2.73,0,0,1,1,0A2.61,2.61,0,0,1,89.79,32Z"/><ellipse class="cls-2" cx="87.66" cy="28.23" rx="1.25" ry="1.29" transform="translate(40.11 107.09) rotate(-76.76)"/><path class="cls-2" d="M71.57,27.06a3.1,3.1,0,0,1-.37.88l-.07-.08a7.29,7.29,0,0,1-1.64-3.09,5.13,5.13,0,0,1-3.24,1.74,4.71,4.71,0,0,1-.75,0,3.7,3.7,0,0,1,.08-.88,3.1,3.1,0,0,1,6-.25A3.14,3.14,0,0,1,71.62,27,.22.22,0,0,0,71.57,27.06Z"/><path class="cls-2" d="M75.63,28.93a2.41,2.41,0,0,1-.69,1.18h-.06a7.13,7.13,0,0,1-3.67-2.17l-.08-.09a2.32,2.32,0,0,1,3.7-1.25,2.28,2.28,0,0,1,.8,2.33Z"/><path class="cls-2" d="M87.35,32.58a2.91,2.91,0,0,1-1.86,2.05,1.09,1.09,0,0,1-.31.08,4.61,4.61,0,0,1-1.11-.13,5,5,0,0,1-1.14-.41,5.09,5.09,0,0,1-.5-.3,2.85,2.85,0,0,1-.73-2.27,1.59,1.59,0,0,1,.09-.33A2.86,2.86,0,0,1,85.15,29a2.86,2.86,0,0,1,2.2,3.55Z"/><path class="cls-2" d="M83.06,33.84a1.26,1.26,0,0,1-.1.33,3.6,3.6,0,0,1-.5-.29,4.79,4.79,0,0,1-1-.83A3.08,3.08,0,0,1,80,34.77,1.83,1.83,0,0,1,79.46,33,1.9,1.9,0,0,1,81.7,31.6h0A1.9,1.9,0,0,1,83.06,33.84Z"/><circle class="cls-2" cx="80.19" cy="29.72" r="1.15"/><circle class="cls-2" cx="77.36" cy="31.71" r="1.15"/><circle class="cls-2" cx="69.01" cy="21.09" r="1.5"/><circle class="cls-2" cx="57.35" cy="11.11" r="1.5"/><circle class="cls-2" cx="59.16" cy="23.71" r="1.5"/><circle class="cls-2" cx="62.38" cy="20.18" r="1.15"/><circle class="cls-2" cx="60.41" cy="10.69" r="0.88"/><path class="cls-2" d="M49.25,22.94a3.07,3.07,0,0,1-.53-.05,4,4,0,0,1-.34.73h0c0,.12-.16.21-.23.31a3.28,3.28,0,0,1-3.3,1.13A2.78,2.78,0,0,1,44,24.7a2.73,2.73,0,0,1-.56-.4h0a2.72,2.72,0,0,1,0-1.47,1,1,0,0,1,.08-.29,3,3,0,0,1,2.31-2,2.91,2.91,0,0,1,1.21.09,3,3,0,0,1,1.83,1.29A3.37,3.37,0,0,1,49.25,22.94Z"/><circle class="cls-2" cx="47.97" cy="17.69" r="1.5"/><circle class="cls-2" cx="36.92" cy="17.38" r="1.32"/><path class="cls-2" d="M51.66,21.69a2.94,2.94,0,0,1-.52,1.12,5.73,5.73,0,0,1-1.89.13,3.07,3.07,0,0,1-.53-.05,4,4,0,0,1-.34.73h0c0,.12-.16.21-.23.31l-.09,0a3,3,0,0,1-2.28-3.36.61.61,0,0,1,.07-.24,2.91,2.91,0,0,1,1-1.68,3,3,0,0,1,4.82,3Z"/><circle class="cls-2" cx="38.88" cy="20.33" r="1.2"/><circle class="cls-2" cx="51.73" cy="15.48" r="0.95"/><circle class="cls-4" cx="58.32" cy="6.99" r="1.2"/><circle class="cls-4" cx="57.73" cy="16.06" r="0.96"/><circle class="cls-4" cx="50.99" cy="13" r="1.29"/><circle class="cls-4" cx="47.32" cy="13.34" r="0.72"/><circle class="cls-4" cx="64.13" cy="23.7" r="0.72"/><circle class="cls-4" cx="74.8" cy="27.13" r="1.2"/><circle class="cls-4" cx="41.96" cy="20.64" r="1.2"/><circle class="cls-4" cx="77.29" cy="17.92" r="0.9"/><circle class="cls-4" cx="79.91" cy="18.22" r="0.6"/><circle class="cls-4" cx="59.87" cy="9.21" r="0.6"/><circle class="cls-2" cx="43.93" cy="26.17" r="1.87"/><circle class="cls-2" cx="85.57" cy="43.36" r="2.07"/><circle class="cls-2" cx="68.22" cy="84.77" r="1.69"/><circle class="cls-2" cx="25.87" cy="68.53" r="2.05"/><circle class="cls-2" cx="28.67" cy="40.95" r="1.85"/><circle class="cls-2" cx="82.93" cy="71.23" r="1.52"/><circle class="cls-2" cx="12.94" cy="40.61" r="1.77"/><circle class="cls-2" cx="40.84" cy="98.21" r="1.77"/><circle class="cls-2" cx="98.28" cy="70.86" r="1.77"/><circle class="cls-2" cx="86.21" cy="20.05" r="1.77"/><circle class="cls-3" cx="44.3" cy="10.19" r="1.17"/><circle class="cls-3" cx="100.92" cy="42.78" r="1.38"/><circle class="cls-3" cx="89.8" cy="85.88" r="1.28"/><circle class="cls-3" cx="27.86" cy="90.35" r="2.14"/><circle class="cls-3" cx="21.67" cy="25.63" r="1.9"/><circle class="cls-1" cx="63.46" cy="85.62" r="1.68"/><circle class="cls-1" cx="51.59" cy="28.46" r="1.33"/><circle class="cls-1" cx="70.39" cy="81.78" r="1.8"/></svg>