<?xml version="1.0" encoding="UTF-8" standalone="no"?>
<!-- Created with Inkscape (http://www.inkscape.org/) -->

<svg
   width="200"
   height="200"
   viewBox="0 0 52.916666 52.916669"
   version="1.1"
   id="svg5"
   xml:space="preserve"
   inkscape:version="1.2 (dc2aedaf03, 2022-05-15)"
   sodipodi:docname="Array Tile_Outback.svg"
   inkscape:export-filename="..\outbackbanner.png"
   inkscape:export-xdpi="96"
   inkscape:export-ydpi="96"
   xmlns:inkscape="http://www.inkscape.org/namespaces/inkscape"
   xmlns:sodipodi="http://sodipodi.sourceforge.net/DTD/sodipodi-0.dtd"
   xmlns="http://www.w3.org/2000/svg"
   xmlns:svg="http://www.w3.org/2000/svg"><sodipodi:namedview
     id="namedview7"
     pagecolor="#505050"
     bordercolor="#ffffff"
     borderopacity="1"
     inkscape:showpageshadow="0"
     inkscape:pageopacity="0"
     inkscape:pagecheckerboard="1"
     inkscape:deskcolor="#505050"
     inkscape:document-units="mm"
     showgrid="false"
     showguides="false"
     inkscape:zoom="1.1141857"
     inkscape:cx="-75.391382"
     inkscape:cy="45.773339"
     inkscape:window-width="1366"
     inkscape:window-height="705"
     inkscape:window-x="-8"
     inkscape:window-y="-8"
     inkscape:window-maximized="1"
     inkscape:current-layer="layer1" /><defs
     id="defs2"><inkscape:path-effect
       effect="tiling"
       id="path-effect2236"
       is_visible="true"
       lpeversion="1"
       unit="px"
       seed="1;1"
       lpesatellites=""
       num_rows="2"
       num_cols="1"
       gapx="0"
       gapy="9"
       offset="98"
       offset_type="false"
       scale="0"
       rotate="0"
       mirrorrowsx="false"
       mirrorrowsy="false"
       mirrorcolsx="false"
       mirrorcolsy="false"
       mirrortrans="false"
       shrink_interp="false"
       split_items="false"
       link_styles="false"
       interpolate_scalex="false"
       interpolate_scaley="true"
       interpolate_rotatex="false"
       interpolate_rotatey="true"
       random_scale="false"
       random_rotate="false"
       random_gap_y="false"
       random_gap_x="false"
       transformorigin="" /><inkscape:path-effect
       effect="tiling"
       id="path-effect1855"
       is_visible="true"
       lpeversion="1"
       unit="px"
       seed="1;1"
       lpesatellites=""
       num_rows="2"
       num_cols="1"
       gapx="0"
       gapy="9"
       offset="98"
       offset_type="false"
       scale="0"
       rotate="0"
       mirrorrowsx="false"
       mirrorrowsy="false"
       mirrorcolsx="false"
       mirrorcolsy="false"
       mirrortrans="false"
       shrink_interp="false"
       split_items="false"
       link_styles="false"
       interpolate_scalex="false"
       interpolate_scaley="true"
       interpolate_rotatex="false"
       interpolate_rotatey="true"
       random_scale="false"
       random_rotate="false"
       random_gap_y="false"
       random_gap_x="false"
       transformorigin="matrix(0.90569569,0,0,0.90569569,14.334878,12.574662)" /><inkscape:path-effect
       effect="tiling"
       id="path-effect66739"
       is_visible="true"
       lpeversion="1"
       unit="px"
       seed="1;1"
       lpesatellites=""
       num_rows="2"
       num_cols="1"
       gapx="-8"
       gapy="9"
       offset="127"
       offset_type="false"
       scale="0"
       rotate="0"
       mirrorrowsx="false"
       mirrorrowsy="false"
       mirrorcolsx="false"
       mirrorcolsy="false"
       mirrortrans="false"
       shrink_interp="false"
       split_items="false"
       link_styles="false"
       interpolate_scalex="false"
       interpolate_scaley="true"
       interpolate_rotatex="false"
       interpolate_rotatey="true"
       random_scale="false"
       random_rotate="false"
       random_gap_y="false"
       random_gap_x="false"
       transformorigin="" /><inkscape:path-effect
       effect="tiling"
       id="path-effect4676"
       is_visible="true"
       lpeversion="1"
       unit="px"
       seed="1;1"
       lpesatellites=""
       num_rows="2"
       num_cols="1"
       gapx="66"
       gapy="13"
       offset="55"
       offset_type="false"
       scale="0"
       rotate="0"
       mirrorrowsx="false"
       mirrorrowsy="false"
       mirrorcolsx="false"
       mirrorcolsy="false"
       mirrortrans="false"
       shrink_interp="false"
       split_items="false"
       link_styles="false"
       interpolate_scalex="false"
       interpolate_scaley="true"
       interpolate_rotatex="false"
       interpolate_rotatey="true"
       random_scale="false"
       random_rotate="false"
       random_gap_y="false"
       random_gap_x="false"
       transformorigin="matrix(1.2771788,0,0,1.2771788,-27.529301,-27.865582)" /><style
       id="style6175">.cls-1{fill:url(#linear-gradient);}.cls-2{fill:#ba2e7e;}.cls-3{fill:url(#linear-gradient-2);}.cls-4{fill:#ffcd05;}.cls-5{fill:#fabc2e;}.cls-6,.cls-7{fill-opacity:0.5;}.cls-6{fill:url(#radial-gradient);}.cls-7{fill:url(#radial-gradient-2);}.cls-8{fill:#9a1c25;}.cls-9{fill:#fff;}.cls-10{fill:#32160f;}.cls-11,.cls-13{fill:#61727c;}.cls-12{fill:#92a1ad;}.cls-13{opacity:0.25;}.cls-14{fill:#bc6234;}.cls-15{fill:#f6871f;}.cls-16{fill:#9e1f63;}.cls-17{fill:#f4fbfe;}</style></defs><g
     inkscape:label="Layer 1"
     inkscape:groupmode="layer"
     id="layer1"
     transform="translate(-99.319644,-100.53287)"><g
       id="g2234"
       inkscape:path-effect="#path-effect2236"
       class="UnoptimicedTransforms"
       transform="translate(0.25105292,0.18072833)"
       style="fill:#ffffff;fill-opacity:1"><path
         id="rect374"
         style="fill:#ffffff;fill-opacity:1;stroke:none;stroke-width:0.64877;stroke-linejoin:round;stop-color:#000000"
         d="m 100.40122,100.53309 c -0.18599,0.002 -0.35774,0.11459 -0.449306,0.3206 l -0.367405,0.82561 c -0.265423,0.5972 -0.338796,1.66662 -0.186276,2.26293 0.129894,0.50781 0.842197,1.72963 1.398007,2.24796 v 4.06906 c 0,1.78564 1.43723,3.2238 3.22287,3.2238 1.23249,0 2.29886,-0.68552 2.84141,-1.69709 0.44925,0.2367 0.87445,0.53017 1.27351,0.92717 -0.0166,0.1885 -0.025,0.37759 -0.0253,0.56679 0.005,2.50845 1.43381,4.80258 3.69979,5.93884 l -0.66133,-3.87576 c -0.0812,-0.24203 -0.14899,-0.48948 -0.19283,-0.74137 v -0.002 c -0.41232,-2.41585 0.97346,-4.72316 3.16483,-5.36972 v 0.70345 c -1.75,0.62205 -2.85111,2.52225 -2.50537,4.55301 v 0.002 c 0.0408,0.23375 0.0991,0.46248 0.17691,0.68613 0.006,0.0179 0.0112,0.0364 0.0145,0.0552 l 1.29271,7.57603 2.22736,-0.38005 2.05184,-4.92134 c 0.0255,-0.0621 0.0693,-0.11518 0.12544,-0.15211 0.57905,-0.37883 1.03692,-0.9075 1.34465,-1.52157 h 0.73528 c -0.33881,0.8097 -0.89482,1.51607 -1.62781,2.02096 l -0.49097,1.58989 c 0.4058,1.28799 1.04973,2.55758 1.6559,3.62678 0.531,0.93658 1.42827,1.75407 2.44358,2.11223 0.82526,0.29111 1.85587,0.32971 2.62332,-0.0908 0.80808,-0.44273 1.81168,-2.12533 1.56791,-2.27697 -0.24378,-0.15163 -1.83982,1.70024 -2.57839,1.41205 -0.62382,-0.24341 -1.63674,-1.08448 -1.77992,-1.69989 -0.6022,-2.58852 -0.0409,-6.04674 0.14696,-8.15966 0.0608,-0.35869 0.0918,-0.72169 0.0927,-1.08536 -1e-5,-3.68652 -3.02813,-6.67505 -6.76352,-6.67506 -0.87602,0.002 -1.74328,0.17222 -2.55358,0.50079 -1.64754,0.01 -3.33742,-0.0494 -5.07626,-0.88224 v -0.0332 c 0.55581,-0.51833 1.26765,-1.74015 1.39754,-2.24796 0.15252,-0.59631 0.0792,-1.66573 -0.18628,-2.26293 l -0.36694,-0.82561 c -0.14662,-0.3299 -0.49882,-0.42024 -0.78582,-0.20125 l -0.7189,0.54853 c -0.51956,0.39641 -1.09711,1.29875 -1.24964,1.89506 -0.10021,0.39179 -0.10051,1.32329 0.014,2.05981 h -2.65468 c 0.11462,-0.73652 0.11478,-1.66802 0.0145,-2.05981 -0.15254,-0.59631 -0.73055,-1.49865 -1.25011,-1.89506 l -0.7189,-0.54853 c -0.10748,-0.082 -0.22401,-0.1204 -0.33558,-0.11935 z m 2.66404,9.49963 h 1.90769 c 0.37756,2.6e-4 0.58625,0.43807 0.34869,0.73153 l -0.71048,0.87756 c -0.30494,0.37646 -0.87917,0.37646 -1.18411,0 l -0.71048,-0.87756 c -0.23756,-0.29346 -0.0289,-0.73127 0.34869,-0.73153 z m 23.27852,17.96861 c -0.18599,0.002 -0.35774,0.11459 -0.44931,0.3206 l -0.3674,0.82561 c -0.26542,0.5972 -0.3388,1.66662 -0.18628,2.26293 0.1299,0.50781 0.8422,1.72963 1.39801,2.24796 v 4.06906 c 0,1.78564 1.43723,3.2238 3.22287,3.2238 1.23249,0 2.29886,-0.68552 2.84141,-1.69709 0.44925,0.2367 0.87445,0.53017 1.27351,0.92717 -0.0166,0.1885 -0.025,0.37759 -0.0253,0.56679 0.005,2.50845 1.43381,4.80258 3.69979,5.93884 l -0.66133,-3.87576 c -0.0812,-0.24203 -0.14899,-0.48948 -0.19283,-0.74137 v -0.002 c -0.41232,-2.41585 0.97346,-4.72316 3.16483,-5.36972 v 0.70345 c -1.75,0.62205 -2.85111,2.52225 -2.50537,4.55301 v 0.002 c 0.0408,0.23375 0.0991,0.46248 0.17691,0.68613 0.006,0.0179 0.0112,0.0364 0.0145,0.0552 l 1.29271,7.57603 2.22736,-0.38005 2.05184,-4.92134 c 0.0255,-0.0621 0.0693,-0.11518 0.12544,-0.15211 0.57905,-0.37883 1.03692,-0.9075 1.34465,-1.52157 h 0.73528 c -0.33881,0.8097 -0.89482,1.51607 -1.62781,2.02096 l -0.49097,1.58989 c 0.4058,1.28799 1.04973,2.55758 1.6559,3.62678 0.531,0.93658 1.42827,1.75407 2.44358,2.11223 0.82526,0.29111 1.85587,0.32971 2.62332,-0.0908 0.80808,-0.44273 1.81168,-2.12533 1.56791,-2.27697 -0.24378,-0.15163 -1.83982,1.70024 -2.57839,1.41205 -0.62382,-0.24341 -1.63674,-1.08448 -1.77992,-1.69989 -0.6022,-2.58852 -0.0409,-6.04674 0.14696,-8.15966 0.0608,-0.35869 0.0918,-0.72169 0.0927,-1.08536 -1e-5,-3.68652 -3.02813,-6.67505 -6.76352,-6.67506 -0.87602,0.002 -1.74328,0.17222 -2.55358,0.50079 -1.64754,0.01 -3.33742,-0.0494 -5.07626,-0.88224 v -0.0332 c 0.55581,-0.51833 1.26765,-1.74015 1.39754,-2.24796 0.15252,-0.59631 0.0792,-1.66573 -0.18628,-2.26293 l -0.36694,-0.82561 c -0.14662,-0.3299 -0.49882,-0.42024 -0.78582,-0.20125 l -0.7189,0.54853 c -0.51956,0.39641 -1.09711,1.29875 -1.24964,1.89506 -0.10021,0.39179 -0.10051,1.32329 0.014,2.05981 h -2.65468 c 0.11462,-0.73652 0.11478,-1.66802 0.0145,-2.05981 -0.15254,-0.59631 -0.73055,-1.49865 -1.25011,-1.89506 l -0.7189,-0.54853 c -0.10748,-0.082 -0.22401,-0.1204 -0.33558,-0.11935 z m 2.66404,9.49963 h 1.90769 c 0.37756,2.6e-4 0.58625,0.43807 0.34869,0.73153 l -0.71048,0.87756 c -0.30494,0.37646 -0.87917,0.37646 -1.18411,0 l -0.71048,-0.87756 c -0.23756,-0.29346 -0.0289,-0.73127 0.34869,-0.73153 z"
         inkscape:original-d="m 100.40122,100.53309 c -0.18599,0.002 -0.35774,0.11459 -0.449306,0.3206 l -0.367405,0.82561 c -0.265423,0.5972 -0.338796,1.66662 -0.186276,2.26293 0.129894,0.50781 0.842197,1.72963 1.398007,2.24796 v 4.06906 c 0,1.78564 1.43723,3.2238 3.22287,3.2238 1.23249,0 2.29886,-0.68552 2.84141,-1.69709 0.44925,0.2367 0.87445,0.53017 1.27351,0.92717 -0.0166,0.1885 -0.025,0.37759 -0.0253,0.56679 0.005,2.50845 1.43381,4.80258 3.69979,5.93884 l -0.66133,-3.87576 c -0.0812,-0.24203 -0.14899,-0.48948 -0.19283,-0.74137 v -0.002 c -0.41232,-2.41585 0.97346,-4.72316 3.16483,-5.36972 v 0.70345 c -1.75,0.62205 -2.85111,2.52225 -2.50537,4.55301 v 0.002 c 0.0408,0.23375 0.0991,0.46248 0.17691,0.68613 0.006,0.0179 0.0112,0.0364 0.0145,0.0552 l 1.29271,7.57603 2.22736,-0.38005 2.05184,-4.92134 c 0.0255,-0.0621 0.0693,-0.11518 0.12544,-0.15211 0.57905,-0.37883 1.03692,-0.9075 1.34465,-1.52157 h 0.73528 c -0.33881,0.8097 -0.89482,1.51607 -1.62781,2.02096 l -0.49097,1.58989 c 0.4058,1.28799 1.04973,2.55758 1.6559,3.62678 0.531,0.93658 1.42827,1.75407 2.44358,2.11223 0.82526,0.29111 1.85587,0.32971 2.62332,-0.0908 0.80808,-0.44273 1.81168,-2.12533 1.56791,-2.27697 -0.24378,-0.15163 -1.83982,1.70024 -2.57839,1.41205 -0.62382,-0.24341 -1.63674,-1.08448 -1.77992,-1.69989 -0.6022,-2.58852 -0.0409,-6.04674 0.14696,-8.15966 0.0608,-0.35869 0.0918,-0.72169 0.0927,-1.08536 -1e-5,-3.68652 -3.02813,-6.67505 -6.76352,-6.67506 -0.87602,0.002 -1.74328,0.17222 -2.55358,0.50079 -1.64754,0.01 -3.33742,-0.0494 -5.07626,-0.88224 v -0.0332 c 0.55581,-0.51833 1.26765,-1.74015 1.39754,-2.24796 0.15252,-0.59631 0.0792,-1.66573 -0.18628,-2.26293 l -0.36694,-0.82561 c -0.14662,-0.3299 -0.49882,-0.42024 -0.78582,-0.20125 l -0.7189,0.54853 c -0.51956,0.39641 -1.09711,1.29875 -1.24964,1.89506 -0.10021,0.39179 -0.10051,1.32329 0.014,2.05981 h -2.65468 c 0.11462,-0.73652 0.11478,-1.66802 0.0145,-2.05981 -0.15254,-0.59631 -0.73055,-1.49865 -1.25011,-1.89506 l -0.7189,-0.54853 c -0.10748,-0.082 -0.22401,-0.1204 -0.33558,-0.11935 z m 2.66404,9.49963 h 1.90769 a 0.4490158,0.4490158 0 0 1 0.34869,0.73153 l -0.71048,0.87756 a 0.76191539,0.76191539 0 0 1 -1.18411,0 l -0.71048,-0.87756 a 0.4490158,0.4490158 0 0 1 0.34869,-0.73153 z" /><path
         id="rect1236"
         style="fill:#ffffff;fill-opacity:1;stroke-width:0.457103;stroke-linejoin:round;stop-color:#000000"
         d="m 106.92441,123.35909 c 0.843,-0.4874 1.95486,0.0291 2.9194,-0.10461 1.59851,-0.22155 4.70302,-1.14907 4.70302,-1.14907 0.58769,-0.23759 1.14424,0.51034 1.14424,1.14424 v 1.22596 c 0,0.63391 -0.51034,1.14424 -1.14424,1.14424 h -7.62242 c -0.6339,0 -1.01334,-0.0427 -1.14423,-0.42832 -0.23145,-0.68191 0.52081,-1.472 1.14423,-1.83244 z m 25.94256,27.46824 c 0.843,-0.4874 1.95486,0.0291 2.9194,-0.10461 1.59851,-0.22155 4.70302,-1.14907 4.70302,-1.14907 0.58769,-0.23759 1.14424,0.51034 1.14424,1.14424 v 1.22596 c 0,0.63391 -0.51034,1.14424 -1.14424,1.14424 h -7.62242 c -0.6339,0 -1.01334,-0.0427 -1.14423,-0.42832 -0.23145,-0.68191 0.52081,-1.472 1.14423,-1.83244 z"
         sodipodi:nodetypes="aasssssaa"
         inkscape:original-d="m 106.92441,123.35909 c 0.843,-0.4874 1.95486,0.0291 2.9194,-0.10461 1.59851,-0.22155 4.70302,-1.14907 4.70302,-1.14907 0.58769,-0.23759 1.14424,0.51034 1.14424,1.14424 v 1.22596 c 0,0.63391 -0.51034,1.14424 -1.14424,1.14424 h -7.62242 c -0.6339,0 -1.01334,-0.0427 -1.14423,-0.42832 -0.23145,-0.68191 0.52081,-1.472 1.14423,-1.83244 z" /><g
         id="path1463"
         style="fill:#ffffff;fill-opacity:1"><path
           style="color:#000000;fill:#ffffff;stroke-width:1.87897;stroke-linecap:round;stroke-linejoin:round;fill-opacity:1"
           d="m 109.27776,112.86802 -1.34553,3.38446 -2.91356,0.43619 v 2.31744 m 30.20165,21.33015 -1.34553,3.38446 -2.91356,0.43619 v 2.31744"
           id="path2225"
           inkscape:original-d="m 109.27776,112.86802 -1.34553,3.38446 -2.91356,0.43619 v 2.31744" /><path
           style="color:#000000;fill:#ffffff;stroke-linecap:round;stroke-linejoin:round;fill-opacity:1"
           d="m 109.625,111.99414 c -0.48271,-0.19193 -1.02957,0.0443 -1.2207,0.52734 l -1.14453,2.88282 -2.38086,0.35547 c -0.45958,0.0696 -0.79918,0.46485 -0.79883,0.92968 v 2.31641 c 2e-5,0.51884 0.42061,0.93943 0.93945,0.93945 0.51884,-2e-5 0.93943,-0.42061 0.93945,-0.93945 v -1.50781 l 2.11329,-0.31641 c 0.33024,-0.05 0.60909,-0.27163 0.73242,-0.58203 l 1.3457,-3.38477 c 0.19214,-0.48217 -0.0431,-1.0288 -0.52539,-1.2207 z m 25.94256,27.46824 c -0.48271,-0.19193 -1.02957,0.0443 -1.2207,0.52734 l -1.14453,2.88282 -2.38086,0.35547 c -0.45958,0.0696 -0.79918,0.46485 -0.79883,0.92968 v 2.31641 c 2e-5,0.51884 0.42061,0.93943 0.93945,0.93945 0.51884,-2e-5 0.93943,-0.42061 0.93945,-0.93945 v -1.50781 l 2.11329,-0.31641 c 0.33024,-0.05 0.60909,-0.27163 0.73242,-0.58203 l 1.3457,-3.38477 c 0.19214,-0.48217 -0.0431,-1.02879 -0.52539,-1.2207 z"
           id="path2227"
           inkscape:original-d="m 109.625,111.99414 a 0.93948501,0.93948501 0 0 0 -1.2207,0.52734 l -1.14453,2.88282 -2.38086,0.35547 a 0.93957896,0.93957896 0 0 0 -0.79883,0.92968 v 2.31641 a 0.93948501,0.93948501 0 0 0 0.93945,0.93945 0.93948501,0.93948501 0 0 0 0.93945,-0.93945 v -1.50781 l 2.11329,-0.31641 a 0.93957896,0.93957896 0 0 0 0.73242,-0.58203 l 1.3457,-3.38477 a 0.93948501,0.93948501 0 0 0 -0.52539,-1.2207 z" /></g></g></g></svg>
