<?xml version="1.0" encoding="UTF-8" standalone="no"?>
<!-- Created with Inkscape (http://www.inkscape.org/) -->

<svg
   width="200"
   height="200"
   viewBox="0 0 52.916672 52.916666"
   version="1.1"
   id="svg5"
   xml:space="preserve"
   inkscape:version="1.2 (dc2aedaf03, 2022-05-15)"
   sodipodi:docname="Array Tile_Safari.svg"
   xmlns:inkscape="http://www.inkscape.org/namespaces/inkscape"
   xmlns:sodipodi="http://sodipodi.sourceforge.net/DTD/sodipodi-0.dtd"
   xmlns="http://www.w3.org/2000/svg"
   xmlns:svg="http://www.w3.org/2000/svg"><sodipodi:namedview
     id="namedview7"
     pagecolor="#505050"
     bordercolor="#ffffff"
     borderopacity="1"
     inkscape:showpageshadow="0"
     inkscape:pageopacity="0"
     inkscape:pagecheckerboard="1"
     inkscape:deskcolor="#505050"
     inkscape:document-units="mm"
     showgrid="false"
     showguides="false"
     inkscape:zoom="2.315"
     inkscape:cx="63.49892"
     inkscape:cy="94.600432"
     inkscape:window-width="1366"
     inkscape:window-height="705"
     inkscape:window-x="-8"
     inkscape:window-y="-8"
     inkscape:window-maximized="1"
     inkscape:current-layer="layer1" /><defs
     id="defs2"><inkscape:path-effect
       effect="tiling"
       id="path-effect3973"
       is_visible="true"
       lpeversion="1"
       unit="px"
       seed="1;1"
       lpesatellites=""
       num_rows="2"
       num_cols="1"
       gapx="0"
       gapy="30"
       offset="55"
       offset_type="false"
       scale="0"
       rotate="0"
       mirrorrowsx="false"
       mirrorrowsy="false"
       mirrorcolsx="false"
       mirrorcolsy="false"
       mirrortrans="false"
       shrink_interp="false"
       split_items="false"
       link_styles="false"
       interpolate_scalex="false"
       interpolate_scaley="true"
       interpolate_rotatex="false"
       interpolate_rotatey="true"
       random_scale="false"
       random_rotate="false"
       random_gap_y="false"
       random_gap_x="false"
       transformorigin="matrix(2.3314889,0,0,2.3314889,-198.64635,-143.49594)" /><inkscape:path-effect
       effect="fillet_chamfer"
       id="path-effect18309"
       is_visible="true"
       lpeversion="1"
       nodesatellites_param="F,0,0,1,0,0.40071411,0,1 @ F,0,1,1,0,0.40071411,0,1 @ F,0,0,1,0,0,0,1 @ F,0,0,1,0,0,0,1"
       unit="px"
       method="auto"
       mode="F"
       radius="0"
       chamfer_steps="1"
       flexible="false"
       use_knot_distance="true"
       apply_no_radius="true"
       apply_with_radius="true"
       only_selected="false"
       hide_knots="false" /><inkscape:path-effect
       effect="fillet_chamfer"
       id="path-effect17446"
       is_visible="true"
       lpeversion="1"
       nodesatellites_param="F,0,0,1,0,0,0,1 @ F,0,0,1,0,0.86591417,0,1 @ F,0,0,1,0,0.30306996,0,1 @ F,0,0,1,0,0,0,1"
       unit="px"
       method="auto"
       mode="F"
       radius="0"
       chamfer_steps="1"
       flexible="false"
       use_knot_distance="true"
       apply_no_radius="true"
       apply_with_radius="true"
       only_selected="false"
       hide_knots="false" /><style
       id="style8119">.cls-1{fill:url(#linear-gradient);}.cls-2{fill:url(#linear-gradient-2);}.cls-3{fill:#ffcd05;}.cls-4{fill:#4ab96d;}.cls-5{fill:#cd8029;}.cls-6{fill:#fabc2e;}.cls-7{fill:#fff;}.cls-8{fill:#414042;}.cls-9{fill:#f4fbfe;}.cls-10{fill:#680e19;}.cls-11{fill:#c62639;}.cls-12{fill:#dd7399;}.cls-13{fill:#914f93;}.cls-14{fill:#5c2c60;}.cls-15{fill:#c62c6b;}.cls-16{fill:#b26a28;}.cls-17{fill:#66402d;}.cls-18{fill:#753f77;}.cls-19{fill:#a768ab;}.cls-20{fill:#f1f2f2;}</style></defs><g
     inkscape:label="Layer 1"
     inkscape:groupmode="layer"
     id="layer1"
     transform="translate(-149.19115,-107.77104)"><g
       id="g21003"
       transform="matrix(2.3314889,0,0,2.3314889,-198.39975,-139.56207)"
       inkscape:path-effect="#path-effect3973"
       class="UnoptimicedTransforms"><path
         style="opacity:1;fill:#ffffff;fill-opacity:1;stroke:none;stroke-width:1.20412;stroke-linecap:round;stroke-linejoin:round;stroke-dasharray:none;stroke-opacity:1"
         id="rect17455"
         width="0.4974246"
         height="4.3773365"
         x="153.28314"
         y="107.77104"
         ry="0.19896984"
         d="m 153.48211,107.77104 h 0.0995 c 0.11023,0 0.19897,0.0887 0.19897,0.19897 v 3.9794 c 0,0.11023 -0.0887,0.19897 -0.19897,0.19897 h -0.0995 c -0.11023,0 -0.19897,-0.0887 -0.19897,-0.19897 v -3.9794 c 0,-0.11023 0.0887,-0.19897 0.19897,-0.19897 z m 7.97854,11.36322 h 0.0995 c 0.11022,0 0.19896,0.0887 0.19896,0.19897 v 3.97939 c 0,0.11023 -0.0887,0.19897 -0.19896,0.19897 h -0.0995 c -0.11023,0 -0.19897,-0.0887 -0.19897,-0.19897 v -3.97939 c 0,-0.11023 0.0887,-0.19897 0.19897,-0.19897 z"
         sodipodi:type="rect" /><path
         id="rect16871"
         style="opacity:1;fill:#ffffff;fill-opacity:1;stroke-width:0.941005;stroke-linecap:round;stroke-linejoin:round"
         d="m 150.22501,110.76884 v 2.43499 h 1.53738 c 0.2763,-0.23108 0.62476,-0.35814 0.98495,-0.35915 0.36143,1.6e-4 0.71132,0.12728 0.98857,0.35915 h 5.28908 c 0.2763,-0.23108 0.62476,-0.35814 0.98495,-0.35915 0.36108,4e-4 0.71056,0.12751 0.98754,0.35915 h 1.25522 c 0.0165,0 0.0327,0.002 0.0486,0.004 h 0.8692 v -1.57355 c -1.8e-4,-0.47797 -0.38761,-0.8654 -0.86558,-0.86558 h -3.21531 v 1.82728 h -3.93 v -1.82728 z m 12.09332,3.41581 c -0.0212,0.004 -0.0432,0.007 -0.0656,0.007 h -0.71417 c 0.008,0.0648 0.0127,0.13002 0.0129,0.19534 -1.3e-4,0.006 -3e-4,0.0124 -5.1e-4,0.0186 h 1.31671 c 0.13538,-3.2e-4 0.25413,-0.0904 0.29094,-0.22066 z m -12.09332,0.007 v 0.21394 h 0.98082 c -2.1e-4,-0.006 -3.8e-4,-0.0124 -5.2e-4,-0.0186 1.6e-4,-0.0653 0.004,-0.13057 0.0129,-0.19534 z m 4.05195,0 c 0.008,0.0648 0.0124,0.13003 0.0124,0.19534 -1.3e-4,0.006 -3e-4,0.0124 -5.1e-4,0.0186 h 4.17959 c -2.1e-4,-0.006 -3.8e-4,-0.0124 -5.2e-4,-0.0186 1.6e-4,-0.0653 0.004,-0.13057 0.0129,-0.19534 z m 3.92659,7.9404 v 2.43499 h 1.53738 c 0.27629,-0.23107 0.62476,-0.35814 0.98495,-0.35915 0.36143,1.7e-4 0.71132,0.12728 0.98857,0.35915 h 5.28908 c 0.27629,-0.23107 0.62476,-0.35814 0.98495,-0.35915 0.36107,4.1e-4 0.71056,0.12751 0.98754,0.35915 h 1.25522 c 0.0165,0 0.0327,0.002 0.0486,0.004 h 0.8692 v -1.57355 c -1.9e-4,-0.47797 -0.38761,-0.86539 -0.86558,-0.86558 h -3.21531 v 1.82728 h -3.93 v -1.82728 z m 12.09332,3.41581 c -0.0212,0.004 -0.0432,0.007 -0.0656,0.007 h -0.71417 c 0.008,0.0648 0.0127,0.13002 0.0129,0.19534 -1.3e-4,0.006 -3e-4,0.0124 -5.1e-4,0.0186 h 1.31671 c 0.13538,-3.1e-4 0.25413,-0.0904 0.29094,-0.22066 z m -12.09332,0.007 v 0.21394 h 0.98082 c -2.1e-4,-0.006 -3.9e-4,-0.0124 -5.2e-4,-0.0186 1.6e-4,-0.0653 0.004,-0.13056 0.0129,-0.19534 z m 4.05195,0 c 0.008,0.0648 0.0124,0.13003 0.0124,0.19534 -1.3e-4,0.006 -3e-4,0.0124 -5.1e-4,0.0186 h 4.17959 c -2.1e-4,-0.006 -3.9e-4,-0.0124 -5.2e-4,-0.0186 1.6e-4,-0.0653 0.004,-0.13056 0.0129,-0.19534 z"
         inkscape:original-d="m 150.22501,110.76884 v 2.43499 h 1.53738 a 1.5420163,1.5420163 0 0 1 0.98495,-0.35915 1.5420163,1.5420163 0 0 1 0.98857,0.35915 h 5.28908 a 1.5420163,1.5420163 0 0 1 0.98495,-0.35915 1.5420163,1.5420163 0 0 1 0.98754,0.35915 h 1.25522 c 0.0165,0 0.0327,0.002 0.0486,0.004 h 0.8692 v -1.57355 a 0.86591417,0.86591417 0 0 0 -0.86558,-0.86558 h -3.21531 v 1.82728 h -3.93 v -1.82728 z m 12.09332,3.41581 c -0.0212,0.004 -0.0432,0.007 -0.0656,0.007 h -0.71417 a 1.5420163,1.5420163 0 0 1 0.0129,0.19534 1.5420163,1.5420163 0 0 1 -5.1e-4,0.0186 h 1.31671 a 0.30306996,0.30306996 0 0 0 0.29094,-0.22066 z m -12.09332,0.007 v 0.21394 h 0.98082 a 1.5420163,1.5420163 0 0 1 -5.2e-4,-0.0186 1.5420163,1.5420163 0 0 1 0.0129,-0.19534 z m 4.05195,0 a 1.5420163,1.5420163 0 0 1 0.0124,0.19534 1.5420163,1.5420163 0 0 1 -5.1e-4,0.0186 h 4.17959 a 1.5420163,1.5420163 0 0 1 -5.2e-4,-0.0186 1.5420163,1.5420163 0 0 1 0.0129,-0.19534 z" /><path
         style="opacity:1;fill:#ffffff;fill-opacity:1;stroke:none;stroke-width:0.95537;stroke-linecap:round;stroke-linejoin:round;stroke-dasharray:none;stroke-opacity:1"
         id="rect17451"
         width="1.193819"
         height="3.7306845"
         x="155.55315"
         y="109.26332"
         ry="0.75857252"
         d="m 156.15006,109.26332 c 0.33068,0 0.59691,0.33832 0.59691,0.75857 v 2.21354 c 0,0.42025 -0.26623,0.75858 -0.59691,0.75858 -0.33069,0 -0.59691,-0.33833 -0.59691,-0.75858 v -2.21354 c 0,-0.42025 0.26622,-0.75857 0.59691,-0.75857 z m 7.97853,11.36322 c 0.33069,0 0.59691,0.33832 0.59691,0.75857 v 2.21354 c 0,0.42025 -0.26622,0.75857 -0.59691,0.75857 -0.33068,0 -0.59691,-0.33832 -0.59691,-0.75857 v -2.21354 c 0,-0.42025 0.26623,-0.75857 0.59691,-0.75857 z"
         sodipodi:type="rect" /><path
         style="opacity:1;fill:#ffffff;fill-opacity:1;stroke:none;stroke-width:0.885974;stroke-linecap:round;stroke-linejoin:round;stroke-dasharray:none;stroke-opacity:1"
         id="rect17453"
         width="1.193819"
         height="3.2083886"
         x="111.65096"
         y="-158.76154"
         ry="0.65237236"
         transform="rotate(90)"
         d="m 112.24787,-158.76154 c 0.33069,0 0.59691,0.29096 0.59691,0.65238 v 1.90364 c 0,0.36141 -0.26622,0.65237 -0.59691,0.65237 -0.33069,0 -0.59691,-0.29096 -0.59691,-0.65237 v -1.90364 c 0,-0.36142 0.26622,-0.65238 0.59691,-0.65238 z m 11.36322,-7.97853 c 0.33069,0 0.59691,0.29095 0.59691,0.65237 v 1.90364 c 0,0.36142 -0.26622,0.65237 -0.59691,0.65237 -0.33069,0 -0.59691,-0.29095 -0.59691,-0.65237 v -1.90364 c 0,-0.36142 0.26622,-0.65237 0.59691,-0.65237 z"
         sodipodi:type="rect" /><path
         style="opacity:1;fill:none;fill-opacity:1;stroke:#ffffff;stroke-width:0.358193;stroke-linecap:round;stroke-linejoin:round;stroke-dasharray:none;stroke-opacity:1"
         id="rect17457"
         width="2.9424791"
         height="3.3027899"
         x="150.57358"
         y="108.70625"
         ry="0.15727571"
         d="m 150.73085,108.70625 h 2.62793 c 0.0871,0 0.15728,0.0701 0.15728,0.15728 v 2.98824 c 0,0.0871 -0.0702,0.15727 -0.15728,0.15727 h -2.62793 c -0.0871,0 -0.15727,-0.0701 -0.15727,-0.15727 v -2.98824 c 0,-0.0871 0.0701,-0.15728 0.15727,-0.15728 z m 7.97854,11.36322 h 2.62793 c 0.0871,0 0.15728,0.0701 0.15728,0.15727 v 2.98824 c 0,0.0871 -0.0701,0.15728 -0.15728,0.15728 h -2.62793 c -0.0871,0 -0.15727,-0.0701 -0.15727,-0.15728 v -2.98824 c 0,-0.0871 0.0701,-0.15727 0.15727,-0.15727 z"
         sodipodi:type="rect" /><path
         style="opacity:1;fill:#fbfcfe;fill-opacity:1;stroke:none;stroke-width:0.542549;stroke-linecap:round;stroke-linejoin:round;stroke-dasharray:none;stroke-opacity:1"
         id="rect17563"
         width="0.90893042"
         height="2.8104491"
         x="149.19115"
         y="110.12351"
         ry="0.45446521"
         d="m 149.64561,110.12351 c 0.25178,0 0.45447,0.20269 0.45447,0.45447 v 1.90152 c 0,0.25177 -0.20269,0.45446 -0.45447,0.45446 -0.25177,0 -0.45446,-0.20269 -0.45446,-0.45446 v -1.90152 c 0,-0.25178 0.20269,-0.45447 0.45446,-0.45447 z m 7.97854,11.36322 c 0.25177,0 0.45447,0.20269 0.45447,0.45446 v 1.90152 c 0,0.25177 -0.2027,0.45447 -0.45447,0.45447 -0.25177,0 -0.45446,-0.2027 -0.45446,-0.45447 v -1.90152 c 0,-0.25177 0.20269,-0.45446 0.45446,-0.45446 z"
         sodipodi:type="rect" /><path
         id="circle17625"
         style="fill:#ffffff;fill-opacity:1;fill-rule:evenodd;stroke-width:0.280147"
         d="m 159.98462,113.04364 c -0.74176,-1e-5 -1.34308,0.60131 -1.34307,1.34307 -1e-5,0.74176 0.60131,1.34308 1.34307,1.34307 0.74176,10e-6 1.34308,-0.60131 1.34307,-1.34307 1e-5,-0.74176 -0.60131,-1.34308 -1.34307,-1.34307 z m 0,0.73845 c 0.33395,-6e-5 0.60468,0.27067 0.60462,0.60462 6e-5,0.33395 -0.27067,0.60467 -0.60462,0.60461 -0.33374,-2.3e-4 -0.60415,-0.27087 -0.60409,-0.60461 -6e-5,-0.33374 0.27035,-0.60439 0.60409,-0.60462 z m 7.97854,10.62476 c -0.74176,-1e-5 -1.34308,0.60131 -1.34307,1.34307 -1e-5,0.74177 0.60131,1.34309 1.34307,1.34307 0.74176,2e-5 1.34308,-0.6013 1.34307,-1.34307 1e-5,-0.74176 -0.60131,-1.34308 -1.34307,-1.34307 z m 0,0.73845 c 0.33395,-6e-5 0.60468,0.27068 0.60462,0.60462 6e-5,0.33395 -0.27068,0.60468 -0.60462,0.60461 -0.33374,-2.2e-4 -0.60415,-0.27087 -0.60409,-0.60461 -7e-5,-0.33374 0.27035,-0.60439 0.60409,-0.60462 z"
         inkscape:original-d="m 159.98462,113.04364 a 1.3430464,1.3430464 0 0 0 -1.34307,1.34307 1.3430464,1.3430464 0 0 0 1.34307,1.34307 1.3430464,1.3430464 0 0 0 1.34307,-1.34307 1.3430464,1.3430464 0 0 0 -1.34307,-1.34307 z m 0,0.73845 a 0.60450321,0.60450321 0 0 1 0.60462,0.60462 0.60450321,0.60450321 0 0 1 -0.60462,0.60461 0.60450321,0.60450321 0 0 1 -0.60409,-0.60461 0.60450321,0.60450321 0 0 1 0.60409,-0.60462 z" /><path
         id="rect17627"
         style="opacity:1;fill:#ffffff;stroke-width:0.346735;stroke-linecap:round;stroke-linejoin:round"
         d="m 159.32502,108.43219 0.1043,0.1451 c 0.15207,0.21157 0.23387,0.46555 0.23387,0.7261 v 3.30511 h -0.57204 v -4.10099 c 3e-5,-0.12535 0.16071,-0.17708 0.23387,-0.0753 z m 7.97854,11.36321 0.1043,0.1451 c 0.15207,0.21158 0.23387,0.46555 0.23387,0.7261 v 3.30511 h -0.57204 v -4.10099 c 3e-5,-0.12535 0.16071,-0.17708 0.23387,-0.0753 z"
         sodipodi:nodetypes="ccccc"
         inkscape:path-effect="#path-effect18309"
         inkscape:original-d="m 159.09115,108.1068 0.57204,0.79588 v 3.70582 h -0.57204 z" /><path
         id="rect19864"
         style="opacity:1;fill:#ffffff;fill-opacity:1;stroke:none;stroke-width:0.315475;stroke-linecap:round;stroke-linejoin:round;stroke-dasharray:none;stroke-opacity:1"
         d="m 161.27114,113.32992 0.25901,0.71779 h 1.89434 c 0.15116,0 0.27286,-0.1217 0.27286,-0.27285 v -0.17208 c 0,-0.15116 -0.1217,-0.27286 -0.27286,-0.27286 z m 7.97854,11.36321 0.25901,0.71779 h 1.89434 c 0.15116,0 0.27286,-0.1217 0.27286,-0.27285 v -0.17208 c 0,-0.15116 -0.1217,-0.27286 -0.27286,-0.27286 z"
         sodipodi:nodetypes="ccssssc"
         inkscape:original-d="m 161.27114,113.32992 0.25901,0.71779 h 1.89434 c 0.15116,0 0.27286,-0.1217 0.27286,-0.27285 v -0.17208 c 0,-0.15116 -0.1217,-0.27286 -0.27286,-0.27286 z" /><path
         id="path20962"
         style="opacity:1;fill:#ffffff;fill-opacity:1;stroke:none;stroke-width:1.69338;stroke-linecap:round;stroke-linejoin:round;stroke-dasharray:none;stroke-opacity:1"
         d="m 161.50212,114.04203 h 1.87746 c 0.17598,0 0.318,-0.1578 0.318,-0.35347 0,-0.19567 -0.14202,-0.35295 -0.318,-0.35295 h -2.29739 c 0.01,0.009 0.0199,0.0174 0.0296,0.0263 0.0127,0.0119 0.0252,0.0242 0.0375,0.0367 0.0124,0.0125 0.0246,0.0252 0.0366,0.0382 0.0118,0.0132 0.0234,0.0266 0.0347,0.0403 0.0114,0.0135 0.0225,0.0273 0.0333,0.0413 0.0109,0.0142 0.0215,0.0287 0.0319,0.0434 0.0103,0.0146 0.0204,0.0294 0.0301,0.0444 0.01,0.0149 0.0194,0.0301 0.0287,0.0455 0.009,0.0156 0.0182,0.0315 0.0268,0.0475 0.009,0.0158 0.0169,0.0319 0.0249,0.0481 0.008,0.0164 0.0156,0.0329 0.023,0.0496 0.007,0.0165 0.0144,0.0332 0.0211,0.0501 0.007,0.0169 0.0131,0.034 0.0192,0.0512 0.006,0.0173 0.0119,0.0347 0.0174,0.0522 0.006,0.0174 0.0107,0.035 0.0155,0.0527 0.003,0.0129 0.006,0.0258 0.009,0.0388 z m 7.97854,11.36321 h 1.87746 c 0.17598,0 0.318,-0.1578 0.318,-0.35347 0,-0.19567 -0.14202,-0.35295 -0.318,-0.35295 h -2.29739 c 0.01,0.009 0.0199,0.0174 0.0296,0.0263 0.0127,0.0119 0.0252,0.0242 0.0375,0.0367 0.0124,0.0125 0.0246,0.0252 0.0366,0.0382 0.0118,0.0132 0.0234,0.0266 0.0347,0.0403 0.0113,0.0135 0.0225,0.0273 0.0333,0.0413 0.0109,0.0142 0.0215,0.0287 0.0319,0.0434 0.0103,0.0146 0.0203,0.0294 0.0301,0.0444 0.01,0.0149 0.0194,0.0301 0.0287,0.0455 0.009,0.0156 0.0182,0.0315 0.0268,0.0475 0.009,0.0159 0.0169,0.0319 0.0249,0.0481 0.008,0.0164 0.0156,0.0329 0.023,0.0496 0.007,0.0165 0.0144,0.0332 0.0211,0.0501 0.007,0.0169 0.0131,0.034 0.0192,0.0512 0.006,0.0173 0.0119,0.0347 0.0174,0.0522 0.005,0.0174 0.0107,0.035 0.0155,0.0527 0.003,0.0129 0.006,0.0258 0.009,0.0388 z"
         inkscape:original-d="m 161.50212,114.04203 h 1.87746 c 0.17598,0 0.318,-0.1578 0.318,-0.35347 0,-0.19567 -0.14202,-0.35295 -0.318,-0.35295 h -2.29739 a 1.2207711,1.3430464 0 0 1 0.0296,0.0263 1.2207711,1.3430464 0 0 1 0.0375,0.0367 1.2207711,1.3430464 0 0 1 0.0366,0.0382 1.2207711,1.3430464 0 0 1 0.0347,0.0403 1.2207711,1.3430464 0 0 1 0.0333,0.0413 1.2207711,1.3430464 0 0 1 0.0319,0.0434 1.2207711,1.3430464 0 0 1 0.0301,0.0444 1.2207711,1.3430464 0 0 1 0.0287,0.0455 1.2207711,1.3430464 0 0 1 0.0268,0.0475 1.2207711,1.3430464 0 0 1 0.0249,0.0481 1.2207711,1.3430464 0 0 1 0.023,0.0496 1.2207711,1.3430464 0 0 1 0.0211,0.0501 1.2207711,1.3430464 0 0 1 0.0192,0.0512 1.2207711,1.3430464 0 0 1 0.0174,0.0522 1.2207711,1.3430464 0 0 1 0.0155,0.0527 1.2207711,1.3430464 0 0 1 0.009,0.0388 z" /><path
         id="path20960"
         style="opacity:1;fill:#ffffff;fill-opacity:1;stroke:none;stroke-width:1.72862;stroke-linecap:round;stroke-linejoin:round;stroke-dasharray:none;stroke-opacity:1"
         d="m 158.957,113.33561 h -5.17422 c 0.005,0.004 0.0101,0.009 0.0151,0.0129 0.0158,0.0139 0.0313,0.0282 0.0465,0.0429 0.0154,0.0148 0.0304,0.0299 0.0451,0.0455 0.0145,0.0157 0.0287,0.0317 0.0425,0.0481 0.0138,0.0162 0.0272,0.0327 0.0402,0.0496 0.0133,0.0171 0.0262,0.0345 0.0387,0.0522 0.0122,0.0176 0.0239,0.0355 0.0353,0.0537 0.0113,0.0183 0.0222,0.0369 0.0327,0.0558 0.0105,0.0189 0.0206,0.038 0.0303,0.0574 0.01,0.0194 0.019,0.039 0.0278,0.0589 0.009,0.0198 0.0171,0.0398 0.025,0.06 0.008,0.0203 0.0155,0.0408 0.0225,0.0615 0.007,0.0208 0.0133,0.0418 0.0192,0.063 0.004,0.0149 0.008,0.0299 0.0117,0.045 h 4.30148 c 0.0108,-0.0446 0.0237,-0.0886 0.0387,-0.13178 0.0182,-0.0506 0.0393,-0.0999 0.0631,-0.14779 0.0238,-0.0478 0.0503,-0.0941 0.0793,-0.1385 0.0292,-0.0445 0.0609,-0.0871 0.095,-0.12764 0.034,-0.0405 0.0703,-0.0788 0.10865,-0.11472 0.018,-0.0159 0.0365,-0.0312 0.0553,-0.046 z m 7.97854,11.36321 h -5.17422 c 0.005,0.004 0.0101,0.009 0.0151,0.0129 0.0158,0.0139 0.0313,0.0282 0.0465,0.0429 0.0154,0.0148 0.0304,0.0299 0.0451,0.0455 0.0145,0.0157 0.0287,0.0317 0.0425,0.0481 0.0138,0.0162 0.0272,0.0327 0.0402,0.0496 0.0133,0.0171 0.0262,0.0345 0.0387,0.0522 0.0122,0.0176 0.0239,0.0355 0.0353,0.0537 0.0113,0.0183 0.0222,0.0369 0.0327,0.0558 0.0105,0.0189 0.0206,0.038 0.0303,0.0574 0.01,0.0194 0.019,0.039 0.0278,0.0589 0.009,0.0198 0.0171,0.0398 0.025,0.06 0.008,0.0203 0.0155,0.0408 0.0225,0.0615 0.007,0.0208 0.0133,0.0418 0.0192,0.063 0.004,0.0149 0.008,0.0299 0.0117,0.045 h 4.30148 c 0.0108,-0.0446 0.0237,-0.0886 0.0387,-0.13178 0.0182,-0.0506 0.0393,-0.0999 0.0631,-0.14779 0.0238,-0.0478 0.0503,-0.094 0.0793,-0.1385 0.0292,-0.0445 0.0609,-0.0872 0.095,-0.12764 0.034,-0.0405 0.0703,-0.0788 0.10865,-0.11472 0.018,-0.0159 0.0365,-0.0312 0.0553,-0.046 z"
         inkscape:original-d="m 158.957,113.33561 h -5.17422 a 1.2586936,1.3430464 0 0 1 0.0151,0.0129 1.2586936,1.3430464 0 0 1 0.0465,0.0429 1.2586936,1.3430464 0 0 1 0.0451,0.0455 1.2586936,1.3430464 0 0 1 0.0425,0.0481 1.2586936,1.3430464 0 0 1 0.0402,0.0496 1.2586936,1.3430464 0 0 1 0.0387,0.0522 1.2586936,1.3430464 0 0 1 0.0353,0.0537 1.2586936,1.3430464 0 0 1 0.0327,0.0558 1.2586936,1.3430464 0 0 1 0.0303,0.0574 1.2586936,1.3430464 0 0 1 0.0278,0.0589 1.2586936,1.3430464 0 0 1 0.025,0.06 1.2586936,1.3430464 0 0 1 0.0225,0.0615 1.2586936,1.3430464 0 0 1 0.0192,0.063 1.2586936,1.3430464 0 0 1 0.0117,0.045 h 4.30148 a 1.2721178,1.3430464 0 0 1 0.0387,-0.13178 1.2721178,1.3430464 0 0 1 0.0631,-0.14779 1.2721178,1.3430464 0 0 1 0.0793,-0.1385 1.2721178,1.3430464 0 0 1 0.095,-0.12764 1.2721178,1.3430464 0 0 1 0.10865,-0.11472 1.2721178,1.3430464 0 0 1 0.0553,-0.046 z" /><path
         id="path20958"
         style="opacity:1;fill:#ffffff;fill-opacity:1;stroke:none;stroke-width:1.77616;stroke-linecap:round;stroke-linejoin:round;stroke-dasharray:none;stroke-opacity:1"
         d="m 159.15263,113.33561 c -0.0199,0.0148 -0.0394,0.0301 -0.0584,0.046 -0.0405,0.0359 -0.0788,0.0742 -0.11472,0.11472 -0.036,0.0405 -0.0694,0.0831 -0.10026,0.12764 -0.0307,0.0444 -0.0586,0.0907 -0.0837,0.1385 -0.0252,0.0479 -0.0475,0.0972 -0.0667,0.14779 -0.0159,0.0432 -0.0295,0.0872 -0.0408,0.13178 h 0.80305 c 0.01,-0.0151 0.0197,-0.0297 0.0305,-0.0439 0.0226,-0.0269 0.0475,-0.0518 0.0744,-0.0744 0.0269,-0.0226 0.0558,-0.0429 0.0863,-0.0605 0.0305,-0.0176 0.0625,-0.0324 0.0956,-0.0444 0.0331,-0.0121 0.0671,-0.0212 0.1018,-0.0274 0.0346,-0.006 0.0697,-0.009 0.1049,-0.009 0.0122,-4e-5 0.0245,3e-4 0.0367,0.001 0.0121,6.4e-4 0.0242,0.002 0.0362,0.003 0.0121,0.002 0.0242,0.004 0.0362,0.006 0.012,0.002 0.0239,0.005 0.0357,0.008 0.0118,0.003 0.0235,0.006 0.0351,0.01 0.0117,0.004 0.0232,0.008 0.0346,0.0119 0.0113,0.004 0.0225,0.009 0.0336,0.0139 0.0112,0.005 0.0222,0.0103 0.0331,0.016 0.0107,0.006 0.0212,0.0118 0.0315,0.0181 0.0105,0.006 0.0209,0.0127 0.031,0.0196 0.01,0.007 0.0199,0.0142 0.0295,0.0217 0.01,0.007 0.0188,0.0153 0.0279,0.0233 0.009,0.008 0.0179,0.0166 0.0264,0.0253 0.009,0.009 0.0171,0.0174 0.0253,0.0264 0.008,0.009 0.0157,0.0184 0.0232,0.0279 0.007,0.009 0.0144,0.0187 0.0212,0.0284 h 0.80047 c -0.003,-0.013 -0.007,-0.0259 -0.0103,-0.0388 -0.005,-0.0177 -0.011,-0.0353 -0.0171,-0.0527 -0.006,-0.0175 -0.0124,-0.0349 -0.0191,-0.0522 -0.007,-0.0172 -0.0138,-0.0343 -0.0212,-0.0512 -0.007,-0.0169 -0.0151,-0.0336 -0.0232,-0.0501 -0.008,-0.0167 -0.0165,-0.0332 -0.0253,-0.0496 -0.009,-0.0162 -0.0179,-0.0323 -0.0274,-0.0481 -0.01,-0.016 -0.0193,-0.0319 -0.0295,-0.0475 -0.0102,-0.0154 -0.0207,-0.0305 -0.0315,-0.0455 -0.0107,-0.015 -0.0218,-0.0298 -0.0331,-0.0444 -0.0114,-0.0147 -0.0231,-0.0292 -0.0351,-0.0434 -0.0119,-0.014 -0.0242,-0.0278 -0.0367,-0.0413 -0.0125,-0.0137 -0.0252,-0.0271 -0.0382,-0.0403 -0.0132,-0.013 -0.0266,-0.0257 -0.0403,-0.0382 -0.0135,-0.0125 -0.0273,-0.0248 -0.0413,-0.0367 -0.0107,-0.009 -0.0216,-0.0177 -0.0326,-0.0263 z m 7.97854,11.36321 c -0.0199,0.0148 -0.0394,0.0301 -0.0584,0.046 -0.0405,0.0359 -0.0788,0.0742 -0.11472,0.11472 -0.036,0.0405 -0.0694,0.0831 -0.10026,0.12764 -0.0307,0.0445 -0.0586,0.0907 -0.0837,0.1385 -0.0252,0.0479 -0.0475,0.0972 -0.0667,0.14779 -0.0159,0.0432 -0.0295,0.0872 -0.0408,0.13178 h 0.80305 c 0.01,-0.0151 0.0197,-0.0297 0.0305,-0.0439 0.0226,-0.0269 0.0475,-0.0518 0.0744,-0.0744 0.0269,-0.0226 0.0558,-0.0429 0.0863,-0.0605 0.0305,-0.0175 0.0625,-0.0324 0.0956,-0.0444 0.0331,-0.0121 0.0671,-0.0212 0.1018,-0.0274 0.0346,-0.006 0.0697,-0.009 0.1049,-0.009 0.0122,-3e-5 0.0245,3e-4 0.0367,10e-4 0.0121,6.4e-4 0.0242,0.002 0.0362,0.003 0.0121,0.002 0.0242,0.004 0.0362,0.006 0.012,0.002 0.0239,0.005 0.0357,0.008 0.0118,0.003 0.0235,0.006 0.0351,0.01 0.0116,0.004 0.0232,0.008 0.0346,0.0119 0.0113,0.004 0.0225,0.009 0.0336,0.0139 0.0112,0.005 0.0222,0.0103 0.0331,0.016 0.0107,0.006 0.0212,0.0118 0.0315,0.0181 0.0105,0.006 0.0209,0.0128 0.031,0.0196 0.0101,0.007 0.0199,0.0142 0.0295,0.0217 0.01,0.007 0.0188,0.0153 0.0279,0.0233 0.009,0.008 0.0179,0.0166 0.0264,0.0253 0.009,0.009 0.0171,0.0174 0.0253,0.0264 0.008,0.009 0.0157,0.0184 0.0232,0.0279 0.007,0.009 0.0144,0.0187 0.0212,0.0284 h 0.80047 c -0.003,-0.013 -0.007,-0.0259 -0.0103,-0.0388 -0.005,-0.0177 -0.011,-0.0353 -0.0171,-0.0527 -0.006,-0.0175 -0.0124,-0.0349 -0.0191,-0.0522 -0.007,-0.0172 -0.0138,-0.0343 -0.0212,-0.0512 -0.007,-0.0169 -0.0151,-0.0336 -0.0232,-0.0501 -0.008,-0.0167 -0.0165,-0.0332 -0.0253,-0.0496 -0.009,-0.0162 -0.0179,-0.0322 -0.0274,-0.0481 -0.01,-0.016 -0.0193,-0.0319 -0.0295,-0.0475 -0.0102,-0.0154 -0.0207,-0.0306 -0.0315,-0.0455 -0.0107,-0.015 -0.0218,-0.0298 -0.0331,-0.0444 -0.0114,-0.0147 -0.0231,-0.0292 -0.0351,-0.0434 -0.012,-0.014 -0.0242,-0.0278 -0.0367,-0.0413 -0.0125,-0.0137 -0.0252,-0.0271 -0.0382,-0.0403 -0.0132,-0.013 -0.0266,-0.0257 -0.0403,-0.0382 -0.0135,-0.0125 -0.0273,-0.0247 -0.0413,-0.0367 -0.0107,-0.009 -0.0216,-0.0177 -0.0326,-0.0263 z"
         inkscape:original-d="m 159.15263,113.33561 a 1.3430464,1.3430464 0 0 0 -0.0584,0.046 1.3430464,1.3430464 0 0 0 -0.11472,0.11472 1.3430464,1.3430464 0 0 0 -0.10026,0.12764 1.3430464,1.3430464 0 0 0 -0.0837,0.1385 1.3430464,1.3430464 0 0 0 -0.0667,0.14779 1.3430464,1.3430464 0 0 0 -0.0408,0.13178 h 0.80305 a 0.60450321,0.60450321 0 0 1 0.0305,-0.0439 0.60450321,0.60450321 0 0 1 0.0744,-0.0744 0.60450321,0.60450321 0 0 1 0.0863,-0.0605 0.60450321,0.60450321 0 0 1 0.0956,-0.0444 0.60450321,0.60450321 0 0 1 0.1018,-0.0274 0.60450321,0.60450321 0 0 1 0.1049,-0.009 0.60450321,0.60450321 0 0 1 0.0367,0.001 0.60450321,0.60450321 0 0 1 0.0362,0.003 0.60450321,0.60450321 0 0 1 0.0362,0.006 0.60450321,0.60450321 0 0 1 0.0357,0.008 0.60450321,0.60450321 0 0 1 0.0351,0.01 0.60450321,0.60450321 0 0 1 0.0346,0.0119 0.60450321,0.60450321 0 0 1 0.0336,0.0139 0.60450321,0.60450321 0 0 1 0.0331,0.016 0.60450321,0.60450321 0 0 1 0.0315,0.0181 0.60450321,0.60450321 0 0 1 0.031,0.0196 0.60450321,0.60450321 0 0 1 0.0295,0.0217 0.60450321,0.60450321 0 0 1 0.0279,0.0233 0.60450321,0.60450321 0 0 1 0.0264,0.0253 0.60450321,0.60450321 0 0 1 0.0253,0.0264 0.60450321,0.60450321 0 0 1 0.0232,0.0279 0.60450321,0.60450321 0 0 1 0.0212,0.0284 h 0.80047 a 1.3430464,1.3430464 0 0 0 -0.0103,-0.0388 1.3430464,1.3430464 0 0 0 -0.0171,-0.0527 1.3430464,1.3430464 0 0 0 -0.0191,-0.0522 1.3430464,1.3430464 0 0 0 -0.0212,-0.0512 1.3430464,1.3430464 0 0 0 -0.0232,-0.0501 1.3430464,1.3430464 0 0 0 -0.0253,-0.0496 1.3430464,1.3430464 0 0 0 -0.0274,-0.0481 1.3430464,1.3430464 0 0 0 -0.0295,-0.0475 1.3430464,1.3430464 0 0 0 -0.0315,-0.0455 1.3430464,1.3430464 0 0 0 -0.0331,-0.0444 1.3430464,1.3430464 0 0 0 -0.0351,-0.0434 1.3430464,1.3430464 0 0 0 -0.0367,-0.0413 1.3430464,1.3430464 0 0 0 -0.0382,-0.0403 1.3430464,1.3430464 0 0 0 -0.0403,-0.0382 1.3430464,1.3430464 0 0 0 -0.0413,-0.0367 1.3430464,1.3430464 0 0 0 -0.0326,-0.0263 z" /><path
         id="path20225"
         style="opacity:1;fill:#ffffff;fill-opacity:1;stroke:none;stroke-width:1.69377;stroke-linecap:round;stroke-linejoin:round;stroke-dasharray:none;stroke-opacity:1"
         d="m 151.69025,113.33561 h -1.71249 c -0.17605,0 -0.31757,0.15728 -0.31757,0.35295 0,0.19567 0.14152,0.35347 0.31757,0.35347 h 1.29402 c 0.002,-0.0112 0.005,-0.0224 0.007,-0.0336 0.0163,-0.0615 0.0365,-0.12157 0.0605,-0.17984 0.0239,-0.0581 0.0516,-0.11422 0.0827,-0.16795 0.0311,-0.0538 0.0656,-0.10512 0.10323,-0.15348 0.0377,-0.0483 0.0784,-0.0935 0.12183,-0.13539 0.0143,-0.0124 0.0289,-0.0245 0.0437,-0.0362 z m 7.97854,11.36321 h -1.71249 c -0.17605,0 -0.31757,0.15728 -0.31757,0.35295 0,0.19567 0.14152,0.35347 0.31757,0.35347 h 1.29402 c 0.002,-0.0112 0.005,-0.0224 0.007,-0.0336 0.0163,-0.0615 0.0365,-0.12157 0.0605,-0.17984 0.0239,-0.0581 0.0516,-0.11422 0.0827,-0.16795 0.0311,-0.0538 0.0656,-0.10511 0.10323,-0.15348 0.0377,-0.0483 0.0784,-0.0935 0.12183,-0.13539 0.0143,-0.0124 0.0289,-0.0245 0.0437,-0.0362 z"
         inkscape:original-d="m 151.69025,113.33561 h -1.71249 c -0.17605,0 -0.31757,0.15728 -0.31757,0.35295 0,0.19567 0.14152,0.35347 0.31757,0.35347 h 1.29402 a 1.2084414,1.3430464 0 0 1 0.007,-0.0336 1.2084414,1.3430464 0 0 1 0.0605,-0.17984 1.2084414,1.3430464 0 0 1 0.0827,-0.16795 1.2084414,1.3430464 0 0 1 0.10323,-0.15348 1.2084414,1.3430464 0 0 1 0.12183,-0.13539 1.2084414,1.3430464 0 0 1 0.0437,-0.0362 z" /><path
         id="path20223"
         style="opacity:1;fill:#ffffff;fill-opacity:1;stroke:none;stroke-width:1.78561;stroke-linecap:round;stroke-linejoin:round;stroke-dasharray:none;stroke-opacity:1"
         d="m 151.91638,113.33561 c -0.0165,0.0117 -0.0327,0.0238 -0.0486,0.0362 -0.0483,0.0418 -0.0936,0.0871 -0.1354,0.13539 -0.0419,0.0484 -0.0802,0.0996 -0.11472,0.15348 -0.0346,0.0537 -0.0654,0.10985 -0.092,0.16795 -0.0267,0.0583 -0.0491,0.11837 -0.0672,0.17984 -0.002,0.0112 -0.005,0.0224 -0.007,0.0336 h 0.80047 c 0.0202,-0.0295 0.0431,-0.0572 0.0682,-0.0827 0.028,-0.0281 0.0586,-0.0533 0.0915,-0.0754 0.0329,-0.022 0.0678,-0.0407 0.10439,-0.0558 0.0367,-0.0152 0.0747,-0.0268 0.11369,-0.0346 0.0388,-0.008 0.0783,-0.0115 0.11782,-0.0114 0.0143,1.6e-4 0.0286,8.3e-4 0.0429,0.002 0.0145,0.001 0.029,0.003 0.0434,0.005 0.0142,0.002 0.0284,0.005 0.0424,0.008 0.0141,0.003 0.0281,0.006 0.0419,0.0103 0.0138,0.004 0.0274,0.009 0.0408,0.0139 0.0135,0.005 0.0267,0.0105 0.0398,0.0165 0.0131,0.006 0.026,0.0123 0.0387,0.0191 0.0127,0.007 0.0251,0.0144 0.0372,0.0222 0.012,0.008 0.0237,0.0158 0.0351,0.0243 0.0115,0.009 0.0227,0.0179 0.0336,0.0274 0.0109,0.009 0.0214,0.0192 0.0315,0.0294 0.0102,0.0102 0.02,0.0207 0.0295,0.0315 0.01,0.0109 0.0187,0.0221 0.0274,0.0336 0.004,0.006 0.008,0.0117 0.0124,0.0176 h 0.80098 c -0.004,-0.0151 -0.008,-0.0301 -0.0124,-0.045 -0.006,-0.0212 -0.0133,-0.0422 -0.0207,-0.063 -0.007,-0.0207 -0.0154,-0.0412 -0.0238,-0.0615 -0.008,-0.0202 -0.0174,-0.0402 -0.0269,-0.06 -0.009,-0.0199 -0.0192,-0.0395 -0.0295,-0.0589 -0.0104,-0.0194 -0.0212,-0.0385 -0.0325,-0.0574 -0.0112,-0.0189 -0.023,-0.0375 -0.0351,-0.0558 -0.0121,-0.0182 -0.0247,-0.0361 -0.0377,-0.0537 -0.0132,-0.0177 -0.0268,-0.0351 -0.0408,-0.0522 -0.0139,-0.0169 -0.0282,-0.0334 -0.0429,-0.0496 -0.0148,-0.0164 -0.0299,-0.0324 -0.0455,-0.0481 -0.0157,-0.0156 -0.0317,-0.0307 -0.0481,-0.0455 -0.0162,-0.0147 -0.0327,-0.029 -0.0496,-0.0429 -0.005,-0.004 -0.011,-0.009 -0.0165,-0.0129 z m 7.97854,11.36321 c -0.0165,0.0117 -0.0327,0.0238 -0.0486,0.0362 -0.0483,0.0419 -0.0935,0.0871 -0.1354,0.13539 -0.0418,0.0484 -0.0802,0.0997 -0.11472,0.15348 -0.0346,0.0537 -0.0654,0.10985 -0.092,0.16795 -0.0267,0.0583 -0.0491,0.11837 -0.0672,0.17984 -0.002,0.0112 -0.005,0.0224 -0.007,0.0336 h 0.80047 c 0.0202,-0.0295 0.0431,-0.0572 0.0682,-0.0827 0.028,-0.0281 0.0586,-0.0533 0.0915,-0.0754 0.0329,-0.022 0.0678,-0.0406 0.10439,-0.0558 0.0367,-0.0152 0.0747,-0.0268 0.11369,-0.0346 0.0388,-0.008 0.0783,-0.0115 0.11782,-0.0114 0.0143,1.6e-4 0.0286,8.3e-4 0.0429,0.002 0.0145,0.001 0.029,0.003 0.0434,0.005 0.0142,0.002 0.0284,0.005 0.0424,0.008 0.0141,0.003 0.0281,0.006 0.0419,0.0103 0.0138,0.004 0.0274,0.009 0.0408,0.0139 0.0135,0.005 0.0267,0.0105 0.0398,0.0165 0.0131,0.006 0.026,0.0123 0.0387,0.0191 0.0127,0.007 0.0251,0.0144 0.0372,0.0222 0.012,0.008 0.0237,0.0158 0.0351,0.0243 0.0115,0.009 0.0227,0.0179 0.0336,0.0274 0.0108,0.009 0.0214,0.0192 0.0315,0.0294 0.0102,0.0101 0.02,0.0207 0.0295,0.0315 0.01,0.0109 0.0187,0.0221 0.0274,0.0336 0.004,0.006 0.008,0.0117 0.0124,0.0176 h 0.80098 c -0.004,-0.0151 -0.008,-0.0301 -0.0124,-0.045 -0.006,-0.0212 -0.0133,-0.0422 -0.0207,-0.063 -0.007,-0.0207 -0.0154,-0.0412 -0.0238,-0.0615 -0.008,-0.0202 -0.0174,-0.0402 -0.0269,-0.06 -0.009,-0.0199 -0.0192,-0.0395 -0.0295,-0.0589 -0.0104,-0.0194 -0.0212,-0.0385 -0.0325,-0.0574 -0.0112,-0.0189 -0.023,-0.0375 -0.0351,-0.0558 -0.0121,-0.0182 -0.0247,-0.0361 -0.0377,-0.0537 -0.0132,-0.0177 -0.0268,-0.0351 -0.0408,-0.0522 -0.0139,-0.0169 -0.0282,-0.0334 -0.0429,-0.0496 -0.0148,-0.0164 -0.0299,-0.0324 -0.0455,-0.0481 -0.0157,-0.0155 -0.0317,-0.0307 -0.0481,-0.0455 -0.0162,-0.0147 -0.0327,-0.029 -0.0496,-0.0429 -0.005,-0.004 -0.011,-0.009 -0.0165,-0.0129 z"
         inkscape:original-d="m 151.91638,113.33561 a 1.3430464,1.3430464 0 0 0 -0.0486,0.0362 1.3430464,1.3430464 0 0 0 -0.1354,0.13539 1.3430464,1.3430464 0 0 0 -0.11472,0.15348 1.3430464,1.3430464 0 0 0 -0.092,0.16795 1.3430464,1.3430464 0 0 0 -0.0672,0.17984 1.3430464,1.3430464 0 0 0 -0.007,0.0336 h 0.80047 a 0.60450321,0.60450321 0 0 1 0.0682,-0.0827 0.60450321,0.60450321 0 0 1 0.0915,-0.0754 0.60450321,0.60450321 0 0 1 0.10439,-0.0558 0.60450321,0.60450321 0 0 1 0.11369,-0.0346 0.60450321,0.60450321 0 0 1 0.11782,-0.0114 0.60450321,0.60450321 0 0 1 0.0429,0.002 0.60450321,0.60450321 0 0 1 0.0434,0.005 0.60450321,0.60450321 0 0 1 0.0424,0.008 0.60450321,0.60450321 0 0 1 0.0419,0.0103 0.60450321,0.60450321 0 0 1 0.0408,0.0139 0.60450321,0.60450321 0 0 1 0.0398,0.0165 0.60450321,0.60450321 0 0 1 0.0387,0.0191 0.60450321,0.60450321 0 0 1 0.0372,0.0222 0.60450321,0.60450321 0 0 1 0.0351,0.0243 0.60450321,0.60450321 0 0 1 0.0336,0.0274 0.60450321,0.60450321 0 0 1 0.0315,0.0294 0.60450321,0.60450321 0 0 1 0.0295,0.0315 0.60450321,0.60450321 0 0 1 0.0274,0.0336 0.60450321,0.60450321 0 0 1 0.0124,0.0176 h 0.80098 a 1.3430464,1.3430464 0 0 0 -0.0124,-0.045 1.3430464,1.3430464 0 0 0 -0.0207,-0.063 1.3430464,1.3430464 0 0 0 -0.0238,-0.0615 1.3430464,1.3430464 0 0 0 -0.0269,-0.06 1.3430464,1.3430464 0 0 0 -0.0295,-0.0589 1.3430464,1.3430464 0 0 0 -0.0325,-0.0574 1.3430464,1.3430464 0 0 0 -0.0351,-0.0558 1.3430464,1.3430464 0 0 0 -0.0377,-0.0537 1.3430464,1.3430464 0 0 0 -0.0408,-0.0522 1.3430464,1.3430464 0 0 0 -0.0429,-0.0496 1.3430464,1.3430464 0 0 0 -0.0455,-0.0481 1.3430464,1.3430464 0 0 0 -0.0481,-0.0455 1.3430464,1.3430464 0 0 0 -0.0496,-0.0429 1.3430464,1.3430464 0 0 0 -0.0165,-0.0129 z" /><path
         id="path17617"
         style="fill:#ffffff;fill-opacity:1;fill-rule:evenodd;stroke-width:0.280147"
         d="m 152.74734,113.04364 c -0.74176,-1e-5 -1.34308,0.60131 -1.34307,1.34307 -1e-5,0.74176 0.60131,1.34308 1.34307,1.34307 0.74176,10e-6 1.34308,-0.60131 1.34307,-1.34307 1e-5,-0.74176 -0.60131,-1.34308 -1.34307,-1.34307 z m 0,0.73845 c 0.33395,-6e-5 0.60467,0.27067 0.60461,0.60462 6e-5,0.33394 -0.27067,0.60467 -0.60461,0.60461 -0.33395,6e-5 -0.60468,-0.27066 -0.60462,-0.60461 -6e-5,-0.33395 0.27067,-0.60468 0.60462,-0.60462 z m 7.97854,10.62476 c -0.74176,-1e-5 -1.34308,0.60131 -1.34307,1.34307 -1e-5,0.74177 0.60131,1.34309 1.34307,1.34307 0.74176,2e-5 1.34308,-0.6013 1.34307,-1.34307 1e-5,-0.74176 -0.60131,-1.34308 -1.34307,-1.34307 z m 0,0.73845 c 0.33394,-5e-5 0.60467,0.27068 0.60461,0.60462 6e-5,0.33395 -0.27067,0.60467 -0.60461,0.60461 -0.33395,7e-5 -0.60468,-0.27066 -0.60462,-0.60461 -7e-5,-0.33394 0.27067,-0.60468 0.60462,-0.60462 z"
         inkscape:original-d="m 152.74734,113.04364 a 1.3430464,1.3430464 0 0 0 -1.34307,1.34307 1.3430464,1.3430464 0 0 0 1.34307,1.34307 1.3430464,1.3430464 0 0 0 1.34307,-1.34307 1.3430464,1.3430464 0 0 0 -1.34307,-1.34307 z m 0,0.73845 a 0.60450321,0.60450321 0 0 1 0.60461,0.60462 0.60450321,0.60450321 0 0 1 -0.60461,0.60461 0.60450321,0.60450321 0 0 1 -0.60462,-0.60461 0.60450321,0.60450321 0 0 1 0.60462,-0.60462 z" /></g></g></svg>
