<?xml version="1.0" encoding="UTF-8" standalone="no"?>
<!-- Created with Inkscape (http://www.inkscape.org/) -->

<svg
   width="200"
   height="200"
   viewBox="0 0 52.916667 52.916663"
   version="1.1"
   id="svg5"
   xml:space="preserve"
   inkscape:version="1.2 (dc2aedaf03, 2022-05-15)"
   sodipodi:docname="Array Tile_Blizzard.svg"
   xmlns:inkscape="http://www.inkscape.org/namespaces/inkscape"
   xmlns:sodipodi="http://sodipodi.sourceforge.net/DTD/sodipodi-0.dtd"
   xmlns="http://www.w3.org/2000/svg"
   xmlns:svg="http://www.w3.org/2000/svg"><sodipodi:namedview
     id="namedview7"
     pagecolor="#505050"
     bordercolor="#ffffff"
     borderopacity="1"
     inkscape:showpageshadow="0"
     inkscape:pageopacity="0"
     inkscape:pagecheckerboard="1"
     inkscape:deskcolor="#505050"
     inkscape:document-units="mm"
     showgrid="false"
     showguides="false"
     inkscape:zoom="1.782093"
     inkscape:cx="64.530863"
     inkscape:cy="120.64466"
     inkscape:window-width="1366"
     inkscape:window-height="705"
     inkscape:window-x="-8"
     inkscape:window-y="-8"
     inkscape:window-maximized="1"
     inkscape:current-layer="layer1" /><defs
     id="defs2"><inkscape:path-effect
       effect="tiling"
       id="path-effect3652"
       is_visible="true"
       lpeversion="1"
       unit="px"
       seed="1;1"
       lpesatellites=""
       num_rows="2"
       num_cols="1"
       gapx="70"
       gapy="18"
       offset="55"
       offset_type="false"
       scale="0"
       rotate="0"
       mirrorrowsx="false"
       mirrorrowsy="false"
       mirrorcolsx="false"
       mirrorcolsy="false"
       mirrortrans="false"
       shrink_interp="false"
       split_items="false"
       link_styles="false"
       interpolate_scalex="false"
       interpolate_scaley="true"
       interpolate_rotatex="false"
       interpolate_rotatey="true"
       random_scale="false"
       random_rotate="false"
       random_gap_y="false"
       random_gap_x="false"
       transformorigin="matrix(1.6712662,0,0,1.6712662,-101.58323,-70.789832)" /><inkscape:path-effect
       effect="fillet_chamfer"
       id="path-effect929"
       is_visible="true"
       lpeversion="1"
       nodesatellites_param="F,0,0,1,0,5,0,1 @ F,0,0,1,0,0,0,1 @ F,0,0,1,0,5,0,1 @ F,0,0,1,0,0,0,1 @ F,0,0,1,0,5,0,1 @ F,0,0,1,0,0,0,1 @ F,0,0,1,0,5,0,1 @ F,0,0,1,0,0,0,1 @ F,0,0,1,0,5,0,1 @ F,0,0,1,0,0,0,1 @ F,0,0,1,0,5,0,1 @ F,0,0,1,0,0,0,1"
       unit="px"
       method="auto"
       mode="F"
       radius="0"
       chamfer_steps="1"
       flexible="false"
       use_knot_distance="true"
       apply_no_radius="true"
       apply_with_radius="true"
       only_selected="false"
       hide_knots="false" /><inkscape:path-effect
       effect="fillet_chamfer"
       id="path-effect16202"
       is_visible="true"
       lpeversion="1"
       nodesatellites_param="F,0,0,1,0,0,0,1 @ F,0,0,1,0,0,0,1 @ F,0,0,1,0,0,0,1 @ F,0,0,1,0,0,0,1 @ F,0,0,1,0,0,0,1 @ F,0,0,1,0,0.91903226,0,1 @ F,0,0,1,0,0,0,1 @ F,0,0,1,0,0,0,1 @ F,0,0,1,0,0,0,1 @ F,0,0,1,0,0,0,1 @ F,0,0,1,0,0,0,1 @ F,0,0,1,0,0,0,1 @ F,0,0,1,0,0,0,1 @ F,0,0,1,0,0,0,1"
       unit="px"
       method="auto"
       mode="F"
       radius="0"
       chamfer_steps="1"
       flexible="false"
       use_knot_distance="true"
       apply_no_radius="true"
       apply_with_radius="true"
       only_selected="false"
       hide_knots="false" /><inkscape:path-effect
       effect="mirror_symmetry"
       start_point="137.27478,103.45555"
       end_point="137.27478,118.87561"
       center_point="137.27478,111.16558"
       id="path-effect10078"
       is_visible="true"
       lpeversion="1.2"
       lpesatellites=""
       mode="vertical"
       discard_orig_path="false"
       fuse_paths="false"
       oposite_fuse="false"
       split_items="false"
       split_open="false"
       link_styles="false" /><inkscape:path-effect
       effect="mirror_symmetry"
       start_point="155.89287,103.27208"
       end_point="155.89287,119.58108"
       center_point="155.89287,111.42658"
       id="path-effect10072"
       is_visible="true"
       lpeversion="1.2"
       lpesatellites=""
       mode="free"
       discard_orig_path="false"
       fuse_paths="true"
       oposite_fuse="false"
       split_items="false"
       split_open="false"
       link_styles="false" /></defs><g
     inkscape:label="Layer 1"
     inkscape:groupmode="layer"
     id="layer1"
     transform="translate(-149.16975,-103.45079)"><g
       id="g4806"
       transform="matrix(1.6712662,0,0,1.6712662,-96.91886,-70.525651)"
       inkscape:path-effect="#path-effect3652"
       class="UnoptimicedTransforms"><path
         sodipodi:type="star"
         style="opacity:1;fill:none;stroke:#ffffff;stroke-width:4.55857;stroke-linecap:round;stroke-linejoin:round;stroke-dasharray:none;stroke-opacity:1"
         id="path927"
         inkscape:flatsided="false"
         sodipodi:sides="6"
         sodipodi:cx="-4.3797922"
         sodipodi:cy="4.5788736"
         sodipodi:r1="24.175081"
         sodipodi:r2="12.087541"
         sodipodi:arg1="1.0471976"
         sodipodi:arg2="1.5707963"
         inkscape:rounded="0.07"
         inkscape:randomized="0"
         d="m 3.5800535,22.801423 c -3.25354358,-2.606066 -7.3164171,-6.135009 -7.9598454,-6.135009 -0.6434418,0 -4.7064733,3.529091 -7.9600521,6.135172 -2.129222,1.705483 -4.253625,0.478834 -3.841216,-2.218009 0.630148,-4.120684 1.654865,-9.403708 1.333151,-9.960933 -0.321721,-0.557237 -5.409519,-2.3113801 -9.293241,-3.8260212 -2.541603,-0.9912184 -2.541495,-3.4443303 2.45e-4,-4.435595 3.88369,-1.51461864 8.971281,-3.268699 9.292995,-3.8259242 0.321721,-0.5572369 -0.703045,-5.8404706 -1.333188,-9.9611926 -0.412381,-2.696702 1.71213,-3.923165 3.84146,-2.217586 3.2535436,2.606065 7.3164172,6.135008 7.9598455,6.135008 0.6434418,0 4.70647328,-3.52909 7.9600519,-6.135172 2.1292217,-1.705483 4.2536251,-0.478834 3.8412158,2.21801 -0.6301472,4.1206837 -1.6548644,9.4037068 -1.3331503,9.960932 0.3217209,0.55723701 5.4095181,2.31138033 9.2932401,3.8260215 2.541603,0.9912183 2.541495,3.4443303 -2.44e-4,4.435595 -3.883691,1.5146186 -8.9712816,3.2686985 -9.2929958,3.8259245 -0.3217209,0.557237 0.7030452,5.84047 1.3331884,9.961193 0.4123812,2.696702 -1.71213,3.923164 -3.8414601,2.217586 z M 59.395063,95.171572 c -3.253543,-2.606065 -7.316417,-6.135008 -7.959845,-6.135008 -0.643442,0 -4.706474,3.52909 -7.960052,6.135172 -2.129222,1.705483 -4.253625,0.478834 -3.841216,-2.21801 0.630147,-4.120684 1.654865,-9.403707 1.33315,-9.960932 -0.32172,-0.557237 -5.409518,-2.31138 -9.29324,-3.826021 -2.541603,-0.991219 -2.541495,-3.444331 2.44e-4,-4.435595 3.883691,-1.514619 8.971282,-3.268699 9.292996,-3.825925 0.321721,-0.557237 -0.703045,-5.84047 -1.333188,-9.961193 -0.412382,-2.696701 1.71213,-3.923164 3.84146,-2.217586 3.253543,2.606066 7.316417,6.135009 7.959845,6.135009 0.643442,0 4.706473,-3.529091 7.960052,-6.135172 2.129222,-1.705483 4.253625,-0.478834 3.841216,2.218009 -0.630147,4.120685 -1.654865,9.403708 -1.33315,9.960933 0.32172,0.557237 5.409518,2.31138 9.29324,3.826021 2.541603,0.991219 2.541495,3.444331 -2.44e-4,4.435595 -3.883691,1.514619 -8.971282,3.268699 -9.292996,3.825924 -0.321721,0.557237 0.703045,5.840471 1.333188,9.961193 0.412382,2.696702 -1.71213,3.923165 -3.84146,2.217586 z"
         transform="matrix(0.23625841,0,0,0.23625841,157.55198,110.25514)"
         inkscape:path-effect="#path-effect929" /><circle
         style="fill:#ffffff;fill-opacity:1;fill-rule:evenodd;stroke-width:0.264583"
         id="path4660"
         cx="156.51723"
         cy="111.37422"
         r="1.4969512"
         d="m 158.01418,111.37422 c 0,0.82675 -0.67021,1.49695 -1.49695,1.49695 -0.82675,0 -1.49695,-0.6702 -1.49695,-1.49695 0,-0.82674 0.6702,-1.49695 1.49695,-1.49695 0.82674,0 1.49695,0.67021 1.49695,1.49695 z m 13.18676,17.09806 c 0,0.82674 -0.6702,1.49695 -1.49695,1.49695 -0.82674,0 -1.49695,-0.67021 -1.49695,-1.49695 0,-0.82675 0.67021,-1.49695 1.49695,-1.49695 0.82675,0 1.49695,0.6702 1.49695,1.49695 z" /><g
         id="g4729"><g
           id="g4734"><path
             style="opacity:1;fill:#ffffff;fill-opacity:1;stroke:none;stroke-width:1.76363;stroke-linecap:round;stroke-linejoin:round;stroke-dasharray:none;stroke-opacity:1"
             id="rect4718"
             width="0.98855269"
             height="6.4962034"
             x="156.02295"
             y="104.25665"
             ry="0.32481018"
             d="m 156.34776,104.25665 h 0.33893 c 0.17995,0 0.32481,0.14487 0.32481,0.32481 v 5.84659 c 0,0.17994 -0.14486,0.32481 -0.32481,0.32481 h -0.33893 c -0.17995,0 -0.32481,-0.14487 -0.32481,-0.32481 v -5.84659 c 0,-0.17994 0.14486,-0.32481 0.32481,-0.32481 z m 13.18676,17.09806 h 0.33894 c 0.17994,0 0.32481,0.14486 0.32481,0.32481 v 5.84658 c 0,0.17995 -0.14487,0.32481 -0.32481,0.32481 h -0.33894 c -0.17994,0 -0.32481,-0.14486 -0.32481,-0.32481 v -5.84658 c 0,-0.17995 0.14487,-0.32481 0.32481,-0.32481 z"
             sodipodi:type="rect" /><path
             style="opacity:1;fill:#ffffff;fill-opacity:1;stroke:none;stroke-width:1.05305;stroke-linecap:round;stroke-linejoin:round;stroke-dasharray:none;stroke-opacity:1"
             id="rect4722"
             width="0.98855269"
             height="2.3160379"
             x="-6.1533852"
             y="186.86357"
             ry="0.34978563"
             inkscape:transform-center-x="1.1017838"
             inkscape:transform-center-y="-0.82249035"
             transform="rotate(-57.496347)"
             d="m -5.8035995,186.86357 h 0.2889814 c 0.1937812,0 0.3497856,0.15601 0.3497856,0.34979 l 0,1.61646 c 0,0.19378 -0.1560044,0.34979 -0.3497856,0.34979 h -0.2889814 c -0.1937813,0 -0.3497857,-0.15601 -0.3497857,-0.34979 l 0,-1.61646 c 0,-0.19378 0.1560044,-0.34979 0.3497857,-0.34979 z m -7.3338155,20.30885 h 0.288981 c 0.193781,0 0.349786,0.15601 0.349786,0.34979 l 0,1.61647 c 0,0.19378 -0.156005,0.34978 -0.349786,0.34978 h -0.288981 c -0.193782,0 -0.349786,-0.156 -0.349786,-0.34978 l 0,-1.61647 c 0,-0.19378 0.156004,-0.34979 0.349786,-0.34979 z"
             sodipodi:type="rect" /><path
             style="opacity:1;fill:#ffffff;fill-opacity:1;stroke:none;stroke-width:1.05305;stroke-linecap:round;stroke-linejoin:round;stroke-dasharray:none;stroke-opacity:1"
             id="rect4724"
             width="0.98855269"
             height="2.3160379"
             x="-174.38544"
             y="-77.170731"
             ry="0.34978563"
             inkscape:transform-center-x="-1.1017865"
             inkscape:transform-center-y="-0.8224885"
             transform="matrix(-0.53735338,-0.84335719,-0.84335719,0.53735338,0,0)"
             d="m -174.03565,-77.170731 h 0.28898 c 0.19378,0 0.34979,0.156005 0.34979,0.349786 v 1.616467 c 0,0.193781 -0.15601,0.349785 -0.34979,0.349785 h -0.28898 c -0.19378,0 -0.34979,-0.156004 -0.34979,-0.349785 v -1.616467 c 0,-0.193781 0.15601,-0.349786 0.34979,-0.349786 z m -21.50572,-1.933455 0.28898,0 c 0.19378,0 0.34978,0.156005 0.34978,0.349786 l 0,1.616467 c 0,0.193781 -0.156,0.349785 -0.34978,0.349785 h -0.28898 c -0.19378,0 -0.34979,-0.156004 -0.34979,-0.349785 l 0,-1.616467 c 0,-0.193781 0.15601,-0.349786 0.34979,-0.349786 z"
             sodipodi:type="rect" /><path
             style="opacity:1;fill:#ffffff;fill-opacity:1;stroke:none;stroke-width:1.76363;stroke-linecap:round;stroke-linejoin:round;stroke-dasharray:none;stroke-opacity:1"
             id="rect4760"
             width="0.98855269"
             height="6.4962034"
             x="156.02295"
             y="-118.50507"
             ry="0.32481018"
             transform="scale(1,-1)"
             d="m 156.34776,-118.50507 h 0.33893 c 0.17995,0 0.32481,0.14486 0.32481,0.32481 v 5.84658 c 0,0.17994 -0.14486,0.32481 -0.32481,0.32481 h -0.33893 c -0.17995,0 -0.32481,-0.14487 -0.32481,-0.32481 v -5.84658 c 0,-0.17995 0.14486,-0.32481 0.32481,-0.32481 z m 13.18676,-17.09806 h 0.33894 c 0.17994,0 0.32481,0.14487 0.32481,0.32481 v 5.84658 c 0,0.17995 -0.14487,0.32481 -0.32481,0.32481 h -0.33894 c -0.17994,0 -0.32481,-0.14486 -0.32481,-0.32481 v -5.84658 c 0,-0.17994 0.14487,-0.32481 0.32481,-0.32481 z"
             sodipodi:type="rect" /><path
             style="opacity:1;fill:#ffffff;fill-opacity:1;stroke:none;stroke-width:1.05305;stroke-linecap:round;stroke-linejoin:round;stroke-dasharray:none;stroke-opacity:1"
             id="rect4762"
             width="0.98855269"
             height="2.3160379"
             x="181.71423"
             y="67.161835"
             ry="0.34978563"
             inkscape:transform-center-x="1.1017882"
             inkscape:transform-center-y="0.82248472"
             transform="matrix(0.53735338,0.84335719,0.84335719,-0.53735338,0,0)"
             d="m 182.06402,67.161835 0.28898,0 c 0.19378,0 0.34979,0.156004 0.34979,0.349785 v 1.616467 c 0,0.193781 -0.15601,0.349786 -0.34979,0.349786 h -0.28898 c -0.19378,0 -0.34979,-0.156005 -0.34979,-0.349786 V 67.51162 c 0,-0.193781 0.15601,-0.349785 0.34979,-0.349785 z m 21.50572,1.933455 h 0.28898 c 0.19378,0 0.34979,0.156004 0.34979,0.349785 l 0,1.616467 c 0,0.193781 -0.15601,0.349786 -0.34979,0.349786 h -0.28898 c -0.19378,0 -0.34978,-0.156005 -0.34978,-0.349786 v -1.616467 c 0,-0.193781 0.156,-0.349785 0.34978,-0.349785 z"
             sodipodi:type="rect" /><path
             style="opacity:1;fill:#ffffff;fill-opacity:1;stroke:none;stroke-width:1.05305;stroke-linecap:round;stroke-linejoin:round;stroke-dasharray:none;stroke-opacity:1"
             id="rect4764"
             width="0.98855269"
             height="2.3160379"
             x="13.482266"
             y="-196.87251"
             ry="0.34978563"
             inkscape:transform-center-x="-1.1017928"
             inkscape:transform-center-y="0.82248065"
             transform="rotate(122.50365)"
             d="m 13.832052,-196.87251 h 0.288981 c 0.193782,0 0.349786,0.156 0.349786,0.34978 v 1.61647 c 0,0.19378 -0.156004,0.34979 -0.349786,0.34979 h -0.288981 c -0.193781,0 -0.349786,-0.15601 -0.349786,-0.34979 v -1.61647 c 0,-0.19378 0.156005,-0.34978 0.349786,-0.34978 z m 7.333817,-20.30885 h 0.288981 c 0.193782,0 0.349786,0.156 0.349786,0.34978 v 1.61647 c 0,0.19378 -0.156004,0.34978 -0.349786,0.34978 h -0.288981 c -0.193781,0 -0.349786,-0.156 -0.349786,-0.34978 l 0,-1.61647 c 0,-0.19378 0.156005,-0.34978 0.349786,-0.34978 z"
             sodipodi:type="rect" /><g
             id="g4775"
             inkscape:transform-center-x="-3.3851657"
             inkscape:transform-center-y="2.3184832"
             transform="rotate(-60.795554,156.5094,111.47223)"><path
               style="opacity:1;fill:#ffffff;fill-opacity:1;stroke:none;stroke-width:1.76363;stroke-linecap:round;stroke-linejoin:round;stroke-dasharray:none;stroke-opacity:1"
               id="rect4766"
               width="0.98855269"
               height="6.4962034"
               x="156.02295"
               y="-118.50507"
               ry="0.32481018"
               transform="scale(1,-1)"
               d="m 156.34776,-118.50507 h 0.33893 c 0.17995,0 0.32481,0.14486 0.32481,0.32481 l 0,5.84658 c 0,0.17994 -0.14486,0.32481 -0.32481,0.32481 l -0.33893,0 c -0.17995,0 -0.32481,-0.14487 -0.32481,-0.32481 v -5.84658 c 0,-0.17995 0.14486,-0.32481 0.32481,-0.32481 z m -8.49044,-19.85313 h 0.33893 c 0.17995,0 0.32481,0.14486 0.32481,0.32481 v 5.84658 c 0,0.17994 -0.14486,0.32481 -0.32481,0.32481 h -0.33893 c -0.17995,0 -0.32481,-0.14487 -0.32481,-0.32481 v -5.84658 c 0,-0.17995 0.14486,-0.32481 0.32481,-0.32481 z"
               sodipodi:type="rect" /><path
               style="opacity:1;fill:#ffffff;fill-opacity:1;stroke:none;stroke-width:1.05305;stroke-linecap:round;stroke-linejoin:round;stroke-dasharray:none;stroke-opacity:1"
               id="rect4768"
               width="0.98855269"
               height="2.3160379"
               x="181.71423"
               y="67.161835"
               ry="0.34978563"
               inkscape:transform-center-x="1.1017882"
               inkscape:transform-center-y="0.82248472"
               transform="matrix(0.53735338,0.84335719,0.84335719,-0.53735338,0,0)"
               d="m 182.06402,67.161835 0.28898,0 c 0.19378,0 0.34979,0.156004 0.34979,0.349785 v 1.616467 c 0,0.193781 -0.15601,0.349786 -0.34979,0.349786 l -0.28898,0 c -0.19378,0 -0.34979,-0.156005 -0.34979,-0.349786 V 67.51162 c 0,-0.193781 0.15601,-0.349785 0.34979,-0.349785 z m 12.18091,-17.82862 0.28898,0 c 0.19378,0 0.34979,0.156005 0.34979,0.349786 l 0,1.616466 c 0,0.193782 -0.15601,0.349786 -0.34979,0.349786 l -0.28898,0 c -0.19378,0 -0.34978,-0.156004 -0.34978,-0.349786 v -1.616466 c 0,-0.193781 0.156,-0.349786 0.34978,-0.349786 z"
               sodipodi:type="rect" /><path
               style="opacity:1;fill:#ffffff;fill-opacity:1;stroke:none;stroke-width:1.05305;stroke-linecap:round;stroke-linejoin:round;stroke-dasharray:none;stroke-opacity:1"
               id="rect4770"
               width="0.98855269"
               height="2.3160379"
               x="13.482266"
               y="-196.87251"
               ry="0.34978563"
               inkscape:transform-center-x="-1.1017928"
               inkscape:transform-center-y="0.82248065"
               transform="rotate(122.50365)"
               d="m 13.832052,-196.87251 h 0.288981 c 0.193782,0 0.349786,0.156 0.349786,0.34978 l 0,1.61647 c 0,0.19378 -0.156004,0.34979 -0.349786,0.34979 h -0.288981 c -0.193781,0 -0.349786,-0.15601 -0.349786,-0.34979 l 0,-1.61647 c 0,-0.19378 0.156005,-0.34978 0.349786,-0.34978 z m 21.305646,-3.50767 h 0.288982 c 0.193781,0 0.349785,0.156 0.349785,0.34978 l 0,1.61647 c 0,0.19378 -0.156004,0.34978 -0.349785,0.34978 h -0.288982 c -0.193781,0 -0.349785,-0.156 -0.349785,-0.34978 l 0,-1.61647 c 0,-0.19378 0.156004,-0.34978 0.349785,-0.34978 z"
               sodipodi:type="rect" /></g></g><g
           id="g4742"
           inkscape:transform-center-y="-2.3459761"
           transform="rotate(-60,156.53764,111.26125)"
           inkscape:transform-center-x="3.3420462"><path
             style="opacity:1;fill:#ffffff;fill-opacity:1;stroke:none;stroke-width:1.76363;stroke-linecap:round;stroke-linejoin:round;stroke-dasharray:none;stroke-opacity:1"
             id="rect4736"
             width="0.98855269"
             height="6.4962034"
             x="156.02295"
             y="104.25665"
             ry="0.32481018"
             d="m 156.34776,104.25665 h 0.33893 c 0.17995,0 0.32481,0.14487 0.32481,0.32481 v 5.84659 c 0,0.17994 -0.14486,0.32481 -0.32481,0.32481 h -0.33893 c -0.17995,0 -0.32481,-0.14487 -0.32481,-0.32481 v -5.84659 c 0,-0.17994 0.14486,-0.32481 0.32481,-0.32481 z m -8.21397,19.9691 h 0.33893 c 0.17995,0 0.32481,0.14487 0.32481,0.32482 v 5.84658 c 0,0.17994 -0.14486,0.32481 -0.32481,0.32481 h -0.33893 c -0.17994,0 -0.32481,-0.14487 -0.32481,-0.32481 v -5.84658 c 0,-0.17995 0.14487,-0.32482 0.32481,-0.32482 z"
             sodipodi:type="rect" /><path
             style="opacity:1;fill:#ffffff;fill-opacity:1;stroke:none;stroke-width:1.05305;stroke-linecap:round;stroke-linejoin:round;stroke-dasharray:none;stroke-opacity:1"
             id="rect4738"
             width="0.98855269"
             height="2.3160379"
             x="-6.1533852"
             y="186.86357"
             ry="0.34978563"
             inkscape:transform-center-x="1.1017838"
             inkscape:transform-center-y="-0.82249035"
             transform="rotate(-57.496347)"
             d="m -5.8035995,186.86357 h 0.2889814 c 0.1937812,0 0.3497856,0.15601 0.3497856,0.34979 l 0,1.61646 c 0,0.19378 -0.1560044,0.34979 -0.3497856,0.34979 h -0.2889814 c -0.1937813,0 -0.3497857,-0.15601 -0.3497857,-0.34979 l 0,-1.61646 c 0,-0.19378 0.1560044,-0.34979 0.3497857,-0.34979 z m -21.2548895,3.80316 h 0.288981 c 0.193782,0 0.349786,0.156 0.349786,0.34978 l 0,1.61647 c 0,0.19378 -0.156004,0.34978 -0.349786,0.34978 h -0.288981 c -0.193781,0 -0.349786,-0.156 -0.349786,-0.34978 v -1.61647 c 0,-0.19378 0.156005,-0.34978 0.349786,-0.34978 z"
             sodipodi:type="rect" /><path
             style="opacity:1;fill:#ffffff;fill-opacity:1;stroke:none;stroke-width:1.05305;stroke-linecap:round;stroke-linejoin:round;stroke-dasharray:none;stroke-opacity:1"
             id="rect4740"
             width="0.98855269"
             height="2.3160379"
             x="-174.38544"
             y="-77.170731"
             ry="0.34978563"
             inkscape:transform-center-x="-1.1017865"
             inkscape:transform-center-y="-0.8224885"
             transform="matrix(-0.53735338,-0.84335719,-0.84335719,0.53735338,0,0)"
             d="m -174.03565,-77.170731 h 0.28898 c 0.19378,0 0.34979,0.156005 0.34979,0.349786 v 1.616467 c 0,0.193781 -0.15601,0.349785 -0.34979,0.349785 h -0.28898 c -0.19378,0 -0.34979,-0.156004 -0.34979,-0.349785 v -1.616467 c 0,-0.193781 0.15601,-0.349786 0.34979,-0.349786 z m -12.42728,17.657774 h 0.28898 c 0.19378,0 0.34978,0.156005 0.34978,0.349786 v 1.616467 c 0,0.193781 -0.156,0.349785 -0.34978,0.349785 h -0.28898 c -0.19378,0 -0.34979,-0.156004 -0.34979,-0.349785 l 0,-1.616467 c 0,-0.193781 0.15601,-0.349786 0.34979,-0.349786 z"
             sodipodi:type="rect" /></g><g
           id="g4750"
           inkscape:transform-center-y="2.482226"
           transform="rotate(-122.81845,156.35953,111.20116)"
           inkscape:transform-center-x="3.2739992"><path
             style="opacity:1;fill:#ffffff;fill-opacity:1;stroke:none;stroke-width:1.76363;stroke-linecap:round;stroke-linejoin:round;stroke-dasharray:none;stroke-opacity:1"
             id="rect4744"
             width="0.98855269"
             height="6.4962034"
             x="156.02295"
             y="104.25665"
             ry="0.32481018"
             d="m 156.34776,104.25665 0.33893,0 c 0.17995,0 0.32481,0.14487 0.32481,0.32481 v 5.84659 c 0,0.17994 -0.14486,0.32481 -0.32481,0.32481 h -0.33893 c -0.17995,0 -0.32481,-0.14487 -0.32481,-0.32481 v -5.84659 c 0,-0.17994 0.14486,-0.32481 0.32481,-0.32481 z m -21.51602,1.81527 0.33893,0 c 0.17995,0 0.32481,0.14487 0.32481,0.32481 v 5.84658 c 0,0.17995 -0.14486,0.32481 -0.32481,0.32481 h -0.33893 c -0.17995,0 -0.32481,-0.14486 -0.32481,-0.32481 l 0,-5.84658 c 0,-0.17994 0.14486,-0.32481 0.32481,-0.32481 z"
             sodipodi:type="rect" /><path
             style="opacity:1;fill:#ffffff;fill-opacity:1;stroke:none;stroke-width:1.05305;stroke-linecap:round;stroke-linejoin:round;stroke-dasharray:none;stroke-opacity:1"
             id="rect4746"
             width="0.98855269"
             height="2.3160379"
             x="-6.1533852"
             y="186.86357"
             ry="0.34978563"
             inkscape:transform-center-x="1.1017838"
             inkscape:transform-center-y="-0.82249035"
             transform="rotate(-57.496347)"
             d="m -5.8035995,186.86357 0.2889814,0 c 0.1937812,0 0.3497856,0.15601 0.3497856,0.34979 l 0,1.61646 c 0,0.19378 -0.1560044,0.34979 -0.3497856,0.34979 h -0.2889814 c -0.1937813,0 -0.3497857,-0.15601 -0.3497857,-0.34979 l 0,-1.61646 c 0,-0.19378 0.1560044,-0.34979 0.3497857,-0.34979 z m -13.0926265,-17.17025 0.288982,0 c 0.193781,0 0.349786,0.15601 0.349786,0.34979 l 0,1.61646 c 0,0.19379 -0.156005,0.34979 -0.349786,0.34979 h -0.288982 c -0.193781,0 -0.349785,-0.156 -0.349785,-0.34979 l 0,-1.61646 c 0,-0.19378 0.156004,-0.34979 0.349785,-0.34979 z"
             sodipodi:type="rect" /><path
             style="opacity:1;fill:#ffffff;fill-opacity:1;stroke:none;stroke-width:1.05305;stroke-linecap:round;stroke-linejoin:round;stroke-dasharray:none;stroke-opacity:1"
             id="rect4748"
             width="0.98855269"
             height="2.3160379"
             x="-174.38544"
             y="-77.170731"
             ry="0.34978563"
             inkscape:transform-center-x="-1.1017865"
             inkscape:transform-center-y="-0.8224885"
             transform="matrix(-0.53735338,-0.84335719,-0.84335719,0.53735338,0,0)"
             d="m -174.03565,-77.170731 h 0.28898 c 0.19378,0 0.34979,0.156005 0.34979,0.349786 v 1.616467 c 0,0.193781 -0.15601,0.349785 -0.34979,0.349785 l -0.28898,0 c -0.19378,0 -0.34979,-0.156004 -0.34979,-0.349785 l 0,-1.616467 c 0,-0.193781 0.15601,-0.349786 0.34979,-0.349786 z m 10.03078,19.121131 0.28899,0 c 0.19378,0 0.34978,0.156005 0.34978,0.349786 l 0,1.616467 c 0,0.193781 -0.156,0.349785 -0.34978,0.349785 l -0.28899,0 c -0.19378,0 -0.34978,-0.156004 -0.34978,-0.349785 v -1.616467 c 0,-0.193781 0.156,-0.349786 0.34978,-0.349786 z"
             sodipodi:type="rect" /></g><g
           id="g4758"
           inkscape:transform-center-y="-2.3092335"
           transform="rotate(61.258261,156.53924,111.06911)"
           inkscape:transform-center-x="-3.3550982"><path
             style="opacity:1;fill:#ffffff;fill-opacity:1;stroke:none;stroke-width:1.76363;stroke-linecap:round;stroke-linejoin:round;stroke-dasharray:none;stroke-opacity:1"
             id="rect4752"
             width="0.98855269"
             height="6.4962034"
             x="156.02295"
             y="104.25665"
             ry="0.32481018"
             d="m 156.34776,104.25665 0.33893,0 c 0.17995,0 0.32481,0.14487 0.32481,0.32481 v 5.84659 c 0,0.17994 -0.14486,0.32481 -0.32481,0.32481 h -0.33893 c -0.17995,0 -0.32481,-0.14487 -0.32481,-0.32481 v -5.84659 c 0,-0.17994 0.14486,-0.32481 0.32481,-0.32481 z m 21.33253,-3.34029 h 0.33893 c 0.17994,0 0.32481,0.14487 0.32481,0.32481 v 5.84658 c 0,0.17995 -0.14487,0.32481 -0.32481,0.32481 h -0.33893 c -0.17995,0 -0.32481,-0.14486 -0.32481,-0.32481 v -5.84658 c 0,-0.17994 0.14486,-0.32481 0.32481,-0.32481 z"
             sodipodi:type="rect" /><path
             style="opacity:1;fill:#fefefe;fill-opacity:1;stroke:none;stroke-width:1.05305;stroke-linecap:round;stroke-linejoin:round;stroke-dasharray:none;stroke-opacity:1"
             id="rect4754"
             width="0.98855269"
             height="2.3160379"
             x="-6.1533852"
             y="186.86357"
             ry="0.34978563"
             inkscape:transform-center-x="1.1017838"
             inkscape:transform-center-y="-0.82249035"
             transform="rotate(-57.496347)"
             d="m -5.8035995,186.86357 h 0.2889814 c 0.1937812,0 0.3497856,0.15601 0.3497856,0.34979 l 0,1.61646 c 0,0.19378 -0.1560044,0.34979 -0.3497856,0.34979 h -0.2889814 c -0.1937813,0 -0.3497857,-0.15601 -0.3497857,-0.34979 l 0,-1.61646 c 0,-0.19378 0.1560044,-0.34979 0.3497857,-0.34979 z m 14.280166,16.19602 0.2889815,0 c 0.1937812,0 0.3497856,0.15601 0.3497856,0.34979 l 0,1.61647 c 0,0.19378 -0.1560044,0.34978 -0.3497856,0.34978 H 8.4765665 c -0.1937812,0 -0.3497856,-0.156 -0.3497856,-0.34978 l 0,-1.61647 c 0,-0.19378 0.1560044,-0.34979 0.3497856,-0.34979 z"
             sodipodi:type="rect" /><path
             style="opacity:1;fill:#ffffff;fill-opacity:1;stroke:none;stroke-width:1.05305;stroke-linecap:round;stroke-linejoin:round;stroke-dasharray:none;stroke-opacity:1"
             id="rect4756"
             width="0.98855269"
             height="2.3160379"
             x="-174.38544"
             y="-77.170731"
             ry="0.34978563"
             inkscape:transform-center-x="-1.1017865"
             inkscape:transform-center-y="-0.8224885"
             transform="matrix(-0.53735338,-0.84335719,-0.84335719,0.53735338,0,0)"
             d="m -174.03565,-77.170731 0.28898,0 c 0.19378,0 0.34979,0.156005 0.34979,0.349786 v 1.616467 c 0,0.193781 -0.15601,0.349785 -0.34979,0.349785 l -0.28898,0 c -0.19378,0 -0.34979,-0.156004 -0.34979,-0.349785 v -1.616467 c 0,-0.193781 0.15601,-0.349786 0.34979,-0.349786 z m -8.64605,-19.785858 0.28898,0 c 0.19379,0 0.34979,0.156004 0.34979,0.349785 l 0,1.616467 c 0,0.193781 -0.156,0.349786 -0.34979,0.349786 l -0.28898,0 c -0.19378,0 -0.34978,-0.156005 -0.34978,-0.349786 v -1.616467 c 0,-0.193781 0.156,-0.349785 0.34978,-0.349785 z"
             sodipodi:type="rect" /></g></g></g></g></svg>
