<?xml version="1.0" encoding="UTF-8" standalone="no"?>
<!-- Created with Inkscape (http://www.inkscape.org/) -->

<svg
   width="200"
   height="200"
   viewBox="0 0 52.916667 52.916667"
   version="1.1"
   id="svg5"
   xml:space="preserve"
   inkscape:version="1.2 (dc2aedaf03, 2022-05-15)"
   sodipodi:docname="Array Tile_Wonderland.svg"
   xmlns:inkscape="http://www.inkscape.org/namespaces/inkscape"
   xmlns:sodipodi="http://sodipodi.sourceforge.net/DTD/sodipodi-0.dtd"
   xmlns="http://www.w3.org/2000/svg"
   xmlns:svg="http://www.w3.org/2000/svg"><sodipodi:namedview
     id="namedview7"
     pagecolor="#505050"
     bordercolor="#ffffff"
     borderopacity="1"
     inkscape:showpageshadow="0"
     inkscape:pageopacity="0"
     inkscape:pagecheckerboard="1"
     inkscape:deskcolor="#505050"
     inkscape:document-units="mm"
     showgrid="false"
     showguides="false"
     inkscape:zoom="2.0196773"
     inkscape:cx="85.162119"
     inkscape:cy="103.48188"
     inkscape:window-width="1366"
     inkscape:window-height="705"
     inkscape:window-x="-8"
     inkscape:window-y="-8"
     inkscape:window-maximized="1"
     inkscape:current-layer="layer1" /><defs
     id="defs2"><inkscape:path-effect
       effect="tiling"
       id="path-effect3819"
       is_visible="true"
       lpeversion="1"
       unit="px"
       seed="1;1"
       lpesatellites=""
       num_rows="2"
       num_cols="1"
       gapx="63"
       gapy="6"
       offset="55"
       offset_type="false"
       scale="0"
       rotate="0"
       mirrorrowsx="false"
       mirrorrowsy="false"
       mirrorcolsx="false"
       mirrorcolsy="false"
       mirrortrans="false"
       shrink_interp="false"
       split_items="false"
       link_styles="false"
       interpolate_scalex="false"
       interpolate_scaley="true"
       interpolate_rotatex="false"
       interpolate_rotatey="true"
       random_scale="false"
       random_rotate="false"
       random_gap_y="false"
       random_gap_x="false"
       transformorigin="matrix(2.025599,0,0,2.025599,-153.31592,-107.77501)" /><style
       id="style8119">.cls-1{fill:url(#linear-gradient);}.cls-2{fill:url(#linear-gradient-2);}.cls-3{fill:#ffcd05;}.cls-4{fill:#4ab96d;}.cls-5{fill:#cd8029;}.cls-6{fill:#fabc2e;}.cls-7{fill:#fff;}.cls-8{fill:#414042;}.cls-9{fill:#f4fbfe;}.cls-10{fill:#680e19;}.cls-11{fill:#c62639;}.cls-12{fill:#dd7399;}.cls-13{fill:#914f93;}.cls-14{fill:#5c2c60;}.cls-15{fill:#c62c6b;}.cls-16{fill:#b26a28;}.cls-17{fill:#66402d;}.cls-18{fill:#753f77;}.cls-19{fill:#a768ab;}.cls-20{fill:#f1f2f2;}</style></defs><g
     inkscape:label="Layer 1"
     inkscape:groupmode="layer"
     id="layer1"
     transform="translate(-149.48914,-105.08495)"><g
       id="g9515"
       transform="matrix(2.025599,0,0,2.025599,-152.69627,-107.53323)"
       inkscape:path-effect="#path-effect3819"
       class="UnoptimicedTransforms"><path
         id="ellipse8211"
         style="fill:#ffffff;fill-opacity:1;stroke-width:0.122912"
         class="cls-18"
         d="m -83.756769,168.13158 c -0.566024,-0.92981 -1.261777,-1.43503 -1.978013,-1.43632 -1.785156,4.1e-4 -3.232212,3.06649 -3.232225,6.84858 -5.2e-5,3.78225 1.447068,6.84851 3.232299,6.84883 0.743634,-1.2e-4 1.464508,-0.54344 2.041106,-1.53835 -0.12108,0.0419 -0.243361,0.0737 -0.366323,0.0953 -1.91526,0.31784 -3.599445,-1.8539 -3.761883,-4.85092 -0.162326,-2.99709 1.258638,-5.68456 3.173911,-6.00282 0.297599,-0.0481 0.597101,-0.0361 0.891128,0.0357 z m -11.082194,14.08326 c -0.566024,-0.92982 -1.261777,-1.43503 -1.978013,-1.43632 -1.785156,4e-4 -3.232214,3.06649 -3.232224,6.84858 -5e-5,3.78224 1.447067,6.84851 3.232298,6.84883 0.743634,-1.3e-4 1.464508,-0.54344 2.041106,-1.53835 -0.12108,0.0419 -0.243361,0.0737 -0.366323,0.0953 -1.91526,0.31784 -3.599445,-1.8539 -3.761883,-4.85092 -0.162326,-2.99709 1.258638,-5.68457 3.173911,-6.00282 0.297599,-0.0481 0.597101,-0.0361 0.891128,0.0357 z"
         transform="rotate(-80.119806)"
         inkscape:original-d="m -83.756769,168.13158 a 3.2325723,6.848629 0 0 0 -1.978013,-1.43632 3.2325723,6.848629 0 0 0 -3.232225,6.84858 3.2325723,6.848629 0 0 0 3.232299,6.84883 3.2325723,6.848629 0 0 0 2.041106,-1.53835 3.4792635,5.4583418 1.3021318 0 1 -0.366323,0.0953 3.4792635,5.4583418 1.3021318 0 1 -3.761883,-4.85092 3.4792635,5.4583418 1.3021318 0 1 3.173911,-6.00282 3.4792635,5.4583418 1.3021318 0 1 0.891128,0.0357 z" /><path
         id="path8213"
         style="fill:#ffffff;fill-opacity:1;stroke-width:0.122912"
         class="cls-13"
         d="m 152.33545,107.88669 -0.0491,0.68265 c 0.4617,0.26215 1.01375,0.51967 1.59111,0.66456 -0.74207,-0.40347 -1.27687,-0.8707 -1.54202,-1.34721 z m 1.88826,1.52394 -0.1695,2.84014 c -0.83489,-0.39663 -1.47608,-0.87155 -1.8371,-1.36839 v 0.001 l -0.0822,-0.22066 -0.032,0.44494 c 0.81589,0.82397 2.40236,1.54972 4.31034,1.8743 1.97017,0.33521 3.78058,0.16122 4.84104,-0.38551 l 0.82579,-2.94865 c -1.00144,0.71299 -2.99131,0.95119 -5.07669,0.60771 -1.0102,-0.1671 -1.97501,-0.46036 -2.77967,-0.84491 z m -2.13683,4.28036 c 0.44064,1.02161 1.9549,1.96165 3.86644,2.29495 2.201,0.38378 4.17545,-0.17097 4.6886,-1.25212 -0.8211,0.80531 -2.6846,1.16608 -4.72633,0.81856 -1.73053,-0.29455 -3.1516,-1.0229 -3.82871,-1.86139 z m 12.22138,7.53006 -0.0491,0.68265 c 0.4617,0.26215 1.01375,0.51967 1.59111,0.66456 -0.74208,-0.40347 -1.27687,-0.87071 -1.54202,-1.34721 z m 1.88826,1.52394 -0.1695,2.84014 c -0.83489,-0.39663 -1.47608,-0.87155 -1.8371,-1.36839 v 0.001 l -0.0822,-0.22066 -0.032,0.44494 c 0.81589,0.82397 2.40236,1.54972 4.31034,1.8743 1.97017,0.33521 3.78058,0.16122 4.84104,-0.38551 l 0.82579,-2.94865 c -1.00144,0.71298 -2.99131,0.95118 -5.07669,0.60771 -1.0102,-0.1671 -1.97501,-0.46036 -2.77967,-0.84491 z m -2.13683,4.28036 c 0.44064,1.02161 1.9549,1.96165 3.86644,2.29495 2.201,0.38378 4.17545,-0.17097 4.6886,-1.25212 -0.8211,0.80531 -2.6846,1.16608 -4.72633,0.81856 -1.73053,-0.29455 -3.1516,-1.0229 -3.82871,-1.86139 z"
         inkscape:original-d="m 152.33545,107.88669 -0.0491,0.68265 c 0.4617,0.26215 1.01375,0.51967 1.59111,0.66456 a 5.3453215,2.3967361 9.102864 0 1 -1.54202,-1.34721 z m 1.88826,1.52394 -0.1695,2.84014 c -0.83489,-0.39663 -1.47608,-0.87155 -1.8371,-1.36839 v 0.001 l -0.0822,-0.22066 -0.032,0.44494 c 0.81589,0.82397 2.40236,1.54972 4.31034,1.8743 1.97017,0.33521 3.78058,0.16122 4.84104,-0.38551 l 0.82579,-2.94865 a 5.3453215,2.3967361 9.102864 0 1 -5.07669,0.60771 5.3453215,2.3967361 9.102864 0 1 -2.77967,-0.84491 z m -2.13683,4.28036 c 0.44064,1.02161 1.9549,1.96165 3.86644,2.29495 2.201,0.38378 4.17545,-0.17097 4.6886,-1.25212 -0.8211,0.80531 -2.6846,1.16608 -4.72633,0.81856 -1.73053,-0.29455 -3.1516,-1.0229 -3.82871,-1.86139 z" /><path
         id="ellipse8215"
         style="fill:#ffffff;stroke-width:0.122912"
         class="cls-19"
         transform="rotate(-80.119806)"
         d="m -76.59817,173.54431 c 0,2.80014 -1.071421,5.0701 -2.393087,5.0701 -1.321665,0 -2.393086,-2.26996 -2.393086,-5.0701 0,-2.80014 1.071421,-5.0701 2.393086,-5.0701 1.321666,0 2.393087,2.26996 2.393087,5.0701 z m -11.082194,14.08326 c 0,2.80014 -1.071421,5.0701 -2.393087,5.0701 -1.321665,0 -2.393086,-2.26996 -2.393086,-5.0701 0,-2.80014 1.071421,-5.0701 2.393086,-5.0701 1.321666,0 2.393087,2.26996 2.393087,5.0701 z"
         inkscape:original-d="m -76.59817,173.54431 a 2.3930867,5.0700994 0 0 1 -2.393087,5.0701 2.3930867,5.0700994 0 0 1 -2.393086,-5.0701 2.3930867,5.0700994 0 0 1 2.393086,-5.0701 2.3930867,5.0700994 0 0 1 2.393087,5.0701 z" /><path
         id="path8217"
         style="fill:#ffffff;fill-opacity:1;stroke-width:0.118573"
         class="cls-20"
         d="m 151.04044,108.19314 1.05316,2.83358 v -9.6e-4 c 0.32317,0.44475 0.8975,0.86986 1.64486,1.22491 l 0.1571,-2.63497 c -1.46709,-0.23835 -2.85512,-1.42256 -2.85512,-1.42256 z m 11.97281,13.33436 1.05316,2.83358 v -9.6e-4 c 0.32317,0.44475 0.8975,0.86986 1.64486,1.22491 l 0.1571,-2.63497 c -1.46709,-0.23835 -2.85512,-1.42256 -2.85512,-1.42256 z"
         inkscape:original-d="m 151.04044,108.19314 1.05316,2.83358 v -9.6e-4 c 0.32317,0.44475 0.8975,0.86986 1.64486,1.22491 l 0.1571,-2.63497 c -1.46709,-0.23835 -2.85512,-1.42256 -2.85512,-1.42256 z" /><path
         class="cls-4"
         d="m 156.40191,113.41215 c -2.02287,-0.35251 -3.6641,-1.22287 -4.30825,-2.17546 l -0.11718,1.62725 c -0.22712,1.30204 1.55446,2.69939 3.97708,3.1218 2.42262,0.42242 4.57104,-0.29177 4.79816,-1.59383 l 0.43941,-1.57188 c -0.9273,0.68542 -2.76637,0.94464 -4.78922,0.59209 z m 11.97281,13.33436 c -2.02287,-0.35251 -3.6641,-1.22287 -4.30825,-2.17546 l -0.11718,1.62725 c -0.22712,1.30204 1.55446,2.69939 3.97708,3.1218 2.42262,0.42242 4.57104,-0.29177 4.79816,-1.59383 l 0.43941,-1.57188 c -0.9273,0.68542 -2.76637,0.94464 -4.78922,0.59209 z"
         id="path8219"
         style="fill:#ffffff;fill-opacity:1;stroke-width:0.122912"
         inkscape:original-d="m 156.40191,113.41215 c -2.02287,-0.35251 -3.6641,-1.22287 -4.30825,-2.17546 l -0.11718,1.62725 c -0.22712,1.30204 1.55446,2.69939 3.97708,3.1218 2.42262,0.42242 4.57104,-0.29177 4.79816,-1.59383 l 0.43941,-1.57188 c -0.9273,0.68542 -2.76637,0.94464 -4.78922,0.59209 z" /></g></g></svg>
