<?xml version="1.0" encoding="UTF-8" standalone="no"?>
<!-- Created with Inkscape (http://www.inkscape.org/) -->

<svg
   width="48.79015mm"
   height="24.059mm"
   viewBox="0 0 48.79015 24.059"
   version="1.1"
   id="svg5"
   xml:space="preserve"
   inkscape:version="1.2 (dc2aedaf03, 2022-05-15)"
   sodipodi:docname="Nav Icon_Spooky.svg"
   xmlns:inkscape="http://www.inkscape.org/namespaces/inkscape"
   xmlns:sodipodi="http://sodipodi.sourceforge.net/DTD/sodipodi-0.dtd"
   xmlns="http://www.w3.org/2000/svg"
   xmlns:svg="http://www.w3.org/2000/svg"><sodipodi:namedview
     id="namedview7"
     pagecolor="#505050"
     bordercolor="#ffffff"
     borderopacity="1"
     inkscape:showpageshadow="0"
     inkscape:pageopacity="0"
     inkscape:pagecheckerboard="1"
     inkscape:deskcolor="#505050"
     inkscape:document-units="mm"
     showgrid="false"
     showguides="false"
     inkscape:zoom="1.0074671"
     inkscape:cx="89.82924"
     inkscape:cy="62.533062"
     inkscape:window-width="1366"
     inkscape:window-height="705"
     inkscape:window-x="-8"
     inkscape:window-y="-8"
     inkscape:window-maximized="1"
     inkscape:current-layer="layer1" /><defs
     id="defs2"><inkscape:path-effect
       effect="fillet_chamfer"
       id="path-effect1953"
       is_visible="true"
       lpeversion="1"
       nodesatellites_param="F,0,0,1,0,0,0,1 @ F,0,0,1,0,0,0,1 @ F,0,0,1,0,0.68058242,0,1"
       unit="px"
       method="auto"
       mode="F"
       radius="0"
       chamfer_steps="1"
       flexible="false"
       use_knot_distance="true"
       apply_no_radius="true"
       apply_with_radius="true"
       only_selected="false"
       hide_knots="false" /><inkscape:path-effect
       effect="fillet_chamfer"
       id="path-effect1885"
       is_visible="true"
       lpeversion="1"
       nodesatellites_param="F,0,0,1,0,0.025729922,0,1 @ F,0,0,1,0,0,0,1 @ F,0,0,1,0,0.84764408,0,1 @ F,0,0,1,0,0.9288475,0,1"
       unit="px"
       method="auto"
       mode="F"
       radius="0"
       chamfer_steps="1"
       flexible="false"
       use_knot_distance="true"
       apply_no_radius="true"
       apply_with_radius="true"
       only_selected="false"
       hide_knots="false" /><inkscape:path-effect
       effect="mirror_symmetry"
       start_point="68.275896,78.773197"
       end_point="68.275896,131.68987"
       center_point="68.275896,105.23153"
       id="path-effect1828"
       is_visible="true"
       lpeversion="1.2"
       lpesatellites=""
       mode="vertical"
       discard_orig_path="false"
       fuse_paths="true"
       oposite_fuse="false"
       split_items="false"
       split_open="false"
       link_styles="false" /><inkscape:path-effect
       effect="fillet_chamfer"
       id="path-effect1818"
       is_visible="true"
       lpeversion="1"
       nodesatellites_param="F,0,0,1,0,0,0,1 @ F,0,0,1,0,2.6241049,0,1 @ F,0,0,1,0,0,0,1 @ F,0,0,1,0,1.443101,0,1 @ F,0,0,1,0,0,0,1 @ F,0,0,1,0,0,0,1 @ F,0,0,1,0,0.7857946,0,1 @ F,0,0,1,0,0,0,1 @ F,0,0,1,0,0,0,1 @ F,0,0,1,0,0,0,1"
       unit="px"
       method="auto"
       mode="F"
       radius="0"
       chamfer_steps="1"
       flexible="false"
       use_knot_distance="true"
       apply_no_radius="true"
       apply_with_radius="true"
       only_selected="false"
       hide_knots="false" /><inkscape:path-effect
       effect="mirror_symmetry"
       start_point="109.86484,87.18808"
       end_point="109.86484,140.10475"
       center_point="109.86484,113.64641"
       id="path-effect1649"
       is_visible="true"
       lpeversion="1.2"
       lpesatellites=""
       mode="vertical"
       discard_orig_path="false"
       fuse_paths="false"
       oposite_fuse="false"
       split_items="false"
       split_open="false"
       link_styles="false" /></defs><g
     inkscape:label="Layer 1"
     inkscape:groupmode="layer"
     id="layer1"
     transform="translate(-85.469761,-104.1059)"><g
       id="g1958"><path
         id="path1882"
         style="opacity:1;fill:#ffffff;fill-opacity:1;stroke-width:0.140954;stroke-linecap:round;paint-order:stroke fill markers"
         d="m 114.59896,116.59427 c 0.15816,-0.4734 -10.21891,-0.4663 -9.74431,0.0213 0.40256,0.41359 -1.50604,-8.6685 -1.79955,-11.45714 -0.046,-0.4374 0.36881,-0.59882 0.78106,-0.37706 3.78146,2.03412 7.30522,2.19098 11.96457,-0.007 0.46393,-0.21882 0.9163,-0.0146 0.85298,0.4661 -0.37164,2.82087 -2.38441,11.42782 -2.08993,11.38828 0.0138,-0.002 0.0307,-0.0215 0.0352,-0.0349 z"
         sodipodi:nodetypes="sssss"
         inkscape:path-effect="#path-effect1885"
         inkscape:original-d="m 114.58495,116.6156 c 0.48162,-0.49484 -10.21192,-0.49484 -9.7303,0 0.48164,0.49484 -2.3451,-12.60319 -1.75578,-12.25229 4.29202,2.55563 8.1451,2.78113 13.5345,0 0.60865,-0.3141 -2.53006,12.74713 -2.04842,12.25229 z" /><path
         id="path1647"
         style="opacity:1;fill:#ffffff;fill-opacity:1;fill-rule:evenodd;stroke-width:0.346251"
         class="UnoptimicedTransforms"
         d="m 87.685827,104.10591 c -0.367864,9.4e-4 -0.735495,0.009 -1.102542,0.0232 -1.447643,0.0573 -1.458935,0.5105 -0.178541,1.18383 2.76486,1.454 4.469358,3.79319 4.469519,6.33669 -8.3e-4,0.54166 -0.07953,1.08055 -0.233805,1.60817 -0.223192,0.76333 0.0761,1.18699 0.87194,1.17771 0.025,-2.9e-4 0.05,-4.7e-4 0.075,-5.2e-4 4.052857,-1.1e-4 7.338444,3.04949 7.33857,6.81147 -0.0017,0.1998 -0.01296,0.3993 -0.03358,0.59793 -0.04477,0.43139 0.222814,0.7833 0.655166,0.82026 0.520324,0.0445 1.040114,0.1171 1.555024,0.21737 2.62904,0.51467 5.00201,1.72453 6.63474,3.38273 1.14933,-1.97209 1.74184,-4.09341 1.74201,-6.23682 -3.1e-4,-8.79347 -9.757448,-15.9219 -21.793503,-15.92203 z m 44.358013,0 c 0.36787,9.4e-4 0.7355,0.009 1.10255,0.0232 1.44764,0.0573 1.45893,0.5105 0.17854,1.18383 -2.76486,1.454 -4.46936,3.79319 -4.46952,6.33669 8.3e-4,0.54166 0.0795,1.08055 0.2338,1.60817 0.2232,0.76333 -0.0761,1.18699 -0.87194,1.17771 -0.025,-2.9e-4 -0.05,-4.7e-4 -0.075,-5.2e-4 -4.05285,-1.1e-4 -7.33844,3.04949 -7.33857,6.81147 0.002,0.1998 0.013,0.3993 0.0336,0.59793 0.0448,0.43139 -0.22281,0.7833 -0.65516,0.82026 -0.52033,0.0445 -1.04012,0.1171 -1.55503,0.21737 -2.62904,0.51467 -5.00201,1.72453 -6.63474,3.38273 -1.14933,-1.97209 -1.74184,-4.09341 -1.74201,-6.23682 3.1e-4,-8.79347 9.75745,-15.9219 21.7935,-15.92203 z"
         inkscape:path-effect="#path-effect1818;#path-effect1828"
         inkscape:original-d="m 87.685827,104.10591 a 21.793837,15.922439 0 0 0 -3.716569,0.24288 10.894333,7.8461847 0 0 1 6.905005,7.30085 10.894333,7.8461847 0 0 1 -0.7953,2.93418 7.3383584,6.8116822 0 0 1 1.508435,-0.14882 7.3383584,6.8116822 0 0 1 7.33857,6.81147 7.3383584,6.8116822 0 0 1 -0.162781,1.37252 10.521291,7.524461 9.6982043 0 1 2.339393,0.26304 10.521291,7.524461 9.6982043 0 1 6.63474,3.38273 21.793837,15.922439 0 0 0 1.74201,-6.23682 21.793837,15.922439 0 0 0 -21.793503,-15.92203 z" /><path
         id="rect1950"
         style="opacity:1;fill:#ffffff;fill-opacity:1;stroke-width:0.58992;stroke-linecap:round;paint-order:stroke fill markers"
         d="m 97.08173,114.54345 26.9904,-0.16309 -13.83464,13.59663 a 0.65523332,0.65523332 1.5842609 0 1 -0.94369,-0.0261 z"
         sodipodi:nodetypes="cccc"
         inkscape:path-effect="#path-effect1953"
         inkscape:original-d="m 97.08173,114.54345 26.9904,-0.16309 -14.32004,14.07368 z" /></g></g></svg>
