<?xml version="1.0" encoding="UTF-8" standalone="no"?>
<!-- Created with Inkscape (http://www.inkscape.org/) -->

<svg
   width="30.340267mm"
   height="28.039623mm"
   viewBox="0 0 30.340267 28.039624"
   version="1.1"
   id="svg5"
   xml:space="preserve"
   inkscape:version="1.2 (dc2aedaf03, 2022-05-15)"
   sodipodi:docname="Nav Icon_Outback.svg"
   xmlns:inkscape="http://www.inkscape.org/namespaces/inkscape"
   xmlns:sodipodi="http://sodipodi.sourceforge.net/DTD/sodipodi-0.dtd"
   xmlns="http://www.w3.org/2000/svg"
   xmlns:svg="http://www.w3.org/2000/svg"><sodipodi:namedview
     id="namedview7"
     pagecolor="#505050"
     bordercolor="#ffffff"
     borderopacity="1"
     inkscape:showpageshadow="0"
     inkscape:pageopacity="0"
     inkscape:pagecheckerboard="true"
     inkscape:deskcolor="#505050"
     inkscape:document-units="mm"
     showgrid="false"
     showguides="false"
     inkscape:zoom="2.080321"
     inkscape:cx="54.558888"
     inkscape:cy="53.837846"
     inkscape:window-width="1366"
     inkscape:window-height="705"
     inkscape:window-x="-8"
     inkscape:window-y="-8"
     inkscape:window-maximized="1"
     inkscape:current-layer="layer1" /><defs
     id="defs2"><inkscape:path-effect
       effect="fillet_chamfer"
       id="path-effect1606"
       is_visible="true"
       lpeversion="1"
       nodesatellites_param="F,0,0,1,0,1.3229167,0,1 @ F,0,0,1,0,1.3229167,0,1 @ F,0,0,1,0,1.3229167,0,1"
       unit="px"
       method="auto"
       mode="F"
       radius="5"
       chamfer_steps="1"
       flexible="false"
       use_knot_distance="true"
       apply_no_radius="true"
       apply_with_radius="true"
       only_selected="false"
       hide_knots="false" /><inkscape:path-effect
       effect="bspline"
       id="path-effect1331"
       is_visible="true"
       lpeversion="1"
       weight="33.333333"
       steps="2"
       helper_size="0"
       apply_no_weight="true"
       apply_with_weight="true"
       only_selected="false" /><inkscape:path-effect
       effect="fillet_chamfer"
       id="path-effect1228"
       is_visible="true"
       lpeversion="1"
       nodesatellites_param="F,0,0,1,0,7.2528113,0,1 @ F,0,0,1,0,2.4176038,0,1 @ F,0,0,1,0,0,0,1 @ F,0,0,1,0,0,0,1"
       unit="px"
       method="auto"
       mode="F"
       radius="0"
       chamfer_steps="1"
       flexible="false"
       use_knot_distance="true"
       apply_no_radius="true"
       apply_with_radius="true"
       only_selected="false"
       hide_knots="false" /><inkscape:path-effect
       effect="mirror_symmetry"
       start_point="106.74095,98.228061"
       end_point="106.74095,107.11008"
       center_point="106.74095,102.66907"
       id="path-effect1143"
       is_visible="true"
       lpeversion="1.2"
       lpesatellites=""
       mode="vertical"
       discard_orig_path="false"
       fuse_paths="false"
       oposite_fuse="false"
       split_items="true"
       split_open="false"
       link_styles="false" /><inkscape:path-effect
       effect="fillet_chamfer"
       id="path-effect1141"
       is_visible="true"
       lpeversion="1"
       nodesatellites_param="F,0,0,1,0,2.1630514,0,1 @ F,0,0,1,0,0,0,1 @ F,0,0,1,0,0,0,1 @ F,0,0,1,0,0,0,1 @ F,0,0,1,0,0,0,1 @ F,0,0,1,0,0,0,1 @ F,0,0,1,0,0,0,1 @ F,0,0,1,0,0,0,1"
       unit="px"
       method="auto"
       mode="F"
       radius="0"
       chamfer_steps="1"
       flexible="false"
       use_knot_distance="true"
       apply_no_radius="true"
       apply_with_radius="true"
       only_selected="false"
       hide_knots="false" /><inkscape:path-effect
       effect="fillet_chamfer"
       id="path-effect62464"
       is_visible="true"
       lpeversion="1"
       nodesatellites_param="F,0,0,1,0,0,0,1 @ F,0,0,1,0,0,0,1 @ F,0,0,1,0,0,0,1 @ F,0,0,1,0,1.3438894,0,1 @ F,0,0,1,0,0,0,1 @ F,0,0,1,0,0,0,1 @ F,0,0,1,0,2.6048833,0,1 @ F,0,0,1,0,0,0,1 @ F,0,0,1,0,0,0,1 @ F,0,0,1,0,0,0,1"
       unit="px"
       method="auto"
       mode="F"
       radius="0"
       chamfer_steps="1"
       flexible="false"
       use_knot_distance="true"
       apply_no_radius="true"
       apply_with_radius="true"
       only_selected="false"
       hide_knots="false" /><inkscape:path-effect
       effect="fillet_chamfer"
       id="path-effect8600"
       is_visible="true"
       lpeversion="1"
       nodesatellites_param="F,0,0,1,0,0,0,1 @ F,0,0,1,0,1.757042,0,1 @ F,0,0,1,0,0,0,1 @ F,0,0,1,0,0,0,1"
       unit="px"
       method="auto"
       mode="F"
       radius="0"
       chamfer_steps="1"
       flexible="false"
       use_knot_distance="true"
       apply_no_radius="true"
       apply_with_radius="true"
       only_selected="false"
       hide_knots="false" /><inkscape:path-effect
       effect="fillet_chamfer"
       id="path-effect7555"
       is_visible="true"
       lpeversion="1"
       nodesatellites_param="F,0,0,1,0,2.5322607,0,1 @ F,0,0,1,0,0,0,1 @ F,0,0,1,0,0,0,1"
       unit="px"
       method="auto"
       mode="F"
       radius="0"
       chamfer_steps="1"
       flexible="false"
       use_knot_distance="true"
       apply_no_radius="true"
       apply_with_radius="true"
       only_selected="false"
       hide_knots="false" /><inkscape:path-effect
       effect="fillet_chamfer"
       id="path-effect7284"
       is_visible="true"
       lpeversion="1"
       nodesatellites_param="F,0,0,1,0,0.73118878,0,1 @ F,0,0,1,0,0,0,1 @ F,0,0,1,0,0,0,1 @ F,0,0,1,0,0,0,1 @ F,0,0,1,0,0,0,1"
       unit="px"
       method="auto"
       mode="F"
       radius="0"
       chamfer_steps="1"
       flexible="false"
       use_knot_distance="true"
       apply_no_radius="true"
       apply_with_radius="true"
       only_selected="false"
       hide_knots="false" /><inkscape:path-effect
       effect="fillet_chamfer"
       id="path-effect7226"
       is_visible="true"
       lpeversion="1"
       nodesatellites_param="F,0,0,1,0,0,0,1 @ F,0,1,1,0,2.2535554,0,1 @ F,0,0,1,0,2.2535554,0,1 @ F,0,0,1,0,0,0,1"
       unit="px"
       method="auto"
       mode="F"
       radius="0"
       chamfer_steps="1"
       flexible="false"
       use_knot_distance="true"
       apply_no_radius="true"
       apply_with_radius="true"
       only_selected="false"
       hide_knots="false" /><inkscape:path-effect
       effect="fillet_chamfer"
       id="path-effect7224"
       is_visible="true"
       lpeversion="1"
       nodesatellites_param="F,0,1,1,0,2.0431149,0,1 @ F,0,0,1,0,4.109567,0,1 @ F,0,0,1,0,0,0,1 @ F,0,0,1,0,2.0431149,0,1"
       unit="px"
       method="auto"
       mode="F"
       radius="0"
       chamfer_steps="1"
       flexible="false"
       use_knot_distance="true"
       apply_no_radius="true"
       apply_with_radius="true"
       only_selected="false"
       hide_knots="false" /><inkscape:path-effect
       effect="fillet_chamfer"
       id="path-effect5709"
       is_visible="true"
       lpeversion="1"
       nodesatellites_param="F,0,0,1,0,0,0,1 @ F,0,0,1,0,0,0,1 @ F,0,0,1,0,0,0,1 @ F,0,0,1,0,0,0,1 @ F,0,0,1,0,0,0,1 @ F,0,0,1,0,0.4581543,0,1 @ F,0,0,1,0,0,0,1 @ F,0,0,1,0,0,0,1 @ F,0,0,1,0,0,0,1 @ F,0,0,1,0,0,0,1 @ F,0,0,1,0,0.53049445,0,1 @ F,0,0,1,0,0,0,1 @ F,0,0,1,0,0,0,1 @ F,0,0,1,0,0,0,1 @ F,0,0,1,0,0,0,1 | F,0,0,1,0,0,0,1 @ F,0,0,1,0,0,0,1 @ F,0,0,1,0,0,0,1 @ F,0,0,1,0,0,0,1 @ F,0,0,1,0,0,0,1 @ F,0,0,1,0,0,0,1 @ F,0,0,1,0,0,0,1 @ F,0,0,1,0,0,0,1"
       unit="px"
       method="auto"
       mode="F"
       radius="0"
       chamfer_steps="1"
       flexible="false"
       use_knot_distance="true"
       apply_no_radius="true"
       apply_with_radius="true"
       only_selected="false"
       hide_knots="false" /><inkscape:path-effect
       effect="fillet_chamfer"
       id="path-effect2137"
       is_visible="true"
       lpeversion="1"
       nodesatellites_param="F,0,0,1,0,8,0,1 @ F,0,0,1,0,0,0,1 @ F,0,0,1,0,0,0,1 @ F,0,0,1,0,0,0,1 @ F,0,0,1,0,8,0,1 @ F,0,0,1,0,0,0,1 @ F,0,0,1,0,0,0,1 @ F,0,0,1,0,0,0,1 @ F,0,0,1,0,0,0,1 @ F,0,0,1,0,0,0,1"
       unit="px"
       method="auto"
       mode="F"
       radius="0"
       chamfer_steps="1"
       flexible="false"
       use_knot_distance="true"
       apply_no_radius="true"
       apply_with_radius="true"
       only_selected="false"
       hide_knots="false" /><inkscape:path-effect
       effect="mirror_symmetry"
       start_point="4.5560511,145.07496"
       end_point="-20.970424,169.23206"
       center_point="-8.2071863,157.15351"
       id="path-effect2078"
       is_visible="true"
       lpeversion="1.2"
       lpesatellites=""
       mode="vertical"
       discard_orig_path="false"
       fuse_paths="true"
       oposite_fuse="false"
       split_items="false"
       split_open="false"
       link_styles="false" /><inkscape:path-effect
       effect="fillet_chamfer"
       id="path-effect1953"
       is_visible="true"
       lpeversion="1"
       nodesatellites_param="F,0,0,1,0,0,0,1 @ F,0,0,1,0,0,0,1 @ F,0,0,1,0,0.68058242,0,1"
       unit="px"
       method="auto"
       mode="F"
       radius="0"
       chamfer_steps="1"
       flexible="false"
       use_knot_distance="true"
       apply_no_radius="true"
       apply_with_radius="true"
       only_selected="false"
       hide_knots="false" /><inkscape:path-effect
       effect="fillet_chamfer"
       id="path-effect1885"
       is_visible="true"
       lpeversion="1"
       nodesatellites_param="F,0,0,1,0,0.025729922,0,1 @ F,0,0,1,0,0,0,1 @ F,0,0,1,0,0.84764408,0,1 @ F,0,0,1,0,0.9288475,0,1"
       unit="px"
       method="auto"
       mode="F"
       radius="0"
       chamfer_steps="1"
       flexible="false"
       use_knot_distance="true"
       apply_no_radius="true"
       apply_with_radius="true"
       only_selected="false"
       hide_knots="false" /><inkscape:path-effect
       effect="mirror_symmetry"
       start_point="173.94468,87.823316"
       end_point="173.94468,111.88232"
       center_point="173.94468,99.852816"
       id="path-effect1828"
       is_visible="true"
       lpeversion="1.2"
       lpesatellites=""
       mode="vertical"
       discard_orig_path="false"
       fuse_paths="true"
       oposite_fuse="false"
       split_items="false"
       split_open="false"
       link_styles="false" /><inkscape:path-effect
       effect="fillet_chamfer"
       id="path-effect1818"
       is_visible="true"
       lpeversion="1"
       nodesatellites_param="F,0,0,1,0,0,0,1 @ F,0,0,1,0,2.6241049,0,1 @ F,0,0,1,0,0,0,1 @ F,0,0,1,0,1.443101,0,1 @ F,0,0,1,0,0,0,1 @ F,0,0,1,0,0,0,1 @ F,0,0,1,0,0.7857946,0,1 @ F,0,0,1,0,0,0,1 @ F,0,0,1,0,0,0,1 @ F,0,0,1,0,0,0,1"
       unit="px"
       method="auto"
       mode="F"
       radius="0"
       chamfer_steps="1"
       flexible="false"
       use_knot_distance="true"
       apply_no_radius="true"
       apply_with_radius="true"
       only_selected="false"
       hide_knots="false" /><inkscape:path-effect
       effect="mirror_symmetry"
       start_point="109.86484,87.18808"
       end_point="109.86484,140.10475"
       center_point="109.86484,113.64641"
       id="path-effect1649"
       is_visible="true"
       lpeversion="1.2"
       lpesatellites=""
       mode="vertical"
       discard_orig_path="false"
       fuse_paths="false"
       oposite_fuse="false"
       split_items="false"
       split_open="false"
       link_styles="false" /></defs><g
     inkscape:label="Layer 1"
     inkscape:groupmode="layer"
     id="layer1"
     transform="translate(-93.332381,-96.695296)"><path
       id="path8439"
       style="display:none;fill:#ffffff;stroke-width:1.65671;stroke-linecap:round;paint-order:stroke fill markers;stop-color:#000000"
       d="m 111.34404,104.94605 c -0.0532,3.6e-4 -0.10639,0.002 -0.15968,0.005 -1.43115,0.18052 -2.72007,0.85646 -4.07004,1.3193 -2.40405,0.90795 -4.8079,1.81591 -7.211965,2.72386 -1.526883,0.50085 -1.848034,2.17817 -1.580266,3.55689 0.08499,1.10831 0.319566,2.42685 1.580786,2.78536 1.123675,0.21953 2.268105,0.008 3.402895,0 1.55749,-0.0698 3.11509,-0.13951 4.67258,-0.20929 -0.0584,1.55719 -0.88791,3.24538 -0.25321,4.66897 0.40954,0.91857 1.34451,1.89239 2.35024,1.89239 h 7.77886 c 0.96705,0 1.20911,-1.64708 1.2609,-2.61276 0.21629,-4.03335 -2.30963,-8.22074 -4.06952,-11.41378 -0.47978,-1.5833 -2.05329,-2.72678 -3.70158,-2.71559 z m -3.93826,3.85816 c 0.006,-1.6e-4 0.0128,0 0.0191,0 0.40472,0 0.73019,0.32598 0.73019,0.7307 v 1.31259 c 0,0.40472 -0.32547,0.7307 -0.73019,0.7307 -0.40473,0 -0.73071,-0.32598 -0.73071,-0.7307 v -1.31259 c 0,-0.3984 0.31567,-0.72074 0.71159,-0.7307 z m -6.64249,1.15238 c 0.0286,-6.8e-4 0.0573,5.5e-4 0.0863,0.004 0.36433,0.0451 0.79123,0.60345 0.73949,0.96686 -0.13189,0.92656 -2.386945,1.06041 -2.386945,1.06041 0,0 0.67456,-2.01019 1.561155,-2.03141 z" /><g
       id="g1663"
       transform="translate(0.05462689,-0.25118949)"><path
         id="rect374"
         style="fill:#ffffff;stroke:none;stroke-width:0.716322;stroke-linejoin:round;stop-color:#000000"
         d="m 95.027885,97.116976 c -0.20536,0.0023 -0.394992,0.126518 -0.496094,0.353983 l -0.40566,0.911573 c -0.29306,0.659383 -0.374073,1.840158 -0.205672,2.498558 0.143419,0.56068 0.929892,1.90972 1.543575,2.48202 v 4.49275 c 0,1.97157 1.586878,3.55947 3.558439,3.55947 1.360827,0 2.538227,-0.7569 3.137277,-1.87379 0.49602,0.26134 0.9655,0.58537 1.40611,1.02371 -0.0183,0.20812 -0.0276,0.4169 -0.0279,0.6258 0.005,2.76964 1.5831,5.30265 4.08502,6.55722 l -0.73019,-4.27932 c -0.0897,-0.26723 -0.1645,-0.54045 -0.2129,-0.81856 v -0.002 c -0.45526,-2.6674 1.07481,-5.21496 3.49436,-5.92884 v 0.7767 c -1.93222,0.68682 -3.14798,2.78487 -2.76624,5.02708 v 0.002 c 0.045,0.25809 0.10943,0.51064 0.19533,0.75757 0.007,0.0198 0.0124,0.0402 0.016,0.061 l 1.42731,8.36487 2.45928,-0.41962 2.26549,-5.43377 c 0.0282,-0.0686 0.0765,-0.12717 0.1385,-0.16795 0.63934,-0.41827 1.14489,-1.00199 1.48466,-1.68 h 0.81184 c -0.37409,0.89401 -0.98799,1.67393 -1.79731,2.23139 l -0.54209,1.75544 c 0.44806,1.42209 1.15904,2.82388 1.82832,4.00441 0.58629,1.0341 1.57699,1.93671 2.69802,2.33216 0.91118,0.32142 2.04911,0.36404 2.89647,-0.10025 0.89222,-0.48883 2.00031,-2.34663 1.73116,-2.51406 -0.26916,-0.16742 -2.03139,1.87728 -2.84686,1.55908 -0.68877,-0.26876 -1.80716,-1.1974 -1.96525,-1.87689 -0.6649,-2.85805 -0.0451,-6.67635 0.16226,-9.00927 0.0671,-0.39604 0.10135,-0.79684 0.10232,-1.19838 -1e-5,-4.07037 -3.34343,-7.37008 -7.46776,-7.37009 -0.96724,0.002 -1.9248,0.19016 -2.81947,0.55294 -1.81909,0.0106 -3.68492,-0.0545 -5.60482,-0.9741 v -0.0367 c 0.61368,-0.5723 1.39964,-1.92134 1.54306,-2.48202 0.1684,-0.6584 0.0874,-1.839175 -0.20568,-2.498558 l -0.40514,-0.911573 c -0.16189,-0.364247 -0.55076,-0.463993 -0.86765,-0.222208 l -0.79375,0.605647 c -0.57366,0.437691 -1.21135,1.433981 -1.37976,2.092379 -0.11064,0.432593 -0.11098,1.461083 0.0155,2.274283 h -2.931091 c 0.12655,-0.8132 0.12673,-1.84169 0.01602,-2.274283 -0.16842,-0.658398 -0.806618,-1.654688 -1.380277,-2.092379 l -0.79375,-0.605647 c -0.118673,-0.09054 -0.247342,-0.132932 -0.37052,-0.131775 z m 2.941422,10.488764 h 2.106333 a 0.49576895,0.49576895 0 0 1 0.38499,0.8077 l -0.78445,0.96894 a 0.84124878,0.84124878 0 0 1 -1.307414,0 l -0.784448,-0.96894 a 0.49576895,0.49576895 0 0 1 0.384989,-0.8077 z" /><path
         id="rect1236"
         style="fill:#ffffff;stroke-width:0.504698;stroke-linejoin:round;stop-color:#000000"
         d="m 102.23029,122.3197 c 0.93078,-0.53815 2.15841,0.0321 3.22338,-0.1155 1.76495,-0.24462 5.19271,-1.26871 5.19271,-1.26871 0.64889,-0.26233 1.26338,0.56347 1.26338,1.26338 v 1.35361 c 0,0.69991 -0.56347,1.26338 -1.26338,1.26338 h -8.41609 c -0.69991,0 -1.11885,-0.0471 -1.26337,-0.47292 -0.25555,-0.75291 0.57504,-1.62527 1.26337,-2.02324 z"
         sodipodi:nodetypes="aasssssaa" /><path
         style="fill:none;fill-opacity:1;stroke:#ffffff;stroke-width:2.07461;stroke-linecap:round;stroke-linejoin:round;stroke-dasharray:none;stroke-opacity:1;stop-color:#000000"
         d="m 104.82868,110.73627 -1.48563,3.73686 -3.21693,0.48161 v 2.55874"
         id="path1463"
         sodipodi:nodetypes="cccc" /></g></g></svg>
