<?xml version="1.0" encoding="UTF-8" standalone="no"?>
<!-- Created with Inkscape (http://www.inkscape.org/) -->

<svg
   width="34.444401mm"
   height="23.513884mm"
   viewBox="0 0 34.444401 23.513884"
   version="1.1"
   id="svg5"
   xml:space="preserve"
   inkscape:version="1.2 (dc2aedaf03, 2022-05-15)"
   sodipodi:docname="Nav Icon_Breakfast.svg"
   xmlns:inkscape="http://www.inkscape.org/namespaces/inkscape"
   xmlns:sodipodi="http://sodipodi.sourceforge.net/DTD/sodipodi-0.dtd"
   xmlns="http://www.w3.org/2000/svg"
   xmlns:svg="http://www.w3.org/2000/svg"><sodipodi:namedview
     id="namedview7"
     pagecolor="#505050"
     bordercolor="#ffffff"
     borderopacity="1"
     inkscape:showpageshadow="0"
     inkscape:pageopacity="0"
     inkscape:pagecheckerboard="1"
     inkscape:deskcolor="#505050"
     inkscape:document-units="mm"
     showgrid="false"
     showguides="false"
     inkscape:zoom="1.9396766"
     inkscape:cx="87.3857"
     inkscape:cy="27.324142"
     inkscape:window-width="1366"
     inkscape:window-height="705"
     inkscape:window-x="-8"
     inkscape:window-y="-8"
     inkscape:window-maximized="1"
     inkscape:current-layer="layer1" /><defs
     id="defs2"><inkscape:path-effect
       effect="fillet_chamfer"
       id="path-effect2137"
       is_visible="true"
       lpeversion="1"
       nodesatellites_param="F,0,0,1,0,8,0,1 @ F,0,0,1,0,0,0,1 @ F,0,0,1,0,0,0,1 @ F,0,0,1,0,0,0,1 @ F,0,0,1,0,8,0,1 @ F,0,0,1,0,0,0,1 @ F,0,0,1,0,0,0,1 @ F,0,0,1,0,0,0,1 @ F,0,0,1,0,0,0,1 @ F,0,0,1,0,0,0,1"
       unit="px"
       method="auto"
       mode="F"
       radius="0"
       chamfer_steps="1"
       flexible="false"
       use_knot_distance="true"
       apply_no_radius="true"
       apply_with_radius="true"
       only_selected="false"
       hide_knots="false" /><inkscape:path-effect
       effect="mirror_symmetry"
       start_point="4.5560511,145.07496"
       end_point="-20.970424,169.23206"
       center_point="-8.2071863,157.15351"
       id="path-effect2078"
       is_visible="true"
       lpeversion="1.2"
       lpesatellites=""
       mode="vertical"
       discard_orig_path="false"
       fuse_paths="true"
       oposite_fuse="false"
       split_items="false"
       split_open="false"
       link_styles="false" /><inkscape:path-effect
       effect="fillet_chamfer"
       id="path-effect1953"
       is_visible="true"
       lpeversion="1"
       nodesatellites_param="F,0,0,1,0,0,0,1 @ F,0,0,1,0,0,0,1 @ F,0,0,1,0,0.68058242,0,1"
       unit="px"
       method="auto"
       mode="F"
       radius="0"
       chamfer_steps="1"
       flexible="false"
       use_knot_distance="true"
       apply_no_radius="true"
       apply_with_radius="true"
       only_selected="false"
       hide_knots="false" /><inkscape:path-effect
       effect="fillet_chamfer"
       id="path-effect1885"
       is_visible="true"
       lpeversion="1"
       nodesatellites_param="F,0,0,1,0,0.025729922,0,1 @ F,0,0,1,0,0,0,1 @ F,0,0,1,0,0.84764408,0,1 @ F,0,0,1,0,0.9288475,0,1"
       unit="px"
       method="auto"
       mode="F"
       radius="0"
       chamfer_steps="1"
       flexible="false"
       use_knot_distance="true"
       apply_no_radius="true"
       apply_with_radius="true"
       only_selected="false"
       hide_knots="false" /><inkscape:path-effect
       effect="mirror_symmetry"
       start_point="173.94468,87.823316"
       end_point="173.94468,111.88232"
       center_point="173.94468,99.852816"
       id="path-effect1828"
       is_visible="true"
       lpeversion="1.2"
       lpesatellites=""
       mode="vertical"
       discard_orig_path="false"
       fuse_paths="true"
       oposite_fuse="false"
       split_items="false"
       split_open="false"
       link_styles="false" /><inkscape:path-effect
       effect="fillet_chamfer"
       id="path-effect1818"
       is_visible="true"
       lpeversion="1"
       nodesatellites_param="F,0,0,1,0,0,0,1 @ F,0,0,1,0,2.6241049,0,1 @ F,0,0,1,0,0,0,1 @ F,0,0,1,0,1.443101,0,1 @ F,0,0,1,0,0,0,1 @ F,0,0,1,0,0,0,1 @ F,0,0,1,0,0.7857946,0,1 @ F,0,0,1,0,0,0,1 @ F,0,0,1,0,0,0,1 @ F,0,0,1,0,0,0,1"
       unit="px"
       method="auto"
       mode="F"
       radius="0"
       chamfer_steps="1"
       flexible="false"
       use_knot_distance="true"
       apply_no_radius="true"
       apply_with_radius="true"
       only_selected="false"
       hide_knots="false" /><inkscape:path-effect
       effect="mirror_symmetry"
       start_point="109.86484,87.18808"
       end_point="109.86484,140.10475"
       center_point="109.86484,113.64641"
       id="path-effect1649"
       is_visible="true"
       lpeversion="1.2"
       lpesatellites=""
       mode="vertical"
       discard_orig_path="false"
       fuse_paths="false"
       oposite_fuse="false"
       split_items="false"
       split_open="false"
       link_styles="false" /></defs><g
     inkscape:label="Layer 1"
     inkscape:groupmode="layer"
     id="layer1"
     transform="translate(-91.280309,-102.21071)"><g
       id="g3026"><path
         id="path1995"
         style="opacity:1;fill:#ffffff;fill-opacity:1;fill-rule:evenodd;stroke-width:0.273039"
         d="m 105.73999,102.88205 a 12.692797,4.8024993 0 0 0 -9.930138,4.68447 12.692797,4.8024993 0 0 0 12.692768,4.80229 12.692797,4.8024993 0 0 0 12.69276,-4.80229 12.692797,4.8024993 0 0 0 -9.91515,-4.68343 l 1.25005,0.62373 c 0.19956,0.0581 0.35003,0.18626 0.45475,0.35347 0.1064,0.13727 0.16014,0.28668 0.15968,0.43873 0.0848,0.51208 -0.0971,1.12345 -0.51935,1.4025 l -2.42621,1.60352 c -0.72811,0.48116 -1.94291,0.55493 -2.72386,0.16537 l -2.99878,-1.49604 c -0.78096,-0.38959 -0.9043,-1.86783 -0.0951,-2.1947 z" /><path
         id="ellipse1997"
         style="opacity:1;fill:#ffffff;fill-opacity:1;fill-rule:evenodd;stroke-width:0.273039"
         d="m 96.793667,110.47695 a 12.692797,4.8024993 0 0 0 -0.983919,1.85208 12.692797,4.8024993 0 0 0 12.692772,4.80229 12.692797,4.8024993 0 0 0 12.69276,-4.80229 12.692797,4.8024993 0 0 0 -0.98237,-1.8526 12.692797,4.8024993 0 0 1 -0.32659,0.27233 12.692797,4.8024993 0 0 1 -0.39119,0.27751 12.692797,4.8024993 0 0 1 -0.43873,0.26665 12.692797,4.8024993 0 0 1 -0.4837,0.25528 12.692797,4.8024993 0 0 1 -0.52709,0.2434 12.692797,4.8024993 0 0 1 -0.56793,0.22892 12.692797,4.8024993 0 0 1 -0.60616,0.21498 12.692797,4.8024993 0 0 1 -0.64182,0.19947 12.692797,4.8024993 0 0 1 -0.67542,0.18293 12.692797,4.8024993 0 0 1 -0.70538,0.16588 12.692797,4.8024993 0 0 1 -0.73225,0.14831 12.692797,4.8024993 0 0 1 -0.75655,0.12971 12.692797,4.8024993 0 0 1 -0.77773,0.11059 12.692797,4.8024993 0 0 1 -0.79478,0.0915 12.692797,4.8024993 0 0 1 -0.80874,0.0713 12.692797,4.8024993 0 0 1 -0.81959,0.0512 12.692797,4.8024993 0 0 1 -0.8263,0.0305 12.692797,4.8024993 0 0 1 -0.83044,0.0103 12.692797,4.8024993 0 0 1 -0.82993,-0.0103 12.692797,4.8024993 0 0 1 -0.82682,-0.0305 12.692797,4.8024993 0 0 1 -0.81959,-0.0512 12.692797,4.8024993 0 0 1 -0.80873,-0.0713 12.692797,4.8024993 0 0 1 -0.79479,-0.0915 12.692797,4.8024993 0 0 1 -0.77721,-0.11059 12.692797,4.8024993 0 0 1 -0.75654,-0.12971 12.692797,4.8024993 0 0 1 -0.73277,-0.14831 12.692797,4.8024993 0 0 1 -0.70539,-0.16588 12.692797,4.8024993 0 0 1 -0.67489,-0.18293 12.692797,4.8024993 0 0 1 -0.64234,-0.19947 12.692797,4.8024993 0 0 1 -0.606169,-0.21498 12.692797,4.8024993 0 0 1 -0.567924,-0.22892 12.692797,4.8024993 0 0 1 -0.526583,-0.2434 12.692797,4.8024993 0 0 1 -0.483692,-0.25528 12.692797,4.8024993 0 0 1 -0.438733,-0.26665 12.692797,4.8024993 0 0 1 -0.391707,-0.27751 12.692797,4.8024993 0 0 1 -0.325045,-0.27181 z" /><path
         id="path2004"
         style="opacity:1;fill:#ffffff;fill-opacity:1;fill-rule:evenodd;stroke-width:0.273039"
         d="m 96.793667,115.23948 a 12.692797,4.8024993 0 0 0 -0.983919,1.85208 12.692797,4.8024993 0 0 0 12.692772,4.80229 12.692797,4.8024993 0 0 0 12.69276,-4.80229 12.692797,4.8024993 0 0 0 -0.98237,-1.8526 12.692797,4.8024993 0 0 1 -0.32659,0.27233 12.692797,4.8024993 0 0 1 -0.39119,0.27751 12.692797,4.8024993 0 0 1 -0.43873,0.26665 12.692797,4.8024993 0 0 1 -0.4837,0.25528 12.692797,4.8024993 0 0 1 -0.52709,0.2434 12.692797,4.8024993 0 0 1 -0.56793,0.22892 12.692797,4.8024993 0 0 1 -0.60616,0.21498 12.692797,4.8024993 0 0 1 -0.64182,0.19947 12.692797,4.8024993 0 0 1 -0.67542,0.18293 12.692797,4.8024993 0 0 1 -0.70538,0.16588 12.692797,4.8024993 0 0 1 -0.73225,0.14831 12.692797,4.8024993 0 0 1 -0.75655,0.12971 12.692797,4.8024993 0 0 1 -0.77773,0.11059 12.692797,4.8024993 0 0 1 -0.79478,0.0915 12.692797,4.8024993 0 0 1 -0.80874,0.0713 12.692797,4.8024993 0 0 1 -0.81959,0.0512 12.692797,4.8024993 0 0 1 -0.8263,0.0305 12.692797,4.8024993 0 0 1 -0.83044,0.0103 12.692797,4.8024993 0 0 1 -0.82993,-0.0103 12.692797,4.8024993 0 0 1 -0.82682,-0.0305 12.692797,4.8024993 0 0 1 -0.81959,-0.0512 12.692797,4.8024993 0 0 1 -0.80873,-0.0713 12.692797,4.8024993 0 0 1 -0.79479,-0.0915 12.692797,4.8024993 0 0 1 -0.77721,-0.11059 12.692797,4.8024993 0 0 1 -0.75654,-0.12971 12.692797,4.8024993 0 0 1 -0.73277,-0.14831 12.692797,4.8024993 0 0 1 -0.70539,-0.16588 12.692797,4.8024993 0 0 1 -0.67489,-0.18293 12.692797,4.8024993 0 0 1 -0.64234,-0.19947 12.692797,4.8024993 0 0 1 -0.606169,-0.21498 12.692797,4.8024993 0 0 1 -0.567924,-0.22892 12.692797,4.8024993 0 0 1 -0.526583,-0.2434 12.692797,4.8024993 0 0 1 -0.483692,-0.25528 12.692797,4.8024993 0 0 1 -0.438733,-0.26665 12.692797,4.8024993 0 0 1 -0.391707,-0.27751 12.692797,4.8024993 0 0 1 -0.325045,-0.27181 z" /><path
         id="ellipse2019"
         style="opacity:1;fill:#ffffff;fill-opacity:1;fill-rule:evenodd;stroke-width:0.370471"
         d="m 91.280309,119.20819 c -2.58e-4,3.5989 7.710477,6.51642 17.222201,6.5164 9.51172,2e-5 17.22246,-2.9175 17.2222,-6.5164 -3.9e-4,-2.37314 -3.05331,-2.98912 -3.63182,-2.44171 0.44898,0.47506 0.6789,0.9708 0.68162,1.46968 3.9e-4,2.67445 -6.38952,4.84259 -14.272,4.84259 -7.88248,0 -14.272383,-2.16814 -14.271994,-4.84259 0.0017,-0.53334 0.263093,-1.06292 0.773596,-1.56735 -0.563386,-0.53314 -3.723416,0.0947 -3.723803,2.53938 z"
         inkscape:path-effect="#path-effect2137"
         inkscape:original-d="m 93.98402,115.70349 a 17.222094,6.516223 0 0 0 -2.703711,3.5047 17.222094,6.516223 0 0 0 17.222201,6.5164 17.222094,6.516223 0 0 0 17.2222,-6.5164 17.222094,6.516223 0 0 0 -2.58434,-3.43287 l -1.04748,0.99116 a 14.272,4.842351 0 0 1 0.68162,1.46968 14.272,4.842351 0 0 1 -14.272,4.84259 14.272,4.842351 0 0 1 -14.271994,-4.84259 14.272,4.842351 0 0 1 0.773596,-1.56735 z" /><path
         id="rect2213"
         style="opacity:1;fill:#ffffff;stroke-width:0.409175;stroke-linecap:round;paint-order:stroke fill markers"
         d="m 109.37543,102.42297 2.54589,1.27005 c 0.66305,0.33076 0.69916,0.92592 0.081,1.33443 l -2.06004,1.36132 c -0.61818,0.40851 -1.64963,0.4711 -2.31267,0.14033 l -2.5459,-1.27004 c -0.66303,-0.33077 -0.69915,-0.92592 -0.081,-1.33443 l 2.06003,-1.36132 c 0.61819,-0.40851 1.64964,-0.4711 2.31268,-0.14034 z" /><path
         id="rect2215"
         style="opacity:1;fill:#ffffff;stroke-width:0.409175;stroke-linecap:round;paint-order:stroke fill markers"
         d="m 109.37544,102.95214 2.54588,0.74088 c 0.71145,0.20704 0.69917,1.45509 0.081,1.8636 l -2.06004,1.36132 c -0.61818,0.40851 -1.64963,0.47109 -2.31267,0.14033 l -2.5459,-1.27004 c -0.66304,-0.33077 -0.76802,-1.58607 -0.081,-1.8636 l 2.06005,-0.83215 c 0.68704,-0.27752 1.60122,-0.34738 2.31268,-0.14034 z"
         sodipodi:nodetypes="sssssssss" /></g></g></svg>
