<?xml version="1.0" encoding="UTF-8" standalone="no"?>
<!-- Created with Inkscape (http://www.inkscape.org/) -->

<svg
   width="30.340267mm"
   height="28.039623mm"
   viewBox="0 0 30.340267 28.039624"
   version="1.1"
   id="svg5"
   xml:space="preserve"
   inkscape:version="1.2 (dc2aedaf03, 2022-05-15)"
   sodipodi:docname="Nav Icon_Ice Monster.svg"
   xmlns:inkscape="http://www.inkscape.org/namespaces/inkscape"
   xmlns:sodipodi="http://sodipodi.sourceforge.net/DTD/sodipodi-0.dtd"
   xmlns="http://www.w3.org/2000/svg"
   xmlns:svg="http://www.w3.org/2000/svg"><sodipodi:namedview
     id="namedview7"
     pagecolor="#505050"
     bordercolor="#ffffff"
     borderopacity="1"
     inkscape:showpageshadow="0"
     inkscape:pageopacity="0"
     inkscape:pagecheckerboard="1"
     inkscape:deskcolor="#505050"
     inkscape:document-units="mm"
     showgrid="false"
     showguides="false"
     inkscape:zoom="2.3896613"
     inkscape:cx="-11.298672"
     inkscape:cy="41.846935"
     inkscape:window-width="1366"
     inkscape:window-height="705"
     inkscape:window-x="-8"
     inkscape:window-y="-8"
     inkscape:window-maximized="1"
     inkscape:current-layer="layer1" /><defs
     id="defs2"><inkscape:path-effect
       effect="fillet_chamfer"
       id="path-effect5709"
       is_visible="true"
       lpeversion="1"
       nodesatellites_param="F,0,0,1,0,0,0,1 @ F,0,0,1,0,0,0,1 @ F,0,0,1,0,0,0,1 @ F,0,0,1,0,0,0,1 @ F,0,0,1,0,0,0,1 @ F,0,0,1,0,0.4581543,0,1 @ F,0,0,1,0,0,0,1 @ F,0,0,1,0,0,0,1 @ F,0,0,1,0,0,0,1 @ F,0,0,1,0,0,0,1 @ F,0,0,1,0,0.53049445,0,1 @ F,0,0,1,0,0,0,1 @ F,0,0,1,0,0,0,1 @ F,0,0,1,0,0,0,1 @ F,0,0,1,0,0,0,1 | F,0,0,1,0,0,0,1 @ F,0,0,1,0,0,0,1 @ F,0,0,1,0,0,0,1 @ F,0,0,1,0,0,0,1 @ F,0,0,1,0,0,0,1 @ F,0,0,1,0,0,0,1 @ F,0,0,1,0,0,0,1 @ F,0,0,1,0,0,0,1"
       unit="px"
       method="auto"
       mode="F"
       radius="0"
       chamfer_steps="1"
       flexible="false"
       use_knot_distance="true"
       apply_no_radius="true"
       apply_with_radius="true"
       only_selected="false"
       hide_knots="false" /><inkscape:path-effect
       effect="fillet_chamfer"
       id="path-effect2137"
       is_visible="true"
       lpeversion="1"
       nodesatellites_param="F,0,0,1,0,8,0,1 @ F,0,0,1,0,0,0,1 @ F,0,0,1,0,0,0,1 @ F,0,0,1,0,0,0,1 @ F,0,0,1,0,8,0,1 @ F,0,0,1,0,0,0,1 @ F,0,0,1,0,0,0,1 @ F,0,0,1,0,0,0,1 @ F,0,0,1,0,0,0,1 @ F,0,0,1,0,0,0,1"
       unit="px"
       method="auto"
       mode="F"
       radius="0"
       chamfer_steps="1"
       flexible="false"
       use_knot_distance="true"
       apply_no_radius="true"
       apply_with_radius="true"
       only_selected="false"
       hide_knots="false" /><inkscape:path-effect
       effect="mirror_symmetry"
       start_point="4.5560511,145.07496"
       end_point="-20.970424,169.23206"
       center_point="-8.2071863,157.15351"
       id="path-effect2078"
       is_visible="true"
       lpeversion="1.2"
       lpesatellites=""
       mode="vertical"
       discard_orig_path="false"
       fuse_paths="true"
       oposite_fuse="false"
       split_items="false"
       split_open="false"
       link_styles="false" /><inkscape:path-effect
       effect="fillet_chamfer"
       id="path-effect1953"
       is_visible="true"
       lpeversion="1"
       nodesatellites_param="F,0,0,1,0,0,0,1 @ F,0,0,1,0,0,0,1 @ F,0,0,1,0,0.68058242,0,1"
       unit="px"
       method="auto"
       mode="F"
       radius="0"
       chamfer_steps="1"
       flexible="false"
       use_knot_distance="true"
       apply_no_radius="true"
       apply_with_radius="true"
       only_selected="false"
       hide_knots="false" /><inkscape:path-effect
       effect="fillet_chamfer"
       id="path-effect1885"
       is_visible="true"
       lpeversion="1"
       nodesatellites_param="F,0,0,1,0,0.025729922,0,1 @ F,0,0,1,0,0,0,1 @ F,0,0,1,0,0.84764408,0,1 @ F,0,0,1,0,0.9288475,0,1"
       unit="px"
       method="auto"
       mode="F"
       radius="0"
       chamfer_steps="1"
       flexible="false"
       use_knot_distance="true"
       apply_no_radius="true"
       apply_with_radius="true"
       only_selected="false"
       hide_knots="false" /><inkscape:path-effect
       effect="mirror_symmetry"
       start_point="173.94468,87.823316"
       end_point="173.94468,111.88232"
       center_point="173.94468,99.852816"
       id="path-effect1828"
       is_visible="true"
       lpeversion="1.2"
       lpesatellites=""
       mode="vertical"
       discard_orig_path="false"
       fuse_paths="true"
       oposite_fuse="false"
       split_items="false"
       split_open="false"
       link_styles="false" /><inkscape:path-effect
       effect="fillet_chamfer"
       id="path-effect1818"
       is_visible="true"
       lpeversion="1"
       nodesatellites_param="F,0,0,1,0,0,0,1 @ F,0,0,1,0,2.6241049,0,1 @ F,0,0,1,0,0,0,1 @ F,0,0,1,0,1.443101,0,1 @ F,0,0,1,0,0,0,1 @ F,0,0,1,0,0,0,1 @ F,0,0,1,0,0.7857946,0,1 @ F,0,0,1,0,0,0,1 @ F,0,0,1,0,0,0,1 @ F,0,0,1,0,0,0,1"
       unit="px"
       method="auto"
       mode="F"
       radius="0"
       chamfer_steps="1"
       flexible="false"
       use_knot_distance="true"
       apply_no_radius="true"
       apply_with_radius="true"
       only_selected="false"
       hide_knots="false" /><inkscape:path-effect
       effect="mirror_symmetry"
       start_point="109.86484,87.18808"
       end_point="109.86484,140.10475"
       center_point="109.86484,113.64641"
       id="path-effect1649"
       is_visible="true"
       lpeversion="1.2"
       lpesatellites=""
       mode="vertical"
       discard_orig_path="false"
       fuse_paths="false"
       oposite_fuse="false"
       split_items="false"
       split_open="false"
       link_styles="false" /></defs><g
     inkscape:label="Layer 1"
     inkscape:groupmode="layer"
     id="layer1"
     transform="translate(-93.332381,-96.695296)"><g
       id="g5004"
       transform="translate(-0.31082141,0.02513294)"><path
         id="path530"
         style="fill:#ffffff;fill-opacity:1;stroke-width:0.0744545"
         class="cls-1"
         d="m 109.9725,97.748599 -0.0697,0.22322 c -1.56689,0.61085 -3.51033,3.064961 -4.88491,5.045891 h -0.1367 c -0.12582,0.18465 -0.24715,0.36401 -0.36181,0.53673 -0.13649,-0.18215 -0.27698,-0.36102 -0.42142,-0.53673 -0.67158,-0.82197 -1.41458,-1.56801 -2.21793,-2.13461 a 7.877302,7.877302 0 0 0 -2.2575,2.23364 c -1.81071,2.6595 -1.977552,5.88193 -1.977552,5.88193 v 8.23931 0.0178 3.73916 a 2.7108939,2.7108939 0 0 0 2.709462,2.63645 h 16.91909 a 2.7071711,2.7071711 0 0 0 2.70785,-2.64314 v -3.6647 a 1.8300953,1.8300953 0 0 0 0,-0.0678 v -0.0178 -6.64668 l -9.7e-4,-1.3559 c 0,0 -0.008,-3.81057 -2.01769,-5.52303 -0.84355,0.70285 -1.37218,1.74962 -1.69456,2.65945 -0.11692,-0.32537 -0.25914,-0.66329 -0.41475,-1.0095 -0.0313,-0.0693 -0.0633,-0.13855 -0.0954,-0.20854 l -0.099,-0.20999 c -0.067,-0.14072 -0.13464,-0.28213 -0.20909,-0.42434 l -0.22338,-0.42738 c -0.11363,-0.21492 -0.2324,-0.42987 -0.35598,-0.64479 -0.0327,-0.0625 -0.0707,-0.12438 -0.10723,-0.18615 -0.0457,-0.0809 -0.0934,-0.16201 -0.14293,-0.24342 -1.40792,-2.36019 -3.24548,-4.591581 -4.64818,-5.269121 z m 0.79415,1.89931 c 0.12293,9.8e-4 0.23746,0.0882 0.25869,0.25769 l 0.63505,5.054771 c 0.0655,0.5197 -0.28149,1.03637 -0.74833,1.11232 l -1.40867,0.23223 c -0.57033,0.0946 -0.97828,-0.5077 -0.77205,-1.13833 l 1.72585,-5.269851 c 0.0551,-0.16827 0.18652,-0.25078 0.30946,-0.24883 z m -8.56565,2.854441 c 0.088,1.7e-4 0.17785,0.0487 0.20912,0.14468 l 0.93359,2.86798 c 0.0961,0.29482 -0.10198,0.59048 -0.42811,0.63736 l -0.98202,0.14077 c -0.39758,0.0574 -0.74672,-0.28299 -0.65961,-0.64261 l 0.72956,-3.0035 c 0.0234,-0.0967 0.10958,-0.14487 0.19747,-0.14468 z m 16.23563,2.97602 a 0.14890931,0.14890931 0 0 1 0.13902,0.11258 l 0.60015,2.48318 c 0.0745,0.29783 -0.1638,0.565 -0.44672,0.50694 l -0.69613,-0.1444 a 0.43779335,0.43779335 0 0 1 -0.32021,-0.53005 v -0.004 h 9.7e-4 l 0.57542,-2.32147 a 0.14890931,0.14890931 0 0 1 0.14687,-0.10225 z m -3.26102,4.07129 a 0.13327383,0.13327383 0 0 1 0.0645,0.021 l 0.0118,0.0104 0.009,0.0118 0.007,0.0134 a 0.01489093,0.01489093 0 0 0 0.005,0.0143 0.14890931,0.14890931 0 0 1 -0.038,0.13321 l -0.0327,0.0387 -0.77434,0.91293 -1.84276,2.1733 a 0.27920494,0.27920494 0 0 1 -0.20693,0.10119 c 0,0 -1.17129,0.15708 -1.62695,0.0446 a 0.27175948,0.27175948 0 0 1 -0.16374,-0.0864 c -0.1705,-0.25835 0.60611,-1.75563 0.60611,-1.75563 a 0.29335132,0.29335132 0 0 1 0.16445,-0.16448 l 3.70485,-1.43703 0.0463,-0.017 a 0.13327383,0.13327383 0 0 1 0.0666,-0.0135 z m -12.71924,0.003 a 0.13401837,0.13401837 0 0 1 0.0669,0.0136 l 0.0463,0.0172 3.70485,1.43688 a 0.29335132,0.29335132 0 0 1 0.16447,0.16462 c 0,0 0.77807,1.49422 0.60756,1.75258 a 0.27622676,0.27622676 0 0 1 -0.16375,0.0864 c -0.45566,0.11245 -1.62752,-0.0446 -1.62752,-0.0446 a 0.2784604,0.2784604 0 0 1 -0.20709,-0.10121 l -1.84346,-2.17328 -0.77365,-0.91295 -0.0319,-0.0387 a 0.14890931,0.14890931 0 0 1 -0.0402,-0.13026 0.04616188,0.04616188 0 0 1 0.005,-0.0142 0.04541734,0.04541734 0 0 1 0.007,-0.0134 l 0.009,-0.0118 0.0118,-0.0104 a 0.13401837,0.13401837 0 0 1 0.0648,-0.0211 z m 14.03179,2.0065 c 0.4263,0.009 0.75792,0.14646 0.92312,0.4508 0.86591,1.65066 0.29327,3.71382 -1.29336,4.65268 a 3.2975965,3.2975965 0 0 1 -1.8948,0.45865 3.3504593,3.3504593 0 0 1 -2.71688,-1.72671 c -0.64179,-1.18307 2.1316,-3.22533 4.12774,-3.72417 0.30851,-0.0771 0.5984,-0.11704 0.85418,-0.11129 z m -15.31352,0.003 c 0.24629,-9.8e-4 0.52318,0.0379 0.81696,0.11075 0.003,-2.8e-4 0.005,-9.7e-4 0.008,-9.7e-4 0.048,0.0118 0.0983,0.029 0.14716,0.0426 0.0199,0.005 0.0399,0.0118 0.0599,0.0174 0.0967,0.0284 0.19392,0.059 0.29301,0.0938 0.0544,0.019 0.10893,0.0389 0.16375,0.0595 0.009,0.004 0.0176,0.007 0.0263,0.009 0.058,0.0222 0.11586,0.0453 0.17422,0.0694 0.0725,0.0299 0.14523,0.0616 0.21798,0.0942 0.0607,0.0272 0.12124,0.0549 0.18191,0.084 0.0763,0.0364 0.15248,0.0743 0.22847,0.11324 0.0529,0.0271 0.10525,0.0548 0.15777,0.083 0.0944,0.0507 0.18825,0.1029 0.28095,0.15721 9.7e-4,9.6e-4 0.003,9.7e-4 0.004,0.003 0.0311,0.0182 0.0616,0.0371 0.0925,0.0557 0.0971,0.0585 0.19306,0.11849 0.28721,0.18018 0.0242,0.0158 0.048,0.0317 0.072,0.0476 0.0995,0.0666 0.19663,0.13473 0.29141,0.20418 0.0195,0.0143 0.0389,0.0283 0.0582,0.0426 0.10225,0.0763 0.20113,0.1541 0.29621,0.23295 0.009,0.008 0.0183,0.0148 0.0272,0.0222 0.10093,0.0846 0.197,0.17026 0.28793,0.25667 0.0104,0.009 0.0191,0.0186 0.0289,0.028 0.0838,0.0808 0.16291,0.16219 0.23647,0.24373 0.0104,0.0118 0.0208,0.0236 0.0313,0.0353 0.0703,0.0797 0.13511,0.15953 0.19414,0.23907 0.009,0.0131 0.0185,0.0249 0.0276,0.0375 0.0587,0.0818 0.11102,0.16317 0.15633,0.24387 0.005,0.008 0.0104,0.0165 0.0144,0.0248 0.0466,0.0858 0.0852,0.17063 0.11455,0.25405 0.003,0.008 0.005,0.0164 0.008,0.0246 0.026,0.0778 0.0437,0.15426 0.0529,0.22918 0.003,0.0208 0.004,0.0415 0.005,0.0621 4.8e-4,0.009 0.003,0.0183 0.003,0.0272 a 0.79294206,0.79294206 0 0 1 4.9e-4,0.0461 c -8e-5,0.004 -4e-5,0.007 -1.6e-4,0.0104 a 0.79294206,0.79294206 0 0 1 -0.0748,0.31587 c -0.005,0.0104 -0.0104,0.0216 -0.0164,0.0319 a 3.3504593,3.3504593 0 0 1 -0.4569,0.62634 3.3504593,3.3504593 0 0 1 -0.0659,0.0752 3.3504593,3.3504593 0 0 1 -0.56146,0.46477 3.3504593,3.3504593 0 0 1 -0.12176,0.0774 3.3504593,3.3504593 0 0 1 -0.64683,0.30509 3.3504593,3.3504593 0 0 1 -0.13189,0.0379 3.3504593,3.3504593 0 0 1 -0.70063,0.13481 3.3504593,3.3504593 0 0 1 -0.0347,0.007 3.2983412,3.2983412 0 0 1 -0.005,-0.003 3.2856837,3.2856837 0 0 1 -1.88785,-0.45632 c -1.51068,-0.89345 -2.10259,-2.80545 -1.40867,-4.41143 0.0344,-0.0812 0.0744,-0.16161 0.11455,-0.24052 a 0.7140201,0.7140201 0 0 1 0.17727,-0.21741 c 0.18805,-0.15789 0.4559,-0.22953 0.77479,-0.23194 z m 7.65501,4.48316 c 1.46005,0 2.63719,0.98805 2.63719,2.20687 v 0.009 c 0,0.43929 -0.32395,0.68873 -0.55552,0.44005 -0.4832,-0.52118 -1.23892,-0.8539 -2.08472,-0.8539 -0.84581,0 -1.60449,0.33421 -2.08472,0.8539 -0.23157,0.24868 -0.55313,-1e-5 -0.55537,-0.44005 v -0.009 c 0,-1.21882 1.1831,-2.20687 2.64314,-2.20687 z" /><path
         id="path540"
         class="cls-2"
         d="m 116.06209,98.420289 a 0.48767797,0.48767797 0 0 0 -0.44223,0.28212 h 9.7e-4 l -1.01996,2.046041 a 0.56287717,0.56287717 0 0 0 -0.0566,0.23266 l -0.007,0.009 c 0,0 -0.007,0.97679 0.14891,1.14357 l 1.02068,1.09748 a 0.4787434,0.4787434 0 0 0 0.67679,0.0357 l 0.035,-0.0351 1.01998,-1.09515 c 0.15563,-0.16679 0.14892,-1.18313 0.14892,-1.18313 l -0.007,-0.009 a 0.56511081,0.56511081 0 0 0 -0.0571,-0.1953 l -1.01997,-2.046051 a 0.48767797,0.48767797 0 0 0 -0.44236,-0.28213 z m -0.83529,5.867661 0.22335,0.42739 c -0.0705,-0.14196 -0.14494,-0.28444 -0.22335,-0.42739 z"
         style="fill:#ffffff;fill-opacity:1;stroke-width:0.0744545" /><path
         id="path552"
         class="cls-8"
         d="m 104.54691,97.973269 a 0.36557236,0.36557236 0 0 0 -0.18614,0.0323 0.36036051,0.36036051 0 0 0 -0.17712,0.17712 l -0.76024,1.52559 a 0.41917967,0.41917967 0 0 0 -0.0422,0.17494 l -0.004,0.004 c 0,0 0,0.728251 0.11167,0.852591 l 0.76025,0.819 a 0.35812687,0.35812687 0 0 0 0.50622,0.0245 c 0.008,-0.008 0.0161,-0.0156 0.0245,-0.0245 l 0.76025,-0.819 c 0.11612,-0.12437 0.11167,-0.882411 0.11167,-0.882411 l -0.009,-0.0131 a 0.42141331,0.42141331 0 0 0 -0.0404,-0.13656 l -0.75718,-1.52559 a 0.36557236,0.36557236 0 0 0 -0.29871,-0.20941 z"
         style="fill:#ffffff;fill-opacity:1;stroke-width:0.0744545" /></g></g></svg>
