<?xml version="1.0" encoding="UTF-8" standalone="no"?>
<!DOCTYPE svg PUBLIC "-//W3C//DTD SVG 1.1//EN" "http://www.w3.org/Graphics/SVG/1.1/DTD/svg11.dtd">
<svg width="100%" height="100%" viewBox="0 0 2000 2000" version="1.1" xmlns="http://www.w3.org/2000/svg" xmlns:xlink="http://www.w3.org/1999/xlink" xml:space="preserve" xmlns:serif="http://www.serif.com/" style="fill-rule:evenodd;clip-rule:evenodd;stroke-linejoin:round;stroke-miterlimit:2;">
    <g id="_2" serif:id="2">
        <g transform="matrix(1.36266,0,0,1.1535,-248.582,-99.3067)">
            <path d="M916.284,86.092L1650.14,953.021L916.284,1819.95L182.424,953.021L916.284,86.092Z" style="fill:rgb(200,8,0);"/>
        </g>
        <g transform="matrix(1.36266,0,0,1.1535,-248.582,-99.3067)">
            <path d="M916.284,86.092L1650.14,953.021L916.284,1819.95L182.424,953.021L916.284,86.092ZM916.284,198.477L1555.01,953.021C1555.01,953.021 1071.76,1523.89 916.284,1707.57C916.284,1707.57 277.559,953.021 277.559,953.021L916.284,198.477Z" style="fill:rgb(147,0,14);"/>
        </g>
        <g transform="matrix(0.646508,-0.646508,0.707107,0.707107,-178.93,602.092)">
            <rect x="-169.354" y="659.214" width="1546.77" height="450.593" style="fill:rgb(255,46,37);fill-opacity:0.5;"/>
        </g>
        <g transform="matrix(0.646507,-0.646507,0.282313,0.282313,479.969,1260.99)">
            <rect x="-169.354" y="659.214" width="1546.77" height="450.593" style="fill:rgb(255,46,37);fill-opacity:0.5;"/>
        </g>
    </g>
</svg>
