<?xml version="1.0" encoding="UTF-8" standalone="no"?>
<!-- Created with Inkscape (http://www.inkscape.org/) -->

<svg
   width="115.07825mm"
   height="54.520424mm"
   viewBox="0 0 115.07825 54.520424"
   version="1.1"
   id="svg5"
   xml:space="preserve"
   inkscape:version="1.2 (dc2aedaf03, 2022-05-15)"
   sodipodi:docname="Arch 4 V2.svg"
   xmlns:inkscape="http://www.inkscape.org/namespaces/inkscape"
   xmlns:sodipodi="http://sodipodi.sourceforge.net/DTD/sodipodi-0.dtd"
   xmlns="http://www.w3.org/2000/svg"
   xmlns:svg="http://www.w3.org/2000/svg"><sodipodi:namedview
     id="namedview7"
     pagecolor="#505050"
     bordercolor="#ffffff"
     borderopacity="1"
     inkscape:showpageshadow="0"
     inkscape:pageopacity="0"
     inkscape:pagecheckerboard="1"
     inkscape:deskcolor="#505050"
     inkscape:document-units="mm"
     showgrid="false"
     inkscape:zoom="0.99702056"
     inkscape:cx="297.38604"
     inkscape:cy="120.3586"
     inkscape:window-width="1366"
     inkscape:window-height="705"
     inkscape:window-x="-8"
     inkscape:window-y="-8"
     inkscape:window-maximized="1"
     inkscape:current-layer="layer1" /><defs
     id="defs2"><inkscape:path-effect
       effect="fillet_chamfer"
       id="path-effect1408"
       is_visible="false"
       lpeversion="1"
       nodesatellites_param="F,0,0,1,0,0,0,1 @ F,0,0,1,0,0,0,1 @ F,0,0,1,0,0,0,1 @ F,0,0,1,0,2.1268005,0,1"
       unit="px"
       method="auto"
       mode="F"
       radius="0"
       chamfer_steps="1"
       flexible="false"
       use_knot_distance="true"
       apply_no_radius="true"
       apply_with_radius="true"
       only_selected="false"
       hide_knots="false" /><inkscape:path-effect
       effect="fillet_chamfer"
       id="path-effect1352"
       is_visible="false"
       lpeversion="1"
       nodesatellites_param="F,0,0,1,0,0,0,1 @ F,0,0,1,0,0,0,1 @ F,0,0,1,0,0,0,1 @ F,0,0,1,0,2.1268005,0,1"
       unit="px"
       method="auto"
       mode="F"
       radius="0"
       chamfer_steps="1"
       flexible="false"
       use_knot_distance="true"
       apply_no_radius="true"
       apply_with_radius="true"
       only_selected="false"
       hide_knots="false" /></defs><g
     inkscape:label="Layer 1"
     inkscape:groupmode="layer"
     id="layer1"
     transform="translate(-44.90992,-70.222587)"><path
       id="rect310"
       style="fill:#625569;fill-opacity:1;stroke-width:0.589116;stroke-linecap:square;stroke-linejoin:round;stop-color:#000000"
       d="M 54.440604 103.95541 L 54.440604 106.86686 L 59.658374 106.86686 L 59.658374 124.74277 L 145.24023 124.74277 L 145.24023 106.86686 L 150.458 106.86686 L 150.458 103.95541 L 54.440604 103.95541 z " /><path
       id="path911"
       style="opacity:1;fill:#625569;fill-opacity:1;fill-rule:evenodd;stroke-width:0.295393"
       d="M 102.44904,74.807837 A 54.002083,43.265644 0 0 0 49.661051,108.96544 H 155.23704 a 54.002083,43.265644 0 0 0 -52.788,-34.157603 z" /><path
       id="ellipse2382"
       style="color:#000000;fill:#504a56;fill-rule:evenodd"
       d="m 102.44904,72.51547 c -29.077941,0 -51.847042,16.617033 -53.44583,36.44997 h 10.655164 c 5.177519,-13.641263 21.641464,-24.656891 42.790666,-24.656891 21.14924,0 37.6137,11.0156 42.79119,24.656891 h 10.65465 C 154.29608,89.132509 131.52695,72.51547 102.44904,72.51547 Z" /><path
       id="ellipse963"
       style="color:#000000;fill:#8d7995;fill-rule:evenodd;stroke-linecap:round;stroke-linejoin:round;paint-order:fill markers stroke"
       d="m 102.44904,70.222587 c -28.124981,0 -52.311578,16.310728 -57.53912,38.742853 h 9.530685 c 5.207929,-16.65121 24.34408,-29.570803 48.008435,-29.570803 23.66438,0 42.80106,12.919565 48.00896,29.570803 h 9.53017 C 154.7606,86.53334 130.57401,70.222587 102.44904,70.222587 Z" /><g
       id="g9022"
       style="display:inline;opacity:1"><path
         id="path5537"
         style="display:inline;opacity:1;fill:#504a56;fill-opacity:1;stroke-width:0.858285;stroke-linecap:round;stroke-linejoin:round;paint-order:fill markers stroke;stop-color:#000000"
         d="m 101.09089,89.401439 c -0.63919,2.17079 -1.926125,4.26253 -1.106765,6.45612 -0.21587,0.09661 -0.429483,0.201116 -0.64044,0.31333 -1.677905,-1.526986 -3.738917,-2.275541 -5.79478,-2.10465 -4.652277,0.389507 -8.04004,5.288201 -7.56683,10.941611 0.473181,5.65352 4.628293,9.92095 9.28067,9.53153 0.475696,-0.04 0.946426,-0.1289 1.40714,-0.26574 2.990946,2.16402 7.115385,1.99573 10.480705,-0.42763 0.40571,0.16617 0.82398,0.29346 1.25104,0.38073 4.57681,0.92096 9.19433,-2.84102 10.31361,-8.40268 1.11937,-5.5618 -1.68356,-10.817275 -6.26047,-11.738351 -1.99746,-0.401698 -4.10407,0.0868 -5.93211,1.37558 -0.86389,-0.300882 -1.78074,-0.453271 -2.72043,-0.45216 -0.43361,-1.62838 -1.80782,-4.070315 -1.29552,-5.868775 z m -4.834005,8.77198 c 0.323071,-0.0029 0.616791,0.187001 0.74683,0.48276 l 1.99202,4.532371 c 0.286125,0.65088 -0.219235,1.3735 -0.92878,1.32806 l -4.29728,-0.27537 c -0.709396,-0.0455 -1.118449,-0.82637 -0.7519,-1.43543 l 2.55408,-4.241251 c 0.144864,-0.240557 0.404233,-0.388652 0.68503,-0.39114 z m 10.309665,-0.10507 c 0.28025,-0.01763 0.54956,0.111503 0.71128,0.34106 l 2.8513,4.047441 c 0.40922,0.58124 0.0571,1.38944 -0.64717,1.48559 l -4.26653,0.58245 c -0.70447,0.0961 -1.26028,-0.58842 -1.02151,-1.25813 l 1.66229,-4.663401 c 0.10852,-0.304314 0.38789,-0.514728 0.71034,-0.53501 z m -17.564805,5.490471 6.04097,5.26164 c 2.40532,-0.99808 1.70848,-2.2489 3.78806,-2.48982 0.69165,0.10547 1.209305,2.55655 2.967755,3.04527 0.70207,-0.97067 2.55006,-2.62936 3.16839,-3.2894 1.61619,0.62545 1.71814,1.11063 3.53056,2.25151 l 5.6692,-5.10661 0.48833,0.15066 c -1.36016,2.13414 -4.31249,7.2548 -6.85703,7.33891 l -2.67509,-3.19015 c -0.66407,0.91815 -1.9125,3.14933 -2.44,3.37356 l -0.0161,5.4e-4 -1.6246,0.0583 c -0.43796,0.0172 -1.933365,-2.55466 -2.691425,-3.18957 l -2.43973,3.37356 c -2.03646,-0.18042 -5.67143,-5.46823 -7.38592,-7.40293 z"
         sodipodi:nodetypes="cccccccccccccccscccscsssccscccsccccccccccccccccc" /><path
         id="rect7163"
         style="fill:#524a5b;stroke-width:19;stroke-linecap:round;stroke-linejoin:round;paint-order:fill markers stroke;stop-color:#000000"
         d="m 90.518836,104.23986 c 8.698979,-0.20909 17.193874,-0.72432 24.686504,-2.74295 l -1.37148,7.77168 -23.315024,1.37147 z"
         sodipodi:nodetypes="ccccc" /><path
         id="rect1523"
         style="fill:#8d7995;fill-opacity:1;stroke-width:0.858285;stroke-linecap:round;stroke-linejoin:round;paint-order:fill markers stroke;stop-color:#000000"
         d="m 101.09089,87.284779 c -0.63919,2.17078 -1.926125,4.26253 -1.106765,6.45611 a 9.1912729,10.707773 27.942874 0 0 -0.64044,0.31334 10.272332,8.4532732 85.215104 0 0 -5.79478,-2.10466 10.272332,8.4532732 85.215104 0 0 -7.56683,10.941621 10.272332,8.4532732 85.215104 0 0 9.28067,9.53153 10.272332,8.4532732 85.215104 0 0 1.40714,-0.26574 9.1912729,10.707773 27.942874 0 0 10.480705,-0.42763 8.4532732,10.272332 11.378578 0 0 1.25104,0.38073 8.4532732,10.272332 11.378578 0 0 10.31361,-8.40268 8.4532732,10.272332 11.378578 0 0 -6.26047,-11.738351 8.4532732,10.272332 11.378578 0 0 -5.93211,1.37557 9.1912729,10.707773 27.942874 0 0 -2.72043,-0.45216 c -0.43361,-1.62838 -0.19282,-3.37817 0.31948,-5.17663 z m -4.834005,8.77197 a 0.80800811,0.80800811 0 0 1 0.74683,0.48276 l 1.99202,4.532381 a 0.94835473,0.94835473 0 0 1 -0.92878,1.32806 l -4.29728,-0.27537 a 0.94835492,0.94835492 0 0 1 -0.7519,-1.43543 l 2.55408,-4.241261 a 0.80800811,0.80800811 0 0 1 0.68503,-0.39114 z m 10.309665,-0.10507 a 0.80800811,0.80800811 0 0 1 0.71128,0.34106 l 2.8513,4.047451 a 0.94835492,0.94835492 0 0 1 -0.64717,1.48559 l -4.26653,0.58245 a 0.94835473,0.94835473 0 0 1 -1.02151,-1.25813 l 1.66229,-4.663411 a 0.80800811,0.80800811 0 0 1 0.71034,-0.53501 z m -17.564805,5.490481 6.04097,5.26164 c 2.40532,-0.99808 1.70848,-2.2489 3.78806,-2.48982 0.69165,0.10547 1.209305,2.55655 2.967755,3.04527 0.70207,-0.97067 2.55006,-2.62936 3.16839,-3.2894 1.61619,0.62545 1.71814,1.11063 3.53056,2.25151 l 5.6692,-5.10661 0.48833,0.15066 c -1.36016,2.13414 -4.31249,7.2548 -6.85703,7.33891 l -2.67509,-3.19015 c -0.66407,0.91815 -1.9125,3.14933 -2.44,3.37356 l -0.0161,5.4e-4 -1.6246,0.0583 c -0.43796,0.0172 -1.933365,-2.55466 -2.691425,-3.18957 l -2.43973,3.37356 c -2.03646,-0.18042 -5.67143,-5.46823 -7.38592,-7.40293 z" /><path
         id="path7166"
         style="fill:#a097aa;fill-rule:evenodd;stroke-width:0.264583"
         d="m 94.313675,91.928223 a 10.272332,8.4532732 85.215104 0 0 -0.764812,0.02119 10.272332,8.4532732 85.215104 0 0 -7.571114,8.956557 c 1.541517,-1.781201 3.738858,-4.444412 5.912817,-5.809462 4.228379,-2.655046 7.642239,0.278314 7.771619,-1.028361 0.006,-0.05631 0.007,-0.113919 0.006,-0.172599 a 9.1912729,10.707773 27.942874 0 0 -0.32453,0.158646 10.272332,8.4532732 85.215104 0 0 -5.03018,-2.125968 z" /><path
         id="path8894"
         style="fill:#a097aa;fill-rule:evenodd;stroke-width:0.264583"
         d="m 110.94832,91.833138 a 8.4532732,10.272332 11.378578 0 0 -4.42557,1.511536 9.1912729,10.707773 27.942874 0 0 -0.76998,-0.221692 c -0.13121,0.337762 -0.18814,0.657648 -0.15968,0.945162 0.12938,1.306675 3.54322,-1.626685 7.77162,1.028361 2.01742,1.266752 4.05488,3.652128 5.57021,5.413105 a 8.4532732,10.272332 11.378578 0 0 -6.48023,-8.540563 8.4532732,10.272332 11.378578 0 0 -1.50637,-0.135909 z" /><path
         id="path8954"
         style="fill:#a097aa;fill-rule:evenodd;stroke-width:0.264583"
         d="m 107.62656,110.59065 c -0.43648,0.004 -2.11839,2.32182 -5.76554,2.32182 -4.322555,0 -6.112805,-2.45624 -6.112805,-1.25729 0,0.19985 0.0535,0.43177 0.16174,0.67903 a 10.272332,8.4532732 85.215104 0 0 0.76016,-0.17725 9.1912729,10.707773 27.942874 0 0 10.480505,-0.42736 8.4532732,10.272332 11.378578 0 0 0.37414,0.13281 c 0.15192,-0.39277 0.22066,-0.74566 0.22066,-1.00666 0,-0.18734 -0.038,-0.26586 -0.11886,-0.2651 z" /><path
         id="rect8960"
         style="opacity:0.521542;fill:#a097aa;fill-opacity:1;stroke:none;stroke-width:17.684;stroke-linecap:round;stroke-linejoin:round;stroke-dasharray:none;stroke-opacity:1;paint-order:fill markers stroke;stop-color:#000000"
         d="m 92.888955,101.25169 c -0.816796,2.27643 5.93866,2.87153 5.93866,0.83974 -0.19361,0.21293 -0.47344,0.32642 -0.76068,0.30851 l -4.29741,-0.27544 c -0.469396,-0.0322 -0.844198,-0.40372 -0.88057,-0.87281 z"
         sodipodi:nodetypes="ccccc" /><path
         id="rect8962"
         style="opacity:0.519274;fill:#a097aa;fill-opacity:1;stroke:none;stroke-width:17.684;stroke-linecap:round;stroke-linejoin:round;stroke-dasharray:none;stroke-opacity:1;paint-order:fill markers stroke;stop-color:#000000"
         d="m 110.3561,100.99175 -0.0614,0.0109 c -0.0528,0.42703 -0.38654,0.76498 -0.81287,0.8232 l -4.26641,0.5824 c -0.23732,0.0287 -0.47669,-0.0334 -0.67024,-0.17364 1.09805,1.70388 5.87369,0.88638 5.81101,-1.24281 z"
         sodipodi:nodetypes="cccccc" /><path
         id="rect8976"
         style="opacity:0.512472;fill:#a097aa;fill-opacity:1;stroke:none;stroke-width:18.473;stroke-linecap:round;stroke-linejoin:round;stroke-dasharray:none;stroke-opacity:1;paint-order:fill markers stroke;stop-color:#000000"
         d="m 114.16673,102.17308 -0.18914,0.17053 c -1.52077,2.4203 -3.99835,6.1885 -6.17946,6.2606 l -2.67529,-3.18999 c -0.66407,0.91815 -1.91266,3.14921 -2.44016,3.37344 l -0.016,5.2e-4 -1.62471,0.0584 c -0.43796,0.0172 -1.933255,-2.55456 -2.691315,-3.18947 l -2.43964,3.37343 c -1.60801,-0.14246 -4.200016,-3.45206 -6.068883,-5.79809 l -0.840259,-0.73174 -0.244429,0.0951 v 0.36174 c 1.79165,2.1103 5.203411,6.95857 7.153571,7.13134 l 2.43964,-3.37343 c 0.75806,0.6349 2.253355,3.20666 2.691315,3.18946 l 1.62471,-0.0584 0.016,-5.1e-4 c 0.5275,-0.22423 1.77609,-2.45529 2.44016,-3.37344 l 2.67529,3.18999 c 2.54451,-0.0841 5.49678,-5.20444 6.85694,-7.33857 z" /><path
         id="rect9007"
         style="opacity:1;fill:#a097aa;fill-opacity:1;stroke:none;stroke-width:15.7682;stroke-linecap:round;stroke-linejoin:round;stroke-dasharray:none;stroke-opacity:1;paint-order:fill markers stroke;stop-color:#000000"
         d="m 101.09099,87.284595 c -0.63919,2.170778 -1.926271,4.262875 -1.106912,6.456453 -0.215811,0.09655 -0.429368,0.201006 -0.640271,0.313159 -0.235781,-0.212623 -0.480015,-0.410804 -0.731738,-0.593762 l 0.539228,0.886359 7.091883,0.04689 0.37512,-1.109982 c -0.032,0.0201 -0.0638,0.04043 -0.0956,0.06098 -0.86383,-0.300866 -1.78063,-0.453258 -2.72025,-0.452169 -0.43361,-1.628378 -0.19294,-3.378487 0.31936,-5.176945 z"
         sodipodi:nodetypes="ccccccccccc" /></g><path
       id="path8418"
       style="mix-blend-mode:normal;fill:#2e2832;fill-opacity:0.423529;fill-rule:evenodd;stroke-width:0.113905"
       d="m 60.078061,90.130528 a 1.7610742,1.7610742 0 0 0 -1.760616,1.76114 1.7610742,1.7610742 0 0 0 1.760616,1.76061 1.7610742,1.7610742 0 0 0 1.761133,-1.76061 1.7610742,1.7610742 0 0 0 -1.761133,-1.76114 z m 68.127109,0.92191 a 4.4123702,4.4123702 0 0 0 -4.41265,4.41265 4.4123702,4.4123702 0 0 0 4.41265,4.41214 4.4123702,4.4123702 0 0 0 4.41214,-4.41214 4.4123702,4.4123702 0 0 0 -4.41214,-4.41265 z m 23.63112,2.99724 a 1.7610742,1.7610742 0 0 0 -1.76113,1.76113 1.7610742,1.7610742 0 0 0 1.76113,1.76113 1.7610742,1.7610742 0 0 0 1.76113,-1.76113 1.7610742,1.7610742 0 0 0 -1.76113,-1.76113 z m -98.32837,5.993952 a 2.3374429,2.3374429 0 0 0 -2.337842,2.33784 2.3374429,2.3374429 0 0 0 2.337842,2.33732 2.3374429,2.3374429 0 0 0 2.337325,-2.33732 2.3374429,2.3374429 0 0 0 -2.337325,-2.33784 z m 25.571049,1.99212 a 2.4153745,2.4153745 0 0 0 -2.415357,2.41587 2.4153745,2.4153745 0 0 0 2.415357,2.41536 2.4153745,2.4153745 0 0 0 2.415356,-2.41536 2.4153745,2.4153745 0 0 0 -2.415356,-2.41587 z" /><g
       id="g21489"
       transform="translate(1.257176,-0.815198)"><path
         id="path21463"
         style="fill:#a097aa;fill-opacity:1;stroke-width:3.46547;stroke-linecap:round;stroke-linejoin:round;paint-order:stroke fill markers;stop-color:#000000"
         d="m 67.05766,79.913004 c -0.478009,0.280664 -1.420825,1.03323 -1.867654,1.330938 -0.0029,0.0019 -0.0059,0.0038 -0.0088,0.0057 l 9.323272,4.660377 2.187943,2.002274 0.276214,0.03692 -1.230186,-2.684145 z"
         sodipodi:nodetypes="cscccccc" /><path
         id="path20299"
         style="fill:#26232c;fill-opacity:1;stroke-width:3.46547;stroke-linecap:round;stroke-linejoin:round;paint-order:stroke fill markers;stop-color:#000000"
         d="m 67.209916,79.686857 c -0.478009,0.280664 -1.420825,1.03323 -1.867654,1.330938 -0.0029,0.0019 -0.0059,0.0038 -0.0088,0.0057 l 9.700183,4.886524 1.886414,2.153038 0.276214,0.03692 -0.928657,-2.834909 z"
         sodipodi:nodetypes="cscccccc" /></g><ellipse
       style="fill:#4b4252;fill-opacity:1;fill-rule:evenodd;stroke-width:0.170251"
       id="ellipse1533"
       cx="44.673965"
       cy="132.0889"
       rx="2.216295"
       ry="1.2319708"
       transform="matrix(-0.73368627,0.67948838,0.73826015,0.67451609,0,0)" /><ellipse
       style="fill:#64576b;fill-opacity:1;fill-rule:evenodd;stroke-width:0.264583"
       id="path1535"
       cx="112.74329"
       cy="74.586586"
       rx="2.4499636"
       ry="1.1484203" /></g></svg>
