<?xml version="1.0" encoding="UTF-8" standalone="no"?>
<!-- Created with Inkscape (http://www.inkscape.org/) -->

<svg
   width="35.670135mm"
   height="61.242962mm"
   viewBox="0 0 35.670136 61.242961"
   version="1.1"
   id="svg6765"
   xml:space="preserve"
   inkscape:version="1.2 (dc2aedaf03, 2022-05-15)"
   sodipodi:docname="Candle V2.svg"
   xmlns:inkscape="http://www.inkscape.org/namespaces/inkscape"
   xmlns:sodipodi="http://sodipodi.sourceforge.net/DTD/sodipodi-0.dtd"
   xmlns:xlink="http://www.w3.org/1999/xlink"
   xmlns="http://www.w3.org/2000/svg"
   xmlns:svg="http://www.w3.org/2000/svg"><sodipodi:namedview
     id="namedview6767"
     pagecolor="#505050"
     bordercolor="#ffffff"
     borderopacity="1"
     inkscape:showpageshadow="0"
     inkscape:pageopacity="0"
     inkscape:pagecheckerboard="1"
     inkscape:deskcolor="#505050"
     inkscape:document-units="mm"
     showgrid="false"
     inkscape:zoom="1.1127858"
     inkscape:cx="81.327423"
     inkscape:cy="106.93882"
     inkscape:window-width="1366"
     inkscape:window-height="705"
     inkscape:window-x="-8"
     inkscape:window-y="-8"
     inkscape:window-maximized="1"
     inkscape:current-layer="layer1"
     showguides="true" /><defs
     id="defs6762"><linearGradient
       inkscape:collect="always"
       id="linearGradient8568"><stop
         style="stop-color:#ffbf41;stop-opacity:1;"
         offset="0"
         id="stop8564" /><stop
         style="stop-color:#ffdb71;stop-opacity:0.49803922;"
         offset="0.15289256"
         id="stop9439" /><stop
         style="stop-color:#ffe989;stop-opacity:0.24705882;"
         offset="0.35950413"
         id="stop9441" /><stop
         style="stop-color:#ffe989;stop-opacity:0;"
         offset="1"
         id="stop8572" /></linearGradient><inkscape:path-effect
       effect="fillet_chamfer"
       id="path-effect9773"
       is_visible="true"
       lpeversion="1"
       nodesatellites_param="F,0,0,1,0,5.6310101,0,1 @ F,0,0,1,0,7.6582807,0,1 @ F,0,0,1,0,1.4098829,0,1 @ F,0,0,1,0,0,0,1"
       unit="px"
       method="auto"
       mode="F"
       radius="0"
       chamfer_steps="1"
       flexible="false"
       use_knot_distance="true"
       apply_no_radius="true"
       apply_with_radius="true"
       only_selected="false"
       hide_knots="false" /><radialGradient
       inkscape:collect="always"
       xlink:href="#linearGradient8568"
       id="radialGradient8570"
       cx="106.4582"
       cy="129.09996"
       fx="106.4582"
       fy="129.09996"
       r="16.448633"
       gradientUnits="userSpaceOnUse"
       gradientTransform="matrix(0.91904763,0,0,0.91904763,7.2864883,4.5764379)" /></defs><g
     inkscape:label="Layer 1"
     inkscape:groupmode="layer"
     id="layer1"
     transform="translate(-88.274557,-108.10836)"><path
       id="rect6835"
       style="fill:#b0a87a;stroke-width:1.36966;stroke-linecap:round;stroke-linejoin:round;paint-order:stroke fill markers;stop-color:#000000"
       d="m 95.959789,128.46688 c 6.942451,1.30141 13.279151,0.39243 19.106201,-1.55563 4.00862,-1.34013 6.9571,0.51078 6.81061,4.7378 l -0.71454,20.61859 a 1.4595889,1.4595889 135.9924 0 1 -1.45871,1.40904 H 89.200951 l 1.043482,-21.03384 c 0.154092,-3.1061 2.661441,-4.74844 5.715356,-4.17596 z"
       sodipodi:nodetypes="ccccc"
       inkscape:path-effect="#path-effect9773"
       inkscape:original-d="m 90.523442,127.01875 c 12.157308,4.19792 22.546248,1.35518 31.618398,-3.02339 l -1.02861,29.68132 H 89.200951 Z" /><path
       id="ellipse14141"
       style="fill:#9c946d;fill-rule:evenodd;stroke-width:0.233955"
       d="m 106.40414,136.1458 c -0.16004,2.62638 -4.04522,4.43579 -6.668005,4.22484 -2.471165,-0.19876 -5.704519,-2.4583 -5.565568,-4.93355 0.139729,-2.48909 3.625449,-4.39501 6.116783,-4.30359 2.63426,0.0967 6.27712,2.38114 6.11679,5.0123 z"
       sodipodi:nodetypes="aaaaa" /><path
       id="path1503"
       style="fill:#9c946d;fill-opacity:1;stroke-width:1.2;stroke-linecap:round;stroke-linejoin:round;paint-order:stroke fill markers;stop-color:#000000"
       d="m 115.19649,129.19553 c 2.29278,-0.30348 3.68051,-3.13405 5.97329,-0.72404 1.62472,3.58709 0.85928,8.2751 2.08159,11.40354 l -3.25815,-1.26706 c 0.59712,-4.57198 1.37122,-8.24731 -4.79673,-9.41244 z"
       sodipodi:nodetypes="ccccc" /><path
       id="path1225"
       style="fill:#9c946d;fill-opacity:1;fill-rule:evenodd;stroke-width:0.264583"
       d="m 123.01072,138.65313 c 1.34031,2.98584 -0.88178,6.13595 -3.21289,5.3851 -1.70913,-0.55051 -1.16291,-2.77042 -0.89067,-4.1632 0.2764,-1.41399 1.35457,-3.57502 2.42923,-3.57502 1.07466,0 1.2801,1.47488 1.67433,2.35312 z"
       sodipodi:nodetypes="ssass" /><path
       id="path14070"
       style="fill:#9c946d;fill-opacity:1;stroke-width:0.969085;stroke-linecap:round;stroke-linejoin:round;paint-order:stroke fill markers;stop-color:#000000"
       d="m 105.84895,134.01314 2.80612,0.70315 c -0.49356,3.20799 -1.32857,6.35396 -0.14204,9.32194 l -2.79743,0.47247 z"
       sodipodi:nodetypes="ccccc" /><path
       id="path13447"
       style="fill:#9c946d;fill-opacity:1;fill-rule:evenodd;stroke-width:0.288093"
       d="m 108.87794,144.07385 c 0.46964,1.78075 0.70691,5.48567 -1.13306,5.40747 -2.60733,-0.11081 -3.33046,-6.70252 -0.94965,-7.77125 0.95804,-0.43006 1.81491,1.34836 2.08271,2.36378 z"
       sodipodi:nodetypes="aaaa" /><path
       id="path919"
       style="fill:#b0a87a;fill-rule:evenodd;stroke-width:0.249304"
       d="m 121.12982,152.78591 c 0,2.06999 -0.26403,3.33342 -2.82083,3.74806 -2.93914,0.47665 -6.088,-0.50876 -6.01804,-2.68245 0.0666,-2.06941 0.84291,-3.15606 3.46028,-3.15606 2.61737,0 5.37859,0.0205 5.37859,2.09045 z"
       sodipodi:nodetypes="sssss" /><path
       id="path2264"
       style="fill:#9c946d;fill-opacity:1;fill-rule:evenodd;stroke-width:0.249304"
       d="m 121.11108,152.50373 c -0.0911,1.61184 -0.58272,2.61193 -2.80246,2.97191 -2.71026,0.43953 -5.5983,-0.36401 -5.97688,-2.19625 -0.0207,0.18153 -0.0342,0.37208 -0.0406,0.57206 -0.07,2.17369 3.07827,3.15917 6.01741,2.68252 2.5568,-0.41464 2.82154,-1.6781 2.82154,-3.74809 0,-0.0988 -0.006,-0.1925 -0.019,-0.28215 z" /><path
       id="path2476"
       style="fill:#cac397;fill-opacity:1;fill-rule:evenodd;stroke-width:0.0760262"
       d="m 117.5054,153.19041 c 0,0.57151 -0.089,0.92033 -0.95013,1.03481 -0.98998,0.1316 -2.05061,-0.14047 -2.02705,-0.74061 0.0224,-0.57135 0.28393,-0.87137 1.16553,-0.87137 0.8816,0 1.81165,0.006 1.81165,0.57717 z"
       sodipodi:nodetypes="sssss" /><path
       id="rect11760"
       style="fill:#cac397;stroke-width:1.2;stroke-linecap:round;stroke-linejoin:round;paint-order:stroke fill markers;stop-color:#000000"
       d="m 118.75751,126.20869 c -0.82426,0 -1.66972,0.10226 -2.27273,0.3545 -0.45486,0.0699 -0.92875,0.1844 -1.41904,0.3483 -5.82702,1.94806 -12.16339,2.85687 -19.105807,1.55546 -3.053906,-0.57247 -5.561321,1.06988 -5.715413,4.17598 l -0.189136,3.81372 c 1.41388,0.30278 2.993661,0.35159 4.680851,0.1943 a 5.2899637,4.5398264 0 0 0 4.72426,2.50372 5.2899637,4.5398264 0 0 0 4.786785,-2.62568 c 1.13942,0.29355 2.01286,0.70544 2.27687,1.41697 0.0232,0.24136 0.0446,0.48264 0.0641,0.72399 -0.001,0.01 -0.002,0.0187 -0.004,0.0284 0.002,-5.1e-4 0.004,-0.001 0.006,-0.002 0.11561,1.44759 0.14573,2.8953 -0.12816,4.34289 -0.12115,0.33795 -0.19817,0.69111 -0.23926,0.99839 -0.22581,1.68864 0.0613,4.8252 1.76475,4.7966 1.68361,-0.0283 1.83511,-3.13165 1.58389,-4.7966 -0.074,-0.4901 -0.23127,-1.09884 -0.51263,-1.57458 -0.37647,-1.46995 -0.49144,-2.97723 -0.44029,-4.50826 3.64786,-1.72592 5.49875,-4.9686 8.59999,-8.38656 3.94244,1.26797 3.93865,4.01752 3.51245,7.44915 -0.61786,0.75542 -1.11858,1.95725 -1.29449,2.85719 -0.27224,1.39278 -0.81875,3.61255 0.89038,4.16306 2.33111,0.75085 4.55303,-2.39938 3.21272,-5.3852 -0.0971,-0.21635 -0.18231,-0.46879 -0.27233,-0.72658 -0.4802,-2.8009 -0.27612,-6.22733 -1.39991,-9.05629 -0.14966,-1.02369 -1.66262,-2.66134 -3.10989,-2.66134 z" /><path
       id="path2547"
       style="fill:#dad2a1;fill-opacity:1;fill-rule:evenodd;stroke-width:0.278741"
       d="m 118.75751,126.20869 c -0.47908,0 -0.96397,0.0357 -1.4056,0.11421 a 1.6630104,2.1827011 32.334208 0 0 0.52865,2.1115 1.6630104,2.1827011 32.334208 0 0 2.57245,-0.95498 1.6630104,2.1827011 32.334208 0 0 0.21963,-0.43408 c -0.55752,-0.48135 -1.24258,-0.83665 -1.91513,-0.83665 z m -3.42512,0.6196 c -0.0885,0.0267 -0.17705,0.0533 -0.26665,0.0832 -5.82701,1.94806 -12.1634,2.85687 -19.105807,1.55546 -1.336829,-0.25059 -2.568653,-0.0768 -3.544486,0.45837 a 10.497753,6.5481033 0 0 0 2.499589,3.17552 4.5732784,5.4089084 0 0 0 4.544942,4.83485 4.5732784,5.4089084 0 0 0 3.939812,-2.66857 10.497753,6.5481033 0 0 0 4.97902,-1.01855 4.3437915,6.9638562 70.145448 0 0 1.7508,-0.47284 4.3437915,6.9638562 70.145448 0 0 5.20278,-5.94744 z" /><ellipse
       style="fill:#dad2a1;fill-opacity:1;fill-rule:evenodd;stroke-width:0.264583"
       id="path3392"
       cx="150.59044"
       cy="107.60627"
       rx="1.2472577"
       ry="2.2346702"
       transform="rotate(13.574803)" /><ellipse
       style="fill:#dad2a1;fill-opacity:1;fill-rule:evenodd;stroke-width:0.264583"
       id="ellipse3463"
       cx="109.03404"
       cy="144.02597"
       rx="1.2472577"
       ry="2.2346702"
       transform="rotate(0.48035592)" /><path
       id="rect3781"
       style="fill:#b0a87a;stroke-width:0.794945;stroke-linecap:round;stroke-linejoin:round;paint-order:stroke fill markers;stop-color:#000000"
       d="m 91.616045,150.26831 c 0.687302,-0.44843 1.529771,0.81158 1.954146,1.59026 0.467638,0.85806 0.973079,2.20549 0.431815,2.99115 -1.081654,1.57005 -3.99426,1.79991 -5.226014,0.3557 -0.511045,-0.5992 -0.177328,-1.76535 0.160919,-2.50113 0.533374,-1.16024 2.225295,-1.23067 2.679139,-2.43592 4e-6,-1e-5 -1.3e-5,-4e-5 -3e-6,-4e-5 z"
       sodipodi:nodetypes="aaaaaaa" /><path
       id="path3255"
       style="opacity:1;fill:#9c946d;fill-opacity:1;fill-rule:evenodd;stroke-width:0.177936"
       d="m 99.942525,153.32452 c 0.237115,1.6944 -1.66171,2.32961 -3.833416,2.61134 -2.495859,0.32378 -4.249353,-0.34583 -2.859686,-1.82341 1.322985,-1.40669 2.573249,-2.14654 4.534699,-2.14534 1.960758,0.001 1.958977,-0.0677 2.158403,1.35741 z"
       sodipodi:nodetypes="sssss" /><path
       id="path3784"
       style="fill:#9c946d;fill-opacity:1;stroke-width:0.825279;stroke-linecap:round;stroke-linejoin:round;paint-order:stroke fill markers;stop-color:#000000"
       d="m 94.128601,153.26207 c -0.03567,0.1943 -0.106793,0.37486 -0.223798,0.53243 -1.797703,3.09251 -3.224323,1.54543 -4.551873,0.10122 -0.06669,-0.0726 -0.12002,-0.15335 -0.161622,-0.24076 -0.08788,0.49244 -0.05384,0.97552 0.24086,1.29613 1.32755,1.44421 3.386097,1.46882 4.551873,-0.10122 0.313015,-0.42157 0.300564,-1.00514 0.14456,-1.5878 z"
       sodipodi:nodetypes="cccccsc" /><path
       id="path851"
       style="fill:#b0a87a;stroke-width:1.76661;stroke-linecap:round;stroke-linejoin:round;paint-order:stroke fill markers;stop-color:#000000"
       d="m 91.41229,144.17773 c 0.740755,-2.05482 1.86809,3.69757 2.106124,7.287 0.259583,3.91439 -1.089955,9.95805 0.465399,13.70624 2.162045,5.21023 -5.019596,5.30958 -5.632453,1.62991 -0.346858,-2.08258 3.070129,-6.67137 0.173434,-11.46084 -1.224412,-4.88433 2.417662,-5.64312 2.887501,-11.16203 4e-6,-5e-5 -1.3e-5,-1.8e-4 -3e-6,-1.8e-4 z"
       sodipodi:nodetypes="assscsaa" /><path
       id="path3858"
       style="fill:#cac397;fill-opacity:1;fill-rule:evenodd;stroke-width:0.0542716"
       d="m 91.580954,152.26867 c 0.04279,0.39063 0.0029,0.63244 -0.626937,0.74354 -0.724108,0.12772 -1.530811,-0.0178 -1.558271,-0.42886 -0.02619,-0.39138 0.14526,-0.60641 0.798862,-0.64005 0.65361,-0.0337 1.343582,-0.065 1.386346,0.32537 z"
       sodipodi:nodetypes="sssss" /><path
       id="rect3912"
       style="fill:#e49a21;fill-opacity:1;stroke-width:1.04964;stroke-linecap:round;stroke-linejoin:round;paint-order:stroke fill markers;stop-color:#000000"
       d="m 108.76182,111.12812 c 0.59728,4.28007 -1.40911,2.75948 -1.70954,2.92989 -3.26529,-0.2155 -3.67117,4.96386 -2.91893,6.53852 0.94257,1.97302 -1.9368,0.99338 -2.86293,-2.87652 -3.755826,4.11429 -0.69873,10.53967 4.14211,9.97884 1.99366,-0.30031 4.27178,-2.01707 4.27178,-4.52243 -0.0803,-1.64401 -1.48262,-1.92244 -1.90865,-3.99305 -0.42359,-2.14172 1.54818,-3.47949 2.99929,-1.88922 -0.20471,-1.49606 -1.37643,-6.05781 -2.01313,-6.16606 z"
       sodipodi:nodetypes="ccsccscscc" /><path
       id="rect3974"
       style="fill:#e49a21;fill-opacity:1;stroke-width:0.354111;stroke-linecap:round;stroke-linejoin:round;paint-order:stroke fill markers;stop-color:#000000"
       d="m 103.11076,111.50241 c -0.14375,0.60759 1.96069,2.64362 2.40484,2.25143 0.44413,-0.39218 1.01716,-2.80412 1.19142,-3.1559 -0.40973,-0.4807 -0.97718,1.12578 -1.60624,1.30736 -1.15485,0.19893 -1.84982,-1.01319 -1.99002,-0.40289 z"
       sodipodi:nodetypes="czccc" /><path
       id="path3980"
       style="fill:#e49a21;fill-opacity:1;stroke-width:0.258851;stroke-linecap:round;stroke-linejoin:round;paint-order:stroke fill markers;stop-color:#000000"
       d="m 100.18565,116.81501 c -0.13302,-0.60724 0.77269,-2.78465 1.04217,-2.41206 0.26946,0.37258 0.79877,2.78298 0.92336,3.12954 -0.16831,0.50928 -0.61794,-1.08593 -0.96398,-1.23512 -0.62246,-0.13773 -0.87012,1.12782 -1.00155,0.51764 z"
       sodipodi:nodetypes="czccc" /><path
       id="path6256"
       style="fill:#fff646;fill-opacity:1;stroke-width:0.554532;stroke-linecap:round;stroke-linejoin:round;paint-order:stroke fill markers;stop-color:#000000"
       d="m 106.35609,116.12859 c -0.26425,0.0153 -0.70586,1.12573 -1.45961,4.57955 -0.0717,1.22545 0.7298,3.17962 0.13617,3.07446 -2.12745,-2.71405 -1.11455,-1.55444 -1.94489,-1.02393 -0.49347,0.33126 -1.02208,-0.6788 -1.36308,-1.26451 -1.11786,-2.22686 -1.26863,1.29369 -1.13666,3.83861 0.5634,0.86562 1.34098,1.5654 2.26911,1.98135 h 3.8565 c 1.56747,-0.69135 2.97068,-2.17157 2.97068,-4.13767 -0.005,-0.10131 -0.0151,-0.19755 -0.0295,-0.28924 -0.0171,-0.0533 -0.0357,-0.10482 -0.056,-0.15398 -0.14893,-0.35909 -0.59209,-0.47685 -0.84913,-0.75925 -0.7251,-0.79659 -1.88789,-2.33212 -1.93267,-2.61293 -0.0695,-0.43556 -0.0347,-3.25718 -0.46084,-3.23246 z" /><path
       id="rect5759"
       style="fill:#fef78f;fill-opacity:1;stroke-width:0.627171;stroke-linecap:round;stroke-linejoin:round;paint-order:stroke fill markers;stop-color:#000000"
       d="m 107.84355,122.09138 c -0.28879,0.0101 -0.4683,0.32349 -0.39885,1.21452 -0.0917,1.22544 -1.15901,3.18007 -1.91834,3.0749 -2.72129,-2.71404 -1.42581,-1.55488 -2.48793,-1.02437 -0.63121,0.33126 -1.30761,-0.67836 -1.74379,-1.26406 -0.80246,-1.2497 -1.17441,-0.89293 -1.304889,0.0531 0.829219,2.21385 2.879459,3.84804 5.422779,3.5534 1.91627,-0.28865 4.09495,-1.88618 4.26124,-4.23453 -0.0393,-0.0655 -0.0795,-0.12014 -0.12143,-0.15845 -0.44245,-0.40452 -1.22749,-1.23124 -1.70879,-1.21452 z" /><circle
       style="opacity:0.614512;fill:url(#radialGradient8570);fill-opacity:1;fill-rule:evenodd;stroke-width:0.138012"
       id="path7228"
       cx="105.12666"
       cy="123.22544"
       r="15.117077" /><path
       id="rect905"
       style="fill:#9c946d;fill-opacity:1;stroke-width:0.891876;stroke-linecap:square;stroke-linejoin:round;stop-color:#000000"
       d="m 93.4994,154.40473 c -0.659832,0.57066 -1.473629,5.36712 -0.875132,9.79271 0.62458,4.46087 -1.169994,5.0311 -2.895947,4.593 2.16849,1.34096 5.893654,0.32818 4.255554,-3.61941 -1.310963,-3.15924 -0.597964,-6.99505 -0.484475,-10.7663 z"
       sodipodi:nodetypes="cccsc" /><path
       id="path3246"
       style="fill:#cac397;fill-opacity:1;fill-rule:evenodd;stroke-width:0.0724066"
       d="m 91.008361,165.63366 c 0.04403,0.67578 0.0029,1.0941 -0.645058,1.2863 -0.745035,0.22095 -1.575054,-0.0307 -1.603308,-0.74192 -0.02695,-0.67707 0.149459,-1.04908 0.821951,-1.10726 0.672501,-0.0583 1.382415,-0.11239 1.426415,0.56288 z"
       sodipodi:nodetypes="sssss" /><path
       id="path3248"
       style="fill:#b0a87a;fill-opacity:1;fill-rule:evenodd;stroke-width:0.142956"
       d="m 96.291996,151.26777 c -1.520232,0.7648 -1.959724,1.24875 -3.107555,2.29528 -0.28336,0.25835 -0.416152,0.48378 -0.425297,0.67395 2.748195,1.79859 5.501079,0.11623 7.262186,-0.79819 0.63227,-0.8333 -1.840402,-3.12131 -3.729334,-2.17104 z"
       sodipodi:nodetypes="ssccs" /><path
       id="path4197"
       style="fill:#b0a87a;fill-rule:evenodd;stroke-width:0.0994707"
       d="m 98.976853,153.6445 c 1.803987,4.09445 -1.62908,9.77834 1.194277,9.59165 2.74668,-0.18161 0.72693,-5.64809 0.66972,-8.48447 -0.0247,-1.22302 0.76357,-3.4046 -0.43608,-3.64379 -0.95157,-0.18973 -1.819135,1.64867 -1.427917,2.53661 z"
       sodipodi:nodetypes="ssaas" /><path
       id="path4199"
       style="fill:#9c946d;fill-opacity:1;fill-rule:evenodd;stroke-width:0.0994707"
       d="m 100.44033,151.11607 c 0.02,0.7914 -0.24444,1.83733 -0.22996,2.55437 0.0572,2.83637 2.07695,8.30314 -0.669728,8.48475 -0.208204,0.0138 -0.382333,-0.005 -0.5271,-0.0522 0.04758,0.7488 0.340294,1.1873 1.157548,1.13326 2.74668,-0.18161 0.72694,-5.64838 0.66973,-8.48475 -0.0244,-1.21059 0.74726,-3.3599 -0.40049,-3.63544 z" /><rect
       style="opacity:1;fill:#b0a87a;fill-opacity:1;stroke-width:0.836467;stroke-linecap:square;stroke-linejoin:round;stop-color:#000000"
       id="rect4256"
       width="5.5859957"
       height="5.2530079"
       x="99.420143"
       y="148.29149" /><path
       id="path3467"
       style="fill:#cac397;fill-opacity:1;fill-rule:evenodd;stroke-width:0.0335451"
       d="m 100.18712,160.74227 c 0.019,0.33677 0.002,0.54524 -0.277819,0.64102 -0.32089,0.11011 -0.67837,-0.0153 -0.69054,-0.36973 -0.0116,-0.33741 0.0644,-0.5228 0.35401,-0.5518 0.28964,-0.029 0.595399,-0.056 0.614349,0.28051 z"
       sodipodi:nodetypes="sssss" /><path
       id="path5132"
       style="fill:#b0a87a;fill-rule:evenodd;stroke-width:0.14077"
       d="m 112.32995,153.54497 c 0.23511,1.02346 0.21156,1.66205 -1.35917,2.00168 -1.80559,0.39041 -3.90996,0.069 -4.1126,-1.00946 -0.1929,-1.02668 0.17487,-1.60483 1.83101,-1.74263 1.65615,-0.13781 3.40563,-0.27305 3.64076,0.7504 z"
       sodipodi:nodetypes="sssss" /><path
       id="path5134"
       style="fill:#9c946d;fill-opacity:1;fill-rule:evenodd;stroke-width:0.14077"
       d="m 112.28604,153.40643 c 0.12547,0.80174 -0.072,1.32211 -1.43571,1.61696 -1.66499,0.36001 -3.58366,0.11477 -4.03127,-0.77127 0.007,0.0907 0.0206,0.18576 0.0393,0.28499 0.20258,1.07843 2.30661,1.39992 4.11221,1.0095 1.57074,-0.33961 1.59473,-0.97825 1.35961,-2.00172 -0.0112,-0.0489 -0.0253,-0.0949 -0.0441,-0.13851 z" /><path
       id="path5136"
       style="fill:#cac397;fill-opacity:1;fill-rule:evenodd;stroke-width:0.0415276"
       d="m 111.23408,153.24883 c 0.32431,0.25212 0.48141,0.42108 0.15153,0.61737 -0.37927,0.22567 -1.02001,0.28522 -1.34977,0.0165 -0.31393,-0.25585 -0.36428,-0.43247 0.04,-0.58173 0.40426,-0.14927 0.83414,-0.30409 1.15826,-0.0521 z"
       sodipodi:nodetypes="sssss" /></g></svg>
