<?xml version="1.0" encoding="UTF-8" standalone="no"?>
<!-- Created with Inkscape (http://www.inkscape.org/) -->

<svg
   width="33.725277mm"
   height="42.928585mm"
   viewBox="0 0 33.725277 42.928585"
   version="1.1"
   id="svg6765"
   xml:space="preserve"
   inkscape:version="1.2 (dc2aedaf03, 2022-05-15)"
   sodipodi:docname="Candle 2.svg"
   xmlns:inkscape="http://www.inkscape.org/namespaces/inkscape"
   xmlns:sodipodi="http://sodipodi.sourceforge.net/DTD/sodipodi-0.dtd"
   xmlns:xlink="http://www.w3.org/1999/xlink"
   xmlns="http://www.w3.org/2000/svg"
   xmlns:svg="http://www.w3.org/2000/svg"><sodipodi:namedview
     id="namedview6767"
     pagecolor="#505050"
     bordercolor="#ffffff"
     borderopacity="1"
     inkscape:showpageshadow="0"
     inkscape:pageopacity="0"
     inkscape:pagecheckerboard="1"
     inkscape:deskcolor="#505050"
     inkscape:document-units="mm"
     showgrid="false"
     inkscape:zoom="1.69812"
     inkscape:cx="47.110921"
     inkscape:cy="70.077496"
     inkscape:window-width="1366"
     inkscape:window-height="705"
     inkscape:window-x="-8"
     inkscape:window-y="-8"
     inkscape:window-maximized="1"
     inkscape:current-layer="layer1" /><defs
     id="defs6762"><linearGradient
       inkscape:collect="always"
       id="linearGradient8568"><stop
         style="stop-color:#ffbf41;stop-opacity:1;"
         offset="0"
         id="stop8564" /><stop
         style="stop-color:#ffdb71;stop-opacity:0.49803922;"
         offset="0.15289256"
         id="stop9439" /><stop
         style="stop-color:#ffe989;stop-opacity:0.24705882;"
         offset="0.35950413"
         id="stop9441" /><stop
         style="stop-color:#ffe989;stop-opacity:0;"
         offset="1"
         id="stop8572" /></linearGradient><inkscape:path-effect
       effect="fillet_chamfer"
       id="path-effect9773"
       is_visible="true"
       lpeversion="1"
       nodesatellites_param="F,0,0,1,0,5.6310101,0,1 @ F,0,0,1,0,7.6582807,0,1 @ F,0,0,1,0,1.5665365,0,1 @ F,0,0,1,0,1.3146656,0,1"
       unit="px"
       method="auto"
       mode="F"
       radius="0"
       chamfer_steps="1"
       flexible="false"
       use_knot_distance="true"
       apply_no_radius="true"
       apply_with_radius="true"
       only_selected="false"
       hide_knots="false" /><radialGradient
       inkscape:collect="always"
       xlink:href="#linearGradient8568"
       id="radialGradient8570"
       cx="106.4582"
       cy="129.09996"
       fx="106.4582"
       fy="129.09996"
       r="16.448633"
       gradientUnits="userSpaceOnUse"
       gradientTransform="matrix(0.80624295,0,0,0.80624295,-193.71271,22.843682)" /><inkscape:path-effect
       effect="fillet_chamfer"
       id="path-effect9773-6"
       is_visible="true"
       lpeversion="1"
       nodesatellites_param="F,0,0,1,0,5.6310101,0,1 @ F,0,0,1,0,7.6582807,0,1 @ F,0,0,1,0,1.4098829,0,1 @ F,0,0,1,0,0,0,1"
       unit="px"
       method="auto"
       mode="F"
       radius="0"
       chamfer_steps="1"
       flexible="false"
       use_knot_distance="true"
       apply_no_radius="true"
       apply_with_radius="true"
       only_selected="false"
       hide_knots="false" /></defs><g
     inkscape:label="Layer 1"
     inkscape:groupmode="layer"
     id="layer1"
     transform="translate(-89.581429,-113.66801)"><path
       id="rect6835"
       style="opacity:1;fill:#b0a87a;stroke-width:1.26334;stroke-linecap:round;stroke-linejoin:round;paint-order:stroke fill markers;stop-color:#000000"
       d="m 117.88251,132.66753 c -6.90822,1.09468 -13.09846,0.36938 -18.730854,-1.22833 -4.066386,-1.1535 -7.317864,0.8564 -7.452495,5.08381 l -0.510568,16.03189 a 1.5174412,1.5174412 45.912042 0 0 1.516672,1.56574 h 29.031075 a 1.3335591,1.3335591 135.40876 0 0 1.33343,-1.31453 l 0.22453,-15.73485 c 0.0444,-3.10961 -2.34213,-4.89015 -5.41179,-4.40373 z"
       sodipodi:nodetypes="ccccc"
       inkscape:path-effect="#path-effect9773"
       inkscape:original-d="m 123.37464,131.44082 c -12.41654,3.57147 -22.62994,1.15295 -31.431709,-2.57221 l -0.804202,25.25203 h 31.912281 z" /><path
       id="ellipse14141"
       style="fill:#9c946d;fill-rule:evenodd;stroke-width:0.197454"
       d="m 106.93034,137.82988 c -0.002,1.87078 3.77131,3.15963 6.40712,3.00937 2.48345,-0.14157 5.85632,-1.75106 5.87022,-3.51418 0.014,-1.77299 -3.35406,-3.13058 -5.85104,-3.06546 -2.64023,0.0689 -6.42415,1.69609 -6.4263,3.57027 z"
       sodipodi:nodetypes="aaaaa" /><path
       id="path1503"
       style="opacity:1;fill:#9c946d;fill-opacity:1;stroke-width:1.10685;stroke-linecap:round;stroke-linejoin:round;paint-order:stroke fill markers;stop-color:#000000"
       d="m 98.567169,133.29277 c -2.27404,-0.2582 -3.486977,-2.66637 -5.928579,-0.616 -1.846219,3.0518 -0.493822,7.33238 -1.909313,9.99396 l 3.044242,-1.15101 c -0.314818,-3.88972 -1.446244,-7.23569 4.79365,-8.22695 z"
       sodipodi:nodetypes="ccccc" /><path
       id="path1225"
       style="opacity:1;fill:#9c946d;fill-opacity:1;fill-rule:evenodd;stroke-width:0.160654"
       d="m 91.661396,140.68165 c -0.983773,1.70614 0.324475,3.50614 1.858493,3.0771 1.124717,-0.31457 0.860729,-1.58305 0.740559,-2.3789 -0.122002,-0.80796 -0.731571,-2.04279 -1.424974,-2.04279 -0.693403,0 -0.884719,0.84275 -1.174078,1.34459 z"
       sodipodi:nodetypes="ssass" /><path
       id="path14070"
       style="opacity:1;fill:#9c946d;fill-opacity:1;stroke-width:0.828774;stroke-linecap:round;stroke-linejoin:round;paint-order:stroke fill markers;stop-color:#000000"
       d="m 107.61722,137.39145 -2.84954,0.51428 c 0.29549,2.34629 0.93622,4.64721 -0.43359,6.81797 l 2.76826,0.34555 z"
       sodipodi:nodetypes="ccccc" /><path
       id="path13447"
       style="opacity:1;fill:#9c946d;fill-opacity:1;fill-rule:evenodd;stroke-width:0.193486"
       d="m 103.96698,144.97966 c -0.5796,0.80323 -1.04564,2.47438 0.79915,2.4391 2.61418,-0.05 3.74434,-3.02324 1.42953,-3.50531 -0.93148,-0.19398 -1.89817,0.6082 -2.22868,1.06621 z"
       sodipodi:nodetypes="aaaa" /><path
       id="path919"
       style="fill:#b0a87a;fill-rule:evenodd;stroke-width:0.171537"
       d="m 110.70284,153.7817 c -0.12781,1.50727 -0.0342,2.42723 1.60262,2.72915 1.88155,0.34707 3.98974,-0.37045 4.07847,-1.95322 0.0845,-1.50685 -0.35316,-2.29809 -2.05493,-2.29809 -1.70177,0 -3.49834,0.0149 -3.62616,1.52216 z"
       sodipodi:nodetypes="sssss" /><path
       id="path2264"
       style="fill:#9c946d;fill-opacity:1;fill-rule:evenodd;stroke-width:0.171537"
       d="m 110.73246,153.57624 c -0.0403,1.17366 0.21758,1.90187 1.63859,2.16399 1.73503,0.32005 3.66241,-0.26505 4.0217,-1.5992 0.002,0.13218 -8.3e-4,0.27093 -0.009,0.41655 -0.0887,1.58276 -2.19653,2.30034 -4.07807,1.95327 -1.63678,-0.30192 -1.7309,-1.22191 -1.60307,-2.72917 0.006,-0.0719 0.0159,-0.14017 0.0298,-0.20544 z" /><path
       id="path2476"
       style="fill:#cac397;fill-opacity:1;fill-rule:evenodd;stroke-width:0.0644781"
       d="m 112.05453,153.776 c -0.0353,0.41615 0.031,0.67014 0.87466,0.75349 0.96981,0.0958 2.03432,-0.10227 2.0481,-0.53927 0.0132,-0.41602 -0.22667,-0.63448 -1.09753,-0.63448 -0.87087,0 -1.78996,0.004 -1.82523,0.42026 z"
       sodipodi:nodetypes="sssss" /><path
       id="rect11760"
       style="opacity:1;fill:#cac397;stroke-width:1.01278;stroke-linecap:round;stroke-linejoin:round;paint-order:stroke fill markers;stop-color:#000000"
       d="m 95.190583,130.75165 c 0.82426,0 1.663405,0.0728 2.25084,0.2525 0.450548,0.0498 0.917367,0.13136 1.397538,0.2481 5.706729,1.38761 11.986979,2.03496 19.009749,1.10796 3.08926,-0.40777 5.49527,0.76208 5.45756,2.97457 l -0.0464,2.71652 c -1.43257,0.21567 -3.01536,0.25045 -4.69285,0.13841 -0.99152,1.0925 -2.87921,1.78252 -4.87885,1.7834 -2.05411,-0.002 -3.85721,-0.73156 -4.62466,-1.87028 -1.15755,0.2091 -2.05643,0.50249 -2.36437,1.00932 -0.0381,0.17192 -0.0744,0.34378 -0.1088,0.5157 4.2e-4,0.007 8.4e-4,0.0133 0.002,0.0203 -0.002,-3.7e-4 -0.004,-7.5e-4 -0.006,-8.4e-4 -0.20499,1.03113 -0.32452,2.06233 -0.14001,3.09346 0.10027,0.24071 0.1555,0.49227 0.17761,0.71115 0.12157,1.20282 -0.35926,3.437 -2.06094,3.41663 -1.68186,-0.0202 -1.64173,-2.23068 -1.2877,-3.41663 0.10427,-0.3491 0.29912,-0.7827 0.60986,-1.12158 0.46723,-1.04705 0.67528,-2.12069 0.71867,-3.21125 -3.54129,-1.22938 -5.191936,-3.53915 -8.082113,-5.97377 -4.020744,0.90318 -3.716769,5.36815 -3.502477,7.81252 0.571217,0.53808 0.997719,1.39415 1.118059,2.03518 0.186244,0.99208 0.595684,2.57323 -1.147442,2.96536 -2.377476,0.53483 -4.404871,-1.70909 -2.880184,-3.8359 0.110451,-0.1541 0.211253,-0.33391 0.317194,-0.51754 0.653156,-1.99509 0.190694,-6.94221 1.489167,-8.95729 0.212877,-0.72918 1.826954,-1.89568 3.274224,-1.89568 z"
       sodipodi:nodetypes="cccccccccccccccccccccssccccc" /><path
       id="path2547"
       style="opacity:1;fill:#dad2a1;fill-opacity:1;fill-rule:evenodd;stroke-width:0.235252"
       d="m 95.190583,130.75165 c 0.47908,0 0.961767,0.0254 1.398545,0.0814 a 1.845653,1.4008904 19.735814 0 1 -0.659035,1.50403 1.845653,1.4008904 19.735814 0 1 -2.51348,-0.68023 1.845653,1.4008904 19.735814 0 1 -0.192825,-0.3092 c 0.587248,-0.34286 1.294248,-0.59595 1.966798,-0.59595 z m 3.38686,0.44134 c 0.08685,0.019 0.173767,0.0379 0.261518,0.0593 5.706709,1.38761 11.986989,2.03496 19.009759,1.10796 1.3523,-0.17849 2.5734,-0.0547 3.51618,0.3265 a 4.659933,10.507446 88.781286 0 1 -2.69567,2.26193 3.8192668,4.6134123 78.699526 0 1 -4.8435,3.44389 3.8192668,4.6134123 78.699526 0 1 -3.77504,-1.90084 4.659933,10.507446 88.781286 0 1 -4.91612,-0.72551 6.706688,3.2127405 9.7088984 0 1 -1.7216,-0.33681 6.706688,3.2127405 9.7088984 0 1 -4.835527,-4.23639 z" /><ellipse
       style="fill:#dad2a1;fill-opacity:1;fill-rule:evenodd;stroke-width:0.199968"
       id="path3392"
       cx="-45.006817"
       cy="155.83601"
       rx="1.2414559"
       ry="1.2824337"
       transform="matrix(-0.99116828,0.13261007,0.30440151,0.95254382,0,0)" /><ellipse
       style="fill:#dad2a1;fill-opacity:1;fill-rule:evenodd;stroke-width:0.223668"
       id="ellipse3463"
       cx="-115.81808"
       cy="145.18753"
       rx="1.2478818"
       ry="1.596168"
       transform="matrix(-0.99998219,0.00596875,-0.07471034,0.99720528,0,0)" /><g
       id="g9485"
       transform="matrix(-0.77877618,0,0,0.77877618,189.7391,31.644051)"><path
         id="rect3912"
         style="opacity:1;fill:#e49a21;fill-opacity:1;stroke-width:1.04964;stroke-linecap:round;stroke-linejoin:round;paint-order:stroke fill markers;stop-color:#000000"
         d="m 108.76182,111.12812 c 0.59728,4.28007 -1.40911,2.75948 -1.70954,2.92989 -3.26529,-0.2155 -3.67117,4.96386 -2.91893,6.53852 0.94257,1.97302 -1.9368,0.99338 -2.86293,-2.87652 -3.755826,4.11429 -0.69873,10.53967 4.14211,9.97884 1.99366,-0.30031 4.27178,-2.01707 4.27178,-4.52243 -0.0803,-1.64401 -1.48262,-1.92244 -1.90865,-3.99305 -0.42359,-2.14172 1.54818,-3.47949 2.99929,-1.88922 -0.20471,-1.49606 -1.37643,-6.05781 -2.01313,-6.16606 z"
         sodipodi:nodetypes="ccsccscscc" /><path
         id="rect3974"
         style="opacity:1;fill:#e49a21;fill-opacity:1;stroke-width:0.354111;stroke-linecap:round;stroke-linejoin:round;paint-order:stroke fill markers;stop-color:#000000"
         d="m 103.11076,111.50241 c -0.14375,0.60759 1.96069,2.64362 2.40484,2.25143 0.44413,-0.39218 1.01716,-2.80412 1.19142,-3.1559 -0.40973,-0.4807 -0.97718,1.12578 -1.60624,1.30736 -1.15485,0.19893 -1.84982,-1.01319 -1.99002,-0.40289 z"
         sodipodi:nodetypes="czccc" /><path
         id="path3980"
         style="opacity:1;fill:#e49a21;fill-opacity:1;stroke-width:0.258851;stroke-linecap:round;stroke-linejoin:round;paint-order:stroke fill markers;stop-color:#000000"
         d="m 100.18565,116.81501 c -0.13302,-0.60724 0.77269,-2.78465 1.04217,-2.41206 0.26946,0.37258 0.79877,2.78298 0.92336,3.12954 -0.16831,0.50928 -0.61794,-1.08593 -0.96398,-1.23512 -0.62246,-0.13773 -0.87012,1.12782 -1.00155,0.51764 z"
         sodipodi:nodetypes="czccc" /><path
         id="path6256"
         style="opacity:1;fill:#fff646;fill-opacity:1;stroke-width:0.554532;stroke-linecap:round;stroke-linejoin:round;paint-order:stroke fill markers;stop-color:#000000"
         d="m 106.35609,116.12859 c -0.26425,0.0153 -0.70586,1.12573 -1.45961,4.57955 -0.0717,1.22545 0.7298,3.17962 0.13617,3.07446 -2.12745,-2.71405 -1.11455,-1.55444 -1.94489,-1.02393 -0.49347,0.33126 -1.02208,-0.6788 -1.36308,-1.26451 -1.11786,-2.22686 -1.26863,1.29369 -1.13666,3.83861 0.5634,0.86562 1.34098,1.5654 2.26911,1.98135 h 3.8565 c 1.56747,-0.69135 2.97068,-2.17157 2.97068,-4.13767 -0.005,-0.10131 -0.0151,-0.19755 -0.0295,-0.28924 -0.0171,-0.0533 -0.0357,-0.10482 -0.056,-0.15398 -0.14893,-0.35909 -0.59209,-0.47685 -0.84913,-0.75925 -0.7251,-0.79659 -1.88789,-2.33212 -1.93267,-2.61293 -0.0695,-0.43556 -0.0347,-3.25718 -0.46084,-3.23246 z" /><path
         id="rect5759"
         style="opacity:1;fill:#fef78f;fill-opacity:1;stroke-width:0.627171;stroke-linecap:round;stroke-linejoin:round;paint-order:stroke fill markers;stop-color:#000000"
         d="m 107.84355,122.09138 c -0.28879,0.0101 -0.4683,0.32349 -0.39885,1.21452 -0.0917,1.22544 -1.15901,3.18007 -1.91834,3.0749 -2.72129,-2.71404 -1.42581,-1.55488 -2.48793,-1.02437 -0.63121,0.33126 -1.30761,-0.67836 -1.74379,-1.26406 -0.80246,-1.2497 -1.17441,-0.89293 -1.304889,0.0531 0.829219,2.21385 2.879459,3.84804 5.422779,3.5534 1.91627,-0.28865 4.09495,-1.88618 4.26124,-4.23453 -0.0393,-0.0655 -0.0795,-0.12014 -0.12143,-0.15845 -0.44245,-0.40452 -1.22749,-1.23124 -1.70879,-1.21452 z" /></g><circle
       style="opacity:0.614512;fill:url(#radialGradient8570);fill-opacity:1;fill-rule:evenodd;stroke-width:0.121072"
       id="path7228"
       cx="-107.88152"
       cy="126.9296"
       r="13.261594"
       transform="scale(-1,1)" /></g></svg>
