<?xml version="1.0" encoding="UTF-8" standalone="no"?>
<!-- Created with Inkscape (http://www.inkscape.org/) -->

<svg
   width="70.582916mm"
   height="70.582916mm"
   viewBox="0 0 70.582919 70.582919"
   version="1.1"
   id="svg5"
   xml:space="preserve"
   inkscape:version="1.2 (dc2aedaf03, 2022-05-15)"
   sodipodi:docname="Cracks Texture Right_V2.svg"
   inkscape:export-filename="Cracks Texture.png"
   inkscape:export-xdpi="96"
   inkscape:export-ydpi="96"
   xmlns:inkscape="http://www.inkscape.org/namespaces/inkscape"
   xmlns:sodipodi="http://sodipodi.sourceforge.net/DTD/sodipodi-0.dtd"
   xmlns="http://www.w3.org/2000/svg"
   xmlns:svg="http://www.w3.org/2000/svg"><sodipodi:namedview
     id="namedview7"
     pagecolor="#505050"
     bordercolor="#ffffff"
     borderopacity="1"
     inkscape:showpageshadow="0"
     inkscape:pageopacity="0"
     inkscape:pagecheckerboard="1"
     inkscape:deskcolor="#505050"
     inkscape:document-units="mm"
     showgrid="false"
     inkscape:zoom="0.69722962"
     inkscape:cx="-189.3207"
     inkscape:cy="104.70008"
     inkscape:window-width="1366"
     inkscape:window-height="705"
     inkscape:window-x="-8"
     inkscape:window-y="-8"
     inkscape:window-maximized="1"
     inkscape:current-layer="layer1" /><defs
     id="defs2" /><g
     inkscape:label="Layer 1"
     inkscape:groupmode="layer"
     id="layer1"
     transform="translate(-138.22758,-190.12146)"><path
       id="path19583"
       style="opacity:1;fill:#9e94a5;fill-opacity:1;stroke-width:3.46547;stroke-linecap:round;stroke-linejoin:round;paint-order:stroke fill markers;stop-color:#000000"
       d="m 194.14325,195.09414 c 2.71895,2.97627 3.13796,6.63694 2.83703,10.51202 1.43189,2.39359 2.78475,4.76649 2.5182,6.71483 l 5.80843,4.31912 c -3.31775,-0.0797 -6.75914,-0.686 -10.52494,-2.67477 1.74411,4.34177 13.06486,3.3368 12.75012,4.86533 0.37395,0.45089 0.81348,0.89929 1.27848,1.34617 v -2.58278 c -0.29241,-0.26199 -0.55739,-0.53887 -0.78083,-0.83716 l 0.27543,-0.0315 -4.75061,-2.95228 c -3.10091,-2.88771 -3.68817,-6.36575 -5.13664,-9.64127 -0.11277,-1.17271 0.42146,-7.15303 -4.27467,-9.03769 z" /><path
       id="path19585"
       style="opacity:1;fill:#26232c;fill-opacity:1;stroke-width:3.46547;stroke-linecap:round;stroke-linejoin:round;paint-order:stroke fill markers;stop-color:#000000"
       d="m 194.14325,193.50664 c 2.71895,2.97627 3.13796,6.63694 2.83703,10.51202 1.43189,2.39359 2.78475,4.76649 2.5182,6.71483 l 5.80843,4.31912 c -3.31775,-0.0797 -6.75914,-0.686 -10.52494,-2.67477 1.74411,4.34177 13.06486,3.3368 12.75012,4.86533 0.37395,0.45089 0.81348,0.89929 1.27848,1.34617 v -2.58278 c -0.29241,-0.26199 -0.55739,-0.53887 -0.78083,-0.83716 l 0.27543,-0.0315 -4.75061,-2.9528 c -3.10091,-2.8877 -3.68817,-6.36523 -5.13664,-9.64075 -0.11277,-1.17271 0.42146,-7.15303 -4.27467,-9.03769 z" /></g></svg>
