<?xml version="1.0" encoding="UTF-8" standalone="no"?>
<!-- Created with Inkscape (http://www.inkscape.org/) -->

<svg
   width="87.717735mm"
   height="87.717735mm"
   viewBox="0 0 87.717738 87.717738"
   version="1.1"
   id="svg5"
   xml:space="preserve"
   inkscape:version="1.2 (dc2aedaf03, 2022-05-15)"
   sodipodi:docname="Cracks Texture Left.svg"
   inkscape:export-filename="Cracks Texture.png"
   inkscape:export-xdpi="96"
   inkscape:export-ydpi="96"
   xmlns:inkscape="http://www.inkscape.org/namespaces/inkscape"
   xmlns:sodipodi="http://sodipodi.sourceforge.net/DTD/sodipodi-0.dtd"
   xmlns="http://www.w3.org/2000/svg"
   xmlns:svg="http://www.w3.org/2000/svg"><sodipodi:namedview
     id="namedview7"
     pagecolor="#505050"
     bordercolor="#ffffff"
     borderopacity="1"
     inkscape:showpageshadow="0"
     inkscape:pageopacity="0"
     inkscape:pagecheckerboard="1"
     inkscape:deskcolor="#505050"
     inkscape:document-units="mm"
     showgrid="false"
     inkscape:zoom="0.60326076"
     inkscape:cx="48.072081"
     inkscape:cy="96.144162"
     inkscape:window-width="1366"
     inkscape:window-height="705"
     inkscape:window-x="-8"
     inkscape:window-y="-8"
     inkscape:window-maximized="1"
     inkscape:current-layer="layer1" /><defs
     id="defs2"><inkscape:path-effect
       effect="fillet_chamfer"
       id="path-effect19604"
       is_visible="true"
       lpeversion="1"
       nodesatellites_param="F,0,0,1,0,3.175,0,1 @ F,0,0,1,0,3.175,0,1 @ F,0,0,1,0,3.175,0,1"
       unit="px"
       method="auto"
       mode="F"
       radius="12"
       chamfer_steps="1"
       flexible="false"
       use_knot_distance="true"
       apply_no_radius="true"
       apply_with_radius="true"
       only_selected="false"
       hide_knots="false" /><inkscape:path-effect
       effect="fillet_chamfer"
       id="path-effect14146"
       is_visible="true"
       lpeversion="1"
       nodesatellites_param="F,0,0,1,0,3.175,0,1 @ F,0,0,1,0,3.175,0,1 @ F,0,0,1,0,3.175,0,1"
       unit="px"
       method="auto"
       mode="F"
       radius="12"
       chamfer_steps="1"
       flexible="false"
       use_knot_distance="true"
       apply_no_radius="true"
       apply_with_radius="true"
       only_selected="false"
       hide_knots="false" /></defs><g
     inkscape:label="Layer 1"
     inkscape:groupmode="layer"
     id="layer1"
     transform="translate(-76.295143,-201.50394)"><path
       id="path18471"
       style="opacity:1;fill:#9e94a5;fill-opacity:1;stroke-width:3.46547;stroke-linecap:round;stroke-linejoin:round;paint-order:stroke fill markers;stop-color:#000000"
       d="m 76.295143,217.59354 v 2.58279 c 2.140213,2.05692 4.843197,4.08393 4.418852,6.19755 0.621639,3.3062 1.844745,6.11248 3.425114,8.62066 l 9.249048,1.63143 13.156823,6.47454 4.57594,10.57662 -0.663,13.63017 10.42882,14.59704 0.44906,0.66198 -8.63719,-14.84716 2.83083,-13.63896 -4.2106,-10.47584 2.24018,-13.04985 -1.4671,-6.33243 0.36742,6.85642 -3.42614,8.10855 -15.241967,-6.9696 -7.890992,-0.72192 c -2.189267,-1.4465 -2.25869,-4.95262 -2.574519,-8.21913 -0.58057,-2.51884 -4.715863,-3.60842 -7.030579,-5.68286 z" /><path
       id="path17653"
       style="opacity:1;fill:#26232c;fill-opacity:1;stroke-width:3.46547;stroke-linecap:round;stroke-linejoin:round;paint-order:stroke fill markers;stop-color:#000000"
       d="m 76.295143,216.00604 v 2.58279 c 2.140213,2.05692 4.843197,4.08393 4.418852,6.19755 0.621639,3.3062 1.844745,6.11248 3.425114,8.62066 l 9.249048,1.63143 13.156823,6.47454 4.57594,10.57662 -0.663,13.63017 10.42882,14.59704 0.44906,0.66198 -8.63719,-14.84716 2.83083,-13.63896 -4.2106,-10.47584 2.24018,-13.04985 -1.4671,-6.33243 0.36742,6.85642 -3.42614,8.10855 -15.241967,-6.9696 -7.890992,-0.72192 c -2.189267,-1.4465 -2.25869,-4.95262 -2.574519,-8.21913 -0.58057,-2.51884 -4.715863,-3.60842 -7.030579,-5.68286 z" /></g></svg>
