<?xml version="1.0" encoding="UTF-8" standalone="no"?>
<!-- Created with Inkscape (http://www.inkscape.org/) -->

<svg
   width="59.753681mm"
   height="60.265537mm"
   viewBox="0 0 59.753683 60.265539"
   version="1.1"
   id="svg5"
   xml:space="preserve"
   inkscape:version="1.2 (dc2aedaf03, 2022-05-15)"
   sodipodi:docname="Cracks Texture Bottom.svg"
   inkscape:export-filename="Cracks Texture.png"
   inkscape:export-xdpi="96"
   inkscape:export-ydpi="96"
   xmlns:inkscape="http://www.inkscape.org/namespaces/inkscape"
   xmlns:sodipodi="http://sodipodi.sourceforge.net/DTD/sodipodi-0.dtd"
   xmlns="http://www.w3.org/2000/svg"
   xmlns:svg="http://www.w3.org/2000/svg"><sodipodi:namedview
     id="namedview7"
     pagecolor="#505050"
     bordercolor="#ffffff"
     borderopacity="1"
     inkscape:showpageshadow="0"
     inkscape:pageopacity="0"
     inkscape:pagecheckerboard="1"
     inkscape:deskcolor="#505050"
     inkscape:document-units="mm"
     showgrid="false"
     inkscape:zoom="1.0453155"
     inkscape:cx="42.570879"
     inkscape:cy="90.881652"
     inkscape:window-width="1366"
     inkscape:window-height="705"
     inkscape:window-x="-8"
     inkscape:window-y="-8"
     inkscape:window-maximized="1"
     inkscape:current-layer="layer1" /><defs
     id="defs2"><inkscape:path-effect
       effect="fillet_chamfer"
       id="path-effect19604"
       is_visible="true"
       lpeversion="1"
       nodesatellites_param="F,0,0,1,0,3.175,0,1 @ F,0,0,1,0,3.175,0,1 @ F,0,0,1,0,3.175,0,1"
       unit="px"
       method="auto"
       mode="F"
       radius="12"
       chamfer_steps="1"
       flexible="false"
       use_knot_distance="true"
       apply_no_radius="true"
       apply_with_radius="true"
       only_selected="false"
       hide_knots="false" /><inkscape:path-effect
       effect="fillet_chamfer"
       id="path-effect14146"
       is_visible="true"
       lpeversion="1"
       nodesatellites_param="F,0,0,1,0,3.175,0,1 @ F,0,0,1,0,3.175,0,1 @ F,0,0,1,0,3.175,0,1"
       unit="px"
       method="auto"
       mode="F"
       radius="12"
       chamfer_steps="1"
       flexible="false"
       use_knot_distance="true"
       apply_no_radius="true"
       apply_with_radius="true"
       only_selected="false"
       hide_knots="false" /></defs><g
     inkscape:label="Layer 1"
     inkscape:groupmode="layer"
     id="layer1"
     transform="translate(-118.18511,-228.95613)"><path
       id="path3324"
       style="display:inline;opacity:1;fill:#9e94a5;fill-opacity:1;stroke-width:3.46547;stroke-linecap:round;stroke-linejoin:round;paint-order:stroke fill markers;stop-color:#000000"
       d="m 124.82913,231.64074 1.71824,13.92887 -0.21445,0.0103 c 0.0915,0.15092 0.18175,0.3015 0.2713,0.45216 l 0.0475,0.38499 0.14883,-0.0512 c 2.45792,4.19719 4.14641,8.28431 4.40076,12.1667 l -3.99149,0.79995 -6.69571,-8.88524 5.35885,10.34355 5.35936,0.31833 c 2.14022,2.05691 4.84319,4.08394 4.41885,6.19755 0.62164,3.3062 1.84476,6.1125 3.42511,8.62067 l 9.24905,1.63142 13.15682,6.47454 2.24483,5.18832 h 4.41213 l -1.88309,-4.68447 6.17585,-8.12044 0.51315,-0.22789 c -0.063,-0.0671 -0.12476,-0.13465 -0.18655,-0.20206 l 0.0253,-0.0331 c -0.0216,-0.002 -0.04,-0.004 -0.0615,-0.006 -2.05418,-2.25041 -3.51233,-4.64984 -8.22637,-6.23528 2.81171,-6.63948 3.71064,-8.83269 4.10569,-9.75186 0.39505,-0.91916 2.41429,-2.76607 2.40089,-3.8101 l -3.00808,3.21066 -6.56291,9.39529 c 2.08355,1.69805 4.04213,3.45877 5.67407,5.38262 0.0354,0.17521 0.18599,0.36909 0.46561,0.56482 0.71838,0.89727 1.36375,1.83117 1.91667,2.8112 l -5.51749,2.60501 -15.24196,-6.9696 -7.89099,-0.72192 c -2.18926,-1.4465 -2.25869,-4.95264 -2.57452,-8.21914 -0.0488,-0.21172 -0.12482,-0.41269 -0.22066,-0.60565 -2.85995,-7.50608 -9.65156,-12.4958 -8.2982,-18.18907 l -0.21756,0.0103 0.0351,-0.0119 c -3.54082,-4.19799 -3.20215,-9.17221 -4.73253,-13.77229 z" /><path
       id="path17653"
       style="opacity:1;fill:#26232c;fill-opacity:1;stroke-width:3.46547;stroke-linecap:round;stroke-linejoin:round;paint-order:stroke fill markers;stop-color:#000000"
       d="m 124.82913,230.58241 1.71824,13.92887 -0.21445,0.0103 c 0.0915,0.15093 0.18175,0.30151 0.2713,0.45217 l 0.0475,0.38499 0.14883,-0.0512 c 2.45793,4.19719 4.14641,8.2843 4.40076,12.1667 l -3.99149,0.79995 -6.69571,-8.88525 5.35885,10.34356 5.35936,0.31833 c 2.14022,2.05691 4.84319,4.08393 4.41885,6.19755 0.62164,3.3062 1.84475,6.11249 3.42511,8.62066 l 9.24905,1.63143 13.15682,6.47454 2.70268,6.24665 h 4.37958 l -2.30839,-5.74281 6.17585,-8.12043 0.51315,-0.22789 c -0.063,-0.0671 -0.12476,-0.13465 -0.18655,-0.20206 l 0.0253,-0.0331 c -0.0216,-0.002 -0.04,-0.004 -0.0615,-0.006 -2.05418,-2.25041 -3.51233,-4.64984 -8.22637,-6.23528 2.81171,-6.63949 3.71064,-8.83269 4.10569,-9.75186 0.39505,-0.91916 2.41429,-2.76607 2.40089,-3.8101 l -3.00808,3.21065 -6.56291,9.39529 c 2.08355,1.69805 4.04213,3.45877 5.67407,5.38262 0.0354,0.17521 0.18599,0.3691 0.46561,0.56483 0.71839,0.89727 1.36375,1.83116 1.91667,2.81119 l -5.51749,2.60501 -15.24196,-6.9696 -7.89099,-0.72192 c -2.18926,-1.4465 -2.25869,-4.95263 -2.57452,-8.21913 -0.0488,-0.21172 -0.12482,-0.41269 -0.22066,-0.60565 -2.85995,-7.50609 -9.65156,-12.49579 -8.2982,-18.18907 l -0.21756,0.0103 0.0351,-0.0119 c -3.54082,-4.19799 -3.20215,-9.17221 -4.73253,-13.77229 z" /></g></svg>
