<?xml version="1.0" encoding="UTF-8" standalone="no"?>
<!-- Created with Inkscape (http://www.inkscape.org/) -->

<svg
   width="44.297451mm"
   height="44.297451mm"
   viewBox="0 0 44.297452 44.297452"
   version="1.1"
   id="svg5"
   xml:space="preserve"
   inkscape:version="1.2 (dc2aedaf03, 2022-05-15)"
   sodipodi:docname="Cracks Texture Top.svg"
   inkscape:export-filename="Cracks Texture.png"
   inkscape:export-xdpi="96"
   inkscape:export-ydpi="96"
   xmlns:inkscape="http://www.inkscape.org/namespaces/inkscape"
   xmlns:sodipodi="http://sodipodi.sourceforge.net/DTD/sodipodi-0.dtd"
   xmlns="http://www.w3.org/2000/svg"
   xmlns:svg="http://www.w3.org/2000/svg"><sodipodi:namedview
     id="namedview7"
     pagecolor="#505050"
     bordercolor="#ffffff"
     borderopacity="1"
     inkscape:showpageshadow="0"
     inkscape:pageopacity="0"
     inkscape:pagecheckerboard="1"
     inkscape:deskcolor="#505050"
     inkscape:document-units="mm"
     showgrid="false"
     inkscape:zoom="0.60326076"
     inkscape:cx="-114.3784"
     inkscape:cy="228.7568"
     inkscape:window-width="1366"
     inkscape:window-height="705"
     inkscape:window-x="-8"
     inkscape:window-y="-8"
     inkscape:window-maximized="1"
     inkscape:current-layer="layer1" /><defs
     id="defs2" /><g
     inkscape:label="Layer 1"
     inkscape:groupmode="layer"
     id="layer1"
     transform="translate(-119.34576,-156.7063)"><path
       id="path19232"
       style="opacity:1;fill:#9e94a5;fill-opacity:1;stroke-width:2.60333;stroke-linecap:round;stroke-linejoin:round;paint-order:stroke fill markers;stop-color:#000000"
       d="m 154.96114,156.7063 -2.58434,4.06125 -9.44386,0.12041 -7.60781,15.32258 c -0.90905,1.83077 -3.24898,2.40651 -3.40806,1.9823 l -4.41627,5.05758 -2.54041,2.64273 0.46199,3.64525 0.46457,-3.36051 2.25361,-1.81385 5.21725,-4.49998 c 1.90004,-0.046 2.97932,-0.71273 4.75061,-0.14314 1.77131,0.56958 4.23448,2.37586 4.23851,2.33784 l -0.69712,4.85345 9.8764,5.09995 -8.14782,-5.23948 1.42678,-7.35304 c -1.02676,-1.31591 -3.755,-2.81577 -5.18004,-4.26692 0.10717,-3.85852 2.09813,-9.30662 4.18269,-12.55737 l 9.71465,-1.36374 2.37505,-4.52531 z" /><path
       id="rect11703"
       style="opacity:1;fill:#26232c;fill-opacity:1;stroke-width:2.60333;stroke-linecap:round;stroke-linejoin:round;paint-order:stroke fill markers;stop-color:#000000"
       d="m 154.2878,156.7063 -1.911,3.00292 -9.44386,0.1204 -7.60781,15.32258 c -0.90905,1.83078 -3.24898,2.40652 -3.40806,1.98231 l -4.41627,5.05757 -2.54041,2.64274 0.46199,3.64525 0.46457,-3.36052 2.25361,-1.81384 5.21725,-4.49998 c 1.90004,-0.046 2.97932,-0.71274 4.75061,-0.14315 1.77131,0.56958 4.23448,2.37586 4.23851,2.33784 l -0.69712,4.85345 9.8764,5.09995 -8.14782,-5.23947 1.42678,-7.35304 c -1.02676,-1.31591 -3.755,-2.81578 -5.18004,-4.26692 0.10717,-3.85852 2.09813,-9.30662 4.18269,-12.55738 l 9.71465,-1.36374 1.81953,-3.46697 z" /></g></svg>
