<?xml version="1.0" encoding="UTF-8" standalone="no"?>
<!-- Created with Inkscape (http://www.inkscape.org/) -->

<svg
   width="120.91474mm"
   height="123.10548mm"
   viewBox="0 0 120.91474 123.10548"
   version="1.1"
   id="svg12990"
   xml:space="preserve"
   inkscape:version="1.2 (dc2aedaf03, 2022-05-15)"
   sodipodi:docname="Spiderweb.svg"
   xmlns:inkscape="http://www.inkscape.org/namespaces/inkscape"
   xmlns:sodipodi="http://sodipodi.sourceforge.net/DTD/sodipodi-0.dtd"
   xmlns="http://www.w3.org/2000/svg"
   xmlns:svg="http://www.w3.org/2000/svg"><sodipodi:namedview
     id="namedview12992"
     pagecolor="#505050"
     bordercolor="#ffffff"
     borderopacity="1"
     inkscape:showpageshadow="0"
     inkscape:pageopacity="0"
     inkscape:pagecheckerboard="1"
     inkscape:deskcolor="#505050"
     inkscape:document-units="mm"
     showgrid="false"
     inkscape:zoom="0.82985482"
     inkscape:cx="330.17824"
     inkscape:cy="171.11427"
     inkscape:window-width="1366"
     inkscape:window-height="705"
     inkscape:window-x="-8"
     inkscape:window-y="-8"
     inkscape:window-maximized="1"
     inkscape:current-layer="layer1" /><defs
     id="defs12987" /><g
     inkscape:label="Layer 1"
     inkscape:groupmode="layer"
     id="layer1"
     transform="translate(-74.181756,0.03669722)"><path
       style="fill:none;stroke:#dddbde;stroke-width:1.565;stroke-linecap:butt;stroke-linejoin:miter;stroke-dasharray:none;stroke-opacity:1"
       d="M 74.964256,0.75279635 V 112.31996 c 7.119876,-7.45664 16.626429,-9.43921 25.546994,-4.29106 13.29679,-8.819898 27.29675,-14.006818 45.92666,4.72774 -4.61668,-22.462395 17.23541,-21.892561 34.9222,-25.482781 -9.76755,-14.907565 -10.75935,-29.382873 5.60132,-46.108787 -4.17886,-12.348953 -7.88975,-25.327453 -2.38552,-39.4369685 z"
       id="path14160"
       sodipodi:nodetypes="cccccccc" /><path
       style="fill:none;stroke:#dddbde;stroke-width:1.565;stroke-linecap:butt;stroke-linejoin:miter;stroke-dasharray:none;stroke-opacity:1"
       d="m 74.964256,92.367415 c 11.134777,-1.038356 18.089679,2.847847 23.938219,8.857805 12.044495,-12.454031 25.360065,-5.832488 37.404555,-4.677998 4.78517,-16.562049 17.40348,-19.807756 31.06803,-21.27485 -4.90759,-14.009395 -1.16292,-26.399585 12.83245,-36.808867 -8.74456,-9.823503 -10.80549,-22.579493 -4.25368,-36.9019275"
       id="path14162"
       sodipodi:nodetypes="cccccc" /><path
       style="fill:none;stroke:#dddbde;stroke-width:1.565;stroke-linecap:butt;stroke-linejoin:miter;stroke-dasharray:none;stroke-opacity:1"
       d="m 129.24884,86.191717 c 2.51981,-11.690942 9.68847,-21.476973 27.29495,-20.743597 0.22742,-12.734656 5.39639,-22.090033 11.75336,-31.32209 -4.14608,-10.468577 -11.24324,-22.009571 -9.14677,-32.478147"
       id="path14164"
       sodipodi:nodetypes="cccc" /><path
       style="fill:none;stroke:#dddbde;stroke-width:1.565;stroke-linecap:butt;stroke-linejoin:miter;stroke-dasharray:none;stroke-opacity:1"
       d="M 103.88596,122.89206 75.752324,1.5366838 146.43791,112.75664"
       id="path14166"
       sodipodi:nodetypes="ccc" /><path
       style="fill:none;stroke:#dddbde;stroke-width:1.565;stroke-linecap:butt;stroke-linejoin:miter;stroke-dasharray:none;stroke-opacity:1"
       d="M 187.89277,92.832566 78.541669,0.8053888"
       id="path14168"
       sodipodi:nodetypes="cc" /><path
       style="fill:none;stroke:#dddbde;stroke-width:1.365;stroke-linecap:butt;stroke-linejoin:miter;stroke-dasharray:none;stroke-opacity:1"
       d="m 74.964256,68.500243 c 4.4493,-1.806856 11.820431,0.101555 17.866799,5.995439 14.740455,-7.679637 20.972085,-4.72324 27.665085,-2.343562"
       id="path14170"
       sodipodi:nodetypes="ccc" /><path
       style="fill:none;stroke:#dddbde;stroke-width:1.565;stroke-linecap:butt;stroke-linejoin:miter;stroke-dasharray:none;stroke-opacity:1"
       d="M 82.514647,0.81997853 194.8121,44.62956"
       id="path14172"
       sodipodi:nodetypes="cc" /><path
       style="fill:none;stroke:#dddbde;stroke-width:1.365;stroke-linecap:round;stroke-linejoin:round;stroke-dasharray:none;stroke-opacity:1;paint-order:stroke fill markers;stop-color:#000000"
       d="m 74.99004,50.979641 c 7.77386,-0.692616 11.301715,1.762639 13.532994,4.706363 7.292581,-3.554424 15.128066,-0.593963 22.963336,2.36387 4.68466,-7.985948 11.9646,-10.970259 19.93048,-13.487495 2.03482,-7.921921 1.15674,-18.332785 11.44112,-20.067537 -4.85425,-5.830207 -4.4104,-15.1395975 -3.22341,-23.1666195"
       id="path14902"
       sodipodi:nodetypes="cccccc" /><path
       style="fill:none;stroke:#dddbde;stroke-width:1.365;stroke-linecap:round;stroke-linejoin:round;stroke-dasharray:none;stroke-opacity:1;paint-order:stroke fill markers;stop-color:#000000"
       d="M 149.05863,2.0118666 C 144.70466,12.232015 148.08494,20.01827 151.63189,27.52896"
       id="path14904"
       sodipodi:nodetypes="cc" /><path
       style="fill:none;stroke:#dddbde;stroke-width:1.265;stroke-linecap:round;stroke-linejoin:round;stroke-dasharray:none;stroke-opacity:1;paint-order:stroke fill markers;stop-color:#000000"
       d="m 130.94333,2.1996004 c -2.39726,5.7393806 -3.32999,12.1157316 -0.30895,17.8551116 -4.66179,2.812817 -10.01175,8.264616 -13.56511,13.294297 -5.89833,0.905028 -10.04116,3.452606 -15.3836,9.360643 -4.606965,-3.269363 -10.024495,-3.566636 -16.299501,-0.71982 -3.140424,-4.901784 -7.79885,-3.03897 -10.396129,-1.966159"
       id="path14906"
       sodipodi:nodetypes="cccccc" /><path
       style="fill:none;stroke:#dddbde;stroke-width:1.265;stroke-linecap:round;stroke-linejoin:round;stroke-dasharray:none;stroke-opacity:1;paint-order:stroke fill markers;stop-color:#000000"
       d="m 109.09092,1.5671004 c -2.55727,1.8292855 -3.81504,5.7957122 -3.3045,8.9884676 -2.71262,2.391399 -3.4349,6.109694 -4.14342,9.837158 -6.153025,-0.756163 -9.697505,1.096214 -10.720785,5.469786 -4.897474,-3.032833 -7.131375,-1.330425 -8.992911,1.033965 -1.523248,-0.805324 -5.120393,-2.090536 -6.965048,-0.324601"
       id="path14908"
       sodipodi:nodetypes="cccccc" /><path
       style="opacity:1;fill:none;stroke:#dddbde;stroke-width:1.365;stroke-linecap:round;stroke-linejoin:round;stroke-dasharray:none;stroke-opacity:1;paint-order:stroke fill markers;stop-color:#000000"
       d="M 74.864256,0.64580278 H 185.21486"
       id="path17230" /></g></svg>
