<?xml version="1.0" encoding="UTF-8" standalone="no"?>
<!-- Created with Inkscape (http://www.inkscape.org/) -->

<svg
   width="132.51537mm"
   height="132.51537mm"
   viewBox="0 0 132.51537 132.51537"
   version="1.1"
   id="svg5"
   xml:space="preserve"
   inkscape:version="1.2 (dc2aedaf03, 2022-05-15)"
   sodipodi:docname="Spot Texture_Multiply3.svg"
   inkscape:export-filename="Spot Texture_Multiply4a.png"
   inkscape:export-xdpi="96"
   inkscape:export-ydpi="96"
   xmlns:inkscape="http://www.inkscape.org/namespaces/inkscape"
   xmlns:sodipodi="http://sodipodi.sourceforge.net/DTD/sodipodi-0.dtd"
   xmlns="http://www.w3.org/2000/svg"
   xmlns:svg="http://www.w3.org/2000/svg"><sodipodi:namedview
     id="namedview7"
     pagecolor="#505050"
     bordercolor="#ffffff"
     borderopacity="1"
     inkscape:showpageshadow="0"
     inkscape:pageopacity="0"
     inkscape:pagecheckerboard="1"
     inkscape:deskcolor="#505050"
     inkscape:document-units="mm"
     showgrid="false"
     inkscape:zoom="0.76330954"
     inkscape:cx="260.70682"
     inkscape:cy="290.83876"
     inkscape:window-width="1366"
     inkscape:window-height="705"
     inkscape:window-x="-8"
     inkscape:window-y="-8"
     inkscape:window-maximized="1"
     inkscape:current-layer="layer1" /><defs
     id="defs2" /><g
     inkscape:label="Layer 1"
     inkscape:groupmode="layer"
     id="layer1"
     transform="translate(-76.295143,-156.7063)"><circle
       style="mix-blend-mode:multiply;fill:#b8b8b8;fill-opacity:1;fill-rule:evenodd;stroke-width:0.175403"
       id="circle9742"
       cx="163.99974"
       cy="241.44112"
       r="3.7194493" /><path
       id="circle9744"
       style="mix-blend-mode:multiply;fill:#b8b8b8;fill-rule:evenodd;stroke-width:0.109196"
       d="m 125.29927,194.5611 c 0,1.38213 -0.9592,1.52773 -2.14242,1.52773 -1.18323,0 -2.73852,-0.70265 -2.73853,-2.08478 0,-1.38214 1.5553,-1.94553 2.73853,-1.94553 1.18322,0 2.14242,1.12044 2.14242,2.50258 z"
       sodipodi:nodetypes="sssss" /><ellipse
       style="mix-blend-mode:multiply;fill:#b8b8b8;fill-opacity:1;fill-rule:evenodd;stroke-width:0.208293"
       id="circle9738"
       cx="180.57355"
       cy="130.48425"
       rx="3.8511043"
       ry="5.0657816"
       transform="rotate(19.860776)" /><ellipse
       style="mix-blend-mode:multiply;fill:#b8b8b8;fill-opacity:1;fill-rule:evenodd;stroke-width:0.091194"
       id="circle6619"
       cx="185.1299"
       cy="213.19762"
       rx="1.6418892"
       ry="2.2775736"
       transform="matrix(0.93353581,0.35848415,-0.36362678,0.93154472,0,0)" /><path
       id="path7383"
       style="mix-blend-mode:multiply;fill:#b8b8b8;fill-rule:evenodd;stroke-width:0.269307"
       d="m 109.02875,275.53335 c -1.38472,3.80247 -8.37671,6.08071 -11.588385,3.61873 -1.263137,-0.96829 -0.661985,-3.42695 0.19059,-4.7709 1.609317,-2.53684 5.090985,-4.93649 7.993845,-4.16262 2.03281,0.54192 4.12383,3.33799 3.40395,5.31479 z"
       sodipodi:nodetypes="aaaaa" /><path
       id="ellipse371"
       style="mix-blend-mode:multiply;fill:#b8b8b8;fill-rule:evenodd;stroke-width:0.189698"
       d="m 202.31872,205.35547 c 10e-6,1.78747 -2.71399,1.55962 -5.43831,1.98676 -3.06484,0.48053 -4.46163,-0.84139 -4.9996,-3.2365 -0.79956,-3.55978 1.37752,-6.50628 4.9996,-3.23648 2.00117,1.80653 5.43831,2.69876 5.43831,4.48622 z"
       sodipodi:nodetypes="sssss" /><ellipse
       style="mix-blend-mode:multiply;fill:#b8b8b8;fill-opacity:1;fill-rule:evenodd;stroke-width:0.0745135"
       id="ellipse480"
       cx="270.83047"
       cy="-125.47688"
       rx="1.4163638"
       ry="1.762704"
       transform="matrix(0.07606724,0.99710269,-0.99959022,-0.02862505,0,0)" /><ellipse
       style="mix-blend-mode:multiply;fill:#b8b8b8;fill-opacity:1;fill-rule:evenodd;stroke-width:0.0745135"
       id="ellipse482"
       cx="170.73979"
       cy="-160.83511"
       rx="1.4163638"
       ry="1.762704"
       transform="matrix(0.07606724,0.99710269,-0.99959022,-0.02862505,0,0)" /></g></svg>
