<?xml version="1.0" encoding="UTF-8" standalone="no"?>
<!-- Created with Inkscape (http://www.inkscape.org/) -->

<svg
   width="132.51537mm"
   height="132.51537mm"
   viewBox="0 0 132.51537 132.51537"
   version="1.1"
   id="svg5"
   xml:space="preserve"
   inkscape:version="1.2 (dc2aedaf03, 2022-05-15)"
   sodipodi:docname="Spot Texture_Multiply4.svg"
   inkscape:export-filename="Spot Texture_Multiply4a.png"
   inkscape:export-xdpi="96"
   inkscape:export-ydpi="96"
   xmlns:inkscape="http://www.inkscape.org/namespaces/inkscape"
   xmlns:sodipodi="http://sodipodi.sourceforge.net/DTD/sodipodi-0.dtd"
   xmlns="http://www.w3.org/2000/svg"
   xmlns:svg="http://www.w3.org/2000/svg"><sodipodi:namedview
     id="namedview7"
     pagecolor="#505050"
     bordercolor="#ffffff"
     borderopacity="1"
     inkscape:showpageshadow="0"
     inkscape:pageopacity="0"
     inkscape:pagecheckerboard="1"
     inkscape:deskcolor="#505050"
     inkscape:document-units="mm"
     showgrid="false"
     inkscape:zoom="0.76330954"
     inkscape:cx="260.70682"
     inkscape:cy="290.83876"
     inkscape:window-width="1366"
     inkscape:window-height="705"
     inkscape:window-x="-8"
     inkscape:window-y="-8"
     inkscape:window-maximized="1"
     inkscape:current-layer="layer1" /><defs
     id="defs2" /><g
     inkscape:label="Layer 1"
     inkscape:groupmode="layer"
     id="layer1"
     transform="translate(-76.295143,-156.7063)"><circle
       style="mix-blend-mode:multiply;fill:#b8b8b8;fill-opacity:1;fill-rule:evenodd;stroke-width:0.175403"
       id="circle9742"
       cx="119.28493"
       cy="247.33376"
       r="3.7194493" /><path
       id="circle9744"
       style="mix-blend-mode:multiply;fill:#b8b8b8;fill-rule:evenodd;stroke-width:0.109196"
       d="m 185.26566,165.7911 c 0,1.38213 -0.9592,1.52773 -2.14242,1.52773 -1.18323,0 -2.73852,-0.70265 -2.73853,-2.08478 0,-1.38214 1.5553,-1.94553 2.73853,-1.94553 1.18322,0 2.14242,1.12044 2.14242,2.50258 z"
       sodipodi:nodetypes="sssss" /><ellipse
       style="mix-blend-mode:multiply;fill:#b8b8b8;fill-opacity:1;fill-rule:evenodd;stroke-width:0.208293"
       id="circle9738"
       cx="259.23233"
       cy="101.33397"
       rx="3.8511043"
       ry="5.0657816"
       transform="rotate(19.860776)" /><ellipse
       style="mix-blend-mode:multiply;fill:#b8b8b8;fill-opacity:1;fill-rule:evenodd;stroke-width:0.091194"
       id="circle6619"
       cx="208.68347"
       cy="175.48195"
       rx="1.6418892"
       ry="2.2775736"
       transform="matrix(0.93353581,0.35848415,-0.36362678,0.93154472,0,0)" /><path
       id="path7383"
       style="mix-blend-mode:multiply;fill:#b8b8b8;fill-rule:evenodd;stroke-width:0.269307"
       d="m 194.99213,267.21431 c -1.38472,3.80247 -8.37671,6.08071 -11.58839,3.61873 -1.26313,-0.96829 -0.66198,-3.42695 0.19059,-4.7709 1.60932,-2.53684 5.09099,-4.93649 7.99385,-4.16262 2.03281,0.54192 4.12383,3.33799 3.40395,5.31479 z"
       sodipodi:nodetypes="aaaaa" /><ellipse
       style="mix-blend-mode:multiply;fill:#b8b8b8;fill-opacity:1;fill-rule:evenodd;stroke-width:0.0745135"
       id="ellipse480"
       cx="166.86075"
       cy="-114.31654"
       rx="1.4163638"
       ry="1.762704"
       transform="matrix(0.07606724,0.99710269,-0.99959022,-0.02862505,0,0)" /><ellipse
       style="mix-blend-mode:multiply;fill:#b8b8b8;fill-opacity:1;fill-rule:evenodd;stroke-width:0.208293"
       id="ellipse508"
       cx="134.56049"
       cy="146.36804"
       rx="3.8511043"
       ry="5.0657816"
       transform="rotate(19.860776)" /></g></svg>
