<svg id="Layer_1" data-name="Layer 1" xmlns="http://www.w3.org/2000/svg" viewBox="0 0 300 345"><g id="assets"><g id="item"><rect x="25.21" y="274.15" width="43.87" height="63.47" transform="translate(-51.77 12.62) rotate(-9.88)" fill="#8c141c"/><path d="M61.69,273.17l10.2,58.59L32.61,338.6,22.41,280l39.28-6.84m3.25-4.63-3.94.69-39.28,6.84-3.94.68.69,3.94,10.2,58.59.68,3.94,3.94-.68,39.28-6.84,4-.69-.69-3.94-10.2-58.59-.69-3.94Z" fill="#660710"/><path d="M24.83,341.83a10.19,10.19,0,0,1-10-8.45L5.66,280.89l14.75-2.57L31.3,340.85l-4.71.82a9.52,9.52,0,0,1-1.76.16Z" fill="#8c141c"/><path d="M18.78,280.64,29,339.23l-2.74.47a7.55,7.55,0,0,1-1.41.13A8.19,8.19,0,0,1,16.77,333L8,282.52l10.81-1.88M22,276l-3.94.69L7.28,278.58l-3.94.69L4,283.21l8.79,50.51a12.17,12.17,0,0,0,12,10.11,11.39,11.39,0,0,0,2.1-.19l2.74-.47,3.94-.69-.69-3.94L22.72,280,22,276Z" fill="#660710"/><path d="M25.8,277h0L15,278.88l8.32,47.78A11,11,0,0,0,36,335.59h0l35.48-6.18-10.2-58.59Z" fill="#ebf7fd"/><rect x="22.39" y="257.96" width="43.87" height="63.47" transform="translate(-49.04 11.9) rotate(-9.88)" fill="#ce2135"/><path d="M58.87,257l10.2,58.59-39.28,6.84-10.2-58.59L58.87,257m3.25-4.63-3.94.69L18.9,259.88l-3.94.68.69,3.94,10.2,58.59.69,3.94,3.94-.68,39.28-6.84,3.94-.69L73,314.88l-10.2-58.59-.69-3.94Z" fill="#660710"/><path d="M4.59,274.75A10.19,10.19,0,0,1,12.88,263l4.71-.83,10.89,62.53-14.76,2.57Z" fill="#ce2135"/><path d="M16,264.45,26.16,323l-10.81,1.88L6.56,274.4a8.18,8.18,0,0,1,6.66-9.47l2.74-.48m3.26-4.63-3.94.69-2.74.47a12.2,12.2,0,0,0-9.93,14.11l8.8,50.52.69,3.94,3.94-.69L26.85,327l3.94-.69-.68-3.94L19.9,263.76l-.68-3.94Z" fill="#660710"/></g></g></svg>