<svg id="Layer_1" data-name="Layer 1" xmlns="http://www.w3.org/2000/svg" viewBox="0 0 300 345"><path d="M68.27,282.39l3.23,50.28a6.49,6.49,0,0,1-5,6.43,7.55,7.55,0,0,1-2,.27,6.24,6.24,0,0,1-5.61-3.18L35.57,291.56l32.7-9.17m3.67-5.18-4.75,1.33-32.7,9.17L29.74,289,32,293.42,55.4,338a10.2,10.2,0,0,0,9.15,5.33,11.35,11.35,0,0,0,3.06-.42,10.51,10.51,0,0,0,7.88-10.54l-3.23-50.27-.32-4.93Z" fill="#895a21"/><path d="M34.8,248.14a24.62,24.62,0,1,1-6.65.92,24.61,24.61,0,0,1,6.65-.92m0-4h0A28.6,28.6,0,1,0,62.32,265,28.5,28.5,0,0,0,34.8,244.14Z" fill="#b53d7f"/><path d="M58.48,241.5a24.6,24.6,0,0,1,6.63,48.29,20.86,20.86,0,0,1-5.59.81c-9.85,0-16.19-8.27-19.31-19.38-3.66-13.08-1.46-25.13,11.62-28.8a24.68,24.68,0,0,1,6.65-.92m0-4h0a28.61,28.61,0,0,0-7.73,1.07c-13.84,3.88-19.22,16.49-14.39,33.73,4,14.17,12.41,22.3,23.16,22.3a24.77,24.77,0,0,0,6.67-1,28.6,28.6,0,0,0-7.71-56.14Z" fill="#4c281b"/><path d="M42.14,227.43a24.61,24.61,0,0,1,23.67,18c3.67,13.08-6.31,18.28-19.39,22a51.91,51.91,0,0,1-13.49,2.32c-6.87,0-12.18-2.76-14.49-11a24.62,24.62,0,0,1,23.7-31.24m0-4v0h0a28.61,28.61,0,0,0-27.55,36.32c2.59,9.24,8.76,13.92,18.34,13.92A55,55,0,0,0,47.5,271.2c8.5-2.38,13.94-5,17.61-8.36,5.13-4.75,6.67-11,4.55-18.52a28.69,28.69,0,0,0-27.52-20.89Z" fill="#c69054"/><path d="M44,224.72c14.12,0,18.47,11.15,14.65,12.37a4.9,4.9,0,0,1-1.51.23c-3.28,0-6.63-2.89-8.8-2.89a1.7,1.7,0,0,0-1.39.64c-2.12,2.53,3.85,10.58-1.49,12.33a3.2,3.2,0,0,1-1,.17c-4,0-4.94-8.53-7.06-8.53a1.18,1.18,0,0,0-.72.31c-2.86,2.38,2,16.66-4.45,16.66h-.07c-6.51-.1.22-18-2.66-18h-.08c-3.09.34-4.14,1-4.57,6.41-.26,3.2-2.82,5.59-5.06,5.59-1.55,0-3-1.14-3.32-3.95-.89-6.86,4.33-16.06,18.39-20A34,34,0,0,1,44,224.72m0-4a38.25,38.25,0,0,0-10.24,1.51c-16.21,4.55-22.39,15.82-21.27,24.38.71,5.48,4.37,7.43,7.28,7.43a8.35,8.35,0,0,0,5.44-2.17,9.62,9.62,0,0,0,2,5.92A6.47,6.47,0,0,0,32.09,260h.13a6.91,6.91,0,0,0,5.07-2.07c2-2.07,2.46-5.11,2.51-8.21a6.69,6.69,0,0,0,4.65,1.84,7.13,7.13,0,0,0,2.26-.37,7,7,0,0,0,5-6.39,16.17,16.17,0,0,0-.62-5.09,14.35,14.35,0,0,0,6,1.6,8.9,8.9,0,0,0,2.73-.42c2.92-.93,4.53-3.84,4-7.24-1-6.27-8.27-12.94-19.87-12.94Z" fill="#4c1905"/><path d="M66.53,339.1h0a6.5,6.5,0,0,1-7.59-2.91L35.57,291.56l32.7-9.17,3.23,50.28A6.49,6.49,0,0,1,66.53,339.1Z" fill="#e4af62"/><path d="M42.7,305.17l1.1-.28a24.5,24.5,0,0,0,11.6-7.19,17.38,17.38,0,0,0,12.08.55c.6-.17,1.19-.37,1.77-.58l-1-15.28-32.7,9.17Z" fill="#cc9244"/><circle cx="34.78" cy="272.74" r="24.6" fill="#f5a9ca"/><path d="M59.35,271.51a25,25,0,0,0-.88-5.41,24.59,24.59,0,0,0-41-10.79,26.49,26.49,0,0,0,.79,10.57c4,14.22,16.2,13.42,30.42,9.43A68.83,68.83,0,0,0,59.35,271.51Z" fill="#ea8bb8"/><path d="M82.15,259.47a24.59,24.59,0,0,1-17,30.32c-13.08,3.66-21.23-5.49-24.9-18.57s-1.46-25.13,11.62-28.8A24.6,24.6,0,0,1,82.15,259.47Z" fill="#985b3c"/><path d="M40.21,271.22a46.64,46.64,0,0,0,2,5.67c2.09-.42,4.25-1,6.45-1.58,14.23-4,25.08-9.65,21.09-23.87a26.76,26.76,0,0,0-4.46-9,24.48,24.48,0,0,0-13.45-.05C38.75,246.09,36.55,258.14,40.21,271.22Z" fill="#824429"/><path d="M65.81,245.4c3.67,13.08-6.31,18.28-19.39,22s-24.31,4.4-28-8.68A24.6,24.6,0,0,1,65.81,245.4Z" fill="#ffead0"/><path d="M34.85,226.09c-14.06,3.94-19.28,13.14-18.39,20s8,3.78,8.38-1.64,1.48-6.07,4.57-6.41-3.83,17.87,2.74,18,1.65-14.27,4.52-16.66,3.45,9.8,8.8,8.05-.63-9.8,1.49-12.33,7.16,3.47,11.7,2S56.17,220.11,34.85,226.09Z" fill="#823512"/></svg>