<svg id="Layer_1" data-name="Layer 1" xmlns="http://www.w3.org/2000/svg" xmlns:xlink="http://www.w3.org/1999/xlink" viewBox="0 0 300 345"><defs><linearGradient id="linear-gradient" x1="58.78" y1="335.94" x2="58.78" y2="274.53" gradientTransform="translate(-38.42 11.37) rotate(-8.1)" gradientUnits="userSpaceOnUse"><stop offset="0" stop-color="#985b3c"/><stop offset="0.69" stop-color="#51291b"/></linearGradient></defs><g id="assets"><g id="item"><path d="M54.94,228.92l-1.49,7.8s3.66-4,8.47-4.67l1.64,5.14,4.49-.64c2.3-3.74,13.72-6.35,22.33-6.35,5.34,0,9.6,1,9.93,3.37a23,23,0,0,1,0,5.75,11.29,11.29,0,0,1,1.37,4l7.9,55.44.12.89,2.07,14.54a11.45,11.45,0,0,1-9.73,13l-18,2.55-35,5L31.2,337.25a11.26,11.26,0,0,1-1.63.11,11.45,11.45,0,0,1-11.33-9.84L16.17,313l-.13-.89L8.15,256.65a11.26,11.26,0,0,1,.15-4,25.54,25.54,0,0,1-1.54-5.74c-.66-4.6,12.86-8,22.71-8,4.05,0,7.47.58,9.05,1.88l4.66-.66c.86-3.85,3.53-10,11.76-11.17m5-4.75-5.54.79a17.23,17.23,0,0,0-14.3,11.53l-.68.1c-2.31-1.15-5.58-1.72-9.92-1.72-7.23,0-20.41,2-24.95,7.2a6.58,6.58,0,0,0-1.72,5.38A29.14,29.14,0,0,0,4.18,253a15.22,15.22,0,0,0,0,4.21l7.89,55.43.13.9,2.07,14.53a15.53,15.53,0,0,0,15.29,13.28,16,16,0,0,0,2.19-.15l18-2.56,35-5,18-2.55a15.47,15.47,0,0,0,13.12-17.49l-2.07-14.53-.12-.9-7.9-55.43a14.91,14.91,0,0,0-1.24-4.23,25.1,25.1,0,0,0-.15-5.53c-.64-4.52-5.31-6.81-13.89-6.81-7.08,0-18.93,1.76-24.1,6.35l-.56-1.72-1-3.21-3.34.47a16.46,16.46,0,0,0-2.28.51l.84-4.43Z" fill="#3f1c12"/><path d="M102.06,327.16,31.2,337.25a11.46,11.46,0,0,1-13-9.73L16,312.09l93.56-13.32,2.19,15.43A11.45,11.45,0,0,1,102.06,327.16Z" fill="url(#linear-gradient)"/><path d="M88.74,233.6l-25.18,3.59-1.64-5.14c-4.81.69-8.47,4.67-8.47,4.67l1.49-7.8c-8.23,1.17-10.9,7.32-11.76,11.17l-25.3,3.6a11.46,11.46,0,0,0-9.73,13l8,56.33a11.45,11.45,0,0,0,13,9.73L100,312.62a11.45,11.45,0,0,0,9.73-13l-8-56.33A11.46,11.46,0,0,0,88.74,233.6Z" fill="#985b3c"/><path d="M47.17,320.14,82,315.19H82c-4.4-7.55-11-13.26-19.55-12.05s-13.29,8.55-15.41,17Z" fill="#fbe2cd"/><rect x="47.94" y="317.6" width="35.31" height="14.68" transform="translate(-45.15 12.49) rotate(-8.1)" fill="#e7be99"/><path d="M81.61,309.1c4.36-6.57-11-39.76-23.67-38s-18,38.07-12.14,43.06S77.26,315.66,81.61,309.1Z" fill="#fbe2cd"/><circle cx="88.62" cy="279.74" r="11.48" fill="#4c281b"/><circle cx="30.87" cy="287.96" r="11.48" fill="#4c281b"/><circle cx="89.07" cy="282.89" r="11.48" fill="#fff"/><circle cx="31.32" cy="291.11" r="11.48" fill="#fff"/><path d="M41,288.05a4.06,4.06,0,0,1-2.52,1.36,4.17,4.17,0,0,1-4.26-6.09,7,7,0,0,0-1,.07,7.22,7.22,0,1,0,8.16,6.14A6.55,6.55,0,0,0,41,288.05Zm-9.11,7.59a1.72,1.72,0,1,1,1.46-1.94A1.73,1.73,0,0,1,31.88,295.64Z" fill="#404041"/><path d="M92.9,280.62a4.16,4.16,0,0,1-7.1-2.33,4.09,4.09,0,0,1,.36-2.36,7.41,7.41,0,0,0-1,.07,7.22,7.22,0,1,0,8.17,6.13A7.59,7.59,0,0,0,92.9,280.62Zm-9.17,7.64a1.72,1.72,0,1,1,1.46-1.95A1.72,1.72,0,0,1,83.73,288.26Z" fill="#404041"/><path d="M49,309.57c14.82,2.57,12.86-11.2,12.86-11.2s2,13.77,15.49,7.16" fill="none" stroke="#404041" stroke-linecap="round" stroke-miterlimit="10" stroke-width="3.78"/><path d="M53.27,294.28c.47,3.31,5.45,5.78,8.72,5.31s7.3-4.63,6.88-7.53S52.8,291,53.27,294.28Z" fill="#404041"/><ellipse cx="29.95" cy="271.12" rx="3.99" ry="5.94" transform="translate(-242.79 275.28) rotate(-84.57)" fill="#fbe2cd"/><ellipse cx="84.81" cy="263.33" rx="5.94" ry="3.99" transform="translate(-91.12 49.83) rotate(-21.64)" fill="#fbe2cd"/><path d="M67.64,238.22c1.69,11.87,13,23.56,19.88,22.58s14.27-16.83,12.79-27.23C99.36,226.84,66.62,231.12,67.64,238.22Z" fill="#4c281b"/><path d="M6.76,246.89c1.69,11.87,13,23.55,19.88,22.58s14.28-16.83,12.8-27.23C38.48,235.51,5.75,239.79,6.76,246.89Z" fill="#4c281b"/></g></g></svg>