<svg id="Layer_1" data-name="Layer 1" xmlns="http://www.w3.org/2000/svg" viewBox="0 0 300 345"><g id="assets"><g id="eyes"><path d="M278.65,205.2c-18,44.41-84.51,18.75-68-26.24,9-22.21,27.24-19.39,44.05-12.91S286.9,182.7,278.65,205.2Z" fill="#fabc2e"/><path d="M278.56,214.07c-18.62,44.16-84.76,17.58-67.65-27.18,9.58-22.71,27.35-15.84,44.28-8.28C271.17,185.75,286.87,192.33,278.56,214.07Z" fill="#fff"/><path d="M255.63,194.64c-11.23,9.14-27.39-5.89-19.07-17.77-32.1-3.8-35.63,44.75-3.32,45.62C247.69,222.67,258.88,208.68,255.63,194.64Zm-32.22,19.89c-7.07.1-7.07-11,0-10.91C230.49,203.52,230.49,214.63,223.41,214.53Z" fill="#141319"/><path d="M23.25,205.2c18,44.41,84.51,18.75,68-26.24-9-22.21-27.23-19.39-44-12.91S15,182.7,23.25,205.2Z" fill="#fabc2e"/><path d="M23.34,214.07C42,258.23,108.1,231.65,91,186.89c-9.58-22.71-27.36-15.84-44.28-8.28C30.73,185.75,15,192.33,23.34,214.07Z" fill="#fff"/><path d="M68.67,222.49c32.31-.87,28.78-49.42-3.32-45.62,8.32,11.88-7.84,26.91-19.07,17.77C43,208.68,54.22,222.67,68.67,222.49Zm9.82-18.87c7.08-.1,7.08,11,0,10.91C71.42,214.63,71.42,203.52,78.49,203.62Z" fill="#141319"/></g></g></svg>