<svg id="Layer_1" data-name="Layer 1" xmlns="http://www.w3.org/2000/svg" viewBox="0 0 300 345"><g id="assets"><g id="eyes"><path d="M279,189.94c-.81,47.92-72.09,47.91-72.9,0,.41-24,18.43-32.84,36.45-32.84S278.63,166,279,189.94Z" fill="#fabc2e"/><path d="M93.87,189.94c-.81,47.92-72.09,47.91-72.9,0,.4-23.83,18.24-32.71,36.17-32.83C75.25,157,93.47,165.86,93.87,189.94Z" fill="#fabc2e"/><path d="M279,196.64c-.81,47.92-72.09,47.91-72.9,0,.41-24,18.43-25.24,36.45-25.24S278.63,172.68,279,196.64Z" fill="#fff"/><path d="M93.87,196.64c-.81,47.92-72.09,47.91-72.9,0,.4-24,18.43-25.24,36.45-25.24S93.47,172.68,93.87,196.64Z" fill="#fff"/><path d="M89.18,195.39C77.84,205.58,60.6,189.53,70,177.49c-32-3.7-35.48,44.76-3.23,45.62C81.16,223.29,92.33,209.41,89.18,195.39Zm-32,19.76c-7.08.1-7.08-11,0-10.9C64.21,204.14,64.21,215.26,57.14,215.15Z" fill="#141319"/><path d="M255.63,195.26c-11.23,9.15-27.39-5.89-19.07-17.76-32.1-3.81-35.63,44.74-3.32,45.61C247.69,223.3,258.88,209.31,255.63,195.26Zm-32.22,19.89c-7.07.1-7.07-11,0-10.9C230.49,204.14,230.49,215.26,223.41,215.15Z" fill="#141319"/></g></g></svg>