<svg id="Layer_1" data-name="Layer 1" xmlns="http://www.w3.org/2000/svg" viewBox="0 0 300 345"><g id="assets"><g id="eyes"><circle cx="55.47" cy="194.79" r="39.96" fill="#fabc2e"/><path d="M55.47,161.39A39.89,39.89,0,0,0,24.55,176l.1-.31L8.83,172.37l6.52,32.85.28-.88a40,40,0,1,0,39.84-43Z" fill="#141319"/><circle cx="55.47" cy="209.08" r="39.96" fill="#fff"/><path d="M90.29,203.28a14.48,14.48,0,0,1-21-19.63,24.38,24.38,0,0,0-3.54-.26,25.17,25.17,0,1,0,24.58,19.89ZM55.16,224.94a6,6,0,1,1,6-6A6,6,0,0,1,55.16,224.94Z" fill="#4cc8f4"/><circle cx="244.53" cy="194.79" r="39.96" fill="#fabc2e"/><path d="M291.17,172.37l-15.82,3.36.1.31a40,40,0,1,0,8.92,28.3l.28.88Z" fill="#141319"/><circle cx="244.53" cy="209.08" r="39.96" fill="#fff"/><path d="M258.84,203.13a14.49,14.49,0,0,1-20.91-19.47,25.67,25.67,0,0,0-3.64-.27,25.16,25.16,0,1,0,24.55,19.74Zm-35.32,21.81a6,6,0,1,1,6-6A6,6,0,0,1,223.52,224.94Z" fill="#4cc8f4"/></g></g></svg>