<svg id="Layer_1" data-name="Layer 1" xmlns="http://www.w3.org/2000/svg" viewBox="0 0 300 345"><g id="assets"><g id="eyes"><path d="M279,189.94c-.81,47.92-72.09,47.91-72.9,0C206.94,142,278.22,142,279,189.94Z" fill="#fabc2e"/><path d="M93.87,189.94c-.81,47.92-72.09,47.91-72.9,0C21.78,142,93.06,142,93.87,189.94Z" fill="#fabc2e"/><path d="M279,200.06c-.81,47.92-72.09,47.91-72.9,0C206.94,152.14,278.22,152.15,279,200.06Z" fill="#fff"/><path d="M93.87,200.06C93.06,248,21.78,248,21,200.06,21.78,152.14,93.06,152.15,93.87,200.06Z" fill="#fff"/><path d="M72.69,196.21c-7.94,7.13-20-4.1-13.43-12.53C36.82,181.09,34.42,215,57,215.62A16.1,16.1,0,0,0,72.69,196.21ZM50.26,210c-4.95.07-4.95-7.7,0-7.63S55.21,210.12,50.26,210Z" fill="#141319"/><path d="M258.12,196.12c-7.86,6.4-19.18-4.13-13.36-12.43-22.47-2.67-24.93,31.31-2.32,31.93A16.11,16.11,0,0,0,258.12,196.12ZM235.56,210c-4.95.07-4.95-7.7,0-7.63S240.52,210.12,235.56,210Z" fill="#141319"/></g></g></svg>