<svg id="Layer_1" data-name="Layer 1" xmlns="http://www.w3.org/2000/svg" xmlns:xlink="http://www.w3.org/1999/xlink" viewBox="0 0 300 345"><defs><linearGradient id="linear-gradient" x1="150" y1="356.11" x2="150" y2="161.16" gradientUnits="userSpaceOnUse"><stop offset="0" stop-color="#d8d5d2"/><stop offset="1" stop-color="#847367"/></linearGradient><clipPath id="clip-path"><rect x="-335" y="43.6" width="300" height="253.39" rx="36.38" fill="none"/></clipPath></defs><path d="M263.62,345H36.38A36.38,36.38,0,0,1,0,308.62V259.14H300v49.48A36.38,36.38,0,0,1,263.62,345Z" fill="url(#linear-gradient)"/><rect y="45" width="300" height="253.39" rx="36.38" fill="#e8e8e8"/><path d="M40.33,180.6C40.33,120,89.43,89.78,150,89.78S259.67,120,259.67,180.6c0,.56,40.33,12.6,40.33,12.6V156.44A111.45,111.45,0,0,0,188.56,45H111.44A111.45,111.45,0,0,0,0,156.44V193.2S40.33,181.16,40.33,180.6Z" fill="#aeaba7"/><path d="M184.06,239.31a9.47,9.47,0,0,1-6.16-10.46c3.29-19.74,16.61-67.63,68.41-69.42,30.54-1.06,28.6-11.75,36.26-8.68s4.08,10.48,0,22.34c0,0,10.72,2.75,13.28,10.52s-5.62,13-5.62,13,19.19,54.16-18.89,77.26c-17.57,10.65-46.86,3.5-60-14.89C204.86,249.87,191,241.81,184.06,239.31Z" fill="#2f2c38"/><path d="M115.94,239.31a9.47,9.47,0,0,0,6.16-10.46c-3.29-19.74-16.61-67.63-68.41-69.42-30.54-1.06-28.6-11.75-36.26-8.68s-4.08,10.48,0,22.34c0,0-10.72,2.75-13.28,10.52s5.62,13,5.62,13-19.19,54.16,18.89,77.26c17.57,10.65,46.86,3.5,60-14.89C95.14,249.87,109,241.81,115.94,239.31Z" fill="#2f2c38"/><circle cx="242.58" cy="207.61" r="40.97" fill="#15141a"/><circle cx="57.42" cy="207.61" r="40.97" fill="#15141a"/><path d="M242.58,255.18a39,39,0,1,1,38.95-39A39,39,0,0,1,242.58,255.18Z" fill="#754c29"/><path d="M242.58,179.77a36.46,36.46,0,1,1-36.45,36.45,36.45,36.45,0,0,1,36.45-36.45m0-5A41.46,41.46,0,1,0,284,216.22a41.49,41.49,0,0,0-41.45-41.45Z" fill="#15141a"/><path d="M57.42,255.18a39,39,0,1,1,39-39A39,39,0,0,1,57.42,255.18Z" fill="#754c29"/><path d="M57.42,179.77A36.46,36.46,0,1,1,21,216.22a36.45,36.45,0,0,1,36.45-36.45m0-5a41.46,41.46,0,1,0,41.45,41.45,41.49,41.49,0,0,0-41.45-41.45Z" fill="#15141a"/><circle cx="57.42" cy="216.56" r="29.02" fill="#15141a"/><circle cx="47.8" cy="228.11" r="7.23" fill="#fff"/><circle cx="65.05" cy="207.61" r="12.37" fill="#fff"/><circle cx="242.58" cy="216.56" r="29.02" fill="#15141a"/><circle cx="232.96" cy="228.11" r="7.23" fill="#fff"/><circle cx="250.21" cy="207.61" r="12.37" fill="#fff"/><path d="M177,244.75s-4.1-20.51-13.61-31.85a5.75,5.75,0,0,0-8.39-.5c-1.53,1.51-3.21,7.24-5,7.24s-3.43-5.73-5-7.24a5.75,5.75,0,0,0-8.39.5C127.14,224.24,123,244.75,123,244.75s-17,16.46-17,28c0,19.89,19.68,20.57,44,20.57S194,292.67,194,272.78C194,261.21,177,244.75,177,244.75Z" fill="#2f2c38"/><path d="M138.93,251.3s2.3,8.14,11.07,8.14,11.07-8.14,11.07-8.14" fill="none" stroke="#15141a" stroke-linecap="round" stroke-linejoin="round" stroke-width="5.72"/><polyline points="138.93 280.72 150 271.05 150 259.44" fill="none" stroke="#15141a" stroke-linecap="round" stroke-linejoin="round" stroke-width="5.72"/><line x1="161.07" y1="280.72" x2="150" y2="271.05" fill="none" stroke="#15141a" stroke-linecap="round" stroke-linejoin="round" stroke-width="5.72"/><path d="M228.19,45,279,0s21,24.79,21,95" fill="#e8e8e8"/><path d="M71.81,45,21,0S0,24.79,0,95" fill="#e8e8e8"/><path d="M255.83,53.46l24-21.21s9.88,11.68,9.88,44.75" fill="#2f2c38"/><path d="M44.17,53.46l-24-21.21S10.33,43.93,10.33,77" fill="#2f2c38"/><path d="M295.06,227.66c-.11,10.32-2.15,21.67-8.45,31.48a46.52,46.52,0,0,1-15.27,14.75c-9.16,5.54-21.49,6.25-33.06,3.07a74,74,0,0,1-27.09,5.24,131.55,131.55,0,0,1-18.67-1.32c-5,12-22.11,12.47-42.52,12.47-24.27,0-43.95-.68-43.95-20.57,0-4.24,2.28-9.14,5.18-13.64.62-1,1.28-1.93,1.94-2.86A38.32,38.32,0,0,0,97.94,259l-.34.14c-16.9,6.78-27.61,23-27.23,39.25H263.62A36.38,36.38,0,0,0,300,262V220.08C298.65,222.26,297,224.83,295.06,227.66Z" fill="#c9c0b5"/><path d="M267.17,259.14A102.44,102.44,0,0,1,238.28,277c11.57,3.18,23.9,2.47,33.06-3.07a46.52,46.52,0,0,0,15.27-14.75c6.3-9.81,8.34-21.16,8.45-31.48A165.22,165.22,0,0,1,267.17,259.14Z" fill="#1e1d23"/><path d="M152.86,269.11v.64L163,278.57a2.86,2.86,0,0,1-3.76,4.31l-9.19-8-9.19,8a2.85,2.85,0,0,1-1.88.7,2.85,2.85,0,0,1-1.88-5l10.09-8.82v-3.1c-6.64-2.88-12.79-5.58-18.76-7.51a53.41,53.41,0,0,0-15.21-2.86c-.66.93-1.32,1.88-1.94,2.86-2.9,4.5-5.18,9.4-5.18,13.64,0,19.89,19.68,20.57,44,20.57,20.41,0,37.57-.49,42.52-12.47C176.89,278.64,164.11,273.87,152.86,269.11Z" fill="#1e1d23"/><path d="M163,278.57l-10.09-8.82v-.64c-2-.82-3.86-1.65-5.72-2.46v3.1l-10.09,8.82a2.86,2.86,0,0,0,3.76,4.31l9.19-8,9.19,8a2.85,2.85,0,0,0,1.88.7,2.85,2.85,0,0,0,1.88-5Z" fill="#060507"/><path d="M300,226.39s-34.25,67-89.69,67-77.66-34.58-109.06-22.3S60.3,329.31,106.05,345H263.62A36.38,36.38,0,0,0,300,308.62V226.39Z" fill="#aeaba7"/><path d="M167.84,286.07c-16-5.5-28.58-12.63-40.66-15.89-2.07,18.65-9.94,61.38-38.74,65.42a57.28,57.28,0,0,0,17.61,9.4h42C157.07,331.66,167.63,310.79,167.84,286.07Z" fill="#2f2c38"/><path d="M189.2,291.6c1.91,13.79,3.18,38.5-8.64,53.4h46.26c5.09-13.82,9.54-34,3.51-54.61a69.82,69.82,0,0,1-20,3A126.75,126.75,0,0,1,189.2,291.6Z" fill="#2f2c38"/><path d="M300,288.19a70.84,70.84,0,0,0-12.36-24.25,51.89,51.89,0,0,0-7.94-8.28,130.5,130.5,0,0,1-27.46,24.48c5.93,13.91,17.05,46.58.25,64.86h11.13A36.38,36.38,0,0,0,300,308.62Z" fill="#2f2c38"/><g clip-path="url(#clip-path)"><path d="M12.94,272.65c20.7-16.27,25.63-44.54,11-63.15S-19.3,189-40,205.26q-4.26,3.36-8.37,6.73A72.18,72.18,0,0,0-70.91,244.4c-2.78,8.15-4.32,14.64-4.32,14.64a59.44,59.44,0,0,1-3-16.31,1.78,1.78,0,0,0-3.08-1.11q-2.43,2.38-4.78,4.76a1.94,1.94,0,0,0-.54,1.12A111.4,111.4,0,0,0-87,265.91,30.26,30.26,0,0,1-93,257a1.81,1.81,0,0,0-3-.41l-2.75,3a1.86,1.86,0,0,0-.5,1.29,113.56,113.56,0,0,0,1.53,15.37,37.93,37.93,0,0,1-5.66-7.95,1.82,1.82,0,0,0-3-.25c-1.24,1.41-2.47,2.82-3.67,4.22a1.89,1.89,0,0,0-.45,1.33,114.29,114.29,0,0,0,1.36,11.59,30.43,30.43,0,0,1-2.69-3.25,4,4,0,0,0-6.28,0c-36.35,44.68-51.54,79.63-51.54,79.63s37.83-6.95,89.43-31.39a4,4,0,0,0,1.47-6.1,30.34,30.34,0,0,1-2.39-3.23,113.69,113.69,0,0,0,10.69,4,1.85,1.85,0,0,0,1.4-.12c1.67-.84,3.36-1.7,5.05-2.58a1.85,1.85,0,0,0,.47-3,37.71,37.71,0,0,1-6.23-7.24A113.78,113.78,0,0,0-55.32,317a1.87,1.87,0,0,0,1.37-.18l3.64-2a1.82,1.82,0,0,0,.32-3A30.45,30.45,0,0,1-57.11,304a111.21,111.21,0,0,0,17.82,4,1.86,1.86,0,0,0,1.21-.25c1.93-1.15,3.86-2.33,5.81-3.53a1.79,1.79,0,0,0-.34-3.26,59,59,0,0,1-15-6.76s6.65,0,15.21-.72a72.24,72.24,0,0,0,36.79-14.2Q8.65,276,12.94,272.65Z" fill="#00a651"/><path d="M-28.16,277.64a106.12,106.12,0,0,1-27.26-3.7l-1.42-.42L-57,272c-.18-1.57-4.18-38.75,20.38-58,5.08-4,11.78-6.1,19.37-6.1,11.32,0,22.74,4.86,28.41,12.08,4.61,5.86,6.86,14.93,6,24.28-.88,9.91-5.08,18.5-11.53,23.57C-2.63,274.34-14,277.64-28.16,277.64Z" fill="#cc914f"/><path d="M-17.26,210.14c10.51,0,21.28,4.4,26.65,11.23,8.71,11.09,7.82,34.52-5.12,44.69-9.24,7.27-21.49,9.33-32.43,9.33a104.85,104.85,0,0,1-26.62-3.6s-4.31-37.28,19.54-56c5-3.9,11.43-5.62,18-5.62m0-4.49h0c-8.1,0-15.28,2.28-20.76,6.58-25.53,20.07-21.41,58.45-21.22,60.07l.34,2.95,2.84.84a108.4,108.4,0,0,0,27.9,3.79c14.67,0,26.52-3.46,35.21-10.29C14,264.14,18.5,255,19.42,244.46c.88-9.9-1.56-19.57-6.5-25.86-6.18-7.87-18-12.95-30.17-12.95Z" fill="#8dc63f"/><path d="M-3.66,262.76c-12.46,9.79-29.44,9-37.93-1.84s-5.27-27.5,7.19-37.29,24.11-4.78,32.6,6S8.8,253-3.66,262.76Z" fill="#25afe5"/><path d="M-5.44,257.09C-12.92,263-23,263-29.85,257.76c-1.16-.89,9.39-11.06,8.45-12.26-1.33-1.69-13.92,5.57-14.56,3.62a20.1,20.1,0,0,1,7.08-21.87c8.75-6.88,17.31-2.81,23.79,5.43S3.32,250.21-5.44,257.09Z" fill="#262262"/><path d="M12.94,158.77c20.7-16.26,25.63-44.53,11-63.14s-43.26-20.5-64-4.24q-4.26,3.36-8.37,6.73a72.13,72.13,0,0,0-22.54,32.41c-2.78,8.15-4.32,14.64-4.32,14.64a59.46,59.46,0,0,1-3-16.32,1.78,1.78,0,0,0-3.08-1.1q-2.43,2.38-4.78,4.76a1.91,1.91,0,0,0-.54,1.12A111.4,111.4,0,0,0-87,152a30.23,30.23,0,0,1-6-8.89,1.81,1.81,0,0,0-3-.4l-2.75,3a1.84,1.84,0,0,0-.5,1.29,113.29,113.29,0,0,0,1.53,15.36,37.67,37.67,0,0,1-5.66-7.94,1.82,1.82,0,0,0-3-.25c-1.24,1.41-2.47,2.82-3.67,4.22a1.86,1.86,0,0,0-.45,1.33,114.29,114.29,0,0,0,1.36,11.59,31.8,31.8,0,0,1-2.69-3.25,4,4,0,0,0-6.28,0c-36.35,44.67-51.54,79.63-51.54,79.63s37.83-7,89.43-31.4a4,4,0,0,0,1.47-6.09A30.34,30.34,0,0,1-81.07,207a113.69,113.69,0,0,0,10.69,4,1.85,1.85,0,0,0,1.4-.12c1.67-.84,3.36-1.71,5.05-2.59a1.84,1.84,0,0,0,.47-3A37.92,37.92,0,0,1-69.69,198a112,112,0,0,0,14.37,5.07,1.82,1.82,0,0,0,1.37-.17l3.64-2a1.81,1.81,0,0,0,.32-3,30.45,30.45,0,0,1-7.12-7.83,111.21,111.21,0,0,0,17.82,4,1.86,1.86,0,0,0,1.21-.25c1.93-1.16,3.86-2.33,5.81-3.53a1.79,1.79,0,0,0-.34-3.26,59,59,0,0,1-15-6.76s6.65,0,15.21-.73A72.13,72.13,0,0,0,4.36,165.36Q8.65,162.15,12.94,158.77Z" fill="#056d38"/><path d="M-28.16,163.77a106.12,106.12,0,0,1-27.26-3.7l-1.42-.42-.17-1.48c-.18-1.57-4.18-38.75,20.38-58,5.08-4,11.78-6.1,19.37-6.1,11.32,0,22.74,4.85,28.41,12.08,4.61,5.86,6.86,14.93,6,24.28-.88,9.9-5.08,18.49-11.53,23.56C-2.63,160.46-14,163.77-28.16,163.77Z" fill="#936939"/><path d="M-17.26,96.27c10.51,0,21.28,4.4,26.65,11.23,8.71,11.09,7.82,34.52-5.12,44.69-9.24,7.26-21.49,9.33-32.43,9.33a104.58,104.58,0,0,1-26.62-3.61s-4.31-37.28,19.54-56c5-3.9,11.43-5.62,18-5.62m0-4.49v0h0c-8.1,0-15.28,2.28-20.76,6.58-25.53,20.06-21.41,58.45-21.22,60.07l.34,2.95,2.84.84A109,109,0,0,0-28.16,166c14.67,0,26.52-3.46,35.21-10.29,6.94-5.45,11.45-14.61,12.37-25.14.88-9.9-1.56-19.56-6.5-25.86-6.18-7.86-18-12.94-30.17-12.94Z" fill="#648d3d"/><path d="M-3.66,148.88c-12.46,9.79-29.44,9-37.93-1.83s-5.27-27.5,7.19-37.29,24.11-4.78,32.6,6S8.8,139.09-3.66,148.88Z" fill="#1d83ac"/><path d="M-5.44,143.22c-7.48,5.87-17.58,5.92-24.41.67-1.16-.89,9.39-11.07,8.45-12.27-1.33-1.69-13.92,5.58-14.56,3.63a20.12,20.12,0,0,1,7.08-21.88c8.75-6.88,17.31-2.8,23.79,5.44S3.32,136.34-5.44,143.22Z" fill="#131229"/><path d="M12.94,220.26c20.7-16.26,25.63-44.53,11-63.14s-43.26-20.51-64-4.24q-4.26,3.35-8.37,6.73A72.15,72.15,0,0,0-70.91,192c-2.78,8.15-4.32,14.64-4.32,14.64a59.33,59.33,0,0,1-3-16.31,1.78,1.78,0,0,0-3.08-1.1c-1.62,1.59-3.21,3.17-4.78,4.76a1.91,1.91,0,0,0-.54,1.11A111.53,111.53,0,0,0-87,213.53a30.41,30.41,0,0,1-6-8.89,1.82,1.82,0,0,0-3-.41l-2.75,3a1.84,1.84,0,0,0-.5,1.29,113.53,113.53,0,0,0,1.53,15.36,37.67,37.67,0,0,1-5.66-7.94,1.81,1.81,0,0,0-3-.26c-1.24,1.42-2.47,2.83-3.67,4.23a1.86,1.86,0,0,0-.45,1.33,114.29,114.29,0,0,0,1.36,11.59,31.8,31.8,0,0,1-2.69-3.25,4,4,0,0,0-6.28,0c-36.35,44.68-51.54,79.64-51.54,79.64s37.83-7,89.43-31.4a4,4,0,0,0,1.47-6.09,30.34,30.34,0,0,1-2.39-3.23,113.69,113.69,0,0,0,10.69,4,1.89,1.89,0,0,0,1.4-.12c1.67-.85,3.36-1.71,5.05-2.59a1.84,1.84,0,0,0,.47-3,37.92,37.92,0,0,1-6.23-7.25,112,112,0,0,0,14.37,5.07,1.87,1.87,0,0,0,1.37-.17l3.64-2a1.81,1.81,0,0,0,.32-3,30.39,30.39,0,0,1-7.12-7.84,111.85,111.85,0,0,0,17.82,4,1.93,1.93,0,0,0,1.21-.26c1.93-1.15,3.86-2.32,5.81-3.52a1.79,1.79,0,0,0-.34-3.26,58.78,58.78,0,0,1-15-6.77s6.65.05,15.21-.72a72.15,72.15,0,0,0,36.79-14.2Q8.65,223.63,12.94,220.26Z" fill="#00a651"/><path d="M-28.16,225.25a106.12,106.12,0,0,1-27.26-3.7l-1.42-.42-.17-1.47c-.18-1.57-4.18-38.75,20.38-58,5.08-4,11.78-6.1,19.37-6.1,11.32,0,22.74,4.86,28.41,12.09,9.32,11.86,8.61,36.76-5.49,47.84C-2.63,222-14,225.25-28.16,225.25Z" fill="#cc914f"/><path d="M-17.26,157.76c10.51,0,21.28,4.4,26.65,11.22,8.71,11.09,7.82,34.53-5.12,44.69C-5,220.94-17.22,223-28.16,223a104.58,104.58,0,0,1-26.62-3.61s-4.31-37.28,19.54-56c5-3.91,11.43-5.62,18-5.62m0-4.49v0h0c-8.1,0-15.28,2.27-20.76,6.58-25.53,20.06-21.41,58.44-21.22,60.07l.34,2.94,2.84.85a109,109,0,0,0,27.9,3.79c14.67,0,26.52-3.46,35.21-10.29,6.94-5.46,11.45-14.62,12.37-25.14.88-9.9-1.56-19.57-6.5-25.86-6.18-7.86-18-12.94-30.17-12.94Z" fill="#8dc63f"/><path d="M-3.66,210.37c-12.46,9.79-29.44,9-37.93-1.84S-46.86,181-34.4,171.25s24.11-4.78,32.6,6S8.8,200.58-3.66,210.37Z" fill="#25afe5"/><path d="M-5.44,204.7c-7.48,5.88-17.58,5.93-24.41.68-1.16-.9,9.39-11.07,8.45-12.27-1.33-1.69-13.92,5.58-14.56,3.63a20.11,20.11,0,0,1,7.08-21.88c8.75-6.88,17.31-2.8,23.79,5.44S3.32,197.82-5.44,204.7Z" fill="#262262"/></g></svg>