<svg id="Layer_1" data-name="Layer 1" xmlns="http://www.w3.org/2000/svg" viewBox="0 0 300 345"><g id="assets"><g id="nose"><path d="M140.45,160.49v44.7s-30.79-4.21-30.79,14.42,30.79,20,30.79,20" fill="#ffcc05"/><path d="M140.45,160.49c.74,3.73,1.25,7.45,1.72,11.18s.83,7.44,1.1,11.17.54,7.45.6,11.17a92.87,92.87,0,0,1-.42,11.18L143,209.1l-3-.94h0c-6.08-.28-12.61,0-18.11,1.67a14.85,14.85,0,0,0-6.64,3.87,8.64,8.64,0,0,0-1.62,3,10.41,10.41,0,0,0-.38,1.75,13.36,13.36,0,0,0-.07,1.9,14.57,14.57,0,0,0,.2,1.89A14,14,0,0,0,114,224a11.67,11.67,0,0,0,1.91,3.29,22,22,0,0,0,6.75,5.17c5.35,2.86,11.47,4.91,17.84,7.19a34.16,34.16,0,0,1-10.19.52,35.7,35.7,0,0,1-10.13-2.37,26.14,26.14,0,0,1-9.23-6.14,18.83,18.83,0,0,1-3.3-5,16.76,16.76,0,0,1-1.41-5.91,20.16,20.16,0,0,1,0-3,17.71,17.71,0,0,1,.57-3.08,14.68,14.68,0,0,1,3-5.66,18.17,18.17,0,0,1,4.79-3.87,24.75,24.75,0,0,1,5.3-2.19,41.17,41.17,0,0,1,10.6-1.48c1.74,0,3.47,0,5.19.14a51.11,51.11,0,0,1,5.21.65h0l-3.41,3A95,95,0,0,1,137,194c.06-3.72.29-7.45.6-11.17s.66-7.45,1.1-11.17S139.71,164.22,140.45,160.49Z" fill="#cd8e2a"/></g></g></svg>