<svg id="Layer_1" data-name="Layer 1" xmlns="http://www.w3.org/2000/svg" viewBox="0 0 300 345"><g id="assets"><g id="glasses"><circle cx="242.21" cy="200.32" r="50.74" fill="#62cbec" opacity="0.4"/><path d="M242.21,155.07A45.25,45.25,0,1,1,197,200.32a45.25,45.25,0,0,1,45.24-45.25m0-11a56.25,56.25,0,1,0,56.25,56.25,56.31,56.31,0,0,0-56.25-56.25Z" fill="#c58b3c"/><path d="M242.21,155.07A45.25,45.25,0,1,1,197,200.32a45.25,45.25,0,0,1,45.24-45.25m0-7a52.25,52.25,0,1,0,52.25,52.25,52.31,52.31,0,0,0-52.25-52.25Z" fill="#fabc2e"/><path d="M263.76,266.68a7.54,7.54,0,1,1,7.54-7.54A7.55,7.55,0,0,1,263.76,266.68Z" fill="#fabc2e"/><path d="M263.76,253.1a6,6,0,1,1-6,6,6,6,0,0,1,6-6m0-3a9,9,0,1,0,9,9,9.06,9.06,0,0,0-9-9Z" fill="#c58b3c"/><path d="M271.33,279.92a7.55,7.55,0,1,1,7.55-7.54A7.56,7.56,0,0,1,271.33,279.92Z" fill="#fabc2e"/><path d="M271.33,266.33a6,6,0,1,1-6,6.05,6.05,6.05,0,0,1,6-6.05m0-3a9,9,0,1,0,9.05,9.05,9.06,9.06,0,0,0-9.05-9.05Z" fill="#c58b3c"/><path d="M285.08,286.76a7.54,7.54,0,1,1,7.54-7.54A7.55,7.55,0,0,1,285.08,286.76Z" fill="#fabc2e"/><path d="M285.08,273.18a6,6,0,1,1-6.05,6,6,6,0,0,1,6.05-6m0-3a9,9,0,1,0,9,9,9.06,9.06,0,0,0-9-9Z" fill="#c58b3c"/><path d="M300,271.71a7.53,7.53,0,0,0,0,15Z" fill="#fabc2e"/><path d="M300,285.24a6,6,0,0,1,0-12v-3a9,9,0,0,0,0,18Z" fill="#c58b3c"/></g></g></svg>