<svg id="Layer_1" data-name="Layer 1" xmlns="http://www.w3.org/2000/svg" viewBox="0 0 300 345"><g id="assets"><g id="glasses"><path d="M237.64,258.55a4.32,4.32,0,0,1-1.62-.31c-2.2-.85-53.77-21.37-53.77-66.73a31.65,31.65,0,0,1,55.39-20.93A31.66,31.66,0,0,1,293,191.51c0,45.36-51.57,65.88-53.77,66.73A4.33,4.33,0,0,1,237.64,258.55Z" fill="#62cbec" opacity="0.4"/><path d="M261.39,164.36a27.15,27.15,0,0,1,27.15,27.15c0,42.8-50.9,62.54-50.9,62.54s-50.89-19.74-50.89-62.54a27.15,27.15,0,0,1,50.89-13.17,27.14,27.14,0,0,1,23.75-14m0-9a36.17,36.17,0,0,0-23.75,8.9,36.14,36.14,0,0,0-59.89,27.25c0,20.31,9.95,39.1,28.79,54.32a115.69,115.69,0,0,0,27.85,16.61,9,9,0,0,0,6.51,0,115.69,115.69,0,0,0,27.85-16.61c18.84-15.22,28.79-34,28.79-54.32a36.2,36.2,0,0,0-36.15-36.15Z" fill="#cc488a"/><path d="M62.36,258.55a4.33,4.33,0,0,1-1.63-.31C58.53,257.39,7,236.87,7,191.51a31.66,31.66,0,0,1,55.4-20.93,31.65,31.65,0,0,1,55.39,20.93c0,45.36-51.57,65.88-53.77,66.73A4.32,4.32,0,0,1,62.36,258.55Z" fill="#62cbec" opacity="0.4"/><path d="M86.1,164.36a27.14,27.14,0,0,1,27.15,27.15c0,42.8-50.89,62.54-50.89,62.54s-50.9-19.74-50.9-62.54a27.16,27.16,0,0,1,50.9-13.17,27.12,27.12,0,0,1,23.74-14m0-9a36.12,36.12,0,0,0-23.74,8.9,36.15,36.15,0,0,0-59.9,27.25c0,20.31,10,39.1,28.79,54.32A115.69,115.69,0,0,0,59.1,262.44a9,9,0,0,0,6.51,0,115.69,115.69,0,0,0,27.85-16.61c18.84-15.22,28.79-34,28.79-54.32A36.2,36.2,0,0,0,86.1,155.36Z" fill="#cc488a"/><line x1="117.42" y1="204.62" x2="182.58" y2="204.62" fill="#62cbec" stroke="#cc488a" stroke-linejoin="round" stroke-width="13"/></g></g></svg>