<?xml version="1.0" encoding="UTF-8" standalone="no"?>
<!DOCTYPE svg PUBLIC "-//W3C//DTD SVG 1.1//EN" "http://www.w3.org/Graphics/SVG/1.1/DTD/svg11.dtd">
<svg width="100%" height="100%" viewBox="0 0 250 323" version="1.1" xmlns="http://www.w3.org/2000/svg" xmlns:xlink="http://www.w3.org/1999/xlink" xml:space="preserve" xmlns:serif="http://www.serif.com/" style="fill-rule:evenodd;clip-rule:evenodd;stroke-miterlimit:10;">
    <g id="halloween" transform="matrix(0.833333,0,0,0.833333,3.50645e-15,34.7583)">
        <g>
            <path d="M263.62,344.81L36.38,344.81C16.423,344.81 0,328.387 0,308.43L0,242.43L300,242.43L300,308.43C300,328.387 283.577,344.81 263.62,344.81Z" style="fill:#6958b0;fill-rule:nonzero;"/>
            <g transform="matrix(0.998213,0,0,2.19652,0.345754,-412.574)">
                <path d="M184.373,323.59L114.458,323.59C103.89,331.314 104.44,339.215 81.739,344.81L220.824,344.81C198.042,341.695 193.446,330.742 184.373,323.59Z" style="fill:#ccc;"/>
            </g>
            <g transform="matrix(0.998213,0,0,2.19652,0.345754,-412.574)">
                <path d="M184.373,323.59L176.07,323.59C176.07,334.201 122.719,334.2 122.944,323.59L114.458,323.59C103.89,331.314 104.44,339.215 81.739,344.81L220.824,344.81C198.042,341.695 193.446,330.742 184.373,323.59Z" style="fill:#252525;"/>
            </g>
            <g transform="matrix(1,0,0,1,0,-54.3778)">
                <rect x="103.55" y="378.808" width="96.286" height="1.551" style="fill:#8c8c8c;"/>
            </g>
            <g transform="matrix(1,0,0,1.68182,0,-309.553)">
                <rect x="103.55" y="378.808" width="96.286" height="1.551" style="fill:#8c8c8c;"/>
            </g>
            <g>
                <g transform="matrix(1,0,0,1,0,-55.19)">
                    <path d="M123.07,353.39L117.148,353.39C114.032,382.479 182.573,386.335 180.921,353.39L176.101,353.39C176.101,376.696 122.845,376.695 123.07,353.39Z" style="fill:#171717;"/>
                </g>
                <g transform="matrix(1,0,0,1,0,-55.19)">
                    <path d="M144.271,375.457C144.073,375.334 144.098,374.992 144.125,374.786C144.174,374.405 144.34,374.002 144.725,373.829C145.234,373.6 145.878,373.878 146.38,373.989C146.829,374.087 147.286,374.103 147.744,374.129C148.181,374.155 148.685,374.075 148.841,374.586C148.87,374.683 148.889,374.783 148.899,374.884C148.921,375.09 148.979,375.445 148.837,375.624C148.648,375.861 148.364,375.914 148.089,375.922C147.04,375.952 146.446,375.884 145.492,375.778C145.149,375.74 144.515,375.793 144.271,375.457ZM153.21,375.741C152.361,375.814 151.726,375.878 151.434,375.647C151.106,375.387 151.046,374.539 151.346,374.226C151.566,373.998 151.907,373.924 152.212,373.904C152.754,373.867 153.36,373.772 153.903,373.786C154.122,373.792 154.768,373.876 154.964,373.991C155.357,374.223 155.546,375.225 155.095,375.52C154.782,375.725 153.881,375.683 153.21,375.741ZM137.612,374.355C138.306,374.569 138.984,374.753 139.707,374.851C140.203,374.918 140.687,375.028 141.175,375.139C141.395,375.189 141.691,375.32 141.91,375.213C142.017,375.161 142.122,375.083 142.192,374.986C142.441,374.644 142.681,373.851 142.338,373.5C142.067,373.222 141.595,373.127 141.238,373.019C140.604,372.828 139.982,372.589 139.343,372.42C139.057,372.344 138.571,372.203 138.289,372.374C138.01,372.543 137.989,373.002 137.887,373.278C137.807,373.496 137.693,373.696 137.601,373.908C137.563,373.995 137.46,374.308 137.612,374.355ZM157.954,375.108C157.817,375.065 157.706,374.968 157.641,374.841C157.564,374.692 157.532,374.527 157.502,374.363C157.446,374.063 157.385,373.75 157.639,373.523C157.85,373.334 158.188,373.282 158.451,373.206C159.039,373.036 159.637,372.897 160.222,372.719C160.482,372.641 160.881,372.423 161.161,372.516C161.311,372.566 161.424,372.695 161.493,372.832C161.548,372.942 161.575,373.06 161.605,373.179C161.692,373.525 161.848,374.044 161.542,374.324C161.339,374.509 161.046,374.591 160.786,374.655C160.192,374.799 159.582,374.864 158.984,374.994C158.788,375.036 158.591,375.078 158.392,375.103C158.307,375.114 158.039,375.134 157.954,375.108ZM132.002,372.588C131.922,372.544 131.818,372.493 131.764,372.415C131.552,372.109 131.899,371.657 132.062,371.412C132.175,371.242 132.33,371 132.556,370.981C132.914,370.951 133.292,371.171 133.601,371.324C133.993,371.519 134.365,371.756 134.764,371.937C135.135,372.106 135.563,372.234 135.889,372.486C136.013,372.583 136.001,372.773 135.991,372.913C135.97,373.229 135.84,373.731 135.439,373.73C135.218,373.73 135.002,373.634 134.79,373.579C134.159,373.417 132.099,372.646 132.002,372.588ZM164.7,373.618C164.566,373.622 164.347,373.499 164.249,373.403C164.171,373.326 164.116,373.233 164.067,373.136C163.955,372.912 163.853,372.68 163.789,372.437C163.76,372.331 163.736,372.207 163.779,372.102C163.892,371.83 164.198,371.736 164.443,371.622C164.898,371.412 165.381,371.276 165.835,371.063C166.201,370.891 166.593,370.599 166.96,370.926C167.106,371.057 167.234,371.215 167.345,371.376C167.467,371.553 167.665,371.832 167.67,372.059C167.674,372.278 167.502,372.462 167.341,372.588C166.972,372.876 166.471,373.023 166.038,373.192C165.632,373.35 165.177,373.604 164.7,373.618ZM129.649,371.35C129.065,371.104 128.518,370.806 127.962,370.503C127.539,370.272 127.121,370 126.72,369.732C126.547,369.617 126.288,369.475 126.202,369.273C126.117,369.07 126.305,368.851 126.414,368.698C126.68,368.323 127.076,367.818 127.597,367.95C127.868,368.019 128.095,368.212 128.326,368.361C128.781,368.653 129.226,368.955 129.694,369.225C129.95,369.373 130.36,369.483 130.523,369.751C130.608,369.891 130.582,370.068 130.539,370.218C130.449,370.537 130.283,370.86 130.113,371.143C130.026,371.287 129.861,371.439 129.649,371.35ZM169.92,371.153C169.847,371.074 169.777,370.993 169.707,370.91C169.648,370.839 169.589,370.769 169.536,370.693C169.398,370.498 169.08,370.14 169.113,369.873C169.138,369.672 169.332,369.502 169.478,369.381C169.613,369.27 169.767,369.171 169.917,369.081C170.157,368.936 170.419,368.819 170.669,368.693C170.884,368.585 171.102,368.472 171.307,368.345C171.615,368.154 171.951,367.768 172.302,368.093C172.485,368.263 172.63,368.488 172.768,368.694C172.838,368.797 172.929,368.909 172.928,369.041C172.927,369.238 172.739,369.426 172.614,369.557C172.253,369.935 171.781,370.252 171.351,370.547C171.059,370.747 170.757,370.962 170.435,371.113C170.315,371.169 170.042,371.25 169.92,371.153ZM123.137,366.827C123.322,366.992 123.52,367.144 123.701,367.313C123.797,367.402 123.872,367.509 123.969,367.596C124.095,367.71 124.293,367.954 124.48,367.947C124.628,367.941 124.771,367.819 124.875,367.726C125.15,367.478 125.408,367.154 125.57,366.817C125.62,366.711 125.708,366.587 125.69,366.463C125.653,366.196 125.399,366.046 125.2,365.905C125.074,365.816 124.945,365.726 124.79,365.787C124.5,365.9 124.242,366.086 123.975,366.243C123.768,366.365 123.559,366.482 123.353,366.605C123.303,366.635 123.02,366.723 123.137,366.827ZM174.768,367.512C174.552,367.283 174.346,367.045 174.16,366.791C174.096,366.704 173.997,366.593 174.009,366.477C174.029,366.286 174.227,366.159 174.361,366.048C174.669,365.792 174.995,365.554 175.4,365.751C175.474,365.786 175.545,365.837 175.607,365.892C176.006,366.249 175.563,366.814 175.3,367.137C175.237,367.215 174.899,367.532 174.768,367.512Z" style="fill:#333;"/>
                </g>
                <g transform="matrix(1,0,0,1,0,-55.19)">
                    <path d="M123.569,353.395C123.571,353.261 123.519,353.133 123.425,353.038C123.331,352.943 123.203,352.89 123.07,352.89L117.148,352.89C116.893,352.89 116.678,353.083 116.651,353.337C115.851,360.807 119.631,366.667 125.755,370.712C131.786,374.695 140.104,376.909 148.471,377.153C165.31,377.643 182.262,370.136 181.42,353.365C181.407,353.099 181.187,352.89 180.921,352.89L176.101,352.89C175.825,352.89 175.601,353.114 175.601,353.39C175.601,359.03 172.361,363.248 167.531,366.068C162.611,368.94 156.052,370.369 149.501,370.369C142.951,370.369 136.406,368.941 131.514,366.068C126.714,363.249 123.515,359.032 123.569,353.395ZM155.24,371.006L155.953,375.832C154.197,376.039 152.412,376.152 150.621,376.172L150.621,371.355C152.172,371.318 153.719,371.201 155.24,371.006ZM144.297,371.07C145.971,371.265 147.675,371.364 149.379,371.369L149.379,376.171C149.086,376.168 148.793,376.162 148.5,376.153C146.859,376.105 145.22,375.98 143.601,375.78L144.297,371.07ZM160.707,369.926L162.545,374.554C160.816,375.033 159.02,375.405 157.185,375.67L156.469,370.83C157.917,370.601 159.335,370.3 160.707,369.926ZM138.772,370.049C140.163,370.41 141.601,370.697 143.066,370.91L142.37,375.613C140.541,375.341 138.742,374.973 137.001,374.508L138.772,370.049ZM165.702,368.138L168.436,372.352C166.957,373.072 165.383,373.687 163.741,374.201L161.905,369.578C163.227,369.168 164.498,368.688 165.702,368.138ZM133.686,368.298C134.916,368.843 136.217,369.315 137.568,369.715L135.799,374.17C134.135,373.676 132.53,373.093 131.01,372.422L133.686,368.298ZM128.983,365.592C129.622,366.068 130.298,366.514 131.008,366.93C131.506,367.223 132.022,367.501 132.551,367.765L129.871,371.895C128.613,371.286 127.419,370.613 126.306,369.877C126.02,369.689 125.739,369.495 125.464,369.298L128.983,365.592ZM170.34,365.393L173.729,368.961C172.468,370.022 171.064,370.961 169.546,371.782L166.828,367.593C167.24,367.381 167.643,367.161 168.036,366.931C168.849,366.456 169.62,365.943 170.34,365.393ZM125.245,361.865C126.023,362.939 126.952,363.924 128.007,364.817L124.466,368.546C123.136,367.489 121.959,366.326 120.971,365.059L125.245,361.865ZM174.043,361.591L177.756,364.365C176.897,365.747 175.854,367.003 174.657,368.135L171.305,364.606C172.355,363.693 173.276,362.687 174.043,361.591ZM124.559,360.827L120.241,364.054C118.289,361.155 117.286,357.758 117.603,353.89L122.573,353.89C122.632,356.49 123.341,358.803 124.559,360.827ZM178.378,363.28L174.713,360.541C175.847,358.586 176.514,356.368 176.593,353.89C176.593,353.89 180.441,353.89 180.441,353.89C180.546,357.471 179.793,360.594 178.378,363.28Z"/>
                </g>
            </g>
            <g>
                <g transform="matrix(1,0,0,1,0,-55.19)">
                    <path d="M205.215,390.53L94.549,390.53C91.338,393.92 87.284,397.101 81.938,400L220.775,400C214.284,398.047 209.273,394.692 205.215,390.53Z" style="fill:#171717;"/>
                </g>
                <g transform="matrix(1,0,0,1,0,-55.19)">
                    <path d="M144.617,392.272C144.617,392.057 144.443,391.882 144.228,391.882L139.416,391.882C139.201,391.882 139.026,392.057 139.026,392.272L139.026,394.875C139.026,395.091 139.201,395.265 139.416,395.265L144.228,395.265C144.443,395.265 144.617,395.091 144.617,394.875L144.617,392.272ZM152.067,392.272C152.067,392.057 151.892,391.882 151.677,391.882L147.235,391.882C147.02,391.882 146.845,392.057 146.845,392.272L146.845,394.875C146.845,395.091 147.02,395.265 147.235,395.265L151.677,395.265C151.892,395.265 152.067,395.091 152.067,394.875L152.067,392.272ZM183.654,392.272C183.654,392.057 183.479,391.882 183.264,391.882L178.578,391.882C178.363,391.882 178.188,392.057 178.188,392.272L178.188,394.875C178.188,395.091 178.363,395.265 178.578,395.265L183.264,395.265C183.479,395.265 183.654,395.091 183.654,394.875L183.654,392.272ZM167.967,392.272C167.967,392.057 167.793,391.882 167.578,391.882L162.877,391.882C162.662,391.882 162.487,392.057 162.487,392.272L162.487,394.875C162.487,395.091 162.662,395.265 162.877,395.265L167.578,395.265C167.793,395.265 167.967,395.091 167.967,394.875L167.967,392.272ZM129.326,392.272C129.326,392.057 129.151,391.882 128.936,391.882L124.212,391.882C123.997,391.882 123.823,392.057 123.823,392.272L123.823,394.875C123.823,395.091 123.997,395.265 124.212,395.265L128.936,395.265C129.151,395.265 129.326,395.091 129.326,394.875L129.326,392.272ZM198.806,392.272C198.806,392.057 198.632,391.882 198.417,391.882L193.693,391.882C193.478,391.882 193.303,392.057 193.303,392.272L193.303,394.875C193.303,395.091 193.478,395.265 193.693,395.265L198.417,395.265C198.632,395.265 198.806,395.091 198.806,394.875L198.806,392.272ZM136.904,392.272C136.904,392.057 136.729,391.882 136.514,391.882L131.79,391.882C131.575,391.882 131.401,392.057 131.401,392.272L131.401,394.875C131.401,395.091 131.575,395.265 131.79,395.265L136.514,395.265C136.729,395.265 136.904,395.091 136.904,394.875L136.904,392.272ZM121.771,392.272C121.771,392.057 121.596,391.882 121.381,391.882L116.658,391.882C116.443,391.882 116.268,392.057 116.268,392.272L116.268,394.875C116.268,395.091 116.443,395.265 116.658,395.265L121.381,395.265C121.596,395.265 121.771,395.091 121.771,394.875L121.771,392.272ZM114.263,392.272C114.263,392.057 114.088,391.882 113.873,391.882L109.149,391.882C108.934,391.882 108.759,392.057 108.759,392.272L108.759,394.875C108.759,395.091 108.934,395.265 109.149,395.265L113.873,395.265C114.088,395.265 114.263,395.091 114.263,394.875L114.263,392.272ZM106.708,392.272C106.708,392.057 106.533,391.882 106.318,391.882L101.594,391.882C101.379,391.882 101.205,392.057 101.205,392.272L101.205,394.875C101.205,395.091 101.379,395.265 101.594,395.265L106.318,395.265C106.533,395.265 106.708,395.091 106.708,394.875L106.708,392.272ZM191.328,392.272C191.328,392.057 191.154,391.882 190.938,391.882L186.064,391.882C185.848,391.882 185.674,392.057 185.674,392.272L185.674,394.875C185.674,395.091 185.848,395.265 186.064,395.265L190.938,395.265C191.154,395.265 191.328,395.091 191.328,394.875L191.328,392.272ZM160.334,392.272C160.334,392.057 160.16,391.882 159.944,391.882L154.763,391.882C154.548,391.882 154.374,392.057 154.374,392.272L154.374,394.875C154.374,395.091 154.548,395.265 154.763,395.265L159.944,395.265C160.16,395.265 160.334,395.091 160.334,394.875L160.334,392.272ZM176.1,392.272C176.1,392.057 175.925,391.882 175.71,391.882L170.492,391.882C170.277,391.882 170.102,392.057 170.102,392.272L170.102,394.875C170.102,395.091 170.277,395.265 170.492,395.265L175.71,395.265C175.925,395.265 176.1,395.091 176.1,394.875L176.1,392.272Z" style="fill:#333;"/>
                </g>
                <g transform="matrix(1,0,0,1,2.55793,-55.19)">
                    <path d="M98.305,390.53L96.952,390.53L96.952,400L98.305,400L98.305,390.53ZM143.827,390.53L142.473,390.53L142.473,400L143.827,400L143.827,390.53ZM167.093,390.53L165.74,390.53L165.74,400L167.093,400L167.093,390.53ZM175.244,390.53L173.89,390.53L173.89,400L175.244,400L175.244,390.53ZM190.402,390.53L189.049,390.53L189.049,400L190.402,400L190.402,390.53ZM105.835,390.53L104.482,390.53L104.482,400L105.835,400L105.835,390.53ZM113.365,390.53L112.012,390.53L112.012,400L113.365,400L113.365,390.53ZM120.895,390.53L119.542,390.53L119.542,400L120.895,400L120.895,390.53ZM128.51,390.53L127.156,390.53L127.156,400L128.51,400L128.51,390.53ZM136.04,390.53L134.686,390.53L134.686,400L136.04,400L136.04,390.53ZM151.357,390.53L150.003,390.53L150.003,400L151.357,400L151.357,390.53ZM159.563,390.53L158.21,390.53L158.21,400L159.563,400L159.563,390.53ZM182.774,390.53L181.42,390.53L181.42,400L182.774,400L182.774,390.53ZM197.932,390.53L196.579,390.53L196.579,400L197.932,400L197.932,390.53Z"/>
                </g>
                <g transform="matrix(1,0,0,1,0,-55.19)">
                    <path d="M205.215,390.53L94.549,390.53C91.338,393.92 87.284,397.101 81.938,400L220.775,400C214.284,398.047 209.273,394.692 205.215,390.53ZM204.797,391.53C207.759,394.507 211.212,397.068 215.342,398.999C215.344,399 85.645,399 85.645,399C89.399,396.657 92.441,394.155 94.977,391.53L204.797,391.53Z"/>
                </g>
            </g>
        </g>
        <path d="M300,81.19C300,61.111 283.699,44.81 263.62,44.81L36.38,44.81C16.301,44.81 0,61.111 0,81.19L0,261.82C0,281.899 16.301,298.2 36.38,298.2L263.62,298.2C283.699,298.2 300,281.899 300,261.82L300,81.19Z" style="fill:#ffcd05;"/>
        <path d="M0,152.789L0,81.19C0,61.111 16.301,44.81 36.38,44.81L263.62,44.81C283.699,44.81 300,61.111 300,81.19L300,152.789L252.053,104.465L246.698,104.51L246.006,110.582C236.42,113.209 227.505,112.472 219.798,105.701C219.979,112.343 219.52,118.985 217.594,125.626C208.96,123.634 201.398,119.141 194.568,112.937L192.87,153.498L129.816,93.28L117.383,91.569L95.967,126.958L81.009,106.849L50.597,122.277L45.812,105.637L0,152.789Z" style="fill:#fabc2e;"/>
        <path d="M0,152.789L0,81.19C0,61.111 16.301,44.81 36.38,44.81L263.62,44.81C283.699,44.81 300,61.111 300,81.19L300,152.789L252.053,95.778L246.698,95.822L246.006,101.894C236.42,104.521 227.505,103.785 219.798,97.013C219.979,103.655 219.52,110.297 217.594,116.938C208.96,114.946 201.398,110.453 194.568,104.249L192.87,144.81L127.82,73.605L115.245,73.605L95.967,119.3L81.009,99.191L50.597,114.619L45.812,97.979L0,152.789Z" style="fill:#966740;"/>
        <g transform="matrix(1,0,0,1,0,-55.19)">
            <path d="M3.332,121.161C9.095,108.675 21.733,100 36.38,100L263.62,100C278.988,100 292.144,109.55 297.471,123.036C261.889,141.445 203.029,149.125 145.243,147.866L127.82,128.795L115.245,128.795L108.067,145.807C66.342,142.059 28.117,133.6 3.332,121.161Z" style="fill:#734a27;"/>
        </g>
        <g>
            <g transform="matrix(1,0,0,1,0,-55.19)">
                <path d="M300,363.62C300,383.577 283.577,400 263.62,400L36.38,400C16.423,400 0,383.577 0,363.62L0,311.684L149.988,345.54L300,311.684L300,363.62ZM184.389,353.39L114.599,353.39C104.05,370.356 104.599,387.71 81.938,400L220.775,400C198.033,393.158 193.446,369.099 184.389,353.39ZM272.707,352.244C272.651,352.258 272.594,352.273 272.537,352.287C272.481,352.301 272.424,352.316 272.367,352.33C272.481,352.301 272.595,352.273 272.707,352.244ZM274.219,351.819C274.03,351.877 273.839,351.933 273.648,351.988C273.457,352.043 273.265,352.096 273.073,352.148C273.457,352.044 273.839,351.935 274.219,351.819ZM274.859,351.618L274.748,351.654L274.944,351.59L274.859,351.618ZM276.54,351.025L276.375,351.087L276.61,350.998L276.54,351.025Z" style="fill:url(#_Linear1);fill-rule:nonzero;"/>
            </g>
            <g transform="matrix(1,0,0,1,0,-55.19)">
                <path d="M199.836,400L230.011,400C227.249,398.97 224.103,398.429 221.663,397.585C214.726,395.187 207.365,391.522 202.292,386.081C196.803,380.194 193.966,372.814 191.14,365.42C189.613,361.422 188.489,357.363 186.035,353.791C182.835,349.134 178.547,344.59 173.47,342.339C177.436,347.579 174.812,351.456 177.497,357.615C181.425,366.627 182.268,376.931 186.736,385.701C189.772,391.66 194.331,396.559 199.836,400ZM100.652,400L73.512,400C76.274,398.97 79.42,398.429 81.86,397.585C88.797,395.187 96.158,391.522 101.231,386.081C106.72,380.194 109.557,372.814 112.383,365.42C113.911,361.422 115.034,357.363 117.488,353.791C120.688,349.134 121.644,344.59 126.721,342.339C122.755,347.579 125.677,351.456 122.992,357.615C119.063,366.627 118.22,376.931 113.752,385.701C110.716,391.66 106.157,396.559 100.652,400Z" style="fill-opacity:0.5;"/>
            </g>
            <g transform="matrix(1,0,0,1,0,-55.19)">
                <path d="M206.837,400L233.977,400C231.215,398.97 228.069,398.429 225.629,397.585C218.692,395.187 211.331,391.522 206.258,386.081C200.769,380.194 197.932,372.814 195.106,365.42C193.579,361.422 192.455,357.363 190.001,353.791C186.801,349.134 178.547,344.59 173.47,342.339C177.436,347.579 181.812,351.456 184.497,357.615C188.426,366.627 189.269,376.931 193.737,385.701C196.773,391.66 201.332,396.559 206.837,400ZM93.354,400L66.213,400C68.976,398.97 72.122,398.429 74.562,397.585C81.499,395.187 88.859,391.522 93.933,386.081C99.422,380.194 102.259,372.814 105.085,365.42C106.612,361.422 107.736,357.363 110.19,353.791C113.39,349.134 121.644,344.59 126.721,342.339C122.755,347.579 118.378,351.456 115.693,357.615C111.765,366.627 110.922,376.931 106.454,385.701C103.417,391.66 98.859,396.559 93.354,400Z" style="fill:#180655;"/>
            </g>
            <g transform="matrix(1,0,0,1,0,12.1575)">
                <g transform="matrix(1,0,0,1,0,-61.5067)">
                    <path d="M300,273.275C299.823,273.275 299.561,273.19 299.472,273.346C275.737,314.766 199.385,311.506 158.429,331.602L158.149,331.768L157.865,332.013L157.663,332.262L157.509,332.528L157.486,332.577C157.406,332.753 157.355,332.936 157.329,333.121L157.312,333.482C157.32,333.668 157.354,333.856 157.416,334.039L157.562,334.369L157.728,334.622L157.939,334.854L158.175,335.044L158.261,335.1L178.268,347.425C182.931,350.616 188.186,351.636 191.719,350.541C194.558,349.66 196.504,347.574 196.748,344.188C196.747,344.196 197.855,336.441 197.855,336.441C225.61,325.844 262.267,327.631 300,321.375L300,273.275ZM0,273.181C0.177,273.181 0.449,273.09 0.528,273.252C19.349,311.684 100.615,311.506 141.571,331.602L141.851,331.768L142.135,332.013L142.337,332.262L142.491,332.528L142.514,332.577C142.594,332.753 142.645,332.936 142.671,333.121L142.688,333.482C142.68,333.668 142.646,333.856 142.584,334.039L142.438,334.369L142.272,334.622L142.061,334.854L141.825,335.044L141.739,335.1L121.732,347.425C117.069,350.616 111.814,351.636 108.281,350.541C105.442,349.66 103.496,347.574 103.252,344.188C103.253,344.196 102.145,336.441 102.145,336.441C74.39,325.844 37.733,327.631 0,321.375L0,273.181Z" style="fill:#fabc2e;"/>
                </g>
                <g transform="matrix(1.09211,0,0,0.644737,-12.047,66.4778)">
                    <path d="M170.051,315.078C170.051,309.098 167.185,304.243 163.654,304.243L133.106,304.243C129.576,304.243 126.709,309.098 126.709,315.078L126.709,336.749C126.709,342.729 129.576,347.585 133.106,347.585L163.654,347.585C167.185,347.585 170.051,342.729 170.051,336.749L170.051,315.078Z" style="fill:#fabc2e;"/>
                </g>
                <g transform="matrix(1,0,0,1,0,-55.19)">
                    <path d="M128.134,351.084L121.732,355.028C117.069,358.22 108.115,356.259 104.583,355.163C101.743,354.282 99.798,352.197 99.554,348.81C99.554,348.818 98.447,341.063 98.447,341.063C70.691,330.466 37.733,335.235 0,328.979L0,280.785C0.177,280.785 0.449,280.694 0.528,280.856C17.228,314.957 83.091,318.659 126.333,333.099L126.333,332.432C126.333,328.576 129.463,325.446 133.319,325.446L166.681,325.446C170.537,325.446 173.667,328.576 173.667,332.432L173.667,333.149C216.095,319.273 278.44,317.653 299.472,280.95C299.561,280.794 299.823,280.879 300,280.879L300,328.979C262.267,335.235 230.743,330.872 202.987,341.469C202.987,341.469 201.88,349.224 201.88,349.215C201.637,352.602 199.691,354.687 196.851,355.568C193.319,356.664 182.931,358.22 178.268,355.028L171.866,351.084C170.586,352.5 168.737,353.39 166.681,353.39L133.319,353.39C131.263,353.39 129.414,352.5 128.134,351.084Z" style="fill-opacity:0.25;"/>
                </g>
                <g transform="matrix(1,0,0,1,0,-55.19)">
                    <path d="M300,273.275C299.823,273.275 299.561,273.19 299.472,273.346C275.737,314.766 199.385,311.506 158.429,331.602L158.149,331.768L157.865,332.013L157.663,332.262L157.509,332.528L157.486,332.577C157.406,332.753 157.355,332.936 157.329,333.121L157.312,333.482C157.32,333.668 157.354,333.856 157.416,334.039L157.562,334.369L157.728,334.622L157.939,334.854L158.175,335.044L158.261,335.1L178.268,347.425C182.931,350.616 188.186,351.636 191.719,350.541C194.558,349.66 196.504,347.574 196.748,344.188C196.747,344.196 197.855,336.441 197.855,336.441C225.61,325.844 262.267,327.631 300,321.375L300,273.275ZM0,273.181C0.177,273.181 0.449,273.09 0.528,273.252C19.349,311.684 100.615,311.506 141.571,331.602L141.851,331.768L142.135,332.013L142.337,332.262L142.491,332.528L142.514,332.577C142.594,332.753 142.645,332.936 142.671,333.121L142.688,333.482C142.68,333.668 142.646,333.856 142.584,334.039L142.438,334.369L142.272,334.622L142.061,334.854L141.825,335.044L141.739,335.1L121.732,347.425C117.069,350.616 111.814,351.636 108.281,350.541C105.442,349.66 103.496,347.574 103.252,344.188C103.253,344.196 102.145,336.441 102.145,336.441C74.39,325.844 37.733,327.631 0,321.375L0,273.181Z" style="fill:#b3a2f9;"/>
                </g>
                <g transform="matrix(1,0,0,1,0,-55.19)">
                    <path d="M121.494,323.949C128.828,326.193 135.624,328.684 141.571,331.602L141.851,331.768L142.135,332.013L142.337,332.262L142.491,332.528L142.514,332.577C142.594,332.753 142.645,332.936 142.671,333.121L142.688,333.482C142.68,333.668 142.646,333.856 142.584,334.039L142.438,334.369L142.272,334.622L142.061,334.854L141.825,335.044L141.739,335.1L121.732,347.425L121.494,323.949ZM178.642,323.997C171.318,326.168 164.486,328.629 158.429,331.602L158.149,331.768L157.865,332.013L157.663,332.262L157.509,332.528L157.486,332.577C157.406,332.753 157.355,332.936 157.329,333.121L157.312,333.482C157.32,333.668 157.354,333.856 157.416,334.039L157.562,334.369L157.728,334.622L157.939,334.854L158.175,335.044L158.261,335.1L178.084,347.311L178.642,323.997Z" style="fill:#a995ff;"/>
                </g>
                <g transform="matrix(1,0,0,1,0,-55.19)">
                    <path d="M0,319.898L0,322.934C36.274,328.589 73.892,327.563 100.785,337.532C101.039,339.306 101.599,343.226 101.737,344.185C101.742,344.223 101.748,344.26 101.756,344.295L101.756,344.297C102.051,348.39 104.405,350.909 107.837,351.973C111.697,353.171 117.46,352.158 122.557,348.677L129.554,344.367L129.554,340.844L120.945,346.147C120.924,346.16 120.904,346.173 120.884,346.187C116.662,349.077 111.925,350.1 108.726,349.108C106.479,348.411 104.941,346.76 104.748,344.08L104.746,344.08L104.748,344.079L104.706,343.76C104.527,342.51 103.63,336.229 103.63,336.229C103.553,335.689 103.189,335.234 102.68,335.04C75.403,324.625 37.043,325.739 0,319.898ZM300,319.89C262.756,325.839 224.74,324.57 197.32,335.04C196.811,335.234 196.447,335.689 196.37,336.229C196.37,336.229 195.473,342.51 195.294,343.76L195.252,344.079L195.254,344.08L195.252,344.08C195.059,346.76 193.521,348.411 191.274,349.108C188.075,350.1 183.338,349.077 179.116,346.187C179.096,346.173 179.076,346.16 179.055,346.147L169.889,340.501L169.889,344.025L177.452,348.683C182.547,352.159 188.305,353.17 192.163,351.973C195.595,350.909 197.949,348.39 198.244,344.297L198.244,344.295C198.252,344.26 198.258,344.223 198.263,344.185C198.401,343.226 198.961,339.306 199.214,337.532C226.252,327.51 263.523,328.688 300,322.927L300,319.89ZM187.829,348.211C188.66,348.236 189.403,348.183 190.048,348.052L189.65,346.092C189.138,346.196 188.548,346.231 187.888,346.212L187.829,348.211ZM112.171,348.211C111.34,348.236 110.597,348.183 109.952,348.052L110.35,346.092C110.862,346.196 111.452,346.231 112.112,346.212L112.171,348.211ZM185.489,345.957L184.555,345.41L183.545,347.137C184.16,347.496 184.554,347.727 184.626,347.769C184.828,347.887 184.988,347.912 185.074,347.915C185.295,347.953 185.512,347.987 185.725,348.018L185.773,347.69C185.977,347.524 186.116,347.279 186.14,346.999C186.16,346.759 186.094,346.53 185.966,346.345L186.01,346.038C185.839,346.014 185.666,345.987 185.489,345.957ZM114.511,345.957L115.445,345.41L116.455,347.137C115.84,347.496 115.446,347.727 115.374,347.769C115.172,347.887 115.012,347.912 114.926,347.915C114.705,347.953 114.488,347.987 114.275,348.018L114.227,347.69C114.023,347.524 113.884,347.279 113.86,346.999C113.84,346.759 113.906,346.53 114.034,346.345L113.99,346.038C114.161,346.014 114.334,345.987 114.511,345.957ZM185.64,346.045C185.802,346.141 185.905,346.248 185.964,346.363L185.85,347.15C185.593,347.569 185.143,347.913 185.143,347.913C185.381,347.913 185.6,347.83 185.773,347.69L185.85,347.15C186.007,346.895 186.092,346.613 185.964,346.363L185.966,346.345C185.882,346.223 185.771,346.12 185.64,346.045ZM114.36,346.045C114.198,346.141 114.095,346.248 114.036,346.363L114.15,347.15C114.407,347.569 114.857,347.913 114.857,347.913C114.619,347.913 114.4,347.83 114.227,347.69L114.15,347.15C113.993,346.895 113.908,346.613 114.036,346.363L114.034,346.345C114.118,346.223 114.229,346.12 114.36,346.045ZM191.302,344.933C191.223,345.159 191.102,345.35 190.939,345.507L192.326,346.948C192.72,346.569 193.016,346.108 193.203,345.556C193.228,345.498 193.253,345.41 193.268,345.31C193.275,345.261 193.315,344.995 193.377,344.579L191.4,344.282L191.302,344.933ZM108.698,344.933C108.777,345.159 108.898,345.35 109.061,345.507L107.674,346.948C107.28,346.569 106.984,346.108 106.797,345.556C106.772,345.498 106.747,345.41 106.732,345.31C106.725,345.261 106.685,344.995 106.623,344.579L108.6,344.282L108.698,344.933ZM180.093,345.117C180.706,345.476 181.289,345.816 181.819,346.127L182.829,344.4C182.299,344.09 181.716,343.749 181.103,343.39L180.093,345.117ZM119.907,345.117C119.294,345.476 118.711,345.816 118.181,346.127L117.171,344.4C117.701,344.09 118.284,343.749 118.897,343.39L119.907,345.117ZM176.64,343.097C177.216,343.433 177.796,343.773 178.367,344.107L179.377,342.38C178.806,342.046 178.226,341.707 177.65,341.37L176.64,343.097ZM123.36,343.097C122.784,343.433 122.204,343.773 121.633,344.107L120.623,342.38C121.194,342.046 121.774,341.707 122.35,341.37L123.36,343.097ZM193.675,342.601C193.767,341.987 193.869,341.312 193.972,340.624L191.995,340.326C191.891,341.015 191.789,341.69 191.697,342.304L193.675,342.601ZM106.325,342.601C106.233,341.987 106.131,341.312 106.028,340.624L108.005,340.326C108.109,341.015 108.211,341.69 108.303,342.304L106.325,342.601ZM173.188,341.076C173.729,341.393 174.311,341.733 174.914,342.087L175.924,340.36C175.321,340.007 174.739,339.667 174.198,339.35L173.188,341.076ZM126.812,341.076C126.271,341.393 125.689,341.733 125.086,342.087L124.076,340.36C124.679,340.007 125.261,339.667 125.802,339.35L126.812,341.076ZM169.736,339.056C169.736,339.056 170.406,339.449 171.462,340.066L172.472,338.34C171.416,337.722 170.746,337.33 170.746,337.33L169.736,339.056ZM130.264,339.056C130.264,339.056 129.594,339.449 128.538,340.066L127.528,338.34C128.584,337.722 129.254,337.33 129.254,337.33L130.264,339.056ZM194.27,338.646C194.377,337.93 194.479,337.251 194.567,336.668L192.589,336.371C192.502,336.954 192.4,337.633 192.292,338.348L194.27,338.646ZM105.73,338.646C105.623,337.93 105.521,337.251 105.433,336.668L107.411,336.371C107.498,336.954 107.6,337.633 107.708,338.348L105.73,338.646ZM194.635,335.268C194.84,335.06 195.527,334.363 196.04,333.844L194.616,332.439C194.104,332.958 193.416,333.655 193.211,333.863L194.635,335.268ZM105.365,335.268C105.16,335.06 104.473,334.363 103.96,333.844L105.384,332.439C105.896,332.958 106.584,333.655 106.789,333.863L105.365,335.268ZM197.383,332.815C197.87,332.549 198.447,332.274 199.103,331.992L198.313,330.155C197.593,330.464 196.961,330.767 196.427,331.058L197.383,332.815ZM102.617,332.815C102.13,332.549 101.553,332.274 100.897,331.992L101.687,330.155C102.407,330.464 103.039,330.767 103.573,331.058L102.617,332.815ZM200.915,331.27C201.495,331.054 202.114,330.836 202.769,330.617L202.135,328.72C201.458,328.946 200.817,329.172 200.217,329.395L200.915,331.27ZM99.085,331.27C98.505,331.054 97.886,330.836 97.231,330.617L97.865,328.72C98.542,328.946 99.183,329.172 99.783,329.395L99.085,331.27ZM204.65,330.017C205.26,329.83 205.893,329.644 206.548,329.46L206.005,327.535C205.336,327.723 204.689,327.913 204.065,328.104L204.65,330.017ZM95.35,330.017C94.74,329.83 94.107,329.644 93.452,329.46L93.995,327.535C94.664,327.723 95.311,327.913 95.935,328.104L95.35,330.017ZM208.46,328.94C209.085,328.776 209.727,328.614 210.383,328.454L209.909,326.511C209.242,326.674 208.589,326.839 207.953,327.005L208.46,328.94ZM91.54,328.94C90.915,328.776 90.273,328.614 89.617,328.454L90.091,326.511C90.758,326.674 91.411,326.839 92.047,327.005L91.54,328.94ZM300,270.615C290.653,286.758 271.143,298.054 250.909,304.529C224.549,312.966 193.686,316.898 169.889,325.25L169.889,328.42C193.745,319.802 225.112,315.936 251.824,307.387C271.077,301.225 289.858,290.453 300,276.158L300,270.615ZM0,270.355L0,276.016C8.847,288.451 27.34,299.969 46.048,306.033C72.898,314.737 105.383,319.453 129.554,328.193L129.554,325.022C105.422,316.522 73.47,311.769 46.973,303.179C27.048,296.72 7.695,284.655 0,270.355ZM212.314,327.999C212.95,327.855 213.596,327.713 214.253,327.573L213.838,325.617C213.172,325.758 212.516,325.902 211.87,326.049L212.314,327.999ZM87.686,327.999C87.05,327.855 86.404,327.713 85.747,327.573L86.162,325.617C86.828,325.758 87.484,325.902 88.13,326.049L87.686,327.999ZM216.198,327.176C216.841,327.049 217.492,326.926 218.15,326.806L217.791,324.839C217.124,324.96 216.464,325.085 215.812,325.214L216.198,327.176ZM83.802,327.176C83.159,327.049 82.508,326.926 81.85,326.806L82.209,324.839C82.876,324.96 83.536,325.085 84.188,325.214L83.802,327.176ZM220.106,326.464C220.754,326.355 221.408,326.25 222.067,326.149L221.763,324.172C221.095,324.274 220.432,324.381 219.775,324.491L220.106,326.464ZM79.894,326.464C79.246,326.355 78.592,326.25 77.933,326.149L78.237,324.172C78.905,324.274 79.568,324.381 80.225,324.491L79.894,326.464ZM224.031,325.861C224.684,325.771 225.341,325.684 226,325.603L225.754,323.618C225.085,323.701 224.419,323.788 223.756,323.88L224.031,325.861ZM75.969,325.861C75.316,325.771 74.659,325.684 74,325.603L74.246,323.618C74.915,323.701 75.581,323.788 76.244,323.88L75.969,325.861ZM227.971,325.373C228.628,325.302 229.286,325.235 229.946,325.174L229.761,323.183C229.091,323.245 228.422,323.312 227.755,323.385L227.971,325.373ZM72.029,325.373C71.372,325.302 70.714,325.235 70.054,325.174L70.239,323.183C70.909,323.245 71.578,323.312 72.245,323.385L72.029,325.373ZM231.936,324.992C232.609,324.93 233.273,324.869 233.928,324.808L233.745,322.817C233.089,322.877 232.426,322.938 231.754,323L231.936,324.992ZM68.064,324.992C67.391,324.93 66.727,324.869 66.072,324.808L66.255,322.817C66.911,322.877 67.574,322.938 68.246,323L68.064,324.992ZM235.92,324.624C236.593,324.562 237.257,324.5 237.912,324.439L237.727,322.448C237.072,322.509 236.408,322.57 235.736,322.633L235.92,324.624ZM64.08,324.624C63.407,324.562 62.743,324.5 62.088,324.439L62.273,322.448C62.928,322.509 63.592,322.57 64.264,322.633L64.08,324.624ZM239.904,324.253C240.577,324.19 241.241,324.128 241.896,324.066L241.708,322.075C241.054,322.137 240.391,322.199 239.718,322.262L239.904,324.253ZM60.096,324.253C59.423,324.19 58.759,324.128 58.104,324.066L58.292,322.075C58.946,322.137 59.609,322.199 60.282,322.262L60.096,324.253ZM243.888,323.878C244.562,323.814 245.225,323.751 245.879,323.689L245.689,321.698C245.036,321.76 244.373,321.823 243.699,321.887L243.888,323.878ZM56.112,323.878C55.438,323.814 54.775,323.751 54.121,323.689L54.311,321.698C54.964,321.76 55.627,321.823 56.301,321.887L56.112,323.878ZM247.871,323.499C248.546,323.434 249.209,323.37 249.862,323.307L249.67,321.316C249.017,321.379 248.354,321.443 247.679,321.508L247.871,323.499ZM52.129,323.499C51.454,323.434 50.791,323.37 50.138,323.307L50.33,321.316C50.983,321.379 51.646,321.443 52.321,321.508L52.129,323.499ZM251.854,323.113C252.53,323.048 253.193,322.983 253.845,322.918L253.649,320.928C252.998,320.992 252.335,321.057 251.66,321.123L251.854,323.113ZM48.146,323.113C47.47,323.048 46.807,322.983 46.155,322.918L46.351,320.928C47.002,320.992 47.665,321.057 48.34,321.123L48.146,323.113ZM255.836,322.721C256.514,322.654 257.177,322.588 257.827,322.522L257.627,320.533C256.978,320.598 256.315,320.664 255.638,320.731L255.836,322.721ZM44.164,322.721C43.486,322.654 42.823,322.588 42.173,322.522L42.373,320.533C43.022,320.598 43.685,320.664 44.362,320.731L44.164,322.721ZM259.818,322.321C260.497,322.252 261.161,322.184 261.809,322.117L261.604,320.128C260.956,320.195 260.294,320.262 259.616,320.331L259.818,322.321ZM40.182,322.321C39.503,322.252 38.839,322.184 38.191,322.117L38.396,320.128C39.044,320.195 39.706,320.262 40.384,320.331L40.182,322.321ZM263.8,321.91C264.481,321.839 265.144,321.769 265.791,321.7L265.579,319.711C264.934,319.78 264.271,319.85 263.592,319.921L263.8,321.91ZM36.2,321.91C35.519,321.839 34.856,321.769 34.209,321.7L34.421,319.711C35.066,319.78 35.729,319.85 36.408,319.921L36.2,321.91ZM267.782,321.486C268.464,321.412 269.127,321.339 269.772,321.268L269.551,319.28C268.908,319.351 268.247,319.424 267.566,319.498L267.782,321.486ZM32.218,321.486C31.536,321.412 30.873,321.339 30.228,321.268L30.449,319.28C31.092,319.351 31.753,319.424 32.434,319.498L32.218,321.486ZM271.762,321.044C272.448,320.966 273.111,320.89 273.752,320.815L273.52,318.828C272.88,318.903 272.22,318.979 271.536,319.057L271.762,321.044ZM28.238,321.044C27.552,320.966 26.889,320.89 26.248,320.815L26.48,318.828C27.12,318.903 27.78,318.979 28.464,319.057L28.238,321.044ZM275.742,320.579C276.431,320.495 277.093,320.414 277.731,320.334L277.483,318.35C276.847,318.429 276.188,318.51 275.502,318.593L275.742,320.579ZM24.258,320.579C23.569,320.495 22.907,320.414 22.269,320.334L22.517,318.35C23.153,318.429 23.812,318.51 24.498,318.593L24.258,320.579ZM279.721,320.08C280.412,319.989 281.074,319.9 281.709,319.813L281.437,317.832C280.806,317.918 280.149,318.007 279.461,318.096L279.721,320.08ZM20.279,320.08C19.588,319.989 18.926,319.9 18.291,319.813L18.563,317.832C19.194,317.918 19.851,318.007 20.539,318.096L20.279,320.08ZM283.697,319.533C284.39,319.432 285.05,319.334 285.684,319.236L285.379,317.259C284.751,317.356 284.096,317.454 283.41,317.554L283.697,319.533ZM16.303,319.533C15.61,319.432 14.95,319.334 14.316,319.236L14.621,317.259C15.249,317.356 15.904,317.454 16.59,317.554L16.303,319.533ZM287.669,318.92C288.354,318.807 289.011,318.695 289.651,318.583L289.306,316.613C288.673,316.724 288.022,316.835 287.344,316.946L287.669,318.92ZM12.331,318.92C11.646,318.807 10.989,318.695 10.349,318.583L10.694,316.613C11.327,316.724 11.978,316.835 12.656,316.946L12.331,318.92ZM291.629,318.227C292.291,318.104 292.945,317.98 293.601,317.854L293.223,315.89C292.572,316.015 291.923,316.138 291.265,316.26L291.629,318.227ZM8.371,318.227C7.709,318.104 7.055,317.98 6.399,317.854L6.777,315.89C7.428,316.015 8.077,316.138 8.735,316.26L8.371,318.227ZM295.567,317.473C296.205,317.348 296.856,317.22 297.53,317.089L297.147,315.126C296.473,315.257 295.822,315.385 295.184,315.51L295.567,317.473ZM4.433,317.473C3.795,317.348 3.144,317.22 2.47,317.089L2.853,315.126C3.527,315.257 4.178,315.385 4.816,315.51L4.433,317.473ZM300,314.575C299.699,314.633 299.403,314.689 299.113,314.745L299.49,316.709L300,316.612L300,314.575ZM0,314.575C0.301,314.633 0.597,314.689 0.887,314.745L0.51,316.709L0,316.612L0,314.575Z" style="fill:#59499c;"/>
                </g>
            </g>
            <g transform="matrix(1,0,0,1,0,12.1575)">
                <g>
                    <g transform="matrix(1,0,0,1.04195,0,-69.7022)">
                        <rect x="133.674" y="324.836" width="33.989" height="21.142" style="fill:#5e3700;"/>
                    </g>
                    <g transform="matrix(1,0,0,0.961837,0,-42.8932)">
                        <path d="M137.938,324.433C137.938,323.209 136.983,322.216 135.806,322.216L131.541,322.216C130.365,322.216 129.409,323.209 129.409,324.433L129.409,347.032C129.409,348.255 130.365,349.249 131.541,349.249L135.806,349.249C136.983,349.249 137.938,348.255 137.938,347.032L137.938,324.433Z" style="fill:#794700;"/>
                    </g>
                    <g transform="matrix(1,0,0,0.961837,33.1582,-42.8932)">
                        <path d="M137.938,324.433C137.938,323.209 136.983,322.216 135.806,322.216L131.541,322.216C130.365,322.216 129.409,323.209 129.409,324.433L129.409,347.032C129.409,348.255 130.365,349.249 131.541,349.249L135.806,349.249C136.983,349.249 137.938,348.255 137.938,347.032L137.938,324.433Z" style="fill:#794700;"/>
                    </g>
                </g>
                <g>
                    <g transform="matrix(0.869199,0,0,0.869199,19.6753,-11.2818)">
                        <path d="M151.421,317.307C150.601,316.487 149.272,316.487 148.452,317.307L131.556,334.202C130.736,335.022 130.736,336.352 131.556,337.172L148.452,354.067C149.272,354.887 150.601,354.887 151.421,354.067L168.317,337.172C169.137,336.352 169.137,335.022 168.317,334.202L151.421,317.307Z" style="fill:#00851f;"/>
                    </g>
                    <g transform="matrix(1,0,0,1,0,-55.19)">
                        <path d="M150,323.681L150,347.693C150,347.693 162.006,335.687 162.006,335.687L150,323.681ZM163.818,335.284L163.826,335.314L163.832,335.342L163.839,335.372L163.845,335.402L163.847,335.414L163.852,335.444L163.857,335.473L163.861,335.503L163.856,335.471L163.852,335.44L163.848,335.421L163.843,335.394L163.838,335.367L163.832,335.34L163.825,335.312L163.818,335.284C163.815,335.273 163.812,335.262 163.808,335.25L163.818,335.284ZM163.773,335.145L163.786,335.18L163.678,334.941C163.715,335.007 163.747,335.075 163.773,335.145ZM150.938,322.135L151.084,322.265L163.422,334.603C163.422,334.603 163.448,334.629 163.448,334.629L163.474,334.657L163.483,334.667L163.498,334.684L163.508,334.696L163.522,334.713L163.532,334.724L163.546,334.742L163.554,334.753L163.576,334.782L163.597,334.811C163.597,334.811 163.619,334.843 163.619,334.843C163.612,334.833 163.605,334.822 163.597,334.811L163.575,334.78L163.558,334.757L163.537,334.73L163.528,334.719L163.515,334.704L163.503,334.689L163.493,334.678L163.477,334.66L163.47,334.653L163.447,334.627L163.422,334.603C163.422,334.603 151.084,322.265 151.084,322.265C151.038,322.218 150.989,322.175 150.938,322.135ZM150.024,321.816L150,321.815L150,321.816L150.024,321.816L150.063,321.817L150.103,321.819L150.142,321.822L150.181,321.826L150.219,321.831L150.257,321.837C150.244,321.835 150.232,321.833 150.219,321.831L150.178,321.826L150.139,321.822L150.1,321.819L150.061,321.817C150.048,321.816 150.036,321.816 150.024,321.816Z" style="fill:#49d068;"/>
                    </g>
                    <g transform="matrix(1,0,0,1,0,-55.19)">
                        <path d="M150,335.687L162.006,335.687L162.006,335.687L150,323.681L150,335.687ZM163.818,335.284L163.861,335.503L163.808,335.25L163.818,335.284ZM163.773,335.145L163.786,335.18L163.678,334.941C163.715,335.007 163.747,335.075 163.773,335.145ZM150.938,322.135L151.084,322.265L163.422,334.603L163.523,334.723L163.619,334.843C163.619,334.843 163.597,334.811 163.597,334.811L163.523,334.723L163.45,334.631L163.422,334.603C163.422,334.603 151.084,322.265 151.084,322.265L151.067,322.247C151.025,322.208 150.982,322.171 150.938,322.135ZM150.022,321.816L150,321.816L150.257,321.837L150.022,321.816Z" style="fill:#6edc88;"/>
                    </g>
                    <g transform="matrix(1,0,0,1,0,-55.19)">
                        <path d="M149.595,349.504L149.563,349.495L149.599,349.505L149.624,349.512L149.648,349.518L149.673,349.523L149.7,349.529L149.725,349.534L149.752,349.539L149.78,349.543L149.807,349.546L149.835,349.55L149.862,349.552L149.89,349.555L149.924,349.557L149.949,349.558L149.973,349.558C149.982,349.558 149.991,349.559 150,349.559L149.973,349.558L149.947,349.558L149.92,349.556L149.894,349.555L149.867,349.553L149.841,349.55L149.814,349.547L149.788,349.544L149.777,349.542L149.75,349.538L149.724,349.534L149.696,349.528L149.672,349.523L149.646,349.517L149.62,349.511L149.595,349.504ZM149.493,349.473C149.469,349.464 149.446,349.456 149.423,349.446L149.493,349.473ZM148.916,349.109L148.937,349.13L148.958,349.15L148.98,349.17L149.002,349.19C149.012,349.198 149.022,349.206 149.032,349.215L149.002,349.19C149.002,349.19 148.976,349.166 148.976,349.166L148.968,349.159L148.949,349.141L148.941,349.134L148.916,349.109C148.916,349.109 136.578,336.771 136.578,336.771L148.916,349.109ZM150,323.681L150,347.693L137.994,335.687L150,323.681ZM136.451,334.746L136.472,334.719C136.465,334.728 136.458,334.737 136.451,334.746L136.434,334.768L136.421,334.786L136.407,334.805L136.394,334.823L136.382,334.842L136.366,334.866L136.355,334.883L136.343,334.905L136.33,334.926L136.318,334.948L136.302,334.978L136.292,334.998L136.282,335.018L136.273,335.037C136.266,335.051 136.26,335.065 136.253,335.08L136.243,335.103L136.234,335.126L136.226,335.149L136.214,335.182L136.207,335.203L136.2,335.224L136.193,335.245L136.187,335.265L136.18,335.293L136.175,335.312L136.169,335.335L136.164,335.359L136.157,335.394L136.15,335.43L136.156,335.398L136.16,335.378L136.165,335.355L136.17,335.333L136.175,335.31L136.181,335.288L136.189,335.26L136.196,335.235L136.204,335.212L136.211,335.189L136.219,335.167L136.227,335.145L136.235,335.123L136.244,335.101L136.253,335.08L136.263,335.058L136.273,335.037L136.283,335.016L136.293,334.994L136.304,334.973L136.315,334.952L136.327,334.931L136.344,334.902L136.356,334.882L136.369,334.862L136.385,334.837L136.396,334.822L136.409,334.802L136.423,334.782L136.438,334.763L136.451,334.746ZM149.984,321.816L149.983,321.816C149.932,321.816 149.88,321.819 149.829,321.825L149.788,321.83L149.749,321.836L149.71,321.843L149.673,321.851L149.635,321.859L149.599,321.869L149.636,321.859L149.675,321.85L149.713,321.842L149.752,321.836L149.79,321.83L149.829,321.825C149.88,321.819 149.932,321.816 149.983,321.816L149.984,321.816ZM150,321.815L150,321.816L149.984,321.816L150,321.815Z" style="fill:#24bb47;"/>
                    </g>
                    <g transform="matrix(1,0,0,1,0,-55.19)">
                        <path d="M149.771,349.536L149.563,349.495L149.595,349.504L149.698,349.529L149.771,349.536L149.848,349.551L150,349.559L149.771,349.536ZM149.493,349.473C149.481,349.468 149.469,349.464 149.458,349.46C149.446,349.455 149.434,349.451 149.423,349.446L149.493,349.473ZM150,347.693L137.994,335.687L150,335.687L150,347.693Z" style="fill:#0fa432;"/>
                    </g>
                    <g transform="matrix(0.869199,0,0,0.869199,19.6753,-11.2818)">
                        <path d="M151.421,317.307C150.601,316.487 149.272,316.487 148.452,317.307L131.556,334.202C130.736,335.022 130.736,336.352 131.556,337.172L148.452,354.067C149.272,354.887 150.601,354.887 151.421,354.067L168.317,337.172C169.137,336.352 169.137,335.022 168.317,334.202L151.421,317.307ZM133.496,335.687L149.937,352.128L166.377,335.687L149.937,319.246L133.496,335.687Z" style="fill:#cc9d00;"/>
                    </g>
                    <g transform="matrix(0.869199,0,0,0.869199,19.6753,-11.2818)">
                        <path d="M133.293,335.484C133.18,335.596 133.18,335.778 133.293,335.89L149.733,352.331C149.846,352.443 150.028,352.443 150.14,352.331L166.581,335.89C166.693,335.778 166.693,335.596 166.581,335.484L150.14,319.043C150.028,318.931 149.846,318.931 149.733,319.043L133.293,335.484ZM133.903,335.687L149.937,319.653C149.937,319.653 165.97,335.687 165.97,335.687C165.97,335.687 149.937,351.721 149.937,351.721L133.903,335.687Z" style="fill:#9f7a00;"/>
                    </g>
                </g>
            </g>
        </g>
        <g id="name" transform="matrix(1.28514,-0.109696,0.109696,1.28514,-101.653,-23.0334)">
            <g transform="matrix(0.686649,-0.0784767,0.11355,0.993532,47.8984,21.1113)">
                <path d="M281.814,271.656C278.573,271.656 275.942,269.837 275.942,267.597L219.359,267.597C219.359,269.837 216.727,271.656 213.486,271.656L213.486,283.832C216.727,283.832 219.359,285.651 219.359,287.891L275.942,287.891C275.942,285.651 278.573,283.832 281.814,283.832L281.814,271.656Z" style="fill:#4e4183;"/>
            </g>
            <g transform="matrix(0.686649,-0.0784767,0.11355,0.993532,48.9762,18.3265)">
                <path d="M281.814,271.656C278.573,271.656 275.942,269.837 275.942,267.597L219.359,267.597C219.359,269.837 216.727,271.656 213.486,271.656L213.486,283.832C216.727,283.832 219.359,285.651 219.359,287.891L275.942,287.891C275.942,285.651 278.573,283.832 281.814,283.832L281.814,271.656Z" style="fill:#ffd600;"/>
            </g>
            <g transform="matrix(0.598515,-0.068404,0.0905024,0.79187,77.2097,71.8938)">
                <path d="M282.538,271.656C282.538,271.38 282.214,271.156 281.814,271.156C278.972,271.156 276.665,269.561 276.665,267.597C276.665,267.321 276.341,267.097 275.942,267.097L219.359,267.097C218.959,267.097 218.635,267.321 218.635,267.597C218.635,269.561 216.328,271.156 213.486,271.156C213.086,271.156 212.762,271.38 212.762,271.656L212.762,283.832C212.762,284.108 213.086,284.332 213.486,284.332C216.328,284.332 218.635,285.927 218.635,287.891C218.635,288.167 218.959,288.391 219.359,288.391L275.942,288.391C276.341,288.391 276.665,288.167 276.665,287.891C276.665,285.927 278.972,284.332 281.814,284.332C282.214,284.332 282.538,284.108 282.538,283.832L282.538,271.656ZM281.091,272.129L281.091,283.359C278.028,283.591 275.592,285.274 275.258,287.391C275.258,287.391 220.043,287.391 220.043,287.391C219.708,285.274 217.272,283.591 214.209,283.359C214.209,283.359 214.209,272.129 214.209,272.129C217.272,271.897 219.708,270.214 220.043,268.097C220.043,268.097 275.258,268.097 275.258,268.097C275.592,270.214 278.028,271.897 281.091,272.129Z" style="fill:#a78d00;"/>
            </g>
            <g transform="matrix(1,0,0,1,0,-60.19)">
                <path d="M238.702,341.817L263.985,338.924L263.889,338.087L238.607,340.979L238.702,341.817ZM242.159,336.795L244.596,330.638C244.646,330.512 244.704,330.419 244.77,330.36C244.836,330.3 244.937,330.263 245.072,330.248C245.207,330.233 245.319,330.261 245.407,330.332C245.495,330.402 245.548,330.517 245.566,330.676L246.406,338.298C246.422,338.449 246.397,338.571 246.331,338.663C246.265,338.754 246.156,338.809 246.005,338.825C245.862,338.841 245.746,338.812 245.657,338.737C245.568,338.662 245.516,338.549 245.499,338.398L244.82,332.232L242.681,337.586C242.637,337.695 242.587,337.775 242.533,337.826C242.478,337.876 242.395,337.907 242.283,337.92C242.172,337.932 242.082,337.918 242.013,337.877C241.944,337.836 241.881,337.771 241.822,337.681L238.532,332.907L239.213,339.091C239.23,339.242 239.205,339.363 239.139,339.455C239.072,339.547 238.968,339.601 238.824,339.617C238.681,339.632 238.565,339.603 238.477,339.528C238.388,339.453 238.335,339.341 238.319,339.189L237.479,331.568C237.461,331.409 237.488,331.285 237.559,331.197C237.629,331.108 237.736,331.056 237.879,331.041C238.007,331.027 238.111,331.041 238.192,331.085C238.273,331.128 238.352,331.206 238.429,331.318L242.159,336.795ZM250.516,332.291C250.832,332.291 251.109,332.335 251.348,332.424C251.692,332.551 251.962,332.77 252.157,333.083C252.352,333.395 252.479,333.81 252.536,334.327L252.892,337.559C252.909,337.718 252.885,337.846 252.819,337.942C252.753,338.037 252.649,338.093 252.506,338.109C252.355,338.126 252.234,338.095 252.145,338.016C252.056,337.937 252.003,337.818 251.985,337.659L251.921,337.079C251.873,337.243 251.803,337.394 251.712,337.532C251.556,337.767 251.354,337.958 251.105,338.106C250.856,338.255 250.568,338.347 250.242,338.383C249.844,338.426 249.48,338.388 249.149,338.268C248.818,338.147 248.546,337.962 248.333,337.712C248.12,337.461 247.996,337.169 247.959,336.835C247.911,336.406 247.984,336.056 248.175,335.785C248.367,335.515 248.709,335.3 249.203,335.141C249.696,334.982 250.38,334.854 251.255,334.758L251.637,334.716L251.596,334.346C251.542,333.853 251.403,333.508 251.18,333.311C250.957,333.114 250.619,333.041 250.166,333.091C249.888,333.122 249.613,333.188 249.343,333.29C249.072,333.393 248.791,333.54 248.498,333.734C248.393,333.802 248.3,333.83 248.218,333.819C248.136,333.808 248.068,333.773 248.013,333.715C247.959,333.656 247.923,333.586 247.905,333.503C247.888,333.421 247.897,333.337 247.932,333.253C247.967,333.168 248.03,333.097 248.12,333.039C248.45,332.825 248.782,332.66 249.116,332.543C249.449,332.426 249.77,332.35 250.08,332.316L250.516,332.291ZM257.048,331.538C257.124,331.538 257.189,331.556 257.244,331.593C257.322,331.644 257.373,331.741 257.397,331.884C257.42,332.018 257.4,332.129 257.337,332.216C257.274,332.304 257.168,332.364 257.019,332.396L256.831,332.441C256.295,332.548 255.899,332.767 255.642,333.097C255.384,333.427 255.284,333.851 255.341,334.368L255.659,337.254C255.677,337.413 255.648,337.541 255.574,337.638C255.501,337.735 255.384,337.792 255.225,337.809C255.066,337.827 254.94,337.796 254.847,337.718C254.754,337.64 254.698,337.521 254.681,337.362L254.133,332.388C254.115,332.229 254.142,332.104 254.212,332.011C254.282,331.919 254.393,331.865 254.544,331.848C254.695,331.831 254.817,331.86 254.91,331.934C255.002,332.009 255.058,332.125 255.075,332.284L255.144,332.914C255.249,332.589 255.424,332.317 255.67,332.098C256,331.804 256.426,331.62 256.95,331.547L257.048,331.538ZM251.706,335.348L251.746,335.706C251.783,336.048 251.747,336.357 251.637,336.635C251.527,336.913 251.359,337.141 251.133,337.319C250.907,337.496 250.635,337.603 250.317,337.638C249.927,337.681 249.608,337.611 249.358,337.43C249.109,337.248 248.966,336.994 248.93,336.668C248.901,336.405 248.953,336.195 249.084,336.035C249.215,335.876 249.462,335.746 249.826,335.646C250.189,335.545 250.692,335.46 251.337,335.389L251.706,335.348ZM260.661,334.082L263.475,336.2C263.598,336.299 263.666,336.4 263.677,336.504C263.688,336.607 263.66,336.699 263.593,336.778C263.525,336.858 263.431,336.905 263.312,336.918C263.169,336.934 263.05,336.917 262.956,336.867C262.862,336.817 262.745,336.739 262.605,336.634L259.687,334.48L259.664,334.483L259.917,336.785C259.954,337.119 259.809,337.304 259.483,337.34C259.324,337.358 259.2,337.327 259.111,337.248C259.022,337.17 258.969,337.051 258.951,336.892L258.115,329.306C258.098,329.146 258.124,329.021 258.194,328.929C258.265,328.836 258.379,328.781 258.538,328.764C258.689,328.747 258.813,328.776 258.91,328.85C259.007,328.924 259.064,329.04 259.081,329.199L259.608,333.982L259.632,333.979L261.82,331.372C261.92,331.257 262.008,331.166 262.086,331.101C262.163,331.037 262.273,330.996 262.416,330.98C262.544,330.966 262.647,330.989 262.726,331.049C262.805,331.109 262.848,331.188 262.855,331.288C262.862,331.388 262.824,331.499 262.74,331.621L260.661,334.082Z" style="fill:#a78d00;"/>
            </g>
            <g transform="matrix(1,0,0,1,0,-60.19)">
                <path d="M253.817,344.87L236.484,346.851L245.206,325.429L262.539,323.448L253.817,344.87ZM227.381,340.131L227.795,343.759C229.095,343.611 230.322,344.095 231.169,344.966L238.826,326.158L232.788,326.848L227.381,340.131ZM266.201,323.029L257.479,344.452L263.517,343.762L270.838,325.78C269.764,325.158 268.988,324.054 268.837,322.728L266.201,323.029Z" style="fill:#ffea79;fill-opacity:0.35;"/>
            </g>
        </g>
        <g transform="matrix(1,0,0,1,0,-33.4545)">
            <path d="M126.25,280.23C142.493,287.808 158.301,287.348 173.75,280.23" style="fill:none;fill-rule:nonzero;stroke:#cd8e2a;stroke-width:8.99px;"/>
        </g>
        <g>
            <g transform="matrix(1,0,0,1,0,-33.4545)">
                <ellipse cx="271.63" cy="263.06" rx="17.59" ry="13.87" style="fill:url(#_Linear2);"/>
            </g>
            <g transform="matrix(-1,0,0,1,300,-33.4545)">
                <ellipse cx="271.63" cy="263.06" rx="17.59" ry="13.87" style="fill:url(#_Linear3);"/>
            </g>
        </g>
        <g>
            <g transform="matrix(1,0,0,1,0,-33.4545)">
                <circle cx="242.58" cy="222.5" r="36.45" style="fill:#fabc2e;"/>
            </g>
            <g transform="matrix(1,0,0,1,0,-33.4545)">
                <circle cx="57.42" cy="222.5" r="36.45" style="fill:#fabc2e;"/>
            </g>
            <g transform="matrix(1,0,0,1,0,-33.4545)">
                <circle cx="242.58" cy="232.62" r="36.45" style="fill:#fff;"/>
            </g>
            <g transform="matrix(1,0,0,1,0,-33.4545)">
                <circle cx="57.42" cy="232.62" r="36.45" style="fill:#fff;"/>
            </g>
            <g transform="matrix(1,0,0,1,0,-33.4545)">
                <path d="M89.18,227.33C86.794,229.354 83.764,230.466 80.635,230.466C73.388,230.466 67.425,224.503 67.425,217.256C67.425,214.437 68.328,211.69 70,209.42C68.91,209.262 67.809,209.183 66.708,209.183C54.09,209.183 43.708,219.566 43.708,232.183C43.708,244.801 54.09,255.183 66.708,255.183C79.325,255.183 89.708,244.801 89.708,232.183C89.708,230.552 89.534,228.925 89.19,227.33L89.18,227.33ZM57.18,247.09C57.177,247.09 57.173,247.09 57.17,247.09C54.175,247.09 51.71,244.625 51.71,241.63C51.71,238.635 54.175,236.17 57.17,236.17C60.165,236.17 62.63,238.635 62.63,241.63C62.63,241.633 62.63,241.637 62.63,241.64C62.63,244.63 60.17,247.09 57.18,247.09C57.167,247.09 57.153,247.09 57.14,247.09L57.18,247.09Z" style="fill:#414042;fill-rule:nonzero;"/>
            </g>
            <g transform="matrix(1,0,0,1,0,-33.4545)">
                <path d="M255.63,227.2C253.326,228.96 250.505,229.914 247.605,229.914C240.353,229.914 234.385,223.946 234.385,216.694C234.385,214.113 235.142,211.587 236.56,209.43C235.46,209.274 234.351,209.194 233.24,209.19C233.22,209.19 233.2,209.19 233.18,209.19C220.563,209.19 210.18,219.572 210.18,232.19C210.18,244.807 220.563,255.19 233.18,255.19C245.797,255.19 256.18,244.807 256.18,232.19C256.18,230.508 255.996,228.832 255.63,227.19L255.63,227.2ZM223.41,247.09C220.415,247.09 217.95,244.625 217.95,241.63C217.95,238.635 220.415,236.17 223.41,236.17C226.405,236.17 228.87,238.635 228.87,241.63C228.87,241.633 228.87,241.637 228.87,241.64C228.87,244.63 226.41,247.09 223.42,247.09C223.417,247.09 223.413,247.09 223.41,247.09Z" style="fill:#414042;fill-rule:nonzero;"/>
            </g>
        </g>
        <g>
            <g transform="matrix(0.768957,0.156323,-0.156323,0.768957,75.4712,-34.0379)">
                <ellipse cx="241.81" cy="171.51" rx="29.61" ry="17.17" style="fill:#66402d;"/>
            </g>
            <g transform="matrix(-0.768957,0.156323,0.156323,0.768957,224.529,-34.0379)">
                <ellipse cx="241.81" cy="171.51" rx="29.61" ry="17.17" style="fill:#66402d;"/>
            </g>
        </g>
        <g transform="matrix(0.999851,0,0,0.999851,0.0447233,-44.1372)">
            <path d="M80.162,66.095C83.31,63.112 86.302,59.988 89.574,57.133C93.795,53.451 98.44,50.202 102.422,46.255C106.547,42.167 110.234,37.683 114.303,33.554C121.853,25.892 130.143,18.421 138.78,12.005C144.644,7.649 150.308,6.586 157.371,5.471C167.048,3.943 176.619,3.502 186.354,2.826C192.626,2.391 201.926,1.732 207.14,4.657C209.738,6.114 215.818,10.712 218.885,16.439C220.533,19.514 223.884,24.106 225.374,27.264C227.25,31.239 228.818,34.914 231.387,38.488C232.538,40.089 235.718,45.074 235.145,47.263C234.49,49.767 231.587,51.517 227.913,51.223C223.634,50.882 215.447,46.78 214.562,44.81C214.273,44.165 215.276,47.469 215.97,52.766C216.628,57.788 216.371,62.467 217.344,67.436C217.516,68.313 217.8,69.285 217.916,70.238C218.916,70.302 219.893,70.373 220.844,70.451C232.898,71.436 247.583,73.671 259.507,75.99C273.884,78.785 300,80.999 300,85.953C300,96.191 299.178,100.476 287.434,105.475C269.52,113.1 241.592,116.478 222.408,118.887C204.947,121.081 186.984,122.897 169.365,123.148C159.854,123.283 148.772,122.518 139.272,122.34C109.902,121.788 80.914,121.444 52.139,114.864C40.244,112.144 28.759,109.32 17.871,106.034C13.892,104.832 4.151,99.16 1.092,95.804C-4.717,89.431 13.467,86.176 16.538,84.975C18.094,84.367 26.613,82.291 30.413,81.23C40.148,78.511 47.352,76.796 57.015,73.91C64.712,71.612 72.205,67.579 80.162,66.095Z" style="fill:#6958b0;"/>
            <path d="M277.765,78.928C289.263,80.726 300,82.776 300,85.953C300,96.191 299.178,100.476 287.434,105.475C269.52,113.1 241.592,116.478 222.408,118.887C204.947,121.081 186.984,122.897 169.365,123.148C159.854,123.283 148.772,122.518 139.272,122.34C109.902,121.788 80.914,121.444 52.139,114.864C40.244,112.144 28.759,109.32 17.871,106.034C13.892,104.832 4.151,99.16 1.092,95.804C-4.717,89.431 13.467,86.176 16.538,84.975C18.094,84.367 26.613,82.291 30.413,81.23C31.032,81.057 31.641,80.888 32.242,80.722C42.347,85.06 51.404,87.292 61.359,89.241C73.656,91.648 81.606,94.066 96.58,95.766C108.942,97.169 121.392,97.926 133.834,98.078C153.016,98.313 172.275,96.948 191.437,96.197C203.184,95.737 215.024,96.002 226.8,95.651C242.979,95.169 260.852,91.124 274.316,81.682C275.538,80.826 276.677,79.902 277.765,78.928Z" style="fill:#b3a2f9;"/>
            <path d="M80.162,66.095C83.31,63.112 86.302,59.988 89.574,57.133C93.795,53.451 98.44,50.202 102.422,46.255C106.547,42.167 110.234,37.683 114.303,33.554C121.853,25.892 130.143,18.421 138.78,12.005C144.644,7.649 150.308,6.586 157.371,5.471C167.048,3.943 176.619,3.502 186.354,2.826C192.626,2.391 201.926,1.732 207.14,4.657C209.738,6.114 215.818,10.712 218.885,16.439C220.533,19.514 223.884,24.106 225.374,27.264C227.25,31.239 228.818,34.914 231.387,38.488C232.538,40.089 235.718,45.074 235.145,47.263C234.49,49.767 231.587,51.517 227.913,51.223C223.634,50.882 215.447,46.78 214.562,44.81C214.273,44.165 215.276,47.469 215.97,52.766C216.628,57.788 216.371,62.467 217.344,67.436C217.516,68.313 217.8,69.285 217.916,70.238C218.916,70.302 219.893,70.373 220.844,70.451C232.898,71.436 247.583,73.671 259.507,75.99C273.884,78.785 300,80.999 300,85.953C300,96.191 299.178,100.476 287.434,105.475C269.52,113.1 241.592,116.478 222.408,118.887C204.947,121.081 186.984,122.897 169.365,123.148C159.854,123.283 148.772,122.518 139.272,122.34C109.902,121.788 80.914,121.444 52.139,114.864C40.244,112.144 28.759,109.32 17.871,106.034C13.892,104.832 4.151,99.16 1.092,95.804C-4.717,89.431 13.467,86.176 16.538,84.975C18.094,84.367 26.613,82.291 30.413,81.23C40.148,78.511 47.352,76.796 57.015,73.91C64.712,71.612 72.205,67.579 80.162,66.095ZM171.238,6.886C166.777,7.255 162.32,7.726 157.839,8.434C151.288,9.469 146.008,10.373 140.569,14.413C132.055,20.739 123.883,28.106 116.439,35.66C112.362,39.797 108.667,44.289 104.534,48.385C100.507,52.377 95.815,55.67 91.546,59.394C88.306,62.221 85.343,65.318 82.226,68.272C81.806,68.67 81.281,68.938 80.713,69.044C72.858,70.509 65.471,74.516 57.874,76.785C48.192,79.676 40.974,81.395 31.22,84.119C27.499,85.158 19.154,87.173 17.631,87.769C15.844,88.468 8.765,89.838 4.617,92.194C4.018,92.534 3.312,93.171 3.042,93.424C3.114,93.535 3.217,93.681 3.31,93.783C6.12,96.866 15.082,102.058 18.738,103.162C29.563,106.429 40.981,109.236 52.807,111.94C81.38,118.473 110.165,118.792 139.328,119.34C148.797,119.518 159.842,120.283 169.323,120.148C181.474,119.975 193.789,119.051 205.99,117.773C205.802,116.489 205.551,115.297 205.233,114.247C204.215,110.895 198.114,103.604 194.603,98.317C188.53,89.172 182.178,79.746 176.241,70.497C172.321,64.39 167.125,59.191 163.895,52.715C162.338,49.594 160.76,45.602 160.45,42.173C159.546,32.162 160.699,21.751 166.131,13.178C167.448,11.099 169.247,8.933 171.238,6.886ZM231.933,45.667C231.848,45.397 231.752,45.119 231.653,44.893C230.845,43.047 229.569,41.099 228.951,40.239C226.272,36.512 224.617,32.689 222.661,28.544C221.189,25.424 217.868,20.894 216.241,17.855C213.483,12.707 208.008,8.584 205.672,7.273C203.912,6.286 201.585,5.836 199.106,5.611C194.861,5.226 190.187,5.567 186.562,5.819C184.96,5.93 183.363,6.034 181.769,6.138L182.028,6.412C181.331,7.074 180.609,7.766 179.882,8.477L177.851,6.397C177.206,6.441 176.562,6.485 175.917,6.53C173.108,9.073 170.424,12.007 168.665,14.783C163.587,22.798 162.593,32.545 163.438,41.904C163.717,44.989 165.179,48.567 166.58,51.376C169.761,57.755 174.904,62.861 178.766,68.877C184.695,78.112 191.037,87.525 197.102,96.657C200.772,102.183 207.04,109.873 208.103,113.376C208.47,114.582 208.755,115.964 208.967,117.454C213.344,116.975 217.705,116.455 222.034,115.911C240.978,113.531 268.569,110.244 286.259,102.714C291.278,100.578 294.076,98.752 295.506,96.208C296.89,93.748 296.993,90.755 296.998,86.648C296.369,86.322 294.661,85.475 293.124,85.022C284.609,82.516 268.917,80.876 258.935,78.935C247.112,76.636 232.552,74.417 220.6,73.441C219.665,73.364 218.705,73.295 217.722,73.231C216.283,73.138 215.113,72.033 214.938,70.601C214.83,69.72 214.559,68.824 214.4,68.013C213.414,62.98 213.662,58.242 212.996,53.156C212.486,49.261 211.802,46.466 211.612,45.576C211.601,45.542 211.591,45.508 211.583,45.473C210.696,41.804 209.588,37.378 207.667,33.674C206.75,31.908 205.651,30.306 204.277,29.069C203.822,28.825 203.371,28.572 202.928,28.301C202.317,27.926 202.068,27.183 202.293,26.532C202.326,26.341 202.398,26.154 202.51,25.981C202.958,25.285 203.888,25.085 204.583,25.534C205.088,25.859 205.567,26.22 206.024,26.613C208.693,28.041 211.483,29.166 213.822,31.211C215.452,32.636 216.918,34.499 218.089,36.317C219.118,37.916 221.048,39.952 222.413,41.32C224.915,43.827 227.966,45.058 230.096,45.569C230.689,45.711 231.319,45.663 231.933,45.667ZM210.6,112.697C210.832,113.547 210.984,114.458 211.081,115.405L214.065,115.1C213.951,113.984 213.767,112.91 213.495,111.908L210.6,112.697ZM207.688,108.076C208.244,108.89 208.913,109.677 209.5,110.502L211.944,108.762C211.368,107.953 210.71,107.181 210.164,106.383L207.688,108.076ZM204.385,103.115C204.958,103.909 205.519,104.712 206.063,105.531L208.562,103.871C207.996,103.02 207.413,102.184 206.817,101.359L204.385,103.115ZM200.791,98.386C201.404,99.167 202.015,99.951 202.617,100.741L205.002,98.92C204.391,98.12 203.773,97.326 203.152,96.534L200.791,98.386ZM197.087,93.639C197.698,94.441 198.316,95.235 198.937,96.027L201.298,94.176C200.686,93.395 200.076,92.611 199.473,91.82L197.087,93.639ZM193.533,88.694C193.915,89.264 194.302,89.83 194.697,90.391C194.888,90.662 195.08,90.931 195.274,91.2L197.707,89.445C197.52,89.186 197.335,88.925 197.15,88.664C196.769,88.121 196.394,87.574 196.024,87.023L193.533,88.694ZM190.276,83.585C190.803,84.444 191.335,85.299 191.875,86.149L194.407,84.541C193.875,83.703 193.351,82.86 192.831,82.014L190.276,83.585ZM187.148,78.467C187.671,79.316 188.19,80.167 188.709,81.019L191.271,79.459C190.75,78.602 190.228,77.746 189.701,76.892L187.148,78.467ZM183.942,73.472C184.495,74.289 185.036,75.114 185.568,75.946L188.095,74.33C187.549,73.476 186.994,72.628 186.426,71.79L183.942,73.472ZM180.463,68.742C181.078,69.502 181.671,70.277 182.248,71.064L184.668,69.291C184.063,68.466 183.441,67.653 182.797,66.856L180.463,68.742ZM176.624,64.146C177.265,64.926 177.911,65.699 178.557,66.465L180.851,64.532C180.214,63.775 179.576,63.013 178.943,62.242L176.624,64.146ZM172.885,59.342C173.482,60.165 174.097,60.976 174.724,61.778L177.088,59.931C176.483,59.157 175.889,58.373 175.312,57.579L172.885,59.342ZM169.517,54.186C170.029,55.078 170.571,55.954 171.137,56.817L173.645,55.171C173.112,54.358 172.601,53.533 172.119,52.693L169.517,54.186ZM166.836,48.544C167.084,49.222 167.35,49.878 167.633,50.508C167.774,50.82 167.918,51.13 168.066,51.438L170.769,50.137C170.632,49.853 170.499,49.567 170.37,49.279C170.116,48.712 169.876,48.122 169.653,47.512L166.836,48.544ZM228.528,48.255C226.085,47.54 222.931,46.086 220.29,43.439C218.793,41.94 216.694,39.693 215.566,37.941C214.543,36.352 213.272,34.715 211.847,33.469C211.365,33.048 210.862,32.669 210.344,32.32C211.876,35.281 212.932,38.67 213.761,41.823C214.238,41.694 214.754,41.684 215.313,41.837C215.515,41.893 216.525,42.079 217.196,43.369C217.396,43.526 218.758,44.583 219.865,45.196C222.453,46.63 225.907,48.054 228.152,48.233C228.278,48.243 228.403,48.25 228.528,48.255ZM212.232,46.717C212.143,46.594 212.064,46.476 211.996,46.363C211.928,46.249 211.871,46.141 211.825,46.039C211.947,46.309 212.086,46.533 212.232,46.717ZM165.201,42.523C165.397,43.559 165.629,44.574 165.893,45.558L168.79,44.778C168.545,43.866 168.331,42.926 168.149,41.965L165.201,42.523ZM164.467,36.369C164.521,37.405 164.609,38.436 164.73,39.456L167.71,39.102C167.596,38.148 167.514,37.182 167.463,36.212L164.467,36.369ZM164.56,30.169C164.473,31.194 164.423,32.231 164.408,33.27L167.408,33.313C167.422,32.344 167.468,31.378 167.549,30.422L164.56,30.169ZM165.574,24.012C165.32,25.007 165.109,26.032 164.939,27.078L167.9,27.559C168.056,26.602 168.249,25.664 168.481,24.752L165.574,24.012ZM167.808,18.077C167.321,18.996 166.889,19.973 166.509,20.996L169.322,22.04C169.655,21.143 170.033,20.286 170.459,19.48L167.808,18.077ZM171.486,12.937C170.766,13.775 170.107,14.589 169.538,15.358L171.949,17.143C172.479,16.428 173.091,15.672 173.762,14.892L171.486,12.937ZM175.638,8.467C174.92,9.196 174.213,9.931 173.532,10.66L175.726,12.706C176.388,11.997 177.077,11.282 177.776,10.572L175.638,8.467Z" style="fill:#59499c;"/>
            <g transform="matrix(1.00015,0,0,1.00015,-0.0447299,-11.0545)">
                <path d="M231.797,118.376C231.589,118.322 231.47,118.236 231.255,118.233C231.012,118.229 230.781,118.339 230.544,118.393C226.979,119.209 223.378,119.781 219.747,120.168C213.677,120.815 207.542,121.021 201.467,121.399C195.147,121.804 188.87,122.438 182.568,122.882C179.88,123.072 177.188,123.228 174.486,123.314C155.592,123.93 136.751,124.027 118.005,122.931C99.29,121.836 80.666,119.551 62.183,115.25C56.966,114.046 51.487,113.329 46.142,112.248C43.675,111.749 41.247,111.141 38.867,110.425C38.663,110.363 38.461,110.292 38.252,110.246C37.383,110.057 36.541,109.993 35.671,109.819C35.469,109.737 35.239,109.834 35.157,110.036C35.075,110.237 35.173,110.468 35.374,110.549C36.093,111.015 36.76,111.484 37.533,111.855C38.057,112.107 38.613,112.284 39.166,112.467C40.444,112.891 41.759,113.209 43.078,113.523C49.233,114.992 55.667,115.733 61.742,117.153C80.336,121.463 99.068,123.8 117.897,124.834C136.701,125.867 155.598,125.601 174.542,124.863C177.263,124.755 179.973,124.578 182.679,124.363C188.975,123.861 195.243,123.157 201.556,122.688C207.641,122.224 213.791,121.945 219.865,121.196C223.529,120.744 227.172,120.151 230.743,119.196C230.981,119.133 231.24,119.119 231.454,118.995C231.64,118.887 231.704,118.754 231.858,118.602C231.92,118.586 231.957,118.521 231.941,118.459C231.924,118.396 231.86,118.359 231.797,118.376ZM289.994,99.393C289.066,100.87 287.89,102.068 286.629,103.204C284.787,104.865 282.687,106.285 280.346,107.417C274.455,110.264 267.368,111.607 261.801,112.868C260.102,113.28 258.379,113.57 256.685,113.995C255.539,114.283 254.441,114.661 253.303,114.983C253.163,115.007 253.069,115.139 253.092,115.279C253.116,115.418 253.248,115.513 253.388,115.489C254.574,115.423 255.742,115.405 256.92,115.263C258.671,115.051 260.392,114.646 262.121,114.282C267.786,113.001 275.027,111.691 280.987,108.725C283.451,107.498 285.757,106.045 287.526,104.106C288.726,102.79 289.631,101.257 290.325,99.563C290.371,99.471 290.335,99.359 290.244,99.312C290.153,99.265 290.04,99.301 289.994,99.393ZM26.783,108.423C26.569,108.254 26.446,108.087 26.204,107.961C26.006,107.858 25.777,107.83 25.562,107.77C22.463,106.908 19.43,105.942 16.47,104.705C16.175,104.582 15.882,104.455 15.581,104.344C15.125,104.176 14.667,104.044 14.206,103.878C14.056,103.802 13.871,103.862 13.794,104.012C13.718,104.163 13.778,104.347 13.928,104.424C14.506,104.801 15.065,105.185 15.673,105.501C17.086,106.236 18.595,106.752 20.098,107.258C22.02,107.906 23.933,108.853 25.977,108.889C26.25,108.894 26.438,108.799 26.707,108.744C26.795,108.765 26.884,108.71 26.905,108.621C26.926,108.533 26.871,108.444 26.783,108.423Z" style="fill:#59499c;"/>
            </g>
            <path d="M80.162,66.095C83.31,63.112 86.302,59.988 89.574,57.133C91.781,55.208 94.104,53.401 96.387,51.551C135.866,44.492 187.496,43.646 216.334,56.6C216.577,60.224 216.622,63.751 217.344,67.436C217.505,68.258 217.765,69.164 217.892,70.059L217.916,70.238C170.074,73.507 124.114,72.228 80.162,66.095Z" style="fill:#160e3c;"/>
            <g transform="matrix(0.999523,0.0308928,-0.0308928,0.999523,0.318532,-4.01421)">
                <path d="M177.476,47.767C177.476,45.086 175.3,42.91 172.619,42.91L145.735,42.91C143.055,42.91 140.878,45.086 140.878,47.767L140.878,68.693C140.878,71.373 143.055,73.55 145.735,73.55L172.619,73.55C175.3,73.55 177.476,71.373 177.476,68.693L177.476,47.767ZM146.879,67.549L171.475,67.549L171.475,48.911L146.879,48.911L146.879,67.549Z" style="fill:#ffd600;"/>
            </g>
            <g transform="matrix(0.999523,0.0308928,-0.0308928,0.999523,0.318532,-4.01421)">
                <path d="M178.476,47.767C178.476,44.534 175.852,41.91 172.619,41.91C172.619,41.91 145.735,41.91 145.735,41.91C142.503,41.91 139.878,44.534 139.878,47.767C139.878,47.767 139.878,68.693 139.878,68.693C139.878,71.925 142.503,74.55 145.735,74.55C145.735,74.55 172.619,74.55 172.619,74.55C175.852,74.55 178.476,71.925 178.476,68.693L178.476,47.767ZM176.476,47.767L176.476,68.693C176.476,70.821 174.748,72.55 172.619,72.55L145.735,72.55C143.607,72.55 141.878,70.821 141.878,68.693C141.878,68.693 141.878,47.767 141.878,47.767C141.878,45.638 143.607,43.91 145.735,43.91C145.735,43.91 172.619,43.91 172.619,43.91C174.748,43.91 176.476,45.638 176.476,47.767ZM145.879,67.549C145.879,68.101 146.327,68.549 146.879,68.549L171.475,68.549C172.028,68.549 172.475,68.101 172.475,67.549L172.475,48.911C172.475,48.358 172.028,47.91 171.475,47.91L146.879,47.91C146.327,47.91 145.879,48.358 145.879,48.911L145.879,67.549ZM147.879,66.549L147.879,49.911C147.879,49.911 170.475,49.911 170.475,49.911C170.475,49.911 170.475,66.549 170.475,66.549L147.879,66.549Z" style="fill:#a78d00;"/>
            </g>
        </g>
    </g>
    <defs>
        <linearGradient id="_Linear1" x1="0" y1="0" x2="1" y2="0" gradientUnits="userSpaceOnUse" gradientTransform="matrix(4.35076e-15,-71.0533,20.9171,1.2808e-15,150,400)"><stop offset="0" style="stop-color:#3c2d7b;stop-opacity:1"/><stop offset="0.45" style="stop-color:#5f4fa5;stop-opacity:1"/><stop offset="1" style="stop-color:#6958b0;stop-opacity:1"/></linearGradient>
        <linearGradient id="_Linear2" x1="0" y1="0" x2="1" y2="0" gradientUnits="userSpaceOnUse" gradientTransform="matrix(14.93,54.51,-54.51,14.93,262.25,228.77)"><stop offset="0" style="stop-color:#fabc2e;stop-opacity:0.1"/><stop offset="1" style="stop-color:#f27ba5;stop-opacity:1"/></linearGradient>
        <linearGradient id="_Linear3" x1="0" y1="0" x2="1" y2="0" gradientUnits="userSpaceOnUse" gradientTransform="matrix(14.93,54.51,-54.51,14.93,262.25,228.77)"><stop offset="0" style="stop-color:#fabc2e;stop-opacity:0.1"/><stop offset="1" style="stop-color:#f27ba5;stop-opacity:1"/></linearGradient>
    </defs>
</svg>
