<?xml version="1.0" encoding="UTF-8" standalone="no"?>
<!DOCTYPE svg PUBLIC "-//W3C//DTD SVG 1.1//EN" "http://www.w3.org/Graphics/SVG/1.1/DTD/svg11.dtd">
<svg width="100%" height="100%" viewBox="0 0 300 400" version="1.1" xmlns="http://www.w3.org/2000/svg" xmlns:xlink="http://www.w3.org/1999/xlink" xml:space="preserve" xmlns:serif="http://www.serif.com/" style="fill-rule:evenodd;clip-rule:evenodd;stroke-miterlimit:10;">
    <g id="halloween" transform="matrix(1,0,0,1,0,55.19)">
        <g>
            <path d="M263.62,344.81L36.38,344.81C16.423,344.81 0,328.387 0,308.43L0,242.43L300,242.43L300,308.43C300,328.387 283.577,344.81 263.62,344.81Z" style="fill:url(#_Linear1);fill-rule:nonzero;"/>
            <g transform="matrix(0.998213,0,0,2.19652,0.345754,-412.574)">
                <path d="M193.435,298.2L106.395,298.2L106.395,323.59C95.827,331.314 98.739,339.215 76.038,344.81L225.197,344.81C202.415,341.695 202.508,330.742 193.435,323.59L193.435,298.2Z" style="fill:#e0e0e0;"/>
            </g>
            <g transform="matrix(1,0,0,1,0,-55.19)">
                <path d="M118.851,297.62L106.551,297.62L106.551,353.39C105.289,355.419 104.22,357.454 103.276,359.485L103.276,400L118.851,400L118.851,297.62ZM150,297.62L134.425,297.62L134.425,400L150,400L150,297.62ZM181.149,297.62L165.575,297.62L165.575,400L181.149,400L181.149,297.62ZM196.724,360.251L196.724,400L212.298,400L212.298,392.48C203.789,383.987 201.184,371.176 196.724,360.251ZM87.702,400L87.702,391.428C84.806,394.484 81.117,397.359 76.247,400L87.702,400Z" style="fill:#160e3c;"/>
            </g>
        </g>
        <path d="M300,81.19C300,61.111 283.699,44.81 263.62,44.81L36.38,44.81C16.301,44.81 0,61.111 0,81.19L0,261.82C0,281.899 16.301,298.2 36.38,298.2L263.62,298.2C283.699,298.2 300,281.899 300,261.82L300,81.19Z" style="fill:#ffcd05;"/>
        <path d="M0,152.789L0,81.19C0,61.111 16.301,44.81 36.38,44.81L263.62,44.81C283.699,44.81 300,61.111 300,81.19L300,152.789L252.053,104.465L246.698,104.51L246.006,110.582C236.42,113.209 227.505,112.472 219.798,105.701C219.979,112.343 219.52,118.985 217.594,125.626C208.96,123.634 201.398,119.141 194.568,112.937L192.87,153.498L129.816,93.28L117.383,91.569L95.967,126.958L81.009,106.849L50.597,122.277L45.812,105.637L0,152.789Z" style="fill:#fabc2e;"/>
        <path d="M0,152.789L0,81.19C0,61.111 16.301,44.81 36.38,44.81L263.62,44.81C283.699,44.81 300,61.111 300,81.19L300,152.789L252.053,95.778L246.698,95.822L246.006,101.894C236.42,104.521 227.505,103.785 219.798,97.013C219.979,103.655 219.52,110.297 217.594,116.938C208.96,114.946 201.398,110.453 194.568,104.249L192.87,144.81L127.82,73.605L115.245,73.605L95.967,119.3L81.009,99.191L50.597,114.619L45.812,97.979L0,152.789Z" style="fill:#966740;"/>
        <g transform="matrix(1,0,0,1,0,-55.19)">
            <path d="M3.332,121.161C9.095,108.675 21.733,100 36.38,100L263.62,100C278.988,100 292.144,109.55 297.471,123.036C261.889,141.445 203.029,149.125 145.243,147.866L127.82,128.795L115.245,128.795L108.067,145.807C66.342,142.059 28.117,133.6 3.332,121.161Z" style="fill:#734a27;"/>
        </g>
        <g>
            <g transform="matrix(1.80035,0,0,0.511538,-122.452,121.817)">
                <rect x="106.395" y="298.2" width="87.04" height="46.61" style="fill:#fff;"/>
            </g>
            <g transform="matrix(1,0,0,1,0,-55.19)">
                <path d="M87.702,353.39L72.127,353.39L72.127,329.547L87.702,329.547L87.702,353.39ZM118.851,353.39L103.276,353.39L103.276,329.547L118.851,329.547L118.851,353.39ZM150,353.39L134.425,353.39L134.425,329.547L150,329.547L150,353.39ZM181.149,353.39L165.575,353.39L165.575,329.547L181.149,329.547L181.149,353.39ZM212.298,353.39L196.724,353.39L196.724,329.547L212.298,329.547L212.298,353.39Z" style="fill:#2c215c;"/>
            </g>
            <path d="M150,274.357L0,256.494L0,261.82C0,281.899 16.301,298.2 36.38,298.2L106.547,298.2C115.098,287.165 126.427,284.877 149.993,284.16L150,274.357ZM150,274.357L149.993,284.16C171.928,284.03 186.836,287.899 193.453,298.2L263.62,298.2C283.699,298.2 300,281.899 300,261.82L300,256.494L150,274.357Z" style="fill:#6958b0;"/>
            <g transform="matrix(1,0,0,1,0,-61.5067)">
                <path d="M300,273.275C299.823,273.275 299.561,273.19 299.472,273.346C275.737,314.766 199.385,311.506 158.429,331.602L158.149,331.768L157.865,332.013L157.663,332.262L157.509,332.528L157.486,332.577C157.406,332.753 157.355,332.936 157.329,333.121L157.312,333.482C157.32,333.668 157.354,333.856 157.416,334.039L157.562,334.369L157.728,334.622L157.939,334.854L158.175,335.044L158.261,335.1L178.268,347.425C182.931,350.616 188.186,351.636 191.719,350.541C194.558,349.66 196.504,347.574 196.748,344.188C196.747,344.196 197.855,336.441 197.855,336.441C225.61,325.844 262.267,327.631 300,321.375L300,273.275ZM0,273.181C0.177,273.181 0.449,273.09 0.528,273.252C19.349,311.684 100.615,311.506 141.571,331.602L141.851,331.768L142.135,332.013L142.337,332.262L142.491,332.528L142.514,332.577C142.594,332.753 142.645,332.936 142.671,333.121L142.688,333.482C142.68,333.668 142.646,333.856 142.584,334.039L142.438,334.369L142.272,334.622L142.061,334.854L141.825,335.044L141.739,335.1L121.732,347.425C117.069,350.616 111.814,351.636 108.281,350.541C105.442,349.66 103.496,347.574 103.252,344.188C103.253,344.196 102.145,336.441 102.145,336.441C74.39,325.844 37.733,327.631 0,321.375L0,273.181Z" style="fill:#fabc2e;"/>
            </g>
            <g transform="matrix(1.09211,0,0,0.644737,-12.047,66.4778)">
                <path d="M170.051,315.078C170.051,309.098 167.185,304.243 163.654,304.243L133.106,304.243C129.576,304.243 126.709,309.098 126.709,315.078L126.709,336.749C126.709,342.729 129.576,347.585 133.106,347.585L163.654,347.585C167.185,347.585 170.051,342.729 170.051,336.749L170.051,315.078Z" style="fill:#fabc2e;"/>
            </g>
            <g transform="matrix(1,0,0,1,0,-55.19)">
                <path d="M128.134,351.084L121.732,355.028C117.069,358.22 108.115,356.259 104.583,355.163C101.743,354.282 99.798,352.197 99.554,348.81C99.554,348.818 98.447,341.063 98.447,341.063C70.691,330.466 37.733,335.235 0,328.979L0,280.785C0.177,280.785 0.449,280.694 0.528,280.856C17.228,314.957 83.091,318.659 126.333,333.099L126.333,332.432C126.333,328.576 129.463,325.446 133.319,325.446L166.681,325.446C170.537,325.446 173.667,328.576 173.667,332.432L173.667,333.149C216.095,319.273 278.44,317.653 299.472,280.95C299.561,280.794 299.823,280.879 300,280.879L300,328.979C262.267,335.235 230.743,330.872 202.987,341.469C202.987,341.469 201.88,349.224 201.88,349.215C201.637,352.602 199.691,354.687 196.851,355.568C193.319,356.664 182.931,358.22 178.268,355.028L171.866,351.084C170.586,352.5 168.737,353.39 166.681,353.39L133.319,353.39C131.263,353.39 129.414,352.5 128.134,351.084Z" style="fill-opacity:0.25;"/>
            </g>
            <g transform="matrix(1,0,0,1,0,-55.19)">
                <path d="M300,273.275C299.823,273.275 299.561,273.19 299.472,273.346C275.737,314.766 199.385,311.506 158.429,331.602L158.149,331.768L157.865,332.013L157.663,332.262L157.509,332.528L157.486,332.577C157.406,332.753 157.355,332.936 157.329,333.121L157.312,333.482C157.32,333.668 157.354,333.856 157.416,334.039L157.562,334.369L157.728,334.622L157.939,334.854L158.175,335.044L158.261,335.1L178.268,347.425C182.931,350.616 188.186,351.636 191.719,350.541C194.558,349.66 196.504,347.574 196.748,344.188C196.747,344.196 197.855,336.441 197.855,336.441C225.61,325.844 262.267,327.631 300,321.375L300,273.275ZM0,273.181C0.177,273.181 0.449,273.09 0.528,273.252C19.349,311.684 100.615,311.506 141.571,331.602L141.851,331.768L142.135,332.013L142.337,332.262L142.491,332.528L142.514,332.577C142.594,332.753 142.645,332.936 142.671,333.121L142.688,333.482C142.68,333.668 142.646,333.856 142.584,334.039L142.438,334.369L142.272,334.622L142.061,334.854L141.825,335.044L141.739,335.1L121.732,347.425C117.069,350.616 111.814,351.636 108.281,350.541C105.442,349.66 103.496,347.574 103.252,344.188C103.253,344.196 102.145,336.441 102.145,336.441C74.39,325.844 37.733,327.631 0,321.375L0,273.181Z" style="fill:#b3a2f9;"/>
            </g>
            <g transform="matrix(1,0,0,1,0,-55.19)">
                <path d="M121.494,323.949C128.828,326.193 135.624,328.684 141.571,331.602L141.851,331.768L142.135,332.013L142.337,332.262L142.491,332.528L142.514,332.577C142.594,332.753 142.645,332.936 142.671,333.121L142.688,333.482C142.68,333.668 142.646,333.856 142.584,334.039L142.438,334.369L142.272,334.622L142.061,334.854L141.825,335.044L141.739,335.1L121.732,347.425L121.494,323.949ZM178.642,323.997C171.318,326.168 164.486,328.629 158.429,331.602L158.149,331.768L157.865,332.013L157.663,332.262L157.509,332.528L157.486,332.577C157.406,332.753 157.355,332.936 157.329,333.121L157.312,333.482C157.32,333.668 157.354,333.856 157.416,334.039L157.562,334.369L157.728,334.622L157.939,334.854L158.175,335.044L158.261,335.1L178.084,347.311L178.642,323.997Z" style="fill:#a995ff;"/>
            </g>
            <g transform="matrix(1,0,0,1,0,-55.19)">
                <path d="M0,319.898L0,322.934C36.274,328.589 73.892,327.563 100.785,337.532C101.039,339.306 101.599,343.226 101.737,344.185C101.742,344.223 101.748,344.26 101.756,344.295L101.756,344.297C102.051,348.39 104.405,350.909 107.837,351.973C111.697,353.171 117.46,352.158 122.557,348.677L129.554,344.367L129.554,340.844L120.945,346.147C120.924,346.16 120.904,346.173 120.884,346.187C116.662,349.077 111.925,350.1 108.726,349.108C106.479,348.411 104.941,346.76 104.748,344.08L104.746,344.08L104.748,344.079L104.706,343.76C104.527,342.51 103.63,336.229 103.63,336.229C103.553,335.689 103.189,335.234 102.68,335.04C75.403,324.625 37.043,325.739 0,319.898ZM300,319.89C262.756,325.839 224.74,324.57 197.32,335.04C196.811,335.234 196.447,335.689 196.37,336.229C196.37,336.229 195.473,342.51 195.294,343.76L195.252,344.079L195.254,344.08L195.252,344.08C195.059,346.76 193.521,348.411 191.274,349.108C188.075,350.1 183.338,349.077 179.116,346.187C179.096,346.173 179.076,346.16 179.055,346.147L169.889,340.501L169.889,344.025L177.452,348.683C182.547,352.159 188.305,353.17 192.163,351.973C195.595,350.909 197.949,348.39 198.244,344.297L198.244,344.295C198.252,344.26 198.258,344.223 198.263,344.185C198.401,343.226 198.961,339.306 199.214,337.532C226.252,327.51 263.523,328.688 300,322.927L300,319.89ZM300,270.615C290.653,286.758 271.143,298.054 250.909,304.529C224.549,312.966 193.686,316.898 169.889,325.25L169.889,328.42C193.745,319.802 225.112,315.936 251.824,307.387C271.077,301.225 289.858,290.453 300,276.158L300,270.615ZM0,270.355L0,276.016C8.847,288.451 27.34,299.969 46.048,306.033C72.898,314.737 105.383,319.453 129.554,328.193L129.554,325.022C105.422,316.522 73.47,311.769 46.973,303.179C27.048,296.72 7.695,284.655 0,270.355Z" style="fill:#59499c;"/>
            </g>
            <g transform="matrix(1,0,0,1,0,-55.19)">
                <path d="M187.829,348.211C188.66,348.236 189.403,348.183 190.048,348.052L189.65,346.092C189.138,346.196 188.548,346.231 187.888,346.212L187.829,348.211ZM185.489,345.957L184.555,345.41L183.545,347.137C184.16,347.496 184.554,347.727 184.626,347.769C184.828,347.887 184.988,347.912 185.074,347.915C185.295,347.953 185.512,347.987 185.725,348.018L185.773,347.69C185.977,347.524 186.116,347.279 186.14,346.999C186.16,346.759 186.094,346.53 185.966,346.345L186.01,346.038C185.839,346.014 185.666,345.987 185.489,345.957ZM185.64,346.045C185.802,346.141 185.905,346.248 185.964,346.363L185.85,347.15C185.593,347.569 185.143,347.913 185.143,347.913C185.381,347.913 185.6,347.83 185.773,347.69L185.85,347.15C186.007,346.895 186.092,346.613 185.964,346.363L185.966,346.345C185.882,346.223 185.771,346.12 185.64,346.045ZM191.302,344.933C191.223,345.159 191.102,345.35 190.939,345.507L192.326,346.948C192.72,346.569 193.016,346.108 193.203,345.556C193.228,345.498 193.253,345.41 193.268,345.31C193.275,345.261 193.315,344.995 193.377,344.579L191.4,344.282L191.302,344.933ZM180.093,345.117C180.706,345.476 181.289,345.816 181.819,346.127L182.829,344.4C182.299,344.09 181.716,343.749 181.103,343.39L180.093,345.117ZM176.64,343.097C177.216,343.433 177.796,343.773 178.367,344.107L179.377,342.38C178.806,342.046 178.226,341.707 177.65,341.37L176.64,343.097ZM193.675,342.601C193.767,341.987 193.869,341.312 193.972,340.624L191.995,340.326C191.891,341.015 191.789,341.69 191.697,342.304L193.675,342.601ZM173.188,341.076C173.729,341.393 174.311,341.733 174.914,342.087L175.924,340.36C175.321,340.007 174.739,339.667 174.198,339.35L173.188,341.076ZM169.736,339.056C169.736,339.056 170.406,339.449 171.462,340.066L172.472,338.34C171.416,337.722 170.746,337.33 170.746,337.33L169.736,339.056ZM194.27,338.646C194.377,337.93 194.479,337.251 194.567,336.668L192.589,336.371C192.502,336.954 192.4,337.633 192.292,338.348L194.27,338.646ZM194.635,335.268C194.84,335.06 195.527,334.363 196.04,333.844L194.616,332.439C194.104,332.958 193.416,333.655 193.211,333.863L194.635,335.268ZM197.383,332.815C197.87,332.549 198.447,332.274 199.103,331.992L198.313,330.155C197.593,330.464 196.961,330.767 196.427,331.058L197.383,332.815ZM200.915,331.27C201.495,331.054 202.114,330.836 202.769,330.617L202.135,328.72C201.458,328.946 200.817,329.172 200.217,329.395L200.915,331.27ZM204.65,330.017C205.26,329.83 205.893,329.644 206.548,329.46L206.005,327.535C205.336,327.723 204.689,327.913 204.065,328.104L204.65,330.017ZM208.46,328.94C209.085,328.776 209.727,328.614 210.383,328.454L209.909,326.511C209.242,326.674 208.589,326.839 207.953,327.005L208.46,328.94ZM212.314,327.999C212.95,327.855 213.596,327.713 214.253,327.573L213.838,325.617C213.172,325.758 212.516,325.902 211.87,326.049L212.314,327.999ZM216.198,327.176C216.841,327.049 217.492,326.926 218.15,326.806L217.791,324.839C217.124,324.96 216.464,325.085 215.812,325.214L216.198,327.176ZM220.106,326.464C220.754,326.355 221.408,326.25 222.067,326.149L221.763,324.172C221.095,324.274 220.432,324.381 219.775,324.491L220.106,326.464ZM224.031,325.861C224.684,325.771 225.341,325.684 226,325.603L225.754,323.618C225.085,323.701 224.419,323.788 223.756,323.88L224.031,325.861ZM227.971,325.373C228.628,325.302 229.286,325.235 229.946,325.174L229.761,323.183C229.091,323.245 228.422,323.312 227.755,323.385L227.971,325.373ZM231.936,324.992C232.609,324.93 233.273,324.869 233.928,324.808L233.745,322.817C233.089,322.877 232.426,322.938 231.754,323L231.936,324.992ZM235.92,324.624C236.593,324.562 237.257,324.5 237.912,324.439L237.727,322.448C237.072,322.509 236.408,322.57 235.736,322.633L235.92,324.624ZM239.904,324.253C240.577,324.19 241.241,324.128 241.896,324.066L241.708,322.075C241.054,322.137 240.391,322.199 239.718,322.262L239.904,324.253ZM243.888,323.878C244.562,323.814 245.225,323.751 245.879,323.689L245.689,321.698C245.036,321.76 244.373,321.823 243.699,321.887L243.888,323.878ZM247.871,323.499C248.546,323.434 249.209,323.37 249.862,323.307L249.67,321.316C249.017,321.379 248.354,321.443 247.679,321.508L247.871,323.499ZM251.854,323.113C252.53,323.048 253.193,322.983 253.845,322.918L253.649,320.928C252.998,320.992 252.335,321.057 251.66,321.123L251.854,323.113ZM255.836,322.721C256.514,322.654 257.177,322.588 257.827,322.522L257.627,320.533C256.978,320.598 256.315,320.664 255.638,320.731L255.836,322.721ZM259.818,322.321C260.497,322.252 261.161,322.184 261.809,322.117L261.604,320.128C260.956,320.195 260.294,320.262 259.616,320.331L259.818,322.321ZM263.8,321.91C264.481,321.839 265.144,321.769 265.791,321.7L265.579,319.711C264.934,319.78 264.271,319.85 263.592,319.921L263.8,321.91ZM267.782,321.486C268.464,321.412 269.127,321.339 269.772,321.268L269.551,319.28C268.908,319.351 268.247,319.424 267.566,319.498L267.782,321.486ZM271.762,321.044C272.448,320.966 273.111,320.89 273.752,320.815L273.52,318.828C272.88,318.903 272.22,318.979 271.536,319.057L271.762,321.044ZM275.742,320.579C276.431,320.495 277.093,320.414 277.731,320.334L277.483,318.35C276.847,318.429 276.188,318.51 275.502,318.593L275.742,320.579ZM279.721,320.08C280.412,319.989 281.074,319.9 281.709,319.813L281.437,317.832C280.806,317.918 280.149,318.007 279.461,318.096L279.721,320.08ZM283.697,319.533C284.39,319.432 285.05,319.334 285.684,319.236L285.379,317.259C284.751,317.356 284.096,317.454 283.41,317.554L283.697,319.533ZM287.669,318.92C288.354,318.807 289.011,318.695 289.651,318.583L289.306,316.613C288.673,316.724 288.022,316.835 287.344,316.946L287.669,318.92ZM291.629,318.227C292.291,318.104 292.945,317.98 293.601,317.854L293.223,315.89C292.572,316.015 291.923,316.138 291.265,316.26L291.629,318.227ZM295.567,317.473C296.205,317.348 296.856,317.22 297.53,317.089L297.147,315.126C296.473,315.257 295.822,315.385 295.184,315.51L295.567,317.473ZM300,314.575C299.699,314.633 299.403,314.689 299.113,314.745L299.49,316.709L300,316.612L300,314.575Z" style="fill:#59499c;"/>
            </g>
            <g transform="matrix(-1,0,0,1,300,-55.19)">
                <path d="M187.829,348.211C188.66,348.236 189.403,348.183 190.048,348.052L189.65,346.092C189.138,346.196 188.548,346.231 187.888,346.212L187.829,348.211ZM185.489,345.957L184.555,345.41L183.545,347.137C184.16,347.496 184.554,347.727 184.626,347.769C184.828,347.887 184.988,347.912 185.074,347.915C185.295,347.953 185.512,347.987 185.725,348.018L185.773,347.69C185.977,347.524 186.116,347.279 186.14,346.999C186.16,346.759 186.094,346.53 185.966,346.345L186.01,346.038C185.839,346.014 185.666,345.987 185.489,345.957ZM185.64,346.045C185.802,346.141 185.905,346.248 185.964,346.363L185.85,347.15C185.593,347.569 185.143,347.913 185.143,347.913C185.381,347.913 185.6,347.83 185.773,347.69L185.85,347.15C186.007,346.895 186.092,346.613 185.964,346.363L185.966,346.345C185.882,346.223 185.771,346.12 185.64,346.045ZM191.302,344.933C191.223,345.159 191.102,345.35 190.939,345.507L192.326,346.948C192.72,346.569 193.016,346.108 193.203,345.556C193.228,345.498 193.253,345.41 193.268,345.31C193.275,345.261 193.315,344.995 193.377,344.579L191.4,344.282L191.302,344.933ZM180.093,345.117C180.706,345.476 181.289,345.816 181.819,346.127L182.829,344.4C182.299,344.09 181.716,343.749 181.103,343.39L180.093,345.117ZM176.64,343.097C177.216,343.433 177.796,343.773 178.367,344.107L179.377,342.38C178.806,342.046 178.226,341.707 177.65,341.37L176.64,343.097ZM193.675,342.601C193.767,341.987 193.869,341.312 193.972,340.624L191.995,340.326C191.891,341.015 191.789,341.69 191.697,342.304L193.675,342.601ZM173.188,341.076C173.729,341.393 174.311,341.733 174.914,342.087L175.924,340.36C175.321,340.007 174.739,339.667 174.198,339.35L173.188,341.076ZM169.736,339.056C169.736,339.056 170.406,339.449 171.462,340.066L172.472,338.34C171.416,337.722 170.746,337.33 170.746,337.33L169.736,339.056ZM194.27,338.646C194.377,337.93 194.479,337.251 194.567,336.668L192.589,336.371C192.502,336.954 192.4,337.633 192.292,338.348L194.27,338.646ZM194.635,335.268C194.84,335.06 195.527,334.363 196.04,333.844L194.616,332.439C194.104,332.958 193.416,333.655 193.211,333.863L194.635,335.268ZM197.383,332.815C197.87,332.549 198.447,332.274 199.103,331.992L198.313,330.155C197.593,330.464 196.961,330.767 196.427,331.058L197.383,332.815ZM200.915,331.27C201.495,331.054 202.114,330.836 202.769,330.617L202.135,328.72C201.458,328.946 200.817,329.172 200.217,329.395L200.915,331.27ZM204.65,330.017C205.26,329.83 205.893,329.644 206.548,329.46L206.005,327.535C205.336,327.723 204.689,327.913 204.065,328.104L204.65,330.017ZM208.46,328.94C209.085,328.776 209.727,328.614 210.383,328.454L209.909,326.511C209.242,326.674 208.589,326.839 207.953,327.005L208.46,328.94ZM212.314,327.999C212.95,327.855 213.596,327.713 214.253,327.573L213.838,325.617C213.172,325.758 212.516,325.902 211.87,326.049L212.314,327.999ZM216.198,327.176C216.841,327.049 217.492,326.926 218.15,326.806L217.791,324.839C217.124,324.96 216.464,325.085 215.812,325.214L216.198,327.176ZM220.106,326.464C220.754,326.355 221.408,326.25 222.067,326.149L221.763,324.172C221.095,324.274 220.432,324.381 219.775,324.491L220.106,326.464ZM224.031,325.861C224.684,325.771 225.341,325.684 226,325.603L225.754,323.618C225.085,323.701 224.419,323.788 223.756,323.88L224.031,325.861ZM227.971,325.373C228.628,325.302 229.286,325.235 229.946,325.174L229.761,323.183C229.091,323.245 228.422,323.312 227.755,323.385L227.971,325.373ZM231.936,324.992C232.609,324.93 233.273,324.869 233.928,324.808L233.745,322.817C233.089,322.877 232.426,322.938 231.754,323L231.936,324.992ZM235.92,324.624C236.593,324.562 237.257,324.5 237.912,324.439L237.727,322.448C237.072,322.509 236.408,322.57 235.736,322.633L235.92,324.624ZM239.904,324.253C240.577,324.19 241.241,324.128 241.896,324.066L241.708,322.075C241.054,322.137 240.391,322.199 239.718,322.262L239.904,324.253ZM243.888,323.878C244.562,323.814 245.225,323.751 245.879,323.689L245.689,321.698C245.036,321.76 244.373,321.823 243.699,321.887L243.888,323.878ZM247.871,323.499C248.546,323.434 249.209,323.37 249.862,323.307L249.67,321.316C249.017,321.379 248.354,321.443 247.679,321.508L247.871,323.499ZM251.854,323.113C252.53,323.048 253.193,322.983 253.845,322.918L253.649,320.928C252.998,320.992 252.335,321.057 251.66,321.123L251.854,323.113ZM255.836,322.721C256.514,322.654 257.177,322.588 257.827,322.522L257.627,320.533C256.978,320.598 256.315,320.664 255.638,320.731L255.836,322.721ZM259.818,322.321C260.497,322.252 261.161,322.184 261.809,322.117L261.604,320.128C260.956,320.195 260.294,320.262 259.616,320.331L259.818,322.321ZM263.8,321.91C264.481,321.839 265.144,321.769 265.791,321.7L265.579,319.711C264.934,319.78 264.271,319.85 263.592,319.921L263.8,321.91ZM267.782,321.486C268.464,321.412 269.127,321.339 269.772,321.268L269.551,319.28C268.908,319.351 268.247,319.424 267.566,319.498L267.782,321.486ZM271.762,321.044C272.448,320.966 273.111,320.89 273.752,320.815L273.52,318.828C272.88,318.903 272.22,318.979 271.536,319.057L271.762,321.044ZM275.742,320.579C276.431,320.495 277.093,320.414 277.731,320.334L277.483,318.35C276.847,318.429 276.188,318.51 275.502,318.593L275.742,320.579ZM279.721,320.08C280.412,319.989 281.074,319.9 281.709,319.813L281.437,317.832C280.806,317.918 280.149,318.007 279.461,318.096L279.721,320.08ZM283.697,319.533C284.39,319.432 285.05,319.334 285.684,319.236L285.379,317.259C284.751,317.356 284.096,317.454 283.41,317.554L283.697,319.533ZM287.669,318.92C288.354,318.807 289.011,318.695 289.651,318.583L289.306,316.613C288.673,316.724 288.022,316.835 287.344,316.946L287.669,318.92ZM291.629,318.227C292.291,318.104 292.945,317.98 293.601,317.854L293.223,315.89C292.572,316.015 291.923,316.138 291.265,316.26L291.629,318.227ZM295.567,317.473C296.205,317.348 296.856,317.22 297.53,317.089L297.147,315.126C296.473,315.257 295.822,315.385 295.184,315.51L295.567,317.473ZM300,314.575C299.699,314.633 299.403,314.689 299.113,314.745L299.49,316.709L300,316.612L300,314.575Z" style="fill:#59499c;"/>
            </g>
            <g>
                <g transform="matrix(1.09211,0,0,0.644737,-12.047,69.5193)">
                    <path d="M170.051,315.078C170.051,309.098 167.185,304.243 163.654,304.243L133.106,304.243C129.576,304.243 126.709,309.098 126.709,315.078L126.709,336.749C126.709,342.729 129.576,347.585 133.106,347.585L163.654,347.585C167.185,347.585 170.051,342.729 170.051,336.749L170.051,315.078Z" style="fill:#3ce064;"/>
                </g>
                <g transform="matrix(1,0,0,1,0,-55.19)">
                    <path d="M128.445,322.849C129.704,321.622 131.424,320.866 133.319,320.866L166.681,320.866C168.681,320.866 170.486,321.708 171.761,323.058L165.364,328.488L165.364,341.537L171.355,347.014C170.117,348.13 168.478,348.81 166.681,348.81L133.319,348.81C131.633,348.81 130.085,348.211 128.878,347.215L135.088,341.537L135.088,328.488L128.445,322.849Z" style="fill:#3df469;"/>
                </g>
                <g transform="matrix(0.838404,0,0,0.452704,25.5973,132.106)">
                    <path d="M170.051,315.078C170.051,309.098 167.43,304.243 164.201,304.243L132.56,304.243C129.331,304.243 126.709,309.098 126.709,315.078L126.709,336.749C126.709,342.729 129.331,347.585 132.56,347.585L164.201,347.585C167.43,347.585 170.051,342.729 170.051,336.749L170.051,315.078Z" style="fill:#56ff7f;"/>
                </g>
                <g transform="matrix(1,0,0,1,0,-55.19)">
                    <path d="M130.772,348.33C131.562,348.64 132.421,348.81 133.319,348.81L145.804,348.81L160.051,320.866L144.775,320.866L130.772,348.33ZM164.601,320.866L150.354,348.81L154.889,348.81L168.944,321.241C168.234,320.998 167.473,320.866 166.681,320.866L164.601,320.866Z" style="fill:#fff;fill-opacity:0.25;"/>
                </g>
            </g>
        </g>
        <g id="name" transform="matrix(1.28869,-0.05391,0.05391,1.28869,-84.9212,-66.082)">
            <g transform="matrix(0.774627,0.0324052,-0.0324052,0.774627,65.4293,11.1891)">
                <path d="M280.225,325.476C258.864,327.733 237.919,328.729 219.615,332.126L221.938,346.935C224.792,346.488 227.473,348.441 227.921,351.296L277.751,343.479C277.303,340.625 279.257,337.944 282.111,337.496L280.225,325.476Z" style="fill:#4f4285;"/>
            </g>
            <g transform="matrix(0.686649,-0.0784767,0.11355,0.993532,48.9762,18.3265)">
                <path d="M281.814,271.656C278.573,271.656 275.942,269.837 275.942,267.597L219.359,267.597C219.359,269.837 216.727,271.656 213.486,271.656L213.486,283.832C216.727,283.832 219.359,285.651 219.359,287.891L275.942,287.891C275.942,285.651 278.573,283.832 281.814,283.832L281.814,271.656Z" style="fill:#ffd600;"/>
            </g>
            <g transform="matrix(0.598515,-0.068404,0.0905024,0.79187,77.2097,71.8938)">
                <path d="M282.538,271.656C282.538,271.38 282.214,271.156 281.814,271.156C278.972,271.156 276.665,269.561 276.665,267.597C276.665,267.321 276.341,267.097 275.942,267.097L219.359,267.097C218.959,267.097 218.635,267.321 218.635,267.597C218.635,269.561 216.328,271.156 213.486,271.156C213.086,271.156 212.762,271.38 212.762,271.656L212.762,283.832C212.762,284.108 213.086,284.332 213.486,284.332C216.328,284.332 218.635,285.927 218.635,287.891C218.635,288.167 218.959,288.391 219.359,288.391L275.942,288.391C276.341,288.391 276.665,288.167 276.665,287.891C276.665,285.927 278.972,284.332 281.814,284.332C282.214,284.332 282.538,284.108 282.538,283.832L282.538,271.656ZM281.091,272.129L281.091,283.359C278.028,283.591 275.592,285.274 275.258,287.391C275.258,287.391 220.043,287.391 220.043,287.391C219.708,285.274 217.272,283.591 214.209,283.359C214.209,283.359 214.209,272.129 214.209,272.129C217.272,271.897 219.708,270.214 220.043,268.097C220.043,268.097 275.258,268.097 275.258,268.097C275.592,270.214 278.028,271.897 281.091,272.129Z" style="fill:#a78d00;"/>
            </g>
            <g transform="matrix(1,0,0,1,0,-60.19)">
                <path d="M238.702,341.817L263.985,338.924L263.889,338.087L238.607,340.979L238.702,341.817ZM242.159,336.795L244.596,330.638C244.646,330.512 244.704,330.419 244.77,330.36C244.836,330.3 244.937,330.263 245.072,330.248C245.207,330.233 245.319,330.261 245.407,330.332C245.495,330.402 245.548,330.517 245.566,330.676L246.406,338.298C246.422,338.449 246.397,338.571 246.331,338.663C246.265,338.754 246.156,338.809 246.005,338.825C245.862,338.841 245.746,338.812 245.657,338.737C245.568,338.662 245.516,338.549 245.499,338.398L244.82,332.232L242.681,337.586C242.637,337.695 242.587,337.775 242.533,337.826C242.478,337.876 242.395,337.907 242.283,337.92C242.172,337.932 242.082,337.918 242.013,337.877C241.944,337.836 241.881,337.771 241.822,337.681L238.532,332.907L239.213,339.091C239.23,339.242 239.205,339.363 239.139,339.455C239.072,339.547 238.968,339.601 238.824,339.617C238.681,339.632 238.565,339.603 238.477,339.528C238.388,339.453 238.335,339.341 238.319,339.189L237.479,331.568C237.461,331.409 237.488,331.285 237.559,331.197C237.629,331.108 237.736,331.056 237.879,331.041C238.007,331.027 238.111,331.041 238.192,331.085C238.273,331.128 238.352,331.206 238.429,331.318L242.159,336.795ZM250.516,332.291C250.832,332.291 251.109,332.335 251.348,332.424C251.692,332.551 251.962,332.77 252.157,333.083C252.352,333.395 252.479,333.81 252.536,334.327L252.892,337.559C252.909,337.718 252.885,337.846 252.819,337.942C252.753,338.037 252.649,338.093 252.506,338.109C252.355,338.126 252.234,338.095 252.145,338.016C252.056,337.937 252.003,337.818 251.985,337.659L251.921,337.079C251.873,337.243 251.803,337.394 251.712,337.532C251.556,337.767 251.354,337.958 251.105,338.106C250.856,338.255 250.568,338.347 250.242,338.383C249.844,338.426 249.48,338.388 249.149,338.268C248.818,338.147 248.546,337.962 248.333,337.712C248.12,337.461 247.996,337.169 247.959,336.835C247.911,336.406 247.984,336.056 248.175,335.785C248.367,335.515 248.709,335.3 249.203,335.141C249.696,334.982 250.38,334.854 251.255,334.758L251.637,334.716L251.596,334.346C251.542,333.853 251.403,333.508 251.18,333.311C250.957,333.114 250.619,333.041 250.166,333.091C249.888,333.122 249.613,333.188 249.343,333.29C249.072,333.393 248.791,333.54 248.498,333.734C248.393,333.802 248.3,333.83 248.218,333.819C248.136,333.808 248.068,333.773 248.013,333.715C247.959,333.656 247.923,333.586 247.905,333.503C247.888,333.421 247.897,333.337 247.932,333.253C247.967,333.168 248.03,333.097 248.12,333.039C248.45,332.825 248.782,332.66 249.116,332.543C249.449,332.426 249.77,332.35 250.08,332.316L250.516,332.291ZM257.048,331.538C257.124,331.538 257.189,331.556 257.244,331.593C257.322,331.644 257.373,331.741 257.397,331.884C257.42,332.018 257.4,332.129 257.337,332.216C257.274,332.304 257.168,332.364 257.019,332.396L256.831,332.441C256.295,332.548 255.899,332.767 255.642,333.097C255.384,333.427 255.284,333.851 255.341,334.368L255.659,337.254C255.677,337.413 255.648,337.541 255.574,337.638C255.501,337.735 255.384,337.792 255.225,337.809C255.066,337.827 254.94,337.796 254.847,337.718C254.754,337.64 254.698,337.521 254.681,337.362L254.133,332.388C254.115,332.229 254.142,332.104 254.212,332.011C254.282,331.919 254.393,331.865 254.544,331.848C254.695,331.831 254.817,331.86 254.91,331.934C255.002,332.009 255.058,332.125 255.075,332.284L255.144,332.914C255.249,332.589 255.424,332.317 255.67,332.098C256,331.804 256.426,331.62 256.95,331.547L257.048,331.538ZM251.706,335.348L251.746,335.706C251.783,336.048 251.747,336.357 251.637,336.635C251.527,336.913 251.359,337.141 251.133,337.319C250.907,337.496 250.635,337.603 250.317,337.638C249.927,337.681 249.608,337.611 249.358,337.43C249.109,337.248 248.966,336.994 248.93,336.668C248.901,336.405 248.953,336.195 249.084,336.035C249.215,335.876 249.462,335.746 249.826,335.646C250.189,335.545 250.692,335.46 251.337,335.389L251.706,335.348ZM260.661,334.082L263.475,336.2C263.598,336.299 263.666,336.4 263.677,336.504C263.688,336.607 263.66,336.699 263.593,336.778C263.525,336.858 263.431,336.905 263.312,336.918C263.169,336.934 263.05,336.917 262.956,336.867C262.862,336.817 262.745,336.739 262.605,336.634L259.687,334.48L259.664,334.483L259.917,336.785C259.954,337.119 259.809,337.304 259.483,337.34C259.324,337.358 259.2,337.327 259.111,337.248C259.022,337.17 258.969,337.051 258.951,336.892L258.115,329.306C258.098,329.146 258.124,329.021 258.194,328.929C258.265,328.836 258.379,328.781 258.538,328.764C258.689,328.747 258.813,328.776 258.91,328.85C259.007,328.924 259.064,329.04 259.081,329.199L259.608,333.982L259.632,333.979L261.82,331.372C261.92,331.257 262.008,331.166 262.086,331.101C262.163,331.037 262.273,330.996 262.416,330.98C262.544,330.966 262.647,330.989 262.726,331.049C262.805,331.109 262.848,331.188 262.855,331.288C262.862,331.388 262.824,331.499 262.74,331.621L260.661,334.082Z" style="fill:#a78d00;"/>
            </g>
            <g transform="matrix(1,0,0,1,0,-60.19)">
                <path d="M253.817,344.87L236.484,346.851L245.206,325.429L262.539,323.448L253.817,344.87ZM227.381,340.131L227.795,343.759C229.095,343.611 230.322,344.095 231.169,344.966L238.826,326.158L232.788,326.848L227.381,340.131ZM266.201,323.029L257.479,344.452L263.517,343.762L270.838,325.78C269.764,325.158 268.988,324.054 268.837,322.728L266.201,323.029Z" style="fill:#ffea79;fill-opacity:0.35;"/>
            </g>
        </g>
        <g transform="matrix(1,0,0,1,0,-33.4545)">
            <path d="M126.25,280.23C142.493,287.808 158.301,287.348 173.75,280.23" style="fill:none;fill-rule:nonzero;stroke:#cd8e2a;stroke-width:8.99px;"/>
        </g>
        <g>
            <g transform="matrix(1,0,0,1,0,-33.4545)">
                <circle cx="242.58" cy="222.5" r="36.45" style="fill:#fabc2e;"/>
            </g>
            <g transform="matrix(1,0,0,1,0,-33.4545)">
                <circle cx="57.42" cy="222.5" r="36.45" style="fill:#fabc2e;"/>
            </g>
            <g transform="matrix(1,0,0,1,0,-33.4545)">
                <circle cx="242.58" cy="232.62" r="36.45" style="fill:#fff;"/>
            </g>
            <g transform="matrix(1,0,0,1,0,-33.4545)">
                <circle cx="57.42" cy="232.62" r="36.45" style="fill:#fff;"/>
            </g>
            <g transform="matrix(1,0,0,1,-17.9885,-33.4545)">
                <path d="M89.18,227.33C86.794,229.354 83.764,230.466 80.635,230.466C73.388,230.466 67.425,224.503 67.425,217.256C67.425,214.437 68.328,211.69 70,209.42C68.91,209.262 67.809,209.183 66.708,209.183C54.09,209.183 43.708,219.566 43.708,232.183C43.708,244.801 54.09,255.183 66.708,255.183C79.325,255.183 89.708,244.801 89.708,232.183C89.708,230.552 89.534,228.925 89.19,227.33L89.18,227.33ZM57.18,247.09C57.177,247.09 57.173,247.09 57.17,247.09C54.175,247.09 51.71,244.625 51.71,241.63C51.71,238.635 54.175,236.17 57.17,236.17C60.165,236.17 62.63,238.635 62.63,241.63C62.63,241.633 62.63,241.637 62.63,241.64C62.63,244.63 60.17,247.09 57.18,247.09C57.167,247.09 57.153,247.09 57.14,247.09L57.18,247.09Z" style="fill:#414042;fill-rule:nonzero;"/>
            </g>
            <g transform="matrix(1,0,0,1,0,-33.4545)">
                <path d="M255.63,227.2C253.326,228.96 250.505,229.914 247.605,229.914C240.353,229.914 234.385,223.946 234.385,216.694C234.385,214.113 235.142,211.587 236.56,209.43C235.46,209.274 234.351,209.194 233.24,209.19C233.22,209.19 233.2,209.19 233.18,209.19C220.563,209.19 210.18,219.572 210.18,232.19C210.18,244.807 220.563,255.19 233.18,255.19C245.797,255.19 256.18,244.807 256.18,232.19C256.18,230.508 255.996,228.832 255.63,227.19L255.63,227.2ZM223.41,247.09C220.415,247.09 217.95,244.625 217.95,241.63C217.95,238.635 220.415,236.17 223.41,236.17C226.405,236.17 228.87,238.635 228.87,241.63C228.87,241.633 228.87,241.637 228.87,241.64C228.87,244.63 226.41,247.09 223.42,247.09C223.417,247.09 223.413,247.09 223.41,247.09Z" style="fill:#414042;fill-rule:nonzero;"/>
            </g>
        </g>
        <g>
            <g transform="matrix(0.768957,0.156323,-0.156323,0.768957,75.4712,-34.0379)">
                <ellipse cx="241.81" cy="171.51" rx="29.61" ry="17.17" style="fill:#66402d;"/>
            </g>
            <g transform="matrix(-0.768957,0.156323,0.156323,0.768957,224.529,-34.0379)">
                <ellipse cx="241.81" cy="171.51" rx="29.61" ry="17.17" style="fill:#66402d;"/>
            </g>
        </g>
        <g transform="matrix(0.999851,0,0,0.999851,0.0447233,-44.1372)">
            <path d="M80.162,66.095C83.31,63.112 86.302,59.988 89.574,57.133C93.795,53.451 98.44,50.202 102.422,46.255C106.547,42.167 110.234,37.683 114.303,33.554C121.853,25.892 130.143,18.421 138.78,12.005C144.644,7.649 150.308,6.586 157.371,5.471C167.048,3.943 176.619,3.502 186.354,2.826C192.626,2.391 201.926,1.732 207.14,4.657C209.738,6.114 215.818,10.712 218.885,16.439C220.533,19.514 223.884,24.106 225.374,27.264C227.25,31.239 228.818,34.914 231.387,38.488C232.538,40.089 235.718,45.074 235.145,47.263C234.49,49.767 231.587,51.517 227.913,51.223C223.634,50.882 215.447,46.78 214.562,44.81C214.273,44.165 215.276,47.469 215.97,52.766C216.628,57.788 216.371,62.467 217.344,67.436C217.516,68.313 217.8,69.285 217.916,70.238C218.916,70.302 219.893,70.373 220.844,70.451C232.898,71.436 247.583,73.671 259.507,75.99C273.884,78.785 300,80.999 300,85.953C300,96.191 299.178,100.476 287.434,105.475C269.52,113.1 241.592,116.478 222.408,118.887C204.947,121.081 186.984,122.897 169.365,123.148C159.854,123.283 148.772,122.518 139.272,122.34C109.902,121.788 80.914,121.444 52.139,114.864C40.244,112.144 28.759,109.32 17.871,106.034C13.892,104.832 4.151,99.16 1.092,95.804C-4.717,89.431 13.467,86.176 16.538,84.975C18.094,84.367 26.613,82.291 30.413,81.23C40.148,78.511 47.352,76.796 57.015,73.91C64.712,71.612 72.205,67.579 80.162,66.095Z" style="fill:#6958b0;"/>
            <path d="M277.765,78.928C289.263,80.726 300,82.776 300,85.953C300,96.191 299.178,100.476 287.434,105.475C269.52,113.1 241.592,116.478 222.408,118.887C204.947,121.081 186.984,122.897 169.365,123.148C159.854,123.283 148.772,122.518 139.272,122.34C109.902,121.788 80.914,121.444 52.139,114.864C40.244,112.144 28.759,109.32 17.871,106.034C13.892,104.832 4.151,99.16 1.092,95.804C-4.717,89.431 13.467,86.176 16.538,84.975C18.094,84.367 26.613,82.291 30.413,81.23C31.032,81.057 31.641,80.888 32.242,80.722C42.347,85.06 51.404,87.292 61.359,89.241C73.656,91.648 81.606,94.066 96.58,95.766C108.942,97.169 121.392,97.926 133.834,98.078C153.016,98.313 172.275,96.948 191.437,96.197C203.184,95.737 215.024,96.002 226.8,95.651C242.979,95.169 260.852,91.124 274.316,81.682C275.538,80.826 276.677,79.902 277.765,78.928Z" style="fill:#b3a2f9;"/>
            <path d="M80.162,66.095C83.31,63.112 86.302,59.988 89.574,57.133C93.795,53.451 98.44,50.202 102.422,46.255C106.547,42.167 110.234,37.683 114.303,33.554C121.853,25.892 130.143,18.421 138.78,12.005C144.644,7.649 150.308,6.586 157.371,5.471C167.048,3.943 176.619,3.502 186.354,2.826C192.626,2.391 201.926,1.732 207.14,4.657C209.738,6.114 215.818,10.712 218.885,16.439C220.533,19.514 223.884,24.106 225.374,27.264C227.25,31.239 228.818,34.914 231.387,38.488C232.538,40.089 235.718,45.074 235.145,47.263C234.49,49.767 231.587,51.517 227.913,51.223C223.634,50.882 215.447,46.78 214.562,44.81C214.273,44.165 215.276,47.469 215.97,52.766C216.628,57.788 216.371,62.467 217.344,67.436C217.516,68.313 217.8,69.285 217.916,70.238C218.916,70.302 219.893,70.373 220.844,70.451C232.898,71.436 247.583,73.671 259.507,75.99C273.884,78.785 300,80.999 300,85.953C300,96.191 299.178,100.476 287.434,105.475C269.52,113.1 241.592,116.478 222.408,118.887C204.947,121.081 186.984,122.897 169.365,123.148C159.854,123.283 148.772,122.518 139.272,122.34C109.902,121.788 80.914,121.444 52.139,114.864C40.244,112.144 28.759,109.32 17.871,106.034C13.892,104.832 4.151,99.16 1.092,95.804C-4.717,89.431 13.467,86.176 16.538,84.975C18.094,84.367 26.613,82.291 30.413,81.23C40.148,78.511 47.352,76.796 57.015,73.91C64.712,71.612 72.205,67.579 80.162,66.095ZM171.238,6.886C166.777,7.255 162.32,7.726 157.839,8.434C151.288,9.469 146.008,10.373 140.569,14.413C132.055,20.739 123.883,28.106 116.439,35.66C112.362,39.797 108.667,44.289 104.534,48.385C100.507,52.377 95.815,55.67 91.546,59.394C88.306,62.221 85.343,65.318 82.226,68.272C81.806,68.67 81.281,68.938 80.713,69.044C72.858,70.509 65.471,74.516 57.874,76.785C48.192,79.676 40.974,81.395 31.22,84.119C27.499,85.158 19.154,87.173 17.631,87.769C15.844,88.468 8.765,89.838 4.617,92.194C4.018,92.534 3.312,93.171 3.042,93.424C3.114,93.535 3.217,93.681 3.31,93.783C6.12,96.866 15.082,102.058 18.738,103.162C29.563,106.429 40.981,109.236 52.807,111.94C81.38,118.473 110.165,118.792 139.328,119.34C148.797,119.518 159.842,120.283 169.323,120.148C181.474,119.975 193.789,119.051 205.99,117.773C205.802,116.489 205.551,115.297 205.233,114.247C204.215,110.895 198.114,103.604 194.603,98.317C188.53,89.172 182.178,79.746 176.241,70.497C172.321,64.39 167.125,59.191 163.895,52.715C162.338,49.594 160.76,45.602 160.45,42.173C159.546,32.162 160.699,21.751 166.131,13.178C167.448,11.099 169.247,8.933 171.238,6.886ZM231.933,45.667C231.848,45.397 231.752,45.119 231.653,44.893C230.845,43.047 229.569,41.099 228.951,40.239C226.272,36.512 224.617,32.689 222.661,28.544C221.189,25.424 217.868,20.894 216.241,17.855C213.483,12.707 208.008,8.584 205.672,7.273C203.912,6.286 201.585,5.836 199.106,5.611C194.861,5.226 190.187,5.567 186.562,5.819C184.96,5.93 183.363,6.034 181.769,6.138L182.028,6.412C181.331,7.074 180.609,7.766 179.882,8.477L177.851,6.397C177.206,6.441 176.562,6.485 175.917,6.53C173.108,9.073 170.424,12.007 168.665,14.783C163.587,22.798 162.593,32.545 163.438,41.904C163.717,44.989 165.179,48.567 166.58,51.376C169.761,57.755 174.904,62.861 178.766,68.877C184.695,78.112 191.037,87.525 197.102,96.657C200.772,102.183 207.04,109.873 208.103,113.376C208.47,114.582 208.755,115.964 208.967,117.454C213.344,116.975 217.705,116.455 222.034,115.911C240.978,113.531 268.569,110.244 286.259,102.714C291.278,100.578 294.076,98.752 295.506,96.208C296.89,93.748 296.993,90.755 296.998,86.648C296.369,86.322 294.661,85.475 293.124,85.022C284.609,82.516 268.917,80.876 258.935,78.935C247.112,76.636 232.552,74.417 220.6,73.441C219.665,73.364 218.705,73.295 217.722,73.231C216.283,73.138 215.113,72.033 214.938,70.601C214.83,69.72 214.559,68.824 214.4,68.013C213.414,62.98 213.662,58.242 212.996,53.156C212.486,49.261 211.802,46.466 211.612,45.576C211.601,45.542 211.591,45.508 211.583,45.473C210.696,41.804 209.588,37.378 207.667,33.674C206.75,31.908 205.651,30.306 204.277,29.069C203.822,28.825 203.371,28.572 202.928,28.301C202.317,27.926 202.068,27.183 202.293,26.532C202.326,26.341 202.398,26.154 202.51,25.981C202.958,25.285 203.888,25.085 204.583,25.534C205.088,25.859 205.567,26.22 206.024,26.613C208.693,28.041 211.483,29.166 213.822,31.211C215.452,32.636 216.918,34.499 218.089,36.317C219.118,37.916 221.048,39.952 222.413,41.32C224.915,43.827 227.966,45.058 230.096,45.569C230.689,45.711 231.319,45.663 231.933,45.667ZM210.6,112.697C210.832,113.547 210.984,114.458 211.081,115.405L214.065,115.1C213.951,113.984 213.767,112.91 213.495,111.908L210.6,112.697ZM207.688,108.076C208.244,108.89 208.913,109.677 209.5,110.502L211.944,108.762C211.368,107.953 210.71,107.181 210.164,106.383L207.688,108.076ZM204.385,103.115C204.958,103.909 205.519,104.712 206.063,105.531L208.562,103.871C207.996,103.02 207.413,102.184 206.817,101.359L204.385,103.115ZM200.791,98.386C201.404,99.167 202.015,99.951 202.617,100.741L205.002,98.92C204.391,98.12 203.773,97.326 203.152,96.534L200.791,98.386ZM197.087,93.639C197.698,94.441 198.316,95.235 198.937,96.027L201.298,94.176C200.686,93.395 200.076,92.611 199.473,91.82L197.087,93.639ZM193.533,88.694C193.915,89.264 194.302,89.83 194.697,90.391C194.888,90.662 195.08,90.931 195.274,91.2L197.707,89.445C197.52,89.186 197.335,88.925 197.15,88.664C196.769,88.121 196.394,87.574 196.024,87.023L193.533,88.694ZM190.276,83.585C190.803,84.444 191.335,85.299 191.875,86.149L194.407,84.541C193.875,83.703 193.351,82.86 192.831,82.014L190.276,83.585ZM187.148,78.467C187.671,79.316 188.19,80.167 188.709,81.019L191.271,79.459C190.75,78.602 190.228,77.746 189.701,76.892L187.148,78.467ZM183.942,73.472C184.495,74.289 185.036,75.114 185.568,75.946L188.095,74.33C187.549,73.476 186.994,72.628 186.426,71.79L183.942,73.472ZM180.463,68.742C181.078,69.502 181.671,70.277 182.248,71.064L184.668,69.291C184.063,68.466 183.441,67.653 182.797,66.856L180.463,68.742ZM176.624,64.146C177.265,64.926 177.911,65.699 178.557,66.465L180.851,64.532C180.214,63.775 179.576,63.013 178.943,62.242L176.624,64.146ZM172.885,59.342C173.482,60.165 174.097,60.976 174.724,61.778L177.088,59.931C176.483,59.157 175.889,58.373 175.312,57.579L172.885,59.342ZM169.517,54.186C170.029,55.078 170.571,55.954 171.137,56.817L173.645,55.171C173.112,54.358 172.601,53.533 172.119,52.693L169.517,54.186ZM166.836,48.544C167.084,49.222 167.35,49.878 167.633,50.508C167.774,50.82 167.918,51.13 168.066,51.438L170.769,50.137C170.632,49.853 170.499,49.567 170.37,49.279C170.116,48.712 169.876,48.122 169.653,47.512L166.836,48.544ZM228.528,48.255C226.085,47.54 222.931,46.086 220.29,43.439C218.793,41.94 216.694,39.693 215.566,37.941C214.543,36.352 213.272,34.715 211.847,33.469C211.365,33.048 210.862,32.669 210.344,32.32C211.876,35.281 212.932,38.67 213.761,41.823C214.238,41.694 214.754,41.684 215.313,41.837C215.515,41.893 216.525,42.079 217.196,43.369C217.396,43.526 218.758,44.583 219.865,45.196C222.453,46.63 225.907,48.054 228.152,48.233C228.278,48.243 228.403,48.25 228.528,48.255ZM212.232,46.717C212.143,46.594 212.064,46.476 211.996,46.363C211.928,46.249 211.871,46.141 211.825,46.039C211.947,46.309 212.086,46.533 212.232,46.717ZM165.201,42.523C165.397,43.559 165.629,44.574 165.893,45.558L168.79,44.778C168.545,43.866 168.331,42.926 168.149,41.965L165.201,42.523ZM164.467,36.369C164.521,37.405 164.609,38.436 164.73,39.456L167.71,39.102C167.596,38.148 167.514,37.182 167.463,36.212L164.467,36.369ZM164.56,30.169C164.473,31.194 164.423,32.231 164.408,33.27L167.408,33.313C167.422,32.344 167.468,31.378 167.549,30.422L164.56,30.169ZM165.574,24.012C165.32,25.007 165.109,26.032 164.939,27.078L167.9,27.559C168.056,26.602 168.249,25.664 168.481,24.752L165.574,24.012ZM167.808,18.077C167.321,18.996 166.889,19.973 166.509,20.996L169.322,22.04C169.655,21.143 170.033,20.286 170.459,19.48L167.808,18.077ZM171.486,12.937C170.766,13.775 170.107,14.589 169.538,15.358L171.949,17.143C172.479,16.428 173.091,15.672 173.762,14.892L171.486,12.937ZM175.638,8.467C174.92,9.196 174.213,9.931 173.532,10.66L175.726,12.706C176.388,11.997 177.077,11.282 177.776,10.572L175.638,8.467Z" style="fill:#59499c;"/>
            <g transform="matrix(1.00015,0,0,1.00015,-0.0447299,-11.0545)">
                <path d="M231.797,118.376C231.589,118.322 231.47,118.236 231.255,118.233C231.012,118.229 230.781,118.339 230.544,118.393C226.979,119.209 223.378,119.781 219.747,120.168C213.677,120.815 207.542,121.021 201.467,121.399C195.147,121.804 188.87,122.438 182.568,122.882C179.88,123.072 177.188,123.228 174.486,123.314C155.592,123.93 136.751,124.027 118.005,122.931C99.29,121.836 80.666,119.551 62.183,115.25C56.966,114.046 51.487,113.329 46.142,112.248C43.675,111.749 41.247,111.141 38.867,110.425C38.663,110.363 38.461,110.292 38.252,110.246C37.383,110.057 36.541,109.993 35.671,109.819C35.469,109.737 35.239,109.834 35.157,110.036C35.075,110.237 35.173,110.468 35.374,110.549C36.093,111.015 36.76,111.484 37.533,111.855C38.057,112.107 38.613,112.284 39.166,112.467C40.444,112.891 41.759,113.209 43.078,113.523C49.233,114.992 55.667,115.733 61.742,117.153C80.336,121.463 99.068,123.8 117.897,124.834C136.701,125.867 155.598,125.601 174.542,124.863C177.263,124.755 179.973,124.578 182.679,124.363C188.975,123.861 195.243,123.157 201.556,122.688C207.641,122.224 213.791,121.945 219.865,121.196C223.529,120.744 227.172,120.151 230.743,119.196C230.981,119.133 231.24,119.119 231.454,118.995C231.64,118.887 231.704,118.754 231.858,118.602C231.92,118.586 231.957,118.521 231.941,118.459C231.924,118.396 231.86,118.359 231.797,118.376ZM289.994,99.393C289.066,100.87 287.89,102.068 286.629,103.204C284.787,104.865 282.687,106.285 280.346,107.417C274.455,110.264 267.368,111.607 261.801,112.868C260.102,113.28 258.379,113.57 256.685,113.995C255.539,114.283 254.441,114.661 253.303,114.983C253.163,115.007 253.069,115.139 253.092,115.279C253.116,115.418 253.248,115.513 253.388,115.489C254.574,115.423 255.742,115.405 256.92,115.263C258.671,115.051 260.392,114.646 262.121,114.282C267.786,113.001 275.027,111.691 280.987,108.725C283.451,107.498 285.757,106.045 287.526,104.106C288.726,102.79 289.631,101.257 290.325,99.563C290.371,99.471 290.335,99.359 290.244,99.312C290.153,99.265 290.04,99.301 289.994,99.393ZM26.783,108.423C26.569,108.254 26.446,108.087 26.204,107.961C26.006,107.858 25.777,107.83 25.562,107.77C22.463,106.908 19.43,105.942 16.47,104.705C16.175,104.582 15.882,104.455 15.581,104.344C15.125,104.176 14.667,104.044 14.206,103.878C14.056,103.802 13.871,103.862 13.794,104.012C13.718,104.163 13.778,104.347 13.928,104.424C14.506,104.801 15.065,105.185 15.673,105.501C17.086,106.236 18.595,106.752 20.098,107.258C22.02,107.906 23.933,108.853 25.977,108.889C26.25,108.894 26.438,108.799 26.707,108.744C26.795,108.765 26.884,108.71 26.905,108.621C26.926,108.533 26.871,108.444 26.783,108.423Z" style="fill:#59499c;"/>
            </g>
            <path d="M80.162,66.095C83.31,63.112 86.302,59.988 89.574,57.133C91.781,55.208 94.104,53.401 96.387,51.551C135.866,44.492 187.496,43.646 216.334,56.6C216.577,60.224 216.622,63.751 217.344,67.436C217.505,68.258 217.765,69.164 217.892,70.059L217.916,70.238C170.074,73.507 124.114,72.228 80.162,66.095Z" style="fill:#160e3c;"/>
            <g transform="matrix(0.999523,0.0308928,-0.0308928,0.999523,0.318532,-4.01421)">
                <path d="M177.476,47.767C177.476,45.086 175.3,42.91 172.619,42.91L145.735,42.91C143.055,42.91 140.878,45.086 140.878,47.767L140.878,68.693C140.878,71.373 143.055,73.55 145.735,73.55L172.619,73.55C175.3,73.55 177.476,71.373 177.476,68.693L177.476,47.767ZM146.879,67.549L171.475,67.549L171.475,48.911L146.879,48.911L146.879,67.549Z" style="fill:#ffd600;"/>
            </g>
            <g transform="matrix(0.999523,0.0308928,-0.0308928,0.999523,0.318532,-4.01421)">
                <path d="M178.476,47.767C178.476,44.534 175.852,41.91 172.619,41.91C172.619,41.91 145.735,41.91 145.735,41.91C142.503,41.91 139.878,44.534 139.878,47.767C139.878,47.767 139.878,68.693 139.878,68.693C139.878,71.925 142.503,74.55 145.735,74.55C145.735,74.55 172.619,74.55 172.619,74.55C175.852,74.55 178.476,71.925 178.476,68.693L178.476,47.767ZM176.476,47.767L176.476,68.693C176.476,70.821 174.748,72.55 172.619,72.55L145.735,72.55C143.607,72.55 141.878,70.821 141.878,68.693C141.878,68.693 141.878,47.767 141.878,47.767C141.878,45.638 143.607,43.91 145.735,43.91C145.735,43.91 172.619,43.91 172.619,43.91C174.748,43.91 176.476,45.638 176.476,47.767ZM145.879,67.549C145.879,68.101 146.327,68.549 146.879,68.549L171.475,68.549C172.028,68.549 172.475,68.101 172.475,67.549L172.475,48.911C172.475,48.358 172.028,47.91 171.475,47.91L146.879,47.91C146.327,47.91 145.879,48.358 145.879,48.911L145.879,67.549ZM147.879,66.549L147.879,49.911C147.879,49.911 170.475,49.911 170.475,49.911C170.475,49.911 170.475,66.549 170.475,66.549L147.879,66.549Z" style="fill:#a78d00;"/>
            </g>
        </g>
    </g>
    <defs>
        <linearGradient id="_Linear1" x1="0" y1="0" x2="1" y2="0" gradientUnits="userSpaceOnUse" gradientTransform="matrix(9.58898e-15,-156.6,156.6,9.58898e-15,150,358.06)"><stop offset="0" style="stop-color:#614ea6;stop-opacity:1"/><stop offset="0.19" style="stop-color:#4c3991;stop-opacity:1"/><stop offset="0.41" style="stop-color:#38247d;stop-opacity:1"/><stop offset="1" style="stop-color:#2f1b74;stop-opacity:1"/></linearGradient>
    </defs>
</svg>
