<?xml version="1.0" encoding="UTF-8" standalone="no"?>
<svg
   id="Layer_1"
   data-name="Layer 1"
   viewBox="0 0 300 345"
   version="1.1"
   sodipodi:docname="anacondaWizard.svg"
   inkscape:version="1.2 (dc2aedaf03, 2022-05-15)"
   xmlns:inkscape="http://www.inkscape.org/namespaces/inkscape"
   xmlns:sodipodi="http://sodipodi.sourceforge.net/DTD/sodipodi-0.dtd"
   xmlns:xlink="http://www.w3.org/1999/xlink"
   xmlns="http://www.w3.org/2000/svg"
   xmlns:svg="http://www.w3.org/2000/svg"
   xmlns:rdf="http://www.w3.org/1999/02/22-rdf-syntax-ns#"
   xmlns:cc="http://creativecommons.org/ns#"
   xmlns:dc="http://purl.org/dc/elements/1.1/">
  <sodipodi:namedview
     id="namedview12075"
     pagecolor="#505050"
     bordercolor="#ffffff"
     borderopacity="1"
     inkscape:showpageshadow="0"
     inkscape:pageopacity="0"
     inkscape:pagecheckerboard="1"
     inkscape:deskcolor="#505050"
     showgrid="false"
     inkscape:zoom="1.1696435"
     inkscape:cx="215.02279"
     inkscape:cy="168.4274"
     inkscape:window-width="1366"
     inkscape:window-height="705"
     inkscape:window-x="-8"
     inkscape:window-y="-8"
     inkscape:window-maximized="1"
     inkscape:current-layer="Layer_1" />
  <defs
     id="defs12007">
    <inkscape:path-effect
       effect="fillet_chamfer"
       id="path-effect12948"
       is_visible="true"
       lpeversion="1"
       nodesatellites_param="F,0,0,1,0,0,0,1 @ F,0,0,1,0,0,0,1 @ F,0,0,1,0,0,0,1 @ F,0,0,1,0,8.6075572,0,1 @ F,0,0,1,0,9.6902078,0,1"
       unit="px"
       method="auto"
       mode="F"
       radius="0"
       chamfer_steps="1"
       flexible="false"
       use_knot_distance="true"
       apply_no_radius="true"
       apply_with_radius="true"
       only_selected="false"
       hide_knots="false" />
    <style
       id="style11980">.cls-1{fill:url(#linear-gradient);}.cls-2{fill:#8a9143;}.cls-3{fill:url(#linear-gradient-2);}.cls-4{fill:#5b4e23;}.cls-5{fill:url(#linear-gradient-3);}.cls-6{fill:url(#linear-gradient-4);}.cls-7{fill:url(#linear-gradient-5);}.cls-8{fill:#443818;}.cls-9{fill:url(#linear-gradient-6);}.cls-10{fill:url(#linear-gradient-7);}.cls-11{fill:url(#linear-gradient-8);}.cls-12{fill:url(#linear-gradient-9);}.cls-13{fill:#707230;}.cls-14{fill:#f9ed32;}.cls-15{fill:#414042;}.cls-16{fill:#fff;}.cls-17{fill:#4f5021;}</style>
    <linearGradient
       id="linear-gradient"
       x1="150"
       y1="356.11"
       x2="150"
       y2="161.16"
       gradientUnits="userSpaceOnUse">
      <stop
         offset="0"
         stop-color="#8a9143"
         id="stop11982" />
      <stop
         offset="0.36"
         stop-color="#61642b"
         id="stop11984" />
    </linearGradient>
    <linearGradient
       id="linear-gradient-2"
       x1="59.6"
       y1="327.75"
       x2="59.9"
       y2="294.84"
       gradientUnits="userSpaceOnUse">
      <stop
         offset="0"
         stop-color="#5b4e23"
         id="stop11987" />
      <stop
         offset="1"
         stop-color="#443818"
         id="stop11989" />
    </linearGradient>
    <linearGradient
       id="linear-gradient-3"
       x1="150.75"
       y1="327.75"
       x2="151.05"
       y2="294.84"
       xlink:href="#linear-gradient-2" />
    <linearGradient
       id="linear-gradient-4"
       x1="239.87"
       y1="327.75"
       x2="240.17"
       y2="294.84"
       xlink:href="#linear-gradient-2" />
    <linearGradient
       id="linear-gradient-5"
       x1="150"
       y1="287.14"
       x2="150"
       y2="125.44"
       xlink:href="#linear-gradient" />
    <linearGradient
       id="linear-gradient-6"
       x1="103.22"
       y1="271.33"
       x2="103.53"
       y2="238.43"
       xlink:href="#linear-gradient-2" />
    <linearGradient
       id="linear-gradient-7"
       x1="194.37"
       y1="271.33"
       x2="194.68"
       y2="238.43"
       xlink:href="#linear-gradient-2" />
    <linearGradient
       id="linear-gradient-8"
       x1="129.49"
       y1="230.28"
       x2="129.49"
       y2="99.85"
       gradientTransform="matrix(-1,0,0,1,279.49,0)"
       xlink:href="#linear-gradient" />
    <linearGradient
       id="linear-gradient-9"
       x1="221.73"
       y1="147.04"
       x2="153.01"
       y2="148.06"
       gradientUnits="userSpaceOnUse">
      <stop
         offset="0"
         stop-color="#8a9143"
         id="stop11998" />
      <stop
         offset="0.35"
         stop-color="#7f853d"
         id="stop12000" />
      <stop
         offset="0.97"
         stop-color="#63662c"
         id="stop12002" />
      <stop
         offset="1"
         stop-color="#61642b"
         id="stop12004" />
    </linearGradient>
    <linearGradient
       inkscape:collect="always"
       xlink:href="#linear-gradient"
       id="linearGradient16266"
       gradientUnits="userSpaceOnUse"
       x1="150"
       y1="356.11"
       x2="150"
       y2="161.16" />
    <linearGradient
       inkscape:collect="always"
       xlink:href="#linear-gradient-2"
       id="linearGradient16268"
       gradientUnits="userSpaceOnUse"
       x1="59.6"
       y1="327.75"
       x2="59.9"
       y2="294.84" />
  </defs>
  <title
     id="title12009">blook_anaconda</title>
  <path
     class="cls-1"
     d="M 263.62,345 H 36.38 A 36.38,36.38 0 0 1 0,308.62 v -49.48 h 300 v 49.48 A 36.38,36.38 0 0 1 263.62,345 Z"
     id="path12011"
     style="fill:url(#linearGradient16266)" />
  <rect
     class="cls-2"
     y="221.17999"
     width="300"
     height="77.209999"
     rx="36.380001"
     id="rect12013"
     x="0" />
  <path
     class="cls-3"
     d="m 59.87,322.72 c 16,0 23.88,-10.35 25.83,-24.27 H 34 c 2,13.92 9.82,24.27 25.87,24.27 z"
     id="path12015"
     style="fill:url(#linearGradient16268)" />
  <path
     class="cls-4"
     d="m 59.87,259.44 c -19.6,0 -26.33,14.17 -26.33,31.64 a 53.32,53.32 0 0 0 0.5,7.37 H 85.7 a 53.35,53.35 0 0 0 0.49,-7.37 c 0,-17.47 -6.73,-31.64 -26.32,-31.64 z"
     id="path12017" />
  <path
     class="cls-5"
     d="m 151,322.72 c 16,0 23.88,-10.35 25.83,-24.27 h -51.64 c 1.94,13.92 9.81,24.27 25.81,24.27 z"
     id="path12019"
     style="fill:url(#linear-gradient-3)" />
  <path
     class="cls-4"
     d="m 151,259.44 c -19.6,0 -26.33,14.17 -26.33,31.64 a 53.32,53.32 0 0 0 0.5,7.37 h 51.66 a 53.35,53.35 0 0 0 0.49,-7.37 c 0.02,-17.47 -6.71,-31.64 -26.32,-31.64 z"
     id="path12021" />
  <path
     class="cls-6"
     d="m 240.13,322.72 c 16.05,0 23.89,-10.35 25.83,-24.27 H 214.3 c 1.95,13.92 9.79,24.27 25.83,24.27 z"
     id="path12023"
     style="fill:url(#linear-gradient-4)" />
  <path
     class="cls-4"
     d="m 240.13,259.44 c -19.59,0 -26.32,14.17 -26.32,31.64 a 53.35,53.35 0 0 0 0.49,7.37 H 266 a 53.32,53.32 0 0 0 0.5,-7.37 c -0.04,-17.47 -6.77,-31.64 -26.37,-31.64 z"
     id="path12025" />
  <path
     class="cls-7"
     d="M 233,274 H 67 A 36.38,36.38 0 0 1 30.6,237.61 v -34.83 h 238.8 v 34.83 A 36.38,36.38 0 0 1 233,274 Z"
     id="path12027"
     style="fill:url(#linear-gradient-5)" />
  <rect
     class="cls-2"
     x="30.6"
     y="164.82001"
     width="238.78999"
     height="77.209999"
     rx="36.380001"
     id="rect12029" />
  <path
     class="cls-4"
     d="m 68.31,200.06 c 0,-17.64 -11,-24.85 -25.41,-26.11 A 36.26,36.26 0 0 0 30.6,201.2 v 4.46 a 36.22,36.22 0 0 0 6.48,20.71 h 0.9 c 16.75,0.02 30.33,-6.71 30.33,-26.31 z"
     id="path12031" />
  <path
     class="cls-8"
     d="M 37.08,226.37 A 36.22,36.22 0 0 1 30.6,205.66 v 33.44 c 0.11,0.01 4.4,-12.77 6.48,-12.73 z"
     id="path12033" />
  <path
     class="cls-8"
     d="m 262.92,226.37 c 2.23,0 6.48,12.78 6.48,12.78 v -33.49 a 36.19,36.19 0 0 1 -6.48,20.71 z"
     id="path12035" />
  <path
     class="cls-4"
     d="M 269.4,201.2 A 36.3,36.3 0 0 0 257.13,174 c -0.73,0.07 -1.46,0.16 -2.18,0.26 -13.34,1.94 -23.26,9.79 -23.26,25.83 0,16.04 9.92,23.91 23.31,25.8 a 49.24,49.24 0 0 0 7.07,0.5 h 0.9 a 36.19,36.19 0 0 0 6.48,-20.71 z"
     id="path12037" />
  <path
     class="cls-9"
     d="m 103.49,266.3 c 16,0 23.89,-10.35 25.83,-24.26 H 77.66 c 1.95,13.96 9.79,24.26 25.83,24.26 z"
     id="path12039"
     style="fill:url(#linear-gradient-6)" />
  <path
     class="cls-4"
     d="m 103.49,203 c -19.59,0 -26.32,14.16 -26.32,31.63 a 53.6,53.6 0 0 0 0.49,7.38 h 51.66 a 53.58,53.58 0 0 0 0.5,-7.38 c 0,-17.44 -6.73,-31.63 -26.33,-31.63 z"
     id="path12041" />
  <path
     class="cls-10"
     d="m 194.64,266.3 c 16.05,0 23.89,-10.35 25.83,-24.26 h -51.66 c 1.95,13.96 9.79,24.26 25.83,24.26 z"
     id="path12043"
     style="fill:url(#linear-gradient-7)" />
  <path
     class="cls-4"
     d="m 194.64,203 c -19.59,0 -26.32,14.16 -26.32,31.63 a 53.6,53.6 0 0 0 0.49,7.38 h 51.66 a 53.58,53.58 0 0 0 0.5,-7.38 C 221,217.19 214.24,203 194.64,203 Z"
     id="path12045" />
  <path
     class="cls-11"
     d="m 113.55,219.68 h 72.9 A 36.38,36.38 0 0 0 222.83,183.3 V 162.24 H 77.17 v 21.06 a 36.38,36.38 0 0 0 36.38,36.38 z"
     id="path12047"
     style="fill:url(#linear-gradient-8)" />
  <path
     class="cls-2"
     d="m 245.32,93.35 c -26.69,-15.3 -35.46,-16.88 -35.46,-16.88 0,-21.86 -34.29,-24.28 -58.92,-23.61 -0.28,0 -0.55,0 -0.83,0.08 v 0 c -78.86,0 -73,109.28 -73,109.28 a 36.6,36.6 0 0 0 36.51,36.51 h 72.81 A 36.48,36.48 0 0 0 223,162.24 v 0 a 36.48,36.48 0 0 0 -36.48,-36.48 l -36.36,0.06 V 113.1 h 84.42 a 7.59,7.59 0 0 0 7.52,-7.1 c 2.66,-1.31 7.64,-10.12 3.22,-12.65 z"
     id="path12049" />
  <path
     class="cls-12"
     d="m 150.11,125.82 v 43 c 0,0 58,9.7 58,-23.13 0,-9.81 -5.18,-15.53 -12.44,-18.72 a 36.44,36.44 0 0 0 -9.16,-1.16 z"
     id="path12051"
     style="fill:url(#linear-gradient-9)" />
  <path
     id="path17408"
     style="color:#000000;fill:#000000;fill-opacity:0.28676471;stroke-linecap:round;stroke-linejoin:round"
     d="M 110.54688 73.738281 A 1.679 1.679 0 0 0 109.45898 74.423828 A 1.679 1.679 0 0 0 109.86133 76.763672 C 123.02097 86.061717 133.38597 95.589973 144.87305 102.91016 C 151.81712 107.3353 159.19625 110.92392 167.7793 113.09961 L 193.10156 113.09961 C 192.04511 112.86647 191.05312 112.61568 190.19141 112.33203 C 188.88335 111.90145 187.7264 111.77995 186.85938 112.125 A 1.679 1.679 0 0 0 186.39844 112.04883 C 169.67545 111.92592 157.81912 107.17802 146.67773 100.07812 C 135.53635 92.978227 125.16027 83.462112 111.79883 74.021484 A 1.679 1.679 0 0 0 110.54688 73.738281 z M 195.66992 113.60352 L 195.66992 126.9707 L 185.42578 126.9707 C 187.70343 143.20007 197.49253 151.38308 191.98828 150.9668 C 191.98828 150.9668 188.83773 152.42829 187.61523 153.61523 C 179.03282 161.94813 196.02197 189.15292 200.15234 191.14648 C 207.54171 194.71305 192.47289 194.42434 191.57812 195.89062 C 187.65581 202.31827 188.50896 219.50336 193.68555 218.38086 C 223.06107 212.0111 203.94342 243.19869 203.17383 247.72656 C 200.77873 261.81837 220.84989 227.99845 216.36133 222.88867 C 209.36957 214.92919 205.52119 204.81946 215.88477 201.28125 L 220.79492 199.60352 C 231.2671 196.02824 231.53529 177.08925 227.00781 166.99219 C 221.85915 155.50985 215.89237 152.18346 224.24219 144.61914 C 227.65965 141.5232 225.48492 127.25322 223.92578 115.68555 C 217.92151 115.38161 204.78043 115.14106 195.66992 113.60352 z " />
  <path
     class="cls-13"
     d="m 242.1,106 c -0.23,0.12 -18.76,1.09 -40.86,-4.57 a 1,1 0 0 0 -0.51,0.08 6,6 0 0 0 -3.3,8.85 v 0 a 5.49,5.49 0 0 0 4.71,2.66 h 32.37 A 7.59,7.59 0 0 0 242.1,106 Z"
     id="path12053" />
  <path
     class="cls-4"
     d="m 91.32,119.58 a 38.33,38.33 0 0 0 -10.06,-1.39 185,185 0 0 0 -4.21,38.71 c 1.3,0.48 2.66,0.91 4.06,1.28 12.81,3.39 24.66,0.59 28.3,-13.17 3.64,-13.76 -5.28,-22.01 -18.09,-25.43 z"
     id="path12055" />
  <path
     class="cls-4"
     d="M 100.65,76.33 99.88,76.14 C 93.31,84.36 88.63,94 85.28,103.83 a 29.68,29.68 0 0 0 7.32,2.91 c 10.1,2.67 19.44,0.47 22.31,-10.37 C 117.78,85.53 110.75,79 100.65,76.33 Z"
     id="path12057" />
  <path
     class="cls-13"
     d="m 191.07,76.13 c 0,0 -17.34,-8.6 -38.07,2.87 -14.6,8.06 -34.5,11.45 -34.5,11.45 0,0 16.78,12.55 34.25,3.63 23.49,-12.02 32.07,-17.98 38.32,-17.95 z"
     id="path12059" />
  <circle
     class="cls-13"
     cx="178.86"
     cy="75.339996"
     r="15.79"
     id="circle12061" />
  <circle
     class="cls-14"
     cx="178.86"
     cy="79.720001"
     r="15.79"
     id="circle12063" />
  <path
     class="cls-15"
     d="m 186.18,79.72 a 24.19,24.19 0 0 1 -4.11,12.67 4.17,4.17 0 0 1 -6.94,0 24.19,24.19 0 0 1 -4.13,-12.67 24.18,24.18 0 0 1 4.11,-12.66 4.17,4.17 0 0 1 6.94,0 24.18,24.18 0 0 1 4.13,12.66 z"
     id="path12065" />
  <circle
     class="cls-16"
     cx="185.08"
     cy="71.470001"
     r="4.4699998"
     id="circle12067" />
  <ellipse
     class="cls-16"
     cx="173.42999"
     cy="87.720001"
     rx="4.96"
     ry="3.3299999"
     id="ellipse12069" />
  <path
     class="cls-17"
     d="m 241.37,95.85 c 0,0 -5.2,3.22 -2.31,4.65 2.89,1.43 2.31,-4.65 2.31,-4.65 z"
     id="path12071" />
  <path
     id="path16130"
     style="color:#000000;fill:#f1f1f1;stroke-linecap:round;stroke-linejoin:round"
     d="M 111.08008 71.072266 A 1.679 1.679 0 0 0 109.99219 71.757812 A 1.679 1.679 0 0 0 110.39453 74.097656 C 123.55419 83.39571 133.91916 92.92395 145.40625 100.24414 C 156.6343 107.39926 168.99571 112.37065 185.75391 112.71094 C 183.29939 136.62135 199.21117 148.80672 192.52148 148.30078 C 192.52148 148.30078 189.37094 149.76227 188.14844 150.94922 C 179.56602 159.28212 196.55517 186.4869 200.68555 188.48047 C 208.07492 192.04704 193.0061 191.75832 192.11133 193.22461 C 188.18901 199.65226 189.04216 216.83734 194.21875 215.71484 C 223.5943 209.34507 204.47662 240.53267 203.70703 245.06055 C 201.31193 259.15237 221.3831 225.33244 216.89453 220.22266 C 209.90276 212.26317 206.05438 202.15344 216.41797 198.61523 L 221.32812 196.9375 C 231.80031 193.36222 232.0685 174.42324 227.54102 164.32617 C 222.39235 152.84382 216.42556 149.51745 224.77539 141.95312 C 228.19286 138.85718 226.01812 124.58721 224.45898 113.01953 C 217.08387 112.6462 198.93816 112.36967 190.72461 109.66602 C 189.41655 109.23544 188.25961 109.11393 187.39258 109.45898 A 1.679 1.679 0 0 0 186.93164 109.38281 C 170.20864 109.2599 158.35234 104.51201 147.21094 97.412109 C 136.06954 90.312206 125.69349 80.796106 112.33203 71.355469 A 1.679 1.679 0 0 0 111.08008 71.072266 z " />
  <ellipse
     style="fill:#896723;fill-opacity:1;fill-rule:evenodd"
     id="ellipse13238"
     cx="98.940208"
     cy="104.48519"
     rx="39.476513"
     ry="18.436832"
     transform="rotate(-18.605747)" />
  <ellipse
     style="fill:#ffe830;fill-rule:evenodd;fill-opacity:1"
     id="path12728"
     cx="99.909065"
     cy="101.60725"
     rx="39.476513"
     ry="18.436832"
     transform="rotate(-18.605747)" />
  <path
     id="rect12246"
     style="fill:#252165;fill-opacity:1;stroke-width:2.96692;stroke-linecap:round;stroke-linejoin:round;stroke-dasharray:11.8676, 11.8676;stop-color:#000000"
     inkscape:transform-center-x="-5.5870775"
     inkscape:transform-center-y="1.3161091"
     d="m 104.04688,0 -35.736333,11.662109 24.503906,4.822266 6.337448,52.392232 c 0.570868,4.719421 4.878719,8.876266 9.631529,8.921731 15.83166,0.151445 30.51256,-3.149532 41.91763,-16.277903 3.50561,-4.035304 2.65135,-10.943392 -1.08444,-14.775517 z"
     inkscape:original-d="m 104.04688,0 -35.736333,11.662109 24.503906,4.822266 7.371097,60.9375 c 21.90326,1.60183 42.39378,-1.034847 56.19531,-23.738281 z"
     inkscape:path-effect="#path-effect12948" />
  <path
     id="rect12721"
     style="fill:#16133b;fill-opacity:1;stroke-width:2.30378;stroke-linecap:round;stroke-linejoin:round;stroke-dasharray:9.21514, 9.21514;stop-color:#000000"
     d="M 101.67188 10.189453 C 99.910622 10.135632 93.931934 13.200442 87.701172 15.478516 L 92.814453 16.484375 L 93.205078 19.720703 C 98.234479 15.232663 102.83361 11.201362 102.11328 10.345703 C 102.02931 10.245953 101.87959 10.195801 101.67188 10.189453 z " />
  <path
     id="path12784"
     style="fill:#ffe830;fill-opacity:1;stroke-width:5.658;stroke-linecap:round;stroke-linejoin:round;stroke-dasharray:22.632, 22.632;stop-color:#000000"
     inkscape:transform-center-x="0.82789392"
     inkscape:transform-center-y="-0.39435487"
     d="M -59.729968 -86.230396 C -60.597438 -86.007174 -61.474891 -85.780974 -62.287981 -85.572982 C -65.495423 -84.752506 -65.666063 -83.071343 -62.688329 -81.624286 C -60.562799 -80.591367 -58.128127 -79.400115 -56.004624 -78.362503 C -53.029519 -76.908769 -50.807081 -73.091637 -51.010808 -69.786626 C -51.156221 -67.427653 -51.323875 -64.723858 -51.474369 -62.365437 C -51.685204 -59.061438 -50.138139 -58.383431 -47.841738 -60.768259 C -46.202548 -62.470569 -44.318166 -64.412922 -42.675141 -66.111852 C -42.257104 -66.544113 -41.714659 -66.870699 -41.183317 -67.203328 L -59.729968 -86.230396 z M -107.77173 -73.061052 C -108.46288 -72.911425 -108.98917 -72.00355 -109.2172 -70.36397 C -109.33682 -69.503872 -109.46721 -68.576714 -109.59648 -67.65846 L -102.15 -66.191922 C -103.21149 -67.858757 -104.32629 -69.608497 -105.33593 -71.202594 C -106.22167 -72.601053 -107.0806 -73.210679 -107.77173 -73.061052 z M -82.962797 -62.281154 C -83.467907 -62.37604 -84.132782 -62.35862 -84.947681 -62.213727 C -87.274406 -61.800021 -89.939886 -61.337115 -92.267729 -60.928399 C -94.116013 -60.603881 -96.175091 -61.09005 -97.969528 -62.032516 L -94.872099 -36.414455 C -94.835228 -36.400649 -94.79063 -36.403579 -94.754101 -36.38917 C -92.555519 -35.521911 -90.035101 -34.530296 -87.838615 -33.658375 C -84.761476 -32.436867 -83.637839 -33.695776 -85.196318 -36.616736 C -86.308773 -38.70174 -87.573397 -41.094835 -88.681453 -43.182444 C -90.233882 -46.107262 -89.790147 -50.498018 -87.68269 -53.052077 C -86.17848 -54.875057 -84.458152 -56.968047 -82.950155 -58.78759 C -81.365697 -60.699391 -81.44747 -61.996494 -82.962797 -62.281154 z M -60.033389 -44.981903 C -60.724535 -44.832278 -61.250826 -43.924401 -61.478857 -42.284822 C -61.804396 -39.944133 -62.184918 -37.258627 -62.515547 -34.918418 C -62.978772 -31.639695 -65.921404 -28.35006 -69.127612 -27.522514 C -71.416063 -26.931848 -74.040167 -26.253933 -76.329662 -25.66827 C -79.537104 -24.847794 -79.70353 -23.166631 -76.725796 -21.719574 C -74.600266 -20.686655 -72.169808 -19.495403 -70.046305 -18.457791 C -67.0712 -17.004059 -64.848761 -13.186925 -65.05249 -9.8819145 C -65.197903 -7.522941 -65.361342 -4.8191461 -65.511836 -2.4607259 C -65.722671 0.84327408 -64.179822 1.5212811 -61.883419 -0.86354782 C -60.244229 -2.5658567 -58.355633 -4.50821 -56.712608 -6.2071408 C -54.410667 -8.5874059 -50.100266 -9.5208696 -47.01997 -8.3058075 C -44.821389 -7.4385483 -42.296756 -6.4469338 -40.10027 -5.5750123 C -37.023133 -4.3535046 -35.899494 -5.6166271 -37.457973 -8.5375879 C -38.570428 -10.622592 -39.839267 -13.015687 -40.947323 -15.103296 C -42.49975 -18.028114 -42.056016 -22.41887 -39.94856 -24.972929 C -38.444348 -26.795907 -36.719807 -28.884683 -35.21181 -30.704228 C -33.099199 -33.253294 -33.94974 -34.714155 -37.209336 -34.134578 C -39.536061 -33.720874 -42.205756 -33.253754 -44.533598 -32.845036 C -47.794992 -32.272409 -51.833148 -34.054957 -53.610964 -36.848517 C -54.879891 -38.842439 -56.33731 -41.126985 -57.601802 -43.123446 C -58.487538 -44.521903 -59.342245 -45.13153 -60.033389 -44.981903 z M -9.4883939 -34.695066 C -9.7098118 -34.250851 -9.8923374 -33.682859 -9.9983109 -32.920892 C -10.323851 -30.580203 -10.704371 -27.898911 -11.035002 -25.558702 C -11.498225 -22.279979 -14.440858 -18.990344 -17.647066 -18.162798 C -19.935519 -17.572132 -22.555407 -16.890003 -24.844902 -16.30434 C -28.052344 -15.483864 -28.222986 -13.806915 -25.24525 -12.359858 C -23.119722 -11.326939 -20.689262 -10.135687 -18.565759 -9.0980752 C -15.590654 -7.6443419 -13.368215 -3.8272088 -13.571944 -0.52219843 C -13.717357 1.8367752 -13.880795 4.5405699 -14.031291 6.8989903 C -14.242126 10.20299 -12.699276 10.885212 -10.402873 8.5003825 C -8.7636844 6.7980736 -6.8750882 4.8515061 -5.2320619 3.1525753 C -2.9301213 0.77231022 1.3802794 -0.16115366 4.4605752 1.0539087 C 6.6591573 1.9211677 9.1837905 2.9127823 11.380275 3.7847038 C 14.457414 5.0062115 15.581053 3.7473032 14.022572 0.82634239 C 12.910119 -1.2586613 11.641279 -3.6559707 10.533223 -5.7435799 C 9.255771 -8.1503357 9.3937593 -11.497939 10.634364 -14.049749 L -9.4883939 -34.695066 z M -54.415874 8.3697426 C -55.107019 8.5193691 -55.633311 9.4314597 -55.861341 11.071038 C -56.186881 13.411727 -56.571617 16.093019 -56.902246 18.433228 C -57.365471 21.711951 -60.303888 25.001586 -63.510096 25.829132 C -65.798549 26.419798 -68.42265 27.101927 -70.712147 27.68759 C -73.919589 28.508066 -74.090229 30.189229 -71.112495 31.636286 C -68.986965 32.669205 -66.552291 33.860457 -64.42879 34.898069 C -61.453685 36.351803 -59.231247 40.164721 -59.434974 43.469732 C -59.580387 45.828705 -59.748039 48.532501 -59.898535 50.89092 C -60.10937 54.19492 -58.562306 54.877142 -56.265903 52.492312 C -54.626715 50.790004 -52.742333 48.843437 -51.099306 47.144505 C -48.797367 44.764241 -44.482751 43.830776 -41.402455 45.045839 C -39.203873 45.913098 -36.683455 46.904712 -34.486969 47.776634 C -31.40983 48.998142 -30.281977 47.739233 -31.840458 44.818272 C -32.952913 42.733269 -34.221751 40.335959 -35.329807 38.24835 C -36.882236 35.323532 -36.438501 30.932776 -34.331044 28.378717 C -32.826834 26.555739 -31.102292 24.466963 -29.594295 22.647418 C -27.481684 20.098352 -28.332225 18.637491 -31.591821 19.217068 C -33.918544 19.630772 -36.58824 20.097892 -38.916083 20.50661 C -42.177477 21.079237 -46.215633 19.296689 -47.993448 16.503129 C -49.262377 14.509207 -50.719796 12.224661 -51.984286 10.2282 C -52.870023 8.8297426 -53.724729 8.220116 -54.415874 8.3697426 z M 1.7424226 20.540323 C 1.0512776 20.68995 0.52498592 21.597826 0.29695543 23.237405 C -0.028584318 25.578094 -0.40910498 28.259384 -0.73973532 30.599595 C -1.2029594 33.878318 -4.1455919 37.172167 -7.3517995 37.999713 C -9.6402519 38.590379 -12.260139 39.268295 -14.549636 39.853956 C -17.757078 40.674434 -17.927718 42.355596 -14.949984 43.802653 C -12.824454 44.835572 -10.393996 46.026824 -8.2704929 47.064436 C -5.4614294 48.437035 -3.3940919 51.905744 -3.3356764 55.071397 C 7.5271438 49.650308 17.65015 42.002415 26.787354 31.404505 C 26.258912 31.243018 25.532772 31.215835 24.566476 31.387649 C 22.239751 31.801353 19.570056 32.264259 17.242214 32.672977 C 13.98082 33.245604 9.9426642 31.467268 8.1648483 28.67371 C 6.8959199 26.679788 5.4427158 24.395242 4.1782245 22.398781 C 3.2924878 21.000324 2.4335676 20.390698 1.7424226 20.540323 z "
     transform="matrix(0.46346391,0,0,0.46346391,138.4112,46.818192)" />
  <path
     id="path12950"
     style="fill:#0d0c25;fill-opacity:0.6498673;stroke-width:2.96692;stroke-linecap:round;stroke-linejoin:round;stroke-dasharray:11.8676, 11.8676;stop-color:#000000"
     inkscape:transform-center-x="-5.5870775"
     inkscape:transform-center-y="1.3161091"
     d="M 152.78711 53.544922 C 139.91313 72.674978 122.45183 76.592865 101.41211 73.998047 C 103.23265 76.235538 105.91859 77.771425 108.7832 77.798828 C 124.61485 77.950273 139.29611 74.647889 150.70117 61.519531 C 152.56509 59.37398 153.16605 56.420587 152.78711 53.544922 z " />
  <path
     id="ellipse13298"
     style="fill:#ffe830;fill-rule:evenodd;fill-opacity:1"
     d="M 124.58924 87.26463 L 126.88373 92.037142 C 129.20161 96.8609 127.80678 103.68025 123.19691 106.38617 C 108.19926 115.18956 93.231657 113.63523 78.275746 108.44054 C 73.785848 106.88105 71.030075 101.56709 71.994793 96.912185 L 73.894157 87.75029 A 39.476513 18.436832 -180 0 0 60.43164 101.60695 A 39.476513 18.436832 -180 0 0 99.909028 120.04492 A 39.476513 18.436832 -180 0 0 139.38578 101.60823 A 39.476513 18.436832 -180 0 0 124.58924 87.26463 z "
     transform="rotate(-18.605747)" />
  <path
     id="rect13307"
     style="opacity:0.543902;fill:#896723;fill-opacity:1;stroke-width:5.658;stroke-linecap:round;stroke-linejoin:round;stroke-dasharray:22.632, 22.632;stop-color:#000000"
     d="m 98.029297,59.587891 c -6.066325,5.255659 -9.178881,10.772676 -8.722656,15.460937 4.350913,-3.965824 8.701826,-4.131228 13.052739,0 -1.71975,-1.630979 -2.923911,-3.831254 -3.207036,-6.171875 z"
     sodipodi:nodetypes="ccccc" />
  <path
     id="rect13312"
     style="opacity:0.543902;fill:#896723;fill-opacity:1;stroke-width:6.15965;stroke-linecap:round;stroke-linejoin:round;stroke-dasharray:24.6386, 24.6386;stop-color:#000000"
     d="m 145.91992,42.953125 3.69727,3.791016 c 2.30686,2.366358 3.50842,5.905371 3.26953,9.216797 4.00391,-6.536539 8.00781,-3.703013 12.01172,0 0.18146,-1.460085 0.0544,-2.846764 -0.37891,-4.134766 -1.8088,-5.279477 -8.64772,-8.542023 -18.59961,-8.873047 z"
     sodipodi:nodetypes="cccccc" />
  <metadata
     id="metadata13680">
    <rdf:RDF>
      <cc:Work
         rdf:about="">
        <dc:title>blook_anaconda</dc:title>
      </cc:Work>
    </rdf:RDF>
  </metadata>
  <path
     id="rect16361"
     style="opacity:1;fill:#9e9e9e;fill-opacity:0.627451;stroke:none;stroke-width:4.01462;stroke-linecap:round;stroke-linejoin:round;stroke-dasharray:none;stroke-opacity:1;stop-color:#000000"
     d="m 165.79102,106.24219 c 0.0956,1.14557 -0.40665,2.73635 0.26193,3.52948 6.39513,1.86448 13.04454,2.81231 19.701,2.93927 -0.5323,5.12086 -0.24038,10.3281 0.89257,15.35156 15.3261,-12.61641 35.50568,4.80348 39.58153,-0.54198 -0.4399,-4.85074 -1.12041,-9.67499 -1.76903,-14.50099 -10.40995,-0.52291 -20.9321,-0.53704 -31.17949,-2.65503 -2.56876,-0.92558 -5.15895,-1.2047 -7.83839,-1.00543 -6.64972,-0.1548 -13.29395,-1.13411 -19.65012,-3.11688 z"
     sodipodi:nodetypes="ccccccccc" />
  <path
     id="rect17392"
     style="opacity:1;fill:#9e9e9e;fill-opacity:0.44852942;stroke-width:1.43384;stroke-linecap:round;stroke-linejoin:round;stop-color:#000000"
     d="M 187.79102 167.46875 C 191.26224 177.20939 198.23081 187.29567 200.68555 188.48047 C 208.07491 192.04704 193.0061 191.75832 192.11133 193.22461 C 192.08601 193.2661 192.06594 193.31895 192.04102 193.36133 C 204.73229 193.86403 219.56114 190.96851 213.79297 189.69727 C 207.91578 188.40199 196.50939 175.2774 187.79102 167.46875 z " />
  <path
     id="path17400"
     style="opacity:1;fill:#9e9e9e;fill-opacity:0.52450979;stroke-width:1.80121;stroke-linecap:round;stroke-linejoin:round;stop-color:#000000"
     d="M 203.00586 214.62109 C 199.47267 214.58563 195.89354 214.91956 192.73047 215.45117 C 193.18122 215.70851 193.67046 215.83374 194.21875 215.71484 C 223.59427 209.34508 204.47662 240.53267 203.70703 245.06055 C 203.61457 245.60453 203.61414 245.95183 203.58594 246.35742 C 203.99583 246.99214 204.40644 247.63399 204.8125 248.25781 C 208.80837 245.93102 220.41838 224.2342 216.89453 220.22266 C 215.78998 218.96523 214.81026 217.64873 213.90625 216.31836 C 210.75523 215.16013 206.91749 214.66035 203.00586 214.62109 z " />
</svg>
