<?xml version="1.0" encoding="UTF-8" standalone="no"?>
<svg
   viewBox="0 0 300 345"
   version="1.1"
   id="svg34375"
   sodipodi:docname="Chick in Costume.svg"
   xml:space="preserve"
   inkscape:version="1.2 (dc2aedaf03, 2022-05-15)"
   xmlns:inkscape="http://www.inkscape.org/namespaces/inkscape"
   xmlns:sodipodi="http://sodipodi.sourceforge.net/DTD/sodipodi-0.dtd"
   xmlns:xlink="http://www.w3.org/1999/xlink"
   xmlns="http://www.w3.org/2000/svg"
   xmlns:svg="http://www.w3.org/2000/svg"><sodipodi:namedview
     id="namedview34377"
     pagecolor="#505050"
     bordercolor="#ffffff"
     borderopacity="1"
     inkscape:showpageshadow="0"
     inkscape:pageopacity="0"
     inkscape:pagecheckerboard="1"
     inkscape:deskcolor="#505050"
     showgrid="false"
     inkscape:zoom="1.401412"
     inkscape:cx="95.974632"
     inkscape:cy="209.78841"
     inkscape:window-width="1366"
     inkscape:window-height="705"
     inkscape:window-x="-8"
     inkscape:window-y="-8"
     inkscape:window-maximized="1"
     inkscape:current-layer="g35881" /><defs
     id="defs34333"><inkscape:path-effect
       effect="bspline"
       id="path-effect39480"
       is_visible="true"
       lpeversion="1"
       weight="33.333333"
       steps="2"
       helper_size="0"
       apply_no_weight="true"
       apply_with_weight="true"
       only_selected="false" /><inkscape:path-effect
       effect="bspline"
       id="path-effect37994"
       is_visible="true"
       lpeversion="1"
       weight="33.333333"
       steps="2"
       helper_size="0"
       apply_no_weight="true"
       apply_with_weight="true"
       only_selected="false" /><linearGradient
       id="A-5"
       x1="150"
       y1="356.11"
       x2="150"
       y2="161.16"
       gradientUnits="userSpaceOnUse"
       gradientTransform="translate(-7.0511393,-12.692055)"><stop
         offset="0"
         stop-color="#fabc2e"
         id="stop34844" /><stop
         offset="1"
         stop-color="#cd8029"
         id="stop34846" /></linearGradient><linearGradient
       id="B-1"
       x1="262.25"
       y1="228.96"
       x2="277.18"
       y2="283.47"
       gradientUnits="userSpaceOnUse"><stop
         offset="0"
         stop-color="#fabc2e"
         stop-opacity=".1"
         id="stop34849" /><stop
         offset="1"
         stop-color="#f27ba5"
         id="stop34851" /></linearGradient><linearGradient
       id="C-17"
       x1="42.75"
       y1="221.68"
       x2="19.53"
       y2="288.93"
       xlink:href="#B-1"
       gradientTransform="translate(-7.0511393,-12.692055)" /><linearGradient
       inkscape:collect="always"
       xlink:href="#B-1"
       id="linearGradient34924"
       gradientUnits="userSpaceOnUse"
       x1="262.25"
       y1="228.96"
       x2="277.18"
       y2="283.47"
       gradientTransform="translate(-7.0511393,-12.692055)" /><path
       id="B-4"
       d="M196.72 247.18c0 17.06-20.92 33.43-46.72 33.43s-46.72-16.37-46.72-33.43 27.5-38.26 46.72-38.26 46.72 21.2 46.72 38.26z" /><path
       id="C-6"
       d="M150 252.36s-35.68 25.55-35.68 51.32a19.16 19.16 0 0 0 35.68 9.71 19.16 19.16 0 0 0 35.68-9.71c0-25.77-35.68-51.32-35.68-51.32z" /></defs><g
     id="g35835"
     transform="translate(7.0511329,12.69206)"><path
       d="M 256.56886,332.30794 H 29.328861 c -20.0921193,0 -36.3799909,-22.25872 -36.3799939,-42.35083 l -6.4e-6,-43.50917 H 292.94886 l 10e-6,43.50917 c 0,20.09211 -16.28789,42.35083 -36.38001,42.35083 z"
       fill="url(#A)"
       id="path34857"
       style="fill:url(#A-5)"
       sodipodi:nodetypes="sssccss" /><rect
       y="32.307945"
       width="300"
       height="253.39"
       rx="36.380001"
       fill="#ffcd05"
       id="rect34859"
       x="-7.0511265" /><ellipse
       cx="264.57886"
       cy="250.55794"
       rx="17.59"
       ry="13.87"
       fill="url(#B)"
       id="ellipse34861"
       style="fill:url(#linearGradient34924)" /><ellipse
       cx="21.318869"
       cy="250.55794"
       rx="17.59"
       ry="13.87"
       fill="url(#C)"
       id="ellipse34863"
       style="fill:url(#C-17)" /><g
       fill="#fabc2e"
       id="g34869"
       transform="translate(-7.0511393,-12.692055)"><circle
         cx="247.53"
         cy="199.19"
         r="44.150002"
         id="circle34865" /><circle
         cx="52.470001"
         cy="199.19"
         r="44.150002"
         id="circle34867" /></g><g
       fill="#ffffff"
       id="g34875"
       transform="translate(-7.0511393,-12.692055)"><circle
         cx="247.53"
         cy="211.45"
         r="44.150002"
         id="circle34871" /><circle
         cx="52.470001"
         cy="211.45"
         r="44.150002"
         id="circle34873" /></g><path
       d="m 83.888861,192.30794 a 16,16 0 0 1 -23.24,-21.64999 28.12,28.12 0 0 0 -3.91,-0.28 27.81,27.81 0 1 0 27.15,21.99999 z m -38.8,24 a 6.61,6.61 0 1 1 6.6,-6.6 6.61,6.61 0 0 1 -6.6,6.6 z m 211.199999,-24.12 a 16,16 0 0 1 -23.11,-21.50999 27.72,27.72 0 1 0 23.11,21.50999 z m -39,24.1 a 6.61,6.61 0 1 1 6.61,-6.6 6.61,6.61 0 0 1 -6.64,6.63 z"
       fill="#414042"
       id="path34877" /><path
       d="M 79.948861,285.70794 H 206.32886 c -11.82,-25.7 -32.36,-46.6 -63.38,-46.6 -31.02,0 -51.559999,20.9 -63.379999,46.6 z"
       fill="#fabc2e"
       id="path34879" /><path
       d="m 194.51886,235.24794 c 0,18.83 -23.1,36.9 -51.57,36.9 -28.47,0 -51.569999,-18.06 -51.569999,-36.9 0,-18.84 30.369999,-42.24 51.569999,-42.24 21.2,0 51.57,23.4 51.57,42.23 z"
       fill="#e29a25"
       id="path34881" /><path
       d="m 194.51886,224.53794 c 0,18.83 -23.1,36.9 -51.57,36.9 -28.47,0 -51.569999,-18.06 -51.569999,-36.9 0,-18.84 30.369999,-42.23 51.569999,-42.23 21.2,0 51.57,23.4 51.57,42.23 z"
       fill="#f57f21"
       id="path34883" /><path
       d="m 142.94886,246.96794 c -26.44,0 -48.919999,-11.65 -48.919999,-11.65 6.819999,13.54 26.139999,26.1 48.919999,26.1 22.78,0 42.1,-12.57 48.92,-26.1 0,-0.01 -22.48,11.65 -48.92,11.65 z"
       fill="#d75927"
       id="path34885" /><path
       d="m 160.80886,205.42794 c -2.9,6.15 -8,6 -17.86,6 -9.86,0 -14.9,0.37 -17.87,-6 -4.18,-8.94 8,-17.86 17.87,-17.86 9.87,0 22.07,8.94 17.86,17.86 z"
       fill="#fbac4c"
       id="path34887" /><path
       d="M 79.568861,285.70794 H 206.34886 v 46.6 H 79.568861 Z"
       fill="#e29a25"
       id="path34889" /><path
       d="m 88.728861,73.837945 q -2.58,4.27 -5.26,8.47 l -4.03,6.3 a 20.14,20.14 0 0 0 -1.25,2 9.23,9.23 0 0 0 -0.76,7.8 9.54,9.54 0 0 0 5,5.520005 l 0.85,0.3 a 4.29,4.29 0 0 0 0.42,0.15 l 0.44,0.08 c 0.3,0 0.58,0.12 0.87,0.16 h 1.3 l 0.44,-0.08 c 0.3,0 0.57,-0.1 0.86,-0.12 0.29,-0.02 0.57,-0.2 0.86,-0.28 l 0.42,-0.13 a 3.45,3.45 0 0 0 0.5,-0.16 l 9.28,-3.58 9.299999,-3.500005 13.16,-4.84 1.94,3.87 q 5.2,10.400005 10.26,20.840005 l 0.3,0.66 0.16,0.32 0.13,0.24 0.52,0.93 a 13.59,13.59 0 0 0 1.22,1.68 12.58,12.58 0 0 0 3.08,2.65 13.46,13.46 0 0 0 7.95,1.8 12.81,12.81 0 0 0 7.46,-3.16 13.18,13.18 0 0 0 2.63,-3.19 l 0.5,-1 0.64,-1.3 1.27,-2.6 q 5.16,-10.4 10.43,-20.760005 l 2,-3.94 3.76,1.72 16,7.44 4,1.880005 0.95,0.44 0.74,0.3 a 7,7 0 0 0 1.52,0.45 8.31,8.31 0 0 0 6.16,-1.260005 9.62,9.62 0 0 0 3.3,-12.6 l -7.7,-16 c 3.62,4.7 7.07,9.48 10.54,14.26 0.43,0.65 0.85,1.42 1.27,2.14 a 23.79,23.79 0 0 1 0.88,2.41 13.24,13.24 0 0 1 0.29,5.21 14.53,14.53 0 0 1 -1.66,5.000005 15.39,15.39 0 0 1 -3.45,4.11 c -0.36,0.28 -0.7,0.6 -1.07,0.85 l -1.18,0.7 -0.6,0.35 -0.64,0.28 -1.3,0.52 a 19.36,19.36 0 0 1 -2.76,0.61 l -1.42,0.08 h -0.7 l -0.7,-0.06 a 12.93,12.93 0 0 1 -2.78,-0.47 l -1.36,-0.4 c -0.45,-0.14 -0.72,-0.25 -1.1,-0.38 l -4.15,-1.53 -16.54,-6.200005 5.77,-2.2 -9.42,21.240005 -1.2,2.64 -0.6,1.32 -0.82,1.6 a 22.63,22.63 0 0 1 -4.57,5.86 23,23 0 0 1 -13.47,5.92 23.24,23.24 0 0 1 -14.31,-3.32 22.51,22.51 0 0 1 -5.64,-4.92 21.71,21.71 0 0 1 -2.12,-3.06 c -0.33,-0.53 -0.58,-1.1 -0.86,-1.63 l -0.2,-0.4 -0.15,-0.33 -0.3,-0.66 q -4.83,-10.56 -9.5,-21.200005 l 5.76,2.470005 -9.5,2.9 -9.53,2.83 -9.549999,2.75 a 7.71,7.71 0 0 1 -0.7,0.18 l -0.78,0.17 c -0.52,0.1 -1,0.22 -1.56,0.28 l -1.6,0.07 h -0.8 c -0.27,0 -0.54,-0.06 -0.8,-0.1 l -1.6,-0.22 c -0.52,-0.12 -1,-0.3 -1.54,-0.45 l -0.76,-0.25 c -0.25,-0.1 -0.48,-0.22 -0.72,-0.33 l -1.42,-0.72 a 15,15 0 0 1 -6.85,-9.750005 13.53,13.53 0 0 1 0.07,-5.94 12.34,12.34 0 0 1 1,-2.76 c 0.23,-0.43 0.42,-0.87 0.68,-1.27 l 0.85,-1.15 a 21.92,21.92 0 0 1 1.67,-2 l 1.7,-1.84 3.36,-3.68 c 2.25,-2.2 4.54,-4.62 6.85,-7.02 z"
       fill="#eaa622"
       id="path34891" /></g><path
     id="path34696"
     style="clip-rule:evenodd;display:inline;fill:#e4f5fd;fill-opacity:1;fill-rule:evenodd;stroke-width:2.299;stroke-linejoin:round;stroke-miterlimit:2;stroke:none;stroke-opacity:1;stroke-dasharray:none;paint-order:normal"
     d="M 249.20117 31.791016 C 246.53255 31.555875 244.13472 34.938381 242.52734 37.023438 C 242.03434 37.663879 241.53655 38.302371 241.06055 38.960938 C 240.72255 39.42858 240.41295 39.912867 240.12695 40.417969 L 51.570312 40.417969 C 50.702313 38.745573 49.684733 37.153932 48.427734 36.041016 C 46.885736 34.675548 45.234061 34.295128 43.664062 35.775391 C 42.566064 36.810972 41.667296 38.392038 41.029297 39.871094 C 40.955297 40.041475 40.887312 40.225837 40.820312 40.417969 L 38.949219 40.417969 C 38.646219 39.946701 38.337484 39.482621 38.021484 39.023438 C 36.502486 36.813314 34.921169 34.533564 32.326172 34.521484 C 29.211175 34.506984 27.944312 38.125383 27.695312 41.681641 C 11.804328 46.390691 -1.0127204e-16 63.731346 0 84.378906 L 0 302.64844 C 0 325.51236 9.1654742 340.31473 24.808594 345 L 273.25195 345 C 288.65497 339.88654 300 322.8761 300 302.64844 L 300 84.378906 C 300 60.115879 283.69812 40.417969 263.61914 40.417969 L 261.2168 40.417969 C 260.3898 39.070627 259.42731 37.842959 258.19531 37.119141 C 257.66131 36.806171 257.02678 36.4339 256.42578 36.4375 C 255.22578 36.443542 254.4862 37.614359 253.4082 38.03125 C 253.3452 38.055417 253.39567 37.871509 253.38867 37.792969 C 253.37367 37.606878 253.3598 37.420466 253.3418 37.234375 C 253.2908 36.691814 253.20078 36.161254 253.05078 35.646484 C 252.60578 34.119095 251.60537 32.75243 250.35938 32.128906 C 249.96863 31.9333 249.5824 31.824607 249.20117 31.791016 z M 193.80664 120.10352 C 232.40863 120.42798 282.67773 160.37169 282.67773 180.33984 L 282.67773 304.05273 C 282.67773 313.38988 276.40473 320.96875 268.67773 320.96875 L 84.714844 320.96875 C 83.764845 319.7362 82.738499 318.65168 81.5625 317.67773 C 80.039502 316.41498 78.355139 315.46734 76.494141 316.0957 C 75.494142 316.43163 74.579031 317.15089 73.832031 318.01367 C 73.410032 318.50306 73.01689 319.38251 72.462891 319.66406 C 72.450891 319.6701 72.185922 319.10877 72.169922 319.07617 C 71.816922 318.38497 71.427484 317.70117 71.021484 317.05469 C 69.963485 315.369 68.564077 313.83925 66.955078 312.9668 C 66.480079 312.70821 65.991749 312.41248 65.46875 312.33398 C 64.481751 312.18776 63.475608 312.66639 62.599609 313.1582 C 60.285612 314.45721 58.604155 316.71325 56.910156 318.95117 C 56.402157 319.62182 55.877484 320.27393 55.396484 320.96875 L 31.322266 320.96875 C 23.595273 320.96875 17.322266 313.38988 17.322266 304.05273 L 17.322266 180.33984 C 17.322266 145.33808 150.63889 161.11555 154.2168 149.81445 C 161.12526 127.99354 176.26028 119.95603 193.80664 120.10352 z " /><g
     transform="matrix(1,0,0,1.2083795,3.17319,-13.958348)"
     id="g34700"
     style="clip-rule:evenodd;display:inline;fill-rule:evenodd;stroke-linejoin:round;stroke-miterlimit:2">
                <path
   d="m 132.129,296.5 c -1.925,-0.357 -3.931,-0.41 -5.878,-0.705 -0.724,-0.11 -1.606,-0.047 -2.272,-0.396 -1.392,-0.731 -2.186,-2.382 -2.673,-3.801 -1.068,-3.113 -1.755,-7.292 0.476,-10.07 1.822,-2.268 5.182,-2.519 7.886,-2.429 0.534,0.018 2.35,-0.242 2.665,0.322 0.305,0.546 0.221,1.288 0.205,1.889 -0.031,1.137 -0.075,2.275 -0.131,3.411 -0.188,3.773 -0.109,7.795 -0.278,11.779 z"
   style="fill:#b6b6b6"
   id="path34698" />
            </g><path
     id="path44571"
     style="clip-rule:evenodd;display:inline;fill:none;fill-opacity:1;fill-rule:evenodd;stroke-width:2.299;stroke-linejoin:round;stroke-miterlimit:2;stroke:#bfe5f8;stroke-opacity:1;stroke-dasharray:none;paint-order:normal"
     d="M 249.20117 31.791016 C 246.53255 31.555875 244.13472 34.938381 242.52734 37.023438 C 242.03434 37.663879 241.53655 38.302371 241.06055 38.960938 C 240.72255 39.42858 240.41295 39.912867 240.12695 40.417969 L 51.570312 40.417969 C 50.702313 38.745573 49.684733 37.153932 48.427734 36.041016 C 46.885736 34.675548 45.234061 34.295128 43.664062 35.775391 C 42.566064 36.810972 41.667296 38.392038 41.029297 39.871094 C 40.955297 40.041475 40.887312 40.225837 40.820312 40.417969 L 38.949219 40.417969 C 38.646219 39.946701 38.337484 39.482621 38.021484 39.023438 C 36.502486 36.813314 34.921169 34.533564 32.326172 34.521484 C 29.211175 34.506984 27.944312 38.125383 27.695312 41.681641 C 11.804328 46.390691 -1.0127204e-16 63.731346 0 84.378906 L 0 302.64844 C 0 325.51236 9.1654742 340.31473 24.808594 345 L 273.25195 345 C 288.65497 339.88654 300 322.8761 300 302.64844 L 300 84.378906 C 300 60.115879 283.69812 40.417969 263.61914 40.417969 L 261.2168 40.417969 C 260.3898 39.070627 259.42731 37.842959 258.19531 37.119141 C 257.66131 36.806171 257.02678 36.4339 256.42578 36.4375 C 255.22578 36.443542 254.4862 37.614359 253.4082 38.03125 C 253.3452 38.055417 253.39567 37.871509 253.38867 37.792969 C 253.37367 37.606878 253.3598 37.420466 253.3418 37.234375 C 253.2908 36.691814 253.20078 36.161254 253.05078 35.646484 C 252.60578 34.119095 251.60537 32.75243 250.35938 32.128906 C 249.96863 31.9333 249.5824 31.824607 249.20117 31.791016 z M 193.80664 120.10352 C 232.40863 120.42798 282.67773 160.37169 282.67773 180.33984 L 282.67773 304.05273 C 282.67773 313.38988 276.40473 320.96875 268.67773 320.96875 L 84.714844 320.96875 C 83.764845 319.7362 82.738499 318.65168 81.5625 317.67773 C 80.039502 316.41498 78.355139 315.46734 76.494141 316.0957 C 75.494142 316.43163 74.579031 317.15089 73.832031 318.01367 C 73.410032 318.50306 73.01689 319.38251 72.462891 319.66406 C 72.450891 319.6701 72.185922 319.10877 72.169922 319.07617 C 71.816922 318.38497 71.427484 317.70117 71.021484 317.05469 C 69.963485 315.369 68.564077 313.83925 66.955078 312.9668 C 66.480079 312.70821 65.991749 312.41248 65.46875 312.33398 C 64.481751 312.18776 63.475608 312.66639 62.599609 313.1582 C 60.285612 314.45721 58.604155 316.71325 56.910156 318.95117 C 56.402157 319.62182 55.877484 320.27393 55.396484 320.96875 L 31.322266 320.96875 C 23.595273 320.96875 17.322266 313.38988 17.322266 304.05273 L 17.322266 180.33984 C 17.322266 145.33808 150.63889 161.11555 154.2168 149.81445 C 161.12526 127.99354 176.26028 119.95603 193.80664 120.10352 z " /><path
     id="path34704"
     style="clip-rule:evenodd;display:inline;fill:#e4f5fd;fill-opacity:1;fill-rule:evenodd;stroke-width:1.09926;stroke-linejoin:round;stroke-miterlimit:2"
     d="M 249.20117 31.791016 C 246.53255 31.555875 244.13472 34.938381 242.52734 37.023438 C 242.03434 37.663879 241.53655 38.302371 241.06055 38.960938 C 240.72255 39.42858 240.41295 39.912867 240.12695 40.417969 L 150 40.417969 L 155.34766 151.95312 C 213.50185 158.07394 282.67773 153.31401 282.67773 180.33984 L 282.67773 304.05273 C 282.67773 313.38988 276.3904 321.43911 268.67773 320.96875 C 235.5837 318.95049 199.36507 329.25811 169.4375 314.75 C 167.3385 314.08418 165.24472 313.3336 163.13672 312.50586 C 156.80773 310.01901 150.39102 306.27656 143.58203 307.66016 C 134.08104 309.59234 122.67779 321.04272 127.67578 333.80078 C 128.44178 335.75835 129.58775 337.66272 130.84375 339.20703 C 132.67675 341.45824 135.2158 343.11643 137.5918 344.38281 C 138.07546 344.6407 138.59023 344.80688 139.0957 345 L 156.11719 345 C 158.01159 344.14892 159.81203 343.02705 161.72656 342.24219 C 164.24556 341.20902 166.99775 340.58517 169.71875 340.39062 L 191.48828 345 L 273.95312 345 C 290.97548 339.60163 300 321.05012 300 302.64844 L 300 84.378906 C 300 60.115879 283.69812 40.417968 263.61914 40.417969 L 261.2168 40.417969 C 260.3898 39.070626 259.42731 37.842959 258.19531 37.119141 C 257.66131 36.806171 257.02678 36.4339 256.42578 36.4375 C 255.22578 36.443542 254.4862 37.614359 253.4082 38.03125 C 253.3452 38.055417 253.39567 37.871509 253.38867 37.792969 C 253.37367 37.606878 253.3598 37.420466 253.3418 37.234375 C 253.2908 36.691814 253.20078 36.161254 253.05078 35.646484 C 252.60578 34.119095 251.60537 32.75243 250.35938 32.128906 C 249.96863 31.9333 249.5824 31.824607 249.20117 31.791016 z " /><path
     id="path43702"
     style="clip-rule:evenodd;display:none;fill:#c6e8f9;fill-opacity:1;fill-rule:evenodd;stroke:none;stroke-width:1.09926;stroke-linejoin:round;stroke-miterlimit:2;stroke-opacity:1"
     d="m 249.20117,31.791016 c -2.66862,-0.235141 -5.06645,3.147367 -6.67383,5.232422 -0.493,0.64044 -0.99079,1.278933 -1.46679,1.9375 -0.338,0.467641 -0.6476,0.951929 -0.9336,1.457031 H 51.6875 c 0.588595,0.804595 1.131508,1.675127 1.611328,2.599609 H 238.54297 c 0.28098,-0.496227 0.58591,-0.972215 0.91797,-1.43164 0.46764,-0.646997 0.95706,-1.273156 1.4414,-1.902344 1.57914,-2.048425 3.93491,-5.371635 6.55664,-5.140625 0.37453,0.033 0.75283,0.139862 1.13672,0.332031 1.2241,0.612569 2.20734,1.954524 2.64453,3.455078 0.14736,0.505726 0.23506,1.027519 0.28516,1.560547 0.0177,0.182822 0.0322,0.366006 0.0469,0.548828 0.007,0.07716 -0.0424,0.256162 0.0195,0.232422 1.05906,-0.409568 1.78592,-1.558553 2.96484,-1.564453 0.59044,-0.0035 1.21366,0.362451 1.73828,0.669922 1.21036,0.711101 2.15628,1.916563 2.96875,3.240234 h 2.35938 c 19.72622,0 35.74218,19.3527 35.74218,43.189453 V 300.64062 c 0,19.87229 -11.14689,36.5838 -26.27929,41.60743 H 27.007812 C 11.639525,337.64509 2.6347656,323.10285 2.6347656,300.64062 V 86.207031 c 0,-20.284805 11.5971874,-37.320948 27.2089844,-41.947265 0.244626,-3.493779 1.488557,-7.049407 4.548828,-7.035157 1.619459,0.0075 2.819669,0.95108 3.875,2.167969 -0.08271,-0.122356 -0.162393,-0.247514 -0.246094,-0.36914 -1.518996,-2.210122 -3.100318,-4.489874 -5.695312,-4.501954 -3.114994,-0.0145 -4.38186,3.603902 -4.63086,7.160157 C 11.804344,46.390686 0,63.731367 0,84.378906 V 302.64844 C 0,325.51233 9.1654896,340.31473 24.808594,345 H 273.25195 C 288.65496,339.88655 300,322.87608 300,302.64844 V 84.378906 C 300,60.115904 283.6981,40.417969 263.61914,40.417969 h -2.40234 c -0.827,-1.347341 -1.78949,-2.575011 -3.02149,-3.298828 -0.534,-0.31297 -1.16853,-0.685241 -1.76953,-0.681641 -1.2,0.006 -1.93958,1.176859 -3.01758,1.59375 -0.063,0.02417 -0.0125,-0.159741 -0.0195,-0.238281 -0.015,-0.186091 -0.0289,-0.372503 -0.0469,-0.558594 -0.051,-0.54256 -0.14102,-1.073121 -0.29102,-1.587891 -0.445,-1.527387 -1.44542,-2.894054 -2.6914,-3.517578 -0.39075,-0.195606 -0.77698,-0.304299 -1.15821,-0.33789 z M 46.056641,34.841797 c -0.801918,-0.08076 -1.60758,0.193463 -2.392579,0.933594 -1.097996,1.03558 -1.996767,2.616648 -2.634765,4.095703 -0.074,0.170381 -0.141985,0.354743 -0.208985,0.546875 h -1.708984 c 0.296976,0.404867 0.591044,0.814474 0.876953,1.230469 0.310449,0.451115 0.614433,0.906152 0.91211,1.36914 h 1.83789 c 0.06582,-0.188757 0.132378,-0.369721 0.205078,-0.537109 0.626791,-1.453071 1.509183,-3.006051 2.587891,-4.023438 1.542415,-1.454256 3.166734,-1.081713 4.681641,0.259766 0.404219,0.357885 0.746603,0.828483 1.103515,1.273437 -0.815567,-1.50733 -1.743717,-2.935504 -2.888672,-3.949218 -0.770998,-0.682734 -1.569176,-1.118464 -2.371093,-1.199219 z"
     inkscape:label="stroke" /><g
     transform="matrix(1.74006,0.19347306,-0.190745,1.7649465,-54.2541,-248.96879)"
     id="g34732"
     style="clip-rule:evenodd;display:inline;fill-rule:evenodd;stroke-linejoin:round;stroke-miterlimit:2">
                <g
   transform="matrix(1.28965,0,0,1.28965,-44.2385,-89.5897)"
   id="g34710">
                    <circle
   cx="150.259"
   cy="309.59201"
   r="4.9689999"
   style="fill:#b6b6b6"
   id="circle34708" />
                </g>
                <g
   transform="translate(-0.716108,0.0832963)"
   id="g34714">
                    <circle
   cx="150.259"
   cy="309.59201"
   r="4.9689999"
   style="fill:#996040"
   id="circle34712" />
                </g>
                <g
   transform="translate(-0.716108,0.0832963)"
   id="g34718">
                    <path
   d="m 150.259,303.909 c -3.136,0 -5.683,2.547 -5.683,5.683 0,3.136 2.547,5.683 5.683,5.683 3.136,0 5.683,-2.547 5.683,-5.683 0,-3.136 -2.547,-5.683 -5.683,-5.683 z m 0,1.429 c 2.348,0 4.254,1.906 4.254,4.254 0,2.348 -1.906,4.254 -4.254,4.254 -2.348,0 -4.254,-1.906 -4.254,-4.254 0,-2.348 1.906,-4.254 4.254,-4.254 z"
   style="fill:#6a3e26"
   id="path34716" />
                </g>
                <g
   transform="matrix(1.22835,0,0,1.22835,-34.1876,-70.7142)"
   id="g34722">
                    <path
   d="m 150.948,310.137 c -0.521,0 -0.945,0.424 -0.945,0.946 0,0.521 0.424,0.945 0.945,0.945 0.522,0 0.946,-0.424 0.946,-0.945 0,-0.522 -0.424,-0.946 -0.946,-0.946 z m -2.746,0 c -0.522,0 -0.945,0.424 -0.945,0.946 0,0.521 0.423,0.945 0.945,0.945 0.522,0 0.945,-0.424 0.945,-0.945 0,-0.522 -0.423,-0.946 -0.945,-0.946 z m 2.746,0.5 c 0.246,0 0.446,0.2 0.446,0.446 0,0.245 -0.2,0.445 -0.446,0.445 -0.245,0 -0.445,-0.2 -0.445,-0.445 0,-0.246 0.2,-0.446 0.445,-0.446 z m -2.746,0 c 0.246,0 0.445,0.2 0.445,0.446 0,0.245 -0.199,0.445 -0.445,0.445 -0.246,0 -0.445,-0.2 -0.445,-0.445 0,-0.246 0.199,-0.446 0.445,-0.446 z m 0,-3.314 c -0.522,0 -0.945,0.423 -0.945,0.945 0,0.522 0.423,0.945 0.945,0.945 0.522,0 0.945,-0.423 0.945,-0.945 0,-0.522 -0.423,-0.945 -0.945,-0.945 z m 2.746,0 c -0.521,0 -0.945,0.423 -0.945,0.945 0,0.522 0.424,0.945 0.945,0.945 0.522,0 0.946,-0.423 0.946,-0.945 0,-0.522 -0.424,-0.945 -0.946,-0.945 z m -2.746,0.5 c 0.246,0 0.445,0.199 0.445,0.445 0,0.246 -0.199,0.445 -0.445,0.445 -0.246,0 -0.445,-0.199 -0.445,-0.445 0,-0.246 0.199,-0.445 0.445,-0.445 z m 2.746,0 c 0.246,0 0.446,0.199 0.446,0.445 0,0.246 -0.2,0.445 -0.446,0.445 -0.245,0 -0.445,-0.199 -0.445,-0.445 0,-0.246 0.2,-0.445 0.445,-0.445 z"
   style="fill:#6a3e26"
   id="path34720" />
                </g>
                <g
   transform="matrix(1.22835,0,0,1.22835,-34.1876,-70.7142)"
   id="g34726">
                    <path
   d="m 147.996,308.622 2.499,2.596 c 0.153,0.159 0.406,0.164 0.565,0.01 0.159,-0.153 0.164,-0.406 0.011,-0.565 l -2.499,-2.596 c -0.153,-0.159 -0.407,-0.163 -0.566,-0.01 -0.159,0.153 -0.164,0.406 -0.01,0.565 z"
   style="fill:#6a3e26"
   id="path34724" />
                </g>
                <g
   transform="matrix(-1.22835,0,0,1.22835,333.171,-70.7142)"
   id="g34730">
                    <path
   d="m 147.996,308.622 2.499,2.596 c 0.153,0.159 0.406,0.164 0.565,0.01 0.159,-0.153 0.164,-0.406 0.011,-0.565 l -2.499,-2.596 c -0.153,-0.159 -0.407,-0.163 -0.566,-0.01 -0.159,0.153 -0.164,0.406 -0.01,0.565 z"
   style="fill:#6a3e26"
   id="path34728" />
                </g>
            </g><path
     style="opacity:1;fill:none;fill-opacity:1;stroke:#9dd7f4;stroke-width:2.67671;stroke-linecap:round;stroke-linejoin:bevel;stroke-dasharray:5.35343, 5.35343;stroke-dashoffset:0;stroke-opacity:1;paint-order:stroke fill markers;stop-color:#000000"
     d="M 207.05047,43.646825 208.00485,152.6059"
     id="path40191" /><path
     d="m 105.25024,59.728691 c 5.93344,15.438745 23.45259,14.708573 23.45259,14.708573 0,0 -8.7108,5.928993 -4.9235,15.771704 3.7873,9.842712 16.06735,8.563446 20.08418,6.951232 4.01684,-1.612218 6.39824,7.6814 10.99466,5.84137 8.53291,-3.411356 8.98623,-45.036974 -8.18287,-63.145226 h -38.93462 c -3.27085,4.275884 -5.88754,10.981779 -2.4847,19.860664 z"
     fill="#bfe7fb"
     id="path34969"
     style="stroke-width:0.578963" /><path
     id="path44849"
     style="clip-rule:evenodd;display:inline;fill:none;fill-opacity:1;fill-rule:evenodd;stroke-width:1.799;stroke-linejoin:round;stroke-miterlimit:2;stroke:#bfe5f8;stroke-opacity:1;stroke-dasharray:none"
     d="M 249.20117 31.791016 C 246.53255 31.555875 244.13472 34.938381 242.52734 37.023438 C 242.03434 37.663879 241.53655 38.302371 241.06055 38.960938 C 240.72255 39.42858 240.41295 39.912867 240.12695 40.417969 L 150 40.417969 L 155.34766 151.95312 C 213.50185 158.07394 282.67773 153.31401 282.67773 180.33984 L 282.67773 304.05273 C 282.67773 313.38988 276.3904 321.43911 268.67773 320.96875 C 235.5837 318.95049 199.36507 329.25811 169.4375 314.75 C 167.3385 314.08418 165.24472 313.3336 163.13672 312.50586 C 156.80773 310.01901 150.39102 306.27656 143.58203 307.66016 C 134.08104 309.59234 122.67779 321.04272 127.67578 333.80078 C 128.44178 335.75835 129.58775 337.66272 130.84375 339.20703 C 132.67675 341.45824 135.2158 343.11643 137.5918 344.38281 C 138.07546 344.6407 138.59023 344.80688 139.0957 345 L 156.11719 345 C 158.01159 344.14892 159.81203 343.02705 161.72656 342.24219 C 164.24556 341.20902 166.99775 340.58517 169.71875 340.39062 L 191.48828 345 L 273.95312 345 C 290.97548 339.60163 300 321.05012 300 302.64844 L 300 84.378906 C 300 60.115879 283.69812 40.417968 263.61914 40.417969 L 261.2168 40.417969 C 260.3898 39.070626 259.42731 37.842959 258.19531 37.119141 C 257.66131 36.806171 257.02678 36.4339 256.42578 36.4375 C 255.22578 36.443542 254.4862 37.614359 253.4082 38.03125 C 253.3452 38.055417 253.39567 37.871509 253.38867 37.792969 C 253.37367 37.606878 253.3598 37.420466 253.3418 37.234375 C 253.2908 36.691814 253.20078 36.161254 253.05078 35.646484 C 252.60578 34.119095 251.60537 32.75243 250.35938 32.128906 C 249.96863 31.9333 249.5824 31.824607 249.20117 31.791016 z " /><path
     d="m 140.63894,3.3941188 c -3.1212,0.467906 -22.77403,4.237896 -22.77403,23.1947972 0,18.956901 22.09318,25.627912 22.09318,25.627912 0,0 -13.61699,2.626962 -13.61699,14.732373 0,12.105412 15.83549,15.942246 21.61123,15.942246 5.77575,0 4.2687,10.895539 10.86299,10.895539 27.41758,0 40.75917,-99.4167803 -18.17638,-90.3995522 z"
     fill="#ed1c24"
     id="path34971"
     style="stroke-width:0.715091" /><g
     id="g35881"
     transform="translate(0.9813695,-3.208553)"><use
       xlink:href="#B-4"
       fill="#bfe7fb"
       id="use34957"
       transform="matrix(0.70240275,0,0,0.63272829,43.658218,-18.539664)" /><use
       xlink:href="#C-6"
       fill="#4cc9f5"
       id="use34959"
       transform="matrix(0.70240275,0,0,0.70240275,43.658218,-33.096053)"
       style="fill:#e29a25;fill-opacity:1" /><use
       xlink:href="#C-6"
       y="-7"
       fill="#ed1c24"
       id="use34961"
       transform="matrix(0.70240275,0,0,0.70240275,43.658218,-33.096053)" /><use
       xlink:href="#B-4"
       y="-9.6999998"
       fill="#f57f21"
       id="use34963"
       transform="matrix(0.70240275,0,0,0.70240275,43.658218,-33.096053)" /><path
       d="m 149.01864,147.98337 c -16.85767,0 -31.13752,-7.41035 -31.13752,-7.41035 4.3549,8.61849 16.64695,16.61885 31.13752,16.61885 14.49056,0 26.78964,-8.00739 31.13751,-16.61885 0,0 -14.27985,7.41035 -31.13751,7.41035 z"
       fill="#d75927"
       id="path34965"
       style="stroke-width:0.702403" /><path
       d="m 160.38351,121.55196 c -1.84732,3.91239 -5.08539,3.79298 -11.36487,3.79298 -6.27948,0 -9.48244,0.23881 -11.37893,-3.79298 -2.66913,-5.68946 5.09945,-11.35785 11.37893,-11.35785 6.27948,0 14.04805,5.67541 11.36487,11.35785 z"
       fill="#fbac4c"
       id="path34967"
       style="stroke-width:0.702403" /></g><g
     id="g36892"
     transform="translate(-0.1454595)"><g
       fill="#bfe7fb"
       id="g34943"
       transform="matrix(0.81938799,0,0,0.81938799,27.237261,-57.532948)"><circle
         cx="242.58"
         cy="207.01956"
         r="36.450001"
         id="circle34939" /><circle
         cx="59.859936"
         cy="205.79959"
         r="36.450001"
         id="circle34941" /></g><g
       fill="#ffffff"
       id="g34949"
       transform="matrix(0.81938799,0,0,0.81938799,27.237261,-57.532948)"><circle
         cx="242.58"
         cy="200.06"
         r="36.450001"
         id="circle34945" /><circle
         cx="57.419998"
         cy="200.06"
         r="36.450001"
         id="circle34947" /></g><circle
       style="fill:#414042;fill-opacity:1;fill-rule:evenodd;stroke-width:0.773585"
       id="path37040"
       cx="231.53763"
       cy="99.834534"
       r="19.127176" /><circle
       style="fill:#414042;fill-opacity:1;fill-rule:evenodd;stroke-width:0.773585"
       id="circle37111"
       cx="68.723366"
       cy="112.43048"
       r="19.127176" /><path
       style="opacity:1;fill:none;fill-opacity:1;stroke-width:2.709;stroke-linecap:round;stroke-linejoin:bevel;paint-order:stroke fill markers;stop-color:#000000;stroke:#9c060c;stroke-opacity:1;stroke-dasharray:5.41800022, 5.41800022;stroke-dashoffset:0"
       d="m 131.22801,6.2965417 c -1.90825,4.5797993 -3.81629,9.1591043 -2.86182,15.1698633 0.95447,6.010759 4.77048,13.451977 8.10976,18.699043 3.33928,5.247066 6.20128,8.299875 6.20089,10.779757 -4e-4,2.479881 -2.86241,4.387888 -5.34306,6.773133 -2.48066,2.385245 -4.57946,5.247255 -2.38455,9.445373 2.19491,4.198118 8.68213,9.731335 15.1684,15.263743"
       id="path37992"
       inkscape:path-effect="#path-effect37994"
       inkscape:original-d="m 131.22801,6.2965417 c -1.90704,4.5803033 -3.81509,9.1596063 -5.72413,13.7379093 3.81716,7.442516 7.63317,14.883735 11.44826,22.324102 2.86312,3.05393 5.72513,6.106737 8.58619,9.158606 -2.86112,1.909081 -5.72313,3.817086 -8.58619,5.724129 -2.09789,2.863121 -4.1967,5.725129 -6.29654,8.586193 6.48847,5.534435 12.97569,11.067649 19.46203,16.599973" /><path
       style="opacity:1;fill:none;fill-opacity:1;stroke:#af3404;stroke-width:2.709;stroke-linecap:round;stroke-linejoin:bevel;stroke-dasharray:5.418, 5.418;stroke-dashoffset:0;stroke-opacity:1;paint-order:stroke fill markers;stop-color:#000000"
       d="m 121.02258,138.41137 c 9.67938,3.64659 19.35736,7.29266 29.31567,7.22938 9.95831,-0.0633 20.19681,-3.83524 30.43495,-7.60707"
       id="path39478"
       inkscape:path-effect="#path-effect39480"
       inkscape:original-d="m 121.02258,138.41137 c 9.67917,3.64714 19.35715,7.29321 29.03452,10.93842 10.23991,-3.77111 20.4784,-7.54307 30.7161,-11.31611"
       sodipodi:nodetypes="ccc" /></g><path
     style="opacity:1;fill:none;fill-opacity:1;stroke:#9dd7f4;stroke-width:2.69719;stroke-linecap:round;stroke-linejoin:bevel;stroke-dasharray:none;stroke-dashoffset:0;stroke-opacity:1;paint-order:stroke fill markers;stop-color:#000000"
     d="m 185.05709,41.224773 0.94107,112.197247"
     id="path41567" /></svg>
