<?xml version="1.0" encoding="UTF-8" standalone="no"?>
<svg
   viewBox="0 0 300 345"
   version="1.1"
   id="svg34375"
   sodipodi:docname="chickChicken.svg"
   xml:space="preserve"
   inkscape:version="1.2 (dc2aedaf03, 2022-05-15)"
   xmlns:inkscape="http://www.inkscape.org/namespaces/inkscape"
   xmlns:sodipodi="http://sodipodi.sourceforge.net/DTD/sodipodi-0.dtd"
   xmlns:xlink="http://www.w3.org/1999/xlink"
   xmlns="http://www.w3.org/2000/svg"
   xmlns:svg="http://www.w3.org/2000/svg"><sodipodi:namedview
     id="namedview34377"
     pagecolor="#505050"
     bordercolor="#ffffff"
     borderopacity="1"
     inkscape:showpageshadow="0"
     inkscape:pageopacity="0"
     inkscape:pagecheckerboard="1"
     inkscape:deskcolor="#505050"
     showgrid="false"
     inkscape:zoom="0.80240837"
     inkscape:cx="175.09787"
     inkscape:cy="143.31854"
     inkscape:window-width="1366"
     inkscape:window-height="705"
     inkscape:window-x="-8"
     inkscape:window-y="-8"
     inkscape:window-maximized="1"
     inkscape:current-layer="svg34375" /><defs
     id="defs34333"><inkscape:path-effect
       effect="bspline"
       id="path-effect39480"
       is_visible="true"
       lpeversion="1"
       weight="33.333333"
       steps="2"
       helper_size="0"
       apply_no_weight="true"
       apply_with_weight="true"
       only_selected="false" /><path
       id="B-4"
       d="M196.72 247.18c0 17.06-20.92 33.43-46.72 33.43s-46.72-16.37-46.72-33.43 27.5-38.26 46.72-38.26 46.72 21.2 46.72 38.26z" /><linearGradient
       id="A"
       x1="150"
       y1="356.11"
       x2="150"
       y2="161.16"
       gradientUnits="userSpaceOnUse"><stop
         offset="0"
         stop-color="#bfe7fb"
         id="stop53908" /><stop
         offset=".69"
         stop-color="#4cc9f5"
         id="stop53910" /></linearGradient><path
       id="B"
       d="M196.72 247.18c0 17.06-20.92 33.43-46.72 33.43s-46.72-16.37-46.72-33.43 27.5-38.26 46.72-38.26 46.72 21.2 46.72 38.26z" /><path
       id="C"
       d="M150 252.36s-35.68 25.55-35.68 51.32a19.16 19.16 0 0 0 35.68 9.71 19.16 19.16 0 0 0 35.68-9.71c0-25.77-35.68-51.32-35.68-51.32z" /></defs><path
     d="M 263.62,345 H 36.38 A 36.38,36.38 0 0 1 0,308.62 v -49.48 h 300 v 49.48 A 36.38,36.38 0 0 1 263.62,345 Z"
     fill="url(#A)"
     id="path53917"
     style="fill:url(#A)" /><rect
     y="45"
     width="300"
     height="253.39"
     rx="36.380001"
     fill="#e4f5fd"
     id="rect53919"
     x="0" /><g
     fill="#bfe7fb"
     id="g53925"><circle
       cx="242.58"
       cy="189.94"
       r="36.450001"
       id="circle53921" /><circle
       cx="57.419998"
       cy="189.94"
       r="36.450001"
       id="circle53923" /></g><g
     fill="#ffffff"
     id="g53931"><circle
       cx="242.58"
       cy="200.06"
       r="36.450001"
       id="circle53927" /><circle
       cx="57.419998"
       cy="200.06"
       r="36.450001"
       id="circle53929" /></g><path
     d="M 89.18,194.77 A 13.21,13.21 0 0 1 70,176.86 23,23 0 1 0 89.19,194.77 Z m -32,19.76 a 5.46,5.46 0 1 1 5.45,-5.45 5.45,5.45 0 0 1 -5.49,5.45 z m 198.45,-19.9 a 13.22,13.22 0 0 1 -19.07,-17.77 24.25,24.25 0 0 0 -3.32,-0.24 23,23 0 1 0 22.39,18 z m -32.22,19.9 a 5.46,5.46 0 1 1 5.46,-5.45 5.45,5.45 0 0 1 -5.46,5.45 z"
     fill="#414042"
     id="path53933" /><path
     d="M 87,298.4 H 213.38 C 201.56,272.7 181.02,251.8 150,251.8 c -31.02,0 -51.56,20.9 -63.38,46.6 z"
     fill="#f4fbfe"
     id="path53935" /><path
     d="M 86.62,298.4 H 213.4 V 345 H 86.62 Z"
     fill="#c7eafb"
     id="path53937" /><use
     xlink:href="#B"
     fill="#bfe7fb"
     id="use53939" /><use
     xlink:href="#C"
     fill="#4cc9f5"
     id="use53941" /><path
     d="m 67.46,79 c 10.34,26.43 40.87,25.18 40.87,25.18 0,0 -15.18,10.15 -8.58,27 6.6,16.85 28,14.66 35,11.9 7,-2.76 11.15,13.15 19.16,10 14.87,-5.84 15.66,-77.1 -14.26,-108.1 H 71.8 c -5.7,7.32 -10.26,18.8 -4.33,34 z"
     fill="#bfe7fb"
     id="path53951" /><path
     id="path34696"
     style="clip-rule:evenodd;display:inline;fill:#ffcd05;fill-opacity:1.0;fill-rule:evenodd;stroke-width:2.299;stroke-linejoin:round;stroke-miterlimit:2;stroke:none;stroke-opacity:1;stroke-dasharray:none;paint-order:normal"
     d="M 249.20117 31.791016 C 246.53255 31.555875 244.13472 34.938381 242.52734 37.023438 C 242.03434 37.663879 241.53655 38.302371 241.06055 38.960938 C 240.72255 39.42858 240.41295 39.912867 240.12695 40.417969 L 51.570312 40.417969 C 50.702313 38.745573 49.684733 37.153932 48.427734 36.041016 C 46.885736 34.675548 45.234061 34.295128 43.664062 35.775391 C 42.566064 36.810972 41.667296 38.392038 41.029297 39.871094 C 40.955297 40.041475 40.887312 40.225837 40.820312 40.417969 L 38.949219 40.417969 C 38.646219 39.946701 38.337484 39.482621 38.021484 39.023438 C 36.502486 36.813314 34.921169 34.533564 32.326172 34.521484 C 29.211175 34.506984 27.944312 38.125383 27.695312 41.681641 C 11.804328 46.390691 -1.0127204e-16 63.731346 0 84.378906 L 0 302.64844 C 0 325.51236 9.1654742 340.31473 24.808594 345 L 273.25195 345 C 288.65497 339.88654 300 322.8761 300 302.64844 L 300 84.378906 C 300 60.115879 283.69812 40.417969 263.61914 40.417969 L 261.2168 40.417969 C 260.3898 39.070627 259.42731 37.842959 258.19531 37.119141 C 257.66131 36.806171 257.02678 36.4339 256.42578 36.4375 C 255.22578 36.443542 254.4862 37.614359 253.4082 38.03125 C 253.3452 38.055417 253.39567 37.871509 253.38867 37.792969 C 253.37367 37.606878 253.3598 37.420466 253.3418 37.234375 C 253.2908 36.691814 253.20078 36.161254 253.05078 35.646484 C 252.60578 34.119095 251.60537 32.75243 250.35938 32.128906 C 249.96863 31.9333 249.5824 31.824607 249.20117 31.791016 z M 193.80664 120.10352 C 232.40863 120.42798 282.67773 160.37169 282.67773 180.33984 L 282.67773 304.05273 C 282.67773 313.38988 276.40473 320.96875 268.67773 320.96875 L 84.714844 320.96875 C 83.764845 319.7362 82.738499 318.65168 81.5625 317.67773 C 80.039502 316.41498 78.355139 315.46734 76.494141 316.0957 C 75.494142 316.43163 74.579031 317.15089 73.832031 318.01367 C 73.410032 318.50306 73.01689 319.38251 72.462891 319.66406 C 72.450891 319.6701 72.185922 319.10877 72.169922 319.07617 C 71.816922 318.38497 71.427484 317.70117 71.021484 317.05469 C 69.963485 315.369 68.564077 313.83925 66.955078 312.9668 C 66.480079 312.70821 65.991749 312.41248 65.46875 312.33398 C 64.481751 312.18776 63.475608 312.66639 62.599609 313.1582 C 60.285612 314.45721 58.604155 316.71325 56.910156 318.95117 C 56.402157 319.62182 55.877484 320.27393 55.396484 320.96875 L 31.322266 320.96875 C 23.595273 320.96875 17.322266 313.38988 17.322266 304.05273 L 17.322266 180.33984 C 17.322266 145.33808 150.63889 161.11555 154.2168 149.81445 C 161.12526 127.99354 176.26028 119.95603 193.80664 120.10352 z " /><g
     transform="matrix(1,0,0,1.2083795,3.17319,-13.958348)"
     id="g34700"
     style="clip-rule:evenodd;display:inline;fill-rule:evenodd;stroke-linejoin:round;stroke-miterlimit:2">
                <path
   d="m 132.129,296.5 c -1.925,-0.357 -3.931,-0.41 -5.878,-0.705 -0.724,-0.11 -1.606,-0.047 -2.272,-0.396 -1.392,-0.731 -2.186,-2.382 -2.673,-3.801 -1.068,-3.113 -1.755,-7.292 0.476,-10.07 1.822,-2.268 5.182,-2.519 7.886,-2.429 0.534,0.018 2.35,-0.242 2.665,0.322 0.305,0.546 0.221,1.288 0.205,1.889 -0.031,1.137 -0.075,2.275 -0.131,3.411 -0.188,3.773 -0.109,7.795 -0.278,11.779 z"
   style="fill:#eaa622;fill-opacity:0.90441179"
   id="path34698" />
            </g><path
     id="path44571"
     style="clip-rule:evenodd;display:inline;fill:none;fill-opacity:1;fill-rule:evenodd;stroke-width:2.299;stroke-linejoin:round;stroke-miterlimit:2;stroke:#eaa622;stroke-opacity:1;stroke-dasharray:none;paint-order:normal"
     d="M 249.20117 31.791016 C 246.53255 31.555875 244.13472 34.938381 242.52734 37.023438 C 242.03434 37.663879 241.53655 38.302371 241.06055 38.960938 C 240.72255 39.42858 240.41295 39.912867 240.12695 40.417969 L 51.570312 40.417969 C 50.702313 38.745573 49.684733 37.153932 48.427734 36.041016 C 46.885736 34.675548 45.234061 34.295128 43.664062 35.775391 C 42.566064 36.810972 41.667296 38.392038 41.029297 39.871094 C 40.955297 40.041475 40.887312 40.225837 40.820312 40.417969 L 38.949219 40.417969 C 38.646219 39.946701 38.337484 39.482621 38.021484 39.023438 C 36.502486 36.813314 34.921169 34.533564 32.326172 34.521484 C 29.211175 34.506984 27.944312 38.125383 27.695312 41.681641 C 11.804328 46.390691 -1.0127204e-16 63.731346 0 84.378906 L 0 302.64844 C 0 325.51236 9.1654742 340.31473 24.808594 345 L 273.25195 345 C 288.65497 339.88654 300 322.8761 300 302.64844 L 300 84.378906 C 300 60.115879 283.69812 40.417969 263.61914 40.417969 L 261.2168 40.417969 C 260.3898 39.070627 259.42731 37.842959 258.19531 37.119141 C 257.66131 36.806171 257.02678 36.4339 256.42578 36.4375 C 255.22578 36.443542 254.4862 37.614359 253.4082 38.03125 C 253.3452 38.055417 253.39567 37.871509 253.38867 37.792969 C 253.37367 37.606878 253.3598 37.420466 253.3418 37.234375 C 253.2908 36.691814 253.20078 36.161254 253.05078 35.646484 C 252.60578 34.119095 251.60537 32.75243 250.35938 32.128906 C 249.96863 31.9333 249.5824 31.824607 249.20117 31.791016 z M 193.80664 120.10352 C 232.40863 120.42798 282.67773 160.37169 282.67773 180.33984 L 282.67773 304.05273 C 282.67773 313.38988 276.40473 320.96875 268.67773 320.96875 L 84.714844 320.96875 C 83.764845 319.7362 82.738499 318.65168 81.5625 317.67773 C 80.039502 316.41498 78.355139 315.46734 76.494141 316.0957 C 75.494142 316.43163 74.579031 317.15089 73.832031 318.01367 C 73.410032 318.50306 73.01689 319.38251 72.462891 319.66406 C 72.450891 319.6701 72.185922 319.10877 72.169922 319.07617 C 71.816922 318.38497 71.427484 317.70117 71.021484 317.05469 C 69.963485 315.369 68.564077 313.83925 66.955078 312.9668 C 66.480079 312.70821 65.991749 312.41248 65.46875 312.33398 C 64.481751 312.18776 63.475608 312.66639 62.599609 313.1582 C 60.285612 314.45721 58.604155 316.71325 56.910156 318.95117 C 56.402157 319.62182 55.877484 320.27393 55.396484 320.96875 L 31.322266 320.96875 C 23.595273 320.96875 17.322266 313.38988 17.322266 304.05273 L 17.322266 180.33984 C 17.322266 145.33808 150.63889 161.11555 154.2168 149.81445 C 161.12526 127.99354 176.26028 119.95603 193.80664 120.10352 z " /><path
     id="path34704"
     style="clip-rule:evenodd;display:inline;fill:#ffcd05;fill-opacity:1.0;fill-rule:evenodd;stroke-width:1.09926;stroke-linejoin:round;stroke-miterlimit:2"
     d="M 249.20117 31.791016 C 246.53255 31.555875 244.13472 34.938381 242.52734 37.023438 C 242.03434 37.663879 241.53655 38.302371 241.06055 38.960938 C 240.72255 39.42858 240.41295 39.912867 240.12695 40.417969 L 150 40.417969 L 155.34766 151.95312 C 213.50185 158.07394 282.67773 153.31401 282.67773 180.33984 L 282.67773 304.05273 C 282.67773 313.38988 276.3904 321.43911 268.67773 320.96875 C 235.5837 318.95049 199.36507 329.25811 169.4375 314.75 C 167.3385 314.08418 165.24472 313.3336 163.13672 312.50586 C 156.80773 310.01901 150.39102 306.27656 143.58203 307.66016 C 134.08104 309.59234 122.67779 321.04272 127.67578 333.80078 C 128.44178 335.75835 129.58775 337.66272 130.84375 339.20703 C 132.67675 341.45824 135.2158 343.11643 137.5918 344.38281 C 138.07546 344.6407 138.59023 344.80688 139.0957 345 L 156.11719 345 C 158.01159 344.14892 159.81203 343.02705 161.72656 342.24219 C 164.24556 341.20902 166.99775 340.58517 169.71875 340.39062 L 191.48828 345 L 273.95312 345 C 290.97548 339.60163 300 321.05012 300 302.64844 L 300 84.378906 C 300 60.115879 283.69812 40.417968 263.61914 40.417969 L 261.2168 40.417969 C 260.3898 39.070626 259.42731 37.842959 258.19531 37.119141 C 257.66131 36.806171 257.02678 36.4339 256.42578 36.4375 C 255.22578 36.443542 254.4862 37.614359 253.4082 38.03125 C 253.3452 38.055417 253.39567 37.871509 253.38867 37.792969 C 253.37367 37.606878 253.3598 37.420466 253.3418 37.234375 C 253.2908 36.691814 253.20078 36.161254 253.05078 35.646484 C 252.60578 34.119095 251.60537 32.75243 250.35938 32.128906 C 249.96863 31.9333 249.5824 31.824607 249.20117 31.791016 z " /><path
     id="path43702"
     style="clip-rule:evenodd;display:none;fill:#c6e8f9;fill-opacity:1.0;fill-rule:evenodd;stroke:none;stroke-width:1.09926;stroke-linejoin:round;stroke-miterlimit:2;stroke-opacity:1"
     d="m 249.20117,31.791016 c -2.66862,-0.235141 -5.06645,3.147367 -6.67383,5.232422 -0.493,0.64044 -0.99079,1.278933 -1.46679,1.9375 -0.338,0.467641 -0.6476,0.951929 -0.9336,1.457031 H 51.6875 c 0.588595,0.804595 1.131508,1.675127 1.611328,2.599609 H 238.54297 c 0.28098,-0.496227 0.58591,-0.972215 0.91797,-1.43164 0.46764,-0.646997 0.95706,-1.273156 1.4414,-1.902344 1.57914,-2.048425 3.93491,-5.371635 6.55664,-5.140625 0.37453,0.033 0.75283,0.139862 1.13672,0.332031 1.2241,0.612569 2.20734,1.954524 2.64453,3.455078 0.14736,0.505726 0.23506,1.027519 0.28516,1.560547 0.0177,0.182822 0.0322,0.366006 0.0469,0.548828 0.007,0.07716 -0.0424,0.256162 0.0195,0.232422 1.05906,-0.409568 1.78592,-1.558553 2.96484,-1.564453 0.59044,-0.0035 1.21366,0.362451 1.73828,0.669922 1.21036,0.711101 2.15628,1.916563 2.96875,3.240234 h 2.35938 c 19.72622,0 35.74218,19.3527 35.74218,43.189453 V 300.64062 c 0,19.87229 -11.14689,36.5838 -26.27929,41.60743 H 27.007812 C 11.639525,337.64509 2.6347656,323.10285 2.6347656,300.64062 V 86.207031 c 0,-20.284805 11.5971874,-37.320948 27.2089844,-41.947265 0.244626,-3.493779 1.488557,-7.049407 4.548828,-7.035157 1.619459,0.0075 2.819669,0.95108 3.875,2.167969 -0.08271,-0.122356 -0.162393,-0.247514 -0.246094,-0.36914 -1.518996,-2.210122 -3.100318,-4.489874 -5.695312,-4.501954 -3.114994,-0.0145 -4.38186,3.603902 -4.63086,7.160157 C 11.804344,46.390686 0,63.731367 0,84.378906 V 302.64844 C 0,325.51233 9.1654896,340.31473 24.808594,345 H 273.25195 C 288.65496,339.88655 300,322.87608 300,302.64844 V 84.378906 C 300,60.115904 283.6981,40.417969 263.61914,40.417969 h -2.40234 c -0.827,-1.347341 -1.78949,-2.575011 -3.02149,-3.298828 -0.534,-0.31297 -1.16853,-0.685241 -1.76953,-0.681641 -1.2,0.006 -1.93958,1.176859 -3.01758,1.59375 -0.063,0.02417 -0.0125,-0.159741 -0.0195,-0.238281 -0.015,-0.186091 -0.0289,-0.372503 -0.0469,-0.558594 -0.051,-0.54256 -0.14102,-1.073121 -0.29102,-1.587891 -0.445,-1.527387 -1.44542,-2.894054 -2.6914,-3.517578 -0.39075,-0.195606 -0.77698,-0.304299 -1.15821,-0.33789 z M 46.056641,34.841797 c -0.801918,-0.08076 -1.60758,0.193463 -2.392579,0.933594 -1.097996,1.03558 -1.996767,2.616648 -2.634765,4.095703 -0.074,0.170381 -0.141985,0.354743 -0.208985,0.546875 h -1.708984 c 0.296976,0.404867 0.591044,0.814474 0.876953,1.230469 0.310449,0.451115 0.614433,0.906152 0.91211,1.36914 h 1.83789 c 0.06582,-0.188757 0.132378,-0.369721 0.205078,-0.537109 0.626791,-1.453071 1.509183,-3.006051 2.587891,-4.023438 1.542415,-1.454256 3.166734,-1.081713 4.681641,0.259766 0.404219,0.357885 0.746603,0.828483 1.103515,1.273437 -0.815567,-1.50733 -1.743717,-2.935504 -2.888672,-3.949218 -0.770998,-0.682734 -1.569176,-1.118464 -2.371093,-1.199219 z"
     inkscape:label="stroke" /><g
     transform="matrix(1.74006,0.19347306,-0.190745,1.7649465,-54.2541,-248.96879)"
     id="g34732"
     style="clip-rule:evenodd;display:inline;fill-rule:evenodd;stroke-linejoin:round;stroke-miterlimit:2">
                <g
   transform="matrix(1.28965,0,0,1.28965,-44.2385,-89.5897)"
   id="g34710"
   style="display:inline">
                    <circle
   cx="150.259"
   cy="309.59201"
   r="4.9689999"
   style="fill:#eaa622;fill-opacity:1"
   id="circle34708" />
                </g>
                <g
   transform="translate(-0.716108,0.0832963)"
   id="g34714"
   style="display:inline">
                    <circle
   cx="150.259"
   cy="309.59201"
   r="4.9689999"
   style="fill:#996040;fill-opacity:1"
   id="circle34712" />
                </g>
                <g
   transform="translate(-0.716108,0.0832963)"
   id="g34718">
                    <path
   d="m 150.259,303.909 c -3.136,0 -5.683,2.547 -5.683,5.683 0,3.136 2.547,5.683 5.683,5.683 3.136,0 5.683,-2.547 5.683,-5.683 0,-3.136 -2.547,-5.683 -5.683,-5.683 z m 0,1.429 c 2.348,0 4.254,1.906 4.254,4.254 0,2.348 -1.906,4.254 -4.254,4.254 -2.348,0 -4.254,-1.906 -4.254,-4.254 0,-2.348 1.906,-4.254 4.254,-4.254 z"
   style="fill:#6a3e26;fill-opacity:1.0"
   id="path34716" />
                </g>
                <g
   transform="matrix(1.22835,0,0,1.22835,-34.1876,-70.7142)"
   id="g34722">
                    <path
   d="m 150.948,310.137 c -0.521,0 -0.945,0.424 -0.945,0.946 0,0.521 0.424,0.945 0.945,0.945 0.522,0 0.946,-0.424 0.946,-0.945 0,-0.522 -0.424,-0.946 -0.946,-0.946 z m -2.746,0 c -0.522,0 -0.945,0.424 -0.945,0.946 0,0.521 0.423,0.945 0.945,0.945 0.522,0 0.945,-0.424 0.945,-0.945 0,-0.522 -0.423,-0.946 -0.945,-0.946 z m 2.746,0.5 c 0.246,0 0.446,0.2 0.446,0.446 0,0.245 -0.2,0.445 -0.446,0.445 -0.245,0 -0.445,-0.2 -0.445,-0.445 0,-0.246 0.2,-0.446 0.445,-0.446 z m -2.746,0 c 0.246,0 0.445,0.2 0.445,0.446 0,0.245 -0.199,0.445 -0.445,0.445 -0.246,0 -0.445,-0.2 -0.445,-0.445 0,-0.246 0.199,-0.446 0.445,-0.446 z m 0,-3.314 c -0.522,0 -0.945,0.423 -0.945,0.945 0,0.522 0.423,0.945 0.945,0.945 0.522,0 0.945,-0.423 0.945,-0.945 0,-0.522 -0.423,-0.945 -0.945,-0.945 z m 2.746,0 c -0.521,0 -0.945,0.423 -0.945,0.945 0,0.522 0.424,0.945 0.945,0.945 0.522,0 0.946,-0.423 0.946,-0.945 0,-0.522 -0.424,-0.945 -0.946,-0.945 z m -2.746,0.5 c 0.246,0 0.445,0.199 0.445,0.445 0,0.246 -0.199,0.445 -0.445,0.445 -0.246,0 -0.445,-0.199 -0.445,-0.445 0,-0.246 0.199,-0.445 0.445,-0.445 z m 2.746,0 c 0.246,0 0.446,0.199 0.446,0.445 0,0.246 -0.2,0.445 -0.446,0.445 -0.245,0 -0.445,-0.199 -0.445,-0.445 0,-0.246 0.2,-0.445 0.445,-0.445 z"
   style="fill:#6a3e26;fill-opacity:1.0"
   id="path34720" />
                </g>
                <g
   transform="matrix(1.22835,0,0,1.22835,-34.1876,-70.7142)"
   id="g34726">
                    <path
   d="m 147.996,308.622 2.499,2.596 c 0.153,0.159 0.406,0.164 0.565,0.01 0.159,-0.153 0.164,-0.406 0.011,-0.565 l -2.499,-2.596 c -0.153,-0.159 -0.407,-0.163 -0.566,-0.01 -0.159,0.153 -0.164,0.406 -0.01,0.565 z"
   style="fill:#6a3e26;fill-opacity:1.0"
   id="path34724" />
                </g>
                <g
   transform="matrix(-1.22835,0,0,1.22835,333.171,-70.7142)"
   id="g34730">
                    <path
   d="m 147.996,308.622 2.499,2.596 c 0.153,0.159 0.406,0.164 0.565,0.01 0.159,-0.153 0.164,-0.406 0.011,-0.565 l -2.499,-2.596 c -0.153,-0.159 -0.407,-0.163 -0.566,-0.01 -0.159,0.153 -0.164,0.406 -0.01,0.565 z"
   style="fill:#6a3e26;fill-opacity:1.0"
   id="path34728" />
                </g>
            </g><path
     id="path44849"
     style="clip-rule:evenodd;display:inline;fill:none;fill-opacity:1;fill-rule:evenodd;stroke-width:1.799;stroke-linejoin:round;stroke-miterlimit:2;stroke:#eaa622;stroke-opacity:1;stroke-dasharray:none"
     d="M 249.20117 31.791016 C 246.53255 31.555875 244.13472 34.938381 242.52734 37.023438 C 242.03434 37.663879 241.53655 38.302371 241.06055 38.960938 C 240.72255 39.42858 240.41295 39.912867 240.12695 40.417969 L 150 40.417969 L 155.34766 151.95312 C 213.50185 158.07394 282.67773 153.31401 282.67773 180.33984 L 282.67773 304.05273 C 282.67773 313.38988 276.3904 321.43911 268.67773 320.96875 C 235.5837 318.95049 199.36507 329.25811 169.4375 314.75 C 167.3385 314.08418 165.24472 313.3336 163.13672 312.50586 C 156.80773 310.01901 150.39102 306.27656 143.58203 307.66016 C 134.08104 309.59234 122.67779 321.04272 127.67578 333.80078 C 128.44178 335.75835 129.58775 337.66272 130.84375 339.20703 C 132.67675 341.45824 135.2158 343.11643 137.5918 344.38281 C 138.07546 344.6407 138.59023 344.80688 139.0957 345 L 156.11719 345 C 158.01159 344.14892 159.81203 343.02705 161.72656 342.24219 C 164.24556 341.20902 166.99775 340.58517 169.71875 340.39062 L 191.48828 345 L 273.95312 345 C 290.97548 339.60163 300 321.05012 300 302.64844 L 300 84.378906 C 300 60.115879 283.69812 40.417968 263.61914 40.417969 L 261.2168 40.417969 C 260.3898 39.070626 259.42731 37.842959 258.19531 37.119141 C 257.66131 36.806171 257.02678 36.4339 256.42578 36.4375 C 255.22578 36.443542 254.4862 37.614359 253.4082 38.03125 C 253.3452 38.055417 253.39567 37.871509 253.38867 37.792969 C 253.37367 37.606878 253.3598 37.420466 253.3418 37.234375 C 253.2908 36.691814 253.20078 36.161254 253.05078 35.646484 C 252.60578 34.119095 251.60537 32.75243 250.35938 32.128906 C 249.96863 31.9333 249.5824 31.824607 249.20117 31.791016 z " /><rect
     style="opacity:1;fill:#ffcd05;fill-opacity:1;stroke:none;stroke-width:2.6153;stroke-linecap:round;stroke-linejoin:bevel;stroke-dasharray:none;stroke-dashoffset:0;stroke-opacity:1;paint-order:normal;stop-color:#000000"
     id="rect52618"
     width="186.06413"
     height="110.66205"
     x="65.095322"
     y="41.227039" /><g
     id="g35881"
     transform="translate(0.9813695,-3.208553)"><use
       xlink:href="#B-4"
       fill="#bfe7fb"
       id="use34957"
       transform="matrix(0.70240275,0,0,0.63272829,43.658218,-18.539664)"
       style="fill-opacity:1.0;fill:#eaa622" /><use
       xlink:href="#B-4"
       y="-9.6999998"
       fill="#f57f21"
       id="use34963"
       transform="matrix(0.70240275,0,0,0.70240275,43.658218,-33.096053)"
       style="fill-opacity:1.0;fill:#f57f21" /><path
       d="m 149.01864,147.98337 c -16.85767,0 -31.13752,-7.41035 -31.13752,-7.41035 4.3549,8.61849 16.64695,16.61885 31.13752,16.61885 14.49056,0 26.78964,-8.00739 31.13751,-16.61885 0,0 -14.27985,7.41035 -31.13751,7.41035 z"
       fill="#d75927"
       id="path34965"
       style="stroke-width:0.702403;fill-opacity:1.0;fill:#d75927" /><path
       d="m 160.38351,121.55196 c -1.84732,3.91239 -5.08539,3.79298 -11.36487,3.79298 -6.27948,0 -9.48244,0.23881 -11.37893,-3.79298 -2.66913,-5.68946 5.09945,-11.35785 11.37893,-11.35785 6.27948,0 14.04805,5.67541 11.36487,11.35785 z"
       fill="#fbac4c"
       id="path34967"
       style="stroke-width:0.702403;fill-opacity:1.0;fill:#fbac4c" /></g><path
     style="opacity:1;fill:none;fill-opacity:1;stroke:#eaa622;stroke-width:2.53066;stroke-linecap:round;stroke-linejoin:bevel;stroke-dasharray:none;stroke-dashoffset:0;stroke-opacity:1;paint-order:stroke fill markers;stop-color:#000000;stop-opacity:1"
     d="m 184.97383,69.584729 1.10759,83.920551"
     id="path41567" /><path
     id="ellipse52561"
     style="fill:#f27ba5;fill-opacity:1;stroke-width:0.784893"
     class="UnoptimicedTransforms"
     d="M 36.519531 127.49609 A 13.806266 10.886464 0 0 0 22.714844 138.38281 A 13.806266 10.886464 0 0 0 36.519531 149.26953 A 13.806266 10.886464 0 0 0 50.326172 138.38281 A 13.806266 10.886464 0 0 0 36.519531 127.49609 z M 263.48047 127.49609 A 13.806266 10.886464 0 0 0 249.67383 138.38281 A 13.806266 10.886464 0 0 0 263.48047 149.26953 A 13.806266 10.886464 0 0 0 277.28516 138.38281 A 13.806266 10.886464 0 0 0 263.48047 127.49609 z " /><path
     style="opacity:1;fill:none;fill-opacity:1;stroke:#eaa622;stroke-width:2.67671;stroke-linecap:round;stroke-linejoin:bevel;stroke-dasharray:5.35343, 5.35343;stroke-dashoffset:0;stroke-opacity:1;paint-order:stroke fill markers;stop-color:#000000;stop-opacity:1"
     d="M 207.05047,43.646825 208.00485,152.6059"
     id="path40191" /><g
     id="g36892"
     transform="translate(-0.1454595)"><g
       fill="#bfe7fb"
       id="g34943"
       transform="matrix(0.81938799,0,0,0.81938799,27.237261,-57.532948)"
       style="fill-opacity:1.0;fill:#eaa622"><circle
         cx="242.58"
         cy="207.01956"
         r="36.450001"
         id="circle34939"
         style="fill-opacity:1.0;fill:#eaa622" /><circle
         cx="59.859936"
         cy="205.79959"
         r="36.450001"
         id="circle34941"
         style="fill-opacity:1.0;fill:#eaa622" /></g><g
       fill="#ffffff"
       id="g34949"
       transform="matrix(0.81938799,0,0,0.81938799,27.237261,-57.532948)"
       style="fill-opacity:1.0;fill:#ffffff"><circle
         cx="242.58"
         cy="200.06"
         r="36.450001"
         id="circle34945"
         style="fill-opacity:1.0;fill:#ffffff" /><circle
         cx="57.419998"
         cy="200.06"
         r="36.450001"
         id="circle34947"
         style="fill-opacity:1.0;fill:#ffffff" /></g><circle
       style="fill:#414042;fill-opacity:1;fill-rule:evenodd;stroke-width:0.773585"
       id="path37040"
       cx="218.51857"
       cy="108.51391"
       r="19.127176" /><circle
       style="fill:#414042;fill-opacity:1;fill-rule:evenodd;stroke-width:0.773585"
       id="circle37111"
       cx="79.030128"
       cy="99.411415"
       r="19.127176" /><path
       style="opacity:1;fill:none;fill-opacity:1;stroke:#af3404;stroke-width:2.709;stroke-linecap:round;stroke-linejoin:bevel;stroke-dasharray:5.418, 5.418;stroke-dashoffset:0;stroke-opacity:1.0;paint-order:stroke fill markers;stop-color:#000000;stop-opacity:1.0"
       d="m 121.02258,138.41137 c 9.67938,3.64659 19.35736,7.29266 29.31567,7.22938 9.95831,-0.0633 20.19681,-3.83524 30.43495,-7.60707"
       id="path39478"
       inkscape:path-effect="#path-effect39480"
       inkscape:original-d="m 121.02258,138.41137 c 9.67917,3.64714 19.35715,7.29321 29.03452,10.93842 10.23991,-3.77111 20.4784,-7.54307 30.7161,-11.31611"
       sodipodi:nodetypes="ccc" /></g><path
     d="m 114.13259,49.179952 q -1.70909,2.828623 -3.48444,5.610875 l -2.66963,4.17338 a 13.341564,13.341564 0 0 0 -0.82805,1.324882 6.1143315,6.1143315 0 0 0 -0.50347,5.167041 6.3196882,6.3196882 0 0 0 3.31222,3.656678 l 0.56307,0.198732 a 2.8418724,2.8418724 0 0 0 0.27822,0.09937 l 0.29148,0.053 c 0.19873,0 0.38421,0.07949 0.57633,0.105993 h 0.86116 l 0.29148,-0.053 c 0.19873,0 0.37759,-0.06624 0.56969,-0.07949 0.19211,-0.01325 0.3776,-0.132489 0.56971,-0.185484 l 0.27822,-0.08611 a 2.2854219,2.2854219 0 0 0 0.33122,-0.105994 l 6.14746,-2.37154 6.16071,-2.318546 8.71771,-3.206216 1.28514,2.563648 q 3.4447,6.88939 6.79665,13.805271 l 0.19873,0.437211 0.10597,0.211987 0.0861,0.15898 0.34448,0.616071 a 9.0025747,9.0025747 0 0 0 0.80817,1.112901 8.3335092,8.3335092 0 0 0 2.04032,1.755476 8.9164574,8.9164574 0 0 0 5.26641,1.192391 8.4858707,8.4858707 0 0 0 4.94181,-2.093316 8.7309739,8.7309739 0 0 0 1.74222,-2.113185 l 0.33121,-0.662445 0.42397,-0.861174 0.8413,-1.722338 q 3.4182,-6.889392 6.90927,-13.752285 l 1.32488,-2.610019 2.49077,1.1394 10.59907,4.928561 2.64975,1.245393 0.62933,0.291475 0.4902,0.198732 a 4.6370877,4.6370877 0 0 0 1.00691,0.298098 5.5048856,5.5048856 0 0 0 4.08064,-0.834679 6.3726836,6.3726836 0 0 0 2.18605,-8.346758 l -5.10079,-10.599058 c 2.39803,3.113473 4.68345,6.279942 6.98212,9.446411 0.28486,0.430586 0.56309,0.940666 0.84131,1.417624 a 15.759474,15.759474 0 0 1 0.58294,1.596483 8.7707203,8.7707203 0 0 1 0.19212,3.451318 9.6252693,9.6252693 0 0 1 -1.09966,3.312209 10.194969,10.194969 0 0 1 -2.28542,2.722633 c -0.23848,0.185483 -0.46371,0.397464 -0.70882,0.563074 l -0.78167,0.463709 -0.39747,0.231854 -0.42396,0.185484 -0.86117,0.344469 a 12.82486,12.82486 0 0 1 -1.82834,0.404089 l -0.94066,0.053 h -0.46372 l -0.4637,-0.03975 a 8.5653635,8.5653635 0 0 1 -1.84159,-0.311347 l -0.90093,-0.264977 c -0.29809,-0.09274 -0.47695,-0.165609 -0.72867,-0.251727 l -2.74914,-1.013535 -10.95677,-4.107138 3.82228,-1.45737 -6.24019,14.070249 -0.79493,1.748853 -0.39746,0.87442 -0.54321,1.059905 a 14.991043,14.991043 0 0 1 -3.02736,3.881908 15.236145,15.236145 0 0 1 -8.92308,3.921647 15.395131,15.395131 0 0 1 -9.47953,-2.199299 14.911549,14.911549 0 0 1 -3.73617,-3.259214 14.381596,14.381596 0 0 1 -1.40437,-2.027072 c -0.21861,-0.351098 -0.38422,-0.728688 -0.56971,-1.079774 l -0.13248,-0.264985 -0.0994,-0.218599 -0.19874,-0.43721 q -3.19958,-6.995384 -6.29318,-14.04376 l 3.81565,1.636233 -6.29318,1.921079 -6.31307,1.874708 -6.32632,1.821713 a 5.107421,5.107421 0 0 1 -0.4637,0.11924 l -0.51671,0.112615 c -0.34447,0.06624 -0.66244,0.145736 -1.0334,0.185483 l -1.05991,0.04637 h -0.52995 c -0.17887,0 -0.35773,-0.03975 -0.52996,-0.06624 l -1.05991,-0.145738 c -0.34446,-0.07949 -0.66243,-0.198732 -1.02015,-0.298098 l -0.50345,-0.165611 c -0.16562,-0.06624 -0.31797,-0.145736 -0.47697,-0.218605 l -0.94066,-0.476957 a 9.9366167,9.9366167 0 0 1 -4.53772,-6.458805 8.9628283,8.9628283 0 0 1 0.0464,-3.9349 8.1745234,8.1745234 0 0 1 0.66244,-1.828338 c 0.15237,-0.28485 0.27823,-0.576323 0.45046,-0.841299 l 0.56308,-0.761808 a 14.520709,14.520709 0 0 1 1.10627,-1.324882 l 1.12616,-1.218892 2.2258,-2.437783 c 1.49049,-1.45737 3.00747,-3.060478 4.53772,-4.650336 z"
     fill="#eaa622"
     id="path34891"
     style="fill:#eaa622;fill-opacity:1;stroke-width:0.662441" /><use
     xlink:href="#C"
     y="-7"
     fill="#ed1c24"
     id="use53943"
     sodipodi:insensitive="true" /><use
     xlink:href="#B"
     y="-9.6999998"
     fill="#f57f21"
     id="use53945" /><path
     d="m 150,257.8 c -24,0 -44.33,-10.55 -44.33,-10.55 6.2,12.27 23.7,23.66 44.33,23.66 20.63,0 38.14,-11.4 44.33,-23.66 0,0 -20.33,10.55 -44.33,10.55 z"
     fill="#d75927"
     id="path53947" /><path
     d="m 166.18,220.17 c -2.63,5.57 -7.24,5.4 -16.18,5.4 -8.94,0 -13.5,0.34 -16.2,-5.4 -3.8,-8.1 7.26,-16.17 16.2,-16.17 8.94,0 20,8.08 16.18,16.17 z"
     fill="#fbac4c"
     id="path53949" /><path
     style="opacity:1;fill:#eaa622;fill-opacity:1;stroke:#ed417e;stroke-width:2.385;stroke-linecap:round;stroke-linejoin:bevel;stroke-dasharray:none;stroke-dashoffset:9.131;stroke-opacity:1;paint-order:normal;stop-color:#000000"
     d="m 18.122698,137.56775 9.473229,-0.41188"
     id="path56020" /><path
     style="opacity:1;fill:#eaa622;fill-opacity:1;stroke:#ed417e;stroke-width:2.385;stroke-linecap:round;stroke-linejoin:bevel;stroke-dasharray:none;stroke-dashoffset:9.131;stroke-opacity:1;paint-order:normal;stop-color:#000000"
     d="m 44.071107,142.09843 7.001951,3.70691"
     id="path56022" /><path
     style="opacity:1;fill:#eaa622;fill-opacity:1;stroke:#ed417e;stroke-width:2.385;stroke-linecap:round;stroke-linejoin:bevel;stroke-dasharray:none;stroke-dashoffset:9.131;stroke-opacity:1;paint-order:normal;stop-color:#000000"
     d="m 268.95731,130.97768 -0.82375,-7.41383"
     id="path56024" /><path
     style="opacity:1;fill:#eaa622;fill-opacity:1;stroke:#ed417e;stroke-width:2.385;stroke-linecap:round;stroke-linejoin:bevel;stroke-dasharray:none;stroke-dashoffset:9.131;stroke-opacity:1;paint-order:normal;stop-color:#000000"
     d="m 254.54153,138.80339 -8.23759,4.1188"
     id="path56026" /><path
     style="opacity:1;fill:#eaa622;fill-opacity:1;stroke:#ed417e;stroke-width:2.385;stroke-linecap:round;stroke-linejoin:bevel;stroke-dasharray:none;stroke-dashoffset:9.131;stroke-opacity:1;paint-order:normal;stop-color:#000000"
     d="m 266.89792,146.21722 9.06135,4.53068"
     id="path56028" /></svg>
