<?xml version="1.0" encoding="UTF-8"?>
<svg id="Layer_1" data-name="Layer 1" xmlns="http://www.w3.org/2000/svg" xmlns:xlink="http://www.w3.org/1999/xlink" viewBox="0 0 300 345">
  <defs>
    <style>
      .cls-1 {
        fill: url(#linear-gradient-2);
        isolation: isolate;
        opacity: .72156;
      }

      .cls-2, .cls-3 {
        fill: #aa5c44;
      }

      .cls-4 {
        fill: #bc654d;
      }

      .cls-5 {
        opacity: .4;
      }

      .cls-5, .cls-6 {
        fill: #914b32;
      }

      .cls-3 {
        opacity: .44;
      }

      .cls-7 {
        fill: url(#linear-gradient);
      }

      .cls-8 {
        fill: #5e2e23;
      }

      .cls-9 {
        fill: #7c3d29;
      }

      .cls-10 {
        fill: #6f3a2a;
      }
    </style>
    <linearGradient id="linear-gradient" x1="149.99998" y1="362.24879" x2="149.99998" y2="181.7834" gradientUnits="userSpaceOnUse">
      <stop offset="0" stop-color="#6f3a2a"/>
      <stop offset=".69" stop-color="#56291e"/>
    </linearGradient>
    <linearGradient id="linear-gradient-2" x1="149.9979" y1="286.54005" x2="149.9979" y2="298.36242" gradientUnits="userSpaceOnUse">
      <stop offset="0" stop-color="#6f3a2a"/>
      <stop offset="1" stop-color="#914b32"/>
    </linearGradient>
  </defs>
  <path class="cls-10" d="M247.50243,36.56897c-8.02747-3.93983-23.80825-14.52144-8.79812-31.89169l-23.64253,8.60253,8.86053,65.87668,45.93689,47.31143,27.72346-32.34881s-25.72759-10.22253-26.9257-26.25388c-.17913-2.3968-2.26435-4.20062-4.6402-3.83723-6.42438,.98262-17.02779,1.38063-19.76252-5.95154-2.50667-6.72072,.23067-12.7799,2.62043-16.36399,1.18539-1.77781,.54594-4.20207-1.37224-5.1435Z"/>
  <path class="cls-7" d="M263.61997,345H36.37998C16.28786,345-.00002,328.71213-.00002,308.62h0v-49.47998H299.99998v49.48001c0,20.0921-16.2879,36.37997-36.38,36.37997Z"/>
  <path class="cls-5" d="M11.67729,308.81376c2.23059,14.77362,16.28784,26.16187,33.3075,26.16187H255.01518c17.01971,0,31.07697-11.38824,33.3075-26.16187H11.67729Z"/>
  <path class="cls-10" d="M296.91158,94.59043c-13.29944,8.4281-31.00165-.12103-34.71613-14.8078-.74213-2.93427-1.03815-5.9549-1.00763-9.00262h-2.27795c-3.44812,1.08716-7.02789,1.19818-10.56134,0H36.37997C16.28793,70.78,.00008,87.06784,.00008,107.16001v154.85999C.00008,282.11209,16.28793,298.4,36.37997,298.4h227.24005c20.0921,0,36.38-16.2879,36.38-36.38V107.16001c0-4.59741-.86133-8.99139-2.41736-13.04089-.22473,.15485-.44214,.32623-.67108,.47131Z"/>
  <path class="cls-6" d="M262.9518,82.18045c-2.84064-.78815-5.83008-1.2182-8.92169-1.2182H45.96981c-18.39624,0-33.30933,14.91315-33.30933,33.30939v141.78937c0,18.3963,14.91309,33.30945,33.30933,33.30945H254.03011c18.3963,0,33.30945-14.91315,33.30945-33.30945V114.27164c0-6.00763-1.59857-11.63849-4.38135-16.50513-8.71857-.98419-16.80219-7.01129-20.00641-15.58606Z"/>
  <path class="cls-10" d="M262.19546,79.78263c-.81311-3.21497-1.10187-6.53235-.99792-9.87695-5.86047,2.6145-12.23877,2.51843-18.20135-2.02466-9.68457-7.37903-7.73279-17.77679-2.26831-26.36768-3.19238-.76715-6.28345-2.36865-9.02356-4.91858-11.11719-10.34576-3.77527-23.36292,7-31.91748-7.34778-4.39172-14.96521-5.94824-22.35437-3.5473-31.77002,10.32001-11.5,166.09003,42.65009,146.87,19.53674-6.96326,26.57452-26.97144,25.58429-50.10883-10.1228-.40234-19.75983-7.7135-22.38885-18.10852Z"/>
  <path class="cls-6" d="M244.17997,291.23999s2.3,23.76001,16.22,20.89999c5.26999-1.07999,8.5-5,10.5-9.5,5.16,3.79999,12,6.63,17.35001,1.23999,10.04999-10-2.72-28.85001-2.72-28.85001"/>
  <path class="cls-8" d="M244.17997,291.23999c1.06369,3.52023,2.4426,6.93741,4.12,10.20999,1.63,3.10001,3.78,6,6.27,7.25,.58908,.2944,1.21449,.50958,1.86,.64001,.6405,.08517,1.28949,.08517,1.92999,0,1.38016-.15402,2.7124-.59695,3.91-1.29999,1.207-.74069,2.26788-1.69653,3.13-2.82001,.92328-1.23874,1.69852-2.58121,2.31-4l1.70001-3.87,3.53,2.48001c1.46426,1.06763,3.03616,1.97925,4.69,2.72,1.3912,.63449,2.91223,.93253,4.44,.87,1.40118-.12708,2.72205-.71021,3.76001-1.66,1.23459-1.04089,2.19873-2.36533,2.81-3.85999,1.28-3.10001,1.22-7.07001,.5-11-.80887-4.07693-2.02151-8.06326-3.62-11.89999,1.48868,1.55783,2.82788,3.25192,4,5.06,1.19696,1.83096,2.22772,3.76535,3.07999,5.78,.88452,2.09518,1.50595,4.29193,1.85001,6.54001,.35959,2.42108,.23038,4.88968-.38,7.26001-.6835,2.52084-2.0022,4.82425-3.82999,6.69-1.95627,2.04929-4.54517,3.38074-7.35001,3.78-1.37634,.17871-2.77161,.15173-4.14001-.07999-1.28424-.2037-2.5419-.54916-3.75-1.03006-2.20865-.90967-4.28949-2.10303-6.19-3.54999l5.23999-1.39999c-.43967,.97043-.93381,1.91528-1.48001,2.82999-.57898,.93478-1.22397,1.82706-1.92999,2.67001-1.47989,1.77371-3.31189,3.22092-5.38,4.25-2.09912,1.03268-4.41071,1.56006-6.75,1.54001-1.21494-.00266-2.4223-.19153-3.58-.56-1.14328-.37305-2.22252-.91943-3.2-1.62-1.78363-1.32455-3.24641-3.03342-4.28-5-.96802-1.76337-1.71051-3.64142-2.21001-5.59-.96567-3.71127-1.33029-7.55334-1.08-11.38l.02002,.04996Z"/>
  <path class="cls-6" d="M280.99998,241.42s19.14999,12.39999,14.23001,25.24998c-4.91998,12.84998-24.5,.89999-30.76001-.45001"/>
  <path class="cls-8" d="M280.99998,241.42c1.3392,.45152,2.6373,1.01692,3.88,1.69,1.26483,.65025,2.48428,1.38527,3.64999,2.2,2.41455,1.64894,4.57996,3.63586,6.42999,5.89999,2.04825,2.4435,3.47546,5.34592,4.16,8.45999,.7287,3.46045,.18549,7.06763-1.53,10.16-.93542,1.69415-2.27948,3.12759-3.91,4.17001-1.59949,.96799-3.39819,1.5596-5.26001,1.73001-3.14047,.2131-6.28918-.27185-9.22-1.42001-2.67154-.97882-5.24326-2.21112-7.67999-3.67999l-7.04999-4.39999c1.42004-.01312,2.83762,.12094,4.23001,.39999l11.88,2.35999c2.30701,.45145,4.6738,.50894,7,.17001,.86423-.15137,1.68399-.49295,2.39999-1,.65817-.45633,1.19394-1.06766,1.56-1.78,.46793-.84073,.80511-1.74777,1-2.69,.18457-.98907,.22165-2.00006,.10999-3-.3031-2.28012-1.04327-4.48032-2.17999-6.48-1.23056-2.26654-2.64182-4.43021-4.22-6.47l-5.25-6.3v-.02Z"/>
  <g>
    <circle class="cls-8" cx="242.57998" cy="209.67999" r="36.45"/>
    <circle class="cls-8" cx="57.41997" cy="209.67999" r="36.45"/>
  </g>
  <g>
    <circle class="cls-9" cx="242.57998" cy="219.8" r="36.45"/>
    <circle class="cls-9" cx="57.41997" cy="219.8" r="36.45"/>
  </g>
  <path class="cls-3" d="M98.19997,298.39999h103.60001v46.60001H98.19997v-46.60001Z"/>
  <g>
    <path class="cls-2" d="M204.70793,289.22538c-1.55005,5.66003-2.91003,9.16003-2.91003,9.16003v.01001H98.19792s-1.36005-3.51001-2.91003-9.17004c-4.88-17.81-11.66998-56.91998,15.98999-74.93994,8.92004-5.81006,21.42004-9.42004,38.72003-9.42004s29.79999,3.60999,38.71997,9.42004c27.66003,18.01996,20.87,57.12994,15.99005,74.93994Z"/>
    <path class="cls-2" d="M184.89997,226.37H115.09998s-48.34-134.31999,34.9-134.31999,34.89999,134.32001,34.89999,134.32001v-.00002Z"/>
  </g>
  <path class="cls-6" d="M174.70903,274.03764c-9.28111,0-18.95664-5.28968-24.24296-15.343-5.28533,10.05332-14.95886,15.34188-24.23849,15.34188-5.43286,0-10.43405-1.88275-14.08212-5.30317-4.20144-3.9386-6.42187-9.57336-6.42187-16.29281,0-2.53019,1.81261-4.58154,4.04894-4.58154s4.04894,2.05135,4.04894,4.58154c0,3.95771,1.1743,7.06677,3.4911,9.2384,2.19808,2.06035,5.36431,3.19562,8.91501,3.19562,9.78729,0,24.23799-16.64074,24.23799-16.64074,0,0,14.45368,16.64186,24.24345,16.64186,3.54971,0,6.71445-1.13527,8.91104-3.19562,2.31581-2.17163,3.48961-5.27957,3.48961-9.23952,0-2.53019,1.81261-4.58154,4.04894-4.58154s4.04894,2.05135,4.04894,4.58154c0,6.72057-2.21994,12.35533-6.41939,16.29393-3.64658,3.4193-8.64677,5.30317-14.07914,5.30317Z"/>
  <path class="cls-8" d="M149.99998,253.75l-27.24,12.10001c.74,12.47,6.2,23.38,27.24,23.38,20.86,0,26.39999-10.64999,27.22-23l-27.22-12.48001Z"/>
  <path class="cls-4" d="M168.90312,210.40581c-11.41763-3.51909-23.67814-3.27321-36.85197,1.05222-1.7444,.57275-2.95664-1.7383-1.50857-2.86704l7.49878-5.84516c8.02189-6.24885,19.30804-6.06887,27.12941,.43856l5.26929,4.39162c1.38277,1.15245,.18327,3.36-1.53694,2.8298Z"/>
  <path class="cls-9" d="M149.99998,250.67999l-22.17,14.89999c.60001,10.14999,5,18.39999,22.17,18.39999,17,0,21.48-8,22.14999-18.12l-22.14999-15.17999Z"/>
  <path class="cls-6" d="M133.43791,266.02543l10.02997-6.73999v19.78998c-7.48999-1.79999-9.67999-6.97003-10.02997-13.04999Z"/>
  <path class="cls-6" d="M166.54789,266.23539c-.40002,6.05005-2.63,11.09003-10.02002,12.85004v-19.72003l10.02002,6.87Z"/>
  <path class="cls-6" d="M149.9998,248.68106c-16.76025,0-24.51562-13.66895-24.8374-14.25098-1.20312-2.1748-.41553-4.91309,1.75928-6.11621,2.17334-1.20215,4.9126-.41504,6.11572,1.75879,.21094,.36914,5.60547,9.6084,16.9624,9.6084s16.75195-9.23926,16.97607-9.63184c1.2251-2.15039,3.96387-2.92285,6.12012-1.70898,2.15771,1.21094,2.93945,3.9248,1.7417,6.08984-.32178,.58203-8.07715,14.25098-24.83789,14.25098Z"/>
  <rect class="cls-8" x="147.4998" y="246.66007" width="5" height="39.21973"/>
  <path class="cls-8" d="M173.83036,268.34366c-9.12305,0-18.63379-4.5957-23.83008-13.33008-5.19531,8.73438-14.7041,13.3291-23.82568,13.3291-5.34033,0-10.25635-1.63574-13.84229-4.60742-4.12988-3.42188-6.3125-8.31738-6.3125-14.15527,0-2.19824,1.78174-3.98047,3.97998-3.98047s3.97998,1.78223,3.97998,3.98047c0,3.43848,1.1543,6.13965,3.43164,8.02637,2.16064,1.79004,5.27295,2.77637,8.76318,2.77637,9.62061,0,19.84521-7.24512,19.84521-20.67285h7.95996c0,13.42773,10.22754,20.67383,19.85059,20.67383,3.48926,0,6.6001-.98633,8.75928-2.77637,2.27637-1.88672,3.43018-4.58691,3.43018-8.02734,0-2.19824,1.78174-3.98047,3.97998-3.98047s3.97998,1.78223,3.97998,3.98047c0,5.83887-2.18213,10.73438-6.31006,14.15625-3.58447,2.9707-8.49951,4.60742-13.83936,4.60742Z"/>
  <path class="cls-8" d="M149.9998,243.82999c-16.76025,0-24.51562-13.66895-24.8374-14.25098-1.20312-2.1748-.41553-4.91309,1.75928-6.11621,2.17334-1.20215,4.9126-.41504,6.11572,1.75879,.21094,.36914,5.60547,9.6084,16.9624,9.6084s16.75195-9.23926,16.97607-9.63184c1.2251-2.15039,3.96387-2.92285,6.12012-1.70898,2.15771,1.21094,2.93945,3.9248,1.7417,6.08984-.32178,.58203-8.07715,14.25098-24.83789,14.25098Z"/>
  <path class="cls-10" d="M262.19546,79.78263c-.74213-2.93427-1.03815-5.9549-1.00763-9.00262h-2.27795c-3.44812,1.08716-7.02789,1.19818-10.56134,0h-62.41852c10.30005,43.59998,32.3999,81.09998,64,69.87,18.64893-6.63403,27.97101-22.98798,30.60681-43.28851-8.54327-1.90057-16.06653-8.58423-18.34137-17.57886Z"/>
  <path class="cls-10" d="M19.00008,75.99997c-2,29.70001,6.25989,55.79999,31.11987,64.65002,31.54004,11.22998,53.66003-26.26001,64-69.87H37.76998c-6.61536-.00287-13.10583,1.80212-18.7699,5.21997Z"/>
  <path class="cls-10" d="M83.64998,1.13C37.23998-13.95-18.20002,126.9,40.99998,148,95.14998,167.22,115.41998,11.45,83.64998,1.13Z"/>
  <path class="cls-6" d="M75.29298,21.32526C37.70855,8.23962-7.18868,130.46193,40.75353,148.77141c43.85255,16.67812,60.26789-118.491,34.53945-127.44616Z"/>
  <path class="cls-6" d="M262.19546,79.78263c-.81287-3.21405-1.10181-6.53058-.99811-9.87427-5.86041,2.61407-12.23889,2.5155-18.20117-2.02734-9.68665-7.38062-7.73193-17.78113-2.26489-26.37305-3.19312-.76617-6.28589-2.36243-9.02698-4.91321-5.29724-4.92969-6.39246-10.46631-4.9342-15.83856-.68958,.15009-1.37781,.33044-2.06311,.56903-25.72839,8.9552-9.31311,144.12427,34.53943,127.44617,17.95386-6.85669,22.87415-28.28601,20.04657-51.72186-8.02142-2.24738-14.93378-8.71161-17.09753-17.26691Z"/>
  <path class="cls-2" d="M64.61069,75.93187c-20.16978-6.35-44.30295,46.00001-18.52008,54.82999,23.50028,8.06001,32.31937-50.50999,18.52008-54.82999Z"/>
  <path class="cls-2" d="M235.38976,75.93187c20.16978-6.32,44.27182,46.00001,18.52009,54.82999-23.52103,8.06-32.32975-50.5-18.52009-54.82999Z"/>
  <path class="cls-10" d="M67.69997,83.35c-19.44-6.35-42.7,46.00001-17.85,54.82999,22.65,8.06001,31.15-50.50999,17.85-54.82999Z"/>
  <path class="cls-10" d="M232.29998,83.35c19.44-6.32,42.67,46.00001,17.85001,54.82999-22.67,8.06-31.16-50.5-17.85001-54.82999Z"/>
  <path class="cls-6" d="M30.2022,271.78784s-15.88445,3.15101-16.15796,3.58926c-.51144,.8195-1.41197,2.33627-2.36835,4.29244-3.06975,6.27884-6.71491,17.08469,.08409,23.89046,5.38,5.38,12.2,2.54999,17.35-1.23999,2,4.47,5.22,8.42001,10.5,9.5,13.92,2.85001,16.60091-23.54787,16.60091-23.54787"/>
  <path class="cls-8" d="M14.47998,274.70001c-1.60046,3.83347-2.81642,7.81631-3.63,11.89001-.73,3.92001-.8,7.89999,.5,11,.61472,1.49274,1.57831,2.81638,2.81,3.85999,1.03771,.95624,2.36398,1.54022,3.77,1.66,1.52851,.05865,3.04941-.2428,4.44-.88,1.65797-.7327,3.23068-1.64481,4.69-2.72l3.53-2.5,1.7,3.88c.61692,1.41608,1.39184,2.7579,2.31,4,.86179,1.12378,1.92274,2.07965,3.13,2.82001,1.19761,.70303,2.52985,1.14597,3.91,1.29999,.64083,.0802,1.28917,.0802,1.93,0,.64393-.12943,1.26662-.34821,1.85-.64999,2.5-1.23001,4.64-4.13,6.28-7.23999,1.67489-3.27374,3.05371-6.69067,4.12-10.20999,.14327,1.89526,.1165,3.79953-.08,5.69-.16577,1.92563-.50039,3.83295-1,5.70001-.49949,1.94858-1.24198,3.82663-2.21,5.59-1.03386,1.9664-2.4966,3.6752-4.28,5-.98195,.70166-2.06412,1.25119-3.21,1.63-1.15884,.36368-2.36546,.55243-3.58,.56-2.34348,.01852-4.65869-.51233-6.76-1.54999-2.06721-1.02603-3.89651-2.47379-5.37-4.25-.70603-.84296-1.35101-1.73523-1.93-2.67001-.54419-.91583-1.03825-1.86057-1.48-2.82999l5.24,1.39999c-1.90029,1.45273-3.98521,2.64651-6.2,3.54999-2.47311,1.05582-5.17872,1.44873-7.85,1.14001-2.80863-.43021-5.39064-1.79343-7.33-3.87006-1.80308-1.8606-3.10378-4.14886-3.78-6.64999-.61011-2.37036-.73932-4.8389-.38-7.26001,.34407-2.24808,.96547-4.44482,1.85-6.54001,.85226-2.01465,1.88303-3.94904,3.08-5.78,1.15204-1.80673,2.46756-3.50388,3.93-5.07001v.00003Z"/>
  <path class="cls-6" d="M19.04998,241.33S-.10002,253.73,4.81998,266.57999c4.92,12.85001,24.5,.89999,30.76-.45001"/>
  <path class="cls-8" d="M19.04998,241.33l-5.18,6.37c-1.5782,2.03979-2.98943,4.20346-4.22,6.47-1.13671,1.99968-1.87691,4.19987-2.18,6.48-.11164,.99994-.07458,2.01093,.11,3,.19329,.93951,.5306,1.84351,1,2.67999,.36607,.71509,.90166,1.32965,1.56,1.79001,.71838,.50278,1.53716,.84393,2.4,1,2.3262,.33893,4.693,.28143,7-.17001,2.53-.37,5.14-1,7.8-1.54999l4.07-.79999c1.39167-.284,2.80976-.41809,4.23-.39999l-7,4.39999c-2.43774,1.46701-5.00928,2.69919-7.68,3.67999-2.93082,1.14816-6.07952,1.63312-9.22,1.42001-1.86083-.1752-3.65847-.76642-5.26-1.73001-1.63051-1.04242-2.97458-2.47586-3.91-4.17001-.83934-1.56027-1.41062-3.25046-1.69-5-.23324-1.71698-.17917-3.46078,.16-5.16,.68455-3.11407,2.11175-6.01651,4.16-8.46001,1.85005-2.26414,4.01546-4.25105,6.43-5.89999,1.1272-.83398,2.30624-1.59552,3.53-2.28,1.24329-.6664,2.54137-1.2251,3.88-1.67l.01,.00002Z"/>
  <path class="cls-2" d="M37.71904,241.74382c16.16716,14.89631,47.39615,7.81005,48.49263-21.00044,.12576-3.30448-4.13621-4.71644-5.96742-1.96288-6.60751,9.93566-19.71057,23.66695-39.23192,17.52491-3.31205-1.04208-5.84676,3.08566-3.29329,5.43841Z"/>
  <path class="cls-2" d="M224.96546,241.74382c16.16716,14.89631,47.39615,7.81005,48.49263-21.00044,.12576-3.30448-4.13621-4.71644-5.96742-1.96288-6.60751,9.93566-19.71057,23.66695-39.23192,17.52491-3.31205-1.04208-5.84676,3.08566-3.29329,5.43841Z"/>
  <path class="cls-2" d="M32.55716,63.94842c7.6333-17.27147,20.22623-37.95882,37.1461-39.39194,.2407-.02039,.47869,0,.71206,.06234,1.52511,.40745,7.25326,2.47345,10.14108,11.01246,.67679,2.00121-1.74427,3.56907-3.30426,2.14453-3.09668-2.8278-7.40032-5.05898-12.10203-2.44692,0,0-11.56373,2.91865-29.0148,30.51755-1.34844,2.13256-4.59809,.40975-3.57814-1.89802Z"/>
  <path class="cls-2" d="M226.23629,26.1868c-2.26599,1.49438-5.04675,4.28168-6.79272,9.44446-.67676,2.00122,1.74426,3.56909,3.30432,2.14453,1.87952-1.71637,4.20544-3.20538,6.79346-3.53259-2.04895-2.59387-3.07861-5.31219-3.30505-8.0564Z"/>
  <ellipse class="cls-4" cx="130.27488" cy="130.41691" rx="30.44466" ry="20.61489" transform="translate(-38.49319 204.56172) rotate(-68.74852)"/>
  <circle class="cls-4" cx="143.46787" cy="173.99552" r="10.06749"/>
  <path class="cls-1" d="M204.70793,289.22538c-1.55005,5.66003-2.91003,9.16003-2.91003,9.16003v.01001H98.19792s-1.36005-3.51001-2.91003-9.17004h109.42004Z"/>
</svg>