<svg id="Layer_1" data-name="Layer 1" xmlns="http://www.w3.org/2000/svg" xmlns:xlink="http://www.w3.org/1999/xlink" viewBox="0 0 300 345"><defs><style>.cls-1{fill:url(#linear-gradient);}.cls-2{fill:url(#linear-gradient-2);}.cls-3{fill:#e07095;}.cls-4{fill:url(#linear-gradient-3);}.cls-5{fill:url(#linear-gradient-4);}.cls-6{fill:#af261c;}.cls-7{fill:#e85b5b;}.cls-8{fill:url(#linear-gradient-5);}.cls-14,.cls-9{fill:none;stroke-linecap:round;}.cls-9{stroke:#e07095;stroke-linejoin:round;stroke-width:6px;}.cls-10{fill:#fff;}.cls-11{fill:#ce322e;}.cls-12{fill:#f06;}.cls-13{fill:#a46735;}.cls-14{stroke:#742b1f;stroke-miterlimit:10;stroke-width:4.94px;}</style><linearGradient id="linear-gradient" x1="150" y1="-10.10999" x2="150" y2="184.84" gradientTransform="matrix(1, 0, 0, -1, 0, 346)" gradientUnits="userSpaceOnUse"><stop offset="0" stop-color="#342f77"/><stop offset="0.06" stop-color="#2c2867"/><stop offset="0.25" stop-color="#141239"/><stop offset="0.4" stop-color="#05051d"/><stop offset="0.48" stop-color="#000012"/></linearGradient><linearGradient id="linear-gradient-2" x1="94.44336" y1="310.33175" x2="268.72958" y2="-124.58431" gradientUnits="userSpaceOnUse"><stop offset="0" stop-color="#19184d"/><stop offset="1" stop-color="#ff72aa"/></linearGradient><linearGradient id="linear-gradient-3" x1="171.36875" y1="301.47816" x2="171.36875" y2="109.12919" gradientTransform="translate(-3.01955 7.64055) rotate(6.85335)" gradientUnits="userSpaceOnUse"><stop offset="0.19" stop-color="#af261c"/><stop offset="0.73036" stop-color="#871816"/></linearGradient><linearGradient id="linear-gradient-4" x1="224.46512" y1="36.1795" x2="128.07017" y2="205.02034" gradientTransform="translate(-3.01955 7.64055) rotate(6.85335)" gradientUnits="userSpaceOnUse"><stop offset="0.19" stop-color="#db302c"/><stop offset="0.73036" stop-color="#c12525"/></linearGradient><linearGradient id="linear-gradient-5" x1="158.08006" y1="145.12441" x2="137.16583" y2="233.56175" gradientUnits="userSpaceOnUse"><stop offset="0" stop-color="#ffc4d5"/><stop offset="0.14164" stop-color="#ffc0d2"/><stop offset="1" stop-color="#ffa7c1"/></linearGradient></defs><path class="cls-1" d="M263.62,345H36.38A36.38,36.38,0,0,1,0,308.62H0V259.14H300v49.48A36.38,36.38,0,0,1,263.62,345Z"/><rect class="cls-2" y="45" width="300" height="253.39001" rx="36.38"/><rect class="cls-3" x="139.55465" y="54.35603" width="25.24" height="213.69999" transform="translate(-26.07662 293.00509) rotate(-83.13)"/><path class="cls-4" d="M244.27662,155.18956c-11.75878-34.22475-48.42216-48.46324-78.373-30.27667-3.96733,2.409-7.55323,5.4461-11.49243,8.32128a5.035,5.035,0,0,1-.68913-.612c-.49015-.67972-.94048-1.388-1.42788-2.06985-10.85658-15.18647-25.209-23.85708-44.26849-23.8394-25.55677.0236-49.46135,20.69141-54.07282,46.74463-4.11382,23.2423,1.37194,44.78261,13.70607,64.58582,16.241,26.07609,39.54182,44.35876,66.264,58.64379,1.55464.831,3.97873.71747,5.80152.26,20.1277-5.05037,39.19966-12.70534,56.7229-23.91245C216.58471,240.15584,232.888,223.851,241.76177,201.116,247.62568,186.09181,249.66368,170.86936,244.27662,155.18956Z"/><path class="cls-5" d="M156.01485,119.94091c3.63347-2.652,6.941-5.45341,10.60037-7.67542,27.62641-16.77507,61.44424-3.64164,72.29027,27.92682,4.969,14.46286,3.08922,28.50385-2.31967,42.36193-8.185,20.97055-23.223,36.00987-41.7974,47.88924-16.16324,10.33729-33.75494,17.39814-52.32039,22.05658a8.20078,8.20078,0,0,1-5.35126-.23988c-24.64821-13.17629-46.14068-30.04-61.12122-54.09231-11.37677-18.26618-16.43683-38.13473-12.64221-59.57311,4.25353-24.03117,26.30286-43.09488,49.876-43.1167,17.58031-.01627,30.81887,7.98139,40.83276,21.9892.44957.62888.865,1.28225,1.31709,1.9092A4.64079,4.64079,0,0,0,156.01485,119.94091Z"/><path class="cls-6" d="M113.28284,95.478c17.55468-.00059,30.77514,7.99512,40.77929,21.98928.44959.62887.865,1.28221,1.317,1.90916a4.64193,4.64193,0,0,0,.63574.56447c3.63343-2.652,6.94092-5.45342,10.60034-7.67542a48.99892,48.99892,0,0,1,25.52442-7.33259c20.18664,0,39.145,13.07824,46.76587,35.25938,4.969,14.46288,3.08923,28.50388-2.3197,42.36195-8.18494,20.97056-23.223,36.00989-41.79737,47.88926-16.16333,10.33729-33.755,17.39812-52.32043,22.05658a10.95667,10.95667,0,0,1-2.60413.32715,5.93809,5.93809,0,0,1-2.74707-.56707c-24.64831-13.17629-46.14075-30.04-61.12121-54.09228-11.37684-18.26618-16.43689-38.13475-12.64228-59.57314,4.2536-24.03116,26.30292-43.09486,49.876-43.1167l.05347,0m.002-7.50514V95.478l-.00061-7.50513h-.00159L113.2561,95.478l-.02673-7.5051c-27.22485.02521-52.37616,21.68639-57.2663,49.31377-3.9248,22.174.67176,43.99237,13.662,64.849,14.17139,22.75312,35.0907,41.314,63.95349,56.74324a13.19014,13.19014,0,0,0,6.28528,1.45346,18.48623,18.48623,0,0,0,4.43054-.55279c20.5459-5.15542,38.38538-12.68317,54.53772-23.01346,22.10559-14.13787,36.74195-30.97813,44.74512-51.48308,6.71228-17.19721,7.50586-32.74421,2.42615-47.52938-8.41663-24.497-29.55933-40.32586-53.86377-40.32586a56.791,56.791,0,0,0-29.4198,8.42262c-1.87232,1.13688-3.62232,2.37533-5.30676,3.62988-11.55762-14.27646-26.38257-21.50743-44.1283-21.50743Z"/><path class="cls-7" d="M203.7984,204.51342a5.5423,5.5423,0,0,1-8.51269-6.70831c7.50769-15.35657,16.05208-36.26686,15.29731-50.64986-.56963-10.85494-2.93736-17.40387-7.167-21.53371-4.21806-4.11858-.13409-11.18368,5.46048-9.32479,7.43685,2.471,14.68956,7.552,19.9281,17.15614.10511.19272.20306.39623.28845.59846C242.09656,164.84524,221.161,190.03814,203.7984,204.51342Z"/><path class="cls-6" d="M125.89966,229.58846c6.87639,4.17428,14.05718-4.27228,9.33669-10.968-13.51069-19.16418-29.73851-45.62867-32.33054-65.2923-1.95623-14.84028-.52085-24.23926,3.92053-30.7689,4.42927-6.51183-2.60059-15.19-9.36912-11.43831-8.9974,4.98712-17.10948,13.47178-21.4969,27.64444-.088.28439-.16413.58182-.22433.87477C66.57,184.2471,99.8725,213.78879,125.89966,229.58846Z"/><path class="cls-8" d="M276.81006,182.05l-3,24.71c-1.26,10.49-10.68006,19-25.81006,17.18l-17.48-2.1-12.92-1.56L70.47,202.55l-11.43-1.38-14.86-1.79c-15.13-1.83-22.25-12.33-20.99-22.82l3-24.7c1.18-9.82,9.02-18.05,22.92-17.42l7.21.87-.04.33c-.12006.55-.22,1.1-.32,1.65q-.3,1.74-.54,3.48c-4.18.5-7.42,2.9-7.81,6.13l-1.52,12.6c-.62006,5.04,2,9.94,6.62994,13.55a26.50238,26.50238,0,0,0,6.83,3.82,31.06764,31.06764,0,0,0,7.5401,1.86l163.56982,19.71a28.55777,28.55777,0,0,0,3.3.22,29.37824,29.37824,0,0,0,9.16-1.24c6.87-2.12,11.84-6.77,12.53991-12.67l1.52-12.59c.45007-3.79-3.1499-7.37994-8.22-8.43.18-1.74.29-3.47.31006-5.18l9.40991,1.14C272.33008,162.38,277.99,172.23,276.81006,182.05Z"/><path class="cls-9" d="M252.5,233.7l7.4-.72A23.12,23.12,0,0,0,279,219l3.28-7.73"/><path class="cls-9" d="M17.58,146.8l3.29-10A17.17,17.17,0,0,1,37.18,125H50.43"/><circle class="cls-10" cx="243.77" cy="105.11" r="2.49"/><circle class="cls-10" cx="264.42999" cy="109.24" r="4.13"/><circle class="cls-10" cx="232.35001" cy="77.16" r="4.13"/><circle class="cls-10" cx="23.2" cy="262.29999" r="4.13"/><circle class="cls-10" cx="42.77" cy="116.63" r="1.94"/><circle class="cls-11" cx="221.96001" cy="222.57001" r="4.64"/><circle class="cls-10" cx="250.71001" cy="95.6" r="1.28"/><circle class="cls-10" cx="27.17" cy="100.88" r="1.74"/><circle class="cls-11" cx="249.52" cy="214.96001" r="2.98"/><circle class="cls-10" cx="258.07001" cy="262.29999" r="3.51001"/><circle class="cls-10" cx="264.66" cy="251.05" r="1.72"/><circle class="cls-10" cx="280.53" cy="238.89" r="1.72"/><circle class="cls-11" cx="284.97" cy="166.98" r="3.52"/><circle class="cls-10" cx="51.13" cy="100.42" r="1.72"/><circle class="cls-11" cx="266.22" cy="141.88" r="3.41"/><circle class="cls-11" cx="248.14" cy="178.45" r="1.96001"/><circle class="cls-11" cx="55.35" cy="155.21001" r="3.82"/><circle class="cls-11" cx="21.45" cy="177.99001" r="8.4"/><circle class="cls-11" cx="48.97" cy="189.96001" r="2.55"/><rect class="cls-12" x="146.53853" y="67.1811" width="17.82" height="27.88" rx="1.83" transform="translate(30.11446 203.74349) rotate(-71.93132)"/><ellipse class="cls-13" cx="132.97671" cy="104.83053" rx="2.63" ry="4.21001" transform="matrix(0.31016, -0.95069, 0.95069, 0.31016, -7.92779, 198.73564)"/><line class="cls-14" x1="133.44025" y1="103.63536" x2="144.6183" y2="69.37267"/><path class="cls-10" d="M162.45515,76.79556a9.15321,9.15321,0,0,0-4.37081.22,9.15411,9.15411,0,0,0-3.36477-2.79837,3.81792,3.81792,0,0,0-4.97132,2.02168c-1.98175,5.9457,4.83927,11.26758,4.83927,11.26758s8.65-.16512,10.63177-6.11083A3.81775,3.81775,0,0,0,162.45515,76.79556Z"/></svg>