<?xml version="1.0" encoding="UTF-8"?>
<svg id="Layer_1" data-name="Layer 1" xmlns="http://www.w3.org/2000/svg" xmlns:xlink="http://www.w3.org/1999/xlink" viewBox="0 0 300 345">
  <defs>
    <style>
      .cls-1, .cls-2 {
        stroke: #49342b;
        stroke-linejoin: round;
        stroke-width: 12px;
      }

      .cls-1, .cls-2, .cls-3, .cls-4 {
        stroke-linecap: round;
      }

      .cls-1, .cls-3, .cls-4, .cls-5 {
        fill: none;
      }

      .cls-6 {
        fill: #8ad6ed;
      }

      .cls-7 {
        fill: #f29e22;
      }

      .cls-8 {
        fill: #ea6f13;
      }

      .cls-9 {
        fill: url(#linear-gradient-2);
      }

      .cls-10 {
        fill: #29a340;
      }

      .cls-11 {
        fill: #fff;
      }

      .cls-12 {
        fill: #a617aa;
      }

      .cls-12, .cls-13, .cls-14, .cls-15, .cls-16, .cls-5, .cls-17, .cls-18 {
        opacity: .65;
      }

      .cls-19 {
        fill: #feca0e;
      }

      .cls-20 {
        fill: #dd7017;
      }

      .cls-21 {
        fill: #f9b723;
      }

      .cls-13 {
        fill: #06ef11;
      }

      .cls-22 {
        fill: url(#linear-gradient-6);
      }

      .cls-2 {
        fill: #49342b;
      }

      .cls-23 {
        fill: #bc540d;
      }

      .cls-24 {
        fill: url(#linear-gradient-11);
      }

      .cls-25 {
        fill: #084c25;
      }

      .cls-26 {
        fill: url(#linear-gradient-10);
      }

      .cls-27 {
        fill: #1c9132;
      }

      .cls-28 {
        opacity: .22;
      }

      .cls-28, .cls-29 {
        fill: #0a753a;
      }

      .cls-14 {
        fill: #1372d8;
      }

      .cls-3 {
        stroke: #0a773d;
        stroke-width: 5.38489px;
      }

      .cls-3, .cls-4 {
        stroke-miterlimit: 10;
      }

      .cls-30 {
        fill: #17a34a;
      }

      .cls-31 {
        fill: #8dc73c;
      }

      .cls-15 {
        fill: #f9110b;
      }

      .cls-32 {
        opacity: .57;
      }

      .cls-32, .cls-33 {
        fill: #b7785f;
      }

      .cls-34 {
        fill: #ffe7b8;
      }

      .cls-4 {
        stroke: #414042;
        stroke-width: 7.09px;
      }

      .cls-16 {
        fill: #7207d8;
      }

      .cls-35 {
        fill: url(#linear-gradient-5);
      }

      .cls-36 {
        fill: #030305;
      }

      .cls-37 {
        fill: #ce9176;
      }

      .cls-38 {
        fill: url(#linear-gradient-7);
      }

      .cls-39 {
        fill: url(#linear-gradient-9);
      }

      .cls-40 {
        fill: url(#linear-gradient-3);
      }

      .cls-41 {
        fill: url(#linear-gradient);
      }

      .cls-42 {
        fill: #f79d26;
      }

      .cls-17 {
        fill: #fef600;
      }

      .cls-43 {
        fill: #e7bf9a;
      }

      .cls-44 {
        fill: url(#linear-gradient-4);
      }

      .cls-45 {
        fill: url(#linear-gradient-8);
      }

      .cls-46 {
        fill: #2eaf4a;
      }

      .cls-18 {
        fill: #f98b06;
      }

      .cls-47 {
        fill: #0a773d;
      }

      .cls-48 {
        fill: #414042;
      }
    </style>
    <linearGradient id="linear-gradient" x1="150.00131" y1="-10.10999" x2="150.00131" y2="184.84" gradientTransform="translate(0 346) scale(1 -1)" gradientUnits="userSpaceOnUse">
      <stop offset="0" stop-color="#f9b723"/>
      <stop offset=".57268" stop-color="#d85e21"/>
    </linearGradient>
    <linearGradient id="linear-gradient-2" x1="-255.11323" y1="593.28646" x2="-214.11777" y2="593.28646" gradientTransform="translate(175.55105 -411.50952) rotate(-30.97419)" gradientUnits="userSpaceOnUse">
      <stop offset=".00559" stop-color="#dd7017"/>
      <stop offset=".51117" stop-color="#f9b723"/>
      <stop offset="1" stop-color="#dd7017"/>
    </linearGradient>
    <linearGradient id="linear-gradient-3" x1="-620.32314" y1="642.32664" x2="-579.32769" y2="642.32664" gradientTransform="translate(169.01774 -671.3343) rotate(-48.58042)" xlink:href="#linear-gradient-2"/>
    <linearGradient id="linear-gradient-4" x1="241.28939" y1="-385.08157" x2="291.62362" y2="-385.08157" gradientTransform="translate(-405.77812 405.88144) rotate(31.5906)" xlink:href="#linear-gradient-2"/>
    <linearGradient id="linear-gradient-5" x1="222.27532" y1="-902.06599" x2="272.60956" y2="-902.06599" gradientTransform="translate(-827.01912 508.24168) rotate(55.97488)" xlink:href="#linear-gradient-2"/>
    <linearGradient id="linear-gradient-6" x1="128.91223" y1="106.20424" x2="182.50693" y2="106.20424" gradientTransform="translate(-106.23448 133.01467) rotate(6.77841)" xlink:href="#linear-gradient-2"/>
    <linearGradient id="linear-gradient-7" x1="260.25784" y1="119.98328" x2="313.12492" y2="119.98328" gradientTransform="translate(-16.31637 132.61695)" xlink:href="#linear-gradient-2"/>
    <linearGradient id="linear-gradient-8" x1="97.16223" y1="217.00909" x2="147.4447" y2="217.00909" gradientTransform="translate(-40.53698 57.98922)" xlink:href="#linear-gradient-2"/>
    <linearGradient id="linear-gradient-9" x1="143.02739" y1="202.65951" x2="192.18609" y2="202.65951" gradientTransform="translate(-36.73294 66.39351)" xlink:href="#linear-gradient-2"/>
    <linearGradient id="linear-gradient-10" x1="104.96161" y1="368.29477" x2="157.83253" y2="368.29477" gradientTransform="translate(39.53632 -75.05347) rotate(-9.48711)" xlink:href="#linear-gradient-2"/>
    <linearGradient id="linear-gradient-11" x1="271.86586" y1="113.22247" x2="319.35281" y2="113.22247" gradientTransform="translate(-101.95995 129.71602) rotate(6.77843)" xlink:href="#linear-gradient-2"/>
  </defs>
  <path class="cls-6" d="M299.99843,81.38211v180.63c0,1.12994-.05005,2.25-.15991,3.35999-1.14014,12.48999-8.59009,23.14996-19.14014,28.76001-4,2.13995-8.43994,3.53998-13.1499,4.04999-1.29004,.14001-2.6001,.20996-3.92993,.20996H36.37856c-1.18018,0-2.3501-.06-3.5-.16998-4.62988-.44-9.01025-1.75-12.97021-3.76001-10.87012-5.52997-18.58984-16.35999-19.75-29.08997-.10986-1.10999-.15967-2.23004-.15967-3.35999V81.38211C-.00132,61.28207,16.27846,45.0021,36.37856,45.0021h227.23999c20.08984,0,36.37988,16.27997,36.37988,36.38Z"/>
  <circle class="cls-5" cx="150.00137" cy="196.39036" r="100.46015" transform="translate(-31.79928 29.00425) rotate(-9.99155)"/>
  <path class="cls-15" d="M178.61855,336.69211c-1.92993,.06-3.87012,.10999-5.82007,.13995h-.03003c-7.36987,.14001-14.90991,.15002-22.57007,.15002-7.62988,0-15.12988-.01001-22.46997-.14001h-.05005c-1.92993-.02997-3.84985-.07996-5.75977-.13-2.26025-.06-4.51025-.13995-6.72998-.23999,4.03979,.35999,8.1499,.62,12.30981,.82001,7.40015,.34003,14.97998,.45001,22.69995,.45001s15.30005-.10999,22.7002-.45001c4.27979-.20001,8.5-.47998,12.6499-.84998-2.29004,.09998-4.6001,.19-6.92993,.25ZM150.19838,51.49209C79.00844,51.49209,18.92836,99.04208-.00132,164.11209v87.56c4.46973,15.37,11.23975,29.77002,19.90967,42.78998,20.34033,30.56,51.15039,39.16003,87.30005,41.57001,.02002,0,.04004,0,.06006,.01001,1.23999,.08002,2.48999,.15997,3.75,.22998,1.38013,.07001,2.77002,.14001,4.17017,.20001-1.72021-.14996-3.43018-.31-5.13013-.5-26.96021-2.95001-50.80005-10.46997-69.17017-28.65997-2.81006-2.78003-5.47998-5.79999-8.00977-9.09003C13.59829,273.23208,2.13832,241.90207,2.13832,207.89206,2.13832,126.1221,68.4186,59.84207,150.19838,59.84207c81.77002,0,148.05005,66.28003,148.05005,148.04999,0,33.99005-11.44995,65.31-30.69995,90.29004-2.12012,2.75-4.33008,5.31-6.62012,7.69-18.55981,19.22998-42.93994,27.07001-70.58984,30.09998-1.59009,.16998-3.18018,.33002-4.79004,.47003,1.31006-.06,2.62012-.13,3.91992-.20001,1.32007-.07001,2.64014-.15002,3.9502-.25,36.17993-2.47998,66.97998-11.20001,87.27979-41.85999,8.32007-12.55005,14.87012-26.37,19.30005-41.11005v-90.25995c-19.36987-64.38-79.11011-111.27002-149.80005-111.27002Z"/>
  <path class="cls-18" d="M150.19838,59.84207C68.4186,59.84207,2.13832,126.1221,2.13832,207.89206c0,34.01001,11.45996,65.34003,30.74023,90.33002,2.52979,3.29004,5.19971,6.31,8.00977,9.09003,17.70996,17.60999,40.53027,25.41998,66.32007,28.71997,.02002,0,.04004,0,.06006,.01001,1.6001,.20001,3.21997,.39001,4.84009,.56,11.45996,1.20001,23.46997,1.59998,35.84985,1.64001,.75,.01001,1.48999,.01001,2.23999,.01001s1.49023,0,2.24023-.01001c12.36987-.04004,24.37988-.44,35.83984-1.64001,1.71997-.17999,3.43994-.38,5.14014-.60999,26.37988-3.40002,49.63989-11.54999,67.50977-30.12,2.29004-2.38,4.5-4.94,6.62012-7.69,19.25-24.98004,30.69995-56.29999,30.69995-90.29004,0-81.76996-66.28003-148.04999-148.05005-148.04999Zm107.51001,238.54999c-1.60986,1.91003-3.26978,3.74005-4.97998,5.49005-14.51001,14.79999-32.47998,23.69-52.66992,28.63-8.70996,2.12-17.82007,3.50995-27.26001,4.31995h-.03003c-7.34985,.63-14.88989,.91003-22.57007,.91003-7.6499,0-15.15991-.28003-22.46997-.90002h-.05005c-9.45996-.81-18.58984-2.20001-27.31982-4.32996-20.2002-4.93005-38.18018-13.82001-52.7002-28.63-1.70996-1.75-3.37012-3.58002-4.97998-5.49005-20.6001-24.44995-33.00977-56.01996-33.00977-90.5,0-77.60999,62.90967-140.52997,140.52979-140.52997,77.61011,0,140.52002,62.91998,140.52002,140.52997,0,34.48004-12.40991,66.05005-33.01001,90.5Z"/>
  <path class="cls-17" d="M178.61855,336.69211c-1.89014,.22998-3.80005,.41998-5.71997,.59998-6.67017,.59998-13.51025,.90002-20.45996,.95001-.75,.01001-1.49023,.01001-2.24023,.01001s-1.48999,0-2.23999-.01001c-6.94995-.04999-13.78979-.35004-20.45996-.95001-1.87988-.16998-3.73999-.35999-5.57983-.58002-6.65015-.77997-13.12012-1.88-19.39014-3.34998,2.47998,.94,4.98999,1.81,7.53003,2.60999,.32007,.10004,.63989,.20001,.95996,.29999,.36011,.11005,.72998,.22003,1.09009,.33002,12.08008,3.56,24.85986,5.47998,38.08984,5.47998,13.22021,0,26-1.90997,38.08008-5.47998,.3999-.12,.79004-.23999,1.18994-.35999,.29004-.09003,.58008-.17999,.87012-.27002,2.54004-.79999,5.0498-1.66998,7.53003-2.60999-6.21997,1.46002-12.65015,2.56-19.25,3.33002Zm-28.42017-269.33002c-77.62012,0-140.52979,62.91998-140.52979,140.52997,0,34.48004,12.40967,66.05005,33.00977,90.5,1.60986,1.91003,3.27002,3.74005,4.97998,5.49005,15.03027,15.37,33.78027,24.52997,54.87012,29.47998-.72998-.27002-1.4502-.56-2.16992-.84998-18.91992-7.56006-35.70996-19.32001-49.22998-34.12006-21.81982-23.85999-35.12012-55.62994-35.12012-90.5,0-74.10999,60.08008-134.19,134.18994-134.19s134.18994,60.08002,134.18994,134.19c0,34.87006-13.2998,66.64001-35.11987,90.5-13.51001,14.79004-30.30005,26.55005-49.20996,34.12006-.72998,.28998-1.45996,.56995-2.18994,.84998,21.08984-4.95001,39.82983-14.10999,54.85986-29.47998,1.71021-1.75,3.37012-3.58002,4.97998-5.49005,20.6001-24.44995,33.01001-56.01996,33.01001-90.5,0-77.60999-62.90991-140.52997-140.52002-140.52997Z"/>
  <path class="cls-13" d="M150.19838,73.70205c-74.10986,0-134.18994,60.08002-134.18994,134.19,0,34.87006,13.30029,66.64001,35.12012,90.5,13.52002,14.80005,30.31006,26.56,49.22998,34.12006,.71973,.28998,1.43994,.57996,2.16992,.84998,2.47998,.94,4.98999,1.81,7.53003,2.60999,.32007,.10004,.63989,.20001,.95996,.29999,.36011,.11005,.72998,.22003,1.09009,.33002,12.08008,3.56,24.85986,5.47998,38.08984,5.47998,13.22021,0,26-1.90997,38.08008-5.47998,.3999-.12,.79004-.23999,1.18994-.35999,.29004-.09003,.58008-.17999,.87012-.27002,2.54004-.79999,5.0498-1.66998,7.53003-2.60999,.72998-.28003,1.45996-.56,2.18994-.84998,18.90991-7.57001,35.69995-19.33002,49.20996-34.12006,21.82007-23.85999,35.11987-55.62994,35.11987-90.5,0-74.10999-60.07983-134.19-134.18994-134.19Zm88.62012,224.69c-22.84009,22.37006-54.12988,36.17004-88.62012,36.17004-34.5,0-65.79004-13.79999-88.62988-36.17004-23.47021-23-38.04004-55.04999-38.04004-90.5,0-69.94995,56.70996-126.65997,126.66992-126.65997,69.9502,0,126.66016,56.71002,126.66016,126.65997,0,35.45001-14.57007,67.5-38.04004,90.5Z"/>
  <path class="cls-14" d="M150.19838,81.23208c-69.95996,0-126.66992,56.71002-126.66992,126.65997,0,35.45001,14.56982,67.5,38.04004,90.5,22.83984,22.37006,54.12988,36.17004,88.62988,36.17004,34.49023,0,65.78003-13.79999,88.62012-36.17004,23.46997-23,38.04004-55.04999,38.04004-90.5,0-69.94995-56.70996-126.65997-126.66016-126.65997Zm76.8501,217.15997c-20.70996,17.62006-47.54004,28.24005-76.8501,28.24005s-56.13965-10.62-76.8501-28.24005c-25.62988-21.75995-41.88965-54.22998-41.88965-90.5,0-65.56995,53.15967-118.72998,118.73975-118.72998s118.72998,53.16003,118.72998,118.72998c0,36.27002-16.25977,68.74005-41.87988,90.5Z"/>
  <path class="cls-16" d="M150.19838,89.16208c-65.58008,0-118.73975,53.16003-118.73975,118.72998,0,36.27002,16.25977,68.74005,41.88965,90.5,20.71045,17.62006,47.54004,28.24005,76.8501,28.24005s56.14014-10.62,76.8501-28.24005c25.62012-21.75995,41.87988-54.22998,41.87988-90.5,0-65.56995-53.1499-118.72998-118.72998-118.72998Zm65.11011,209.22998c-18.32007,13.21002-40.80005,20.99005-65.11011,20.99005s-46.7998-7.78003-65.12012-20.99005c-28.08984-20.23999-46.36963-53.23999-46.36963-90.5,0-61.56995,49.90967-111.47998,111.48975-111.47998,61.57007,0,111.47998,49.91003,111.47998,111.47998,0,37.27002-18.27979,70.26001-46.36987,90.5Z"/>
  <path class="cls-12" d="M150.19838,96.41208c-61.58008,0-111.48975,49.91003-111.48975,111.47998,0,37.26001,18.27979,70.26001,46.36963,90.5,18.32031,13.21002,40.81006,20.99005,65.12012,20.99005s46.79004-7.78003,65.11011-20.99005c28.09009-20.23999,46.36987-53.22998,46.36987-90.5,0-61.56995-49.90991-111.47998-111.47998-111.47998Zm54.76001,201.97998c-15.96997,9.68005-34.70996,15.26001-54.76001,15.26001s-38.79004-5.57996-54.77002-15.26001c-30.56982-18.53998-50.98975-52.13995-50.98975-90.5,0-58.40997,47.33984-105.75,105.75977-105.75,58.41016,0,105.75,47.34003,105.75,105.75,0,38.36005-20.41992,71.96002-50.98999,90.5Z"/>
  <path id="E" class="cls-41" d="M263.6213,345H36.38131C16.28919,345,.00131,328.71213,.00131,308.62h0v-49.47998H300.00131v49.48001c0,20.0921-16.2879,36.37997-36.38,36.37997Z"/>
  <path class="cls-21" d="M286.14132,215.27l5.47-7.23-13.79999-10.44-7.88,10.39999-2.89999-.39999,1.14999-12.8-17.2-1.53-1.28,14.16H68.80131l-2.46-14.53-17.06,2.89999,2,11.64h-14.9c-1.93911,.00047-3.87514,.15428-5.79,.46001l-8.5-13.56999-14.66,9.17999,7.06,11.25999C5.36016,221.63902-.00735,232.40366,.00131,243.83v18.17c0,20.09213,16.28788,36.38,36.38,36.38h227.23999c20.09213,0,36.38-16.28787,36.38-36.38h0v-18.17c.00977-11.14301-5.10028-21.67276-13.85999-28.56Z"/>
  <g>
    <g>
      <path class="cls-9" d="M289.9311,203.0215c-4.7792-.6976-10.90861,.67355-16.66657,4.12975-5.75796,3.4562-9.85052,8.22076-11.48234,12.76657l-3.50027,2.10103,3.87129,6.44949c3.56963,5.94693,14.33187,6.04486,24.03813,.2187,9.70626-5.82616,14.68098-15.37016,11.11135-21.3171l-3.87129-6.44949-3.50029,2.10104Z"/>
      <ellipse class="cls-21" cx="275.85666" cy="211.46968" rx="20.49773" ry="12.5588" transform="translate(-69.4959 172.12592) rotate(-30.97419)"/>
      <path class="cls-20" d="M287.2567,204.62561c.3075,.51229,.51706,1.06884,.63531,1.65113,.76745,3.80757-2.38408,8.90046-7.84179,12.17644-5.4621,3.27861-11.43874,3.66488-14.4381,1.19702-.45828-.37819-.85092-.82485-1.15842-1.33714-2.31581-3.8581,.91183-10.04918,7.21089-13.83017,6.29469-3.77838,13.2763-3.71537,15.59211,.14272Z"/>
      <path class="cls-42" d="M287.89202,206.27674c.76745,3.80757-2.38408,8.90046-7.84179,12.17644-5.4621,3.27861-11.43874,3.66488-14.4381,1.19702-.775-3.81026,2.37651-8.90314,7.84297-12.18437,5.46207-3.2786,11.43874-3.66488,14.43692-1.18909Z"/>
    </g>
    <g>
      <path class="cls-40" d="M259.08252,186.12268c-4.76634,.78065-10.19389,3.94156-14.63673,8.9775s-6.90254,10.81521-7.08294,15.64166l-2.7008,3.06135,5.64075,4.97642c5.20121,4.58865,15.48894,1.4267,22.97828-7.06243s9.34422-19.0908,4.14301-23.67944l-5.64075-4.97642-2.70082,3.06137Z"/>
      <ellipse class="cls-21" cx="248.2227" cy="198.43226" rx="20.49773" ry="12.5588" transform="translate(-64.79492 253.29427) rotate(-48.58042)"/>
      <path class="cls-20" d="M257.01859,188.46058c.44805,.39528,.81614,.86237,1.10498,1.38162,1.88319,3.39708,.41974,9.20467-3.79142,13.978-4.21455,4.77717-9.79439,6.95313-13.39972,5.50809-.55121-.22186-1.06056-.52883-1.50861-.92411-3.37431-2.9769-2.17049-9.85426,2.68985-15.36344,4.85698-5.50537,11.53061-7.55707,14.90492-4.58016Z"/>
      <path class="cls-42" d="M258.12357,189.8422c1.88319,3.39708,.41974,9.20467-3.79142,13.978-4.21455,4.77717-9.79439,6.95313-13.39972,5.50809-1.8912-3.39736-.42777-9.20492,3.79014-13.98591,4.21453-4.77715,9.79439-6.95313,13.401-5.50018Z"/>
    </g>
    <g>
      <path class="cls-44" d="M44.92257,220.13706c-1.94342-5.60259-6.90501-11.50622-13.92858-15.82556-7.02357-4.31934-14.53074-6.08373-20.40749-5.29036l-4.26963-2.62573-4.83809,7.86709c-4.46109,7.25407,1.52042,19.03722,13.36012,26.31837,11.8397,7.28115,25.05414,7.3031,29.51523,.04902l4.83809-7.86709-4.26966-2.62575Z"/>
      <ellipse class="cls-21" cx="27.75453" cy="209.57912" rx="15.41969" ry="25.16712" transform="translate(-165.30677 123.43357) rotate(-58.4094)"/>
      <path class="cls-20" d="M41.66164,218.13018c-.3843,.62489-.87222,1.1681-1.43986,1.62636-3.715,2.99025-11.04763,2.43705-17.70495-1.65705-6.66267-4.0974-10.4646-10.3917-9.47208-15.05622,.15287-.71334,.41748-1.39388,.80177-2.01877,2.89415-4.70611,11.46654-4.69122,19.15014,.03402,7.67827,4.72197,11.55914,12.36555,8.66498,17.07166Z"/>
      <path class="cls-42" d="M40.22177,219.75654c-3.715,2.99025-11.04763,2.43705-17.70495-1.65705-6.66267-4.0974-10.4646-10.3917-9.47208-15.05622,3.71366-3,11.04626-2.44682,17.71425,1.65385,6.66264,4.09738,10.4646,10.3917,9.46278,15.05943Z"/>
    </g>
    <g>
      <path class="cls-35" d="M77.99638,220.09949c.54299-5.90517-1.53867-13.33059-6.15245-20.16434-4.61378-6.83375-10.72286-11.54012-16.40293-13.24377l-2.80472-4.15424-7.65448,5.16789c-7.05803,4.7652-6.47481,17.96675,1.3027,29.48648,7.7775,11.51973,19.80412,16.99535,26.86215,12.23015l7.65448-5.16789-2.80474-4.15427Z"/>
      <ellipse class="cls-21" cx="66.71868" cy="203.39544" rx="15.41969" ry="25.16712" transform="translate(-102.38846 72.15572) rotate(-34.02512)"/>
      <path class="cls-20" d="M75.85488,216.92534c-.60801,.41049-1.27667,.7038-1.98287,.88683-4.61815,1.18976-11.0683-2.3414-15.44149-8.8188-4.37671-6.48261-5.24087-13.78509-2.41112-17.62376,.43374-.58659,.9557-1.09718,1.56371-1.50768,4.57892-3.09145,12.38048,.46127,17.42784,7.93721,5.04386,7.47076,5.42285,16.03475,.84393,19.1262Z"/>
      <path class="cls-42" d="M73.87201,217.81217c-4.61815,1.18976-11.0683-2.3414-15.44149-8.8188-4.37671-6.48261-5.24087-13.78509-2.41112-17.62376,4.62096-1.19919,11.07108,2.33194,15.45129,8.81973,4.37669,6.48258,5.24087,13.78509,2.40132,17.62283Z"/>
    </g>
    <g>
      <path class="cls-22" d="M58.32235,249.62265c-4.38168-4.54644-11.81489-8.03523-20.53306-9.07148-8.71817-1.03625-16.76212,.61292-22.08741,4.00558l-5.29978-.62994-1.1607,9.76521c-1.07026,9.00429,9.97583,17.71982,24.67214,19.46663,14.69631,1.74681,27.47767-4.13656,28.54793-13.14086l1.1607-9.76521-5.29982-.62994Z"/>
      <ellipse class="cls-21" cx="37.01211" cy="247.08972" rx="16.41852" ry="26.79735" transform="translate(-212.71899 254.67917) rotate(-83.22159)"/>
      <path class="cls-20" d="M54.27398,249.1401c-.0922,.77566-.32105,1.51868-.6649,2.21522-2.25436,4.55-9.58842,7.29177-17.85198,6.30955-8.2702-.983-14.75718-5.36754-15.88217-10.31922-.17099-.75774-.21934-1.5337-.12714-2.30937,.69433-5.84157,8.98607-9.65757,18.52352-8.52394,9.53084,1.13284,16.69701,6.78617,16.00268,12.62774Z"/>
      <path class="cls-42" d="M53.60908,251.35533c-2.25436,4.55-9.58842,7.29177-17.85198,6.30955-8.2702-.983-14.75718-5.36754-15.88217-10.31922,2.24871-4.55883,9.58273-7.30059,17.85954-6.31681,8.27016,.983,14.75718,5.36754,15.87461,10.32647Z"/>
    </g>
    <g>
      <path class="cls-38" d="M291.54388,242.89978c-4.82131-3.94322-12.50855-6.49516-21.16889-6.49516s-16.34762,2.55194-21.16889,6.49517h-5.26463v9.70045c0,8.94457,11.83469,16.19561,26.43353,16.1956s26.43356-7.25104,26.43356-16.19561v-9.70044h-5.26467Z"/>
      <ellipse class="cls-21" cx="270.37499" cy="242.89981" rx="26.43354" ry="16.19562"/>
      <path class="cls-20" d="M287.5222,242.89846c0,.77052-.13766,1.52497-.39338,2.24729-1.67847,4.71933-8.54317,8.25885-16.75192,8.25885-8.21535,0-15.08001-3.53952-16.75848-8.25885-.25571-.72232-.39342-1.47677-.39342-2.24729,0-5.80283,7.67771-10.50609,17.1519-10.50609,9.46763,0,17.1453,4.70326,17.1453,10.50609Z"/>
      <path class="cls-42" d="M287.12883,245.14575c-1.67847,4.71933-8.54317,8.25885-16.75192,8.25885-8.21535,0-15.08001-3.53952-16.75848-8.25885,1.67191-4.72731,8.53657-8.26684,16.75848-8.26684,8.21531,0,15.08001,3.53952,16.75192,8.26683Z"/>
    </g>
    <g>
      <path class="cls-45" d="M101.90043,265.7721c-4.5856-3.75044-11.89701-6.17762-20.13397-6.17762-8.23695,0-15.5484,2.42718-20.13397,6.17762h-5.00725v9.2262c0,8.50728,11.2561,15.40382,25.14121,15.40382,13.88512,0,25.14125-6.89654,25.14125-15.40382v-9.2262h-5.00729Z"/>
      <ellipse class="cls-21" cx="81.76647" cy="265.77213" rx="25.14123" ry="15.40383"/>
      <path class="cls-20" d="M98.07537,265.77085c0,.73285-.13093,1.45042-.37414,2.13742-1.59641,4.48861-8.12551,7.85508-15.93293,7.85508-7.81371,0-14.34277-3.36648-15.93918-7.85508-.24321-.687-.37418-1.40457-.37418-2.13742,0-5.51913,7.30235-9.99246,16.31336-9.99246,9.00476,0,16.30708,4.47332,16.30708,9.99246Z"/>
      <path class="cls-42" d="M97.70123,267.90827c-1.59641,4.48861-8.12551,7.85508-15.93293,7.85508-7.81371,0-14.34277-3.36648-15.93918-7.85508,1.59017-4.4962,8.11923-7.86268,15.93918-7.86268,7.81367,0,14.34277,3.36648,15.93293,7.86268Z"/>
    </g>
    <g>
      <path class="cls-39" d="M150.55777,260.10496c-4.48312-3.63738-11.63112-5.99139-19.68398-5.9914s-15.20091,2.354-19.68399,5.99138h-4.89534s0,8.94806,0,8.94806c0,8.25082,11.00453,14.93946,24.57932,14.93946,13.57479,0,24.57937-6.68863,24.57937-14.93945v-8.94807s-4.89537,0-4.89537,0Z"/>
      <ellipse class="cls-21" cx="130.87379" cy="260.10498" rx="24.57935" ry="14.93947"/>
      <path class="cls-20" d="M146.8182,260.10374c0,.71076-.12801,1.40669-.36578,2.07299-1.56073,4.35329-7.94391,7.61828-15.57685,7.61828-7.63908,0-14.02221-3.265-15.58295-7.61829-.23778-.66629-.36582-1.36223-.36582-2.07299,0-5.35275,7.13915-9.69122,15.94877-9.69122,8.80351,0,15.94263,4.33848,15.94262,9.69123Z"/>
      <path class="cls-42" d="M146.45242,262.17673c-1.56073,4.35329-7.94391,7.61828-15.57685,7.61828-7.63908,0-14.02221-3.265-15.58295-7.61829,1.55463-4.36066,7.93777-7.62565,15.58295-7.62564,7.63904,0,14.02221,3.265,15.57684,7.62565Z"/>
    </g>
    <g>
      <path class="cls-26" d="M249.12251,253.48854c-5.40571-3.09484-13.409-4.34491-21.95152-2.91736-8.54252,1.42755-15.70454,5.21192-19.81023,9.89622l-5.193,.86781,1.599,9.56846c1.4744,8.82287,14.34331,14.02445,28.74352,11.61802,14.40021-2.40644,24.87867-11.50962,23.40427-20.3325l-1.599-9.56846-5.19304,.86782Z"/>
      <ellipse class="cls-21" cx="228.24164" cy="256.97799" rx="26.43546" ry="16.1968" transform="translate(-39.23484 41.13483) rotate(-9.48711)"/>
      <path class="cls-20" d="M245.15533,254.15016c.12701,.76004,.11558,1.52691-.01759,2.28155-.87771,4.93179-7.06557,9.55472-15.16263,10.90783-8.10357,1.3542-15.45828-1.00561-17.89184-5.38405-.3713-.67034-.63149-1.39183-.7585-2.15186-.95652-5.72388,5.84145-11.62872,15.18674-13.19042,9.33881-1.56062,17.68729,1.81308,18.64382,7.53696Z"/>
      <path class="cls-42" d="M245.13774,256.43172c-.87771,4.93179-7.06557,9.55472-15.16263,10.90783-8.10357,1.3542-15.45828-1.00561-17.89184-5.38405,.86992-4.93859,7.05774-9.56151,15.16779-10.91679,8.10353-1.35419,15.45828,1.00561,17.88668,5.39301Z"/>
    </g>
    <g>
      <path class="cls-24" d="M198.12952,270.6298c-3.88234-4.02832-10.46844-7.11953-18.19307-8.03768-7.72463-.91816-14.85188,.54306-19.57029,3.54909l-4.69581-.55815-1.02843,8.65235c-.94829,7.97815,8.83896,15.70044,21.86046,17.24818,13.02149,1.54775,24.34627-3.66514,25.29456-11.64329l1.02843-8.65235-4.69584-.55815Z"/>
      <ellipse class="cls-21" cx="179.24784" cy="268.38553" rx="14.54744" ry="23.74348" transform="translate(-108.41832 414.70285) rotate(-83.22157)"/>
      <path class="cls-20" d="M194.54251,270.20225c-.08169,.68727-.28446,1.34561-.58913,1.96277-1.99745,4.03148-8.49571,6.46078-15.81754,5.5905-7.32771-.87098-13.07543-4.75585-14.07221-9.14322-.15151-.67138-.19434-1.35892-.11265-2.04619,.61521-5.17586,7.962-8.55697,16.41255-7.55253,8.44469,1.00374,14.79418,6.01281,14.17898,11.18867Z"/>
      <path class="cls-42" d="M193.95338,272.16502c-1.99745,4.03148-8.49571,6.46078-15.81754,5.5905-7.32771-.87098-13.07543-4.75585-14.07221-9.14322,1.99245-4.03929,8.49067-6.4686,15.82424-5.59693,7.32768,.87097,13.07543,4.75585,14.06551,9.14965Z"/>
    </g>
  </g>
  <path class="cls-2" d="M222.01023,238.36675c-.44,.62-.89001,1.22003-1.37,1.81,3.26001,3.53003,11.09998,6.86005,11.09998,6.86005-7.17999,1.09998-13.12,.85999-18.04999-.29004-.95996,.70001-1.95996,1.35999-2.98999,1.96002,1.82001,2.5,3.02002,5.52002,2.75,9.08997-.83997,11.41003-34.02002-2.26996-38.14996-4.01996h-50.60004c-4.13,1.75-37.29999,15.42999-38.14996,4.01996-.26001-3.56995,.93994-6.59998,2.75995-9.08997-1.02997-.60999-2.02997-1.26001-2.98999-1.96002-4.92999,1.15002-10.88,1.39001-18.06,.29004,0,0,7.85004-3.34003,11.10999-6.86005-.47998-.58997-.92999-1.19995-1.37-1.81-6.76996,2.17004-24.78998,4.92004-41.22998-19.33997,.53998,.64996,6.67999,7.38,24.08002,2.64996,0,0-9.07001-12.92999,5.48999-28.77997l4.77002-28.69v-22.76001c-23.91003-7.34003-28.97003-51.53003,4.19995-57.96002-.69995-.89996-.96997-2-.63-3.21997,.96002-3.48999,6.19-5.71002,10.85004-5.10004,1.97998,.26001,4.01001,1.03003,5.47998,2.05005,.08002-.16003,.16998-.31,.27002-.45001-1.77002-.42999-3.73999-1.57001-5.16998-3.04999-3.23004-3.34003-4.17004-9.01001-1.19-11.73004,2.10999-1.91998,5.00995-1.27997,7.25995,.81,1.03003-2.39996,3.07001-3.52997,5.22003-2.39996,2.64001,1.39996,3.90997,5.57001,3.28998,8.98999-.34998,1.92999-1.37,4.09998-2.58997,5.35999,.32996,.14001,.64996,.31,.95996,.51001,.23004-.89001,.59003-1.82001,1.05005-2.65002,1.59998-2.91998,5.33997-6.22998,8.62-6.53998,3.26996-.29999,3.83997,2.16003,2.23999,5.15002,1.02997-.21002,2.03998-.33002,2.98999-.33002l-.21002-1.98999v-.03003l-.58997-5.72998c-.5-4.83002,3.89996-8.97998,9.51001-8.97998h52.81995c5.60004,0,10.01001,4.14996,9.51001,8.97998l-.59998,5.72998v.03003l-2.41003,23.27997-.87994,8.51001c.82996-.02002,1.65997-.02002,2.50995,0,6.98004-8.48999,18.04004-17.98999,32.58002-17.98999,42.45001,0,38.56,50.90997,12.70001,58.77002v22.79999l4.76001,28.63c14.56,15.84998,5.5,28.77997,5.5,28.77997,17.39001,4.73004,23.52997-2,24.07001-2.64996-16.42999,24.25-34.45001,21.51996-41.22003,19.33997Z"/>
  <path class="cls-1" d="M216.16131,82.68c-16.78,0-28.92999,12.66-35.52,21.8h-14.14l4.25-18.48c-5.96739-1.54238-12.31265-.16201-17.10001,3.72l-2.86-12.15c-15.3,3.6-18.31999,17.67-18.58,27h-12.85c-6.6-9.14-18.74-21.8-35.52-21.8-42.4,0-38.55,50.87-12.73,58.75v51.2c-2.8,3.74001-4.45,8.88-4.45,15.67,0,7.10001,1.8,12.42,4.86,16.2,.2,.34,.4,.7,.6,1,2.34261,9.73589,8.5445,18.10014,17.18,23.17-1.99465,2.59703-2.97254,5.83293-2.75,9.09999,.85,11.48001,34.36-2.39999,38.2-4h50.48c3.84,1.63,37.34999,15.5,38.2,4,.22255-3.26706-.75534-6.50298-2.75-9.10001,8.6355-5.06985,14.83739-13.43411,17.17999-23.17,.20839-.33023,.41174-.66359,.61-1,3.05-3.8,4.86-9.10001,4.86-16.2,0-6.8-1.64999-11.92999-4.45-15.67v-51.3c25.83-7.88,29.67-58.75-12.73-58.75l.01001,.01002Z"/>
  <path class="cls-37" d="M198.35132,239.8s16,5.83,15.10001,17.99998c-.89999,12.16998-38.57001-4.2-38.57001-4.2v-15.53999l23.47,1.74001Zm-96.7,0s-16,5.83-15.1,17.99998c.9,12.16998,38.57-4.2,38.57-4.2v-15.53999l-23.47,1.74001Z"/>
  <rect class="cls-37" x="71.11131" y="104.48" width="157.78999" height="149.3" rx="36.85" ry="36.85"/>
  <path class="cls-37" d="M221.9313,142.46001l-46.92999-28.76001s14.94-31,41.2-31c46.00002,0,37.58,59.78,5.77,59.78m-143.89999-.02l47-28.76s-14.94-31-41.2-31c-46,0-37.58,59.77999-5.77,59.77999"/>
  <path class="cls-43" d="M96.64131,234.77c-16.82,0-26.46-9.64-26.46-26.46001s9.64-26.47,26.46-26.47h1.55l26.46,52.92999-28.01,.00002Z"/>
  <path class="cls-37" d="M96.64131,184.34l24,47.92999h-24c-13.23,0-24-6.63-24-24s10.73-24,24-24m3.1-5h-3.1c-18.13,0-29,10.83-29,29s10.83,29,29,29h32.06l-3.62-7.27-25.38-50.7,.04-.03Z"/>
  <path class="cls-43" d="M175.35132,234.77l26.45999-52.93001h1.55c16.81999,0,26.46001,9.64999,26.46001,26.47s-9.64,26.45999-26.45999,26.45999l-28.01001,.00002Z"/>
  <path class="cls-37" d="M203.36131,184.34c13.23,0,24,6.63,24,24s-10.73,24-24,24h-24l24-47.92999m0-5h-3.10001l-1.38,2.77-27.62,55.16h32.06c18.13,0,29-10.83,29-29s-10.83-29-29-29l.04001,.06999Z"/>
  <path class="cls-33" d="M123.80131,228.5s12.38,15.75999,1.84,22.5c-10.54001,6.73999-27.1-20.33-27.1-20.33l25.26-2.17Zm53.31999-1.5s-12.38,15.77-1.84,22.5c10.54001,6.72998,26.2-19.39999,26.2-19.39999l-24.36-3.10001Z"/>
  <path class="cls-43" d="M114.60131,232.27h-24c-13.24,0-24-6.63-24-24s10.73-24,24-24l24,48Zm70.8,0h24c13.24001,0,24-6.63,24-24s-10.73-24-24-24l-24,48Z"/>
  <rect class="cls-43" x="78.12131" y="110.4" width="143.77001" height="121.87" rx="33.58" ry="33.58"/>
  <ellipse class="cls-8" cx="185.41713" cy="145.79301" rx="14.55999" ry="10.39" transform="translate(-35.11345 62.11879) rotate(-17.40002)"/>
  <ellipse class="cls-8" cx="114.59753" cy="145.78783" rx="10.39" ry="14.55999" transform="translate(-58.78845 211.54485) rotate(-72.59998)"/>
  <path class="cls-4" d="M164.16131,217.62c-10.7-4.7-14.16-16.35001-14.16-16.35001,0,0-3.45,11.66-14.16,16.35001"/>
  <path class="cls-29" d="M159.36131,187.60001c2.76141,.00819,4.99333,2.2534,4.98514,5.01482-.00543,1.83232-1.01268,3.51488-2.62514,4.38518-7.31848,3.93263-16.12152,3.93263-23.44,0-2.43007-1.31158-3.33676-4.34479-2.02518-6.77486,.8703-1.61244,2.55286-2.61971,4.38518-2.62514h18.72Z"/>
  <circle class="cls-33" cx="202.98131" cy="179.16" r="22.49001"/>
  <circle class="cls-11" cx="202.98131" cy="185.41" r="22.49001"/>
  <path class="cls-48" d="M211.00131,182.06c-1.41403,1.10205-3.15724,1.69722-4.95,1.69-4.51216-.00671-8.16455-3.66998-8.15784-8.18214,.00237-1.58763,.46725-3.14018,1.33783-4.46785-.66267-.0936-1.33078-.14371-2-.14999-7.81483,0-14.15001,6.33516-14.15001,14.14999s6.33517,14.15001,14.14999,14.15001,14.15001-6.33517,14.15001-14.14999v-.00002c-.0141-1.02425-.14156-2.04379-.38-3.03999l.00002-.00002Zm-19.88,12.28c-1.86121,0-3.37-1.50879-3.37001-3.37,0-1.86121,1.5088-3.37,3.37-3.37001,1.86121,0,3.37001,1.5088,3.37001,3.37v.00002c.00554,1.85179-1.48824,3.35898-3.34,3.37h-.03Z"/>
  <circle class="cls-33" cx="97.02131" cy="179.16" r="22.49"/>
  <circle class="cls-11" cx="97.02131" cy="185.41" r="22.49"/>
  <path class="cls-48" d="M116.62131,182.14999c-3.44073,2.91054-8.58944,2.48074-11.49998-.95998-1.24621-1.47322-1.93002-3.34041-1.93002-5.27002-.00362-1.73608,.55412-3.42682,1.59-4.82001-.66187-.10092-1.33048-.15106-2-.14999-7.81483-.00552-14.15447,6.32516-14.16,14.14-.00552,7.81482,6.32516,14.15446,14.14,14.15999,7.81483,.00552,14.15447-6.32516,14.16-14.13998v-.01001c.00228-.99106-.09826-1.97969-.3-2.95Zm-19.77,12.2c-1.86119,.00552-3.37446-1.49879-3.37998-3.35999s1.49879-3.37447,3.35999-3.37999,3.37446,1.49879,3.37998,3.35999c0,.00334,.00002,.00667,.00002,.00999,0,1.8573-1.50271,3.36449-3.36,3.37Z"/>
  <path class="cls-37" d="M125.80131,107.8l24.2,51.58,24.2-51.58h-48.39999Z"/>
  <path class="cls-37" d="M142.32132,107.16s7.56-26,28.42999-21.2l-6.05,26.35-22.37999-5.15Z"/>
  <ellipse class="cls-32" cx="149.99829" cy="118.55316" rx="49.49757" ry="12.2809"/>
  <path class="cls-23" d="M83.9361,221.47338s13.93009,5.65783,26.04215-10.16089l-7.26575,13.85186-28.18119,4.42062s-.37536-5.10648,9.40479-8.11159Z"/>
  <path class="cls-23" d="M216.06652,221.47338s-13.93009,5.65783-26.04215-10.16089l7.26575,13.85186,28.18119,4.42062s.37536-5.10648-9.40479-8.11159Z"/>
  <path class="cls-37" d="M132.70131,112.94s-5.28-29.9,18.10001-35.4l7,29.5-25.10001,5.9Z"/>
  <path class="cls-8" d="M71.11131,164.20876l2.24998,25.79054c-6.60269,5.42579-11.65387,29.85065,12.25882,26.72223,0,0-1.18645,7.88822-6.4443,7.88822,0,0,19.08285,5.40904,30.80244-13.29723,0,0,1.97693,42.38336-41.72044,35.72849,0,0,9.53148-3.2902,9.22684-7.61149,0,0-20.0192,10.19707-40.75387-20.45418,0,0,5.8598,7.66281,24.11532,2.70452,0,0-9.06811-12.93507,5.49521-28.77984l4.77-28.69125Z"/>
  <path class="cls-7" d="M65.57673,200.25888c.7533,1.45142-5.39087,25.55658,19.0188,17.47156,2.49948-.07935-31.26678,20.18579-19.0188-17.47156Z"/>
  <path class="cls-7" d="M53.55468,226.75999s43.07531,16.92304,56.42357-15.44748c0,0-2.28041,20.88748-24.21478,23.45749-21.93436,2.57001-32.2088-8.01001-32.2088-8.01001Z"/>
  <path class="cls-7" d="M92.14941,237.34001s15.6705-.21907,17.82883-26.02752c-.94532,4.84432-4.62229,9.89812-7.20692,12.674,0,0,.68132,7.53765-10.62191,13.35352Z"/>
  <path class="cls-23" d="M71.16415,192.35263c-.2428,.14124-9.82355,27.4729,14.45596,24.3689-8.62901,5.1955-28.63913-1.5828-14.45596-24.3689Z"/>
  <path class="cls-43" d="M123.55131,226.75999s11.17,10,1.66,15.24001c-9.50999,5.24001-20.07-9.73-20.07-9.73l18.41-5.51001Zm52.90001,0s-11.17,10-1.66,15.24001c9.50999,5.24001,20.07001-9.73,20.07001-9.73l-18.41-5.51001Z"/>
  <path class="cls-8" d="M228.89131,164.20876l-2.24998,25.79054c6.60269,5.42579,11.65387,29.85065-12.25882,26.72223,0,0,1.18645,7.88822,6.4443,7.88822,0,0-19.08285,5.40904-30.80244-13.29723,0,0-1.97693,42.38336,41.72044,35.72849,0,0-9.53148-3.2902-9.22684-7.61149,0,0,20.0192,10.19707,40.75387-20.45418,0,0-5.8598,7.66281-24.11532,2.70452,0,0,9.06811-12.93507-5.49521-28.77984l-4.77-28.69125Z"/>
  <path class="cls-7" d="M234.42589,200.25888c-.7533,1.45142,5.39087,25.55658-19.0188,17.47156-2.49948-.07935,31.26678,20.18579,19.0188-17.47156Z"/>
  <path class="cls-7" d="M246.44794,226.75999s-43.07531,16.92304-56.42357-15.44748c0,0,2.28041,20.88748,24.21478,23.45749,21.93436,2.57001,32.2088-8.01001,32.2088-8.01001Z"/>
  <path class="cls-7" d="M207.8532,237.34001s-15.6705-.21907-17.82883-26.02752c.94532,4.84432,4.62229,9.89812,7.20692,12.674,0,0-.68132,7.53765,10.62191,13.35352Z"/>
  <path class="cls-23" d="M228.83847,192.35263c.2428,.14124,9.82355,27.4729-14.45596,24.3689,8.62901,5.1955,28.63913-1.5828,14.45596-24.3689Z"/>
  <polygon class="cls-34" points="25.84215 172.39179 23.89355 188.86079 38.27997 197.11038 21.81098 195.16178 13.56139 209.54819 15.50999 193.0792 1.12357 184.82961 17.59256 186.77821 25.84215 172.39179"/>
  <polygon class="cls-34" points="285.53854 183.17614 284.14539 194.9507 294.431 200.84877 282.65644 199.45561 276.75837 209.74123 278.15152 197.96667 267.86591 192.06859 279.64047 193.46175 285.53854 183.17614"/>
  <polygon class="cls-34" points="22.62977 234.25371 21.7006 242.10685 28.56067 246.04061 20.70753 245.11143 16.77377 251.9715 17.70294 244.11837 10.84288 240.18461 18.69601 241.11378 22.62977 234.25371"/>
  <polygon class="cls-34" points="249.07609 246.9195 248.14691 254.77263 255.00698 258.70639 247.15385 257.77722 243.22008 264.63729 244.14926 256.78415 237.28919 252.85039 245.14232 253.77957 249.07609 246.9195"/>
  <g>
    <path class="cls-30" d="M184.99758,63.13252l-.58997,5.72998v.04004l-4.83002,46.53003-.32001,3.11987h-60.35999l-.32001-3.11987-1.96997-19.06006-2.85004-27.46997v-.04004l-.59998-5.72998c-.5-4.82007,3.90997-8.97998,9.51001-8.97998h52.82001c5.60999,0,10.00995,4.15991,9.50995,8.97998Z"/>
    <path class="cls-3" d="M121.39345,105.60891c.85197-10.11369,1.41282-23.53138-26.36114-25.34672"/>
    <path class="cls-46" d="M94.51665,66.04305c1.61635,3.4184,1.98041,8.56989,.20005,10.2211-1.78392,1.65452-6.05303,.09132-8.6062-2.55201-3.23407-3.33733-4.16673-9.00812-1.18707-11.72203,2.96871-2.70395,7.51047-.35885,9.57859,4.01244l.01462,.04049Z"/>
    <path class="cls-46" d="M100.69032,69.39096c-.5385,2.97082-2.66298,6.5232-4.66604,6.39519-2.2645-.14472-4.44435-5.00677-4.53698-9.03494-.11156-4.85811,2.7861-8.00494,5.91776-6.35023,2.6361,1.39287,3.90691,5.56092,3.28526,8.98998Z"/>
    <path class="cls-27" d="M101.63364,95.00119c-2.58248-3.10088-4.62812-9.2686-2.55419-11.35819s7.49052,.69532,10.09998,3.83612c2.58986,3.10751,3.00521,7.31796,.9277,9.40432-2.0775,2.08635-5.86115,1.25854-8.45101-1.84897l-.02248-.03327Z"/>
    <path class="cls-27" d="M92.73468,92.2628c-.55541-3.70501,1.29922-8.63154,4.56918-8.12746s6.72843,6.25014,7.28384,9.95514c.55582,3.70855-1.64698,6.30577-4.92011,5.80107-3.27312-.5047-6.37709-3.92021-6.93291-7.62875Z"/>
    <path class="cls-10" d="M82.70115,85.90925c-4.99703,.38928-8.99695-2.11965-8.02278-5.64341,.9645-3.48878,6.1938-5.70804,10.8471-5.09836,3.96256,.51324,8.15317,3.09903,7.53791,5.5443-.61968,2.46281-6.12596,4.8624-10.31649,5.18985l-.04574,.00762Z"/>
    <path class="cls-10" d="M78.97442,91.11053c-2.94856-1.93525-1.53125-5.80024,2.87576-8.08604,3.83625-1.98964,9.96124-2.7866,11.53975-.90949,1.44669,1.72035-1.01969,5.59209-3.83304,7.63186-3.1583,2.28999-7.95029,3.09127-10.58247,1.36367Z"/>
    <path class="cls-25" d="M99.04102,102.56264c7.49401-1.91081,22.59499-3.08492,28.89737,0,18.80938,9.20691,3.02628,13.36531,3.02628,13.36531,0,0-39.39497-5.77949-31.92364-13.36531Z"/>
    <path class="cls-25" d="M199.11632,102.56264c-7.49401-1.91081-22.59499-3.08492-28.89737,0-18.80938,9.20691-3.02628,13.36531-3.02628,13.36531,0,0,39.39497-5.77949,31.92364-13.36531Z"/>
    <path class="cls-36" d="M149.07867,97.70092c-14.62414-.04179-27.15969-.99985-32.91275-5.52914l2.41319,23.26802,20.30797,3.11615h20.38317l20.30797-3.11615,2.41319-23.26802c-5.75306,4.52928-18.28861,5.48735-32.91275,5.52914Z"/>
    <path class="cls-31" d="M175.48704,54.15404h-52.81674c-5.60605,0-10.0092,4.15476-9.51173,8.98282l.59405,5.72562c-.81681-7.86713,9.17758-10.17536,9.17758-10.17536h52.29693s9.99439,2.30823,9.17758,10.17536l.59405-5.72562c.49748-4.82805-3.90567-8.98282-9.51173-8.98282Z"/>
    <g>
      <rect class="cls-19" x="137.83195" y="102.90746" width="10.40094" height="4.9128" rx="2.4564" ry="2.4564"/>
      <path class="cls-19" d="M155.28201,94.79977h-12.40669c-2.78551,0-5.04337,2.12086-5.04337,4.74456v11.64636c0,2.61645,2.25786,4.73726,5.04337,4.73726h12.40669c2.78547,0,5.04337-2.12082,5.04337-4.73726v-11.64636c0-2.6237-2.25791-4.74456-5.04337-4.74456Zm.74484,14.16806c0,1.61069-1.39662,2.92253-3.1191,2.92253h-7.65816c-1.72253,0-3.11915-1.31185-3.11915-2.92253v-7.20064c0-1.61794,1.39662-2.92253,3.11915-2.92253h7.65816c1.72248,0,3.1191,1.3046,3.1191,2.92253v7.20064Z"/>
    </g>
    <path class="cls-29" d="M199.11632,102.56263s-11.48839,10.55773-50.03765,10.74549c-38.54926-.18776-50.03765-10.74549-50.03765-10.74549,0,0-6.95609,.71743-.50713,7.98323,15.34988,15.73713,38.15094,14.39671,50.54478,14.39671s35.1949,1.34041,50.54478-14.39671c6.44896-7.26579-.50713-7.98323-.50713-7.98323Z"/>
    <path class="cls-28" d="M133.65761,66.04243c.76001,4.54004,4.56,35.41016,4.56,35.41016-1.66998,10.61987-20.79999-3.42017-20.79999-3.42017l-.81-1.65991-2.85004-27.46997v-.04004l-.59998-5.72998c-.5-4.82007,3.90997-8.97998,9.51001-8.97998h21.09998c-12.14996,.32996-10.83002,7.56995-10.10999,11.88989Z"/>
    <path class="cls-27" d="M106.19022,72.90871c5.70237-2.98299,13.54113-2.96392,13.06009,2.02964-.44675,4.63778-7.85463,7.94932-13.02151,7.79405-3.29332-.0946-6.39776-1.51586-6.48893-3.19493-.09371-1.7258,2.9578-4.79737,6.40824-6.6027l.04211-.02606Z"/>
    <path class="cls-27" d="M108.73352,66.06937c4.64607-.43021,3.86474,4.71763-.91634,9.04357-3.12083,2.82361-7.27549,4.55591-8.50048,3.56135-1.0304-.83657-.43067-3.83843,.78913-6.06447,1.59997-2.91993,5.34428-6.23642,8.62769-6.54046Z"/>
    <circle class="cls-47" cx="95.92065" cy="79.90263" r="5.60702"/>
  </g>
</svg>