<?xml version="1.0" encoding="UTF-8" standalone="no"?>
<svg
   viewBox="0 0 300 345"
   version="1.1"
   id="svg2093"
   sodipodi:docname="Sheriff Owl.svg"
   xml:space="preserve"
   inkscape:version="1.2 (dc2aedaf03, 2022-05-15)"
   xmlns:inkscape="http://www.inkscape.org/namespaces/inkscape"
   xmlns:sodipodi="http://sodipodi.sourceforge.net/DTD/sodipodi-0.dtd"
   xmlns:xlink="http://www.w3.org/1999/xlink"
   xmlns="http://www.w3.org/2000/svg"
   xmlns:svg="http://www.w3.org/2000/svg"><sodipodi:namedview
     id="namedview2095"
     pagecolor="#505050"
     bordercolor="#ffffff"
     borderopacity="1"
     inkscape:showpageshadow="0"
     inkscape:pageopacity="0"
     inkscape:pagecheckerboard="1"
     inkscape:deskcolor="#505050"
     showgrid="false"
     inkscape:zoom="1.0031317"
     inkscape:cx="275.63679"
     inkscape:cy="258.19142"
     inkscape:window-width="1366"
     inkscape:window-height="705"
     inkscape:window-x="-8"
     inkscape:window-y="-8"
     inkscape:window-maximized="1"
     inkscape:current-layer="svg2093"
     showguides="true" /><defs
     id="defs2053"><inkscape:path-effect
       effect="mirror_symmetry"
       start_point="135.64417,45.022276"
       end_point="135.64417,65.696978"
       center_point="135.64417,55.359627"
       id="path-effect20893"
       is_visible="true"
       lpeversion="1.2"
       lpesatellites="#path20895"
       mode="vertical"
       discard_orig_path="false"
       fuse_paths="false"
       oposite_fuse="false"
       split_items="true"
       split_open="false"
       link_styles="false" /><inkscape:path-effect
       effect="fillet_chamfer"
       id="path-effect19169"
       is_visible="true"
       lpeversion="1"
       nodesatellites_param="F,0,0,1,0,3,0,1 @ F,0,0,1,0,3,0,1 @ F,0,0,1,0,3,0,1 @ F,0,0,1,0,3,0,1"
       unit="px"
       method="auto"
       mode="F"
       radius="3"
       chamfer_steps="1"
       flexible="false"
       use_knot_distance="true"
       apply_no_radius="true"
       apply_with_radius="true"
       only_selected="false"
       hide_knots="false" /><linearGradient
       id="linearGradient6969"
       x1="150"
       y1="356.10999"
       x2="150"
       y2="161.16"
       gradientUnits="userSpaceOnUse"
       spreadMethod="pad"><stop
         offset="0"
         stop-color="#594a42"
         id="stop6965" /><stop
         offset="0.69"
         stop-color="#281813"
         id="stop6967"
         style="stop-color:#875d32;stop-opacity:1;" /></linearGradient><linearGradient
       id="A-8"
       x1="150"
       y1="356.11"
       x2="150"
       y2="161.16"
       gradientUnits="userSpaceOnUse"
       xlink:href="#linearGradient6969"><stop
         offset="0"
         stop-color="#594a42"
         id="stop3742" /><stop
         offset=".69"
         stop-color="#281813"
         id="stop3744" /></linearGradient></defs><path
     id="path12655"
     style="fill:#53391f;fill-opacity:1;fill-rule:evenodd;stroke-width:0.83499"
     d="m 80.725839,50.210201 c 9.261706,8.042008 41.882861,17.427597 35.743261,24.498358 -6.1396,7.070759 -40.595443,2.462424 -49.857136,-5.57959 -9.261706,-8.042015 -14.18077,-17.905219 -8.04117,-24.97598 6.1396,-7.070762 12.893363,-1.984805 22.155045,6.057212 z"
     sodipodi:nodetypes="sssss" /><path
     id="path13384"
     style="fill:#53391f;fill-opacity:1;fill-rule:evenodd;stroke-width:0.83499"
     d="m 219.27416,50.210198 c -9.26171,8.042014 -41.88286,17.427604 -35.74326,24.498366 6.1396,7.070762 40.59544,2.462421 49.85714,-5.579593 9.26169,-8.042014 14.18077,-17.905219 8.04116,-24.975981 -6.1396,-7.07076 -12.89336,-1.984807 -22.15504,6.057208 z"
     sodipodi:nodetypes="sssss" /><g
     id="g3828"><path
       d="M 263.62,345 H 36.38 A 36.38,36.38 0 0 1 0,308.62 v -49.48 h 300 v 49.48 A 36.38,36.38 0 0 1 263.62,345 Z"
       fill="url(#A)"
       id="path3749"
       style="fill:url(#A-8)" /><path
       d="M 150,45 A 150,150 0 0 0 0,195 v 29.4 l 36.38,39.1 45,0.94 68.6,-22 73.8,22 39.82,-0.94 36.4,-39.1 V 195 A 150,150 0 0 0 150,45 Z"
       fill="#aa7750"
       id="path3751" /><path
       d="M 0,228.58 V 262 c 0,20.09212 16.287881,36.38 36.38,36.38 H 125.56608 263.62 C 283.71212,298.38 300,282.09212 300,262 v -33.42 c 0,0 -11.77,24.42 -43.65,33.42 -22.55,6.36 -52.9,-1.77 -106.35,-1.77 -43.47,0 -78,8.05 -100.27,3.3 C 5.9,254.12 0,228.58 0,228.58 Z"
       fill="#594a42"
       id="path3753"
       sodipodi:nodetypes="csscssccscc" /><path
       d="M 280.05,120.2 A 91.1,91.1 0 0 0 268.71,121.99 149.73,149.73 0 0 0 150,63.64 149.73,149.73 0 0 0 31.29,122 91.1,91.1 0 0 0 20,120.21 149.59,149.59 0 0 0 8.38,145.46 c 21.7,12.74 85.8,51.65 101.67,76.12 0.67,1 1.36,2 2,2.87 0,0 14.92,23 37.9,0 23,23 37.9,0 37.9,0 0.7,-0.9 1.38,-1.84 2,-2.87 15.88,-24.47 80,-63.38 101.67,-76.12 a 149.59,149.59 0 0 0 -11.47,-25.25 z"
       fill="#8b5e3c"
       id="path3755" /><path
       d="m 294.2,153.58 a 73.2,73.2 0 0 0 -58.49,-29.19 h -4.24 l -2.7,3.26 -40.42,48.87 -7,5.4 -13.12,7.27 -18.18,-23 -18.18,23 -13.12,-7.27 -7,-5.4 -43.22,-52.13 H 64.3 A 73.2,73.2 0 0 0 5.8,153.58 149.74,149.74 0 0 0 0,195 v 2.68 a 64.29,64.29 0 0 1 64.29,-64.29 l 32.24,39 -13.76,53.78 c 0,0 -10,11.48 -12.18,25.22 0,0 2.7,1.65 11.06,1.36 A 37.84,37.84 0 0 0 80.06,260 64.3,64.3 0 0 1 0,197.68 v 35.15 a 73.18,73.18 0 0 0 103.89,26.47 c -1.3,2.7 -4.6,10.62 -1.63,17.28 0,0 20.95,0.58 26.32,-10.58 0,0 -2.08,10.88 2.26,16.62 0,0 16.48,-1.5 19.16,-13 2.68,11.48 19.16,13 19.16,13 4.34,-5.74 2.26,-16.62 2.26,-16.62 5.37,11.16 26.32,10.58 26.32,10.58 3,-6.66 -0.33,-14.6 -1.63,-17.28 A 73.18,73.18 0 0 0 300,232.83 v -35.15 a 64.3,64.3 0 0 1 -80.06,62.32 37.84,37.84 0 0 0 -1.59,-7.26 c 8.36,0.3 11.06,-1.36 11.06,-1.36 -2.13,-13.74 -12.18,-25.22 -12.18,-25.22 l -13.76,-53.8 32.24,-39 A 64.29,64.29 0 0 1 300,197.68 V 195 a 149.74,149.74 0 0 0 -5.8,-41.42 z"
       fill="#f1f2f2"
       id="path3757" /><path
       d="m 187.9,224.45 c 0.7,-0.9 1.38,-1.84 2,-2.87 4.14,-6.38 11.56,-13.74 20.64,-21.36 l -7.12,-27.86 32.24,-39 a 64.08,64.08 0 0 1 45.12,18.5 l 7.92,-4.73 a 73.09,73.09 0 0 0 -53,-22.77 h -4.24 l -2.7,3.26 -40.42,48.87 -7,5.4 -13.12,7.27 -18.18,-23 -18.18,23 -13.12,-7.27 -7,-5.4 -43.2,-52.1 H 64.3 a 73.09,73.09 0 0 0 -53,22.77 l 7.92,4.73 a 64.08,64.08 0 0 1 45.12,-18.5 l 32.24,39 -7.12,27.86 c 9.08,7.62 16.5,15 20.64,21.36 0.67,1 1.36,2 2,2.87 0,0 14.92,23 37.9,0 23,22.95 37.9,-0.03 37.9,-0.03 z"
       fill="#d1d3d4"
       id="path3759" /><path
       d="m 150,201.45 c 0,0 -15.13,3.68 -15.13,22.9 0,19.22 15.13,35.85 15.13,35.85 0,0 15.13,-16.6 15.13,-35.84 0,-19.24 -15.13,-22.9 -15.13,-22.9 z"
       fill="#414042"
       id="path3761" /><circle
       cx="57.419998"
       cy="200.06"
       r="40.950001"
       transform="matrix(0.16,-0.99,0.99,0.16,-149.26,224.69)"
       fill="#ffda73"
       id="circle3763" /><path
       d="M 57.42,163.6 A 36.45,36.45 0 1 1 21,200.06 36.45,36.45 0 0 1 57.45,163.61 m 0,-9 a 45.45,45.45 0 1 0 45.45,45.45 45.5,45.5 0 0 0 -45.45,-45.45 z"
       fill="#3f312b"
       id="path3765" /><path
       d="M 89.18,194.77 A 13.21,13.21 0 0 1 70,176.86 23,23 0 1 0 89.19,194.77 Z m -32,19.76 a 5.46,5.46 0 1 1 5.45,-5.45 5.45,5.45 0 0 1 -5.49,5.45 z"
       fill="#414042"
       id="path3767" /><g
       fill="#ffffff"
       id="g3773"><path
         d="M 92.74,191 A 36.43,36.43 0 0 0 80.33,171.71 13.23,13.23 0 1 0 80.71,198.16 13.58,13.58 0 0 0 92.74,191 Z"
         id="path3769" /><ellipse
         cx="57.419998"
         cy="209.24001"
         rx="5.75"
         ry="5.6199999"
         id="ellipse3771" /></g><circle
       cx="242.58"
       cy="200.06"
       r="40.950001"
       transform="rotate(-22.499967,242.58266,200.04911)"
       fill="#ffda73"
       id="circle3775" /><path
       d="m 242.58,163.6 a 36.45,36.45 0 1 1 -36.45,36.45 36.45,36.45 0 0 1 36.45,-36.45 m 0,-9 A 45.45,45.45 0 1 0 288,200.06 45.5,45.5 0 0 0 242.55,154.61 Z"
       fill="#3f312b"
       id="path3777" /><path
       d="m 255.84,194.77 a 13.21,13.21 0 0 1 -19.19,-17.91 23,23 0 1 0 19.19,17.91 z m -32,19.76 a 5.46,5.46 0 1 1 5.45,-5.45 5.45,5.45 0 0 1 -5.49,5.45 z"
       fill="#414042"
       id="path3779" /><g
       fill="#ffffff"
       id="g3785"><ellipse
         cx="247.37"
         cy="184.92999"
         rx="13.55"
         ry="13.24"
         id="ellipse3781" /><ellipse
         cx="224.08"
         cy="209.24001"
         rx="5.75"
         ry="5.6199999"
         id="ellipse3783" /></g><path
       d="M 150,45 A 150,150 0 0 0 17.13,125.34 c 12.3,2.66 42.22,10.8 59,29.73 a 309.62,309.62 0 0 1 35.95,50.75 c 0,0 14.92,23 37.9,0 23,23 37.9,0 37.9,0 a 309.62,309.62 0 0 1 35.95,-50.75 c 16.8,-18.92 46.72,-27.07 59,-29.73 A 150,150 0 0 0 150,45 Z"
       fill="#594a42"
       id="path3787" /><path
       d="m 198.14,160.86 c -6.5,9.93 -10.24,16.8 -10.24,16.8 0,0 -14.92,23 -37.9,0 -23,23 -37.9,0 -37.9,0 0,0 -3.74,-6.86 -10.24,-16.8 h -9.38 a 305.11,305.11 0 0 1 19.62,30.38 c 0,0 14.92,23 37.9,0 23,23 37.9,0 37.9,0 a 305.11,305.11 0 0 1 19.62,-30.38 z"
       fill="#f1f2f2"
       id="path3789" /><path
       d="M 72.37,153.5 C 72.37,92.2 0,101.64 0,101.64 l 34.94,33.43 z m 155.26,0 c 0,-61.3 72.37,-51.85 72.37,-51.85 l -34.94,33.43 z"
       fill="#594a42"
       id="path3791" /><path
       d="m 187.9,205.82 2,-2.88 c 19.2,-29.58 108.9,-80.3 108.9,-80.3 0,0 -108,-25.28 -110.9,83.18 z m -75.8,0 -2,-2.88 C 90.9,173.36 1.2,122.64 1.2,122.64 c 0,0 108,-25.28 110.9,83.18 z"
       fill="#726658"
       id="path3793" /><path
       d="m 71.23,90.47 c 0,0 23,14.77 39.54,43.47 0,0 12.08,-49.5 -39.54,-43.47 z m 157.54,0 c 0,0 -23,14.77 -39.54,43.47 0,0 -12.08,-49.5 39.54,-43.47 z M 120.6,68.58 c 0,0 -0.87,22.42 18.3,41.66 0,0 11.5,-30.8 -18.3,-41.66 z m 58.8,0 c 0,0 0.87,22.42 -18.3,41.66 0,0 -11.5,-30.8 18.3,-41.66 z m -51.7,51.02 c 0,0 -0.67,17 13.88,31.62 0,0 8.72,-23.37 -13.88,-31.62 z m 44.6,0 c 0,0 0.67,17 -13.88,31.62 0,0 -8.72,-23.37 13.88,-31.62 z"
       fill="#3f312b"
       id="path3795" /></g><path
     id="path20897"
     style="color:#000000;opacity:0.566893;fill:#191108;fill-opacity:1;stroke-width:0.890056;stroke-linecap:square;stroke-linejoin:bevel;paint-order:stroke fill markers;stroke:#191108;stroke-opacity:1"
     d="M 150 45 A 150 150 0 0 0 70.628906 68.005859 C 83.836119 79.800463 98.938813 90.356904 117.37305 96.958984 C 136.99627 104.21823 160.81436 103.62788 179.88867 95.591797 C 197.74403 88.295281 212.66359 77.624432 225.44336 65.65625 A 150 150 0 0 0 150 45 z " /><path
     id="path12205"
     style="fill:#84582b;fill-opacity:1;fill-rule:evenodd;stroke-width:0.849211"
     d="M 133.13299,0.0028165 C 119.35124,2.8712061 116.6265,21.164341 111.89943,30.949655 c -4.23044,12.08585 -8.77443,24.018838 -9.50944,35.354684 31.74803,6.039906 63.26709,4.986782 94.64916,-0.296831 C 195.99346,53.189145 189.93567,40.940714 186.3131,29.210269 181.05859,18.734227 180.6472,3.1783723 166.51142,0.0028165 c -4.48323,-0.13199596 -7.6467,4.4040669 -8.77882,7.6535992 -6.40602,-0.1966562 -17.06062,3.6103193 -17.98328,-3.9967315 l -3.03011,-2.73226197 z" /><path
     id="path12496"
     style="color:#000000;fill:#84582b;fill-opacity:1;stroke-width:0.83499;stroke-linecap:square;stroke-linejoin:bevel;paint-order:stroke fill markers"
     d="m 69.990277,42.047753 2.618916,2.373412 c 0.40766,0.589979 0.934344,1.200315 1.515048,1.816756 13.851678,18.908335 29.993449,37.518096 51.640609,47.589598 16.1516,7.762021 35.7565,7.131421 51.45631,-1.461232 20.12344,-10.682851 35.75668,-28.096554 48.4713,-46.632317 l 1.60891,-2.018055 c -0.0494,0.04409 -1.58365,0.8442 -1.63371,0.888597 -17.08099,15.654326 -43.18827,23.785459 -66.41674,25.045743 -24.6218,1.93323 -50.08331,-3.681023 -70.561629,-17.794114 -4.340603,-2.720568 -13.506315,-6.387497 -17.606345,-9.239258 -0.50354,0.09573 -0.824752,-0.179273 -1.092669,-0.569164 z"
     sodipodi:nodetypes="ccccccccccccc" /><path
     id="rect15474"
     style="fill:#53391f;fill-opacity:0.522059;stroke-width:0.745998;stroke-linecap:square;stroke-linejoin:bevel;paint-order:stroke fill markers;stop-color:#000000"
     d="m 127.25868,12.609169 c 0.10586,-2.513339 -7.25319,-0.831013 -8.02483,1.545199 -1.16684,3.593119 4.47466,9.931362 8.46128,8.974755 3.07361,-0.737531 -0.63627,-5.778184 -0.43645,-10.519954 z"
     sodipodi:nodetypes="sass" /><path
     id="path17655"
     style="fill:#53391f;fill-opacity:0.522059;stroke-width:0.745998;stroke-linecap:square;stroke-linejoin:bevel;paint-order:stroke fill markers;stop-color:#000000"
     d="m 171.55458,12.609169 c -0.10586,-2.513339 7.25318,-0.831013 8.02482,1.545199 1.16685,3.593119 -4.47466,9.931362 -8.46128,8.974755 -3.07361,-0.737531 0.63628,-5.778184 0.43646,-10.519954 z"
     sodipodi:nodetypes="sass" /><path
     id="path19544"
     style="fill:#6a4725;fill-opacity:1;stroke-width:4.04608;stroke-linecap:square;stroke-linejoin:bevel;paint-order:stroke fill markers;stop-color:#000000"
     d="m 99.844243,63.050271 c 0.374077,0.670088 0.913247,1.247868 1.526477,1.568872 31.82942,16.661585 66.34186,13.692339 95.56731,0.771382 0.90732,-0.40113 1.64815,-1.335819 1.95702,-2.340254 z" /><path
     id="rect20614"
     style="opacity:1;fill:#84582b;stroke-width:3.00979;stroke-linecap:square;stroke-linejoin:bevel;paint-order:stroke fill markers;stop-color:#000000"
     d="M 135.64417,46.436743 V 65.378046 C 112.13519,67.066044 91.001666,62.306349 74.482392,45.022276 98.6719,55.633094 117.35168,51.551305 135.64417,46.436743 Z"
     sodipodi:nodetypes="cccc"
     inkscape:path-effect="#path-effect20893"
     inkscape:original-d="M 135.64417,46.436743 V 65.378046 C 112.13519,67.066044 91.001666,62.306349 74.482392,45.022276 98.6719,55.633094 117.35168,51.551305 135.64417,46.436743 Z"
     class="UnoptimicedTransforms" /><path
     class="UnoptimicedTransforms"
     id="path20895"
     d="M 135.64417,46.436743 V 65.378046 C 112.13519,67.066044 91.001666,62.306349 74.482392,45.022276 98.6719,55.633094 117.35168,51.551305 135.64417,46.436743 Z"
     style="opacity:1;fill:#84582b;stroke-width:3.00979;stroke-linecap:square;stroke-linejoin:bevel;paint-order:stroke fill markers;stop-color:#000000"
     transform="matrix(-1,0,0,1,300,0)" /><path
     id="rect17709"
     style="fill:#543024;fill-opacity:1;stroke-width:3.585;stroke-linecap:square;stroke-linejoin:bevel;paint-order:stroke fill markers;stop-color:#000000"
     d="m 194.34909,50.326045 c -28.28089,9.789043 -61.2104,11.7261 -90.06141,-0.519515 -1.5251,-0.647319 -3.04143,0.09675 -3.36163,1.722326 -0.52136,2.646791 -0.936165,5.272358 -1.204346,7.871372 -0.170046,1.647952 0.987906,3.529762 2.523606,4.151548 31.47527,12.743899 65.52364,10.489974 94.46032,0.565181 1.56721,-0.537526 2.73665,-2.341125 2.53916,-3.986016 -0.31863,-2.653949 -0.7938,-5.285748 -1.37584,-7.896141 -0.36055,-1.617075 -1.95417,-2.450696 -3.51986,-1.908755 z"
     sodipodi:nodetypes="ccccc"
     inkscape:path-effect="#path-effect19169"
     inkscape:original-d="m 197.17408,49.316515 c -29.78641,10.981199 -65.18031,13.291544 -95.63,-0.723227 -1.04253,4.667766 -1.80276,9.276298 -2.064652,13.796864 33.263512,14.478007 69.684402,11.79372 100.054492,0.72655 -0.34018,-4.667239 -1.21518,-9.265977 -2.35984,-13.800187 z" /><path
     id="rect19223"
     style="fill:#774433;fill-opacity:1;stroke:none;stroke-width:3.34748;stroke-linecap:square;stroke-linejoin:bevel;stroke-dasharray:none;stroke-opacity:1;paint-order:stroke fill markers;stop-color:#000000"
     d="m 173.30713,55.925126 c -15.44877,2.911805 -31.57306,3.341299 -47.18512,0.422388 10.08839,6.83213 9.25844,11.337407 0,14.046435 15.87426,2.816774 31.90595,2.443459 47.18512,-0.239734 -10.16815,-3.912977 -4.98717,-9.07894 0,-14.229089 z"
     sodipodi:nodetypes="ccccc" /><g
     id="g20975"
     transform="translate(-0.1825,-5.6255493e-5)"
     style="clip-rule:evenodd;fill-rule:evenodd;stroke-linecap:round">
            <path
   d="M 36.38,345 C 16.423,345 0,328.577 0,308.62 V 262 v 0.01 c 0,19.957 16.423,36.38 36.38,36.38 h 227.24 c 19.957,0 36.38,-16.423 36.38,-36.38 v 46.61 C 300,328.577 283.577,345 263.62,345 Z"
   style="fill:#adadad;fill-opacity:1;fill-rule:nonzero"
   id="path20953" />
            <g
   transform="matrix(0.752818,0,0,0.752818,37.0773,74.2675)"
   id="g20957">
                <path
   d="m 235.066,297.71 -83.106,2.803 1.612,2.308 20.447,29.26 c 1.931,2.508 4.924,3.98 8.089,3.98 2.889,0 5.798,-1.226 8.267,-3.294 z"
   style="fill:#8c8c8c;fill-opacity:1;fill-rule:nonzero"
   id="path20955" />
            </g>
            <g
   transform="matrix(0.752818,0,0,0.752818,37.0773,74.2675)"
   id="g20961">
                <path
   d="m 228.81,297.71 h -74.101 l 19.601,28.51 c 1.929,2.511 4.922,3.986 8.089,3.986 2.89,0 5.221,-1.045 7.825,-3.01 z"
   style="fill:#afcdff;fill-rule:nonzero"
   id="path20959" />
            </g>
            <g
   transform="matrix(0.752818,0,0,0.752818,37.4214,73.7564)"
   id="g20965">
                <path
   d="M 154.1,300.911 V 345 h -15.309 v -31.225 l -13.267,18.985 c -1.932,2.508 -4.924,3.98 -8.089,3.98 -2.889,0 -5.799,-1.226 -8.267,-3.294 L 64.477,298.389 h 7.318 z"
   style="fill:#8c8c8c;fill-opacity:1"
   id="path20963" />
            </g>
            <g
   transform="matrix(-0.752818,0,0,0.752818,262.923,74.2675)"
   id="g20969">
                <path
   d="m 228.81,297.71 h -74.101 l 19.601,28.51 c 1.929,2.511 4.922,3.986 8.089,3.986 2.89,0 5.221,-1.045 7.825,-3.01 z"
   style="fill:#bababa;fill-opacity:1;fill-rule:nonzero"
   id="path20967" />
            </g>
            <g
   transform="matrix(1,0,0,0.989536,0,7.57224)"
   id="g20973">
                <rect
   x="142.09599"
   y="293.892"
   width="14.895"
   height="47.104"
   style="fill:#8c8c8c;fill-opacity:1"
   id="rect20971" />
            </g>
        </g><g
     id="g20979"
     transform="translate(-0.1825,-5.6255493e-5)"
     style="clip-rule:evenodd;fill-rule:evenodd;stroke-linecap:round">
                <path
   d="m 265.029,298.39 c 0.094,0 0.187,0 0.281,-10e-4 5.981,10.843 18.469,18.694 33.313,20.097 C 294.28,333.714 280.165,345 263.62,345 h -80.576 v -20.5 l 31.108,-26.11 z"
   style="fill:#84582b;fill-opacity:1;fill-rule:nonzero"
   id="path20977" />
            </g><g
     id="g21111"
     transform="matrix(-1,0,0,1,301.2265,-5.6255493e-5)"
     style="clip-rule:evenodd;fill-rule:evenodd;stroke-linecap:round;fill:#6a351d;fill-opacity:1">
                <g
   id="g20989"
   style="fill:#6a351d;fill-opacity:1">
                    <g
   transform="matrix(-0.800711,-0.0684753,-0.0684753,0.800711,299.45,80.775)"
   id="g20983"
   style="fill:#6a351d;fill-opacity:1">
                        <path
   d="m 209.655,321.813 c 0,-1.023 -0.83,-1.854 -1.853,-1.854 h -3.707 c -1.023,0 -1.854,0.831 -1.854,1.854 v 17.334 c 0,1.023 0.831,1.853 1.854,1.853 h 3.707 c 1.023,0 1.853,-0.83 1.853,-1.853 z"
   style="fill:#6a351d;fill-opacity:1"
   id="path20981" />
                    </g>
                    <g
   transform="matrix(-0.800711,-0.0684753,-0.0684753,0.800711,298.678,80.709)"
   id="g20987"
   style="fill:#6a351d;fill-opacity:1">
                        <path
   d="m 209.655,321.813 c 0,-1.023 -0.83,-1.854 -1.853,-1.854 h -3.707 c -1.023,0 -1.854,0.831 -1.854,1.854 v 17.334 c 0,1.023 0.831,1.853 1.854,1.853 h 3.707 c 1.023,0 1.853,-0.83 1.853,-1.853 z"
   style="fill:#6a351d;fill-opacity:1"
   id="path20985" />
                    </g>
                </g>
                <g
   id="g20999"
   style="fill:#6a351d;fill-opacity:1">
                    <g
   transform="matrix(-0.794746,-0.119192,-0.119192,0.794746,307.46,92.2414)"
   id="g20993"
   style="fill:#6a351d;fill-opacity:1">
                        <path
   d="m 209.655,321.813 c 0,-1.023 -0.83,-1.854 -1.853,-1.854 h -3.707 c -1.023,0 -1.854,0.831 -1.854,1.854 v 17.334 c 0,1.023 0.831,1.853 1.854,1.853 h 3.707 c 1.023,0 1.853,-0.83 1.853,-1.853 z"
   style="fill:#6a351d;fill-opacity:1"
   id="path20991" />
                    </g>
                    <g
   transform="matrix(-0.794746,-0.119192,-0.119192,0.794746,306.694,92.1265)"
   id="g20997"
   style="fill:#6a351d;fill-opacity:1">
                        <path
   d="m 209.655,321.813 c 0,-1.023 -0.83,-1.854 -1.853,-1.854 h -3.707 c -1.023,0 -1.854,0.831 -1.854,1.854 v 17.334 c 0,1.023 0.831,1.853 1.854,1.853 h 3.707 c 1.023,0 1.853,-0.83 1.853,-1.853 z"
   style="fill:#6a351d;fill-opacity:1"
   id="path20995" />
                    </g>
                </g>
                <g
   id="g21009"
   style="fill:#6a351d;fill-opacity:1">
                    <g
   transform="matrix(-0.802933,-0.0335634,-0.0335634,0.802933,272.817,70.9917)"
   id="g21003"
   style="fill:#6a351d;fill-opacity:1">
                        <path
   d="m 209.655,321.813 c 0,-1.023 -0.83,-1.854 -1.853,-1.854 h -3.707 c -1.023,0 -1.854,0.831 -1.854,1.854 v 17.334 c 0,1.023 0.831,1.853 1.854,1.853 h 3.707 c 1.023,0 1.853,-0.83 1.853,-1.853 z"
   style="fill:#6a351d;fill-opacity:1"
   id="path21001" />
                    </g>
                    <g
   transform="matrix(-0.802933,-0.0335634,-0.0335634,0.802933,272.042,70.9593)"
   id="g21007"
   style="fill:#6a351d;fill-opacity:1">
                        <path
   d="m 209.655,321.813 c 0,-1.023 -0.83,-1.854 -1.853,-1.854 h -3.707 c -1.023,0 -1.854,0.831 -1.854,1.854 v 17.334 c 0,1.023 0.831,1.853 1.854,1.853 h 3.707 c 1.023,0 1.853,-0.83 1.853,-1.853 z"
   style="fill:#6a351d;fill-opacity:1"
   id="path21005" />
                    </g>
                </g>
                <g
   id="g21019"
   style="fill:#6a351d;fill-opacity:1">
                    <g
   transform="matrix(-0.802933,-0.0335634,-0.0335634,0.802933,265.505,68.6297)"
   id="g21013"
   style="fill:#6a351d;fill-opacity:1">
                        <path
   d="m 209.655,321.813 c 0,-1.023 -0.83,-1.854 -1.853,-1.854 h -3.707 c -1.023,0 -1.854,0.831 -1.854,1.854 v 17.334 c 0,1.023 0.831,1.853 1.854,1.853 h 3.707 c 1.023,0 1.853,-0.83 1.853,-1.853 z"
   style="fill:#6a351d;fill-opacity:1"
   id="path21011" />
                    </g>
                    <g
   transform="matrix(-0.802933,-0.0335634,-0.0335634,0.802933,264.731,68.5973)"
   id="g21017"
   style="fill:#6a351d;fill-opacity:1">
                        <path
   d="m 209.655,321.813 c 0,-1.023 -0.83,-1.854 -1.853,-1.854 h -3.707 c -1.023,0 -1.854,0.831 -1.854,1.854 v 17.334 c 0,1.023 0.831,1.853 1.854,1.853 h 3.707 c 1.023,0 1.853,-0.83 1.853,-1.853 z"
   style="fill:#6a351d;fill-opacity:1"
   id="path21015" />
                    </g>
                </g>
                <g
   id="g21029"
   style="fill:#6a351d;fill-opacity:1">
                    <g
   transform="matrix(-0.793637,-0.126366,-0.126366,0.793637,286.181,89.4733)"
   id="g21023"
   style="fill:#6a351d;fill-opacity:1">
                        <path
   d="m 209.655,321.813 c 0,-1.023 -0.83,-1.854 -1.853,-1.854 h -3.707 c -1.023,0 -1.854,0.831 -1.854,1.854 v 17.334 c 0,1.023 0.831,1.853 1.854,1.853 h 3.707 c 1.023,0 1.853,-0.83 1.853,-1.853 z"
   style="fill:#6a351d;fill-opacity:1"
   id="path21021" />
                    </g>
                    <g
   transform="matrix(-0.793637,-0.126366,-0.126366,0.793637,285.416,89.3514)"
   id="g21027"
   style="fill:#6a351d;fill-opacity:1">
                        <path
   d="m 209.655,321.813 c 0,-1.023 -0.83,-1.854 -1.853,-1.854 h -3.707 c -1.023,0 -1.854,0.831 -1.854,1.854 v 17.334 c 0,1.023 0.831,1.853 1.854,1.853 h 3.707 c 1.023,0 1.853,-0.83 1.853,-1.853 z"
   style="fill:#6a351d;fill-opacity:1"
   id="path21025" />
                    </g>
                </g>
                <g
   id="g21039"
   style="fill:#6a351d;fill-opacity:1">
                    <g
   transform="matrix(-0.799586,-0.0805596,-0.0805596,0.799586,264.159,76.5088)"
   id="g21033"
   style="fill:#6a351d;fill-opacity:1">
                        <path
   d="m 209.655,321.813 c 0,-1.023 -0.83,-1.854 -1.853,-1.854 h -3.707 c -1.023,0 -1.854,0.831 -1.854,1.854 v 17.334 c 0,1.023 0.831,1.853 1.854,1.853 h 3.707 c 1.023,0 1.853,-0.83 1.853,-1.853 z"
   style="fill:#6a351d;fill-opacity:1"
   id="path21031" />
                    </g>
                    <g
   transform="matrix(-0.799586,-0.0805596,-0.0805596,0.799586,263.388,76.4312)"
   id="g21037"
   style="fill:#6a351d;fill-opacity:1">
                        <path
   d="m 209.655,321.813 c 0,-1.023 -0.83,-1.854 -1.853,-1.854 h -3.707 c -1.023,0 -1.854,0.831 -1.854,1.854 v 17.334 c 0,1.023 0.831,1.853 1.854,1.853 h 3.707 c 1.023,0 1.853,-0.83 1.853,-1.853 z"
   style="fill:#6a351d;fill-opacity:1"
   id="path21035" />
                    </g>
                </g>
                <g
   id="g21049"
   style="fill:#6a351d;fill-opacity:1">
                    <g
   transform="matrix(-0.802767,0.037329,0.037329,0.802767,217.316,50.3989)"
   id="g21043"
   style="fill:#6a351d;fill-opacity:1">
                        <path
   d="m 209.655,321.813 c 0,-1.023 -0.83,-1.854 -1.853,-1.854 h -3.707 c -1.023,0 -1.854,0.831 -1.854,1.854 v 17.334 c 0,1.023 0.831,1.853 1.854,1.853 h 3.707 c 1.023,0 1.853,-0.83 1.853,-1.853 z"
   style="fill:#6a351d;fill-opacity:1"
   id="path21041" />
                    </g>
                    <g
   transform="matrix(-0.802767,0.037329,0.037329,0.802767,216.542,50.4349)"
   id="g21047"
   style="fill:#6a351d;fill-opacity:1">
                        <path
   d="m 209.655,321.813 c 0,-1.023 -0.83,-1.854 -1.853,-1.854 h -3.707 c -1.023,0 -1.854,0.831 -1.854,1.854 v 17.334 c 0,1.023 0.831,1.853 1.854,1.853 h 3.707 c 1.023,0 1.853,-0.83 1.853,-1.853 z"
   style="fill:#6a351d;fill-opacity:1"
   id="path21045" />
                    </g>
                </g>
                <g
   id="g21059"
   style="fill:#6a351d;fill-opacity:1">
                    <g
   transform="matrix(-0.788531,-0.155071,-0.155071,0.788531,269.39,97.1896)"
   id="g21053"
   style="fill:#6a351d;fill-opacity:1">
                        <path
   d="m 209.655,321.813 c 0,-1.023 -0.83,-1.854 -1.853,-1.854 h -3.707 c -1.023,0 -1.854,0.831 -1.854,1.854 v 17.334 c 0,1.023 0.831,1.853 1.854,1.853 h 3.707 c 1.023,0 1.853,-0.83 1.853,-1.853 z"
   style="fill:#6a351d;fill-opacity:1"
   id="path21051" />
                    </g>
                    <g
   transform="matrix(-0.788531,-0.155071,-0.155071,0.788531,268.63,97.0401)"
   id="g21057"
   style="fill:#6a351d;fill-opacity:1">
                        <path
   d="m 209.655,321.813 c 0,-1.023 -0.83,-1.854 -1.853,-1.854 h -3.707 c -1.023,0 -1.854,0.831 -1.854,1.854 v 17.334 c 0,1.023 0.831,1.853 1.854,1.853 h 3.707 c 1.023,0 1.853,-0.83 1.853,-1.853 z"
   style="fill:#6a351d;fill-opacity:1"
   id="path21055" />
                    </g>
                </g>
                <g
   id="g21069"
   style="fill:#6a351d;fill-opacity:1">
                    <g
   transform="matrix(-0.80207,-0.0501135,-0.0501135,0.80207,229.293,74.0103)"
   id="g21063"
   style="fill:#6a351d;fill-opacity:1">
                        <path
   d="m 209.655,321.813 c 0,-1.023 -0.83,-1.854 -1.853,-1.854 h -3.707 c -1.023,0 -1.854,0.831 -1.854,1.854 v 17.334 c 0,1.023 0.831,1.853 1.854,1.853 h 3.707 c 1.023,0 1.853,-0.83 1.853,-1.853 z"
   style="fill:#6a351d;fill-opacity:1"
   id="path21061" />
                    </g>
                    <g
   transform="matrix(-0.80207,-0.0501135,-0.0501135,0.80207,228.519,73.962)"
   id="g21067"
   style="fill:#6a351d;fill-opacity:1">
                        <path
   d="m 209.655,321.813 c 0,-1.023 -0.83,-1.854 -1.853,-1.854 h -3.707 c -1.023,0 -1.854,0.831 -1.854,1.854 v 17.334 c 0,1.023 0.831,1.853 1.854,1.853 h 3.707 c 1.023,0 1.853,-0.83 1.853,-1.853 z"
   style="fill:#6a351d;fill-opacity:1"
   id="path21065" />
                    </g>
                </g>
                <g
   id="g21079"
   style="fill:#6a351d;fill-opacity:1">
                    <g
   transform="matrix(-0.803603,-0.00701304,-0.00701304,0.803603,207.482,66.5114)"
   id="g21073"
   style="fill:#6a351d;fill-opacity:1">
                        <path
   d="m 209.655,321.813 c 0,-1.023 -0.83,-1.854 -1.853,-1.854 h -3.707 c -1.023,0 -1.854,0.831 -1.854,1.854 v 17.334 c 0,1.023 0.831,1.853 1.854,1.853 h 3.707 c 1.023,0 1.853,-0.83 1.853,-1.853 z"
   style="fill:#6a351d;fill-opacity:1"
   id="path21071" />
                    </g>
                    <g
   transform="matrix(-0.803603,-0.00701304,-0.00701304,0.803603,206.707,66.5047)"
   id="g21077"
   style="fill:#6a351d;fill-opacity:1">
                        <path
   d="m 209.655,321.813 c 0,-1.023 -0.83,-1.854 -1.853,-1.854 h -3.707 c -1.023,0 -1.854,0.831 -1.854,1.854 v 17.334 c 0,1.023 0.831,1.853 1.854,1.853 h 3.707 c 1.023,0 1.853,-0.83 1.853,-1.853 z"
   style="fill:#6a351d;fill-opacity:1"
   id="path21075" />
                    </g>
                </g>
                <g
   id="g21089"
   style="fill:#6a351d;fill-opacity:1">
                    <g
   transform="matrix(-0.803603,-0.00701304,-0.00701304,0.803603,199.46,66.5182)"
   id="g21083"
   style="fill:#6a351d;fill-opacity:1">
                        <path
   d="m 209.655,321.813 c 0,-1.023 -0.83,-1.854 -1.853,-1.854 h -3.707 c -1.023,0 -1.854,0.831 -1.854,1.854 v 17.334 c 0,1.023 0.831,1.853 1.854,1.853 h 3.707 c 1.023,0 1.853,-0.83 1.853,-1.853 z"
   style="fill:#6a351d;fill-opacity:1"
   id="path21081" />
                    </g>
                    <g
   transform="matrix(-0.803603,-0.00701304,-0.00701304,0.803603,198.686,66.5114)"
   id="g21087"
   style="fill:#6a351d;fill-opacity:1">
                        <path
   d="m 209.655,321.813 c 0,-1.023 -0.83,-1.854 -1.853,-1.854 h -3.707 c -1.023,0 -1.854,0.831 -1.854,1.854 v 17.334 c 0,1.023 0.831,1.853 1.854,1.853 h 3.707 c 1.023,0 1.853,-0.83 1.853,-1.853 z"
   style="fill:#6a351d;fill-opacity:1"
   id="path21085" />
                    </g>
                </g>
                <g
   id="g21099"
   style="fill:#6a351d;fill-opacity:1">
                    <g
   transform="matrix(-0.799213,-0.0841803,-0.0841803,0.799213,215.611,83.8853)"
   id="g21093"
   style="fill:#6a351d;fill-opacity:1">
                        <path
   d="m 209.655,321.813 c 0,-1.023 -0.83,-1.854 -1.853,-1.854 h -3.707 c -1.023,0 -1.854,0.831 -1.854,1.854 v 17.334 c 0,1.023 0.831,1.853 1.854,1.853 h 3.707 c 1.023,0 1.853,-0.83 1.853,-1.853 z"
   style="fill:#6a351d;fill-opacity:1"
   id="path21091" />
                    </g>
                    <g
   transform="matrix(-0.799213,-0.0841803,-0.0841803,0.799213,214.841,83.8041)"
   id="g21097"
   style="fill:#6a351d;fill-opacity:1">
                        <path
   d="m 209.655,321.813 c 0,-1.023 -0.83,-1.854 -1.853,-1.854 h -3.707 c -1.023,0 -1.854,0.831 -1.854,1.854 v 17.334 c 0,1.023 0.831,1.853 1.854,1.853 h 3.707 c 1.023,0 1.853,-0.83 1.853,-1.853 z"
   style="fill:#6a351d;fill-opacity:1"
   id="path21095" />
                    </g>
                </g>
                <g
   id="g21109"
   style="fill:#6a351d;fill-opacity:1">
                    <g
   transform="matrix(-0.780195,-0.192676,-0.13033,0.527738,219.081,193.108)"
   id="g21103"
   style="fill:#6a351d;fill-opacity:1">
                        <path
   d="m 209.655,322.699 c 0,-1.512 -0.83,-2.74 -1.853,-2.74 h -3.707 c -1.023,0 -1.854,1.228 -1.854,2.74 v 15.561 c 0,1.513 0.831,2.74 1.854,2.74 h 3.707 c 1.023,0 1.853,-1.227 1.853,-2.74 z"
   style="fill:#6a351d;fill-opacity:1"
   id="path21101" />
                    </g>
                    <g
   transform="matrix(-0.780195,-0.192676,-0.13033,0.527738,218.329,192.922)"
   id="g21107"
   style="fill:#6a351d;fill-opacity:1">
                        <path
   d="m 209.655,322.699 c 0,-1.512 -0.83,-2.74 -1.853,-2.74 h -3.707 c -1.023,0 -1.854,1.228 -1.854,2.74 v 15.561 c 0,1.513 0.831,2.74 1.854,2.74 h 3.707 c 1.023,0 1.853,-1.227 1.853,-2.74 z"
   style="fill:#6a351d;fill-opacity:1"
   id="path21105" />
                    </g>
                </g>
            </g><g
     id="g21115"
     transform="translate(-0.1825,-5.6255493e-5)"
     style="clip-rule:evenodd;fill-rule:evenodd;stroke-linecap:round">
                <path
   d="m 297.443,321.945 c -16.719,6.534 -42.32,4.289 -63.097,-5.527 l -50.915,10.044 c -0.13,0.026 -0.259,0.038 -0.387,0.038 v -2 l 3.166,-2.663 48.666,-9.601 0.601,0.289 c 19.904,9.589 44.637,12.018 60.621,5.657 0.833,0.122 1.675,0.224 2.525,0.304 -0.336,1.179 -0.731,2.334 -1.18,3.459 z"
   style="fill:#3c2313;fill-opacity:1"
   id="path21113" />
            </g><path
     d="m 274.3655,319.95794 c 0.675,0.004 1.346,-0.002 2.015,-0.017 0.276,-0.006 0.494,-0.235 0.488,-0.511 -0.006,-0.276 -0.235,-0.495 -0.511,-0.489 -0.659,0.015 -1.321,0.021 -1.986,0.017 -0.276,-0.002 -0.501,0.221 -0.503,0.497 -10e-4,0.276 0.221,0.501 0.497,0.503 z m -4.024,-0.136 c 0.672,0.041 1.343,0.073 2.011,0.095 0.276,0.01 0.507,-0.207 0.517,-0.482 0.009,-0.276 -0.207,-0.508 -0.483,-0.517 -0.659,-0.022 -1.321,-0.054 -1.984,-0.094 -0.276,-0.017 -0.513,0.193 -0.53,0.468 -0.017,0.276 0.193,0.513 0.469,0.53 z m -80.626,-1.075 -0.94,0.79 c 0.084,0.235 0.333,0.376 0.582,0.318 0,0 0.709,-0.163 1.949,-0.448 0.269,-0.062 0.438,-0.33 0.376,-0.599 -0.062,-0.269 -0.331,-0.437 -0.6,-0.375 z m 88.678,1.118 c 0.674,-0.036 1.345,-0.082 2.011,-0.138 0.275,-0.023 0.479,-0.265 0.456,-0.54 -0.023,-0.275 -0.265,-0.48 -0.54,-0.456 -0.656,0.055 -1.316,0.1 -1.98,0.135 -0.275,0.015 -0.487,0.25 -0.473,0.526 0.015,0.276 0.251,0.487 0.526,0.473 z m -12.062,-0.392 c 0.669,0.075 1.336,0.142 2.002,0.2 0.275,0.024 0.518,-0.18 0.542,-0.455 0.024,-0.275 -0.18,-0.517 -0.455,-0.541 -0.657,-0.058 -1.317,-0.124 -1.977,-0.198 -0.275,-0.031 -0.522,0.167 -0.553,0.441 -0.031,0.274 0.166,0.522 0.441,0.553 z m 16.079,0.052 c 0.671,-0.078 1.337,-0.168 1.999,-0.268 0.273,-0.041 0.461,-0.296 0.419,-0.569 -0.041,-0.273 -0.296,-0.461 -0.569,-0.419 -0.65,0.098 -1.306,0.186 -1.965,0.263 -0.274,0.032 -0.471,0.281 -0.439,0.555 0.032,0.274 0.281,0.471 0.555,0.438 z m -20.066,-0.601 c 0.665,0.108 1.328,0.207 1.99,0.299 0.273,0.037 0.526,-0.154 0.564,-0.428 0.037,-0.273 -0.154,-0.525 -0.428,-0.563 -0.654,-0.09 -1.309,-0.188 -1.966,-0.295 -0.272,-0.044 -0.529,0.141 -0.573,0.414 -0.044,0.272 0.141,0.529 0.413,0.573 z m -69.088,0.035 c 0.595,-0.137 1.247,-0.287 1.949,-0.449 0.269,-0.061 0.437,-0.33 0.375,-0.599 -0.062,-0.269 -0.331,-0.437 -0.6,-0.375 -0.701,0.161 -1.353,0.311 -1.949,0.448 -0.269,0.062 -0.437,0.331 -0.375,0.6 0.062,0.268 0.331,0.437 0.6,0.375 z m 93.142,-0.039 c 0.664,-0.125 1.323,-0.261 1.977,-0.409 0.269,-0.061 0.438,-0.329 0.377,-0.598 -0.061,-0.269 -0.329,-0.438 -0.598,-0.377 -0.642,0.145 -1.288,0.279 -1.941,0.401 -0.271,0.051 -0.45,0.313 -0.399,0.584 0.051,0.271 0.313,0.45 0.584,0.399 z m -28.009,-0.732 c 0.659,0.138 1.316,0.269 1.974,0.391 0.271,0.051 0.532,-0.129 0.583,-0.4 0.05,-0.271 -0.129,-0.533 -0.4,-0.583 -0.65,-0.121 -1.3,-0.25 -1.951,-0.386 -0.27,-0.057 -0.536,0.116 -0.592,0.386 -0.057,0.27 0.116,0.536 0.386,0.592 z m -61.235,-0.126 c 0.624,-0.144 1.275,-0.293 1.949,-0.448 0.269,-0.062 0.437,-0.331 0.375,-0.6 -0.062,-0.269 -0.33,-0.437 -0.599,-0.375 -0.674,0.155 -1.325,0.305 -1.949,0.448 -0.269,0.062 -0.437,0.331 -0.376,0.6 0.062,0.269 0.331,0.437 0.6,0.375 z m 93.109,-1.05 c 0.639,0.172 1.285,0.332 1.936,0.48 -0.615,0.19 -1.237,0.369 -1.864,0.536 -0.267,0.071 -0.541,-0.087 -0.612,-0.354 -0.071,-0.267 0.087,-0.541 0.354,-0.612 0.062,-0.017 0.124,-0.033 0.186,-0.05 z m -35.79,0.263 c 0.651,0.167 1.302,0.327 1.953,0.478 0.269,0.063 0.538,-0.104 0.6,-0.373 0.063,-0.269 -0.104,-0.538 -0.373,-0.601 -0.644,-0.15 -1.288,-0.307 -1.932,-0.472 -0.267,-0.069 -0.54,0.092 -0.608,0.36 -0.069,0.267 0.093,0.54 0.36,0.608 z m -53.421,-0.11 c 0.636,-0.146 1.286,-0.296 1.949,-0.448 0.269,-0.062 0.437,-0.33 0.375,-0.599 -0.062,-0.269 -0.33,-0.437 -0.599,-0.376 -0.663,0.153 -1.314,0.303 -1.949,0.449 -0.269,0.062 -0.437,0.33 -0.375,0.599 0.062,0.269 0.33,0.437 0.599,0.375 z m 49.548,-0.972 c 0.643,0.195 1.287,0.382 1.931,0.562 0.265,0.074 0.541,-0.081 0.616,-0.347 0.074,-0.266 -0.082,-0.542 -0.347,-0.616 -0.637,-0.178 -1.274,-0.363 -1.911,-0.556 -0.264,-0.08 -0.543,0.07 -0.623,0.334 -0.08,0.264 0.07,0.544 0.334,0.623 z m -45.65,0.076 c 0.642,-0.148 1.293,-0.298 1.949,-0.449 0.269,-0.062 0.437,-0.33 0.375,-0.599 -0.061,-0.269 -0.33,-0.437 -0.599,-0.375 -0.656,0.151 -1.307,0.3 -1.949,0.448 -0.269,0.062 -0.437,0.33 -0.375,0.599 0.062,0.269 0.33,0.437 0.599,0.376 z m 41.827,-1.319 c 0.634,0.221 1.269,0.435 1.905,0.642 0.262,0.085 0.545,-0.059 0.63,-0.321 0.085,-0.263 -0.058,-0.545 -0.321,-0.63 -0.629,-0.205 -1.258,-0.417 -1.886,-0.635 -0.26,-0.091 -0.545,0.047 -0.636,0.308 -0.091,0.26 0.047,0.545 0.308,0.636 z m -37.929,0.422 c 0.647,-0.149 1.298,-0.299 1.949,-0.448 0.269,-0.062 0.438,-0.331 0.376,-0.6 -0.062,-0.269 -0.331,-0.437 -0.6,-0.375 -0.651,0.15 -1.302,0.299 -1.949,0.448 -0.269,0.062 -0.437,0.331 -0.375,0.6 0.062,0.269 0.33,0.437 0.599,0.375 z m 3.899,-0.897 c 0.651,-0.15 1.301,-0.299 1.949,-0.448 0.269,-0.062 0.437,-0.331 0.375,-0.6 -0.062,-0.268 -0.331,-0.437 -0.599,-0.375 -0.648,0.149 -1.298,0.299 -1.95,0.449 -0.269,0.061 -0.437,0.33 -0.375,0.599 0.062,0.269 0.331,0.437 0.6,0.375 z m 30.261,-0.923 c 0.624,0.246 1.25,0.485 1.877,0.718 0.259,0.096 0.547,-0.036 0.643,-0.295 0.096,-0.258 -0.036,-0.546 -0.295,-0.642 -0.621,-0.231 -1.24,-0.468 -1.858,-0.712 -0.257,-0.101 -0.548,0.025 -0.649,0.282 -0.101,0.257 0.025,0.547 0.282,0.649 z m -26.363,0.026 c 0.656,-0.151 1.307,-0.3 1.949,-0.448 0.269,-0.062 0.437,-0.33 0.375,-0.599 -0.062,-0.269 -0.33,-0.437 -0.599,-0.375 -0.643,0.147 -1.293,0.297 -1.949,0.448 -0.269,0.062 -0.437,0.33 -0.376,0.599 0.062,0.269 0.331,0.437 0.6,0.375 z m 22.654,-1.575 c 0.613,0.27 1.229,0.535 1.846,0.793 0.255,0.106 0.548,-0.014 0.655,-0.269 0.106,-0.255 -0.015,-0.548 -0.269,-0.654 -0.611,-0.255 -1.221,-0.517 -1.829,-0.785 -0.252,-0.112 -0.548,0.003 -0.659,0.255 -0.111,0.253 0.003,0.548 0.256,0.66 z m -18.756,0.679 c 0.663,-0.153 1.313,-0.302 1.949,-0.449 0.269,-0.061 0.437,-0.33 0.375,-0.599 -0.062,-0.269 -0.33,-0.437 -0.599,-0.375 -0.636,0.146 -1.287,0.296 -1.949,0.448 -0.269,0.062 -0.437,0.331 -0.375,0.6 0.061,0.268 0.33,0.437 0.599,0.375 z m 3.898,-0.897 c 0.673,-0.155 1.324,-0.305 1.949,-0.448 0.269,-0.062 0.437,-0.331 0.375,-0.6 -0.061,-0.269 -0.33,-0.437 -0.599,-0.375 -0.625,0.144 -1.276,0.294 -1.949,0.448 -0.269,0.062 -0.437,0.331 -0.375,0.6 0.062,0.269 0.33,0.437 0.599,0.375 z m 11.213,-1.478 c 0.602,0.295 1.207,0.584 1.814,0.866 0.25,0.116 0.548,0.008 0.664,-0.242 0.117,-0.251 0.008,-0.548 -0.242,-0.665 -0.601,-0.279 -1.2,-0.565 -1.796,-0.857 -0.248,-0.121 -0.548,-0.018 -0.669,0.229 -0.122,0.248 -0.019,0.548 0.229,0.669 z m -7.315,0.581 c 0.7,-0.161 1.352,-0.311 1.949,-0.448 0.269,-0.062 0.438,-0.33 0.376,-0.599 -0.062,-0.269 -0.331,-0.437 -0.6,-0.376 -0.597,0.138 -1.249,0.288 -1.949,0.449 -0.269,0.062 -0.437,0.33 -0.375,0.599 0.062,0.269 0.33,0.437 0.599,0.375 z m 3.899,-0.896 c 0.997,-0.23 1.675,-0.386 1.949,-0.449 0.269,-0.062 0.437,-0.33 0.375,-0.599 -0.062,-0.269 -0.331,-0.437 -0.6,-0.375 -0.273,0.063 -0.951,0.219 -1.949,0.448 -0.269,0.062 -0.437,0.33 -0.375,0.599 0.062,0.269 0.331,0.437 0.6,0.376 z"
     style="clip-rule:evenodd;fill:#3c2313;fill-opacity:1;fill-rule:evenodd;stroke-linecap:round"
     id="path21117" /><path
     d="m 34.79691,298.38994 c -0.094,0 -0.187,0 -0.281,-0.001 -5.981,10.843 -18.469,18.694 -33.313,20.097 4.343,15.228 18.458,26.514 35.003,26.514 h 80.576 v -20.5 l -31.108,-26.11 z"
     style="clip-rule:evenodd;fill:#84582b;fill-opacity:1;fill-rule:nonzero;stroke-linecap:round"
     id="path21123" /><g
     id="g21257"
     transform="translate(-1.58309,-5.6255493e-5)"
     style="clip-rule:evenodd;fill:#6a351d;fill-opacity:1;fill-rule:evenodd;stroke-linecap:round">
                <g
   id="g21135"
   style="fill:#6a351d;fill-opacity:1">
                    <g
   transform="matrix(-0.800711,-0.0684753,-0.0684753,0.800711,299.45,80.775)"
   id="g21129"
   style="fill:#6a351d;fill-opacity:1">
                        <path
   d="m 209.655,321.813 c 0,-1.023 -0.83,-1.854 -1.853,-1.854 h -3.707 c -1.023,0 -1.854,0.831 -1.854,1.854 v 17.334 c 0,1.023 0.831,1.853 1.854,1.853 h 3.707 c 1.023,0 1.853,-0.83 1.853,-1.853 z"
   style="fill:#6a351d;fill-opacity:1"
   id="path21127" />
                    </g>
                    <g
   transform="matrix(-0.800711,-0.0684753,-0.0684753,0.800711,298.678,80.709)"
   id="g21133"
   style="fill:#6a351d;fill-opacity:1">
                        <path
   d="m 209.655,321.813 c 0,-1.023 -0.83,-1.854 -1.853,-1.854 h -3.707 c -1.023,0 -1.854,0.831 -1.854,1.854 v 17.334 c 0,1.023 0.831,1.853 1.854,1.853 h 3.707 c 1.023,0 1.853,-0.83 1.853,-1.853 z"
   style="fill:#6a351d;fill-opacity:1"
   id="path21131" />
                    </g>
                </g>
                <g
   id="g21145"
   style="fill:#6a351d;fill-opacity:1">
                    <g
   transform="matrix(-0.794746,-0.119192,-0.119192,0.794746,307.46,92.2414)"
   id="g21139"
   style="fill:#6a351d;fill-opacity:1">
                        <path
   d="m 209.655,321.813 c 0,-1.023 -0.83,-1.854 -1.853,-1.854 h -3.707 c -1.023,0 -1.854,0.831 -1.854,1.854 v 17.334 c 0,1.023 0.831,1.853 1.854,1.853 h 3.707 c 1.023,0 1.853,-0.83 1.853,-1.853 z"
   style="fill:#6a351d;fill-opacity:1"
   id="path21137" />
                    </g>
                    <g
   transform="matrix(-0.794746,-0.119192,-0.119192,0.794746,306.694,92.1265)"
   id="g21143"
   style="fill:#6a351d;fill-opacity:1">
                        <path
   d="m 209.655,321.813 c 0,-1.023 -0.83,-1.854 -1.853,-1.854 h -3.707 c -1.023,0 -1.854,0.831 -1.854,1.854 v 17.334 c 0,1.023 0.831,1.853 1.854,1.853 h 3.707 c 1.023,0 1.853,-0.83 1.853,-1.853 z"
   style="fill:#6a351d;fill-opacity:1"
   id="path21141" />
                    </g>
                </g>
                <g
   id="g21155"
   style="fill:#6a351d;fill-opacity:1">
                    <g
   transform="matrix(-0.802933,-0.0335634,-0.0335634,0.802933,272.817,70.9917)"
   id="g21149"
   style="fill:#6a351d;fill-opacity:1">
                        <path
   d="m 209.655,321.813 c 0,-1.023 -0.83,-1.854 -1.853,-1.854 h -3.707 c -1.023,0 -1.854,0.831 -1.854,1.854 v 17.334 c 0,1.023 0.831,1.853 1.854,1.853 h 3.707 c 1.023,0 1.853,-0.83 1.853,-1.853 z"
   style="fill:#6a351d;fill-opacity:1"
   id="path21147" />
                    </g>
                    <g
   transform="matrix(-0.802933,-0.0335634,-0.0335634,0.802933,272.042,70.9593)"
   id="g21153"
   style="fill:#6a351d;fill-opacity:1">
                        <path
   d="m 209.655,321.813 c 0,-1.023 -0.83,-1.854 -1.853,-1.854 h -3.707 c -1.023,0 -1.854,0.831 -1.854,1.854 v 17.334 c 0,1.023 0.831,1.853 1.854,1.853 h 3.707 c 1.023,0 1.853,-0.83 1.853,-1.853 z"
   style="fill:#6a351d;fill-opacity:1"
   id="path21151" />
                    </g>
                </g>
                <g
   id="g21165"
   style="fill:#6a351d;fill-opacity:1">
                    <g
   transform="matrix(-0.802933,-0.0335634,-0.0335634,0.802933,265.505,68.6297)"
   id="g21159"
   style="fill:#6a351d;fill-opacity:1">
                        <path
   d="m 209.655,321.813 c 0,-1.023 -0.83,-1.854 -1.853,-1.854 h -3.707 c -1.023,0 -1.854,0.831 -1.854,1.854 v 17.334 c 0,1.023 0.831,1.853 1.854,1.853 h 3.707 c 1.023,0 1.853,-0.83 1.853,-1.853 z"
   style="fill:#6a351d;fill-opacity:1"
   id="path21157" />
                    </g>
                    <g
   transform="matrix(-0.802933,-0.0335634,-0.0335634,0.802933,264.731,68.5973)"
   id="g21163"
   style="fill:#6a351d;fill-opacity:1">
                        <path
   d="m 209.655,321.813 c 0,-1.023 -0.83,-1.854 -1.853,-1.854 h -3.707 c -1.023,0 -1.854,0.831 -1.854,1.854 v 17.334 c 0,1.023 0.831,1.853 1.854,1.853 h 3.707 c 1.023,0 1.853,-0.83 1.853,-1.853 z"
   style="fill:#6a351d;fill-opacity:1"
   id="path21161" />
                    </g>
                </g>
                <g
   id="g21175"
   style="fill:#6a351d;fill-opacity:1">
                    <g
   transform="matrix(-0.793637,-0.126366,-0.126366,0.793637,286.181,89.4733)"
   id="g21169"
   style="fill:#6a351d;fill-opacity:1">
                        <path
   d="m 209.655,321.813 c 0,-1.023 -0.83,-1.854 -1.853,-1.854 h -3.707 c -1.023,0 -1.854,0.831 -1.854,1.854 v 17.334 c 0,1.023 0.831,1.853 1.854,1.853 h 3.707 c 1.023,0 1.853,-0.83 1.853,-1.853 z"
   style="fill:#6a351d;fill-opacity:1"
   id="path21167" />
                    </g>
                    <g
   transform="matrix(-0.793637,-0.126366,-0.126366,0.793637,285.416,89.3514)"
   id="g21173"
   style="fill:#6a351d;fill-opacity:1">
                        <path
   d="m 209.655,321.813 c 0,-1.023 -0.83,-1.854 -1.853,-1.854 h -3.707 c -1.023,0 -1.854,0.831 -1.854,1.854 v 17.334 c 0,1.023 0.831,1.853 1.854,1.853 h 3.707 c 1.023,0 1.853,-0.83 1.853,-1.853 z"
   style="fill:#6a351d;fill-opacity:1"
   id="path21171" />
                    </g>
                </g>
                <g
   id="g21185"
   style="fill:#6a351d;fill-opacity:1">
                    <g
   transform="matrix(-0.799586,-0.0805596,-0.0805596,0.799586,264.159,76.5088)"
   id="g21179"
   style="fill:#6a351d;fill-opacity:1">
                        <path
   d="m 209.655,321.813 c 0,-1.023 -0.83,-1.854 -1.853,-1.854 h -3.707 c -1.023,0 -1.854,0.831 -1.854,1.854 v 17.334 c 0,1.023 0.831,1.853 1.854,1.853 h 3.707 c 1.023,0 1.853,-0.83 1.853,-1.853 z"
   style="fill:#6a351d;fill-opacity:1"
   id="path21177" />
                    </g>
                    <g
   transform="matrix(-0.799586,-0.0805596,-0.0805596,0.799586,263.388,76.4312)"
   id="g21183"
   style="fill:#6a351d;fill-opacity:1">
                        <path
   d="m 209.655,321.813 c 0,-1.023 -0.83,-1.854 -1.853,-1.854 h -3.707 c -1.023,0 -1.854,0.831 -1.854,1.854 v 17.334 c 0,1.023 0.831,1.853 1.854,1.853 h 3.707 c 1.023,0 1.853,-0.83 1.853,-1.853 z"
   style="fill:#6a351d;fill-opacity:1"
   id="path21181" />
                    </g>
                </g>
                <g
   id="g21195"
   style="fill:#6a351d;fill-opacity:1">
                    <g
   transform="matrix(-0.802767,0.037329,0.037329,0.802767,217.316,50.3989)"
   id="g21189"
   style="fill:#6a351d;fill-opacity:1">
                        <path
   d="m 209.655,321.813 c 0,-1.023 -0.83,-1.854 -1.853,-1.854 h -3.707 c -1.023,0 -1.854,0.831 -1.854,1.854 v 17.334 c 0,1.023 0.831,1.853 1.854,1.853 h 3.707 c 1.023,0 1.853,-0.83 1.853,-1.853 z"
   style="fill:#6a351d;fill-opacity:1"
   id="path21187" />
                    </g>
                    <g
   transform="matrix(-0.802767,0.037329,0.037329,0.802767,216.542,50.4349)"
   id="g21193"
   style="fill:#6a351d;fill-opacity:1">
                        <path
   d="m 209.655,321.813 c 0,-1.023 -0.83,-1.854 -1.853,-1.854 h -3.707 c -1.023,0 -1.854,0.831 -1.854,1.854 v 17.334 c 0,1.023 0.831,1.853 1.854,1.853 h 3.707 c 1.023,0 1.853,-0.83 1.853,-1.853 z"
   style="fill:#6a351d;fill-opacity:1"
   id="path21191" />
                    </g>
                </g>
                <g
   id="g21205"
   style="fill:#6a351d;fill-opacity:1">
                    <g
   transform="matrix(-0.788531,-0.155071,-0.155071,0.788531,269.39,97.1896)"
   id="g21199"
   style="fill:#6a351d;fill-opacity:1">
                        <path
   d="m 209.655,321.813 c 0,-1.023 -0.83,-1.854 -1.853,-1.854 h -3.707 c -1.023,0 -1.854,0.831 -1.854,1.854 v 17.334 c 0,1.023 0.831,1.853 1.854,1.853 h 3.707 c 1.023,0 1.853,-0.83 1.853,-1.853 z"
   style="fill:#6a351d;fill-opacity:1"
   id="path21197" />
                    </g>
                    <g
   transform="matrix(-0.788531,-0.155071,-0.155071,0.788531,268.63,97.0401)"
   id="g21203"
   style="fill:#6a351d;fill-opacity:1">
                        <path
   d="m 209.655,321.813 c 0,-1.023 -0.83,-1.854 -1.853,-1.854 h -3.707 c -1.023,0 -1.854,0.831 -1.854,1.854 v 17.334 c 0,1.023 0.831,1.853 1.854,1.853 h 3.707 c 1.023,0 1.853,-0.83 1.853,-1.853 z"
   style="fill:#6a351d;fill-opacity:1"
   id="path21201" />
                    </g>
                </g>
                <g
   id="g21215"
   style="fill:#6a351d;fill-opacity:1">
                    <g
   transform="matrix(-0.80207,-0.0501135,-0.0501135,0.80207,229.293,74.0103)"
   id="g21209"
   style="fill:#6a351d;fill-opacity:1">
                        <path
   d="m 209.655,321.813 c 0,-1.023 -0.83,-1.854 -1.853,-1.854 h -3.707 c -1.023,0 -1.854,0.831 -1.854,1.854 v 17.334 c 0,1.023 0.831,1.853 1.854,1.853 h 3.707 c 1.023,0 1.853,-0.83 1.853,-1.853 z"
   style="fill:#6a351d;fill-opacity:1"
   id="path21207" />
                    </g>
                    <g
   transform="matrix(-0.80207,-0.0501135,-0.0501135,0.80207,228.519,73.962)"
   id="g21213"
   style="fill:#6a351d;fill-opacity:1">
                        <path
   d="m 209.655,321.813 c 0,-1.023 -0.83,-1.854 -1.853,-1.854 h -3.707 c -1.023,0 -1.854,0.831 -1.854,1.854 v 17.334 c 0,1.023 0.831,1.853 1.854,1.853 h 3.707 c 1.023,0 1.853,-0.83 1.853,-1.853 z"
   style="fill:#6a351d;fill-opacity:1"
   id="path21211" />
                    </g>
                </g>
                <g
   id="g21225"
   style="fill:#6a351d;fill-opacity:1">
                    <g
   transform="matrix(-0.803603,-0.00701304,-0.00701304,0.803603,207.482,66.5114)"
   id="g21219"
   style="fill:#6a351d;fill-opacity:1">
                        <path
   d="m 209.655,321.813 c 0,-1.023 -0.83,-1.854 -1.853,-1.854 h -3.707 c -1.023,0 -1.854,0.831 -1.854,1.854 v 17.334 c 0,1.023 0.831,1.853 1.854,1.853 h 3.707 c 1.023,0 1.853,-0.83 1.853,-1.853 z"
   style="fill:#6a351d;fill-opacity:1"
   id="path21217" />
                    </g>
                    <g
   transform="matrix(-0.803603,-0.00701304,-0.00701304,0.803603,206.707,66.5047)"
   id="g21223"
   style="fill:#6a351d;fill-opacity:1">
                        <path
   d="m 209.655,321.813 c 0,-1.023 -0.83,-1.854 -1.853,-1.854 h -3.707 c -1.023,0 -1.854,0.831 -1.854,1.854 v 17.334 c 0,1.023 0.831,1.853 1.854,1.853 h 3.707 c 1.023,0 1.853,-0.83 1.853,-1.853 z"
   style="fill:#6a351d;fill-opacity:1"
   id="path21221" />
                    </g>
                </g>
                <g
   id="g21235"
   style="fill:#6a351d;fill-opacity:1">
                    <g
   transform="matrix(-0.803603,-0.00701304,-0.00701304,0.803603,199.46,66.5182)"
   id="g21229"
   style="fill:#6a351d;fill-opacity:1">
                        <path
   d="m 209.655,321.813 c 0,-1.023 -0.83,-1.854 -1.853,-1.854 h -3.707 c -1.023,0 -1.854,0.831 -1.854,1.854 v 17.334 c 0,1.023 0.831,1.853 1.854,1.853 h 3.707 c 1.023,0 1.853,-0.83 1.853,-1.853 z"
   style="fill:#6a351d;fill-opacity:1"
   id="path21227" />
                    </g>
                    <g
   transform="matrix(-0.803603,-0.00701304,-0.00701304,0.803603,198.686,66.5114)"
   id="g21233"
   style="fill:#6a351d;fill-opacity:1">
                        <path
   d="m 209.655,321.813 c 0,-1.023 -0.83,-1.854 -1.853,-1.854 h -3.707 c -1.023,0 -1.854,0.831 -1.854,1.854 v 17.334 c 0,1.023 0.831,1.853 1.854,1.853 h 3.707 c 1.023,0 1.853,-0.83 1.853,-1.853 z"
   style="fill:#6a351d;fill-opacity:1"
   id="path21231" />
                    </g>
                </g>
                <g
   id="g21245"
   style="fill:#6a351d;fill-opacity:1">
                    <g
   transform="matrix(-0.799213,-0.0841803,-0.0841803,0.799213,215.611,83.8853)"
   id="g21239"
   style="fill:#6a351d;fill-opacity:1">
                        <path
   d="m 209.655,321.813 c 0,-1.023 -0.83,-1.854 -1.853,-1.854 h -3.707 c -1.023,0 -1.854,0.831 -1.854,1.854 v 17.334 c 0,1.023 0.831,1.853 1.854,1.853 h 3.707 c 1.023,0 1.853,-0.83 1.853,-1.853 z"
   style="fill:#6a351d;fill-opacity:1"
   id="path21237" />
                    </g>
                    <g
   transform="matrix(-0.799213,-0.0841803,-0.0841803,0.799213,214.841,83.8041)"
   id="g21243"
   style="fill:#6a351d;fill-opacity:1">
                        <path
   d="m 209.655,321.813 c 0,-1.023 -0.83,-1.854 -1.853,-1.854 h -3.707 c -1.023,0 -1.854,0.831 -1.854,1.854 v 17.334 c 0,1.023 0.831,1.853 1.854,1.853 h 3.707 c 1.023,0 1.853,-0.83 1.853,-1.853 z"
   style="fill:#6a351d;fill-opacity:1"
   id="path21241" />
                    </g>
                </g>
                <g
   id="g21255"
   style="fill:#6a351d;fill-opacity:1">
                    <g
   transform="matrix(-0.780195,-0.192676,-0.13033,0.527738,219.081,193.108)"
   id="g21249"
   style="fill:#6a351d;fill-opacity:1">
                        <path
   d="m 209.655,322.699 c 0,-1.512 -0.83,-2.74 -1.853,-2.74 h -3.707 c -1.023,0 -1.854,1.228 -1.854,2.74 v 15.561 c 0,1.513 0.831,2.74 1.854,2.74 h 3.707 c 1.023,0 1.853,-1.227 1.853,-2.74 z"
   style="fill:#6a351d;fill-opacity:1"
   id="path21247" />
                    </g>
                    <g
   transform="matrix(-0.780195,-0.192676,-0.13033,0.527738,218.329,192.922)"
   id="g21253"
   style="fill:#6a351d;fill-opacity:1">
                        <path
   d="m 209.655,322.699 c 0,-1.512 -0.83,-2.74 -1.853,-2.74 h -3.707 c -1.023,0 -1.854,1.228 -1.854,2.74 v 15.561 c 0,1.513 0.831,2.74 1.854,2.74 h 3.707 c 1.023,0 1.853,-1.227 1.853,-2.74 z"
   style="fill:#6a351d;fill-opacity:1"
   id="path21251" />
                    </g>
                </g>
            </g><g
     transform="matrix(-1,0,0,1,299.82591,-5.6255493e-5)"
     id="g21261"
     style="clip-rule:evenodd;fill-rule:evenodd;stroke-linecap:round">
                <path
   d="m 297.443,321.945 c -16.719,6.534 -42.32,4.289 -63.097,-5.527 l -50.915,10.044 c -0.13,0.026 -0.259,0.038 -0.387,0.038 v -2 l 3.166,-2.663 48.666,-9.601 0.601,0.289 c 19.904,9.589 44.637,12.018 60.621,5.657 0.833,0.122 1.675,0.224 2.525,0.304 -0.336,1.179 -0.731,2.334 -1.18,3.459 z"
   style="fill:#3c2313;fill-opacity:1"
   id="path21259" />
            </g><path
     d="m 25.27791,319.95794 c -0.675,0.004 -1.346,-0.002 -2.015,-0.017 -0.276,-0.006 -0.494,-0.235 -0.488,-0.511 0.006,-0.276 0.235,-0.495 0.511,-0.489 0.659,0.015 1.321,0.021 1.986,0.017 0.276,-0.002 0.501,0.221 0.503,0.497 0.001,0.276 -0.221,0.501 -0.497,0.503 z m 4.024,-0.136 c -0.672,0.041 -1.343,0.073 -2.011,0.095 -0.276,0.01 -0.507,-0.207 -0.517,-0.482 -0.009,-0.276 0.207,-0.508 0.483,-0.517 0.659,-0.022 1.321,-0.054 1.984,-0.094 0.276,-0.017 0.513,0.193 0.53,0.468 0.017,0.276 -0.193,0.513 -0.469,0.53 z m 80.626,-1.075 0.94,0.79 c -0.084,0.235 -0.333,0.376 -0.582,0.318 0,0 -0.709,-0.163 -1.949,-0.448 -0.269,-0.062 -0.438,-0.33 -0.376,-0.599 0.062,-0.269 0.331,-0.437 0.6,-0.375 z m -88.678,1.118 c -0.674,-0.036 -1.345,-0.082 -2.011,-0.138 -0.275,-0.023 -0.479,-0.265 -0.456,-0.54 0.023,-0.275 0.265,-0.48 0.54,-0.456 0.656,0.055 1.316,0.1 1.98,0.135 0.275,0.015 0.487,0.25 0.473,0.526 -0.015,0.276 -0.251,0.487 -0.526,0.473 z m 12.062,-0.392 c -0.669,0.075 -1.336,0.142 -2.002,0.2 -0.275,0.024 -0.518,-0.18 -0.542,-0.455 -0.024,-0.275 0.18,-0.517 0.455,-0.541 0.657,-0.058 1.317,-0.124 1.977,-0.198 0.275,-0.031 0.522,0.167 0.553,0.441 0.031,0.274 -0.166,0.522 -0.441,0.553 z m -16.079,0.052 c -0.671,-0.078 -1.337,-0.168 -1.999,-0.268 -0.273,-0.041 -0.461,-0.296 -0.419,-0.569 0.041,-0.273 0.296,-0.461 0.569,-0.419 0.65,0.098 1.306,0.186 1.965,0.263 0.274,0.032 0.471,0.281 0.439,0.555 -0.032,0.274 -0.281,0.471 -0.555,0.438 z m 20.066,-0.601 c -0.665,0.108 -1.328,0.207 -1.99,0.299 -0.273,0.037 -0.526,-0.154 -0.564,-0.428 -0.037,-0.273 0.154,-0.525 0.428,-0.563 0.654,-0.09 1.309,-0.188 1.966,-0.295 0.272,-0.044 0.529,0.141 0.573,0.414 0.044,0.272 -0.141,0.529 -0.413,0.573 z m 69.088,0.035 c -0.595,-0.137 -1.247,-0.287 -1.949,-0.449 -0.269,-0.061 -0.437,-0.33 -0.375,-0.599 0.062,-0.269 0.331,-0.437 0.6,-0.375 0.701,0.161 1.353,0.311 1.949,0.448 0.269,0.062 0.437,0.331 0.375,0.6 -0.062,0.268 -0.331,0.437 -0.6,0.375 z m -93.142,-0.039 c -0.664,-0.125 -1.323,-0.261 -1.977,-0.409 -0.269,-0.061 -0.438,-0.329 -0.377,-0.598 0.061,-0.269 0.329,-0.438 0.598,-0.377 0.642,0.145 1.288,0.279 1.941,0.401 0.271,0.051 0.45,0.313 0.399,0.584 -0.051,0.271 -0.313,0.45 -0.584,0.399 z m 28.009,-0.732 c -0.659,0.138 -1.316,0.269 -1.974,0.391 -0.271,0.051 -0.532,-0.129 -0.583,-0.4 -0.05,-0.271 0.129,-0.533 0.4,-0.583 0.65,-0.121 1.3,-0.25 1.951,-0.386 0.27,-0.057 0.536,0.116 0.592,0.386 0.057,0.27 -0.116,0.536 -0.386,0.592 z m 61.235,-0.126 c -0.624,-0.144 -1.275,-0.293 -1.949,-0.448 -0.269,-0.062 -0.437,-0.331 -0.375,-0.6 0.062,-0.269 0.33,-0.437 0.599,-0.375 0.674,0.155 1.325,0.305 1.949,0.448 0.269,0.062 0.437,0.331 0.376,0.6 -0.062,0.269 -0.331,0.437 -0.6,0.375 z m -93.109,-1.05 c -0.639,0.172 -1.285,0.332 -1.936,0.48 0.615,0.19 1.237,0.369 1.864,0.536 0.267,0.071 0.541,-0.087 0.612,-0.354 0.071,-0.267 -0.087,-0.541 -0.354,-0.612 -0.062,-0.017 -0.124,-0.033 -0.186,-0.05 z m 35.79,0.263 c -0.651,0.167 -1.302,0.327 -1.953,0.478 -0.269,0.063 -0.538,-0.104 -0.6,-0.373 -0.063,-0.269 0.104,-0.538 0.373,-0.601 0.644,-0.15 1.288,-0.307 1.932,-0.472 0.267,-0.069 0.54,0.092 0.608,0.36 0.069,0.267 -0.093,0.54 -0.36,0.608 z m 53.421,-0.11 c -0.636,-0.146 -1.286,-0.296 -1.949,-0.448 -0.269,-0.062 -0.437,-0.33 -0.375,-0.599 0.062,-0.269 0.33,-0.437 0.599,-0.376 0.663,0.153 1.314,0.303 1.949,0.449 0.269,0.062 0.437,0.33 0.375,0.599 -0.062,0.269 -0.33,0.437 -0.599,0.375 z m -49.548,-0.972 c -0.643,0.195 -1.287,0.382 -1.931,0.562 -0.265,0.074 -0.541,-0.081 -0.616,-0.347 -0.074,-0.266 0.082,-0.542 0.347,-0.616 0.637,-0.178 1.274,-0.363 1.911,-0.556 0.264,-0.08 0.543,0.07 0.623,0.334 0.08,0.264 -0.07,0.544 -0.334,0.623 z m 45.65,0.076 c -0.642,-0.148 -1.293,-0.298 -1.949,-0.449 -0.269,-0.062 -0.437,-0.33 -0.375,-0.599 0.061,-0.269 0.33,-0.437 0.599,-0.375 0.656,0.151 1.307,0.3 1.949,0.448 0.269,0.062 0.437,0.33 0.375,0.599 -0.062,0.269 -0.33,0.437 -0.599,0.376 z m -41.827,-1.319 c -0.634,0.221 -1.269,0.435 -1.905,0.642 -0.262,0.085 -0.545,-0.059 -0.63,-0.321 -0.085,-0.263 0.058,-0.545 0.321,-0.63 0.629,-0.205 1.258,-0.417 1.886,-0.635 0.26,-0.091 0.545,0.047 0.636,0.308 0.091,0.26 -0.047,0.545 -0.308,0.636 z m 37.929,0.422 c -0.647,-0.149 -1.298,-0.299 -1.949,-0.448 -0.269,-0.062 -0.438,-0.331 -0.376,-0.6 0.062,-0.269 0.331,-0.437 0.6,-0.375 0.651,0.15 1.302,0.299 1.949,0.448 0.269,0.062 0.437,0.331 0.375,0.6 -0.062,0.269 -0.33,0.437 -0.599,0.375 z m -3.899,-0.897 c -0.651,-0.15 -1.301,-0.299 -1.949,-0.448 -0.269,-0.062 -0.437,-0.331 -0.375,-0.6 0.062,-0.268 0.331,-0.437 0.599,-0.375 0.648,0.149 1.298,0.299 1.95,0.449 0.269,0.061 0.437,0.33 0.375,0.599 -0.062,0.269 -0.331,0.437 -0.6,0.375 z m -30.261,-0.923 c -0.624,0.246 -1.25,0.485 -1.877,0.718 -0.259,0.096 -0.547,-0.036 -0.643,-0.295 -0.096,-0.258 0.036,-0.546 0.295,-0.642 0.621,-0.231 1.24,-0.468 1.858,-0.712 0.257,-0.101 0.548,0.025 0.649,0.282 0.101,0.257 -0.025,0.547 -0.282,0.649 z m 26.363,0.026 c -0.656,-0.151 -1.307,-0.3 -1.949,-0.448 -0.269,-0.062 -0.437,-0.33 -0.375,-0.599 0.062,-0.269 0.33,-0.437 0.599,-0.375 0.643,0.147 1.293,0.297 1.949,0.448 0.269,0.062 0.437,0.33 0.376,0.599 -0.062,0.269 -0.331,0.437 -0.6,0.375 z m -22.654,-1.575 c -0.613,0.27 -1.229,0.535 -1.846,0.793 -0.255,0.106 -0.548,-0.014 -0.655,-0.269 -0.106,-0.255 0.015,-0.548 0.269,-0.654 0.611,-0.255 1.221,-0.517 1.829,-0.785 0.252,-0.112 0.548,0.003 0.659,0.255 0.111,0.253 -0.003,0.548 -0.256,0.66 z m 18.756,0.679 c -0.663,-0.153 -1.313,-0.302 -1.949,-0.449 -0.269,-0.061 -0.437,-0.33 -0.375,-0.599 0.062,-0.269 0.33,-0.437 0.599,-0.375 0.636,0.146 1.287,0.296 1.949,0.448 0.269,0.062 0.437,0.331 0.375,0.6 -0.061,0.268 -0.33,0.437 -0.599,0.375 z m -3.898,-0.897 c -0.673,-0.155 -1.324,-0.305 -1.949,-0.448 -0.269,-0.062 -0.437,-0.331 -0.375,-0.6 0.061,-0.269 0.33,-0.437 0.599,-0.375 0.625,0.144 1.276,0.294 1.949,0.448 0.269,0.062 0.437,0.331 0.375,0.6 -0.062,0.269 -0.33,0.437 -0.599,0.375 z m -11.213,-1.478 c -0.602,0.295 -1.207,0.584 -1.814,0.866 -0.25,0.116 -0.548,0.008 -0.664,-0.242 -0.117,-0.251 -0.008,-0.548 0.242,-0.665 0.601,-0.279 1.2,-0.565 1.796,-0.857 0.248,-0.121 0.548,-0.018 0.669,0.229 0.122,0.248 0.019,0.548 -0.229,0.669 z m 7.315,0.581 c -0.7,-0.161 -1.352,-0.311 -1.949,-0.448 -0.269,-0.062 -0.438,-0.33 -0.376,-0.599 0.062,-0.269 0.331,-0.437 0.6,-0.376 0.597,0.138 1.249,0.288 1.949,0.449 0.269,0.062 0.437,0.33 0.375,0.599 -0.062,0.269 -0.33,0.437 -0.599,0.375 z m -3.899,-0.896 c -0.997,-0.23 -1.675,-0.386 -1.949,-0.449 -0.269,-0.062 -0.437,-0.33 -0.375,-0.599 0.062,-0.269 0.331,-0.437 0.6,-0.375 0.273,0.063 0.951,0.219 1.949,0.448 0.269,0.062 0.437,0.33 0.375,0.599 -0.062,0.269 -0.331,0.437 -0.6,0.376 z"
     style="clip-rule:evenodd;fill:#3c2313;fill-opacity:1;fill-rule:evenodd;stroke-linecap:round"
     id="path21263" /><path
     d="m -0.1825,256.55712 c 0,19.957 16.454,23.09 37.408,25.754 41.167,5.233 99.679,8.473 155.612,10.626 18.461,-1.934 48.21,-8.863 68.406,-16.528 14.523,-5.512 38.574,-13.017 38.574,-32.974 v 41.844 c -25.767,16.878 -82.854,31.01 -106.98,42.259 -81.14,-21.804 -153.063,-13.032 -193.02,-42.928 z"
     style="clip-rule:evenodd;fill:#e63135;fill-rule:nonzero;stroke-linecap:round"
     id="path21269" /><path
     d="m -0.9675,278.03612 c 51.977,33.05 124.727,22.649 193.805,42.118 38.649,-15.263 78.318,-23.997 108.13,-43.953"
     style="clip-rule:evenodd;fill:none;fill-rule:evenodd;stroke:#ffffff;stroke-width:2px;stroke-linecap:round"
     id="path21271" /><path
     d="m 192.0585,303.61712 c 2.636,0 4.775,2.139 4.775,4.774 0,2.636 -2.139,4.775 -4.775,4.775 -2.635,0 -4.774,-2.139 -4.774,-4.775 0,-2.635 2.139,-4.774 4.774,-4.774 z m 0,2 c 1.532,0 2.775,1.243 2.775,2.774 0,1.532 -1.243,2.775 -2.775,2.775 -1.531,0 -2.774,-1.243 -2.774,-2.775 0,-1.531 1.243,-2.774 2.774,-2.774 z m -11.847,-1.13 c -2.697,-0.766 -5.227,-0.189 -5.646,1.287 -0.418,1.476 1.431,3.295 4.128,4.061 2.697,0.766 5.227,0.189 5.646,-1.287 0.419,-1.476 -1.43,-3.295 -4.128,-4.061 z m -26.161,-4.67 c 2.548,0.673 4.071,3.288 3.398,5.836 -0.672,2.548 -3.287,4.07 -5.835,3.398 -2.548,-0.673 -4.071,-3.288 -3.398,-5.836 0.673,-2.548 3.287,-4.07 5.835,-3.398 z m 25.888,5.632 c 1.379,0.392 2.514,1.08 3.112,1.86 0.249,0.326 0.417,0.651 0.327,0.966 -0.089,0.315 -0.402,0.504 -0.786,0.65 -0.918,0.35 -2.246,0.339 -3.625,-0.052 -1.379,-0.391 -2.514,-1.079 -3.111,-1.86 -0.249,-0.326 -0.417,-0.651 -0.328,-0.966 0.09,-0.315 0.403,-0.504 0.786,-0.65 0.919,-0.35 2.246,-0.339 3.625,0.052 z m 23.35,-2.304 c 2.697,-0.765 5.227,-0.189 5.646,1.287 0.419,1.476 -1.431,3.295 -4.128,4.061 -2.697,0.766 -5.227,0.189 -5.646,-1.287 -0.419,-1.475 1.431,-3.295 4.128,-4.061 z m 0.273,0.962 c 1.379,-0.391 2.707,-0.402 3.625,-0.052 0.383,0.147 0.697,0.335 0.786,0.65 0.09,0.315 -0.078,0.64 -0.327,0.966 -0.598,0.781 -1.733,1.469 -3.112,1.86 -1.379,0.392 -2.706,0.403 -3.625,0.052 -0.383,-0.146 -0.696,-0.335 -0.786,-0.65 -0.089,-0.315 0.078,-0.64 0.328,-0.966 0.597,-0.78 1.732,-1.468 3.111,-1.86 z m -38.532,-1.879 c 2.803,-0.052 5.102,1.151 5.13,2.685 0.029,1.534 -2.224,2.821 -5.028,2.873 -2.803,0.052 -5.102,-1.151 -5.13,-2.685 -0.028,-1.534 2.224,-2.822 5.028,-2.873 z m -11.489,-0.477 c 1.481,0.391 2.365,1.91 1.975,3.391 -0.391,1.481 -1.911,2.366 -3.392,1.975 -1.48,-0.391 -2.365,-1.911 -1.974,-3.391 0.391,-1.481 1.91,-2.366 3.391,-1.975 z m 11.507,1.476 c 1.433,-0.026 2.719,0.302 3.518,0.875 0.333,0.24 0.588,0.502 0.594,0.829 0.006,0.327 -0.239,0.599 -0.563,0.85 -0.777,0.603 -2.05,0.978 -3.483,1.005 -1.433,0.027 -2.719,-0.302 -3.518,-0.875 -0.333,-0.239 -0.588,-0.502 -0.594,-0.829 -0.006,-0.327 0.239,-0.599 0.563,-0.85 0.777,-0.603 2.05,-0.978 3.483,-1.005 z m 53.101,-3.43 c -2.648,0.175 -4.727,1.483 -4.64,2.92 0.087,1.437 2.307,2.461 4.955,2.287 2.648,-0.175 4.727,-1.483 4.64,-2.92 -0.087,-1.436 -2.307,-2.461 -4.955,-2.287 z m -104.187,-4.957 c 2.635,0.051 4.733,2.231 4.682,4.866 -0.051,2.635 -2.231,4.733 -4.866,4.682 -2.635,-0.051 -4.733,-2.231 -4.682,-4.866 0.051,-2.635 2.231,-4.732 4.866,-4.682 z m 104.244,5.894 c 1.353,-0.089 2.582,0.161 3.36,0.662 0.324,0.209 0.575,0.444 0.594,0.75 0.018,0.307 -0.203,0.573 -0.499,0.823 -0.711,0.6 -1.9,1.009 -3.254,1.098 -1.353,0.089 -2.582,-0.16 -3.36,-0.662 -0.324,-0.209 -0.575,-0.444 -0.594,-0.75 -0.018,-0.307 0.203,-0.573 0.499,-0.823 0.711,-0.6 1.9,-1.009 3.254,-1.098 z m 10.251,-5.445 c 2.354,-0.832 4.933,0.384 5.756,2.713 0.823,2.329 -0.419,4.896 -2.772,5.728 -2.354,0.831 -4.933,-0.384 -5.756,-2.714 -0.824,-2.329 0.419,-4.896 2.772,-5.727 z m -45.772,7.045 c -1.384,-1.255 -1.951,-2.888 -1.265,-3.645 0.687,-0.758 2.368,-0.354 3.752,0.9 1.384,1.255 1.951,2.888 1.265,3.645 -0.687,0.758 -2.368,0.354 -3.752,-0.9 z m -40.31,-4.699 c -2.413,-1.428 -5.006,-1.517 -5.788,-0.197 -0.782,1.32 0.542,3.552 2.955,4.981 2.412,1.428 5.005,1.516 5.787,0.196 0.782,-1.32 -0.542,-3.551 -2.954,-4.98 z m 58.503,3.889 c 1.384,-1.255 1.951,-2.888 1.264,-3.645 -0.686,-0.758 -2.367,-0.354 -3.752,0.9 -1.384,1.255 -1.951,2.888 -1.264,3.645 0.686,0.758 2.367,0.354 3.752,-0.9 z m -17.522,0.069 c -0.552,-0.501 -0.952,-1.069 -1.135,-1.596 -0.055,-0.157 -0.089,-0.307 -0.092,-0.446 -0.002,-0.073 -0.01,-0.144 0.032,-0.191 0.043,-0.047 0.114,-0.045 0.187,-0.051 0.139,-0.01 0.292,0.009 0.453,0.048 0.542,0.13 1.147,0.473 1.7,0.973 0.552,0.501 0.952,1.069 1.135,1.596 0.055,0.157 0.089,0.307 0.092,0.447 0.002,0.072 0.01,0.143 -0.032,0.19 -0.043,0.047 -0.114,0.045 -0.187,0.051 -0.139,0.01 -0.291,-0.009 -0.453,-0.048 -0.542,-0.13 -1.147,-0.472 -1.7,-0.973 z m -41.491,-3.097 c 1.233,0.73 2.155,1.685 2.534,2.592 0.157,0.379 0.236,0.736 0.07,1.018 -0.167,0.282 -0.518,0.384 -0.926,0.427 -0.978,0.105 -2.258,-0.244 -3.492,-0.975 -1.233,-0.73 -2.155,-1.685 -2.533,-2.593 -0.158,-0.378 -0.237,-0.735 -0.07,-1.017 0.166,-0.282 0.517,-0.384 0.925,-0.428 0.978,-0.104 2.259,0.245 3.492,0.976 z m -27.942,-1.656 c 1.532,0.029 2.751,1.296 2.721,2.828 -0.029,1.531 -1.296,2.75 -2.827,2.721 -1.532,-0.03 -2.751,-1.297 -2.721,-2.828 0.029,-1.531 1.296,-2.751 2.827,-2.721 z m 115.159,0.216 c 1.368,-0.483 2.867,0.224 3.345,1.577 0.479,1.354 -0.243,2.845 -1.611,3.329 -1.368,0.483 -2.867,-0.223 -3.345,-1.577 -0.479,-1.354 0.243,-2.845 1.611,-3.329 z m -28.876,3.727 c -0.552,0.501 -1.157,0.843 -1.699,0.973 -0.162,0.039 -0.315,0.058 -0.454,0.048 -0.072,-0.006 -0.143,-0.004 -0.186,-0.051 -0.043,-0.047 -0.034,-0.118 -0.033,-0.191 0.004,-0.139 0.038,-0.289 0.092,-0.446 0.183,-0.527 0.583,-1.095 1.136,-1.596 0.552,-0.5 1.157,-0.843 1.699,-0.973 0.162,-0.039 0.315,-0.058 0.454,-0.048 0.072,0.006 0.143,0.004 0.186,0.051 0.043,0.047 0.034,0.118 0.033,0.191 -0.004,0.139 -0.038,0.289 -0.092,0.446 -0.183,0.527 -0.583,1.095 -1.136,1.596 z m -8.687,-5.953 3.476,3.476 -3.476,3.477 -3.476,-3.477 z m -89.419,0.653 c -2.682,-0.818 -5.222,-0.29 -5.669,1.177 -0.448,1.468 1.367,3.323 4.049,4.14 2.681,0.818 5.222,0.29 5.669,-1.178 0.447,-1.467 -1.367,-3.322 -4.049,-4.139 z m 61.012,4.561 c 1.658,-0.859 2.623,-2.294 2.153,-3.201 -0.471,-0.908 -2.199,-0.947 -3.858,-0.087 -1.658,0.859 -2.623,2.294 -2.153,3.202 0.471,0.907 2.199,0.946 3.858,0.086 z m 28.407,-3.799 2.062,2.061 c 0,0 -2.062,2.062 -2.062,2.062 0,0 -2.062,-2.062 -2.062,-2.062 z m -66.32,-1.66 c 2.711,-0.713 5.229,-0.088 5.62,1.395 0.39,1.484 -1.494,3.268 -4.205,3.981 -2.712,0.714 -5.23,0.089 -5.621,-1.395 -0.39,-1.483 1.494,-3.267 4.206,-3.981 z m -23.39,1.854 c 1.371,0.418 2.493,1.128 3.075,1.92 0.243,0.331 0.404,0.659 0.309,0.972 -0.096,0.313 -0.413,0.496 -0.799,0.634 -0.925,0.333 -2.252,0.297 -3.623,-0.121 -1.371,-0.418 -2.493,-1.128 -3.075,-1.92 -0.243,-0.331 -0.404,-0.659 -0.309,-0.972 0.096,-0.313 0.412,-0.496 0.799,-0.635 0.925,-0.332 2.252,-0.296 3.623,0.122 z m 60.843,2.718 c -0.662,0.343 -1.335,0.52 -1.892,0.507 -0.166,-0.004 -0.319,-0.024 -0.451,-0.07 -0.069,-0.024 -0.138,-0.04 -0.167,-0.097 -0.029,-0.056 -0.003,-0.122 0.017,-0.192 0.039,-0.134 0.111,-0.27 0.203,-0.408 0.311,-0.463 0.844,-0.91 1.505,-1.253 0.662,-0.343 1.335,-0.52 1.892,-0.508 0.166,0.004 0.319,0.024 0.451,0.07 0.069,0.024 0.138,0.04 0.167,0.097 0.029,0.056 0.003,0.122 -0.017,0.192 -0.039,0.134 -0.111,0.271 -0.203,0.409 -0.311,0.462 -0.844,0.91 -1.505,1.253 z m -37.199,-3.605 c 1.386,-0.365 2.714,-0.35 3.625,0.018 0.381,0.154 0.69,0.348 0.774,0.665 0.083,0.316 -0.091,0.638 -0.346,0.959 -0.613,0.769 -1.761,1.435 -3.147,1.8 -1.386,0.365 -2.713,0.35 -3.625,-0.018 -0.381,-0.153 -0.69,-0.348 -0.774,-0.664 -0.083,-0.317 0.091,-0.639 0.346,-0.96 0.613,-0.769 1.761,-1.435 3.147,-1.8 z m -50.319,-5.851 c 2.543,0.693 4.044,3.321 3.35,5.863 -0.694,2.542 -3.321,4.043 -5.863,3.35 -2.543,-0.694 -4.044,-3.321 -3.35,-5.864 0.694,-2.542 3.321,-4.043 5.863,-3.349 z m 70.181,6.483 c -1.019,-1.566 -1.15,-3.29 -0.293,-3.847 0.857,-0.557 2.38,0.262 3.398,1.828 1.018,1.567 1.149,3.29 0.292,3.848 -0.857,0.557 -2.379,-0.262 -3.397,-1.829 z m 10.195,-4.848 0.36,0.018 2.375,4.078 -4.248,2.474 -2.474,-4.248 z m -69.418,0.866 c 2.804,-0.029 5.093,1.193 5.108,2.727 0.016,1.534 -2.247,2.803 -5.051,2.832 -2.803,0.028 -5.092,-1.194 -5.108,-2.728 -0.016,-1.534 2.248,-2.803 5.051,-2.831 z m 133.593,4.912 c -1.629,-0.672 -2.645,-1.937 -2.268,-2.823 0.376,-0.886 2.003,-1.06 3.631,-0.388 1.629,0.671 2.645,1.936 2.268,2.823 -0.376,0.886 -2.003,1.06 -3.631,0.388 z m -73.532,-1.475 c -0.406,-0.625 -0.648,-1.277 -0.691,-1.832 -0.012,-0.166 -0.007,-0.32 0.026,-0.456 0.017,-0.07 0.026,-0.141 0.08,-0.175 0.053,-0.035 0.121,-0.015 0.193,-0.002 0.137,0.025 0.28,0.083 0.426,0.162 0.491,0.264 0.988,0.749 1.395,1.374 0.406,0.626 0.648,1.277 0.69,1.833 0.013,0.166 0.008,0.32 -0.025,0.455 -0.017,0.071 -0.026,0.142 -0.08,0.176 -0.053,0.035 -0.121,0.015 -0.193,0.002 -0.137,-0.025 -0.28,-0.083 -0.426,-0.162 -0.491,-0.264 -0.989,-0.75 -1.395,-1.375 z m -71.545,-4.009 c 1.477,0.403 2.35,1.93 1.947,3.408 -0.404,1.477 -1.93,2.349 -3.408,1.946 -1.477,-0.403 -2.35,-1.93 -1.946,-3.407 0.403,-1.478 1.929,-2.35 3.407,-1.947 z m 163.731,-0.303 c 2.17,-1.528 4.609,-1.817 5.444,-0.644 0.835,1.172 -0.248,3.364 -2.418,4.892 -2.169,1.528 -4.609,1.817 -5.444,0.645 -0.835,-1.172 0.248,-3.365 2.418,-4.893 z m -152.236,1.875 c 1.433,-0.015 2.716,0.324 3.51,0.904 0.332,0.242 0.584,0.506 0.588,0.833 0.003,0.328 -0.244,0.597 -0.571,0.846 -0.781,0.596 -2.058,0.961 -3.491,0.976 -1.433,0.014 -2.717,-0.324 -3.511,-0.904 -0.331,-0.242 -0.584,-0.507 -0.587,-0.834 -0.003,-0.327 0.244,-0.597 0.57,-0.846 0.782,-0.596 2.058,-0.961 3.492,-0.975 z m 133.95,3.045 c -0.65,-0.268 -1.185,-0.644 -1.513,-1.052 -0.098,-0.122 -0.175,-0.244 -0.221,-0.366 -0.025,-0.064 -0.054,-0.123 -0.031,-0.179 0.023,-0.055 0.087,-0.076 0.151,-0.103 0.12,-0.054 0.263,-0.085 0.419,-0.101 0.525,-0.056 1.172,0.055 1.822,0.324 0.65,0.268 1.185,0.644 1.513,1.052 0.098,0.121 0.175,0.243 0.221,0.365 0.025,0.064 0.054,0.124 0.031,0.179 -0.023,0.055 -0.087,0.076 -0.151,0.104 -0.12,0.053 -0.263,0.084 -0.419,0.101 -0.525,0.056 -1.172,-0.056 -1.822,-0.324 z m -64.642,-3.696 1.467,2.52 c 0,0 -2.52,1.468 -2.52,1.468 0,0 -1.467,-2.52 -1.467,-2.52 z m 83.472,-0.46 c 1.11,-0.781 2.292,-1.209 3.221,-1.19 0.388,0.009 0.727,0.077 0.905,0.327 0.179,0.25 0.13,0.59 0.01,0.957 -0.29,0.878 -1.089,1.845 -2.198,2.626 -1.109,0.781 -2.291,1.21 -3.221,1.19 -0.388,-0.008 -0.727,-0.076 -0.905,-0.326 -0.178,-0.25 -0.13,-0.59 -0.009,-0.957 0.289,-0.879 1.088,-1.845 2.197,-2.627 z m -134.269,1.286 c -1.36,-1.28 -1.895,-2.924 -1.194,-3.669 0.701,-0.744 2.374,-0.308 3.733,0.973 1.36,1.281 1.895,2.925 1.195,3.669 -0.701,0.744 -2.374,0.308 -3.734,-0.973 z m 17.553,-3.813 -0.936,-0.056 c -0.287,0.172 -0.572,0.378 -0.846,0.618 -1.408,1.227 -2.006,2.849 -1.335,3.62 0.672,0.77 2.361,0.399 3.769,-0.828 1.199,-1.046 1.81,-2.377 1.551,-3.225 z m 103.063,-1.871 4.19,1.975 -2.018,4.17 -4.19,-1.975 z m -119.931,4.956 c -0.542,-0.511 -0.932,-1.087 -1.104,-1.617 -0.052,-0.158 -0.083,-0.309 -0.083,-0.448 -0.001,-0.073 -0.008,-0.144 0.036,-0.19 0.043,-0.046 0.114,-0.043 0.187,-0.047 0.139,-0.008 0.291,0.014 0.452,0.056 0.54,0.141 1.138,0.495 1.681,1.006 0.543,0.511 0.932,1.087 1.104,1.617 0.052,0.158 0.083,0.309 0.084,0.449 0,0.072 0.007,0.143 -0.036,0.189 -0.044,0.047 -0.115,0.044 -0.188,0.048 -0.139,0.008 -0.291,-0.015 -0.452,-0.057 -0.54,-0.14 -1.138,-0.494 -1.681,-1.006 z m -41.823,-5.227 c -2.401,-1.448 -4.993,-1.558 -5.786,-0.245 -0.792,1.314 0.513,3.556 2.914,5.005 2.4,1.449 4.993,1.558 5.785,0.245 0.793,-1.314 -0.512,-3.556 -2.913,-5.005 z m 58.686,4.742 c -0.562,0.49 -1.174,0.821 -1.718,0.94 -0.163,0.036 -0.316,0.053 -0.455,0.039 -0.072,-0.007 -0.143,-0.006 -0.185,-0.054 -0.042,-0.048 -0.032,-0.119 -0.029,-0.191 0.006,-0.139 0.043,-0.289 0.101,-0.445 0.193,-0.523 0.604,-1.084 1.166,-1.574 0.562,-0.49 1.173,-0.82 1.718,-0.94 0.162,-0.036 0.315,-0.052 0.454,-0.039 0.073,0.007 0.144,0.007 0.185,0.055 0.042,0.048 0.032,0.118 0.029,0.191 -0.006,0.139 -0.043,0.288 -0.1,0.444 -0.193,0.523 -0.604,1.084 -1.166,1.574 z m -10.152,-3.224 0.014,0.001 -0.562,0.54 c 0,0 2.022,2.101 2.022,2.101 0,0 2.101,-2.022 2.101,-2.022 l -0.405,-0.421 1.476,0.092 0.343,0.357 -3.542,3.408 -3.409,-3.542 0.623,-0.6 z m 123.669,1.715 c 0.844,-1.545 0.84,-3.168 -0.01,-3.621 -0.849,-0.453 -2.225,0.435 -3.069,1.98 -0.844,1.546 -0.84,3.169 0.01,3.622 0.849,0.452 2.224,-0.435 3.069,-1.981 z m -10.007,-1.712 2.485,1.172 c 0,0 -1.197,2.473 -1.197,2.473 0,0 -2.485,-1.172 -2.485,-1.172 z m -162.713,-0.665 c 1.228,0.741 2.142,1.704 2.512,2.614 0.155,0.38 0.231,0.738 0.062,1.018 -0.169,0.28 -0.521,0.38 -0.929,0.42 -0.979,0.096 -2.256,-0.264 -3.484,-1.004 -1.227,-0.741 -2.141,-1.703 -2.512,-2.614 -0.154,-0.38 -0.23,-0.738 -0.061,-1.018 0.169,-0.28 0.521,-0.38 0.929,-0.42 0.978,-0.096 2.256,0.264 3.483,1.004 z m 171.889,1.934 c -0.337,0.617 -0.771,1.111 -1.214,1.397 -0.132,0.086 -0.263,0.151 -0.39,0.185 -0.067,0.019 -0.13,0.042 -0.182,0.014 -0.053,-0.028 -0.068,-0.093 -0.089,-0.158 -0.041,-0.124 -0.057,-0.268 -0.057,-0.424 -0.002,-0.523 0.178,-1.152 0.515,-1.769 0.337,-0.616 0.77,-1.11 1.214,-1.396 0.132,-0.086 0.263,-0.151 0.39,-0.186 0.067,-0.018 0.129,-0.042 0.182,-0.013 0.053,0.028 0.067,0.093 0.089,0.158 0.04,0.124 0.057,0.267 0.057,0.424 0.002,0.523 -0.178,1.152 -0.515,1.768 z m 18.758,-3.888 c -2.653,0 -4.814,1.168 -4.822,2.608 -0.008,1.439 2.14,2.608 4.794,2.608 2.653,0 4.814,-1.168 4.822,-2.608 0.008,-1.439 -2.14,-2.608 -4.794,-2.608 z m 10.583,-3.82 c 2.403,-0.675 4.897,0.708 5.565,3.087 0.668,2.378 -0.741,4.857 -3.144,5.532 -2.403,0.675 -4.897,-0.708 -5.565,-3.086 -0.668,-2.379 0.741,-4.858 3.144,-5.533 z m -230.763,-0.692 c 1.248,0.17 2.516,0.336 3.8,0.499 0.342,0.043 0.685,0.087 1.035,0.13 1.345,1.058 2.076,2.807 1.75,4.606 -0.469,2.594 -2.955,4.318 -5.549,3.849 -2.593,-0.469 -4.317,-2.956 -3.848,-5.549 0.296,-1.634 1.392,-2.923 2.812,-3.535 z m 48.862,5.01 c 1.389,0.111 2.785,0.221 4.187,0.329 0.127,0.899 -0.808,2.103 -2.282,2.852 -1.666,0.846 -3.394,0.793 -3.857,-0.119 -0.441,-0.869 0.426,-2.207 1.952,-3.062 z m 171.313,0.44 c 1.357,0 2.566,0.331 3.309,0.882 0.31,0.231 0.545,0.481 0.544,0.788 -0.002,0.307 -0.24,0.558 -0.553,0.788 -0.748,0.552 -1.962,0.882 -3.318,0.882 -1.357,-0.001 -2.566,-0.331 -3.309,-0.882 -0.31,-0.231 -0.545,-0.481 -0.544,-0.788 0.002,-0.307 0.24,-0.558 0.552,-0.788 0.749,-0.552 1.962,-0.882 3.319,-0.882 z m -169.861,1.849 c -0.665,0.338 -1.339,0.509 -1.896,0.492 -0.166,-0.005 -0.319,-0.027 -0.45,-0.073 -0.069,-0.025 -0.138,-0.042 -0.166,-0.099 -0.029,-0.056 -0.002,-0.122 0.018,-0.192 0.04,-0.133 0.113,-0.269 0.207,-0.407 0.315,-0.46 0.85,-0.903 1.515,-1.24 0.665,-0.338 1.339,-0.509 1.896,-0.492 0.166,0.005 0.319,0.027 0.45,0.074 0.069,0.024 0.138,0.041 0.166,0.098 0.029,0.056 0.002,0.122 -0.018,0.192 -0.04,0.134 -0.113,0.269 -0.207,0.407 -0.315,0.46 -0.85,0.903 -1.515,1.24 z m 180.956,-4.802 c 1.397,-0.392 2.846,0.412 3.234,1.794 0.388,1.382 -0.43,2.823 -1.827,3.215 -1.397,0.392 -2.846,-0.411 -3.234,-1.794 -0.388,-1.382 0.431,-2.823 1.827,-3.215 z m -228.89,-0.842 c 1.507,0.272 2.51,1.717 2.237,3.224 -0.273,1.507 -1.718,2.509 -3.225,2.237 -1.507,-0.273 -2.509,-1.718 -2.236,-3.225 0.273,-1.507 1.717,-2.509 3.224,-2.236 z m 9.901,-0.133 c 2.013,0.23 4.06,0.456 6.133,0.678 0.454,0.36 0.735,0.8 0.784,1.294 0.149,1.526 -1.995,2.988 -4.785,3.261 -2.791,0.273 -5.178,-0.745 -5.327,-2.271 -0.12,-1.221 1.226,-2.399 3.195,-2.962 z m 20.817,2.134 0.802,0.074 c 0.391,0.588 0.862,1.046 1.328,1.302 0.146,0.08 0.288,0.139 0.425,0.165 0.072,0.014 0.14,0.034 0.193,0 0.054,-0.034 0.064,-0.104 0.082,-0.175 0.034,-0.135 0.04,-0.289 0.029,-0.455 -0.014,-0.209 -0.057,-0.432 -0.125,-0.662 l 0.648,0.058 0.405,0.036 c 0.189,0.919 0.03,1.703 -0.5,2.041 -0.862,0.55 -2.378,-0.282 -3.383,-1.856 -0.119,-0.187 -0.226,-0.377 -0.321,-0.566 z m 7.955,0.707 0.89,0.076 0.099,0.174 0.252,-0.144 1.072,0.09 0.686,0.057 -2.382,1.361 -0.938,-1.642 z m -27.085,-2.146 c 1.427,-0.139 2.735,0.086 3.576,0.595 0.352,0.212 0.626,0.453 0.658,0.779 0.032,0.326 -0.191,0.616 -0.494,0.892 -0.727,0.662 -1.966,1.137 -3.393,1.277 -1.426,0.139 -2.734,-0.086 -3.576,-0.595 -0.351,-0.212 -0.626,-0.453 -0.658,-0.779 -0.032,-0.326 0.191,-0.616 0.494,-0.892 0.727,-0.662 1.967,-1.137 3.393,-1.277 z m -27.101,-4.586 c 1.405,0.353 2.863,0.67 4.367,0.962 2.329,1.251 3.675,3.252 3.029,4.572 -0.675,1.378 -3.267,1.495 -5.785,0.261 -2.518,-1.233 -4.014,-3.353 -3.339,-4.731 0.285,-0.581 0.911,-0.938 1.728,-1.064 z m 3.617,1.701 c 1.287,0.631 2.282,1.51 2.73,2.385 0.188,0.365 0.295,0.714 0.151,1.008 -0.144,0.294 -0.486,0.424 -0.89,0.5 -0.966,0.181 -2.27,-0.066 -3.557,-0.697 -1.287,-0.631 -2.282,-1.51 -2.731,-2.384 -0.187,-0.365 -0.294,-0.715 -0.15,-1.009 0.144,-0.294 0.486,-0.424 0.889,-0.499 0.966,-0.182 2.271,0.065 3.558,0.696 z m 250.4,-1.942 c 2.266,-1.381 4.719,-1.509 5.475,-0.284 0.756,1.224 -0.469,3.341 -2.735,4.722 -2.265,1.382 -4.718,1.51 -5.474,0.285 -0.757,-1.225 0.469,-3.341 2.734,-4.723 z m -18.995,4.545 c -1.58,-0.777 -2.511,-2.106 -2.077,-2.966 0.434,-0.859 2.069,-0.926 3.65,-0.148 1.58,0.778 2.511,2.107 2.077,2.966 -0.434,0.86 -2.069,0.926 -3.65,0.148 z m 19.488,-3.746 c 1.158,-0.707 2.366,-1.057 3.292,-0.976 0.387,0.034 0.721,0.124 0.882,0.386 0.161,0.261 0.091,0.597 -0.054,0.955 -0.347,0.858 -1.207,1.77 -2.366,2.476 -1.158,0.707 -2.365,1.056 -3.292,0.975 -0.387,-0.033 -0.72,-0.123 -0.881,-0.385 -0.162,-0.261 -0.091,-0.597 0.053,-0.955 0.347,-0.858 1.208,-1.77 2.366,-2.476 z m -19.063,2.906 c -0.631,-0.311 -1.14,-0.721 -1.44,-1.15 -0.09,-0.128 -0.159,-0.254 -0.197,-0.379 -0.02,-0.066 -0.046,-0.127 -0.019,-0.181 0.027,-0.053 0.092,-0.07 0.157,-0.093 0.124,-0.045 0.268,-0.067 0.426,-0.073 0.527,-0.022 1.165,0.132 1.796,0.443 0.631,0.31 1.14,0.721 1.44,1.149 0.09,0.128 0.159,0.255 0.197,0.38 0.02,0.065 0.046,0.127 0.019,0.18 -0.027,0.053 -0.092,0.07 -0.157,0.094 -0.124,0.045 -0.268,0.066 -0.426,0.073 -0.527,0.021 -1.166,-0.133 -1.796,-0.443 z m 7.462,-7.234 2.318,1.286 -2.288,4.028 -4.052,-2.247 1.124,-1.978 c 0.316,-0.118 0.629,-0.235 0.94,-0.353 l 0.439,-0.166 -1.213,2.135 c 0,0 2.403,1.333 2.403,1.333 0,0 1.358,-2.389 1.358,-2.389 l -2.189,-1.215 0.591,-0.221 z m 8.498,2.684 c 0.944,-1.487 1.047,-3.106 0.229,-3.614 -0.818,-0.508 -2.249,0.287 -3.193,1.773 -0.944,1.487 -1.047,3.107 -0.229,3.614 0.818,0.508 2.249,-0.287 3.193,-1.773 z m -0.8,-0.497 c -0.377,0.593 -0.842,1.057 -1.303,1.314 -0.138,0.076 -0.272,0.133 -0.402,0.159 -0.067,0.013 -0.132,0.033 -0.182,0.002 -0.051,-0.032 -0.061,-0.098 -0.078,-0.164 -0.033,-0.127 -0.04,-0.271 -0.03,-0.427 0.033,-0.522 0.254,-1.137 0.631,-1.731 0.377,-0.593 0.842,-1.057 1.303,-1.314 0.138,-0.076 0.272,-0.133 0.402,-0.159 0.067,-0.013 0.132,-0.033 0.183,-10e-4 0.051,0.031 0.061,0.097 0.077,0.163 0.033,0.127 0.04,0.271 0.03,0.427 -0.033,0.522 -0.254,1.138 -0.631,1.731 z m -264.587,-4.922 c 0.308,0.271 0.625,0.534 0.951,0.787 -0.093,0.013 -0.184,0.03 -0.271,0.05 -0.4,0.091 -0.737,0.233 -0.869,0.533 -0.133,0.299 -0.013,0.644 0.188,1.002 0.483,0.857 1.51,1.697 2.821,2.278 1.31,0.581 2.623,0.777 3.581,0.559 0.4,-0.091 0.737,-0.234 0.87,-0.533 0.042,-0.096 0.059,-0.197 0.055,-0.301 0.316,0.13 0.637,0.256 0.962,0.379 -0.022,0.112 -0.056,0.221 -0.103,0.327 -0.622,1.403 -3.207,1.619 -5.771,0.483 -2.563,-1.136 -4.139,-3.197 -3.518,-4.599 0.195,-0.441 0.584,-0.764 1.104,-0.965 z m 282.044,-0.653 c -2.468,0.974 -4.049,2.855 -3.528,4.196 0.521,1.342 2.948,1.64 5.417,0.666 2.468,-0.974 4.049,-2.855 3.528,-4.196 -0.522,-1.342 -2.949,-1.64 -5.417,-0.666 z m 0.34,0.875 c 1.262,-0.498 2.508,-0.635 3.401,-0.395 0.373,0.1 0.684,0.247 0.795,0.533 0.111,0.287 -0.018,0.607 -0.224,0.936 -0.494,0.788 -1.501,1.54 -2.763,2.038 -1.262,0.499 -2.508,0.636 -3.402,0.395 -0.373,-0.1 -0.683,-0.247 -0.795,-0.533 -0.111,-0.286 0.018,-0.607 0.225,-0.936 0.494,-0.788 1.501,-1.54 2.763,-2.038 z m -288.879,-7.59 c 0.591,0.103 1.169,0.319 1.699,0.65 0.602,1.465 1.355,2.782 2.247,3.97 0.02,1.105 -0.341,2.221 -1.102,3.136 -0.752,0.904 -1.769,1.46 -2.844,1.648 v -2.053 c 0.494,-0.153 0.951,-0.447 1.307,-0.874 0.979,-1.178 0.818,-2.929 -0.359,-3.908 -0.288,-0.239 -0.611,-0.411 -0.948,-0.516 z m 300,7.319 c -1.471,0.114 -2.962,-0.491 -3.913,-1.743 -1.495,-1.967 -1.095,-4.79 0.893,-6.3 0.901,-0.685 1.976,-0.983 3.02,-0.921 v 1.89 c -0.647,-0.072 -1.324,0.097 -1.886,0.524 -1.155,0.877 -1.387,2.518 -0.519,3.661 0.581,0.765 1.509,1.114 2.405,0.999 z m -10.818,-3.628 c -1.755,-0.143 -3.109,-1.037 -3.021,-1.996 0.088,-0.959 1.585,-1.621 3.34,-1.478 1.756,0.143 3.109,1.037 3.021,1.996 -0.088,0.959 -1.584,1.621 -3.34,1.478 z m 0.086,-0.938 c -0.7,-0.057 -1.325,-0.252 -1.761,-0.54 -0.13,-0.086 -0.241,-0.179 -0.323,-0.281 -0.042,-0.053 -0.089,-0.101 -0.083,-0.161 0.005,-0.059 0.06,-0.099 0.111,-0.144 0.099,-0.088 0.225,-0.161 0.369,-0.225 0.483,-0.213 1.133,-0.304 1.834,-0.247 0.701,0.057 1.325,0.252 1.762,0.54 0.13,0.086 0.241,0.179 0.322,0.281 0.043,0.053 0.089,0.101 0.084,0.16 -0.006,0.06 -0.06,0.099 -0.112,0.145 -0.099,0.088 -0.225,0.161 -0.369,0.225 -0.482,0.213 -1.133,0.304 -1.834,0.247 z m 4.635,-9.422 2.279,0.299 -0.65,4.586 -4.593,-0.602 0.224,-1.588 c 0.373,-0.327 0.738,-0.66 1.094,-1 l -0.252,1.778 c 0,0 2.725,0.357 2.725,0.357 0,0 0.385,-2.721 0.385,-2.721 l -2.003,-0.263 c 0.27,-0.277 0.533,-0.559 0.791,-0.846 z m 6.097,-3.491 v 2.081 c -0.024,0.093 -0.045,0.188 -0.063,0.284 -0.133,0.69 -0.112,1.344 0.049,1.842 l 0.014,0.042 v 1.362 c -0.866,-0.279 -1.307,-1.762 -0.99,-3.414 0.174,-0.907 0.543,-1.686 0.99,-2.197 z"
     style="clip-rule:evenodd;fill:#ffffff;fill-rule:evenodd;stroke-linecap:round"
     id="path21273" /><path
     id="path10727"
     style="fill:#000000;fill-opacity:0.362745;stroke:none;stroke-width:1.33224;stroke-linecap:square;stroke-linejoin:bevel;stroke-dasharray:none;stroke-opacity:1;paint-order:stroke fill markers;stop-color:#000000"
     inkscape:transform-center-x="0.5335412"
     inkscape:transform-center-y="-9.5877548"
     d="m 259.65599,250.48199 a 5.0133856,5.1709481 0 0 0 -5.01455,5.17214 5.0133856,5.1709481 0 0 0 2.7217,4.58455 c -3.5203,4.79004 -9.55884,13.55562 -9.91799,13.83439 -0.34541,0.26809 -9.37394,3.54308 -14.91375,5.72099 a 5.0133856,5.1709481 0 0 0 -4.77979,-3.61274 5.0133856,5.1709481 0 0 0 -5.01298,5.17053 5.0133856,5.1709481 0 0 0 5.01298,5.17054 5.0133856,5.1709481 0 0 0 2.90325,-0.96858 c 3.38974,4.99198 9.21888,13.10002 9.36081,13.52605 0.13977,0.41959 0.36789,10.18222 0.66203,16.29776 a 5.0133856,5.1709481 0 0 0 -0.46796,-0.0226 5.0133856,5.1709481 0 0 0 -5.01299,5.17054 5.0133856,5.1709481 0 0 0 5.01298,5.17053 5.0133856,5.1709481 0 0 0 5.013,-5.17053 5.0133856,5.1709481 0 0 0 -0.16591,-1.3108 c 5.60668,-1.75678 15.27629,-5.11117 15.72134,-5.11887 0.43073,-0.007 9.53174,2.79418 15.25963,4.39406 a 5.0133856,5.1709481 0 0 0 -0.12677,1.0961 5.0133856,5.1709481 0 0 0 5.01299,5.17053 5.0133856,5.1709481 0 0 0 5.01299,-5.17053 5.0133856,5.1709481 0 0 0 -0.96566,-3.05261 2.5826531,2.6638216 0 0 0 -2.52763,-2.11955 2.5826531,2.6638216 0 0 0 -0.62446,0.0856 5.0133856,5.1709481 0 0 0 -0.89524,-0.0856 5.0133856,5.1709481 0 0 0 -0.0141,0.002 c 0.0885,-6.13909 0.004,-15.62739 0.12834,-16.04594 0.13104,-0.44105 5.99617,-9.18707 9.17456,-14.24601 a 5.0133856,5.1709481 0 0 0 3.47294,1.45931 5.0133856,5.1709481 0 0 0 5.01298,-5.17215 5.0133856,5.1709481 0 0 0 -5.01298,-5.17054 5.0133856,5.1709481 0 0 0 -4.85491,3.92108 c -5.46258,-1.96604 -15.65916,-5.25819 -16.03123,-5.52728 -0.37099,-0.26831 -6.80466,-8.97542 -10.4642,-13.61322 a 5.0133856,5.1709481 0 0 0 2.33355,-4.36662 5.0133856,5.1709481 0 0 0 -5.01299,-5.17216 z"
     sodipodi:insensitive="true" /><path
     sodipodi:type="star"
     style="fill:#de9827;fill-opacity:1;stroke:none;stroke-width:4.009;stroke-linecap:square;stroke-linejoin:bevel;stroke-dasharray:none;stroke-opacity:1;paint-order:stroke fill markers;stop-color:#000000"
     id="path9923"
     inkscape:flatsided="false"
     sodipodi:sides="5"
     sodipodi:cx="325.00555"
     sodipodi:cy="-217.28941"
     sodipodi:r1="102.84287"
     sodipodi:r2="65.922279"
     sodipodi:arg1="0.87490198"
     sodipodi:arg2="1.5032205"
     inkscape:rounded="0.03"
     inkscape:randomized="0"
     d="m 390.93525,-138.3595 c -1.44756,1.20914 -59.59652,-13.28545 -61.47833,-13.15809 -1.88182,0.12736 -57.5475,22.3248 -59.14478,21.32173 -1.59728,-1.00307 -5.78112,-60.78509 -6.48376,-62.53545 -0.70264,-1.75035 -39.0153,-47.83218 -38.55491,-49.66124 0.46039,-1.82907 56.02359,-24.2818 57.47115,-25.49094 1.44756,-1.20914 33.43472,-51.88671 35.31653,-52.01407 1.88182,-0.12736 40.4056,45.77811 42.00288,46.78118 1.59728,1.00307 59.67909,15.76443 60.38173,17.51479 0.70264,1.75035 -31.05155,52.57422 -31.51194,54.40329 -0.46039,1.82907 3.44899,61.62966 2.00143,62.8388 z"
     inkscape:transform-center-x="0.5335412"
     inkscape:transform-center-y="-9.2955782"
     transform="matrix(0.32678664,0.01660759,-0.01660759,0.32678664,150.14069,354.36595)" /><circle
     style="fill:#de9827;fill-opacity:1;fill-rule:evenodd;stroke-width:0.245406"
     id="path9925"
     cx="227.29376"
     cy="278.57755"
     r="5.0133853" /><circle
     style="fill:#de9827;fill-opacity:1;fill-rule:evenodd;stroke-width:0.245406"
     id="circle10048"
     cx="259.19711"
     cy="253.66255"
     r="5.0133853" /><circle
     style="fill:#de9827;fill-opacity:1;fill-rule:evenodd;stroke-width:0.245406"
     id="circle10050"
     cx="293.22736"
     cy="277.66602"
     r="5.0133853" /><circle
     style="fill:#de9827;fill-opacity:1;fill-rule:evenodd;stroke-width:0.245406"
     id="circle10052"
     cx="280.466"
     cy="315.64621"
     r="5.0133853" /><circle
     style="fill:#de9827;fill-opacity:1;fill-rule:evenodd;stroke-width:0.245406"
     id="circle10054"
     cx="239.75125"
     cy="316.55774"
     r="5.0133853" /><path
     sodipodi:type="star"
     style="fill:#ffce45;fill-opacity:1;stroke:none;stroke-width:4.009;stroke-linecap:square;stroke-linejoin:bevel;stroke-dasharray:none;stroke-opacity:1;paint-order:stroke fill markers;stop-color:#000000"
     id="path10056"
     inkscape:flatsided="false"
     sodipodi:sides="5"
     sodipodi:cx="325.00555"
     sodipodi:cy="-217.28941"
     sodipodi:r1="102.84287"
     sodipodi:r2="65.922279"
     sodipodi:arg1="0.87490198"
     sodipodi:arg2="1.5032205"
     inkscape:rounded="0.03"
     inkscape:randomized="0"
     d="m 390.93525,-138.3595 c -1.44756,1.20914 -59.59652,-13.28545 -61.47833,-13.15809 -1.88182,0.12736 -57.5475,22.3248 -59.14478,21.32173 -1.59728,-1.00307 -5.78112,-60.78509 -6.48376,-62.53545 -0.70264,-1.75035 -39.0153,-47.83218 -38.55491,-49.66124 0.46039,-1.82907 56.02359,-24.2818 57.47115,-25.49094 1.44756,-1.20914 33.43472,-51.88671 35.31653,-52.01407 1.88182,-0.12736 40.4056,45.77811 42.00288,46.78118 1.59728,1.00307 59.67909,15.76443 60.38173,17.51479 0.70264,1.75035 -31.05155,52.57422 -31.51194,54.40329 -0.46039,1.82907 3.44899,61.62966 2.00143,62.8388 z"
     inkscape:transform-center-x="0.44695023"
     inkscape:transform-center-y="-7.1871653"
     transform="matrix(0.27375191,0.01284067,-0.01391232,0.2526652,167.96296,337.00978)" /><circle
     style="fill:#ffce45;fill-opacity:1;fill-rule:evenodd;stroke-width:0.126421"
     id="circle10196"
     cx="260.41248"
     cy="251.83949"
     r="2.582653" /><circle
     style="fill:#ffce45;fill-opacity:1;fill-rule:evenodd;stroke-width:0.126421"
     id="circle10267"
     cx="294.13889"
     cy="275.84299"
     r="2.582653" /><circle
     style="fill:#ffce45;fill-opacity:1;fill-rule:evenodd;stroke-width:0.126421"
     id="circle10269"
     cx="227.90143"
     cy="276.75449"
     r="2.582653" /><circle
     style="fill:#ffce45;fill-opacity:1;fill-rule:evenodd;stroke-width:0.126421"
     id="circle10271"
     cx="240.96661"
     cy="314.43085"
     r="2.582653" /><circle
     style="fill:#ffce45;fill-opacity:1;fill-rule:evenodd;stroke-width:0.126421"
     id="circle10273"
     cx="281.98523"
     cy="313.21548"
     r="2.582653" /><path
     sodipodi:type="star"
     style="opacity:1;fill:#ffffff;fill-opacity:1;stroke:none;stroke-width:4.009;stroke-linecap:square;stroke-linejoin:bevel;stroke-dasharray:none;stroke-opacity:1;paint-order:stroke fill markers;stop-color:#000000"
     id="path22966"
     inkscape:flatsided="false"
     sodipodi:sides="4"
     sodipodi:cx="336.92456"
     sodipodi:cy="204.66245"
     sodipodi:r1="44.898132"
     sodipodi:r2="18.408234"
     sodipodi:arg1="1.5617876"
     sodipodi:arg2="2.3471857"
     inkscape:rounded="-0.03"
     inkscape:randomized="0"
     d="m 337.32903,249.55876 c 1.03305,-0.009 -14.04032,-32.48689 -13.30327,-31.76299 0.73706,0.72389 -32.00682,-13.7619 -31.99751,-12.72886 0.009,1.03305 32.48689,-14.04032 31.76299,-13.30326 -0.7239,0.73706 13.7619,-32.00682 12.72885,-31.99752 -1.03305,0.009 14.04032,32.48689 13.30327,31.76299 -0.73706,-0.72389 32.00682,13.76191 31.99751,12.72886 -0.009,-1.03305 -32.48688,14.04032 -31.76299,13.30326 0.7239,-0.73706 -13.7619,32.00682 -12.72885,31.99752 z"
     transform="matrix(0.18648654,0,0,0.25238779,208.04252,219.73981)" /><path
     sodipodi:type="star"
     style="opacity:1;fill:#ffffff;fill-opacity:1;stroke:none;stroke-width:4.009;stroke-linecap:square;stroke-linejoin:bevel;stroke-dasharray:none;stroke-opacity:1;paint-order:stroke fill markers;stop-color:#000000"
     id="path23592"
     inkscape:flatsided="false"
     sodipodi:sides="4"
     sodipodi:cx="336.92456"
     sodipodi:cy="204.66245"
     sodipodi:r1="44.898132"
     sodipodi:r2="18.408234"
     sodipodi:arg1="1.5617876"
     sodipodi:arg2="2.3471857"
     inkscape:rounded="-0.03"
     inkscape:randomized="0"
     d="m 337.32903,249.55876 c 1.03305,-0.009 -14.04032,-32.48689 -13.30327,-31.76299 0.73706,0.72389 -32.00682,-13.7619 -31.99751,-12.72886 0.009,1.03305 32.48689,-14.04032 31.76299,-13.30326 -0.7239,0.73706 13.7619,-32.00682 12.72885,-31.99752 -1.03305,0.009 14.04032,32.48689 13.30327,31.76299 -0.73706,-0.72389 32.00682,13.76191 31.99751,12.72886 -0.009,-1.03305 -32.48688,14.04032 -31.76299,13.30326 0.7239,-0.73706 -13.7619,32.00682 -12.72885,31.99752 z"
     transform="matrix(0.10990997,0,0,0.14875033,227.97822,252.07499)" /></svg>
