<svg id="Layer_1" data-name="Layer 1" xmlns="http://www.w3.org/2000/svg" xmlns:xlink="http://www.w3.org/1999/xlink" viewBox="0 0 300 345"><defs><style>.cls-1{fill:#1d1f35;}.cls-2{fill:#2d2f4a;}.cls-3{fill:#454866;}.cls-4{fill:#1ca054;}.cls-5{fill:#2dc973;}.cls-6{fill:#281d12;}.cls-7{fill:#4b4035;}.cls-8{fill:#bf741b;}.cls-9{fill:#f4a42f;}.cls-10{fill:#222438;}.cls-11{fill:#3d415b;}.cls-12{fill:#3b3e5b;}.cls-13{fill:url(#linear-gradient);}.cls-14{fill:#e57e30;}.cls-15{fill:#c1541e;}.cls-16{fill:#2d1c10;}.cls-17{fill:#19110b;}.cls-18{fill:#5c3f25;}.cls-19{fill:#efac4d;}.cls-20{fill:#aa4417;opacity:0.68;isolation:isolate;}.cls-21{fill:#d38824;}.cls-22{fill:#f9c83e;}.cls-23{fill:#47301c;}</style><linearGradient id="linear-gradient" x1="150" y1="290.34" x2="150" y2="245.61" gradientTransform="matrix(1, 0, 0, -1, 0, 346)" gradientUnits="userSpaceOnUse"><stop offset="0" stop-color="#e57e30"/><stop offset="1" stop-color="#842b10"/></linearGradient></defs><path class="cls-1" d="M300,249v55.76C300,327,283.71,345,263.62,345H36.38C16.29,345,0,327,0,304.73V249a43.07,43.07,0,0,1,.22-4.4h0c2-20.16,17.42-35.86,36.16-35.86H263.62c18.74,0,34.18,15.7,36.16,35.86h0A43.07,43.07,0,0,1,300,249Z"/><path class="cls-2" d="M262.35,251.28c9.68,0,17.53,9.68,17.53,21.63v24.16c0,26.47-14.1,47.93-31.49,47.93H51.61c-17.39,0-31.49-21.46-31.49-47.93V272.91c0-12,7.85-21.63,17.53-21.63Z"/><rect class="cls-2" y="153.25" width="300" height="82.98" rx="19.2"/><rect class="cls-3" y="136.37" width="300" height="82.98" rx="19.2"/><rect class="cls-2" x="23.72" y="154.25" width="252.56" height="47.22" rx="14.43"/><path class="cls-4" d="M276.28,185.56v1.78a14.43,14.43,0,0,1-13,14H37.41a14.42,14.42,0,0,1-13.68-14.07v-1.82A14.43,14.43,0,0,1,38.16,171h223.7a14.43,14.43,0,0,1,14.42,14.44Z"/><circle class="cls-4" cx="42.85" cy="171.86" r="11.27"/><circle class="cls-5" cx="42.85" cy="174.38" r="8.92"/><circle class="cls-4" cx="254.57" cy="171.33" r="9.05"/><circle class="cls-5" cx="254.57" cy="173.35" r="7.17" transform="translate(42.68 396.87) rotate(-80.78)"/><circle class="cls-4" cx="59.01" cy="175.03" r="6.48"/><path class="cls-6" d="M7.86,43.1C22.77,55.53,44.61,72.73,58,78.75c3.15,1.41,4.58,4.67,3.32,7.59C55,101.07,80,107.83,80,107.83l-1.85,44s-7.73-9.28-38.13-2.43c-4,.89-7.7-2-7.13-5.6,2.4-15.25-8.95-20.74-18.24-22.71-4.42-.93-6.73-5.27-4.68-8.84,5.11-8.92,3.53-33.21-9.67-64.8C-1.39,43.43,4.3,40.13,7.86,43.1Z"/><path class="cls-7" d="M75.79,146.94h0a2.36,2.36,0,0,1-3.11,1.8c-4.6-1.61-12.59-2.82-25.71-.66a2.35,2.35,0,0,1-2.25-3.74C51.83,135,62.59,123,70.55,123.18c3.45.09,5.22,2.77,6,6.66C77.41,134.58,76.78,141.12,75.79,146.94Z"/><path class="cls-7" d="M15.52,109.59c-2.59,1.46-4.26.27-3.64-2.64,2.06-9.69.3-26.59-7.07-47.74a2.93,2.93,0,0,1,4.44-3.38A110,110,0,0,1,30.82,74.61C44.26,90.26,26.19,103.57,15.52,109.59Z"/><path class="cls-7" d="M37.69,139.49A2.6,2.6,0,0,1,33.14,138c-.67-7.7-5.6-12.11-11.26-14.62l-.32-.15-.12,0-.25-.11a2.32,2.32,0,0,1-.22-4.2c9.29-4.91,24.59-11.85,29-7C54.14,116.49,44.26,131.87,37.69,139.49Z"/><circle class="cls-5" cx="59.01" cy="177.69" r="4.66"/><path class="cls-5" d="M276.27,187.38a14.43,14.43,0,0,1-13,14H37.41a14.42,14.42,0,0,1-13.68-14.07c.18-6.76,6.57-12.2,14.42-12.2h223.7C269.7,175.18,276.09,180.62,276.27,187.38Z"/><path class="cls-6" d="M69.36,168.55c-4.73,0-13.56,17.56-16.37,27.68l23.29,7.65Z"/><path class="cls-8" d="M169,271.89a9.74,9.74,0,0,1,9.73,9.72v11.13a9.74,9.74,0,0,1-9.73,9.72H131.3a9.73,9.73,0,0,1-9.72-9.72V281.61a9.73,9.73,0,0,1,9.72-9.72H169m0-11H131.3a20.71,20.71,0,0,0-20.72,20.7v11.15a20.72,20.72,0,0,0,20.72,20.72H169a20.74,20.74,0,0,0,20.73-20.72V281.61A20.72,20.72,0,0,0,169,260.89Z"/><path class="cls-9" d="M169,277.45a9.74,9.74,0,0,1,9.73,9.72v11.14A9.74,9.74,0,0,1,169,308H131.3a9.73,9.73,0,0,1-9.72-9.72V287.17a9.73,9.73,0,0,1,9.72-9.72H169m0-11H131.3a20.72,20.72,0,0,0-20.72,20.72h0v11.14A20.72,20.72,0,0,0,131.3,319H169a20.74,20.74,0,0,0,20.73-20.72V287.17A20.74,20.74,0,0,0,169,266.45Z"/><path class="cls-6" d="M231,168.55c4.73,0,13.56,17.56,16.38,27.68l-23.3,7.65Z"/><rect class="cls-10" x="128.48" y="262.29" width="43.04" height="22.12" rx="6.85"/><rect class="cls-11" x="128.48" y="253.84" width="43.04" height="22.12" rx="6.85"/><ellipse class="cls-12" cx="48.26" cy="284.42" rx="25.75" ry="18.38" transform="translate(-196.12 131.12) rotate(-48.27)"/><circle class="cls-3" cx="71.88" cy="310.5" r="10.48" transform="translate(-17.06 4.45) rotate(-3.17)"/><ellipse class="cls-1" cx="251.46" cy="316.13" rx="25.75" ry="18.38" transform="translate(-151.84 293.36) rotate(-48.27)"/><circle class="cls-1" cx="227.83" cy="290.05" r="10.48"/><path class="cls-6" d="M292.53,43.1c-14.91,12.43-36.75,29.63-50.15,35.65-3.16,1.41-4.58,4.67-3.33,7.59,6.35,14.73-18.67,21.49-18.67,21.49l1.85,44s7.73-9.28,38.14-2.43c4,.89,7.69-2,7.13-5.6-2.41-15.25,8.94-20.74,18.23-22.71,4.42-.93,6.74-5.27,4.69-8.84-5.12-8.92-3.54-33.21,9.67-64.8C301.78,43.43,296.1,40.13,292.53,43.1Z"/><path class="cls-7" d="M224.6,146.94h0a2.36,2.36,0,0,0,3.11,1.8c4.6-1.61,12.6-2.82,25.71-.66a2.35,2.35,0,0,0,2.25-3.74C248.56,135,237.8,123,229.84,123.18c-3.45.09-5.22,2.77-6,6.66C223,134.58,223.61,141.12,224.6,146.94Z"/><path class="cls-7" d="M284.88,109.59c2.58,1.46,4.25.27,3.64-2.64-2.07-9.69-.31-26.59,7.07-47.74a2.94,2.94,0,0,0-4.44-3.38,109.73,109.73,0,0,0-21.58,18.78C256.14,90.26,274.2,103.57,284.88,109.59Z"/><path class="cls-7" d="M262.7,139.49a2.6,2.6,0,0,0,4.55-1.45c.67-7.7,5.6-12.11,11.26-14.62l.32-.15.12,0,.25-.11a2.32,2.32,0,0,0,.22-4.2c-9.29-4.91-24.59-11.85-29-7C246.25,116.49,256.13,131.87,262.7,139.49Z"/><path class="cls-13" d="M231,78.34v26.73H69V78.34A19.66,19.66,0,0,1,88.63,58.69H211.42A19.66,19.66,0,0,1,231,78.34Z"/><path class="cls-14" d="M231,103.51v97.57c0,.1,0,.2,0,.3H69V202c0-.2,0-.41,0-.62s0-.2,0-.3V103.51A19.53,19.53,0,0,1,74.38,90c.18-.18.36-.37.54-.54a19.59,19.59,0,0,1,7.88-4.71,19.82,19.82,0,0,1,5.85-.88H211.37q.72,0,1.41.06l.65,0a18.09,18.09,0,0,1,3,.54c.59.15,1.17.34,1.73.54l.93.37a18.59,18.59,0,0,1,1.68.81l0,0c.28.15.55.31.82.48a19.67,19.67,0,0,1,8,9.32c.22.53.42,1.08.59,1.63A19.73,19.73,0,0,1,231,103.51Z"/><path class="cls-15" d="M135,180.43l-9.91,5.82h0c-2.64-.17-5.89-7.54-8.14-15.33-.24.08-.48.15-.73.21a30.29,30.29,0,0,1-4.83.83,29.35,29.35,0,0,1-4.59,0c.21,5.59.57,6.53.57,6.53h0a33.88,33.88,0,0,1-13.24-3.41c-10-4.88-21.37-16.66-21.37-45,0-13.36-.11-18.19,3.38-25S88.48,90.43,92.37,94.22c5,4.87,4.18,23.87,4.18,23.87l0,0,18.47,12-4.44-7.31,0,0-1.13-1.86,0,0-1-1.61h0a73.66,73.66,0,0,1-2.74-18.08c0-8.31,13.77-17.31,27.23-17.31H88.65a19.82,19.82,0,0,0-5.85.88,19.59,19.59,0,0,0-7.88,4.71c-.18.17-.36.36-.54.54A19.59,19.59,0,0,0,69,103.51v97.87h40.42l10.71-1.24,8.46-.25L141.38,190A14,14,0,0,1,150,187v-6.57Z"/><path class="cls-15" d="M165,180.43l9.91,5.82h0c2.64-.17,5.89-7.54,8.14-15.33.24.08.48.15.73.21a30.29,30.29,0,0,0,4.83.83,29.35,29.35,0,0,0,4.59,0c-.21,5.59-.57,6.53-.57,6.53h0a33.88,33.88,0,0,0,13.24-3.41c10-4.88,21.37-16.66,21.37-45,0-13.36.11-18.19-3.38-25s-12.34-14.64-16.23-10.85c-5,4.87-4.18,23.87-4.18,23.87l0,0L185,130.1l4.44-7.31,0,0,1.13-1.86,0,0,1-1.61h0a73.66,73.66,0,0,0,2.74-18.08c0-8.31-13.77-17.31-27.23-17.31h44.28a19.82,19.82,0,0,1,5.85.88,19.59,19.59,0,0,1,7.88,4.71l.54.54A19.59,19.59,0,0,1,231,103.51v97.87H190.58l-10.71-1.24-8.46-.25L158.62,190A14,14,0,0,0,150,187v-6.57Z"/><path class="cls-16" d="M220.38,170.84s0,1.66-.29,4.27c-.67,6.54-2.92,19-10.45,26.27H90.36c-7.53-7.23-9.78-19.73-10.45-26.27-.27-2.61-.29-4.27-.29-4.27,1.14,1.33,3.67,2.82,6.69,4.27.71.34,1.44.68,2.19,1h0c2.45,1.09,5.07,2.12,7.46,3l1.28.47c2.29.85,4.26,1.52,5.52,1.93l1.42.47s7,11,12.22,13.33a5.4,5.4,0,0,0,1,.34,3.29,3.29,0,0,0,1,.08c5.26-.53,20-12.54,20-12.54h23s13.94,11.35,19.55,12.46c.18,0,.36.06.52.08a3.06,3.06,0,0,0,1-.08,5,5,0,0,0,1-.34C188.81,193,195.79,182,195.79,182l.24-.07.16-.05.21-.07.84-.28.38-.13.39-.13.88-.3.49-.17c.82-.28,1.76-.61,2.76-1h0l1.24-.45c2.55-.95,5.43-2.07,8.11-3.26.75-.33,1.48-.67,2.19-1C216.71,173.66,219.24,172.17,220.38,170.84Z"/><path class="cls-17" d="M211.5,176.12c-.55,6.15-2.48,18.21-9.12,25.26H97.64c-6.63-7-8.56-19.1-9.11-25.25h0c2.45,1.08,5.07,2.12,7.46,3l1.28.47c2.29.83,4.26,1.51,5.52,1.93l1.45.47s6.93,11,12.19,13.33a5.4,5.4,0,0,0,1,.34,3.29,3.29,0,0,0,1,.08h0c5.25-.53,20-12.54,20-12.54h23S175.4,194.53,181,195.68c.18,0,.36.06.52.08a3.06,3.06,0,0,0,1-.08,5,5,0,0,0,1-.34C188.82,193,195.82,182,195.82,182l.21-.07.16-.05.21-.07.84-.28.38-.13.39-.13.88-.3.49-.17c.82-.28,1.76-.61,2.76-1h0l1.24-.45C205.94,178.43,208.82,177.31,211.5,176.12Z"/><path class="cls-15" d="M134,157.8s4.67-24.5-25.5-38.54a19.19,19.19,0,0,0-23.26,6.34l15.25,28.71Z"/><path class="cls-18" d="M134,157.8a29.24,29.24,0,0,1-17.73,13.33,30.29,30.29,0,0,1-4.83.83,29.25,29.25,0,0,1-26.2-46.31h0A78.64,78.64,0,0,1,93,127.83C115.55,135.47,129.54,151.94,134,157.8Z"/><path class="cls-6" d="M134,157.8a29.24,29.24,0,0,1-17.73,13.33A29.23,29.23,0,0,1,93,127.79C115.55,135.47,129.54,151.94,134,157.8Z"/><path class="cls-15" d="M166.05,157.8s-4.67-24.5,25.5-38.54a19.19,19.19,0,0,1,23.26,6.34l-15.25,28.71Z"/><path class="cls-18" d="M166.05,157.8a29.2,29.2,0,0,0,17.78,13.33,30.49,30.49,0,0,0,4.83.83,29.24,29.24,0,0,0,26.2-46.31h0a79.42,79.42,0,0,0-7.76,2.18C184.45,135.47,170.46,151.94,166.05,157.8Z"/><path class="cls-6" d="M166.05,157.8a29.2,29.2,0,0,0,17.78,13.33,29.23,29.23,0,0,0,23.26-43.34C184.45,135.47,170.46,151.94,166.05,157.8Z"/><ellipse class="cls-19" cx="125.09" cy="123.4" rx="8.88" ry="18.17" transform="translate(-42.05 177.61) rotate(-62.58)"/><ellipse class="cls-19" cx="174.91" cy="123.42" rx="18.17" ry="8.88" transform="translate(-37.19 94.41) rotate(-27.42)"/><path class="cls-19" d="M150,155s-13.4,13.74-8.68,14.7a67.07,67.07,0,0,1,8.68,2.36Z"/><path class="cls-20" d="M191.15,58.69l-5.37,14.25c-1.23,3.24-3.78,5.28-6.59,5.28H121c-2.8,0-5.36-2.11-6.59-5.28L109,58.69Z"/><path class="cls-9" d="M194.86,46.52l-8.09,20.86c-1.26,3.24-3.88,5.28-6.77,5.28H120.15c-2.87,0-5.5-2.11-6.76-5.28L105.3,46.52a10,10,0,0,1-.52-5.4c.75-4.16,4.06-7.33,7.87-6.28l8.94,2.46c3.17.86,6.35-.53,8.46-3.6l11.7-17.6c4.33-6.47,12.27-6.48,16.6,0l11.81,17.63c2.05,3.06,5.29,4.44,8.46,3.58l8.94-2.46C192.9,33.36,197.27,40.31,194.86,46.52Z"/><circle class="cls-9" cx="150" cy="6.99" r="6.99"/><circle class="cls-9" cx="104.62" cy="32.75" r="7.06"/><circle class="cls-9" cx="195.55" cy="32.75" r="7.06"/><path class="cls-21" d="M141.75,16.1s-6.63,17.81-11.63,25-17.46-6.28-17.46-6.28l8.94,2.46c3.17.86,6.35-.53,8.46-3.6Z"/><path class="cls-21" d="M158.46,16.1s6.63,17.81,11.63,25,17.46-6.28,17.46-6.28l-9,2.46c-3.18.86-6.35-.53-8.46-3.6Z"/><circle class="cls-22" cx="105.63" cy="31.03" r="4.11"/><circle class="cls-22" cx="194.4" cy="31.03" r="4.11"/><circle class="cls-22" cx="150.08" cy="5.35" r="4.11"/><path class="cls-21" d="M195.38,41.12s-9.35,20-45.22,20H150c-35.87,0-45.22-20-45.22-20a10,10,0,0,0,.52,5.4l8.09,20.86c1.26,3.24,3.89,5.28,6.76,5.28H180c2.88,0,5.51-2.11,6.77-5.28l8.09-20.86A10.06,10.06,0,0,0,195.38,41.12Z"/><path class="cls-22" d="M111,43.24a27.41,27.41,0,0,0,21,11.32C127.2,46.93,107.78,35.09,111,43.24Z"/><path class="cls-22" d="M189.12,43.24a27.37,27.37,0,0,1-21,11.32C173,46.93,192.38,35.09,189.12,43.24Z"/><path class="cls-22" d="M150.16,17.33H150s-9.08.05-7,16.59,7.07,22.2,7.07,22.2,5-5.62,7.07-22.2S150.16,17.33,150.16,17.33Z"/><path class="cls-23" d="M215.43,205c1-3.16,2.68-13.34-7.33-14.91s-15.8,8.63-15.8,13.34,1.93,18.87,7.71,19.11S214.48,208.16,215.43,205Z"/><path class="cls-23" d="M235.4,203.31c.2-3.39-.44-14.09-10.33-14.33S211.94,200,213,204.87s6,19.13,11.62,18.59S235.19,206.7,235.4,203.31Z"/><path class="cls-23" d="M232.43,204.2c-.43-3.06-.55-12.77,9.15-13.25s13.64,9.66,12.94,14.08-4.62,17.48-10.12,17.13S232.86,207.27,232.43,204.2Z"/><path class="cls-6" d="M195.05,196.14c-.46,5.62-.22,10.15,4.68,14.44,7.93,5.08,13.21-9.56,13.21-9.56h0a15.81,15.81,0,0,1,.58-2.65c1.14,7.62,3.94,11,7,12.33h0c6.65,2.68,11-9,12.25-12.71.1-.37.21-.75.35-1.12a29.21,29.21,0,0,0,9.25,11.86c7,5.42,11.53-8.68,11.53-8.68l0,0a11.07,11.07,0,0,1,.61,5c-.7,4.41-4.63,17.48-10.13,17.13-3.93-.25-8.13-7.74-10.37-13.12-1.89,6-5.52,14-9.42,14.42-4.57.44-8.76-9.11-10.69-15.23-2.94,5.38-9.33,14.49-13.9,14.3-5.79-.25-7.72-14.4-7.72-19.11A14,14,0,0,1,195.05,196.14Z"/><path class="cls-23" d="M85,205c-1-3.16-2.67-13.34,7.34-14.91s15.79,8.63,15.79,13.34-1.92,18.87-7.71,19.11S85.91,208.16,85,205Z"/><path class="cls-23" d="M65,203.31c-.21-3.39.43-14.09,10.32-14.33S88.45,200,87.4,204.87,81.35,224,75.79,223.46,65.2,206.7,65,203.31Z"/><path class="cls-23" d="M68,204.2c.43-3.06.54-12.77-9.15-13.25s-13.65,9.66-13,14.08S50.5,222.51,56,222.16,67.53,207.27,68,204.2Z"/><path class="cls-6" d="M105.35,196.14c.46,5.62.22,10.15-4.69,14.44-7.93,5.08-13.2-9.56-13.2-9.56h0a18.07,18.07,0,0,0-.58-2.65c-1.14,7.62-3.95,11-7,12.33h0c-6.64,2.68-11-9-12.25-12.71-.09-.37-.21-.75-.34-1.12A29.21,29.21,0,0,1,58,208.73c-7,5.42-11.53-8.68-11.53-8.68l0,0a11.07,11.07,0,0,0-.61,5c.7,4.41,4.63,17.48,10.13,17.13,3.93-.25,8.13-7.74,10.36-13.12,1.9,6,5.53,14,9.43,14.42,4.57.44,8.75-9.11,10.69-15.23,2.94,5.38,9.32,14.49,13.9,14.3,5.79-.25,7.72-14.4,7.72-19.11A14,14,0,0,0,105.35,196.14Z"/></svg>