<?xml version="1.0" encoding="UTF-8" standalone="no"?>
<svg
   viewBox="0 0 300 345"
   version="1.1"
   id="svg2093"
   sodipodi:docname="Bandit Racoon.svg"
   xml:space="preserve"
   inkscape:version="1.2 (dc2aedaf03, 2022-05-15)"
   xmlns:inkscape="http://www.inkscape.org/namespaces/inkscape"
   xmlns:sodipodi="http://sodipodi.sourceforge.net/DTD/sodipodi-0.dtd"
   xmlns="http://www.w3.org/2000/svg"
   xmlns:svg="http://www.w3.org/2000/svg"><sodipodi:namedview
     id="namedview2095"
     pagecolor="#505050"
     bordercolor="#ffffff"
     borderopacity="1"
     inkscape:showpageshadow="0"
     inkscape:pageopacity="0"
     inkscape:pagecheckerboard="1"
     inkscape:deskcolor="#505050"
     showgrid="false"
     inkscape:zoom="0.60503264"
     inkscape:cx="157.84272"
     inkscape:cy="262.79574"
     inkscape:window-width="1366"
     inkscape:window-height="705"
     inkscape:window-x="-8"
     inkscape:window-y="-8"
     inkscape:window-maximized="1"
     inkscape:current-layer="svg2093"
     showguides="true" /><defs
     id="defs2053"><inkscape:path-effect
       effect="fillet_chamfer"
       id="path-effect19169"
       is_visible="true"
       lpeversion="1"
       nodesatellites_param="F,0,0,1,0,3,0,1 @ F,0,0,1,0,3,0,1 @ F,0,0,1,0,3,0,1 @ F,0,0,1,0,3,0,1"
       unit="px"
       method="auto"
       mode="F"
       radius="3"
       chamfer_steps="1"
       flexible="false"
       use_knot_distance="true"
       apply_no_radius="true"
       apply_with_radius="true"
       only_selected="false"
       hide_knots="false" /><linearGradient
       id="A"
       x1="150"
       y1="356.11"
       x2="150"
       y2="161.16"
       gradientUnits="userSpaceOnUse"><stop
         offset="0"
         stop-color="#414042"
         id="stop23813" /><stop
         offset=".52"
         stop-color="#353333"
         id="stop23815" /></linearGradient></defs><path
     id="path12655"
     style="fill:#292c2f;fill-opacity:1;fill-rule:evenodd;stroke-width:0.713167"
     d="m 88.427358,41.209255 c 8.232045,6.600356 37.226552,14.303434 31.769522,20.106653 -5.45703,5.803218 -36.082264,2.020997 -44.314291,-4.579363 -8.232044,-6.600361 -12.604231,-14.695435 -7.147197,-20.498654 5.457033,-5.80322 11.459948,-1.628998 19.691966,4.971364 z"
     sodipodi:nodetypes="sssss" /><path
     id="path13384"
     style="fill:#292c2f;fill-opacity:1;fill-rule:evenodd;stroke-width:0.713167"
     d="m 211.57265,41.209253 c -8.23205,6.60036 -37.22656,14.30344 -31.76952,20.106659 5.45703,5.80322 36.08226,2.020995 44.3143,-4.579365 8.23202,-6.60036 12.60423,-14.695435 7.14719,-20.498655 -5.45704,-5.803218 -11.45995,-1.629 -19.69197,4.971361 z"
     sodipodi:nodetypes="sssss" /><path
     d="M 263.62,345 H 36.38 A 36.38,36.38 0 0 1 0,308.62 v -49.48 h 300 v 49.48 A 36.38,36.38 0 0 1 263.62,345 Z"
     fill="url(#A)"
     id="path23820"
     style="fill:url(#A)" /><path
     d="m 299.58,75.84 c -1.4,-24.53 -6.8,-48.07 -22,-50.12 -12.2,-1.64 -27.3,7.36 -41.47,19.28 H 63.9 C 49.75,33.08 34.63,24.08 22.44,25.72 7.2,27.77 1.83,51.3 0.42,75.84 A 36.22,36.22 0 0 0 0,81.38 V 262 a 36.38,36.38 0 0 0 36.38,36.38 H 263.62 A 36.38,36.38 0 0 0 300,262 V 81.38 a 36.22,36.22 0 0 0 -0.42,-5.54 z"
     fill="#6d6e71"
     id="path23822" /><g
     fill="#ecf7fe"
     id="g23828"><path
       d="m 67.6,242 c 0,0 11.4,56.4 82.4,56.4 71,0 82.4,-56.4 82.4,-56.4 l -83.57,-24.25 z"
       id="path23824" /><path
       d="m 88.6,261 c 0,0 -12.42,9.6 -22.38,12 -9.96,2.4 2.4,12.74 14.78,10.12 0,0 -4.1,3.67 -1.9,8 2.2,4.33 15.78,1.2 21.2,-8.76"
       id="path23826" /></g><path
     d="m 88.6,261 a 75.56,75.56 0 0 1 -10.31,8.15 63.12,63.12 0 0 1 -5.77,3.33 l -3.1,1.4 a 15.68,15.68 0 0 1 -1.62,0.59 l -1.54,0.52 c -0.83,0.27 -1.53,0.78 -1.56,1 -0.03,0.22 0,0 0,0.13 a 1.92,1.92 0 0 0 0.3,0.55 7.18,7.18 0 0 0 1.77,1.58 15.39,15.39 0 0 0 2.45,1.3 19.76,19.76 0 0 0 11.23,1.21 l 9.83,-2 -7.63,6.25 a 4.71,4.71 0 0 0 -0.49,0.5 7.62,7.62 0 0 0 -0.48,0.64 5.78,5.78 0 0 0 -0.68,1.33 3.38,3.38 0 0 0 0.07,2.54 c 0.06,0.15 0,0.1 0,0.15 l 0.05,0.1 a 1.27,1.27 0 0 0 0.31,0.25 4.23,4.23 0 0 0 1.34,0.42 12.05,12.05 0 0 0 3.67,-0.12 22.17,22.17 0 0 0 7.55,-2.9 22.68,22.68 0 0 0 6.31,-5.58 18.14,18.14 0 0 1 -5,7.33 21,21 0 0 1 -3.69,2.71 20.3,20.3 0 0 1 -4.27,1.91 14.39,14.39 0 0 1 -4.9,0.71 7.63,7.63 0 0 1 -2.83,-0.62 5.57,5.57 0 0 1 -1.48,-0.94 5.7,5.7 0 0 1 -0.66,-0.72 5.76,5.76 0 0 1 -0.48,-0.79 8,8 0 0 1 -0.57,-5.87 9.83,9.83 0 0 1 1.15,-2.57 11,11 0 0 1 0.78,-1.11 11.37,11.37 0 0 1 1,-1.09 l 2.15,4.25 a 22.44,22.44 0 0 1 -14.24,-1.63 17.55,17.55 0 0 1 -3.18,-1.9 10.68,10.68 0 0 1 -2.8,-3 5.64,5.64 0 0 1 -0.83,-2.47 4.26,4.26 0 0 1 0.84,-2.95 5.38,5.38 0 0 1 2,-1.6 9.07,9.07 0 0 1 1.94,-0.69 l 1.6,-0.35 a 13.63,13.63 0 0 0 1.49,-0.39 l 3,-1 c 2,-0.73 3.93,-1.6 5.88,-2.5 3.8,-1.82 7.62,-3.9 11.4,-6.06 z"
     fill="#414042"
     id="path23830" /><path
     d="m 212.82,262 c 0,0 11,8.6 21,11 10,2.4 -2.4,12.76 -14.8,10.14 0,0 4.1,3.67 1.9,8 -2.2,4.33 -15.78,1.2 -21.2,-8.76"
     fill="#ecf7fe"
     id="path23832" /><path
     d="m 212.82,262 a 116.4,116.4 0 0 0 11.18,5.71 56.43,56.43 0 0 0 5.72,2.24 l 2.9,0.84 1.45,0.32 a 13.69,13.69 0 0 1 1.77,0.46 6.9,6.9 0 0 1 1.93,1 4.51,4.51 0 0 1 1.63,2.26 4.69,4.69 0 0 1 -0.06,2.86 7.13,7.13 0 0 1 -1.08,2 12.44,12.44 0 0 1 -2.82,2.64 18.59,18.59 0 0 1 -3.13,1.75 22.41,22.41 0 0 1 -13.79,1.42 l 2.15,-4.25 a 11.37,11.37 0 0 1 1,1.09 11,11 0 0 1 0.78,1.11 9.83,9.83 0 0 1 1.15,2.57 8,8 0 0 1 -0.57,5.87 5.76,5.76 0 0 1 -0.48,0.79 5.7,5.7 0 0 1 -0.66,0.72 5.57,5.57 0 0 1 -1.48,0.94 7.63,7.63 0 0 1 -2.83,0.62 14.39,14.39 0 0 1 -4.9,-0.71 20.3,20.3 0 0 1 -4.27,-1.91 21,21 0 0 1 -3.69,-2.71 18.14,18.14 0 0 1 -5,-7.33 22.68,22.68 0 0 0 6.31,5.58 22.17,22.17 0 0 0 7.52,2.86 12.05,12.05 0 0 0 3.67,0.12 4.23,4.23 0 0 0 1.34,-0.42 1.27,1.27 0 0 0 0.31,-0.25 l 0.05,-0.1 v -0.15 a 3.38,3.38 0 0 0 0.07,-2.54 5.78,5.78 0 0 0 -0.68,-1.33 7.62,7.62 0 0 0 -0.48,-0.64 4.71,4.71 0 0 0 -0.49,-0.5 l -7.66,-6.2 9.82,2 a 19.69,19.69 0 0 0 10.88,-1.07 11.71,11.71 0 0 0 4.31,-2.71 3,3 0 0 0 0.49,-0.69 c 0.1,-0.2 0.1,-0.23 0.1,-0.23 0,0 0,-0.1 -0.14,-0.28 a 2.9,2.9 0 0 0 -0.8,-0.53 9.7,9.7 0 0 0 -1.23,-0.47 l -1.58,-0.52 -3,-1.27 a 51.71,51.71 0 0 1 -5.67,-3.11 63.28,63.28 0 0 1 -10.04,-7.84 z"
     fill="#414042"
     id="path23834" /><path
     d="m 300,162.1 c -10.57,-20.42 -30.14,-42.2 -65.52,-42.2 -52.9,0 -76.86,38.2 -84.48,54 -7.62,-15.75 -31.58,-54 -84.48,-54 -35.38,0 -54.95,21.77 -65.52,42.2 v 37.3 l 120.56,24.05 h 58.88 L 300,199.42 Z"
     fill="#ecf7fe"
     id="path23836" /><path
     d="m 298.2,174.43 c -5.36,-8.74 -23.5,-31.35 -65.05,-25.75 a 58.89,58.89 0 0 0 -17.35,5.18 c 0.16,-3.86 -1.53,-6.7 -6.26,-7.45 -16,-2.6 -28.76,22.9 -33.05,32.77 A 15.77,15.77 0 0 1 163.61,165.5 c -0.12,-1 -4.84,-19.2 -5.58,-22.4 -2.58,-11.2 -13.46,-11.2 -16,0 -0.74,3.2 -5.46,21.4 -5.58,22.4 a 15.77,15.77 0 0 1 -12.88,13.68 c -4.3,-9.88 -17,-35.36 -33,-32.77 -4.73,0.76 -6.42,3.6 -6.26,7.45 a 58.89,58.89 0 0 0 -17.35,-5.18 c -41.55,-5.6 -59.7,17 -65,25.75 A 12.22,12.22 0 0 0 0,180.85 v 55.6 a 12.06,12.06 0 0 0 0.71,4.12 c 2.17,6 10.38,22.88 41.52,29.66 42,9.15 46.76,-12.8 64.3,-28.58 a 22.28,22.28 0 0 1 15.2,-6.09 c 9.26,0 15.87,13.33 20.36,17.05 a 12.33,12.33 0 0 0 15.82,0 c 4.5,-3.72 11.1,-17.05 20.36,-17.05 a 22.28,22.28 0 0 1 15.2,6.09 c 17.54,15.77 24.5,38.63 64.3,28.58 30.9,-7.8 39.35,-23.68 41.52,-29.66 a 12.06,12.06 0 0 0 0.71,-4.12 v -55.6 a 12.22,12.22 0 0 0 -1.81,-6.42 z"
     fill="#414042"
     id="path23838" /><path
     d="M 162.7,279.2 150,260.46 137.3,279.21"
     fill="none"
     stroke="#231f20"
     stroke-linecap="round"
     stroke-miterlimit="10"
     stroke-width="10"
     id="path23840" /><g
     fill="#231f20"
     id="g23848"><path
       d="m 131.5,250.27 c 0,7.85 10.75,15.22 18.5,15.22 7.75,0 18.5,-8.34 18.5,-15.22 0,-6.88 -37.02,-7.86 -37.02,0 z"
       id="path23842" /><circle
       cx="242.58"
       cy="204.08"
       r="36.450001"
       id="circle23844" /><circle
       cx="57.419998"
       cy="204.08"
       r="36.450001"
       id="circle23846" /></g><g
     fill="#ffffff"
     id="g23854"><circle
       cx="242.58"
       cy="214.2"
       r="36.450001"
       id="circle23850" /><circle
       cx="57.419998"
       cy="214.2"
       r="36.450001"
       id="circle23852" /></g><path
     d="M 87.17,209.56 A 13.71,13.71 0 0 1 67.26,191 a 24.8,24.8 0 0 0 -3.35,-0.24 23.76,23.76 0 1 0 23.26,18.82 z m -33.25,20.5 a 5.66,5.66 0 1 1 5.66,-5.65 5.66,5.66 0 0 1 -5.66,5.65 z m 205.4,-20.64 A 13.72,13.72 0 0 1 239.53,191 a 24.33,24.33 0 0 0 -3.44,-0.25 23.81,23.81 0 1 0 23.23,18.68 z m -33.42,20.63 a 5.66,5.66 0 1 1 5.66,-5.65 5.65,5.65 0 0 1 -5.66,5.65 z"
     fill="#414042"
     id="path23856" /><path
     d="m 263.74,75.88 c -9.67,-1.23 -22.32,7.82 -32.85,17.55 -0.67,-0.73 -1.32,-1.48 -2,-2.27 a 12.91,12.91 0 0 1 0.43,-16.28 C 239.9,63 261.54,41 276.25,42.9 c 15.27,1.94 14.47,37.1 13.2,53.92 -0.4,5.45 -4.08,9.9 -8.93,10.78 l -3.07,0.48 c -0.6,-15.32 -3.68,-30.93 -13.7,-32.2 z m -227.48,0 c 9.67,-1.23 22.32,7.82 32.85,17.55 0.67,-0.73 1.32,-1.48 2,-2.27 A 12.91,12.91 0 0 0 70.68,74.88 C 60.1,63 38.46,41 23.75,42.9 8.48,44.85 9.28,80 10.55,96.83 c 0.4,5.45 4.08,9.9 8.93,10.78 l 3.07,0.48 c 0.6,-15.32 3.68,-30.93 13.7,-32.2 z"
     fill="#ecf7fe"
     id="path23858" /><path
     d="m 201.43,80.54 c 8.4,-10 21.08,-24.1 34.66,-35.54 h -28.8 c -4.47,3.76 -8.84,7.8 -13,11.9 a 20.46,20.46 0 0 0 1.39,30.33 c 0.53,0.44 1,0.9 1.55,1.35 a 21.51,21.51 0 0 1 4.18,-8.05 z M 105.68,56.9 C 101.53,52.8 97.16,48.75 92.68,45 H 63.9 c 13.6,11.43 26.28,25.55 34.67,35.54 a 21.51,21.51 0 0 1 4.17,8 c 0.5,-0.45 1,-0.9 1.55,-1.35 a 20.46,20.46 0 0 0 1.39,-30.28 z"
     fill="#58595b"
     id="path23860" /><path
     id="path20897"
     style="color:#000000;opacity:0.566893;fill:#030303;fill-opacity:1;stroke:#030303;stroke-width:1.02083;stroke-linecap:square;stroke-linejoin:bevel;stroke-opacity:1;paint-order:stroke fill markers"
     d="M 65.205078 45 C 79.641029 59.114028 96.143158 71.743138 116.27539 79.648438 C 137.76948 88.366341 163.85712 87.656695 184.75 78.005859 C 202.95227 69.850489 218.34146 58.164787 231.67578 45 L 65.205078 45 z " /><path
     id="path12205"
     style="fill:#33393e;fill-opacity:1;fill-rule:evenodd;stroke-width:0.725313"
     d="M 135.00817,0.00231142 C 122.7586,2.3564984 120.33678,17.37031 116.13524,25.401456 c -3.76012,9.919277 -7.79894,19.713095 -8.45223,29.016817 28.21846,4.957161 56.23341,4.092825 84.12659,-0.243619 -0.92943,-10.520476 -6.31375,-20.573188 -9.53358,-30.200772 -4.67035,-8.598051 -5.036,-21.3652817 -17.60024,-23.97157058 -3.98481,-0.1083337 -6.79659,3.61457058 -7.80284,6.28157458 -5.69384,-0.1614026 -15.16392,2.9631144 -15.984,-3.2802563 L 138.1957,0.76116742 Z" /><path
     id="path12496"
     style="color:#000000;fill:#33393e;fill-opacity:1;stroke-width:0.713167;stroke-linecap:square;stroke-linejoin:bevel;paint-order:stroke fill markers"
     d="m 78.885318,34.510051 2.327754,1.947941 c 0.362338,0.484217 0.830474,0.985141 1.346615,1.491075 12.311727,15.518727 26.658943,30.792404 45.899493,39.058436 14.35596,6.37056 31.78129,5.853004 45.73569,-1.199284 17.88623,-8.767787 31.78145,-23.059818 43.08253,-38.272762 l 1.43004,-1.656288 c -0.0439,0.03619 -1.40759,0.692865 -1.45208,0.729303 -15.18203,12.848049 -38.38684,19.521552 -59.0329,20.555911 -21.88449,1.586669 -44.51533,-3.021144 -62.716984,-14.604248 -3.858036,-2.232864 -12.004754,-5.24244 -15.648965,-7.582979 -0.44756,0.07857 -0.733059,-0.147136 -0.971193,-0.467133 z"
     sodipodi:nodetypes="ccccccccccccc" /><path
     id="rect15474"
     style="fill:#292c2f;fill-opacity:1;stroke-width:0.637158;stroke-linecap:square;stroke-linejoin:bevel;paint-order:stroke fill markers;stop-color:#000000"
     d="m 129.78694,10.348783 c 0.0941,-2.062785 -6.44682,-0.6820416 -7.13268,1.268198 -1.03712,2.948998 3.97719,8.151014 7.5206,7.365893 2.73191,-0.605317 -0.56553,-4.742356 -0.38792,-8.634091 z"
     sodipodi:nodetypes="sass" /><path
     id="path17655"
     style="fill:#212121;fill-opacity:0.52205902;stroke-width:0.637158;stroke-linecap:square;stroke-linejoin:bevel;paint-order:stroke fill markers;stop-color:#000000"
     d="m 169.15827,10.348783 c -0.0941,-2.062785 6.44681,-0.6820416 7.13266,1.268198 1.03713,2.948998 -3.97719,8.151014 -7.5206,7.365893 -2.7319,-0.605317 0.56554,-4.742356 0.38794,-8.634091 z"
     sodipodi:nodetypes="sass" /><path
     id="path19544"
     style="fill:#292c2f;fill-opacity:1;stroke-width:3.45576;stroke-linecap:square;stroke-linejoin:bevel;paint-order:stroke fill markers;stop-color:#000000"
     d="m 105.42028,51.747547 c 0.33249,0.549964 0.81172,1.024168 1.35678,1.287627 28.2908,13.674742 58.96634,11.237778 84.94267,0.6331 0.80644,-0.329221 1.46491,-1.096353 1.73945,-1.920727 z" /><path
     id="rect20614"
     style="fill:#33393e;stroke-width:3.00979;stroke-linecap:square;stroke-linejoin:bevel;paint-order:stroke fill markers;stop-color:#000000;fill-opacity:1"
     class="UnoptimicedTransforms"
     d="M 74.482422,45.021484 C 91.001679,62.30554 112.13557,67.066903 135.64453,65.378906 V 46.4375 c -18.29247,5.114557 -36.972624,9.194792 -61.162108,-1.416016 z m 151.035158,0 c -24.18949,10.610808 -42.86964,6.530573 -61.16211,1.416016 v 18.941406 c 23.50896,1.687997 44.64285,-3.073366 61.16211,-20.357422 z"
     transform="matrix(0.88882557,0,0,0.82073472,16.676167,-1.7724122e-7)" /><path
     id="rect17709"
     style="fill:#561818;fill-opacity:1;stroke-width:3.06196;stroke-linecap:square;stroke-linejoin:bevel;paint-order:stroke fill markers;stop-color:#000000"
     d="m 189.0795,41.412248 c -24.94916,7.905022 -53.92249,9.457195 -79.36888,-0.401461 -1.54489,-0.598534 -3.10231,0.175698 -3.43745,1.798223 -0.37525,1.816669 -0.68209,3.62088 -0.89964,5.410066 -0.19995,1.644496 0.96744,3.491669 2.52126,4.066677 27.75806,10.272173 57.73748,8.466088 83.27938,0.444176 1.5807,-0.496448 2.75448,-2.268828 2.52405,-3.909323 -0.25637,-1.825169 -0.60817,-3.637574 -1.02932,-5.437577 -0.37743,-1.613177 -2.00996,-2.471218 -3.5894,-1.970781 z"
     sodipodi:nodetypes="ccccc"
     inkscape:path-effect="#path-effect19169"
     inkscape:original-d="m 191.92953,40.475776 c -26.47492,9.012651 -57.93393,10.908832 -84.99839,-0.593577 -0.92663,3.830997 -1.60234,7.61338 -1.83511,11.323565 29.56546,11.882603 61.93728,9.679515 88.93099,0.596305 -0.30236,-3.830565 -1.08008,-7.604909 -2.09749,-11.326293 z" /><path
     id="rect19223"
     style="fill:#9d1313;fill-opacity:1;stroke:none;stroke-width:2.85909;stroke-linecap:square;stroke-linejoin:bevel;stroke-dasharray:none;stroke-opacity:1;paint-order:stroke fill markers;stop-color:#000000"
     d="m 170.71598,45.899693 c -13.73126,2.389819 -28.06295,2.74232 -41.93935,0.346668 8.96682,5.607366 8.22914,9.305004 0,11.528397 14.10945,2.311824 28.35883,2.005432 41.93935,-0.196758 -9.03771,-3.211516 -4.43273,-7.451401 0,-11.678307 z"
     sodipodi:nodetypes="ccccc" /><g
     id="g26693"
     transform="translate(0,-5.6e-5)"
     style="clip-rule:evenodd;fill-rule:evenodd;stroke-linecap:round">
            <path
   d="M 36.38,345 C 16.423,345 0,328.577 0,308.62 V 262 v 0.01 c 0,19.957 16.423,36.38 36.38,36.38 h 227.24 c 19.957,0 36.38,-16.423 36.38,-36.38 v 46.61 C 300,328.577 283.577,345 263.62,345 Z"
   style="fill:#8fb2eb;fill-rule:nonzero"
   id="path26671" />
            <g
   transform="matrix(0.752818,0,0,0.752818,37.0773,74.2675)"
   id="g26675">
                <path
   d="m 235.066,297.71 -83.106,2.803 1.612,2.308 20.447,29.26 c 1.931,2.508 4.924,3.98 8.089,3.98 2.889,0 5.798,-1.226 8.267,-3.294 z"
   style="fill:#7e9ccc;fill-rule:nonzero"
   id="path26673" />
            </g>
            <g
   transform="matrix(0.752818,0,0,0.752818,37.0773,74.2675)"
   id="g26679">
                <path
   d="m 228.81,297.71 h -74.101 l 19.601,28.51 c 1.929,2.511 4.922,3.986 8.089,3.986 2.89,0 5.221,-1.045 7.825,-3.01 z"
   style="fill:#afcdff;fill-rule:nonzero"
   id="path26677" />
            </g>
            <g
   transform="matrix(0.752818,0,0,0.752818,37.4214,73.7564)"
   id="g26683">
                <path
   d="M 154.1,300.911 V 345 h -15.309 v -31.225 l -13.267,18.985 c -1.932,2.508 -4.924,3.98 -8.089,3.98 -2.889,0 -5.799,-1.226 -8.267,-3.294 L 64.477,298.389 h 7.318 z"
   style="fill:#7e9ccc"
   id="path26681" />
            </g>
            <g
   transform="matrix(-0.752818,0,0,0.752818,262.923,74.2675)"
   id="g26687">
                <path
   d="m 228.81,297.71 h -74.101 l 19.601,28.51 c 1.929,2.511 4.922,3.986 8.089,3.986 2.89,0 5.221,-1.045 7.825,-3.01 z"
   style="fill:#afcdff;fill-rule:nonzero"
   id="path26685" />
            </g>
            <g
   transform="matrix(1,0,0,0.989536,0,7.57224)"
   id="g26691">
                <rect
   x="142.09599"
   y="293.892"
   width="14.895"
   height="47.104"
   style="fill:#afcdff"
   id="rect26689" />
            </g>
        </g><g
     transform="matrix(-1,0,0,1,301.409,-5.6e-5)"
     id="g26839"
     style="clip-rule:evenodd;fill-rule:evenodd;stroke-linecap:round">
            <g
   transform="matrix(-1,0,0,1,301.409,0)"
   id="g26697">
                <path
   d="m 265.029,298.39 c 0.094,0 0.187,0 0.281,-10e-4 5.981,10.843 18.469,18.694 33.313,20.097 C 294.28,333.714 280.165,345 263.62,345 h -80.576 v -20.5 l 31.108,-26.11 z"
   style="fill:#33393e;fill-rule:nonzero;fill-opacity:1"
   id="path26695" />
            </g>
            <g
   id="g26829"
   style="fill:#181a1b;fill-opacity:1">
                <g
   id="g26707"
   style="fill:#181a1b;fill-opacity:1">
                    <g
   transform="matrix(-0.800711,-0.0684753,-0.0684753,0.800711,299.45,80.775)"
   id="g26701"
   style="fill:#181a1b;fill-opacity:1">
                        <path
   d="m 209.655,321.813 c 0,-1.023 -0.83,-1.854 -1.853,-1.854 h -3.707 c -1.023,0 -1.854,0.831 -1.854,1.854 v 17.334 c 0,1.023 0.831,1.853 1.854,1.853 h 3.707 c 1.023,0 1.853,-0.83 1.853,-1.853 z"
   style="fill:#181a1b;fill-opacity:1"
   id="path26699" />
                    </g>
                    <g
   transform="matrix(-0.800711,-0.0684753,-0.0684753,0.800711,298.678,80.709)"
   id="g26705"
   style="fill:#181a1b;fill-opacity:1">
                        <path
   d="m 209.655,321.813 c 0,-1.023 -0.83,-1.854 -1.853,-1.854 h -3.707 c -1.023,0 -1.854,0.831 -1.854,1.854 v 17.334 c 0,1.023 0.831,1.853 1.854,1.853 h 3.707 c 1.023,0 1.853,-0.83 1.853,-1.853 z"
   style="fill:#181a1b;fill-opacity:1"
   id="path26703" />
                    </g>
                </g>
                <g
   id="g26717"
   style="fill:#181a1b;fill-opacity:1">
                    <g
   transform="matrix(-0.794746,-0.119192,-0.119192,0.794746,307.46,92.2414)"
   id="g26711"
   style="fill:#181a1b;fill-opacity:1">
                        <path
   d="m 209.655,321.813 c 0,-1.023 -0.83,-1.854 -1.853,-1.854 h -3.707 c -1.023,0 -1.854,0.831 -1.854,1.854 v 17.334 c 0,1.023 0.831,1.853 1.854,1.853 h 3.707 c 1.023,0 1.853,-0.83 1.853,-1.853 z"
   style="fill:#181a1b;fill-opacity:1"
   id="path26709" />
                    </g>
                    <g
   transform="matrix(-0.794746,-0.119192,-0.119192,0.794746,306.694,92.1265)"
   id="g26715"
   style="fill:#181a1b;fill-opacity:1">
                        <path
   d="m 209.655,321.813 c 0,-1.023 -0.83,-1.854 -1.853,-1.854 h -3.707 c -1.023,0 -1.854,0.831 -1.854,1.854 v 17.334 c 0,1.023 0.831,1.853 1.854,1.853 h 3.707 c 1.023,0 1.853,-0.83 1.853,-1.853 z"
   style="fill:#181a1b;fill-opacity:1"
   id="path26713" />
                    </g>
                </g>
                <g
   id="g26727"
   style="fill:#181a1b;fill-opacity:1">
                    <g
   transform="matrix(-0.802933,-0.0335634,-0.0335634,0.802933,272.817,70.9917)"
   id="g26721"
   style="fill:#181a1b;fill-opacity:1">
                        <path
   d="m 209.655,321.813 c 0,-1.023 -0.83,-1.854 -1.853,-1.854 h -3.707 c -1.023,0 -1.854,0.831 -1.854,1.854 v 17.334 c 0,1.023 0.831,1.853 1.854,1.853 h 3.707 c 1.023,0 1.853,-0.83 1.853,-1.853 z"
   style="fill:#181a1b;fill-opacity:1"
   id="path26719" />
                    </g>
                    <g
   transform="matrix(-0.802933,-0.0335634,-0.0335634,0.802933,272.042,70.9593)"
   id="g26725"
   style="fill:#181a1b;fill-opacity:1">
                        <path
   d="m 209.655,321.813 c 0,-1.023 -0.83,-1.854 -1.853,-1.854 h -3.707 c -1.023,0 -1.854,0.831 -1.854,1.854 v 17.334 c 0,1.023 0.831,1.853 1.854,1.853 h 3.707 c 1.023,0 1.853,-0.83 1.853,-1.853 z"
   style="fill:#181a1b;fill-opacity:1"
   id="path26723" />
                    </g>
                </g>
                <g
   id="g26737"
   style="fill:#181a1b;fill-opacity:1">
                    <g
   transform="matrix(-0.802933,-0.0335634,-0.0335634,0.802933,265.505,68.6297)"
   id="g26731"
   style="fill:#181a1b;fill-opacity:1">
                        <path
   d="m 209.655,321.813 c 0,-1.023 -0.83,-1.854 -1.853,-1.854 h -3.707 c -1.023,0 -1.854,0.831 -1.854,1.854 v 17.334 c 0,1.023 0.831,1.853 1.854,1.853 h 3.707 c 1.023,0 1.853,-0.83 1.853,-1.853 z"
   style="fill:#181a1b;fill-opacity:1"
   id="path26729" />
                    </g>
                    <g
   transform="matrix(-0.802933,-0.0335634,-0.0335634,0.802933,264.731,68.5973)"
   id="g26735"
   style="fill:#181a1b;fill-opacity:1">
                        <path
   d="m 209.655,321.813 c 0,-1.023 -0.83,-1.854 -1.853,-1.854 h -3.707 c -1.023,0 -1.854,0.831 -1.854,1.854 v 17.334 c 0,1.023 0.831,1.853 1.854,1.853 h 3.707 c 1.023,0 1.853,-0.83 1.853,-1.853 z"
   style="fill:#181a1b;fill-opacity:1"
   id="path26733" />
                    </g>
                </g>
                <g
   id="g26747"
   style="fill:#181a1b;fill-opacity:1">
                    <g
   transform="matrix(-0.793637,-0.126366,-0.126366,0.793637,286.181,89.4733)"
   id="g26741"
   style="fill:#181a1b;fill-opacity:1">
                        <path
   d="m 209.655,321.813 c 0,-1.023 -0.83,-1.854 -1.853,-1.854 h -3.707 c -1.023,0 -1.854,0.831 -1.854,1.854 v 17.334 c 0,1.023 0.831,1.853 1.854,1.853 h 3.707 c 1.023,0 1.853,-0.83 1.853,-1.853 z"
   style="fill:#181a1b;fill-opacity:1"
   id="path26739" />
                    </g>
                    <g
   transform="matrix(-0.793637,-0.126366,-0.126366,0.793637,285.416,89.3514)"
   id="g26745"
   style="fill:#181a1b;fill-opacity:1">
                        <path
   d="m 209.655,321.813 c 0,-1.023 -0.83,-1.854 -1.853,-1.854 h -3.707 c -1.023,0 -1.854,0.831 -1.854,1.854 v 17.334 c 0,1.023 0.831,1.853 1.854,1.853 h 3.707 c 1.023,0 1.853,-0.83 1.853,-1.853 z"
   style="fill:#181a1b;fill-opacity:1"
   id="path26743" />
                    </g>
                </g>
                <g
   id="g26757"
   style="fill:#181a1b;fill-opacity:1">
                    <g
   transform="matrix(-0.799586,-0.0805596,-0.0805596,0.799586,264.159,76.5088)"
   id="g26751"
   style="fill:#181a1b;fill-opacity:1">
                        <path
   d="m 209.655,321.813 c 0,-1.023 -0.83,-1.854 -1.853,-1.854 h -3.707 c -1.023,0 -1.854,0.831 -1.854,1.854 v 17.334 c 0,1.023 0.831,1.853 1.854,1.853 h 3.707 c 1.023,0 1.853,-0.83 1.853,-1.853 z"
   style="fill:#181a1b;fill-opacity:1"
   id="path26749" />
                    </g>
                    <g
   transform="matrix(-0.799586,-0.0805596,-0.0805596,0.799586,263.388,76.4312)"
   id="g26755"
   style="fill:#181a1b;fill-opacity:1">
                        <path
   d="m 209.655,321.813 c 0,-1.023 -0.83,-1.854 -1.853,-1.854 h -3.707 c -1.023,0 -1.854,0.831 -1.854,1.854 v 17.334 c 0,1.023 0.831,1.853 1.854,1.853 h 3.707 c 1.023,0 1.853,-0.83 1.853,-1.853 z"
   style="fill:#181a1b;fill-opacity:1"
   id="path26753" />
                    </g>
                </g>
                <g
   id="g26767"
   style="fill:#181a1b;fill-opacity:1">
                    <g
   transform="matrix(-0.802767,0.037329,0.037329,0.802767,217.316,50.3989)"
   id="g26761"
   style="fill:#181a1b;fill-opacity:1">
                        <path
   d="m 209.655,321.813 c 0,-1.023 -0.83,-1.854 -1.853,-1.854 h -3.707 c -1.023,0 -1.854,0.831 -1.854,1.854 v 17.334 c 0,1.023 0.831,1.853 1.854,1.853 h 3.707 c 1.023,0 1.853,-0.83 1.853,-1.853 z"
   style="fill:#181a1b;fill-opacity:1"
   id="path26759" />
                    </g>
                    <g
   transform="matrix(-0.802767,0.037329,0.037329,0.802767,216.542,50.4349)"
   id="g26765"
   style="fill:#181a1b;fill-opacity:1">
                        <path
   d="m 209.655,321.813 c 0,-1.023 -0.83,-1.854 -1.853,-1.854 h -3.707 c -1.023,0 -1.854,0.831 -1.854,1.854 v 17.334 c 0,1.023 0.831,1.853 1.854,1.853 h 3.707 c 1.023,0 1.853,-0.83 1.853,-1.853 z"
   style="fill:#181a1b;fill-opacity:1"
   id="path26763" />
                    </g>
                </g>
                <g
   id="g26777"
   style="fill:#181a1b;fill-opacity:1">
                    <g
   transform="matrix(-0.788531,-0.155071,-0.155071,0.788531,269.39,97.1896)"
   id="g26771"
   style="fill:#181a1b;fill-opacity:1">
                        <path
   d="m 209.655,321.813 c 0,-1.023 -0.83,-1.854 -1.853,-1.854 h -3.707 c -1.023,0 -1.854,0.831 -1.854,1.854 v 17.334 c 0,1.023 0.831,1.853 1.854,1.853 h 3.707 c 1.023,0 1.853,-0.83 1.853,-1.853 z"
   style="fill:#181a1b;fill-opacity:1"
   id="path26769" />
                    </g>
                    <g
   transform="matrix(-0.788531,-0.155071,-0.155071,0.788531,268.63,97.0401)"
   id="g26775"
   style="fill:#181a1b;fill-opacity:1">
                        <path
   d="m 209.655,321.813 c 0,-1.023 -0.83,-1.854 -1.853,-1.854 h -3.707 c -1.023,0 -1.854,0.831 -1.854,1.854 v 17.334 c 0,1.023 0.831,1.853 1.854,1.853 h 3.707 c 1.023,0 1.853,-0.83 1.853,-1.853 z"
   style="fill:#181a1b;fill-opacity:1"
   id="path26773" />
                    </g>
                </g>
                <g
   id="g26787"
   style="fill:#181a1b;fill-opacity:1">
                    <g
   transform="matrix(-0.80207,-0.0501135,-0.0501135,0.80207,229.293,74.0103)"
   id="g26781"
   style="fill:#181a1b;fill-opacity:1">
                        <path
   d="m 209.655,321.813 c 0,-1.023 -0.83,-1.854 -1.853,-1.854 h -3.707 c -1.023,0 -1.854,0.831 -1.854,1.854 v 17.334 c 0,1.023 0.831,1.853 1.854,1.853 h 3.707 c 1.023,0 1.853,-0.83 1.853,-1.853 z"
   style="fill:#181a1b;fill-opacity:1"
   id="path26779" />
                    </g>
                    <g
   transform="matrix(-0.80207,-0.0501135,-0.0501135,0.80207,228.519,73.962)"
   id="g26785"
   style="fill:#181a1b;fill-opacity:1">
                        <path
   d="m 209.655,321.813 c 0,-1.023 -0.83,-1.854 -1.853,-1.854 h -3.707 c -1.023,0 -1.854,0.831 -1.854,1.854 v 17.334 c 0,1.023 0.831,1.853 1.854,1.853 h 3.707 c 1.023,0 1.853,-0.83 1.853,-1.853 z"
   style="fill:#181a1b;fill-opacity:1"
   id="path26783" />
                    </g>
                </g>
                <g
   id="g26797"
   style="fill:#181a1b;fill-opacity:1">
                    <g
   transform="matrix(-0.803603,-0.00701304,-0.00701304,0.803603,207.482,66.5114)"
   id="g26791"
   style="fill:#181a1b;fill-opacity:1">
                        <path
   d="m 209.655,321.813 c 0,-1.023 -0.83,-1.854 -1.853,-1.854 h -3.707 c -1.023,0 -1.854,0.831 -1.854,1.854 v 17.334 c 0,1.023 0.831,1.853 1.854,1.853 h 3.707 c 1.023,0 1.853,-0.83 1.853,-1.853 z"
   style="fill:#181a1b;fill-opacity:1"
   id="path26789" />
                    </g>
                    <g
   transform="matrix(-0.803603,-0.00701304,-0.00701304,0.803603,206.707,66.5047)"
   id="g26795"
   style="fill:#181a1b;fill-opacity:1">
                        <path
   d="m 209.655,321.813 c 0,-1.023 -0.83,-1.854 -1.853,-1.854 h -3.707 c -1.023,0 -1.854,0.831 -1.854,1.854 v 17.334 c 0,1.023 0.831,1.853 1.854,1.853 h 3.707 c 1.023,0 1.853,-0.83 1.853,-1.853 z"
   style="fill:#181a1b;fill-opacity:1"
   id="path26793" />
                    </g>
                </g>
                <g
   id="g26807"
   style="fill:#181a1b;fill-opacity:1">
                    <g
   transform="matrix(-0.803603,-0.00701304,-0.00701304,0.803603,199.46,66.5182)"
   id="g26801"
   style="fill:#181a1b;fill-opacity:1">
                        <path
   d="m 209.655,321.813 c 0,-1.023 -0.83,-1.854 -1.853,-1.854 h -3.707 c -1.023,0 -1.854,0.831 -1.854,1.854 v 17.334 c 0,1.023 0.831,1.853 1.854,1.853 h 3.707 c 1.023,0 1.853,-0.83 1.853,-1.853 z"
   style="fill:#181a1b;fill-opacity:1"
   id="path26799" />
                    </g>
                    <g
   transform="matrix(-0.803603,-0.00701304,-0.00701304,0.803603,198.686,66.5114)"
   id="g26805"
   style="fill:#181a1b;fill-opacity:1">
                        <path
   d="m 209.655,321.813 c 0,-1.023 -0.83,-1.854 -1.853,-1.854 h -3.707 c -1.023,0 -1.854,0.831 -1.854,1.854 v 17.334 c 0,1.023 0.831,1.853 1.854,1.853 h 3.707 c 1.023,0 1.853,-0.83 1.853,-1.853 z"
   style="fill:#181a1b;fill-opacity:1"
   id="path26803" />
                    </g>
                </g>
                <g
   id="g26817"
   style="fill:#181a1b;fill-opacity:1">
                    <g
   transform="matrix(-0.799213,-0.0841803,-0.0841803,0.799213,215.611,83.8853)"
   id="g26811"
   style="fill:#181a1b;fill-opacity:1">
                        <path
   d="m 209.655,321.813 c 0,-1.023 -0.83,-1.854 -1.853,-1.854 h -3.707 c -1.023,0 -1.854,0.831 -1.854,1.854 v 17.334 c 0,1.023 0.831,1.853 1.854,1.853 h 3.707 c 1.023,0 1.853,-0.83 1.853,-1.853 z"
   style="fill:#181a1b;fill-opacity:1"
   id="path26809" />
                    </g>
                    <g
   transform="matrix(-0.799213,-0.0841803,-0.0841803,0.799213,214.841,83.8041)"
   id="g26815"
   style="fill:#181a1b;fill-opacity:1">
                        <path
   d="m 209.655,321.813 c 0,-1.023 -0.83,-1.854 -1.853,-1.854 h -3.707 c -1.023,0 -1.854,0.831 -1.854,1.854 v 17.334 c 0,1.023 0.831,1.853 1.854,1.853 h 3.707 c 1.023,0 1.853,-0.83 1.853,-1.853 z"
   style="fill:#181a1b;fill-opacity:1"
   id="path26813" />
                    </g>
                </g>
                <g
   id="g26827"
   style="fill:#181a1b;fill-opacity:1">
                    <g
   transform="matrix(-0.780195,-0.192676,-0.13033,0.527738,219.081,193.108)"
   id="g26821"
   style="fill:#181a1b;fill-opacity:1">
                        <path
   d="m 209.655,322.699 c 0,-1.512 -0.83,-2.74 -1.853,-2.74 h -3.707 c -1.023,0 -1.854,1.228 -1.854,2.74 v 15.561 c 0,1.513 0.831,2.74 1.854,2.74 h 3.707 c 1.023,0 1.853,-1.227 1.853,-2.74 z"
   style="fill:#181a1b;fill-opacity:1"
   id="path26819" />
                    </g>
                    <g
   transform="matrix(-0.780195,-0.192676,-0.13033,0.527738,218.329,192.922)"
   id="g26825"
   style="fill:#181a1b;fill-opacity:1">
                        <path
   d="m 209.655,322.699 c 0,-1.512 -0.83,-2.74 -1.853,-2.74 h -3.707 c -1.023,0 -1.854,1.228 -1.854,2.74 v 15.561 c 0,1.513 0.831,2.74 1.854,2.74 h 3.707 c 1.023,0 1.853,-1.227 1.853,-2.74 z"
   style="fill:#181a1b;fill-opacity:1"
   id="path26823" />
                    </g>
                </g>
            </g>
            <g
   transform="matrix(-1,0,0,1,301.409,0)"
   id="g26833">
                <path
   d="m 297.443,321.945 c -16.719,6.534 -42.32,4.289 -63.097,-5.527 l -50.915,10.044 c -0.13,0.026 -0.259,0.038 -0.387,0.038 v -2 l 3.166,-2.663 48.666,-9.601 0.601,0.289 c 19.904,9.589 44.637,12.018 60.621,5.657 0.833,0.122 1.675,0.224 2.525,0.304 -0.336,1.179 -0.731,2.334 -1.18,3.459 z"
   style="fill:#292c2f;fill-opacity:1"
   id="path26831" />
            </g>
            <g
   transform="matrix(-1,0,0,1,301.409,0)"
   id="g26837">
                <path
   d="m 274.548,319.958 c 0.675,0.004 1.346,-0.002 2.015,-0.017 0.276,-0.006 0.494,-0.235 0.488,-0.511 -0.006,-0.276 -0.235,-0.495 -0.511,-0.489 -0.659,0.015 -1.321,0.021 -1.986,0.017 -0.276,-0.002 -0.501,0.221 -0.503,0.497 -10e-4,0.276 0.221,0.501 0.497,0.503 z m -4.024,-0.136 c 0.672,0.041 1.343,0.073 2.011,0.095 0.276,0.01 0.507,-0.207 0.517,-0.482 0.009,-0.276 -0.207,-0.508 -0.483,-0.517 -0.659,-0.022 -1.321,-0.054 -1.984,-0.094 -0.276,-0.017 -0.513,0.193 -0.53,0.468 -0.017,0.276 0.193,0.513 0.469,0.53 z m -80.626,-1.075 -0.94,0.79 c 0.084,0.235 0.333,0.376 0.582,0.318 0,0 0.709,-0.163 1.949,-0.448 0.269,-0.062 0.438,-0.33 0.376,-0.599 -0.062,-0.269 -0.331,-0.437 -0.6,-0.375 z m 88.678,1.118 c 0.674,-0.036 1.345,-0.082 2.011,-0.138 0.275,-0.023 0.479,-0.265 0.456,-0.54 -0.023,-0.275 -0.265,-0.48 -0.54,-0.456 -0.656,0.055 -1.316,0.1 -1.98,0.135 -0.275,0.015 -0.487,0.25 -0.473,0.526 0.015,0.276 0.251,0.487 0.526,0.473 z m -12.062,-0.392 c 0.669,0.075 1.336,0.142 2.002,0.2 0.275,0.024 0.518,-0.18 0.542,-0.455 0.024,-0.275 -0.18,-0.517 -0.455,-0.541 -0.657,-0.058 -1.317,-0.124 -1.977,-0.198 -0.275,-0.031 -0.522,0.167 -0.553,0.441 -0.031,0.274 0.166,0.522 0.441,0.553 z m 16.079,0.052 c 0.671,-0.078 1.337,-0.168 1.999,-0.268 0.273,-0.041 0.461,-0.296 0.419,-0.569 -0.041,-0.273 -0.296,-0.461 -0.569,-0.419 -0.65,0.098 -1.306,0.186 -1.965,0.263 -0.274,0.032 -0.471,0.281 -0.439,0.555 0.032,0.274 0.281,0.471 0.555,0.438 z m -20.066,-0.601 c 0.665,0.108 1.328,0.207 1.99,0.299 0.273,0.037 0.526,-0.154 0.564,-0.428 0.037,-0.273 -0.154,-0.525 -0.428,-0.563 -0.654,-0.09 -1.309,-0.188 -1.966,-0.295 -0.272,-0.044 -0.529,0.141 -0.573,0.414 -0.044,0.272 0.141,0.529 0.413,0.573 z m -69.088,0.035 c 0.595,-0.137 1.247,-0.287 1.949,-0.449 0.269,-0.061 0.437,-0.33 0.375,-0.599 -0.062,-0.269 -0.331,-0.437 -0.6,-0.375 -0.701,0.161 -1.353,0.311 -1.949,0.448 -0.269,0.062 -0.437,0.331 -0.375,0.6 0.062,0.268 0.331,0.437 0.6,0.375 z m 93.142,-0.039 c 0.664,-0.125 1.323,-0.261 1.977,-0.409 0.269,-0.061 0.438,-0.329 0.377,-0.598 -0.061,-0.269 -0.329,-0.438 -0.598,-0.377 -0.642,0.145 -1.288,0.279 -1.941,0.401 -0.271,0.051 -0.45,0.313 -0.399,0.584 0.051,0.271 0.313,0.45 0.584,0.399 z m -28.009,-0.732 c 0.659,0.138 1.316,0.269 1.974,0.391 0.271,0.051 0.532,-0.129 0.583,-0.4 0.05,-0.271 -0.129,-0.533 -0.4,-0.583 -0.65,-0.121 -1.3,-0.25 -1.951,-0.386 -0.27,-0.057 -0.536,0.116 -0.592,0.386 -0.057,0.27 0.116,0.536 0.386,0.592 z m -61.235,-0.126 c 0.624,-0.144 1.275,-0.293 1.949,-0.448 0.269,-0.062 0.437,-0.331 0.375,-0.6 -0.062,-0.269 -0.33,-0.437 -0.599,-0.375 -0.674,0.155 -1.325,0.305 -1.949,0.448 -0.269,0.062 -0.437,0.331 -0.376,0.6 0.062,0.269 0.331,0.437 0.6,0.375 z m 93.109,-1.05 c 0.639,0.172 1.285,0.332 1.936,0.48 -0.615,0.19 -1.237,0.369 -1.864,0.536 -0.267,0.071 -0.541,-0.087 -0.612,-0.354 -0.071,-0.267 0.087,-0.541 0.354,-0.612 0.062,-0.017 0.124,-0.033 0.186,-0.05 z m -35.79,0.263 c 0.651,0.167 1.302,0.327 1.953,0.478 0.269,0.063 0.538,-0.104 0.6,-0.373 0.063,-0.269 -0.104,-0.538 -0.373,-0.601 -0.644,-0.15 -1.288,-0.307 -1.932,-0.472 -0.267,-0.069 -0.54,0.092 -0.608,0.36 -0.069,0.267 0.093,0.54 0.36,0.608 z m -53.421,-0.11 c 0.636,-0.146 1.286,-0.296 1.949,-0.448 0.269,-0.062 0.437,-0.33 0.375,-0.599 -0.062,-0.269 -0.33,-0.437 -0.599,-0.376 -0.663,0.153 -1.314,0.303 -1.949,0.449 -0.269,0.062 -0.437,0.33 -0.375,0.599 0.062,0.269 0.33,0.437 0.599,0.375 z m 49.548,-0.972 c 0.643,0.195 1.287,0.382 1.931,0.562 0.265,0.074 0.541,-0.081 0.616,-0.347 0.074,-0.266 -0.082,-0.542 -0.347,-0.616 -0.637,-0.178 -1.274,-0.363 -1.911,-0.556 -0.264,-0.08 -0.543,0.07 -0.623,0.334 -0.08,0.264 0.07,0.544 0.334,0.623 z m -45.65,0.076 c 0.642,-0.148 1.293,-0.298 1.949,-0.449 0.269,-0.062 0.437,-0.33 0.375,-0.599 -0.061,-0.269 -0.33,-0.437 -0.599,-0.375 -0.656,0.151 -1.307,0.3 -1.949,0.448 -0.269,0.062 -0.437,0.33 -0.375,0.599 0.062,0.269 0.33,0.437 0.599,0.376 z m 41.827,-1.319 c 0.634,0.221 1.269,0.435 1.905,0.642 0.262,0.085 0.545,-0.059 0.63,-0.321 0.085,-0.263 -0.058,-0.545 -0.321,-0.63 -0.629,-0.205 -1.258,-0.417 -1.886,-0.635 -0.26,-0.091 -0.545,0.047 -0.636,0.308 -0.091,0.26 0.047,0.545 0.308,0.636 z m -37.929,0.422 c 0.647,-0.149 1.298,-0.299 1.949,-0.448 0.269,-0.062 0.438,-0.331 0.376,-0.6 -0.062,-0.269 -0.331,-0.437 -0.6,-0.375 -0.651,0.15 -1.302,0.299 -1.949,0.448 -0.269,0.062 -0.437,0.331 -0.375,0.6 0.062,0.269 0.33,0.437 0.599,0.375 z m 3.899,-0.897 c 0.651,-0.15 1.301,-0.299 1.949,-0.448 0.269,-0.062 0.437,-0.331 0.375,-0.6 -0.062,-0.268 -0.331,-0.437 -0.599,-0.375 -0.648,0.149 -1.298,0.299 -1.95,0.449 -0.269,0.061 -0.437,0.33 -0.375,0.599 0.062,0.269 0.331,0.437 0.6,0.375 z m 30.261,-0.923 c 0.624,0.246 1.25,0.485 1.877,0.718 0.259,0.096 0.547,-0.036 0.643,-0.295 0.096,-0.258 -0.036,-0.546 -0.295,-0.642 -0.621,-0.231 -1.24,-0.468 -1.858,-0.712 -0.257,-0.101 -0.548,0.025 -0.649,0.282 -0.101,0.257 0.025,0.547 0.282,0.649 z m -26.363,0.026 c 0.656,-0.151 1.307,-0.3 1.949,-0.448 0.269,-0.062 0.437,-0.33 0.375,-0.599 -0.062,-0.269 -0.33,-0.437 -0.599,-0.375 -0.643,0.147 -1.293,0.297 -1.949,0.448 -0.269,0.062 -0.437,0.33 -0.376,0.599 0.062,0.269 0.331,0.437 0.6,0.375 z m 22.654,-1.575 c 0.613,0.27 1.229,0.535 1.846,0.793 0.255,0.106 0.548,-0.014 0.655,-0.269 0.106,-0.255 -0.015,-0.548 -0.269,-0.654 -0.611,-0.255 -1.221,-0.517 -1.829,-0.785 -0.252,-0.112 -0.548,0.003 -0.659,0.255 -0.111,0.253 0.003,0.548 0.256,0.66 z m -18.756,0.679 c 0.663,-0.153 1.313,-0.302 1.949,-0.449 0.269,-0.061 0.437,-0.33 0.375,-0.599 -0.062,-0.269 -0.33,-0.437 -0.599,-0.375 -0.636,0.146 -1.287,0.296 -1.949,0.448 -0.269,0.062 -0.437,0.331 -0.375,0.6 0.061,0.268 0.33,0.437 0.599,0.375 z m 3.898,-0.897 c 0.673,-0.155 1.324,-0.305 1.949,-0.448 0.269,-0.062 0.437,-0.331 0.375,-0.6 -0.061,-0.269 -0.33,-0.437 -0.599,-0.375 -0.625,0.144 -1.276,0.294 -1.949,0.448 -0.269,0.062 -0.437,0.331 -0.375,0.6 0.062,0.269 0.33,0.437 0.599,0.375 z m 11.213,-1.478 c 0.602,0.295 1.207,0.584 1.814,0.866 0.25,0.116 0.548,0.008 0.664,-0.242 0.117,-0.251 0.008,-0.548 -0.242,-0.665 -0.601,-0.279 -1.2,-0.565 -1.796,-0.857 -0.248,-0.121 -0.548,-0.018 -0.669,0.229 -0.122,0.248 -0.019,0.548 0.229,0.669 z m -7.315,0.581 c 0.7,-0.161 1.352,-0.311 1.949,-0.448 0.269,-0.062 0.438,-0.33 0.376,-0.599 -0.062,-0.269 -0.331,-0.437 -0.6,-0.376 -0.597,0.138 -1.249,0.288 -1.949,0.449 -0.269,0.062 -0.437,0.33 -0.375,0.599 0.062,0.269 0.33,0.437 0.599,0.375 z m 3.899,-0.896 c 0.997,-0.23 1.675,-0.386 1.949,-0.449 0.269,-0.062 0.437,-0.33 0.375,-0.599 -0.062,-0.269 -0.331,-0.437 -0.6,-0.375 -0.273,0.063 -0.951,0.219 -1.949,0.448 -0.269,0.062 -0.437,0.33 -0.375,0.599 0.062,0.269 0.331,0.437 0.6,0.376 z"
   style="fill:#292c2f;fill-opacity:1"
   id="path26835" />
            </g>
        </g><g
     transform="translate(-1.40059,-5.6e-5)"
     id="g26985"
     style="clip-rule:evenodd;fill-rule:evenodd;stroke-linecap:round">
            <g
   transform="matrix(-1,0,0,1,301.409,0)"
   id="g26843">
                <path
   d="m 265.029,298.39 c 0.094,0 0.187,0 0.281,-10e-4 5.981,10.843 18.469,18.694 33.313,20.097 C 294.28,333.714 280.165,345 263.62,345 h -80.576 v -20.5 l 31.108,-26.11 z"
   style="fill:#33393e;fill-rule:nonzero;fill-opacity:1"
   id="path26841" />
            </g>
            <g
   id="g26975"
   style="fill:#181a1b;fill-opacity:1">
                <g
   id="g26853"
   style="fill:#181a1b;fill-opacity:1">
                    <g
   transform="matrix(-0.800711,-0.0684753,-0.0684753,0.800711,299.45,80.775)"
   id="g26847"
   style="fill:#181a1b;fill-opacity:1">
                        <path
   d="m 209.655,321.813 c 0,-1.023 -0.83,-1.854 -1.853,-1.854 h -3.707 c -1.023,0 -1.854,0.831 -1.854,1.854 v 17.334 c 0,1.023 0.831,1.853 1.854,1.853 h 3.707 c 1.023,0 1.853,-0.83 1.853,-1.853 z"
   style="fill:#181a1b;fill-opacity:1"
   id="path26845" />
                    </g>
                    <g
   transform="matrix(-0.800711,-0.0684753,-0.0684753,0.800711,298.678,80.709)"
   id="g26851"
   style="fill:#181a1b;fill-opacity:1">
                        <path
   d="m 209.655,321.813 c 0,-1.023 -0.83,-1.854 -1.853,-1.854 h -3.707 c -1.023,0 -1.854,0.831 -1.854,1.854 v 17.334 c 0,1.023 0.831,1.853 1.854,1.853 h 3.707 c 1.023,0 1.853,-0.83 1.853,-1.853 z"
   style="fill:#181a1b;fill-opacity:1"
   id="path26849" />
                    </g>
                </g>
                <g
   id="g26863"
   style="fill:#181a1b;fill-opacity:1">
                    <g
   transform="matrix(-0.794746,-0.119192,-0.119192,0.794746,307.46,92.2414)"
   id="g26857"
   style="fill:#181a1b;fill-opacity:1">
                        <path
   d="m 209.655,321.813 c 0,-1.023 -0.83,-1.854 -1.853,-1.854 h -3.707 c -1.023,0 -1.854,0.831 -1.854,1.854 v 17.334 c 0,1.023 0.831,1.853 1.854,1.853 h 3.707 c 1.023,0 1.853,-0.83 1.853,-1.853 z"
   style="fill:#181a1b;fill-opacity:1"
   id="path26855" />
                    </g>
                    <g
   transform="matrix(-0.794746,-0.119192,-0.119192,0.794746,306.694,92.1265)"
   id="g26861"
   style="fill:#181a1b;fill-opacity:1">
                        <path
   d="m 209.655,321.813 c 0,-1.023 -0.83,-1.854 -1.853,-1.854 h -3.707 c -1.023,0 -1.854,0.831 -1.854,1.854 v 17.334 c 0,1.023 0.831,1.853 1.854,1.853 h 3.707 c 1.023,0 1.853,-0.83 1.853,-1.853 z"
   style="fill:#181a1b;fill-opacity:1"
   id="path26859" />
                    </g>
                </g>
                <g
   id="g26873"
   style="fill:#181a1b;fill-opacity:1">
                    <g
   transform="matrix(-0.802933,-0.0335634,-0.0335634,0.802933,272.817,70.9917)"
   id="g26867"
   style="fill:#181a1b;fill-opacity:1">
                        <path
   d="m 209.655,321.813 c 0,-1.023 -0.83,-1.854 -1.853,-1.854 h -3.707 c -1.023,0 -1.854,0.831 -1.854,1.854 v 17.334 c 0,1.023 0.831,1.853 1.854,1.853 h 3.707 c 1.023,0 1.853,-0.83 1.853,-1.853 z"
   style="fill:#181a1b;fill-opacity:1"
   id="path26865" />
                    </g>
                    <g
   transform="matrix(-0.802933,-0.0335634,-0.0335634,0.802933,272.042,70.9593)"
   id="g26871"
   style="fill:#181a1b;fill-opacity:1">
                        <path
   d="m 209.655,321.813 c 0,-1.023 -0.83,-1.854 -1.853,-1.854 h -3.707 c -1.023,0 -1.854,0.831 -1.854,1.854 v 17.334 c 0,1.023 0.831,1.853 1.854,1.853 h 3.707 c 1.023,0 1.853,-0.83 1.853,-1.853 z"
   style="fill:#181a1b;fill-opacity:1"
   id="path26869" />
                    </g>
                </g>
                <g
   id="g26883"
   style="fill:#181a1b;fill-opacity:1">
                    <g
   transform="matrix(-0.802933,-0.0335634,-0.0335634,0.802933,265.505,68.6297)"
   id="g26877"
   style="fill:#181a1b;fill-opacity:1">
                        <path
   d="m 209.655,321.813 c 0,-1.023 -0.83,-1.854 -1.853,-1.854 h -3.707 c -1.023,0 -1.854,0.831 -1.854,1.854 v 17.334 c 0,1.023 0.831,1.853 1.854,1.853 h 3.707 c 1.023,0 1.853,-0.83 1.853,-1.853 z"
   style="fill:#181a1b;fill-opacity:1"
   id="path26875" />
                    </g>
                    <g
   transform="matrix(-0.802933,-0.0335634,-0.0335634,0.802933,264.731,68.5973)"
   id="g26881"
   style="fill:#181a1b;fill-opacity:1">
                        <path
   d="m 209.655,321.813 c 0,-1.023 -0.83,-1.854 -1.853,-1.854 h -3.707 c -1.023,0 -1.854,0.831 -1.854,1.854 v 17.334 c 0,1.023 0.831,1.853 1.854,1.853 h 3.707 c 1.023,0 1.853,-0.83 1.853,-1.853 z"
   style="fill:#181a1b;fill-opacity:1"
   id="path26879" />
                    </g>
                </g>
                <g
   id="g26893"
   style="fill:#181a1b;fill-opacity:1">
                    <g
   transform="matrix(-0.793637,-0.126366,-0.126366,0.793637,286.181,89.4733)"
   id="g26887"
   style="fill:#181a1b;fill-opacity:1">
                        <path
   d="m 209.655,321.813 c 0,-1.023 -0.83,-1.854 -1.853,-1.854 h -3.707 c -1.023,0 -1.854,0.831 -1.854,1.854 v 17.334 c 0,1.023 0.831,1.853 1.854,1.853 h 3.707 c 1.023,0 1.853,-0.83 1.853,-1.853 z"
   style="fill:#181a1b;fill-opacity:1"
   id="path26885" />
                    </g>
                    <g
   transform="matrix(-0.793637,-0.126366,-0.126366,0.793637,285.416,89.3514)"
   id="g26891"
   style="fill:#181a1b;fill-opacity:1">
                        <path
   d="m 209.655,321.813 c 0,-1.023 -0.83,-1.854 -1.853,-1.854 h -3.707 c -1.023,0 -1.854,0.831 -1.854,1.854 v 17.334 c 0,1.023 0.831,1.853 1.854,1.853 h 3.707 c 1.023,0 1.853,-0.83 1.853,-1.853 z"
   style="fill:#181a1b;fill-opacity:1"
   id="path26889" />
                    </g>
                </g>
                <g
   id="g26903"
   style="fill:#181a1b;fill-opacity:1">
                    <g
   transform="matrix(-0.799586,-0.0805596,-0.0805596,0.799586,264.159,76.5088)"
   id="g26897"
   style="fill:#181a1b;fill-opacity:1">
                        <path
   d="m 209.655,321.813 c 0,-1.023 -0.83,-1.854 -1.853,-1.854 h -3.707 c -1.023,0 -1.854,0.831 -1.854,1.854 v 17.334 c 0,1.023 0.831,1.853 1.854,1.853 h 3.707 c 1.023,0 1.853,-0.83 1.853,-1.853 z"
   style="fill:#181a1b;fill-opacity:1"
   id="path26895" />
                    </g>
                    <g
   transform="matrix(-0.799586,-0.0805596,-0.0805596,0.799586,263.388,76.4312)"
   id="g26901"
   style="fill:#181a1b;fill-opacity:1">
                        <path
   d="m 209.655,321.813 c 0,-1.023 -0.83,-1.854 -1.853,-1.854 h -3.707 c -1.023,0 -1.854,0.831 -1.854,1.854 v 17.334 c 0,1.023 0.831,1.853 1.854,1.853 h 3.707 c 1.023,0 1.853,-0.83 1.853,-1.853 z"
   style="fill:#181a1b;fill-opacity:1"
   id="path26899" />
                    </g>
                </g>
                <g
   id="g26913"
   style="fill:#181a1b;fill-opacity:1">
                    <g
   transform="matrix(-0.802767,0.037329,0.037329,0.802767,217.316,50.3989)"
   id="g26907"
   style="fill:#181a1b;fill-opacity:1">
                        <path
   d="m 209.655,321.813 c 0,-1.023 -0.83,-1.854 -1.853,-1.854 h -3.707 c -1.023,0 -1.854,0.831 -1.854,1.854 v 17.334 c 0,1.023 0.831,1.853 1.854,1.853 h 3.707 c 1.023,0 1.853,-0.83 1.853,-1.853 z"
   style="fill:#181a1b;fill-opacity:1"
   id="path26905" />
                    </g>
                    <g
   transform="matrix(-0.802767,0.037329,0.037329,0.802767,216.542,50.4349)"
   id="g26911"
   style="fill:#181a1b;fill-opacity:1">
                        <path
   d="m 209.655,321.813 c 0,-1.023 -0.83,-1.854 -1.853,-1.854 h -3.707 c -1.023,0 -1.854,0.831 -1.854,1.854 v 17.334 c 0,1.023 0.831,1.853 1.854,1.853 h 3.707 c 1.023,0 1.853,-0.83 1.853,-1.853 z"
   style="fill:#181a1b;fill-opacity:1"
   id="path26909" />
                    </g>
                </g>
                <g
   id="g26923"
   style="fill:#181a1b;fill-opacity:1">
                    <g
   transform="matrix(-0.788531,-0.155071,-0.155071,0.788531,269.39,97.1896)"
   id="g26917"
   style="fill:#181a1b;fill-opacity:1">
                        <path
   d="m 209.655,321.813 c 0,-1.023 -0.83,-1.854 -1.853,-1.854 h -3.707 c -1.023,0 -1.854,0.831 -1.854,1.854 v 17.334 c 0,1.023 0.831,1.853 1.854,1.853 h 3.707 c 1.023,0 1.853,-0.83 1.853,-1.853 z"
   style="fill:#181a1b;fill-opacity:1"
   id="path26915" />
                    </g>
                    <g
   transform="matrix(-0.788531,-0.155071,-0.155071,0.788531,268.63,97.0401)"
   id="g26921"
   style="fill:#181a1b;fill-opacity:1">
                        <path
   d="m 209.655,321.813 c 0,-1.023 -0.83,-1.854 -1.853,-1.854 h -3.707 c -1.023,0 -1.854,0.831 -1.854,1.854 v 17.334 c 0,1.023 0.831,1.853 1.854,1.853 h 3.707 c 1.023,0 1.853,-0.83 1.853,-1.853 z"
   style="fill:#181a1b;fill-opacity:1"
   id="path26919" />
                    </g>
                </g>
                <g
   id="g26933"
   style="fill:#181a1b;fill-opacity:1">
                    <g
   transform="matrix(-0.80207,-0.0501135,-0.0501135,0.80207,229.293,74.0103)"
   id="g26927"
   style="fill:#181a1b;fill-opacity:1">
                        <path
   d="m 209.655,321.813 c 0,-1.023 -0.83,-1.854 -1.853,-1.854 h -3.707 c -1.023,0 -1.854,0.831 -1.854,1.854 v 17.334 c 0,1.023 0.831,1.853 1.854,1.853 h 3.707 c 1.023,0 1.853,-0.83 1.853,-1.853 z"
   style="fill:#181a1b;fill-opacity:1"
   id="path26925" />
                    </g>
                    <g
   transform="matrix(-0.80207,-0.0501135,-0.0501135,0.80207,228.519,73.962)"
   id="g26931"
   style="fill:#181a1b;fill-opacity:1">
                        <path
   d="m 209.655,321.813 c 0,-1.023 -0.83,-1.854 -1.853,-1.854 h -3.707 c -1.023,0 -1.854,0.831 -1.854,1.854 v 17.334 c 0,1.023 0.831,1.853 1.854,1.853 h 3.707 c 1.023,0 1.853,-0.83 1.853,-1.853 z"
   style="fill:#181a1b;fill-opacity:1"
   id="path26929" />
                    </g>
                </g>
                <g
   id="g26943"
   style="fill:#181a1b;fill-opacity:1">
                    <g
   transform="matrix(-0.803603,-0.00701304,-0.00701304,0.803603,207.482,66.5114)"
   id="g26937"
   style="fill:#181a1b;fill-opacity:1">
                        <path
   d="m 209.655,321.813 c 0,-1.023 -0.83,-1.854 -1.853,-1.854 h -3.707 c -1.023,0 -1.854,0.831 -1.854,1.854 v 17.334 c 0,1.023 0.831,1.853 1.854,1.853 h 3.707 c 1.023,0 1.853,-0.83 1.853,-1.853 z"
   style="fill:#181a1b;fill-opacity:1"
   id="path26935" />
                    </g>
                    <g
   transform="matrix(-0.803603,-0.00701304,-0.00701304,0.803603,206.707,66.5047)"
   id="g26941"
   style="fill:#181a1b;fill-opacity:1">
                        <path
   d="m 209.655,321.813 c 0,-1.023 -0.83,-1.854 -1.853,-1.854 h -3.707 c -1.023,0 -1.854,0.831 -1.854,1.854 v 17.334 c 0,1.023 0.831,1.853 1.854,1.853 h 3.707 c 1.023,0 1.853,-0.83 1.853,-1.853 z"
   style="fill:#181a1b;fill-opacity:1"
   id="path26939" />
                    </g>
                </g>
                <g
   id="g26953"
   style="fill:#181a1b;fill-opacity:1">
                    <g
   transform="matrix(-0.803603,-0.00701304,-0.00701304,0.803603,199.46,66.5182)"
   id="g26947"
   style="fill:#181a1b;fill-opacity:1">
                        <path
   d="m 209.655,321.813 c 0,-1.023 -0.83,-1.854 -1.853,-1.854 h -3.707 c -1.023,0 -1.854,0.831 -1.854,1.854 v 17.334 c 0,1.023 0.831,1.853 1.854,1.853 h 3.707 c 1.023,0 1.853,-0.83 1.853,-1.853 z"
   style="fill:#181a1b;fill-opacity:1"
   id="path26945" />
                    </g>
                    <g
   transform="matrix(-0.803603,-0.00701304,-0.00701304,0.803603,198.686,66.5114)"
   id="g26951"
   style="fill:#181a1b;fill-opacity:1">
                        <path
   d="m 209.655,321.813 c 0,-1.023 -0.83,-1.854 -1.853,-1.854 h -3.707 c -1.023,0 -1.854,0.831 -1.854,1.854 v 17.334 c 0,1.023 0.831,1.853 1.854,1.853 h 3.707 c 1.023,0 1.853,-0.83 1.853,-1.853 z"
   style="fill:#181a1b;fill-opacity:1"
   id="path26949" />
                    </g>
                </g>
                <g
   id="g26963"
   style="fill:#181a1b;fill-opacity:1">
                    <g
   transform="matrix(-0.799213,-0.0841803,-0.0841803,0.799213,215.611,83.8853)"
   id="g26957"
   style="fill:#181a1b;fill-opacity:1">
                        <path
   d="m 209.655,321.813 c 0,-1.023 -0.83,-1.854 -1.853,-1.854 h -3.707 c -1.023,0 -1.854,0.831 -1.854,1.854 v 17.334 c 0,1.023 0.831,1.853 1.854,1.853 h 3.707 c 1.023,0 1.853,-0.83 1.853,-1.853 z"
   style="fill:#181a1b;fill-opacity:1"
   id="path26955" />
                    </g>
                    <g
   transform="matrix(-0.799213,-0.0841803,-0.0841803,0.799213,214.841,83.8041)"
   id="g26961"
   style="fill:#181a1b;fill-opacity:1">
                        <path
   d="m 209.655,321.813 c 0,-1.023 -0.83,-1.854 -1.853,-1.854 h -3.707 c -1.023,0 -1.854,0.831 -1.854,1.854 v 17.334 c 0,1.023 0.831,1.853 1.854,1.853 h 3.707 c 1.023,0 1.853,-0.83 1.853,-1.853 z"
   style="fill:#181a1b;fill-opacity:1"
   id="path26959" />
                    </g>
                </g>
                <g
   id="g26973"
   style="fill:#181a1b;fill-opacity:1">
                    <g
   transform="matrix(-0.780195,-0.192676,-0.13033,0.527738,219.081,193.108)"
   id="g26967"
   style="fill:#181a1b;fill-opacity:1">
                        <path
   d="m 209.655,322.699 c 0,-1.512 -0.83,-2.74 -1.853,-2.74 h -3.707 c -1.023,0 -1.854,1.228 -1.854,2.74 v 15.561 c 0,1.513 0.831,2.74 1.854,2.74 h 3.707 c 1.023,0 1.853,-1.227 1.853,-2.74 z"
   style="fill:#181a1b;fill-opacity:1"
   id="path26965" />
                    </g>
                    <g
   transform="matrix(-0.780195,-0.192676,-0.13033,0.527738,218.329,192.922)"
   id="g26971"
   style="fill:#181a1b;fill-opacity:1">
                        <path
   d="m 209.655,322.699 c 0,-1.512 -0.83,-2.74 -1.853,-2.74 h -3.707 c -1.023,0 -1.854,1.228 -1.854,2.74 v 15.561 c 0,1.513 0.831,2.74 1.854,2.74 h 3.707 c 1.023,0 1.853,-1.227 1.853,-2.74 z"
   style="fill:#181a1b;fill-opacity:1"
   id="path26969" />
                    </g>
                </g>
            </g>
            <g
   transform="matrix(-1,0,0,1,301.409,0)"
   id="g26979">
                <path
   d="m 297.443,321.945 c -16.719,6.534 -42.32,4.289 -63.097,-5.527 l -50.915,10.044 c -0.13,0.026 -0.259,0.038 -0.387,0.038 v -2 l 3.166,-2.663 48.666,-9.601 0.601,0.289 c 19.904,9.589 44.637,12.018 60.621,5.657 0.833,0.122 1.675,0.224 2.525,0.304 -0.336,1.179 -0.731,2.334 -1.18,3.459 z"
   style="fill:#292c2f;fill-opacity:1"
   id="path26977" />
            </g>
            <g
   transform="matrix(-1,0,0,1,301.409,0)"
   id="g26983">
                <path
   d="m 274.548,319.958 c 0.675,0.004 1.346,-0.002 2.015,-0.017 0.276,-0.006 0.494,-0.235 0.488,-0.511 -0.006,-0.276 -0.235,-0.495 -0.511,-0.489 -0.659,0.015 -1.321,0.021 -1.986,0.017 -0.276,-0.002 -0.501,0.221 -0.503,0.497 -10e-4,0.276 0.221,0.501 0.497,0.503 z m -4.024,-0.136 c 0.672,0.041 1.343,0.073 2.011,0.095 0.276,0.01 0.507,-0.207 0.517,-0.482 0.009,-0.276 -0.207,-0.508 -0.483,-0.517 -0.659,-0.022 -1.321,-0.054 -1.984,-0.094 -0.276,-0.017 -0.513,0.193 -0.53,0.468 -0.017,0.276 0.193,0.513 0.469,0.53 z m -80.626,-1.075 -0.94,0.79 c 0.084,0.235 0.333,0.376 0.582,0.318 0,0 0.709,-0.163 1.949,-0.448 0.269,-0.062 0.438,-0.33 0.376,-0.599 -0.062,-0.269 -0.331,-0.437 -0.6,-0.375 z m 88.678,1.118 c 0.674,-0.036 1.345,-0.082 2.011,-0.138 0.275,-0.023 0.479,-0.265 0.456,-0.54 -0.023,-0.275 -0.265,-0.48 -0.54,-0.456 -0.656,0.055 -1.316,0.1 -1.98,0.135 -0.275,0.015 -0.487,0.25 -0.473,0.526 0.015,0.276 0.251,0.487 0.526,0.473 z m -12.062,-0.392 c 0.669,0.075 1.336,0.142 2.002,0.2 0.275,0.024 0.518,-0.18 0.542,-0.455 0.024,-0.275 -0.18,-0.517 -0.455,-0.541 -0.657,-0.058 -1.317,-0.124 -1.977,-0.198 -0.275,-0.031 -0.522,0.167 -0.553,0.441 -0.031,0.274 0.166,0.522 0.441,0.553 z m 16.079,0.052 c 0.671,-0.078 1.337,-0.168 1.999,-0.268 0.273,-0.041 0.461,-0.296 0.419,-0.569 -0.041,-0.273 -0.296,-0.461 -0.569,-0.419 -0.65,0.098 -1.306,0.186 -1.965,0.263 -0.274,0.032 -0.471,0.281 -0.439,0.555 0.032,0.274 0.281,0.471 0.555,0.438 z m -20.066,-0.601 c 0.665,0.108 1.328,0.207 1.99,0.299 0.273,0.037 0.526,-0.154 0.564,-0.428 0.037,-0.273 -0.154,-0.525 -0.428,-0.563 -0.654,-0.09 -1.309,-0.188 -1.966,-0.295 -0.272,-0.044 -0.529,0.141 -0.573,0.414 -0.044,0.272 0.141,0.529 0.413,0.573 z m -69.088,0.035 c 0.595,-0.137 1.247,-0.287 1.949,-0.449 0.269,-0.061 0.437,-0.33 0.375,-0.599 -0.062,-0.269 -0.331,-0.437 -0.6,-0.375 -0.701,0.161 -1.353,0.311 -1.949,0.448 -0.269,0.062 -0.437,0.331 -0.375,0.6 0.062,0.268 0.331,0.437 0.6,0.375 z m 93.142,-0.039 c 0.664,-0.125 1.323,-0.261 1.977,-0.409 0.269,-0.061 0.438,-0.329 0.377,-0.598 -0.061,-0.269 -0.329,-0.438 -0.598,-0.377 -0.642,0.145 -1.288,0.279 -1.941,0.401 -0.271,0.051 -0.45,0.313 -0.399,0.584 0.051,0.271 0.313,0.45 0.584,0.399 z m -28.009,-0.732 c 0.659,0.138 1.316,0.269 1.974,0.391 0.271,0.051 0.532,-0.129 0.583,-0.4 0.05,-0.271 -0.129,-0.533 -0.4,-0.583 -0.65,-0.121 -1.3,-0.25 -1.951,-0.386 -0.27,-0.057 -0.536,0.116 -0.592,0.386 -0.057,0.27 0.116,0.536 0.386,0.592 z m -61.235,-0.126 c 0.624,-0.144 1.275,-0.293 1.949,-0.448 0.269,-0.062 0.437,-0.331 0.375,-0.6 -0.062,-0.269 -0.33,-0.437 -0.599,-0.375 -0.674,0.155 -1.325,0.305 -1.949,0.448 -0.269,0.062 -0.437,0.331 -0.376,0.6 0.062,0.269 0.331,0.437 0.6,0.375 z m 93.109,-1.05 c 0.639,0.172 1.285,0.332 1.936,0.48 -0.615,0.19 -1.237,0.369 -1.864,0.536 -0.267,0.071 -0.541,-0.087 -0.612,-0.354 -0.071,-0.267 0.087,-0.541 0.354,-0.612 0.062,-0.017 0.124,-0.033 0.186,-0.05 z m -35.79,0.263 c 0.651,0.167 1.302,0.327 1.953,0.478 0.269,0.063 0.538,-0.104 0.6,-0.373 0.063,-0.269 -0.104,-0.538 -0.373,-0.601 -0.644,-0.15 -1.288,-0.307 -1.932,-0.472 -0.267,-0.069 -0.54,0.092 -0.608,0.36 -0.069,0.267 0.093,0.54 0.36,0.608 z m -53.421,-0.11 c 0.636,-0.146 1.286,-0.296 1.949,-0.448 0.269,-0.062 0.437,-0.33 0.375,-0.599 -0.062,-0.269 -0.33,-0.437 -0.599,-0.376 -0.663,0.153 -1.314,0.303 -1.949,0.449 -0.269,0.062 -0.437,0.33 -0.375,0.599 0.062,0.269 0.33,0.437 0.599,0.375 z m 49.548,-0.972 c 0.643,0.195 1.287,0.382 1.931,0.562 0.265,0.074 0.541,-0.081 0.616,-0.347 0.074,-0.266 -0.082,-0.542 -0.347,-0.616 -0.637,-0.178 -1.274,-0.363 -1.911,-0.556 -0.264,-0.08 -0.543,0.07 -0.623,0.334 -0.08,0.264 0.07,0.544 0.334,0.623 z m -45.65,0.076 c 0.642,-0.148 1.293,-0.298 1.949,-0.449 0.269,-0.062 0.437,-0.33 0.375,-0.599 -0.061,-0.269 -0.33,-0.437 -0.599,-0.375 -0.656,0.151 -1.307,0.3 -1.949,0.448 -0.269,0.062 -0.437,0.33 -0.375,0.599 0.062,0.269 0.33,0.437 0.599,0.376 z m 41.827,-1.319 c 0.634,0.221 1.269,0.435 1.905,0.642 0.262,0.085 0.545,-0.059 0.63,-0.321 0.085,-0.263 -0.058,-0.545 -0.321,-0.63 -0.629,-0.205 -1.258,-0.417 -1.886,-0.635 -0.26,-0.091 -0.545,0.047 -0.636,0.308 -0.091,0.26 0.047,0.545 0.308,0.636 z m -37.929,0.422 c 0.647,-0.149 1.298,-0.299 1.949,-0.448 0.269,-0.062 0.438,-0.331 0.376,-0.6 -0.062,-0.269 -0.331,-0.437 -0.6,-0.375 -0.651,0.15 -1.302,0.299 -1.949,0.448 -0.269,0.062 -0.437,0.331 -0.375,0.6 0.062,0.269 0.33,0.437 0.599,0.375 z m 3.899,-0.897 c 0.651,-0.15 1.301,-0.299 1.949,-0.448 0.269,-0.062 0.437,-0.331 0.375,-0.6 -0.062,-0.268 -0.331,-0.437 -0.599,-0.375 -0.648,0.149 -1.298,0.299 -1.95,0.449 -0.269,0.061 -0.437,0.33 -0.375,0.599 0.062,0.269 0.331,0.437 0.6,0.375 z m 30.261,-0.923 c 0.624,0.246 1.25,0.485 1.877,0.718 0.259,0.096 0.547,-0.036 0.643,-0.295 0.096,-0.258 -0.036,-0.546 -0.295,-0.642 -0.621,-0.231 -1.24,-0.468 -1.858,-0.712 -0.257,-0.101 -0.548,0.025 -0.649,0.282 -0.101,0.257 0.025,0.547 0.282,0.649 z m -26.363,0.026 c 0.656,-0.151 1.307,-0.3 1.949,-0.448 0.269,-0.062 0.437,-0.33 0.375,-0.599 -0.062,-0.269 -0.33,-0.437 -0.599,-0.375 -0.643,0.147 -1.293,0.297 -1.949,0.448 -0.269,0.062 -0.437,0.33 -0.376,0.599 0.062,0.269 0.331,0.437 0.6,0.375 z m 22.654,-1.575 c 0.613,0.27 1.229,0.535 1.846,0.793 0.255,0.106 0.548,-0.014 0.655,-0.269 0.106,-0.255 -0.015,-0.548 -0.269,-0.654 -0.611,-0.255 -1.221,-0.517 -1.829,-0.785 -0.252,-0.112 -0.548,0.003 -0.659,0.255 -0.111,0.253 0.003,0.548 0.256,0.66 z m -18.756,0.679 c 0.663,-0.153 1.313,-0.302 1.949,-0.449 0.269,-0.061 0.437,-0.33 0.375,-0.599 -0.062,-0.269 -0.33,-0.437 -0.599,-0.375 -0.636,0.146 -1.287,0.296 -1.949,0.448 -0.269,0.062 -0.437,0.331 -0.375,0.6 0.061,0.268 0.33,0.437 0.599,0.375 z m 3.898,-0.897 c 0.673,-0.155 1.324,-0.305 1.949,-0.448 0.269,-0.062 0.437,-0.331 0.375,-0.6 -0.061,-0.269 -0.33,-0.437 -0.599,-0.375 -0.625,0.144 -1.276,0.294 -1.949,0.448 -0.269,0.062 -0.437,0.331 -0.375,0.6 0.062,0.269 0.33,0.437 0.599,0.375 z m 11.213,-1.478 c 0.602,0.295 1.207,0.584 1.814,0.866 0.25,0.116 0.548,0.008 0.664,-0.242 0.117,-0.251 0.008,-0.548 -0.242,-0.665 -0.601,-0.279 -1.2,-0.565 -1.796,-0.857 -0.248,-0.121 -0.548,-0.018 -0.669,0.229 -0.122,0.248 -0.019,0.548 0.229,0.669 z m -7.315,0.581 c 0.7,-0.161 1.352,-0.311 1.949,-0.448 0.269,-0.062 0.438,-0.33 0.376,-0.599 -0.062,-0.269 -0.331,-0.437 -0.6,-0.376 -0.597,0.138 -1.249,0.288 -1.949,0.449 -0.269,0.062 -0.437,0.33 -0.375,0.599 0.062,0.269 0.33,0.437 0.599,0.375 z m 3.899,-0.896 c 0.997,-0.23 1.675,-0.386 1.949,-0.449 0.269,-0.062 0.437,-0.33 0.375,-0.599 -0.062,-0.269 -0.331,-0.437 -0.6,-0.375 -0.273,0.063 -0.951,0.219 -1.949,0.448 -0.269,0.062 -0.437,0.33 -0.375,0.599 0.062,0.269 0.331,0.437 0.6,0.376 z"
   style="fill:#292c2f;fill-opacity:1"
   id="path26981" />
            </g>
        </g><path
     id="path33695"
     style="clip-rule:evenodd;fill:#000000;fill-opacity:0.568627;fill-rule:nonzero;stroke-width:1.00973;stroke-linecap:round"
     d="M 300 200.98438 C 300 221.33177 275.94877 242.23368 261.42578 247.85352 C 241.2298 255.66846 178.44926 232.36802 159.98828 234.33984 C 104.05534 232.14474 78.575162 259.20646 37.408203 253.87109 C 16.454224 251.15498 1.1796333e-16 234.71068 0 214.36328 L 0 257.23438 C 36.073342 284.75262 103.10772 320.52007 175.5 343.58008 L 209.78516 343.58008 C 236.10958 323.13416 277.60745 272.87062 300 257.91602 L 300 200.98438 z " /><path
     d="M -2.0000001e-7,209.95246 C -2.0000001e-7,229.90946 16.454,246.0385 37.408,248.7025 c 41.167,5.233 66.6474,-21.30959 122.5804,-19.15659 18.461,-1.934 81.2416,20.91959 101.4376,13.25459 C 275.949,237.2885 300,216.78746 300,196.83046 v 55.83949 c -25.767,16.878 -76.85593,79.66101 -100.98193,90.91001 C 117.87807,321.77596 39.957,281.89695 -2e-7,252.00095 Z"
     style="clip-rule:evenodd;fill:#bb2222;fill-rule:nonzero;stroke-linecap:round;fill-opacity:1"
     id="path26987"
     sodipodi:nodetypes="ccccccccc" /><path
     d="m 0.71,240.57 c 51.977,33.05 129.80606,70.04471 198.88406,89.51371 C 238.24306,314.82071 269.478,260.526 299.29,240.57"
     style="clip-rule:evenodd;fill:none;fill-rule:evenodd;stroke:#ffffff;stroke-width:2px;stroke-linecap:round"
     id="path26989"
     sodipodi:nodetypes="ccc" /><path
     id="path32153"
     style="clip-rule:evenodd;fill:#ffffff;fill-rule:evenodd;stroke-linecap:round"
     d="m 70.590262,254.70638 -4.61039,1.70799 1.70799,4.61039 4.60862,-1.7088 z m -0.59107,1.28674 1.01232,2.73257 -2.73339,1.0141 -1.01328,-2.73516 z m 8.50067,5.31053 c -0.69008,-0.47918 -1.97774,-0.56145 -3.31425,-0.1404 -1.78152,0.56271 -2.97792,1.80967 -2.66964,2.78433 0.30697,0.97516 2.00328,1.30936 3.7853,0.74797 1.78152,-0.56272 2.97792,-1.80968 2.66962,-2.78434 -0.0767,-0.24379 -0.241,-0.44784 -0.47103,-0.60756 z m -17.93043,-7.34452 c -0.27114,-0.0705 -0.53262,-0.062 -0.7678,0.0385 -0.93936,0.40154 -1.10501,2.12199 -0.37122,3.84014 0.73421,1.71723 2.0929,2.78638 3.03359,2.38435 0.93937,-0.40154 1.10503,-2.12199 0.37124,-3.84013 -0.55066,-1.28793 -1.45234,-2.21135 -2.26581,-2.42284 z m 17.29917,8.12921 c 0.0629,0.0355 0.12786,0.0631 0.14739,0.12361 0.0195,0.0607 -0.0183,0.12188 -0.0497,0.1878 -0.0617,0.12464 -0.15469,0.24621 -0.2693,0.36634 -0.38628,0.4025 -0.98739,0.7511 -1.69903,0.97553 -0.71074,0.22485 -1.40156,0.2835 -1.94834,0.17539 -0.1635,-0.0322 -0.31177,-0.0785 -0.4339,-0.14561 -0.0629,-0.0355 -0.12787,-0.0631 -0.14741,-0.12362 -0.0194,-0.0607 0.0183,-0.12188 0.0497,-0.18779 0.0617,-0.12465 0.1547,-0.24622 0.2693,-0.36634 0.38628,-0.40251 0.98821,-0.75289 1.69986,-0.97732 0.71032,-0.22394 1.40332,-0.28267 1.95011,-0.17456 0.16349,0.0322 0.3092,0.0794 0.43134,0.14653 z m -17.48236,-7.14085 c 0.13048,0.0489 0.26128,0.13102 0.39138,0.23349 0.43826,0.34437 0.84607,0.90879 1.13986,1.59397 0.29248,0.68569 0.41879,1.36844 0.3651,1.92372 -0.0156,0.16562 -0.0476,0.31628 -0.10328,0.44476 -0.0282,0.0663 -0.0513,0.1332 -0.10925,0.15829 -0.0587,0.0248 -0.12176,-0.005 -0.1906,-0.0296 -0.13049,-0.0489 -0.26038,-0.13061 -0.3914,-0.23349 -0.43825,-0.34438 -0.84647,-0.90788 -1.13986,-1.59398 -0.29248,-0.68568 -0.41878,-1.36843 -0.36508,-1.92371 0.0156,-0.16562 0.048,-0.31719 0.10328,-0.44475 0.0287,-0.0672 0.0497,-0.13392 0.10752,-0.15909 0.0587,-0.0248 0.12354,0.005 0.19238,0.0304 z m 19.34737,12.74759 c -0.57886,-0.23234 -1.22636,-0.41272 -1.91889,-0.52037 -2.77054,-0.42972 -5.21282,0.45288 -5.44777,1.96813 -0.23537,1.51616 1.82322,3.09688 4.59375,3.52659 2.77054,0.42972 5.21241,-0.45197 5.44777,-1.96813 0.17653,-1.13712 -0.93826,-2.30924 -2.67486,-3.00622 z m -12.32144,-4.77873 c -2.39446,-1.09992 -5.23032,-0.0493 -6.33023,2.34513 -1.10033,2.39535 -0.0501,5.23209 2.34431,6.332 2.39535,1.10033 5.23249,0.0493 6.33282,-2.34609 1.09991,-2.39445 0.0485,-5.23072 -2.3469,-6.33104 z m 12.1795,5.79895 c 0.56594,0.25117 1.04161,0.56321 1.38568,0.91378 0.28667,0.29346 0.49261,0.59537 0.442,0.91877 -0.0497,0.32381 -0.33764,0.55007 -0.69997,0.74239 -0.86941,0.46008 -2.1889,0.61039 -3.60522,0.39007 -1.41674,-0.21942 -2.62751,-0.76267 -3.31607,-1.46528 -0.2871,-0.29254 -0.4917,-0.59496 -0.44199,-0.91877 0.0506,-0.32338 0.33845,-0.54969 0.70172,-0.74157 0.8681,-0.45959 2.18671,-0.6103 3.60346,-0.39089 0.70816,0.11016 1.36451,0.30017 1.93041,0.55146 z m -24.95337,-11.07138 c -1.6601,-0.86349 -3.27391,-0.9446 -4.02156,-0.0698 -0.99596,1.16677 -0.0766,3.59246 2.05442,5.41433 2.13105,1.82187 4.67143,2.35373 5.6683,1.18737 0.99687,-1.16636 0.0767,-3.59028 -2.05524,-5.41256 -0.53276,-0.45547 -1.09255,-0.83147 -1.64592,-1.11931 z m -0.68149,0.77237 c 0.55916,0.26566 1.13287,0.64055 1.67781,1.10601 1.08948,0.93185 1.83333,2.02997 2.05116,2.98838 0.0902,0.40018 0.10788,0.76684 -0.1054,1.01551 -0.21236,0.2491 -0.57685,0.29008 -0.98674,0.26246 -0.9803,-0.0652 -2.18217,-0.63015 -3.27208,-1.56105 -1.0899,-0.93094 -1.83466,-2.02948 -2.05115,-2.98839 -0.0902,-0.40018 -0.10697,-0.7664 0.10539,-1.0155 0.21328,-0.24867 0.57777,-0.28966 0.98674,-0.26246 0.4906,0.0328 1.03505,0.18953 1.59426,0.45507 z m 12.62051,6.31748 c 1.39213,0.63949 2.0034,2.28754 1.36432,3.67877 -0.63949,1.39214 -2.2884,2.00301 -3.68054,1.36352 -1.39124,-0.63908 -2.00123,-2.2876 -1.36174,-3.67973 0.63908,-1.39124 2.28672,-2.00164 3.67796,-1.36256 z" /><path
     id="path32882"
     style="clip-rule:evenodd;fill:#ffffff;fill-rule:evenodd;stroke-linecap:round"
     d="m 108.40398,271.85446 -4.61039,1.70799 1.70799,4.61039 4.60862,-1.7088 z m -0.59107,1.28674 1.01232,2.73257 -2.73339,1.0141 -1.01328,-2.73516 z m 8.50067,5.31053 c -0.69008,-0.47918 -1.97774,-0.56145 -3.31425,-0.1404 -1.78152,0.56271 -2.97792,1.80967 -2.66964,2.78433 0.30697,0.97516 2.00328,1.30936 3.7853,0.74797 1.78152,-0.56272 2.97792,-1.80968 2.66962,-2.78434 -0.0767,-0.24379 -0.241,-0.44784 -0.47103,-0.60756 z m -17.930427,-7.34452 c -0.27114,-0.0705 -0.53262,-0.062 -0.7678,0.0385 -0.93936,0.40154 -1.10501,2.12199 -0.37122,3.84014 0.73421,1.71723 2.0929,2.78638 3.033587,2.38435 0.93937,-0.40154 1.10503,-2.12199 0.37124,-3.84013 -0.55066,-1.28793 -1.452337,-2.21135 -2.265807,-2.42284 z m 17.299167,8.12921 c 0.0629,0.0355 0.12786,0.0631 0.14739,0.12361 0.0195,0.0607 -0.0183,0.12188 -0.0497,0.1878 -0.0617,0.12464 -0.15469,0.24621 -0.2693,0.36634 -0.38628,0.4025 -0.98739,0.7511 -1.69903,0.97553 -0.71074,0.22485 -1.40156,0.2835 -1.94834,0.17539 -0.1635,-0.0322 -0.31177,-0.0785 -0.4339,-0.14561 -0.0629,-0.0355 -0.12787,-0.0631 -0.14741,-0.12362 -0.0194,-0.0607 0.0183,-0.12188 0.0497,-0.18779 0.0617,-0.12465 0.1547,-0.24622 0.2693,-0.36634 0.38628,-0.40251 0.98821,-0.75289 1.69986,-0.97732 0.71032,-0.22394 1.40332,-0.28267 1.95011,-0.17456 0.16349,0.0322 0.3092,0.0794 0.43134,0.14653 z m -17.482357,-7.14085 c 0.13048,0.0489 0.26128,0.13102 0.39138,0.23349 0.43826,0.34437 0.84607,0.90879 1.13986,1.59397 0.292477,0.68569 0.418787,1.36844 0.365097,1.92372 -0.0156,0.16562 -0.0476,0.31628 -0.103277,0.44476 -0.0282,0.0663 -0.0513,0.1332 -0.10925,0.15829 -0.0587,0.0248 -0.12176,-0.005 -0.1906,-0.0296 -0.13049,-0.0489 -0.26038,-0.13061 -0.3914,-0.23349 -0.43825,-0.34438 -0.84647,-0.90788 -1.13986,-1.59398 -0.29248,-0.68568 -0.41878,-1.36843 -0.36508,-1.92371 0.0156,-0.16562 0.048,-0.31719 0.10328,-0.44475 0.0287,-0.0672 0.0497,-0.13392 0.10752,-0.15909 0.0587,-0.0248 0.12354,0.005 0.19238,0.0304 z m 19.347367,12.74759 c -0.57886,-0.23234 -1.22636,-0.41272 -1.91889,-0.52037 -2.77054,-0.42972 -5.21282,0.45288 -5.44777,1.96813 -0.23537,1.51616 1.82322,3.09688 4.59375,3.52659 2.77054,0.42972 5.21241,-0.45197 5.44777,-1.96813 0.17653,-1.13712 -0.93826,-2.30924 -2.67486,-3.00622 z m -12.32144,-4.77873 c -2.39446,-1.09992 -5.230317,-0.0493 -6.330227,2.34513 -1.10033,2.39535 -0.0501,5.23209 2.344307,6.332 2.39535,1.10033 5.23249,0.0493 6.33282,-2.34609 1.09991,-2.39445 0.0485,-5.23072 -2.3469,-6.33104 z m 12.1795,5.79895 c 0.56594,0.25117 1.04161,0.56321 1.38568,0.91378 0.28667,0.29346 0.49261,0.59537 0.442,0.91877 -0.0497,0.32381 -0.33764,0.55007 -0.69997,0.74239 -0.86941,0.46008 -2.1889,0.61039 -3.60522,0.39007 -1.41674,-0.21942 -2.62751,-0.76267 -3.31607,-1.46528 -0.2871,-0.29254 -0.4917,-0.59496 -0.44199,-0.91877 0.0506,-0.32338 0.33845,-0.54969 0.70172,-0.74157 0.8681,-0.45959 2.18671,-0.6103 3.60346,-0.39089 0.70816,0.11016 1.36451,0.30017 1.93041,0.55146 z M 92.452023,274.792 c -1.6601,-0.86349 -3.27391,-0.9446 -4.02156,-0.0698 -0.99596,1.16677 -0.0766,3.59246 2.05442,5.41433 2.13105,1.82187 4.67143,2.35373 5.6683,1.18737 0.99687,-1.16636 0.0767,-3.59028 -2.05524,-5.41256 -0.53276,-0.45547 -1.09255,-0.83147 -1.64592,-1.11931 z m -0.68149,0.77237 c 0.55916,0.26566 1.13287,0.64055 1.67781,1.10601 1.08948,0.93185 1.83333,2.02997 2.05116,2.98838 0.0902,0.40018 0.10788,0.76684 -0.1054,1.01551 -0.21236,0.2491 -0.57685,0.29008 -0.98674,0.26246 -0.9803,-0.0652 -2.18217,-0.63015 -3.27208,-1.56105 -1.0899,-0.93094 -1.83466,-2.02948 -2.05115,-2.98839 -0.0902,-0.40018 -0.10697,-0.7664 0.10539,-1.0155 0.21328,-0.24867 0.57777,-0.28966 0.98674,-0.26246 0.4906,0.0328 1.03505,0.18953 1.59426,0.45507 z m 12.620507,6.31748 c 1.39213,0.63949 2.0034,2.28754 1.36432,3.67877 -0.63949,1.39214 -2.2884,2.00301 -3.68054,1.36352 -1.39124,-0.63908 -2.00123,-2.2876 -1.36174,-3.67973 0.63908,-1.39124 2.28672,-2.00164 3.67796,-1.36256 z" /><path
     id="path32884"
     style="clip-rule:evenodd;fill:#ffffff;fill-rule:evenodd;stroke-linecap:round"
     d="m 147.53678,288.12315 -4.61039,1.70799 1.70799,4.61039 4.60862,-1.7088 z m -0.59107,1.28674 1.01232,2.73257 -2.73339,1.0141 -1.01328,-2.73516 z m 8.50067,5.31053 c -0.69008,-0.47918 -1.97774,-0.56145 -3.31425,-0.1404 -1.78152,0.56271 -2.97792,1.80967 -2.66964,2.78433 0.30697,0.97516 2.00328,1.30936 3.7853,0.74797 1.78152,-0.56272 2.97792,-1.80968 2.66962,-2.78434 -0.0767,-0.24379 -0.241,-0.44784 -0.47103,-0.60756 z m -17.93042,-7.34452 c -0.27114,-0.0705 -0.53262,-0.062 -0.7678,0.0385 -0.93936,0.40154 -1.10501,2.12199 -0.37122,3.84014 0.73421,1.71723 2.0929,2.78638 3.03358,2.38435 0.93937,-0.40154 1.10503,-2.12199 0.37124,-3.84013 -0.55066,-1.28793 -1.45233,-2.21135 -2.2658,-2.42284 z m 17.29916,8.12921 c 0.0629,0.0355 0.12786,0.0631 0.14739,0.12361 0.0195,0.0607 -0.0183,0.12188 -0.0497,0.1878 -0.0617,0.12464 -0.15469,0.24621 -0.2693,0.36634 -0.38628,0.4025 -0.98739,0.7511 -1.69903,0.97553 -0.71074,0.22485 -1.40156,0.2835 -1.94834,0.17539 -0.1635,-0.0322 -0.31177,-0.0785 -0.4339,-0.14561 -0.0629,-0.0355 -0.12787,-0.0631 -0.14741,-0.12362 -0.0194,-0.0607 0.0183,-0.12188 0.0497,-0.18779 0.0617,-0.12465 0.1547,-0.24622 0.2693,-0.36634 0.38628,-0.40251 0.98821,-0.75289 1.69986,-0.97732 0.71032,-0.22394 1.40332,-0.28267 1.95011,-0.17456 0.16349,0.0322 0.3092,0.0794 0.43134,0.14653 z m -17.48235,-7.14085 c 0.13048,0.0489 0.26128,0.13102 0.39138,0.23349 0.43826,0.34437 0.84607,0.90879 1.13986,1.59397 0.29247,0.68569 0.41878,1.36844 0.36509,1.92372 -0.0156,0.16562 -0.0476,0.31628 -0.10327,0.44476 -0.0282,0.0663 -0.0513,0.1332 -0.10925,0.15829 -0.0587,0.0248 -0.12176,-0.005 -0.1906,-0.0296 -0.13049,-0.0489 -0.26038,-0.13061 -0.3914,-0.23349 -0.43825,-0.34438 -0.84647,-0.90788 -1.13986,-1.59398 -0.29248,-0.68568 -0.41878,-1.36843 -0.36508,-1.92371 0.0156,-0.16562 0.048,-0.31719 0.10328,-0.44475 0.0287,-0.0672 0.0497,-0.13392 0.10752,-0.15909 0.0587,-0.0248 0.12354,0.005 0.19238,0.0304 z m 19.34736,12.74759 c -0.57886,-0.23234 -1.22636,-0.41272 -1.91889,-0.52037 -2.77054,-0.42972 -5.21282,0.45288 -5.44777,1.96813 -0.23537,1.51616 1.82322,3.09688 4.59375,3.52659 2.77054,0.42972 5.21241,-0.45197 5.44777,-1.96813 0.17653,-1.13712 -0.93826,-2.30924 -2.67486,-3.00622 z m -12.32144,-4.77873 c -2.39446,-1.09992 -5.23031,-0.0493 -6.33022,2.34513 -1.10033,2.39535 -0.0501,5.23209 2.3443,6.332 2.39535,1.10033 5.23249,0.0493 6.33282,-2.34609 1.09991,-2.39445 0.0485,-5.23072 -2.3469,-6.33104 z m 12.1795,5.79895 c 0.56594,0.25117 1.04161,0.56321 1.38568,0.91378 0.28667,0.29346 0.49261,0.59537 0.442,0.91877 -0.0497,0.32381 -0.33764,0.55007 -0.69997,0.74239 -0.86941,0.46008 -2.1889,0.61039 -3.60522,0.39007 -1.41674,-0.21942 -2.62751,-0.76267 -3.31607,-1.46528 -0.2871,-0.29254 -0.4917,-0.59496 -0.44199,-0.91877 0.0506,-0.32338 0.33845,-0.54969 0.70172,-0.74157 0.8681,-0.45959 2.18671,-0.6103 3.60346,-0.39089 0.70816,0.11016 1.36451,0.30017 1.93041,0.55146 z m -24.95336,-11.07138 c -1.6601,-0.86349 -3.27391,-0.9446 -4.02156,-0.0698 -0.99596,1.16677 -0.0766,3.59246 2.05442,5.41433 2.13105,1.82187 4.67143,2.35373 5.6683,1.18737 0.99687,-1.16636 0.0767,-3.59028 -2.05524,-5.41256 -0.53276,-0.45547 -1.09255,-0.83147 -1.64592,-1.11931 z m -0.68149,0.77237 c 0.55916,0.26566 1.13287,0.64055 1.67781,1.10601 1.08948,0.93185 1.83333,2.02997 2.05116,2.98838 0.0902,0.40018 0.10788,0.76684 -0.1054,1.01551 -0.21236,0.2491 -0.57685,0.29008 -0.98674,0.26246 -0.9803,-0.0652 -2.18217,-0.63015 -3.27208,-1.56105 -1.0899,-0.93094 -1.83466,-2.02948 -2.05115,-2.98839 -0.0902,-0.40018 -0.10697,-0.7664 0.10539,-1.0155 0.21328,-0.24867 0.57777,-0.28966 0.98674,-0.26246 0.4906,0.0328 1.03505,0.18953 1.59426,0.45507 z m 12.6205,6.31748 c 1.39213,0.63949 2.0034,2.28754 1.36432,3.67877 -0.63949,1.39214 -2.2884,2.00301 -3.68054,1.36352 -1.39124,-0.63908 -2.00123,-2.2876 -1.36174,-3.67973 0.63908,-1.39124 2.28672,-2.00164 3.67796,-1.36256 z" /><path
     id="path32886"
     style="clip-rule:evenodd;fill:#ffffff;fill-rule:evenodd;stroke-linecap:round"
     d="m 185.55336,301.73712 -3.85811,3.04761 3.04762,3.85811 3.85617,-3.04784 z m -0.16505,1.40635 1.80631,2.28669 -2.28692,1.80826 -1.80803,-2.28886 z m 9.72473,2.42746 c -0.80428,-0.24278 -2.05446,0.0764 -3.19576,0.88942 -1.52085,1.08511 -2.27396,2.64046 -1.6799,3.47238 0.59297,0.8328 2.30961,0.62711 3.83135,-0.4569 1.52085,-1.08512 2.27395,-2.64047 1.67987,-3.47239 -0.1482,-0.20821 -0.36746,-0.35158 -0.63556,-0.43251 z m -19.32187,-1.45161 c -0.27966,0.0166 -0.52575,0.10543 -0.71843,0.27361 -0.76955,0.67187 -0.39609,2.35945 0.83219,3.76722 1.22839,1.40677 2.85074,2.00435 3.6214,1.3316 0.76957,-0.67187 0.39611,-2.35945 -0.83216,-3.76721 -0.9213,-1.05509 -2.06396,-1.65512 -2.90299,-1.6052 z m 18.96363,2.39283 c 0.0708,0.0144 0.1411,0.0206 0.17835,0.0721 0.0373,0.0517 0.0202,0.12158 0.0107,0.19398 -0.0202,0.13759 -0.0711,0.28193 -0.14308,0.43157 -0.24318,0.50207 -0.70734,1.01919 -1.31497,1.45231 -0.60663,0.43325 -1.24562,0.70226 -1.79907,0.76819 -0.16546,0.0198 -0.32078,0.0216 -0.45766,-0.005 -0.0708,-0.0144 -0.1411,-0.0206 -0.17837,-0.0721 -0.0372,-0.0517 -0.0202,-0.12158 -0.0107,-0.19396 0.0202,-0.13761 0.0712,-0.28195 0.14308,-0.43157 0.24318,-0.50209 0.70758,-1.02115 1.31521,-1.45427 0.60652,-0.43225 1.24755,-0.70201 1.80101,-0.76795 0.16545,-0.0198 0.31862,-0.0199 0.45551,0.006 z m -18.83281,-1.39618 c 0.1392,0.006 0.28896,0.044 0.44434,0.10129 0.52315,0.19228 1.08526,0.60327 1.57619,1.16432 0.48983,0.56194 0.82071,1.17236 0.94103,1.7171 0.0363,0.16235 0.0523,0.31553 0.039,0.45492 -0.006,0.0718 -0.008,0.14253 -0.0551,0.18428 -0.0482,0.0417 -0.11736,0.0328 -0.19043,0.0307 -0.13921,-0.006 -0.28798,-0.0439 -0.44436,-0.10128 -0.52315,-0.1923 -1.08536,-0.60229 -1.57619,-1.16433 -0.48984,-0.56193 -0.82071,-1.17236 -0.94102,-1.7171 -0.0363,-0.16235 -0.0523,-0.31652 -0.039,-0.45492 0.007,-0.0728 0.006,-0.14272 0.0532,-0.1845 0.0482,-0.0417 0.11905,-0.0334 0.19237,-0.0305 z m 22.33731,6.15352 c -0.62231,-0.0423 -1.29387,-0.014 -1.98581,0.0973 -2.7679,0.4464 -4.81852,2.03973 -4.57431,3.55351 0.24409,1.51478 2.69007,2.38293 5.45796,1.93652 2.7679,-0.4464 4.8184,-2.03874 4.5743,-3.55351 -0.18306,-1.13609 -1.6052,-1.9069 -3.47214,-2.03384 z m -13.19481,-0.74233 c -2.61705,-0.30715 -4.99015,1.56747 -5.29731,4.18448 -0.30727,2.61802 1.56726,4.99209 4.18424,5.29925 2.61802,0.30727 4.99223,-1.56814 5.29948,-4.18619 0.30715,-2.61703 -1.56835,-4.9903 -4.18641,-5.29754 z m 13.3747,1.75655 c 0.61583,0.0642 1.16459,0.21422 1.60006,0.44147 0.36325,0.19065 0.65232,0.41425 0.704,0.73748 0.0527,0.32334 -0.15137,0.62743 -0.43665,0.9222 -0.68495,0.70596 -1.89362,1.2562 -3.30879,1.48379 -1.41529,0.22857 -2.73462,0.0856 -3.60643,-0.37022 -0.36337,-0.18964 -0.65133,-0.41414 -0.70399,-0.73749 -0.0517,-0.3232 0.15226,-0.62731 0.43857,-0.92195 0.68386,-0.70509 1.89157,-1.25544 3.30687,-1.48403 0.70758,-0.11379 1.39053,-0.13564 2.00636,-0.0713 z m -27.15223,-2.82884 c -1.84556,-0.30893 -3.40561,0.11203 -3.84675,1.17488 -0.5872,1.41721 1.03597,3.4407 3.62527,4.51587 2.58933,1.07515 5.16984,0.79695 5.75803,-0.62015 0.5882,-1.4171 -1.0352,-3.43866 -3.6255,-4.51393 -0.64733,-0.26879 -1.29584,-0.45365 -1.91104,-0.55664 z m -0.40982,0.945 c 0.61386,0.0801 1.27527,0.25961 1.93727,0.53415 1.3239,0.55008 2.37037,1.36499 2.87338,2.20937 0.20932,0.3528 0.33931,0.6961 0.21319,0.99846 -0.1251,0.30248 -0.45915,0.45396 -0.85755,0.55421 -0.95256,0.24055 -2.27012,0.0741 -3.59414,-0.47489 -1.32403,-0.54909 -2.37149,-1.36412 -2.87338,-2.20939 -0.20932,-0.3528 -0.3383,-0.69596 -0.2132,-0.99844 0.12611,-0.30236 0.46016,-0.45385 0.85755,-0.55421 0.47677,-0.12023 1.04302,-0.1392 1.65688,-0.0592 z m 13.95422,2.11365 c 1.52153,0.17858 2.61164,1.55749 2.43317,3.07805 -0.17858,1.52155 -1.55843,2.61154 -3.07998,2.43296 -1.52056,-0.17846 -2.60959,-1.55822 -2.43102,-3.07976 0.17847,-1.52056 1.55726,-2.60971 3.07783,-2.43125 z" /><path
     id="path32888"
     style="clip-rule:evenodd;fill:#ffffff;fill-rule:evenodd;stroke-linecap:round"
     d="m 217.62399,287.97686 4.87358,0.64897 -0.64898,4.87358 -4.87202,-0.65016 z m 0.86034,1.12466 -0.38465,2.88856 2.88975,0.3862 0.38501,-2.8913 z m -7.11992,7.05478 c 0.56738,-0.61959 1.80518,-0.98386 3.20165,-0.86799 1.86176,0.1559 3.30374,1.10824 3.21804,2.12689 -0.0843,1.01886 -1.66512,1.71899 -3.52707,1.5645 -1.86177,-0.1559 -3.30376,-1.10825 -3.21803,-2.1269 0.0211,-0.25471 0.13627,-0.48998 0.32541,-0.6965 z m 15.86876,-11.11865 c 0.24891,-0.1286 0.50583,-0.17796 0.75739,-0.13178 1.00479,0.18446 1.54585,1.82599 1.20911,3.66368 -0.33734,1.83688 -1.42673,3.17939 -2.43292,2.99475 -1.00481,-0.18444 -1.54588,-1.82597 -1.20915,-3.66366 0.25302,-1.37766 0.9288,-2.47723 1.67558,-2.86294 z m -15.07996,11.74477 c -0.0536,0.0485 -0.1108,0.0897 -0.1165,0.15308 -0.006,0.0635 0.0448,0.11483 0.0899,0.17222 0.0877,0.10796 0.20519,0.20602 0.34347,0.29791 0.46556,0.30738 1.12875,0.51481 1.87237,0.57673 0.74282,0.0625 1.42957,-0.0326 1.93903,-0.25873 0.15237,-0.0675 0.28677,-0.14534 0.3911,-0.23774 0.0536,-0.0485 0.1108,-0.0897 0.1165,-0.15308 0.006,-0.0635 -0.0447,-0.11486 -0.0899,-0.17221 -0.0877,-0.10797 -0.20519,-0.20604 -0.34347,-0.29792 -0.46554,-0.30738 -1.12994,-0.51636 -1.87357,-0.5783 -0.74221,-0.0617 -1.4311,0.0338 -1.94057,0.25993 -0.15236,0.0675 -0.28407,0.14564 -0.38839,0.23806 z m 15.47665,-10.82116 c -0.11648,0.0765 -0.22595,0.18543 -0.33024,0.31407 -0.3515,0.43256 -0.62478,1.07303 -0.7602,1.80614 -0.13401,0.73331 -0.10662,1.4271 0.0682,1.95686 0.0517,0.1581 0.11621,0.29799 0.19883,0.41103 0.0421,0.0584 0.0795,0.1186 0.14147,0.13029 0.0628,0.0113 0.11766,-0.0317 0.17938,-0.0709 0.11649,-0.0765 0.22516,-0.18483 0.33026,-0.31407 0.3515,-0.43257 0.62536,-1.07224 0.76019,-1.80615 0.13403,-0.7333 0.10662,-1.4271 -0.0682,-1.95686 -0.0517,-0.15809 -0.11681,-0.29878 -0.19884,-0.41101 -0.0428,-0.0593 -0.078,-0.11967 -0.13997,-0.13146 -0.0628,-0.0113 -0.1194,0.0321 -0.18094,0.0721 z m -16.05901,16.70119 c 0.51335,-0.35431 1.10512,-0.67306 1.75685,-0.93082 2.60751,-1.03025 5.18432,-0.70809 5.7477,0.718 0.56401,1.4269 -1.09521,3.42277 -3.70272,4.45301 -2.60751,1.03024 -5.18372,0.70891 -5.74771,-0.71801 -0.423,-1.07017 0.40578,-2.45932 1.94588,-3.52218 z m 10.96389,-7.37885 c 2.09286,-1.60099 5.09061,-1.20177 6.69158,0.89107 1.60158,2.09364 1.20294,5.09216 -0.88987,6.69314 -2.09365,1.60158 -5.09274,1.20224 -6.69434,-0.89144 -1.60098,-2.09286 -1.20107,-5.09118 0.89263,-6.69277 z m -10.60041,8.34263 c -0.4966,0.36981 -0.89173,0.77909 -1.14999,1.19692 -0.21488,0.34946 -0.34916,0.68936 -0.22846,0.99364 0.11995,0.30486 0.45065,0.46204 0.84648,0.5697 0.94948,0.25698 2.26963,0.11254 3.60247,-0.41479 1.33344,-0.52651 2.39456,-1.32345 2.91119,-2.16064 0.21549,-0.34866 0.34834,-0.68877 0.22844,-0.99363 -0.12068,-0.30425 -0.45136,-0.4615 -0.84801,-0.56853 -0.94809,-0.25678 -2.26747,-0.11292 -3.60092,0.41361 -0.66643,0.26366 -1.26469,0.59376 -1.76123,0.96368 z M 233.831,287.32341 c 1.42874,-1.2084 2.98491,-1.64347 3.9071,-0.95514 1.2288,0.91834 0.86713,3.48708 -0.80954,5.73413 -1.6767,2.24706 -4.0372,3.32617 -5.26678,2.40842 -1.2296,-0.91775 -0.86675,-3.48493 0.81073,-5.73258 0.41917,-0.56177 0.88224,-1.05199 1.35849,-1.4548 z m 0.83507,0.60303 c -0.4868,0.38245 -0.96368,0.87465 -1.39253,1.44886 -0.8571,1.1492 -1.34041,2.38435 -1.34148,3.36721 2.6e-4,0.41022 0.0639,0.77175 0.32681,0.96725 0.26207,0.19612 0.62663,0.15569 1.02032,0.0383 0.94178,-0.27983 1.98943,-1.09596 2.84716,-2.24435 0.85771,-1.14841 1.34182,-2.38417 1.34146,-3.36722 -2.5e-4,-0.41022 -0.0647,-0.77111 -0.32679,-0.96724 -0.26287,-0.1955 -0.62743,-0.15508 -1.02033,-0.0383 -0.47127,0.14025 -0.96774,0.41317 -1.45461,0.79552 z m -10.91617,8.94566 c -1.21679,0.93081 -1.44948,2.6731 -0.51927,3.8891 0.93082,1.21679 2.67385,1.44891 3.89065,0.5181 1.216,-0.93021 1.44735,-2.67268 0.51654,-3.88947 -0.93022,-1.216 -2.67192,-1.44794 -3.88792,-0.51773 z" /><path
     id="path32890"
     style="clip-rule:evenodd;fill:#ffffff;fill-rule:evenodd;stroke-linecap:round"
     d="m 244.00566,258.07764 4.87358,0.64897 -0.64898,4.87358 -4.87202,-0.65016 z m 0.86034,1.12466 -0.38465,2.88856 2.88975,0.3862 0.38501,-2.8913 z m -7.11992,7.05478 c 0.56738,-0.61959 1.80518,-0.98386 3.20165,-0.86799 1.86176,0.1559 3.30374,1.10824 3.21804,2.12689 -0.0843,1.01886 -1.66512,1.71899 -3.52707,1.5645 -1.86177,-0.1559 -3.30376,-1.10825 -3.21803,-2.1269 0.0211,-0.25471 0.13627,-0.48998 0.32541,-0.6965 z m 15.86876,-11.11865 c 0.24891,-0.1286 0.50583,-0.17796 0.75739,-0.13178 1.00479,0.18446 1.54585,1.82599 1.20911,3.66368 -0.33734,1.83688 -1.42673,3.17939 -2.43292,2.99475 -1.00481,-0.18444 -1.54588,-1.82597 -1.20915,-3.66366 0.25302,-1.37766 0.9288,-2.47723 1.67558,-2.86294 z m -15.07996,11.74477 c -0.0536,0.0485 -0.1108,0.0897 -0.1165,0.15308 -0.006,0.0635 0.0448,0.11483 0.0899,0.17222 0.0877,0.10796 0.20519,0.20602 0.34347,0.29791 0.46556,0.30738 1.12875,0.51481 1.87237,0.57673 0.74282,0.0625 1.42957,-0.0326 1.93903,-0.25873 0.15237,-0.0675 0.28677,-0.14534 0.3911,-0.23774 0.0536,-0.0485 0.1108,-0.0897 0.1165,-0.15308 0.006,-0.0635 -0.0447,-0.11486 -0.0899,-0.17221 -0.0877,-0.10797 -0.20519,-0.20604 -0.34347,-0.29792 -0.46554,-0.30738 -1.12994,-0.51636 -1.87357,-0.5783 -0.74221,-0.0617 -1.4311,0.0338 -1.94057,0.25993 -0.15236,0.0675 -0.28407,0.14564 -0.38839,0.23806 z m 15.47665,-10.82116 c -0.11648,0.0765 -0.22595,0.18543 -0.33024,0.31407 -0.3515,0.43256 -0.62478,1.07303 -0.7602,1.80614 -0.13401,0.73331 -0.10662,1.4271 0.0682,1.95686 0.0517,0.1581 0.11621,0.29799 0.19883,0.41103 0.0421,0.0584 0.0795,0.1186 0.14147,0.13029 0.0628,0.0113 0.11766,-0.0317 0.17938,-0.0709 0.11649,-0.0765 0.22516,-0.18483 0.33026,-0.31407 0.3515,-0.43257 0.62536,-1.07224 0.76019,-1.80615 0.13403,-0.7333 0.10662,-1.4271 -0.0682,-1.95686 -0.0517,-0.15809 -0.11681,-0.29878 -0.19884,-0.41101 -0.0428,-0.0593 -0.078,-0.11967 -0.13997,-0.13146 -0.0628,-0.0113 -0.1194,0.0321 -0.18094,0.0721 z m -16.05901,16.70119 c 0.51335,-0.35431 1.10512,-0.67306 1.75685,-0.93082 2.60751,-1.03025 5.18432,-0.70809 5.7477,0.718 0.56401,1.4269 -1.09521,3.42277 -3.70272,4.45301 -2.60751,1.03024 -5.18372,0.70891 -5.74771,-0.71801 -0.423,-1.07017 0.40578,-2.45932 1.94588,-3.52218 z m 10.96389,-7.37885 c 2.09286,-1.60099 5.09061,-1.20177 6.69158,0.89107 1.60158,2.09364 1.20294,5.09216 -0.88987,6.69314 -2.09365,1.60158 -5.09274,1.20224 -6.69434,-0.89144 -1.60098,-2.09286 -1.20107,-5.09118 0.89263,-6.69277 z m -10.60041,8.34263 c -0.4966,0.36981 -0.89173,0.77909 -1.14999,1.19692 -0.21488,0.34946 -0.34916,0.68936 -0.22846,0.99364 0.11995,0.30486 0.45065,0.46204 0.84648,0.5697 0.94948,0.25698 2.26963,0.11254 3.60247,-0.41479 1.33344,-0.52651 2.39456,-1.32345 2.91119,-2.16064 0.21549,-0.34866 0.34834,-0.68877 0.22844,-0.99363 -0.12068,-0.30425 -0.45136,-0.4615 -0.84801,-0.56853 -0.94809,-0.25678 -2.26747,-0.11292 -3.60092,0.41361 -0.66643,0.26366 -1.26469,0.59376 -1.76123,0.96368 z m 21.89667,-16.30282 c 1.42874,-1.2084 2.98491,-1.64347 3.9071,-0.95514 1.2288,0.91834 0.86713,3.48708 -0.80954,5.73413 -1.6767,2.24706 -4.0372,3.32617 -5.26678,2.40842 -1.2296,-0.91775 -0.86675,-3.48493 0.81073,-5.73258 0.41917,-0.56177 0.88224,-1.05199 1.35849,-1.4548 z m 0.83507,0.60303 c -0.4868,0.38245 -0.96368,0.87465 -1.39253,1.44886 -0.8571,1.1492 -1.34041,2.38435 -1.34148,3.36721 2.6e-4,0.41022 0.0639,0.77175 0.32681,0.96725 0.26207,0.19612 0.62663,0.15569 1.02032,0.0383 0.94178,-0.27983 1.98943,-1.09596 2.84716,-2.24435 0.85771,-1.14841 1.34182,-2.38417 1.34146,-3.36722 -2.5e-4,-0.41022 -0.0647,-0.77111 -0.32679,-0.96724 -0.26287,-0.1955 -0.62743,-0.15508 -1.02033,-0.0383 -0.47127,0.14025 -0.96774,0.41317 -1.45461,0.79552 z m -10.91617,8.94566 c -1.21679,0.93081 -1.44948,2.6731 -0.51927,3.8891 0.93082,1.21679 2.67385,1.44891 3.89065,0.5181 1.216,-0.93021 1.44735,-2.67268 0.51654,-3.88947 -0.93022,-1.216 -2.67192,-1.44794 -3.88792,-0.51773 z" /><path
     id="path32892"
     style="clip-rule:evenodd;fill:#ffffff;fill-rule:evenodd;stroke-linecap:round"
     d="M 288.49023 225.95312 C 288.36185 225.96333 288.23168 225.99498 288.10156 226.04688 C 287.32083 226.35815 286.54003 227.38783 286.1543 228.73438 C 285.64054 230.53061 286.01982 232.21681 287.00195 232.49805 C 287.98543 232.77961 289.20055 231.54928 289.71484 229.75391 C 290.2286 227.95765 289.84929 226.27148 288.86719 225.99023 C 288.74425 225.95501 288.61862 225.94293 288.49023 225.95312 z M 288.59375 226.95117 C 288.65428 226.96893 288.68195 227.0325 288.71875 227.0957 C 288.7895 227.21537 288.84085 227.36107 288.87695 227.52344 C 288.99945 228.06768 288.96053 228.76172 288.75586 229.47852 C 288.55033 230.19583 288.21415 230.80481 287.82227 231.20117 C 287.70511 231.31958 287.58626 231.41762 287.46289 231.48242 C 287.39765 231.51542 287.3407 231.55246 287.2793 231.53516 C 287.21876 231.5175 287.18659 231.45282 287.15039 231.39062 C 287.07915 231.2701 287.02829 231.12526 286.99219 230.96289 C 286.86969 230.41864 286.91058 229.72656 287.11523 229.00977 C 287.32127 228.2933 287.655 227.6815 288.04688 227.28516 C 288.16316 227.16726 288.28289 227.06871 288.40625 227.00391 C 288.47139 226.97011 288.53235 226.93387 288.59375 226.95117 z M 297.19922 227.95117 C 296.39003 227.93808 295.40746 228.29802 294.44531 228.96289 C 293.93216 229.3175 293.42296 229.76093 292.95117 230.2793 C 291.06317 232.35323 290.45331 234.87333 291.58789 235.90625 C 292.72244 236.93917 295.17729 236.09493 297.06445 234.02148 C 298.95159 231.94807 299.56145 229.42601 298.42773 228.39258 C 298.10864 228.10207 297.68473 227.95903 297.19922 227.95117 z M 297.03711 228.95117 C 297.32139 228.92722 297.57194 228.96577 297.75391 229.13086 C 297.99574 229.35154 298.02593 229.7167 297.98633 230.125 C 297.89113 231.10343 297.28949 232.28806 296.32422 233.34766 C 295.35893 234.40725 294.236 235.11773 293.27148 235.30469 C 292.86824 235.38326 292.50154 235.38669 292.25977 235.16602 C 292.01713 234.94589 291.9897 234.58017 292.0293 234.17188 C 292.1259 233.19378 292.72666 232.01162 293.69141 230.95117 C 294.17404 230.42136 294.69708 229.97786 295.21875 229.64453 C 295.74048 229.31131 296.25951 229.08794 296.74219 228.99414 C 296.84278 228.97463 296.94235 228.95916 297.03711 228.95117 z M 282.33594 228.99414 C 282.03734 229.27104 281.73499 229.53921 281.43359 229.81055 L 281.83789 229.9043 L 281.17383 232.74414 L 278.70508 232.16406 C 278.37966 232.43252 278.0553 232.70148 277.72852 232.96289 L 281.91992 233.94531 L 283.03906 229.1582 L 282.33594 228.99414 z M 285.12695 235.07227 C 284.20811 235.03677 283.26915 235.26586 282.42969 235.78711 C 280.19023 237.1776 279.50067 240.12277 280.89062 242.36133 C 282.28113 244.60077 285.22739 245.29088 287.4668 243.90039 C 289.70529 242.51041 290.39245 239.56362 289.00195 237.32422 C 288.13323 235.92513 286.65836 235.13143 285.12695 235.07227 z M 274.88672 235.13477 C 274.51437 235.40688 274.14128 235.69704 273.76953 235.95898 C 273.95219 235.97243 274.12644 235.96733 274.31641 236.00195 C 275.05049 236.13587 275.69154 236.40663 276.125 236.75781 C 276.2537 236.86269 276.36265 236.97191 276.43945 237.08789 C 276.47885 237.14936 276.52382 237.20693 276.51172 237.26953 C 276.49989 237.33206 276.43896 237.36706 276.38086 237.41016 C 276.26804 237.49198 276.12696 237.55502 275.96875 237.60742 C 275.43972 237.78293 274.7469 237.81213 274.01367 237.67773 C 273.31294 237.54991 272.70891 237.29102 272.27734 236.96289 C 271.99361 237.15295 271.71022 237.34173 271.42773 237.52539 C 271.96486 238.04006 272.80082 238.47351 273.83203 238.66211 C 275.67014 238.99685 277.31121 238.45309 277.49414 237.44727 C 277.66434 236.51876 276.50818 235.54697 274.88672 235.13477 z M 285.05078 237.07227 C 285.94055 237.10664 286.79797 237.56795 287.30273 238.38086 C 288.11086 239.68236 287.7108 241.39356 286.41016 242.20117 C 285.10865 243.0093 283.39799 242.60814 282.58984 241.30664 C 281.78223 240.00598 282.18287 238.29446 283.48438 237.48633 C 283.97211 237.18347 284.51692 237.05164 285.05078 237.07227 z M 14.853516 239.34961 C 14.759681 239.41936 14.639083 239.45727 14.5625 239.54688 C 13.566542 240.71363 14.486172 243.13907 16.617188 244.96094 C 18.748232 246.78281 21.288288 247.3148 22.285156 246.14844 C 22.684092 245.68167 22.763914 245.01008 22.59375 244.25977 C 22.134244 244.03287 21.699418 243.77249 21.25 243.53125 C 21.420647 243.85548 21.561369 244.17668 21.630859 244.48242 C 21.721059 244.8826 21.738669 245.24938 21.525391 245.49805 C 21.313031 245.74715 20.948952 245.78934 20.539062 245.76172 C 19.558764 245.69652 18.357486 245.13012 17.267578 244.19922 C 16.17768 243.26828 15.431334 242.16985 15.214844 241.21094 C 15.124644 240.81076 15.107954 240.44441 15.320312 240.19531 C 15.410216 240.09049 15.531939 240.02966 15.667969 239.98828 C 15.391112 239.78089 15.124551 239.56304 14.853516 239.34961 z M 275.05859 240.9668 C 274.30744 240.95914 273.48095 241.06932 272.63867 241.31055 C 271.96497 241.50374 271.34419 241.76367 270.79883 242.06641 C 269.16272 242.97454 268.20451 244.27659 268.52148 245.38281 C 268.94411 246.85779 271.47657 247.42816 274.17188 246.65625 C 276.86716 245.88434 278.71171 244.05894 278.28906 242.58398 C 277.99888 241.57055 276.71113 240.98364 275.05859 240.9668 z M 274.89844 241.96289 C 275.51734 241.95332 276.07974 242.03708 276.53906 242.21094 C 276.92343 242.35602 277.23567 242.54484 277.32617 242.85938 C 277.41587 243.17443 277.25227 243.50011 277.00391 243.82617 C 276.40836 244.60918 275.27478 245.29895 273.89648 245.69336 C 272.51871 246.08867 271.18953 246.10391 270.26953 245.75586 C 269.88603 245.61023 269.57212 245.42249 269.48242 245.10742 C 269.39187 244.79285 269.55881 244.46754 269.80664 244.14062 C 270.10429 243.74989 270.53817 243.38033 271.06836 243.06055 C 271.5985 242.74065 272.22516 242.46911 272.91406 242.27148 C 273.60322 242.07429 274.27954 241.97246 274.89844 241.96289 z M 26.085938 245.80859 C 25.663328 246.21272 25.286204 246.67085 25.027344 247.23438 C 23.927016 249.62971 24.976688 252.4665 27.371094 253.56641 C 29.766438 254.66674 32.60475 253.61609 33.705078 251.2207 C 34.169109 250.21053 34.231538 249.12717 33.990234 248.12305 C 33.154893 247.95451 32.338741 247.74436 31.521484 247.5332 C 32.140721 248.32465 32.334667 249.40961 31.886719 250.38477 C 31.247229 251.77689 29.599169 252.38754 28.207031 251.74805 C 26.815795 251.10897 26.204262 249.46049 26.84375 248.06836 C 27.169733 247.35871 27.767891 246.87404 28.451172 246.63281 C 27.657241 246.36868 26.857953 246.11255 26.085938 245.80859 z M 40.248047 249.03906 C 38.150679 249.07035 36.503397 249.8841 36.3125 251.11523 C 36.07713 252.63139 38.135726 254.21287 40.90625 254.64258 C 43.676784 255.0723 46.118156 254.18999 46.353516 252.67383 C 46.530044 251.53671 45.414332 250.36495 43.677734 249.66797 C 43.098876 249.43563 42.452294 249.25413 41.759766 249.14648 C 41.24029 249.06591 40.732054 249.03184 40.248047 249.03906 z M 40.568359 250.04102 C 40.904773 250.05056 41.251282 250.08187 41.605469 250.13672 C 42.313627 250.24688 42.971211 250.43621 43.537109 250.6875 C 44.103049 250.93867 44.577805 251.25099 44.921875 251.60156 C 45.208545 251.89502 45.415844 252.19613 45.365234 252.51953 C 45.315534 252.84334 45.026392 253.07135 44.664062 253.26367 C 43.794654 253.72375 42.47491 253.87266 41.058594 253.65234 C 39.641856 253.43292 38.430746 252.89011 37.742188 252.1875 C 37.455088 251.89496 37.251071 251.59334 37.300781 251.26953 C 37.351381 250.94615 37.638683 250.71922 38.001953 250.52734 C 38.653026 250.18265 39.559119 250.01238 40.568359 250.04102 z " /></svg>
