<?xml version="1.0" encoding="UTF-8" standalone="no"?>
<svg
   id="Layer_1"
   data-name="Layer 1"
   viewBox="0 0 300 345"
   version="1.1"
   sodipodi:docname="frogVampire.svg"
   xml:space="preserve"
   inkscape:version="1.2 (dc2aedaf03, 2022-05-15)"
   xmlns:inkscape="http://www.inkscape.org/namespaces/inkscape"
   xmlns:sodipodi="http://sodipodi.sourceforge.net/DTD/sodipodi-0.dtd"
   xmlns:xlink="http://www.w3.org/1999/xlink"
   xmlns="http://www.w3.org/2000/svg"
   xmlns:svg="http://www.w3.org/2000/svg"><sodipodi:namedview
     id="namedview451"
     pagecolor="#505050"
     bordercolor="#ffffff"
     borderopacity="1"
     inkscape:showpageshadow="0"
     inkscape:pageopacity="0"
     inkscape:pagecheckerboard="1"
     inkscape:deskcolor="#505050"
     showgrid="false"
     inkscape:zoom="2.067657"
     inkscape:cx="96.727842"
     inkscape:cy="197.3248"
     inkscape:window-width="1366"
     inkscape:window-height="705"
     inkscape:window-x="-8"
     inkscape:window-y="-8"
     inkscape:window-maximized="1"
     inkscape:current-layer="Layer_1" /><defs
     id="defs401"><inkscape:path-effect
       effect="mirror_symmetry"
       start_point="142.17744,207.55567"
       end_point="142.17744,249.71858"
       center_point="142.17744,228.63712"
       id="path-effect18440"
       is_visible="true"
       lpeversion="1.2"
       lpesatellites=""
       mode="vertical"
       discard_orig_path="false"
       fuse_paths="false"
       oposite_fuse="false"
       split_items="false"
       split_open="false"
       link_styles="false" /><inkscape:path-effect
       effect="fillet_chamfer"
       id="path-effect18010"
       is_visible="true"
       lpeversion="1"
       nodesatellites_param="F,0,0,1,0,1,0,1 @ F,0,0,1,0,1,0,1 @ F,0,0,1,0,1,0,1 @ F,0,0,1,0,1,0,1"
       unit="px"
       method="auto"
       mode="F"
       radius="1"
       chamfer_steps="1"
       flexible="false"
       use_knot_distance="true"
       apply_no_radius="true"
       apply_with_radius="true"
       only_selected="false"
       hide_knots="false" /><inkscape:path-effect
       effect="fillet_chamfer"
       id="path-effect18004"
       is_visible="true"
       lpeversion="1"
       nodesatellites_param="F,0,0,1,0,4,0,1 @ F,0,0,1,0,4,0,1 @ F,0,0,1,0,4,0,1 @ F,0,0,1,0,4,0,1"
       unit="px"
       method="auto"
       mode="F"
       radius="4"
       chamfer_steps="1"
       flexible="false"
       use_knot_distance="true"
       apply_no_radius="true"
       apply_with_radius="true"
       only_selected="false"
       hide_knots="false" /><inkscape:path-effect
       effect="bspline"
       id="path-effect16596"
       is_visible="true"
       lpeversion="1"
       weight="33.333333"
       steps="2"
       helper_size="0"
       apply_no_weight="true"
       apply_with_weight="true"
       only_selected="false" /><inkscape:path-effect
       effect="mirror_symmetry"
       start_point="92.144937,148.9456"
       end_point="92.144937,238.19596"
       center_point="92.144937,193.57078"
       id="path-effect11137"
       is_visible="true"
       lpeversion="1.2"
       lpesatellites=""
       mode="vertical"
       discard_orig_path="false"
       fuse_paths="false"
       oposite_fuse="false"
       split_items="false"
       split_open="false"
       link_styles="false" /><inkscape:path-effect
       effect="mirror_symmetry"
       start_point="150,139.39529"
       end_point="150,211.8298"
       center_point="150,175.61254"
       id="path-effect10562"
       is_visible="true"
       lpeversion="1.2"
       lpesatellites=""
       mode="free"
       discard_orig_path="false"
       fuse_paths="true"
       oposite_fuse="false"
       split_items="false"
       split_open="false"
       link_styles="false" /><linearGradient
       inkscape:collect="always"
       id="linearGradient2438"><stop
         style="stop-color:#6a0871;stop-opacity:1;"
         offset="0"
         id="stop2434" /><stop
         style="stop-color:#a3108f;stop-opacity:1;"
         offset="1"
         id="stop2436" /></linearGradient><style
       id="style388">.cls-1{fill:url(#linear-gradient);}.cls-2{fill:#9bd4ee;}.cls-15,.cls-3,.cls-9{fill:none;}.cls-3{stroke:#90b83e;stroke-width:19px;}.cls-12,.cls-14,.cls-15,.cls-3,.cls-9{stroke-miterlimit:10;}.cls-4{fill:#559441;}.cls-5{fill:url(#linear-gradient-2);}.cls-6{fill:url(#linear-gradient-3);}.cls-7{fill:#90b83e;}.cls-8{fill:#789b3e;}.cls-12,.cls-15,.cls-9{stroke:#587635;}.cls-12,.cls-14,.cls-15,.cls-9{stroke-linecap:round;}.cls-9{stroke-width:12px;}.cls-10,.cls-12{fill:#a7d054;}.cls-11{fill:#8faf3f;}.cls-12{stroke-width:4px;}.cls-13,.cls-14{fill:#e32b59;}.cls-14{stroke:#b71e48;}.cls-14,.cls-15{stroke-width:3px;}.cls-16{fill:#2f2c38;}.cls-17{fill:#e573ac;}</style><linearGradient
       id="linear-gradient"
       x1="150"
       y1="356.11"
       x2="150"
       y2="161.16"
       gradientUnits="userSpaceOnUse"><stop
         offset="0.07"
         stop-color="#416eb5"
         id="stop390"
         style="stop-color:#6741b5;stop-opacity:1;" /><stop
         offset="0.54000002"
         stop-color="#032657"
         id="stop392"
         style="stop-color:#200357;stop-opacity:1;" /></linearGradient><linearGradient
       id="linear-gradient-2"
       x1="113.69"
       y1="330.87"
       x2="113.69"
       y2="290.99"
       gradientUnits="userSpaceOnUse"><stop
         offset="0"
         stop-color="#90b83e"
         id="stop395" /><stop
         offset="1"
         stop-color="#559441"
         id="stop397" /></linearGradient><linearGradient
       id="linear-gradient-3"
       x1="277.64"
       y1="330.87"
       x2="277.64"
       y2="290.99"
       xlink:href="#linear-gradient-2" /><linearGradient
       inkscape:collect="always"
       xlink:href="#linear-gradient-2"
       id="linearGradient507"
       gradientUnits="userSpaceOnUse"
       x1="113.69"
       y1="330.87"
       x2="113.69"
       y2="290.99" /><linearGradient
       inkscape:collect="always"
       xlink:href="#linearGradient2438"
       id="linearGradient2440"
       x1="150"
       y1="45"
       x2="150"
       y2="329.75"
       gradientUnits="userSpaceOnUse" /></defs><path
     class="cls-1"
     d="M 263.62,345 H 36.38 A 36.38,36.38 0 0 1 0,308.62 v -49.48 h 300 v 49.48 A 36.38,36.38 0 0 1 263.62,345 Z"
     id="path403"
     style="fill:url(#linear-gradient)" /><rect
     class="cls-2"
     y="45"
     width="300"
     height="253.39"
     rx="36.380001"
     id="rect405"
     x="0"
     style="fill:url(#linearGradient2440);fill-opacity:1" /><path
     id="rect10616"
     style="fill:#e82627;stroke:#771616;stroke-width:2.729;stroke-linecap:round;stroke-linejoin:bevel;stroke-dasharray:none;stroke-dashoffset:9.131;stroke-opacity:1;stop-color:#000000"
     d="m 61.007767,144.77548 16.765367,4.17012 14.371803,74.57088 -85.8193844,6.31436 C 33.878203,205.43343 65.278136,184.24695 61.007767,144.77548 Z m 177.984463,0 -16.76536,4.17012 -14.37181,74.57088 85.81939,6.31436 C 266.1218,205.43343 234.72186,184.24695 238.99223,144.77548 Z"
     sodipodi:nodetypes="ccccc"
     inkscape:path-effect="#path-effect11137"
     inkscape:original-d="m 61.007767,144.77548 16.765367,4.17012 14.371803,74.57088 -85.8193844,6.31436 C 33.878203,205.43343 65.278136,184.24695 61.007767,144.77548 Z"
     class="UnoptimicedTransforms" /><circle
     style="fill:#ffecbb;fill-opacity:1;fill-rule:evenodd;stroke-width:1.25"
     id="path5935"
     cx="70.63961"
     cy="104.7415"
     r="51.152824" /><line
     class="cls-3"
     x1="150"
     y1="314.53"
     x2="150"
     y2="344.97"
     id="line407" /><polygon
     class="cls-4"
     points="199.89,289.74 207.05,276.4 262.56,298.9 259.66,321.17 "
     id="polygon409" /><path
     class="cls-5"
     d="m 0,262 v 23.8 a 36.38,36.38 0 0 0 36.38,36.38 h 180.46 a 10.54,10.54 0 0 0 10.53,-10.53 v -13.26 h -191 A 36.38,36.38 0 0 1 0,262 Z"
     id="path411"
     style="fill:url(#linearGradient507)" /><path
     class="cls-6"
     d="m 263.62,298.39 h -8.33 v 15.47 a 8.33,8.33 0 0 0 8.33,8.33 A 36.38,36.38 0 0 0 300,285.81 V 262 a 36.38,36.38 0 0 1 -36.38,36.39 z"
     id="path413"
     style="fill:url(#linear-gradient-3)" /><path
     class="cls-7"
     d="M 263.62,218.32 H 36.38 A 36.38,36.38 0 0 0 0,254.7 v 7.3 a 36.38,36.38 0 0 0 36.38,36.38 h 191 c 0,0 -26.82,-12.38 -21.8,-16.87 5.02,-4.49 49.71,16.88 49.71,16.88 h 8.33 A 36.38,36.38 0 0 0 300,262 v -7.3 a 36.38,36.38 0 0 0 -36.38,-36.38 z"
     id="path415" /><ellipse
     class="cls-8"
     cx="150"
     cy="246.39"
     rx="93.169998"
     ry="38.16"
     id="ellipse417" /><path
     id="circle6420"
     style="fill:#ffda7c;fill-opacity:0.6498673;fill-rule:evenodd;stroke-width:0.488095"
     d="M 80.154297 54.492188 A 19.973959 19.973959 0 0 0 73.076172 69.666016 A 19.973959 19.973959 0 0 0 93.048828 89.638672 A 19.973959 19.973959 0 0 0 112.2207 74.970703 A 51.152824 51.152824 0 0 0 80.154297 54.492188 z M 39.460938 80.871094 A 13.153583 13.153583 0 0 0 26.306641 94.023438 A 13.153583 13.153583 0 0 0 39.460938 107.17773 A 13.153583 13.153583 0 0 0 52.615234 94.023438 A 13.153583 13.153583 0 0 0 39.460938 80.871094 z M 86.228516 111.07422 A 16.076601 16.076601 0 0 0 70.152344 127.15039 A 16.076601 16.076601 0 0 0 86.228516 143.22852 A 16.076601 16.076601 0 0 0 102.30469 127.15039 A 16.076601 16.076601 0 0 0 86.228516 111.07422 z M 49.691406 124.71484 A 9.7433939 9.7433939 0 0 0 39.947266 134.45898 A 9.7433939 9.7433939 0 0 0 49.691406 144.20312 A 9.7433939 9.7433939 0 0 0 59.435547 134.45898 A 9.7433939 9.7433939 0 0 0 49.691406 124.71484 z " /><path
     id="rect8668"
     style="fill:#e82627;fill-opacity:1;stroke:#771616;stroke-width:2.64388;stroke-linecap:round;stroke-linejoin:bevel;stroke-dashoffset:9.131;stroke-opacity:1;stop-color:#000000"
     d="m 50.644915,123.17512 c 20.436807,11.6429 20.443673,11.5458 34.936732,-5.79124 2.837725,0.50107 19.828793,16.4787 22.660883,17.03362 36.64739,7.18073 42.00221,19.89186 77.44967,5.20528 1.7749,-0.73538 21.59725,-22.73365 23.43588,-23.52584 23.58853,24.37228 14.0521,7.7188 40.4392,6.43471 -15.17083,16.33854 6.07766,16.28387 19.48836,16.87093 l -101.88373,78.7341 H 126.14809 L 30.944362,139.39529 c 13.931847,1.83777 39.281238,5.49005 19.700553,-16.22017 z"
     sodipodi:nodetypes="ccssccccccc" /><path
     style="color:#000000;fill:#587635;stroke-linecap:round;stroke-miterlimit:10;-inkscape-stroke:none"
     d="m 123.79883,100.71094 c -11.64549,0.004 -21.87151,7.95266 -24.744143,19.23828 l -0.0078,0.0352 -0.0078,0.0332 c -0.430089,1.77554 -1.332014,3.40093 -2.609375,4.70703 l -0.394531,0.39648 -0.0332,0.0332 c -17.097494,17.63891 -30.292157,43.06408 -33.496094,68.43359 -4.779404,-0.94568 -10.482916,-0.2386 -15.164062,3.79688 l -0.002,0.004 -0.002,0.002 c -5.586299,4.8273 -7.446254,11.95031 -6.470704,17.9961 0.975551,6.04579 4.001785,11.37896 7.351563,16.07812 2.400239,3.36713 4.956073,6.24547 7.365234,8.79493 -0.540297,0.19099 -0.953667,0.24096 -1.498047,0.45507 -3.087526,1.2144 -6.278631,2.73775 -9,5.41993 -2.721368,2.68217 -4.780903,7.64345 -3.355468,12.22656 l 0.002,0.004 v 0.004 c 0.943652,3.01969 3.708933,4.51788 5.435547,4.99414 1.726613,0.47626 3.146407,0.48149 4.646484,0.41992 3.000154,-0.12313 6.288476,-0.72843 9.933594,-1.55468 7.273998,-1.64883 15.753525,-4.26531 22.40039,-6.44141 l 0.04883,-0.0156 0.210937,-0.0664 0.808594,-0.26953 C 99.622526,266.5118 120.74434,273.07031 150,273.07031 c 29.25525,0 50.38455,-6.55629 64.78516,-17.63476 l 0.80664,0.26953 0.25976,0.082 c 6.64687,2.1761 15.1264,4.79258 22.40039,6.44141 3.64512,0.82625 6.93344,1.43155 9.9336,1.55468 1.50007,0.0616 2.91987,0.0563 4.64648,-0.41992 1.72661,-0.47626 4.4919,-1.97445 5.43555,-4.99414 v -0.004 l 0.002,-0.004 c 1.42544,-4.58311 -0.6341,-9.54439 -3.35547,-12.22656 -2.72137,-2.68218 -5.91247,-4.20553 -9,-5.41993 -0.54503,-0.21437 -0.95907,-0.26388 -1.5,-0.45507 2.40873,-2.54943 4.96421,-5.42786 7.36328,-8.79493 3.34816,-4.69908 6.37336,-10.0314 7.34375,-16.07812 0.96371,-6.00506 -0.89198,-13.0629 -6.39648,-17.88281 -4.13448,-3.84632 -9.84409,-5.18627 -15.2168,-3.97852 -3.22359,-25.34712 -16.43971,-50.71916 -33.45898,-68.33789 -0.24556,-0.25914 -0.40663,-0.41282 -0.45899,-0.46289 -1.27736,-1.3061 -2.17928,-2.93149 -2.60937,-4.70703 l -0.008,-0.0332 -0.008,-0.0352 c -2.87263,-11.28562 -13.0967,-19.23459 -24.74218,-19.23828 h -0.002 c -13.31742,0 -21.33793,7.37809 -24.37695,14.30273 -1.11717,2.54555 -1.63679,4.83325 -1.99609,6.85156 -0.46861,-2.0429 -1.11744,-4.40908 -2.36914,-7.02734 -3.22409,-6.74398 -11.04391,-14.12695 -23.67774,-14.12695 z m 0.002,12 c 8.59615,0 10.95315,3.33172 12.85156,7.30273 0.94921,1.98551 1.49964,4.15467 1.84375,5.92383 0.17206,0.88458 0.28734,1.63568 0.43946,2.42187 0.0761,0.3931 0.12716,0.75484 0.37695,1.48438 0.1249,0.36477 0.24952,0.82695 0.83984,1.67187 0.59033,0.84493 2.29782,2.625 5.00782,2.625 h 9.69921 c 2.6581,0 4.55623,-1.90754 5.1504,-2.84179 0.59417,-0.93425 0.68929,-1.43031 0.79492,-1.81641 0.21126,-0.7722 0.23245,-1.13154 0.28125,-1.52539 0.0976,-0.7877 0.1605,-1.52276 0.27343,-2.38867 0.22588,-1.73183 0.64093,-3.83725 1.47266,-5.73242 1.66334,-3.79004 3.81617,-7.12446 13.38672,-7.125 6.22028,0.002 11.58281,4.17115 13.11719,10.19922 l -0.0176,-0.0684 c 0.93831,3.87364 2.90463,7.42397 5.69141,10.27343 l 0.0234,0.0234 0.0234,0.0234 c 0.24102,0.24101 0.3272,0.32683 0.25586,0.25 l 0.041,0.0449 0.043,0.043 c 16.89271,17.47619 30.13855,44.97801 30.90625,69.2207 l 0.36524,11.51367 9.22461,-6.89843 c 0.47728,-0.35689 0.97277,-0.69043 1.48437,-0.9961 l 0.0527,-0.0293 0.14453,-0.0918 0.0117,-0.006 c 0.12947,-0.0783 0.31194,-0.18009 0.54101,-0.30273 l 0.27149,-0.13672 0.19922,-0.11914 c -0.0699,0.0419 0.0209,-0.0125 0.2207,-0.0957 l 0.13867,-0.0586 0.13477,-0.0644 c 1.85217,-0.88313 4.00665,-0.5441 5.49804,0.86523 l 0.0996,0.0937 0.10352,0.0898 c 2.70101,2.32819 2.96781,3.95111 2.47851,7 -0.48929,3.0489 -2.52198,7.16223 -5.26757,11.01563 -5.49119,7.70681 -13.20118,14.17969 -13.20118,14.17969 l -7.52148,6.23047 c -0.55305,-0.17857 -1.21393,-0.36933 -1.74414,-0.54297 l -0.0234,-0.008 -0.20508,-0.0645 -3.13476,-1.04492 h -0.0606 l -0.0273,-0.01 -0.16407,-0.0547 -3.54101,-1.25586 -2.63867,2.27539 C 198.1607,254.19066 179.25692,261.07031 150,261.07031 c -29.25692,0 -48.14998,-6.87642 -59.744141,-16.86523 l -2.638672,-2.27539 -3.539062,1.25586 -0.164063,0.0547 -0.02734,0.01 h -0.06055 l -3.134766,1.04492 -0.205078,0.0645 -0.02344,0.008 c -0.530207,0.17364 -1.191089,0.3644 -1.744141,0.54297 l -7.521484,-6.23047 c 0,0 -7.7116,-6.47249 -13.207032,-14.18164 -2.747715,-3.85458 -4.782817,-7.97081 -5.27539,-11.02344 -0.492574,-3.05264 -0.224943,-4.6762 2.46875,-7.00391 2.887719,-2.48714 3.999087,-1.94268 6.582031,-0.625 l 0.03125,0.0176 0.06055,0.0313 c 0.3,0.16 0.480537,0.26035 0.548828,0.30274 l 0.03711,0.0254 0.199219,0.11718 0.0078,0.006 c 0.506445,0.30145 0.997327,0.63066 1.46875,0.98438 l 9.232421,6.92578 0.365235,-11.53516 c 0.767898,-24.23966 13.968839,-51.74511 30.902343,-69.21484 l 0.36719,-0.36719 0.0234,-0.0234 c 2.78677,-2.84946 4.75309,-6.39979 5.6914,-10.27343 l -0.0156,0.0684 c 1.53421,-6.02743 6.89579,-10.19637 13.11523,-10.19922 z m 110.40234,81.77148 c -0.0572,0.0238 -0.13643,0.0726 -0.19531,0.0977 -0.0257,0.0121 -0.0544,0.0112 -0.0801,0.0234 z"
     id="path419" /><path
     class="cls-10"
     d="m 226,209.08 c 0,0 11.57,-16.76 22.73,-7.14 16.59,14.3 -16.08,41.36 -16.08,41.36 0,0 22.93,3.57 19.91,13.28 -1.77,5.67 -45.7,-10.22 -45.7,-10.22"
     id="path421" /><path
     class="cls-10"
     d="m 74,209.08 c 0,0 -11.57,-16.76 -22.73,-7.14 -16.57,14.3 16.1,41.36 16.1,41.36 0,0 -22.93,3.57 -19.91,13.28 1.77,5.67 45.7,-10.22 45.7,-10.22"
     id="path423" /><path
     class="cls-11"
     d="m 74,209.07 c 0,0 -6.25,-9 -14,-10 -1.69,19.73 2.93,38.7 17,52.72 8.83,-2.76 16.2,-5.43 16.2,-5.43 z"
     id="path425" /><path
     class="cls-11"
     d="m 240,199.06 c -7.75,1 -14,10 -14,10 l -19.14,37.29 c 0,0 7.37,2.67 16.2,5.43 14.01,-14.01 18.63,-32.98 16.94,-52.72 z"
     id="path427" /><path
     class="cls-10"
     d="m 199.7,129.34 c -0.13,-0.14 -0.27,-0.27 -0.41,-0.41 a 16.15,16.15 0 0 1 -4.15,-7.49 19.54,19.54 0 0 0 -18.93,-14.72 c -22.89,0 -20.34,21.43 -21.36,21.43 h -9.7 c -1,0 -0.13,-21.43 -21.36,-21.43 a 19.54,19.54 0 0 0 -18.93,14.72 16.15,16.15 0 0 1 -4.15,7.49 l -0.41,0.41 C 59,172.09 39.59,267.05 150,267.05 c 110.41,0 91,-94.96 49.7,-137.71 z"
     id="path429" /><path
     class="cls-11"
     d="m 159.71768,145.45104 c 0.98978,4.94242 0.82869,4.71829 2.34894,10.57286 l 0.524,2.01837 c 1.14503,4.41195 2.21244,7.57536 2.94992,7.57536 0.64692,0 1.50731,-2.32889 2.46474,-5.77694 0.15526,-0.54341 0.30405,-1.11269 0.45931,-1.68844 0.83452,-3.10519 1.69491,-6.66321 2.49062,-10.3959 -3.52851,-3.87749 -6.27162,-0.62451 -11.23753,-2.30531 z"
     id="path5338"
     style="fill:#f4fbfe;stroke-width:0.646913"
     sodipodi:nodetypes="cccscccc" /><path
     class="cls-12"
     d="m 162.67,234.87 c -4.09,5.88 -4.86,21.71 1,22.93 7.41,1.54 13.27,-14.75 13.27,-14.75"
     id="path431" /><path
     style="opacity:1;fill:#f4f2f2;fill-opacity:1;stroke:#dbd6d6;stroke-width:2.10378;stroke-linecap:round;stroke-linejoin:round;stroke-dasharray:none;stroke-dashoffset:9.131;stroke-opacity:1;stop-color:#000000"
     d="m 103.45471,223.64788 c 15.54621,4.25715 31.09186,8.51415 46.60755,8.41362 15.51568,-0.10053 30.99961,-4.5583 46.48303,-9.01592"
     id="path16594"
     inkscape:path-effect="#path-effect16596"
     inkscape:original-d="m 103.45471,223.64788 c 15.54652,4.25602 31.09217,8.51302 46.6379,12.77126 15.48509,-4.45902 30.96902,-8.91678 46.45268,-13.37356"
     sodipodi:nodetypes="ccc" /><path
     id="path17891"
     style="opacity:1;fill:#120d0d;fill-opacity:0.607843;stroke-width:2.5854;stroke-linecap:round;stroke-linejoin:bevel;stroke-dashoffset:9.131;stop-color:#000000"
     d="m 62.811075,226.27148 c 1.168311,3.61359 2.704131,7.1071 4.671279,10.42774 56.270436,-9.33694 111.043596,-9.06868 164.710366,0.56055 2.12662,-3.4869 3.76328,-7.17178 4.9962,-10.98829 z" /><path
     id="rect11415"
     style="opacity:1;fill:#312222;stroke-width:2.61352;stroke-linecap:round;stroke-linejoin:bevel;stroke-dashoffset:9.131;stop-color:#000000"
     d="m 63.379794,176.31055 c -7.162762,20.02775 -7.860492,41.06742 2.296356,57.8457 57.5011,-9.33695 113.47235,-9.06869 168.31283,0.56055 10.5125,-16.86781 9.86807,-38.15663 2.62597,-58.40625 -63.71969,21.51871 -121.01605,19.63459 -173.235156,0 z"
     sodipodi:nodetypes="ccccc" /><path
     class="cls-12"
     d="m 137.33,234.87 c 4.09,5.88 4.86,21.71 -1,22.93 C 128.9,259.34 123,243.05 123,243.05"
     id="path433" /><path
     class="cls-11"
     d="m 140.95521,145.45104 c -0.98978,4.94242 -0.82869,4.71829 -2.34894,10.57286 l -0.524,2.01837 c -1.14503,4.41195 -2.21244,7.57536 -2.94992,7.57536 -0.64692,0 -1.50731,-2.32889 -2.46474,-5.77694 -0.15526,-0.54341 -0.30405,-1.11269 -0.45931,-1.68844 -0.83452,-3.10519 -1.69491,-6.66321 -2.49062,-10.3959 3.52851,-3.87749 6.27162,-0.62451 11.23753,-2.30531 z"
     id="path5881"
     style="fill:#f4fbfe;stroke-width:0.646913"
     sodipodi:nodetypes="cccscccc" /><path
     class="cls-15"
     d="m 130.09,147.73 c 0,0 4.59,-1.28 19.91,-1.28 15.32,0 19.91,1.28 19.91,1.28"
     id="path439" /><ellipse
     class="cls-16"
     cx="179.23"
     cy="126.45"
     rx="4.3899999"
     ry="5.6999998"
     id="ellipse441" /><ellipse
     class="cls-16"
     cx="120.77"
     cy="126.45"
     rx="4.3899999"
     ry="5.6999998"
     id="ellipse445" /><path
     id="rect10003"
     style="fill:#312222;stroke-width:2.385;stroke-linecap:round;stroke-linejoin:bevel;stroke-dashoffset:9.131;stop-color:#000000"
     d="m 26.243441,135.84784 c 89.000149,13.32247 88.790769,48.88025 110.734039,75.287 -76.375548,8.29254 -76.609732,-27.49214 -110.734039,-75.287 z m 247.513119,0 c -89.00015,13.32247 -88.79077,48.88025 -110.73404,75.287 76.37555,8.29254 76.60973,-27.49214 110.73404,-75.287 z"
     sodipodi:nodetypes="ccc"
     inkscape:path-effect="#path-effect10562"
     inkscape:original-d="m 26.243441,135.84784 c 89.000149,13.32247 88.790769,48.88025 110.734039,75.287 -76.375548,8.29254 -76.609732,-27.49214 -110.734039,-75.287 z"
     class="UnoptimicedTransforms"
     transform="matrix(1,0,0,0.80869877,0,26.666345)" /><path
     id="path14873"
     style="opacity:1;fill:#dbd6d6;stroke-width:1.28048;stroke-linecap:round;stroke-linejoin:bevel;stroke-dashoffset:9.131;stop-color:#000000;fill-opacity:1"
     class="UnoptimicedTransforms"
     d="m 147.44727,176.29102 c -10.52993,0.0878 -17.09861,2.64791 -24.54297,5.10351 8.40026,12.69713 17.79017,24.2739 26.70312,36.39063 9.13799,-12.0603 19.48162,-24.12061 27.33364,-36.18091 -7.94066,-2.61931 -15.5154,-5.56782 -27.33364,-5.29761 -0.73864,-0.0169 -1.45816,-0.0215 -2.16015,-0.0156 z"
     sodipodi:nodetypes="ccccccc"
     transform="matrix(1,0,0,0.88332579,0,20.568332)" /><g
     id="g18438"
     inkscape:path-effect="#path-effect18440"
     class="UnoptimicedTransforms"><path
       id="path18006"
       style="opacity:1;fill:#f4f2f2;fill-opacity:1;stroke-width:2.86557;stroke-linecap:round;stroke-linejoin:round;stroke-dashoffset:9.131;stop-color:#000000"
       d="m 111.13077,221.86741 17.71288,-7.42639 c 0.51374,-0.21539 1.10566,0.0165 1.33637,0.52355 l 11.90983,26.17522 c 0.22873,0.5027 -0.005,0.75348 -0.52932,0.57887 -10.18242,-3.3936 -14.89117,1.09428 -18.1764,7.63185 -0.24797,0.49346 -0.62287,0.49169 -0.8516,-0.011 L 110.6227,223.16428 c -0.22669,-0.49822 0.003,-1.08523 0.50807,-1.29687 z m 77.73846,0 -17.71288,-7.42639 c -0.51374,-0.21539 -1.10566,0.0165 -1.33637,0.52355 l -11.90983,26.17522 c -0.22873,0.5027 0.005,0.75348 0.52932,0.57887 10.18242,-3.3936 14.89117,1.09428 18.1764,7.63185 0.24797,0.49346 0.62287,0.49169 0.8516,-0.011 l 11.90983,-26.17523 c 0.22669,-0.49822 -0.003,-1.08523 -0.50807,-1.29687 z"
       sodipodi:nodetypes="ccccc"
       inkscape:path-effect="#path-effect18010"
       inkscape:original-d="M 110.20855,222.25407 129.76587,214.05436 142.504,242.05 c -11.31423,-4.17119 -16.15327,0.98116 -19.55732,8.19971 z" /><path
       id="path18150"
       style="opacity:1;fill:#1c1313;fill-opacity:1;stroke-width:3.30119;stroke-linecap:round;stroke-linejoin:round;stroke-dashoffset:9.131;stop-color:#000000"
       d="m 127.57031,208.71094 -22.07422,9.64258 4.58203,10.48828 c 8.60271,-0.66336 17.17049,-1.09292 25.70899,-1.31836 z m 44.85938,0 22.07422,9.64258 -4.58203,10.48828 c -8.60271,-0.66336 -17.17049,-1.09292 -25.70899,-1.31836 z"
       inkscape:original-d="M 127.57031 208.71094 L 105.49609 218.35352 L 110.07812 228.8418 C 118.68083 228.17844 127.24861 227.74888 135.78711 227.52344 L 127.57031 208.71094 z " /><path
       id="rect18001"
       style="opacity:1;fill:#312222;fill-opacity:1;stroke-width:3.30119;stroke-linecap:round;stroke-linejoin:round;stroke-dashoffset:9.131;stop-color:#000000"
       d="m 109.89459,214.3294 14.74314,-6.43934 c 2.02446,-0.88422 4.38242,0.0401 5.26664,2.06458 l 11.17547,25.58669 c 0.88423,2.02446 -0.0644,2.97742 -2.21215,2.46728 -8.43394,-2.00328 -13.12385,1.60948 -16.44249,7.27915 -1.11545,1.90567 -2.53549,1.91943 -3.41972,-0.10503 l -11.17547,-25.58669 c -0.88422,-2.02446 0.0401,-4.38242 2.06458,-5.26664 z m 80.21082,0 -14.74314,-6.43934 c -2.02446,-0.88422 -4.38242,0.0401 -5.26664,2.06458 l -11.17547,25.58669 c -0.88423,2.02446 0.0644,2.97742 2.21215,2.46728 8.43394,-2.00328 13.12385,1.60948 16.44249,7.27915 1.11545,1.90567 2.53549,1.91943 3.41972,-0.10503 l 11.17547,-25.58669 c 0.88422,-2.02446 -0.0401,-4.38242 -2.06458,-5.26664 z"
       sodipodi:nodetypes="ccccc"
       inkscape:path-effect="#path-effect18004"
       inkscape:original-d="m 106.22898,215.93043 22.07436,-9.6414 14.37753,32.91791 c -12.77038,-4.90458 -18.2322,1.15367 -22.07436,9.6414 z" /></g><path
     id="path14881"
     style="opacity:1;fill:#f4f2f2;fill-opacity:1;stroke-width:1.28048;stroke-linecap:round;stroke-linejoin:bevel;stroke-dashoffset:9.131;stop-color:#000000"
     class="UnoptimicedTransforms"
     d="m 147.44727,176.29102 c -10.52993,0.0878 -17.09861,2.64791 -24.54297,5.10351 8.40026,12.69713 17.79017,24.2739 26.70312,36.39063 9.13799,-12.0603 19.48162,-24.12061 27.33364,-36.18091 -7.94066,-2.61931 -15.5154,-5.56782 -27.33364,-5.29761 -0.73864,-0.0169 -1.45816,-0.0215 -2.16015,-0.0156 z"
     sodipodi:nodetypes="ccccccc"
     transform="matrix(0.81629635,0,0,0.74810065,27.541344,46.651534)" /><path
     id="rect16506"
     style="opacity:1;fill:#171010;fill-opacity:0.78921568;stroke-width:0.833096;stroke-linecap:round;stroke-linejoin:bevel;stroke-dashoffset:9.131;stop-color:#000000"
     d="m 152.21235,212.44828 c -1.79152,3.0186 2.92665,4.54712 0,5.94304 -2.92666,1.39593 -23.01985,-2.08461 -22.64777,-2.97152 -0.40115,0.003 24.43928,-5.99011 22.64777,-2.97152 z"
     sodipodi:nodetypes="zzcz" /><ellipse
     style="fill:#e3c364;fill-opacity:1;fill-rule:evenodd;stroke-width:0.706695"
     id="path16339"
     cx="150"
     cy="214.51749"
     rx="7.9809837"
     ry="7.7529554" /><path
     id="rect16396"
     style="opacity:1;fill:#b77016;fill-opacity:0.561275;stroke-width:2.57112;stroke-linecap:round;stroke-linejoin:bevel;stroke-dashoffset:9.131;stop-color:#000000"
     d="m 157.95703,213.94727 c -6.61576,3.22206 -11.34393,2.54888 -15.90625,0.13476 -0.47436,4.9082 4.60142,9.07033 9.33488,8.06966 3.86424,-0.5822 6.94287,-4.26786 6.57137,-8.20442 z"
     sodipodi:nodetypes="cccc" /><path
     id="path16528"
     style="opacity:1;fill:#171010;fill-opacity:0.789216;stroke-width:0.833096;stroke-linecap:round;stroke-linejoin:bevel;stroke-dashoffset:9.131;stop-color:#000000"
     class="UnoptimicedTransforms"
     d="M 239.58398 186.24609 C 239.39701 185.478 239.21917 184.70878 239.01172 183.94141 C 238.66663 182.6649 238.2945 181.39153 237.89453 180.11914 C 237.86256 180.01743 237.82528 179.91613 237.79297 179.81445 C 231.30004 182.10604 221.58412 186.69323 221.83984 186.63867 C 221.70276 187.33491 232.73639 187.16599 239.58398 186.24609 z " /><path
     id="path16524"
     style="opacity:1;fill:#171010;fill-opacity:0.789216;stroke-width:0.833096;stroke-linecap:round;stroke-linejoin:bevel;stroke-dashoffset:9.131;stop-color:#000000"
     class="UnoptimicedTransforms"
     d="M 62.203125 179.81055 C 62.174905 179.89934 62.141239 179.98735 62.113281 180.07617 C 61.717189 181.33452 61.348229 182.59503 61.005859 183.85742 C 60.790316 184.65218 60.605667 185.44861 60.412109 186.24414 C 67.259408 187.16449 78.29727 187.33504 78.160156 186.63867 C 78.415775 186.69321 68.696074 182.10299 62.203125 179.81055 z " /></svg>
