<?xml version="1.0" encoding="UTF-8" standalone="no"?>
<!DOCTYPE svg PUBLIC "-//W3C//DTD SVG 1.1//EN" "http://www.w3.org/Graphics/SVG/1.1/DTD/svg11.dtd">
<svg width="100%" height="100%" viewBox="0 0 300 345" version="1.1" xmlns="http://www.w3.org/2000/svg" xmlns:xlink="http://www.w3.org/1999/xlink" xml:space="preserve" xmlns:serif="http://www.serif.com/" style="fill-rule:evenodd;clip-rule:evenodd;stroke-linejoin:round;stroke-miterlimit:2;">
    <g id="avatar_cheeks_8">
        <g transform="matrix(-0.702273,8.60036e-17,-5.39295e-17,-0.440368,377.91,351.001)">
            <path d="M194.898,196.646C194.39,195.63 193.351,194.988 192.215,194.988C191.078,194.988 190.04,195.63 189.531,196.646L168.936,237.837C168.471,238.767 168.521,239.872 169.067,240.756C169.614,241.64 170.58,242.179 171.619,242.179L212.81,242.179C213.85,242.179 214.815,241.64 215.362,240.756C215.909,239.872 215.958,238.767 215.493,237.837L194.898,196.646Z" style="fill:#713dbc;"/>
        </g>
        <g transform="matrix(-0.702273,8.60036e-17,-5.39295e-17,-0.440368,192.065,351.001)">
            <path d="M194.898,196.646C194.39,195.63 193.351,194.988 192.215,194.988C191.078,194.988 190.04,195.63 189.531,196.646L168.936,237.837C168.471,238.767 168.521,239.872 169.067,240.756C169.614,241.64 170.58,242.179 171.619,242.179L212.81,242.179C213.85,242.179 214.815,241.64 215.362,240.756C215.909,239.872 215.958,238.767 215.493,237.837L194.898,196.646Z" style="fill:#713dbc;"/>
        </g>
    </g>
</svg>
