<?xml version="1.0" encoding="UTF-8" standalone="no"?>
<!DOCTYPE svg PUBLIC "-//W3C//DTD SVG 1.1//EN" "http://www.w3.org/Graphics/SVG/1.1/DTD/svg11.dtd">
<svg width="100%" height="100%" viewBox="0 0 300 345" version="1.1" xmlns="http://www.w3.org/2000/svg" xmlns:xlink="http://www.w3.org/1999/xlink" xml:space="preserve" xmlns:serif="http://www.serif.com/" style="fill-rule:evenodd;clip-rule:evenodd;stroke-linejoin:round;stroke-miterlimit:2;">
    <g id="avatar_mouth_28" transform="matrix(0.733924,0,0,0.733924,39.9169,65.0216)">
        <g transform="matrix(1,0,0,-1,0,538.171)">
            <path d="M166.62,287.34L133.28,287.34C133.274,287.34 133.268,287.34 133.262,287.34C125.341,287.34 118.822,280.822 118.822,272.9C118.822,269.38 120.109,265.978 122.44,263.34C129.364,255.396 139.402,250.83 149.939,250.83C160.697,250.83 170.923,255.589 177.85,263.82C185.66,273.13 178.75,287.34 166.62,287.34Z" style="fill:#fd2b14;fill-rule:nonzero;stroke:#ff2e00;stroke-width:16.35px;"/>
        </g>
        <g transform="matrix(1,0,0,-1,0,538.171)">
            <path d="M166.62,287.34L133.28,287.34C133.274,287.34 133.268,287.34 133.262,287.34C125.341,287.34 118.822,280.822 118.822,272.9C118.822,269.38 120.109,265.978 122.44,263.34C129.364,255.396 139.402,250.83 149.939,250.83C160.697,250.83 170.923,255.589 177.85,263.82C185.66,273.13 178.75,287.34 166.62,287.34Z" style="fill:#8b1834;fill-rule:nonzero;"/>
        </g>
        <path d="M119.283,261.67L180.668,261.67C179.071,255.736 173.746,250.831 166.62,250.831L133.262,250.831C126.582,250.831 120.9,255.467 119.283,261.67Z" style="fill:#f5fbfd;fill-rule:nonzero;"/>
        <path d="M125.539,277.979C132.135,283.912 140.72,287.277 149.683,287.34L150.197,287.34C159.197,287.277 167.809,283.884 174.408,277.917C168.388,272.507 159.683,269.11 150,269.11C140.282,269.11 131.546,272.533 125.539,277.979Z" style="fill:#ce1f3d;fill-rule:nonzero;"/>
    </g>
</svg>
