<?xml version="1.0" encoding="UTF-8" standalone="no"?>
<!DOCTYPE svg PUBLIC "-//W3C//DTD SVG 1.1//EN" "http://www.w3.org/Graphics/SVG/1.1/DTD/svg11.dtd">
<svg width="100%" height="100%" viewBox="0 0 300 345" version="1.1" xmlns="http://www.w3.org/2000/svg" xmlns:xlink="http://www.w3.org/1999/xlink" xml:space="preserve" xmlns:serif="http://www.serif.com/" style="fill-rule:evenodd;clip-rule:evenodd;stroke-linejoin:round;stroke-miterlimit:2;">
    <g id="avatar_mouth_13">
        <path d="M95.277,250.24C99.283,244.754 106.104,241.93 112.88,243.07L117.7,243.88C140.229,247.66 163.231,247.66 185.76,243.88L190.59,243.07C197.849,241.844 205.163,245.177 209,251.46L208.977,251.464C210.708,254.295 211.627,257.557 211.62,260.89C211.62,269.71 204.46,277.42 196.54,278.7C172.22,282.7 130.29,283.14 106.87,278.7C97.37,276.91 91.79,269.7 91.79,260.89C91.777,257.062 92.99,253.329 95.25,250.24L95.277,250.24Z" style="fill:#971a38;fill-rule:nonzero;"/>
        <path d="M201.279,277.138C199.769,277.9 198.171,278.436 196.54,278.7C172.22,282.7 130.29,283.14 106.87,278.7C105.101,278.367 103.468,277.845 101.981,277.161C102.16,271.015 103.72,265.943 107.174,262.343C102.703,257.158 102.086,250.958 102.07,244.601C105.364,243.023 109.129,242.439 112.88,243.07L117.7,243.88C140.229,247.66 163.231,247.66 185.76,243.88L190.59,243.07C194.262,242.45 197.947,242.996 201.19,244.501C201.181,250.893 200.581,257.13 196.086,262.343C199.536,265.938 201.096,271.003 201.279,277.138Z" style="fill:#f5fbfd;fill-rule:nonzero;"/>
        <g transform="matrix(1,0,0,-1,1.39771,524.319)">
            <path d="M111.142,262.091C110.773,261.878 111.298,262.387 111.124,261.849C111.113,261.85 111.103,261.843 111.101,261.832C111.1,261.821 111.107,261.811 111.118,261.81C111.123,261.65 111.097,261.591 111.064,261.578C110.981,261.545 110.861,261.81 111.129,261.508C111.147,261.488 111.182,261.5 111.209,261.496C111.609,261.433 112.011,261.375 112.413,261.32C114.41,261.046 116.432,260.874 118.468,260.731C120.481,260.591 122.507,260.483 124.542,260.423C126.564,260.363 128.59,260.322 130.617,260.329C135.37,260.344 140.111,260.516 144.731,260.455C151.978,260.427 159.32,260.137 166.661,260.07C169.807,260.041 172.952,260.053 176.089,260.142C178.521,260.21 180.951,260.261 183.362,260.503C183.632,260.53 183.898,260.571 184.166,260.612C184.977,260.736 185.768,260.873 186.571,261.033C187.381,261.194 188.149,261.421 188.96,261.564C189.137,261.595 189.316,261.608 189.494,261.63C189.496,261.63 189.497,261.632 189.497,261.633C189.497,261.635 189.495,261.636 189.494,261.636C189.345,261.626 189.196,261.608 189.047,261.607C187.683,261.602 186.36,261.785 184.995,261.879C184.508,261.912 184.031,261.959 183.543,261.97C183.222,261.977 182.901,261.959 182.579,261.952C179.375,261.885 176.16,261.893 172.938,261.917C170.126,261.937 167.309,261.963 164.493,262.006C157.876,262.107 151.265,262.249 144.733,262.234C140.099,262.183 135.347,261.969 130.585,261.766C127.447,261.633 124.31,261.469 121.191,261.487C118.149,261.506 115.13,261.67 112.163,262.017C111.863,262.052 111.564,262.089 111.266,262.129C111.249,262.131 111.23,262.144 111.216,262.135L111.142,262.091Z" style="fill:#dcdcdc;"/>
        </g>
    </g>
</svg>
