<?xml version="1.0" encoding="UTF-8" standalone="no"?>
<!DOCTYPE svg PUBLIC "-//W3C//DTD SVG 1.1//EN" "http://www.w3.org/Graphics/SVG/1.1/DTD/svg11.dtd">
<svg width="100%" height="100%" viewBox="0 0 300 345" version="1.1" xmlns="http://www.w3.org/2000/svg" xmlns:xlink="http://www.w3.org/1999/xlink" xml:space="preserve" xmlns:serif="http://www.serif.com/" style="fill-rule:evenodd;clip-rule:evenodd;stroke-linecap:round;stroke-linejoin:round;">
    <g id="avatar_mouth_24">
        <g transform="matrix(1,0,0,1,-2.15798,2.824)">
            <path d="M133.007,258.732C141.231,250.241 156.499,263.163 171.309,258.732" style="fill:none;stroke:#3f1c12;stroke-width:10px;"/>
        </g>
        <path d="M115.003,298.39L36.38,298.39C16.301,298.39 0,282.089 0,262.01L0,210.066L11.623,210.066L13.065,232.013C32.854,257.568 68.847,262.707 109.791,261.601C111.589,240.855 128.867,224.508 150,224.187L150.495,224.197C171.402,224.764 188.425,241.016 190.209,261.601C231.153,262.707 267.146,257.568 286.935,232.013L288.377,210.066L300,210.066L300,262.01C300,282.089 283.699,298.39 263.62,298.39L185.895,298.39C182.501,303.332 178.549,310.192 171.596,312.083L165.686,301.406C164.12,303.888 162.192,305.825 159.585,306.745L157.107,301.978L148.146,314.942C141.579,311.027 138.526,304.916 136.135,298.39L138.042,311.701C127.402,309.541 120.492,304.512 115.003,298.39ZM150,241.575C166.891,241.575 180.604,250.262 180.604,260.962C180.604,271.662 166.891,280.349 150,280.349C133.109,280.349 119.396,271.662 119.396,260.962C119.396,250.262 133.109,241.575 150,241.575ZM300,206.429L288.616,206.429L288.885,202.344L300,202.344L300,206.429ZM0,202.344L11.115,202.344L11.384,206.429L0,206.429L0,202.344ZM300,198.708L289.124,198.708L289.368,195L300,195L300,198.708ZM0,195L10.632,195L10.876,198.708L0,198.708L0,195Z" style="fill:#3f1c12;"/>
    </g>
</svg>
