<svg id="Layer_1" data-name="Layer 1" xmlns="http://www.w3.org/2000/svg" viewBox="0 0 300 345"><g id="assets"><g id="cheeks"><path d="M278.32,242.47a10.09,10.09,0,0,0-8.83,5.2,10.1,10.1,0,0,0-18.93,4.89c0,15.92,18.93,23.26,18.93,23.26s18.92-7.34,18.92-23.26A10.09,10.09,0,0,0,278.32,242.47Z" fill="#e573ab"/><path d="M39.34,242.47a10.1,10.1,0,0,0-8.83,5.2,10.09,10.09,0,0,0-18.92,4.89c0,15.92,18.92,23.26,18.92,23.26s18.93-7.34,18.93-23.26A10.1,10.1,0,0,0,39.34,242.47Z" fill="#e573ab"/></g></g></svg>