<?xml version="1.0" encoding="UTF-8" standalone="no"?>
<!DOCTYPE svg PUBLIC "-//W3C//DTD SVG 1.1//EN" "http://www.w3.org/Graphics/SVG/1.1/DTD/svg11.dtd">
<svg width="100%" height="100%" viewBox="0 0 300 345" version="1.1" xmlns="http://www.w3.org/2000/svg" xmlns:xlink="http://www.w3.org/1999/xlink" xml:space="preserve" xmlns:serif="http://www.serif.com/" style="fill-rule:evenodd;clip-rule:evenodd;stroke-linejoin:round;stroke-miterlimit:2;">
    <g id="avatar_item_17" transform="matrix(0.977766,-0.209699,0.209699,0.977766,-59.2377,11.6128)">
        <g transform="matrix(1,0,0,1,0,7)">
            <path d="M91.089,283.687C91.089,280.665 88.635,278.212 85.613,278.212L12.59,278.212C9.568,278.212 7.115,280.665 7.115,283.687L7.115,319.373C7.115,322.395 9.568,324.849 12.59,324.849L85.613,324.849C88.635,324.849 91.089,322.395 91.089,319.373L91.089,283.687Z" style="fill:#ababab;"/>
        </g>
        <path d="M28.41,287.762L28.41,269.122C28.367,261.846 34.437,258.058 40.506,257.927C46.615,257.795 52.872,261.404 53.238,269.253C53.499,274.843 55.533,279.076 57.936,281.621C59.861,283.659 62.08,284.67 64.029,284.739C67.441,284.862 70.893,282.376 70.893,275.689C70.893,270.964 73.056,268.301 75.659,268.302C78.263,268.303 80.428,270.968 80.428,275.689C80.428,275.689 80.428,298.737 80.428,298.737C80.428,300.117 81.547,301.237 82.928,301.237L99.797,301.237C99.809,301.237 99.82,301.237 99.832,301.236C102.369,301.201 104.177,303.071 104.872,305.172C105.319,306.522 105.333,308.006 104.639,309.176C103.87,310.471 102.26,311.218 99.793,311.223C99.793,311.223 74.716,311.223 74.716,311.223C73.336,311.223 72.216,312.343 72.216,313.723C72.216,315.103 73.336,316.223 74.716,316.223L99.802,316.223C104.579,316.213 107.451,314.235 108.939,311.727C110.35,309.348 110.527,306.346 109.619,303.601C108.284,299.565 104.655,296.178 99.784,296.237C99.784,296.237 85.428,296.237 85.428,296.237C85.428,296.237 85.428,275.689 85.428,275.689C85.428,267.219 80.333,263.304 75.661,263.302C70.99,263.3 65.893,267.211 65.893,275.689C65.893,276.984 65.726,278.013 65.38,278.783C65.196,279.192 64.982,279.506 64.677,279.656C63.908,280.033 63.005,279.483 62.102,278.698C60.083,276.944 58.445,273.56 58.233,269.02C57.717,257.956 49.009,252.742 40.399,252.928C31.752,253.115 23.354,258.779 23.41,269.141C23.41,269.141 23.41,287.762 23.41,287.762C23.41,289.142 24.53,290.262 25.91,290.262C27.29,290.262 28.41,289.142 28.41,287.762Z"/>
        <path d="M96.879,311.934C95.443,311.982 94.001,311.831 92.562,311.842C92.286,311.844 92.064,312.07 92.066,312.345C92.068,312.621 92.293,312.844 92.569,312.842C94.017,312.831 95.468,312.981 96.912,312.934C97.188,312.924 97.405,312.693 97.396,312.417C97.386,312.141 97.155,311.925 96.879,311.934ZM102.352,298.477C104.308,299.2 106.323,300.354 107.071,302.427C107.165,302.686 107.451,302.821 107.711,302.727C107.971,302.634 108.105,302.347 108.012,302.087C107.162,299.731 104.922,298.36 102.698,297.539C102.44,297.443 102.152,297.576 102.056,297.834C101.96,298.093 102.093,298.381 102.352,298.477ZM100.042,297.042C97.758,297.141 95.417,297.049 93.129,296.907C92.854,296.89 92.617,297.1 92.599,297.375C92.582,297.651 92.792,297.888 93.068,297.905C95.39,298.049 97.767,298.142 100.085,298.042C100.361,298.03 100.575,297.796 100.563,297.52C100.551,297.245 100.317,297.031 100.042,297.042ZM27.007,270.35C27.072,272.469 26.948,274.604 26.941,276.727C26.94,277.003 27.163,277.228 27.439,277.228C27.715,277.229 27.94,277.006 27.941,276.73C27.948,274.596 28.072,272.45 28.007,270.32C27.998,270.044 27.768,269.827 27.492,269.835C27.216,269.844 26.999,270.074 27.007,270.35ZM55.977,268.412C56.214,270.977 56.37,274.092 57.533,276.428C57.656,276.675 57.956,276.776 58.203,276.652C58.45,276.529 58.551,276.229 58.428,275.982C57.317,273.751 57.199,270.77 56.973,268.32C56.947,268.045 56.703,267.843 56.429,267.868C56.154,267.894 55.951,268.137 55.977,268.412ZM79.78,266.557C81.813,267.673 83.27,270.635 83.491,272.892C83.518,273.166 83.763,273.367 84.038,273.34C84.312,273.314 84.514,273.069 84.487,272.794C84.238,270.25 82.553,266.938 80.261,265.68C80.02,265.547 79.715,265.636 79.583,265.878C79.45,266.12 79.538,266.424 79.78,266.557ZM40.28,255.255C44.5,255.039 48.982,256.788 51.845,259.892C52.032,260.095 52.349,260.107 52.552,259.92C52.755,259.733 52.767,259.416 52.58,259.214C49.522,255.898 44.736,254.025 40.229,254.257C39.953,254.271 39.741,254.506 39.755,254.782C39.769,255.057 40.005,255.269 40.28,255.255Z" style="fill:#333;"/>
        <path d="M91.089,283.687C91.089,280.665 88.635,278.212 85.613,278.212L12.59,278.212C9.568,278.212 7.115,280.665 7.115,283.687L7.115,319.373C7.115,322.395 9.568,324.849 12.59,324.849L85.613,324.849C88.635,324.849 91.089,322.395 91.089,319.373L91.089,283.687Z" style="fill:#d0d0d0;"/>
        <path d="M58.927,282.625L14.281,282.625C11.701,282.625 9.607,284.719 9.607,287.299L9.607,317.762C9.607,320.342 11.701,322.436 14.281,322.436L58.927,322.436L58.927,282.625ZM58.927,282.625L58.927,322.436L83.923,322.436C86.502,322.436 88.597,320.342 88.597,317.762L88.597,287.299C88.597,284.719 86.502,282.625 83.923,282.625L58.927,282.625Z" style="fill:#1d1d1d;"/>
        <g transform="matrix(0.883636,0,0,1,1.86741,0.148082)">
            <path d="M63.846,312.699C63.846,311.902 63.114,311.255 62.212,311.255L41.861,311.255C40.959,311.255 40.227,311.902 40.227,312.699L40.227,315.586C40.227,316.383 40.959,317.03 41.861,317.03L62.212,317.03C63.114,317.03 63.846,316.383 63.846,315.586L63.846,312.699Z" style="fill:#d0d0d0;"/>
        </g>
        <path d="M58.284,319.186C58.284,318.77 57.947,318.433 57.532,318.433L38.166,318.433C37.751,318.433 37.414,318.77 37.414,319.186L37.414,320.69C37.414,321.106 37.751,321.443 38.166,321.443L57.532,321.443C57.947,321.443 58.284,321.106 58.284,320.69L58.284,319.186ZM58.284,305.679C58.284,304.882 57.637,304.235 56.84,304.235L38.857,304.235C38.06,304.235 37.414,304.882 37.414,305.679L37.414,308.566C37.414,309.363 38.06,310.01 38.857,310.01L56.84,310.01C57.637,310.01 58.284,309.363 58.284,308.566L58.284,305.679ZM58.284,293.074C58.284,292.294 57.651,291.661 56.871,291.661L38.826,291.661C38.047,291.661 37.414,292.294 37.414,293.074L37.414,301.117C37.414,301.897 38.047,302.53 38.826,302.53L56.871,302.53C57.651,302.53 58.284,301.897 58.284,301.117L58.284,293.074ZM58.284,285.599C58.284,284.802 57.637,284.155 56.84,284.155L38.857,284.155C38.06,284.155 37.414,284.802 37.414,285.599L37.414,288.486C37.414,289.283 38.06,289.93 38.857,289.93L56.84,289.93C57.637,289.93 58.284,289.283 58.284,288.486L58.284,285.599Z" style="fill:#808080;"/>
        <g transform="matrix(1,0,0,1,1.11061,0)">
            <g transform="matrix(0.303824,0,0,0.541497,25.4845,144.521)">
                <path d="M65.163,312.698C65.163,311.494 63.42,310.516 61.273,310.516C61.273,310.516 42.8,310.516 42.8,310.516C40.653,310.516 38.911,311.494 38.911,312.699L38.911,315.586C38.911,316.791 40.653,317.769 42.8,317.769C42.8,317.769 61.273,317.769 61.273,317.769C63.42,317.769 65.163,316.791 65.163,315.586L65.163,312.698ZM63.846,312.699C63.846,311.902 62.693,311.255 61.273,311.255L42.8,311.255C41.38,311.255 40.227,311.902 40.227,312.699L40.227,315.586C40.227,316.383 41.38,317.03 42.8,317.03L61.273,317.03C62.693,317.03 63.846,316.383 63.846,315.586L63.846,312.699Z" style="fill:#ababab;"/>
            </g>
            <g transform="matrix(0.303824,0,0,0.541497,25.4845,144.521)">
                <path d="M63.846,312.699C63.846,311.902 62.693,311.255 61.273,311.255L42.8,311.255C41.38,311.255 40.227,311.902 40.227,312.699L40.227,315.586C40.227,316.383 41.38,317.03 42.8,317.03L61.273,317.03C62.693,317.03 63.846,316.383 63.846,315.586L63.846,312.699Z" style="fill:#823891;"/>
            </g>
            <g transform="matrix(0.303824,0,0,0.541497,25.4845,143.449)">
                <path d="M63.846,312.699C63.846,311.902 62.693,311.255 61.273,311.255L42.8,311.255C41.38,311.255 40.227,311.902 40.227,312.699L40.227,315.586C40.227,316.383 41.38,317.03 42.8,317.03L61.273,317.03C62.693,317.03 63.846,316.383 63.846,315.586L63.846,312.699Z" style="fill:#a453b4;"/>
            </g>
        </g>
        <g transform="matrix(1,0,0,1,1.11061,0)">
            <g transform="matrix(0.303824,0,0,0.541497,36.2904,144.521)">
                <path d="M65.163,312.698C65.163,311.494 63.42,310.516 61.273,310.516C61.273,310.516 42.8,310.516 42.8,310.516C40.653,310.516 38.911,311.494 38.911,312.699L38.911,315.586C38.911,316.791 40.653,317.769 42.8,317.769C42.8,317.769 61.273,317.769 61.273,317.769C63.42,317.769 65.163,316.791 65.163,315.586L65.163,312.698ZM63.846,312.699C63.846,311.902 62.693,311.255 61.273,311.255L42.8,311.255C41.38,311.255 40.227,311.902 40.227,312.699L40.227,315.586C40.227,316.383 41.38,317.03 42.8,317.03L61.273,317.03C62.693,317.03 63.846,316.383 63.846,315.586L63.846,312.699Z" style="fill:#ababab;"/>
            </g>
            <g transform="matrix(0.303824,0,0,0.541497,36.2904,144.521)">
                <path d="M63.846,312.699C63.846,311.902 62.693,311.255 61.273,311.255L42.8,311.255C41.38,311.255 40.227,311.902 40.227,312.699L40.227,315.586C40.227,316.383 41.38,317.03 42.8,317.03L61.273,317.03C62.693,317.03 63.846,316.383 63.846,315.586L63.846,312.699Z" style="fill:#823891;"/>
            </g>
            <g transform="matrix(0.303824,0,0,0.541497,36.2904,143.449)">
                <path d="M63.846,312.699C63.846,311.902 62.693,311.255 61.273,311.255L42.8,311.255C41.38,311.255 40.227,311.902 40.227,312.699L40.227,315.586C40.227,316.383 41.38,317.03 42.8,317.03L61.273,317.03C62.693,317.03 63.846,316.383 63.846,315.586L63.846,312.699Z" style="fill:#a453b4;"/>
            </g>
        </g>
        <g transform="matrix(1,0,0,1,15.2222,6.19713)">
            <g transform="matrix(1,0,0,1,1.12966,0.992861)">
                <path d="M63.769,292.931C61.041,292.931 58.825,295.147 58.825,297.876C58.825,300.604 61.041,302.82 63.769,302.82C66.498,302.82 68.714,300.604 68.714,297.876C68.714,295.147 66.498,292.931 63.769,292.931ZM63.769,293.731C66.057,293.731 67.914,295.588 67.914,297.876C67.914,300.163 66.057,302.02 63.769,302.02C61.482,302.02 59.625,300.163 59.625,297.876C59.625,295.588 61.482,293.731 63.769,293.731Z" style="fill:#d0d0d0;"/>
            </g>
            <g transform="matrix(1,0,0,1,1.12966,0.992861)">
                <circle cx="63.769" cy="297.876" r="4.144" style="fill:#008c96;"/>
            </g>
            <g transform="matrix(1,0,0,1,1.11236,0)">
                <circle cx="63.769" cy="297.876" r="4.144" style="fill:#00cddb;"/>
            </g>
        </g>
        <g transform="matrix(1,0,0,1,0.998922,6.19713)">
            <g transform="matrix(1,0,0,1,1.12966,0.992861)">
                <path d="M63.769,292.931C61.041,292.931 58.825,295.147 58.825,297.876C58.825,300.604 61.041,302.82 63.769,302.82C66.498,302.82 68.714,300.604 68.714,297.876C68.714,295.147 66.498,292.931 63.769,292.931ZM63.769,293.731C66.057,293.731 67.914,295.588 67.914,297.876C67.914,300.163 66.057,302.02 63.769,302.02C61.482,302.02 59.625,300.163 59.625,297.876C59.625,295.588 61.482,293.731 63.769,293.731Z" style="fill:#d0d0d0;"/>
            </g>
            <g transform="matrix(1,0,0,1,1.12966,0.992861)">
                <circle cx="63.769" cy="297.876" r="4.144" style="fill:#008c96;"/>
            </g>
            <g transform="matrix(1,0,0,1,1.11236,0)">
                <circle cx="63.769" cy="297.876" r="4.144" style="fill:#00cddb;"/>
            </g>
        </g>
        <g transform="matrix(1,0,0,1,-23.1651,-1.64063)">
            <g transform="matrix(1,0,0,1,23.249,2.24759)">
                <path d="M20.04,300.611L16.69,300.611C15.415,300.611 14.379,301.646 14.379,302.921C14.379,302.921 14.379,306.542 14.379,306.542C14.379,307.817 15.415,308.852 16.69,308.852C16.69,308.852 20.04,308.852 20.04,308.852C20.04,308.852 20.04,312.203 20.04,312.203C20.04,313.478 21.075,314.513 22.351,314.513L25.971,314.513C27.247,314.513 28.282,313.478 28.282,312.203L28.282,308.852C28.282,308.852 31.632,308.852 31.632,308.852C32.907,308.852 33.943,307.817 33.943,306.542C33.943,306.542 33.943,302.921 33.943,302.921C33.943,301.646 32.907,300.611 31.632,300.611C31.632,300.611 28.282,300.611 28.282,300.611C28.282,300.611 28.282,297.26 28.282,297.26C28.282,295.985 27.247,294.95 25.971,294.95C25.971,294.95 22.351,294.95 22.351,294.95C21.075,294.95 20.04,295.985 20.04,297.26L20.04,300.611Z" style="fill:#d0d0d0;"/>
            </g>
            <g transform="matrix(1,0,0,1,0,1.23836)">
                <path d="M43.789,302.12L39.939,302.12C38.939,302.12 38.128,302.931 38.128,303.93L38.128,307.551C38.128,308.55 38.939,309.361 39.939,309.361L43.789,309.361L43.789,313.212C43.789,314.211 44.6,315.022 45.6,315.022L49.22,315.022C50.22,315.022 51.031,314.211 51.031,313.212L51.031,309.361L54.881,309.361C55.88,309.361 56.692,308.55 56.692,307.551L56.692,303.93C56.692,302.931 55.88,302.12 54.881,302.12L51.031,302.12L51.031,298.269C51.031,297.27 50.22,296.459 49.22,296.459L45.6,296.459C44.6,296.459 43.789,297.27 43.789,298.269L43.789,302.12Z" style="fill:#070707;"/>
            </g>
            <path d="M43.789,302.12L39.939,302.12C38.939,302.12 38.128,302.931 38.128,303.93L38.128,307.551C38.128,308.55 38.939,309.361 39.939,309.361L43.789,309.361L43.789,313.212C43.789,314.211 44.6,315.022 45.6,315.022L49.22,315.022C50.22,315.022 51.031,314.211 51.031,313.212L51.031,309.361L54.881,309.361C55.88,309.361 56.692,308.55 56.692,307.551L56.692,303.93C56.692,302.931 55.88,302.12 54.881,302.12L51.031,302.12L51.031,298.269C51.031,297.27 50.22,296.459 49.22,296.459L45.6,296.459C44.6,296.459 43.789,297.27 43.789,298.269L43.789,302.12Z" style="fill:#3a3a3a;"/>
            <g transform="matrix(0.965926,0.258819,-0.258819,0.965926,86.2416,-1.27805)">
                <circle cx="41.954" cy="306.608" r="2.101" style="fill:#3a3a3a;"/>
            </g>
            <g transform="matrix(0.965926,0.258819,-0.258819,0.965926,86.2416,-1.27805)">
                <path d="M41.954,304.507C43.113,304.507 44.055,305.448 44.055,306.608C44.055,307.767 43.113,308.709 41.954,308.709C40.794,308.709 39.853,307.767 39.853,306.608C39.853,305.448 40.794,304.507 41.954,304.507ZM41.954,305.007C42.837,305.007 43.555,305.724 43.555,306.608C43.555,307.491 42.837,308.209 41.954,308.209C41.07,308.209 40.353,307.491 40.353,306.608C40.353,305.724 41.07,305.007 41.954,305.007Z" style="fill:#222;"/>
            </g>
            <g transform="matrix(1,0,0,1,5.39767,0.0494097)">
                <path d="M42.012,297.678L43.98,300.708L40.044,300.708L42.012,297.678Z" style="fill:#3a3a3a;"/>
            </g>
            <g transform="matrix(1,0,0,1,5.39767,0.0494097)">
                <path d="M42.012,297.678L43.98,300.708L40.044,300.708L42.012,297.678ZM42.012,298.596L43.059,300.208C43.059,300.208 40.965,300.208 40.965,300.208L42.012,298.596Z" style="fill:#222;"/>
            </g>
            <g transform="matrix(1,0,0,-1,5.39767,611.618)">
                <path d="M42.012,297.678L43.98,300.708L40.044,300.708L42.012,297.678Z" style="fill:#3a3a3a;"/>
            </g>
            <g transform="matrix(1,0,0,-1,5.39767,611.618)">
                <path d="M42.012,297.678L43.98,300.708L40.044,300.708L42.012,297.678ZM42.012,298.596L40.965,300.208C40.965,300.208 43.059,300.208 43.059,300.208L42.012,298.596Z" style="fill:#222;"/>
            </g>
            <g transform="matrix(6.12323e-17,-1,1,6.12323e-17,-258.374,347.886)">
                <path d="M42.012,297.678L43.98,300.708L40.044,300.708L42.012,297.678Z" style="fill:#3a3a3a;"/>
            </g>
            <g transform="matrix(6.12323e-17,-1,1,6.12323e-17,-258.374,347.886)">
                <path d="M42.012,297.678L43.98,300.708L40.044,300.708L42.012,297.678ZM42.012,298.596L43.059,300.208C43.059,300.208 40.965,300.208 40.965,300.208L42.012,298.596Z" style="fill:#222;"/>
            </g>
            <g transform="matrix(6.12323e-17,-1,-1,-6.12323e-17,353.194,347.886)">
                <path d="M42.012,297.678L43.98,300.708L40.044,300.708L42.012,297.678Z" style="fill:#3a3a3a;"/>
            </g>
            <g transform="matrix(6.12323e-17,-1,-1,-6.12323e-17,353.194,347.886)">
                <path d="M42.012,297.678L43.98,300.708L40.044,300.708L42.012,297.678ZM42.012,298.596L40.965,300.208C40.965,300.208 43.059,300.208 43.059,300.208L42.012,298.596Z" style="fill:#222;"/>
            </g>
        </g>
        <g transform="matrix(2.1327,0,0,1,-71.9997,-3.02086)">
            <path d="M63.957,294.348C63.905,294.348 63.866,294.319 63.838,294.261C63.811,294.202 63.797,294.118 63.797,294.008L63.797,291.163C63.797,291.053 63.811,290.969 63.838,290.911C63.866,290.852 63.905,290.823 63.957,290.823L64.52,290.823C64.635,290.823 64.734,290.86 64.815,290.933C64.896,291.006 64.958,291.111 65.001,291.248C65.044,291.385 65.066,291.548 65.066,291.738C65.066,291.951 65.037,292.131 64.979,292.278C64.921,292.425 64.842,292.523 64.742,292.573L64.742,292.498C64.858,292.535 64.948,292.628 65.012,292.778C65.076,292.928 65.108,293.123 65.108,293.363C65.108,293.676 65.058,293.919 64.959,294.091C64.86,294.262 64.722,294.348 64.545,294.348L63.957,294.348ZM64.086,293.863L64.508,293.863C64.614,293.863 64.692,293.819 64.742,293.731C64.792,293.642 64.817,293.51 64.817,293.333C64.817,293.153 64.792,293.02 64.742,292.933C64.692,292.846 64.614,292.803 64.508,292.803L64.086,292.803L64.086,293.863ZM64.086,292.318L64.468,292.318C64.571,292.318 64.648,292.276 64.699,292.191C64.75,292.106 64.775,291.98 64.775,291.813C64.775,291.646 64.75,291.521 64.699,291.436C64.648,291.351 64.571,291.308 64.468,291.308L64.086,291.308L64.086,292.318Z" style="fill:#a453b4;fill-rule:nonzero;"/>
            <path d="M65.774,294.398C65.644,294.398 65.546,294.319 65.481,294.161C65.415,294.002 65.382,293.77 65.382,293.463L65.382,291.098C65.382,290.995 65.395,290.916 65.42,290.863C65.445,290.81 65.481,290.783 65.528,290.783C65.575,290.783 65.611,290.81 65.637,290.863C65.662,290.916 65.675,290.995 65.675,291.098L65.675,293.433C65.675,293.586 65.691,293.7 65.721,293.773C65.752,293.846 65.795,293.883 65.851,293.883C65.864,293.883 65.875,293.882 65.886,293.881C65.897,293.879 65.908,293.876 65.919,293.873C65.941,293.866 65.956,293.879 65.964,293.911C65.972,293.942 65.975,294.006 65.975,294.103C65.975,294.186 65.968,294.251 65.952,294.298C65.936,294.345 65.911,294.373 65.875,294.383C65.859,294.386 65.843,294.39 65.825,294.393C65.808,294.396 65.791,294.398 65.774,294.398Z" style="fill:#a453b4;fill-rule:nonzero;"/>
            <path d="M66.641,294.398C66.522,294.398 66.419,294.346 66.332,294.243C66.244,294.14 66.176,293.992 66.128,293.801C66.079,293.609 66.055,293.383 66.055,293.123C66.055,292.926 66.069,292.751 66.096,292.596C66.124,292.441 66.163,292.307 66.215,292.196C66.266,292.084 66.328,291.999 66.4,291.941C66.472,291.882 66.552,291.853 66.641,291.853C66.76,291.853 66.863,291.905 66.951,292.008C67.038,292.111 67.106,292.258 67.155,292.448C67.203,292.638 67.227,292.863 67.227,293.123C67.227,293.32 67.214,293.496 67.186,293.653C67.159,293.81 67.12,293.944 67.068,294.056C67.016,294.167 66.955,294.252 66.883,294.311C66.811,294.369 66.73,294.398 66.641,294.398ZM66.641,293.923C66.699,293.923 66.75,293.893 66.794,293.833C66.837,293.773 66.871,293.684 66.896,293.566C66.92,293.447 66.932,293.3 66.932,293.123C66.932,292.856 66.905,292.657 66.852,292.526C66.799,292.394 66.729,292.328 66.641,292.328C66.583,292.328 66.533,292.357 66.489,292.416C66.445,292.474 66.411,292.562 66.387,292.681C66.363,292.799 66.351,292.946 66.351,293.123C66.351,293.386 66.377,293.586 66.43,293.721C66.483,293.856 66.554,293.923 66.641,293.923Z" style="fill:#a453b4;fill-rule:nonzero;"/>
            <path d="M67.992,294.398C67.873,294.398 67.77,294.346 67.682,294.243C67.595,294.14 67.527,293.992 67.478,293.801C67.43,293.609 67.406,293.383 67.406,293.123C67.406,292.926 67.419,292.751 67.447,292.596C67.474,292.441 67.513,292.307 67.565,292.196C67.617,292.084 67.678,291.999 67.75,291.941C67.822,291.882 67.903,291.853 67.992,291.853C68.11,291.853 68.214,291.905 68.301,292.008C68.389,292.111 68.457,292.258 68.505,292.448C68.554,292.638 68.578,292.863 68.578,293.123C68.578,293.32 68.564,293.496 68.537,293.653C68.509,293.81 68.47,293.944 68.418,294.056C68.367,294.167 68.305,294.252 68.233,294.311C68.161,294.369 68.081,294.398 67.992,294.398ZM67.992,293.923C68.049,293.923 68.1,293.893 68.144,293.833C68.188,293.773 68.222,293.684 68.246,293.566C68.27,293.447 68.282,293.3 68.282,293.123C68.282,292.856 68.256,292.657 68.203,292.526C68.15,292.394 68.079,292.328 67.992,292.328C67.934,292.328 67.883,292.357 67.839,292.416C67.795,292.474 67.761,292.562 67.737,292.681C67.713,292.799 67.701,292.946 67.701,293.123C67.701,293.386 67.728,293.586 67.781,293.721C67.834,293.856 67.904,293.923 67.992,293.923Z" style="fill:#a453b4;fill-rule:nonzero;"/>
            <path d="M68.965,294.388C68.918,294.388 68.882,294.361 68.857,294.306C68.832,294.251 68.819,294.171 68.819,294.068L68.819,291.098C68.819,290.995 68.832,290.916 68.857,290.863C68.882,290.81 68.918,290.783 68.965,290.783C69.011,290.783 69.048,290.81 69.074,290.863C69.099,290.916 69.112,290.995 69.112,291.098L69.112,292.943L69.117,292.943L69.504,292.073C69.535,292.006 69.562,291.955 69.586,291.918C69.609,291.881 69.641,291.863 69.682,291.863C69.723,291.863 69.753,291.886 69.775,291.931C69.796,291.976 69.806,292.03 69.806,292.093C69.806,292.156 69.792,292.22 69.764,292.283L69.356,293.203L69.356,292.943L69.804,293.973C69.832,294.036 69.845,294.101 69.843,294.166C69.84,294.231 69.827,294.284 69.804,294.326C69.78,294.367 69.751,294.388 69.715,294.388C69.671,294.388 69.636,294.37 69.61,294.333C69.585,294.296 69.556,294.241 69.525,294.168L69.117,293.258L69.112,293.258L69.112,294.068C69.112,294.281 69.063,294.388 68.965,294.388Z" style="fill:#a453b4;fill-rule:nonzero;"/>
            <path d="M70.617,294.398C70.488,294.398 70.376,294.346 70.282,294.243C70.188,294.14 70.116,293.993 70.065,293.803C70.015,293.613 69.989,293.388 69.989,293.128C69.989,292.875 70.014,292.653 70.063,292.463C70.112,292.273 70.18,292.124 70.267,292.016C70.354,291.907 70.453,291.853 70.563,291.853C70.645,291.853 70.718,291.881 70.783,291.938C70.848,291.995 70.903,292.076 70.949,292.183C70.995,292.29 71.03,292.419 71.055,292.571C71.079,292.722 71.091,292.893 71.091,293.083C71.091,293.143 71.081,293.189 71.062,293.221C71.042,293.252 71.014,293.268 70.978,293.268L70.226,293.268L70.226,292.908L70.885,292.908L70.847,292.983C70.847,292.83 70.837,292.701 70.816,292.598C70.794,292.495 70.764,292.416 70.724,292.361C70.684,292.306 70.635,292.278 70.575,292.278C70.51,292.278 70.454,292.311 70.408,292.376C70.361,292.441 70.326,292.532 70.302,292.651C70.278,292.769 70.266,292.91 70.266,293.073L70.266,293.108C70.266,293.381 70.296,293.586 70.356,293.721C70.416,293.856 70.505,293.923 70.622,293.923C70.663,293.923 70.708,293.912 70.759,293.891C70.81,293.869 70.858,293.831 70.903,293.778C70.936,293.738 70.965,293.721 70.99,293.726C71.015,293.731 71.035,293.75 71.05,293.783C71.065,293.816 71.074,293.857 71.077,293.906C71.08,293.954 71.076,294.003 71.064,294.053C71.052,294.103 71.032,294.146 71.004,294.183C70.95,294.256 70.887,294.311 70.816,294.346C70.744,294.381 70.678,294.398 70.617,294.398Z" style="fill:#a453b4;fill-rule:nonzero;"/>
            <path d="M71.844,294.398C71.742,294.398 71.657,294.361 71.589,294.288C71.521,294.215 71.471,294.107 71.438,293.966C71.405,293.824 71.389,293.648 71.389,293.438L71.389,292.373L71.267,292.373C71.229,292.373 71.2,292.352 71.18,292.311C71.16,292.269 71.15,292.211 71.15,292.138C71.15,292.061 71.16,292.003 71.18,291.963C71.2,291.923 71.229,291.903 71.267,291.903L71.389,291.903L71.389,291.448C71.389,291.345 71.402,291.266 71.427,291.213C71.453,291.16 71.49,291.133 71.536,291.133C71.583,291.133 71.619,291.16 71.644,291.213C71.669,291.266 71.682,291.345 71.682,291.448L71.682,291.903L71.93,291.903C71.968,291.903 71.997,291.923 72.017,291.963C72.037,292.003 72.048,292.061 72.048,292.138C72.048,292.211 72.037,292.269 72.017,292.311C71.997,292.352 71.968,292.373 71.93,292.373L71.682,292.373L71.682,293.403C71.682,293.563 71.698,293.683 71.731,293.763C71.764,293.843 71.817,293.883 71.89,293.883C71.917,293.883 71.94,293.878 71.961,293.868C71.981,293.858 71.999,293.851 72.015,293.848C72.033,293.845 72.049,293.857 72.062,293.886C72.074,293.914 72.08,293.971 72.08,294.058C72.08,294.125 72.075,294.184 72.065,294.236C72.055,294.287 72.037,294.323 72.01,294.343C71.99,294.356 71.963,294.369 71.93,294.381C71.897,294.392 71.869,294.398 71.844,294.398Z" style="fill:#a453b4;fill-rule:nonzero;"/>
        </g>
        <g transform="matrix(0.643648,0,0,0.643648,25.4356,110.969)">
            <path d="M67.08,314.968C66.97,314.968 66.886,314.939 66.827,314.88C66.769,314.822 66.74,314.738 66.74,314.628L66.74,311.783C66.74,311.673 66.769,311.589 66.827,311.53C66.886,311.472 66.97,311.443 67.08,311.443L68.28,311.443C68.527,311.443 68.737,311.479 68.91,311.553C69.083,311.626 69.216,311.731 69.307,311.868C69.399,312.004 69.445,312.168 69.445,312.358C69.445,312.571 69.383,312.751 69.26,312.898C69.137,313.044 68.968,313.143 68.755,313.193L68.755,313.118C69.002,313.154 69.193,313.248 69.33,313.398C69.467,313.548 69.535,313.743 69.535,313.983C69.535,314.296 69.429,314.539 69.217,314.71C69.006,314.882 68.712,314.968 68.335,314.968L67.08,314.968ZM67.355,314.483L68.255,314.483C68.482,314.483 68.648,314.439 68.755,314.35C68.862,314.262 68.915,314.129 68.915,313.953C68.915,313.773 68.862,313.639 68.755,313.553C68.648,313.466 68.482,313.423 68.255,313.423L67.355,313.423L67.355,314.483ZM67.355,312.938L68.17,312.938C68.39,312.938 68.554,312.895 68.662,312.81C68.771,312.725 68.825,312.599 68.825,312.433C68.825,312.266 68.771,312.14 68.662,312.055C68.554,311.97 68.39,311.928 68.17,311.928L67.355,311.928L67.355,312.938Z" style="fill:#a453b4;fill-rule:nonzero;"/>
        </g>
        <g transform="matrix(0.643648,0,0,0.643648,34.0759,110.969)">
            <path d="M74.451,315.008C74.371,315.008 74.307,314.989 74.259,314.953C74.211,314.916 74.181,314.867 74.171,314.805C74.161,314.744 74.173,314.674 74.206,314.598L75.526,311.673C75.57,311.576 75.622,311.507 75.684,311.465C75.746,311.424 75.816,311.403 75.896,311.403C75.973,311.403 76.042,311.424 76.104,311.465C76.166,311.507 76.218,311.576 76.261,311.673L77.586,314.598C77.623,314.674 77.636,314.744 77.626,314.808C77.616,314.871 77.588,314.92 77.541,314.955C77.495,314.99 77.433,315.008 77.356,315.008C77.263,315.008 77.191,314.985 77.139,314.94C77.087,314.895 77.041,314.826 77.001,314.733L76.676,313.978L76.946,314.153L74.836,314.153L75.106,313.978L74.786,314.733C74.743,314.829 74.698,314.899 74.651,314.943C74.605,314.986 74.538,315.008 74.451,315.008ZM75.886,312.138L75.186,313.803L75.056,313.643L76.726,313.643L76.601,313.803L75.896,312.138L75.886,312.138Z" style="fill:#a453b4;fill-rule:nonzero;"/>
        </g>
    </g>
</svg>
