<?xml version="1.0" encoding="UTF-8" standalone="no"?>
<!DOCTYPE svg PUBLIC "-//W3C//DTD SVG 1.1//EN" "http://www.w3.org/Graphics/SVG/1.1/DTD/svg11.dtd">
<svg width="100%" height="100%" viewBox="0 0 300 345" version="1.1" xmlns="http://www.w3.org/2000/svg" xmlns:xlink="http://www.w3.org/1999/xlink" xml:space="preserve" xmlns:serif="http://www.serif.com/" style="fill-rule:evenodd;clip-rule:evenodd;stroke-linejoin:round;stroke-miterlimit:2;">
    <g id="avatar_item_16">
        <g transform="matrix(0.965926,-0.258819,0.258819,0.965926,-80.3416,29.9174)">
            <path d="M83.355,256.549C83.355,247.879 76.316,240.84 67.645,240.84L36.227,240.84C27.557,240.84 20.518,247.879 20.518,256.549L20.518,317.524C20.518,326.194 27.557,333.233 36.227,333.233L67.645,333.233C76.316,333.233 83.355,326.194 83.355,317.524L83.355,256.549Z" style="fill:#c5c5c5;"/>
        </g>
        <path d="M23.72,335.902L66.186,277.236L70.166,288.822L31.625,342.065C28.426,340.937 25.626,338.788 23.72,335.902ZM14.201,303.48L21.535,330.851L64.306,271.764L55.57,246.33L14.201,303.48Z" style="fill:#d0d0d0;"/>
        <g transform="matrix(0.965926,-0.258819,0.258819,0.965926,-80.3416,29.9174)">
            <path d="M83.355,256.549C83.355,247.879 76.316,240.84 67.645,240.84L36.227,240.84C27.557,240.84 20.518,247.879 20.518,256.549L20.518,317.524C20.518,326.194 27.557,333.233 36.227,333.233L67.645,333.233C76.316,333.233 83.355,326.194 83.355,317.524L83.355,256.549ZM81.355,256.549L81.355,317.524C81.355,325.09 75.212,331.233 67.645,331.233L36.227,331.233C28.661,331.233 22.518,325.09 22.518,317.524C22.518,317.524 22.518,256.549 22.518,256.549C22.518,248.983 28.661,242.84 36.227,242.84L67.645,242.84C75.212,242.84 81.355,248.983 81.355,256.549Z" style="fill:#a9a9a9;"/>
        </g>
        <g transform="matrix(0.965926,-0.258819,0.258819,0.965926,-73.4264,27.9174)">
            <path d="M83.355,256.549C83.355,247.879 76.316,240.84 67.645,240.84L36.227,240.84C27.557,240.84 20.518,247.879 20.518,256.549L20.518,317.524C20.518,326.194 27.557,333.233 36.227,333.233L67.645,333.233C76.316,333.233 83.355,326.194 83.355,317.524L83.355,256.549Z"/>
        </g>
        <g transform="matrix(0.965926,-0.258819,0.258819,0.965926,-73.4264,27.9174)">
            <path d="M83.355,256.549C83.355,247.879 76.316,240.84 67.645,240.84L36.227,240.84C27.557,240.84 20.518,247.879 20.518,256.549L20.518,317.524C20.518,326.194 27.557,333.233 36.227,333.233L67.645,333.233C76.316,333.233 83.355,326.194 83.355,317.524L83.355,256.549ZM81.355,256.549L81.355,317.524C81.355,325.09 75.212,331.233 67.645,331.233L36.227,331.233C28.661,331.233 22.518,325.09 22.518,317.524C22.518,317.524 22.518,256.549 22.518,256.549C22.518,248.983 28.661,242.84 36.227,242.84C36.227,242.84 67.645,242.84 67.645,242.84C75.212,242.84 81.355,248.983 81.355,256.549Z" style="fill:#a9a9a9;"/>
        </g>
        <path d="M54.911,246.817C53.36,247.275 53.963,249.183 53.963,249.183C54.266,250.315 53.594,251.479 52.462,251.783L29.515,257.931C28.384,258.235 27.219,257.562 26.916,256.431C26.916,256.431 26.507,254.868 24.837,255.324C17.755,257.258 15.266,264.556 17.04,271.175L31.878,326.553C33.85,333.912 41.426,338.286 48.785,336.314L75.452,329.169C82.811,327.197 87.185,319.622 85.213,312.262L70.374,256.884C68.131,248.993 61.592,244.845 54.911,246.817Z" style="fill:#91ffe9;"/>
        <g transform="matrix(0.965926,-0.258819,0.258819,0.965926,-75.9724,20.8291)">
            <text x="38.2px" y="279.994px" style="font-family:'Nunito-Bold', 'Nunito';font-weight:700;font-size:11px;fill:#585858;">10:10</text>
        </g>
        <g>
            <path d="M12.862,274.75C13.165,274.771 13.426,274.983 13.517,275.323L15.424,282.501C15.551,282.978 15.293,283.529 14.849,283.729L13.241,284.457C13.137,284.504 13.031,284.528 12.93,284.53L12.93,284.53L12.015,284.53L12.065,283.711L12.141,283.71L10.299,276.778C10.173,276.301 10.43,275.75 10.874,275.549L12.015,275.033L12.015,274.748L12.862,274.748L12.862,274.75Z" style="fill:#8e8e8e;"/>
            <g transform="matrix(0.904348,-0.409038,0.262271,0.987144,-91.1307,10.6293)">
                <path d="M33.095,281.854C33.095,281.371 32.696,280.978 32.205,280.978L30.427,280.978C29.936,280.978 29.537,281.371 29.537,281.854L29.537,289.126C29.537,289.609 29.936,290.002 30.427,290.002L32.205,290.002C32.696,290.002 33.095,289.609 33.095,289.126L33.095,281.854Z" style="fill:#acacac;"/>
            </g>
        </g>
        <g>
            <g transform="matrix(1,0,0,1,2.59447,9.78237)">
                <path d="M12.862,274.75C13.165,274.771 13.426,274.983 13.517,275.323L15.424,282.501C15.551,282.978 15.293,283.529 14.849,283.729L13.241,284.457C13.137,284.504 13.031,284.528 12.93,284.53L12.93,284.53L12.015,284.53L12.065,283.711L12.141,283.71L10.299,276.778C10.173,276.301 10.43,275.75 10.874,275.549L12.015,275.033L12.015,274.748L12.862,274.748L12.862,274.75Z" style="fill:#8e8e8e;"/>
            </g>
            <g transform="matrix(0.904348,-0.409038,0.262271,0.987144,-88.5362,20.4117)">
                <path d="M33.095,281.854C33.095,281.371 32.696,280.978 32.205,280.978L30.427,280.978C29.936,280.978 29.537,281.371 29.537,281.854L29.537,289.126C29.537,289.609 29.936,290.002 30.427,290.002L32.205,290.002C32.696,290.002 33.095,289.609 33.095,289.126L33.095,281.854Z" style="fill:#acacac;"/>
            </g>
        </g>
    </g>
</svg>
