<?xml version="1.0" encoding="UTF-8" standalone="no"?>
<!DOCTYPE svg PUBLIC "-//W3C//DTD SVG 1.1//EN" "http://www.w3.org/Graphics/SVG/1.1/DTD/svg11.dtd">
<svg width="100%" height="100%" viewBox="0 0 300 345" version="1.1" xmlns="http://www.w3.org/2000/svg" xmlns:xlink="http://www.w3.org/1999/xlink" xml:space="preserve" xmlns:serif="http://www.serif.com/" style="fill-rule:evenodd;clip-rule:evenodd;stroke-linejoin:round;stroke-miterlimit:2;">
    <g id="avatar_item_29" transform="matrix(0.573121,-0.153567,0.153567,0.573121,-76.0014,164.472)">
        <path d="M127.636,192.633L127.636,239.293C127.636,239.293 84.263,319.892 84.263,319.892C82.919,321.714 82.714,324.138 83.735,326.159C84.755,328.18 86.827,329.455 89.091,329.455L210.909,329.455C213.173,329.455 215.245,328.18 216.265,326.159C217.286,324.138 217.081,321.714 215.737,319.892L172.364,239.293L172.364,192.633L176.474,192.633C178.468,192.633 180.087,191.014 180.087,189.02L180.087,181.795C180.087,179.801 178.468,178.182 176.474,178.182L123.526,178.182C121.532,178.182 119.913,179.801 119.913,181.795L119.913,189.02C119.913,191.014 121.532,192.633 123.526,192.633L127.636,192.633Z" style="fill:#b8deee;"/>
        <g transform="matrix(0.854878,0,0,0.854878,21.7683,42.4119)">
            <path d="M187.505,267.43L112.495,267.43L84.263,319.892C82.919,321.714 82.714,324.138 83.735,326.159C84.755,328.18 86.827,329.455 89.091,329.455L210.909,329.455C213.173,329.455 215.245,328.18 216.265,326.159C217.286,324.138 217.081,321.714 215.737,319.892L187.505,267.43Z" style="fill:#ff1cfc;"/>
        </g>
        <path d="M141.172,314.005C142.185,314.005 143.007,314.827 143.007,315.84C143.007,316.853 142.185,317.675 141.172,317.675C140.159,317.675 139.337,316.853 139.337,315.84C139.337,314.827 140.159,314.005 141.172,314.005ZM196.079,312.861C197.197,312.861 198.105,313.769 198.105,314.887C198.105,316.005 197.197,316.913 196.079,316.913C194.961,316.913 194.054,316.005 194.054,314.887C194.054,313.769 194.961,312.861 196.079,312.861ZM115.363,305.998C117.967,305.998 120.081,308.112 120.081,310.716C120.081,313.321 117.967,315.435 115.363,315.435C112.758,315.435 110.644,313.321 110.644,310.716C110.644,308.112 112.758,305.998 115.363,305.998ZM181.185,304.377C184.236,304.377 186.714,306.855 186.714,309.906C186.714,312.958 184.236,315.435 181.185,315.435C178.133,315.435 175.656,312.958 175.656,309.906C175.656,306.855 178.133,304.377 181.185,304.377ZM150.704,308.929C152.349,308.929 153.683,310.264 153.683,311.908C153.683,313.552 152.349,314.887 150.704,314.887C149.06,314.887 147.726,313.552 147.726,311.908C147.726,310.264 149.06,308.929 150.704,308.929ZM124.252,307.142C125.238,307.142 126.039,307.943 126.039,308.929C126.039,309.916 125.238,310.716 124.252,310.716C123.265,310.716 122.464,309.916 122.464,308.929C122.464,307.943 123.265,307.142 124.252,307.142ZM141.407,300.238C142.549,300.238 143.476,301.165 143.476,302.308C143.476,303.45 142.549,304.377 141.407,304.377C140.264,304.377 139.337,303.45 139.337,302.308C139.337,301.165 140.264,300.238 141.407,300.238ZM156.787,296.775C157.889,296.775 158.783,297.669 158.783,298.771C158.783,299.873 157.889,300.767 156.787,300.767C155.686,300.767 154.792,299.873 154.792,298.771C154.792,297.669 155.686,296.775 156.787,296.775ZM167.906,287.891C170.358,287.891 172.348,289.881 172.348,292.333C172.348,294.785 170.358,296.775 167.906,296.775C165.454,296.775 163.464,294.785 163.464,292.333C163.464,289.881 165.454,287.891 167.906,287.891ZM188.096,293.701C188.859,293.701 189.478,294.32 189.478,295.083C189.478,295.846 188.859,296.465 188.096,296.465C187.333,296.465 186.714,295.846 186.714,295.083C186.714,294.32 187.333,293.701 188.096,293.701ZM135.643,291.318C136.603,291.318 137.383,292.097 137.383,293.057C137.383,294.018 136.603,294.797 135.643,294.797C134.683,294.797 133.903,294.018 133.903,293.057C133.903,292.097 134.683,291.318 135.643,291.318ZM126.468,283.406C129.309,283.406 131.616,285.712 131.616,288.553C131.616,291.394 129.309,293.701 126.468,293.701C123.627,293.701 121.321,291.394 121.321,288.553C121.321,285.712 123.627,283.406 126.468,283.406Z" style="fill:#ff61fd;"/>
        <g transform="matrix(-0.981055,-1.20145e-16,1.25969e-16,-1.02862,298.655,564.353)">
            <path d="M184.333,285.164C183.949,279.251 169.395,274.525 151.573,274.525C133.751,274.525 119.196,279.251 118.812,285.164L184.333,285.164Z" style="fill:#ff61fd;"/>
        </g>
        <path d="M127.636,192.633L127.636,239.293C127.636,239.293 84.263,319.892 84.263,319.892C82.919,321.714 82.714,324.138 83.735,326.159C84.755,328.18 86.827,329.455 89.091,329.455L210.909,329.455C213.173,329.455 215.245,328.18 216.265,326.159C217.286,324.138 217.081,321.714 215.737,319.892L172.364,239.293L172.364,192.633L176.474,192.633C178.468,192.633 180.087,191.014 180.087,189.02L180.087,181.795C180.087,179.801 178.468,178.182 176.474,178.182L123.526,178.182C121.532,178.182 119.913,179.801 119.913,181.795L119.913,189.02C119.913,191.014 121.532,192.633 123.526,192.633L127.636,192.633Z" style="fill:#b8deee;fill-opacity:0.5;"/>
        <path d="M147.597,240.232L107.562,329.455L210.909,329.455C213.173,329.455 215.245,328.18 216.265,326.159C217.286,324.138 217.081,321.714 215.737,319.892L172.364,239.293L172.364,201.578L147.911,201.578L147.911,240.232L147.597,240.232ZM125.935,192.633L125.935,192.618L174.36,192.618L174.36,192.633L176.474,192.633C178.468,192.633 180.087,191.014 180.087,189.02L180.087,181.795C180.087,179.801 178.468,178.182 176.474,178.182L123.526,178.182C121.532,178.182 119.913,179.801 119.913,181.795L119.913,189.02C119.913,191.014 121.532,192.633 123.526,192.633L125.935,192.633Z" style="fill:#c3e9f9;fill-opacity:0.5;"/>
        <path d="M159.765,242.685C159.837,242.884 159.924,243.081 160.025,243.274L198.219,315.741C199.409,317.998 202.207,318.865 204.465,317.675C206.722,316.485 207.589,313.687 206.399,311.43L168.68,239.863L168.68,206.841C168.68,205.565 167.644,204.529 166.368,204.529L161.745,204.529C160.469,204.529 159.433,205.565 159.433,206.841L159.433,241.492C159.433,241.928 159.554,242.336 159.765,242.685ZM177.944,182.829C177.944,181.553 176.908,180.517 175.632,180.517L155.281,180.517C154.005,180.517 152.969,181.553 152.969,182.829L152.969,187.452C152.969,188.728 154.005,189.764 155.281,189.764L175.632,189.764C176.908,189.764 177.944,188.728 177.944,187.452L177.944,182.829Z" style="fill:#e2fffd;fill-opacity:0.5;"/>
    </g>
</svg>
