<?xml version="1.0" encoding="UTF-8" standalone="no"?>
<!DOCTYPE svg PUBLIC "-//W3C//DTD SVG 1.1//EN" "http://www.w3.org/Graphics/SVG/1.1/DTD/svg11.dtd">
<svg width="100%" height="100%" viewBox="0 0 300 345" version="1.1" xmlns="http://www.w3.org/2000/svg" xmlns:xlink="http://www.w3.org/1999/xlink" xml:space="preserve" xmlns:serif="http://www.serif.com/" style="fill-rule:evenodd;clip-rule:evenodd;stroke-linejoin:round;stroke-miterlimit:2;">
    <g id="avatar_item_36" transform="matrix(0.458112,-0.186567,0.186567,0.458112,-74.4585,217.629)">
        <g transform="matrix(1,0,0,1,0,-35.2727)">
            <path d="M151.568,230.562L132.983,218.737C128.387,217.496 125,213.295 125,208.308L125,151.001C125,145.04 129.84,140.2 135.801,140.2L186.562,140.2C192.524,140.2 197.364,145.04 197.364,151.001L197.364,208.308C197.364,210.984 196.388,213.434 194.774,215.322L194.801,215.322L194.74,215.361C193.371,216.947 191.549,218.131 189.475,218.711L170.676,230.673L170.557,230.673L170.557,295.088L151.568,295.088L151.568,230.562ZM145.445,157.011C145.445,154.011 143.009,151.575 140.008,151.575C137.008,151.575 134.572,154.011 134.572,157.011L134.572,201.248C134.572,204.248 137.008,206.684 140.008,206.684C143.009,206.684 145.445,204.248 145.445,201.248L145.445,157.011ZM166.195,157.011C166.195,154.011 163.759,151.575 160.758,151.575C157.758,151.575 155.322,154.011 155.322,157.011L155.322,201.248C155.322,204.248 157.758,206.684 160.758,206.684C163.759,206.684 166.195,204.248 166.195,201.248L166.195,157.011ZM187.792,157.011C187.792,154.011 185.356,151.575 182.355,151.575C179.355,151.575 176.919,154.011 176.919,157.011L176.919,201.248C176.919,204.248 179.355,206.684 182.355,206.684C185.356,206.684 187.792,204.248 187.792,201.248L187.792,157.011Z" style="fill:#dbdbdb;"/>
        </g>
        <path d="M131.989,139.182L131.989,120.851C131.989,116.133 135.819,112.303 140.536,112.303C145.254,112.303 149.084,116.133 149.084,120.851L152.581,148.761L153.009,148.761L153.009,120.851C153.009,116.133 156.839,112.303 161.557,112.303C166.274,112.303 170.104,116.133 170.104,120.851L173.701,156.986L173.833,156.986L173.833,120.851C173.833,116.133 177.663,112.303 182.381,112.303C187.098,112.303 190.928,116.133 190.928,120.851L194.425,160.422L195.18,160.422L195.18,117.746C195.194,117.525 195.202,117.302 195.202,117.078C195.202,116.854 195.194,116.631 195.18,116.41L195.18,116.263L195.169,116.263C194.754,111.201 190.509,107.217 185.341,107.217L137.933,107.217C132.491,107.217 128.072,111.636 128.072,117.078C128.072,117.705 128.131,118.319 128.243,118.915L131.74,139.182L131.989,139.182Z" style="fill:#e4e4e4;"/>
        <rect x="161.176" y="197.38" width="6.354" height="47.571" style="fill:#e4e4e4;"/>
        <g transform="matrix(1,0,0,1,0,-35.2727)">
            <path d="M146.445,157.011C146.445,153.459 143.561,150.575 140.008,150.575C136.456,150.575 133.572,153.459 133.572,157.011C133.572,157.011 133.572,201.248 133.572,201.248C133.572,204.8 136.456,207.684 140.008,207.684C143.561,207.684 146.445,204.8 146.445,201.248L146.445,157.011ZM167.195,157.011C167.195,153.459 164.311,150.575 160.758,150.575C157.206,150.575 154.322,153.459 154.322,157.011L154.322,201.248C154.322,204.8 157.206,207.684 160.758,207.684C164.311,207.684 167.195,204.8 167.195,201.248L167.195,157.011ZM188.792,157.011C188.792,153.459 185.908,150.575 182.355,150.575C178.803,150.575 175.919,153.459 175.919,157.011L175.919,201.248C175.919,204.8 178.803,207.684 182.355,207.684C185.908,207.684 188.792,204.8 188.792,201.248L188.792,157.011ZM144.445,157.011L144.445,201.248C144.445,203.696 142.457,205.684 140.008,205.684C137.56,205.684 135.572,203.696 135.572,201.248L135.572,157.011C135.572,154.563 137.56,152.575 140.008,152.575C142.457,152.575 144.445,154.563 144.445,157.011ZM165.195,157.011L165.195,201.248C165.195,203.696 163.207,205.684 160.758,205.684C158.31,205.684 156.322,203.696 156.322,201.248C156.322,201.248 156.322,157.011 156.322,157.011C156.322,154.563 158.31,152.575 160.758,152.575C163.207,152.575 165.195,154.562 165.195,157.011ZM186.792,157.011L186.792,201.248C186.792,203.696 184.804,205.684 182.355,205.684C179.907,205.684 177.919,203.696 177.919,201.248C177.919,201.248 177.919,157.011 177.919,157.011C177.919,154.563 179.907,152.575 182.355,152.575C184.804,152.575 186.792,154.563 186.792,157.011Z" style="fill:#898989;"/>
        </g>
        <path d="M176.919,163.054L150.345,194.511L151.568,195.289L151.568,209.773L184.265,171.066C183.671,171.29 183.027,171.412 182.355,171.412C179.355,171.412 176.919,168.976 176.919,165.975L176.919,163.054ZM157.855,104.927L186.562,104.927C192.164,104.927 196.775,109.2 197.311,114.661L187.792,125.93L187.792,121.738C187.792,118.738 185.356,116.302 182.355,116.302C179.355,116.302 176.919,118.738 176.919,121.738L176.919,138.801L166.195,151.496L166.195,121.738C166.195,118.738 163.759,116.302 160.758,116.302C157.758,116.302 155.322,118.738 155.322,121.738L155.322,164.368L137.02,186.033L132.983,183.464C128.387,182.224 125,178.022 125,173.035L125,143.82L134.572,132.489L134.572,165.975C134.572,168.976 137.008,171.412 140.008,171.412C143.009,171.412 145.445,168.976 145.445,165.975L145.445,121.738C145.445,121.118 145.341,120.523 145.149,119.968L157.855,104.927ZM187.792,150.182L187.792,165.975C187.792,166.328 187.758,166.673 187.693,167.007L197.364,155.56L197.364,138.851L187.792,150.182Z" style="fill:#fff;fill-opacity:0.25;"/>
        <g transform="matrix(1,0,0,1,0,-35.2727)">
            <path d="M192.31,217.452C191.441,218 190.488,218.428 189.475,218.711L171.471,230.167L150.947,230.167L132.983,218.737C131.935,218.454 130.949,218.017 130.053,217.452L192.31,217.452Z" style="fill:#b5b5b5;"/>
        </g>
        <g transform="matrix(-0.727154,-8.90506e-17,1.22465e-16,-1,278.38,518.509)">
            <path d="M148.904,273.388C148.904,272.417 149.692,271.629 150.663,271.629L171.7,271.629C172.671,271.629 173.46,272.417 173.46,273.388L173.46,273.558L173.46,266.424L148.904,266.424L148.904,273.388Z" style="fill-opacity:0.3;"/>
        </g>
        <g transform="matrix(1,0,0,1,0,-35.2727)">
            <path d="M171.557,231.297L189.89,219.632C192.094,218.985 194.033,217.71 195.497,216.014C195.447,216.073 195.39,216.125 195.329,216.169L194.801,216.322L194.811,216.305L195.534,215.972C197.298,213.909 198.364,211.232 198.364,208.308C198.364,208.308 198.364,151.001 198.364,151.001C198.364,144.488 193.076,139.2 186.562,139.2L135.801,139.2C129.288,139.2 124,144.488 124,151.001L124,208.308C124,213.702 127.628,218.256 132.574,219.661C132.572,219.661 150.568,231.111 150.568,231.111L150.568,231.111L150.568,314.176C150.568,314.728 151.015,315.176 151.568,315.176L170.557,315.176C171.109,315.176 171.557,314.728 171.557,314.176L171.557,231.297ZM194.729,216.32L194.74,216.361C194.349,216.361 193.994,216.133 193.831,215.777C193.668,215.421 193.728,215.003 193.984,214.707C192.741,216.147 191.087,217.222 189.206,217.748C189.111,217.775 189.021,217.815 188.938,217.867L170.139,229.829C169.764,230.068 169.591,230.525 169.716,230.952C169.829,231.34 170.162,231.618 170.555,231.665L170.557,231.673C170.005,231.673 169.557,231.225 169.557,230.673L169.557,313.176C169.557,313.176 152.568,313.176 152.568,313.176C152.568,313.176 152.568,230.562 152.568,230.562C152.568,230.22 152.393,229.902 152.104,229.718L133.52,217.893C133.435,217.839 133.342,217.798 133.244,217.772C129.073,216.646 126,212.833 126,208.308C126,208.308 126,151.001 126,151.001C126,145.592 130.392,141.2 135.801,141.2C135.801,141.2 186.562,141.2 186.562,141.2C191.972,141.2 196.364,145.592 196.364,151.001L196.364,208.308C196.364,210.736 195.479,212.959 194.014,214.672C193.76,214.969 193.702,215.386 193.865,215.74C194.022,216.081 194.356,216.304 194.729,216.32ZM195.328,216.17L194.74,216.361C194.954,216.361 195.159,216.293 195.328,216.17Z" style="fill:#898989;"/>
        </g>
        <path d="M173.46,319.698L173.46,268.671C173.46,264.599 170.709,261.293 167.321,261.293L155.043,261.293C151.655,261.293 148.904,264.599 148.904,268.671L148.904,319.698C148.904,327.843 154.405,334.455 161.182,334.455C167.958,334.455 173.46,327.843 173.46,319.698ZM161.182,316.22C164.589,316.22 167.356,318.987 167.356,322.394C167.356,325.802 164.589,328.568 161.182,328.568C157.774,328.568 155.008,325.802 155.008,322.394C155.008,318.987 157.774,316.22 161.182,316.22Z" style="fill:#343434;"/>
        <path d="M151.411,319.195C151.403,318.986 151.399,318.777 151.399,318.567L151.399,267.327L170.953,267.327L170.953,318.618C170.953,318.828 170.949,319.038 170.941,319.246C170.895,322.046 170.071,324.624 168.831,327.083C169.224,324.47 169.734,321.66 168.92,319.246C168.205,317.128 165.459,313.704 161.182,313.758C156.47,313.818 153.698,317.077 152.983,319.195C152.303,321.214 152.443,323.402 152.943,325.432C152.048,323.545 151.433,321.519 151.411,319.195Z" style="fill:#454545;"/>
        <g transform="matrix(0.935566,0,0,1,10.3798,0.0767657)">
            <path d="M148.904,273.388C148.904,272.417 149.692,271.629 150.663,271.629L171.7,271.629C172.671,271.629 173.46,272.417 173.46,273.388L173.46,273.558L173.46,266.424L148.904,266.424L148.904,273.388Z" style="fill-opacity:0.65;"/>
        </g>
        <path d="M174.46,319.698L174.46,268.671C174.46,264.001 171.206,260.293 167.321,260.293L155.043,260.293C151.157,260.293 147.904,264.001 147.904,268.671L147.904,319.698C147.904,328.44 153.908,335.455 161.182,335.455C168.455,335.455 174.46,328.44 174.46,319.698ZM172.46,319.698C172.46,327.245 167.461,333.455 161.182,333.455C154.902,333.455 149.904,327.245 149.904,319.698C149.904,319.698 149.904,268.671 149.904,268.671C149.904,265.196 152.151,262.293 155.043,262.293L167.321,262.293C170.212,262.293 172.46,265.196 172.46,268.671L172.46,319.698ZM161.182,315.22C157.222,315.22 154.008,318.435 154.008,322.394C154.008,326.354 157.222,329.568 161.182,329.568C165.141,329.568 168.356,326.354 168.356,322.394C168.356,318.435 165.141,315.22 161.182,315.22ZM161.182,317.22C164.037,317.22 166.356,319.539 166.356,322.394C166.356,325.25 164.037,327.568 161.182,327.568C158.326,327.568 156.008,325.25 156.008,322.394C156.008,319.539 158.326,317.22 161.182,317.22Z" style="fill:#181818;"/>
        <g transform="matrix(1,0,0,1,-0.000671041,-15.4903)">
            <path d="M175.939,271.549C175.939,269.477 174.256,267.794 172.183,267.794L150.182,267.794C148.109,267.794 146.426,269.477 146.426,271.549L146.426,279.061C146.426,281.134 148.109,282.817 150.182,282.817L172.183,282.817C174.256,282.817 175.939,281.134 175.939,279.061L175.939,271.549Z" style="fill:#fff;"/>
        </g>
        <g transform="matrix(1,0,0,1,-0.000671041,-15.4903)">
            <path d="M176.939,271.549C176.939,268.925 174.808,266.794 172.183,266.794L150.182,266.794C147.557,266.794 145.426,268.925 145.426,271.549C145.426,271.549 145.426,279.061 145.426,279.061C145.426,281.686 147.557,283.817 150.182,283.817C150.182,283.817 172.183,283.817 172.183,283.817C174.808,283.817 176.939,281.686 176.939,279.061C176.939,279.061 176.939,271.549 176.939,271.549ZM174.939,271.549L174.939,279.061C174.939,280.582 173.704,281.817 172.183,281.817L150.182,281.817C148.661,281.817 147.426,280.582 147.426,279.061L147.426,271.549C147.426,270.028 148.661,268.794 150.182,268.794C150.182,268.794 172.183,268.794 172.183,268.794C173.704,268.794 174.939,270.028 174.939,271.549Z" style="fill:#898989;"/>
        </g>
    </g>
</svg>
