<?xml version="1.0" encoding="UTF-8" standalone="no"?>
<!DOCTYPE svg PUBLIC "-//W3C//DTD SVG 1.1//EN" "http://www.w3.org/Graphics/SVG/1.1/DTD/svg11.dtd">
<svg width="100%" height="100%" viewBox="0 0 300 345" version="1.1" xmlns="http://www.w3.org/2000/svg" xmlns:xlink="http://www.w3.org/1999/xlink" xml:space="preserve" xmlns:serif="http://www.serif.com/" style="fill-rule:evenodd;clip-rule:evenodd;stroke-linejoin:round;stroke-miterlimit:2;">
    <g id="avatar_item_33" transform="matrix(0.797641,-0.202942,0.202942,0.797641,-112.691,107.561)">
        <g transform="matrix(-0.510316,0.521359,1.16432,1.13966,-199.137,-108.671)">
            <path d="M86.904,279.346C86.904,278.51 85.388,277.831 83.521,277.831L76.755,277.831C74.888,277.831 73.372,278.51 73.372,279.346L73.372,329.75C73.372,330.586 74.888,331.265 76.755,331.265L83.521,331.265C85.388,331.265 86.904,330.586 86.904,329.75L86.904,279.346Z" style="fill:#ffdd17;"/>
            <path d="M86.904,279.346C86.904,278.51 85.388,277.831 83.521,277.831L76.755,277.831C74.888,277.831 73.372,278.51 73.372,279.346L73.372,329.75C73.372,330.586 74.888,331.265 76.755,331.265L83.521,331.265C85.388,331.265 86.904,330.586 86.904,329.75L86.904,279.346ZM83.573,279.346C83.573,279.333 83.55,279.322 83.521,279.322C83.521,279.322 76.755,279.322 76.755,279.322C76.726,279.322 76.703,279.333 76.703,279.346L76.703,329.75C76.703,329.763 76.726,329.774 76.755,329.774L83.521,329.774C83.55,329.774 83.573,329.763 83.573,329.75C83.573,329.75 83.573,279.346 83.573,279.346Z" style="fill:#c8ae18;"/>
        </g>
        <g transform="matrix(-0.604148,-0.604148,0.604148,-0.604148,135.297,539.675)">
            <path d="M175.335,297.947C232.106,296.991 277.609,252.304 277.609,197.508L173.518,197.508L175.335,297.947Z" style="fill:#fff;"/>
        </g>
        <path d="M126.931,292.661C127.421,289.372 129.289,288.362 132.167,289.022C134.357,284.708 137.23,283.805 140.505,284.914C144.023,281.852 147.132,281.929 150,283.857C153.991,282.337 156.43,283.288 158.034,285.565C162.065,284.154 164.198,285.498 164.866,288.968C168.732,287.637 171.318,288.675 172.915,291.544L149.79,315.52L126.931,292.661ZM104.714,270.444L86.904,252.634C120.009,219.529 174.497,220.023 209.373,253.743L193.007,270.711L192.528,270.19C192.435,263.311 188.038,260.231 180.57,259.859C177.705,252.722 172.725,251.121 166.173,253.636C161.529,247.851 156.162,246.821 150,251.013C142.594,246.253 136.486,247.266 131.52,253.352C122.156,251.475 116.558,254.57 113.972,261.641C107.693,261.05 104.312,263.659 104.714,270.444Z" style="fill:#c31123;"/>
        <path d="M101.394,241.054L101.383,241.038L100.526,241.609C95.693,244.739 91.125,248.413 86.904,252.634L146.192,311.923L148.958,316.075L149.79,315.52L150.664,316.007L152.494,312.717L209.373,253.743C179.209,224.578 134.373,220.269 101.394,241.054ZM170.797,232.514C147.557,225.879 122.437,228.982 101.948,241.887L146.943,309.442L124.212,232.843L126.129,232.274L148.79,308.636L148.79,229.766L150.79,229.766L150.79,307.858L170.797,232.514ZM172.715,233.085L152.815,308.025L190.039,241.106L191.787,242.078L154.387,309.314L207.956,253.771C203.485,249.566 198.631,245.788 193.417,242.546C187.052,238.59 180.206,235.463 173.066,233.194L172.715,233.085ZM100.269,242.973L143.372,307.688L88.322,252.639C92.057,248.992 96.058,245.771 100.269,242.973Z" style="fill:#d1f1ff;"/>
        <path d="M126.227,291.194C126.183,291.494 126.183,291.695 126.247,291.977L146.173,311.903L148.958,316.075L149.79,315.52L150.664,316.007L152.504,312.707L171.818,292.681L172.811,292.546C172.775,292.283 172.731,292.03 172.68,291.788L174.205,290.206L173.423,289.576L172.366,290.672C171.943,289.497 171.292,288.623 170.445,288.035C169.356,287.279 167.903,286.974 166.067,287.216C165.297,285.743 164.307,284.732 163.125,284.178C161.893,283.6 160.428,283.501 158.715,283.981C157.472,282.765 156.14,281.991 154.725,281.704C153.264,281.407 151.7,281.617 150.026,282.457C148.366,281.515 146.738,281.086 145.165,281.249C143.573,281.415 142.014,282.181 140.528,283.732C138.473,283.197 136.691,283.296 135.19,283.986C133.74,284.651 132.527,285.878 131.604,287.721C130.367,287.456 129.371,287.571 128.579,287.944C127.443,288.48 126.658,289.598 126.227,291.194ZM139.883,285.631C138.404,285.267 137.116,285.302 136.024,285.803C134.861,286.337 133.948,287.39 133.241,288.931L146.943,309.442L139.883,285.631ZM170.753,292.345C170.52,291.111 170.066,290.207 169.305,289.678C168.439,289.077 167.232,288.993 165.689,289.307C165.639,289.317 165.59,289.323 165.54,289.325L154.407,309.292L170.753,292.345ZM148.79,284.059C147.622,283.435 146.485,283.123 145.372,283.239C144.151,283.366 142.987,284.016 141.854,285.241L148.79,308.636L148.79,284.059ZM164.104,287.794C163.606,286.946 163.008,286.332 162.276,285.989C161.312,285.537 160.144,285.58 158.757,286.064C158.727,286.074 158.697,286.083 158.667,286.09L152.815,308.025L164.104,287.794ZM156.885,285.011C156.078,284.315 155.232,283.848 154.327,283.664C153.226,283.44 152.054,283.65 150.79,284.313L150.79,307.858L156.885,285.011ZM143.332,307.649L131.36,289.715C130.568,289.514 129.935,289.516 129.432,289.753C128.612,290.14 128.23,291.078 128.015,292.331L143.332,307.649ZM105.617,269.933L105.639,269.955C105.66,270.499 105.734,271.044 105.858,271.588L86.904,252.634C120.009,219.529 174.497,220.023 209.373,253.743L194.712,268.944C195.219,270.446 195.6,272.1 195.863,273.895L193.884,274.184C193.637,272.496 193.283,270.942 192.808,269.537L192.776,269.51L192.793,269.493C191.855,266.74 190.446,264.563 188.453,263.082C186.471,261.609 183.919,260.844 180.725,260.847C180.301,260.848 179.924,260.581 179.782,260.183C178.658,257.029 177.064,254.906 174.882,253.94C172.69,252.969 169.957,253.186 166.65,254.519C166.216,254.694 165.719,254.545 165.453,254.16C163.63,251.522 161.526,249.835 159.032,249.345C156.507,248.849 153.628,249.579 150.313,251.614C149.98,251.818 149.559,251.81 149.235,251.593C146.047,249.464 143.043,248.49 140.211,248.849C137.395,249.207 134.786,250.888 132.351,253.92C132.11,254.221 131.717,254.356 131.341,254.267C127.079,253.257 123.585,253.401 120.84,254.743C118.136,256.065 116.196,258.551 114.939,262.116C114.781,262.564 114.329,262.839 113.859,262.774C111.126,262.394 109.053,262.685 107.662,263.788C106.326,264.848 105.688,267.443 105.617,269.933ZM100.319,242.94C96.093,245.743 92.073,248.976 88.322,252.639L103.643,267.96C103.83,265.139 104.792,263.513 106.419,262.222C107.792,261.132 109.68,260.576 112.096,260.625L100.319,242.94ZM192.005,241.687L182.421,258.915C185.331,259.158 187.717,260.044 189.645,261.477C191.703,263.005 193.248,265.172 194.329,267.9L207.956,253.771C202.989,249.072 197.632,245.043 192.005,241.687ZM124.012,232.171C116.316,234.292 108.897,237.518 101.999,241.855L113.808,259.588C115.263,256.451 117.32,254.238 119.962,252.946C122.633,251.64 125.93,251.274 129.871,251.93L124.012,232.171ZM172.715,233.085L167.684,252.031L167.798,251.997C170.891,251.075 173.518,251.149 175.692,252.111C177.834,253.059 179.572,254.884 180.87,257.59L190.276,240.681C184.64,237.488 178.75,234.956 172.715,233.085ZM166.79,252.327C166.765,252.336 166.739,252.345 166.714,252.354C166.688,252.363 166.663,252.372 166.637,252.382L166.79,252.327ZM166.902,252.287L166.838,252.31L166.945,252.273L166.902,252.287ZM167.034,252.242L166.999,252.254L167.102,252.219L167.034,252.242ZM166.505,252.207L166.537,252.249L166.505,252.207ZM167.296,252.154C167.272,252.162 167.248,252.17 167.225,252.177C167.201,252.185 167.177,252.193 167.153,252.201L167.296,252.154ZM167.425,252.112L167.364,252.132L167.439,252.108L167.425,252.112ZM166.399,252.07L166.436,252.118L166.399,252.07ZM167.555,252.071L167.53,252.079L167.574,252.065L167.555,252.071ZM148.79,229.151C141.087,228.964 133.4,229.801 125.948,231.663L131.821,251.47C134.358,248.722 137.085,247.23 139.959,246.865C142.746,246.511 145.698,247.22 148.79,248.97L148.79,229.151ZM150.79,229.223L150.79,249.045C154.012,247.371 156.879,246.883 159.417,247.382C161.805,247.852 163.93,249.196 165.798,251.341L170.797,232.514C164.231,230.639 157.514,229.542 150.79,229.223Z" style="fill:#950510;"/>
        <g transform="matrix(0.465915,0.465915,-1.13394,1.13394,491.448,-101.677)">
            <path d="M86.904,279.221C86.904,278.454 85.388,277.831 83.521,277.831L76.755,277.831C74.888,277.831 73.372,278.454 73.372,279.221L73.372,329.875C73.372,330.642 74.888,331.265 76.755,331.265L83.521,331.265C85.388,331.265 86.904,330.642 86.904,329.875L86.904,279.221Z" style="fill:#ffdd17;"/>
            <path d="M86.904,279.221C86.904,278.454 85.388,277.831 83.521,277.831L76.755,277.831C74.888,277.831 73.372,278.454 73.372,279.221L73.372,329.875C73.372,330.642 74.888,331.265 76.755,331.265L83.521,331.265C85.388,331.265 86.904,330.642 86.904,329.875L86.904,279.221ZM77.06,329.75L83.216,329.75L83.216,279.346L77.06,279.346L77.06,329.75Z" style="fill:#c8ae18;"/>
        </g>
        <g transform="matrix(0.775267,0,0,0.775267,35.7533,65.3724)">
            <circle cx="144.963" cy="318.266" r="12.195" style="fill:#ffdd17;"/>
        </g>
        <g transform="matrix(0.775267,0,0,0.775267,35.7533,65.3724)">
            <path d="M144.963,306.071C151.693,306.071 157.158,311.535 157.158,318.266C157.158,324.996 151.693,330.461 144.963,330.461C138.232,330.461 132.768,324.996 132.768,318.266C132.768,311.535 138.232,306.071 144.963,306.071ZM144.963,308.651C150.269,308.651 154.578,312.959 154.578,318.266C154.578,323.573 150.269,327.881 144.963,327.881C139.656,327.881 135.348,323.573 135.348,318.266C135.348,312.959 139.656,308.651 144.963,308.651Z" style="fill:#c8ae18;"/>
        </g>
        <g transform="matrix(0.459173,0,0,0.459173,81.5753,165.975)">
            <circle cx="144.963" cy="318.266" r="12.195" style="fill:#a28c0a;"/>
        </g>
        <g transform="matrix(0.459173,0,0,0.459173,81.5753,165.975)">
            <path d="M144.963,306.071C151.693,306.071 157.158,311.535 157.158,318.266C157.158,324.996 151.693,330.461 144.963,330.461C138.232,330.461 132.768,324.996 132.768,318.266C132.768,311.535 138.232,306.071 144.963,306.071ZM144.963,310.427C149.289,310.427 152.802,313.939 152.802,318.266C152.802,322.592 149.289,326.105 144.963,326.105C140.636,326.105 137.123,322.592 137.123,318.266C137.123,313.939 140.636,310.427 144.963,310.427Z" style="fill:#c8ae18;"/>
        </g>
    </g>
</svg>
