<?xml version="1.0" encoding="UTF-8" standalone="no"?>
<!DOCTYPE svg PUBLIC "-//W3C//DTD SVG 1.1//EN" "http://www.w3.org/Graphics/SVG/1.1/DTD/svg11.dtd">
<svg width="100%" height="100%" viewBox="0 0 300 345" version="1.1" xmlns="http://www.w3.org/2000/svg" xmlns:xlink="http://www.w3.org/1999/xlink" xml:space="preserve" xmlns:serif="http://www.serif.com/" style="fill-rule:evenodd;clip-rule:evenodd;stroke-linejoin:round;stroke-miterlimit:2;">
    <g id="avatar_item_23" transform="matrix(0.566415,-0.0923163,0.0923163,0.566415,-62.3663,177.438)">
        <path d="M195.224,153.8C195.384,155.01 195.352,156.332 195.105,157.739L179.558,220.948L177.214,221.369L178.286,227.145L180.096,226.823L200.665,287.828C200.908,288.539 201.094,289.246 201.224,289.944L202.814,294.222C201.871,295.905 200.703,297.57 199.302,299.217C197.785,301.239 195.526,302.669 192.712,303.148L140.25,312.08C133.367,313.252 125.755,308.29 123.262,301.006L102.579,240.587C101.372,240.919 100.23,235.201 102.207,234.827L113.19,172.437C114.514,164.916 121.503,157.749 128.786,156.442L184.306,146.48C186.7,146.05 188.829,146.307 190.563,147.112L190.563,147.112L190.564,147.112C190.998,147.314 191.407,147.55 191.789,147.818C193.079,148.623 194.398,149.677 195.787,151.324L195.224,153.8Z" style="fill:#af203d;"/>
        <g transform="matrix(0.944927,-0.160879,0.342323,1,-75.4814,16.8926)">
            <path d="M186.755,238.17L105.002,237.39L105.002,297.809C105.002,305.093 110.916,311.006 118.199,311.006L173.719,311.006C181.003,311.006 186.917,305.093 186.917,297.809L186.755,238.17Z" style="fill:#292b32;"/>
            <path d="M186.755,238.17L105.002,237.39L105.002,297.809C105.002,305.093 110.916,311.006 118.199,311.006L173.719,311.006C181.003,311.006 186.917,305.093 186.917,297.809L186.755,238.17ZM183.079,241.481L183.233,298.347C183.232,303.395 179.359,307.666 174.311,307.666C174.311,307.666 118.791,307.666 118.791,307.666C113.127,307.666 108.686,302.937 108.686,297.273C108.686,297.273 108.686,240.771 108.686,240.771L183.079,241.481Z" style="fill:#ce2749;"/>
        </g>
        <g transform="matrix(-1,0.17943,0.181784,-1.03262,248.931,449.114)">
            <path d="M186.917,237.39L109.315,236.013L105.002,297.809C105.002,305.093 110.916,311.006 118.199,311.006L173.719,311.006C181.003,311.006 186.917,305.093 186.917,297.809L186.917,237.39Z" style="fill:#292b32;"/>
            <path d="M186.917,237.39L109.315,236.013L105.002,297.809C105.002,305.093 110.916,311.006 118.199,311.006L173.719,311.006C181.003,311.006 186.917,305.093 186.917,297.809L186.917,237.39ZM183.263,240.844L183.263,296.589C183.263,302.572 178.443,307.466 172.46,307.466L116.94,307.466C114.638,307.466 112.539,306.689 111.028,305.178C109.482,303.632 108.683,301.498 108.657,299.148C108.657,299.126 112.812,239.594 112.812,239.594L183.263,240.844Z" style="fill:#ce2749;"/>
        </g>
        <g transform="matrix(1.29429,-0.208498,-0.224473,1.15424,17.8395,-10.3344)">
            <path d="M163.598,183.09C163.598,179.181 160.926,176.008 157.635,176.008L121.968,175.992C118.677,175.992 116.005,179.166 116.005,183.074L116.005,217.978C116.005,221.886 118.677,225.059 121.968,225.059L155.75,224.698C159.041,224.698 161.713,221.525 161.713,217.616L163.598,183.09Z" style="fill:#d4e1ff;"/>
        </g>
        <g transform="matrix(0.999841,0.0178215,-0.0178215,0.999841,3.44582,-2.7099)">
            <path d="M122.216,224.158L160.29,163.307L147.539,165.595L121.293,207.543L119.506,217.693C118.963,220.781 120.094,223.185 122.216,224.158ZM127.79,224.13L146.402,220.617L184.577,159.605C183.685,159.344 182.657,159.294 181.534,159.496L166.548,162.184L127.79,224.13ZM181.241,195.251L167.909,216.559L161.843,217.704L184.445,181.58L181.241,195.251Z" style="fill:#fff;"/>
        </g>
        <g transform="matrix(15.9603,-2.57498,-0.152244,0.864817,-1545.16,304.365)">
            <path d="M110.513,237.129C110.483,237.129 110.459,236.657 110.459,236.075L105.708,236.075C105.708,236.657 105.684,237.129 105.654,237.129L105.654,237.363C105.684,237.363 105.708,237.835 105.708,238.417L110.459,238.417C110.459,237.835 110.483,237.363 110.513,237.363L110.513,237.129Z" style="fill:#292b32;"/>
        </g>
        <g transform="matrix(15.9603,-2.57498,-0.152244,0.864817,-1545.16,304.365)">
            <path d="M110.503,237.381L110.499,237.094C110.476,236.977 110.459,236.565 110.459,236.075L105.708,236.075C105.708,236.657 105.684,237.129 105.654,237.129L105.654,237.363C105.684,237.363 105.708,237.835 105.708,238.417L110.459,238.417C110.459,237.9 110.478,237.469 110.503,237.381Z" style="fill:#af203d;"/>
        </g>
        <g>
            <g transform="matrix(1.13407,-0.186613,0.395211,1.18483,-138.638,-33.6535)">
                <path d="M161.562,287.135C161.562,283.959 158.794,281.379 155.385,281.379L143.032,281.379C139.624,281.379 136.856,283.959 136.856,287.135L136.856,300.329C136.856,303.506 139.624,306.085 143.032,306.085L155.385,306.085C158.794,306.085 161.562,303.506 161.562,300.329L161.562,287.135Z" style="fill:#832752;"/>
            </g>
            <g transform="matrix(1.13407,-0.186613,0.395211,1.18483,-105.184,-39.0439)">
                <path d="M161.562,287.135C161.562,283.959 158.794,281.379 155.385,281.379L143.032,281.379C139.624,281.379 136.856,283.959 136.856,287.135L136.856,300.329C136.856,303.506 139.624,306.085 143.032,306.085L155.385,306.085C158.794,306.085 161.562,303.506 161.562,300.329L161.562,287.135Z" style="fill:#b0506c;"/>
            </g>
            <g transform="matrix(1.13407,-0.186613,0.395211,1.18483,-150.372,-66.8398)">
                <path d="M161.562,287.135C161.562,283.959 158.794,281.379 155.385,281.379L143.032,281.379C139.624,281.379 136.856,283.959 136.856,287.135L136.856,300.329C136.856,303.506 139.624,306.085 143.032,306.085L155.385,306.085C158.794,306.085 161.562,303.506 161.562,300.329L161.562,287.135Z" style="fill:#ff497b;"/>
            </g>
            <g transform="matrix(1.13407,-0.186613,0.395211,1.18483,-116.918,-72.2302)">
                <path d="M161.562,287.135C161.562,283.959 158.794,281.379 155.385,281.379L143.032,281.379C139.624,281.379 136.856,283.959 136.856,287.135L136.856,300.329C136.856,303.506 139.624,306.085 143.032,306.085L155.385,306.085C158.794,306.085 161.562,303.506 161.562,300.329L161.562,287.135Z" style="fill:#af203d;"/>
            </g>
            <path d="M130.054,276.766C130.843,276.152 131.819,275.719 132.943,275.534L146.952,273.228C150.818,272.592 154.976,275.132 156.232,278.896L161.446,294.528C161.948,296.033 161.911,297.507 161.438,298.775C163.361,297.278 164.168,294.705 163.278,292.035L158.064,276.403C156.808,272.639 152.65,270.099 148.784,270.735L134.775,273.041C132.455,273.423 130.764,274.862 130.054,276.766ZM163.508,271.375C164.296,270.761 165.273,270.328 166.397,270.143L180.406,267.838C184.272,267.202 188.43,269.741 189.685,273.505L194.9,289.138C195.402,290.642 195.364,292.117 194.891,293.385C196.815,291.887 197.622,289.314 196.732,286.645L191.517,271.012C190.262,267.248 186.104,264.709 182.238,265.345L168.229,267.65C165.908,268.032 164.217,269.472 163.508,271.375ZM118.32,243.58C119.108,242.966 120.085,242.532 121.209,242.347L135.218,240.042C139.084,239.406 143.242,241.945 144.497,245.709L149.712,261.342C150.214,262.847 150.176,264.321 149.703,265.589C151.627,264.091 152.434,261.518 151.544,258.849L146.329,243.216C145.074,239.452 140.916,236.913 137.05,237.549L123.041,239.854C120.721,240.236 119.029,241.676 118.32,243.58ZM151.773,238.189C152.562,237.575 153.538,237.142 154.663,236.957L168.672,234.652C172.538,234.015 176.696,236.555 177.951,240.319L183.165,255.951C183.667,257.456 183.63,258.93 183.157,260.199C185.081,258.701 185.888,256.128 184.997,253.458L179.783,237.826C178.527,234.062 174.369,231.523 170.504,232.159L156.494,234.464C154.174,234.846 152.483,236.285 151.773,238.189Z"/>
        </g>
    </g>
</svg>
