<?xml version="1.0" encoding="UTF-8" standalone="no"?>
<!DOCTYPE svg PUBLIC "-//W3C//DTD SVG 1.1//EN" "http://www.w3.org/Graphics/SVG/1.1/DTD/svg11.dtd">
<svg width="100%" height="100%" viewBox="0 0 300 345" version="1.1" xmlns="http://www.w3.org/2000/svg" xmlns:xlink="http://www.w3.org/1999/xlink" xml:space="preserve" xmlns:serif="http://www.serif.com/" style="fill-rule:evenodd;clip-rule:evenodd;stroke-linejoin:round;stroke-miterlimit:2;">
    <g id="avatar_item_28" transform="matrix(0.592641,-0.146912,0.146912,0.592641,-81.7985,161.934)">
        <g transform="matrix(1,0,0,1,-2.20496,0)">
            <g transform="matrix(1.08443,0,0,1,-14.8965,3.39636)">
                <path d="M166.164,276.569C166.164,269.343 160.754,263.477 154.091,263.477C147.428,263.477 142.018,269.343 142.018,276.569L142.018,318.167C142.018,325.392 147.428,331.259 154.091,331.259C160.754,331.259 166.164,325.392 166.164,318.167L166.164,276.569Z" style="fill:#f4c179;"/>
            </g>
            <g transform="matrix(1,0,0,1,-0.866679,1.39636)">
                <path d="M166.164,275.55C166.164,268.887 160.754,263.477 154.091,263.477C147.428,263.477 142.018,268.887 142.018,275.55L142.018,319.186C142.018,325.849 147.428,331.259 154.091,331.259C160.754,331.259 166.164,325.849 166.164,319.186L166.164,275.55Z" style="fill:#f9e1bf;"/>
            </g>
            <g transform="matrix(1.04738,0,0,1,-7.83101,0)">
                <path d="M141.152,302.773L165.297,302.773L165.297,276.946C165.297,270.283 159.887,264.873 153.224,264.873C146.561,264.873 141.152,270.283 141.152,276.946L141.152,302.773Z" style="fill:#f4c179;"/>
            </g>
        </g>
        <g>
            <g transform="matrix(1,0,0,1,-12.0727,-1.1439)">
                <path d="M119.82,297.226C115.392,297.299 113.476,295.062 114.132,290.458L122.773,199.893C122.773,185.406 134.534,173.644 149.022,173.644L177.37,173.644L186.628,297.226L119.82,297.226Z" style="fill:#d83c31;"/>
            </g>
            <g transform="matrix(1,0,0,1,3.57469,0)">
                <path d="M119.82,296.08C115.392,296.154 113.476,293.916 114.132,289.313L119.545,198.749C119.545,184.262 131.307,172.5 145.795,172.5L160.654,172.5C175.141,172.5 186.903,184.262 186.903,198.749L192.317,289.313C192.973,293.916 191.056,296.154 186.628,296.08L119.82,296.08Z" style="fill:#ff5043;"/>
            </g>
            <g transform="matrix(-1.16274,1.42395e-16,-1.46282e-16,-1.19449,379.062,656.283)">
                <path d="M180.313,303.014C180.548,302.305 180.668,301.546 180.668,300.781C180.668,297.519 178.524,294.87 175.883,294.87C173.243,294.87 171.099,297.519 171.099,300.781C171.099,301.546 171.219,302.305 171.453,303.014L180.313,303.014Z" style="fill:#ff5043;"/>
            </g>
            <g transform="matrix(-0.58137,7.11973e-17,-9.87987e-17,-0.806752,284.234,537.088)">
                <path d="M180.533,299.385C180.011,296.735 178.09,294.87 175.883,294.87C173.243,294.87 171.099,297.519 171.099,300.781C171.099,301.251 171.144,301.72 171.234,302.177L180.533,299.385Z" style="fill:#ff5043;"/>
            </g>
            <g transform="matrix(0.58137,7.11973e-17,9.87987e-17,-0.806752,23.2634,537.088)">
                <path d="M180.533,299.385C180.011,296.735 178.09,294.87 175.883,294.87C173.243,294.87 171.099,297.519 171.099,300.781C171.099,301.251 171.144,301.72 171.234,302.177L180.533,299.385Z" style="fill:#ff5043;"/>
            </g>
            <g transform="matrix(0.471815,5.77807e-17,9.63714e-17,-0.786932,27.3646,529.719)">
                <path d="M180.533,299.385C180.011,296.735 178.09,294.87 175.883,294.87C173.243,294.87 171.099,297.519 171.099,300.781C171.099,301.251 171.144,301.72 171.234,302.177L180.533,299.385Z" style="fill:#d83c31;"/>
            </g>
            <g>
                <g transform="matrix(1,0,-0.0517329,1.10993,9.56216,-24.0837)">
                    <path d="M150.447,193.815C150.447,190.449 147.414,187.716 143.678,187.716C139.941,187.716 136.908,190.449 136.908,193.815L136.908,273.467C136.908,276.833 139.941,279.566 143.678,279.566C147.414,279.566 150.447,276.833 150.447,273.467L150.447,193.815Z" style="fill:#d83c31;"/>
                </g>
                <g transform="matrix(0.767178,0,-0.0517329,1.10993,41.4373,-24.0837)">
                    <path d="M150.447,192.395C150.447,189.813 147.414,187.716 143.678,187.716C139.941,187.716 136.908,189.813 136.908,192.395L136.908,274.887C136.908,277.469 139.941,279.566 143.678,279.566C147.414,279.566 150.447,277.469 150.447,274.887L150.447,192.395Z" style="fill:#d64439;"/>
                </g>
            </g>
            <g>
                <g transform="matrix(1,0,0.0361263,1.10993,22.4625,-24.0837)">
                    <path d="M150.447,193.815C150.447,190.449 147.414,187.716 143.678,187.716C139.941,187.716 136.908,190.449 136.908,193.815L136.908,273.467C136.908,276.833 139.941,279.566 143.678,279.566C147.414,279.566 150.447,276.833 150.447,273.467L150.447,193.815Z" style="fill:#d83c31;"/>
                </g>
                <g transform="matrix(0.767178,0,0.0361263,1.10993,54.3376,-24.0837)">
                    <path d="M150.447,192.395C150.447,189.813 147.414,187.716 143.678,187.716C139.941,187.716 136.908,189.813 136.908,192.395L136.908,274.887C136.908,277.469 139.941,279.566 143.678,279.566C147.414,279.566 150.447,277.469 150.447,274.887L150.447,192.395Z" style="fill:#d64439;"/>
                </g>
            </g>
        </g>
    </g>
</svg>
