<?xml version="1.0" encoding="UTF-8" standalone="no"?>
<!DOCTYPE svg PUBLIC "-//W3C//DTD SVG 1.1//EN" "http://www.w3.org/Graphics/SVG/1.1/DTD/svg11.dtd">
<svg width="100%" height="100%" viewBox="0 0 300 345" version="1.1" xmlns="http://www.w3.org/2000/svg" xmlns:xlink="http://www.w3.org/1999/xlink" xml:space="preserve" xmlns:serif="http://www.serif.com/" style="fill-rule:evenodd;clip-rule:evenodd;stroke-linejoin:round;stroke-miterlimit:2;">
    <g id="avatar_item_30" transform="matrix(0.528281,0.421186,-0.421186,0.528281,90.2971,87.8163)">
        <g transform="matrix(1,0,0,0.926331,-5.95318e-08,21.4138)">
            <path d="M149.48,330.162C105.326,329.873 69.658,292.762 69.564,280.882C69.461,267.981 105.606,231.6 150,231.6L150.52,231.602C194.675,231.883 230.539,268.031 230.436,280.882C230.341,292.809 194.394,330.164 150,330.164L149.48,330.162Z" style="fill:#c8423d;"/>
        </g>
        <path d="M68.975,282.379C92.285,314.926 201.056,316.506 230.437,282.379C227.798,300.662 189.395,327.255 150,328.239C117.988,329.255 77.495,305.55 68.975,282.379Z" style="fill:#b43935;"/>
        <path d="M149.688,258.253C176.883,254.322 221.57,265.383 230.401,282.019C220.923,298.707 182.977,307.621 149.688,307.292C116.4,307.621 78.453,298.707 68.975,282.019C77.806,265.383 122.494,254.322 149.688,258.253Z" style="fill:#d54f4b;"/>
        <g transform="matrix(1.1573,-0.922684,0.922684,1.1573,-185.527,-18.3138)">
            <path d="M30.582,324.708L30.862,324.933C47.61,338.286 69.411,340.728 82.631,338.96C86.115,338.494 89.015,337.733 91.098,336.814C92.669,336.121 93.807,335.313 94.474,334.49C96.124,332.457 96.962,327.855 96.428,321.827C95.257,308.6 87.863,288.192 71.282,274.811L71.002,274.587C54.253,261.233 32.587,258.517 19.352,260.314C13.322,261.132 8.995,262.98 7.375,265.048C6.724,265.879 6.191,267.162 5.866,268.839C5.434,271.063 5.335,274.042 5.65,277.523C6.846,290.728 14.005,311.327 30.582,324.708ZM7.035,270.053C7.45,273.128 8.549,276.455 10.222,279.922C13.842,287.423 20.154,295.608 27.916,303.329C39.532,314.883 54.395,325.4 68.282,331.047C76.643,334.447 84.658,336.077 91.423,335.157C82.625,339.828 52.997,340.853 31.704,323.877L31.43,323.657C11.6,307.648 5.525,281.098 7.035,270.053ZM92.823,333.548C92.68,326.531 89.249,318.72 83.812,310.956C75.306,298.809 61.884,286.801 48.183,278.146C39.071,272.389 29.837,268.114 21.844,266.285C16.657,265.098 12.003,264.939 8.271,266.114L8.248,266.149C7.936,270.047 9.128,274.546 11.439,279.335C15.003,286.72 21.227,294.77 28.869,302.371C40.359,313.8 55.055,324.21 68.791,329.796C77.572,333.366 85.951,334.972 92.823,333.548ZM94.129,332.465C97.944,324.046 92.452,293.632 70.434,275.863L70.16,275.643C48.9,258.693 19.557,259.228 10.546,264.212C13.937,263.698 17.869,263.989 22.145,264.968C30.264,266.826 39.649,271.156 48.905,277.003C62.756,285.754 76.32,297.9 84.919,310.181C90.259,317.808 93.682,325.495 94.129,332.465Z" style="fill:#903c39;"/>
        </g>
        <path d="M190.231,265.983C170.714,261.572 147.735,260.702 126.876,262.998C120.587,263.691 114.491,264.67 108.74,265.929C105.305,266.844 103.549,269.383 103.58,271.8C103.613,274.326 105.673,276.545 109.597,276.397C112.952,276.27 116.092,275.215 119.32,274.241C122.734,273.212 126.241,272.268 130.151,272.423C133.177,272.543 135.031,273.27 137.007,274.115C139.659,275.248 142.554,276.595 149.388,276.725C156.222,276.595 159.117,275.248 161.769,274.115C163.745,273.27 165.599,272.543 168.625,272.423C172.535,272.268 176.042,273.212 179.456,274.241C182.684,275.215 185.824,276.27 189.179,276.397C193.103,276.545 195.163,274.326 195.196,271.8C195.227,269.43 193.537,266.941 190.231,265.983ZM149.376,242.603C142.854,242.74 139.76,244.091 136.62,245.476C134.334,246.484 132.023,247.504 128.493,248.137C120.109,249.643 117.101,248.037 111.062,248.742C107.57,249.149 105.461,251.368 104.982,253.421C104.732,254.495 104.935,255.526 105.827,255.958C106.477,256.272 107.397,256.276 108.595,255.937L109.297,255.8C114.823,254.628 120.653,253.706 126.657,253.045C147.295,250.773 169.986,251.578 189.444,255.797C189.474,255.799 189.504,255.803 189.535,255.808C189.683,255.834 189.829,255.862 189.973,255.893L189.973,255.903C190.035,255.908 190.096,255.919 190.158,255.937C191.356,256.276 192.276,256.272 192.926,255.958C193.818,255.526 194.021,254.495 193.77,253.421C193.292,251.368 191.183,249.149 187.69,248.742C181.652,248.037 178.643,249.643 170.26,248.137C166.73,247.504 164.419,246.484 162.132,245.476C158.993,244.091 155.899,242.74 149.376,242.603Z" style="fill:#b14643;"/>
        <g transform="matrix(1.1573,-0.922684,0.922684,1.1573,-185.527,-18.3138)">
            <path d="M36.942,273.193C36.932,273.186 36.921,273.18 36.91,273.174C36.693,273.055 36.477,272.95 36.263,272.856C36.059,272.756 35.522,272.577 35.522,272.577C32.943,271.761 30.668,272.659 29.471,274.201C28.03,276.057 28.04,278.912 30.979,281.08C32.898,282.495 35.1,283.315 37.324,284.204C39.426,285.044 41.549,285.947 43.429,287.572C44.818,288.773 45.415,289.824 46.032,290.972C46.974,292.721 47.951,294.683 51.378,297.61C51.412,297.654 51.452,297.695 51.498,297.732C51.607,297.817 51.715,297.9 51.821,297.982C51.924,298.067 52.029,298.153 52.137,298.24C52.182,298.277 52.231,298.307 52.282,298.331C55.899,301.02 58.029,301.535 59.944,302.063C61.2,302.41 62.358,302.757 63.838,303.844C65.841,305.315 67.195,307.183 68.482,309.045C69.844,311.015 71.134,312.98 72.941,314.535C75.709,316.918 78.494,316.291 79.983,314.473C81.177,313.014 81.562,310.708 80.352,308.45C80.356,308.397 80.029,307.872 79.861,307.662C79.7,307.437 79.523,307.213 79.327,306.992C79.313,306.977 79.299,306.962 79.284,306.948C70.782,296.524 59.133,286.542 47.274,279.049C43.824,276.87 40.356,274.901 36.942,273.193ZM78.764,308.453C70.311,297.902 58.538,287.764 46.552,280.192C42.938,277.909 39.305,275.859 35.737,274.101C33.537,273.138 31.54,273.74 30.538,275.029C29.491,276.378 29.646,278.418 31.781,279.992C33.606,281.338 35.71,282.103 37.825,282.949C40.062,283.843 42.312,284.821 44.313,286.55C45.86,287.888 46.534,289.053 47.222,290.331C48.146,292.047 49.108,293.978 52.663,296.925C56.328,299.734 58.425,300.243 60.304,300.761C61.703,301.147 62.989,301.544 64.638,302.755C66.769,304.32 68.224,306.295 69.594,308.277C70.889,310.151 72.104,312.031 73.823,313.511C75.833,315.242 77.856,314.938 78.937,313.617C79.952,312.378 80.107,310.352 78.764,308.453ZM68.328,278.222C68.292,278.174 67.449,277.502 67.395,277.478C63.941,274.931 61.702,274.333 59.425,273.732C57.883,273.326 56.322,272.921 54.308,271.833C49.281,269.117 48.38,267.008 44.917,264.853C42.24,263.186 39.519,263.726 38.088,264.928C37.388,265.515 36.981,266.266 36.942,267.024C36.891,268.003 37.434,269.08 38.986,269.844L38.983,269.847L39.128,269.911C42.685,271.665 46.305,273.709 49.907,275.984C61.841,283.523 73.563,293.605 82.007,304.106L82.009,304.104C83.124,305.543 84.334,305.856 85.303,305.581C86.033,305.374 86.674,304.81 87.091,303.997C87.944,302.334 87.864,299.561 85.643,297.323C82.77,294.427 80.514,294.019 76.746,289.723C75.237,288.002 74.495,286.57 73.755,285.157C72.663,283.072 71.58,281.021 68.328,278.222ZM67.029,278.894C63.525,276.219 61.322,275.63 59.08,275.039C57.448,274.609 55.797,274.174 53.666,273.022C48.603,270.286 47.69,268.171 44.203,266C42.186,264.744 40.138,265.028 39.02,265.911C38.435,266.373 38.108,267.003 38.398,267.607C38.609,268.047 39.093,268.436 39.869,268.762L40.297,268.985C43.711,270.693 47.179,272.662 50.629,274.842C62.488,282.334 74.137,292.316 82.639,302.74L82.878,303.014L82.874,303.019C82.904,303.048 82.932,303.08 82.957,303.115C83.447,303.798 83.935,304.184 84.411,304.292C85.064,304.439 85.605,303.98 85.925,303.307C86.537,302.021 86.357,299.961 84.684,298.274C81.791,295.359 79.525,294.94 75.73,290.614C74.132,288.792 73.341,287.28 72.558,285.784C71.482,283.731 70.417,281.714 67.029,278.894Z" style="fill:#903c39;"/>
        </g>
        <path d="M113.47,256.93L113.886,263.021C117.891,262.295 122.865,261.579 127.095,261.113C134.543,260.293 142.265,259.88 150,259.892C161.66,259.911 174.357,260.984 185.19,262.997L185.707,256.947C174.832,255.006 161.638,253.918 150,253.897C142.043,253.883 134.101,254.306 126.438,255.149C122.443,255.589 117.275,256.264 113.47,256.93Z" style="fill:#ffe9e9;"/>
        <path d="M120.189,253.488C120.156,252.822 119.589,252.309 118.923,252.342L116.511,252.462C115.845,252.495 115.331,253.062 115.364,253.728L115.968,265.863C116.001,266.529 116.569,267.043 117.234,267.01L119.647,266.89C120.313,266.856 120.826,266.289 120.793,265.623L120.189,253.488ZM179.358,253.488C179.391,252.822 179.958,252.309 180.624,252.342L183.036,252.462C183.702,252.495 184.216,253.062 184.183,253.728L183.579,265.863C183.546,266.529 182.978,267.043 182.313,267.01L179.9,266.89C179.234,266.856 178.721,266.289 178.754,265.623L179.358,253.488ZM130.952,251.781C130.913,251.115 130.342,250.606 129.676,250.645L127.265,250.784C126.599,250.823 126.09,251.394 126.129,252.06L126.831,264.19C126.869,264.855 127.441,265.364 128.106,265.326L130.518,265.186C131.183,265.148 131.692,264.576 131.654,263.911L130.952,251.781ZM168.595,251.781C168.634,251.115 169.206,250.606 169.871,250.645L172.282,250.784C172.948,250.823 173.457,251.394 173.418,252.06L172.716,264.19C172.678,264.855 172.106,265.364 171.441,265.326L169.029,265.186C168.364,265.148 167.855,264.576 167.893,263.911L168.595,251.781ZM141.786,250.76C141.758,250.094 141.195,249.576 140.529,249.604L138.116,249.706C137.45,249.734 136.932,250.297 136.96,250.963L137.471,263.102C137.499,263.768 138.062,264.286 138.728,264.258L141.142,264.157C141.808,264.129 142.326,263.565 142.298,262.899L141.786,250.76ZM157.761,250.76C157.789,250.094 158.352,249.576 159.018,249.604L161.431,249.706C162.097,249.734 162.615,250.297 162.587,250.963L162.076,263.102C162.048,263.768 161.485,264.286 160.819,264.258L158.405,264.157C157.739,264.129 157.221,263.565 157.249,262.899L157.761,250.76ZM152.415,250.794C152.415,250.128 151.874,249.586 151.208,249.586L148.792,249.586C148.126,249.586 147.585,250.128 147.585,250.794L147.585,262.944C147.585,263.611 148.126,264.152 148.792,264.152L151.208,264.152C151.874,264.152 152.415,263.611 152.415,262.944L152.415,250.794Z" style="fill:#fff;"/>
    </g>
</svg>
