<?xml version="1.0" encoding="UTF-8" standalone="no"?>
<!DOCTYPE svg PUBLIC "-//W3C//DTD SVG 1.1//EN" "http://www.w3.org/Graphics/SVG/1.1/DTD/svg11.dtd">
<svg width="100%" height="100%" viewBox="0 0 300 345" version="1.1" xmlns="http://www.w3.org/2000/svg" xmlns:xlink="http://www.w3.org/1999/xlink" xml:space="preserve" xmlns:serif="http://www.serif.com/" style="fill-rule:evenodd;clip-rule:evenodd;stroke-linejoin:round;stroke-miterlimit:2;">
    <g id="avatar_item_34">
        <g transform="matrix(-0.877738,-0.479141,-0.479141,0.877738,251.056,66.0618)">
            <path d="M82.133,335.8C75.149,338.807 67.327,340.491 59.071,340.491C29.56,340.491 5.6,318.975 5.6,292.474C5.6,265.972 29.56,244.457 59.071,244.457C88.582,244.457 112.542,265.972 112.542,292.474C112.542,295.042 112.317,297.563 111.883,300.026C110.766,306.365 104.076,310.694 97.313,308.005C93.451,306.469 86.432,303.857 83.302,308.469C81.229,311.523 82.513,315.164 85.176,317.306C89.329,320.648 94.968,329.738 82.133,335.8ZM66.194,314.771C71.178,314.771 75.224,318.817 75.224,323.8C75.224,328.784 71.178,332.83 66.194,332.83C61.21,332.83 57.164,328.784 57.164,323.8C57.164,318.817 61.21,314.771 66.194,314.771Z" style="fill:#d8a349;"/>
        </g>
        <g transform="matrix(-0.877738,-0.479141,-0.479141,0.877738,251.056,64.0618)">
            <path d="M82.133,335.8C75.149,338.807 67.327,340.491 59.071,340.491C29.56,340.491 5.6,318.975 5.6,292.474C5.6,265.972 29.56,244.457 59.071,244.457C88.582,244.457 112.542,265.972 112.542,292.474C112.542,295.042 112.317,297.563 111.883,300.026C110.766,306.365 104.076,310.694 97.313,308.005C93.451,306.469 86.432,303.857 83.302,308.469C81.229,311.523 82.513,315.164 85.176,317.306C89.329,320.648 94.968,329.738 82.133,335.8ZM66.194,314.771C71.178,314.771 75.224,318.817 75.224,323.8C75.224,328.784 71.178,332.83 66.194,332.83C61.21,332.83 57.164,328.784 57.164,323.8C57.164,318.817 61.21,314.771 66.194,314.771Z" style="fill:#fac66c;"/>
        </g>
        <g transform="matrix(-0.877738,-0.479141,-0.479141,0.877738,251.056,64.0618)">
            <path d="M82.133,335.8C75.149,338.807 67.327,340.491 59.071,340.491C29.56,340.491 5.6,318.975 5.6,292.474C5.6,265.972 29.56,244.457 59.071,244.457C88.582,244.457 112.542,265.972 112.542,292.474C112.542,295.042 112.317,297.563 111.883,300.026C110.766,306.365 104.076,310.694 97.313,308.005C93.451,306.469 86.432,303.857 83.302,308.469C81.229,311.523 82.513,315.164 85.176,317.306C89.329,320.648 94.968,329.738 82.133,335.8ZM81.31,333.977C85.594,331.947 87.557,329.655 87.975,327.286C88.591,323.796 85.969,320.512 83.922,318.864C80.462,316.08 78.953,311.315 81.647,307.345C83.292,304.922 85.724,303.956 88.411,303.872C91.754,303.767 95.528,305.142 98.052,306.146C103.552,308.334 109.005,304.834 109.913,299.678C110.327,297.329 110.542,294.924 110.542,292.474C110.542,267.014 87.423,246.457 59.071,246.457C30.719,246.457 7.6,267.014 7.6,292.474C7.6,317.934 30.719,338.491 59.071,338.491C67.027,338.491 74.566,336.874 81.301,333.981L81.31,333.977ZM66.194,312.771C72.282,312.771 77.224,317.713 77.224,323.8C77.224,329.888 72.282,334.83 66.194,334.83C60.106,334.83 55.164,329.888 55.164,323.8C55.164,317.713 60.106,312.771 66.194,312.771ZM66.194,314.771C71.178,314.771 75.224,318.817 75.224,323.8C75.224,328.784 71.178,332.83 66.194,332.83C61.21,332.83 57.164,328.784 57.164,323.8C57.164,318.817 61.21,314.771 66.194,314.771Z" style="fill:#f5b64a;"/>
        </g>
        <g>
            <path d="M24.397,267.271L40.781,267.271L40.781,269.282L40.779,269.282C40.685,273.723 37.051,277.298 32.589,277.298C28.126,277.298 24.493,273.723 24.399,269.282L24.397,269.282L24.397,267.271Z" style="fill:#a6100d;"/>
            <g transform="matrix(0.871287,0,0,0.871287,2.70762,27.7989)">
                <circle cx="34.296" cy="275.041" r="9.402" style="fill:#ef1d19;"/>
            </g>
            <g transform="matrix(1,0,0,1,-50.9961,-51.9138)">
                <path d="M86.62,323.745C86.136,324.286 84.995,324.625 84.057,324.688C83.506,324.725 83.089,325.203 83.126,325.753C83.163,326.304 83.641,326.721 84.191,326.684C85.646,326.585 87.36,325.917 88.11,325.079C88.478,324.668 88.443,324.035 88.032,323.667C87.621,323.299 86.988,323.334 86.62,323.745ZM86.481,314.883C88.533,316.262 89.017,318.995 88.346,321.233C88.188,321.761 88.488,322.319 89.017,322.478C89.545,322.636 90.103,322.336 90.262,321.807C91.173,318.768 90.384,315.096 87.596,313.223C87.138,312.915 86.516,313.037 86.208,313.495C85.9,313.954 86.022,314.575 86.481,314.883Z" style="fill:#fc3935;"/>
            </g>
        </g>
        <g>
            <g transform="matrix(1,0,0,1,25.569,-8.02438)">
                <path d="M24.397,267.271L40.781,267.271L40.781,269.282L40.779,269.282C40.685,273.723 37.051,277.298 32.589,277.298C28.126,277.298 24.493,273.723 24.399,269.282L24.397,269.282L24.397,267.271Z" style="fill:#8d078e;"/>
            </g>
            <g transform="matrix(0.871287,0,0,0.871287,28.2766,19.6069)">
                <circle cx="34.296" cy="275.041" r="9.402" style="fill:#b713b8;"/>
            </g>
            <g transform="matrix(1,0,0,1,-25.5084,-60.1386)">
                <path d="M86.62,323.745C86.136,324.286 84.995,324.625 84.057,324.688C83.506,324.725 83.089,325.203 83.126,325.753C83.163,326.304 83.641,326.721 84.191,326.684C85.646,326.585 87.36,325.917 88.11,325.079C88.478,324.668 88.443,324.035 88.032,323.667C87.621,323.299 86.988,323.334 86.62,323.745ZM86.481,314.883C88.533,316.262 89.017,318.995 88.346,321.233C88.188,321.761 88.488,322.319 89.017,322.478C89.545,322.636 90.103,322.336 90.262,321.807C91.173,318.768 90.384,315.096 87.596,313.223C87.138,312.915 86.516,313.037 86.208,313.495C85.9,313.954 86.022,314.575 86.481,314.883Z" style="fill:#d500d6;"/>
            </g>
        </g>
        <g>
            <g transform="matrix(1,0,0,1,48.6403,3.35102)">
                <path d="M24.397,267.271L40.781,267.271L40.781,269.282L40.779,269.282C40.685,273.723 37.051,277.298 32.589,277.298C28.126,277.298 24.493,273.723 24.399,269.282L24.397,269.282L24.397,267.271Z" style="fill:#019342;"/>
            </g>
            <g transform="matrix(0.867454,-0.0816413,0.0816413,0.867454,29.0241,34.8366)">
                <circle cx="34.296" cy="275.041" r="9.402" style="fill:#00ae4e;"/>
            </g>
            <g transform="matrix(1,0,0,1,-2.53821,-48.6979)">
                <path d="M86.62,323.745C86.136,324.286 84.995,324.625 84.057,324.688C83.506,324.725 83.089,325.203 83.126,325.753C83.163,326.304 83.641,326.721 84.191,326.684C85.646,326.585 87.36,325.917 88.11,325.079C88.478,324.668 88.443,324.035 88.032,323.667C87.621,323.299 86.988,323.334 86.62,323.745ZM86.481,314.883C88.533,316.262 89.017,318.995 88.346,321.233C88.188,321.761 88.488,322.319 89.017,322.478C89.545,322.636 90.103,322.336 90.262,321.807C91.173,318.768 90.384,315.096 87.596,313.223C87.138,312.915 86.516,313.037 86.208,313.495C85.9,313.954 86.022,314.575 86.481,314.883Z" style="fill:#00cb5b;"/>
            </g>
        </g>
        <g>
            <g transform="matrix(1,0,0,1,59.0874,26.9277)">
                <path d="M24.397,267.271L40.781,267.271L40.781,269.282L40.779,269.282C40.685,273.723 37.051,277.298 32.589,277.298C28.126,277.298 24.493,273.723 24.399,269.282L24.397,269.282L24.397,267.271Z" style="fill:#0379ab;"/>
            </g>
            <g transform="matrix(0.867454,-0.0816413,0.0816413,0.867454,39.4713,58.4133)">
                <circle cx="34.296" cy="275.041" r="9.402" style="fill:#009ee0;"/>
            </g>
            <g transform="matrix(1,0,0,1,8.0817,-25.1985)">
                <path d="M86.62,323.745C86.136,324.286 84.995,324.625 84.057,324.688C83.506,324.725 83.089,325.203 83.126,325.753C83.163,326.304 83.641,326.721 84.191,326.684C85.646,326.585 87.36,325.917 88.11,325.079C88.478,324.668 88.443,324.035 88.032,323.667C87.621,323.299 86.988,323.334 86.62,323.745ZM86.481,314.883C88.533,316.262 89.017,318.995 88.346,321.233C88.188,321.761 88.488,322.319 89.017,322.478C89.545,322.636 90.103,322.336 90.262,321.807C91.173,318.768 90.384,315.096 87.596,313.223C87.138,312.915 86.516,313.037 86.208,313.495C85.9,313.954 86.022,314.575 86.481,314.883Z" style="fill:#00b4ff;"/>
            </g>
        </g>
        <g>
            <g transform="matrix(1,0,0,1,50.894,52.1271)">
                <path d="M24.397,267.271L40.781,267.271L40.781,269.282L40.779,269.282C40.685,273.723 37.051,277.298 32.589,277.298C28.126,277.298 24.493,273.723 24.399,269.282L24.397,269.282L24.397,267.271Z" style="fill:#c8b100;"/>
            </g>
            <g transform="matrix(0.867454,-0.0816413,0.0816413,0.867454,31.2788,83.6127)">
                <circle cx="34.296" cy="275.041" r="9.402" style="fill:#ffe200;"/>
            </g>
            <path d="M86.62,323.745C86.136,324.286 84.995,324.625 84.057,324.688C83.506,324.725 83.089,325.203 83.126,325.753C83.163,326.304 83.641,326.721 84.191,326.684C85.646,326.585 87.36,325.917 88.11,325.079C88.478,324.668 88.443,324.035 88.032,323.667C87.621,323.299 86.988,323.334 86.62,323.745ZM86.481,314.883C88.533,316.262 89.017,318.995 88.346,321.233C88.188,321.761 88.488,322.319 89.017,322.478C89.545,322.636 90.103,322.336 90.262,321.807C91.173,318.768 90.384,315.096 87.596,313.223C87.138,312.915 86.516,313.037 86.208,313.495C85.9,313.954 86.022,314.575 86.481,314.883Z" style="fill:#ffeb4c;"/>
        </g>
    </g>
</svg>
