<?xml version="1.0" encoding="UTF-8" standalone="no"?>
<!DOCTYPE svg PUBLIC "-//W3C//DTD SVG 1.1//EN" "http://www.w3.org/Graphics/SVG/1.1/DTD/svg11.dtd">
<svg width="100%" height="100%" viewBox="0 0 300 345" version="1.1" xmlns="http://www.w3.org/2000/svg" xmlns:xlink="http://www.w3.org/1999/xlink" xml:space="preserve" xmlns:serif="http://www.serif.com/" style="fill-rule:evenodd;clip-rule:evenodd;stroke-linejoin:round;stroke-miterlimit:2;">
    <g id="avatar_item_21" transform="matrix(0.492885,-0.160165,0.160165,0.492885,-69.2238,226.911)">
        <g>
            <path d="M166.868,283.144C167.884,285.177 169.961,286.461 172.234,286.461C174.507,286.461 176.584,285.177 177.601,283.144L242.683,152.979C243.613,151.119 243.514,148.91 242.421,147.141C241.327,145.372 239.396,144.295 237.317,144.295C193.928,127.127 150.54,126.992 107.151,144.295C105.22,145.066 103.141,145.372 102.047,147.141C100.954,148.91 100.855,151.119 101.785,152.979L166.868,283.144Z" style="fill:#d27c33;"/>
            <g transform="matrix(0.887475,0,0,0.887475,19.3806,25.7993)">
                <path d="M168.084,287.489C169.1,289.521 169.961,290.805 172.234,290.805C174.507,290.805 175.715,289.521 176.732,287.489L242.683,152.979C243.613,151.119 243.514,148.91 242.421,147.141C241.327,145.372 239.396,144.295 237.317,144.295C193.928,127.127 150.54,126.992 107.151,144.295C105.22,145.066 103.141,145.372 102.047,147.141C100.954,148.91 100.855,151.119 101.785,152.979L168.084,287.489Z" style="fill:#9d2a1b;"/>
            </g>
            <path d="M125.67,186.55C122.788,182.902 120.601,180.989 118.589,175.614C117.425,171.222 115.486,166.907 112.256,162.721C111.174,161.319 111.549,159.257 112.479,157.751C113.41,156.245 115.18,155.984 116.825,155.328C120.121,154.014 125.064,153.882 128.361,152.804C137.543,149.8 145.007,145.7 154.262,145.468C164.469,145.212 174.82,144.963 185.285,144.943C193.444,144.927 200.804,147.782 208.686,150.714C222.239,155.756 222.063,153.144 227.643,155.328C229.292,155.973 231.058,156.245 231.989,157.751C232.92,159.257 233.343,161.359 232.212,162.721C228.685,166.97 226.331,172.099 224.835,177.871C223.003,182.791 222.382,184.843 219.135,188.851C216.982,191.508 214.37,191.777 213.2,196.127C211.473,202.548 208.456,211.418 208.456,211.418C199.542,223.386 194.93,240.439 190.145,248.728C188.094,252.282 184.184,254.314 184.184,257.338C184.184,258.316 184.111,258.93 184.05,259.952C183.937,261.848 183.51,263.766 181.691,265.162C178.919,267.291 179.222,268.428 178.929,270.358C178.571,272.715 176.852,275.909 175.523,279.128C174.785,280.916 174.169,281.951 172.234,281.951C170.299,281.951 169.809,281.026 169.433,279.128C168.221,273.006 162.717,268.328 161.653,262.463C160.645,256.908 157.517,252.843 154.274,248.266C150.964,243.943 149.805,241.026 149.589,238.727C148.903,234.597 146.603,231.335 144.345,228.051C144.345,228.051 142.819,225.852 142.151,223.929C141.137,221.013 140.717,217.717 139.688,215.658C137.693,211.661 133.513,208.483 132.056,203.657C132.056,203.657 130.088,197.125 129.495,194.51C128.827,191.565 127.065,188.315 125.67,186.55Z" style="fill:#ffbf00;"/>
        </g>
        <g>
            <g transform="matrix(0.401438,0.181825,-0.181825,0.401438,144.131,49.8097)">
                <path d="M265.88,213.28C265.1,211.862 263.451,211.14 261.88,211.53C259.731,212.181 258.021,213.827 257.29,215.95C254.4,223.72 246.7,230.65 233.72,234.46C220.74,238.27 210.06,236.73 202.72,231.96C200.813,230.633 198.417,230.208 196.17,230.8C195.576,230.97 195.048,231.319 194.66,231.8C194.272,232.281 194.56,231.94 194.42,232.17C194.383,232.235 194.349,232.301 194.32,232.37C193.67,233.61 192.62,236.85 196.19,240.91C203.24,248.91 220.13,251.6 237.58,246.48C255.03,241.36 267.2,230.21 267.66,219.94C267.66,217.603 267.047,215.306 265.88,213.28Z" style="fill:#f7941d;fill-rule:nonzero;"/>
            </g>
            <g transform="matrix(0.401438,0.181825,-0.181825,0.401438,144.131,49.8097)">
                <path d="M261.17,206.56L260.33,210.46C258.308,211.178 256.749,212.823 256.14,214.88C253.51,222.65 246.47,229.58 234.63,233.39C222.79,237.2 213.03,235.66 206.36,230.88C204.53,229.57 197.8,226.04 197.8,226.04C197.8,226.04 195,229.92 199.2,235.15C205.63,243.15 221.05,245.83 236.98,240.71C252.91,235.59 263.98,224.45 264.45,214.17C264.55,211.75 263.22,205.91 261.17,206.56Z" style="fill:#2a953c;fill-rule:nonzero;"/>
            </g>
            <g transform="matrix(0.401438,0.181825,-0.181825,0.401438,144.131,49.8097)">
                <path d="M259.14,205.73C257.121,206.458 255.564,208.104 254.95,210.16C252.32,217.92 245.28,224.85 233.44,228.66C221.6,232.47 211.84,230.93 205.17,226.16C203.472,224.836 201.239,224.404 199.17,225C197.12,225.66 196.5,228.51 197.99,230.42C204.31,238.53 219.85,241.11 235.78,235.99C251.71,230.87 262.83,219.72 263.24,209.45C263.36,207 261.19,205.07 259.14,205.73Z" style="fill:#39b54a;fill-rule:nonzero;"/>
            </g>
        </g>
        <g>
            <g transform="matrix(0.306435,0.138795,-0.138795,0.306435,122.91,125.689)">
                <path d="M265.88,213.28C265.1,211.862 263.451,211.14 261.88,211.53C259.731,212.181 258.021,213.827 257.29,215.95C254.4,223.72 246.7,230.65 233.72,234.46C220.74,238.27 210.06,236.73 202.72,231.96C200.813,230.633 198.417,230.208 196.17,230.8C195.576,230.97 195.048,231.319 194.66,231.8C194.272,232.281 194.56,231.94 194.42,232.17C194.383,232.235 194.349,232.301 194.32,232.37C193.67,233.61 192.62,236.85 196.19,240.91C203.24,248.91 220.13,251.6 237.58,246.48C255.03,241.36 267.2,230.21 267.66,219.94C267.66,217.603 267.047,215.306 265.88,213.28Z" style="fill:#f7941d;fill-rule:nonzero;"/>
            </g>
            <g transform="matrix(0.306435,0.138795,-0.138795,0.306435,122.91,125.689)">
                <path d="M261.17,206.56L260.33,210.46C258.308,211.178 256.749,212.823 256.14,214.88C253.51,222.65 246.47,229.58 234.63,233.39C222.79,237.2 213.03,235.66 206.36,230.88C204.53,229.57 197.8,226.04 197.8,226.04C197.8,226.04 195,229.92 199.2,235.15C205.63,243.15 221.05,245.83 236.98,240.71C252.91,235.59 263.98,224.45 264.45,214.17C264.55,211.75 263.22,205.91 261.17,206.56Z" style="fill:#2a953c;fill-rule:nonzero;"/>
            </g>
            <g transform="matrix(0.306435,0.138795,-0.138795,0.306435,122.91,125.689)">
                <path d="M259.14,205.73C257.121,206.458 255.564,208.104 254.95,210.16C252.32,217.92 245.28,224.85 233.44,228.66C221.6,232.47 211.84,230.93 205.17,226.16C203.472,224.836 201.239,224.404 199.17,225C197.12,225.66 196.5,228.51 197.99,230.42C204.31,238.53 219.85,241.11 235.78,235.99C251.71,230.87 262.83,219.72 263.24,209.45C263.36,207 261.19,205.07 259.14,205.73Z" style="fill:#39b54a;fill-rule:nonzero;"/>
            </g>
        </g>
        <g>
            <g transform="matrix(-0.291333,-0.168201,0.168201,-0.291333,200.362,263.07)">
                <path d="M265.88,213.28C265.1,211.862 263.451,211.14 261.88,211.53C259.731,212.181 258.021,213.827 257.29,215.95C254.4,223.72 246.7,230.65 233.72,234.46C220.74,238.27 210.06,236.73 202.72,231.96C200.813,230.633 198.417,230.208 196.17,230.8C195.576,230.97 195.048,231.319 194.66,231.8C194.272,232.281 194.56,231.94 194.42,232.17C194.383,232.235 194.349,232.301 194.32,232.37C193.67,233.61 192.62,236.85 196.19,240.91C203.24,248.91 220.13,251.6 237.58,246.48C255.03,241.36 267.2,230.21 267.66,219.94C267.66,217.603 267.047,215.306 265.88,213.28Z" style="fill:#f7941d;fill-rule:nonzero;"/>
            </g>
            <g transform="matrix(-0.291333,-0.168201,0.168201,-0.291333,201.344,259.526)">
                <path d="M261.17,206.56L260.33,210.46C258.308,211.178 256.749,212.823 256.14,214.88C253.51,222.65 246.47,229.58 234.63,233.39C222.79,237.2 213.03,235.66 206.36,230.88C204.53,229.57 197.8,226.04 197.8,226.04C197.8,226.04 195,229.92 199.2,235.15C205.63,243.15 221.05,245.83 236.98,240.71C252.91,235.59 263.98,224.45 264.45,214.17C264.55,211.75 263.22,205.91 261.17,206.56Z" style="fill:#2a953c;fill-rule:nonzero;"/>
            </g>
            <g transform="matrix(-0.291333,-0.168201,0.168201,-0.291333,201.344,259.526)">
                <path d="M259.14,205.73C257.121,206.458 255.564,208.104 254.95,210.16C252.32,217.92 245.28,224.85 233.44,228.66C221.6,232.47 211.84,230.93 205.17,226.16C203.472,224.836 201.239,224.404 199.17,225C197.12,225.66 196.5,228.51 197.99,230.42C204.31,238.53 219.85,241.11 235.78,235.99C251.71,230.87 262.83,219.72 263.24,209.45C263.36,207 261.19,205.07 259.14,205.73Z" style="fill:#39b54a;fill-rule:nonzero;"/>
            </g>
        </g>
        <g>
            <g transform="matrix(0.458659,0,0,0.458659,95.0661,82.7694)">
                <ellipse cx="240.31" cy="184.83" rx="33.27" ry="16" style="fill:#f7941d;"/>
            </g>
            <g transform="matrix(0.458659,0,0,0.458659,95.0661,82.7694)">
                <path d="M266.57,179.31C266.57,188.73 254.72,196.37 240.12,196.37C225.52,196.37 213.67,188.73 213.67,179.31L213.67,174.69L266.57,174.69L266.57,179.31Z" style="fill:#86283b;fill-rule:nonzero;"/>
            </g>
            <g transform="matrix(0.458659,0,0,0.458659,95.0661,82.7694)">
                <ellipse cx="240.12" cy="173.95" rx="26.45" ry="17.06" style="fill:#be4047;"/>
            </g>
            <g transform="matrix(0.458659,0,0,0.458659,95.0661,82.7694)">
                <ellipse cx="239.85" cy="162.52" rx="5.46" ry="2.83" style="fill:#d07374;"/>
            </g>
            <g transform="matrix(0.458659,0,0,0.458659,95.0661,82.7694)">
                <ellipse cx="222.96" cy="173.13" rx="5.46" ry="2.83" style="fill:#d07374;"/>
            </g>
            <g transform="matrix(0.458659,0,0,0.458659,95.0661,82.7694)">
                <ellipse cx="242.59" cy="184.68" rx="5.46" ry="2.83" style="fill:#d07374;"/>
            </g>
            <g transform="matrix(0.458659,0,0,0.458659,95.0661,82.7694)">
                <ellipse cx="252.75" cy="166.68" rx="2.9" ry="1.38" style="fill:#d07374;"/>
            </g>
            <g transform="matrix(0.458659,0,0,0.458659,95.0661,82.7694)">
                <ellipse cx="255.22" cy="171.45" rx="3.23" ry="1.67" style="fill:#d07374;"/>
            </g>
            <g transform="matrix(0.458659,0,0,0.458659,95.0661,82.7694)">
                <ellipse cx="233.05" cy="174.29" rx="1.94" ry="1.01" style="fill:#d07374;"/>
            </g>
            <g transform="matrix(0.458659,0,0,0.458659,95.0661,82.7694)">
                <ellipse cx="228.42" cy="178.17" rx="2.76" ry="1.43" style="fill:#d07374;"/>
            </g>
        </g>
        <g>
            <g transform="matrix(0.566311,0,0,0.566311,10.8336,69.0504)">
                <ellipse cx="240.31" cy="184.83" rx="33.27" ry="16" style="fill:#f7941d;"/>
            </g>
            <g transform="matrix(0.566311,0,0,0.566311,10.8336,69.0504)">
                <path d="M266.57,179.31C266.57,188.73 254.72,196.37 240.12,196.37C225.52,196.37 213.67,188.73 213.67,179.31L213.67,174.69L266.57,174.69L266.57,179.31Z" style="fill:#86283b;fill-rule:nonzero;"/>
            </g>
            <g transform="matrix(0.566311,0,0,0.566311,10.8336,69.0504)">
                <ellipse cx="240.12" cy="173.95" rx="26.45" ry="17.06" style="fill:#be4047;"/>
            </g>
            <g transform="matrix(0.566311,0,0,0.566311,10.8336,69.0504)">
                <ellipse cx="239.85" cy="162.52" rx="5.46" ry="2.83" style="fill:#d07374;"/>
            </g>
            <g transform="matrix(0.566311,0,0,0.566311,10.8336,69.0504)">
                <ellipse cx="222.96" cy="173.13" rx="5.46" ry="2.83" style="fill:#d07374;"/>
            </g>
            <g transform="matrix(0.566311,0,0,0.566311,10.8336,69.0504)">
                <ellipse cx="242.59" cy="184.68" rx="5.46" ry="2.83" style="fill:#d07374;"/>
            </g>
            <g transform="matrix(0.566311,0,0,0.566311,10.8336,69.0504)">
                <ellipse cx="252.75" cy="166.68" rx="2.9" ry="1.38" style="fill:#d07374;"/>
            </g>
            <g transform="matrix(0.566311,0,0,0.566311,10.8336,69.0504)">
                <ellipse cx="255.22" cy="171.45" rx="3.23" ry="1.67" style="fill:#d07374;"/>
            </g>
            <g transform="matrix(0.566311,0,0,0.566311,10.8336,69.0504)">
                <ellipse cx="233.05" cy="174.29" rx="1.94" ry="1.01" style="fill:#d07374;"/>
            </g>
            <g transform="matrix(0.566311,0,0,0.566311,10.8336,69.0504)">
                <ellipse cx="228.42" cy="178.17" rx="2.76" ry="1.43" style="fill:#d07374;"/>
            </g>
        </g>
        <g>
            <g transform="matrix(1,0,0,1,22.2341,-10.3438)">
                <path d="M163.358,264.489C153.784,264.061 146.278,260.182 146.278,255.467C146.278,250.466 154.72,246.406 165.119,246.406C168.03,246.406 170.787,246.724 173.248,247.291C171.35,251.929 169.642,256.074 167.911,259.072C166.649,261.258 164.683,262.869 163.358,264.489Z" style="fill:#f7941d;"/>
            </g>
            <g transform="matrix(1,0,0,1,22.2341,-10.3438)">
                <path d="M172.248,249.724C170.739,253.373 169.333,256.609 167.911,259.072C167.28,260.165 166.473,261.115 165.658,261.993C165.444,261.999 165.228,262.002 165.011,262.002C156.743,262.002 150.032,257.675 150.032,252.341L150.032,249.724L172.248,249.724Z" style="fill:#86283b;fill-rule:nonzero;"/>
            </g>
            <g transform="matrix(1,0,0,1,22.2341,-10.3438)">
                <path d="M168.087,258.762C167.094,258.896 166.065,258.967 165.011,258.967C156.744,258.967 150.032,254.638 150.032,249.305C150.032,243.973 156.744,239.644 165.011,239.644C168.999,239.644 172.624,240.651 175.31,242.292C172.608,248.733 170.361,254.719 168.087,258.762Z" style="fill:#be4047;"/>
            </g>
            <g transform="matrix(1,0,0,1,22.2341,-10.3438)">
                <ellipse cx="164.858" cy="242.832" rx="3.092" ry="1.603" style="fill:#d07374;"/>
            </g>
            <g transform="matrix(1,0,0,1,22.2341,-10.3438)">
                <ellipse cx="155.293" cy="248.841" rx="3.092" ry="1.603" style="fill:#d07374;"/>
            </g>
            <g transform="matrix(1,0,0,1,22.2341,-10.3438)">
                <ellipse cx="166.41" cy="255.382" rx="3.092" ry="1.603" style="fill:#d07374;"/>
            </g>
            <g transform="matrix(1,0,0,1,22.2341,-10.3438)">
                <ellipse cx="172.164" cy="245.188" rx="1.642" ry="0.782" style="fill:#d07374;"/>
            </g>
            <g transform="matrix(1,0,0,1,22.2341,-10.3438)">
                <path d="M173.388,246.948C173.144,247.545 172.903,248.133 172.665,248.714C172.109,248.551 171.733,248.243 171.733,247.89C171.733,247.398 172.46,246.994 173.388,246.948Z" style="fill:#d07374;"/>
            </g>
            <g transform="matrix(1,0,0,1,22.2341,-10.3438)">
                <ellipse cx="161.008" cy="249.498" rx="1.099" ry="0.572" style="fill:#d07374;"/>
            </g>
            <g transform="matrix(0.566311,0,0,0.566311,51.263,140.452)">
                <ellipse cx="228.42" cy="178.17" rx="2.76" ry="1.43" style="fill:#d07374;"/>
            </g>
        </g>
        <g>
            <g transform="matrix(0.700338,0,0,0.700338,3.93576,80.1986)">
                <ellipse cx="240.31" cy="184.83" rx="33.27" ry="16" style="fill:#f7941d;"/>
            </g>
            <g transform="matrix(0.700338,0,0,0.700338,3.93576,80.1986)">
                <path d="M266.57,179.31C266.57,188.73 254.72,196.37 240.12,196.37C225.52,196.37 213.67,188.73 213.67,179.31L213.67,174.69L266.57,174.69L266.57,179.31Z" style="fill:#86283b;fill-rule:nonzero;"/>
            </g>
            <g transform="matrix(0.700338,0,0,0.700338,3.93576,80.1986)">
                <ellipse cx="240.12" cy="173.95" rx="26.45" ry="17.06" style="fill:#be4047;"/>
            </g>
            <g transform="matrix(0.700338,0,0,0.700338,3.93576,80.1986)">
                <ellipse cx="239.85" cy="162.52" rx="5.46" ry="2.83" style="fill:#d07374;"/>
            </g>
            <g transform="matrix(0.700338,0,0,0.700338,3.93576,80.1986)">
                <ellipse cx="222.96" cy="173.13" rx="5.46" ry="2.83" style="fill:#d07374;"/>
            </g>
            <g transform="matrix(0.700338,0,0,0.700338,3.93576,80.1986)">
                <ellipse cx="242.59" cy="184.68" rx="5.46" ry="2.83" style="fill:#d07374;"/>
            </g>
            <g transform="matrix(0.700338,0,0,0.700338,3.93576,80.1986)">
                <ellipse cx="252.75" cy="166.68" rx="2.9" ry="1.38" style="fill:#d07374;"/>
            </g>
            <g transform="matrix(0.700338,0,0,0.700338,3.93576,80.1986)">
                <ellipse cx="255.22" cy="171.45" rx="3.23" ry="1.67" style="fill:#d07374;"/>
            </g>
            <g transform="matrix(0.700338,0,0,0.700338,3.93576,80.1986)">
                <ellipse cx="233.05" cy="174.29" rx="1.94" ry="1.01" style="fill:#d07374;"/>
            </g>
            <g transform="matrix(0.700338,0,0,0.700338,3.93576,80.1986)">
                <ellipse cx="228.42" cy="178.17" rx="2.76" ry="1.43" style="fill:#d07374;"/>
            </g>
        </g>
    </g>
</svg>
