<?xml version="1.0" encoding="UTF-8" standalone="no"?>
<!DOCTYPE svg PUBLIC "-//W3C//DTD SVG 1.1//EN" "http://www.w3.org/Graphics/SVG/1.1/DTD/svg11.dtd">
<svg width="100%" height="100%" viewBox="0 0 300 345" version="1.1" xmlns="http://www.w3.org/2000/svg" xmlns:xlink="http://www.w3.org/1999/xlink" xml:space="preserve" xmlns:serif="http://www.serif.com/" style="fill-rule:evenodd;clip-rule:evenodd;stroke-linejoin:round;stroke-miterlimit:2;">
    <g id="avatar_eyebrows_10" transform="matrix(1,0,0,1,0,-3.46407)">
        <g transform="matrix(0.980464,0.196698,-0.196698,0.980464,41.8132,-45.8199)">
            <path d="M226.605,135.379C229.91,130.535 234.916,126.967 240.921,124.148L242.141,131.591L247.815,130.249C248.504,131.747 248.847,133.393 248.397,135.379C249.666,135.943 251.748,135.856 254.319,135.379C257.845,134.66 261.13,133.461 264.02,131.469C264.571,134.591 264.378,137.713 263.123,140.835C263.21,141.021 263.292,141.21 263.367,141.402C265.445,140.979 267.02,141.663 268.436,142.695L264.012,144.482C264.017,144.609 264.02,144.736 264.02,144.864C264.02,145.606 263.934,146.328 263.773,147.021L264.653,149.711L262.844,149.438C261.229,152.364 258.112,154.349 254.535,154.349L213.778,154.349C208.543,154.349 204.293,150.099 204.293,144.864C204.267,138.035 209.749,132.124 217.535,126.596L216.516,135.379L217.651,135.379L226.34,128.236L225.874,135.379L226.605,135.379Z" style="fill:#3f1c12;"/>
        </g>
        <g transform="matrix(-0.980464,0.196698,0.196698,0.980464,258.647,-45.8199)">
            <path d="M226.605,135.379C229.91,130.535 234.916,126.967 240.921,124.148L242.141,131.591L247.815,130.249C248.504,131.747 248.847,133.393 248.397,135.379C249.666,135.943 251.748,135.856 254.319,135.379C257.845,134.66 261.13,133.461 264.02,131.469C264.571,134.591 264.378,137.713 263.123,140.835C263.21,141.021 263.292,141.21 263.367,141.402C265.445,140.979 267.02,141.663 268.436,142.695L264.012,144.482C264.017,144.609 264.02,144.736 264.02,144.864C264.02,145.606 263.934,146.328 263.773,147.021L264.653,149.711L262.844,149.438C261.229,152.364 258.112,154.349 254.535,154.349L213.778,154.349C208.543,154.349 204.293,150.099 204.293,144.864C204.267,138.035 209.749,132.124 217.535,126.596L216.516,135.379L217.651,135.379L226.34,128.236L225.874,135.379L226.605,135.379Z" style="fill:#3f1c12;"/>
        </g>
    </g>
</svg>
