<?xml version="1.0" encoding="UTF-8" standalone="no"?>
<!DOCTYPE svg PUBLIC "-//W3C//DTD SVG 1.1//EN" "http://www.w3.org/Graphics/SVG/1.1/DTD/svg11.dtd">
<svg width="100%" height="100%" viewBox="0 0 300 345" version="1.1" xmlns="http://www.w3.org/2000/svg" xmlns:xlink="http://www.w3.org/1999/xlink" xml:space="preserve" xmlns:serif="http://www.serif.com/" style="fill-rule:evenodd;clip-rule:evenodd;stroke-linejoin:round;stroke-miterlimit:2;">
    <g id="avatar_eyebrows_9">
        <g transform="matrix(0.930865,-0.365363,0.365363,0.930865,-46.465,105.845)">
            <path d="M264.868,153.916L295.128,161.941C295.128,161.941 274.937,127.396 269.427,127.048L221.489,123.409C217.395,123.098 213.819,126.17 213.508,130.264L212.523,142.61C212.212,146.704 215.283,150.281 219.377,150.591C219.377,150.591 264.396,153.972 264.868,153.916Z" style="fill:#3f1c12;"/>
        </g>
        <g transform="matrix(-0.930865,-0.365363,-0.365363,0.930865,346.465,105.845)">
            <path d="M264.868,153.916L295.128,161.941C295.128,161.941 274.937,127.396 269.427,127.048L221.489,123.409C217.395,123.098 213.819,126.17 213.508,130.264L212.523,142.61C212.212,146.704 215.283,150.281 219.377,150.591C219.377,150.591 264.396,153.972 264.868,153.916Z" style="fill:#3f1c12;"/>
        </g>
    </g>
</svg>
