<?xml version="1.0" encoding="UTF-8" standalone="no"?>
<!-- Created with Inkscape (http://www.inkscape.org/) -->

<svg
   width="200"
   height="200"
   viewBox="0 0 52.916666 52.916669"
   version="1.1"
   id="svg5"
   xml:space="preserve"
   inkscape:version="1.2 (dc2aedaf03, 2022-05-15)"
   sodipodi:docname="Array Tile_Forest.svg"
   xmlns:inkscape="http://www.inkscape.org/namespaces/inkscape"
   xmlns:sodipodi="http://sodipodi.sourceforge.net/DTD/sodipodi-0.dtd"
   xmlns="http://www.w3.org/2000/svg"
   xmlns:svg="http://www.w3.org/2000/svg"><sodipodi:namedview
     id="namedview7"
     pagecolor="#505050"
     bordercolor="#ffffff"
     borderopacity="1"
     inkscape:showpageshadow="0"
     inkscape:pageopacity="0"
     inkscape:pagecheckerboard="1"
     inkscape:deskcolor="#505050"
     inkscape:document-units="mm"
     showgrid="false"
     showguides="false"
     inkscape:zoom="1.1141857"
     inkscape:cx="-35.003142"
     inkscape:cy="44.875823"
     inkscape:window-width="1366"
     inkscape:window-height="705"
     inkscape:window-x="-8"
     inkscape:window-y="-8"
     inkscape:window-maximized="1"
     inkscape:current-layer="layer1" /><defs
     id="defs2"><inkscape:path-effect
       effect="tiling"
       id="path-effect4676"
       is_visible="true"
       lpeversion="1"
       unit="px"
       seed="1;1"
       lpesatellites=""
       num_rows="2"
       num_cols="1"
       gapx="66"
       gapy="13"
       offset="55"
       offset_type="false"
       scale="0"
       rotate="0"
       mirrorrowsx="false"
       mirrorrowsy="false"
       mirrorcolsx="false"
       mirrorcolsy="false"
       mirrortrans="false"
       shrink_interp="false"
       split_items="false"
       link_styles="false"
       interpolate_scalex="false"
       interpolate_scaley="true"
       interpolate_rotatex="false"
       interpolate_rotatey="true"
       random_scale="false"
       random_rotate="false"
       random_gap_y="false"
       random_gap_x="false"
       transformorigin="matrix(1.2771788,0,0,1.2771788,-27.529301,-27.865582)" /><style
       id="style6175">.cls-1{fill:url(#linear-gradient);}.cls-2{fill:#ba2e7e;}.cls-3{fill:url(#linear-gradient-2);}.cls-4{fill:#ffcd05;}.cls-5{fill:#fabc2e;}.cls-6,.cls-7{fill-opacity:0.5;}.cls-6{fill:url(#radial-gradient);}.cls-7{fill:url(#radial-gradient-2);}.cls-8{fill:#9a1c25;}.cls-9{fill:#fff;}.cls-10{fill:#32160f;}.cls-11,.cls-13{fill:#61727c;}.cls-12{fill:#92a1ad;}.cls-13{opacity:0.25;}.cls-14{fill:#bc6234;}.cls-15{fill:#f6871f;}.cls-16{fill:#9e1f63;}.cls-17{fill:#f4fbfe;}</style></defs><g
     inkscape:label="Layer 1"
     inkscape:groupmode="layer"
     id="layer1"
     transform="translate(-99.319644,-100.53287)"><g
       id="g12703"
       transform="matrix(1.2771788,0,0,1.2771788,-25.377264,-27.541665)"
       inkscape:path-effect="#path-effect4676"
       class="UnoptimicedTransforms"><path
         id="path11904"
         style="opacity:1;fill:#ffffff;stroke-width:0.651444;stroke-linecap:round;stroke-linejoin:round"
         d="m 114.03398,114.94168 c -0.23635,0.002 -0.47975,0.0259 -0.72347,0.0481 l -0.22789,4.65915 h 1.85312 l -0.3297,-4.68033 c -0.19298,-0.015 -0.38482,-0.0281 -0.57206,-0.0269 z m 18.35765,21.80917 c -0.23635,0.002 -0.47975,0.0259 -0.72347,0.0481 l -0.22789,4.65915 h 1.85312 l -0.3297,-4.68033 c -0.19298,-0.015 -0.38482,-0.0281 -0.57206,-0.0269 z"
         inkscape:original-d="m 114.03398,114.94168 c -0.23635,0.002 -0.47975,0.0259 -0.72347,0.0481 l -0.22789,4.65915 h 1.85312 l -0.3297,-4.68033 c -0.19298,-0.015 -0.38482,-0.0281 -0.57206,-0.0269 z" /><path
         id="path11894"
         style="opacity:1;fill:#ffffff;stroke-width:3.08615;stroke-linecap:round;stroke-linejoin:round"
         d="m 102.78609,105.47257 c -0.17264,0.1034 -0.3456,0.20487 -0.52038,0.29042 -0.66374,0.32486 -1.48908,0.48024 -1.94614,1.06092 -0.457041,0.58068 -0.41428,1.42 -0.574121,2.14147 -0.159843,0.72148 -0.553496,1.46395 -0.384473,2.18333 0.169025,0.71939 0.852304,1.20907 1.316714,1.78387 0.46442,0.57481 0.79928,1.34502 1.4671,1.6614 0.66783,0.31634 1.47641,0.0882 2.21536,0.0832 0.73895,-0.005 1.55061,0.21376 2.21434,-0.1111 0.3209,-0.15707 0.56241,-0.41957 0.77825,-0.71417 -0.44519,0.005 -0.87769,-0.0446 -1.27434,-0.23254 -0.93201,-0.44154 -1.3998,-1.51705 -2.04794,-2.31924 -0.64813,-0.8022 -1.60121,-1.48529 -1.8371,-2.48925 -0.23589,-1.00396 0.31332,-2.04046 0.5364,-3.04736 0.0212,-0.0956 0.0394,-0.19285 0.0563,-0.29094 z m 18.35765,21.80917 c -0.17264,0.1034 -0.3456,0.20487 -0.52038,0.29042 -0.66374,0.32486 -1.48908,0.48024 -1.94614,1.06092 -0.45704,0.58068 -0.41428,1.42 -0.57412,2.14147 -0.15984,0.72148 -0.5535,1.46395 -0.38447,2.18333 0.16902,0.71939 0.8523,1.20907 1.31671,1.78387 0.46442,0.57481 0.79928,1.34502 1.4671,1.6614 0.66783,0.31634 1.47641,0.0882 2.21536,0.0832 0.73895,-0.005 1.55061,0.21376 2.21434,-0.1111 0.3209,-0.15707 0.56241,-0.41957 0.77825,-0.71417 -0.44519,0.005 -0.87769,-0.0446 -1.27434,-0.23254 -0.93201,-0.44154 -1.3998,-1.51705 -2.04794,-2.31924 -0.64813,-0.8022 -1.60121,-1.48529 -1.8371,-2.48925 -0.23589,-1.00396 0.31332,-2.04046 0.5364,-3.04736 0.0212,-0.0956 0.0394,-0.19285 0.0563,-0.29094 z"
         inkscape:original-d="m 102.78609,105.47257 c -0.17264,0.1034 -0.3456,0.20487 -0.52038,0.29042 -0.66374,0.32486 -1.48908,0.48024 -1.94614,1.06092 -0.457041,0.58068 -0.41428,1.42 -0.574121,2.14147 -0.159843,0.72148 -0.553496,1.46395 -0.384473,2.18333 0.169025,0.71939 0.852304,1.20907 1.316714,1.78387 0.46442,0.57481 0.79928,1.34502 1.4671,1.6614 0.66783,0.31634 1.47641,0.0882 2.21536,0.0832 0.73895,-0.005 1.55061,0.21376 2.21434,-0.1111 0.3209,-0.15707 0.56241,-0.41957 0.77825,-0.71417 -0.44519,0.005 -0.87769,-0.0446 -1.27434,-0.23254 -0.93201,-0.44154 -1.3998,-1.51705 -2.04794,-2.31924 -0.64813,-0.8022 -1.60121,-1.48529 -1.8371,-2.48925 -0.23589,-1.00396 0.31332,-2.04046 0.5364,-3.04736 0.0212,-0.0956 0.0394,-0.19285 0.0563,-0.29094 z" /><path
         id="path11896"
         style="opacity:1;fill:#ffffff;stroke-width:0.651444;stroke-linecap:round;stroke-linejoin:round"
         d="m 104.36015,114.94168 c -0.23635,0.002 -0.47975,0.0259 -0.72347,0.0481 l -0.22789,4.65915 h 1.85312 l -0.3297,-4.68033 c -0.19298,-0.015 -0.38482,-0.0281 -0.57206,-0.0269 z m 18.35765,21.80917 c -0.23635,0.002 -0.47975,0.0259 -0.72347,0.0481 l -0.22789,4.65915 h 1.85312 l -0.3297,-4.68033 c -0.19298,-0.015 -0.38482,-0.0281 -0.57206,-0.0269 z"
         inkscape:original-d="m 104.36015,114.94168 c -0.23635,0.002 -0.47975,0.0259 -0.72347,0.0481 l -0.22789,4.65915 h 1.85312 l -0.3297,-4.68033 c -0.19298,-0.015 -0.38482,-0.0281 -0.57206,-0.0269 z" /><path
         id="path11902"
         style="opacity:1;fill:#ffffff;stroke-width:3.08615;stroke-linecap:round;stroke-linejoin:round"
         d="m 115.45663,105.43278 c 0.0161,0.084 0.0329,0.16756 0.0522,0.24959 0.23589,1.00397 0.79824,2.03272 0.57516,3.03961 -0.22307,1.00689 -1.16772,1.70264 -1.80558,2.51303 -0.63786,0.81039 -1.09165,1.89169 -2.01796,2.34507 -0.39521,0.19344 -0.82796,0.24858 -1.27434,0.24908 0.23123,0.31645 0.48732,0.60129 0.8325,0.76482 0.66782,0.31634 1.47641,0.0882 2.21537,0.0832 0.73896,-0.005 1.55061,0.21376 2.21434,-0.1111 0.66374,-0.32487 0.98885,-1.09984 1.4459,-1.68052 0.45705,-0.58067 1.13363,-1.07893 1.29347,-1.8004 0.15985,-0.72148 -0.24285,-1.45879 -0.41187,-2.17817 -0.16903,-0.71939 -0.13658,-1.55891 -0.60099,-2.13372 -0.46442,-0.5748 -1.29227,-0.71973 -1.96009,-1.03611 -0.18751,-0.0888 -0.37259,-0.19627 -0.55811,-0.30437 z m 18.35765,21.80917 c 0.0161,0.084 0.0329,0.16756 0.0522,0.24959 0.23589,1.00397 0.79824,2.03272 0.57516,3.03961 -0.22307,1.00689 -1.16772,1.70264 -1.80558,2.51303 -0.63786,0.81039 -1.09165,1.89169 -2.01796,2.34507 -0.39521,0.19344 -0.82796,0.24858 -1.27434,0.24908 0.23123,0.31645 0.48732,0.60129 0.8325,0.76482 0.66782,0.31634 1.47641,0.0882 2.21537,0.0832 0.73896,-0.005 1.55061,0.21376 2.21434,-0.1111 0.66374,-0.32487 0.98885,-1.09984 1.4459,-1.68052 0.45705,-0.58067 1.13363,-1.07893 1.29347,-1.8004 0.15985,-0.72148 -0.24285,-1.45879 -0.41187,-2.17817 -0.16903,-0.71939 -0.13658,-1.55891 -0.60099,-2.13372 -0.46442,-0.5748 -1.29227,-0.71973 -1.96009,-1.03611 -0.18751,-0.0888 -0.37259,-0.19627 -0.55811,-0.30437 z"
         inkscape:original-d="m 115.45663,105.43278 c 0.0161,0.084 0.0329,0.16756 0.0522,0.24959 0.23589,1.00397 0.79824,2.03272 0.57516,3.03961 -0.22307,1.00689 -1.16772,1.70264 -1.80558,2.51303 -0.63786,0.81039 -1.09165,1.89169 -2.01796,2.34507 -0.39521,0.19344 -0.82796,0.24858 -1.27434,0.24908 0.23123,0.31645 0.48732,0.60129 0.8325,0.76482 0.66782,0.31634 1.47641,0.0882 2.21537,0.0832 0.73896,-0.005 1.55061,0.21376 2.21434,-0.1111 0.66374,-0.32487 0.98885,-1.09984 1.4459,-1.68052 0.45705,-0.58067 1.13363,-1.07893 1.29347,-1.8004 0.15985,-0.72148 -0.24285,-1.45879 -0.41187,-2.17817 -0.16903,-0.71939 -0.13658,-1.55891 -0.60099,-2.13372 -0.46442,-0.5748 -1.29227,-0.71973 -1.96009,-1.03611 -0.18751,-0.0888 -0.37259,-0.19627 -0.55811,-0.30437 z" /><path
         id="path11886"
         style="fill:#ffffff;stroke-width:4.01017;stroke-linecap:round;stroke-linejoin:round"
         d="m 113.92419,110.93994 c -0.5939,0.75454 -1.01671,1.76123 -1.87917,2.18337 -0.86246,0.42213 -1.91685,0.13845 -2.87706,0.14457 -0.9602,0.006 -2.01089,0.30321 -2.87866,-0.10789 -0.86778,-0.41111 -1.30338,-1.41233 -1.90685,-2.15924 -0.60346,-0.7469 -1.49083,-1.38312 -1.71046,-2.3179 -0.21964,-0.93477 0.29156,-1.89959 0.49926,-2.83709 0.2077,-0.9375 0.15185,-2.02795 0.74574,-2.78248 0.5939,-0.75454 1.66695,-0.95643 2.52941,-1.37856 0.86247,-0.42214 1.68019,-1.14569 2.6404,-1.15181 0.96021,-0.006 1.78709,0.70695 2.65487,1.11806 0.86777,0.41111 1.94331,0.5993 2.54678,1.34621 0.60346,0.74691 0.56151,1.83798 0.78115,2.77275 0.21963,0.93478 0.74308,1.893 0.53537,2.8305 -0.20769,0.9375 -1.08688,1.58498 -1.68078,2.33951 z m 18.35765,21.80917 c -0.5939,0.75454 -1.01671,1.76123 -1.87917,2.18337 -0.86246,0.42213 -1.91685,0.13845 -2.87706,0.14457 -0.9602,0.006 -2.01089,0.30321 -2.87866,-0.10789 -0.86778,-0.41111 -1.30338,-1.41233 -1.90685,-2.15924 -0.60346,-0.7469 -1.49083,-1.38312 -1.71046,-2.3179 -0.21964,-0.93477 0.29156,-1.89959 0.49926,-2.83709 0.2077,-0.9375 0.15185,-2.02795 0.74574,-2.78248 0.5939,-0.75454 1.66695,-0.95643 2.52941,-1.37856 0.86247,-0.42214 1.68019,-1.14569 2.6404,-1.15181 0.96021,-0.006 1.78709,0.70695 2.65487,1.11806 0.86777,0.41111 1.94331,0.5993 2.54678,1.34621 0.60346,0.74691 0.56151,1.83798 0.78115,2.77275 0.21963,0.93478 0.74308,1.893 0.53537,2.8305 -0.20769,0.9375 -1.08688,1.58498 -1.68078,2.33951 z"
         sodipodi:nodetypes="aaaaaaaaaaaaaaa"
         inkscape:original-d="m 113.92419,110.93994 c -0.5939,0.75454 -1.01671,1.76123 -1.87917,2.18337 -0.86246,0.42213 -1.91685,0.13845 -2.87706,0.14457 -0.9602,0.006 -2.01089,0.30321 -2.87866,-0.10789 -0.86778,-0.41111 -1.30338,-1.41233 -1.90685,-2.15924 -0.60346,-0.7469 -1.49083,-1.38312 -1.71046,-2.3179 -0.21964,-0.93477 0.29156,-1.89959 0.49926,-2.83709 0.2077,-0.9375 0.15185,-2.02795 0.74574,-2.78248 0.5939,-0.75454 1.66695,-0.95643 2.52941,-1.37856 0.86247,-0.42214 1.68019,-1.14569 2.6404,-1.15181 0.96021,-0.006 1.78709,0.70695 2.65487,1.11806 0.86777,0.41111 1.94331,0.5993 2.54678,1.34621 0.60346,0.74691 0.56151,1.83798 0.78115,2.77275 0.21963,0.93478 0.74308,1.893 0.53537,2.8305 -0.20769,0.9375 -1.08688,1.58498 -1.68078,2.33951 z" /><path
         id="rect11889"
         style="fill:#ffffff;stroke-width:0.846493;stroke-linecap:round;stroke-linejoin:round"
         d="m 109.16813,113.53247 c -0.30699,0.002 -0.62344,0.0332 -0.93999,0.062 l -0.29663,6.05441 h 2.40812 l -0.42839,-6.0818 c -0.25066,-0.0195 -0.49989,-0.0362 -0.74311,-0.0346 z m 18.35765,21.80917 c -0.30699,0.002 -0.62344,0.0332 -0.93999,0.062 l -0.29663,6.05441 h 2.40812 l -0.42839,-6.0818 c -0.25066,-0.0195 -0.49989,-0.0362 -0.74311,-0.0346 z"
         inkscape:original-d="m 109.16813,113.53247 c -0.30699,0.002 -0.62344,0.0332 -0.93999,0.062 l -0.29663,6.05441 h 2.40812 l -0.42839,-6.0818 c -0.25066,-0.0195 -0.49989,-0.0362 -0.74311,-0.0346 z" /></g></g></svg>
