<?xml version="1.0" encoding="UTF-8" standalone="no"?>
<!-- Created with Inkscape (http://www.inkscape.org/) -->

<svg
   width="200"
   height="200"
   viewBox="0 0 52.916667 52.916667"
   version="1.1"
   id="svg5"
   xml:space="preserve"
   inkscape:version="1.2 (dc2aedaf03, 2022-05-15)"
   sodipodi:docname="Array Tile_Arctic.svg"
   xmlns:inkscape="http://www.inkscape.org/namespaces/inkscape"
   xmlns:sodipodi="http://sodipodi.sourceforge.net/DTD/sodipodi-0.dtd"
   xmlns:xlink="http://www.w3.org/1999/xlink"
   xmlns="http://www.w3.org/2000/svg"
   xmlns:svg="http://www.w3.org/2000/svg"><sodipodi:namedview
     id="namedview7"
     pagecolor="#505050"
     bordercolor="#ffffff"
     borderopacity="1"
     inkscape:showpageshadow="0"
     inkscape:pageopacity="0"
     inkscape:pagecheckerboard="1"
     inkscape:deskcolor="#505050"
     inkscape:document-units="mm"
     showgrid="false"
     showguides="false"
     inkscape:zoom="1.2"
     inkscape:cx="-53.333333"
     inkscape:cy="58.333333"
     inkscape:window-width="1366"
     inkscape:window-height="705"
     inkscape:window-x="-8"
     inkscape:window-y="-8"
     inkscape:window-maximized="1"
     inkscape:current-layer="medieval_fantasy" /><defs
     id="defs2"><inkscape:path-effect
       effect="tiling"
       id="path-effect4499"
       is_visible="true"
       lpeversion="1"
       unit="px"
       seed="1;1"
       lpesatellites=""
       num_rows="2"
       num_cols="1"
       gapx="25"
       gapy="350"
       offset="84"
       offset_type="false"
       scale="0"
       rotate="0"
       mirrorrowsx="false"
       mirrorrowsy="false"
       mirrorcolsx="false"
       mirrorcolsy="false"
       mirrortrans="false"
       shrink_interp="false"
       split_items="false"
       link_styles="false"
       interpolate_scalex="false"
       interpolate_scaley="true"
       interpolate_rotatex="false"
       interpolate_rotatey="true"
       random_scale="false"
       random_rotate="false"
       random_gap_y="false"
       random_gap_x="false"
       transformorigin="matrix(1.1657208,0,0,1.1657208,74.055408,-8.7162873)" /><inkscape:path-effect
       effect="tiling"
       id="path-effect8800"
       is_visible="true"
       lpeversion="1"
       unit="px"
       seed="1;1"
       lpesatellites=""
       num_rows="5"
       num_cols="4"
       gapx="36"
       gapy="36"
       offset="-48"
       offset_type="false"
       scale="0"
       rotate="0"
       mirrorrowsx="false"
       mirrorrowsy="false"
       mirrorcolsx="false"
       mirrorcolsy="false"
       mirrortrans="false"
       shrink_interp="false"
       split_items="false"
       link_styles="false"
       interpolate_scalex="false"
       interpolate_scaley="true"
       interpolate_rotatex="false"
       interpolate_rotatey="true"
       random_scale="false"
       random_rotate="false"
       random_gap_y="false"
       random_gap_x="false"
       transformorigin="" /><inkscape:path-effect
       effect="fillet_chamfer"
       id="path-effect5709"
       is_visible="true"
       lpeversion="1"
       nodesatellites_param="F,0,0,1,0,0,0,1 @ F,0,0,1,0,0,0,1 @ F,0,0,1,0,0,0,1 @ F,0,0,1,0,0,0,1 @ F,0,0,1,0,0,0,1 @ F,0,0,1,0,0.4581543,0,1 @ F,0,0,1,0,0,0,1 @ F,0,0,1,0,0,0,1 @ F,0,0,1,0,0,0,1 @ F,0,0,1,0,0,0,1 @ F,0,0,1,0,0.53049445,0,1 @ F,0,0,1,0,0,0,1 @ F,0,0,1,0,0,0,1 @ F,0,0,1,0,0,0,1 @ F,0,0,1,0,0,0,1 | F,0,0,1,0,0,0,1 @ F,0,0,1,0,0,0,1 @ F,0,0,1,0,0,0,1 @ F,0,0,1,0,0,0,1 @ F,0,0,1,0,0,0,1 @ F,0,0,1,0,0,0,1 @ F,0,0,1,0,0,0,1 @ F,0,0,1,0,0,0,1"
       unit="px"
       method="auto"
       mode="F"
       radius="0"
       chamfer_steps="1"
       flexible="false"
       use_knot_distance="true"
       apply_no_radius="true"
       apply_with_radius="true"
       only_selected="false"
       hide_knots="false" /><inkscape:path-effect
       effect="fillet_chamfer"
       id="path-effect2137"
       is_visible="true"
       lpeversion="1"
       nodesatellites_param="F,0,0,1,0,8,0,1 @ F,0,0,1,0,0,0,1 @ F,0,0,1,0,0,0,1 @ F,0,0,1,0,0,0,1 @ F,0,0,1,0,8,0,1 @ F,0,0,1,0,0,0,1 @ F,0,0,1,0,0,0,1 @ F,0,0,1,0,0,0,1 @ F,0,0,1,0,0,0,1 @ F,0,0,1,0,0,0,1"
       unit="px"
       method="auto"
       mode="F"
       radius="0"
       chamfer_steps="1"
       flexible="false"
       use_knot_distance="true"
       apply_no_radius="true"
       apply_with_radius="true"
       only_selected="false"
       hide_knots="false" /><inkscape:path-effect
       effect="mirror_symmetry"
       start_point="4.5560511,145.07496"
       end_point="-20.970424,169.23206"
       center_point="-8.2071863,157.15351"
       id="path-effect2078"
       is_visible="true"
       lpeversion="1.2"
       lpesatellites=""
       mode="vertical"
       discard_orig_path="false"
       fuse_paths="true"
       oposite_fuse="false"
       split_items="false"
       split_open="false"
       link_styles="false" /><inkscape:path-effect
       effect="fillet_chamfer"
       id="path-effect1953"
       is_visible="true"
       lpeversion="1"
       nodesatellites_param="F,0,0,1,0,0,0,1 @ F,0,0,1,0,0,0,1 @ F,0,0,1,0,0.68058242,0,1"
       unit="px"
       method="auto"
       mode="F"
       radius="0"
       chamfer_steps="1"
       flexible="false"
       use_knot_distance="true"
       apply_no_radius="true"
       apply_with_radius="true"
       only_selected="false"
       hide_knots="false" /><inkscape:path-effect
       effect="fillet_chamfer"
       id="path-effect1885"
       is_visible="true"
       lpeversion="1"
       nodesatellites_param="F,0,0,1,0,0.025729922,0,1 @ F,0,0,1,0,0,0,1 @ F,0,0,1,0,0.84764408,0,1 @ F,0,0,1,0,0.9288475,0,1"
       unit="px"
       method="auto"
       mode="F"
       radius="0"
       chamfer_steps="1"
       flexible="false"
       use_knot_distance="true"
       apply_no_radius="true"
       apply_with_radius="true"
       only_selected="false"
       hide_knots="false" /><inkscape:path-effect
       effect="mirror_symmetry"
       start_point="173.94468,87.823316"
       end_point="173.94468,111.88232"
       center_point="173.94468,99.852816"
       id="path-effect1828"
       is_visible="true"
       lpeversion="1.2"
       lpesatellites=""
       mode="vertical"
       discard_orig_path="false"
       fuse_paths="true"
       oposite_fuse="false"
       split_items="false"
       split_open="false"
       link_styles="false" /><inkscape:path-effect
       effect="fillet_chamfer"
       id="path-effect1818"
       is_visible="true"
       lpeversion="1"
       nodesatellites_param="F,0,0,1,0,0,0,1 @ F,0,0,1,0,2.6241049,0,1 @ F,0,0,1,0,0,0,1 @ F,0,0,1,0,1.443101,0,1 @ F,0,0,1,0,0,0,1 @ F,0,0,1,0,0,0,1 @ F,0,0,1,0,0.7857946,0,1 @ F,0,0,1,0,0,0,1 @ F,0,0,1,0,0,0,1 @ F,0,0,1,0,0,0,1"
       unit="px"
       method="auto"
       mode="F"
       radius="0"
       chamfer_steps="1"
       flexible="false"
       use_knot_distance="true"
       apply_no_radius="true"
       apply_with_radius="true"
       only_selected="false"
       hide_knots="false" /><inkscape:path-effect
       effect="mirror_symmetry"
       start_point="109.86484,87.18808"
       end_point="109.86484,140.10475"
       center_point="109.86484,113.64641"
       id="path-effect1649"
       is_visible="true"
       lpeversion="1.2"
       lpesatellites=""
       mode="vertical"
       discard_orig_path="false"
       fuse_paths="false"
       oposite_fuse="false"
       split_items="false"
       split_open="false"
       link_styles="false" /><style
       id="style6175">.cls-1{fill:url(#linear-gradient);}.cls-2{fill:#ba2e7e;}.cls-3{fill:url(#linear-gradient-2);}.cls-4{fill:#ffcd05;}.cls-5{fill:#fabc2e;}.cls-6,.cls-7{fill-opacity:0.5;}.cls-6{fill:url(#radial-gradient);}.cls-7{fill:url(#radial-gradient-2);}.cls-8{fill:#9a1c25;}.cls-9{fill:#fff;}.cls-10{fill:#32160f;}.cls-11,.cls-13{fill:#61727c;}.cls-12{fill:#92a1ad;}.cls-13{opacity:0.25;}.cls-14{fill:#bc6234;}.cls-15{fill:#f6871f;}.cls-16{fill:#9e1f63;}.cls-17{fill:#f4fbfe;}</style><linearGradient
       id="linear-gradient"
       x1="150"
       y1="356.10999"
       x2="150"
       y2="202.58"
       gradientUnits="userSpaceOnUse"><stop
         offset="0"
         stop-color="#9e1f63"
         id="stop6177" /><stop
         offset="0.34"
         stop-color="#531137"
         id="stop6179" /></linearGradient><linearGradient
       id="linear-gradient-2"
       x1="150"
       y1="339.51001"
       x2="150"
       y2="252.92"
       gradientUnits="userSpaceOnUse"><stop
         offset="0"
         stop-color="#fabc2e"
         id="stop6182" /><stop
         offset="1"
         stop-color="#cd8029"
         id="stop6184" /></linearGradient><radialGradient
       id="radial-gradient"
       cx="257.16"
       cy="256.04999"
       r="41.849998"
       gradientUnits="userSpaceOnUse"><stop
         offset="0"
         stop-color="#ec008c"
         id="stop6187" /><stop
         offset="1"
         stop-color="#ffcd05"
         stop-opacity="0"
         id="stop6189" /></radialGradient><radialGradient
       id="radial-gradient-2"
       cx="42.84"
       cy="256.04999"
       r="41.849998"
       xlink:href="#radial-gradient" /></defs><g
     inkscape:label="Layer 1"
     inkscape:groupmode="layer"
     id="layer1"
     transform="translate(-96.02888,-99.990732)"><g
       id="medieval_fantasy"
       data-name="medieval fantasy"
       transform="matrix(0.08000732,0,0,0.08000732,132.93495,96.913845)"><g
         id="g8819"
         transform="matrix(1.1657208,0,0,1.1657208,71.880151,-8.1367805)"
         inkscape:path-effect="#path-effect4499"
         class="UnoptimicedTransforms"><path
           id="rect8689"
           clip-path="none"
           style="opacity:1;fill:#ffffff;fill-opacity:1;stroke:none;stroke-width:26.1412;stroke-linecap:round;stroke-linejoin:round;stroke-dasharray:none;stroke-opacity:1"
           d="m -292.81369,104.15168 c -1.53538,0 -3.00033,0.30602 -4.3275,0.8655 -1.32718,0.55949 -2.51826,1.36857 -3.52014,2.37044 -1.00187,1.00188 -1.81095,2.19942 -2.37044,3.5266 -0.55948,1.32717 -0.87196,2.78566 -0.87196,4.32104 v 22.17362 c 0,1.53539 0.31248,2.99387 0.87196,4.32105 0.55949,1.32718 1.36857,2.52471 2.37044,3.52659 1.00188,1.00188 2.19296,1.81096 3.52014,2.37044 1.32717,0.55949 2.79212,0.8655 4.3275,0.8655 h 65.0353 c 1.53538,0 2.99387,-0.30601 4.32105,-0.8655 1.32717,-0.55948 2.52471,-1.36856 3.52659,-2.37044 1.00188,-1.00188 1.81096,-2.19941 2.37044,-3.52659 0.55949,-1.32718 0.8655,-2.78566 0.8655,-4.32105 v -22.17362 c 0,-1.53538 -0.30601,-2.99387 -0.8655,-4.32104 -0.55948,-1.32718 -1.36856,-2.52472 -2.37044,-3.5266 -1.00188,-1.00187 -2.19942,-1.81095 -3.52659,-2.37044 -1.32718,-0.55948 -2.78567,-0.8655 -4.32105,-0.8655 z m 248.752403,310.78009 c -1.53538,0 -3.00033,0.30602 -4.3275,0.8655 -1.32718,0.55949 -2.51826,1.36857 -3.52014,2.37044 -1.00187,1.00188 -1.81095,2.19942 -2.37044,3.5266 -0.55948,1.32717 -0.87196,2.78566 -0.87196,4.32104 v 22.17362 c 0,1.53539 0.31248,2.99387 0.87196,4.32105 0.55949,1.32718 1.36857,2.52471 2.37044,3.52659 1.00188,1.00188 2.19296,1.81096 3.52014,2.37044 1.32717,0.55949 2.79212,0.8655 4.3275,0.8655 h 65.0353 c 1.53538,0 2.99387,-0.30601 4.32105,-0.8655 1.32717,-0.55948 2.52471,-1.36856 3.52659,-2.37044 1.00188,-1.00188 1.81096,-2.19941 2.37044,-3.52659 0.55949,-1.32718 0.8655,-2.78566 0.8655,-4.32105 v -22.17362 c 0,-1.53538 -0.30601,-2.99387 -0.8655,-4.32104 -0.55948,-1.32718 -1.36856,-2.52472 -2.37044,-3.5266 -1.00188,-1.00187 -2.19942,-1.81095 -3.52659,-2.37044 -1.32718,-0.55948 -2.78567,-0.8655 -4.32105,-0.8655 z"
           inkscape:original-d="m -292.81369,104.15168 c -1.53538,0 -3.00033,0.30602 -4.3275,0.8655 -1.32718,0.55949 -2.51826,1.36857 -3.52014,2.37044 -1.00187,1.00188 -1.81095,2.19942 -2.37044,3.5266 -0.55948,1.32717 -0.87196,2.78566 -0.87196,4.32104 v 22.17362 c 0,1.53539 0.31248,2.99387 0.87196,4.32105 0.55949,1.32718 1.36857,2.52471 2.37044,3.52659 1.00188,1.00188 2.19296,1.81096 3.52014,2.37044 1.32717,0.55949 2.79212,0.8655 4.3275,0.8655 h 65.0353 c 1.53538,0 2.99387,-0.30601 4.32105,-0.8655 1.32717,-0.55948 2.52471,-1.36856 3.52659,-2.37044 1.00188,-1.00188 1.81096,-2.19941 2.37044,-3.52659 0.55949,-1.32718 0.8655,-2.78566 0.8655,-4.32105 v -22.17362 c 0,-1.53538 -0.30601,-2.99387 -0.8655,-4.32104 -0.55948,-1.32718 -1.36856,-2.52472 -2.37044,-3.5266 -1.00188,-1.00187 -2.19942,-1.81095 -3.52659,-2.37044 -1.32718,-0.55948 -2.78567,-0.8655 -4.32105,-0.8655 z" /><path
           id="path349"
           clip-path="none"
           style="opacity:1;fill:#ffffff;fill-opacity:1;stroke:none;stroke-width:26.1412;stroke-linecap:round;stroke-linejoin:round;stroke-dasharray:none;stroke-opacity:1"
           d="m -389.54958,104.15168 c -1.53538,0 -2.99387,0.30602 -4.32104,0.8655 -1.32718,0.55949 -2.52472,1.36857 -3.5266,2.37044 -1.00188,1.00188 -1.81095,2.19942 -2.37044,3.5266 -0.55948,1.32717 -0.8655,2.78566 -0.8655,4.32104 v 22.17362 c 0,1.53539 0.30602,2.99387 0.8655,4.32105 0.55949,1.32718 1.36856,2.52471 2.37044,3.52659 1.00188,1.00188 2.19942,1.81096 3.5266,2.37044 1.32717,0.55949 2.78566,0.8655 4.32104,0.8655 h 65.0353 c 1.53538,0 2.99387,-0.30601 4.32105,-0.8655 1.32717,-0.55948 2.52471,-1.36856 3.52659,-2.37044 1.00188,-1.00188 1.81096,-2.19941 2.37044,-3.52659 0.55949,-1.32718 0.87196,-2.78566 0.87196,-4.32105 v -22.17362 c 0,-1.53538 -0.31247,-2.99387 -0.87196,-4.32104 -0.55948,-1.32718 -1.36856,-2.52472 -2.37044,-3.5266 -1.00188,-1.00187 -2.19942,-1.81095 -3.52659,-2.37044 -1.32718,-0.55948 -2.78567,-0.8655 -4.32105,-0.8655 z m 248.7524,310.78009 c -1.53538,0 -2.99387,0.30602 -4.32104,0.8655 -1.32718,0.55949 -2.52472,1.36857 -3.5266,2.37044 -1.00188,1.00188 -1.81095,2.19942 -2.37044,3.5266 -0.55948,1.32717 -0.8655,2.78566 -0.8655,4.32104 v 22.17362 c 0,1.53539 0.30602,2.99387 0.8655,4.32105 0.55949,1.32718 1.36856,2.52471 2.37044,3.52659 1.00188,1.00188 2.19942,1.81096 3.5266,2.37044 1.32717,0.55949 2.78566,0.8655 4.32104,0.8655 h 65.035303 c 1.53538,0 2.99387,-0.30601 4.32105,-0.8655 1.32717,-0.55948 2.52471,-1.36856 3.52659,-2.37044 1.00188,-1.00188 1.81096,-2.19941 2.37044,-3.52659 0.55949,-1.32718 0.87196,-2.78566 0.87196,-4.32105 v -22.17362 c 0,-1.53538 -0.31247,-2.99387 -0.87196,-4.32104 -0.55948,-1.32718 -1.36856,-2.52472 -2.37044,-3.5266 -1.00188,-1.00187 -2.19942,-1.81095 -3.52659,-2.37044 -1.32718,-0.55948 -2.78567,-0.8655 -4.32105,-0.8655 z"
           inkscape:original-d="m -389.54958,104.15168 c -1.53538,0 -2.99387,0.30602 -4.32104,0.8655 -1.32718,0.55949 -2.52472,1.36857 -3.5266,2.37044 -1.00188,1.00188 -1.81095,2.19942 -2.37044,3.5266 -0.55948,1.32717 -0.8655,2.78566 -0.8655,4.32104 v 22.17362 c 0,1.53539 0.30602,2.99387 0.8655,4.32105 0.55949,1.32718 1.36856,2.52471 2.37044,3.52659 1.00188,1.00188 2.19942,1.81096 3.5266,2.37044 1.32717,0.55949 2.78566,0.8655 4.32104,0.8655 h 65.0353 c 1.53538,0 2.99387,-0.30601 4.32105,-0.8655 1.32717,-0.55948 2.52471,-1.36856 3.52659,-2.37044 1.00188,-1.00188 1.81096,-2.19941 2.37044,-3.52659 0.55949,-1.32718 0.87196,-2.78566 0.87196,-4.32105 v -22.17362 c 0,-1.53538 -0.31247,-2.99387 -0.87196,-4.32104 -0.55948,-1.32718 -1.36856,-2.52472 -2.37044,-3.5266 -1.00188,-1.00187 -2.19942,-1.81095 -3.52659,-2.37044 -1.32718,-0.55948 -2.78567,-0.8655 -4.32105,-0.8655 z" /><path
           id="path347"
           clip-path="none"
           style="opacity:1;fill:#ffffff;fill-opacity:1;stroke:none;stroke-width:26.1412;stroke-linecap:round;stroke-linejoin:round;stroke-dasharray:none;stroke-opacity:1"
           d="m -432.17873,148.49246 h 10.93502 c 1.53538,0 2.99387,-0.30601 4.32105,-0.8655 1.32717,-0.55948 2.51825,-1.36856 3.52013,-2.37044 1.00188,-1.00188 1.81096,-2.19941 2.37044,-3.52659 0.55949,-1.32718 0.87196,-2.78566 0.87196,-4.32105 v -22.17362 c 0,-1.53538 -0.31247,-2.99387 -0.87196,-4.32104 -0.041,-0.0974 -0.13068,-0.16246 -0.17439,-0.25836 -8.55424,11.40077 -15.66001,24.10255 -20.97225,37.8366 z m 248.7524,310.78009 h 10.93502 c 1.53538,0 2.99387,-0.30601 4.32105,-0.8655 1.32717,-0.55948 2.51825,-1.36856 3.52013,-2.37044 1.00188,-1.00188 1.81096,-2.19941 2.37044,-3.52659 0.55949,-1.32718 0.87196,-2.78566 0.87196,-4.32105 v -22.17362 c 0,-1.53538 -0.31247,-2.99387 -0.87196,-4.32104 -0.041,-0.0974 -0.13068,-0.16246 -0.17439,-0.25836 -8.55424,11.40077 -15.66001,24.10255 -20.97225,37.8366 z"
           inkscape:original-d="m -432.17873,148.49246 h 10.93502 c 1.53538,0 2.99387,-0.30601 4.32105,-0.8655 1.32717,-0.55948 2.51825,-1.36856 3.52013,-2.37044 1.00188,-1.00188 1.81096,-2.19941 2.37044,-3.52659 0.55949,-1.32718 0.87196,-2.78566 0.87196,-4.32105 v -22.17362 c 0,-1.53538 -0.31247,-2.99387 -0.87196,-4.32104 -0.041,-0.0974 -0.13068,-0.16246 -0.17439,-0.25836 -8.55424,11.40077 -15.66001,24.10255 -20.97225,37.8366 z" /><path
           id="path345"
           clip-path="none"
           style="opacity:1;fill:#ffffff;fill-opacity:1;stroke:none;stroke-width:26.1412;stroke-linecap:round;stroke-linejoin:round;stroke-dasharray:none;stroke-opacity:1"
           d="m -442.97166,201.7337 c 1.00855,0.30017 2.01106,0.62651 3.11968,0.62651 h 65.0353 c 1.53538,0 3.00033,-0.30601 4.3275,-0.8655 1.32718,-0.55948 2.51826,-1.36856 3.52014,-2.37044 1.00188,-1.00187 1.81095,-2.19941 2.37044,-3.52659 0.55948,-1.32718 0.87196,-2.78566 0.87196,-4.32105 v -22.17362 c 0,-1.53538 -0.31248,-2.99387 -0.87196,-4.32104 -0.55949,-1.32718 -1.36856,-2.51826 -2.37044,-3.52014 -1.00188,-1.00188 -2.19296,-1.81741 -3.52014,-2.3769 -1.32717,-0.55948 -2.79212,-0.8655 -4.3275,-0.8655 h -60.59799 c -4.3749,13.79552 -6.9509,28.45567 -7.55699,43.71427 z m 248.7524,310.78009 c 1.00855,0.30017 2.01106,0.62651 3.11968,0.62651 h 65.0353 c 1.53538,0 3.00033,-0.30601 4.3275,-0.8655 1.32718,-0.55948 2.51826,-1.36856 3.52014,-2.37044 1.00188,-1.00187 1.81095,-2.19941 2.37044,-3.52659 0.55948,-1.32718 0.87196,-2.78566 0.87196,-4.32105 V 479.8831 c 0,-1.53538 -0.31248,-2.99387 -0.87196,-4.32104 -0.55949,-1.32718 -1.36856,-2.51826 -2.37044,-3.52014 -1.00188,-1.00188 -2.19296,-1.81741 -3.52014,-2.3769 -1.32717,-0.55948 -2.79212,-0.8655 -4.3275,-0.8655 h -60.59799 c -4.3749,13.79552 -6.9509,28.45567 -7.55699,43.71427 z"
           inkscape:original-d="m -442.97166,201.7337 c 1.00855,0.30017 2.01106,0.62651 3.11968,0.62651 h 65.0353 c 1.53538,0 3.00033,-0.30601 4.3275,-0.8655 1.32718,-0.55948 2.51826,-1.36856 3.52014,-2.37044 1.00188,-1.00187 1.81095,-2.19941 2.37044,-3.52659 0.55948,-1.32718 0.87196,-2.78566 0.87196,-4.32105 v -22.17362 c 0,-1.53538 -0.31248,-2.99387 -0.87196,-4.32104 -0.55949,-1.32718 -1.36856,-2.51826 -2.37044,-3.52014 -1.00188,-1.00188 -2.19296,-1.81741 -3.52014,-2.3769 -1.32717,-0.55948 -2.79212,-0.8655 -4.3275,-0.8655 h -60.59799 c -4.3749,13.79552 -6.9509,28.45567 -7.55699,43.71427 z" /><path
           id="path343"
           clip-path="none"
           style="opacity:1;fill:#ffffff;fill-opacity:1;stroke:none;stroke-width:26.1412;stroke-linecap:round;stroke-linejoin:round;stroke-dasharray:none;stroke-opacity:1"
           d="m -443.28815,256.22797 h 22.04444 c 1.53538,0 2.99387,-0.30602 4.32105,-0.8655 1.32717,-0.55949 2.51825,-1.36857 3.52013,-2.37044 1.00188,-1.00188 1.81096,-2.19942 2.37044,-3.5266 0.55949,-1.32717 0.87196,-2.78566 0.87196,-4.32104 v -22.17362 c 0,-1.53539 -0.31247,-2.99387 -0.87196,-4.32105 -0.55948,-1.32718 -1.36856,-2.51826 -2.37044,-3.52014 -1.00188,-1.00187 -2.19296,-1.81741 -3.52013,-2.37689 -1.32718,-0.55949 -2.78567,-0.8655 -4.32105,-0.8655 h -22.04444 z m 248.7524,310.78009 h 22.04444 c 1.53538,0 2.99387,-0.30602 4.32105,-0.8655 1.32717,-0.55949 2.51825,-1.36857 3.52013,-2.37044 1.00188,-1.00188 1.81096,-2.19942 2.37044,-3.5266 0.55949,-1.32717 0.87196,-2.78566 0.87196,-4.32104 v -22.17362 c 0,-1.53539 -0.31247,-2.99387 -0.87196,-4.32105 -0.55948,-1.32718 -1.36856,-2.51826 -2.37044,-3.52014 -1.00188,-1.00187 -2.19296,-1.81741 -3.52013,-2.37689 -1.32718,-0.55949 -2.78567,-0.8655 -4.32105,-0.8655 h -22.04444 z"
           inkscape:original-d="m -443.28815,256.22797 h 22.04444 c 1.53538,0 2.99387,-0.30602 4.32105,-0.8655 1.32717,-0.55949 2.51825,-1.36857 3.52013,-2.37044 1.00188,-1.00188 1.81096,-2.19942 2.37044,-3.5266 0.55949,-1.32717 0.87196,-2.78566 0.87196,-4.32104 v -22.17362 c 0,-1.53539 -0.31247,-2.99387 -0.87196,-4.32105 -0.55948,-1.32718 -1.36856,-2.51826 -2.37044,-3.52014 -1.00188,-1.00187 -2.19296,-1.81741 -3.52013,-2.37689 -1.32718,-0.55949 -2.78567,-0.8655 -4.32105,-0.8655 h -22.04444 z" /><path
           id="path341"
           clip-path="none"
           style="opacity:1;fill:#ffffff;fill-opacity:1;stroke:none;stroke-width:26.1412;stroke-linecap:round;stroke-linejoin:round;stroke-dasharray:none;stroke-opacity:1"
           d="m -368.01539,268.29331 c -0.78091,-0.62064 -1.54067,-1.27951 -2.47379,-1.67287 -1.32717,-0.55949 -2.79212,-0.8655 -4.3275,-0.8655 h -65.0353 c -1.22116,0 -2.33914,0.32961 -3.43617,0.69111 v 9.37841 c 0,2.73948 0.24587,5.40854 0.37462,8.11246 h 75.05961 c -0.0643,-1.1489 -0.16147,-2.28866 -0.16147,-3.45555 z m 248.7524,310.78009 c -0.78091,-0.62064 -1.54067,-1.27951 -2.47379,-1.67287 -1.32717,-0.55949 -2.79212,-0.8655 -4.3275,-0.8655 h -65.0353 c -1.22116,0 -2.33914,0.32961 -3.43617,0.69111 v 9.37841 c 0,2.73948 0.24587,5.40854 0.37462,8.11246 h 75.05961 c -0.0643,-1.1489 -0.16147,-2.28866 -0.16147,-3.45555 z"
           inkscape:original-d="m -368.01539,268.29331 c -0.78091,-0.62064 -1.54067,-1.27951 -2.47379,-1.67287 -1.32717,-0.55949 -2.79212,-0.8655 -4.3275,-0.8655 h -65.0353 c -1.22116,0 -2.33914,0.32961 -3.43617,0.69111 v 9.37841 c 0,2.73948 0.24587,5.40854 0.37462,8.11246 h 75.05961 c -0.0643,-1.1489 -0.16147,-2.28866 -0.16147,-3.45555 z" /><path
           id="path339"
           clip-path="none"
           style="opacity:1;fill:#ffffff;fill-opacity:1;stroke:none;stroke-width:26.1412;stroke-linecap:round;stroke-linejoin:round;stroke-dasharray:none;stroke-opacity:1"
           d="m -359.42497,211.88719 h -30.12461 c -1.53538,0 -2.99387,0.30601 -4.32104,0.8655 -1.32718,0.55948 -2.52472,1.37502 -3.5266,2.37689 -1.00188,1.00188 -1.81095,2.19296 -2.37044,3.52014 -0.55948,1.32718 -0.8655,2.78566 -0.8655,4.32105 v 22.17362 c 0,1.53538 0.30602,2.99387 0.8655,4.32104 0.55949,1.32718 1.36856,2.52472 2.37044,3.5266 1.00188,1.00187 2.19942,1.81095 3.5266,2.37044 1.32717,0.55948 2.78566,0.8655 4.32104,0.8655 h 21.53419 v -8.17705 c 0,-13.13134 3.11806,-25.44719 8.59042,-36.16373 z m 248.7524,310.78009 h -30.12461 c -1.53538,0 -2.99387,0.30601 -4.32104,0.8655 -1.32718,0.55948 -2.52472,1.37502 -3.5266,2.37689 -1.00188,1.00188 -1.81095,2.19296 -2.37044,3.52014 -0.55948,1.32718 -0.8655,2.78566 -0.8655,4.32105 v 22.17362 c 0,1.53538 0.30602,2.99387 0.8655,4.32104 0.55949,1.32718 1.36856,2.52472 2.37044,3.5266 1.00188,1.00187 2.19942,1.81095 3.5266,2.37044 1.32717,0.55948 2.78566,0.8655 4.32104,0.8655 h 21.53419 v -8.17705 c 0,-13.13134 3.11806,-25.44719 8.59042,-36.16373 z"
           inkscape:original-d="m -359.42497,211.88719 h -30.12461 c -1.53538,0 -2.99387,0.30601 -4.32104,0.8655 -1.32718,0.55948 -2.52472,1.37502 -3.5266,2.37689 -1.00188,1.00188 -1.81095,2.19296 -2.37044,3.52014 -0.55948,1.32718 -0.8655,2.78566 -0.8655,4.32105 v 22.17362 c 0,1.53538 0.30602,2.99387 0.8655,4.32104 0.55949,1.32718 1.36856,2.52472 2.37044,3.5266 1.00188,1.00187 2.19942,1.81095 3.5266,2.37044 1.32717,0.55948 2.78566,0.8655 4.32104,0.8655 h 21.53419 v -8.17705 c 0,-13.13134 3.11806,-25.44719 8.59042,-36.16373 z" /><path
           id="path337"
           clip-path="none"
           style="opacity:1;fill:#ffffff;fill-opacity:1;stroke:none;stroke-width:26.1412;stroke-linecap:round;stroke-linejoin:round;stroke-dasharray:none;stroke-opacity:1"
           d="m -266.99721,180.79374 v -11.69073 c 0,-1.53538 -0.30602,-2.99387 -0.8655,-4.32104 -0.55949,-1.32718 -1.36856,-2.51826 -2.37044,-3.52014 -1.00188,-1.00188 -2.19942,-1.81741 -3.5266,-2.3769 -1.32717,-0.55948 -2.78566,-0.8655 -4.32104,-0.8655 h -65.0353 c -1.53538,0 -3.00033,0.30602 -4.32751,0.8655 -1.32717,0.55949 -2.51825,1.37502 -3.52013,2.3769 -1.00188,1.00188 -1.81096,2.19296 -2.37044,3.52014 -0.55949,1.32717 -0.87196,2.78566 -0.87196,4.32104 v 22.17362 c 0,1.53539 0.31247,2.99387 0.87196,4.32105 0.54038,1.28186 1.33799,2.42361 2.29293,3.40387 12.80793,-15.94213 31.73569,-26.04253 52.97642,-26.04253 11.18742,0 21.70776,2.86373 31.06761,7.83472 z M -18.244807,491.57383 V 479.8831 c 0,-1.53538 -0.30602,-2.99387 -0.8655,-4.32104 -0.55949,-1.32718 -1.36856,-2.51826 -2.37044,-3.52014 -1.00188,-1.00188 -2.19942,-1.81741 -3.5266,-2.3769 -1.32717,-0.55948 -2.78566,-0.8655 -4.32104,-0.8655 h -65.0353 c -1.53538,0 -3.00033,0.30602 -4.32751,0.8655 -1.327173,0.55949 -2.518253,1.37502 -3.520133,2.3769 -1.00188,1.00188 -1.81096,2.19296 -2.37044,3.52014 -0.55949,1.32717 -0.87196,2.78566 -0.87196,4.32104 v 22.17362 c 0,1.53539 0.31247,2.99387 0.87196,4.32105 0.54038,1.28186 1.33799,2.42361 2.29293,3.40387 12.807933,-15.94213 31.735693,-26.04253 52.976423,-26.04253 11.18742,0 21.70776,2.86373 31.06761,7.83472 z"
           inkscape:original-d="m -266.99721,180.79374 v -11.69073 c 0,-1.53538 -0.30602,-2.99387 -0.8655,-4.32104 -0.55949,-1.32718 -1.36856,-2.51826 -2.37044,-3.52014 -1.00188,-1.00188 -2.19942,-1.81741 -3.5266,-2.3769 -1.32717,-0.55948 -2.78566,-0.8655 -4.32104,-0.8655 h -65.0353 c -1.53538,0 -3.00033,0.30602 -4.32751,0.8655 -1.32717,0.55949 -2.51825,1.37502 -3.52013,2.3769 -1.00188,1.00188 -1.81096,2.19296 -2.37044,3.52014 -0.55949,1.32717 -0.87196,2.78566 -0.87196,4.32104 v 22.17362 c 0,1.53539 0.31247,2.99387 0.87196,4.32105 0.54038,1.28186 1.33799,2.42361 2.29293,3.40387 12.80793,-15.94213 31.73569,-26.04253 52.97642,-26.04253 11.18742,0 21.70776,2.86373 31.06761,7.83472 z" /><path
           id="path335"
           clip-path="none"
           style="opacity:1;fill:#ffffff;fill-opacity:1;stroke:none;stroke-width:26.1412;stroke-linecap:round;stroke-linejoin:round;stroke-dasharray:none;stroke-opacity:1"
           d="m -242.56296,202.36021 h 61.21806 c 1.53538,0 2.99387,-0.30601 4.32104,-0.8655 1.32718,-0.55948 2.51826,-1.36856 3.52014,-2.37044 1.00188,-1.00187 1.81095,-2.19941 2.37044,-3.52659 0.55948,-1.32718 0.87196,-2.78566 0.87196,-4.32105 v -22.17362 c 0,-1.53538 -0.31248,-2.99387 -0.87196,-4.32104 -0.55949,-1.32718 -1.36856,-2.51826 -2.37044,-3.52014 -1.00188,-1.00188 -2.19296,-1.81741 -3.52014,-2.3769 -1.32717,-0.55948 -2.78566,-0.8655 -4.32104,-0.8655 h -65.04176 c -1.53538,0 -2.99387,0.30602 -4.32105,0.8655 -1.32717,0.55949 -2.51826,1.37502 -3.52013,2.3769 -1.00188,1.00188 -1.81742,2.19296 -2.3769,3.52014 -0.55949,1.32717 -0.8655,2.78566 -0.8655,4.32104 V 186.891 c 5.66632,4.33224 10.67855,9.54997 14.90728,15.46921 z M 6.1894431,513.1403 H 67.407503 c 1.53538,0 2.99387,-0.30601 4.32104,-0.8655 1.32718,-0.55948 2.51826,-1.36856 3.52014,-2.37044 1.00188,-1.00187 1.81095,-2.19941 2.37044,-3.52659 0.55948,-1.32718 0.87196,-2.78566 0.87196,-4.32105 V 479.8831 c 0,-1.53538 -0.31248,-2.99387 -0.87196,-4.32104 -0.55949,-1.32718 -1.36856,-2.51826 -2.37044,-3.52014 -1.00188,-1.00188 -2.19296,-1.81741 -3.52014,-2.3769 -1.32717,-0.55948 -2.78566,-0.8655 -4.32104,-0.8655 H 2.3657431 c -1.53538,0 -2.99387,0.30602 -4.32105,0.8655 -1.32717,0.55949 -2.51826,1.37502 -3.52013,2.3769 -1.00188,1.00188 -1.81742,2.19296 -2.3769,3.52014 -0.55949,1.32717 -0.8655,2.78566 -0.8655,4.32104 v 17.78799 c 5.66632,4.33224 10.67855,9.54997 14.90728,15.46921 z"
           inkscape:original-d="m -242.56296,202.36021 h 61.21806 c 1.53538,0 2.99387,-0.30601 4.32104,-0.8655 1.32718,-0.55948 2.51826,-1.36856 3.52014,-2.37044 1.00188,-1.00187 1.81095,-2.19941 2.37044,-3.52659 0.55948,-1.32718 0.87196,-2.78566 0.87196,-4.32105 v -22.17362 c 0,-1.53538 -0.31248,-2.99387 -0.87196,-4.32104 -0.55949,-1.32718 -1.36856,-2.51826 -2.37044,-3.52014 -1.00188,-1.00188 -2.19296,-1.81741 -3.52014,-2.3769 -1.32717,-0.55948 -2.78566,-0.8655 -4.32104,-0.8655 h -65.04176 c -1.53538,0 -2.99387,0.30602 -4.32105,0.8655 -1.32717,0.55949 -2.51826,1.37502 -3.52013,2.3769 -1.00188,1.00188 -1.81742,2.19296 -2.3769,3.52014 -0.55949,1.32717 -0.8655,2.78566 -0.8655,4.32104 V 186.891 c 5.66632,4.33224 10.67855,9.54997 14.90728,15.46921 z" /><path
           id="path333"
           clip-path="none"
           style="opacity:1;fill:#ffffff;fill-opacity:1;stroke:none;stroke-width:26.1412;stroke-linecap:round;stroke-linejoin:round;stroke-dasharray:none;stroke-opacity:1"
           d="m -228.1078,256.22797 h 0.32941 c 1.53538,0 2.99387,-0.30602 4.32105,-0.8655 1.32717,-0.55949 2.52471,-1.36857 3.52659,-2.37044 1.00188,-1.00188 1.81096,-2.19942 2.37044,-3.5266 0.55949,-1.32717 0.8655,-2.78566 0.8655,-4.32104 v -22.17362 c 0,-1.53539 -0.30601,-2.99387 -0.8655,-4.32105 -0.55948,-1.32718 -1.36856,-2.51826 -2.37044,-3.52014 -1.00188,-1.00187 -2.19942,-1.81741 -3.52659,-2.37689 -1.32718,-0.55949 -2.78567,-0.8655 -4.32105,-0.8655 h -8.92629 c 5.47324,10.71654 8.59688,23.03239 8.59688,36.16373 z M 20.644603,567.00806 h 0.32941 c 1.53538,0 2.99387,-0.30602 4.32105,-0.8655 1.32717,-0.55949 2.52471,-1.36857 3.52659,-2.37044 1.00188,-1.00188 1.81096,-2.19942 2.37044,-3.5266 0.55949,-1.32717 0.8655,-2.78566 0.8655,-4.32104 v -22.17362 c 0,-1.53539 -0.30601,-2.99387 -0.8655,-4.32105 -0.55948,-1.32718 -1.36856,-2.51826 -2.37044,-3.52014 -1.00188,-1.00187 -2.19942,-1.81741 -3.52659,-2.37689 -1.32718,-0.55949 -2.78567,-0.8655 -4.32105,-0.8655 h -8.92629 c 5.47324,10.71654 8.59688,23.03239 8.59688,36.16373 z"
           inkscape:original-d="m -228.1078,256.22797 h 0.32941 c 1.53538,0 2.99387,-0.30602 4.32105,-0.8655 1.32717,-0.55949 2.52471,-1.36857 3.52659,-2.37044 1.00188,-1.00188 1.81096,-2.19942 2.37044,-3.5266 0.55949,-1.32717 0.8655,-2.78566 0.8655,-4.32104 v -22.17362 c 0,-1.53539 -0.30601,-2.99387 -0.8655,-4.32105 -0.55948,-1.32718 -1.36856,-2.51826 -2.37044,-3.52014 -1.00188,-1.00187 -2.19942,-1.81741 -3.52659,-2.37689 -1.32718,-0.55949 -2.78567,-0.8655 -4.32105,-0.8655 h -8.92629 c 5.47324,10.71654 8.59688,23.03239 8.59688,36.16373 z" /><path
           id="path331"
           clip-path="none"
           style="opacity:1;fill:#ffffff;fill-opacity:1;stroke:none;stroke-width:26.1412;stroke-linecap:round;stroke-linejoin:round;stroke-dasharray:none;stroke-opacity:1"
           d="m -170.26132,283.93692 v -7.0984 c 0,-1.53538 -0.31248,-2.99387 -0.87196,-4.32105 -0.55949,-1.32718 -1.36856,-2.51826 -2.37044,-3.52013 -1.00188,-1.00188 -2.19296,-1.81742 -3.52014,-2.3769 -1.32717,-0.55949 -2.78566,-0.8655 -4.32104,-0.8655 h -46.7629 v 14.72643 c 0,1.16693 -0.10306,2.30662 -0.16793,3.45555 z M 78.491083,594.71701 v -7.0984 c 0,-1.53538 -0.31248,-2.99387 -0.87196,-4.32105 -0.55949,-1.32718 -1.36856,-2.51826 -2.37044,-3.52013 -1.00188,-1.00188 -2.19296,-1.81742 -3.52014,-2.3769 -1.32717,-0.55949 -2.78566,-0.8655 -4.32104,-0.8655 h -46.7629 v 14.72643 c 0,1.16693 -0.10306,2.30662 -0.16793,3.45555 z"
           inkscape:original-d="m -170.26132,283.93692 v -7.0984 c 0,-1.53538 -0.31248,-2.99387 -0.87196,-4.32105 -0.55949,-1.32718 -1.36856,-2.51826 -2.37044,-3.52013 -1.00188,-1.00188 -2.19296,-1.81742 -3.52014,-2.3769 -1.32717,-0.55949 -2.78566,-0.8655 -4.32104,-0.8655 h -46.7629 v 14.72643 c 0,1.16693 -0.10306,2.30662 -0.16793,3.45555 z" /><path
           id="path329"
           clip-path="none"
           style="opacity:1;fill:#ffffff;fill-opacity:1;stroke:none;stroke-width:26.1412;stroke-linecap:round;stroke-linejoin:round;stroke-dasharray:none;stroke-opacity:1"
           d="m -152.82858,266.39437 c -0.36854,0.11184 -0.79227,0.0781 -1.14324,0.22607 -1.32717,0.55948 -2.52471,1.37502 -3.52659,2.3769 -1.00188,1.00187 -1.81096,2.19295 -2.37044,3.52013 -0.55949,1.32718 -0.8655,2.78567 -0.8655,4.32105 v 7.0984 h 7.52469 c 0.12876,-2.70397 0.38108,-5.37293 0.38108,-8.11246 z M 95.923823,577.17446 c -0.36854,0.11184 -0.79227,0.0781 -1.14324,0.22607 -1.32717,0.55948 -2.52471,1.37502 -3.52659,2.3769 -1.00188,1.00187 -1.81096,2.19295 -2.37044,3.52013 -0.55949,1.32718 -0.8655,2.78567 -0.8655,4.32105 v 7.0984 h 7.52469 c 0.12876,-2.70397 0.38108,-5.37293 0.38108,-8.11246 z"
           inkscape:original-d="m -152.82858,266.39437 c -0.36854,0.11184 -0.79227,0.0781 -1.14324,0.22607 -1.32717,0.55948 -2.52471,1.37502 -3.52659,2.3769 -1.00188,1.00187 -1.81096,2.19295 -2.37044,3.52013 -0.55949,1.32718 -0.8655,2.78567 -0.8655,4.32105 v 7.0984 h 7.52469 c 0.12876,-2.70397 0.38108,-5.37293 0.38108,-8.11246 z" /><path
           id="path327"
           clip-path="none"
           style="opacity:1;fill:#ffffff;fill-opacity:1;stroke:none;stroke-width:26.1412;stroke-linecap:round;stroke-linejoin:round;stroke-dasharray:none;stroke-opacity:1"
           d="m -152.82858,211.88719 h -43.25568 c -1.53538,0 -2.99387,0.30601 -4.32104,0.8655 -1.32718,0.55948 -2.52472,1.37502 -3.5266,2.37689 -1.00188,1.00188 -1.81095,2.19296 -2.37044,3.52014 -0.55948,1.32718 -0.8655,2.78566 -0.8655,4.32105 v 22.17362 c 0,1.53538 0.30602,2.99387 0.8655,4.32104 0.55949,1.32718 1.36856,2.52472 2.37044,3.5266 1.00188,1.00187 2.19942,1.81095 3.5266,2.37044 1.32717,0.55948 2.78566,0.8655 4.32104,0.8655 h 43.25568 z M 95.923823,522.66728 h -43.25568 c -1.53538,0 -2.99387,0.30601 -4.32104,0.8655 -1.32718,0.55948 -2.52472,1.37502 -3.5266,2.37689 -1.00188,1.00188 -1.81095,2.19296 -2.37044,3.52014 -0.55948,1.32718 -0.8655,2.78566 -0.8655,4.32105 v 22.17362 c 0,1.53538 0.30602,2.99387 0.8655,4.32104 0.55949,1.32718 1.36856,2.52472 2.37044,3.5266 1.00188,1.00187 2.19942,1.81095 3.5266,2.37044 1.32717,0.55948 2.78566,0.8655 4.32104,0.8655 h 43.25568 z"
           inkscape:original-d="m -152.82858,211.88719 h -43.25568 c -1.53538,0 -2.99387,0.30601 -4.32104,0.8655 -1.32718,0.55948 -2.52472,1.37502 -3.5266,2.37689 -1.00188,1.00188 -1.81095,2.19296 -2.37044,3.52014 -0.55948,1.32718 -0.8655,2.78566 -0.8655,4.32105 v 22.17362 c 0,1.53538 0.30602,2.99387 0.8655,4.32104 0.55949,1.32718 1.36856,2.52472 2.37044,3.5266 1.00188,1.00187 2.19942,1.81095 3.5266,2.37044 1.32717,0.55948 2.78566,0.8655 4.32104,0.8655 h 43.25568 z" /><path
           id="path325"
           clip-path="none"
           style="opacity:1;fill:#ffffff;fill-opacity:1;stroke:none;stroke-width:26.1412;stroke-linecap:round;stroke-linejoin:round;stroke-dasharray:none;stroke-opacity:1"
           d="m -158.99689,163.48372 c -0.27127,0.44992 -0.66579,0.80917 -0.87196,1.29825 -0.55949,1.32717 -0.8655,2.78566 -0.8655,4.32104 v 22.17362 c 0,1.53539 0.30601,2.99387 0.8655,4.32105 0.55948,1.32718 1.36856,2.52472 2.37044,3.52659 1.00188,1.00188 2.19942,1.81096 3.52659,2.37044 0.25216,0.1063 0.5589,0.0801 0.82029,0.16794 -0.53065,-13.22022 -2.45755,-26.02788 -5.84536,-38.17893 z M 89.755513,474.26381 c -0.27127,0.44992 -0.66579,0.80917 -0.87196,1.29825 -0.55949,1.32717 -0.8655,2.78566 -0.8655,4.32104 v 22.17362 c 0,1.53539 0.30601,2.99387 0.8655,4.32105 0.55948,1.32718 1.36856,2.52472 2.37044,3.52659 1.00188,1.00188 2.19942,1.81096 3.52659,2.37044 0.25216,0.1063 0.5589,0.0801 0.82029,0.16794 -0.53065,-13.22022 -2.45755,-26.02788 -5.84536,-38.17893 z"
           inkscape:original-d="m -158.99689,163.48372 c -0.27127,0.44992 -0.66579,0.80917 -0.87196,1.29825 -0.55949,1.32717 -0.8655,2.78566 -0.8655,4.32104 v 22.17362 c 0,1.53539 0.30601,2.99387 0.8655,4.32105 0.55948,1.32718 1.36856,2.52472 2.37044,3.52659 1.00188,1.00188 2.19942,1.81096 3.52659,2.37044 0.25216,0.1063 0.5589,0.0801 0.82029,0.16794 -0.53065,-13.22022 -2.45755,-26.02788 -5.84536,-38.17893 z" /><path
           id="path323"
           clip-path="none"
           style="opacity:1;fill:#ffffff;fill-opacity:1;stroke:none;stroke-width:26.1412;stroke-linecap:round;stroke-linejoin:round;stroke-dasharray:none;stroke-opacity:1"
           d="m -190.20014,104.15168 h -5.88412 c -1.53538,0 -2.99387,0.30602 -4.32104,0.8655 -1.32718,0.55949 -2.52472,1.36857 -3.5266,2.37044 -1.00188,1.00188 -1.81095,2.19942 -2.37044,3.5266 -0.55948,1.32717 -0.8655,2.78566 -0.8655,4.32104 v 22.17362 c 0,1.53539 0.30602,2.99387 0.8655,4.32105 0.55949,1.32718 1.36856,2.52471 2.37044,3.52659 1.00188,1.00188 2.19942,1.81096 3.5266,2.37044 1.32717,0.55949 2.78566,0.8655 4.32104,0.8655 h 32.1398 c -6.35822,-16.43827 -15.33857,-31.33686 -26.25568,-44.34078 z M 58.552263,414.93177 h -5.88412 c -1.53538,0 -2.99387,0.30602 -4.32104,0.8655 -1.32718,0.55949 -2.52472,1.36857 -3.5266,2.37044 -1.00188,1.00188 -1.81095,2.19942 -2.37044,3.5266 -0.55948,1.32717 -0.8655,2.78566 -0.8655,4.32104 v 22.17362 c 0,1.53539 0.30602,2.99387 0.8655,4.32105 0.55949,1.32718 1.36856,2.52471 2.37044,3.52659 1.00188,1.00188 2.19942,1.81096 3.5266,2.37044 1.32717,0.55949 2.78566,0.8655 4.32104,0.8655 h 32.1398 c -6.35822,-16.43827 -15.33857,-31.33686 -26.25568,-44.34078 z"
           inkscape:original-d="m -190.20014,104.15168 h -5.88412 c -1.53538,0 -2.99387,0.30602 -4.32104,0.8655 -1.32718,0.55949 -2.52472,1.36857 -3.5266,2.37044 -1.00188,1.00188 -1.81095,2.19942 -2.37044,3.5266 -0.55948,1.32717 -0.8655,2.78566 -0.8655,4.32104 v 22.17362 c 0,1.53539 0.30602,2.99387 0.8655,4.32105 0.55949,1.32718 1.36856,2.52471 2.37044,3.52659 1.00188,1.00188 2.19942,1.81096 3.5266,2.37044 1.32717,0.55949 2.78566,0.8655 4.32104,0.8655 h 32.1398 c -6.35822,-16.43827 -15.33857,-31.33686 -26.25568,-44.34078 z" /><path
           id="path321"
           clip-path="none"
           style="opacity:1;fill:#ffffff;fill-opacity:1;stroke:none;stroke-width:26.1412;stroke-linecap:round;stroke-linejoin:round;stroke-dasharray:none;stroke-opacity:1"
           d="m -256.99228,58.977694 c -0.17912,0.793442 -0.47796,1.5407 -0.47796,2.389817 v 22.17362 c 0,1.535381 0.30601,2.993869 0.8655,4.321046 0.55948,1.327177 1.37502,2.524715 2.3769,3.526594 1.00187,1.001878 2.19296,1.810953 3.52013,2.370439 1.32718,0.559486 2.78567,0.865501 4.32105,0.865501 h 47.49275 C -215.19185,78.269308 -234.9575,65.897923 -256.99228,58.977694 Z M -8.2398769,369.75778 c -0.17912,0.79344 -0.47796,1.5407 -0.47796,2.38982 v 22.17362 c 0,1.53538 0.30601,2.99387 0.8655,4.32104 0.55948,1.32718 1.37502,2.52472 2.3769,3.5266 1.00187,1.00187 2.19296,1.81095 3.52013,2.37044 1.32718,0.55948 2.78567,0.8655 4.32105,0.8655 H 49.858493 C 33.560553,389.04939 13.794903,376.67801 -8.2398769,369.75778 Z"
           inkscape:original-d="m -256.99228,58.977694 c -0.17912,0.793442 -0.47796,1.5407 -0.47796,2.389817 v 22.17362 c 0,1.535381 0.30601,2.993869 0.8655,4.321046 0.55948,1.327177 1.37502,2.524715 2.3769,3.526594 1.00187,1.001878 2.19296,1.810953 3.52013,2.370439 1.32718,0.559486 2.78567,0.865501 4.32105,0.865501 h 47.49275 C -215.19185,78.269308 -234.9575,65.897923 -256.99228,58.977694 Z" /><path
           id="path319"
           clip-path="none"
           style="opacity:1;fill:#ffffff;fill-opacity:1;stroke:none;stroke-width:26.1412;stroke-linecap:round;stroke-linejoin:round;stroke-dasharray:none;stroke-opacity:1"
           d="m -354.20613,64.616369 v 18.924762 c 0,1.535381 0.31247,2.993869 0.87196,4.321046 0.55948,1.327177 1.36856,2.524715 2.37044,3.526594 1.00188,1.001878 2.19296,1.810953 3.52013,2.370439 1.32718,0.559486 2.79213,0.865501 4.32751,0.865501 h 65.0353 c 1.53538,0 2.99387,-0.306015 4.32104,-0.865501 1.32718,-0.559486 2.52472,-1.368561 3.5266,-2.370439 1.00188,-1.001879 1.81095,-2.199417 2.37044,-3.526594 0.55948,-1.327177 0.8655,-2.785665 0.8655,-4.321046 v -22.17362 c 0,-1.535384 -0.30602,-2.99387 -0.8655,-4.321047 -0.20521,-0.486784 -0.60225,-0.843783 -0.87196,-1.291792 -9.46731,-2.06824 -19.27091,-3.158433 -29.3237,-3.158433 -19.92931,0 -38.88919,4.288463 -56.14776,12.02013 z m 248.7524,310.780081 v 18.92477 c 0,1.53538 0.31247,2.99387 0.87196,4.32104 0.55948,1.32718 1.36856,2.52472 2.37044,3.5266 1.00188,1.00187 2.19296,1.81095 3.520133,2.37044 1.32718,0.55948 2.79213,0.8655 4.32751,0.8655 h 65.0353 c 1.53538,0 2.99387,-0.30602 4.32104,-0.8655 1.32718,-0.55949 2.52472,-1.36857 3.5266,-2.37044 1.00188,-1.00188 1.81095,-2.19942 2.37044,-3.5266 0.55948,-1.32717 0.8655,-2.78566 0.8655,-4.32104 V 372.1476 c 0,-1.53539 -0.30602,-2.99387 -0.8655,-4.32105 -0.20521,-0.48678 -0.60225,-0.84378 -0.87196,-1.29179 -9.46731,-2.06824 -19.27091,-3.15844 -29.3237,-3.15844 -19.92931,0 -38.88919,4.28847 -56.147763,12.02013 z"
           inkscape:original-d="m -354.20613,64.616369 v 18.924762 c 0,1.535381 0.31247,2.993869 0.87196,4.321046 0.55948,1.327177 1.36856,2.524715 2.37044,3.526594 1.00188,1.001878 2.19296,1.810953 3.52013,2.370439 1.32718,0.559486 2.79213,0.865501 4.32751,0.865501 h 65.0353 c 1.53538,0 2.99387,-0.306015 4.32104,-0.865501 1.32718,-0.559486 2.52472,-1.368561 3.5266,-2.370439 1.00188,-1.001879 1.81095,-2.199417 2.37044,-3.526594 0.55948,-1.327177 0.8655,-2.785665 0.8655,-4.321046 v -22.17362 c 0,-1.535384 -0.30602,-2.99387 -0.8655,-4.321047 -0.20521,-0.486784 -0.60225,-0.843783 -0.87196,-1.291792 -9.46731,-2.06824 -19.27091,-3.158433 -29.3237,-3.158433 -19.92931,0 -38.88919,4.288463 -56.14776,12.02013 z" /><path
           id="path315"
           clip-path="none"
           style="opacity:1;fill:#ffffff;fill-opacity:1;stroke:none;stroke-width:26.1412;stroke-linecap:round;stroke-linejoin:round;stroke-dasharray:none;stroke-opacity:1"
           d="m -397.22283,94.624711 h 22.40615 c 1.53538,0 3.00033,-0.306015 4.3275,-0.865501 1.32718,-0.559486 2.51826,-1.368561 3.52014,-2.370439 1.00188,-1.001879 1.81095,-2.199417 2.37044,-3.526594 0.55948,-1.327177 0.87196,-2.785665 0.87196,-4.321046 V 69.46705 c -12.29299,6.678173 -23.53814,15.164734 -33.49619,25.157661 z m 248.7524,310.780089 h 22.40615 c 1.53538,0 3.00033,-0.30602 4.3275,-0.8655 1.32718,-0.55949 2.51826,-1.36857 3.52014,-2.37044 1.00188,-1.00188 1.81095,-2.19942 2.37044,-3.5266 0.55948,-1.32717 0.87196,-2.78566 0.87196,-4.32104 v -14.07408 c -12.29299,6.67817 -23.53814,15.16473 -33.49619,25.15766 z"
           inkscape:original-d="m -397.22283,94.624711 h 22.40615 c 1.53538,0 3.00033,-0.306015 4.3275,-0.865501 1.32718,-0.559486 2.51826,-1.368561 3.52014,-2.370439 1.00188,-1.001879 1.81095,-2.199417 2.37044,-3.526594 0.55948,-1.327177 0.87196,-2.785665 0.87196,-4.321046 V 69.46705 c -12.29299,6.678173 -23.53814,15.164734 -33.49619,25.157661 z" /><path
           id="path8808"
           style="opacity:1;fill:#ffffff;fill-opacity:1;stroke:none;stroke-width:9.91921;stroke-linecap:round;stroke-linejoin:round;stroke-dasharray:none;stroke-opacity:1"
           d="m -297.46583,196.15546 c -30.52933,0 -55.10697,26.38416 -55.10697,59.15819 v 25.54503 c 0,1.03948 0.0933,2.05226 0.14214,3.07824 h 109.9272 c 0.0488,-1.02601 0.14459,-2.03873 0.14459,-3.07824 v -25.54503 c 0,-32.77403 -24.57762,-59.15819 -55.10696,-59.15819 z m 248.752403,310.78009 c -30.52933,0 -55.106973,26.38416 -55.106973,59.15819 v 25.54503 c 0,1.03948 0.0933,2.05226 0.14214,3.07824 H 6.2489431 c 0.0488,-1.02601 0.14459,-2.03873 0.14459,-3.07824 v -25.54503 c 0,-32.77403 -24.5776201,-59.15819 -55.1069601,-59.15819 z"
           inkscape:original-d="m -297.46583,196.15546 c -30.52933,0 -55.10697,26.38416 -55.10697,59.15819 v 25.54503 c 0,1.03948 0.0933,2.05226 0.14214,3.07824 h 109.9272 c 0.0488,-1.02601 0.14459,-2.03873 0.14459,-3.07824 v -25.54503 c 0,-32.77403 -24.57762,-59.15819 -55.10696,-59.15819 z" /></g></g></g></svg>
