<?xml version="1.0" encoding="UTF-8" standalone="no"?>
<!-- Created with Inkscape (http://www.inkscape.org/) -->

<svg
   width="200"
   height="200"
   viewBox="0 0 52.916667 52.916667"
   version="1.1"
   id="svg5"
   xml:space="preserve"
   inkscape:version="1.2 (dc2aedaf03, 2022-05-15)"
   sodipodi:docname="Array Tile_Medieval.svg"
   xmlns:inkscape="http://www.inkscape.org/namespaces/inkscape"
   xmlns:sodipodi="http://sodipodi.sourceforge.net/DTD/sodipodi-0.dtd"
   xmlns="http://www.w3.org/2000/svg"
   xmlns:svg="http://www.w3.org/2000/svg"><sodipodi:namedview
     id="namedview7"
     pagecolor="#505050"
     bordercolor="#ffffff"
     borderopacity="1"
     inkscape:showpageshadow="0"
     inkscape:pageopacity="0"
     inkscape:pagecheckerboard="1"
     inkscape:deskcolor="#505050"
     inkscape:document-units="mm"
     showgrid="false"
     showguides="false"
     inkscape:zoom="2.4065231"
     inkscape:cx="88.509437"
     inkscape:cy="122.58349"
     inkscape:window-width="1366"
     inkscape:window-height="705"
     inkscape:window-x="-8"
     inkscape:window-y="-8"
     inkscape:window-maximized="1"
     inkscape:current-layer="medieval_fantasy" /><defs
     id="defs2"><inkscape:path-effect
       effect="tiling"
       id="path-effect1117"
       is_visible="true"
       lpeversion="1"
       unit="px"
       seed="1;1"
       lpesatellites=""
       num_rows="2"
       num_cols="1"
       gapx="150"
       gapy="320"
       offset="55"
       offset_type="false"
       scale="0"
       rotate="0"
       mirrorrowsx="false"
       mirrorrowsy="false"
       mirrorcolsx="false"
       mirrorcolsy="false"
       mirrortrans="false"
       shrink_interp="false"
       split_items="false"
       link_styles="false"
       interpolate_scalex="false"
       interpolate_scaley="true"
       interpolate_rotatex="false"
       interpolate_rotatey="true"
       random_scale="false"
       random_rotate="false"
       random_gap_y="false"
       random_gap_x="false"
       transformorigin="matrix(1.1914792,0.29379771,-0.29379771,1.1914792,157.86216,92.443652)" /><style
       id="style6175">.cls-1{fill:url(#linear-gradient);}.cls-2{fill:#ba2e7e;}.cls-3{fill:url(#linear-gradient-2);}.cls-4{fill:#ffcd05;}.cls-5{fill:#fabc2e;}.cls-6,.cls-7{fill-opacity:0.5;}.cls-6{fill:url(#radial-gradient);}.cls-7{fill:url(#radial-gradient-2);}.cls-8{fill:#9a1c25;}.cls-9{fill:#fff;}.cls-10{fill:#32160f;}.cls-11,.cls-13{fill:#61727c;}.cls-12{fill:#92a1ad;}.cls-13{opacity:0.25;}.cls-14{fill:#bc6234;}.cls-15{fill:#f6871f;}.cls-16{fill:#9e1f63;}.cls-17{fill:#f4fbfe;}</style></defs><g
     inkscape:label="Layer 1"
     inkscape:groupmode="layer"
     id="layer1"
     transform="translate(-96.02888,-99.990732)"><g
       id="medieval_fantasy"
       data-name="medieval fantasy"
       transform="matrix(0.08000732,0,0,0.08000732,132.93495,96.913845)"><g
         id="g6411"
         transform="matrix(1.1914792,0.29379771,-0.29379771,1.1914792,157.86216,92.443652)"
         class="UnoptimicedTransforms"
         inkscape:path-effect="#path-effect1117"><path
           id="polygon6243"
           class="cls-14"
           d="m -374.04918,56.335605 -23.99506,56.554675 18.75037,22.2253 32.02354,-42.635617 z m 250.64083,250.149485 -23.99506,56.55468 18.75037,22.2253 32.023544,-42.63562 z"
           style="fill:#ffffff;fill-opacity:1;stroke-width:2.9125"
           inkscape:original-d="m -374.04918,56.335605 -23.99506,56.554675 18.75037,22.2253 32.02354,-42.635617 z" /><path
           id="polygon6245"
           class="cls-14"
           d="m -236.55078,56.335605 -26.78532,36.150815 31.9977,42.62916 18.7762,-22.24467 z m 250.640834,250.149485 -26.78532,36.15082 31.9977,42.62916 18.7762,-22.24467 z"
           style="fill:#ffffff;fill-opacity:1;stroke-width:2.9125"
           inkscape:original-d="m -236.55078,56.335605 -26.78532,36.150815 31.9977,42.62916 18.7762,-22.24467 z" /><path
           id="path6247"
           style="fill:#ffffff;fill-opacity:1;stroke-width:2.9125"
           class="cls-15"
           d="m -305.28708,43.204533 -74.0068,98.525017 -65.30011,-77.410667 18.73099,93.648507 c 0.21,-0.0864 0.42101,-0.17042 0.63298,-0.2519 15.3797,-4.28892 17.25176,8.6464 21.54064,24.05964 4.28891,15.41321 9.38582,27.47627 -5.99392,31.76518 -1.6078,0.41112 -3.24795,0.6834 -4.90235,0.81383 l 4.59232,22.96807 c 0,0 30.40857,25.24808 104.70625,25.24808 74.29771,0 104.67396,-25.24808 104.67396,-25.24808 l 4.46314,-22.30926 c -1.66015,-0.12466 -3.30667,-0.39044 -4.92173,-0.79445 -15.56459,-4.34046 -10.40704,-16.54778 -6.03267,-32.14626 4.37437,-15.5985 6.20699,-28.6843 21.80546,-24.34383 0.18808,0.0734 0.3754,0.14877 0.56193,0.22606 l 18.72453,-93.635587 -65.32595,77.410667 z m 0,105.784897 c 17.33623,7.2e-4 31.38984,14.05433 31.39056,31.39056 -7.2e-4,17.33623 -14.05433,31.38984 -31.39056,31.39056 -17.33623,-7.2e-4 -31.38984,-14.05433 -31.39056,-31.39056 7.2e-4,-17.33623 14.05433,-31.38984 31.39056,-31.39056 z m 250.640834,144.36459 -74.006804,98.52502 -65.30011,-77.41067 18.73099,93.64851 c 0.21,-0.0864 0.42101,-0.17042 0.63298,-0.2519 15.3797,-4.28892 17.25176,8.6464 21.54064,24.05964 4.28891,15.41321 9.38582,27.47627 -5.99392,31.76518 -1.6078,0.41112 -3.24794,0.6834 -4.90235,0.81383 l 4.59232,22.96807 c 0,0 30.40857,25.24808 104.706254,25.24808 74.29771,0 104.67396,-25.24808 104.67396,-25.24808 l 4.46314,-22.30926 c -1.66015,-0.12467 -3.306672,-0.39044 -4.92173,-0.79445 -15.56459,-4.34046 -10.40704,-16.54778 -6.03267,-32.14626 4.37437,-15.5985 6.20699,-28.6843 21.80546,-24.34383 0.188083,0.0734 0.375403,0.14877 0.56193,0.22606 l 18.72453,-93.63559 -65.32595,77.41067 z m 0,105.7849 c 17.336231,7.1e-4 31.389845,14.05432 31.39056,31.39056 -7.15e-4,17.33623 -14.054329,31.38984 -31.39056,31.39056 -17.336232,-7.2e-4 -31.389845,-14.05433 -31.39056,-31.39056 7.15e-4,-17.33624 14.054328,-31.38985 31.39056,-31.39056 z"
           inkscape:original-d="m -305.28708,43.204533 -74.0068,98.525017 -65.30011,-77.410667 18.73099,93.648507 a 28.983644,28.983644 0 0 1 0.63298,-0.2519 c 15.3797,-4.28892 17.25176,8.6464 21.54064,24.05964 4.28891,15.41321 9.38582,27.47627 -5.99392,31.76518 a 28.983644,28.983644 0 0 1 -4.90235,0.81383 l 4.59232,22.96807 c 0,0 30.40857,25.24808 104.70625,25.24808 74.29771,0 104.67396,-25.24808 104.67396,-25.24808 l 4.46314,-22.30926 a 29.332001,29.332001 0 0 1 -4.92173,-0.79445 c -15.56459,-4.34046 -10.40704,-16.54778 -6.03267,-32.14626 4.37437,-15.5985 6.20699,-28.6843 21.80546,-24.34383 a 29.332001,29.332001 0 0 1 0.56193,0.22606 l 18.72453,-93.635587 -65.32595,77.410667 z m 0,105.784897 a 31.391855,31.391855 0 0 1 31.39056,31.39056 31.391855,31.391855 0 0 1 -31.39056,31.39056 31.391855,31.391855 0 0 1 -31.39056,-31.39056 31.391855,31.391855 0 0 1 31.39056,-31.39056 z" /><circle
           class="cls-2"
           cx="-305.28738"
           cy="180.38161"
           r="25.19314"
           id="circle6396"
           style="fill:#ffffff;fill-opacity:1;stroke-width:2.9125"
           d="m -280.09424,180.38161 c 0,13.91378 -11.27936,25.19314 -25.19314,25.19314 -13.91379,0 -25.19314,-11.27936 -25.19314,-25.19314 0,-13.91379 11.27935,-25.19314 25.19314,-25.19314 13.91378,0 25.19314,11.27935 25.19314,25.19314 z m 250.64083,250.14948 c 0,13.91379 -11.279353,25.19314 -25.19314,25.19314 -13.913787,0 -25.19314,-11.27935 -25.19314,-25.19314 0,-13.91378 11.279353,-25.19314 25.19314,-25.19314 13.913787,0 25.19314,11.27936 25.19314,25.19314 z" /><path
           id="circle6253"
           style="fill:#ffffff;stroke-width:2.9125"
           class="cls-2"
           d="m -280.09424,180.38161 c 0,13.91379 -11.27935,25.19314 -25.19314,25.19314 -13.91379,0 -25.19314,-11.27935 -25.19314,-25.19314 0,-13.91379 11.27935,-25.19314 25.19314,-25.19314 13.91379,0 25.19314,11.27935 25.19314,25.19314 z M -29.453406,430.5311 c 0,13.91378 -11.279353,25.19314 -25.19314,25.19314 -13.913787,0 -25.19314,-11.27936 -25.19314,-25.19314 0,-13.91379 11.279353,-25.19314 25.19314,-25.19314 13.913787,0 25.19314,11.27935 25.19314,25.19314 z"
           inkscape:original-d="m -280.09424,180.38161 a 25.19314,25.19314 0 0 1 -25.19314,25.19314 25.19314,25.19314 0 0 1 -25.19314,-25.19314 25.19314,25.19314 0 0 1 25.19314,-25.19314 25.19314,25.19314 0 0 1 25.19314,25.19314 z" /><path
           class="cls-2"
           d="m -197.72872,210.26387 c -13.3684,-3.728 -8.94139,-14.213 -5.18426,-27.61051 3.75713,-13.39751 5.32988,-24.63977 18.72738,-20.91176 13.65616,3.52823 21.75548,17.5797 17.96366,31.16502 -3.79182,13.58531 -17.99737,21.41124 -31.50678,17.35725 z M 52.912114,460.41336 c -13.3684,-3.728 -8.94139,-14.213 -5.18426,-27.61051 3.75713,-13.39751 5.32988,-24.63977 18.72738,-20.91176 13.656158,3.52822 21.755477,17.5797 17.96366,31.16501 -3.791817,13.58532 -17.99737,21.41125 -31.50678,17.35726 z"
           id="path6259"
           style="fill:#ffffff;fill-opacity:1;stroke-width:2.9125"
           inkscape:original-d="m -197.72872,210.26387 c -13.3684,-3.728 -8.94139,-14.213 -5.18426,-27.61051 3.75713,-13.39751 5.32988,-24.63977 18.72738,-20.91176 a 25.193141,25.193141 0 1 1 -13.54312,48.52227 z" /><path
           class="cls-2"
           d="m -412.87524,210.26387 c 13.36839,-3.728 8.94139,-14.213 5.21338,-27.61051 -3.728,-13.39751 -5.35901,-24.63977 -18.72739,-20.91176 -13.74718,3.4438 -21.94981,17.54497 -18.14747,31.19732 3.80233,13.65235 18.11329,21.48322 31.66148,17.32495 z m 250.64083,250.14949 c 13.36839,-3.728 8.94139,-14.213 5.21338,-27.61051 -3.728,-13.39751 -5.35901,-24.63977 -18.72739,-20.91176 -13.74718,3.4438 -21.94981,17.54496 -18.14747,31.19731 3.80234,13.65235 18.11329,21.48323 31.66148,17.32496 z"
           id="path6265"
           style="fill:#ffffff;fill-opacity:1;stroke-width:2.9125"
           inkscape:original-d="m -412.87524,210.26387 c 13.36839,-3.728 8.94139,-14.213 5.21338,-27.61051 -3.728,-13.39751 -5.35901,-24.63977 -18.72739,-20.91176 a 25.193141,25.193141 0 1 0 13.51401,48.52227 z" /></g></g></g></svg>
