<?xml version="1.0" encoding="UTF-8" standalone="no"?>
<!-- Created with Inkscape (http://www.inkscape.org/) -->

<svg
   width="200"
   height="200"
   viewBox="0 0 52.916663 52.916668"
   version="1.1"
   id="svg5"
   xml:space="preserve"
   inkscape:version="1.2 (dc2aedaf03, 2022-05-15)"
   sodipodi:docname="Array Tile_Farm.svg"
   xmlns:inkscape="http://www.inkscape.org/namespaces/inkscape"
   xmlns:sodipodi="http://sodipodi.sourceforge.net/DTD/sodipodi-0.dtd"
   xmlns="http://www.w3.org/2000/svg"
   xmlns:svg="http://www.w3.org/2000/svg"><sodipodi:namedview
     id="namedview7"
     pagecolor="#505050"
     bordercolor="#ffffff"
     borderopacity="1"
     inkscape:showpageshadow="0"
     inkscape:pageopacity="0"
     inkscape:pagecheckerboard="1"
     inkscape:deskcolor="#505050"
     inkscape:document-units="mm"
     showgrid="false"
     showguides="false"
     inkscape:zoom="1.576812"
     inkscape:cx="5.0735283"
     inkscape:cy="75.468733"
     inkscape:window-width="1366"
     inkscape:window-height="705"
     inkscape:window-x="-8"
     inkscape:window-y="-8"
     inkscape:window-maximized="1"
     inkscape:current-layer="layer1" /><defs
     id="defs2"><inkscape:path-effect
       effect="tiling"
       id="path-effect4133"
       is_visible="true"
       lpeversion="1"
       unit="px"
       seed="1;1"
       lpesatellites=""
       num_rows="2"
       num_cols="1"
       gapx="25"
       gapy="22"
       offset="68"
       offset_type="false"
       scale="0"
       rotate="0"
       mirrorrowsx="false"
       mirrorrowsy="false"
       mirrorcolsx="false"
       mirrorcolsy="false"
       mirrortrans="false"
       shrink_interp="false"
       split_items="false"
       link_styles="false"
       interpolate_scalex="false"
       interpolate_scaley="true"
       interpolate_rotatex="false"
       interpolate_rotatey="true"
       random_scale="false"
       random_rotate="false"
       random_gap_y="false"
       random_gap_x="false"
       transformorigin="matrix(0.8396159,0,0,0.8396159,14.96903,15.508388)" /><inkscape:path-effect
       effect="fillet_chamfer"
       id="path-effect5709"
       is_visible="true"
       lpeversion="1"
       nodesatellites_param="F,0,0,1,0,0,0,1 @ F,0,0,1,0,0,0,1 @ F,0,0,1,0,0,0,1 @ F,0,0,1,0,0,0,1 @ F,0,0,1,0,0,0,1 @ F,0,0,1,0,0.4581543,0,1 @ F,0,0,1,0,0,0,1 @ F,0,0,1,0,0,0,1 @ F,0,0,1,0,0,0,1 @ F,0,0,1,0,0,0,1 @ F,0,0,1,0,0.53049445,0,1 @ F,0,0,1,0,0,0,1 @ F,0,0,1,0,0,0,1 @ F,0,0,1,0,0,0,1 @ F,0,0,1,0,0,0,1 | F,0,0,1,0,0,0,1 @ F,0,0,1,0,0,0,1 @ F,0,0,1,0,0,0,1 @ F,0,0,1,0,0,0,1 @ F,0,0,1,0,0,0,1 @ F,0,0,1,0,0,0,1 @ F,0,0,1,0,0,0,1 @ F,0,0,1,0,0,0,1"
       unit="px"
       method="auto"
       mode="F"
       radius="0"
       chamfer_steps="1"
       flexible="false"
       use_knot_distance="true"
       apply_no_radius="true"
       apply_with_radius="true"
       only_selected="false"
       hide_knots="false" /><inkscape:path-effect
       effect="fillet_chamfer"
       id="path-effect2137"
       is_visible="true"
       lpeversion="1"
       nodesatellites_param="F,0,0,1,0,8,0,1 @ F,0,0,1,0,0,0,1 @ F,0,0,1,0,0,0,1 @ F,0,0,1,0,0,0,1 @ F,0,0,1,0,8,0,1 @ F,0,0,1,0,0,0,1 @ F,0,0,1,0,0,0,1 @ F,0,0,1,0,0,0,1 @ F,0,0,1,0,0,0,1 @ F,0,0,1,0,0,0,1"
       unit="px"
       method="auto"
       mode="F"
       radius="0"
       chamfer_steps="1"
       flexible="false"
       use_knot_distance="true"
       apply_no_radius="true"
       apply_with_radius="true"
       only_selected="false"
       hide_knots="false" /><inkscape:path-effect
       effect="mirror_symmetry"
       start_point="4.5560511,145.07496"
       end_point="-20.970424,169.23206"
       center_point="-8.2071863,157.15351"
       id="path-effect2078"
       is_visible="true"
       lpeversion="1.2"
       lpesatellites=""
       mode="vertical"
       discard_orig_path="false"
       fuse_paths="true"
       oposite_fuse="false"
       split_items="false"
       split_open="false"
       link_styles="false" /><inkscape:path-effect
       effect="fillet_chamfer"
       id="path-effect1953"
       is_visible="true"
       lpeversion="1"
       nodesatellites_param="F,0,0,1,0,0,0,1 @ F,0,0,1,0,0,0,1 @ F,0,0,1,0,0.68058242,0,1"
       unit="px"
       method="auto"
       mode="F"
       radius="0"
       chamfer_steps="1"
       flexible="false"
       use_knot_distance="true"
       apply_no_radius="true"
       apply_with_radius="true"
       only_selected="false"
       hide_knots="false" /><inkscape:path-effect
       effect="fillet_chamfer"
       id="path-effect1885"
       is_visible="true"
       lpeversion="1"
       nodesatellites_param="F,0,0,1,0,0.025729922,0,1 @ F,0,0,1,0,0,0,1 @ F,0,0,1,0,0.84764408,0,1 @ F,0,0,1,0,0.9288475,0,1"
       unit="px"
       method="auto"
       mode="F"
       radius="0"
       chamfer_steps="1"
       flexible="false"
       use_knot_distance="true"
       apply_no_radius="true"
       apply_with_radius="true"
       only_selected="false"
       hide_knots="false" /><inkscape:path-effect
       effect="mirror_symmetry"
       start_point="173.94468,87.823316"
       end_point="173.94468,111.88232"
       center_point="173.94468,99.852816"
       id="path-effect1828"
       is_visible="true"
       lpeversion="1.2"
       lpesatellites=""
       mode="vertical"
       discard_orig_path="false"
       fuse_paths="true"
       oposite_fuse="false"
       split_items="false"
       split_open="false"
       link_styles="false" /><inkscape:path-effect
       effect="fillet_chamfer"
       id="path-effect1818"
       is_visible="true"
       lpeversion="1"
       nodesatellites_param="F,0,0,1,0,0,0,1 @ F,0,0,1,0,2.6241049,0,1 @ F,0,0,1,0,0,0,1 @ F,0,0,1,0,1.443101,0,1 @ F,0,0,1,0,0,0,1 @ F,0,0,1,0,0,0,1 @ F,0,0,1,0,0.7857946,0,1 @ F,0,0,1,0,0,0,1 @ F,0,0,1,0,0,0,1 @ F,0,0,1,0,0,0,1"
       unit="px"
       method="auto"
       mode="F"
       radius="0"
       chamfer_steps="1"
       flexible="false"
       use_knot_distance="true"
       apply_no_radius="true"
       apply_with_radius="true"
       only_selected="false"
       hide_knots="false" /><inkscape:path-effect
       effect="mirror_symmetry"
       start_point="109.86484,87.18808"
       end_point="109.86484,140.10475"
       center_point="109.86484,113.64641"
       id="path-effect1649"
       is_visible="true"
       lpeversion="1.2"
       lpesatellites=""
       mode="vertical"
       discard_orig_path="false"
       fuse_paths="false"
       oposite_fuse="false"
       split_items="false"
       split_open="false"
       link_styles="false" /></defs><g
     inkscape:label="Layer 1"
     inkscape:groupmode="layer"
     id="layer1"
     transform="translate(-93.332381,-96.695296)"><g
       id="g6139"
       transform="matrix(0.8396159,0,0,0.8396159,18.228983,15.843754)"
       inkscape:path-effect="#path-effect4133"
       class="UnoptimicedTransforms"><path
         id="path5427"
         style="opacity:1;fill:none;fill-opacity:1;stroke:#ffffff;stroke-width:1.572;stroke-linecap:round;stroke-linejoin:round;stroke-dasharray:none;stroke-opacity:1"
         d="m 108.64617,97.481283 -11.622542,6.801137 -2.905249,6.99492 0.07958,0.72605 h 3.801835 l 0.0093,-0.72605 1.322917,-5.2126 9.170499,-4.84518 8.56537,4.77542 1.78181,5.28236 0.017,0.72605 h 3.95945 l 0.0605,-0.72605 -2.84427,-6.8895 z m 24.91953,34.186367 -11.62254,6.80114 -2.90525,6.99492 0.0796,0.72605 h 3.80183 l 0.009,-0.72605 1.32292,-5.2126 9.1705,-4.84518 8.56537,4.77542 1.78181,5.28236 0.017,0.72605 h 3.95945 l 0.0605,-0.72605 -2.84427,-6.8895 z"
         inkscape:original-d="m 108.64617,97.481283 -11.622542,6.801137 -2.905249,6.99492 0.07958,0.72605 h 3.801835 l 0.0093,-0.72605 1.322917,-5.2126 9.170499,-4.84518 8.56537,4.77542 1.78181,5.28236 0.017,0.72605 h 3.95945 l 0.0605,-0.72605 -2.84427,-6.8895 z" /><path
         id="rect5419"
         style="opacity:1;fill:#ffffff;stroke-width:0.577432;stroke-linecap:round;stroke-linejoin:round"
         d="m 108.50251,101.21972 -9.17025,4.84509 -1.323174,5.21276 -0.151917,11.67554 c -0.01284,0.98711 0.795122,1.78181 1.78232,1.78181 h 2.822271 c 0.25303,0 0.45815,-0.20512 0.45815,-0.45815 v -9.38725 c 0,-0.49169 0.39611,-0.8878 0.8878,-0.8878 h 9.38961 c 0.49169,0 0.8878,0.39611 0.8878,0.8878 v 9.31491 c 0,0.29298 0.23751,0.53049 0.53049,0.53049 h 2.72254 c 0.9872,0 1.79717,-0.79473 1.7818,-1.78181 l -0.27029,-11.67554 -1.7818,-5.28273 z m -2.82928,5.03415 h 5.65857 c 0.24324,0 0.43925,0.19549 0.43925,0.43874 v 4.87153 c 0,0.24325 -0.19601,0.43925 -0.43925,0.43925 h -5.65857 c -0.24324,0 -0.43925,-0.196 -0.43925,-0.43925 v -4.87153 c 0,-0.24325 0.19601,-0.43874 0.43925,-0.43874 z m 27.74881,29.15222 -9.17025,4.84509 -1.32317,5.21276 -0.15192,11.67554 c -0.0128,0.98711 0.79512,1.78181 1.78232,1.78181 h 2.82227 c 0.25303,0 0.45815,-0.20512 0.45815,-0.45815 v -9.38725 c 0,-0.49169 0.39611,-0.8878 0.8878,-0.8878 h 9.38961 c 0.49169,0 0.8878,0.39611 0.8878,0.8878 v 9.31491 c 0,0.29298 0.23751,0.53049 0.53049,0.53049 h 2.72254 c 0.9872,0 1.79717,-0.79473 1.7818,-1.78181 l -0.27029,-11.67554 -1.7818,-5.28273 z m -2.82928,5.03415 h 5.65857 c 0.24324,0 0.43925,0.19549 0.43925,0.43874 v 4.87153 c 0,0.24325 -0.19601,0.43925 -0.43925,0.43925 h -5.65857 c -0.24324,0 -0.43925,-0.196 -0.43925,-0.43925 v -4.87153 c 0,-0.24325 0.19601,-0.43874 0.43925,-0.43874 z"
         sodipodi:nodetypes="cccsscsssscsscccsssssssss"
         inkscape:path-effect="#path-effect5709"
         inkscape:original-d="m 108.50251,101.21972 -9.17025,4.84509 -1.323174,5.21276 -0.151917,11.67554 c -0.01284,0.98711 0.795122,1.78181 1.78232,1.78181 h 3.280421 v -9.8454 c 0,-0.49169 0.39611,-0.8878 0.8878,-0.8878 h 9.38961 c 0.49169,0 0.8878,0.39611 0.8878,0.8878 v 9.8454 h 3.25303 c 0.9872,0 1.79717,-0.79473 1.7818,-1.78181 l -0.27029,-11.67554 -1.7818,-5.28273 z m -2.82928,5.03415 h 5.65857 c 0.24324,0 0.43925,0.19549 0.43925,0.43874 v 4.87153 c 0,0.24325 -0.19601,0.43925 -0.43925,0.43925 h -5.65857 c -0.24324,0 -0.43925,-0.196 -0.43925,-0.43925 v -4.87153 c 0,-0.24325 0.19601,-0.43874 0.43925,-0.43874 z" /><path
         id="rect5763"
         style="opacity:1;fill:#ffffff;fill-opacity:1;stroke:none;stroke-width:1.22889;stroke-linecap:round;stroke-linejoin:round;stroke-dasharray:none;stroke-opacity:1"
         d="m 102.69201,111.08149 c -0.24335,-0.003 -0.48766,0.0871 -0.67644,0.2713 l -0.0543,0.0532 c -0.37756,0.36832 -0.38536,0.96861 -0.017,1.34618 l 11.6892,11.98273 h 1.38338 l 0.0269,-0.0264 c 0.37757,-0.36831 0.38537,-0.96912 0.0171,-1.34668 l -11.69904,-11.99256 c -0.18415,-0.18878 -0.42636,-0.28481 -0.66972,-0.28783 z m 24.91953,34.18637 c -0.24335,-0.003 -0.48766,0.0871 -0.67644,0.2713 l -0.0543,0.0532 c -0.37756,0.36832 -0.38536,0.96861 -0.017,1.34618 l 11.6892,11.98273 h 1.38338 l 0.0269,-0.0264 c 0.37757,-0.36831 0.38537,-0.96912 0.0171,-1.34668 l -11.69904,-11.99256 c -0.18415,-0.18878 -0.42636,-0.28481 -0.66972,-0.28783 z"
         inkscape:original-d="m 102.69201,111.08149 c -0.24335,-0.003 -0.48766,0.0871 -0.67644,0.2713 l -0.0543,0.0532 c -0.37756,0.36832 -0.38536,0.96861 -0.017,1.34618 l 11.6892,11.98273 h 1.38338 l 0.0269,-0.0264 c 0.37757,-0.36831 0.38537,-0.96912 0.0171,-1.34668 l -11.69904,-11.99256 c -0.18415,-0.18878 -0.42636,-0.28481 -0.66972,-0.28783 z" /><path
         id="path6133"
         style="opacity:1;fill:#ffffff;fill-opacity:1;stroke:none;stroke-width:1.22889;stroke-linecap:round;stroke-linejoin:round;stroke-dasharray:none;stroke-opacity:1"
         d="m 114.313,111.08149 c 0.24336,-0.003 0.48767,0.0871 0.67645,0.2713 l 0.0543,0.0532 c 0.37757,0.36832 0.38537,0.96861 0.017,1.34618 l -11.6892,11.98273 h -1.38338 l -0.0269,-0.0264 c -0.37756,-0.36831 -0.38536,-0.96912 -0.0171,-1.34668 l 11.69903,-11.99256 c 0.18415,-0.18878 0.42637,-0.28481 0.66972,-0.28783 z m 24.91953,34.18637 c 0.24336,-0.003 0.48767,0.0871 0.67645,0.2713 l 0.0543,0.0532 c 0.37757,0.36832 0.38537,0.96861 0.017,1.34618 l -11.6892,11.98273 h -1.38338 l -0.0269,-0.0264 c -0.37756,-0.36831 -0.38536,-0.96912 -0.0171,-1.34668 l 11.69903,-11.99256 c 0.18415,-0.18878 0.42637,-0.28481 0.66972,-0.28783 z"
         inkscape:original-d="m 114.313,111.08149 c 0.24336,-0.003 0.48767,0.0871 0.67645,0.2713 l 0.0543,0.0532 c 0.37757,0.36832 0.38537,0.96861 0.017,1.34618 l -11.6892,11.98273 h -1.38338 l -0.0269,-0.0264 c -0.37756,-0.36831 -0.38536,-0.96912 -0.0171,-1.34668 l 11.69903,-11.99256 c 0.18415,-0.18878 0.42637,-0.28481 0.66972,-0.28783 z" /></g></g></svg>
