<?xml version="1.0" encoding="UTF-8" standalone="no"?>
<!-- Created with Inkscape (http://www.inkscape.org/) -->

<svg
   width="200"
   height="200"
   viewBox="0 0 52.916669 52.916668"
   version="1.1"
   id="svg5"
   xml:space="preserve"
   inkscape:version="1.2 (dc2aedaf03, 2022-05-15)"
   sodipodi:docname="Array Tile_Tropical.svg"
   xmlns:inkscape="http://www.inkscape.org/namespaces/inkscape"
   xmlns:sodipodi="http://sodipodi.sourceforge.net/DTD/sodipodi-0.dtd"
   xmlns="http://www.w3.org/2000/svg"
   xmlns:svg="http://www.w3.org/2000/svg"><sodipodi:namedview
     id="namedview7"
     pagecolor="#505050"
     bordercolor="#ffffff"
     borderopacity="1"
     inkscape:showpageshadow="0"
     inkscape:pageopacity="0"
     inkscape:pagecheckerboard="1"
     inkscape:deskcolor="#505050"
     inkscape:document-units="mm"
     showgrid="false"
     showguides="false"
     inkscape:zoom="1.48"
     inkscape:cx="25.675676"
     inkscape:cy="151.35135"
     inkscape:window-width="1366"
     inkscape:window-height="705"
     inkscape:window-x="-8"
     inkscape:window-y="-8"
     inkscape:window-maximized="1"
     inkscape:current-layer="g1497" /><defs
     id="defs2"><inkscape:path-effect
       effect="tiling"
       id="path-effect4977"
       is_visible="true"
       lpeversion="1"
       unit="px"
       seed="1;1"
       lpesatellites=""
       num_rows="2"
       num_cols="1"
       gapx="78"
       gapy="-37"
       offset="55"
       offset_type="false"
       scale="0"
       rotate="0"
       mirrorrowsx="false"
       mirrorrowsy="false"
       mirrorcolsx="false"
       mirrorcolsy="false"
       mirrortrans="false"
       shrink_interp="false"
       split_items="false"
       link_styles="false"
       interpolate_scalex="false"
       interpolate_scaley="true"
       interpolate_rotatex="false"
       interpolate_rotatey="true"
       random_scale="false"
       random_rotate="false"
       random_gap_y="false"
       random_gap_x="false"
       transformorigin="matrix(1.0664444,0.37370627,-0.37370627,1.0664444,36.58336,-46.936515)" /><style
       id="style6175">.cls-1{fill:url(#linear-gradient);}.cls-2{fill:#ba2e7e;}.cls-3{fill:url(#linear-gradient-2);}.cls-4{fill:#ffcd05;}.cls-5{fill:#fabc2e;}.cls-6,.cls-7{fill-opacity:0.5;}.cls-6{fill:url(#radial-gradient);}.cls-7{fill:url(#radial-gradient-2);}.cls-8{fill:#9a1c25;}.cls-9{fill:#fff;}.cls-10{fill:#32160f;}.cls-11,.cls-13{fill:#61727c;}.cls-12{fill:#92a1ad;}.cls-13{opacity:0.25;}.cls-14{fill:#bc6234;}.cls-15{fill:#f6871f;}.cls-16{fill:#9e1f63;}.cls-17{fill:#f4fbfe;}</style></defs><g
     inkscape:label="Layer 1"
     inkscape:groupmode="layer"
     id="layer1"
     transform="translate(-102.46776,-92.246511)"><g
       id="g1497"
       transform="translate(-0.06133944)"><g
         id="g1549"
         transform="matrix(1.0664444,0.37370627,-0.37370627,1.0664444,41.186476,-46.656689)"
         inkscape:path-effect="#path-effect4977"
         class="UnoptimicedTransforms"><path
           id="rect608"
           style="display:inline;fill:#ffffff;stroke-width:1.63837;stroke-linecap:round;stroke-linejoin:round;stroke-miterlimit:9.4"
           d="m 108.78882,104.28866 0.45321,0.39222 0.45268,-0.39222 z m -1.76991,0.0718 c -0.89371,0.14576 -1.71286,0.5078 -2.40244,1.03095 l 1.90221,1.64641 1.79679,-1.55495 z m 4.40903,0.0315 -1.25987,1.09038 1.79679,1.55546 1.80144,-1.55908 c -0.66763,-0.53452 -1.46462,-0.91483 -2.33836,-1.08676 z m -7.69255,1.83968 c -0.5793,0.69126 -0.9885,1.52972 -1.16686,2.45257 l 1.02423,0.88677 1.99988,-1.73168 z m 5.50664,0.0527 -1.79679,1.55547 1.79679,1.55494 1.79679,-1.55546 z m 5.38158,0.0553 -1.73271,1.49965 2.00039,1.73168 0.83975,-0.72709 c -0.15234,-0.93791 -0.54242,-1.7938 -1.10743,-2.50424 z m -2.65875,2.30115 -1.79679,1.55546 2.00039,1.73168 1.79679,-1.55546 z m -5.44566,5.2e-4 -2.0004,1.73116 1.79679,1.55546 2.0004,-1.73168 z m 2.72283,2.35696 -2.0004,1.73116 2.0004,1.73116 1.99987,-1.73116 z m 5.64926,0.1757 -1.79679,1.55546 1.71205,1.48208 0.99632,-0.86196 0,-1.38648 z m -11.29853,5.2e-4 -1.125,0.97358 v 1.01647 l 1.20975,1.04697 1.71204,-1.48208 z m 2.72283,2.35644 -1.71204,1.48208 1.99988,1.73116 1.71256,-1.48156 z m 5.85236,5.2e-4 -1.99988,1.73116 1.71204,1.48208 2.00039,-1.73116 z m -8.49096,2.28358 -1.00252,0.86765 c 0.24983,0.88113 0.71593,1.66916 1.33687,2.30528 l 1.66553,-1.44177 z m 11.12956,0 -2.0004,1.73116 1.54978,1.34152 c 0.60685,-0.65458 1.05426,-1.45949 1.28054,-2.35438 z m -5.56452,0.24908 -1.71204,1.48208 1.71204,1.48208 1.71204,-1.48208 z m 2.63808,2.28358 -1.71152,1.48208 0.87074,0.75396 c 0.87877,-0.10801 1.69144,-0.42359 2.38745,-0.8971 z m -5.27668,5.2e-4 -1.63814,1.41748 c 0.71949,0.46178 1.55536,0.75922 2.45618,0.83819 l 0.894,-0.77359 z m 27.48307,-2.96679 0.45321,0.39222 0.45268,-0.39222 z m -1.76991,0.0718 c -0.89371,0.14576 -1.71286,0.5078 -2.40244,1.03095 l 1.90221,1.64641 1.79679,-1.55495 z m 4.40903,0.0315 -1.25987,1.09038 1.79679,1.55546 1.80144,-1.55908 c -0.66763,-0.53452 -1.46462,-0.91483 -2.33836,-1.08676 z m -7.69255,1.83968 c -0.5793,0.69126 -0.9885,1.52972 -1.16686,2.45257 l 1.02423,0.88677 1.99988,-1.73168 z m 5.50664,0.0527 -1.79679,1.55547 1.79679,1.55494 1.79679,-1.55546 z m 5.38158,0.0553 -1.73271,1.49965 2.00039,1.73168 0.83975,-0.72709 c -0.15234,-0.93791 -0.54242,-1.7938 -1.10743,-2.50424 z m -2.65875,2.30115 -1.79679,1.55546 2.00039,1.73168 1.79679,-1.55546 z m -5.44566,5.2e-4 -2.0004,1.73116 1.79679,1.55546 2.0004,-1.73168 z m 2.72283,2.35696 -2.0004,1.73116 2.0004,1.73116 1.99987,-1.73116 z m 5.64926,0.1757 -1.79679,1.55546 1.71205,1.48208 0.99632,-0.86196 v -1.38648 z m -11.29853,5.2e-4 -1.125,0.97358 v 1.01647 l 1.20975,1.04697 1.71204,-1.48208 z m 2.72283,2.35644 -1.71204,1.48208 1.99988,1.73116 1.71256,-1.48156 z m 5.85236,5.2e-4 -1.99988,1.73116 1.71204,1.48208 2.00039,-1.73116 z m -8.49096,2.28358 -1.00252,0.86765 c 0.24983,0.88113 0.71593,1.66916 1.33687,2.30528 l 1.66553,-1.44177 z m 11.12956,0 -2.0004,1.73116 1.54978,1.34152 c 0.60685,-0.65458 1.05426,-1.45949 1.28054,-2.35438 z m -5.56452,0.24908 -1.71204,1.48208 1.71204,1.48208 1.71204,-1.48208 z m 2.63808,2.28358 -1.71152,1.48208 0.87074,0.75396 c 0.87877,-0.10801 1.69144,-0.42359 2.38745,-0.8971 z m -5.27668,5.2e-4 -1.63814,1.41748 c 0.71949,0.46178 1.55536,0.75922 2.45618,0.83819 l 0.894,-0.77359 z"
           transform="translate(0.06133902)"
           inkscape:original-d="m 108.78882,104.28866 0.45321,0.39222 0.45268,-0.39222 z m -1.76991,0.0718 c -0.89371,0.14576 -1.71286,0.5078 -2.40244,1.03095 l 1.90221,1.64641 1.79679,-1.55495 z m 4.40903,0.0315 -1.25987,1.09038 1.79679,1.55546 1.80144,-1.55908 c -0.66763,-0.53452 -1.46462,-0.91483 -2.33836,-1.08676 z m -7.69255,1.83968 c -0.5793,0.69126 -0.9885,1.52972 -1.16686,2.45257 l 1.02423,0.88677 1.99988,-1.73168 z m 5.50664,0.0527 -1.79679,1.55547 1.79679,1.55494 1.79679,-1.55546 z m 5.38158,0.0553 -1.73271,1.49965 2.00039,1.73168 0.83975,-0.72709 c -0.15234,-0.93791 -0.54242,-1.7938 -1.10743,-2.50424 z m -2.65875,2.30115 -1.79679,1.55546 2.00039,1.73168 1.79679,-1.55546 z m -5.44566,5.2e-4 -2.0004,1.73116 1.79679,1.55546 2.0004,-1.73168 z m 2.72283,2.35696 -2.0004,1.73116 2.0004,1.73116 1.99987,-1.73116 z m 5.64926,0.1757 -1.79679,1.55546 1.71205,1.48208 0.99632,-0.86196 v -1.38648 z m -11.29853,5.2e-4 -1.125,0.97358 v 1.01647 l 1.20975,1.04697 1.71204,-1.48208 z m 2.72283,2.35644 -1.71204,1.48208 1.99988,1.73116 1.71256,-1.48156 z m 5.85236,5.2e-4 -1.99988,1.73116 1.71204,1.48208 2.00039,-1.73116 z m -8.49096,2.28358 -1.00252,0.86765 c 0.24983,0.88113 0.71593,1.66916 1.33687,2.30528 l 1.66553,-1.44177 z m 11.12956,0 -2.0004,1.73116 1.54978,1.34152 c 0.60685,-0.65458 1.05426,-1.45949 1.28054,-2.35438 z m -5.56452,0.24908 -1.71204,1.48208 1.71204,1.48208 1.71204,-1.48208 z m 2.63808,2.28358 -1.71152,1.48208 0.87074,0.75396 c 0.87877,-0.10801 1.69144,-0.42359 2.38745,-0.8971 z m -5.27668,5.2e-4 -1.63814,1.41748 c 0.71949,0.46178 1.55536,0.75922 2.45618,0.83819 l 0.894,-0.77359 z" /><path
           id="rect1484"
           style="fill:#ffffff;stroke-width:1.49325;stroke-linecap:round;stroke-linejoin:round;stroke-miterlimit:9.4"
           d="m 103.88494,96.167784 c 0.3613,-0.632507 6.70533,3.853116 6.53443,7.062536 h -3.1315 c 1.15548,-2.71326 -0.36205,-5.252048 -3.40293,-7.062536 z m 25.29768,11.092756 c 0.3613,-0.6325 6.70533,3.85312 6.53443,7.06254 h -3.1315 c 1.15548,-2.71326 -0.36205,-5.25205 -3.40293,-7.06254 z"
           sodipodi:nodetypes="cccc"
           inkscape:original-d="m 103.88494,96.167784 c 0.3613,-0.632507 6.70533,3.853116 6.53443,7.062536 h -3.1315 c 1.15548,-2.71326 -0.36205,-5.252048 -3.40293,-7.062536 z" /><path
           id="path1487"
           style="fill:#ffffff;stroke-width:1.49325;stroke-linecap:round;stroke-linejoin:round;stroke-miterlimit:9.4"
           d="m 114.50875,96.167784 c -0.3613,-0.632507 -6.70533,3.853116 -6.53443,7.062536 h 3.1315 c -1.15548,-2.71326 0.36205,-5.252048 3.40293,-7.062536 z m 25.29768,11.092756 c -0.3613,-0.6325 -6.70533,3.85312 -6.53443,7.06254 h 3.1315 c -1.15548,-2.71326 0.36205,-5.25205 3.40293,-7.06254 z"
           sodipodi:nodetypes="cccc"
           inkscape:original-d="m 114.50875,96.167784 c -0.3613,-0.632507 -6.70533,3.853116 -6.53443,7.062536 h 3.1315 c -1.15548,-2.71326 0.36205,-5.252048 3.40293,-7.062536 z" /><path
           id="path1489"
           style="fill:#ffffff;stroke-width:1.49325;stroke-linecap:round;stroke-linejoin:round;stroke-miterlimit:9.4"
           d="m 114.50875,94.44364 c -0.3613,-0.632507 -6.70533,3.853109 -6.53443,7.06253 l 2.4798,-0.30938 c -1.15549,-2.713247 1.01375,-4.942663 4.05463,-6.75315 z m 25.29768,11.09276 c -0.3613,-0.63251 -6.70533,3.85311 -6.53443,7.06253 l 2.4798,-0.30938 c -1.15549,-2.71325 1.01375,-4.94266 4.05463,-6.75315 z"
           sodipodi:nodetypes="cccc"
           inkscape:original-d="m 114.50875,94.44364 c -0.3613,-0.632507 -6.70533,3.853109 -6.53443,7.06253 l 2.4798,-0.30938 c -1.15549,-2.713247 1.01375,-4.942663 4.05463,-6.75315 z" /><path
           id="path1491"
           style="fill:#ffffff;stroke-width:1.49325;stroke-linecap:round;stroke-linejoin:round;stroke-miterlimit:9.4"
           d="m 103.88494,94.44364 c 0.3613,-0.632507 6.70533,3.853109 6.53443,7.06253 l -2.4798,0.0343 c 1.15549,-2.713245 -1.01375,-5.286411 -4.05463,-7.096899 z m 25.29768,11.09276 c 0.3613,-0.63251 6.70533,3.85311 6.53443,7.06253 l -2.4798,0.0343 c 1.15549,-2.71324 -1.01375,-5.28641 -4.05463,-7.0969 z"
           sodipodi:nodetypes="cccc"
           inkscape:original-d="m 103.88494,94.44364 c 0.3613,-0.632507 6.70533,3.853109 6.53443,7.06253 l -2.4798,0.0343 c 1.15549,-2.713245 -1.01375,-5.286411 -4.05463,-7.096899 z" /><path
           id="path1509"
           style="fill:#ffffff;stroke-width:1.49325;stroke-linecap:round;stroke-linejoin:round;stroke-miterlimit:9.4"
           d="m 109.19606,92.246511 1.37136,10.604329 -2.68716,0.18974 z m 25.29768,11.092759 1.37136,10.60433 -2.68716,0.18974 z"
           sodipodi:nodetypes="cccc"
           inkscape:original-d="m 109.19606,92.246511 1.37136,10.604329 -2.68716,0.18974 z" /></g></g></g></svg>
