<?xml version="1.0" encoding="UTF-8" standalone="no"?>
<!-- Created with Inkscape (http://www.inkscape.org/) -->

<svg
   width="200"
   height="200"
   viewBox="0 0 52.916666 52.916669"
   version="1.1"
   id="svg5"
   xml:space="preserve"
   inkscape:version="1.2 (dc2aedaf03, 2022-05-15)"
   sodipodi:docname="Array Tile_Bots.svg"
   xmlns:inkscape="http://www.inkscape.org/namespaces/inkscape"
   xmlns:sodipodi="http://sodipodi.sourceforge.net/DTD/sodipodi-0.dtd"
   xmlns="http://www.w3.org/2000/svg"
   xmlns:svg="http://www.w3.org/2000/svg"><sodipodi:namedview
     id="namedview7"
     pagecolor="#505050"
     bordercolor="#ffffff"
     borderopacity="1"
     inkscape:showpageshadow="0"
     inkscape:pageopacity="0"
     inkscape:pagecheckerboard="1"
     inkscape:deskcolor="#505050"
     inkscape:document-units="mm"
     showgrid="false"
     showguides="false"
     inkscape:zoom="1.9506277"
     inkscape:cx="46.138994"
     inkscape:cy="90.740022"
     inkscape:window-width="1366"
     inkscape:window-height="705"
     inkscape:window-x="-8"
     inkscape:window-y="-8"
     inkscape:window-maximized="1"
     inkscape:current-layer="layer1" /><defs
     id="defs2"><inkscape:path-effect
       effect="tiling"
       id="path-effect4826"
       is_visible="true"
       lpeversion="1"
       unit="px"
       seed="1;1"
       lpesatellites=""
       num_rows="2"
       num_cols="1"
       gapx="30"
       gapy="13"
       offset="55"
       offset_type="false"
       scale="0"
       rotate="0"
       mirrorrowsx="false"
       mirrorrowsy="false"
       mirrorcolsx="false"
       mirrorcolsy="false"
       mirrortrans="false"
       shrink_interp="false"
       split_items="false"
       link_styles="false"
       interpolate_scalex="false"
       interpolate_scaley="true"
       interpolate_rotatex="false"
       interpolate_rotatey="true"
       random_scale="false"
       random_rotate="false"
       random_gap_y="false"
       random_gap_x="false"
       transformorigin="matrix(1.2899347,0,0,1.2899347,-28.155597,-27.989675)" /><inkscape:path-effect
       effect="mirror_symmetry"
       start_point="109.17206,100.53287"
       end_point="109.17206,119.64893"
       center_point="109.17206,110.0909"
       id="path-effect15993"
       is_visible="true"
       lpeversion="1.2"
       lpesatellites=""
       mode="vertical"
       discard_orig_path="false"
       fuse_paths="false"
       oposite_fuse="false"
       split_items="false"
       split_open="false"
       link_styles="false" /><inkscape:path-effect
       effect="mirror_symmetry"
       start_point="109.17206,100.53287"
       end_point="109.17206,119.64893"
       center_point="109.17206,110.0909"
       id="path-effect15930"
       is_visible="true"
       lpeversion="1.2"
       lpesatellites=""
       mode="vertical"
       discard_orig_path="false"
       fuse_paths="false"
       oposite_fuse="false"
       split_items="false"
       split_open="false"
       link_styles="false" /><inkscape:path-effect
       effect="mirror_symmetry"
       start_point="112.6559,96.822052"
       end_point="112.6559,123.13667"
       center_point="112.6559,109.97936"
       id="path-effect15036"
       is_visible="true"
       lpeversion="1.2"
       lpesatellites=""
       mode="free"
       discard_orig_path="false"
       fuse_paths="false"
       oposite_fuse="false"
       split_items="false"
       split_open="false"
       link_styles="false" /><inkscape:path-effect
       effect="tiling"
       id="path-effect15029"
       is_visible="true"
       lpeversion="1"
       unit="px"
       seed="1;1"
       lpesatellites=""
       num_rows="1"
       num_cols="8"
       gapx="3"
       gapy="0"
       offset="0"
       offset_type="false"
       scale="0"
       rotate="0"
       mirrorrowsx="false"
       mirrorrowsy="false"
       mirrorcolsx="false"
       mirrorcolsy="false"
       mirrortrans="false"
       shrink_interp="false"
       split_items="false"
       link_styles="false"
       interpolate_scalex="false"
       interpolate_scaley="true"
       interpolate_rotatex="false"
       interpolate_rotatey="true"
       random_scale="false"
       random_rotate="false"
       random_gap_y="false"
       random_gap_x="false"
       transformorigin="" /><inkscape:path-effect
       effect="mirror_symmetry"
       start_point="109.17206,96.337853"
       end_point="109.17206,115.85145"
       center_point="109.17206,106.09465"
       id="path-effect14971"
       is_visible="true"
       lpeversion="1.2"
       lpesatellites=""
       mode="free"
       discard_orig_path="false"
       fuse_paths="false"
       oposite_fuse="false"
       split_items="false"
       split_open="false"
       link_styles="false" /><style
       id="style6175">.cls-1{fill:url(#linear-gradient);}.cls-2{fill:#ba2e7e;}.cls-3{fill:url(#linear-gradient-2);}.cls-4{fill:#ffcd05;}.cls-5{fill:#fabc2e;}.cls-6,.cls-7{fill-opacity:0.5;}.cls-6{fill:url(#radial-gradient);}.cls-7{fill:url(#radial-gradient-2);}.cls-8{fill:#9a1c25;}.cls-9{fill:#fff;}.cls-10{fill:#32160f;}.cls-11,.cls-13{fill:#61727c;}.cls-12{fill:#92a1ad;}.cls-13{opacity:0.25;}.cls-14{fill:#bc6234;}.cls-15{fill:#f6871f;}.cls-16{fill:#9e1f63;}.cls-17{fill:#f4fbfe;}</style></defs><g
     inkscape:label="Layer 1"
     inkscape:groupmode="layer"
     id="layer1"
     transform="translate(-97.110147,-96.537873)"><g
       id="g16002"
       inkscape:path-effect="#path-effect4826"
       class="UnoptimicedTransforms"
       transform="matrix(1.2899347,0,0,1.2899347,-27.996659,-27.7281)"><path
         style="opacity:1;fill:none;fill-opacity:1;stroke:#ffffff;stroke-width:1.14;stroke-linecap:round;stroke-linejoin:round;stroke-dasharray:none;stroke-opacity:1"
         id="rect14965"
         width="17.102791"
         height="11.663014"
         x="100.62067"
         y="103.81846"
         d="m 100.62067,103.81846 h 17.10279 v 11.66301 h -17.10279 z m 16.65248,21.10358 h 17.10279 v 11.66301 h -17.10279 z"
         sodipodi:type="rect" /><path
         style="opacity:1;fill:none;fill-opacity:1;stroke:#ffffff;stroke-width:0.54603;stroke-linecap:round;stroke-linejoin:round;stroke-dasharray:none;stroke-opacity:1"
         id="rect14967"
         width="11.337891"
         height="2.9187973"
         x="103.50312"
         y="110.99889"
         ry="0.3704569"
         d="m 103.87358,110.99889 h 10.59697 c 0.20524,0 0.37046,0.16523 0.37046,0.37046 v 2.17788 c 0,0.20524 -0.16522,0.37046 -0.37046,0.37046 h -10.59697 c -0.20524,0 -0.37046,-0.16522 -0.37046,-0.37046 v -2.17788 c 0,-0.20523 0.16522,-0.37046 0.37046,-0.37046 z m 16.65248,21.10358 h 10.59698 c 0.20523,0 0.37046,0.16523 0.37046,0.37046 v 2.17788 c 0,0.20524 -0.16523,0.37046 -0.37046,0.37046 h -10.59698 c -0.20523,0 -0.37046,-0.16522 -0.37046,-0.37046 v -2.17788 c 0,-0.20523 0.16523,-0.37046 0.37046,-0.37046 z"
         sodipodi:type="rect" /><path
         style="fill:none;fill-opacity:1;fill-rule:evenodd;stroke:#ffffff;stroke-width:0.852;stroke-dasharray:none;stroke-opacity:1"
         id="path14969"
         inkscape:path-effect="#path-effect14971"
         sodipodi:type="arc"
         sodipodi:cx="104.11076"
         sodipodi:cy="108.14882"
         sodipodi:rx="1.6339688"
         sodipodi:ry="1.6339688"
         d="m 105.74473,108.14882 c 0,0.90242 -0.73155,1.63397 -1.63397,1.63397 -0.90241,0 -1.63397,-0.73155 -1.63397,-1.63397 0,-0.90242 0.73156,-1.63397 1.63397,-1.63397 0.90242,0 1.63397,0.73155 1.63397,1.63397 z m 6.85466,0 c 0,0.90242 0.73155,1.63397 1.63397,1.63397 0.90241,0 1.63397,-0.73155 1.63397,-1.63397 0,-0.90242 -0.73156,-1.63397 -1.63397,-1.63397 -0.90242,0 -1.63397,0.73155 -1.63397,1.63397 z m 9.79783,21.10358 c 0,0.90241 -0.73156,1.63397 -1.63397,1.63397 -0.90242,0 -1.63397,-0.73156 -1.63397,-1.63397 0,-0.90242 0.73155,-1.63397 1.63397,-1.63397 0.90241,0 1.63397,0.73155 1.63397,1.63397 z m 6.85465,0 c 0,0.90241 0.73155,1.63397 1.63397,1.63397 0.90242,0 1.63397,-0.73156 1.63397,-1.63397 0,-0.90242 -0.73155,-1.63397 -1.63397,-1.63397 -0.90242,0 -1.63397,0.73155 -1.63397,1.63397 z"
         class="UnoptimicedTransforms"
         transform="translate(0,0.20001986)" /><path
         style="opacity:1;fill:#ffffff;fill-opacity:1;stroke:none;stroke-width:0.356975;stroke-linecap:round;stroke-linejoin:round;stroke-dasharray:none;stroke-opacity:1"
         id="rect15027"
         width="0.49849898"
         height="3.1017711"
         x="104.55685"
         y="110.7244"
         inkscape:path-effect="#path-effect15029"
         class="UnoptimicedTransforms"
         d="m 104.55685,110.7244 h 0.4985 v 3.10177 h -0.4985 z m 1.29225,0 h 0.49849 v 3.10177 h -0.49849 z m 1.29224,0 h 0.4985 v 3.10177 h -0.4985 z m 1.29225,0 h 0.4985 v 3.10177 h -0.4985 z m 1.29225,0 h 0.4985 v 3.10177 h -0.4985 z m 1.29225,0 h 0.4985 v 3.10177 h -0.4985 z m 1.29225,0 h 0.4985 v 3.10177 h -0.4985 z m 1.29225,0 h 0.4985 v 3.10177 h -0.4985 z m 7.60674,21.10358 h 0.4985 v 3.10177 h -0.4985 z m 1.29225,0 h 0.4985 v 3.10177 h -0.4985 z m 1.29225,0 h 0.4985 v 3.10177 h -0.4985 z m 1.29225,0 h 0.4985 v 3.10177 h -0.4985 z m 1.29225,0 h 0.4985 v 3.10177 h -0.4985 z m 1.29225,0 h 0.49849 v 3.10177 h -0.49849 z m 1.29224,0 h 0.4985 v 3.10177 h -0.4985 z m 1.29225,0 h 0.4985 v 3.10177 h -0.4985 z"
         sodipodi:type="rect"
         transform="translate(-0.15690749,0.09991766)" /><path
         id="path15031"
         style="fill:#ffffff;fill-opacity:1;fill-rule:evenodd;stroke-width:0.264583"
         d="m 99.462974,107.28317 c -1.895213,0.0426 -3.40979,1.5904 -3.411161,3.48609 0.0011,1.89589 1.515746,3.44405 3.411161,3.48661 z m 26.385856,0 c 1.89521,0.0426 3.40979,1.5904 3.41116,3.48609 -10e-4,1.89589 -1.51575,3.44405 -3.41116,3.48661 z m -3.46252,29.05058 c -1.89522,0.0426 -3.40979,1.5904 -3.41116,3.48609 0.001,1.89589 1.51574,3.44405 3.41116,3.48661 z m 26.38585,0 c 1.89521,0.0426 3.40979,1.5904 3.41116,3.48609 -0.001,1.89589 -1.51575,3.44405 -3.41116,3.48661 z"
         inkscape:path-effect="#path-effect15036"
         inkscape:original-d="m 99.462974,107.28317 a 3.4894927,3.4894927 0 0 0 -3.411161,3.48609 3.4894927,3.4894927 0 0 0 3.411161,3.48661 z"
         class="UnoptimicedTransforms"
         transform="matrix(0.72644253,0,0,0.72644253,27.334025,30.197213)" /><path
         id="path15038"
         style="fill:none;fill-rule:evenodd;stroke:#ffffff;stroke-width:1.013"
         d="m 111.48656,99.358871 c 0,1.278259 -1.03624,2.314499 -2.3145,2.314499 -1.27826,0 -2.3145,-1.03624 -2.3145,-2.314499 0,-1.278263 1.03624,-2.314499 2.3145,-2.314498 1.27826,-10e-7 2.3145,1.036235 2.3145,2.314498 z m 16.65248,21.103579 c 0,1.27826 -1.03623,2.3145 -2.3145,2.3145 -1.27826,0 -2.3145,-1.03624 -2.3145,-2.3145 0,-1.27826 1.03624,-2.3145 2.3145,-2.3145 1.27827,0 2.3145,1.03624 2.3145,2.3145 z"
         inkscape:original-d="m 111.48656,99.358871 a 2.3144989,2.3144989 0 0 1 -2.3145,2.314499 2.3144989,2.3144989 0 0 1 -2.3145,-2.314499 2.3144989,2.3144989 0 0 1 2.3145,-2.314498 2.3144989,2.3144989 0 0 1 2.3145,2.314498 z" /><path
         style="opacity:1;fill:#ffffff;fill-opacity:1;stroke:none;stroke-width:0.648716;stroke-linecap:round;stroke-linejoin:round;stroke-dasharray:none;stroke-opacity:1"
         id="rect15042"
         width="1.4836532"
         height="2.7501764"
         x="108.43023"
         y="101.67337"
         d="m 108.43023,101.67337 h 1.48365 v 2.75018 h -1.48365 z m 16.65248,21.10358 h 1.48366 v 2.75018 h -1.48366 z"
         sodipodi:type="rect" /></g></g></svg>
