<?xml version="1.0" encoding="UTF-8" standalone="no"?>
<!-- Created with Inkscape (http://www.inkscape.org/) -->

<svg
   width="200"
   height="200"
   viewBox="0 0 52.916667 52.916666"
   version="1.1"
   id="svg5"
   xml:space="preserve"
   inkscape:version="1.2 (dc2aedaf03, 2022-05-15)"
   sodipodi:docname="Array Tile_Dino.svg"
   inkscape:export-filename="Array Tile_Dino.png"
   inkscape:export-xdpi="96"
   inkscape:export-ydpi="96"
   xmlns:inkscape="http://www.inkscape.org/namespaces/inkscape"
   xmlns:sodipodi="http://sodipodi.sourceforge.net/DTD/sodipodi-0.dtd"
   xmlns="http://www.w3.org/2000/svg"
   xmlns:svg="http://www.w3.org/2000/svg"><sodipodi:namedview
     id="namedview7"
     pagecolor="#505050"
     bordercolor="#ffffff"
     borderopacity="1"
     inkscape:showpageshadow="0"
     inkscape:pageopacity="0"
     inkscape:pagecheckerboard="1"
     inkscape:deskcolor="#505050"
     inkscape:document-units="mm"
     showgrid="false"
     showguides="false"
     inkscape:zoom="1.7819091"
     inkscape:cx="49.946431"
     inkscape:cy="121.7795"
     inkscape:window-width="1366"
     inkscape:window-height="705"
     inkscape:window-x="-8"
     inkscape:window-y="-8"
     inkscape:window-maximized="1"
     inkscape:current-layer="layer1" /><defs
     id="defs2"><inkscape:path-effect
       effect="tiling"
       id="path-effect1730"
       is_visible="true"
       lpeversion="1"
       unit="px"
       seed="1;1"
       lpesatellites=""
       num_rows="2"
       num_cols="1"
       gapx="25"
       gapy="15"
       offset="55"
       offset_type="false"
       scale="0"
       rotate="0"
       mirrorrowsx="false"
       mirrorrowsy="false"
       mirrorcolsx="false"
       mirrorcolsy="false"
       mirrortrans="false"
       shrink_interp="false"
       split_items="false"
       link_styles="false"
       interpolate_scalex="false"
       interpolate_scaley="true"
       interpolate_rotatex="false"
       interpolate_rotatey="true"
       random_scale="false"
       random_rotate="false"
       random_gap_y="false"
       random_gap_x="false"
       transformorigin="matrix(1.1345928,0,0,1.1345928,-19.71409,-13.899676)" /><inkscape:path-effect
       effect="fillet_chamfer"
       id="path-effect4828"
       is_visible="true"
       lpeversion="1"
       nodesatellites_param="F,0,0,1,0,0.18793385,0,1 @ F,0,0,1,0,0,0,1 @ F,0,0,1,0,0,0,1 @ F,0,0,1,0,0,0,1 @ F,0,0,1,0,0,0,1 @ F,0,0,1,0,0,0,1 @ F,0,0,1,0,0,0,1 @ F,0,0,1,0,0,0,1 @ F,0,0,1,0,0,0,1 @ F,0,0,1,0,0.22104324,0,1"
       unit="px"
       method="auto"
       mode="F"
       radius="0"
       chamfer_steps="1"
       flexible="false"
       use_knot_distance="true"
       apply_no_radius="true"
       apply_with_radius="true"
       only_selected="false"
       hide_knots="false" /><inkscape:path-effect
       effect="fillet_chamfer"
       id="path-effect4826"
       is_visible="true"
       lpeversion="1"
       nodesatellites_param="F,0,0,1,0,0.71251645,0,1 @ F,0,0,1,0,1.9025966,0,1 @ F,0,0,1,0,0,0,1"
       unit="px"
       method="auto"
       mode="F"
       radius="0"
       chamfer_steps="1"
       flexible="false"
       use_knot_distance="true"
       apply_no_radius="true"
       apply_with_radius="true"
       only_selected="false"
       hide_knots="false" /><inkscape:path-effect
       effect="fillet_chamfer"
       id="path-effect4820"
       is_visible="true"
       lpeversion="1"
       nodesatellites_param="F,0,0,1,0,0.71251645,0,1 @ F,0,0,1,0,0,0,1 @ F,0,0,1,0,0,0,1"
       unit="px"
       method="auto"
       mode="F"
       radius="0"
       chamfer_steps="1"
       flexible="false"
       use_knot_distance="true"
       apply_no_radius="true"
       apply_with_radius="true"
       only_selected="false"
       hide_knots="false" /><inkscape:path-effect
       effect="fillet_chamfer"
       id="path-effect4818"
       is_visible="true"
       lpeversion="1"
       nodesatellites_param="F,0,0,1,0,0.46623562,0,1 @ F,0,0,1,0,0,0,1 @ F,0,0,1,0,0,0,1"
       unit="px"
       method="auto"
       mode="F"
       radius="0"
       chamfer_steps="1"
       flexible="false"
       use_knot_distance="true"
       apply_no_radius="true"
       apply_with_radius="true"
       only_selected="false"
       hide_knots="false" /><inkscape:path-effect
       effect="fillet_chamfer"
       id="path-effect4812"
       is_visible="true"
       lpeversion="1"
       nodesatellites_param="F,0,0,1,0,0.46623562,0,1 @ F,0,0,1,0,0,0,1 @ F,0,0,1,0,0,0,1"
       unit="px"
       method="auto"
       mode="F"
       radius="0"
       chamfer_steps="1"
       flexible="false"
       use_knot_distance="true"
       apply_no_radius="true"
       apply_with_radius="true"
       only_selected="false"
       hide_knots="false" /><inkscape:path-effect
       effect="fillet_chamfer"
       id="path-effect4805"
       is_visible="true"
       lpeversion="1"
       nodesatellites_param="F,0,0,1,0,0.83360766,0,1 @ F,0,0,1,0,0.6794988,0,1 @ F,0,0,1,0,0,0,1"
       unit="px"
       method="auto"
       mode="F"
       radius="0"
       chamfer_steps="1"
       flexible="false"
       use_knot_distance="true"
       apply_no_radius="true"
       apply_with_radius="true"
       only_selected="false"
       hide_knots="false" /><inkscape:path-effect
       effect="fillet_chamfer"
       id="path-effect4799"
       is_visible="true"
       lpeversion="1"
       nodesatellites_param="F,0,0,1,0,0.83360766,0,1 @ F,0,0,1,0,0,0,1 @ F,0,0,1,0,0,0,1"
       unit="px"
       method="auto"
       mode="F"
       radius="0"
       chamfer_steps="1"
       flexible="false"
       use_knot_distance="true"
       apply_no_radius="true"
       apply_with_radius="true"
       only_selected="false"
       hide_knots="false" /><inkscape:path-effect
       effect="fillet_chamfer"
       id="path-effect4793"
       is_visible="true"
       lpeversion="1"
       nodesatellites_param="F,0,0,1,0,0.83360766,0,1 @ F,0,0,1,0,0,0,1 @ F,0,0,1,0,0,0,1"
       unit="px"
       method="auto"
       mode="F"
       radius="0"
       chamfer_steps="1"
       flexible="false"
       use_knot_distance="true"
       apply_no_radius="true"
       apply_with_radius="true"
       only_selected="false"
       hide_knots="false" /><inkscape:path-effect
       effect="fillet_chamfer"
       id="path-effect4791"
       is_visible="true"
       lpeversion="1"
       nodesatellites_param="F,0,0,1,0,2.3930903,0,1 @ F,0,0,1,0,0.83357006,0,1 @ F,0,0,1,0,1.1541739,0,1"
       unit="px"
       method="auto"
       mode="F"
       radius="0"
       chamfer_steps="1"
       flexible="false"
       use_knot_distance="true"
       apply_no_radius="true"
       apply_with_radius="true"
       only_selected="false"
       hide_knots="false" /><inkscape:path-effect
       effect="simplify"
       id="path-effect3354"
       is_visible="true"
       lpeversion="1"
       steps="1"
       threshold="0.004294"
       smooth_angles="360"
       helper_size="0"
       simplify_individual_paths="false"
       simplify_just_coalesce="false" /><inkscape:path-effect
       effect="fillet_chamfer"
       id="path-effect2137"
       is_visible="true"
       lpeversion="1"
       nodesatellites_param="F,0,0,1,0,8,0,1 @ F,0,0,1,0,0,0,1 @ F,0,0,1,0,0,0,1 @ F,0,0,1,0,0,0,1 @ F,0,0,1,0,8,0,1 @ F,0,0,1,0,0,0,1 @ F,0,0,1,0,0,0,1 @ F,0,0,1,0,0,0,1 @ F,0,0,1,0,0,0,1 @ F,0,0,1,0,0,0,1"
       unit="px"
       method="auto"
       mode="F"
       radius="0"
       chamfer_steps="1"
       flexible="false"
       use_knot_distance="true"
       apply_no_radius="true"
       apply_with_radius="true"
       only_selected="false"
       hide_knots="false" /><inkscape:path-effect
       effect="mirror_symmetry"
       start_point="4.5560511,145.07496"
       end_point="-20.970424,169.23206"
       center_point="-8.2071863,157.15351"
       id="path-effect2078"
       is_visible="true"
       lpeversion="1.2"
       lpesatellites=""
       mode="vertical"
       discard_orig_path="false"
       fuse_paths="true"
       oposite_fuse="false"
       split_items="false"
       split_open="false"
       link_styles="false" /><inkscape:path-effect
       effect="fillet_chamfer"
       id="path-effect1953"
       is_visible="true"
       lpeversion="1"
       nodesatellites_param="F,0,0,1,0,0,0,1 @ F,0,0,1,0,0,0,1 @ F,0,0,1,0,0.68058242,0,1"
       unit="px"
       method="auto"
       mode="F"
       radius="0"
       chamfer_steps="1"
       flexible="false"
       use_knot_distance="true"
       apply_no_radius="true"
       apply_with_radius="true"
       only_selected="false"
       hide_knots="false" /><inkscape:path-effect
       effect="fillet_chamfer"
       id="path-effect1885"
       is_visible="true"
       lpeversion="1"
       nodesatellites_param="F,0,0,1,0,0.025729922,0,1 @ F,0,0,1,0,0,0,1 @ F,0,0,1,0,0.84764408,0,1 @ F,0,0,1,0,0.9288475,0,1"
       unit="px"
       method="auto"
       mode="F"
       radius="0"
       chamfer_steps="1"
       flexible="false"
       use_knot_distance="true"
       apply_no_radius="true"
       apply_with_radius="true"
       only_selected="false"
       hide_knots="false" /><inkscape:path-effect
       effect="mirror_symmetry"
       start_point="173.94468,87.823316"
       end_point="173.94468,111.88232"
       center_point="173.94468,99.852816"
       id="path-effect1828"
       is_visible="true"
       lpeversion="1.2"
       lpesatellites=""
       mode="vertical"
       discard_orig_path="false"
       fuse_paths="true"
       oposite_fuse="false"
       split_items="false"
       split_open="false"
       link_styles="false" /><inkscape:path-effect
       effect="fillet_chamfer"
       id="path-effect1818"
       is_visible="true"
       lpeversion="1"
       nodesatellites_param="F,0,0,1,0,0,0,1 @ F,0,0,1,0,2.6241049,0,1 @ F,0,0,1,0,0,0,1 @ F,0,0,1,0,1.443101,0,1 @ F,0,0,1,0,0,0,1 @ F,0,0,1,0,0,0,1 @ F,0,0,1,0,0.7857946,0,1 @ F,0,0,1,0,0,0,1 @ F,0,0,1,0,0,0,1 @ F,0,0,1,0,0,0,1"
       unit="px"
       method="auto"
       mode="F"
       radius="0"
       chamfer_steps="1"
       flexible="false"
       use_knot_distance="true"
       apply_no_radius="true"
       apply_with_radius="true"
       only_selected="false"
       hide_knots="false" /><inkscape:path-effect
       effect="mirror_symmetry"
       start_point="109.86484,87.18808"
       end_point="109.86484,140.10475"
       center_point="109.86484,113.64641"
       id="path-effect1649"
       is_visible="true"
       lpeversion="1.2"
       lpesatellites=""
       mode="vertical"
       discard_orig_path="false"
       fuse_paths="false"
       oposite_fuse="false"
       split_items="false"
       split_open="false"
       link_styles="false" /></defs><g
     inkscape:label="Layer 1"
     inkscape:groupmode="layer"
     id="layer1"
     transform="translate(-146.47212,-103.27208)"><g
       id="g5640"
       inkscape:path-effect="#path-effect1730"
       class="UnoptimicedTransforms"
       transform="matrix(1.4644028,0,0,1.4644028,-66.222795,-47.94566)"><path
         id="path5607"
         style="opacity:1;fill:#ffffff;fill-opacity:1;fill-rule:evenodd;stroke-width:0.264583"
         d="m 155.64393,103.27208 -3.58014,0.009 c -1.02841,0.003 -1.03979,0.21741 -1.66191,0.59531 -2.07713,1.26173 -4.30019,4.05837 -3.83181,6.30814 l -0.0315,2.13992 8.2305,0.0873 c 0.7077,0.008 0.553,-1.54864 6.83731,-0.66817 1.01482,0.14221 3.72614,2.20619 4.52479,-0.0455 0,-6.45101 -2.76004,-4.5151 -6.03219,-5.86889 -2.41767,-1.00027 -3.35016,-2.55995 -4.45503,-2.55695 z m -4.1894,1.68724 c 0.007,-1e-4 0.0135,-1e-4 0.0202,0 0.0264,3.9e-4 0.0518,0.002 0.076,0.005 0.0242,0.003 0.0473,0.007 0.0693,0.0124 0.022,0.005 0.0426,0.0123 0.0625,0.0202 0.0199,0.008 0.039,0.0168 0.0568,0.0269 0.0179,0.01 0.0347,0.0209 0.0506,0.0331 0.0159,0.0122 0.0309,0.0256 0.045,0.0398 0.0141,0.0142 0.0275,0.0294 0.0398,0.0455 0.0123,0.0161 0.0235,0.0328 0.0341,0.0506 0.0106,0.0179 0.0205,0.0368 0.0295,0.0563 0.009,0.0195 0.0169,0.0399 0.0243,0.061 0.007,0.0211 0.0142,0.0426 0.0202,0.0651 0.006,0.0225 0.0114,0.0459 0.016,0.0698 0.005,0.0238 0.009,0.0478 0.0119,0.0729 0.003,0.025 0.006,0.0509 0.008,0.077 0.002,0.0261 0.003,0.0525 0.004,0.0796 8.7e-4,0.0271 0.001,0.0547 0.001,0.0827 -2.1e-4,0.028 -8.5e-4,0.0566 -0.002,0.0853 -0.002,0.0574 -0.007,0.11603 -0.0129,0.1757 -0.006,0.0597 -0.0133,0.12035 -0.0222,0.18138 -0.009,0.061 -0.0193,0.12249 -0.0305,0.18397 -0.0112,0.0615 -0.0233,0.12297 -0.0362,0.18397 -0.0129,0.061 -0.0264,0.12126 -0.0403,0.18086 -0.0126,0.0538 -0.025,0.11117 -0.0367,0.17105 -0.0117,0.0599 -0.0228,0.12249 -0.0341,0.18707 -0.0227,0.12916 -0.0449,0.26634 -0.0687,0.40618 -0.0119,0.0699 -0.0243,0.14027 -0.0372,0.21084 -0.0129,0.0706 -0.0265,0.14149 -0.0408,0.21136 -0.0143,0.0699 -0.0293,0.13888 -0.0455,0.2067 -0.0162,0.0678 -0.0336,0.13452 -0.0522,0.19896 -0.009,0.0322 -0.019,0.064 -0.0289,0.0951 -0.01,0.0311 -0.0203,0.0616 -0.031,0.0915 -0.0107,0.0298 -0.0216,0.0589 -0.0331,0.0873 -0.0115,0.0284 -0.0233,0.0559 -0.0357,0.0827 -0.0123,0.0268 -0.0255,0.053 -0.0388,0.078 -0.0133,0.025 -0.0266,0.0487 -0.0408,0.0718 -0.0142,0.0231 -0.0292,0.0452 -0.0444,0.0661 -0.0153,0.021 -0.0312,0.0407 -0.0475,0.0594 -0.0163,0.0187 -0.0332,0.0365 -0.0506,0.0527 -0.0175,0.0162 -0.0356,0.0313 -0.0543,0.045 -0.0187,0.0136 -0.0379,0.0259 -0.0579,0.0367 -0.0199,0.0108 -0.0402,0.02 -0.0615,0.0279 -0.0212,0.008 -0.043,0.0144 -0.0656,0.0191 -0.0226,0.005 -0.0462,0.008 -0.0703,0.009 -0.024,0.001 -0.0489,0.001 -0.0744,-5.1e-4 -0.0255,-0.002 -0.0515,-0.006 -0.0786,-0.0114 -0.0192,-0.004 -0.0369,-0.009 -0.0532,-0.0145 -0.0163,-0.006 -0.0315,-0.0123 -0.045,-0.0196 -0.0135,-0.007 -0.0253,-0.0159 -0.0362,-0.0248 -0.0109,-0.009 -0.021,-0.0185 -0.0294,-0.0289 -0.008,-0.0105 -0.0155,-0.0217 -0.0217,-0.0336 -0.006,-0.0119 -0.0114,-0.0245 -0.0155,-0.0377 -0.004,-0.0133 -0.007,-0.0273 -0.009,-0.0419 -0.002,-0.0145 -0.004,-0.0297 -0.004,-0.0455 -4.8e-4,-0.0158 -4e-5,-0.0322 0.001,-0.0491 0.001,-0.0169 0.003,-0.0342 0.005,-0.0522 0.005,-0.0359 0.0124,-0.0739 0.0217,-0.11369 0.009,-0.0397 0.0207,-0.0811 0.0331,-0.12403 0.0123,-0.043 0.0259,-0.0877 0.0398,-0.13332 0.0139,-0.0456 0.0283,-0.0924 0.0424,-0.14004 0.0141,-0.0477 0.028,-0.0961 0.0408,-0.14521 0.0129,-0.0491 0.0244,-0.0988 0.0346,-0.14883 0.005,-0.025 0.01,-0.0498 0.0139,-0.0749 0.004,-0.0251 0.008,-0.0503 0.0109,-0.0755 0.003,-0.0251 0.005,-0.0504 0.007,-0.0754 0.002,-0.0251 0.003,-0.05 0.003,-0.0749 3.1e-4,-0.025 2.9e-4,-0.0502 -0.001,-0.0749 -0.001,-0.0248 -0.004,-0.0494 -0.007,-0.0739 -0.003,-0.0245 -0.007,-0.0487 -0.0124,-0.0729 -0.005,-0.0242 -0.0113,-0.0486 -0.0186,-0.0724 -0.007,-0.0238 -0.0157,-0.047 -0.0253,-0.0703 -0.01,-0.0233 -0.0209,-0.0465 -0.0331,-0.0692 -0.011,-0.0204 -0.0233,-0.041 -0.0367,-0.0615 -0.0134,-0.0205 -0.0279,-0.0409 -0.0434,-0.0615 -0.0155,-0.0206 -0.0318,-0.0413 -0.0491,-0.062 -0.0173,-0.0207 -0.0355,-0.0412 -0.0543,-0.062 -0.0376,-0.0416 -0.0779,-0.0835 -0.11937,-0.12557 -0.0415,-0.042 -0.0844,-0.0841 -0.12712,-0.12661 -0.0428,-0.0425 -0.0852,-0.0855 -0.12661,-0.12867 -0.0414,-0.0431 -0.0819,-0.0864 -0.11937,-0.13023 -0.0188,-0.0219 -0.037,-0.0436 -0.0543,-0.0656 -0.0173,-0.0221 -0.0336,-0.0444 -0.0491,-0.0667 -0.0155,-0.0222 -0.0301,-0.0447 -0.0434,-0.0672 -0.0134,-0.0224 -0.0253,-0.0451 -0.0362,-0.0677 -0.0109,-0.0226 -0.0203,-0.0454 -0.0284,-0.0682 -0.008,-0.0228 -0.0147,-0.0457 -0.0196,-0.0687 -0.005,-0.023 -0.009,-0.046 -0.0103,-0.0692 -0.002,-0.0233 -0.001,-0.0468 10e-4,-0.0703 0.001,-0.0118 0.003,-0.0233 0.005,-0.0351 0.002,-0.0118 0.005,-0.0238 0.008,-0.0357 0.003,-0.0119 0.007,-0.0237 0.0109,-0.0357 0.004,-0.0119 0.009,-0.0237 0.0145,-0.0357 0.005,-0.012 0.0115,-0.0241 0.0181,-0.0362 0.007,-0.0121 0.0134,-0.0241 0.0212,-0.0362 0.0155,-0.0242 0.0337,-0.0489 0.0543,-0.0734 0.0206,-0.0245 0.0438,-0.0491 0.0698,-0.0739 0.026,-0.0248 0.0546,-0.0494 0.0863,-0.0744 0.0317,-0.025 0.0661,-0.0501 0.10387,-0.0755 0.0378,-0.0253 0.0789,-0.0509 0.12299,-0.0765 0.0441,-0.0256 0.0913,-0.0511 0.14211,-0.077 0.0508,-0.0259 0.1054,-0.0523 0.1633,-0.0786 0.0579,-0.0262 0.11922,-0.0525 0.18448,-0.0791 0.0653,-0.0265 0.13427,-0.0533 0.20722,-0.0801 0.0388,-0.0143 0.0765,-0.0266 0.11266,-0.0377 0.0361,-0.0111 0.0708,-0.0209 0.10439,-0.0289 0.0336,-0.008 0.066,-0.0145 0.0971,-0.0196 0.0311,-0.005 0.0607,-0.009 0.0894,-0.0109 0.0215,-0.002 0.0423,-0.003 0.0625,-0.003 z m 2.30425,0.33021 c 0.28008,-0.002 0.56462,0.0545 0.8139,0.15244 4.48374,1.76214 4.04222,2.45851 3.86953,3.31918 -0.1781,0.88767 -1.16364,1.15755 -2.96932,1.15755 -0.90285,0 -2.19546,0.20913 -2.84324,-0.50281 -0.35002,-0.38468 0.0125,-1.05416 -0.12609,-1.55546 -0.53095,-1.92172 0.34029,-2.56329 1.25522,-2.5709 z m 9.46919,2.60139 c 0.37235,0.0119 0.81454,0.21967 1.33738,0.58549 0.69713,0.48775 1.25183,0.82953 0.38964,0.9555 -1.32144,0.19307 -1.12016,-0.28705 -1.74304,-0.86661 -0.19331,-0.17987 -0.76889,-0.45589 -0.33332,-0.6196 0.1089,-0.0409 0.22522,-0.0588 0.34934,-0.0548 z m 6.43489,15.18811 -3.58014,0.009 c -1.02841,0.003 -1.03979,0.21741 -1.66191,0.59531 -2.07713,1.26173 -4.30019,4.05837 -3.83181,6.30814 l -0.0315,2.13992 8.2305,0.0873 c 0.7077,0.008 0.553,-1.54864 6.83731,-0.66817 1.01482,0.14221 3.72614,2.20619 4.52479,-0.0455 0,-6.45101 -2.76004,-4.5151 -6.03219,-5.86889 -2.41767,-1.00027 -3.35016,-2.55995 -4.45503,-2.55695 z m -4.1894,1.68724 c 0.007,-1e-4 0.0135,-1e-4 0.0202,0 0.0264,3.9e-4 0.0518,0.002 0.076,0.005 0.0242,0.003 0.0473,0.007 0.0693,0.0124 0.022,0.005 0.0426,0.0123 0.0625,0.0202 0.0199,0.008 0.039,0.0168 0.0568,0.0269 0.0179,0.01 0.0347,0.0209 0.0506,0.0331 0.0159,0.0122 0.0309,0.0256 0.045,0.0398 0.0141,0.0142 0.0275,0.0294 0.0398,0.0455 0.0123,0.0161 0.0235,0.0328 0.0341,0.0506 0.0106,0.0179 0.0205,0.0368 0.0295,0.0563 0.009,0.0195 0.0169,0.0399 0.0243,0.061 0.007,0.0211 0.0142,0.0426 0.0202,0.0651 0.006,0.0225 0.0114,0.0459 0.016,0.0698 0.005,0.0238 0.009,0.0478 0.0119,0.0729 0.003,0.025 0.006,0.0509 0.008,0.077 0.002,0.0261 0.003,0.0525 0.004,0.0796 8.7e-4,0.0271 0.001,0.0547 0.001,0.0827 -2.1e-4,0.028 -8.5e-4,0.0566 -0.002,0.0853 -0.002,0.0574 -0.007,0.11603 -0.0129,0.1757 -0.006,0.0597 -0.0133,0.12035 -0.0222,0.18138 -0.009,0.061 -0.0193,0.12249 -0.0305,0.18397 -0.0112,0.0615 -0.0233,0.12297 -0.0362,0.18397 -0.0129,0.061 -0.0264,0.12126 -0.0403,0.18086 -0.0126,0.0538 -0.025,0.11117 -0.0367,0.17105 -0.0117,0.0599 -0.0228,0.12249 -0.0341,0.18707 -0.0227,0.12916 -0.0449,0.26634 -0.0687,0.40618 -0.0119,0.0699 -0.0243,0.14027 -0.0372,0.21084 -0.0129,0.0706 -0.0265,0.14149 -0.0408,0.21136 -0.0143,0.0699 -0.0293,0.13888 -0.0455,0.2067 -0.0162,0.0678 -0.0336,0.13452 -0.0522,0.19896 -0.009,0.0322 -0.019,0.064 -0.0289,0.0951 -0.01,0.0311 -0.0203,0.0616 -0.031,0.0915 -0.0107,0.0298 -0.0216,0.0589 -0.0331,0.0873 -0.0115,0.0284 -0.0233,0.0559 -0.0357,0.0827 -0.0123,0.0268 -0.0255,0.053 -0.0388,0.078 -0.0133,0.025 -0.0266,0.0487 -0.0408,0.0718 -0.0142,0.0231 -0.0292,0.0452 -0.0444,0.0661 -0.0153,0.021 -0.0312,0.0407 -0.0475,0.0594 -0.0163,0.0187 -0.0332,0.0365 -0.0506,0.0527 -0.0175,0.0162 -0.0356,0.0313 -0.0543,0.045 -0.0187,0.0136 -0.0379,0.0259 -0.0579,0.0367 -0.0199,0.0108 -0.0402,0.02 -0.0615,0.0279 -0.0212,0.008 -0.043,0.0144 -0.0656,0.0191 -0.0226,0.005 -0.0462,0.008 -0.0703,0.009 -0.024,0.001 -0.0489,0.001 -0.0744,-5.1e-4 -0.0255,-0.002 -0.0515,-0.006 -0.0786,-0.0114 -0.0192,-0.004 -0.0369,-0.009 -0.0532,-0.0145 -0.0163,-0.006 -0.0315,-0.0123 -0.045,-0.0196 -0.0135,-0.007 -0.0253,-0.0159 -0.0362,-0.0248 -0.0109,-0.009 -0.021,-0.0185 -0.0294,-0.0289 -0.008,-0.0105 -0.0155,-0.0217 -0.0217,-0.0336 -0.006,-0.0119 -0.0114,-0.0245 -0.0155,-0.0377 -0.004,-0.0133 -0.007,-0.0273 -0.009,-0.0419 -0.002,-0.0145 -0.004,-0.0297 -0.004,-0.0455 -4.8e-4,-0.0158 -4e-5,-0.0322 0.001,-0.0491 0.001,-0.0169 0.003,-0.0342 0.005,-0.0522 0.005,-0.0359 0.0124,-0.0739 0.0217,-0.11369 0.009,-0.0397 0.0207,-0.0811 0.0331,-0.12403 0.0123,-0.043 0.0259,-0.0877 0.0398,-0.13332 0.0139,-0.0456 0.0283,-0.0924 0.0424,-0.14004 0.0141,-0.0477 0.028,-0.0961 0.0408,-0.14521 0.0129,-0.0491 0.0244,-0.0988 0.0346,-0.14883 0.005,-0.025 0.01,-0.0498 0.0139,-0.0749 0.004,-0.0251 0.008,-0.0503 0.0109,-0.0755 0.003,-0.0251 0.005,-0.0504 0.007,-0.0754 0.002,-0.0251 0.003,-0.05 0.003,-0.0749 3.1e-4,-0.025 2.9e-4,-0.0502 -0.001,-0.0749 -10e-4,-0.0248 -0.004,-0.0494 -0.007,-0.0739 -0.003,-0.0245 -0.007,-0.0487 -0.0124,-0.0729 -0.005,-0.0242 -0.0113,-0.0486 -0.0186,-0.0724 -0.007,-0.0238 -0.0157,-0.047 -0.0253,-0.0703 -0.01,-0.0233 -0.0209,-0.0465 -0.0331,-0.0692 -0.011,-0.0204 -0.0233,-0.041 -0.0367,-0.0615 -0.0134,-0.0205 -0.0279,-0.0409 -0.0434,-0.0615 -0.0155,-0.0206 -0.0318,-0.0413 -0.0491,-0.062 -0.0173,-0.0207 -0.0355,-0.0412 -0.0543,-0.062 -0.0376,-0.0416 -0.0779,-0.0835 -0.11937,-0.12557 -0.0415,-0.042 -0.0844,-0.0841 -0.12712,-0.12661 -0.0428,-0.0425 -0.0852,-0.0855 -0.12661,-0.12867 -0.0414,-0.0431 -0.0819,-0.0864 -0.11937,-0.13023 -0.0188,-0.0219 -0.037,-0.0436 -0.0543,-0.0656 -0.0173,-0.0221 -0.0336,-0.0444 -0.0491,-0.0667 -0.0155,-0.0222 -0.0301,-0.0447 -0.0434,-0.0672 -0.0134,-0.0224 -0.0253,-0.0451 -0.0362,-0.0677 -0.0109,-0.0226 -0.0203,-0.0454 -0.0284,-0.0682 -0.008,-0.0228 -0.0147,-0.0457 -0.0196,-0.0687 -0.005,-0.023 -0.009,-0.046 -0.0103,-0.0692 -0.002,-0.0233 -0.001,-0.0468 0.001,-0.0703 0.001,-0.0118 0.003,-0.0233 0.005,-0.0351 0.002,-0.0118 0.005,-0.0238 0.008,-0.0357 0.003,-0.0119 0.007,-0.0237 0.0109,-0.0357 0.004,-0.0119 0.009,-0.0237 0.0145,-0.0357 0.005,-0.012 0.0115,-0.0241 0.0181,-0.0362 0.007,-0.0121 0.0134,-0.0241 0.0212,-0.0362 0.0155,-0.0242 0.0337,-0.0489 0.0543,-0.0734 0.0206,-0.0245 0.0438,-0.0491 0.0698,-0.0739 0.026,-0.0248 0.0546,-0.0494 0.0863,-0.0744 0.0317,-0.025 0.0661,-0.0501 0.10387,-0.0755 0.0378,-0.0253 0.0789,-0.0509 0.12299,-0.0765 0.0441,-0.0256 0.0913,-0.0511 0.14211,-0.077 0.0508,-0.0259 0.1054,-0.0523 0.1633,-0.0786 0.0579,-0.0262 0.11922,-0.0525 0.18448,-0.0791 0.0653,-0.0265 0.13427,-0.0533 0.20722,-0.0801 0.0388,-0.0143 0.0765,-0.0266 0.11266,-0.0377 0.0361,-0.0111 0.0708,-0.0209 0.10439,-0.0289 0.0336,-0.008 0.066,-0.0145 0.0971,-0.0196 0.0311,-0.005 0.0607,-0.009 0.0894,-0.0109 0.0215,-0.002 0.0423,-0.003 0.0625,-0.003 z m 2.30425,0.33021 c 0.28008,-0.002 0.56462,0.0545 0.8139,0.15244 4.48374,1.76214 4.04222,2.45851 3.86953,3.31918 -0.1781,0.88767 -1.16364,1.15755 -2.96932,1.15755 -0.90285,0 -2.19546,0.20913 -2.84324,-0.50281 -0.35002,-0.38468 0.0125,-1.05416 -0.12609,-1.55546 -0.53095,-1.92172 0.34029,-2.56329 1.25522,-2.5709 z m 9.46919,2.60139 c 0.37235,0.0119 0.81454,0.21967 1.33738,0.58549 0.69713,0.48775 1.25183,0.82953 0.38964,0.9555 -1.32144,0.19307 -1.12016,-0.28705 -1.74304,-0.86661 -0.19331,-0.17987 -0.76889,-0.45589 -0.33332,-0.6196 0.1089,-0.0409 0.22522,-0.0588 0.34934,-0.0548 z"
         inkscape:original-d="m 155.64393,103.27208 -3.58014,0.009 c -1.02841,0.003 -1.03979,0.21741 -1.66191,0.59531 -2.07713,1.26173 -4.30019,4.05837 -3.83181,6.30814 l -0.0315,2.13992 8.2305,0.0873 c 0.7077,0.008 0.553,-1.54864 6.83731,-0.66817 1.01482,0.14221 3.72614,2.20619 4.52479,-0.0455 0,-6.45101 -2.76004,-4.5151 -6.03219,-5.86889 -2.41767,-1.00027 -3.35016,-2.55995 -4.45503,-2.55695 z m -4.1894,1.68724 c 0.007,-1e-4 0.0135,-1e-4 0.0202,0 0.0264,3.9e-4 0.0518,0.002 0.076,0.005 0.0242,0.003 0.0473,0.007 0.0693,0.0124 0.022,0.005 0.0426,0.0123 0.0625,0.0202 0.0199,0.008 0.039,0.0168 0.0568,0.0269 0.0179,0.01 0.0347,0.0209 0.0506,0.0331 0.0159,0.0122 0.0309,0.0256 0.045,0.0398 0.0141,0.0142 0.0275,0.0294 0.0398,0.0455 0.0123,0.0161 0.0235,0.0328 0.0341,0.0506 0.0106,0.0179 0.0205,0.0368 0.0295,0.0563 0.009,0.0195 0.0169,0.0399 0.0243,0.061 0.007,0.0211 0.0142,0.0426 0.0202,0.0651 0.006,0.0225 0.0114,0.0459 0.016,0.0698 0.005,0.0238 0.009,0.0478 0.0119,0.0729 0.003,0.025 0.006,0.0509 0.008,0.077 0.002,0.0261 0.003,0.0525 0.004,0.0796 8.7e-4,0.0271 0.001,0.0547 0.001,0.0827 -2.1e-4,0.028 -8.5e-4,0.0566 -0.002,0.0853 -0.002,0.0574 -0.007,0.11603 -0.0129,0.1757 -0.006,0.0597 -0.0133,0.12035 -0.0222,0.18138 -0.009,0.061 -0.0193,0.12249 -0.0305,0.18397 -0.0112,0.0615 -0.0233,0.12297 -0.0362,0.18397 -0.0129,0.061 -0.0264,0.12126 -0.0403,0.18086 -0.0126,0.0538 -0.025,0.11117 -0.0367,0.17105 -0.0117,0.0599 -0.0228,0.12249 -0.0341,0.18707 -0.0227,0.12916 -0.0449,0.26634 -0.0687,0.40618 -0.0119,0.0699 -0.0243,0.14027 -0.0372,0.21084 -0.0129,0.0706 -0.0265,0.14149 -0.0408,0.21136 -0.0143,0.0699 -0.0293,0.13888 -0.0455,0.2067 -0.0162,0.0678 -0.0336,0.13452 -0.0522,0.19896 -0.009,0.0322 -0.019,0.064 -0.0289,0.0951 -0.01,0.0311 -0.0203,0.0616 -0.031,0.0915 -0.0107,0.0298 -0.0216,0.0589 -0.0331,0.0873 -0.0115,0.0284 -0.0233,0.0559 -0.0357,0.0827 -0.0123,0.0268 -0.0255,0.053 -0.0388,0.078 -0.0133,0.025 -0.0266,0.0487 -0.0408,0.0718 -0.0142,0.0231 -0.0292,0.0452 -0.0444,0.0661 -0.0153,0.021 -0.0312,0.0407 -0.0475,0.0594 -0.0163,0.0187 -0.0332,0.0365 -0.0506,0.0527 -0.0175,0.0162 -0.0356,0.0313 -0.0543,0.045 -0.0187,0.0136 -0.0379,0.0259 -0.0579,0.0367 -0.0199,0.0108 -0.0402,0.02 -0.0615,0.0279 -0.0212,0.008 -0.043,0.0144 -0.0656,0.0191 -0.0226,0.005 -0.0462,0.008 -0.0703,0.009 -0.024,0.001 -0.0489,0.001 -0.0744,-5.1e-4 -0.0255,-0.002 -0.0515,-0.006 -0.0786,-0.0114 -0.0192,-0.004 -0.0369,-0.009 -0.0532,-0.0145 -0.0163,-0.006 -0.0315,-0.0123 -0.045,-0.0196 -0.0135,-0.007 -0.0253,-0.0159 -0.0362,-0.0248 -0.0109,-0.009 -0.021,-0.0185 -0.0294,-0.0289 -0.008,-0.0105 -0.0155,-0.0217 -0.0217,-0.0336 -0.006,-0.0119 -0.0114,-0.0245 -0.0155,-0.0377 -0.004,-0.0133 -0.007,-0.0273 -0.009,-0.0419 -0.002,-0.0145 -0.004,-0.0297 -0.004,-0.0455 -4.8e-4,-0.0158 -4e-5,-0.0322 0.001,-0.0491 0.001,-0.0169 0.003,-0.0342 0.005,-0.0522 0.005,-0.0359 0.0124,-0.0739 0.0217,-0.11369 0.009,-0.0397 0.0207,-0.0811 0.0331,-0.12403 0.0123,-0.043 0.0259,-0.0877 0.0398,-0.13332 0.0139,-0.0456 0.0283,-0.0924 0.0424,-0.14004 0.0141,-0.0477 0.028,-0.0961 0.0408,-0.14521 0.0129,-0.0491 0.0244,-0.0988 0.0346,-0.14883 0.005,-0.025 0.01,-0.0498 0.0139,-0.0749 0.004,-0.0251 0.008,-0.0503 0.0109,-0.0755 0.003,-0.0251 0.005,-0.0504 0.007,-0.0754 0.002,-0.0251 0.003,-0.05 0.003,-0.0749 3.1e-4,-0.025 2.9e-4,-0.0502 -0.001,-0.0749 -0.001,-0.0248 -0.004,-0.0494 -0.007,-0.0739 -0.003,-0.0245 -0.007,-0.0487 -0.0124,-0.0729 -0.005,-0.0242 -0.0113,-0.0486 -0.0186,-0.0724 -0.007,-0.0238 -0.0157,-0.047 -0.0253,-0.0703 -0.01,-0.0233 -0.0209,-0.0465 -0.0331,-0.0692 -0.011,-0.0204 -0.0233,-0.041 -0.0367,-0.0615 -0.0134,-0.0205 -0.0279,-0.0409 -0.0434,-0.0615 -0.0155,-0.0206 -0.0318,-0.0413 -0.0491,-0.062 -0.0173,-0.0207 -0.0355,-0.0412 -0.0543,-0.062 -0.0376,-0.0416 -0.0779,-0.0835 -0.11937,-0.12557 -0.0415,-0.042 -0.0844,-0.0841 -0.12712,-0.12661 -0.0428,-0.0425 -0.0852,-0.0855 -0.12661,-0.12867 -0.0414,-0.0431 -0.0819,-0.0864 -0.11937,-0.13023 -0.0188,-0.0219 -0.037,-0.0436 -0.0543,-0.0656 -0.0173,-0.0221 -0.0336,-0.0444 -0.0491,-0.0667 -0.0155,-0.0222 -0.0301,-0.0447 -0.0434,-0.0672 -0.0134,-0.0224 -0.0253,-0.0451 -0.0362,-0.0677 -0.0109,-0.0226 -0.0203,-0.0454 -0.0284,-0.0682 -0.008,-0.0228 -0.0147,-0.0457 -0.0196,-0.0687 -0.005,-0.023 -0.009,-0.046 -0.0103,-0.0692 -0.002,-0.0233 -0.001,-0.0468 10e-4,-0.0703 0.001,-0.0118 0.003,-0.0233 0.005,-0.0351 0.002,-0.0118 0.005,-0.0238 0.008,-0.0357 0.003,-0.0119 0.007,-0.0237 0.0109,-0.0357 0.004,-0.0119 0.009,-0.0237 0.0145,-0.0357 0.005,-0.012 0.0115,-0.0241 0.0181,-0.0362 0.007,-0.0121 0.0134,-0.0241 0.0212,-0.0362 0.0155,-0.0242 0.0337,-0.0489 0.0543,-0.0734 0.0206,-0.0245 0.0438,-0.0491 0.0698,-0.0739 0.026,-0.0248 0.0546,-0.0494 0.0863,-0.0744 0.0317,-0.025 0.0661,-0.0501 0.10387,-0.0755 0.0378,-0.0253 0.0789,-0.0509 0.12299,-0.0765 0.0441,-0.0256 0.0913,-0.0511 0.14211,-0.077 0.0508,-0.0259 0.1054,-0.0523 0.1633,-0.0786 0.0579,-0.0262 0.11922,-0.0525 0.18448,-0.0791 0.0653,-0.0265 0.13427,-0.0533 0.20722,-0.0801 0.0388,-0.0143 0.0765,-0.0266 0.11266,-0.0377 0.0361,-0.0111 0.0708,-0.0209 0.10439,-0.0289 0.0336,-0.008 0.066,-0.0145 0.0971,-0.0196 0.0311,-0.005 0.0607,-0.009 0.0894,-0.0109 0.0215,-0.002 0.0423,-0.003 0.0625,-0.003 z m 2.30425,0.33021 c 0.28008,-0.002 0.56462,0.0545 0.8139,0.15244 4.48374,1.76214 4.04222,2.45851 3.86953,3.31918 -0.1781,0.88767 -1.16364,1.15755 -2.96932,1.15755 -0.90285,0 -2.19546,0.20913 -2.84324,-0.50281 -0.35002,-0.38468 0.0125,-1.05416 -0.12609,-1.55546 -0.53095,-1.92172 0.34029,-2.56329 1.25522,-2.5709 z m 9.46919,2.60139 c 0.37235,0.0119 0.81454,0.21967 1.33738,0.58549 0.69713,0.48775 1.25183,0.82953 0.38964,0.9555 -1.32144,0.19307 -1.12016,-0.28705 -1.74304,-0.86661 -0.19331,-0.17987 -0.76889,-0.45589 -0.33332,-0.6196 0.1089,-0.0409 0.22522,-0.0588 0.34934,-0.0548 z" /><path
         id="rect4788"
         style="opacity:1;fill:#ffffff;fill-opacity:1;stroke-width:1.18193;stroke-linecap:round"
         d="m 162.50917,113.29019 0.8616,-2.85861 h -2.20433 l 0.8616,2.85861 c 0.0718,0.23833 0.4093,0.23833 0.48113,0 z m 14.01893,19.80695 0.8616,-2.85861 h -2.20433 l 0.8616,2.85861 c 0.0718,0.23833 0.4093,0.23833 0.48113,0 z"
         sodipodi:nodetypes="cccc"
         inkscape:path-effect="#path-effect4793"
         inkscape:original-d="m 162.26861,114.08833 1.10216,-3.65675 h -2.20433 z" /><path
         id="path4795"
         style="opacity:1;fill:#ffffff;fill-opacity:1;stroke-width:1.18193;stroke-linecap:round"
         d="m 163.99691,113.69061 0.8616,-2.85861 h -2.20433 l 0.8616,2.85861 c 0.0718,0.23833 0.4093,0.23833 0.48113,0 z m 14.01893,19.80695 0.8616,-2.85861 h -2.20433 l 0.8616,2.85861 c 0.0718,0.23833 0.4093,0.23833 0.48113,0 z"
         sodipodi:nodetypes="cccc"
         inkscape:path-effect="#path-effect4799"
         inkscape:original-d="m 163.75635,114.48875 1.10216,-3.65675 h -2.20433 z" /><path
         id="path4801"
         style="opacity:1;fill:#ffffff;fill-opacity:1;stroke-width:1.18193;stroke-linecap:round"
         d="m 165.39691,113.29061 0.66551,-2.20802 c 0.0977,-0.32408 -0.14493,-0.65059 -0.48341,-0.65059 h -1.52483 l 0.8616,2.85861 c 0.0718,0.23833 0.4093,0.23833 0.48113,0 z m 14.01893,19.80695 0.66551,-2.20802 c 0.0977,-0.32408 -0.14493,-0.65059 -0.48341,-0.65059 h -1.52483 l 0.8616,2.85861 c 0.0718,0.23833 0.4093,0.23833 0.48113,0 z"
         sodipodi:nodetypes="cccc"
         inkscape:path-effect="#path-effect4805"
         inkscape:original-d="m 165.15635,114.08875 1.10216,-3.65675 h -2.20433 z" /><g
         id="g5628"
         inkscape:transform-center-x="-8.1060204"
         inkscape:transform-center-y="3.0317058"
         transform="rotate(7.4106773,147.26005,113.21141)"><path
           id="path4767"
           style="opacity:1;fill:#ffffff;fill-opacity:1;fill-rule:evenodd;stroke-width:0.18242"
           d="m 164.50074,115.15425 -2.73399,0.01 c -6.29822,0.0226 -6.29007,-2.21263 -6.99777,-2.20906 l -8.23051,0.0416 0.0314,1.01717 c 0.39723,1.51829 1.14583,1.82167 2.61383,2.54969 0.58012,0.2877 2.81837,0.88775 3.84185,0.98833 l 2.65067,0.26048 c 2.28715,0.22476 5.893,0.02 6.47467,-0.1256 0.84722,-0.21213 1.14572,-0.40108 2.36401,-1.85097 0.0784,-0.0934 0.14789,-0.26812 0.15551,-0.38996 l 0.007,-0.10461 c 0.006,-0.10153 -0.0745,-0.18726 -0.17621,-0.18689 z m 16.45654,17.83334 -2.73399,0.01 c -6.29822,0.0226 -6.29007,-2.21263 -6.99777,-2.20906 l -8.23051,0.0416 0.0314,1.01717 c 0.39723,1.51829 1.14583,1.82167 2.61383,2.54969 0.58012,0.2877 2.81837,0.88775 3.84185,0.98833 l 2.65067,0.26048 c 2.28715,0.22476 5.893,0.02 6.47467,-0.1256 0.84722,-0.21213 1.14572,-0.40108 2.36401,-1.85097 0.0784,-0.0934 0.14789,-0.26812 0.15551,-0.38996 l 0.007,-0.10461 c 0.006,-0.10153 -0.0745,-0.18726 -0.17621,-0.18689 z"
           sodipodi:nodetypes="cssccsssscc"
           inkscape:path-effect="#path-effect4828"
           inkscape:original-d="m 164.68867,115.15357 -2.92192,0.0105 c -6.29822,0.0226 -6.29007,-2.21263 -6.99777,-2.20906 l -8.23051,0.0416 0.0314,1.01717 c 0.39723,1.51829 1.14583,1.82167 2.61383,2.54969 0.58012,0.2877 2.81837,0.88775 3.84185,0.98833 l 2.65067,0.26048 c 2.28715,0.22476 5.893,0.02 6.47467,-0.1256 0.87915,-0.22012 1.16744,-0.41529 2.50573,-2.02032 z" /><path
           id="rect4807"
           style="opacity:1;fill:#ffffff;fill-opacity:1;stroke-width:1.497;stroke-linecap:round"
           d="m 159.76802,113.79185 0.88261,2.08252 h -2.12909 l 0.88261,-2.08252 c 0.0681,-0.16066 0.29578,-0.16066 0.36387,0 z m 16.45654,17.83334 0.88261,2.08252 -2.12909,0 0.88261,-2.08252 c 0.0681,-0.16066 0.29578,-0.16066 0.36387,0 z"
           sodipodi:nodetypes="cccc"
           inkscape:path-effect="#path-effect4812"
           inkscape:original-d="m 159.58608,113.36258 1.06455,2.51179 h -2.12909 z" /><path
           id="path4810"
           style="opacity:1;fill:#ffffff;fill-opacity:1;stroke-width:1.91801;stroke-linecap:round"
           d="m 157.77226,113.02598 0.49131,2.45291 -2.9766,-0.95383 1.82544,-1.71053 c 0.2268,-0.21251 0.59881,-0.0933 0.65985,0.21145 z m 16.45654,17.83334 0.49131,2.45291 -2.9766,-0.95383 1.82544,-1.71053 c 0.2268,-0.21251 0.59881,-0.0933 0.65985,0.21145 z"
           sodipodi:nodetypes="cccc"
           inkscape:path-effect="#path-effect4820"
           inkscape:original-d="m 157.63233,112.32734 0.63124,3.15155 -2.9766,-0.95383 z" /><path
           id="path4814"
           style="opacity:1;fill:#ffffff;fill-opacity:1;stroke-width:1.497;stroke-linecap:round"
           d="m 161.89712,114.29015 0.88261,2.08252 h -2.12909 l 0.88261,-2.08252 c 0.0681,-0.16066 0.29578,-0.16066 0.36387,0 z m 16.45654,17.83334 0.88261,2.08252 -2.12909,0 0.88261,-2.08252 c 0.0681,-0.16066 0.29578,-0.16066 0.36387,0 z"
           sodipodi:nodetypes="cccc"
           inkscape:path-effect="#path-effect4818"
           inkscape:original-d="m 161.71518,113.86088 1.06455,2.51179 h -2.12909 z" /><path
           id="path4822"
           style="opacity:1;fill:#ffffff;fill-opacity:1;stroke-width:1.91801;stroke-linecap:round"
           d="m 163.96422,114.27728 0.29128,0.52345 c 0.4149,0.74561 -0.12421,1.66254 -0.97748,1.66254 h -1.22309 l 1.21639,-2.18598 c 0.15113,-0.27159 0.54177,-0.27159 0.6929,-10e-6 z m 16.45654,17.83334 0.29128,0.52345 c 0.4149,0.74561 -0.12421,1.66254 -0.97748,1.66254 h -1.22309 l 1.21639,-2.18598 c 0.15113,-0.27159 0.54177,-0.27159 0.6929,-10e-6 z"
           sodipodi:nodetypes="cccc"
           inkscape:path-effect="#path-effect4826"
           inkscape:original-d="m 163.61777,113.65467 1.56285,2.8086 h -3.12569 z" /></g></g></g></svg>
