<?xml version="1.0" encoding="UTF-8" standalone="no"?>
<!-- Created with Inkscape (http://www.inkscape.org/) -->

<svg
   width="119.32708mm"
   height="121.70834mm"
   viewBox="0 0 119.32708 121.70834"
   version="1.1"
   id="svg1797"
   xml:space="preserve"
   inkscape:version="1.2 (dc2aedaf03, 2022-05-15)"
   sodipodi:docname="Highlighted Background_Spooky_Square Corners.svg"
   xmlns:inkscape="http://www.inkscape.org/namespaces/inkscape"
   xmlns:sodipodi="http://sodipodi.sourceforge.net/DTD/sodipodi-0.dtd"
   xmlns:xlink="http://www.w3.org/1999/xlink"
   xmlns="http://www.w3.org/2000/svg"
   xmlns:svg="http://www.w3.org/2000/svg"><sodipodi:namedview
     id="namedview1799"
     pagecolor="#505050"
     bordercolor="#ffffff"
     borderopacity="1"
     inkscape:showpageshadow="0"
     inkscape:pageopacity="0"
     inkscape:pagecheckerboard="1"
     inkscape:deskcolor="#505050"
     inkscape:document-units="mm"
     showgrid="false"
     inkscape:zoom="0.74934212"
     inkscape:cx="97.418786"
     inkscape:cy="401.68568"
     inkscape:window-width="1366"
     inkscape:window-height="705"
     inkscape:window-x="-8"
     inkscape:window-y="-8"
     inkscape:window-maximized="1"
     inkscape:current-layer="g11277" /><defs
     id="defs1794"><inkscape:path-effect
       effect="mirror_symmetry"
       start_point="69.608471,172.60554"
       end_point="69.608471,182.75412"
       center_point="69.608471,177.67983"
       id="path-effect26443"
       is_visible="true"
       lpeversion="1.2"
       lpesatellites=""
       mode="vertical"
       discard_orig_path="false"
       fuse_paths="false"
       oposite_fuse="false"
       split_items="false"
       split_open="false"
       link_styles="false" /><linearGradient
       inkscape:collect="always"
       id="linearGradient2703"><stop
         style="stop-color:#2c0527;stop-opacity:1;"
         offset="0"
         id="stop2699" /><stop
         style="stop-color:#9e0f8b;stop-opacity:1;"
         offset="1"
         id="stop2701" /></linearGradient><inkscape:path-effect
       effect="mirror_symmetry"
       start_point="100.27525,133.54234"
       end_point="100.27525,148.01968"
       center_point="100.27525,140.78101"
       id="path-effect2697"
       is_visible="true"
       lpeversion="1.2"
       lpesatellites=""
       mode="vertical"
       discard_orig_path="false"
       fuse_paths="false"
       oposite_fuse="false"
       split_items="false"
       split_open="false"
       link_styles="false" /><inkscape:path-effect
       effect="mirror_symmetry"
       start_point="93.53111,129.5501"
       end_point="93.53111,149.6054"
       center_point="93.53111,139.57775"
       id="path-effect2200"
       is_visible="true"
       lpeversion="1.2"
       lpesatellites=""
       mode="vertical"
       discard_orig_path="false"
       fuse_paths="false"
       oposite_fuse="false"
       split_items="false"
       split_open="false"
       link_styles="false" /><inkscape:path-effect
       effect="tiling"
       id="path-effect23881"
       is_visible="true"
       lpeversion="1"
       unit="px"
       seed="1;-1575518399"
       lpesatellites="#path23885 | #path23887"
       num_rows="1"
       num_cols="2"
       gapx="24"
       gapy="0"
       offset="-22"
       offset_type="true"
       scale="0"
       rotate="79"
       mirrorrowsx="false"
       mirrorrowsy="false"
       mirrorcolsx="false"
       mirrorcolsy="false"
       mirrortrans="false"
       shrink_interp="false"
       split_items="true"
       link_styles="false"
       interpolate_scalex="false"
       interpolate_scaley="true"
       interpolate_rotatex="false"
       interpolate_rotatey="false"
       random_scale="false"
       random_rotate="true"
       random_gap_y="false"
       random_gap_x="true"
       transformorigin="rotate(13.426126,48.01738,123.95761)" /><linearGradient
       inkscape:collect="always"
       id="linearGradient22002"><stop
         style="stop-color:#2c0527;stop-opacity:1;"
         offset="0"
         id="stop21998" /><stop
         style="stop-color:#9e0f8c;stop-opacity:1;"
         offset="1"
         id="stop22000" /></linearGradient><inkscape:path-effect
       effect="tiling"
       id="path-effect21528"
       is_visible="true"
       lpeversion="1"
       unit="px"
       seed="1;-1575518399"
       lpesatellites=""
       num_rows="1"
       num_cols="3"
       gapx="24"
       gapy="0"
       offset="-22"
       offset_type="true"
       scale="0"
       rotate="79"
       mirrorrowsx="false"
       mirrorrowsy="false"
       mirrorcolsx="false"
       mirrorcolsy="false"
       mirrortrans="false"
       shrink_interp="false"
       split_items="false"
       link_styles="false"
       interpolate_scalex="false"
       interpolate_scaley="true"
       interpolate_rotatex="false"
       interpolate_rotatey="false"
       random_scale="false"
       random_rotate="true"
       random_gap_y="false"
       random_gap_x="true"
       transformorigin="rotate(13.426126,48.01738,123.95761)" /><linearGradient
       inkscape:collect="always"
       id="linearGradient14481"><stop
         style="stop-color:#ffbb9d;stop-opacity:1;"
         offset="0"
         id="stop14477" /><stop
         style="stop-color:#fff0c4;stop-opacity:1;"
         offset="1"
         id="stop14479" /></linearGradient><linearGradient
       inkscape:collect="always"
       id="linearGradient9215"><stop
         style="stop-color:#610069;stop-opacity:1;"
         offset="0"
         id="stop9211" /><stop
         style="stop-color:#cb2c88;stop-opacity:1;"
         offset="1"
         id="stop9213" /></linearGradient><inkscape:path-effect
       effect="mirror_symmetry"
       start_point="69.608471,172.60554"
       end_point="69.608471,182.75412"
       center_point="69.608471,177.67983"
       id="path-effect8079"
       is_visible="true"
       lpeversion="1.2"
       lpesatellites=""
       mode="vertical"
       discard_orig_path="false"
       fuse_paths="false"
       oposite_fuse="false"
       split_items="false"
       split_open="false"
       link_styles="false" /><inkscape:path-effect
       effect="mirror_symmetry"
       start_point="103.97692,139.9594"
       end_point="103.97692,165.86641"
       center_point="103.97692,152.9129"
       id="path-effect6466"
       is_visible="true"
       lpeversion="1.2"
       lpesatellites=""
       mode="free"
       discard_orig_path="false"
       fuse_paths="true"
       oposite_fuse="false"
       split_items="false"
       split_open="false"
       link_styles="false" /><linearGradient
       inkscape:collect="always"
       id="linearGradient1843"><stop
         style="stop-color:#9e0f8b;stop-opacity:1;"
         offset="0"
         id="stop1839" /><stop
         style="stop-color:#4d0462;stop-opacity:1;"
         offset="1"
         id="stop1841" /></linearGradient><linearGradient
       inkscape:collect="always"
       xlink:href="#linearGradient1843"
       id="linearGradient1845"
       x1="103.63087"
       y1="130.07936"
       x2="103.05769"
       y2="92.617531"
       gradientUnits="userSpaceOnUse" /><linearGradient
       inkscape:collect="always"
       xlink:href="#linearGradient9215"
       id="linearGradient9217"
       x1="103.97691"
       y1="152.47414"
       x2="103.97691"
       y2="189.38972"
       gradientUnits="userSpaceOnUse"
       gradientTransform="matrix(1,0,0,1.2949441,0,-44.971344)" /><linearGradient
       inkscape:collect="always"
       xlink:href="#linearGradient14481"
       id="linearGradient14483"
       x1="123.82606"
       y1="84.182076"
       x2="117.58976"
       y2="109.43904"
       gradientUnits="userSpaceOnUse" /><filter
       style="color-interpolation-filters:sRGB;"
       inkscape:label="Drop Shadow"
       id="filter21053"
       x="-0.0020359627"
       y="-0.011812753"
       width="1.0491472"
       height="1.0129414"><feFlood
         flood-opacity="1"
         flood-color="rgb(255,117,254)"
         result="flood"
         id="feFlood21043" /><feComposite
         in="flood"
         in2="SourceGraphic"
         operator="in"
         result="composite1"
         id="feComposite21045" /><feGaussianBlur
         in="composite1"
         stdDeviation="0"
         result="blur"
         id="feGaussianBlur21047" /><feOffset
         dx="0.46729"
         dy="-0.2"
         result="offset"
         id="feOffset21049" /><feComposite
         in="SourceGraphic"
         in2="offset"
         operator="over"
         result="composite2"
         id="feComposite21051" /></filter><linearGradient
       inkscape:collect="always"
       xlink:href="#linearGradient22002"
       id="linearGradient22004"
       x1="68.426262"
       y1="125.10589"
       x2="100.99667"
       y2="181.72778"
       gradientUnits="userSpaceOnUse" /><linearGradient
       inkscape:collect="always"
       xlink:href="#linearGradient22002"
       id="linearGradient23883"
       gradientUnits="userSpaceOnUse"
       x1="68.426262"
       y1="125.10589"
       x2="100.99667"
       y2="181.72778" /><filter
       style="color-interpolation-filters:sRGB"
       inkscape:label="Drop Shadow"
       id="filter1818"
       x="0"
       y="-0.0066048026"
       width="1.0061954"
       height="1.0066048"><feFlood
         flood-opacity="1"
         flood-color="rgb(255,117,254)"
         result="flood"
         id="feFlood1808" /><feComposite
         in="flood"
         in2="SourceGraphic"
         operator="in"
         result="composite1"
         id="feComposite1810" /><feGaussianBlur
         in="composite1"
         stdDeviation="0"
         result="blur"
         id="feGaussianBlur1812" /><feOffset
         dx="0.46729"
         dy="-0.2"
         result="offset"
         id="feOffset1814" /><feComposite
         in="SourceGraphic"
         in2="offset"
         operator="over"
         result="composite2"
         id="feComposite1816" /></filter><linearGradient
       inkscape:collect="always"
       xlink:href="#linearGradient2703"
       id="linearGradient2705"
       x1="44.312342"
       y1="140.78102"
       x2="163.64149"
       y2="140.78102"
       gradientUnits="userSpaceOnUse" /><linearGradient
       inkscape:collect="always"
       xlink:href="#linearGradient2703"
       id="linearGradient4363"
       gradientUnits="userSpaceOnUse"
       x1="67.345047"
       y1="144.64857"
       x2="61.721951"
       y2="189.86206" /><linearGradient
       inkscape:collect="always"
       xlink:href="#linearGradient2703"
       id="linearGradient4365"
       gradientUnits="userSpaceOnUse"
       x1="49.845699"
       y1="150.04984"
       x2="26.438217"
       y2="192.64069" /></defs><g
     inkscape:label="Layer 1"
     inkscape:groupmode="layer"
     id="layer1"
     transform="translate(-44.313374,-78.569412)"><path
       id="path6439"
       style="display:none;opacity:0.606469;fill:#0a0309;fill-rule:evenodd;stroke-width:0.267674"
       d="m 75.274792,139.9605 c -9.222912,-0.0504 -21.957794,2.03426 -30.961418,6.97166 v 18.93425 h 59.663546 v -19.67115 c -8.630203,-4.3404 -20.165337,-6.18816 -28.702128,-6.23476 z"
       class="UnoptimicedTransforms"
       inkscape:label="hill original" /><g
       id="g23877"
       inkscape:label="Gravestone"
       transform="matrix(-1,0,0,1,207.95383,0.54761347)"
       style="display:none"
       sodipodi:insensitive="true"><path
         id="path23873"
         style="opacity:1;fill:url(#linearGradient23883);fill-opacity:1;stroke:#e7a66c;stroke-width:0.0422846;stroke-linecap:round;stroke-linejoin:round;stroke-miterlimit:9.4;stroke-dasharray:none;stroke-opacity:1"
         class="UnoptimicedTransforms"
         inkscape:label="Gravestone Back"
         d="m 72.376703,120.84869 c -1.345367,0.32138 -3.285493,1.89036 -3.285493,1.89036 -0.844967,0.46192 -1.033247,1.47706 -0.664951,2.36684 l 5.735567,13.85631 c 0.368301,0.88979 1.518554,1.12005 2.366733,0.66405 l 7.209181,-3.87491 c 0.848202,-0.45596 -0.304644,-0.73985 -0.813434,-1.55747 l -7.920033,-12.72735 c -0.508785,-0.8176 -1.552711,-0.75719 -2.366884,-0.66468 -0.08365,0.01 -0.170995,0.0254 -0.260686,0.0469 z m 20.517548,-0.24306 c -0.828651,0.21726 -1.492094,0.46846 -1.492094,0.46846 -0.946991,0.17479 -1.442666,1.08049 -1.370819,2.04079 l 1.118846,14.95439 c 0.07185,0.96031 1.092196,1.53899 2.040386,1.37084 l 8.05894,-1.42924 c 0.9482,-0.16812 -0.0583,-0.79781 -0.28618,-1.73346 l -3.54684,-14.56459 c -0.227851,-0.93564 -1.238074,-1.20432 -2.040387,-1.37084 -0.659437,-0.13689 -1.653202,0.0464 -2.481852,0.26365 z m -37.072003,8.91917 c -0.243873,0.0566 -0.459407,0.16996 -0.644161,0.32285 l 4.297886,18.00422 3.587624,-0.0304 c 0.962954,-0.008 0.07535,-0.79662 0.0062,-1.75713 l -1.077228,-14.95162 c -0.06919,-0.9605 -1.02097,-1.3937 -1.784452,-1.69124 -1.255032,-0.48916 -4.040785,0.0617 -4.040785,0.0617 -0.120359,0.002 -0.235245,0.0161 -0.345046,0.0416 z"
         transform="matrix(0.87055106,0.18458393,-0.20781405,0.77323803,23.262198,22.830646)"
         sodipodi:insensitive="true" /><path
         id="path23875"
         class="UnoptimicedTransforms"
         transform="matrix(1.0859496,0.2737309,-0.25923303,1.1466824,27.416913,-34.48512)"
         d="m 56.481357,129.44045 c 0,0 2.80176,-0.46039 4.040334,0.0691 0.75347,0.32206 1.690737,0.78535 1.728855,1.74758 l 0.593369,14.97878 c 0.03812,0.96224 0.900099,1.77882 -0.06262,1.75589 l -8.182415,-0.19488 c -0.962714,-0.0229 -1.848538,-0.79206 -1.728856,-1.74759 l 1.863747,-14.87989 c 0.119681,-0.95552 0.784729,-1.745 1.74758,-1.72886 z"
         style="opacity:1;fill:#0a0309;fill-opacity:1;stroke:#e7a66c;stroke-width:0.0422846;stroke-linecap:round;stroke-linejoin:round;stroke-miterlimit:9.4;stroke-dasharray:none;stroke-opacity:1;filter:url(#filter21053)"
         sodipodi:nodetypes="sassssssss"
         inkscape:path-effect="#path-effect23881"
         inkscape:original-d="m 56.428966,129.44689 c 0,0 2.79924,-0.47548 4.040647,0.0473 0.755194,0.31799 1.694943,0.77623 1.738243,1.73824 l 0.674035,14.97537 c 0.0433,0.96202 0.909667,1.77394 -0.05316,1.7562 l -8.183346,-0.15081 c -0.962823,-0.0177 -1.852777,-0.78209 -1.738243,-1.73825 l 1.783577,-14.88972 c 0.114533,-0.95615 0.775319,-1.7492 1.738243,-1.73824 z"
         inkscape:label="Gravestone Front"
         sodipodi:insensitive="true" /><path
         transform="matrix(1.0898024,-0.2579648,0.2988389,1.1370038,-31.421262,-7.5622195)"
         style="opacity:1;fill:#0a0309;fill-opacity:1;stroke:#e7a66c;stroke-width:0.0422846;stroke-linecap:round;stroke-linejoin:round;stroke-miterlimit:9.4;stroke-dasharray:none;stroke-opacity:1;filter:url(#filter21053)"
         class="UnoptimicedTransforms"
         id="path23885"
         d="m 56.481357,129.44045 c 0,0 2.80176,-0.46039 4.040334,0.0691 0.75347,0.32206 1.690737,0.78535 1.728855,1.74758 l 0.593369,14.97878 c 0.03812,0.96224 0.900099,1.77882 -0.06262,1.75589 l -8.182415,-0.19488 c -0.962714,-0.0229 -1.848538,-0.79206 -1.728856,-1.74759 l 1.863747,-14.87989 c 0.119681,-0.95552 0.784729,-1.745 1.74758,-1.72886 z" /><path
         transform="matrix(0.86474881,0.71163518,-0.72448755,0.92585101,145.83529,-28.997054)"
         style="display:none;opacity:1;fill:#0a0309;fill-opacity:1;stroke:#e7a66c;stroke-width:0.0422846;stroke-linecap:round;stroke-linejoin:round;stroke-miterlimit:9.4;stroke-dasharray:none;stroke-opacity:1;filter:url(#filter21053)"
         class="UnoptimicedTransforms"
         id="path23887"
         d="m 56.481357,129.44045 c 0,0 2.80176,-0.46039 4.040334,0.0691 0.75347,0.32206 1.690737,0.78535 1.728855,1.74758 l 0.593369,14.97878 c 0.03812,0.96224 0.900099,1.77882 -0.06262,1.75589 l -8.182415,-0.19488 c -0.962714,-0.0229 -1.848538,-0.79206 -1.728856,-1.74759 l 1.863747,-14.87989 c 0.119681,-0.95552 0.784729,-1.745 1.74758,-1.72886 z"
         inkscape:label="path23887" /></g><g
       id="g23871"
       inkscape:label="Gravestone"
       style="display:none"><path
         id="path21592"
         style="opacity:1;fill:url(#linearGradient22004);fill-opacity:1;stroke:#e7a66c;stroke-width:0.0422846;stroke-linecap:round;stroke-linejoin:round;stroke-miterlimit:9.4;stroke-dasharray:none;stroke-opacity:1"
         class="UnoptimicedTransforms"
         inkscape:label="Gravestone Back"
         d="m 72.376703,120.84869 c -1.345367,0.32138 -3.285493,1.89036 -3.285493,1.89036 -0.844967,0.46192 -1.033247,1.47706 -0.664951,2.36684 l 5.735567,13.85631 c 0.368301,0.88979 1.518554,1.12005 2.366733,0.66405 l 7.209181,-3.87491 c 0.848202,-0.45596 -0.304644,-0.73985 -0.813434,-1.55747 l -7.920033,-12.72735 c -0.508785,-0.8176 -1.552711,-0.75719 -2.366884,-0.66468 -0.08365,0.01 -0.170995,0.0254 -0.260686,0.0469 z m 20.517548,-0.24306 c -0.828651,0.21726 -1.492094,0.46846 -1.492094,0.46846 -0.946991,0.17479 -1.442666,1.08049 -1.370819,2.04079 l 1.118846,14.95439 c 0.07185,0.96031 1.092196,1.53899 2.040386,1.37084 l 8.05894,-1.42924 c 0.9482,-0.16812 -0.0583,-0.79781 -0.28618,-1.73346 l -3.54684,-14.56459 c -0.227851,-0.93564 -1.238074,-1.20432 -2.040387,-1.37084 -0.659437,-0.13689 -1.653202,0.0464 -2.481852,0.26365 z m -37.072003,8.91917 c -0.243873,0.0566 -0.459407,0.16996 -0.644161,0.32285 l 4.297886,18.00422 3.587624,-0.0304 c 0.962954,-0.008 0.07535,-0.79662 0.0062,-1.75713 l -1.077228,-14.95162 c -0.06919,-0.9605 -1.02097,-1.3937 -1.784452,-1.69124 -1.255032,-0.48916 -4.040785,0.0617 -4.040785,0.0617 -0.120359,0.002 -0.235245,0.0161 -0.345046,0.0416 z"
         transform="matrix(0.87055106,0.18458393,-0.20781405,0.77323803,23.262198,22.830646)" /><path
         id="rect16986"
         class="UnoptimicedTransforms"
         transform="matrix(1.0859496,0.2737309,-0.25923303,1.1466824,27.416913,-34.48512)"
         d="m 56.481357,129.44045 c 0,0 2.80176,-0.46039 4.040334,0.0691 0.75347,0.32206 1.690737,0.78535 1.728855,1.74758 l 0.593369,14.97878 c 0.03812,0.96224 0.900099,1.77882 -0.06262,1.75589 l -8.182415,-0.19488 c -0.962714,-0.0229 -1.848538,-0.79206 -1.728856,-1.74759 l 1.863747,-14.87989 c 0.119681,-0.95552 0.784729,-1.745 1.74758,-1.72886 z m 11.246051,-6.518 c 0,0 2.273648,-1.70069 3.616815,-1.80214 0.817082,-0.0618 1.862387,-0.0829 2.339993,0.75326 l 7.434771,13.01692 c 0.477611,0.83621 1.61905,1.1632 0.754263,1.58687 l -7.350089,3.60085 c -0.864765,0.4237 -2.005497,0.14976 -2.339998,-0.75327 l -5.208981,-14.06241 c -0.334497,-0.90303 -0.108515,-1.91025 0.753263,-2.33999 z m 28.66686,-1.55622 c 0,0 2.729713,0.78134 3.623132,1.7894 0.54352,0.61321 1.19283,1.43266 0.816,2.31886 l -5.865974,13.79516 c -0.376832,0.8862 0.05341,1.99286 -0.807133,1.56064 L 86.8463,137.15668 c -0.860557,-0.43218 -1.332616,-1.50618 -0.815994,-2.31887 l 8.045058,-12.65551 c 0.516617,-0.81268 1.4553,-1.24215 2.318862,-0.816 z"
         style="opacity:1;fill:#0a0309;fill-opacity:1;stroke:#e7a66c;stroke-width:0.0422846;stroke-linecap:round;stroke-linejoin:round;stroke-miterlimit:9.4;stroke-dasharray:none;stroke-opacity:1;filter:url(#filter21053)"
         sodipodi:nodetypes="sassssssss"
         inkscape:path-effect="#path-effect21528"
         inkscape:original-d="m 56.428966,129.44689 c 0,0 2.79924,-0.47548 4.040647,0.0473 0.755194,0.31799 1.694943,0.77623 1.738243,1.73824 l 0.674035,14.97537 c 0.0433,0.96202 0.909667,1.77394 -0.05316,1.7562 l -8.183346,-0.15081 c -0.962823,-0.0177 -1.852777,-0.78209 -1.738243,-1.73825 l 1.783577,-14.88972 c 0.114533,-0.95615 0.775319,-1.7492 1.738243,-1.73824 z"
         inkscape:label="Gravestone Front" /></g><g
       id="g12064"><g
         id="g11277"><rect
           style="opacity:1;fill:url(#linearGradient1845);fill-opacity:1;stroke-width:0.636184;stroke-linecap:round;stroke-linejoin:round"
           id="rect1837"
           width="119.32708"
           height="121.70834"
           x="44.313374"
           y="78.569412"
           ry="0"
           inkscape:label="bg" /><rect
           style="opacity:1;fill:#ca2c88;fill-opacity:1;stroke-width:0.114304;stroke-linecap:round;stroke-linejoin:round;stroke-miterlimit:9.4"
           id="rect77404"
           width="119.32915"
           height="14.007098"
           x="44.31234"
           y="186.27065" /><path
           id="path11110"
           style="opacity:1;fill:url(#linearGradient9217);fill-opacity:1;stroke-width:0.900629;stroke-linecap:round;stroke-linejoin:round"
           inkscape:label="bg overlay"
           d="M 44.313374 152.47394 L 44.313374 196.73326 C 44.313374 196.85599 44.319402 196.97709 44.331461 197.09654 C 44.343519 197.21599 44.361672 197.3334 44.385204 197.44898 C 44.408736 197.56456 44.4376 197.6784 44.472021 197.78953 C 44.506441 197.90065 44.546153 198.00951 44.590876 198.1156 C 44.6356 198.22169 44.685779 198.32468 44.740221 198.42515 C 44.794663 198.52561 44.853379 198.62337 44.916955 198.71763 C 44.98053 198.81189 45.048953 198.90302 45.121077 198.99049 C 45.193201 199.07795 45.269399 199.16155 45.349486 199.24163 C 45.429574 199.32172 45.513168 199.39792 45.600634 199.47004 C 45.6881 199.54217 45.779227 199.61059 45.873485 199.67416 C 45.967744 199.73774 46.065507 199.79697 46.165974 199.85141 C 46.266441 199.90586 46.369425 199.95552 46.475516 200.00024 C 46.581607 200.04497 46.690465 200.08468 46.801594 200.1191 C 46.912723 200.15352 47.02656 200.18238 47.142142 200.20592 C 47.257724 200.22945 47.375124 200.2476 47.494575 200.25966 C 47.614026 200.27172 47.735126 200.27775 47.85786 200.27775 L 160.09597 200.27775 C 160.2187 200.27775 160.33981 200.27172 160.45926 200.25966 C 160.57871 200.2476 160.69611 200.22945 160.81169 200.20592 C 160.92727 200.18238 161.04111 200.15352 161.15224 200.1191 C 161.26337 200.08468 161.37222 200.04497 161.47832 200.00024 C 161.58441 199.95552 161.68739 199.90586 161.78786 199.85141 C 161.88832 199.79697 161.98609 199.73774 162.08035 199.67416 C 162.1746 199.61059 162.26573 199.54217 162.3532 199.47004 C 162.44066 199.39792 162.52426 199.32172 162.60434 199.24163 C 162.68443 199.16155 162.76063 199.07795 162.83275 198.99049 C 162.90488 198.90302 162.9733 198.81189 163.03688 198.71763 C 163.10045 198.62337 163.15917 198.52561 163.21361 198.42515 C 163.26805 198.32468 163.31823 198.22169 163.36295 198.1156 C 163.40768 198.00951 163.44739 197.90065 163.48181 197.78953 C 163.51623 197.6784 163.5451 197.56456 163.56863 197.44898 C 163.59216 197.3334 163.61031 197.21599 163.62237 197.09654 C 163.63443 196.97709 163.64046 196.85599 163.64046 196.73326 L 163.64046 152.47394 L 44.313374 152.47394 z " /><g
           id="g7809"
           inkscape:label="shadows"
           transform="matrix(1,0,0,0.93903688,0,10.426173)"><ellipse
             style="display:inline;fill:#430c43;fill-opacity:1;fill-rule:evenodd;stroke-width:0.188292"
             id="ellipse9177"
             cx="103.97691"
             cy="175.91193"
             rx="23.646143"
             ry="9.7722092" /><ellipse
             style="display:inline;fill:#430c43;fill-opacity:1;fill-rule:evenodd;stroke-width:0.239677"
             id="path6489"
             cx="103.97691"
             cy="-170.92593"
             rx="38.313263"
             ry="9.7722092"
             transform="scale(1,-1)" /><ellipse
             style="display:inline;fill:#430c43;fill-opacity:1;fill-rule:evenodd;stroke-width:0.241275"
             id="ellipse7388"
             cx="103.97691"
             cy="-174.68428"
             rx="40.767006"
             ry="9.3068657"
             transform="scale(1,-1)" /><ellipse
             style="display:inline;fill:#3f0b36;fill-opacity:1;fill-rule:evenodd;stroke-width:0.179562"
             id="ellipse7390"
             cx="103.97691"
             cy="175.82684"
             rx="30.557541"
             ry="6.8770189" /></g><g
           id="g2695"
           inkscape:label="headstones back"
           inkscape:path-effect="#path-effect2697"
           class="UnoptimicedTransforms"
           style="fill-opacity:1;fill:url(#linearGradient2705)"><path
             style="display:inline;fill:url(#linearGradient2705);fill-opacity:1;stroke:none;stroke-width:0.0533631;stroke-linecap:round;stroke-linejoin:round;stroke-miterlimit:9.4"
             id="path2543"
             width="6.119525"
             height="9.8389435"
             x="125.49376"
             y="110.41637"
             ry="1.3251407"
             inkscape:label="headstone"
             transform="matrix(0.97146833,0.23716933,-0.24721837,0.96895979,0,0)"
             d="m 126.8189,110.41637 h 3.46924 c 0.73413,0 1.32514,0.59101 1.32514,1.32514 v 7.18866 c 0,0.73413 -0.59101,1.32514 -1.32514,1.32514 l -3.46924,0 c -0.73413,0 -1.32514,-0.59101 -1.32514,-1.32514 l 0,-7.18866 c 0,-0.73413 0.59101,-1.32514 1.32514,-1.32514 z m 15.64629,-3.8297 -3.0624,1.59873 c -0.64804,0.33831 -0.88658,1.13237 -0.53484,1.78041 l 3.44419,6.34563 c 0.35173,0.64804 1.1566,0.89739 1.80464,0.55908 l 3.0624,-1.59873 c 0.64803,-0.33831 0.88657,-1.13237 0.53484,-1.78041 l -3.4442,-6.34563 c -0.35173,-0.64804 -1.15659,-0.89739 -1.80463,-0.55908 z"
             sodipodi:type="rect" /><path
             style="display:inline;fill:url(#linearGradient4365);fill-opacity:1;stroke:none;stroke-width:0.0533631;stroke-linecap:round;stroke-linejoin:round;stroke-miterlimit:9.4"
             id="path2685"
             width="6.119525"
             height="9.8389435"
             x="1.630255"
             y="151.46729"
             ry="1.3251407"
             inkscape:label="headstone"
             transform="matrix(0.89679634,-0.44244358,0.43313148,0.90133075,0,0)"
             d="m 2.9553957,151.46729 h 3.4692435 c 0.734128,0 1.3251407,0.59101 1.3251407,1.32514 l 0,7.18866 c 0,0.73413 -0.5910127,1.32514 -1.3251407,1.32514 H 2.9553957 c -0.734128,0 -1.3251407,-0.59101 -1.3251407,-1.32514 l 0,-7.18866 c 0,-0.73413 0.5910127,-1.32514 1.3251407,-1.32514 z m 64.3968243,31.61099 -2.139507,-2.75321 c -0.452742,-0.58261 -1.278705,-0.68716 -1.851935,-0.23442 l -5.613132,4.4333 c -0.57323,0.45274 -0.67023,1.28625 -0.217488,1.86886 l 2.139506,2.75321 c 0.452742,0.58261 1.278705,0.68716 1.851935,0.23442 l 5.613133,-4.4333 c 0.57323,-0.45274 0.67023,-1.28625 0.217488,-1.86886 z"
             sodipodi:type="rect" /><path
             id="path2687"
             style="display:inline;fill:url(#linearGradient4363);fill-opacity:1;stroke:none;stroke-width:0.0533631;stroke-linecap:round;stroke-linejoin:round;stroke-miterlimit:9.4"
             inkscape:label="headstone"
             d="m 15.36828,141.40484 c -0.145177,-0.0372 -0.296951,-0.0571 -0.454037,-0.0571 l -3.163955,-1.5e-4 -3.0233379,12.55388 c 0.3110316,0.55017 0.9005565,0.92024 1.5801189,0.92024 l 4.606866,5e-5 c 1.00535,0 1.814751,-0.80928 1.814751,-1.81463 l -1.05e-4,-9.84468 c 0,-0.84827 -0.576349,-1.55683 -1.360301,-1.7576 z m 109.2288,28.312 c 0.14497,0.038 0.28794,0.0945 0.42657,0.17114 l 2.79223,1.54369 -3.02334,12.55388 c -0.52391,0.33375 -1.21193,0.37268 -1.81164,0.0411 l -4.06553,-2.24783 c -0.88721,-0.49055 -1.23461,-1.59967 -0.77883,-2.48688 l 4.46326,-8.68778 c 0.38457,-0.74859 1.21443,-1.09267 1.99728,-0.88732 z"
             transform="matrix(0.96771116,-0.25206172,0.23305284,0.97246407,0,0)"
             inkscape:original-d="M 15.36828 141.40484 C 15.223103 141.36766 15.071329 141.34773 14.914243 141.34773 L 11.750288 141.34758 L 8.7269501 153.90146 C 9.0379817 154.45163 9.6275066 154.8217 10.307069 154.8217 L 14.913935 154.82175 C 15.919285 154.82175 16.728686 154.01247 16.728686 153.00712 L 16.728581 143.16244 C 16.728581 142.31417 16.152232 141.60561 15.36828 141.40484 z " /></g><g
           id="g2190"
           inkscape:label="headstones front"
           inkscape:path-effect="#path-effect2200"
           class="UnoptimicedTransforms"><g
             id="g2533"><path
               style="display:inline;fill:#0a0309;fill-opacity:1;stroke:none;stroke-width:0.0533631;stroke-linecap:round;stroke-linejoin:round;stroke-miterlimit:9.4;filter:url(#filter1818)"
               id="rect562"
               width="13.333425"
               height="22.103027"
               x="53.675053"
               y="127.86539"
               ry="2.976907"
               inkscape:label="headstone"
               transform="matrix(0.82460971,0.14119114,-0.13584841,0.8570405,28.066132,12.000615)"
               d="m 56.65196,127.86539 7.37961,0 c 1.649207,0 2.976907,1.3277 2.976907,2.9769 v 16.14922 c 0,1.6492 -1.3277,2.9769 -2.976907,2.9769 h -7.37961 c -1.649207,0 -2.976907,-1.3277 -2.976907,-2.9769 v -16.14922 c 0,-1.6492 1.3277,-2.9769 2.976907,-2.9769 z m 109.9549,-18.11427 -6.98963,2.36723 c -1.56205,0.52903 -2.39369,2.21247 -1.86466,3.77452 l 5.18034,15.29579 c 0.52903,1.56205 2.21246,2.39369 3.77452,1.86466 l 6.98962,-2.36723 c 1.56206,-0.52903 2.39369,-2.21246 1.86466,-3.77452 l -5.18033,-15.29579 c -0.52903,-1.56205 -2.21247,-2.39369 -3.77452,-1.86466 z"
               sodipodi:type="rect" /><path
               style="fill:#0a0309;fill-opacity:1;stroke:none;stroke-width:0.0533631;stroke-linecap:round;stroke-linejoin:round;stroke-miterlimit:9.4;filter:url(#filter1818)"
               id="rect2183"
               width="13.333425"
               height="22.103027"
               x="53.675053"
               y="127.86539"
               ry="2.976907"
               inkscape:label="headstone"
               transform="matrix(0.73569288,-0.08029274,0.09163407,0.77204094,19.488653,37.216467)"
               d="m 56.65196,127.86539 7.37961,0 c 1.649207,0 2.976907,1.3277 2.976907,2.9769 v 16.14922 c 0,1.6492 -1.3277,2.9769 -2.976907,2.9769 h -7.37961 c -1.649207,0 -2.976907,-1.3277 -2.976907,-2.9769 l 0,-16.14922 c 0,-1.6492 1.3277,-2.9769 2.976907,-2.9769 z m 83.44615,8.67845 -7.19086,-1.51534 c -1.60703,-0.33865 -3.22729,0.68246 -3.63287,2.28949 l -3.97147,15.73617 c -0.40558,1.60703 0.56165,3.17341 2.16867,3.51206 l 7.19087,1.51533 c 1.60703,0.33865 3.22728,-0.68246 3.63286,-2.28948 l 3.97148,-15.73618 c 0.40558,-1.60703 -0.56165,-3.1734 -2.16868,-3.51205 z"
               sodipodi:type="rect" /><path
               style="fill:#0a0309;fill-opacity:1;stroke:none;stroke-width:0.0533631;stroke-linecap:round;stroke-linejoin:round;stroke-miterlimit:9.4;filter:url(#filter1818)"
               id="rect2185"
               width="13.333425"
               height="22.103027"
               x="53.675053"
               y="127.86539"
               ry="2.976907"
               inkscape:label="headstone"
               transform="matrix(0.44278537,0.1875858,-0.19664827,0.4331519,89.465367,69.183855)"
               d="m 56.65196,127.86539 h 7.37961 c 1.649207,0 2.976907,1.3277 2.976907,2.9769 l 0,16.14922 c 0,1.6492 -1.3277,2.9769 -2.976907,2.9769 h -7.37961 c -1.649207,0 -2.976907,-1.3277 -2.976907,-2.9769 l 0,-16.14922 c 0,-1.6492 1.3277,-2.9769 2.976907,-2.9769 z m 55.2001,-23.9056 -4.99882,5.36075 c -1.11714,1.19802 -1.02743,3.06186 0.20116,4.179 l 12.0304,10.93919 c 1.22858,1.11714 3.11702,1.05203 4.23416,-0.146 l 4.99881,-5.36075 c 1.11715,-1.19802 1.02743,-3.06186 -0.20115,-4.179 l -12.0304,-10.93919 c -1.22858,-1.11714 -3.11702,-1.05203 -4.23416,0.146 z"
               sodipodi:type="rect" /></g></g><path
           id="path8081"
           style="opacity:1;fill:#ff75fe;fill-opacity:1;fill-rule:evenodd;stroke-width:0.267674"
           class="UnoptimicedTransforms"
           inkscape:label="hill highlight"
           d="m 74.839676,139.95895 c -9.185044,0.0163 -21.664446,2.1125 -30.527336,6.9727 v 5.95829 h 119.32812 v -5.95829 c -8.86288,-4.8602 -21.3423,-6.9564 -30.52734,-6.9727 -0.14579,0 -0.28945,0.001 -0.43356,0.002 -8.53675,0.0466 -20.07298,1.89385 -28.70316,6.23425 -8.630173,-4.3404 -20.164354,-6.18765 -28.701092,-6.23425 -0.144107,-7.9e-4 -0.289837,-0.002 -0.435632,-0.002 z"
           transform="translate(0,-1.229538)" /><path
           id="path5189"
           style="opacity:1;fill:#0a0309;fill-rule:evenodd;stroke-width:0.267674"
           class="UnoptimicedTransforms"
           d="m 74.839844,139.95898 c -9.185053,0.0163 -21.664446,2.11246 -30.527344,6.97266 v 18.93555 h 11.228516 c -2.530948,-2.00414 -4.174979,-4.47036 -5.183594,-5.8086 -0.474756,-0.62991 -0.410815,-0.79569 0.375,-0.58398 12.654352,3.40925 18.036967,3.72179 23.732422,5.49219 -0.675197,-1.23951 -1.832335,-3.18299 -2.78711,-4.5625 -0.679941,-0.98241 -0.513173,-1.2945 0.625,-0.88282 5.098096,1.84399 8.030898,3.18312 10.53711,4.42188 -0.380186,-2.10069 -0.36754,-3.55116 -0.390625,-4.33789 -0.01169,-0.39844 0.05927,-1.00173 0.404297,-0.9043 0.65039,0.18366 1.78208,0.79011 3.197265,1.66211 -0.406997,-0.56089 -0.793983,-1.11092 -1.154297,-1.63281 -1.5974,-2.31369 -0.978808,-3.22924 1.69336,-2.25781 5.869652,2.13383 10.418789,3.90181 14.216796,5.46289 -0.25994,-0.9704 -0.49685,-2.08104 -0.68945,-3.01367 -0.232648,-1.12656 0.20468,-1.38523 1.00976,-0.55079 1.3057,1.35334 2.12169,2.39609 2.84961,3.38282 0.72792,-0.98673 1.54391,-2.02948 2.84961,-3.38282 0.80508,-0.83444 1.24241,-0.57577 1.00977,0.55079 -0.1926,0.93263 -0.42756,2.04327 -0.6875,3.01367 3.79801,-1.56108 8.34714,-3.32906 14.21679,-5.46289 2.67217,-0.97143 3.28881,-0.0559 1.69141,2.25781 -0.36031,0.52189 -0.74535,1.07192 -1.15234,1.63281 1.41518,-0.872 2.54492,-1.47845 3.19531,-1.66211 0.34503,-0.0974 0.41599,0.50586 0.4043,0.9043 -0.0231,0.78673 -0.008,2.2372 -0.38868,4.33789 2.50622,-1.23876 5.43706,-2.57789 10.53516,-4.42188 1.13817,-0.41168 1.30689,-0.0996 0.62695,0.88282 -0.95477,1.37951 -2.11386,3.32299 -2.78906,4.5625 5.69546,-1.7704 11.08002,-2.08294 23.73438,-5.49219 0.78581,-0.21171 0.84975,-0.0459 0.375,0.58398 -1.00862,1.33824 -2.65265,3.80446 -5.1836,5.8086 h 11.22656 v -18.93555 c -8.86289,-4.8602 -21.34229,-6.95639 -30.52734,-6.97266 -0.14579,-2.5e-4 -0.28948,0.001 -0.43359,0.002 -8.53675,0.0466 -20.07294,1.89397 -28.70313,6.23437 -8.630181,-4.3404 -20.164423,-6.18777 -28.701169,-6.23437 -0.144108,-7.9e-4 -0.289752,-0.002 -0.435547,-0.002 z"
           inkscape:path-effect="#path-effect6466"
           inkscape:original-d="M 74.839676 139.95946 C 65.654623 139.97573 53.176272 142.07196 44.313374 146.93216 L 44.313374 165.86641 L 55.540596 165.86641 C 53.009648 163.86227 51.365548 161.39777 50.356933 160.05953 C 49.882177 159.42962 49.945772 159.26387 50.731587 159.47558 C 63.385939 162.88483 68.769567 163.19736 74.465022 164.96776 C 73.789825 163.72825 72.631853 161.78372 71.677078 160.40421 C 70.997137 159.4218 71.165224 159.11041 72.303397 159.52209 C 77.401493 161.36608 80.332976 162.70425 82.839188 163.94301 C 82.459002 161.84232 82.472633 160.39151 82.449548 159.60478 C 82.437858 159.20634 82.508629 158.60456 82.853657 158.70199 C 83.504047 158.88565 84.63466 159.49139 86.049845 160.36339 C 85.642848 159.8025 85.256741 159.2523 84.896427 158.73041 C 83.299027 156.41672 83.917178 155.50072 86.589346 156.47215 C 92.458998 158.60598 97.008042 160.37482 100.80605 161.9359 C 100.54611 160.9655 100.31032 159.85374 100.11772 158.9211 C 99.885075 157.79455 100.3224 157.5363 101.12748 158.37074 C 102.43318 159.72408 103.249 160.76675 103.97692 161.75348 L 103.97692 146.19526 C 95.346737 141.85486 83.811538 140.0071 75.274792 139.9605 C 75.130684 139.95971 74.985471 139.95921 74.839676 139.95946 z "
           inkscape:label="hill" /><path
           id="path7811"
           style="opacity:1;fill:#0a0309;fill-opacity:1;fill-rule:evenodd;stroke-width:0.261434"
           d="m 47.039823,172.60571 c -0.962411,-0.003 -1.870855,0.0328 -2.727483,0.10241 v 10.046 l 25.80859,0.19636 c -1.041509,-1.71553 -3.148715,-3.41207 -5.032597,-3.86592 -3.361317,-0.80975 -2.646445,0.32814 -4.7656,-0.72654 -1.332439,-0.66315 -5.347758,-5.20584 -9.936861,-5.59868 -1.180666,-0.10104 -2.295284,-0.15026 -3.346049,-0.15367 z m 113.874177,0 c 0.96242,-0.003 1.87086,0.0328 2.72749,0.10241 v 10.046 l -25.80859,0.19636 c 1.04151,-1.71553 3.14871,-3.41207 5.03259,-3.86592 3.36132,-0.80975 2.64645,0.32814 4.7656,-0.72654 1.33244,-0.66315 5.34776,-5.20584 9.93687,-5.59868 1.18066,-0.10104 2.29528,-0.15026 3.34604,-0.15367 z"
           inkscape:label="foreground"
           inkscape:path-effect="#path-effect8079"
           inkscape:original-d="m 47.039823,172.60571 c -0.962411,-0.003 -1.870855,0.0328 -2.727483,0.10241 v 10.046 l 25.80859,0.19636 c -1.041509,-1.71553 -3.148715,-3.41207 -5.032597,-3.86592 -3.361317,-0.80975 -2.646445,0.32814 -4.7656,-0.72654 -1.332439,-0.66315 -5.347758,-5.20584 -9.936861,-5.59868 -1.180666,-0.10104 -2.295284,-0.15026 -3.346049,-0.15367 z"
           class="UnoptimicedTransforms"
           sodipodi:nodetypes="cccccsccc" /><g
           id="g16888"
           inkscape:label="moon"><circle
             style="opacity:1;fill:url(#linearGradient14483);fill-rule:evenodd;stroke-width:0.201587;fill-opacity:1"
             id="path13647"
             cx="122.89061"
             cy="91.665619"
             r="9.9780626" /><path
             id="path15451"
             style="fill:#eab07d;fill-opacity:1;fill-rule:evenodd;stroke-width:0.1;stroke:#e7a66c;stroke-opacity:1;stroke-dasharray:none;stroke-linecap:round;stroke-miterlimit:9.4"
             d="m 122.71172,82.00042 a 9.9780626,9.9780626 0 0 0 -1.71669,0.155029 4.6482863,4.6482863 0 0 0 -0.70022,2.447913 4.6482863,4.6482863 0 0 0 4.6483,4.648295 4.6482863,4.6482863 0 0 0 4.64313,-4.504635 9.9780626,9.9780626 0 0 0 -6.87452,-2.746602 z" /><ellipse
             style="fill:#eab07d;fill-opacity:1;fill-rule:evenodd;stroke-width:0.134;stroke:#e7a66c;stroke-opacity:1;stroke-dasharray:none"
             id="circle16005"
             cx="99.884918"
             cy="110.74124"
             rx="3.2180443"
             ry="5.2740173"
             transform="rotate(-9.565247)" /><path
             id="circle16007"
             style="fill:#eab07d;fill-opacity:1;fill-rule:evenodd;stroke-width:0.1;stroke:#e7a66c;stroke-opacity:1;stroke-dasharray:none"
             d="m 128.25092,94.704107 a 3.3074343,2.8604836 0 0 0 -3.30781,2.860808 3.3074343,2.8604836 0 0 0 2.46341,2.763655 9.9780626,9.9780626 0 0 0 3.93258,-3.785815 3.3074343,2.8604836 0 0 0 -3.08818,-1.838648 z" /></g><g
           id="g7603"
           style="fill:#0a0a0a;fill-opacity:1"
           class="UnoptimicedTransforms"><g
             id="g5584"
             style="fill:#0a0a0a;fill-opacity:1"><path
               id="rect5184"
               style="opacity:1;fill:#0a0a0a;fill-opacity:1;stroke-width:0.130021;stroke-linecap:round;stroke-linejoin:round;stroke-miterlimit:9.4"
               d="m 44.313374,81.418272 4.415573,2.294321 6.131216,-1.496502 0.758505,-2.571044 c 0.564884,0.740848 1.366858,1.931967 2.331942,2.072514 l 17.759174,1.006766 3.002379,-1.922857 0.37784,2.580843 c 2.626732,2.313701 7.965443,4.770702 9.83643,5.043804 1.27049,0.185449 7.954763,0.709478 14.644817,-3.5615 -6.900938,6.65842 -13.347634,5.705008 -15.730486,5.579835 -3.485229,-0.183081 -3.779656,-1.44643 -10.436772,-4.686982 -1.87284,-0.911661 -3.201522,-0.784625 -3.201522,-0.784625 l -2.053397,1.686486 c -0.245497,-0.01052 -2.301746,-2.228018 -2.301746,-2.228018 0,0 -8.686176,-1.221581 -12.923857,-0.433307 -3.37993,0.628719 -7.32151,2.357997 -9.422571,4.199085 l -3.187525,-2.654266 z"
               sodipodi:nodetypes="ccccccccscsscccsccc" /><path
               id="rect5576"
               style="opacity:1;fill:#0a0a0a;stroke-width:0.1;stroke-linecap:round;stroke-linejoin:round;stroke-miterlimit:9.4;fill-opacity:1"
               d="m 89.917987,88.64996 4.820781,5.954187 -0.694709,0.528794 -5.462051,-5.46607 z"
               sodipodi:nodetypes="ccccc" /><path
               id="path5579"
               style="opacity:1;fill:#0a0a0a;stroke-width:0.0622852;stroke-linecap:round;stroke-linejoin:round;stroke-miterlimit:9.4;fill-opacity:1"
               d="m 93.643206,94.249279 5.021617,-1.373034 -4.620764,2.256696 z"
               sodipodi:nodetypes="cccc" /></g><path
             id="rect6811"
             style="opacity:1;fill:#0a0a0a;stroke-width:0.0903998;stroke-linecap:round;stroke-linejoin:round;stroke-miterlimit:9.4;fill-opacity:1"
             d="m 44.313374,98.696541 c 0.781266,-0.04512 1.702522,-1.350141 2.675737,-3.122801 l 2.050087,2.38319 0.312825,-2.752995 8.475937,-1.653241 -7.35392,2.428314 -0.231744,4.396572 -1.285277,1.28747 -1.584405,-1.917506 -3.05924,3.725446 z"
             sodipodi:nodetypes="ccccccccccc" /><path
             id="rect7112"
             style="opacity:1;fill:#0a0a0a;stroke-width:0.1;stroke-linecap:round;stroke-linejoin:round;stroke-miterlimit:9.4;fill-opacity:1"
             d="M 23.277688 124.28408 C 20.676527 123.79847 18.34998 124.25947 15.716952 123.5581 C 13.083924 122.85673 10.419098 120.53156 8.0239617 118.39361 C 5.0955879 119.42753 2.9502919 119.61223 1.1280289 119.27534 L 0.13412672 116.87086 L -1.8646356 118.5995 C -7.8481218 117.91122 -13.701355 117.34376 -18.52532 117.73164 L -21.618756 122.9271 L -21.207529 124.21422 C -17.445457 121.17203 -11.37887 120.04497 -3.072781 120.30031 L -0.10012389 121.6643 L 1.1927148 124.35865 L 2.8479634 121.86854 C 4.8004774 122.1685 6.1306625 120.58565 7.0280299 120.84205 C 8.9615092 121.39449 7.6671218 119.89294 13.95437 125.39009 C 14.639889 125.98946 19.505135 125.85816 22.159661 126.58404 C 23.943302 127.75056 23.244147 132.6939 24.108243 134.26194 C 24.54029 135.04596 24.041132 134.24381 26.71325 134.93431 C 28.880945 135.49445 30.424114 134.48216 31.062139 134.16771 C 26.952007 135.2162 24.769658 133.47724 24.57696 132.28987 L 23.277688 124.28408 z M 31.062139 134.16771 C 31.159855 134.14278 31.257633 134.11791 31.357528 134.08979 C 31.310658 134.05876 31.210608 134.09454 31.062139 134.16771 z "
             transform="rotate(-30.770081)" /><path
             id="rect7212"
             style="opacity:1;fill:#0a0a0a;stroke-width:0.132175;stroke-linecap:round;stroke-linejoin:round;stroke-miterlimit:9.4;fill-opacity:1"
             d="M 44.313374 113.81481 L 44.313374 121.06811 L 47.601545 126.41714 L 48.91206 125.32108 C 52.661989 125.14782 54.361597 125.19232 58.044836 126.78662 C 61.397958 125.67065 64.738727 124.60274 68.337747 122.50316 L 72.240352 124.41571 L 67.856123 121.46085 C 64.774285 123.53552 61.69253 124.69994 58.610693 124.74954 L 54.274006 123.81988 L 48.864517 122.30886 C 46.211282 120.61365 45.596655 116.87997 44.313374 113.81481 z " /><path
             id="rect7215"
             style="opacity:1;fill:#0a0a0a;stroke-width:0.0658119;stroke-linecap:round;stroke-linejoin:round;stroke-miterlimit:9.4;fill-opacity:1"
             d="m 58.02744,125.09384 9.144413,3.40891 -9.524377,-2.12771 z"
             sodipodi:nodetypes="cccc" /><path
             id="rect7218"
             style="opacity:1;fill:#0a0a0a;stroke-width:0.1;stroke-linecap:round;stroke-linejoin:round;stroke-miterlimit:9.4;fill-opacity:1"
             d="m 66.295333,100.37411 c 0.454618,1.50161 1.322079,2.64865 2.703928,3.22302 3.549563,2.05318 5.215298,1.63664 8.590034,4.21375 l 4.941631,-1.30496 -5.231786,2.31136 -3.184446,-2.11558 -7.555313,-2.23213 -2.580798,-1.78347 z"
             sodipodi:nodetypes="ccccccccc" /><path
             id="rect7321"
             style="opacity:1;fill:#0a0a0a;stroke-width:0.0610453;stroke-linecap:round;stroke-linejoin:round;stroke-miterlimit:9.4;fill-opacity:1"
             d="m 50.308032,108.58788 3.215673,-0.74294 -0.985847,3.06366 z"
             sodipodi:nodetypes="cccc" /><path
             id="path7324"
             style="opacity:1;fill:#0a0a0a;stroke-width:0.0610453;stroke-linecap:round;stroke-linejoin:round;stroke-miterlimit:9.4;fill-opacity:1"
             d="m 48.838327,108.29881 -1.684429,2.83817 -1.533923,-2.82931 z"
             sodipodi:nodetypes="cccc" /></g><g
           id="g7756"
           style="fill:#0a0a0a;fill-opacity:1"
           class="UnoptimicedTransforms"
           transform="rotate(180,103.97743,103.53608)"><g
             id="g7740"
             style="fill:#0a0a0a;fill-opacity:1"><path
               id="path7734"
               style="opacity:1;fill:#0a0a0a;fill-opacity:1;stroke-width:0.130021;stroke-linecap:round;stroke-linejoin:round;stroke-miterlimit:9.4"
               d="m 44.313374,78.569412 4.415573,5.143181 6.131216,-1.496502 0.758505,-2.571044 c 0.564884,0.740848 1.366858,1.931967 2.331942,2.072514 l 17.759174,1.006766 3.002379,-1.922857 0.37784,2.580843 c 2.626732,2.313701 7.965443,4.770702 9.83643,5.043804 1.27049,0.185449 7.954763,0.709478 14.644817,-3.5615 -6.900938,6.65842 -13.347634,5.705008 -15.730486,5.579835 -3.485229,-0.183081 -3.779656,-1.44643 -10.436772,-4.686982 -1.87284,-0.911661 -3.201522,-0.784625 -3.201522,-0.784625 l -2.053397,1.686486 c -0.245497,-0.01052 -2.301746,-2.228018 -2.301746,-2.228018 0,0 -8.686176,-1.221581 -12.923857,-0.433307 -3.37993,0.628719 -7.32151,2.357997 -9.422571,4.199085 l -3.187525,-2.654266 z"
               sodipodi:nodetypes="ccccccccscsscccsccc" /><path
               id="path7736"
               style="opacity:1;fill:#0a0a0a;fill-opacity:1;stroke-width:0.1;stroke-linecap:round;stroke-linejoin:round;stroke-miterlimit:9.4"
               d="m 89.917987,88.64996 4.820781,5.954187 -0.694709,0.528794 -5.462051,-5.46607 z"
               sodipodi:nodetypes="ccccc" /><path
               id="path7738"
               style="opacity:1;fill:#0a0a0a;fill-opacity:1;stroke-width:0.0622852;stroke-linecap:round;stroke-linejoin:round;stroke-miterlimit:9.4"
               d="m 93.643206,94.249279 5.021617,-1.373034 -4.620764,2.256696 z"
               sodipodi:nodetypes="cccc" /></g><path
             id="path7742"
             style="opacity:1;fill:#0a0a0a;fill-opacity:1;stroke-width:0.0903998;stroke-linecap:round;stroke-linejoin:round;stroke-miterlimit:9.4"
             d="m 44.313374,98.696541 c 0.781266,-0.04512 1.702522,-1.350141 2.675737,-3.122801 l 2.050087,2.38319 0.312825,-2.752995 8.475937,-1.653241 -7.35392,2.428314 -0.231744,4.396572 -1.285277,1.28747 -1.584405,-1.917506 -3.05924,3.725446 z"
             sodipodi:nodetypes="ccccccccccc" /><path
             id="path7744"
             style="opacity:1;fill:#0a0a0a;fill-opacity:1;stroke-width:0.1;stroke-linecap:round;stroke-linejoin:round;stroke-miterlimit:9.4"
             d="m 23.277688,124.28408 c -2.601161,-0.48561 -4.927708,-0.0246 -7.560736,-0.72598 -2.633028,-0.70137 -5.297854,-3.02654 -7.6929903,-5.16449 -2.9283738,1.03392 -5.0736698,1.21862 -6.8959328,0.88173 l -0.99390218,-2.40448 -1.99876232,1.72864 c -5.9834862,-0.68828 -11.8367194,-1.25574 -16.6606844,-0.86786 l -3.093436,5.19546 0.411227,1.28712 c 3.762072,-3.04219 9.828659,-4.16925 18.134748,-3.91391 l 2.97265711,1.36399 1.29283869,2.69435 1.6552486,-2.49011 c 1.952514,0.29996 3.2826991,-1.28289 4.1800665,-1.02649 1.9334793,0.55244 0.6390919,-0.94911 6.9263401,4.54804 0.685519,0.59937 5.550765,0.46807 8.205291,1.19395 1.783641,1.16652 1.084486,6.10986 1.948582,7.6779 0.432047,0.78402 -0.06711,-0.0181 2.605007,0.67237 2.167695,0.56014 3.710864,-0.45215 4.348889,-0.7666 -4.110132,1.04849 -6.292481,-0.69047 -6.485179,-1.87784 z m 7.784451,9.88363 c 0.09772,-0.0249 0.195494,-0.0498 0.295389,-0.0779 -0.04687,-0.031 -0.14692,0.005 -0.295389,0.0779 z"
             transform="rotate(-30.770081)" /><path
             id="path7746"
             style="opacity:1;fill:#0a0a0a;fill-opacity:1;stroke-width:0.132175;stroke-linecap:round;stroke-linejoin:round;stroke-miterlimit:9.4"
             d="m 44.313374,113.81481 v 7.2533 l 3.288171,5.34903 1.310515,-1.09606 c 3.749929,-0.17326 5.449537,-0.12876 9.132776,1.46554 3.353122,-1.11597 6.693891,-2.18388 10.292911,-4.28346 l 3.902605,1.91255 -4.384229,-2.95486 c -3.081838,2.07467 -6.163593,3.23909 -9.24543,3.28869 l -4.336687,-0.92966 -5.409489,-1.51102 c -2.653235,-1.69521 -3.267862,-5.42889 -4.551143,-8.49405 z" /><path
             id="path7748"
             style="opacity:1;fill:#0a0a0a;fill-opacity:1;stroke-width:0.0658119;stroke-linecap:round;stroke-linejoin:round;stroke-miterlimit:9.4"
             d="m 58.02744,125.09384 9.144413,3.40891 -9.524377,-2.12771 z"
             sodipodi:nodetypes="cccc" /><path
             id="path7750"
             style="opacity:1;fill:#0a0a0a;fill-opacity:1;stroke-width:0.1;stroke-linecap:round;stroke-linejoin:round;stroke-miterlimit:9.4"
             d="m 66.295333,100.37411 c 0.454618,1.50161 1.322079,2.64865 2.703928,3.22302 3.549563,2.05318 5.215298,1.63664 8.590034,4.21375 l 4.941631,-1.30496 -5.231786,2.31136 -3.184446,-2.11558 -7.555313,-2.23213 -2.580798,-1.78347 z"
             sodipodi:nodetypes="ccccccccc" /><path
             id="path7752"
             style="opacity:1;fill:#0a0a0a;fill-opacity:1;stroke-width:0.0610453;stroke-linecap:round;stroke-linejoin:round;stroke-miterlimit:9.4"
             d="m 50.308032,108.58788 3.215673,-0.74294 -0.985847,3.06366 z"
             sodipodi:nodetypes="cccc" /><path
             id="path7754"
             style="opacity:1;fill:#0a0a0a;fill-opacity:1;stroke-width:0.0610453;stroke-linecap:round;stroke-linejoin:round;stroke-miterlimit:9.4"
             d="m 48.838327,108.29881 -1.684429,2.83817 -1.533923,-2.82931 z"
             sodipodi:nodetypes="cccc" /></g><path
           id="path26439"
           style="opacity:1;fill:#0a0309;fill-opacity:1;fill-rule:evenodd;stroke-width:0.261434"
           d="m 47.039823,172.60571 c -0.962411,-0.003 -1.870855,0.0328 -2.727483,0.10241 v 10.046 l 25.52262,-1.03426 c 1.428543,-0.0579 -2.862745,-2.18145 -4.746627,-2.6353 -3.361317,-0.80975 -2.646445,0.32814 -4.7656,-0.72654 -1.332439,-0.66315 -5.347758,-5.20584 -9.936861,-5.59868 -1.180666,-0.10104 -2.295284,-0.15026 -3.346049,-0.15367 z m 113.874177,0 c 0.96242,-0.003 1.87086,0.0328 2.72749,0.10241 v 10.046 l -25.52262,-1.03426 c -1.42855,-0.0579 2.86274,-2.18145 4.74662,-2.6353 3.36132,-0.80975 2.64645,0.32814 4.7656,-0.72654 1.33244,-0.66315 5.34776,-5.20584 9.93687,-5.59868 1.18066,-0.10104 2.29528,-0.15026 3.34604,-0.15367 z"
           inkscape:label="foreground"
           inkscape:path-effect="#path-effect26443"
           inkscape:original-d="m 47.039823,172.60571 c -0.962411,-0.003 -1.870855,0.0328 -2.727483,0.10241 v 10.046 l 25.52262,-1.03426 c 1.428543,-0.0579 -2.862745,-2.18145 -4.746627,-2.6353 -3.361317,-0.80975 -2.646445,0.32814 -4.7656,-0.72654 -1.332439,-0.66315 -5.347758,-5.20584 -9.936861,-5.59868 -1.180666,-0.10104 -2.295284,-0.15026 -3.346049,-0.15367 z"
           class="UnoptimicedTransforms"
           transform="matrix(1,0,0,-0.41989251,0,259.1965)"
           sodipodi:nodetypes="cccsssscc" /></g></g></g></svg>
