<?xml version="1.0" encoding="UTF-8" standalone="no"?>
<!-- Created with Inkscape (http://www.inkscape.org/) -->

<svg
   width="119.32708mm"
   height="121.70834mm"
   viewBox="0 0 119.32708 121.70834"
   version="1.1"
   id="svg1797"
   xml:space="preserve"
   inkscape:version="1.2 (dc2aedaf03, 2022-05-15)"
   sodipodi:docname="Highlighted Background_Safari.svg"
   xmlns:inkscape="http://www.inkscape.org/namespaces/inkscape"
   xmlns:sodipodi="http://sodipodi.sourceforge.net/DTD/sodipodi-0.dtd"
   xmlns:xlink="http://www.w3.org/1999/xlink"
   xmlns="http://www.w3.org/2000/svg"
   xmlns:svg="http://www.w3.org/2000/svg"><sodipodi:namedview
     id="namedview1799"
     pagecolor="#505050"
     bordercolor="#ffffff"
     borderopacity="1"
     inkscape:showpageshadow="0"
     inkscape:pageopacity="0"
     inkscape:pagecheckerboard="1"
     inkscape:deskcolor="#505050"
     inkscape:document-units="mm"
     showgrid="false"
     inkscape:zoom="0.62026728"
     inkscape:cx="112.85458"
     inkscape:cy="424.01076"
     inkscape:window-width="1366"
     inkscape:window-height="705"
     inkscape:window-x="-8"
     inkscape:window-y="-8"
     inkscape:window-maximized="1"
     inkscape:current-layer="g26975" /><defs
     id="defs1794"><inkscape:path-effect
       effect="mirror_symmetry"
       start_point="69.608471,172.60554"
       end_point="69.608471,182.75412"
       center_point="69.608471,177.67983"
       id="path-effect26089"
       is_visible="true"
       lpeversion="1.2"
       lpesatellites=""
       mode="vertical"
       discard_orig_path="false"
       fuse_paths="false"
       oposite_fuse="false"
       split_items="false"
       split_open="false"
       link_styles="false" /><linearGradient
       inkscape:collect="always"
       id="linearGradient25433"><stop
         style="stop-color:#230606;stop-opacity:1;"
         offset="0"
         id="stop25429" /><stop
         style="stop-color:#230606;stop-opacity:1"
         offset="1"
         id="stop25431" /></linearGradient><linearGradient
       inkscape:collect="always"
       id="linearGradient10241"><stop
         style="stop-color:#b36131;stop-opacity:1;"
         offset="0"
         id="stop10237" /><stop
         style="stop-color:#8d3f11;stop-opacity:1;"
         offset="1"
         id="stop10239" /></linearGradient><inkscape:path-effect
       effect="mirror_symmetry"
       start_point="100.27525,133.54234"
       end_point="100.27525,148.01968"
       center_point="100.27525,140.78101"
       id="path-effect2697"
       is_visible="true"
       lpeversion="1.2"
       lpesatellites=""
       mode="vertical"
       discard_orig_path="false"
       fuse_paths="false"
       oposite_fuse="false"
       split_items="false"
       split_open="false"
       link_styles="false" /><inkscape:path-effect
       effect="mirror_symmetry"
       start_point="93.53111,129.5501"
       end_point="93.53111,149.6054"
       center_point="93.53111,139.57775"
       id="path-effect2200"
       is_visible="true"
       lpeversion="1.2"
       lpesatellites=""
       mode="vertical"
       discard_orig_path="false"
       fuse_paths="false"
       oposite_fuse="false"
       split_items="false"
       split_open="false"
       link_styles="false" /><inkscape:path-effect
       effect="tiling"
       id="path-effect23881"
       is_visible="true"
       lpeversion="1"
       unit="px"
       seed="1;-1575518399"
       lpesatellites=""
       num_rows="1"
       num_cols="2"
       gapx="24"
       gapy="0"
       offset="-22"
       offset_type="true"
       scale="0"
       rotate="79"
       mirrorrowsx="false"
       mirrorrowsy="false"
       mirrorcolsx="false"
       mirrorcolsy="false"
       mirrortrans="false"
       shrink_interp="false"
       split_items="true"
       link_styles="false"
       interpolate_scalex="false"
       interpolate_scaley="true"
       interpolate_rotatex="false"
       interpolate_rotatey="false"
       random_scale="false"
       random_rotate="true"
       random_gap_y="false"
       random_gap_x="true"
       transformorigin="rotate(13.426126,48.01738,123.95761)" /><inkscape:path-effect
       effect="tiling"
       id="path-effect21528"
       is_visible="true"
       lpeversion="1"
       unit="px"
       seed="1;-1575518399"
       lpesatellites=""
       num_rows="1"
       num_cols="3"
       gapx="24"
       gapy="0"
       offset="-22"
       offset_type="true"
       scale="0"
       rotate="79"
       mirrorrowsx="false"
       mirrorrowsy="false"
       mirrorcolsx="false"
       mirrorcolsy="false"
       mirrortrans="false"
       shrink_interp="false"
       split_items="false"
       link_styles="false"
       interpolate_scalex="false"
       interpolate_scaley="true"
       interpolate_rotatex="false"
       interpolate_rotatey="false"
       random_scale="false"
       random_rotate="true"
       random_gap_y="false"
       random_gap_x="true"
       transformorigin="rotate(13.426126,48.01738,123.95761)" /><linearGradient
       inkscape:collect="always"
       id="linearGradient14481"><stop
         style="stop-color:#f48723;stop-opacity:1;"
         offset="0"
         id="stop14477" /><stop
         style="stop-color:#ffda01;stop-opacity:1;"
         offset="1"
         id="stop14479" /></linearGradient><linearGradient
       inkscape:collect="always"
       id="linearGradient9215"><stop
         style="stop-color:#351708;stop-opacity:1;"
         offset="0"
         id="stop9211" /><stop
         style="stop-color:#884c0d;stop-opacity:1;"
         offset="1"
         id="stop9213" /></linearGradient><inkscape:path-effect
       effect="mirror_symmetry"
       start_point="69.608471,172.60554"
       end_point="69.608471,182.75412"
       center_point="69.608471,177.67983"
       id="path-effect8079"
       is_visible="true"
       lpeversion="1.2"
       lpesatellites=""
       mode="vertical"
       discard_orig_path="false"
       fuse_paths="false"
       oposite_fuse="false"
       split_items="false"
       split_open="false"
       link_styles="false" /><inkscape:path-effect
       effect="mirror_symmetry"
       start_point="103.97692,139.9594"
       end_point="103.97692,165.86641"
       center_point="103.97692,152.9129"
       id="path-effect6466"
       is_visible="true"
       lpeversion="1.2"
       lpesatellites=""
       mode="free"
       discard_orig_path="false"
       fuse_paths="true"
       oposite_fuse="false"
       split_items="false"
       split_open="false"
       link_styles="false" /><linearGradient
       inkscape:collect="always"
       id="linearGradient1843"><stop
         style="stop-color:#fbbb06;stop-opacity:1;"
         offset="0"
         id="stop1839" /><stop
         style="stop-color:#983a13;stop-opacity:1;"
         offset="1"
         id="stop1841" /></linearGradient><linearGradient
       inkscape:collect="always"
       xlink:href="#linearGradient1843"
       id="linearGradient1845"
       x1="103.63087"
       y1="130.07936"
       x2="103.05769"
       y2="92.617531"
       gradientUnits="userSpaceOnUse" /><linearGradient
       inkscape:collect="always"
       xlink:href="#linearGradient9215"
       id="linearGradient9217"
       x1="103.97691"
       y1="152.47414"
       x2="103.97691"
       y2="189.38972"
       gradientUnits="userSpaceOnUse"
       gradientTransform="matrix(1,0,0,1.2949441,0,-44.971344)" /><linearGradient
       inkscape:collect="always"
       xlink:href="#linearGradient14481"
       id="linearGradient14483"
       x1="122.96859"
       y1="81.609665"
       x2="121.63212"
       y2="90.697189"
       gradientUnits="userSpaceOnUse"
       gradientTransform="matrix(2.6306418,0,0,2.6306418,-196.37705,-114.45003)" /><filter
       style="color-interpolation-filters:sRGB;"
       inkscape:label="Drop Shadow"
       id="filter21053"
       x="-0.0020359627"
       y="-0.011812753"
       width="1.0491472"
       height="1.0129414"><feFlood
         flood-opacity="1"
         flood-color="rgb(255,117,254)"
         result="flood"
         id="feFlood21043" /><feComposite
         in="flood"
         in2="SourceGraphic"
         operator="in"
         result="composite1"
         id="feComposite21045" /><feGaussianBlur
         in="composite1"
         stdDeviation="0"
         result="blur"
         id="feGaussianBlur21047" /><feOffset
         dx="0.46729"
         dy="-0.2"
         result="offset"
         id="feOffset21049" /><feComposite
         in="SourceGraphic"
         in2="offset"
         operator="over"
         result="composite2"
         id="feComposite21051" /></filter><filter
       style="color-interpolation-filters:sRGB"
       inkscape:label="Drop Shadow"
       id="filter1818"
       x="0"
       y="-0.0066048026"
       width="1.0061954"
       height="1.0066048"><feFlood
         flood-opacity="1"
         flood-color="rgb(255,117,254)"
         result="flood"
         id="feFlood1808" /><feComposite
         in="flood"
         in2="SourceGraphic"
         operator="in"
         result="composite1"
         id="feComposite1810" /><feGaussianBlur
         in="composite1"
         stdDeviation="0"
         result="blur"
         id="feGaussianBlur1812" /><feOffset
         dx="0.46729"
         dy="-0.2"
         result="offset"
         id="feOffset1814" /><feComposite
         in="SourceGraphic"
         in2="offset"
         operator="over"
         result="composite2"
         id="feComposite1816" /></filter><linearGradient
       inkscape:collect="always"
       xlink:href="#linearGradient25433"
       id="linearGradient25435"
       x1="244.88394"
       y1="88.612129"
       x2="243.99553"
       y2="130.76196"
       gradientUnits="userSpaceOnUse" /><linearGradient
       inkscape:collect="always"
       xlink:href="#linearGradient25433"
       id="linearGradient26779"
       gradientUnits="userSpaceOnUse"
       x1="244.88394"
       y1="88.612129"
       x2="243.99553"
       y2="130.76196"
       gradientTransform="translate(-182.08207,6.1448657)" /><linearGradient
       inkscape:collect="always"
       xlink:href="#linearGradient25433"
       id="linearGradient26781"
       gradientUnits="userSpaceOnUse"
       x1="244.88394"
       y1="88.612129"
       x2="243.99553"
       y2="130.76196"
       gradientTransform="translate(-182.08207,6.1448657)" /><linearGradient
       inkscape:collect="always"
       xlink:href="#linearGradient25433"
       id="linearGradient26783"
       gradientUnits="userSpaceOnUse"
       x1="244.88394"
       y1="88.612129"
       x2="243.99553"
       y2="130.76196"
       gradientTransform="translate(-182.08207,6.1448657)" /><linearGradient
       inkscape:collect="always"
       xlink:href="#linearGradient25433"
       id="linearGradient26785"
       gradientUnits="userSpaceOnUse"
       x1="244.88394"
       y1="88.612129"
       x2="243.99553"
       y2="130.76196"
       gradientTransform="translate(-182.08207,6.1448657)" /><linearGradient
       inkscape:collect="always"
       xlink:href="#linearGradient25433"
       id="linearGradient26787"
       gradientUnits="userSpaceOnUse"
       x1="244.88394"
       y1="88.612129"
       x2="243.99553"
       y2="130.76196"
       gradientTransform="translate(-182.08207,6.1448657)" /><linearGradient
       inkscape:collect="always"
       xlink:href="#linearGradient25433"
       id="linearGradient26789"
       gradientUnits="userSpaceOnUse"
       x1="244.88394"
       y1="88.612129"
       x2="243.99553"
       y2="130.76196"
       gradientTransform="translate(-182.08207,6.1448657)" /><linearGradient
       inkscape:collect="always"
       xlink:href="#linearGradient25433"
       id="linearGradient26791"
       gradientUnits="userSpaceOnUse"
       x1="244.88394"
       y1="88.612129"
       x2="243.99553"
       y2="130.76196"
       gradientTransform="rotate(-31.81958,-80.262166,322.46733)" /><linearGradient
       inkscape:collect="always"
       xlink:href="#linearGradient25433"
       id="linearGradient26793"
       gradientUnits="userSpaceOnUse"
       x1="244.88394"
       y1="88.612129"
       x2="243.99553"
       y2="130.76196"
       gradientTransform="translate(-182.08207,6.1448657)" /><linearGradient
       inkscape:collect="always"
       xlink:href="#linearGradient10241"
       id="linearGradient26865"
       gradientUnits="userSpaceOnUse"
       x1="102.58455"
       y1="141.31734"
       x2="103.6179"
       y2="103.31525" /><linearGradient
       inkscape:collect="always"
       xlink:href="#linearGradient10241"
       id="linearGradient26867"
       gradientUnits="userSpaceOnUse"
       x1="102.58455"
       y1="141.31734"
       x2="103.6179"
       y2="103.31525" /><linearGradient
       inkscape:collect="always"
       xlink:href="#linearGradient10241"
       id="linearGradient26869"
       gradientUnits="userSpaceOnUse"
       x1="102.58455"
       y1="141.31734"
       x2="103.6179"
       y2="103.31525" /><linearGradient
       inkscape:collect="always"
       xlink:href="#linearGradient10241"
       id="linearGradient26871"
       gradientUnits="userSpaceOnUse"
       x1="102.58455"
       y1="141.31734"
       x2="103.6179"
       y2="103.31525" /><linearGradient
       inkscape:collect="always"
       xlink:href="#linearGradient10241"
       id="linearGradient26909"
       gradientUnits="userSpaceOnUse"
       x1="102.58455"
       y1="141.31734"
       x2="103.6179"
       y2="103.31525"
       gradientTransform="matrix(-1,0,0,1,226.12079,0)" /><linearGradient
       inkscape:collect="always"
       xlink:href="#linearGradient10241"
       id="linearGradient26911"
       gradientUnits="userSpaceOnUse"
       x1="102.58455"
       y1="141.31734"
       x2="103.6179"
       y2="103.31525"
       gradientTransform="matrix(-1,0,0,1,226.12079,0)" /><linearGradient
       inkscape:collect="always"
       xlink:href="#linearGradient10241"
       id="linearGradient26915"
       gradientUnits="userSpaceOnUse"
       x1="102.58455"
       y1="141.31734"
       x2="103.6179"
       y2="103.31525"
       gradientTransform="matrix(-1,0,0,1,226.12079,0)" /><linearGradient
       inkscape:collect="always"
       xlink:href="#linearGradient10241"
       id="linearGradient26925"
       gradientUnits="userSpaceOnUse"
       x1="102.58455"
       y1="141.31734"
       x2="103.6179"
       y2="103.31525" /><linearGradient
       inkscape:collect="always"
       xlink:href="#linearGradient10241"
       id="linearGradient26927"
       gradientUnits="userSpaceOnUse"
       x1="102.58455"
       y1="141.31734"
       x2="103.6179"
       y2="103.31525" /><inkscape:path-effect
       effect="mirror_symmetry"
       start_point="69.608471,172.60554"
       end_point="69.608471,182.75412"
       center_point="69.608471,177.67983"
       id="path-effect8079-4"
       is_visible="true"
       lpeversion="1.2"
       lpesatellites=""
       mode="vertical"
       discard_orig_path="false"
       fuse_paths="false"
       oposite_fuse="false"
       split_items="false"
       split_open="false"
       link_styles="false" /><inkscape:path-effect
       effect="mirror_symmetry"
       start_point="69.608471,172.60554"
       end_point="69.608471,182.75412"
       center_point="69.608471,177.67983"
       id="path-effect25702"
       is_visible="true"
       lpeversion="1.2"
       lpesatellites=""
       mode="vertical"
       discard_orig_path="false"
       fuse_paths="false"
       oposite_fuse="false"
       split_items="false"
       split_open="false"
       link_styles="false" /></defs><g
     inkscape:label="Layer 1"
     inkscape:groupmode="layer"
     id="layer1"
     transform="translate(-44.313374,-78.569412)"><path
       id="path6439"
       style="display:none;opacity:0.606469;fill:#0a0309;fill-rule:evenodd;stroke-width:0.267674"
       d="m 75.274792,139.9605 c -9.222912,-0.0504 -21.957794,2.03426 -30.961418,6.97166 v 18.93425 h 59.663546 v -19.67115 c -8.630203,-4.3404 -20.165337,-6.18816 -28.702128,-6.23476 z"
       class="UnoptimicedTransforms"
       inkscape:label="hill original" /><g
       id="g26975"><rect
         style="fill:url(#linearGradient1845);fill-opacity:1;stroke-width:0.636184;stroke-linecap:round;stroke-linejoin:round"
         id="rect1837"
         width="119.32708"
         height="121.70834"
         x="44.313374"
         y="78.569412"
         ry="0"
         inkscape:label="bg" /><circle
         style="fill:url(#linearGradient14483);fill-opacity:1;fill-rule:evenodd;stroke-width:0.530303"
         id="path13647"
         cx="126.90412"
         cy="126.68938"
         r="26.248709" /><path
         id="rect10135"
         style="fill:url(#linearGradient26865);fill-opacity:1;stroke-width:0.143249;stroke-linecap:round;stroke-linejoin:round;stroke-miterlimit:9.4"
         d="m 54.318448,117.37221 c -1.767002,0.0574 -2.574323,5.71365 -4.418852,7.56646 l -5.586222,5.61103 v 9.4077 l 0.558105,10.27172 c -0.523034,2.64758 1.543784,4.99084 3.461288,4.96714 l 25.767936,-0.30076 c 1.917499,-0.0224 4.0304,-2.33918 3.461288,-4.96714 l -5.446696,-25.15143 c -0.56914,-2.62793 -1.571246,-4.64401 -3.461288,-4.96766 l -14.161409,-2.42466 c -0.05907,-0.0101 -0.11715,-0.0142 -0.17415,-0.0124 z" /><path
         id="rect10137"
         style="fill:url(#linearGradient26867);fill-opacity:1;stroke-width:0.0984197;stroke-linecap:round;stroke-linejoin:round;stroke-miterlimit:9.4"
         d="m 58.339771,112.0638 2.631311,2.71618 c 1.228622,1.26825 3.664739,0.08 4.375275,1.83299 l 5.546602,13.68463 c 0.710534,1.75304 -0.440342,3.67103 -2.136502,4.14848 l -8.562503,2.41027 c -1.696152,0.47745 -3.596974,-0.57442 -3.986815,-2.42484 l -3.135591,-14.88338 c -0.38984,-1.85041 0.595054,-7.74384 2.358099,-7.64593 z"
         sodipodi:nodetypes="ssssssssss" /><path
         id="path10190"
         style="fill:url(#linearGradient26869);fill-opacity:1;stroke-width:0.12244;stroke-linecap:round;stroke-linejoin:round;stroke-miterlimit:9.4"
         d="m 44.210021,129.62418 v 25.73486 l 11.943974,-0.1018 c 1.917499,-0.0164 4.0304,-1.70931 3.461287,-3.62924 l -5.446696,-18.3751 c -0.569138,-1.91991 -1.543735,-3.62872 -3.461287,-3.62872 z" /><path
         id="path10196"
         style="fill:url(#linearGradient26871);fill-opacity:1;stroke-width:0.12244;stroke-linecap:round;stroke-linejoin:round;stroke-miterlimit:9.4"
         d="m 69.625062,133.26942 h 15.292986 c 1.917554,0 2.892154,1.70915 3.461293,3.62906 l 5.447113,18.37497 c 0.569113,1.91993 -1.543819,3.61272 -3.46132,3.62908 l -25.768157,0.21966 c -1.917506,0.0184 -3.984349,-1.69479 -3.461314,-3.62905 l 5.028085,-18.59466 c 0.523034,-1.93427 1.543745,-3.62906 3.461314,-3.62906 z"
         sodipodi:nodetypes="sssssssss" /><path
         id="path10200"
         style="fill:url(#linearGradient26925);fill-opacity:1;stroke-width:0.0890931;stroke-linecap:round;stroke-linejoin:round;stroke-miterlimit:9.4"
         d="m 129.00187,110.361 6.15964,-1.77829 c 0.74204,-0.21423 0.98404,3.40142 1.39413,5.90223 4.0023,24.4065 2.14161,19.49804 2.19397,24.15487 0.0285,2.53408 -0.62182,4.74911 -1.39414,4.77062 l -10.37879,0.28875 c -0.77233,0.0242 -1.6048,-2.22789 -1.39413,-4.77057 l 2.02519,-24.44367 c -0.0225,0.27131 1.04735,-4.02382 1.39413,-4.12394 z"
         sodipodi:nodetypes="sssssssss" /><path
         id="path10215"
         style="fill:url(#linearGradient26911);fill-opacity:1;stroke-width:0.0984197;stroke-linecap:round;stroke-linejoin:round;stroke-miterlimit:9.4"
         d="M 163.64046 115.42608 C 162.49819 115.58267 161.25011 115.43966 160.77448 116.61308 L 155.22805 130.29752 C 154.51752 132.05056 155.6682 133.96866 157.36435 134.4461 L 163.64046 136.21292 L 163.64046 115.42608 z " /><path
         id="path10219"
         style="fill:url(#linearGradient26915);fill-opacity:1;stroke-width:0.12244;stroke-linecap:round;stroke-linejoin:round;stroke-miterlimit:9.4"
         d="M 141.46507 135.62794 C 139.54751 135.62794 138.57292 137.33727 138.00378 139.25718 L 132.55657 157.63229 C 131.98746 159.55221 134.10036 161.24516 136.01785 161.26152 L 161.78579 161.48115 C 162.42095 161.48724 163.07208 161.30198 163.64046 160.98299 L 163.64046 151.91016 L 160.21896 139.25718 C 159.69592 137.32291 158.67524 135.62794 156.75767 135.62794 L 141.46507 135.62794 z " /><path
         id="path10213"
         style="fill:url(#linearGradient26909);fill-opacity:1;stroke-width:0.143249;stroke-linecap:round;stroke-linejoin:round;stroke-miterlimit:9.4"
         d="M 163.7867 118.72717 L 157.46719 119.80927 C 155.57714 120.13292 154.57504 122.149 154.0059 124.77693 L 148.55869 149.92836 C 147.98958 152.55632 150.10248 154.87312 152.01998 154.8955 L 163.7867 155.03296 L 163.7867 118.72717 z " /><path
         id="path10202"
         style="fill:url(#linearGradient26927);fill-opacity:1;stroke-width:0.0393359;stroke-linecap:round;stroke-linejoin:round;stroke-miterlimit:9.4"
         d="m 140.97156,121.51278 2.42192,-0.88163 c 0.29176,-0.10621 0.38691,1.68634 0.54816,2.92619 1.57367,12.10016 0.84206,9.66667 0.86265,11.97541 0.0112,1.25634 -0.24449,2.35451 -0.54816,2.36517 l -4.08085,0.14315 c -0.30367,0.012 -0.63099,-1.10453 -0.54816,-2.36513 l 0.79628,-12.1186 c -0.009,0.1345 0.41182,-1.99492 0.54816,-2.04456 z"
         sodipodi:nodetypes="sssssssss" /><path
         id="path11110"
         style="fill:url(#linearGradient9217);fill-opacity:1;stroke-width:0.900629;stroke-linecap:round;stroke-linejoin:round"
         inkscape:label="bg overlay"
         d="m 44.313374,152.47394 v 44.25932 c 0,0.12273 0.006,0.24383 0.01809,0.36328 0.01206,0.11945 0.03021,0.23686 0.05374,0.35244 0.02353,0.11558 0.0524,0.22942 0.08682,0.34055 0.03442,0.11112 0.07413,0.21998 0.118855,0.32607 0.04472,0.10609 0.0949,0.20908 0.149345,0.30955 0.05444,0.10046 0.113158,0.19822 0.176734,0.29248 0.06358,0.0943 0.131998,0.18539 0.204122,0.27286 0.07212,0.0875 0.148322,0.17106 0.228409,0.25114 0.08009,0.0801 0.163682,0.15629 0.251148,0.22841 0.08747,0.0721 0.178593,0.14055 0.272851,0.20412 0.09426,0.0636 0.192022,0.12281 0.292489,0.17725 0.100467,0.0545 0.203451,0.10411 0.309542,0.14883 0.106091,0.0447 0.214949,0.0844 0.326078,0.11886 0.111129,0.0344 0.224966,0.0633 0.340548,0.0868 0.115582,0.0235 0.232982,0.0417 0.352433,0.0537 0.119451,0.0121 0.240551,0.0181 0.363285,0.0181 H 160.09597 c 0.12273,0 0.24384,-0.006 0.36329,-0.0181 0.11945,-0.0121 0.23685,-0.0302 0.35243,-0.0537 0.11558,-0.0235 0.22942,-0.0524 0.34055,-0.0868 0.11113,-0.0344 0.21998,-0.0741 0.32608,-0.11886 0.10609,-0.0447 0.20907,-0.0944 0.30954,-0.14883 0.10046,-0.0544 0.19823,-0.11367 0.29249,-0.17725 0.0942,-0.0636 0.18538,-0.13199 0.27285,-0.20412 0.0875,-0.0721 0.17106,-0.14832 0.25114,-0.22841 0.0801,-0.0801 0.15629,-0.16368 0.22841,-0.25114 0.0721,-0.0875 0.14055,-0.1786 0.20413,-0.27286 0.0636,-0.0943 0.12229,-0.19202 0.17673,-0.29248 0.0544,-0.10047 0.10462,-0.20346 0.14934,-0.30955 0.0447,-0.10609 0.0844,-0.21495 0.11886,-0.32607 0.0344,-0.11113 0.0633,-0.22497 0.0868,-0.34055 0.0235,-0.11558 0.0417,-0.23299 0.0537,-0.35244 0.0121,-0.11945 0.0181,-0.24055 0.0181,-0.36328 v -44.25932 z" /><g
         id="g7809"
         inkscape:label="shadows"
         transform="matrix(1,0,0,0.93903688,0,10.426173)"><ellipse
           style="display:inline;fill:#3b0909;fill-opacity:1;fill-rule:evenodd;stroke-width:0.188292"
           id="ellipse9177"
           cx="103.97691"
           cy="175.91193"
           rx="23.646143"
           ry="9.7722092" /><ellipse
           style="display:inline;fill:#380909;fill-opacity:1;fill-rule:evenodd;stroke-width:0.239677"
           id="path6489"
           cx="103.97691"
           cy="-170.92593"
           rx="38.313263"
           ry="9.7722092"
           transform="scale(1,-1)" /><ellipse
           style="display:inline;fill:#390a0a;fill-opacity:1;fill-rule:evenodd;stroke-width:0.241275"
           id="ellipse7388"
           cx="103.97691"
           cy="-174.68428"
           rx="40.767006"
           ry="9.3068657"
           transform="scale(1,-1)" /><ellipse
           style="display:inline;fill:#230606;fill-opacity:1;fill-rule:evenodd;stroke-width:0.179562"
           id="ellipse7390"
           cx="103.97691"
           cy="175.82684"
           rx="30.557541"
           ry="6.8770189" /></g><path
         id="path10198"
         style="fill:#b26030;stroke-width:0.135565;stroke-linecap:round;stroke-linejoin:round;stroke-miterlimit:9.4;fill-opacity:1"
         d="m 124.54914,134.86941 c 7.57671,0 7.9247,-6.81387 22.73014,0 2.48883,1.14543 4.87479,1.27715 5.14455,2.99319 1.70029,10.81611 5.39741,10.10357 8.09612,15.15536 0.84592,1.58351 -2.2946,2.97971 -5.1446,2.99321 l -38.2995,0.18117 c -2.85002,0.0152 -5.92199,-1.39783 -5.14459,-2.99318 l 7.47329,-15.33656 c 0.77739,-1.59536 2.2945,-2.99319 5.14459,-2.99319 z"
         sodipodi:nodetypes="sssssssss" /><path
         id="path19804"
         style="fill:url(#linearGradient26779);fill-opacity:1;fill-rule:evenodd;stroke-width:0.234338"
         d="M 75.360575 95.135843 C 73.165776 95.103814 71.961507 96.88344 69.305647 96.308898 C 66.35964 96.039586 66.07861 95.627541 63.162353 95.484142 C 60.246096 95.340743 60.864738 96.372976 58.127001 96.372976 C 52.651547 96.372975 50.420557 100.066 45.676082 100.54792 C 45.164809 100.59985 44.720624 100.62383 44.313374 100.63266 L 44.313374 110.01349 C 44.819984 109.77809 45.30637 109.52544 45.759281 109.25488 C 47.904018 107.97366 49.059347 109.36648 59.095417 112.57147 C 62.020165 113.50548 60.280474 109.27242 65.889318 109.37373 C 67.257957 109.39845 71.604007 113.79874 73.391186 113.33163 C 75.178354 112.86451 76.695438 113.24973 78.576916 112.6278 C 80.458394 112.00587 81.510387 110.98178 83.162166 110.51733 C 84.813944 110.05288 84.677384 112.36545 85.775443 112.37045 C 90.167688 112.39172 90.923974 117.6223 94.195601 117.49572 C 97.467217 117.36914 100.06964 116.21902 102.18323 115.77541 C 104.29681 115.3318 103.83185 115.39315 104.75 114.46335 C 107.57917 112.68295 102.25382 106.90905 99.338439 107.07568 C 98.47548 106.43922 96.919449 107.12751 95.342301 106.52946 C 94.948021 106.37995 93.198656 105.59857 92.551256 102.9488 C 91.960697 100.5317 90.328851 99.620426 88.581473 98.974885 C 85.419976 97.806918 84.646682 98.938908 83.555423 98.768179 C 81.412895 98.432979 82.909941 97.531274 80.346833 97.04632 C 77.980896 96.598674 77.160139 95.335668 75.81326 95.167365 C 75.657407 95.14789 75.506894 95.137978 75.360575 95.135843 z " /><path
         id="rect20692"
         style="fill:url(#linearGradient26781);fill-opacity:1;stroke-width:0.0912966;stroke-linecap:round;stroke-linejoin:round;stroke-miterlimit:9.4"
         d="m 62.83066,107.93341 h 3.97056 c -1.89337,2.3156 -5.78503,3.1542 -2.77292,9.09559 -1.79666,1.50525 -2.81663,4.36968 -2.77291,9.0956 l 2.74055,10.59534 c 1.34415,3.02297 2.41004,6.60245 4.61792,7.89796 l -6.12847,-0.43159 c -0.0579,-6.40283 -1.43919,-12.50025 -4.48845,-18.21276 1.90066,-3.31862 3.15301,-6.18342 2.76213,-7.89796 -0.84166,-3.38073 1.38106,-6.76145 2.07159,-10.14218 z"
         sodipodi:nodetypes="cccccccccc" /><path
         id="rect21423"
         style="fill:url(#linearGradient26783);fill-opacity:1;stroke-width:0.1;stroke-linecap:round;stroke-linejoin:round;stroke-miterlimit:9.4"
         d="M 44.571756 114.19411 C 44.506604 114.21686 44.418282 114.21629 44.313374 114.19928 L 44.313374 115.16563 C 46.526192 115.72827 47.316313 115.60122 48.387027 116.5242 C 49.742936 117.69304 49.544605 116.50071 50.748123 117.00428 C 51.951642 117.50784 52.45024 118.28519 52.773839 118.38559 L 54.260054 122.35692 C 55.306923 122.9826 56.856079 123.24964 57.127579 124.42915 L 59.099035 127.98293 L 60.99866 125.68385 L 56.209289 121.82155 C 54.92536 121.2302 54.855641 120.17452 54.637292 118.84292 L 51.081953 115.55889 L 48.911026 115.34805 L 46.852237 114.27008 C 45.918088 114.75233 45.628495 114.69254 44.571756 114.19411 z " /><path
         id="path23604"
         style="fill:url(#linearGradient26785);fill-opacity:1;stroke-width:0.129833;stroke-linecap:round;stroke-linejoin:round;stroke-miterlimit:9.4"
         d="m 95.40833,114.30289 -0.43057,-0.51898 c -3.81549,1.37159 -10.02735,4.39141 -11.02246,3.82317 -1.46683,0.38679 -1.85047,0.39454 -2.92918,-0.44174 l -2.88285,0.89056 -2.82159,-0.24384 -5.31418,3.353 c -0.59321,1.64844 -0.93209,2.97968 -2.71091,3.43143 l -8.19775,3.38624 3.11787,3.22073 3.29246,-3.49482 c 0.62516,-1.44173 2.6656,-1.41704 4.14986,-1.96859 l 2.83512,-4.7191 c 0.43686,-0.0515 1.25754,-0.92631 2.91295,-1.285 1.65544,-0.35868 1.12017,1.11669 3.12724,-0.0553 1.6479,-0.96228 2.63416,-0.54527 5.87797,-0.79691 1.77802,-0.13795 9.10555,-4.698 10.99626,-4.5811 z"
         sodipodi:nodetypes="cccccccccccccsssc" /><path
         id="rect24332"
         style="fill:url(#linearGradient26787);fill-opacity:1;stroke-width:0.1;stroke-linecap:round;stroke-linejoin:round;stroke-miterlimit:9.4"
         d="m 52.65203,108.69215 3.85609,4.01384 c 0.95818,1.60983 1.91636,2.00512 2.87454,2.33118 l 2.94465,-0.52583 v 2.38377 l -3.01476,0.0351 c -1.39608,-1.30845 -1.58356,-1.26806 -2.98464,-2.58151 -1.40108,-1.31344 -4.01577,-3.98071 -5.49876,-5.37606 1.91636,0 -6.41431,-0.28045 1.82288,-0.28045 z"
         sodipodi:nodetypes="ccccccscc" /><path
         id="rect25135"
         style="fill:url(#linearGradient26789);fill-opacity:1;stroke-width:0.1;stroke-linecap:round;stroke-linejoin:round;stroke-miterlimit:9.4"
         d="m 63.21363,126.63202 c 0.51137,-1.66445 0.80102,-2.88545 2.06204,-6.04919 l 1.71374,-1.77003 c 5.26023,-3.90404 3.58752,-3.20308 5.09725,-4.5067 l 2.95768,-4.10864 0.98421,0.91631 -2.5223,3.64838 c -1.85187,2.504 -2.41183,2.7933 -3.41793,3.84741 -1.17116,0.41249 -2.38224,0.71852 -3.16915,2.15565 -0.60245,0.63595 -0.75849,2.9087 -0.97981,4.94208 z"
         sodipodi:nodetypes="ccccccccccc" /><path
         id="rect25138"
         style="fill:url(#linearGradient26791);fill-opacity:1;stroke-width:0.1;stroke-linecap:round;stroke-linejoin:round;stroke-miterlimit:9.4"
         d="m 61.69772,115.22533 c 1.330215,-0.54834 2.635271,-1.09667 4.092075,-1.645 l 1.249924,-0.72298 c 1.103961,-0.24451 2.207914,-0.4854 3.311872,-0.85906 l 2.416249,-1.55566 0.646778,0.73314 -1.125519,1.54399 c -3.326406,1.32214 -4.652818,1.69189 -5.205647,1.69326 l -1.374308,1.54399 -2.568494,1.59375 z"
         sodipodi:nodetypes="ccccccccccc" /><path
         id="path25141"
         style="fill:url(#linearGradient26793);fill-opacity:1;stroke-width:0.0786244;stroke-linecap:round;stroke-linejoin:round;stroke-miterlimit:9.4"
         d="m 72.2175,115.98438 c 1.22772,-0.76038 2.49495,-1.36888 4.21741,-1.27491 l 1.41038,-0.2941 c 0.58753,-0.4301 1.19827,-0.86174 3.1516,-1.23601 1.19923,-0.15019 2.61144,-0.63758 4.60081,-2.03882 l -0.23112,-0.18411 c -1.03496,0.45591 -2.62997,1.65367 -3.75012,1.34291 -3.41995,1.29903 -4.15045,1.15454 -4.59782,1.42227 l -1.96582,-4.7e-4 -2.95816,0.55763 z"
         sodipodi:nodetypes="ccccccccccc" /><path
         id="path8081"
         style="fill:#faff97;fill-opacity:1;fill-rule:evenodd;stroke-width:0.267674"
         class="UnoptimicedTransforms"
         inkscape:label="hill highlight"
         d="m 74.839676,139.95895 c -9.185044,0.0163 -21.664446,2.1125 -30.527336,6.9727 v 5.95829 h 119.32812 v -5.95829 c -8.86288,-4.8602 -21.3423,-6.9564 -30.52734,-6.9727 -0.14579,0 -0.28945,0.001 -0.43356,0.002 -8.53675,0.0466 -20.07298,1.89385 -28.70316,6.23425 -8.630173,-4.3404 -20.164354,-6.18765 -28.701092,-6.23425 -0.144107,-7.9e-4 -0.289837,-0.002 -0.435632,-0.002 z"
         transform="translate(0,-1.229538)" /><path
         id="path5189"
         style="display:inline;fill:#230606;fill-opacity:1;fill-rule:evenodd;stroke-width:0.267674"
         class="UnoptimicedTransforms"
         d="m 74.839844,139.95898 c -9.185053,0.0163 -21.664446,2.11246 -30.527344,6.97266 v 18.93555 h 11.228516 c -2.530948,-2.00414 -4.174979,-4.47036 -5.183594,-5.8086 -0.474756,-0.62991 -0.410815,-0.79569 0.375,-0.58398 12.654352,3.40925 18.036967,3.72179 23.732422,5.49219 -0.675197,-1.23951 -1.832335,-3.18299 -2.78711,-4.5625 -0.679941,-0.98241 -0.513173,-1.2945 0.625,-0.88282 5.098096,1.84399 8.030898,3.18312 10.53711,4.42188 -0.380186,-2.10069 -0.36754,-3.55116 -0.390625,-4.33789 -0.01169,-0.39844 0.05927,-1.00173 0.404297,-0.9043 0.65039,0.18366 1.78208,0.79011 3.197265,1.66211 -0.406997,-0.56089 -0.793983,-1.11092 -1.154297,-1.63281 -1.5974,-2.31369 -0.978808,-3.22924 1.69336,-2.25781 5.869652,2.13383 10.418789,3.90181 14.216796,5.46289 -0.25994,-0.9704 -0.49685,-2.08103 -0.68945,-3.01367 -0.232648,-1.12656 0.20468,-1.38523 1.00976,-0.55079 1.3057,1.35334 2.12169,2.39609 2.84961,3.38282 0.72792,-0.98673 1.54391,-2.02948 2.84961,-3.38282 0.80508,-0.83444 1.24241,-0.57577 1.00977,0.55079 -0.1926,0.93264 -0.42756,2.04327 -0.6875,3.01367 3.79801,-1.56108 8.34714,-3.32906 14.21679,-5.46289 2.67217,-0.97143 3.28881,-0.0559 1.69141,2.25781 -0.36031,0.52189 -0.74535,1.07192 -1.15234,1.63281 1.41518,-0.872 2.54492,-1.47845 3.19531,-1.66211 0.34503,-0.0974 0.41599,0.50586 0.4043,0.9043 -0.0231,0.78673 -0.008,2.2372 -0.38868,4.33789 2.50622,-1.23876 5.43706,-2.57789 10.53516,-4.42188 1.13817,-0.41168 1.30689,-0.0996 0.62695,0.88282 -0.95477,1.37951 -2.11386,3.32299 -2.78906,4.5625 5.69546,-1.7704 11.08002,-2.08294 23.73438,-5.49219 0.78581,-0.21171 0.84975,-0.0459 0.375,0.58398 -1.00862,1.33824 -2.65265,3.80446 -5.1836,5.8086 h 11.22656 v -18.93555 c -8.86289,-4.8602 -21.34229,-6.95636 -30.52734,-6.97266 -0.14579,0 -0.28948,0.001 -0.43359,0.002 -8.53675,0.0466 -20.07294,1.89397 -28.70313,6.23437 -8.630181,-4.3404 -20.164423,-6.18777 -28.701169,-6.23437 -0.144108,-7.9e-4 -0.289752,-0.002 -0.435547,-0.002 z"
         inkscape:path-effect="#path-effect6466"
         inkscape:original-d="m 74.839676,139.95946 c -9.185053,0.0163 -21.663404,2.1125 -30.526302,6.9727 v 18.93425 h 11.227222 c -2.530948,-2.00414 -4.175048,-4.46864 -5.183663,-5.80688 -0.474756,-0.62991 -0.411161,-0.79566 0.374654,-0.58395 12.654352,3.40925 18.03798,3.72178 23.733435,5.49218 -0.675197,-1.23951 -1.833169,-3.18404 -2.787944,-4.56355 -0.679941,-0.98241 -0.511854,-1.2938 0.626319,-0.88212 5.098096,1.84399 8.029579,3.18216 10.535791,4.42092 -0.380186,-2.10069 -0.366555,-3.5515 -0.38964,-4.33823 -0.01169,-0.39844 0.05908,-1.00022 0.404109,-0.90279 0.65039,0.18366 1.781003,0.7894 3.196188,1.6614 -0.406997,-0.56089 -0.793104,-1.11109 -1.153418,-1.63298 -1.5974,-2.31369 -0.979249,-3.22969 1.692919,-2.25826 5.869652,2.13383 10.418696,3.90267 14.216704,5.46375 -0.25994,-0.9704 -0.49573,-2.08216 -0.68833,-3.0148 -0.232645,-1.12655 0.20468,-1.3848 1.00976,-0.55036 1.3057,1.35334 2.12152,2.39601 2.84944,3.38274 v -15.55822 c -8.630183,-4.3404 -20.165382,-6.18816 -28.702128,-6.23476 -0.144108,-7.9e-4 -0.289321,-0.001 -0.435116,-0.001 z"
         inkscape:label="hill" /><path
         id="path7811"
         style="fill:#1b0303;fill-opacity:1;fill-rule:evenodd;stroke-width:0.261434"
         d="m 47.039823,172.60571 c -0.962411,-0.003 -1.870855,0.0328 -2.727483,0.10241 v 10.046 l 25.600261,0.0994 c -1.041509,-1.71553 -2.940386,-3.31512 -4.824268,-3.76897 -3.361317,-0.80975 -2.646445,0.32814 -4.7656,-0.72654 -1.332439,-0.66315 -5.347758,-5.20584 -9.936861,-5.59868 -1.180666,-0.10104 -2.295284,-0.15026 -3.346049,-0.15367 z m 113.874177,0 c 0.96242,-0.003 1.87086,0.0328 2.72749,0.10241 v 10.046 l -25.60026,0.0994 c 1.04151,-1.71553 2.94038,-3.31512 4.82426,-3.76897 3.36132,-0.80975 2.64645,0.32814 4.7656,-0.72654 1.33244,-0.66315 5.34776,-5.20584 9.93687,-5.59868 1.18066,-0.10104 2.29528,-0.15026 3.34604,-0.15367 z"
         inkscape:label="foreground"
         inkscape:path-effect="#path-effect8079"
         inkscape:original-d="m 47.039823,172.60571 c -0.962411,-0.003 -1.870855,0.0328 -2.727483,0.10241 v 10.046 l 25.600261,0.0994 c -1.041509,-1.71553 -2.940386,-3.31512 -4.824268,-3.76897 -3.361317,-0.80975 -2.646445,0.32814 -4.7656,-0.72654 -1.332439,-0.66315 -5.347758,-5.20584 -9.936861,-5.59868 -1.180666,-0.10104 -2.295284,-0.15026 -3.346049,-0.15367 z"
         class="UnoptimicedTransforms"
         sodipodi:nodetypes="cccccsccc" /><path
         id="path26085"
         style="fill:#1b0303;fill-opacity:1;fill-rule:evenodd;stroke-width:0.261434"
         d="m 47.039823,172.60571 c -0.962411,-0.003 -1.870855,0.0328 -2.727483,0.10241 v 10.046 l 25.296131,-0.16099 c 1.447632,-0.009 -2.636256,-3.05472 -4.520138,-3.50857 -3.361317,-0.80975 -2.646445,0.32814 -4.7656,-0.72654 -1.332439,-0.66315 -5.347758,-5.20584 -9.936861,-5.59868 -1.180666,-0.10104 -2.295284,-0.15026 -3.346049,-0.15367 z m 113.874177,0 c 0.96242,-0.003 1.87086,0.0328 2.72749,0.10241 v 10.046 l -25.29613,-0.16099 c -1.44764,-0.009 2.63625,-3.05472 4.52013,-3.50857 3.36132,-0.80975 2.64645,0.32814 4.7656,-0.72654 1.33244,-0.66315 5.34776,-5.20584 9.93687,-5.59868 1.18066,-0.10104 2.29528,-0.15026 3.34604,-0.15367 z"
         inkscape:label="foreground"
         inkscape:path-effect="#path-effect26089"
         inkscape:original-d="m 47.039823,172.60571 c -0.962411,-0.003 -1.870855,0.0328 -2.727483,0.10241 v 10.046 l 25.296131,-0.16099 c 1.447632,-0.009 -2.636256,-3.05472 -4.520138,-3.50857 -3.361317,-0.80975 -2.646445,0.32814 -4.7656,-0.72654 -1.332439,-0.66315 -5.347758,-5.20584 -9.936861,-5.59868 -1.180666,-0.10104 -2.295284,-0.15026 -3.346049,-0.15367 z"
         class="UnoptimicedTransforms"
         transform="matrix(1,0,0,-0.41989271,0,259.39689)"
         sodipodi:nodetypes="cccsssscc" /></g><rect
       style="fill:#82480d;stroke-width:0.0600945;stroke-linecap:round;stroke-linejoin:round;stroke-miterlimit:9.4;fill-opacity:1"
       id="rect29838"
       width="119.32708"
       height="3.0332699"
       x="44.313374"
       y="197.24448" /><g
       id="g26777"
       transform="translate(-182.08207,6.1448657)"
       style="display:none;fill:url(#linearGradient25435);fill-opacity:1"><path
         id="path26761"
         style="opacity:1;fill:url(#linearGradient25435);fill-opacity:1;fill-rule:evenodd;stroke-width:0.234338"
         d="m 286.83203,108.31832 c -0.91815,0.92981 -0.45307,0.86876 -2.56666,1.31237 -2.11359,0.44361 -4.71603,1.59344 -7.98765,1.72002 -3.27163,0.12658 -4.02794,-5.10368 -8.42019,-5.12495 -1.09806,-0.005 -0.96174,-2.31796 -2.61352,-1.85351 -1.65178,0.46445 -2.70329,1.48884 -4.58477,2.11077 -1.88148,0.62193 -3.39876,0.23671 -5.18593,0.70383 -1.78718,0.46711 -6.13334,-3.93322 -7.50198,-3.95794 -5.60885,-0.10131 -3.86921,4.13176 -6.79396,3.19775 -10.03608,-3.20499 -11.19146,-4.59773 -13.3362,-3.31651 -4.2271,2.52518 -11.24617,3.55848 -12.59887,2.36426 -0.98612,-0.87059 -2.8131,-4.05253 -3.84283,-5.21852 -0.8656,-0.98014 2.20435,-2.366109 4.2111,-3.505514 2.00675,-1.139405 0.43236,-1.762381 4.0206,-2.624111 3.58824,-0.861729 3.38272,0.75886 8.1272,0.276932 4.74448,-0.481927 6.9753,-4.174955 12.45076,-4.174954 2.73774,0 2.1189,-1.032514 5.03516,-0.889115 2.91626,0.143399 3.19767,0.555687 6.14368,0.824999 2.83292,0.612846 4.01368,-1.453064 6.50733,-1.141462 1.34688,0.168303 2.16787,1.430985 4.53381,1.878632 2.56311,0.484954 1.06607,1.386864 3.2086,1.722064 1.09126,0.170729 1.86417,-0.961189 5.02567,0.206779 1.74738,0.645542 3.37945,1.556892 3.97001,3.973998 0.6474,2.649764 2.39669,3.431122 2.79097,3.580632 1.57715,0.59805 3.13294,-0.0904 3.9959,0.54606 2.91538,-0.16663 8.24095,5.60709 5.41177,7.38749 z"
         sodipodi:nodetypes="csssssssssssssssscsssssscc" /><path
         id="path26763"
         style="opacity:1;fill:url(#linearGradient25435);fill-opacity:1;stroke-width:0.0912966;stroke-linecap:round;stroke-linejoin:round;stroke-miterlimit:9.4"
         d="m 244.91273,101.78854 h 3.97056 c -1.89337,2.3156 -5.78503,3.1542 -2.77292,9.09559 -1.79666,1.50525 -2.81663,4.36968 -2.77291,9.0956 l 2.74055,10.59534 c 1.34415,3.02297 2.41004,6.60245 4.61792,7.89796 l -6.12847,-0.43159 c -0.0579,-6.40283 -1.43919,-12.50025 -4.48845,-18.21276 1.90066,-3.31862 3.15301,-6.18342 2.76213,-7.89796 -0.84166,-3.38073 1.38106,-6.76145 2.07159,-10.14218 z"
         sodipodi:nodetypes="cccccccccc" /><path
         id="path26765"
         style="opacity:1;fill:url(#linearGradient25435);fill-opacity:1;stroke-width:0.1;stroke-linecap:round;stroke-linejoin:round;stroke-miterlimit:9.4"
         d="m 218.44257,103.94225 0.39882,-0.33277 c 2.69759,1.57335 6.97922,4.73074 7.8125,4.43978 1.05674,0.49843 1.34622,0.55806 2.28037,0.0758 l 2.05863,1.07837 2.17116,0.21065 3.55507,3.28396 c 0.21835,1.3316 0.28851,2.38733 1.57244,2.97868 l 4.78898,3.86238 -1.89963,2.29876 -1.97146,-3.55347 c -0.2715,-1.17951 -1.82032,-1.44666 -2.86719,-2.07234 l -1.48612,-3.97131 c -0.3236,-0.1004 -0.82266,-0.87775 -2.02618,-1.38132 -1.20352,-0.50357 -1.00482,0.68882 -2.36073,-0.48002 -1.11327,-0.95967 -1.91866,-0.78201 -4.34017,-1.42705 -1.3273,-0.35357 -6.23815,-4.83379 -7.68649,-5.01013 z"
         sodipodi:nodetypes="cccccccccccccssscc" /><path
         id="path26767"
         style="opacity:1;fill:url(#linearGradient25435);fill-opacity:1;stroke-width:0.129833;stroke-linecap:round;stroke-linejoin:round;stroke-miterlimit:9.4"
         d="m 277.4904,108.15802 -0.43057,-0.51898 c -3.81549,1.37159 -10.02735,4.39141 -11.02246,3.82317 -1.46683,0.38679 -1.85047,0.39454 -2.92918,-0.44174 l -2.88285,0.89056 -2.82159,-0.24384 -5.31418,3.353 c -0.59321,1.64844 -0.93209,2.97968 -2.71091,3.43143 l -8.19775,3.38624 3.11787,3.22073 3.29246,-3.49482 c 0.62516,-1.44173 2.6656,-1.41704 4.14986,-1.96859 l 2.83512,-4.7191 c 0.43686,-0.0515 1.25754,-0.92631 2.91295,-1.285 1.65544,-0.35868 1.12017,1.11669 3.12724,-0.0553 1.6479,-0.96228 2.63416,-0.54527 5.87797,-0.79691 1.77802,-0.13795 9.10555,-4.698 10.99626,-4.5811 z"
         sodipodi:nodetypes="cccccccccccccsssc" /><path
         id="path26769"
         style="opacity:1;fill:url(#linearGradient25435);fill-opacity:1;stroke-width:0.1;stroke-linecap:round;stroke-linejoin:round;stroke-miterlimit:9.4"
         d="m 234.7341,102.54728 3.85609,4.01384 c 0.95818,1.60983 1.91636,2.00512 2.87454,2.33118 l 2.94465,-0.52583 v 2.38377 l -3.01476,0.0351 c -1.39608,-1.30845 -1.58356,-1.26806 -2.98464,-2.58151 -1.40108,-1.31344 -4.01577,-3.98071 -5.49876,-5.37606 1.91636,0 -6.41431,-0.28045 1.82288,-0.28045 z"
         sodipodi:nodetypes="ccccccscc" /><path
         id="path26771"
         style="opacity:1;fill:url(#linearGradient25435);fill-opacity:1;stroke-width:0.1;stroke-linecap:round;stroke-linejoin:round;stroke-miterlimit:9.4"
         d="m 245.2957,120.48715 c 0.51137,-1.66445 0.80102,-2.88545 2.06204,-6.04919 l 1.71374,-1.77003 c 5.26023,-3.90404 3.58752,-3.20308 5.09725,-4.5067 l 2.95768,-4.10864 0.98421,0.91631 -2.5223,3.64838 c -1.85187,2.504 -2.41183,2.7933 -3.41793,3.84741 -1.17116,0.41249 -2.38224,0.71852 -3.16915,2.15565 -0.60245,0.63595 -0.75849,2.9087 -0.97981,4.94208 z"
         sodipodi:nodetypes="ccccccccccc" /><path
         id="path26773"
         style="opacity:1;fill:url(#linearGradient25435);fill-opacity:1;stroke-width:0.1;stroke-linecap:round;stroke-linejoin:round;stroke-miterlimit:9.4"
         transform="rotate(-31.81958)"
         d="m 149.63049,221.21901 c 1.41941,0.23542 2.81744,0.45758 4.34441,0.75975 l 1.44326,0.0447 c 1.06697,0.37429 2.13202,0.75166 3.26708,1.01621 l 2.87333,-0.0479 0.16303,0.96397 -1.77043,0.71852 c -3.52358,-0.6304 -4.8456,-1.01556 -5.31607,-1.30587 l -1.98183,0.58735 h -3.02278 z"
         sodipodi:nodetypes="ccccccccccc" /><path
         id="path26775"
         style="opacity:1;fill:url(#linearGradient25435);fill-opacity:1;stroke-width:0.0786244;stroke-linecap:round;stroke-linejoin:round;stroke-miterlimit:9.4"
         d="m 254.29957,109.83951 c 1.22772,-0.76038 2.49495,-1.36888 4.21741,-1.27491 l 1.41038,-0.2941 c 0.58753,-0.4301 1.19827,-0.86174 3.1516,-1.23601 1.19923,-0.15019 2.61144,-0.63758 4.60081,-2.03882 l -0.23112,-0.18411 c -1.03496,0.45591 -2.62997,1.65367 -3.75012,1.34291 -3.41995,1.29903 -4.15045,1.15454 -4.59782,1.42227 l -1.96582,-4.7e-4 -2.95816,0.55763 z"
         sodipodi:nodetypes="ccccccccccc" /></g></g></svg>
