<?xml version="1.0" encoding="UTF-8" standalone="no"?>
<!-- Created with Inkscape (http://www.inkscape.org/) -->

<svg
   width="26.213251mm"
   height="20.524584mm"
   viewBox="0 0 26.213251 20.524584"
   version="1.1"
   id="svg5"
   xml:space="preserve"
   inkscape:version="1.2 (dc2aedaf03, 2022-05-15)"
   sodipodi:docname="Nav Icon_Arctic.svg"
   xmlns:inkscape="http://www.inkscape.org/namespaces/inkscape"
   xmlns:sodipodi="http://sodipodi.sourceforge.net/DTD/sodipodi-0.dtd"
   xmlns:xlink="http://www.w3.org/1999/xlink"
   xmlns="http://www.w3.org/2000/svg"
   xmlns:svg="http://www.w3.org/2000/svg"><sodipodi:namedview
     id="namedview7"
     pagecolor="#505050"
     bordercolor="#ffffff"
     borderopacity="1"
     inkscape:showpageshadow="0"
     inkscape:pageopacity="0"
     inkscape:pagecheckerboard="1"
     inkscape:deskcolor="#505050"
     inkscape:document-units="mm"
     showgrid="false"
     showguides="false"
     inkscape:zoom="2.4007796"
     inkscape:cx="46.651513"
     inkscape:cy="57.89786"
     inkscape:window-width="1366"
     inkscape:window-height="705"
     inkscape:window-x="-8"
     inkscape:window-y="-8"
     inkscape:window-maximized="1"
     inkscape:current-layer="g8819" /><defs
     id="defs2"><inkscape:path-effect
       effect="tiling"
       id="path-effect8800"
       is_visible="true"
       lpeversion="1"
       unit="px"
       seed="1;1"
       lpesatellites=""
       num_rows="5"
       num_cols="4"
       gapx="36"
       gapy="36"
       offset="-48"
       offset_type="false"
       scale="0"
       rotate="0"
       mirrorrowsx="false"
       mirrorrowsy="false"
       mirrorcolsx="false"
       mirrorcolsy="false"
       mirrortrans="false"
       shrink_interp="false"
       split_items="false"
       link_styles="false"
       interpolate_scalex="false"
       interpolate_scaley="true"
       interpolate_rotatex="false"
       interpolate_rotatey="true"
       random_scale="false"
       random_rotate="false"
       random_gap_y="false"
       random_gap_x="false"
       transformorigin="" /><inkscape:path-effect
       effect="fillet_chamfer"
       id="path-effect5709"
       is_visible="true"
       lpeversion="1"
       nodesatellites_param="F,0,0,1,0,0,0,1 @ F,0,0,1,0,0,0,1 @ F,0,0,1,0,0,0,1 @ F,0,0,1,0,0,0,1 @ F,0,0,1,0,0,0,1 @ F,0,0,1,0,0.4581543,0,1 @ F,0,0,1,0,0,0,1 @ F,0,0,1,0,0,0,1 @ F,0,0,1,0,0,0,1 @ F,0,0,1,0,0,0,1 @ F,0,0,1,0,0.53049445,0,1 @ F,0,0,1,0,0,0,1 @ F,0,0,1,0,0,0,1 @ F,0,0,1,0,0,0,1 @ F,0,0,1,0,0,0,1 | F,0,0,1,0,0,0,1 @ F,0,0,1,0,0,0,1 @ F,0,0,1,0,0,0,1 @ F,0,0,1,0,0,0,1 @ F,0,0,1,0,0,0,1 @ F,0,0,1,0,0,0,1 @ F,0,0,1,0,0,0,1 @ F,0,0,1,0,0,0,1"
       unit="px"
       method="auto"
       mode="F"
       radius="0"
       chamfer_steps="1"
       flexible="false"
       use_knot_distance="true"
       apply_no_radius="true"
       apply_with_radius="true"
       only_selected="false"
       hide_knots="false" /><inkscape:path-effect
       effect="fillet_chamfer"
       id="path-effect2137"
       is_visible="true"
       lpeversion="1"
       nodesatellites_param="F,0,0,1,0,8,0,1 @ F,0,0,1,0,0,0,1 @ F,0,0,1,0,0,0,1 @ F,0,0,1,0,0,0,1 @ F,0,0,1,0,8,0,1 @ F,0,0,1,0,0,0,1 @ F,0,0,1,0,0,0,1 @ F,0,0,1,0,0,0,1 @ F,0,0,1,0,0,0,1 @ F,0,0,1,0,0,0,1"
       unit="px"
       method="auto"
       mode="F"
       radius="0"
       chamfer_steps="1"
       flexible="false"
       use_knot_distance="true"
       apply_no_radius="true"
       apply_with_radius="true"
       only_selected="false"
       hide_knots="false" /><inkscape:path-effect
       effect="mirror_symmetry"
       start_point="4.5560511,145.07496"
       end_point="-20.970424,169.23206"
       center_point="-8.2071863,157.15351"
       id="path-effect2078"
       is_visible="true"
       lpeversion="1.2"
       lpesatellites=""
       mode="vertical"
       discard_orig_path="false"
       fuse_paths="true"
       oposite_fuse="false"
       split_items="false"
       split_open="false"
       link_styles="false" /><inkscape:path-effect
       effect="fillet_chamfer"
       id="path-effect1953"
       is_visible="true"
       lpeversion="1"
       nodesatellites_param="F,0,0,1,0,0,0,1 @ F,0,0,1,0,0,0,1 @ F,0,0,1,0,0.68058242,0,1"
       unit="px"
       method="auto"
       mode="F"
       radius="0"
       chamfer_steps="1"
       flexible="false"
       use_knot_distance="true"
       apply_no_radius="true"
       apply_with_radius="true"
       only_selected="false"
       hide_knots="false" /><inkscape:path-effect
       effect="fillet_chamfer"
       id="path-effect1885"
       is_visible="true"
       lpeversion="1"
       nodesatellites_param="F,0,0,1,0,0.025729922,0,1 @ F,0,0,1,0,0,0,1 @ F,0,0,1,0,0.84764408,0,1 @ F,0,0,1,0,0.9288475,0,1"
       unit="px"
       method="auto"
       mode="F"
       radius="0"
       chamfer_steps="1"
       flexible="false"
       use_knot_distance="true"
       apply_no_radius="true"
       apply_with_radius="true"
       only_selected="false"
       hide_knots="false" /><inkscape:path-effect
       effect="mirror_symmetry"
       start_point="173.94468,87.823316"
       end_point="173.94468,111.88232"
       center_point="173.94468,99.852816"
       id="path-effect1828"
       is_visible="true"
       lpeversion="1.2"
       lpesatellites=""
       mode="vertical"
       discard_orig_path="false"
       fuse_paths="true"
       oposite_fuse="false"
       split_items="false"
       split_open="false"
       link_styles="false" /><inkscape:path-effect
       effect="fillet_chamfer"
       id="path-effect1818"
       is_visible="true"
       lpeversion="1"
       nodesatellites_param="F,0,0,1,0,0,0,1 @ F,0,0,1,0,2.6241049,0,1 @ F,0,0,1,0,0,0,1 @ F,0,0,1,0,1.443101,0,1 @ F,0,0,1,0,0,0,1 @ F,0,0,1,0,0,0,1 @ F,0,0,1,0,0.7857946,0,1 @ F,0,0,1,0,0,0,1 @ F,0,0,1,0,0,0,1 @ F,0,0,1,0,0,0,1"
       unit="px"
       method="auto"
       mode="F"
       radius="0"
       chamfer_steps="1"
       flexible="false"
       use_knot_distance="true"
       apply_no_radius="true"
       apply_with_radius="true"
       only_selected="false"
       hide_knots="false" /><inkscape:path-effect
       effect="mirror_symmetry"
       start_point="109.86484,87.18808"
       end_point="109.86484,140.10475"
       center_point="109.86484,113.64641"
       id="path-effect1649"
       is_visible="true"
       lpeversion="1.2"
       lpesatellites=""
       mode="vertical"
       discard_orig_path="false"
       fuse_paths="false"
       oposite_fuse="false"
       split_items="false"
       split_open="false"
       link_styles="false" /><style
       id="style6175">.cls-1{fill:url(#linear-gradient);}.cls-2{fill:#ba2e7e;}.cls-3{fill:url(#linear-gradient-2);}.cls-4{fill:#ffcd05;}.cls-5{fill:#fabc2e;}.cls-6,.cls-7{fill-opacity:0.5;}.cls-6{fill:url(#radial-gradient);}.cls-7{fill:url(#radial-gradient-2);}.cls-8{fill:#9a1c25;}.cls-9{fill:#fff;}.cls-10{fill:#32160f;}.cls-11,.cls-13{fill:#61727c;}.cls-12{fill:#92a1ad;}.cls-13{opacity:0.25;}.cls-14{fill:#bc6234;}.cls-15{fill:#f6871f;}.cls-16{fill:#9e1f63;}.cls-17{fill:#f4fbfe;}</style><linearGradient
       id="linear-gradient"
       x1="150"
       y1="356.10999"
       x2="150"
       y2="202.58"
       gradientUnits="userSpaceOnUse"><stop
         offset="0"
         stop-color="#9e1f63"
         id="stop6177" /><stop
         offset="0.34"
         stop-color="#531137"
         id="stop6179" /></linearGradient><linearGradient
       id="linear-gradient-2"
       x1="150"
       y1="339.51001"
       x2="150"
       y2="252.92"
       gradientUnits="userSpaceOnUse"><stop
         offset="0"
         stop-color="#fabc2e"
         id="stop6182" /><stop
         offset="1"
         stop-color="#cd8029"
         id="stop6184" /></linearGradient><radialGradient
       id="radial-gradient"
       cx="257.16"
       cy="256.04999"
       r="41.849998"
       gradientUnits="userSpaceOnUse"><stop
         offset="0"
         stop-color="#ec008c"
         id="stop6187" /><stop
         offset="1"
         stop-color="#ffcd05"
         stop-opacity="0"
         id="stop6189" /></radialGradient><radialGradient
       id="radial-gradient-2"
       cx="42.84"
       cy="256.04999"
       r="41.849998"
       xlink:href="#radial-gradient" /><clipPath
       clipPathUnits="userSpaceOnUse"
       id="clipPath8813"><path
         style="display:inline;opacity:0.517241;fill:#007aff;fill-opacity:1;stroke:none;stroke-width:19.6482;stroke-linecap:round;stroke-linejoin:round;stroke-dasharray:none;stroke-opacity:1"
         id="path8815"
         width="87.208267"
         height="44.343185"
         x="-351.90381"
         y="103.49424"
         ry="11.085796"
         class="UnoptimicedTransforms"
         sodipodi:type="rect"
         transform="translate(-99.033108,-53.211821)"
         d="m -340.81801,103.49424 h 65.03667 c 6.14153,0 11.0858,4.94426 11.0858,11.0858 v 22.17159 c 0,6.14153 -4.94427,11.0858 -11.0858,11.0858 h -65.03667 c -6.14153,0 -11.0858,-4.94427 -11.0858,-11.0858 v -22.17159 c 0,-6.14154 4.94427,-11.0858 11.0858,-11.0858 z m 96.73326,0 h 65.03668 c 6.14153,0 11.0858,4.94426 11.0858,11.0858 v 22.17159 c 0,6.14153 -4.94427,11.0858 -11.0858,11.0858 h -65.03668 c -6.14153,0 -11.08579,-4.94427 -11.08579,-11.0858 v -22.17159 c 0,-6.14154 4.94426,-11.0858 11.08579,-11.0858 z m 96.73327,0 h 65.036677 c 6.141531,0 11.085796,4.94426 11.085796,11.0858 v 22.17159 c 0,6.14153 -4.944265,11.0858 -11.085796,11.0858 h -65.036677 c -6.14153,0 -11.08579,-4.94427 -11.08579,-11.0858 v -22.17159 c 0,-6.14154 4.94426,-11.0858 11.08579,-11.0858 z m 96.733269,0 h 65.036675 c 6.141531,0 11.085796,4.94426 11.085796,11.0858 v 22.17159 c 0,6.14153 -4.944265,11.0858 -11.085796,11.0858 h -65.036675 c -6.141531,0 -11.085796,-4.94427 -11.085796,-11.0858 v -22.17159 c 0,-6.14154 4.944265,-11.0858 11.085796,-11.0858 z m -336.631769,53.86819 h 65.03667 c 6.14154,0 11.0858,4.94426 11.0858,11.08579 v 22.17159 c 0,6.14154 -4.94426,11.0858 -11.0858,11.0858 h -65.03667 c -6.14153,0 -11.0858,-4.94426 -11.0858,-11.0858 v -22.17159 c 0,-6.14153 4.94427,-11.08579 11.0858,-11.08579 z m 96.73327,0 h 65.03667 c 6.14153,0 11.0858,4.94426 11.0858,11.08579 v 22.17159 c 0,6.14154 -4.94427,11.0858 -11.0858,11.0858 h -65.03667 c -6.14153,0 -11.0858,-4.94426 -11.0858,-11.0858 v -22.17159 c 0,-6.14153 4.94427,-11.08579 11.0858,-11.08579 z m 96.73326,0 h 65.03668 c 6.14153,0 11.08579,4.94426 11.08579,11.08579 v 22.17159 c 0,6.14154 -4.94426,11.0858 -11.08579,11.0858 h -65.03668 c -6.14153,0 -11.08579,-4.94426 -11.08579,-11.0858 v -22.17159 c 0,-6.14153 4.94426,-11.08579 11.08579,-11.08579 z m 96.733271,0 h 65.036675 c 6.141531,0 11.085796,4.94426 11.085796,11.08579 v 22.17159 c 0,6.14154 -4.944265,11.0858 -11.085796,11.0858 h -65.036675 c -6.141531,0 -11.085801,-4.94426 -11.085801,-11.0858 v -22.17159 c 0,-6.14153 4.94427,-11.08579 11.085801,-11.08579 z m -243.767831,53.86818 h 65.03667 c 6.14153,0 11.0858,4.94427 11.0858,11.0858 V 244.488 c 0,6.14153 -4.94427,11.0858 -11.0858,11.0858 h -65.03667 c -6.14153,0 -11.0858,-4.94427 -11.0858,-11.0858 v -22.17159 c 0,-6.14153 4.94427,-11.0858 11.0858,-11.0858 z m 96.73326,0 h 65.03668 c 6.14153,0 11.0858,4.94427 11.0858,11.0858 V 244.488 c 0,6.14153 -4.94427,11.0858 -11.0858,11.0858 h -65.03668 c -6.14153,0 -11.08579,-4.94427 -11.08579,-11.0858 v -22.17159 c 0,-6.14153 4.94426,-11.0858 11.08579,-11.0858 z m 96.73327,0 h 65.036677 c 6.141531,0 11.085796,4.94427 11.085796,11.0858 V 244.488 c 0,6.14153 -4.944265,11.0858 -11.085796,11.0858 h -65.036677 c -6.14153,0 -11.08579,-4.94427 -11.08579,-11.0858 v -22.17159 c 0,-6.14153 4.94426,-11.0858 11.08579,-11.0858 z m 96.733269,0 h 65.036675 c 6.141531,0 11.085796,4.94427 11.085796,11.0858 V 244.488 c 0,6.14153 -4.944265,11.0858 -11.085796,11.0858 h -65.036675 c -6.141531,0 -11.085796,-4.94427 -11.085796,-11.0858 v -22.17159 c 0,-6.14153 4.944265,-11.0858 11.085796,-11.0858 z M -387.24998,265.0988 h 65.03667 c 6.14154,0 11.0858,4.94426 11.0858,11.08579 v 22.1716 c 0,6.14153 -4.94426,11.08579 -11.0858,11.08579 h -65.03667 c -6.14153,0 -11.0858,-4.94426 -11.0858,-11.08579 v -22.1716 c 0,-6.14153 4.94427,-11.08579 11.0858,-11.08579 z m 96.73327,0 h 65.03667 c 6.14153,0 11.0858,4.94426 11.0858,11.08579 v 22.1716 c 0,6.14153 -4.94427,11.08579 -11.0858,11.08579 h -65.03667 c -6.14153,0 -11.0858,-4.94426 -11.0858,-11.08579 v -22.1716 c 0,-6.14153 4.94427,-11.08579 11.0858,-11.08579 z m 96.73326,0 h 65.03668 c 6.14153,0 11.08579,4.94426 11.08579,11.08579 v 22.1716 c 0,6.14153 -4.94426,11.08579 -11.08579,11.08579 h -65.03668 c -6.14153,0 -11.08579,-4.94426 -11.08579,-11.08579 v -22.1716 c 0,-6.14153 4.94426,-11.08579 11.08579,-11.08579 z m 96.733271,0 h 65.036675 c 6.141531,0 11.085796,4.94426 11.085796,11.08579 v 22.1716 c 0,6.14153 -4.944265,11.08579 -11.085796,11.08579 h -65.036675 c -6.141531,0 -11.085801,-4.94426 -11.085801,-11.08579 v -22.1716 c 0,-6.14153 4.94427,-11.08579 11.085801,-11.08579 z m -243.767831,53.86818 h 65.03667 c 6.14153,0 11.0858,4.94427 11.0858,11.0858 v 22.17159 c 0,6.14153 -4.94427,11.0858 -11.0858,11.0858 h -65.03667 c -6.14153,0 -11.0858,-4.94427 -11.0858,-11.0858 v -22.17159 c 0,-6.14153 4.94427,-11.0858 11.0858,-11.0858 z m 96.73326,0 h 65.03668 c 6.14153,0 11.0858,4.94427 11.0858,11.0858 v 22.17159 c 0,6.14153 -4.94427,11.0858 -11.0858,11.0858 h -65.03668 c -6.14153,0 -11.08579,-4.94427 -11.08579,-11.0858 v -22.17159 c 0,-6.14153 4.94426,-11.0858 11.08579,-11.0858 z m 96.73327,0 h 65.036677 c 6.141531,0 11.085796,4.94427 11.085796,11.0858 v 22.17159 c 0,6.14153 -4.944265,11.0858 -11.085796,11.0858 h -65.036677 c -6.14153,0 -11.08579,-4.94427 -11.08579,-11.0858 v -22.17159 c 0,-6.14153 4.94426,-11.0858 11.08579,-11.0858 z m 96.733269,0 h 65.036675 c 6.141531,0 11.085796,4.94427 11.085796,11.0858 v 22.17159 c 0,6.14153 -4.944265,11.0858 -11.085796,11.0858 h -65.036675 c -6.141531,0 -11.085796,-4.94427 -11.085796,-11.0858 v -22.17159 c 0,-6.14153 4.944265,-11.0858 11.085796,-11.0858 z"
         inkscape:path-effect="#path-effect8800" /></clipPath></defs><g
     inkscape:label="Layer 1"
     inkscape:groupmode="layer"
     id="layer1"
     transform="translate(-96.02888,-99.990732)"><g
       id="medieval_fantasy"
       data-name="medieval fantasy"
       transform="matrix(0.08000732,0,0,0.08000732,132.93495,96.913845)"><g
         id="g8819"
         transform="translate(0.59337759)"><path
           id="rect8689"
           style="opacity:1;fill:#ffffff;fill-opacity:1;stroke:none;stroke-width:26.1412;stroke-linecap:round;stroke-linejoin:round;stroke-dasharray:none;stroke-opacity:1"
           d="m -298.05921,52.596239 c -80.45742,0 -145.22979,69.533331 -145.22979,155.906451 v 67.32177 c 0,2.73948 0.24587,5.40854 0.37462,8.11246 h 75.05961 c -0.0643,-1.1489 -0.16147,-2.28866 -0.16147,-3.45555 v -32.43045 c 0,-41.60382 31.1962,-75.0919 69.95057,-75.0919 38.75438,0 69.95703,33.48808 69.95703,75.0919 v 32.43045 c 0,1.16693 -0.10307,2.30662 -0.16794,3.45555 h 75.06607 c 0.12876,-2.70397 0.38108,-5.37293 0.38108,-8.11246 v -67.32177 c 0,-86.37312 -64.77236,-155.906451 -145.22978,-155.906451 z"
           clip-path="url(#clipPath8813)" /><path
           id="path8808"
           style="opacity:1;fill:#ffffff;fill-opacity:1;stroke:none;stroke-width:9.91921;stroke-linecap:round;stroke-linejoin:round;stroke-dasharray:none;stroke-opacity:1"
           d="m -297.46583,196.15546 c -30.52933,0 -55.10697,26.38416 -55.10697,59.15819 v 25.54503 c 0,1.03948 0.0933,2.05226 0.14214,3.07824 h 109.9272 c 0.0488,-1.02601 0.14459,-2.03873 0.14459,-3.07824 v -25.54503 c 0,-32.77403 -24.57762,-59.15819 -55.10696,-59.15819 z" /></g></g></g></svg>
