<?xml version="1.0" encoding="UTF-8" standalone="no"?>
<!-- Created with Inkscape (http://www.inkscape.org/) -->

<svg
   width="19.704832mm"
   height="19.116058mm"
   viewBox="0 0 19.704832 19.116059"
   version="1.1"
   id="svg5"
   xml:space="preserve"
   inkscape:version="1.2 (dc2aedaf03, 2022-05-15)"
   sodipodi:docname="Nav Icon_Safari 2.svg"
   xmlns:inkscape="http://www.inkscape.org/namespaces/inkscape"
   xmlns:sodipodi="http://sodipodi.sourceforge.net/DTD/sodipodi-0.dtd"
   xmlns="http://www.w3.org/2000/svg"
   xmlns:svg="http://www.w3.org/2000/svg"><sodipodi:namedview
     id="namedview7"
     pagecolor="#505050"
     bordercolor="#ffffff"
     borderopacity="1"
     inkscape:showpageshadow="0"
     inkscape:pageopacity="0"
     inkscape:pagecheckerboard="1"
     inkscape:deskcolor="#505050"
     inkscape:document-units="mm"
     showgrid="false"
     showguides="false"
     inkscape:zoom="4.7768403"
     inkscape:cx="32.029541"
     inkscape:cy="40.193933"
     inkscape:window-width="1366"
     inkscape:window-height="705"
     inkscape:window-x="-8"
     inkscape:window-y="-8"
     inkscape:window-maximized="1"
     inkscape:current-layer="g3401" /><defs
     id="defs2"><inkscape:path-effect
       effect="mirror_symmetry"
       start_point="113.94668,104.51212"
       end_point="113.94668,113.29222"
       center_point="113.94668,108.90217"
       id="path-effect2636"
       is_visible="true"
       lpeversion="1.2"
       lpesatellites=""
       mode="vertical"
       discard_orig_path="false"
       fuse_paths="false"
       oposite_fuse="false"
       split_items="false"
       split_open="false"
       link_styles="false" /><style
       id="style6175">.cls-1{fill:url(#linear-gradient);}.cls-2{fill:#ba2e7e;}.cls-3{fill:url(#linear-gradient-2);}.cls-4{fill:#ffcd05;}.cls-5{fill:#fabc2e;}.cls-6,.cls-7{fill-opacity:0.5;}.cls-6{fill:url(#radial-gradient);}.cls-7{fill:url(#radial-gradient-2);}.cls-8{fill:#9a1c25;}.cls-9{fill:#fff;}.cls-10{fill:#32160f;}.cls-11,.cls-13{fill:#61727c;}.cls-12{fill:#92a1ad;}.cls-13{opacity:0.25;}.cls-14{fill:#bc6234;}.cls-15{fill:#f6871f;}.cls-16{fill:#9e1f63;}.cls-17{fill:#f4fbfe;}</style></defs><g
     inkscape:label="Layer 1"
     inkscape:groupmode="layer"
     id="layer1"
     transform="translate(-99.319644,-100.53287)"><g
       id="g3401"
       style="fill:#ffffff;fill-opacity:1"
       transform="matrix(1.0295982,0,0,1.0295982,-3.231297,-3.5308279)"><path
         id="path368"
         style="fill:#ffffff;fill-opacity:1;fill-rule:evenodd;stroke-width:0.242175"
         d="m 115.59254,109.93282 c 0.0471,0.28555 0.0717,0.57793 0.0717,0.8754 -0.006,2.26784 -3.93956,3.41342 -6.42083,3.41942 -2.50317,0.006 -6.64304,-1.1112 -6.49708,-3.41942 0,-0.27498 0.0212,-0.5454 0.0614,-0.81029 -1.75662,0.63654 -2.875016,1.34533 -2.946913,1.4857 -1.014499,1.98061 4.183513,5.35471 9.344403,5.35471 5.16091,0 10.00775,-3.25491 9.34499,-5.35471 -0.12924,-0.40942 -1.23339,-1.02499 -2.95773,-1.55081 z" /><path
         id="path366"
         style="fill:#ffffff;fill-opacity:1;fill-rule:evenodd;stroke-width:0.264583"
         d="m 110.33241,104.52384 a 1.1336938,0.62170309 0 0 1 -0.061,0.17467 c 1.28518,0.59423 3.59301,2.41872 3.67213,5.87767 0.498,-0.39034 0.86703,-0.85871 1.01854,-1.40456 -0.44789,-2.34303 -2.28975,-4.19089 -4.62969,-4.64778 z m -2.26395,5.2e-4 c -2.40174,0.47053 -4.27826,2.40656 -4.65966,4.83898 5e-5,1.5e-4 -5e-5,3.6e-4 0,5.2e-4 0.16557,0.49018 0.52099,0.91207 0.99115,1.26607 0.0572,-3.53533 2.43742,-5.3781 3.71916,-5.95261 a 1.1336938,0.62170309 0 0 1 -0.0507,-0.15296 z m 0.33745,0.41548 c -2.5241,1.24635 -3.24597,3.409 -3.34243,6.10867 1.24828,0.666 2.91436,0.99251 4.14497,0.9896 1.22895,-0.003 2.84986,-0.34605 4.07055,-1.02474 -0.10119,-2.67291 -0.82228,-4.81593 -3.31194,-6.05906 a 1.1336938,0.62170309 0 0 1 -0.76637,0.16536 1.1336938,0.62170309 0 0 1 -0.79478,-0.17983 z m 6.63215,4.75733 c -0.01,0.79848 -0.46194,1.45675 -1.14204,1.97455 -0.024,0.22634 -0.0568,0.45825 -0.0997,0.6966 0.75703,-0.53555 1.2685,-1.23224 1.27072,-2.08927 0,-0.19642 -0.0101,-0.39044 -0.0289,-0.58188 z m -11.69902,0.45527 c -8.9e-4,0.0421 -0.002,0.0843 -0.002,0.12661 -0.0498,0.86673 0.4494,1.56569 1.21233,2.10013 -0.0403,-0.22236 -0.0718,-0.43922 -0.0956,-0.65113 -0.58277,-0.4246 -0.9993,-0.94909 -1.11517,-1.57561 z m 9.95184,1.91306 c -1.22209,0.68283 -2.84964,1.02766 -4.08243,1.03094 -1.23346,0.003 -2.90443,-0.32461 -4.15376,-0.99373 0.003,0.196 0.008,0.39422 0.015,0.59479 1.25077,0.67402 2.92929,1.00415 4.16719,1.00097 1.21799,-0.003 2.82107,-0.33953 4.03799,-1.00614 0.008,-0.21149 0.0131,-0.42043 0.016,-0.62683 z" /><path
         id="path1044"
         style="fill-rule:evenodd;stroke-width:0.338887"
         d="m 110.15828,104.39769 a 0.95775133,0.52521849 0 0 1 -0.95775,0.52522 0.95775133,0.52521849 0 0 1 -0.95775,-0.52522 0.95775133,0.52521849 0 0 1 0.95775,-0.52522 0.95775133,0.52521849 0 0 1 0.95775,0.52522 z" /></g><path
       id="path2649"
       style="display:none;fill:#ff0000;fill-rule:evenodd;stroke-width:0.264583"
       d="m 127.10801,105.75477 a 1.1336938,0.62170309 0 0 1 -1.13172,0.59583 1.1336938,0.62170309 0 0 1 -1.13223,-0.59532 c -2.69634,0.52824 -4.73099,2.90362 -4.73098,5.75469 -0.13252,2.30823 3.62649,3.42526 5.89938,3.41943 2.25301,-0.006 5.82427,-1.15158 5.83014,-3.41943 1e-5,-2.85233 -2.03647,-5.22837 -4.73459,-5.7552 z" /></g></svg>
