<?xml version="1.0" encoding="UTF-8" standalone="no"?>
<!-- Created with Inkscape (http://www.inkscape.org/) -->

<svg
   width="18.017033mm"
   height="15.42006mm"
   viewBox="0 0 18.017033 15.42006"
   version="1.1"
   id="svg5"
   xml:space="preserve"
   inkscape:version="1.2 (dc2aedaf03, 2022-05-15)"
   sodipodi:docname="Nav Icon_Pets.svg"
   xmlns:inkscape="http://www.inkscape.org/namespaces/inkscape"
   xmlns:sodipodi="http://sodipodi.sourceforge.net/DTD/sodipodi-0.dtd"
   xmlns="http://www.w3.org/2000/svg"
   xmlns:svg="http://www.w3.org/2000/svg"><sodipodi:namedview
     id="namedview7"
     pagecolor="#505050"
     bordercolor="#ffffff"
     borderopacity="1"
     inkscape:showpageshadow="0"
     inkscape:pageopacity="0"
     inkscape:pagecheckerboard="1"
     inkscape:deskcolor="#505050"
     inkscape:document-units="mm"
     showgrid="false"
     showguides="false"
     inkscape:zoom="5.7894397"
     inkscape:cx="35.150206"
     inkscape:cy="29.881994"
     inkscape:window-width="1366"
     inkscape:window-height="705"
     inkscape:window-x="-8"
     inkscape:window-y="-8"
     inkscape:window-maximized="1"
     inkscape:current-layer="layer1" /><defs
     id="defs2"><inkscape:path-effect
       effect="mirror_symmetry"
       start_point="156.30163,103.27208"
       end_point="156.30163,119.58108"
       center_point="156.30163,111.42658"
       id="path-effect10078"
       is_visible="true"
       lpeversion="1.2"
       lpesatellites=""
       mode="vertical"
       discard_orig_path="false"
       fuse_paths="false"
       oposite_fuse="false"
       split_items="false"
       split_open="false"
       link_styles="false" /><inkscape:path-effect
       effect="mirror_symmetry"
       start_point="155.89287,103.27208"
       end_point="155.89287,119.58108"
       center_point="155.89287,111.42658"
       id="path-effect10072"
       is_visible="true"
       lpeversion="1.2"
       lpesatellites=""
       mode="free"
       discard_orig_path="false"
       fuse_paths="true"
       oposite_fuse="false"
       split_items="false"
       split_open="false"
       link_styles="false" /></defs><g
     inkscape:label="Layer 1"
     inkscape:groupmode="layer"
     id="layer1"
     transform="translate(-147.29312,-103.54703)"><g
       id="g10084"
       style="fill:#ffffff;fill-opacity:1"><g
         id="g10076"
         inkscape:path-effect="#path-effect10078"
         class="UnoptimicedTransforms"
         style="fill:#ffffff;fill-opacity:1"><path
           id="path10064"
           style="opacity:1;fill:#ffffff;fill-opacity:1;fill-rule:evenodd;stroke-width:0.264583"
           d="m 151.83785,111.80043 c 0,1.79578 -1.43749,2.21105 -2.26679,2.24821 -1.20092,-0.14864 -2.40695,-1.4984 -2.2668,-2.87994 0.14416,-1.42125 1.51181,-3.0286 2.41544,-2.99143 1.49819,0 2.11815,2.45911 2.11815,3.62316 z m 8.92757,0 c 0,1.79578 1.43749,2.21105 2.26679,2.24821 1.20092,-0.14864 2.40695,-1.4984 2.2668,-2.87994 -0.14416,-1.42125 -1.51181,-3.0286 -2.41544,-2.99143 -1.49819,0 -2.11815,2.45911 -2.11815,3.62316 z"
           sodipodi:nodetypes="scscs"
           inkscape:original-d="m 151.83785,111.80043 c 0,1.79578 -1.43749,2.21105 -2.26679,2.24821 -1.20092,-0.14864 -2.40695,-1.4984 -2.2668,-2.87994 0.14416,-1.42125 1.51181,-3.0286 2.41544,-2.99143 1.49819,0 2.11815,2.45911 2.11815,3.62316 z" /><path
           id="path10067"
           style="opacity:1;fill:#ffffff;fill-opacity:1;fill-rule:evenodd;stroke-width:0.301118"
           d="m 155.65612,108.20745 c -0.54163,1.97068 -2.24436,1.99284 -3.16564,1.7835 -1.27304,-0.52533 -2.18943,-2.37029 -1.61894,-3.8441 0.58686,-1.5162 2.57248,-2.86759 3.55292,-2.55425 1.64409,0.45186 1.58274,3.33745 1.23166,4.61485 z m 1.29103,0 c 0.54163,1.97068 2.24436,1.99284 3.16564,1.7835 1.27304,-0.52533 2.18943,-2.37029 1.61894,-3.8441 -0.58686,-1.5162 -2.57248,-2.86759 -3.55292,-2.55425 -1.64409,0.45186 -1.58274,3.33745 -1.23166,4.61485 z"
           sodipodi:nodetypes="scscs"
           inkscape:original-d="m 155.65612,108.20745 c -0.54163,1.97068 -2.24436,1.99284 -3.16564,1.7835 -1.27304,-0.52533 -2.18943,-2.37029 -1.61894,-3.8441 0.58686,-1.5162 2.57248,-2.86759 3.55292,-2.55425 1.64409,0.45186 1.58274,3.33745 1.23166,4.61485 z" /></g><path
         id="path10069"
         style="fill:#ffffff;fill-opacity:1;fill-rule:evenodd;stroke-width:0.264583"
         d="m 155.89258,109.8125 c -2.45117,0.009 -3.76019,1.82997 -4.51563,4.17969 -0.091,0.28302 -2.90917,1.26959 -0.95703,4.27539 0.96614,1.48762 4.22751,0.14197 5.47266,0.1289 1.24515,0.0131 4.50651,1.35872 5.47265,-0.1289 1.95214,-3.0058 -0.86604,-3.99237 -0.95703,-4.27539 -0.75544,-2.34972 -2.06446,-4.1708 -4.51562,-4.17969 z"
         sodipodi:nodetypes="ssssss"
         inkscape:path-effect="#path-effect10072"
         inkscape:original-d="m 160.66745,114.10439 c 1.13328,2.08198 -2.29376,4.29205 -4.75655,4.29205 -1.23139,0 -4.51974,1.36577 -5.49058,-0.12909 -1.95214,-3.0058 0.866,-3.99142 0.95699,-4.27444 0.75729,-2.35547 2.07081,-4.18056 4.53359,-4.18056 2.46278,0 3.56741,2.10741 4.75655,4.29204 z"
         class="UnoptimicedTransforms"
         transform="translate(0.4090595)" /></g></g></svg>
