<?xml version="1.0" encoding="UTF-8" standalone="no"?>
<!-- Created with Inkscape (http://www.inkscape.org/) -->

<svg
   width="14.506433mm"
   height="7.9587383mm"
   viewBox="0 0 14.506434 7.9587382"
   version="1.1"
   id="svg5"
   xml:space="preserve"
   inkscape:version="1.2 (dc2aedaf03, 2022-05-15)"
   sodipodi:docname="Nav Icon_Safari.svg"
   xmlns:inkscape="http://www.inkscape.org/namespaces/inkscape"
   xmlns:sodipodi="http://sodipodi.sourceforge.net/DTD/sodipodi-0.dtd"
   xmlns="http://www.w3.org/2000/svg"
   xmlns:svg="http://www.w3.org/2000/svg"><sodipodi:namedview
     id="namedview7"
     pagecolor="#505050"
     bordercolor="#ffffff"
     borderopacity="1"
     inkscape:showpageshadow="0"
     inkscape:pageopacity="0"
     inkscape:pagecheckerboard="1"
     inkscape:deskcolor="#505050"
     inkscape:document-units="mm"
     showgrid="false"
     showguides="false"
     inkscape:zoom="4.96"
     inkscape:cx="17.439516"
     inkscape:cy="25.201613"
     inkscape:window-width="1366"
     inkscape:window-height="705"
     inkscape:window-x="-8"
     inkscape:window-y="-8"
     inkscape:window-maximized="1"
     inkscape:current-layer="layer1" /><defs
     id="defs2"><inkscape:path-effect
       effect="fillet_chamfer"
       id="path-effect18309"
       is_visible="true"
       lpeversion="1"
       nodesatellites_param="F,0,0,1,0,0.40071411,0,1 @ F,0,1,1,0,0.40071411,0,1 @ F,0,0,1,0,0,0,1 @ F,0,0,1,0,0,0,1"
       unit="px"
       method="auto"
       mode="F"
       radius="0"
       chamfer_steps="1"
       flexible="false"
       use_knot_distance="true"
       apply_no_radius="true"
       apply_with_radius="true"
       only_selected="false"
       hide_knots="false" /><inkscape:path-effect
       effect="fillet_chamfer"
       id="path-effect17446"
       is_visible="true"
       lpeversion="1"
       nodesatellites_param="F,0,0,1,0,0,0,1 @ F,0,0,1,0,0.86591417,0,1 @ F,0,0,1,0,0.30306996,0,1 @ F,0,0,1,0,0,0,1"
       unit="px"
       method="auto"
       mode="F"
       radius="0"
       chamfer_steps="1"
       flexible="false"
       use_knot_distance="true"
       apply_no_radius="true"
       apply_with_radius="true"
       only_selected="false"
       hide_knots="false" /><style
       id="style8119">.cls-1{fill:url(#linear-gradient);}.cls-2{fill:url(#linear-gradient-2);}.cls-3{fill:#ffcd05;}.cls-4{fill:#4ab96d;}.cls-5{fill:#cd8029;}.cls-6{fill:#fabc2e;}.cls-7{fill:#fff;}.cls-8{fill:#414042;}.cls-9{fill:#f4fbfe;}.cls-10{fill:#680e19;}.cls-11{fill:#c62639;}.cls-12{fill:#dd7399;}.cls-13{fill:#914f93;}.cls-14{fill:#5c2c60;}.cls-15{fill:#c62c6b;}.cls-16{fill:#b26a28;}.cls-17{fill:#66402d;}.cls-18{fill:#753f77;}.cls-19{fill:#a768ab;}.cls-20{fill:#f1f2f2;}</style></defs><g
     inkscape:label="Layer 1"
     inkscape:groupmode="layer"
     id="layer1"
     transform="translate(-149.19115,-107.77104)"><g
       id="g21003"><rect
         style="opacity:1;fill:#ffffff;fill-opacity:1;stroke:none;stroke-width:1.20412;stroke-linecap:round;stroke-linejoin:round;stroke-dasharray:none;stroke-opacity:1"
         id="rect17455"
         width="0.4974246"
         height="4.3773365"
         x="153.28314"
         y="107.77104"
         ry="0.19896984" /><path
         id="rect16871"
         style="opacity:1;fill:#ffffff;fill-opacity:1;stroke-width:0.941005;stroke-linecap:round;stroke-linejoin:round"
         d="m 150.22501,110.76884 v 2.43499 h 1.53738 a 1.5420163,1.5420163 0 0 1 0.98495,-0.35915 1.5420163,1.5420163 0 0 1 0.98857,0.35915 h 5.28908 a 1.5420163,1.5420163 0 0 1 0.98495,-0.35915 1.5420163,1.5420163 0 0 1 0.98754,0.35915 h 1.25522 c 0.0165,0 0.0327,0.002 0.0486,0.004 h 0.8692 v -1.57355 a 0.86591417,0.86591417 0 0 0 -0.86558,-0.86558 h -3.21531 v 1.82728 h -3.93 v -1.82728 z m 12.09332,3.41581 c -0.0212,0.004 -0.0432,0.007 -0.0656,0.007 h -0.71417 a 1.5420163,1.5420163 0 0 1 0.0129,0.19534 1.5420163,1.5420163 0 0 1 -5.1e-4,0.0186 h 1.31671 a 0.30306996,0.30306996 0 0 0 0.29094,-0.22066 z m -12.09332,0.007 v 0.21394 h 0.98082 a 1.5420163,1.5420163 0 0 1 -5.2e-4,-0.0186 1.5420163,1.5420163 0 0 1 0.0129,-0.19534 z m 4.05195,0 a 1.5420163,1.5420163 0 0 1 0.0124,0.19534 1.5420163,1.5420163 0 0 1 -5.1e-4,0.0186 h 4.17959 a 1.5420163,1.5420163 0 0 1 -5.2e-4,-0.0186 1.5420163,1.5420163 0 0 1 0.0129,-0.19534 z" /><rect
         style="opacity:1;fill:#ffffff;fill-opacity:1;stroke:none;stroke-width:0.95537;stroke-linecap:round;stroke-linejoin:round;stroke-dasharray:none;stroke-opacity:1"
         id="rect17451"
         width="1.193819"
         height="3.7306845"
         x="155.55315"
         y="109.26332"
         ry="0.75857252" /><rect
         style="opacity:1;fill:#ffffff;fill-opacity:1;stroke:none;stroke-width:0.885974;stroke-linecap:round;stroke-linejoin:round;stroke-dasharray:none;stroke-opacity:1"
         id="rect17453"
         width="1.193819"
         height="3.2083886"
         x="111.65096"
         y="-158.76154"
         ry="0.65237236"
         transform="rotate(90)" /><rect
         style="opacity:1;fill:none;fill-opacity:1;stroke:#ffffff;stroke-width:0.358193;stroke-linecap:round;stroke-linejoin:round;stroke-dasharray:none;stroke-opacity:1"
         id="rect17457"
         width="2.9424791"
         height="3.3027899"
         x="150.57358"
         y="108.70625"
         ry="0.15727571" /><rect
         style="opacity:1;fill:#fbfcfe;fill-opacity:1;stroke:none;stroke-width:0.542549;stroke-linecap:round;stroke-linejoin:round;stroke-dasharray:none;stroke-opacity:1"
         id="rect17563"
         width="0.90893042"
         height="2.8104491"
         x="149.19115"
         y="110.12351"
         ry="0.45446521" /><path
         id="circle17625"
         style="fill:#ffffff;fill-opacity:1;fill-rule:evenodd;stroke-width:0.280147"
         d="m 159.98462,113.04364 a 1.3430464,1.3430464 0 0 0 -1.34307,1.34307 1.3430464,1.3430464 0 0 0 1.34307,1.34307 1.3430464,1.3430464 0 0 0 1.34307,-1.34307 1.3430464,1.3430464 0 0 0 -1.34307,-1.34307 z m 0,0.73845 a 0.60450321,0.60450321 0 0 1 0.60462,0.60462 0.60450321,0.60450321 0 0 1 -0.60462,0.60461 0.60450321,0.60450321 0 0 1 -0.60409,-0.60461 0.60450321,0.60450321 0 0 1 0.60409,-0.60462 z" /><path
         id="rect17627"
         style="opacity:1;fill:#ffffff;stroke-width:0.346735;stroke-linecap:round;stroke-linejoin:round"
         d="m 159.32502,108.43219 0.1043,0.1451 a 1.2440953,1.2440953 72.146625 0 1 0.23387,0.7261 v 3.30511 h -0.57204 v -4.10099 a 0.12906713,0.12906713 162.14662 0 1 0.23387,-0.0753 z"
         sodipodi:nodetypes="ccccc"
         inkscape:path-effect="#path-effect18309"
         inkscape:original-d="m 159.09115,108.1068 0.57204,0.79588 v 3.70582 h -0.57204 z" /><path
         id="rect19864"
         style="opacity:1;fill:#ffffff;fill-opacity:1;stroke:none;stroke-width:0.315475;stroke-linecap:round;stroke-linejoin:round;stroke-dasharray:none;stroke-opacity:1"
         d="m 161.27114,113.32992 0.25901,0.71779 h 1.89434 c 0.15116,0 0.27286,-0.1217 0.27286,-0.27285 v -0.17208 c 0,-0.15116 -0.1217,-0.27286 -0.27286,-0.27286 z"
         sodipodi:nodetypes="ccssssc" /><path
         id="path20962"
         style="opacity:1;fill:#ffffff;fill-opacity:1;stroke:none;stroke-width:1.69338;stroke-linecap:round;stroke-linejoin:round;stroke-dasharray:none;stroke-opacity:1"
         d="m 161.50212,114.04203 h 1.87746 c 0.17598,0 0.318,-0.1578 0.318,-0.35347 0,-0.19567 -0.14202,-0.35295 -0.318,-0.35295 h -2.29739 a 1.2207711,1.3430464 0 0 1 0.0296,0.0263 1.2207711,1.3430464 0 0 1 0.0375,0.0367 1.2207711,1.3430464 0 0 1 0.0366,0.0382 1.2207711,1.3430464 0 0 1 0.0347,0.0403 1.2207711,1.3430464 0 0 1 0.0333,0.0413 1.2207711,1.3430464 0 0 1 0.0319,0.0434 1.2207711,1.3430464 0 0 1 0.0301,0.0444 1.2207711,1.3430464 0 0 1 0.0287,0.0455 1.2207711,1.3430464 0 0 1 0.0268,0.0475 1.2207711,1.3430464 0 0 1 0.0249,0.0481 1.2207711,1.3430464 0 0 1 0.023,0.0496 1.2207711,1.3430464 0 0 1 0.0211,0.0501 1.2207711,1.3430464 0 0 1 0.0192,0.0512 1.2207711,1.3430464 0 0 1 0.0174,0.0522 1.2207711,1.3430464 0 0 1 0.0155,0.0527 1.2207711,1.3430464 0 0 1 0.009,0.0388 z" /><path
         id="path20960"
         style="opacity:1;fill:#ffffff;fill-opacity:1;stroke:none;stroke-width:1.72862;stroke-linecap:round;stroke-linejoin:round;stroke-dasharray:none;stroke-opacity:1"
         d="m 158.957,113.33561 h -5.17422 a 1.2586936,1.3430464 0 0 1 0.0151,0.0129 1.2586936,1.3430464 0 0 1 0.0465,0.0429 1.2586936,1.3430464 0 0 1 0.0451,0.0455 1.2586936,1.3430464 0 0 1 0.0425,0.0481 1.2586936,1.3430464 0 0 1 0.0402,0.0496 1.2586936,1.3430464 0 0 1 0.0387,0.0522 1.2586936,1.3430464 0 0 1 0.0353,0.0537 1.2586936,1.3430464 0 0 1 0.0327,0.0558 1.2586936,1.3430464 0 0 1 0.0303,0.0574 1.2586936,1.3430464 0 0 1 0.0278,0.0589 1.2586936,1.3430464 0 0 1 0.025,0.06 1.2586936,1.3430464 0 0 1 0.0225,0.0615 1.2586936,1.3430464 0 0 1 0.0192,0.063 1.2586936,1.3430464 0 0 1 0.0117,0.045 h 4.30148 a 1.2721178,1.3430464 0 0 1 0.0387,-0.13178 1.2721178,1.3430464 0 0 1 0.0631,-0.14779 1.2721178,1.3430464 0 0 1 0.0793,-0.1385 1.2721178,1.3430464 0 0 1 0.095,-0.12764 1.2721178,1.3430464 0 0 1 0.10865,-0.11472 1.2721178,1.3430464 0 0 1 0.0553,-0.046 z" /><path
         id="path20958"
         style="opacity:1;fill:#ffffff;fill-opacity:1;stroke:none;stroke-width:1.77616;stroke-linecap:round;stroke-linejoin:round;stroke-dasharray:none;stroke-opacity:1"
         d="m 159.15263,113.33561 a 1.3430464,1.3430464 0 0 0 -0.0584,0.046 1.3430464,1.3430464 0 0 0 -0.11472,0.11472 1.3430464,1.3430464 0 0 0 -0.10026,0.12764 1.3430464,1.3430464 0 0 0 -0.0837,0.1385 1.3430464,1.3430464 0 0 0 -0.0667,0.14779 1.3430464,1.3430464 0 0 0 -0.0408,0.13178 h 0.80305 a 0.60450321,0.60450321 0 0 1 0.0305,-0.0439 0.60450321,0.60450321 0 0 1 0.0744,-0.0744 0.60450321,0.60450321 0 0 1 0.0863,-0.0605 0.60450321,0.60450321 0 0 1 0.0956,-0.0444 0.60450321,0.60450321 0 0 1 0.1018,-0.0274 0.60450321,0.60450321 0 0 1 0.1049,-0.009 0.60450321,0.60450321 0 0 1 0.0367,0.001 0.60450321,0.60450321 0 0 1 0.0362,0.003 0.60450321,0.60450321 0 0 1 0.0362,0.006 0.60450321,0.60450321 0 0 1 0.0357,0.008 0.60450321,0.60450321 0 0 1 0.0351,0.01 0.60450321,0.60450321 0 0 1 0.0346,0.0119 0.60450321,0.60450321 0 0 1 0.0336,0.0139 0.60450321,0.60450321 0 0 1 0.0331,0.016 0.60450321,0.60450321 0 0 1 0.0315,0.0181 0.60450321,0.60450321 0 0 1 0.031,0.0196 0.60450321,0.60450321 0 0 1 0.0295,0.0217 0.60450321,0.60450321 0 0 1 0.0279,0.0233 0.60450321,0.60450321 0 0 1 0.0264,0.0253 0.60450321,0.60450321 0 0 1 0.0253,0.0264 0.60450321,0.60450321 0 0 1 0.0232,0.0279 0.60450321,0.60450321 0 0 1 0.0212,0.0284 h 0.80047 a 1.3430464,1.3430464 0 0 0 -0.0103,-0.0388 1.3430464,1.3430464 0 0 0 -0.0171,-0.0527 1.3430464,1.3430464 0 0 0 -0.0191,-0.0522 1.3430464,1.3430464 0 0 0 -0.0212,-0.0512 1.3430464,1.3430464 0 0 0 -0.0232,-0.0501 1.3430464,1.3430464 0 0 0 -0.0253,-0.0496 1.3430464,1.3430464 0 0 0 -0.0274,-0.0481 1.3430464,1.3430464 0 0 0 -0.0295,-0.0475 1.3430464,1.3430464 0 0 0 -0.0315,-0.0455 1.3430464,1.3430464 0 0 0 -0.0331,-0.0444 1.3430464,1.3430464 0 0 0 -0.0351,-0.0434 1.3430464,1.3430464 0 0 0 -0.0367,-0.0413 1.3430464,1.3430464 0 0 0 -0.0382,-0.0403 1.3430464,1.3430464 0 0 0 -0.0403,-0.0382 1.3430464,1.3430464 0 0 0 -0.0413,-0.0367 1.3430464,1.3430464 0 0 0 -0.0326,-0.0263 z" /><path
         id="path20225"
         style="opacity:1;fill:#ffffff;fill-opacity:1;stroke:none;stroke-width:1.69377;stroke-linecap:round;stroke-linejoin:round;stroke-dasharray:none;stroke-opacity:1"
         d="m 151.69025,113.33561 h -1.71249 c -0.17605,0 -0.31757,0.15728 -0.31757,0.35295 0,0.19567 0.14152,0.35347 0.31757,0.35347 h 1.29402 a 1.2084414,1.3430464 0 0 1 0.007,-0.0336 1.2084414,1.3430464 0 0 1 0.0605,-0.17984 1.2084414,1.3430464 0 0 1 0.0827,-0.16795 1.2084414,1.3430464 0 0 1 0.10323,-0.15348 1.2084414,1.3430464 0 0 1 0.12183,-0.13539 1.2084414,1.3430464 0 0 1 0.0437,-0.0362 z" /><path
         id="path20223"
         style="opacity:1;fill:#ffffff;fill-opacity:1;stroke:none;stroke-width:1.78561;stroke-linecap:round;stroke-linejoin:round;stroke-dasharray:none;stroke-opacity:1"
         d="m 151.91638,113.33561 a 1.3430464,1.3430464 0 0 0 -0.0486,0.0362 1.3430464,1.3430464 0 0 0 -0.1354,0.13539 1.3430464,1.3430464 0 0 0 -0.11472,0.15348 1.3430464,1.3430464 0 0 0 -0.092,0.16795 1.3430464,1.3430464 0 0 0 -0.0672,0.17984 1.3430464,1.3430464 0 0 0 -0.007,0.0336 h 0.80047 a 0.60450321,0.60450321 0 0 1 0.0682,-0.0827 0.60450321,0.60450321 0 0 1 0.0915,-0.0754 0.60450321,0.60450321 0 0 1 0.10439,-0.0558 0.60450321,0.60450321 0 0 1 0.11369,-0.0346 0.60450321,0.60450321 0 0 1 0.11782,-0.0114 0.60450321,0.60450321 0 0 1 0.0429,0.002 0.60450321,0.60450321 0 0 1 0.0434,0.005 0.60450321,0.60450321 0 0 1 0.0424,0.008 0.60450321,0.60450321 0 0 1 0.0419,0.0103 0.60450321,0.60450321 0 0 1 0.0408,0.0139 0.60450321,0.60450321 0 0 1 0.0398,0.0165 0.60450321,0.60450321 0 0 1 0.0387,0.0191 0.60450321,0.60450321 0 0 1 0.0372,0.0222 0.60450321,0.60450321 0 0 1 0.0351,0.0243 0.60450321,0.60450321 0 0 1 0.0336,0.0274 0.60450321,0.60450321 0 0 1 0.0315,0.0294 0.60450321,0.60450321 0 0 1 0.0295,0.0315 0.60450321,0.60450321 0 0 1 0.0274,0.0336 0.60450321,0.60450321 0 0 1 0.0124,0.0176 h 0.80098 a 1.3430464,1.3430464 0 0 0 -0.0124,-0.045 1.3430464,1.3430464 0 0 0 -0.0207,-0.063 1.3430464,1.3430464 0 0 0 -0.0238,-0.0615 1.3430464,1.3430464 0 0 0 -0.0269,-0.06 1.3430464,1.3430464 0 0 0 -0.0295,-0.0589 1.3430464,1.3430464 0 0 0 -0.0325,-0.0574 1.3430464,1.3430464 0 0 0 -0.0351,-0.0558 1.3430464,1.3430464 0 0 0 -0.0377,-0.0537 1.3430464,1.3430464 0 0 0 -0.0408,-0.0522 1.3430464,1.3430464 0 0 0 -0.0429,-0.0496 1.3430464,1.3430464 0 0 0 -0.0455,-0.0481 1.3430464,1.3430464 0 0 0 -0.0481,-0.0455 1.3430464,1.3430464 0 0 0 -0.0496,-0.0429 1.3430464,1.3430464 0 0 0 -0.0165,-0.0129 z" /><path
         id="path17617"
         style="fill:#ffffff;fill-opacity:1;fill-rule:evenodd;stroke-width:0.280147"
         d="m 152.74734,113.04364 a 1.3430464,1.3430464 0 0 0 -1.34307,1.34307 1.3430464,1.3430464 0 0 0 1.34307,1.34307 1.3430464,1.3430464 0 0 0 1.34307,-1.34307 1.3430464,1.3430464 0 0 0 -1.34307,-1.34307 z m 0,0.73845 a 0.60450321,0.60450321 0 0 1 0.60461,0.60462 0.60450321,0.60450321 0 0 1 -0.60461,0.60461 0.60450321,0.60450321 0 0 1 -0.60462,-0.60461 0.60450321,0.60450321 0 0 1 0.60462,-0.60462 z" /></g></g></svg>
