<?xml version="1.0" encoding="UTF-8" standalone="no"?>
<svg
   xmlns:dc="http://purl.org/dc/elements/1.1/"
   xmlns:cc="http://creativecommons.org/ns#"
   xmlns:rdf="http://www.w3.org/1999/02/22-rdf-syntax-ns#"
   xmlns:svg="http://www.w3.org/2000/svg"
   xmlns="http://www.w3.org/2000/svg"
   id="svg10636"
   version="1.1"
   width="50"
   viewBox="0 0 6.25 6.25"
   height="50">
  <metadata
     id="metadata10642">
    <rdf:RDF>
      <cc:Work
         rdf:about="">
        <dc:format>image/svg+xml</dc:format>
        <dc:type
           rdf:resource="http://purl.org/dc/dcmitype/StillImage" />
        <dc:title></dc:title>
      </cc:Work>
    </rdf:RDF>
  </metadata>
  <defs
     id="defs10640">
    <clipPath
       id="clipPath11263"
       clipPathUnits="userSpaceOnUse">
      <rect
         y="-2.7470446"
         x="11.773346"
         height="31.795341"
         width="41.084747"
         id="rect11265"
         style="fill:#1597cc;fill-opacity:1;fill-rule:nonzero;stroke:none;stroke-width:6.48526669;stroke-miterlimit:4;stroke-dasharray:none;stroke-opacity:1" />
    </clipPath>
    <clipPath
       id="clipPath11569"
       clipPathUnits="userSpaceOnUse">
      <rect
         y="-2.7470446"
         x="11.773346"
         height="31.795341"
         width="41.084747"
         id="rect11567"
         style="fill:#1597cc;fill-opacity:1;fill-rule:nonzero;stroke:none;stroke-width:6.48526669;stroke-miterlimit:4;stroke-dasharray:none;stroke-opacity:1" />
    </clipPath>
  </defs>
  <g
     transform="matrix(1.1689347,0,0,1,0.53265401,-0.35725106)"
     id="g11806">
    <path
       d="M 2.2175954,0.69466237 H 1.7124539 A 0.16848517,0.16848517 0 0 0 1.5438756,0.8632413 V 1.0312245 A 0.16848517,0.16848517 0 0 0 1.7124539,1.1998034 H 1.3752965 a 0.16848517,0.16848517 0 0 0 -0.170366,0.1703658 l 0.00179,0.1661962 A 0.16848517,0.16848517 0 0 0 1.3753001,1.7049443 0.16848517,0.16848517 0 0 0 1.206721,1.8735231 V 2.0426977 A 0.16848517,0.16848517 0 0 0 1.3753001,2.2112765 0.16848517,0.16848517 0 0 0 1.206721,2.3798555 V 2.5478386 A 0.16848517,0.16848517 0 0 0 1.3753001,2.7164175 0.16848517,0.16848517 0 0 0 1.206721,2.8849964 V 3.0529795 A 0.16848517,0.16848517 0 0 0 1.3753001,3.2215584 0.16848517,0.16848517 0 0 0 1.206721,3.3901373 L 1.2061244,3.5587161 A 0.16848517,0.16848517 0 0 0 1.3747028,3.727295 0.16848517,0.16848517 0 0 0 1.2067195,3.8952781 v 0.1691745 a 0.16848517,0.16848517 0 0 0 0.1685792,0.168579 H 1.8804393 V 4.9764464 H 2.5547549 V 4.2330316 H 3.0598963 A 0.16848517,0.16848517 0 0 0 3.2284711,4.0644526 V 3.8952781 A 0.16848517,0.16848517 0 0 0 3.0604878,3.727295 0.16848517,0.16848517 0 0 0 3.2290669,3.5587161 L 3.2266869,3.3919243 A 0.16848517,0.16848517 0 0 0 3.0581079,3.2233455 0.16848517,0.16848517 0 0 0 3.2266869,3.0547665 V 2.8867833 A 0.16848517,0.16848517 0 0 0 3.0581079,2.7182044 0.16848517,0.16848517 0 0 0 3.2266869,2.5496256 V 2.3816426 A 0.16848517,0.16848517 0 0 0 3.0581079,2.2130637 0.16848517,0.16848517 0 0 0 3.2266869,2.0444848 V 1.8753103 a 0.16848517,0.16848517 0 0 0 -0.168579,-0.1685789 0.16848517,0.16848517 0 0 0 0.168579,-0.168579 l 0.00358,-0.1679832 A 0.16848517,0.16848517 0 0 0 3.0616825,1.2015904 H 2.7245229 A 0.16848517,0.16848517 0 0 0 2.893102,1.0330115 V 0.86502835 A 0.16848517,0.16848517 0 0 0 2.7245229,0.69644948 Z"
       id="path10532"
       style="fill:#e59730;stroke-width:0.08424258" />
    <path
       d="M 2.3861737,0.69406668 A 0.16848517,0.16848517 0 1 0 2.3855771,0.35750464 H 2.0496129 a 0.16848517,0.16848517 0 1 0 -5.967e-4,0.33656204 z"
       id="path10534"
       style="fill:#f9ed86;stroke-width:0.08424258" />
    <g
       id="g10580"
       transform="matrix(0.0595685,-0.0595685,0.0595685,0.0595685,-1.5947888,3.5742039)"
       style="fill:#fcbc04">
      <rect
         height="6"
         rx="2"
         transform="matrix(0.707,0.707,-0.707,0.707,22.48,-20.23)"
         width="8"
         x="31.67"
         y="14.02"
         id="rect10536" />
      <rect
         height="6"
         rx="2"
         transform="matrix(0.707,0.707,-0.707,0.707,28.14,-22.58)"
         width="8"
         x="37.32"
         y="19.68"
         id="rect10538" />
      <rect
         height="6"
         rx="2"
         transform="matrix(0.707,0.707,-0.707,0.707,33.8,-24.92)"
         width="8"
         x="42.98"
         y="25.33"
         id="rect10540" />
      <rect
         height="6"
         rx="2"
         transform="matrix(0.707,0.707,-0.707,0.707,20.72,-24.48)"
         width="8"
         x="35.91"
         y="9.7799997"
         id="rect10542" />
      <rect
         height="6"
         rx="2"
         transform="matrix(0.707,0.707,-0.707,0.707,26.38,-26.82)"
         width="8"
         x="41.560001"
         y="15.44"
         id="rect10544" />
      <rect
         height="6"
         rx="2"
         transform="matrix(0.707,0.707,-0.707,0.707,32.04,-29.16)"
         width="8"
         x="47.220001"
         y="21.09"
         id="rect10546" />
      <rect
         height="6"
         rx="2"
         transform="matrix(0.707,0.707,-0.707,0.707,18.97,-28.72)"
         width="8"
         x="40.150002"
         y="5.54"
         id="rect10548" />
      <rect
         height="6"
         rx="2"
         transform="matrix(0.707,0.707,-0.707,0.707,24.62,-31.06)"
         width="8"
         x="45.810001"
         y="11.19"
         id="rect10550" />
      <rect
         height="6"
         rx="2"
         transform="matrix(0.707,0.707,-0.707,0.707,30.28,-33.41)"
         width="8"
         x="51.459999"
         y="16.85"
         id="rect10552" />
      <rect
         height="6"
         rx="2"
         transform="matrix(0.707,0.707,-0.707,0.707,20.04,-34.13)"
         width="8"
         x="47.220001"
         y="4.1199999"
         id="rect10554" />
      <rect
         height="6"
         rx="2"
         transform="matrix(0.707,0.707,-0.707,0.707,25.69,-36.48)"
         width="8"
         x="52.880001"
         y="9.7799997"
         id="rect10556" />
      <rect
         height="4"
         rx="2"
         transform="matrix(0.707,0.707,-0.707,0.707,21.4,-38.84)"
         width="8"
         x="53.59"
         y="4.4099998"
         id="rect10558" />
      <rect
         height="6"
         rx="2"
         transform="matrix(0.707,0.707,-0.707,0.707,26,-11.75)"
         width="8"
         x="23.18"
         y="22.51"
         id="rect10560" />
      <rect
         height="6"
         rx="2"
         transform="matrix(0.707,0.707,-0.707,0.707,31.65,-14.09)"
         width="8"
         x="28.84"
         y="28.16"
         id="rect10562" />
      <rect
         height="6"
         rx="2"
         transform="matrix(0.707,0.707,-0.707,0.707,37.31,-16.44)"
         width="8"
         x="34.490002"
         y="33.82"
         id="rect10564" />
      <rect
         height="6"
         rx="2"
         transform="matrix(0.707,0.707,-0.707,0.707,24.24,-15.99)"
         width="8"
         x="27.42"
         y="18.26"
         id="rect10566" />
      <rect
         height="6"
         rx="2"
         transform="matrix(0.707,0.707,-0.707,0.707,29.9,-18.33)"
         width="8"
         x="33.080002"
         y="23.92"
         id="rect10568" />
      <rect
         height="6"
         rx="2"
         transform="matrix(0.707,0.707,-0.707,0.707,35.55,-20.68)"
         width="8"
         x="38.740002"
         y="29.58"
         id="rect10570" />
      <rect
         height="6"
         rx="2"
         transform="matrix(0.707,0.707,-0.707,0.707,27.75,-7.51)"
         width="8"
         x="18.940001"
         y="26.75"
         id="rect10572" />
      <rect
         height="6"
         rx="2"
         transform="matrix(0.707,0.707,-0.707,0.707,33.41,-9.85)"
         width="8"
         x="24.59"
         y="32.41"
         id="rect10574" />
      <rect
         height="6"
         rx="2"
         transform="matrix(0.707,0.707,-0.707,0.707,39.07,-12.19)"
         width="8"
         x="30.25"
         y="38.060001"
         id="rect10576" />
      <rect
         height="6"
         rx="2"
         transform="matrix(0.707,0.707,-0.707,0.707,35.17,-5.61)"
         width="8"
         x="20.35"
         y="36.650002"
         id="rect10578" />
    </g>
    <path
       d="M 1.7113274,0.69442057 H 2.048247 v 0.0842299 A 0.25268959,0.25268959 0 0 1 1.7955571,1.03134 H 1.5428672 V 0.86288033 A 0.16845973,0.16845973 0 0 1 1.7113274,0.69442057 Z"
       id="path10582"
       style="fill:#f9e109;stroke-width:0.08422987" />
    <path
       d="m 2.3852397,0.69436693 h 0.3369197 v 0.0842299 A 0.25268959,0.25268959 0 0 1 2.4694701,1.0312864 H 2.2167803 V 0.86282668 A 0.16845973,0.16845973 0 0 1 2.3852397,0.69436693 Z"
       id="path10584"
       style="fill:#f9e109;stroke-width:0.08422987" />
    <path
       d="m 1.3749449,1.1997843 h 0.3369196 v 0.08423 A 0.25268959,0.25268959 0 0 1 1.4591746,1.5367038 H 1.2064854 V 1.368244 A 0.16845973,0.16845973 0 0 1 1.3749449,1.1997843 Z"
       id="path10586"
       style="fill:#f9e109;stroke-width:0.08422987" />
    <path
       d="m 2.0482621,1.1999774 h 0.3369196 v 0.08423 A 0.25268959,0.25268959 0 0 1 2.1324918,1.5368967 H 1.8798026 V 1.368437 A 0.16845973,0.16845973 0 0 1 2.0482621,1.1999774 Z"
       id="path10588"
       style="fill:#f9e109;stroke-width:0.08422987" />
    <path
       d="m 2.7219281,1.2001703 h 0.3369196 v 0.08423 A 0.25268959,0.25268959 0 0 1 2.8061578,1.5370897 H 2.5534685 V 1.36863 A 0.16845973,0.16845973 0 0 1 2.7219281,1.2001703 Z"
       id="path10590"
       style="fill:#f9e109;stroke-width:0.08422987" />
    <path
       d="M 1.3746254,1.7052445 H 1.711545 v 0.08423 A 0.25268959,0.25268959 0 0 1 1.4588558,2.042164 H 1.206166 V 1.8737043 A 0.16845973,0.16845973 0 0 1 1.3746254,1.7052445 Z"
       id="path10592"
       style="fill:#f9e109;stroke-width:0.08422987" />
    <path
       d="m 2.0482921,1.7037529 h 0.336919 v 0.08423 A 0.25268959,0.25268959 0 0 1 2.1325219,2.0406724 h -0.25269 V 1.8722127 A 0.16845973,0.16845973 0 0 1 2.0482921,1.7037529 Z"
       id="path10594"
       style="fill:#f9e109;stroke-width:0.08422987" />
    <path
       d="m 2.7222046,1.7050349 h 0.3369196 v 0.08423 a 0.25268959,0.25268959 0 0 1 -0.25269,0.2526897 H 2.553745 v -0.16846 A 0.16845973,0.16845973 0 0 1 2.7222046,1.7050349 Z"
       id="path10596"
       style="fill:#f9e109;stroke-width:0.08422987" />
    <path
       d="m 1.3749019,2.2109513 h 0.3369196 v 0.08423 A 0.25268959,0.25268959 0 0 1 1.4591323,2.5478709 H 1.2064424 V 2.3794111 A 0.16845973,0.16845973 0 0 1 1.3749019,2.2109513 Z"
       id="path10598"
       style="fill:#f9e109;stroke-width:0.08422987" />
    <path
       d="m 2.0485686,2.210302 h 0.3369189 v 0.08423 A 0.25268959,0.25268959 0 0 1 2.1327983,2.5472214 H 1.8801084 V 2.3787617 A 0.16845973,0.16845973 0 0 1 2.0485686,2.210302 Z"
       id="path10600"
       style="fill:#f9e109;stroke-width:0.08422987" />
    <path
       d="m 2.7247614,2.210495 h 0.3369197 v 0.08423 a 0.25268959,0.25268959 0 0 1 -0.25269,0.2526896 H 2.5563019 V 2.3789547 A 0.16845973,0.16845973 0 0 1 2.7247614,2.210495 Z"
       id="path10602"
       style="fill:#f9e109;stroke-width:0.08422987" />
    <path
       d="m 1.3743361,2.7158158 h 0.3369196 v 0.08423 A 0.25268959,0.25268959 0 0 1 1.4585658,3.0527352 H 1.2058766 V 2.8842755 A 0.16845973,0.16845973 0 0 1 1.3743361,2.7158158 Z"
       id="path10604"
       style="fill:#f9e109;stroke-width:0.08422987" />
    <path
       d="m 2.048845,2.7160088 h 0.336919 v 0.08423 A 0.25268959,0.25268959 0 0 1 2.1330748,3.0529283 h -0.25269 V 2.8844685 A 0.16845973,0.16845973 0 0 1 2.048845,2.7160088 Z"
       id="path10606"
       style="fill:#f9e109;stroke-width:0.08422987" />
    <path
       d="m 2.7227574,2.7159552 h 0.3369197 v 0.08423 A 0.25268959,0.25268959 0 0 1 2.8069872,3.0528748 H 2.554298 V 2.884415 A 0.16845973,0.16845973 0 0 1 2.7227574,2.7159552 Z"
       id="path10608"
       style="fill:#f9e109;stroke-width:0.08422987" />
    <path
       d="m 1.3752084,3.221276 h 0.3369197 v 0.08423 A 0.25268959,0.25268959 0 0 1 1.4594382,3.5581955 H 1.2067489 V 3.3897357 A 0.16845973,0.16845973 0 0 1 1.3752084,3.221276 Z"
       id="path10610"
       style="fill:#f9e109;stroke-width:0.08422987" />
    <path
       d="m 2.0485256,3.221469 h 0.336919 v 0.08423 A 0.25268959,0.25268959 0 0 1 2.1327553,3.5583885 H 1.8800654 V 3.3899288 A 0.16845973,0.16845973 0 0 1 2.0485256,3.221469 Z"
       id="path10612"
       style="fill:#f9e109;stroke-width:0.08422987" />
    <path
       d="m 2.7221916,3.2216621 h 0.3369196 v 0.08423 A 0.25268959,0.25268959 0 0 1 2.8064214,3.5585815 H 2.5537322 V 3.3901218 A 0.16845973,0.16845973 0 0 1 2.7221916,3.2216621 Z"
       id="path10614"
       style="fill:#f9e109;stroke-width:0.08422987" />
    <path
       d="m 1.374889,3.7267362 h 0.3369197 v 0.08423 a 0.25268959,0.25268959 0 0 1 -0.25269,0.2526896 H 1.2064295 V 3.8951959 A 0.16845973,0.16845973 0 0 1 1.374889,3.7267362 Z"
       id="path10616"
       style="fill:#f9e109;stroke-width:0.08422987" />
    <path
       d="m 2.048555,3.7277715 h 0.3369197 v 0.08423 A 0.25268959,0.25268959 0 0 1 2.1327847,4.064691 H 1.8800955 V 3.8962313 A 0.16845973,0.16845973 0 0 1 2.048555,3.7277715 Z"
       id="path10618"
       style="fill:#f9e109;stroke-width:0.08422987" />
    <path
       d="m 2.7224681,3.7265266 h 0.3369196 v 0.08423 A 0.25268959,0.25268959 0 0 1 2.8066978,4.0634459 H 2.5540086 V 3.8949862 A 0.16845973,0.16845973 0 0 1 2.7224681,3.7265266 Z"
       id="path10620"
       style="fill:#f9e109;stroke-width:0.08422987" />
    <path
       d="m 2.0488314,4.2317937 h 0.3369197 v 0.08423 A 0.25268959,0.25268959 0 0 1 2.1330612,4.5687132 H 1.880372 V 4.4002534 A 0.16845973,0.16845973 0 0 1 2.0488314,4.2317937 Z"
       id="path10622"
       style="fill:#f9e109;stroke-width:0.08422987" />
    <path
       d="M 2.0489124,0.35786218 H 2.385832 A 0.16845973,0.16845973 0 0 1 2.2173726,0.52632179 H 1.8804529 A 0.16845973,0.16845973 0 0 1 2.0489124,0.35786218 Z"
       id="path10624"
       style="fill:#f9e109;stroke-width:0.08422987" />
    <path
       d="M 1.7961501,5.933412 H 2.6384489 V 6.607251 H 1.7961501 Z"
       id="path10626"
       style="fill:#7fa017;fill-opacity:1;stroke-width:0.08422987" />
    <path
       d="M 0.86976844,3.9956523 H 1.206688 A 1.0107583,1.0107583 0 0 1 2.2174464,5.0064106 V 6.2698587 A 1.3476779,1.3476779 0 0 1 0.86976844,4.9221807 Z"
       id="path10628"
       style="fill:#c1d12a;fill-opacity:1;stroke-width:0.08422987" />
    <path
       d="M 3.3930006,3.406565 H 3.5614608 V 4.9227026 A 1.3476779,1.3476779 0 0 1 2.2137829,6.2703804 V 4.5857831 A 1.1792181,1.1792181 0 0 1 3.3930006,3.406565 Z"
       id="path10630"
       style="fill:#c1d12a;fill-opacity:1;stroke-width:0.08422987" />
    <path
       d="m 3.267788,3.4139647 5.966e-4,1.2110275 A 1.3478814,1.3478814 0 0 1 2.2181905,5.9384778 l -5.966e-4,0.332988 A 1.3478814,1.3478814 0 0 0 3.5656307,4.9234305 V 3.4068163 L 3.3970515,3.4062194 c -0.043481,5.969e-4 -0.086969,0.00358 -0.1292635,0.00775 z"
       id="path10632"
       style="fill:#9fbc22;fill-opacity:1;stroke-width:0.08424258" />
    <path
       d="M 1.9793215,4.646437 V 5.1515779 A 0.7581833,0.7581833 0 0 1 1.302623,5.9045239 1.3478814,1.3478814 0 0 0 2.2175954,6.2714658 V 5.003848 A 1.0109109,1.0109109 0 0 0 1.9090301,4.2771122 1.0176504,1.0176504 0 0 1 1.9793201,4.646437 Z"
       id="path10634"
       style="fill:#9fbc22;fill-opacity:1;stroke-width:0.08424258" />
  </g>
</svg>
