<?xml version="1.0" encoding="UTF-8" standalone="no"?>
<svg
   xmlns:dc="http://purl.org/dc/elements/1.1/"
   xmlns:cc="http://creativecommons.org/ns#"
   xmlns:rdf="http://www.w3.org/1999/02/22-rdf-syntax-ns#"
   xmlns:svg="http://www.w3.org/2000/svg"
   xmlns="http://www.w3.org/2000/svg"
   xmlns:xlink="http://www.w3.org/1999/xlink"
   version="1.0"
   id="svg2549"
   height="50"
   width="50">
  <defs
     id="defs2551">
    <linearGradient
       id="linearGradient3278">
      <stop
         id="stop3280"
         offset="0"
         style="stop-color:#f9fbfd;stop-opacity:1;" />
      <stop
         id="stop3282"
         offset="1"
         style="stop-color:#fdfdfb;stop-opacity:0.32173914;" />
    </linearGradient>
    <filter
       height="1.4807422"
       y="-0.24037109"
       width="1.4792601"
       x="-0.23963004"
       id="filter3402">
      <feGaussianBlur
         id="feGaussianBlur3404"
         stdDeviation="44.194418" />
    </filter>
    <radialGradient
       r="190.63026"
       fy="341.94849"
       fx="462.73203"
       cy="341.94849"
       cx="462.73203"
       gradientTransform="matrix(0.9867987,0.1619513,-0.1619361,0.986706,-78.4546,88.148822)"
       gradientUnits="userSpaceOnUse"
       id="radialGradient2784"
       xlink:href="#linearGradient3278" />
    <radialGradient
       id="radial-gradient"
       cx="760.09998"
       cy="616.09998"
       r="202.2"
       gradientTransform="rotate(45,-0.00408,-0.00129)"
       gradientUnits="userSpaceOnUse">
      <stop
         offset="0"
         stop-color="#f177ae"
         id="stop3009" />
      <stop
         offset="0.92"
         stop-color="#c76291"
         id="stop3011" />
    </radialGradient>
    <clipPath
       id="clip-path">
      <path
         style="fill:none"
         d="m 526,699.5 a 180.18,180.18 0 0 1 2.35,-29.11 177.16,177.16 0 0 1 6.8,-27.62 179.8,179.8 0 0 1 113.58,-113.62 c 8.2,-2.37 19.2,-5.44 27.63,-6.8 8.65,-1.4 20.36,-2 29.12,-2.35 97,0 175.57,80.37 175.57,179.5 0,99.13 -78.6,179.5 -175.57,179.5 -8.76,-0.35 -20.47,-1 -29.12,-2.35 -8.43,-1.36 -19.43,-4.43 -27.63,-6.8 v 0 a 179.37,179.37 0 0 1 -49.28,-25.48 c -6.48,-5.14 -15.07,-12.1 -20.92,-17.94 -5.85,-5.84 -12.81,-14.43 -17.95,-20.92 v 0 A 178.78,178.78 0 0 1 535.1,756.24 177.43,177.43 0 0 1 528.3,728.62 180.31,180.31 0 0 1 526,699.5 Z"
         id="path3014" />
    </clipPath>
    <radialGradient
       id="radial-gradient-2"
       cx="303.10001"
       cy="616.09998"
       r="202.2"
       gradientTransform="rotate(45,-0.00408,0.00622)"
       gradientUnits="userSpaceOnUse">
      <stop
         offset="0"
         stop-color="#b6e4fa"
         id="stop3017" />
      <stop
         offset="0.92"
         stop-color="#00aedd"
         id="stop3019" />
    </radialGradient>
    <clipPath
       id="clip-path-2">
      <path
         style="fill:none"
         d="m 69,699.5 a 180.18,180.18 0 0 1 2.35,-29.11 177.16,177.16 0 0 1 6.8,-27.62 179.8,179.8 0 0 1 113.58,-113.62 c 8.2,-2.37 19.2,-5.44 27.63,-6.8 8.65,-1.4 20.36,-2 29.12,-2.35 97,0 175.57,80.37 175.57,179.5 0,99.13 -78.6,179.5 -175.57,179.5 -8.76,-0.35 -20.47,-1 -29.12,-2.35 -8.43,-1.36 -19.43,-4.43 -27.63,-6.8 v 0 a 179.37,179.37 0 0 1 -49.28,-25.48 c -6.48,-5.14 -15.07,-12.1 -20.92,-17.94 -5.85,-5.84 -12.8,-14.44 -17.94,-20.92 v 0 A 178.31,178.31 0 0 1 71.3,728.62 180.31,180.31 0 0 1 69,699.5 Z"
         id="path3022" />
    </clipPath>
    <radialGradient
       id="radial-gradient-3"
       cx="760.09998"
       cy="167.10001"
       r="202.2"
       gradientTransform="rotate(45,-2506.0983,173.36771)"
       gradientUnits="userSpaceOnUse">
      <stop
         offset="0"
         stop-color="#f3f3f3"
         id="stop3025" />
      <stop
         offset="0.92"
         stop-color="#a9a9a9"
         id="stop3027" />
    </radialGradient>
    <clipPath
       id="clip-path-3">
      <path
         style="fill:none"
         d="m 526,250.51 a 180.31,180.31 0 0 1 2.35,-29.12 177.43,177.43 0 0 1 6.8,-27.62 179.8,179.8 0 0 1 113.58,-113.62 c 8.2,-2.37 19.2,-5.44 27.63,-6.8 8.65,-1.4 20.36,-2 29.12,-2.35 97,0 175.57,80.37 175.57,179.51 0,99.14 -78.6,179.49 -175.57,179.49 -8.76,-0.35 -20.47,-0.95 -29.12,-2.35 -8.43,-1.36 -19.43,-4.43 -27.63,-6.8 v 0 a 178.65,178.65 0 0 1 -49.28,-25.48 c -6.48,-5.14 -15.07,-12.1 -20.92,-17.94 -5.85,-5.84 -12.81,-14.43 -17.95,-20.92 v 0 A 178.78,178.78 0 0 1 535.1,307.24 177.43,177.43 0 0 1 528.3,279.62 180.18,180.18 0 0 1 526,250.51 Z"
         id="path3030" />
    </clipPath>
    <radialGradient
       id="radial-gradient-4"
       cx="303.10001"
       cy="167.10001"
       r="202.2"
       gradientTransform="rotate(45,-8.5e-4,0.00622)"
       gradientUnits="userSpaceOnUse">
      <stop
         offset="0"
         stop-color="#fff6b9"
         id="stop3033" />
      <stop
         offset="0.92"
         stop-color="#b0a653"
         id="stop3035" />
    </radialGradient>
    <clipPath
       id="clip-path-4">
      <path
         style="fill:none"
         d="m 69,250.51 a 180.31,180.31 0 0 1 2.35,-29.12 177.43,177.43 0 0 1 6.8,-27.62 179.8,179.8 0 0 1 113.58,-113.62 c 8.2,-2.37 19.2,-5.44 27.63,-6.8 8.65,-1.4 20.36,-2 29.12,-2.35 97,0 175.57,80.37 175.57,179.51 0,99.14 -78.6,179.49 -175.57,179.49 -8.76,-0.35 -20.47,-0.95 -29.12,-2.35 -8.43,-1.36 -19.43,-4.43 -27.63,-6.8 v 0 a 178.65,178.65 0 0 1 -49.28,-25.48 c -6.48,-5.14 -15.07,-12.1 -20.92,-17.94 -5.85,-5.84 -12.8,-14.44 -17.94,-20.92 v 0 A 178.31,178.31 0 0 1 71.3,279.62 180.18,180.18 0 0 1 69,250.51 Z"
         id="path3038" />
    </clipPath>
    <filter
       id="imagebot_6"
       style="color-interpolation-filters:sRGB">
      <feGaussianBlur
         stdDeviation="3.42208"
         id="imagebot_44" />
    </filter>
  </defs>
  <metadata
     id="metadata2554">
    <rdf:RDF>
      <cc:Work
         rdf:about="">
        <dc:format>image/svg+xml</dc:format>
        <dc:type
           rdf:resource="http://purl.org/dc/dcmitype/StillImage" />
        <dc:title></dc:title>
      </cc:Work>
    </rdf:RDF>
  </metadata>
  <g
     transform="translate(-132.26212,-641.11475)"
     id="layer1">
    <g
       id="g2793">
      <g
         transform="matrix(0.13927577,0,0,0.13927577,-60.023283,391.49076)"
         id="g5909">
        <circle
           id="circle3991"
           transform="rotate(-45)"
           r="179.5"
           cy="2497.4373"
           cx="-291.10974"
           style="fill:url(#radial-gradient-3)" />
        <g
           id="g4445"
           style="isolation:isolate"
           transform="translate(856.60935,1721.2999)">
          <g
             id="g4443"
             clip-path="url(#clip-path-3)">
            <path
               id="path3993"
               d="m 705.48,430 c -4.66,0 -9.29,-0.18 -13.86,-0.53 v 0 q 6.87,0.52 13.87,0.53"
               style="fill:#9e9e9e" />
            <path
               id="path3995"
               d="m 705.48,430 q -6.76,0 -13.41,-0.53 h -0.43 q 6.84,0.52 13.84,0.53"
               style="fill:#9b9b9b" />
            <path
               id="path3997"
               d="m 705.48,430 q -6.24,0 -12.35,-0.53 h -1 q 6.6,0.52 13.33,0.53"
               style="fill:#979797" />
            <path
               id="path3999"
               d="m 705.48,430 c -3.61,0 -7.2,-0.18 -10.74,-0.53 h -1.48 q 6,0.52 12.22,0.53"
               style="fill:#929292" />
            <path
               id="path4001"
               d="m 705.48,430 a 70.82,70.82 0 0 1 -8.64,-0.53 h -1.91 a 105.41,105.41 0 0 0 10.55,0.53"
               style="fill:#8c8c8c" />
            <path
               id="path4003"
               d="m 705.48,430 a 35.55,35.55 0 0 1 -6.1,-0.53 h -2.3 a 66.94,66.94 0 0 0 8.4,0.53"
               style="fill:#888888" />
            <path
               id="path4005"
               d="m 705.48,430 a 10.11,10.11 0 0 1 -3.19,-0.53 h -2.64 a 32.58,32.58 0 0 0 5.83,0.53"
               style="fill:#828282" />
            <path
               id="path4007"
               d="m 705.48,430 c 0,0 -0.06,-0.18 -0.09,-0.53 h -2.79 a 8.28,8.28 0 0 0 2.88,0.53"
               style="fill:#7f7f7f" />
            <path
               id="path4009"
               d="m 705.48,430 a 8.45,8.45 0 0 0 2.91,-0.53 h -2.7 c -0.07,0.35 -0.14,0.53 -0.21,0.53"
               style="fill:#7f7f7f" />
            <path
               id="path4011"
               d="m 705.48,430 a 31.41,31.41 0 0 0 5.73,-0.53 h -2.53 a 10.13,10.13 0 0 1 -3.2,0.53"
               style="fill:#7f7f7f" />
            <path
               id="path4013"
               d="m 705.48,430 a 64.73,64.73 0 0 0 8.26,-0.53 h -2.27 a 34.29,34.29 0 0 1 -6,0.53"
               style="fill:#7f7f7f" />
            <path
               id="path4015"
               d="m 705.48,430 a 103.37,103.37 0 0 0 10.44,-0.53 H 714 a 68.67,68.67 0 0 1 -8.5,0.53"
               style="fill:#7f7f7f" />
            <path
               id="path4017"
               d="m 705.48,430 q 6.13,0 12.15,-0.53 h -1.52 q -5.26,0.52 -10.63,0.53"
               style="fill:#7f7f7f" />
            <path
               id="path4019"
               d="m 705.48,430 c 4.48,0 8.93,-0.18 13.32,-0.53 h -1 q -6.07,0.52 -12.29,0.53"
               style="fill:#7f7f7f" />
            <path
               id="path4021"
               d="m 705.48,430 c 4.56,0 9.09,-0.18 13.56,-0.53 h -0.16 q -6.63,0.52 -13.4,0.53"
               style="fill:#7f7f7f" />
            <path
               id="path4023"
               d="m 687.64,429.13 a 178.32,178.32 0 0 1 -35,-7 v 0 c 7.07,1.87 16.56,4.18 23.75,5.56 q 5.58,0.92 11.27,1.48 v 0"
               style="fill:#a6a6a6" />
            <path
               id="path4025"
               d="m 687.67,429.13 h 0.55 a 167.72,167.72 0 0 1 -33.86,-7 h -1.65 a 177.87,177.87 0 0 0 35,7"
               style="fill:#a3a3a3" />
            <path
               id="path4027"
               d="m 688.32,429.13 h 1.26 a 143.84,143.84 0 0 1 -31.18,-7 h -3.74 a 166,166 0 0 0 33.66,7"
               style="fill:#9d9d9d" />
            <path
               id="path4029"
               d="m 689.76,429.13 h 1.9 a 111.54,111.54 0 0 1 -27.12,-7 h -5.62 a 140.86,140.86 0 0 0 30.84,7"
               style="fill:#999999" />
            <path
               id="path4031"
               d="m 691.9,429.13 h 2.47 a 75.9,75.9 0 0 1 -21.81,-7 h -7.31 a 108.07,108.07 0 0 0 26.65,7"
               style="fill:#959595" />
            <path
               id="path4033"
               d="m 694.66,429.13 h 3 a 43.63,43.63 0 0 1 -15.4,-7 h -8.79 a 72.59,72.59 0 0 0 21.22,7"
               style="fill:#8f8f8f" />
            <path
               id="path4035"
               d="m 698,429.13 h 3.4 c -2.77,-1.19 -5.46,-3.58 -8,-7 h -10.13 a 40.69,40.69 0 0 0 14.71,7"
               style="fill:#929292" />
            <path
               id="path4037"
               d="m 701.78,429.13 h 3.58 c -0.07,-1.19 -0.15,-3.58 -0.22,-7 h -10.63 c 2.33,3.46 4.76,5.85 7.27,7"
               style="fill:#828282" />
            <path
               id="path4039"
               d="m 705.75,429.13 h 3.48 c 2.53,-1.19 5,-3.58 7.35,-7 h -10.29 c -0.17,3.46 -0.35,5.85 -0.54,7"
               style="fill:#f6f6f6" />
            <path
               id="path4041"
               d="m 709.6,429.13 h 3.25 a 39.7,39.7 0 0 0 14.45,-7 h -9.62 c -2.6,3.46 -5.3,5.85 -8.08,7"
               style="fill:#7f7f7f" />
            <path
               id="path4043"
               d="m 713.19,429.13 h 2.93 a 70.6,70.6 0 0 0 20.87,-7 h -8.67 a 42.46,42.46 0 0 1 -15.13,7"
               style="fill:#7f7f7f" />
            <path
               id="path4045"
               d="m 716.41,429.13 h 2.5 a 106,106 0 0 0 26.36,-7 h -7.4 a 73.85,73.85 0 0 1 -21.46,7"
               style="fill:#7f7f7f" />
            <path
               id="path4047"
               d="m 719.16,429.13 h 2 a 139.68,139.68 0 0 0 30.69,-7 H 746 a 109.32,109.32 0 0 1 -26.83,7"
               style="fill:#7f7f7f" />
            <path
               id="path4049"
               d="m 721.3,429.13 h 1.32 a 165.71,165.71 0 0 0 33.65,-7 h -3.92 a 142.7,142.7 0 0 1 -31.05,7"
               style="fill:#7f7f7f" />
            <path
               id="path4051"
               d="m 722.73,429.13 h 0.2 a 171.44,171.44 0 0 0 34.26,-7 h -0.61 a 167.63,167.63 0 0 1 -33.85,7"
               style="fill:#7f7f7f" />
            <path
               id="path4053"
               d="m 623,410 a 179.67,179.67 0 0 0 25.76,10.88 l 0.2,0.07 v 0 A 178.8,178.8 0 0 1 617.14,406.8 h -0.07 c 1.94,1.1 3.91,2.17 5.89,3.2"
               style="fill:#ababab" />
            <path
               id="path4055"
               d="m 649,420.92 h 1.76 A 170.1,170.1 0 0 1 620,406.77 h -2.76 A 178.19,178.19 0 0 0 649,420.92"
               style="fill:#aaaaaa" />
            <path
               id="path4057"
               d="m 651.12,420.92 h 4 a 151.06,151.06 0 0 1 -28.36,-14.15 h -6.24 a 168.67,168.67 0 0 0 30.6,14.15"
               style="fill:#a4a4a4" />
            <path
               id="path4059"
               d="m 655.68,420.92 h 6 A 125.27,125.27 0 0 1 637,406.77 h -9.4 a 148.75,148.75 0 0 0 28,14.15"
               style="fill:#a0a0a0" />
            <path
               id="path4061"
               d="m 662.45,420.92 h 7.82 a 98.13,98.13 0 0 1 -19.83,-14.15 h -12.22 a 123,123 0 0 0 24.23,14.15"
               style="fill:#535353" />
            <path
               id="path4063"
               d="m 671.21,420.92 h 9.41 a 75.8,75.8 0 0 1 -14,-14.15 h -14.7 a 95.58,95.58 0 0 0 19.29,14.15"
               style="fill:#929292" />
            <path
               id="path4065"
               d="m 681.72,420.92 h 10.78 a 73.36,73.36 0 0 1 -7.31,-14.15 h -16.84 a 74.14,74.14 0 0 0 13.37,14.15"
               style="fill:#2c2c2c" />
            <path
               id="path4067"
               d="m 693.75,420.92 h 11.37 c -0.08,-3.7 -0.15,-8.45 -0.21,-14.15 h -17.77 a 76.11,76.11 0 0 0 6.61,14.15"
               style="fill:#888888" />
            <path
               id="path4069"
               d="m 706.35,420.92 h 11 A 76.55,76.55 0 0 0 724,406.77 h -17.16 c -0.16,5.7 -0.32,10.45 -0.49,14.15"
               style="fill:#f6f6f6" />
            <path
               id="path4071"
               d="m 718.53,420.92 h 10.29 A 73.72,73.72 0 0 0 742,406.77 h -16.1 a 73.88,73.88 0 0 1 -7.34,14.15"
               style="fill:#7f7f7f" />
            <path
               id="path4073"
               d="m 729.91,420.92 h 9.27 a 94.06,94.06 0 0 0 19,-14.15 h -14.52 a 75.16,75.16 0 0 1 -13.75,14.15"
               style="fill:#7f7f7f" />
            <path
               id="path4075"
               d="M 740.12,420.92 H 748 a 121.12,121.12 0 0 0 24,-14.15 h -12.37 a 96.28,96.28 0 0 1 -19.51,14.15"
               style="fill:#7f7f7f" />
            <path
               id="path4077"
               d="M 748.81,420.92 H 755 a 147.49,147.49 0 0 0 27.9,-14.15 h -9.71 a 124,124 0 0 1 -24.41,14.15"
               style="fill:#f6f6f6" />
            <path
               id="path4079"
               d="m 755.61,420.92 h 4.19 a 168.26,168.26 0 0 0 30.59,-14.15 h -6.56 a 149.88,149.88 0 0 1 -28.22,14.15"
               style="fill:#7f7f7f" />
            <path
               id="path4081"
               d="m 760.14,420.92 h 0.65 a 173,173 0 0 0 31.14,-14.15 h -1 a 170.32,170.32 0 0 1 -30.78,14.15"
               style="fill:#7f7f7f" />
            <path
               id="path4083"
               d="m 613.78,404.86 h 0.08 A 180.92,180.92 0 0 1 586.11,384.5 H 586 c 4,3.3 9.29,7.76 13.44,10.87 4.61,3.38 9.4,6.55 14.33,9.49"
               style="fill:#b4b4b4" />
            <path
               id="path4085"
               d="m 614,404.86 h 2.87 A 174.82,174.82 0 0 1 590,384.5 h -3.73 A 180.09,180.09 0 0 0 614,404.86"
               style="fill:#b1b1b1" />
            <path
               id="path4087"
               d="m 617.35,404.86 h 6.48 A 162.9,162.9 0 0 1 599.1,384.5 h -8.44 a 174,174 0 0 0 26.69,20.36"
               style="fill:#0a0a0a" />
            <path
               id="path4089"
               d="m 624.73,404.86 h 9.75 A 148.1,148.1 0 0 1 613,384.5 h -12.73 a 161.85,161.85 0 0 0 24.46,20.36"
               style="fill:#535353" />
            <path
               id="path4091"
               d="m 635.71,404.86 h 12.67 A 134.76,134.76 0 0 1 631.1,384.5 h -16.51 a 146.68,146.68 0 0 0 21.12,20.36"
               style="fill:#525252" />
            <path
               id="path4093"
               d="m 649.92,404.86 h 15.24 A 134.66,134.66 0 0 1 653,384.5 h -19.9 a 133.73,133.73 0 0 0 16.82,20.36"
               style="fill:#9b9b9b" />
            <path
               id="path4095"
               d="m 667,404.86 h 17.47 A 184.16,184.16 0 0 1 678.1,384.5 h -22.8 a 135.53,135.53 0 0 0 11.7,20.36"
               style="fill:#949494" />
            <path
               id="path4097"
               d="m 686.45,404.86 h 18.44 c -0.06,-5.9 -0.12,-12.73 -0.18,-20.36 h -24 a 203.71,203.71 0 0 0 5.76,20.36"
               style="fill:#8f8f8f" />
            <path
               id="path4099"
               d="m 706.89,404.86 h 17.83 a 197.53,197.53 0 0 0 5.83,-20.36 h -23.24 c -0.13,7.63 -0.27,14.46 -0.42,20.36"
               style="fill:#888888" />
            <path
               id="path4101"
               d="m 726.63,404.86 h 16.7 A 136.17,136.17 0 0 0 754.79,384.5 H 733 a 183.75,183.75 0 0 1 -6.41,20.36"
               style="fill:#5a5a5a" />
            <path
               id="path4103"
               d="m 745.09,404.86 h 15 a 134.24,134.24 0 0 0 16.54,-20.36 h -19.55 a 135.15,135.15 0 0 1 -12,20.36"
               style="fill:#7f7f7f" />
            <path
               id="path4105"
               d="m 761.65,404.86 h 12.83 a 145.74,145.74 0 0 0 20.89,-20.36 h -16.7 a 134.67,134.67 0 0 1 -17,20.36"
               style="fill:#cccccc" />
            <path
               id="path4107"
               d="m 775.74,404.86 h 10.08 A 160.88,160.88 0 0 0 810.15,384.5 H 797 a 147.19,147.19 0 0 1 -21.28,20.36"
               style="fill:#7f7f7f" />
            <path
               id="path4109"
               d="m 786.76,404.86 h 6.8 a 173.83,173.83 0 0 0 26.67,-20.36 h -8.86 a 163,163 0 0 1 -24.61,20.36"
               style="fill:#7f7f7f" />
            <path
               id="path4111"
               d="m 794.1,404.86 h 1 a 176.42,176.42 0 0 0 27.16,-20.36 h -1.37 a 174.74,174.74 0 0 1 -26.84,20.36"
               style="fill:#f6f6f6" />
            <path
               id="path4113"
               d="M 583.32,382 A 181,181 0 0 1 560.5,356.29 h -0.12 l 0.2,0.27 c 5.14,6.48 12.33,14.85 17.95,20.92 1.53,1.53 3.1,3 4.68,4.52 h 0.11"
               style="fill:#bababa" />
            <path
               id="path4115"
               d="m 583.45,382 h 3.82 A 179.68,179.68 0 0 1 565.2,356.29 h -4.53 A 180.76,180.76 0 0 0 583.45,382" />
            <path
               id="path4117"
               d="m 588,382 h 8.64 A 175.67,175.67 0 0 1 576.31,356.29 H 566 A 178.87,178.87 0 0 0 588,382"
               style="fill:#b1b1b1" />
            <path
               id="path4119"
               d="m 597.81,382 h 13 A 174.29,174.29 0 0 1 593.13,356.29 H 577.7 A 175.67,175.67 0 0 0 597.81,382" />
            <path
               id="path4121"
               d="m 612.46,382 h 16.89 A 181.11,181.11 0 0 1 615.14,356.29 H 595.08 A 174.32,174.32 0 0 0 612.46,382"
               style="fill:#929292" />
            <path
               id="path4123"
               d="m 631.4,382 h 20.32 a 213,213 0 0 1 -10,-25.71 H 617.57 A 181.91,181.91 0 0 0 631.4,382"
               style="fill:#a3a3a3" />
            <path
               id="path4125"
               d="m 654.12,382 h 23.29 c -1.93,-7.82 -3.68,-16.43 -5.24,-25.71 h -27.64 a 218.76,218.76 0 0 0 9.59,25.71"
               style="fill:#d7d7d7" />
            <path
               id="path4127"
               d="m 680.11,382 h 24.58 c -0.05,-7.82 -0.1,-16.43 -0.14,-25.71 h -29.18 c 1.41,9.28 3,17.89 4.74,25.71"
               style="fill:#959595" />
            <path
               id="path4129"
               d="m 707.36,382 h 23.78 c 1.76,-7.82 3.37,-16.43 4.79,-25.71 h -28.22 c -0.11,9.28 -0.23,17.89 -0.35,25.71"
               style="fill:#ababab" />
            <path
               id="path4131"
               d="M 733.69,382 H 756 a 220.89,220.89 0 0 0 9.42,-25.71 H 739 c -1.56,9.28 -3.32,17.89 -5.26,25.71"
               style="fill:#848484" />
            <path
               id="path4133"
               d="m 758.29,382 h 20 A 183.33,183.33 0 0 0 791.9,356.29 H 768.15 A 214.87,214.87 0 0 1 758.29,382"
               style="fill:#f6f6f6" />
            <path
               id="path4135"
               d="m 780.38,382 h 17.1 a 174.9,174.9 0 0 0 17.18,-25.71 h -20.29 a 182.41,182.41 0 0 1 -14,25.71"
               style="fill:#7f7f7f" />
            <path
               id="path4137"
               d="m 799.17,382 h 13.44 a 175.69,175.69 0 0 0 20,-25.71 h -16 A 175.65,175.65 0 0 1 799.17,382"
               style="fill:#7f7f7f" />
            <path
               id="path4139"
               d="m 813.85,382 h 9.07 a 178.74,178.74 0 0 0 21.93,-25.71 H 834.09 A 175.79,175.79 0 0 1 813.85,382"
               style="fill:#7f7f7f" />
            <path
               id="path4141"
               d="m 823.65,382 h 1.4 a 180.8,180.8 0 0 0 22.33,-25.71 h -1.67 A 179,179 0 0 1 823.65,382"
               style="fill:#7f7f7f" />
            <path
               id="path4143"
               d="m 546,333 a 180.54,180.54 0 0 0 12.21,20.17 h 0.12 a 179.34,179.34 0 0 1 -17,-30.16 h -0.14 q 2.25,5.08 4.79,10"
               style="fill:#bfbfbf" />
            <path
               id="path4145"
               d="m 558.47,353.16 h 4.61 A 181.06,181.06 0 0 1 546.64,323 h -5.13 a 179.94,179.94 0 0 0 17,30.16"
               style="fill:#bcbcbc" />
            <path
               id="path4147"
               d="m 563.91,353.16 h 10.41 A 185.22,185.22 0 0 1 559.19,323 h -11.61 a 181.28,181.28 0 0 0 16.33,30.16" />
            <path
               id="path4149"
               d="m 575.77,353.16 h 15.66 A 198.41,198.41 0 0 1 578.27,323 H 560.8 a 186.18,186.18 0 0 0 15,30.16"
               style="fill:#535353" />
            <path
               id="path4151"
               d="m 593.41,353.16 h 20.36 A 225.13,225.13 0 0 1 603.19,323 h -22.71 a 200.71,200.71 0 0 0 12.93,30.16"
               style="fill:#2c2c2c" />
            <path
               id="path4153"
               d="m 616.23,353.16 h 24.49 A 293.52,293.52 0 0 1 633.25,323 h -27.31 a 230.53,230.53 0 0 0 10.29,30.16"
               style="fill:#a6a6a6" />
            <path
               id="path4155"
               d="m 643.61,353.16 h 28.06 c -1.51,-9.43 -2.82,-19.52 -3.9,-30.16 h -31.3 a 305.7,305.7 0 0 0 7.14,30.16"
               style="fill:#2c2c2c" />
            <path
               id="path4157"
               d="m 674.92,353.16 h 29.61 c 0,-9.43 -0.08,-19.52 -0.11,-30.16 h -33 c 1,10.64 2.16,20.73 3.53,30.16"
               style="fill:#ababab" />
            <path
               id="path4159"
               d="m 707.74,353.16 h 28.65 c 1.39,-9.43 2.58,-19.52 3.57,-30.16 H 708 c -0.07,10.64 -0.16,20.73 -0.26,30.16"
               style="fill:#929292" />
            <path
               id="path4161"
               d="m 739.46,353.16 h 26.82 a 309.19,309.19 0 0 0 7,-30.16 h -29.9 c -1.08,10.64 -2.4,20.73 -3.92,30.16"
               style="fill:#5a5a5a" />
            <path
               id="path4163"
               d="m 769.1,353.16 h 24.15 A 233.37,233.37 0 0 0 803.37,323 h -26.93 a 296.63,296.63 0 0 1 -7.34,30.16"
               style="fill:#838383" />
            <path
               id="path4165"
               d="m 795.71,353.16 h 20.6 A 201.31,201.31 0 0 0 829.1,323 h -23 a 227.75,227.75 0 0 1 -10.41,30.16"
               style="fill:#5a5a5a" />
            <path
               id="path4167"
               d="m 818.34,353.16 h 16.2 A 187.5,187.5 0 0 0 849.43,323 h -18.06 a 200,200 0 0 1 -13,30.16"
               style="fill:#7f7f7f" />
            <path
               id="path4169"
               d="m 836,353.16 h 11 A 181.28,181.28 0 0 0 863.29,323 H 851.1 A 186.55,186.55 0 0 1 836,353.16"
               style="fill:#e1e1e1" />
            <path
               id="path4171"
               d="m 847.84,353.16 h 1.68 c 6.45,-9.43 4.89,-18.43 16.62,-30.16 h -1.88 a 181,181 0 0 1 -16.42,30.16"
               style="fill:#7f7f7f" />
            <path
               id="path4173"
               d="m 535.1,307.24 q 2.07,6.22 4.58,12.25 h 0.14 a 178.46,178.46 0 0 1 -10.27,-33.73 h -0.14 a 177,177 0 0 0 5.69,21.48"
               style="fill:#c5c5c5" />
            <path
               id="path4175"
               d="m 540,319.49 h 5.18 a 182.18,182.18 0 0 1 -9.94,-33.73 h -5.5 A 178.44,178.44 0 0 0 540,319.49"
               style="fill:#0a0a0a" />
            <path
               id="path4177"
               d="m 546.13,319.49 h 11.71 a 195.48,195.48 0 0 1 -9.15,-33.73 h -12.44 a 183.59,183.59 0 0 0 9.88,33.73" />
            <path
               id="path4179"
               d="m 559.47,319.49 h 17.63 a 218,218 0 0 1 -8,-33.73 h -18.68 a 196.19,196.19 0 0 0 9.05,33.73"
               style="fill:#525252" />
            <path
               id="path4181"
               d="m 579.33,319.49 h 22.92 a 263.93,263.93 0 0 1 -6.4,-33.73 h -24.33 a 221.37,221.37 0 0 0 7.81,33.73"
               style="fill:#535353" />
            <path
               id="path4183"
               d="m 605,319.49 h 27.57 c -2,-10.76 -3.5,-22 -4.52,-33.73 H 598.8 a 271.19,271.19 0 0 0 6.2,33.73"
               style="fill:#d7d7d7" />
            <path
               id="path4185"
               d="m 635.84,319.49 h 31.58 c -1,-10.76 -1.82,-22 -2.36,-33.73 h -33.54 c 1,11.69 2.44,23 4.32,33.73"
               style="fill:#f6f6f6" />
            <path
               id="path4187"
               d="m 671.08,319.49 h 33.33 c 0,-10.76 0,-22 -0.06,-33.73 H 669 c 0.48,11.69 1.2,23 2.13,33.73"
               style="fill:#ababab" />
            <path
               id="path4189"
               d="m 708,319.49 h 32.26 c 0.94,-10.76 1.66,-22 2.15,-33.73 h -34.23 c 0,11.69 -0.09,23 -0.16,33.73"
               style="fill:#ececec" />
            <path
               id="path4191"
               d="m 743.73,319.49 h 30.19 c 1.85,-10.76 3.28,-22 4.24,-33.73 H 746.1 c -0.54,11.69 -1.34,23 -2.37,33.73"
               style="fill:#8f8f8f" />
            <path
               id="path4193"
               d="m 777.09,319.49 h 27.18 a 273.13,273.13 0 0 0 6.12,-33.73 h -28.86 c -1,11.69 -2.5,23 -4.44,33.73"
               style="fill:#888888" />
            <path
               id="path4195"
               d="m 807.05,319.49 h 23.19 A 223.69,223.69 0 0 0 838,285.76 h -24.66 a 267.52,267.52 0 0 1 -6.29,33.73"
               style="fill:#f6f6f6" />
            <path
               id="path4197"
               d="m 832.52,319.49 h 18.23 a 197,197 0 0 0 9,-33.73 H 840.4 a 220.26,220.26 0 0 1 -7.88,33.73"
               style="fill:#7f7f7f" />
            <path
               id="path4199"
               d="m 852.44,319.49 h 12.3 a 183.55,183.55 0 0 0 9.86,-33.73 h -13.05 a 196.31,196.31 0 0 1 -9.11,33.73"
               style="fill:#7f7f7f" />
            <path
               id="path4201"
               d="m 865.72,319.49 h 1.9 a 181.67,181.67 0 0 0 10,-33.73 h -2 a 182.93,182.93 0 0 1 -9.93,33.73"
               style="fill:#7f7f7f" />
            <path
               id="path4203"
               d="m 526,250.51 a 180.18,180.18 0 0 0 2.35,29.11 c 0.12,0.76 0.25,1.52 0.38,2.28 h 0.15 a 180.35,180.35 0 0 1 -2.73,-31.39 c 0,-1.67 0,-3.33 0.06,-5 H 526 c 0,1.66 -0.06,3.32 -0.06,5"
               style="fill:#cacaca" />
            <path
               id="path4205"
               d="m 529,281.9 h 5.52 a 186.41,186.41 0 0 1 -2.64,-31.39 c 0,-1.67 0,-3.33 0.06,-5 h -5.61 c 0,1.66 -0.06,3.32 -0.06,5 A 180.35,180.35 0 0 0 529,281.9"
               style="fill:#0a0a0a" />
            <path
               id="path4207"
               d="m 535.56,281.9 h 12.49 a 202.33,202.33 0 0 1 -2.44,-31.39 c 0,-1.67 0,-3.33 0.06,-5 H 533 c 0,1.66 -0.06,3.32 -0.06,5 a 187.46,187.46 0 0 0 2.63,31.39" />
            <path
               id="path4209"
               d="m 549.78,281.9 h 18.8 a 232.3,232.3 0 0 1 -2.11,-31.39 c 0,-1.67 0,-3.33 0,-5 h -19.04 c 0,1.66 -0.06,3.32 -0.06,5 a 204.83,204.83 0 0 0 2.41,31.39"
               style="fill:#525252" />
            <path
               id="path4211"
               d="m 571,281.9 h 24.4 a 287.47,287.47 0 0 1 -1.71,-31.39 c 0,-1.67 0,-3.33 0,-5 h -24.8 c 0,1.66 -0.06,3.32 -0.06,5 A 237.32,237.32 0 0 0 571,281.9"
               style="fill:#2c2c2c" />
            <path
               id="path4213"
               d="m 598.36,281.9 h 29.39 c -0.79,-10.19 -1.2,-20.68 -1.2,-31.39 0,-1.67 0,-3.33 0,-5 h -29.81 c 0,1.66 0,3.32 0,5 a 295.32,295.32 0 0 0 1.66,31.39"
               style="fill:#b1b1b1" />
            <path
               id="path4215"
               d="m 631.22,281.9 h 33.67 c -0.41,-10.19 -0.62,-20.68 -0.62,-31.39 0,-1.67 0,-3.33 0,-5 H 630.1 c 0,1.66 0,3.32 0,5 0,10.71 0.39,21.2 1.15,31.39"
               style="fill:#aaaaaa" />
            <path
               id="path4217"
               d="m 668.79,281.9 h 35.55 c 0,-10.19 0,-20.68 0,-31.39 v -5 h -36.1 c 0,1.66 0,3.32 0,5 0,10.71 0.19,21.2 0.56,31.39"
               style="fill:#a2a2a2" />
            <path
               id="path4219"
               d="m 708.19,281.9 h 34.39 c 0.38,-10.19 0.58,-20.68 0.58,-31.39 0,-1.67 0,-3.33 0,-5 h -34.93 v 5 c 0,10.71 0,21.2 0,31.39"
               style="fill:#f6f6f6" />
            <path
               id="path4221"
               d="m 746.27,281.9 h 32.19 c 0.74,-10.19 1.13,-20.68 1.13,-31.39 0,-1.67 0,-3.33 0,-5 h -32.71 c 0,1.66 0,3.32 0,5 0,10.71 -0.22,21.2 -0.63,31.39"
               style="fill:#f5f5f5" />
            <path
               id="path4223"
               d="m 781.84,281.9 h 29 a 300.78,300.78 0 0 0 1.63,-31.39 c 0,-1.67 0,-3.33 0,-5 H 783 c 0,1.66 0,3.32 0,5 0,10.71 -0.41,21.2 -1.19,31.39"
               style="fill:#f6f6f6" />
            <path
               id="path4225"
               d="m 813.79,281.9 h 24.72 a 237.35,237.35 0 0 0 2.06,-31.39 c 0,-1.67 0,-3.33 -0.05,-5 h -25.1 c 0,1.66 0,3.32 0,5 a 292.67,292.67 0 0 1 -1.67,31.39"
               style="fill:#838383" />
            <path
               id="path4227"
               d="m 841,281.9 h 19.44 a 206.11,206.11 0 0 0 2.4,-31.39 c 0,-1.67 0,-3.33 -0.06,-5 H 843 c 0,1.66 0,3.32 0,5 a 234,234 0 0 1 -2,31.39"
               style="fill:#5a5a5a" />
            <path
               id="path4229"
               d="m 862.19,281.9 h 13.11 a 187.46,187.46 0 0 0 2.63,-31.39 c 0,-1.67 0,-3.33 -0.07,-5 h -13.31 c 0,1.66 0.06,3.32 0.06,5 a 203.57,203.57 0 0 1 -2.42,31.39"
               style="fill:#e1e1e1" />
            <path
               id="path4231"
               d="m 876.35,281.9 h 2 a 184.34,184.34 0 0 0 2.67,-31.39 c 0,-1.67 0,-3.33 -0.06,-5 h -2.06 c 0,1.66 0.07,3.32 0.07,5 a 186.41,186.41 0 0 1 -2.65,31.39"
               style="fill:#7f7f7f" />
            <path
               id="path4233"
               d="m 528.3,221.39 a 179.55,179.55 0 0 0 -2.13,20.1 h 0.15 a 179,179 0 0 1 5.36,-35.59 h -0.15 q -1.95,7.62 -3.23,15.49"
               style="fill:#cecece" />
            <path
               id="path4235"
               d="m 526.52,241.49 h 5.6 a 184.89,184.89 0 0 1 5.19,-35.59 h -5.44 a 179.69,179.69 0 0 0 -5.35,35.59" />
            <path
               id="path4237"
               d="m 533.14,241.49 h 12.67 a 199.93,199.93 0 0 1 4.78,-35.59 H 538.3 a 185.65,185.65 0 0 0 -5.16,35.59"
               style="fill:#0a0a0a" />
            <path
               id="path4239"
               d="m 547.57,241.49 h 19.07 a 228.31,228.31 0 0 1 4.15,-35.59 h -18.5 a 201.76,201.76 0 0 0 -4.72,35.59" />
            <path
               id="path4241"
               d="m 569.05,241.49 h 24.78 a 283.12,283.12 0 0 1 3.34,-35.59 h -24 a 232,232 0 0 0 -4.08,35.59"
               style="fill:#bababa" />
            <path
               id="path4243"
               d="m 596.84,241.49 h 29.8 c 0.27,-12.23 1.07,-24.13 2.36,-35.59 h -28.91 a 287.08,287.08 0 0 0 -3.25,35.59"
               style="fill:#5a5a5a" />
            <path
               id="path4245"
               d="m 630.16,241.49 h 34.16 c 0.14,-12.23 0.56,-24.13 1.23,-35.59 h -33.14 c -1.23,11.46 -2,23.36 -2.25,35.59"
               style="fill:#ababab" />
            <path
               id="path4247"
               d="m 668.27,241.49 h 36.06 c 0,-12.23 0,-24.13 0,-35.59 h -35 c -0.61,11.46 -1,23.36 -1.12,35.59"
               style="fill:#5a5a5a" />
            <path
               id="path4249"
               d="m 708.23,241.49 h 34.88 c -0.12,-12.23 -0.51,-24.13 -1.12,-35.59 h -33.84 c 0,11.46 0.07,23.36 0.08,35.59"
               style="fill:#a0a0a0" />
            <path
               id="path4251"
               d="m 746.85,241.49 h 32.65 c -0.25,-12.23 -1,-24.13 -2.22,-35.59 h -31.67 c 0.68,11.46 1.1,23.36 1.24,35.59"
               style="fill:#f8f8f8" />
            <path
               id="path4253"
               d="m 782.93,241.49 h 29.39 a 293.1,293.1 0 0 0 -3.19,-35.59 h -28.52 c 1.27,11.46 2.06,23.36 2.32,35.59"
               style="fill:#8f8f8f" />
            <path
               id="path4255"
               d="m 815.33,241.49 h 25.08 a 235.83,235.83 0 0 0 -4,-35.59 H 812 a 285.1,285.1 0 0 1 3.29,35.59"
               style="fill:#858585" />
            <path
               id="path4257"
               d="m 842.88,241.49 h 19.71 a 202.7,202.7 0 0 0 -4.7,-35.59 h -19.12 a 232,232 0 0 1 4.11,35.59"
               style="fill:#ececec" />
            <path
               id="path4259"
               d="m 864.42,241.49 h 13.29 a 185.65,185.65 0 0 0 -5.15,-35.59 h -12.9 a 200.84,200.84 0 0 1 4.76,35.59"
               style="fill:#7f7f7f" />
            <path
               id="path4261"
               d="m 878.78,241.49 h 2.05 a 182.61,182.61 0 0 0 -5.24,-35.59 h -2 a 184.88,184.88 0 0 1 5.18,35.59"
               style="fill:#7f7f7f" />
            <path
               id="path4263"
               d="m 535.1,193.77 c -0.92,2.76 -1.78,5.55 -2.56,8.37 h 0.14 a 178.58,178.58 0 0 1 12.66,-32.61 h -0.13 a 177.42,177.42 0 0 0 -10.11,24.24"
               style="fill:#d2d2d2" />
            <path
               id="path4265"
               d="m 532.88,202.14 h 5.4 a 182.48,182.48 0 0 1 12.25,-32.61 h -5 a 177.8,177.8 0 0 0 -12.64,32.61" />
            <path
               id="path4267"
               d="m 539.26,202.14 h 12.22 a 192.77,192.77 0 0 1 11.28,-32.61 h -11.32 a 183,183 0 0 0 -12.18,32.61" />
            <path
               id="path4269"
               d="m 553.18,202.14 h 18.39 a 213.12,213.12 0 0 1 9.81,-32.61 h -17 a 193.3,193.3 0 0 0 -11.15,32.61"
               style="fill:#2c2c2c" />
            <path
               id="path4271"
               d="m 573.9,202.14 h 23.9 a 251.42,251.42 0 0 1 7.89,-32.61 h -22.15 a 213.93,213.93 0 0 0 -9.64,32.61"
               style="fill:#525252" />
            <path
               id="path4273"
               d="m 600.69,202.14 h 28.75 c 1.4,-11.36 3.27,-22.27 5.57,-32.61 h -26.64 a 259.87,259.87 0 0 0 -7.68,32.61" />
            <path
               id="path4275"
               d="m 632.84,202.14 h 32.94 c 0.73,-11.36 1.71,-22.27 2.91,-32.61 h -30.53 c -2.2,10.34 -4,21.25 -5.32,32.61"
               style="fill:#f6f6f6" />
            <path
               id="path4277"
               d="m 669.59,202.14 h 34.78 c 0,-11.36 0,-22.27 0.08,-32.61 h -32.23 c -1.08,10.34 -2,21.25 -2.63,32.61"
               style="fill:#ababab" />
            <path
               id="path4279"
               d="m 708.13,202.14 h 33.65 c -0.67,-11.36 -1.56,-22.27 -2.66,-32.61 h -31.18 c 0.08,10.34 0.14,21.25 0.19,32.61"
               style="fill:#f6f6f6" />
            <path
               id="path4281"
               d="m 745.38,202.14 h 31.49 c -1.31,-11.36 -3.07,-22.27 -5.23,-32.61 h -29.18 c 1.2,10.34 2.19,21.25 2.92,32.61"
               style="fill:#9b9b9b" />
            <path
               id="path4283"
               d="m 780.18,202.14 h 28.35 A 261.67,261.67 0 0 0 801,169.53 h -26.29 c 2.26,10.34 4.1,21.25 5.47,32.61"
               style="fill:#f5f5f5" />
            <path
               id="path4285"
               d="m 811.43,202.14 h 24.18 a 216,216 0 0 0 -9.53,-32.61 h -22.41 a 258.13,258.13 0 0 1 7.76,32.61"
               style="fill:#cccccc" />
            <path
               id="path4287"
               d="m 838,202.14 h 19 a 194.06,194.06 0 0 0 -11.1,-32.61 h -17.61 a 214.06,214.06 0 0 1 9.71,32.61"
               style="fill:#828282" />
            <path
               id="path4289"
               d="m 858.77,202.14 h 12.83 a 183,183 0 0 0 -12.17,-32.61 h -11.89 a 192.63,192.63 0 0 1 11.23,32.61"
               style="fill:#7f7f7f" />
            <path
               id="path4291"
               d="m 872.63,202.14 h 2 a 181.41,181.41 0 0 0 -12.39,-32.61 h -1.84 a 182.48,182.48 0 0 1 12.25,32.61"
               style="fill:#7f7f7f" />
            <path
               id="path4293"
               d="M 560.58,144.49 A 180.6,180.6 0 0 0 547,166.14 h 0.13 A 180.73,180.73 0 0 1 566.2,137.4 h -0.11 q -2.82,3.48 -5.48,7.09"
               style="fill:#d6d6d6" />
            <path
               id="path4295"
               d="m 547.28,166.14 h 5 a 181.52,181.52 0 0 1 18.46,-28.74 h -4.36 a 179.93,179.93 0 0 0 -19.05,28.74"
               style="fill:#d1d1d1" />
            <path
               id="path4297"
               d="m 553.13,166.14 h 11.2 a 183.57,183.57 0 0 1 17,-28.74 h -9.85 a 181.63,181.63 0 0 0 -18.35,28.74"
               style="fill:#2c2c2c" />
            <path
               id="path4299"
               d="m 565.89,166.14 h 16.85 A 191.49,191.49 0 0 1 597.53,137.4 H 582.7 a 183.42,183.42 0 0 0 -16.81,28.74" />
            <path
               id="path4301"
               d="m 584.88,166.14 h 21.9 A 211.76,211.76 0 0 1 618.67,137.4 H 599.4 a 192.31,192.31 0 0 0 -14.52,28.74"
               style="fill:#5a5a5a" />
            <path
               id="path4303"
               d="m 609.44,166.14 h 26.35 a 267.53,267.53 0 0 1 8.39,-28.74 H 621 a 216.38,216.38 0 0 0 -11.56,28.74"
               style="fill:#ababab" />
            <path
               id="path4305"
               d="m 638.9,166.14 h 30.19 c 1.25,-10.2 2.72,-19.82 4.38,-28.74 h -26.55 a 278.29,278.29 0 0 0 -8,28.74"
               style="fill:#b4b4b4" />
            <path
               id="path4307"
               d="m 672.59,166.14 h 31.87 c 0,-10.2 0.08,-19.82 0.12,-28.74 h -28 c -1.5,8.92 -2.83,18.54 -4,28.74"
               style="fill:#adadad" />
            <path
               id="path4309"
               d="m 707.91,166.14 h 30.84 c -1.15,-10.2 -2.49,-19.82 -4,-28.74 h -27.13 c 0.11,8.92 0.21,18.54 0.29,28.74"
               style="fill:#f6f6f6" />
            <path
               id="path4311"
               d="m 742.05,166.14 h 28.86 A 281.37,281.37 0 0 0 763,137.4 h -25.35 c 1.67,8.92 3.14,18.54 4.4,28.74"
               style="fill:#f5f5f5" />
            <path
               id="path4313"
               d="m 774,166.14 h 26 A 217.42,217.42 0 0 0 788.63,137.4 H 765.7 a 272.62,272.62 0 0 1 8.3,28.74"
               style="fill:#cccccc" />
            <path
               id="path4315"
               d="m 802.58,166.14 h 22.17 A 192.66,192.66 0 0 0 810.39,137.4 h -19.5 a 212.65,212.65 0 0 1 11.69,28.74"
               style="fill:#f6f6f6" />
            <path
               id="path4317"
               d="m 826.94,166.14 h 17.43 A 185.4,185.4 0 0 0 827.64,137.4 h -15.33 a 191.79,191.79 0 0 1 14.63,28.74"
               style="fill:#f6f6f6" />
            <path
               id="path4319"
               d="m 846,166.14 h 11.76 A 182.29,182.29 0 0 0 839.4,137.4 H 829.06 A 184,184 0 0 1 846,166.14"
               style="fill:#7f7f7f" />
            <path
               id="path4321"
               d="m 858.68,166.14 h 1.81 A 180.51,180.51 0 0 0 841.83,137.4 h -1.6 a 180.76,180.76 0 0 1 18.45,28.74"
               style="fill:#7f7f7f" />
            <path
               id="path4323"
               d="m 578.53,123.58 q -5.25,5.25 -10.06,10.92 h 0.11 a 180.44,180.44 0 0 1 24.6,-24 h -0.09 a 180.35,180.35 0 0 0 -14.56,13.06"
               style="fill:#d8d8d8" />
            <path
               id="path4325"
               d="M 568.74,134.5 H 573 a 176.85,176.85 0 0 1 23.8,-24 h -3.51 a 179.64,179.64 0 0 0 -24.57,24"
               style="fill:#d5d5d5" />
            <path
               id="path4327"
               d="m 573.79,134.5 h 9.69 a 170.92,170.92 0 0 1 21.92,-24 h -7.94 a 177.08,177.08 0 0 0 -23.67,24"
               style="fill:#5a5a5a" />
            <path
               id="path4329"
               d="m 584.82,134.5 h 14.57 a 164.28,164.28 0 0 1 19.07,-24 h -12 a 170.56,170.56 0 0 0 -21.68,24"
               style="fill:#2c2c2c" />
            <path
               id="path4331"
               d="m 601.24,134.5 h 18.93 a 164.27,164.27 0 0 1 15.33,-24 H 620 a 163.75,163.75 0 0 0 -18.73,24"
               style="fill:#c3c3c3" />
            <path
               id="path4333"
               d="m 622.46,134.5 h 22.78 a 183.66,183.66 0 0 1 10.83,-24 h -18.69 a 165.31,165.31 0 0 0 -14.92,24"
               style="fill:#525252" />
            <path
               id="path4335"
               d="M 647.93,134.5 H 674 c 1.7,-8.76 3.6,-16.79 5.65,-24 h -21.38 a 188,188 0 0 0 -10.34,24"
               style="fill:#b6b6b6" />
            <path
               id="path4337"
               d="m 677.05,134.5 h 27.55 c 0,-8.76 0.1,-16.79 0.16,-24 h -22.6 c -1.86,7.19 -3.57,15.22 -5.11,24"
               style="fill:#f6f6f6" />
            <path
               id="path4339"
               d="m 707.58,134.5 h 26.66 c -1.56,-8.76 -3.29,-16.79 -5.17,-24 H 707.2 c 0.14,7.19 0.27,15.22 0.38,24"
               style="fill:#cccccc" />
            <path
               id="path4341"
               d="M 737.09,134.5 H 762 a 189.57,189.57 0 0 0 -10.17,-24 h -20.42 c 2.06,7.19 4,15.22 5.68,24"
               style="fill:#a0a0a0" />
            <path
               id="path4343"
               d="m 764.66,134.5 h 22.46 a 165.3,165.3 0 0 0 -14.67,-24 H 754 a 185,185 0 0 1 10.64,24"
               style="fill:#f6f6f6" />
            <path
               id="path4345"
               d="m 789.41,134.5 h 19.17 a 164.73,164.73 0 0 0 -18.53,-24 h -15.72 a 164.17,164.17 0 0 1 15.08,24"
               style="fill:#909090" />
            <path
               id="path4347"
               d="m 810.46,134.5 h 15.07 a 169.91,169.91 0 0 0 -21.58,-24 H 791.6 a 163.78,163.78 0 0 1 18.86,24"
               style="fill:#858585" />
            <path
               id="path4349"
               d="m 826.92,134.5 h 10.16 a 176.35,176.35 0 0 0 -23.65,-24 h -8.33 a 170.87,170.87 0 0 1 21.82,24"
               style="fill:#ececec" />
            <path
               id="path4351"
               d="m 837.9,134.5 h 1.57 a 178.31,178.31 0 0 0 -24.08,-24 h -1.29 a 177.43,177.43 0 0 1 23.8,24"
               style="fill:#7f7f7f" />
            <path
               id="path4353"
               d="m 623,91 a 179.53,179.53 0 0 0 -23.52,14.59 q -1.71,1.26 -3.39,2.55 h 0.09 A 179.74,179.74 0 0 1 625.42,89.8 h -0.06 c -0.79,0.39 -1.58,0.79 -2.36,1.2"
               style="fill:#dadada" />
            <path
               id="path4355"
               d="m 596.27,108.18 h 3.42 A 172.36,172.36 0 0 1 628,89.84 h -2.51 a 179.47,179.47 0 0 0 -29.21,18.34"
               style="fill:#d6d6d6" />
            <path
               id="path4357"
               d="M 600.31,108.18 H 608 a 158.57,158.57 0 0 1 26.07,-18.34 h -5.67 a 171.75,171.75 0 0 0 -28.13,18.34"
               style="fill:#d1d1d1" />
            <path
               id="path4359"
               d="m 609.12,108.18 h 11.63 a 139.37,139.37 0 0 1 22.67,-18.34 h -8.53 a 156.63,156.63 0 0 0 -25.77,18.34" />
            <path
               id="path4361"
               d="m 622.23,108.18 h 15.12 A 121.16,121.16 0 0 1 655.57,89.84 H 644.5 a 137.08,137.08 0 0 0 -22.27,18.34"
               style="fill:#2c2c2c" />
            <path
               id="path4363"
               d="m 639.18,108.18 h 18.19 a 111.56,111.56 0 0 1 12.87,-18.34 h -13.32 a 119.15,119.15 0 0 0 -17.74,18.34"
               style="fill:#bfbfbf" />
            <path
               id="path4365"
               d="m 659.52,108.18 h 20.84 a 140.63,140.63 0 0 1 6.72,-18.34 h -15.27 a 111.44,111.44 0 0 0 -12.29,18.34"
               style="fill:#b8b8b8" />
            <path
               id="path4367"
               d="m 682.78,108.18 h 22 c 0.05,-7 0.12,-13.16 0.18,-18.34 h -16.11 a 149.18,149.18 0 0 0 -6.07,18.34"
               style="fill:#ababab" />
            <path
               id="path4369"
               d="m 707.16,108.18 h 21.28 A 148.52,148.52 0 0 0 722.3,89.84 h -15.59 c 0.16,5.18 0.31,11.33 0.45,18.34"
               style="fill:#f6f6f6" />
            <path
               id="path4371"
               d="m 730.72,108.18 h 19.93 A 111.66,111.66 0 0 0 738.56,89.84 H 724 a 140.42,140.42 0 0 1 6.75,18.34"
               style="fill:#cccccc" />
            <path
               id="path4373"
               d="m 752.74,108.18 h 17.94 A 118.58,118.58 0 0 0 753.24,89.84 H 740.1 a 111,111 0 0 1 12.64,18.34"
               style="fill:#9b9b9b" />
            <path
               id="path4375"
               d="m 772.51,108.18 h 15.31 a 136.77,136.77 0 0 0 -22,-18.34 h -11.24 a 120.12,120.12 0 0 1 17.93,18.34"
               style="fill:#f6f6f6" />
            <path
               id="path4377"
               d="m 789.32,108.18 h 12 A 155.61,155.61 0 0 0 775.68,89.84 h -8.78 a 138.09,138.09 0 0 1 22.42,18.34"
               style="fill:#888888" />
            <path
               id="path4379"
               d="m 802.47,108.18 h 8.11 A 171.15,171.15 0 0 0 782.47,89.84 h -6 a 157.62,157.62 0 0 1 26,18.34"
               style="fill:#7f7f7f" />
            <path
               id="path4381"
               d="m 811.23,108.18 h 1.26 A 175.22,175.22 0 0 0 783.86,89.84 H 783 a 172.61,172.61 0 0 1 28.28,18.34"
               style="fill:#7f7f7f" />
            <path
               id="path4383"
               d="m 628.76,88.17 h 0.06 a 178.86,178.86 0 0 1 33,-11.82 v 0 l -13.06,3.8 a 177,177 0 0 0 -20,8"
               style="fill:#dcdcdc" />
            <path
               id="path4385"
               d="m 628.91,88.17 h 2.39 a 169.71,169.71 0 0 1 31.94,-11.82 h -1.37 a 178.73,178.73 0 0 0 -33,11.82"
               style="fill:#d7d7d7" />
            <path
               id="path4387"
               d="m 631.74,88.17 h 5.42 a 148.48,148.48 0 0 1 29.41,-11.82 h -3.08 a 167.66,167.66 0 0 0 -31.75,11.82"
               style="fill:#d2d2d2" />
            <path
               id="path4389"
               d="m 637.91,88.17 h 8.16 A 120.12,120.12 0 0 1 671.65,76.35 H 667 a 146,146 0 0 0 -29.09,11.82"
               style="fill:#cccccc" />
            <path
               id="path4391"
               d="m 647.11,88.17 h 10.6 a 89.13,89.13 0 0 1 20.56,-11.82 h -6 a 117,117 0 0 0 -25.13,11.82"
               style="fill:#c8c8c8" />
            <path
               id="path4393"
               d="m 659,88.17 h 12.76 A 62.06,62.06 0 0 1 686.28,76.35 H 679 a 86.11,86.11 0 0 0 -20,11.82"
               style="fill:#5a5a5a" />
            <path
               id="path4395"
               d="m 673.25,88.17 h 14.62 a 49.8,49.8 0 0 1 7.58,-11.82 h -8.32 a 59.94,59.94 0 0 0 -13.88,11.82"
               style="fill:#5a5a5a" />
            <path
               id="path4397"
               d="M 689.56,88.17 H 705 c 0.06,-5 0.13,-8.94 0.21,-11.82 h -8.79 a 51,51 0 0 0 -6.85,11.82"
               style="fill:#eeeeee" />
            <path
               id="path4399"
               d="m 706.66,88.17 h 14.92 a 50.55,50.55 0 0 0 -6.93,-11.82 h -8.5 c 0.18,2.88 0.35,6.86 0.51,11.82"
               style="fill:#cccccc" />
            <path
               id="path4401"
               d="m 723.18,88.17 h 14 A 59,59 0 0 0 723.54,76.35 h -8 a 49.81,49.81 0 0 1 7.62,11.82"
               style="fill:#a3a3a3" />
            <path
               id="path4403"
               d="M 738.62,88.17 H 751.2 A 84.6,84.6 0 0 0 731.51,76.35 h -7.16 a 61.26,61.26 0 0 1 14.27,11.82"
               style="fill:#9b9b9b" />
            <path
               id="path4405"
               d="m 752.48,88.17 h 10.73 A 115.12,115.12 0 0 0 738.36,76.35 h -6.11 a 87.56,87.56 0 0 1 20.23,11.82"
               style="fill:#f6f6f6" />
            <path
               id="path4407"
               d="m 764.27,88.17 h 8.43 A 144.67,144.67 0 0 0 743.76,76.35 H 739 a 118.31,118.31 0 0 1 25.31,11.82"
               style="fill:#8a8a8a" />
            <path
               id="path4409"
               d="m 773.48,88.17 h 5.69 A 167.64,167.64 0 0 0 747.45,76.35 h -3.24 a 147.27,147.27 0 0 1 29.27,11.82"
               style="fill:#7f7f7f" />
            <path
               id="path4411"
               d="m 779.63,88.17 h 0.88 a 172.88,172.88 0 0 0 -32.3,-11.82 h -0.5 a 169.52,169.52 0 0 1 31.92,11.82"
               style="fill:#7f7f7f" />
            <path
               id="path4413"
               d="M 665.61,75.45 A 179.6,179.6 0 0 1 701.49,71 v 0 c -7.56,0.47 -17.63,1.31 -25.13,2.31 l -10.78,2.1 v 0"
               style="fill:#dddddd" />
            <path
               id="path4415"
               d="m 665.66,75.45 h 1.24 A 168.43,168.43 0 0 1 701.62,71 h -0.13 a 179.1,179.1 0 0 0 -35.83,4.41"
               style="fill:#d8d8d8" />
            <path
               id="path4417"
               d="M 667.13,75.45 H 670 a 143.51,143.51 0 0 1 32,-4.41 h -0.28 a 166.41,166.41 0 0 0 -34.51,4.41"
               style="fill:#d4d4d4" />
            <path
               id="path4419"
               d="m 670.34,75.45 h 4.24 A 109.65,109.65 0 0 1 702.39,71 H 702 a 140.51,140.51 0 0 0 -31.62,4.41"
               style="fill:#cecece" />
            <path
               id="path4421"
               d="m 675.12,75.45 h 5.52 A 72.46,72.46 0 0 1 703,71 h -0.55 a 106,106 0 0 0 -27.32,4.41"
               style="fill:#c8c8c8" />
            <path
               id="path4423"
               d="m 681.3,75.45 h 6.64 A 38.37,38.37 0 0 1 703.72,71 h -0.66 a 68.9,68.9 0 0 0 -21.76,4.41"
               style="fill:#c1c1c1" />
            <path
               id="path4425"
               d="m 688.72,75.45 h 7.6 c 2.66,-2.63 5.42,-4.14 8.24,-4.41 h -0.76 a 35.41,35.41 0 0 0 -15.08,4.41"
               style="fill:#bababa" />
            <path
               id="path4427"
               d="m 697.2,75.45 h 8 c 0.08,-2.63 0.15,-4.14 0.23,-4.41 h -0.8 c -2.55,0.27 -5,1.78 -7.45,4.41"
               style="fill:#b4b4b4" />
            <path
               id="path4429"
               d="m 706.09,75.45 h 7.76 c -2.43,-2.63 -5,-4.14 -7.53,-4.41 h -0.78 a 18.48,18.48 0 0 1 0.55,4.41"
               style="fill:#ababab" />
            <path
               id="path4431"
               d="M 714.68,75.45 H 722 A 34.38,34.38 0 0 0 707.13,71 h -0.73 c 2.84,0.27 5.61,1.78 8.28,4.41"
               style="fill:#a2a2a2" />
            <path
               id="path4433"
               d="m 722.71,75.45 h 6.54 A 66.69,66.69 0 0 0 707.86,71 h -0.66 a 37.2,37.2 0 0 1 15.51,4.41"
               style="fill:#9b9b9b" />
            <path
               id="path4435"
               d="m 729.92,75.45 h 5.58 a 103.72,103.72 0 0 0 -27,-4.41 h -0.55 a 70.24,70.24 0 0 1 22,4.41"
               style="fill:#959595" />
            <path
               id="path4437"
               d="m 736.05,75.45 h 4.39 A 139.11,139.11 0 0 0 709,71 h -0.44 a 107.35,107.35 0 0 1 27.51,4.41"
               style="fill:#8a8a8a" />
            <path
               id="path4439"
               d="m 740.85,75.45 h 2.95 A 166.21,166.21 0 0 0 709.32,71 H 709 a 142.36,142.36 0 0 1 31.83,4.41"
               style="fill:#7f7f7f" />
            <path
               id="path4441"
               d="m 744,75.45 h 0.46 A 172.21,172.21 0 0 0 709.38,71 v 0 A 168.23,168.23 0 0 1 744,75.45"
               style="fill:#7f7f7f" />
          </g>
        </g>
        <polygon
           id="polygon4447"
           points="762.09,139.09 743.61,119.58 763.12,138.06 782.63,119.58 764.15,139.09 782.63,158.6 763.12,140.13 743.61,158.6 "
           style="fill:#ffffff"
           transform="translate(856.60935,1721.2999)" />
        <polygon
           id="polygon4449"
           points="762.6,138.57 763.12,119.58 763.64,138.57 782.63,139.09 763.64,139.61 763.12,158.6 762.6,139.61 743.61,139.09 "
           style="fill:#ffffff"
           transform="translate(856.60935,1721.2999)" />
        <polygon
           id="polygon4451"
           points="810.7,358.24 800.07,347.02 811.3,357.65 822.52,347.02 811.89,358.24 822.52,369.47 811.3,358.84 800.07,369.47 "
           style="fill:#ffffff"
           transform="translate(856.60935,1721.2999)" />
        <polygon
           id="polygon4453"
           points="811,357.95 811.3,347.02 811.6,357.95 822.52,358.24 811.6,358.54 811.3,369.47 811,358.54 800.07,358.24 "
           style="fill:#ffffff"
           transform="translate(856.60935,1721.2999)" />
        <polygon
           id="polygon4455"
           points="665.55,323.74 639.24,295.95 667.03,322.26 694.82,295.95 668.5,323.74 694.82,351.53 667.03,325.21 639.24,351.53 "
           style="fill:#ffffff"
           transform="translate(856.60935,1721.2999)" />
        <polygon
           id="polygon4457"
           points="666.29,323 667.03,295.95 667.77,323 694.82,323.74 667.77,324.48 667.03,351.53 666.29,324.48 639.24,323.74 "
           style="fill:#ffffff"
           transform="translate(856.60935,1721.2999)" />
        <polygon
           id="polygon4459"
           points="583.4,166.88 570.14,152.88 584.14,166.14 598.15,152.88 584.88,166.88 598.15,180.88 584.14,167.62 570.14,180.88 "
           style="fill:#ffffff"
           transform="translate(856.60935,1721.2999)" />
        <polygon
           id="polygon4461"
           points="583.77,166.51 584.14,152.88 584.51,166.51 598.15,166.88 584.51,167.25 584.14,180.88 583.77,167.25 570.14,166.88 "
           style="fill:#ffffff"
           transform="translate(856.60935,1721.2999)" />
      </g>
    </g>
  </g>
</svg>
