<?xml version="1.0" encoding="UTF-8" standalone="no"?>
<svg
   xmlns:dc="http://purl.org/dc/elements/1.1/"
   xmlns:cc="http://creativecommons.org/ns#"
   xmlns:rdf="http://www.w3.org/1999/02/22-rdf-syntax-ns#"
   xmlns:svg="http://www.w3.org/2000/svg"
   xmlns="http://www.w3.org/2000/svg"
   height="200"
   width="200"
   version="1.1"
   viewBox="0 0 200 200"
   data-name="Layer 1"
   id="Layer_1">
  <metadata
     id="metadata933">
    <rdf:RDF>
      <cc:Work
         rdf:about="">
        <dc:format>image/svg+xml</dc:format>
        <dc:type
           rdf:resource="http://purl.org/dc/dcmitype/StillImage" />
        <dc:title>blook_goldfish</dc:title>
      </cc:Work>
    </rdf:RDF>
  </metadata>
  <defs
     id="defs892">
    <style
       id="style875">.cls-1{fill-opacity:0.8;fill:url(#linear-gradient);}.cls-2{fill:#61cbed;}.cls-3{fill:#0fafd2;}.cls-4{fill-opacity:0.9;fill:url(#linear-gradient-2);}.cls-5{fill:#04859b;opacity:0.5;}.cls-6{fill:none;stroke:#8e281d;stroke-miterlimit:10;stroke-width:12px;}.cls-7{fill:#f18221;}.cls-8{fill:#d25927;}.cls-9{fill:url(#linear-gradient-3);}.cls-10{fill:#fff;}.cls-11{fill:#414042;}</style>
    <linearGradient
       gradientUnits="userSpaceOnUse"
       y2="697.94"
       x2="152.55"
       y1="-64.900002"
       x1="151.48"
       id="linear-gradient">
      <stop
         id="stop877"
         stop-color="#c7eaf7"
         offset="0.19" />
      <stop
         id="stop879"
         stop-color="#0fafd2"
         offset="0.63" />
    </linearGradient>
    <linearGradient
       gradientTransform="translate(323.65099,-32.450495)"
       gradientUnits="userSpaceOnUse"
       y2="231.31"
       x2="151.81"
       y1="419.73999"
       x1="151.81"
       id="linear-gradient-2">
      <stop
         id="stop882"
         stop-color="#61cbed"
         offset="0" />
      <stop
         id="stop884"
         stop-color="#0fafd2"
         offset="0.7" />
    </linearGradient>
    <linearGradient
       gradientUnits="userSpaceOnUse"
       gradientTransform="matrix(-0.86147215,0,0,0.86147215,236.04619,-75.391415)"
       y2="211.82001"
       x2="230.22"
       y1="211.82001"
       x1="23.950001"
       id="linear-gradient-3">
      <stop
         id="stop887"
         stop-color="#f18221"
         offset="0.19" />
      <stop
         id="stop889"
         stop-color="#d25927"
         offset="0.85" />
    </linearGradient>
  </defs>
  <title
     id="title894">blook_goldfish</title>
  <g
     id="g973">
    <path
       class="cls-6"
       d="m 18.636466,128.20029 c 26.033688,15.64433 39.825857,5.71156 46.777937,-5.16883 v 6.89178 a 28.31659,28.31659 0 0 0 28.307975,28.31658 h 2.145068 a 114.99792,114.99792 0 0 0 2.472429,13.8697 c 22.079525,0 34.777625,-6.31459 42.082915,-13.8697 h 17.89277 a 28.31659,28.31659 0 0 0 28.30798,-28.31658 v -9.07131 c 2.11921,1.16299 4.52273,1.47312 6.69364,-0.69779 3.78186,-3.78186 0.11198,-8.33905 -2.53273,-10.82009 2.68779,-2.43797 6.40074,-6.93485 2.58441,-10.708094 -2.18814,-2.179529 -4.63472,-1.878008 -6.78839,-0.723637 V 84.204905 A 28.307974,28.307974 0 0 0 158.27249,55.896931 h -6.79701 c -0.0689,-0.232598 -0.14646,-0.465197 -0.21537,-0.697786 a 1.9383124,1.9383124 0 0 1 -0.0689,-0.206757 c -0.15506,-0.456577 -0.31874,-0.921773 -0.49103,-1.38697 l -0.0861,-0.215368 c -0.18092,-0.473807 -0.37043,-0.956234 -0.5858,-1.438662 0,-0.05166 0,-0.111984 -0.0689,-0.163676 C 145.1093,40.786714 132.72994,27.890478 101.14837,27.890478 a 110.37181,110.37181 0 0 0 -3.066842,22.39827 v 0 c 0,1.516195 0,3.03238 0.0862,4.522733 0,0.0775 0,0.146446 0,0.223979 0,0.30152 0.04305,0.603032 0.06027,0.861471 H 93.670827 A 28.307974,28.307974 0 0 0 65.362846,84.204905 v 1.912469 C 58.410766,75.2456 44.618597,65.304211 18.584909,80.948546 c 0,0 3.023767,15.377277 13.90416,23.621564 -10.828705,8.24429 -13.852472,23.63018 -13.852472,23.63018 z M 186.62354,109.48912 v -0.28429 l 0.14645,0.13783 z"
       id="path906"
       style="fill:none;stroke:#8e281d;stroke-width:10.33766556px;stroke-miterlimit:10" />
    <path
       class="cls-7"
       d="M 32.540626,104.57872 C 21.660233,96.334433 18.636466,80.957157 18.636466,80.957157 62.967822,54.303213 71.815144,101.86508 71.815144,101.86508 c -1.722944,1.01655 -3.445891,1.91247 -5.031,2.71364 1.628182,0.80117 3.299441,1.72295 5.031,2.70503 0,0 -8.847322,47.57049 -53.178678,20.91654 0,0 3.023767,-15.38589 13.90416,-23.62157 z"
       id="path908"
       style="fill:#f18221;stroke-width:0.86147213" />
    <path
       class="cls-7"
       d="m 150.18327,132.92116 c 0,0 3.19606,39.23144 -51.843395,39.23144 0,0 -6.891779,-26.80902 0,-39.23144 z"
       id="path910"
       style="fill:#f18221;stroke-width:0.86147213" />
    <path
       class="cls-8"
       d="M 136.58062,161.70295 H 96.324023 c -1.318048,-8.89902 -2.101987,-21.38175 2.015852,-28.78179 h 51.843395 a 35.320358,35.320358 0 0 1 -13.60265,28.78179 z"
       id="path912"
       style="fill:#d25927;stroke-width:0.86147213" />
    <path
       class="cls-7"
       d="m 153.03474,67.130527 c 0,0 3.19606,-39.240049 -51.84339,-39.240049 0,0 -6.891781,26.80901 0,39.240049 z"
       id="path914"
       style="fill:#f18221;stroke-width:0.86147213" />
    <path
       class="cls-8"
       d="m 149.27872,50.254287 a 35.139448,35.139448 0 0 1 3.75602,16.87624 h -51.84339 c -2.463821,-4.42796 -3.170226,-10.665025 -3.066843,-16.87624 z"
       id="path916"
       style="fill:#d25927;stroke-width:0.86147213" />
    <path
       class="cls-7"
       d="m 180.77415,103.35544 c 0,0 7.14159,-10.217063 12.63779,-4.729484 3.77325,3.781854 0.0603,8.270124 -2.58442,10.708094 2.64472,2.48104 6.31459,7.03823 2.53273,10.82009 -5.48758,5.48758 -12.49996,-4.8587 -12.49996,-4.8587 l 5.95277,-5.95278 z"
       id="path918"
       style="fill:#f18221;stroke-width:0.86147213" />
    <rect
       class="cls-9"
       x="65.414406"
       y="55.896938"
       width="121.20912"
       height="102.38596"
       rx="28.307974"
       id="rect920"
       style="fill:url(#linear-gradient-3);stroke-width:0.86147213" />
    <rect
       class="cls-7"
       x="70.798607"
       y="60.445507"
       width="110.44072"
       height="81.305733"
       rx="25.792477"
       id="rect922"
       style="fill:#f18221;stroke-width:0.86147213" />
    <circle
       class="cls-8"
       cx="142.72292"
       cy="98.289986"
       r="26.834858"
       id="circle924"
       style="fill:#d25927;stroke-width:0.86147213" />
    <circle
       class="cls-10"
       cx="142.72292"
       cy="105.74171"
       r="26.834858"
       id="circle926"
       style="fill:#ffffff;stroke-width:0.86147213" />
    <path
       class="cls-11"
       d="m 132.72123,105.37989 a 16.884854,16.884854 0 1 0 16.88485,-16.884851 16.445504,16.445504 0 0 0 -2.44658,0.180907 9.6312582,9.6312582 0 0 1 1.60234,5.341133 9.7260206,9.7260206 0 0 1 -15.64434,7.753251 16.772862,16.772862 0 0 0 -0.39627,3.60956 z m 20.09814,7.02961 a 4.0144602,4.0144602 0 1 1 4.01446,4.01447 4.0144602,4.0144602 0 0 1 -4.01446,-4.01447 z"
       id="path928"
       style="fill:#414042;stroke-width:0.86147213" />
  </g>
</svg>
