<?xml version="1.0" encoding="UTF-8" standalone="no"?>
<svg
   xmlns:dc="http://purl.org/dc/elements/1.1/"
   xmlns:cc="http://creativecommons.org/ns#"
   xmlns:rdf="http://www.w3.org/1999/02/22-rdf-syntax-ns#"
   xmlns:svg="http://www.w3.org/2000/svg"
   xmlns="http://www.w3.org/2000/svg"
   xmlns:sodipodi="http://sodipodi.sourceforge.net/DTD/sodipodi-0.dtd"
   xmlns:inkscape="http://www.inkscape.org/namespaces/inkscape"
   id="Layer_1"
   enable-background="new 0 0 512 512"
   height="50"
   viewBox="0 0 50 50"
   width="50"
   version="1.1"
   sodipodi:docname="heart.svg"
   inkscape:version="0.92.4 (5da689c313, 2019-01-14)">
  <metadata
     id="metadata3908">
    <rdf:RDF>
      <cc:Work
         rdf:about="">
        <dc:format>image/svg+xml</dc:format>
        <dc:type
           rdf:resource="http://purl.org/dc/dcmitype/StillImage" />
        <dc:title></dc:title>
      </cc:Work>
    </rdf:RDF>
  </metadata>
  <defs
     id="defs3906" />
  <sodipodi:namedview
     pagecolor="#ffffff"
     bordercolor="#666666"
     borderopacity="1"
     objecttolerance="10"
     gridtolerance="10"
     guidetolerance="10"
     inkscape:pageopacity="0"
     inkscape:pageshadow="2"
     inkscape:window-width="1920"
     inkscape:window-height="1001"
     id="namedview3904"
     showgrid="false"
     inkscape:zoom="10.429825"
     inkscape:cx="20.732271"
     inkscape:cy="33.911447"
     inkscape:window-x="-9"
     inkscape:window-y="-9"
     inkscape:window-maximized="1"
     inkscape:current-layer="g5106" />
  <g
     id="g3901"
     transform="matrix(1,0,0,1.1112288,452.54834,-126.04837)"
     style="fill:#f0f0f0;fill-opacity:0.39215686">
    <path
       d="m 454.566,155.713 c -3.546,-8.734 -13.502,-12.938 -22.233,-9.393 -8.733,3.546 -12.939,13.501 -9.393,22.233 19.939,49.113 -47.07,111.756 -89.164,144.288 -12.849,9.93 -5.78,30.571 10.448,30.571 3.645,0 7.318,-1.163 10.424,-3.564 58.247,-45.016 127.5,-116.205 99.918,-184.135 z"
       id="path3897"
       inkscape:connector-curvature="0"
       style="fill:#f0f0f0;fill-opacity:0.39215686" />
    <path
       d="m 388.266,138.151 c 6.602,1.705 7.769,3.367 12.795,3.367 6.741,0 13.128,-4.021 15.819,-10.652 3.545,-8.734 -0.661,-18.688 -9.394,-22.233 -3.469,-1.408 -7.064,-2.596 -10.685,-3.531 -9.126,-2.358 -18.435,3.131 -20.792,12.257 -2.357,9.126 3.131,18.435 12.257,20.792 z"
       id="path3899"
       inkscape:connector-curvature="0"
       style="fill:#f0f0f0;fill-opacity:0.39215686" />
  </g>
  <g
     id="g5106"
     transform="matrix(0.09765625,0,0,0.09765625,0,-2.3305113)">
    <g
       id="g5111"
       transform="matrix(1,0,0,-1,0,531.30851)">
      <path
         d="m 512,204.00414 c 0,170.68476 -256,303.43993 -256,303.43993 0,0 -144,-74.67458 -216,-184.0195 C 16,286.97626 0,246.67533 0,204.00414 0,152.31312 23.264,106.66605 58.795,79.262042 124.364,28.703353 216.373,51.119061 256,130.51525 310.107,22.107098 452.144,27.71547 499.243,139.89069 499.709,140.40963 512,168.38926 512,204.00414 Z"
         id="path3893"
         inkscape:connector-curvature="0"
         style="fill:#a22127;fill-opacity:1;stroke-width:1.05414844" />
      <path
         d="m 501.333,165.28004 c 0,78.23051 -58.667,147.7701 -117.333,197.75095 -69.157,58.91958 -164.981,59.24628 -234.191,0.40338 C 92.702,314.88145 32,244.83291 32,165.28004 32,132.80216 42.016,102.93233 58.795,79.262042 124.364,28.703353 216.373,51.119061 256,130.51525 310.012,22.298229 452.067,27.532118 499.243,139.89069 c 0.102,0.11334 2.09,11.63234 2.09,25.38935 z"
         id="path3895"
         inkscape:connector-curvature="0"
         style="fill:#c62127;fill-opacity:1;stroke-width:1.05414844" />
      <path
         inkscape:connector-curvature="0"
         style="fill:#ed7161;stroke-width:12.57519627"
         d="m 345.80767,99.184066 c 0,-6.95408 5.62111,-12.5752 12.5752,-12.5752 69.33963,0 111.73203,41.614084 111.73203,110.953714 0,6.95408 -5.62112,12.5752 -12.5752,12.5752 -6.95408,0 -12.57519,-5.62112 -12.57519,-12.5752 0,-55.46919 -31.11246,-85.80332 -86.58164,-85.80332 -6.95409,0 -12.5752,-5.62111 -12.5752,-12.575194 z"
         id="path4496"
         sodipodi:nodetypes="sssssss" />
    </g>
  </g>
</svg>
