<?xml version="1.0" encoding="UTF-8" standalone="no"?>
<svg
   xmlns:dc="http://purl.org/dc/elements/1.1/"
   xmlns:cc="http://creativecommons.org/ns#"
   xmlns:rdf="http://www.w3.org/1999/02/22-rdf-syntax-ns#"
   xmlns:svg="http://www.w3.org/2000/svg"
   xmlns="http://www.w3.org/2000/svg"
   id="svg8979"
   version="1.1"
   viewBox="0 0 13.229166 13.229167"
   height="50"
   width="50">
  <defs
     id="defs8973" />
  <metadata
     id="metadata8976">
    <rdf:RDF>
      <cc:Work
         rdf:about="">
        <dc:format>image/svg+xml</dc:format>
        <dc:type
           rdf:resource="http://purl.org/dc/dcmitype/StillImage" />
        <dc:title></dc:title>
      </cc:Work>
    </rdf:RDF>
  </metadata>
  <g
     transform="translate(0,-283.77081)"
     id="layer1">
    <g
       transform="matrix(1.930263,0,0,1.4503263,-696.29033,-379.14362)"
       id="g8773">
      <g
         id="use8771"
         transform="matrix(0.26458333,0,0,0.26458333,0,283.77081)">
        <path
           d="m 1374.55,685.95 -0.15,-2 v -0.15 l -0.5,-7.1 q -1.1,3 -1.9,7.7 l 2.55,1.55 M 1376.3,657 q -2.85,3 -3.1,9.5 h 6.2 q -0.25,-6.5 -3.1,-9.5 m 1.75,28.95 2.55,-1.55 q -0.8,-4.7 -1.9,-7.7 l -0.5,7.1 v 0.15 z"
           id="path9627"
           style="fill:#e74c3c;stroke:none" />
        <path
           d="m 1373.9,676.7 -2,-0.25 q -1.1,3.05 -1.85,7.65 -0.15,0.55 0.15,1.15 0.25,0.55 0.75,0.85 l 1.7,1.05 1.9,-1.2 -2.55,-1.55 q 0.8,-4.7 1.9,-7.7 m 6.85,-0.25 -2.05,0.25 q 1.1,3 1.9,7.7 l -2.55,1.55 1.95,1.2 1.65,-1.05 q 0.5,-0.3 0.8,-0.85 0.25,-0.6 0.15,-1.15 -0.8,-4.6 -1.85,-7.65 m -1.35,-9.95 h 2 v -0.05 q -0.3,-7.45 -3.65,-10.8 -0.4,-0.45 -0.9,-0.55 -0.55,-0.15 -1.05,0 -0.55,0.1 -0.95,0.55 -3.35,3.35 -3.65,10.8 v 0.05 h 2 q 0.25,-6.5 3.1,-9.5 2.85,3 3.1,9.5 z"
           id="path9629"
           style="fill:#af392d;stroke:none" />
        <path
           d="m 1371.2,666.5 q 0,0.05 0,0.15 l 0.7,9.8 2,0.25 -0.7,-10.2 h -2 m 6.75,23 q 0.8,0 1.4,-0.55 0.55,-0.55 0.6,-1.3 l 0.05,-0.5 -1.95,-1.2 -0.1,1.55 h -3.3 l -0.1,-1.55 -1.9,1.2 v 0.5 q 0.05,0.75 0.65,1.3 0.55,0.55 1.35,0.55 h 3.3 m 3.45,-23 h -2 l -0.7,10.2 2.05,-0.25 0.65,-9.8 q 0,-0.1 0,-0.15 z"
           id="path9631"
           style="fill:#809395;stroke:none" />
        <path
           d="m 1378.2,683.95 v -0.15 l 0.5,-7.1 0.7,-10.2 h -6.2 l 0.7,10.2 0.5,7.1 v 0.15 l 0.15,2 0.1,1.55 h 3.3 l 0.1,-1.55 z"
           id="path9633"
           style="fill:#bdd6db;stroke:none" />
      </g>
    </g>
  </g>
</svg>
