<?xml version="1.0" encoding="UTF-8" standalone="no"?>
<svg viewBox="0 0 300 345" version="1.1" id="svg1201" sodipodi:docname="partyPig2.svg" xml:space="preserve" inkscape:version="1.2 (dc2aedaf03, 2022-05-15)" xmlns:inkscape="http://www.inkscape.org/namespaces/inkscape" xmlns:sodipodi="http://sodipodi.sourceforge.net/DTD/sodipodi-0.dtd" xmlns="http://www.w3.org/2000/svg" xmlns:svg="http://www.w3.org/2000/svg"><sodipodi:namedview id="namedview1203" pagecolor="#505050" bordercolor="#ffffff" borderopacity="1" inkscape:showpageshadow="0" inkscape:pageopacity="0" inkscape:pagecheckerboard="1" inkscape:deskcolor="#505050" showgrid="false" inkscape:zoom="0.94353356" inkscape:cx="-7.9488428" inkscape:cy="172.75485" inkscape:window-width="1366" inkscape:window-height="705" inkscape:window-x="-8" inkscape:window-y="-8" inkscape:window-maximized="1" inkscape:current-layer="svg1201"/><defs id="defs1153"><linearGradient id="A" x1="150" y1="356.11" x2="150" y2="161.16" gradientUnits="userSpaceOnUse"><stop offset="0" stop-color="#f6a9cb" id="stop1148"/><stop offset=".69" stop-color="#ce5384" id="stop1150"/></linearGradient></defs><path d="M263.62,345H36.38A36.38,36.38,0,0,1,0,308.62V259.14H300v49.48A36.38,36.38,0,0,1,263.62,345Z" fill="url(#A)" id="path1155"/><rect y="45" width="300" height="253.39" rx="36.38" fill="#f6a9cb" id="rect1157"/><path d="M150 210c-37.32 0-69.1 58.36-57.34 70.12s104 10.7 114.67 0S187.3 210 150 210z" fill="#dd7399" id="path1159"/><path d="M191.8 256.16a14.27 14.27 0 1 1-24.16 15.19c-4.2-6.67.5-26 .5-26s19.46 4.13 23.65 10.8z" fill="#cc4d8c" id="path1161"/><path d="M188.94 263.56a14.11 14.11 0 0 1 2.12 8.84 14.25 14.25 0 0 0 .74-16.24c-4.2-6.68-23.65-10.8-23.65-10.8s-.8 3.34-1.46 7.72c4.53 1.1 18.74 4.92 22.25 10.48z" fill="#c62c6b" id="path1163"/><path d="M108.2 256.16a14.27 14.27 0 1 0 24.16 15.19c4.2-6.67-.5-26-.5-26s-19.46 4.13-23.65 10.8z" fill="#cc4d8c" id="path1165"/><path d="M111.06 263.56c3.5-5.6 17.72-9.4 22.25-10.48-.65-4.38-1.46-7.72-1.46-7.72s-19.46 4.12-23.65 10.8a14.25 14.25 0 0 0 .74 16.24 14.11 14.11 0 0 1 2.12-8.84z" fill="#c62c6b" id="path1167"/><ellipse cx="150.02" cy="120.82" rx="54.28" ry="41.02" transform="matrix(.99454 -.104355 .104355 .99454 -11.8 16.33)" fill="#f7c5dc" id="ellipse1183"/><path id="path1185" d="M 33.492188 15.660156 A 17.69 17.69 0 0 0 15.210938 30.640625 C 12.28094 49.780606 9.9093789 73.239854 13.859375 83.339844 L 13.859375 83.330078 A 35.761115 35.761115 0 1 0 80.460938 57.259766 C 76.520941 47.179776 58.860922 31.560222 43.710938 19.490234 A 17.69 17.69 0 0 0 33.492188 15.660156 z M 266.50781 15.660156 A 17.69 17.69 0 0 0 256.28906 19.490234 C 241.13908 31.560222 223.47906 47.179776 219.53906 57.259766 A 35.761115 35.761115 0 1 0 286.14062 83.330078 L 286.14062 83.339844 C 290.09062 73.239854 287.71906 49.780606 284.78906 30.640625 A 17.69 17.69 0 0 0 266.50781 15.660156 z " style="fill:#dd7399;fill-opacity:1"/><path id="path1187" style="fill:#c62c6b" d="M 264.21094 30.279297 L 264.19922 30.300781 A 34.49 34.49 0 0 1 264.21094 30.314453 C 264.2113 30.302427 264.21057 30.29133 264.21094 30.279297 z M 264.21094 30.314453 C 264.13167 32.930959 264.08984 35.391671 264.08984 37.810547 L 264.0332 42.824219 A 22.74 22.74 0 0 0 260.73047 43.589844 A 12.72 12.72 0 0 0 258.9707 44.240234 L 257.26953 44.970703 L 255.69922 45.849609 A 12.77 12.77 0 0 0 254.18945 46.789062 A 32.81 32.81 0 0 0 244.92969 56.390625 L 244.0293 57.720703 L 243.26953 59.119141 L 241.81055 61.900391 L 240.60938 64.769531 A 30 30 0 0 0 239.53906 67.640625 C 238.96906 69.600619 238.3107 71.500006 237.9707 73.5 L 237.08984 79.5 L 240.78906 74.820312 L 242.61914 72.560547 L 244.41992 70.330078 L 248.11914 66.150391 L 250.06055 64.25 L 251 63.25 L 252 62.400391 A 34.24 34.24 0 0 1 260.05078 56.75 C 260.68078 56.38 261.39078 56.210859 262.05078 55.880859 L 263.05078 55.580078 A 5.42 5.42 0 0 1 263.83594 55.369141 C 263.80244 56.568988 263.76285 57.767002 263.71094 58.960938 C 263.51094 63.560923 263.35977 68.19064 263.00977 72.890625 L 262.60938 80.089844 C 262.53938 82.549835 262.26945 84.989931 262.43945 87.669922 A 38.54 38.54 0 0 0 270.14062 74.380859 A 51.27 51.27 0 0 0 271.19922 44.019531 A 34.49 34.49 0 0 0 264.21094 30.314453 z M 35.800781 30.300781 L 35.800781 30.314453 A 34.49 34.49 0 0 1 35.810547 30.300781 L 35.800781 30.300781 z M 35.800781 30.314453 A 34.49 34.49 0 0 0 28.820312 44 A 51.27 51.27 0 0 0 29.869141 74.369141 A 38.54 38.54 0 0 0 37.570312 87.660156 C 37.740312 84.980162 37.400391 80.080078 37.400391 80.080078 L 37 72.880859 L 36.300781 58.949219 L 36.224609 55.451172 A 5.42 5.42 0 0 1 37 55.660156 L 38 55.960938 C 38.619998 56.290936 39.330002 56.470078 40 56.830078 A 34.24 34.24 0 0 1 48.080078 62.380859 L 49.080078 63.230469 L 50.019531 64.230469 L 51.919922 66.160156 L 55.619141 70.339844 L 57.419922 72.570312 C 58.01992 73.330312 58.690002 74.03008 59.25 74.830078 L 62.949219 79.509766 C 62.749219 77.50977 62.490312 75.469762 62.070312 73.509766 L 60.5 67.650391 A 30 30 0 0 0 59.429688 64.779297 L 58.230469 61.910156 L 56.769531 59.130859 L 56.009766 57.730469 L 55.150391 56.460938 A 32.81 32.81 0 0 0 45.890625 46.859375 A 12.77 12.77 0 0 0 44.380859 45.919922 C 43.860861 45.619922 43.370545 45.299062 42.810547 45.039062 L 41.109375 44.310547 A 12.72 12.72 0 0 0 39.349609 43.660156 A 22.74 22.74 0 0 0 35.978516 42.882812 L 35.929688 37.830078 L 35.800781 30.314453 z "/><path id="rect1000" style="display:inline;fill:#2f2f2f;fill-opacity:1;stroke:#474747;stroke-width:6.5511;stroke-linecap:round;stroke-linejoin:round;stroke-dasharray:none;stroke-opacity:1;paint-order:stroke fill markers;stop-color:#000000" class="UnoptimicedTransforms" d="m 67.120617,144.59789 c -19.933198,-0.0556 -39.381578,1.88848 -57.2900902,4.70779 -3.3482598,0.52712 -7.5345747,4.14509 -7.5345747,7.53458 v 17.6185 c 0,2.0864 1.0395076,3.91548 2.6250164,5.01885 l -0.00841,0.004 c 0.02461,0.0161 0.042825,0.0303 0.067254,0.0462 0.00779,0.005 0.015303,0.01 0.023119,0.0147 10.4571275,7.91812 5.5188815,11.66822 6.6581685,22.47552 4.091731,38.81425 25.721444,54.4219 60.604462,54.16067 26.588672,1.07648 57.525718,-22.5903 65.165138,-46.60718 4.70582,-13.0548 7.86505,-24.43488 17.97681,-24.43489 10.11178,-1e-5 16.27222,19.75617 17.97688,24.43489 7.63942,24.01688 38.57858,47.68366 65.16724,46.60718 34.88303,0.26123 56.51064,-15.34642 60.60236,-54.16067 1.13929,-10.8073 -3.79896,-14.5574 6.65817,-22.47552 0.008,-0.005 0.0153,-0.01 0.0231,-0.0147 0.0244,-0.0159 0.0446,-0.0301 0.0693,-0.0462 l -0.0105,-0.004 c 1.58549,-1.10337 2.62501,-2.93245 2.62501,-5.01885 v -17.6185 c 0,-3.38949 -4.18421,-7.00746 -7.53247,-7.53458 -17.90851,-2.81931 -37.35899,-4.76339 -57.29219,-4.70779 -9.06054,0.0253 -18.2221,0.46289 -27.38298,1.42074 -13.51077,1.41271 -29.18443,5.51271 -43.52189,6.21682 h -34.76203 c -14.33792,-0.70411 -30.01321,-4.80411 -43.523989,-6.21682 -9.160879,-0.95785 -18.322435,-1.39545 -27.382977,-1.42074 z" transform="matrix(0.94292302,0,0,0.94292302,3.4626802,9.2616985)" sodipodi:nodetypes="csssccccsccaccsccccsssssccscc"/><path id="rect5154" style="display:inline;fill:#ffffff;fill-opacity:1;stroke:none;stroke-width:6.31825;stroke-linecap:round;stroke-linejoin:round;stroke-dasharray:none;stroke-opacity:1;paint-order:stroke fill markers;stop-color:#000000" d="m 204.20898,158.32617 c -0.90074,0.0363 -2.13247,0.36375 -2.5996,0.50391 -6.2951,1.64093 -12.76938,3.37225 -18.23047,7.04101 -0.89029,0.64383 -1.74031,1.37173 -2.39649,2.25782 -2.27536,3.54451 -1.11827,7.98823 -0.10156,11.75586 2.60053,8.99894 5.11745,18.02246 7.77539,27.0039 0.10735,1.01422 1.39588,2.63623 1.3125,0.59375 -0.0975,-4.72823 -0.54216,-9.45779 -0.29687,-14.19336 0.35051,-9.75492 2.438,-19.99422 8.80859,-27.69336 1.79591,-2.33575 4.22734,-4.02829 6.34765,-6.03125 0.85243,-1.02002 0.28161,-1.27458 -0.61914,-1.23828 z M 51.099609,160.125 c -0.46058,0.008 -0.876107,0.0366 -1.103515,0.0586 -6.780776,0.3 -13.70149,0.75267 -20.128906,3.10352 -1.319672,0.53174 -2.623623,1.17945 -3.685547,2.14258 -2.912353,3.04289 -2.627972,7.62497 -2.351563,11.51758 0.816673,9.18717 1.542686,18.38373 2.421875,27.56445 -0.09467,1.08235 0.914668,3.04267 1.246094,0.88867 0.828251,-4.64141 1.301597,-9.35372 2.466797,-13.93555 2.234238,-9.43456 6.275617,-18.99527 13.978515,-25.25195 2.56788,-2.16399 5.59607,-3.64708 8.652344,-4.97851 1.671835,-0.98409 -0.114353,-1.13358 -1.496094,-1.10938 z"/></svg>