<?xml version="1.0" encoding="UTF-8" standalone="no"?>
<!DOCTYPE svg PUBLIC "-//W3C//DTD SVG 1.1//EN" "http://www.w3.org/Graphics/SVG/1.1/DTD/svg11.dtd">
<svg width="100%" height="100%" viewBox="0 0 280 62" version="1.1" xmlns="http://www.w3.org/2000/svg" xmlns:xlink="http://www.w3.org/1999/xlink" xml:space="preserve" xmlns:serif="http://www.serif.com/" style="fill-rule:evenodd;clip-rule:evenodd;stroke-linejoin:round;stroke-miterlimit:2;">
    <g id="banner_37" transform="matrix(1,0,0,1,0,-8.7)">
        <path d="M280,47.751L-0,47.751L-0,65.286C-0,67.888 2.112,70 4.714,70L275.286,70C277.888,70 280,67.888 280,65.286L280,47.751Z" style="fill:#d1965a;"/>
        <g transform="matrix(-0.893232,-1.09389e-16,8.74808e-17,-0.714335,285.834,65.8968)">
            <path d="M320,8.028C320,5.159 318.138,2.83 315.844,2.83L10.688,2.83C8.394,2.83 6.532,5.159 6.532,8.028L6.532,66.535C6.532,69.404 8.394,71.733 10.688,71.733L315.844,71.733C318.138,71.733 320,69.404 320,66.535L320,8.028Z" style="fill:#ddd;"/>
        </g>
        <g transform="matrix(1,0,0,1,26.7421,0)">
            <path d="M-0,14.652L226.516,14.656L226.516,12.903C226.516,10.854 224.852,9.191 222.803,9.191L3.713,9.187C1.664,9.187 -0,10.85 -0,12.899L-0,14.652Z" style="fill:#f6c089;"/>
        </g>
        <path d="M172.001,9.187L107.999,9.187C107.412,9.93 107.062,10.869 107.062,11.888L107.062,14.656L172.938,14.656L172.938,11.888C172.938,10.869 172.588,9.93 172.001,9.187Z" style="fill:#d1965a;"/>
        <path d="M253.258,12.903L26.742,12.903L26.742,14.652L253.258,14.656L253.258,12.903Z" style="fill:#d1965a;"/>
        <path d="M171.271,14.656L108.729,14.656L108.729,16.855C108.729,18.346 109.94,19.557 111.431,19.557L168.569,19.557C170.06,19.557 171.271,18.346 171.271,16.855L171.271,14.656Z" style="fill:#d1965a;"/>
        <path d="M172.938,14.656L107.062,14.656L107.062,16.855C107.062,19.266 109.02,21.224 111.431,21.224L168.569,21.224C170.98,21.224 172.938,19.266 172.938,16.855L172.938,14.656ZM171.271,14.656L108.729,14.656L108.729,16.855C108.729,18.346 109.94,19.557 111.431,19.557L168.569,19.557C170.06,19.557 171.271,18.346 171.271,16.855L171.271,14.656Z" style="fill:#c8c8c8;"/>
        <g transform="matrix(1,0,0,0.943616,1.78119,-2.29296)">
            <path d="M169.49,13.904C169.49,12.689 168.559,11.703 167.413,11.703L109.024,11.703C107.878,11.703 106.948,12.689 106.948,13.904L106.948,18.305C106.948,19.52 107.878,20.506 109.024,20.506L167.413,20.506C168.559,20.506 169.49,19.52 169.49,18.305L169.49,13.904Z" style="fill:#f6c089;"/>
        </g>
        <g transform="matrix(12.0713,0,0,0.376123,-107.211,36.6905)">
            <rect x="8.882" y="50.74" width="23.196" height="10.636" style="fill:#c8c8c8;"/>
        </g>
        <g transform="matrix(1,0,0,1,0.426705,2.51756)">
            <g transform="matrix(1,0,0,1,0.469659,2.9549)">
                <path d="M5.417,34.21C4.929,34.21 4.467,34.423 4.15,34.793C3.833,35.164 3.695,35.654 3.77,36.135L6.661,54.512C6.789,55.323 7.487,55.92 8.308,55.92L22.189,55.92C23.01,55.92 23.708,55.323 23.836,54.512L26.726,36.135C26.802,35.654 26.663,35.164 26.347,34.793C26.03,34.423 25.567,34.21 25.08,34.21L5.417,34.21Z" style="fill:#5659f9;"/>
            </g>
            <g transform="matrix(1,0,0,1,-0.426705,-2.51756)">
                <path d="M25.255,56.659L7.034,56.659L7.558,59.985C7.685,60.795 8.384,61.392 9.204,61.392L23.085,61.392C23.906,61.392 24.604,60.795 24.732,59.985L25.255,56.659Z" style="fill:#4648d5;"/>
            </g>
            <g transform="matrix(1,0,0,1,0.469659,2.9549)">
                <path d="M9.265,38.446C8.778,38.446 8.315,38.659 7.998,39.029C7.681,39.4 7.543,39.89 7.618,40.372L8.539,48.496C8.666,49.306 9.365,49.903 10.185,49.903L21.405,49.903C22.226,49.903 22.924,49.306 23.052,48.496L24.359,40.372C24.434,39.89 24.296,39.4 23.979,39.029C23.662,38.659 23.2,38.446 22.712,38.446L9.265,38.446Z" style="fill:#696bff;"/>
            </g>
            <g transform="matrix(1,0,0,1,0.469659,2.9549)">
                <path d="M14.601,39.304C14.113,39.304 13.65,39.518 13.334,39.888C13.017,40.258 12.878,40.749 12.954,41.23L13.635,47.64C13.763,48.45 14.461,49.047 15.281,49.047L20.805,49.047C21.625,49.047 22.324,48.45 22.451,47.64L23.473,41.23C23.549,40.749 23.41,40.258 23.094,39.888C22.777,39.518 22.314,39.304 21.827,39.304L14.601,39.304Z" style="fill:#7a7bff;"/>
            </g>
            <g transform="matrix(1.1462,0,0,0.626167,-0.299835,16.0391)">
                <path d="M23.094,36.753C23.094,35.786 22.665,35 22.136,35L5.97,35C5.442,35 5.012,35.786 5.012,36.753C5.012,37.721 5.442,38.506 5.97,38.506L22.136,38.506C22.665,38.506 23.094,37.721 23.094,36.753Z" style="fill:#08099f;"/>
            </g>
            <g transform="matrix(0.213524,0.0575453,-0.0575453,0.213524,4.29008,27.1765)">
                <g transform="matrix(4.36619,-1.1767,1.1767,4.36619,-45.1822,-101.261)">
                    <path d="M7.7,37.196L7.216,34.821C7.041,33.968 7.52,33.105 8.338,32.804C8.821,32.627 9.324,32.509 9.836,32.452C10.347,32.39 10.864,32.389 11.375,32.449C11.507,32.469 11.635,32.503 11.759,32.552C12.44,32.795 12.907,33.431 12.934,34.153L13.03,37.196L7.7,37.196Z" style="fill:#993123;fill-rule:nonzero;"/>
                </g>
                <g transform="matrix(4.36619,-1.1767,1.1767,4.36619,-45.1822,-101.261)">
                    <path d="M7.247,37.196L6.782,34.923C6.563,33.856 7.163,32.779 8.184,32.403C8.701,32.213 9.239,32.086 9.786,32.025C10.333,31.958 10.886,31.957 11.433,32.023C11.597,32.043 11.759,32.082 11.915,32.139C12.768,32.444 13.351,33.244 13.38,34.15L13.476,37.196L12.585,37.196L12.49,34.173C12.472,33.63 12.122,33.149 11.609,32.966C11.515,32.932 11.417,32.909 11.317,32.896C10.842,32.84 10.361,32.841 9.886,32.901C9.409,32.953 8.941,33.063 8.491,33.226C7.875,33.45 7.513,34.099 7.645,34.741L8.147,37.196L7.247,37.196Z" style="fill:#661106;fill-rule:nonzero;"/>
                </g>
                <g transform="matrix(-0.996504,-0.0835479,0.0835479,-0.996504,53.116,319.408)">
                    <path d="M34.23,292.54C31.738,292.675 29.404,291.267 28.36,289C26.78,286.32 27.71,282.8 30.63,280.55C32.299,279.285 34.084,278.18 35.96,277.25C37.83,276.306 39.785,275.543 41.8,274.97C42.532,274.762 43.289,274.654 44.05,274.65C46.548,274.523 48.883,275.943 49.92,278.22C51.5,280.91 50.57,284.43 47.65,286.68C45.984,287.947 44.199,289.049 42.32,289.97C40.452,290.921 38.496,291.688 36.48,292.26C35.748,292.469 34.991,292.577 34.23,292.58L34.23,292.54Z" style="fill:#d0ebf6;fill-rule:nonzero;"/>
                </g>
                <g transform="matrix(-0.996504,-0.0835479,0.0835479,-0.996504,53.116,319.408)">
                    <path d="M44.05,276.61C45.79,276.492 47.428,277.483 48.13,279.08C49.29,280.89 48.56,283.42 46.43,285.08C44.868,286.27 43.193,287.305 41.43,288.17C39.691,289.048 37.873,289.761 36,290.3C35.44,290.455 34.861,290.536 34.28,290.54C32.542,290.657 30.909,289.665 30.21,288.07C29.04,286.26 29.77,283.73 31.9,282.07C33.461,280.875 35.136,279.837 36.9,278.97C38.653,278.078 40.488,277.358 42.38,276.82C42.937,276.664 43.512,276.583 44.09,276.58M44.09,272.58C43.147,272.582 42.208,272.713 41.3,272.97C37.026,274.219 33.012,276.228 29.45,278.9C25.81,281.7 24.64,286.32 26.61,289.83C27.998,292.773 31.018,294.618 34.27,294.51C35.213,294.508 36.152,294.377 37.06,294.12C39.195,293.507 41.268,292.694 43.25,291.69C45.245,290.709 47.141,289.537 48.91,288.19C52.55,285.39 53.73,280.76 51.75,277.26C50.366,274.313 47.343,272.467 44.09,272.58Z" style="fill:#6eb7cb;fill-rule:nonzero;"/>
                </g>
                <g transform="matrix(-0.996504,-0.0835479,0.0835479,-0.996504,53.116,319.408)">
                    <path d="M36,290.3C37.891,289.755 39.726,289.031 41.48,288.14C43.243,287.275 44.918,286.24 46.48,285.05C47.895,284.073 48.73,282.449 48.7,280.73C47.34,279.686 45.548,279.382 43.92,279.92C40.139,281.026 36.586,282.801 33.43,285.16C32.023,286.144 31.191,287.763 31.21,289.48C32.573,290.524 34.367,290.831 36,290.3Z" style="fill:#6eb7cb;fill-rule:nonzero;"/>
                </g>
                <g transform="matrix(-0.996504,-0.0835479,0.0835479,-0.996504,53.116,319.408)">
                    <path d="M28,314.93C22.51,303.93 25.07,291.57 41.13,283.54C44.215,281.997 47.617,281.194 51.065,281.194C59.464,281.194 67.173,285.958 70.93,293.47C74.66,300.92 74.31,310.74 70.77,316.75C65.21,326.19 70.36,342 70.36,342C70.36,342 41.8,342.57 28,314.93Z" style="fill:#c59974;fill-rule:nonzero;"/>
                </g>
                <g transform="matrix(-0.996504,-0.0835479,0.0835479,-0.996504,53.116,319.408)">
                    <path d="M30.24,314.15C30.24,298.79 34.3,296.4 34.3,296.4C39.66,303 43.94,314.91 43.94,314.91C53.94,305.65 47.67,291.5 47.67,291.5C53.37,294.34 60.32,308.5 60.32,308.5C63.56,298.63 57.08,286.33 57.08,286.33C60.21,285.67 66.08,288.41 68.44,289.6C61.914,281.434 50.467,278.919 41.12,283.6C28.4,289.9 24.15,299 25.66,308C27.041,310.154 28.572,312.209 30.24,314.15Z" style="fill:#b6785f;fill-rule:nonzero;"/>
                </g>
                <g transform="matrix(-0.996504,-0.0835479,0.0835479,-0.996504,53.116,319.408)">
                    <path d="M51,281.19L51,285.19C57.898,285.165 64.236,289.08 67.3,295.26C70.3,301.26 70.3,309.61 67.3,314.72C63.13,321.8 63.97,331.46 65.13,337.52C50.624,335.413 38.05,326.288 31.55,313.15C26.38,302.79 30.55,293.3 42.9,287.15C45.411,285.877 48.185,285.205 51,285.19L51,281.19M51,281.19C47.559,281.189 44.165,281.994 41.09,283.54C25.06,291.57 22.5,304 28,314.93C41.25,341.48 68.11,342 70.21,342L70.35,342C70.35,342 65.2,326.19 70.76,316.75C74.3,310.75 74.65,300.92 70.92,293.47C67.154,285.94 59.419,281.172 51,281.19Z" style="fill:#7c3522;fill-rule:nonzero;"/>
                </g>
            </g>
            <g transform="matrix(-0.220516,0.0166291,0.0166291,0.220516,30.4831,27.8408)">
                <g transform="matrix(-4.50917,0.340037,0.340037,4.50917,126.873,-122.421)">
                    <path d="M18.256,37.196L23.659,37.196L24.697,34.664C25.028,33.858 24.718,32.922 23.972,32.473C23.53,32.209 23.058,31.999 22.566,31.847C22.075,31.691 21.568,31.593 21.054,31.557C20.921,31.551 20.789,31.561 20.658,31.587C19.944,31.697 19.366,32.235 19.204,32.939L18.256,37.196Z" style="fill:#779923;fill-rule:nonzero;"/>
                </g>
                <g transform="matrix(-4.50917,0.340037,0.340037,4.50917,126.873,-122.421)">
                    <path d="M17.798,37.196L18.767,32.853C18.965,31.969 19.687,31.292 20.582,31.151C20.745,31.124 20.912,31.116 21.077,31.127C21.627,31.165 22.17,31.269 22.695,31.437C23.221,31.599 23.725,31.824 24.197,32.108C25.131,32.668 25.518,33.838 25.104,34.845L24.139,37.196L23.186,37.196L24.29,34.505C24.54,33.899 24.305,33.194 23.742,32.859C23.331,32.614 22.891,32.419 22.433,32.279C21.977,32.132 21.505,32.04 21.028,32.007C20.928,32 20.827,32.005 20.728,32.021C20.19,32.105 19.756,32.511 19.637,33.042L18.711,37.196L17.798,37.196Z" style="fill:#45560a;fill-rule:nonzero;"/>
                </g>
                <g transform="matrix(-4.50917,0.340037,0.340037,4.50917,126.873,-122.421)">
                    <path d="M19.31,37.196L21.968,37.196C21.926,37.155 21.878,37.119 21.826,37.088C21.574,36.937 21.305,36.818 21.024,36.733C20.744,36.642 20.455,36.586 20.161,36.564C19.763,36.538 19.401,36.807 19.31,37.196Z" style="fill:#8fb83e;fill-rule:nonzero;"/>
                </g>
                <g transform="matrix(-0.996504,-0.0835479,0.0835479,-0.996504,53.116,319.408)">
                    <path d="M34.23,292.54C31.738,292.675 29.404,291.267 28.36,289C26.78,286.32 27.71,282.8 30.63,280.55C32.299,279.285 34.084,278.18 35.96,277.25C37.83,276.306 39.785,275.543 41.8,274.97C42.532,274.762 43.289,274.654 44.05,274.65C46.548,274.523 48.883,275.943 49.92,278.22C51.5,280.91 50.57,284.43 47.65,286.68C45.984,287.947 44.199,289.049 42.32,289.97C40.452,290.921 38.496,291.688 36.48,292.26C35.748,292.469 34.991,292.577 34.23,292.58L34.23,292.54Z" style="fill:#d0ebf6;fill-rule:nonzero;"/>
                </g>
                <g transform="matrix(-0.996504,-0.0835479,0.0835479,-0.996504,53.116,319.408)">
                    <path d="M44.05,276.61C45.79,276.492 47.428,277.483 48.13,279.08C49.29,280.89 48.56,283.42 46.43,285.08C44.868,286.27 43.193,287.305 41.43,288.17C39.691,289.048 37.873,289.761 36,290.3C35.44,290.455 34.861,290.536 34.28,290.54C32.542,290.657 30.909,289.665 30.21,288.07C29.04,286.26 29.77,283.73 31.9,282.07C33.461,280.875 35.136,279.837 36.9,278.97C38.653,278.078 40.488,277.358 42.38,276.82C42.937,276.664 43.512,276.583 44.09,276.58M44.09,272.58C43.147,272.582 42.208,272.713 41.3,272.97C37.026,274.219 33.012,276.228 29.45,278.9C25.81,281.7 24.64,286.32 26.61,289.83C27.998,292.773 31.018,294.618 34.27,294.51C35.213,294.508 36.152,294.377 37.06,294.12C39.195,293.507 41.268,292.694 43.25,291.69C45.245,290.709 47.141,289.537 48.91,288.19C52.55,285.39 53.73,280.76 51.75,277.26C50.366,274.313 47.343,272.467 44.09,272.58Z" style="fill:#6eb7cb;fill-rule:nonzero;"/>
                </g>
                <g transform="matrix(-0.996504,-0.0835479,0.0835479,-0.996504,53.116,319.408)">
                    <path d="M36,290.3C37.891,289.755 39.726,289.031 41.48,288.14C43.243,287.275 44.918,286.24 46.48,285.05C47.895,284.073 48.73,282.449 48.7,280.73C47.34,279.686 45.548,279.382 43.92,279.92C40.139,281.026 36.586,282.801 33.43,285.16C32.023,286.144 31.191,287.763 31.21,289.48C32.573,290.524 34.367,290.831 36,290.3Z" style="fill:#6eb7cb;fill-rule:nonzero;"/>
                </g>
                <g transform="matrix(-0.996504,-0.0835479,0.0835479,-0.996504,53.116,319.408)">
                    <path d="M28,314.93C22.51,303.93 25.07,291.57 41.13,283.54C44.215,281.997 47.617,281.194 51.065,281.194C59.464,281.194 67.173,285.958 70.93,293.47C74.66,300.92 74.31,310.74 70.77,316.75C65.21,326.19 70.36,342 70.36,342C70.36,342 41.8,342.57 28,314.93Z" style="fill:#c59974;fill-rule:nonzero;"/>
                </g>
                <g transform="matrix(-0.996504,-0.0835479,0.0835479,-0.996504,53.116,319.408)">
                    <path d="M30.24,314.15C30.24,298.79 34.3,296.4 34.3,296.4C39.66,303 43.94,314.91 43.94,314.91C53.94,305.65 47.67,291.5 47.67,291.5C53.37,294.34 60.32,308.5 60.32,308.5C63.56,298.63 57.08,286.33 57.08,286.33C60.21,285.67 66.08,288.41 68.44,289.6C61.914,281.434 50.467,278.919 41.12,283.6C28.4,289.9 24.15,299 25.66,308C27.041,310.154 28.572,312.209 30.24,314.15Z" style="fill:#b6785f;fill-rule:nonzero;"/>
                </g>
                <g transform="matrix(-0.996504,-0.0835479,0.0835479,-0.996504,53.116,319.408)">
                    <path d="M51,281.19L51,285.19C57.898,285.165 64.236,289.08 67.3,295.26C70.3,301.26 70.3,309.61 67.3,314.72C63.13,321.8 63.97,331.46 65.13,337.52C50.624,335.413 38.05,326.288 31.55,313.15C26.38,302.79 30.55,293.3 42.9,287.15C45.411,285.877 48.185,285.205 51,285.19L51,281.19M51,281.19C47.559,281.189 44.165,281.994 41.09,283.54C25.06,291.57 22.5,304 28,314.93C41.25,341.48 68.11,342 70.21,342L70.35,342C70.35,342 65.2,326.19 70.76,316.75C74.3,310.75 74.65,300.92 70.92,293.47C67.154,285.94 59.419,281.172 51,281.19Z" style="fill:#7c3522;fill-rule:nonzero;"/>
                </g>
            </g>
        </g>
        <g>
            <g transform="matrix(0.782885,0,0,0.782885,27.0371,17.6135)">
                <path d="M6.289,34.21C5.802,34.21 5.339,34.423 5.022,34.793C4.705,35.164 4.567,35.654 4.642,36.135L7.533,54.512C7.661,55.323 8.359,55.92 9.18,55.92L21.457,55.92C22.277,55.92 22.976,55.323 23.103,54.512L25.994,36.135C26.07,35.654 25.931,35.164 25.614,34.793C25.298,34.423 24.835,34.21 24.347,34.21L6.289,34.21Z" style="fill:#80e3ff;fill-opacity:0.5;"/>
            </g>
            <g transform="matrix(0.782885,0,0,0.782885,27.0371,17.6135)">
                <path d="M6.289,33.944C5.724,33.944 5.187,34.191 4.82,34.62C4.453,35.05 4.292,35.619 4.38,36.177C4.38,36.177 7.27,54.554 7.27,54.554C7.418,55.493 8.228,56.186 9.18,56.186C9.18,56.186 21.457,56.186 21.457,56.186C22.408,56.186 23.218,55.493 23.366,54.554C23.366,54.554 26.257,36.177 26.257,36.177C26.345,35.619 26.184,35.05 25.817,34.62C25.449,34.191 24.913,33.944 24.347,33.944L6.289,33.944ZM6.289,34.476L24.347,34.476C24.757,34.476 25.146,34.655 25.412,34.966C25.678,35.278 25.795,35.69 25.731,36.094C25.731,36.094 22.84,54.471 22.84,54.471C22.733,55.152 22.146,55.654 21.457,55.654L9.18,55.654C8.49,55.654 7.903,55.152 7.796,54.471C7.796,54.471 4.905,36.094 4.905,36.094C4.842,35.69 4.958,35.278 5.224,34.966C5.49,34.655 5.879,34.476 6.289,34.476Z" style="fill:#3293ff;fill-opacity:0.5;"/>
            </g>
            <path d="M46.596,45.874L31.495,45.874L33.465,59.647C33.548,60.226 34.002,60.653 34.535,60.653L43.556,60.653C44.089,60.653 44.543,60.226 44.626,59.647L46.596,45.874Z" style="fill:#90bef0;fill-opacity:0.5;"/>
            <g transform="matrix(0.929857,0,0,1,2.72784,0)">
                <path d="M45.742,51.843L32.349,51.843L33.6,59.647C33.683,60.226 34.137,60.653 34.67,60.653L43.42,60.653C43.954,60.653 44.407,60.226 44.49,59.647L45.742,51.843Z" style="fill:#90bef0;"/>
            </g>
            <g transform="matrix(0.688744,0,0,0.490217,29.3552,33.8263)">
                <path d="M23.094,36.753C23.094,35.786 22.535,35 21.846,35L6.26,35C5.572,35 5.012,35.786 5.012,36.753C5.012,37.721 5.572,38.506 6.26,38.506L21.846,38.506C22.535,38.506 23.094,37.721 23.094,36.753Z" style="fill:#71b4fc;"/>
            </g>
            <g transform="matrix(0.835131,0,0,0.490217,27.3089,27.8569)">
                <path d="M23.094,36.753C23.094,35.786 22.633,35 22.065,35L6.042,35C5.474,35 5.012,35.786 5.012,36.753C5.012,37.721 5.474,38.506 6.042,38.506L22.065,38.506C22.633,38.506 23.094,37.721 23.094,36.753Z" style="fill:#90bef0;"/>
            </g>
            <path d="M45.695,56.659L32.364,56.659L32.935,60.29C33.035,60.925 33.581,61.392 34.224,61.392L43.835,61.392C44.477,61.392 45.024,60.925 45.124,60.29L45.695,56.659Z" style="fill:#5aa1b4;fill-opacity:0.5;"/>
            <path d="M45.927,47.739C45.935,47.679 45.917,47.619 45.878,47.574C45.838,47.529 45.781,47.503 45.721,47.503L43.862,47.503C43.758,47.503 43.67,47.58 43.656,47.683L42.573,55.747C42.565,55.807 42.583,55.867 42.622,55.912C42.662,55.957 42.719,55.983 42.779,55.983L44.638,55.983C44.742,55.983 44.83,55.906 44.844,55.803L45.927,47.739ZM42.684,47.731C42.689,47.672 42.67,47.614 42.63,47.571C42.591,47.527 42.535,47.503 42.476,47.503L41.621,47.503C41.513,47.503 41.423,47.584 41.413,47.691L40.645,55.755C40.639,55.813 40.659,55.872 40.698,55.915C40.738,55.958 40.793,55.983 40.852,55.983L41.708,55.983C41.815,55.983 41.905,55.901 41.915,55.795L42.684,47.731Z" style="fill:#fff;fill-opacity:0.25;"/>
        </g>
        <g id="avatar_item_34" transform="matrix(-0.426341,-0.114238,-0.114238,0.426341,318.534,-77.1755)">
            <g transform="matrix(-2.18842,-0.586385,-0.586385,2.18842,651.831,355.676)">
                <path d="M280,44.105C279.314,44.34 278.547,44.423 277.729,44.307C275.912,44.05 272.63,43.66 271.767,45.963C271.195,47.489 272.125,48.917 273.49,49.559C275.619,50.561 278.983,53.873 274.108,57.809C271.425,59.825 268.245,61.361 264.704,62.22C252.045,65.289 239.529,58.552 236.773,47.184C234.017,35.816 242.056,24.095 254.715,21.026C264.912,18.553 275.016,22.444 280,29.991L280,44.105ZM265.084,50.446C267.222,49.928 269.378,51.242 269.896,53.38C270.415,55.518 269.1,57.674 266.962,58.193C264.824,58.711 262.668,57.396 262.15,55.259C261.631,53.121 262.946,50.964 265.084,50.446Z" style="fill:#d8a349;"/>
            </g>
            <g transform="matrix(-2.18842,-0.586385,-0.586385,2.18842,651.831,355.676)">
                <path d="M280,43.324C279.374,43.503 278.685,43.558 277.957,43.454C276.141,43.197 272.858,42.807 271.995,45.111C271.424,46.637 272.354,48.065 273.718,48.707C275.847,49.708 279.212,53.021 274.337,56.956C271.653,58.972 268.473,60.508 264.932,61.367C252.273,64.436 239.758,57.699 237.001,46.331C234.245,34.963 242.285,23.242 254.944,20.173C264.986,17.738 274.938,21.475 280,28.8L280,43.324ZM265.312,49.593C267.45,49.075 269.607,50.39 270.125,52.528C270.643,54.665 269.328,56.822 267.191,57.34C265.053,57.858 262.897,56.544 262.378,54.406C261.86,52.268 263.175,50.112 265.312,49.593Z" style="fill:#fac66c;"/>
            </g>
            <g transform="matrix(-2.18842,-0.586385,-0.586385,2.18842,651.831,355.676)">
                <path d="M280,43.324C279.374,43.503 278.685,43.558 277.957,43.454C276.141,43.197 272.858,42.807 271.995,45.111C271.424,46.637 272.354,48.065 273.718,48.707C275.847,49.708 279.212,53.021 274.337,56.956C271.653,58.972 268.473,60.508 264.932,61.367C252.273,64.436 239.758,57.699 237.001,46.331C234.245,34.963 242.285,23.242 254.944,20.173C264.986,17.738 274.938,21.475 280,28.8L280,30.436C275.419,22.647 265.322,18.565 255.152,21.031C242.99,23.98 235.211,35.202 237.859,46.123C240.507,57.044 252.563,63.458 264.724,60.509C268.137,59.682 271.203,58.204 273.79,56.263L273.794,56.26C275.42,54.944 276.024,53.756 275.957,52.697C275.858,51.135 274.392,49.999 273.343,49.506C271.569,48.671 270.426,46.784 271.169,44.801C271.622,43.591 272.565,42.923 273.709,42.608C275.132,42.215 276.894,42.412 278.081,42.58C278.774,42.679 279.424,42.602 280,42.392L280,43.324ZM265.104,48.735C267.716,48.102 270.35,49.708 270.983,52.32C271.616,54.931 270.01,57.565 267.399,58.198C264.787,58.831 262.153,57.225 261.52,54.614C260.887,52.003 262.493,49.369 265.104,48.735ZM265.312,49.593C267.45,49.075 269.607,50.39 270.125,52.528C270.643,54.665 269.328,56.822 267.191,57.34C265.053,57.858 262.897,56.544 262.378,54.406C261.86,52.268 263.175,50.112 265.312,49.593Z" style="fill:#f5b64a;"/>
            </g>
            <g>
                <path d="M24.397,267.271L40.781,267.271L40.781,269.282L40.779,269.282C40.685,273.723 37.051,277.298 32.589,277.298C28.126,277.298 24.493,273.723 24.399,269.282L24.397,269.282L24.397,267.271Z" style="fill:#a6100d;"/>
                <g transform="matrix(0.871287,0,0,0.871287,2.70762,27.7989)">
                    <circle cx="34.296" cy="275.041" r="9.402" style="fill:#ef1d19;"/>
                </g>
                <g transform="matrix(1,0,0,1,-50.9961,-51.9138)">
                    <path d="M86.62,323.745C86.136,324.286 84.995,324.625 84.057,324.688C83.506,324.725 83.089,325.203 83.126,325.753C83.163,326.304 83.641,326.721 84.191,326.684C85.646,326.585 87.36,325.917 88.11,325.079C88.478,324.668 88.443,324.035 88.032,323.667C87.621,323.299 86.988,323.334 86.62,323.745ZM86.481,314.883C88.533,316.262 89.017,318.995 88.346,321.233C88.188,321.761 88.488,322.319 89.017,322.478C89.545,322.636 90.103,322.336 90.262,321.807C91.173,318.768 90.384,315.096 87.596,313.223C87.138,312.915 86.516,313.037 86.208,313.495C85.9,313.954 86.022,314.575 86.481,314.883Z" style="fill:#fc3935;"/>
                </g>
            </g>
            <g>
                <g transform="matrix(1,0,0,1,25.569,-8.02438)">
                    <path d="M24.397,267.271L40.781,267.271L40.781,269.282L40.779,269.282C40.685,273.723 37.051,277.298 32.589,277.298C28.126,277.298 24.493,273.723 24.399,269.282L24.397,269.282L24.397,267.271Z" style="fill:#8d078e;"/>
                </g>
                <g transform="matrix(0.871287,0,0,0.871287,28.2766,19.6069)">
                    <circle cx="34.296" cy="275.041" r="9.402" style="fill:#b713b8;"/>
                </g>
                <g transform="matrix(1,0,0,1,-25.5084,-60.1386)">
                    <path d="M86.62,323.745C86.136,324.286 84.995,324.625 84.057,324.688C83.506,324.725 83.089,325.203 83.126,325.753C83.163,326.304 83.641,326.721 84.191,326.684C85.646,326.585 87.36,325.917 88.11,325.079C88.478,324.668 88.443,324.035 88.032,323.667C87.621,323.299 86.988,323.334 86.62,323.745ZM86.481,314.883C88.533,316.262 89.017,318.995 88.346,321.233C88.188,321.761 88.488,322.319 89.017,322.478C89.545,322.636 90.103,322.336 90.262,321.807C91.173,318.768 90.384,315.096 87.596,313.223C87.138,312.915 86.516,313.037 86.208,313.495C85.9,313.954 86.022,314.575 86.481,314.883Z" style="fill:#d500d6;"/>
                </g>
            </g>
            <g>
                <g transform="matrix(1,0,0,1,48.6403,3.35102)">
                    <path d="M24.397,267.271L40.781,267.271L40.781,269.282L40.779,269.282C40.685,273.723 37.051,277.298 32.589,277.298C28.126,277.298 24.493,273.723 24.399,269.282L24.397,269.282L24.397,267.271Z" style="fill:#019342;"/>
                </g>
                <g transform="matrix(0.867454,-0.0816413,0.0816413,0.867454,29.0241,34.8366)">
                    <circle cx="34.296" cy="275.041" r="9.402" style="fill:#00ae4e;"/>
                </g>
                <g transform="matrix(1,0,0,1,-2.53821,-48.6979)">
                    <path d="M86.62,323.745C86.136,324.286 84.995,324.625 84.057,324.688C83.506,324.725 83.089,325.203 83.126,325.753C83.163,326.304 83.641,326.721 84.191,326.684C85.646,326.585 87.36,325.917 88.11,325.079C88.478,324.668 88.443,324.035 88.032,323.667C87.621,323.299 86.988,323.334 86.62,323.745ZM86.481,314.883C88.533,316.262 89.017,318.995 88.346,321.233C88.188,321.761 88.488,322.319 89.017,322.478C89.545,322.636 90.103,322.336 90.262,321.807C91.173,318.768 90.384,315.096 87.596,313.223C87.138,312.915 86.516,313.037 86.208,313.495C85.9,313.954 86.022,314.575 86.481,314.883Z" style="fill:#00cb5b;"/>
                </g>
            </g>
            <g>
                <g transform="matrix(1,0,0,1,59.0874,26.9277)">
                    <path d="M24.397,267.271L40.781,267.271L40.781,269.282L40.779,269.282C40.685,273.723 37.051,277.298 32.589,277.298C28.126,277.298 24.493,273.723 24.399,269.282L24.397,269.282L24.397,267.271Z" style="fill:#0379ab;"/>
                </g>
                <g transform="matrix(0.867454,-0.0816413,0.0816413,0.867454,39.4713,58.4133)">
                    <circle cx="34.296" cy="275.041" r="9.402" style="fill:#009ee0;"/>
                </g>
                <g transform="matrix(1,0,0,1,8.0817,-25.1985)">
                    <path d="M86.62,323.745C86.136,324.286 84.995,324.625 84.057,324.688C83.506,324.725 83.089,325.203 83.126,325.753C83.163,326.304 83.641,326.721 84.191,326.684C85.646,326.585 87.36,325.917 88.11,325.079C88.478,324.668 88.443,324.035 88.032,323.667C87.621,323.299 86.988,323.334 86.62,323.745ZM86.481,314.883C88.533,316.262 89.017,318.995 88.346,321.233C88.188,321.761 88.488,322.319 89.017,322.478C89.545,322.636 90.103,322.336 90.262,321.807C91.173,318.768 90.384,315.096 87.596,313.223C87.138,312.915 86.516,313.037 86.208,313.495C85.9,313.954 86.022,314.575 86.481,314.883Z" style="fill:#00b4ff;"/>
                </g>
            </g>
            <g>
                <g transform="matrix(1,0,0,1,50.894,52.1271)">
                    <path d="M24.397,267.271L40.781,267.271L40.781,269.282L40.779,269.282C40.685,273.723 37.051,277.298 32.589,277.298C28.126,277.298 24.493,273.723 24.399,269.282L24.397,269.282L24.397,267.271Z" style="fill:#c8b100;"/>
                </g>
                <g transform="matrix(0.867454,-0.0816413,0.0816413,0.867454,31.2788,83.6127)">
                    <circle cx="34.296" cy="275.041" r="9.402" style="fill:#ffe200;"/>
                </g>
                <path d="M86.62,323.745C86.136,324.286 84.995,324.625 84.057,324.688C83.506,324.725 83.089,325.203 83.126,325.753C83.163,326.304 83.641,326.721 84.191,326.684C85.646,326.585 87.36,325.917 88.11,325.079C88.478,324.668 88.443,324.035 88.032,323.667C87.621,323.299 86.988,323.334 86.62,323.745ZM86.481,314.883C88.533,316.262 89.017,318.995 88.346,321.233C88.188,321.761 88.488,322.319 89.017,322.478C89.545,322.636 90.103,322.336 90.262,321.807C91.173,318.768 90.384,315.096 87.596,313.223C87.138,312.915 86.516,313.037 86.208,313.495C85.9,313.954 86.022,314.575 86.481,314.883Z" style="fill:#ffeb4c;"/>
            </g>
            <g transform="matrix(-2.18842,-0.586385,-0.586385,2.18842,651.831,355.676)">
                <path d="M275.41,56.559C275.064,56.967 274.634,57.384 274.108,57.809C271.425,59.825 268.245,61.361 264.704,62.22C256.125,64.3 247.612,61.876 242.157,56.559L262.725,56.559C263.632,57.893 265.303,58.595 266.962,58.193C267.962,57.95 268.783,57.349 269.319,56.559L275.41,56.559Z" style="fill:#d8a349;fill-opacity:0.5;"/>
            </g>
        </g>
        <g transform="matrix(0.998439,-0.0558503,0.0558503,0.998439,8.81999,26.3891)">
            <g transform="matrix(1,0,0,1,-3.69686,-10.2409)">
                <path d="M202.118,43.931L196.496,46.616C196.425,46.65 196.379,46.721 196.379,46.8L196.379,52.2C196.379,52.278 196.425,52.35 196.496,52.384L202.128,55.073C202.157,55.093 202.192,55.105 202.229,55.107L231.664,56.804C231.721,56.807 231.778,56.787 231.819,56.747C231.861,56.708 231.885,56.653 231.885,56.596L231.885,42.402C231.885,42.345 231.861,42.29 231.819,42.25C231.778,42.211 231.721,42.191 231.664,42.194L202.229,43.891C202.188,43.893 202.15,43.908 202.118,43.931Z" style="fill:#afafaf;"/>
            </g>
            <g transform="matrix(1,0,0,1,-3.69686,-10.2409)">
                <path d="M231.664,54.142L202.033,53.379L196.496,50.883C196.425,50.917 196.379,50.988 196.379,51.067L196.379,52.2C196.379,52.278 196.425,52.35 196.496,52.384L202.128,55.073C202.157,55.093 202.192,55.105 202.229,55.107L231.664,56.804C231.721,56.807 231.778,56.787 231.819,56.747C231.861,56.708 231.885,56.653 231.885,56.596L231.885,54.35C231.885,54.292 231.861,54.237 231.819,54.198C231.778,54.159 231.721,54.138 231.664,54.142Z" style="fill:#9a9a9a;"/>
            </g>
            <g transform="matrix(1,0,0,1,-3.69686,-10.2409)">
                <path d="M202.118,44.978L196.496,47.662C196.425,47.697 196.379,47.768 196.379,47.847L196.379,48.47C196.379,48.549 231.664,47.198 231.664,47.198C231.721,47.202 231.778,47.181 231.819,47.142C231.861,47.103 231.885,47.048 231.885,46.99L231.885,43.449C231.885,43.391 231.861,43.337 231.819,43.297C231.778,43.258 231.721,43.237 231.664,43.241L202.229,44.938C202.188,44.94 202.15,44.955 202.118,44.978Z" style="fill:#c2c2c2;"/>
            </g>
            <g transform="matrix(1,0,0,1,-3.69686,-10.2409)">
                <path d="M231.664,48.655L196.496,49.146C196.425,49.18 196.379,49.251 196.379,49.33L196.379,49.753C196.379,49.831 231.664,49.481 231.664,49.481C231.721,49.484 231.778,49.464 231.819,49.424C231.861,49.385 231.885,49.33 231.885,49.273L231.885,48.863C231.885,48.806 231.861,48.751 231.819,48.712C231.778,48.672 231.721,48.652 231.664,48.655Z" style="fill:#c2c2c2;"/>
            </g>
            <path d="M192.682,36.521L187.304,36.521C186.909,36.521 186.588,36.842 186.588,37.238L186.588,41.163C186.588,41.559 186.909,41.88 187.304,41.88L192.682,41.88L192.682,36.521Z" style="fill:#fff;"/>
            <g transform="matrix(1.09663,0,0,1.04842,-22.1249,-12.6378)">
                <path d="M191.323,47.547C191.323,47.368 191.184,47.222 191.013,47.222C190.841,47.222 190.702,47.368 190.702,47.547L190.702,51.341C190.702,51.52 190.841,51.666 191.013,51.666C191.184,51.666 191.323,51.52 191.323,51.341L191.323,47.547Z" style="fill:#e5e5e5;"/>
            </g>
            <path d="M223.039,32.237L198.533,33.65C198.422,33.656 198.336,33.748 198.336,33.858L198.336,44.658C198.336,44.768 198.422,44.86 198.533,44.866L223.039,46.279L223.039,32.237Z" style="fill:#fff;"/>
            <path d="M215.644,32.663L201.933,33.454L201.933,45.062L215.644,45.852L215.644,32.663Z" style="fill:#b713b8;"/>
            <g transform="matrix(1,0,0,1,-3.69686,-10.2409)">
                <path d="M219.341,53.825L219.341,56.093L226.736,56.52L226.736,54.015L219.341,53.825ZM205.63,53.472L202.033,53.379L202.033,55.028L202.128,55.073C202.157,55.093 202.192,55.105 202.229,55.107L205.63,55.303L205.63,53.472Z" style="fill:#9a9a9a;fill-opacity:0.5;"/>
            </g>
            <g transform="matrix(1,0,0,1,-3.69686,-10.2409)">
                <path d="M219.341,53.825L205.63,53.472L205.63,55.303L219.341,56.093L219.341,53.825Z" style="fill:#6c006c;fill-opacity:0.5;"/>
            </g>
            <g transform="matrix(0.77134,0,0,0.889794,52.1297,4.25887)">
                <path d="M231.801,31.203C231.801,30.911 231.528,30.675 231.192,30.675L228.589,30.675C228.252,30.675 227.979,30.911 227.979,31.203L227.979,47.556C227.979,47.847 228.252,48.084 228.589,48.084L231.192,48.084C231.528,48.084 231.801,47.847 231.801,47.556L231.801,31.203Z" style="fill:#afafaf;"/>
            </g>
            <g transform="matrix(0.997796,0.0663621,-0.0663621,0.997796,0.33716,-28.4315)">
                <path d="M232.042,44.684L231.59,44.714C231.331,44.731 231.135,44.956 231.152,45.214L232.118,59.733C232.135,59.992 232.359,60.188 232.618,60.171L232.934,60.15C232.755,60.093 232.62,59.931 232.607,59.733L231.642,45.167C231.625,44.921 231.802,44.719 232.042,44.684Z" style="fill:#909090;"/>
            </g>
            <g transform="matrix(1,0,0,1,-3.69686,-10.4065)">
                <path d="M234.624,56.192L231.676,56.192L231.676,56.505L234.624,56.505L234.624,56.192ZM234.624,55.074L231.676,55.074L231.676,55.387L234.624,55.387L234.624,55.074ZM234.624,54.048L231.676,54.048L231.676,54.361L234.624,54.361L234.624,54.048ZM234.624,52.976L231.676,52.976L231.676,53.289L234.624,53.289L234.624,52.976ZM234.624,51.881L231.676,51.881L231.676,52.194L234.624,52.194L234.624,51.881ZM234.624,50.832L231.676,50.832L231.676,51.145L234.624,51.145L234.624,50.832ZM234.624,49.737L231.676,49.737L231.676,50.05L234.624,50.05L234.624,49.737ZM234.624,48.642L231.676,48.642L231.676,48.955L234.624,48.955L234.624,48.642ZM234.624,47.546L231.676,47.546L231.676,47.86L234.624,47.86L234.624,47.546ZM234.624,46.428L231.676,46.428L231.676,46.741L234.624,46.741L234.624,46.428ZM234.624,45.291L231.676,45.291L231.676,45.604L234.624,45.604L234.624,45.291ZM234.624,44.098L231.676,44.098L231.676,44.411L234.624,44.411L234.624,44.098ZM234.624,42.904L231.676,42.904L231.676,43.218L234.624,43.218L234.624,42.904Z" style="fill:#909090;"/>
            </g>
        </g>
        <g>
            <path d="M75.356,14.656L35.609,14.656C35.441,16.021 35.316,17.393 35.237,18.764C35.166,20.007 35.092,21.275 35.341,22.504C35.548,23.525 36.01,24.445 36.805,25.132C39.28,27.275 42.461,26.987 45.117,25.333C47.129,24.081 48.847,22.222 51.458,23.347C57.714,26.043 49.433,36.335 56.659,38.583C57.697,38.906 58.843,38.793 59.87,38.487C60.628,38.262 61.349,37.89 61.974,37.406C64.875,35.161 64.431,31.408 63.882,28.173C63.578,26.383 63.05,24.641 64.025,22.948C65.998,19.519 70.266,20.317 73.083,18.149C74.015,17.43 75.057,16.04 75.356,14.656Z" style="fill:#ef1d19;"/>
            <path d="M73.442,14.414L36.677,14.656C36.509,16.021 36.384,17.393 36.305,18.764C36.233,20.007 36.101,20.509 36.33,21.742C36.492,22.611 36.91,23.677 37.704,24.364C40.18,26.507 42.911,25.218 44.693,23.862C48.039,21.316 49.819,20.572 52.43,21.697C58.687,24.393 51.465,36.08 56.659,37.386C57.714,37.651 58.896,37.444 59.87,36.996C61.128,36.417 62.356,35.045 62.6,34.293C63.321,32.076 62.676,30.02 62.363,28.081C62.073,26.288 62.214,23 63.188,21.306C65.161,17.878 69.841,18.788 71.168,17.907C72.752,16.856 73.142,15.799 73.442,14.414Z" style="fill:#ff3632;fill-opacity:0.5;"/>
            <path d="M57.655,37.931C60.242,37.938 62.097,36.564 63.063,34.176C63.149,33.963 63.046,33.72 62.833,33.634C62.62,33.548 62.377,33.651 62.291,33.864C61.461,35.913 59.878,37.103 57.657,37.098C57.427,37.097 57.24,37.284 57.24,37.513C57.239,37.743 57.425,37.931 57.655,37.931ZM62.625,27.224C62.631,26.102 62.572,24.906 62.734,23.774C62.886,22.713 63.236,21.709 64.064,20.898C64.228,20.737 64.231,20.473 64.07,20.309C63.909,20.145 63.645,20.142 63.481,20.303C62.513,21.25 62.087,22.416 61.909,23.656C61.742,24.825 61.798,26.06 61.792,27.219C61.791,27.449 61.976,27.637 62.206,27.638C62.436,27.64 62.624,27.454 62.625,27.224ZM40.866,25.825C42.289,25.711 43.73,25.206 44.902,24.386C46.168,23.501 47.173,22.325 48.704,21.896C48.926,21.834 49.055,21.604 48.993,21.383C48.931,21.161 48.701,21.032 48.479,21.094C46.855,21.549 45.768,22.764 44.425,23.703C43.372,24.439 42.077,24.892 40.799,24.994C40.57,25.013 40.399,25.214 40.417,25.443C40.436,25.672 40.637,25.844 40.866,25.825ZM36.748,24.159C37.077,24.647 37.566,25.04 38.109,25.272C38.32,25.363 38.565,25.264 38.656,25.053C38.746,24.842 38.648,24.597 38.437,24.506C38.04,24.336 37.68,24.05 37.439,23.693C37.31,23.502 37.051,23.452 36.86,23.58C36.67,23.709 36.619,23.968 36.748,24.159ZM71.456,17.182C71.114,17.443 70.778,17.708 70.364,17.839C70.144,17.909 70.023,18.144 70.093,18.363C70.162,18.582 70.397,18.703 70.616,18.633C71.123,18.472 71.542,18.164 71.961,17.845C72.144,17.706 72.18,17.444 72.04,17.261C71.901,17.078 71.639,17.043 71.456,17.182Z" style="fill:#fc3935;"/>
            <path d="M76.334,14.867C76.398,14.572 76.324,14.263 76.135,14.028C75.945,13.792 75.659,13.656 75.356,13.656L35.609,13.656C35.104,13.656 34.678,14.032 34.616,14.534C34.446,15.921 34.319,17.314 34.239,18.707C34.162,20.035 34.095,21.39 34.361,22.703C34.613,23.943 35.185,25.053 36.15,25.888C38.979,28.336 42.61,28.071 45.646,26.182C46.444,25.685 47.195,25.091 47.975,24.63C48.889,24.089 49.849,23.743 51.063,24.266C52.521,24.894 52.92,26.08 52.976,27.443C53.021,28.562 52.849,29.791 52.702,31.013C52.256,34.705 52.181,38.237 56.362,39.538C57.588,39.919 58.942,39.806 60.155,39.445C61.03,39.185 61.864,38.756 62.586,38.197C64.272,36.893 65.003,35.16 65.215,33.273C65.409,31.559 65.158,29.714 64.868,28.006C64.749,27.306 64.594,26.615 64.514,25.931C64.414,25.09 64.424,24.259 64.892,23.446C65.736,21.98 67.1,21.461 68.525,21.033C70.306,20.499 72.187,20.1 73.693,18.941C74.779,18.104 75.985,16.48 76.334,14.867ZM75.356,14.656L35.609,14.656C35.441,16.021 35.316,17.393 35.237,18.764C35.166,20.007 35.092,21.275 35.341,22.504C35.548,23.525 36.01,24.445 36.805,25.132C39.28,27.275 42.461,26.987 45.117,25.333C47.129,24.081 48.847,22.222 51.458,23.347C57.714,26.043 49.433,36.335 56.659,38.583C57.697,38.906 58.843,38.793 59.87,38.487C60.628,38.262 61.349,37.89 61.974,37.406C64.875,35.161 64.431,31.408 63.882,28.173C63.578,26.383 63.05,24.641 64.025,22.948C65.998,19.519 70.266,20.317 73.083,18.149C74.015,17.43 75.057,16.04 75.356,14.656Z" style="fill:#a6100d;"/>
        </g>
        <g>
            <path d="M231.76,14.656L200.953,14.656C200.581,17.416 200.232,20.829 203.086,22.303C203.484,22.509 203.915,22.69 204.36,22.764C205.043,22.877 205.81,22.881 206.495,22.786C208.53,22.503 209.869,19.877 212.073,20.743C212.445,20.89 212.79,21.104 213.107,21.346C214.38,22.318 214.985,23.866 215.602,25.287C216.741,27.912 218.248,31.229 221.279,32.051C221.924,32.226 222.614,32.338 223.283,32.302C224.269,32.248 225.25,32.064 226.151,31.651C231.053,29.404 231.157,22.87 231.499,18.269C231.564,17.392 231.934,15.856 231.76,14.656Z" style="fill:#b713b8;"/>
            <path d="M230.621,14.656L202.336,14.656C201.963,17.416 201.695,20.872 204.247,21.509C204.919,21.676 206.534,21.674 207.654,20.887C209.335,19.706 210.48,18.606 212.684,19.472C213.056,19.619 213.401,19.833 213.718,20.075C214.991,21.047 215.638,22.061 216.255,23.482C217.394,26.107 218.67,29.214 221.279,30.519C221.877,30.818 222.614,30.806 223.283,30.77C224.269,30.716 225.631,30.324 226.36,29.653C230.055,26.25 230.018,22.87 230.36,18.269C230.425,17.392 230.795,15.856 230.621,14.656Z" style="fill:#d204d3;fill-opacity:0.5;"/>
            <path d="M222.692,31.26C226.577,31.234 229.153,27.875 230.054,24.395C230.111,24.172 229.977,23.945 229.755,23.887C229.532,23.829 229.305,23.963 229.247,24.186C228.437,27.316 226.181,30.404 222.687,30.427C222.457,30.429 222.271,30.617 222.273,30.847C222.275,31.076 222.462,31.262 222.692,31.26ZM219.411,28.459C218.756,27.959 218.393,27.249 218.062,26.511C217.968,26.302 217.722,26.208 217.512,26.302C217.302,26.396 217.208,26.642 217.302,26.852C217.689,27.717 218.137,28.535 218.906,29.122C219.088,29.261 219.35,29.226 219.49,29.043C219.629,28.861 219.594,28.599 219.411,28.459ZM203.99,21.89C205.557,22.218 207.244,21.819 208.479,20.786C208.655,20.638 208.678,20.375 208.531,20.199C208.383,20.023 208.12,19.999 207.944,20.147C206.904,21.018 205.481,21.351 204.161,21.074C203.936,21.027 203.715,21.171 203.667,21.396C203.62,21.621 203.765,21.842 203.99,21.89ZM230.628,19.633C230.646,18.757 230.785,17.896 230.891,17.029C230.919,16.801 230.756,16.593 230.528,16.565C230.299,16.537 230.091,16.7 230.064,16.928C229.954,17.823 229.813,18.712 229.795,19.616C229.79,19.846 229.973,20.036 230.203,20.041C230.433,20.046 230.623,19.863 230.628,19.633Z" style="fill:#d500d6;"/>
            <path d="M232.75,14.512C232.678,14.02 232.257,13.656 231.76,13.656L200.953,13.656C200.453,13.656 200.029,14.026 199.962,14.522C199.763,15.996 199.584,17.645 199.822,19.121C200.095,20.812 200.882,22.291 202.627,23.192C203.117,23.445 203.649,23.659 204.196,23.75C204.976,23.879 205.85,23.885 206.632,23.776C207.603,23.642 208.457,23.095 209.281,22.511C209.653,22.248 210.019,21.98 210.403,21.788C210.799,21.59 211.218,21.482 211.707,21.674C211.993,21.786 212.256,21.955 212.5,22.141C213.636,23.009 214.134,24.417 214.685,25.686C215.28,27.058 215.978,28.608 216.917,29.925C217.95,31.375 219.273,32.543 221.017,33.016C221.764,33.219 222.563,33.342 223.338,33.3C224.448,33.24 225.552,33.026 226.568,32.56C229.303,31.306 230.739,28.885 231.5,26.107C232.198,23.555 232.321,20.702 232.496,18.344C232.566,17.413 232.934,15.784 232.75,14.512ZM231.76,14.656L200.953,14.656C200.581,17.416 200.232,20.829 203.086,22.303C203.484,22.509 203.915,22.69 204.36,22.764C205.043,22.877 205.81,22.881 206.495,22.786C208.53,22.503 209.869,19.877 212.073,20.743C212.445,20.89 212.79,21.104 213.107,21.346C214.38,22.318 214.985,23.866 215.602,25.287C216.741,27.912 218.248,31.229 221.279,32.051C221.924,32.226 222.614,32.338 223.283,32.302C224.269,32.248 225.25,32.064 226.151,31.651C231.053,29.404 231.157,22.87 231.499,18.269C231.564,17.392 231.934,15.856 231.76,14.656Z" style="fill:#8d078e;"/>
        </g>
        <g>
            <g transform="matrix(1,0,0,1,-1.27518,-1.27518)">
                <path d="M51.709,60.566C51.844,59.003 52.162,57.43 52.891,56.027C53.521,54.815 54.432,53.894 55.598,53.2C59.383,50.945 63.635,51.385 66.196,55.171C67.295,56.796 68.454,60.168 70.693,60.554C72.462,60.859 74.165,59.633 75.494,58.631C77.641,57.014 80.593,54.77 83.46,55.192C85.711,55.523 89.908,59.184 86.692,61.182C86.189,61.494 85.619,61.692 85.05,61.846C82.711,62.479 80.18,62.257 77.793,62.11C74.37,61.9 70.974,61.602 67.564,61.226C62.424,60.658 56.848,60.778 51.709,60.566Z" style="fill:#00ae4e;"/>
            </g>
            <g transform="matrix(1,0,0,1,-1.27518,-1.27518)">
                <path d="M52.841,60.613C52.976,59.05 52.896,58.266 53.444,56.761C53.913,55.477 54.934,54.568 56.046,53.79C58.851,51.829 62.971,52.071 65.532,55.858C66.631,57.483 68.177,60.923 70.417,61.309C72.185,61.613 74.969,60.186 76.299,59.184C78.445,57.567 80.341,55.436 83.208,55.858C85.459,56.189 88.638,59.074 85.422,61.072C84.92,61.385 84.35,61.582 83.781,61.736C81.442,62.37 78.911,62.147 76.524,62C73.101,61.791 70.974,61.602 67.564,61.226C62.424,60.658 57.979,60.825 52.841,60.613Z" style="fill:#17c665;fill-opacity:0.5;"/>
            </g>
            <path d="M52.063,57.822C52.125,57.164 52.275,56.537 52.508,55.918C52.59,55.703 52.481,55.462 52.266,55.381C52.051,55.3 51.81,55.408 51.729,55.623C51.468,56.313 51.302,57.011 51.234,57.744C51.212,57.973 51.38,58.176 51.609,58.198C51.838,58.219 52.042,58.051 52.063,57.822ZM81.842,55.11C82.312,55.279 82.794,55.392 83.236,55.633C83.889,55.99 84.503,56.654 84.888,57.293C85.007,57.49 85.263,57.553 85.46,57.435C85.657,57.316 85.721,57.06 85.602,56.863C85.146,56.105 84.41,55.325 83.635,54.902C83.156,54.64 82.635,54.51 82.125,54.326C81.909,54.248 81.67,54.36 81.592,54.576C81.514,54.792 81.626,55.031 81.842,55.11ZM61.433,52.645C62.994,53.209 64.02,54.932 64.75,56.333C64.857,56.537 65.109,56.617 65.312,56.51C65.516,56.404 65.596,56.152 65.489,55.948C64.671,54.378 63.466,52.494 61.716,51.861C61.5,51.783 61.261,51.895 61.183,52.111C61.104,52.327 61.217,52.567 61.433,52.645ZM58.185,51.836C58.674,51.793 59.217,51.732 59.681,51.933C59.892,52.025 60.138,51.928 60.229,51.717C60.321,51.507 60.224,51.261 60.013,51.169C59.422,50.912 58.735,50.952 58.113,51.006C57.884,51.026 57.714,51.228 57.734,51.457C57.754,51.686 57.956,51.856 58.185,51.836Z" style="fill:#00cb5b;"/>
            <g transform="matrix(1,0,0,1,-1.27518,-1.27518)">
                <path d="M50.712,60.48C50.689,60.752 50.778,61.021 50.958,61.226C51.138,61.431 51.395,61.554 51.667,61.565C56.784,61.776 62.336,61.655 67.455,62.22C70.881,62.598 74.293,62.897 77.732,63.108C80.225,63.261 82.868,63.473 85.312,62.811C85.973,62.632 86.634,62.395 87.219,62.032C88.136,61.462 88.598,60.772 88.776,60.07C88.956,59.358 88.844,58.603 88.493,57.872C87.63,56.079 85.201,54.437 83.605,54.202C82.28,54.007 80.936,54.286 79.645,54.834C77.894,55.576 76.239,56.818 74.893,57.832C74.276,58.297 73.576,58.818 72.822,59.183C72.2,59.484 71.54,59.686 70.863,59.569C70,59.42 69.402,58.629 68.857,57.785C68.146,56.684 67.577,55.428 67.024,54.611C64.137,50.342 59.353,49.799 55.086,52.341C53.757,53.132 52.722,54.184 52.004,55.566C51.214,57.085 50.859,58.787 50.712,60.48ZM51.709,60.566C51.844,59.003 52.162,57.43 52.891,56.027C53.521,54.815 54.432,53.894 55.598,53.2C59.383,50.945 63.635,51.385 66.196,55.171C67.295,56.796 68.454,60.168 70.693,60.554C72.462,60.859 74.165,59.633 75.494,58.631C77.641,57.014 80.593,54.77 83.46,55.192C85.711,55.523 89.908,59.184 86.692,61.182C86.189,61.494 85.619,61.692 85.05,61.846C82.711,62.479 80.18,62.257 77.793,62.11C74.37,61.9 70.974,61.602 67.564,61.226C62.424,60.658 56.848,60.778 51.709,60.566Z" style="fill:#019342;"/>
            </g>
        </g>
        <g>
            <path d="M178.916,59.97C179.06,59.189 179.254,58.426 179.53,57.681C180.678,54.586 184.48,50.308 188.101,52.661C189.034,53.267 189.503,54.28 189.87,55.292C190.034,55.743 190.145,56.452 190.512,56.803C190.8,57.078 191.498,56.632 191.761,56.492C192.522,56.086 193.357,55.746 194.133,56.305C194.797,56.784 195.176,57.559 195.402,58.326C195.824,59.759 196.45,61.674 194.66,62.282C194.355,62.385 194.037,62.447 193.717,62.482C193.199,62.539 192.676,62.529 192.156,62.489C191.172,62.412 190.191,62.238 189.216,62.083C186.111,61.589 182.081,59.707 178.916,59.97Z" style="fill:#ffe200;"/>
            <path d="M179.972,59.97C180.116,59.189 180.31,58.426 180.586,57.681C181.733,54.586 184.626,51.724 187.297,53.464C188.229,54.072 188.699,55.083 189.066,56.095C189.23,56.547 189.341,57.256 189.708,57.607C189.996,57.882 190.437,57.967 191.151,57.601C191.918,57.208 192.808,56.295 193.583,56.854C194.248,57.333 194.627,58.109 194.853,58.875C195.275,60.308 196.45,61.674 194.66,62.282C194.355,62.385 194.037,62.447 193.717,62.482C193.199,62.539 192.676,62.529 192.156,62.489C191.172,62.412 190.191,62.238 189.216,62.083C186.111,61.589 183.137,59.707 179.972,59.97Z" style="fill:#fff7b8;fill-opacity:0.5;"/>
            <path d="M180.879,58.096C181.199,57.254 181.556,56.497 182.123,55.793C182.267,55.614 182.239,55.351 182.06,55.207C181.881,55.063 181.618,55.091 181.474,55.27C180.851,56.045 180.452,56.873 180.1,57.8C180.018,58.015 180.126,58.255 180.341,58.337C180.556,58.419 180.797,58.311 180.879,58.096ZM193.356,57.165C193.517,57.29 193.641,57.44 193.732,57.622C193.834,57.827 194.084,57.912 194.29,57.809C194.496,57.707 194.58,57.457 194.478,57.251C194.331,56.955 194.13,56.711 193.869,56.508C193.688,56.366 193.426,56.399 193.284,56.58C193.143,56.761 193.175,57.023 193.356,57.165ZM186.159,53.477C187.5,53.561 188.326,54.989 188.481,56.23C188.515,56.504 188.765,56.699 189.039,56.665C189.313,56.63 189.507,56.38 189.473,56.107C189.264,54.427 188.035,52.593 186.222,52.479C185.947,52.461 185.709,52.671 185.692,52.946C185.674,53.222 185.884,53.459 186.159,53.477Z" style="fill:#fff28d;"/>
            <path d="M191.051,55.73C190.96,55.456 190.891,55.173 190.81,54.95C190.369,53.736 189.765,52.549 188.646,51.822C186.856,50.659 185.031,50.79 183.393,51.631C181.192,52.761 179.355,55.276 178.593,57.333C178.296,58.133 178.087,58.951 177.932,59.788C177.876,60.095 177.965,60.41 178.174,60.641C178.383,60.872 178.688,60.992 178.998,60.966C180.474,60.844 182.149,61.24 183.82,61.706C185.65,62.216 187.473,62.818 189.059,63.071C190.06,63.23 191.068,63.407 192.079,63.486C192.66,63.531 193.246,63.54 193.827,63.476C194.219,63.433 194.608,63.356 194.981,63.229C196.376,62.755 196.838,61.777 196.86,60.633C196.877,59.803 196.6,58.853 196.361,58.044C196.074,57.069 195.562,56.103 194.717,55.494C193.6,54.688 192.388,55.025 191.291,55.609C191.245,55.633 191.15,55.681 191.051,55.73ZM178.916,59.97C179.06,59.189 179.254,58.426 179.53,57.681C180.678,54.586 184.48,50.308 188.101,52.661C189.034,53.267 189.503,54.28 189.87,55.292C190.034,55.743 190.145,56.452 190.512,56.803C190.8,57.078 191.498,56.632 191.761,56.492C192.522,56.086 193.357,55.746 194.133,56.305C194.797,56.784 195.176,57.559 195.402,58.326C195.824,59.759 196.45,61.674 194.66,62.282C194.355,62.385 194.037,62.447 193.717,62.482C193.199,62.539 192.676,62.529 192.156,62.489C191.172,62.412 190.191,62.238 189.216,62.083C186.111,61.589 182.081,59.707 178.916,59.97Z" style="fill:#c8b100;"/>
        </g>
        <g>
            <path d="M100.038,50.829C100.97,48.638 101.691,46.337 102.531,44.141C104.119,39.988 106.366,35.65 109.591,32.525C112.147,30.049 115.574,27.902 119.272,28.289C125.33,28.922 129.721,33.165 134.394,36.581C137.293,38.7 140.769,40.464 144.183,41.586C147.542,42.689 151.458,42.738 154.917,42.163C157.059,41.807 159.141,41 161.329,40.953C166.013,40.853 170.657,42.768 172.711,47.174C173.56,48.996 174.142,50.958 174.535,52.927C175.041,55.467 175.181,58.126 174.986,60.705L93.125,60.615L90.099,60.745C90.041,59.012 90.254,57.235 90.761,55.575C91.109,54.434 91.557,53.268 92.229,52.274C92.75,51.503 93.394,50.701 94.215,50.235C96.071,49.179 98.428,49.535 100.038,50.829Z" style="fill:#009ee0;"/>
            <g transform="matrix(0.956652,0,0,0.956652,5.74711,2.63319)">
                <path d="M99.345,53.228C100.276,51.036 101.197,48.139 102.036,45.942C103.625,41.789 105.871,37.452 109.096,34.327C111.652,31.85 115.08,29.704 118.778,30.091C124.835,30.724 129.226,34.967 133.899,38.383C136.799,40.502 140.274,42.266 143.688,43.388C147.047,44.491 150.963,44.54 154.422,43.965C156.564,43.609 158.646,42.801 160.834,42.755C165.519,42.655 170.163,44.57 172.217,48.975C173.066,50.797 173.648,52.76 174.04,54.729C174.547,57.268 174.886,58.197 174.986,60.705L93.125,60.615L90.588,60.724C90.53,58.991 90.501,58.151 90.61,57.338C90.763,56.205 91.062,55.07 91.734,54.075C92.255,53.305 92.9,52.503 93.72,52.036C95.577,50.981 97.734,51.933 99.345,53.228Z" style="fill:#22a9e2;"/>
            </g>
            <path d="M99.817,50.057C98.091,48.962 95.806,48.755 93.968,49.8C93.082,50.304 92.377,51.161 91.814,51.994C91.115,53.029 90.645,54.241 90.282,55.429C89.76,57.142 89.539,58.974 89.599,60.761C89.603,60.895 89.661,61.021 89.759,61.112C89.857,61.202 89.987,61.25 90.12,61.244L93.135,61.115C93.135,61.115 174.985,61.205 174.985,61.205C175.247,61.205 175.464,61.004 175.484,60.743C175.683,58.119 175.541,55.413 175.025,52.829C174.625,50.821 174.03,48.82 173.164,46.962C171.024,42.372 166.2,40.349 161.318,40.453C159.106,40.5 157,41.31 154.835,41.67C151.452,42.232 147.623,42.19 144.339,41.111C140.973,40.005 137.547,38.267 134.689,36.178C129.946,32.711 125.472,28.434 119.324,27.792C115.479,27.39 111.901,29.591 109.243,32.166C105.967,35.341 103.677,39.743 102.064,43.962C101.3,45.961 100.634,48.047 99.818,50.057L99.817,50.057ZM99.725,51.219C99.847,51.317 100.008,51.352 100.16,51.314C100.312,51.276 100.437,51.169 100.499,51.025C101.432,48.828 102.156,46.521 102.998,44.319C104.561,40.232 106.765,35.96 109.939,32.884C112.393,30.507 115.67,28.415 119.22,28.786C125.187,29.41 129.496,33.62 134.099,36.985C137.039,39.134 140.564,40.924 144.027,42.061C147.46,43.189 151.463,43.244 154.999,42.657C157.117,42.305 159.175,41.499 161.339,41.453C165.827,41.357 170.291,43.165 172.258,47.385C173.09,49.171 173.66,51.095 174.045,53.025C174.512,55.369 174.661,57.816 174.518,60.204C174.518,60.204 93.125,60.115 93.125,60.115L90.589,60.223C90.587,58.707 90.797,57.168 91.239,55.721C91.573,54.627 91.998,53.507 92.643,52.554C93.122,51.845 93.707,51.099 94.462,50.67C96.14,49.715 98.269,50.049 99.725,51.219Z" style="fill:#0379ab;"/>
            <path d="M170.491,50.036C171.486,52.262 171.976,54.701 172.181,57.123C172.204,57.398 172.446,57.603 172.721,57.579C172.996,57.556 173.201,57.314 173.177,57.039C172.963,54.505 172.444,51.956 171.404,49.628C171.291,49.376 170.995,49.263 170.743,49.376C170.491,49.488 170.378,49.784 170.491,50.036Z" style="fill:#00b4ff;"/>
            <path d="M132.541,38.711C135.432,40.752 138.286,42.973 141.657,44.179C141.819,44.237 141.998,44.152 142.056,43.99C142.114,43.827 142.03,43.648 141.867,43.59C138.55,42.404 135.747,40.208 132.901,38.201C132.76,38.101 132.565,38.135 132.465,38.276C132.366,38.417 132.4,38.612 132.541,38.711Z" style="fill:#00b4ff;"/>
            <path d="M103.393,47.456C104.031,45.824 104.5,44.132 105.395,42.608C105.482,42.46 105.432,42.268 105.284,42.181C105.135,42.093 104.943,42.143 104.856,42.292C103.944,43.845 103.461,45.566 102.811,47.228C102.748,47.389 102.828,47.57 102.988,47.633C103.149,47.696 103.33,47.617 103.393,47.456Z" style="fill:#00b4ff;"/>
            <path d="M93.058,55.874C93.466,54.686 94.309,53.651 95.352,52.957C95.761,52.685 96.19,52.431 96.688,52.376C96.859,52.357 96.983,52.202 96.964,52.031C96.945,51.859 96.79,51.736 96.619,51.754C96.02,51.821 95.498,52.109 95.005,52.437C93.851,53.206 92.919,54.355 92.467,55.67C92.41,55.833 92.497,56.011 92.66,56.067C92.823,56.123 93.001,56.037 93.058,55.874Z" style="fill:#00b4ff;"/>
            <path d="M98.104,52.389C98.481,52.532 98.932,52.673 99.237,52.952C99.364,53.068 99.562,53.06 99.678,52.932C99.795,52.805 99.786,52.607 99.659,52.491C99.298,52.16 98.773,51.974 98.325,51.805C98.164,51.744 97.983,51.825 97.922,51.986C97.861,52.148 97.942,52.328 98.104,52.389Z" style="fill:#00b4ff;"/>
        </g>
        <path d="M280,58.875L-0,58.875L-0,60.162C-0,62.211 1.664,63.875 3.713,63.875L276.287,63.875C278.336,63.875 280,62.211 280,60.162L280,58.875Z" style="fill:#f6c089;"/>
    </g>
</svg>
