<?xml version="1.0" encoding="UTF-8" standalone="no"?><!DOCTYPE svg PUBLIC "-//W3C//DTD SVG 1.1//EN" "http://www.w3.org/Graphics/SVG/1.1/DTD/svg11.dtd"><svg width="100%" height="100%" viewBox="0 0 280 62" version="1.1" xmlns="http://www.w3.org/2000/svg" xmlns:xlink="http://www.w3.org/1999/xlink" xml:space="preserve" xmlns:serif="http://www.serif.com/" style="fill-rule:evenodd;clip-rule:evenodd;stroke-linejoin:round;stroke-miterlimit:2;"><g><g><path d="M227.943,26.008c0.876,-4.455 2.646,-8.422 5.082,-12.23c0.812,-1.269 1.801,-2.415 2.618,-3.685c1.457,-2.263 -0.48,-3.228 -1.995,-2.878c-2.337,0.54 -4.013,1.496 -5.252,3.457c-0.994,1.573 -1.277,3.379 -1.477,5.197c-0.255,2.315 0.936,9.261 1.024,10.139Z" style="fill:#aed443;"/><path d="M227.943,26.008c-0.042,-0.417 -0.333,-2.203 -0.599,-4.211c-0.162,-5.878 2.777,-10.531 8.424,-14.115c0.485,0.481 0.6,1.286 -0.125,2.411c-0.817,1.27 -1.806,2.416 -2.618,3.685c-2.436,3.808 -4.206,7.775 -5.082,12.23Z" style="fill:#9cd01c;"/><path d="M227.528,26.05c-0.089,-0.886 -1.28,-7.892 -1.023,-10.227c0.207,-1.88 0.511,-3.746 1.539,-5.373c1.301,-2.06 3.055,-3.074 5.51,-3.641c1.094,-0.253 2.353,0.116 2.821,0.998c0.31,0.585 0.316,1.428 -0.382,2.512c-0.817,1.269 -1.805,2.415 -2.617,3.684c-2.408,3.763 -4.158,7.683 -5.025,12.086c-0.039,0.202 -0.222,0.345 -0.428,0.335c-0.206,-0.009 -0.374,-0.169 -0.395,-0.374Zm0.51,-2.287c0.983,-3.646 2.573,-6.985 4.636,-10.209c0.812,-1.27 1.801,-2.417 2.619,-3.686c0.468,-0.728 0.554,-1.278 0.345,-1.671c-0.309,-0.585 -1.172,-0.743 -1.896,-0.576c-2.22,0.513 -3.817,1.411 -4.994,3.274c-0.959,1.518 -1.222,3.265 -1.415,5.019c-0.175,1.589 0.342,5.378 0.705,7.849Z" style="fill:#91c11c;"/><path d="M229.2,39.367c1.66,1.542 3.664,2.501 5.707,3.428c5.708,2.59 12.007,3.33 18.185,3.885c0.481,0.044 0.959,0.098 1.441,0.116c0.398,0.015 0.797,0.027 1.195,0.058c1.363,0.106 4.883,0.163 4.136,2.421c-0.285,0.863 -0.98,1.537 -1.635,2.129c-1.588,1.434 -3.489,2.26 -5.527,2.844c-5.587,1.601 -11.813,1.076 -16.916,-1.729c-1.302,-0.716 -2.485,-1.719 -3.605,-2.687c-1.927,-1.667 -3.498,-3.718 -4.347,-6.144c-0.524,-1.499 0.299,-3.002 1.366,-4.321Z" style="fill:#9cd01c;"/><path d="M228.175,40.891c0.271,-0.527 0.631,-1.038 1.025,-1.524c1.66,1.542 3.664,2.501 5.707,3.428c5.708,2.59 12.007,3.33 18.185,3.885c0.481,0.044 0.959,0.098 1.441,0.116c0.398,0.015 0.797,0.027 1.195,0.058c1.22,0.095 4.167,0.151 4.238,1.779c-11.998,6.573 -27.821,0.44 -31.791,-7.742Z" style="fill:#aed443;"/><path d="M229.625,38.909c1.61,1.496 3.559,2.417 5.54,3.317c5.644,2.561 11.875,3.283 17.983,3.832c0.47,0.042 0.937,0.096 1.409,0.113c0.406,0.015 0.814,0.028 1.219,0.06c0.877,0.068 2.583,0.142 3.637,0.693c0.457,0.239 0.807,0.563 1.002,0.972c0.2,0.417 0.255,0.934 0.043,1.575c-0.32,0.966 -1.077,1.734 -1.81,2.397c-1.66,1.499 -3.644,2.37 -5.774,2.981c-5.743,1.645 -12.144,1.102 -17.389,-1.783c-1.34,-0.736 -2.56,-1.765 -3.713,-2.761c-2.009,-1.738 -3.643,-3.881 -4.528,-6.411c-0.594,-1.699 0.261,-3.426 1.47,-4.92l0.421,-0.521l0.49,0.456Zm-0.337,1.367c-0.734,1.006 -1.251,2.098 -0.864,3.205c0.812,2.322 2.321,4.283 4.166,5.878c1.087,0.94 2.233,1.918 3.497,2.612c4.96,2.727 11.012,3.232 16.443,1.676c1.945,-0.557 3.764,-1.338 5.28,-2.707c0.578,-0.522 1.209,-1.1 1.461,-1.861c0.086,-0.262 0.099,-0.473 0.017,-0.643c-0.144,-0.301 -0.5,-0.456 -0.893,-0.584c-0.909,-0.294 -2.069,-0.324 -2.716,-0.375c-0.389,-0.03 -0.779,-0.042 -1.169,-0.057c-0.493,-0.018 -0.982,-0.073 -1.474,-0.117c-6.247,-0.561 -12.615,-1.32 -18.387,-3.939c-1.898,-0.861 -3.76,-1.756 -5.361,-3.088Zm19.294,10.637c0.168,-0.011 0.334,-0.025 0.5,-0.042c0.343,-0.034 0.65,0.216 0.685,0.559c0.035,0.343 -0.216,0.65 -0.559,0.685c-4.557,0.462 -9.781,-1.206 -13.663,-3.251c-2.635,-1.387 -4.651,-2.956 -5.472,-4.132c-0.198,-0.282 -0.129,-0.672 0.154,-0.87c0.283,-0.198 0.673,-0.129 0.87,0.154c0.752,1.075 2.621,2.474 5.03,3.742c0.664,0.35 1.369,0.689 2.105,1.007c0.409,-0.456 0.747,-0.959 0.961,-1.543c0.119,-0.324 0.478,-0.491 0.802,-0.372c0.324,0.118 0.491,0.478 0.372,0.802c-0.218,0.594 -0.534,1.125 -0.919,1.609c2.402,0.921 5.042,1.583 7.575,1.673c0.258,-0.25 0.447,-0.541 0.58,-0.883c0.125,-0.321 0.488,-0.481 0.809,-0.356c0.322,0.125 0.481,0.487 0.356,0.809c-0.055,0.142 -0.117,0.278 -0.186,0.409Zm7.553,-1.366c0.323,-0.12 0.683,0.045 0.803,0.369c0.12,0.323 -0.045,0.683 -0.369,0.803c-1.318,0.488 -2.696,0.897 -4.083,1.145c-0.339,0.061 -0.664,-0.165 -0.725,-0.505c-0.061,-0.339 0.165,-0.664 0.505,-0.725c1.314,-0.235 2.619,-0.624 3.869,-1.087Zm-24.441,-37.539c-1.904,2.031 -2.62,4.868 -2.88,7.572c-0.148,1.53 -0.047,3.037 -0.316,4.562c-0.066,0.374 -0.423,0.624 -0.796,0.558c-0.374,-0.066 -0.624,-0.423 -0.559,-0.797c0.263,-1.489 0.157,-2.961 0.301,-4.455c0.289,-2.999 1.134,-6.128 3.247,-8.381c0.259,-0.277 0.695,-0.291 0.972,-0.031c0.277,0.26 0.291,0.696 0.031,0.972Z" style="fill:#91c11c;"/><path d="M226.514,29.85c3.029,-3.18 8.127,-5.973 16.725,-7.959c7.523,-1.737 15.747,-1.465 18.972,-2.235c7.187,-1.717 4.923,-6.995 2.131,-9.022c-3.139,-2.278 -7.778,-4.285 -15.099,-4.127c-10.694,0.231 -16.669,9.291 -17.754,10.758c-2.222,3.003 -4.308,7.907 -4.975,12.585Z" style="fill:#aed443;"/><path d="M226.514,29.85c6.225,-21.098 28.534,-20.587 40.499,-14.764c0.1,1.847 -1.091,3.683 -4.802,4.57c-3.225,0.77 -11.449,0.498 -18.972,2.235c-8.598,1.986 -13.696,4.779 -16.725,7.959Z" style="fill:#9cd01c;"/><path d="M225.689,29.733c0.687,-4.82 2.841,-9.87 5.13,-12.964c1.124,-1.518 7.335,-10.856 18.406,-11.095c7.57,-0.164 12.361,1.93 15.606,4.286c1.935,1.404 3.567,4.196 2.836,6.604c-0.482,1.59 -1.975,3.117 -5.263,3.902c-3.226,0.771 -11.452,0.499 -18.977,2.237c-8.377,1.934 -13.358,4.624 -16.309,7.722c-0.25,0.262 -0.641,0.333 -0.967,0.175c-0.326,-0.158 -0.513,-0.509 -0.462,-0.867Zm2.392,-2.399c3.207,-2.464 7.945,-4.632 14.971,-6.255c7.521,-1.737 15.741,-1.463 18.965,-2.234c2.463,-0.588 3.694,-1.573 4.055,-2.764c0.535,-1.764 -0.803,-3.744 -2.22,-4.772c-3.032,-2.202 -7.518,-4.122 -14.591,-3.969c-10.316,0.223 -16.055,9.006 -17.102,10.42c-0.951,1.285 -1.875,2.929 -2.666,4.755c2.036,-2.911 4.447,-5.606 7.344,-7.492c2.718,-1.769 5.994,-2.708 9.173,-3.147c3.392,-0.468 6.712,-0.313 10.115,-0.164c0.379,0.016 0.674,0.337 0.657,0.717c-0.016,0.379 -0.338,0.674 -0.717,0.657c-3.319,-0.145 -6.558,-0.303 -9.867,0.153c-0.039,0.006 -0.078,0.011 -0.118,0.017c1.473,0.682 2.702,1.8 3.8,3.123c0.243,0.292 0.203,0.726 -0.09,0.969c-0.292,0.242 -0.726,0.202 -0.968,-0.09c-1.466,-1.766 -3.174,-3.159 -5.547,-3.325c-0.093,-0.006 -0.179,-0.031 -0.258,-0.07c-1.918,0.502 -3.784,1.242 -5.429,2.313c-0.122,0.079 -0.242,0.16 -0.361,0.242c0.958,0.343 1.82,0.941 2.514,1.701c0.256,0.281 0.236,0.716 -0.044,0.972c-0.281,0.256 -0.716,0.236 -0.972,-0.044c-0.764,-0.838 -1.787,-1.434 -2.919,-1.556c-3.192,2.641 -5.69,6.293 -7.725,9.843Z" style="fill:#91c11c;"/><path d="M225.922,40.576c6.679,1.74 12.341,3.774 23.212,4.308c10.394,0.511 21.827,-3.515 24.718,-5.002c7.084,-3.643 7.194,-9.933 -0.317,-13.894c-11.727,-6.184 -24.559,-6.891 -34.785,-3.627c-7.57,2.416 -9.926,4.973 -13.876,6.99l1.048,11.225Z" style="fill:#aed443;"/><path d="M225.162,32.431c16.399,2.013 35.416,2.542 53.791,-0.817c0.861,2.995 -0.885,6.1 -5.101,8.268c-2.891,1.487 -14.324,5.513 -24.718,5.002c-10.871,-0.534 -16.533,-2.568 -23.212,-4.308l-0.76,-8.145Z" style="fill:#9cd01c;"/><path d="M225.093,40.653l-1.049,-11.225c-0.032,-0.34 0.147,-0.664 0.451,-0.819c3.984,-2.035 6.366,-4.605 14.002,-7.042c10.414,-3.324 23.484,-2.614 35.426,3.684c4.108,2.166 6.048,5.035 6.077,7.795c0.028,2.777 -1.869,5.573 -5.767,7.578c-2.94,1.511 -14.568,5.612 -25.14,5.092c-10.949,-0.538 -16.654,-2.581 -23.381,-4.334c-0.339,-0.088 -0.587,-0.38 -0.619,-0.729Zm1.605,-0.735c6.39,1.693 11.993,3.618 22.477,4.133c10.216,0.502 21.455,-3.449 24.296,-4.91c3.186,-1.638 4.885,-3.808 4.862,-6.078c-0.023,-2.287 -1.783,-4.543 -5.187,-6.338c-11.51,-6.07 -24.105,-6.774 -34.143,-3.57c-7.177,2.291 -9.622,4.717 -13.247,6.674l0.942,10.089Zm25.294,-5.531c1.585,1.662 2.561,4.067 2.802,6.266c0.038,0.342 -0.21,0.651 -0.553,0.689c-0.343,0.038 -0.652,-0.21 -0.689,-0.553c-0.254,-2.314 -1.407,-4.907 -3.329,-6.299c-0.038,-0.028 -0.073,-0.059 -0.103,-0.094c-2.38,0.004 -4.762,-0.025 -7.152,-0.085c-0.214,-0.005 -0.429,-0.01 -0.643,-0.016c-0.072,0.01 -0.143,0.007 -0.211,-0.005c-2.65,-0.067 -5.295,-0.147 -7.925,-0.397c-0.263,0.18 -0.625,0.158 -0.865,-0.071c-0.007,-0.007 -0.013,-0.013 -0.02,-0.02c-1.624,-0.179 -3.241,-0.431 -4.849,-0.791c-0.371,-0.082 -0.604,-0.451 -0.521,-0.821c0.083,-0.371 0.451,-0.604 0.821,-0.521c1.621,0.363 3.252,0.612 4.89,0.788c0.643,-0.823 0.943,-1.753 0.924,-2.851c-0.007,-0.38 0.296,-0.693 0.676,-0.7c0.379,-0.006 0.693,0.296 0.699,0.676c0.02,1.132 -0.221,2.125 -0.738,3.021c2.31,0.187 4.63,0.254 6.954,0.312c3.255,-1.076 4.915,-4.138 6.029,-7.172c0.131,-0.356 0.526,-0.539 0.883,-0.408c0.356,0.13 0.539,0.526 0.408,0.882c-0.949,2.586 -2.303,5.143 -4.493,6.761c4.651,0.083 9.28,0.046 13.919,-0.115c0.013,-0.008 0.026,-0.016 0.039,-0.024c0.938,-0.545 1.727,-1.241 2.29,-2.17c0.197,-0.325 0.62,-0.429 0.945,-0.232c0.324,0.196 0.428,0.62 0.232,0.944c-0.314,0.518 -0.684,0.978 -1.102,1.388c0.902,-0.039 1.804,-0.083 2.707,-0.132c0.38,-0.02 0.704,0.271 0.724,0.65c0.021,0.379 -0.27,0.703 -0.649,0.724c-4.044,0.218 -8.07,0.343 -12.1,0.376Zm15.106,-1.842c2.09,-0.022 4.22,-0.227 6.285,-0.556c0.375,-0.059 0.728,0.197 0.787,0.572c0.06,0.374 -0.196,0.727 -0.571,0.787c-2.131,0.339 -4.329,0.55 -6.487,0.573c-0.379,0.004 -0.691,-0.301 -0.695,-0.68c-0.004,-0.38 0.301,-0.691 0.681,-0.696Z" style="fill:#91c11c;"/></g><path d="M232.414,35.132l-0,-8.964c0.054,-5.39 -1.095,-11.241 -2.913,-15.181c-4.17,-9.037 -12.55,-10.987 -19.071,-10.987c-93.557,0 -122.248,3.855 -145.138,7.171c-30.988,4.49 -58.922,16.472 -62.817,18.997c-3.173,2.057 -3.405,6.756 -0,8.964c3.895,2.525 31.829,14.507 62.817,18.997c22.89,3.316 51.581,7.171 145.138,7.171c6.521,-0 14.901,-1.95 19.071,-10.987c1.818,-3.94 2.967,-9.791 2.913,-15.181Z" style="fill:#fc7916;"/><path d="M0.042,31.284c13.134,4.051 33.462,9.925 65.111,14.502c22.89,3.312 51.72,4.389 145.277,4.389c6.521,0 14.901,-1.949 19.071,-10.986c1.698,-3.678 2.811,-9.022 2.908,-14.101c0.007,0.362 0.008,0.722 0.005,1.08l-0,8.964c0.054,5.39 -1.095,11.241 -2.913,15.181c-4.17,9.037 -12.55,10.987 -19.071,10.987c-93.557,-0 -122.248,-3.855 -145.138,-7.171c-30.988,-4.49 -58.922,-16.472 -62.817,-18.997c-1.473,-0.955 -2.265,-2.376 -2.433,-3.848Z" style="fill:#f17313;"/><path d="M29.638,15.468c14.622,-2.639 30.12,-4.229 42.749,-5.519c31.696,-3.237 49.772,-3.137 138.321,-2.998c6.522,0.01 14.623,6.123 18.793,15.16c1.698,3.678 2.811,9.022 2.908,14.101c0.007,-0.362 0.008,-0.722 0.005,-1.08l-0,-8.964c0.054,-5.39 -1.095,-11.241 -2.913,-15.181c-4.17,-9.037 -12.55,-10.987 -19.071,-10.987c-93.557,-0 -122.248,3.855 -145.138,7.171c-12.923,1.873 -25.315,5.048 -35.654,8.297Z" style="fill:#ff8528;"/><path d="M232.414,35.132c0.054,5.39 -1.095,11.241 -2.913,15.181c-4.17,9.037 -12.55,10.987 -19.071,10.987c-93.557,-0 -122.248,-3.855 -145.138,-7.171c-30.988,-4.49 -58.922,-16.472 -62.817,-18.997c-3.405,-2.208 -3.173,-6.907 -0,-8.964c3.895,-2.525 31.829,-14.507 62.817,-18.997c22.89,-3.316 51.581,-7.171 145.138,-7.171c6.521,-0 14.901,1.95 19.071,10.987c1.818,3.94 2.967,9.791 2.913,15.181l-0,8.964Zm-223.022,-10.49c-3.057,1.322 -5.14,2.361 -6.011,2.925c-2.182,1.415 -2.342,4.647 0,6.166c0.843,0.546 2.821,1.537 5.72,2.798c-0.842,-1.731 -1.252,-3.834 -1.202,-5.949c0.049,-2.095 0.549,-4.193 1.493,-5.94Zm2.289,12.981c3.498,1.443 7.914,3.124 13.01,4.851c-2.254,-7.881 -2.257,-15.763 -0.011,-23.644c-4.887,1.656 -9.148,3.27 -12.573,4.672c-0.024,0.155 -0.091,0.305 -0.204,0.431c-1.52,1.695 -2.279,4.201 -2.338,6.689c-0.058,2.48 0.578,4.958 1.936,6.606c0.098,0.118 0.157,0.255 0.18,0.395Zm14.943,5.498c5.054,1.667 10.707,3.354 16.747,4.892c-3.19,-11.583 -3.243,-23.166 0.094,-34.75c-6.08,1.546 -11.77,3.243 -16.853,4.92c-2.598,8.313 -2.594,16.625 0.012,24.938Zm18.636,5.365c6.436,1.582 13.275,2.98 20.271,3.993c0.01,0.002 0.019,0.003 0.029,0.005c-3.295,-14.556 -3.383,-29.111 -0.005,-43.667c-0.008,0.001 -0.016,0.003 -0.024,0.004c-6.969,1.009 -13.783,2.4 -20.196,3.975c-0.003,0.072 -0.014,0.145 -0.036,0.217c-3.552,11.824 -3.469,23.648 -0.039,35.473Zm22.085,4.255c6.198,0.892 12.92,1.813 21.291,2.68c-3.911,-16.515 -3.841,-33.03 0.035,-49.546c-8.388,0.869 -15.12,1.791 -21.327,2.684c-3.523,14.727 -3.427,29.455 0.001,44.182Zm23.067,2.861c6.476,0.647 13.93,1.26 22.841,1.804c-2.162,-17.838 -2.224,-35.675 0.014,-53.512c-8.902,0.543 -16.35,1.155 -22.822,1.801c-3.992,16.635 -4.066,33.271 -0.033,49.907Zm24.549,1.906c6.368,0.374 13.465,0.714 21.455,1.006l0,-55.728c-7.984,0.292 -15.076,0.631 -21.44,1.005c-2.274,17.906 -2.21,35.811 -0.015,53.717Zm23.129,1.066c6.835,0.241 14.311,0.447 22.528,0.612c1.487,-20.511 1.443,-39.49 0.002,-57.072c-8.217,0.165 -15.695,0.371 -22.53,0.612l-0,55.848Zm24.212,0.645c6.704,0.129 13.892,0.23 21.616,0.3c4.231,-19.246 4.287,-38.492 -0.009,-57.738c-7.72,0.07 -14.904,0.171 -21.603,0.3c1.437,17.607 1.481,36.609 -0.004,57.138Zm23.35,0.315c6.411,0.054 13.186,0.087 20.355,0.096c4.658,-19.313 4.761,-38.626 -0.082,-57.939c-0.002,-0.007 -0.004,-0.014 -0.005,-0.021c-7.14,0.009 -13.889,0.042 -20.276,0.096c4.245,19.256 4.192,38.512 0.008,57.768Zm22.104,0.098c0.885,0.001 1.777,0.001 2.674,0.001c5.99,0 13.728,-1.718 17.558,-10.018c1.732,-3.754 2.81,-9.331 2.759,-14.467c0,-0.005 0,-0.011 0,-0.016l0,-8.964c0,-0.005 0,-0.011 0,-0.016c0.051,-5.136 -1.027,-10.713 -2.759,-14.467c-3.83,-8.3 -11.568,-10.018 -17.558,-10.018c-0.926,-0 -1.845,0 -2.757,0.001c4.779,19.321 4.682,38.643 0.083,57.964Z" style="fill:#ec5f32;"/><path d="M93.839,50.906c0.077,0.336 -0.133,0.672 -0.469,0.749c-0.337,0.077 -0.672,-0.133 -0.749,-0.469c-0.802,-3.49 -1.097,-6.939 -1.438,-10.487c-0.033,-0.343 0.219,-0.649 0.563,-0.682c0.343,-0.033 0.649,0.219 0.682,0.563c0.335,3.493 0.622,6.89 1.411,10.326Zm-33.008,-22.644c0.014,0.345 -0.255,0.636 -0.599,0.65c-0.345,0.014 -0.636,-0.255 -0.65,-0.599c-0.192,-4.758 0.04,-9.29 1.181,-13.923c0.082,-0.335 0.421,-0.54 0.756,-0.458c0.335,0.083 0.54,0.422 0.457,0.756c-1.111,4.518 -1.333,8.936 -1.145,13.574Zm-3.179,6.293c0.045,0.342 -0.197,0.656 -0.539,0.7c-0.342,0.044 -0.656,-0.197 -0.7,-0.539c-0.465,-3.591 -0.664,-7.322 -0.38,-10.939c0.027,-0.344 0.329,-0.601 0.672,-0.574c0.344,0.027 0.602,0.328 0.575,0.672c-0.278,3.531 -0.082,7.175 0.372,10.68Zm147.263,-21.513c-0.059,-0.34 0.169,-0.663 0.509,-0.722c0.34,-0.059 0.664,0.17 0.722,0.51c0.69,3.999 0.956,8.03 1.002,12.086c0.021,1.932 0.125,3.915 -0.114,5.837c-0.042,0.342 -0.355,0.586 -0.697,0.543c-0.342,-0.042 -0.586,-0.355 -0.543,-0.697c0.232,-1.867 0.125,-3.792 0.104,-5.669c-0.045,-3.99 -0.305,-7.954 -0.983,-11.888Zm-2.12,10.615c0,-0.345 0.28,-0.625 0.625,-0.625c0.345,-0 0.625,0.28 0.625,0.625c0,3.681 0.206,7.342 -0.346,11.001c-0.052,0.341 -0.37,0.577 -0.711,0.525c-0.341,-0.051 -0.577,-0.37 -0.525,-0.711c0.542,-3.597 0.332,-7.196 0.332,-10.815Zm12.747,18.461c0.015,-0.345 0.306,-0.613 0.651,-0.599c0.345,0.015 0.613,0.306 0.598,0.651c-0.154,3.677 -0.413,7.426 -1.36,10.996c-0.088,0.333 -0.431,0.532 -0.764,0.443c-0.334,-0.088 -0.533,-0.431 -0.444,-0.764c0.924,-3.482 1.169,-7.14 1.319,-10.727Zm2.872,4.528c0.032,-0.344 0.336,-0.597 0.679,-0.566c0.344,0.031 0.597,0.335 0.566,0.678c-0.104,1.152 -0.161,2.356 -0.483,3.475c-0.096,0.331 -0.442,0.523 -0.774,0.428c-0.331,-0.096 -0.523,-0.442 -0.427,-0.774c0.3,-1.043 0.342,-2.167 0.439,-3.241Zm-99.681,-40.907c0.021,-0.344 0.318,-0.606 0.662,-0.585c0.345,0.021 0.607,0.318 0.586,0.662c-0.155,2.519 -0.158,5.027 -0.114,7.548c0.007,0.345 -0.268,0.63 -0.613,0.636c-0.345,0.007 -0.63,-0.268 -0.636,-0.613c-0.046,-2.554 -0.042,-5.096 0.115,-7.648Zm2.955,4.048c0.023,-0.344 0.322,-0.604 0.666,-0.581c0.344,0.024 0.605,0.322 0.581,0.666c-0.064,0.936 -0.083,1.879 -0.174,2.813c-0.034,0.343 -0.34,0.594 -0.683,0.561c-0.344,-0.034 -0.595,-0.34 -0.561,-0.683c0.09,-0.922 0.108,-1.852 0.171,-2.776Zm35.369,38.367c-0,-0.345 0.28,-0.625 0.625,-0.625c0.344,0 0.625,0.28 0.625,0.625c-0,2.336 0.039,4.744 -0.182,7.073c-0.032,0.344 -0.337,0.596 -0.681,0.564c-0.343,-0.033 -0.596,-0.338 -0.563,-0.682c0.217,-2.29 0.176,-4.658 0.176,-6.955Zm23.647,-42.511c-0.065,-0.338 0.157,-0.667 0.495,-0.732c0.339,-0.065 0.667,0.156 0.732,0.495c0.578,2.987 1.134,6.106 1.064,9.166c-0.008,0.345 -0.295,0.618 -0.64,0.61c-0.344,-0.008 -0.618,-0.294 -0.61,-0.639c0.069,-2.971 -0.48,-5.999 -1.041,-8.9Zm-141.439,37.644c0.077,0.336 -0.133,0.672 -0.469,0.749c-0.336,0.077 -0.672,-0.133 -0.749,-0.469c-0.629,-2.738 -0.935,-5.51 -0.994,-8.315c-0.007,-0.345 0.267,-0.631 0.612,-0.638c0.345,-0.008 0.631,0.266 0.638,0.611c0.057,2.721 0.353,5.408 0.962,8.062Zm-18.958,-19.932c0.037,-0.343 0.345,-0.592 0.688,-0.556c0.343,0.037 0.592,0.345 0.555,0.688c-0.36,3.388 -0.581,6.782 -0.192,10.172c0.039,0.343 -0.208,0.653 -0.55,0.692c-0.343,0.039 -0.653,-0.207 -0.692,-0.55c-0.399,-3.481 -0.179,-6.967 0.191,-10.446Z" style="fill:#ec5f32;"/><path d="M226.6,15.808c-1.197,6.064 -7.172,4.622 -14.476,3.18c-7.304,-1.441 -13.19,-2.341 -11.994,-8.404c1.197,-6.063 7.635,-8.146 14.94,-6.704c7.304,1.442 12.726,5.865 11.53,11.928Zm-29.789,-6.291c-0.382,2.747 -3.38,4.603 -6.69,4.143c-3.309,-0.461 -62.3,-3.978 -61.918,-6.726c0.383,-2.747 59.995,-3.691 63.305,-3.23c3.309,0.461 5.686,3.066 5.303,5.813Zm-177.297,13.62c2.511,-1.423 11.369,-4.571 13.152,-4.984c1.549,-0.359 3.803,-0.852 5.357,-0.231c2.599,1.039 0.976,3.895 -0.734,4.912c-3.549,2.111 -15.903,1.784 -16.112,1.779c-0.541,-0.013 -3.341,-0.526 -1.663,-1.476Zm27.767,-3.622c-3.997,0.18 -4.328,-3.694 -0.114,-5.393c2.795,-1.127 9.463,-1.661 10.907,-1.777c1.18,-0.096 1.827,0.999 0.594,1.948c-2.454,1.889 -9.607,5.141 -11.387,5.222Z" style="fill:#ff9546;fill-opacity:0.25;"/></g></svg>