<?xml version="1.0" encoding="UTF-8" standalone="no"?>
<!DOCTYPE svg PUBLIC "-//W3C//DTD SVG 1.1//EN" "http://www.w3.org/Graphics/SVG/1.1/DTD/svg11.dtd">
<svg width="100%" height="100%" viewBox="0 0 280 62" version="1.1" xmlns="http://www.w3.org/2000/svg" xmlns:xlink="http://www.w3.org/1999/xlink" xml:space="preserve" xmlns:serif="http://www.serif.com/" style="fill-rule:evenodd;clip-rule:evenodd;stroke-linejoin:round;stroke-miterlimit:2;">
    <g id="banner_halloween_8_1" transform="matrix(1,0,0,1,0,-8.75)">
        <path d="M278.249,54.656L-0,54.656L-0,65.286C-0,67.888 2.112,70 4.714,70L275.286,70C277.888,70 280,67.888 280,65.286L280,60.2L278.249,54.656Z" style="fill:#241c0c;"/>
        <g transform="matrix(1,0,0,1,0,8.75)">
            <path d="M3.713,55.125C1.664,55.125 -0,53.461 -0,51.412L0,16.289C0,14.24 1.664,12.576 3.713,12.576L140,11.502L268.038,12.599C270.088,12.599 271.751,14.262 271.751,16.311L280,51.412C280,53.461 278.336,55.125 276.287,55.125L3.713,55.125Z"/>
        </g>
        <g transform="matrix(1,0,0,1,0,8.75)">
            <path d="M3.713,55.125C1.664,55.125 -0,53.461 -0,51.412L0,16.289C0,14.24 1.664,12.576 3.713,12.576L140,11.502L268.038,12.599C270.088,12.599 271.751,14.262 271.751,16.311L280,51.412C280,53.461 278.336,55.125 276.287,55.125L3.713,55.125ZM3.713,51.546C3.639,51.546 3.579,51.486 3.579,51.412L3.579,16.289C3.579,16.216 3.639,16.156 3.713,16.156C3.722,16.156 3.731,16.156 3.741,16.156L140,15.082C140,15.082 268.01,16.178 268.01,16.178C268.02,16.178 268.029,16.178 268.038,16.178C268.112,16.178 268.172,16.238 268.172,16.311C268.172,16.311 276.421,51.412 276.421,51.412C276.421,51.486 276.361,51.546 276.287,51.546L3.713,51.546Z" style="fill:#342509;"/>
        </g>
        <g>
            <g transform="matrix(1,0,0,1,0,8.75)">
                <path d="M11.154,51.472L202.827,61.3L275.012,50.848C277.028,50.655 278.094,49.781 278.282,48.276L278.725,43.246L277.762,40.12L258.242,11.06L250.679,7.259L184.117,0L5.386,10.96L0.731,14.564L0,22.269L3.943,47.103C4.395,49.811 7.296,51.342 11.154,51.472Z" style="fill:#523500;"/>
            </g>
            <g transform="matrix(1,0,0,1,0,8.75)">
                <path d="M5.482,41.507C6.065,45.051 8.861,46.46 12.964,46.609L202.948,55.897L274.321,46.38C276.689,45.906 280.639,44.427 277.652,39.955L258.084,10.824C256.995,8.767 254.919,7.582 251.738,7.375L184.117,0L5.311,10.965C2.745,11.183 0.231,12.576 0.817,15.793L5.482,41.507Z" style="fill:#906300;"/>
            </g>
            <g transform="matrix(1,0,0,1,0,8.75)">
                <path d="M9.949,42.602L202.1,51.742L274.536,42.027L253.6,10.084L184.834,1.974L4.77,13.686L9.949,42.602Z" style="fill:#b47c00;"/>
            </g>
            <g transform="matrix(1,0,0,1,0,8.75)">
                <path d="M259.893,43.991L244.905,46.001L116.897,47.689L75.702,45.73L92.137,46.512L255.76,44.546L259.893,43.991ZM267.478,35.049L268.086,35.043L271.793,40.507L9.9,42.331L9.1,37.861L9.224,38.557L267.808,35.554L267.478,35.049ZM261.506,25.938L262.885,25.922L266.747,32.035L8.384,33.868L7.52,29.042L7.583,29.392L261.996,26.685L261.506,25.938ZM255.743,17.144L256.28,17.138L259.713,22.154L6.73,24.63L5.866,19.803L5.985,20.469L256.038,17.595L255.743,17.144ZM224.66,10.463L231.006,10.399L253.96,12.974L254.496,14.153L7.52,17.138L75.154,11.955L92.323,11.783L74.799,12.923L230.629,11.166L224.66,10.463Z" style="fill:#bd8711;"/>
            </g>
            <g transform="matrix(1,0,0,1,0,8.75)">
                <path d="M255.76,44.546L92.137,46.512L71.156,45.514L265.998,43.173L255.76,44.546ZM267.808,35.554L9.224,38.557L9.001,37.309L266.995,34.313L267.808,35.554ZM261.996,26.685L7.583,29.392L7.359,28.144L261.182,25.443L261.996,26.685ZM256.038,17.595L5.985,20.469L5.761,19.222L255.225,16.354L256.038,17.595ZM230.629,11.166L74.799,12.923L98.046,11.411L220.954,10.025L230.629,11.166Z" style="fill:#523500;"/>
            </g>
            <g transform="matrix(1,0,0,1,0,8.75)">
                <path d="M5.441,17.434L184.834,5.766L253.6,13.876L272.252,42.334L274.536,42.027L253.6,10.084L184.834,1.974L4.77,13.686L5.441,17.434Z" style="fill:#523500;"/>
            </g>
            <g>
                <g transform="matrix(1,0,0,1,0,8.75)">
                    <path d="M195.301,7L184.834,5.766L176.379,6.316L183.945,13.769L183.533,8.733L185.995,9.808L187.359,7.99L189.721,12.33L192.389,7.856L194.456,8.465L195.301,7Z" style="fill:#241c0c;"/>
                </g>
                <g transform="matrix(1,0,0,1,0,8.75)">
                    <path d="M177.215,6.261L183.185,12.143L182.91,8.784C182.892,8.565 182.99,8.353 183.169,8.225C183.348,8.097 183.581,8.073 183.783,8.16C183.783,8.16 185.792,9.037 185.792,9.037L186.859,7.615C186.986,7.445 187.192,7.351 187.404,7.367C187.616,7.382 187.806,7.504 187.908,7.691C187.908,7.691 189.746,11.068 189.746,11.068L191.853,7.536C191.999,7.29 192.292,7.175 192.566,7.256C192.566,7.256 194.16,7.726 194.16,7.726L194.625,6.92L195.976,7.08L194.997,8.777C194.853,9.027 194.556,9.146 194.279,9.064C194.279,9.064 192.678,8.592 192.678,8.592L190.258,12.65C190.143,12.843 189.933,12.96 189.708,12.955C189.484,12.951 189.279,12.826 189.172,12.629C189.172,12.629 187.275,9.143 187.275,9.143L186.495,10.183C186.321,10.414 186.011,10.496 185.745,10.38C185.745,10.38 184.241,9.724 184.241,9.724L184.568,13.718C184.589,13.978 184.446,14.225 184.21,14.335C183.973,14.446 183.692,14.398 183.506,14.214L175.544,6.37L177.215,6.261Z" style="fill:#523500;"/>
                </g>
            </g>
            <g>
                <g transform="matrix(1,-2.10268e-16,0.256158,0.816314,-8.8799,13.8138)">
                    <path d="M246.149,22.687C249.31,22.219 250.583,23.424 251.316,24.64C251.846,25.52 252.585,27.324 251.409,30.175C250.928,31.34 249.531,32.915 247.384,33.605C245.214,34.301 242.873,34.423 240.631,34.096C237.354,33.618 235.994,31.937 235.983,28.367C235.976,26.406 236.668,24.435 238.501,23.225C239.42,22.619 240.565,22.679 240.505,23.122C238.832,24.416 239.143,25.785 239.18,26.506C239.223,27.34 239.529,28.475 240.291,28.948C240.878,29.313 241.733,29.31 242.4,29.281C243.939,29.214 244.844,29.188 246.334,28.785C246.874,28.639 247.421,28.454 247.858,28.091C249.091,27.066 249.322,23.898 246.149,22.687Z" style="fill:#241c0c;"/>
                </g>
                <g transform="matrix(1,-2.10268e-16,0.256158,0.816314,-8.8799,13.8138)">
                    <path d="M245.953,23.453C245.895,23.453 245.84,23.443 245.79,23.424C247.433,24.051 248.072,25.226 248.048,26.305C248.037,26.803 247.893,27.266 247.598,27.511C247.249,27.801 246.811,27.924 246.38,28.04C244.939,28.431 244.063,28.451 242.573,28.516C241.99,28.541 241.235,28.565 240.721,28.246C240.099,27.86 239.869,26.917 239.834,26.236C239.824,26.042 239.792,25.8 239.789,25.524C239.785,25.236 239.808,24.895 240.001,24.537C240.146,24.267 240.383,23.998 240.738,23.724L240.309,23.888L241.152,23.01C241.202,22.641 241.065,22.25 240.621,22.094C240.136,21.923 239.159,22.033 238.326,22.583C236.175,24.002 235.32,26.298 235.328,28.599C235.34,32.483 236.799,34.336 240.365,34.856C242.689,35.195 245.117,35.063 247.367,34.341C249.847,33.544 251.431,31.664 251.986,30.319C253.31,27.11 252.485,25.075 251.889,24.085C251.089,22.759 249.714,21.417 246.266,21.927L245.953,23.453ZM248.646,23.532C249.727,23.842 250.331,24.512 250.743,25.195C251.206,25.964 251.861,27.539 250.832,30.031C250.426,31.016 249.216,32.285 247.401,32.868C245.311,33.54 243.057,33.65 240.898,33.335C237.909,32.899 236.648,31.39 236.638,28.135C236.633,26.514 237.161,24.868 238.676,23.868C238.847,23.755 239.028,23.675 239.203,23.623C239.105,23.762 239.021,23.901 238.948,24.037C238.357,25.134 238.494,26.155 238.526,26.775C238.576,27.763 238.959,29.09 239.86,29.649C240.522,30.06 241.476,30.079 242.226,30.046C243.815,29.977 244.75,29.946 246.288,29.53C246.937,29.354 247.592,29.108 248.117,28.671C248.655,28.224 249.085,27.508 249.267,26.661C249.471,25.708 249.35,24.528 248.646,23.532Z" style="fill:#523500;"/>
                </g>
            </g>
            <g>
                <g transform="matrix(1,0,0,1,0,8.75)">
                    <path d="M14.484,42.818L13.663,39.379L16.077,40.452L17.417,30.65L20.635,35.357L21.775,33.038L24.792,35.29L27.808,25.368L30.423,36.027L34.914,34.955L38.803,42.731L40.076,41.055L41.309,44.094L14.484,42.818Z" style="fill:#241c0c;"/>
                </g>
                <g transform="matrix(1,0,0,1,0,8.75)">
                    <path d="M13.834,42.787L13.055,39.525C13,39.293 13.081,39.051 13.264,38.899C13.447,38.747 13.7,38.712 13.917,38.808C13.917,38.808 15.57,39.543 15.57,39.543L16.798,30.565C16.833,30.309 17.022,30.101 17.274,30.042C17.525,29.982 17.787,30.084 17.933,30.297C17.933,30.297 20.547,34.12 20.547,34.12L21.214,32.762C21.296,32.595 21.448,32.474 21.629,32.43C21.809,32.387 22,32.426 22.149,32.537C22.149,32.537 24.453,34.257 24.452,34.257L27.21,25.186C27.292,24.917 27.544,24.736 27.825,24.743C28.107,24.751 28.348,24.946 28.415,25.219C28.415,25.219 30.882,35.275 30.882,35.275L34.769,34.347C35.052,34.279 35.344,34.416 35.473,34.675C35.473,34.675 38.913,41.554 38.913,41.554L39.579,40.677C39.715,40.498 39.936,40.406 40.159,40.436C40.381,40.465 40.571,40.612 40.656,40.82L41.997,44.127L40.622,44.061L39.91,42.307L39.3,43.109C39.17,43.281 38.96,43.374 38.745,43.354C38.53,43.334 38.34,43.204 38.244,43.011C38.244,43.011 34.577,35.678 34.577,35.678L30.568,36.635C30.234,36.715 29.898,36.51 29.816,36.176C29.816,36.176 27.744,27.729 27.744,27.729L25.39,35.472C25.33,35.667 25.18,35.82 24.987,35.884C24.793,35.947 24.581,35.913 24.418,35.791C24.418,35.791 22.004,33.989 22.004,33.989L21.196,35.633C21.098,35.832 20.902,35.965 20.68,35.98C20.458,35.996 20.245,35.893 20.119,35.71C20.119,35.71 17.817,32.342 17.817,32.342L16.696,40.537C16.669,40.731 16.552,40.902 16.381,40.998C16.209,41.094 16.002,41.103 15.823,41.023C15.823,41.023 14.565,40.464 14.565,40.464L15.134,42.849L13.834,42.787Z" style="fill:#523500;"/>
                </g>
            </g>
        </g>
        <g>
            <g transform="matrix(1,0,0,1,0,8.75)">
                <path d="M218.791,49.504L199.203,5.517L198.664,7.38L216.945,49.751L218.791,49.504Z" style="fill:#523500;"/>
            </g>
            <g transform="matrix(1,0,0,1,0,8.75)">
                <path d="M226.54,48.464L218.791,49.504L199.203,5.517L205.081,6.214L226.54,48.464Z" style="fill:#6d4b00;"/>
            </g>
            <g transform="matrix(1,0,0,1,0,8.75)">
                <path d="M55.549,44.771L44.888,13.009L44.349,14.872L53.625,44.68L55.549,44.771Z" style="fill:#523500;"/>
            </g>
            <g transform="matrix(1,0,0,1,0,8.75)">
                <path d="M60.293,44.997L55.549,44.771L44.888,13.009L49.654,12.78L60.293,44.997Z" style="fill:#6d4b00;"/>
            </g>
        </g>
        <g transform="matrix(1,0,0,1,1.00637,9.60949)">
            <path d="M26,14.719C25.964,14.808 25.949,14.907 25.958,15.009C25.991,15.352 26.296,15.604 26.64,15.572C27.364,15.503 28.077,15.801 28.766,15.994C31.287,16.703 33.804,18.721 35.257,20.909C35.809,21.74 36.207,22.734 36.349,23.722C36.401,24.082 36.427,24.446 36.445,24.809C36.451,24.921 36.456,25.032 36.457,25.144C36.449,25.198 36.432,25.31 36.433,25.353C36.435,25.484 36.472,25.587 36.511,25.659C36.589,25.804 36.702,25.897 36.838,25.951C36.959,25.999 37.127,26.034 37.343,25.936C38.015,25.631 38.575,25.095 39.244,24.771C41.076,23.883 44.293,23.77 46.06,25.082C46.131,25.134 46.208,25.169 46.289,25.188L46.3,25.191C46.38,25.208 46.466,25.21 46.552,25.193C46.629,25.178 46.7,25.15 46.763,25.11L46.769,25.107C46.831,25.067 46.888,25.015 46.935,24.952C46.987,24.882 47.022,24.804 47.041,24.724L47.043,24.712C47.061,24.632 47.063,24.546 47.046,24.46C46.667,22.511 46.123,20.593 45.574,18.687C45.104,17.057 44.606,15.381 43.801,13.881C43.748,13.698 43.613,13.541 43.421,13.468C42.843,13.25 42.165,13.251 41.564,13.229C40.579,13.194 39.59,13.215 38.604,13.216C35.869,13.219 33.166,13.408 30.447,13.701C29.117,13.845 27.759,13.879 26.457,14.221C26.213,14.285 26.04,14.485 26,14.719ZM44.798,20.524C44.5,20.187 44.053,19.99 43.568,19.868C42.706,19.65 41.718,19.683 41.012,19.808C40.716,19.86 40.396,19.983 40.084,20.052C39.468,21.286 38.915,22.555 38.395,23.811C38.494,23.751 38.595,23.696 38.699,23.646C40.492,22.777 43.397,22.574 45.542,23.398C45.319,22.434 45.064,21.477 44.798,20.524ZM33.794,14.651C32.724,14.729 31.654,14.828 30.581,14.944C30.323,14.972 30.063,14.995 29.804,15.017C32.354,15.948 34.825,17.999 36.298,20.217C36.819,21.001 37.222,21.908 37.449,22.836C37.936,21.681 38.454,20.521 39.023,19.389C39.016,19.359 39.011,19.335 39.008,19.323C38.96,19.144 38.9,18.967 38.829,18.795C38.603,18.249 38.307,17.727 37.954,17.255C36.933,15.889 35.494,15.228 33.909,14.703C33.868,14.689 33.83,14.672 33.794,14.651ZM43.083,15.252C42.255,16.277 41.527,17.395 40.871,18.564C41.716,18.425 42.866,18.401 43.874,18.655C44.019,18.692 44.162,18.735 44.3,18.783C43.957,17.595 43.593,16.385 43.083,15.252ZM42.091,14.492C41.896,14.485 41.703,14.485 41.52,14.478C40.55,14.444 39.576,14.465 38.606,14.466C37.943,14.467 37.281,14.479 36.622,14.501C37.51,14.997 38.302,15.633 38.955,16.506C39.283,16.945 39.569,17.42 39.805,17.916C40.484,16.708 41.237,15.552 42.091,14.492Z" style="fill:#d0cfcd;"/>
        </g>
        <g transform="matrix(1,0,0,1,0,8.75)">
            <path d="M215.342,43.971C215.99,42.936 215.008,41.627 214.659,42.541C213.98,44.32 212.491,45.015 210.846,45.147C209.704,45.238 208.487,45.068 207.374,44.782C206.178,43.802 204.987,42.816 203.805,41.82C206.723,42.352 209.734,41.72 211.881,39.314C212.101,39.067 212.387,38.74 212.666,38.373C213.093,37.81 212.531,36.498 212.046,37.078C211.705,37.628 211.253,38.14 210.948,38.482C208.439,41.294 204.563,41.223 201.36,39.732L201.333,39.709C199.917,38.484 198.443,37.284 197.059,36C198.877,36.533 200.919,36.776 202.809,36.527C204.873,36.255 206.753,35.401 208.014,33.751C208.857,32.648 209.239,31.102 209.4,29.741C209.441,29.398 209.196,29.087 208.853,29.046C208.51,29.006 208.199,29.251 208.159,29.593C208.022,30.743 207.733,32.06 207.021,32.992C205.965,34.374 204.374,35.06 202.646,35.288C199.95,35.643 196.915,34.893 194.859,33.76L194.842,33.741C194.615,33.481 194.22,33.454 193.96,33.682C193.756,33.86 193.696,34.142 193.79,34.381C193.79,34.468 193.809,34.557 193.849,34.641C194.974,37.041 193.478,39.385 191.213,40.474C189.409,41.341 187.444,41.416 185.483,41.489C185.33,41.407 185.145,41.388 184.97,41.453C184.803,41.515 184.679,41.64 184.613,41.791C184.547,41.895 184.51,42.019 184.515,42.152C184.522,42.322 184.596,42.474 184.711,42.583C185.666,45.67 183.98,48.731 181.643,50.769L183.351,50.85C185.226,48.857 186.487,46.236 186.181,43.532C187.844,44.341 189.552,45.052 191.274,45.728C191.296,45.84 191.348,45.948 191.432,46.037C192.328,46.993 192.73,49 192.322,50.572C192.259,50.815 192.175,51.049 192.068,51.265L193.396,51.328C193.448,51.184 193.493,51.037 193.532,50.886C193.903,49.457 193.708,47.751 193.148,46.457L193.171,46.461C194.603,47.008 196.039,47.547 197.459,48.115C198.432,48.505 199.399,48.904 200.361,49.312C200.281,49.408 200.229,49.53 200.219,49.664C200.164,50.406 199.888,51.077 199.43,51.615L200.898,51.685C201.18,51.177 201.365,50.613 201.44,50.01C201.628,50.023 201.823,50.028 202.022,50.024C203.026,50.46 204.026,50.903 205.025,51.35L207.371,51.035C206.344,50.571 205.316,50.109 204.286,49.653C204.982,49.433 205.642,49.114 206.179,48.694C206.887,48.14 207.395,47.422 207.546,46.534C208.748,47.512 209.956,48.483 211.167,49.45C211.558,49.763 211.963,50.065 212.372,50.365L214.153,50.126C213.412,49.576 212.658,49.042 211.947,48.474C211.075,47.777 210.205,47.079 209.337,46.377C211.697,46.562 214.059,46.021 215.342,43.971ZM200.811,40.91C200.784,41.331 200.7,41.749 200.596,42.14C200.007,44.346 198.279,45.76 196.256,46.301C196.814,46.516 197.37,46.733 197.924,46.955C199.383,47.539 200.829,48.146 202.268,48.769C203.115,48.722 204.042,48.499 204.812,48.093C205.791,47.575 206.517,46.738 206.298,45.516C204.451,44.002 202.619,42.47 200.811,40.91ZM195.487,36.229C195.526,38.5 193.967,40.537 191.755,41.6C190.316,42.292 188.787,42.536 187.233,42.65C189.273,43.615 191.378,44.44 193.49,45.246C196,45.595 198.692,44.426 199.388,41.817C199.543,41.238 199.675,40.574 199.479,39.988C199.451,39.906 199.442,39.822 199.448,39.741C198.107,38.6 196.749,37.458 195.487,36.229Z" style="fill:#d0cfcd;"/>
        </g>
    </g>
</svg>
