<?xml version="1.0" encoding="UTF-8" standalone="no"?><!DOCTYPE svg PUBLIC "-//W3C//DTD SVG 1.1//EN" "http://www.w3.org/Graphics/SVG/1.1/DTD/svg11.dtd"><svg width="100%" height="100%" viewBox="0 0 280 62" version="1.1" xmlns="http://www.w3.org/2000/svg" xmlns:xlink="http://www.w3.org/1999/xlink" xml:space="preserve" xmlns:serif="http://www.serif.com/" style="fill-rule:evenodd;clip-rule:evenodd;stroke-linejoin:round;stroke-miterlimit:2;"><g id="banner_1"><path d="M280,39.051l-280,-0l-0,17.535c-0,2.602 2.112,4.714 4.714,4.714l270.572,0c2.602,0 4.714,-2.112 4.714,-4.714l0,-17.535Z" style="fill:#64e3ff;"/><path d="M-0,51.462c-0,2.049 1.664,3.713 3.713,3.713l272.574,-0c2.049,-0 3.713,-1.664 3.713,-3.713l-0,-47.699c-0,-2.049 -1.664,-3.713 -3.713,-3.713l-272.574,-0c-2.049,-0 -3.713,1.664 -3.713,3.713l-0,47.699Z" style="fill:url(#_Linear1);"/><path d="M74.622,17.258c-0.135,-0.797 -0.573,-1.853 -1.802,-1.924c-0.546,-0.032 -1.542,0.167 -1.946,1.393c-0.307,-0.938 -0.562,-1.697 -0.744,-2.159c-0.659,-1.67 -2.256,-3.396 -5.449,-2.703c-1.331,0.289 -3.762,0.889 -4.602,4.689c-0,0.002 -0.375,-0.57 -0.85,-0.408c-0.46,0.157 -0.524,0.529 -0.572,0.965c-0.425,-0.265 -0.984,-0.475 -1.721,-0.216c-0.962,0.337 -1.526,1.046 -1.84,2.18c-0.386,-0.063 -0.694,-0.222 -1.213,0.051c-0.454,0.24 -0.645,1.015 -0.903,1.344c-0.306,0.39 -1.146,0.943 -1.146,0.943c-0,0 2.469,0.166 4.408,-0.15c1.456,-0.237 2.759,-0.45 4.234,-0.377c2.912,0.146 5.308,0.174 8.18,0.599c1.802,0.267 3.983,0.54 5.805,0.582c2.207,0.052 4.321,0.011 6.485,-0.397c2.027,-0.382 4.081,-0.67 6.078,-1.193c0.513,-0.134 1.03,-0.29 1.512,-0.513c0.114,-0.052 0.372,-0.144 0.442,-0.263c0.056,-0.094 -0.447,-0.436 -0.511,-0.476c-0.346,-0.212 -0.732,-0.356 -1.063,-0.593c-0.336,-0.241 -0.605,-0.58 -0.897,-0.871c-0.584,-0.58 -1.432,-1.477 -2.338,-1.129c-0.312,0.119 -0.582,0.316 -0.848,0.513c-0.039,0.029 -0.27,0.263 -0.321,0.257c-0.019,-0.002 -0.075,-0.491 -0.088,-0.545c-0.09,-0.377 -0.266,-0.727 -0.51,-1.027c-0.689,-0.848 -1.796,-1.125 -2.852,-1.104c-1.306,0.027 -2.583,0.506 -3.333,0.985c-0.601,0.384 -1.205,1.031 -1.595,1.547Z" style="fill:#fff;"/><path d="M82.12,20.047c0.281,-0.122 0.476,-0.249 0.836,-0.209c0.266,0.03 0.796,0.235 1.058,0.283c0.732,0.134 1.571,-0.014 1.571,-0.014c0,-0 -0.947,0.381 -1.36,0.499c-1.169,0.333 -2.367,0.601 -3.569,0.786c-2.309,0.356 -4.709,0.444 -7.033,0.192c-0.93,-0.101 -1.862,-0.313 -2.78,-0.485c-2.142,-0.4 -4.317,-0.796 -6.479,-1.073c-1.476,-0.189 -2.892,-0.136 -4.364,0.077c-1.126,0.162 -2.229,0.459 -3.356,0.612c-0.621,0.085 -1.285,0.233 -1.96,0.246c-0.179,0.004 -0.826,0.012 -0.826,0.012c-0,-0 0.59,-0.308 0.902,-0.688c0.31,-0.377 0.576,-0.584 1.075,-0.565c0.096,0.004 0.264,0.087 0.349,0.075c0.237,-0.032 0.459,-0.658 0.583,-0.832c0.354,-0.499 0.938,-0.907 1.577,-0.867c0.53,0.032 1.017,0.153 1.447,0.636c0.139,0.157 0.321,0.454 0.452,0.776c-0.049,-0.38 0.015,-0.845 0.378,-0.953c0.366,-0.109 0.614,0.13 0.731,0.314c0.004,-1.318 0.302,-1.983 0.698,-2.363c0.848,-0.812 2.088,-1.004 3.214,-0.748c1.504,0.341 2.702,1.445 3.574,2.668c0.266,0.373 0.487,0.782 0.673,1.2c0.072,0.161 0.222,0.512 0.306,0.711c0.134,-0.203 0.282,-0.368 0.393,-0.497c0.348,-0.405 0.842,-0.606 1.371,-0.504c0.301,0.057 0.571,0.171 0.769,0.403c0.095,0.111 0.195,0.278 0.304,0.467c0.425,-0.578 0.536,-0.69 0.72,-0.88c0.5,-0.513 1.253,-0.909 1.979,-0.931c0.826,-0.025 1.598,0.499 2.187,1.03c0.315,0.285 0.694,0.776 1.147,0.837c0.189,0.026 0.397,-0.106 0.553,-0.193c0.352,-0.196 0.675,-0.438 1.065,-0.558c0.492,-0.15 1.333,-0.097 1.815,0.536Z" style="fill:#f3f3f3;"/><path d="M202.245,29.698c-0.169,-0.233 -0.396,-0.58 -0.474,-0.711c-0.308,-0.519 -0.715,-0.946 -1.262,-1.211c-0.654,-0.317 -1.445,-0.246 -2.11,0.011c-0.2,0.078 -0.526,0.246 -0.765,0.405c-0.019,0.013 -0.123,-0.494 -0.137,-0.547c-0.085,-0.338 -0.186,-0.657 -0.375,-0.953c-0.519,-0.817 -1.527,-1.271 -2.479,-1.282c-2.808,-0.032 -3.967,2.313 -4.694,4.573c-0.03,0.093 -0.159,-0.111 -0.243,-0.16c-0.198,-0.116 -0.41,-0.22 -0.636,-0.261c-1.201,-0.221 -2.143,0.453 -2.654,1.462c-0.017,0.035 -0.372,0.021 -0.422,0.026c-0.41,0.04 -0.799,0.179 -1.166,0.362c-0.839,0.419 -1.505,1.114 -2.322,1.572c-0.521,0.293 -1.776,0.776 -1.776,0.776c0,-0 2.008,0.031 3.185,-0.237c3.663,-0.832 5.703,-1.068 9.391,-0.823c3.482,0.231 6.942,0.631 10.411,1.014c1.589,0.176 3.173,0.202 4.771,0.198c0.699,-0.002 2.709,-0.169 2.713,-0.498c0.003,-0.217 -2.212,-1.285 -2.719,-1.747c-1.322,-1.207 -1.906,-3.168 -4.115,-2.887c-0.512,0.066 -1.035,0.238 -1.478,0.505c-0.083,0.049 -0.409,0.272 -0.644,0.413Z" style="fill:#fff;"/><path d="M188.468,31.821c-0.136,-0.242 -0.519,-0.295 -0.82,-0.238c-0.743,0.14 -2.041,1.192 -2.86,1.454c1.416,-0.303 2.911,-0.727 4.297,-0.804c2.698,-0.151 5.21,0.064 7.886,0.318c1.258,0.12 2.505,0.347 3.754,0.535c0.422,0.063 0.844,0.13 1.268,0.182c0.151,0.018 0.302,0.033 0.454,0.049c0.064,0.006 0.199,0.081 0.194,0.017c-0.012,-0.153 -0.312,-0.433 -0.408,-0.55c-0.372,-0.454 -0.657,-1.048 -1.321,-1.047c-0.243,0.001 -0.835,0.315 -0.997,0.145c-0.411,-0.433 -0.639,-0.979 -0.964,-1.469c-0.419,-0.632 -1.113,-1.193 -1.867,-1.352c-0.789,-0.166 -1.666,0.03 -2.229,0.636c-0.178,0.193 -0.482,0.596 -0.648,0.891c-0.268,-0.185 -0.579,-0.297 -0.888,-0.278c-0.431,0.026 -0.679,0.157 -1.014,0.774c-0.295,-0.281 -0.795,-0.456 -1.236,-0.434c-0.46,0.023 -1.551,0.062 -2.601,1.171Z" style="fill:#f3f3f3;"/><path d="M189.628,54.445c0.697,-1.26 1.291,-2.223 2.377,-3.113c3.361,-2.757 8.32,-2.111 11.317,0.888c0.889,0.89 1.611,2.001 2.074,3.171c0.171,0.433 0.402,1.344 0.402,1.344c1.069,-0.64 3.024,-1.029 4.78,-0.113c2.097,1.094 2.599,2.96 2.91,4.678l-54.999,-0c-0.033,-0.362 -0.109,-0.859 0.158,-1.221c0.524,-0.711 1.153,-0.687 1.962,-0.61c-0.452,-1.171 -0.345,-2.584 0.062,-3.511c0.831,-1.892 3.08,-3.152 4.989,-3.813c3.424,-1.186 7.463,-0.772 10.69,0.941c1.069,0.568 3.12,2.114 4.174,3.204c0.153,-0.975 0.314,-1.446 0.537,-2.075c0.657,-1.85 2.205,-3.119 4.244,-3.004c1.284,0.073 3.218,0.877 4.323,3.234Z" style="fill:#f0f0f0;"/><g><path d="M-0,13.832c1.771,-5.197 4.1,-9.696 6.76,-13.782l52.582,0c-14.595,10.013 -26.029,31.48 -29.634,61.25l-24.994,-0c-2.602,-0 -4.714,-2.112 -4.714,-4.714l-0,-42.754Z" style="fill:#ee3d2d;"/><path d="M-0,13.832c1.771,-5.197 4.1,-9.696 6.76,-13.782l43.806,-0c-13.075,8.181 -25.862,35.677 -27.3,61.25l-18.552,-0c-2.602,-0 -4.714,-2.112 -4.714,-4.714l-0,-42.754Z" style="fill:#fba824;"/><path d="M-0,13.832c1.771,-5.197 4.1,-9.696 6.76,-13.782l34.666,-0c-13.102,11.586 -21.423,28.287 -26.469,61.25l-10.243,-0c-2.602,-0 -4.714,-2.112 -4.714,-4.714l-0,-42.754Z" style="fill:#fdf20d;"/><path d="M-0,13.832c1.771,-5.197 4.1,-9.696 6.76,-13.782l25.331,0c-13.388,12.007 -21.968,33.015 -25.344,61.25l-2.033,-0c-2.602,-0 -4.714,-2.112 -4.714,-4.714l-0,-42.754Z" style="fill:#00ab4f;"/><path d="M-0,13.832c1.771,-5.197 4.1,-9.696 6.76,-13.782l16.461,0c-11.693,12.853 -19.87,31.18 -23.221,52.119l-0,-38.337Z" style="fill:#00acea;"/><path d="M-0,12.405c1.767,-4.268 4.836,-9.665 6.757,-12.355l7.889,-0c-5.991,7.005 -11.694,16.42 -14.646,26.873l-0,-14.518Z" style="fill:#9b268e;"/><path d="M-0,13.832c1.771,-5.197 4.1,-9.696 6.76,-13.782l52.582,0c-14.595,10.013 -26.029,31.48 -29.634,61.25l-24.994,-0c-2.602,-0 -4.714,-2.112 -4.714,-4.714l-0,-42.754Z" style="fill-opacity:0.15;"/></g><g><path d="M205.888,61.3c-6.495,-27.78 -16.576,-49.084 -31.714,-61.25l77.379,-0c15.769,17.159 23.453,37.327 27.927,58.689c-0.783,1.52 -2.368,2.561 -4.194,2.561l-69.398,-0Z" style="fill:#9b268e;"/><path d="M217.928,61.3c-2.722,-24.957 -14.362,-47.202 -28.461,-61.25l62.086,-0c15.769,17.159 23.453,37.327 27.927,58.689c-0.783,1.52 -2.368,2.561 -4.194,2.561l-57.358,-0Z" style="fill:#00acea;"/><path d="M232.477,61.3c-3.908,-22.905 -13.753,-42.291 -28.898,-61.25l47.974,-0c15.769,17.159 23.453,37.327 27.927,58.689c-0.783,1.52 -2.368,2.561 -4.194,2.561l-42.809,-0Z" style="fill:#00ab4f;"/><path d="M245.599,61.3c-5.316,-26.047 -16.138,-45.41 -29.811,-61.25l35.765,-0c15.769,17.159 23.453,37.327 27.927,58.689c-0.783,1.52 -2.368,2.561 -4.194,2.561l-29.687,-0Z" style="fill:#fdf20d;"/><path d="M256.969,61.3c-4.258,-25.214 -15.001,-44.969 -29.868,-61.25l24.452,-0c15.769,17.159 23.453,37.327 27.927,58.689c-0.783,1.52 -2.368,2.561 -4.194,2.561l-18.317,-0Z" style="fill:#fba824;"/><path d="M268.836,61.3c-4.865,-25.55 -16.002,-47.892 -29.414,-61.25l12.131,-0c15.769,17.159 23.453,37.327 27.927,58.689c-0.783,1.52 -2.368,2.561 -4.194,2.561l-6.45,-0Z" style="fill:#ee3d2d;"/></g><g><path d="M241.006,61.271l-2.042,-0.109c-17.959,-1.323 -21.812,-10.197 -22.223,-17.719c-0.422,-7.74 3.09,-11.979 4.252,-14.533l41.306,2.199c0.885,2.663 3.927,7.251 2.685,14.903c-1.207,7.436 -5.981,15.85 -23.978,15.259Z" style="fill:#4b3f4f;"/><path d="M260.8,55.225c-3.436,3.733 -9.417,6.386 -19.794,6.046l-2.042,-0.109c-17.959,-1.323 -21.812,-10.197 -22.223,-17.719c-0.422,-7.74 3.09,-11.979 4.252,-14.533l7.611,0.405c-0.877,2.27 -1.534,5.117 -1.337,8.725c0.41,7.522 4.264,16.395 22.222,17.718l2.042,0.109c3.59,0.118 6.654,-0.122 9.269,-0.642Z" style="fill:#3c313f;"/><path d="M257.754,57.769c-3.619,2.319 -8.939,3.758 -16.748,3.502l-2.042,-0.109c-17.959,-1.323 -21.812,-10.197 -22.223,-17.719c-0.422,-7.74 3.09,-11.979 4.252,-14.533l2.945,0.157c-1.468,2.636 -3.448,6.509 -3.125,12.43c0.411,7.522 4.265,16.395 22.223,17.718l2.042,0.109c5.283,0.174 9.427,-0.429 12.676,-1.555Z" style="fill:#302734;"/><path d="M241.782,24.128c9.658,0.515 17.78,2.215 20.591,3.955c1.54,0.954 2.022,2.169 1.971,3.135c-0.052,0.966 -0.66,2.123 -2.292,2.908c-2.98,1.432 -11.237,2.26 -20.895,1.746c-9.658,-0.514 -17.78,-2.214 -20.591,-3.955c-1.54,-0.954 -2.022,-2.169 -1.97,-3.135c0.051,-0.966 0.659,-2.123 2.292,-2.907c2.98,-1.433 11.236,-2.261 20.894,-1.747Zm-17.46,4.959c0.262,0.104 0.533,0.202 0.8,0.283c3.636,1.114 9.552,2.013 16.255,2.369c6.703,0.357 12.681,0.092 16.414,-0.629c0.275,-0.053 0.555,-0.122 0.826,-0.197c-0.262,-0.104 -0.533,-0.201 -0.8,-0.283c-3.636,-1.114 -9.552,-2.012 -16.255,-2.369c-6.702,-0.357 -12.681,-0.092 -16.414,0.629c-0.275,0.053 -0.554,0.122 -0.826,0.197Z" style="fill:#3c313f;"/><path d="M264.291,30.533c0.049,0.237 0.064,0.467 0.053,0.685c-0.052,0.966 -0.66,2.123 -2.292,2.908c-2.98,1.432 -11.237,2.26 -20.895,1.746c-9.658,-0.514 -17.78,-2.214 -20.591,-3.955c-1.54,-0.954 -2.022,-2.169 -1.97,-3.135c0.011,-0.217 0.051,-0.445 0.124,-0.675c0.167,0.815 0.726,1.711 1.918,2.45c2.811,1.741 10.933,3.44 20.591,3.955c9.659,0.514 17.915,-0.314 20.895,-1.747c1.265,-0.607 1.915,-1.439 2.167,-2.232Z" style="fill:#352a38;"/><path d="M224.322,29.087l-0.299,-0.016c-0.017,-0.206 -0.004,-0.414 0.04,-0.62c0.327,-1.529 2.27,-2.403 4.336,-1.949c0.622,0.136 1.184,0.377 1.658,0.689c0.589,-0.523 1.397,-0.917 2.323,-1.078c0.815,-0.141 1.601,-0.08 2.273,0.138c-0.132,-0.42 -0.151,-0.853 -0.036,-1.273c0.351,-1.283 1.843,-2.024 3.535,-1.864c0.805,-1.194 2.761,-1.451 4.535,-0.546c1.735,0.885 2.696,2.575 2.304,3.928c0.198,0.188 0.374,0.387 0.526,0.594c0.603,-0.761 1.628,-1.342 2.845,-1.519c1.862,-0.269 3.55,0.5 4.052,1.763c0.275,-0.044 0.561,-0.066 0.854,-0.063c2.115,0.021 3.817,1.307 3.8,2.872c-0.001,0.089 -0.008,0.177 -0.019,0.264c0.266,0.073 0.522,0.148 0.768,0.223c0.267,0.082 0.538,0.179 0.8,0.283c-0.271,0.075 -0.551,0.144 -0.826,0.197c-0.338,0.065 -0.694,0.127 -1.068,0.184c-1.805,0.279 -4.013,0.468 -6.498,0.552c-2.681,0.092 -5.684,0.062 -8.848,-0.107c-2.303,-0.122 -4.513,-0.309 -6.57,-0.546c-1.224,-0.141 -2.395,-0.301 -3.498,-0.475c-0.666,-0.105 -1.307,-0.216 -1.921,-0.332c-1.633,-0.307 -3.072,-0.65 -4.266,-1.016c-0.267,-0.081 -0.538,-0.179 -0.8,-0.283Z" style="fill:#fad500;"/><path d="M244.521,24.963c-0.321,-0.804 -1.033,-1.565 -2.001,-2.059c-0.514,-0.262 -1.026,-0.435 -1.532,-0.519c-0.586,-0.099 -1.071,-0.11 -1.583,-0.06c-0.14,0.013 -0.28,0.031 -0.42,0.054c0.972,-0.514 2.387,-0.482 3.702,0.189c0.048,0.024 0.095,0.05 0.142,0.075c1.645,0.903 2.543,2.537 2.162,3.853c0.198,0.188 0.374,0.387 0.526,0.594c0.603,-0.761 1.628,-1.342 2.845,-1.519c1.862,-0.269 3.55,0.5 4.052,1.763c0.275,-0.044 0.561,-0.066 0.854,-0.063c0.555,0.006 1.082,0.098 1.556,0.26c1.334,0.455 2.257,1.458 2.244,2.612c-0.001,0.089 -0.008,0.177 -0.019,0.264c0.266,0.073 0.522,0.148 0.768,0.223c0.267,0.082 0.538,0.179 0.8,0.283c-0.271,0.075 -0.551,0.144 -0.826,0.197c-0.338,0.065 -0.694,0.127 -1.068,0.184c-1.805,0.279 -4.013,0.468 -6.498,0.552c-0.203,0.007 -2.666,0.082 -2.873,0.088c-0.036,-0.306 -1.152,-1.262 -2.53,-0.768c0.667,-1.213 -1.232,-5.272 -3.659,-5.752c-0.29,-0.025 -0.583,-0.027 -0.87,-0.011c-0.037,0.007 -0.074,0.014 -0.111,0.023c0.049,-0.021 0.098,-0.041 0.147,-0.06c0.795,-0.331 1.826,-0.336 2.849,0.026c1.002,0.243 1.384,0.025 1.343,-0.429Zm-14.689,2.445c-0.186,-0.162 -0.373,-0.308 -0.537,-0.415c-0.408,-0.267 -0.707,-0.401 -1.216,-0.551c0.107,0.016 0.213,0.036 0.32,0.06c0.622,0.136 1.184,0.377 1.658,0.689c-0.079,0.07 -0.154,0.143 -0.225,0.217Zm4.981,-0.758c-0.19,-0.11 -0.407,-0.218 -0.652,-0.312c-0.385,-0.147 -0.823,-0.221 -1.398,-0.277c0.677,-0.066 1.324,0.006 1.89,0.19c0.042,0.135 0.096,0.268 0.16,0.399Zm3.152,-3.194c-0.709,-0.067 -1.347,0.027 -1.913,0.259c-0.322,0.131 -1.122,0.492 -1.507,1.71c0.008,-0.15 0.032,-0.3 0.072,-0.447c0.351,-1.283 1.843,-2.024 3.535,-1.864c-0.052,0.077 -0.099,0.158 -0.141,0.243c-0.016,0.033 -0.032,0.066 -0.046,0.099Z" style="fill:#eca800;"/><path d="M224.322,29.087l-0.299,-0.016c-0.017,-0.206 -6.517,-29.071 -6.517,-29.071l52.141,-0c-0,-0 -11.292,30.809 -11.03,30.913c-0.271,0.075 -0.551,0.144 -0.826,0.197c-0.338,0.065 -0.694,0.127 -1.068,0.184c-1.805,0.279 -4.013,0.468 -6.498,0.552c-2.681,0.092 -5.684,0.062 -8.848,-0.107c-2.303,-0.122 -4.513,-0.309 -6.57,-0.546c-1.224,-0.141 -2.395,-0.301 -3.498,-0.475c-0.666,-0.105 -1.307,-0.216 -1.921,-0.332c-1.633,-0.307 -3.072,-0.65 -4.266,-1.016c-0.267,-0.081 -0.538,-0.179 -0.8,-0.283Z" style="fill:url(#_Linear2);"/></g><g id="_4-clover" serif:id="4 clover"><path d="M214.706,41.247c-0.233,-0.261 -0.477,-0.481 -0.725,-0.634c-1.078,-0.712 -2.192,-0.773 -2.784,-0.151c-0.592,0.621 -0.663,1.924 0.464,2.639c-1.198,0.588 -1.268,1.892 -0.747,2.574c0.521,0.681 1.635,0.742 2.784,0.151c0.137,-0.066 0.276,-0.15 0.414,-0.248c0.126,-0.09 0.251,-0.193 0.376,-0.304c-0.261,0.234 -0.481,0.478 -0.635,0.726c-0.712,1.078 -0.772,2.191 -0.151,2.783c0.621,0.592 1.925,0.663 2.639,-0.463c0.589,1.197 1.892,1.268 2.574,0.747c0.682,-0.522 0.742,-1.635 0.151,-2.784c-0.125,-0.263 -0.318,-0.529 -0.552,-0.79c0.234,0.261 0.478,0.481 0.726,0.634c1.078,0.712 2.191,0.773 2.784,0.152c0.592,-0.622 0.663,-1.925 -0.464,-2.64c1.197,-0.588 1.268,-1.892 0.747,-2.574c-0.521,-0.681 -1.635,-0.742 -2.784,-0.151c-0.137,0.066 -0.276,0.15 -0.414,0.248c-0.126,0.09 -0.251,0.193 -0.376,0.304c0.261,-0.234 0.481,-0.478 0.635,-0.726c0.712,-1.078 0.772,-2.191 0.151,-2.783c-0.621,-0.592 -1.925,-0.663 -2.639,0.463c-0.589,-1.197 -1.892,-1.268 -2.574,-0.747c-0.682,0.522 -0.743,1.635 -0.151,2.784c0.125,0.263 0.318,0.529 0.551,0.79Z" style="fill:#68af23;"/><path d="M217.496,42.576c-0,-0 1.07,-1.148 1.39,-1.684c0.591,-0.927 0.643,-1.884 0.13,-2.392c-0.513,-0.508 -1.592,-0.566 -2.185,0.403c-0.485,-1.028 -1.563,-1.087 -2.128,-0.637c-0.566,0.449 -0.618,1.406 -0.131,2.392c0.263,0.573 1.244,1.827 1.244,1.827c0,-0 -1.124,-1.129 -1.663,-1.451c-0.928,-0.591 -1.885,-0.643 -2.393,-0.13c-0.507,0.513 -0.566,1.592 0.403,2.185c-1.028,0.485 -1.086,1.563 -0.637,2.129c0.449,0.565 1.406,0.617 2.392,0.13c0.561,-0.257 1.807,-1.184 1.807,-1.184c0,0 -1.082,1.114 -1.397,1.641c-0.591,0.928 -0.643,1.885 -0.13,2.392c0.514,0.508 1.592,0.567 2.185,-0.402c0.485,1.027 1.563,1.086 2.129,0.637c0.565,-0.449 0.617,-1.406 0.13,-2.393c-0.258,-0.561 -1.238,-1.784 -1.238,-1.784c0,0 1.125,1.09 1.657,1.408c0.928,0.591 1.885,0.643 2.393,0.13c0.508,-0.513 0.566,-1.591 -0.403,-2.185c1.028,-0.485 1.086,-1.563 0.637,-2.128c-0.449,-0.565 -1.406,-0.617 -2.392,-0.13c-0.564,0.258 -1.8,1.226 -1.8,1.226Z" style="fill:#6fbe22;"/><path d="M216.598,43.357l-4.435,-0.268c-1.028,0.485 -1.086,1.563 -0.637,2.129c0.449,0.565 1.406,0.617 2.392,0.13c0.442,-0.203 1.311,-0.822 1.658,-1.075l0.149,-0.109c0.297,-0.262 0.589,-0.53 0.873,-0.807Zm-0.215,4.438c0.485,1.027 1.563,1.086 2.129,0.637c0.565,-0.449 0.617,-1.406 0.13,-2.393c-0.258,-0.561 -1.238,-1.784 -1.238,-1.784l-0.806,-0.898l-0.215,4.438Zm0.215,-4.438l0.233,-4.454c-0.485,-1.028 -1.563,-1.087 -2.128,-0.637c-0.566,0.449 -0.618,1.406 -0.131,2.392c0.263,0.573 1.244,1.827 1.244,1.827l0.782,0.872Zm0,-0l4.453,0.251c1.028,-0.485 1.086,-1.563 0.637,-2.128c-0.449,-0.565 -1.406,-0.617 -2.392,-0.13c-0.564,0.258 -1.8,1.226 -1.8,1.226l-0.898,0.781Z" style="fill:#79c82c;"/><path d="M224.748,57.463c0.147,0.939 -1.595,1.102 -1.78,0.113c-0.271,-1.457 -0.357,-2.531 -0.731,-3.699c-0.181,-0.593 -0.352,-1.169 -0.537,-1.744c-0.082,-0.255 -0.166,-0.51 -0.255,-0.767c-0.337,-0.781 -0.692,-1.554 -1.077,-2.314c-0.109,-0.229 -0.226,-0.45 -0.352,-0.667c-0.125,-0.217 -0.258,-0.43 -0.404,-0.637c-0.029,-0.042 -0.059,-0.084 -0.088,-0.125c0.041,0.633 -0.154,1.17 -0.573,1.491c-0.688,0.525 -1.987,0.473 -2.616,-0.678c-0.749,1.076 -2.047,0.987 -2.674,0.39c-0.638,-0.608 -0.588,-1.752 0.142,-2.858c0.044,-0.071 0.094,-0.143 0.149,-0.214c-0.076,0.047 -0.152,0.089 -0.228,0.125c-1.18,0.606 -2.322,0.532 -2.857,-0.169c-0.526,-0.687 -0.473,-1.987 0.677,-2.615c-1.076,-0.75 -0.987,-2.048 -0.39,-2.674c0.608,-0.638 1.752,-0.589 2.859,0.142c0.071,0.044 0.142,0.094 0.213,0.149c-0.046,-0.077 -0.088,-0.153 -0.124,-0.229c-0.607,-1.179 -0.532,-2.321 0.168,-2.857c0.688,-0.525 1.987,-0.473 2.616,0.678c0.749,-1.076 2.047,-0.987 2.674,-0.39c0.638,0.608 0.588,1.752 -0.143,2.858c-0.044,0.072 -0.094,0.143 -0.148,0.214c0.076,-0.047 0.153,-0.089 0.229,-0.125c1.179,-0.606 2.321,-0.531 2.856,0.169c0.526,0.687 0.473,1.987 -0.677,2.615c1.075,0.75 0.987,2.048 0.389,2.674c-0.561,0.589 -1.578,0.592 -2.602,0.015c0.096,0.087 0.18,0.166 0.26,0.248c0.064,0.066 0.14,0.15 0.198,0.218c0.097,0.114 0.442,0.54 0.813,1.069c0.907,1.294 2.084,3.332 3.15,6.191c0.457,1.227 0.717,2.464 0.863,3.403Zm-5.977,-11.581c-0.104,-0.134 -0.217,-0.278 -0.338,-0.429c-0.051,-0.063 -0.441,-0.542 -0.441,-0.542c0,-0 0.434,0.439 0.492,0.496c0.15,0.151 0.282,0.28 0.4,0.392c0.129,0.107 0.26,0.199 0.387,0.278l0.002,0.001c1.049,0.693 2.132,0.764 2.708,0.16c0.572,-0.6 0.636,-1.859 -0.452,-2.549c-0.018,-0.011 -0.029,-0.032 -0.028,-0.053c0.001,-0.021 0.014,-0.041 0.033,-0.05c1.157,-0.568 1.23,-1.826 0.726,-2.485c-0.507,-0.663 -1.592,-0.71 -2.71,-0.134l-0.001,0c-0.135,0.065 -0.27,0.147 -0.405,0.244c-0.125,0.088 -0.251,0.184 -0.384,0.286c-0.065,0.05 -0.43,0.331 -0.43,0.331c-0,-0 0.322,-0.323 0.381,-0.387c0.235,-0.252 0.456,-0.488 0.606,-0.732l0.001,-0.001c0.693,-1.049 0.765,-2.132 0.16,-2.708c-0.6,-0.572 -1.858,-0.636 -2.549,0.452c-0.011,0.018 -0.031,0.028 -0.053,0.027c-0.021,-0.001 -0.04,-0.013 -0.05,-0.033c-0.568,-1.156 -1.826,-1.229 -2.484,-0.726c-0.664,0.508 -0.71,1.592 -0.135,2.71l0.001,0.002c0.123,0.258 0.321,0.513 0.529,0.788c0.119,0.158 0.385,0.49 0.367,0.47c0.018,0.02 -0.284,-0.28 -0.428,-0.416c-0.25,-0.236 -0.483,-0.46 -0.726,-0.611l-0.002,-0.001c-1.049,-0.693 -2.132,-0.764 -2.708,-0.16c-0.572,0.601 -0.636,1.859 0.452,2.549c0.018,0.011 0.029,0.032 0.028,0.053c-0.001,0.022 -0.014,0.041 -0.033,0.05c-1.157,0.568 -1.23,1.826 -0.726,2.485c0.507,0.663 1.591,0.71 2.709,0.134l0.002,-0c0.258,-0.124 0.518,-0.318 0.794,-0.524c0.069,-0.051 0.425,-0.337 0.425,-0.337c0,0 -0.319,0.333 -0.375,0.392c-0.116,0.121 -0.225,0.236 -0.327,0.35c-0.111,0.124 -0.207,0.25 -0.285,0.377l-0.001,0.001c-0.693,1.049 -0.765,2.132 -0.16,2.708c0.6,0.572 1.858,0.636 2.548,-0.452c0.012,-0.018 0.032,-0.028 0.054,-0.027c0.021,0.001 0.04,0.014 0.049,0.033c0.569,1.156 1.826,1.229 2.485,0.726c0.664,-0.508 0.71,-1.592 0.135,-2.71l-0.001,-0.002c-0.066,-0.138 -0.146,-0.282 -0.242,-0.426Z" style="fill:#018f35;"/></g><g id="_4-clover1" serif:id="4 clover"><path d="M241.784,47.343c0.132,-0.246 0.281,-0.463 0.444,-0.628c0.704,-0.754 1.557,-1.009 2.133,-0.637c0.575,0.371 0.874,1.37 0.133,2.135c1.039,0.233 1.338,1.232 1.06,1.858c-0.277,0.627 -1.13,0.882 -2.132,0.637c-0.119,-0.025 -0.242,-0.064 -0.368,-0.115c-0.115,-0.046 -0.231,-0.102 -0.349,-0.165c0.246,0.132 0.463,0.281 0.628,0.444c0.754,0.704 1.009,1.557 0.637,2.133c-0.371,0.576 -1.37,0.874 -2.135,0.133c-0.233,1.039 -1.232,1.338 -1.858,1.06c-0.627,-0.277 -0.882,-1.13 -0.637,-2.132c0.048,-0.228 0.148,-0.47 0.28,-0.717c-0.132,0.247 -0.281,0.463 -0.444,0.628c-0.704,0.754 -1.557,1.009 -2.133,0.638c-0.576,-0.372 -0.874,-1.371 -0.133,-2.136c-1.039,-0.233 -1.338,-1.231 -1.06,-1.858c0.277,-0.627 1.13,-0.882 2.132,-0.637c0.119,0.025 0.242,0.064 0.368,0.115c0.115,0.046 0.231,0.102 0.349,0.166c-0.246,-0.133 -0.463,-0.282 -0.628,-0.445c-0.754,-0.704 -1.009,-1.557 -0.638,-2.133c0.372,-0.575 1.371,-0.874 2.136,-0.133c0.233,-1.039 1.231,-1.338 1.858,-1.06c0.627,0.277 0.882,1.13 0.637,2.132c-0.048,0.228 -0.148,0.471 -0.28,0.717Z" style="fill:#68af23;"/><path d="M239.866,48.895c0,0 -1.045,-0.691 -1.393,-1.047c-0.632,-0.61 -0.851,-1.343 -0.548,-1.833c0.304,-0.49 1.13,-0.737 1.772,-0.095c0.184,-0.889 1.01,-1.136 1.533,-0.893c0.522,0.244 0.741,0.977 0.548,1.833c-0.097,0.494 -0.625,1.651 -0.625,1.651c0,-0 0.662,-1.086 1.021,-1.437c0.609,-0.632 1.342,-0.851 1.832,-0.548c0.49,0.304 0.737,1.13 0.096,1.772c0.888,0.184 1.135,1.01 0.892,1.533c-0.243,0.522 -0.976,0.741 -1.833,0.547c-0.483,-0.094 -1.624,-0.581 -1.624,-0.581c0,0 1.048,0.663 1.391,1.013c0.632,0.61 0.851,1.343 0.548,1.833c-0.304,0.49 -1.13,0.737 -1.771,0.095c-0.185,0.889 -1.011,1.135 -1.534,0.892c-0.522,-0.243 -0.741,-0.976 -0.547,-1.833c0.095,-0.484 0.627,-1.615 0.627,-1.615c-0,-0 -0.67,1.056 -1.023,1.402c-0.61,0.632 -1.343,0.851 -1.833,0.547c-0.49,-0.303 -0.737,-1.129 -0.095,-1.771c-0.889,-0.184 -1.136,-1.01 -0.893,-1.533c0.244,-0.523 0.977,-0.742 1.833,-0.548c0.486,0.096 1.626,0.616 1.626,0.616Z" style="fill:#6fbe22;"/><path d="M240.709,49.333l3.393,-1.035c0.888,0.184 1.135,1.01 0.892,1.533c-0.243,0.522 -0.976,0.741 -1.833,0.547c-0.381,-0.074 -1.171,-0.393 -1.488,-0.524l-0.136,-0.057c-0.279,-0.148 -0.556,-0.302 -0.828,-0.464Zm0.996,3.405c-0.185,0.889 -1.011,1.135 -1.534,0.892c-0.522,-0.243 -0.741,-0.976 -0.547,-1.833c0.095,-0.484 0.627,-1.615 0.627,-1.615l0.458,-0.849l0.996,3.405Zm-0.996,-3.405l-1.012,-3.413c0.184,-0.889 1.01,-1.136 1.533,-0.893c0.522,0.244 0.741,0.977 0.548,1.833c-0.097,0.494 -0.625,1.651 -0.625,1.651l-0.444,0.822Zm-0,0l-3.409,1.027c-0.889,-0.184 -1.136,-1.01 -0.893,-1.533c0.244,-0.523 0.977,-0.742 1.833,-0.548c0.486,0.096 1.626,0.616 1.626,0.616l0.843,0.438Z" style="fill:#79c82c;"/><path d="M237.051,59.002c-0.125,1.038 1.173,0.527 1.246,-0.449c0.029,-0.494 0.055,-0.973 0.09,-1.455c0.016,-0.213 0.034,-0.427 0.055,-0.642c0.116,-0.67 0.247,-1.336 0.404,-1.998c0.042,-0.197 0.092,-0.391 0.149,-0.583c0.057,-0.192 0.12,-0.382 0.195,-0.57c0.014,-0.038 0.029,-0.076 0.045,-0.114c0.086,0.499 0.338,0.88 0.723,1.05c0.632,0.28 1.631,-0.003 1.904,-1.014c0.782,0.695 1.773,0.384 2.148,-0.196c0.382,-0.592 0.13,-1.47 -0.644,-2.192c-0.047,-0.048 -0.099,-0.094 -0.155,-0.139c0.068,0.022 0.135,0.041 0.2,0.055c1.029,0.25 1.902,-0.021 2.186,-0.665c0.28,-0.632 -0.003,-1.631 -1.014,-1.904c0.695,-0.782 0.384,-1.773 -0.197,-2.148c-0.591,-0.382 -1.469,-0.13 -2.192,0.644c-0.047,0.048 -0.093,0.1 -0.138,0.155c0.022,-0.068 0.04,-0.135 0.054,-0.2c0.251,-1.029 -0.02,-1.902 -0.664,-2.186c-0.632,-0.28 -1.631,0.003 -1.904,1.014c-0.783,-0.695 -1.773,-0.384 -2.148,0.197c-0.382,0.591 -0.13,1.469 0.644,2.192c0.048,0.047 0.1,0.093 0.155,0.138c-0.068,-0.022 -0.135,-0.041 -0.201,-0.055c-1.028,-0.25 -1.901,0.021 -2.185,0.665c-0.28,0.632 0.003,1.631 1.014,1.904c-0.695,0.783 -0.384,1.773 0.197,2.148c0.545,0.353 1.336,0.165 2.022,-0.475c-0.058,0.086 -0.108,0.163 -0.155,0.242c-0.037,0.063 -0.081,0.142 -0.113,0.206c-0.054,0.107 -0.243,0.502 -0.431,0.981c-0.463,1.175 -0.996,2.976 -1.29,5.394Zm2.443,-7.302c0.055,-0.124 0.116,-0.257 0.182,-0.397c0.028,-0.058 0.241,-0.503 0.241,-0.503c-0,0 -0.255,0.422 -0.289,0.477c-0.088,0.145 -0.167,0.27 -0.237,0.379c-0.08,0.107 -0.165,0.203 -0.249,0.288l-0.001,0.001c-0.685,0.734 -1.512,0.992 -2.072,0.63c-0.556,-0.359 -0.841,-1.324 -0.125,-2.063c0.012,-0.012 0.016,-0.03 0.011,-0.046c-0.005,-0.017 -0.018,-0.029 -0.035,-0.033c-1.004,-0.225 -1.295,-1.188 -1.027,-1.793c0.27,-0.61 1.103,-0.848 2.078,-0.611l0.001,0.001c0.117,0.025 0.237,0.063 0.36,0.113c0.113,0.046 0.229,0.096 0.352,0.151c0.059,0.026 0.395,0.176 0.395,0.176c0,0 -0.31,-0.191 -0.368,-0.229c-0.229,-0.152 -0.445,-0.294 -0.607,-0.455l-0.001,-0.001c-0.734,-0.685 -0.992,-1.512 -0.63,-2.072c0.359,-0.556 1.324,-0.841 2.063,-0.125c0.012,0.012 0.03,0.016 0.046,0.011c0.017,-0.005 0.029,-0.018 0.033,-0.035c0.225,-1.003 1.188,-1.295 1.793,-1.027c0.61,0.27 0.848,1.103 0.611,2.078l-0.001,0.002c-0.047,0.223 -0.153,0.458 -0.263,0.71c-0.063,0.145 -0.207,0.452 -0.197,0.434c-0.01,0.018 0.168,-0.271 0.254,-0.403c0.151,-0.23 0.289,-0.448 0.45,-0.61l0.001,-0.001c0.685,-0.734 1.512,-0.992 2.072,-0.63c0.556,0.359 0.841,1.324 0.125,2.063c-0.012,0.012 -0.016,0.03 -0.011,0.046c0.005,0.017 0.018,0.029 0.035,0.033c1.003,0.225 1.295,1.188 1.027,1.793c-0.27,0.61 -1.103,0.848 -2.078,0.611l-0.001,-0.001c-0.224,-0.047 -0.462,-0.15 -0.714,-0.258c-0.063,-0.027 -0.393,-0.182 -0.393,-0.182c-0,0 0.309,0.199 0.364,0.234c0.113,0.073 0.219,0.142 0.319,0.211c0.109,0.076 0.207,0.155 0.292,0.239l0.001,0.001c0.734,0.685 0.992,1.512 0.63,2.072c-0.359,0.556 -1.324,0.841 -2.063,0.125c-0.012,-0.012 -0.03,-0.016 -0.046,-0.011c-0.017,0.005 -0.029,0.018 -0.033,0.035c-0.225,1.004 -1.188,1.295 -1.793,1.027c-0.61,-0.27 -0.848,-1.103 -0.611,-2.078l0.001,-0.001c0.025,-0.12 0.061,-0.247 0.108,-0.376Z" style="fill:#018f35;"/></g><g id="_4-clover2" serif:id="4 clover"><path d="M253.009,42.296c-0.002,-0.279 0.023,-0.541 0.087,-0.764c0.253,-1 0.878,-1.635 1.562,-1.586c0.683,0.048 1.426,0.779 1.145,1.806c1.023,-0.296 1.766,0.435 1.825,1.118c0.059,0.682 -0.565,1.317 -1.561,1.586c-0.117,0.035 -0.244,0.06 -0.378,0.076c-0.123,0.015 -0.252,0.022 -0.385,0.023c0.279,-0.002 0.54,0.023 0.764,0.087c1,0.253 1.635,0.878 1.586,1.561c-0.048,0.684 -0.779,1.427 -1.806,1.146c0.296,1.023 -0.435,1.766 -1.118,1.825c-0.682,0.059 -1.317,-0.566 -1.586,-1.561c-0.067,-0.223 -0.097,-0.484 -0.099,-0.763c0.002,0.279 -0.023,0.54 -0.087,0.764c-0.253,1 -0.878,1.634 -1.561,1.586c-0.684,-0.048 -1.427,-0.779 -1.146,-1.807c-1.023,0.297 -1.766,-0.434 -1.825,-1.117c-0.059,-0.683 0.566,-1.317 1.561,-1.586c0.117,-0.035 0.244,-0.06 0.378,-0.076c0.123,-0.015 0.252,-0.022 0.385,-0.023c-0.279,0.002 -0.54,-0.023 -0.764,-0.087c-1,-0.253 -1.634,-0.878 -1.586,-1.562c0.048,-0.683 0.779,-1.426 1.807,-1.145c-0.297,-1.023 0.434,-1.766 1.117,-1.825c0.683,-0.059 1.317,0.565 1.586,1.561c0.067,0.223 0.097,0.484 0.099,0.763Z" style="fill:#68af23;"/><path d="M252.078,44.58c-0,0 -1.249,-0.102 -1.726,-0.246c-0.848,-0.229 -1.393,-0.766 -1.363,-1.342c0.03,-0.575 0.634,-1.19 1.506,-0.937c-0.267,-0.867 0.338,-1.482 0.913,-1.52c0.575,-0.039 1.12,0.498 1.363,1.342c0.153,0.479 0.249,1.746 0.249,1.746c-0,0 0.056,-1.27 0.201,-1.75c0.23,-0.848 0.767,-1.393 1.342,-1.363c0.576,0.03 1.19,0.634 0.938,1.506c0.867,-0.267 1.481,0.338 1.52,0.913c0.039,0.575 -0.498,1.12 -1.342,1.363c-0.469,0.15 -1.703,0.273 -1.703,0.273c0,0 1.238,0.076 1.707,0.218c0.848,0.229 1.393,0.766 1.363,1.342c-0.029,0.575 -0.634,1.19 -1.506,0.937c0.267,0.867 -0.338,1.482 -0.913,1.52c-0.575,0.039 -1.12,-0.498 -1.363,-1.342c-0.15,-0.469 -0.229,-1.718 -0.229,-1.718c-0,0 -0.078,1.248 -0.221,1.722c-0.23,0.848 -0.767,1.393 -1.342,1.363c-0.576,-0.029 -1.19,-0.634 -0.937,-1.506c-0.868,0.267 -1.482,-0.338 -1.521,-0.913c-0.039,-0.575 0.498,-1.12 1.342,-1.363c0.472,-0.151 1.722,-0.245 1.722,-0.245Z" style="fill:#6fbe22;"/><path d="M253.027,44.558l2.474,-2.542c0.867,-0.267 1.481,0.338 1.52,0.913c0.039,0.575 -0.498,1.12 -1.342,1.363c-0.37,0.118 -1.215,0.22 -1.556,0.258l-0.147,0.015c-0.316,0.006 -0.632,0.004 -0.949,-0.007Zm2.513,2.504c0.267,0.867 -0.338,1.482 -0.913,1.52c-0.575,0.039 -1.12,-0.498 -1.363,-1.342c-0.15,-0.469 -0.229,-1.718 -0.229,-1.718l-0.008,-0.964l2.513,2.504Zm-2.513,-2.504l-2.532,-2.503c-0.267,-0.867 0.338,-1.482 0.913,-1.52c0.575,-0.039 1.12,0.498 1.363,1.342c0.153,0.479 0.249,1.746 0.249,1.746l0.007,0.935Zm-0,0l-2.492,2.543c-0.868,0.267 -1.482,-0.338 -1.521,-0.913c-0.039,-0.575 0.498,-1.12 1.342,-1.363c0.472,-0.151 1.722,-0.245 1.722,-0.245l0.949,-0.022Z" style="fill:#79c82c;"/><path d="M255.803,57.266c0.419,0.633 1.534,-0.208 1.111,-0.891c-0.623,-1.006 -1.15,-1.686 -1.557,-2.576c-0.212,-0.447 -0.421,-0.879 -0.621,-1.318c-0.089,-0.195 -0.177,-0.39 -0.262,-0.589c-0.222,-0.643 -0.428,-1.29 -0.609,-1.945c-0.058,-0.194 -0.108,-0.388 -0.151,-0.584c-0.043,-0.195 -0.079,-0.392 -0.104,-0.592c-0.005,-0.041 -0.01,-0.081 -0.015,-0.122c0.316,0.396 0.72,0.608 1.139,0.572c0.689,-0.06 1.428,-0.789 1.18,-1.807c1.021,0.232 1.739,-0.518 1.787,-1.207c0.05,-0.702 -0.594,-1.35 -1.62,-1.61c-0.065,-0.019 -0.133,-0.034 -0.203,-0.047c0.07,-0.013 0.137,-0.029 0.202,-0.049c1.022,-0.276 1.656,-0.935 1.595,-1.635c-0.059,-0.689 -0.789,-1.428 -1.806,-1.18c0.232,-1.021 -0.519,-1.739 -1.208,-1.787c-0.702,-0.05 -1.35,0.594 -1.61,1.621c-0.019,0.064 -0.034,0.132 -0.046,0.202c-0.014,-0.07 -0.03,-0.137 -0.05,-0.202c-0.276,-1.022 -0.934,-1.656 -1.635,-1.595c-0.689,0.059 -1.428,0.789 -1.18,1.806c-1.021,-0.232 -1.739,0.519 -1.787,1.208c-0.05,0.702 0.594,1.35 1.621,1.61c0.064,0.019 0.132,0.034 0.202,0.046c-0.07,0.014 -0.138,0.03 -0.202,0.05c-1.022,0.276 -1.656,0.934 -1.595,1.635c0.06,0.689 0.789,1.428 1.807,1.18c-0.232,1.021 0.518,1.739 1.207,1.787c0.648,0.046 1.25,-0.499 1.544,-1.391c-0.01,0.104 -0.017,0.195 -0.02,0.287c-0.002,0.073 -0.002,0.163 0,0.235c0.005,0.119 0.03,0.556 0.095,1.068c0.161,1.251 0.562,3.087 1.471,5.347c0.39,0.97 0.902,1.84 1.32,2.473Zm-2.7,-10.049c-0.011,-0.134 -0.022,-0.281 -0.031,-0.435c-0.004,-0.065 -0.032,-0.557 -0.032,-0.557c0,0 -0.02,0.493 -0.023,0.557c-0.008,0.17 -0.017,0.317 -0.026,0.447c-0.018,0.132 -0.046,0.257 -0.078,0.372l-0.001,0.001c-0.246,0.974 -0.847,1.598 -1.512,1.551c-0.66,-0.047 -1.375,-0.755 -1.104,-1.747c0.005,-0.017 0,-0.034 -0.012,-0.046c-0.012,-0.012 -0.03,-0.017 -0.046,-0.012c-0.989,0.287 -1.708,-0.416 -1.765,-1.076c-0.057,-0.664 0.558,-1.275 1.527,-1.536l0.001,-0.001c0.114,-0.034 0.238,-0.059 0.37,-0.074c0.121,-0.015 0.247,-0.026 0.381,-0.037c0.064,-0.006 0.431,-0.037 0.431,-0.037c0,0 -0.364,-0.017 -0.433,-0.023c-0.274,-0.022 -0.531,-0.043 -0.751,-0.106l-0.001,0c-0.974,-0.246 -1.598,-0.847 -1.551,-1.512c0.046,-0.661 0.755,-1.375 1.747,-1.104c0.017,0.005 0.034,-0 0.046,-0.012c0.012,-0.012 0.017,-0.03 0.012,-0.047c-0.287,-0.988 0.416,-1.707 1.076,-1.764c0.664,-0.058 1.275,0.557 1.536,1.527l0.001,0.001c0.066,0.219 0.086,0.476 0.112,0.749c0.014,0.158 0.036,0.497 0.036,0.476c0,0.021 0.017,-0.319 0.029,-0.476c0.021,-0.274 0.037,-0.532 0.1,-0.751l-0,-0.002c0.246,-0.973 0.847,-1.597 1.512,-1.55c0.661,0.046 1.375,0.754 1.104,1.747c-0.005,0.016 0,0.034 0.012,0.046c0.012,0.012 0.03,0.017 0.047,0.012c0.988,-0.287 1.707,0.416 1.764,1.076c0.057,0.664 -0.557,1.274 -1.527,1.536l-0.001,0.001c-0.219,0.066 -0.476,0.091 -0.75,0.118c-0.068,0.006 -0.432,0.029 -0.432,0.029c-0,0 0.367,0.025 0.432,0.03c0.134,0.009 0.26,0.018 0.381,0.031c0.132,0.013 0.257,0.036 0.371,0.068l0.002,0.001c0.973,0.246 1.597,0.847 1.55,1.512c-0.046,0.66 -0.754,1.375 -1.747,1.104c-0.016,-0.005 -0.034,-0 -0.046,0.012c-0.012,0.012 -0.017,0.03 -0.012,0.046c0.287,0.989 -0.416,1.708 -1.076,1.765c-0.664,0.057 -1.275,-0.558 -1.536,-1.527l-0.001,-0.001c-0.035,-0.118 -0.065,-0.246 -0.086,-0.382Z" style="fill:#018f35;"/></g><g id="_4-clover3" serif:id="4 clover"><path d="M267.906,37.306c0.165,-0.278 0.347,-0.521 0.543,-0.705c0.848,-0.839 1.846,-1.094 2.494,-0.638c0.648,0.456 0.947,1.624 0.055,2.474c1.191,0.317 1.489,1.485 1.14,2.196c-0.349,0.711 -1.347,0.967 -2.494,0.638c-0.136,-0.035 -0.277,-0.086 -0.419,-0.15c-0.131,-0.059 -0.263,-0.129 -0.396,-0.207c0.279,0.164 0.522,0.346 0.705,0.542c0.839,0.849 1.095,1.846 0.639,2.494c-0.457,0.648 -1.624,0.947 -2.474,0.056c-0.317,1.19 -1.485,1.488 -2.196,1.139c-0.712,-0.349 -0.967,-1.347 -0.638,-2.494c0.066,-0.26 0.192,-0.536 0.357,-0.814c-0.165,0.278 -0.346,0.521 -0.543,0.705c-0.848,0.839 -1.845,1.094 -2.493,0.638c-0.648,-0.456 -0.947,-1.624 -0.056,-2.474c-1.19,-0.317 -1.489,-1.485 -1.139,-2.196c0.349,-0.711 1.347,-0.967 2.493,-0.638c0.137,0.035 0.277,0.086 0.42,0.15c0.13,0.059 0.262,0.129 0.395,0.207c-0.278,-0.164 -0.521,-0.346 -0.705,-0.542c-0.839,-0.849 -1.094,-1.846 -0.638,-2.494c0.456,-0.648 1.624,-0.947 2.474,-0.056c0.317,-1.19 1.485,-1.488 2.196,-1.139c0.711,0.349 0.967,1.347 0.638,2.494c-0.066,0.26 -0.193,0.536 -0.358,0.814Z" style="fill:#68af23;"/><path d="M265.62,39.012c-0,-0 -1.176,-0.847 -1.562,-1.275c-0.702,-0.733 -0.922,-1.591 -0.549,-2.143c0.374,-0.552 1.34,-0.799 2.052,-0.028c0.254,-1.018 1.22,-1.266 1.812,-0.96c0.593,0.305 0.812,1.162 0.549,2.143c-0.135,0.566 -0.798,1.878 -0.798,1.878c0,-0 0.815,-1.224 1.246,-1.613c0.733,-0.702 1.59,-0.922 2.143,-0.548c0.552,0.373 0.799,1.339 0.028,2.051c1.018,0.254 1.265,1.22 0.96,1.812c-0.305,0.593 -1.162,0.813 -2.143,0.549c-0.554,-0.132 -1.849,-0.747 -1.849,-0.747c-0,0 1.18,0.814 1.56,1.235c0.703,0.733 0.922,1.591 0.549,2.143c-0.374,0.552 -1.34,0.799 -2.052,0.028c-0.254,1.019 -1.22,1.266 -1.812,0.961c-0.593,-0.305 -0.812,-1.163 -0.549,-2.143c0.132,-0.556 0.8,-1.839 0.8,-1.839c-0,0 -0.823,1.19 -1.248,1.573c-0.733,0.703 -1.59,0.922 -2.143,0.549c-0.552,-0.374 -0.799,-1.34 -0.028,-2.052c-1.018,-0.254 -1.265,-1.22 -0.96,-1.812c0.305,-0.593 1.162,-0.812 2.143,-0.549c0.557,0.133 1.851,0.787 1.851,0.787Z" style="fill:#6fbe22;"/><path d="M266.573,39.557l3.968,-1.04c1.018,0.254 1.265,1.22 0.96,1.812c-0.305,0.593 -1.162,0.813 -2.143,0.549c-0.437,-0.104 -1.334,-0.508 -1.695,-0.675l-0.154,-0.072c-0.316,-0.184 -0.629,-0.374 -0.936,-0.574Zm0.993,3.98c-0.254,1.019 -1.22,1.266 -1.812,0.961c-0.593,-0.305 -0.812,-1.163 -0.549,-2.143c0.132,-0.556 0.8,-1.839 0.8,-1.839l0.568,-0.959l0.993,3.98Zm-0.993,-3.98l-1.012,-3.991c0.254,-1.018 1.22,-1.266 1.812,-0.96c0.593,0.305 0.812,1.162 0.549,2.143c-0.135,0.566 -0.798,1.878 -0.798,1.878l-0.551,0.93Zm-0,0l-3.987,1.029c-1.018,-0.254 -1.265,-1.22 -0.96,-1.812c0.305,-0.593 1.162,-0.812 2.143,-0.549c0.557,0.133 1.851,0.787 1.851,0.787l0.953,0.545Z" style="fill:#79c82c;"/><path d="M261.732,53.799c0.036,0.877 1.643,0.711 1.632,-0.218c-0.017,-1.369 -0.132,-2.357 -0.003,-3.482c0.057,-0.569 0.108,-1.122 0.171,-1.676c0.029,-0.246 0.059,-0.492 0.094,-0.74c0.164,-0.768 0.346,-1.532 0.558,-2.29c0.058,-0.226 0.124,-0.448 0.199,-0.667c0.074,-0.219 0.156,-0.435 0.251,-0.649c0.019,-0.044 0.038,-0.087 0.057,-0.13c0.077,0.581 0.351,1.033 0.788,1.247c0.717,0.352 1.885,0.071 2.247,-1.084c0.872,0.839 2.031,0.525 2.491,-0.128c0.468,-0.666 0.218,-1.693 -0.643,-2.563c-0.053,-0.057 -0.111,-0.112 -0.173,-0.167c0.077,0.029 0.154,0.053 0.229,0.072c1.177,0.337 2.198,0.063 2.557,-0.667c0.352,-0.717 0.071,-1.885 -1.084,-2.247c0.839,-0.872 0.525,-2.031 -0.129,-2.491c-0.665,-0.469 -1.692,-0.218 -2.563,0.643c-0.056,0.053 -0.112,0.111 -0.166,0.173c0.029,-0.078 0.053,-0.154 0.072,-0.229c0.337,-1.177 0.063,-2.198 -0.667,-2.557c-0.717,-0.352 -1.885,-0.071 -2.247,1.084c-0.872,-0.839 -2.032,-0.525 -2.492,0.128c-0.468,0.666 -0.217,1.693 0.644,2.563c0.053,0.057 0.111,0.113 0.173,0.167c-0.078,-0.029 -0.155,-0.053 -0.23,-0.072c-1.177,-0.337 -2.198,-0.063 -2.556,0.667c-0.353,0.717 -0.071,1.885 1.084,2.247c-0.839,0.872 -0.525,2.031 0.128,2.491c0.614,0.433 1.537,0.252 2.36,-0.455c-0.071,0.097 -0.133,0.183 -0.191,0.272c-0.046,0.071 -0.1,0.161 -0.14,0.233c-0.067,0.121 -0.304,0.568 -0.544,1.114c-0.588,1.335 -1.288,3.393 -1.738,6.174c-0.193,1.193 -0.206,2.36 -0.169,3.237Zm3.328,-11.563c0.07,-0.14 0.146,-0.292 0.229,-0.45c0.035,-0.067 0.301,-0.57 0.301,-0.57c0,-0 -0.314,0.475 -0.355,0.538c-0.109,0.163 -0.206,0.303 -0.293,0.426c-0.097,0.12 -0.199,0.228 -0.3,0.322l-0.001,0.001c-0.825,0.816 -1.793,1.076 -2.424,0.632c-0.626,-0.44 -0.91,-1.568 -0.049,-2.389c0.014,-0.014 0.02,-0.034 0.015,-0.053c-0.005,-0.02 -0.02,-0.035 -0.039,-0.04c-1.149,-0.306 -1.442,-1.432 -1.104,-2.119c0.34,-0.692 1.313,-0.929 2.429,-0.61l0.002,0.001c0.133,0.034 0.271,0.084 0.411,0.147c0.128,0.058 0.26,0.122 0.399,0.191c0.067,0.033 0.449,0.221 0.449,0.221c-0,0 -0.351,-0.234 -0.415,-0.281c-0.258,-0.186 -0.501,-0.36 -0.681,-0.554l-0.001,-0.001c-0.817,-0.825 -1.076,-1.793 -0.632,-2.424c0.44,-0.626 1.568,-0.91 2.389,-0.049c0.014,0.014 0.034,0.02 0.053,0.015c0.019,-0.005 0.034,-0.019 0.039,-0.038c0.307,-1.15 1.433,-1.443 2.12,-1.105c0.692,0.34 0.929,1.313 0.61,2.43l-0.001,0.001c-0.065,0.256 -0.199,0.523 -0.337,0.809c-0.079,0.164 -0.26,0.513 -0.248,0.492c-0.012,0.021 0.207,-0.305 0.313,-0.454c0.184,-0.258 0.354,-0.504 0.548,-0.684l0.001,-0.001c0.825,-0.816 1.793,-1.076 2.424,-0.632c0.626,0.44 0.91,1.568 0.049,2.389c-0.015,0.014 -0.02,0.034 -0.016,0.053c0.005,0.02 0.02,0.035 0.039,0.04c1.15,0.306 1.442,1.432 1.105,2.119c-0.34,0.692 -1.314,0.929 -2.43,0.61l-0.001,-0.001c-0.256,-0.065 -0.526,-0.194 -0.813,-0.331c-0.072,-0.034 -0.446,-0.228 -0.446,-0.228c-0,-0 0.349,0.243 0.41,0.286c0.127,0.09 0.247,0.174 0.359,0.259c0.123,0.092 0.233,0.189 0.327,0.29l0.001,0.001c0.816,0.825 1.076,1.793 0.632,2.424c-0.441,0.626 -1.568,0.91 -2.39,0.049c-0.013,-0.014 -0.033,-0.02 -0.053,-0.015c-0.019,0.005 -0.034,0.019 -0.039,0.038c-0.306,1.15 -1.432,1.443 -2.119,1.105c-0.693,-0.34 -0.93,-1.313 -0.61,-2.43l0.001,-0.001c0.035,-0.138 0.081,-0.282 0.142,-0.429Z" style="fill:#018f35;"/></g><g id="_4-clover4" serif:id="4 clover"><path d="M229.82,50.318c-0.112,-0.188 -0.234,-0.353 -0.368,-0.477c-0.573,-0.568 -1.249,-0.74 -1.687,-0.432c-0.439,0.309 -0.641,1.099 -0.038,1.674c-0.805,0.215 -1.007,1.005 -0.771,1.487c0.237,0.481 0.912,0.654 1.688,0.432c0.092,-0.024 0.187,-0.059 0.284,-0.102c0.088,-0.04 0.177,-0.087 0.267,-0.14c-0.188,0.111 -0.353,0.234 -0.477,0.367c-0.568,0.574 -0.74,1.249 -0.432,1.688c0.309,0.438 1.099,0.64 1.674,0.037c0.215,0.806 1.005,1.008 1.487,0.771c0.481,-0.236 0.654,-0.911 0.431,-1.687c-0.044,-0.177 -0.13,-0.363 -0.242,-0.552c0.112,0.189 0.235,0.353 0.368,0.477c0.574,0.568 1.249,0.741 1.687,0.432c0.439,-0.308 0.641,-1.099 0.038,-1.674c0.805,-0.215 1.008,-1.005 0.771,-1.486c-0.236,-0.482 -0.911,-0.654 -1.687,-0.432c-0.093,0.023 -0.188,0.058 -0.284,0.102c-0.089,0.039 -0.178,0.087 -0.268,0.14c0.188,-0.112 0.353,-0.234 0.477,-0.367c0.568,-0.574 0.741,-1.249 0.432,-1.688c-0.309,-0.439 -1.099,-0.641 -1.674,-0.038c-0.215,-0.805 -1.005,-1.007 -1.486,-0.771c-0.482,0.237 -0.654,0.912 -0.432,1.688c0.045,0.176 0.13,0.363 0.242,0.551Z" style="fill:#68af23;"/><path d="M231.367,51.472c0,0 0.796,-0.573 1.057,-0.862c0.476,-0.497 0.624,-1.077 0.372,-1.45c-0.253,-0.374 -0.907,-0.541 -1.389,-0.02c-0.171,-0.689 -0.825,-0.856 -1.226,-0.65c-0.401,0.207 -0.55,0.787 -0.371,1.451c0.091,0.383 0.539,1.271 0.539,1.271c0,-0 -0.551,-0.828 -0.843,-1.092c-0.496,-0.475 -1.076,-0.623 -1.45,-0.371c-0.374,0.253 -0.541,0.907 -0.019,1.388c-0.689,0.172 -0.857,0.826 -0.65,1.227c0.206,0.401 0.786,0.55 1.45,0.371c0.375,-0.089 1.252,-0.505 1.252,-0.505c-0,0 -0.799,0.551 -1.056,0.836c-0.475,0.496 -0.624,1.076 -0.371,1.45c0.252,0.374 0.906,0.541 1.388,0.019c0.172,0.689 0.826,0.857 1.227,0.65c0.401,-0.206 0.549,-0.786 0.371,-1.45c-0.089,-0.376 -0.541,-1.244 -0.541,-1.244c-0,-0 0.557,0.805 0.844,1.064c0.497,0.475 1.077,0.624 1.45,0.371c0.374,-0.252 0.541,-0.906 0.02,-1.388c0.689,-0.172 0.856,-0.826 0.65,-1.227c-0.207,-0.401 -0.787,-0.549 -1.451,-0.371c-0.377,0.09 -1.253,0.532 -1.253,0.532Z" style="fill:#6fbe22;"/><path d="M230.722,51.842l-2.685,-0.705c-0.689,0.172 -0.857,0.826 -0.65,1.227c0.206,0.401 0.786,0.55 1.45,0.371c0.296,-0.07 0.904,-0.344 1.147,-0.456l0.105,-0.049c0.214,-0.124 0.426,-0.253 0.633,-0.388Zm-0.672,2.693c0.172,0.689 0.826,0.857 1.227,0.65c0.401,-0.206 0.549,-0.786 0.371,-1.45c-0.089,-0.376 -0.541,-1.244 -0.541,-1.244l-0.385,-0.649l-0.672,2.693Zm0.672,-2.693l0.685,-2.702c-0.171,-0.689 -0.825,-0.856 -1.226,-0.65c-0.401,0.207 -0.55,0.787 -0.371,1.451c0.091,0.383 0.539,1.271 0.539,1.271l0.373,0.63Zm0,-0l2.699,0.696c0.689,-0.172 0.856,-0.826 0.65,-1.227c-0.207,-0.401 -0.787,-0.549 -1.451,-0.371c-0.377,0.09 -1.253,0.532 -1.253,0.532l-0.645,0.37Z" style="fill:#79c82c;"/><path d="M233.884,59.289c0.131,0.808 -0.9,0.449 -0.988,-0.313c-0.038,-0.385 -0.073,-0.759 -0.116,-1.134c-0.019,-0.167 -0.039,-0.333 -0.063,-0.501c-0.111,-0.52 -0.235,-1.037 -0.378,-1.55c-0.039,-0.153 -0.084,-0.303 -0.134,-0.452c-0.051,-0.148 -0.106,-0.294 -0.171,-0.439c-0.012,-0.029 -0.025,-0.058 -0.038,-0.087c-0.052,0.393 -0.237,0.698 -0.533,0.843c-0.486,0.239 -1.276,0.049 -1.521,-0.733c-0.59,0.568 -1.375,0.355 -1.686,-0.087c-0.317,-0.45 -0.147,-1.145 0.435,-1.734c0.036,-0.039 0.075,-0.076 0.117,-0.113c-0.052,0.019 -0.104,0.035 -0.155,0.048c-0.796,0.228 -1.487,0.043 -1.73,-0.451c-0.238,-0.485 -0.048,-1.276 0.734,-1.521c-0.568,-0.59 -0.356,-1.375 0.087,-1.686c0.45,-0.317 1.145,-0.147 1.734,0.435c0.038,0.036 0.076,0.075 0.113,0.117c-0.02,-0.052 -0.036,-0.104 -0.049,-0.155c-0.228,-0.796 -0.043,-1.487 0.451,-1.73c0.486,-0.238 1.276,-0.048 1.521,0.734c0.591,-0.568 1.375,-0.356 1.686,0.087c0.317,0.45 0.148,1.145 -0.435,1.734c-0.036,0.039 -0.075,0.076 -0.117,0.113c0.052,-0.02 0.104,-0.036 0.155,-0.049c0.797,-0.228 1.488,-0.043 1.73,0.452c0.239,0.485 0.048,1.275 -0.733,1.52c0.568,0.591 0.355,1.375 -0.087,1.686c-0.416,0.293 -1.04,0.171 -1.597,-0.308c0.048,0.066 0.09,0.124 0.129,0.184c0.031,0.048 0.068,0.109 0.095,0.158c0.045,0.082 0.205,0.385 0.368,0.754c0.398,0.904 0.871,2.296 1.176,4.178Zm-2.138,-5.635c-0.047,-0.095 -0.099,-0.197 -0.155,-0.304c-0.023,-0.045 -0.204,-0.386 -0.204,-0.386c0,0 0.213,0.322 0.241,0.364c0.074,0.111 0.139,0.206 0.198,0.289c0.066,0.081 0.135,0.154 0.203,0.217l0.001,0.001c0.558,0.553 1.213,0.728 1.64,0.428c0.424,-0.298 0.616,-1.061 0.034,-1.617c-0.01,-0.009 -0.014,-0.023 -0.011,-0.036c0.004,-0.013 0.014,-0.023 0.026,-0.027c0.779,-0.207 0.976,-0.969 0.748,-1.434c-0.23,-0.468 -0.889,-0.629 -1.644,-0.413l-0.001,0.001c-0.091,0.023 -0.184,0.057 -0.278,0.099c-0.087,0.04 -0.176,0.083 -0.271,0.129c-0.045,0.023 -0.303,0.151 -0.303,0.151c-0,-0 0.237,-0.159 0.281,-0.191c0.174,-0.126 0.338,-0.244 0.46,-0.375l0.001,-0c0.553,-0.559 0.728,-1.214 0.428,-1.641c-0.298,-0.423 -1.062,-0.616 -1.617,-0.033c-0.009,0.01 -0.023,0.014 -0.036,0.01c-0.013,-0.003 -0.023,-0.013 -0.027,-0.026c-0.207,-0.778 -0.969,-0.976 -1.434,-0.748c-0.469,0.23 -0.629,0.889 -0.413,1.645l0.001,0.001c0.044,0.173 0.134,0.354 0.228,0.547c0.054,0.111 0.176,0.347 0.168,0.333c0.008,0.014 -0.14,-0.206 -0.212,-0.307c-0.125,-0.175 -0.24,-0.341 -0.371,-0.463l-0.001,-0.001c-0.558,-0.552 -1.213,-0.728 -1.64,-0.427c-0.424,0.298 -0.616,1.061 -0.033,1.617c0.009,0.009 0.013,0.023 0.01,0.036c-0.003,0.012 -0.013,0.023 -0.026,0.026c-0.778,0.208 -0.976,0.969 -0.748,1.434c0.23,0.469 0.889,0.629 1.645,0.413l0.001,-0c0.173,-0.044 0.355,-0.132 0.55,-0.224c0.048,-0.023 0.302,-0.155 0.302,-0.155c-0,-0 -0.237,0.165 -0.278,0.194c-0.086,0.061 -0.167,0.118 -0.243,0.175c-0.083,0.063 -0.157,0.128 -0.221,0.196l-0.001,0.001c-0.552,0.559 -0.728,1.213 -0.428,1.64c0.299,0.424 1.062,0.616 1.618,0.034c0.009,-0.01 0.023,-0.014 0.035,-0.011c0.013,0.004 0.024,0.014 0.027,0.027c0.207,0.778 0.969,0.976 1.434,0.747c0.469,-0.23 0.629,-0.889 0.413,-1.644l-0,-0.001c-0.024,-0.093 -0.056,-0.191 -0.097,-0.291Z" style="fill:#018f35;"/></g><path d="M-0,48.894c1.752,-0.902 3.74,-1.332 5.883,-1.071c3.638,0.443 7.437,2.972 8.839,6.415c0.417,1.024 0.696,2.141 0.812,3.244c0.024,0.235 -0.073,1.115 0.062,1.268c0.105,0.118 0.211,-0.235 0.318,-0.351c0.203,-0.221 0.406,-0.441 0.623,-0.65c0.615,-0.595 1.299,-1.041 2.17,-1.121c0.951,-0.088 2.001,0.091 2.618,0.891c0.173,0.224 0.296,0.759 0.497,0.925c0.118,0.096 0.097,-0.289 0.144,-0.434c0.101,-0.313 0.208,-0.621 0.349,-0.919c0.369,-0.778 0.882,-1.482 1.433,-2.139c1.645,-1.961 4.021,-3.697 6.494,-4.441c3.028,-0.912 6.564,0.097 8.443,2.678c0.51,0.7 0.8,1.464 0.987,2.306c0.014,0.065 0.166,1.19 0.203,1.195c0.703,0.09 1.461,-0.339 2.113,-0.538c0.981,-0.3 2.038,-0.338 3.041,-0.122c0.884,0.19 1.838,0.698 2.486,1.335c0.107,0.106 0.62,1.019 0.692,1.037c0.521,0.13 1.25,-0.277 1.723,-0.445c0.931,-0.331 2.03,-0.63 3.024,-0.411c0.847,0.187 1.481,0.866 1.801,1.645c0.095,0.232 0.183,0.883 0.357,1.04c0.136,0.124 0.6,0.093 0.772,0.104c0.693,0.047 1.399,0.022 2.069,0.238c0.512,0.165 0.989,0.444 1.462,0.727l-54.701,-0c-2.602,-0 -4.714,-2.112 -4.714,-4.714l-0,-7.692Z" style="fill:#fff;"/><path d="M213.02,59.522c-0.515,-1.441 -0.879,-2.891 -0.249,-4.368c0.99,-2.321 3.335,-3.672 5.831,-3.818c3.241,-0.19 6.096,1.589 8.353,3.762c0.737,0.709 2.075,2.464 2.698,3.156c0.937,-0.747 2.284,-1.647 3.043,-2.112c1.777,-1.089 4.045,-1.297 6.056,-0.896c1.761,0.351 3.565,1.416 5.007,2.465c0.399,0.29 1.492,1.193 1.509,1.166c0.496,-0.809 1,-1.489 1.391,-1.887c0.941,-0.96 1.505,-1.279 2.556,-1.535c0.845,-0.205 1.586,-0.204 2.673,0.113c0.542,0.158 0.966,0.388 1.242,0.506c0.348,-0.723 0.676,-1.389 1.009,-2.188c0.43,-1.03 0.901,-1.97 1.529,-2.897c2.275,-3.356 7.167,-5.848 11.269,-5.115c2.202,0.394 4.28,1.783 5.812,3.374c0.507,0.527 1.568,1.845 2.037,2.54c1.108,-1.932 3.569,-4.399 5.214,-4.548l0,9.346c0,2.602 -2.112,4.714 -4.714,4.714l-73.808,0c-0.159,-2.777 2.702,-4.567 6.183,-4.131c1.292,0.162 2.359,0.766 3.49,1.398c0.433,0.241 1.391,0.884 1.869,0.955Z" style="fill:#fff;"/><g><path d="M178.398,12.46l1.609,4.565c0.055,0.155 0.151,0.292 0.279,0.396c0.127,0.104 0.281,0.172 0.444,0.194l4.794,0.667l-4.565,1.609c-0.155,0.055 -0.292,0.152 -0.396,0.279c-0.105,0.127 -0.172,0.281 -0.194,0.444l-0.668,4.794l-1.609,-4.565c-0.054,-0.155 -0.151,-0.292 -0.278,-0.396c-0.128,-0.105 -0.281,-0.172 -0.444,-0.194l-4.794,-0.667l4.565,-1.609c0.155,-0.055 0.292,-0.152 0.396,-0.279c0.104,-0.128 0.171,-0.281 0.194,-0.444l0.667,-4.794Z" style="fill:#fffabd;"/><path d="M194.779,39.847l0.981,2.785c0.034,0.095 0.093,0.178 0.17,0.242c0.078,0.064 0.172,0.104 0.272,0.118l2.925,0.407l-2.786,0.982c-0.094,0.034 -0.178,0.092 -0.242,0.17c-0.063,0.078 -0.104,0.172 -0.118,0.271l-0.407,2.925l-0.982,-2.785c-0.033,-0.095 -0.092,-0.178 -0.17,-0.242c-0.078,-0.063 -0.172,-0.104 -0.271,-0.118l-2.925,-0.407l2.785,-0.982c0.095,-0.034 0.179,-0.092 0.242,-0.17c0.064,-0.078 0.105,-0.172 0.118,-0.271l0.408,-2.925Z" style="fill:#fffabd;"/><path d="M260.082,0.648l1.556,6.621c0.053,0.225 0.167,0.431 0.33,0.596c0.162,0.165 0.366,0.282 0.591,0.338l6.595,1.659l-6.62,1.556c-0.225,0.053 -0.432,0.167 -0.596,0.329c-0.165,0.162 -0.282,0.367 -0.339,0.591l-1.658,6.596l-1.556,-6.62c-0.053,-0.226 -0.167,-0.432 -0.33,-0.597c-0.162,-0.165 -0.366,-0.282 -0.591,-0.338l-6.595,-1.658l6.62,-1.557c0.225,-0.053 0.432,-0.167 0.596,-0.329c0.165,-0.162 0.282,-0.367 0.339,-0.591l1.658,-6.596Z" style="fill:#fffabd;"/><path d="M274.517,17.304l0.411,2.631c0.013,0.09 0.052,0.174 0.11,0.243c0.059,0.069 0.135,0.121 0.221,0.15l2.527,0.844l-2.632,0.411c-0.09,0.014 -0.174,0.052 -0.243,0.11c-0.069,0.059 -0.121,0.135 -0.15,0.221l-0.843,2.527l-0.411,-2.632c-0.014,-0.09 -0.053,-0.174 -0.111,-0.243c-0.059,-0.069 -0.135,-0.121 -0.221,-0.15l-2.526,-0.843l2.631,-0.411c0.09,-0.014 0.174,-0.053 0.243,-0.111c0.069,-0.058 0.121,-0.135 0.15,-0.221l0.844,-2.526Z" style="fill:#fffabd;"/><path d="M70.523,1.877l0.625,2.589c0.021,0.088 0.066,0.169 0.13,0.233c0.064,0.064 0.144,0.109 0.232,0.131l2.587,0.635l-2.589,0.624c-0.088,0.021 -0.169,0.066 -0.233,0.13c-0.064,0.064 -0.11,0.145 -0.131,0.233l-0.635,2.587l-0.625,-2.59c-0.021,-0.088 -0.066,-0.169 -0.13,-0.233c-0.064,-0.064 -0.144,-0.109 -0.232,-0.131l-2.587,-0.635l2.59,-0.624c0.088,-0.021 0.168,-0.066 0.232,-0.13c0.065,-0.064 0.11,-0.145 0.132,-0.233l0.634,-2.586Z" style="fill:#fffabd;"/><path d="M38.61,34.94l0.202,3.707c0.007,0.126 0.049,0.248 0.12,0.352c0.072,0.104 0.17,0.186 0.285,0.238l3.386,1.523l-3.707,0.202c-0.126,0.007 -0.248,0.049 -0.352,0.12c-0.104,0.072 -0.186,0.17 -0.238,0.286l-1.523,3.385l-0.202,-3.707c-0.007,-0.126 -0.049,-0.247 -0.12,-0.352c-0.072,-0.104 -0.17,-0.186 -0.285,-0.238l-3.386,-1.523l3.707,-0.202c0.126,-0.007 0.248,-0.048 0.352,-0.12c0.104,-0.071 0.186,-0.17 0.238,-0.285l1.523,-3.386Z" style="fill:#fffabd;"/><path d="M19.018,3.528l0.284,5.203c0.01,0.177 0.068,0.348 0.169,0.495c0.1,0.146 0.238,0.261 0.4,0.334l4.753,2.138l-5.204,0.284c-0.177,0.01 -0.348,0.068 -0.494,0.168c-0.146,0.101 -0.262,0.239 -0.334,0.401l-2.138,4.753l-0.284,-5.204c-0.01,-0.177 -0.068,-0.348 -0.169,-0.494c-0.1,-0.146 -0.238,-0.262 -0.4,-0.335l-4.753,-2.137l5.204,-0.285c0.177,-0.009 0.348,-0.068 0.494,-0.168c0.146,-0.1 0.262,-0.239 0.335,-0.4l2.137,-4.753Z" style="fill:#fffabd;"/><circle cx="260.012" cy="9.791" r="9.738" style="fill:url(#_Radial3);"/><circle cx="274.217" cy="20.872" r="3.118" style="fill:url(#_Radial4);"/><circle cx="194.972" cy="43.699" r="3.118" style="fill:url(#_Radial5);"/><circle cx="179.05" cy="18.934" r="4.676" style="fill:url(#_Radial6);"/><ellipse cx="37.697" cy="39.847" rx="4.417" ry="4.292" style="fill:url(#_Radial7);"/><ellipse cx="17.736" cy="10.416" rx="5.95" ry="5.781" style="fill:url(#_Radial8);"/><ellipse cx="70.516" cy="5.458" rx="2.998" ry="2.913" style="fill:url(#_Radial9);"/></g></g><defs><linearGradient id="_Linear1" x1="0" y1="0" x2="1" y2="0" gradientUnits="userSpaceOnUse" gradientTransform="matrix(3.09762e-14,-61.3,12.0684,6.09844e-15,140,61.3)"><stop offset="0" style="stop-color:#c4f4ff;stop-opacity:1"/><stop offset="1" style="stop-color:#61e3ff;stop-opacity:1"/></linearGradient><linearGradient id="_Linear2" x1="0" y1="0" x2="1" y2="0" gradientUnits="userSpaceOnUse" gradientTransform="matrix(-2.10653,31.0563,-19.8011,-1.3431,243.576,0.840855)"><stop offset="0" style="stop-color:#fff;stop-opacity:0.16"/><stop offset="0.49" style="stop-color:#fbdf3f;stop-opacity:0.39"/><stop offset="1" style="stop-color:#fad500;stop-opacity:0.46"/></linearGradient><radialGradient id="_Radial3" cx="0" cy="0" r="1" gradientUnits="userSpaceOnUse" gradientTransform="matrix(9.73807,0,0,9.73807,260.012,9.7911)"><stop offset="0" style="stop-color:#fff;stop-opacity:0.69"/><stop offset="1" style="stop-color:#fffabd;stop-opacity:0"/></radialGradient><radialGradient id="_Radial4" cx="0" cy="0" r="1" gradientUnits="userSpaceOnUse" gradientTransform="matrix(3.11824,0,0,3.11824,274.217,20.8722)"><stop offset="0" style="stop-color:#fff;stop-opacity:1"/><stop offset="1" style="stop-color:#fffabd;stop-opacity:0"/></radialGradient><radialGradient id="_Radial5" cx="0" cy="0" r="1" gradientUnits="userSpaceOnUse" gradientTransform="matrix(3.11824,0,0,3.11824,194.972,43.6994)"><stop offset="0" style="stop-color:#fff;stop-opacity:1"/><stop offset="1" style="stop-color:#fffabd;stop-opacity:0"/></radialGradient><radialGradient id="_Radial6" cx="0" cy="0" r="1" gradientUnits="userSpaceOnUse" gradientTransform="matrix(4.67568,0,0,4.67568,179.05,18.934)"><stop offset="0" style="stop-color:#fff;stop-opacity:1"/><stop offset="1" style="stop-color:#fffabd;stop-opacity:0"/></radialGradient><radialGradient id="_Radial7" cx="0" cy="0" r="1" gradientUnits="userSpaceOnUse" gradientTransform="matrix(4.4171,0,0,4.29199,37.6965,39.8467)"><stop offset="0" style="stop-color:#fff;stop-opacity:1"/><stop offset="1" style="stop-color:#fffabd;stop-opacity:0"/></radialGradient><radialGradient id="_Radial8" cx="0" cy="0" r="1" gradientUnits="userSpaceOnUse" gradientTransform="matrix(5.94991,0,0,5.78138,17.7361,10.4157)"><stop offset="0" style="stop-color:#fff;stop-opacity:0.6"/><stop offset="1" style="stop-color:#fffabd;stop-opacity:0"/></radialGradient><radialGradient id="_Radial9" cx="0" cy="0" r="1" gradientUnits="userSpaceOnUse" gradientTransform="matrix(2.99757,0,0,2.91266,70.5161,5.45757)"><stop offset="0" style="stop-color:#fff;stop-opacity:1"/><stop offset="1" style="stop-color:#fffabd;stop-opacity:0"/></radialGradient></defs></svg>