<?xml version="1.0" encoding="UTF-8" standalone="no"?>
<!DOCTYPE svg PUBLIC "-//W3C//DTD SVG 1.1//EN" "http://www.w3.org/Graphics/SVG/1.1/DTD/svg11.dtd">
<svg width="100%" height="100%" viewBox="0 0 280 62" version="1.1" xmlns="http://www.w3.org/2000/svg" xmlns:xlink="http://www.w3.org/1999/xlink" xml:space="preserve" xmlns:serif="http://www.serif.com/" style="fill-rule:evenodd;clip-rule:evenodd;stroke-linejoin:round;stroke-miterlimit:2;">
    <g id="banner_39" transform="matrix(-1,0,0,1,280,-8.7)">
        <g>
            <path d="M280,47.751L-0,47.751L-0,65.286C-0,67.888 2.112,70 4.714,70L275.286,70C277.888,70 280,67.888 280,65.286L280,47.751Z" style="fill:#97573b;"/>
            <path d="M0.573,67.539C0.797,67.949 1.08,68.323 1.411,68.648C3.383,68.897 5.171,69.165 9.515,69.177C20.246,69.287 31.251,69.682 41.818,69.177C52.599,68.661 63.623,68.329 75.708,69.176C87.458,70 93.935,69.787 103.124,69.177C112.958,67.98 131.835,70.484 142.351,69.173C142.354,69.172 142.357,69.172 142.36,69.171C146.87,68.468 151.64,68.047 157.81,69.169C162.329,69.991 172.153,69.941 185.457,69.176C185.463,69.176 185.468,69.176 185.474,69.175C192.289,68.545 197.996,69.569 203.821,69.787C203.837,69.787 203.852,69.786 203.867,69.786C210.874,69.787 217.709,68.543 226.9,69.176C239.724,70.06 255.047,68.75 268.23,68.478C271.867,68.489 274.984,68.753 278.131,69.044C278.798,68.538 279.327,67.857 279.65,67.071C276.176,66.92 272.058,67.49 268.227,67.478C268.223,67.478 268.219,67.478 268.215,67.478C255.06,67.749 239.766,69.061 226.969,68.178C217.739,67.542 210.993,68.449 203.729,68.177C197.872,67.957 192.241,67.546 185.391,68.179C172.205,68.936 163.006,68.795 158.527,67.98C152.226,66.834 146.889,66.819 142.283,67.537C134.185,68.643 116.904,68.336 103.131,68.177C103.129,68.177 103.126,68.177 103.123,68.177C93.987,68.217 80.427,68.483 75.773,68.178C63.644,67.384 51.983,67.056 41.166,67.573C30.617,68.077 20.236,68.287 9.524,68.177C9.522,68.177 9.521,68.177 9.52,68.177C4.557,68.163 2.965,67.811 0.573,67.539Z" style="fill:#ba6d4c;"/>
            <path d="M69.763,69.037C69.97,69.037 70.138,69.205 70.138,69.412C70.138,69.619 69.97,69.787 69.763,69.787C69.557,69.787 69.389,69.619 69.389,69.412C69.389,69.205 69.557,69.037 69.763,69.037ZM259.669,68.685C259.958,68.685 260.193,68.92 260.193,69.209C260.193,69.498 259.958,69.732 259.669,69.732C259.38,69.732 259.146,69.498 259.146,69.209C259.146,68.92 259.38,68.685 259.669,68.685ZM54.728,69.037C54.846,69.037 54.942,69.133 54.942,69.251C54.942,69.369 54.846,69.464 54.728,69.464C54.611,69.464 54.515,69.369 54.515,69.251C54.515,69.133 54.611,69.037 54.728,69.037ZM38.406,68.61C38.642,68.61 38.833,68.802 38.833,69.037C38.833,69.273 38.642,69.464 38.406,69.464C38.171,69.464 37.979,69.273 37.979,69.037C37.979,68.802 38.171,68.61 38.406,68.61ZM117.739,68.61C117.975,68.61 118.166,68.802 118.166,69.037C118.166,69.273 117.975,69.464 117.739,69.464C117.503,69.464 117.312,69.273 117.312,69.037C117.312,68.802 117.503,68.61 117.739,68.61ZM121.42,68.61C121.655,68.61 121.847,68.802 121.847,69.037C121.847,69.273 121.655,69.464 121.42,69.464C121.184,69.464 120.993,69.273 120.993,69.037C120.993,68.802 121.184,68.61 121.42,68.61ZM172.064,69.011C172.175,69.011 172.264,69.101 172.264,69.212C172.264,69.322 172.175,69.412 172.064,69.412C171.953,69.412 171.864,69.322 171.864,69.212C171.864,69.101 171.953,69.011 172.064,69.011ZM17.276,69.011C17.387,69.011 17.476,69.101 17.476,69.212C17.476,69.322 17.387,69.412 17.276,69.412C17.165,69.412 17.076,69.322 17.076,69.212C17.076,69.101 17.165,69.011 17.276,69.011ZM20.748,68.61C20.969,68.61 21.149,68.79 21.149,69.011C21.149,69.232 20.969,69.412 20.748,69.412C20.527,69.412 20.347,69.232 20.347,69.011C20.347,68.79 20.527,68.61 20.748,68.61ZM178.541,68.158C178.832,68.158 179.068,68.394 179.068,68.685C179.068,68.976 178.832,69.212 178.541,69.212C178.25,69.212 178.014,68.976 178.014,68.685C178.014,68.394 178.25,68.158 178.541,68.158ZM271.342,68.685C271.486,68.685 271.604,68.802 271.604,68.947C271.604,69.091 271.486,69.209 271.342,69.209C271.197,69.209 271.08,69.091 271.08,68.947C271.08,68.802 271.197,68.685 271.342,68.685ZM276.058,67.722C276.324,67.722 276.539,67.938 276.539,68.204C276.539,68.469 276.324,68.685 276.058,68.685C275.792,68.685 275.577,68.469 275.577,68.204C275.577,67.938 275.792,67.722 276.058,67.722ZM2.744,68.329C2.822,68.329 2.885,68.392 2.885,68.47C2.885,68.547 2.822,68.61 2.744,68.61C2.666,68.61 2.603,68.547 2.603,68.47C2.603,68.392 2.666,68.329 2.744,68.329ZM7.116,68.158C7.241,68.158 7.342,68.26 7.342,68.384C7.342,68.509 7.241,68.61 7.116,68.61C6.991,68.61 6.89,68.509 6.89,68.384C6.89,68.26 6.991,68.158 7.116,68.158ZM229.724,68.158C229.849,68.158 229.95,68.26 229.95,68.384C229.95,68.509 229.849,68.61 229.724,68.61C229.599,68.61 229.498,68.509 229.498,68.384C229.498,68.26 229.599,68.158 229.724,68.158ZM65.859,68.047C66.014,68.047 66.141,68.173 66.141,68.329C66.141,68.484 66.014,68.61 65.859,68.61C65.703,68.61 65.577,68.484 65.577,68.329C65.577,68.173 65.703,68.047 65.859,68.047ZM90.702,67.706C90.951,67.706 91.154,67.909 91.154,68.158C91.154,68.408 90.951,68.61 90.702,68.61C90.452,68.61 90.249,68.408 90.249,68.158C90.249,67.909 90.452,67.706 90.702,67.706ZM201.405,68.158C201.482,68.158 201.545,68.221 201.545,68.298C201.545,68.374 201.482,68.437 201.405,68.437C201.328,68.437 201.266,68.374 201.266,68.298C201.266,68.221 201.328,68.158 201.405,68.158ZM206.016,67.738C206.209,67.738 206.365,67.895 206.365,68.088C206.365,68.28 206.209,68.437 206.016,68.437C205.823,68.437 205.667,68.28 205.667,68.088C205.667,67.895 205.823,67.738 206.016,67.738ZM36.23,67.025C36.606,67.025 36.911,67.33 36.911,67.706C36.911,68.082 36.606,68.388 36.23,68.388C35.854,68.388 35.548,68.082 35.548,67.706C35.548,67.33 35.854,67.025 36.23,67.025ZM87.182,67.706C87.37,67.706 87.523,67.859 87.523,68.047C87.523,68.235 87.37,68.388 87.182,68.388C86.994,68.388 86.841,68.235 86.841,68.047C86.841,67.859 86.994,67.706 87.182,67.706ZM260.411,67.722C260.531,67.722 260.629,67.82 260.629,67.94C260.629,68.061 260.531,68.158 260.411,68.158C260.291,68.158 260.193,68.061 260.193,67.94C260.193,67.82 260.291,67.722 260.411,67.722ZM67.352,67.592C67.509,67.592 67.636,67.719 67.636,67.875C67.636,68.031 67.509,68.158 67.352,68.158C67.196,68.158 67.069,68.031 67.069,67.875C67.069,67.719 67.196,67.592 67.352,67.592ZM5.394,67.592C5.55,67.592 5.677,67.719 5.677,67.875C5.677,68.031 5.55,68.158 5.394,68.158C5.237,68.158 5.11,68.031 5.11,67.875C5.11,67.719 5.237,67.592 5.394,67.592ZM52.885,67.313C53.119,67.313 53.308,67.502 53.308,67.736C53.308,67.969 53.119,68.158 52.885,68.158C52.652,68.158 52.463,67.969 52.463,67.736C52.463,67.502 52.652,67.313 52.885,67.313ZM119.451,67.025C119.764,67.025 120.018,67.279 120.018,67.592C120.018,67.904 119.764,68.158 119.451,68.158C119.138,68.158 118.884,67.904 118.884,67.592C118.884,67.279 119.138,67.025 119.451,67.025ZM272.111,67.541C272.22,67.541 272.308,67.629 272.308,67.738C272.308,67.847 272.22,67.936 272.111,67.936C272.002,67.936 271.914,67.847 271.914,67.738C271.914,67.629 272.002,67.541 272.111,67.541ZM232.126,66.784C232.443,66.784 232.701,67.042 232.701,67.36C232.701,67.678 232.443,67.936 232.126,67.936C231.808,67.936 231.55,67.678 231.55,67.36C231.55,67.042 231.808,66.784 232.126,66.784ZM225.743,67.36C225.843,67.36 225.924,67.441 225.924,67.541C225.924,67.641 225.843,67.722 225.743,67.722C225.642,67.722 225.561,67.641 225.561,67.541C225.561,67.441 225.642,67.36 225.743,67.36ZM174.166,66.978C174.371,66.978 174.538,67.145 174.538,67.35C174.538,67.556 174.371,67.722 174.166,67.722C173.961,67.722 173.794,67.556 173.794,67.35C173.794,67.145 173.961,66.978 174.166,66.978ZM1.179,66.174C1.401,66.174 1.581,66.354 1.581,66.576C1.581,66.798 1.401,66.978 1.179,66.978C0.957,66.978 0.777,66.798 0.777,66.576C0.777,66.354 0.957,66.174 1.179,66.174Z" style="fill:#64331e;"/>
            <path d="M11.304,66.344L3.713,66.344C1.664,66.344 0,64.68 -0,62.631L-0,47.751L280,47.751L280,62.631C280,64.68 278.336,66.344 276.287,66.344L269.835,66.344L269.835,67.057C269.835,67.684 269.327,68.193 268.7,68.193L262.179,68.193C261.552,68.193 261.043,67.684 261.043,67.057L261.043,66.344L258.437,66.344L258.437,67.057C258.437,67.684 257.928,68.193 257.302,68.193L234.828,68.193C234.201,68.193 233.693,67.684 233.693,67.057L233.693,66.344L168.052,66.344L168.052,67.057C168.052,67.684 167.543,68.193 166.916,68.193L154.593,68.193C153.966,68.193 153.457,67.684 153.457,67.057L153.457,66.344L33.031,66.344L33.031,67.057C33.031,67.684 32.522,68.193 31.895,68.193L12.439,68.193C11.813,68.193 11.304,67.684 11.304,67.057L11.304,66.344Z" style="fill:#7dab32;"/>
            <g transform="matrix(-0.893232,-1.09389e-16,8.74808e-17,-0.714335,285.834,65.8968)">
                <path d="M320,8.028C320,5.159 318.138,2.83 315.844,2.83L10.688,2.83C8.394,2.83 6.532,5.159 6.532,8.028L6.532,74.803C6.532,77.671 8.394,80 10.688,80L315.844,80C318.138,80 320,77.671 320,74.803L320,8.028Z" style="fill:url(#_Linear1);"/>
            </g>
            <g>
                <path d="M280,30.327L280,60.162C280,62.211 278.336,63.875 276.287,63.875L145.994,63.875C149.548,58.963 156.923,56.092 162.566,58.917C163.958,59.614 165.06,60.782 166.024,61.981C166.119,62.099 167.326,63.853 167.327,63.852C172.961,61.331 176.976,55.577 181.478,51.54C191.168,42.851 201.874,36.306 215.417,37.353C221.384,37.815 227.226,39.454 230.78,44.657C232.004,46.449 232.734,48.545 233.105,50.674C233.148,50.922 233.378,54.046 233.441,54.059C233.795,54.127 233.919,53.519 234.15,53.242C235.02,52.2 235.804,51.091 236.593,49.987C238.968,46.663 241.349,42.773 245.415,41.372C249.661,39.909 253.692,42.49 256.205,45.728C257.047,46.814 257.752,47.993 258.393,49.206C258.591,49.58 258.78,49.958 258.966,50.338C259.081,50.573 259.12,51.229 259.308,51.046C263.928,46.547 265.649,39.883 270.351,35.371C273.032,32.798 276.442,31.086 280,30.327ZM121.502,63.875C123.337,63.011 125.216,62.297 127.338,62.359C128.831,62.402 130.147,62.995 131.282,63.875L121.502,63.875ZM42.626,63.875C43.129,59.484 45.761,54.355 47.478,51.459C53.935,41.799 67.172,33.3 77.837,41.828C79.421,43.095 80.696,44.661 81.782,46.366C83.602,49.22 84.639,52.315 85.137,55.653C85.172,55.887 85.347,60.068 85.48,60.107C86.47,60.397 88.756,59.379 89.772,59.133C93.081,58.332 96.525,57.312 99.959,57.401C104.153,57.51 108.182,59.73 111.369,62.33C111.947,62.802 112.476,63.316 112.956,63.875L42.626,63.875Z" style="fill:#f2fcff;"/>
                <path d="M280,45.617L280,60.162C280,62.211 278.336,63.875 276.287,63.875L177.335,63.875C179.336,63.001 181.306,62.08 183.159,60.857C190.445,56.047 197.542,49.603 206.562,48.404C208.148,48.193 209.963,47.937 211.558,48.199C216.464,49.008 220.701,51.861 223.17,56.217C223.777,57.287 224.221,58.425 224.445,59.636C224.516,60.024 224.417,61.364 224.602,61.602C224.844,61.912 226.563,61.534 226.893,61.481C229.068,61.137 231.277,60.463 233.497,60.788C234.632,60.955 235.691,61.331 236.54,62.123C236.771,62.338 236.973,62.593 237.094,62.887C237.161,63.05 237.075,63.454 237.242,63.397C239.061,62.767 240.535,60.713 241.903,59.457C244.373,57.189 247.058,55.14 250.216,53.946C252.033,53.26 254.198,52.498 256.16,52.928C260.034,53.777 261.962,57.463 262.273,61.272C265.632,54.945 270.937,48.816 277.494,46.3C278.298,45.992 279.144,45.76 280,45.617ZM155.194,63.875C156.458,62.841 157.505,61.516 159.043,60.867C161.71,59.742 163.797,61.607 165.132,63.875L155.194,63.875ZM150.612,63.875C151.301,63.558 152.035,63.349 152.746,63.325C153.221,63.308 153.737,63.373 154.1,63.71C154.141,63.748 154.174,63.807 154.201,63.875L150.612,63.875ZM90.131,63.875C91.978,63.047 93.774,62.06 95.697,61.461C98.811,60.493 101.341,61.953 103.889,63.671C103.981,63.733 104.09,63.802 104.211,63.875L90.131,63.875ZM49.163,63.875C50.311,59.966 52.403,56.682 55.201,53.574C58.825,49.549 64.032,42.546 70.238,42.645C72.547,42.682 73.441,45.342 73.536,47.233C73.567,47.864 73.512,48.496 73.416,49.119C73.371,49.416 73.131,50.277 73.26,50.006C73.793,48.887 74.229,47.717 75.318,47.019C77.565,45.578 80.121,48.396 81.038,50.07C82.835,53.35 83.96,57.044 85.123,60.579C85.483,61.675 85.828,62.776 86.181,63.875L49.163,63.875Z" style="fill:#dff8ff;"/>
            </g>
            <g transform="matrix(1,0,0,1,-7.0115,-1.56705)">
                <circle cx="246.139" cy="25.809" r="12.071" style="fill:#ffea53;"/>
            </g>
            <g>
                <g transform="matrix(1,0,0,1,-2.28352,0.000812177)">
                    <path d="M99.121,51.832C99.121,49.617 97.322,47.818 95.106,47.818L82.445,47.818C80.23,47.818 78.431,49.617 78.431,51.832L79.09,52.513L78.431,53.011L78.87,53.393L78.431,53.786L78.431,55.846L79.163,56.157L78.431,56.414L78.431,57.476L80.078,58.32L78.431,58.734L78.431,59.861C78.431,62.076 80.23,63.875 82.445,63.875L95.106,63.875C97.322,63.875 99.121,62.076 99.121,59.861L99.121,51.832Z" style="fill:#ffb600;"/>
                    <path d="M104.351,51.832C104.351,49.617 102.552,47.818 100.336,47.818L92.928,47.818C90.713,47.818 88.914,49.617 88.914,51.832L88.914,52.838L87.263,53.915L88.914,54.875L88.121,55.454L88.914,56.033L88.914,58.751L85.862,59.225L88.914,59.861C88.914,60.818 89.25,61.697 89.81,62.387C89.829,62.41 89.867,62.457 89.867,62.457L88.79,63.17L90.847,63.293C90.847,63.293 90.894,63.322 90.918,63.336C91.51,63.679 92.196,63.875 92.928,63.875L100.336,63.875C102.552,63.875 104.351,62.076 104.351,59.861L104.351,58.949L103.491,58.173L104.351,57.117L104.351,53.883L103.838,53.64L104.351,53.151L103.253,52.709L104.351,51.832Z" style="fill:#ffc73b;"/>
                    <g>
                        <path d="M85.546,47.751C83.331,47.751 81.532,49.55 81.532,51.765L81.532,59.794C81.532,62.009 83.331,63.875 85.546,63.875L84.617,63.875C82.402,63.875 80.603,62.009 80.603,59.794L80.603,51.765C80.603,49.55 82.402,47.751 84.617,47.751L85.546,47.751ZM89.148,47.751C86.933,47.751 85.134,49.55 85.134,51.765L85.134,59.794C85.134,62.009 86.933,63.875 89.148,63.875L88.219,63.875C86.004,63.875 84.205,62.009 84.205,59.794L84.205,51.765C84.205,49.55 86.004,47.751 88.219,47.751L89.148,47.751Z" style="fill:#56280d;"/>
                        <path d="M86.197,47.818C83.981,47.818 82.183,49.55 82.183,51.765L82.183,59.794C82.183,62.009 83.981,63.875 86.197,63.875L85.268,63.875C83.052,63.875 81.253,62.009 81.253,59.794L81.253,51.765C81.253,49.55 83.052,47.751 85.268,47.751L86.197,47.818ZM89.799,47.818C87.583,47.818 85.785,49.55 85.785,51.765L85.785,59.794C85.785,62.009 87.583,63.875 89.799,63.875L88.87,63.875C86.654,63.875 84.856,62.009 84.856,59.794L84.856,51.765C84.856,49.55 86.654,47.751 88.87,47.751L89.799,47.818Z" style="fill:#833c14;"/>
                    </g>
                </g>
                <g transform="matrix(1,0,0,1,-14.0422,0)">
                    <path d="M87.515,47.819L98.053,47.819C100.268,47.819 102.067,49.617 102.067,51.833L100.969,52.71L102.067,53.152L101.555,53.641L102.067,53.883L102.067,57.117L101.207,58.174L102.067,58.95L102.067,59.862C102.067,62.077 100.268,63.876 98.053,63.876L80.162,63.876C77.946,63.876 76.148,62.077 76.148,59.862L76.148,58.734L77.794,58.32L76.148,57.477L76.148,56.415L76.879,56.158L76.148,55.847L76.148,53.787L76.587,53.393L76.148,53.012L76.806,52.514L76.148,51.833C76.148,49.617 77.946,47.819 80.162,47.819L81.601,47.819C81.838,47.775 82.083,47.752 82.334,47.752L83.263,47.752C83.194,47.752 83.125,47.754 83.057,47.757L83.913,47.819L85.203,47.819C85.44,47.775 85.685,47.752 85.936,47.752L86.865,47.752C86.796,47.752 86.727,47.754 86.659,47.757L87.515,47.819Z" style="fill:#ba8500;fill-opacity:0.5;"/>
                </g>
                <g transform="matrix(1,0,0,1,-17.3671,0.000812177)">
                    <path d="M99.121,51.832C99.121,49.617 97.322,47.818 95.106,47.818L82.445,47.818C80.23,47.818 78.431,49.617 78.431,51.832L79.09,52.513L78.431,53.011L78.87,53.393L78.431,53.786L78.431,55.846L79.163,56.157L78.431,56.414L78.431,57.476L80.078,58.32L78.431,58.734L78.431,59.861C78.431,62.076 80.23,63.875 82.445,63.875L95.106,63.875C97.322,63.875 99.121,62.076 99.121,59.861L99.121,51.832Z" style="fill:#ffb600;"/>
                    <path d="M104.351,51.832C104.351,49.617 102.552,47.818 100.336,47.818L92.928,47.818C90.713,47.818 88.914,49.617 88.914,51.832L88.914,52.838L87.263,53.915L88.914,54.875L88.121,55.454L88.914,56.033L88.914,58.751L85.862,59.225L88.914,59.861C88.914,60.818 89.25,61.697 89.81,62.387C89.829,62.41 89.867,62.457 89.867,62.457L88.79,63.17L90.847,63.293C90.847,63.293 90.894,63.322 90.918,63.336C91.51,63.679 92.196,63.875 92.928,63.875L100.336,63.875C102.552,63.875 104.351,62.076 104.351,59.861L104.351,58.949L103.491,58.173L104.351,57.117L104.351,53.883L103.838,53.64L104.351,53.151L103.253,52.709L104.351,51.832Z" style="fill:#ffc73b;"/>
                    <g>
                        <path d="M85.546,47.751C83.331,47.751 81.532,49.55 81.532,51.765L81.532,59.794C81.532,62.009 83.331,63.875 85.546,63.875L84.617,63.875C82.402,63.875 80.603,62.009 80.603,59.794L80.603,51.765C80.603,49.55 82.402,47.751 84.617,47.751L85.546,47.751ZM89.148,47.751C86.933,47.751 85.134,49.55 85.134,51.765L85.134,59.794C85.134,62.009 86.933,63.875 89.148,63.875L88.219,63.875C86.004,63.875 84.205,62.009 84.205,59.794L84.205,51.765C84.205,49.55 86.004,47.751 88.219,47.751L89.148,47.751Z" style="fill:#56280d;"/>
                        <path d="M86.197,47.818C83.981,47.818 82.183,49.55 82.183,51.765L82.183,59.794C82.183,62.009 83.981,63.875 86.197,63.875L85.268,63.875C83.052,63.875 81.253,62.009 81.253,59.794L81.253,51.765C81.253,49.55 83.052,47.751 85.268,47.751L86.197,47.818ZM89.799,47.818C87.583,47.818 85.785,49.55 85.785,51.765L85.785,59.794C85.785,62.009 87.583,63.875 89.799,63.875L88.87,63.875C86.654,63.875 84.856,62.009 84.856,59.794L84.856,51.765C84.856,49.55 86.654,47.751 88.87,47.751L89.799,47.818Z" style="fill:#833c14;"/>
                    </g>
                </g>
            </g>
            <g>
                <path d="M69.374,31.706L63.365,31.706L63.365,25.574L69.374,31.706Z" style="fill:#a38d88;"/>
                <path d="M50.19,8.75L3.713,8.75C1.664,8.75 -0,10.414 -0,12.463L-0,60.162C0,62.211 1.664,63.875 3.713,63.875L64.508,63.875L64.508,24.082L50.19,8.75Z" style="fill:#eb3b12;"/>
                <g>
                    <g transform="matrix(1,0,0,1,-0.0294589,0)">
                        <path d="M10.045,63.876L55.851,63.876L55.851,39.698C55.851,37.105 53.746,35 51.153,35L14.743,35C12.15,35 10.045,37.105 10.045,39.698L10.045,63.876Z" style="fill:#a38d88;"/>
                    </g>
                    <g transform="matrix(1,0,0,1,1.03111,0)">
                        <path d="M10.422,63.876L55.578,63.876L55.578,40.02C55.578,37.427 53.472,35.322 50.879,35.322L15.12,35.322C12.527,35.322 10.422,37.427 10.422,40.02L10.422,63.876Z" style="fill:#eb3b12;"/>
                    </g>
                    <path d="M56.268,63.876L56.268,39.698C56.268,36.875 53.976,34.583 51.153,34.583C51.153,34.583 14.743,34.583 14.743,34.583C11.92,34.583 9.628,36.875 9.628,39.698L9.628,63.876L10.045,63.876L10.045,39.698C10.045,37.105 12.15,35 14.743,35L51.153,35C53.746,35 55.851,37.105 55.851,39.698L55.851,63.876L56.268,63.876Z" style="fill:#5b1100;"/>
                    <path d="M56.882,63.876L11.076,63.876L11.076,39.698C11.076,37.105 13.181,35 15.774,35L52.184,35C54.777,35 56.882,37.105 56.882,39.698L56.882,63.876ZM34.387,38.333L33.285,38.333L33.285,60.543L34.387,60.543L34.387,38.333ZM45.334,52.287L39.533,60.543L50.893,60.543L45.334,52.287ZM16.318,60.543L27.678,60.543L22.119,52.287L16.318,60.543ZM47.385,49.367L53.549,58.52L53.549,40.596L47.385,49.367ZM24.171,49.367L29.952,57.953L29.952,41.139L24.171,49.367ZM14.409,40.839L14.409,57.462L20.125,49.327L14.409,40.839ZM37.72,40.981L37.72,57.326L43.34,49.327L37.72,40.981ZM27.85,38.333L16.74,38.333L22.177,46.407L27.85,38.333ZM51.065,38.333L39.955,38.333L45.392,46.407L51.065,38.333Z" style="fill:#ffe7e2;"/>
                    <path d="M21.437,53.257L26.344,60.543L27.678,60.543L22.119,52.287L21.437,53.257ZM44.652,53.257L49.558,60.543L50.893,60.543L45.334,52.287L44.652,53.257ZM52.49,42.103L52.49,56.948L53.549,58.52L53.549,40.596L52.49,42.103ZM28.921,42.606L28.921,56.422L29.952,57.953L29.952,41.139L28.921,42.606ZM14.409,42.893L18.742,49.327L14.409,55.494L14.409,57.462L20.125,49.327L14.409,40.839L14.409,42.893ZM37.72,42.815L42.105,49.327L37.72,55.568L37.72,57.326L43.34,49.327L37.72,40.981L37.72,42.815ZM27.85,38.333L26.516,38.333L21.524,45.437L22.177,46.407L27.85,38.333ZM51.065,38.333L49.731,38.333L44.739,45.437L45.392,46.407L51.065,38.333Z" style="fill:#ab3013;"/>
                    <g transform="matrix(1,0,0,1.24056,0.337139,-16.2664)">
                        <rect x="32.948" y="41.325" width="1.102" height="23.276" style="fill:#a38d88;"/>
                    </g>
                </g>
                <g transform="matrix(1,0,0,1,1.74486,0)">
                    <g transform="matrix(1,0,0,1,-1.2038,0)">
                        <path d="M44.57,17.495C44.57,14.177 41.876,11.484 38.558,11.484L25.95,11.484C22.632,11.484 19.938,14.177 19.938,17.495L19.938,24.518C19.938,27.836 22.632,30.529 25.95,30.529C25.95,30.529 38.558,30.529 38.558,30.529C41.876,30.529 44.57,27.836 44.57,24.518C44.57,24.518 44.57,17.495 44.57,17.495Z" style="fill:#a38d88;"/>
                    </g>
                    <g transform="matrix(1,0,0,1,4.17139,0)">
                        <path d="M37.898,17.495C37.898,15.557 36.325,13.984 34.387,13.984L21.778,13.984C19.84,13.984 18.267,15.557 18.267,17.495L18.267,24.518C18.267,26.456 19.84,28.029 21.778,28.029L34.387,28.029C36.325,28.029 37.898,26.456 37.898,24.518L37.898,17.495Z" style="fill:#ab3013;"/>
                    </g>
                    <g transform="matrix(1,0,0,1,4.17139,0)">
                        <path d="M40.398,17.495C40.398,14.177 37.705,11.484 34.387,11.484L21.778,11.484C18.461,11.484 15.767,14.177 15.767,17.495L15.767,24.518C15.767,27.836 18.461,30.529 21.778,30.529C21.778,30.529 34.387,30.529 34.387,30.529C37.705,30.529 40.398,27.836 40.398,24.518C40.398,24.518 40.398,17.495 40.398,17.495ZM37.898,17.495C37.898,15.557 36.325,13.984 34.387,13.984L21.778,13.984C19.84,13.984 18.267,15.557 18.267,17.495L18.267,24.518C18.267,26.456 19.84,28.029 21.778,28.029L34.387,28.029C36.325,28.029 37.898,26.456 37.898,24.518L37.898,17.495Z" style="fill:#ffe7e2;"/>
                    </g>
                    <g transform="matrix(1,0,0,1,4.17139,0)">
                        <path d="M35.491,17.495C35.491,15.557 33.917,13.984 31.979,13.984L21.778,13.984C19.84,13.984 18.267,15.557 18.267,17.495L18.267,24.518C18.267,26.456 19.84,28.029 21.778,28.029L31.979,28.029C33.917,28.029 35.491,26.456 35.491,24.518L35.491,17.495Z" style="fill:#5b1100;"/>
                    </g>
                    <g transform="matrix(1,0,0,1,-1.74486,0)">
                        <path d="M24.183,23.359L24.183,24.518L24.183,24.545L24.184,24.587L24.185,24.612L24.186,24.656L24.187,24.676L24.188,24.703L24.191,24.744L24.192,24.769L24.195,24.812L24.197,24.832L24.2,24.858L24.204,24.9L24.208,24.938L24.213,24.974L24.217,25.006L24.222,25.042L24.227,25.073L24.233,25.11L24.239,25.141L24.245,25.177L24.252,25.21L24.258,25.243L24.266,25.278L24.273,25.308L24.281,25.344L24.288,25.373L24.298,25.409L24.306,25.441L24.315,25.474L24.325,25.508L24.334,25.538L24.345,25.572L24.354,25.601L24.365,25.636L24.375,25.664L24.387,25.699L24.399,25.731L24.41,25.761L24.423,25.794L24.434,25.822L24.448,25.856L24.459,25.883L24.474,25.917L24.486,25.946L24.5,25.977L24.515,26.008L24.528,26.036L24.544,26.068L24.557,26.095L24.573,26.127L24.587,26.153L24.604,26.184L24.618,26.21L24.635,26.241L24.651,26.269L24.668,26.297L24.685,26.326L24.701,26.353L24.719,26.382L24.735,26.407L24.754,26.436L24.771,26.462L24.79,26.49C24.802,26.508 24.814,26.525 24.827,26.543L25.288,27.074L25.838,27.498L26.448,27.801L27.109,27.98L27.109,27.98L27.695,28.029L37.896,28.029L37.934,28.029L37.967,28.028L38.003,28.028L38.037,28.026L38.071,28.025L38.106,28.023L38.139,28.021L38.174,28.018L38.206,28.016L38.242,28.012L38.274,28.009L38.31,28.005L38.34,28.001L38.377,27.996L38.407,27.992L38.443,27.987L38.473,27.982L38.509,27.976L38.539,27.97L38.575,27.963L38.606,27.957L38.64,27.95L38.672,27.943L38.704,27.935L38.737,27.927L38.769,27.92L38.802,27.911L38.832,27.903L38.866,27.893L38.895,27.885L38.929,27.874L38.958,27.865L38.992,27.854L39.02,27.845L39.054,27.833L39.082,27.823L39.115,27.811L39.143,27.801L39.176,27.788L39.205,27.776L39.237,27.764L39.266,27.751L39.296,27.738L39.326,27.725L39.355,27.712L39.386,27.698L39.414,27.684L39.444,27.669L39.472,27.656L39.502,27.64L39.529,27.626L39.56,27.61L39.586,27.596L39.616,27.579L39.643,27.564L39.672,27.547L39.698,27.531L39.727,27.513L39.753,27.497L39.782,27.479L39.808,27.462L39.836,27.444L39.862,27.427L39.889,27.408L39.915,27.39L39.941,27.371L39.968,27.352L39.993,27.333L40.019,27.313L40.044,27.294L40.07,27.274L40.095,27.254L40.12,27.234L40.145,27.213L40.169,27.193C40.603,26.824 40.945,26.352 41.159,25.816L41.159,25.816C41.319,25.414 41.407,24.976 41.407,24.518L41.407,23.127L40.966,23.127C40.773,23.127 40.616,23.283 40.616,23.477L40.616,23.642L40.237,23.528L40.263,23.442C40.319,23.257 40.215,23.061 40.03,23.005L39.359,22.802C39.174,22.746 38.978,22.851 38.922,23.036L38.829,23.344C38.795,23.333 38.759,23.327 38.721,23.327L38.021,23.327C37.923,23.327 37.835,23.367 37.771,23.431C37.695,23.338 37.571,23.288 37.444,23.311L37.296,23.337C37.38,23.179 37.33,22.979 37.175,22.882L36.591,22.513C36.43,22.411 36.216,22.459 36.115,22.621L35.775,23.159C35.77,23.05 35.713,22.945 35.614,22.882L35.03,22.513C34.869,22.411 34.655,22.459 34.553,22.621L34.22,23.148L34.203,22.714C34.196,22.523 34.035,22.374 33.845,22.382L33.154,22.409C32.964,22.416 32.815,22.577 32.822,22.767L32.843,23.3L32.737,23.023C32.669,22.845 32.469,22.756 32.291,22.824L31.856,22.99C31.866,22.808 31.732,22.647 31.548,22.627L30.861,22.553C30.672,22.532 30.501,22.669 30.481,22.859L30.459,23.053C30.427,22.915 30.31,22.805 30.161,22.789L29.474,22.714C29.431,22.71 29.389,22.713 29.349,22.723C29.282,22.607 29.151,22.536 29.009,22.553L28.323,22.635C28.134,22.657 27.998,22.829 28.021,23.019L28.041,23.186C27.977,23.1 27.875,23.045 27.759,23.046L27.041,23.055C27.038,22.903 26.933,22.765 26.779,22.727L26.108,22.561C25.923,22.515 25.735,22.628 25.689,22.813L25.576,23.273L25.544,23.12C25.506,22.933 25.323,22.813 25.136,22.851L24.459,22.99C24.286,23.026 24.169,23.187 24.185,23.359L24.183,23.359Z" style="fill:#ffb600;"/>
                    </g>
                </g>
                <path d="M-0,12.463L-0,60.162C0,62.211 1.664,63.875 3.713,63.875L3.864,26.188L20.784,8.75L3.713,8.75C1.664,8.75 -0,10.414 -0,12.463ZM42.897,8.75L64.508,30.448L64.508,24.082L50.19,8.75L42.897,8.75Z" style="fill:#ab3013;fill-opacity:0.5;"/>
                <path d="M13.059,8.75L3.713,8.75C1.664,8.75 -0,10.414 -0,12.463L-0,22.099L13.059,8.75Z" style="fill:#565656;"/>
                <path d="M56.228,8.75L45.699,8.75L68.11,31.161C68.837,31.888 70.016,31.888 70.742,31.161L73.375,28.529C74.101,27.803 74.101,26.623 73.375,25.897L56.228,8.75ZM17.387,8.75L-0,26.137L-0,15.608L6.858,8.75L17.387,8.75Z" style="fill:#ffe7e2;"/>
            </g>
            <g>
                <path d="M274.062,54.492L212.532,54.492L212.532,57.859L274.062,57.859L274.062,54.492ZM274.062,47.818L212.532,47.818L212.532,51.185L274.062,51.185L274.062,47.818Z" style="fill:#8e4732;"/>
                <path d="M274.062,56.86L212.532,56.86L212.532,57.859L274.062,57.859L274.062,56.86ZM274.062,50.186L212.532,50.186L212.532,51.185L274.062,51.185L274.062,50.186Z" style="fill:#773a27;"/>
                <path d="M214.552,54.492L212.532,54.492L212.532,57.859L214.552,57.859L214.552,54.492ZM247.751,57.859L239.709,57.859L239.709,54.492L247.751,54.492L247.751,57.859ZM272.908,54.492L272.908,57.859L274.062,57.859L274.062,54.492L272.908,54.492ZM214.552,47.818L212.532,47.818L212.532,51.185L214.552,51.185L214.552,47.818ZM247.751,51.185L239.709,51.185L239.709,47.818L247.751,47.818L247.751,51.185ZM272.908,47.818L272.908,51.185L274.062,51.185L274.062,47.818L272.908,47.818Z" style="fill:#773a27;"/>
                <g transform="matrix(1,0,0,1,-9.00443,0)">
                    <path d="M216.489,63.875L222.427,63.875L222.427,46.083C222.427,45.264 221.762,44.599 220.942,44.599L217.974,44.599C217.154,44.599 216.489,45.264 216.489,46.083L216.489,63.875Z" style="fill:#8e4732;"/>
                </g>
                <g transform="matrix(1,0,0,1,24.2452,0)">
                    <path d="M216.489,63.875L222.427,63.875L222.427,46.083C222.427,45.264 221.762,44.599 220.942,44.599L217.974,44.599C217.154,44.599 216.489,45.264 216.489,46.083L216.489,63.875Z" style="fill:#8e4732;"/>
                </g>
                <path d="M274.062,63.875L276.287,63.875C278.336,63.875 280,62.211 280,60.162L280,46.083C280,45.264 279.335,44.599 278.516,44.599L275.547,44.599C274.728,44.599 274.062,45.264 274.062,46.083L274.062,63.875Z" style="fill:#8e4732;"/>
                <g transform="matrix(1.07826,0,0,1,-16.5621,0)">
                    <path d="M211.627,46.139C211.627,45.663 211.268,45.276 210.826,45.276L209.225,45.276C208.783,45.276 208.424,45.663 208.424,46.139L208.424,61.233C208.424,61.71 208.783,62.097 209.225,62.097L210.826,62.097C211.268,62.097 211.627,61.71 211.627,61.233L211.627,46.139Z" style="fill:#9c4f39;"/>
                </g>
                <g transform="matrix(1.07826,0,0,1,16.7595,0)">
                    <path d="M211.627,46.139C211.627,45.663 211.268,45.276 210.826,45.276L209.225,45.276C208.783,45.276 208.424,45.663 208.424,46.139L208.424,61.233C208.424,61.71 208.783,62.097 209.225,62.097L210.826,62.097C211.268,62.097 211.627,61.71 211.627,61.233L211.627,46.139Z" style="fill:#9c4f39;"/>
                </g>
                <g transform="matrix(1.07826,0,0,1,50.0515,0)">
                    <path d="M211.627,46.139C211.627,45.663 211.268,45.276 210.826,45.276L209.225,45.276C208.783,45.276 208.424,45.663 208.424,46.139L208.424,61.233C208.424,61.71 208.783,62.097 209.225,62.097L210.826,62.097C211.268,62.097 211.627,61.71 211.627,61.233L211.627,46.139Z" style="fill:#9c4f39;"/>
                </g>
                <g transform="matrix(2.29059e-17,-0.374082,1.44237,8.83198e-17,182.863,127.344)">
                    <rect x="208.424" y="45.276" width="3.203" height="16.821" style="fill:#9c4f39;"/>
                </g>
                <g transform="matrix(2.29059e-17,-0.374082,1.44237,8.83198e-17,182.863,134.04)">
                    <rect x="208.424" y="45.276" width="3.203" height="16.821" style="fill:#9c4f39;"/>
                </g>
                <g transform="matrix(2.29059e-17,-0.374082,1.44237,8.83198e-17,149.692,127.344)">
                    <rect x="208.424" y="45.276" width="3.203" height="16.821" style="fill:#9c4f39;"/>
                </g>
                <g transform="matrix(2.29059e-17,-0.374082,1.44237,8.83198e-17,149.692,134.04)">
                    <rect x="208.424" y="45.276" width="3.203" height="16.821" style="fill:#9c4f39;"/>
                </g>
                <path d="M213.422,63.875L213.422,62.687L207.485,62.687L207.485,63.875L213.422,63.875ZM274.062,62.687L274.062,63.875L276.287,63.875C278.336,63.875 280,62.211 280,60.162L280,58.975C280,61.024 278.336,62.687 276.287,62.687L274.062,62.687ZM246.672,63.875L246.672,62.687L240.735,62.687L240.735,63.875L246.672,63.875Z" style="fill:#773a27;"/>
            </g>
            <path d="M34.05,64.127C35.252,62.926 36.135,61.696 36.494,60.419C37.216,61.517 37.519,62.788 37.589,64.155L38.905,61.759C39.596,62.083 40.529,63.492 40.443,64.147C40.427,64.276 40.443,64.602 40.443,64.602L34.068,64.602L34.05,64.127Z" style="fill:#7dab32;"/>
            <path d="M253.088,64.093C253.947,63.225 254.549,62.26 254.819,61.171C255.701,61.924 256.249,62.852 256.616,63.875C257.444,63.572 258.094,63.133 258.504,62.51C259.325,62.931 259.893,63.478 260.369,64.07L260.369,64.602L253.066,64.602L253.088,64.093Z" style="fill:#7dab32;"/>
        </g>
    </g>
    <defs>
        <linearGradient id="_Linear1" x1="0" y1="0" x2="1" y2="0" gradientUnits="userSpaceOnUse" gradientTransform="matrix(-2.36277e-14,77.1697,-12.15,-5.81666e-15,163.266,2.83034)"><stop offset="0" style="stop-color:#9beaff;stop-opacity:1"/><stop offset="0.51" style="stop-color:#3bc9f8;stop-opacity:1"/><stop offset="1" style="stop-color:#19bef5;stop-opacity:1"/></linearGradient>
    </defs>
</svg>
