<?xml version="1.0" encoding="UTF-8" standalone="no"?>
<!DOCTYPE svg PUBLIC "-//W3C//DTD SVG 1.1//EN" "http://www.w3.org/Graphics/SVG/1.1/DTD/svg11.dtd">
<svg width="100%" height="100%" viewBox="0 0 280 62" version="1.1" xmlns="http://www.w3.org/2000/svg" xmlns:xlink="http://www.w3.org/1999/xlink" xml:space="preserve" xmlns:serif="http://www.serif.com/" style="fill-rule:evenodd;clip-rule:evenodd;stroke-miterlimit:10;">
    <g id="banner_9" transform="matrix(1,0,0,1,0,-8.7)">
        <path d="M280,47.751L-0,47.751L-0,65.286C-0,67.888 2.112,70 4.714,70L275.286,70C277.888,70 280,67.888 280,65.286L280,47.751Z" style="fill:#777;"/>
        <g transform="matrix(-0.893232,-1.09389e-16,8.74808e-17,-0.714335,285.834,65.8968)">
            <path d="M320,8.028C320,5.159 318.138,2.83 315.844,2.83L10.688,2.83C8.394,2.83 6.532,5.159 6.532,8.028L6.532,74.803C6.532,77.671 8.394,80 10.688,80L315.844,80C318.138,80 320,77.671 320,74.803L320,8.028Z" style="fill:url(#_Linear1);"/>
        </g>
        <g>
            <path d="M15.743,45.258C15.764,45.228 15.786,45.198 15.809,45.167C16.169,44.68 16.643,44.064 17.251,43.057C17.442,43.036 18.055,42.97 18.345,42.958C19.429,42.915 20.42,43.062 21.472,43.333C21.596,43.364 21.725,43.398 21.858,43.431C21.815,44.119 21.717,44.863 21.769,45.549C21.874,46.941 22.418,48.158 23.996,48.897C24.442,49.105 24.927,49.234 25.415,49.294C25.75,49.335 26.082,49.35 26.407,49.326C26.475,49.523 26.558,49.709 26.65,49.888C26.76,50.1 26.884,50.3 27.004,50.502C27.073,50.619 27.174,50.73 27.147,50.915C27.014,51.826 27.646,52.672 28.556,52.805C29.466,52.937 30.313,52.306 30.445,51.396C30.584,50.441 30.372,49.747 30.049,49.123C29.952,48.935 29.844,48.757 29.736,48.576C29.664,48.456 29.561,48.346 29.544,48.182C29.569,48.031 29.713,47.12 29.702,46.763C29.687,46.279 29.534,45.907 29.364,45.656C28.767,44.771 26.475,45.749 26.475,45.749C26.475,45.749 26.408,45.779 26.171,46.002C26.092,46.001 25.922,45.998 25.822,45.986C25.681,45.968 25.538,45.938 25.409,45.877C25.022,45.696 25.078,45.311 25.085,44.959C25.092,44.543 25.137,44.116 25.171,43.703C25.229,43.688 25.285,43.671 25.341,43.652C25.947,43.448 26.44,43.133 26.85,42.736C27.341,43.118 27.957,43.445 28.585,43.603C29.492,43.831 30.39,43.718 31.071,43.277C31.844,42.778 32.066,41.746 31.566,40.973C31.106,40.261 30.194,40.017 29.449,40.374C29.312,40.334 28.925,40.21 28.835,40.075C28.752,39.949 28.655,39.838 28.547,39.743C28.645,39.5 28.746,39.261 28.862,39.034C29.038,38.691 29.232,38.359 29.677,38.273C30.58,38.1 31.173,37.226 31,36.322C30.826,35.419 29.952,34.826 29.049,35C27.299,35.336 26.375,36.452 25.734,37.849C25.482,38.398 25.279,38.995 25.032,39.546C24.871,39.903 24.733,40.276 24.385,40.449C24.393,40.421 24.401,40.394 24.409,40.366C24.524,39.955 24.675,39.54 24.78,39.097C24.991,38.202 24.435,37.304 23.54,37.093C22.645,36.882 21.746,37.437 21.535,38.333C21.411,38.862 21.214,39.349 21.105,39.839C20.154,39.665 19.212,39.587 18.211,39.628C17.609,39.652 16.851,39.672 16.208,39.877C16.014,39.94 15.828,40.016 15.652,40.107C15.479,39.009 15.126,37.783 15.362,36.726C15.405,36.534 15.614,36.474 15.776,36.374C16.106,36.171 16.465,36.007 16.778,35.843C16.951,35.752 17.13,35.649 17.312,35.534C17.417,35.618 17.534,35.691 17.662,35.749C18.743,36.242 20.213,36.621 21.462,36.49C22.307,36.402 23.067,36.098 23.666,35.562C24.262,35.03 24.73,34.258 24.881,33.125C25.002,32.213 24.36,31.374 23.448,31.253C22.537,31.131 21.698,31.773 21.576,32.685C21.554,32.855 21.534,32.992 21.447,33.075C21.283,33.231 21.028,33.194 20.779,33.181C20.471,33.165 20.154,33.103 19.852,33.016C20.277,32.268 20.495,31.452 20.43,30.623C20.359,29.706 19.557,29.019 18.64,29.09C17.723,29.162 17.036,29.964 17.107,30.881C17.134,31.226 16.886,31.52 16.64,31.799C16.227,32.269 15.686,32.651 15.227,32.892C14.604,33.219 13.862,33.575 13.294,34.07C12.715,34.575 12.286,35.204 12.109,35.999C11.981,36.57 11.968,37.18 12.01,37.802C11.746,37.476 11.496,37.147 11.284,36.806C10.886,36.166 10.635,35.473 10.885,34.601C11.01,34.163 11.213,33.743 11.453,33.357C11.73,32.909 12.041,32.463 12.475,32.158C13.227,31.629 13.408,30.588 12.879,29.836C12.35,29.084 11.309,28.902 10.557,29.432C9.756,29.995 9.131,30.774 8.619,31.601C8.219,32.246 7.889,32.953 7.68,33.684C6.952,36.23 7.976,38.112 9.42,39.898C10.343,41.041 11.534,42.091 11.781,43.576C12.003,44.906 12.014,46.604 11.371,47.819C11.019,48.484 10.603,49.115 10.247,49.778C10.255,49.764 10.284,49.715 10.284,49.715C10.284,49.715 9.81,50.621 9.775,50.908C9.734,51.245 9.792,51.528 9.878,51.75C10.082,52.277 10.46,52.644 11.067,52.791C11.538,52.905 12.001,52.855 12.438,52.667C12.934,52.452 13.407,51.98 13.684,51.609C14.376,50.683 14.797,49.537 15.137,48.443C15.448,47.444 15.64,46.361 15.743,45.258Z" style="fill:#ff20f4;"/>
            <path d="M10.824,34.86C9.708,34.854 8.527,35.176 7.446,35.596C7.506,36.752 7.94,37.771 8.563,38.732C9.285,38.434 10.066,38.187 10.814,38.193C12.153,38.205 13.147,39.058 14.127,39.855C15.152,40.688 16.204,41.454 17.138,42.393C17.339,42.596 17.536,42.801 17.73,43.007C17.952,42.985 18.193,42.964 18.345,42.958C19.429,42.915 20.42,43.062 21.472,43.333C21.596,43.364 21.725,43.398 21.858,43.431C21.815,44.119 21.717,44.863 21.769,45.549C21.785,45.769 21.813,45.984 21.854,46.194C23.291,46.71 25.142,46.878 26.525,46.448C27.107,46.267 27.643,45.988 28.166,45.681C28.369,45.561 28.568,45.433 28.771,45.313C27.874,45.152 26.475,45.749 26.475,45.749C26.475,45.749 26.408,45.779 26.171,46.002C26.092,46.001 25.922,45.998 25.822,45.986C25.681,45.968 25.538,45.938 25.409,45.877C25.022,45.696 25.078,45.311 25.085,44.959C25.092,44.543 25.137,44.116 25.171,43.703C25.229,43.688 25.285,43.671 25.341,43.652C25.947,43.448 26.44,43.133 26.85,42.736C27.341,43.118 27.957,43.445 28.585,43.603C29.492,43.831 30.39,43.718 31.071,43.277C31.614,42.927 31.885,42.313 31.825,41.711C31.716,41.69 31.608,41.67 31.499,41.653C30.584,41.507 29.689,41.424 28.78,41.682C28.182,41.852 27.633,42.127 27.099,42.437C26.588,42.735 26.104,43.088 25.537,43.265C24.666,43.535 23.459,43.311 22.652,42.921C21.314,42.274 20.524,41.071 19.502,40.043C19.359,39.899 19.213,39.759 19.066,39.622C18.785,39.614 18.5,39.616 18.211,39.628C17.609,39.652 16.851,39.672 16.208,39.877C16.014,39.94 15.828,40.016 15.652,40.107C15.479,39.009 15.126,37.783 15.362,36.726C15.37,36.688 15.385,36.656 15.405,36.627C14.498,35.959 13.532,35.391 12.454,35.09C12.3,35.366 12.183,35.668 12.109,35.999C11.981,36.57 11.968,37.18 12.01,37.802C11.746,37.476 11.496,37.147 11.284,36.806C10.926,36.231 10.687,35.613 10.824,34.86ZM22.666,37.123C23.109,37.192 23.554,37.241 23.993,37.272C23.855,37.192 23.703,37.131 23.54,37.093C23.24,37.022 22.94,37.037 22.666,37.123ZM26.268,36.874C26.415,36.811 26.561,36.742 26.705,36.669C27.217,36.409 27.707,36.075 28.248,35.84C28.927,35.545 29.728,35.466 30.497,35.416C30.121,35.067 29.59,34.896 29.049,35C27.73,35.253 26.881,35.949 26.268,36.874ZM16.982,31.354C16.892,31.509 16.766,31.656 16.64,31.799C16.227,32.269 15.686,32.651 15.227,32.892C14.665,33.188 14.005,33.506 13.464,33.929L13.719,33.985C14.452,34.147 15.211,34.252 15.918,34.514C17.279,35.017 18.518,35.818 19.858,36.367C19.933,36.397 20.007,36.427 20.083,36.455C20.552,36.519 21.021,36.536 21.462,36.49C22.307,36.402 23.067,36.098 23.666,35.562C24.113,35.163 24.487,34.63 24.71,33.911C24.583,33.945 24.448,33.963 24.304,33.953C23.235,33.881 22.117,33.69 21.122,33.282C21.047,33.252 20.973,33.22 20.9,33.188C20.859,33.186 20.819,33.183 20.779,33.181C20.471,33.165 20.154,33.103 19.852,33.016C19.9,32.932 19.945,32.848 19.987,32.762C19.024,32.286 18.081,31.759 17.074,31.387C17.043,31.376 17.013,31.365 16.982,31.354ZM9.772,30.101C9.329,30.551 8.951,31.066 8.619,31.601C8.219,32.246 7.889,32.953 7.68,33.684C7.674,33.705 7.668,33.726 7.662,33.746L7.666,33.745C8.861,33.336 10.112,33.352 11.352,33.526C11.384,33.469 11.418,33.412 11.453,33.357C11.73,32.909 12.041,32.463 12.475,32.158C13.032,31.766 13.276,31.093 13.149,30.464C12.037,30.255 10.901,30.102 9.772,30.101Z" style="fill:#ff4ef6;"/>
        </g>
        <g>
            <g transform="matrix(0.0989392,0,0,0.0989392,5.63481,41.6714)">
                <g transform="matrix(1,0,0,1,-312.488,-1439.97)">
                    <path d="M323.693,1407.33C331.956,1395.24 345.316,1387.08 361.875,1386.24L425.86,1385.8C460.071,1386.21 475.376,1409.26 479.378,1443.5C480.946,1454.09 481.401,1464.87 480.595,1475.85L501.511,1477.52C516.977,1478.59 527.431,1487.52 531.03,1507.19L533.7,1523.36L555.697,1526.95C574.989,1529.73 583.049,1542.42 580.962,1564.08L334.705,1564.08L334.705,1563.76C324.566,1563.76 324.069,1547.37 324.069,1533.76L323.693,1407.33Z" style="fill:#94b4b5;"/>
                </g>
                <g transform="matrix(1,0,0,1,-312.488,-1439.97)">
                    <path d="M323.693,1407.33C331.956,1395.24 345.316,1387.08 361.875,1386.24C343.204,1411.26 338.996,1436.68 355.927,1462.68C366.135,1479.22 362.043,1493.62 352.463,1507.19C347.445,1521.77 349.336,1534.25 367.07,1541.91C367.07,1541.91 511.378,1565.12 533.093,1564.08L334.705,1564.08L334.705,1563.76C324.566,1563.76 324.069,1547.37 324.069,1533.76L323.693,1407.33Z" style="fill:#557a7c;fill-opacity:0.5;"/>
                </g>
                <g transform="matrix(10.1072,0,0,10.1072,-56.9522,-421.182)">
                    <path d="M27.523,52.73C27.655,52.73 27.763,52.838 27.763,52.97C27.763,53.103 27.655,53.21 27.523,53.21C27.391,53.21 27.283,53.103 27.283,52.97C27.283,52.838 27.391,52.73 27.523,52.73ZM25.614,47.192C25.714,47.192 25.795,47.273 25.795,47.373C25.795,47.473 25.714,47.554 25.614,47.554C25.514,47.554 25.433,47.473 25.433,47.373C25.433,47.273 25.514,47.192 25.614,47.192ZM24.245,46.551C24.501,46.551 24.708,46.758 24.708,47.014C24.708,47.269 24.501,47.477 24.245,47.477C23.99,47.477 23.782,47.269 23.782,47.014C23.782,46.758 23.99,46.551 24.245,46.551ZM12.847,45.147C13.006,45.147 13.136,45.277 13.136,45.436C13.136,45.595 13.006,45.725 12.847,45.725C12.687,45.725 12.558,45.595 12.558,45.436C12.558,45.277 12.687,45.147 12.847,45.147ZM16.907,39.462C17.461,39.462 17.911,39.912 17.911,40.466C17.911,41.021 17.461,41.471 16.907,41.471C16.352,41.471 15.902,41.021 15.902,40.466C15.902,39.912 16.352,39.462 16.907,39.462ZM18.982,38.887C19.222,38.887 19.417,39.082 19.417,39.322C19.417,39.562 19.222,39.757 18.982,39.757C18.742,39.757 18.547,39.562 18.547,39.322C18.547,39.082 18.742,38.887 18.982,38.887Z" style="fill:#759799;"/>
                </g>
            </g>
            <g transform="matrix(0.0931898,0,0,0.0931898,172.775,47.6852)">
                <g transform="matrix(1,0,0,1,-1386.97,-1499.18)">
                    <path d="M1397.06,1564.08C1402.33,1541.51 1417.48,1527.38 1447.54,1526.06C1453.79,1513.23 1466.98,1504.35 1486.21,1504.5L1510.08,1504.27C1517.2,1504.5 1521.43,1507.63 1522.37,1514.05L1593.06,1509.14C1613.53,1508.68 1619.03,1519.78 1617.86,1536.02C1641.04,1535.21 1654.31,1544.29 1656.89,1564.08L1397.06,1564.08Z" style="fill:#94b4b5;"/>
                </g>
                <g transform="matrix(1,0,0,1,-1386.97,-1499.18)">
                    <path d="M1430.65,1564.08C1435.38,1548.89 1446.86,1539.48 1468.22,1538.54C1472.98,1528.76 1483.05,1521.98 1497.71,1522.1L1515.92,1521.92C1521.35,1522.1 1524.58,1524.49 1525.29,1529.38L1579.21,1525.63C1594.82,1525.29 1599.02,1533.75 1598.13,1546.14C1614.39,1545.57 1624.27,1551.39 1627.27,1564.08L1430.65,1564.08Z" style="fill:#557a7c;fill-opacity:0.5;"/>
                </g>
                <g transform="matrix(10.7308,0,0,10.7308,-1854.01,-511.7)">
                    <path d="M196.304,53.02C196.359,53.02 196.403,53.064 196.403,53.119C196.403,53.173 196.359,53.218 196.304,53.218C196.25,53.218 196.205,53.173 196.205,53.119C196.205,53.064 196.25,53.02 196.304,53.02ZM196.14,52.136C196.285,52.136 196.403,52.254 196.403,52.399C196.403,52.544 196.285,52.662 196.14,52.662C195.995,52.662 195.877,52.544 195.877,52.399C195.877,52.254 195.995,52.136 196.14,52.136ZM176.264,51.38C176.473,51.38 176.642,51.55 176.642,51.758C176.642,51.967 176.473,52.136 176.264,52.136C176.056,52.136 175.886,51.967 175.886,51.758C175.886,51.55 176.056,51.38 176.264,51.38ZM177.195,51.56C177.304,51.56 177.393,51.649 177.393,51.758C177.393,51.867 177.304,51.956 177.195,51.956C177.086,51.956 176.997,51.867 176.997,51.758C176.997,51.649 177.086,51.56 177.195,51.56ZM192.953,49.308C193.137,49.308 193.286,49.457 193.286,49.641C193.286,49.825 193.137,49.975 192.953,49.975C192.769,49.975 192.619,49.825 192.619,49.641C192.619,49.457 192.769,49.308 192.953,49.308ZM180.643,49.149C180.76,49.149 180.855,49.244 180.855,49.361C180.855,49.479 180.76,49.574 180.643,49.574C180.525,49.574 180.43,49.479 180.43,49.361C180.43,49.244 180.525,49.149 180.643,49.149ZM192.218,49.149C192.305,49.149 192.377,49.22 192.377,49.308C192.377,49.395 192.305,49.467 192.218,49.467C192.13,49.467 192.059,49.395 192.059,49.308C192.059,49.22 192.13,49.149 192.218,49.149Z" style="fill:#759799;"/>
                </g>
            </g>
        </g>
        <g>
            <g>
                <g transform="matrix(0.0588419,0,0,0.0588419,-40.2897,-38.2922)">
                    <path d="M1354.98,1564.08L1423.6,1564.08C1413.55,1537.33 1410.54,1511.57 1427.79,1488.62C1447.38,1467.4 1448.38,1445.72 1437.06,1423.73C1428.47,1403.01 1427.94,1383.15 1447.54,1365.4C1415.42,1359.56 1398.63,1378.05 1398.04,1422.26C1400.09,1441.69 1392.38,1458.59 1377.76,1473.69C1362.32,1492.44 1352.53,1528.25 1354.98,1564.08Z" style="fill:#00c13c;"/>
                </g>
                <g transform="matrix(0.0588419,0,0,0.0588419,-40.2897,-38.2922)">
                    <path d="M1388.65,1564.08L1423.6,1564.08C1413.55,1537.33 1410.54,1511.57 1427.79,1488.62C1447.38,1467.4 1448.38,1445.72 1437.06,1423.73C1428.47,1403.01 1427.94,1383.15 1447.54,1365.4C1419.47,1375.76 1417.41,1391.07 1420.71,1422.26C1422.77,1441.69 1420,1465.55 1405.37,1480.65C1389.93,1499.41 1386.2,1528.25 1388.65,1564.08Z" style="fill:#00ff4f;"/>
                </g>
            </g>
            <g>
                <g transform="matrix(0.124618,0,0,0.124618,-14.4792,-140.578)">
                    <path d="M389.005,1564.08C375.301,1539.96 375.893,1520.52 394.101,1506.84C419.059,1484.54 421.139,1464.25 404.067,1445.65C440.693,1452.18 452.741,1485.5 426.087,1514.05C417.3,1530.07 426.561,1546.83 447.807,1564.08L389.005,1564.08Z" style="fill:#00c13c;"/>
                </g>
                <g transform="matrix(0.124618,0,0,0.124618,-14.4792,-140.578)">
                    <path d="M413.028,1564.08C396.75,1540.48 400.043,1523.38 413.649,1509.02C440.467,1480.72 430.942,1452.29 404.067,1445.65C440.693,1452.18 452.741,1485.5 426.087,1514.05C417.3,1530.07 426.561,1546.83 447.807,1564.08L413.028,1564.08Z" style="fill:#00ea49;"/>
                </g>
            </g>
            <g>
                <g transform="matrix(0.102217,0,0,0.102217,133.03,-106.142)">
                    <path d="M1282.85,1564.08C1263.27,1520.97 1264.98,1480.71 1289.82,1443.57C1318.3,1381.25 1319.66,1326.73 1264.1,1288.57C1322.28,1288.57 1383.5,1353.54 1354.61,1435.6C1336.82,1486.12 1344.92,1520.59 1388.65,1564.08L1282.85,1564.08Z" style="fill:#00ff4f;"/>
                </g>
                <g transform="matrix(0.102217,0,0,0.102217,133.03,-106.142)">
                    <path d="M1320.81,1564.08C1301.23,1520.97 1289.45,1488.08 1313.6,1443.57C1347.15,1381.76 1328.77,1309.52 1264.1,1288.57C1322.28,1288.57 1383.5,1353.54 1354.61,1435.6C1336.82,1486.12 1344.92,1520.59 1388.65,1564.08L1320.81,1564.08Z" style="fill:#00c13c;"/>
                </g>
            </g>
            <g transform="matrix(-1,0,0,1,304.034,0)">
                <g transform="matrix(0.0588419,0,0,0.0588419,-40.2897,-38.2922)">
                    <path d="M1354.98,1564.08L1423.6,1564.08C1413.55,1537.33 1410.54,1511.57 1427.79,1488.62C1447.38,1467.4 1448.38,1445.72 1437.06,1423.73C1428.47,1403.01 1427.94,1383.15 1447.54,1365.4C1415.42,1359.56 1398.63,1378.05 1398.04,1422.26C1400.09,1441.69 1392.38,1458.59 1377.76,1473.69C1362.32,1492.44 1352.53,1528.25 1354.98,1564.08Z" style="fill:#00c13c;"/>
                </g>
                <g transform="matrix(0.0588419,0,0,0.0588419,-40.2897,-38.2922)">
                    <path d="M1388.65,1564.08L1423.6,1564.08C1413.55,1537.33 1410.54,1511.57 1427.79,1488.62C1447.38,1467.4 1448.38,1445.72 1437.06,1423.73C1428.47,1403.01 1427.94,1383.15 1447.54,1365.4C1419.47,1375.76 1417.41,1391.07 1420.71,1422.26C1422.77,1441.69 1420,1465.55 1405.37,1480.65C1389.93,1499.41 1386.2,1528.25 1388.65,1564.08Z" style="fill:#00ff4f;"/>
                </g>
            </g>
            <g transform="matrix(-1,0,0,1,242.434,3.46498)">
                <g transform="matrix(0.0588419,0,0,0.0588419,-40.2897,-38.2922)">
                    <path d="M1354.98,1564.08L1423.6,1564.08C1413.55,1537.33 1410.54,1511.57 1427.79,1488.62C1447.38,1467.4 1448.38,1445.72 1437.06,1423.73C1428.47,1403.01 1427.94,1383.15 1447.54,1365.4C1415.42,1359.56 1398.63,1378.05 1398.04,1422.26C1400.09,1441.69 1392.38,1458.59 1377.76,1473.69C1362.32,1492.44 1352.53,1528.25 1354.98,1564.08Z" style="fill:#00c13c;"/>
                </g>
                <g transform="matrix(0.0588419,0,0,0.0588419,-40.2897,-38.2922)">
                    <path d="M1388.65,1564.08L1423.6,1564.08C1413.55,1537.33 1410.54,1511.57 1427.79,1488.62C1447.38,1467.4 1448.38,1445.72 1437.06,1423.73C1428.47,1403.01 1427.94,1383.15 1447.54,1365.4C1419.47,1375.76 1417.41,1391.07 1420.71,1422.26C1422.77,1441.69 1420,1465.55 1405.37,1480.65C1389.93,1499.41 1386.2,1528.25 1388.65,1564.08Z" style="fill:#00ff4f;"/>
                </g>
            </g>
            <g transform="matrix(1,0,0,1,161.646,1.19414)">
                <g transform="matrix(0.0588419,0,0,0.0588419,-40.2897,-38.2922)">
                    <path d="M1354.98,1564.08L1423.6,1564.08C1413.55,1537.33 1410.54,1511.57 1427.79,1488.62C1447.38,1467.4 1448.38,1445.72 1437.06,1423.73C1428.47,1403.01 1427.94,1383.15 1447.54,1365.4C1415.42,1359.56 1398.63,1378.05 1398.04,1422.26C1400.09,1441.69 1392.38,1458.59 1377.76,1473.69C1362.32,1492.44 1352.53,1528.25 1354.98,1564.08Z" style="fill:#00ff4f;"/>
                </g>
                <g transform="matrix(0.0588419,0,0,0.0588419,-40.2897,-38.2922)">
                    <path d="M1388.65,1564.08L1423.6,1564.08C1413.55,1537.33 1410.54,1511.57 1427.79,1488.62C1447.38,1467.4 1448.38,1445.72 1437.06,1423.73C1428.47,1403.01 1427.94,1383.15 1447.54,1365.4C1419.47,1375.76 1417.41,1391.07 1420.71,1422.26C1422.77,1441.69 1420,1465.55 1405.37,1480.65C1389.93,1499.41 1386.2,1528.25 1388.65,1564.08Z" style="fill:#00c13c;"/>
                </g>
            </g>
            <g transform="matrix(0.946987,-0.321271,0.321271,0.946987,52.5193,22.6685)">
                <g transform="matrix(0.946987,0.321271,-0.321271,0.946987,-42.4524,-38.3397)">
                    <path d="M107.154,53.753L110.121,53.753C110.11,52.9 109.724,52.165 109.055,51.517C108.184,50.526 107.779,49.429 108.536,48.069C106.636,48.351 106.049,49.698 106.852,52.174C107.091,52.69 107.184,53.217 107.154,53.753Z" style="fill:#00ff4f;"/>
                </g>
                <g transform="matrix(0.946987,0.321271,-0.321271,0.946987,-42.4524,-38.3397)">
                    <path d="M108.641,53.753L110.121,53.753C110.11,52.9 109.724,52.165 109.055,51.517C108.184,50.526 107.779,49.429 108.536,48.069C107.168,49.177 107.342,50.069 108.116,51.745C108.391,52.341 108.606,53.048 108.641,53.753Z" style="fill:#00c13c;"/>
                </g>
            </g>
            <g transform="matrix(-0.946987,-0.321271,-0.321271,0.946987,214.745,24.301)">
                <g transform="matrix(0.946987,0.321271,-0.321271,0.946987,-42.4524,-38.3397)">
                    <path d="M107.154,53.753L110.121,53.753C110.11,52.9 109.724,52.165 109.055,51.517C108.184,50.526 107.779,49.429 108.536,48.069C106.636,48.351 106.049,49.698 106.852,52.174C107.091,52.69 107.184,53.217 107.154,53.753Z" style="fill:#00ff4f;"/>
                </g>
                <g transform="matrix(0.946987,0.321271,-0.321271,0.946987,-42.4524,-38.3397)">
                    <path d="M108.641,53.753L110.121,53.753C110.11,52.9 109.724,52.165 109.055,51.517C108.184,50.526 107.779,49.429 108.536,48.069C107.168,49.177 107.342,50.069 108.116,51.745C108.391,52.341 108.606,53.048 108.641,53.753Z" style="fill:#00c13c;"/>
                </g>
            </g>
        </g>
        <g opacity="0.5">
            <g transform="matrix(0.3321,0,0,0.3321,209.099,15.678)">
                <g transform="matrix(1,0,0,1,-580.185,-1313.76)">
                    <circle cx="720.185" cy="1348.76" r="11.772" style="fill:#2899d0;"/>
                </g>
                <g transform="matrix(1,0,0,1,-580.185,-1313.76)">
                    <path d="M720.185,1334.9C712.538,1334.9 706.329,1341.11 706.329,1348.76C706.329,1356.4 712.538,1362.61 720.185,1362.61C727.832,1362.61 734.04,1356.4 734.04,1348.76C734.04,1341.11 727.832,1334.9 720.185,1334.9ZM720.185,1339.07C725.532,1339.07 729.873,1343.41 729.873,1348.76C729.873,1354.1 725.532,1358.45 720.185,1358.45C714.837,1358.45 710.496,1354.1 710.496,1348.76C710.496,1343.41 714.837,1339.07 720.185,1339.07Z" style="fill:#fff;"/>
                </g>
                <g transform="matrix(1,0,0,1,-580.185,-1313.76)">
                    <path d="M719.444,1344.38C721.438,1344.77 723.292,1346 723.902,1348C724.237,1349.1 725.402,1349.72 726.502,1349.39C727.602,1349.05 728.223,1347.89 727.888,1346.79C726.822,1343.29 723.72,1340.97 720.233,1340.29C719.104,1340.08 718.011,1340.82 717.793,1341.94C717.575,1343.07 718.315,1344.17 719.444,1344.38Z" style="fill:#fff;"/>
                </g>
            </g>
            <g transform="matrix(0.3321,0,0,0.3321,34.4715,15.4264)">
                <g transform="matrix(1,0,0,1,-580.185,-1313.76)">
                    <circle cx="720.185" cy="1348.76" r="11.772" style="fill:#2899d0;"/>
                </g>
                <g transform="matrix(1,0,0,1,-580.185,-1313.76)">
                    <path d="M720.185,1334.9C712.538,1334.9 706.329,1341.11 706.329,1348.76C706.329,1356.4 712.538,1362.61 720.185,1362.61C727.832,1362.61 734.04,1356.4 734.04,1348.76C734.04,1341.11 727.832,1334.9 720.185,1334.9ZM720.185,1339.07C725.532,1339.07 729.873,1343.41 729.873,1348.76C729.873,1354.1 725.532,1358.45 720.185,1358.45C714.837,1358.45 710.496,1354.1 710.496,1348.76C710.496,1343.41 714.837,1339.07 720.185,1339.07Z" style="fill:#fff;"/>
                </g>
                <g transform="matrix(1,0,0,1,-580.185,-1313.76)">
                    <path d="M719.444,1344.38C721.438,1344.77 723.292,1346 723.902,1348C724.237,1349.1 725.402,1349.72 726.502,1349.39C727.602,1349.05 728.223,1347.89 727.888,1346.79C726.822,1343.29 723.72,1340.97 720.233,1340.29C719.104,1340.08 718.011,1340.82 717.793,1341.94C717.575,1343.07 718.315,1344.17 719.444,1344.38Z" style="fill:#fff;"/>
                </g>
            </g>
            <g transform="matrix(0.136065,0,0,0.136065,96.0353,44.8461)">
                <g transform="matrix(1,0,0,1,-580.185,-1313.76)">
                    <circle cx="720.185" cy="1348.76" r="11.772" style="fill:#2899d0;"/>
                </g>
                <g transform="matrix(1,0,0,1,-580.185,-1313.76)">
                    <path d="M720.185,1334.9C712.538,1334.9 706.329,1341.11 706.329,1348.76C706.329,1356.4 712.538,1362.61 720.185,1362.61C727.832,1362.61 734.04,1356.4 734.04,1348.76C734.04,1341.11 727.832,1334.9 720.185,1334.9ZM720.185,1339.07C725.532,1339.07 729.873,1343.41 729.873,1348.76C729.873,1354.1 725.532,1358.45 720.185,1358.45C714.837,1358.45 710.496,1354.1 710.496,1348.76C710.496,1343.41 714.837,1339.07 720.185,1339.07Z" style="fill:#fff;"/>
                </g>
                <g transform="matrix(1,0,0,1,-580.185,-1313.76)">
                    <path d="M719.444,1344.38C721.438,1344.77 723.292,1346 723.902,1348C724.237,1349.1 725.402,1349.72 726.502,1349.39C727.602,1349.05 728.223,1347.89 727.888,1346.79C726.822,1343.29 723.72,1340.97 720.233,1340.29C719.104,1340.08 718.011,1340.82 717.793,1341.94C717.575,1343.07 718.315,1344.17 719.444,1344.38Z" style="fill:#fff;"/>
                </g>
            </g>
            <g transform="matrix(0.136065,0,0,0.136065,148.92,15.801)">
                <g transform="matrix(1,0,0,1,-580.185,-1313.76)">
                    <circle cx="720.185" cy="1348.76" r="11.772" style="fill:#2899d0;"/>
                </g>
                <g transform="matrix(1,0,0,1,-580.185,-1313.76)">
                    <path d="M720.185,1334.9C712.538,1334.9 706.329,1341.11 706.329,1348.76C706.329,1356.4 712.538,1362.61 720.185,1362.61C727.832,1362.61 734.04,1356.4 734.04,1348.76C734.04,1341.11 727.832,1334.9 720.185,1334.9ZM720.185,1339.07C725.532,1339.07 729.873,1343.41 729.873,1348.76C729.873,1354.1 725.532,1358.45 720.185,1358.45C714.837,1358.45 710.496,1354.1 710.496,1348.76C710.496,1343.41 714.837,1339.07 720.185,1339.07Z" style="fill:#fff;"/>
                </g>
                <g transform="matrix(1,0,0,1,-580.185,-1313.76)">
                    <path d="M719.444,1344.38C721.438,1344.77 723.292,1346 723.902,1348C724.237,1349.1 725.402,1349.72 726.502,1349.39C727.602,1349.05 728.223,1347.89 727.888,1346.79C726.822,1343.29 723.72,1340.97 720.233,1340.29C719.104,1340.08 718.011,1340.82 717.793,1341.94C717.575,1343.07 718.315,1344.17 719.444,1344.38Z" style="fill:#fff;"/>
                </g>
            </g>
            <g transform="matrix(0.136065,0,0,0.136065,191.443,33.4355)">
                <g transform="matrix(1,0,0,1,-580.185,-1313.76)">
                    <circle cx="720.185" cy="1348.76" r="11.772" style="fill:#2899d0;"/>
                </g>
                <g transform="matrix(1,0,0,1,-580.185,-1313.76)">
                    <path d="M720.185,1334.9C712.538,1334.9 706.329,1341.11 706.329,1348.76C706.329,1356.4 712.538,1362.61 720.185,1362.61C727.832,1362.61 734.04,1356.4 734.04,1348.76C734.04,1341.11 727.832,1334.9 720.185,1334.9ZM720.185,1339.07C725.532,1339.07 729.873,1343.41 729.873,1348.76C729.873,1354.1 725.532,1358.45 720.185,1358.45C714.837,1358.45 710.496,1354.1 710.496,1348.76C710.496,1343.41 714.837,1339.07 720.185,1339.07Z" style="fill:#fff;"/>
                </g>
                <g transform="matrix(1,0,0,1,-580.185,-1313.76)">
                    <path d="M719.444,1344.38C721.438,1344.77 723.292,1346 723.902,1348C724.237,1349.1 725.402,1349.72 726.502,1349.39C727.602,1349.05 728.223,1347.89 727.888,1346.79C726.822,1343.29 723.72,1340.97 720.233,1340.29C719.104,1340.08 718.011,1340.82 717.793,1341.94C717.575,1343.07 718.315,1344.17 719.444,1344.38Z" style="fill:#fff;"/>
                </g>
            </g>
            <g transform="matrix(0.181307,0,0,0.17203,197.142,20.8261)">
                <g transform="matrix(1,0,0,1,-580.185,-1313.76)">
                    <circle cx="720.185" cy="1348.76" r="11.772" style="fill:#2899d0;"/>
                </g>
                <g transform="matrix(1,0,0,1,-580.185,-1313.76)">
                    <path d="M720.185,1334.9C712.538,1334.9 706.329,1341.11 706.329,1348.76C706.329,1356.4 712.538,1362.61 720.185,1362.61C727.832,1362.61 734.04,1356.4 734.04,1348.76C734.04,1341.11 727.832,1334.9 720.185,1334.9ZM720.185,1339.07C725.532,1339.07 729.873,1343.41 729.873,1348.76C729.873,1354.1 725.532,1358.45 720.185,1358.45C714.837,1358.45 710.496,1354.1 710.496,1348.76C710.496,1343.41 714.837,1339.07 720.185,1339.07Z" style="fill:#fff;"/>
                </g>
                <g transform="matrix(1,0,0,1,-580.185,-1313.76)">
                    <path d="M719.444,1344.38C721.438,1344.77 723.292,1346 723.902,1348C724.237,1349.1 725.402,1349.72 726.502,1349.39C727.602,1349.05 728.223,1347.89 727.888,1346.79C726.822,1343.29 723.72,1340.97 720.233,1340.29C719.104,1340.08 718.011,1340.82 717.793,1341.94C717.575,1343.07 718.315,1344.17 719.444,1344.38Z" style="fill:#fff;"/>
                </g>
            </g>
            <g transform="matrix(0.131472,0,0,0.124745,212.996,45.8153)">
                <g transform="matrix(1,0,0,1,-580.185,-1313.76)">
                    <circle cx="720.185" cy="1348.76" r="11.772" style="fill:#2899d0;"/>
                </g>
                <g transform="matrix(1,0,0,1,-580.185,-1313.76)">
                    <path d="M720.185,1334.9C712.538,1334.9 706.329,1341.11 706.329,1348.76C706.329,1356.4 712.538,1362.61 720.185,1362.61C727.832,1362.61 734.04,1356.4 734.04,1348.76C734.04,1341.11 727.832,1334.9 720.185,1334.9ZM720.185,1339.07C725.532,1339.07 729.873,1343.41 729.873,1348.76C729.873,1354.1 725.532,1358.45 720.185,1358.45C714.837,1358.45 710.496,1354.1 710.496,1348.76C710.496,1343.41 714.837,1339.07 720.185,1339.07Z" style="fill:#fff;"/>
                </g>
                <g transform="matrix(1,0,0,1,-580.185,-1313.76)">
                    <path d="M719.444,1344.38C721.438,1344.77 723.292,1346 723.902,1348C724.237,1349.1 725.402,1349.72 726.502,1349.39C727.602,1349.05 728.223,1347.89 727.888,1346.79C726.822,1343.29 723.72,1340.97 720.233,1340.29C719.104,1340.08 718.011,1340.82 717.793,1341.94C717.575,1343.07 718.315,1344.17 719.444,1344.38Z" style="fill:#fff;"/>
                </g>
            </g>
            <g transform="matrix(0.131472,0,0,0.124745,177.699,26.593)">
                <g transform="matrix(1,0,0,1,-580.185,-1313.76)">
                    <circle cx="720.185" cy="1348.76" r="11.772" style="fill:#2899d0;"/>
                </g>
                <g transform="matrix(1,0,0,1,-580.185,-1313.76)">
                    <path d="M720.185,1334.9C712.538,1334.9 706.329,1341.11 706.329,1348.76C706.329,1356.4 712.538,1362.61 720.185,1362.61C727.832,1362.61 734.04,1356.4 734.04,1348.76C734.04,1341.11 727.832,1334.9 720.185,1334.9ZM720.185,1339.07C725.532,1339.07 729.873,1343.41 729.873,1348.76C729.873,1354.1 725.532,1358.45 720.185,1358.45C714.837,1358.45 710.496,1354.1 710.496,1348.76C710.496,1343.41 714.837,1339.07 720.185,1339.07Z" style="fill:#fff;"/>
                </g>
                <g transform="matrix(1,0,0,1,-580.185,-1313.76)">
                    <path d="M719.444,1344.38C721.438,1344.77 723.292,1346 723.902,1348C724.237,1349.1 725.402,1349.72 726.502,1349.39C727.602,1349.05 728.223,1347.89 727.888,1346.79C726.822,1343.29 723.72,1340.97 720.233,1340.29C719.104,1340.08 718.011,1340.82 717.793,1341.94C717.575,1343.07 718.315,1344.17 719.444,1344.38Z" style="fill:#fff;"/>
                </g>
            </g>
            <g transform="matrix(0.131472,0,0,0.124745,116.378,20.0975)">
                <g transform="matrix(1,0,0,1,-580.185,-1313.76)">
                    <circle cx="720.185" cy="1348.76" r="11.772" style="fill:#2899d0;"/>
                </g>
                <g transform="matrix(1,0,0,1,-580.185,-1313.76)">
                    <path d="M720.185,1334.9C712.538,1334.9 706.329,1341.11 706.329,1348.76C706.329,1356.4 712.538,1362.61 720.185,1362.61C727.832,1362.61 734.04,1356.4 734.04,1348.76C734.04,1341.11 727.832,1334.9 720.185,1334.9ZM720.185,1339.07C725.532,1339.07 729.873,1343.41 729.873,1348.76C729.873,1354.1 725.532,1358.45 720.185,1358.45C714.837,1358.45 710.496,1354.1 710.496,1348.76C710.496,1343.41 714.837,1339.07 720.185,1339.07Z" style="fill:#fff;"/>
                </g>
                <g transform="matrix(1,0,0,1,-580.185,-1313.76)">
                    <path d="M719.444,1344.38C721.438,1344.77 723.292,1346 723.902,1348C724.237,1349.1 725.402,1349.72 726.502,1349.39C727.602,1349.05 728.223,1347.89 727.888,1346.79C726.822,1343.29 723.72,1340.97 720.233,1340.29C719.104,1340.08 718.011,1340.82 717.793,1341.94C717.575,1343.07 718.315,1344.17 719.444,1344.38Z" style="fill:#fff;"/>
                </g>
            </g>
            <g transform="matrix(0.131472,0,0,0.124745,14.3608,20.0975)">
                <g transform="matrix(1,0,0,1,-580.185,-1313.76)">
                    <circle cx="720.185" cy="1348.76" r="11.772" style="fill:#2899d0;"/>
                </g>
                <g transform="matrix(1,0,0,1,-580.185,-1313.76)">
                    <path d="M720.185,1334.9C712.538,1334.9 706.329,1341.11 706.329,1348.76C706.329,1356.4 712.538,1362.61 720.185,1362.61C727.832,1362.61 734.04,1356.4 734.04,1348.76C734.04,1341.11 727.832,1334.9 720.185,1334.9ZM720.185,1339.07C725.532,1339.07 729.873,1343.41 729.873,1348.76C729.873,1354.1 725.532,1358.45 720.185,1358.45C714.837,1358.45 710.496,1354.1 710.496,1348.76C710.496,1343.41 714.837,1339.07 720.185,1339.07Z" style="fill:#fff;"/>
                </g>
                <g transform="matrix(1,0,0,1,-580.185,-1313.76)">
                    <path d="M719.444,1344.38C721.438,1344.77 723.292,1346 723.902,1348C724.237,1349.1 725.402,1349.72 726.502,1349.39C727.602,1349.05 728.223,1347.89 727.888,1346.79C726.822,1343.29 723.72,1340.97 720.233,1340.29C719.104,1340.08 718.011,1340.82 717.793,1341.94C717.575,1343.07 718.315,1344.17 719.444,1344.38Z" style="fill:#fff;"/>
                </g>
            </g>
            <g transform="matrix(0.148313,0,0,0.148313,227.564,26.0201)">
                <g transform="matrix(1,0,0,1,-580.185,-1313.76)">
                    <circle cx="720.185" cy="1348.76" r="11.772" style="fill:#2899d0;"/>
                </g>
                <g transform="matrix(1,0,0,1,-580.185,-1313.76)">
                    <path d="M720.185,1334.9C712.538,1334.9 706.329,1341.11 706.329,1348.76C706.329,1356.4 712.538,1362.61 720.185,1362.61C727.832,1362.61 734.04,1356.4 734.04,1348.76C734.04,1341.11 727.832,1334.9 720.185,1334.9ZM720.185,1339.07C725.532,1339.07 729.873,1343.41 729.873,1348.76C729.873,1354.1 725.532,1358.45 720.185,1358.45C714.837,1358.45 710.496,1354.1 710.496,1348.76C710.496,1343.41 714.837,1339.07 720.185,1339.07Z" style="fill:#fff;"/>
                </g>
                <g transform="matrix(1,0,0,1,-580.185,-1313.76)">
                    <path d="M719.444,1344.38C721.438,1344.77 723.292,1346 723.902,1348C724.237,1349.1 725.402,1349.72 726.502,1349.39C727.602,1349.05 728.223,1347.89 727.888,1346.79C726.822,1343.29 723.72,1340.97 720.233,1340.29C719.104,1340.08 718.011,1340.82 717.793,1341.94C717.575,1343.07 718.315,1344.17 719.444,1344.38Z" style="fill:#fff;"/>
                </g>
            </g>
            <g transform="matrix(0.148313,0,0,0.148313,149.432,42.9427)">
                <g transform="matrix(1,0,0,1,-580.185,-1313.76)">
                    <circle cx="720.185" cy="1348.76" r="11.772" style="fill:#2899d0;"/>
                </g>
                <g transform="matrix(1,0,0,1,-580.185,-1313.76)">
                    <path d="M720.185,1334.9C712.538,1334.9 706.329,1341.11 706.329,1348.76C706.329,1356.4 712.538,1362.61 720.185,1362.61C727.832,1362.61 734.04,1356.4 734.04,1348.76C734.04,1341.11 727.832,1334.9 720.185,1334.9ZM720.185,1339.07C725.532,1339.07 729.873,1343.41 729.873,1348.76C729.873,1354.1 725.532,1358.45 720.185,1358.45C714.837,1358.45 710.496,1354.1 710.496,1348.76C710.496,1343.41 714.837,1339.07 720.185,1339.07Z" style="fill:#fff;"/>
                </g>
                <g transform="matrix(1,0,0,1,-580.185,-1313.76)">
                    <path d="M719.444,1344.38C721.438,1344.77 723.292,1346 723.902,1348C724.237,1349.1 725.402,1349.72 726.502,1349.39C727.602,1349.05 728.223,1347.89 727.888,1346.79C726.822,1343.29 723.72,1340.97 720.233,1340.29C719.104,1340.08 718.011,1340.82 717.793,1341.94C717.575,1343.07 718.315,1344.17 719.444,1344.38Z" style="fill:#fff;"/>
                </g>
            </g>
            <g transform="matrix(0.148313,0,0,0.148313,80.3969,21.3422)">
                <g transform="matrix(1,0,0,1,-580.185,-1313.76)">
                    <circle cx="720.185" cy="1348.76" r="11.772" style="fill:#2899d0;"/>
                </g>
                <g transform="matrix(1,0,0,1,-580.185,-1313.76)">
                    <path d="M720.185,1334.9C712.538,1334.9 706.329,1341.11 706.329,1348.76C706.329,1356.4 712.538,1362.61 720.185,1362.61C727.832,1362.61 734.04,1356.4 734.04,1348.76C734.04,1341.11 727.832,1334.9 720.185,1334.9ZM720.185,1339.07C725.532,1339.07 729.873,1343.41 729.873,1348.76C729.873,1354.1 725.532,1358.45 720.185,1358.45C714.837,1358.45 710.496,1354.1 710.496,1348.76C710.496,1343.41 714.837,1339.07 720.185,1339.07Z" style="fill:#fff;"/>
                </g>
                <g transform="matrix(1,0,0,1,-580.185,-1313.76)">
                    <path d="M719.444,1344.38C721.438,1344.77 723.292,1346 723.902,1348C724.237,1349.1 725.402,1349.72 726.502,1349.39C727.602,1349.05 728.223,1347.89 727.888,1346.79C726.822,1343.29 723.72,1340.97 720.233,1340.29C719.104,1340.08 718.011,1340.82 717.793,1341.94C717.575,1343.07 718.315,1344.17 719.444,1344.38Z" style="fill:#fff;"/>
                </g>
            </g>
            <g transform="matrix(0.0949737,0,0,0.0949737,92.6936,27.9941)">
                <g transform="matrix(1,0,0,1,-580.185,-1313.76)">
                    <circle cx="720.185" cy="1348.76" r="11.772" style="fill:#2899d0;"/>
                </g>
                <g transform="matrix(1,0,0,1,-580.185,-1313.76)">
                    <path d="M720.185,1334.9C712.538,1334.9 706.329,1341.11 706.329,1348.76C706.329,1356.4 712.538,1362.61 720.185,1362.61C727.832,1362.61 734.04,1356.4 734.04,1348.76C734.04,1341.11 727.832,1334.9 720.185,1334.9ZM720.185,1339.07C725.532,1339.07 729.873,1343.41 729.873,1348.76C729.873,1354.1 725.532,1358.45 720.185,1358.45C714.837,1358.45 710.496,1354.1 710.496,1348.76C710.496,1343.41 714.837,1339.07 720.185,1339.07Z" style="fill:#fff;"/>
                </g>
                <g transform="matrix(1,0,0,1,-580.185,-1313.76)">
                    <path d="M719.444,1344.38C721.438,1344.77 723.292,1346 723.902,1348C724.237,1349.1 725.402,1349.72 726.502,1349.39C727.602,1349.05 728.223,1347.89 727.888,1346.79C726.822,1343.29 723.72,1340.97 720.233,1340.29C719.104,1340.08 718.011,1340.82 717.793,1341.94C717.575,1343.07 718.315,1344.17 719.444,1344.38Z" style="fill:#fff;"/>
                </g>
            </g>
            <g transform="matrix(0.228024,0,0,0.228024,-17.7889,18.5523)">
                <g transform="matrix(1,0,0,1,-580.185,-1313.76)">
                    <circle cx="720.185" cy="1348.76" r="11.772" style="fill:#2899d0;"/>
                </g>
                <g transform="matrix(1,0,0,1,-580.185,-1313.76)">
                    <path d="M720.185,1334.9C712.538,1334.9 706.329,1341.11 706.329,1348.76C706.329,1356.4 712.538,1362.61 720.185,1362.61C727.832,1362.61 734.04,1356.4 734.04,1348.76C734.04,1341.11 727.832,1334.9 720.185,1334.9ZM720.185,1339.07C725.532,1339.07 729.873,1343.41 729.873,1348.76C729.873,1354.1 725.532,1358.45 720.185,1358.45C714.837,1358.45 710.496,1354.1 710.496,1348.76C710.496,1343.41 714.837,1339.07 720.185,1339.07Z" style="fill:#fff;"/>
                </g>
                <g transform="matrix(1,0,0,1,-580.185,-1313.76)">
                    <path d="M719.444,1344.38C721.438,1344.77 723.292,1346 723.902,1348C724.237,1349.1 725.402,1349.72 726.502,1349.39C727.602,1349.05 728.223,1347.89 727.888,1346.79C726.822,1343.29 723.72,1340.97 720.233,1340.29C719.104,1340.08 718.011,1340.82 717.793,1341.94C717.575,1343.07 718.315,1344.17 719.444,1344.38Z" style="fill:#fff;"/>
                </g>
            </g>
            <g transform="matrix(0.159513,0,0,0.159513,5.34904,33.5134)">
                <g transform="matrix(1,0,0,1,-580.185,-1313.76)">
                    <circle cx="720.185" cy="1348.76" r="11.772" style="fill:#2899d0;"/>
                </g>
                <g transform="matrix(1,0,0,1,-580.185,-1313.76)">
                    <path d="M720.185,1334.9C712.538,1334.9 706.329,1341.11 706.329,1348.76C706.329,1356.4 712.538,1362.61 720.185,1362.61C727.832,1362.61 734.04,1356.4 734.04,1348.76C734.04,1341.11 727.832,1334.9 720.185,1334.9ZM720.185,1339.07C725.532,1339.07 729.873,1343.41 729.873,1348.76C729.873,1354.1 725.532,1358.45 720.185,1358.45C714.837,1358.45 710.496,1354.1 710.496,1348.76C710.496,1343.41 714.837,1339.07 720.185,1339.07Z" style="fill:#fff;"/>
                </g>
                <g transform="matrix(1,0,0,1,-580.185,-1313.76)">
                    <path d="M719.444,1344.38C721.438,1344.77 723.292,1346 723.902,1348C724.237,1349.1 725.402,1349.72 726.502,1349.39C727.602,1349.05 728.223,1347.89 727.888,1346.79C726.822,1343.29 723.72,1340.97 720.233,1340.29C719.104,1340.08 718.011,1340.82 717.793,1341.94C717.575,1343.07 718.315,1344.17 719.444,1344.38Z" style="fill:#fff;"/>
                </g>
            </g>
            <g transform="matrix(0.0868498,0,0,0.0868498,20.2098,32.6431)">
                <g transform="matrix(1,0,0,1,-580.185,-1313.76)">
                    <circle cx="720.185" cy="1348.76" r="11.772" style="fill:#2899d0;"/>
                </g>
                <g transform="matrix(1,0,0,1,-580.185,-1313.76)">
                    <path d="M720.185,1334.9C712.538,1334.9 706.329,1341.11 706.329,1348.76C706.329,1356.4 712.538,1362.61 720.185,1362.61C727.832,1362.61 734.04,1356.4 734.04,1348.76C734.04,1341.11 727.832,1334.9 720.185,1334.9ZM720.185,1339.07C725.532,1339.07 729.873,1343.41 729.873,1348.76C729.873,1354.1 725.532,1358.45 720.185,1358.45C714.837,1358.45 710.496,1354.1 710.496,1348.76C710.496,1343.41 714.837,1339.07 720.185,1339.07Z" style="fill:#fff;"/>
                </g>
                <g transform="matrix(1,0,0,1,-580.185,-1313.76)">
                    <path d="M719.444,1344.38C721.438,1344.77 723.292,1346 723.902,1348C724.237,1349.1 725.402,1349.72 726.502,1349.39C727.602,1349.05 728.223,1347.89 727.888,1346.79C726.822,1343.29 723.72,1340.97 720.233,1340.29C719.104,1340.08 718.011,1340.82 717.793,1341.94C717.575,1343.07 718.315,1344.17 719.444,1344.38Z" style="fill:#fff;"/>
                </g>
            </g>
            <g transform="matrix(0.0868498,0,0,0.0868498,36.4324,47.2505)">
                <g transform="matrix(1,0,0,1,-580.185,-1313.76)">
                    <circle cx="720.185" cy="1348.76" r="11.772" style="fill:#2899d0;"/>
                </g>
                <g transform="matrix(1,0,0,1,-580.185,-1313.76)">
                    <path d="M720.185,1334.9C712.538,1334.9 706.329,1341.11 706.329,1348.76C706.329,1356.4 712.538,1362.61 720.185,1362.61C727.832,1362.61 734.04,1356.4 734.04,1348.76C734.04,1341.11 727.832,1334.9 720.185,1334.9ZM720.185,1339.07C725.532,1339.07 729.873,1343.41 729.873,1348.76C729.873,1354.1 725.532,1358.45 720.185,1358.45C714.837,1358.45 710.496,1354.1 710.496,1348.76C710.496,1343.41 714.837,1339.07 720.185,1339.07Z" style="fill:#fff;"/>
                </g>
                <g transform="matrix(1,0,0,1,-580.185,-1313.76)">
                    <path d="M719.444,1344.38C721.438,1344.77 723.292,1346 723.902,1348C724.237,1349.1 725.402,1349.72 726.502,1349.39C727.602,1349.05 728.223,1347.89 727.888,1346.79C726.822,1343.29 723.72,1340.97 720.233,1340.29C719.104,1340.08 718.011,1340.82 717.793,1341.94C717.575,1343.07 718.315,1344.17 719.444,1344.38Z" style="fill:#fff;"/>
                </g>
            </g>
        </g>
        <g>
            <path d="M241.453,45.7C241.632,47.016 241.278,48.394 241.24,49.706C241.23,50.041 241.089,50.515 241.089,50.917C241.09,51.401 241.204,51.839 241.419,52.203C241.885,52.996 242.908,53.261 243.701,52.795C244.391,52.389 244.681,51.561 244.437,50.831C244.472,50.618 244.564,50.05 244.571,49.803C244.617,48.232 244.981,46.575 244.719,45.005C244.623,44.429 244.373,43.968 244.029,43.569C243.792,43.295 243.479,43.073 243.229,42.801C243.119,42.683 243.113,42.506 243.098,42.349C243.01,41.433 242.195,40.762 241.279,40.85C240.364,40.938 239.692,41.753 239.78,42.669C239.864,43.534 240.176,44.408 240.779,45.062C240.961,45.259 241.319,45.581 241.453,45.7ZM258,46.563C257.922,46.641 257.619,46.95 257.483,47.121C257.146,47.547 256.886,48.026 256.496,48.409C255.975,48.921 255.325,49.273 254.793,49.764C254.116,50.387 254.073,51.442 254.696,52.119C255.319,52.795 256.374,52.839 257.051,52.216C257.61,51.701 258.285,51.324 258.832,50.787C259.321,50.307 259.672,49.726 260.094,49.193C260.36,48.858 260.725,48.545 260.927,48.163C261.158,47.724 261.273,47.29 261.341,46.853C261.385,46.574 261.369,46.291 261.476,46.012C261.804,45.153 261.373,44.189 260.514,43.86C259.655,43.532 258.691,43.963 258.362,44.822C258.213,45.214 258.143,45.603 258.093,45.994C258.07,46.181 258.082,46.374 258,46.563ZM246.823,46.682C246.469,46.908 246.2,47.266 246.097,47.706C245.902,48.54 245.915,49.536 246.295,50.305C246.316,50.347 246.339,50.389 246.362,50.431C246.284,51.128 246.655,51.827 247.328,52.134C247.834,52.364 248.396,52.32 248.846,52.064C249.094,52.322 249.427,52.503 249.808,52.558C250.719,52.69 251.565,52.057 251.696,51.147C251.782,50.558 252.239,50.391 252.664,50.02C253.31,49.455 253.976,48.912 254.618,48.344C256.348,46.814 257.462,44.85 258.097,42.661C258.352,41.777 257.843,40.852 256.959,40.596C256.076,40.34 255.151,40.85 254.895,41.733C254.437,43.313 253.657,44.744 252.409,45.848C251.773,46.411 251.112,46.949 250.471,47.509C250.42,47.554 250.37,47.598 250.321,47.641C250.316,47.014 250.233,46.401 250.056,45.841C249.765,44.917 249.23,44.12 248.808,43.257C248.414,42.451 248.239,41.587 248.493,40.715C248.751,39.832 248.242,38.906 247.359,38.649C246.476,38.392 245.55,38.9 245.293,39.783C244.801,41.474 245.05,43.157 245.813,44.721C246.137,45.384 246.57,45.987 246.823,46.682Z" style="fill:#9f130a;"/>
            <path d="M239.329,48.991C239.155,49.032 238.973,49.078 238.789,49.123C238.622,49.164 238.35,49.204 238.196,49.225C237.63,48.667 236.727,48.58 236.059,49.057C235.311,49.592 235.137,50.634 235.672,51.382C236.296,52.256 237.174,52.592 238.179,52.574C238.752,52.564 239.39,52.379 239.94,52.258C240.241,53.125 240.783,53.909 241.378,54.593C242.147,55.475 243.361,56.224 244.517,56.46C244.701,56.498 244.973,56.513 245.199,56.519C245.642,56.929 246.294,57.083 246.901,56.862C247.262,56.731 247.55,56.487 247.74,56.185C247.881,56.145 248.018,56.086 248.146,56.007C248.425,56.122 248.724,56.165 249.046,56.12C249.356,56.077 249.797,55.954 250.222,55.45C250.334,55.317 250.422,55.171 250.486,55.018C251.186,55.147 251.966,55.054 252.658,55.051C253.229,55.048 253.815,55.098 254.362,54.89C254.693,54.764 254.973,54.559 255.186,54.283C255.411,54.434 255.673,54.531 255.949,54.559C256.309,54.899 256.816,55.076 257.344,54.997C258.222,54.864 258.837,54.067 258.754,53.193C258.776,53.145 258.83,53.034 258.891,52.993C258.959,52.993 259.171,52.993 259.292,53.002C259.572,53.022 259.848,53.046 260.091,53.047C261.438,53.047 262.893,52.58 263.9,51.616C264.312,51.222 264.621,50.744 264.834,50.223C265.071,50.217 265.316,50.183 265.564,50.12C266.44,49.899 267.405,49.274 267.939,48.826C268.643,48.234 268.735,47.182 268.143,46.478C267.552,45.773 266.5,45.682 265.795,46.273C265.632,46.411 265.216,46.637 264.952,46.775L264.845,46.393C264.906,46.32 265.029,46.18 265.112,46.105C265.367,45.879 265.64,45.678 265.862,45.492C266.567,44.901 266.66,43.849 266.069,43.144C265.478,42.439 264.426,42.346 263.721,42.937C263.31,43.281 262.77,43.681 262.365,44.149C261.92,44.664 261.615,45.254 261.523,45.903C261.42,46.629 261.694,47.291 261.827,47.98C261.907,48.399 261.912,48.905 261.595,49.208C261.203,49.583 260.618,49.714 260.093,49.713C259.417,49.713 258.512,49.603 257.868,49.816C257.464,49.949 257.063,50.185 256.709,50.492C256.64,50.424 256.57,50.359 256.52,50.314C256.335,49.964 256.219,49.59 256.054,49.233C256.678,48.771 257.295,48.278 257.776,47.721C258.673,46.682 259.573,45.429 260.067,44.11C260.261,43.591 260.397,43.063 260.459,42.53C260.559,42.446 260.651,42.349 260.732,42.238C260.814,42.127 260.951,42.063 261.067,41.976C261.31,41.793 261.545,41.603 261.744,41.39C262.819,40.248 263.264,38.805 263.222,37.27C263.197,36.351 262.43,35.625 261.511,35.65C260.591,35.675 259.865,36.442 259.89,37.362C259.905,37.896 259.81,38.415 259.52,38.85C259.142,38.353 258.601,37.881 258.057,37.418C257.875,37.263 257.695,37.107 257.541,36.941C257.486,36.883 257.411,36.778 257.374,36.726C257.57,35.855 257.041,34.978 256.171,34.75C255.281,34.516 254.369,35.049 254.136,35.939C253.809,37.187 254.211,38.218 255.016,39.12C255.379,39.526 255.839,39.904 256.275,40.277C256.506,40.475 256.742,40.653 256.871,40.871C257.277,41.557 257.197,42.27 256.945,42.941C256.587,43.899 255.903,44.789 255.253,45.543C254.657,46.233 253.769,46.765 253.038,47.305C252.751,47.516 252.485,47.766 252.204,47.992L252.26,47.796C252.304,47.774 252.347,47.75 252.389,47.724C254.683,46.311 255.822,43.938 255.612,41.32C255.538,40.403 254.734,39.719 253.817,39.792C252.9,39.866 252.216,40.67 252.289,41.587C252.36,42.465 252.139,43.292 251.65,43.962C251.537,43.808 251.419,43.658 251.299,43.509C251.054,43.206 250.705,42.968 250.696,42.544C250.694,42.425 250.727,42.311 250.757,42.197L250.827,41.944C251.313,41.278 251.241,40.337 250.626,39.754C249.959,39.121 248.903,39.149 248.27,39.816C247.897,40.21 247.666,40.844 247.534,41.347C247.425,41.761 247.355,42.182 247.364,42.611C247.382,43.521 247.709,44.257 248.181,44.926C248.502,45.381 248.969,45.756 249.19,46.284C249.165,46.4 249.082,46.784 249.033,46.96C248.794,47.826 248.143,48.415 247.546,49.045C247.159,49.452 246.777,49.864 246.435,50.303C246.473,49.79 246.591,49.282 246.699,48.774C246.959,47.552 247.206,46.329 247.051,45.076C246.924,44.05 246.578,42.994 246.086,42.085C245.684,41.341 245.065,40.725 244.938,39.856C244.877,39.439 244.968,38.998 245.253,38.691L245.302,38.642C246.047,38.545 246.657,37.95 246.742,37.171C246.842,36.256 246.18,35.433 245.266,35.333C244.309,35.229 243.421,35.766 242.813,36.42C241.846,37.459 241.433,38.925 241.639,40.337C241.825,41.606 242.567,42.585 243.154,43.671C243.453,44.223 243.666,44.863 243.743,45.486C243.852,46.367 243.622,47.221 243.439,48.079C243.215,49.127 243.033,50.179 243.119,51.251C243.098,51.197 243.08,51.143 243.064,51.087C242.908,50.543 242.869,49.973 242.792,49.412C242.679,48.585 242.505,47.774 242.115,47.016C241.308,45.448 239.726,44.558 238.298,43.67C237.517,43.184 236.489,43.424 236.003,44.205C235.517,44.987 235.757,46.015 236.538,46.501C237.471,47.081 238.624,47.518 239.151,48.541C239.226,48.688 239.284,48.838 239.329,48.991Z" style="fill:#d70d00;"/>
            <path d="M243.097,50.697C243.097,50.881 243.104,51.066 243.119,51.251C243.098,51.197 243.08,51.143 243.064,51.087C243.03,50.968 243.001,50.848 242.977,50.727C242.614,50.82 242.251,50.936 241.888,51.08C241.166,51.367 240.294,51.787 239.571,52.344C239.697,52.314 239.82,52.285 239.94,52.258C240.241,53.125 240.783,53.909 241.378,54.593C241.475,54.704 241.579,54.813 241.69,54.92L241.698,54.914C242.149,54.588 242.682,54.352 243.12,54.178C244.655,53.567 246.186,53.709 247.814,53.824C249.426,53.937 250.987,54.085 252.559,54.478C253.089,54.61 253.609,54.789 254.131,54.963C254.209,54.943 254.286,54.919 254.362,54.89C254.693,54.764 254.973,54.559 255.186,54.283C255.411,54.434 255.673,54.531 255.949,54.559C256.309,54.899 256.816,55.076 257.344,54.997C258.222,54.864 258.837,54.067 258.754,53.193C258.776,53.145 258.83,53.034 258.891,52.993C258.959,52.993 259.171,52.993 259.292,53.002C259.572,53.022 259.848,53.046 260.091,53.047C260.931,53.047 261.814,52.865 262.604,52.494C262.13,52.066 261.592,51.786 261.016,51.7C260.502,51.623 259.985,51.682 259.473,51.828C259.082,51.94 258.696,52.129 258.324,52.215C257.758,52.347 257.078,52.265 256.509,52.171C255.434,51.994 254.424,51.508 253.367,51.244C251.603,50.804 249.855,50.625 248.047,50.499C246.336,50.378 244.712,50.309 243.097,50.697ZM240.328,45.002C240.087,45.082 239.849,45.184 239.615,45.311C238.749,45.778 238.059,46.364 237.489,47.046C238.155,47.427 238.795,47.851 239.151,48.541C239.226,48.688 239.284,48.838 239.329,48.991C239.155,49.032 238.973,49.078 238.789,49.123C238.622,49.164 238.35,49.204 238.196,49.225C237.693,48.729 236.923,48.605 236.288,48.92C236.147,49.202 236.014,49.493 235.887,49.793C235.743,50.133 235.583,50.59 235.491,51.059C235.538,51.171 235.598,51.279 235.672,51.382C236.296,52.256 237.174,52.592 238.179,52.574C238.436,52.57 238.705,52.53 238.973,52.477C238.967,52.215 238.9,51.953 238.769,51.715C238.81,51.559 238.898,51.232 238.957,51.092C239.457,49.911 240.031,48.873 241.197,48.245C241.625,48.014 242.092,48.082 242.554,48.175C242.448,47.779 242.308,47.391 242.115,47.016C241.689,46.189 241.048,45.551 240.328,45.002ZM262.738,43.765C262.607,43.888 262.48,44.016 262.365,44.149C261.92,44.664 261.615,45.254 261.523,45.903C261.42,46.629 261.694,47.291 261.827,47.98C261.907,48.399 261.912,48.905 261.595,49.208C261.53,49.271 261.459,49.327 261.383,49.377C261.494,49.961 261.623,50.538 261.947,51.076C262.239,51.562 262.636,51.938 263.088,52.235C263.38,52.058 263.654,51.852 263.9,51.616C264.312,51.222 264.621,50.744 264.834,50.223C265.071,50.217 265.316,50.183 265.564,50.12C265.741,50.076 265.92,50.015 266.099,49.942C265.906,49.861 265.712,49.789 265.526,49.725C265.266,49.636 264.951,49.604 264.804,49.359C264.634,49.076 264.614,48.76 264.565,48.45C264.5,48.03 264.434,47.608 264.312,47.195C264.134,46.593 263.857,46.02 263.611,45.443C263.361,44.856 263.137,44.273 262.738,43.765ZM243.66,45.016C243.696,45.172 243.723,45.33 243.743,45.486C243.852,46.367 243.622,47.221 243.439,48.079C243.417,48.18 243.396,48.281 243.376,48.382C243.922,48.541 244.458,48.726 244.966,48.853C245.486,48.983 246.06,49.056 246.635,49.073C246.656,48.974 246.678,48.874 246.699,48.774C246.913,47.77 247.118,46.765 247.098,45.743C246.65,45.761 246.183,45.721 245.773,45.619C245.104,45.451 244.386,45.201 243.66,45.016ZM255.627,41.549C254.425,41.772 253.263,42.171 252.2,42.77C252.096,43.201 251.911,43.604 251.65,43.962C251.537,43.808 251.419,43.658 251.299,43.509C251.271,43.475 251.242,43.441 251.212,43.408L251.206,43.412C250.646,43.825 250.127,44.28 249.59,44.699C249.262,44.955 248.929,45.202 248.559,45.389C248.801,45.665 249.047,45.943 249.19,46.284C249.165,46.4 249.082,46.784 249.033,46.96C248.794,47.826 248.143,48.415 247.546,49.045L247.537,49.054C247.764,49.037 247.987,49.011 248.201,48.976C250.253,48.642 251.602,47.261 253.183,46.096C253.685,45.726 254.234,45.437 254.811,45.219C255.413,44.127 255.694,42.872 255.627,41.549ZM257.082,41.362C257.23,41.892 257.137,42.429 256.945,42.941C256.68,43.649 256.238,44.32 255.762,44.927C256.061,44.854 256.364,44.798 256.67,44.756C257.111,44.695 257.599,44.623 258.04,44.704C258.527,44.793 259.066,44.996 259.514,45.292C259.728,44.907 259.916,44.512 260.067,44.11C260.261,43.591 260.397,43.063 260.459,42.53C260.559,42.446 260.651,42.349 260.732,42.238C260.745,42.221 260.759,42.204 260.775,42.188C260.085,41.818 259.34,41.553 258.64,41.425C258.14,41.334 257.607,41.327 257.082,41.362ZM263.516,43.105C264.019,43.438 264.54,43.749 265.093,44.084C265.516,44.34 265.87,44.69 266.283,44.958C266.569,44.383 266.508,43.668 266.069,43.144C265.478,42.439 264.426,42.346 263.721,42.937C263.656,42.991 263.587,43.048 263.516,43.105ZM250.159,39.442C250.019,39.508 249.872,39.563 249.715,39.604C249.337,39.701 248.876,39.788 248.496,39.681C248.476,39.676 248.457,39.669 248.437,39.663C248.379,39.709 248.323,39.761 248.27,39.816C247.897,40.21 247.666,40.844 247.534,41.347C247.425,41.761 247.355,42.182 247.364,42.611C247.365,42.681 247.368,42.75 247.373,42.817C247.446,42.845 247.52,42.869 247.596,42.891C248.515,43.148 249.635,43.067 250.546,42.832C250.611,42.815 250.675,42.797 250.738,42.778C250.713,42.706 250.698,42.629 250.696,42.544C250.694,42.425 250.727,42.311 250.757,42.197L250.827,41.944C251.313,41.278 251.241,40.337 250.626,39.754C250.486,39.62 250.327,39.516 250.159,39.442ZM241.952,37.769C241.621,38.57 241.512,39.464 241.639,40.337C241.68,40.616 241.748,40.881 241.835,41.135C242.57,41.03 243.331,41.064 244.116,41.284C244.768,41.468 245.419,41.792 246.019,42.106C246.056,42.126 246.093,42.145 246.129,42.165L246.086,42.085C245.684,41.341 245.065,40.725 244.938,39.856C244.877,39.439 244.968,38.998 245.253,38.691L245.302,38.642C245.543,38.611 245.769,38.528 245.968,38.403C245.653,38.276 245.335,38.165 245.017,38.075C243.969,37.781 242.946,37.692 241.952,37.769ZM252.3,42.014C252.762,41.713 253.203,41.374 253.66,41.047C254.101,40.732 254.582,40.479 255.044,40.196C254.717,39.913 254.282,39.755 253.817,39.792C252.9,39.866 252.216,40.67 252.289,41.587C252.301,41.731 252.304,41.873 252.3,42.014ZM257.237,35.614C256.668,35.637 256.107,35.74 255.6,35.94C255.047,36.157 254.528,36.519 254.023,36.871C254.046,37.715 254.421,38.453 255.016,39.12C255.214,39.341 255.441,39.555 255.677,39.763C256.043,39.491 256.413,39.202 256.821,39.041C257.358,38.83 258.032,38.936 258.566,39.119C259.725,39.517 260.678,40.688 261.571,41.562C261.631,41.506 261.689,41.449 261.744,41.39C262.534,40.551 262.984,39.55 263.15,38.47C262.277,37.638 261.321,36.763 260.286,36.238C260.029,36.54 259.879,36.935 259.89,37.362C259.905,37.896 259.81,38.415 259.52,38.85C259.142,38.353 258.601,37.881 258.057,37.418C257.875,37.263 257.695,37.107 257.541,36.941C257.486,36.883 257.411,36.778 257.374,36.726C257.462,36.337 257.405,35.947 257.237,35.614Z" style="fill:#ff2e20;fill-opacity:0.5;"/>
        </g>
        <g>
            <path d="M280,53.343L-0,53.343L-0,60.162C-0,62.211 1.664,63.875 3.713,63.875L276.287,63.875C278.336,63.875 280,62.211 280,60.162L280,53.343Z" style="fill:#fee4bd;"/>
            <circle cx="10.019" cy="55.899" r="0.628" style="fill:#e6bd81;"/>
            <circle cx="11.951" cy="56.966" r="0.439" style="fill:#e6bd81;"/>
            <circle cx="101.406" cy="56.216" r="0.619" style="fill:#e6bd81;"/>
            <circle cx="98.984" cy="56.406" r="0.43" style="fill:#e6bd81;"/>
            <circle cx="108.591" cy="57.658" r="0.254" style="fill:#e6bd81;"/>
            <circle cx="208.825" cy="56.118" r="0.847" style="fill:#e6bd81;"/>
            <circle cx="213.12" cy="56.849" r="0.322" style="fill:#e6bd81;"/>
            <g transform="matrix(1,0,0,1,0.887988,1.45069)">
                <circle cx="231.344" cy="55.399" r="0.818" style="fill:#e6bd81;"/>
            </g>
            <circle cx="233.86" cy="55.624" r="0.352" style="fill:#e6bd81;"/>
            <circle cx="235.498" cy="56.62" r="0.215" style="fill:#e6bd81;"/>
            <circle cx="230.198" cy="56.477" r="0.358" style="fill:#e6bd81;"/>
            <circle cx="271.818" cy="57.489" r="0.178" style="fill:#e6bd81;"/>
            <circle cx="269.912" cy="56.053" r="0.211" style="fill:#e6bd81;"/>
            <circle cx="269.319" cy="57.258" r="0.409" style="fill:#e6bd81;"/>
            <circle cx="157.558" cy="57.08" r="0.231" style="fill:#e6bd81;"/>
            <circle cx="158.509" cy="56.743" r="0.337" style="fill:#e6bd81;"/>
            <circle cx="161.126" cy="57.462" r="0.204" style="fill:#e6bd81;"/>
            <path d="M280,58.609L278.75,58.609L278.75,54.593L278.75,54.593C278.75,54.593 1.25,54.593 1.25,54.593L1.25,58.609L-0,58.609L-0,53.343L280,53.343L280,58.609Z" style="fill:#e6bd81;"/>
        </g>
        <g transform="matrix(-0.0843502,-0.0203857,-0.0203857,0.0843502,243.198,25.869)">
            <path d="M47.63,236.33C77.85,254.49 93.86,242.96 101.93,230.33L101.93,238.33C101.93,256.358 116.762,271.195 134.79,271.2L137.28,271.2C137.907,276.62 138.865,281.997 140.15,287.3C165.78,287.3 180.52,279.97 189,271.2L209.77,271.2C227.798,271.195 242.63,256.358 242.63,238.33L242.63,227.8C245.09,229.15 247.88,229.51 250.4,226.99C254.79,222.6 250.53,217.31 247.46,214.43C250.58,211.6 254.89,206.38 250.46,202C247.92,199.47 245.08,199.82 242.58,201.16L242.58,185.26C242.58,167.234 227.746,152.4 209.72,152.4L201.83,152.4C201.75,152.13 201.66,151.86 201.58,151.59C201.549,151.512 201.522,151.431 201.5,151.35C201.32,150.82 201.13,150.28 200.93,149.74L200.83,149.49C200.62,148.94 200.4,148.38 200.15,147.82C200.15,147.76 200.15,147.69 200.07,147.63C194.44,134.86 180.07,119.89 143.41,119.89C141.337,128.412 140.144,137.124 139.85,145.89C139.85,147.65 139.85,149.41 139.95,151.14L139.95,151.4C139.95,151.75 140,152.1 140.02,152.4L134.73,152.4C116.704,152.4 101.87,167.234 101.87,185.26L101.87,187.48C93.8,174.86 77.79,163.32 47.57,181.48C47.57,181.48 51.08,199.33 63.71,208.9C51.14,218.47 47.63,236.33 47.63,236.33ZM242.63,214.61L242.63,214.28L242.8,214.44L242.63,214.61Z" style="fill:none;fill-rule:nonzero;stroke:#8e281d;stroke-width:12px;"/>
            <path d="M63.77,208.91C51.14,199.34 47.63,181.49 47.63,181.49C99.09,150.55 109.36,205.76 109.36,205.76C107.36,206.94 105.36,207.98 103.52,208.91C105.41,209.84 107.35,210.91 109.36,212.05C109.36,212.05 99.09,267.27 47.63,236.33C47.63,236.33 51.14,218.47 63.77,208.91Z" style="fill:#f18221;fill-rule:nonzero;"/>
            <path d="M200.33,241.81C200.33,241.81 204.04,287.35 140.15,287.35C140.15,287.35 132.15,256.23 140.15,241.81L200.33,241.81Z" style="fill:#f18221;fill-rule:nonzero;"/>
            <path d="M184.54,275.22L137.81,275.22C136.28,264.89 135.37,250.4 140.15,241.81L200.33,241.81C200.668,254.812 194.8,267.227 184.54,275.22Z" style="fill:#d25927;fill-rule:nonzero;"/>
            <path d="M203.64,165.44C203.64,165.44 207.35,119.89 143.46,119.89C143.46,119.89 135.46,151.01 143.46,165.44L203.64,165.44Z" style="fill:#f18221;fill-rule:nonzero;"/>
            <path d="M199.28,145.85C202.342,151.915 203.841,158.649 203.64,165.44L143.46,165.44C140.6,160.3 139.78,153.06 139.9,145.85L199.28,145.85Z" style="fill:#d25927;fill-rule:nonzero;"/>
            <path d="M235.84,207.49C235.84,207.49 244.13,195.63 250.51,202C254.89,206.39 250.58,211.6 247.51,214.43C250.58,217.31 254.84,222.6 250.45,226.99C244.08,233.36 235.94,221.35 235.94,221.35L242.85,214.44L235.84,207.49Z" style="fill:#f18221;fill-rule:nonzero;"/>
            <path d="M242.63,185.26C242.63,167.124 227.906,152.4 209.77,152.4L134.79,152.4C116.654,152.4 101.93,167.124 101.93,185.26L101.93,238.39C101.93,256.526 116.654,271.25 134.79,271.25L209.77,271.25C227.906,271.25 242.63,256.526 242.63,238.39L242.63,185.26Z" style="fill:url(#_Linear2);"/>
            <path d="M236.38,204.87C236.38,178.825 215.235,157.68 189.19,157.68L155.37,157.68C129.325,157.68 108.18,178.825 108.18,204.87C108.18,230.915 129.325,252.06 155.37,252.06L189.19,252.06C215.235,252.06 236.38,230.915 236.38,204.87Z" style="fill:#f18221;"/>
            <circle cx="191.67" cy="201.61" r="31.15" style="fill:#d25927;"/>
            <circle cx="191.67" cy="210.26" r="31.15" style="fill:#fff;"/>
            <path d="M180.06,209.84C180.06,220.592 188.908,229.44 199.66,229.44C210.412,229.44 219.26,220.592 219.26,209.84C219.26,199.088 210.412,190.24 199.66,190.24C198.709,190.239 197.76,190.309 196.82,190.45C198.038,192.288 198.685,194.445 198.68,196.65C198.68,196.664 198.68,196.677 198.68,196.691C198.68,202.884 193.584,207.981 187.39,207.981C184.906,207.981 182.491,207.161 180.52,205.65C180.215,207.026 180.061,208.431 180.06,209.84ZM203.39,218C203.39,215.444 205.494,213.34 208.05,213.34C210.606,213.34 212.71,215.444 212.71,218C212.71,220.556 210.606,222.66 208.05,222.66C205.494,222.66 203.39,220.556 203.39,218Z" style="fill:#414042;fill-rule:nonzero;"/>
        </g>
        <g transform="matrix(0.144782,0.0383491,-0.0383491,0.144782,47.9296,1.46998)">
            <g transform="matrix(11.1394,-2.95056,2.95056,11.1394,-658.32,-12.2053)">
                <path d="M63.609,31.108L63.001,30.947C61.388,30.52 59.736,31.346 59.081,32.825L57.628,31.592C57.153,31.229 56.719,31.142 56.386,31.253C56.134,31.337 55.897,31.533 55.733,31.911L55.72,31.941L54.246,37.116L54.241,37.149C54.175,37.604 54.27,37.885 54.454,38.067C54.61,38.221 54.893,38.343 55.412,38.34L55.437,38.34L57.654,38.108C57.38,39.79 58.424,41.438 60.104,41.884L62.261,42.455C62.049,43.28 61.894,43.924 61.894,43.924L61.758,44.492L62.34,44.539C63.533,44.577 65.039,43.582 65.306,43.261L66.394,43.55C67.917,43.953 69.474,43.239 70.195,41.914L70.208,41.891L70.986,42.082C71.564,42.224 72.148,41.871 72.29,41.293C72.29,41.293 72.566,40.171 72.566,40.171C72.708,39.594 72.354,39.01 71.777,38.868C71.777,38.868 71.143,38.712 71.143,38.712C71.143,38.712 71.673,36.711 71.673,36.711L71.75,36.336C71.771,36.187 71.783,36.039 71.785,35.891C71.786,35.779 71.782,35.668 71.772,35.558C71.742,35.224 71.663,34.9 71.539,34.596L71.503,34.509C71.456,34.402 71.403,34.297 71.345,34.195C71.323,34.156 71.3,34.118 71.277,34.08L71.275,34.083C71.274,34.077 71.272,34.072 71.269,34.068L70.977,33.672L70.79,33.47C70.387,33.071 69.878,32.769 69.291,32.613L68.966,32.527L68.94,32.322C68.707,31.018 67.759,29.289 64.451,28.413C64.074,28.313 62.801,28.047 62.36,28.078C61.851,28.114 61.591,28.382 61.498,28.598C61.411,28.8 61.423,29.009 61.526,29.195C61.602,29.332 61.737,29.465 61.951,29.541L62.118,29.569L62.002,29.556C62.002,29.556 62.476,29.687 62.868,29.855C63.103,29.956 63.344,30.068 63.464,30.21C63.704,30.495 63.699,30.809 63.609,31.108Z" style="fill:#c7c7c7;fill-rule:nonzero;"/>
            </g>
            <path d="M70.558,245.823C63.406,247.755 61.862,246.436 61.228,240.919L62.369,179.686C63.369,173.106 67.853,172.187 74.634,175.001L109.36,191.57L109.36,231.081L70.558,245.823Z" style="fill:#f3e300;fill-rule:nonzero;"/>
            <g transform="matrix(11.5236,0,0,11.5236,-577.241,-259.737)">
                <path d="M56.977,42.333L59.626,41.694L59.503,41.152L56.977,42.333ZM59.425,40.426L56.765,40.885L59.439,41.174L59.425,40.426ZM56.822,39.425L59.51,39.877L59.425,40.426L56.822,39.425Z" style="fill:#b8ab00;"/>
            </g>
            <path d="M200.33,241.81C200.33,241.81 198.43,288.595 166.505,294.326C166.505,294.326 165.866,266.407 166.505,248.786L200.33,241.81Z" style="fill:#010050;fill-rule:nonzero;"/>
            <g transform="matrix(11.2499,-2.49651,2.49651,11.2499,-660.819,-88.458)">
                <path d="M63.22,46.403C63.379,45.664 63.573,44.801 63.749,44.124L66.746,44.169C66.746,44.169 66.313,45.8 65.254,46.93L63.22,46.403Z" style="fill-rule:nonzero;"/>
            </g>
            <path d="M203.64,165.44C203.64,165.44 207.35,119.89 143.46,119.89C139.314,119.89 125.497,120.5 121.042,122.025C115.63,123.877 115.71,128.027 119.408,128.329C119.408,128.329 135.239,128.263 141.071,132.346C152.874,140.609 146.147,156.077 143.46,165.44L203.64,165.44Z" style="fill:#eff4f9;fill-rule:nonzero;"/>
            <g transform="matrix(11.2499,-2.49651,2.49651,11.2499,-660.819,-88.458)">
                <path d="M64.079,35.143L64.079,35.143C63.936,35.694 63.583,36.227 63.363,36.63L68.462,37.762C68.462,37.762 68.69,37.024 68.479,36.096L64.079,35.143Z" style="fill:#9f9f9f;fill-rule:nonzero;"/>
            </g>
            <path d="M242.63,185.26C242.63,167.124 227.906,152.4 209.77,152.4L134.79,152.4C116.654,152.4 101.93,167.124 101.93,185.26L101.93,238.39C101.93,256.526 116.654,271.25 134.79,271.25L209.77,271.25C227.906,271.25 242.63,256.526 242.63,238.39L242.63,185.26Z" style="fill:#010050;"/>
            <g transform="matrix(11.5236,0,0,11.5236,-577.241,-259.737)">
                <path d="M66.366,46.078L66.366,35.765L68.296,35.765C69.87,35.765 71.147,37.042 71.147,38.616L71.147,43.227C71.147,44.801 69.87,46.078 68.296,46.078L66.366,46.078ZM63.611,46.078L61.858,46.078L61.858,35.765L63.611,35.765L63.611,46.078Z" style="fill:#eff4f9;"/>
            </g>
            <g transform="matrix(12.7322,-0.226311,0.217914,12.2598,-667.456,-295.084)">
                <path d="M72.318,43.453C72.318,43.153 72.084,42.91 71.796,42.91L70.41,42.91C70.122,42.91 69.887,43.153 69.887,43.453L69.887,44.538C69.887,44.838 70.122,45.081 70.41,45.081L71.796,45.081C72.084,45.081 72.318,44.838 72.318,44.538L72.318,43.453Z" style="fill:#eff4f9;"/>
            </g>
            <g transform="matrix(0.43895,1.38778e-17,-1.38778e-17,0.43895,111.819,155.59)">
                <path d="M70.558,245.823C63.406,247.755 61.862,246.436 61.228,240.919L62.369,179.686C63.369,173.106 67.853,172.187 74.634,175.001L109.36,191.57C118.884,196.237 122.246,225.528 109.36,231.081L70.558,245.823Z" style="fill:#f3e300;fill-rule:nonzero;"/>
            </g>
            <g transform="matrix(11.5236,0,0,11.5236,-578.916,-259.957)">
                <path d="M63.078,43.196L63.997,43.617C64.166,43.674 64.214,44.523 63.997,44.598L63.206,44.93L63.87,44.39L63.206,44.174L63.884,43.904L63.078,43.196Z" style="fill:#b8ab00;"/>
            </g>
            <circle cx="191.67" cy="201.61" r="31.15" style="fill:#9f9f9f;fill-opacity:0.75;"/>
            <circle cx="191.67" cy="210.26" r="31.15" style="fill:#fff;"/>
            <path d="M180.06,209.84C180.06,220.592 188.908,229.44 199.66,229.44C210.412,229.44 219.26,220.592 219.26,209.84C219.26,199.088 210.412,190.24 199.66,190.24C198.709,190.239 197.76,190.309 196.82,190.45C198.038,192.288 198.685,194.445 198.68,196.65C198.68,196.664 198.68,196.677 198.68,196.691C198.68,202.884 193.584,207.981 187.39,207.981C184.906,207.981 182.491,207.161 180.52,205.65C180.215,207.026 180.061,208.431 180.06,209.84ZM203.39,218C203.39,215.444 205.494,213.34 208.05,213.34C210.606,213.34 212.71,215.444 212.71,218C212.71,220.556 210.606,222.66 208.05,222.66C205.494,222.66 203.39,220.556 203.39,218Z" style="fill:#414042;fill-rule:nonzero;"/>
        </g>
        <path d="M166.36,12.63L60.26,12.63L15.521,59.995L121.621,59.995L166.36,12.63ZM188.73,12.63L225.037,12.63L180.298,59.995L143.991,59.995L188.73,12.63Z" style="fill:#c2f5ff;fill-opacity:0.25;"/>
        <path d="M-0,60.162C-0,62.211 1.664,63.875 3.713,63.875L276.287,63.875C278.336,63.875 280,62.211 280,60.162L280,12.463C280,10.414 278.336,8.75 276.287,8.75L3.713,8.75C1.664,8.75 -0,10.414 -0,12.463L-0,60.162ZM6.971,55.287C6.971,56.897 8.278,58.204 9.888,58.204L271.034,58.204C272.644,58.204 273.951,56.897 273.951,55.287L273.951,17.81C273.951,16.201 272.644,14.893 271.034,14.893L9.888,14.893C8.278,14.893 6.971,16.201 6.971,17.81L6.971,55.287Z" style="fill:#bdbdbd;"/>
        <path d="M184.494,58.204L178.95,63.875L142.725,63.875L148.269,58.204L184.494,58.204ZM132.881,58.204L127.337,63.875L15.125,63.875L20.669,58.204L132.881,58.204ZM232.844,8.75L226.837,14.893L190.613,14.893L196.619,8.75L232.844,8.75ZM181.23,8.75L175.224,14.893L63.013,14.893L69.019,8.75L181.23,8.75Z" style="fill:#e2e2e2;fill-opacity:0.5;"/>
        <path d="M6.971,23.481C6.971,21.871 8.278,20.564 9.888,20.564L271.034,20.564C272.644,20.564 273.951,21.871 273.951,23.481L273.951,17.81C273.951,16.201 272.644,14.893 271.034,14.893L9.888,14.893C8.278,14.893 6.971,16.201 6.971,17.81L6.971,23.481Z" style="fill:#777;"/>
    </g>
    <defs>
        <linearGradient id="_Linear1" x1="0" y1="0" x2="1" y2="0" gradientUnits="userSpaceOnUse" gradientTransform="matrix(3.92783e-14,67.5246,-10.6314,9.66954e-15,163.266,9.82916)"><stop offset="0" style="stop-color:#00aef6;stop-opacity:1"/><stop offset="0.45" style="stop-color:#36cefd;stop-opacity:1"/><stop offset="1" style="stop-color:#45d7ff;stop-opacity:1"/></linearGradient>
        <linearGradient id="_Linear2" x1="0" y1="0" x2="1" y2="0" gradientUnits="userSpaceOnUse" gradientTransform="matrix(-206.27,2.52608e-14,-2.52608e-14,-206.27,276.05,211.82)"><stop offset="0" style="stop-color:#f18221;stop-opacity:1"/><stop offset="0.19" style="stop-color:#f18221;stop-opacity:1"/><stop offset="0.85" style="stop-color:#d25927;stop-opacity:1"/><stop offset="1" style="stop-color:#d25927;stop-opacity:1"/></linearGradient>
    </defs>
</svg>
