<?xml version="1.0" encoding="UTF-8" standalone="no"?>
<!DOCTYPE svg PUBLIC "-//W3C//DTD SVG 1.1//EN" "http://www.w3.org/Graphics/SVG/1.1/DTD/svg11.dtd">
<svg width="100%" height="100%" viewBox="0 0 280 62" version="1.1" xmlns="http://www.w3.org/2000/svg" xmlns:xlink="http://www.w3.org/1999/xlink" xml:space="preserve" xmlns:serif="http://www.serif.com/" style="fill-rule:evenodd;clip-rule:evenodd;stroke-linecap:round;stroke-linejoin:round;">
    <g id="banner_24" transform="matrix(-1,0,0,1,280,-8.7)">
        <path d="M280,47.751L-0,47.751L-0,65.286C-0,67.888 2.112,70 4.714,70L275.286,70C277.888,70 280,67.888 280,65.286L280,47.751Z" style="fill:#00bff8;"/>
        <g transform="matrix(-0.893232,-1.09389e-16,8.74808e-17,-0.714335,285.834,65.8968)">
            <path d="M320,8.028C320,5.159 318.138,2.83 315.844,2.83L10.688,2.83C8.394,2.83 6.532,5.159 6.532,8.028L6.532,74.803C6.532,77.671 8.394,80 10.688,80L315.844,80C318.138,80 320,77.671 320,74.803L320,8.028Z" style="fill:url(#_Linear1);"/>
        </g>
        <g>
            <path d="M-0,36.872C2.459,35.436 5.223,34.723 8.007,35.1C16.038,36.188 22.751,42.427 26.418,46.624C27.665,48.052 30.582,51.945 31.631,55.535C31.631,55.535 32.747,52.229 35.737,52.135C38.059,52.063 39.96,54.177 40.258,56.19C41.422,54.937 42.966,53.941 44.576,53.618C47.745,52.982 51.638,54.008 54.818,56.368C57.85,58.617 62.104,64.254 65.024,68.938C65.996,67.433 67.279,66.294 69.437,67.031C70.671,67.453 72.315,68.599 73.544,70L4.714,70C2.112,70 -0,67.888 -0,65.286L-0,36.872Z" style="fill:#f2fcff;"/>
            <path d="M212.557,70C212.779,67.742 213.982,65.721 216.343,64.881C219.119,63.893 220.94,64.068 223.544,65.089C223.752,65.17 226.544,66.584 226.528,66.518C225.792,63.422 227.414,61.063 229.184,59.498C233.651,55.55 239.461,54.253 244.798,54.245C248.277,54.241 252.074,55.489 254.873,57.538C256.107,58.442 259.437,61.454 259.436,61.423C259.348,58.875 260.825,55.183 261.917,53.773C263.257,52.04 265.223,50.494 267.481,50.306C268.143,50.251 269.207,50.616 269.738,51.876C271.288,48.29 273.631,46.09 276.635,45.971C277.87,45.921 278.99,46.076 280,46.394L280,65.286C280,67.888 277.888,70 275.286,70L212.557,70Z" style="fill:#f2fcff;"/>
            <g transform="matrix(0.819272,-0.101934,0.101934,0.819272,33.2392,30.7419)">
                <path d="M276.899,21.184C277.154,20.282 278.018,19.791 278.59,20.653C279.662,22.268 278.559,24.612 277.778,26.086C275.782,29.852 272.92,33.669 269.287,36.023C261.542,41.041 251.711,43.631 242.573,44.586C238.949,44.965 235.321,44.812 231.702,45.074C229.168,45.256 226.511,45.504 224.022,46.019C223.199,46.19 221.08,46.515 220.792,45.522C219.98,42.723 222.555,39.358 225.223,38.676C226.028,38.47 227.751,38.206 228.425,38.909C228.617,39.109 228.739,39.408 228.8,39.715C228.75,40.156 228.721,40.597 228.711,41.037C228.706,41.275 228.825,40.573 228.842,40.336C228.856,40.146 228.842,39.929 228.8,39.715C229.486,33.579 233.925,27.519 238.777,24.092C240.318,23.004 241.991,21.872 243.815,21.319C246.872,20.391 248.594,21.924 248.217,25.058C248.061,26.352 247.871,27.707 247.478,28.954C247.352,29.353 247.192,29.739 247.052,30.133C246.988,30.314 246.743,30.83 246.857,30.675C247.668,29.574 248.164,28.596 249.687,28.176C250.644,27.912 251.723,28.348 251.731,29.491L251.755,29.429C252.266,28.11 253.122,26.617 253.967,25.491C256.088,22.664 259.728,20.466 263.258,19.61C265.067,19.171 269.037,18.59 270.777,20.734C271.516,21.645 272.316,23.724 272.284,25.621L272.297,25.602C272.633,23.762 272.837,21.721 274.338,20.221C274.716,19.843 275.53,19.169 276.139,19.368C276.61,19.522 276.719,20.153 276.783,20.573C276.814,20.778 276.828,20.817 276.899,21.184Z" style="fill:#f2fcff;"/>
            </g>
            <path d="M28.914,23.172C28.772,22.321 28.583,21.507 28.409,20.692C28.101,19.251 27.651,17.746 26.971,16.437C26.568,15.659 26.14,14.85 25.358,14.391C24.207,13.716 23.281,15.373 23.102,16.228C23.055,16.453 22.818,17.557 22.9,18.69C22.691,18.229 22.224,17.173 21.92,17.185C21.476,17.203 21.373,17.678 21.451,18.094C20.923,17.759 20.393,17.249 19.999,16.764C19.712,16.411 19.469,15.966 18.956,15.941C17.931,15.892 17.733,16.77 17.677,17.614C17.651,17.988 17.834,18.74 18.008,19.155C18.008,19.155 17.709,18.892 17.519,18.841C16.872,18.668 16.891,19.46 16.973,19.764C17.235,20.739 22.633,23.925 25.029,24.846C27.796,25.91 31.085,25.807 32.629,26.257C32.017,25.804 31.566,25.183 31.248,24.494C31.062,24.091 30.926,23.632 30.681,23.232C30.399,22.773 29.501,22.463 28.914,23.172Z" style="fill:#f2fcff;"/>
            <path d="M56.803,70C56.821,69.928 56.84,69.857 56.859,69.785C57.045,69.092 57.398,68.043 58.077,67.659C59.186,67.03 60.426,68.884 60.724,69.732C60.755,69.821 60.786,69.91 60.815,70L56.803,70ZM9.682,47.751C9.918,47.947 10.145,48.146 10.366,48.345C12.903,50.633 14.471,53.516 15.845,56.606C16.273,57.567 16.67,58.542 17.085,59.509C17.234,59.856 17.387,60.203 17.547,60.545C17.61,60.68 17.736,61.101 17.727,60.953C17.627,59.367 18.072,57.389 20.048,57.416C21.405,57.434 22.103,58.91 22.617,59.947C22.724,60.163 22.995,61.115 23.366,61.207C23.883,61.336 24.669,60.074 25.201,59.933C26.575,59.568 28.225,59.89 29.493,60.439C30.696,60.959 31.665,61.807 32.464,62.833C32.731,63.176 32.987,63.529 33.226,63.892C33.338,64.062 33.345,64.54 33.516,64.429C33.927,64.163 33.919,62.952 34.002,62.54C34.281,61.169 34.956,59.035 36.54,58.681C38.417,58.261 39.588,60.33 40.177,61.752C40.372,62.224 40.536,62.705 40.687,63.193C40.753,63.408 40.82,63.622 40.885,63.837C40.917,63.94 40.892,64.182 40.992,64.142C41.689,63.865 42.154,62.256 42.66,61.704C44.423,59.779 47.474,58.962 49.691,60.573C52.645,62.72 54.09,66.533 54.87,70L4.714,70C2.112,70 -0,67.888 -0,65.286L-0,47.751L9.682,47.751Z" style="fill:#d6f4ff;"/>
            <path d="M280,55.664L280,65.286C280,67.888 277.888,70 275.286,70L230.938,70C231.152,68.431 231.229,66.862 232.024,65.427C232.549,64.478 233.523,64.051 234.511,63.727C236.601,63.04 239.026,62.918 241.206,62.852C245.235,62.731 248.915,63.661 252.308,65.84C253.68,66.721 254.889,67.788 256.176,68.781C256.347,68.913 257.173,69.68 257.446,69.617C257.814,69.533 257.661,68.308 257.749,68.027C258.004,67.203 258.986,66.766 259.776,66.686C260.74,66.588 261.65,66.732 262.432,67.337C262.708,67.551 262.929,67.812 263.154,68.077C263.165,68.089 263.473,68.433 263.474,68.432C264.163,67.579 263.917,65.838 264.072,64.817C264.422,62.513 265.899,59.52 268.199,58.619C270.529,57.706 272.257,60.241 272.179,62.378C272.158,62.935 272.003,63.482 271.85,64.015C271.846,64.031 271.709,64.443 271.725,64.452C271.818,64.505 272.437,63.859 272.499,63.795C273.26,63.01 273.762,61.992 274.593,61.273C275.025,60.9 275.967,60.405 276.53,60.791C276.794,60.972 276.848,61.291 276.891,61.587C276.904,61.67 276.912,61.754 276.915,61.838C276.913,61.92 276.911,62.002 276.909,62.083C276.908,62.128 276.915,61.993 276.916,61.947C276.917,61.911 276.916,61.875 276.915,61.838C276.974,59.775 277.315,57.365 279.107,56.109C279.397,55.905 279.696,55.76 280,55.664ZM217.758,70C217.912,69.586 218.154,69.207 218.38,68.986C219.287,68.099 221.1,68.13 222.259,68.363C223.827,68.679 225.411,69.18 226.798,70L217.758,70Z" style="fill:#d6f4ff;"/>
            <path d="M257.625,26.631C258.174,27.116 258.811,28.518 258.832,29.093C258.87,30.178 257.737,31.059 257.006,31.722C255.808,32.809 251.445,36.067 250.006,36.906C244.268,40.251 236.092,42.135 232.191,42.704C231.093,42.864 230.003,42.977 228.906,43.134C226.744,43.445 224.658,43.889 222.593,44.561C222.434,44.613 222.276,44.666 222.113,44.706C221.99,44.735 221.867,44.766 221.744,44.796C221.433,44.872 220.305,45.133 220.648,44.203C220.892,43.541 221.741,42.875 222.483,43.279C222.65,43.37 223.072,43.653 223.374,43.854C223.626,43.532 223.898,43.132 224.112,42.865C224.455,42.438 224.994,42.243 225.507,42.103C225.912,41.994 226.393,41.915 226.796,42.071C226.894,42.108 227.158,42.236 227.326,42.411C227.325,41.373 227.319,40.33 227.581,39.409C228.321,36.806 229.976,33.823 232.084,32.103C232.863,31.467 233.889,30.728 234.944,30.72C236.844,30.706 236.785,33.594 236.783,34.847C236.782,35.256 236.777,35.665 236.744,36.072C236.732,36.213 236.695,36.531 236.658,36.768C237.091,36.142 237.569,35.552 238.141,35.04C238.382,34.825 238.78,34.507 239.136,34.612C239.716,34.782 239.839,35.624 239.882,36.125C239.899,36.314 239.912,36.627 239.912,36.958C240.231,36.076 240.563,35.151 241.101,34.346C241.671,33.492 242.739,32.605 243.754,32.308C245.934,31.669 249.709,32.647 250.995,33.05C251.32,33.152 252.312,33.435 252.338,33.407C252.323,32.841 252.279,32.049 252.238,31.697C252.103,30.522 252.057,29.276 252.437,28.141C252.562,27.767 252.731,27.41 252.934,27.072C253.143,26.725 253.383,26.395 253.666,26.106C254.457,25.3 255.049,25.48 255.404,26.518C255.479,26.739 255.61,27.125 255.69,27.505C255.784,26.775 256.62,25.859 257.625,26.631Z" style="fill:#d6f4ff;"/>
            <path d="M19.079,20.593C19.045,20.473 19.026,20.421 19.007,20.376C18.937,20.21 18.872,20.049 18.837,19.871C18.739,19.37 18.783,18.92 19.012,18.464C19.215,18.06 19.505,17.875 19.953,18.044C20.782,18.356 21.183,19.369 21.481,20.122C21.582,20.375 21.854,21.056 21.923,21.286C21.892,20.989 21.862,20.447 22.066,20.313C22.305,20.156 22.564,20.351 22.678,20.583C22.704,20.634 22.808,20.846 22.847,20.985C22.853,20.774 23.039,20.611 23.276,20.617C23.584,20.623 23.863,20.865 24.038,21.08C24.099,21.156 24.138,21.221 24.269,21.456C24.18,21.077 24.108,20.754 24.047,20.475C23.871,19.672 24.028,18.833 24.443,18.128C24.63,17.811 24.904,17.461 25.318,17.553C25.821,17.664 26.118,18.112 26.335,18.542C26.812,19.487 26.998,20.537 27.18,21.571C27.255,21.999 27.332,22.428 27.406,22.857C27.428,22.987 27.483,23.214 27.502,23.454C27.487,23.317 27.499,23.199 27.641,23.164C27.793,23.126 27.88,23.206 27.951,23.299C28.075,23.464 28.145,23.679 28.224,23.868C28.231,23.884 28.343,24.156 28.347,24.154C28.452,24.055 28.551,23.978 28.694,23.951C29.159,23.863 29.624,24.063 29.986,24.331C30.294,24.558 30.5,24.813 30.708,25.136C30.854,25.363 31.171,25.531 31.154,25.536C30.954,25.598 28.204,25.555 25.707,24.798C22.536,23.837 18.355,20.642 18.194,20.355C18.002,20.012 18.301,19.896 18.581,20.05C18.725,20.13 18.853,20.248 18.951,20.379C18.986,20.427 19.024,20.48 19.079,20.593Z" style="fill:#d6f4ff;"/>
        </g>
        <g transform="matrix(0.86711,-0.498117,0.498117,0.86711,-23.8926,34.437)">
            <path d="M71.416,15.008C71.297,14.809 71.1,14.668 70.872,14.619C70.645,14.571 70.407,14.621 70.218,14.755C63.282,19.677 58.294,25.42 54.591,31.704C54.465,31.918 54.441,32.178 54.526,32.412C57.505,40.591 62.857,48.87 70.069,57.219C70.267,57.448 70.573,57.551 70.87,57.49C71.166,57.428 71.405,57.211 71.495,56.922C74.278,48.005 76.14,39.837 83.708,32.734C83.884,32.569 83.98,32.334 83.97,32.093C83.96,31.851 83.845,31.625 83.656,31.474C76.758,25.99 74.681,20.492 71.416,15.008Z" style="fill:#fff;"/>
            <g transform="matrix(0.86711,0.498117,-0.498117,0.86711,37.8711,-17.9593)">
                <path d="M123.671,70L126.596,70C103.473,66.984 80.992,56.581 61.256,33.359L64.979,20.496C65.011,20.385 64.947,20.27 64.836,20.238C64.726,20.206 64.61,20.269 64.578,20.38L60.941,32.948L53.099,22.463L45.01,11.647L44.677,11.896L60.632,33.231L39.33,34.945L39.363,35.36L60.935,33.625C79.931,55.98 101.467,66.502 123.671,70Z"/>
            </g>
            <g transform="matrix(0.86711,0.498117,-0.498117,0.86711,37.8711,-17.9593)">
                <path d="M65.969,48.859C65.969,48.859 67.424,50.721 68.599,52.41C71.301,56.296 73.993,57.884 78.23,56.385C80.874,55.451 83.209,54.001 85.631,52.949C87.707,52.047 89.856,51.457 92.435,52.038C95.333,52.691 97.672,54.377 99.887,56.144C102.418,58.162 104.53,60.666 107.062,62.571C113.108,67.12 118.782,68.533 126.029,69.301C132.971,70.036 140.088,69.447 146.578,66.074C151.89,63.314 151.514,61.029 159.501,60.01C160.414,59.893 163.525,56.313 162.607,56.374C153.011,57.008 151.554,61.302 146.425,63.967C140.119,67.244 133.136,69.161 126.118,68.49C119.631,67.869 113.331,66.29 107.874,61.031C105.391,58.638 104.039,56.228 101.851,54.074C99.39,51.652 96.7,49.582 93.168,48.786C89.812,48.03 87.004,48.718 84.303,49.892C81.95,50.914 79.688,52.335 77.119,53.243C74.34,54.225 71.825,53.647 69.4,51.71C67.889,50.503 66.476,48.502 66.476,48.502L65.969,48.859Z" style="fill:#a41307;"/>
            </g>
            <g transform="matrix(0.86711,0.498117,-0.498117,0.86711,37.8711,-17.9593)">
                <path d="M65.728,49.055C65.728,49.055 69.042,55.19 71.856,58.199C73.798,60.275 75.99,62.554 78.405,64.061C79.973,65.04 81.671,65.846 83.439,66.387C89.647,68.289 95.481,65.985 100.751,62.691C104.236,60.513 106.014,58.132 110.799,54.729C115.779,51.188 120.458,51.216 124.302,51.62C126.766,51.879 131.082,53.208 135.346,56.162C139.259,58.874 141.317,61.867 145.274,64.672C150.813,68.598 155.442,68.933 160.551,69.247C166.455,69.609 172.371,68.078 177.985,66.515C184.439,64.719 184.633,63.348 191.763,61.431C192.652,61.192 194.596,55.599 193.726,55.9C186.36,58.45 181.915,63.917 175.645,65.662C165.995,68.349 155.597,67.445 146.652,62.803C141.166,59.956 137.966,56.679 135.447,54.779C131.465,51.776 127.713,49.793 122.741,49.507C117.98,49.233 113.783,51.52 110.099,54.183C106.782,56.579 103.555,59.318 100.02,61.527C95.57,64.308 90.619,64.516 84.702,63.725C83.261,63.532 80.56,62.436 79.145,61.782C76.609,60.611 74.169,58.703 72.423,56.837C69.742,53.97 66.292,48.671 66.292,48.671L65.728,49.055Z" style="fill:#ff0b00;"/>
            </g>
            <path d="M83.97,32.093L54.476,32.153" style="fill:none;stroke:#7a4100;stroke-width:0.83px;"/>
            <path d="M70.8,14.619L70.769,57.512" style="fill:none;stroke:#7a4100;stroke-width:0.83px;"/>
            <path d="M69.901,57.023L70.069,57.219C62.857,48.87 59.843,40.641 57.718,32.412C57.656,32.171 57.688,31.934 57.783,31.704C60.41,25.32 63.237,19.765 70.056,14.871L70.218,14.755C63.282,19.677 58.294,25.42 54.591,31.704C54.465,31.918 54.441,32.178 54.526,32.412C57.482,40.527 62.774,48.741 69.901,57.023Z" style="fill:#8839ca;fill-opacity:0.75;"/>
            <path d="M70.218,14.755L70.056,14.871C63.237,19.765 60.41,25.32 57.783,31.704C57.688,31.934 57.656,32.171 57.718,32.412C59.843,40.641 62.857,48.87 70.069,57.219C66.188,48.807 62.608,40.591 61.891,32.412C61.869,32.164 61.892,31.944 61.956,31.704C63.698,25.169 66.65,20.18 70.218,14.755ZM70.85,14.615L70.872,14.619L70.85,14.615Z" style="fill:#005ccb;fill-opacity:0.75;"/>
            <path d="M70.842,57.495L70.87,57.49C70.704,57.524 69.196,44.054 69.223,32.206C69.245,22.938 70.76,14.663 70.871,14.62L70.872,14.619C70.645,14.571 70.345,14.561 70.218,14.755C66.65,20.18 63.698,25.169 61.956,31.704C61.892,31.944 61.869,32.164 61.891,32.412C62.608,40.591 66.188,48.807 70.069,57.219C70.192,57.485 70.55,57.547 70.842,57.495Z" style="fill:#00d08b;fill-opacity:0.75;"/>
            <path d="M70.869,57.49L70.87,57.49C70.853,57.492 71.152,57.385 71.257,56.937C72.072,53.474 76.597,34.75 76.597,32.332C76.597,30.313 72.181,17.428 71.281,14.977C71.191,14.733 70.911,14.632 70.876,14.621L70.872,14.619C70.772,14.598 69.245,22.902 69.223,32.206C69.196,44.031 70.698,57.47 70.869,57.49ZM71.071,14.689C71.213,14.759 71.333,14.87 71.416,15.008C71.34,14.882 71.219,14.773 71.096,14.702C71.088,14.698 71.079,14.693 71.071,14.689Z" style="fill:#ecdf75;fill-opacity:0.75;"/>
            <path d="M70.87,57.49C71.17,57.451 71.405,57.211 71.495,56.922C74.278,48.005 76.14,39.837 83.708,32.734C83.884,32.569 83.98,32.334 83.97,32.093C83.96,31.851 83.845,31.625 83.656,31.474C76.758,25.99 74.707,20.492 71.416,15.008C71.34,14.882 71.219,14.773 71.096,14.702C71.018,14.658 70.94,14.628 70.872,14.619C70.872,14.619 71.185,14.717 71.281,14.977C72.181,17.428 76.597,30.313 76.597,32.332C76.597,34.75 72.072,53.474 71.257,56.937C71.152,57.385 70.853,57.492 70.87,57.49Z" style="fill:#f2ab00;fill-opacity:0.75;"/>
            <path d="M54.476,32.127C54.476,32.223 54.492,32.319 54.526,32.412C57.505,40.591 62.857,48.87 70.069,57.219C70.267,57.448 70.573,57.551 70.87,57.49C71.166,57.428 71.405,57.211 71.495,56.922C74.278,48.005 76.14,39.837 83.708,32.734C83.884,32.569 83.98,32.334 83.97,32.093L54.476,32.127Z" style="fill:#272727;fill-opacity:0.25;"/>
        </g>
    </g>
    <defs>
        <linearGradient id="_Linear1" x1="0" y1="0" x2="1" y2="0" gradientUnits="userSpaceOnUse" gradientTransform="matrix(-3.87432e-14,-77.1697,12.15,-9.53782e-15,163.266,80)"><stop offset="0" style="stop-color:#00bcf6;stop-opacity:1"/><stop offset="1" style="stop-color:#93e7ff;stop-opacity:1"/></linearGradient>
    </defs>
</svg>
