<?xml version="1.0" encoding="UTF-8" standalone="no"?>
<!DOCTYPE svg PUBLIC "-//W3C//DTD SVG 1.1//EN" "http://www.w3.org/Graphics/SVG/1.1/DTD/svg11.dtd">
<svg width="100%" height="100%" viewBox="0 0 280 62" version="1.1" xmlns="http://www.w3.org/2000/svg" xmlns:xlink="http://www.w3.org/1999/xlink" xml:space="preserve" xmlns:serif="http://www.serif.com/" style="fill-rule:evenodd;clip-rule:evenodd;stroke-linejoin:round;stroke-miterlimit:2;">
    <g id="banner_26" transform="matrix(1,0,0,1,0,-8.41753)">
        <path d="M280,47.751L-0,47.751L-0,65.286C-0,67.888 2.112,70 4.714,70L275.286,70C277.888,70 280,67.888 280,65.286L280,47.751Z" style="fill:#7fd8ff;"/>
        <g transform="matrix(-0.893232,-1.09389e-16,8.74808e-17,-0.714335,285.834,65.8968)">
            <path d="M320,8.028C320,5.159 318.138,2.83 315.844,2.83L10.688,2.83C8.394,2.83 6.532,5.159 6.532,8.028L6.532,74.803C6.532,77.671 8.394,80 10.688,80L315.844,80C318.138,80 320,77.671 320,74.803L320,8.028Z" style="fill:#b7e9ff;"/>
        </g>
        <g transform="matrix(1,0,0,1,-3.28938,0)">
            <path d="M121.953,63.875L121.953,58.06C121.953,55.908 123.7,54.162 125.851,54.162L160.728,54.162C162.879,54.162 164.626,55.908 164.626,58.06L164.626,63.875L163.376,63.875L163.376,58.06C163.376,56.598 162.189,55.412 160.728,55.412C160.728,55.412 125.851,55.412 125.851,55.412C124.389,55.412 123.203,56.598 123.203,58.06L123.203,63.875L121.953,63.875Z" style="fill:#d43830;"/>
        </g>
        <g transform="matrix(0.990024,0,0,0.944632,1.39665,1.0344)">
            <path d="M140.842,63.875L140.842,60.346L139.158,60.346L139.158,63.875L140.842,63.875ZM140.842,56.818L140.842,53.289L139.158,53.289L139.158,56.818L140.842,56.818ZM140.842,49.76L140.842,46.232L139.158,46.232L139.158,49.76L140.842,49.76ZM140.842,42.703L140.842,39.174L139.158,39.174L139.158,42.703L140.842,42.703ZM140.842,35.645L140.842,32.117L139.158,32.117L139.158,35.645L140.842,35.645ZM140.842,28.588L140.842,25.059L139.158,25.059L139.158,28.588L140.842,28.588ZM140.842,21.53L140.842,18.002L139.158,18.002L139.158,21.53L140.842,21.53ZM140.842,14.473L140.842,10.944L139.158,10.944L139.158,14.473L140.842,14.473Z" style="fill:#d43830;"/>
        </g>
        <g transform="matrix(0.648633,0,0,0.648633,50.7497,8.26504)">
            <path d="M137.597,23.754C127.959,23.754 120.134,31.579 120.134,41.217C120.134,50.856 127.959,58.681 137.597,58.681C147.236,58.681 155.061,50.856 155.061,41.217C155.061,31.579 147.236,23.754 137.597,23.754ZM137.597,25.681C146.172,25.681 153.134,32.643 153.134,41.217C153.134,49.792 146.172,56.754 137.597,56.754C129.023,56.754 122.061,49.792 122.061,41.217C122.061,32.643 129.023,25.681 137.597,25.681Z" style="fill:#1867ff;"/>
        </g>
        <path d="M9.153,22.016C16.064,22.312 21.584,28.017 21.584,35C21.584,41.983 16.064,47.688 9.153,47.984L9.153,61.582L7.903,61.582L7.903,8.418L9.153,8.418L9.153,22.016ZM270.847,22.016C263.936,22.312 258.416,28.017 258.416,35C258.416,41.983 263.936,47.688 270.847,47.984L270.847,61.582L272.097,61.582L272.097,8.418L270.847,8.418L270.847,22.016ZM9.153,23.267C15.374,23.563 20.334,28.707 20.334,35C20.334,41.293 15.374,46.437 9.153,46.733L9.153,41.221L14.884,41.221C15.23,41.221 15.509,40.941 15.509,40.596L15.509,29.496C15.509,29.151 15.23,28.871 14.884,28.871L9.153,28.871L9.153,23.267ZM270.847,23.267C264.626,23.563 259.666,28.707 259.666,35C259.666,41.293 264.626,46.437 270.847,46.733L270.847,41.221L265.116,41.221C264.77,41.221 264.491,40.941 264.491,40.596L264.491,29.496C264.491,29.151 264.77,28.871 265.116,28.871L270.847,28.871L270.847,23.267ZM9.153,30.121L14.259,30.121L14.259,39.971L9.153,39.971L9.153,30.121ZM270.847,30.121L265.741,30.121L265.741,39.971L270.847,39.971L270.847,30.121Z" style="fill:#d43830;"/>
        <path d="M35.018,43.367L35.018,41.865L33.916,41.865L33.916,43.623C31.413,44.449 29.604,46.809 29.604,49.588C29.604,52.367 31.413,54.727 33.916,55.553L33.916,57.31L35.018,57.31L35.018,55.808C35.301,55.847 35.59,55.868 35.884,55.868C36.178,55.868 36.467,55.847 36.75,55.808L36.75,57.31L37.851,57.31L37.851,55.553C40.355,54.727 42.164,52.367 42.164,49.588C42.164,46.809 40.355,44.449 37.851,43.623L37.851,41.865L36.75,41.865L36.75,43.367C36.467,43.328 36.178,43.308 35.884,43.308C35.59,43.308 35.301,43.328 35.018,43.367ZM243.25,43.367L243.25,41.865L242.149,41.865L242.149,43.623C239.645,44.449 237.836,46.809 237.836,49.588C237.836,52.367 239.645,54.727 242.149,55.553L242.149,57.31L243.25,57.31L243.25,55.808C243.533,55.847 243.822,55.868 244.116,55.868C244.41,55.868 244.699,55.847 244.982,55.808L244.982,57.31L246.084,57.31L246.084,55.553C248.587,54.727 250.396,52.367 250.396,49.588C250.396,46.809 248.587,44.449 246.084,43.623L246.084,41.865L244.982,41.865L244.982,43.367C244.699,43.328 244.41,43.308 244.116,43.308C243.822,43.308 243.533,43.328 243.25,43.367ZM35.884,44.306C38.799,44.306 41.165,46.673 41.165,49.588C41.165,52.503 38.799,54.869 35.884,54.869C32.969,54.869 30.602,52.503 30.602,49.588C30.602,46.673 32.969,44.306 35.884,44.306ZM244.116,44.306C247.031,44.306 249.398,46.673 249.398,49.588C249.398,52.503 247.031,54.869 244.116,54.869C241.201,54.869 238.835,52.503 238.835,49.588C238.835,46.673 241.201,44.306 244.116,44.306ZM35.978,48.311C36.649,48.311 37.193,48.856 37.193,49.527C37.193,50.198 36.649,50.743 35.978,50.743C35.307,50.743 34.762,50.198 34.762,49.527C34.762,48.856 35.307,48.311 35.978,48.311ZM244.21,48.311C244.881,48.311 245.426,48.856 245.426,49.527C245.426,50.198 244.881,50.743 244.21,50.743C243.539,50.743 242.995,50.198 242.995,49.527C242.995,48.856 243.539,48.311 244.21,48.311ZM35.018,16.817L35.018,15.315L33.916,15.315L33.916,17.072C31.413,17.898 29.604,20.258 29.604,23.037C29.604,25.816 31.413,28.176 33.916,29.002L33.916,30.76L35.018,30.76L35.018,29.258C35.301,29.297 35.59,29.317 35.884,29.317C36.178,29.317 36.467,29.297 36.75,29.258L36.75,30.76L37.851,30.76L37.851,29.002C40.355,28.176 42.164,25.816 42.164,23.037C42.164,20.258 40.355,17.898 37.851,17.072L37.851,15.315L36.75,15.315L36.75,16.817C36.467,16.778 36.178,16.757 35.884,16.757C35.59,16.757 35.301,16.778 35.018,16.817ZM243.25,16.817L243.25,15.315L242.149,15.315L242.149,17.072C239.645,17.898 237.836,20.258 237.836,23.037C237.836,25.816 239.645,28.176 242.149,29.002L242.149,30.76L243.25,30.76L243.25,29.258C243.533,29.297 243.822,29.317 244.116,29.317C244.41,29.317 244.699,29.297 244.982,29.258L244.982,30.76L246.084,30.76L246.084,29.002C248.587,28.176 250.396,25.816 250.396,23.037C250.396,20.258 248.587,17.898 246.084,17.072L246.084,15.315L244.982,15.315L244.982,16.817C244.699,16.778 244.41,16.757 244.116,16.757C243.822,16.757 243.533,16.778 243.25,16.817ZM35.884,17.756C38.799,17.756 41.165,20.122 41.165,23.037C41.165,25.952 38.799,28.319 35.884,28.319C32.969,28.319 30.602,25.952 30.602,23.037C30.602,20.122 32.969,17.756 35.884,17.756ZM244.116,17.756C247.031,17.756 249.398,20.122 249.398,23.037C249.398,25.952 247.031,28.319 244.116,28.319C241.201,28.319 238.835,25.952 238.835,23.037C238.835,20.122 241.201,17.756 244.116,17.756ZM35.978,21.761C36.649,21.761 37.193,22.305 37.193,22.976C37.193,23.647 36.649,24.192 35.978,24.192C35.307,24.192 34.762,23.647 34.762,22.976C34.762,22.305 35.307,21.761 35.978,21.761ZM244.21,21.761C244.881,21.761 245.426,22.305 245.426,22.976C245.426,23.647 244.881,24.192 244.21,24.192C243.539,24.192 242.995,23.647 242.995,22.976C242.995,22.305 243.539,21.761 244.21,21.761Z" style="fill:#d43830;"/>
        <path d="M73.69,8.75L71.054,8.75L71.054,63.875L73.69,63.875L73.69,8.75ZM208.946,8.75L206.31,8.75L206.31,63.875L208.946,63.875L208.946,8.75Z" style="fill:#1867ff;"/>
        <g transform="matrix(-0.893232,-1.09389e-16,8.74808e-17,-0.714335,285.834,65.8968)">
            <path d="M320,8.028C320,5.159 318.138,2.83 315.844,2.83L10.688,2.83C8.394,2.83 6.532,5.159 6.532,8.028L6.532,74.803C6.532,77.671 8.394,80 10.688,80L315.844,80C318.138,80 320,77.671 320,74.803L320,8.028ZM318.134,8.028L318.134,74.803C318.134,76.383 317.108,77.667 315.844,77.667L10.688,77.667C9.424,77.667 8.398,76.383 8.398,74.803C8.398,74.803 8.398,8.028 8.398,8.028C8.398,6.447 9.424,5.164 10.688,5.164L315.844,5.164C317.108,5.164 318.134,6.447 318.134,8.028Z" style="fill:#767676;"/>
        </g>
        <g transform="matrix(1,0,0,1,0.17242,0)">
            <path d="M80.217,45.516C81.158,45.516 81.922,46.28 81.922,47.221C81.922,48.162 81.158,48.925 80.217,48.925C79.276,48.925 78.513,48.162 78.513,47.221C78.513,46.28 79.276,45.516 80.217,45.516ZM199.438,45.516C200.379,45.516 201.142,46.28 201.142,47.221C201.142,48.162 200.379,48.925 199.438,48.925C198.497,48.925 197.733,48.162 197.733,47.221C197.733,46.28 198.497,45.516 199.438,45.516ZM80.217,21.075C81.158,21.075 81.922,21.838 81.922,22.779C81.922,23.72 81.158,24.484 80.217,24.484C79.276,24.484 78.513,23.72 78.513,22.779C78.513,21.838 79.276,21.075 80.217,21.075ZM199.438,21.075C200.379,21.075 201.142,21.838 201.142,22.779C201.142,23.72 200.379,24.484 199.438,24.484C198.497,24.484 197.733,23.72 197.733,22.779C197.733,21.838 198.497,21.075 199.438,21.075Z" style="fill:#d43830;"/>
        </g>
    </g>
</svg>
