<?xml version="1.0" encoding="UTF-8" standalone="no"?>
<!DOCTYPE svg PUBLIC "-//W3C//DTD SVG 1.1//EN" "http://www.w3.org/Graphics/SVG/1.1/DTD/svg11.dtd">
<svg width="100%" height="100%" viewBox="0 0 280 62" version="1.1" xmlns="http://www.w3.org/2000/svg" xmlns:xlink="http://www.w3.org/1999/xlink" xml:space="preserve" xmlns:serif="http://www.serif.com/" style="fill-rule:evenodd;clip-rule:evenodd;stroke-linejoin:round;stroke-miterlimit:2;">
    <g id="banner_63" transform="matrix(1,0,0,1,0,-8.75)">
        <g>
            <g transform="matrix(1,0,0,1,0,-9.022)">
                <path d="M33.138,61.25C21.148,61.25 11.414,51.516 11.414,39.526C11.414,27.537 21.173,18.567 33.138,17.803C43.628,17.133 102.255,27.562 142.208,27.562C175.871,27.562 226.811,17.876 244.89,17.803L245.03,17.803C256.955,17.879 266.613,27.584 266.613,39.526C266.613,51.516 256.879,61.25 244.89,61.25L33.138,61.25Z" style="fill:#e0813f;"/>
            </g>
            <g transform="matrix(1,0,0,1,0,-4.0756)">
                <path d="M33.138,61.25C21.148,61.25 11.414,51.516 11.414,39.526C11.414,27.537 21.173,18.567 33.138,17.803C43.628,17.133 102.255,27.562 142.208,27.562C175.871,27.562 226.811,17.876 244.89,17.803L245.03,17.803C256.955,17.879 266.613,27.584 266.613,39.526C266.613,51.516 256.879,61.25 244.89,61.25L33.138,61.25Z" style="fill:#f8aa74;"/>
            </g>
        </g>
        <g>
            <g transform="matrix(0.989811,0.14239,-0.14239,0.989811,7.11346,-27.5805)">
                <path d="M270.944,21.156L276.596,19.39L274.786,22.919L278.691,25.27L275.473,27.488L276.83,31.231L271.345,29.742L270.944,21.156Z" style="fill:#da3f2e;"/>
            </g>
            <g transform="matrix(0.989811,0.14239,-0.14239,0.989811,7.11346,-27.5805)">
                <path d="M270.757,20.56C270.486,20.644 270.306,20.901 270.319,21.185L270.721,29.771C270.734,30.042 270.92,30.274 271.181,30.345L276.667,31.834C276.892,31.895 277.132,31.826 277.29,31.654C277.448,31.483 277.497,31.237 277.418,31.018L276.225,27.728C276.225,27.728 279.046,25.784 279.046,25.784C279.22,25.664 279.322,25.463 279.316,25.25C279.309,25.038 279.195,24.844 279.013,24.734L275.609,22.685C275.609,22.685 277.152,19.675 277.152,19.675C277.267,19.451 277.236,19.18 277.074,18.988C276.912,18.795 276.65,18.719 276.41,18.794L270.757,20.56ZM271.59,21.609L275.36,20.431C275.36,20.431 274.23,22.634 274.23,22.634C274.08,22.926 274.182,23.285 274.464,23.455L277.538,25.305C277.538,25.305 275.118,26.973 275.118,26.973C274.884,27.134 274.789,27.433 274.886,27.701L275.833,30.313C275.833,30.313 271.948,29.258 271.948,29.258L271.59,21.609Z" style="fill:#b62818;"/>
            </g>
            <g transform="matrix(-0.989811,0.14239,0.14239,0.989811,274.425,-27.5805)">
                <path d="M272.47,20.937L278.122,19.171L276.313,22.699L280.217,25.05L276.999,27.268L278.357,31.011L272.872,29.522L272.47,20.937Z" style="fill:#da3f2e;"/>
            </g>
            <g transform="matrix(-0.989811,0.14239,0.14239,0.989811,274.425,-27.5805)">
                <path d="M271.846,20.966C271.832,20.682 272.012,20.425 272.284,20.34L277.936,18.574C278.176,18.499 278.438,18.575 278.601,18.768C278.763,18.961 278.793,19.232 278.679,19.456L277.135,22.465C277.135,22.465 280.54,24.515 280.54,24.515C280.722,24.624 280.835,24.819 280.842,25.031C280.848,25.243 280.747,25.444 280.572,25.565L277.752,27.509C277.752,27.509 278.944,30.798 278.944,30.798C279.024,31.018 278.975,31.263 278.817,31.435C278.659,31.606 278.418,31.676 278.193,31.615L272.708,30.125C272.446,30.054 272.26,29.822 272.247,29.551L271.846,20.966ZM273.117,21.389L273.475,29.038C273.475,29.038 277.359,30.093 277.359,30.093C277.359,30.093 276.412,27.481 276.412,27.481C276.315,27.214 276.411,26.915 276.645,26.753L279.064,25.086C279.064,25.086 275.99,23.235 275.99,23.235C275.709,23.065 275.607,22.707 275.757,22.414L276.886,20.212L273.117,21.389Z" style="fill:#b62818;"/>
            </g>
            <g transform="matrix(1,0,0,1,0,8.75)">
                <path d="M24.461,45.077C14.794,45.077 6.946,37.229 6.946,27.562C6.946,17.896 14.794,10.048 24.461,10.048C49.57,10.048 95.342,14.398 142.208,14.902C187.972,15.394 242.223,10.179 255.879,10.048C265.545,10.048 273.393,17.896 273.393,27.562C273.393,37.229 265.545,45.077 255.879,45.077C193.95,49.581 86.39,49.5 24.461,45.077Z" style="fill:#da3f2e;"/>
            </g>
            <g transform="matrix(1,0,0,1,0,8.75)">
                <path d="M139.014,21.645C123.944,21.91 41.817,15.798 33.138,14.745C21.35,13.315 11.414,20.513 10.531,33.793C9.678,32.14 9.163,30.65 9.163,27.562C9.163,19.395 18.541,12.071 24.461,12.081C47.169,12.122 93.191,16.238 139.014,16.895C139.014,16.895 232.357,13.951 255.6,12.081C261.5,11.606 270.898,19.395 270.898,27.562C270.898,30.65 270.382,32.14 269.529,33.793C268.646,20.513 258.794,14.527 246.922,14.745C236.689,14.933 158.016,21.311 139.014,21.645Z" style="fill:#f74633;"/>
            </g>
            <g transform="matrix(1,0,0,1,0,8.75)">
                <path d="M24.438,45.702C86.387,50.124 193.952,50.205 255.902,45.702C265.903,45.689 274.018,37.566 274.018,27.562C274.018,17.551 265.89,9.423 255.879,9.423L255.879,10.673L255.873,9.423C242.219,9.554 187.974,14.769 142.214,14.277C95.346,13.773 49.571,9.423 24.461,9.423C14.449,9.423 6.321,17.551 6.321,27.562C6.321,37.568 14.44,45.693 24.444,45.702L24.438,45.702ZM255.881,10.673C265.202,10.675 272.768,18.242 272.768,27.562C272.768,36.884 265.2,44.452 255.879,44.452C255.864,44.452 255.849,44.452 255.834,44.453C193.928,48.956 86.41,48.874 24.505,44.453C24.49,44.452 24.475,44.452 24.461,44.452C15.139,44.452 7.571,36.884 7.571,27.562C7.571,18.241 15.139,10.673 24.461,10.673C49.568,10.673 95.338,15.023 142.201,15.527C187.966,16.019 242.217,10.805 255.881,10.673Z" style="fill:#b62818;"/>
            </g>
        </g>
        <g transform="matrix(1,0,0,1,0,8.75)">
            <path d="M33.138,61.25C21.148,61.25 11.414,51.516 11.414,39.526C11.414,27.537 21.173,18.567 33.138,17.803C43.628,17.133 102.255,27.562 142.208,27.562C175.871,27.562 226.811,17.876 244.89,17.803L245.03,17.803C256.955,17.879 266.613,27.584 266.613,39.526C266.613,51.516 256.879,61.25 244.89,61.25L33.138,61.25Z" style="fill:#e0813f;"/>
        </g>
        <g transform="matrix(1,0,0,1,0,8.75)">
            <path d="M11.529,41.769C11.453,41.033 11.414,40.284 11.414,39.526C11.414,27.537 21.173,18.567 33.138,17.803C43.628,17.133 102.255,27.562 142.208,27.562C175.871,27.562 226.811,17.876 244.89,17.803L245.03,17.803C256.955,17.879 266.613,27.584 266.613,39.526C266.613,40.282 266.574,41.028 266.499,41.764C265.383,30.87 256.201,22.349 245.03,22.278L244.89,22.278C226.811,22.351 175.871,32.037 142.208,32.037C102.255,32.037 43.628,21.608 33.138,22.278C21.928,22.993 12.655,30.912 11.529,41.769Z" style="fill:#f8aa74;"/>
        </g>
        <g transform="matrix(1,0,0,1,-7.84229,8.75)">
            <path d="M50.027,8.236C44.463,16.05 51.991,26.194 60.706,24.084C66.222,22.748 70.162,19.362 73.842,16.256C76.555,13.965 79.005,11.722 82.469,11.833C83.784,11.875 84.396,12.907 84.986,14.049C85.695,15.42 86.245,17.044 86.848,18.655C88.937,24.238 91.792,29.312 98.725,29.196C103.255,29.12 106.656,27.116 109.52,24.332C111.89,22.03 113.855,19.155 115.941,16.765C116.775,15.81 117.748,14.77 118.875,14.06C119.576,13.619 120.341,13.287 121.196,13.464C123.847,14.013 125.658,15.896 127.219,18.035C129.214,20.772 130.781,23.978 132.48,26.543C135.182,30.62 139.288,34.359 144.669,32.951C146.511,32.469 148.041,31.414 149.332,30.035C150.773,28.496 151.89,26.509 152.968,24.901C154.567,22.517 156.384,19.555 158.647,17.264C160.396,15.493 162.408,14.085 164.958,14.27C166.543,14.384 167.96,15.171 169.32,16.198C171.043,17.498 172.646,19.198 174.217,20.898C176.389,23.249 178.508,25.601 180.671,27.237C182.487,28.609 184.365,29.51 186.299,29.78C191.233,30.47 194.339,27.343 196.666,22.779C197.867,20.423 198.881,17.685 200.235,15.544C201.027,14.29 201.861,13.173 203.327,13.173C204.425,13.173 205.399,13.786 206.386,14.535C207.849,15.645 209.253,17.127 210.686,18.576C212.384,20.292 214.118,21.965 215.94,23.169C218.223,24.679 220.659,25.494 223.299,25.219C229.352,24.587 231.949,21.692 233.992,18.379C235.325,16.218 236.155,13.679 238.702,12.241C240.347,11.312 242.51,11.469 244.394,12.104C246.155,12.697 247.791,13.685 248.299,15.066C248.895,16.684 250.693,17.514 252.311,16.919C253.93,16.323 254.76,14.525 254.164,12.906C253.291,10.535 251.151,8.374 248.355,6.992C244.43,5.053 239.332,4.707 235.629,6.799C232.644,8.484 231.036,11.008 229.549,13.604C228.169,16.011 226.944,18.555 222.651,19.003C221.466,19.126 220.411,18.633 219.387,17.956C217.902,16.974 216.514,15.581 215.13,14.181C213.111,12.14 211.1,10.085 209.008,8.746C207.199,7.59 205.309,6.923 203.327,6.923C200.125,6.923 197.737,8.46 195.848,10.915C194.442,12.742 193.33,15.149 192.243,17.529C191.533,19.083 190.835,20.622 189.983,21.866C189.269,22.906 188.489,23.775 187.164,23.59C185.903,23.414 184.765,22.577 183.59,21.56C181.992,20.175 180.425,18.407 178.807,16.656C174.841,12.364 170.479,8.403 165.409,8.036C161.769,7.773 158.644,9.091 155.952,11.276C152.605,13.992 149.97,18.149 147.777,21.42C146.995,22.586 146.214,23.998 145.246,25.209C144.65,25.956 144.007,26.664 143.088,26.905C141.835,27.232 140.836,26.652 139.982,25.887C139.094,25.092 138.344,24.078 137.69,23.091C135.943,20.454 134.32,17.166 132.269,14.353C129.782,10.942 126.69,8.22 122.464,7.344C117.956,6.41 113.966,9.524 111.233,12.655C109.254,14.922 107.412,17.666 105.165,19.85C103.413,21.552 101.39,22.9 98.62,22.947C96.18,22.988 94.974,21.461 94.053,19.664C93.126,17.854 92.469,15.762 91.721,13.852C89.911,9.223 87.373,5.737 82.669,5.586C78.495,5.452 75.137,7.236 71.89,9.775C68.233,12.635 64.755,16.673 59.235,18.009C55.861,18.827 52.964,14.886 55.118,11.861C56.118,10.456 55.79,8.503 54.385,7.502C52.98,6.502 51.027,6.831 50.027,8.236Z" style="fill:#ffba1c;"/>
        </g>
        <g transform="matrix(1,0,0,1,0,8.75)">
            <path d="M215.365,23.552C217.476,24.072 219.865,23.022 220.646,22.53C222.144,21.509 223.586,20.194 224.682,18.648C225.119,18.031 225.578,17.413 225.803,16.708C225.975,16.168 225.953,15.703 225.99,15.153C225.998,15.137 225.991,15.119 225.975,15.112C225.96,15.104 225.941,15.111 225.934,15.127C225.573,15.466 225.225,15.672 224.87,16.035C224.741,16.167 224.64,16.319 224.528,16.468C224.19,16.916 223.845,17.364 223.487,17.807C222.956,18.465 220.578,22.572 215.365,23.552ZM41.866,15.213C41.918,15.844 42.136,16.592 42.317,17.065C42.624,17.868 43.125,18.565 43.668,19.246C44.533,20.454 45.666,21.435 47.01,22.035C48.371,22.642 49.915,22.789 51.414,22.646C51.781,22.601 52.151,22.554 52.512,22.459C53.037,22.321 53.551,22.142 54.045,21.904C54.538,21.666 54.995,21.419 55.434,21.098C55.755,20.863 56.299,20.339 56.291,20.318C56.283,20.296 55.533,20.259 55.138,20.277C54.782,20.293 54.454,20.324 54.1,20.377C53.41,20.48 52.735,20.597 52.051,20.692C51.77,20.732 51.492,20.789 51.211,20.819C49.993,20.973 48.77,20.779 47.606,20.43C46.387,20.064 45.218,19.568 44.255,18.716C44.05,18.532 43.848,18.352 43.669,18.148C43.246,17.666 42.876,17.173 42.558,16.61C42.441,16.404 42.241,16.034 41.866,15.213ZM72.993,8.236C72.982,8.268 73.619,8.398 73.9,8.502C74.575,8.751 75.703,9.511 76.57,10.431C77.992,11.939 79.367,15.668 79.887,16.953C80.015,17.236 80.127,17.526 80.268,17.802C80.411,18.081 80.641,18.49 80.809,18.755C81.164,19.314 82.628,21.636 82.719,21.602C82.81,21.567 82.255,18.611 82.147,18.028C82.089,17.712 81.993,17.411 81.887,17.108C81.783,16.811 81.644,16.527 81.522,16.237C81.075,15.277 80.639,14.264 80.1,13.305C79.732,12.651 79.334,12.017 78.866,11.441C78.383,10.847 77.829,10.346 77.246,9.861C76.863,9.542 76.479,9.225 76.048,8.96C75.511,8.623 74.919,8.375 74.301,8.222C73.723,8.079 73.003,8.204 72.993,8.236ZM115.84,8.336C115.794,8.329 114.383,8.144 114.353,8.309C114.327,8.449 115.647,9.368 115.759,9.437C115.976,9.573 116.178,9.718 116.393,9.859C117.26,10.428 118.079,11.101 118.802,11.81C119.554,12.507 120.229,13.284 120.912,14.058C121.603,14.841 122.223,15.687 122.95,16.434C123.341,16.837 124.502,17.689 124.654,17.582C124.807,17.476 124.384,16.083 124.12,15.579C123.869,15.099 123.538,14.667 123.219,14.227C122.739,13.564 122.222,12.927 121.671,12.323C121.114,11.711 120.511,11.144 119.887,10.605C119.044,9.908 118.146,9.166 117.118,8.719C116.703,8.539 116.282,8.41 115.84,8.336ZM157.642,9.47C157.651,9.575 159.302,10.289 159.896,10.589C160.44,10.864 161.437,11.467 161.92,11.793C162.577,12.208 163.181,12.687 163.767,13.184C164.605,13.896 165.338,14.716 166.136,15.478C166.696,16.013 168.107,17.11 168.22,17.025C168.332,16.94 167.55,15.168 167.072,14.467C166.757,14.006 166.376,13.595 165.995,13.188C165.03,12.157 163.933,11.26 162.721,10.505C162.015,10.109 161.242,9.668 160.417,9.504C159.455,9.313 157.633,9.366 157.642,9.47ZM197.239,8.021C197.841,8.462 199.681,10.003 200.248,10.425C200.815,10.848 201.344,11.323 201.878,11.792C202.169,12.049 202.462,12.295 202.76,12.54C203.239,12.932 203.712,13.262 204.164,13.66C204.255,13.782 204.427,13.807 204.549,13.717C204.671,13.626 204.696,13.453 204.605,13.332C204.296,12.674 204.007,12.028 203.57,11.42C203.147,10.832 202.617,10.321 202.063,9.85C201.159,9.081 198.607,8.044 197.239,8.021ZM238.9,7.406C238.87,7.5 239.779,8.089 239.846,8.133C240.455,8.538 241.049,8.912 241.595,9.339C241.831,9.524 243.17,10.44 243.458,10.613C243.531,10.693 243.655,10.698 243.735,10.624C243.815,10.551 243.82,10.427 243.747,10.347C243.582,10.018 242.5,8.666 242.08,8.357C241.507,7.935 240.806,7.642 240.118,7.445C240.03,7.42 238.929,7.311 238.9,7.406Z" style="fill:#ffd300;"/>
        </g>
        <g>
            <g transform="matrix(1,0,0,1,0,8.75)">
                <circle cx="252.653" cy="31.041" r="1.805" style="fill:#be672b;"/>
            </g>
            <g transform="matrix(1,0,0,1,0,8.75)">
                <circle cx="245.096" cy="32.678" r="2.547" style="fill:#be672b;"/>
            </g>
            <g transform="matrix(1,0,0,1,0,8.75)">
                <circle cx="250.889" cy="36.287" r="1.062" style="fill:#be672b;"/>
            </g>
            <g transform="matrix(1,0,0,1,0,8.75)">
                <circle cx="236.681" cy="57.284" r="1.772" style="fill:#be672b;"/>
            </g>
            <g transform="matrix(1,0,0,1,0,8.75)">
                <circle cx="240.657" cy="58.67" r="0.886" style="fill:#be672b;"/>
            </g>
            <g transform="matrix(1,0,0,1,0,8.75)">
                <circle cx="87.362" cy="42.702" r="1.326" style="fill:#be672b;"/>
            </g>
            <g transform="matrix(1,0,0,1,0,8.75)">
                <circle cx="92.259" cy="47.32" r="1.803" style="fill:#be672b;"/>
            </g>
            <g transform="matrix(1,0,0,1,0,8.75)">
                <circle cx="88.264" cy="46.419" r="0.902" style="fill:#be672b;"/>
            </g>
            <g transform="matrix(1,0,0,1,0,8.75)">
                <circle cx="26.145" cy="53.403" r="2.109" style="fill:#be672b;"/>
            </g>
            <g transform="matrix(1,0,0,1,0,8.75)">
                <circle cx="32.196" cy="55.213" r="1.06" style="fill:#be672b;"/>
            </g>
            <g transform="matrix(1,0,0,1,0,8.75)">
                <circle cx="29.969" cy="57.441" r="1.167" style="fill:#be672b;"/>
            </g>
        </g>
    </g>
</svg>
