<?xml version="1.0" encoding="UTF-8" standalone="no"?>
<!DOCTYPE svg PUBLIC "-//W3C//DTD SVG 1.1//EN" "http://www.w3.org/Graphics/SVG/1.1/DTD/svg11.dtd">
<svg width="100%" height="100%" viewBox="0 0 280 62" version="1.1" xmlns="http://www.w3.org/2000/svg" xmlns:xlink="http://www.w3.org/1999/xlink" xml:space="preserve" xmlns:serif="http://www.serif.com/" style="fill-rule:evenodd;clip-rule:evenodd;stroke-linejoin:round;stroke-miterlimit:2;">
    <g id="ice-banner" serif:id="ice banner" transform="matrix(1,0,0,1,0,-8.75)">
        <g transform="matrix(1,0,0,1,0,8.75)">
            <path d="M180.828,61.25L180.367,60.047L180.198,57.312L180.901,47.511L182.48,46.908L184.872,56.116L183.612,60.176L180.828,61.25ZM15.655,61.25L13.627,59.102L13.186,56.468L15.053,50.981L17.392,56.403L15.655,61.25Z" style="fill:#668fa3;"/>
        </g>
        <g transform="matrix(1,0,0,1,0,8.75)">
            <path d="M181.69,49.923L280,49.923L280,56.536C280,59.138 277.888,61.25 275.286,61.25L180.828,61.25L181.019,60.456C181.104,60.199 181.215,59.986 181.343,59.8L182.75,58.136C183.002,57.819 183.133,57.534 183.097,57.033L183.044,55.125L181.966,53.22C181.721,52.856 181.638,52.444 181.666,51.998L181.69,49.923ZM11.358,61.25L4.714,61.25C2.112,61.25 -0,59.138 -0,56.536L-0,49.923L181.583,49.923L181.292,52.4C181.193,52.764 181.249,53.02 181.347,53.315L181.661,54.527L181.626,56.414C181.594,56.905 181.417,57.291 181.07,57.553L178.862,59.345C178.63,59.535 178.311,59.835 178.128,60.153L177.564,61.25L15.655,61.25L15.429,59.671C15.375,59.369 15.37,59.036 15.475,58.686L15.823,57.324C16.026,56.653 15.968,56.073 15.682,55.587C15.113,54.62 14.93,53.491 14.797,52.341L13.709,56.425C13.643,56.846 13.474,57.261 13.144,57.668L12.161,58.985C11.636,59.52 11.408,60.309 11.358,61.25Z" style="fill:#668fa3;"/>
        </g>
        <g transform="matrix(1,0,0,1,0,8.75)">
            <path d="M145.829,60.781C146.292,60.43 146.547,60.042 146.608,59.6C146.669,59.158 146.536,58.661 146.221,58.092L145.829,60.781ZM145.259,60.368C145.077,59.969 145.009,59.582 145.029,59.204C145.049,58.825 145.157,58.456 145.327,58.092L145.259,60.368ZM189.405,57.642L188.412,60.204C189.087,59.744 189.597,58.432 189.405,57.642ZM25.62,59.983C25.59,59.564 25.425,59.162 25.148,58.774C24.872,58.386 24.484,58.012 24.009,57.649L25.62,59.983ZM214.453,58.003L214.528,59.983C215.087,59.28 214.896,58.632 214.453,58.003ZM26.655,59.983C26.808,59.705 26.829,59.431 26.729,59.162C26.629,58.893 26.408,58.628 26.078,58.367L26.655,59.983ZM215.808,58.003L215.531,59.983C216.391,59.343 216.285,58.678 215.808,58.003ZM114.521,59.983C114.943,59.543 115.118,59.088 115.101,58.621C115.083,58.154 114.872,57.676 114.52,57.189L114.521,59.983ZM186.837,59.983C187.292,59.722 187.547,59.423 187.629,59.091C187.711,58.76 187.62,58.395 187.383,58.003L186.837,59.983ZM173.543,59.983C174.001,59.782 174.333,59.513 174.536,59.172C174.739,58.832 174.813,58.421 174.755,57.938L173.543,59.983ZM169.381,59.983L170.331,58.515L168.452,59.983L169.381,59.983ZM170.957,59.983L171.902,57.938L171.159,57.938L170.331,59.983L170.957,59.983ZM241.847,59.784C242.363,59.576 242.564,59.232 242.601,58.844C242.638,58.456 242.512,58.025 242.374,57.642L241.847,59.784ZM60.516,59.695C60.55,59.269 60.458,58.866 60.267,58.482C60.075,58.098 59.783,57.734 59.417,57.383L60.516,59.695ZM243.541,59.545C243.922,59.26 244.136,58.954 244.233,58.635C244.331,58.316 244.311,57.983 244.228,57.642L243.541,59.545ZM106.753,59.545C106.778,59.167 106.712,58.824 106.573,58.509C106.434,58.194 106.221,57.907 105.95,57.642L106.753,59.545ZM107.657,59.545C107.904,59.061 107.907,58.637 107.752,58.251C107.598,57.866 107.287,57.519 106.908,57.189L107.657,59.545ZM58.409,59.381C58.148,59.143 57.979,58.876 57.884,58.586C57.79,58.296 57.772,57.982 57.814,57.649L58.409,59.381ZM266.951,59.337C267.324,59.097 267.564,58.835 267.682,58.552C267.8,58.269 267.796,57.965 267.681,57.642L266.951,59.337ZM268.081,59.337C268.774,59.243 269.168,59.038 269.332,58.746C269.497,58.455 269.433,58.078 269.212,57.642L268.081,59.337ZM115.908,59.249C116.159,58.987 116.305,58.708 116.363,58.416C116.421,58.124 116.391,57.817 116.292,57.5L115.908,59.249Z" style="fill:#557d90;"/>
        </g>
        <g transform="matrix(1,0,0,1,0,8.75)">
            <path d="M21.814,61.25L15.655,61.25L15.429,59.671C15.375,59.369 15.37,59.036 15.475,58.686L15.823,57.324C16.026,56.653 15.968,56.073 15.682,55.587C15.113,54.62 14.93,53.491 14.797,52.341L13.709,56.425C13.643,56.846 13.474,57.261 13.144,57.668L12.161,58.985C11.636,59.52 11.408,60.309 11.358,61.25L4.714,61.25C2.112,61.25 -0,59.138 -0,56.536L-0,49.923L181.583,49.923L181.292,52.4C181.193,52.764 181.249,53.02 181.347,53.315L181.661,54.527L181.626,56.414C181.594,56.905 181.417,57.291 181.07,57.553L178.862,59.345C178.63,59.535 178.311,59.835 178.128,60.153L177.564,61.25L22.96,61.25C22.842,61.277 22.718,61.284 22.623,61.291C22.555,61.296 22.487,61.301 22.42,61.304C22.216,61.312 22.014,61.281 21.814,61.25ZM181.69,49.923L280,49.923L280,56.536C280,59.138 277.888,61.25 275.286,61.25L180.828,61.25L181.019,60.456C181.104,60.199 181.215,59.986 181.343,59.8L182.75,58.136C183.002,57.819 183.133,57.534 183.097,57.033L183.044,55.125L181.966,53.22C181.721,52.856 181.638,52.444 181.666,51.998L181.69,49.923ZM25.207,60.813L22.741,58.009L22.738,57.998C22.601,57.532 22.965,57.091 23.416,57.041L26.784,57.041L29.078,57.691C29.985,58.142 31.019,58.047 31.443,57.911L33.173,57.483C35.724,57.188 40.071,57.761 40.841,57.509C42.424,56.991 43.973,56.931 45.204,57.109C49.336,57.706 53.42,57.605 57.456,56.801C58.844,56.524 59.905,56.959 61.503,57.057C63.177,57.16 64.784,57.105 66.139,57.35C68.373,57.755 70.609,57.846 72.847,57.677C74.21,57.573 75.173,57.054 76.262,57.18C79.997,57.614 84.539,57.873 88.706,57.629C89.93,57.558 91.037,57.203 92.249,57.136C93.858,57.047 96.489,57.103 98.874,57.288C100.417,58.12 104.428,57.117 105.794,56.944C106.402,56.841 107.17,56.635 107.589,56.852C108.987,57.576 110.192,56.892 111.16,56.86L119.01,56.637C120.25,56.635 121.677,57.389 129.295,57.125C130.509,57.083 131.294,56.51 131.949,56.493L138.293,56.565C140.289,56.538 143.457,57.682 146.929,57.49C148.034,57.417 148.578,57.194 149.244,57.185L154.407,57.192C156.101,57.23 157.612,58.376 163.653,57.522C164.21,57.443 165.518,57.448 166.68,57.627C168.317,57.88 172.076,57.424 173.378,57.308C174.021,57.25 176.233,57.485 177.855,57.453C178.816,57.438 179.2,58.078 178.315,58.372C177.727,58.567 176.635,59.004 175.965,59.601C175.239,60.247 174.737,60.631 173.345,60.757C172.708,60.754 172.61,60.328 171.827,60.376C171.238,60.412 169.893,60.539 169.286,60.516C163.822,60.308 158.08,59.948 153.081,59.773C151.767,59.727 151.096,60.014 150.256,60.245C149.491,60.455 148.192,60.247 147.099,60.655C145.773,61.149 145.047,61.248 143.842,60.771C142.984,60.432 141.465,60.595 140.544,60.582C139.762,60.571 139.153,60.305 138.373,60.189C136.981,59.983 135.476,60.104 134.076,60.099C132.881,60.095 131.678,60.664 130.481,60.658C128.549,60.649 126.389,59.875 124.45,59.862C122.179,59.846 119.903,59.828 117.62,59.804C116.179,59.79 114.959,60.537 113.512,60.519C112.22,60.502 110.926,60.485 109.629,60.465C108.125,60.443 106.726,59.799 105.216,59.883C104.431,59.926 104.072,60.372 103.555,60.362C102.625,60.344 101.693,60.325 100.759,60.306C100.088,60.291 98.696,59.799 98.023,59.83C97.092,59.872 96.972,60.396 96.469,60.384C90.847,60.244 85.743,60.119 79.976,59.859L75.541,59.817C74.579,59.79 71.867,60.434 70.551,60.428C69.866,59.981 68.615,59.873 66.658,60.037L60.802,60.397C58.798,59.297 56.074,60.332 53.764,60.374C47.841,60.484 41.711,60.484 36.441,59.977C35.191,59.857 33.938,59.83 32.874,60.267L30.818,60.928C30.601,60.802 30.284,60.644 29.889,60.694L25.207,60.813ZM18,60.58C17.928,60.659 17.853,60.736 17.76,60.794C17.748,60.802 17.735,60.809 17.721,60.816L17.344,60.816C17.303,60.794 17.27,60.762 17.25,60.719C17.198,60.606 17.231,60.466 17.257,60.35C17.259,60.338 17.262,60.318 17.265,60.294L17.32,60.087C17.466,59.631 17.372,59.189 17.437,58.939C17.655,58.11 17.816,57.921 18.118,57.719C18.246,57.634 18.529,57.63 18.895,57.671C18.919,58.83 18.602,59.789 18,60.58ZM21.24,58.946C21.213,58.931 21.182,58.925 21.153,58.941C21.104,58.967 21.07,59.032 21.04,59.075C20.997,59.137 20.948,59.195 20.896,59.25C20.773,59.384 20.66,59.526 20.536,59.659C20.448,59.754 20.341,59.84 20.273,59.951C20.131,60.184 20.29,60.532 20.5,60.669C20.592,60.728 20.697,60.754 20.804,60.77C21.18,60.801 21.381,60.787 21.76,60.775C22.018,60.767 22.279,60.787 22.536,60.774C22.569,60.772 22.602,60.769 22.635,60.765L21.24,58.946ZM4.517,57.404C4.901,57.618 5.28,57.706 5.653,57.656L7.575,57.701C7.876,57.698 8.443,57.7 8.77,57.578C9.441,57.328 10.531,57.218 10.671,57.297C10.923,57.439 10.078,58.195 9.684,58.633C9.509,58.827 9.494,59.106 9.559,59.268C9.667,59.54 9.768,59.727 9.727,59.988C9.668,60.361 9.343,60.614 8.978,60.696C8.777,60.741 8.85,60.946 4.911,59.931C3.609,59.595 2.776,58.709 1.907,57.418C1.074,56.183 2.63,56.732 2.63,56.732L4.517,57.404ZM186.644,57.126C187.051,56.785 189.818,57.267 191.033,57.428C191.689,57.515 192.066,57.821 192.759,57.882C193.712,57.966 194.718,57.902 195.423,57.856C196.039,57.815 196.397,57.771 196.639,57.496C196.836,57.231 197.337,57.253 197.71,57.216C198.837,57.105 199.825,57.165 200.8,57.241C203.67,58.091 207.001,57.471 210.244,57.318C214.258,57.129 218.047,57.525 222.184,57.415C223.826,57.372 225.3,57.555 226.637,57.736C230.198,58.216 233.794,57.974 237.493,57.875C240.347,57.886 241.003,57.059 242.81,57.061L246.393,56.979C248.005,56.883 250.878,57.587 253.216,57.535L257.747,57.553C258.939,57.496 261.293,57.987 261.981,58.058C263.417,58.207 264.533,58.216 265.745,57.616C266.531,57.206 267.296,57.048 268.047,57.037L272.39,57.033C274.216,57.108 275.627,56.834 276.611,56.205C277.32,55.676 277.727,54.963 278.135,55.125C278.49,55.266 278.769,55.587 278.471,56.094C278.471,56.094 277.634,57.04 275.571,58.933C274.77,59.668 273.963,59.995 272.662,59.995L184.581,60.67C184.444,60.705 184.021,60.645 184.458,60.387C184.852,60.153 185.394,60.11 185.353,59.712C185.337,59.553 185.305,59.412 185.392,59.134C185.508,58.767 186.048,58.765 186.069,58.471C186.119,57.764 186.363,57.362 186.644,57.126Z" style="fill:#d7e7f3;"/>
        </g>
        <g transform="matrix(1,0,0,1,0,8.75)">
            <path d="M275.211,39.141L277.032,41.257L275.141,42.827L274.332,40.644L275.211,39.141ZM264.963,29.037L264.854,34.919L264.702,36.337L257.953,39.395L255.869,40.989L255.185,40.412L256.603,37.852L261.727,33.54L262.217,30.834L264.963,29.037ZM268.373,34.485L268.641,37.186L266.314,37.629L267.423,34.42L268.373,34.485ZM32.444,16.626L32.496,20.342L34.133,23.995L34.773,23.837L35.08,18.302L32.444,16.626ZM70.053,15.242L69.993,18.793L72.479,22.22L72.626,17.972L70.053,15.242Z" style="fill:#668fa3;"/>
        </g>
        <g transform="matrix(1,0,0,1,0,8.75)">
            <path d="M14.055,55.125L3.713,55.125C1.664,55.125 -0,53.461 -0,51.412L-0,47.953L2.449,38.788C2.542,38.494 2.701,38.359 3.075,38.281L4.848,37.962C5.163,37.907 5.308,37.76 5.371,37.433L5.537,36.074C5.641,35.38 6.533,34.858 6.502,34.239C6.425,32.684 5.753,31.681 4.914,30.834L6.609,25.572C7.628,23.212 9.299,22.295 11.401,22.329L26.648,22.329L29.049,19.792C29.37,19.448 29.749,19.34 30.176,19.422L32.208,19.677C32.571,19.721 32.808,19.942 32.956,20.288L34.172,22.645L34.232,19.429C34.234,19.104 34.121,18.809 33.892,18.543L32.582,17.043C32.387,16.762 32.395,16.523 32.607,16.326L35.688,13.112C35.895,12.926 36.144,12.871 36.358,13.043L37.623,14.1L37.709,11.873C37.712,11.578 37.793,11.342 37.989,11.19L39.207,10.463C40.319,9.684 42.488,9.535 44.218,9.876L57.58,12.344C59.027,12.57 60.116,13.316 60.43,14.42C60.692,15.341 61.399,15.748 62.823,15.629L66.295,15.322C66.785,15.249 67.137,15.468 67.395,15.926L67.912,16.93C68.013,17.126 68.176,17.216 68.394,17.211L68.884,17.204C69.17,17.181 69.395,17.28 69.531,17.557L71.85,20.234L71.593,18.062C71.606,17.761 71.495,17.558 71.295,17.426L70.39,16.674L70.09,15.623C69.982,15.191 70.029,15.058 70.534,15.071L71.843,15.023C73.05,14.966 73.881,14.112 74.558,13.053L79.408,4.209C80.782,1.554 83.923,0 86.427,0L91.769,0L92.725,2.103L94.16,0L98.323,0C98.925,1.522 99.471,3.095 100.419,4.289C101.829,3.139 102.641,1.557 103.488,0L157.705,0L158.707,2.097C158.919,2.55 159.231,2.856 159.723,2.897L164.469,2.929C164.834,2.174 165.461,1.762 166.373,1.725C166.929,1.702 167.453,2.416 168.114,2.735L172.339,2.238C173.26,2.177 173.682,1.897 173.996,1.545L174.606,0.88C174.97,0.412 175.393,0.128 175.865,0L176.558,0C177.289,0 177.288,0.277 177.646,0.794L179.277,3.044L181.04,0L209.825,0C211.955,0 213.463,0.732 214.447,2.237L223.522,14.287C224.153,15.03 224.564,15.197 225.555,15.468L230.522,16.315L231.551,19.725C232.967,19.158 233.939,18.177 234.83,17.121L237.813,17.634L238.186,19.837L240.261,17.904L256.97,20.624C258.612,20.857 260.153,21.626 260.833,22.902L264.963,29.037L263.092,31.642L262.938,33.609L257.351,38.454L256.45,39.767L257.754,38.651C259.848,37.585 262.137,36.744 263.79,35.642L264.471,33.698L266.539,31.674L268.373,34.485L267.321,36.75L269.704,36.401C270.489,38.065 272.22,39.053 275.211,39.141L275.358,41.549L277.876,39.815C279.245,40.341 279.977,41.436 280,43.166L280,51.412C280,53.461 278.336,55.125 276.287,55.125L183.044,55.125L181.966,53.22C181.721,52.856 181.638,52.444 181.666,51.998L181.702,48.912L181.292,52.4C181.193,52.764 181.249,53.02 181.347,53.315L181.661,54.527L181.65,55.125L15.444,55.125C15.058,54.268 14.909,53.312 14.797,52.341L14.055,55.125Z" style="fill:#a9dbf5;"/>
        </g>
        <g transform="matrix(1,0,0,1,0,8.75)">
            <path d="M271.437,38.257C272.258,38.727 273.324,39.02 274.67,39.114L264.048,55.125L260.248,55.125L271.437,38.257ZM253.707,20.093L230.467,55.125L225.989,55.125L249.665,19.435L253.707,20.093ZM220.528,10.312L223.522,14.287C224.153,15.03 224.564,15.197 225.555,15.468L230.522,16.315L231.551,19.725C232.967,19.158 233.939,18.177 234.83,17.121L237.813,17.634L238.118,19.433L214.44,55.125L190.8,55.125L220.528,10.312ZM208.675,0L209.825,0C211.945,0 213.45,0.726 214.433,2.217L181.67,51.605L181.702,48.912L181.324,52.128L179.335,55.125L172.106,55.125L208.675,0ZM143.462,0L106.893,55.125L103.393,55.125L139.962,0L143.462,0ZM97.915,0L98.323,0C98.925,1.522 99.471,3.095 100.419,4.289C101.829,3.139 102.641,1.557 103.488,0L123.078,0L86.509,55.125L61.346,55.125L97.915,0ZM56.967,12.231L57.58,12.344C59.027,12.57 60.116,13.316 60.43,14.42C60.513,14.712 60.641,14.953 60.823,15.141L34.298,55.125L28.512,55.125L56.967,12.231ZM30.445,19.455L32.208,19.677C32.571,19.721 32.808,19.942 32.956,20.288L34.172,22.645L34.232,19.429C34.234,19.104 34.121,18.809 33.892,18.543L32.582,17.043C32.387,16.762 32.395,16.523 32.607,16.326L35.688,13.112C35.895,12.926 36.144,12.871 36.358,13.043L37.623,14.1L37.709,11.873C37.712,11.578 37.793,11.342 37.989,11.19L39.207,10.463C40.319,9.684 42.488,9.535 44.218,9.876L48.247,10.62L18.723,55.125L15.444,55.125C15.058,54.268 14.909,53.312 14.797,52.341L14.055,55.125L6.783,55.125L30.445,19.455Z" style="fill:#d5edfa;fill-opacity:0.5;"/>
        </g>
        <g transform="matrix(1,0,0,1,0,8.75)">
            <path d="M65.395,15.401L66.295,15.322C66.785,15.249 67.137,15.468 67.395,15.926L67.912,16.93C68.013,17.126 68.176,17.216 68.394,17.211L68.884,17.204C69.17,17.181 69.395,17.28 69.531,17.557L71.85,20.234L71.593,18.062C71.606,17.761 71.495,17.558 71.295,17.426L70.39,16.674L70.09,15.623C69.982,15.191 70.029,15.058 70.534,15.071L71.843,15.023C73.05,14.966 73.881,14.112 74.558,13.053L79.408,4.209C80.782,1.554 83.923,0 86.427,0L91.769,0L92.725,2.103L94.16,0L98.323,0C98.925,1.522 99.471,3.095 100.419,4.289C101.829,3.139 102.641,1.557 103.488,0L157.705,0L158.707,2.097C158.919,2.55 159.231,2.856 159.723,2.897L164.469,2.929C164.834,2.174 165.461,1.762 166.373,1.725C166.929,1.702 167.453,2.416 168.114,2.735L172.339,2.238C173.26,2.177 173.682,1.897 173.996,1.545L174.606,0.88C174.97,0.412 175.393,0.128 175.865,0L176.558,0C177.289,0 177.288,0.277 177.646,0.794L179.277,3.044L181.04,0L209.825,0C211.955,0 213.463,0.732 214.447,2.237L223.522,14.287C224.153,15.03 224.564,15.197 225.555,15.468L230.522,16.315L231.551,19.725C232.967,19.158 233.939,18.177 234.83,17.121L237.813,17.634L238.186,19.837L240.261,17.904L256.97,20.624C258.612,20.857 260.153,21.626 260.833,22.902L264.963,29.037L263.092,31.642L262.938,33.609L257.351,38.454L256.45,39.767L257.754,38.651C259.848,37.585 262.137,36.744 263.79,35.642L264.471,33.698L266.539,31.674L268.373,34.485L267.321,36.75L269.704,36.401C270.489,38.065 272.22,39.053 275.211,39.141L275.358,41.549L277.876,39.815C279.245,40.341 279.977,41.436 280,43.166L280,51.412C280,53.461 278.336,55.125 276.287,55.125L183.044,55.125L181.966,53.22C181.721,52.856 181.638,52.444 181.666,51.998L181.702,48.912L181.292,52.4C181.193,52.764 181.249,53.02 181.347,53.315L181.661,54.527L181.65,55.125L15.444,55.125C15.058,54.268 14.909,53.312 14.797,52.341L14.055,55.125L3.713,55.125C1.664,55.125 -0,53.461 -0,51.412L-0,47.953L2.449,38.788C2.542,38.494 2.701,38.359 3.075,38.281L4.848,37.962C5.163,37.907 5.308,37.76 5.371,37.433L5.537,36.074C5.641,35.38 6.533,34.858 6.502,34.239C6.425,32.684 5.753,31.681 4.914,30.834L6.609,25.572C7.628,23.212 9.299,22.295 11.401,22.329L26.648,22.329L29.049,19.792C29.37,19.448 29.749,19.34 30.176,19.422L32.208,19.677C32.571,19.721 32.808,19.942 32.956,20.288L34.172,22.645L34.232,19.429C34.234,19.104 34.121,18.809 33.892,18.543L32.582,17.043C32.387,16.762 32.395,16.523 32.607,16.326L35.688,13.112C35.895,12.926 36.144,12.871 36.358,13.043L37.623,14.1L37.709,11.873C37.712,11.578 37.793,11.342 37.989,11.19L39.207,10.463C40.319,9.684 42.488,9.535 44.218,9.876L57.58,12.344C59.027,12.57 60.116,13.316 60.43,14.42C60.692,15.341 61.399,15.748 62.823,15.629L64.885,15.447C65.003,15.434 65.357,15.409 65.395,15.401ZM22.189,34.352L22.198,34.339C22.031,33.548 21.678,32.965 21.327,32.381C21.082,31.974 20.524,31.523 20.129,31.187C19.809,30.876 19.692,30.524 19.703,30.146C19.931,29.514 20.14,29.182 20.104,28.39C20.073,27.689 19.96,26.673 20.505,26.31L22.563,25.423C23.237,25.205 25.304,26.468 26.91,26.669C27.821,26.783 28.979,26.471 30.159,26.014C30.588,25.848 31.096,25.977 31.096,25.977C31.371,26.007 31.669,26.284 31.935,26.544C33.222,27.801 33.044,28.392 34.796,27.984C35.386,27.847 36.822,27.601 36.869,26.962C36.982,25.451 37.061,24.371 37.297,23.142L37.649,21.976C37.85,21.402 37.924,21.257 37.69,20.713C37.595,20.491 37.427,20.117 37.428,19.754C37.43,19.398 37.529,19.011 37.565,18.605C37.6,18.222 37.806,18.13 38.209,18.091C38.671,18.045 39.203,17.978 39.368,17.738C39.979,16.845 40.451,15.511 40.614,14.619C40.759,13.828 41.131,13.682 41.465,13.636C41.881,13.578 42.464,13.529 43.165,13.58C44.555,13.681 46.366,14.12 47.292,14.389C48.891,14.854 48.998,15.485 50.953,16.139C54.193,17.224 59.847,18.229 61.902,18.714C63.77,19.154 64.263,19.64 65.228,20.946C66.09,22.114 67.668,21.659 68.431,22.938C69.314,24.42 71.266,26.704 72.845,26.007C73.418,25.754 75.307,25.746 75.827,25.003C76.738,23.7 76.09,21.372 75.732,20.334C75.341,19.2 75.287,18.12 76.434,17.306C77.144,16.802 77.77,16.284 78.197,15.615C78.245,15.541 78.851,14.493 78.895,14.416C79.218,13.849 78.967,13.382 79.628,12.29C81.042,9.953 83.419,7.922 83.685,7.295C83.697,7.266 84,6.577 84.014,6.549C84.702,5.219 85.233,4.906 86.449,4.597C87.37,4.363 88.496,3.511 88.726,3.951C88.995,4.465 89.005,5.951 89.855,6.8C90.962,7.905 93.502,8.281 94.135,7.861C95.71,6.816 96.787,6.033 97.343,6.732C97.997,7.555 99.261,9.323 100.306,9.436C101.351,9.548 102.301,9.157 103.203,7.734C103.786,6.814 104.599,6.188 105.667,5.865C106.538,5.601 107.127,5.85 107.951,5.516C108.795,5.173 109.403,4.704 109.834,4.31C110.361,3.828 110.809,3.8 111.061,3.814C113.271,3.929 114.669,4.094 118.223,3.906C121.669,3.723 123.493,3.014 126.848,2.805C132.711,2.439 140.148,2.434 146.212,2.659C150.531,2.819 153.429,3.496 155.296,5.652C156.005,6.471 164.085,7.394 164.085,7.394C164.316,7.395 165.111,7.479 165.607,7.134C166.592,6.449 168.083,6.694 168.574,6.637L171.97,6.788C173.489,6.673 174.227,4.846 175.916,5.102C175.916,5.102 176.426,5.302 176.694,5.448C178.076,6.198 179.08,7.409 180.409,7.342C181.737,7.274 182.05,6.187 182.676,5.013C183.219,3.993 183.873,2.888 184.584,2.921C184.584,2.921 191.901,2.935 193.606,3.1C199.051,3.626 199.06,3.277 205.653,3.619C207.072,3.693 210.215,4.988 211.32,6.468C213.061,8.799 213.05,8.808 213.05,8.808C213.433,9.261 213.369,9.94 213.781,10.625C214.295,11.48 215.094,11.771 215.66,12.433L218.108,15.647C218.155,15.709 218.203,15.769 218.252,15.827C219.336,17.115 225.948,19.381 226.538,20.034C227.278,20.851 227.519,22.949 228.511,23.427C229.504,23.905 235.926,21.669 236.573,22.11C237.769,22.924 238.74,23.023 240.16,22.201C241.588,21.375 241.651,21.496 241.651,21.496C241.651,21.496 242.697,21.87 244.376,22.072C245.7,22.231 247.266,23.957 248.771,23.958C251.125,23.958 252.769,23.412 253.173,23.932C253.19,23.953 253.921,24.917 255.383,25.54C256.791,26.139 258.903,27.02 258.989,28.13C259.06,29.037 259.231,30.62 259.175,31.336L259.147,31.697C259.073,32.288 254.779,35.055 254.008,35.175C253.678,35.226 253.532,35.644 253.343,35.92L252.441,37.233C251.704,38.307 250.809,40.332 249.04,41.949C248.903,42.074 246.071,44.008 244.571,46.908C243.924,48.159 243.544,50.015 242.778,50.653L242.769,50.661L239.927,52.764C239.381,53.164 238.707,53.272 237.927,53.136C233.722,52.842 229.624,52.565 225.238,52.241C222.697,52.054 220.566,52.401 218.486,52.241L199.768,49.505C198.405,50.639 196.315,52.01 195.201,51.698C193.955,51.349 192.833,51.123 191.558,51.196C188.256,50.605 186.071,50.255 185.63,48.958C185.23,47.782 185.337,46.112 184.132,45.505C183.311,45.091 182.501,45.284 181.262,45.517C179.787,45.795 179.32,45.155 178.536,46.008C177.901,46.698 177.371,47.797 176.677,49.679C176.168,51.056 174.202,52.129 173.289,52.08L164.957,51.509C163.56,51.444 162.466,52.989 161.055,52.903L146.865,52.863L141.346,54.079L129.854,53.6L110.555,51.666L106.085,50.769L102.841,50.75L101.227,51.045L99.723,50.824L96.749,51.005L89.31,52.651L82.199,53.057L79.598,52.609L76.598,52.458L75.018,52.088L71.065,52.122L69.645,51.878L67.33,51.892L55.53,52.82L50.008,51.98L43.953,52.018L37.626,53.682L26.833,53.598C25.928,53.584 26.097,53.018 25.388,53.179C25.105,53.243 24.759,53.317 24.232,53.414C24.054,53.446 23.86,53.477 23.651,53.316C23.56,53.245 23.113,52.972 23.171,51.916C23.228,50.882 22.446,50.506 21.944,49.923C21.073,48.914 20.306,47.949 19.71,47.178C19.377,46.748 19.187,46.608 19.327,46.101C19.921,43.945 20.605,41.64 20.411,40.398C20.404,40.352 20.443,40.078 20.569,39.802C20.681,39.558 20.875,39.316 20.972,39.157C22.271,37.04 22.471,35.414 22.189,34.352ZM15.244,28.682C15.222,29.217 15.323,29.699 15.647,30.088L16.675,31.374C16.953,31.854 17.119,32.335 17.25,32.77C17.25,32.77 17.399,33.572 17.74,35.064C17.919,35.85 18.1,36.822 17.913,38.385C17.805,39.282 17.471,40.098 17.055,41.258C16.662,42.355 16.018,43.538 15.495,46.45C14.66,51.094 12.021,49.714 11.589,50.626C11.27,51.301 10.905,51.837 10.497,52.54C10.329,52.831 10.217,52.997 10.18,53.265C8.134,53.357 5.995,52.333 3.929,51.196C3.145,50.435 3.022,49.205 3.445,47.586L5.145,42.23C5.7,40.879 5.913,40.62 7.489,40.42C8.271,40.321 8.173,39.672 8.384,38.584C8.393,38.54 8.579,37.057 9.074,36.081C9.606,35.029 10.028,34.857 10.007,34.435C9.927,32.829 9.097,31.69 8.806,30.137C8.707,29.605 9.483,27.358 9.59,26.576C9.733,25.538 10.253,25.215 11.096,25.272C11.117,25.273 11.138,25.272 11.16,25.272L14.831,25.506C15.297,25.564 15.37,25.912 15.334,26.343L15.244,28.682ZM249.58,50.817L249.467,49.752L251.31,46.532C251.576,46.403 251.765,46.273 251.848,46.149C252.869,44.62 255.113,42.749 255.343,42.827C256.452,43.2 258.364,42.601 258.915,42.157C260.058,41.236 260.192,41.434 261.638,40.655C263.682,40.892 266.859,40.639 266.859,40.639C268.042,41.119 270.079,42.128 271.56,42.552C271.661,42.936 271.688,43.733 271.941,44.293C272.408,45.324 273.253,46.148 273.982,46.322C274.731,46.501 275.605,45.628 276.417,45.476L276.29,46.908L274.84,48.767L274.863,49.923L274.053,51.495L270.255,52.056L266.738,52.502L263.88,52.451L258.352,51.611L251.886,51.309L249.58,50.817ZM7.324,52.027C7.206,51.997 7.096,51.96 6.986,51.904C6.562,51.685 6.504,51.351 7.007,51.161C7.338,51.036 7.727,51.057 8.043,51.216C8.152,51.271 8.255,51.34 8.351,51.415C8.664,51.659 8.638,51.949 8.275,52.08C7.953,52.196 7.63,52.233 7.324,52.027ZM55.914,51.88C55.489,51.858 54.693,51.444 55.247,50.967C55.641,50.627 56.282,50.63 56.771,50.672C57.004,50.691 57.236,50.732 57.462,50.79C57.865,50.892 58.631,51.196 58.067,51.658C57.985,51.725 57.892,51.78 57.796,51.825C57.345,52.034 56.398,51.917 55.914,51.88ZM52.896,51.67C52.662,51.586 52.859,51.282 52.999,51.216C53.275,51.084 53.918,51.124 54.037,51.491C54.08,51.623 53.948,51.733 53.84,51.774C53.612,51.862 53.127,51.768 52.896,51.67ZM253.433,51.076C253.311,51.068 253.157,50.959 253.108,50.835C252.994,50.541 253.456,50.461 253.644,50.505C253.792,50.54 254.003,50.698 253.855,50.862C253.755,50.972 253.783,51.098 253.433,51.076ZM252.044,50.846C251.989,50.82 251.936,50.793 251.889,50.752C251.711,50.596 251.709,50.355 251.909,50.22C252.092,50.097 252.444,50.026 252.651,50.133C252.712,50.165 252.764,50.21 252.811,50.26C253.238,50.72 252.432,51.106 252.044,50.846ZM195.291,50.412C194.82,50.268 194.296,50.279 193.843,50.085C193.25,49.831 192.773,49.255 193.421,48.762C193.534,48.676 193.658,48.606 193.789,48.551C194.699,48.166 196.062,48.075 197.012,48.364C197.836,48.615 198.572,49.532 197.642,50.192C197.067,50.599 195.936,50.642 195.291,50.412ZM100.05,50.081C99.545,49.809 99.004,49.801 99.538,49.26C99.819,48.977 100.368,48.947 100.74,48.992C101.246,49.052 102.325,49.875 101.619,50.389C101.327,50.601 100.592,50.373 100.05,50.081ZM191.108,50.369C191.016,50.357 190.927,50.341 190.839,50.309C190.536,50.199 190.382,49.943 190.719,49.734C190.954,49.588 191.282,49.534 191.546,49.621C191.722,49.679 192.089,49.817 192.138,50.034C192.234,50.463 191.377,50.466 191.108,50.369ZM102.892,49.443C102.353,49.095 101.463,48.62 102.213,48.121C102.589,47.871 103.178,47.947 103.58,48.092C104.049,48.262 104.524,48.637 104.721,49.109C104.85,49.417 104.788,49.8 104.427,49.897C103.973,50.018 103.328,49.723 102.892,49.443ZM23.323,49.336C23.14,49.256 22.855,48.989 22.711,48.851C22.542,48.69 22.287,48.468 22.259,48.217C22.238,48.031 22.4,47.861 22.539,47.764C22.928,47.49 23.372,47.58 23.777,47.754C24.148,47.913 24.562,48.163 24.737,48.548C25.148,49.449 23.893,49.586 23.323,49.336ZM21.233,47.267C20.987,47.204 20.689,47.122 20.549,46.89C20.311,46.498 20.789,46.092 21.171,46.106C21.479,46.117 21.898,46.276 22.112,46.508C22.365,46.781 22.322,47.097 21.953,47.233C21.853,47.27 21.467,47.326 21.233,47.267ZM23.829,47.097C23.425,46.994 23.51,46.661 23.908,46.717C24.036,46.736 24.204,46.778 24.286,46.888C24.388,47.023 24.153,47.181 23.829,47.097ZM199.239,44.462C198.41,44.206 198.023,43.564 198.87,43.107C199.373,42.836 200.103,42.912 200.633,43.067C201.271,43.254 201.748,44.02 200.99,44.437C200.458,44.729 199.78,44.629 199.239,44.462ZM262.252,43.468C261.759,43.33 260.935,42.96 261.633,42.41C261.733,42.331 261.844,42.268 261.96,42.216C262.474,41.985 263.172,41.947 263.715,42.105C264.306,42.277 265.078,42.992 264.262,43.49C263.807,43.768 262.735,43.622 262.252,43.468ZM266.225,42.511C266.092,42.487 265.731,42.496 265.61,42.433C264.873,42.045 265.677,41.539 266.198,41.555C266.706,41.571 267.431,42.15 266.616,42.427C266.493,42.469 266.356,42.503 266.225,42.511ZM252.999,33.628C252.309,33.461 252.308,32.751 252.724,32.336C253.266,31.797 254.49,31.469 255.199,31.799C255.852,32.103 255.621,32.889 255.17,33.261C254.544,33.778 253.767,33.993 252.999,33.628ZM256.688,31.219C256.145,31.173 255.527,30.658 255.448,30.287C255.394,30.038 255.584,29.825 255.758,29.675C256.17,29.324 256.852,29.231 257.343,29.463C257.484,29.53 257.611,29.627 257.719,29.739C258.463,30.512 257.732,31.307 256.688,31.219ZM13.959,28.712C13.661,28.725 12.853,28.38 13.246,27.979C13.437,27.785 13.811,27.782 14.066,27.793C14.295,27.803 14.596,27.889 14.724,28.101C14.96,28.491 14.396,28.691 13.959,28.712ZM74.301,27.734C73.989,27.562 74.138,27.197 74.421,27.074C74.806,26.908 75.728,27.105 75.812,27.62C75.838,27.78 75.704,27.934 75.579,28.013C75.33,28.17 74.487,28.11 74.301,27.734ZM13.802,27.239C13.305,27.188 13.161,27.013 13.364,26.741C13.494,26.567 13.74,26.481 13.952,26.505C14.137,26.526 14.416,26.622 14.53,26.782C14.824,27.193 14.141,27.273 13.802,27.239ZM76.786,26.836C76.015,26.378 76.986,25.48 77.623,25.628C77.971,25.709 78.065,26.159 77.925,26.441C77.756,26.779 77.478,27.247 76.786,26.836ZM42.609,19.6C42.256,19.554 41.535,19.064 41.968,18.664C42.261,18.393 42.784,18.433 43.142,18.518C43.294,18.553 43.435,18.614 43.571,18.689C43.729,18.776 43.988,18.949 43.981,19.161C43.966,19.573 42.906,19.809 42.609,19.6ZM50.348,18.907C50.161,18.886 49.947,18.872 49.784,18.766C49.508,18.587 49.427,18.157 49.72,17.958C49.945,17.806 50.281,17.77 50.543,17.819C50.792,17.866 51.123,17.996 51.26,18.223C51.583,18.759 50.855,19.025 50.348,18.907ZM42.827,17.105C42.273,16.789 41.772,16.229 42.333,15.651C42.418,15.564 42.519,15.493 42.627,15.436C43.761,14.85 45.755,15.17 46.14,16.582C46.295,17.151 45.92,17.579 45.395,17.753C44.69,17.986 43.691,17.597 42.827,17.105ZM171.224,9.81C171.315,9.068 172.394,8.75 173.015,8.996C173.421,9.157 173.741,9.461 173.631,9.941C173.578,10.174 173.353,10.332 173.145,10.42C172.576,10.662 170.85,10.891 171.224,9.81ZM174.486,8.387C174.557,8.02 174.922,7.836 175.257,7.752C176.001,7.567 176.737,7.796 177.391,8.155C177.675,8.311 178.107,8.689 178.055,9.063C178.004,9.426 177.562,9.623 177.25,9.694C176.526,9.859 174.232,9.705 174.486,8.387ZM128.671,6.717C128.311,6.589 128.39,6.143 128.658,5.947C128.78,5.858 128.929,5.812 129.076,5.788C129.474,5.723 130.412,5.88 130.55,6.375C130.619,6.62 130.369,6.81 130.174,6.9C129.775,7.083 129,7.031 128.671,6.717ZM203.806,5.746C203.695,5.617 203.756,5.411 203.867,5.27C204.135,4.928 204.717,4.895 205.082,5.092C205.465,5.299 205.303,5.691 204.96,5.831C204.839,5.881 204.56,5.97 204.43,5.982C204.059,6.014 203.903,5.86 203.806,5.746ZM131.617,5.099C130.911,4.604 131.304,3.973 131.999,3.706C132.695,3.438 133.875,3.494 134.524,3.895C135.114,4.261 135.15,4.987 134.491,5.287C133.766,5.617 132.365,5.625 131.617,5.099ZM138.964,4.509C138.764,4.345 138.801,4.156 138.935,4.018C139.07,3.88 139.3,3.793 139.486,3.835C140.214,3.996 139.643,5.066 138.964,4.509Z" style="fill:#f5faff;"/>
        </g>
    </g>
</svg>
