<?xml version="1.0" encoding="UTF-8" standalone="no"?>
<!DOCTYPE svg PUBLIC "-//W3C//DTD SVG 1.1//EN" "http://www.w3.org/Graphics/SVG/1.1/DTD/svg11.dtd">
<svg width="100%" height="100%" viewBox="0 0 280 62" version="1.1" xmlns="http://www.w3.org/2000/svg" xmlns:xlink="http://www.w3.org/1999/xlink" xml:space="preserve" xmlns:serif="http://www.serif.com/" style="fill-rule:evenodd;clip-rule:evenodd;stroke-linecap:round;stroke-linejoin:round;">
    <g id="banner_29" transform="matrix(1,0,0,1,0,-8.7)">
        <path d="M280,47.751L-0,47.751L-0,65.286C-0,67.888 2.112,70 4.714,70L275.286,70C277.888,70 280,67.888 280,65.286L280,47.751Z" style="fill:#e07827;"/>
        <g transform="matrix(-0.893232,-1.09389e-16,8.74808e-17,-0.714335,285.834,65.8968)">
            <path d="M320,8.028C320,5.159 318.138,2.83 315.844,2.83L10.688,2.83C8.394,2.83 6.532,5.159 6.532,8.028L6.532,74.803C6.532,77.671 8.394,80 10.688,80L315.844,80C318.138,80 320,77.671 320,74.803L320,8.028Z" style="fill:#09c8ff;"/>
        </g>
        <g>
            <path d="M271.845,63.875L280,57.531C278.989,57.447 277.91,57.491 277.024,57.434C276.063,57.372 275.101,57.322 274.14,57.27C274.14,57.267 274.141,57.263 274.142,57.26C274.146,57.237 274.145,57.219 274.143,57.197C274.141,57.156 274.134,57.118 274.123,57.078C274.03,56.739 273.843,56.434 273.667,56.127C273.09,55.119 272.272,54.221 271.496,53.327C271.496,53.324 271.495,53.319 271.495,53.316C271.503,53.235 271.519,53.156 271.535,53.078C271.626,52.649 271.841,52.269 272.08,51.896C272.353,51.469 272.654,51.053 272.877,50.614C273.02,50.334 273.132,50.044 273.192,49.739C273.25,49.399 273.26,49.054 273.23,48.707C273.198,48.325 273.138,47.943 273.067,47.57C273.05,47.478 273.026,47.39 273.008,47.3C272.977,47.143 272.939,46.99 272.918,46.831C272.897,46.674 272.892,46.516 272.883,46.358C272.85,45.771 272.857,45.18 272.914,44.597C272.92,44.538 272.936,44.48 272.932,44.422C272.926,44.317 272.888,44.242 272.866,44.14C272.868,44.13 272.862,44.121 272.852,44.119C272.842,44.117 272.832,44.123 272.83,44.133C272.77,44.228 272.708,44.295 272.668,44.4C272.588,44.612 272.589,44.847 272.563,45.073C272.491,45.673 272.506,46.281 272.487,46.884C272.482,47.038 272.465,47.187 272.456,47.339C272.45,47.436 272.444,47.531 272.444,47.629C272.445,47.995 272.477,48.365 272.473,48.734C272.469,49.017 272.447,49.296 272.379,49.568C272.274,50.042 271.997,50.457 271.715,50.877C271.391,51.358 271.049,51.839 270.849,52.371C270.832,52.415 270.817,52.459 270.802,52.504C270.608,52.262 270.423,52.018 270.252,51.77C269.894,51.251 269.572,50.707 269.265,50.152C268.536,48.837 267.903,47.455 267.205,46.137C267.096,45.936 266.981,45.74 266.858,45.549C266.386,44.818 265.826,44.146 265.406,43.382C265.264,43.132 265.133,42.872 265.026,42.6C264.864,42.186 264.746,41.752 264.617,41.328C264.6,41.272 264.594,41.212 264.565,41.161C264.551,41.134 264.533,41.12 264.512,41.098C264.426,41.008 264.367,40.962 264.276,40.88C264.272,40.868 264.259,40.861 264.247,40.865C264.236,40.869 264.229,40.881 264.233,40.893C264.201,41.037 264.143,41.118 264.147,41.267C264.149,41.34 264.188,41.408 264.208,41.479C264.333,41.907 264.468,42.338 264.609,42.763C264.706,43.056 264.804,43.347 264.928,43.624C265.021,43.831 265.123,44.032 265.233,44.23C265.656,44.987 266.175,45.689 266.553,46.473C266.781,46.929 266.999,47.393 267.216,47.86C267.174,47.835 267.132,47.811 267.089,47.787C266.922,47.695 266.752,47.608 266.579,47.534C266.403,47.46 266.226,47.4 266.052,47.34C265.49,47.159 264.95,47.032 264.397,46.907C264.162,46.853 263.928,46.787 263.687,46.743C263.529,46.714 263.368,46.646 263.206,46.669C263.152,46.677 263.127,46.703 263.077,46.725C263.044,46.721 263.014,46.745 263.01,46.778C263.006,46.811 263.03,46.841 263.063,46.845C263.101,46.877 263.113,46.904 263.157,46.926C263.17,46.932 263.186,46.932 263.2,46.935C263.646,47.016 264.075,47.096 264.481,47.251C264.937,47.425 265.353,47.672 265.793,47.925C265.941,48.006 266.086,48.095 266.238,48.18C266.454,48.301 266.675,48.422 266.886,48.556C267.116,48.701 267.337,48.856 267.533,49.032C267.687,49.157 267.835,49.314 267.981,49.481C268.029,49.581 268.079,49.68 268.128,49.78C268.085,49.805 268.056,49.814 268.038,49.812C268.1,49.559 267.951,49.802 268.038,49.812L268.026,49.856C268.024,49.865 268.034,49.874 268.038,49.883C268.11,50.04 268.189,50.194 268.268,50.349C269.046,51.871 269.96,53.336 270.67,54.889C270.779,55.125 270.885,55.366 270.982,55.612C271.078,55.852 271.164,56.097 271.233,56.342C271.305,56.596 271.351,56.856 271.424,57.109C271.264,57.098 271.104,57.086 270.945,57.075C269.605,56.976 268.268,56.845 266.936,56.648C265.39,56.418 263.76,56.18 262.181,55.809C261.137,55.564 260.115,55.261 259.154,54.862C258.495,54.589 257.868,54.262 257.251,53.918C257.238,53.836 257.198,53.759 257.176,53.678C256.823,52.343 256.865,50.933 256.36,49.611C256.176,49.131 255.953,48.665 255.713,48.206C255.45,47.704 255.166,47.212 254.89,46.719C254.819,46.493 254.767,46.261 254.755,46.022C254.731,45.64 254.775,45.261 254.859,44.888C254.944,44.511 255.071,44.139 255.231,43.774C255.335,43.538 255.451,43.306 255.573,43.075C255.759,42.722 255.94,42.368 256.165,42.043C256.424,41.668 256.721,41.33 256.999,41.005C257.072,40.919 257.144,40.834 257.216,40.752C257.222,40.744 257.235,40.739 257.235,40.729L257.236,40.719L257.234,40.718C257.219,40.708 257.196,40.691 257.188,40.675C257.182,40.664 257.205,40.647 257.186,40.629C257.167,40.611 257.152,40.635 257.14,40.631C257.123,40.624 257.105,40.602 257.094,40.588L257.093,40.587L257.082,40.588C257.072,40.588 257.068,40.602 257.061,40.609C256.984,40.688 256.905,40.768 256.827,40.851C256.529,41.165 256.238,41.515 255.936,41.866C255.668,42.175 255.387,42.477 255.148,42.813C254.985,43.04 254.842,43.278 254.711,43.521C254.501,43.91 254.333,44.315 254.221,44.73C254.175,44.902 254.14,45.075 254.115,45.25C254.004,45.024 253.897,44.796 253.792,44.567C253.533,44.001 253.293,43.426 253.071,42.848C252.937,42.501 252.811,42.152 252.697,41.799C252.585,41.45 252.484,41.097 252.401,40.739C252.269,40.168 252.158,39.574 251.945,39.029C251.81,38.681 251.635,38.353 251.395,38.057C251.116,36.812 250.968,35.569 250.966,34.323C250.965,33.867 250.995,33.412 251.015,32.955C251.031,32.586 251.021,32.22 251.059,31.85C251.068,31.759 251.081,31.668 251.096,31.577C251.159,31.19 251.251,30.806 251.348,30.419C251.377,30.306 251.431,30.196 251.435,30.079C251.435,30.067 251.435,30.059 251.429,30.049C251.36,29.933 251.411,30.035 251.306,29.948C251.312,29.931 251.302,29.912 251.284,29.907C251.267,29.902 251.248,29.912 251.243,29.929C251.108,29.944 251.207,29.887 251.085,29.947C251.075,29.952 251.07,29.959 251.064,29.969C251.002,30.072 250.99,30.198 250.957,30.313C250.843,30.706 250.756,31.102 250.67,31.496C250.65,31.588 250.63,31.681 250.608,31.773C250.517,32.148 250.41,32.512 250.353,32.89C250.281,33.364 250.264,33.842 250.257,34.319C250.242,35.313 250.325,36.309 250.5,37.303C250.205,37.124 249.889,36.973 249.584,36.814L247.028,35.531C246.441,35.243 245.834,34.939 245.225,34.618C244.345,34.156 243.462,33.657 242.648,33.08C242.376,32.888 242.114,32.685 241.857,32.479C241.243,31.99 240.672,31.47 240.196,30.867C240.057,30.679 239.932,30.479 239.816,30.273C239.57,29.835 239.459,29.322 239.191,28.905C239.154,28.847 239.108,28.821 239.06,28.772C239.053,28.751 239.03,28.74 239.009,28.747C238.988,28.754 238.977,28.777 238.984,28.798C238.976,28.875 238.955,28.933 238.965,29.011C238.994,29.268 239.134,29.503 239.232,29.747C239.418,30.21 239.639,30.659 239.913,31.066C240.34,31.749 240.86,32.375 241.46,32.937C241.712,33.173 241.982,33.392 242.257,33.607C243.07,34.24 243.955,34.801 244.847,35.308C245.454,35.653 246.065,35.969 246.652,36.275L248.652,37.289C248.742,37.428 248.834,37.566 248.941,37.7C248.964,37.728 248.992,37.753 249.018,37.779C249.276,38.04 249.525,38.304 249.75,38.593C249.937,38.833 250.108,39.087 250.26,39.362C250.471,39.746 250.625,40.158 250.752,40.583C251.062,41.62 251.218,42.731 251.594,43.731C252.156,45.223 252.936,46.688 253.511,48.203C253.752,48.838 253.956,49.482 254.091,50.142C254.157,50.469 254.189,50.797 254.202,51.125C254.217,51.503 254.208,51.881 254.196,52.261C253.715,52.039 253.22,51.842 252.701,51.681C252.122,51.502 251.533,51.378 250.938,51.286C248.673,50.939 246.315,51.093 244.08,50.406C243.035,50.085 242.152,49.543 241.338,48.906C239.31,47.32 237.683,45.173 235.247,44.089C234.131,43.592 232.933,43.413 231.723,43.29C230.577,43.175 229.419,43.111 228.32,42.84C227.435,42.622 226.588,42.267 225.82,41.624C224.994,40.932 224.443,40.025 223.948,39.071C223.427,38.069 222.968,37.015 222.359,36.074C222.292,35.972 222.225,35.871 222.155,35.772L222.06,35.47C221.886,35.027 221.657,34.608 221.491,34.161C221.347,33.776 221.221,33.378 221.108,32.976C220.935,32.365 220.789,31.743 220.65,31.133C220.543,30.666 220.401,30.152 220.357,29.645C220.331,29.342 220.339,29.043 220.425,28.761C220.602,28.128 221.01,27.611 221.446,27.113C221.938,26.55 222.468,26.013 222.812,25.391C223.001,25.048 223.137,24.683 223.189,24.279C223.213,23.964 223.202,23.634 223.168,23.294C223.138,23.003 223.087,22.709 223.048,22.414C222.989,21.967 222.948,21.522 222.924,21.117C222.859,19.914 222.821,18.714 222.806,17.513C222.799,16.999 222.792,16.485 222.798,15.969C222.8,15.855 222.815,15.74 222.802,15.626C222.793,15.543 222.764,15.475 222.744,15.393C222.746,15.373 222.73,15.356 222.711,15.355C222.691,15.354 222.674,15.369 222.673,15.389C222.645,15.46 222.612,15.518 222.594,15.592C222.583,15.637 222.584,15.684 222.58,15.73C222.539,16.19 222.512,16.65 222.501,17.11C222.469,18.451 222.543,19.79 222.614,21.134C222.633,21.543 222.698,21.99 222.724,22.445C222.735,22.63 222.733,22.816 222.731,23.001C222.726,23.416 222.691,23.818 222.603,24.187C222.56,24.421 222.48,24.636 222.377,24.839C222.253,24.375 222.014,23.947 221.764,23.535C221.395,22.928 220.938,22.354 220.446,21.809C220.162,21.495 219.856,21.205 219.583,20.886C219.173,20.407 218.815,19.899 218.563,19.341C218.364,18.845 218.374,18.361 218.37,17.844C218.37,17.803 218.391,17.755 218.368,17.721C218.31,17.633 218.347,17.711 218.25,17.667C218.251,17.657 218.243,17.65 218.233,17.649C218.223,17.649 218.216,17.657 218.215,17.667C218.098,17.708 218.171,17.609 218.097,17.708C218.092,17.715 218.097,17.726 218.096,17.736C218.089,17.953 218.084,18.164 218.09,18.373C218.1,18.735 218.146,19.089 218.286,19.45C218.461,19.962 218.727,20.436 219.02,20.905C219.302,21.356 219.596,21.806 219.92,22.24C220.336,22.799 220.774,23.337 221.108,23.922C221.385,24.405 221.538,24.926 221.68,25.477C221.694,25.532 221.71,25.585 221.739,25.635C221.754,25.661 221.769,25.675 221.785,25.689C221.511,26.007 221.202,26.309 220.906,26.62C220.367,27.185 219.873,27.782 219.629,28.518C219.512,28.9 219.49,29.306 219.526,29.716C219.573,30.263 219.721,30.818 219.837,31.32C219.982,31.943 220.132,32.579 220.311,33.203C220.405,33.531 220.507,33.856 220.62,34.174C220.495,34.083 220.365,33.995 220.229,33.912C219.84,33.673 219.411,33.507 218.965,33.378C218.35,33.2 217.703,33.096 217.102,32.949C216.008,32.682 214.892,32.419 213.802,32.087C213.085,31.868 212.38,31.621 211.701,31.318C210.751,30.896 209.942,30.302 209.195,29.631C207.817,28.393 206.642,26.9 205.242,25.665C204.87,25.236 204.481,24.816 204.084,24.401C203.655,23.951 203.216,23.507 202.781,23.062C202.596,22.872 202.41,22.682 202.225,22.493C201.601,21.858 201.005,21.212 200.46,20.529C200.176,20.171 199.886,19.824 199.651,19.434C199.303,18.856 199.057,18.221 198.851,17.557C198.832,17.497 198.822,17.433 198.795,17.376C198.764,17.312 198.722,17.268 198.682,17.208C198.682,17.207 198.681,17.206 198.68,17.207C198.678,17.207 198.677,17.208 198.678,17.21C198.67,17.286 198.653,17.35 198.66,17.425C198.669,17.528 198.712,17.624 198.741,17.723C198.919,18.324 199.175,18.882 199.441,19.431C199.685,19.934 199.928,20.433 200.23,20.906C200.43,21.218 200.648,21.519 200.875,21.816C201.311,22.384 201.779,22.933 202.274,23.462C202.489,23.692 202.71,23.918 202.932,24.142C202.9,24.127 202.868,24.113 202.835,24.099C202.511,23.956 202.192,23.818 201.868,23.7C201.624,23.611 201.381,23.525 201.134,23.451C200.764,23.341 200.389,23.26 200.016,23.162C199.116,22.928 198.212,22.678 197.289,22.334C196.506,22.042 195.764,21.642 195.053,21.192C194.336,20.739 193.65,20.237 193.015,19.69C193.008,19.684 192.999,19.685 192.993,19.691C192.987,19.697 192.988,19.707 192.994,19.712C193.592,20.31 194.233,20.882 194.932,21.373C195.635,21.868 196.395,22.277 197.188,22.595C198.11,22.965 199.026,23.207 199.917,23.499C200.279,23.617 200.63,23.755 200.986,23.889C201.22,23.977 201.455,24.064 201.687,24.162C201.99,24.289 202.294,24.425 202.588,24.592C202.796,24.709 202.996,24.842 203.196,24.986C203.197,24.994 203.199,25.003 203.202,25.014C203.205,25.027 203.221,25.033 203.23,25.042C203.324,25.136 203.417,25.23 203.511,25.323C204.141,25.951 204.761,26.585 205.352,27.247C205.741,27.683 206.119,28.127 206.465,28.601C207.165,29.548 207.827,30.61 208.598,31.557C209.135,32.218 209.727,32.821 210.408,33.304C210.904,33.653 211.434,33.933 211.986,34.17C213.043,34.625 214.179,34.92 215.294,35.262C216.359,35.589 217.405,35.958 218.331,36.58C218.744,36.856 219.109,37.212 219.439,37.611C219.872,38.134 220.234,38.737 220.579,39.331C220.59,39.35 220.601,39.369 220.612,39.388L220.61,39.387C220.588,39.386 220.57,39.391 220.548,39.398C220.386,39.455 220.251,39.573 220.107,39.667C219.772,39.884 219.448,40.118 219.067,40.266C218.696,40.413 218.287,40.51 217.862,40.573C217.365,40.646 216.846,40.674 216.339,40.679C216.175,40.67 216.011,40.658 215.847,40.646C214.213,40.523 212.595,40.278 210.957,40.119C210.16,40.043 209.358,40.002 208.557,39.95C207.366,39.873 206.176,39.773 204.995,39.615C204.8,39.589 204.604,39.562 204.408,39.533C204.397,39.531 204.384,39.522 204.373,39.528C204.36,39.535 204.373,39.526 204.367,39.54L204.351,39.577C204.35,39.587 204.34,39.624 204.312,39.708C204.287,39.704 204.264,39.721 204.26,39.746C204.256,39.77 204.272,39.794 204.297,39.798C204.295,39.883 204.293,39.921 204.291,39.933L204.294,39.975C204.295,39.99 204.286,39.978 204.296,39.989C204.304,39.997 204.32,39.993 204.332,39.995C204.53,40.031 204.729,40.064 204.929,40.093C206.117,40.266 207.321,40.333 208.521,40.433C209.314,40.5 210.105,40.583 210.892,40.688C212.293,40.876 213.677,41.133 215.073,41.31C215.135,41.318 215.197,41.326 215.26,41.334C214.917,41.485 214.596,41.688 214.306,41.983C213.853,42.414 213.469,42.986 213.176,43.609C212.954,44.083 212.788,44.581 212.626,45.039C212.617,45.063 212.606,45.085 212.601,45.11C212.576,45.221 212.58,45.318 212.568,45.426C212.556,45.454 212.568,45.487 212.596,45.5C212.623,45.512 212.656,45.5 212.669,45.472C212.746,45.388 212.823,45.321 212.892,45.223C212.933,45.166 212.96,45.1 212.994,45.037C213.187,44.681 213.399,44.311 213.612,43.938C213.75,43.699 213.883,43.458 214.033,43.234C214.236,42.929 214.459,42.65 214.712,42.423C215.009,42.175 215.332,42.035 215.67,41.94C215.885,41.879 216.108,41.845 216.334,41.811C216.684,41.758 217.044,41.717 217.409,41.668C217.739,41.621 218.073,41.568 218.407,41.515C218.828,41.499 219.257,41.461 219.685,41.405C220.269,41.329 220.849,41.22 221.402,41.105C221.424,41.101 221.446,41.096 221.469,41.091C221.547,41.259 221.626,41.426 221.705,41.593C221.922,42.048 222.135,42.506 222.404,42.927C222.595,43.226 222.813,43.506 223.075,43.758C223.319,43.991 223.593,44.186 223.882,44.358C224.288,44.599 224.726,44.792 225.152,44.983C225.77,45.261 226.406,45.478 227.049,45.667C228.501,46.093 229.995,46.372 231.416,46.912C231.981,47.127 232.494,47.473 232.977,47.871C233.741,48.501 234.429,49.262 235.109,49.897C235.613,50.367 236.224,50.923 236.688,51.55C236.976,51.939 237.209,52.355 237.307,52.798C237.373,53.095 237.363,53.401 237.329,53.704C237.314,53.841 237.294,53.977 237.273,54.113C237.271,54.129 237.265,54.146 237.268,54.162C237.275,54.199 237.297,54.199 237.31,54.234C237.321,54.264 237.325,54.29 237.329,54.317C237.155,54.501 236.979,54.684 236.8,54.865C236.363,55.306 235.91,55.729 235.454,56.141C234.99,56.56 234.526,56.968 234.043,57.34C233.46,57.813 232.828,58.205 232.152,58.522C231.464,58.844 230.737,59.089 230.027,59.355C229.281,59.628 228.543,59.916 227.805,60.207L226.981,60.536C226.972,60.54 226.958,60.538 226.954,60.547L226.952,60.551L226.957,60.565C226.959,60.57 226.98,60.632 226.981,60.636C226.981,60.643 226.966,60.642 226.961,60.647C226.944,60.662 226.937,60.687 226.945,60.709C226.952,60.73 226.972,60.746 226.995,60.748C227.003,60.748 227.013,60.739 227.018,60.745C227.023,60.751 227.039,60.8 227.042,60.809L227.046,60.826L227.054,60.83C227.072,60.838 227.092,60.819 227.111,60.813C227.303,60.755 227.494,60.7 227.682,60.635C228.516,60.352 229.327,60.012 230.157,59.717C230.764,59.503 231.372,59.281 231.977,59.057C232.387,58.905 232.796,58.757 233.195,58.58C233.63,58.387 234.05,58.168 234.454,57.911C234.603,57.811 234.751,57.709 234.898,57.605C234.857,57.728 234.824,57.853 234.8,57.978C234.72,58.41 234.716,58.869 234.746,59.335C234.785,59.932 234.875,60.538 234.968,61.089C234.976,61.134 234.965,61.187 234.991,61.223C235.027,61.272 235.029,61.242 235.083,61.27C235.087,61.305 235.12,61.329 235.154,61.324C235.189,61.32 235.214,61.288 235.209,61.253C235.254,61.213 235.263,61.241 235.285,61.184C235.302,61.142 235.277,61.094 235.273,61.049C235.219,60.505 235.151,59.91 235.166,59.327C235.177,58.905 235.237,58.493 235.354,58.115C235.433,57.848 235.567,57.596 235.724,57.349C235.877,57.106 236.057,56.87 236.253,56.643C236.572,56.273 236.945,55.941 237.28,55.61C237.37,55.521 237.46,55.435 237.534,55.337C237.555,55.309 237.576,55.282 237.595,55.255C237.762,55.084 237.927,54.911 238.09,54.736C238.098,54.773 238.104,54.79 238.235,54.824C238.284,54.836 238.331,54.797 238.38,54.784C238.89,54.647 239.425,54.556 239.959,54.527C240.308,54.507 240.657,54.514 240.998,54.561C241.227,54.59 241.452,54.633 241.677,54.684C242.23,54.809 242.773,54.98 243.326,55.106C243.802,55.214 244.28,55.315 244.759,55.411C245.473,55.555 246.188,55.689 246.903,55.827L251.491,56.704C252.112,56.823 252.752,56.927 253.372,57.093C253.766,57.198 254.151,57.329 254.517,57.508C255.747,58.11 256.761,59.078 257.897,59.842C258.418,60.191 258.962,60.5 259.557,60.723C260.572,61.104 261.628,61.312 262.7,61.428C262.751,61.454 262.827,61.441 262.886,61.456C263.642,61.644 264.378,61.914 265.138,62.094C265.744,62.231 266.359,62.331 266.969,62.453C267.221,62.503 267.473,62.557 267.723,62.622C269.004,62.944 270.27,63.329 271.519,63.761C271.628,63.799 271.736,63.837 271.845,63.875Z" style="fill:#313131;"/>
            <path d="M50.275,27.102C50.662,27.005 51.04,26.87 51.409,26.696C52.731,26.073 53.969,25.089 55.322,24.667C55.941,24.489 56.576,24.386 57.22,24.327C58.087,24.247 58.967,24.248 59.839,24.197C60.413,24.164 60.982,24.107 61.541,24.003C62.232,23.863 62.935,23.654 63.637,23.4C65.087,22.876 66.527,22.16 67.86,21.522C67.953,21.477 68.038,21.405 68.14,21.389C68.237,21.374 68.288,21.408 68.385,21.42C68.408,21.409 68.437,21.419 68.449,21.443C68.461,21.467 68.451,21.496 68.427,21.507C68.382,21.587 68.383,21.639 68.317,21.704C68.274,21.747 68.21,21.763 68.155,21.791C67.21,22.277 66.184,22.761 65.147,23.21C63.979,23.716 62.785,24.154 61.624,24.4C61.053,24.532 60.469,24.609 59.881,24.677L59.698,24.706C59.412,24.763 59.119,24.773 58.832,24.826C58.334,24.913 57.835,25.021 57.35,25.168C56.872,25.312 56.407,25.495 55.969,25.741C55.606,25.942 55.23,26.152 54.866,26.376C54.627,26.524 54.392,26.678 54.171,26.841C53.525,27.321 52.917,27.857 52.219,28.185C52.17,28.208 52.12,28.23 52.071,28.251C52.526,28.417 52.979,28.587 53.433,28.756C54.53,29.168 55.684,29.498 56.832,29.852C57.58,30.082 58.325,30.322 59.052,30.595C59.154,30.587 59.252,30.589 59.354,30.597C59.396,30.6 59.438,30.609 59.481,30.616C60.592,30.795 61.708,30.937 62.84,30.881C64.002,30.851 65.219,30.658 66.411,30.628C66.945,30.615 67.473,30.636 67.988,30.708C68.455,30.762 68.915,30.887 69.371,31.039C70.027,31.257 70.674,31.533 71.31,31.747C72.4,32.116 73.526,32.326 74.669,32.438C74.758,32.447 74.858,32.423 74.936,32.467C75.017,32.513 74.987,32.537 75.044,32.611C75.07,32.612 75.091,32.635 75.089,32.661C75.088,32.687 75.066,32.708 75.039,32.706C74.972,32.778 74.998,32.808 74.907,32.844C74.897,32.848 74.886,32.843 74.876,32.843C74.403,32.822 73.933,32.778 73.467,32.709C72.689,32.593 71.923,32.408 71.172,32.163C70.433,31.92 69.68,31.584 68.91,31.372C68.589,31.284 68.265,31.221 67.938,31.193C67.447,31.162 66.949,31.188 66.445,31.232C65.254,31.337 64.041,31.572 62.879,31.658C62.365,31.685 61.854,31.677 61.345,31.643C61.396,31.671 61.446,31.7 61.497,31.729C62.241,32.163 62.947,32.672 63.631,33.222C65.187,34.475 66.631,35.927 68.218,37.083C68.234,37.094 68.238,37.116 68.227,37.132C68.216,37.149 68.194,37.153 68.177,37.142C66.522,36.089 64.986,34.739 63.36,33.579C62.667,33.084 61.959,32.624 61.216,32.241C61.09,32.176 60.964,32.113 60.836,32.052C60.753,32.021 60.672,31.975 60.588,31.948C60.311,31.86 60.031,31.781 59.75,31.7C58.617,31.373 57.459,31.096 56.333,30.787C55.654,30.6 55.001,30.346 54.327,30.155C54.051,30.077 53.772,30.01 53.485,29.963C53.177,29.913 52.865,29.879 52.552,29.852C51.802,29.788 51.044,29.767 50.3,29.681C49.35,29.571 48.389,29.385 47.429,29.267C47.026,29.217 46.623,29.178 46.22,29.164C45.518,29.137 44.803,29.178 44.09,29.258C43.424,29.332 42.761,29.442 42.108,29.574C41.912,29.667 41.715,29.756 41.518,29.838C40.548,30.244 39.523,30.518 38.476,30.729C36.951,31.036 35.382,31.207 33.884,31.468C31.152,31.944 28.454,32.571 25.733,33.083C25.446,33.137 25.159,33.194 24.87,33.234C24.676,33.261 24.483,33.289 24.287,33.295C24.145,33.3 24.01,33.291 23.873,33.281C22.156,33.862 20.432,34.403 18.688,34.857C16.661,35.384 14.605,35.787 12.5,35.991C10.035,36.221 7.55,35.999 5.084,36.086C4.478,36.107 3.874,36.147 3.271,36.217C2.785,36.275 2.306,36.386 1.832,36.521C1.216,36.696 0.607,36.909 0,37.098L0,29.712C1.225,29.857 2.449,30.014 3.674,30.156L4.324,29.801C5.172,29.333 5.989,28.837 6.779,28.303C7.676,27.697 8.543,27.049 9.4,26.375C9.968,25.929 10.534,25.474 11.098,25.008C11.545,24.645 12.003,24.294 12.469,23.953C12.667,23.809 12.871,23.677 13.064,23.528C13.488,23.201 13.883,22.84 14.249,22.447C14.986,21.636 15.562,20.698 16.201,19.81C16.252,19.74 16.277,19.64 16.354,19.601C16.452,19.552 16.435,19.601 16.544,19.602C16.549,19.595 16.558,19.594 16.565,19.599C16.571,19.603 16.572,19.612 16.568,19.619C16.602,19.722 16.644,19.69 16.629,19.798C16.617,19.882 16.533,19.938 16.485,20.009C15.862,20.927 15.294,21.888 14.565,22.728C14.249,23.1 13.895,23.435 13.54,23.769C13.389,23.912 13.244,24.059 13.089,24.198C12.849,24.413 12.602,24.621 12.356,24.829C12.354,24.833 12.351,24.836 12.349,24.839C12.314,24.888 12.268,24.928 12.227,24.972C11.704,25.527 11.187,26.11 10.669,26.703C10.154,27.293 9.636,27.888 9.096,28.455C9.009,28.547 8.922,28.637 8.833,28.727C8.883,28.7 8.933,28.673 8.983,28.647C10.085,28.059 11.196,27.519 12.335,27.042C12.765,26.862 13.199,26.694 13.639,26.536C14.647,26.175 15.676,25.679 16.798,25.71C16.992,25.715 17.143,25.782 17.335,25.829L16.905,26.066C16.885,26.076 16.869,26.086 16.848,26.093C16.771,26.118 16.689,26.125 16.61,26.14C15.591,26.34 14.621,26.606 13.698,26.98C12.212,27.58 10.85,28.414 9.454,29.227C8.721,29.654 7.987,30.091 7.228,30.497C7.35,30.506 7.472,30.514 7.594,30.523C7.759,30.534 7.926,30.535 8.09,30.559C8.163,30.57 8.232,30.584 8.301,30.607C8.306,30.609 8.31,30.61 8.314,30.612C10.874,30.654 13.496,30.455 16.004,30.07C16.963,29.924 17.912,29.715 18.867,29.539C19.562,29.241 20.219,28.875 20.889,28.515C21.427,28.228 21.991,27.932 22.516,27.587C22.855,27.364 23.177,27.121 23.463,26.842C23.629,26.681 23.777,26.503 23.919,26.32C24.145,26.027 24.353,25.719 24.577,25.428C24.876,25.04 25.185,24.656 25.507,24.283C25.832,23.907 26.171,23.543 26.527,23.2C27.267,22.489 28.11,21.794 28.888,21.05C29.329,20.629 29.751,20.196 30.108,19.717C30.328,19.156 30.436,18.566 30.545,17.976C30.64,17.456 30.735,16.937 30.881,16.432C31.042,15.873 31.266,15.334 31.618,14.833C31.781,14.603 31.966,14.389 32.16,14.181C32.589,13.722 33.071,13.299 33.501,12.854C34.3,12.002 35.059,11.142 35.825,10.275C35.891,10.201 35.956,10.126 36.026,10.056C36.312,9.772 36.613,9.52 36.907,9.237C36.922,9.217 36.95,9.213 36.97,9.228C36.99,9.243 36.994,9.272 36.979,9.292C36.779,9.651 36.598,10.003 36.371,10.341C36.314,10.424 36.252,10.503 36.189,10.581C35.463,11.492 34.662,12.329 33.861,13.191C33.506,13.582 33.105,13.951 32.745,14.352C32.516,14.609 32.308,14.88 32.132,15.17C31.949,15.472 31.82,15.787 31.718,16.108C31.545,16.652 31.466,17.216 31.38,17.781C31.264,18.544 31.139,19.306 30.86,20.029C31.462,19.528 32.078,19.043 32.67,18.535C33.196,18.104 33.673,17.585 34.221,17.169C34.471,16.979 34.735,16.814 35.017,16.677C35.279,16.546 35.551,16.45 35.825,16.356C36.435,16.147 37.064,15.985 37.67,15.758C38.641,15.395 39.494,14.921 40.352,14.356C40.427,14.306 40.503,14.257 40.578,14.207C40.586,14.202 40.592,14.191 40.601,14.192C40.783,14.2 40.575,14.171 40.717,14.287C40.739,14.271 40.77,14.276 40.786,14.299C40.802,14.321 40.797,14.352 40.774,14.368C40.834,14.541 40.878,14.336 40.823,14.51C40.813,14.541 40.771,14.548 40.744,14.567C40.399,14.813 40.053,15.04 39.699,15.249C39.104,15.6 38.487,15.899 37.819,16.153C37.215,16.384 36.575,16.52 35.979,16.765C35.734,16.865 35.502,16.992 35.277,17.137C35.044,17.289 34.837,17.473 34.631,17.661C34.125,18.123 33.664,18.648 33.164,19.105C32.061,20.069 30.891,20.971 29.855,22.009C29.799,22.066 29.747,22.128 29.687,22.18C29.625,22.234 29.56,22.28 29.492,22.326C29.448,22.355 29.406,22.379 29.363,22.402C28.497,23.433 27.503,24.348 26.713,25.465C26.503,25.761 26.342,26.081 26.204,26.411C25.851,27.247 25.629,28.145 25.195,28.949C26.113,28.89 27.032,28.828 27.95,28.754C28.929,28.675 29.908,28.583 30.887,28.464C31.829,28.349 32.813,28.253 33.773,28.079C34.401,27.965 35.018,27.817 35.606,27.605C36.556,27.264 37.472,26.815 38.367,26.318C39.727,25.565 41.04,24.7 42.34,23.907C43.315,23.314 44.308,22.744 45.315,22.197C45.892,21.883 46.473,21.577 47.055,21.272C47.454,20.935 47.859,20.607 48.274,20.294C49.003,19.744 49.763,19.236 50.575,18.797C50.983,18.577 51.404,18.382 51.831,18.2C52.794,17.788 53.791,17.441 54.735,16.993C56.644,16.09 58.499,15.081 60.401,14.167C61.223,13.773 62.054,13.396 62.901,13.052C66.83,11.464 70.932,10.234 74.961,8.909C75.122,8.856 75.284,8.803 75.445,8.75L82.192,8.75C82.106,8.791 82.02,8.832 81.933,8.871C81.874,8.898 81.815,8.924 81.754,8.946C81.513,9.035 81.264,9.102 81.018,9.178C77.963,10.121 74.874,10.939 71.869,12.066C70.418,12.6 68.976,13.196 67.542,13.824C68.877,13.716 70.22,13.751 71.611,14.034C72.161,14.147 72.707,14.29 73.248,14.452C74.049,14.692 74.84,14.974 75.619,15.259C76.113,15.441 76.629,15.664 77.155,15.819C77.48,15.914 77.809,15.985 78.139,15.994C78.342,16.001 78.548,15.981 78.754,15.947C79.288,15.861 79.826,15.692 80.339,15.604C81.112,15.476 81.888,15.355 82.667,15.248C83.446,15.141 84.227,15.048 85.008,14.971C85.891,14.881 86.788,14.835 87.691,14.812C88.581,14.79 89.476,14.79 90.372,14.817C91.805,14.861 93.239,14.955 94.642,15.094C94.784,15.108 94.927,15.116 95.067,15.14C95.283,15.177 95.486,15.237 95.698,15.287C95.72,15.289 95.736,15.309 95.734,15.331C95.732,15.353 95.712,15.37 95.69,15.368C95.474,15.378 95.263,15.402 95.045,15.4C93.158,15.377 91.226,15.154 89.301,15.188C87.874,15.213 86.456,15.315 85.074,15.51C84.305,15.623 83.537,15.754 82.771,15.895C82.004,16.035 81.24,16.187 80.479,16.347C80.371,16.369 80.262,16.395 80.152,16.423C80.304,16.438 80.456,16.456 80.608,16.476C81.103,16.543 81.596,16.652 82.094,16.878C82.476,17.053 82.828,17.27 83.166,17.511C83.652,17.858 84.106,18.251 84.583,18.612C85.063,18.96 85.543,19.301 86.034,19.623C86.695,20.057 87.384,20.44 88.097,20.802C88.152,20.83 88.222,20.84 88.261,20.889C88.304,20.944 88.274,20.947 88.292,21.015C88.299,21.018 88.303,21.027 88.3,21.035C88.296,21.043 88.287,21.046 88.28,21.043C88.219,21.082 88.249,21.098 88.178,21.107C88.156,21.11 88.135,21.094 88.114,21.086C87.735,20.942 87.377,20.754 87.022,20.568C86.1,20.085 85.23,19.518 84.361,18.93C83.862,18.609 83.383,18.256 82.877,17.949C82.553,17.753 82.219,17.578 81.86,17.445C81.529,17.319 81.205,17.246 80.881,17.209C80.557,17.173 80.236,17.185 79.912,17.185C79.409,17.184 78.899,17.178 78.372,17.135C78.008,17.102 77.65,17.036 77.304,16.928C77.162,16.884 77.021,16.839 76.886,16.777C76.803,16.739 76.728,16.699 76.652,16.648C76.595,16.61 76.553,16.579 76.506,16.53C76.489,16.513 76.475,16.498 76.464,16.483C76.075,16.35 75.694,16.195 75.325,16.062C74.562,15.784 73.787,15.51 73.002,15.275C72.485,15.121 71.963,14.984 71.438,14.876C70.573,14.697 69.727,14.621 68.89,14.618C67.758,14.614 66.644,14.758 65.514,14.927C65.309,14.957 65.103,14.988 64.897,15.019C62.954,15.918 61.027,16.847 59.116,17.738C57.657,18.418 56.156,19.006 54.7,19.691C54.086,19.979 53.479,20.286 52.888,20.624C52.228,21.001 51.67,21.457 51.155,21.951C50.343,22.73 49.633,23.605 48.811,24.44C48.032,25.23 47.182,26.038 46.278,26.797C46.829,26.838 47.374,26.914 47.915,27.018C48.252,27.084 48.588,27.159 48.922,27.244L48.922,27.244C49.374,27.234 49.822,27.194 50.266,27.105L50.275,27.102Z" style="fill:#313131;"/>
            <g>
                <g transform="matrix(0.385554,0,0,0.385554,48.1077,20.9931)">
                    <path d="M30.095,42.224C36.216,36.813 42.131,37.04 47.866,42.224C42.213,46.365 36.327,46.945 30.095,42.224Z" style="fill:#77c100;"/>
                </g>
                <g transform="matrix(0.162472,-0.34965,0.34965,0.162472,45.544,47.4375)">
                    <path d="M30.095,42.224C36.216,36.813 42.131,37.04 47.866,42.224C42.213,46.365 36.327,46.945 30.095,42.224Z" style="fill:#77c100;"/>
                </g>
                <g transform="matrix(-0.317485,-0.218758,0.218758,-0.317485,95.4131,44.4689)">
                    <path d="M30.095,42.224C36.216,36.813 42.131,37.04 47.866,42.224C42.213,46.365 36.327,46.945 30.095,42.224Z" style="fill:#77c100;"/>
                </g>
                <g transform="matrix(-0.0448419,-0.199832,0.199832,-0.0448419,83.1617,32.051)">
                    <path d="M30.095,42.224C36.216,36.813 42.131,37.04 47.866,42.224C42.213,46.365 36.327,46.945 30.095,42.224Z" style="fill:#77c100;"/>
                </g>
                <g transform="matrix(-0.276437,0.0552877,-0.0552877,-0.276437,85.4082,30.3048)">
                    <path d="M30.095,42.224C36.216,36.813 42.131,37.04 47.866,42.224C42.213,46.365 36.327,46.945 30.095,42.224Z" style="fill:#77c100;"/>
                </g>
                <g transform="matrix(0.254523,0.12121,-0.12121,0.254523,9.77751,2.45693)">
                    <path d="M30.095,42.224C36.216,36.813 42.131,37.04 47.866,42.224C42.213,46.365 36.327,46.945 30.095,42.224Z" style="fill:#77c100;"/>
                </g>
                <g transform="matrix(0.360617,-0.136408,0.136408,0.360617,169.483,10.0996)">
                    <path d="M30.095,42.224C36.216,36.813 42.131,37.04 47.866,42.224C42.213,46.365 36.327,46.945 30.095,42.224Z" style="fill:#77c100;"/>
                </g>
                <g transform="matrix(0.381264,0.0573564,-0.0573564,0.381264,181.909,0.841832)">
                    <path d="M30.095,42.224C36.216,36.813 42.131,37.04 47.866,42.224C42.213,46.365 36.327,46.945 30.095,42.224Z" style="fill:#77c100;"/>
                </g>
                <g transform="matrix(0.250645,-0.0813807,0.0813807,0.250645,240.274,22.1943)">
                    <path d="M30.095,42.224C36.216,36.813 42.131,37.04 47.866,42.224C42.213,46.365 36.327,46.945 30.095,42.224Z" style="fill:#77c100;"/>
                </g>
                <g transform="matrix(0.207274,-0.162737,0.162737,0.207274,247.544,40.4191)">
                    <path d="M30.095,42.224C36.216,36.813 42.131,37.04 47.866,42.224C42.213,46.365 36.327,46.945 30.095,42.224Z" style="fill:#77c100;"/>
                </g>
                <g transform="matrix(-0.131763,0.22822,-0.22822,-0.131763,254.985,23.717)">
                    <path d="M30.095,42.224C36.216,36.813 42.131,37.04 47.866,42.224C42.213,46.365 36.327,46.945 30.095,42.224Z" style="fill:#77c100;"/>
                </g>
                <g transform="matrix(0.0938954,0.124907,0.124907,-0.0938954,229.276,27.0633)">
                    <path d="M30.095,42.224C36.216,36.813 42.131,37.04 47.866,42.224C42.213,46.365 36.327,46.945 30.095,42.224Z" style="fill:#77c100;"/>
                </g>
                <g transform="matrix(-0.160799,0.171642,0.171642,0.160799,204.863,23.6563)">
                    <path d="M30.095,42.224C36.216,36.813 42.131,37.04 47.866,42.224C42.213,46.365 36.327,46.945 30.095,42.224Z" style="fill:#77c100;"/>
                </g>
                <g transform="matrix(-0.12977,0.138521,0.138521,0.12977,199.076,5.31165)">
                    <path d="M30.095,42.224C36.216,36.813 42.131,37.04 47.866,42.224C42.213,46.365 36.327,46.945 30.095,42.224Z" style="fill:#77c100;"/>
                </g>
                <g transform="matrix(0.00773319,0.160914,0.160914,-0.00773319,191.549,10.0457)">
                    <path d="M30.095,42.224C36.216,36.813 42.131,37.04 47.866,42.224C42.213,46.365 36.327,46.945 30.095,42.224Z" style="fill:#77c100;"/>
                </g>
                <g transform="matrix(0.286984,-0.16569,-0.16569,-0.286984,197.435,59.786)">
                    <path d="M30.095,42.224C36.216,36.813 42.131,37.04 47.866,42.224C42.213,46.365 36.327,46.945 30.095,42.224Z" style="fill:#77c100;"/>
                </g>
            </g>
            <g>
                <g transform="matrix(0.132976,0,0,0.132976,50.8413,33.0351)">
                    <g transform="matrix(0.862168,0.506622,-0.506622,0.862168,14.748,-76.0455)">
                        <path d="M140.914,21.161C139.543,18.964 138.816,16.425 138.816,13.835C138.816,6.199 145.015,0 152.651,0C160.287,0 166.486,6.199 166.486,13.835C166.486,16.425 165.759,18.964 164.387,21.161L154.555,36.913L166.498,22.694C168.164,20.711 170.353,19.235 172.816,18.434C180.079,16.075 187.89,20.055 190.25,27.317C192.609,34.579 188.629,42.391 181.367,44.751C178.904,45.551 176.265,45.644 173.751,45.018L155.732,40.535L172.945,47.499C175.346,48.471 177.427,50.097 178.949,52.192C183.437,58.37 182.066,67.029 175.888,71.517C169.711,76.006 161.052,74.634 156.563,68.457C155.041,66.361 154.137,63.88 153.955,61.296L152.651,42.773L151.347,61.296C151.165,63.88 150.261,66.361 148.738,68.457C144.25,74.634 135.591,76.006 129.413,71.517C123.236,67.029 121.864,58.37 126.353,52.192C127.875,50.097 129.955,48.471 132.357,47.499L149.57,40.535L131.55,45.018C129.037,45.644 126.398,45.551 123.935,44.751C116.673,42.391 112.692,34.579 115.052,27.317C117.412,20.055 125.223,16.075 132.485,18.434C134.949,19.235 137.138,20.711 138.804,22.694L150.747,36.913L140.914,21.161Z" style="fill:#ff4f8b;"/>
                    </g>
                    <g transform="matrix(1,0,0,1,-2.46472,-6.55417)">
                        <ellipse cx="128.795" cy="26.681" rx="7.265" ry="14.873" style="fill:#cd284a;"/>
                    </g>
                    <g transform="matrix(0.258819,-0.965926,0.965926,0.258819,53.6237,148.326)">
                        <ellipse cx="128.795" cy="26.681" rx="7.265" ry="14.873" style="fill:#cd284a;"/>
                    </g>
                    <g transform="matrix(-0.258819,-0.965926,-0.965926,0.258819,199.927,148.326)">
                        <ellipse cx="128.795" cy="26.681" rx="7.265" ry="14.873" style="fill:#cd284a;"/>
                    </g>
                    <g transform="matrix(-0.707107,0.707107,-0.707107,-0.707107,246.593,-25.4995)">
                        <ellipse cx="128.795" cy="26.681" rx="7.265" ry="14.873" style="fill:#cd284a;"/>
                    </g>
                    <g transform="matrix(0.707107,0.707107,0.707107,-0.707107,6.06671,-25.4995)">
                        <ellipse cx="128.795" cy="26.681" rx="7.265" ry="14.873" style="fill:#cd284a;"/>
                    </g>
                    <g transform="matrix(0.584073,0,0,0.584073,35.5475,-0.33643)">
                        <circle cx="155.43" cy="60.5" r="13.67" style="fill:#c9002a;"/>
                    </g>
                    <g transform="matrix(0.58802,0,0,0.58802,34.934,-0.575236)">
                        <circle cx="155.43" cy="60.5" r="9.73" style="fill:#990b09;"/>
                    </g>
                </g>
                <g transform="matrix(0.0555825,-0.0763842,0.0763842,0.0555825,58.583,29.1573)">
                    <g transform="matrix(0.862168,0.506622,-0.506622,0.862168,14.748,-76.0455)">
                        <path d="M140.914,21.161C139.543,18.964 138.816,16.425 138.816,13.835C138.816,6.199 145.015,0 152.651,0C160.287,0 166.486,6.199 166.486,13.835C166.486,16.425 165.759,18.964 164.387,21.161L154.555,36.913L166.498,22.694C168.164,20.711 170.353,19.235 172.816,18.434C180.079,16.075 187.89,20.055 190.25,27.317C192.609,34.579 188.629,42.391 181.367,44.751C178.904,45.551 176.265,45.644 173.751,45.018L155.732,40.535L172.945,47.499C175.346,48.471 177.427,50.097 178.949,52.192C183.437,58.37 182.066,67.029 175.888,71.517C169.711,76.006 161.052,74.634 156.563,68.457C155.041,66.361 154.137,63.88 153.955,61.296L152.651,42.773L151.347,61.296C151.165,63.88 150.261,66.361 148.738,68.457C144.25,74.634 135.591,76.006 129.413,71.517C123.236,67.029 121.864,58.37 126.353,52.192C127.875,50.097 129.955,48.471 132.357,47.499L149.57,40.535L131.55,45.018C129.037,45.644 126.398,45.551 123.935,44.751C116.673,42.391 112.692,34.579 115.052,27.317C117.412,20.055 125.223,16.075 132.485,18.434C134.949,19.235 137.138,20.711 138.804,22.694L150.747,36.913L140.914,21.161Z" style="fill:#ff4f8b;"/>
                    </g>
                    <g transform="matrix(1,0,0,1,-2.46472,-6.55417)">
                        <ellipse cx="128.795" cy="26.681" rx="7.265" ry="14.873" style="fill:#cd284a;"/>
                    </g>
                    <g transform="matrix(0.258819,-0.965926,0.965926,0.258819,53.6237,148.326)">
                        <ellipse cx="128.795" cy="26.681" rx="7.265" ry="14.873" style="fill:#cd284a;"/>
                    </g>
                    <g transform="matrix(-0.258819,-0.965926,-0.965926,0.258819,199.927,148.326)">
                        <ellipse cx="128.795" cy="26.681" rx="7.265" ry="14.873" style="fill:#cd284a;"/>
                    </g>
                    <g transform="matrix(-0.707107,0.707107,-0.707107,-0.707107,246.593,-25.4995)">
                        <ellipse cx="128.795" cy="26.681" rx="7.265" ry="14.873" style="fill:#cd284a;"/>
                    </g>
                    <g transform="matrix(0.707107,0.707107,0.707107,-0.707107,6.06671,-25.4995)">
                        <ellipse cx="128.795" cy="26.681" rx="7.265" ry="14.873" style="fill:#cd284a;"/>
                    </g>
                    <g transform="matrix(0.584073,0,0,0.584073,35.5475,-0.33643)">
                        <circle cx="155.43" cy="60.5" r="13.67" style="fill:#c9002a;"/>
                    </g>
                    <g transform="matrix(0.58802,0,0,0.58802,34.934,-0.575236)">
                        <circle cx="155.43" cy="60.5" r="9.73" style="fill:#990b09;"/>
                    </g>
                </g>
                <g transform="matrix(-0.0244648,0.0912438,-0.0912438,-0.0244648,95.7001,10.0502)">
                    <g transform="matrix(0.862168,0.506622,-0.506622,0.862168,14.748,-76.0455)">
                        <path d="M140.914,21.161C139.543,18.964 138.816,16.425 138.816,13.835C138.816,6.199 145.015,0 152.651,0C160.287,0 166.486,6.199 166.486,13.835C166.486,16.425 165.759,18.964 164.387,21.161L154.555,36.913L166.498,22.694C168.164,20.711 170.353,19.235 172.816,18.434C180.079,16.075 187.89,20.055 190.25,27.317C192.609,34.579 188.629,42.391 181.367,44.751C178.904,45.551 176.265,45.644 173.751,45.018L155.732,40.535L172.945,47.499C175.346,48.471 177.427,50.097 178.949,52.192C183.437,58.37 182.066,67.029 175.888,71.517C169.711,76.006 161.052,74.634 156.563,68.457C155.041,66.361 154.137,63.88 153.955,61.296L152.651,42.773L151.347,61.296C151.165,63.88 150.261,66.361 148.738,68.457C144.25,74.634 135.591,76.006 129.413,71.517C123.236,67.029 121.864,58.37 126.353,52.192C127.875,50.097 129.955,48.471 132.357,47.499L149.57,40.535L131.55,45.018C129.037,45.644 126.398,45.551 123.935,44.751C116.673,42.391 112.692,34.579 115.052,27.317C117.412,20.055 125.223,16.075 132.485,18.434C134.949,19.235 137.138,20.711 138.804,22.694L150.747,36.913L140.914,21.161Z" style="fill:#ff4f8b;"/>
                    </g>
                    <g transform="matrix(1,0,0,1,-2.46472,-6.55417)">
                        <ellipse cx="128.795" cy="26.681" rx="7.265" ry="14.873" style="fill:#cd284a;"/>
                    </g>
                    <g transform="matrix(0.258819,-0.965926,0.965926,0.258819,53.6237,148.326)">
                        <ellipse cx="128.795" cy="26.681" rx="7.265" ry="14.873" style="fill:#cd284a;"/>
                    </g>
                    <g transform="matrix(-0.258819,-0.965926,-0.965926,0.258819,199.927,148.326)">
                        <ellipse cx="128.795" cy="26.681" rx="7.265" ry="14.873" style="fill:#cd284a;"/>
                    </g>
                    <g transform="matrix(-0.707107,0.707107,-0.707107,-0.707107,246.593,-25.4995)">
                        <ellipse cx="128.795" cy="26.681" rx="7.265" ry="14.873" style="fill:#cd284a;"/>
                    </g>
                    <g transform="matrix(0.707107,0.707107,0.707107,-0.707107,6.06671,-25.4995)">
                        <ellipse cx="128.795" cy="26.681" rx="7.265" ry="14.873" style="fill:#cd284a;"/>
                    </g>
                    <g transform="matrix(0.584073,0,0,0.584073,35.5475,-0.33643)">
                        <circle cx="155.43" cy="60.5" r="13.67" style="fill:#c9002a;"/>
                    </g>
                    <g transform="matrix(0.58802,0,0,0.58802,34.934,-0.575236)">
                        <circle cx="155.43" cy="60.5" r="9.73" style="fill:#990b09;"/>
                    </g>
                </g>
                <g transform="matrix(-0.0244648,0.0912438,-0.0912438,-0.0244648,47.2498,4.00621)">
                    <g transform="matrix(0.862168,0.506622,-0.506622,0.862168,14.748,-76.0455)">
                        <path d="M140.914,21.161C139.543,18.964 138.816,16.425 138.816,13.835C138.816,6.199 145.015,0 152.651,0C160.287,0 166.486,6.199 166.486,13.835C166.486,16.425 165.759,18.964 164.387,21.161L154.555,36.913L166.498,22.694C168.164,20.711 170.353,19.235 172.816,18.434C180.079,16.075 187.89,20.055 190.25,27.317C192.609,34.579 188.629,42.391 181.367,44.751C178.904,45.551 176.265,45.644 173.751,45.018L155.732,40.535L172.945,47.499C175.346,48.471 177.427,50.097 178.949,52.192C183.437,58.37 182.066,67.029 175.888,71.517C169.711,76.006 161.052,74.634 156.563,68.457C155.041,66.361 154.137,63.88 153.955,61.296L152.651,42.773L151.347,61.296C151.165,63.88 150.261,66.361 148.738,68.457C144.25,74.634 135.591,76.006 129.413,71.517C123.236,67.029 121.864,58.37 126.353,52.192C127.875,50.097 129.955,48.471 132.357,47.499L149.57,40.535L131.55,45.018C129.037,45.644 126.398,45.551 123.935,44.751C116.673,42.391 112.692,34.579 115.052,27.317C117.412,20.055 125.223,16.075 132.485,18.434C134.949,19.235 137.138,20.711 138.804,22.694L150.747,36.913L140.914,21.161Z" style="fill:#ff4f8b;"/>
                    </g>
                    <g transform="matrix(1,0,0,1,-2.46472,-6.55417)">
                        <ellipse cx="128.795" cy="26.681" rx="7.265" ry="14.873" style="fill:#cd284a;"/>
                    </g>
                    <g transform="matrix(0.258819,-0.965926,0.965926,0.258819,53.6237,148.326)">
                        <ellipse cx="128.795" cy="26.681" rx="7.265" ry="14.873" style="fill:#cd284a;"/>
                    </g>
                    <g transform="matrix(-0.258819,-0.965926,-0.965926,0.258819,199.927,148.326)">
                        <ellipse cx="128.795" cy="26.681" rx="7.265" ry="14.873" style="fill:#cd284a;"/>
                    </g>
                    <g transform="matrix(-0.707107,0.707107,-0.707107,-0.707107,246.593,-25.4995)">
                        <ellipse cx="128.795" cy="26.681" rx="7.265" ry="14.873" style="fill:#cd284a;"/>
                    </g>
                    <g transform="matrix(0.707107,0.707107,0.707107,-0.707107,6.06671,-25.4995)">
                        <ellipse cx="128.795" cy="26.681" rx="7.265" ry="14.873" style="fill:#cd284a;"/>
                    </g>
                    <g transform="matrix(0.584073,0,0,0.584073,35.5475,-0.33643)">
                        <circle cx="155.43" cy="60.5" r="13.67" style="fill:#c9002a;"/>
                    </g>
                    <g transform="matrix(0.58802,0,0,0.58802,34.934,-0.575236)">
                        <circle cx="155.43" cy="60.5" r="9.73" style="fill:#990b09;"/>
                    </g>
                </g>
                <g transform="matrix(-0.0244648,0.0912438,-0.0912438,-0.0244648,24.318,8.24514)">
                    <g transform="matrix(0.862168,0.506622,-0.506622,0.862168,14.748,-76.0455)">
                        <path d="M140.914,21.161C139.543,18.964 138.816,16.425 138.816,13.835C138.816,6.199 145.015,0 152.651,0C160.287,0 166.486,6.199 166.486,13.835C166.486,16.425 165.759,18.964 164.387,21.161L154.555,36.913L166.498,22.694C168.164,20.711 170.353,19.235 172.816,18.434C180.079,16.075 187.89,20.055 190.25,27.317C192.609,34.579 188.629,42.391 181.367,44.751C178.904,45.551 176.265,45.644 173.751,45.018L155.732,40.535L172.945,47.499C175.346,48.471 177.427,50.097 178.949,52.192C183.437,58.37 182.066,67.029 175.888,71.517C169.711,76.006 161.052,74.634 156.563,68.457C155.041,66.361 154.137,63.88 153.955,61.296L152.651,42.773L151.347,61.296C151.165,63.88 150.261,66.361 148.738,68.457C144.25,74.634 135.591,76.006 129.413,71.517C123.236,67.029 121.864,58.37 126.353,52.192C127.875,50.097 129.955,48.471 132.357,47.499L149.57,40.535L131.55,45.018C129.037,45.644 126.398,45.551 123.935,44.751C116.673,42.391 112.692,34.579 115.052,27.317C117.412,20.055 125.223,16.075 132.485,18.434C134.949,19.235 137.138,20.711 138.804,22.694L150.747,36.913L140.914,21.161Z" style="fill:#ff4f8b;"/>
                    </g>
                    <g transform="matrix(1,0,0,1,-2.46472,-6.55417)">
                        <ellipse cx="128.795" cy="26.681" rx="7.265" ry="14.873" style="fill:#cd284a;"/>
                    </g>
                    <g transform="matrix(0.258819,-0.965926,0.965926,0.258819,53.6237,148.326)">
                        <ellipse cx="128.795" cy="26.681" rx="7.265" ry="14.873" style="fill:#cd284a;"/>
                    </g>
                    <g transform="matrix(-0.258819,-0.965926,-0.965926,0.258819,199.927,148.326)">
                        <ellipse cx="128.795" cy="26.681" rx="7.265" ry="14.873" style="fill:#cd284a;"/>
                    </g>
                    <g transform="matrix(-0.707107,0.707107,-0.707107,-0.707107,246.593,-25.4995)">
                        <ellipse cx="128.795" cy="26.681" rx="7.265" ry="14.873" style="fill:#cd284a;"/>
                    </g>
                    <g transform="matrix(0.707107,0.707107,0.707107,-0.707107,6.06671,-25.4995)">
                        <ellipse cx="128.795" cy="26.681" rx="7.265" ry="14.873" style="fill:#cd284a;"/>
                    </g>
                    <g transform="matrix(0.584073,0,0,0.584073,35.5475,-0.33643)">
                        <circle cx="155.43" cy="60.5" r="13.67" style="fill:#c9002a;"/>
                    </g>
                    <g transform="matrix(0.58802,0,0,0.58802,34.934,-0.575236)">
                        <circle cx="155.43" cy="60.5" r="9.73" style="fill:#990b09;"/>
                    </g>
                </g>
                <g transform="matrix(-0.0244648,0.0912438,-0.0912438,-0.0244648,198.169,8.24514)">
                    <g transform="matrix(0.862168,0.506622,-0.506622,0.862168,14.748,-76.0455)">
                        <path d="M140.914,21.161C139.543,18.964 138.816,16.425 138.816,13.835C138.816,6.199 145.015,0 152.651,0C160.287,0 166.486,6.199 166.486,13.835C166.486,16.425 165.759,18.964 164.387,21.161L154.555,36.913L166.498,22.694C168.164,20.711 170.353,19.235 172.816,18.434C180.079,16.075 187.89,20.055 190.25,27.317C192.609,34.579 188.629,42.391 181.367,44.751C178.904,45.551 176.265,45.644 173.751,45.018L155.732,40.535L172.945,47.499C175.346,48.471 177.427,50.097 178.949,52.192C183.437,58.37 182.066,67.029 175.888,71.517C169.711,76.006 161.052,74.634 156.563,68.457C155.041,66.361 154.137,63.88 153.955,61.296L152.651,42.773L151.347,61.296C151.165,63.88 150.261,66.361 148.738,68.457C144.25,74.634 135.591,76.006 129.413,71.517C123.236,67.029 121.864,58.37 126.353,52.192C127.875,50.097 129.955,48.471 132.357,47.499L149.57,40.535L131.55,45.018C129.037,45.644 126.398,45.551 123.935,44.751C116.673,42.391 112.692,34.579 115.052,27.317C117.412,20.055 125.223,16.075 132.485,18.434C134.949,19.235 137.138,20.711 138.804,22.694L150.747,36.913L140.914,21.161Z" style="fill:#ff4f8b;"/>
                    </g>
                    <g transform="matrix(1,0,0,1,-2.46472,-6.55417)">
                        <ellipse cx="128.795" cy="26.681" rx="7.265" ry="14.873" style="fill:#cd284a;"/>
                    </g>
                    <g transform="matrix(0.258819,-0.965926,0.965926,0.258819,53.6237,148.326)">
                        <ellipse cx="128.795" cy="26.681" rx="7.265" ry="14.873" style="fill:#cd284a;"/>
                    </g>
                    <g transform="matrix(-0.258819,-0.965926,-0.965926,0.258819,199.927,148.326)">
                        <ellipse cx="128.795" cy="26.681" rx="7.265" ry="14.873" style="fill:#cd284a;"/>
                    </g>
                    <g transform="matrix(-0.707107,0.707107,-0.707107,-0.707107,246.593,-25.4995)">
                        <ellipse cx="128.795" cy="26.681" rx="7.265" ry="14.873" style="fill:#cd284a;"/>
                    </g>
                    <g transform="matrix(0.707107,0.707107,0.707107,-0.707107,6.06671,-25.4995)">
                        <ellipse cx="128.795" cy="26.681" rx="7.265" ry="14.873" style="fill:#cd284a;"/>
                    </g>
                    <g transform="matrix(0.584073,0,0,0.584073,35.5475,-0.33643)">
                        <circle cx="155.43" cy="60.5" r="13.67" style="fill:#c9002a;"/>
                    </g>
                    <g transform="matrix(0.58802,0,0,0.58802,34.934,-0.575236)">
                        <circle cx="155.43" cy="60.5" r="9.73" style="fill:#990b09;"/>
                    </g>
                </g>
                <g transform="matrix(0.00481219,0.0509372,-0.0509372,0.00481219,218.903,10.8855)">
                    <g transform="matrix(0.862168,0.506622,-0.506622,0.862168,14.748,-76.0455)">
                        <path d="M140.914,21.161C139.543,18.964 138.816,16.425 138.816,13.835C138.816,6.199 145.015,0 152.651,0C160.287,0 166.486,6.199 166.486,13.835C166.486,16.425 165.759,18.964 164.387,21.161L154.555,36.913L166.498,22.694C168.164,20.711 170.353,19.235 172.816,18.434C180.079,16.075 187.89,20.055 190.25,27.317C192.609,34.579 188.629,42.391 181.367,44.751C178.904,45.551 176.265,45.644 173.751,45.018L155.732,40.535L172.945,47.499C175.346,48.471 177.427,50.097 178.949,52.192C183.437,58.37 182.066,67.029 175.888,71.517C169.711,76.006 161.052,74.634 156.563,68.457C155.041,66.361 154.137,63.88 153.955,61.296L152.651,42.773L151.347,61.296C151.165,63.88 150.261,66.361 148.738,68.457C144.25,74.634 135.591,76.006 129.413,71.517C123.236,67.029 121.864,58.37 126.353,52.192C127.875,50.097 129.955,48.471 132.357,47.499L149.57,40.535L131.55,45.018C129.037,45.644 126.398,45.551 123.935,44.751C116.673,42.391 112.692,34.579 115.052,27.317C117.412,20.055 125.223,16.075 132.485,18.434C134.949,19.235 137.138,20.711 138.804,22.694L150.747,36.913L140.914,21.161Z" style="fill:#ff4f8b;"/>
                    </g>
                    <g transform="matrix(1,0,0,1,-2.46472,-6.55417)">
                        <ellipse cx="128.795" cy="26.681" rx="7.265" ry="14.873" style="fill:#cd284a;"/>
                    </g>
                    <g transform="matrix(0.258819,-0.965926,0.965926,0.258819,53.6237,148.326)">
                        <ellipse cx="128.795" cy="26.681" rx="7.265" ry="14.873" style="fill:#cd284a;"/>
                    </g>
                    <g transform="matrix(-0.258819,-0.965926,-0.965926,0.258819,199.927,148.326)">
                        <ellipse cx="128.795" cy="26.681" rx="7.265" ry="14.873" style="fill:#cd284a;"/>
                    </g>
                    <g transform="matrix(-0.707107,0.707107,-0.707107,-0.707107,246.593,-25.4995)">
                        <ellipse cx="128.795" cy="26.681" rx="7.265" ry="14.873" style="fill:#cd284a;"/>
                    </g>
                    <g transform="matrix(0.707107,0.707107,0.707107,-0.707107,6.06671,-25.4995)">
                        <ellipse cx="128.795" cy="26.681" rx="7.265" ry="14.873" style="fill:#cd284a;"/>
                    </g>
                    <g transform="matrix(0.584073,0,0,0.584073,35.5475,-0.33643)">
                        <circle cx="155.43" cy="60.5" r="13.67" style="fill:#c9002a;"/>
                    </g>
                    <g transform="matrix(0.58802,0,0,0.58802,34.934,-0.575236)">
                        <circle cx="155.43" cy="60.5" r="9.73" style="fill:#990b09;"/>
                    </g>
                </g>
                <g transform="matrix(-0.0244648,0.0912438,-0.0912438,-0.0244648,210.198,28.9422)">
                    <g transform="matrix(0.862168,0.506622,-0.506622,0.862168,14.748,-76.0455)">
                        <path d="M140.914,21.161C139.543,18.964 138.816,16.425 138.816,13.835C138.816,6.199 145.015,0 152.651,0C160.287,0 166.486,6.199 166.486,13.835C166.486,16.425 165.759,18.964 164.387,21.161L154.555,36.913L166.498,22.694C168.164,20.711 170.353,19.235 172.816,18.434C180.079,16.075 187.89,20.055 190.25,27.317C192.609,34.579 188.629,42.391 181.367,44.751C178.904,45.551 176.265,45.644 173.751,45.018L155.732,40.535L172.945,47.499C175.346,48.471 177.427,50.097 178.949,52.192C183.437,58.37 182.066,67.029 175.888,71.517C169.711,76.006 161.052,74.634 156.563,68.457C155.041,66.361 154.137,63.88 153.955,61.296L152.651,42.773L151.347,61.296C151.165,63.88 150.261,66.361 148.738,68.457C144.25,74.634 135.591,76.006 129.413,71.517C123.236,67.029 121.864,58.37 126.353,52.192C127.875,50.097 129.955,48.471 132.357,47.499L149.57,40.535L131.55,45.018C129.037,45.644 126.398,45.551 123.935,44.751C116.673,42.391 112.692,34.579 115.052,27.317C117.412,20.055 125.223,16.075 132.485,18.434C134.949,19.235 137.138,20.711 138.804,22.694L150.747,36.913L140.914,21.161Z" style="fill:#ff4f8b;"/>
                    </g>
                    <g transform="matrix(1,0,0,1,-2.46472,-6.55417)">
                        <ellipse cx="128.795" cy="26.681" rx="7.265" ry="14.873" style="fill:#cd284a;"/>
                    </g>
                    <g transform="matrix(0.258819,-0.965926,0.965926,0.258819,53.6237,148.326)">
                        <ellipse cx="128.795" cy="26.681" rx="7.265" ry="14.873" style="fill:#cd284a;"/>
                    </g>
                    <g transform="matrix(-0.258819,-0.965926,-0.965926,0.258819,199.927,148.326)">
                        <ellipse cx="128.795" cy="26.681" rx="7.265" ry="14.873" style="fill:#cd284a;"/>
                    </g>
                    <g transform="matrix(-0.707107,0.707107,-0.707107,-0.707107,246.593,-25.4995)">
                        <ellipse cx="128.795" cy="26.681" rx="7.265" ry="14.873" style="fill:#cd284a;"/>
                    </g>
                    <g transform="matrix(0.707107,0.707107,0.707107,-0.707107,6.06671,-25.4995)">
                        <ellipse cx="128.795" cy="26.681" rx="7.265" ry="14.873" style="fill:#cd284a;"/>
                    </g>
                    <g transform="matrix(0.584073,0,0,0.584073,35.5475,-0.33643)">
                        <circle cx="155.43" cy="60.5" r="13.67" style="fill:#c9002a;"/>
                    </g>
                    <g transform="matrix(0.58802,0,0,0.58802,34.934,-0.575236)">
                        <circle cx="155.43" cy="60.5" r="9.73" style="fill:#990b09;"/>
                    </g>
                </g>
                <g transform="matrix(-0.0331192,-0.044734,0.044734,-0.0331192,215.292,52.8376)">
                    <g transform="matrix(0.862168,0.506622,-0.506622,0.862168,14.748,-76.0455)">
                        <path d="M140.914,21.161C139.543,18.964 138.816,16.425 138.816,13.835C138.816,6.199 145.015,0 152.651,0C160.287,0 166.486,6.199 166.486,13.835C166.486,16.425 165.759,18.964 164.387,21.161L154.555,36.913L166.498,22.694C168.164,20.711 170.353,19.235 172.816,18.434C180.079,16.075 187.89,20.055 190.25,27.317C192.609,34.579 188.629,42.391 181.367,44.751C178.904,45.551 176.265,45.644 173.751,45.018L155.732,40.535L172.945,47.499C175.346,48.471 177.427,50.097 178.949,52.192C183.437,58.37 182.066,67.029 175.888,71.517C169.711,76.006 161.052,74.634 156.563,68.457C155.041,66.361 154.137,63.88 153.955,61.296L152.651,42.773L151.347,61.296C151.165,63.88 150.261,66.361 148.738,68.457C144.25,74.634 135.591,76.006 129.413,71.517C123.236,67.029 121.864,58.37 126.353,52.192C127.875,50.097 129.955,48.471 132.357,47.499L149.57,40.535L131.55,45.018C129.037,45.644 126.398,45.551 123.935,44.751C116.673,42.391 112.692,34.579 115.052,27.317C117.412,20.055 125.223,16.075 132.485,18.434C134.949,19.235 137.138,20.711 138.804,22.694L150.747,36.913L140.914,21.161Z" style="fill:#ff4f8b;"/>
                    </g>
                    <g transform="matrix(1,0,0,1,-2.46472,-6.55417)">
                        <ellipse cx="128.795" cy="26.681" rx="7.265" ry="14.873" style="fill:#cd284a;"/>
                    </g>
                    <g transform="matrix(0.258819,-0.965926,0.965926,0.258819,53.6237,148.326)">
                        <ellipse cx="128.795" cy="26.681" rx="7.265" ry="14.873" style="fill:#cd284a;"/>
                    </g>
                    <g transform="matrix(-0.258819,-0.965926,-0.965926,0.258819,199.927,148.326)">
                        <ellipse cx="128.795" cy="26.681" rx="7.265" ry="14.873" style="fill:#cd284a;"/>
                    </g>
                    <g transform="matrix(-0.707107,0.707107,-0.707107,-0.707107,246.593,-25.4995)">
                        <ellipse cx="128.795" cy="26.681" rx="7.265" ry="14.873" style="fill:#cd284a;"/>
                    </g>
                    <g transform="matrix(0.707107,0.707107,0.707107,-0.707107,6.06671,-25.4995)">
                        <ellipse cx="128.795" cy="26.681" rx="7.265" ry="14.873" style="fill:#cd284a;"/>
                    </g>
                    <g transform="matrix(0.584073,0,0,0.584073,35.5475,-0.33643)">
                        <circle cx="155.43" cy="60.5" r="13.67" style="fill:#c9002a;"/>
                    </g>
                    <g transform="matrix(0.58802,0,0,0.58802,34.934,-0.575236)">
                        <circle cx="155.43" cy="60.5" r="9.73" style="fill:#990b09;"/>
                    </g>
                </g>
                <g transform="matrix(-0.0158103,0.058966,-0.058966,-0.0158103,230.976,53.9429)">
                    <g transform="matrix(0.862168,0.506622,-0.506622,0.862168,14.748,-76.0455)">
                        <path d="M140.914,21.161C139.543,18.964 138.816,16.425 138.816,13.835C138.816,6.199 145.015,0 152.651,0C160.287,0 166.486,6.199 166.486,13.835C166.486,16.425 165.759,18.964 164.387,21.161L154.555,36.913L166.498,22.694C168.164,20.711 170.353,19.235 172.816,18.434C180.079,16.075 187.89,20.055 190.25,27.317C192.609,34.579 188.629,42.391 181.367,44.751C178.904,45.551 176.265,45.644 173.751,45.018L155.732,40.535L172.945,47.499C175.346,48.471 177.427,50.097 178.949,52.192C183.437,58.37 182.066,67.029 175.888,71.517C169.711,76.006 161.052,74.634 156.563,68.457C155.041,66.361 154.137,63.88 153.955,61.296L152.651,42.773L151.347,61.296C151.165,63.88 150.261,66.361 148.738,68.457C144.25,74.634 135.591,76.006 129.413,71.517C123.236,67.029 121.864,58.37 126.353,52.192C127.875,50.097 129.955,48.471 132.357,47.499L149.57,40.535L131.55,45.018C129.037,45.644 126.398,45.551 123.935,44.751C116.673,42.391 112.692,34.579 115.052,27.317C117.412,20.055 125.223,16.075 132.485,18.434C134.949,19.235 137.138,20.711 138.804,22.694L150.747,36.913L140.914,21.161Z" style="fill:#ff4f8b;"/>
                    </g>
                    <g transform="matrix(1,0,0,1,-2.46472,-6.55417)">
                        <ellipse cx="128.795" cy="26.681" rx="7.265" ry="14.873" style="fill:#cd284a;"/>
                    </g>
                    <g transform="matrix(0.258819,-0.965926,0.965926,0.258819,53.6237,148.326)">
                        <ellipse cx="128.795" cy="26.681" rx="7.265" ry="14.873" style="fill:#cd284a;"/>
                    </g>
                    <g transform="matrix(-0.258819,-0.965926,-0.965926,0.258819,199.927,148.326)">
                        <ellipse cx="128.795" cy="26.681" rx="7.265" ry="14.873" style="fill:#cd284a;"/>
                    </g>
                    <g transform="matrix(-0.707107,0.707107,-0.707107,-0.707107,246.593,-25.4995)">
                        <ellipse cx="128.795" cy="26.681" rx="7.265" ry="14.873" style="fill:#cd284a;"/>
                    </g>
                    <g transform="matrix(0.707107,0.707107,0.707107,-0.707107,6.06671,-25.4995)">
                        <ellipse cx="128.795" cy="26.681" rx="7.265" ry="14.873" style="fill:#cd284a;"/>
                    </g>
                    <g transform="matrix(0.584073,0,0,0.584073,35.5475,-0.33643)">
                        <circle cx="155.43" cy="60.5" r="13.67" style="fill:#c9002a;"/>
                    </g>
                    <g transform="matrix(0.58802,0,0,0.58802,34.934,-0.575236)">
                        <circle cx="155.43" cy="60.5" r="9.73" style="fill:#990b09;"/>
                    </g>
                </g>
                <g transform="matrix(0.0715953,0.0266377,-0.0266377,0.0715953,256.143,35.4043)">
                    <g transform="matrix(0.862168,0.506622,-0.506622,0.862168,14.748,-76.0455)">
                        <path d="M140.914,21.161C139.543,18.964 138.816,16.425 138.816,13.835C138.816,6.199 145.015,0 152.651,0C160.287,0 166.486,6.199 166.486,13.835C166.486,16.425 165.759,18.964 164.387,21.161L154.555,36.913L166.498,22.694C168.164,20.711 170.353,19.235 172.816,18.434C180.079,16.075 187.89,20.055 190.25,27.317C192.609,34.579 188.629,42.391 181.367,44.751C178.904,45.551 176.265,45.644 173.751,45.018L155.732,40.535L172.945,47.499C175.346,48.471 177.427,50.097 178.949,52.192C183.437,58.37 182.066,67.029 175.888,71.517C169.711,76.006 161.052,74.634 156.563,68.457C155.041,66.361 154.137,63.88 153.955,61.296L152.651,42.773L151.347,61.296C151.165,63.88 150.261,66.361 148.738,68.457C144.25,74.634 135.591,76.006 129.413,71.517C123.236,67.029 121.864,58.37 126.353,52.192C127.875,50.097 129.955,48.471 132.357,47.499L149.57,40.535L131.55,45.018C129.037,45.644 126.398,45.551 123.935,44.751C116.673,42.391 112.692,34.579 115.052,27.317C117.412,20.055 125.223,16.075 132.485,18.434C134.949,19.235 137.138,20.711 138.804,22.694L150.747,36.913L140.914,21.161Z" style="fill:#ff4f8b;"/>
                    </g>
                    <g transform="matrix(1,0,0,1,-2.46472,-6.55417)">
                        <ellipse cx="128.795" cy="26.681" rx="7.265" ry="14.873" style="fill:#cd284a;"/>
                    </g>
                    <g transform="matrix(0.258819,-0.965926,0.965926,0.258819,53.6237,148.326)">
                        <ellipse cx="128.795" cy="26.681" rx="7.265" ry="14.873" style="fill:#cd284a;"/>
                    </g>
                    <g transform="matrix(-0.258819,-0.965926,-0.965926,0.258819,199.927,148.326)">
                        <ellipse cx="128.795" cy="26.681" rx="7.265" ry="14.873" style="fill:#cd284a;"/>
                    </g>
                    <g transform="matrix(-0.707107,0.707107,-0.707107,-0.707107,246.593,-25.4995)">
                        <ellipse cx="128.795" cy="26.681" rx="7.265" ry="14.873" style="fill:#cd284a;"/>
                    </g>
                    <g transform="matrix(0.707107,0.707107,0.707107,-0.707107,6.06671,-25.4995)">
                        <ellipse cx="128.795" cy="26.681" rx="7.265" ry="14.873" style="fill:#cd284a;"/>
                    </g>
                    <g transform="matrix(0.584073,0,0,0.584073,35.5475,-0.33643)">
                        <circle cx="155.43" cy="60.5" r="13.67" style="fill:#c9002a;"/>
                    </g>
                    <g transform="matrix(0.58802,0,0,0.58802,34.934,-0.575236)">
                        <circle cx="155.43" cy="60.5" r="9.73" style="fill:#990b09;"/>
                    </g>
                </g>
                <g transform="matrix(-0.0593185,0.0251841,-0.0251841,-0.0593185,260.457,28.8275)">
                    <g transform="matrix(0.862168,0.506622,-0.506622,0.862168,14.748,-76.0455)">
                        <path d="M140.914,21.161C139.543,18.964 138.816,16.425 138.816,13.835C138.816,6.199 145.015,0 152.651,0C160.287,0 166.486,6.199 166.486,13.835C166.486,16.425 165.759,18.964 164.387,21.161L154.555,36.913L166.498,22.694C168.164,20.711 170.353,19.235 172.816,18.434C180.079,16.075 187.89,20.055 190.25,27.317C192.609,34.579 188.629,42.391 181.367,44.751C178.904,45.551 176.265,45.644 173.751,45.018L155.732,40.535L172.945,47.499C175.346,48.471 177.427,50.097 178.949,52.192C183.437,58.37 182.066,67.029 175.888,71.517C169.711,76.006 161.052,74.634 156.563,68.457C155.041,66.361 154.137,63.88 153.955,61.296L152.651,42.773L151.347,61.296C151.165,63.88 150.261,66.361 148.738,68.457C144.25,74.634 135.591,76.006 129.413,71.517C123.236,67.029 121.864,58.37 126.353,52.192C127.875,50.097 129.955,48.471 132.357,47.499L149.57,40.535L131.55,45.018C129.037,45.644 126.398,45.551 123.935,44.751C116.673,42.391 112.692,34.579 115.052,27.317C117.412,20.055 125.223,16.075 132.485,18.434C134.949,19.235 137.138,20.711 138.804,22.694L150.747,36.913L140.914,21.161Z" style="fill:#ff4f8b;"/>
                    </g>
                    <g transform="matrix(1,0,0,1,-2.46472,-6.55417)">
                        <ellipse cx="128.795" cy="26.681" rx="7.265" ry="14.873" style="fill:#cd284a;"/>
                    </g>
                    <g transform="matrix(0.258819,-0.965926,0.965926,0.258819,53.6237,148.326)">
                        <ellipse cx="128.795" cy="26.681" rx="7.265" ry="14.873" style="fill:#cd284a;"/>
                    </g>
                    <g transform="matrix(-0.258819,-0.965926,-0.965926,0.258819,199.927,148.326)">
                        <ellipse cx="128.795" cy="26.681" rx="7.265" ry="14.873" style="fill:#cd284a;"/>
                    </g>
                    <g transform="matrix(-0.707107,0.707107,-0.707107,-0.707107,246.593,-25.4995)">
                        <ellipse cx="128.795" cy="26.681" rx="7.265" ry="14.873" style="fill:#cd284a;"/>
                    </g>
                    <g transform="matrix(0.707107,0.707107,0.707107,-0.707107,6.06671,-25.4995)">
                        <ellipse cx="128.795" cy="26.681" rx="7.265" ry="14.873" style="fill:#cd284a;"/>
                    </g>
                    <g transform="matrix(0.584073,0,0,0.584073,35.5475,-0.33643)">
                        <circle cx="155.43" cy="60.5" r="13.67" style="fill:#c9002a;"/>
                    </g>
                    <g transform="matrix(0.58802,0,0,0.58802,34.934,-0.575236)">
                        <circle cx="155.43" cy="60.5" r="9.73" style="fill:#990b09;"/>
                    </g>
                </g>
            </g>
        </g>
        <path d="M53.947,40.379C54.265,41.848 54.854,43.497 56.188,44.346C57.658,45.281 59.531,44.187 59.239,42.45C58.984,40.939 57.384,40.905 56.043,40.705C55.269,40.589 54.577,40.434 53.947,40.379Z" style="fill:#ff8cb2;stroke:#ee3979;stroke-width:0.17px;"/>
        <path d="M10.282,47.786C10.367,49.735 10.819,51.682 12.478,52.872C13.565,53.652 16.031,53.742 16.019,51.866C16.007,49.844 14.279,49.252 12.608,48.675C11.684,48.356 11.078,48.064 10.282,47.786Z" style="fill:#ff8cb2;stroke:#ee3979;stroke-width:0.17px;"/>
        <path d="M126.75,18.99C125.304,19.628 122.631,19.653 121.571,20.946C120.757,21.938 121.053,23.159 122.246,23.67C123.068,24.023 124.17,23.95 124.99,23.635C126.205,23.169 127.108,21.763 127.3,20.502C127.368,20.057 127.408,19.029 126.75,18.99Z" style="fill:#ff8cb2;stroke:#ee3979;stroke-width:0.17px;"/>
        <g transform="matrix(-0.955914,0.293648,0.293648,0.955914,353.882,-64.4596)">
            <path d="M193.944,62.282C193.377,63.074 192.811,63.813 191.981,64.339C191.305,64.767 190.056,65.097 189.847,65.98C189.657,66.782 190.302,67.616 190.955,68C192.099,68.671 193.842,68.444 194.745,67.461C195.677,66.446 195.733,65.048 195.25,63.786C195.105,63.408 194.788,62.71 193.944,62.282Z" style="fill:#ff8cb2;stroke:#ee3979;stroke-width:0.17px;"/>
        </g>
        <path d="M267.153,18.664C267.732,20.406 269.599,22.722 271.507,22.853C272.877,22.947 274.366,21.357 273.559,19.985C273.179,19.34 272.343,19.111 271.657,18.996C270.177,18.748 268.644,18.839 267.153,18.664Z" style="fill:#ff8cb2;stroke:#ee3979;stroke-width:0.17px;"/>
        <g transform="matrix(1,0,0,1,-20.5429,-9.91895)">
            <path d="M115.684,62.935C115.963,64.3 116.957,66.459 118.294,67.149C119.667,67.858 121.841,67.738 121.634,65.723C121.41,63.539 119.284,63.071 117.455,62.932C117.007,62.898 116.382,62.902 115.684,62.935Z" style="fill:#ff8cb2;stroke:#ee3979;stroke-width:0.17px;"/>
        </g>
        <g transform="matrix(-1,0,0,1,75.6659,-3.73469)">
            <path d="M30.279,61.359C30.314,61.836 30.234,63.073 30.714,64.067C31.214,65.105 32.972,66.792 34.304,65.616C36.067,64.059 33.167,62.95 31.95,62.4C31.275,62.094 30.908,61.773 30.279,61.359Z" style="fill:#ff8cb2;stroke:#ee3979;stroke-width:0.17px;"/>
        </g>
        <g transform="matrix(1,0,0,1,-43.6537,-12.8393)">
            <path d="M273.532,64.708C272.578,65.552 270.92,65.448 270.109,66.499C269.653,67.09 269.976,67.892 270.53,68.297C270.883,68.556 271.408,68.668 271.843,68.65C272.157,68.636 272.452,68.555 272.73,68.41C272.945,68.297 273.141,68.155 273.323,67.995C274.334,67.108 273.701,65.812 273.532,64.708Z" style="fill:#ff8cb2;stroke:#ee3979;stroke-width:0.17px;"/>
        </g>
        <g transform="matrix(-0.893232,-1.09389e-16,8.74808e-17,-0.714335,285.834,65.8968)">
            <path d="M320,8.028C320,5.159 318.138,2.83 315.844,2.83L10.688,2.83C8.394,2.83 6.532,5.159 6.532,8.028L6.532,74.803C6.532,77.671 8.394,80 10.688,80L315.844,80C318.138,80 320,77.671 320,74.803L320,8.028Z" style="fill:#ffdec7;fill-opacity:0.75;"/>
        </g>
        <g transform="matrix(1,0,0,1,0,0.588874)">
            <g transform="matrix(3.53775,0,0,1,-201.915,-0.229722)">
                <rect x="58.228" y="25.011" width="76.84" height="2.17" style="fill:#e07827;"/>
            </g>
            <g transform="matrix(3.53775,0,0,1,-201.915,-1.31452)">
                <rect x="58.228" y="25.011" width="76.84" height="2.17" style="fill:#ffcca4;"/>
            </g>
        </g>
        <g transform="matrix(1,0,0,1,0,2.03613)">
            <g transform="matrix(3.53775,0,0,1,-201.915,19.1234)">
                <rect x="58.228" y="25.011" width="76.84" height="2.17" style="fill:#e07827;"/>
            </g>
            <g transform="matrix(3.53775,0,0,1,-201.915,18.0386)">
                <rect x="58.228" y="25.011" width="76.84" height="2.17" style="fill:#ffcca4;"/>
            </g>
        </g>
        <g transform="matrix(6.12323e-17,-1,1,6.12323e-17,95.3235,186.713)">
            <g transform="matrix(0.628234,-1.44851e-32,-1.56001e-32,1,88.3578,20.1598)">
                <rect x="58.228" y="25.011" width="76.84" height="2.17" style="fill:#ffcca4;"/>
            </g>
            <g transform="matrix(0.628234,-1.2326e-32,-1.2326e-32,1,88.3578,-37.6032)">
                <rect x="58.228" y="25.011" width="76.84" height="2.17" style="fill:#ffcca4;"/>
            </g>
            <g transform="matrix(0.628234,-1.2326e-32,-1.2326e-32,1,88.3578,-91.0875)">
                <rect x="58.228" y="25.011" width="76.84" height="2.17" style="fill:#ffcca4;"/>
            </g>
            <g transform="matrix(0.628234,-1.2326e-32,-1.2326e-32,1,88.3578,128.249)">
                <rect x="58.228" y="25.011" width="76.84" height="2.17" style="fill:#ffcca4;"/>
            </g>
            <g transform="matrix(0.628234,-1.2326e-32,-1.2326e-32,1,88.3578,74.7652)">
                <rect x="58.228" y="25.011" width="76.84" height="2.17" style="fill:#ffcca4;"/>
            </g>
        </g>
        <path d="M-0,60.162C-0,62.211 1.664,63.875 3.713,63.875L276.287,63.875C278.336,63.875 280,62.211 280,60.162L280,12.463C280,10.414 278.336,8.75 276.287,8.75L3.713,8.75C1.664,8.75 -0,10.414 -0,12.463L-0,60.162ZM275.92,15.272C275.92,13.783 274.711,12.574 273.221,12.574L6.779,12.574C5.289,12.574 4.08,13.783 4.08,15.272L4.08,56.782C4.08,58.271 5.289,59.48 6.779,59.48L273.221,59.48C274.711,59.48 275.92,58.271 275.92,56.782L275.92,15.272Z" style="fill:#f1a467;"/>
        <path d="M4.08,16.78C4.08,15.291 5.289,14.082 6.779,14.082L273.221,14.082C274.711,14.082 275.92,15.291 275.92,16.78L275.92,15.272C275.92,13.783 274.711,12.574 273.221,12.574L6.779,12.574C5.289,12.574 4.08,13.783 4.08,15.272L4.08,16.78Z" style="fill:#e07827;"/>
    </g>
</svg>
