<?xml version="1.0" encoding="UTF-8" standalone="no"?>
<!DOCTYPE svg PUBLIC "-//W3C//DTD SVG 1.1//EN" "http://www.w3.org/Graphics/SVG/1.1/DTD/svg11.dtd">
<svg width="100%" height="100%" viewBox="0 0 280 62" version="1.1" xmlns="http://www.w3.org/2000/svg" xmlns:xlink="http://www.w3.org/1999/xlink" xml:space="preserve" xmlns:serif="http://www.serif.com/" style="fill-rule:evenodd;clip-rule:evenodd;stroke-linejoin:round;stroke-miterlimit:2;">
    <g id="banner_71" transform="matrix(1,0,0,1,0,-8.7)">
        <path d="M280,47.751L-0,47.751L-0,65.286C-0,67.888 2.112,70 4.714,70L275.286,70C277.888,70 280,67.888 280,65.286L280,47.751Z" style="fill:#ff8daf;"/>
        <g transform="matrix(-0.893232,-1.09389e-16,8.74808e-17,-0.714335,285.834,65.8968)">
            <path d="M320,8.028C320,5.159 318.138,2.83 315.844,2.83L10.688,2.83C8.394,2.83 6.532,5.159 6.532,8.028L6.532,74.803C6.532,77.671 8.394,80 10.688,80L315.844,80C318.138,80 320,77.671 320,74.803L320,8.028Z" style="fill:url(#_Linear1);"/>
        </g>
        <g transform="matrix(1,0,0,1,0,8.7)">
            <path d="M50.281,61.3L52.959,61.3C53.382,60.983 53.803,60.656 54.223,60.321C54.583,60.034 54.642,59.509 54.355,59.15C54.068,58.79 53.543,58.731 53.184,59.018C52.35,59.684 51.51,60.316 50.662,60.904C50.628,60.927 50.593,60.951 50.559,60.974C50.435,61.06 50.341,61.173 50.281,61.3ZM3.407,61.116C3.753,61.216 4.115,61.277 4.489,61.294L4.301,61.162C4.029,60.969 3.68,60.962 3.407,61.116ZM139.094,59.985C140.243,59.961 141.374,59.895 142.478,59.787C142.48,59.787 142.482,59.787 142.484,59.787C142.941,59.742 143.277,59.334 143.232,58.876C143.187,58.418 142.779,58.083 142.322,58.128C142.32,58.128 142.318,58.128 142.316,58.128C141.253,58.232 140.165,58.295 139.058,58.319C138.598,58.329 138.233,58.71 138.243,59.17C138.253,59.63 138.634,59.995 139.094,59.985ZM128.979,59.204C130.094,59.396 131.213,59.554 132.33,59.677C132.787,59.727 133.199,59.397 133.249,58.94C133.3,58.482 132.969,58.07 132.512,58.02C131.429,57.901 130.344,57.748 129.263,57.561C128.809,57.483 128.378,57.787 128.3,58.241C128.221,58.694 128.526,59.125 128.979,59.204ZM149.169,58.304C150.249,57.929 151.302,57.497 152.333,57.018C152.75,56.824 152.932,56.328 152.738,55.911C152.545,55.494 152.049,55.312 151.631,55.506C150.65,55.962 149.649,56.373 148.622,56.73C148.188,56.881 147.958,57.356 148.109,57.791C148.26,58.225 148.735,58.455 149.169,58.304ZM119.189,56.537C120.234,56.939 121.305,57.307 122.395,57.64C122.835,57.775 123.301,57.527 123.436,57.087C123.57,56.648 123.322,56.181 122.883,56.047C121.83,55.724 120.796,55.369 119.786,54.981C119.357,54.816 118.874,55.031 118.709,55.46C118.545,55.89 118.759,56.372 119.189,56.537ZM59.301,55.916C60.116,55.169 60.932,54.41 61.752,53.65C62.09,53.338 62.11,52.81 61.797,52.473C61.485,52.135 60.957,52.115 60.62,52.428C59.802,53.186 58.988,53.942 58.175,54.687C57.836,54.998 57.813,55.525 58.123,55.864C58.434,56.203 58.962,56.226 59.301,55.916ZM158.245,53.706C159.182,53.102 160.11,52.473 161.035,51.827C161.412,51.563 161.505,51.043 161.241,50.666C160.978,50.289 160.458,50.197 160.081,50.46C159.172,51.095 158.261,51.713 157.342,52.305C156.955,52.554 156.844,53.07 157.093,53.457C157.342,53.844 157.858,53.955 158.245,53.706ZM110.2,51.811C111.147,52.431 112.098,53.031 113.058,53.599C113.454,53.833 113.965,53.702 114.199,53.306C114.434,52.911 114.302,52.399 113.907,52.165C112.968,51.61 112.039,51.023 111.113,50.417C110.729,50.165 110.212,50.272 109.96,50.657C109.708,51.042 109.816,51.559 110.2,51.811ZM66.682,49.212C67.52,48.494 68.369,47.795 69.23,47.124C69.593,46.842 69.659,46.318 69.376,45.955C69.094,45.592 68.569,45.526 68.207,45.809C67.325,46.495 66.456,47.211 65.598,47.945C65.249,48.244 65.208,48.771 65.507,49.12C65.806,49.47 66.332,49.511 66.682,49.212ZM101.916,46.22C102.841,46.816 103.758,47.433 104.673,48.056C105.053,48.315 105.572,48.217 105.831,47.837C106.09,47.457 105.992,46.938 105.612,46.679C104.686,46.048 103.756,45.424 102.82,44.819C102.434,44.57 101.918,44.681 101.668,45.068C101.419,45.454 101.53,45.97 101.916,46.22ZM166.414,47.799C167.273,47.112 168.125,46.439 169.022,45.822C169.4,45.562 169.496,45.042 169.235,44.663C168.975,44.285 168.455,44.189 168.076,44.45C167.147,45.089 166.263,45.785 165.372,46.498C165.013,46.786 164.955,47.31 165.242,47.67C165.53,48.029 166.055,48.087 166.414,47.799ZM74.652,43.485C75.602,42.959 76.572,42.485 77.566,42.075C77.991,41.9 78.193,41.412 78.018,40.987C77.843,40.562 77.355,40.359 76.93,40.535C75.878,40.969 74.851,41.47 73.845,42.026C73.443,42.249 73.297,42.756 73.519,43.159C73.742,43.561 74.25,43.707 74.652,43.485ZM174.801,43.184C175.848,42.894 176.907,42.66 177.976,42.469C178.429,42.388 178.731,41.955 178.65,41.503C178.57,41.05 178.136,40.748 177.684,40.828C176.563,41.028 175.454,41.274 174.357,41.577C173.913,41.7 173.653,42.16 173.776,42.603C173.899,43.046 174.358,43.306 174.801,43.184ZM93.233,41.707C94.248,42.069 95.243,42.492 96.224,42.963C96.639,43.163 97.137,42.988 97.336,42.573C97.535,42.158 97.36,41.66 96.946,41.461C95.912,40.965 94.862,40.519 93.793,40.137C93.36,39.983 92.883,40.209 92.728,40.642C92.574,41.075 92.8,41.553 93.233,41.707ZM184.499,41.761C185.598,41.701 186.701,41.662 187.806,41.633C188.266,41.621 188.629,41.238 188.617,40.778C188.605,40.319 188.222,39.955 187.762,39.967C186.642,39.996 185.523,40.036 184.408,40.097C183.949,40.122 183.596,40.516 183.621,40.975C183.647,41.434 184.04,41.786 184.499,41.761ZM194.473,41.494C195.598,41.461 196.717,41.416 197.83,41.348C198.289,41.32 198.639,40.924 198.611,40.465C198.583,40.006 198.187,39.656 197.728,39.685C196.633,39.752 195.531,39.796 194.425,39.828C193.965,39.841 193.603,40.225 193.616,40.685C193.63,41.145 194.014,41.507 194.473,41.494ZM204.554,40.538C205.674,40.318 206.781,40.047 207.87,39.715C208.31,39.58 208.558,39.114 208.424,38.674C208.29,38.234 207.824,37.986 207.384,38.121C206.348,38.437 205.297,38.693 204.233,38.903C203.781,38.991 203.487,39.43 203.576,39.881C203.664,40.332 204.103,40.627 204.554,40.538ZM83.767,40.475C84.859,40.362 85.923,40.339 86.964,40.397C87.423,40.423 87.816,40.07 87.842,39.611C87.867,39.152 87.515,38.758 87.056,38.733C85.929,38.671 84.777,38.694 83.594,38.818C83.137,38.865 82.804,39.275 82.852,39.733C82.9,40.19 83.31,40.523 83.767,40.475ZM214.132,36.905C214.169,36.882 214.205,36.86 214.242,36.837C215.186,36.244 216.074,35.58 216.918,34.86C217.268,34.561 217.309,34.035 217.011,33.685C216.712,33.335 216.186,33.294 215.836,33.592C215.054,34.26 214.231,34.876 213.356,35.425C213.322,35.446 213.288,35.468 213.253,35.489C212.863,35.731 212.742,36.246 212.985,36.636C213.227,37.027 213.741,37.148 214.132,36.905ZM221.601,29.913C222.301,29.043 222.981,28.15 223.654,27.248C223.929,26.879 223.853,26.357 223.484,26.082C223.115,25.807 222.593,25.883 222.318,26.251C221.658,27.137 220.99,28.014 220.303,28.868C220.014,29.226 220.071,29.751 220.429,30.039C220.788,30.328 221.313,30.271 221.601,29.913ZM280,27.553C279.978,27.553 279.955,27.554 279.933,27.557C278.846,27.675 277.761,27.733 276.698,27.73C276.238,27.729 275.864,28.102 275.863,28.562C275.862,29.022 276.234,29.396 276.694,29.397C277.781,29.399 278.889,29.343 280,29.226L280,27.553ZM266.61,27.097C267.14,27.428 267.726,27.727 268.381,27.986C268.857,28.174 269.356,28.344 269.875,28.495C270.317,28.624 270.78,28.369 270.908,27.928C271.037,27.486 270.782,27.023 270.341,26.895C269.873,26.759 269.423,26.606 268.994,26.436C268.44,26.217 267.943,25.965 267.494,25.684C267.105,25.44 266.59,25.558 266.346,25.948C266.102,26.338 266.22,26.853 266.61,27.097ZM50.642,22.793C49.569,22.726 48.547,22.528 47.565,22.225C47.125,22.089 46.659,22.336 46.523,22.776C46.387,23.215 46.634,23.682 47.074,23.818C48.179,24.158 49.329,24.381 50.537,24.457C50.996,24.486 51.392,24.136 51.421,23.677C51.45,23.218 51.101,22.822 50.642,22.793ZM59.558,20.264C58.67,20.874 57.765,21.387 56.798,21.785C56.373,21.96 56.17,22.447 56.345,22.873C56.52,23.298 57.007,23.501 57.433,23.326C58.508,22.883 59.514,22.316 60.502,21.638C60.881,21.377 60.977,20.858 60.717,20.479C60.457,20.1 59.937,20.004 59.558,20.264ZM227.637,21.931C228.32,21.066 229.018,20.224 229.744,19.421C230.052,19.08 230.026,18.553 229.685,18.244C229.344,17.936 228.816,17.962 228.508,18.303C227.757,19.133 227.034,20.004 226.329,20.899C226.044,21.26 226.106,21.784 226.467,22.069C226.828,22.354 227.352,22.292 227.637,21.931ZM260.434,18.913C261.029,19.86 261.539,20.829 262.064,21.771C262.288,22.172 262.796,22.316 263.197,22.092C263.599,21.868 263.743,21.36 263.519,20.959C262.98,19.992 262.456,18.998 261.845,18.026C261.6,17.637 261.086,17.52 260.696,17.764C260.307,18.009 260.189,18.524 260.434,18.913ZM41.933,19.259C41.063,18.629 40.212,17.944 39.369,17.231C39.018,16.934 38.491,16.978 38.194,17.329C37.897,17.68 37.941,18.206 38.292,18.503C39.167,19.244 40.052,19.954 40.956,20.609C41.328,20.879 41.85,20.795 42.119,20.423C42.389,20.051 42.306,19.529 41.933,19.259ZM-0,16.995C0.122,17.231 0.126,17.517 -0,17.76L-0,16.995ZM234.58,15.184C235.46,14.615 236.393,14.118 237.392,13.71C237.817,13.535 238.021,13.048 237.847,12.623C237.673,12.197 237.186,11.993 236.76,12.167C235.665,12.615 234.641,13.16 233.676,13.784C233.289,14.034 233.178,14.55 233.428,14.936C233.678,15.323 234.194,15.434 234.58,15.184ZM253.156,13.252C254.173,13.595 255.143,14.024 256.039,14.545C256.436,14.777 256.947,14.642 257.178,14.244C257.41,13.847 257.275,13.336 256.877,13.105C255.886,12.528 254.814,12.052 253.689,11.672C253.253,11.525 252.78,11.76 252.633,12.196C252.486,12.631 252.72,13.105 253.156,13.252ZM34.38,12.826C33.527,12.083 32.662,11.357 31.778,10.67C31.415,10.388 30.891,10.454 30.609,10.817C30.327,11.18 30.392,11.704 30.756,11.986C31.616,12.654 32.456,13.361 33.286,14.083C33.633,14.385 34.16,14.349 34.462,14.002C34.764,13.655 34.727,13.128 34.38,12.826ZM5.964,9.79C5.653,10.009 5.348,10.237 5.049,10.474C4.449,10.95 3.864,11.431 3.296,11.924C2.949,12.225 2.912,12.752 3.213,13.099C3.514,13.447 4.041,13.484 4.389,13.183C4.938,12.706 5.503,12.241 6.083,11.781C6.358,11.563 6.639,11.354 6.924,11.153C7.3,10.888 7.39,10.367 7.125,9.991C6.861,9.616 6.34,9.525 5.964,9.79ZM243.622,12.262C244.681,12.164 245.764,12.13 246.848,12.166C247.308,12.181 247.693,11.82 247.708,11.36C247.724,10.901 247.363,10.515 246.903,10.5C245.749,10.462 244.596,10.498 243.469,10.602C243.011,10.644 242.674,11.05 242.716,11.508C242.758,11.966 243.164,12.304 243.622,12.262ZM166.935,10.128C165.846,10.067 164.76,9.967 163.666,9.838C163.209,9.784 162.795,10.111 162.741,10.568C162.687,11.025 163.014,11.439 163.471,11.493C164.599,11.626 165.719,11.729 166.842,11.792C167.301,11.817 167.695,11.465 167.721,11.006C167.746,10.547 167.394,10.153 166.935,10.128ZM176.771,9.719C175.678,9.847 174.585,9.951 173.49,10.03C173.032,10.062 172.686,10.462 172.719,10.92C172.751,11.379 173.151,11.725 173.609,11.692C174.728,11.612 175.847,11.505 176.965,11.375C177.422,11.321 177.749,10.907 177.696,10.45C177.642,9.993 177.228,9.666 176.771,9.719ZM186.534,8.024C185.456,8.265 184.377,8.491 183.295,8.699C182.844,8.786 182.548,9.224 182.635,9.675C182.722,10.127 183.159,10.423 183.611,10.336C184.708,10.124 185.804,9.895 186.898,9.65C187.347,9.55 187.63,9.104 187.529,8.655C187.429,8.206 186.983,7.923 186.534,8.024ZM157.251,8.583C156.223,8.303 155.173,7.98 154.125,7.613C153.691,7.461 153.215,7.69 153.063,8.124C152.911,8.558 153.14,9.034 153.574,9.186C154.66,9.566 155.748,9.901 156.814,10.191C157.257,10.312 157.716,10.049 157.836,9.606C157.957,9.162 157.695,8.704 157.251,8.583ZM25.816,7.218C24.727,6.811 23.61,6.5 22.476,6.281C22.024,6.194 21.587,6.491 21.5,6.942C21.413,7.394 21.709,7.831 22.161,7.918C23.203,8.119 24.231,8.405 25.232,8.779C25.663,8.941 26.144,8.721 26.305,8.291C26.466,7.86 26.247,7.379 25.816,7.218ZM15.575,6.079C14.43,6.228 13.297,6.467 12.189,6.794C11.748,6.924 11.495,7.388 11.625,7.829C11.756,8.27 12.219,8.523 12.661,8.392C13.684,8.09 14.732,7.869 15.79,7.732C16.246,7.672 16.568,7.254 16.509,6.798C16.45,6.342 16.031,6.02 15.575,6.079ZM196.165,5.528C195.101,5.834 194.035,6.134 192.967,6.423C192.523,6.543 192.26,7.002 192.381,7.445C192.501,7.889 192.959,8.152 193.403,8.032C194.48,7.74 195.554,7.438 196.626,7.13C197.068,7.003 197.323,6.54 197.196,6.098C197.069,5.657 196.607,5.401 196.165,5.528ZM148.189,4.952C147.238,4.407 146.336,3.816 145.507,3.177C145.143,2.896 144.619,2.963 144.338,3.327C144.057,3.691 144.124,4.215 144.488,4.496C145.376,5.181 146.342,5.815 147.361,6.398C147.76,6.627 148.269,6.488 148.498,6.089C148.727,5.69 148.588,5.181 148.189,4.952ZM205.719,2.636C204.662,2.964 203.601,3.294 202.537,3.621C202.097,3.756 201.85,4.223 201.985,4.662C202.12,5.102 202.587,5.349 203.027,5.214C204.092,4.886 205.154,4.557 206.213,4.228C206.652,4.092 206.898,3.624 206.762,3.185C206.626,2.746 206.158,2.5 205.719,2.636ZM214.196,0.05C213.496,0.257 212.797,0.466 212.098,0.676C211.658,0.809 211.408,1.274 211.541,1.715C211.673,2.155 212.139,2.405 212.579,2.272C213.641,1.952 214.704,1.636 215.768,1.324C216.21,1.194 216.463,0.731 216.333,0.29C216.308,0.202 216.269,0.121 216.219,0.05L214.196,0.05Z" style="fill:#ff7ea4;"/>
        </g>
        <g transform="matrix(0.98503,0.172382,-0.172382,0.98503,5.12926,-11.8835)">
            <g transform="matrix(1,0,0,1,0,8.7)">
                <path d="M64.804,17.098L66.675,22.295L83.092,7.377L64.804,17.098Z" style="fill:#b1c6e3;"/>
            </g>
            <g transform="matrix(1,0,0,1,0,8.7)">
                <path d="M83.092,7.377L82.035,8.084L64.804,17.098L58.879,15.468L83.092,7.377Z" style="fill:#fff;"/>
            </g>
            <g transform="matrix(0.280795,-0.33156,0.33156,0.280795,28.0224,38.9565)">
                <g transform="matrix(1,0,0,1,-6.1026,3.70657)">
                    <path d="M100.201,33.219C100.201,32.881 99.926,32.606 99.588,32.606L74.561,32.606C74.223,32.606 73.948,32.881 73.948,33.219L73.948,47.827C73.948,48.165 74.223,48.44 74.561,48.44L99.588,48.44C99.926,48.44 100.201,48.165 100.201,47.827L100.201,33.219Z" style="fill:#dfdfdf;"/>
                </g>
                <g transform="matrix(1,0,0,1,0,8.7)">
                    <path d="M67.845,28.225L67.845,28.655L80.972,37.273L94.098,28.655L94.098,28.225C94.098,27.887 93.823,27.612 93.485,27.612L68.458,27.612C68.12,27.612 67.845,27.887 67.845,28.225Z" style="fill:#fff;"/>
                </g>
                <g transform="matrix(0.114398,-0.00928526,0.00928526,0.114398,77.1302,41.2742)">
                    <path d="M30.543,19.78C31.063,18.892 32.027,18.295 33.13,18.295C33.502,18.295 33.859,18.364 34.189,18.488C34.323,16.959 35.609,15.758 37.173,15.758C38.02,15.758 38.785,16.11 39.33,16.676C39.864,15.848 40.794,15.299 41.851,15.299C43.099,15.299 44.171,16.065 44.621,17.152C45.127,16.761 45.761,16.528 46.449,16.528C47.877,16.528 49.072,17.529 49.373,18.866C49.631,18.793 49.903,18.754 50.184,18.754C51.838,18.754 53.181,20.097 53.181,21.751C53.181,22.026 53.143,22.292 53.074,22.545C54.546,22.734 55.686,23.993 55.686,25.517C55.686,26.442 55.266,27.27 54.606,27.82C55.807,28.21 56.677,29.339 56.677,30.67C56.677,31.881 55.957,32.925 54.922,33.398C55.397,33.928 55.686,34.628 55.686,35.395C55.686,36.818 54.693,38.01 53.363,38.316C53.751,38.82 53.981,39.452 53.981,40.138C53.981,41.791 52.639,43.134 50.985,43.134C50.762,43.134 50.544,43.109 50.334,43.063C50.742,43.575 50.985,44.222 50.985,44.926C50.985,46.58 49.643,47.922 47.989,47.922C47.485,47.922 47.009,47.797 46.592,47.577C46.741,47.932 46.823,48.323 46.823,48.732C46.823,50.386 45.48,51.728 43.827,51.728C43.311,51.728 42.825,51.597 42.401,51.367C42.467,51.614 42.502,51.874 42.502,52.141C42.502,53.795 41.159,55.137 39.506,55.137C39.007,55.137 38.536,55.015 38.122,54.799C38.135,54.91 38.141,55.023 38.141,55.137C38.141,56.791 36.799,58.133 35.145,58.133C34.479,58.133 33.864,57.916 33.366,57.548C32.947,58.698 31.844,59.521 30.549,59.521L30.537,59.521C29.242,59.521 28.138,58.698 27.72,57.548C27.222,57.916 26.607,58.133 25.941,58.133C24.287,58.133 22.945,56.791 22.945,55.137C22.945,55.023 22.951,54.91 22.964,54.799C22.55,55.015 22.079,55.137 21.58,55.137C19.926,55.137 18.584,53.795 18.584,52.141C18.584,51.874 18.619,51.614 18.685,51.367C18.261,51.597 17.775,51.728 17.259,51.728C15.605,51.728 14.263,50.386 14.263,48.732C14.263,48.323 14.345,47.932 14.494,47.577C14.077,47.797 13.601,47.922 13.097,47.922C11.443,47.922 10.1,46.58 10.1,44.926C10.1,44.222 10.344,43.575 10.751,43.063C10.542,43.109 10.324,43.134 10.1,43.134C8.447,43.134 7.104,41.791 7.104,40.138C7.104,39.452 7.335,38.82 7.723,38.316C6.393,38.01 5.4,36.818 5.4,35.395C5.4,34.628 5.689,33.928 6.164,33.398C5.129,32.925 4.409,31.881 4.409,30.67C4.409,29.339 5.278,28.21 6.48,27.82C5.82,27.27 5.4,26.442 5.4,25.517C5.4,23.993 6.539,22.734 8.012,22.545C7.942,22.292 7.905,22.026 7.905,21.751C7.905,20.097 9.248,18.754 10.901,18.754C11.183,18.754 11.455,18.793 11.713,18.866C12.013,17.529 13.209,16.528 14.636,16.528C15.325,16.528 15.959,16.761 16.465,17.152C16.915,16.065 17.986,15.299 19.235,15.299C20.292,15.299 21.222,15.848 21.755,16.676C22.301,16.11 23.066,15.758 23.913,15.758C25.477,15.758 26.762,16.959 26.897,18.488C27.227,18.364 27.583,18.295 27.956,18.295C29.059,18.295 30.023,18.892 30.543,19.78ZM49.475,24.662C48.374,24.394 47.51,23.517 47.261,22.409C47.003,22.482 46.731,22.52 46.449,22.52C45.201,22.52 44.129,21.755 43.68,20.668C43.173,21.059 42.539,21.292 41.851,21.292C41.004,21.292 40.239,20.939 39.694,20.374C39.16,21.202 38.23,21.751 37.173,21.751C36.8,21.751 36.443,21.682 36.114,21.558C35.979,23.087 34.694,24.288 33.13,24.288C32.683,24.288 32.258,24.19 31.877,24.014C31.672,24.229 31.471,24.455 31.273,24.691C31.161,24.826 31.017,24.928 30.857,24.992C30.737,25.039 30.607,25.065 30.474,25.065L30.403,25.062L30.324,25.054L30.182,25.023L30.042,24.971L29.885,24.883L29.744,24.766L29.674,24.691C29.49,24.47 29.302,24.259 29.111,24.057C28.756,24.205 28.365,24.288 27.956,24.288C26.392,24.288 25.106,23.087 24.972,21.558C24.642,21.682 24.285,21.751 23.913,21.751C22.855,21.751 21.925,21.202 21.392,20.374C20.847,20.939 20.082,21.292 19.235,21.292C18.547,21.292 17.912,21.059 17.406,20.668C16.956,21.755 15.885,22.52 14.636,22.52C14.355,22.52 14.083,22.482 13.825,22.409C13.564,23.571 12.627,24.478 11.45,24.696C11.408,24.761 11.367,24.826 11.326,24.891C11.369,25.093 11.392,25.302 11.392,25.517C11.392,26.537 10.881,27.439 10.101,27.98C10.025,28.328 9.966,28.683 9.922,29.046C10.225,29.514 10.401,30.072 10.401,30.67C10.401,31.255 10.233,31.801 9.942,32.263C9.967,32.469 9.997,32.676 10.031,32.885C10.85,33.42 11.392,34.345 11.392,35.395C11.392,35.857 11.287,36.294 11.101,36.684C11.201,36.938 11.308,37.193 11.421,37.448C12.413,37.936 13.097,38.958 13.097,40.138C13.097,40.271 13.088,40.402 13.071,40.531L13.072,40.533C13.386,41.064 13.752,41.596 14.162,42.125C15.074,42.473 15.774,43.254 16.008,44.216C16.522,44.736 17.071,45.252 17.647,45.761C18.79,45.909 19.732,46.702 20.095,47.763C20.726,48.245 21.376,48.718 22.039,49.18C22.929,49.317 23.691,49.847 24.141,50.587C25.092,51.197 26.053,51.783 27.006,52.337C27.301,52.449 27.574,52.607 27.816,52.801C28.377,53.119 28.935,53.426 29.484,53.719C29.811,53.596 30.166,53.529 30.537,53.529L30.549,53.529C30.888,53.529 31.215,53.585 31.519,53.689C33.317,52.726 35.203,51.626 37.045,50.432C37.468,49.824 38.11,49.381 38.857,49.216C39.605,48.695 40.338,48.16 41.047,47.613C41.423,46.68 42.256,45.979 43.268,45.788C43.93,45.205 44.556,44.613 45.134,44.015C45.389,43.219 45.967,42.566 46.715,42.214C47.158,41.65 47.551,41.083 47.885,40.517C47.89,40.509 47.895,40.501 47.9,40.493L47.996,40.339C47.991,40.272 47.989,40.205 47.989,40.138C47.989,39.031 48.59,38.064 49.484,37.545C49.637,37.202 49.78,36.86 49.912,36.519C49.771,36.172 49.694,35.793 49.694,35.395C49.694,34.413 50.168,33.54 50.899,32.994C50.952,32.681 50.995,32.371 51.029,32.064C50.809,31.648 50.685,31.173 50.685,30.67C50.685,30.153 50.816,29.666 51.047,29.242C50.998,28.767 50.922,28.305 50.819,27.856C50.133,27.307 49.694,26.463 49.694,25.517C49.694,25.364 49.705,25.215 49.727,25.068C49.647,24.93 49.562,24.795 49.475,24.662Z" style="fill:#fff;"/>
                    <g transform="matrix(1,0,0,1,-0.995214,0.296963)">
                        <path d="M32.174,56.936C32.578,57.228 32.67,57.793 32.378,58.197C32.087,58.601 31.522,58.693 31.118,58.401C30.713,58.11 30.622,57.545 30.913,57.14C31.205,56.736 31.77,56.645 32.174,56.936ZM30.305,56.404C30.529,56.566 30.58,56.879 30.418,57.103C30.257,57.327 29.944,57.378 29.719,57.216C29.495,57.054 29.445,56.741 29.606,56.517C29.768,56.293 30.081,56.242 30.305,56.404ZM33.52,56.299C33.744,56.46 33.795,56.773 33.633,56.997C33.472,57.222 33.158,57.272 32.934,57.111C32.71,56.949 32.66,56.636 32.821,56.412C32.983,56.188 33.296,56.137 33.52,56.299ZM36.822,54.97C37.315,55.045 37.654,55.506 37.579,55.999C37.504,56.492 37.043,56.831 36.55,56.756C36.057,56.681 35.718,56.22 35.793,55.728C35.868,55.235 36.329,54.896 36.822,54.97ZM26.23,54.97C25.737,55.045 25.398,55.506 25.473,55.999C25.548,56.492 26.009,56.831 26.502,56.756C26.995,56.681 27.334,56.22 27.259,55.728C27.184,55.235 26.723,54.896 26.23,54.97ZM34.916,55.35C35.189,55.391 35.377,55.647 35.335,55.92C35.294,56.193 35.038,56.381 34.765,56.34C34.492,56.298 34.304,56.043 34.346,55.769C34.387,55.496 34.643,55.308 34.916,55.35ZM28.136,55.35C27.863,55.391 27.675,55.647 27.717,55.92C27.758,56.193 28.014,56.381 28.287,56.34C28.56,56.298 28.748,56.043 28.706,55.769C28.665,55.496 28.409,55.308 28.136,55.35ZM37.728,53.789C38.002,53.831 38.19,54.086 38.148,54.359C38.107,54.632 37.851,54.82 37.578,54.779C37.305,54.737 37.117,54.482 37.158,54.209C37.2,53.936 37.455,53.748 37.728,53.789ZM25.324,53.789C25.051,53.831 24.863,54.086 24.904,54.359C24.946,54.632 25.201,54.82 25.474,54.779C25.747,54.737 25.935,54.482 25.894,54.209C25.852,53.936 25.597,53.748 25.324,53.789ZM41.311,51.942C41.81,51.931 42.223,52.327 42.234,52.825C42.245,53.323 41.85,53.737 41.351,53.748C40.853,53.759 40.439,53.363 40.428,52.865C40.417,52.367 40.813,51.953 41.311,51.942ZM21.741,51.942C21.242,51.931 20.829,52.327 20.818,52.825C20.807,53.323 21.202,53.737 21.701,53.748C22.199,53.759 22.613,53.363 22.624,52.865C22.635,52.367 22.239,51.953 21.741,51.942ZM39.499,52.644C39.775,52.638 40.005,52.857 40.011,53.133C40.017,53.409 39.798,53.639 39.521,53.645C39.245,53.651 39.016,53.432 39.01,53.155C39.004,52.879 39.223,52.65 39.499,52.644ZM23.553,52.644C23.277,52.638 23.047,52.857 23.041,53.133C23.035,53.409 23.254,53.639 23.531,53.645C23.807,53.651 24.036,53.432 24.042,53.155C24.048,52.879 23.829,52.65 23.553,52.644ZM42.001,50.622C42.277,50.616 42.507,50.835 42.513,51.112C42.519,51.388 42.299,51.617 42.023,51.623C41.747,51.629 41.518,51.41 41.512,51.134C41.506,50.858 41.725,50.628 42.001,50.622ZM21.051,50.622C20.775,50.616 20.546,50.835 20.539,51.112C20.533,51.388 20.753,51.617 21.029,51.623C21.305,51.629 21.534,51.41 21.54,51.134C21.546,50.858 21.327,50.628 21.051,50.622ZM45.525,48.407C46.023,48.392 46.44,48.784 46.455,49.283C46.47,49.781 46.078,50.198 45.58,50.213C45.081,50.228 44.665,49.835 44.65,49.337C44.635,48.839 45.027,48.422 45.525,48.407ZM17.527,48.407C17.029,48.392 16.612,48.784 16.597,49.283C16.582,49.781 16.974,50.198 17.472,50.213C17.971,50.228 18.387,49.835 18.402,49.337C18.417,48.839 18.025,48.422 17.527,48.407ZM43.719,49.123C43.995,49.115 44.226,49.333 44.234,49.609C44.242,49.885 44.025,50.116 43.749,50.124C43.473,50.132 43.242,49.915 43.233,49.639C43.225,49.363 43.443,49.132 43.719,49.123ZM19.333,49.123C19.057,49.115 18.826,49.333 18.818,49.609C18.81,49.885 19.027,50.116 19.303,50.124C19.579,50.132 19.81,49.915 19.819,49.639C19.827,49.363 19.61,49.132 19.333,49.123ZM46.204,47.082C46.48,47.073 46.711,47.291 46.72,47.567C46.728,47.843 46.511,48.074 46.235,48.082C45.958,48.091 45.727,47.873 45.719,47.597C45.711,47.321 45.928,47.09 46.204,47.082ZM16.848,47.082C16.572,47.073 16.341,47.291 16.332,47.567C16.324,47.843 16.541,48.074 16.818,48.082C17.094,48.091 17.325,47.873 17.333,47.597C17.341,47.321 17.124,47.09 16.848,47.082ZM47.923,45.366C48.191,45.298 48.463,45.461 48.531,45.729C48.598,45.997 48.436,46.269 48.168,46.336C47.9,46.404 47.628,46.242 47.56,45.974C47.493,45.706 47.655,45.434 47.923,45.366ZM15.129,45.366C14.861,45.298 14.589,45.461 14.521,45.729C14.454,45.997 14.616,46.269 14.884,46.336C15.152,46.404 15.424,46.242 15.492,45.974C15.56,45.706 15.397,45.434 15.129,45.366ZM49.533,44.277C50.016,44.155 50.508,44.448 50.63,44.932C50.752,45.415 50.458,45.907 49.975,46.029C49.491,46.151 49,45.857 48.878,45.374C48.756,44.891 49.049,44.399 49.533,44.277ZM13.519,44.277C13.036,44.155 12.545,44.448 12.423,44.932C12.301,45.415 12.594,45.907 13.077,46.029C13.561,46.151 14.052,45.857 14.174,45.374C14.296,44.891 14.003,44.399 13.519,44.277ZM49.91,42.837C50.178,42.769 50.451,42.932 50.518,43.199C50.586,43.467 50.423,43.74 50.155,43.807C49.888,43.875 49.615,43.712 49.548,43.444C49.48,43.177 49.643,42.904 49.91,42.837ZM13.142,42.837C12.874,42.769 12.602,42.932 12.534,43.199C12.466,43.467 12.629,43.74 12.897,43.807C13.165,43.875 13.437,43.712 13.504,43.444C13.572,43.177 13.41,42.904 13.142,42.837ZM51.217,40.875C51.462,40.746 51.765,40.84 51.893,41.085C52.022,41.329 51.928,41.632 51.684,41.761C51.439,41.89 51.136,41.796 51.008,41.551C50.879,41.307 50.973,41.004 51.217,40.875ZM11.835,40.875C11.59,40.746 11.287,40.84 11.159,41.085C11.03,41.329 11.124,41.632 11.368,41.761C11.613,41.89 11.916,41.796 12.044,41.551C12.173,41.307 12.079,41.004 11.835,40.875ZM52.526,39.438C52.967,39.206 53.514,39.376 53.746,39.817C53.978,40.258 53.809,40.804 53.368,41.037C52.926,41.269 52.38,41.099 52.148,40.658C51.915,40.217 52.085,39.671 52.526,39.438ZM10.526,39.438C10.085,39.206 9.538,39.376 9.306,39.817C9.074,40.258 9.243,40.804 9.685,41.037C10.126,41.269 10.672,41.099 10.905,40.658C11.137,40.217 10.967,39.671 10.526,39.438ZM52.554,37.949C52.799,37.821 53.102,37.915 53.23,38.159C53.359,38.404 53.265,38.706 53.021,38.835C52.776,38.964 52.473,38.87 52.345,38.626C52.216,38.381 52.31,38.078 52.554,37.949ZM10.498,37.949C10.253,37.821 9.95,37.915 9.822,38.159C9.693,38.404 9.787,38.706 10.031,38.835C10.276,38.964 10.579,38.87 10.707,38.626C10.836,38.381 10.742,38.078 10.498,37.949ZM53.187,36.322C53.387,36.131 53.704,36.14 53.894,36.34C54.084,36.541 54.076,36.858 53.875,37.048C53.675,37.238 53.358,37.23 53.168,37.029C52.978,36.829 52.986,36.512 53.187,36.322ZM9.866,36.322C9.665,36.131 9.348,36.14 9.158,36.34C8.968,36.541 8.976,36.858 9.177,37.048C9.377,37.238 9.694,37.23 9.884,37.029C10.074,36.829 10.066,36.512 9.866,36.322ZM54.057,34.584C54.419,34.241 54.991,34.256 55.334,34.618C55.677,34.98 55.662,35.552 55.3,35.895C54.938,36.238 54.366,36.223 54.023,35.861C53.68,35.499 53.695,34.927 54.057,34.584ZM8.995,34.584C8.633,34.241 8.061,34.256 7.718,34.618C7.375,34.98 7.39,35.552 7.752,35.895C8.114,36.238 8.686,36.223 9.029,35.861C9.372,35.499 9.357,34.927 8.995,34.584ZM53.681,33.143C53.882,32.953 54.199,32.962 54.389,33.162C54.579,33.362 54.571,33.679 54.37,33.87C54.17,34.06 53.853,34.051 53.663,33.851C53.472,33.65 53.481,33.333 53.681,33.143ZM9.371,33.143C9.17,32.953 8.853,32.962 8.663,33.162C8.473,33.362 8.481,33.679 8.682,33.87C8.882,34.06 9.199,34.051 9.39,33.851C9.58,33.65 9.571,33.333 9.371,33.143ZM54.264,31.492C54.414,31.26 54.725,31.194 54.956,31.344C55.188,31.495 55.254,31.805 55.103,32.037C54.953,32.268 54.643,32.334 54.411,32.184C54.179,32.033 54.113,31.723 54.264,31.492ZM8.788,31.492C8.638,31.26 8.328,31.194 8.096,31.344C7.864,31.495 7.798,31.805 7.949,32.037C8.099,32.268 8.409,32.334 8.641,32.184C8.873,32.033 8.939,31.723 8.788,31.492ZM54.704,29.599C54.975,29.18 55.535,29.061 55.953,29.333C56.371,29.604 56.49,30.164 56.219,30.582C55.948,31 55.388,31.119 54.97,30.848C54.552,30.577 54.432,30.017 54.704,29.599ZM8.348,29.599C8.077,29.18 7.517,29.061 7.099,29.333C6.681,29.604 6.562,30.164 6.833,30.582C7.105,31 7.664,31.119 8.082,30.848C8.501,30.577 8.62,30.017 8.348,29.599ZM54.001,28.286C54.152,28.054 54.462,27.988 54.694,28.138C54.925,28.289 54.991,28.599 54.841,28.831C54.691,29.062 54.38,29.128 54.149,28.978C53.917,28.828 53.851,28.517 54.001,28.286ZM9.051,28.286C8.9,28.054 8.59,27.988 8.358,28.138C8.127,28.289 8.061,28.599 8.211,28.831C8.362,29.062 8.672,29.128 8.903,28.978C9.135,28.828 9.201,28.517 9.051,28.286ZM53.892,26.436C53.973,26.171 54.252,26.022 54.517,26.102C54.781,26.182 54.93,26.462 54.85,26.727C54.77,26.991 54.49,27.14 54.226,27.06C53.961,26.98 53.812,26.7 53.892,26.436ZM9.16,26.436C9.08,26.171 8.8,26.022 8.535,26.102C8.271,26.182 8.122,26.462 8.202,26.727C8.282,26.991 8.562,27.14 8.826,27.06C9.091,26.98 9.24,26.7 9.16,26.436ZM53.79,24.495C53.935,24.018 54.44,23.748 54.917,23.893C55.394,24.038 55.663,24.543 55.519,25.02C55.374,25.497 54.869,25.767 54.392,25.622C53.915,25.477 53.645,24.972 53.79,24.495ZM9.262,24.495C9.117,24.018 8.612,23.748 8.135,23.893C7.658,24.038 7.389,24.543 7.534,25.02C7.678,25.497 8.183,25.767 8.66,25.622C9.137,25.477 9.407,24.972 9.262,24.495ZM52.751,23.428C52.831,23.164 53.111,23.015 53.375,23.095C53.64,23.175 53.789,23.455 53.709,23.719C53.629,23.984 53.349,24.133 53.084,24.053C52.82,23.972 52.671,23.693 52.751,23.428ZM10.301,23.428C10.221,23.164 9.941,23.015 9.677,23.095C9.413,23.175 9.263,23.455 9.343,23.719C9.424,23.984 9.703,24.133 9.968,24.053C10.232,23.972 10.381,23.693 10.301,23.428ZM51.895,22.506C51.855,22.233 52.044,21.978 52.318,21.938C52.591,21.898 52.846,22.087 52.886,22.361C52.926,22.634 52.737,22.889 52.463,22.929C52.19,22.969 51.936,22.78 51.895,22.506ZM11.157,22.506C11.197,22.233 11.008,21.978 10.734,21.938C10.461,21.898 10.207,22.087 10.166,22.361C10.126,22.634 10.315,22.889 10.589,22.929C10.862,22.969 11.117,22.78 11.157,22.506ZM32.455,21.575C32.183,21.529 31.998,21.271 32.044,20.999C32.089,20.726 32.347,20.542 32.619,20.587C32.892,20.632 33.076,20.89 33.031,21.163C32.986,21.435 32.728,21.62 32.455,21.575ZM30.597,21.575C30.869,21.529 31.054,21.271 31.008,20.999C30.963,20.726 30.705,20.542 30.433,20.587C30.16,20.632 29.976,20.89 30.021,21.163C30.066,21.435 30.324,21.62 30.597,21.575ZM50.975,20.795C50.903,20.301 51.244,19.842 51.737,19.77C52.231,19.697 52.69,20.039 52.762,20.532C52.835,21.025 52.493,21.484 52,21.557C51.507,21.629 51.048,21.288 50.975,20.795ZM12.077,20.795C12.15,20.301 11.808,19.842 11.315,19.77C10.822,19.697 10.362,20.039 10.29,20.532C10.217,21.025 10.559,21.484 11.052,21.557C11.545,21.629 12.005,21.288 12.077,20.795ZM49.58,20.273C49.54,20 49.729,19.745 50.003,19.705C50.276,19.665 50.53,19.854 50.571,20.128C50.611,20.401 50.421,20.655 50.148,20.696C49.875,20.736 49.62,20.546 49.58,20.273ZM13.472,20.273C13.512,20 13.323,19.745 13.049,19.705C12.776,19.665 12.522,19.854 12.481,20.128C12.441,20.401 12.631,20.655 12.904,20.696C13.177,20.736 13.432,20.546 13.472,20.273ZM33.378,20.406C32.886,20.324 32.554,19.859 32.635,19.367C32.717,18.875 33.182,18.542 33.674,18.624C34.166,18.706 34.499,19.171 34.417,19.663C34.335,20.155 33.87,20.488 33.378,20.406ZM29.674,20.406C30.166,20.324 30.499,19.859 30.417,19.367C30.335,18.875 29.87,18.542 29.378,18.624C28.886,18.706 28.553,19.171 28.635,19.663C28.717,20.155 29.182,20.488 29.674,20.406ZM27.763,20.053C28.035,20.007 28.22,19.749 28.175,19.477C28.129,19.204 27.871,19.02 27.599,19.065C27.326,19.11 27.142,19.368 27.187,19.641C27.232,19.913 27.49,20.098 27.763,20.053ZM35.289,20.053C35.017,20.007 34.832,19.749 34.877,19.477C34.923,19.204 35.181,19.02 35.453,19.065C35.726,19.11 35.91,19.368 35.865,19.641C35.82,19.913 35.562,20.098 35.289,20.053ZM48.634,19.652C48.483,19.421 48.548,19.111 48.78,18.96C49.011,18.809 49.322,18.875 49.472,19.106C49.623,19.337 49.558,19.648 49.326,19.799C49.095,19.949 48.784,19.884 48.634,19.652ZM14.418,19.652C14.569,19.421 14.504,19.111 14.272,18.96C14.041,18.809 13.73,18.875 13.58,19.106C13.429,19.337 13.494,19.648 13.726,19.799C13.957,19.949 14.268,19.884 14.418,19.652ZM36.296,18.971C36.038,18.871 35.91,18.581 36.01,18.323C36.11,18.066 36.4,17.937 36.657,18.037C36.915,18.137 37.043,18.427 36.943,18.685C36.844,18.942 36.553,19.07 36.296,18.971ZM26.756,18.971C27.014,18.871 27.142,18.581 27.042,18.323C26.942,18.066 26.652,17.937 26.395,18.037C26.137,18.137 26.009,18.427 26.109,18.685C26.209,18.942 26.499,19.07 26.756,18.971ZM47.082,18.483C46.81,18.065 46.928,17.505 47.346,17.233C47.763,16.961 48.323,17.079 48.595,17.497C48.868,17.914 48.749,18.474 48.332,18.746C47.914,19.018 47.354,18.9 47.082,18.483ZM15.97,18.483C16.242,18.065 16.124,17.505 15.706,17.233C15.289,16.961 14.729,17.079 14.457,17.497C14.185,17.914 14.303,18.474 14.72,18.746C15.138,19.018 15.698,18.9 15.97,18.483ZM45.597,18.592C45.446,18.361 45.511,18.05 45.743,17.9C45.974,17.749 46.285,17.814 46.435,18.046C46.586,18.277 46.521,18.588 46.289,18.738C46.058,18.889 45.748,18.824 45.597,18.592ZM17.455,18.592C17.606,18.361 17.541,18.05 17.309,17.9C17.078,17.749 16.767,17.814 16.617,18.046C16.466,18.277 16.531,18.588 16.763,18.738C16.994,18.889 17.305,18.824 17.455,18.592ZM44.154,18.109C43.947,17.926 43.927,17.61 44.109,17.402C44.292,17.195 44.609,17.175 44.816,17.358C45.023,17.54 45.043,17.857 44.861,18.064C44.678,18.271 44.361,18.291 44.154,18.109ZM18.898,18.109C19.105,17.926 19.125,17.61 18.943,17.402C18.76,17.195 18.444,17.175 18.236,17.358C18.029,17.54 18.009,17.857 18.191,18.064C18.374,18.271 18.691,18.291 18.898,18.109ZM39.38,18.057C39.123,17.958 38.994,17.667 39.094,17.41C39.194,17.152 39.484,17.024 39.742,17.124C39.999,17.224 40.127,17.514 40.028,17.771C39.928,18.029 39.638,18.157 39.38,18.057ZM23.672,18.057C23.93,17.958 24.058,17.667 23.958,17.41C23.858,17.152 23.568,17.024 23.31,17.124C23.053,17.224 22.925,17.514 23.024,17.771C23.124,18.029 23.414,18.157 23.672,18.057ZM37.437,18.014C36.972,17.834 36.741,17.311 36.921,16.846C37.101,16.381 37.625,16.15 38.09,16.33C38.555,16.51 38.786,17.033 38.606,17.498C38.426,17.963 37.902,18.194 37.437,18.014ZM25.615,18.014C26.08,17.834 26.311,17.311 26.131,16.846C25.951,16.381 25.427,16.15 24.962,16.33C24.498,16.51 24.266,17.033 24.446,17.498C24.626,17.963 25.15,18.194 25.615,18.014ZM40.944,17.901C40.737,17.719 40.717,17.402 40.899,17.195C41.082,16.987 41.399,16.967 41.606,17.15C41.813,17.333 41.833,17.649 41.651,17.856C41.468,18.064 41.152,18.084 40.944,17.901ZM22.108,17.901C22.315,17.719 22.335,17.402 22.153,17.195C21.97,16.987 21.653,16.967 21.446,17.15C21.239,17.333 21.219,17.649 21.401,17.856C21.584,18.064 21.901,18.084 22.108,17.901ZM42.346,17.398C41.972,17.068 41.935,16.497 42.265,16.123C42.594,15.749 43.166,15.713 43.54,16.042C43.914,16.372 43.95,16.943 43.62,17.317C43.291,17.691 42.72,17.727 42.346,17.398ZM20.706,17.398C21.081,17.068 21.117,16.497 20.787,16.123C20.458,15.749 19.887,15.713 19.512,16.042C19.138,16.372 19.102,16.943 19.432,17.317C19.761,17.691 20.332,17.727 20.706,17.398Z" style="fill:#ff5e8e;"/>
                    </g>
                    <g transform="matrix(2.54737,0,0,2.54737,4.96559,-54.8229)">
                        <path d="M10.013,30.952C7.925,28.452 4.746,28.714 3.056,30.057C1.145,31.575 0.923,34.606 2.83,37.641C4.017,39.648 7.023,41.695 9.554,43.035C9.841,43.187 10.186,43.187 10.473,43.035C13.005,41.694 16.012,39.646 17.201,37.635C19.104,34.603 18.881,31.574 16.971,30.057C15.281,28.714 12.102,28.452 10.014,30.952L10.013,30.952Z" style="fill:#ee005f;"/>
                    </g>
                    <path d="M40.501,47.597C45.223,43.5 49.24,38.692 49.657,32.164C49.73,31.017 48.858,30.026 47.71,29.952C46.563,29.879 45.572,30.751 45.499,31.899C45.156,37.261 44.884,40.904 40.501,47.597M44.792,21.964C44.815,23.196 44.453,25.121 45.103,27.185C45.448,28.281 46.75,28.766 47.815,28.334C48.881,27.903 49.396,26.687 48.965,25.622C48.286,23.942 46.452,22.482 44.792,21.964" style="fill:#f06;"/>
                </g>
            </g>
            <g transform="matrix(1,0,0,1,1.77636e-15,8.7)">
                <path d="M66.469,17.694L66.675,22.295L83.092,7.377L66.469,17.694Z" style="fill:#d1e2f4;"/>
            </g>
            <g transform="matrix(1,0,0,1,0,8.7)">
                <path d="M74.141,20.446L66.469,17.694L82.035,8.084L83.092,7.377L74.141,20.446Z" style="fill:#fff;"/>
            </g>
        </g>
        <g>
            <g transform="matrix(1,0,0,1,0,8.7)">
                <path d="M151.388,61.3C151.726,58.973 153.636,56.936 156.074,56.239C159.182,55.351 162.16,56.274 164.288,58.409C164.368,58.336 164.449,58.263 164.53,58.191C165.287,53.278 168.301,49.187 172.836,46.605C178.342,43.471 185.259,43.37 189.331,48.081C190.301,46.987 191.271,45.899 192.352,44.995C198.155,40.145 206.66,37.348 214.172,39.225C217.794,40.13 220.581,42.185 222.084,45.618C222.473,46.505 222.756,47.425 222.949,48.367C224.817,47.939 227.051,48.798 227.561,50.757C228.574,50.602 229.596,50.512 230.649,50.65C232.3,50.866 232.719,52.389 234.25,52.187C237.529,51.755 240.299,49.614 243.638,49.24C245.405,49.042 247.415,49.107 249.087,49.777C249.344,49.881 249.595,50.002 249.834,50.142C250.698,49.003 252.177,48.335 253.655,48.376C254.43,46.967 255.055,45.441 255.778,44.096C257.787,40.357 260.341,36.901 263.811,34.398C265.73,33.014 268.429,31.551 270.892,32.097C273.041,32.572 274.361,34.465 274.667,36.531C276.473,36.172 278.499,36.725 280,38.073L280,56.586C280,59.188 277.888,61.3 275.286,61.3L151.388,61.3Z" style="fill:#fff;"/>
            </g>
            <g transform="matrix(1,0,0,1,0,8.7)">
                <path d="M111.287,61.3C112.641,60.272 113.818,59.161 115.855,58.885C118.316,58.551 120.014,59.621 121.105,61.3L111.287,61.3ZM100.886,61.3C102.122,60.374 103.219,59.262 105.082,59.455C106.279,59.579 107.355,60.262 108.194,61.092C108.251,61.149 108.303,61.22 108.351,61.3L100.886,61.3ZM-0,35.039C1.575,35.381 3.083,36.208 4.377,37.232C5.238,37.914 6.505,39.751 7.686,39.812C8.5,39.853 10.221,38.139 10.98,37.76C13.605,36.446 16.659,36.682 19.207,38.086C21.47,39.334 23.008,41.159 24.513,43.154C25.494,41.742 27.561,41.291 29.098,42.614C29.108,42.623 29.118,42.631 29.127,42.64C29.109,41.517 29.347,40.413 29.94,39.387C31.534,36.627 36.002,35.058 38.912,36.634C40.414,37.447 41.474,38.978 42.212,40.561C42.642,39.906 43.089,39.263 43.542,38.627C46.316,34.727 51.569,30.158 56.749,31.802C63.69,34.005 66.968,41.934 67.469,48.995C68.776,47.91 70.458,47.301 72.234,47.518C73.926,47.725 75.625,48.704 76.546,50.157C76.878,50.68 77.094,51.258 77.255,51.853C77.34,52.167 77.181,52.969 77.464,52.807C82.462,49.942 86.071,45.002 92.689,46.704C96.796,47.761 100.738,51.39 101.101,55.776C101.232,57.365 100.793,58.965 100.124,60.394C99.979,60.703 99.82,61.006 99.647,61.3L4.714,61.3C2.112,61.3 -0,59.188 -0,56.586L-0,35.039Z" style="fill:#fff;"/>
            </g>
            <g transform="matrix(1,0,0,1,0,8.7)">
                <path d="M168.615,61.3C169.202,59.986 170.133,58.787 171.018,57.707C175.18,52.628 185.444,47.132 190.576,54.138C190.633,54.215 191.039,55.06 191.084,55.064C191.563,55.107 192.323,54.474 192.693,54.238C193.725,53.583 194.754,52.92 195.99,52.746C196.465,52.68 196.986,52.726 197.414,52.956C197.635,53.075 197.748,53.528 197.987,53.448C199.425,52.972 200.64,50.638 201.723,49.623C204.703,46.832 208.902,44.803 213.053,45.019C216.756,45.213 220.624,47.443 222.003,51.027C222.525,52.386 222.537,53.791 222.24,55.2C222.14,55.676 222.023,56.149 221.88,56.614C221.811,56.842 221.44,57.394 221.656,57.294C223.39,56.487 224.798,55.618 226.762,56.357C227.716,56.716 228.39,58.247 229.378,58.12C231.96,57.787 234.256,56.05 236.884,55.661C238.149,55.474 239.411,55.485 240.616,55.953C241.074,56.131 241.848,56.963 242.302,56.963C243.916,56.962 245.52,55.151 247.206,54.861C249.689,54.434 251.98,55.596 254.441,55.51C257.716,55.395 259.26,53.388 261.623,51.566C262.127,51.179 263.289,51.195 263.525,50.915C264.553,49.697 264.891,47.917 265.877,46.615C266.371,45.962 266.928,45.34 267.575,44.835C267.778,44.676 268.368,44.504 268.509,44.326C269.953,42.494 270.588,40.477 273.503,41.047C275.662,41.47 278.011,42.937 280,44.809L280,56.586C280,59.188 277.888,61.3 275.286,61.3L168.615,61.3Z" style="fill:#fff5f5;"/>
            </g>
            <g transform="matrix(1,0,0,1,0,8.7)">
                <path d="M-0,43.863C1.148,43.741 2.348,43.862 3.515,44.226C5.442,44.826 7.17,46.018 8.814,47.155C10.359,48.224 11.821,49.397 12.965,50.902C13.384,51.452 13.741,52.045 14.095,52.637C14.243,52.885 14.387,53.608 14.552,53.372C15.075,52.622 15.118,51.503 15.434,50.659C16.088,48.91 17.487,47.237 19.274,46.574C20.136,46.255 21.053,46.215 21.902,46.592C22.239,46.742 22.552,46.948 22.836,47.183C22.853,47.196 23.263,47.592 23.272,47.586C23.388,47.513 24.108,48.65 24.762,49.699C25.187,49.303 25.862,49.128 26.403,49.317C26.939,49.504 27.416,49.878 27.847,50.236C28.026,50.384 28.205,50.53 28.387,50.675C28.393,50.68 28.527,50.788 28.529,50.785C28.686,50.595 28.786,50.346 28.939,50.147C29.512,49.398 30.376,48.664 31.396,48.904C32.191,49.092 32.65,49.684 32.807,50.467C32.863,50.75 32.887,51.039 32.903,51.327C32.904,51.348 32.929,51.82 32.932,51.82C33.555,51.752 34.05,51.143 34.729,51.364C34.974,51.444 35.18,51.647 35.287,51.88C35.352,52.021 35.36,52.326 35.565,52.326C35.911,52.325 36.264,52.081 36.595,51.991C37.392,51.774 38.295,51.57 39.136,51.604C39.738,51.138 40.202,50.788 40.239,50.798C40.796,50.946 41.568,50.187 41.932,49.88C43.135,48.865 44.302,47.839 45.736,47.152C46.489,46.79 47.414,46.471 48.243,46.762C48.812,46.962 49.139,47.693 49.764,47.634C51.984,47.426 53.371,45.657 55.768,46.377C58.479,47.193 60.205,49.313 60.896,51.972C61.168,53.018 61.438,54.059 61.674,55.114C61.738,55.396 61.796,55.984 62.079,56.166C62.669,56.546 63.644,55.89 64.149,55.625C65.563,54.883 66.961,54.285 68.595,54.336C71.164,54.415 73.234,56.657 75.76,56.758C77.482,56.826 79.011,55.45 80.793,55.404C81.481,55.386 82.237,55.465 82.858,55.785C83.461,56.096 84.599,56.567 84.599,56.567C84.599,56.567 87.329,52.016 90.994,52.016C94.219,52.016 97.404,54.265 97.314,56.989C97.28,57.992 97.052,59.833 96.482,61.3L4.714,61.3C2.112,61.3 -0,59.188 -0,56.586L-0,43.863Z" style="fill:#fff5f5;"/>
            </g>
        </g>
        <g transform="matrix(-0.990191,-0.139718,-0.139718,0.990191,271.089,7.77439)">
            <g transform="matrix(0.939375,-0.342892,0.342892,0.939375,-14.096,14.1625)">
                <g transform="matrix(0.939375,0.342892,-0.342892,0.939375,15.1145,-0.297943)">
                    <path d="M42.731,61.3L43.985,61.3C43.73,59.806 43.491,58.3 42.762,56.973C41.857,55.326 40.563,54.181 39.189,53.119C37.913,52.133 36.567,51.221 35.461,49.971C34.22,48.568 33.631,46.856 33.775,45.002C33.801,44.658 33.544,44.357 33.2,44.33C32.856,44.303 32.555,44.561 32.528,44.905C32.358,47.104 33.053,49.135 34.525,50.799C35.684,52.11 37.087,53.074 38.425,54.108C39.665,55.067 40.849,56.087 41.666,57.575C42.195,58.537 42.433,59.603 42.626,60.685C42.662,60.89 42.697,61.095 42.731,61.3Z" style="fill:#c07c00;"/>
                </g>
                <g transform="matrix(0.972613,0.23243,-0.23243,0.972613,7.72243,8.58436)">
                    <path d="M33.253,43.591C32.226,41.887 31.88,39.968 32.266,37.995C32.332,37.656 32.66,37.435 32.999,37.501C33.337,37.567 33.559,37.896 33.493,38.235C33.191,39.78 33.423,41.285 34.151,42.643C33.818,42.921 33.529,43.276 33.253,43.591Z" style="fill:#946000;"/>
                </g>
                <g transform="matrix(2.54737,1.44329e-15,-1.44329e-15,2.54737,4.96559,-54.8229)">
                    <path d="M10.013,30.952C7.925,28.452 4.746,28.714 3.056,30.057C1.145,31.575 0.923,34.606 2.83,37.641C4.017,39.648 7.023,41.695 9.554,43.035C9.841,43.187 10.186,43.187 10.473,43.035C13.005,41.694 16.012,39.646 17.201,37.635C19.104,34.603 18.881,31.574 16.971,30.057C15.281,28.714 12.102,28.452 10.014,30.952L10.013,30.952Z" style="fill:#ed005e;"/>
                </g>
                <g transform="matrix(0.972613,0.23243,-0.23243,0.972613,7.72243,8.58436)">
                    <path d="M13.369,7.797C11.137,8.611 9.233,9.992 7.949,11.63C4.112,16.522 5.358,24.163 11.881,30.555C16.009,34.823 24.668,38.115 31.732,39.937C32.535,40.144 33.387,39.94 34.009,39.393C34.148,39.271 34.287,39.148 34.426,39.023C34.233,39.02 34.038,38.994 33.846,38.944C26.781,37.122 18.122,33.83 13.994,29.562C7.471,23.17 6.226,15.529 10.062,10.637C10.918,9.545 12.049,8.568 13.369,7.797Z" style="fill:#d40054;"/>
                </g>
                <g transform="matrix(2.21728,1.2822e-15,-1.2822e-15,2.21728,10.3626,-43.4029)">
                    <path d="M9.775,31.951C7.687,29.451 4.746,28.714 3.056,30.057C1.145,31.575 0.923,34.606 2.83,37.641C4.017,39.648 6.61,42.243 9.141,43.583C9.428,43.735 9.773,43.735 10.06,43.583C12.592,42.242 15.557,40.253 17.201,37.635C19.104,34.603 18.881,31.574 16.971,30.057C15.281,28.714 11.863,29.451 9.775,31.951L9.775,31.951Z" style="fill:#f06;"/>
                </g>
                <g transform="matrix(0.558081,0.254813,-0.254813,0.558081,22.3795,24.3171)">
                    <path d="M32.091,38.836C31.728,39.079 31.522,39.558 31.344,39.943C30.868,40.974 30.571,42.199 30.849,43.329C31.052,44.153 31.503,44.716 32.373,44.77C32.564,44.782 32.751,44.768 32.933,44.705C33.816,44.399 34.075,43.378 34.791,42.868C35.268,42.527 35.829,42.635 36.373,42.631C36.911,42.627 37.363,42.424 37.65,41.985C37.781,41.786 37.781,41.279 37.655,41.138C37.404,40.858 34.986,40.854 33.95,39.823C33.425,39.301 32.844,38.332 32.091,38.836Z" style="fill:#ed005e;"/>
                </g>
                <g transform="matrix(0.972613,0.23243,-0.23243,0.972613,7.72243,8.58436)">
                    <path d="M31.917,40.697C32.398,40.334 33.024,40.154 33.794,40.156C33.331,39.976 32.779,39.988 32.167,40.13C32.26,39.959 32.364,39.797 32.475,39.644C32.623,39.439 32.799,39.183 33.036,39.074C32.925,39.015 32.797,39.002 32.645,39.066C32.398,39.169 32.217,39.433 32.064,39.644C31.656,40.209 31.332,40.911 31.366,41.624C31.391,42.144 31.596,42.536 32.114,42.672C32.227,42.701 32.342,42.715 32.458,42.699C32.492,42.694 32.524,42.687 32.555,42.679C32.545,42.677 32.535,42.674 32.524,42.672C32.006,42.536 31.802,42.144 31.777,41.624C31.762,41.309 31.816,40.996 31.917,40.697ZM34.344,41.764C34.487,41.789 34.63,41.829 34.774,41.856C34.92,41.884 35.06,41.885 35.19,41.857L35.185,41.856C34.904,41.803 34.625,41.699 34.344,41.764Z" style="fill:#d40054;"/>
                </g>
                <g transform="matrix(0.972613,0.23243,-0.23243,0.972613,7.72243,8.58436)">
                    <path d="M31.781,40.481C31.932,40.346 32.19,40.266 32.465,40.206C32.934,40.104 33.467,40.082 33.778,40.195C34.102,40.312 34.461,40.144 34.578,39.82C34.695,39.495 34.527,39.137 34.203,39.019C33.729,38.848 32.916,38.829 32.2,38.984C31.686,39.096 31.227,39.299 30.946,39.551C30.69,39.782 30.668,40.177 30.899,40.434C31.129,40.69 31.525,40.712 31.781,40.481Z" style="fill:#c07c00;"/>
                </g>
                <g transform="matrix(0.972613,0.23243,-0.23243,0.972613,7.72243,8.58436)">
                    <path d="M47.633,21.562C46.151,21.589 44.647,21.898 43.175,22.08C39.521,22.762 36.125,23.954 32.98,25.67C29.914,27.344 27.084,29.449 24.476,31.949C23.235,33.142 22.023,34.413 20.956,35.8C20.866,35.918 20.776,36.036 20.687,36.155C21.598,36.56 22.532,36.945 23.478,37.31C24.486,36.298 25.585,35.381 26.696,34.521C29.271,32.523 32.009,30.904 34.913,29.679C37.745,28.485 40.737,27.732 43.912,27.451C44.228,27.396 44.547,27.356 44.866,27.326C46.042,25.513 46.959,23.72 47.48,22.03C47.533,21.873 47.584,21.718 47.633,21.562ZM43.597,4.036C38.249,4.771 33.122,6.655 28.615,9.622C22.96,13.346 18.243,18.517 15.05,24.414C14.073,26.45 13.021,28.645 12.275,30.947C13.731,32.338 15.661,33.621 17.844,34.777C19.007,32.594 20.605,30.639 22.057,28.844C25.134,24.636 29.384,21.3 34.051,18.864C38.431,16.578 43.294,15.289 48.271,15.609C48.424,15.589 48.575,15.573 48.727,15.559C48.923,10.412 47.019,6.23 43.597,4.036Z" style="fill:#ff72aa;fill-opacity:0.25;"/>
                </g>
                <g transform="matrix(0.972613,0.23243,-0.23243,0.972613,8.78464,8.4223)">
                    <path d="M38.856,5.303C41.922,6.554 43.143,9.324 43.888,11.661C45.768,17.56 43.77,24.838 39.263,31.055C43.405,26.38 47.512,19.916 46.071,12.937C45.44,9.878 43.096,5.398 38.856,5.303Z" style="fill:#fff;fill-opacity:0.19;"/>
                </g>
                <g transform="matrix(0.972613,0.23243,-0.23243,0.972613,7.72243,8.58436)">
                    <path d="M14.421,12.276C11.662,14.176 10.683,19.791 14.185,23.53C12.305,19.537 12.455,15.794 14.421,12.276Z" style="fill:#fff;fill-opacity:0.19;"/>
                </g>
            </g>
            <g transform="matrix(1,0,0,1,0,8.7)">
                <path d="M19.832,16.285C20.806,16.587 21.789,17.013 22.767,17.58L22.768,17.58C23.501,15.546 24.574,13.897 25.854,12.6C25.302,16.052 26.022,20.164 28.217,24.402C30.39,28.888 35.813,33.719 41.131,37.483C40.165,38.953 39.111,40.407 38.024,41.801C26.909,35.772 20.942,27.22 19.832,16.285Z" style="fill:#45001b;fill-opacity:0.13;"/>
            </g>
            <g transform="matrix(0.996555,0.082931,-0.082931,0.996555,19.4886,-8.83047)">
                <g transform="matrix(0.996555,-0.082931,0.082931,0.996555,-17.9676,19.0863)">
                    <path d="M46.88,61.3L48.13,61.3C48.132,60.884 48.161,60.46 48.22,60.023C48.536,57.714 49.648,55.453 49.484,53.084C49.354,51.209 48.659,49.627 47.858,48.087C47.114,46.656 46.274,45.264 45.795,43.665C45.257,41.87 45.441,40.069 46.35,38.446C46.518,38.145 46.411,37.764 46.11,37.596C45.809,37.427 45.428,37.535 45.259,37.836C44.182,39.76 43.96,41.896 44.598,44.024C45.1,45.7 45.969,47.164 46.749,48.664C47.473,50.055 48.12,51.477 48.237,53.171C48.313,54.266 48.082,55.334 47.803,56.396C47.5,57.549 47.14,58.696 46.982,59.854C46.914,60.349 46.881,60.829 46.88,61.3Z" style="fill:#c07c00;"/>
                </g>
                <g transform="matrix(0.972613,0.23243,-0.23243,0.972613,7.72243,8.58436)">
                    <path d="M33.253,43.591C32.226,41.887 31.88,39.968 32.266,37.995C32.332,37.656 32.66,37.435 32.999,37.501C33.337,37.567 33.559,37.896 33.493,38.235C33.191,39.78 33.423,41.285 34.151,42.643C33.818,42.921 33.529,43.276 33.253,43.591Z" style="fill:#946000;"/>
                </g>
                <g transform="matrix(2.54737,1.44329e-15,-1.44329e-15,2.54737,4.96559,-54.8229)">
                    <path d="M10.013,30.952C7.925,28.452 4.746,28.714 3.056,30.057C1.145,31.575 0.923,34.606 2.83,37.641C4.017,39.648 7.023,41.695 9.554,43.035C9.841,43.187 10.186,43.187 10.473,43.035C13.005,41.694 16.012,39.646 17.201,37.635C19.104,34.603 18.881,31.574 16.971,30.057C15.281,28.714 12.102,28.452 10.014,30.952L10.013,30.952Z" style="fill:#ed001c;"/>
                </g>
                <g transform="matrix(0.972613,0.23243,-0.23243,0.972613,7.72243,8.58436)">
                    <path d="M13.369,7.797C11.137,8.611 9.233,9.992 7.949,11.63C4.112,16.522 5.358,24.163 11.881,30.555C16.009,34.823 24.668,38.115 31.732,39.937C32.535,40.144 33.387,39.94 34.009,39.393C34.148,39.271 34.287,39.148 34.426,39.023C34.233,39.02 34.038,38.994 33.846,38.944C26.781,37.122 18.122,33.83 13.994,29.562C7.471,23.17 6.226,15.529 10.062,10.637C10.918,9.545 12.049,8.568 13.369,7.797Z" style="fill:#d40011;"/>
                </g>
                <g transform="matrix(2.21728,1.2822e-15,-1.2822e-15,2.21728,10.3626,-43.4029)">
                    <path d="M9.775,31.951C7.687,29.451 4.746,28.714 3.056,30.057C1.145,31.575 0.923,34.606 2.83,37.641C4.017,39.648 6.61,42.243 9.141,43.583C9.428,43.735 9.773,43.735 10.06,43.583C12.592,42.242 15.557,40.253 17.201,37.635C19.104,34.603 18.881,31.574 16.971,30.057C15.281,28.714 11.863,29.451 9.775,31.951L9.775,31.951Z" style="fill:#ff0012;"/>
                </g>
                <g transform="matrix(0.558081,0.254813,-0.254813,0.558081,22.3795,24.3171)">
                    <path d="M32.091,38.836C31.728,39.079 31.522,39.558 31.344,39.943C30.868,40.974 30.571,42.199 30.849,43.329C31.052,44.153 31.503,44.716 32.373,44.77C32.564,44.782 32.751,44.768 32.933,44.705C33.816,44.399 34.075,43.378 34.791,42.868C35.268,42.527 35.829,42.635 36.373,42.631C36.911,42.627 37.363,42.424 37.65,41.985C37.781,41.786 37.781,41.279 37.655,41.138C37.404,40.858 34.986,40.854 33.95,39.823C33.425,39.301 32.844,38.332 32.091,38.836Z" style="fill:#ed001c;"/>
                </g>
                <g transform="matrix(0.972613,0.23243,-0.23243,0.972613,7.72243,8.58436)">
                    <path d="M31.917,40.697C32.398,40.334 33.024,40.154 33.794,40.156C33.331,39.976 32.779,39.988 32.167,40.13C32.26,39.959 32.364,39.797 32.475,39.644C32.623,39.439 32.799,39.183 33.036,39.074C32.925,39.015 32.797,39.002 32.645,39.066C32.398,39.169 32.217,39.433 32.064,39.644C31.656,40.209 31.332,40.911 31.366,41.624C31.391,42.144 31.596,42.536 32.114,42.672C32.227,42.701 32.342,42.715 32.458,42.699C32.492,42.694 32.524,42.687 32.555,42.679C32.545,42.677 32.535,42.674 32.524,42.672C32.006,42.536 31.802,42.144 31.777,41.624C31.762,41.309 31.816,40.996 31.917,40.697ZM34.344,41.764C34.487,41.789 34.63,41.829 34.774,41.856C34.92,41.884 35.06,41.885 35.19,41.857L35.185,41.856C34.904,41.803 34.625,41.699 34.344,41.764Z" style="fill:#d40011;"/>
                </g>
                <g transform="matrix(0.972613,0.23243,-0.23243,0.972613,7.72243,8.58436)">
                    <path d="M31.781,40.481C31.932,40.346 32.19,40.266 32.465,40.206C32.934,40.104 33.467,40.082 33.778,40.195C34.102,40.312 34.461,40.144 34.578,39.82C34.695,39.495 34.527,39.137 34.203,39.019C33.729,38.848 32.916,38.829 32.2,38.984C31.686,39.096 31.227,39.299 30.946,39.551C30.69,39.782 30.668,40.177 30.899,40.434C31.129,40.69 31.525,40.712 31.781,40.481Z" style="fill:#c07c00;"/>
                </g>
                <g transform="matrix(0.972613,0.23243,-0.23243,0.972613,7.72243,8.58436)">
                    <path d="M47.633,21.562C46.151,21.589 44.647,21.898 43.175,22.08C39.521,22.762 36.125,23.954 32.98,25.67C29.914,27.344 27.084,29.449 24.476,31.949C23.235,33.142 22.023,34.413 20.956,35.8C20.866,35.918 20.776,36.036 20.687,36.155C21.598,36.56 22.532,36.945 23.478,37.31C24.486,36.298 25.585,35.381 26.696,34.521C29.271,32.523 32.009,30.904 34.913,29.679C37.745,28.485 40.737,27.732 43.912,27.451C44.228,27.396 44.547,27.356 44.866,27.326C46.042,25.513 46.959,23.72 47.48,22.03C47.533,21.873 47.584,21.718 47.633,21.562ZM43.597,4.036C38.249,4.771 33.122,6.655 28.615,9.622C22.96,13.346 18.243,18.517 15.05,24.414C14.073,26.45 13.021,28.645 12.275,30.947C13.731,32.338 15.661,33.621 17.844,34.777C19.007,32.594 20.605,30.639 22.057,28.844C25.134,24.636 29.384,21.3 34.051,18.864C38.431,16.578 43.294,15.289 48.271,15.609C48.424,15.589 48.575,15.573 48.727,15.559C48.923,10.412 47.019,6.23 43.597,4.036Z" style="fill:#ff8f8b;fill-opacity:0.25;"/>
                </g>
                <g transform="matrix(0.972613,0.23243,-0.23243,0.972613,8.78464,8.4223)">
                    <path d="M38.856,5.303C41.922,6.554 43.143,9.324 43.888,11.661C45.768,17.56 43.77,24.838 39.263,31.055C43.405,26.38 47.512,19.916 46.071,12.937C45.44,9.878 43.096,5.398 38.856,5.303Z" style="fill:#fff;fill-opacity:0.19;"/>
                </g>
                <g transform="matrix(0.972613,0.23243,-0.23243,0.972613,7.72243,8.58436)">
                    <path d="M14.421,12.276C11.662,14.176 10.683,19.791 14.185,23.53C12.305,19.537 12.455,15.794 14.421,12.276Z" style="fill:#fff;fill-opacity:0.19;"/>
                </g>
            </g>
        </g>
    </g>
    <defs>
        <linearGradient id="_Linear1" x1="0" y1="0" x2="1" y2="0" gradientUnits="userSpaceOnUse" gradientTransform="matrix(-2.62744e-14,85.8141,-13.511,-6.46823e-15,163.266,-5.74407)"><stop offset="0" style="stop-color:#ffc4d5;stop-opacity:1"/><stop offset="1" style="stop-color:#ffa7c1;stop-opacity:1"/></linearGradient>
    </defs>
</svg>
