<?xml version="1.0" encoding="UTF-8" standalone="no"?>
<!DOCTYPE svg PUBLIC "-//W3C//DTD SVG 1.1//EN" "http://www.w3.org/Graphics/SVG/1.1/DTD/svg11.dtd">
<svg width="100%" height="100%" viewBox="0 0 280 62" version="1.1" xmlns="http://www.w3.org/2000/svg" xmlns:xlink="http://www.w3.org/1999/xlink" xml:space="preserve" xmlns:serif="http://www.serif.com/" style="fill-rule:evenodd;clip-rule:evenodd;stroke-linejoin:round;stroke-miterlimit:2;">
    <g id="banner_54" transform="matrix(1,0,0,1,1.42109e-13,-8.7)">
        <g transform="matrix(5.55112e-17,-0.610579,-0.610579,-5.55112e-17,204.333,131.136)">
            <g transform="matrix(1.08443,0,0,1,-14.8965,3.39636)">
                <path d="M166.164,252.677C166.164,245.451 160.754,239.585 154.091,239.585C147.428,239.585 142.018,245.451 142.018,252.677L142.018,318.167C142.018,325.392 147.428,331.259 154.091,331.259C160.754,331.259 166.164,325.392 166.164,318.167L166.164,252.677Z" style="fill:#f4c179;"/>
            </g>
            <g transform="matrix(1,0,0,1,-0.866679,1.39636)">
                <path d="M166.164,251.657C166.164,244.994 160.754,239.585 154.091,239.585C147.428,239.585 142.018,244.994 142.018,251.657L142.018,319.186C142.018,325.849 147.428,331.259 154.091,331.259C160.754,331.259 166.164,325.849 166.164,319.186L166.164,251.657Z" style="fill:#f9e1bf;"/>
            </g>
            <g transform="matrix(1.04738,0,0,1,-7.83101,0)">
                <path d="M141.152,275.405L165.297,275.405L165.297,253.054C165.297,246.391 159.887,240.981 153.224,240.981C146.561,240.981 141.152,246.391 141.152,253.054L141.152,275.405Z" style="fill:#f4c179;"/>
            </g>
            <g transform="matrix(1.48901e-16,-1.63779,-1.63779,-1.48901e-16,214.774,334.655)">
                <path d="M9.703,33.089C7.224,33.089 5.212,35.102 5.212,37.581C5.212,40.06 7.224,42.073 9.703,42.073C12.182,42.073 14.195,40.06 14.195,37.581C14.195,35.102 12.182,33.089 9.703,33.089ZM9.703,33.923C11.722,33.923 13.362,35.562 13.362,37.581C13.362,39.6 11.722,41.239 9.703,41.239C7.684,41.239 6.045,39.6 6.045,37.581C6.045,35.562 7.684,33.923 9.703,33.923ZM10.513,39.765L9.092,40.237C8.875,40.309 8.725,40.342 8.642,40.337C8.558,40.331 8.506,40.295 8.484,40.23L7.096,36.058C7.027,35.851 7.618,35.539 8.868,35.123C9.586,34.884 10.104,34.789 10.423,34.836C10.747,34.887 10.985,35.01 11.136,35.204C11.222,35.32 11.294,35.464 11.352,35.637C11.464,35.975 11.491,36.247 11.433,36.453C11.374,36.66 11.281,36.797 11.154,36.863C11.372,36.839 11.574,36.882 11.76,36.993C11.946,37.104 12.101,37.346 12.224,37.718C12.368,38.15 12.343,38.514 12.148,38.81C11.979,39.068 11.667,39.299 11.211,39.503C11.018,39.587 10.785,39.674 10.513,39.765ZM10.035,38.85L10.197,38.796C10.418,38.722 10.479,38.539 10.382,38.244C10.333,38.097 10.267,37.998 10.185,37.946C10.103,37.894 10.025,37.88 9.951,37.905L9.744,37.974L10.035,38.85ZM9.578,36.933C9.799,36.86 9.86,36.676 9.762,36.382C9.713,36.235 9.648,36.136 9.566,36.084C9.483,36.032 9.406,36.018 9.332,36.042L9.124,36.111L9.416,36.987L9.578,36.933Z" style="fill:#f4c179;fill-rule:nonzero;"/>
            </g>
        </g>
        <g transform="matrix(1,0,0,1,-1.42109e-13,8.7)">
            <path d="M280,34.32L280,23.827L41.912,23.827L41.912,56.586C41.912,59.188 44.025,61.3 46.627,61.3L236.847,61.3C236.472,57.306 241.855,51.338 245.763,50.655C245.604,49.27 245.668,47.845 245.898,46.399C246.92,39.954 253.938,35.309 259.899,35.727C262.03,35.877 263.921,36.904 265.583,38.031C268.197,34.606 273.633,32.255 279.85,34.293C279.898,34.309 279.95,34.311 280,34.32Z" style="fill:#fc5;"/>
        </g>
        <g transform="matrix(1,0,0,1,-1.42109e-13,8.7)">
            <path d="M236.847,61.3L208.702,23.827L41.912,23.827L41.912,56.586C41.912,59.188 44.025,61.3 46.627,61.3L236.847,61.3Z" style="fill:url(#_Linear1);"/>
        </g>
        <g transform="matrix(1,0,0,1,-1.42109e-13,8.7)">
            <path d="M279.002,33.176L279.002,28.199C278.649,27.923 278.112,27.553 277.099,27.373C272.387,26.535 267.979,28.037 264.706,31.049C263.044,29.922 261.125,29.119 259.022,28.745C251.009,27.321 244.335,32.552 242.911,40.565C242.655,42.007 242.618,43.437 242.776,44.821C238.059,46.593 234.662,49.711 233.717,55.027L233.691,55.175L236.355,58.738C237.005,54.656 240.94,50.606 244.847,49.922C244.689,48.538 244.753,47.112 244.982,45.666C246.004,39.222 253.938,34.164 259.899,34.583C262.03,34.732 263.921,35.76 265.583,36.886C268.197,33.462 272.636,31.11 278.852,33.149C278.9,33.164 278.952,33.167 279.002,33.176Z" style="fill:#fff4cf;"/>
        </g>
        <g transform="matrix(1,0,0,1,-1.42109e-13,8.7)">
            <path d="M241.105,51.568L238.707,46.952C238.459,47.131 238.218,47.317 237.984,47.511C237.984,47.511 240.381,52.125 240.381,52.125L240.453,52.066L240.534,52L240.559,51.98L240.578,51.965L240.615,51.936L240.635,51.92L240.648,51.909L240.667,51.895L240.696,51.872L240.722,51.852L240.739,51.839L240.754,51.827L240.778,51.809L240.81,51.785L240.829,51.77L240.842,51.76L240.86,51.747L240.9,51.717L240.921,51.701L240.943,51.685L240.994,51.648L241.026,51.624L241.105,51.568ZM240.313,45.942L240.289,45.955L240.229,45.988L240.198,46.005L240.141,46.037L240.108,46.056L240.052,46.087L240.02,46.106L239.963,46.139L239.878,46.189C239.85,46.205 239.823,46.221 239.796,46.237L239.738,46.272L239.708,46.29L239.655,46.323L239.621,46.343L239.569,46.375L239.534,46.397L239.482,46.429L239.449,46.45L239.397,46.484L239.366,46.503C239.322,46.531 239.278,46.56 239.234,46.589L241.635,51.213L241.704,51.17C242.119,50.913 242.546,50.687 242.98,50.497C242.98,50.497 240.548,45.815 240.548,45.815C240.47,45.857 240.391,45.899 240.313,45.942ZM258.225,34.602L255.753,28.528L255.63,28.534L255.518,28.541L255.495,28.542L255.383,28.55L255.271,28.559L255.244,28.561L255.155,28.569L255.13,28.571L255.02,28.582L255.003,28.584L254.909,28.594L254.882,28.597L254.773,28.609L257.262,34.725C257.585,34.671 257.907,34.63 258.225,34.602ZM256.563,28.513L256.462,28.512L258.924,34.562C259.006,34.56 259.087,34.559 259.168,34.559L259.172,34.559C259.211,34.559 259.249,34.559 259.287,34.559L259.3,34.559C259.338,34.559 259.376,34.56 259.413,34.561L259.477,34.562L259.54,34.564C259.576,34.566 259.612,34.567 259.648,34.568L259.668,34.569C259.702,34.571 259.738,34.573 259.773,34.575L259.779,34.575L259.839,34.579L259.899,34.583C259.933,34.585 259.966,34.588 259.999,34.59L260.099,34.599L260.198,34.61L260.296,34.621L260.395,34.634L260.493,34.647L260.591,34.662L260.688,34.679L258.224,28.625C258.078,28.607 257.932,28.591 257.786,28.577L257.766,28.575L257.681,28.567L257.657,28.565L257.571,28.558L257.552,28.557L257.446,28.549L257.341,28.542L257.321,28.54L257.238,28.535L257.209,28.534L257.133,28.53L257.104,28.528L257.022,28.525L257.002,28.524L256.897,28.52L256.792,28.517L256.776,28.516L256.688,28.514L256.667,28.514L256.581,28.513L256.563,28.513ZM274.705,27.144C274.705,27.144 275.986,32.492 275.986,32.492C276.567,32.565 277.167,32.679 277.786,32.837L276.452,27.272L276.341,27.258L276.23,27.244L276.119,27.232L276.038,27.223L276.009,27.22L275.934,27.212L275.899,27.209L275.83,27.203L275.789,27.199L275.725,27.193L275.679,27.19L275.57,27.181L275.46,27.174L275.352,27.167L275.243,27.161L275.135,27.156L275.027,27.152L274.919,27.149L274.812,27.146L274.705,27.144ZM275.256,32.42L273.992,27.153C273.868,27.157 273.743,27.164 273.619,27.171L273.607,27.172L273.503,27.179L273.474,27.181L273.384,27.188L273.353,27.191L273.262,27.199L273.235,27.201L273.119,27.212L272.996,27.225L274.236,32.392C274.569,32.387 274.909,32.396 275.256,32.42Z" style="fill:#fff9ea;"/>
        </g>
        <g transform="matrix(1,0,0,-1,0,72.625)">
            <path d="M232.227,8.75L232.252,8.898C233.197,14.214 236.887,18.357 241.605,20.129C241.446,21.513 241.483,22.944 241.739,24.385C243.164,32.399 250.826,37.748 258.839,36.324C260.942,35.95 262.861,35.147 264.523,34.02C267.796,37.033 272.387,38.538 277.099,37.7C278.112,37.521 279.081,37.241 280,36.874L280,60.162C280,62.211 278.336,63.875 276.287,63.875L45.625,63.875C43.576,63.875 41.912,62.211 41.912,60.162L41.912,12.463C41.912,10.414 43.576,8.75 45.625,8.75L232.227,8.75Z" style="fill:url(#_Linear2);"/>
        </g>
        <g transform="matrix(1,0,0,-1,0,72.625)">
            <path d="M232.522,10.118C233.778,14.845 237.254,18.495 241.605,20.129C241.446,21.513 241.483,22.944 241.739,24.385C243.164,32.399 250.826,37.748 258.839,36.324C260.942,35.95 262.861,35.147 264.523,34.02C267.796,37.033 272.387,38.538 277.099,37.7C278.112,37.521 279.081,37.241 280,36.874L280,60.162C280,62.211 278.336,63.875 276.287,63.875L45.625,63.875C43.576,63.875 41.912,62.211 41.912,60.162L41.912,12.463C41.912,10.414 43.576,8.75 45.625,8.75L232.227,8.75L232.252,8.898C232.323,9.297 232.41,9.69 232.511,10.077C232.516,10.093 232.519,10.106 232.522,10.118ZM231.204,10C232.386,15.013 235.85,18.964 240.283,20.938C240.218,22.14 240.289,23.368 240.509,24.604C242.054,33.297 250.365,39.1 259.058,37.555C261.002,37.209 262.802,36.525 264.408,35.573C267.893,38.415 272.548,39.779 277.318,38.931C277.805,38.845 278.282,38.737 278.75,38.609C278.75,38.609 278.75,60.162 278.75,60.162C278.75,61.522 277.647,62.625 276.287,62.625C276.287,62.625 45.625,62.625 45.625,62.625C44.266,62.625 43.162,61.522 43.162,60.162L43.162,12.463C43.162,11.103 44.266,10 45.625,10L231.204,10Z" style="fill:#ffcd53;"/>
        </g>
        <g transform="matrix(1,0,0,-1,0,72.625)">
            <path d="M264.57,34.063C267.68,36.902 271.967,38.386 276.416,37.806L255.1,63.875L240.194,63.875L264.57,34.063ZM235.086,15.314C236.768,17.494 239.034,19.164 241.605,20.129C241.446,21.513 241.483,22.944 241.739,24.385C243.072,31.883 249.865,37.048 257.297,36.516L234.927,63.875L195.38,63.875L235.086,15.314ZM181.33,8.75L136.257,63.875L121.217,63.875L166.29,8.75L181.33,8.75ZM155.04,8.75L109.967,63.875L55.346,63.875L100.419,8.75L155.04,8.75Z" style="fill:#ffedab;fill-opacity:0.13;"/>
        </g>
    </g>
    <defs>
        <linearGradient id="_Linear1" x1="0" y1="0" x2="1" y2="0" gradientUnits="userSpaceOnUse" gradientTransform="matrix(238.088,0,0,22.249,41.9124,58.8755)"><stop offset="0" style="stop-color:#ff9600;stop-opacity:1"/><stop offset="0.48" style="stop-color:#ffa507;stop-opacity:1"/><stop offset="1" style="stop-color:#ffcd19;stop-opacity:1"/></linearGradient>
        <linearGradient id="_Linear2" x1="0" y1="0" x2="1" y2="0" gradientUnits="userSpaceOnUse" gradientTransform="matrix(-191.779,3.53205,-0.817785,-44.4031,233.691,33.25)"><stop offset="0" style="stop-color:#ffb300;stop-opacity:1"/><stop offset="0.44" style="stop-color:#ffa414;stop-opacity:1"/><stop offset="1" style="stop-color:#ffa019;stop-opacity:1"/></linearGradient>
    </defs>
</svg>
