<?xml version="1.0" encoding="UTF-8" standalone="no"?>
<!DOCTYPE svg PUBLIC "-//W3C//DTD SVG 1.1//EN" "http://www.w3.org/Graphics/SVG/1.1/DTD/svg11.dtd">
<svg width="100%" height="100%" viewBox="0 0 280 62" version="1.1" xmlns="http://www.w3.org/2000/svg" xmlns:xlink="http://www.w3.org/1999/xlink" xml:space="preserve" xmlns:serif="http://www.serif.com/" style="fill-rule:evenodd;clip-rule:evenodd;stroke-linecap:round;stroke-linejoin:round;stroke-miterlimit:1.5;">
    <g id="banner_halloween_5_1" transform="matrix(1,0,0,1,0,-8.75)">
        <path d="M280,56.472L-0,56.472L-0,65.286C-0,67.888 2.112,70 4.714,70L275.286,70C277.888,70 280,67.888 280,65.286L280,56.472Z" style="fill:#287226;"/>
        <g transform="matrix(1,0,0,1,0,8.75)">
            <path d="M280,45.854C280.012,45.024 279.662,44.331 278.951,43.776C278.109,44.245 277.535,44.915 277.276,45.823C276.988,44.694 276.276,43.807 275.178,43.138C274.11,43.682 273.426,44.601 273.006,45.775C273.199,44.882 273.004,44.084 272.2,43.434C270.649,43.716 269.274,44.617 267.73,45.715C268.566,44.598 268.885,43.637 268.776,42.806C266.768,43.306 264.975,44.266 263.387,45.666C264.287,43.947 264.67,42.303 264.153,40.79C262.623,41.309 261.396,42.231 260.56,43.677C260.537,42.337 260.209,41.124 259.148,40.213C257.674,41.83 257.056,43.834 256.673,45.944L23.231,46.849C22.318,44.946 21.149,43.382 19.443,42.533C19.527,43.966 19.505,45.463 19.291,47.077C18.773,46.073 17.947,45.376 16.748,45.049L16.627,46.983C16.438,46.179 16.109,45.553 15.575,45.186C14.642,45.417 13.999,45.92 13.542,46.596C13.401,45.547 12.943,44.657 12.125,43.946C11.011,44.832 10.498,45.864 10.271,46.966C9.8,45.837 9.102,44.936 8.071,44.366L5.485,47.147C5.006,45.979 4.258,44.982 3.103,44.246C2.143,44.865 1.531,45.859 1.299,47.265L-0,45.854L-0,51.412C-0,53.461 1.664,55.125 3.713,55.125L276.287,55.125C278.336,55.125 280,53.461 280,51.412L280,45.854Z" style="fill:#4a7b48;"/>
        </g>
        <g transform="matrix(1,0,0,1,0,8.75)">
            <path d="M6.103,52.1C5.266,53.031 4.281,54.755 4.496,56.089C4.813,58.058 5.983,59.432 8.1,59.391C8.756,59.378 9.399,59.205 10.006,58.965C12.754,57.879 13.7,55.214 14.585,52.636C14.971,51.513 15.344,50.205 16.116,49.279C17.031,48.182 19.401,47.292 19.935,49.234C20.475,51.202 18.56,52.427 16.854,52.429C14.346,52.433 10.863,50.965 9.731,48.598C9.184,47.456 9.111,46.064 9.16,44.822C9.305,41.15 11.212,37.448 15.273,37.225C16.014,37.185 16.739,37.312 17.452,37.504C18.754,37.854 20.087,38.499 21.053,39.459C22.505,40.902 23.298,42.941 24.527,44.562C24.841,44.977 25.272,45.285 25.615,45.675" style="fill:none;stroke:#0e410e;stroke-width:1.67px;"/>
        </g>
        <g transform="matrix(1,0,0,1,0,8.75)">
            <path d="M255.306,48.993C255.889,48.336 256.634,47.894 257.408,47.498C258.067,47.161 258.762,46.829 259.475,46.625C259.865,46.514 260.341,46.401 260.75,46.472C262.136,46.71 262.566,48.221 262.634,49.419C262.777,51.972 261.647,54.406 259.828,56.14C259.55,56.404 259.258,56.652 258.965,56.899C258.743,57.086 258.523,57.276 258.296,57.459C258.121,57.6 257.937,57.736 257.738,57.842C257.09,58.184 255.538,58.93 255.031,57.987C254.685,57.345 255.027,56.559 255.481,56.069C256.294,55.189 258.26,54.433 259.443,54.877C260.712,55.352 260.743,57.143 261.414,58.134C261.913,58.868 262.84,59.057 263.664,59.169C264.124,59.231 264.584,59.205 265.028,59.062C267.226,58.355 267.638,56.042 267.834,54.038C267.943,52.925 267.99,51.586 269.034,50.91C269.873,50.367 270.944,50.848 271.448,51.618C272.348,52.993 273.445,55.336 275.55,54.794C277.686,54.244 277.886,51.359 277.287,49.644C277.045,48.95 276.639,48.162 275.913,47.907" style="fill:none;stroke:#0e410e;stroke-width:1.67px;"/>
        </g>
        <g>
            <g transform="matrix(1,0,0,1,0,8.75)">
                <path d="M217.73,13.748C216.441,10.595 218.995,7.256 221.682,5.812C223.126,5.036 225.315,4.39 226.374,6.087C226.559,6.384 226.651,6.721 226.7,7.065C226.742,7.359 226.738,7.662 226.675,7.953C226.623,8.189 226.527,8.407 226.392,8.607C226.053,9.111 225.452,9.472 224.864,9.601C224.258,9.734 223.758,9.813 223.172,10.12C221.958,10.757 221.3,12.078 222.256,14.038L217.73,13.748Z" style="fill:#3b7e5d;"/>
            </g>
            <g transform="matrix(1,0,0,1,0,8.75)">
                <path d="M223.256,13.236C223.868,12.859 224.418,12.442 224.934,11.942C225.107,11.775 225.267,11.598 225.431,11.423C225.511,11.337 225.58,11.082 225.665,11.162C225.954,11.431 226.098,11.851 226.182,12.227C226.333,12.904 226.57,13.709 225.797,14.044C225.647,14.109 225.486,14.153 225.326,14.184C225.101,14.226 224.868,14.225 224.642,14.191C224.332,14.146 223.517,13.409 223.256,13.236Z" style="fill:#3b7e5d;"/>
            </g>
            <g transform="matrix(0.975449,-0.220226,0.220226,0.975449,3.11391,59.5492)">
                <path d="M229.229,14.952C230.749,14.727 232.366,14.207 233.354,12.965C233.689,12.544 233.913,12.079 234.042,11.558C234.104,11.31 234.062,10.888 234.223,10.676C234.353,10.506 234.637,10.697 234.723,10.806C235.159,11.358 235.173,12.242 235.186,12.906C235.202,13.677 235.182,14.525 234.916,15.26C234.529,16.325 233.534,17.132 232.387,17.168C231.44,17.197 230.585,16.713 229.942,16.057C229.736,15.846 229.169,15.294 229.229,14.952Z" style="fill:#3b7e5d;"/>
            </g>
            <g transform="matrix(-0.895327,-0.44541,-0.44541,0.895327,429.775,111.218)">
                <path d="M229.229,14.952C230.749,14.727 232.366,14.207 233.354,12.965C233.689,12.544 233.913,12.079 234.042,11.558C234.104,11.31 234.062,10.888 234.223,10.676C234.353,10.506 234.637,10.697 234.723,10.806C235.159,11.358 235.173,12.242 235.186,12.906C235.202,13.677 235.182,14.525 234.916,15.26C234.529,16.325 233.534,17.132 232.387,17.168C231.44,17.197 230.585,16.713 229.942,16.057C229.736,15.846 229.169,15.294 229.229,14.952Z" style="fill:#3b7e5d;"/>
            </g>
            <g transform="matrix(1,0,0,1,0,8.75)">
                <path d="M225.019,8.934C224.361,9.013 223.501,8.703 223.192,8.064C222.81,7.276 223.035,6.107 224.14,5.714C224.949,5.427 226.031,5.874 226.198,7.025C226.32,7.866 225.747,8.847 225.019,8.934Z" style="fill:#2d6f50;"/>
            </g>
            <g transform="matrix(-0.130903,-1.6031e-17,7.23959e-17,-0.591158,222.333,71.6746)">
                <path d="M-43.324,22.96C-43.324,11.85 -48.982,4.136 -99.155,4.136L-176.507,4.136C-226.679,4.136 -263.632,16.818 -274.274,23.611C-293.835,36.095 -288.686,48.241 -253.221,60.399C-239.543,65.088 -201.53,76.031 -151.94,78.587C-126.296,79.909 -127.518,79.702 -103.443,79.702C-53.271,79.702 -58.873,72.009 -51.165,60.021C-43.125,47.517 -43.814,35.255 -43.324,22.96Z" style="fill:#fc9d00;"/>
            </g>
            <g transform="matrix(1,0,0,1,0,8.75)">
                <path d="M254.704,55.158L243.859,55.158C243.438,52.331 242.729,49.935 241.519,48.29L237.615,55.158L228.441,55.158C229.147,58.454 230.936,60.48 235.313,60.48L245.439,60.48C249.203,60.48 252.399,58.016 254.704,55.158Z" style="fill:#e68000;"/>
            </g>
            <g transform="matrix(-0.130903,-1.6031e-17,7.23959e-17,-0.591158,222.333,71.6746)">
                <path d="M-35.367,22.976C-35.367,22.97 -35.366,22.965 -35.366,22.96C-35.366,18.918 -36.15,15.309 -39.323,12.324C-42.867,8.99 -49.406,6.388 -60.362,4.665C-69.556,3.219 -82.045,2.374 -99.155,2.374C-99.155,2.374 -176.507,2.374 -176.507,2.374C-198.513,2.374 -218.284,4.554 -234.733,7.701C-258.4,12.229 -275.076,18.747 -281.792,23.033C-302.168,36.038 -296.848,48.691 -259.905,61.355C-245.603,66.258 -205.598,77.63 -153.744,80.303C-127.145,81.675 -128.415,81.464 -103.443,81.464C-85.91,81.464 -74.343,80.566 -66.332,79.06C-58.233,77.537 -53.549,75.342 -50.682,72.513C-47.4,69.273 -46.405,65.119 -43.287,60.27C-35.197,47.687 -35.86,35.348 -35.367,22.976ZM-51.282,22.953C-51.768,35.168 -51.056,47.351 -59.043,59.773C-62.091,64.513 -63.003,68.575 -66.212,71.742C-68.214,73.718 -70.974,75.31 -76.632,76.373C-82.377,77.453 -90.87,77.94 -103.443,77.94C-126.621,77.94 -125.447,78.144 -150.135,76.871C-197.462,74.431 -233.483,63.917 -246.537,59.443C-280.525,47.791 -285.502,36.153 -266.756,24.188C-260.702,20.324 -245.663,14.45 -224.328,10.368C-210.775,7.775 -194.639,5.898 -176.507,5.898L-99.155,5.898C-86.16,5.898 -76.56,6.44 -69.577,7.539C-61.66,8.784 -57.376,10.722 -54.815,13.131C-51.885,15.888 -51.282,19.221 -51.282,22.953L-51.282,22.953Z" style="fill:#bc6413;"/>
            </g>
            <g transform="matrix(-0.130903,-1.6031e-17,7.23959e-17,-0.591158,222.333,71.6746)">
                <path d="M165.557,22.96C165.557,11.85 159.898,4.136 109.726,4.136L-42.125,4.136C-92.297,4.136 -121.403,12.736 -132.475,20.091C-153.054,33.762 -153.054,51.046 -119.315,64.998C-101.74,72.266 -68.64,82.722 -14.495,83.866C24.819,84.697 69.257,84.482 109.543,80.259C154.891,75.505 150.008,72.009 157.716,60.021C165.755,47.517 165.066,35.255 165.557,22.96Z" style="fill:#fc9d00;"/>
            </g>
            <g transform="matrix(1,0,0,1,0,8.75)">
                <path d="M237.615,55.158L215.496,55.158C216.436,52.679 216.415,50.375 215.189,48.29C213.281,51.005 211.08,53.428 208.187,55.158L201.097,55.158C201.804,58.454 203.593,60.48 207.97,60.48L227.848,60.48C232.365,60.48 235.578,58.075 237.615,55.158Z" style="fill:#e68000;"/>
            </g>
            <g transform="matrix(-0.130903,-1.6031e-17,7.23959e-17,-0.591158,222.333,71.6746)">
                <path d="M173.514,22.976C173.514,22.97 173.514,22.965 173.514,22.96C173.514,18.918 172.73,15.309 169.557,12.324C166.013,8.99 159.475,6.388 148.519,4.665C139.325,3.219 126.836,2.374 109.726,2.374C109.726,2.374 -42.125,2.374 -42.125,2.374C-96.332,2.374 -128.061,11.587 -140.024,19.534C-161.24,33.628 -161.114,51.446 -126.33,65.83C-107.781,73.5 -72.397,84.413 -15.25,85.62C25.389,86.479 71.303,86.217 112.948,81.851C127.703,80.305 137.479,78.855 144.267,77.269C152.613,75.318 156.72,73.15 159.357,70.254C161.687,67.695 162.869,64.508 165.594,60.27C173.684,47.687 173.02,35.348 173.514,22.976ZM157.599,22.953C157.112,35.168 157.825,47.351 149.838,59.773C147.167,63.926 146.039,67.05 143.756,69.557C141.779,71.728 138.971,73.382 132.713,74.845C126.983,76.184 118.593,77.361 106.138,78.666C67.211,82.747 24.248,82.914 -13.739,82.112C-64.885,81.032 -95.698,71.031 -112.3,64.166C-144.994,50.646 -144.867,33.895 -124.926,20.649C-114.744,13.885 -88.262,5.898 -42.125,5.898L109.726,5.898C122.72,5.898 132.321,6.44 139.304,7.539C147.221,8.784 151.505,10.722 154.065,13.131C156.995,15.888 157.598,19.221 157.599,22.953L157.599,22.953Z" style="fill:#bc6413;"/>
            </g>
            <g transform="matrix(1,0,0,1,0,8.75)">
                <path d="M213.071,41.067L212.042,48.869L215.722,45.943L218.435,50.331L221.486,47.135L224.665,51.469L228.349,47.514L233.55,50.819L235.934,47.081L239.781,50.006L241.406,45.835L244.115,48.11L245.09,43.776L247.471,45.087C249.535,42.297 250.433,39.058 250.573,35.529C250.303,36.728 249.975,37.855 249.325,38.58L247.795,37.687L247.209,41.113L244.493,39.675L243.41,43.847L240.587,41.078L238.457,45.64L234.8,42.445L232.599,46.901L228.657,43.03L225.391,47.06L222.533,42.711L219.017,46.048L215.722,42.054L213.071,41.067Z" style="fill:#13121a;"/>
            </g>
            <g transform="matrix(1,0,0,1,0,8.75)">
                <path d="M228.349,47.514L224.665,51.469L223.748,50.218L226.266,47.514L228.349,47.514ZM235.935,47.08L233.55,50.819L232.068,49.877L233.851,47.081L235.935,47.08ZM221.486,47.135L218.435,50.331L217.616,49.007L219.403,47.135L221.486,47.135ZM241.406,45.835L239.781,50.006L238.174,48.784L239.323,45.835L241.406,45.835ZM245.09,43.776L244.115,48.11L242.363,46.639L243.007,44.007L245.09,43.776ZM225.391,47.06L223.308,47.06L221.25,43.929L222.533,42.711L225.391,47.06ZM232.599,46.901L230.516,46.901L227.734,44.169L228.657,43.03L232.599,46.901ZM212.974,41.806L213.64,42.054L216.935,46.048L219.017,46.048L215.722,42.054L213.071,41.067L212.974,41.806ZM238.457,45.64L236.374,45.64L234.172,43.716L234.8,42.445L238.457,45.64ZM248.262,37.959C247.916,40.22 247.19,42.334 245.961,44.255L247.471,45.087C249.535,42.297 250.433,39.058 250.573,35.529C250.303,36.728 249.975,37.855 249.325,38.58L248.262,37.959ZM243.41,43.847L241.327,43.847L239.933,42.479L240.587,41.078L243.41,43.847ZM247.209,41.113L245.126,41.113L244.241,40.645L244.493,39.675L247.209,41.113ZM247.812,37.697L247.795,37.687L247.783,37.757C247.793,37.737 247.803,37.717 247.812,37.697Z" style="fill:#7c3b00;"/>
            </g>
            <g>
                <g transform="matrix(1,0,0,1,0,8.75)">
                    <path d="M234.992,31.384L239.096,29.124C237.924,32.113 240.775,33.572 243.313,32.259C245.553,31.101 245.261,27.621 242.671,27.157L248.401,24.002C249.092,28.463 248.279,34.617 245.042,35.875C241.789,37.139 237.204,35.756 234.992,31.384Z" style="fill:#13121a;"/>
                </g>
                <g transform="matrix(1,0,0,1,0,8.75)">
                    <path d="M246.228,25.198L248.401,24.002C249.092,28.463 248.279,34.617 245.042,35.875C244.526,36.076 243.977,36.21 243.408,36.276C246.033,34.592 246.751,29.307 246.228,25.198ZM240.287,33.287C238.179,33.912 236.16,32.739 236.661,30.465L239.096,29.124C238.457,30.755 239.015,31.93 240.067,32.449L240.067,32.449C240.318,32.572 240.597,32.658 240.894,32.704L240.944,32.712L240.979,32.716L241.021,32.721L241.061,32.726C241.184,32.738 241.31,32.744 241.439,32.743L241.439,32.743C241.779,32.741 242.134,32.69 242.493,32.587L240.294,33.291L240.287,33.287Z" style="fill:#7c3b00;"/>
                </g>
            </g>
            <g transform="matrix(-1,0,0,1,483.621,0)">
                <g transform="matrix(1,0,0,1,27.1431,8.75)">
                    <path d="M234.992,31.384L239.096,29.124C237.924,32.113 240.775,33.572 243.313,32.259C245.553,31.101 245.261,27.621 242.671,27.157L248.401,24.002C249.092,28.463 248.279,34.617 245.042,35.875C241.789,37.139 237.204,35.756 234.992,31.384Z" style="fill:#13121a;"/>
                </g>
                <g transform="matrix(-1,0,0,1,483.621,8.75)">
                    <path d="M219.703,30.402C217.514,34.545 213.162,35.914 209.968,34.815C210.387,35.293 210.875,35.657 211.436,35.875C214.689,37.139 219.274,35.756 221.486,31.384L219.703,30.402ZM211.84,26.074C209.5,26.723 209.306,29.998 211.466,31.115C211.702,31.237 211.941,31.335 212.18,31.411C211.112,29.915 211.696,27.535 213.807,27.157L211.84,26.074Z" style="fill:#7c3b00;"/>
                </g>
            </g>
            <g transform="matrix(1,0,0,1,-1.597,7.01533)">
                <path d="M220.692,17.434C221.576,18.982 222.697,20.389 223.436,22.018C224.348,24.027 224.797,26.296 225.186,28.464C225.481,30.11 225.61,31.794 225.797,33.455C225.869,34.087 225.974,35.217 226.437,35.703C227.017,36.311 228.448,35.465 228.924,35.083C230.71,33.649 232.381,32.205 234.248,30.881C235.008,30.342 236.24,29.795 236.717,28.97C237.735,27.209 236.141,24.448 235.156,22.98C232.656,19.249 229.587,17.23 225.106,16.857C224.068,16.771 221.774,16.877 220.692,17.434Z" style="fill:#ffad25;"/>
            </g>
            <g transform="matrix(1,0,0,1,0,8.75)">
                <path d="M237.911,18.69C239.186,19.622 239.997,21.25 240.801,22.581C241.067,23.021 241.271,23.802 241.674,24.121C242.046,24.415 242.557,24.264 242.95,24.106C243.935,23.711 244.872,23.132 245.743,22.53C245.997,22.355 246.749,22.086 246.79,21.703C246.818,21.443 246.665,21.182 246.531,20.971C246.19,20.431 245.833,20.13 245.339,19.724C244.745,19.236 243.427,18.584 242.713,18.333C241.083,17.759 238.707,17.268 237.911,18.69Z" style="fill:#ffad25;"/>
            </g>
        </g>
        <g transform="matrix(-1,0,0,1,281.192,0)">
            <g transform="matrix(1,0,0,1,0,8.75)">
                <path d="M217.73,13.748C216.441,10.595 218.995,7.256 221.682,5.812C223.126,5.036 225.315,4.39 226.374,6.087C226.559,6.384 226.651,6.721 226.7,7.065C226.742,7.359 226.738,7.662 226.675,7.953C226.623,8.189 226.527,8.407 226.392,8.607C226.053,9.111 225.452,9.472 224.864,9.601C224.258,9.734 223.758,9.813 223.172,10.12C221.958,10.757 221.3,12.078 222.256,14.038L217.73,13.748Z" style="fill:#3b7e5d;"/>
            </g>
            <g transform="matrix(1,0,0,1,0,8.75)">
                <path d="M223.256,13.236C223.868,12.859 224.418,12.442 224.934,11.942C225.107,11.775 225.267,11.598 225.431,11.423C225.511,11.337 225.58,11.082 225.665,11.162C225.954,11.431 226.098,11.851 226.182,12.227C226.333,12.904 226.57,13.709 225.797,14.044C225.647,14.109 225.486,14.153 225.326,14.184C225.101,14.226 224.868,14.225 224.642,14.191C224.332,14.146 223.517,13.409 223.256,13.236Z" style="fill:#3b7e5d;"/>
            </g>
            <g transform="matrix(0.975449,-0.220226,0.220226,0.975449,3.11391,59.5492)">
                <path d="M229.229,14.952C230.749,14.727 232.366,14.207 233.354,12.965C233.689,12.544 233.913,12.079 234.042,11.558C234.104,11.31 234.062,10.888 234.223,10.676C234.353,10.506 234.637,10.697 234.723,10.806C235.159,11.358 235.173,12.242 235.186,12.906C235.202,13.677 235.182,14.525 234.916,15.26C234.529,16.325 233.534,17.132 232.387,17.168C231.44,17.197 230.585,16.713 229.942,16.057C229.736,15.846 229.169,15.294 229.229,14.952Z" style="fill:#3b7e5d;"/>
            </g>
            <g transform="matrix(-0.895327,-0.44541,-0.44541,0.895327,429.775,111.218)">
                <path d="M229.229,14.952C230.749,14.727 232.366,14.207 233.354,12.965C233.689,12.544 233.913,12.079 234.042,11.558C234.104,11.31 234.062,10.888 234.223,10.676C234.353,10.506 234.637,10.697 234.723,10.806C235.159,11.358 235.173,12.242 235.186,12.906C235.202,13.677 235.182,14.525 234.916,15.26C234.529,16.325 233.534,17.132 232.387,17.168C231.44,17.197 230.585,16.713 229.942,16.057C229.736,15.846 229.169,15.294 229.229,14.952Z" style="fill:#3b7e5d;"/>
            </g>
            <g transform="matrix(1,0,0,1,0,8.75)">
                <path d="M225.019,8.934C224.361,9.013 223.501,8.703 223.192,8.064C222.81,7.276 223.035,6.107 224.14,5.714C224.949,5.427 226.031,5.874 226.198,7.025C226.32,7.866 225.747,8.847 225.019,8.934Z" style="fill:#2d6f50;"/>
            </g>
            <g transform="matrix(-1,0,0,1,281.304,0)">
                <g transform="matrix(0.130903,-1.6031e-17,-7.23959e-17,-0.591158,58.8589,71.6746)">
                    <path d="M-43.324,22.96C-43.324,11.85 -48.982,4.136 -99.155,4.136L-176.507,4.136C-226.679,4.136 -263.632,16.818 -274.274,23.611C-293.835,36.095 -288.686,48.241 -253.221,60.399C-239.543,65.088 -201.53,76.031 -151.94,78.587C-126.296,79.909 -127.518,79.702 -103.443,79.702C-53.271,79.702 -58.873,72.009 -51.165,60.021C-43.125,47.517 -43.814,35.255 -43.324,22.96Z" style="fill:#fc9d00;"/>
                </g>
                <g transform="matrix(-1,0,0,1,281.192,8.75)">
                    <path d="M254.704,55.158L243.859,55.158C243.438,52.331 242.729,49.935 241.519,48.29L237.615,55.158L228.441,55.158C229.147,58.454 230.936,60.48 235.313,60.48L245.439,60.48C249.203,60.48 252.399,58.016 254.704,55.158Z" style="fill:#e68000;"/>
                </g>
                <g transform="matrix(0.130903,-1.6031e-17,-7.23959e-17,-0.591158,58.8589,71.6746)">
                    <path d="M-35.367,22.976C-35.367,22.97 -35.366,22.965 -35.366,22.96C-35.366,18.918 -36.15,15.309 -39.323,12.324C-42.867,8.99 -49.406,6.388 -60.362,4.665C-69.556,3.219 -82.045,2.374 -99.155,2.374C-99.155,2.374 -176.507,2.374 -176.507,2.374C-198.513,2.374 -218.284,4.554 -234.733,7.701C-258.4,12.229 -275.076,18.747 -281.792,23.033C-302.168,36.038 -296.848,48.691 -259.905,61.355C-245.603,66.258 -205.598,77.63 -153.744,80.303C-127.145,81.675 -128.415,81.464 -103.443,81.464C-85.91,81.464 -74.343,80.566 -66.332,79.06C-58.233,77.537 -53.549,75.342 -50.682,72.513C-47.4,69.273 -46.405,65.119 -43.287,60.27C-35.197,47.687 -35.86,35.348 -35.367,22.976ZM-51.282,22.953C-51.768,35.168 -51.056,47.351 -59.043,59.773C-62.091,64.513 -63.003,68.575 -66.212,71.742C-68.214,73.718 -70.974,75.31 -76.632,76.373C-82.377,77.453 -90.87,77.94 -103.443,77.94C-126.621,77.94 -125.447,78.144 -150.135,76.871C-197.462,74.431 -233.483,63.917 -246.537,59.443C-280.525,47.791 -285.502,36.153 -266.756,24.188C-260.702,20.324 -245.663,14.45 -224.328,10.368C-210.775,7.775 -194.639,5.898 -176.507,5.898L-99.155,5.898C-86.16,5.898 -76.56,6.44 -69.577,7.539C-61.66,8.784 -57.376,10.722 -54.815,13.131C-51.885,15.888 -51.282,19.221 -51.282,22.953L-51.282,22.953Z" style="fill:#bc6413;"/>
                </g>
                <g transform="matrix(0.130903,-1.6031e-17,-7.23959e-17,-0.591158,58.8589,71.6746)">
                    <path d="M165.557,22.96C165.557,11.85 159.898,4.136 109.726,4.136L-42.125,4.136C-92.297,4.136 -121.403,12.736 -132.475,20.091C-153.054,33.762 -153.054,51.046 -119.315,64.998C-101.74,72.266 -68.64,82.722 -14.495,83.866C24.819,84.697 69.257,84.482 109.543,80.259C154.891,75.505 150.008,72.009 157.716,60.021C165.755,47.517 165.066,35.255 165.557,22.96Z" style="fill:#fc9d00;"/>
                </g>
                <g transform="matrix(-1,0,0,1,281.192,8.75)">
                    <path d="M237.615,55.158L215.496,55.158C216.436,52.679 216.415,50.375 215.189,48.29C213.281,51.005 211.08,53.428 208.187,55.158L201.097,55.158C201.804,58.454 203.593,60.48 207.97,60.48L227.848,60.48C232.365,60.48 235.578,58.075 237.615,55.158Z" style="fill:#e68000;"/>
                </g>
                <g transform="matrix(0.130903,-1.6031e-17,-7.23959e-17,-0.591158,58.8589,71.6746)">
                    <path d="M173.514,22.976C173.514,22.97 173.514,22.965 173.514,22.96C173.514,18.918 172.73,15.309 169.557,12.324C166.013,8.99 159.475,6.388 148.519,4.665C139.325,3.219 126.836,2.374 109.726,2.374C109.726,2.374 -42.125,2.374 -42.125,2.374C-96.332,2.374 -128.061,11.587 -140.024,19.534C-161.24,33.628 -161.114,51.446 -126.33,65.83C-107.781,73.5 -72.397,84.413 -15.25,85.62C25.389,86.479 71.303,86.217 112.948,81.851C127.703,80.305 137.479,78.855 144.267,77.269C152.613,75.318 156.72,73.15 159.357,70.254C161.687,67.695 162.869,64.508 165.594,60.27C173.684,47.687 173.02,35.348 173.514,22.976ZM157.599,22.953C157.112,35.168 157.825,47.351 149.838,59.773C147.167,63.926 146.039,67.05 143.756,69.557C141.779,71.728 138.971,73.382 132.713,74.845C126.983,76.184 118.593,77.361 106.138,78.666C67.211,82.747 24.248,82.914 -13.739,82.112C-64.885,81.032 -95.698,71.031 -112.3,64.166C-144.994,50.646 -144.867,33.895 -124.926,20.649C-114.744,13.885 -88.262,5.898 -42.125,5.898L109.726,5.898C122.72,5.898 132.321,6.44 139.304,7.539C147.221,8.784 151.505,10.722 154.065,13.131C156.995,15.888 157.598,19.221 157.599,22.953L157.599,22.953Z" style="fill:#bc6413;"/>
                </g>
            </g>
            <g transform="matrix(-1,0,0,1,281.192,8.75)">
                <path d="M32.351,38.819L69.429,38.819C65.604,47.807 61.623,52.8 48.707,52.373C40.714,52.109 35.603,46.514 32.351,38.819Z"/>
            </g>
            <g transform="matrix(-1,0,0,1,281.192,8.75)">
                <path d="M35.009,38.819C38.262,46.514 43.372,52.109 51.365,52.373L51.495,52.377C50.613,52.407 49.686,52.406 48.707,52.373C40.714,52.109 35.603,46.514 32.351,38.819L35.009,38.819Z" style="fill:#7c3b00;"/>
            </g>
            <g>
                <g transform="matrix(-1,0,0,1,281.192,8.75)">
                    <path d="M29.735,29.272L32.474,30.65C34.4,25.038 41.64,26.389 41.301,31.495L44.458,31.269C45.204,26.221 43.898,23.046 38.627,22.99C34.331,22.944 31.36,25.321 29.735,29.272"/>
                </g>
                <g transform="matrix(-1,0,0,1,281.192,8.75)">
                    <path d="M39.17,26.797C41.547,26.622 43.881,28.319 43.685,31.268L44.466,31.212L44.458,31.269L41.301,31.495C41.453,29.204 40.079,27.669 38.344,27.18L38.307,27.17C37.796,27.03 37.255,26.981 36.712,27.03L39.151,26.786L39.17,26.797ZM33,29.488L32.119,29.045C33.437,25.841 35.64,23.672 38.717,22.991C38.687,22.991 38.657,22.99 38.627,22.99C34.331,22.944 31.36,25.321 29.735,29.272L32.474,30.65C32.62,30.223 32.798,29.836 33,29.488Z" style="fill:#7c3b00;"/>
                </g>
                <g transform="matrix(-1,0,0,1,281.192,8.75)">
                    <path d="M33,29.488L32.119,29.045L29.735,29.272L32.474,30.65C32.62,30.223 32.798,29.836 33,29.488Z" style="fill:#bc6413;"/>
                </g>
            </g>
            <g transform="matrix(0.86782,0.496879,-0.496879,0.86782,24.0503,-117.711)">
                <g transform="matrix(0.86782,-0.496879,0.496879,0.86782,197.676,32.7815)">
                    <path d="M29.735,29.272L32.474,30.65C34.4,25.038 42.328,25.639 41.551,31.307L44.474,31.077C44.575,25.854 40.889,21.891 36.594,22.802C31.917,23.794 30.61,27.054 29.735,29.272"/>
                </g>
                <g transform="matrix(-0.86782,0.496879,0.496879,0.86782,285.989,-18.0235)">
                    <path d="M62.847,23.012C60.793,24.433 59.429,27.163 59.491,30.368L60.29,30.431C60.267,30.769 60.28,31.131 60.333,31.516L57.41,31.286C57.328,27.091 59.69,23.71 62.847,23.012ZM63.557,26.989C65.685,25.116 70.039,25.929 71.453,29.831L69.41,30.859C68.401,27.92 65.746,26.685 63.557,26.989Z" style="fill:#7c3b00;"/>
                </g>
            </g>
            <g transform="matrix(-1,0,0,1,281.192,8.75)">
                <path d="M34.598,20.722C37.372,18.685 37.865,18.569 40.78,17.942C41.619,17.762 43.304,17.606 43.638,17.661C43.797,17.688 43.967,17.749 43.996,17.932C44.042,18.225 43.768,18.53 43.589,18.727C43.147,19.214 42.694,19.689 42.289,20.208C41.882,20.73 41.443,21.281 40.96,21.737C40.517,22.156 39.95,22.092 39.384,22.081C38.546,22.066 37.711,22.045 36.876,22.154C35.702,22.307 34.586,22.718 33.45,23.031C33.19,23.103 32.931,23.181 32.673,23.262C32.613,23.281 32.456,23.37 32.4,23.305C32.255,23.138 32.44,22.833 32.544,22.697C32.869,22.274 34.029,21.14 34.598,20.722Z" style="fill:#ffad25;"/>
            </g>
            <g transform="matrix(-1,0,0,1,281.192,8.75)">
                <path d="M46.653,24.879C47.017,25.652 47.118,26.56 47.2,27.405C47.24,27.814 47.156,28.369 47.389,28.733C47.838,29.436 48.944,29.384 49.661,29.456C50.467,29.538 51.559,29.712 52.316,29.324C53.313,28.813 53.618,27.549 53.943,26.58C54.351,25.364 54.899,24.185 55.66,23.146C56.582,21.887 58.03,21.343 59.1,20.277C59.875,19.505 60.024,18.347 60.267,17.332C60.367,16.915 60.556,16.425 60.503,15.987C60.466,15.68 60.111,15.531 59.852,15.45C59.147,15.231 58.382,15.28 57.652,15.265C56.406,15.239 55.315,15.45 54.391,15.836C52.659,16.561 50.97,17.953 49.763,19.437C48.459,21.039 47.289,22.954 46.653,24.879Z" style="fill:#ffad25;"/>
            </g>
        </g>
        <g>
            <g transform="matrix(0.175754,-2.15237e-17,-9.72009e-17,-0.793706,110.419,72.2465)">
                <path d="M-43.324,22.96C-43.324,11.85 -48.982,4.136 -99.155,4.136L-133.996,4.136C-184.168,4.136 -231.048,8.809 -252.939,18.354C-278.152,29.346 -281.962,47.688 -253.221,60.399C-230.342,70.516 -182.864,78.763 -132.691,78.763L-98.94,78.763C-48.768,78.763 -58.873,72.009 -51.165,60.021C-43.125,47.517 -43.814,35.255 -43.324,22.96Z" style="fill:#fc9d00;"/>
            </g>
            <g transform="matrix(1,0,0,1,0,8.75)">
                <path d="M101.605,55.158C100.362,58.334 97.878,60.214 92.992,60.214L86.868,60.214C80.952,60.214 75.297,58.544 71.054,55.158L84.833,55.158C81.981,48.122 80.349,41.306 81.399,34.975C82.346,41.626 85.37,48.348 90.993,55.158L101.605,55.158Z" style="fill:#e68000;"/>
            </g>
            <g transform="matrix(0.175754,-2.15237e-17,-9.72009e-17,-0.793706,110.419,72.2465)">
                <path d="M-37.397,22.96C-37.397,22.964 -37.397,22.968 -37.397,22.972C-37.89,35.324 -37.22,47.644 -45.297,60.206C-48.391,65.018 -48.634,68.989 -51.023,72.023C-53.088,74.644 -56.841,76.627 -64.138,77.985C-71.245,79.308 -81.988,80.076 -98.94,80.076L-132.691,80.076C-184.997,80.076 -234.669,71.534 -258.52,60.986C-288.07,47.919 -284.145,29.06 -258.223,17.759C-235.329,7.778 -186.466,2.823 -133.996,2.823C-133.996,2.823 -99.155,2.823 -99.155,2.823C-82.57,2.823 -70.449,3.63 -61.537,5.032C-50.969,6.694 -44.718,9.211 -41.3,12.427C-38.158,15.383 -37.397,18.957 -37.397,22.96ZM-49.251,22.955C-49.251,19.183 -49.878,15.814 -52.839,13.028C-55.525,10.501 -60.096,8.478 -68.401,7.172C-75.666,6.029 -85.635,5.448 -99.155,5.448L-133.996,5.448C-181.871,5.448 -226.766,9.841 -247.655,18.948C-272.159,29.631 -275.855,47.458 -247.921,59.811C-226.015,69.499 -180.73,77.451 -132.691,77.451L-98.94,77.451C-85.787,77.451 -77.28,77.003 -71.765,75.976C-66.44,74.985 -64.208,73.485 -62.701,71.572C-60.328,68.559 -60.105,64.615 -57.033,59.836C-49.032,47.393 -49.738,35.19 -49.251,22.955L-49.251,22.955Z" style="fill:#bc6413;"/>
            </g>
            <g transform="matrix(0.175754,-2.15237e-17,-9.72009e-17,-0.793706,110.419,72.2465)">
                <path d="M91.058,22.96C91.058,11.85 85.4,4.136 35.228,4.136L-27.409,4.136C-77.581,4.136 -120.394,9.28 -144.056,20.544C-173.338,34.483 -167.099,52.365 -139.276,63.476C-115.181,73.099 -75.187,78.763 -25.015,78.763L35.442,78.763C85.615,78.763 75.51,72.009 83.217,60.021C91.257,47.517 90.568,35.255 91.058,22.96Z" style="fill:#fc9d00;"/>
            </g>
            <g transform="matrix(1,0,0,1,0,8.75)">
                <path d="M125.224,55.158C123.98,58.334 121.496,60.214 116.61,60.214L105.601,60.214C100.046,60.214 95.004,58.593 90.993,55.158L107.908,55.158C105.746,47.032 105.267,39.26 106.948,31.944C107.48,40.602 110.394,48.366 115.894,55.158L125.224,55.158Z" style="fill:#e68000;"/>
            </g>
            <g transform="matrix(0.175754,-2.15237e-17,-9.72009e-17,-0.793706,110.419,72.2465)">
                <path d="M96.985,22.96C96.985,22.964 96.985,22.968 96.985,22.972C96.492,35.324 97.162,47.644 89.085,60.206C85.991,65.018 85.748,68.989 83.359,72.023C81.294,74.644 77.541,76.627 70.245,77.985C63.138,79.308 52.395,80.076 35.442,80.076L-25.015,80.076C-77.448,80.076 -119.279,74.169 -144.46,64.113C-173.054,52.693 -179.523,34.316 -149.43,19.99C-124.677,8.207 -79.896,2.823 -27.409,2.823C-27.409,2.823 35.228,2.823 35.228,2.823C51.812,2.823 63.933,3.63 72.845,5.032C83.413,6.694 89.664,9.211 93.082,12.427C96.224,15.383 96.985,18.957 96.985,22.96ZM85.132,22.955C85.131,19.183 84.505,15.814 81.544,13.028C78.858,10.501 74.286,8.478 65.981,7.172C58.717,6.029 48.747,5.448 35.228,5.448L-27.409,5.448C-75.267,5.448 -116.111,10.353 -138.683,21.098C-167.152,34.65 -161.144,52.036 -134.093,62.84C-111.083,72.029 -72.926,77.451 -25.015,77.451L35.442,77.451C48.595,77.451 57.103,77.003 62.617,75.976C67.942,74.985 70.175,73.485 71.682,71.572C74.054,68.559 74.277,64.615 77.35,59.836C85.35,47.393 84.644,35.19 85.131,22.955L85.132,22.955Z" style="fill:#bc6413;"/>
            </g>
            <g transform="matrix(-0.175754,-2.15237e-17,9.72009e-17,-0.793706,169.755,72.2465)">
                <path d="M-43.324,22.96C-43.324,11.85 -48.982,4.136 -99.155,4.136L-133.996,4.136C-184.168,4.136 -231.048,8.809 -252.939,18.354C-278.152,29.346 -281.962,47.688 -253.221,60.399C-230.342,70.516 -182.864,78.763 -132.691,78.763L-98.94,78.763C-48.768,78.763 -58.873,72.009 -51.165,60.021C-43.125,47.517 -43.814,35.255 -43.324,22.96Z" style="fill:#fc9d00;"/>
            </g>
            <g transform="matrix(1,0,0,1,0,8.75)">
                <path d="M209.12,55.158L195.868,55.158C198.444,47.987 199.214,41.283 198.451,34.975C197.773,42.554 194.749,49.305 189.18,55.158L178.568,55.158C179.811,58.334 182.295,60.214 187.181,60.214L193.305,60.214C199.221,60.214 204.876,58.544 209.12,55.158Z" style="fill:#e68000;"/>
            </g>
            <g transform="matrix(-0.175754,-2.15237e-17,9.72009e-17,-0.793706,169.755,72.2465)">
                <path d="M-37.397,22.972C-37.397,22.968 -37.397,22.964 -37.397,22.96C-37.397,18.957 -38.158,15.383 -41.3,12.427C-44.718,9.211 -50.969,6.694 -61.537,5.032C-70.449,3.63 -82.57,2.823 -99.155,2.823C-99.155,2.823 -133.996,2.823 -133.996,2.823C-186.466,2.823 -235.329,7.778 -258.223,17.759C-284.145,29.06 -288.07,47.919 -258.52,60.986C-234.669,71.534 -184.997,80.076 -132.691,80.076L-98.94,80.076C-81.988,80.076 -71.245,79.308 -64.138,77.985C-56.841,76.627 -53.088,74.644 -51.023,72.023C-48.634,68.989 -48.391,65.018 -45.297,60.206C-37.22,47.644 -37.89,35.324 -37.397,22.972ZM-49.251,22.955C-49.738,35.19 -49.032,47.393 -57.033,59.836C-60.105,64.615 -60.328,68.559 -62.701,71.572C-64.208,73.485 -66.44,74.985 -71.765,75.976C-77.28,77.003 -85.787,77.451 -98.94,77.451L-132.691,77.451C-180.73,77.451 -226.015,69.499 -247.921,59.811C-275.855,47.458 -272.159,29.631 -247.655,18.948C-226.766,9.841 -181.871,5.448 -133.996,5.448L-99.155,5.448C-85.635,5.448 -75.666,6.029 -68.401,7.172C-60.096,8.478 -55.525,10.501 -52.839,13.028C-49.878,15.814 -49.251,19.183 -49.251,22.955L-49.251,22.955Z" style="fill:#bc6413;"/>
            </g>
            <g transform="matrix(-0.175754,-2.15237e-17,9.72009e-17,-0.793706,169.755,72.2465)">
                <path d="M91.058,22.96C91.058,11.85 85.4,4.136 35.228,4.136L-27.409,4.136C-77.581,4.136 -120.394,9.28 -144.056,20.544C-173.338,34.483 -167.099,52.365 -139.276,63.476C-115.181,73.099 -75.187,78.763 -25.015,78.763L35.442,78.763C85.615,78.763 75.51,72.009 83.217,60.021C91.257,47.517 90.568,35.255 91.058,22.96Z" style="fill:#fc9d00;"/>
            </g>
            <g transform="matrix(1,0,0,1,0,8.75)">
                <path d="M189.18,55.158L172.767,55.158C175.849,50.763 176.539,33.584 174.569,29.223C174.569,40.309 174.569,46.776 164.731,55.158L154.95,55.158C156.193,58.334 158.677,60.214 163.563,60.214L174.572,60.214C180.127,60.214 185.169,58.593 189.18,55.158Z" style="fill:#e68000;"/>
            </g>
            <g transform="matrix(-0.175754,-2.15237e-17,9.72009e-17,-0.793706,169.755,72.2465)">
                <path d="M96.985,22.972C96.985,22.968 96.985,22.964 96.985,22.96C96.985,18.957 96.224,15.383 93.082,12.427C89.664,9.211 83.413,6.694 72.845,5.032C63.933,3.63 51.812,2.823 35.228,2.823C35.228,2.823 -27.409,2.823 -27.409,2.823C-79.896,2.823 -124.677,8.207 -149.43,19.99C-179.523,34.316 -173.054,52.693 -144.46,64.113C-119.279,74.169 -77.448,80.076 -25.015,80.076L35.442,80.076C52.395,80.076 63.138,79.308 70.245,77.985C77.541,76.627 81.294,74.644 83.359,72.023C85.748,68.989 85.991,65.018 89.085,60.206C97.162,47.644 96.492,35.324 96.985,22.972ZM85.131,22.955C84.644,35.19 85.35,47.393 77.35,59.836C74.277,64.615 74.054,68.559 71.682,71.572C70.175,73.485 67.942,74.985 62.617,75.976C57.103,77.003 48.595,77.451 35.442,77.451L-25.015,77.451C-72.926,77.451 -111.083,72.029 -134.093,62.84C-161.144,52.036 -167.152,34.65 -138.683,21.098C-116.111,10.353 -75.267,5.448 -27.409,5.448L35.228,5.448C48.747,5.448 58.717,6.029 65.981,7.172C74.286,8.478 78.858,10.501 81.544,13.028C84.505,15.814 85.131,19.183 85.132,22.955L85.131,22.955Z" style="fill:#bc6413;"/>
            </g>
            <g transform="matrix(-0.175754,-2.15237e-17,9.72009e-17,-0.793706,169.152,72.2465)">
                <path d="M329.81,18.615C311.299,11.261 279.052,4.136 228.88,4.136L97.223,4.136C47.051,4.136 7.374,11.707 -9.887,18.643C-39.906,30.706 -36.607,51.332 -6.605,62.752C10.496,69.261 47.265,78.763 97.437,78.763L229.094,78.763C279.266,78.763 309.22,69.874 331.234,60.511C357.575,49.309 354.549,28.443 329.81,18.615Z" style="fill:#fc9d00;"/>
            </g>
            <g transform="matrix(1,0,0,1,0,8.75)">
                <path d="M165.459,55.158L116.154,55.158C119.353,58.116 123.555,60.214 128.925,60.214L152.064,60.214C157.338,60.214 161.953,58.064 165.459,55.158Z" style="fill:#e68000;"/>
            </g>
            <g transform="matrix(-0.175754,-2.15237e-17,9.72009e-17,-0.793706,169.152,72.2465)">
                <path d="M334.987,17.976C315.552,10.256 281.554,2.823 228.88,2.823C228.88,2.823 97.223,2.823 97.223,2.823C44.642,2.823 3.012,10.741 -15.077,18.01C-45.977,30.427 -42.61,51.657 -11.728,63.412C6.168,70.224 44.933,80.076 97.437,80.076L229.094,80.076C281.597,80.076 313.454,70.915 336.491,61.117C363.614,49.582 360.461,28.096 334.987,17.976L334.987,17.976ZM324.633,19.254C348.637,28.79 351.535,49.036 325.977,59.905C304.985,68.833 276.938,77.451 229.094,77.451L97.437,77.451C49.597,77.451 14.824,68.299 -1.482,62.092C-30.605,51.007 -33.835,30.986 -4.696,19.277C11.736,12.673 49.46,5.448 97.223,5.448L228.88,5.448C276.55,5.448 307.045,12.267 324.633,19.254L324.633,19.254Z" style="fill:#bc6413;"/>
            </g>
            <g transform="matrix(1,0,0,1,0,8.75)">
                <path d="M129.012,34.165C125.385,33.791 121.857,33.928 118.295,32.983C117.164,32.683 115.705,32.418 114.775,31.646C112.876,30.069 112.966,26.707 113.107,24.5C113.229,22.57 113.76,20.77 114.348,18.937C115.695,14.743 117.991,10.105 121.757,7.547C123.95,6.058 126.433,4.739 129.026,4.122C134.174,2.899 139.798,3.686 144.982,4.193C147.433,4.433 149.918,4.353 152.358,4.687C155.87,5.168 159.499,6.983 161.767,9.727C164.885,13.5 166.464,18.857 167.453,23.575C168.254,27.394 168.776,32.872 164.92,35.346C161.885,37.292 157.077,36.829 153.652,36.964C146.696,37.239 136.238,34.91 129.012,34.165Z" style="fill:#ffad25;"/>
            </g>
            <g transform="matrix(0.994834,-0.101513,0.101513,0.994834,-0.709505,29.7436)">
                <path d="M199.325,7.59C202.623,11.443 204.874,15.732 206.23,20.619C206.724,22.397 206.897,24.216 207.301,26.007C207.618,27.416 209.265,29.662 210.967,28.73C212.785,27.734 212.717,24.782 212.655,23.05C212.468,17.769 209.64,12.659 206.066,8.92C204.91,7.711 203.703,6.498 202.038,6.054C201.248,5.844 198.451,6.062 199.325,7.59Z" style="fill:#ffad25;"/>
            </g>
            <g transform="matrix(0.996976,-0.0777041,0.0777041,0.996976,-1.55117,23.5183)">
                <path d="M172.923,5.283C173.979,6.594 175.123,7.785 176.037,9.172C178.51,12.926 179.97,16.752 181.317,21.013C181.998,23.17 182.392,26.324 183.958,28.056C186.556,30.931 193.779,31.173 195.078,26.814C195.922,23.98 194.408,20.779 193.508,18.141C192.003,13.731 189.887,9.894 186.306,6.84C184.935,5.671 183.244,4.453 181.451,4.07C178.997,3.546 170.603,2.402 172.923,5.283Z" style="fill:#ffad25;"/>
            </g>
            <g transform="matrix(-0.994834,-0.101513,-0.101513,0.994834,280.955,29.7436)">
                <path d="M199.325,7.59C202.623,11.443 204.874,15.732 206.23,20.619C206.724,22.397 206.897,24.216 207.301,26.007C207.618,27.416 209.265,29.662 210.967,28.73C212.785,27.734 212.717,24.782 212.655,23.05C212.468,17.769 209.64,12.659 206.066,8.92C204.91,7.711 203.703,6.498 202.038,6.054C201.248,5.844 198.451,6.062 199.325,7.59Z" style="fill:#ffad25;"/>
            </g>
            <g transform="matrix(-0.996976,-0.0777041,-0.0777041,0.996976,281.797,23.5183)">
                <path d="M172.923,5.283C173.979,6.594 175.123,7.785 176.037,9.172C178.51,12.926 179.97,16.752 181.317,21.013C181.998,23.17 182.392,26.324 183.958,28.056C186.556,30.931 193.779,31.173 195.078,26.814C195.922,23.98 194.408,20.779 193.508,18.141C192.003,13.731 189.887,9.894 186.306,6.84C184.935,5.671 183.244,4.453 181.451,4.07C178.997,3.546 170.603,2.402 172.923,5.283Z" style="fill:#ffad25;"/>
            </g>
            <g transform="matrix(1,0,0,1,0,8.75)">
                <path d="M267.195,57.743C267.586,57.39 268.166,57.358 268.66,57.432C269.539,57.565 270.269,58.165 270.806,58.841C271.011,59.1 271.205,59.372 271.381,59.652C271.517,59.869 271.757,60.109 271.488,60.31C271.431,60.353 271.369,60.386 271.304,60.415C271.183,60.47 271.054,60.505 270.925,60.535C270.768,60.571 270.61,60.597 270.449,60.612C270.151,60.641 269.85,60.645 269.551,60.63C269.075,60.607 268.602,60.527 268.153,60.363C267.468,60.113 266.924,59.67 266.665,58.978L267.195,57.743ZM11.134,57.797C10.51,57.937 9.895,57.577 9.527,57.084C8.923,56.278 8.75,55.251 8.896,54.268C8.948,53.913 9.029,53.566 9.135,53.223C9.158,53.149 9.179,53.075 9.199,53C9.201,52.99 9.211,52.919 9.22,52.913C9.353,52.842 9.551,52.956 9.67,53.009C10.031,53.171 10.376,53.394 10.665,53.664C10.909,53.891 11.165,54.131 11.359,54.403C11.97,55.256 12.121,56.308 11.914,57.325C11.849,57.64 11.691,57.887 11.568,58.177L11.134,57.797ZM262.881,49.384C262.933,49.231 263.003,49.088 263.108,48.964C263.199,48.856 263.313,48.772 263.436,48.706C264.168,48.31 264.863,48.658 265.515,49.039C265.671,49.131 265.823,49.218 265.997,49.273C266.074,49.298 266.242,49.304 266.272,49.405C266.304,49.514 266.242,49.634 266.186,49.723C266.037,49.957 265.818,50.161 265.624,50.358C265.328,50.66 264.972,51.083 264.53,51.162C264.326,51.199 264.116,51.182 263.914,51.14C263.784,51.113 263.656,51.07 263.541,51.002C263.36,50.896 263.227,50.728 263.091,50.572L262.881,49.384ZM269.275,50.761C269.021,50.53 268.912,50.159 268.881,49.826C268.787,48.787 269.472,47.956 270.268,47.395C270.487,47.24 270.707,47.085 270.911,46.91C270.935,46.89 271.08,46.728 271.121,46.739C271.23,46.768 271.303,46.89 271.353,46.982C271.49,47.233 271.571,47.517 271.64,47.793C271.852,48.648 271.931,49.702 271.139,50.28C271.001,50.381 270.843,50.467 270.684,50.53L269.275,50.761ZM18.443,38.052C17.611,38.282 16.814,38.937 16.472,39.741C16.13,40.544 16.283,41.493 16.599,42.28C16.638,42.378 16.719,42.804 16.795,42.858C17.246,43.175 17.933,42.635 18.238,42.34C18.452,42.134 18.614,41.882 18.743,41.616C18.938,41.214 19.05,40.754 19.121,40.315C19.228,39.66 19.14,39.083 18.85,38.49L18.443,38.052ZM13.377,37.608C11.926,37.3 11.387,36.172 11.659,34.751C11.742,34.317 11.884,33.901 12.071,33.501C12.11,33.418 12.164,33.16 12.291,33.16C12.645,33.16 12.981,33.501 13.214,33.732C13.893,34.404 14.204,35.224 14.219,36.177C14.225,36.578 14.182,37.255 13.737,37.418L13.377,37.608ZM158.346,1.196C159.947,0.455 161.829,0.147 163.576,0.77C165.672,1.519 167.162,3.603 167.017,5.745C168.367,5.903 169.696,6.242 170.943,6.751C171.796,7.099 172.671,7.472 173.405,8.042C173.549,8.154 173.688,8.269 173.822,8.386C174.017,7.532 174.789,6.812 175.611,6.559C176.107,6.406 176.661,6.403 177.175,6.428C177.478,6.442 177.789,6.463 178.093,6.45C178.171,6.447 178.249,6.44 178.327,6.435C178.343,6.433 178.389,6.423 178.403,6.438C178.539,6.58 178.408,6.869 178.352,7.018C178.157,7.53 177.851,8.025 177.453,8.402C177.123,8.715 176.731,9.009 176.325,9.216C176.085,9.339 175.833,9.431 175.583,9.529C175.414,9.596 175.239,9.664 175.061,9.712C176.54,11.673 177.035,14.113 176.373,16.506C176.708,16.71 177.029,16.943 177.342,17.192C178.144,17.828 178.89,18.573 179.756,19.043C180.58,19.49 181.599,19.48 182.502,19.298C184.251,18.945 185.607,17.709 185.506,15.88C185.488,15.548 185.448,15.211 185.297,14.911C185,14.317 184.466,13.895 183.936,13.516C183.561,13.249 183.474,12.728 183.741,12.354C184.009,11.98 184.529,11.893 184.904,12.16C185.653,12.694 186.369,13.327 186.788,14.165C187.041,14.67 187.14,15.229 187.171,15.788C187.319,18.493 185.418,20.409 182.832,20.932C182.379,21.023 181.907,21.076 181.433,21.077C182.182,21.998 182.142,23.264 181.626,24.296C181.46,24.627 181.237,24.916 181.029,25.221C180.934,25.36 180.833,25.494 180.747,25.638C180.657,25.788 180.628,26.004 180.423,25.881C180.389,25.861 180.357,25.836 180.327,25.809C180.269,25.756 180.217,25.696 180.164,25.637C180.087,25.55 180.011,25.461 179.939,25.368C179.812,25.203 179.701,25.028 179.606,24.842C179.463,24.564 179.373,24.256 179.305,23.951C179.194,23.454 179.14,22.918 179.2,22.411C179.265,21.861 179.327,21.277 179.622,20.797C179.395,20.719 179.173,20.623 178.961,20.508C178.013,19.993 177.184,19.194 176.307,18.498C176.127,18.355 175.945,18.217 175.759,18.089L175.685,18.233C175.105,19.334 174.062,20.567 172.756,20.826C171.839,21.007 170.648,20.646 170.245,19.7C169.69,18.399 170.213,17.321 171.178,16.597C171.994,15.985 173.149,15.666 174.026,15.719C174.301,15.736 174.564,15.777 174.818,15.839C175.382,13.426 174.472,10.983 172.382,9.358C171.768,8.881 171.027,8.585 170.313,8.294C169.127,7.81 167.858,7.498 166.572,7.372C166.512,7.493 166.445,7.613 166.372,7.732C165.388,9.327 163.462,10.754 161.583,11.019C161.067,11.091 160.375,11.071 159.801,10.864C159.308,10.687 158.898,10.378 158.652,9.934C158.222,9.157 158.571,8.21 159.083,7.599C159.916,6.608 161.276,6.145 162.502,5.905C163.438,5.722 164.397,5.636 165.356,5.642C165.466,4.223 164.416,2.84 163.016,2.34C162.23,2.059 161.346,2.102 160.551,2.25C160.177,2.053 159.08,1.505 158.346,1.196ZM174.23,17.418C174.131,17.401 174.029,17.389 173.925,17.383C173.386,17.35 172.679,17.554 172.178,17.93C171.825,18.195 171.575,18.57 171.778,19.046C171.807,19.115 171.882,19.14 171.951,19.164C172.106,19.216 172.282,19.221 172.432,19.191C173.262,19.026 173.842,18.155 174.21,17.456L174.23,17.418ZM182.195,1.263C182.494,1.042 182.992,0.625 183.231,0.514C185.478,-0.531 187.764,-0.134 189.746,1.026C191.194,1.873 192.474,3.132 193.437,4.489C193.605,4.269 193.821,4.084 194.039,3.914C194.321,3.693 194.627,3.507 194.96,3.375C196.035,2.947 197.194,3.205 198.181,3.737C198.508,3.913 198.825,4.069 199.19,4.146C199.304,4.17 199.549,4.193 199.569,4.345C199.6,4.564 199.331,4.773 199.193,4.899C198.728,5.322 198.167,5.613 197.576,5.809C197.042,5.987 196.525,6.04 195.965,6.042C195.397,6.044 194.846,6.018 194.305,5.897C194.916,7.054 195.355,8.279 196.102,9.367C196.391,9.788 196.713,10.25 197.167,10.503C197.747,10.826 198.182,10.445 198.617,10.033C199.593,9.109 200.558,8.048 201.988,7.899C202.933,7.801 203.699,8.081 204.391,8.534C204.95,8.899 205.455,9.388 205.994,9.817C206.527,10.242 207.107,10.531 207.783,10.643C208.237,10.718 208.545,11.147 208.469,11.601C208.394,12.055 207.965,12.362 207.511,12.287C206.547,12.128 205.716,11.727 204.955,11.121C204.546,10.795 204.159,10.43 203.749,10.12C203.292,9.774 202.806,9.49 202.16,9.557C201.705,9.605 201.337,9.822 200.999,10.087C200.559,10.432 200.168,10.86 199.763,11.243C199.743,11.262 199.723,11.281 199.703,11.3C200.377,11.623 200.948,12.194 201.264,12.86C201.544,13.45 201.67,14.144 201.733,14.789C201.769,15.159 201.777,15.528 201.804,15.898C201.809,15.972 201.886,16.226 201.799,16.283C201.669,16.369 201.452,16.304 201.315,16.271C200.929,16.177 200.569,16.028 200.215,15.849C199.949,15.714 199.664,15.598 199.412,15.437C198.937,15.136 198.503,14.689 198.217,14.204C198.085,13.98 198.009,13.718 197.915,13.476C197.765,13.093 197.652,12.714 197.672,12.309C197.258,12.323 196.821,12.218 196.355,11.959C195.68,11.582 195.157,10.936 194.728,10.31C193.909,9.117 193.435,7.772 192.743,6.513C191.892,4.963 190.523,3.412 188.904,2.464C187.579,1.689 185.582,1.224 184.186,2.07C183.69,1.834 183.122,1.583 182.195,1.263ZM94.343,2.92C91.99,2.49 90.116,4.062 88.938,5.658C87.601,7.468 86.739,9.527 84.821,10.851C84.608,10.997 84.388,11.131 84.163,11.245C84.583,12.291 84.268,13.469 83.699,14.451C83.468,14.852 83.2,15.286 82.821,15.565C82.756,15.613 82.549,15.784 82.452,15.759C82.281,15.716 82.153,15.516 82.063,15.381C81.988,15.269 81.906,15.145 81.855,15.019C81.746,14.754 81.645,14.487 81.585,14.207C81.497,13.786 81.475,13.348 81.477,12.919C81.48,12.416 81.561,11.948 81.745,11.505C81.484,11.406 81.228,11.257 80.98,11.049C80.724,10.834 80.518,10.558 80.325,10.287C80.001,9.831 79.793,9.369 79.791,8.793C79.79,8.122 79.998,7.458 80.29,6.861C80.491,6.447 80.991,6.276 81.404,6.477C81.817,6.679 81.989,7.178 81.787,7.592C81.606,7.963 81.457,8.371 81.458,8.789C81.459,8.999 81.565,9.155 81.684,9.322C81.795,9.478 81.903,9.647 82.051,9.771C82.641,10.266 83.303,9.873 83.874,9.479C85.364,8.45 86.12,6.907 87.06,5.45C86.077,5.54 84.994,4.825 84.492,4.047C84.283,3.723 84.13,3.4 84.023,3.032C84.015,3.003 83.918,2.777 83.943,2.742C84.006,2.654 84.158,2.626 84.256,2.609C84.537,2.558 84.835,2.552 85.119,2.564C86.063,2.603 86.801,3.158 87.406,3.847C87.55,4.011 87.694,4.201 87.797,4.406C89.463,2.297 92.023,0.783 94.775,1.102C95.262,1.158 96.202,1.519 96.743,1.729C96.347,1.898 95.988,2.069 95.635,2.24C95.196,2.452 94.765,2.679 94.343,2.92ZM120.715,2.161C120.41,2.045 120.084,1.974 119.75,1.938C118.782,1.832 117.748,2.013 116.883,2.299C115.869,2.634 114.951,3.272 114.808,4.382C114.78,4.605 114.763,4.851 114.769,5.1C115.064,5.012 115.356,4.937 115.643,4.875C116.292,4.733 116.978,4.641 117.642,4.701C118.123,4.744 118.605,4.854 119.05,5.046C120.718,5.765 120.878,7.837 119.554,8.96C118.793,9.605 117.62,9.709 116.685,9.518C116.002,9.378 115.382,9.114 114.851,8.659C114.395,8.268 113.991,7.817 113.687,7.302C113.049,7.631 112.473,8.056 112.053,8.602C111.509,9.31 111.198,10.169 110.978,11.028C110.724,12.017 110.569,13.007 109.839,13.785C108.818,14.874 107.242,15.55 106.026,14.143C105.727,13.797 105.513,13.39 105.269,13.005C105.023,12.617 105.138,12.101 105.526,11.855C105.915,11.609 106.43,11.724 106.676,12.113C106.876,12.428 107.042,12.769 107.288,13.054C107.483,13.279 107.711,13.28 107.92,13.186C108.18,13.068 108.42,12.862 108.623,12.645C109.152,12.081 109.179,11.33 109.363,10.613C109.607,9.666 109.954,8.727 110.5,7.91C110.42,7.903 110.341,7.892 110.263,7.881C109.431,7.774 108.811,7.214 108.438,6.488C108.267,6.156 108.145,5.809 108.042,5.45C108.02,5.371 108.001,5.29 107.977,5.212C107.972,5.198 107.946,5.149 107.956,5.136C108.112,4.932 108.516,4.983 108.737,5.001C108.922,5.017 109.101,5.052 109.276,5.113C109.506,5.193 109.733,5.312 109.935,5.447C110.267,5.669 110.592,5.955 110.826,6.28C110.988,6.505 111.138,6.751 111.248,7.011C111.791,6.487 112.45,6.06 113.153,5.72C113.085,5.194 113.094,4.646 113.155,4.169C113.384,2.391 114.736,1.253 116.36,0.717C118.268,0.086 120.792,-0.036 122.469,1.261L122.462,1.264C122.434,1.276 122.405,1.289 122.376,1.302C121.775,1.57 121.182,1.889 120.715,2.161ZM164.627,7.324C164.02,7.353 163.416,7.425 162.821,7.541C161.951,7.711 160.951,7.967 160.36,8.671C160.283,8.762 160.207,8.87 160.155,8.987C160.134,9.034 160.084,9.08 160.11,9.127C160.185,9.261 160.349,9.3 160.507,9.338C160.793,9.407 161.107,9.403 161.35,9.368C162.585,9.194 163.833,8.337 164.627,7.324ZM115.273,6.686C115.461,6.948 115.689,7.182 115.935,7.393C116.247,7.66 116.618,7.803 117.02,7.885C117.49,7.981 118.093,8.013 118.476,7.689C118.85,7.371 118.862,6.78 118.39,6.577C118.107,6.454 117.799,6.389 117.492,6.361C116.996,6.316 116.484,6.397 115.999,6.503C115.761,6.555 115.518,6.615 115.273,6.686Z" style="fill:#0e410e;"/>
            </g>
            <g>
                <g transform="matrix(0.88507,-0.465457,0.465457,0.88507,-13.2792,44.384)">
                    <path d="M67.401,48.249C67.392,46.986 67.621,45.785 67.955,44.572C68.016,44.35 67.885,44.121 67.663,44.06C67.442,43.999 67.212,44.129 67.151,44.351C66.796,45.639 66.558,46.915 66.568,48.255C66.57,48.485 66.758,48.671 66.988,48.669C67.218,48.667 67.403,48.479 67.401,48.249Z" style="fill:#bc6411;"/>
                </g>
                <g transform="matrix(0.828153,-0.560501,0.560501,0.828153,-14.2123,53.3062)">
                    <path d="M68.603,49.631C68.73,49.052 68.891,48.5 69.121,47.953C69.21,47.741 69.11,47.497 68.898,47.408C68.686,47.319 68.442,47.419 68.353,47.631C68.103,48.225 67.926,48.824 67.789,49.453C67.74,49.678 67.882,49.9 68.107,49.949C68.332,49.998 68.554,49.856 68.603,49.631Z" style="fill:#bc6411;"/>
                </g>
                <g transform="matrix(1,0,0,1,0,8.75)">
                    <path d="M96.866,13.406C97.077,12.175 97.425,10.955 97.996,9.841C98.101,9.636 98.021,9.385 97.816,9.28C97.611,9.175 97.36,9.255 97.255,9.46C96.645,10.649 96.27,11.951 96.045,13.265C96.006,13.491 96.158,13.707 96.385,13.746C96.612,13.785 96.827,13.632 96.866,13.406Z" style="fill:#bc6411;"/>
                </g>
                <g transform="matrix(1,0,0,1,0,8.75)">
                    <path d="M98.562,14.991C98.675,14.284 98.849,13.589 99.032,12.897C99.091,12.674 98.959,12.446 98.736,12.387C98.514,12.328 98.286,12.461 98.227,12.683C98.036,13.402 97.857,14.124 97.739,14.859C97.703,15.086 97.858,15.3 98.085,15.337C98.312,15.373 98.526,15.218 98.562,14.991Z" style="fill:#bc6411;"/>
                </g>
                <g transform="matrix(1,0,0,1,0,8.75)">
                    <path d="M160.534,47.207C160.159,48.369 159.73,49.579 158.937,50.527C158.789,50.704 158.812,50.967 158.988,51.114C159.165,51.262 159.428,51.239 159.575,51.062C160.438,50.033 160.919,48.725 161.327,47.463C161.398,47.245 161.278,47.009 161.059,46.939C160.84,46.868 160.605,46.988 160.534,47.207Z" style="fill:#bc6411;"/>
                </g>
                <g transform="matrix(1,0,0,1,0,8.75)">
                    <path d="M162.164,48.217C161.9,49.022 161.549,49.783 161.094,50.5C160.971,50.694 161.028,50.952 161.222,51.075C161.417,51.198 161.674,51.141 161.798,50.947C162.29,50.171 162.67,49.348 162.956,48.477C163.027,48.258 162.908,48.022 162.69,47.951C162.471,47.879 162.236,47.998 162.164,48.217Z" style="fill:#bc6411;"/>
                </g>
                <g transform="matrix(1,0,0,1,0,8.75)">
                    <path d="M127.88,8.241C128.276,7.209 128.739,6.199 129.402,5.309C129.539,5.124 129.501,4.863 129.316,4.726C129.132,4.589 128.871,4.627 128.733,4.811C128.025,5.762 127.525,6.84 127.102,7.943C127.02,8.157 127.127,8.399 127.342,8.481C127.557,8.563 127.798,8.456 127.88,8.241Z" style="fill:#bc6411;"/>
                </g>
                <g transform="matrix(1,0,0,1,0,8.75)">
                    <path d="M130.251,7.648C130.572,7.186 130.944,6.769 131.294,6.33C131.438,6.15 131.408,5.888 131.229,5.744C131.049,5.601 130.787,5.63 130.643,5.81C130.281,6.264 129.898,6.695 129.567,7.173C129.436,7.362 129.482,7.621 129.671,7.753C129.86,7.884 130.12,7.837 130.251,7.648Z" style="fill:#bc6411;"/>
                </g>
                <g transform="matrix(1,0,0,1,0,8.75)">
                    <path d="M211.13,46.288C210.785,47.753 210.389,49.364 209.379,50.52C209.228,50.693 209.246,50.957 209.419,51.108C209.592,51.259 209.855,51.241 210.007,51.068C211.105,49.811 211.566,48.072 211.941,46.479C211.994,46.255 211.855,46.031 211.631,45.978C211.407,45.925 211.183,46.064 211.13,46.288Z" style="fill:#bc6411;"/>
                </g>
                <g transform="matrix(1,0,0,1,0,8.75)">
                    <path d="M211.68,49.219C211.521,49.736 211.319,50.229 211.041,50.694C210.924,50.891 210.988,51.147 211.186,51.265C211.383,51.383 211.639,51.318 211.757,51.121C212.069,50.599 212.297,50.046 212.477,49.466C212.545,49.246 212.421,49.013 212.202,48.945C211.982,48.877 211.748,49 211.68,49.219Z" style="fill:#bc6411;"/>
                </g>
                <g transform="matrix(1,0,0,1,0,8.75)">
                    <path d="M183.108,6.049C183.953,6.813 184.694,7.7 185.258,8.692C185.371,8.892 185.626,8.962 185.826,8.849C186.026,8.735 186.096,8.481 185.982,8.281C185.375,7.211 184.577,6.254 183.666,5.431C183.496,5.277 183.232,5.29 183.078,5.461C182.924,5.631 182.937,5.895 183.108,6.049Z" style="fill:#bc6411;"/>
                </g>
                <g transform="matrix(1,0,0,1,0,8.75)">
                    <path d="M183.411,8.325C183.598,8.578 183.77,8.829 183.926,9.102C184.039,9.302 184.294,9.371 184.494,9.258C184.694,9.144 184.763,8.889 184.65,8.689C184.477,8.387 184.288,8.11 184.081,7.83C183.944,7.645 183.683,7.605 183.498,7.742C183.313,7.879 183.274,8.14 183.411,8.325Z" style="fill:#bc6411;"/>
                </g>
            </g>
        </g>
    </g>
</svg>
