<?xml version="1.0" encoding="UTF-8" standalone="no"?>
<!DOCTYPE svg PUBLIC "-//W3C//DTD SVG 1.1//EN" "http://www.w3.org/Graphics/SVG/1.1/DTD/svg11.dtd">
<svg width="100%" height="100%" viewBox="0 0 280 62" version="1.1" xmlns="http://www.w3.org/2000/svg" xmlns:xlink="http://www.w3.org/1999/xlink" xml:space="preserve" xmlns:serif="http://www.serif.com/" style="fill-rule:evenodd;clip-rule:evenodd;stroke-linejoin:round;stroke-miterlimit:2;">
    <g id="banner_20" transform="matrix(-1,0,0,1,280,-8.7)">
        <g>
            <g>
                <path d="M280,59.345L280,47.751L-0,47.751L-0,65.286C-0,67.888 2.112,70 4.714,70L48.513,70L17.204,70L17.204,59.345L48.513,59.345L48.513,70L77.25,70L77.25,59.345L108.559,59.345L108.559,70L94.905,70L140,70L140,59.345L171.309,59.345L171.309,70L224,70L202.618,70L202.618,59.345L233.927,59.345L233.927,70L265.236,70L265.236,59.345L280,59.345Z" style="fill:#ae0d26;"/>
                <path d="M280,65.286L280,59.345L265.236,59.345L265.236,70L275.286,70C277.888,70 280,67.888 280,65.286ZM233.927,70L233.927,59.345L202.618,59.345L202.618,70L233.927,70ZM171.309,70L171.309,59.345L140,59.345L140,70L171.309,70ZM108.559,70L108.559,59.345L77.25,59.345L77.25,70L108.559,70ZM48.513,70L48.513,59.345L17.204,59.345L17.204,70L48.513,70Z" style="fill:#cacaca;"/>
            </g>
            <g transform="matrix(-0.893232,-1.09389e-16,8.74808e-17,-0.714335,285.834,65.8968)">
                <path d="M320,8.028C320,5.159 318.138,2.83 315.844,2.83L10.688,2.83C8.394,2.83 6.532,5.159 6.532,8.028L6.532,74.803C6.532,77.671 8.394,80 10.688,80L315.844,80C318.138,80 320,77.671 320,74.803L320,8.028Z" style="fill:#545761;"/>
            </g>
            <g transform="matrix(1.62351e-14,0.0730196,-37.0793,14.0196,2241.84,-738.962)">
                <rect x="195.661" y="52.909" width="68.468" height="2.98" style="fill:#4c4e54;"/>
            </g>
            <path d="M280,40.891L232.433,58.875L232.433,63.875L280,45.89L280,40.891Z" style="fill:#4c4e54;"/>
            <g transform="matrix(0.453543,0,1.05184,1.0475,7.01143,-0.415634)">
                <rect x="52.661" y="8.75" width="24.253" height="52.625" style="fill:#4c4e54;"/>
            </g>
            <g transform="matrix(-0.390092,0,1.05184,1.0475,29.2611,-0.415634)">
                <rect x="52.661" y="8.75" width="24.253" height="52.625" style="fill:#4c4e54;"/>
            </g>
            <g>
                <path d="M265.236,63.875L265.236,58.875L233.927,58.875L233.927,63.875L208.144,63.875L265.236,63.875ZM202.618,63.875L171.309,63.875L171.309,58.875L202.618,58.875L202.618,63.875ZM140,63.875L108.559,63.875L108.559,58.875L140,58.875L140,63.875ZM77.25,63.875L48.513,63.875L48.513,58.875L77.25,58.875L77.25,63.875ZM17.204,63.875L17.204,58.875L-0,58.875L-0,60.162C-0,62.211 1.664,63.875 3.713,63.875L17.204,63.875Z" style="fill:#f10e31;"/>
                <path d="M280,58.875L265.236,58.875L265.236,63.875L276.287,63.875C278.336,63.875 280,62.211 280,60.162L280,58.875ZM233.927,63.875L233.927,58.875L202.618,58.875L202.618,63.875L233.927,63.875ZM171.309,63.875L171.309,58.875L140,58.875L140,63.875L171.309,63.875ZM108.559,63.875L108.559,58.875L77.25,58.875L77.25,63.875L108.559,63.875ZM48.513,63.875L48.513,58.875L17.204,58.875L17.204,63.875L48.513,63.875Z" style="fill:#fff;"/>
            </g>
        </g>
        <g transform="matrix(1,0,0,1.06968,0,-4.10268)">
            <rect x="7.001" y="12.015" width="2.475" height="46.86" style="fill:#ffc900;"/>
        </g>
        <path d="M13.249,58.875L29.481,58.875L29.481,44.576L43.78,44.576L43.78,58.875L45.712,58.875L45.712,8.75L29.481,8.75L29.481,15.977L15.181,15.977L15.181,8.75L13.249,8.75L13.249,58.875ZM15.181,30.277L15.181,44.576L29.481,44.576L29.481,30.277L43.78,30.277L43.78,15.977L29.481,15.977L29.481,30.277L15.181,30.277Z" style="fill:#fff;"/>
        <rect x="61.549" y="8.75" width="45.679" height="4.539" style="fill:#fff;"/>
        <g transform="matrix(1,0,0,1,78.4507,0)">
            <rect x="61.549" y="8.75" width="45.679" height="4.539" style="fill:#fff;"/>
        </g>
        <g transform="matrix(1,0,0,1,156.901,0)">
            <rect x="61.549" y="8.75" width="45.679" height="4.539" style="fill:#fff;"/>
        </g>
        <path d="M208.202,8.75C211.434,29.292 229.014,42.248 248.106,42.542C248.823,42.553 249.536,42.525 250.246,42.49C250.872,42.524 251.504,42.542 252.14,42.542L280,42.542L280,45.025L252.14,45.025C251.504,45.025 250.872,45.008 250.246,44.973C249.536,45.008 248.823,45.025 248.106,45.025C226.66,45.025 208.859,29.292 205.627,8.75L208.202,8.75ZM280,33.088L280,41.239L253.749,41.239C253.113,41.239 252.481,41.222 251.855,41.187C251.145,41.222 250.432,41.252 249.716,41.239C228.961,40.875 213.087,28.535 209.331,8.75L219.739,8.75C221.877,17.858 228.93,32.773 249.412,33.088C250.129,33.099 280,33.088 280,33.088ZM280,31.456L280,32.639C280,32.639 250.432,32.652 249.716,32.639C228.961,32.275 222.603,17.106 220.417,8.75L221.568,8.75C224.264,17.747 229.656,30.75 249.412,31.456C250.129,31.482 280,31.456 280,31.456ZM280,31.007C280,31.007 250.432,31.034 249.716,31.007C229.686,30.252 224.805,17.051 222.245,8.75L223.877,8.75C227.689,20.994 235.536,29.157 250.984,29.157C251.701,29.157 265.404,29.139 266.114,29.104C266.74,29.139 267.372,29.157 268.008,29.157L280,29.157L280,31.007Z" style="fill:#2e3037;fill-opacity:0.5;"/>
    </g>
</svg>
