<?xml version="1.0" encoding="UTF-8" standalone="no"?>
<!DOCTYPE svg PUBLIC "-//W3C//DTD SVG 1.1//EN" "http://www.w3.org/Graphics/SVG/1.1/DTD/svg11.dtd">
<svg width="100%" height="100%" viewBox="0 0 280 62" version="1.1" xmlns="http://www.w3.org/2000/svg" xmlns:xlink="http://www.w3.org/1999/xlink" xml:space="preserve" xmlns:serif="http://www.serif.com/" style="fill-rule:evenodd;clip-rule:evenodd;stroke-linejoin:round;stroke-miterlimit:2;">
    <g id="banner_21" transform="matrix(1,0,0,1,0,-8.7)">
        <path d="M280,47.751L-0,47.751L-0,65.286C-0,67.888 2.112,70 4.714,70L275.286,70C277.888,70 280,67.888 280,65.286L280,47.751Z" style="fill:#265200;"/>
        <g transform="matrix(-0.893232,-1.09389e-16,8.74808e-17,-0.714335,285.834,65.8968)">
            <path d="M320,8.028C320,5.159 318.138,2.83 315.844,2.83L10.688,2.83C8.394,2.83 6.532,5.159 6.532,8.028L6.532,74.803C6.532,77.671 8.394,80 10.688,80L315.844,80C318.138,80 320,77.671 320,74.803L320,8.028Z" style="fill:#4a9b00;"/>
        </g>
        <g transform="matrix(1,0,0,1,-19.8673,0)">
            <path d="M232.534,8.75L203.467,8.75L203.467,63.875L232.534,63.875L232.534,8.75ZM290.668,8.75L261.601,8.75L261.601,63.875L290.668,63.875L290.668,8.75ZM174.401,8.75L145.334,8.75L145.334,63.875L174.401,63.875L174.401,8.75ZM116.267,8.75L87.2,8.75L87.2,63.875L116.267,63.875L116.267,8.75ZM58.134,8.75L29.067,8.75L29.067,63.875L58.134,63.875L58.134,8.75Z" style="fill:#3b7e00;"/>
        </g>
        <path d="M3.962,56.655C3.962,58.704 5.625,60.368 7.674,60.368L272.326,60.368C274.375,60.368 276.038,58.704 276.038,56.655L276.038,15.97C276.038,13.921 274.375,12.257 272.326,12.257L7.674,12.257C5.625,12.257 3.962,13.921 3.962,15.97L3.962,56.655ZM140.625,14.341L272.326,14.341C273.225,14.341 273.955,15.071 273.955,15.97L273.955,19.805L254.3,19.805L254.3,52.82L273.955,52.82L273.955,56.655C273.955,57.554 273.225,58.284 272.326,58.284L140.625,58.284L140.625,49.032C147.308,48.705 152.632,43.177 152.632,36.415C152.632,29.653 147.308,24.124 140.625,23.798L140.625,14.341ZM139.375,14.341L7.674,14.341C6.775,14.341 6.045,15.071 6.045,15.97L6.045,19.805L25.7,19.805L25.7,52.82L6.045,52.82L6.045,56.655C6.045,57.554 6.775,58.284 7.674,58.284L139.375,58.284L139.375,49.032C132.692,48.705 127.368,43.177 127.368,36.415C127.368,29.653 132.692,24.124 139.375,23.798L139.375,14.341ZM6.045,21.055L6.045,28.562L15.572,28.562L15.572,44.267L6.045,44.267L6.045,51.57L24.45,51.57L24.45,21.055L6.045,21.055ZM273.955,21.055L273.955,28.562L264.428,28.562L264.428,44.267L273.955,44.267L273.955,51.57L255.55,51.57L255.55,21.055L273.955,21.055ZM139.375,25.049L139.375,34.56C138.655,34.817 138.14,35.505 138.14,36.312C138.14,37.12 138.655,37.808 139.375,38.065L139.375,47.78C133.383,47.455 128.618,42.487 128.618,36.415C128.618,30.342 133.383,25.374 139.375,25.049ZM140.625,25.049C146.617,25.374 151.382,30.342 151.382,36.415C151.382,42.487 146.617,47.455 140.625,47.78L140.625,38.065C141.345,37.808 141.86,37.12 141.86,36.312C141.86,35.505 141.345,34.817 140.625,34.56L140.625,25.049ZM6.045,29.157L14.977,29.157L14.977,43.673L6.045,43.673L6.045,29.157ZM273.955,29.157L265.023,29.157L265.023,43.673L273.955,43.673L273.955,29.157ZM20.004,35.708C20.338,35.708 20.609,35.979 20.609,36.313C20.609,36.646 20.338,36.917 20.004,36.917C19.67,36.917 19.399,36.646 19.399,36.313C19.399,35.979 19.67,35.708 20.004,35.708ZM259.996,35.708C260.33,35.708 260.601,35.979 260.601,36.313C260.601,36.646 260.33,36.917 259.996,36.917C259.662,36.917 259.391,36.646 259.391,36.313C259.391,35.979 259.662,35.708 259.996,35.708Z" style="fill:#fff;fill-opacity:0.7;"/>
    </g>
</svg>
