<?xml version="1.0" encoding="UTF-8" standalone="no"?>
<!DOCTYPE svg PUBLIC "-//W3C//DTD SVG 1.1//EN" "http://www.w3.org/Graphics/SVG/1.1/DTD/svg11.dtd">
<svg width="100%" height="100%" viewBox="0 0 280 62" version="1.1" xmlns="http://www.w3.org/2000/svg" xmlns:xlink="http://www.w3.org/1999/xlink" xml:space="preserve" xmlns:serif="http://www.serif.com/" style="fill-rule:evenodd;clip-rule:evenodd;stroke-linejoin:round;stroke-miterlimit:2;">
    <g id="banner_halloween_1_3" transform="matrix(1,0,0,1,0,-8.75)">
        <g transform="matrix(1,0,0,1,0,8.75)">
            <path d="M209.033,14.8L206.521,20.097L205.973,18.124L203.292,18.842L204.823,23.123L211.182,22.55L209.958,14.876L209.033,14.8Z" style="fill:#1e1e1e;"/>
        </g>
        <g transform="matrix(1,0,0,1,0,8.75)">
            <path d="M222.165,57.867L221.443,51.099L221.585,51.099L224.901,57.691L226.468,58.547L227.021,61.25L229.416,61.25L229.308,57.491L226.066,54.872L222.279,50.125L220.484,49.585L220.086,55.214L221.626,57.89L222.165,57.867Z" style="fill:#1e1e1e;"/>
        </g>
        <g transform="matrix(1,0,0,1,0,8.75)">
            <path d="M51.411,61.25L53.916,61.25L56.83,55.418L61.638,49.585L69.272,44.541L75.882,31.061L78.131,22.154L81.203,19.944L86.362,12.663L85.543,6.194L83.232,0L83.009,11.134L78.59,18.172L76.334,19.783L73.75,29.503L67.114,42.541L58.611,47.61L52.765,54.818L51.411,61.25Z" style="fill:#1e1e1e;"/>
        </g>
        <g transform="matrix(1,0,0,1,0,8.75)">
            <path d="M67.793,0L70.027,0L70.645,3.384L71.256,2.416L72.117,2.247L72.665,3.33L72.987,0.87L73.879,0.62L74.68,1.22L73.582,5.413L68.371,4.793L67.793,0Z" style="fill:#1e1e1e;"/>
        </g>
        <g transform="matrix(1,0,0,1,0,8.75)">
            <path d="M-0,25.247L-0,28.539L3.174,29.94L3.13,31.752L1.501,31.911L1.222,35.613L3.581,35.289L5.477,30.625L4.831,25.088L-0,25.247Z" style="fill:#1e1e1e;"/>
        </g>
        <g transform="matrix(1,0,0,1,0,8.75)">
            <path d="M72.953,39.001L280,39.001L280,56.536C280,59.138 277.888,61.25 275.286,61.25L229.258,61.25L228.8,57.805L225.644,55.125L221.947,50.423C221.947,50.423 220.828,50.155 220.77,50.128L220.587,55.125L222.165,57.867L222.181,61.25L56.386,61.25L58.797,55.125L64.381,48.875L69.894,43.151L72.953,39.001ZM69.839,39.001L67.504,43.151L59.326,48.466L54.078,55.125L51.616,61.25L4.714,61.25C2.112,61.25 -0,59.138 -0,56.536L-0,39.001L69.839,39.001Z" style="fill:#3e3e3e;"/>
        </g>
        <g transform="matrix(1,0,0,1,0,8.75)">
            <path d="M197.974,0L200.342,6.25L200.472,12.105L203.947,19.675L205.518,19.918L205.973,18.124L207.78,22.2L209.318,22.163L209.033,14.8L210.815,14.343L211.645,12.253L212.418,6.25L217.756,0L276.287,0C278.336,0 280,1.664 280,3.713L280,51.412C280,53.461 278.336,55.125 276.287,55.125L225.644,55.125L221.947,50.423C221.947,50.423 220.828,50.155 220.77,50.128L220.587,55.125L58.797,55.125L64.381,48.875L69.894,43.151L79.109,30.65L78.977,21.76L82.883,19.785L87.633,12.446L89.861,6.25L91.478,0L197.974,0ZM-0,25.935L-0,3.713C-0,1.664 1.664,0 3.713,0L68.465,0L69.358,3.047L70.741,3.184L71.251,2.409L71.914,4.478L72.988,0.87L73.817,1.762L75.314,0L84.236,0L85.558,6.25L84.602,12.187L80.188,18.908L76.963,21.022L74.807,30.169L67.504,43.151L59.326,48.466L54.078,55.125L3.713,55.125C1.664,55.125 -0,53.461 -0,51.412L0,37.001L1.749,34.524L1.502,31.91L4.227,30.65L4.31,28.66L-0,25.935Z" style="fill:#676767;"/>
        </g>
        <g transform="matrix(1,0,0,1,0,8.75)">
            <path d="M51.978,46.868C50.479,46.626 49.02,46.11 47.501,45.994C45.338,45.828 43.588,47.109 41.454,47.129C39.03,47.152 36.621,46.418 34.214,46.273C33.013,46.2 31.649,46.212 30.46,46.413C29.445,46.584 28.434,46.988 27.395,46.992C25.748,46.999 24.385,46.215 22.803,46.099C21.542,46.006 20.461,46.533 19.399,47.135L16.726,47.135L16.713,47.125C16.42,46.911 15.901,46.744 15.52,46.488L15.591,44.456C15.743,44.176 15.88,43.927 15.929,43.767C16.311,42.518 16.184,41.165 16.026,39.898C15.988,39.59 15.893,39.269 15.785,38.943L15.922,35.021C16.163,34.48 16.43,33.947 16.632,33.391C17.008,32.355 17.093,31.142 17.146,30.049C17.213,28.633 16.395,27.524 16.389,26.178C16.385,25.233 16.825,24.361 17.003,23.449C17.176,22.564 17.098,21.712 16.968,20.828C16.828,19.884 16.74,18.885 16.521,17.951L16.626,14.929C16.964,14.621 17.397,14.345 17.753,14.07L18.923,14.07C19.6,14.4 20.27,14.803 21.02,14.936C22.56,15.208 24.004,14.753 25.532,14.658C28.302,14.486 31.074,14.286 33.844,14.127C35.683,14.022 37.524,14.43 39.331,14.37C39.657,14.359 39.928,14.215 40.197,14.07L42.2,14.07C42.928,14.389 43.648,14.843 44.351,14.85C44.876,14.854 45.162,14.393 45.574,14.173C45.645,14.135 45.717,14.101 45.791,14.07L49.188,14.07C49.769,14.158 50.344,14.271 50.879,14.417C51.436,14.569 51.98,15.021 52.552,15.031C53.657,15.05 55.065,14.343 56.176,14.125C56.275,14.105 56.375,14.087 56.477,14.07L65.581,14.07C65.661,14.083 65.741,14.097 65.821,14.112C66.496,14.233 67.111,14.636 67.804,14.655C68.556,14.675 69.179,14.245 69.884,14.187C70.609,14.127 70.911,15.142 71.611,14.598C71.712,14.519 71.806,14.431 71.897,14.341C71.982,14.256 72.061,14.162 72.141,14.07L75.483,14.07C76.373,14.558 77.275,15.006 78.142,15.533C78.536,15.773 78.951,15.802 79.102,16.156L78.109,17.978L78.085,18.001C77.822,18.268 77.507,18.897 77.229,19.088C75.816,20.055 74.248,19.574 73.377,21.338C72.737,22.635 73.326,23.871 73.4,25.167L73.011,26.817C72.779,27.234 72.501,27.635 72.34,28.09C72.017,29.004 72.036,29.965 71.817,30.887L70.557,33.127C70.256,33.482 69.942,33.824 69.659,34.164C68.66,35.367 67.736,36.667 66.833,37.944C66.102,38.978 66.183,40.192 65.527,41.196C65.245,41.628 64.97,42.239 64.631,42.761C64.321,42.088 63.925,41.531 63.469,41.26C63.354,41.192 63.381,41.512 63.339,41.638C63.241,41.929 63.146,42.221 63.047,42.511C62.857,43.064 62.658,43.66 62.384,44.205C62.008,44.325 61.637,44.451 61.294,44.648C61.228,44.686 61.164,44.727 61.101,44.771C60.745,44.31 60.318,43.694 60.115,43.593C60.097,43.585 59.631,44.414 59.614,44.442C59.219,45.112 58.76,45.913 58.075,46.326C58.002,46.371 58.044,46.157 58.028,46.072C57.994,45.893 57.96,45.715 57.925,45.536C57.824,45.023 57.717,44.512 57.61,44C57.287,42.452 57.074,40.087 55.702,39.065C55.599,38.988 55.577,39.291 55.516,39.405C55.391,39.641 55.27,39.879 55.151,40.118C54.847,40.726 54.546,41.335 54.244,41.943C53.846,42.743 53.446,43.542 53.07,44.353C52.684,45.185 52.322,46.022 51.978,46.868ZM210.841,46.32C206.901,46.232 202.98,46.332 199.034,46.345C197.736,46.35 196.311,46.111 195.03,46.389C194.524,46.499 194.119,46.861 193.67,47.102L192.362,47.102C191.955,46.79 191.578,46.272 191.035,46.328C190.562,46.376 190.19,46.773 189.794,47.102L188.106,47.102C188.095,47.093 188.084,47.084 188.073,47.077C187.808,46.884 187.538,46.765 187.239,46.703C187.062,45.829 186.855,44.955 186.427,44.191C186.365,44.082 186.333,44.424 186.29,44.542C186.181,44.851 186.086,45.165 185.998,45.48C185.896,45.847 185.809,46.22 185.72,46.593C185.498,46.583 185.276,46.573 185.055,46.563C185.036,46.363 185.016,46.162 184.993,45.961C184.839,44.572 184.68,43.059 184.17,41.749C184.087,41.535 184.063,42.193 184.015,42.417C183.914,42.884 183.824,43.354 183.733,43.823C183.559,44.715 183.388,45.609 183.242,46.506C181.273,46.464 179.302,46.487 177.335,46.591C175.899,46.667 174.492,47.053 173.051,47.035C171.795,47.02 170.589,46.615 169.333,46.582C167.84,46.542 166.435,46.797 165.016,47.102L144.853,47.102C144.084,46.593 143.674,46.795 143.08,47.102L140.724,47.102C140.271,46.833 139.82,46.539 139.208,46.505C138.499,46.465 137.851,46.776 137.204,47.102L117.368,47.102C117.211,47.086 117.053,47.071 116.896,47.056C114.645,46.846 112.419,46.873 110.174,46.724C109.14,46.655 108.121,46.429 107.082,46.413C106.121,46.399 105.096,46.361 104.16,46.612C103.689,46.739 103.239,46.937 102.78,47.102L100.066,47.102C99.509,46.898 98.96,46.644 98.388,46.546C96.311,46.188 94.033,46.141 91.934,46.197C91.308,46.214 90.659,46.247 90.032,46.36C90.097,45.243 90.148,44.081 89.732,43.053C89.666,42.892 89.557,43.355 89.474,43.509C89.289,43.851 89.112,44.198 88.933,44.543C88.502,45.374 88.114,46.282 87.626,47.102L87.221,47.102C87.227,47.043 87.232,46.984 87.237,46.925C87.289,46.361 87.367,45.8 87.458,45.241C87.729,43.568 88.053,41.91 88.191,40.218C88.211,39.983 88.38,38.614 88.174,38.463C88.08,38.394 88.088,38.681 88.043,38.789C87.944,39.025 87.846,39.261 87.751,39.498C87.477,40.187 87.213,40.88 86.952,41.573C86.248,43.441 85.387,45.246 84.657,47.102L84.468,47.102C83.856,46.854 83.259,46.553 82.615,46.41C81.8,46.23 80.953,46.403 80.13,46.413C78.131,46.44 76.184,46.421 74.219,46.869C73.937,46.934 73.662,47.012 73.391,47.102L71.181,47.102L71.174,47.08C71.11,46.89 71.051,46.547 70.969,46.197L71.786,45.024L74.399,43.151L74.428,43.113C75.369,42.841 76.186,42.263 76.614,41.318C76.987,40.493 76.959,39.521 77.658,38.863C78.557,38.017 79.695,37.478 80.425,36.455C81.272,35.27 81.557,33.866 82.177,32.6L83.072,31.387C83.562,30.968 84.134,30.599 84.302,29.999C84.543,29.139 83.889,28.036 83.747,27.183C83.419,25.21 83.662,22.639 84.95,21.018L87.139,19.91C87.855,19.729 88.562,19.538 89.046,18.994C89.379,18.619 89.518,18.105 89.818,17.702C90.151,17.253 90.615,16.928 90.957,16.487C91.356,15.973 91.47,15.517 92.159,15.35C92.969,15.155 93.849,15.18 94.675,15.087L94.683,15.086L99.109,15.086C100.457,15.321 101.802,15.616 103.16,15.663C105.074,15.73 106.918,15.335 108.781,15.086L113.107,15.086C114.439,15.343 115.74,15.777 117.09,15.862C117.961,15.917 118.45,15.145 119.299,15.26C120.346,15.403 121.394,16.266 122.455,16.215C122.958,16.191 123.384,15.745 123.791,15.497C124.104,15.307 124.453,15.178 124.81,15.086L128.528,15.086C129.594,15.326 130.595,15.761 131.67,15.904C132.772,16.05 133.989,15.782 135.072,15.543C135.41,15.469 135.666,15.306 135.852,15.086L141.664,15.086C142.2,15.146 142.735,15.208 143.27,15.279C144.423,15.431 145.626,15.701 146.793,15.683C147.657,15.669 148.487,15.352 149.33,15.197C149.579,15.152 149.831,15.115 150.086,15.086L153.613,15.086C154.622,15.211 155.631,15.431 156.639,15.517C158.801,15.703 161.119,15.648 163.291,15.489C164.128,15.428 164.948,15.269 165.763,15.086L182.013,15.086C182.54,15.503 183.084,15.911 183.666,15.984C184.275,16.061 184.587,15.486 184.945,15.086L186.586,15.086C187.232,15.47 187.834,16.011 188.591,15.999C189.24,15.989 189.678,15.447 190.203,15.086L198.404,15.086C198.936,15.311 199.598,15.674 200.279,15.933C200.435,16.731 200.585,17.526 200.88,18.29C200.947,18.464 200.984,18.643 201.035,18.821C201.038,18.833 201.076,18.995 201.084,18.995C201.36,18.99 201.619,18.51 201.767,18.315C201.784,18.292 201.929,18.074 201.985,18.089C202.011,18.096 202.033,18.111 202.052,18.133L202.148,18.341C202.169,18.423 202.181,18.504 202.186,18.55C202.247,19.041 202.156,19.552 202.231,20.038C202.314,20.575 203.117,20.644 203.392,21.056L203.399,21.066L203.506,21.3C203.576,21.523 203.586,21.773 203.611,21.995C203.63,22.171 203.636,22.38 203.777,22.505C204.162,22.846 204.706,22.851 205.192,22.891C205.361,22.905 205.55,22.984 205.719,22.933C205.913,22.874 205.957,22.582 206.1,22.528C206.28,22.461 206.538,22.464 206.704,22.579C206.923,22.73 206.939,23.076 206.997,23.309C207.13,23.847 207.197,24.543 207.517,25.014C207.741,25.344 208.362,25.366 208.708,25.357C209.106,25.347 209.497,25.319 209.891,25.273C210.018,25.259 210.194,25.282 210.319,25.229C210.475,25.163 210.611,24.952 210.764,24.859C210.887,24.786 211.108,24.765 211.202,24.652C211.558,24.224 211.366,23.333 211.349,22.836C211.31,21.741 211.161,20.66 211.131,19.564C211.119,19.136 211.079,18.717 211.144,18.289C211.191,17.987 211.644,18.009 211.804,17.804C211.953,17.613 211.97,17.389 212.087,17.189C212.17,17.048 212.342,17.004 212.429,16.871C212.534,16.713 212.592,16.499 212.624,16.281L213.098,15.086L213.546,15.086C214.425,15.382 215.294,15.691 216.241,15.749C217.485,15.827 218.661,15.252 219.892,15.142C220.129,15.121 220.367,15.102 220.605,15.086L221.962,15.086C222.089,16.069 222.206,17.053 222.367,18.031C222.498,18.824 222.677,19.607 222.844,20.393C223.002,21.136 223.155,21.874 223.336,22.611C223.395,22.85 223.439,23.094 223.476,23.338C223.494,23.456 223.495,23.804 223.537,23.692C224.303,21.639 224.093,19.122 224.29,16.958C224.333,16.479 224.382,15.999 224.439,15.521C224.457,15.376 224.475,15.231 224.495,15.086L225.118,15.086C225.743,15.758 226.238,16.934 226.565,17.573C226.722,17.878 226.87,18.187 227.015,18.498C227.083,18.646 227.127,19.072 227.221,18.94C227.711,18.252 227.917,17.355 228.072,16.539C228.138,16.186 228.29,15.639 228.404,15.086L228.482,15.086C229.622,15.253 230.723,15.739 231.876,15.816C232.671,15.868 233.421,15.421 234.231,15.475C235.501,15.558 236.817,15.695 238.081,15.852C238.735,15.933 239.391,16.168 240.057,16.109C241.532,15.98 242.889,15.379 244.407,15.338C246.526,15.281 248.642,15.932 250.778,15.78C251.55,15.725 252.219,15.401 252.894,15.086L259.356,15.086C259.775,15.314 260.189,15.536 260.68,15.475C260.909,15.446 261.262,15.371 261.606,15.242C262.082,15.514 262.54,15.822 263.014,16.104C263.376,16.32 263.8,16.518 264.175,16.77L264.175,20.32C264.097,20.43 264.022,20.537 263.954,20.643C263.483,21.377 263.277,22.258 263.379,23.124C263.638,25.335 264.228,27.368 264.17,29.628C264.138,30.903 264.193,32.23 264.032,33.495C263.878,34.704 263.522,35.957 263.603,37.181C263.655,37.964 263.911,38.724 264.175,39.485L264.175,44.621C264.01,45.103 263.792,45.557 263.475,45.92C263.081,46.372 262.514,46.714 261.997,47.011C261.951,47.037 261.902,47.068 261.85,47.102L259.293,47.102C259.271,47.09 259.249,47.079 259.227,47.069C258.383,46.661 257.549,46.295 256.604,46.231C255.865,46.181 255.337,46.578 254.659,46.78C254.27,46.897 253.853,47.006 253.426,47.102L248.437,47.102C247.46,46.866 246.484,46.585 245.509,46.505C243.704,46.356 241.526,46.505 239.773,46.932C239.574,46.98 239.376,47.038 239.178,47.102L234.113,47.102C233.455,46.7 232.81,46.27 232.088,46.183C231.461,46.108 230.959,46.617 230.547,47.015C230.53,47.03 230.502,47.061 230.467,47.102L229.509,47.102C229.324,46.736 229.207,46.283 228.887,46.229C228.514,46.165 228.073,46.459 227.768,46.623C227.481,46.776 227.198,46.949 226.907,47.102L224.546,47.102C224.114,46.751 223.751,46.299 223.186,46.256C222.554,46.208 221.893,46.58 221.333,46.816C221.103,46.913 220.869,47.009 220.634,47.102L219.069,47.102C218.442,46.33 217.818,45.32 216.876,45.187C216.8,45.177 216.465,45.604 216.42,45.647C216.189,45.871 215.762,46.281 215.334,46.511C215.059,46.46 214.774,46.434 214.488,46.419C214.357,46.122 214.213,45.659 214.183,45.6C213.751,44.769 213.164,43.657 212.308,43.205C212.301,43.201 211.86,44.095 211.845,44.127C211.493,44.852 211.155,45.581 210.841,46.32Z" style="fill:#565656;"/>
        </g>
        <g transform="matrix(1,0,0,1,0,8.75)">
            <path d="M266.231,46.898C266.609,46.898 266.917,47.25 266.917,47.684C266.917,48.117 266.609,48.469 266.231,48.469C265.852,48.469 265.544,48.117 265.544,47.684C265.544,47.25 265.852,46.898 266.231,46.898ZM237.248,46.208C237.845,46.208 238.329,46.715 238.329,47.339C238.329,47.962 237.845,48.469 237.248,48.469C236.652,48.469 236.168,47.962 236.168,47.339C236.168,46.715 236.652,46.208 237.248,46.208ZM29.158,46.166C29.612,46.166 29.98,46.547 29.98,47.016C29.98,47.486 29.612,47.867 29.158,47.867C28.704,47.867 28.336,47.486 28.336,47.016C28.336,46.547 28.704,46.166 29.158,46.166ZM31.402,46.504C31.691,46.504 31.925,46.743 31.925,47.036C31.925,47.33 31.691,47.568 31.402,47.568C31.113,47.568 30.879,47.33 30.879,47.036C30.879,46.743 31.113,46.504 31.402,46.504ZM44.452,44.122C45.361,44.218 46.099,45.054 46.099,45.987C46.099,46.921 45.361,47.602 44.452,47.506C43.543,47.41 42.805,46.575 42.805,45.641C42.805,44.707 43.543,44.026 44.452,44.122ZM234.093,45.325C234.528,45.325 234.882,45.776 234.882,46.332C234.882,46.887 234.528,47.339 234.093,47.339C233.658,47.339 233.305,46.887 233.305,46.332C233.305,45.776 233.658,45.325 234.093,45.325ZM74.309,44.642C74.993,44.642 75.548,45.245 75.548,45.987C75.548,46.73 74.993,47.333 74.309,47.333C73.625,47.333 73.069,46.73 73.069,45.987C73.069,45.245 73.625,44.642 74.309,44.642ZM49.942,44.968C50.453,44.968 50.868,45.498 50.868,46.15C50.868,46.803 50.453,47.333 49.942,47.333C49.431,47.333 49.017,46.803 49.017,46.15C49.017,45.498 49.431,44.968 49.942,44.968ZM192.288,45.873C192.697,45.873 193.03,46.186 193.03,46.571C193.03,46.956 192.697,47.269 192.288,47.269C191.879,47.269 191.547,46.956 191.547,46.571C191.547,46.186 191.879,45.873 192.288,45.873ZM205.742,45.566C206.304,45.566 206.76,45.947 206.76,46.417C206.76,46.887 206.304,47.269 205.742,47.269C205.18,47.269 204.724,46.887 204.724,46.417C204.724,45.947 205.18,45.566 205.742,45.566ZM177.793,44.281C178.489,44.281 179.055,44.857 179.055,45.566C179.055,46.275 178.489,46.851 177.793,46.851C177.097,46.851 176.532,46.275 176.532,45.566C176.532,44.857 177.097,44.281 177.793,44.281ZM180.756,45.566C181.188,45.566 181.538,45.854 181.538,46.208C181.538,46.563 181.188,46.851 180.756,46.851C180.325,46.851 179.974,46.563 179.974,46.208C179.974,45.854 180.325,45.566 180.756,45.566ZM194.364,45.211C194.609,45.211 194.808,45.434 194.808,45.71C194.808,45.985 194.609,46.208 194.364,46.208C194.12,46.208 193.921,45.985 193.921,45.71C193.921,45.434 194.12,45.211 194.364,45.211ZM18.459,45.14C18.724,45.14 18.938,45.37 18.938,45.653C18.938,45.937 18.724,46.166 18.459,46.166C18.195,46.166 17.98,45.937 17.98,45.653C17.98,45.37 18.195,45.14 18.459,45.14ZM78.031,43.949C78.554,43.949 78.978,44.406 78.978,44.968C78.978,45.531 78.554,45.987 78.031,45.987C77.508,45.987 77.084,45.531 77.084,44.968C77.084,44.406 77.508,43.949 78.031,43.949ZM203.219,43.118C203.85,43.118 204.362,43.666 204.362,44.342C204.362,45.017 203.85,45.566 203.219,45.566C202.589,45.566 202.077,45.017 202.077,44.342C202.077,43.666 202.589,43.118 203.219,43.118ZM236.605,42.529C237.557,42.529 238.329,43.155 238.329,43.927C238.329,44.699 237.557,45.325 236.605,45.325C235.654,45.325 234.882,44.699 234.882,43.927C234.882,43.155 235.654,42.529 236.605,42.529ZM48.012,43.291C48.566,43.291 49.017,43.666 49.017,44.129C49.017,44.592 48.566,44.968 48.012,44.968C47.457,44.968 47.007,44.592 47.007,44.129C47.007,43.666 47.457,43.291 48.012,43.291ZM206.251,43.7C206.532,43.7 206.76,43.935 206.76,44.224C206.76,44.514 206.532,44.749 206.251,44.749C205.97,44.749 205.742,44.514 205.742,44.224C205.742,43.935 205.97,43.7 206.251,43.7ZM20.674,42.99C21.086,42.99 21.42,43.334 21.42,43.758C21.42,44.182 21.086,44.527 20.674,44.527C20.263,44.527 19.929,44.182 19.929,43.758C19.929,43.334 20.263,42.99 20.674,42.99ZM180.545,43.118C180.861,43.118 181.117,43.378 181.117,43.7C181.117,44.021 180.861,44.281 180.545,44.281C180.23,44.281 179.974,44.021 179.974,43.7C179.974,43.378 180.23,43.118 180.545,43.118ZM17.98,41.173C18.64,41.173 19.175,41.729 19.175,42.414C19.175,43.099 18.64,43.655 17.98,43.655C17.321,43.655 16.786,43.099 16.786,42.414C16.786,41.729 17.321,41.173 17.98,41.173ZM256.899,41.105C257.444,41.105 257.886,41.638 257.886,42.294C257.886,42.95 257.444,43.483 256.899,43.483C256.355,43.483 255.912,42.95 255.912,42.294C255.912,41.638 256.355,41.105 256.899,41.105ZM95.592,41.936C95.892,41.936 96.135,42.201 96.135,42.527C96.135,42.853 95.892,43.118 95.592,43.118C95.293,43.118 95.049,42.853 95.049,42.527C95.049,42.201 95.293,41.936 95.592,41.936ZM260.323,39.156C261.155,39.156 261.831,39.912 261.831,40.843C261.831,41.773 261.155,42.529 260.323,42.529C259.49,42.529 258.815,41.773 258.815,40.843C258.815,39.912 259.49,39.156 260.323,39.156ZM93.462,40.079C93.866,40.079 94.193,40.39 94.193,40.775C94.193,41.159 93.866,41.47 93.462,41.47C93.059,41.47 92.732,41.159 92.732,40.775C92.732,40.39 93.059,40.079 93.462,40.079ZM185.591,35.999C185.91,35.999 186.168,36.267 186.168,36.599C186.168,36.93 185.91,37.199 185.591,37.199C185.272,37.199 185.014,36.93 185.014,36.599C185.014,36.267 185.272,35.999 185.591,35.999ZM222.46,35.449C222.852,35.449 223.171,35.803 223.171,36.239C223.171,36.676 222.852,37.03 222.46,37.03C222.067,37.03 221.749,36.676 221.749,36.239C221.749,35.803 222.067,35.449 222.46,35.449ZM66.318,34.662C66.873,34.662 67.324,35.144 67.324,35.739C67.324,36.333 66.873,36.815 66.318,36.815C65.763,36.815 65.312,36.333 65.312,35.739C65.312,35.144 65.763,34.662 66.318,34.662ZM108.503,34.662C108.992,34.662 109.389,35.144 109.389,35.739C109.389,36.333 108.992,36.815 108.503,36.815C108.015,36.815 107.618,36.333 107.618,35.739C107.618,35.144 108.015,34.662 108.503,34.662ZM219.84,34.474C220.348,34.474 220.761,34.911 220.761,35.449C220.761,35.987 220.348,36.423 219.84,36.423C219.331,36.423 218.918,35.987 218.918,35.449C218.918,34.911 219.331,34.474 219.84,34.474ZM261.673,34.462C262.191,34.462 262.611,34.832 262.611,35.287C262.611,35.742 262.191,36.112 261.673,36.112C261.156,36.112 260.735,35.742 260.735,35.287C260.735,34.832 261.156,34.462 261.673,34.462ZM192.656,33.301C193.324,33.301 193.865,33.906 193.865,34.65C193.865,35.394 193.324,35.999 192.656,35.999C191.989,35.999 191.447,35.394 191.447,34.65C191.447,33.906 191.989,33.301 192.656,33.301ZM147.318,34.167C147.704,34.167 148.018,34.529 148.018,34.975C148.018,35.421 147.704,35.783 147.318,35.783C146.932,35.783 146.618,35.421 146.618,34.975C146.618,34.529 146.932,34.167 147.318,34.167ZM110.79,34.662C111.103,34.662 111.357,34.903 111.357,35.2C111.357,35.497 111.103,35.739 110.79,35.739C110.478,35.739 110.224,35.497 110.224,35.2C110.224,34.903 110.478,34.662 110.79,34.662ZM178.636,33.976C179.045,33.976 179.377,34.298 179.377,34.695C179.377,35.092 179.045,35.415 178.636,35.415C178.227,35.415 177.895,35.092 177.895,34.695C177.895,34.298 178.227,33.976 178.636,33.976ZM149.405,34.167C149.743,34.167 150.017,34.439 150.017,34.773C150.017,35.107 149.743,35.378 149.405,35.378C149.068,35.378 148.794,35.107 148.794,34.773C148.794,34.439 149.068,34.167 149.405,34.167ZM265.008,31.841C265.683,31.841 266.231,32.516 266.231,33.348C266.231,34.18 265.683,34.855 265.008,34.855C264.333,34.855 263.786,34.18 263.786,33.348C263.786,32.516 264.333,31.841 265.008,31.841ZM195.677,33.301C196.095,33.301 196.435,33.603 196.435,33.976C196.435,34.348 196.095,34.65 195.677,34.65C195.259,34.65 194.919,34.348 194.919,33.976C194.919,33.603 195.259,33.301 195.677,33.301ZM222.307,32.403C222.615,32.403 222.865,32.661 222.865,32.978C222.865,33.295 222.615,33.553 222.307,33.553C221.999,33.553 221.749,33.295 221.749,32.978C221.749,32.661 221.999,32.403 222.307,32.403ZM69.766,29.508C70.335,29.508 70.797,30.084 70.797,30.793C70.797,31.502 70.335,32.077 69.766,32.077C69.198,32.077 68.736,31.502 68.736,30.793C68.736,30.084 69.198,29.508 69.766,29.508ZM51.954,28.923C52.485,28.923 52.916,29.389 52.916,29.963C52.916,30.537 52.485,31.004 51.954,31.004C51.422,31.004 50.991,30.537 50.991,29.963C50.991,29.389 51.422,28.923 51.954,28.923ZM72.362,29.508C72.686,29.508 72.949,29.796 72.949,30.15C72.949,30.505 72.686,30.793 72.362,30.793C72.038,30.793 71.775,30.505 71.775,30.15C71.775,29.796 72.038,29.508 72.362,29.508ZM54.296,28.316C54.585,28.316 54.819,28.531 54.819,28.797C54.819,29.062 54.585,29.278 54.296,29.278C54.008,29.278 53.773,29.062 53.773,28.797C53.773,28.531 54.008,28.316 54.296,28.316ZM85.618,25.55C85.812,25.55 85.969,25.744 85.969,25.983C85.969,26.222 85.812,26.416 85.618,26.416C85.423,26.416 85.266,26.222 85.266,25.983C85.266,25.744 85.423,25.55 85.618,25.55ZM83.357,22.642C83.913,22.642 84.364,23.19 84.364,23.866C84.364,24.541 83.913,25.09 83.357,25.09C82.801,25.09 82.35,24.541 82.35,23.866C82.35,23.19 82.801,22.642 83.357,22.642ZM200.066,19.258C201.533,19.258 202.724,20.395 202.724,21.796C202.724,23.198 201.533,24.335 200.066,24.335C198.599,24.335 197.409,23.198 197.409,21.796C197.409,20.395 198.599,19.258 200.066,19.258ZM85.969,22.642C86.357,22.642 86.673,22.916 86.673,23.254C86.673,23.592 86.357,23.866 85.969,23.866C85.581,23.866 85.266,23.592 85.266,23.254C85.266,22.916 85.581,22.642 85.969,22.642ZM227.65,20.186C228.065,20.186 228.401,20.561 228.401,21.023C228.401,21.484 228.065,21.859 227.65,21.859C227.236,21.859 226.9,21.484 226.9,21.023C226.9,20.561 227.236,20.186 227.65,20.186ZM215.028,18.329C215.497,18.329 215.878,18.745 215.878,19.258C215.878,19.77 215.497,20.186 215.028,20.186C214.559,20.186 214.178,19.77 214.178,19.258C214.178,18.745 214.559,18.329 215.028,18.329ZM211.701,17.119C212.317,17.119 212.817,17.661 212.817,18.329C212.817,18.997 212.317,19.539 211.701,19.539C211.085,19.539 210.586,18.997 210.586,18.329C210.586,17.661 211.085,17.119 211.701,17.119ZM230.811,17.119C231.499,17.119 232.058,17.661 232.058,18.329C232.058,18.997 231.499,19.539 230.811,19.539C230.123,19.539 229.564,18.997 229.564,18.329C229.564,17.661 230.123,17.119 230.811,17.119ZM62.831,16.781C63.431,16.781 63.918,17.243 63.918,17.811C63.918,18.379 63.431,18.84 62.831,18.84C62.23,18.84 61.743,18.379 61.743,17.811C61.743,17.243 62.23,16.781 62.831,16.781ZM226.47,14.546C227.536,14.546 228.401,15.467 228.401,16.602C228.401,17.736 227.536,18.658 226.47,18.658C225.405,18.658 224.54,17.736 224.54,16.602C224.54,15.467 225.405,14.546 226.47,14.546ZM262.755,15.66C263.552,15.93 263.978,16.803 263.705,17.608C263.432,18.413 262.563,18.848 261.766,18.577C260.969,18.307 260.543,17.434 260.816,16.629C261.089,15.824 261.957,15.39 262.755,15.66ZM130.228,16.535C130.687,16.535 131.06,16.937 131.06,17.432C131.06,17.927 130.687,18.329 130.228,18.329C129.769,18.329 129.396,17.927 129.396,17.432C129.396,16.937 129.769,16.535 130.228,16.535ZM195.642,14.546C196.617,14.546 197.409,15.393 197.409,16.437C197.409,17.481 196.617,18.329 195.642,18.329C194.666,18.329 193.875,17.481 193.875,16.437C193.875,15.393 194.666,14.546 195.642,14.546ZM184.81,16.437C185.239,16.437 185.588,16.861 185.588,17.383C185.588,17.905 185.239,18.329 184.81,18.329C184.381,18.329 184.033,17.905 184.033,17.383C184.033,16.861 184.381,16.437 184.81,16.437ZM114.145,16.903C114.488,16.903 114.767,17.167 114.767,17.493C114.767,17.819 114.488,18.084 114.145,18.084C113.802,18.084 113.524,17.819 113.524,17.493C113.524,17.167 113.802,16.903 114.145,16.903ZM199.694,15.459C200.207,15.459 200.624,15.941 200.624,16.535C200.624,17.129 200.207,17.611 199.694,17.611C199.181,17.611 198.765,17.129 198.765,16.535C198.765,15.941 199.181,15.459 199.694,15.459ZM109.93,14.31C110.718,14.31 111.357,14.891 111.357,15.606C111.357,16.322 110.718,16.903 109.93,16.903C109.143,16.903 108.503,16.322 108.503,15.606C108.503,14.891 109.143,14.31 109.93,14.31ZM51.92,15.289C52.51,15.289 52.988,15.624 52.988,16.035C52.988,16.447 52.51,16.781 51.92,16.781C51.33,16.781 50.851,16.447 50.851,16.035C50.851,15.624 51.33,15.289 51.92,15.289ZM71.933,13.818C72.693,13.954 73.193,14.724 73.048,15.536C72.902,16.348 72.167,16.897 71.407,16.761C70.647,16.625 70.147,15.855 70.293,15.043C70.438,14.231 71.173,13.682 71.933,13.818ZM265.963,14.546C266.489,14.546 266.917,15.001 266.917,15.562C266.917,16.123 266.489,16.578 265.963,16.578C265.436,16.578 265.008,16.123 265.008,15.562C265.008,15.001 265.436,14.546 265.963,14.546ZM132.487,15.459C132.822,15.459 133.095,15.7 133.095,15.997C133.095,16.294 132.822,16.535 132.487,16.535C132.151,16.535 131.879,16.294 131.879,15.997C131.879,15.7 132.151,15.459 132.487,15.459ZM145.249,13.437C145.766,13.437 146.185,13.89 146.185,14.448C146.185,15.006 145.766,15.459 145.249,15.459C144.732,15.459 144.312,15.006 144.312,14.448C144.312,13.89 144.732,13.437 145.249,13.437ZM148.112,14.448C148.491,14.448 148.799,14.675 148.799,14.954C148.799,15.233 148.491,15.459 148.112,15.459C147.732,15.459 147.424,15.233 147.424,14.954C147.424,14.675 147.732,14.448 148.112,14.448ZM53.767,13.798C54.197,13.798 54.546,14.132 54.546,14.543C54.546,14.955 54.197,15.289 53.767,15.289C53.337,15.289 52.988,14.955 52.988,14.543C52.988,14.132 53.337,13.798 53.767,13.798ZM76.107,13.798C76.646,13.798 77.084,14.132 77.084,14.543C77.084,14.955 76.646,15.289 76.107,15.289C75.568,15.289 75.13,14.955 75.13,14.543C75.13,14.132 75.568,13.798 76.107,13.798ZM45.576,13.798C46.001,13.798 46.346,14.132 46.346,14.543C46.346,14.955 46.001,15.289 45.576,15.289C45.151,15.289 44.806,14.955 44.806,14.543C44.806,14.132 45.151,13.798 45.576,13.798ZM65.38,13.798C65.776,13.798 66.098,14.132 66.098,14.543C66.098,14.955 65.776,15.289 65.38,15.289C64.983,15.289 64.661,14.955 64.661,14.543C64.661,14.132 64.983,13.798 65.38,13.798ZM113.149,13.828C113.589,13.828 113.946,14.134 113.946,14.511C113.946,14.888 113.589,15.194 113.149,15.194C112.71,15.194 112.353,14.888 112.353,14.511C112.353,14.134 112.71,13.828 113.149,13.828Z" style="fill:#5d5d5d;"/>
        </g>
        <g transform="matrix(1,0,0,1,0,8.75)">
            <path d="M212.418,6.25L273.75,6.25L273.75,48.875L267.5,48.875L267.5,12.5L211.546,12.5L211.645,12.253L212.418,6.25ZM85.558,6.25L84.602,12.187L84.396,12.5L12.5,12.5L12.542,48.875L6.25,48.875L6.25,6.25L85.558,6.25ZM200.342,6.25L200.472,12.105L200.654,12.5L87.598,12.5L87.633,12.446L89.861,6.25L200.342,6.25Z" style="fill:#3e3e3e;"/>
        </g>
        <g transform="matrix(1,0,0,1,0,8.75)">
            <path d="M228.372,42.586C230.245,41.704 230.522,40.266 230.074,38.576L228.372,42.586Z" style="fill:#363636;"/>
        </g>
        <g transform="matrix(1,0,0,1,0,8.75)">
            <path d="M224.74,43.151C226.308,41.687 226.652,39.99 226.102,38.122L224.74,43.151Z" style="fill:#363636;"/>
        </g>
        <g transform="matrix(1,0,0,1,0,8.75)">
            <path d="M67.767,23.353C66.033,22.124 65.705,20.685 65.989,19.153L67.767,23.353Z" style="fill:#363636;"/>
        </g>
        <g transform="matrix(1,0,0,1,0,8.75)">
            <path d="M69.023,22.044C68.369,21.471 68.295,20.781 68.448,20.046L69.023,22.044Z" style="fill:#363636;"/>
        </g>
        <g transform="matrix(1,0,0,1,0,8.75)">
            <path d="M49.726,40.581C48.444,39.8 48.17,38.682 48.704,37.296L49.726,40.581Z" style="fill:#363636;"/>
        </g>
        <g transform="matrix(1,0,0,1,0,8.75)">
            <path d="M50.883,40.581C50.434,39.761 50.332,38.942 50.593,38.122L50.883,40.581Z" style="fill:#363636;"/>
        </g>
        <g transform="matrix(1,0,0,1,0,8.75)">
            <path d="M194.874,22.75C196.157,21.957 196.5,20.836 196.13,19.465L194.874,22.75Z" style="fill:#363636;"/>
        </g>
        <g transform="matrix(1,0,0,1,0,8.75)">
            <path d="M36.614,7.572C36.439,7.542 36.256,7.543 36.077,7.58C33.423,7.616 30.774,7.655 28.131,7.685C25.294,7.717 22.441,7.729 19.608,7.884C17.259,8.013 14.845,8.364 12.507,7.973C11.713,7.841 10.961,8.378 10.828,9.172C10.767,9.534 10.846,9.888 11.025,10.178C10.99,10.205 10.956,10.234 10.923,10.264C10.692,10.392 10.501,10.58 10.37,10.804C9.819,10.985 9.406,11.486 9.368,12.1C8.882,19.886 8.392,27.673 7.892,35.46C7.582,40.291 7.057,45.126 7.215,49.974C7.241,50.778 7.915,51.41 8.72,51.384C9.524,51.358 10.156,50.683 10.13,49.879C10.106,49.156 10.099,48.434 10.103,47.713C11.538,47.164 13.137,47.505 14.016,48.754C14.058,49.151 14.101,49.547 14.147,49.943C14.239,50.743 14.962,51.317 15.762,51.225C16.559,51.134 17.132,50.415 17.045,49.618C18.336,48.642 19.592,47.625 21.052,46.9C25.32,44.78 29.714,44.655 34.277,45.461C34.734,46.107 35.196,46.749 35.665,47.386C36.758,48.871 38.058,50.198 39.161,51.675C39.643,52.319 40.558,52.452 41.202,51.97C41.847,51.488 41.979,50.573 41.497,49.929L41.483,49.91C41.628,49.646 41.692,49.335 41.649,49.015C41.285,46.339 40.858,43.669 41.342,40.975C42.573,34.121 48.277,27.875 54.858,25.698C55.198,25.767 55.544,25.71 55.838,25.552C55.995,25.574 56.159,25.57 56.323,25.538C57.112,25.381 57.626,24.613 57.469,23.823C57.293,22.937 57.192,22.104 57.294,21.201C57.392,20.337 57.686,19.506 58.054,18.723C58.958,16.8 60.228,15.193 61.915,13.896C63.365,12.782 65.009,12.029 66.503,11.004C67.167,10.549 67.337,9.641 66.881,8.977C66.685,8.691 66.405,8.497 66.096,8.405C65.849,8.128 65.496,7.946 65.097,7.922C55.646,7.366 46.11,7.444 36.614,7.572ZM23.231,37.068L23.197,37.105C23.088,37.28 22.975,37.453 22.858,37.622C22.147,38.657 21.334,39.213 20.45,39.342C19.822,39.434 19.115,39.327 18.314,38.876C18.147,38.782 17.972,38.678 17.805,38.563C17.211,38.939 16.626,39.325 16.161,39.844C16.333,41.974 16.498,44.104 16.696,46.231C17.668,45.512 18.662,44.83 19.755,44.287C21.818,43.263 23.905,42.637 26.022,42.327C26.006,42.295 25.992,42.261 25.978,42.227C25.918,42.075 25.777,41.741 25.953,41.217C26.184,40.531 26.65,39.908 26.947,39.247C27.014,39.097 27.075,38.944 27.13,38.787C26.916,39.184 26.681,39.56 26.418,39.901C25.776,40.733 24.871,41.353 23.843,41.589C23.79,41.602 23.736,41.613 23.682,41.623L23.581,41.657C23.363,41.725 22.98,41.817 22.661,41.822C22.34,41.827 22.05,41.759 21.822,41.652C21.451,41.479 21.295,41.251 21.211,41.123C20.935,40.7 20.926,40.295 21.028,39.932C21.105,39.655 21.264,39.358 21.605,39.123C21.686,39.067 22.494,38.86 22.494,38.86C22.494,38.86 22.416,38.865 22.39,38.868L22.888,38.801C23.163,38.661 23.379,38.419 23.578,38.182C23.838,37.872 24.047,37.521 24.22,37.146C23.891,37.104 23.561,37.077 23.231,37.068ZM38.641,39.623C38.145,39.9 37.606,40.08 36.998,40.08C36.669,40.08 36.359,40.019 36.061,39.921C36.098,40.912 36.191,41.903 36.267,42.871C36.27,42.908 36.272,42.945 36.272,42.982C36.668,43.241 36.92,43.682 36.933,44.164C37.289,44.664 37.649,45.162 38.014,45.657C38.125,45.807 38.237,45.956 38.352,46.104C38.174,44.227 38.132,42.348 38.471,40.46C38.522,40.179 38.578,39.9 38.641,39.623ZM13.194,39.319C12.792,38.195 11.805,37.336 10.679,37.447C10.504,39.85 10.301,42.254 10.189,44.66C11.374,44.424 12.572,44.517 13.652,44.926C13.49,43.058 13.346,41.188 13.194,39.319ZM30.131,39.46C30.116,39.515 30.101,39.57 30.086,39.625C29.876,40.381 29.532,41.06 29.112,41.718C29.031,41.845 28.943,41.968 28.856,42.092C29.904,42.069 30.959,42.112 32.021,42.212C31.392,41.294 30.764,40.375 30.131,39.46ZM32.374,37.576C32.632,37.948 32.888,38.32 33.144,38.693C33.147,38.522 33.152,38.352 33.159,38.182C32.917,37.993 32.676,37.8 32.436,37.607L32.388,37.568L32.374,37.576ZM15.739,34.962C15.783,35.423 15.826,35.883 15.867,36.344C16.022,36.241 16.179,36.14 16.338,36.04C16.82,35.735 17.32,35.468 17.833,35.237C17.146,35.183 16.46,35.07 15.834,34.978C15.802,34.973 15.771,34.968 15.739,34.962ZM11.492,24.821C11.288,28.049 11.083,31.278 10.876,34.506C11.55,34.502 12.2,34.64 12.802,34.895C12.775,34.618 12.747,34.341 12.719,34.063C12.699,33.872 12.679,33.682 12.658,33.49C12.271,33.268 11.99,32.871 11.935,32.393C11.824,31.431 11.927,30.524 12.198,29.691C11.988,28.086 11.763,26.484 11.548,24.88C11.529,24.861 11.51,24.841 11.492,24.821ZM20.419,27.282C20.281,27.286 20.148,27.291 20.026,27.294C18.105,27.332 16.016,28.35 15.182,30.025C15.241,30.489 15.299,30.953 15.355,31.417C15.404,31.484 15.452,31.552 15.484,31.598C15.553,31.638 15.665,31.701 15.728,31.727C16.031,31.851 16.344,31.806 16.666,31.82C17.319,31.847 17.96,31.927 18.609,31.798C18.901,31.74 19.201,31.688 19.476,31.571C19.768,31.448 19.972,31.214 20.16,30.968C20.219,30.891 20.275,30.812 20.33,30.732C20.191,30.448 20.09,30.144 20.057,29.798C19.974,28.921 20.116,28.079 20.419,27.282ZM42.923,30.867C45.074,28.13 47.815,25.825 50.838,24.251C50.344,24.094 49.849,23.942 49.352,23.793C46.292,24.759 43.276,26.418 40.887,28.661C41.299,28.96 41.689,29.281 42.033,29.621C42.378,29.961 42.698,30.395 42.923,30.867ZM18.172,22.893C17.481,22.62 16.678,22.666 15.944,22.904C15.345,23.098 14.782,23.425 14.354,23.86C14.46,24.664 14.569,25.467 14.679,26.269C15.98,25.254 17.602,24.6 19.243,24.424C18.885,23.914 18.528,23.403 18.172,22.893ZM41.175,24.681C42.35,23.829 43.603,23.081 44.9,22.445C44.342,22.266 43.784,22.088 43.227,21.911C42.894,22.024 42.557,22.142 42.219,22.267C41.98,23.076 41.619,23.926 41.175,24.681ZM24.792,16.057C23.821,16.443 22.908,17.065 22.201,17.839C21.199,18.936 20.608,20.366 21.028,21.888C21.425,22.457 21.824,23.025 22.223,23.592C22.416,22.59 22.796,21.615 23.323,20.704C24.232,19.134 25.578,17.765 27.08,16.807C26.317,16.559 25.554,16.309 24.792,16.057ZM35.314,19.423C35.011,19.987 34.619,20.503 34.217,21.008L34.177,21.065C34,21.317 33.803,21.554 33.598,21.785L32.947,22.642L33.032,22.728C33.411,22.573 33.809,22.479 34.143,22.236C35.107,21.534 35.757,20.777 36.249,19.716L35.314,19.423ZM55.651,10.473C55.508,10.616 55.333,10.732 55.131,10.808C53.578,11.39 51.676,12.556 50.783,14.007C49.817,15.577 49.956,17.804 50.414,19.544C50.518,19.939 50.556,20.394 50.75,20.758C50.829,20.907 50.879,21.063 50.904,21.221C52.062,21.577 53.215,21.951 54.347,22.378C54.325,21.884 54.338,21.387 54.396,20.872C54.53,19.693 54.912,18.552 55.414,17.483C56.519,15.131 58.075,13.168 60.138,11.583C60.573,11.25 61.024,10.947 61.482,10.659C59.542,10.575 57.598,10.515 55.651,10.473ZM15.666,19.281C15.432,19.251 15.192,19.245 14.968,19.284C14.493,19.367 14.146,19.58 13.865,19.87L13.95,20.624C14.623,20.277 15.355,20.032 16.101,19.909C15.956,19.7 15.811,19.49 15.666,19.281ZM31.565,18.243C31.485,18.886 31.271,19.506 30.998,20.092C30.919,20.259 30.837,20.423 30.75,20.586C30.935,20.387 31.123,20.191 31.304,19.988C31.444,19.814 31.588,19.642 31.732,19.469L31.796,19.381C31.996,19.098 32.177,18.798 32.334,18.486L32.12,18.419L31.565,18.243ZM50.15,10.402C48.898,10.395 47.646,10.394 46.394,10.397C46.262,10.676 46.042,10.915 45.748,11.067C44.293,11.822 43.2,13.962 43.488,15.551C43.745,16.975 44.622,18.123 45.454,19.275C45.533,19.383 45.594,19.499 45.639,19.619C45.743,19.653 45.848,19.686 45.952,19.72C46.491,19.893 47.033,20.06 47.577,20.224C46.946,17.776 46.946,14.677 48.3,12.478C48.759,11.732 49.407,11.029 50.15,10.402ZM39.584,17.704C40.178,17.89 40.772,18.076 41.366,18.263C41.025,17.574 40.759,16.85 40.618,16.071C40.294,14.283 40.991,12.075 42.218,10.423C40.383,10.439 38.549,10.462 36.717,10.487C35.857,11.01 34.947,11.817 34.363,12.753C34.093,13.186 33.888,13.654 33.84,14.128C33.941,14.09 34.043,14.064 34.145,14.048C34.405,14.006 35.251,13.916 35.698,14.869C35.714,14.902 35.795,15.144 35.82,15.24C35.854,15.369 35.88,15.5 35.898,15.633C35.937,15.923 35.957,16.218 35.96,16.511L35.96,16.569L36.088,16.609L36.683,16.795C36.919,16.148 37.536,15.977 37.716,15.935C38.071,15.852 38.497,15.861 38.936,16.198C38.99,16.239 39.298,16.407 39.455,16.968C39.522,17.206 39.564,17.452 39.584,17.704ZM20.917,15.035C20.795,15.063 20.689,15.086 20.634,15.097C20.327,15.212 20.055,15.366 19.827,15.608C19.436,16.023 19.137,16.483 18.932,17.016C18.824,17.297 18.725,17.695 18.579,18.043C18.551,18.109 18.522,18.175 18.491,18.238L18.504,18.258C18.865,17.392 19.394,16.588 20.047,15.873C20.317,15.577 20.608,15.297 20.917,15.035ZM13.759,16.524C13.697,16.525 13.638,16.525 13.587,16.525L13.595,16.64C13.66,16.617 13.726,16.594 13.793,16.573L13.759,16.524ZM17.014,13.558C16.939,13.6 16.867,13.645 16.799,13.695C16.488,13.922 16.418,14.295 16.267,14.612C16.228,14.693 16.189,14.772 16.148,14.851L16.486,15.34C16.778,14.756 17.144,14.225 17.589,13.732C17.397,13.675 17.205,13.617 17.014,13.558ZM30.924,14.81C30.839,13.924 31.011,13.041 31.371,12.196C31.616,11.622 31.955,11.067 32.355,10.548C30.955,10.567 29.559,10.586 28.164,10.602C28.023,10.603 27.882,10.605 27.742,10.606C27.452,10.878 27.243,11.296 27.144,11.72C27.049,12.123 27.027,12.568 27.339,12.849C27.651,13.132 27.813,13.519 27.819,13.91C27.824,13.935 27.828,13.96 27.831,13.985C28.214,14.109 28.597,14.233 28.979,14.356C29.095,14.289 29.183,14.254 29.202,14.247C29.369,14.185 30.311,13.871 30.924,14.81ZM24.418,10.646C24.131,10.65 23.844,10.656 23.556,10.662C23.481,10.862 23.36,11.049 23.194,11.206C22.907,11.477 22.815,11.879 22.771,12.265C22.77,12.276 22.768,12.288 22.767,12.3C23.25,12.465 23.734,12.629 24.218,12.791C24.135,12.226 24.168,11.634 24.304,11.053C24.337,10.916 24.375,10.78 24.418,10.646ZM20.13,10.778C20.009,10.784 19.888,10.79 19.767,10.797C19.491,10.812 19.215,10.829 18.937,10.848C18.974,10.942 19.013,11.043 19.048,11.134C19.352,11.224 19.655,11.313 19.959,11.403C20.003,11.191 20.06,10.982 20.13,10.778Z" style="fill-opacity:0.22;"/>
        </g>
        <g transform="matrix(1,0,0,1,0,8.75)">
            <path d="M247.007,16.572C246.683,16.476 246.24,16.463 245.756,16.832C244.111,17.14 242.419,17.305 240.768,16.94C240.508,16.882 240.249,16.898 240.013,16.973L237.555,15.479C240.04,15.727 242.559,15.596 245.078,15.058C247.053,14.636 249.263,13.979 250.96,12.849C252.279,11.971 253.363,10.839 254.342,9.605C254.843,8.975 254.737,8.057 254.107,7.556C253.476,7.056 252.558,7.161 252.058,7.792C251.268,8.787 250.408,9.713 249.344,10.421C247.942,11.354 246.101,11.857 244.469,12.205C239.994,13.162 235.522,12.651 231.298,10.916C229.87,10.329 228.456,9.766 227.194,8.863C226.935,8.678 226.637,8.59 226.342,8.591C225.471,8.04 224.602,7.486 223.737,6.925C223.119,6.526 222.312,6.653 221.843,7.193C221.642,7.33 221.472,7.52 221.357,7.754C221.001,8.476 221.299,9.351 222.021,9.706C225.606,11.472 228.267,14.183 230.562,17.43C232.313,19.908 233.674,22.626 234.732,25.464C234.075,26.66 233.732,28.108 233.663,29.529C233.648,29.839 233.731,30.132 233.886,30.376C233.799,30.973 233.876,31.592 234.266,32.117C234.307,32.172 234.348,32.221 234.39,32.266C235.022,33.939 235.991,34.913 237.301,35.53C237.582,37.364 237.754,39.214 237.763,41.074C237.775,43.772 238.032,46.519 237.339,49.156C237.134,49.934 237.6,50.732 238.379,50.937C239.076,51.12 239.789,50.765 240.077,50.13C240.132,50.395 240.261,50.649 240.464,50.857C241.019,51.423 241.924,51.44 242.5,50.903C242.576,51.07 242.685,51.225 242.827,51.359C243.412,51.911 244.336,51.884 244.888,51.299C247.217,48.831 251.189,48.481 254.297,49.51C255.014,49.747 255.882,50.019 256.495,50.501C256.937,50.849 257.518,50.9 257.997,50.684C258.226,50.896 258.523,51.036 258.857,51.067C259.399,51.116 259.899,50.861 260.189,50.442C260.591,50.39 260.97,50.17 261.214,49.806C262.618,47.703 264.252,45.732 266.332,44.277C267.171,43.691 268.008,43.068 269.08,43.177C269.881,43.258 270.597,42.674 270.679,41.873C270.711,41.556 270.639,41.251 270.489,40.995C270.754,40.923 271.002,40.775 271.197,40.554C271.73,39.951 271.673,39.029 271.07,38.496C269.654,37.244 268.26,35.975 266.842,34.731C266.814,34.59 266.761,34.439 266.675,34.282C266.661,34.256 266.59,34.138 266.548,34.069C266.538,34.035 266.537,34 266.532,33.965C266.471,33.537 266.574,33.129 266.696,32.72C266.912,31.997 267.19,31.247 267.578,30.597C267.683,30.422 267.817,30.216 267.949,29.995C268.927,29.877 269.906,29.76 270.856,29.492C271.631,29.274 272.083,28.468 271.865,27.693C271.647,26.918 270.841,26.466 270.066,26.684C269.388,26.875 268.694,26.98 267.996,27.066C267.798,26.827 267.518,26.523 267.45,26.451C267.124,25.907 266.92,25.312 266.817,24.686C266.702,23.992 266.739,23.079 266.634,22.245C266.556,21.628 266.408,21.048 266.165,20.549C267.975,17.998 269.78,15.444 271.443,12.792C271.87,12.111 271.664,11.21 270.982,10.782C270.3,10.355 269.399,10.561 268.972,11.243C268.868,11.409 268.764,11.574 268.659,11.738C267.795,12.341 266.748,12.469 265.708,12.547C263.238,12.731 260.08,12.215 258.226,10.347C258.159,9.551 258.1,8.754 258.054,7.955C258.008,7.152 257.318,6.536 256.515,6.582C255.711,6.628 255.096,7.318 255.142,8.121C255.208,9.282 255.303,10.439 255.409,11.595C253.422,14.518 250.346,15.812 247.007,16.572ZM242.891,45.659C242.85,45.611 242.807,45.554 242.764,45.487C242.692,45.375 242.523,45.002 242.463,44.842C242.38,44.622 242.314,44.397 242.22,44.181C242.064,43.822 241.926,43.465 241.816,43.103C241.676,43.923 240.999,44.162 240.72,44.228C240.727,45.799 240.674,47.366 240.383,48.905C240.415,48.867 240.449,48.83 240.485,48.795C240.773,48.512 241.052,48.219 241.324,47.92C241.696,47.303 242.163,46.754 242.695,46.271C242.768,46.07 242.83,45.865 242.891,45.659ZM257.422,44.882C257.552,44.958 257.681,45.037 257.808,45.119C257.859,43.738 257.877,42.354 257.87,40.969C257.814,40.949 257.759,40.928 257.706,40.907C257.082,40.661 256.489,40.392 255.826,40.258C254.779,40.047 253.609,40.139 252.544,40.487C252.553,40.541 252.562,40.595 252.572,40.65C252.703,41.371 252.921,42.114 253.231,42.779C253.358,43.051 253.529,43.303 253.732,43.52C254.557,43.676 255.363,43.914 256.136,44.239L256.14,44.239C256.841,44.209 257.221,44.559 257.422,44.882ZM268.585,40.19C268.381,40.272 268.155,40.31 267.92,40.29C266.048,40.133 264.527,41.093 263.307,42.427C262.821,42.959 262.381,43.551 261.988,44.172C262.807,43.334 263.694,42.563 264.661,41.887C265.88,41.034 267.165,40.315 268.656,40.253L268.585,40.19ZM249.46,42.897L248.934,43.484C249.169,43.446 249.405,43.413 249.642,43.386C249.574,43.225 249.513,43.062 249.46,42.897ZM265.085,37.069C264.799,37.234 264.501,37.382 264.199,37.522C263.644,37.78 263.064,37.999 262.579,38.391C262.065,38.808 261.641,39.293 261.243,39.819C261.122,39.979 260.984,40.288 260.815,40.496C260.804,40.509 260.794,40.522 260.783,40.534C260.784,40.651 260.785,40.767 260.786,40.885C261.242,40.34 261.732,39.838 262.258,39.396C263.272,38.542 264.411,37.904 265.669,37.585C265.475,37.413 265.28,37.241 265.085,37.069ZM255.175,37.247C255.593,37.268 256.004,37.319 256.403,37.399C256.893,37.498 257.357,37.648 257.815,37.819C257.79,36.969 257.757,36.12 257.718,35.271C257.627,35.239 257.536,35.211 257.447,35.198C257.219,35.225 256.541,35.304 256.38,35.296C256.351,35.295 256.322,35.293 256.295,35.29C256.088,35.536 255.879,35.78 255.669,36.022C255.523,36.44 255.362,36.851 255.175,37.247ZM261.517,34.047C261.33,34.1 261.144,34.148 260.997,34.226C260.86,34.299 260.724,34.392 260.601,34.496C260.629,35.057 260.654,35.618 260.676,36.18C260.699,36.161 260.721,36.143 260.744,36.124C261.304,35.671 261.935,35.352 262.577,35.057C262.611,35.042 262.645,35.027 262.679,35.011C262.295,34.694 261.91,34.368 261.517,34.047ZM264.309,30.692C264.033,30.762 263.757,30.829 263.478,30.887C263.394,31.033 263.315,31.174 263.257,31.309C263.217,31.401 263.193,31.505 263.195,31.606C263.198,31.625 263.202,31.645 263.206,31.667C263.412,31.834 263.617,32.002 263.821,32.17C263.846,32.075 263.873,31.981 263.901,31.887C264.019,31.49 264.154,31.088 264.309,30.692ZM263.019,25.028C262.808,25.341 262.606,25.659 262.408,25.98C262.534,26.363 262.615,26.793 262.745,27.067C262.807,27.198 262.888,27.324 262.996,27.423C263.141,27.516 263.444,27.718 263.601,27.868C263.981,27.774 264.359,27.671 264.739,27.577C264.341,26.82 264.079,26.009 263.939,25.161C263.875,24.774 263.851,24.325 263.828,23.857C263.663,24.094 263.498,24.332 263.333,24.569C263.266,24.734 263.163,24.888 263.019,25.028ZM240.385,22.79C239.959,21.887 239.474,21.017 238.844,20.225C238.669,20.005 238.568,19.75 238.537,19.49L238.469,19.448C236.765,18.41 235.059,17.377 233.355,16.343C234.805,18.492 235.998,20.798 236.976,23.196C237.761,22.799 238.696,22.61 239.793,22.708C239.99,22.725 240.188,22.753 240.385,22.79ZM243.935,22.901L243.503,22.623C243.567,22.773 243.631,22.923 243.694,23.073L243.702,23.067C243.779,23.01 243.856,22.954 243.935,22.901ZM256.074,19.252C256.026,18.56 255.975,17.868 255.921,17.176C255.879,16.64 255.833,16.105 255.784,15.57C254.81,16.447 253.726,17.154 252.563,17.732C252.845,18.005 252.997,18.307 252.999,18.314C253.009,18.345 253.378,19.351 252.423,19.99C252.403,20.003 252.295,20.072 252.203,20.132C251.344,20.726 251.071,21.514 251.087,22.394C251.234,22.362 251.381,22.326 251.527,22.288C252.045,21.567 252.67,20.921 253.483,20.402C254.29,19.887 255.149,19.5 256.074,19.252ZM248.936,19.092C248.548,19.2 248.155,19.3 247.759,19.392C247.614,20.047 247.551,20.71 247.545,21.375C247.713,20.994 247.901,20.617 248.113,20.24C248.346,19.827 248.623,19.443 248.936,19.092ZM258.576,14.109C258.667,15.054 258.754,16 258.828,16.948C258.874,17.525 258.917,18.103 258.958,18.68C259.066,18.745 259.167,18.826 259.259,18.922C260.068,19.767 261.415,20.011 262.569,19.969C262.728,19.963 262.886,19.942 263.042,19.911C264.099,18.421 265.16,16.935 266.198,15.433C266.107,15.441 266.016,15.448 265.925,15.455C263.603,15.629 260.85,15.241 258.576,14.109Z" style="fill-opacity:0.22;"/>
        </g>
        <g transform="matrix(1,0,0,1,0,8.75)">
            <path d="M9.668,46.418L9.56,49.911C9.549,50.255 9.26,50.527 8.916,50.516C8.571,50.505 8.3,50.217 8.31,49.872L9.5,11.528C9.502,11.488 9.507,11.448 9.515,11.41C9.669,10.022 10.77,8.919 12.157,8.763C13.764,8.769 15.371,8.76 16.978,8.744L39.958,8.744C48.66,8.744 56.808,8.744 65.696,8.796C65.975,8.784 66.211,9 66.223,9.278C66.236,9.556 66.02,9.792 65.742,9.805L65.714,9.806C64.76,10.338 63.716,10.723 62.783,11.309C60.408,12.8 58.392,14.705 57.051,17.185C56.596,18.026 56.172,18.903 55.976,19.844C55.685,21.244 55.857,22.612 55.975,24.017C55.99,24.116 55.975,24.22 55.927,24.316C55.802,24.566 55.499,24.666 55.25,24.542C55.006,24.42 54.761,24.3 54.515,24.182C52.979,24.812 51.539,25.78 50.207,26.741C47.699,28.551 45.403,30.752 43.757,33.395C40.165,39.164 39.41,47.02 42.132,53.264L40.509,53.264C38.886,52.012 36.877,51.396 34.916,50.874C31.195,49.884 26.559,49.474 22.531,50.531C20.554,51.05 18.724,51.924 17.228,53.264L16.255,53.264C17.918,51.567 20.041,50.489 22.361,49.88C26.5,48.793 31.264,49.206 35.089,50.224C36.71,50.655 38.358,51.157 39.815,51.995L39.776,51.934C38.435,49.792 37.07,47.664 35.682,45.551C35.495,45.265 35.307,44.98 35.119,44.695C26.807,42.243 20.164,43.913 15.837,49.158C15.977,50.526 16.112,51.894 16.243,53.264L15.228,53.264C15.105,51.975 14.978,50.687 14.846,49.4C13.409,46.863 11.747,45.595 9.668,46.418ZM49.585,22.121C39.424,24.969 33.665,33.425 35.629,43.636C37.398,46.306 39.134,48.999 40.832,51.718C38.876,45.621 39.821,38.443 43.186,33.039C44.878,30.322 47.235,28.056 49.813,26.195C51.025,25.321 52.325,24.445 53.703,23.804C52.355,23.191 50.978,22.638 49.585,22.121ZM34.59,43.896C33.441,42.166 32.278,40.445 31.102,38.734L31.083,38.707C31.072,38.7 31.06,38.693 31.049,38.685C30.127,38.023 28.991,37.665 27.905,37.387C27.067,37.173 26.226,36.948 25.368,36.826C24.695,36.73 24.018,36.674 23.338,36.664C21.675,36.64 19.576,36.81 17.849,37.513C16.469,38.075 15.327,38.983 14.887,40.434C15.188,43.054 15.476,45.676 15.748,48.299C20.101,43.376 26.562,41.725 34.59,43.896ZM14.702,47.999L14.656,47.563C14.394,45.061 14.117,42.56 13.827,40.061L13.81,39.913C13.802,39.895 13.795,39.875 13.789,39.855C13.524,38.847 13.178,37.841 12.393,37.113C11.724,36.493 10.849,36.245 9.982,36.301L9.689,45.744C11.625,45.092 13.276,45.978 14.702,47.999ZM48.601,21.762C47.253,21.278 45.894,20.822 44.537,20.373C43.313,20.546 42.118,20.858 40.933,21.22C37.987,22.121 34.997,23.4 33.113,25.958C32.101,27.331 31.506,29.034 31.239,30.707C31.032,31.997 31.017,33.307 31.181,34.603C31.341,35.871 31.597,37.181 32.08,38.375C32.993,39.705 33.898,41.041 34.794,42.382C33.547,32.722 39.064,24.776 48.601,21.762ZM22.826,27.1C21.978,26.59 21.007,26.64 20.027,26.703C18.69,26.789 17.077,27.191 15.82,27.984C14.617,28.743 13.742,29.867 13.824,31.439C13.825,31.475 13.821,31.511 13.812,31.544C14.131,34.072 14.44,36.602 14.736,39.134C15.38,38.094 16.404,37.375 17.595,36.89C19.406,36.153 21.604,35.966 23.347,35.991C24.056,36.001 24.761,36.06 25.463,36.16C26.345,36.285 27.21,36.515 28.072,36.735C28.788,36.918 29.523,37.138 30.213,37.445C27.802,33.965 25.338,30.52 22.826,27.1ZM10.284,26.584C10.491,26.635 10.683,26.71 10.862,26.805C11.711,27.259 12.23,28.18 12.5,29.334C12.505,29.356 12.512,29.377 12.521,29.397L12.54,29.54C12.874,32.142 13.197,34.745 13.508,37.35L13.516,37.412C13.329,37.127 13.11,36.86 12.85,36.619C12.061,35.887 11.028,35.582 10.003,35.633L10.284,26.584ZM33.192,16.665C33.148,16.677 33.102,16.68 33.054,16.673C31.823,16.49 30.364,17.14 29.311,17.677C25.684,19.527 23.058,23.87 24.626,27.85C26.729,30.734 28.799,33.637 30.831,36.564C30.693,35.94 30.591,35.309 30.513,34.687C30.341,33.328 30.358,31.954 30.574,30.6C30.858,28.823 31.497,27.017 32.571,25.559C34.542,22.883 37.654,21.519 40.736,20.576C41.548,20.328 42.366,20.103 43.193,19.928C42.641,19.746 42.09,19.563 41.541,19.378C38.899,18.49 36.26,17.615 33.614,16.763C33.491,16.824 33.338,16.805 33.233,16.705C33.219,16.692 33.206,16.678 33.192,16.665ZM19.166,22.158C18.83,21.897 18.472,21.603 18.091,21.48C17.54,21.302 16.902,21.334 16.337,21.408C14.821,21.604 13.499,22.309 12.786,23.657C13.044,25.586 13.298,27.516 13.546,29.447C13.951,28.609 14.635,27.936 15.46,27.415C16.813,26.562 18.546,26.124 19.984,26.031C20.705,25.985 21.419,25.962 22.095,26.106C21.766,25.661 21.436,25.215 21.105,24.769C20.458,23.899 19.812,23.028 19.166,22.158ZM10.415,22.36C10.433,22.363 10.451,22.367 10.469,22.37C10.934,22.465 11.363,22.666 11.681,23.01L11.681,23.012C11.859,24.338 12.035,25.665 12.209,26.992L12.224,27.105C11.932,26.731 11.584,26.428 11.179,26.211C10.913,26.069 10.622,25.963 10.305,25.899L10.415,22.36ZM26.465,14.534C25.953,14.532 25.365,14.699 24.907,14.826C21.893,15.667 19.825,18.944 20.333,22.037L22.456,24.897L23.557,26.389C23.055,22.602 25.6,18.814 29.005,17.077C29.731,16.707 30.635,16.304 31.543,16.102C29.855,15.568 28.163,15.044 26.465,14.534ZM50.177,21.265C51.9,21.911 53.6,22.613 55.248,23.415C55.141,22.173 55.059,20.953 55.317,19.707C55.526,18.702 55.973,17.763 56.459,16.865C57.856,14.281 59.951,12.292 62.425,10.739C62.954,10.406 63.52,10.138 64.084,9.871C60.749,9.99 57.416,10.02 54.084,10.002C49.311,12.273 47.856,17.19 50.177,21.265ZM12.791,22.462C13.649,21.473 14.876,20.918 16.25,20.74C16.862,20.661 17.546,20.636 18.155,20.797C17.426,19.818 16.696,18.84 15.963,17.864C15.268,17.583 14.442,17.734 13.753,18.121C13.168,18.451 12.673,18.956 12.445,19.544C12.392,19.963 12.499,20.4 12.568,20.818C12.632,21.206 12.65,21.6 12.716,21.989L12.791,22.462ZM10.514,19.155C10.768,19.233 11.004,19.359 11.209,19.54C11.324,20.38 11.439,21.22 11.552,22.06C11.262,21.894 10.941,21.78 10.603,21.711C10.548,21.7 10.492,21.689 10.436,21.681L10.514,19.155ZM21.783,13.169C20.184,13.458 18.879,14.251 17.999,15.687C17.539,16.439 17.281,17.345 17.484,18.211C18.187,19.149 18.886,20.089 19.586,21.03C19.619,17.974 21.757,15.006 24.726,14.178C24.817,14.153 24.912,14.127 25.01,14.101C23.937,13.784 22.862,13.473 21.783,13.169ZM52.783,9.993C50.376,9.971 47.97,9.927 45.563,9.877C45.557,9.881 45.55,9.885 45.543,9.888C44.289,10.544 43.401,11.87 42.972,13.334C42.542,14.804 42.572,16.421 43.195,17.663C43.593,18.457 44.356,18.983 45.061,19.484C46.479,19.955 47.899,20.434 49.305,20.944C47.436,17.003 48.694,12.484 52.783,9.993ZM35.616,9.667C35.574,9.758 35.492,9.829 35.387,9.854C34.061,10.164 33.175,11.307 32.847,12.589C32.589,13.596 32.673,14.697 33.181,15.564C36.08,16.492 38.97,17.449 41.863,18.421C42.328,18.578 42.795,18.733 43.263,18.888C42.998,18.613 42.766,18.31 42.593,17.965C41.9,16.582 41.847,14.782 42.326,13.145C42.706,11.848 43.419,10.658 44.393,9.851C41.469,9.787 38.543,9.717 35.616,9.667ZM10.623,15.662C10.637,15.668 10.651,15.674 10.666,15.681C10.731,16.11 10.793,16.539 10.853,16.967C10.931,17.53 11.009,18.093 11.087,18.656C10.911,18.571 10.726,18.507 10.536,18.463L10.623,15.662ZM13.559,14.69C13.463,14.658 13.35,14.684 13.258,14.716C13.07,14.782 12.91,14.899 12.757,15.022C12.528,15.206 12.324,15.421 12.201,15.694C12.093,15.934 12.133,16.247 12.136,16.503C12.142,16.933 12.158,17.368 12.207,17.796C12.233,18.021 12.278,18.266 12.283,18.503C12.588,18.116 12.982,17.783 13.423,17.535C14.021,17.198 14.7,17.018 15.353,17.054C14.758,16.264 14.16,15.476 13.559,14.69ZM18.587,12.303C18.45,12.321 18.315,12.343 18.197,12.352C16.878,12.446 15.544,12.981 15.201,14.411C15.143,14.653 15.147,14.892 15.168,15.137C15.701,15.838 16.231,16.54 16.76,17.244C16.825,16.572 17.071,15.915 17.426,15.335C18.189,14.088 19.237,13.27 20.504,12.814C19.866,12.64 19.227,12.47 18.587,12.303ZM34.056,9.643C33.512,9.635 32.969,9.628 32.425,9.623C31.971,9.619 31.516,9.616 31.061,9.614C29.621,9.608 28.18,9.614 26.74,9.627L26.707,9.628C26.439,9.898 26.248,10.264 26.125,10.602C25.78,11.549 25.706,12.718 26.407,13.463C28.381,14.053 30.348,14.663 32.31,15.286C31.978,14.393 31.951,13.373 32.195,12.422C32.487,11.281 33.165,10.246 34.149,9.644L34.056,9.643ZM12.328,13.091C12.271,13.039 12.207,12.995 12.14,12.993C12.107,12.991 12.071,12.999 12.039,13.01C11.83,13.085 11.817,13.31 11.819,13.499L11.817,13.507C11.824,13.773 11.842,14.039 11.857,14.304C11.862,14.384 11.867,14.464 11.872,14.544C12.091,14.341 12.339,14.168 12.618,14.032C12.709,13.987 12.826,13.94 12.953,13.9C12.745,13.63 12.537,13.36 12.328,13.091ZM14.999,11.388C14.991,11.39 14.982,11.392 14.974,11.394C14.609,11.482 14.248,11.749 14.059,12.073C13.812,12.499 13.85,12.916 14.014,13.303C14.144,13.611 14.348,13.902 14.568,14.168C14.903,12.916 15.851,12.211 16.966,11.886C16.311,11.719 15.655,11.554 14.999,11.388ZM25.856,9.636C24.621,9.649 23.386,9.666 22.151,9.684C21.928,9.832 21.721,10.076 21.566,10.346C21.397,10.641 21.286,10.97 21.312,11.25C21.341,11.561 21.452,11.835 21.621,12.075C21.706,12.098 21.791,12.122 21.876,12.146C23.066,12.481 24.252,12.824 25.434,13.173C25.075,12.314 25.166,11.269 25.493,10.371C25.583,10.125 25.704,9.872 25.856,9.636ZM21.188,9.698C19.975,9.716 18.762,9.733 17.548,9.746C17.291,9.928 17.143,10.245 17.296,10.544C17.401,10.75 17.551,10.907 17.723,11.038C18.733,11.297 19.743,11.56 20.751,11.835C20.696,11.67 20.659,11.495 20.642,11.312C20.605,10.911 20.74,10.434 20.982,10.011C21.044,9.902 21.114,9.797 21.188,9.698ZM13.918,10.074C14.831,10.306 15.745,10.535 16.658,10.767C16.513,10.423 16.545,10.064 16.695,9.755L16.612,9.756C15.735,9.764 14.859,9.77 13.983,9.772C13.932,9.842 13.9,9.923 13.907,9.999C13.909,10.025 13.913,10.05 13.918,10.074Z" style="fill:#d3d3d3;"/>
        </g>
        <g transform="matrix(0.820447,0,0,0.820447,40.2617,16.7864)">
            <path d="M264.222,0C264.128,-0.954 262.868,-0.966 262.967,0C263.138,1.67 263.195,3.353 263.315,5.028C262.467,6.782 260.188,8.207 258.587,8.994C253.978,11.26 248.329,12.544 243.165,11.782C240.184,10.003 237.184,8.258 234.18,6.52C238.432,7.945 243.157,8.772 247.593,7.917C250.641,7.33 253.429,6.041 255.972,4.286C257.747,3.062 259.286,1.704 260.414,0C260.777,-0.55 259.951,-0.752 259.397,0C258.364,1.404 257.019,2.551 255.499,3.6C253.051,5.289 250.369,6.534 247.435,7.099C242.899,7.973 238.053,7.015 233.759,5.494C232.895,5.188 232.001,4.959 231.164,4.579C229.753,3.938 228.496,3.061 227.232,2.195C226.455,1.422 225.63,0.716 224.812,0C222.325,-2.177 219.217,-0.804 220.57,0C222.754,1.298 224.948,2.615 227.107,3.872C231.355,8.444 235.266,14.053 237.964,19.654C239.901,23.674 240.918,27.988 241.6,32.371C242.39,37.442 242.762,42.472 242.394,47.604C242.217,50.085 242.086,52.671 241.594,55.125L243.659,55.125C244.688,53.984 245.923,53.028 247.214,52.2C250.259,50.245 253.601,48.867 257.278,49.147C260.713,49.409 264.085,50.904 265.617,54.137C265.67,54.248 265.751,54.336 265.847,54.397C265.822,54.641 265.793,54.884 265.759,55.125L267.02,55.125C267.073,54.72 267.114,54.311 267.146,53.9C267.576,52.653 268.3,51.472 269.034,50.412C271.191,47.298 273.858,45.097 277.23,43.396C278.117,42.949 279.045,42.626 280,42.396C280.698,42.228 280.536,41.418 280,41.54C278.913,41.788 277.86,42.146 276.855,42.652C273.355,44.418 270.589,46.705 268.349,49.937C267.975,50.478 267.605,51.048 267.272,51.642C267.605,48.898 268.3,46.019 269.816,43.712C271.313,41.432 274.041,39.636 276.657,38.941C277.565,38.7 278.579,38.466 279.562,38.464C279.708,38.593 279.854,38.722 280,38.851C280.912,39.664 280.741,38.04 280,37.059C280.412,37.279 280.363,36.692 280,36.142C279.989,36.125 279.978,36.108 279.967,36.09C279.261,34.967 279.012,33.687 278.967,32.379C278.906,30.64 279.192,28.747 280,27.169C280.736,25.732 280.427,25.044 280,25.611C278.575,27.503 278.052,30.074 278.134,32.408C278.185,33.864 278.475,35.284 279.262,36.534C279.27,36.547 279.278,36.56 279.287,36.573C278.218,35.662 277.131,34.771 276.031,33.897C275.225,32.834 274.725,31.562 274.748,30.207C274.773,28.789 275.635,27.098 276.852,26.117C277.202,26.019 277.55,25.92 277.898,25.82C278.011,25.835 278.126,25.801 278.213,25.729C278.81,25.556 279.406,25.38 280,25.203C280.987,24.909 280.757,23.673 280,23.9C279.156,24.152 278.309,24.404 277.458,24.648C275.18,23.133 274.531,20.255 274.717,17.566C274.773,16.76 274.826,15.828 275.141,15.073C275.186,14.966 275.183,14.851 275.142,14.752C276.261,12.99 277.357,11.217 278.431,9.435C278.447,9.41 278.462,9.384 278.477,9.359C278.43,10.931 278.723,12.5 279.421,13.944C279.597,14.307 279.793,14.65 280,14.984C280.579,15.919 280.672,14.323 280,13.202C279.242,11.414 279.135,9.442 279.529,7.548C279.687,7.269 279.844,6.988 280,6.707L280,4.122C279.849,4.397 279.698,4.672 279.547,4.947C279.126,5.18 278.673,5.365 278.246,5.577C275.428,6.978 272.647,7.182 269.564,6.375C267.466,5.825 265.721,4.996 264.515,3.136C264.494,3.103 264.469,3.075 264.442,3.05C264.382,2.032 264.321,1.014 264.222,0ZM230.482,5.826C233.844,9.886 236.87,14.502 239.091,19.112C241.08,23.243 242.134,27.675 242.836,32.179C243.64,37.344 244.015,42.467 243.641,47.693C243.511,49.51 243.403,51.381 243.167,53.219C244.013,51.953 244.989,50.753 246,49.591C246.006,49.528 246.026,49.465 246.062,49.407C248.25,45.899 249.232,42.242 249.774,38.186C250.954,29.37 249.071,19.968 243.055,13.172C238.889,10.678 234.685,8.256 230.482,5.826ZM265.982,47.695C265.671,47.237 265.209,46.665 265.051,46.518C263.803,45.363 262.101,44.947 260.451,44.862C256.507,44.661 252.67,45.8 249.403,48.022C248.987,48.305 248.6,48.629 248.224,48.965C247.475,49.791 246.722,50.632 246.007,51.499C246.183,51.379 246.361,51.262 246.539,51.148C249.814,49.046 253.418,47.6 257.373,47.901C260.753,48.158 264.047,49.525 265.983,52.288C266.031,50.76 265.991,49.211 265.982,47.695ZM274.083,33.954C273.407,33.971 272.607,34.3 272.075,34.538C269.183,35.835 267.631,38.964 267.371,42.005C267.365,42.067 267.346,42.125 267.317,42.177C267.295,43.459 267.266,44.741 267.24,46.022C267.23,46.52 267.228,47.024 267.23,47.532C267.663,46.011 268.27,44.547 269.119,43.254C270.723,40.812 273.64,38.88 276.443,38.135C277.145,37.949 277.904,37.774 278.669,37.689C277.173,36.406 275.639,35.166 274.083,33.954ZM245.147,14.434C250.162,21.214 251.71,30.005 250.6,38.296C250.183,41.417 249.508,44.307 248.253,47.076C248.537,46.762 248.818,46.449 249.094,46.137C251.155,43.806 253.255,41.486 255.327,39.141C255.611,38.649 255.911,38.163 256.138,37.647C256.853,36.018 257.383,34.31 257.849,32.597C258.267,31.059 258.624,29.47 258.448,27.868C258.17,25.337 256.852,22.839 255.31,20.864C255.274,20.818 255.249,20.766 255.235,20.713C251.908,18.576 248.542,16.493 245.147,14.434ZM266.088,40.78C265.953,40.317 265.757,39.866 265.54,39.541C265.169,38.985 264.672,38.668 264.121,38.314C263.156,37.696 261.779,37.232 260.619,37.291C259.517,37.347 258.463,37.81 257.572,38.479C255.273,41.113 252.922,43.707 250.61,46.311C253.634,44.665 257.024,43.853 260.493,44.03C262.336,44.124 264.225,44.618 265.617,45.907C265.693,45.978 265.828,46.132 265.985,46.327C265.986,46.216 265.988,46.106 265.99,45.996C266.026,44.259 266.065,42.52 266.088,40.78ZM266.062,34.302C266.006,33.912 265.924,33.517 265.767,33.162C265.449,32.438 264.785,31.749 263.947,31.823C263.723,31.843 263.507,31.884 263.299,31.972C263.088,32.062 262.899,32.164 262.737,32.314C261.546,33.814 260.317,35.291 259.065,36.752C259.554,36.588 260.061,36.485 260.577,36.459C261.898,36.391 263.471,36.908 264.57,37.613C265.161,37.991 265.686,38.347 266.106,38.9C266.114,37.367 266.104,35.833 266.062,34.302ZM270.581,31.291C270.415,31.273 270.243,31.279 270.084,31.286C269.815,31.298 269.571,31.33 269.316,31.418C268.05,31.854 267.416,33.145 267.316,34.418C267.351,35.79 267.362,37.163 267.358,38.536C268.2,36.485 269.661,34.708 271.734,33.778C272.132,33.6 272.656,33.396 273.192,33.265C272.327,32.6 271.456,31.942 270.581,31.291ZM257.05,21.886C258.181,23.671 259.05,25.716 259.277,27.777C259.464,29.483 259.098,31.178 258.653,32.815C258.29,34.151 257.888,35.484 257.393,36.78C258.648,35.329 259.884,33.864 261.085,32.377C261.09,32.315 261.109,32.253 261.143,32.196C261.518,31.574 261.971,31.035 262.266,30.359C262.8,29.133 262.716,27.687 262.183,26.477C262.014,26.093 261.758,25.75 261.536,25.396C261.319,25.052 261.102,24.706 260.843,24.396C259.584,23.549 258.32,22.713 257.05,21.886ZM275.319,26.533C274.335,26.791 273.348,27.032 272.356,27.248C271.392,27.618 270.884,28.529 271.182,29.56C271.304,29.982 271.576,30.368 271.872,30.695C272.7,31.315 273.524,31.941 274.343,32.574C274.055,31.822 273.901,31.02 273.915,30.193C273.936,28.991 274.478,27.626 275.319,26.533ZM267.538,29.056C267.458,29.047 267.375,29.061 267.305,29.103C267.188,29.175 267.098,29.291 267.072,29.427C267.066,29.454 267.063,29.482 267.061,29.51C267.128,30.368 267.185,31.226 267.229,32.087C267.654,31.429 268.258,30.901 269.044,30.63C269.206,30.574 269.365,30.535 269.526,30.507C268.865,30.019 268.202,29.535 267.538,29.056ZM265.801,29.433C265.781,29.355 265.757,29.279 265.715,29.209C265.632,29.068 265.452,29.01 265.301,29.081C265.239,29.111 265.189,29.17 265.147,29.223L265.114,29.252C264.669,29.839 264.22,30.423 263.768,31.004C263.803,31 263.838,30.996 263.874,30.993C264.705,30.92 265.444,31.334 265.97,31.941C265.925,31.103 265.868,30.267 265.801,29.433ZM270.63,27.612L270.53,27.647C270.239,27.757 269.924,27.915 269.703,28.136C269.539,28.301 269.531,28.507 269.589,28.702C269.645,28.888 269.753,29.066 269.882,29.217C270.027,29.324 270.173,29.431 270.319,29.539C270.173,28.824 270.295,28.157 270.63,27.612ZM264.266,26.738C263.739,26.371 263.212,26.007 262.684,25.645C262.78,25.806 262.87,25.97 262.946,26.141C263.398,27.167 263.568,28.337 263.39,29.449C263.696,29.053 263.999,28.654 264.301,28.255C264.381,28.141 264.463,28.027 264.534,27.908C264.586,27.821 264.639,27.728 264.666,27.629C264.731,27.39 264.688,27.118 264.522,26.928C264.509,26.915 264.497,26.902 264.484,26.89L264.268,26.741L264.266,26.738ZM271.159,26.215C270.323,25.744 269.635,24.981 269.394,24.081C269.345,23.897 269.316,23.711 269.303,23.523C269.242,23.652 269.189,23.784 269.144,23.919C268.974,24.42 268.899,24.931 268.917,25.459C268.923,25.651 268.948,25.859 269.048,26.023C269.052,26.027 269.056,26.032 269.06,26.036C269.18,26.101 269.302,26.159 269.434,26.2C269.983,26.368 270.583,26.301 271.138,26.218L271.159,26.215ZM273.96,16.594C272.779,18.42 271.572,20.23 270.337,22.021C270.336,22.026 270.335,22.032 270.333,22.037C270.169,22.627 270.037,23.261 270.199,23.866C270.493,24.963 271.661,25.777 272.77,25.878C274.003,25.594 275.23,25.274 276.45,24.934C274.352,23.178 273.695,20.267 273.886,17.509C273.906,17.215 273.928,16.906 273.96,16.594ZM265.268,23.78C265.218,23.276 265.168,22.772 265.12,22.268C264.471,23.16 263.416,23.707 262.309,23.877L262.336,23.896C262.351,23.901 262.366,23.906 262.381,23.912C262.64,24.006 262.914,24.08 263.167,24.189C263.506,24.335 263.839,24.522 264.203,24.598C264.329,24.624 264.456,24.64 264.585,24.623C264.678,24.611 264.767,24.58 264.853,24.542C264.917,24.513 264.976,24.478 265.03,24.433C265.221,24.272 265.266,24.03 265.268,23.78ZM267.443,24.112C267.678,23.912 268.275,22.828 268.738,22.135C268.648,22.156 268.558,22.173 268.469,22.186C267.666,22.301 266.918,21.948 266.3,21.468C266.364,22.164 266.432,22.86 266.502,23.555C266.527,23.662 266.567,24.171 267.008,24.225C267.106,24.237 267.287,24.245 267.443,24.112ZM264.601,16.043C264.514,16.166 264.423,16.285 264.328,16.399C263.375,17.537 261.956,18.354 260.637,18.981C259.406,19.567 258.035,20.028 256.659,20.143C258.158,21.11 259.648,22.09 261.13,23.083C262.423,23.24 263.868,22.731 264.555,21.614C264.776,21.255 264.89,20.87 264.955,20.471C264.829,18.997 264.72,17.52 264.601,16.043ZM265.829,15.719C265.951,17.221 266.061,18.725 266.189,20.225C266.3,20.368 266.437,20.491 266.575,20.613C267.064,21.047 267.67,21.458 268.351,21.361C268.813,21.294 269.318,21.088 269.645,20.748C269.822,20.564 269.95,20.338 270.103,20.135C270.116,20.117 270.131,20.1 270.147,20.085C270.876,19.011 271.596,17.931 272.307,16.844C271.121,17.242 269.827,17.301 268.603,17.047C268.066,16.936 267.538,16.815 267.044,16.569C266.597,16.346 266.197,16.052 265.829,15.719ZM263.429,6.379C262.276,7.841 260.384,9.039 258.955,9.742C254.733,11.818 249.663,13.084 244.849,12.792C245.071,12.927 245.294,13.061 245.516,13.195C248.835,15.207 252.126,17.239 255.381,19.321C255.658,19.345 255.943,19.342 256.214,19.334C257.616,19.291 259.025,18.826 260.28,18.229C261.495,17.651 262.811,16.912 263.689,15.864C264.004,15.488 264.264,15.046 264.481,14.597C264.395,13.606 264.301,12.617 264.189,11.631C263.991,9.872 263.61,8.142 263.429,6.379ZM264.533,4.531C264.567,5.044 264.606,5.557 264.654,6.069C264.826,7.891 265.226,9.675 265.432,11.491C265.542,12.467 265.635,13.445 265.721,14.425C266.212,14.976 266.752,15.492 267.416,15.823C267.845,16.037 268.306,16.135 268.772,16.231C270.047,16.496 271.409,16.378 272.598,15.835C272.793,15.746 272.982,15.646 273.159,15.531C274.597,13.302 275.996,11.052 277.361,8.789C277.872,7.943 278.363,7.08 278.848,6.211C278.77,6.248 278.693,6.286 278.617,6.323C275.61,7.818 272.642,8.042 269.353,7.181C267.432,6.678 265.793,5.942 264.533,4.531Z" style="fill:#d3d3d3;"/>
        </g>
        <g transform="matrix(1,0,0,1,0,8.75)">
            <path d="M217.756,0L212.418,6.25L273.75,6.25L273.75,48.875L64.381,48.875L58.797,55.125L220.587,55.125L220.77,50.128C220.828,50.155 221.947,50.423 221.947,50.423L225.644,55.125L276.287,55.125C278.336,55.125 280,53.461 280,51.412L280,3.713C280,1.664 278.336,0 276.287,0L217.756,0ZM-0,25.935L-0,3.713C-0,1.664 1.664,0 3.713,0L68.465,0L69.358,3.047L70.741,3.184L71.251,2.409L71.914,4.478L72.988,0.87L73.817,1.762L75.314,0L84.236,0L85.558,6.25L6.25,6.25L6.25,48.875L59.004,48.875L54.078,55.125L3.713,55.125C1.664,55.125 -0,53.461 -0,51.412L0,37.001L1.749,34.524L1.502,31.91L4.227,30.65L4.31,28.66L-0,25.935ZM197.974,0L91.478,0L89.861,6.25L200.342,6.25L197.974,0Z" style="fill:#8f8f8f;"/>
        </g>
        <g transform="matrix(1,0,0,1,0,8.75)">
            <path d="M220.423,1.286C221.039,1.564 221.711,1.819 222.18,1.754C222.59,1.697 222.951,1.482 223.317,1.286L225.687,1.286C226.108,1.474 226.526,1.669 226.992,1.674C227.623,1.682 228.219,1.428 228.827,1.286L235.001,1.286C235.431,1.33 235.863,1.363 236.297,1.368C237.247,1.379 238.205,1.329 239.162,1.286L242.644,1.286C244.24,1.422 245.712,2.066 247.35,2.017C249.103,1.965 251.095,1.923 252.83,1.632C253.336,1.547 253.815,1.415 254.291,1.286L258.487,1.286C259.389,1.591 260.274,1.961 261.198,1.941C262.575,1.911 263.923,1.538 265.294,1.286L270.003,1.286C271.519,1.523 273.02,1.859 274.558,1.874C274.945,1.878 275.32,1.84 275.64,1.607C275.737,1.537 275.835,1.444 275.937,1.349C276.567,1.466 277.141,1.743 277.616,2.136C277.642,2.211 277.673,2.285 277.71,2.355C277.941,2.787 278.234,3.033 278.544,3.279C278.813,3.793 278.965,4.378 278.965,4.998L278.965,8.266C278.784,8.962 278.674,9.673 278.722,10.357C278.75,10.744 278.855,11.114 278.965,11.484L278.965,14.668C278.903,14.942 278.856,15.22 278.852,15.506C278.844,16.158 278.899,16.81 278.965,17.462L278.965,22.274C278.917,22.719 278.885,23.163 278.914,23.607C278.924,23.769 278.942,23.929 278.965,24.089L278.965,37.276C278.779,37.83 278.589,38.383 278.419,38.939C278.082,40.041 278.631,40.62 278.965,41.478L278.965,44.105C278.836,44.38 278.672,44.673 278.693,44.955C278.712,45.208 278.821,45.441 278.965,45.655L278.965,50.353C278.965,52.402 277.302,54.066 275.253,54.066L272.526,54.066C272.081,54.022 271.629,54.007 271.167,54.03C271.058,54.035 270.948,54.047 270.839,54.066L266.534,54.066C266.326,53.948 266.116,53.863 265.901,53.867C265.601,53.873 265.338,53.956 265.088,54.066L262.423,54.066C262.311,53.934 262.197,53.797 262.04,53.68C261.618,53.363 260.987,53.24 260.474,53.201C258.953,53.087 257.462,53.776 255.942,54.066L252.97,54.066C251.887,53.934 250.81,53.742 249.717,53.711C245.141,53.585 240.45,53.682 235.879,53.96C234.549,54.041 233.239,53.608 231.894,53.664C231.417,53.684 230.955,53.915 230.497,54.066L228.886,54.066C228.319,53.943 227.757,53.775 227.18,53.73C226.638,53.689 226.106,53.81 225.606,54.018L222.702,50.423L222.532,50.379C222.684,50.311 222.817,50.223 222.924,50.11L223.847,50.113C224.242,50.251 224.648,50.332 225.047,50.293C225.21,50.276 225.363,50.203 225.513,50.118L226.969,50.123C227.109,50.242 227.234,50.381 227.35,50.523C227.378,50.557 227.624,50.946 227.664,50.941C228.007,50.893 228.216,50.457 228.444,50.128L229.606,50.131C230.009,50.341 230.447,50.482 230.905,50.471C232.573,50.432 234.215,50.237 235.896,50.262C237.762,50.29 239.631,50.568 241.498,50.627C242.841,50.67 244.159,50.447 245.472,50.181L260.706,50.229C261.119,50.238 261.532,50.249 261.945,50.263C263.684,50.325 265.431,50.656 267.174,50.533C267.628,50.501 268.089,50.379 268.552,50.253L271.938,50.264C273.364,50.672 275.146,51.203 276.159,50.247C276.749,49.69 275.969,48.879 275.512,48.19L275.498,45.523C275.636,45.002 275.774,44.482 275.79,43.965C275.813,43.212 275.652,42.567 275.478,41.919L275.456,37.859C275.899,36.599 276.609,35.428 276.743,34.001C276.93,32.013 276.389,30.013 276.009,28.081C275.79,26.965 275.564,25.842 275.385,24.715L275.365,21.005C275.591,19.873 275.924,18.769 275.894,17.585C275.879,16.99 275.616,16.441 275.337,15.893L275.321,12.843C275.46,12.405 275.446,12.015 275.314,11.642L275.303,9.62C275.324,9.504 275.341,9.388 275.354,9.27C275.392,8.929 275.361,8.586 275.296,8.243L275.28,5.336L270.872,5.336C270.063,5.136 269.242,4.968 268.414,4.983C267.674,4.996 266.931,5.16 266.191,5.336L249.055,5.336C247.737,5.221 246.418,5.134 245.096,5.115C244.369,5.104 243.656,5.208 242.946,5.336L235.899,5.336C235.678,5.316 235.457,5.301 235.236,5.294C234.362,5.265 233.48,5.284 232.597,5.336L224.564,5.336C224.385,5.257 224.201,5.193 224.008,5.157C223.683,5.097 223.374,5.234 223.077,5.336L222.038,5.336C221.278,5.142 220.558,4.779 219.738,4.803C219.092,4.822 218.54,5.082 217.982,5.336L214.444,5.336L217.756,1.286L220.423,1.286ZM72.269,54.066L61.61,54.066C61.769,53.77 61.953,53.494 62.159,53.298C62.478,52.994 62.907,52.843 63.224,52.544C63.77,52.031 64.285,51.445 64.821,50.916C64.936,50.801 65.144,50.546 65.295,50.271L67.969,50.258C68.821,50.284 69.665,50.273 70.508,50.246L77.495,50.213C78.595,50.359 79.69,50.558 80.8,50.503C81.612,50.463 82.407,50.324 83.203,50.187L89.07,50.159C91.075,50.467 93.071,50.905 95.098,50.809C96.857,50.726 98.573,50.384 100.303,50.106L108.528,50.068C111.572,50.494 114.593,51.167 117.64,51.166C119.88,51.166 122.126,50.59 124.356,50.398C126.764,50.191 129.145,50.461 131.541,50.301C132.691,50.224 133.833,50.089 134.973,49.944L149.376,49.876C149.99,50.067 150.563,50.412 151.216,50.432C151.805,50.449 152.181,50.014 152.698,49.894C153.35,49.743 153.937,50.599 154.691,50.345C155.053,50.224 155.341,50.037 155.614,49.847L160.19,49.825C160.714,50.006 161.235,50.169 161.74,50.24C164.03,50.565 166.378,50.233 168.679,50.238C171.514,50.243 174.36,50.48 177.194,50.274C178.963,50.146 180.718,49.928 182.474,49.721L193.904,49.667C195.463,49.943 197.025,50.25 198.526,50.344C202.504,50.594 206.43,50.015 210.401,49.845C211.366,49.803 212.337,49.762 213.303,49.792C214.105,49.817 214.907,49.86 215.708,49.908C216.323,49.945 216.935,50.003 217.545,50.088C218.03,50.155 218.513,50.229 218.997,50.301C219.282,50.344 219.804,50.452 220.385,50.521L219.953,54.066L213.749,54.066C213.03,53.593 212.257,53.724 211.478,54.066L190.727,54.066C190.13,53.831 189.522,53.626 188.839,53.644C187.03,53.692 185.229,53.849 183.432,54.066L155.423,54.066C155.091,53.995 154.756,53.935 154.418,53.889C153.703,53.793 153.016,53.906 152.337,54.066L146.845,54.066C146.07,53.863 145.292,53.675 144.479,53.672C143.088,53.668 141.708,53.826 140.334,54.066L106.966,54.066C105.701,53.914 104.435,53.775 103.168,53.658C101.566,53.51 100.012,53.766 98.463,54.066L87.709,54.066C87.219,54.01 86.728,53.967 86.233,53.948C85.622,53.924 85.016,53.988 84.412,54.066L80.379,54.066C78.939,53.778 77.514,53.317 76.049,53.359C74.775,53.396 73.514,53.693 72.269,54.066ZM80.454,1.286L83.727,1.286L84.356,5.248C83.865,5.155 83.283,5.188 83.006,5.157L81.327,4.952C80.927,4.908 80.526,4.87 80.125,4.826C79.59,4.768 79.056,4.685 78.519,4.638C77.635,4.562 76.937,4.931 76.258,5.336L51.395,5.336C50.832,5.17 50.264,5.033 49.69,5.013C48.927,4.986 48.201,5.319 47.445,5.296C46.697,5.274 45.95,4.879 45.203,4.94C44.638,4.986 44.113,5.225 43.56,5.336L41.994,5.336C40.725,5.211 39.467,4.925 38.171,4.944C36.995,4.962 35.8,5.204 34.62,5.336L31.749,5.336C29.965,5.183 28.182,4.898 26.396,4.942C25.05,4.974 23.726,5.155 22.401,5.336L15.965,5.336C15.33,5.218 14.694,5.106 14.054,5.059C12.921,4.975 11.709,5.094 10.526,5.336L5.019,6.326C4.016,8.157 4.788,10.444 5.028,12.423C5.038,12.504 5.046,12.585 5.053,12.667L5.06,13.928C5.015,14.724 4.905,15.512 4.887,16.325C4.874,16.923 4.981,17.509 5.083,18.097L5.098,21.014C5.021,21.452 4.942,21.89 4.925,22.335C4.902,22.991 5.005,23.623 5.116,24.26L5.153,31.006C5.123,31.229 5.129,31.46 5.146,31.633C5.149,31.666 5.153,31.699 5.156,31.732L5.173,34.786C5.011,35.383 4.813,35.975 4.851,36.6C4.888,37.213 5.047,37.815 5.193,38.418L5.211,41.832C4.937,43.008 4.545,44.166 4.632,45.397C4.674,45.996 4.852,46.578 4.866,47.18C4.882,47.88 4.563,49.194 5.037,49.763L5.276,50.355C5.628,51.251 6.761,50.868 7.454,50.733C9.722,50.292 11.936,51.197 14.198,50.794C15.04,50.645 15.873,50.453 16.708,50.275L28.754,50.275C29.189,50.319 29.623,50.355 30.058,50.377C30.855,50.419 31.68,50.453 32.475,50.365C32.687,50.341 32.896,50.309 33.105,50.275L37.993,50.275C38.284,50.314 38.575,50.356 38.864,50.396C39.604,50.5 40.609,50.69 41.318,50.368C41.378,50.341 41.434,50.31 41.485,50.275L56.41,50.275C56.128,50.465 55.846,50.656 55.628,50.923C55.235,51.405 55.282,51.992 55.036,52.535C54.847,52.954 54.453,53.217 54.236,53.618C54.159,53.761 54.097,53.911 54.046,54.066L44.86,54.066C44.284,53.967 43.708,53.876 43.128,53.803C40.398,53.458 37.631,53.451 34.883,53.496C32.931,53.528 30.993,53.793 29.061,54.066L20.897,54.066C20.36,53.944 19.819,53.844 19.269,53.817C18.39,53.773 17.474,53.883 16.607,54.066L10.72,54.066C9.957,53.898 9.193,53.743 8.428,53.698C7.276,53.63 6.206,53.865 5.12,54.066L4.867,54.066C2.818,54.066 1.155,52.402 1.155,50.353L1.155,50.193C1.374,49.666 1.622,49.149 1.695,48.553C1.853,47.26 1.355,46.045 1.155,44.787L1.155,43.009C1.247,42.364 1.391,41.726 1.399,41.064C1.405,40.593 1.285,40.149 1.155,39.707L1.155,37.001L2.904,34.524L2.656,31.91L4.679,30.65L4.762,28.66L1.155,25.935L1.155,23.496C1.324,22.899 1.468,22.316 1.352,21.646C1.303,21.365 1.227,21.087 1.155,20.81L1.155,17.508C1.164,17.36 1.168,17.211 1.162,17.06C1.16,17.001 1.158,16.943 1.155,16.884L1.155,12.073C1.313,11.376 1.503,10.684 1.511,9.967C1.519,9.272 1.338,8.614 1.155,7.956L1.155,4.998C1.155,2.949 2.818,1.286 4.867,1.286L7.122,1.286C7.651,1.382 8.181,1.479 8.717,1.509C9.637,1.56 10.54,1.399 11.447,1.286L14.382,1.286C15.786,1.443 17.177,1.722 18.602,1.7C19.647,1.684 20.666,1.49 21.686,1.286L28.757,1.286C29.689,1.474 30.622,1.645 31.571,1.645C32.636,1.644 33.683,1.481 34.728,1.286L45.548,1.286C46.118,1.352 46.69,1.405 47.263,1.43C47.902,1.459 48.533,1.384 49.162,1.286L55.116,1.286C55.23,1.298 55.345,1.309 55.459,1.319C56.333,1.396 57.214,1.442 58.091,1.45C58.75,1.457 59.406,1.368 60.06,1.286L62.975,1.286C63.83,1.435 64.69,1.628 65.532,1.371C65.607,1.349 65.695,1.32 65.79,1.286L67.391,1.286C67.677,1.486 67.885,1.788 68.187,1.949C68.331,2.026 68.528,2.02 68.693,2.065L69.358,4.333L70.741,4.469L71.251,3.695L71.914,5.005L72.988,2.155L73.817,3.048L75.162,1.465C75.26,1.428 75.363,1.406 75.47,1.407C75.804,1.409 76.123,1.549 76.458,1.535C76.916,1.515 77.352,1.334 77.809,1.324C78.502,1.308 79.191,1.448 79.885,1.385C80.079,1.368 80.268,1.331 80.454,1.286ZM91.562,5.336L91.433,5.336L92.471,1.286L93.538,1.286C95.794,1.704 98.166,1.344 100.433,1.445C102.187,1.523 103.793,2.452 105.54,2.445C107.365,2.437 109.136,1.8 110.939,1.586C112.582,1.39 114.239,1.482 115.887,1.372C116.233,1.348 116.578,1.319 116.923,1.286L125.374,1.286C126.279,1.426 127.185,1.551 128.105,1.564C128.909,1.576 129.693,1.436 130.476,1.286L134.871,1.286C135.356,1.428 135.839,1.571 136.354,1.611C137.029,1.665 137.648,1.423 138.284,1.286L140.246,1.286C141.188,1.408 142.123,1.608 143.069,1.574C143.753,1.549 144.414,1.423 145.075,1.286L151.87,1.286C153.564,1.546 155.252,1.856 156.963,1.942C158.719,2.029 160.457,1.509 162.206,1.404C164.947,1.24 167.619,1.837 170.335,1.758C171.315,1.729 172.275,1.503 173.238,1.286L177.906,1.286C178.393,1.43 178.883,1.552 179.398,1.534C179.744,1.522 180.061,1.407 180.375,1.286L183.882,1.286C185.215,1.56 186.543,1.922 187.913,1.91C188.772,1.902 189.455,1.521 190.24,1.286L195.284,1.286C195.814,1.354 196.347,1.418 196.887,1.45C196.995,1.457 197.111,1.465 197.231,1.471L198.571,4.844C198.265,4.886 198.001,4.928 197.973,4.932C197.028,5.052 196.067,5.008 195.117,5.078C194.658,5.111 194.2,5.158 193.742,5.194C193.127,5.241 192.52,5.238 191.906,5.203C190.5,5.122 189.036,4.461 187.647,4.511C186.703,4.545 185.914,5.061 184.996,5.216C184.014,5.382 183.064,5.012 182.085,5.055C181.623,5.075 181.181,5.213 180.738,5.336L178.217,5.336C177.46,5.14 176.699,4.872 175.92,4.856C172.729,4.791 169.503,5.158 166.309,5.336L146.819,5.336C146.484,5.255 146.148,5.188 145.805,5.158C145.135,5.101 144.484,5.22 143.831,5.336L140.832,5.336C140.065,5.174 139.315,4.953 138.527,4.906C137.676,4.856 136.872,5.342 136.004,5.328C134.541,5.304 133.159,4.64 131.705,4.596C130.069,4.547 128.543,5.04 126.994,5.336L118.233,5.336C116.458,5.131 114.724,4.804 112.92,4.83C111.648,4.848 110.448,5.081 109.257,5.336L100.128,5.336C99.41,5.192 98.688,5.061 97.951,4.984C97.219,4.908 96.539,5.345 95.824,5.298C94.217,5.192 92.965,4.738 91.562,5.336Z" style="fill:#a9a9a9;"/>
        </g>
        <g transform="matrix(1,0,0,1,0,8.75)">
            <path d="M178.289,0L175.372,0C175.4,1.431 175.42,2.865 175.394,4.297L175.311,4.301C174.487,4.341 173.551,4.348 172.815,4.786C172.578,4.927 172.384,5.105 172.225,5.308C172.212,5.287 172.2,5.268 172.189,5.25C172.08,5.076 171.954,4.888 171.841,4.691C171.79,4.603 171.724,4.447 171.693,4.37C171.771,4.23 171.872,4.097 171.968,3.973C172.463,3.338 172.349,2.421 171.714,1.926C171.079,1.432 170.162,1.546 169.667,2.181C169.422,2.496 169.179,2.855 169.009,3.217C168.823,3.613 168.747,4.012 168.758,4.408C167.994,4.546 167.467,5.264 167.574,6.041C167.671,6.748 167.811,7.541 168.208,8.153C168.22,8.171 168.233,8.19 168.245,8.208C168.168,8.246 168.094,8.292 168.024,8.346C167.381,8.83 167.253,9.746 167.738,10.388C168.032,10.777 168.325,11.132 168.734,11.412C168.798,11.455 168.863,11.496 168.928,11.535C168.679,12.217 168.973,12.994 169.637,13.332C170.214,13.626 170.956,13.967 171.59,14.083C172.065,14.169 172.573,14.156 173.069,14.054C173.055,14.204 173.045,14.354 173.043,14.503C173.034,15.244 173.174,15.954 173.566,16.591C174.169,17.574 175.184,17.727 176.179,17.791C176.52,17.813 176.861,17.849 177.203,17.858C177.518,17.866 177.835,17.854 178.148,17.817C178.882,17.732 179.758,17.35 180.169,16.668C180.513,16.096 180.512,15.26 180.51,14.628C180.509,14.357 180.508,14.088 180.504,13.819C180.946,14.051 181.403,14.215 181.848,14.251C182.711,14.32 183.58,14.002 184.301,13.56C184.96,13.156 185.186,12.312 184.832,11.638C185.171,11.422 185.477,11.143 185.755,10.864C186.322,10.294 186.32,9.369 185.75,8.802C185.595,8.648 185.415,8.536 185.223,8.466C185.328,8.31 185.424,8.139 185.51,7.952C185.706,7.526 185.786,7.056 185.836,6.594C185.912,5.904 185.492,5.272 184.861,5.056C184.903,4.932 184.934,4.813 184.948,4.702C185.004,4.252 184.898,3.78 184.762,3.358C184.683,3.112 184.56,2.879 184.446,2.647C184.091,1.925 183.216,1.627 182.494,1.982C181.771,2.337 181.473,3.212 181.829,3.934C181.88,4.039 181.949,4.138 181.985,4.25L182.011,4.337C181.895,4.517 181.655,4.892 181.56,5.046C181.489,5.162 181.348,5.373 181.26,5.504L180.893,5.553C180.667,5.244 180.383,4.984 180.04,4.826C179.731,4.683 179.389,4.643 179.065,4.547C178.814,4.473 178.562,4.416 178.31,4.373C178.336,2.916 178.317,1.456 178.289,0Z" style="fill-opacity:0.22;"/>
        </g>
        <g transform="matrix(-0.481862,1.73979,-1.73979,-0.481862,421.99,-354.76)">
            <g transform="matrix(1,0,0,1,0.312757,8.86573)">
                <path d="M239.821,23.635C239.821,22.683 239.048,21.909 238.096,21.909L234.524,21.909C233.572,21.909 232.799,22.683 232.799,23.635L232.799,27.086C232.799,28.038 233.572,28.811 234.524,28.811L238.096,28.811C239.048,28.811 239.821,28.038 239.821,27.086L239.821,23.635Z"/>
            </g>
            <g transform="matrix(0.592032,0,0,0.592032,96.7196,24.0748)">
                <path d="M239.821,23.635C239.821,22.683 239.048,21.909 238.096,21.909L234.524,21.909C233.572,21.909 232.799,22.683 232.799,23.635L232.799,27.086C232.799,28.038 233.572,28.811 234.524,28.811L238.096,28.811C239.048,28.811 239.821,28.038 239.821,27.086L239.821,23.635Z"/>
            </g>
            <g transform="matrix(-0.13445,-0.485438,0.485438,-0.13445,256.604,155.373)">
                <path d="M240.737,31.631L239.05,38.869C238.999,39.085 239.038,39.312 239.156,39.499L240.836,42.157C240.928,42.303 241.063,42.416 241.222,42.481L243.65,43.472C244.073,43.644 244.556,43.441 244.729,43.018C244.901,42.596 244.698,42.112 244.275,41.94L242.093,41.05C242.093,41.05 240.739,38.908 240.739,38.908C240.739,38.908 242.348,32.006 242.348,32.006C242.451,31.562 242.175,31.117 241.73,31.013C241.285,30.909 240.84,31.186 240.737,31.631ZM244.263,32.601L243.061,37.583C242.991,37.877 243.085,38.185 243.308,38.389L248.284,42.92C248.483,43.102 248.759,43.175 249.022,43.116L251.761,42.501C252.206,42.401 252.487,41.958 252.387,41.513C252.287,41.067 251.844,40.787 251.399,40.887L249.08,41.407C249.08,41.407 244.784,37.495 244.784,37.495C244.784,37.495 245.871,32.989 245.871,32.989C245.978,32.545 245.705,32.098 245.261,31.991C244.817,31.884 244.37,32.157 244.263,32.601ZM238.221,30.231L235.526,35.057C235.482,35.136 235.451,35.221 235.435,35.31L234.784,38.812C234.754,38.977 234.774,39.147 234.842,39.299L235.962,41.818C236.147,42.235 236.637,42.423 237.054,42.238C237.471,42.052 237.659,41.563 237.474,41.146L236.458,38.862C236.458,38.862 237.036,35.745 237.036,35.745C237.036,35.745 239.666,31.038 239.666,31.038C239.888,30.64 239.746,30.135 239.347,29.913C238.948,29.69 238.444,29.833 238.221,30.231ZM235.599,29.363L232.474,33.196C232.402,33.285 232.348,33.388 232.318,33.498L231.612,36.047C231.592,36.12 231.581,36.196 231.582,36.272L231.589,38.086C231.591,38.542 231.964,38.911 232.42,38.909C232.877,38.907 233.246,38.535 233.244,38.079L233.237,36.379C233.237,36.379 233.866,34.107 233.866,34.107C233.866,34.107 236.881,30.409 236.881,30.409C237.17,30.055 237.117,29.534 236.763,29.245C236.409,28.957 235.888,29.01 235.599,29.363ZM247.407,21.25L248.939,16.36C249.03,16.072 249.27,15.856 249.566,15.796L256.164,14.47C256.428,14.417 256.702,14.496 256.897,14.682L258.929,16.618C259.26,16.933 259.273,17.457 258.958,17.788C258.643,18.118 258.119,18.131 257.788,17.816L256.068,16.177C256.068,16.177 250.372,17.322 250.372,17.322C250.372,17.322 248.986,21.745 248.986,21.745C248.849,22.181 248.385,22.424 247.949,22.287C247.513,22.151 247.27,21.686 247.407,21.25ZM243.884,20.268L246.161,13.193C246.229,12.982 246.378,12.808 246.576,12.708L249.384,11.292C249.538,11.215 249.712,11.187 249.883,11.213L252.474,11.613C252.925,11.683 253.235,12.106 253.165,12.557C253.096,13.008 252.673,13.318 252.222,13.248L249.892,12.889C249.892,12.889 247.63,14.029 247.63,14.029C247.63,14.029 245.459,20.775 245.459,20.775C245.319,21.209 244.852,21.449 244.418,21.309C243.983,21.169 243.744,20.702 243.884,20.268ZM241.007,20.174L241.178,14.649C241.181,14.559 241.199,14.47 241.23,14.386L242.474,11.048C242.532,10.891 242.637,10.755 242.774,10.659L245.03,9.076C245.404,8.814 245.92,8.904 246.183,9.278C246.445,9.652 246.354,10.168 245.981,10.43L243.935,11.866C243.934,11.866 242.828,14.836 242.828,14.836C242.828,14.836 242.661,20.225 242.661,20.225C242.646,20.682 242.264,21.041 241.808,21.026C241.352,21.012 240.993,20.63 241.007,20.174ZM238.312,19.569L237.604,14.675C237.587,14.562 237.595,14.446 237.625,14.336L238.331,11.786C238.351,11.713 238.382,11.643 238.421,11.579L239.361,10.027C239.597,9.636 240.106,9.511 240.497,9.748C240.887,9.985 241.012,10.494 240.776,10.884L239.895,12.338C239.895,12.338 239.266,14.61 239.266,14.61C239.266,14.61 239.949,19.332 239.949,19.332C240.015,19.784 239.701,20.204 239.249,20.27C238.797,20.335 238.377,20.021 238.312,19.569Z"/>
            </g>
            <g transform="matrix(1,0,0,-1,0,61.3654)">
                <path d="M234.181,26.493L234.181,27.041C234.181,27.329 234.415,27.562 234.703,27.562L238.543,27.562C238.831,27.562 239.064,27.329 239.064,27.041L239.064,26.493C239.064,26.781 238.831,27.015 238.543,27.015L234.703,27.015C234.415,27.015 234.181,26.781 234.181,26.493Z" style="fill:#861f1c;"/>
            </g>
            <g transform="matrix(1.15663,0,0,-1.15663,-37.0624,63.8874)">
                <path d="M234.181,26.493L234.181,27.041C234.181,27.329 234.415,27.562 234.703,27.562L238.543,27.562C238.831,27.562 239.064,27.329 239.064,27.041L239.064,26.493C239.064,26.781 238.831,27.015 238.543,27.015L234.703,27.015C234.415,27.015 234.181,26.781 234.181,26.493Z" style="fill:#861f1c;"/>
            </g>
        </g>
        <g transform="matrix(-1.0026,1.55131,1.55131,1.0026,213.457,-364.273)">
            <g transform="matrix(1,0,0,1,0.312757,8.86573)">
                <path d="M239.821,23.635C239.821,22.683 239.048,21.909 238.096,21.909L234.524,21.909C233.572,21.909 232.799,22.683 232.799,23.635L232.799,27.086C232.799,28.038 233.572,28.811 234.524,28.811L238.096,28.811C239.048,28.811 239.821,28.038 239.821,27.086L239.821,23.635Z"/>
            </g>
            <g transform="matrix(0.592032,0,0,0.592032,96.7196,24.0748)">
                <path d="M239.821,23.635C239.821,22.683 239.048,21.909 238.096,21.909L234.524,21.909C233.572,21.909 232.799,22.683 232.799,23.635L232.799,27.086C232.799,28.038 233.572,28.811 234.524,28.811L238.096,28.811C239.048,28.811 239.821,28.038 239.821,27.086L239.821,23.635Z"/>
            </g>
            <g transform="matrix(1,0,0,1,0.0176088,8.75)">
                <path d="M239.165,28.307L241.445,29.309C241.498,29.332 241.555,29.344 241.613,29.344L242.945,29.344C242.984,29.344 243.022,29.338 243.058,29.328L243.938,29.08C244.159,29.018 244.288,28.788 244.226,28.567C244.164,28.345 243.933,28.216 243.712,28.278L242.888,28.51C242.888,28.51 241.7,28.51 241.7,28.51C241.7,28.51 239.5,27.544 239.5,27.544C239.289,27.451 239.043,27.547 238.951,27.758C238.858,27.968 238.954,28.214 239.165,28.307ZM239.233,26.917L241.939,27.577C241.983,27.588 242.028,27.591 242.073,27.587L243.861,27.432C243.945,27.425 244.025,27.392 244.09,27.339L245.162,26.456C245.339,26.31 245.365,26.047 245.219,25.87C245.073,25.692 244.81,25.667 244.632,25.813L243.66,26.613C243.66,26.613 242.07,26.751 242.07,26.751C242.07,26.751 239.431,26.108 239.431,26.108C239.208,26.053 238.982,26.19 238.927,26.414C238.873,26.637 239.01,26.863 239.233,26.917ZM239.575,25.508L243.315,25.354C243.427,25.349 243.532,25.3 243.607,25.217L244.671,24.045C244.73,23.98 244.766,23.899 244.777,23.813L244.931,22.502C244.958,22.273 244.794,22.066 244.566,22.039C244.337,22.012 244.13,22.176 244.103,22.404L243.965,23.583C243.965,23.583 243.107,24.528 243.107,24.528C243.107,24.528 239.54,24.675 239.54,24.675C239.311,24.685 239.132,24.879 239.141,25.109C239.151,25.339 239.345,25.517 239.575,25.508ZM239.571,23.666L242.152,23.579C242.304,23.574 242.441,23.487 242.509,23.351L244.04,20.326C244.102,20.205 244.1,20.062 244.036,19.942L243.369,18.695C243.261,18.492 243.008,18.416 242.805,18.524C242.603,18.632 242.526,18.885 242.634,19.088L243.199,20.143C243.199,20.144 241.877,22.755 241.877,22.755C241.877,22.755 239.544,22.833 239.544,22.833C239.314,22.84 239.133,23.033 239.141,23.263C239.149,23.493 239.342,23.673 239.571,23.666Z"/>
            </g>
            <g transform="matrix(-1,0,0,1,473.228,8.75)">
                <path d="M239.165,28.307L241.445,29.309C241.498,29.332 241.555,29.344 241.613,29.344L242.945,29.344C242.984,29.344 243.022,29.338 243.058,29.328L243.938,29.08C244.159,29.018 244.288,28.788 244.226,28.567C244.164,28.345 243.933,28.216 243.712,28.278L242.888,28.51C242.888,28.51 241.7,28.51 241.7,28.51C241.7,28.51 239.5,27.544 239.5,27.544C239.289,27.451 239.043,27.547 238.951,27.758C238.858,27.968 238.954,28.214 239.165,28.307ZM239.233,26.917L241.939,27.577C241.983,27.588 242.028,27.591 242.073,27.587L243.861,27.432C243.945,27.425 244.025,27.392 244.09,27.339L245.162,26.456C245.339,26.31 245.365,26.047 245.219,25.87C245.073,25.692 244.81,25.667 244.632,25.813L243.66,26.613C243.66,26.613 242.07,26.751 242.07,26.751C242.07,26.751 239.431,26.108 239.431,26.108C239.208,26.053 238.982,26.19 238.927,26.414C238.873,26.637 239.01,26.863 239.233,26.917ZM239.575,25.508L243.315,25.354C243.427,25.349 243.532,25.3 243.607,25.217L244.671,24.045C244.73,23.98 244.766,23.899 244.777,23.813L244.931,22.502C244.958,22.273 244.794,22.066 244.566,22.039C244.337,22.012 244.13,22.176 244.103,22.404L243.965,23.583C243.965,23.583 243.107,24.528 243.107,24.528C243.107,24.528 239.54,24.675 239.54,24.675C239.311,24.685 239.132,24.879 239.141,25.109C239.151,25.339 239.345,25.517 239.575,25.508ZM239.571,23.666L242.152,23.579C242.304,23.574 242.441,23.487 242.509,23.351L244.04,20.326C244.102,20.205 244.1,20.062 244.036,19.942L243.369,18.695C243.261,18.492 243.008,18.416 242.805,18.524C242.603,18.632 242.526,18.885 242.634,19.088L243.199,20.143C243.199,20.144 241.877,22.755 241.877,22.755C241.877,22.755 239.544,22.833 239.544,22.833C239.314,22.84 239.133,23.033 239.141,23.263C239.149,23.493 239.342,23.673 239.571,23.666Z"/>
            </g>
            <g transform="matrix(1,0,0,-1,0,61.3654)">
                <path d="M234.181,26.493L234.181,27.041C234.181,27.329 234.415,27.562 234.703,27.562L238.543,27.562C238.831,27.562 239.064,27.329 239.064,27.041L239.064,26.493C239.064,26.781 238.831,27.015 238.543,27.015L234.703,27.015C234.415,27.015 234.181,26.781 234.181,26.493Z" style="fill:#861f1c;"/>
            </g>
            <g transform="matrix(1.15663,0,0,-1.15663,-37.0624,63.8874)">
                <path d="M234.181,26.493L234.181,27.041C234.181,27.329 234.415,27.562 234.703,27.562L238.543,27.562C238.831,27.562 239.064,27.329 239.064,27.041L239.064,26.493C239.064,26.781 238.831,27.015 238.543,27.015L234.703,27.015C234.415,27.015 234.181,26.781 234.181,26.493Z" style="fill:#861f1c;"/>
            </g>
        </g>
        <g transform="matrix(1,0,0,1,0,8.75)">
            <path d="M177.489,0L176.239,0L176.239,6.496C176.239,6.841 176.519,7.121 176.864,7.121C177.209,7.121 177.489,6.841 177.489,6.496L177.489,0Z" style="fill:#fff;"/>
        </g>
        <g transform="matrix(1,0,0,1,-59.7586,-16.191)">
            <g transform="matrix(1,0,0,1,0.312757,8.86573)">
                <path d="M239.821,23.635C239.821,22.683 239.048,21.909 238.096,21.909L234.524,21.909C233.572,21.909 232.799,22.683 232.799,23.635L232.799,27.086C232.799,28.038 233.572,28.811 234.524,28.811L238.096,28.811C239.048,28.811 239.821,28.038 239.821,27.086L239.821,23.635Z" style="fill:#1c1c1c;"/>
            </g>
            <g transform="matrix(0.592032,0,0,0.592032,96.7196,24.0748)">
                <path d="M239.821,23.635C239.821,22.683 239.048,21.909 238.096,21.909L234.524,21.909C233.572,21.909 232.799,22.683 232.799,23.635L232.799,27.086C232.799,28.038 233.572,28.811 234.524,28.811L238.096,28.811C239.048,28.811 239.821,28.038 239.821,27.086L239.821,23.635Z" style="fill:#1c1c1c;"/>
            </g>
            <g transform="matrix(1,0,0,1,0.0176088,8.75)">
                <path d="M239.165,28.307L241.445,29.309C241.498,29.332 241.555,29.344 241.613,29.344L242.945,29.344C242.984,29.344 243.022,29.338 243.058,29.328L243.938,29.08C244.159,29.018 244.288,28.788 244.226,28.567C244.164,28.345 243.933,28.216 243.712,28.278L242.888,28.51C242.888,28.51 241.7,28.51 241.7,28.51C241.7,28.51 239.5,27.544 239.5,27.544C239.289,27.451 239.043,27.547 238.951,27.758C238.858,27.968 238.954,28.214 239.165,28.307ZM239.233,26.917L241.939,27.577C241.983,27.588 242.028,27.591 242.073,27.587L243.861,27.432C243.945,27.425 244.025,27.392 244.09,27.339L245.162,26.456C245.339,26.31 245.365,26.047 245.219,25.87C245.073,25.692 244.81,25.667 244.632,25.813L243.66,26.613C243.66,26.613 242.07,26.751 242.07,26.751C242.07,26.751 239.431,26.108 239.431,26.108C239.208,26.053 238.982,26.19 238.927,26.414C238.873,26.637 239.01,26.863 239.233,26.917ZM239.575,25.508L243.315,25.354C243.427,25.349 243.532,25.3 243.607,25.217L244.671,24.045C244.73,23.98 244.766,23.899 244.777,23.813L244.931,22.502C244.958,22.273 244.794,22.066 244.566,22.039C244.337,22.012 244.13,22.176 244.103,22.404L243.965,23.583C243.965,23.583 243.107,24.528 243.107,24.528C243.107,24.528 239.54,24.675 239.54,24.675C239.311,24.685 239.132,24.879 239.141,25.109C239.151,25.339 239.345,25.517 239.575,25.508ZM239.571,23.666L242.152,23.579C242.304,23.574 242.441,23.487 242.509,23.351L244.04,20.326C244.102,20.205 244.1,20.062 244.036,19.942L243.369,18.695C243.261,18.492 243.008,18.416 242.805,18.524C242.603,18.632 242.526,18.885 242.634,19.088L243.199,20.143C243.199,20.144 241.877,22.755 241.877,22.755C241.877,22.755 239.544,22.833 239.544,22.833C239.314,22.84 239.133,23.033 239.141,23.263C239.149,23.493 239.342,23.673 239.571,23.666Z" style="fill:#1c1c1c;"/>
            </g>
            <g transform="matrix(-1,0,0,1,473.228,8.75)">
                <path d="M239.165,28.307L241.445,29.309C241.498,29.332 241.555,29.344 241.613,29.344L242.945,29.344C242.984,29.344 243.022,29.338 243.058,29.328L243.938,29.08C244.159,29.018 244.288,28.788 244.226,28.567C244.164,28.345 243.933,28.216 243.712,28.278L242.888,28.51C242.888,28.51 241.7,28.51 241.7,28.51C241.7,28.51 239.5,27.544 239.5,27.544C239.289,27.451 239.043,27.547 238.951,27.758C238.858,27.968 238.954,28.214 239.165,28.307ZM239.233,26.917L241.939,27.577C241.983,27.588 242.028,27.591 242.073,27.587L243.861,27.432C243.945,27.425 244.025,27.392 244.09,27.339L245.162,26.456C245.339,26.31 245.365,26.047 245.219,25.87C245.073,25.692 244.81,25.667 244.632,25.813L243.66,26.613C243.66,26.613 242.07,26.751 242.07,26.751C242.07,26.751 239.431,26.108 239.431,26.108C239.208,26.053 238.982,26.19 238.927,26.414C238.873,26.637 239.01,26.863 239.233,26.917ZM239.575,25.508L243.315,25.354C243.427,25.349 243.532,25.3 243.607,25.217L244.671,24.045C244.73,23.98 244.766,23.899 244.777,23.813L244.931,22.502C244.958,22.273 244.794,22.066 244.566,22.039C244.337,22.012 244.13,22.176 244.103,22.404L243.965,23.583C243.965,23.583 243.107,24.528 243.107,24.528C243.107,24.528 239.54,24.675 239.54,24.675C239.311,24.685 239.132,24.879 239.141,25.109C239.151,25.339 239.345,25.517 239.575,25.508ZM239.571,23.666L242.152,23.579C242.304,23.574 242.441,23.487 242.509,23.351L244.04,20.326C244.102,20.205 244.1,20.062 244.036,19.942L243.369,18.695C243.261,18.492 243.008,18.416 242.805,18.524C242.603,18.632 242.526,18.885 242.634,19.088L243.199,20.143C243.199,20.144 241.877,22.755 241.877,22.755C241.877,22.755 239.544,22.833 239.544,22.833C239.314,22.84 239.133,23.033 239.141,23.263C239.149,23.493 239.342,23.673 239.571,23.666Z" style="fill:#1c1c1c;"/>
            </g>
            <g transform="matrix(1,0,0,-1,0,61.3654)">
                <path d="M234.181,26.493L234.181,27.041C234.181,27.329 234.415,27.562 234.703,27.562L238.543,27.562C238.831,27.562 239.064,27.329 239.064,27.041L239.064,26.493C239.064,26.781 238.831,27.015 238.543,27.015L234.703,27.015C234.415,27.015 234.181,26.781 234.181,26.493Z" style="fill:#861f1c;"/>
            </g>
            <g transform="matrix(1.15663,0,0,-1.15663,-37.0624,63.8874)">
                <path d="M234.181,26.493L234.181,27.041C234.181,27.329 234.415,27.562 234.703,27.562L238.543,27.562C238.831,27.562 239.064,27.329 239.064,27.041L239.064,26.493C239.064,26.781 238.831,27.015 238.543,27.015L234.703,27.015C234.415,27.015 234.181,26.781 234.181,26.493Z" style="fill:#861f1c;"/>
            </g>
        </g>
    </g>
</svg>
