<?xml version="1.0" encoding="UTF-8" standalone="no"?>
<!DOCTYPE svg PUBLIC "-//W3C//DTD SVG 1.1//EN" "http://www.w3.org/Graphics/SVG/1.1/DTD/svg11.dtd">
<svg width="100%" height="100%" viewBox="0 0 280 62" version="1.1" xmlns="http://www.w3.org/2000/svg" xmlns:xlink="http://www.w3.org/1999/xlink" xml:space="preserve" xmlns:serif="http://www.serif.com/" style="fill-rule:evenodd;clip-rule:evenodd;stroke-linejoin:round;stroke-miterlimit:2;">
    <g id="banner_68" transform="matrix(1,0,0,1,0,-8.75)">
        <g>
            <g transform="matrix(-0.893232,-1.09389e-16,9.72803e-17,-0.794354,285.834,72.2983)">
                <path d="M320,41.415C320,20.12 304.625,2.83 285.686,2.83L40.845,2.83C21.907,2.83 6.532,20.12 6.532,41.415C6.532,62.711 21.907,80 40.845,80L285.686,80C304.625,80 320,62.711 320,41.415Z" style="fill:url(#_Linear1);"/>
            </g>
            <g transform="matrix(1,0,0,1,0,8.75)">
                <path d="M0.462,25.324C1.808,24.842 3.637,25.148 5.325,24.196C14.976,19.806 23.949,23.486 33.957,23.88C40.76,24.148 47.551,22.001 54.346,21.676C60.832,21.366 67.154,22.83 73.585,23.324C84.105,24.13 94.272,21.156 104.749,21.469C111.552,21.672 118.242,23.277 125.041,23.617C133.135,24.023 141.145,22.246 149.255,22.268C155.392,22.284 161.41,23.875 167.532,24.196C173.321,24.5 178.923,23.573 184.673,23.219C192.503,22.736 199.86,24.803 207.596,24.684C213.468,24.594 219.118,22.197 225.024,23.34C230.671,24.432 236.712,19.27 236.518,26.649C236.365,32.507 227.38,31.485 224.019,30.603C219.101,29.314 214.221,30.078 209.231,29.391C200.332,28.165 192.366,25.7 183.222,26.68C176.666,27.383 170.28,29.625 163.639,29.339C156.076,29.013 148.873,26.216 141.295,26.169C134.319,26.126 127.76,29.541 120.783,29.529C115.236,29.52 109.647,27.545 104.071,27.213C95.771,26.719 87.728,28.799 79.431,28.901C72.91,28.981 66.61,27.083 59.974,27.437C51.327,27.899 42.82,29.677 34.177,30.176C27.301,30.574 20.377,29.714 13.49,29.602C9.872,29.544 6.35,29.766 2.756,30.089C2.119,30.146 0.961,30.513 0,30.632C0.001,28.823 0.159,27.05 0.462,25.324ZM12.363,6.058C19.523,5.171 26.528,7.367 34.131,7.666C40.935,7.934 47.725,5.787 54.521,5.462C61.007,5.152 67.328,6.616 73.76,7.11C84.279,7.917 94.446,4.942 104.923,5.255C111.726,5.458 118.416,7.063 125.216,7.404C133.309,7.809 141.319,6.032 149.429,6.054C155.567,6.07 161.584,7.661 167.707,7.982C173.495,8.286 179.097,7.36 184.847,7.005C192.677,6.523 200.035,8.589 207.771,8.47C213.642,8.38 219.292,5.984 225.199,7.126C230.845,8.218 236.838,7.538 236.644,14.917C236.491,20.775 227.506,19.753 224.145,18.872C219.227,17.582 214.347,18.346 209.357,17.659C200.459,16.434 192.492,13.968 183.348,14.948C176.792,15.651 170.406,17.894 163.765,17.607C156.202,17.282 148.999,14.484 141.421,14.437C134.445,14.394 127.886,17.809 120.909,17.797C115.362,17.788 109.773,15.813 104.197,15.481C95.898,14.987 87.854,17.068 79.557,17.169C73.036,17.249 66.736,15.351 60.1,15.705C51.453,16.167 42.946,17.945 34.303,18.445C27.427,18.842 20.503,17.982 13.616,17.871C9.998,17.812 6.476,18.034 2.882,18.357C2.783,18.366 2.67,18.383 2.548,18.405C4.699,13.481 8.106,9.229 12.363,6.058Z" style="fill:#2d4700;"/>
            </g>
            <g transform="matrix(1,0,0,1,0,8.75)">
                <path d="M12.472,55.323C18.878,56.176 26.198,53.629 32.282,53.038C40.184,52.271 47.8,54.63 55.683,54.787C62.846,54.93 69.847,52.835 76.899,51.859C88.613,50.236 100.631,53.731 112.401,53.669C119.801,53.63 126.982,51.721 134.47,51.868C142.553,52.028 150.478,54.105 158.595,53.627C166.932,53.135 175.045,50.522 183.41,50.388C191.195,50.264 198.713,52.396 206.427,52.725C212.744,52.995 218.824,51.596 225.042,50.81C227.635,50.482 236.977,48.425 237.032,53.989C237.057,56.558 233.449,57.194 231.565,57.398C225.513,58.055 212.132,59.281 206.113,58.934C197.296,58.426 190.367,55.662 182.89,55.355C177.503,55.134 161.834,58.055 156.433,58.071C149.526,58.091 142.8,56.164 135.906,55.866C127.714,55.511 120.253,57.497 112.209,57.853C104.542,58.192 97.148,55.581 89.493,55.756C80.775,55.955 72.204,57.864 63.51,58.407C54.606,58.964 46.341,58.11 37.544,57.046C31.359,56.297 25,58.159 18.871,58.951C16.584,57.997 14.438,56.774 12.472,55.323ZM4.061,45.898C5.148,47.788 6.431,49.551 7.882,51.161C10.671,51.521 13.494,51.851 16.206,51.702C22.745,51.342 28.91,49.418 35.569,49.462C43.373,49.513 50.923,51.773 58.788,51.161C66.693,50.545 74.241,48.116 82.2,47.811C90.648,47.486 98.854,50.296 107.326,50.28C115.88,50.264 124.119,47.74 132.601,47.057C139.607,46.494 146.652,48.995 153.662,48.849C160.359,48.711 166.604,46.116 173.229,45.455C182.283,44.552 191.009,46.581 199.841,48.277C204.614,49.194 209.565,50.53 214.466,49.985C217.383,49.661 220.275,49.01 223.131,48.345C225.356,47.827 227.2,48.079 227.159,45.372C227.127,43.225 225.726,43.499 223.666,43.426C220.75,43.324 217.815,43.441 214.897,43.447C208.351,43.46 202.547,41.292 196.236,39.97C189.738,38.609 182.955,38.095 176.35,38.82C167.828,39.755 158.971,41.944 150.365,41.656C144.235,41.451 138.331,38.929 132.169,39.113C123.58,39.37 115.464,42.708 106.711,42.25C99.312,41.864 91.075,39.755 83.565,39.785C74.779,39.819 67.911,41.676 59.278,43.155C51.633,44.465 45.331,43.226 37.821,41.874C28.797,40.249 20.503,42.283 11.709,44.333C9.99,44.734 8.27,45.139 6.54,45.487C5.731,45.65 4.918,45.791 4.099,45.895C4.091,45.896 4.079,45.897 4.061,45.898Z" style="fill:#121e00;"/>
            </g>
        </g>
        <g>
            <g transform="matrix(-0.781852,-9.57493e-17,9.72803e-17,-0.794354,285.107,72.2983)">
                <path d="M320,41.415C320,20.12 302.434,2.83 280.798,2.83L45.733,2.83C24.097,2.83 6.532,20.12 6.532,41.415C6.532,62.711 24.097,80 45.733,80L280.798,80C302.434,80 320,62.711 320,41.415Z" style="fill:#2d4700;"/>
            </g>
            <g transform="matrix(1,0,0,1,-183.398,0)">
                <g transform="matrix(-0.196792,-2.41001e-17,9.72803e-17,-0.794354,281.285,72.2983)">
                    <path d="M320,41.415C320,20.12 250.212,2.83 164.252,2.83L162.28,2.83C76.32,2.83 6.532,20.12 6.532,41.415C6.532,62.711 76.32,80 162.28,80L164.252,80C250.212,80 320,62.711 320,41.415Z" style="fill:#2d4700;"/>
                </g>
                <g transform="matrix(-0.17188,-2.10492e-17,8.38295e-17,-0.68452,277.592,67.738)">
                    <path d="M320,41.415C320,20.12 251.145,2.83 166.334,2.83L160.198,2.83C75.387,2.83 6.532,20.12 6.532,41.415C6.532,62.711 75.387,80 160.198,80L166.334,80C251.145,80 320,62.711 320,41.415Z" style="fill:#e1dad6;"/>
                </g>
                <g>
                    <g transform="matrix(1,0,0,1,-1.66855,9.21339)">
                        <path d="M269.842,29.233C268.507,28.839 267.736,27.855 267.483,26.52C267.283,25.465 267.343,24.327 268.729,24.583C270.068,24.831 271.258,26.045 271.66,27.323C272.007,28.43 271.277,29.656 269.842,29.233Z" style="fill:#e1dad6;"/>
                    </g>
                    <g transform="matrix(0.750789,-0.660542,0.660542,0.750789,46.4859,196.273)">
                        <path d="M269.842,29.233C268.507,28.839 267.736,27.855 267.483,26.52C267.283,25.465 267.343,24.327 268.729,24.583C270.068,24.831 271.258,26.045 271.66,27.323C272.007,28.43 271.277,29.656 269.842,29.233Z" style="fill:#e1dad6;"/>
                    </g>
                    <g transform="matrix(0.389328,-0.921099,0.921099,0.389328,137.315,278.085)">
                        <path d="M269.842,29.233C268.507,28.839 267.736,27.855 267.483,26.52C267.283,25.465 267.343,24.327 268.729,24.583C270.068,24.831 271.258,26.045 271.66,27.323C272.007,28.43 271.277,29.656 269.842,29.233Z" style="fill:#e1dad6;"/>
                    </g>
                    <g transform="matrix(0.819443,0.57316,-0.57316,0.819443,43.8378,-116.747)">
                        <path d="M269.842,29.233C268.507,28.839 267.736,27.855 267.483,26.52C267.283,25.465 267.343,24.327 268.729,24.583C270.068,24.831 271.258,26.045 271.66,27.323C272.007,28.43 271.277,29.656 269.842,29.233Z" style="fill:#e1dad6;"/>
                    </g>
                    <g transform="matrix(0.407128,0.913371,-0.913371,0.407128,166.571,-197.772)">
                        <path d="M269.842,29.233C268.507,28.839 267.736,27.855 267.483,26.52C267.283,25.465 267.343,24.327 268.729,24.583C270.068,24.831 271.258,26.045 271.66,27.323C272.007,28.43 271.277,29.656 269.842,29.233Z" style="fill:#e1dad6;"/>
                    </g>
                    <g transform="matrix(0.407128,0.913371,-0.913371,0.407128,169.017,-196.93)">
                        <path d="M269.842,29.233C268.507,28.839 267.736,27.855 267.483,26.52C267.283,25.465 267.343,24.327 268.729,24.583C270.068,24.831 271.258,26.045 271.66,27.323C272.007,28.43 271.277,29.656 269.842,29.233Z" style="fill:#e1dad6;"/>
                    </g>
                    <g transform="matrix(0.956409,0.292031,-0.292031,0.956409,10.8647,-45.6108)">
                        <path d="M269.842,29.233C268.507,28.839 267.736,27.855 267.483,26.52C267.283,25.465 267.343,24.327 268.729,24.583C270.068,24.831 271.258,26.045 271.66,27.323C272.007,28.43 271.277,29.656 269.842,29.233Z" style="fill:#e1dad6;"/>
                    </g>
                    <g transform="matrix(0.655792,0.754941,-0.754941,0.655792,106.771,-163.203)">
                        <path d="M269.842,29.233C268.507,28.839 267.736,27.855 267.483,26.52C267.283,25.465 267.343,24.327 268.729,24.583C270.068,24.831 271.258,26.045 271.66,27.323C272.007,28.43 271.277,29.656 269.842,29.233Z" style="fill:#e1dad6;"/>
                    </g>
                    <g transform="matrix(-0.0643149,0.99793,-0.99793,-0.0643149,274.175,-221.203)">
                        <path d="M269.842,29.233C268.507,28.839 267.736,27.855 267.483,26.52C267.283,25.465 267.343,24.327 268.729,24.583C270.068,24.831 271.258,26.045 271.66,27.323C272.007,28.43 271.277,29.656 269.842,29.233Z" style="fill:#e1dad6;"/>
                    </g>
                    <g transform="matrix(0.14599,0.989286,-0.989286,0.14599,216.503,-227.806)">
                        <path d="M269.842,29.233C268.507,28.839 267.736,27.855 267.483,26.52C267.283,25.465 267.343,24.327 268.729,24.583C270.068,24.831 271.258,26.045 271.66,27.323C272.007,28.43 271.277,29.656 269.842,29.233Z" style="fill:#e1dad6;"/>
                    </g>
                    <g transform="matrix(0.14599,0.989286,-0.989286,0.14599,214.84,-229.716)">
                        <path d="M269.842,29.233C268.507,28.839 267.736,27.855 267.483,26.52C267.283,25.465 267.343,24.327 268.729,24.583C270.068,24.831 271.258,26.045 271.66,27.323C272.007,28.43 271.277,29.656 269.842,29.233Z" style="fill:#e1dad6;"/>
                    </g>
                    <g transform="matrix(-0.744573,0.667542,-0.667542,-0.744573,447.793,-111.444)">
                        <path d="M269.842,29.233C268.507,28.839 267.736,27.855 267.483,26.52C267.283,25.465 267.343,24.327 268.729,24.583C270.068,24.831 271.258,26.045 271.66,27.323C272.007,28.43 271.277,29.656 269.842,29.233Z" style="fill:#e1dad6;"/>
                    </g>
                    <g transform="matrix(-0.851422,-0.524481,0.524481,-0.851422,471.42,183.589)">
                        <path d="M269.842,29.233C268.507,28.839 267.736,27.855 267.483,26.52C267.283,25.465 267.343,24.327 268.729,24.583C270.068,24.831 271.258,26.045 271.66,27.323C272.007,28.43 271.277,29.656 269.842,29.233Z" style="fill:#e1dad6;"/>
                    </g>
                    <g transform="matrix(-0.993693,0.112136,-0.112136,-0.993693,529.526,15.9084)">
                        <path d="M269.842,29.233C268.507,28.839 267.736,27.855 267.483,26.52C267.283,25.465 267.343,24.327 268.729,24.583C270.068,24.831 271.258,26.045 271.66,27.323C272.007,28.43 271.277,29.656 269.842,29.233Z" style="fill:#e1dad6;"/>
                    </g>
                    <g transform="matrix(-0.193055,0.981188,-0.981188,-0.193055,350.633,-233.197)">
                        <path d="M269.842,29.233C268.507,28.839 267.736,27.855 267.483,26.52C267.283,25.465 267.343,24.327 268.729,24.583C270.068,24.831 271.258,26.045 271.66,27.323C272.007,28.43 271.277,29.656 269.842,29.233Z" style="fill:#e1dad6;"/>
                    </g>
                    <g transform="matrix(-0.628049,0.778174,-0.778174,-0.628049,462.846,-164.45)">
                        <path d="M269.842,29.233C268.507,28.839 267.736,27.855 267.483,26.52C267.283,25.465 267.343,24.327 268.729,24.583C270.068,24.831 271.258,26.045 271.66,27.323C272.007,28.43 271.277,29.656 269.842,29.233Z" style="fill:#e1dad6;"/>
                    </g>
                    <g transform="matrix(-0.931809,0.36295,-0.36295,-0.931809,534.579,-22.2102)">
                        <path d="M269.842,29.233C268.507,28.839 267.736,27.855 267.483,26.52C267.283,25.465 267.343,24.327 268.729,24.583C270.068,24.831 271.258,26.045 271.66,27.323C272.007,28.43 271.277,29.656 269.842,29.233Z" style="fill:#e1dad6;"/>
                    </g>
                    <g transform="matrix(-0.931809,0.36295,-0.36295,-0.931809,532.5,-20.2128)">
                        <path d="M269.842,29.233C268.507,28.839 267.736,27.855 267.483,26.52C267.283,25.465 267.343,24.327 268.729,24.583C270.068,24.831 271.258,26.045 271.66,27.323C272.007,28.43 271.277,29.656 269.842,29.233Z" style="fill:#e1dad6;"/>
                    </g>
                    <g transform="matrix(-0.886882,-0.461997,0.461997,-0.886882,464.014,210.44)">
                        <path d="M269.842,29.233C268.507,28.839 267.736,27.855 267.483,26.52C267.283,25.465 267.343,24.327 268.729,24.583C270.068,24.831 271.258,26.045 271.66,27.323C272.007,28.43 271.277,29.656 269.842,29.233Z" style="fill:#e1dad6;"/>
                    </g>
                    <g transform="matrix(-0.448537,-0.893764,0.893764,-0.448537,332.416,313.849)">
                        <path d="M269.842,29.233C268.507,28.839 267.736,27.855 267.483,26.52C267.283,25.465 267.343,24.327 268.729,24.583C270.068,24.831 271.258,26.045 271.66,27.323C272.007,28.43 271.277,29.656 269.842,29.233Z" style="fill:#e1dad6;"/>
                    </g>
                </g>
            </g>
        </g>
        <g>
            <g transform="matrix(-0.75656,-9.26518e-17,9.72803e-17,-0.794354,284.942,72.2983)">
                <path d="M320,41.415C320,20.12 301.847,2.83 279.488,2.83L47.044,2.83C24.685,2.83 6.532,20.12 6.532,41.415C6.532,62.711 24.685,80 47.044,80L279.488,80C301.847,80 320,62.711 320,41.415Z" style="fill:url(#_Linear2);"/>
            </g>
            <g transform="matrix(1,0,0,1,0,8.75)">
                <path d="M43.792,23.058C47.31,22.501 50.828,21.844 54.346,21.676C60.832,21.366 67.154,22.83 73.585,23.324C84.105,24.13 94.272,21.156 104.749,21.469C111.552,21.672 118.242,23.277 125.041,23.617C133.135,24.023 141.145,22.246 149.255,22.268C155.392,22.284 161.41,23.875 167.532,24.196C173.321,24.5 178.923,23.573 184.673,23.219C192.503,22.736 199.86,24.803 207.596,24.684C213.468,24.594 219.118,22.197 225.024,23.34C230.671,24.432 236.712,19.27 236.518,26.649C236.365,32.507 227.38,31.485 224.019,30.603C219.101,29.314 214.221,30.078 209.231,29.391C200.332,28.165 192.366,25.7 183.222,26.68C176.666,27.383 170.28,29.625 163.639,29.339C156.076,29.013 148.873,26.216 141.295,26.169C134.319,26.126 127.76,29.541 120.783,29.529C115.236,29.52 109.647,27.545 104.071,27.213C95.771,26.719 87.728,28.799 79.431,28.901C72.91,28.981 66.61,27.083 59.974,27.437C54.238,27.744 48.564,28.629 42.87,29.336C42.961,27.179 43.276,25.079 43.792,23.058ZM56.094,5.42C62.032,5.383 67.849,6.656 73.76,7.11C84.279,7.917 94.446,4.942 104.923,5.255C111.726,5.458 118.416,7.063 125.216,7.404C133.309,7.809 141.319,6.032 149.429,6.054C155.567,6.07 161.584,7.661 167.707,7.982C173.495,8.286 179.097,7.36 184.847,7.005C192.677,6.523 200.035,8.589 207.771,8.47C213.642,8.38 219.292,5.984 225.199,7.126C230.845,8.218 236.838,7.538 236.644,14.917C236.491,20.775 227.506,19.753 224.145,18.872C219.227,17.582 214.347,18.346 209.357,17.659C200.459,16.434 192.492,13.968 183.348,14.948C176.792,15.651 170.406,17.894 163.765,17.607C156.202,17.282 148.999,14.484 141.421,14.437C134.445,14.394 127.886,17.809 120.909,17.797C115.362,17.788 109.773,15.813 104.197,15.481C95.898,14.987 87.854,17.068 79.557,17.169C73.036,17.249 66.736,15.351 60.1,15.705C55.351,15.959 50.644,16.61 45.935,17.227C48.257,12.473 51.774,8.406 56.094,5.42Z" style="fill:#2d4700;"/>
            </g>
            <g transform="matrix(1,0,0,1,0,8.75)">
                <path d="M54.563,54.75C54.936,54.767 55.309,54.78 55.683,54.787C62.846,54.93 69.847,52.835 76.899,51.859C88.613,50.236 100.631,53.731 112.401,53.669C119.801,53.63 126.982,51.721 134.47,51.868C142.553,52.028 150.478,54.105 158.595,53.627C166.932,53.135 175.045,50.522 183.41,50.388C191.195,50.264 198.713,52.396 206.427,52.725C212.744,52.995 218.824,51.596 225.042,50.81C227.635,50.482 236.977,48.425 237.032,53.989C237.057,56.558 233.449,57.194 231.565,57.398C225.513,58.055 212.132,59.281 206.113,58.934C197.296,58.426 190.367,55.662 182.89,55.355C177.503,55.134 161.834,58.055 156.433,58.071C149.526,58.091 142.8,56.164 135.906,55.866C127.714,55.511 120.253,57.497 112.209,57.853C104.542,58.192 97.148,55.581 89.493,55.756C80.775,55.955 72.204,57.864 63.51,58.407C62.588,58.465 61.674,58.508 60.764,58.536C58.542,57.519 56.463,56.245 54.563,54.75ZM45.511,43.167C46.791,46.022 48.495,48.646 50.544,50.958C53.269,51.235 56.009,51.377 58.788,51.161C66.693,50.545 74.241,48.116 82.2,47.811C90.648,47.486 98.854,50.296 107.326,50.28C115.88,50.264 124.119,47.74 132.601,47.057C139.607,46.494 146.652,48.995 153.662,48.849C160.359,48.711 166.604,46.116 173.229,45.455C182.283,44.552 191.009,46.581 199.841,48.277C204.614,49.194 209.565,50.53 214.466,49.985C217.383,49.661 220.275,49.01 223.131,48.345C225.356,47.827 227.2,48.079 227.159,45.372C227.127,43.225 225.726,43.499 223.666,43.426C220.75,43.324 217.815,43.441 214.897,43.447C208.351,43.46 202.547,41.292 196.236,39.97C189.738,38.609 182.955,38.095 176.35,38.82C167.828,39.755 158.971,41.944 150.365,41.656C144.235,41.451 138.331,38.929 132.169,39.113C123.58,39.37 115.464,42.708 106.711,42.25C99.312,41.864 91.075,39.755 83.565,39.785C74.779,39.819 67.911,41.676 59.278,43.155C54.36,43.998 49.997,43.786 45.511,43.167Z" style="fill:#121e00;"/>
            </g>
        </g>
        <g>
            <g transform="matrix(-0.196792,-2.41001e-17,9.72803e-17,-0.794354,281.285,72.2983)">
                <path d="M320,41.415C320,20.12 250.212,2.83 164.252,2.83L162.28,2.83C76.32,2.83 6.532,20.12 6.532,41.415C6.532,62.711 76.32,80 162.28,80L164.252,80C250.212,80 320,62.711 320,41.415Z" style="fill:#2d4700;"/>
            </g>
            <g transform="matrix(-0.17188,-2.10492e-17,8.38295e-17,-0.68452,277.592,67.738)">
                <path d="M320,41.415C320,20.12 251.145,2.83 166.334,2.83L160.198,2.83C75.387,2.83 6.532,20.12 6.532,41.415C6.532,62.711 75.387,80 160.198,80L166.334,80C251.145,80 320,62.711 320,41.415Z" style="fill:#e1dad6;"/>
            </g>
            <g>
                <g transform="matrix(1,0,0,1,0.404103,9.58708)">
                    <path d="M257.492,49.128C255.826,49.753 253.336,50.092 252.198,49.947C250.061,49.674 250.092,47.298 250.112,45.764C250.136,43.973 250.606,42.252 250.74,40.474C250.802,39.656 250.841,38.836 250.854,38.015C250.881,36.393 250.771,34.297 251.957,32.989C252.437,32.458 253.184,32.096 253.862,31.901C255.958,31.296 258.022,31.15 260.192,31.115C261.466,31.094 262.708,31.058 263.977,31.173C265.318,31.295 266.798,31.254 267.783,32.319C269.279,33.936 268.919,35.933 268.445,37.876C268.193,38.909 267.943,39.928 267.532,40.912C266.92,42.379 265.999,43.873 264.902,45.026C262.913,47.117 260.156,48.128 257.492,49.128Z" style="fill:#ed623c;"/>
                </g>
                <g transform="matrix(1,0,0,1,0,8.75)">
                    <path d="M255.131,50.605C254.193,50.656 253.127,50.12 253.122,49.086C253.114,47.514 253.947,46.01 254.184,44.46C254.614,41.648 254.12,38.879 254.981,36.104C255.41,34.722 256.225,33.375 257.8,33.206C258.567,33.123 259.354,33.186 260.124,33.165C262.259,33.108 264.248,33.189 266.325,33.594C267.071,33.739 267.989,33.87 268.534,34.459C270.181,36.24 269.025,38.978 268.269,40.865C267.694,42.3 267.046,43.835 266.044,45.03C263.313,48.288 259.442,49.972 255.288,50.391" style="fill:#ff7650;"/>
                </g>
                <g transform="matrix(1,0,0,1,0,8.75)">
                    <path d="M257.796,37.024C257.705,36.953 257.547,36.793 257.461,36.715C256.961,36.265 257.243,35.676 257.584,35.241C257.92,34.812 258.449,34.239 259.054,34.316C259.286,34.346 259.518,34.49 259.715,34.605C259.875,34.699 260.003,34.825 260.119,34.969C261.205,36.313 258.928,37.911 257.796,37.024Z" style="fill:#ed623c;"/>
                </g>
                <g transform="matrix(1,0,0,1,0,8.75)">
                    <path d="M261.615,36.268C261.309,36.166 261.17,35.872 261.183,35.613C261.203,35.183 261.675,34.517 262.172,34.674C262.323,34.722 262.502,34.785 262.605,34.912C262.994,35.389 262.358,36.515 261.615,36.268Z" style="fill:#ed623c;"/>
                </g>
                <g transform="matrix(1,0,0,1,0,8.75)">
                    <path d="M256.127,48.355C256.01,48.115 256.071,47.856 256.238,47.671C256.552,47.323 257.153,47.371 257.343,47.808C257.616,48.437 256.435,48.982 256.127,48.355Z" style="fill:#ed623c;"/>
                </g>
                <g transform="matrix(1,0,0,1,0.404103,9.58708)">
                    <path d="M257.711,49.713C260.463,48.681 263.301,47.617 265.355,45.457C266.503,44.251 267.468,42.688 268.109,41.153C268.532,40.138 268.793,39.088 269.052,38.024C269.575,35.878 269.894,33.681 268.242,31.895C267.656,31.261 266.928,30.945 266.141,30.781C265.457,30.638 264.728,30.614 264.034,30.551C262.742,30.434 261.479,30.469 260.182,30.49C257.956,30.526 255.839,30.68 253.689,31.3C252.906,31.526 252.049,31.956 251.493,32.569C250.817,33.316 250.494,34.282 250.352,35.298C250.224,36.214 250.243,37.17 250.229,38.005C250.216,38.813 250.177,39.621 250.117,40.427C249.982,42.218 249.511,43.952 249.488,45.756C249.477,46.582 249.473,47.633 249.75,48.515C250.077,49.56 250.757,50.393 252.119,50.567C253.321,50.72 255.952,50.373 257.711,49.713L257.711,49.713ZM257.272,48.543C255.699,49.133 253.352,49.464 252.277,49.327C251.502,49.228 251.129,48.737 250.943,48.142C250.706,47.385 250.728,46.481 250.737,45.772C250.761,43.995 251.23,42.286 251.363,40.521C251.426,39.691 251.465,38.859 251.479,38.026C251.492,37.238 251.47,36.335 251.59,35.471C251.696,34.707 251.911,33.97 252.42,33.408C252.826,32.96 253.463,32.666 254.035,32.501C256.077,31.912 258.088,31.774 260.203,31.74C261.454,31.72 262.674,31.683 263.921,31.796C264.567,31.854 265.248,31.871 265.886,32.004C266.421,32.116 266.925,32.312 267.324,32.744C268.663,34.191 268.262,35.988 267.838,37.728C267.594,38.729 267.353,39.718 266.955,40.671C266.372,42.07 265.495,43.496 264.449,44.596C262.526,46.617 259.849,47.576 257.272,48.543L257.272,48.543Z" style="fill:#c71e17;"/>
                </g>
            </g>
            <g transform="matrix(0.902831,-0.0966692,0.0966692,0.902831,21.2828,28.5969)">
                <g transform="matrix(1,0,0,1,0,8.75)">
                    <path d="M253.238,15.901C253.536,15.44 254.137,14.881 254.234,14.555C254.303,14.319 254.394,14.088 254.54,13.89C254.785,13.559 255.09,13.229 255.411,12.972C256.18,12.356 257.444,12.136 258.396,12.17C259.335,12.203 260.167,12.38 261.04,12.716C262.128,13.135 263.209,13.566 264.344,13.843C264.941,13.989 265.562,13.969 266.162,14.092C267.199,14.305 268.11,14.933 268.583,15.897C268.958,16.662 269.256,17.6 269.261,18.455C269.265,19.26 269.064,20.052 268.974,20.848C268.863,21.843 268.819,22.858 268.788,23.858C268.738,25.425 268.835,26.985 268.478,28.522C268.299,29.292 268.141,29.952 267.496,30.487C266.225,31.543 264.151,31.567 262.578,31.692C261.771,31.756 260.978,31.89 260.167,31.912C259.131,31.94 258.065,31.951 257.036,31.82C254.052,31.438 250.495,29.54 250.173,26.263C250.136,25.886 250.12,25.424 250.287,25.072C250.705,24.195 251.634,23.693 251.831,22.703C252.105,21.329 251.187,19.962 251.671,18.599C252.021,17.615 252.533,16.995 253.238,15.901Z" style="fill:#74bc00;"/>
                </g>
                <g transform="matrix(1,0,0,1,0,8.75)">
                    <path d="M252.713,15.562C251.975,16.706 251.448,17.36 251.082,18.39C250.801,19.181 250.902,19.974 251.059,20.768C251.178,21.372 251.339,21.975 251.218,22.581C251.142,22.965 250.908,23.244 250.668,23.522C250.323,23.923 249.956,24.314 249.723,24.804C249.509,25.254 249.504,25.842 249.551,26.324C249.901,29.888 253.711,32.025 256.956,32.44C258.018,32.575 259.116,32.566 260.184,32.537C261.006,32.514 261.81,32.38 262.627,32.315C264.317,32.18 266.531,32.101 267.896,30.968C268.657,30.336 268.875,29.573 269.086,28.664C269.453,27.086 269.361,25.486 269.412,23.878C269.444,22.895 269.485,21.897 269.595,20.918C269.688,20.098 269.891,19.281 269.886,18.451C269.88,17.506 269.559,16.467 269.144,15.622C268.585,14.482 267.513,13.732 266.288,13.48C265.695,13.358 265.082,13.38 264.492,13.236C263.383,12.965 262.328,12.543 261.265,12.133C260.324,11.771 259.429,11.581 258.418,11.545C257.333,11.506 255.897,11.782 255.021,12.484C254.659,12.774 254.313,13.146 254.038,13.518C253.848,13.775 253.725,14.072 253.634,14.378C253.612,14.453 253.527,14.538 253.441,14.644C253.205,14.936 252.902,15.269 252.713,15.562ZM253.764,16.24C253.965,15.928 254.312,15.571 254.533,15.277C254.685,15.074 254.788,14.883 254.833,14.732C254.882,14.566 254.94,14.401 255.043,14.261C255.256,13.973 255.522,13.684 255.802,13.46C256.462,12.931 257.556,12.765 258.374,12.794C259.241,12.825 260.009,12.988 260.815,13.299C261.928,13.728 263.034,14.166 264.196,14.45C264.8,14.598 265.429,14.58 266.036,14.705C266.884,14.879 267.635,15.384 268.022,16.173C268.357,16.857 268.632,17.693 268.636,18.458C268.64,19.239 268.44,20.006 268.353,20.779C268.24,21.79 268.195,22.822 268.163,23.838C268.115,25.364 268.217,26.884 267.869,28.381C267.722,29.011 267.625,29.568 267.097,30.006C266.542,30.467 265.806,30.689 265.042,30.823C264.188,30.973 263.297,31.008 262.528,31.069C261.732,31.133 260.95,31.265 260.15,31.287C259.146,31.315 258.113,31.327 257.115,31.2C255.719,31.021 254.188,30.491 252.97,29.619C251.815,28.792 250.938,27.655 250.795,26.202C250.769,25.93 250.731,25.595 250.852,25.341C251.036,24.953 251.342,24.655 251.616,24.338C251.994,23.898 252.323,23.432 252.444,22.826C252.597,22.058 252.436,21.291 252.285,20.526C252.172,19.952 252.057,19.38 252.26,18.809C252.594,17.869 253.091,17.283 253.764,16.24Z" style="fill:#528400;"/>
                </g>
                <g transform="matrix(0.757082,0.148493,-0.180568,0.920617,67.9928,-28.2179)">
                    <path d="M251.634,10.746C255.383,9.82 259.271,9.039 262.996,10.528C263.992,10.926 264.913,11.483 265.588,12.335C265.834,12.644 266.13,13.157 266.077,13.576C265.922,14.813 264.033,14.58 263.233,14.434C262.091,14.226 260.924,14.143 259.788,13.904C258.08,13.545 256.314,13.083 254.559,13.479C253.435,13.732 251.061,14.823 251.608,16.429C251.737,16.807 252.155,16.935 252.513,16.982C253.277,17.083 254.077,16.898 254.827,16.773C255.894,16.597 256.935,16.378 258.022,16.352C259.91,16.307 261.825,16.599 263.673,16.947C264.496,17.102 266.455,17.622 266.34,18.834C266.226,20.03 264.275,20.211 263.38,20.304C260.208,20.633 257.035,19.851 253.86,19.911C252.754,19.932 250.114,20.066 250.385,21.82C250.453,22.26 250.949,22.543 251.323,22.685C252.277,23.046 253.38,23.045 254.386,23.086C255.864,23.145 257.381,23.156 258.853,23.002C260.729,22.805 262.55,22.404 264.443,22.362C265.949,22.328 267.695,22.549 267.633,24.479C267.588,25.874 265.666,26.615 264.547,26.862C262.873,27.231 261.131,27.075 259.434,27.01C257.642,26.94 255.849,26.943 254.057,26.939C252.622,26.936 249.681,26.796 250.035,29.126C250.281,30.739 252.684,30.825 253.91,30.943C255.606,31.106 257.422,31.253 259.108,30.95C261.346,30.548 263.421,29.529 265.516,28.687C266.668,28.224 268.91,27.798 268.713,29.767C268.686,30.03 268.599,30.279 268.48,30.514C267.892,31.683 266.703,32.138 265.534,32.546C263.462,33.27 261.472,33.788 259.307,34.133C257.474,34.425 255.612,34.446 253.759,34.427C251.586,34.404 249.299,34.292 247.423,33.066C246.23,32.286 245.404,31.085 244.793,29.821C243.371,26.879 242.341,20.921 245.498,15.014C246.906,12.378 249.717,11.219 251.634,10.746Z" style="fill:#acd100;"/>
                </g>
                <g transform="matrix(0.757082,0.148493,-0.180568,0.920617,67.9928,-28.2179)">
                    <path d="M251.4,10.108C249.321,10.621 246.283,11.888 244.756,14.746C241.49,20.858 242.569,27.023 244.04,30.067C244.704,31.442 245.621,32.739 246.919,33.587C248.944,34.912 251.402,35.068 253.748,35.093C255.657,35.113 257.573,35.088 259.462,34.787C261.682,34.433 263.724,33.902 265.851,33.159C267.205,32.686 268.547,32.123 269.229,30.768C269.379,30.471 269.487,30.155 269.52,29.822C269.607,28.957 269.303,28.423 268.886,28.096C268.473,27.772 267.902,27.625 267.272,27.632C266.548,27.64 265.738,27.856 265.161,28.088C263.123,28.908 261.111,29.908 258.935,30.299C257.336,30.586 255.613,30.436 254.004,30.281C253.441,30.227 252.606,30.189 251.885,29.97C251.378,29.816 250.919,29.565 250.839,29.043C250.783,28.671 250.825,28.391 250.977,28.184C251.202,27.877 251.633,27.762 252.076,27.69C252.769,27.578 253.524,27.604 254.055,27.605C255.835,27.609 257.616,27.606 259.396,27.675C261.175,27.744 263.001,27.892 264.757,27.505C265.534,27.334 266.64,26.949 267.416,26.326C268.011,25.848 268.419,25.239 268.443,24.496C268.476,23.471 268.08,22.822 267.518,22.399C266.737,21.811 265.534,21.671 264.421,21.696C262.501,21.738 260.654,22.141 258.751,22.341C257.325,22.49 255.857,22.477 254.425,22.42C253.519,22.384 252.521,22.405 251.663,22.08C251.548,22.036 251.413,21.974 251.304,21.887C251.252,21.845 251.198,21.8 251.189,21.737C251.111,21.235 251.475,20.978 251.911,20.833C252.578,20.61 253.396,20.586 253.879,20.577C257.081,20.516 260.282,21.297 263.482,20.965C264.097,20.901 265.142,20.784 265.912,20.418C266.588,20.097 267.079,19.608 267.147,18.886C267.215,18.167 266.819,17.602 266.208,17.181C265.484,16.681 264.432,16.407 263.854,16.298C261.939,15.937 259.955,15.64 257.999,15.686C256.865,15.713 255.779,15.936 254.667,16.12C254.01,16.229 253.311,16.413 252.643,16.324C252.585,16.317 252.525,16.306 252.466,16.289C252.438,16.28 252.398,16.279 252.388,16.249C252.205,15.711 252.56,15.275 253.006,14.936C253.566,14.511 254.3,14.228 254.773,14.121C256.39,13.756 258.013,14.219 259.588,14.55C260.732,14.79 261.907,14.875 263.057,15.085C263.53,15.171 264.326,15.274 265.025,15.181C265.97,15.056 266.759,14.632 266.883,13.645C266.953,13.082 266.596,12.386 266.267,11.971C265.506,11.011 264.473,10.377 263.35,9.928C259.433,8.363 255.343,9.134 251.401,10.108L251.4,10.108ZM251.867,11.384C255.422,10.505 259.109,9.715 262.642,11.127C263.511,11.474 264.32,11.955 264.91,12.698C265.072,12.903 265.306,13.231 265.271,13.508C265.24,13.757 265.007,13.834 264.768,13.866C264.284,13.93 263.735,13.844 263.408,13.784C262.275,13.577 261.116,13.496 259.989,13.259C258.147,12.872 256.237,12.409 254.345,12.836C253.556,13.014 252.244,13.549 251.457,14.351C250.847,14.972 250.531,15.736 250.828,16.609C251.056,17.278 251.748,17.555 252.384,17.64C253.242,17.754 254.144,17.566 254.986,17.427C256.009,17.257 257.004,17.043 258.046,17.018C259.866,16.975 261.711,17.261 263.492,17.597C263.841,17.663 264.434,17.802 264.925,18.057C265.25,18.227 265.564,18.441 265.532,18.782C265.501,19.104 265.177,19.255 264.846,19.366C264.304,19.549 263.674,19.602 263.279,19.643C260.134,19.969 256.989,19.185 253.841,19.245C253.217,19.257 252.163,19.31 251.301,19.598C250.209,19.963 249.388,20.651 249.581,21.904C249.687,22.589 250.401,23.069 250.984,23.29C252.032,23.687 253.241,23.707 254.346,23.751C255.872,23.812 257.436,23.822 258.956,23.662C260.805,23.469 262.599,23.069 264.465,23.027C265.16,23.012 265.936,23.015 266.424,23.382C266.708,23.596 266.84,23.943 266.824,24.461C266.808,24.944 266.437,25.3 266.003,25.57C265.468,25.904 264.816,26.113 264.337,26.218C262.745,26.57 261.086,26.407 259.472,26.344C257.668,26.274 255.863,26.277 254.059,26.273C253.442,26.272 252.567,26.252 251.762,26.383C250.857,26.531 250.049,26.869 249.59,27.495C249.285,27.91 249.118,28.463 249.232,29.209C249.398,30.301 250.263,30.898 251.325,31.22C252.174,31.477 253.153,31.541 253.816,31.605C255.599,31.776 257.508,31.919 259.281,31.601C261.58,31.188 263.719,30.151 265.872,29.285C266.204,29.152 266.645,29.02 267.073,28.977C267.335,28.951 267.6,28.928 267.768,29.06C267.921,29.18 267.937,29.395 267.905,29.713C267.886,29.905 267.818,30.087 267.732,30.259C267.237,31.242 266.2,31.589 265.218,31.933C263.199,32.638 261.261,33.143 259.153,33.479C257.374,33.762 255.568,33.78 253.769,33.761C251.77,33.739 249.653,33.673 247.927,32.544C246.839,31.833 246.103,30.728 245.546,29.575C244.174,26.735 243.192,20.984 246.239,15.282C247.529,12.869 250.111,11.817 251.867,11.384L251.867,11.384Z" style="fill:#528400;"/>
                </g>
            </g>
            <g>
                <g transform="matrix(1,0,0,1,1.17846,9.45708)">
                    <path d="M238.759,49.744C234.798,47.893 232.582,44.659 230.564,41.181C228.796,38.133 227.932,34.021 227.867,30.638C227.762,25.088 229.855,19.976 233.453,15.546C236.103,12.282 240.17,9.589 243.985,7.931C245.521,7.264 247.838,6.496 249.496,7.228C250.158,7.52 250.716,8.008 251.209,8.528C252.009,9.37 252.899,10.506 252.984,11.716C253.097,13.332 252.006,14.791 251.406,16.213C250.931,17.34 250.827,18.585 250.771,19.793C250.664,22.069 250.531,24.33 250.503,26.61C250.482,28.397 250.479,30.186 250.445,31.974C250.413,33.604 250.254,35.208 250.068,36.826C249.947,37.883 249.866,38.944 249.752,40.002C249.532,42.053 249.231,44.097 248.946,46.14C248.776,47.356 248.565,48.916 247.731,49.885C246.693,51.09 244.906,51.381 243.401,51.182C242.556,51.071 240.12,50.379 238.759,49.744Z" style="fill:#fd8c00;"/>
                </g>
                <g transform="matrix(1,0,0,1,0,8.75)">
                    <path d="M234.923,47.192C236.28,48.284 237.77,48.308 239.296,47.977C240.621,47.689 241.97,47.116 243.249,46.941C245.523,46.629 247.583,47.318 249.815,47.558C250.158,47.595 250.466,47.347 250.503,47.004C250.54,46.661 250.291,46.352 249.948,46.315C247.615,46.064 245.457,45.376 243.079,45.702C241.769,45.882 240.386,46.46 239.03,46.755C237.874,47.007 236.735,47.045 235.707,46.218C235.438,46.002 235.045,46.045 234.828,46.313C234.612,46.582 234.655,46.976 234.923,47.192ZM230.469,40.574C231.083,41.234 231.772,41.876 232.523,42.379C233.161,42.807 233.856,43.174 234.607,43.357C236.296,43.77 237.897,43.275 239.479,42.608C240.877,42.018 242.258,41.29 243.702,41.155C244.782,41.054 245.831,41.315 246.882,41.541C248.076,41.798 249.272,42.014 250.508,41.792C250.847,41.732 251.073,41.406 251.012,41.067C250.952,40.727 250.626,40.501 250.287,40.562C249.216,40.754 248.18,40.542 247.145,40.319C245.969,40.066 244.794,39.798 243.586,39.91C242.019,40.057 240.51,40.817 238.994,41.456C237.662,42.017 236.325,42.49 234.903,42.143C234.295,41.994 233.736,41.687 233.219,41.341C232.547,40.89 231.934,40.313 231.384,39.722C231.15,39.47 230.754,39.455 230.501,39.69C230.249,39.925 230.234,40.321 230.469,40.574ZM228.532,31.656C229.365,33.669 231.166,34.512 233.196,34.892C234.864,35.204 236.595,35.257 238.258,34.901C240.321,34.459 242.238,33.466 244.358,33.27C245.801,33.137 247.276,33.301 248.713,33.451C249.46,33.53 250.264,33.704 251.024,33.64C251.367,33.611 251.623,33.309 251.594,32.965C251.565,32.621 251.262,32.366 250.919,32.395C250.235,32.452 249.515,32.278 248.843,32.208C247.326,32.049 245.768,31.885 244.243,32.026C242.074,32.226 240.107,33.227 237.996,33.679C236.495,34.001 234.932,33.945 233.426,33.663C231.821,33.363 230.346,32.77 229.687,31.178C229.556,30.859 229.19,30.708 228.871,30.84C228.552,30.972 228.401,31.337 228.532,31.656ZM230.437,22.275C231.147,23.169 232.15,23.75 233.273,24.107C234.846,24.606 236.656,24.662 238.116,24.6C241.416,24.462 244.703,24.193 247.958,24.891C248.917,25.096 250.071,25.255 250.951,25.752C251.251,25.922 251.632,25.816 251.802,25.516C251.972,25.215 251.866,24.834 251.565,24.664C250.579,24.107 249.295,23.899 248.22,23.668C244.861,22.948 241.469,23.208 238.063,23.351C236.734,23.407 235.084,23.37 233.651,22.915C232.771,22.636 231.973,22.198 231.416,21.498C231.202,21.228 230.808,21.182 230.538,21.397C230.268,21.611 230.223,22.005 230.437,22.275ZM238.524,12.467C239.576,13.877 241.717,14.426 243.308,14.813C245.519,15.351 247.731,15.939 249.826,16.836C250.408,17.085 251.137,17.23 251.656,17.603C251.937,17.804 252.327,17.74 252.529,17.46C252.73,17.18 252.666,16.789 252.385,16.588C251.795,16.164 250.979,15.969 250.318,15.686C248.159,14.763 245.882,14.153 243.604,13.599C242.897,13.427 242.061,13.232 241.286,12.923C240.593,12.645 239.944,12.28 239.526,11.72C239.32,11.443 238.928,11.386 238.651,11.593C238.375,11.799 238.318,12.191 238.524,12.467ZM245.663,9.452C248.535,10.088 251.047,11.891 253.181,13.871C253.433,14.106 253.829,14.091 254.064,13.838C254.298,13.585 254.284,13.189 254.031,12.955C251.737,10.827 249.02,8.915 245.933,8.232C245.596,8.157 245.262,8.37 245.187,8.707C245.113,9.044 245.326,9.378 245.663,9.452Z" style="fill:#feb482;"/>
                </g>
                <g transform="matrix(1,0,0,1,0,8.75)">
                    <path d="M246.041,49.035C240.914,48.928 238.468,43.24 236.988,39.179C234.939,33.56 234.489,27.367 237.082,21.832C238.08,19.702 239.568,17.698 241.157,15.974C242.692,14.309 244.314,12.782 246.405,11.837C247.891,11.165 249.479,10.832 250.803,11.981C251.096,12.235 251.458,12.579 251.566,12.971C251.845,13.985 251.072,15.157 250.751,16.063C250.178,17.677 249.898,19.178 249.772,20.873C249.433,25.443 249.335,30.03 248.879,34.594C248.667,36.717 248.104,38.782 247.899,40.9C247.78,42.125 247.696,43.353 247.651,44.583C247.611,45.676 248.053,49.076 246.041,49.035Z" style="fill:#ffd095;fill-opacity:0.35;"/>
                </g>
                <g transform="matrix(1,0,0,1,1.17846,9.45708)">
                    <path d="M238.494,50.31C239.908,50.971 242.441,51.686 243.319,51.802C245.022,52.027 247.031,51.656 248.204,50.293C249.113,49.238 249.38,47.551 249.565,46.227C249.851,44.177 250.153,42.126 250.374,40.069C250.487,39.012 250.568,37.953 250.689,36.897C250.877,35.26 251.038,33.635 251.07,31.986C251.104,30.197 251.107,28.406 251.128,26.617C251.156,24.345 251.289,22.091 251.395,19.822C251.448,18.687 251.535,17.515 251.982,16.456C252.28,15.749 252.701,15.033 253.033,14.293C253.409,13.454 253.671,12.584 253.608,11.673C253.513,10.323 252.554,9.037 251.663,8.098C251.113,7.518 250.486,6.982 249.748,6.656C247.942,5.858 245.41,6.631 243.736,7.358C239.834,9.054 235.679,11.813 232.968,15.152C229.274,19.7 227.135,24.952 227.243,30.65C227.308,34.131 228.204,38.359 230.023,41.494C232.105,45.082 234.408,48.401 238.494,50.31L238.494,50.31ZM239.023,49.177C235.187,47.385 233.059,44.236 231.105,40.867C229.387,37.907 228.555,33.912 228.492,30.627C228.39,25.224 230.437,20.252 233.938,15.94C236.528,12.75 240.506,10.125 244.235,8.504C245.106,8.126 246.241,7.709 247.35,7.588C248.018,7.516 248.677,7.549 249.243,7.8C249.83,8.059 250.319,8.497 250.756,8.958C251.463,9.703 252.286,10.689 252.361,11.76C252.41,12.465 252.183,13.132 251.892,13.782C251.556,14.53 251.132,15.255 250.83,15.97C250.326,17.164 250.206,18.483 250.146,19.764C250.039,22.047 249.906,24.315 249.879,26.602C249.857,28.388 249.855,30.176 249.82,31.962C249.789,33.572 249.63,35.156 249.447,36.755C249.326,37.813 249.245,38.876 249.131,39.935C248.912,41.98 248.611,44.018 248.327,46.054C248.172,47.162 248.018,48.595 247.257,49.478C246.356,50.524 244.791,50.735 243.483,50.563C242.671,50.455 240.331,49.788 239.024,49.177L239.023,49.177Z" style="fill:#b33e00;"/>
                </g>
            </g>
            <g>
                <g transform="matrix(1,0,0,1,-1.66855,9.21339)">
                    <path d="M269.842,29.233C268.507,28.839 267.736,27.855 267.483,26.52C267.283,25.465 267.343,24.327 268.729,24.583C270.068,24.831 271.258,26.045 271.66,27.323C272.007,28.43 271.277,29.656 269.842,29.233Z" style="fill:#e1dad6;"/>
                </g>
                <g transform="matrix(0.750789,-0.660542,0.660542,0.750789,46.4859,196.273)">
                    <path d="M269.842,29.233C268.507,28.839 267.736,27.855 267.483,26.52C267.283,25.465 267.343,24.327 268.729,24.583C270.068,24.831 271.258,26.045 271.66,27.323C272.007,28.43 271.277,29.656 269.842,29.233Z" style="fill:#e1dad6;"/>
                </g>
                <g transform="matrix(0.389328,-0.921099,0.921099,0.389328,137.315,278.085)">
                    <path d="M269.842,29.233C268.507,28.839 267.736,27.855 267.483,26.52C267.283,25.465 267.343,24.327 268.729,24.583C270.068,24.831 271.258,26.045 271.66,27.323C272.007,28.43 271.277,29.656 269.842,29.233Z" style="fill:#e1dad6;"/>
                </g>
                <g transform="matrix(0.819443,0.57316,-0.57316,0.819443,43.8378,-116.747)">
                    <path d="M269.842,29.233C268.507,28.839 267.736,27.855 267.483,26.52C267.283,25.465 267.343,24.327 268.729,24.583C270.068,24.831 271.258,26.045 271.66,27.323C272.007,28.43 271.277,29.656 269.842,29.233Z" style="fill:#e1dad6;"/>
                </g>
                <g transform="matrix(0.407128,0.913371,-0.913371,0.407128,166.571,-197.772)">
                    <path d="M269.842,29.233C268.507,28.839 267.736,27.855 267.483,26.52C267.283,25.465 267.343,24.327 268.729,24.583C270.068,24.831 271.258,26.045 271.66,27.323C272.007,28.43 271.277,29.656 269.842,29.233Z" style="fill:#e1dad6;"/>
                </g>
                <g transform="matrix(0.407128,0.913371,-0.913371,0.407128,169.017,-196.93)">
                    <path d="M269.842,29.233C268.507,28.839 267.736,27.855 267.483,26.52C267.283,25.465 267.343,24.327 268.729,24.583C270.068,24.831 271.258,26.045 271.66,27.323C272.007,28.43 271.277,29.656 269.842,29.233Z" style="fill:#e1dad6;"/>
                </g>
                <g transform="matrix(0.956409,0.292031,-0.292031,0.956409,10.8647,-45.6108)">
                    <path d="M269.842,29.233C268.507,28.839 267.736,27.855 267.483,26.52C267.283,25.465 267.343,24.327 268.729,24.583C270.068,24.831 271.258,26.045 271.66,27.323C272.007,28.43 271.277,29.656 269.842,29.233Z" style="fill:#e1dad6;"/>
                </g>
                <g transform="matrix(0.655792,0.754941,-0.754941,0.655792,106.771,-163.203)">
                    <path d="M269.842,29.233C268.507,28.839 267.736,27.855 267.483,26.52C267.283,25.465 267.343,24.327 268.729,24.583C270.068,24.831 271.258,26.045 271.66,27.323C272.007,28.43 271.277,29.656 269.842,29.233Z" style="fill:#e1dad6;"/>
                </g>
                <g transform="matrix(-0.0643149,0.99793,-0.99793,-0.0643149,274.175,-221.203)">
                    <path d="M269.842,29.233C268.507,28.839 267.736,27.855 267.483,26.52C267.283,25.465 267.343,24.327 268.729,24.583C270.068,24.831 271.258,26.045 271.66,27.323C272.007,28.43 271.277,29.656 269.842,29.233Z" style="fill:#e1dad6;"/>
                </g>
                <g transform="matrix(0.14599,0.989286,-0.989286,0.14599,216.503,-227.806)">
                    <path d="M269.842,29.233C268.507,28.839 267.736,27.855 267.483,26.52C267.283,25.465 267.343,24.327 268.729,24.583C270.068,24.831 271.258,26.045 271.66,27.323C272.007,28.43 271.277,29.656 269.842,29.233Z" style="fill:#e1dad6;"/>
                </g>
                <g transform="matrix(0.14599,0.989286,-0.989286,0.14599,214.84,-229.716)">
                    <path d="M269.842,29.233C268.507,28.839 267.736,27.855 267.483,26.52C267.283,25.465 267.343,24.327 268.729,24.583C270.068,24.831 271.258,26.045 271.66,27.323C272.007,28.43 271.277,29.656 269.842,29.233Z" style="fill:#e1dad6;"/>
                </g>
                <g transform="matrix(-0.744573,0.667542,-0.667542,-0.744573,447.793,-111.444)">
                    <path d="M269.842,29.233C268.507,28.839 267.736,27.855 267.483,26.52C267.283,25.465 267.343,24.327 268.729,24.583C270.068,24.831 271.258,26.045 271.66,27.323C272.007,28.43 271.277,29.656 269.842,29.233Z" style="fill:#e1dad6;"/>
                </g>
                <g transform="matrix(-0.851422,-0.524481,0.524481,-0.851422,471.42,183.589)">
                    <path d="M269.842,29.233C268.507,28.839 267.736,27.855 267.483,26.52C267.283,25.465 267.343,24.327 268.729,24.583C270.068,24.831 271.258,26.045 271.66,27.323C272.007,28.43 271.277,29.656 269.842,29.233Z" style="fill:#e1dad6;"/>
                </g>
                <g transform="matrix(-0.993693,0.112136,-0.112136,-0.993693,529.526,15.9084)">
                    <path d="M269.842,29.233C268.507,28.839 267.736,27.855 267.483,26.52C267.283,25.465 267.343,24.327 268.729,24.583C270.068,24.831 271.258,26.045 271.66,27.323C272.007,28.43 271.277,29.656 269.842,29.233Z" style="fill:#e1dad6;"/>
                </g>
                <g transform="matrix(-0.193055,0.981188,-0.981188,-0.193055,350.633,-233.197)">
                    <path d="M269.842,29.233C268.507,28.839 267.736,27.855 267.483,26.52C267.283,25.465 267.343,24.327 268.729,24.583C270.068,24.831 271.258,26.045 271.66,27.323C272.007,28.43 271.277,29.656 269.842,29.233Z" style="fill:#e1dad6;"/>
                </g>
                <g transform="matrix(-0.628049,0.778174,-0.778174,-0.628049,462.846,-164.45)">
                    <path d="M269.842,29.233C268.507,28.839 267.736,27.855 267.483,26.52C267.283,25.465 267.343,24.327 268.729,24.583C270.068,24.831 271.258,26.045 271.66,27.323C272.007,28.43 271.277,29.656 269.842,29.233Z" style="fill:#e1dad6;"/>
                </g>
                <g transform="matrix(-0.931809,0.36295,-0.36295,-0.931809,534.579,-22.2102)">
                    <path d="M269.842,29.233C268.507,28.839 267.736,27.855 267.483,26.52C267.283,25.465 267.343,24.327 268.729,24.583C270.068,24.831 271.258,26.045 271.66,27.323C272.007,28.43 271.277,29.656 269.842,29.233Z" style="fill:#e1dad6;"/>
                </g>
                <g transform="matrix(-0.931809,0.36295,-0.36295,-0.931809,532.5,-20.2128)">
                    <path d="M269.842,29.233C268.507,28.839 267.736,27.855 267.483,26.52C267.283,25.465 267.343,24.327 268.729,24.583C270.068,24.831 271.258,26.045 271.66,27.323C272.007,28.43 271.277,29.656 269.842,29.233Z" style="fill:#e1dad6;"/>
                </g>
                <g transform="matrix(-0.886882,-0.461997,0.461997,-0.886882,464.014,210.44)">
                    <path d="M269.842,29.233C268.507,28.839 267.736,27.855 267.483,26.52C267.283,25.465 267.343,24.327 268.729,24.583C270.068,24.831 271.258,26.045 271.66,27.323C272.007,28.43 271.277,29.656 269.842,29.233Z" style="fill:#e1dad6;"/>
                </g>
                <g transform="matrix(-0.448537,-0.893764,0.893764,-0.448537,332.416,313.849)">
                    <path d="M269.842,29.233C268.507,28.839 267.736,27.855 267.483,26.52C267.283,25.465 267.343,24.327 268.729,24.583C270.068,24.831 271.258,26.045 271.66,27.323C272.007,28.43 271.277,29.656 269.842,29.233Z" style="fill:#e1dad6;"/>
                </g>
            </g>
        </g>
    </g>
    <defs>
        <linearGradient id="_Linear1" x1="0" y1="0" x2="1" y2="0" gradientUnits="userSpaceOnUse" gradientTransform="matrix(-2.36277e-14,77.1697,-12.15,-5.81666e-15,163.266,2.83034)"><stop offset="0" style="stop-color:#152300;stop-opacity:1"/><stop offset="0.52" style="stop-color:#1f3200;stop-opacity:1"/><stop offset="1" style="stop-color:#233800;stop-opacity:1"/></linearGradient>
        <linearGradient id="_Linear2" x1="0" y1="0" x2="1" y2="0" gradientUnits="userSpaceOnUse" gradientTransform="matrix(-2.36277e-14,77.1697,-12.15,-5.81666e-15,163.266,2.83034)"><stop offset="0" style="stop-color:#152300;stop-opacity:1"/><stop offset="0.52" style="stop-color:#1f3200;stop-opacity:1"/><stop offset="1" style="stop-color:#233800;stop-opacity:1"/></linearGradient>
    </defs>
</svg>
