<?xml version="1.0" encoding="UTF-8" standalone="no"?>
<!DOCTYPE svg PUBLIC "-//W3C//DTD SVG 1.1//EN" "http://www.w3.org/Graphics/SVG/1.1/DTD/svg11.dtd">
<svg width="100%" height="100%" viewBox="0 0 280 62" version="1.1" xmlns="http://www.w3.org/2000/svg" xmlns:xlink="http://www.w3.org/1999/xlink" xml:space="preserve" xmlns:serif="http://www.serif.com/" style="fill-rule:evenodd;clip-rule:evenodd;stroke-linejoin:round;stroke-miterlimit:2;">
    <g id="banner_30" transform="matrix(1,0,0,1,0,-8.75)">
        <path d="M280,47.751L-0,47.751L-0,65.286C-0,67.888 2.112,70 4.714,70L275.286,70C277.888,70 280,67.888 280,65.286L280,47.751Z" style="fill:#007b9b;"/>
        <path d="M84.627,67.813C85.128,67.813 85.535,68.22 85.535,68.721C85.535,69.223 85.128,69.629 84.627,69.629C84.126,69.629 83.719,69.223 83.719,68.721C83.719,68.22 84.126,67.813 84.627,67.813ZM274.358,68.577C274.635,68.577 274.86,68.802 274.86,69.079C274.86,69.357 274.635,69.582 274.358,69.582C274.08,69.582 273.855,69.357 273.855,69.079C273.855,68.802 274.08,68.577 274.358,68.577ZM209.308,68.377C209.576,68.377 209.794,68.595 209.794,68.864C209.794,69.132 209.576,69.35 209.308,69.35C209.039,69.35 208.821,69.132 208.821,68.864C208.821,68.595 209.039,68.377 209.308,68.377ZM5.992,67.409C6.528,67.409 6.963,67.844 6.963,68.38C6.963,68.915 6.528,69.35 5.992,69.35C5.456,69.35 5.021,68.915 5.021,68.38C5.021,67.844 5.456,67.409 5.992,67.409ZM103.741,68.377C103.935,68.377 104.092,68.535 104.092,68.728C104.092,68.922 103.935,69.079 103.741,69.079C103.548,69.079 103.391,68.922 103.391,68.728C103.391,68.535 103.548,68.377 103.741,68.377ZM8.991,67.926C9.31,67.926 9.568,68.185 9.568,68.503C9.568,68.821 9.31,69.079 8.991,69.079C8.673,69.079 8.415,68.821 8.415,68.503C8.415,68.185 8.673,67.926 8.991,67.926ZM87.705,67.813C87.956,67.813 88.159,68.017 88.159,68.267C88.159,68.518 87.956,68.721 87.705,68.721C87.454,68.721 87.251,68.518 87.251,68.267C87.251,68.017 87.454,67.813 87.705,67.813ZM146.253,66.176C146.83,66.176 147.299,66.645 147.299,67.222C147.299,67.799 146.83,68.267 146.253,68.267C145.676,68.267 145.208,67.799 145.208,67.222C145.208,66.645 145.676,66.176 146.253,66.176ZM148.579,66.941C148.82,66.941 149.015,67.136 149.015,67.377C149.015,67.618 148.82,67.813 148.579,67.813C148.338,67.813 148.143,67.618 148.143,67.377C148.143,67.136 148.338,66.941 148.579,66.941ZM238.023,66.176C238.234,66.176 238.405,66.348 238.405,66.559C238.405,66.77 238.234,66.941 238.023,66.941C237.812,66.941 237.64,66.77 237.64,66.559C237.64,66.348 237.812,66.176 238.023,66.176ZM235.518,64.905C235.953,64.905 236.306,65.258 236.306,65.693C236.306,66.128 235.953,66.481 235.518,66.481C235.083,66.481 234.73,66.128 234.73,65.693C234.73,65.258 235.083,64.905 235.518,64.905ZM169.144,64.905C169.579,64.905 169.932,65.258 169.932,65.693C169.932,66.128 169.579,66.481 169.144,66.481C168.709,66.481 168.356,66.128 168.356,65.693C168.356,65.258 168.709,64.905 169.144,64.905ZM166.098,64.905C166.449,64.905 166.734,65.19 166.734,65.541C166.734,65.891 166.449,66.176 166.098,66.176C165.748,66.176 165.463,65.891 165.463,65.541C165.463,65.19 165.748,64.905 166.098,64.905ZM112.006,65.168C112.231,65.168 112.415,65.351 112.415,65.577C112.415,65.803 112.231,65.986 112.006,65.986C111.78,65.986 111.597,65.803 111.597,65.577C111.597,65.351 111.78,65.168 112.006,65.168ZM240.396,64.905C240.695,64.905 240.937,65.147 240.937,65.446C240.937,65.744 240.695,65.986 240.396,65.986C240.098,65.986 239.856,65.744 239.856,65.446C239.856,65.147 240.098,64.905 240.396,64.905ZM19.694,64.888C19.997,64.888 20.243,65.134 20.243,65.437C20.243,65.74 19.997,65.986 19.694,65.986C19.391,65.986 19.145,65.74 19.145,65.437C19.145,65.134 19.391,64.888 19.694,64.888ZM17.399,64.888C17.702,64.888 17.948,65.134 17.948,65.437C17.948,65.74 17.702,65.986 17.399,65.986C17.097,65.986 16.851,65.74 16.851,65.437C16.851,65.134 17.097,64.888 17.399,64.888ZM110.016,64.35C110.467,64.35 110.834,64.717 110.834,65.168C110.834,65.62 110.467,65.986 110.016,65.986C109.565,65.986 109.198,65.62 109.198,65.168C109.198,64.717 109.565,64.35 110.016,64.35Z" style="fill:#009cc4;"/>
        <path d="M0.21,66.679C0.295,66.956 0.406,67.223 0.539,67.476C8.314,65.454 15.83,67.762 24.194,68.455C33.58,69.234 43.544,69.958 52.929,69.366C69.143,68.344 84.895,66.002 101.135,67.017C115.174,67.894 129.257,69.895 143.323,70L148.177,70C166.984,69.865 185.255,68.234 204.102,67.813C213.507,67.603 222.634,68.073 231.961,68.449C248.709,69.125 263.429,68.795 279.209,67.9C279.708,67.151 280,66.252 280,65.286L280,64.681C263.925,65.675 248.364,68.415 232.187,66.88C222.862,65.996 213.891,64.286 204.453,64.496C183.998,64.953 163.757,68.697 143.235,68.543C129.184,68.438 115.211,67.061 101.187,66.185C84.912,65.168 69.217,65.138 53.066,67.197C44.372,68.305 33.589,68.04 24.244,67.265C15.741,66.56 8.111,64.514 0.21,66.679Z" style="fill:#009cc4;"/>
        <g transform="matrix(-0.893232,-1.09389e-16,8.74808e-17,-0.714335,285.834,65.8968)">
            <path d="M320,8.028C320,5.159 318.138,2.83 315.844,2.83L10.688,2.83C8.394,2.83 6.532,5.159 6.532,8.028L6.532,74.803C6.532,77.671 8.394,80 10.688,80L315.844,80C318.138,80 320,77.671 320,74.803L320,8.028Z" style="fill:#3bcadc;"/>
        </g>
        <g>
            <rect x="31.082" y="8.75" width="5.573" height="50.125" style="fill:#35aaa0;"/>
            <rect x="9.457" y="8.75" width="5.573" height="50.125" style="fill:#35aaa0;"/>
            <path d="M215.494,8.75L218.062,8.75L218.062,13.287L222.851,13.287L222.851,8.75L228.424,8.75L228.424,10.47L231.089,10.47L231.089,8.75L232.783,8.75L232.783,11.952C232.783,12.186 232.593,12.375 232.359,12.375L228.424,12.375L228.424,58.875L222.851,58.875L222.851,32.574L221.117,32.574C220.971,32.574 220.852,32.455 220.852,32.309L220.852,30.236C220.852,30.09 220.971,29.971 221.117,29.971L221.647,29.971C221.794,29.971 221.913,30.09 221.913,30.236L221.913,31.38L222.851,31.38L222.851,16.177L216.136,16.177C215.782,16.177 215.494,15.89 215.494,15.535L215.494,8.75Z" style="fill:#35aaa0;"/>
            <rect x="254.384" y="8.75" width="5.573" height="50.125" style="fill:#35aaa0;"/>
            <rect x="270.699" y="8.75" width="5.573" height="50.125" style="fill:#35aaa0;"/>
            <rect x="56.572" y="8.75" width="5.573" height="50.125" style="fill:#35aaa0;"/>
            <path d="M54.939,8.75L58.133,8.75L58.133,11.193L64.483,11.193L64.483,8.75L75.225,8.75L75.225,16.256L77.054,16.256L77.054,12.74C77.054,12.3 77.411,11.942 77.852,11.942L79.449,11.942C79.89,11.942 80.248,12.3 80.248,12.74L80.248,19.053C80.248,19.494 79.89,19.852 79.449,19.852L75.225,19.852L75.225,58.875L64.483,58.875L64.483,14.789L55.738,14.789C55.297,14.789 54.939,14.431 54.939,13.99L54.939,8.75Z" style="fill:#04384b;"/>
            <path d="M262.194,8.75L272.936,8.75L272.936,27.835L280,27.835L280,31.431L272.936,31.431L272.936,58.875L262.194,58.875L262.194,19.852L257.97,19.852C257.529,19.852 257.171,19.494 257.171,19.053L257.171,12.74C257.171,12.3 257.529,11.942 257.97,11.942L259.567,11.942C260.008,11.942 260.366,12.3 260.366,12.74L260.366,16.256L262.194,16.256L262.194,8.75Z" style="fill:#04384b;"/>
            <rect x="18.075" y="8.75" width="8.393" height="50.125" style="fill:#25878b;"/>
            <path d="M242.432,8.75L242.432,58.875L250.825,58.875L250.825,16.177L255.399,16.177C255.753,16.177 256.041,15.89 256.041,15.535L256.041,8.75L253.473,8.75L253.473,13.287L250.825,13.287L250.825,8.75L242.432,8.75Z" style="fill:#25878b;"/>
            <rect x="33.05" y="8.75" width="8.393" height="50.125" style="fill:#25878b;"/>
            <path d="M16.9,8.75L16.9,15.148L10.743,15.148L10.743,8.75L3.713,8.75C1.664,8.75 -0,10.414 0,12.463L0,58.875L10.743,58.875L10.743,18.744L19.296,18.744C19.736,18.744 20.094,18.386 20.094,17.945L20.094,8.75L16.9,8.75Z" style="fill:#04384b;"/>
        </g>
        <g transform="matrix(0.117586,0.0139342,-0.0139342,0.117586,208.428,18.6596)">
            <path d="M250.49,201.32C250.49,201.32 261.36,209.08 268.83,209.08C274.002,208.912 279.118,207.955 284,206.24L275.39,247.24C275.39,247.24 245.51,248.91 236.9,229.24" style="fill:#8e191b;fill-rule:nonzero;"/>
            <path d="M242,186.4C242,186.4 253.75,192.75 261.16,191.82C266.271,191.012 271.228,189.427 275.86,187.12L272.42,228.89C272.42,228.89 242.98,234.26 232,215.89" style="fill:#d62027;fill-rule:nonzero;"/>
            <path d="M217.74,345L82.26,345C60.21,345 42.34,325.12 42.34,300.59L42.34,276.43L257.66,276.43L257.66,300.59C257.66,325.12 239.79,345 217.74,345Z" style="fill:url(#_Linear1);fill-rule:nonzero;"/>
            <path d="M217.79,159.15L82.21,159.15C60.15,159.15 42.27,179.03 42.27,203.56L42.27,274.44C42.27,298.97 60.15,318.86 82.21,318.86L217.79,318.86C239.85,318.86 257.73,298.97 257.73,274.44L257.73,203.56C257.73,179 239.85,159.15 217.79,159.15Z" style="fill:#dae6f5;fill-rule:nonzero;"/>
            <path d="M205,172.82L95,172.82C74.233,172.793 57.16,155.697 57.16,134.93C57.16,134.913 57.16,134.897 57.16,134.88L57.16,119.52L242.86,119.52L242.86,134.88C242.86,134.897 242.86,134.913 242.86,134.93C242.86,155.705 225.775,172.804 205,172.82Z" style="fill:url(#_Linear2);fill-rule:nonzero;"/>
            <path d="M243.12,61.46C243.12,40.52 226.12,23.52 205.18,23.52L94.82,23.52C73.88,23.52 56.88,40.52 56.88,61.46L56.88,110.92C56.88,131.86 73.88,148.86 94.82,148.86L205.18,148.86C226.12,148.86 243.12,131.86 243.12,110.92L243.12,61.46Z" style="fill:#dae6f5;"/>
            <circle cx="207.47" cy="98.6" r="22.63" style="fill:#7ca1d5;"/>
            <circle cx="92.53" cy="98.6" r="22.63" style="fill:#7ca1d5;"/>
            <circle cx="207.47" cy="104.88" r="22.63" style="fill:#2f2c38;"/>
            <circle cx="92.53" cy="104.88" r="22.63" style="fill:#2f2c38;"/>
            <path d="M155.37,116.77C155.37,121.94 151.94,126.13 147.7,126.13C143.46,126.13 106.7,123.02 106.7,116.77C106.7,110.52 143.44,107.41 147.7,107.41C151.96,107.41 155.37,111.6 155.37,116.77Z" style="fill:#f68b1f;fill-rule:nonzero;"/>
            <circle cx="150" cy="139.92" r="4.99" style="fill:#2f2c38;"/>
            <circle cx="166.92" cy="138.21" r="4.99" style="fill:#2f2c38;"/>
            <circle cx="182.88" cy="133.22" r="4.99" style="fill:#2f2c38;"/>
            <circle cx="133.08" cy="138.21" r="4.99" style="fill:#2f2c38;"/>
            <circle cx="117.12" cy="133.22" r="4.99" style="fill:#2f2c38;"/>
            <circle cx="212.51" cy="96.11" r="7.9" style="fill:#fff;"/>
            <circle cx="97.57" cy="96.11" r="7.9" style="fill:#fff;"/>
            <g transform="matrix(0.67456,-0.73822,0.73822,0.67456,-10.14,71.85)">
                <ellipse cx="76.43" cy="47.42" rx="37.66" ry="17.78" style="fill:#15141a;"/>
            </g>
            <path d="M90.43,27.05C95.8,31.95 92.75,44.05 83.63,54.05C74.51,64.05 62.76,68.1 57.4,63.2L30.26,43L67.87,1.84L90.43,27.05Z" style="fill:#2f2c38;fill-rule:nonzero;"/>
            <g transform="matrix(0.67456,-0.73822,0.73822,0.67456,-0.58,43.52)">
                <ellipse cx="49.07" cy="22.42" rx="27.88" ry="13.16" style="fill:#484454;"/>
            </g>
            <path d="M73,44.31C65.41,52.64 56.52,57.68 50.2,57.84L57.4,63.2C62.76,68.1 74.5,63.98 83.63,54C92.76,44.02 95.8,32 90.43,27.05L84.43,20.36C84.85,26.67 80.64,36 73,44.31Z" style="fill:#d62027;fill-rule:nonzero;"/>
            <path d="M58.21,186.83L21.21,144.74L20.13,117.69C20.055,115.823 18.499,114.327 16.63,114.327C14.708,114.327 13.127,115.908 13.127,117.83C13.127,117.877 13.128,117.923 13.13,117.97L13.9,137.32L6,129.18C5.335,128.385 4.351,127.924 3.314,127.924C1.394,127.924 -0.186,129.504 -0.186,131.424C-0.186,132.429 0.247,133.386 1,134.05L12.64,146.05L4,144.75C3.889,144.739 3.778,144.734 3.667,144.734C1.747,144.734 0.167,146.314 0.167,148.234C0.167,149.904 1.361,151.352 3,151.67L19.23,154.15C19.41,154.165 19.59,154.165 19.77,154.15C19.91,154.16 20.05,154.16 20.19,154.15L53,191.45C53.664,192.206 54.623,192.64 55.63,192.64C57.55,192.64 59.13,191.06 59.13,189.14C59.13,188.29 58.821,187.469 58.26,186.83L58.21,186.83Z" style="fill:#15141a;fill-rule:nonzero;"/>
            <path d="M241.79,186.83L278.79,144.74L279.87,117.69C279.945,115.823 281.501,114.327 283.37,114.327C285.292,114.327 286.873,115.908 286.873,117.83C286.873,117.877 286.872,117.923 286.87,117.97L286.1,137.32L294,129.18C294.665,128.385 295.649,127.924 296.686,127.924C298.606,127.924 300.186,129.504 300.186,131.424C300.186,132.429 299.753,133.386 299,134.05L287.36,146.05L295.96,144.73C296.135,144.703 296.313,144.69 296.49,144.69C298.41,144.69 299.99,146.27 299.99,148.19C299.99,149.911 298.721,151.389 297.02,151.65L280.79,154.13C280.61,154.145 280.43,154.145 280.25,154.13C280.11,154.14 279.97,154.14 279.83,154.13L247.04,191.43C246.376,192.186 245.417,192.62 244.41,192.62C242.49,192.62 240.91,191.04 240.91,189.12C240.91,188.27 241.219,187.449 241.78,186.81L241.79,186.83Z" style="fill:#15141a;fill-rule:nonzero;"/>
            <path d="M238.74,152C234.764,158.979 227.302,163.279 219.27,163.22L80.73,163.22C72.698,163.279 65.236,158.979 61.26,152C59.66,154.825 58.749,157.987 58.6,161.23L58.55,161.23L58.55,165.23L58.6,165.23C59.1,176.59 68.8,185.67 80.73,185.67L219.27,185.67C231.2,185.67 240.9,176.59 241.4,165.23L241.4,161.23C241.251,157.987 240.34,154.825 238.74,152Z" style="fill:#d62027;fill-rule:nonzero;"/>
            <path d="M102.15,185.64C99.607,181.843 98.218,177.389 98.15,172.82C98.126,169.437 99.025,166.11 100.75,163.2L82,163.2C80.279,166.111 79.383,169.438 79.41,172.82C79.478,177.389 80.868,181.843 83.41,185.64L102.15,185.64Z" style="fill:#8e191b;fill-rule:nonzero;"/>
            <path d="M76.54,185.25C74.062,181.304 72.719,176.75 72.66,172.09C72.621,168.738 73.426,165.43 75,162.47C70.126,161.232 65.815,158.371 62.78,154.36C61.146,156.408 59.75,158.636 58.62,161C58.615,161.087 58.615,161.173 58.62,161.26L58.57,161.26L58.57,165.26L58.62,165.26C59.23,175.24 66.686,183.558 76.54,185.25Z" style="fill:#8e191b;fill-rule:nonzero;"/>
            <path d="M225,162.47C226.581,165.428 227.392,168.736 227.36,172.09C227.301,176.75 225.958,181.304 223.48,185.25C233.354,183.552 240.817,175.202 241.4,165.2L241.4,161.2C241.405,161.113 241.405,161.027 241.4,160.94C240.26,158.593 238.858,156.382 237.22,154.35C234.187,158.364 229.876,161.229 225,162.47Z" style="fill:#8e191b;fill-rule:nonzero;"/>
            <path d="M128.36,172.82C128.325,169.552 128.835,166.3 129.87,163.2L108.15,163.2C107.115,166.3 106.605,169.552 106.64,172.82C106.642,177.201 107.442,181.545 109,185.64L130.72,185.64C129.162,181.545 128.362,177.201 128.36,172.82Z" style="fill:#8e191b;fill-rule:nonzero;"/>
            <path d="M216.54,185.64C219.082,181.843 220.472,177.389 220.54,172.82C220.582,169.443 219.704,166.116 218,163.2L199.29,163.2C201.015,166.11 201.914,169.437 201.89,172.82C201.822,177.389 200.433,181.843 197.89,185.64L216.54,185.64Z" style="fill:#8e191b;fill-rule:nonzero;"/>
            <path d="M191,185.64C192.554,181.545 193.351,177.2 193.35,172.82C193.385,169.552 192.875,166.3 191.84,163.2L170.13,163.2C171.165,166.3 171.675,169.552 171.64,172.82C171.641,177.2 170.844,181.545 169.29,185.64L191,185.64Z" style="fill:#8e191b;fill-rule:nonzero;"/>
            <path d="M160.47,185.64L160.47,163.2L141.85,163.2L141.85,185.64L160.47,185.64Z" style="fill:#8e191b;fill-rule:nonzero;"/>
            <circle cx="150" cy="204.63" r="8.06" style="fill:#7ca1d5;"/>
            <circle cx="150" cy="200.89" r="8" style="fill:#2f2c38;"/>
            <circle cx="150" cy="232.79" r="8.06" style="fill:#7ca1d5;"/>
            <circle cx="150" cy="229.06" r="8" style="fill:#2f2c38;"/>
            <circle cx="150" cy="260.96" r="8.06" style="fill:#7ca1d5;"/>
            <circle cx="150" cy="257.23" r="8" style="fill:#2f2c38;"/>
            <circle cx="150" cy="289.13" r="8.06" style="fill:#7ca1d5;"/>
            <circle cx="150" cy="285.4" r="8" style="fill:#2f2c38;"/>
        </g>
        <g>
            <path d="M15.706,58.875L72.595,58.875C72.668,58.091 72.705,57.294 72.705,56.489L72.705,42.757C72.705,28.628 61.234,17.157 47.105,17.157L41.196,17.157C27.067,17.157 15.596,28.628 15.596,42.757L15.596,56.489C15.596,57.294 15.633,58.091 15.706,58.875Z" style="fill:#dae6f5;"/>
            <path d="M25.439,54.297L25.636,57.999L33.222,57.894L25.439,54.297ZM21.521,54.782L22.469,54.587L24.042,55.814L21.521,56.352L21.521,54.782ZM16.654,49.73L20.285,48.906L21.521,53.045L16.654,53.928L16.654,49.73ZM25.439,47.779L25.439,52.439L33.472,51.601C31.001,50.56 28.831,49.297 27.668,47.493L25.439,47.779ZM16.654,41.825L19.641,41.089L20.042,46.815L16.689,47.639L16.654,41.825ZM25.439,45.404L27.773,45.117L27.741,39.688L25.69,40.032L25.439,45.404ZM16.865,39.838C16.865,37.852 17.494,35.77 18.212,33.844L20.907,32.968C20.231,34.981 19.801,36.77 19.851,39.008L16.865,39.838ZM25.817,37.496L27.773,37.113C27.413,35.288 27.471,33.144 28.064,31.183L27.017,31.438C26.195,33.266 25.889,35.328 25.817,37.496ZM19.34,31.438L21.37,30.758C21.996,29.126 23.013,27.454 24.184,25.767L22.866,26.134C21.523,27.849 20.348,29.388 19.34,31.438ZM27.773,29.295L28.596,29.116C29.25,27.447 30.265,25.778 31.464,24.109C29.98,25.68 28.712,27.384 27.773,29.295ZM25.114,23.796L26.291,23.485C27.958,22.032 30.015,20.795 32.079,19.562C29.621,20.803 27.222,22.118 25.114,23.796Z" style="fill:#bad3f2;"/>
            <path d="M32.057,46.895L38.903,45.958L39.062,49.253C36.019,48.797 33.752,47.98 32.057,46.895ZM47.836,44.923L48.001,47.296C48.334,46.245 48.818,45.345 49.367,44.62L47.836,44.923ZM38.778,43.37L38.805,38.016C35.982,38.066 33.29,38.467 30.736,39.235C30.736,39.235 30.399,44.825 30.642,44.637C30.884,44.448 38.778,43.37 38.778,43.37ZM58.85,36.186L59.298,38.921C55.843,38.993 52.982,39.906 51.141,41.962L47.841,42.339L47.275,36.893C50.958,36.458 54.814,36.219 58.85,36.186ZM71.008,36.774C71.189,37.462 71.31,38.15 71.298,38.838C69.332,38.366 67.265,38.174 65.106,38.186L64.834,36.031C66.892,36.012 68.95,36.262 71.008,36.774ZM31.096,36.312C31.017,34.66 31.202,32.372 31.554,30.72C33.736,30.244 36.397,29.888 39.556,29.642C39.321,31.528 39.171,33.329 39.152,35L31.096,36.312ZM67.871,29.336C68.969,30.987 69.714,32.716 70.117,34.522L64.584,34.015C64.116,32.203 63.458,30.467 62.411,28.887C64.02,29.004 66.252,29.06 67.871,29.336ZM56.7,28.731C57.499,30.369 58.113,32.166 58.559,34.106L47.074,34.522L46.622,29.051C49.899,28.78 53.272,28.7 56.7,28.731ZM32.371,28.123L39.556,27.304C39.763,25.716 40.203,24.207 40.755,22.734C38.221,22.855 36.926,23.051 34.68,23.553C33.711,25.021 32.872,26.432 32.371,28.123ZM61.525,27.135L66.264,27.316C65.076,25.651 63.549,24.077 61.457,22.654L58.288,22.292C59.676,23.822 60.801,25.424 61.525,27.135ZM52.845,22.014C53.987,23.564 55.019,25.222 55.955,26.978L46.622,27.055L46.414,22.207L52.845,22.014ZM36.758,21.258L41.435,20.775C41.738,19.802 42.225,18.855 42.787,17.919L40.755,17.919C39.145,18.98 37.78,20.087 36.758,21.258ZM57.153,20.582L58.559,20.727C57.355,20.037 56.11,19.534 54.842,19.133L57.153,20.582ZM46.414,20.493L51.184,20.304C50.588,19.545 49.826,18.786 48.782,18.028C47.91,17.968 47.074,17.944 46.414,18.097L46.414,20.493Z" style="fill:#fff;"/>
            <path d="M43.476,17.157L20.632,58.875L25.742,58.875L48.563,17.198C48.079,17.171 47.593,17.157 47.105,17.157L43.476,17.157ZM53.262,17.904L30.828,58.875L51.869,58.875L68.44,28.613C64.946,23.355 59.562,19.462 53.262,17.904ZM70.626,32.642L56.261,58.875L58.844,58.875L71.654,35.48C71.366,34.509 71.022,33.561 70.626,32.642Z" style="fill:#fff;fill-opacity:0.4;"/>
            <path d="M15.096,54.568C15.046,54.646 15.021,54.74 15.033,54.839C15.04,54.905 15.062,54.965 15.096,55.016L15.096,56.489C15.096,57.31 15.134,58.122 15.208,58.922C15.232,59.179 15.447,59.375 15.706,59.375L72.595,59.375C72.853,59.375 73.069,59.179 73.093,58.922C73.167,58.122 73.205,57.31 73.205,56.489L73.205,51.587C74.338,51.611 75.471,51.663 76.602,51.758C76.831,51.778 77.033,51.607 77.052,51.378C77.071,51.149 76.901,50.947 76.672,50.928C75.518,50.83 74.362,50.779 73.205,50.754L73.205,43.671C73.397,43.66 73.561,43.517 73.592,43.32C73.628,43.092 73.472,42.879 73.245,42.844L73.205,42.838L73.205,42.757C73.205,28.352 61.51,16.657 47.105,16.657L41.196,16.657C26.791,16.657 15.096,28.352 15.096,42.757L15.096,54.568ZM24.244,54.091C21.531,54.455 18.817,54.818 16.096,55.136L16.096,56.489C16.096,57.124 16.119,57.753 16.166,58.375L24.42,58.375C24.352,57.387 24.289,55.884 24.244,54.091ZM39.841,52.3C39.59,52.32 39.339,52.339 39.089,52.36C34.391,52.741 29.731,53.355 25.072,53.98C25.119,55.836 25.185,57.384 25.255,58.375L40.088,58.375C39.988,56.348 39.905,54.324 39.841,52.3ZM72.205,51.572C69.591,51.549 66.974,51.642 64.364,51.641C56.443,51.637 48.574,51.671 40.673,52.239C40.738,54.282 40.821,56.327 40.922,58.375L72.135,58.375C72.181,57.753 72.205,57.124 72.205,56.489L72.205,51.572ZM24.168,47.505C21.446,47.951 18.714,48.444 16.096,49.256L16.096,54.297C18.81,53.979 21.517,53.616 24.224,53.253C24.187,51.501 24.165,49.525 24.168,47.505ZM39.69,45.162C35.566,45.677 31.469,46.304 27.342,46.991C26.564,47.12 25.781,47.245 24.996,47.371C24.992,49.395 25.014,51.38 25.052,53.142C29.695,52.52 34.339,51.909 39.021,51.529C39.286,51.508 39.551,51.487 39.815,51.467C39.753,49.366 39.711,47.265 39.69,45.162ZM72.205,43.535C63.516,42.362 54.469,43.671 45.825,44.486C44.049,44.653 42.283,44.846 40.522,45.059C40.543,47.176 40.585,49.291 40.647,51.405C48.558,50.838 56.435,50.804 64.365,50.808C66.974,50.809 69.592,50.717 72.205,50.74L72.205,43.535ZM24.349,39.407C21.593,40.015 18.852,40.698 16.129,41.461C16.107,41.889 16.096,42.322 16.096,42.757L16.096,48.385C18.719,47.593 21.451,47.105 24.171,46.661C24.185,44.157 24.238,41.625 24.349,39.407ZM39.731,36.806C34.846,37.393 29.994,38.193 25.186,39.225C25.069,41.438 25.013,43.992 24.999,46.527C25.737,46.408 26.473,46.29 27.205,46.169C31.376,45.475 35.515,44.842 39.683,44.323C39.671,42.713 39.671,41.101 39.685,39.486C39.692,38.597 39.706,37.703 39.731,36.806ZM71.354,36.259C71.267,36.298 71.167,36.308 71.069,36.279C67.773,35.337 64.068,35.304 60.476,35.432C60.916,37.366 61.195,39.275 61.31,41.077C61.325,41.307 61.15,41.505 60.921,41.52C60.691,41.534 60.493,41.36 60.478,41.13C60.363,39.324 60.081,37.407 59.633,35.464C58.147,35.526 56.69,35.605 55.296,35.648C50.361,35.799 45.447,36.147 40.567,36.708C40.541,37.639 40.526,38.568 40.518,39.493C40.505,41.072 40.504,42.647 40.515,44.221C42.252,44.011 43.994,43.822 45.747,43.656C54.415,42.839 63.487,41.54 72.205,42.694C72.199,40.469 71.903,38.312 71.354,36.259ZM25.662,31.187C23.076,31.782 20.508,32.5 18.004,33.331C17.976,33.341 17.949,33.347 17.921,33.35C17.004,35.614 16.407,38.043 16.189,40.579C18.909,39.823 21.645,39.146 24.396,38.544C24.514,36.545 24.685,34.863 24.923,33.781C25.116,32.901 25.364,32.035 25.662,31.187ZM40.304,29.003C38.069,29.215 35.843,29.467 33.632,29.754C31.309,30.055 28.964,30.463 26.628,30.971C26.26,31.943 25.961,32.942 25.737,33.96C25.514,34.974 25.351,36.521 25.235,38.362C30.036,37.34 34.88,36.545 39.757,35.964C39.839,33.641 39.999,31.309 40.304,29.003ZM57.213,28.295C51.856,28.202 46.48,28.445 41.152,28.925C40.84,31.223 40.677,33.549 40.594,35.866C45.457,35.311 50.353,34.965 55.27,34.815C56.611,34.774 58.01,34.701 59.434,34.642C58.891,32.505 58.15,30.352 57.213,28.295ZM67.42,28.905C67.406,28.905 67.392,28.904 67.378,28.903C64.309,28.58 61.22,28.39 58.122,28.314C59.03,30.363 59.75,32.496 60.279,34.61C63.943,34.478 67.734,34.497 71.116,35.427C70.418,33.14 69.401,30.992 68.119,29.033C67.896,28.962 67.663,28.92 67.42,28.905ZM29.875,23.872C27.441,24.42 24.983,25.066 22.806,25.681C20.99,27.636 19.481,29.881 18.357,32.339C20.864,31.528 23.432,30.829 26.014,30.253C26.945,27.937 28.257,25.778 29.875,23.872ZM41.75,22.099C39.411,22.288 37.086,22.555 34.723,22.927C33.613,23.102 32.448,23.321 31.263,23.57C31.132,23.708 31.003,23.848 30.877,23.99C29.274,25.787 27.96,27.834 27.007,30.038C29.182,29.579 31.363,29.208 33.525,28.928C35.812,28.631 38.113,28.371 40.422,28.155C40.727,26.104 41.154,24.077 41.75,22.099ZM53.11,21.628C51.071,21.635 49.041,21.715 47.077,21.789C45.582,21.845 44.108,21.923 42.64,22.03C42.025,24.003 41.586,26.027 41.274,28.077C46.432,27.618 51.633,27.382 56.817,27.456C55.791,25.351 54.554,23.367 53.11,21.628ZM54.17,21.631C55.555,23.397 56.745,25.382 57.736,27.472C60.988,27.541 64.234,27.734 67.458,28.073C65.828,25.82 63.834,23.847 61.561,22.241C59.168,21.81 56.67,21.655 54.17,21.631ZM30.838,22.808C31.938,21.672 33.164,20.659 34.474,19.775C35.291,19.224 36.405,18.544 37.56,17.919C32.348,18.676 27.653,21.038 23.992,24.487C26.164,23.895 28.532,23.299 30.838,22.808ZM42.02,21.241C42.42,20.024 42.888,18.828 43.436,17.657L41.196,17.657C40.754,17.657 40.315,17.668 39.88,17.691C38.168,18.457 36.193,19.621 34.94,20.466C34.029,21.08 33.161,21.759 32.35,22.5C33.115,22.352 33.866,22.219 34.593,22.104C37.091,21.711 39.547,21.434 42.02,21.241ZM52.391,20.801C51.318,19.624 50.142,18.582 48.863,17.718C48.283,17.678 47.696,17.657 47.105,17.657L44.358,17.657C43.803,18.805 43.327,19.98 42.92,21.175C44.284,21.079 45.656,21.008 47.046,20.956C48.789,20.891 50.584,20.821 52.391,20.801ZM59.865,21.143C57.047,19.475 53.877,18.342 50.494,17.884C51.569,18.74 52.567,19.72 53.486,20.795C55.627,20.797 57.774,20.884 59.865,21.143Z" style="fill:#93bde4;"/>
            <g>
                <path d="M65.238,39.92L59.505,39.92C53.085,39.92 47.873,45.132 47.873,51.552L47.873,57.791C47.873,58.157 47.89,58.519 47.923,58.875L65.238,58.875L65.238,39.92Z" style="fill:#b7d2ed;"/>
                <path d="M58.966,42.975L56.556,44.867L56.556,58.875L71.727,58.875L71.727,42.975L58.966,42.975Z" style="fill:#2f2c38;"/>
                <path d="M66.055,42.975C68.377,45.103 69.833,48.159 69.833,51.552L69.833,57.791C69.833,58.157 69.816,58.519 69.783,58.875L79.476,58.875L78.444,47.865L71.727,42.975L66.055,42.975Z" style="fill:#b7d2ed;"/>
                <path d="M57.895,58.875L53.763,58.875C53.73,58.519 53.713,58.157 53.713,57.791L53.713,51.552C53.713,45.132 58.925,39.92 65.344,39.92L70.049,39.92C76.468,39.92 81.68,45.132 81.68,51.552L81.68,57.791C81.68,58.157 81.663,58.519 81.63,58.875L77.505,58.875L77.514,54.709L77.514,51.552C77.514,47.432 74.169,44.087 70.049,44.087C70.049,44.087 65.344,44.087 65.344,44.087C61.224,44.087 57.879,47.432 57.879,51.552L57.879,54.709L57.895,58.875Z" style="fill:#dae6f5;"/>
                <path d="M63.728,40.032C64.257,39.958 64.796,39.92 65.344,39.92L70.049,39.92C70.357,39.92 70.662,39.932 70.964,39.956L68.238,44.087L65.344,44.087C61.224,44.087 57.879,47.432 57.879,51.552L57.879,54.709L57.895,58.875L53.763,58.875C53.73,58.519 53.713,58.157 53.713,57.791L53.713,55.214L63.728,40.032ZM74.675,40.878C77.737,42.208 80.116,44.818 81.137,48.031L77.514,53.524L77.514,51.552C77.514,48.225 75.333,45.404 72.325,44.441L74.675,40.878Z" style="fill:#fff;fill-opacity:0.4;"/>
            </g>
        </g>
        <path d="M205.613,55.097L200.295,55.097C199.62,55.097 199.071,55.646 199.071,56.321L199.071,57.232L72.49,57.232L72.49,57.195C72.49,56.469 71.9,55.88 71.174,55.88L69.265,55.88C68.767,55.88 68.333,56.157 68.11,56.566L66.173,56.566C65.683,56.566 65.255,56.834 65.029,57.232L46.997,57.232L46.997,56.241C46.997,55.38 46.298,54.681 45.438,54.681L38.056,54.681C37.195,54.681 36.497,55.38 36.497,56.241L36.497,57.232L27.442,57.232L27.442,57.04C27.442,56.179 26.743,55.48 25.882,55.48L22.724,55.48L22.724,55.333C22.724,54.472 22.025,53.774 21.164,53.774L13.782,53.774C12.922,53.774 12.223,54.472 12.223,55.333L12.223,57.232L-0,57.232L-0,60.162C-0,62.211 1.664,63.875 3.713,63.875L21.615,63.875L21.615,65.364C21.615,66.005 22.136,66.525 22.776,66.525L44.889,66.525C45.53,66.525 46.051,66.005 46.051,65.364L46.051,63.875L53.354,63.875L53.354,64.33C53.354,64.971 53.875,65.491 54.515,65.491L64.411,65.491C65.052,65.491 65.572,64.971 65.572,64.33L65.572,63.875L123.194,63.875L123.194,66.161C123.194,66.802 123.714,67.322 124.355,67.322L141.897,67.322C142.538,67.322 143.058,66.802 143.058,66.161L143.058,65.491L153.044,65.491C153.685,65.491 154.206,64.971 154.206,64.33L154.206,63.875L253.161,63.875L253.161,66.356C253.161,67.16 253.814,67.813 254.618,67.813L271.568,67.813C272.373,67.813 273.026,67.16 273.026,66.356L273.026,63.875L276.287,63.875C278.336,63.875 280,62.211 280,60.162L280,57.232L247.517,57.232L247.517,56.805C247.517,56.397 247.186,56.065 246.777,56.065L242.894,56.065C242.485,56.065 242.154,56.397 242.154,56.805L242.154,57.232L241.061,57.232L241.061,56.321C241.061,55.646 240.512,55.097 239.837,55.097L239.264,55.097L239.264,54.565C239.264,54.157 238.933,53.825 238.525,53.825L233.368,53.825C232.96,53.825 232.628,54.157 232.628,54.565L232.628,55.097L231.306,55.097C230.631,55.097 230.082,55.646 230.082,56.321L230.082,57.232L216.59,57.232L216.59,55.18C216.59,54.295 215.871,53.576 214.985,53.576L207.215,53.576C206.358,53.576 205.656,54.251 205.613,55.097Z" style="fill:#e4f9ff;"/>
        <path d="M265.885,53.845C266.302,53.845 266.64,54.184 266.64,54.6C266.64,55.017 266.302,55.356 265.885,55.356C265.468,55.356 265.13,55.017 265.13,54.6C265.13,54.184 265.468,53.845 265.885,53.845ZM87.001,50.772C87.835,50.772 88.512,51.449 88.512,52.282C88.512,53.116 87.835,53.793 87.001,53.793C86.168,53.793 85.491,53.116 85.491,52.282C85.491,51.449 86.168,50.772 87.001,50.772ZM181.513,51.851C181.93,51.851 182.268,52.19 182.268,52.607C182.268,53.023 181.93,53.362 181.513,53.362C181.096,53.362 180.758,53.023 180.758,52.607C180.758,52.19 181.096,51.851 181.513,51.851ZM13.009,50.593C13.426,50.593 13.764,50.931 13.764,51.348C13.764,51.765 13.426,52.103 13.009,52.103C12.592,52.103 12.254,51.765 12.254,51.348C12.254,50.931 12.592,50.593 13.009,50.593ZM201.354,47.751C202.187,47.751 202.864,48.428 202.864,49.261C202.864,50.095 202.187,50.772 201.354,50.772C200.52,50.772 199.843,50.095 199.843,49.261C199.843,48.428 200.52,47.751 201.354,47.751ZM255.024,44.73C255.858,44.73 256.534,45.407 256.534,46.241C256.534,47.074 255.858,47.751 255.024,47.751C254.19,47.751 253.514,47.074 253.514,46.241C253.514,45.407 254.19,44.73 255.024,44.73ZM240.824,46.212C241.241,46.212 241.58,46.55 241.58,46.967C241.58,47.384 241.241,47.722 240.824,47.722C240.407,47.722 240.069,47.384 240.069,46.967C240.069,46.55 240.407,46.212 240.824,46.212ZM276.554,46.212C276.97,46.212 277.309,46.55 277.309,46.967C277.309,47.384 276.97,47.722 276.554,47.722C276.137,47.722 275.798,47.384 275.798,46.967C275.798,46.55 276.137,46.212 276.554,46.212ZM106.688,45.832C107.105,45.832 107.443,46.17 107.443,46.587C107.443,47.004 107.105,47.342 106.688,47.342C106.271,47.342 105.933,47.004 105.933,46.587C105.933,46.17 106.271,45.832 106.688,45.832ZM3.624,45.485C4.041,45.485 4.38,45.824 4.38,46.241C4.38,46.657 4.041,46.996 3.624,46.996C3.208,46.996 2.869,46.657 2.869,46.241C2.869,45.824 3.208,45.485 3.624,45.485ZM79.278,38.016C79.695,38.016 80.033,38.355 80.033,38.771C80.033,39.188 79.695,39.527 79.278,39.527C78.861,39.527 78.523,39.188 78.523,38.771C78.523,38.355 78.861,38.016 79.278,38.016ZM268.804,33.49C269.221,33.49 269.559,33.828 269.559,34.245C269.559,34.662 269.221,35 268.804,35C268.387,35 268.049,34.662 268.049,34.245C268.049,33.828 268.387,33.49 268.804,33.49ZM196.075,30.826C196.491,30.826 196.83,31.164 196.83,31.581C196.83,31.998 196.491,32.336 196.075,32.336C195.658,32.336 195.319,31.998 195.319,31.581C195.319,31.164 195.658,30.826 196.075,30.826ZM254.11,26.787C254.526,26.787 254.865,27.126 254.865,27.543C254.865,27.959 254.526,28.298 254.11,28.298C253.693,28.298 253.354,27.959 253.354,27.543C253.354,27.126 253.693,26.787 254.11,26.787ZM10.791,25.257C11.624,25.257 12.301,25.934 12.301,26.768C12.301,27.601 11.624,28.278 10.791,28.278C9.957,28.278 9.28,27.601 9.28,26.768C9.28,25.934 9.957,25.257 10.791,25.257ZM135.417,22.024C135.833,22.024 136.172,22.362 136.172,22.779C136.172,23.196 135.833,23.534 135.417,23.534C135,23.534 134.661,23.196 134.661,22.779C134.661,22.362 135,22.024 135.417,22.024ZM23.026,20.981C23.443,20.981 23.782,21.319 23.782,21.736C23.782,22.153 23.443,22.491 23.026,22.491C22.61,22.491 22.271,22.153 22.271,21.736C22.271,21.319 22.61,20.981 23.026,20.981ZM173.807,20.513C174.224,20.513 174.563,20.852 174.563,21.269C174.563,21.685 174.224,22.024 173.807,22.024C173.391,22.024 173.052,21.685 173.052,21.269C173.052,20.852 173.391,20.513 173.807,20.513ZM237.906,18.937C238.322,18.937 238.661,19.275 238.661,19.692C238.661,20.109 238.322,20.447 237.906,20.447C237.489,20.447 237.15,20.109 237.15,19.692C237.15,19.275 237.489,18.937 237.906,18.937ZM272.555,14.662C273.388,14.662 274.065,15.339 274.065,16.173C274.065,17.006 273.388,17.683 272.555,17.683C271.721,17.683 271.044,17.006 271.044,16.173C271.044,15.339 271.721,14.662 272.555,14.662ZM5.135,15.147C5.552,15.147 5.89,15.485 5.89,15.902C5.89,16.319 5.552,16.657 5.135,16.657C4.718,16.657 4.38,16.319 4.38,15.902C4.38,15.485 4.718,15.147 5.135,15.147ZM197.585,14.754C198.002,14.754 198.34,15.092 198.34,15.509C198.34,15.926 198.002,16.264 197.585,16.264C197.168,16.264 196.83,15.926 196.83,15.509C196.83,15.092 197.168,14.754 197.585,14.754ZM111.197,13.152C112.031,13.152 112.708,13.828 112.708,14.662C112.708,15.496 112.031,16.173 111.197,16.173C110.364,16.173 109.687,15.496 109.687,14.662C109.687,13.828 110.364,13.152 111.197,13.152ZM48.165,11.641C48.998,11.641 49.675,12.318 49.675,13.152C49.675,13.985 48.998,14.662 48.165,14.662C47.331,14.662 46.654,13.985 46.654,13.152C46.654,12.318 47.331,11.641 48.165,11.641ZM210.138,11.641C210.972,11.641 211.649,12.318 211.649,13.152C211.649,13.985 210.972,14.662 210.138,14.662C209.305,14.662 208.628,13.985 208.628,13.152C208.628,12.318 209.305,11.641 210.138,11.641ZM88.195,13.028C88.611,13.028 88.95,13.366 88.95,13.783C88.95,14.2 88.611,14.538 88.195,14.538C87.778,14.538 87.439,14.2 87.439,13.783C87.439,13.366 87.778,13.028 88.195,13.028ZM28.912,11.074C29.329,11.074 29.668,11.412 29.668,11.829C29.668,12.246 29.329,12.584 28.912,12.584C28.496,12.584 28.157,12.246 28.157,11.829C28.157,11.412 28.496,11.074 28.912,11.074ZM247.769,10.945C248.186,10.945 248.524,11.283 248.524,11.7C248.524,12.117 248.186,12.455 247.769,12.455C247.352,12.455 247.014,12.117 247.014,11.7C247.014,11.283 247.352,10.945 247.769,10.945ZM167.065,10.74C167.482,10.74 167.82,11.079 167.82,11.496C167.82,11.912 167.482,12.251 167.065,12.251C166.648,12.251 166.31,11.912 166.31,11.496C166.31,11.079 166.648,10.74 167.065,10.74Z" style="fill:#e4f9ff;"/>
    </g>
    <defs>
        <linearGradient id="_Linear1" x1="0" y1="0" x2="1" y2="0" gradientUnits="userSpaceOnUse" gradientTransform="matrix(9.53449e-15,-155.71,155.71,9.53449e-15,150,332.23)"><stop offset="0" style="stop-color:#9dc6ea;stop-opacity:1"/><stop offset="0.69" style="stop-color:#416eb5;stop-opacity:1"/><stop offset="1" style="stop-color:#416eb5;stop-opacity:1"/></linearGradient>
        <linearGradient id="_Linear2" x1="0" y1="0" x2="1" y2="0" gradientUnits="userSpaceOnUse" gradientTransform="matrix(7.41095e-15,-121.03,121.03,7.41095e-15,150,163.95)"><stop offset="0" style="stop-color:#9dc6ea;stop-opacity:1"/><stop offset="0.94" style="stop-color:#416eb5;stop-opacity:1"/><stop offset="1" style="stop-color:#416eb5;stop-opacity:1"/></linearGradient>
    </defs>
</svg>
