<svg id="Layer_1" data-name="Layer 1" xmlns="http://www.w3.org/2000/svg" viewBox="0 0 300 345"><g id="assets"><g id="eyes"><path d="M206.2,198.83a36.45,36.45,0,0,0,36.46,36.45c54.17,0,36.45-72.91,36.45-72.91H242.66A36.46,36.46,0,0,0,206.2,198.83Z" fill="#fabc2e"/><path d="M206.2,209c0,20.13,16.32,29.66,36.46,29.66,48.89,0,40.44-65.06,40.44-65.06s-20.31-1.06-40.44-1.06A36.46,36.46,0,0,0,206.2,209Z" fill="#fff"/><path d="M268.34,200.74a16.49,16.49,0,0,1-23.95-22.35,29.75,29.75,0,0,0-4-.29,28.61,28.61,0,1,0,28,22.64Zm-40,24.66a6.81,6.81,0,1,1,6.8-6.81A6.81,6.81,0,0,1,228.35,225.4Z" fill="#141319"/><path d="M93.8,198.83a36.45,36.45,0,0,1-36.46,36.45c-54.17,0-36.45-72.91-36.45-72.91H57.34A36.46,36.46,0,0,1,93.8,198.83Z" fill="#fabc2e"/><path d="M93.8,209c0,20.13-16.32,29.66-36.46,29.66-48.89,0-40.44-65.06-40.44-65.06s20.31-1.06,40.44-1.06A36.46,36.46,0,0,1,93.8,209Z" fill="#fff"/><path d="M87.63,200.74a16.49,16.49,0,0,1-24-22.35,29.63,29.63,0,0,0-4-.29,28.61,28.61,0,1,0,28,22.64Zm-40,24.66a6.81,6.81,0,1,1,6.8-6.81A6.81,6.81,0,0,1,47.63,225.4Z" fill="#141319"/></g></g></svg>