<svg id="Layer_1" data-name="Layer 1" xmlns="http://www.w3.org/2000/svg" xmlns:xlink="http://www.w3.org/1999/xlink" viewBox="0 0 300 345"><defs><radialGradient id="radial-gradient" cx="148.64" cy="45.42" r="105.02" gradientTransform="translate(0 29.01) scale(1 0.36)" gradientUnits="userSpaceOnUse"><stop offset="0" stop-color="#fff100" stop-opacity="0"/><stop offset="0.26" stop-color="#fff100" stop-opacity="0.01"/><stop offset="0.36" stop-color="#fff100" stop-opacity="0.03"/><stop offset="0.43" stop-color="#fff100" stop-opacity="0.08"/><stop offset="0.49" stop-color="#fff100" stop-opacity="0.15"/><stop offset="0.54" stop-color="#fff100" stop-opacity="0.24"/><stop offset="0.59" stop-color="#fff100" stop-opacity="0.35"/><stop offset="0.63" stop-color="#fff100" stop-opacity="0.48"/><stop offset="0.67" stop-color="#fff100" stop-opacity="0.63"/><stop offset="0.7" stop-color="#fff100" stop-opacity="0.8"/><stop offset="0.73" stop-color="#fff100" stop-opacity="0.98"/><stop offset="0.74" stop-color="#fff100"/><stop offset="1" stop-color="#fff100" stop-opacity="0"/></radialGradient></defs><g id="assets"><g id="hat"><path d="M218.51,14C200.05,8.09,175.72,4.85,150,4.85S100,8.09,81.49,14C52.85,23.09,46.84,36,46.84,45.21s6,22.12,34.65,31.24C100,82.33,124.28,85.57,150,85.57s50.05-3.24,68.51-9.12c28.64-9.12,34.65-22,34.65-31.24S247.15,23.09,218.51,14ZM110.26,39.37A226.71,226.71,0,0,1,150,36.15a226.71,226.71,0,0,1,39.74,3.22l.09,0a1.77,1.77,0,0,1,0,3.47l-.09,0A226.71,226.71,0,0,1,150,46.1a226.71,226.71,0,0,1-39.74-3.22l-.09,0a1.77,1.77,0,0,1,0-3.47Z" fill="url(#radial-gradient)"/><path d="M84.63,45.21c7.64-6.84,34-11.89,65.37-11.89s57.73,5,65.38,11.89h18.88C234.26,29,200.9,19.42,150,19.42S65.74,29,65.74,45.21Z" fill="#cd8029"/><path d="M150,15.85C99.1,15.85,57.84,29,57.84,45.21S99.1,74.57,150,74.57s92.16-13.14,92.16-29.36S200.9,15.85,150,15.85Zm0,41.25c-37.34,0-67.61-7.15-67.61-16s30.27-16,67.61-16,67.61,7.15,67.61,16S187.34,57.1,150,57.1Z" fill="#fabc2e"/><ellipse cx="216.54" cy="55.6" rx="7.21" ry="4.38" transform="translate(-4.89 86.4) rotate(-22.32)" fill="#fff100"/><circle cx="202.23" cy="60.07" r="3.89" fill="#fff100"/></g></g></svg>