<?xml version="1.0" encoding="UTF-8" standalone="no"?>
<!DOCTYPE svg PUBLIC "-//W3C//DTD SVG 1.1//EN" "http://www.w3.org/Graphics/SVG/1.1/DTD/svg11.dtd">
<svg width="100%" height="100%" viewBox="0 0 300 345" version="1.1" xmlns="http://www.w3.org/2000/svg" xmlns:xlink="http://www.w3.org/1999/xlink" xml:space="preserve" xmlns:serif="http://www.serif.com/" style="fill-rule:evenodd;clip-rule:evenodd;stroke-linejoin:round;stroke-miterlimit:2;">
    <g id="avatar_eyes_19">
        <path d="M268.301,164.123C274.927,170.725 279.03,179.857 279.03,189.94C279.03,210.057 262.697,226.39 242.58,226.39C222.463,226.39 206.13,210.057 206.13,189.94C206.13,187.449 206.38,185.017 206.857,182.668L268.301,164.123Z" style="fill:#fabc2e;"/>
        <path d="M263.573,170.267C272.921,176.868 279.03,187.756 279.03,200.06C279.03,220.177 262.697,236.51 242.58,236.51C222.463,236.51 206.13,220.177 206.13,200.06C206.13,195.405 207.005,190.952 208.598,186.859L263.573,170.267Z" style="fill:#fff;"/>
        <path d="M235.542,178.727L215.739,184.704C212.28,188.734 210.18,193.956 210.18,199.63C210.18,212.247 220.563,222.63 233.18,222.63C245.797,222.63 256.18,212.247 256.18,199.63C256.18,197.948 255.996,196.272 255.63,194.63L255.63,194.64C253.326,196.4 250.505,197.354 247.605,197.354C240.353,197.354 234.385,191.386 234.385,184.134C234.385,182.263 234.783,180.42 235.542,178.727Z" style="fill:#141319;fill-rule:nonzero;"/>
        <path d="M263.572,170.267C267.526,173.058 270.9,176.617 273.478,180.725L206.13,200.06C206.13,195.405 207.005,190.952 208.598,186.859L263.572,170.267Z" style="fill:#cd8e2a;"/>
        <g transform="matrix(-1,0,0,1,300.01,1.42109e-14)">
            <path d="M268.301,164.123C274.927,170.725 279.03,179.857 279.03,189.94C279.03,210.057 262.697,226.39 242.58,226.39C222.463,226.39 206.13,210.057 206.13,189.94C206.13,187.449 206.38,185.017 206.857,182.668L268.301,164.123Z" style="fill:#fabc2e;"/>
        </g>
        <g transform="matrix(-1,0,0,1,300.01,1.42109e-14)">
            <path d="M263.573,170.267C272.921,176.868 279.03,187.756 279.03,200.06C279.03,220.177 262.697,236.51 242.58,236.51C222.463,236.51 206.13,220.177 206.13,200.06C206.13,195.405 207.005,190.952 208.598,186.859L263.573,170.267Z" style="fill:#fff;"/>
        </g>
        <g transform="matrix(-1,0,0,1,300.01,1.42109e-14)">
            <path d="M235.542,178.727L215.739,184.704C212.28,188.734 210.18,193.956 210.18,199.63C210.18,212.247 220.563,222.63 233.18,222.63C245.797,222.63 256.18,212.247 256.18,199.63C256.18,197.948 255.996,196.272 255.63,194.63L255.63,194.64C253.326,196.4 250.505,197.354 247.605,197.354C240.353,197.354 234.385,191.386 234.385,184.134C234.385,182.263 234.783,180.42 235.542,178.727Z" style="fill:#141319;fill-rule:nonzero;"/>
        </g>
        <g transform="matrix(-1,0,0,1,300.01,1.42109e-14)">
            <path d="M263.572,170.267C267.526,173.058 270.9,176.617 273.478,180.725L206.13,200.06C206.13,195.405 207.005,190.952 208.598,186.859L263.572,170.267Z" style="fill:#cd8e2a;"/>
        </g>
    </g>
</svg>
