<?xml version="1.0" encoding="UTF-8" standalone="no"?>
<!DOCTYPE svg PUBLIC "-//W3C//DTD SVG 1.1//EN" "http://www.w3.org/Graphics/SVG/1.1/DTD/svg11.dtd">
<svg width="100%" height="100%" viewBox="0 0 300 345" version="1.1" xmlns="http://www.w3.org/2000/svg" xmlns:xlink="http://www.w3.org/1999/xlink" xml:space="preserve" xmlns:serif="http://www.serif.com/" style="fill-rule:evenodd;clip-rule:evenodd;stroke-linejoin:round;stroke-miterlimit:2;">
    <g id="avatar_eyes_21" transform="matrix(1,0,0,1,-0.0744464,-0.306056)">
        <g transform="matrix(1.0491,0,0,1,-13.4015,0)">
            <path d="M209.256,204.894C209.256,184.776 217.314,159.527 242.58,155.714C262.492,152.709 279.03,169.823 279.03,189.94C279.03,210.057 262.697,222.63 242.58,222.63C221.493,222.63 215.314,212.047 209.256,204.894" style="fill:#fabc2e;"/>
        </g>
        <path d="M210.311,209.743C214.403,217.281 222.239,222.235 231.209,224.561C244.042,227.889 263.175,223.379 273.787,216.957C276.211,215.49 278.168,209.181 280.716,202.952C281.724,200.488 279.33,195.408 279.33,195.408L210.311,209.743" style="fill:#d83154;"/>
        <g transform="matrix(1.03813,0,0,0.956936,-10.6393,9.58734)">
            <path d="M209.256,204.894C209.256,184.776 217.314,159.527 242.58,155.714C262.492,152.709 279.03,169.823 279.03,189.94C279.03,210.057 262.697,222.63 242.58,222.63C221.493,222.63 215.314,212.047 209.256,204.894" style="fill:#a5e3ff;"/>
        </g>
        <g transform="matrix(1,0,0,1,0,4.84365)">
            <path d="M206.13,200.06C214.908,160.764 263.976,156.988 279.03,189.94C274.279,222.63 223.905,233.943 206.13,200.06Z" style="fill:#fff;"/>
        </g>
        <path d="M206.13,204.888C206.003,204.655 205.794,204.315 205.857,204.032C214.065,167.291 249.405,161.483 272.983,179.311C275.773,181.421 285.592,188.071 285.592,188.071C285.592,188.071 285.402,191.768 282.541,192.844C282.445,192.88 282.626,193.029 282.668,193.122C282.988,193.821 283.099,194.598 282.988,195.359C282.239,200.514 281.307,204.355 277.904,207.805C274.27,211.488 266.118,216.621 266.118,216.621C272.838,211.345 277.706,203.894 279.03,194.784C271.503,178.307 255.473,171.013 240.227,172.75C224.985,174.487 210.528,185.249 206.134,204.888L206.13,204.888Z"/>
        <g transform="matrix(1,0,0,1,3.49779,0)">
            <path d="M255.63,194.64C253.326,196.4 250.505,197.354 247.605,197.354C240.353,197.354 234.385,191.386 234.385,184.134C234.385,181.553 235.142,179.027 236.56,176.87C235.46,176.714 234.351,176.634 233.24,176.63C233.22,176.63 233.2,176.63 233.18,176.63C220.563,176.63 210.18,187.012 210.18,199.63C210.18,212.247 220.563,222.63 233.18,222.63C245.797,222.63 256.18,212.247 256.18,199.63C256.18,197.948 255.996,196.272 255.63,194.63L255.63,194.64Z" style="fill:#141319;fill-rule:nonzero;"/>
        </g>
        <g transform="matrix(-1.0491,0,0,1,313.55,0)">
            <path d="M209.256,204.894C209.256,184.776 217.314,159.527 242.58,155.714C262.492,152.709 279.03,169.823 279.03,189.94C279.03,210.057 262.697,222.63 242.58,222.63C221.493,222.63 215.314,212.047 209.256,204.894" style="fill:#fabc2e;"/>
        </g>
        <g transform="matrix(-1,0,0,1,300.149,0)">
            <path d="M210.311,209.743C214.403,217.281 222.239,222.235 231.209,224.561C244.042,227.889 263.175,223.379 273.787,216.957C276.211,215.49 278.168,209.181 280.716,202.952C281.724,200.488 279.33,195.408 279.33,195.408L210.311,209.743" style="fill:#d83154;"/>
        </g>
        <g transform="matrix(-1.03813,0,0,0.956936,310.788,9.58734)">
            <path d="M209.256,204.894C209.256,184.776 217.314,159.527 242.58,155.714C262.492,152.709 279.03,169.823 279.03,189.94C279.03,210.057 262.697,222.63 242.58,222.63C221.493,222.63 215.314,212.047 209.256,204.894" style="fill:#a5e3ff;"/>
        </g>
        <g transform="matrix(-1,0,0,1,300.149,4.84365)">
            <path d="M206.13,200.06C214.908,160.764 263.976,156.988 279.03,189.94C274.279,222.63 223.905,233.943 206.13,200.06Z" style="fill:#fff;"/>
        </g>
        <g transform="matrix(-1,0,0,1,300.149,0)">
            <path d="M206.13,204.888C206.003,204.655 205.794,204.315 205.857,204.032C214.065,167.291 249.405,161.483 272.983,179.311C275.773,181.421 285.592,188.071 285.592,188.071C285.592,188.071 285.402,191.768 282.541,192.844C282.445,192.88 282.626,193.029 282.668,193.122C282.988,193.821 283.099,194.598 282.988,195.359C282.239,200.514 281.307,204.355 277.904,207.805C274.27,211.488 266.118,216.621 266.118,216.621C272.838,211.345 277.706,203.894 279.03,194.784C271.503,178.307 255.473,171.013 240.227,172.75C224.985,174.487 210.528,185.249 206.134,204.888L206.13,204.888Z"/>
        </g>
        <g transform="matrix(-1,0,0,1,296.651,0)">
            <path d="M255.63,194.64C253.326,196.4 250.505,197.354 247.605,197.354C240.353,197.354 234.385,191.386 234.385,184.134C234.385,181.553 235.142,179.027 236.56,176.87C235.46,176.714 234.351,176.634 233.24,176.63C233.22,176.63 233.2,176.63 233.18,176.63C220.563,176.63 210.18,187.012 210.18,199.63C210.18,212.247 220.563,222.63 233.18,222.63C245.797,222.63 256.18,212.247 256.18,199.63C256.18,197.948 255.996,196.272 255.63,194.63L255.63,194.64Z" style="fill:#141319;fill-rule:nonzero;"/>
        </g>
    </g>
</svg>
