<svg id="Layer_1" data-name="Layer 1" xmlns="http://www.w3.org/2000/svg" viewBox="0 0 110 140"><defs><style>.cls-1{fill:#0069ba;}.cls-2{fill:#fff;}.cls-3{fill:#00418b;}.cls-4{fill:#3d9ed9;}.cls-5{fill:#a1cfeb;}.cls-6{fill:#f3fbff;}</style></defs><polygon class="cls-1" points="55 0 55 140 0 82 55 0"/><polygon class="cls-2" points="55 0 55 98.9 6.93 84.13 0 82 55 0"/><polygon class="cls-3" points="55 0 55 140 110 82 55 0"/><polygon class="cls-4" points="55 0 55 98.9 110 82 55 0"/><polygon class="cls-5" points="33.34 44.75 6.93 84.13 25.62 89.87 47 87 55 52 55 29.6 33.34 44.75 33.34 44.75"/><polygon class="cls-6" points="25.62 89.87 55 98.9 25.62 89.87 25.62 89.87"/><polygon class="cls-2" points="55 52 47 87 25.62 89.87 55 98.9 55 52"/><polygon class="cls-2" points="110 82 106.68 77.05 106.68 77.05 105.17 74.8 104.75 74.17 104.75 74.17 76.97 32.76 99.35 79.64 91.35 87.73 110 82"/><polygon class="cls-2" points="55 115.98 55 128.37 55 132.77 55 140 88.1 105.1 59 131 55 115.98"/></svg>