<svg id="Layer_1" data-name="Layer 1" xmlns="http://www.w3.org/2000/svg" viewBox="0 0 124 154"><defs><style>.cls-1{fill:#0069ba;}.cls-2{fill:#fff;}.cls-3{fill:#00418b;}.cls-4{fill:#3d9ed9;}.cls-5{fill:#a1cfeb;}.cls-6{fill:#f3fbff;}.cls-7{fill:#003162;}</style></defs><polygon class="cls-1" points="62 7 62 147 7 89 62 7"/><polygon class="cls-2" points="62 7 62 105.9 13.93 91.13 7 89 62 7"/><polygon class="cls-3" points="62 7 62 147 117 89 62 7"/><polygon class="cls-4" points="62 7 62 105.9 117 89 62 7"/><polygon class="cls-5" points="40.34 51.75 13.93 91.13 32.62 96.87 54 94 62 59 62 36.6 40.34 51.75 40.34 51.75"/><polygon class="cls-6" points="32.62 96.87 62 105.9 32.62 96.87 32.62 96.87"/><polygon class="cls-6" points="62 59 54 94 32.62 96.87 62 105.9 62 59"/><polygon class="cls-2" points="118 87 114.68 82.05 113.17 79.8 112.75 79.17 84.97 37.76 107.35 84.64 99.35 92.73 118 87"/><polygon class="cls-2" points="62 124.98 62 137.37 62 141.77 62 149 95.1 114.1 68 136 62 124.98"/><path class="cls-7" d="M122.81,85.1l-3.31-4.95L118,77.9l-.42-.62L89.79,35.86,67.81,3.1a7,7,0,0,0-11.62,0l-55,82a7,7,0,0,0,.73,8.72l55,58a7,7,0,0,0,10.16,0l33.1-34.91,21.9-23.09A7,7,0,0,0,122.81,85.1ZM84,39.76h0l27.78,41.41.42.63,1.51,2.25,1.57,2.35L65,101.84V11.47ZM59,11.47v90.37L8.75,86.4Zm-47.8,82L59,108.12v35.72ZM95.1,112.1,65,143.84V108.12l47.8-14.69L95.1,112.1Z"/></svg>