<svg id="Layer_1" data-name="Layer 1" xmlns="http://www.w3.org/2000/svg" xmlns:xlink="http://www.w3.org/1999/xlink" viewBox="0 0 94 122"><defs><style>.cls-1{fill:url(#linear-gradient);}.cls-2{fill:#e21c19;}.cls-3{fill:#fff9c5;}.cls-4{fill:#f44219;}.cls-5{fill:#60060f;}</style><linearGradient id="linear-gradient" x1="47" y1="40.14" x2="47" y2="163.75" gradientUnits="userSpaceOnUse"><stop offset="0" stop-color="#860112"/><stop offset="0.53" stop-color="#be001a"/></linearGradient></defs><path class="cls-1" d="M88,18v86a12,12,0,0,1-12,12H18A12,12,0,0,1,6,104V18A12,12,0,0,1,18,6H76a11.92,11.92,0,0,1,3,.38A12,12,0,0,1,88,18Z"/><rect class="cls-2" x="6" y="6" width="82" height="72" rx="12"/><path class="cls-3" d="M14,21.45V43.53c0,7.12,7.86,11,13.12,6.56L53,28c5.88-5,2.51-15-5.07-15H22.05A8.26,8.26,0,0,0,14,21.45Z"/><rect class="cls-3" x="42.43" y="51.25" width="41.88" height="13.38" rx="6.69" transform="matrix(0.76, -0.65, 0.65, 0.76, -22.45, 55.08)"/><path class="cls-4" d="M88,78v26a12,12,0,0,1-12,12H18c-4.84,0,39-4,52-6S84,101,88,78Z"/><path class="cls-5" d="M76,6a10.7,10.7,0,0,1,1.39.09l.46.07c.3,0,.6.1.89.17l.26,0,.38.11.31.1.79.29.24.1a11.46,11.46,0,0,1,2,1.06l.14.1c.25.17.49.35.73.55l.22.19c.21.17.4.35.59.53s.16.15.23.23.36.39.54.59l.19.23c.19.24.38.48.55.73l.1.14c.21.31.4.62.58.95a1.17,1.17,0,0,1,0,.11c.15.28.29.57.42.86l.12.31c.1.24.19.47.27.72s.08.24.11.37.13.47.18.7l.09.39c0,.26.08.51.12.77s0,.23,0,.35A10.88,10.88,0,0,1,88,18v86a12,12,0,0,1-12,12H18a2,2,0,0,1-.36,0A12,12,0,0,1,6,104V18A12,12,0,0,1,18,6H76m0-6H18A18,18,0,0,0,0,18v86a18,18,0,0,0,17.11,18c.32,0,.61,0,.89,0H76a18,18,0,0,0,18-18V18c0-.55,0-1.11-.08-1.71l-.06-.49c-.06-.47-.12-.83-.19-1.19,0-.18-.08-.37-.12-.55-.09-.4-.18-.76-.28-1.1l-.17-.56c-.12-.34-.25-.7-.4-1.07l0-.05c-.05-.14-.11-.28-.17-.42-.17-.4-.37-.81-.58-1.21,0-.09-.09-.18-.14-.27-.25-.46-.54-.94-.85-1.4l-.19-.27c-.26-.36-.52-.71-.78-1l-.26-.31,0,0c-.27-.31-.53-.6-.8-.88l-.34-.34c-.28-.26-.57-.53-.88-.8l0,0L87.32,4c-.33-.27-.68-.53-1-.78L86,3.06A18.19,18.19,0,0,0,83.1,1.47l-.35-.15c-.42-.17-.81-.31-1.2-.43L81.09.75,80.51.57,80,.45C79.59.37,79.21.3,78.78.23H78.7c-.21,0-.41-.07-.62-.09A17.07,17.07,0,0,0,76,0Z"/></svg>