<svg id="Layer_1" data-name="Layer 1" xmlns="http://www.w3.org/2000/svg" xmlns:xlink="http://www.w3.org/1999/xlink" viewBox="0 0 82 110"><defs><style>.cls-1{fill:url(#linear-gradient);}.cls-2{fill:#e21c19;}.cls-3{fill:#fff9c5;}.cls-4{fill:#f44219;}</style><linearGradient id="linear-gradient" x1="41" y1="34.14" x2="41" y2="157.75" gradientUnits="userSpaceOnUse"><stop offset="0" stop-color="#860112"/><stop offset="0.53" stop-color="#be001a"/></linearGradient></defs><path class="cls-1" d="M82,12V98a12,12,0,0,1-12,12H12A12,12,0,0,1,0,98V12A12,12,0,0,1,12,0H70a11.92,11.92,0,0,1,3,.38A12,12,0,0,1,82,12Z"/><rect class="cls-2" width="82" height="72" rx="12"/><path class="cls-3" d="M8,15.45V37.53c0,7.12,7.86,11,13.12,6.56L47,22c5.88-5,2.51-15-5.07-15H16.05A8.26,8.26,0,0,0,8,15.45Z"/><rect class="cls-3" x="36" y="45.09" width="45.45" height="13.38" rx="6.69" transform="translate(-19.55 50.58) rotate(-40.53)"/><path class="cls-4" d="M82,72V98a12,12,0,0,1-12,12H12c-4.84,0,39-4,52-6S78,95,82,72Z"/></svg>