<svg id="Layer_1" data-name="Layer 1" xmlns="http://www.w3.org/2000/svg" viewBox="0 0 124 154"><defs><style>.cls-1{fill:#be001a;}.cls-2{fill:#fff9c5;}.cls-3{fill:#860112;}.cls-4{fill:#e21c19;}.cls-5{fill:#f44219;}.cls-6{fill:#f3fbff;}.cls-7{fill:#ff7b41;}.cls-8{fill:#60060f;}</style></defs><polygon class="cls-1" points="62 7 62 147 7 89 62 7"/><polygon class="cls-2" points="62 7 62 105.9 13.93 91.13 7 89 62 7"/><polygon class="cls-3" points="62 7 62 147 117 89 62 7"/><polygon class="cls-4" points="62 7 62 105.9 117 89 62 7"/><polygon class="cls-5" points="40.34 51.75 13.93 91.13 32.62 96.87 54 94 62 59 62 36.6 40.34 51.75 40.34 51.75"/><polygon class="cls-6" points="32.62 96.87 62 105.9 32.62 96.87 32.62 96.87"/><polygon class="cls-2" points="62 59 54 94 32.62 96.87 62 105.9 62 59"/><polygon class="cls-2" points="117 89 113.68 84.05 113.68 84.05 112.17 81.8 111.75 81.17 111.75 81.17 83.97 39.76 106.35 86.64 98.35 94.73 117 89"/><polygon class="cls-7" points="62 122.98 62 135.37 62 139.77 62 147 95.1 112.1 66 138 62 122.98"/><path class="cls-8" d="M62,7,84,39.76h0l27.78,41.41.42.63,1.51,2.25L117,89,95.1,112.1h0L62,147,7,89,62,7m0-7a7,7,0,0,0-5.81,3.1l-55,82a7,7,0,0,0,.73,8.72l55,58a7,7,0,0,0,10.16,0l33.1-34.91,21.9-23.09a7,7,0,0,0,.73-8.72l-3.31-4.95L118,77.9l-.42-.62L89.79,35.86,67.81,3.1A7,7,0,0,0,62,0Z"/></svg>