<?xml version="1.0" encoding="UTF-8" standalone="no"?>
<svg
   xmlns:dc="http://purl.org/dc/elements/1.1/"
   xmlns:cc="http://creativecommons.org/ns#"
   xmlns:rdf="http://www.w3.org/1999/02/22-rdf-syntax-ns#"
   xmlns:svg="http://www.w3.org/2000/svg"
   xmlns="http://www.w3.org/2000/svg"
   xmlns:xlink="http://www.w3.org/1999/xlink"
   version="1.1"
   viewBox="0 0 300 345"
   data-name="Layer 1"
   id="Layer_1">
  <metadata
     id="metadata7540">
    <rdf:RDF>
      <cc:Work
         rdf:about="">
        <dc:format>image/svg+xml</dc:format>
        <dc:type
           rdf:resource="http://purl.org/dc/dcmitype/StillImage" />
        <dc:title>blook_elf</dc:title>
      </cc:Work>
    </rdf:RDF>
  </metadata>
  <defs
     id="defs7462">
    <style
       id="style7450">.cls-1{fill:url(#linear-gradient);}.cls-2{fill:#ffcd05;}.cls-3{fill:#e3a441;}.cls-4{fill:url(#radial-gradient);}.cls-5{fill:#fabc2e;}.cls-10,.cls-6,.cls-7{fill:none;stroke-miterlimit:10;}.cls-6{stroke:#e3a441;}.cls-6,.cls-7{stroke-width:5px;}.cls-7{stroke:#81a03d;}.cls-8{fill:#a7d054;}.cls-9{fill:#81a03d;}.cls-10{stroke:#cd8e2a;stroke-width:8.99px;}.cls-11{fill:#fff;}.cls-12{fill:#4cc9f5;}.cls-13{fill:#fff0a4;}.cls-14{fill:#f4d98d;}</style>
    <linearGradient
       gradientUnits="userSpaceOnUse"
       y2="161.16"
       x2="150"
       y1="356.11"
       x1="150"
       id="linear-gradient">
      <stop
         id="stop7452"
         stop-color="#fabc2e"
         offset="0" />
      <stop
         id="stop7454"
         stop-color="#cd8029"
         offset="1" />
    </linearGradient>
    <radialGradient
       gradientUnits="userSpaceOnUse"
       r="48.77"
       cy="303.51"
       cx="55.1"
       id="radial-gradient">
      <stop
         id="stop7457"
         stop-color="#f6a9cb"
         offset="0" />
      <stop
         id="stop7459"
         stop-opacity="0"
         stop-color="#f3c1da"
         offset="1" />
    </radialGradient>
    <style
       id="style8357">.cls-1{fill:url(#linear-gradient);}.cls-2{fill:#ffcd05;}.cls-3{fill:#e3a441;}.cls-4{fill:url(#radial-gradient);}.cls-5{fill:#fabc2e;}.cls-10,.cls-6,.cls-7{fill:none;stroke-miterlimit:10;}.cls-6{stroke:#e3a441;}.cls-6,.cls-7{stroke-width:5px;}.cls-7{stroke:#81a03d;}.cls-8{fill:#a7d054;}.cls-9{fill:#81a03d;}.cls-10{stroke:#cd8e2a;stroke-width:8.99px;}.cls-11{fill:#fff;}.cls-12{fill:#4cc9f5;}.cls-13{fill:#fff0a4;}.cls-14{fill:#f4d98d;}</style>
    <radialGradient
       id="radial-gradient-2"
       cx="55.1"
       cy="303.51"
       r="48.77"
       gradientUnits="userSpaceOnUse">
      <stop
         offset="0"
         stop-color="#f6a9cb"
         id="stop8364" />
      <stop
         offset="1"
         stop-color="#f3c1da"
         stop-opacity="0"
         id="stop8366" />
    </radialGradient>
    <radialGradient
       id="radial-gradient-2-9"
       cx="55.099998"
       cy="303.51001"
       r="48.77"
       gradientUnits="userSpaceOnUse">
      <stop
         offset="0"
         stop-color="#f6a9cb"
         id="stop8364-1" />
      <stop
         offset="1"
         stop-color="#f3c1da"
         stop-opacity="0"
         id="stop8366-8" />
    </radialGradient>
    <radialGradient
       id="radial-gradient-2-8"
       cx="55.099998"
       cy="303.51001"
       r="48.77"
       gradientUnits="userSpaceOnUse">
      <stop
         offset="0"
         stop-color="#f6a9cb"
         id="stop8364-3" />
      <stop
         offset="1"
         stop-color="#f3c1da"
         stop-opacity="0"
         id="stop8366-3" />
    </radialGradient>
    <linearGradient
       gradientTransform="translate(401.36941,-1.1290342)"
       y2="161.16"
       x2="150"
       y1="356.10999"
       x1="150"
       gradientUnits="userSpaceOnUse"
       id="linearGradient8775-9"
       xlink:href="#linear-gradient" />
    <radialGradient
       gradientTransform="translate(401.36941,-1.1290342)"
       r="48.77"
       cy="303.51001"
       cx="55.099998"
       gradientUnits="userSpaceOnUse"
       id="radialGradient8777-8"
       xlink:href="#radial-gradient-2-8-4" />
    <radialGradient
       id="radial-gradient-2-8-4"
       cx="55.099998"
       cy="303.51001"
       r="48.77"
       gradientUnits="userSpaceOnUse">
      <stop
         offset="0"
         stop-color="#f6a9cb"
         id="stop8364-3-9" />
      <stop
         offset="1"
         stop-color="#f3c1da"
         stop-opacity="0"
         id="stop8366-3-5" />
    </radialGradient>
  </defs>
  <title
     id="title7464">blook_elf</title>
  <g
     data-name="medieval fantasy"
     id="medieval_fantasy">
    <g
       data-name="medieval fantasy"
       id="g8561"
       transform="translate(-6.6407827,459.64266)">
      <g
         id="g10200"
         transform="translate(-394.7286,-458.51363)">
        <path
           id="path8705-1"
           d="M 664.98937,343.87097 H 437.74941 a 36.38,36.38 0 0 1 -36.38,-36.38 v -49.48 h 299.99996 v 49.48 a 36.38,36.38 0 0 1 -36.38,36.38 z"
           class="cls-1"
           style="fill:url(#linearGradient8775-9)" />
        <rect
           id="rect8707-8"
           rx="36.380001"
           height="253.39"
           width="300"
           y="43.870968"
           class="cls-2"
           x="401.36938"
           style="fill:#ffcd05" />
        <path
           id="path8709-1"
           d="m 664.98937,297.26097 h -67.42 a 70.79,70.79 0 0 0 -6.4,29.47 v 17.14 h 69.71 a 40.49,40.49 0 0 0 40.49,-40.49 v -42.51 a 36.38,36.38 0 0 1 -36.38,36.39 z"
           class="cls-3"
           style="fill:#e3a441" />
        <path
           style="fill:url(#radialGradient8777-8)"
           id="path8711-6"
           d="m 401.36941,260.87097 v 42.5 a 40.49,40.49 0 0 0 40.49,40.5 h 69.70999 v -17.14 a 70.79,70.79 0 0 0 -6.4,-29.47 h -67.41999 a 36.38,36.38 0 0 1 -36.38,-36.39 z"
           class="cls-4" />
        <path
           id="path8713-1"
           d="m 597.56937,297.26097 h 67.42 a 36.38,36.38 0 0 0 36.38,-36.39 v -5.25 h -39.1 a 71.1,71.1 0 0 0 -64.7,41.64 z"
           class="cls-5"
           style="fill:#fabc2e" />
        <path
           id="path8715-3"
           d="m 440.46941,255.63097 h -39.1 v 5.24 a 36.38,36.38 0 0 0 36.38,36.38 h 67.41999 a 71.1,71.1 0 0 0 -64.69999,-41.62 z"
           class="cls-5"
           style="fill:#fabc2e" />
        <path
           id="path8717-3"
           d="m 482.47941,312.78097 c 0,0 26.35999,11.78 68.88999,11.78 42.52997,0 69.27997,-11.78 69.27997,-11.78"
           class="cls-6"
           style="fill:none;stroke:#e3a441;stroke-width:5px;stroke-miterlimit:10" />
        <path
           id="path8719-4"
           d="m 482.47941,303.78097 c 0,0 26.35999,11.78 68.88999,11.78 42.52997,0 69.27997,-11.78 69.27997,-11.78"
           class="cls-7"
           style="fill:none;stroke:#813d8f;stroke-width:5px;stroke-miterlimit:10;stroke-opacity:1" />
        <path
           id="path8721-7"
           d="m 602.36937,343.87097 h 62.64 a 36.38,36.38 0 0 0 36.36,-36.38 v -42.91 h -35.13 a 63.89,63.89 0 0 0 -63.87,63.89 z"
           class="cls-8"
           style="fill:#9a49aa;fill-opacity:1" />
        <path
           id="path8723-5"
           d="m 500.3694,343.87097 h -62.61999 a 36.38,36.38 0 0 1 -36.38,-36.38 v -42.91 h 35.13 a 63.89,63.89 0 0 1 63.86999,63.89 z"
           class="cls-8"
           style="fill:#9a49aa;fill-opacity:1" />
        <path
           id="path8725-0"
           d="m 612.62937,342.21097 v 1.66 h 5 v -1.66 a 61.46,61.46 0 0 1 61.39,-61.34 h 22.35 v -5 h -22.35 a 66.46,66.46 0 0 0 -66.39,66.34 z"
           class="cls-9"
           style="fill:#71367d;fill-opacity:1" />
        <path
           id="path8727-8"
           d="m 423.71941,275.87097 h -22.35 v 5 h 22.35 a 61.46,61.46 0 0 1 61.39,61.39 v 1.61 h 5 v -1.66 a 66.46,66.46 0 0 0 -66.39,-66.34 z"
           class="cls-9"
           style="fill:#71367d;fill-opacity:1" />
        <line
           id="line8729-5"
           y2="258.01099"
           x2="575.11938"
           y1="258.01099"
           x1="527.61938"
           class="cls-10"
           style="fill:none;stroke:#cd8e2a;stroke-width:8.98999977px;stroke-miterlimit:10" />
        <circle
           id="circle8731-9"
           r="36.450001"
           cy="193.75098"
           cx="643.9494"
           class="cls-5"
           style="fill:#fabc2e" />
        <circle
           id="circle8733-9"
           r="36.450001"
           cy="193.75098"
           cx="458.78937"
           class="cls-5"
           style="fill:#fabc2e" />
        <circle
           id="circle8735-5"
           r="36.450001"
           cy="203.87097"
           cx="643.9494"
           class="cls-11"
           style="fill:#ffffff" />
        <circle
           id="circle8737-0"
           r="36.450001"
           cy="203.87097"
           cx="458.78937"
           class="cls-11"
           style="fill:#ffffff" />
        <path
           id="path8739-5"
           d="m 490.54941,198.58097 a 13.21,13.21 0 0 1 -19.18,-17.91 23,23 0 1 0 19.19,17.91 z m -32,19.75 a 5.45,5.45 0 1 1 5.41,-5.46 5.45,5.45 0 0 1 -5.45,5.46 z"
           class="cls-12"
           style="fill:#9a49aa;fill-opacity:1" />
        <path
           id="path8741-8"
           d="m 656.99937,198.45097 a 13.22,13.22 0 0 1 -19.07,-17.77 23,23 0 1 0 19.07,17.77 z m -32.22,19.88 a 5.45,5.45 0 1 1 5.46,-5.45 5.45,5.45 0 0 1 -5.46,5.45 z"
           class="cls-12"
           style="fill:#9a49aa;fill-opacity:1" />
        <path
           id="path8743-2"
           d="M 664.98937,43.870966 H 437.74941 a 36.38,36.38 0 0 0 -36.38,36.38 v 45.370004 a 159.62,159.62 0 0 0 35.09,3.86 c 42.36,0 79.79999,6.07 102.42999,-10.91 0.33,-0.25 0.68,-0.48 1,-0.71 2.41,11.21 10.65,29.3 38.08997,41.63 0,0 -18.42,-18.26 -20.48997,-44.14 a 20.6,20.6 0 0 1 6.32997,3.22 c 22.63,17 60.07,10.91 102.43,10.91 a 159.62,159.62 0 0 0 35.12,-3.86 V 80.250966 a 36.38,36.38 0 0 0 -36.38,-36.38 z"
           class="cls-5"
           style="fill:#fabc2e" />
        <path
           id="path8745-2"
           d="M 664.98937,43.870966 H 437.74941 a 36.38,36.38 0 0 0 -36.38,36.38 v 45.370004 a 159.62,159.62 0 0 0 35.09,3.86 c 51.51,0 95.73999,-9.75 114.90999,-44.140004 0,0 -8,48.000004 34.36997,67.000004 0,0 -21.16,-21 -20.66,-49.82 22.74,20.57 59.59,26.94 101.2,26.94 a 159.62,159.62 0 0 0 35.09,-3.84 V 80.250966 a 36.38,36.38 0 0 0 -36.38,-36.38 z"
           class="cls-13"
           style="fill:#fff0a4" />
        <path
           id="path8747-2"
           d="m 563.09937,64.410966 a 56.43,56.43 0 0 0 6.21,7.85 92.77,92.77 0 0 0 7,6.85 120.32,120.32 0 0 0 15.78,11.5 c 1.39,0.85 2.77,1.73 4.18,2.56 l 4.31,2.36 2.15,1.21 2.26,1.129995 c 1.47,0.73 2.94,1.49 4.41,2.249999 3,1.44 6,2.78001 9,4.30001 3.06,1.34 6.15,2.67 9.2,4.28 -3.39,-0.32 -6.75,-0.91 -10.13,-1.48 -3.3,-0.83 -6.62,-1.67 -9.88,-2.73 q -2.42,-0.87 -4.82,-1.8 l -2.4,-0.93001 -2.34,-1.1 -4.64,-2.279999 c -1.5,-0.849995 -3,-1.759995 -4.46,-2.639995 a 71.13,71.13 0 0 1 -15.94,-13.27 54.17,54.17 0 0 1 -6.08,-8.45 32.07,32.07 0 0 1 -3.81,-9.61 z"
           class="cls-14"
           style="fill:#f4d98d" />
        <path
           id="path8749-5"
           d="m 565.81937,56.280966 c 4.89,1.82 9.62,3.48 14.37,5.05 4.75,1.57 9.46,3.05 14.24,4.34 4.78,1.29 9.57,2.57 14.46,3.62 2.43,0.63 4.9,1.06 7.37,1.66 2.47,0.6 5,1 7.52,1.78 -1.27,0.3 -2.55,0.51 -3.84,0.71 a 34.19,34.19 0 0 1 -3.88,0.46 61.69,61.69 0 0 1 -7.81,0.06 70.12,70.12 0 0 1 -15.42,-2.51 69.25,69.25 0 0 1 -14.52,-5.81 46.68,46.68 0 0 1 -12.49,-9.36 z"
           class="cls-14"
           style="fill:#f4d98d" />
        <path
           id="path8751-8"
           d="m 550.4194,64.510966 a 56.11,56.11 0 0 1 -11.91,16 81.37,81.37 0 0 1 -16,12.12 c -0.72,0.45 -1.47,0.83 -2.21,1.21 l -2.24,1.16 -2.25,1.13 c -0.75,0.37 -1.54,0.68 -2.31,1 -1.56,0.63 -3.1,1.279995 -4.66,1.879995 -1.56,0.6 -3.2,0.999999 -4.8,1.519999 a 42,42 0 0 1 -4.88,1.34 c -1.64,0.35001 -3.27,0.67001 -4.90999,1.00001 l -1.23,0.21 -1.24,0.13 c -0.84,0.09 -1.66,0.19 -2.49,0.24 -1.66,0.13 -3.32,0.26 -5,0.3 1.53,-0.7 3.06,-1.32 4.59,-1.92001 1.53,-0.6 3.09,-1.07 4.56,-1.8 2.99999,-1.339999 5.99999,-2.389994 8.90999,-3.829994 l 4.39,-2 c 1.42,-0.74 2.86,-1.44 4.29,-2.16 0.7,-0.36 1.44,-0.67 2.14,-1.06 l 2.09,-1.16 c 1.39,-0.78 2.83,-1.46 4.18,-2.31 a 167.44,167.44 0 0 0 16,-10.5 158,158 0 0 0 14.98,-12.5 z"
           class="cls-14"
           style="fill:#f4d98d" />
        <path
           id="path8753-7"
           d="m 537.1394,58.090966 a 68.54,68.54 0 0 1 -7.33,7.13 c -2.59,2.21 -5.31,4.26 -8.1,6.21 a 115.55,115.55 0 0 1 -17.81,10.08 97.15,97.15 0 0 1 -19.52999,6.45 c -1.69,0.31 -3.38,0.61 -5.07,0.88 -1.69,0.27 -3.43,0.34 -5.13,0.5 a 39.9,39.9 0 0 1 -5.13,0.11 c -1.72,-0.07 -3.42,-0.16 -5.11,-0.32 6.61,-1.79 13,-3.49 19.18,-5.72 6.18,-2.23 12.29999,-4.63 18.29999,-7.37 6,-2.74 11.93,-5.61 17.85,-8.64 5.92,-3.03 11.83,-6.16 17.88,-9.31 z"
           class="cls-14"
           style="fill:#f4d98d" />
        <path
           id="path8755-5"
           d="M 701.36937,129.94097 V -1.1290342 c 0,0 -51.63,25.1100002 -51.63,131.0700042"
           class="cls-2"
           style="fill:#ffcd05" />
        <path
           id="path8757-8"
           d="m 685.14937,49.040966 c 0,0 15.54,22.55 -9.59,80.180004 0,0 -6.64,-38.680004 9.59,-80.180004 z"
           class="cls-5"
           style="fill:#fabc2e" />
        <path
           id="path8759-5"
           d="m 695.70937,15.530966 c -1.27,5 -2.67,9.87 -4.09,14.74 -1.42,4.87 -2.87,9.72 -4.31,14.56 -1.44,4.84 -2.85,9.68 -4.11,14.56 -1.26,4.88 -2.4,9.79 -3.44,14.7 a 205.88,205.88 0 0 0 -4.12,29.710004 114.8,114.8 0 0 0 0,14.84 79.92,79.92 0 0 0 2.27,14.5 v 0 a 2.5028184,2.5028184 0 0 1 -4.8,1.42 73.55,73.55 0 0 1 -3.15,-15.46 c -0.29,-2.61 -0.37,-5.22 -0.48,-7.83 -0.11,-2.61 0,-5.21 0.14,-7.8 a 142.46,142.46 0 0 1 1.53,-15.460004 q 1.22,-7.62 2.92,-15.14 a 275.34,275.34 0 0 1 8.58,-29.55 c 1.72,-4.83 3.61,-9.59 5.78,-14.23 a 109.06,109.06 0 0 1 7.28,-13.56 z"
           class="cls-3"
           style="fill:#e3a441" />
        <path
           id="path8761-8"
           d="m 686.71937,43.970966 c 0.43,0.72 0.73,1.28 1,1.91 0.27,0.63 0.6,1.24 0.87,1.86 0.27,0.62 0.52,1.25 0.76,1.88 0.24,0.63 0.49,1.26 0.68,1.91 l 0.61,1.92 c 0.2,0.64 0.35,1.29 0.52,1.94 0.35,1.3 0.6,2.61 0.83,3.92 a 68.84,68.84 0 0 1 0.9,15.88 70.93,70.93 0 0 1 -0.93,7.85 c -0.24,1.29 -0.38,2.6 -0.71,3.88 -0.33,1.28 -0.61,2.55 -0.94,3.81 -0.17,0.64 -0.31,1.28 -0.52,1.89 l -0.67,1.85 c -0.44,1.23 -0.9,2.45 -1.39,3.659995 a 61.83,61.83 0 0 1 -3.69,6.910009 c 0.29,-2.64 0.84,-5.130009 1.33,-7.630004 0.34,-2.54 1,-5 1.31,-7.48 0.18,-1.25 0.39,-2.48 0.59,-3.72 0.2,-1.24 0.27,-2.49 0.42,-3.73 0.31,-2.48 0.31,-5 0.43,-7.46 a 80.57,80.57 0 0 0 -1.32,-14.74 c -0.23,-1.2 -0.47,-2.41 -0.8,-3.59 -0.16,-0.59 -0.28,-1.19 -0.45,-1.77 l -0.54,-1.75 c -0.16,-0.59 -0.38,-1.16 -0.58,-1.73 -0.2,-0.57 -0.39,-1.15 -0.62,-1.7 -0.23,-0.55 -0.45,-1.12 -0.69,-1.66 -0.24,-0.54 -0.51,-1.11 -0.72,-1.5 l -0.08,-0.16 a 2.5,2.5 0 0 1 4.35,-2.45 z"
           class="cls-3"
           style="fill:#e3a441" />
        <path
           id="path8763-5"
           d="M 401.36941,129.94097 V -1.1290342 c 0,0 51.63,25.1100002 51.63,131.0700042"
           class="cls-2"
           style="fill:#ffcd05" />
        <path
           id="path8765-2"
           d="m 417.58941,49.040966 c 0,0 -15.54,22.55 9.59,80.180004 0,0 6.64,-38.680004 -9.59,-80.180004 z"
           class="cls-5"
           style="fill:#fabc2e" />
        <path
           id="path8767-0"
           d="m 407.02941,15.530966 a 109.06,109.06 0 0 1 7.28,13.55 c 2.17,4.64 4.06,9.4 5.78,14.23 a 275.34,275.34 0 0 1 8.58,29.56 q 1.7,7.51 2.87,15.17 a 142.46,142.46 0 0 1 1.53,15.460004 c 0.15,2.59 0.14,5.19 0.14,7.8 0,2.61 -0.19,5.22 -0.48,7.83 a 73.55,73.55 0 0 1 -3.15,15.46 2.5014046,2.5014046 0 0 1 -4.8,-1.41 v 0 a 79.92,79.92 0 0 0 2.27,-14.5 114.8,114.8 0 0 0 0,-14.84 205.88,205.88 0 0 0 -4.12,-29.710004 q -1.56,-7.36 -3.44,-14.7 c -1.21,-4.92 -2.61,-9.76 -4.06,-14.56 -1.45,-4.8 -2.91,-9.72 -4.31,-14.6 -1.4,-4.88 -2.82,-9.76 -4.09,-14.74 z"
           class="cls-3"
           style="fill:#e3a441" />
        <path
           id="path8769-5"
           d="m 420.28941,46.580966 c -0.21,0.39 -0.49,1 -0.72,1.5 -0.23,0.5 -0.46,1.1 -0.69,1.66 -0.23,0.56 -0.42,1.13 -0.62,1.7 -0.2,0.57 -0.42,1.14 -0.58,1.73 l -0.54,1.75 c -0.17,0.58 -0.29,1.18 -0.45,1.77 -0.33,1.18 -0.57,2.39 -0.8,3.59 a 80.57,80.57 0 0 0 -1.32,14.74 c 0.12,2.48 0.12,5 0.43,7.46 0.15,1.24 0.19,2.5 0.42,3.73 0.23,1.23 0.41,2.47 0.59,3.72 0.33,2.5 1,4.94 1.31,7.48 0.49,2.499995 1,5.000004 1.33,7.630004 a 61.83,61.83 0 0 1 -3.69,-6.910009 c -0.49,-1.209995 -0.95,-2.429995 -1.39,-3.659995 l -0.67,-1.85 c -0.21,-0.61 -0.35,-1.25 -0.52,-1.89 -0.33,-1.26 -0.64,-2.54 -0.94,-3.81 -0.3,-1.27 -0.47,-2.59 -0.71,-3.88 a 70.93,70.93 0 0 1 -0.93,-7.85 68.84,68.84 0 0 1 0.9,-15.88 c 0.23,-1.31 0.48,-2.62 0.83,-3.92 0.17,-0.65 0.32,-1.3 0.52,-1.94 l 0.61,-1.92 c 0.19,-0.65 0.43,-1.28 0.68,-1.91 0.25,-0.63 0.47,-1.26 0.76,-1.88 0.29,-0.62 0.54,-1.24 0.87,-1.86 0.33,-0.62 0.62,-1.19 1.05,-1.91 a 2.5,2.5 0 0 1 4.35,2.44 z"
           class="cls-3"
           style="fill:#e3a441" />
        <ellipse
           id="ellipse8771-0"
           transform="rotate(-9.65)"
           ry="17.17"
           rx="29.610001"
           cy="248.51949"
           cx="610.68909"
           class="cls-13"
           style="fill:#fff0a4" />
        <ellipse
           id="ellipse8773-7"
           transform="rotate(-80.35)"
           ry="29.610001"
           rx="17.17"
           cy="476.42633"
           cx="-63.614033"
           class="cls-13"
           style="fill:#fff0a4" />
      </g>
    </g>
  </g>
</svg>
