<?xml version="1.0" encoding="UTF-8" standalone="no"?>
<svg
   xmlns:dc="http://purl.org/dc/elements/1.1/"
   xmlns:cc="http://creativecommons.org/ns#"
   xmlns:rdf="http://www.w3.org/1999/02/22-rdf-syntax-ns#"
   xmlns:svg="http://www.w3.org/2000/svg"
   xmlns="http://www.w3.org/2000/svg"
   xmlns:xlink="http://www.w3.org/1999/xlink"
   xmlns:sodipodi="http://sodipodi.sourceforge.net/DTD/sodipodi-0.dtd"
   xmlns:inkscape="http://www.inkscape.org/namespaces/inkscape"
   id="Layer_1"
   data-name="Layer 1"
   viewBox="0 0 300 345"
   version="1.1"
   sodipodi:docname="fireDragon.svg"
   inkscape:version="0.92.4 (5da689c313, 2019-01-14)">
  <metadata
     id="metadata1029">
    <rdf:RDF>
      <cc:Work
         rdf:about="">
        <dc:format>image/svg+xml</dc:format>
        <dc:type
           rdf:resource="http://purl.org/dc/dcmitype/StillImage" />
        <dc:title>blook_dragon</dc:title>
      </cc:Work>
    </rdf:RDF>
  </metadata>
  <sodipodi:namedview
     pagecolor="#ffffff"
     bordercolor="#666666"
     borderopacity="1"
     objecttolerance="10"
     gridtolerance="10"
     guidetolerance="10"
     inkscape:pageopacity="0"
     inkscape:pageshadow="2"
     inkscape:window-width="1920"
     inkscape:window-height="1001"
     id="namedview1027"
     showgrid="false"
     inkscape:zoom="0.58550725"
     inkscape:cx="-62.874641"
     inkscape:cy="145.54593"
     inkscape:window-x="-9"
     inkscape:window-y="-9"
     inkscape:window-maximized="1"
     inkscape:current-layer="g1359" />
  <defs
     id="defs942">
    <linearGradient
       gradientUnits="userSpaceOnUse"
       y2="115.03"
       x2="150"
       y1="30.55"
       x1="150"
       id="linearGradient1317">
      <stop
         id="stop1313"
         stop-opacity="0.5"
         stop-color="#237d3e"
         offset="0"
         style="stop-color:#4d6eed;stop-opacity:1" />
      <stop
         id="stop1315"
         stop-color="#2fa04a"
         offset="1"
         style="stop-color:#4dabed;stop-opacity:1" />
    </linearGradient>
    <linearGradient
       gradientUnits="userSpaceOnUse"
       y2="115.03"
       x2="150"
       y1="30.55"
       x1="150"
       id="linearGradient1311">
      <stop
         id="stop1307"
         stop-opacity="0.5"
         stop-color="#237d3e"
         offset="0"
         style="stop-color:#4d6eed;stop-opacity:1" />
      <stop
         id="stop1309"
         stop-color="#2fa04a"
         offset="1"
         style="stop-color:#4dabed;stop-opacity:1" />
    </linearGradient>
    <linearGradient
       gradientUnits="userSpaceOnUse"
       y2="115.03"
       x2="150"
       y1="30.55"
       x1="150"
       id="linearGradient1305">
      <stop
         id="stop1301"
         stop-opacity="0.5"
         stop-color="#237d3e"
         offset="0"
         style="stop-color:#4d6eed;stop-opacity:1" />
      <stop
         id="stop1303"
         stop-color="#2fa04a"
         offset="1"
         style="stop-color:#4dabed;stop-opacity:1" />
    </linearGradient>
    <linearGradient
       gradientUnits="userSpaceOnUse"
       y2="115.03"
       x2="150"
       y1="30.55"
       x1="150"
       id="linearGradient1299">
      <stop
         id="stop1295"
         stop-opacity="0.5"
         stop-color="#237d3e"
         offset="0"
         style="stop-color:#4d6eed;stop-opacity:1" />
      <stop
         id="stop1297"
         stop-color="#2fa04a"
         offset="1"
         style="stop-color:#4dabed;stop-opacity:1" />
    </linearGradient>
    <linearGradient
       gradientUnits="userSpaceOnUse"
       y2="115.03"
       x2="150"
       y1="30.55"
       x1="150"
       id="linearGradient1293">
      <stop
         id="stop1289"
         stop-opacity="0.5"
         stop-color="#237d3e"
         offset="0"
         style="stop-color:#4d6eed;stop-opacity:1" />
      <stop
         id="stop1291"
         stop-color="#2fa04a"
         offset="1"
         style="stop-color:#4dabed;stop-opacity:1" />
    </linearGradient>
    <linearGradient
       gradientUnits="userSpaceOnUse"
       y2="115.03"
       x2="150"
       y1="30.55"
       x1="150"
       id="linearGradient1287">
      <stop
         id="stop1283"
         stop-opacity="0.5"
         stop-color="#237d3e"
         offset="0"
         style="stop-color:#4d6eed;stop-opacity:1" />
      <stop
         id="stop1285"
         stop-color="#2fa04a"
         offset="1"
         style="stop-color:#4dabed;stop-opacity:1" />
    </linearGradient>
    <linearGradient
       gradientUnits="userSpaceOnUse"
       y2="229.5"
       x2="150"
       y1="347.09"
       x1="150"
       id="linearGradient1281">
      <stop
         id="stop1275"
         stop-color="#1f8e58"
         offset="0"
         style="stop-color:#4dabed;stop-opacity:1" />
      <stop
         id="stop1277"
         stop-color="#104931"
         offset="1" />
      <stop
         id="stop1279"
         stop-color="#176737"
         offset="1"
         style="stop-color:#4d78ed;stop-opacity:1" />
    </linearGradient>
    <linearGradient
       gradientUnits="userSpaceOnUse"
       y2="115.03"
       x2="150"
       y1="30.55"
       x1="150"
       id="linearGradient1179">
      <stop
         id="stop1175"
         stop-opacity="0.5"
         stop-color="#237d3e"
         offset="0"
         style="stop-color:#731f24;stop-opacity:1" />
      <stop
         id="stop1177"
         stop-color="#2fa04a"
         offset="1"
         style="stop-color:#c21f24;stop-opacity:1" />
    </linearGradient>
    <linearGradient
       gradientUnits="userSpaceOnUse"
       y2="115.03"
       x2="150"
       y1="30.55"
       x1="150"
       id="linearGradient1173">
      <stop
         id="stop1169"
         stop-opacity="0.5"
         stop-color="#237d3e"
         offset="0"
         style="stop-color:#731f24;stop-opacity:1" />
      <stop
         id="stop1171"
         stop-color="#2fa04a"
         offset="1"
         style="stop-color:#c21f24;stop-opacity:1" />
    </linearGradient>
    <linearGradient
       gradientUnits="userSpaceOnUse"
       y2="115.03"
       x2="150"
       y1="30.55"
       x1="150"
       id="linearGradient1155">
      <stop
         id="stop1151"
         stop-opacity="0.5"
         stop-color="#237d3e"
         offset="0"
         style="stop-color:#731f24;stop-opacity:1" />
      <stop
         id="stop1153"
         stop-color="#2fa04a"
         offset="1"
         style="stop-color:#c21f24;stop-opacity:1" />
    </linearGradient>
    <linearGradient
       gradientUnits="userSpaceOnUse"
       y2="115.03"
       x2="150"
       y1="30.55"
       x1="150"
       id="linearGradient1149">
      <stop
         id="stop1145"
         stop-opacity="0.5"
         stop-color="#237d3e"
         offset="0"
         style="stop-color:#731f24;stop-opacity:1" />
      <stop
         id="stop1147"
         stop-color="#2fa04a"
         offset="1"
         style="stop-color:#c21f24;stop-opacity:1" />
    </linearGradient>
    <linearGradient
       gradientUnits="userSpaceOnUse"
       y2="115.03"
       x2="150"
       y1="30.55"
       x1="150"
       id="linearGradient1143">
      <stop
         id="stop1139"
         stop-opacity="0.5"
         stop-color="#237d3e"
         offset="0"
         style="stop-color:#731f24;stop-opacity:1" />
      <stop
         id="stop1141"
         stop-color="#2fa04a"
         offset="1"
         style="stop-color:#c21f24;stop-opacity:1" />
    </linearGradient>
    <linearGradient
       gradientUnits="userSpaceOnUse"
       y2="115.03"
       x2="150"
       y1="30.55"
       x1="150"
       id="linearGradient1137">
      <stop
         id="stop1133"
         stop-opacity="0.5"
         stop-color="#237d3e"
         offset="0"
         style="stop-color:#731f24;stop-opacity:1" />
      <stop
         id="stop1135"
         stop-color="#2fa04a"
         offset="1"
         style="stop-color:#c21f24;stop-opacity:1" />
    </linearGradient>
    <linearGradient
       gradientUnits="userSpaceOnUse"
       y2="229.5"
       x2="150"
       y1="347.09"
       x1="150"
       id="linearGradient1131">
      <stop
         id="stop1125"
         stop-color="#1f8e58"
         offset="0"
         style="stop-color:#c21f24;stop-opacity:1" />
      <stop
         id="stop1127"
         stop-color="#104931"
         offset="1" />
      <stop
         id="stop1129"
         stop-color="#176737"
         offset="1"
         style="stop-color:#411f24;stop-opacity:1" />
    </linearGradient>
    <style
       id="style923">.cls-1{fill:url(#linear-gradient);}.cls-2{fill:#12543f;fill-opacity:0.4;}.cls-3{fill:#2fa04a;}.cls-4{fill:url(#linear-gradient-2);}.cls-5{fill:url(#linear-gradient-3);}.cls-6{fill:url(#linear-gradient-4);}.cls-7{fill:url(#linear-gradient-5);}.cls-8{fill:url(#linear-gradient-6);}.cls-9{fill:url(#linear-gradient-7);}.cls-10,.cls-13,.cls-14,.cls-15{fill:#237d3e;}.cls-10{fill-opacity:0.8;}.cls-11{fill:#fff;}.cls-12{fill:#414042;}.cls-13{opacity:0.5;}.cls-14{fill-opacity:0.5;}.cls-15{opacity:0.6;}.cls-16{fill:#58595b;}.cls-17{fill:#bcbec0;}</style>
    <linearGradient
       id="linear-gradient"
       x1="150"
       y1="347.09"
       x2="150"
       y2="229.5"
       gradientUnits="userSpaceOnUse">
      <stop
         offset="0"
         stop-color="#1f8e58"
         id="stop925" />
      <stop
         offset="1"
         stop-color="#104931"
         id="stop927" />
      <stop
         offset="1"
         stop-color="#176737"
         id="stop929" />
    </linearGradient>
    <linearGradient
       id="linear-gradient-2"
       x1="150"
       y1="30.55"
       x2="150"
       y2="115.03"
       gradientUnits="userSpaceOnUse">
      <stop
         offset="0"
         stop-color="#237d3e"
         stop-opacity="0.5"
         id="stop932" />
      <stop
         offset="1"
         stop-color="#2fa04a"
         id="stop934" />
    </linearGradient>
    <linearGradient
       id="linear-gradient-3"
       x1="188.77"
       y1="58.01"
       x2="188.77"
       y2="142.49"
       xlink:href="#linear-gradient-2" />
    <linearGradient
       id="linear-gradient-4"
       x1="111.23"
       y1="58.01"
       x2="111.23"
       y2="142.49"
       xlink:href="#linear-gradient-2" />
    <linearGradient
       id="linear-gradient-5"
       x1="150"
       y1="90.13"
       x2="150"
       y2="174.61"
       xlink:href="#linear-gradient-2" />
    <linearGradient
       id="linear-gradient-6"
       x1="188.77"
       y1="117.59"
       x2="188.77"
       y2="202.08"
       xlink:href="#linear-gradient-2" />
    <linearGradient
       id="linear-gradient-7"
       x1="111.23"
       y1="117.59"
       x2="111.23"
       y2="202.08"
       xlink:href="#linear-gradient-2" />
    <linearGradient
       inkscape:collect="always"
       xlink:href="#linearGradient1131"
       id="linearGradient1111"
       gradientUnits="userSpaceOnUse"
       x1="150"
       y1="347.09"
       x2="150"
       y2="229.5"
       gradientTransform="translate(-432.35029,22.945965)" />
    <linearGradient
       inkscape:collect="always"
       xlink:href="#linearGradient1179"
       id="linearGradient1113"
       gradientUnits="userSpaceOnUse"
       x1="150"
       y1="30.55"
       x2="150"
       y2="115.03"
       gradientTransform="translate(-432.35029,22.945965)" />
    <linearGradient
       inkscape:collect="always"
       xlink:href="#linearGradient1155"
       id="linearGradient1115"
       x1="188.77"
       y1="58.01"
       x2="188.77"
       y2="142.49"
       gradientTransform="translate(-432.35029,22.945965)" />
    <linearGradient
       inkscape:collect="always"
       xlink:href="#linearGradient1173"
       id="linearGradient1117"
       x1="111.23"
       y1="58.01"
       x2="111.23"
       y2="142.49"
       gradientTransform="translate(-432.35029,22.945965)" />
    <linearGradient
       inkscape:collect="always"
       xlink:href="#linearGradient1149"
       id="linearGradient1119"
       x1="150"
       y1="90.13"
       x2="150"
       y2="174.61"
       gradientTransform="translate(-432.35029,22.945965)" />
    <linearGradient
       inkscape:collect="always"
       xlink:href="#linearGradient1143"
       id="linearGradient1121"
       x1="188.77"
       y1="117.59"
       x2="188.77"
       y2="202.08"
       gradientTransform="translate(-432.35029,22.945965)" />
    <linearGradient
       inkscape:collect="always"
       xlink:href="#linearGradient1137"
       id="linearGradient1123"
       x1="111.23"
       y1="117.59"
       x2="111.23"
       y2="202.08"
       gradientTransform="translate(-432.35029,22.945965)" />
  </defs>
  <title
     id="title944">blook_dragon</title>
  <g
     id="g1359"
     transform="translate(0,-22.945967)">
    <g
       id="g1445"
       transform="translate(432.35029)">
      <path
         id="path1031"
         d="m -168.73029,367.75597 h -227.24 a 36.38,36.38 0 0 1 -36.38,-36.38 v -53.38 h 300 v 53.38 a 36.38,36.38 0 0 1 -36.38,36.38 z"
         class="cls-1"
         style="fill:url(#linearGradient1111)"
         inkscape:connector-curvature="0" />
      <rect
         id="rect1033"
         height="52.650002"
         width="157.78"
         y="315.10596"
         x="-361.26028"
         class="cls-2"
         style="fill:#5a1f24;fill-opacity:0.47058824" />
      <rect
         id="rect1035"
         rx="36.380001"
         height="253.39"
         width="300"
         y="67.315964"
         class="cls-3"
         x="-432.35028"
         style="fill:#c21f24;fill-opacity:1" />
      <path
         id="path1037"
         d="m -362.94029,310.48597 c 2.91,18.2 10.94,51.19 80.72,51.19 69.78,0 77.5,-32.64 80.46,-51.19 0.02,-0.15 -161.2,-0.15 -161.18,0 z"
         class="cls-3"
         inkscape:connector-curvature="0"
         style="fill:#c21f24;fill-opacity:1" />
      <path
         id="path1039"
         d="m -282.97029,126.45597 a 8.31,8.31 0 0 1 -5.95,-2.92 l -16,-20 a 7.2,7.2 0 0 1 0,-9.000005 l 16,-20 a 8.27,8.27 0 0 1 5.95,-2.92 c 0.41,0 0.83,0 1.24,0 a 8.27,8.27 0 0 1 5.95,2.92 l 16,20 a 7.2,7.2 0 0 1 0,9.000005 l -16,20 a 8.48,8.48 0 0 1 -6.57,3 z"
         class="cls-4"
         style="fill:url(#linearGradient1113)"
         inkscape:connector-curvature="0" />
      <path
         id="path1041"
         d="m -244.19029,153.94597 a 8.33,8.33 0 0 1 -6,-2.92 l -16,-20 a 7.18,7.18 0 0 1 0,-9 l 16,-20 a 8.29,8.29 0 0 1 6,-2.920005 q 0.61,0 1.23,0 a 8.29,8.29 0 0 1 6,2.920005 l 16,20 a 7.18,7.18 0 0 1 0,9 l -16,20 a 8.45,8.45 0 0 1 -6.57,2.95 c -0.24,-0.03 -0.45,-0.03 -0.66,-0.03 z"
         class="cls-5"
         style="fill:url(#linearGradient1115)"
         inkscape:connector-curvature="0" />
      <path
         id="path1043"
         d="m -321.74029,153.94597 a 8.33,8.33 0 0 1 -6,-2.92 l -16,-20 a 7.18,7.18 0 0 1 0,-9 l 16,-20 a 8.29,8.29 0 0 1 6,-2.920005 q 0.61,0 1.23,0 a 8.29,8.29 0 0 1 6,2.920005 l 16,20 a 7.18,7.18 0 0 1 0,9 l -16,20 a 8.45,8.45 0 0 1 -6.57,2.95 c -0.27,-0.03 -0.45,-0.03 -0.66,-0.03 z"
         class="cls-6"
         style="fill:url(#linearGradient1117)"
         inkscape:connector-curvature="0" />
      <path
         id="path1045"
         d="m -282.97029,186.03597 a 8.26,8.26 0 0 1 -5.95,-2.91 l -16,-20 a 7.22,7.22 0 0 1 0,-9 l 16,-20 a 8.24,8.24 0 0 1 5.95,-2.92 8.55,8.55 0 0 1 1.24,0 8.24,8.24 0 0 1 5.95,2.92 l 16,20 a 7.22,7.22 0 0 1 0,9 l -16,20 a 8.52,8.52 0 0 1 -6.57,3 c -0.19,-0.07 -0.4,-0.07 -0.62,-0.09 z"
         class="cls-7"
         style="fill:url(#linearGradient1119)"
         inkscape:connector-curvature="0" />
      <path
         id="path1047"
         d="m -244.19029,213.49597 a 8.29,8.29 0 0 1 -6,-2.91 l -16,-20 a 7.19,7.19 0 0 1 0,-9 l 16,-20 a 8.26,8.26 0 0 1 6,-2.92 8.42,8.42 0 0 1 1.23,0 8.26,8.26 0 0 1 6,2.92 l 16,20 a 7.19,7.19 0 0 1 0,9 l -16,20 a 8.49,8.49 0 0 1 -6.57,2.95 c -0.24,-0.02 -0.45,-0.02 -0.66,-0.04 z"
         class="cls-8"
         style="fill:url(#linearGradient1121)"
         inkscape:connector-curvature="0" />
      <path
         id="path1049"
         d="m -321.74029,213.49597 a 8.29,8.29 0 0 1 -6,-2.91 l -16,-20 a 7.19,7.19 0 0 1 0,-9 l 16,-20 a 8.26,8.26 0 0 1 6,-2.92 8.42,8.42 0 0 1 1.23,0 8.26,8.26 0 0 1 6,2.92 l 16,20 a 7.19,7.19 0 0 1 0,9 l -16,20 a 8.49,8.49 0 0 1 -6.57,2.95 c -0.27,-0.02 -0.45,-0.02 -0.66,-0.04 z"
         class="cls-9"
         style="fill:url(#linearGradient1123)"
         inkscape:connector-curvature="0" />
      <path
         id="path1051"
         d="m -226.45029,254.88597 a 42.18217,42.18217 0 1 0 78.17,-31.73 c -8.76,-21.58 -86.93,10.14 -78.17,31.73 z"
         class="cls-10"
         inkscape:connector-curvature="0"
         style="fill:#731f24;fill-opacity:1" />
      <path
         id="path1053"
         d="m -338.25029,254.88597 a 42.18217,42.18217 0 0 1 -78.17,-31.73 c 8.76,-21.58 86.93,10.14 78.17,31.73 z"
         class="cls-10"
         inkscape:connector-curvature="0"
         style="fill:#731f24;fill-opacity:1" />
      <path
         id="path1055"
         d="m -338.25029,262.60597 a 42.18029,42.18029 0 0 1 -78.17,-31.72 c 8.76,-21.59 86.93,10.13 78.17,31.72 z"
         class="cls-11"
         inkscape:connector-curvature="0"
         style="fill:#ffffff" />
      <path
         id="path1057"
         d="m -226.45029,262.60597 a 42.18029,42.18029 0 0 0 78.17,-31.72 c -8.76,-21.59 -86.93,10.13 -78.17,31.72 z"
         class="cls-11"
         inkscape:connector-curvature="0"
         style="fill:#ffffff" />
      <path
         id="path1059"
         d="m -342.08029,258.04597 a 13.21,13.21 0 0 1 -11.94,-18.93 109.08,109.08 0 0 0 -26.18,-11.91 26.53,26.53 0 1 0 37.68,33 c 0.3,-0.73 0.56,-1.47 0.79,-2.22 z m -33.13,12.79 a 5.45,5.45 0 1 1 5.45,-5.45 5.45,5.45 0 0 1 -5.45,5.45 z"
         class="cls-12"
         inkscape:connector-curvature="0"
         style="fill:#414042" />
      <path
         id="path1061"
         d="m -172.92029,258.04597 a 13.23,13.23 0 0 1 -5,-25.5 26.75,26.75 0 0 0 -6.63,-5.34 c -16.16,4.92 -32.93,14.3 -39.62,23.79 a 26.53,26.53 0 0 0 51.9,7 c -0.19,0.02 -0.42,0.05 -0.65,0.05 z m -36,12.79 a 5.45,5.45 0 1 1 5.46,-5.45 5.45,5.45 0 0 1 -5.48,5.45 z"
         class="cls-12"
         inkscape:connector-curvature="0"
         style="fill:#414042" />
      <path
         id="path1063"
         d="m -312.52029,308.06597 a 21.51,21.51 0 0 1 3.13,-2.57 32.93,32.93 0 0 1 3.46,-2.11 45.71,45.71 0 0 1 7.5,-3.14 55,55 0 0 1 32.16,0 45.71,45.71 0 0 1 7.5,3.14 33.16,33.16 0 0 1 3.47,2.12 22,22 0 0 1 3.12,2.57 100.3,100.3 0 0 0 -15.17,-3.24 118.73,118.73 0 0 0 -15,-1 116.89,116.89 0 0 0 -15,1 99.83,99.83 0 0 0 -15.17,3.23 z"
         class="cls-13"
         inkscape:connector-curvature="0"
         style="opacity:0.5;fill:#5a1f24;fill-opacity:1" />
      <path
         id="path1065"
         d="m -312.52029,280.37597 a 21.51,21.51 0 0 1 3.13,-2.57 31.33,31.33 0 0 1 3.46,-2.11 45.71,45.71 0 0 1 7.5,-3.14 55,55 0 0 1 32.16,0 45.71,45.71 0 0 1 7.5,3.14 33.16,33.16 0 0 1 3.47,2.12 22,22 0 0 1 3.12,2.57 100.3,100.3 0 0 0 -15.17,-3.24 118.73,118.73 0 0 0 -15,-1 116.89,116.89 0 0 0 -15,1 98.63,98.63 0 0 0 -15.17,3.23 z"
         class="cls-13"
         inkscape:connector-curvature="0"
         style="opacity:0.5;fill:#5a1f24;fill-opacity:1" />
      <path
         id="path1067"
         d="m -237.24029,338.27597 a 8.71,8.71 0 1 0 -12.21,-12.42 c -3.43,3.37 -4.68,16.8 -4.68,16.8 0,0 13.46,-1.01 16.89,-4.38 z"
         class="cls-14"
         inkscape:connector-curvature="0"
         style="fill:#731f24;fill-opacity:1" />
      <path
         id="path1069"
         d="m -330.56029,338.40597 a 8.7036214,8.7036214 0 1 1 12,-12.61 c 3.49,3.31 4.95,16.73 4.95,16.73 0,0 -13.47,-0.8 -16.95,-4.12 z"
         class="cls-14"
         inkscape:connector-curvature="0"
         style="fill:#731f24;fill-opacity:1" />
      <path
         id="path1071"
         d="m -237.98029,344.56597 a 8.71,8.71 0 0 0 -10.07,-14.21 c -3.93,2.78 -7.3,15.85 -7.3,15.85 0,0 13.44,1.14 17.37,-1.64 z"
         class="cls-12"
         inkscape:connector-curvature="0"
         style="fill:#414042" />
      <path
         id="path1073"
         d="m -329.89029,344.56597 a 8.71,8.71 0 1 1 10.07,-14.21 c 3.93,2.78 7.3,15.85 7.3,15.85 0,0 -13.44,1.14 -17.37,-1.64 z"
         class="cls-12"
         inkscape:connector-curvature="0"
         style="fill:#414042" />
      <path
         id="path1075"
         d="m -168.73029,67.315965 h -27.35 a 43.66,43.66 0 0 0 -6.8,22.78 28.8,28.8 0 0 0 57.6,0 c 0,-3.43 0.11,-8.35 0.29,-14 a 36.28,36.28 0 0 0 -23.74,-8.78 z"
         class="cls-15"
         inkscape:connector-curvature="0"
         style="opacity:0.6;fill:#731f24;fill-opacity:1" />
      <path
         id="path1077"
         d="m -419.69029,76.125965 c 0.18,5.61 0.29,10.53 0.29,14 a 28.8,28.8 0 1 0 57.6,0 43.66,43.66 0 0 0 -6.8,-22.78 h -27.37 a 36.19,36.19 0 0 0 -23.72,8.78 z"
         class="cls-15"
         inkscape:connector-curvature="0"
         style="opacity:0.6;fill:#731f24;fill-opacity:1" />
      <path
         id="path1079"
         d="m -209.42029,86.945965 a 28.8,28.8 0 0 0 57.6,0 c 0,-15.91 2.41,-63.78 2.41,-63.78 0,0 -60.01,24.09 -60.01,63.78 z"
         class="cls-12"
         inkscape:connector-curvature="0"
         style="fill:#414042" />
      <path
         id="path1081"
         d="m -161.60029,50.075965 a 6.89,6.89 0 0 1 -6.17,-9.93 c 1.47,-3 5.77,-6.5 9.09,-6.5 a 3.63,3.63 0 0 1 1.61,0.35 c 1.43,0.71 2.41,2.62 2.69,5.25 a 13.68,13.68 0 0 1 -1,7 6.85,6.85 0 0 1 -6.22,3.83 z"
         class="cls-16"
         inkscape:connector-curvature="0"
         style="fill:#58595b" />
      <path
         id="path1083"
         d="m -178.84029,108.68597 a 27.82,27.82 0 0 1 -13.62,-3.83 c -10.2,-5.890005 -13.55,-15.330005 -8.52,-24.000005 a 12.68,12.68 0 0 1 11.63,-6.78 c 4.11,0 8.86,1.49 13.73,4.3 8.7,5 16,13.75 10.58,23.200005 -2.61,4.59 -7.53,7.11 -13.8,7.11 z"
         class="cls-16"
         inkscape:connector-curvature="0"
         style="fill:#58595b" />
      <path
         id="path1085"
         d="m -168.16029,74.655965 a 22,22 0 0 1 -9.59,-2.55 c -4.1,-2 -7.14,-4.6 -8.79,-7.4 a 9.23,9.23 0 0 1 -0.27,-9.3 9.39,9.39 0 0 1 9.06,-5.46 22.49,22.49 0 0 1 9.72,2.63 c 6.73,3.35 12.65,9.5 9.06,16.7 -2.21,4.45 -6.22,5.38 -9.19,5.38 z"
         class="cls-16"
         inkscape:connector-curvature="0"
         style="fill:#58595b" />
      <ellipse
         id="ellipse1087"
         transform="rotate(-39.08)"
         ry="6.3299999"
         rx="4.75"
         cy="-37.515858"
         cx="-192.21465"
         class="cls-17"
         style="fill:#bcbec0" />
      <circle
         id="circle1089"
         r="4.75"
         cy="63.825966"
         cx="-166.0103"
         class="cls-17"
         style="fill:#bcbec0" />
      <circle
         id="circle1091"
         r="3.1600001"
         cy="42.425964"
         cx="-161.3903"
         class="cls-17"
         style="fill:#bcbec0" />
      <path
         id="path1093"
         d="m -415.29029,23.135965 c 0,0 2.41,47.87 2.41,63.81 a 28.8,28.8 0 1 0 57.6,0 c 0,-39.69 -60.01,-63.81 -60.01,-63.81 z"
         class="cls-12"
         inkscape:connector-curvature="0"
         style="fill:#414042" />
      <path
         id="path1095"
         d="m -385.86029,108.68597 c -6.27,0 -11.19,-2.52 -13.83,-7.11 a 12.58,12.58 0 0 1 -0.38,-12.510005 c 2,-4 5.76,-7.69 11,-10.69 4.87,-2.81 9.62,-4.3 13.73,-4.3 a 12.68,12.68 0 0 1 11.66,6.74 c 5,8.71 1.68,18.15 -8.52,24.000005 a 27.82,27.82 0 0 1 -13.62,3.83 z"
         class="cls-16"
         inkscape:connector-curvature="0"
         style="fill:#58595b" />
      <path
         id="path1097"
         d="m -396.54029,74.655965 c -3,0 -7,-0.94 -9.19,-5.39 -3.62,-7.2 2.38,-13.32 9.06,-16.7 a 22.49,22.49 0 0 1 9.72,-2.62 9.41,9.41 0 0 1 9.07,5.47 c 4.51,9.06 -5.8,15.07 -9.07,16.7 a 22,22 0 0 1 -9.59,2.55 z"
         class="cls-16"
         inkscape:connector-curvature="0"
         style="fill:#58595b" />
      <path
         id="path1099"
         d="m -403.10029,50.075965 a 6.83,6.83 0 0 1 -6.19,-3.85 13.68,13.68 0 0 1 -1,-7 c 0.28,-2.63 1.26,-4.54 2.69,-5.25 a 3.63,3.63 0 0 1 1.61,-0.35 c 3.32,0 7.62,3.5 9.09,6.5 a 6.89,6.89 0 0 1 0.34,5.27 6.9,6.9 0 0 1 -6.51,4.66 z"
         class="cls-16"
         inkscape:connector-curvature="0"
         style="fill:#58595b" />
      <ellipse
         id="ellipse1101"
         transform="rotate(-84.857235)"
         ry="6.3555846"
         rx="4.7691989"
         cy="-365.06937"
         cx="-114.97549"
         class="cls-17"
         style="fill:#bcbec0;stroke-width:1.00404179" />
      <circle
         id="circle1103"
         r="4.75"
         cy="57.345966"
         cx="-386.52029"
         class="cls-17"
         style="fill:#bcbec0" />
      <circle
         id="circle1105"
         r="3.1600001"
         cy="42.425964"
         cx="-403.3103"
         class="cls-17"
         style="fill:#bcbec0" />
      <path
         id="path1107"
         d="m -238.79029,241.80597 a 52.21,52.21 0 0 1 3.25,-7.13 q 1.81,-3.36 3.88,-6.45 a 104.63,104.63 0 0 1 9,-11.58 126.18,126.18 0 0 1 10.12,-10.3 72.23,72.23 0 0 1 11.58,-8.72 l 9.61,10.56 a 72.72,72.72 0 0 1 -9.74,10.76 126.12,126.12 0 0 1 -11.18,9.14 104.37,104.37 0 0 1 -12.35,7.86 q -3.27,1.78 -6.78,3.28 a 53.13,53.13 0 0 1 -7.39,2.58 z"
         class="cls-12"
         inkscape:connector-curvature="0"
         style="fill:#414042" />
      <path
         id="path1109"
         d="m -325.91029,241.80597 a 53.13,53.13 0 0 1 -7.39,-2.59 q -3.51,-1.5 -6.78,-3.28 a 104.37,104.37 0 0 1 -12.35,-7.87 126.12,126.12 0 0 1 -11.18,-9.12 72.72,72.72 0 0 1 -9.74,-10.76 l 9.64,-10.56 a 72.23,72.23 0 0 1 11.58,8.72 126.18,126.18 0 0 1 10.12,10.3 104.63,104.63 0 0 1 9,11.58 q 2.07,3.09 3.88,6.45 a 52.21,52.21 0 0 1 3.22,7.13 z"
         class="cls-12"
         inkscape:connector-curvature="0"
         style="fill:#414042" />
    </g>
  </g>
</svg>
