<?xml version="1.0" encoding="UTF-8" standalone="no"?>
<svg
   xmlns:dc="http://purl.org/dc/elements/1.1/"
   xmlns:cc="http://creativecommons.org/ns#"
   xmlns:rdf="http://www.w3.org/1999/02/22-rdf-syntax-ns#"
   xmlns:svg="http://www.w3.org/2000/svg"
   xmlns="http://www.w3.org/2000/svg"
   xmlns:xlink="http://www.w3.org/1999/xlink"
   version="1.1"
   viewBox="0 0 300 345"
   data-name="Layer 1"
   id="Layer_1">
  <metadata
     id="metadata945">
    <rdf:RDF>
      <cc:Work
         rdf:about="">
        <dc:format>image/svg+xml</dc:format>
        <dc:type
           rdf:resource="http://purl.org/dc/dcmitype/StillImage" />
        <dc:title>blook_wizard</dc:title>
      </cc:Work>
    </rdf:RDF>
  </metadata>
  <defs
     id="defs894">
    <style
       id="style881">.cls-1{fill:url(#linear-gradient);}.cls-2{fill:#ffcd05;}.cls-3{fill:none;stroke:#cd8e2a;stroke-miterlimit:10;stroke-width:8.99px;}.cls-4{fill:#5a459c;}.cls-5{fill:url(#linear-gradient-2);}.cls-6{fill:url(#linear-gradient-3);}.cls-7{fill:#8b5e3c;}.cls-8{fill:#66402d;}.cls-9{fill:#42308b;}.cls-10{fill:#fabc2e;}.cls-11{fill:#fff;}.cls-12{fill:#414042;}</style>
    <linearGradient
       gradientUnits="userSpaceOnUse"
       y2="201.46"
       x2="150"
       y1="358.06"
       x1="150"
       id="linear-gradient">
      <stop
         id="stop883"
         stop-color="#fabc2e"
         offset="0" />
      <stop
         id="stop885"
         stop-color="#cd8029"
         offset="1" />
    </linearGradient>
    <linearGradient
       gradientUnits="userSpaceOnUse"
       y2="283.28"
       x2="277.18"
       y1="228.77"
       x1="262.25"
       id="linear-gradient-2">
      <stop
         id="stop888"
         stop-opacity="0.1"
         stop-color="#fabc2e"
         offset="0" />
      <stop
         id="stop890"
         stop-color="#f27ba5"
         offset="1" />
    </linearGradient>
    <linearGradient
       xlink:href="#linear-gradient-2"
       y2="288.74"
       x2="19.53"
       y1="221.5"
       x1="42.75"
       id="linear-gradient-3" />
  </defs>
  <title
     id="title896">blook_wizard</title>
  <path
     id="path898"
     d="M263.62,344.81H36.38A36.38,36.38,0,0,1,0,308.43v-66H300v66A36.38,36.38,0,0,1,263.62,344.81Z"
     class="cls-1" />
  <rect
     id="rect900"
     rx="36.38"
     height="253.39"
     width="300"
     y="44.81"
     class="cls-2" />
  <line
     id="line902"
     y2="280.23"
     x2="173.75"
     y1="280.23"
     x1="126.25"
     class="cls-3" />
  <path
     style="fill:#1a94ff;fill-opacity:1"
     id="path904"
     d="M222.46,281.69c-26.88,4.6-17.9,49.61-14.58,63.12h55.74A36.38,36.38,0,0,0,300,308.43V281.27C266.44,285.35,249.58,277,222.46,281.69Z"
     class="cls-4" />
  <path
     style="fill:#1a94ff;fill-opacity:1"
     id="path906"
     d="M77.54,281.69c-27.12-4.65-44,3.66-77.54-.42v27.16a36.38,36.38,0,0,0,36.38,36.38H92.12C95.44,331.3,104.42,286.29,77.54,281.69Z"
     class="cls-4" />
  <ellipse
     id="ellipse908"
     ry="13.87"
     rx="17.59"
     cy="263.06"
     cx="271.63"
     class="cls-5" />
  <ellipse
     id="ellipse910"
     ry="13.87"
     rx="17.59"
     cy="263.06"
     cx="28.37"
     class="cls-6" />
  <path
     id="path912"
     d="M263.62,44.81H36.38A36.38,36.38,0,0,0,0,81.19V168.7a159.62,159.62,0,0,0,35.09,3.86c51.51,0,95.74-24.08,114.91-58.47,19.17,34.39,63.4,58.47,114.91,58.47A159.62,159.62,0,0,0,300,168.7V81.19A36.38,36.38,0,0,0,263.62,44.81Z"
     class="cls-7" />
  <ellipse
     id="ellipse914"
     transform="translate(-16.41 20.66) rotate(-13.69)"
     ry="19.45"
     rx="67.17"
     cy="78.71"
     cx="77.85"
     class="cls-8" />
  <ellipse
     style="fill:#1a61f0;fill-opacity:1"
     id="ellipse916"
     transform="translate(-14.87 20.08) rotate(-13.69)"
     ry="19.45"
     rx="67.17"
     cy="71.99"
     cx="76.22"
     class="cls-9" />
  <path
     style="fill:#1a94ff;fill-opacity:1"
     id="path918"
     d="M49.67,9.64l-23,72.63s19.51,5,51.39-2.79S125,58.33,125,58.33L71.12,4.41A12.92,12.92,0,0,0,49.67,9.64Z"
     class="cls-4" />
  <path
     id="path920"
     d="M88.62,40.28,91.3,44.7a2.22,2.22,0,0,0,1.77,1.06l5.16.29a2.22,2.22,0,0,1,1.55,3.66l-3.37,3.92a2.17,2.17,0,0,0-.46,2l1.31,5a2.21,2.21,0,0,1-3,2.61l-4.77-2a2.22,2.22,0,0,0-2,.18l-4.35,2.8a2.22,2.22,0,0,1-3.41-2L80.12,57a2.2,2.2,0,0,0-.81-1.89l-4-3.27A2.21,2.21,0,0,1,76.2,48l5-1.19a2.23,2.23,0,0,0,1.56-1.35l1.87-4.82A2.22,2.22,0,0,1,88.62,40.28Z"
     class="cls-2" />
  <path
     id="path922"
     d="M58.61,11.11,53.1,13a2.48,2.48,0,0,1-2.28-.37l-1.69-1.26L43.54,29a2.42,2.42,0,0,1,.78,1.15L46,35.68a2.48,2.48,0,0,0,4.4.7l3.36-4.73a2.49,2.49,0,0,1,2.06-1l5.81.08a2.48,2.48,0,0,0,2-4l-3.46-4.67a2.45,2.45,0,0,1-.36-2.28l1.87-5.5A2.48,2.48,0,0,0,58.61,11.11Z"
     class="cls-2" />
  <path
     id="path924"
     d="M59.33,78.46A2.48,2.48,0,0,1,59,76.18l1.87-5.5a2.48,2.48,0,0,0-3.14-3.16l-5.51,1.86A2.48,2.48,0,0,1,49.91,69l-4.65-3.48a2.49,2.49,0,0,0-4,2l.07,5.81a2.51,2.51,0,0,1-1.06,2.06l-4.74,3.34a2.49,2.49,0,0,0,.69,4.41l1.62.5a125.68,125.68,0,0,0,24.46-1.18Z"
     class="cls-2" />
  <circle
     id="circle926"
     r="36.45"
     cy="222.5"
     cx="242.58"
     class="cls-10" />
  <circle
     id="circle928"
     r="36.45"
     cy="222.5"
     cx="57.42"
     class="cls-10" />
  <circle
     id="circle930"
     r="36.45"
     cy="232.62"
     cx="242.58"
     class="cls-11" />
  <circle
     id="circle932"
     r="36.45"
     cy="232.62"
     cx="57.42"
     class="cls-11" />
  <path
     style="fill:#1a94ff;fill-opacity:1"
     id="path934"
     d="M89.18,227.33A13.21,13.21,0,0,1,70,209.42a23,23,0,1,0,19.19,17.91Zm-32,19.76a5.46,5.46,0,1,1,5.45-5.46A5.45,5.45,0,0,1,57.14,247.09Z"
     class="cls-12" />
  <path
     style="fill:#1a94ff;fill-opacity:1"
     id="path936"
     d="M255.63,227.2a13.22,13.22,0,0,1-19.07-17.77,24.25,24.25,0,0,0-3.32-.24,23,23,0,1,0,22.39,18Zm-32.22,19.89a5.46,5.46,0,1,1,5.46-5.46A5.45,5.45,0,0,1,223.41,247.09Z"
     class="cls-12" />
  <ellipse
     style="fill:#66402d"
     transform="rotate(15)"
     id="ellipse938"
     ry="17.17"
     rx="29.610001"
     cy="150.60526"
     cx="100.59727"
     class="cls-8" />
  <ellipse
     style="fill:#66402d"
     transform="rotate(-15)"
     id="ellipse940"
     ry="17.17"
     rx="29.610001"
     cy="228.25096"
     cx="189.18047"
     class="cls-8" />
  <path
     style="fill:#1a61f0;fill-opacity:1"
     class="cls-9"
     d="M 22.261612,291.1495 0.05177669,290.79594 0,294.91206 l 22.261612,0.7955 c 15.931141,0.0183 42.671142,-7.41848 53.18079,-0.30518 12.236707,8.28223 5.110238,31.00226 4.600249,47.98762 V 345 h 4.46967 v -1.66 c -0.03525,-19.52822 7.363744,-43.05047 -5.960872,-51.56133 -11.669448,-7.45365 -39.187374,-0.61119 -56.289837,-0.62917 z"
     id="path8727-8" />
  <path
     style="fill:#1a61f0;fill-opacity:1"
     class="cls-9"
     d="m 277.73836,291.1495 22.20984,-0.35356 0.0518,4.11612 -22.26161,0.7955 c -15.93114,0.0183 -42.67115,-7.41848 -53.1808,-0.30518 -12.2367,8.28223 -5.11023,31.00226 -4.60024,47.98762 V 345 h -4.46967 v -1.66 c 0.0352,-19.52822 -7.36375,-43.05047 5.96087,-51.56133 11.66945,-7.45365 39.18737,-0.61119 56.28984,-0.62917 z"
     id="path8727-8-3" />
  <path
     class="cls-1"
     d="M263.62,344.81H36.38A36.38,36.38,0,0,1,0,308.43v-66H300v66A36.38,36.38,0,0,1,263.62,344.81Z"
     id="path2053" />
  <rect
     class="cls-2"
     y="44.81"
     width="300"
     height="253.39"
     rx="36.38"
     id="rect2055" />
  <line
     class="cls-3"
     x1="126.25"
     y1="280.23"
     x2="173.75"
     y2="280.23"
     id="line2057" />
  <path
     class="cls-4"
     d="M222.46,281.69c-26.88,4.6-17.9,49.61-14.58,63.12h55.74A36.38,36.38,0,0,0,300,308.43V281.27C266.44,285.35,249.58,277,222.46,281.69Z"
     id="path2059"
     style="fill:#1a94ff;fill-opacity:1" />
  <path
     class="cls-4"
     d="M77.54,281.69c-27.12-4.65-44,3.66-77.54-.42v27.16a36.38,36.38,0,0,0,36.38,36.38H92.12C95.44,331.3,104.42,286.29,77.54,281.69Z"
     id="path2061"
     style="fill:#1a94ff;fill-opacity:1" />
  <path
     class="cls-7"
     d="M263.62,44.81H36.38A36.38,36.38,0,0,0,0,81.19V168.7a159.62,159.62,0,0,0,35.09,3.86c51.51,0,95.74-24.08,114.91-58.47,19.17,34.39,63.4,58.47,114.91,58.47A159.62,159.62,0,0,0,300,168.7V81.19A36.38,36.38,0,0,0,263.62,44.81Z"
     id="path2067" />
  <ellipse
     class="cls-8"
     cx="77.85"
     cy="78.71"
     rx="67.17"
     ry="19.45"
     transform="translate(-16.41 20.66) rotate(-13.69)"
     id="ellipse2069" />
  <ellipse
     class="cls-9"
     cx="76.22"
     cy="71.99"
     rx="67.17"
     ry="19.45"
     transform="translate(-14.87 20.08) rotate(-13.69)"
     id="ellipse2071"
     style="fill:#1a61f0;fill-opacity:1" />
  <path
     class="cls-4"
     d="M49.67,9.64l-23,72.63s19.51,5,51.39-2.79S125,58.33,125,58.33L71.12,4.41A12.92,12.92,0,0,0,49.67,9.64Z"
     id="path2073"
     style="fill:#1a94ff;fill-opacity:1" />
  <path
     class="cls-2"
     d="M88.62,40.28,91.3,44.7a2.22,2.22,0,0,0,1.77,1.06l5.16.29a2.22,2.22,0,0,1,1.55,3.66l-3.37,3.92a2.17,2.17,0,0,0-.46,2l1.31,5a2.21,2.21,0,0,1-3,2.61l-4.77-2a2.22,2.22,0,0,0-2,.18l-4.35,2.8a2.22,2.22,0,0,1-3.41-2L80.12,57a2.2,2.2,0,0,0-.81-1.89l-4-3.27A2.21,2.21,0,0,1,76.2,48l5-1.19a2.23,2.23,0,0,0,1.56-1.35l1.87-4.82A2.22,2.22,0,0,1,88.62,40.28Z"
     id="path2075" />
  <path
     class="cls-2"
     d="M58.61,11.11,53.1,13a2.48,2.48,0,0,1-2.28-.37l-1.69-1.26L43.54,29a2.42,2.42,0,0,1,.78,1.15L46,35.68a2.48,2.48,0,0,0,4.4.7l3.36-4.73a2.49,2.49,0,0,1,2.06-1l5.81.08a2.48,2.48,0,0,0,2-4l-3.46-4.67a2.45,2.45,0,0,1-.36-2.28l1.87-5.5A2.48,2.48,0,0,0,58.61,11.11Z"
     id="path2077" />
  <path
     class="cls-2"
     d="M59.33,78.46A2.48,2.48,0,0,1,59,76.18l1.87-5.5a2.48,2.48,0,0,0-3.14-3.16l-5.51,1.86A2.48,2.48,0,0,1,49.91,69l-4.65-3.48a2.49,2.49,0,0,0-4,2l.07,5.81a2.51,2.51,0,0,1-1.06,2.06l-4.74,3.34a2.49,2.49,0,0,0,.69,4.41l1.62.5a125.68,125.68,0,0,0,24.46-1.18Z"
     id="path2079" />
  <circle
     class="cls-10"
     cx="242.58"
     cy="222.5"
     r="36.45"
     id="circle2081" />
  <circle
     class="cls-10"
     cx="57.42"
     cy="222.5"
     r="36.45"
     id="circle2083" />
  <circle
     class="cls-11"
     cx="242.58"
     cy="232.62"
     r="36.45"
     id="circle2085" />
  <circle
     class="cls-11"
     cx="57.42"
     cy="232.62"
     r="36.45"
     id="circle2087" />
  <path
     class="cls-12"
     d="M89.18,227.33A13.21,13.21,0,0,1,70,209.42a23,23,0,1,0,19.19,17.91Zm-32,19.76a5.46,5.46,0,1,1,5.45-5.46A5.45,5.45,0,0,1,57.14,247.09Z"
     id="path2089"
     style="fill:#1a94ff;fill-opacity:1" />
  <path
     class="cls-12"
     d="M255.63,227.2a13.22,13.22,0,0,1-19.07-17.77,24.25,24.25,0,0,0-3.32-.24,23,23,0,1,0,22.39,18Zm-32.22,19.89a5.46,5.46,0,1,1,5.46-5.46A5.45,5.45,0,0,1,223.41,247.09Z"
     id="path2091"
     style="fill:#1a94ff;fill-opacity:1" />
  <ellipse
     class="cls-8"
     cx="100.59727"
     cy="150.60526"
     rx="29.610001"
     ry="17.17"
     id="ellipse2093"
     transform="rotate(15)"
     style="fill:#66402d" />
  <ellipse
     class="cls-8"
     cx="189.18047"
     cy="228.25096"
     rx="29.610001"
     ry="17.17"
     id="ellipse2095"
     transform="rotate(-15)"
     style="fill:#66402d" />
  <path
     id="path2097"
     d="M 22.261612,291.1495 0.05177669,290.79594 0,294.91206 l 22.261612,0.7955 c 15.931141,0.0183 42.671142,-7.41848 53.18079,-0.30518 12.236707,8.28223 5.110238,31.00226 4.600249,47.98762 V 345 h 4.46967 v -1.66 c -0.03525,-19.52822 7.363744,-43.05047 -5.960872,-51.56133 -11.669448,-7.45365 -39.187374,-0.61119 -56.289837,-0.62917 z"
     class="cls-9"
     style="fill:#1a61f0;fill-opacity:1" />
  <path
     id="path2099"
     d="m 277.73836,291.1495 22.20984,-0.35356 0.0518,4.11612 -22.26161,0.7955 c -15.93114,0.0183 -42.67115,-7.41848 -53.1808,-0.30518 -12.2367,8.28223 -5.11023,31.00226 -4.60024,47.98762 V 345 h -4.46967 v -1.66 c 0.0352,-19.52822 -7.36375,-43.05047 5.96087,-51.56133 11.66945,-7.45365 39.18737,-0.61119 56.28984,-0.62917 z"
     class="cls-9"
     style="fill:#1a61f0;fill-opacity:1" />
</svg>
