<?xml version="1.0" encoding="UTF-8" standalone="no"?>
<svg
   xmlns:dc="http://purl.org/dc/elements/1.1/"
   xmlns:cc="http://creativecommons.org/ns#"
   xmlns:rdf="http://www.w3.org/1999/02/22-rdf-syntax-ns#"
   xmlns:svg="http://www.w3.org/2000/svg"
   xmlns="http://www.w3.org/2000/svg"
   xmlns:xlink="http://www.w3.org/1999/xlink"
   version="1.1"
   viewBox="0 0 300 345"
   data-name="Layer 1"
   id="Layer_1">
  <metadata
     id="metadata9875">
    <rdf:RDF>
      <cc:Work
         rdf:about="">
        <dc:format>image/svg+xml</dc:format>
        <dc:type
           rdf:resource="http://purl.org/dc/dcmitype/StillImage" />
        <dc:title>blook_unicorn</dc:title>
      </cc:Work>
    </rdf:RDF>
  </metadata>
  <defs
     id="defs9803">
    <linearGradient
       id="linearGradient12268"
       x1="150"
       y1="356.11"
       x2="150"
       y2="161.16"
       gradientUnits="userSpaceOnUse">
      <stop
         offset="0"
         stop-color="#ead9ea"
         id="stop12264"
         style="stop-color:#c1d12a;stop-opacity:1" />
      <stop
         offset="0.46"
         stop-color="#94acd9"
         id="stop12266"
         style="stop-color:#7fbb17;stop-opacity:1" />
    </linearGradient>
    <style
       id="style9790">.cls-1{fill:url(#linear-gradient);}.cls-2{fill:#fcdfeb;}.cls-3{fill:#afbfe2;}.cls-4,.cls-6{fill:#f3c1da;}.cls-5{fill:#87a6d7;}.cls-6{fill-opacity:0.6;}.cls-7,.cls-8{fill-opacity:0.5;}.cls-7{fill:url(#radial-gradient);}.cls-8{fill:url(#radial-gradient-2);}.cls-9{fill:#fff;}.cls-10{fill:#6f8fc9;}.cls-11,.cls-12{fill:#f6afce;stroke:#ee4c9b;}.cls-11{stroke-linecap:square;stroke-linejoin:round;stroke-width:7px;}</style>
    <linearGradient
       gradientUnits="userSpaceOnUse"
       y2="161.16"
       x2="150"
       y1="356.11"
       x1="150"
       id="linear-gradient">
      <stop
         style="stop-color:#fcdf45;stop-opacity:1"
         id="stop9792"
         stop-color="#ead9ea"
         offset="0" />
      <stop
         style="stop-color:#7fbb17;stop-opacity:1"
         id="stop9794"
         stop-color="#94acd9"
         offset="0.46" />
    </linearGradient>
    <radialGradient
       gradientUnits="userSpaceOnUse"
       r="41.85"
       cy="237.81"
       cx="43.83"
       id="radial-gradient">
      <stop
         id="stop9797"
         stop-color="#f6a9cb"
         offset="0" />
      <stop
         id="stop9799"
         stop-opacity="0"
         stop-color="#f3c1da"
         offset="1" />
    </radialGradient>
    <radialGradient
       xlink:href="#radial-gradient"
       r="41.85"
       cy="237.81"
       cx="251.7"
       id="radial-gradient-2" />
    <radialGradient
       xlink:href="#radial-gradient-3"
       r="41.849998"
       cy="237.81"
       cx="251.7"
       id="radial-gradient-2-3" />
    <radialGradient
       gradientUnits="userSpaceOnUse"
       r="41.849998"
       cy="237.81"
       cx="43.830002"
       id="radial-gradient-3">
      <stop
         id="stop9797-8"
         stop-color="#f6a9cb"
         offset="0" />
      <stop
         id="stop9799-7"
         stop-opacity="0"
         stop-color="#f3c1da"
         offset="1" />
    </radialGradient>
    <radialGradient
       gradientUnits="userSpaceOnUse"
       r="41.849998"
       cy="237.81"
       cx="43.830002"
       id="radialGradient11995">
      <stop
         id="stop11991"
         stop-color="#f6a9cb"
         offset="0" />
      <stop
         id="stop11993"
         stop-opacity="0"
         stop-color="#f3c1da"
         offset="1" />
    </radialGradient>
    <linearGradient
       gradientTransform="translate(447.90254,51.165254)"
       y2="161.16"
       x2="150"
       y1="356.11"
       x1="150"
       gradientUnits="userSpaceOnUse"
       id="linearGradient12258"
       xlink:href="#linearGradient12268" />
    <radialGradient
       xlink:href="#radial-gradient-29"
       r="41.849998"
       cy="237.81"
       cx="251.7"
       id="radial-gradient-2-8" />
    <radialGradient
       gradientUnits="userSpaceOnUse"
       r="41.849998"
       cy="237.81"
       cx="43.830002"
       id="radial-gradient-29">
      <stop
         id="stop9797-5"
         stop-color="#f6a9cb"
         offset="0" />
      <stop
         id="stop9799-5"
         stop-opacity="0"
         stop-color="#f3c1da"
         offset="1" />
    </radialGradient>
    <radialGradient
       gradientUnits="userSpaceOnUse"
       r="41.849998"
       cy="237.81"
       cx="43.830002"
       id="radialGradient12286">
      <stop
         id="stop12282"
         stop-color="#f6a9cb"
         offset="0" />
      <stop
         id="stop12284"
         stop-opacity="0"
         stop-color="#f3c1da"
         offset="1" />
    </radialGradient>
    <linearGradient
       gradientUnits="userSpaceOnUse"
       y2="161.16"
       x2="150"
       y1="356.10999"
       x1="150"
       id="linear-gradient-3">
      <stop
         id="stop9792-8"
         stop-color="#ead9ea"
         offset="0" />
      <stop
         id="stop9794-4"
         stop-color="#94acd9"
         offset="0.46" />
    </linearGradient>
  </defs>
  <title
     id="title9805">blook_unicorn</title>
  <g
     data-name="medieval fantasy"
     id="medieval_fantasy">
    <path
       id="path9807"
       d="M263.62,345H36.38A36.38,36.38,0,0,1,0,308.62V259.14H300v49.48A36.38,36.38,0,0,1,263.62,345Z"
       class="cls-1" />
    <rect
       style="fill:#fcdf45;fill-opacity:1"
       id="rect9809"
       rx="36.38"
       height="253.39"
       width="300"
       y="45"
       class="cls-2" />
    <path
       style="fill:#c1d12a;fill-opacity:1"
       id="path9811"
       d="M78,299.75c0,24.51,16.68,44.9,40.05,44.9h32c10.62,0,19.16-.17,31.88-.17,23.37,0,40.05-20.38,40.05-44.89,0-.36,0-.75,0-1.16H78C78,298.9,78,299.34,78,299.75Z"
       class="cls-3" />
    <path
       style="fill:#fcdf45;fill-opacity:1"
       id="path9813"
       d="M192.22,185.73c-5-12.58-18-21-32.59-21h-9.7l-9.68,0c-14.54.07-27.49,8.43-32.43,21-13,32.9-23.68,76.62-23.68,111.24,0,22.42,15.26,41.07,36.64,41.07h29.28c9.72,0,17.53-.15,29.16-.15,21.38,0,36.64-18.64,36.64-41.07C215.86,263.59,198.86,202.58,192.22,185.73Z"
       class="cls-2" />
    <path
       style="fill:#fcd019;fill-opacity:1"
       id="path9815"
       d="M124.66,259.08c9.47,0,15.82,5.32,23.72,5.32S162.68,259,172.2,259a29.89,29.89,0,0,1,17.56,5.74,3.21,3.21,0,0,0,5-3.5l0-.13c-5.33-18.11-13.54-69.18-18-84.39-3.32-11.36-12-18.92-21.83-18.92h-6.49l-6.49,0c-9.73.06-18.4,7.61-21.7,18.92-4.64,15.85-12.25,60.59-18.44,85a3.2,3.2,0,0,0,5,3.38A29.91,29.91,0,0,1,124.66,259.08Z"
       class="cls-4" />
    <path
       style="fill:#c1d12a;fill-opacity:1"
       id="path9817"
       d="M201.85,299.74a14.27,14.27,0,0,1-24.17,15.19c-4.19-6.67.52-26,.52-26S197.65,293.06,201.85,299.74Z"
       class="cls-3" />
    <path
       style="fill:#9fbc22;fill-opacity:1"
       id="path9819"
       d="M199,307.14a14.22,14.22,0,0,1,2.12,8.83,14.25,14.25,0,0,0,.74-16.23c-4.2-6.68-23.65-10.81-23.65-10.81s-.81,3.35-1.46,7.73C181.26,297.75,195.48,301.55,199,307.14Z"
       class="cls-5" />
    <path
       style="fill:#c1d12a;fill-opacity:1"
       id="path9821"
       d="M98.15,299.74a14.27,14.27,0,0,0,24.17,15.19c4.19-6.67-.52-26-.52-26S102.35,293.06,98.15,299.74Z"
       class="cls-3" />
    <path
       style="fill:#9fbc22;fill-opacity:1"
       id="path9823"
       d="M101,307.14c3.51-5.59,17.73-9.39,22.25-10.48-.65-4.38-1.46-7.73-1.46-7.73s-19.45,4.13-23.65,10.81A14.25,14.25,0,0,0,98.89,316,14.22,14.22,0,0,1,101,307.14Z"
       class="cls-5" />
    <path
       style="fill:#7fbb17;fill-opacity:0.19565217"
       id="path9825"
       d="M79.48,82.49c-3.66,23.35,16.6,33.72,24.56,41.67s-13.07,11.22-17.75,26,21,26.94,26.45,32.34,6.22,20.88-7,20.88S83.1,191,83.1,191s-1.49,30,30,30c0,0,38.21,5.25,71-46.36C221.46,115.72,181,45,235.77,45H103.9C91.22,53,82.23,65,79.48,82.49Z"
       class="cls-6" />
    <circle
       style="fill:#fcd019;fill-opacity:1"
       id="circle9831"
       r="36.45"
       cy="189.94"
       cx="242.58"
       class="cls-4" />
    <circle
       style="fill:#fcd019;fill-opacity:1"
       id="circle9833"
       r="36.45"
       cy="189.94"
       cx="57.42"
       class="cls-4" />
    <circle
       id="circle9835"
       r="36.45"
       cy="200.06"
       cx="242.58"
       class="cls-9" />
    <circle
       id="circle9837"
       r="36.45"
       cy="200.06"
       cx="57.42"
       class="cls-9" />
    <path
       style="fill:#7fbb17;fill-opacity:1"
       id="path9839"
       d="M89.18,194.77A13.21,13.21,0,0,1,70,176.86a23,23,0,1,0,19.19,17.91Zm-32,19.76a5.46,5.46,0,1,1,5.45-5.45A5.45,5.45,0,0,1,57.14,214.53Z"
       class="cls-5" />
    <path
       style="fill:#7fbb17;fill-opacity:1"
       id="path9841"
       d="M255.63,194.64a13.22,13.22,0,0,1-19.07-17.77,24.25,24.25,0,0,0-3.32-.24,23,23,0,1,0,22.39,18Zm-32.22,19.89a5.46,5.46,0,1,1,5.46-5.45A5.45,5.45,0,0,1,223.41,214.53Z"
       class="cls-5" />
    <path
       style="fill:#fcdf45;fill-opacity:1"
       id="path9843"
       d="M0,86.92C0,14.92,38.55,0,38.55,0l35,71.3"
       class="cls-2" />
    <path
       style="fill:#fcd019;fill-opacity:1"
       id="path9845"
       d="M30.41,21.56a61.36,61.36,0,0,1,6.25,8.9,104.43,104.43,0,0,1,5,9.49,103,103,0,0,1,4,9.94A60.74,60.74,0,0,1,48.3,60.43,60.66,60.66,0,0,1,42,51.53,101.78,101.78,0,0,1,37.09,42a104.78,104.78,0,0,1-4-9.95A62.73,62.73,0,0,1,30.41,21.56Z"
       class="cls-4" />
    <path
       style="fill:#fcd019;fill-opacity:1"
       id="path9847"
       d="M17.51,56.13A13.69,13.69,0,0,1,16.93,52a18.22,18.22,0,0,1,.45-4.16A21.24,21.24,0,0,1,21,40a17.59,17.59,0,0,1,7-5.74,17.36,17.36,0,0,1,8.83-1.43v5A20.81,20.81,0,0,0,30.4,39.6a16.35,16.35,0,0,0-5.14,3.88,32.18,32.18,0,0,0-4,5.8C20.06,51.42,18.89,53.68,17.51,56.13Z"
       class="cls-4" />
    <path
       style="fill:#fcdf45;fill-opacity:1"
       id="path9849"
       d="M300,86.92C300,14.92,261.45,0,261.45,0l-35,71.3"
       class="cls-2" />
    <path
       style="fill:#fcd019;fill-opacity:1"
       id="path9851"
       d="M269.59,21.56a62.73,62.73,0,0,1-2.69,10.53,104.78,104.78,0,0,1-4,9.95,101.78,101.78,0,0,1-5,9.49,60.66,60.66,0,0,1-6.26,8.9,60.74,60.74,0,0,1,2.69-10.54,103,103,0,0,1,4-9.94,104.43,104.43,0,0,1,5-9.49A61.36,61.36,0,0,1,269.59,21.56Z"
       class="cls-4" />
    <path
       style="fill:#fcd019;fill-opacity:1"
       id="path9853"
       d="M282.49,56.13c-1.38-2.45-2.55-4.71-3.78-6.85a32.18,32.18,0,0,0-4-5.8,16.35,16.35,0,0,0-5.14-3.88,20.81,20.81,0,0,0-6.36-1.76v-5a17.36,17.36,0,0,1,8.83,1.43,17.59,17.59,0,0,1,7,5.74,21.24,21.24,0,0,1,3.57,7.81,18.22,18.22,0,0,1,.45,4.16A13.69,13.69,0,0,1,282.49,56.13Z"
       class="cls-4" />
    <path
       style="fill:#7fbb17;fill-opacity:1"
       id="path9855"
       d="M218,45s-12.52-17.78-52.91-17.78-80.91,8.26-87,47.4c-3.3,21,15,30.41,22.14,37.58s-11.78,10.12-16,23.4,19,24.29,23.85,29.17,5.62,18.83-6.35,18.83-20.38-11.1-20.38-11.1-1.34,27.06,27,27.06c0,0,34.46,4.73,64-41.81C206.13,104.58,168.6,45,218,45Z"
       class="cls-5" />
    <ellipse
       style="fill:#3a3a3a;fill-opacity:0.25543482"
       id="ellipse9857"
       ry="14.11"
       rx="29.25"
       cy="124.79171"
       cx="144.31468"
       class="cls-10" />
    <g
       transform="matrix(24.286375,0,0,20.776503,90.454799,-6.0589351)"
       id="g11806">
      <path
         d="M 2.2175954,0.69466237 H 1.7124539 A 0.16848517,0.16848517 0 0 0 1.5438756,0.8632413 V 1.0312245 A 0.16848517,0.16848517 0 0 0 1.7124539,1.1998034 H 1.3752965 a 0.16848517,0.16848517 0 0 0 -0.170366,0.1703658 l 0.00179,0.1661962 A 0.16848517,0.16848517 0 0 0 1.3753001,1.7049443 0.16848517,0.16848517 0 0 0 1.206721,1.8735231 V 2.0426977 A 0.16848517,0.16848517 0 0 0 1.3753001,2.2112765 0.16848517,0.16848517 0 0 0 1.206721,2.3798555 V 2.5478386 A 0.16848517,0.16848517 0 0 0 1.3753001,2.7164175 0.16848517,0.16848517 0 0 0 1.206721,2.8849964 V 3.0529795 A 0.16848517,0.16848517 0 0 0 1.3753001,3.2215584 0.16848517,0.16848517 0 0 0 1.206721,3.3901373 L 1.2061244,3.5587161 A 0.16848517,0.16848517 0 0 0 1.3747028,3.727295 0.16848517,0.16848517 0 0 0 1.2067195,3.8952781 v 0.1691745 a 0.16848517,0.16848517 0 0 0 0.1685792,0.168579 H 1.8804393 V 4.9764464 H 2.5547549 V 4.2330316 H 3.0598963 A 0.16848517,0.16848517 0 0 0 3.2284711,4.0644526 V 3.8952781 A 0.16848517,0.16848517 0 0 0 3.0604878,3.727295 0.16848517,0.16848517 0 0 0 3.2290669,3.5587161 L 3.2266869,3.3919243 A 0.16848517,0.16848517 0 0 0 3.0581079,3.2233455 0.16848517,0.16848517 0 0 0 3.2266869,3.0547665 V 2.8867833 A 0.16848517,0.16848517 0 0 0 3.0581079,2.7182044 0.16848517,0.16848517 0 0 0 3.2266869,2.5496256 V 2.3816426 A 0.16848517,0.16848517 0 0 0 3.0581079,2.2130637 0.16848517,0.16848517 0 0 0 3.2266869,2.0444848 V 1.8753103 a 0.16848517,0.16848517 0 0 0 -0.168579,-0.1685789 0.16848517,0.16848517 0 0 0 0.168579,-0.168579 l 0.00358,-0.1679832 A 0.16848517,0.16848517 0 0 0 3.0616825,1.2015904 H 2.7245229 A 0.16848517,0.16848517 0 0 0 2.893102,1.0330115 V 0.86502835 A 0.16848517,0.16848517 0 0 0 2.7245229,0.69644948 Z"
         id="path10532"
         style="fill:#e59730;stroke-width:0.08424258" />
      <path
         d="M 2.3861737,0.69406668 A 0.16848517,0.16848517 0 1 0 2.3855771,0.35750464 H 2.0496129 a 0.16848517,0.16848517 0 1 0 -5.967e-4,0.33656204 z"
         id="path10534"
         style="fill:#f9ed86;stroke-width:0.08424258" />
      <g
         id="g10580"
         transform="matrix(0.0595685,-0.0595685,0.0595685,0.0595685,-1.5947888,3.5742039)"
         style="fill:#fcbc04">
        <rect
           height="6"
           rx="2"
           transform="matrix(0.707,0.707,-0.707,0.707,22.48,-20.23)"
           width="8"
           x="31.67"
           y="14.02"
           id="rect10536" />
        <rect
           height="6"
           rx="2"
           transform="matrix(0.707,0.707,-0.707,0.707,28.14,-22.58)"
           width="8"
           x="37.32"
           y="19.68"
           id="rect10538" />
        <rect
           height="6"
           rx="2"
           transform="matrix(0.707,0.707,-0.707,0.707,33.8,-24.92)"
           width="8"
           x="42.98"
           y="25.33"
           id="rect10540" />
        <rect
           height="6"
           rx="2"
           transform="matrix(0.707,0.707,-0.707,0.707,20.72,-24.48)"
           width="8"
           x="35.91"
           y="9.7799997"
           id="rect10542" />
        <rect
           height="6"
           rx="2"
           transform="matrix(0.707,0.707,-0.707,0.707,26.38,-26.82)"
           width="8"
           x="41.560001"
           y="15.44"
           id="rect10544" />
        <rect
           height="6"
           rx="2"
           transform="matrix(0.707,0.707,-0.707,0.707,32.04,-29.16)"
           width="8"
           x="47.220001"
           y="21.09"
           id="rect10546" />
        <rect
           height="6"
           rx="2"
           transform="matrix(0.707,0.707,-0.707,0.707,18.97,-28.72)"
           width="8"
           x="40.150002"
           y="5.54"
           id="rect10548" />
        <rect
           height="6"
           rx="2"
           transform="matrix(0.707,0.707,-0.707,0.707,24.62,-31.06)"
           width="8"
           x="45.810001"
           y="11.19"
           id="rect10550" />
        <rect
           height="6"
           rx="2"
           transform="matrix(0.707,0.707,-0.707,0.707,30.28,-33.41)"
           width="8"
           x="51.459999"
           y="16.85"
           id="rect10552" />
        <rect
           height="6"
           rx="2"
           transform="matrix(0.707,0.707,-0.707,0.707,20.04,-34.13)"
           width="8"
           x="47.220001"
           y="4.1199999"
           id="rect10554" />
        <rect
           height="6"
           rx="2"
           transform="matrix(0.707,0.707,-0.707,0.707,25.69,-36.48)"
           width="8"
           x="52.880001"
           y="9.7799997"
           id="rect10556" />
        <rect
           height="4"
           rx="2"
           transform="matrix(0.707,0.707,-0.707,0.707,21.4,-38.84)"
           width="8"
           x="53.59"
           y="4.4099998"
           id="rect10558" />
        <rect
           height="6"
           rx="2"
           transform="matrix(0.707,0.707,-0.707,0.707,26,-11.75)"
           width="8"
           x="23.18"
           y="22.51"
           id="rect10560" />
        <rect
           height="6"
           rx="2"
           transform="matrix(0.707,0.707,-0.707,0.707,31.65,-14.09)"
           width="8"
           x="28.84"
           y="28.16"
           id="rect10562" />
        <rect
           height="6"
           rx="2"
           transform="matrix(0.707,0.707,-0.707,0.707,37.31,-16.44)"
           width="8"
           x="34.490002"
           y="33.82"
           id="rect10564" />
        <rect
           height="6"
           rx="2"
           transform="matrix(0.707,0.707,-0.707,0.707,24.24,-15.99)"
           width="8"
           x="27.42"
           y="18.26"
           id="rect10566" />
        <rect
           height="6"
           rx="2"
           transform="matrix(0.707,0.707,-0.707,0.707,29.9,-18.33)"
           width="8"
           x="33.080002"
           y="23.92"
           id="rect10568" />
        <rect
           height="6"
           rx="2"
           transform="matrix(0.707,0.707,-0.707,0.707,35.55,-20.68)"
           width="8"
           x="38.740002"
           y="29.58"
           id="rect10570" />
        <rect
           height="6"
           rx="2"
           transform="matrix(0.707,0.707,-0.707,0.707,27.75,-7.51)"
           width="8"
           x="18.940001"
           y="26.75"
           id="rect10572" />
        <rect
           height="6"
           rx="2"
           transform="matrix(0.707,0.707,-0.707,0.707,33.41,-9.85)"
           width="8"
           x="24.59"
           y="32.41"
           id="rect10574" />
        <rect
           height="6"
           rx="2"
           transform="matrix(0.707,0.707,-0.707,0.707,39.07,-12.19)"
           width="8"
           x="30.25"
           y="38.060001"
           id="rect10576" />
        <rect
           height="6"
           rx="2"
           transform="matrix(0.707,0.707,-0.707,0.707,35.17,-5.61)"
           width="8"
           x="20.35"
           y="36.650002"
           id="rect10578" />
      </g>
      <path
         d="M 1.7113274,0.69442057 H 2.048247 v 0.0842299 A 0.25268959,0.25268959 0 0 1 1.7955571,1.03134 H 1.5428672 V 0.86288033 A 0.16845973,0.16845973 0 0 1 1.7113274,0.69442057 Z"
         id="path10582"
         style="fill:#f9e109;stroke-width:0.08422987" />
      <path
         d="m 2.3852397,0.69436693 h 0.3369197 v 0.0842299 A 0.25268959,0.25268959 0 0 1 2.4694701,1.0312864 H 2.2167803 V 0.86282668 A 0.16845973,0.16845973 0 0 1 2.3852397,0.69436693 Z"
         id="path10584"
         style="fill:#f9e109;stroke-width:0.08422987" />
      <path
         d="m 1.3749449,1.1997843 h 0.3369196 v 0.08423 A 0.25268959,0.25268959 0 0 1 1.4591746,1.5367038 H 1.2064854 V 1.368244 A 0.16845973,0.16845973 0 0 1 1.3749449,1.1997843 Z"
         id="path10586"
         style="fill:#f9e109;stroke-width:0.08422987" />
      <path
         d="m 2.0482621,1.1999774 h 0.3369196 v 0.08423 A 0.25268959,0.25268959 0 0 1 2.1324918,1.5368967 H 1.8798026 V 1.368437 A 0.16845973,0.16845973 0 0 1 2.0482621,1.1999774 Z"
         id="path10588"
         style="fill:#f9e109;stroke-width:0.08422987" />
      <path
         d="m 2.7219281,1.2001703 h 0.3369196 v 0.08423 A 0.25268959,0.25268959 0 0 1 2.8061578,1.5370897 H 2.5534685 V 1.36863 A 0.16845973,0.16845973 0 0 1 2.7219281,1.2001703 Z"
         id="path10590"
         style="fill:#f9e109;stroke-width:0.08422987" />
      <path
         d="M 1.3746254,1.7052445 H 1.711545 v 0.08423 A 0.25268959,0.25268959 0 0 1 1.4588558,2.042164 H 1.206166 V 1.8737043 A 0.16845973,0.16845973 0 0 1 1.3746254,1.7052445 Z"
         id="path10592"
         style="fill:#f9e109;stroke-width:0.08422987" />
      <path
         d="m 2.0482921,1.7037529 h 0.336919 v 0.08423 A 0.25268959,0.25268959 0 0 1 2.1325219,2.0406724 h -0.25269 V 1.8722127 A 0.16845973,0.16845973 0 0 1 2.0482921,1.7037529 Z"
         id="path10594"
         style="fill:#f9e109;stroke-width:0.08422987" />
      <path
         d="m 2.7222046,1.7050349 h 0.3369196 v 0.08423 a 0.25268959,0.25268959 0 0 1 -0.25269,0.2526897 H 2.553745 v -0.16846 A 0.16845973,0.16845973 0 0 1 2.7222046,1.7050349 Z"
         id="path10596"
         style="fill:#f9e109;stroke-width:0.08422987" />
      <path
         d="m 1.3749019,2.2109513 h 0.3369196 v 0.08423 A 0.25268959,0.25268959 0 0 1 1.4591323,2.5478709 H 1.2064424 V 2.3794111 A 0.16845973,0.16845973 0 0 1 1.3749019,2.2109513 Z"
         id="path10598"
         style="fill:#f9e109;stroke-width:0.08422987" />
      <path
         d="m 2.0485686,2.210302 h 0.3369189 v 0.08423 A 0.25268959,0.25268959 0 0 1 2.1327983,2.5472214 H 1.8801084 V 2.3787617 A 0.16845973,0.16845973 0 0 1 2.0485686,2.210302 Z"
         id="path10600"
         style="fill:#f9e109;stroke-width:0.08422987" />
      <path
         d="m 2.7247614,2.210495 h 0.3369197 v 0.08423 a 0.25268959,0.25268959 0 0 1 -0.25269,0.2526896 H 2.5563019 V 2.3789547 A 0.16845973,0.16845973 0 0 1 2.7247614,2.210495 Z"
         id="path10602"
         style="fill:#f9e109;stroke-width:0.08422987" />
      <path
         d="m 1.3743361,2.7158158 h 0.3369196 v 0.08423 A 0.25268959,0.25268959 0 0 1 1.4585658,3.0527352 H 1.2058766 V 2.8842755 A 0.16845973,0.16845973 0 0 1 1.3743361,2.7158158 Z"
         id="path10604"
         style="fill:#f9e109;stroke-width:0.08422987" />
      <path
         d="m 2.048845,2.7160088 h 0.336919 v 0.08423 A 0.25268959,0.25268959 0 0 1 2.1330748,3.0529283 h -0.25269 V 2.8844685 A 0.16845973,0.16845973 0 0 1 2.048845,2.7160088 Z"
         id="path10606"
         style="fill:#f9e109;stroke-width:0.08422987" />
      <path
         d="m 2.7227574,2.7159552 h 0.3369197 v 0.08423 A 0.25268959,0.25268959 0 0 1 2.8069872,3.0528748 H 2.554298 V 2.884415 A 0.16845973,0.16845973 0 0 1 2.7227574,2.7159552 Z"
         id="path10608"
         style="fill:#f9e109;stroke-width:0.08422987" />
      <path
         d="m 1.3752084,3.221276 h 0.3369197 v 0.08423 A 0.25268959,0.25268959 0 0 1 1.4594382,3.5581955 H 1.2067489 V 3.3897357 A 0.16845973,0.16845973 0 0 1 1.3752084,3.221276 Z"
         id="path10610"
         style="fill:#f9e109;stroke-width:0.08422987" />
      <path
         d="m 2.0485256,3.221469 h 0.336919 v 0.08423 A 0.25268959,0.25268959 0 0 1 2.1327553,3.5583885 H 1.8800654 V 3.3899288 A 0.16845973,0.16845973 0 0 1 2.0485256,3.221469 Z"
         id="path10612"
         style="fill:#f9e109;stroke-width:0.08422987" />
      <path
         d="m 2.7221916,3.2216621 h 0.3369196 v 0.08423 A 0.25268959,0.25268959 0 0 1 2.8064214,3.5585815 H 2.5537322 V 3.3901218 A 0.16845973,0.16845973 0 0 1 2.7221916,3.2216621 Z"
         id="path10614"
         style="fill:#f9e109;stroke-width:0.08422987" />
      <path
         d="m 1.374889,3.7267362 h 0.3369197 v 0.08423 a 0.25268959,0.25268959 0 0 1 -0.25269,0.2526896 H 1.2064295 V 3.8951959 A 0.16845973,0.16845973 0 0 1 1.374889,3.7267362 Z"
         id="path10616"
         style="fill:#f9e109;stroke-width:0.08422987" />
      <path
         d="m 2.048555,3.7277715 h 0.3369197 v 0.08423 A 0.25268959,0.25268959 0 0 1 2.1327847,4.064691 H 1.8800955 V 3.8962313 A 0.16845973,0.16845973 0 0 1 2.048555,3.7277715 Z"
         id="path10618"
         style="fill:#f9e109;stroke-width:0.08422987" />
      <path
         d="m 2.7224681,3.7265266 h 0.3369196 v 0.08423 A 0.25268959,0.25268959 0 0 1 2.8066978,4.0634459 H 2.5540086 V 3.8949862 A 0.16845973,0.16845973 0 0 1 2.7224681,3.7265266 Z"
         id="path10620"
         style="fill:#f9e109;stroke-width:0.08422987" />
      <path
         d="m 2.0488314,4.2317937 h 0.3369197 v 0.08423 A 0.25268959,0.25268959 0 0 1 2.1330612,4.5687132 H 1.880372 V 4.4002534 A 0.16845973,0.16845973 0 0 1 2.0488314,4.2317937 Z"
         id="path10622"
         style="fill:#f9e109;stroke-width:0.08422987" />
      <path
         d="M 2.0489124,0.35786218 H 2.385832 A 0.16845973,0.16845973 0 0 1 2.2173726,0.52632179 H 1.8804529 A 0.16845973,0.16845973 0 0 1 2.0489124,0.35786218 Z"
         id="path10624"
         style="fill:#f9e109;stroke-width:0.08422987" />
      <path
         d="M 1.7961501,5.933412 H 2.6384489 V 6.607251 H 1.7961501 Z"
         id="path10626"
         style="fill:#7fa017;fill-opacity:1;stroke-width:0.08422987" />
      <path
         d="M 0.86976844,3.9956523 H 1.206688 A 1.0107583,1.0107583 0 0 1 2.2174464,5.0064106 V 6.2698587 A 1.3476779,1.3476779 0 0 1 0.86976844,4.9221807 Z"
         id="path10628"
         style="fill:#c1d12a;fill-opacity:1;stroke-width:0.08422987" />
      <path
         d="M 3.3930006,3.406565 H 3.5614608 V 4.9227026 A 1.3476779,1.3476779 0 0 1 2.2137829,6.2703804 V 4.5857831 A 1.1792181,1.1792181 0 0 1 3.3930006,3.406565 Z"
         id="path10630"
         style="fill:#c1d12a;fill-opacity:1;stroke-width:0.08422987" />
      <path
         d="m 3.267788,3.4139647 5.966e-4,1.2110275 A 1.3478814,1.3478814 0 0 1 2.2181905,5.9384778 l -5.966e-4,0.332988 A 1.3478814,1.3478814 0 0 0 3.5656307,4.9234305 V 3.4068163 L 3.3970515,3.4062194 c -0.043481,5.969e-4 -0.086969,0.00358 -0.1292635,0.00775 z"
         id="path10632"
         style="fill:#9fbc22;fill-opacity:1;stroke-width:0.08424258" />
      <path
         d="M 1.9793215,4.646437 V 5.1515779 A 0.7581833,0.7581833 0 0 1 1.302623,5.9045239 1.3478814,1.3478814 0 0 0 2.2175954,6.2714658 V 5.003848 A 1.0109109,1.0109109 0 0 0 1.9090301,4.2771122 1.0176504,1.0176504 0 0 1 1.9793201,4.646437 Z"
         id="path10634"
         style="fill:#9fbc22;fill-opacity:1;stroke-width:0.08424258" />
    </g>
  </g>
</svg>
