<?xml version="1.0" encoding="UTF-8" standalone="no"?>
<svg
   xmlns:dc="http://purl.org/dc/elements/1.1/"
   xmlns:cc="http://creativecommons.org/ns#"
   xmlns:rdf="http://www.w3.org/1999/02/22-rdf-syntax-ns#"
   xmlns:svg="http://www.w3.org/2000/svg"
   xmlns="http://www.w3.org/2000/svg"
   xmlns:xlink="http://www.w3.org/1999/xlink"
   version="1.1"
   viewBox="0 0 300 345"
   data-name="Layer 1"
   id="Layer_1">
  <metadata
     id="metadata1029">
    <rdf:RDF>
      <cc:Work
         rdf:about="">
        <dc:format>image/svg+xml</dc:format>
        <dc:type
           rdf:resource="http://purl.org/dc/dcmitype/StillImage" />
        <dc:title>blook_dragon</dc:title>
      </cc:Work>
    </rdf:RDF>
  </metadata>
  <defs
     id="defs942">
    <linearGradient
       id="linearGradient1317"
       x1="150"
       y1="30.55"
       x2="150"
       y2="115.03"
       gradientUnits="userSpaceOnUse">
      <stop
         style="stop-color:#4d6eed;stop-opacity:1"
         offset="0"
         stop-color="#237d3e"
         stop-opacity="0.5"
         id="stop1313" />
      <stop
         style="stop-color:#4dabed;stop-opacity:1"
         offset="1"
         stop-color="#2fa04a"
         id="stop1315" />
    </linearGradient>
    <linearGradient
       id="linearGradient1311"
       x1="150"
       y1="30.55"
       x2="150"
       y2="115.03"
       gradientUnits="userSpaceOnUse">
      <stop
         style="stop-color:#4d6eed;stop-opacity:1"
         offset="0"
         stop-color="#237d3e"
         stop-opacity="0.5"
         id="stop1307" />
      <stop
         style="stop-color:#4dabed;stop-opacity:1"
         offset="1"
         stop-color="#2fa04a"
         id="stop1309" />
    </linearGradient>
    <linearGradient
       id="linearGradient1305"
       x1="150"
       y1="30.55"
       x2="150"
       y2="115.03"
       gradientUnits="userSpaceOnUse">
      <stop
         style="stop-color:#4d6eed;stop-opacity:1"
         offset="0"
         stop-color="#237d3e"
         stop-opacity="0.5"
         id="stop1301" />
      <stop
         style="stop-color:#4dabed;stop-opacity:1"
         offset="1"
         stop-color="#2fa04a"
         id="stop1303" />
    </linearGradient>
    <linearGradient
       id="linearGradient1299"
       x1="150"
       y1="30.55"
       x2="150"
       y2="115.03"
       gradientUnits="userSpaceOnUse">
      <stop
         style="stop-color:#4d6eed;stop-opacity:1"
         offset="0"
         stop-color="#237d3e"
         stop-opacity="0.5"
         id="stop1295" />
      <stop
         style="stop-color:#4dabed;stop-opacity:1"
         offset="1"
         stop-color="#2fa04a"
         id="stop1297" />
    </linearGradient>
    <linearGradient
       id="linearGradient1293"
       x1="150"
       y1="30.55"
       x2="150"
       y2="115.03"
       gradientUnits="userSpaceOnUse">
      <stop
         style="stop-color:#4d6eed;stop-opacity:1"
         offset="0"
         stop-color="#237d3e"
         stop-opacity="0.5"
         id="stop1289" />
      <stop
         style="stop-color:#4dabed;stop-opacity:1"
         offset="1"
         stop-color="#2fa04a"
         id="stop1291" />
    </linearGradient>
    <linearGradient
       id="linearGradient1287"
       x1="150"
       y1="30.55"
       x2="150"
       y2="115.03"
       gradientUnits="userSpaceOnUse">
      <stop
         style="stop-color:#4d6eed;stop-opacity:1"
         offset="0"
         stop-color="#237d3e"
         stop-opacity="0.5"
         id="stop1283" />
      <stop
         style="stop-color:#4dabed;stop-opacity:1"
         offset="1"
         stop-color="#2fa04a"
         id="stop1285" />
    </linearGradient>
    <linearGradient
       id="linearGradient1281"
       x1="150"
       y1="347.09"
       x2="150"
       y2="229.5"
       gradientUnits="userSpaceOnUse">
      <stop
         style="stop-color:#4dabed;stop-opacity:1"
         offset="0"
         stop-color="#1f8e58"
         id="stop1275" />
      <stop
         offset="1"
         stop-color="#104931"
         id="stop1277" />
      <stop
         style="stop-color:#4d78ed;stop-opacity:1"
         offset="1"
         stop-color="#176737"
         id="stop1279" />
    </linearGradient>
    <linearGradient
       id="linearGradient1179"
       x1="150"
       y1="30.55"
       x2="150"
       y2="115.03"
       gradientUnits="userSpaceOnUse">
      <stop
         style="stop-color:#5a1f24;stop-opacity:1"
         offset="0"
         stop-color="#237d3e"
         stop-opacity="0.5"
         id="stop1175" />
      <stop
         style="stop-color:#901f24;stop-opacity:1"
         offset="1"
         stop-color="#2fa04a"
         id="stop1177" />
    </linearGradient>
    <linearGradient
       id="linearGradient1173"
       x1="150"
       y1="30.55"
       x2="150"
       y2="115.03"
       gradientUnits="userSpaceOnUse">
      <stop
         style="stop-color:#5a1f24;stop-opacity:1"
         offset="0"
         stop-color="#237d3e"
         stop-opacity="0.5"
         id="stop1169" />
      <stop
         style="stop-color:#901f24;stop-opacity:1"
         offset="1"
         stop-color="#2fa04a"
         id="stop1171" />
    </linearGradient>
    <linearGradient
       id="linearGradient1155"
       x1="150"
       y1="30.55"
       x2="150"
       y2="115.03"
       gradientUnits="userSpaceOnUse">
      <stop
         style="stop-color:#5a1f24;stop-opacity:1"
         offset="0"
         stop-color="#237d3e"
         stop-opacity="0.5"
         id="stop1151" />
      <stop
         style="stop-color:#901f24;stop-opacity:1"
         offset="1"
         stop-color="#2fa04a"
         id="stop1153" />
    </linearGradient>
    <linearGradient
       id="linearGradient1149"
       x1="150"
       y1="30.55"
       x2="150"
       y2="115.03"
       gradientUnits="userSpaceOnUse">
      <stop
         style="stop-color:#5a1f24;stop-opacity:1"
         offset="0"
         stop-color="#237d3e"
         stop-opacity="0.5"
         id="stop1145" />
      <stop
         style="stop-color:#901f24;stop-opacity:1"
         offset="1"
         stop-color="#2fa04a"
         id="stop1147" />
    </linearGradient>
    <linearGradient
       id="linearGradient1143"
       x1="150"
       y1="30.55"
       x2="150"
       y2="115.03"
       gradientUnits="userSpaceOnUse">
      <stop
         style="stop-color:#5a1f24;stop-opacity:1"
         offset="0"
         stop-color="#237d3e"
         stop-opacity="0.5"
         id="stop1139" />
      <stop
         style="stop-color:#901f24;stop-opacity:1"
         offset="1"
         stop-color="#2fa04a"
         id="stop1141" />
    </linearGradient>
    <linearGradient
       id="linearGradient1137"
       x1="150"
       y1="30.55"
       x2="150"
       y2="115.03"
       gradientUnits="userSpaceOnUse">
      <stop
         style="stop-color:#5a1f24;stop-opacity:1"
         offset="0"
         stop-color="#237d3e"
         stop-opacity="0.5"
         id="stop1133" />
      <stop
         style="stop-color:#901f24;stop-opacity:1"
         offset="1"
         stop-color="#2fa04a"
         id="stop1135" />
    </linearGradient>
    <linearGradient
       id="linearGradient1131"
       x1="150"
       y1="347.09"
       x2="150"
       y2="229.5"
       gradientUnits="userSpaceOnUse">
      <stop
         style="stop-color:#901f24;stop-opacity:1"
         offset="0"
         stop-color="#1f8e58"
         id="stop1125" />
      <stop
         offset="1"
         stop-color="#104931"
         id="stop1127" />
      <stop
         style="stop-color:#411f24;stop-opacity:1"
         offset="1"
         stop-color="#176737"
         id="stop1129" />
    </linearGradient>
    <style
       id="style923">.cls-1{fill:url(#linear-gradient);}.cls-2{fill:#12543f;fill-opacity:0.4;}.cls-3{fill:#2fa04a;}.cls-4{fill:url(#linear-gradient-2);}.cls-5{fill:url(#linear-gradient-3);}.cls-6{fill:url(#linear-gradient-4);}.cls-7{fill:url(#linear-gradient-5);}.cls-8{fill:url(#linear-gradient-6);}.cls-9{fill:url(#linear-gradient-7);}.cls-10,.cls-13,.cls-14,.cls-15{fill:#237d3e;}.cls-10{fill-opacity:0.8;}.cls-11{fill:#fff;}.cls-12{fill:#414042;}.cls-13{opacity:0.5;}.cls-14{fill-opacity:0.5;}.cls-15{opacity:0.6;}.cls-16{fill:#58595b;}.cls-17{fill:#bcbec0;}</style>
    <linearGradient
       gradientUnits="userSpaceOnUse"
       y2="229.5"
       x2="150"
       y1="347.09"
       x1="150"
       id="linear-gradient">
      <stop
         id="stop925"
         stop-color="#1f8e58"
         offset="0" />
      <stop
         id="stop927"
         stop-color="#104931"
         offset="1" />
      <stop
         id="stop929"
         stop-color="#176737"
         offset="1" />
    </linearGradient>
    <linearGradient
       gradientUnits="userSpaceOnUse"
       y2="115.03"
       x2="150"
       y1="30.55"
       x1="150"
       id="linear-gradient-2">
      <stop
         id="stop932"
         stop-opacity="0.5"
         stop-color="#237d3e"
         offset="0" />
      <stop
         id="stop934"
         stop-color="#2fa04a"
         offset="1" />
    </linearGradient>
    <linearGradient
       xlink:href="#linear-gradient-2"
       y2="142.49"
       x2="188.77"
       y1="58.01"
       x1="188.77"
       id="linear-gradient-3" />
    <linearGradient
       xlink:href="#linear-gradient-2"
       y2="142.49"
       x2="111.23"
       y1="58.01"
       x1="111.23"
       id="linear-gradient-4" />
    <linearGradient
       xlink:href="#linear-gradient-2"
       y2="174.61"
       x2="150"
       y1="90.13"
       x1="150"
       id="linear-gradient-5" />
    <linearGradient
       xlink:href="#linear-gradient-2"
       y2="202.08"
       x2="188.77"
       y1="117.59"
       x1="188.77"
       id="linear-gradient-6" />
    <linearGradient
       xlink:href="#linear-gradient-2"
       y2="202.08"
       x2="111.23"
       y1="117.59"
       x1="111.23"
       id="linear-gradient-7" />
    <linearGradient
       gradientTransform="translate(382.83531,-1.2076824)"
       y2="229.5"
       x2="150"
       y1="347.09"
       x1="150"
       gradientUnits="userSpaceOnUse"
       id="linearGradient1261"
       xlink:href="#linearGradient1281" />
    <linearGradient
       gradientTransform="translate(382.83531,-1.2076824)"
       y2="115.03"
       x2="150"
       y1="30.55"
       x1="150"
       gradientUnits="userSpaceOnUse"
       id="linearGradient1263"
       xlink:href="#linearGradient1317" />
    <linearGradient
       gradientTransform="translate(382.83531,-1.2076824)"
       y2="142.49"
       x2="188.77"
       y1="58.01"
       x1="188.77"
       id="linearGradient1265"
       xlink:href="#linearGradient1305" />
    <linearGradient
       gradientTransform="translate(382.83531,-1.2076824)"
       y2="142.49"
       x2="111.23"
       y1="58.01"
       x1="111.23"
       id="linearGradient1267"
       xlink:href="#linearGradient1311" />
    <linearGradient
       gradientTransform="translate(382.83531,-1.2076824)"
       y2="174.61"
       x2="150"
       y1="90.13"
       x1="150"
       id="linearGradient1269"
       xlink:href="#linearGradient1299" />
    <linearGradient
       gradientTransform="translate(382.83531,-1.2076824)"
       y2="202.08"
       x2="188.77"
       y1="117.59"
       x1="188.77"
       id="linearGradient1271"
       xlink:href="#linearGradient1293" />
    <linearGradient
       gradientTransform="translate(382.83531,-1.2076824)"
       y2="202.08"
       x2="111.23"
       y1="117.59"
       x1="111.23"
       id="linearGradient1273"
       xlink:href="#linearGradient1287" />
  </defs>
  <title
     id="title944">blook_dragon</title>
  <g
     transform="translate(-382.83532,1.2076747)"
     id="g1401">
    <path
       id="path1181"
       d="m 646.45531,343.60232 h -227.24 a 36.38,36.38 0 0 1 -36.38,-36.38 v -53.38 h 300 v 53.38 a 36.38,36.38 0 0 1 -36.38,36.38 z"
       class="cls-1"
       style="fill:url(#linearGradient1261)" />
    <rect
       id="rect1183"
       height="52.650002"
       width="157.78"
       y="290.95233"
       x="453.92532"
       class="cls-2"
       style="fill:#285dd7;fill-opacity:0.47058824" />
    <rect
       id="rect1185"
       rx="36.380001"
       height="253.39"
       width="300"
       y="43.162315"
       class="cls-3"
       x="382.83533"
       style="fill:#4dabed;fill-opacity:1" />
    <path
       id="path1187"
       d="m 452.24531,286.33232 c 2.91,18.2 10.94,51.19 80.72,51.19 69.78,0 77.5,-32.64 80.46,-51.19 0.02,-0.15 -161.2,-0.15 -161.18,0 z"
       class="cls-3"
       style="fill:#4dabed;fill-opacity:1" />
    <path
       id="path1189"
       d="m 532.21531,102.30232 a 8.31,8.31 0 0 1 -5.95,-2.920002 l -16,-20 a 7.2,7.2 0 0 1 0,-9 l 16,-20 a 8.27,8.27 0 0 1 5.95,-2.92 c 0.41,0 0.83,0 1.24,0 a 8.27,8.27 0 0 1 5.95,2.92 l 16,20 a 7.2,7.2 0 0 1 0,9 l -16,20 a 8.48,8.48 0 0 1 -6.57,3.000002 z"
       class="cls-4"
       style="fill:url(#linearGradient1263)" />
    <path
       id="path1191"
       d="m 570.99531,129.79232 a 8.33,8.33 0 0 1 -6,-2.92 l -16,-20 a 7.18,7.18 0 0 1 0,-9.000002 l 16,-20 a 8.29,8.29 0 0 1 6,-2.92 q 0.61,0 1.23,0 a 8.29,8.29 0 0 1 6,2.92 l 16,20 a 7.18,7.18 0 0 1 0,9.000002 l -16,20 a 8.45,8.45 0 0 1 -6.57,2.95 c -0.24,-0.03 -0.45,-0.03 -0.66,-0.03 z"
       class="cls-5"
       style="fill:url(#linearGradient1265)" />
    <path
       id="path1193"
       d="m 493.44531,129.79232 a 8.33,8.33 0 0 1 -6,-2.92 l -16,-20 a 7.18,7.18 0 0 1 0,-9.000002 l 16,-20 a 8.29,8.29 0 0 1 6,-2.92 q 0.61,0 1.23,0 a 8.29,8.29 0 0 1 6,2.92 l 16,20 a 7.18,7.18 0 0 1 0,9.000002 l -16,20 a 8.45,8.45 0 0 1 -6.57,2.95 c -0.27,-0.03 -0.45,-0.03 -0.66,-0.03 z"
       class="cls-6"
       style="fill:url(#linearGradient1267)" />
    <path
       id="path1195"
       d="m 532.21531,161.88232 a 8.26,8.26 0 0 1 -5.95,-2.91 l -16,-20 a 7.22,7.22 0 0 1 0,-9 l 16,-20 a 8.24,8.24 0 0 1 5.95,-2.92 8.55,8.55 0 0 1 1.24,0 8.24,8.24 0 0 1 5.95,2.92 l 16,20 a 7.22,7.22 0 0 1 0,9 l -16,20 a 8.52,8.52 0 0 1 -6.57,3 c -0.19,-0.07 -0.4,-0.07 -0.62,-0.09 z"
       class="cls-7"
       style="fill:url(#linearGradient1269)" />
    <path
       id="path1197"
       d="m 570.99531,189.34232 a 8.29,8.29 0 0 1 -6,-2.91 l -16,-20 a 7.19,7.19 0 0 1 0,-9 l 16,-20 a 8.26,8.26 0 0 1 6,-2.92 8.42,8.42 0 0 1 1.23,0 8.26,8.26 0 0 1 6,2.92 l 16,20 a 7.19,7.19 0 0 1 0,9 l -16,20 a 8.49,8.49 0 0 1 -6.57,2.95 c -0.24,-0.02 -0.45,-0.02 -0.66,-0.04 z"
       class="cls-8"
       style="fill:url(#linearGradient1271)" />
    <path
       id="path1199"
       d="m 493.44531,189.34232 a 8.29,8.29 0 0 1 -6,-2.91 l -16,-20 a 7.19,7.19 0 0 1 0,-9 l 16,-20 a 8.26,8.26 0 0 1 6,-2.92 8.42,8.42 0 0 1 1.23,0 8.26,8.26 0 0 1 6,2.92 l 16,20 a 7.19,7.19 0 0 1 0,9 l -16,20 a 8.49,8.49 0 0 1 -6.57,2.95 c -0.27,-0.02 -0.45,-0.02 -0.66,-0.04 z"
       class="cls-9"
       style="fill:url(#linearGradient1273)" />
    <path
       id="path1201"
       d="m 588.73531,230.73232 a 42.18217,42.18217 0 1 0 78.17,-31.73 c -8.76,-21.58 -86.93,10.14 -78.17,31.73 z"
       class="cls-10"
       style="fill:#1582d1;fill-opacity:1" />
    <path
       id="path1203"
       d="m 476.93531,230.73232 a 42.18217,42.18217 0 0 1 -78.17,-31.73 c 8.76,-21.58 86.93,10.14 78.17,31.73 z"
       class="cls-10"
       style="fill:#1582d1;fill-opacity:1" />
    <path
       id="path1205"
       d="m 476.93531,238.45232 a 42.18029,42.18029 0 0 1 -78.17,-31.72 c 8.76,-21.59 86.93,10.13 78.17,31.72 z"
       class="cls-11"
       style="fill:#ffffff" />
    <path
       id="path1207"
       d="m 588.73531,238.45232 a 42.18029,42.18029 0 0 0 78.17,-31.72 c -8.76,-21.59 -86.93,10.13 -78.17,31.72 z"
       class="cls-11"
       style="fill:#ffffff" />
    <path
       id="path1209"
       d="m 473.10531,233.89232 a 13.21,13.21 0 0 1 -11.94,-18.93 109.08,109.08 0 0 0 -26.18,-11.91 26.53,26.53 0 1 0 37.68,33 c 0.3,-0.73 0.56,-1.47 0.79,-2.22 z m -33.13,12.79 a 5.45,5.45 0 1 1 5.45,-5.45 5.45,5.45 0 0 1 -5.45,5.45 z"
       class="cls-12"
       style="fill:#414042" />
    <path
       id="path1211"
       d="m 642.26531,233.89232 a 13.23,13.23 0 0 1 -5,-25.5 26.75,26.75 0 0 0 -6.63,-5.34 c -16.16,4.92 -32.93,14.3 -39.62,23.79 a 26.53,26.53 0 0 0 51.9,7 c -0.19,0.02 -0.42,0.05 -0.65,0.05 z m -36,12.79 a 5.45,5.45 0 1 1 5.46,-5.45 5.45,5.45 0 0 1 -5.48,5.45 z"
       class="cls-12"
       style="fill:#414042" />
    <path
       id="path1213"
       d="m 502.66531,283.91232 a 21.51,21.51 0 0 1 3.13,-2.57 32.93,32.93 0 0 1 3.46,-2.11 45.71,45.71 0 0 1 7.5,-3.14 55,55 0 0 1 32.16,0 45.71,45.71 0 0 1 7.5,3.14 33.16,33.16 0 0 1 3.47,2.12 22,22 0 0 1 3.12,2.57 100.3,100.3 0 0 0 -15.17,-3.24 118.73,118.73 0 0 0 -15,-1 116.89,116.89 0 0 0 -15,1 99.83,99.83 0 0 0 -15.17,3.23 z"
       class="cls-13"
       style="opacity:0.5;fill:#4d6eed;fill-opacity:1" />
    <path
       id="path1215"
       d="m 502.66531,256.22232 a 21.51,21.51 0 0 1 3.13,-2.57 31.33,31.33 0 0 1 3.46,-2.11 45.71,45.71 0 0 1 7.5,-3.14 55,55 0 0 1 32.16,0 45.71,45.71 0 0 1 7.5,3.14 33.16,33.16 0 0 1 3.47,2.12 22,22 0 0 1 3.12,2.57 100.3,100.3 0 0 0 -15.17,-3.24 118.73,118.73 0 0 0 -15,-1 116.89,116.89 0 0 0 -15,1 98.63,98.63 0 0 0 -15.17,3.23 z"
       class="cls-13"
       style="opacity:0.5;fill:#4d6eed;fill-opacity:1" />
    <path
       id="path1217"
       d="m 577.94531,314.12232 a 8.71,8.71 0 1 0 -12.21,-12.42 c -3.43,3.37 -4.68,16.8 -4.68,16.8 0,0 13.46,-1.01 16.89,-4.38 z"
       class="cls-14"
       style="fill:#1582d1;fill-opacity:1" />
    <path
       id="path1219"
       d="m 484.62531,314.25232 a 8.7036214,8.7036214 0 1 1 12,-12.61 c 3.49,3.31 4.95,16.73 4.95,16.73 0,0 -13.47,-0.8 -16.95,-4.12 z"
       class="cls-14"
       style="fill:#1582d1;fill-opacity:1" />
    <path
       id="path1221"
       d="m 577.20531,320.41232 a 8.71,8.71 0 0 0 -10.07,-14.21 c -3.93,2.78 -7.3,15.85 -7.3,15.85 0,0 13.44,1.14 17.37,-1.64 z"
       class="cls-12"
       style="fill:#414042" />
    <path
       id="path1223"
       d="m 485.29531,320.41232 a 8.71,8.71 0 1 1 10.07,-14.21 c 3.93,2.78 7.3,15.85 7.3,15.85 0,0 -13.44,1.14 -17.37,-1.64 z"
       class="cls-12"
       style="fill:#414042" />
    <path
       id="path1225"
       d="m 646.45531,43.162318 h -27.35 a 43.66,43.66 0 0 0 -6.8,22.78 28.8,28.8 0 0 0 57.6,0 c 0,-3.43 0.11,-8.35 0.29,-14 a 36.28,36.28 0 0 0 -23.74,-8.78 z"
       class="cls-15"
       style="opacity:0.6;fill:#1582d1;fill-opacity:1" />
    <path
       id="path1227"
       d="m 395.49531,51.972318 c 0.18,5.61 0.29,10.53 0.29,14 a 28.8,28.8 0 1 0 57.6,0 43.66,43.66 0 0 0 -6.8,-22.78 h -27.37 a 36.19,36.19 0 0 0 -23.72,8.78 z"
       class="cls-15"
       style="opacity:0.6;fill:#1582d1;fill-opacity:1" />
    <path
       id="path1229"
       d="m 605.76531,62.792318 a 28.8,28.8 0 0 0 57.6,0 c 0,-15.91 2.41,-63.78000037 2.41,-63.78000037 0,0 -60.01,24.09000037 -60.01,63.78000037 z"
       class="cls-12"
       style="fill:#414042" />
    <path
       id="path1231"
       d="m 653.58531,25.922318 a 6.89,6.89 0 0 1 -6.17,-9.93 c 1.47,-3 5.77,-6.5000004 9.09,-6.5000004 a 3.63,3.63 0 0 1 1.61,0.35 c 1.43,0.7100004 2.41,2.6200004 2.69,5.2500004 a 13.68,13.68 0 0 1 -1,7 6.85,6.85 0 0 1 -6.22,3.83 z"
       class="cls-16"
       style="fill:#58595b" />
    <path
       id="path1233"
       d="m 636.34531,84.532318 a 27.82,27.82 0 0 1 -13.62,-3.83 c -10.2,-5.89 -13.55,-15.33 -8.52,-24 a 12.68,12.68 0 0 1 11.63,-6.78 c 4.11,0 8.86,1.49 13.73,4.3 8.7,5 16,13.75 10.58,23.2 -2.61,4.59 -7.53,7.11 -13.8,7.11 z"
       class="cls-16"
       style="fill:#58595b" />
    <path
       id="path1235"
       d="m 647.02531,50.502318 a 22,22 0 0 1 -9.59,-2.55 c -4.1,-2 -7.14,-4.6 -8.79,-7.4 a 9.23,9.23 0 0 1 -0.27,-9.3 9.39,9.39 0 0 1 9.06,-5.46 22.49,22.49 0 0 1 9.72,2.63 c 6.73,3.35 12.65,9.5 9.06,16.7 -2.21,4.45 -6.22,5.38 -9.19,5.38 z"
       class="cls-16"
       style="fill:#58595b" />
    <ellipse
       id="ellipse1237"
       transform="rotate(-39.08)"
       ry="6.3299999"
       rx="4.75"
       cy="457.63144"
       cx="455.8132"
       class="cls-17"
       style="fill:#bcbec0" />
    <circle
       id="circle1239"
       r="4.75"
       cy="39.672318"
       cx="649.17529"
       class="cls-17"
       style="fill:#bcbec0" />
    <circle
       id="circle1241"
       r="3.1600001"
       cy="18.272318"
       cx="653.79529"
       class="cls-17"
       style="fill:#bcbec0" />
    <path
       id="path1243"
       d="m 399.89531,-1.0176824 c 0,0 2.41,47.8700004 2.41,63.8100004 a 28.8,28.8 0 1 0 57.6,0 c 0,-39.69 -60.01,-63.8100004 -60.01,-63.8100004 z"
       class="cls-12"
       style="fill:#414042" />
    <path
       id="path1245"
       d="m 429.32531,84.532318 c -6.27,0 -11.19,-2.52 -13.83,-7.11 a 12.58,12.58 0 0 1 -0.38,-12.51 c 2,-4 5.76,-7.69 11,-10.69 4.87,-2.81 9.62,-4.3 13.73,-4.3 a 12.68,12.68 0 0 1 11.66,6.74 c 5,8.71 1.68,18.15 -8.52,24 a 27.82,27.82 0 0 1 -13.62,3.83 z"
       class="cls-16"
       style="fill:#58595b" />
    <path
       id="path1247"
       d="m 418.64531,50.502318 c -3,0 -7,-0.94 -9.19,-5.39 -3.62,-7.2 2.38,-13.32 9.06,-16.7 a 22.49,22.49 0 0 1 9.72,-2.62 9.41,9.41 0 0 1 9.07,5.47 c 4.51,9.06 -5.8,15.07 -9.07,16.7 a 22,22 0 0 1 -9.59,2.55 z"
       class="cls-16"
       style="fill:#58595b" />
    <path
       id="path1249"
       d="m 412.08531,25.922318 a 6.83,6.83 0 0 1 -6.19,-3.85 13.68,13.68 0 0 1 -1,-7 c 0.28,-2.63 1.26,-4.54 2.69,-5.2500004 a 3.63,3.63 0 0 1 1.61,-0.35 c 3.32,0 7.62,3.5000004 9.09,6.5000004 a 6.89,6.89 0 0 1 0.34,5.27 6.9,6.9 0 0 1 -6.51,4.66 z"
       class="cls-16"
       style="fill:#58595b" />
    <ellipse
       id="ellipse1251"
       transform="rotate(-84.857235)"
       ry="6.3555846"
       rx="4.7691989"
       cy="444.66959"
       cx="-17.847706"
       class="cls-17"
       style="fill:#bcbec0;stroke-width:1.00404179" />
    <circle
       id="circle1253"
       r="4.75"
       cy="33.192318"
       cx="428.66531"
       class="cls-17"
       style="fill:#bcbec0" />
    <circle
       id="circle1255"
       r="3.1600001"
       cy="18.272318"
       cx="411.87531"
       class="cls-17"
       style="fill:#bcbec0" />
    <path
       id="path1257"
       d="m 576.39531,217.65232 a 52.21,52.21 0 0 1 3.25,-7.13 q 1.81,-3.36 3.88,-6.45 a 104.63,104.63 0 0 1 9,-11.58 126.18,126.18 0 0 1 10.12,-10.3 72.23,72.23 0 0 1 11.58,-8.72 l 9.61,10.56 a 72.72,72.72 0 0 1 -9.74,10.76 126.12,126.12 0 0 1 -11.18,9.14 104.37,104.37 0 0 1 -12.35,7.86 q -3.27,1.78 -6.78,3.28 a 53.13,53.13 0 0 1 -7.39,2.58 z"
       class="cls-12"
       style="fill:#414042" />
    <path
       id="path1259"
       d="m 489.27531,217.65232 a 53.13,53.13 0 0 1 -7.39,-2.59 q -3.51,-1.5 -6.78,-3.28 a 104.37,104.37 0 0 1 -12.35,-7.87 126.12,126.12 0 0 1 -11.18,-9.12 72.72,72.72 0 0 1 -9.74,-10.76 l 9.64,-10.56 a 72.23,72.23 0 0 1 11.58,8.72 126.18,126.18 0 0 1 10.12,10.3 104.63,104.63 0 0 1 9,11.58 q 2.07,3.09 3.88,6.45 a 52.21,52.21 0 0 1 3.22,7.13 z"
       class="cls-12"
       style="fill:#414042" />
  </g>
</svg>
