<svg id="Layer_1" data-name="Layer 1" xmlns="http://www.w3.org/2000/svg" xmlns:xlink="http://www.w3.org/1999/xlink" viewBox="0 0 300 345"><defs><style>.cls-1{fill:url(#linear-gradient);}.cls-2{fill:#9bd4ee;}.cls-15,.cls-3,.cls-9{fill:none;}.cls-3{stroke:#90b83e;stroke-width:19px;}.cls-14,.cls-15,.cls-3,.cls-9{stroke-miterlimit:10;}.cls-4{fill:#559441;}.cls-5{fill:url(#linear-gradient-2);}.cls-6{fill:url(#linear-gradient-3);}.cls-7{fill:#90b83e;}.cls-8{fill:#789b3e;}.cls-14,.cls-9{stroke:#f47c20;}.cls-14,.cls-15,.cls-9{stroke-linecap:round;}.cls-9{stroke-width:12px;}.cls-10{fill:#15141a;}.cls-11,.cls-14{fill:#ffcb29;}.cls-12{fill:#faa831;}.cls-13{fill:#2f2c38;}.cls-14{stroke-width:4px;}.cls-15{stroke:#15141a;stroke-width:3px;}</style><linearGradient id="linear-gradient" x1="150" y1="356.11" x2="150" y2="161.16" gradientUnits="userSpaceOnUse"><stop offset="0.07" stop-color="#416eb5"/><stop offset="0.54" stop-color="#032657"/></linearGradient><linearGradient id="linear-gradient-2" x1="113.69" y1="330.87" x2="113.69" y2="290.99" gradientUnits="userSpaceOnUse"><stop offset="0" stop-color="#90b83e"/><stop offset="1" stop-color="#559441"/></linearGradient><linearGradient id="linear-gradient-3" x1="277.64" y1="330.87" x2="277.64" y2="290.99" xlink:href="#linear-gradient-2"/></defs><g id="underwater_3" data-name="underwater 3"><path class="cls-1" d="M263.62,345H36.38A36.38,36.38,0,0,1,0,308.62V259.14H300v49.48A36.38,36.38,0,0,1,263.62,345Z"/><rect class="cls-2" y="45" width="300" height="253.39" rx="36.38"/><line class="cls-3" x1="150" y1="314.53" x2="150" y2="344.97"/><polygon class="cls-4" points="262.56 298.9 259.66 321.17 199.89 289.74 207.05 276.4 262.56 298.9"/><path class="cls-5" d="M0,262v23.8a36.38,36.38,0,0,0,36.38,36.38H216.84a10.54,10.54,0,0,0,10.53-10.53V298.39h-191A36.38,36.38,0,0,1,0,262Z"/><path class="cls-6" d="M263.62,298.39h-8.33v15.47a8.33,8.33,0,0,0,8.33,8.33A36.38,36.38,0,0,0,300,285.81V262A36.38,36.38,0,0,1,263.62,298.39Z"/><path class="cls-7" d="M263.62,218.32H36.38A36.38,36.38,0,0,0,0,254.7V262a36.38,36.38,0,0,0,36.38,36.38h191S200.56,286,205.58,281.51s49.71,16.88,49.71,16.88h8.33A36.38,36.38,0,0,0,300,262V254.7A36.38,36.38,0,0,0,263.62,218.32Z"/><ellipse class="cls-8" cx="150" cy="246.39" rx="93.17" ry="38.16"/><path class="cls-9" d="M232.63,243.3s32.67-27.06,16.08-41.36a10.92,10.92,0,0,0-12.2-1.92h0c-.36.15-.7.31-1,.49l-.18.09c-.3.16-.59.32-.87.49l-.16.1a23.27,23.27,0,0,0-2,1.34c-.83-26.21-14.64-54.63-32.59-73.2-.13-.14-.27-.27-.41-.41a16.15,16.15,0,0,1-4.15-7.49,19.54,19.54,0,0,0-18.93-14.72c-22.89,0-20.34,21.43-21.36,21.43h-9.7c-1,0-.13-21.43-21.36-21.43a19.54,19.54,0,0,0-18.93,14.72,16.15,16.15,0,0,1-4.15,7.49l-.41.41c-18,18.57-31.76,47-32.59,73.2a22.55,22.55,0,0,0-2-1.34l-.15-.09c-.29-.18-.59-.34-.89-.5l-.16-.09c-3.92-2-8.62-2.58-13.26,1.42C34.7,216.24,67.37,243.3,67.37,243.3s-22.93,3.57-19.91,13.28c1.2,3.84,21.74-2.21,34.87-6.51l.22-.07,2.25-.75.07,0,.95-.32.21-.07.31-.11c13,11.2,33.46,18.32,63.66,18.32s50.67-7.12,63.66-18.32l.31.11.21.07.95.32.07,0,2.25.75.22.07c13.13,4.3,33.67,10.35,34.87,6.51C255.56,246.87,232.63,243.3,232.63,243.3Z"/><path class="cls-10" d="M165.74,120.75c0-5.63-3.84-10.47-9.34-12.62-3,3.16-5.33,7.56-6.55,13.65a31.18,31.18,0,0,0-4.5-10.59,23.25,23.25,0,0,0-2.28-2.84c-5.22,2.25-8.81,7-8.81,12.4,0,7.63,7,13.82,15.74,13.82S165.74,128.38,165.74,120.75Z"/><path class="cls-10" d="M107.38,106.71a11.65,11.65,0,0,0,11.25,9.89c6.33,0,11.46-5.42,11.46-12.1a12.51,12.51,0,0,0-.44-3.26,32.17,32.17,0,0,0-5.86-.52A25.49,25.49,0,0,0,107.38,106.71Z"/><path class="cls-10" d="M179.23,116.6c6.1,0,11.07-5,11.42-11.39a25.48,25.48,0,0,0-14.44-4.49,35.48,35.48,0,0,0-8.09.89,13.06,13.06,0,0,0-.34,2.89C167.78,111.18,172.91,116.6,179.23,116.6Z"/><path class="cls-10" d="M96,125.17a127.8,127.8,0,0,0-24.91,37.92,85.19,85.19,0,0,1,12,2.3,115.17,115.17,0,0,1,21.5-31.89l.33-.33a22,22,0,0,0,5.29-8.76A50.7,50.7,0,0,1,100,117.05,28.27,28.27,0,0,0,99,120a10.26,10.26,0,0,1-2.57,4.73C96.3,124.85,96.14,125,96,125.17Z"/><path class="cls-10" d="M187.26,268.63a46.34,46.34,0,0,1-11.16-9.78,143.89,143.89,0,0,1-26.1,2.2,143.89,143.89,0,0,1-26.1-2.2,46.34,46.34,0,0,1-11.16,9.78c10.84,2.94,23.29,4.42,37.26,4.42S176.42,271.57,187.26,268.63Z"/><path class="cls-10" d="M195.07,133.19l.32.32a115.41,115.41,0,0,1,21.5,31.88,84.83,84.83,0,0,1,12-2.3A127.4,127.4,0,0,0,204,125.18l-.49-.5A10.17,10.17,0,0,1,201,120a28.27,28.27,0,0,0-1-2.91,50.7,50.7,0,0,1-10.25,7.36A22,22,0,0,0,195.07,133.19Z"/><path class="cls-11" d="M226,209.08s11.57-16.76,22.73-7.14c16.59,14.3-16.08,41.36-16.08,41.36s22.93,3.57,19.91,13.28c-1.77,5.67-45.7-10.22-45.7-10.22"/><path class="cls-11" d="M74,209.08s-11.57-16.76-22.73-7.14C34.7,216.24,67.37,243.3,67.37,243.3s-22.93,3.57-19.91,13.28c1.77,5.67,45.7-10.22,45.7-10.22"/><path class="cls-12" d="M74,209.07s-6.25-9-14-10C58.31,218.8,62.93,237.77,77,251.79c8.83-2.76,16.2-5.43,16.2-5.43Z"/><path class="cls-12" d="M240,199.06c-7.75,1-14,10-14,10l-19.14,37.29s7.37,2.67,16.2,5.43C237.07,237.77,241.69,218.8,240,199.06Z"/><path class="cls-11" d="M222.78,163.89l-26.57-2.29-1.07-40.16a19.57,19.57,0,0,0-6.44-10.18h0a11.62,11.62,0,0,1-2.79,3l-.13.1a11.71,11.71,0,0,1-1,.69l-.08.05a12.55,12.55,0,0,1-1.22.6l-.1,0c-.36.14-.72.27-1.1.38l-.36.09c-.31.08-.62.14-.94.19l-.38.06a11.72,11.72,0,0,1-1.33.09,9.77,9.77,0,0,1-1.08-.06l-.34,0c-.24,0-.48-.07-.71-.12l-.4-.09-.63-.17-.4-.13-.61-.23-.36-.15c-.27-.13-.53-.26-.78-.4s-.32-.18-.47-.28l-.49-.31-.44-.33-.36-.29c-.15-.12-.3-.26-.45-.39l-.28-.27c-.15-.15-.31-.31-.45-.47l-.18-.21a12.57,12.57,0,0,1-1.48-2.12l0,0c-.13-.25-.26-.5-.37-.76l-.08-.16c-.11-.25-.21-.51-.3-.77l-.06-.16c-.09-.27-.17-.55-.25-.83a17.59,17.59,0,0,0-6.62,3.62h0a13.92,13.92,0,0,1,1.68,1.93l.1.14c.2.29.4.59.58.89a1.18,1.18,0,0,0,.11.19c.19.34.37.68.53,1a.08.08,0,0,1,0,.05,11.25,11.25,0,0,1,.45,1.14,1.72,1.72,0,0,1,.07.21c.1.31.18.62.25.93,0,.12.06.24.08.36.06.28.1.57.14.86,0,.12,0,.23.05.35,0,.4.06.81.06,1.22,0,7.63-7,13.82-15.74,13.82s-15.74-6.19-15.74-13.82a11.12,11.12,0,0,1,.06-1.16c0-.12,0-.24,0-.35a7.58,7.58,0,0,1,.13-.81c0-.12,0-.25.07-.37s.14-.54.21-.8l.09-.3c.12-.36.25-.72.4-1.07v0c.15-.34.31-.68.49-1l.15-.26c.14-.26.29-.5.45-.74l.18-.27c.18-.26.36-.51.56-.75l.13-.17c.25-.3.53-.58.81-.86a17.57,17.57,0,0,0-8.29-4.43,12.45,12.45,0,0,1-2,4.42l-.06.09c-.16.22-.33.43-.51.64,0,.06-.09.12-.14.17s-.34.38-.52.56l-.2.19c-.18.17-.35.33-.54.49a1.84,1.84,0,0,1-.22.17,10.83,10.83,0,0,1-1,.75l-.35.22-.44.23-.5.26-.43.18-.56.22-.43.14-.61.16-.41.1c-.24.05-.47.08-.71.11l-.35.05a10,10,0,0,1-1.1.06,11.48,11.48,0,0,1-1.17-.07l-.35,0c-.27,0-.54-.08-.81-.14l-.37-.09c-.26-.07-.53-.15-.78-.24l-.31-.1a8.65,8.65,0,0,1-1-.42l0,0a10.83,10.83,0,0,1-1-.59l-.06,0c-.3-.2-.6-.41-.88-.63l-.15-.13q-.39-.31-.75-.66a.8.8,0,0,1-.13-.13c-.27-.27-.53-.55-.78-.85h0a19.52,19.52,0,0,0-5.15,9L104,164.15,77.16,164c-17.61,39.4-14.5,87.58,42,100L150,256.58,180.89,264C237.4,251.59,240.45,203.32,222.78,163.89Z"/><path class="cls-13" d="M119,264a143.38,143.38,0,0,0,31,3.08A143.38,143.38,0,0,0,181,264c-14-12.32-16.91-30-10.68-53.92,8.55-32.85,36.36-42.93,52.48-46a122.27,122.27,0,0,0-23.14-34.69c-.13-.14-.27-.27-.41-.41a16.15,16.15,0,0,1-4.15-7.49,3.37,3.37,0,0,0-.1-.34c-3.86,2.75-9.08,14.09-15.81,16.24-15.41,4.94.9,20.34-29.23,20.34s-13.82-15.4-29.23-20.34c-6.73-2.15-12-13.49-15.81-16.24a3.37,3.37,0,0,0-.1.34,16.15,16.15,0,0,1-4.15,7.49l-.41.41A122.27,122.27,0,0,0,77.16,164c16.12,3.09,43.93,13.17,52.48,46C135.87,234,133,251.65,119,264Z"/><path class="cls-14" d="M169,234.87c-4.08,5.88-4.85,21.71,1,22.93,7.42,1.54,13.28-14.75,13.28-14.75"/><path class="cls-14" d="M131,234.87c4.08,5.88,4.85,21.71-1,22.93-7.42,1.54-13.28-14.75-13.28-14.75"/><path class="cls-15" d="M135.65,140.48s1.59,6,14.35,6,14.35-6,14.35-6"/><ellipse class="cls-10" cx="179.23" cy="126.45" rx="4.39" ry="5.7"/><ellipse class="cls-10" cx="120.77" cy="126.45" rx="4.39" ry="5.7"/><path class="cls-13" d="M165.74,120.75a12.85,12.85,0,0,0-4.12-9.31c-7.07,6.3-6.06,16.71-6.77,16.71h-9.7c-.7,0-.51-10-7.12-16.37a12.8,12.8,0,0,0-3.77,9c0,7.63,7,13.82,15.74,13.82S165.74,128.38,165.74,120.75Z"/><path class="cls-13" d="M118.63,116.6a11.6,11.6,0,0,0,11.11-9.21,25.51,25.51,0,0,0-6-.67A19.41,19.41,0,0,0,110,112.44,11.16,11.16,0,0,0,118.63,116.6Z"/><path class="cls-13" d="M188.7,111.26a19.44,19.44,0,0,0-12.49-4.54,27.33,27.33,0,0,0-8,1.09,11.57,11.57,0,0,0,11,8.79A11.24,11.24,0,0,0,188.7,111.26Z"/><ellipse class="cls-13" cx="199.66" cy="212.28" rx="18.38" ry="16.62" transform="translate(-46.96 367.55) rotate(-78.95)"/><ellipse class="cls-13" cx="100.34" cy="212.28" rx="16.62" ry="18.38" transform="translate(-38.83 23.17) rotate(-11.05)"/></g></svg>