<svg id="Layer_1" data-name="Layer 1" xmlns="http://www.w3.org/2000/svg" xmlns:xlink="http://www.w3.org/1999/xlink" viewBox="0 0 300 345"><defs><linearGradient id="linear-gradient" x1="150" y1="356.11" x2="150" y2="161.16" gradientUnits="userSpaceOnUse"><stop offset="0.07" stop-color="#416eb5"/><stop offset="0.54" stop-color="#032657"/></linearGradient><linearGradient id="linear-gradient-2" x1="113.69" y1="330.87" x2="113.69" y2="290.99" gradientUnits="userSpaceOnUse"><stop offset="0" stop-color="#90b83e"/><stop offset="1" stop-color="#559441"/></linearGradient><linearGradient id="linear-gradient-3" x1="277.64" y1="330.87" x2="277.64" y2="290.99" xlink:href="#linear-gradient-2"/></defs><g id="frogs"><path d="M263.62,345H36.38A36.38,36.38,0,0,1,0,308.62V259.14H300v49.48A36.38,36.38,0,0,1,263.62,345Z" fill="url(#linear-gradient)"/><rect y="45" width="300" height="253.39" rx="36.38" fill="#9bd4ee"/><line x1="150" y1="314.53" x2="150" y2="344.97" fill="none" stroke="#90b83e" stroke-miterlimit="10" stroke-width="19"/><polygon points="262.56 298.9 259.66 321.17 199.89 289.74 207.05 276.4 262.56 298.9" fill="#559441"/><path d="M0,262v23.8a36.38,36.38,0,0,0,36.38,36.38H216.84a10.54,10.54,0,0,0,10.53-10.53V298.39h-191A36.38,36.38,0,0,1,0,262Z" fill="url(#linear-gradient-2)"/><path d="M263.62,298.39h-8.33v15.47a8.33,8.33,0,0,0,8.33,8.33A36.38,36.38,0,0,0,300,285.81V262A36.38,36.38,0,0,1,263.62,298.39Z" fill="url(#linear-gradient-3)"/><path d="M263.62,218.32H36.38A36.38,36.38,0,0,0,0,254.7V262a36.38,36.38,0,0,0,36.38,36.38h191S200.56,286,205.58,281.51s49.71,16.88,49.71,16.88h8.33A36.38,36.38,0,0,0,300,262V254.7A36.38,36.38,0,0,0,263.62,218.32Z" fill="#90b83e"/><ellipse cx="150" cy="246.39" rx="93.17" ry="38.16" fill="#789b3e"/><path d="M217.48,123.1c6.08,2.05,8,8.05,7.6,9.13s-5.49,4.71-11.57,2.67c-3.77-1.27-5.94-4.94-4.85-8.2S213.71,121.83,217.48,123.1Z" fill="#39b54a"/><path d="M218.12,131.35c2.35,6-1,11.27-2.09,11.68s-7.14-1.17-9.49-7.13c-1.45-3.71,0-7.73,3.15-9S216.67,127.64,218.12,131.35Z" fill="#39b54a"/><circle cx="150.9" cy="118.43" r="8.71" fill="#a45299"/><path d="M82.52,123.1c-6.08,2.05-8,8.05-7.6,9.13s5.49,4.71,11.57,2.67c3.77-1.27,5.94-4.94,4.85-8.2S86.29,121.83,82.52,123.1Z" fill="#39b54a"/><path d="M81.88,131.35c-2.35,6,1,11.27,2.09,11.68s7.14-1.17,9.49-7.13c1.45-3.71,0-7.73-3.15-9S83.33,127.64,81.88,131.35Z" fill="#39b54a"/><path d="M214.86,122.67a8.31,8.31,0,0,1,2.62.43c6.08,2.05,8,8.05,7.6,9.13-.24.73-2.7,2.64-6.16,3.15.08,4.15-2.08,7.33-2.89,7.65a1.24,1.24,0,0,1-.45.07c-1.77,0-6.92-1.82-9-7.2a7.07,7.07,0,0,1,1.91-8.29,5.71,5.71,0,0,1,.21-.91,6.32,6.32,0,0,1,6.2-4m0-4a10.34,10.34,0,0,0-10,6.75v0a11.25,11.25,0,0,0-2,11.91c2.89,7.36,9.85,9.74,12.76,9.74a5.13,5.13,0,0,0,1.92-.35c2.38-.93,4.42-4.36,5.15-8.22,2.86-1.05,5.5-2.88,6.22-5,1-2.87-1.12-6.54-1.79-7.6a15.63,15.63,0,0,0-8.32-6.59,12.4,12.4,0,0,0-3.9-.64Z" fill="#2f5b2c"/><path d="M85.14,122.67a6.32,6.32,0,0,1,6.2,4,5.71,5.71,0,0,1,.21.91,7.07,7.07,0,0,1,1.91,8.29c-2.12,5.38-7.27,7.2-9,7.2A1.24,1.24,0,0,1,84,143c-.81-.32-3-3.5-2.89-7.65-3.46-.51-5.92-2.42-6.16-3.15-.37-1.08,1.52-7.08,7.6-9.13a8.31,8.31,0,0,1,2.62-.43m0-4a12.4,12.4,0,0,0-3.9.64,15.63,15.63,0,0,0-8.32,6.59c-.67,1.06-2.76,4.73-1.79,7.6.72,2.15,3.36,4,6.22,5,.73,3.86,2.77,7.29,5.15,8.23a5.33,5.33,0,0,0,1.92.34c2.91,0,9.87-2.38,12.76-9.74a11.23,11.23,0,0,0-2-11.9v0a10.34,10.34,0,0,0-10-6.76Z" fill="#2f5b2c"/><path d="M232.63,243.3s32.67-27.06,16.08-41.36a10.92,10.92,0,0,0-12.2-1.92h0c-.36.15-.7.31-1,.49l-.18.09c-.3.16-.59.32-.87.49l-.16.1a23.27,23.27,0,0,0-2,1.34c-.83-26.21-14.64-54.63-32.59-73.2-.13-.14-.27-.27-.41-.41a16.15,16.15,0,0,1-4.15-7.49,19.54,19.54,0,0,0-18.93-14.72c-22.89,0-20.34,21.43-21.36,21.43h-9.7c-1,0-.13-21.43-21.36-21.43a19.54,19.54,0,0,0-18.93,14.72,16.15,16.15,0,0,1-4.15,7.49l-.41.41c-18,18.57-31.76,47-32.59,73.2a22.55,22.55,0,0,0-2-1.34l-.15-.09c-.29-.18-.59-.34-.89-.5l-.16-.09c-3.92-2-8.62-2.58-13.26,1.42C34.7,216.24,67.37,243.3,67.37,243.3s-22.93,3.57-19.91,13.28c1.2,3.84,21.74-2.21,34.87-6.51l.22-.07,2.25-.75.07,0,.95-.32.21-.07.31-.11c13,11.2,33.46,18.32,63.66,18.32s50.67-7.12,63.66-18.32l.31.11.21.07.95.32.07,0,2.25.75.22.07c13.13,4.3,33.67,10.35,34.87,6.51C255.56,246.87,232.63,243.3,232.63,243.3Z" fill="none" stroke="#cd8247" stroke-linecap="round" stroke-linejoin="round" stroke-width="12"/><path d="M226,209.08s11.57-16.76,22.73-7.14c16.59,14.3-16.08,41.36-16.08,41.36s22.93,3.57,19.91,13.28c-1.77,5.67-45.7-10.22-45.7-10.22" fill="#f2bd8c"/><path d="M74,209.08s-11.57-16.76-22.73-7.14C34.7,216.24,67.37,243.3,67.37,243.3s-22.93,3.57-19.91,13.28c1.77,5.67,45.7-10.22,45.7-10.22" fill="#f2bd8c"/><path d="M74,209.07s-6.25-9-14-10C58.31,218.8,62.93,237.77,77,251.79c8.83-2.76,16.2-5.43,16.2-5.43Z" fill="#e9a66e"/><path d="M240,199.06c-7.75,1-14,10-14,10l-19.14,37.29s7.37,2.67,16.2,5.43C237.07,237.77,241.69,218.8,240,199.06Z" fill="#e9a66e"/><path d="M199.7,129.34c-.13-.14-.27-.27-.41-.41a16.15,16.15,0,0,1-4.15-7.49,19.54,19.54,0,0,0-18.93-14.72c-22.89,0-20.34,21.43-21.36,21.43h-9.7c-1,0-.13-21.43-21.36-21.43a19.54,19.54,0,0,0-18.93,14.72,16.15,16.15,0,0,1-4.15,7.49l-.41.41C59,172.09,39.59,267.05,150,267.05S241,172.09,199.7,129.34Z" fill="#f2bd8c"/><path d="M189.32,232.36c-4.08,5.88-4.85,21.71,1,22.93,7.42,1.54,13.28-14.76,13.28-14.76" fill="#f2bd8c" stroke="#cd8247" stroke-linecap="round" stroke-miterlimit="10" stroke-width="4"/><path d="M110.68,232.36c4.08,5.88,4.85,21.71-1,22.93-7.42,1.54-13.28-14.76-13.28-14.76" fill="#f2bd8c" stroke="#cd8247" stroke-linecap="round" stroke-miterlimit="10" stroke-width="4"/><path d="M135.84,151c10.33,0,14.16-4.51,14.16-4.51s3.49,4.51,14.16,4.51" fill="none" stroke="#cd8247" stroke-linecap="round" stroke-miterlimit="10" stroke-width="5"/><ellipse cx="179.23" cy="126.45" rx="4.39" ry="5.7" fill="#382c31"/><circle cx="191.67" cy="144.75" r="8.04" fill="#e5a574"/><ellipse cx="120.77" cy="126.45" rx="4.39" ry="5.7" fill="#382c31"/><circle cx="108.33" cy="144.75" r="8.04" fill="#e5a574"/><path d="M184.89,216.89a34.89,34.89,0,1,1-69.78,0c0-19.27,15.62-49.28,34.89-49.28S184.89,197.62,184.89,216.89Z" fill="#f3d7c1"/><path d="M112.2,194.94s11.26,6.81,36.1,6.81,39.5-6.81,39.5-6.81" fill="none" stroke="#f2bd8c" stroke-miterlimit="10" stroke-width="11"/><path d="M109,221.57s12.22,6.81,39.19,6.81S191,221.57,191,221.57" fill="none" stroke="#f2bd8c" stroke-miterlimit="10" stroke-width="11"/><path d="M158.39,82.58a7.53,7.53,0,0,1,5.92,2.89,7.51,7.51,0,0,1,8.55,4,7.6,7.6,0,0,1,.62,1.85,7.91,7.91,0,0,1,1.52-.15,7.73,7.73,0,0,1,1,.06,7.48,7.48,0,0,1,13.69-.11h.07A7.5,7.5,0,0,1,197,97c0,.13.05.25.07.38a7.86,7.86,0,0,1,1.81-.22,7.28,7.28,0,0,1,2.15.32,7.36,7.36,0,0,1,2.29,1.15,7.5,7.5,0,0,1,4.54-1.53,7.39,7.39,0,0,1,2.16.32,7.49,7.49,0,0,1,5.3,7.81A7.49,7.49,0,0,1,213.89,119a7.78,7.78,0,0,1-.25,1.22,7.51,7.51,0,0,1-7.18,5.33,7.41,7.41,0,0,1-2.17-.32,7.49,7.49,0,0,1-5-5.17,7.57,7.57,0,0,1-2.33.37,7.29,7.29,0,0,1-2.16-.32A7.49,7.49,0,0,1,189.5,114a7.81,7.81,0,0,1-1.36.12,7.47,7.47,0,0,1-5.3-2.21,7.47,7.47,0,0,1-3.9,2.24,7.48,7.48,0,0,1-8.94-5.7c-.06-.29-.1-.57-.13-.85l-.1,0a7.35,7.35,0,0,1-3.27.76,7.57,7.57,0,0,1-3.95-1.12,7.44,7.44,0,0,1-6.53,3.85,7.52,7.52,0,0,1-6-3,7.52,7.52,0,0,1-9.29,2.26,7.42,7.42,0,0,1-3.26-3.1,7.57,7.57,0,0,1-3.95,1.12,7.35,7.35,0,0,1-3.27-.76l-.1,0c0,.28-.07.56-.13.85a7.5,7.5,0,0,1-12.84,3.46,7.47,7.47,0,0,1-5.3,2.21,7.81,7.81,0,0,1-1.36-.12,7.49,7.49,0,0,1-5.25,6.09,7.28,7.28,0,0,1-2.15.32,7.59,7.59,0,0,1-2.34-.37,7.49,7.49,0,0,1-5.05,5.17,7.41,7.41,0,0,1-2.17.32,7.51,7.51,0,0,1-7.18-5.33,7.78,7.78,0,0,1-.25-1.22,7.49,7.49,0,0,1-1.46-13.75A7.49,7.49,0,0,1,90,97.41a7.39,7.39,0,0,1,2.16-.32,7.5,7.5,0,0,1,4.54,1.53,7.36,7.36,0,0,1,2.29-1.15,7.28,7.28,0,0,1,2.15-.32,7.86,7.86,0,0,1,1.81.22c0-.13,0-.25.07-.38a7.5,7.5,0,0,1,7.31-5.89h.07a7.48,7.48,0,0,1,13.69.11,7.73,7.73,0,0,1,1-.06,7.91,7.91,0,0,1,1.52.15,7.6,7.6,0,0,1,.62-1.85,7.51,7.51,0,0,1,8.55-4,7.49,7.49,0,0,1,13.36,3.82,7,7,0,0,1,2-.5,7.49,7.49,0,0,1,7.37-6.21m0-4v0a11.32,11.32,0,0,0-5,1.17A11.45,11.45,0,0,0,150,82.23a11.59,11.59,0,0,0-3.37-2.48,11.29,11.29,0,0,0-5-1.17,11.6,11.6,0,0,0-7.37,2.67h-.36a11.39,11.39,0,0,0-9,4.39A11.46,11.46,0,0,0,108,87.35a11.59,11.59,0,0,0-7.8,5.84,11.39,11.39,0,0,0-2.37.45,11.14,11.14,0,0,0-1.1.4,11.58,11.58,0,0,0-4.57-1,11.41,11.41,0,0,0-3.32.49,11.56,11.56,0,0,0-8.07,9.53,11.5,11.5,0,0,0,2,18.74,11.42,11.42,0,0,0,10.84,7.67,11.83,11.83,0,0,0,3.33-.49,11.44,11.44,0,0,0,6.23-4.63,11.24,11.24,0,0,0,3.31-.49,11.56,11.56,0,0,0,7-5.9,11.62,11.62,0,0,0,3.68-1.16,11.47,11.47,0,0,0,15.67-4.47l.77,0a11.57,11.57,0,0,0,2.69-.32A11.51,11.51,0,0,0,139,114a11.37,11.37,0,0,0,5,1.16,11.5,11.5,0,0,0,6-1.7,11.5,11.5,0,0,0,6,1.7,11.37,11.37,0,0,0,5-1.16,11.51,11.51,0,0,0,2.77-1.89,11.57,11.57,0,0,0,2.69.32l.77,0a11.47,11.47,0,0,0,15.67,4.47,11.62,11.62,0,0,0,3.68,1.16,11.56,11.56,0,0,0,7,5.9,11.24,11.24,0,0,0,3.31.49,11.44,11.44,0,0,0,6.23,4.63,11.83,11.83,0,0,0,3.33.49,11.42,11.42,0,0,0,10.84-7.67,11.5,11.5,0,0,0,2-18.74,11.56,11.56,0,0,0-8.07-9.53,11.36,11.36,0,0,0-3.32-.49,11.58,11.58,0,0,0-4.57,1,11.14,11.14,0,0,0-1.1-.4,11.39,11.39,0,0,0-2.37-.45,11.62,11.62,0,0,0-7.8-5.84,11.48,11.48,0,0,0-16.88-1.71,11.39,11.39,0,0,0-9-4.39h-.36a11.6,11.6,0,0,0-7.37-2.67Z" fill="#ae5e97"/><path d="M214.86,108.28a8,8,0,0,1,2.62.44c6.08,2,8,8,7.6,9.12-.24.73-2.7,2.64-6.16,3.15.08,4.15-2.08,7.33-2.89,7.65a1.24,1.24,0,0,1-.45.07c-1.77,0-6.92-1.82-9-7.2a7.07,7.07,0,0,1,1.91-8.29,5.71,5.71,0,0,1,.21-.91,6.32,6.32,0,0,1,6.2-4m0-4a10.35,10.35,0,0,0-10,6.76v0a11.23,11.23,0,0,0-2,11.9c2.89,7.36,9.85,9.74,12.76,9.74a5.13,5.13,0,0,0,1.92-.34c2.38-.94,4.42-4.37,5.15-8.23,2.86-1,5.5-2.87,6.22-5,1-2.87-1.12-6.54-1.79-7.6a15.63,15.63,0,0,0-8.32-6.59,12.4,12.4,0,0,0-3.9-.64Z" fill="#2f5b2c"/><path d="M201,86.7a2.19,2.19,0,0,1,1,.18c1,.57,3.51,6.33.27,11.87a7.39,7.39,0,0,1-6.21,3.83,5.5,5.5,0,0,1-2.8-.75c-3-1.73-3.74-5.92-1.73-9.36A11.65,11.65,0,0,1,201,86.7m0-4a15.61,15.61,0,0,0-12.89,7.75,11.72,11.72,0,0,0-1.48,8.07,9.84,9.84,0,0,0,4.64,6.77,9.64,9.64,0,0,0,4.82,1.29,11.39,11.39,0,0,0,9.67-5.82,15.69,15.69,0,0,0,1.94-10.43c-.2-1.24-1-5.38-3.65-6.91A5.94,5.94,0,0,0,201,82.7Z" fill="#2f5b2c"/><path d="M124.53,78.83c1.21,0,6.41,3.37,6.82,9.7.25,4-2.32,7.38-5.75,7.59l-.35,0c-3.28,0-6.08-3-6.32-6.82-.41-6.39,4.43-10.41,5.56-10.49h0m0-4h-.29c-3,.2-5.63,3.52-6.36,4.54a15.58,15.58,0,0,0-2.94,10.2c.38,5.92,4.9,10.56,10.31,10.56l.6,0c5.63-.36,9.88-5.68,9.49-11.85-.54-8.33-7.3-13.44-10.81-13.44Z" fill="#2f5b2c"/><path d="M85.14,108.28a6.32,6.32,0,0,1,6.2,4,5.71,5.71,0,0,1,.21.91,7.07,7.07,0,0,1,1.91,8.29c-2.12,5.38-7.27,7.2-9,7.2a1.24,1.24,0,0,1-.45-.07c-.81-.32-3-3.5-2.89-7.65-3.46-.51-5.92-2.42-6.16-3.15-.37-1.08,1.52-7.08,7.6-9.12a8,8,0,0,1,2.62-.44m0-4a12.4,12.4,0,0,0-3.9.64,15.63,15.63,0,0,0-8.32,6.59c-.67,1.06-2.76,4.73-1.79,7.6.72,2.16,3.36,4,6.22,5,.73,3.86,2.77,7.29,5.15,8.23a5.13,5.13,0,0,0,1.92.34c2.91,0,9.87-2.38,12.76-9.74a11.23,11.23,0,0,0-2-11.9v0a10.35,10.35,0,0,0-10-6.76Z" fill="#2f5b2c"/><path d="M217.48,108.72c6.08,2,8,8,7.6,9.12s-5.49,4.71-11.57,2.67c-3.77-1.27-5.94-4.94-4.85-8.2S213.71,107.44,217.48,108.72Z" fill="#8dc63f"/><path d="M191.6,92.47c3.23-5.53,9.49-6.17,10.47-5.59s3.51,6.33.27,11.87c-2,3.44-6,4.82-9,3.08S189.59,95.91,191.6,92.47Z" fill="#8dc63f"/><path d="M118.93,89.32c-.41-6.39,4.43-10.41,5.56-10.49s6.45,3.3,6.86,9.7c.25,4-2.32,7.38-5.75,7.59S119.18,93.3,118.93,89.32Z" fill="#8dc63f"/><path d="M218.12,117c2.35,6-1,11.27-2.09,11.68s-7.14-1.17-9.49-7.13c-1.45-3.71,0-7.73,3.15-9S216.67,113.25,218.12,117Z" fill="#8dc63f"/><circle cx="198.89" cy="104.64" r="7.5" fill="#d693c0"/><circle cx="207.88" cy="104.58" r="7.5" fill="#d693c0"/><circle cx="211.74" cy="111.79" r="7.5" fill="#d693c0"/><circle cx="196.91" cy="112.91" r="7.5" fill="#d693c0"/><circle cx="206.46" cy="118.02" r="7.5" fill="#d693c0"/><circle cx="204.32" cy="110.44" r="5.68" fill="#f2d73b"/><circle cx="175.01" cy="98.65" r="7.5" fill="#d693c0"/><circle cx="182.82" cy="94.2" r="7.5" fill="#d693c0"/><circle cx="189.71" cy="98.6" r="7.5" fill="#d693c0"/><circle cx="177.32" cy="106.82" r="7.5" fill="#d693c0"/><circle cx="188.15" cy="106.62" r="7.5" fill="#d693c0"/><circle cx="182.58" cy="101.05" r="5.68" fill="#f2d73b"/><circle cx="151.85" cy="96.23" r="7.5" fill="#d693c0"/><circle cx="158.4" cy="90.08" r="7.5" fill="#d693c0"/><circle cx="166.12" cy="92.74" r="7.5" fill="#d693c0"/><circle cx="156.01" cy="103.64" r="7.5" fill="#d693c0"/><circle cx="166.49" cy="100.91" r="7.5" fill="#d693c0"/><circle cx="159.76" cy="96.8" r="5.68" fill="#f2d73b"/><path d="M82.52,108.72c-6.08,2-8,8-7.6,9.12s5.49,4.71,11.57,2.67c3.77-1.27,5.94-4.94,4.85-8.2S86.29,107.44,82.52,108.72Z" fill="#8dc63f"/><path d="M81.88,117c-2.35,6,1,11.27,2.09,11.68s7.14-1.17,9.49-7.13c1.45-3.71,0-7.73-3.15-9S83.33,113.25,81.88,117Z" fill="#8dc63f"/><circle cx="101.11" cy="104.64" r="7.5" fill="#d693c0"/><circle cx="92.12" cy="104.58" r="7.5" fill="#d693c0"/><circle cx="88.26" cy="111.79" r="7.5" fill="#d693c0"/><circle cx="103.09" cy="112.91" r="7.5" fill="#d693c0"/><circle cx="93.54" cy="118.02" r="7.5" fill="#d693c0"/><circle cx="95.68" cy="110.44" r="5.68" fill="#f2d73b"/><circle cx="124.99" cy="98.65" r="7.5" fill="#d693c0"/><circle cx="117.18" cy="94.2" r="7.5" fill="#d693c0"/><circle cx="110.29" cy="98.6" r="7.5" fill="#d693c0"/><circle cx="122.68" cy="106.82" r="7.5" fill="#d693c0"/><circle cx="111.85" cy="106.62" r="7.5" fill="#d693c0"/><circle cx="117.42" cy="101.05" r="5.68" fill="#f2d73b"/><circle cx="141.6" cy="90.08" r="7.5" fill="#d693c0"/><circle cx="133.88" cy="92.74" r="7.5" fill="#d693c0"/><circle cx="143.99" cy="103.64" r="7.5" fill="#d693c0"/><circle cx="133.51" cy="100.91" r="7.5" fill="#d693c0"/><circle cx="140.24" cy="96.8" r="5.68" fill="#f2d73b"/></g></svg>