<?xml version="1.0" encoding="UTF-8" standalone="no"?>
<!DOCTYPE svg PUBLIC "-//W3C//DTD SVG 1.1//EN" "http://www.w3.org/Graphics/SVG/1.1/DTD/svg11.dtd">
<svg width="100%" height="100%" viewBox="0 0 300 345" version="1.1" xmlns="http://www.w3.org/2000/svg" xmlns:xlink="http://www.w3.org/1999/xlink" xml:space="preserve" xmlns:serif="http://www.serif.com/" style="fill-rule:evenodd;clip-rule:evenodd;stroke-linejoin:round;stroke-miterlimit:2;">
    <g id="avatar_hat_20">
        <g transform="matrix(1.06709,0,0,1.31674,-13.7934,-37.9329)">
            <ellipse cx="153.495" cy="90.37" rx="108.945" ry="29.39" style="fill:url(#_Linear1);"/>
        </g>
        <g transform="matrix(1.06709,0,0,1.31674,-13.7934,-37.9329)">
            <path d="M153.495,60.98C213.624,60.98 262.441,74.149 262.441,90.37C262.441,106.591 213.624,119.76 153.495,119.76C93.367,119.76 44.55,106.591 44.55,90.37C44.55,74.149 93.367,60.98 153.495,60.98ZM153.495,62.498C189.252,62.498 220.979,67.168 240.634,74.4C247.005,76.744 252.084,79.346 255.558,82.159C258.758,84.75 260.567,87.491 260.567,90.37C260.567,93.249 258.758,95.99 255.558,98.581C252.084,101.394 247.005,103.996 240.634,106.34C220.979,113.571 189.252,118.241 153.495,118.241C117.739,118.241 86.012,113.571 66.357,106.34C59.986,103.996 54.907,101.394 51.433,98.581C48.233,95.99 46.424,93.249 46.424,90.37C46.424,87.491 48.233,84.75 51.433,82.159C54.907,79.346 59.986,76.744 66.357,74.4C86.012,67.168 117.739,62.498 153.495,62.498Z" style="fill:#3d3d3d;"/>
        </g>
        <g transform="matrix(1.02069,0,0,1.25949,-6.6719,-38.2216)">
            <path d="M153.495,60.98C213.624,60.98 262.441,74.149 262.441,90.37C262.441,106.591 213.624,119.76 153.495,119.76C93.367,119.76 44.55,106.591 44.55,90.37C44.55,74.149 93.367,60.98 153.495,60.98ZM153.495,62.498C189.252,62.498 220.979,67.168 240.634,74.4C247.005,76.744 252.084,79.346 255.558,82.159C258.758,84.75 260.567,87.491 260.567,90.37C260.567,93.249 258.758,95.99 255.558,98.581C252.084,101.394 247.005,103.996 240.634,106.34C220.979,113.571 189.252,118.241 153.495,118.241C117.739,118.241 86.012,113.571 66.357,106.34C59.986,103.996 54.907,101.394 51.433,98.581C48.233,95.99 46.424,93.249 46.424,90.37C46.424,87.491 48.233,84.75 51.433,82.159C54.907,79.346 59.986,76.744 66.357,74.4C86.012,67.168 117.739,62.498 153.495,62.498Z" style="fill:#3d3d3d;"/>
        </g>
        <path d="M300,119.76C300,99.803 283.577,83.38 263.62,83.38L36.38,83.38C16.423,83.38 -0,99.803 0,119.76L0,36.171C31.744,34.28 50.619,27.897 62.192,7.386C91.461,19.847 120.731,12.364 150,0L150.686,0.288C179.726,12.364 208.767,19.75 237.808,7.386C249.381,27.897 268.256,34.28 300,36.171L300,119.76Z" style="fill:#001132;fill-rule:nonzero;"/>
        <path d="M149.998,46.443C97.736,46.404 45.469,50.439 18.815,58.673C12.274,60.694 7.468,63.1 4.432,65.475C1.624,67.672 0,71.707 0,71.707L-0,64.345C-0,64.345 1.097,63.082 1.789,62.473C4.987,59.658 10.406,57.084 17.635,54.851C44.531,46.543 97.264,42.404 150,42.443L151.236,42.443C203.557,42.469 255.679,46.607 282.365,54.851C289.594,57.084 295.013,59.658 298.211,62.473C298.903,63.082 300,64.345 300,64.345L300,71.707C300,71.707 298.376,67.672 295.568,65.475C292.532,63.1 287.726,60.694 281.185,58.673C254.531,50.439 202.264,46.404 150.002,46.443L149.998,46.443ZM150,38.582C202.618,38.542 255.235,42.655 282.07,50.945C289.127,53.125 294.429,55.614 297.55,58.362C298.609,59.294 300,60.573 300,60.573L300,63.034C300,63.034 298.164,61.226 296.229,59.863C292.994,57.585 288.193,54.93 281.48,52.856C254.765,44.603 202.382,40.542 150.001,40.582L149.999,40.582C97.618,40.542 45.235,44.603 18.52,52.856C11.807,54.93 7.006,57.585 3.771,59.863C1.836,61.226 -0,63.034 -0,63.034L-0,60.573C-0,60.573 1.391,59.294 2.45,58.362C5.571,55.614 10.873,53.125 17.93,50.945C44.765,42.655 97.382,38.542 150,38.582Z"/>
        <path d="M279.222,86.936C291.464,92.821 293.774,78.973 284.33,74.338C278.436,71.445 271.289,69.707 263.62,69.707L36.38,69.707C29.129,69.707 22.344,71.76 16.644,74.829C15.269,75.569 20.075,87.258 21.243,86.717C25.862,84.577 30.992,83.38 36.38,83.38L263.62,83.38C269.189,83.38 274.483,84.659 279.222,86.936Z" style="fill-rule:nonzero;"/>
        <g>
            <g transform="matrix(0.872865,-0.146557,0.165586,0.986195,-16.2238,6.21044)">
                <circle cx="20.941" cy="80" r="8.425" style="fill:url(#_Linear2);"/>
            </g>
            <g transform="matrix(0.872865,-0.146557,0.165586,0.986195,-16.2238,6.21044)">
                <path d="M20.941,71.575C25.591,71.575 29.366,75.35 29.366,80C29.366,84.65 25.591,88.425 20.941,88.425C16.292,88.425 12.517,84.65 12.517,80C12.517,75.35 16.292,71.575 20.941,71.575ZM20.941,72.575C25.008,72.575 28.236,75.933 28.236,80C28.236,84.066 25.008,87.425 20.941,87.425C16.875,87.425 13.647,84.066 13.647,80C13.647,75.933 16.875,72.575 20.941,72.575L20.941,72.575Z" style="fill:#76351d;"/>
            </g>
            <g transform="matrix(-0.872865,-0.146557,-0.165586,0.986195,316.224,6.21044)">
                <circle cx="20.941" cy="80" r="8.425" style="fill:url(#_Linear3);"/>
            </g>
            <g transform="matrix(-0.872865,-0.146557,-0.165586,0.986195,316.224,6.21044)">
                <path d="M20.941,71.575C25.591,71.575 29.366,75.35 29.366,80C29.366,84.65 25.591,88.425 20.941,88.425C16.292,88.425 12.517,84.65 12.517,80C12.517,75.35 16.292,71.575 20.941,71.575ZM20.941,72.575C25.008,72.575 28.236,75.933 28.236,80C28.236,84.066 25.008,87.425 20.941,87.425C16.875,87.425 13.647,84.066 13.647,80C13.647,75.933 16.875,72.575 20.941,72.575L20.941,72.575Z" style="fill:#76351d;"/>
            </g>
        </g>
    </g>
    <defs>
        <linearGradient id="_Linear1" x1="0" y1="0" x2="1" y2="0" gradientUnits="userSpaceOnUse" gradientTransform="matrix(217.891,0,0,58.7804,44.55,90.3698)"><stop offset="0" style="stop-color:#000;stop-opacity:1"/><stop offset="0.25" style="stop-color:#070707;stop-opacity:1"/><stop offset="0.5" style="stop-color:#1b1b1b;stop-opacity:1"/><stop offset="0.74" style="stop-color:#070707;stop-opacity:1"/><stop offset="1" style="stop-color:#000;stop-opacity:1"/></linearGradient>
        <linearGradient id="_Linear2" x1="0" y1="0" x2="1" y2="0" gradientUnits="userSpaceOnUse" gradientTransform="matrix(1.03173e-15,16.8494,-16.8494,1.03173e-15,20.9414,71.5751)"><stop offset="0" style="stop-color:#ffdf7c;stop-opacity:1"/><stop offset="0.53" style="stop-color:#ebbe39;stop-opacity:1"/><stop offset="1" style="stop-color:#e3b21f;stop-opacity:1"/></linearGradient>
        <linearGradient id="_Linear3" x1="0" y1="0" x2="1" y2="0" gradientUnits="userSpaceOnUse" gradientTransform="matrix(1.03173e-15,16.8494,-16.8494,1.03173e-15,20.9414,71.5751)"><stop offset="0" style="stop-color:#ffdf7c;stop-opacity:1"/><stop offset="0.53" style="stop-color:#ebbe39;stop-opacity:1"/><stop offset="1" style="stop-color:#e3b21f;stop-opacity:1"/></linearGradient>
    </defs>
</svg>
