<?xml version="1.0" encoding="UTF-8" standalone="no"?>
<!DOCTYPE svg PUBLIC "-//W3C//DTD SVG 1.1//EN" "http://www.w3.org/Graphics/SVG/1.1/DTD/svg11.dtd">
<svg width="100%" height="100%" viewBox="0 0 300 345" version="1.1" xmlns="http://www.w3.org/2000/svg" xmlns:xlink="http://www.w3.org/1999/xlink" xml:space="preserve" xmlns:serif="http://www.serif.com/" style="fill-rule:evenodd;clip-rule:evenodd;stroke-linejoin:round;stroke-miterlimit:2;">
    <g id="avatar_hat_19">
        <g transform="matrix(1,0,0,1,-1.61523,-1)">
            <path d="M199.615,18.658C199.615,12.075 194.271,6.731 187.688,6.731L115.543,6.731C108.96,6.731 103.615,12.075 103.615,18.658L103.615,42.513C103.615,49.096 108.96,54.44 115.543,54.44L187.688,54.44C194.271,54.44 199.615,49.096 199.615,42.513L199.615,18.658Z" style="fill:#dadada;"/>
        </g>
        <path d="M91.838,68.447C91.929,69.151 92.386,69.753 93.038,70.031C93.691,70.308 94.442,70.219 95.012,69.797C98.968,66.866 106.736,64.663 116.384,63.063C131.335,60.583 150.717,59.699 167.975,60.535C179.405,61.089 189.898,62.393 197.524,64.508C202.224,65.811 205.79,67.351 207.606,69.323C208.132,69.894 208.942,70.109 209.682,69.874C210.423,69.639 210.96,68.996 211.06,68.225L216.589,25.606C216.703,24.724 216.221,23.872 215.405,23.516C172.76,4.919 130.116,5.108 87.471,23.513C86.651,23.867 86.165,24.721 86.28,25.606L91.838,68.447Z" style="fill:#fff;fill-rule:nonzero;"/>
        <g transform="matrix(1,0,0,1,-115.309,-288.465)">
            <path d="M265.309,307.482C273.204,307.482 279.614,313.892 279.614,321.787C279.614,329.682 273.204,336.092 265.309,336.092C257.413,336.092 251.003,329.682 251.003,321.787C251.003,313.892 257.413,307.482 265.309,307.482ZM261.828,318.306L257.767,318.306C256.807,318.306 256.027,319.086 256.027,320.047L256.027,323.527C256.027,324.488 256.807,325.268 257.767,325.268L261.828,325.268L261.828,329.329C261.828,330.289 262.608,331.069 263.568,331.069L267.049,331.069C268.01,331.069 268.79,330.289 268.79,329.329L268.79,325.268L272.85,325.268C273.811,325.268 274.591,324.488 274.591,323.527L274.591,320.047C274.591,319.086 273.811,318.306 272.85,318.306L268.79,318.306L268.79,314.245C268.79,313.285 268.01,312.505 267.049,312.505L263.568,312.505C262.608,312.505 261.828,313.285 261.828,314.245L261.828,318.306Z" style="fill:#354051;"/>
        </g>
    </g>
</svg>
