<?xml version="1.0" encoding="UTF-8" standalone="no"?>
<!DOCTYPE svg PUBLIC "-//W3C//DTD SVG 1.1//EN" "http://www.w3.org/Graphics/SVG/1.1/DTD/svg11.dtd">
<svg width="100%" height="100%" viewBox="0 0 300 345" version="1.1" xmlns="http://www.w3.org/2000/svg" xmlns:xlink="http://www.w3.org/1999/xlink" xml:space="preserve" xmlns:serif="http://www.serif.com/" style="fill-rule:evenodd;clip-rule:evenodd;stroke-linejoin:round;stroke-miterlimit:2;">
    <g id="avatar_hat_43">
        <path d="M297.782,68.406C295.787,63.918 293.188,59.136 292.186,54.424C291.215,49.854 293.768,45.819 297.34,41.047L24.69,72.86C84.997,117.055 249.193,91.551 297.777,68.853C297.833,68.827 297.926,68.675 297.782,68.406Z" style="fill:#343434;"/>
        <path d="M297.782,68.406C295.787,63.918 293.188,59.136 292.186,54.424C291.215,49.854 293.768,45.819 297.34,41.047L266.72,59.43C288.547,51.145 288.776,58.144 292.177,71.277C292.177,71.277 296.053,69.658 297.777,68.853C297.833,68.827 297.926,68.675 297.782,68.406Z" style="fill:#202020;"/>
        <path d="M1.845,64.764C0.743,62.706 -0.195,60.833 -0,58.55C1.623,39.507 300,15.557 300,34.719C300,38.328 297.772,42.281 293.195,45.831L293.087,45.915C289.178,48.821 284.575,51.835 275.848,55.735C206.229,86.848 26.801,98.666 2.992,66.568C2.356,65.71 2.256,65.514 1.848,64.771C1.847,64.768 1.845,64.766 1.845,64.764Z" style="fill:#202020;"/>
        <path d="M300,34.719C288.227,67.261 4.683,79.181 -0,58.55C0.798,39.455 66.922,28.8 150,8.145C230.342,-11.829 300,15.557 300,34.719" style="fill:#2b2b2b;"/>
        <g transform="matrix(0.737692,0,0,0.737692,62.0605,9.17414)">
            <path d="M300,30.345C288.227,62.886 4.683,82.882 -0,62.252C0.798,43.157 66.922,28.8 150,8.145C230.342,-11.829 300,11.183 300,30.345" style="fill:#343434;"/>
        </g>
        <g>
            <g transform="matrix(1,0,0,1,-1.23358,0.364904)">
                <path d="M149.612,10.436C148.914,6.764 146.473,3.652 143.249,1.571C142.069,0.809 141.369,0.034 140.227,0.469L132.609,2.711C130.439,3.163 130.53,5.195 132.395,6.133C136.508,8.201 139.073,10.319 141.186,13.245C142.974,15.721 150.325,14.183 149.612,10.436Z" style="fill:#221d24;"/>
            </g>
            <path d="M148.681,11.208C148.035,7.527 146.473,3.652 143.249,1.571C142.069,0.809 141.369,0.034 140.227,0.469L132.609,2.711C130.439,3.163 130.297,4.662 132.162,5.6C136.275,7.668 139.463,10.635 141.532,13.591C143.337,16.17 149.292,14.685 148.681,11.208Z" style="fill:#2b2b2b;"/>
        </g>
        <path d="M239.524,86.009C239.526,85.828 239.532,85.645 239.542,85.462C239.843,79.686 243.849,74.293 250.09,77.439C251.926,78.364 255.216,81.977 257.329,81.709C262.881,81.004 263.218,72.255 270.288,74.286C271.339,74.588 272.329,75.134 273.242,75.725C273.903,76.153 274.488,76.652 274.994,77.226C264.701,80.338 252.682,83.331 239.524,86.009Z" style="fill:#009ee0;"/>
        <path d="M141.868,96.99C142.036,96.61 142.224,96.234 142.434,95.862C143.482,94.009 145.134,92.841 147.086,92.069C148.559,91.486 150.103,91.15 151.693,91.34C153.016,91.497 154.248,92.026 155.275,92.871C156.706,94.049 157.461,95.251 157.693,96.417C152.41,96.693 147.126,96.886 141.868,96.99Z" style="fill:#00ae4e;"/>
        <path d="M52.114,31.751C51.412,32.823 50.913,34.131 50.248,35.058C47.519,38.861 43.085,40.312 38.581,38.698C37.273,38.23 36.224,37.523 35.297,36.545C40.44,34.951 46.063,33.361 52.114,31.751ZM68.815,27.501C67.969,29.196 65.756,30.639 64.354,30.938C62.346,31.366 59.766,30.852 57.781,30.403C57.692,30.383 57.602,30.362 57.511,30.339C61.147,29.402 64.919,28.457 68.815,27.501ZM250.974,5.791C270.162,10.003 284.944,16.601 293.054,23.45C292.573,24.673 291.776,25.838 290.602,26.887C283.934,32.848 276.683,22.654 270.386,22.134C264.747,21.668 259.813,26.288 254.179,26.555C249.704,26.766 244.077,23.301 243.675,18.557C243.468,16.101 244.738,13.362 246.112,11.408C247.528,9.394 249.274,7.582 250.974,5.791Z" style="fill:#ef1d19;"/>
    </g>
</svg>
