<?xml version="1.0" encoding="UTF-8" standalone="no"?>
<!DOCTYPE svg PUBLIC "-//W3C//DTD SVG 1.1//EN" "http://www.w3.org/Graphics/SVG/1.1/DTD/svg11.dtd">
<svg width="100%" height="100%" viewBox="0 0 300 345" version="1.1" xmlns="http://www.w3.org/2000/svg" xmlns:xlink="http://www.w3.org/1999/xlink" xml:space="preserve" xmlns:serif="http://www.serif.com/" style="fill-rule:evenodd;clip-rule:evenodd;stroke-linejoin:round;stroke-miterlimit:2;">
    <g id="avatar_hat_38">
        <g>
            <path d="M123.375,42.268C121.374,41.061 121.073,39.74 121.273,38.268C121.48,36.747 122.221,35.064 122.174,33.179C125.565,36.143 125.749,39.256 124.033,41.788C124.025,41.991 124.014,42.192 123.999,42.39L124.041,42.345C125.417,40.894 126.768,39.42 128.094,37.923C128.529,37.431 128.962,36.936 129.392,36.44C129.53,36.28 129.667,36.12 129.805,35.96C129.851,35.907 129.896,35.854 129.942,35.8C129.957,35.783 129.973,35.765 129.988,35.747C130.003,35.729 130.041,35.671 130.034,35.694C130.024,35.721 129.999,35.74 129.982,35.764C129.948,35.81 129.913,35.857 129.879,35.903C129.776,36.043 129.673,36.183 129.569,36.322C129.191,36.832 128.811,37.34 128.429,37.847C127.159,39.53 125.865,41.196 124.547,42.842L124.54,42.851C124.736,42.801 124.935,42.753 125.138,42.709C127.329,40.574 130.425,40.208 133.94,43.025C132.075,43.31 130.549,44.336 129.088,44.806C127.674,45.262 126.321,45.198 124.78,43.441C124.346,43.615 123.946,43.81 123.592,44.027L123.592,44.027C122.78,45.025 121.96,46.017 121.131,47C120.31,47.974 119.48,48.939 118.642,49.898L118.629,49.912C118.924,49.877 119.224,49.848 119.528,49.824C122.73,47.471 126.779,47.557 130.793,51.813C128.344,51.844 126.197,52.889 124.233,53.232C122.332,53.564 120.603,53.239 118.937,50.702C118.442,50.824 117.975,50.97 117.544,51.141L117.496,51.195C116.284,52.556 115.053,53.902 113.804,55.23C112.572,56.539 111.322,57.832 110.054,59.107L110.052,59.109C110.385,59.072 110.722,59.04 111.062,59.014C115.48,55.768 121.067,55.886 126.608,61.758C123.228,61.801 120.265,63.243 117.554,63.717C114.932,64.175 112.545,63.726 110.246,60.225C109.558,60.395 108.909,60.598 108.312,60.836L108.3,60.848C107.715,61.421 107.126,61.991 106.534,62.557C105.359,63.678 104.17,64.785 102.966,65.875C101.775,66.954 100.57,68.017 99.351,69.065C98.727,69.601 98.099,70.133 97.467,70.661L97.427,70.695C97.809,70.682 98.196,70.675 98.586,70.674C104.291,66.94 110.979,67.636 116.893,75.71C112.833,75.436 109.099,76.998 105.788,77.341C102.584,77.673 99.777,76.864 97.456,72.148C96.522,72.314 95.641,72.537 94.831,72.822L94.798,72.849C94.144,73.374 93.486,73.895 92.825,74.411C91.55,75.406 90.263,76.383 88.962,77.342C87.651,78.308 86.327,79.256 84.99,80.186C84.295,80.669 83.596,81.147 82.894,81.621L82.837,81.659C83.16,81.679 83.485,81.704 83.812,81.733C90.514,78.051 97.744,79.505 103.22,89.275C98.812,88.561 94.534,89.967 90.87,90.029C87.324,90.09 84.353,88.892 82.394,83.298C81.435,83.387 80.517,83.535 79.659,83.748L79.599,83.786C78.913,84.226 78.225,84.661 77.533,85.091C76.155,85.947 74.765,86.784 73.363,87.602C71.948,88.428 70.521,89.233 69.082,90.019C68.355,90.416 67.625,90.808 66.892,91.195L66.881,91.201C67.411,91.332 67.947,91.477 68.483,91.636C75.781,89.352 82.581,92.208 86.016,102.868C81.836,101.297 77.365,101.829 73.761,101.165C70.274,100.523 67.598,98.761 66.785,92.89C65.737,92.778 64.725,92.745 63.769,92.803L63.713,92.831C62.954,93.212 62.192,93.587 61.428,93.958C59.902,94.696 58.365,95.413 56.819,96.107C55.253,96.81 53.678,97.491 52.093,98.149C51.291,98.482 50.486,98.81 49.678,99.132L49.649,99.144C50.199,99.344 50.752,99.56 51.306,99.792C58.809,98.321 65.256,101.903 67.505,112.875C63.522,110.855 59.019,110.895 55.51,109.842C52.113,108.822 49.646,106.778 49.48,100.853C48.392,100.614 47.334,100.467 46.329,100.43C41.452,102.264 36.501,103.893 31.48,105.33C32.181,105.747 32.883,106.194 33.58,106.666C42.842,106.661 49.577,112.415 49.47,125.97C45.261,122.646 39.916,121.647 36.023,119.58C32.256,117.579 29.85,114.578 31.149,107.501C30.024,107.01 28.909,106.616 27.821,106.34L27.811,106.342C26.851,106.597 25.889,106.846 24.925,107.087C23.016,107.565 21.101,108.016 19.179,108.441C17.179,108.882 15.173,109.296 13.162,109.682C12.129,109.88 11.095,110.071 10.059,110.255L9.996,110.266C10.879,111.037 11.752,111.86 12.606,112.725L9.769,112.361C22.835,113.44 30.775,121.803 26.135,139.358C22.002,134.45 15.763,132.086 11.632,128.756C7.5,125.426 5.475,121.13 9.769,112.361L9.372,113.197C8.101,112.332 6.81,111.594 5.517,111.015L5.486,111.02C4.27,111.211 3.052,111.393 1.833,111.566C1.418,111.625 1.003,111.682 0.587,111.739C0.465,111.756 0.343,111.772 0.22,111.789C0.171,111.795 0.122,111.802 0.073,111.808C0.049,111.812 0,111.843 0,111.818C-0.024,107.787 -0.025,103.756 0,99.725C0,99.7 0.05,99.723 0.075,99.722C0.124,99.72 0.174,99.718 0.224,99.716C0.422,99.707 0.621,99.697 0.82,99.688C1.689,99.646 2.557,99.598 3.425,99.542L3.456,99.534C3.746,99.181 4.03,98.822 4.306,98.458C4.629,98.032 4.943,97.598 5.249,97.159L5.836,97.937C-0.394,89.766 0.555,84.127 3.772,78.74C6.99,73.352 12.476,68.217 15.323,61.053C23.96,78.977 18.24,91.541 5.836,97.937L8.485,96.429C8.03,97.386 7.555,98.333 7.058,99.268L7.062,99.271C8.124,99.181 9.185,99.08 10.244,98.97C12.335,98.751 14.422,98.494 16.503,98.199C18.629,97.898 20.749,97.557 22.862,97.177C23.905,96.989 24.946,96.792 25.985,96.586L26.036,96.565C26.215,96.239 26.389,95.91 26.556,95.577C26.74,95.211 26.917,94.842 27.088,94.47L27.091,94.463C21.255,88.825 21.26,84.121 23.077,79.294C24.955,74.305 28.768,69.185 30.068,62.768C39.99,76.45 37.101,87.815 27.695,95.031L29.675,93.4C29.555,93.842 29.43,94.283 29.3,94.722C29.177,95.136 29.05,95.549 28.918,95.96L28.949,95.971C29.815,95.783 30.679,95.589 31.541,95.389C33.264,94.988 34.982,94.562 36.692,94.111C38.424,93.654 40.149,93.171 41.867,92.662C42.736,92.404 43.604,92.14 44.47,91.87L44.488,91.864C44.686,91.449 44.877,91.02 45.06,90.58C39.923,85.951 39.789,81.944 41.194,77.778C42.646,73.474 45.742,69.001 46.66,63.496C54.854,74.009 53.646,83.156 47.241,89.553C47.118,90.078 46.988,90.596 46.852,91.107L46.919,91.085C47.733,90.818 48.546,90.545 49.356,90.267C50.952,89.718 52.541,89.148 54.121,88.555C55.745,87.947 57.361,87.315 58.967,86.661C59.758,86.339 60.547,86.011 61.333,85.678L61.385,85.656C61.67,85.092 61.94,84.5 62.196,83.885C57.059,79.256 56.925,75.249 58.33,71.083C59.782,66.779 62.878,62.306 63.796,56.801C71.99,67.314 70.782,76.461 64.377,82.858C64.244,83.428 64.102,83.992 63.952,84.546L63.952,84.546C66.136,83.581 68.301,82.576 70.446,81.53C72.586,80.485 74.707,79.4 76.806,78.276L76.865,78.244C77.419,77.313 77.926,76.282 78.386,75.176C73.249,70.547 73.114,66.54 74.52,62.375C75.972,58.071 79.068,53.597 79.985,48.092C88.18,58.606 86.972,67.752 80.567,74.149C80.375,74.969 80.166,75.774 79.941,76.559L79.998,76.526C80.716,76.123 81.433,75.716 82.146,75.303C83.613,74.456 85.068,73.588 86.512,72.701C87.932,71.828 89.341,70.937 90.738,70.027C91.445,69.567 92.15,69.101 92.851,68.631L92.866,68.621C93.243,67.939 93.594,67.203 93.917,66.425C89.442,62.392 89.325,58.901 90.549,55.272C91.814,51.522 94.511,47.625 95.311,42.829C102.45,51.988 101.398,59.957 95.817,65.53C95.715,65.967 95.607,66.4 95.494,66.826L95.536,66.796C97.391,65.505 99.223,64.182 101.03,62.825C102.85,61.459 104.645,60.059 106.415,58.627L106.444,58.603C106.771,57.961 107.059,57.249 107.309,56.485C103.891,53.86 103.612,51.376 104.282,48.72C104.975,45.974 106.68,43.044 106.982,39.579C112.586,45.712 112.282,51.454 108.614,55.741C108.548,56.168 108.475,56.589 108.395,57.002L108.41,56.989C109.803,55.829 111.179,54.649 112.537,53.449C113.873,52.269 115.192,51.068 116.493,49.849L116.509,49.834C116.644,49.424 116.759,48.986 116.854,48.527C114.062,46.842 113.642,44.999 113.921,42.945C114.209,40.822 115.244,38.474 115.177,35.843C119.91,39.98 120.167,44.323 117.772,47.857C117.761,48.136 117.745,48.411 117.725,48.684L117.734,48.675C118.641,47.808 119.54,46.932 120.43,46.047C121.317,45.163 122.195,44.27 123.064,43.369L123.077,43.355C123.196,43.018 123.295,42.654 123.375,42.268Z" style="fill:url(#_Linear1);"/>
            <g transform="matrix(0.738124,0.189867,-0.189867,0.738124,-100.209,6.37431)">
                <path d="M164.68,31.718C171.735,48.08 168.801,61.273 164.68,81.687C178.352,69.505 181.514,51.671 164.68,31.718Z" style="fill:#c39760;"/>
            </g>
            <g transform="matrix(0.738124,0.189867,-0.189867,0.738124,-100.209,6.37431)">
                <path d="M168.081,42.04C169.55,56.703 167.176,76.169 160.679,87.375L165.413,87.566C169.726,73.576 170.771,54.344 168.081,42.04Z" style="fill:#b89160;"/>
            </g>
            <g transform="matrix(0.645666,0.0474777,-0.0474777,0.645666,-74.7544,34.4699)">
                <path d="M164.68,31.718C172.895,52.65 168.458,64.9 164.68,81.687C178.352,69.505 181.514,51.671 164.68,31.718Z" style="fill:#c39760;"/>
            </g>
            <g transform="matrix(0.645666,0.0474777,-0.0474777,0.645666,-74.7544,34.4699)">
                <path d="M168.081,42.04C169.55,56.703 167.176,76.169 160.679,87.375L165.413,87.566C169.726,73.576 170.771,54.344 168.081,42.04Z" style="fill:#b89160;"/>
            </g>
            <g transform="matrix(0.55134,0.0213659,-0.0213659,0.55134,-43.4569,42.4901)">
                <path d="M164.68,31.718C172.713,51.95 167.885,68.496 164.68,81.687C178.352,69.505 181.514,51.671 164.68,31.718Z" style="fill:#c39760;"/>
            </g>
            <g transform="matrix(0.55134,0.0213659,-0.0213659,0.55134,-43.4569,42.4901)">
                <path d="M168.081,42.04C169.55,56.703 167.176,76.169 160.679,87.375L165.413,87.566C169.726,73.576 170.771,54.344 168.081,42.04Z" style="fill:#b89160;"/>
            </g>
            <g transform="matrix(0.55134,0.0213659,-0.0213659,0.55134,-26.321,35.7952)">
                <path d="M164.68,31.718C172.766,52.377 168.562,63.736 164.68,81.687C178.352,69.505 181.514,51.671 164.68,31.718Z" style="fill:#cfa570;"/>
            </g>
            <g transform="matrix(0.55134,0.0213659,-0.0213659,0.55134,-26.321,35.7952)">
                <path d="M168.081,42.04C169.55,56.703 167.176,76.169 160.679,87.375L165.413,87.566C169.726,73.576 170.771,54.344 168.081,42.04Z" style="fill:#b89160;"/>
            </g>
            <g transform="matrix(0.55134,0.0213659,-0.0213659,0.55134,-10.1315,27.0867)">
                <path d="M164.68,31.718C173.374,48.825 167.434,72.391 164.68,81.687C178.352,69.505 181.514,51.671 164.68,31.718Z" style="fill:#cfa570;"/>
            </g>
            <g transform="matrix(0.55134,0.0213659,-0.0213659,0.55134,-10.1315,27.0867)">
                <path d="M168.081,42.04C169.55,56.703 167.176,76.169 160.679,87.375L165.413,87.566C169.726,73.576 170.771,54.344 168.081,42.04Z" style="fill:#b89160;"/>
            </g>
            <g transform="matrix(0.480331,0.0186141,-0.0186141,0.480331,16.8005,24.5286)">
                <path d="M164.68,31.718C172.536,48.431 168.119,64.883 164.68,81.687C178.352,69.505 181.514,51.671 164.68,31.718Z" style="fill:#d9b485;"/>
            </g>
            <g transform="matrix(0.480331,0.0186141,-0.0186141,0.480331,16.8005,24.5286)">
                <path d="M168.081,42.04C169.55,56.703 167.176,76.169 160.679,87.375L165.413,87.566C169.726,73.576 170.771,54.344 168.081,42.04Z" style="fill:#b89160;"/>
            </g>
            <g transform="matrix(0.343617,-0.0135974,0.0135974,0.343617,49.9641,30.9193)">
                <path d="M164.68,31.718C173.435,51.44 166.843,65.917 164.68,81.687C178.352,69.505 181.514,51.671 164.68,31.718Z" style="fill:#d9b485;"/>
            </g>
            <g transform="matrix(0.343617,-0.0135974,0.0135974,0.343617,49.9641,30.9193)">
                <path d="M168.081,42.04C169.55,56.703 167.176,76.169 160.679,87.375L165.413,87.566C169.726,73.576 170.771,54.344 168.081,42.04Z" style="fill:#b89160;"/>
            </g>
            <g transform="matrix(0.25721,-0.0393069,0.0393069,0.25721,71.5732,34.1581)">
                <path d="M164.68,31.718C173.409,52.927 167.066,67.938 164.68,81.687C178.352,69.505 181.514,51.671 164.68,31.718Z" style="fill:#d9b485;"/>
            </g>
            <g transform="matrix(0.25721,-0.0393069,0.0393069,0.25721,71.5732,34.1581)">
                <path d="M168.081,42.04C169.55,56.703 167.176,76.169 160.679,87.375L165.413,87.566C169.726,73.576 170.771,54.344 168.081,42.04Z" style="fill:#b89160;"/>
            </g>
            <g transform="matrix(0.184321,-0.0281679,0.0281679,0.184321,90.9265,31.9712)">
                <path d="M164.68,31.718C172.787,50.977 168.211,63.426 164.68,81.687C178.352,69.505 181.514,51.671 164.68,31.718Z" style="fill:#d9b485;"/>
            </g>
            <g transform="matrix(0.184321,-0.0281679,0.0281679,0.184321,90.9265,31.9712)">
                <path d="M168.081,42.04C169.55,56.703 167.176,76.169 160.679,87.375L165.413,87.566C169.726,73.576 170.771,54.344 168.081,42.04Z" style="fill:#b89160;"/>
            </g>
            <g transform="matrix(-0.00467561,-0.186402,-0.186402,0.00467561,140.622,73.5737)">
                <path d="M164.68,31.718C170.607,42.489 169.523,63.136 164.68,81.687C178.352,69.505 181.514,51.671 164.68,31.718Z" style="fill:#d9b485;"/>
            </g>
            <g transform="matrix(-0.00467561,-0.186402,-0.186402,0.00467561,140.622,73.5737)">
                <path d="M168.081,42.04C169.55,56.703 167.176,76.169 160.679,87.375L165.413,87.566C169.726,73.576 170.771,54.344 168.081,42.04Z" style="fill:#b89160;"/>
            </g>
            <g transform="matrix(0.02747,-0.240615,-0.240615,-0.02747,133.901,92.3082)">
                <path d="M164.68,31.718C170.827,43.982 169.811,64.945 164.68,81.687C178.352,69.505 181.514,51.671 164.68,31.718Z" style="fill:#d9b485;"/>
            </g>
            <g transform="matrix(0.02747,-0.240615,-0.240615,-0.02747,133.901,92.3082)">
                <path d="M168.081,42.04C169.55,56.703 167.176,76.169 160.679,87.375L165.413,87.566C169.726,73.576 170.771,54.344 168.081,42.04Z" style="fill:#b89160;"/>
            </g>
            <g transform="matrix(0.0379071,-0.332035,-0.332035,-0.0379071,130.896,117.64)">
                <path d="M164.68,31.718C170.482,43.592 171.112,62.657 164.68,81.687C178.352,69.505 181.514,51.671 164.68,31.718Z" style="fill:#d9b485;"/>
            </g>
            <g transform="matrix(0.0379071,-0.332035,-0.332035,-0.0379071,130.896,117.64)">
                <path d="M168.081,42.04C169.55,56.703 167.176,76.169 160.679,87.375L165.413,87.566C169.726,73.576 170.771,54.344 168.081,42.04Z" style="fill:#b89160;"/>
            </g>
            <g transform="matrix(0.0869156,-0.422298,-0.393604,-0.0810099,115.064,147.824)">
                <path d="M164.68,31.718C168.976,40.17 171.539,61.405 164.68,81.687C178.352,69.505 181.514,51.671 164.68,31.718Z" style="fill:#d9b485;"/>
            </g>
            <g transform="matrix(0.0869156,-0.422298,-0.393604,-0.0810099,115.064,147.824)">
                <path d="M168.081,42.04C169.55,56.703 167.176,76.169 160.679,87.375L165.413,87.566C169.726,73.576 170.771,54.344 168.081,42.04Z" style="fill:#b89160;"/>
            </g>
            <g transform="matrix(0.147081,-0.471722,-0.42062,-0.131148,92.3394,171.118)">
                <path d="M164.68,31.718C169.813,43.441 170.92,59.662 164.68,81.687C178.352,69.505 181.514,51.671 164.68,31.718Z" style="fill:#cfa570;"/>
            </g>
            <g transform="matrix(0.147081,-0.471722,-0.42062,-0.131148,92.3394,171.118)">
                <path d="M168.081,42.04C169.55,56.703 167.176,76.169 160.679,87.375L165.413,87.566C169.726,73.576 170.771,54.344 168.081,42.04Z" style="fill:#b89160;"/>
            </g>
            <g transform="matrix(0.237474,-0.433313,-0.386372,-0.211749,59.1636,180.942)">
                <path d="M164.68,31.718C169.727,42.809 171.127,57.078 164.68,81.687C178.352,69.505 181.514,51.671 164.68,31.718Z" style="fill:#cfa570;"/>
            </g>
            <g transform="matrix(0.237474,-0.433313,-0.386372,-0.211749,59.1636,180.942)">
                <path d="M168.081,42.04C169.55,56.703 167.176,76.169 160.679,87.375L165.413,87.566C169.726,73.576 170.771,54.344 168.081,42.04Z" style="fill:#b89160;"/>
            </g>
            <g transform="matrix(0.283439,-0.404743,-0.360897,-0.252734,32.2749,187.544)">
                <path d="M164.68,31.718C168.983,43.728 172.418,58.919 164.68,81.687C178.352,69.505 181.514,51.671 164.68,31.718Z" style="fill:#c39760;"/>
            </g>
            <g transform="matrix(0.283439,-0.404743,-0.360897,-0.252734,32.2749,187.544)">
                <path d="M168.081,42.04C169.55,56.703 167.176,76.169 160.679,87.375L165.413,87.566C169.726,73.576 170.771,54.344 168.081,42.04Z" style="fill:#b89160;"/>
            </g>
            <g transform="matrix(0.438056,-0.414918,-0.363788,-0.384074,-11.1308,206.481)">
                <path d="M164.68,31.718C169.281,42.136 171.831,59.243 164.68,81.687C178.352,69.505 181.514,51.671 164.68,31.718Z" style="fill:#c39760;"/>
            </g>
            <g transform="matrix(0.438056,-0.414918,-0.363788,-0.384074,-11.1308,206.481)">
                <path d="M168.081,42.04C169.55,56.703 167.176,76.169 160.679,87.375L165.413,87.566C169.726,73.576 170.771,54.344 168.081,42.04Z" style="fill:#b89160;"/>
            </g>
            <g transform="matrix(0.663855,-0.402434,-0.327515,-0.540269,-72.8008,222.766)">
                <path d="M164.68,31.718C169.505,42.718 172.291,60.753 164.68,81.687C178.352,69.505 181.514,51.671 164.68,31.718Z" style="fill:#c39760;"/>
            </g>
            <g transform="matrix(0.663855,-0.402434,-0.327515,-0.540269,-72.8008,222.766)">
                <path d="M168.081,42.04C169.55,56.703 167.176,76.169 160.679,87.375L165.413,87.566C169.726,73.576 170.771,54.344 168.081,42.04Z" style="fill:#b89160;"/>
            </g>
            <path d="M0,99.725C50.897,97.53 98.845,72.153 130.034,35.694C94.847,83.504 50.131,105.107 0,111.818L0,99.725" style="fill:#a58053;"/>
            <path d="M116.084,52.116C81.598,86.741 51.445,100.745 12.706,107.953C9.769,108.5 9.769,101.943 12.531,101.311C48.432,96.298 87.639,79.73 116.084,52.116Z" style="fill:#c39760;"/>
            <g transform="matrix(0.719222,0,0,0.719222,10.2427,28.4582)">
                <path d="M118.205,57.635C83.438,85.973 51.914,97.93 12.706,107.953C9.812,108.693 9.769,101.943 12.531,101.311C48.432,96.298 84.415,81.541 118.205,57.635Z" style="fill:#d19e5f;"/>
            </g>
        </g>
        <g transform="matrix(-0.976609,0.215025,0.215025,0.976609,279.9,-2.29217)">
            <path d="M123.375,42.268C121.374,41.061 121.073,39.74 121.273,38.268C121.48,36.747 122.221,35.064 122.174,33.179C125.565,36.143 125.749,39.256 124.033,41.788C124.025,41.991 124.014,42.192 123.999,42.39L124.041,42.345C125.417,40.894 126.768,39.42 128.094,37.923C128.529,37.431 128.962,36.936 129.392,36.44C129.53,36.28 129.667,36.12 129.805,35.96C129.851,35.907 129.896,35.854 129.942,35.8C129.957,35.783 129.973,35.765 129.988,35.747C130.003,35.729 130.041,35.671 130.034,35.694C130.024,35.721 129.999,35.74 129.982,35.764C129.948,35.81 129.913,35.857 129.879,35.903C129.776,36.043 129.673,36.183 129.569,36.322C129.191,36.832 128.811,37.34 128.429,37.847C127.159,39.53 125.865,41.196 124.547,42.842L124.54,42.851C124.736,42.801 124.935,42.753 125.138,42.709C127.329,40.574 130.425,40.208 133.94,43.025C132.075,43.31 130.549,44.336 129.088,44.806C127.674,45.262 126.321,45.198 124.78,43.441C124.346,43.615 123.946,43.81 123.592,44.027L123.592,44.027C122.78,45.025 121.96,46.017 121.131,47C120.31,47.974 119.48,48.939 118.642,49.898L118.629,49.912C118.924,49.877 119.224,49.848 119.528,49.824C122.73,47.471 126.779,47.557 130.793,51.813C128.344,51.844 126.197,52.889 124.233,53.232C122.332,53.564 120.603,53.239 118.937,50.702C118.442,50.824 117.975,50.97 117.544,51.141L117.496,51.195C116.284,52.556 115.053,53.902 113.804,55.23C112.572,56.539 111.322,57.832 110.054,59.107L110.052,59.109C110.385,59.072 110.722,59.04 111.062,59.014C115.48,55.768 121.067,55.886 126.608,61.758C123.228,61.801 120.265,63.243 117.554,63.717C114.932,64.175 112.545,63.726 110.246,60.225C109.558,60.395 108.909,60.598 108.312,60.836L108.3,60.848C107.715,61.421 107.126,61.991 106.534,62.557C105.359,63.678 104.17,64.785 102.966,65.875C101.775,66.954 100.57,68.017 99.351,69.065C98.727,69.601 98.099,70.133 97.467,70.661L97.427,70.695C97.809,70.682 98.196,70.675 98.586,70.674C104.291,66.94 110.979,67.636 116.893,75.71C112.833,75.436 109.099,76.998 105.788,77.341C102.584,77.673 99.777,76.864 97.456,72.148C96.522,72.314 95.641,72.537 94.831,72.822L94.798,72.849C94.144,73.374 93.486,73.895 92.825,74.411C91.55,75.406 90.263,76.383 88.962,77.342C87.651,78.308 86.327,79.256 84.99,80.186C84.295,80.669 83.596,81.147 82.894,81.621L82.837,81.659C83.16,81.679 83.485,81.704 83.812,81.733C90.514,78.051 97.744,79.505 103.22,89.275C98.812,88.561 94.534,89.967 90.87,90.029C87.324,90.09 84.353,88.892 82.394,83.298C81.435,83.387 80.517,83.535 79.659,83.748L79.599,83.786C78.913,84.226 78.225,84.661 77.533,85.091C76.155,85.947 74.765,86.784 73.363,87.602C71.948,88.428 70.521,89.233 69.082,90.019C68.355,90.416 67.625,90.808 66.892,91.195L66.881,91.201C67.411,91.332 67.947,91.477 68.483,91.636C75.781,89.352 82.581,92.208 86.016,102.868C81.836,101.297 77.365,101.829 73.761,101.165C70.274,100.523 67.598,98.761 66.785,92.89C65.737,92.778 64.725,92.745 63.769,92.803L63.713,92.831C62.954,93.212 62.192,93.587 61.428,93.958C59.902,94.696 58.365,95.413 56.819,96.107C55.253,96.81 53.678,97.491 52.093,98.149C51.291,98.482 50.486,98.81 49.678,99.132L49.649,99.144C50.199,99.344 50.752,99.56 51.306,99.792C58.809,98.321 65.256,101.903 67.505,112.875C63.522,110.855 59.019,110.895 55.51,109.842C52.113,108.822 49.646,106.778 49.48,100.853C48.392,100.614 47.334,100.467 46.329,100.43C41.452,102.264 36.501,103.893 31.48,105.33C32.181,105.747 32.883,106.194 33.58,106.666C42.842,106.661 49.577,112.415 49.47,125.97C45.261,122.646 39.916,121.647 36.023,119.58C32.256,117.579 29.85,114.578 31.149,107.501C30.024,107.01 28.909,106.616 27.821,106.34L27.811,106.342C26.851,106.597 25.889,106.846 24.925,107.087C23.016,107.565 21.101,108.016 19.179,108.441C17.179,108.882 15.173,109.296 13.162,109.682C12.129,109.88 11.095,110.071 10.059,110.255L9.996,110.266C10.879,111.037 11.752,111.86 12.606,112.725L9.769,112.361C22.835,113.44 30.775,121.803 26.135,139.358C22.002,134.45 15.763,132.086 11.632,128.756C7.5,125.426 5.475,121.13 9.769,112.361L9.372,113.197C8.101,112.332 6.81,111.594 5.517,111.015L5.486,111.02C4.963,111.103 3.916,111.262 3.916,111.262L1.362,99.661C1.362,99.661 2.737,99.586 3.425,99.542L3.456,99.534C3.746,99.181 4.03,98.822 4.306,98.458C4.629,98.032 4.943,97.598 5.249,97.159L5.836,97.937C-0.394,89.766 0.555,84.127 3.772,78.74C6.99,73.352 12.476,68.217 15.323,61.053C23.96,78.977 18.24,91.541 5.836,97.937L8.485,96.429C8.03,97.386 7.555,98.333 7.058,99.268L7.062,99.271C8.124,99.181 9.185,99.08 10.244,98.97C12.335,98.751 14.422,98.494 16.503,98.199C18.629,97.898 20.749,97.557 22.862,97.177C23.905,96.989 24.946,96.792 25.985,96.586L26.036,96.565C26.215,96.239 26.389,95.91 26.556,95.577C26.74,95.211 26.917,94.842 27.088,94.47L27.091,94.463C21.255,88.825 21.26,84.121 23.077,79.294C24.955,74.305 28.768,69.185 30.068,62.768C39.99,76.45 37.101,87.815 27.695,95.031L29.675,93.4C29.555,93.842 29.43,94.283 29.3,94.722C29.177,95.136 29.05,95.549 28.918,95.96L28.949,95.971C29.815,95.783 30.679,95.589 31.541,95.389C33.264,94.988 34.982,94.562 36.692,94.111C38.424,93.654 40.149,93.171 41.867,92.662C42.736,92.404 43.604,92.14 44.47,91.87L44.488,91.864C44.686,91.449 44.877,91.02 45.06,90.58C39.923,85.951 39.789,81.944 41.194,77.778C42.646,73.474 45.742,69.001 46.66,63.496C54.854,74.009 53.646,83.156 47.241,89.553C47.118,90.078 46.988,90.596 46.852,91.107L46.919,91.085C47.733,90.818 48.546,90.545 49.356,90.267C50.952,89.718 52.541,89.148 54.121,88.555C55.745,87.947 57.361,87.315 58.967,86.661C59.758,86.339 60.547,86.011 61.333,85.678L61.385,85.656C61.67,85.092 61.94,84.5 62.196,83.885C57.059,79.256 56.925,75.249 58.33,71.083C59.782,66.779 62.878,62.306 63.796,56.801C71.99,67.314 70.782,76.461 64.377,82.858C64.244,83.428 64.102,83.992 63.952,84.546L63.952,84.546C66.136,83.581 68.301,82.576 70.446,81.53C72.586,80.485 74.707,79.4 76.806,78.276L76.865,78.244C77.419,77.313 77.926,76.282 78.386,75.176C73.249,70.547 73.114,66.54 74.52,62.375C75.972,58.071 79.068,53.597 79.985,48.092C88.18,58.606 86.972,67.752 80.567,74.149C80.375,74.969 80.166,75.774 79.941,76.559L79.998,76.526C80.716,76.123 81.433,75.716 82.146,75.303C83.613,74.456 85.068,73.588 86.512,72.701C87.932,71.828 89.341,70.937 90.738,70.027C91.445,69.567 92.15,69.101 92.851,68.631L92.866,68.621C93.243,67.939 93.594,67.203 93.917,66.425C89.442,62.392 89.325,58.901 90.549,55.272C91.814,51.522 94.511,47.625 95.311,42.829C102.45,51.988 101.398,59.957 95.817,65.53C95.715,65.967 95.607,66.4 95.494,66.826L95.536,66.796C97.391,65.505 99.223,64.182 101.03,62.825C102.85,61.459 104.645,60.059 106.415,58.627L106.444,58.603C106.771,57.961 107.059,57.249 107.309,56.485C103.891,53.86 103.612,51.376 104.282,48.72C104.975,45.974 106.68,43.044 106.982,39.579C112.586,45.712 112.282,51.454 108.614,55.741C108.548,56.168 108.475,56.589 108.395,57.002L108.41,56.989C109.803,55.829 111.179,54.649 112.537,53.449C113.873,52.269 115.192,51.068 116.493,49.849L116.509,49.834C116.644,49.424 116.759,48.986 116.854,48.527C114.062,46.842 113.642,44.999 113.921,42.945C114.209,40.822 115.244,38.474 115.177,35.843C119.91,39.98 120.167,44.323 117.772,47.857C117.761,48.136 117.745,48.411 117.725,48.684L117.734,48.675C118.641,47.808 119.54,46.932 120.43,46.047C121.317,45.163 122.195,44.27 123.064,43.369L123.077,43.355C123.196,43.018 123.295,42.654 123.375,42.268Z" style="fill:url(#_Linear2);"/>
            <g transform="matrix(0.738124,0.189867,-0.189867,0.738124,-100.209,6.37431)">
                <path d="M164.68,31.718C171.735,48.08 168.801,61.273 164.68,81.687C178.352,69.505 181.514,51.671 164.68,31.718Z" style="fill:#c39760;"/>
            </g>
            <g transform="matrix(0.738124,0.189867,-0.189867,0.738124,-100.209,6.37431)">
                <path d="M168.081,42.04C169.55,56.703 167.176,76.169 160.679,87.375L165.413,87.566C169.726,73.576 170.771,54.344 168.081,42.04Z" style="fill:#b89160;"/>
            </g>
            <g transform="matrix(0.645666,0.0474777,-0.0474777,0.645666,-74.7544,34.4699)">
                <path d="M164.68,31.718C172.895,52.65 168.458,64.9 164.68,81.687C178.352,69.505 181.514,51.671 164.68,31.718Z" style="fill:#c39760;"/>
            </g>
            <g transform="matrix(0.645666,0.0474777,-0.0474777,0.645666,-74.7544,34.4699)">
                <path d="M168.081,42.04C169.55,56.703 167.176,76.169 160.679,87.375L165.413,87.566C169.726,73.576 170.771,54.344 168.081,42.04Z" style="fill:#b89160;"/>
            </g>
            <g transform="matrix(0.55134,0.0213659,-0.0213659,0.55134,-43.4569,42.4901)">
                <path d="M164.68,31.718C172.713,51.95 167.885,68.496 164.68,81.687C178.352,69.505 181.514,51.671 164.68,31.718Z" style="fill:#c39760;"/>
            </g>
            <g transform="matrix(0.55134,0.0213659,-0.0213659,0.55134,-43.4569,42.4901)">
                <path d="M168.081,42.04C169.55,56.703 167.176,76.169 160.679,87.375L165.413,87.566C169.726,73.576 170.771,54.344 168.081,42.04Z" style="fill:#b89160;"/>
            </g>
            <g transform="matrix(0.55134,0.0213659,-0.0213659,0.55134,-26.321,35.7952)">
                <path d="M164.68,31.718C172.766,52.377 168.562,63.736 164.68,81.687C178.352,69.505 181.514,51.671 164.68,31.718Z" style="fill:#cfa570;"/>
            </g>
            <g transform="matrix(0.55134,0.0213659,-0.0213659,0.55134,-26.321,35.7952)">
                <path d="M168.081,42.04C169.55,56.703 167.176,76.169 160.679,87.375L165.413,87.566C169.726,73.576 170.771,54.344 168.081,42.04Z" style="fill:#b89160;"/>
            </g>
            <g transform="matrix(0.55134,0.0213659,-0.0213659,0.55134,-10.1315,27.0867)">
                <path d="M164.68,31.718C173.374,48.825 167.434,72.391 164.68,81.687C178.352,69.505 181.514,51.671 164.68,31.718Z" style="fill:#cfa570;"/>
            </g>
            <g transform="matrix(0.55134,0.0213659,-0.0213659,0.55134,-10.1315,27.0867)">
                <path d="M168.081,42.04C169.55,56.703 167.176,76.169 160.679,87.375L165.413,87.566C169.726,73.576 170.771,54.344 168.081,42.04Z" style="fill:#b89160;"/>
            </g>
            <g transform="matrix(0.480331,0.0186141,-0.0186141,0.480331,16.8005,24.5286)">
                <path d="M164.68,31.718C172.536,48.431 168.119,64.883 164.68,81.687C178.352,69.505 181.514,51.671 164.68,31.718Z" style="fill:#d9b485;"/>
            </g>
            <g transform="matrix(0.480331,0.0186141,-0.0186141,0.480331,16.8005,24.5286)">
                <path d="M168.081,42.04C169.55,56.703 167.176,76.169 160.679,87.375L165.413,87.566C169.726,73.576 170.771,54.344 168.081,42.04Z" style="fill:#b89160;"/>
            </g>
            <g transform="matrix(0.343617,-0.0135974,0.0135974,0.343617,49.9641,30.9193)">
                <path d="M164.68,31.718C173.435,51.44 166.843,65.917 164.68,81.687C178.352,69.505 181.514,51.671 164.68,31.718Z" style="fill:#d9b485;"/>
            </g>
            <g transform="matrix(0.343617,-0.0135974,0.0135974,0.343617,49.9641,30.9193)">
                <path d="M168.081,42.04C169.55,56.703 167.176,76.169 160.679,87.375L165.413,87.566C169.726,73.576 170.771,54.344 168.081,42.04Z" style="fill:#b89160;"/>
            </g>
            <g transform="matrix(0.25721,-0.0393069,0.0393069,0.25721,71.5732,34.1581)">
                <path d="M164.68,31.718C173.409,52.927 167.066,67.938 164.68,81.687C178.352,69.505 181.514,51.671 164.68,31.718Z" style="fill:#d9b485;"/>
            </g>
            <g transform="matrix(0.25721,-0.0393069,0.0393069,0.25721,71.5732,34.1581)">
                <path d="M168.081,42.04C169.55,56.703 167.176,76.169 160.679,87.375L165.413,87.566C169.726,73.576 170.771,54.344 168.081,42.04Z" style="fill:#b89160;"/>
            </g>
            <g transform="matrix(0.184321,-0.0281679,0.0281679,0.184321,90.9265,31.9712)">
                <path d="M164.68,31.718C172.787,50.977 168.211,63.426 164.68,81.687C178.352,69.505 181.514,51.671 164.68,31.718Z" style="fill:#d9b485;"/>
            </g>
            <g transform="matrix(0.184321,-0.0281679,0.0281679,0.184321,90.9265,31.9712)">
                <path d="M168.081,42.04C169.55,56.703 167.176,76.169 160.679,87.375L165.413,87.566C169.726,73.576 170.771,54.344 168.081,42.04Z" style="fill:#b89160;"/>
            </g>
            <g transform="matrix(-0.00467561,-0.186402,-0.186402,0.00467561,140.622,73.5737)">
                <path d="M164.68,31.718C170.607,42.489 169.523,63.136 164.68,81.687C178.352,69.505 181.514,51.671 164.68,31.718Z" style="fill:#d9b485;"/>
            </g>
            <g transform="matrix(-0.00467561,-0.186402,-0.186402,0.00467561,140.622,73.5737)">
                <path d="M168.081,42.04C169.55,56.703 167.176,76.169 160.679,87.375L165.413,87.566C169.726,73.576 170.771,54.344 168.081,42.04Z" style="fill:#b89160;"/>
            </g>
            <g transform="matrix(0.02747,-0.240615,-0.240615,-0.02747,133.901,92.3082)">
                <path d="M164.68,31.718C170.827,43.982 169.811,64.945 164.68,81.687C178.352,69.505 181.514,51.671 164.68,31.718Z" style="fill:#d9b485;"/>
            </g>
            <g transform="matrix(0.02747,-0.240615,-0.240615,-0.02747,133.901,92.3082)">
                <path d="M168.081,42.04C169.55,56.703 167.176,76.169 160.679,87.375L165.413,87.566C169.726,73.576 170.771,54.344 168.081,42.04Z" style="fill:#b89160;"/>
            </g>
            <g transform="matrix(0.0379071,-0.332035,-0.332035,-0.0379071,130.896,117.64)">
                <path d="M164.68,31.718C170.482,43.592 171.112,62.657 164.68,81.687C178.352,69.505 181.514,51.671 164.68,31.718Z" style="fill:#d9b485;"/>
            </g>
            <g transform="matrix(0.0379071,-0.332035,-0.332035,-0.0379071,130.896,117.64)">
                <path d="M168.081,42.04C169.55,56.703 167.176,76.169 160.679,87.375L165.413,87.566C169.726,73.576 170.771,54.344 168.081,42.04Z" style="fill:#b89160;"/>
            </g>
            <g transform="matrix(0.0869156,-0.422298,-0.393604,-0.0810099,115.064,147.824)">
                <path d="M164.68,31.718C168.976,40.17 171.539,61.405 164.68,81.687C178.352,69.505 181.514,51.671 164.68,31.718Z" style="fill:#d9b485;"/>
            </g>
            <g transform="matrix(0.0869156,-0.422298,-0.393604,-0.0810099,115.064,147.824)">
                <path d="M168.081,42.04C169.55,56.703 167.176,76.169 160.679,87.375L165.413,87.566C169.726,73.576 170.771,54.344 168.081,42.04Z" style="fill:#b89160;"/>
            </g>
            <g transform="matrix(0.147081,-0.471722,-0.42062,-0.131148,92.3394,171.118)">
                <path d="M164.68,31.718C169.813,43.441 170.92,59.662 164.68,81.687C178.352,69.505 181.514,51.671 164.68,31.718Z" style="fill:#cfa570;"/>
            </g>
            <g transform="matrix(0.147081,-0.471722,-0.42062,-0.131148,92.3394,171.118)">
                <path d="M168.081,42.04C169.55,56.703 167.176,76.169 160.679,87.375L165.413,87.566C169.726,73.576 170.771,54.344 168.081,42.04Z" style="fill:#b89160;"/>
            </g>
            <g transform="matrix(0.237474,-0.433313,-0.386372,-0.211749,59.1636,180.942)">
                <path d="M164.68,31.718C169.727,42.809 171.127,57.078 164.68,81.687C178.352,69.505 181.514,51.671 164.68,31.718Z" style="fill:#cfa570;"/>
            </g>
            <g transform="matrix(0.237474,-0.433313,-0.386372,-0.211749,59.1636,180.942)">
                <path d="M168.081,42.04C169.55,56.703 167.176,76.169 160.679,87.375L165.413,87.566C169.726,73.576 170.771,54.344 168.081,42.04Z" style="fill:#b89160;"/>
            </g>
            <g transform="matrix(0.283439,-0.404743,-0.360897,-0.252734,32.2749,187.544)">
                <path d="M164.68,31.718C168.983,43.728 172.418,58.919 164.68,81.687C178.352,69.505 181.514,51.671 164.68,31.718Z" style="fill:#c39760;"/>
            </g>
            <g transform="matrix(0.283439,-0.404743,-0.360897,-0.252734,32.2749,187.544)">
                <path d="M168.081,42.04C169.55,56.703 167.176,76.169 160.679,87.375L165.413,87.566C169.726,73.576 170.771,54.344 168.081,42.04Z" style="fill:#b89160;"/>
            </g>
            <g transform="matrix(0.438056,-0.414918,-0.363788,-0.384074,-11.1308,206.481)">
                <path d="M164.68,31.718C169.281,42.136 171.831,59.243 164.68,81.687C178.352,69.505 181.514,51.671 164.68,31.718Z" style="fill:#c39760;"/>
            </g>
            <g transform="matrix(0.438056,-0.414918,-0.363788,-0.384074,-11.1308,206.481)">
                <path d="M168.081,42.04C169.55,56.703 167.176,76.169 160.679,87.375L165.413,87.566C169.726,73.576 170.771,54.344 168.081,42.04Z" style="fill:#b89160;"/>
            </g>
            <g transform="matrix(0.663855,-0.402434,-0.327515,-0.540269,-72.8008,222.766)">
                <path d="M164.68,31.718C169.505,42.718 172.291,60.753 164.68,81.687C178.352,69.505 181.514,51.671 164.68,31.718Z" style="fill:#c39760;"/>
            </g>
            <g transform="matrix(0.663855,-0.402434,-0.327515,-0.540269,-72.8008,222.766)">
                <path d="M168.081,42.04C169.55,56.703 167.176,76.169 160.679,87.375L165.413,87.566C169.726,73.576 170.771,54.344 168.081,42.04Z" style="fill:#b89160;"/>
            </g>
            <path d="M0,99.725C50.897,97.53 98.845,72.153 130.034,35.694C94.847,83.504 50.131,105.107 0,111.818L0,99.725" style="fill:#a58053;"/>
            <path d="M116.084,52.116C81.598,86.741 51.445,100.745 12.706,107.953C9.769,108.5 9.769,101.943 12.531,101.311C48.432,96.298 87.639,79.73 116.084,52.116Z" style="fill:#c39760;"/>
            <g transform="matrix(0.719222,0,0,0.719222,10.2427,28.4582)">
                <path d="M118.205,57.635C83.438,85.973 51.914,97.93 12.706,107.953C9.812,108.693 9.769,101.943 12.531,101.311C48.432,96.298 84.415,81.541 118.205,57.635Z" style="fill:#d19e5f;"/>
            </g>
        </g>
    </g>
    <defs>
        <linearGradient id="_Linear1" x1="0" y1="0" x2="1" y2="0" gradientUnits="userSpaceOnUse" gradientTransform="matrix(-143.342,71.4269,-56.6149,-113.616,150,40.3913)"><stop offset="0" style="stop-color:#ddad71;stop-opacity:1"/><stop offset="1" style="stop-color:#a58053;stop-opacity:1"/></linearGradient>
        <linearGradient id="_Linear2" x1="0" y1="0" x2="1" y2="0" gradientUnits="userSpaceOnUse" gradientTransform="matrix(-143.342,71.4269,-56.6149,-113.616,150,40.3913)"><stop offset="0" style="stop-color:#ddad71;stop-opacity:1"/><stop offset="1" style="stop-color:#a58053;stop-opacity:1"/></linearGradient>
    </defs>
</svg>
