<?xml version="1.0" encoding="UTF-8" standalone="no"?>
<!DOCTYPE svg PUBLIC "-//W3C//DTD SVG 1.1//EN" "http://www.w3.org/Graphics/SVG/1.1/DTD/svg11.dtd">
<svg width="100%" height="100%" viewBox="0 0 300 345" version="1.1" xmlns="http://www.w3.org/2000/svg" xmlns:xlink="http://www.w3.org/1999/xlink" xml:space="preserve" xmlns:serif="http://www.serif.com/" style="fill-rule:evenodd;clip-rule:evenodd;stroke-linejoin:round;stroke-miterlimit:2;">
    <g id="avatar_hat_23">
        <path id="base_body_1" d="M36.38,298.39C16.301,298.39 0,282.089 0,262.01L0,81.38C0,61.301 16.301,45 36.38,45L263.62,45C283.699,45 300,61.301 300,81.38L300,262.01C300,282.089 283.699,298.39 263.62,298.39L36.38,298.39ZM47.209,98.104C27.13,98.104 10.829,114.405 10.829,134.484L10.829,206.609C10.829,226.688 28.157,236.651 47.209,242.989C65.716,249.146 78.556,252.051 94.101,255.127C105.734,257.268 112.991,253.917 117.1,244.565C117.577,243.481 119.854,240.716 123.5,240.03C129.874,238.832 139.952,240.704 150,240.749C159.502,240.791 168.977,238.943 175.269,240.03C179.333,240.733 182.395,243.417 182.9,244.565C187.009,253.917 194.266,257.268 205.899,255.127C221.444,252.051 234.284,249.146 252.791,242.989C271.843,236.651 289.171,226.688 289.171,206.609L289.171,134.484C289.171,114.405 272.87,98.104 252.791,98.104L47.209,98.104Z" style="fill:#556171;"/>
        <path id="base_body_11" serif:id="base_body_1" d="M11.337,212.353C14.322,228.65 30.068,237.287 47.209,242.989C65.716,249.146 78.556,252.051 94.101,255.127C98.702,255.974 102.618,255.962 105.927,255.058C102.288,257.712 97.989,259.887 93.024,261.578C83.83,264.402 76.971,264.8 72.477,262.743L57.992,259.142L24.611,248.163C10.321,243.192 2.374,233.054 0,218.374L0,212.353L11.337,212.353Z" style="fill:#354a66;"/>
        <g id="base_body_12" serif:id="base_body_1" transform="matrix(-1,0,0,1,300,0)">
            <path d="M11.337,212.353C14.322,228.65 30.068,237.287 47.209,242.989C65.716,249.146 78.556,252.051 94.101,255.127C98.702,255.974 102.618,255.962 105.927,255.058C102.288,257.712 97.989,259.887 93.024,261.578C83.83,264.402 76.971,264.8 72.477,262.743L57.992,259.142L24.611,248.163C10.321,243.192 2.374,233.054 0,218.374L0,212.353L11.337,212.353Z" style="fill:#354a66;"/>
        </g>
        <g transform="matrix(1,0,0,1.12641,0,187.885)">
            <rect x="119.312" y="45" width="62.924" height="53.104" style="fill:#d9d9d9;"/>
        </g>
        <g transform="matrix(1,0,0,1.12641,0,187.885)">
            <path d="M126.85,45L120.236,45L111.775,54.633L111.775,98.104L126.85,98.104L126.85,45ZM189.774,55.523L180.144,45L174.699,45L174.699,98.104L189.774,98.104L189.774,55.523Z" style="fill:#001025;"/>
        </g>
        <path id="base_body_13" serif:id="base_body_1" d="M0,220.771C2.845,229.822 7.687,237.492 15.079,243.402L15.028,291.46C5.923,284.844 0,274.113 0,262.01L0,220.771Z" style="fill:#2a394d;"/>
        <g id="base_body_14" serif:id="base_body_1" transform="matrix(-1,0,0,1,300,0)">
            <path d="M0,220.771C2.845,229.822 7.687,237.492 15.079,243.402L15.028,291.46C5.923,284.844 0,274.113 0,262.01L0,220.771Z" style="fill:#2a394d;"/>
        </g>
        <g transform="matrix(1,0,0,1.73417,0,-92.6134)">
            <rect x="0" y="125.197" width="13.902" height="50.142" style="fill:#2a394d;"/>
        </g>
        <g transform="matrix(1,0,0,1.73417,286.098,-92.6134)">
            <rect x="0" y="125.197" width="13.902" height="50.142" style="fill:#2a394d;"/>
        </g>
        <path d="M186.494,248.336C187.028,248.843 187.541,249.335 188.03,249.805C194.45,255.988 213.133,265.421 225.676,262.371C225.949,262.304 226.251,262.229 226.575,262.147C228.558,261.623 230.53,261.097 232.482,260.571C234.222,260.094 235.662,259.698 235.721,259.693C252.622,255.08 267.802,250.455 276.845,246.447C292.289,239.601 297.334,227.192 299.942,215.359C299.962,215.271 300,215.096 300,215.096L300,222.801C300,222.801 299.945,222.97 299.917,223.054C296.648,232.988 290.665,242.508 277.655,248.275C268.27,252.436 252.294,257.262 234.637,262.052C232.577,262.622 225.913,264.383 225.913,264.383L225.913,264.371C213.169,267.455 192.593,257.821 187.728,251.782C187.341,251.302 186.928,250.816 186.494,250.327L186.494,248.336Z" style="fill:#2a394d;"/>
        <g transform="matrix(-1,0,0,1,300,0)">
            <path d="M186.494,248.336C187.028,248.843 187.541,249.335 188.03,249.805C194.45,255.988 213.133,265.421 225.676,262.371C225.949,262.304 226.251,262.229 226.575,262.147C228.558,261.623 230.53,261.097 232.482,260.571C234.222,260.094 235.662,259.698 235.721,259.693C252.622,255.08 267.802,250.455 276.845,246.447C292.289,239.601 297.334,227.192 299.942,215.359C299.962,215.271 300,215.096 300,215.096L300,222.801C300,222.801 299.945,222.97 299.917,223.054C296.648,232.988 290.665,242.508 277.655,248.275C268.27,252.436 252.294,257.262 234.637,262.052C232.577,262.622 225.913,264.383 225.913,264.383L225.913,264.371C213.169,267.455 192.593,257.821 187.728,251.782C187.341,251.302 186.928,250.816 186.494,250.327L186.494,248.336Z" style="fill:#2a394d;"/>
        </g>
        <path d="M13.902,210.448L0,210.448L-0,212.448L13.902,212.448L13.902,210.448ZM13.902,122.982L-0,122.982L0,124.982L13.902,124.982L13.902,122.982Z" style="fill:#2a394d;"/>
        <g transform="matrix(1,0,0,1,286.098,0)">
            <path d="M13.902,210.448L0,210.448L-0,212.448L13.902,212.448L13.902,210.448ZM13.902,122.982L-0,122.982L0,124.982L13.902,124.982L13.902,122.982Z" style="fill:#2a394d;"/>
        </g>
        <path d="M47.209,98.104C27.13,98.104 10.829,114.405 10.829,134.484L10.829,206.609C10.829,226.688 28.157,236.651 47.209,242.989C65.716,249.146 78.556,252.051 94.101,255.127C105.734,257.268 112.991,253.917 117.1,244.565C118.008,242.499 119.599,238.929 123.242,238.266C129.535,237.122 171.877,237.316 177.146,238.519C180.548,239.295 182.03,242.586 182.9,244.565C187.009,253.917 194.266,257.268 205.899,255.127C221.444,252.051 234.284,249.146 252.791,242.989C271.843,236.651 289.171,226.688 289.171,206.609L289.171,134.484C289.171,114.405 272.87,98.104 252.791,98.104L47.209,98.104Z" style="fill:#3b3b3b;fill-opacity:0.5;"/>
        <path d="M288.17,125.984L77.748,251.659C83.111,252.903 88.426,254.004 94.101,255.127C105.734,257.268 112.991,253.917 117.1,244.565C117.708,243.182 118.613,239.64 123.408,239.226C145.738,237.299 167.664,238.028 176.434,238.063L289.171,170.731L289.171,134.484C289.171,131.556 288.825,128.709 288.17,125.984ZM186.358,250.198C187.709,251.759 189.257,252.985 191.016,253.884L289.171,195.261L289.171,188.793L186.358,250.198ZM203.712,98.104L11.449,212.933C14.586,228.309 29.218,236.763 45.473,242.4L274.735,105.474C268.632,100.848 261.029,98.104 252.791,98.104L203.712,98.104Z" style="fill:#8e8e8e;fill-opacity:0.5;"/>
        <path d="M117.1,244.565C117.56,243.52 119.504,241.167 122.936,240.492C129.596,239.183 139.769,240.983 150.474,240.993C159.711,241.002 169.54,239.026 175.533,240.308C179.305,241.115 182.419,243.472 182.9,244.565C187.009,253.917 194.266,257.268 205.899,255.127C221.444,252.051 234.284,249.146 252.791,242.989C271.843,236.651 289.171,226.688 289.171,206.609L289.171,134.484C289.171,114.405 272.87,98.104 252.791,98.104L47.209,98.104C27.13,98.104 10.829,114.405 10.829,134.484L10.829,206.609C10.829,226.688 28.157,236.651 47.209,242.989C65.716,249.146 78.556,252.051 94.101,255.127C105.734,257.268 112.991,253.917 117.1,244.565ZM176.814,235.927C170.654,234.419 162.408,236.162 150.31,236.152C138.254,236.142 128.974,234.592 122.734,236.224C118.815,237.249 114.733,240.009 113.438,242.956C111.834,246.607 109.704,249.164 106.751,250.522C103.612,251.965 99.686,252.083 94.863,251.2C79.479,248.155 66.775,245.283 48.472,239.194C31.128,233.424 14.829,224.887 14.829,206.609C14.829,206.609 14.829,134.484 14.829,134.484C14.829,116.613 29.338,102.104 47.209,102.104L252.791,102.104C270.662,102.104 285.171,116.613 285.171,134.484C285.171,134.484 285.171,206.609 285.171,206.609C285.171,224.887 268.872,233.424 251.528,239.194C233.225,245.283 220.521,248.155 205.15,251.197C200.321,252.084 196.391,251.967 193.249,250.522C190.296,249.164 188.166,246.607 186.562,242.956C185.276,240.029 182.18,237.24 176.814,235.927Z"/>
        <path d="M19.897,112.281C107.955,151.792 192.992,151.792 281.05,112.281L271.829,104.563L29.741,104.563L19.897,112.281Z" style="fill:#0e0e0e;"/>
        <path d="M12.603,123.239L287.397,123.239C282.656,108.657 268.946,98.104 252.791,98.104L47.209,98.104C31.054,98.104 17.344,108.657 12.603,123.239Z"/>
        <g>
            <g transform="matrix(0.544982,-0.314646,0.314646,0.544982,-54.2251,83.2319)">
                <path d="M101.613,103.736L107.356,107.052L107.356,113.684L101.613,117L95.869,113.684L95.869,107.052L101.613,103.736Z" style="fill:#8c8c8c;"/>
            </g>
            <g transform="matrix(0.544982,-0.314646,0.314646,0.544982,-54.2251,83.2319)">
                <path d="M102.407,102.36C101.916,102.076 101.31,102.076 100.818,102.36L95.075,105.676C94.583,105.96 94.28,106.484 94.28,107.052L94.28,113.684C94.28,114.252 94.583,114.776 95.075,115.06L100.818,118.376C101.31,118.66 101.916,118.66 102.407,118.376L108.151,115.06C108.642,114.776 108.945,114.252 108.945,113.684L108.945,107.052C108.945,106.484 108.642,105.96 108.151,105.676L102.407,102.36ZM101.613,103.736L107.356,107.052L107.356,113.684L101.613,117L95.869,113.684L95.869,107.052L101.613,103.736Z" style="fill:#5f5f5f;"/>
            </g>
            <g transform="matrix(0.544982,-0.314646,0.314646,0.544982,-11.1385,83.2319)">
                <path d="M101.613,103.736L107.356,107.052L107.356,113.684L101.613,117L95.869,113.684L95.869,107.052L101.613,103.736Z" style="fill:#8c8c8c;"/>
            </g>
            <g transform="matrix(0.544982,-0.314646,0.314646,0.544982,-11.1385,83.2319)">
                <path d="M102.407,102.36C101.916,102.076 101.31,102.076 100.818,102.36L95.075,105.676C94.583,105.96 94.28,106.484 94.28,107.052L94.28,113.684C94.28,114.252 94.583,114.776 95.075,115.06L100.818,118.376C101.31,118.66 101.916,118.66 102.407,118.376L108.151,115.06C108.642,114.776 108.945,114.252 108.945,113.684L108.945,107.052C108.945,106.484 108.642,105.96 108.151,105.676L102.407,102.36ZM101.613,103.736L107.356,107.052L107.356,113.684L101.613,117L95.869,113.684L95.869,107.052L101.613,103.736Z" style="fill:#5f5f5f;"/>
            </g>
            <g transform="matrix(0.544982,-0.314646,0.314646,0.544982,38.5004,83.2319)">
                <path d="M101.613,103.736L107.356,107.052L107.356,113.684L101.613,117L95.869,113.684L95.869,107.052L101.613,103.736Z" style="fill:#8c8c8c;"/>
            </g>
            <g transform="matrix(0.544982,-0.314646,0.314646,0.544982,38.5004,83.2319)">
                <path d="M102.407,102.36C101.916,102.076 101.31,102.076 100.818,102.36L95.075,105.676C94.583,105.96 94.28,106.484 94.28,107.052L94.28,113.684C94.28,114.252 94.583,114.776 95.075,115.06L100.818,118.376C101.31,118.66 101.916,118.66 102.407,118.376L108.151,115.06C108.642,114.776 108.945,114.252 108.945,113.684L108.945,107.052C108.945,106.484 108.642,105.96 108.151,105.676L102.407,102.36ZM101.613,103.736L107.356,107.052L107.356,113.684L101.613,117L95.869,113.684L95.869,107.052L101.613,103.736Z" style="fill:#5f5f5f;"/>
            </g>
            <g transform="matrix(0.544982,-0.314646,0.314646,0.544982,84.4692,83.2319)">
                <path d="M101.613,103.736L107.356,107.052L107.356,113.684L101.613,117L95.869,113.684L95.869,107.052L101.613,103.736Z" style="fill:#8c8c8c;"/>
            </g>
            <g transform="matrix(0.544982,-0.314646,0.314646,0.544982,84.4692,83.2319)">
                <path d="M102.407,102.36C101.916,102.076 101.31,102.076 100.818,102.36L95.075,105.676C94.583,105.96 94.28,106.484 94.28,107.052L94.28,113.684C94.28,114.252 94.583,114.776 95.075,115.06L100.818,118.376C101.31,118.66 101.916,118.66 102.407,118.376L108.151,115.06C108.642,114.776 108.945,114.252 108.945,113.684L108.945,107.052C108.945,106.484 108.642,105.96 108.151,105.676L102.407,102.36ZM101.613,103.736L107.356,107.052L107.356,113.684L101.613,117L95.869,113.684L95.869,107.052L101.613,103.736Z" style="fill:#5f5f5f;"/>
            </g>
            <g transform="matrix(0.544982,-0.314646,0.314646,0.544982,131.316,83.2319)">
                <path d="M101.613,103.736L107.356,107.052L107.356,113.684L101.613,117L95.869,113.684L95.869,107.052L101.613,103.736Z" style="fill:#8c8c8c;"/>
            </g>
            <g transform="matrix(0.544982,-0.314646,0.314646,0.544982,131.316,83.2319)">
                <path d="M102.407,102.36C101.916,102.076 101.31,102.076 100.818,102.36L95.075,105.676C94.583,105.96 94.28,106.484 94.28,107.052L94.28,113.684C94.28,114.252 94.583,114.776 95.075,115.06L100.818,118.376C101.31,118.66 101.916,118.66 102.407,118.376L108.151,115.06C108.642,114.776 108.945,114.252 108.945,113.684L108.945,107.052C108.945,106.484 108.642,105.96 108.151,105.676L102.407,102.36ZM101.613,103.736L107.356,107.052L107.356,113.684L101.613,117L95.869,113.684L95.869,107.052L101.613,103.736Z" style="fill:#5f5f5f;"/>
            </g>
            <g transform="matrix(0.544982,-0.314646,0.314646,0.544982,177.232,83.2319)">
                <path d="M101.613,103.736L107.356,107.052L107.356,113.684L101.613,117L95.869,113.684L95.869,107.052L101.613,103.736Z" style="fill:#8c8c8c;"/>
            </g>
            <g transform="matrix(0.544982,-0.314646,0.314646,0.544982,177.232,83.2319)">
                <path d="M102.407,102.36C101.916,102.076 101.31,102.076 100.818,102.36L95.075,105.676C94.583,105.96 94.28,106.484 94.28,107.052L94.28,113.684C94.28,114.252 94.583,114.776 95.075,115.06L100.818,118.376C101.31,118.66 101.916,118.66 102.407,118.376L108.151,115.06C108.642,114.776 108.945,114.252 108.945,113.684L108.945,107.052C108.945,106.484 108.642,105.96 108.151,105.676L102.407,102.36ZM101.613,103.736L107.356,107.052L107.356,113.684L101.613,117L95.869,113.684L95.869,107.052L101.613,103.736Z" style="fill:#5f5f5f;"/>
            </g>
        </g>
        <rect x="119.312" y="45" width="62.924" height="53.104" style="fill:#d9d9d9;"/>
        <path d="M126.85,45L111.775,45L111.775,98.104L126.85,98.104L126.85,45ZM189.774,45L174.699,45L174.699,98.104L189.774,98.104L189.774,45Z" style="fill:#001025;"/>
    </g>
</svg>
