<?xml version="1.0" encoding="UTF-8" standalone="no"?>
<!DOCTYPE svg PUBLIC "-//W3C//DTD SVG 1.1//EN" "http://www.w3.org/Graphics/SVG/1.1/DTD/svg11.dtd">
<svg width="100%" height="100%" viewBox="0 0 300 345" version="1.1" xmlns="http://www.w3.org/2000/svg" xmlns:xlink="http://www.w3.org/1999/xlink" xml:space="preserve" xmlns:serif="http://www.serif.com/" style="fill-rule:evenodd;clip-rule:evenodd;stroke-linejoin:round;stroke-miterlimit:2;">
    <g id="avatar_hat_37">
        <path d="M36.38,45C34.484,38.323 34.95,35.094 37.358,28.582C79.718,37.081 115.374,42.017 150,43.342C184.626,42.017 220.282,37.081 262.642,28.582C265.05,35.094 265.516,38.323 263.62,45L36.38,45Z" style="fill:#532918;"/>
        <path d="M150,36.179C185.741,35.686 221.115,33.176 262.642,28.582C262.642,64.23 232.843,99.367 150,99.367C67.157,99.367 37.358,64.23 37.358,28.582C78.885,33.176 114.259,35.686 150,36.179Z" style="fill:#cd7435;"/>
        <path d="M84.24,45L86.826,34.515C89.996,21.659 109.78,1.116 118.966,0L128.515,0C131.535,0.367 144.321,6.609 150,6.439L150.134,6.442C155.878,6.512 168.488,0.364 171.485,0L181.034,0C190.22,1.116 210.004,21.659 213.174,34.515L215.76,45L84.24,45Z" style="fill:#e37e36;fill-rule:nonzero;"/>
        <path d="M88.274,30.397C103.099,39.524 126.541,45 150,45C173.459,45 197.222,38.402 211.726,30.397C212.36,31.829 212.852,33.211 213.174,34.515L215.76,45C211.803,67.847 95.011,71.455 84.24,45L86.826,34.515C87.148,33.211 87.64,31.829 88.274,30.397Z" style="fill:#90562e;fill-rule:nonzero;"/>
        <path d="M130.16,6.736C134.553,14.207 138.737,19.245 142.698,22.057C145.488,24.039 148.192,24.942 150.799,24.875C154.05,24.79 157.185,23.192 160.176,20.108C163.015,17.182 165.747,12.891 168.367,7.324C168.602,6.825 168.387,6.229 167.888,5.994C167.389,5.758 166.792,5.973 166.557,6.472C164.051,11.798 161.456,15.916 158.741,18.716C156.178,21.358 153.532,22.803 150.747,22.875C147.942,22.948 145.039,21.635 141.984,18.933C138.758,16.079 135.402,11.704 131.884,5.722C131.605,5.246 130.991,5.087 130.516,5.367C130.04,5.646 129.881,6.26 130.16,6.736Z" style="fill:#b26128;fill-opacity:0.5;"/>
        <path d="M142.598,96.144C145.286,96.265 147.981,96.331 150.676,96.342C151.78,96.347 152.68,95.455 152.685,94.351C152.689,93.247 151.797,92.347 150.693,92.342C148.052,92.331 145.411,92.266 142.777,92.148C141.674,92.099 140.739,92.954 140.69,94.057C140.64,95.159 141.495,96.095 142.598,96.144ZM158.757,96.211C161.455,96.112 164.147,95.956 166.827,95.744C167.927,95.657 168.75,94.693 168.663,93.593C168.576,92.492 167.611,91.67 166.511,91.757C163.888,91.964 161.252,92.116 158.609,92.214C157.506,92.254 156.644,93.183 156.684,94.286C156.725,95.389 157.653,96.252 158.757,96.211ZM126.498,94.762C129.158,95.102 131.839,95.388 134.534,95.619C135.634,95.713 136.604,94.896 136.698,93.797C136.792,92.697 135.976,91.727 134.876,91.633C132.236,91.407 129.61,91.127 127.004,90.795C125.909,90.655 124.907,91.43 124.767,92.525C124.627,93.62 125.403,94.623 126.498,94.762ZM174.873,94.931C177.564,94.599 180.235,94.207 182.879,93.756C183.967,93.57 184.699,92.536 184.514,91.448C184.328,90.36 183.294,89.627 182.206,89.813C179.622,90.254 177.012,90.636 174.383,90.961C173.287,91.096 172.507,92.096 172.643,93.191C172.778,94.287 173.777,95.066 174.873,94.931ZM110.56,92.023C113.174,92.594 115.823,93.109 118.501,93.568C119.589,93.755 120.624,93.023 120.81,91.935C120.997,90.847 120.265,89.812 119.177,89.626C116.559,89.177 113.968,88.673 111.413,88.116C110.335,87.88 109.268,88.565 109.033,89.643C108.798,90.721 109.482,91.788 110.56,92.023ZM190.826,92.198C193.486,91.606 196.11,90.951 198.69,90.23C199.753,89.933 200.375,88.829 200.078,87.766C199.781,86.703 198.677,86.081 197.614,86.378C195.102,87.079 192.548,87.717 189.958,88.293C188.88,88.532 188.2,89.602 188.439,90.679C188.679,91.757 189.748,92.437 190.826,92.198ZM94.926,87.8C97.463,88.628 100.055,89.398 102.694,90.109C103.76,90.396 104.859,89.764 105.146,88.698C105.433,87.633 104.801,86.534 103.735,86.247C101.164,85.554 98.639,84.804 96.168,83.998C95.118,83.655 93.988,84.229 93.646,85.278C93.303,86.327 93.877,87.457 94.926,87.8ZM206.441,87.82C209.033,86.928 211.568,85.964 214.039,84.927C215.057,84.5 215.536,83.327 215.109,82.309C214.682,81.291 213.509,80.811 212.491,81.239C210.101,82.242 207.647,83.174 205.139,84.038C204.095,84.397 203.539,85.536 203.899,86.58C204.258,87.623 205.397,88.179 206.441,87.82ZM79.818,81.849C82.229,82.984 84.722,84.055 87.287,85.062C88.314,85.465 89.476,84.958 89.879,83.93C90.282,82.903 89.775,81.741 88.748,81.338C86.266,80.364 83.854,79.328 81.521,78.23C80.522,77.76 79.33,78.189 78.86,79.188C78.39,80.187 78.819,81.379 79.818,81.849ZM221.431,81.504C223.889,80.252 226.265,78.917 228.548,77.5C229.486,76.918 229.774,75.684 229.192,74.746C228.61,73.808 227.376,73.52 226.438,74.102C224.249,75.46 221.971,76.74 219.615,77.941C218.631,78.442 218.24,79.647 218.741,80.631C219.242,81.614 220.448,82.006 221.431,81.504ZM65.648,73.766C67.841,75.285 70.155,76.733 72.577,78.107C73.537,78.652 74.759,78.315 75.303,77.355C75.848,76.395 75.511,75.173 74.551,74.628C72.235,73.314 70.023,71.931 67.926,70.478C67.019,69.849 65.772,70.075 65.143,70.983C64.514,71.89 64.74,73.137 65.648,73.766ZM235.295,72.861C237.499,71.18 239.589,69.407 241.552,67.539C242.352,66.778 242.384,65.511 241.623,64.712C240.862,63.912 239.595,63.88 238.795,64.641C236.936,66.41 234.957,68.089 232.87,69.68C231.992,70.349 231.823,71.605 232.492,72.483C233.161,73.361 234.417,73.53 235.295,72.861ZM53.266,62.954C55.055,64.968 57.022,66.898 59.152,68.742C59.986,69.465 61.25,69.374 61.973,68.54C62.696,67.706 62.605,66.442 61.771,65.719C59.776,63.991 57.932,62.184 56.256,60.297C55.523,59.472 54.258,59.397 53.433,60.13C52.607,60.864 52.533,62.129 53.266,62.954ZM247.17,61.511C248.925,59.374 250.533,57.135 251.98,54.793C252.56,53.853 252.269,52.62 251.329,52.04C250.39,51.46 249.157,51.751 248.577,52.69C247.224,54.88 245.72,56.974 244.079,58.971C243.378,59.824 243.502,61.086 244.355,61.786C245.208,62.487 246.469,62.364 247.17,61.511ZM44.385,48.93C45.428,51.495 46.719,53.966 48.239,56.342C48.834,57.272 50.072,57.544 51.002,56.949C51.932,56.354 52.203,55.116 51.609,54.186C50.222,52.018 49.042,49.764 48.09,47.423C47.674,46.401 46.506,45.908 45.484,46.324C44.461,46.74 43.969,47.908 44.385,48.93ZM255.823,47.462C256.915,44.962 257.84,42.362 258.585,39.659C258.879,38.595 258.254,37.493 257.19,37.199C256.126,36.906 255.023,37.531 254.73,38.595C254.035,41.112 253.174,43.534 252.157,45.862C251.715,46.873 252.178,48.053 253.19,48.495C254.201,48.937 255.381,48.474 255.823,47.462ZM41.262,32.546C41.24,35.414 41.494,38.197 42.006,40.891C42.212,41.976 43.26,42.689 44.345,42.483C45.429,42.277 46.142,41.229 45.936,40.145C45.472,37.701 45.242,35.179 45.262,32.578C45.271,31.475 44.382,30.571 43.278,30.563C42.175,30.554 41.271,31.443 41.262,32.546Z" style="fill:#b26128;"/>
    </g>
</svg>
