<?xml version="1.0" encoding="UTF-8" standalone="no"?>
<!DOCTYPE svg PUBLIC "-//W3C//DTD SVG 1.1//EN" "http://www.w3.org/Graphics/SVG/1.1/DTD/svg11.dtd">
<svg width="100%" height="100%" viewBox="0 0 300 345" version="1.1" xmlns="http://www.w3.org/2000/svg" xmlns:xlink="http://www.w3.org/1999/xlink" xml:space="preserve" xmlns:serif="http://www.serif.com/" style="fill-rule:evenodd;clip-rule:evenodd;stroke-linejoin:round;stroke-miterlimit:2;">
    <g id="avatar_hat_36">
        <g>
            <path id="base_body_1" d="M53.225,115.46C49.551,115.717 46.265,116.943 43.405,119.234L17.036,144.652C14.549,147.285 13.09,150.313 13.247,153.963L13.247,218.524L21.221,243.292C22.167,245.626 21.411,253.527 18.929,255.562L0,266.643L0,81.38L300,81.38L300,266.643L281.071,255.562C278.589,253.527 277.833,245.626 278.779,243.292L286.753,218.524L286.753,153.963C286.91,150.313 285.451,147.285 282.964,144.652L256.595,119.234C253.735,116.943 250.449,115.717 246.775,115.46L53.225,115.46Z" style="fill:#155300;"/>
            <path id="base_body_11" serif:id="base_body_1" d="M51.941,111.636C48.268,111.893 44.982,113.12 42.121,115.41L12.88,144.652C10.393,147.285 8.934,150.313 9.091,153.963L9.091,218.524L17.065,243.292C18.011,245.626 17.626,251.543 15.143,253.578L0,263.701L0,81.38C0,61.301 16.301,45 36.38,45L263.62,45C283.699,45 300,61.301 300,81.38L300,263.701L284.857,253.578C282.374,251.543 281.989,245.626 282.935,243.292L290.909,218.524L290.909,153.963C291.066,150.313 289.607,147.285 287.12,144.652L257.879,115.41C255.018,113.12 251.732,111.893 248.059,111.636L51.941,111.636Z" style="fill:#2caa00;"/>
        </g>
        <g>
            <g>
                <g transform="matrix(1,0,0,5.86972,0,-189.16)">
                    <rect x="106.209" y="38.844" width="5.638" height="8.874" style="fill:#2f2f2f;"/>
                </g>
                <g transform="matrix(1,0,0,5.86972,0,-189.16)">
                    <path d="M111.847,38.695L110.384,38.844L107.646,38.844L106.209,38.695L106.209,47.719L111.847,47.719L111.847,38.695ZM110.347,39.013L110.347,47.463C110.347,47.463 107.709,47.463 107.709,47.463C107.709,47.463 107.709,39.013 107.709,39.013L110.347,39.013Z" style="fill:#b4b2b2;"/>
                </g>
            </g>
            <g transform="matrix(1,0,0,1,82.5371,0)">
                <g transform="matrix(1,0,0,5.86972,0,-189.16)">
                    <rect x="106.209" y="38.844" width="5.638" height="8.874" style="fill:#2f2f2f;"/>
                </g>
                <g transform="matrix(1,0,0,5.86972,0,-189.16)">
                    <path d="M111.847,38.695L110.384,38.844L107.646,38.844L106.209,38.695L106.209,47.719L111.847,47.719L111.847,38.695ZM110.347,39.013L110.347,47.463C110.347,47.463 107.709,47.463 107.709,47.463C107.709,47.463 107.709,39.013 107.709,39.013L110.347,39.013Z" style="fill:#b4b2b2;"/>
                </g>
            </g>
            <path d="M189.418,37.698L189.418,90.136L193.719,90.136L193.719,37.698L198.362,37.698C203.017,37.698 206.796,41.477 206.796,46.132L206.796,111.636L93.775,111.636L93.775,46.132C93.775,41.477 97.554,37.698 102.21,37.698L106.853,37.698L106.853,90.136L111.154,90.136L111.154,37.698L189.418,37.698Z" style="fill:#fff;"/>
            <path d="M122.77,34.491L177.078,34.491L180.284,37.698L180.284,111.636L119.563,111.636L119.563,37.698L122.77,34.491Z" style="fill:#fff;"/>
            <path d="M123.464,34.491L122.77,34.491L120.464,36.797L120.464,93.545C120.464,98.141 124.196,101.873 128.792,101.873C128.792,101.873 171.66,101.873 171.66,101.873C176.256,101.873 179.988,98.141 179.988,93.545L179.988,37.401L177.078,34.491L176.988,34.491L176.988,93.545C176.988,96.485 174.601,98.873 171.66,98.873L128.792,98.873C125.852,98.873 123.464,96.485 123.464,93.545L123.464,34.491Z" style="fill:#e9e9e9;"/>
            <path d="M176.988,34.491L176.988,93.545C176.988,96.485 174.601,98.873 171.66,98.873L128.792,98.873C125.852,98.873 123.464,96.485 123.464,93.545L123.464,34.491L124.964,34.491L124.964,93.545C124.964,95.657 126.679,97.373 128.792,97.373L171.66,97.373C173.773,97.373 175.488,95.657 175.488,93.545L175.488,34.491L176.988,34.491Z" style="fill:#b4b2b2;"/>
        </g>
        <g transform="matrix(1,0,0,1,-1.62909,0)">
            <path d="M244.064,97.871L220.861,74.667C216.592,74.667 213.126,78.133 213.126,82.402L213.126,97.871C213.126,102.139 216.592,105.605 220.861,105.605L236.33,105.605C240.599,105.605 244.064,102.139 244.064,97.871Z" style="fill:#dadada;"/>
            <g transform="matrix(0.767993,0,0,0.767993,52.4485,21.9889)">
                <path d="M244.064,97.871L220.861,74.667C216.592,74.667 213.126,78.133 213.126,82.402L213.126,97.871C213.126,102.139 216.592,105.605 220.861,105.605L236.33,105.605C240.599,105.605 244.064,102.139 244.064,97.871Z" style="fill:#2f2f2f;"/>
            </g>
            <g transform="matrix(0.767993,0,0,0.767993,52.4485,21.9889)">
                <path d="M244.064,97.871L220.861,74.667C216.592,74.667 213.126,78.133 213.126,82.402L213.126,97.871C213.126,102.139 216.592,105.605 220.861,105.605L236.33,105.605C240.599,105.605 244.064,102.139 244.064,97.871ZM241.365,98.855C240.906,101.216 238.824,103.001 236.33,103.001C236.33,103.001 220.861,103.001 220.861,103.001C218.029,103.001 215.73,100.702 215.73,97.871L215.73,82.402C215.73,79.907 217.515,77.826 219.876,77.366C219.877,77.366 241.366,98.855 241.366,98.855L241.365,98.855Z" style="fill:#b4b2b2;"/>
            </g>
        </g>
        <g transform="matrix(-1,0,0,1,301.629,0)">
            <path d="M244.064,97.871L220.861,74.667C216.592,74.667 213.126,78.133 213.126,82.402L213.126,97.871C213.126,102.139 216.592,105.605 220.861,105.605L236.33,105.605C240.599,105.605 244.064,102.139 244.064,97.871Z" style="fill:#dadada;"/>
            <g transform="matrix(0.767993,0,0,0.767993,52.4485,21.9889)">
                <path d="M244.064,97.871L220.861,74.667C216.592,74.667 213.126,78.133 213.126,82.402L213.126,97.871C213.126,102.139 216.592,105.605 220.861,105.605L236.33,105.605C240.599,105.605 244.064,102.139 244.064,97.871Z" style="fill:#2f2f2f;"/>
            </g>
            <g transform="matrix(0.767993,0,0,0.767993,52.4485,21.9889)">
                <path d="M244.064,97.871L220.861,74.667C216.592,74.667 213.126,78.133 213.126,82.402L213.126,97.871C213.126,102.139 216.592,105.605 220.861,105.605L236.33,105.605C240.599,105.605 244.064,102.139 244.064,97.871ZM241.365,98.855C240.906,101.216 238.824,103.001 236.33,103.001C236.33,103.001 220.861,103.001 220.861,103.001C218.029,103.001 215.73,100.702 215.73,97.871L215.73,82.402C215.73,79.907 217.515,77.826 219.876,77.366C219.877,77.366 241.366,98.855 241.366,98.855L241.365,98.855Z" style="fill:#b4b2b2;"/>
            </g>
        </g>
        <g transform="matrix(-1,1.22465e-16,-1.22465e-16,-1,513.126,214.584)">
            <path d="M220.862,102.821L237.869,95.059L213.126,66.933L213.126,98.431C213.126,102.7 216.683,104.848 220.862,102.821Z" style="fill:#bababa;"/>
        </g>
        <g transform="matrix(1,1.22465e-16,1.22465e-16,-1,-213.126,214.584)">
            <path d="M220.862,102.821L237.869,95.059L213.126,66.933L213.126,98.431C213.126,102.7 216.683,104.848 220.862,102.821Z" style="fill:#bababa;"/>
        </g>
        <path d="M107.839,301.093C75.069,301.368 43.936,291.148 24.056,277.259C10.145,267.54 1.751,255.903 1.35,244.818C1.349,244.782 1.349,244.745 1.349,244.709L1.349,115.049C1.349,113.835 2.079,112.742 3.2,112.277C4.322,111.813 5.612,112.07 6.47,112.928L16.01,122.467C19.186,125.336 23.688,127.207 30.829,127.331L150.071,127.331L269.314,127.331C276.454,127.207 280.957,125.336 284.133,122.467L293.673,112.928C294.531,112.07 295.821,111.813 296.942,112.277C298.063,112.742 298.794,113.835 298.794,115.049L298.794,244.709C298.794,244.745 298.794,244.782 298.792,244.818C298.392,255.903 289.998,267.54 276.086,277.259C256.206,291.148 225.074,301.368 192.304,301.093L107.839,301.093ZM227.086,272.297L73.2,272.297C73.31,274.429 73.453,276.365 73.636,278.131C74.334,284.867 75.526,288.908 77.798,291.823C77.951,292.019 78.075,292.227 78.172,292.444C87.677,294.224 97.659,295.179 107.802,295.093C107.81,295.093 107.819,295.093 107.827,295.093L192.316,295.093C192.324,295.093 192.333,295.093 192.341,295.093C202.537,295.18 212.571,294.214 222.127,292.415C222.222,292.208 222.342,292.01 222.488,291.823C224.76,288.908 225.952,284.867 226.65,278.131C226.832,276.365 226.976,274.429 227.086,272.297ZM17.312,130.515C15.215,129.498 13.452,128.253 11.921,126.859C11.886,126.827 11.852,126.795 11.819,126.762L7.349,122.292C7.349,122.292 7.349,244.653 7.349,244.653C7.722,254.234 15.47,263.941 27.493,272.341C38.673,280.152 53.576,286.723 70.329,290.765C69.45,288.654 68.76,286.153 68.246,283.093C67.748,280.128 67.411,276.59 67.199,272.297L63.861,272.297C50.793,272.285 36.641,263.682 31.45,257.11C22.248,245.617 17.567,233.052 16.649,219.488C16.637,219.316 16.64,219.146 16.657,218.98C16.642,218.687 16.636,218.394 16.639,218.1L17.369,157.38L17.289,130.895C17.289,130.779 17.296,130.665 17.308,130.55L17.312,130.515ZM229.972,290.727C246.663,286.68 261.506,280.126 272.65,272.341C284.673,263.941 292.421,254.234 292.794,244.653C292.794,244.653 292.794,122.292 292.794,122.292L288.324,126.762C288.291,126.795 288.257,126.827 288.222,126.859C286.688,128.256 284.921,129.503 282.819,130.52C282.834,130.637 282.841,130.756 282.841,130.876L282.924,157.932C282.924,157.945 282.924,157.958 282.923,157.972L283.647,218.1C283.65,218.387 283.645,218.673 283.63,218.957C283.649,219.13 283.653,219.308 283.641,219.488C282.723,233.052 278.041,245.617 268.84,257.11C263.648,263.682 249.496,272.285 236.429,272.297L233.087,272.297C232.875,276.59 232.538,280.128 232.04,283.093C231.529,286.134 230.844,288.623 229.972,290.727ZM24.959,232.248C27.141,239.669 30.811,246.713 36.137,253.365C36.142,253.371 36.147,253.377 36.151,253.383C40.581,259 52.717,266.297 63.889,266.297C63.925,266.297 63.961,266.298 63.997,266.299L66.993,266.299C66.874,260.9 66.887,254.521 66.988,246.931C50.411,243.845 36.777,239.649 28.117,234.381C26.983,233.691 25.93,232.979 24.959,232.248ZM227.311,247.977C216.064,249.82 203.668,251.187 190.689,252.07C177.572,252.962 163.859,253.369 150.143,253.294C136.427,253.369 122.713,252.962 109.597,252.07C96.618,251.187 84.222,249.82 72.975,247.977C72.885,255.142 72.874,261.178 72.987,266.299L227.299,266.299C227.412,261.177 227.401,255.141 227.311,247.977ZM275.332,232.244C273.149,239.666 269.479,246.712 264.152,253.365C264.147,253.371 264.143,253.377 264.138,253.383C259.709,259 247.572,266.297 236.4,266.297C236.364,266.297 236.328,266.298 236.292,266.299L233.293,266.299C233.411,260.898 233.398,254.519 233.298,246.931C249.875,243.845 263.509,239.649 272.168,234.381C273.304,233.69 274.359,232.977 275.332,232.244ZM23.353,158.821L22.639,218.169C22.607,220.858 23.96,223.274 26.279,225.526C29.05,228.215 33.124,230.608 38.219,232.777C54.481,239.701 80.727,244.093 110.004,246.084C122.94,246.963 136.467,247.371 150,247.307L150,247.306L150.286,247.306L150.286,247.307C163.819,247.371 177.346,246.963 190.282,246.084C219.559,244.093 245.805,239.701 262.067,232.777C267.162,230.608 271.236,228.215 274.006,225.526C276.326,223.274 277.678,220.858 277.647,218.169L276.933,158.821L23.353,158.821ZM153.008,133.331L153.067,152.821L196.553,152.821L196.494,133.331L153.008,133.331ZM276.846,132.534C274.646,133.006 272.171,133.285 269.369,133.331C269.353,133.331 269.337,133.331 269.32,133.331L202.494,133.331L202.553,152.821L276.908,152.821L276.846,132.534ZM23.294,132.534L23.356,152.821L97.3,152.821L97.241,133.331L30.822,133.331C30.806,133.331 30.79,133.331 30.773,133.331C27.971,133.285 25.496,133.006 23.294,132.534ZM103.241,133.331L103.3,152.821L147.067,152.821L147.008,133.331L103.241,133.331Z" style="fill:#7d7d7d;"/>
        <g transform="matrix(-1,1.22465e-16,-1.22465e-16,-1,513.126,214.584)">
            <path d="M220.862,102.821L237.869,95.059L235.31,92.15L230.939,91.296L214.332,72.481L214.332,68.303L213.126,66.933L213.126,98.431C213.126,102.7 216.683,104.848 220.862,102.821Z" style="fill:#fff;"/>
        </g>
        <g transform="matrix(1,1.22465e-16,1.22465e-16,-1,-213.126,214.584)">
            <path d="M220.862,102.821L237.869,95.059L235.31,92.15L230.939,91.296L214.332,72.481L214.332,68.303L213.126,66.933L213.126,98.431C213.126,102.7 216.683,104.848 220.862,102.821Z" style="fill:#fff;"/>
        </g>
    </g>
</svg>
