<?xml version="1.0" encoding="UTF-8" standalone="no"?>
<!DOCTYPE svg PUBLIC "-//W3C//DTD SVG 1.1//EN" "http://www.w3.org/Graphics/SVG/1.1/DTD/svg11.dtd">
<svg width="100%" height="100%" viewBox="0 0 300 345" version="1.1" xmlns="http://www.w3.org/2000/svg" xmlns:xlink="http://www.w3.org/1999/xlink" xml:space="preserve" xmlns:serif="http://www.serif.com/" style="fill-rule:evenodd;clip-rule:evenodd;stroke-linejoin:round;stroke-miterlimit:2;">
    <g id="avatar_hat_16">
        <path d="M114.45,45L114.45,34.515C117.62,21.659 130.144,1.116 139.33,0L160.67,0C169.856,1.116 182.38,21.659 185.55,34.515L185.55,45L114.45,45Z" style="fill:#ffbb4a;fill-rule:nonzero;"/>
        <path d="M181.379,23.355C181.948,24.542 182.478,25.726 182.965,26.892L117.035,26.892C117.522,25.726 118.052,24.543 118.621,23.355L181.379,23.355Z" style="fill:#d43102;"/>
        <path d="M179.482,19.636C179.899,20.406 180.303,21.179 180.692,21.953L119.308,21.953C119.697,21.179 120.101,20.405 120.518,19.636L179.482,19.636Z" style="fill:#55b46c;"/>
        <path d="M184.538,31.06C184.939,32.258 185.279,33.415 185.55,34.515L185.55,45L114.45,45L114.45,34.515C114.721,33.415 115.061,32.258 115.462,31.06L184.538,31.06Z" style="fill:#ffaf2a;fill-rule:nonzero;"/>
        <path d="M255.436,34.689L255.436,34.515L47.315,34.515C47.315,49.331 59.344,61.36 74.16,61.36L228.591,61.36C243.35,61.36 255.343,49.425 255.436,34.689Z" style="fill:#fb9d00;"/>
        <path d="M248.496,52.52L54.255,52.52C55.433,53.821 56.737,55.007 58.147,56.057L244.604,56.057C246.014,55.007 247.318,53.822 248.496,52.52Z" style="fill:#d43102;"/>
        <path d="M50.653,47.482L56.142,39.448L63.728,50.552L61.306,50.552L56.142,42.994L51.794,49.358C51.389,48.75 51.008,48.124 50.653,47.482ZM134.005,50.552L131.583,50.552L126.419,42.994L121.255,50.552L118.833,50.552L126.419,39.448L134.005,50.552ZM81.125,50.552L78.703,50.552L73.539,42.994L68.375,50.552L65.953,50.552L73.539,39.448L81.125,50.552ZM98.361,50.552L95.939,50.552L90.775,42.994L85.612,50.552L83.19,50.552L90.775,39.448L98.361,50.552ZM116.608,50.552L114.186,50.552L109.022,42.994L103.858,50.552L101.436,50.552L109.022,39.448L116.608,50.552ZM151.241,50.552L148.819,50.552L143.655,42.994L138.492,50.552L136.069,50.552L143.655,39.448L151.241,50.552ZM168.374,50.552L165.952,50.552L160.788,42.994L155.625,50.552L153.203,50.552L160.788,39.448L168.374,50.552ZM185.771,50.552L183.349,50.552L178.185,42.994L173.022,50.552L170.599,50.552L178.185,39.448L185.771,50.552ZM203.008,50.552L200.585,50.552L195.422,42.994L190.258,50.552L187.836,50.552L195.422,39.448L203.008,50.552ZM220.803,50.552L218.381,50.552L213.217,42.994L208.054,50.552L205.631,50.552L213.217,39.448L220.803,50.552ZM238.2,50.552L235.778,50.552L230.614,42.994L225.45,50.552L223.028,50.552L230.614,39.448L238.2,50.552ZM252.638,46.455C252.304,47.125 251.943,47.78 251.556,48.417L247.85,42.994L242.687,50.552L240.265,50.552L247.85,39.448L252.638,46.455Z" style="fill:#d43102;"/>
        <path d="M64.696,46.472L60.975,40.737L68.418,40.737L64.696,46.472ZM82.267,46.472L78.545,40.737L85.988,40.737L82.267,46.472ZM99.883,46.472L96.161,40.737L103.604,40.737L99.883,46.472ZM117.651,46.472L113.93,40.737L121.373,40.737L117.651,46.472ZM135.1,46.472L131.378,40.737L138.821,40.737L135.1,46.472ZM152.28,46.472L148.558,40.737L156.001,40.737L152.28,46.472ZM169.743,46.472L166.022,40.737L173.465,40.737L169.743,46.472ZM186.616,46.472L182.894,40.737L190.337,40.737L186.616,46.472ZM204.537,46.472L200.815,40.737L208.258,40.737L204.537,46.472ZM221.863,46.472L218.141,40.737L225.584,40.737L221.863,46.472ZM239.128,46.472L235.407,40.737L242.85,40.737L239.128,46.472Z" style="fill:#55b46c;"/>
    </g>
</svg>
