<?xml version="1.0" encoding="UTF-8" standalone="no"?>
<!DOCTYPE svg PUBLIC "-//W3C//DTD SVG 1.1//EN" "http://www.w3.org/Graphics/SVG/1.1/DTD/svg11.dtd">
<svg width="100%" height="100%" viewBox="0 0 300 345" version="1.1" xmlns="http://www.w3.org/2000/svg" xmlns:xlink="http://www.w3.org/1999/xlink" xml:space="preserve" xmlns:serif="http://www.serif.com/" style="fill-rule:evenodd;clip-rule:evenodd;stroke-linejoin:round;stroke-miterlimit:2;">
    <g id="avatar_hat_39">
        <g>
            <g transform="matrix(-1.04207,-1.27616e-16,2.07723e-16,-1.69619,308.858,788.639)">
                <path d="M292.183,295.821C276.297,279.66 218.637,268.307 152.445,268.307C86.253,268.307 28.593,279.66 12.707,295.821L292.183,295.821Z" style="fill:#f09214;"/>
            </g>
            <path d="M35,311.564L265,311.564C279.327,304.568 289.988,296.191 295.616,286.871L4.384,286.871C10.012,296.191 20.673,304.568 35,311.564Z" style="fill:#cd7d11;"/>
            <path d="M284.636,299.218C259.841,319.89 208.071,333.539 150,333.539C91.929,333.539 40.159,319.89 15.364,299.218L25.335,299.218C30.991,302.991 37.695,306.458 45.236,309.602C72.142,320.82 109.511,327.539 150,327.539C190.489,327.539 227.858,320.82 254.764,309.602C262.305,306.458 269.009,302.991 274.665,299.218L284.636,299.218Z" style="fill:#8c5914;"/>
            <path d="M40.017,313.892C30.195,309.56 21.855,304.63 15.364,299.218L25.335,299.218C30.991,302.991 37.695,306.458 45.236,309.602C48.865,311.115 52.685,312.547 56.682,313.892L40.017,313.892ZM243.318,313.892C247.315,312.547 251.135,311.115 254.764,309.602C262.305,306.458 269.009,302.991 274.665,299.218L284.636,299.218C278.145,304.63 269.805,309.56 259.983,313.892L243.318,313.892Z" style="fill:#764a10;"/>
        </g>
        <path d="M300,81.38C300,61.301 283.699,45 263.62,45L36.38,45C16.301,45 0,61.301 0,81.38L0,262.01C0,282.089 16.301,298.39 36.38,298.39L263.62,298.39C283.699,298.39 300,282.089 300,262.01L300,81.38ZM150,101.409C208.503,101.409 256,141.085 256,189.955C256,238.824 208.503,278.5 150,278.5C91.497,278.5 44,238.824 44,189.955C44,141.085 91.497,101.409 150,101.409Z" style="fill:#f09214;"/>
        <path d="M36.38,298.39C16.301,298.39 0,282.089 0,262.01L0,254.123C2.443,254.248 4.795,254.071 5,257.538L5,262.01C5,279.329 19.061,293.39 36.38,293.39L263.62,293.39C280.939,293.39 295,279.329 295,262.01L295,257.538C295.205,254.071 297.557,254.248 300,254.123L300,262.01C300,282.089 283.699,298.39 263.62,298.39L36.38,298.39Z" style="fill:#8c5914;"/>
        <path d="M300,262.01L300,283.748C292.595,296.108 279.067,304.39 263.62,304.39L36.38,304.39C20.933,304.39 7.405,296.108 0,283.748L0,262.01C0,282.089 16.301,298.39 36.38,298.39L263.62,298.39C283.699,298.39 300,282.089 300,262.01Z" style="fill:#604115;"/>
        <g>
            <g transform="matrix(2.00775,0,0,1.17889,-157.955,-12.5099)">
                <path d="M203.419,48.878C203.419,43.954 201.072,39.957 198.181,39.957L108.585,39.957C105.694,39.957 103.347,43.954 103.347,48.878L103.347,66.72C103.347,71.644 105.694,75.641 108.585,75.641L198.181,75.641C201.072,75.641 203.419,71.644 203.419,66.72L203.419,48.878Z" style="fill:#5f431e;"/>
            </g>
            <g transform="matrix(2.00775,0,0,1.17889,-157.955,-12.5099)">
                <path d="M203.419,48.878C203.419,43.954 201.072,39.957 198.181,39.957L108.585,39.957C105.694,39.957 103.347,43.954 103.347,48.878L103.347,62.084C103.347,67.008 105.694,71.005 108.585,71.005L198.181,71.005C201.072,71.005 203.419,67.008 203.419,62.084L203.419,48.878Z" style="fill:#8c5914;"/>
            </g>
            <g transform="matrix(1.83714,0,0,1.07871,-131.786,-17.3483)">
                <path d="M203.419,61.765C203.419,56.842 201.072,52.844 198.181,52.844L108.585,52.844C105.694,52.844 103.347,56.842 103.347,61.765L103.347,66.72C103.347,71.644 105.694,75.641 108.585,75.641L198.181,75.641C201.072,75.641 203.419,71.644 203.419,66.72L203.419,61.765Z" style="fill:#5f431e;fill-opacity:0.8;"/>
            </g>
            <g transform="matrix(1.83714,0,0,1.07871,-131.786,-17.3483)">
                <path d="M203.419,64.782C203.419,59.858 201.072,57.799 198.181,57.799L108.585,57.799C105.694,57.799 103.347,59.858 103.347,64.782L103.347,66.72C103.347,71.644 105.694,75.641 108.585,75.641L198.181,75.641C201.072,75.641 203.419,71.644 203.419,66.72L203.419,64.782Z" style="fill:#1a0f00;fill-opacity:0.8;"/>
            </g>
            <g transform="matrix(1.83714,0,0,1.07871,-131.786,-17.3483)">
                <path d="M203.419,48.878C203.419,43.954 201.072,39.957 198.181,39.957L108.585,39.957C105.694,39.957 103.347,43.954 103.347,48.878L103.347,66.72C103.347,71.644 105.694,75.641 108.585,75.641L198.181,75.641C201.072,75.641 203.419,71.644 203.419,66.72L203.419,48.878Z" style="fill:#dce8f6;fill-opacity:0.8;"/>
            </g>
            <path d="M155.991,64.247L120.768,64.247L149.724,25.753L184.947,25.753L155.991,64.247ZM194.513,64.247L177.082,64.247L206.038,25.753L223.469,25.753L194.513,64.247Z" style="fill:#fff;fill-opacity:0.5;"/>
            <g transform="matrix(1,0,0,1,0,-81.1958)">
                <g transform="matrix(1,0,0,1,0,81.1958)">
                    <path d="M58.077,42L241.923,42C246.775,42 247.145,42.517 247.257,48L247.357,54.441C247.371,57.219 241.923,57.315 241.923,54.414L241.923,48L58.077,48L58.077,54.414C58.077,57.315 52.629,57.219 52.643,54.441L52.743,48C52.855,42.517 53.225,42 58.077,42Z" style="fill:#532918;"/>
                </g>
                <g transform="matrix(0.0663069,3.08149e-33,0,1,181.637,-22.8861)">
                    <rect x="56.705" y="146.082" width="187.112" height="6" style="fill:#441300;"/>
                </g>
                <g transform="matrix(0.0663069,3.08149e-33,0,1,100.182,-22.8861)">
                    <rect x="56.705" y="146.082" width="187.112" height="6" style="fill:#441300;"/>
                </g>
                <g transform="matrix(1,2.46519e-32,0,0.948419,-39.8545,9.30288)">
                    <path d="M147,102.905L146.922,146.321C146.922,148.066 148.266,149.484 149.922,149.484C151.578,149.484 152.922,148.066 152.922,146.321L153,102.905C153,101.159 151.656,99.742 150,99.742C148.344,99.742 147,101.159 147,102.905Z" style="fill:#532918;"/>
                </g>
                <g transform="matrix(1,0,0,0.948419,41.5999,9.30288)">
                    <path d="M147,102.905L146.922,146.321C146.922,148.066 148.266,149.484 149.922,149.484C151.578,149.484 152.922,148.066 152.922,146.321L153,102.905C153,101.159 151.656,99.742 150,99.742C148.344,99.742 147,101.159 147,102.905Z" style="fill:#532918;"/>
                </g>
            </g>
        </g>
        <g>
            <g>
                <g transform="matrix(1.2064,0,0,1.2064,-4.61573,-40.4272)">
                    <path d="M30.862,217.046L30.862,174.761C30.862,172.501 29.027,170.665 26.766,170.665L15.117,170.665C12.857,170.665 11.021,172.501 11.021,174.761L11.021,217.046C11.021,219.306 12.857,221.142 15.117,221.142L26.766,221.142C29.027,221.142 30.862,219.306 30.862,217.046Z" style="fill:#cd7d11;"/>
                </g>
                <g transform="matrix(1.04396,0,0,1.04396,-7.39955,-8.56457)">
                    <path d="M150,92.409C86.126,92.409 35,136.598 35,189.955C35,243.311 86.126,287.5 150,287.5C213.874,287.5 265,243.311 265,189.955C265,136.598 213.874,92.409 150,92.409ZM150,110.409C203.136,110.409 247,145.569 247,189.955C247,234.34 203.136,269.5 150,269.5C96.864,269.5 53,234.34 53,189.955C53,145.569 96.864,110.409 150,110.409Z" style="fill:#cd7d11;"/>
                </g>
                <g transform="matrix(1.11235,0,0,1.11235,-28.9195,-21.5858)">
                    <path d="M291.696,192.125C291.831,202.125 280.665,204.85 280.665,213.338C280.665,216.851 277.812,219.703 274.299,219.703L257.399,219.703L257.399,164.547L274.299,164.547C277.812,164.547 280.665,167.399 280.665,170.912C280.665,180.463 291.554,181.634 291.696,192.125Z" style="fill:#cd7d11;"/>
                </g>
            </g>
            <g>
                <path d="M25.129,161.323C25.129,160.724 24.643,160.237 24.043,160.237L17.278,160.237C16.679,160.237 16.193,160.724 16.193,161.323L16.193,231.803C16.193,232.402 16.679,232.889 17.278,232.889L24.043,232.889C24.643,232.889 25.129,232.402 25.129,231.803L25.129,161.323Z" style="fill:#4e2d00;"/>
                <path d="M25.489,229.253C25.489,229.102 25.367,228.979 25.216,228.979L16.106,228.979C15.955,228.979 15.833,229.102 15.833,229.253L15.833,230.955C15.833,231.106 15.955,231.229 16.106,231.229L25.216,231.229C25.367,231.229 25.489,231.106 25.489,230.955L25.489,229.253ZM25.489,225.61C25.489,225.459 25.367,225.336 25.216,225.336L16.106,225.336C15.955,225.336 15.833,225.459 15.833,225.61L15.833,227.313C15.833,227.464 15.955,227.586 16.106,227.586L25.216,227.586C25.367,227.586 25.489,227.464 25.489,227.313L25.489,225.61ZM25.489,221.791C25.489,221.641 25.367,221.518 25.216,221.518L16.106,221.518C15.955,221.518 15.833,221.641 15.833,221.791L15.833,223.494C15.833,223.645 15.955,223.768 16.106,223.768L25.216,223.768C25.367,223.768 25.489,223.645 25.489,223.494L25.489,221.791ZM25.489,168.652C25.489,168.501 25.367,168.379 25.216,168.379L16.106,168.379C15.955,168.379 15.833,168.501 15.833,168.652L15.833,170.355C15.833,170.506 15.955,170.628 16.106,170.628L25.216,170.628C25.367,170.628 25.489,170.506 25.489,170.355L25.489,168.652ZM25.489,165.009C25.489,164.858 25.367,164.736 25.216,164.736L16.106,164.736C15.955,164.736 15.833,164.858 15.833,165.009L15.833,166.712C15.833,166.863 15.955,166.985 16.106,166.985L25.216,166.985C25.367,166.985 25.489,166.863 25.489,166.712L25.489,165.009ZM25.489,161.191C25.489,161.04 25.367,160.918 25.216,160.918L16.106,160.918C15.955,160.918 15.833,161.04 15.833,161.191L15.833,162.894C15.833,163.045 15.955,163.167 16.106,163.167L25.216,163.167C25.367,163.167 25.489,163.045 25.489,162.894L25.489,161.191Z" style="fill:#623800;"/>
                <g transform="matrix(1.70545,0,0,0.508311,-4.05397,99.0817)">
                    <rect x="12.503" y="157.765" width="16.384" height="62.185" style="fill:#8c5914;"/>
                </g>
                <g transform="matrix(1,0,0,0.86127,0,33.2067)">
                    <path d="M28.887,162.521C28.887,159.896 27.052,157.765 24.791,157.765L16.599,157.765C14.338,157.765 12.503,159.896 12.503,162.521L12.503,215.194C12.503,217.819 14.338,219.95 16.599,219.95L24.791,219.95C27.052,219.95 28.887,217.819 28.887,215.194L28.887,162.521Z" style="fill:#8c5914;"/>
                </g>
                <g transform="matrix(0.899382,0,0,-0.726677,1.25801,358.188)">
                    <path d="M30.72,200.043C30.323,199.174 29.198,198.921 28.144,198.927L14.741,198.927C13.89,198.963 12.918,199.174 12.503,199.88L12.503,202.708C13.012,201.989 13.791,201.672 14.755,201.629L28.165,201.629C29.7,201.592 30.4,202.04 30.72,202.708L30.72,200.043Z" style="fill:#4e2d00;"/>
                </g>
                <g transform="matrix(0.899382,0,0,0.726677,1.25801,31.9724)">
                    <path d="M30.72,200.043C30.323,199.174 29.198,198.921 28.144,198.927L14.741,198.927C13.89,198.963 12.918,199.174 12.503,199.88L12.503,202.708C13.012,201.989 13.791,201.672 14.755,201.629L28.165,201.629C29.7,201.592 30.4,202.04 30.72,202.708L30.72,200.043Z" style="fill:#4e2d00;"/>
                </g>
            </g>
            <path d="M291.696,192.125C291.831,202.125 280.665,204.85 280.665,213.338C280.665,216.851 277.812,219.703 274.299,219.703L257.399,219.703L257.399,164.547L274.299,164.547C277.812,164.547 280.665,167.399 280.665,170.912C280.665,180.463 291.554,181.634 291.696,192.125Z" style="fill:#8c5914;"/>
            <g>
                <g transform="matrix(1.04091,0,0,1.04091,-6.94213,-7.91711)">
                    <path d="M150,110.409C203.136,110.409 247,145.569 247,189.955C247,234.34 203.136,269.5 150,269.5C96.864,269.5 53,234.34 53,189.955C53,145.569 96.864,110.409 150,110.409Z" style="fill:#dce8f6;fill-opacity:0.5;"/>
                </g>
                <path d="M214.963,126.954C223.455,132.924 230.732,140.037 236.426,148.016L187.675,266.384C177.503,269.821 166.507,271.935 155.029,272.473L214.963,126.954ZM132.054,108.2C137.632,107.417 143.36,107.009 149.195,107.009C168.376,107.009 186.397,111.411 201.751,119.087L138.703,272.166C113.814,270.055 91.471,260.516 75.215,246.202L132.054,108.2Z" style="fill:#fff;fill-opacity:0.5;"/>
                <path d="M150,92.409C86.126,92.409 35,136.598 35,189.955C35,243.311 86.126,287.5 150,287.5C213.874,287.5 265,243.311 265,189.955C265,136.598 213.874,92.409 150,92.409ZM150,110.409C203.136,110.409 247,145.569 247,189.955C247,234.34 203.136,269.5 150,269.5C96.864,269.5 53,234.34 53,189.955C53,145.569 96.864,110.409 150,110.409Z" style="fill:#8c5914;"/>
                <path d="M150,110.409C203.136,110.409 247,145.569 247,189.955C247,234.34 203.136,269.5 150,269.5C96.864,269.5 53,234.34 53,189.955C53,145.569 96.864,110.409 150,110.409ZM150,114.409C200.752,114.409 243,147.56 243,189.955C243,232.349 200.752,265.5 150,265.5C99.248,265.5 57,232.349 57,189.955C57,147.56 99.248,114.409 150,114.409Z" style="fill:#5f431e;"/>
            </g>
            <g>
                <g transform="matrix(0.955991,0.293396,-0.293396,0.955991,64.123,-72.7013)">
                    <path d="M276.281,181.381C275.662,181.023 274.9,181.023 274.281,181.381L266.122,186.091C265.503,186.448 265.122,187.108 265.122,187.823L265.122,197.244C265.122,197.958 265.503,198.618 266.122,198.976L274.281,203.686C274.9,204.043 275.662,204.043 276.281,203.686L284.44,198.976C285.058,198.618 285.44,197.958 285.44,197.244L285.44,187.823C285.44,187.108 285.058,186.448 284.44,186.091L276.281,181.381Z" style="fill:#7d7264;"/>
                </g>
                <path d="M270.585,183.389L270.284,184.145L269.69,183.595L269.068,183.738L268.918,184.262L268.519,183.864L268.247,183.926L269.113,186.722L267.4,184.121L265.014,184.669C264.427,184.804 263.957,185.242 263.78,185.817L261.45,193.408C261.273,193.984 261.417,194.611 261.828,195.051L263.603,196.96L264.879,196.249L264.13,197.526L267.237,200.865C267.647,201.305 268.261,201.494 268.848,201.359L276.587,199.581C277.174,199.446 277.645,199.009 277.821,198.433L279.061,194.393L277.969,193.672L279.287,193.657L279.362,193.413L276.151,191.684L279.772,192.076L280.151,190.842C280.328,190.266 280.184,189.64 279.774,189.199L274.364,183.386C273.954,182.945 273.34,182.756 272.753,182.891L270.585,183.389Z" style="fill:#837869;"/>
            </g>
            <g transform="matrix(1,0,0,1,1.68398,-0.459995)">
                <circle cx="268.74" cy="173.917" r="3.124" style="fill:#b8751b;"/>
                <path d="M268.74,169.794C266.465,169.794 264.617,171.642 264.617,173.917C264.617,176.193 266.465,178.041 268.74,178.041C271.016,178.041 272.864,176.193 272.864,173.917C272.864,171.642 271.016,169.794 268.74,169.794ZM268.74,170.794C270.464,170.794 271.864,172.193 271.864,173.917C271.864,175.641 270.464,177.041 268.74,177.041C267.017,177.041 265.617,175.641 265.617,173.917C265.617,172.193 267.017,170.794 268.74,170.794Z" style="fill:#5f431e;"/>
                <g transform="matrix(1,0,0,1,0,37.3355)">
                    <circle cx="268.74" cy="173.917" r="3.124" style="fill:#b8751b;"/>
                </g>
                <g transform="matrix(1,0,0,1,0,37.3355)">
                    <path d="M268.74,169.794C266.465,169.794 264.617,171.642 264.617,173.917C264.617,176.193 266.465,178.041 268.74,178.041C271.016,178.041 272.864,176.193 272.864,173.917C272.864,171.642 271.016,169.794 268.74,169.794ZM268.74,170.794C270.464,170.794 271.864,172.193 271.864,173.917C271.864,175.641 270.464,177.041 268.74,177.041C267.017,177.041 265.617,175.641 265.617,173.917C265.617,172.193 267.017,170.794 268.74,170.794Z" style="fill:#5f431e;"/>
                </g>
            </g>
            <g>
                <g transform="matrix(6.12323e-17,-1,1.11148,6.80586e-17,-61.5406,380.536)">
                    <path d="M147,102.905L147,277.741C147,279.231 148.344,280.44 150,280.44C151.656,280.44 153,279.231 153,277.741L153,102.905C153,101.416 151.656,100.206 150,100.206C148.344,100.206 147,101.416 147,102.905Z" style="fill:#532918;"/>
                </g>
                <g transform="matrix(6.12323e-17,-1,1.11148,6.80586e-17,-61.5406,299.082)">
                    <path d="M147,102.905L147,277.741C147,279.231 148.344,280.44 150,280.44C151.656,280.44 153,279.231 153,277.741L153,102.905C153,101.416 151.656,100.206 150,100.206C148.344,100.206 147,101.416 147,102.905Z" style="fill:#532918;"/>
                </g>
                <g transform="matrix(0.0663069,3.08149e-33,0,1,181.637,0)">
                    <rect x="56.705" y="146.082" width="187.112" height="6" style="fill:#441300;"/>
                </g>
                <g transform="matrix(0.0663069,3.08149e-33,0,1,100.182,0)">
                    <rect x="56.705" y="146.082" width="187.112" height="6" style="fill:#441300;"/>
                </g>
                <g transform="matrix(0.0663069,3.08149e-33,0,1,181.637,81.4544)">
                    <rect x="56.705" y="146.082" width="187.112" height="6" style="fill:#441300;"/>
                </g>
                <g transform="matrix(0.0663069,3.08149e-33,0,1,100.182,81.4544)">
                    <rect x="56.705" y="146.082" width="187.112" height="6" style="fill:#441300;"/>
                </g>
                <g transform="matrix(1,2.46519e-32,0,0.948419,-39.8545,9.30288)">
                    <path d="M147,102.905L147,277.741C147,279.487 148.344,280.904 150,280.904C151.656,280.904 153,279.487 153,277.741L153,102.905C153,101.159 151.656,99.742 150,99.742C148.344,99.742 147,101.159 147,102.905Z" style="fill:#532918;"/>
                </g>
                <g transform="matrix(1,0,0,0.948419,41.5999,9.30288)">
                    <path d="M147,102.905L147,277.741C147,279.487 148.344,280.904 150,280.904C151.656,280.904 153,279.487 153,277.741L153,102.905C153,101.159 151.656,99.742 150,99.742C148.344,99.742 147,101.159 147,102.905Z" style="fill:#532918;"/>
                </g>
            </g>
        </g>
        <g>
            <path d="M251.15,100.367C252.732,89.949 259.007,83.213 268.323,79.015L251.15,100.367Z" style="fill:#cd7d11;"/>
            <path d="M251.15,106.357C258.691,105.076 264.176,99.309 268.323,90.624L251.15,106.357Z" style="fill:#cd7d11;"/>
            <path d="M275.792,148.44L293.839,138.375C289.136,145.23 283.272,148.99 275.792,148.44Z" style="fill:#cd7d11;"/>
            <path d="M0,92.967L8.68,100.367L0,100.367L0,92.967Z" style="fill:#cd7d11;"/>
            <path d="M0,103.599L4.34,103.599L0,107.579L0,103.599Z" style="fill:#cd7d11;"/>
            <path d="M53.379,92.967C54.752,99.802 60.088,102.358 67.631,102.528L53.379,92.967Z" style="fill:#cd7d11;"/>
            <path d="M27.382,278.127L46.471,270.897C39.026,269.523 32.512,271.403 27.382,278.127Z" style="fill:#cd7d11;"/>
            <path d="M263.214,262.609L250.054,256.969C253.251,262.219 257.647,264.073 263.214,262.609Z" style="fill:#cd7d11;"/>
            <path d="M257.279,256.969C262.796,255.23 266.495,257.329 268.459,263.093L257.279,256.969Z" style="fill:#cd7d11;"/>
            <path d="M45.071,45L46.019,48.104L46.664,45L45.071,45Z" style="fill:#cd7d11;"/>
            <path d="M39.571,45L42.163,52.294L44.014,45L39.571,45Z" style="fill:#cd7d11;"/>
            <path d="M300,224.28L293.282,222.544L300,218.495L300,224.28" style="fill:#cd7d11;"/>
            <path d="M40.327,278.127C45.83,279.539 49.852,277.066 53.379,273.292L40.327,278.127" style="fill:#cd7d11;"/>
            <g transform="matrix(0.991007,0.133807,-0.133807,0.991007,43.9575,-11.9109)">
                <path d="M99.581,319.834C105.803,322.775 112.858,323.529 121.608,319.834L99.581,319.834Z" style="fill:#cd7d11;"/>
            </g>
            <g transform="matrix(1,0,0,1,-1.6585,-1.8362)">
                <path d="M217.336,317.266C210.287,321.255 202.789,322.656 194.753,320.968L217.336,317.266Z" style="fill:#cd7d11;"/>
            </g>
        </g>
    </g>
</svg>
