<?xml version="1.0" encoding="UTF-8" standalone="no"?>
<!DOCTYPE svg PUBLIC "-//W3C//DTD SVG 1.1//EN" "http://www.w3.org/Graphics/SVG/1.1/DTD/svg11.dtd">
<svg width="100%" height="100%" viewBox="0 0 300 345" version="1.1" xmlns="http://www.w3.org/2000/svg" xmlns:xlink="http://www.w3.org/1999/xlink" xml:space="preserve" xmlns:serif="http://www.serif.com/" style="fill-rule:evenodd;clip-rule:evenodd;stroke-linejoin:round;stroke-miterlimit:2;">
    <g id="avatar_hat_31">
        <g>
            <g transform="matrix(1,0,0,1,0.735506,-0.661979)">
                <rect x="6.774" y="144.775" width="284.982" height="121.142" style="fill:url(#_Linear1);"/>
            </g>
            <path d="M199.581,152.283L94.424,152.283L44.843,265.255L150,265.255L199.581,152.283ZM224.371,152.283L273.071,152.283L223.49,265.255L174.79,265.255L224.371,152.283Z" style="fill:#ffa5c6;fill-opacity:0.25;"/>
        </g>
        <path d="M36.38,298.39C16.301,298.39 0,282.089 0,262.01L0,81.38C0,61.301 16.301,45 36.38,45L263.62,45C283.699,45 300,61.301 300,81.38L300,262.01C300,282.089 283.699,298.39 263.62,298.39L36.38,298.39ZM18.77,155.311C14.724,155.344 10.675,158.553 10.829,162.023L10.829,206.609C10.829,226.688 27.491,240.607 47.209,242.989C66.572,245.328 80.883,241.578 94.101,234.763C107.144,228.039 112.991,266.252 117.1,256.9C119.685,251.018 132.037,243.737 149.585,244.696L150,244.72L150.415,244.696C167.963,243.737 180.315,251.018 182.9,256.9C187.009,266.252 192.856,228.039 205.899,234.763C219.117,241.578 233.428,245.328 252.791,242.989C272.509,240.607 289.171,226.688 289.171,206.609L289.171,162.023C289.325,158.553 285.276,155.344 281.23,155.311L150,164.413L18.77,155.311Z" style="fill:#fff;"/>
        <g>
            <path d="M123.863,272.928L123.863,298.39L178.993,298.39L178.993,272.928C176.781,259.82 165.112,250.197 151.428,250.197C137.745,250.197 126.076,259.82 123.863,272.928Z" style="fill:#292929;"/>
            <path d="M180.993,298.39L180.993,272.928L180.965,272.595C178.593,258.539 166.101,248.197 151.428,248.197C136.756,248.197 124.264,258.539 121.891,272.595L121.863,272.928L121.863,298.39L123.863,298.39L123.863,272.928C126.076,259.82 137.745,250.197 151.428,250.197C165.112,250.197 176.781,259.82 178.993,272.928L178.993,298.39L180.993,298.39Z"/>
            <path d="M119.35,288.25L115.11,253.642C110.003,239.862 104.167,232.398 97.657,230.779L97.482,252.793L119.35,288.25Z" style="fill:#cacaca;"/>
            <g transform="matrix(-1,0,0,1,302.856,0)">
                <path d="M119.062,287.604L117.989,253.642C112.882,239.862 104.167,232.398 97.657,230.779L97.482,252.793L119.062,287.604Z" style="fill:#cacaca;"/>
            </g>
            <path d="M77.286,298.39L77.286,267.275L96.926,253.642L118.415,289.457L132.452,284.395L132.452,284.374L170.404,284.374L170.404,284.395L184.441,289.457L205.93,253.642L225.571,267.275L225.571,298.39L77.286,298.39Z" style="fill:#464646;"/>
            <path d="M184.441,289.457L184.441,298.39L194.019,298.39L205.874,253.642L205.383,252.971L184.211,288.121L184.441,289.457Z" style="fill:#5d5d5d;"/>
            <g transform="matrix(-1,0,0,1,302.872,0)">
                <path d="M184.441,289.457L184.441,298.39L194.019,298.39L205.874,253.642L205.383,252.971L184.211,288.121L184.441,289.457Z" style="fill:#5d5d5d;"/>
            </g>
            <path d="M132.452,298.39L132.452,284.395L151.428,283.355L170.404,284.395L170.404,298.39L132.452,298.39Z" style="fill:#6c6c6c;"/>
            <path d="M132.498,284.374L132.123,284.513L118.415,289.457L96.926,253.642L77.286,267.275L77.286,298.39L75.286,298.39L75.286,267.275C75.286,266.62 75.607,266.006 76.145,265.632L95.786,251.999C96.24,251.684 96.805,251.571 97.346,251.687C97.888,251.803 98.356,252.139 98.641,252.613C98.641,252.613 119.284,287.018 119.284,287.018L131.774,282.513C131.991,282.461 132.196,282.387 132.429,282.367C132.532,282.359 132.491,281.884 151.428,282.073C170.365,281.884 170.324,282.359 170.427,282.367C170.661,282.387 170.866,282.461 171.083,282.513L183.573,287.018C183.573,287.018 204.215,252.613 204.215,252.613C204.5,252.139 204.969,251.803 205.51,251.687C206.051,251.571 206.616,251.684 207.071,251.999L226.711,265.632C227.25,266.006 227.571,266.62 227.571,267.275L227.571,298.39L225.571,298.39L225.571,267.275L205.93,253.642L184.441,289.457L170.733,284.513L170.358,284.374L132.498,284.374Z" style="fill:#1d1d1d;"/>
        </g>
        <path d="M300,262.01C300,282.089 283.699,298.39 263.62,298.39L202.343,298.39L210.26,269.363L289.175,239.394L289.171,206.847L289.17,206.847C289.171,206.77 289.171,206.689 289.171,206.609L289.171,162.023C289.325,158.553 285.276,155.344 281.23,155.311L150,164.413L18.77,155.311C14.724,155.344 10.675,158.553 10.829,162.023L10.829,206.609C10.829,206.689 10.829,206.77 10.83,206.847L10.829,206.847L10.825,239.394L89.74,269.363L97.657,298.39L36.38,298.39C16.301,298.39 0,282.089 0,262.01L0,81.38C0,61.301 16.301,45 36.38,45L263.62,45C283.699,45 300,61.301 300,81.38L300,262.01Z" style="fill:#bc0010;"/>
        <g>
            <g transform="matrix(0.781862,0,0,1.56,31.8597,-26.1605)">
                <path d="M235.749,42.212C235.749,40.529 233.022,39.162 229.663,39.162L72.539,39.162C69.18,39.162 66.453,40.529 66.453,42.212L66.453,48.313C66.453,49.997 69.18,51.363 72.539,51.363L229.663,51.363C233.022,51.363 235.749,49.997 235.749,48.313L235.749,42.212Z" style="fill:#bc0010;"/>
            </g>
            <g transform="matrix(0.740882,0,0,0.53411,38.6376,17.0155)">
                <path d="M235.749,42.212C235.749,40.529 234.764,39.162 233.55,39.162L68.652,39.162C67.438,39.162 66.453,40.529 66.453,42.212L66.453,48.313C66.453,49.997 67.438,51.363 68.652,51.363L233.55,51.363C234.764,51.363 235.749,49.997 235.749,48.313L235.749,42.212Z" style="fill:#520007;"/>
            </g>
            <g transform="matrix(0.740882,0,0,0.53411,38.6376,17.0155)">
                <path d="M235.749,42.212C235.749,40.529 234.764,39.162 233.55,39.162L68.652,39.162C67.438,39.162 66.453,40.529 66.453,42.212L66.453,48.313C66.453,49.997 67.438,51.363 68.652,51.363L233.55,51.363C234.764,51.363 235.749,49.997 235.749,48.313L235.749,42.212ZM69.153,42.906L69.153,47.619L233.05,47.619L233.05,42.906L69.153,42.906Z" style="fill:#74010b;"/>
            </g>
        </g>
        <g>
            <path d="M253.226,91.493L252.483,95.088L260.5,103.366L264.083,103.04L253.226,91.493ZM255.11,82.38L254.427,85.684L270.221,102.48L273.712,102.162L255.11,82.38ZM257.175,72.395L256.311,76.571L279.849,101.603L284.261,101.201L257.175,72.395ZM265.521,69.022L288.785,93.762L287.744,97.818L261.229,69.62L265.521,69.022ZM275.648,67.611L291.239,84.192L290.213,88.194L271.413,68.201L275.648,67.611Z" style="fill:#74010b;"/>
            <path d="M262.234,103.208L252.867,93.233L252.483,95.088L260.5,103.366L262.234,103.208ZM272.214,102.299L254.788,83.94L254.427,85.684L270.221,102.48L272.214,102.299ZM282.192,101.389L256.801,74.201L256.311,76.571L279.849,101.603L282.192,101.389ZM263.754,69.268L288.305,95.633L287.744,97.818L261.229,69.62L263.754,69.268ZM273.612,67.894L290.774,86.005L290.213,88.194L271.413,68.201L273.612,67.894Z" style="fill:#520007;"/>
            <path d="M279.859,61.737L253.674,65.877L246.633,97.894L256.873,108.56L290.769,105.247L297.098,80.099L279.859,61.737ZM257.005,69.4L278.392,66.019C278.392,66.019 292.685,81.243 292.685,81.243C292.685,81.243 287.581,101.524 287.581,101.524C287.581,101.524 258.42,104.401 258.42,104.401C258.42,104.401 250.993,96.654 250.993,96.654L257.005,69.4Z" style="fill:#74010b;"/>
        </g>
        <g transform="matrix(-1,0,0,1,301.05,0)">
            <path d="M253.226,91.493L252.483,95.088L260.5,103.366L264.083,103.04L253.226,91.493ZM255.11,82.38L254.427,85.684L270.221,102.48L273.712,102.162L255.11,82.38ZM257.175,72.395L256.311,76.571L279.849,101.603L284.261,101.201L257.175,72.395ZM265.521,69.022L288.785,93.762L287.744,97.818L261.229,69.62L265.521,69.022ZM275.648,67.611L291.239,84.192L290.213,88.194L271.413,68.201L275.648,67.611Z" style="fill:#74010b;"/>
            <path d="M262.234,103.208L252.867,93.233L252.483,95.088L260.5,103.366L262.234,103.208ZM272.214,102.299L254.788,83.94L254.427,85.684L270.221,102.48L272.214,102.299ZM282.192,101.389L256.801,74.201L256.311,76.571L279.849,101.603L282.192,101.389ZM263.754,69.268L288.305,95.633L287.744,97.818L261.229,69.62L263.754,69.268ZM273.612,67.894L290.774,86.005L290.213,88.194L271.413,68.201L273.612,67.894Z" style="fill:#520007;"/>
            <path d="M279.859,61.737L253.674,65.877L246.633,97.894L256.873,108.56L290.769,105.247L297.098,80.099L279.859,61.737ZM257.005,69.4L278.392,66.019C278.392,66.019 292.685,81.243 292.685,81.243C292.685,81.243 287.581,101.524 287.581,101.524C287.581,101.524 258.42,104.401 258.42,104.401C258.42,104.401 250.993,96.654 250.993,96.654L257.005,69.4Z" style="fill:#74010b;"/>
        </g>
        <g>
            <path d="M0,154.895L0,131.88L6.903,112.145L54.756,116.427L60.714,110.283L56.431,78.632L150,58.036L150,164.413L18.77,155.311L0,154.895Z" style="fill:#520007;"/>
            <path d="M0,154.895L0,131.88L6.903,112.145L54.756,116.427L60.714,110.283L56.431,78.632L150,58.036L150,164.413L18.77,155.311L0,154.895ZM4,150.983L4,132.559C4,132.559 9.65,116.407 9.65,116.407C9.65,116.407 54.399,120.411 54.399,120.411C55.601,120.519 56.787,120.078 57.627,119.211L63.585,113.068C64.439,112.187 64.842,110.963 64.677,109.747L60.889,81.747C60.889,81.747 146,63.012 146,63.012C146,63.012 146,160.126 146,160.126C146,160.126 19.047,151.321 19.047,151.321C18.984,151.317 18.922,151.314 18.859,151.312L4,150.983Z" style="fill:#74010b;"/>
            <g transform="matrix(-1,0,0,1,300,0)">
                <path d="M0,154.895L0,131.88L6.903,112.145L54.756,116.427L60.714,110.283L56.431,78.632L150,58.036L150,164.413L18.77,155.311L0,154.895Z" style="fill:#520007;"/>
            </g>
            <g transform="matrix(-1,0,0,1,300,0)">
                <path d="M0,154.895L0,131.88L6.903,112.145L54.756,116.427L60.714,110.283L56.431,78.632L150,58.036L150,164.413L18.77,155.311L0,154.895ZM4,150.983L4,132.559C4,132.559 9.65,116.407 9.65,116.407C9.65,116.407 54.399,120.411 54.399,120.411C55.601,120.519 56.787,120.078 57.627,119.211L63.585,113.068C64.439,112.187 64.842,110.963 64.677,109.747L60.889,81.747C60.889,81.747 146,63.012 146,63.012C146,63.012 146,160.126 146,160.126C146,160.126 19.047,151.321 19.047,151.321C18.984,151.317 18.922,151.314 18.859,151.312L4,150.983Z" style="fill:#74010b;"/>
            </g>
        </g>
        <g>
            <path d="M150,156.394L295.863,144.451L300,153.056L300,243.901L221.157,275.759L207.866,298.39L202.343,298.39L210.26,269.363L289.175,239.394L289.171,206.609L289.171,162.023C289.325,158.553 285.276,155.344 281.23,155.311L150,164.413L18.77,155.311C14.724,155.344 10.675,158.553 10.829,162.023L10.829,206.609L10.825,239.394L89.74,269.363L97.657,298.39L92.134,298.39L78.843,275.759L0,243.901L0,152.052L4.152,144.453L150,156.394ZM10.038,214.808L10.091,214.812L10.037,214.808L10.038,214.808ZM289.962,214.808L289.909,214.812L289.963,214.808L289.962,214.808Z" style="fill:#74010b;"/>
            <g transform="matrix(1.04886,0,0,1,-14.6573,0)">
                <path d="M300,161.566L289.68,161.566L289.68,239.343L300,235.343L300,161.566Z" style="fill:#490006;"/>
            </g>
            <g transform="matrix(-1.04886,0,0,1,314.657,0)">
                <path d="M300,161.566L289.68,161.566L289.68,239.343L300,235.343L300,161.566Z" style="fill:#490006;"/>
            </g>
            <path d="M37.394,45L80.467,96.575L85.829,122.789L69.892,144.113L25.804,138.428L24.613,147.812L3.506,146.198L12.294,122.297L62.191,127.728L70.83,119.834L66.808,98.386L25.577,46.634C28.991,45.572 32.619,45 36.38,45L37.394,45Z" style="fill:#74010b;"/>
            <g transform="matrix(-1,0,0,1,300.007,0)">
                <path d="M37.394,45L80.467,96.575L85.829,122.789L69.892,144.113L25.804,138.428L24.613,147.812L3.506,146.198L12.294,122.297L62.191,127.728L70.83,119.834L66.808,98.386L25.577,46.634C28.991,45.572 32.619,45 36.38,45L37.394,45Z" style="fill:#74010b;"/>
            </g>
        </g>
        <g>
            <path d="M149.857,239.703L150.143,239.703C161.829,239.064 171.423,241.797 177.861,245.433C179.855,246.559 181.565,247.794 182.986,249.069C183.219,249.279 183.537,249.367 183.845,249.307C184.152,249.247 184.414,249.046 184.552,248.764C185.221,247.395 185.923,245.947 186.538,244.66C189.083,239.336 192.288,234.002 195.952,231.337C199.578,228.7 203.635,227.971 208.19,230.319C220.592,236.713 234.023,240.22 252.191,238.025C269.373,235.95 284.171,224.104 284.171,206.609L284.171,162.257C284.171,161.944 284.025,161.65 283.775,161.46C283.422,161.192 282.288,160.435 281.437,160.328C281.373,160.32 281.308,160.318 281.243,160.322L150.346,169.401C150.116,169.417 149.884,169.417 149.654,169.401C149.654,169.401 18.757,160.322 18.757,160.322C18.757,160.322 18.672,160.315 18.572,160.327L18.558,160.329C17.711,160.435 16.578,161.192 16.225,161.46C15.975,161.65 15.829,161.944 15.829,162.257L15.829,206.609C15.829,224.104 30.627,235.95 47.809,238.025C65.977,240.22 79.408,236.713 91.81,230.319C96.365,227.971 100.422,228.7 104.048,231.337C107.712,234.002 110.917,239.336 113.462,244.66C114.077,245.947 114.779,247.395 115.448,248.764C115.586,249.046 115.848,249.247 116.155,249.307C116.463,249.367 116.781,249.279 117.014,249.069C118.435,247.794 120.145,246.559 122.139,245.433C128.577,241.797 138.171,239.064 149.857,239.703ZM18.732,162.326L149.516,171.396C149.838,171.419 150.162,171.419 150.484,171.396C150.484,171.396 281.267,162.326 281.267,162.326C281.571,162.389 281.907,162.585 282.171,162.764L282.171,162.765L282.171,206.609C282.171,223.071 268.118,234.087 251.952,236.04C234.261,238.177 221.183,234.768 209.107,228.541C203.773,225.792 199.022,226.632 194.776,229.72C190.892,232.544 187.431,238.154 184.733,243.798C184.293,244.72 183.807,245.726 183.321,246.726C182.019,245.666 180.527,244.642 178.844,243.691C172.151,239.912 162.183,237.042 150.034,237.706L150.034,237.711L149.995,237.708L149.983,237.707L149.966,237.706C137.817,237.042 127.849,239.912 121.156,243.691C119.473,244.642 117.981,245.666 116.679,246.726C116.193,245.726 115.707,244.72 115.267,243.798C112.569,238.154 109.108,232.544 105.224,229.72C100.978,226.632 96.227,225.792 90.893,228.541C78.817,234.768 65.739,238.177 48.048,236.04C31.882,234.087 17.829,223.071 17.829,206.609C17.829,206.609 17.829,162.764 17.829,162.764C18.094,162.584 18.432,162.386 18.732,162.326Z"/>
            <path d="M18.77,155.311C14.724,155.344 10.675,158.553 10.829,162.023L10.829,206.609C10.829,226.688 27.491,240.607 47.209,242.989C66.572,245.328 80.883,241.578 94.101,234.763C107.144,228.039 112.991,266.252 117.1,256.9C119.685,251.018 132.037,243.737 149.585,244.696L150,244.72L150.415,244.696C167.963,243.737 180.315,251.018 182.9,256.9C187.009,266.252 192.856,228.039 205.899,234.763C219.117,241.578 233.428,245.328 252.791,242.989C272.509,240.607 289.171,226.688 289.171,206.609L289.171,162.023C289.325,158.553 285.276,155.344 281.23,155.311L150,164.413L18.77,155.311ZM283.171,162.257L283.171,206.609C283.171,223.588 268.745,235.018 252.072,237.032C234.142,239.198 220.887,235.74 208.648,229.43C203.704,226.881 199.3,227.666 195.364,230.528C191.59,233.273 188.257,238.745 185.636,244.229C185.022,245.513 184.321,246.959 183.653,248.325C182.184,247.006 180.416,245.727 178.353,244.562C171.787,240.854 162.006,238.053 150.088,238.704L150.088,238.719L150.055,238.716L150.055,238.706L150.055,238.716L149.912,238.704C137.994,238.053 128.213,240.854 121.647,244.562C119.584,245.727 117.816,247.006 116.347,248.325C115.679,246.959 114.978,245.513 114.364,244.229C111.743,238.745 108.41,233.273 104.636,230.528C100.7,227.666 96.296,226.881 91.352,229.43C79.113,235.74 65.858,239.198 47.928,237.032C31.255,235.018 16.829,223.588 16.829,206.609L16.829,162.257C17.112,162.042 18.004,161.406 18.683,161.321L18.688,161.32L149.585,170.399C149.861,170.418 150.139,170.418 150.415,170.399L281.312,161.32C281.994,161.406 282.888,162.043 283.171,162.257Z" style="fill:#292929;"/>
        </g>
        <g>
            <path d="M150,70.297L150,192.883C102.128,187.269 45.277,172.178 2.902,160.281L16.218,128.806L65.733,133.448L75.869,122.297L70.415,91.388L150,70.297Z" style="fill:#5d5d5d;"/>
            <path d="M16.218,128.806L2.902,160.281C56.758,175.282 109.574,189.393 150,192.883L16.218,128.806Z" style="fill:#6c6c6c;"/>
            <path d="M65.733,133.448L75.869,122.297L123.639,174.333L65.733,133.448Z" style="fill:#464646;"/>
            <g transform="matrix(-1,0,0,1,300,0)">
                <path d="M150,70.297L150,192.883C102.128,187.269 45.277,172.178 2.902,160.281L16.218,128.806L65.733,133.448L75.869,122.297L70.415,91.388L150,70.297Z" style="fill:#5d5d5d;"/>
            </g>
            <g transform="matrix(-1,0,0,1,300,0)">
                <path d="M16.218,128.806L2.902,160.281C56.758,175.282 109.574,189.393 150,192.883L16.218,128.806Z" style="fill:#6c6c6c;"/>
            </g>
            <g transform="matrix(-1,0,0,1,300,0)">
                <path d="M65.733,133.448L75.869,122.297L123.639,174.333L65.733,133.448Z" style="fill:#464646;"/>
            </g>
        </g>
        <g>
            <g transform="matrix(1,0,0,1,0,7)">
                <path d="M150,189.532L6.903,10.49L6.903,3.49L150,111.944L293.097,3.49L293.097,10.49L150,189.532Z" style="fill:#b8b8b8;"/>
            </g>
            <path d="M150,192.883L6.903,10.49L150,111.944L293.097,10.49L150,192.883Z" style="fill:#e2e2e2;"/>
            <path d="M150,192.883L6.903,10.49L150,145.285L293.097,10.49L150,192.883Z" style="fill:#fff;"/>
            <path d="M150,192.883L120.387,155.138L130.328,97.997L150,111.944L170.11,97.686L180.099,154.518L150,192.883Z" style="fill:#cbc8c8;"/>
            <path d="M150,192.883L120.387,155.138L126.101,122.297L150,143.058L174.436,122.297L180.099,154.518L150,192.883Z" style="fill:#b8b8b8;"/>
        </g>
        <g>
            <g transform="matrix(1,0,0,1,-10.1144,5.35272)">
                <path d="M160.114,10.49L185.751,165.053L160.114,192.883L134.478,165.053L160.114,10.49Z" style="fill:#82000b;"/>
            </g>
            <path d="M152.459,190.946L154.991,79.535L171.375,168.753L152.459,190.946Z" style="fill:#a9000e;"/>
        </g>
    </g>
    <defs>
        <linearGradient id="_Linear1" x1="0" y1="0" x2="1" y2="0" gradientUnits="userSpaceOnUse" gradientTransform="matrix(222.545,41.1292,-17.4835,94.6011,37.6283,180.735)"><stop offset="0" style="stop-color:#00ff2d;stop-opacity:0.9"/><stop offset="0.25" style="stop-color:#8aff89;stop-opacity:0.9"/><stop offset="0.5" style="stop-color:#b9ffa8;stop-opacity:0.9"/><stop offset="1" style="stop-color:#b4ff50;stop-opacity:0.9"/></linearGradient>
    </defs>
</svg>
