<?xml version="1.0" encoding="UTF-8" standalone="no"?>
<!DOCTYPE svg PUBLIC "-//W3C//DTD SVG 1.1//EN" "http://www.w3.org/Graphics/SVG/1.1/DTD/svg11.dtd">
<svg width="100%" height="100%" viewBox="0 0 300 345" version="1.1" xmlns="http://www.w3.org/2000/svg" xmlns:xlink="http://www.w3.org/1999/xlink" xml:space="preserve" xmlns:serif="http://www.serif.com/" style="fill-rule:evenodd;clip-rule:evenodd;stroke-linejoin:round;stroke-miterlimit:2;">
    <g id="avatar_hat_29">
        <g>
            <path d="M85.85,45C88.75,37.312 96.077,31.784 104.72,31.524C111.446,13.158 129.467,0 150.618,0C168.448,0 184.054,9.351 192.544,23.289C194.744,22.95 197.013,22.772 199.331,22.772C216.253,22.772 230.485,32.227 234.49,45L85.85,45Z" style="fill:#990d13;"/>
            <path d="M166.781,33.997C177.043,33.852 183.942,37.335 186.962,45L118.231,45C122.227,38.13 127.242,33.767 134.123,33.997L166.781,33.997Z" style="fill:#7b0005;"/>
            <path d="M133.992,45L134.304,33.997C130.498,27.279 116.294,30.979 104.72,31.524C104.72,31.524 104.735,31.482 104.743,31.461C106.056,27.892 107.796,24.52 109.902,21.404C118.615,8.514 133.604,0 150.618,0C168.429,0 184.02,9.33 192.516,23.243C192.525,23.258 192.544,23.289 192.544,23.289C181.979,24.646 167.418,30.339 166.809,33.997L167.119,45L133.992,45Z" style="fill:#b10b11;"/>
        </g>
        <g>
            <g transform="matrix(0.523929,0,0,1.17742,71.5201,-9.28343)">
                <path d="M189.835,40.65C189.835,38.503 185.917,36.759 181.09,36.759L118.492,36.759C113.665,36.759 109.747,38.503 109.747,40.65L109.747,48.433C109.747,50.581 113.665,52.325 118.492,52.325L181.09,52.325C185.917,52.325 189.835,50.581 189.835,48.433L189.835,40.65Z" style="fill:#eb9e25;"/>
            </g>
            <path d="M18.77,155.311C14.724,155.344 10.675,158.553 10.829,162.023L10.829,206.609L92.727,235.458L92.727,298.39L36.38,298.39C16.301,298.39 0,282.089 0,262.01L0,81.38C0,61.301 16.301,45 36.38,45L263.62,45C283.699,45 300,61.301 300,81.38L300,262.01C300,282.089 283.699,298.39 263.62,298.39L207.273,298.39L207.273,235.458L289.171,206.609L289.171,162.023C289.325,158.553 285.276,155.344 281.23,155.311L150,195.322L18.77,155.311Z" style="fill:#b3b3b3;"/>
            <g transform="matrix(-1,0,0,1,298.197,0)">
                <g transform="matrix(1,0,0,1,7.21922,-7.21922)">
                    <path d="M275.065,292.55L275.572,239.774L287.51,234.895L287.557,261.213C287.474,277.726 283.66,283.56 275.065,292.55Z" style="fill:#8e8e8e;"/>
                </g>
                <path d="M229.091,290.446L229.091,252.509L269.847,237.472L268.239,289.436L229.091,290.446Z" style="fill:#ccc;"/>
                <path d="M233.874,285.331L233.874,259.464L240.042,257.205L240.215,285.144L233.874,285.331Z" style="fill:#ddd;"/>
            </g>
            <g transform="matrix(1,0,0,1,1.36815,0)">
                <g transform="matrix(1,0,0,1,7.21922,-7.21922)">
                    <path d="M275.065,292.55L275.572,239.774L287.51,234.895L287.557,261.213C287.474,277.726 283.66,283.56 275.065,292.55Z" style="fill:#8e8e8e;"/>
                </g>
                <path d="M229.091,290.446L229.091,252.509L269.847,237.472L268.239,289.436L229.091,290.446Z" style="fill:#ccc;"/>
                <path d="M233.874,285.331L233.874,259.464L240.042,257.205L240.215,285.144L233.874,285.331Z" style="fill:#ddd;"/>
            </g>
            <path d="M0,81.38L119.986,45L179.605,45L300,81.339L300,96.746L149.728,51.776L0,95.543L0,81.38Z" style="fill:#a4a4a4;"/>
            <path d="M170.98,42.397L170.98,45L129.02,45L129.02,42.261L149.728,35.982L170.98,42.397Z" style="fill:#b77610;"/>
            <path d="M21.607,157.423L21.607,206.628L91.617,232.823C93.52,233.534 94.679,235.366 94.628,237.289C94.629,237.331 94.63,237.372 94.63,237.414L94.63,296.869C94.63,297.401 94.374,298.39 94.374,298.39L76.34,298.39C76.34,298.39 76.084,297.401 76.084,296.869L76.084,250.664L6.074,224.469C4.193,223.766 3.038,221.967 3.062,220.067C3.061,220.046 3.061,220.025 3.061,220.004L3.061,151.354L21.607,157.423ZM278.085,157.423L278.085,206.628L208.074,232.823C206.172,233.534 205.012,235.366 205.063,237.289C205.062,237.331 205.061,237.372 205.061,237.414L205.061,296.869C205.061,297.401 205.317,298.39 205.317,298.39L223.351,298.39C223.351,298.39 223.607,297.401 223.607,296.869L223.607,250.664L293.618,224.469C295.499,223.766 296.654,221.967 296.63,220.067C296.63,220.046 296.63,220.025 296.63,220.004L296.63,151.354L278.085,157.423Z" style="fill:#a4a4a4;"/>
        </g>
        <g>
            <path d="M292.124,154.152L292.124,216.152C292.124,216.173 292.124,216.194 292.123,216.215C292.147,218.115 290.992,219.914 289.111,220.617L219.101,246.812L219.101,296.869C219.101,299.428 217.023,301.505 214.464,301.505L205.192,301.505C202.633,301.505 200.555,299.428 200.555,296.869L200.555,237.414C200.555,237.372 200.556,237.331 200.557,237.289C200.506,235.366 201.665,233.534 203.568,232.823L273.578,206.628L273.578,160.222L292.124,154.152ZM26.422,160.196L26.422,206.628L96.432,232.823C98.335,233.534 99.494,235.366 99.443,237.289C99.444,237.331 99.445,237.372 99.445,237.414L99.445,296.869C99.445,299.428 97.367,301.505 94.808,301.505L85.536,301.505C82.977,301.505 80.899,299.428 80.899,296.869L80.899,246.812L10.889,220.617C9.008,219.914 7.853,218.115 7.877,216.215C7.876,216.194 7.876,216.173 7.876,216.152L7.876,154.127L26.422,160.196Z" style="fill:#eb9e25;"/>
            <path d="M292.124,163.403L278.17,167.41L278.17,209.184L205.192,237.438L205.192,301.505C202.633,301.505 200.555,299.428 200.555,296.869L200.555,237.414C200.555,237.372 200.556,237.331 200.557,237.289C200.506,235.366 201.665,233.534 203.568,232.823L273.578,206.628L273.578,160.222L292.124,154.152L292.124,163.403ZM85.536,301.505C82.977,301.505 80.899,299.428 80.899,296.869L80.899,246.812L10.889,220.617C9.008,219.914 7.853,218.115 7.877,216.215C7.876,216.194 7.876,216.173 7.876,216.152L7.876,154.127L26.422,160.196L26.422,173.91L26.252,173.827L11.137,167.31L11.137,216.815L85.536,244.41L85.536,301.505Z" style="fill:#b77610;"/>
            <path d="M97.487,296.549L97.487,237.464C97.487,236.213 96.711,235.094 95.539,234.655L24.158,207.917C24.158,207.917 24.15,185.891 24.15,185.891C24.149,184.236 22.805,182.892 21.149,182.892C19.493,182.893 18.149,184.238 18.15,185.894L18.159,209.998C18.16,211.249 18.936,212.368 20.107,212.807L91.487,239.544C91.487,239.544 91.487,296.549 91.487,296.549C91.487,298.205 92.831,299.549 94.487,299.549C96.143,299.549 97.487,298.205 97.487,296.549ZM217.237,296.549L217.237,245.446C217.237,245.446 287.997,218.667 287.997,218.667C289.163,218.226 289.935,217.109 289.935,215.861L289.935,172.5C289.935,170.844 288.59,169.5 286.935,169.5C285.279,169.5 283.935,170.844 283.935,172.5L283.935,213.789C283.935,213.789 213.175,240.568 213.175,240.568C212.009,241.01 211.237,242.127 211.237,243.374L211.237,296.549C211.237,298.205 212.581,299.549 214.237,299.549C215.893,299.549 217.237,298.205 217.237,296.549Z" style="fill:#ffbf00;"/>
        </g>
        <g>
            <path d="M0,149.328L0,91.957L36.677,79.954L147.998,43.464C148.617,43.176 149.301,43.025 150,43.033C150.699,43.025 151.382,43.176 152.002,43.464L257.261,77.967C257.404,77.999 257.547,78.038 257.69,78.085L300,91.931L300,149.353L257.69,163.2C257.547,163.247 257.404,163.286 257.261,163.318L152.002,197.821C151.382,198.108 150.699,198.26 150,198.252C149.301,198.26 148.617,198.108 147.998,197.821L36.677,161.331L0,149.328Z" style="fill:#b3b3b3;"/>
            <path d="M150,41.002L150,198.962L9.476,152.863L50.953,162.194L50.953,80.372L12.651,86.235L150,41.002ZM150.047,41.002L150.047,198.962L290.571,152.863L249.094,162.194L249.094,80.372L287.396,86.235L150.047,41.002ZM117.585,79.785L117.585,166.462C117.641,169.59 120.694,173.348 124.547,174.214C129.15,174.752 132.83,172.457 132.861,169.898L132.861,77.447C132.803,74.468 129.111,71.926 124.447,72.65C120.175,73.313 117.505,76.709 117.585,79.785ZM182.463,79.785L182.463,166.462C182.406,169.59 179.353,173.348 175.5,174.214C170.897,174.752 167.218,172.457 167.186,169.898L167.186,77.447C167.244,74.468 170.936,71.926 175.6,72.65C179.872,73.313 182.542,76.709 182.463,79.785ZM86.523,89.422L86.523,157.607C86.791,160.974 88.876,164.596 94.854,164.898C101.427,165.23 103.8,162.319 104.202,157.586L104.202,86.715C104.094,82.217 99.144,79.957 94.067,81.167C89.591,82.234 86.455,85.225 86.523,89.422ZM213.525,89.422L213.525,157.607C213.256,160.974 211.171,164.596 205.194,164.898C198.621,165.23 196.247,162.319 195.845,157.586L195.845,86.715C195.953,82.217 200.903,79.957 205.98,81.167C210.456,82.234 213.592,85.225 213.525,89.422ZM57.125,101.799L57.125,144.169C57.073,150.259 60.368,154.13 66.199,155.069C71.578,155.936 77.782,152.158 77.578,146.953L77.578,98.668C77.43,93 73.298,90.285 66.827,91.226C60.849,92.094 57.385,95.726 57.125,101.799ZM242.922,101.799L242.922,144.169C242.974,150.259 239.68,154.13 233.849,155.069C228.469,155.936 222.265,152.158 222.469,146.953L222.469,98.668C222.617,93 226.749,90.285 233.22,91.226C239.198,92.094 242.662,95.726 242.922,101.799Z" style="fill:#ccc;"/>
            <path d="M156.348,51.776L156.348,185.245L161.934,69.687C161.661,64.882 163.542,63.039 166.556,62.754L196.601,64.873L156.348,51.776ZM143.108,51.776L143.108,185.245L137.523,69.687C137.796,64.882 135.915,63.039 132.9,62.754L102.855,64.873L143.108,51.776ZM186.045,138.392L186.045,78.688L190.668,80.667L186.045,138.392ZM113.411,138.392L113.411,78.688L108.788,80.667L113.411,138.392ZM216.681,126.475L217.297,89.989L220.748,91.222L216.681,126.475ZM82.776,126.475L82.159,89.989L78.708,91.222L82.776,126.475Z" style="fill:#ddd;"/>
            <path d="M182.949,165.161L182.949,80.928C182.949,76.877 180.26,73.589 176.949,73.589C173.637,73.589 170.949,76.877 170.949,80.928L170.949,165.161C170.949,169.212 173.637,172.5 176.949,172.5C180.26,172.5 182.949,169.212 182.949,165.161ZM117.051,165.161L117.051,80.928C117.051,76.877 119.74,73.589 123.051,73.589C126.363,73.589 129.051,76.877 129.051,80.928L129.051,165.161C129.051,169.212 126.363,172.5 123.051,172.5C119.74,172.5 117.051,169.212 117.051,165.161ZM214.017,155.373L214.017,90.716C214.017,86.666 211.329,83.377 208.017,83.377C204.706,83.377 202.017,86.666 202.017,90.716L202.017,155.373C202.017,159.423 204.706,162.712 208.017,162.712C211.329,162.712 214.017,159.423 214.017,155.373ZM85.983,155.373L85.983,90.716C85.983,86.666 88.671,83.377 91.983,83.377C95.294,83.377 97.983,86.666 97.983,90.716L97.983,155.373C97.983,159.423 95.294,162.712 91.983,162.712C88.671,162.712 85.983,159.423 85.983,155.373ZM243.241,144.87L243.241,101.218C243.241,97.168 240.552,93.88 237.241,93.88C233.929,93.88 231.241,97.168 231.241,101.218L231.241,144.87C231.241,148.921 233.929,152.209 237.241,152.209C240.552,152.209 243.241,148.921 243.241,144.87ZM56.759,144.87L56.759,101.218C56.759,97.168 59.448,93.88 62.759,93.88C66.071,93.88 68.759,97.168 68.759,101.218L68.759,144.87C68.759,148.921 66.071,152.209 62.759,152.209C59.448,152.209 56.759,148.921 56.759,144.87ZM271.561,135.068L271.561,111.021C271.561,106.97 268.872,103.682 265.561,103.682C262.249,103.682 259.561,106.97 259.561,111.021L259.561,135.068C259.561,139.119 262.249,142.407 265.561,142.407C268.872,142.407 271.561,139.119 271.561,135.068ZM28.439,135.068L28.439,111.021C28.439,106.97 31.128,103.682 34.439,103.682C37.751,103.682 40.439,106.97 40.439,111.021L40.439,135.068C40.439,139.119 37.751,142.407 34.439,142.407C31.128,142.407 28.439,139.119 28.439,135.068Z" style="fill:#4c4c4c;"/>
            <path d="M182.949,165.161L182.949,80.928C182.949,76.877 180.26,73.589 176.949,73.589C173.637,73.589 170.949,76.877 170.949,80.928L170.949,165.161C170.949,169.212 173.637,172.5 176.949,172.5C180.26,172.5 182.949,169.212 182.949,165.161ZM117.051,165.161L117.051,80.928C117.051,76.877 119.74,73.589 123.051,73.589C126.363,73.589 129.051,76.877 129.051,80.928L129.051,165.161C129.051,169.212 126.363,172.5 123.051,172.5C119.74,172.5 117.051,169.212 117.051,165.161ZM179.949,165.161C179.949,167.415 178.791,169.5 176.949,169.5C175.106,169.5 173.949,167.415 173.949,165.161C173.949,165.161 173.949,80.928 173.949,80.928C173.949,78.674 175.106,76.589 176.949,76.589C178.791,76.589 179.949,78.674 179.949,80.928L179.949,165.161ZM120.051,165.161L120.051,80.928C120.051,78.674 121.209,76.589 123.051,76.589C124.894,76.589 126.051,78.674 126.051,80.928L126.051,165.161C126.051,167.415 124.894,169.5 123.051,169.5C121.209,169.5 120.051,167.415 120.051,165.161ZM214.017,155.373L214.017,90.716C214.017,86.666 211.329,83.377 208.017,83.377C204.706,83.377 202.017,86.666 202.017,90.716L202.017,155.373C202.017,159.423 204.706,162.712 208.017,162.712C211.329,162.712 214.017,159.423 214.017,155.373ZM85.983,155.373L85.983,90.716C85.983,86.666 88.671,83.377 91.983,83.377C95.294,83.377 97.983,86.666 97.983,90.716L97.983,155.373C97.983,159.423 95.294,162.712 91.983,162.712C88.671,162.712 85.983,159.423 85.983,155.373ZM211.017,155.373C211.017,157.627 209.86,159.712 208.017,159.712C206.175,159.712 205.017,157.627 205.017,155.373C205.017,155.373 205.017,90.716 205.017,90.716C205.017,88.462 206.175,86.377 208.017,86.377C209.86,86.377 211.017,88.462 211.017,90.716L211.017,155.373ZM88.983,155.373L88.983,90.716C88.983,88.462 90.14,86.377 91.983,86.377C93.825,86.377 94.983,88.462 94.983,90.716L94.983,155.373C94.983,157.627 93.825,159.712 91.983,159.712C90.14,159.712 88.983,157.627 88.983,155.373ZM243.241,144.87L243.241,101.218C243.241,97.168 240.552,93.88 237.241,93.88C233.929,93.88 231.241,97.168 231.241,101.218L231.241,144.87C231.241,148.921 233.929,152.209 237.241,152.209C240.552,152.209 243.241,148.921 243.241,144.87ZM56.759,144.87L56.759,101.218C56.759,97.168 59.448,93.88 62.759,93.88C66.071,93.88 68.759,97.168 68.759,101.218L68.759,144.87C68.759,148.921 66.071,152.209 62.759,152.209C59.448,152.209 56.759,148.921 56.759,144.87ZM240.241,144.871C240.241,147.124 239.084,149.209 237.241,149.209C235.398,149.209 234.241,147.124 234.241,144.87C234.241,144.87 234.241,101.218 234.241,101.218C234.241,98.964 235.398,96.88 237.241,96.88C239.084,96.88 240.241,98.964 240.241,101.218L240.241,144.871ZM59.759,144.87L59.759,101.218C59.759,98.964 60.916,96.88 62.759,96.88C64.602,96.88 65.759,98.964 65.759,101.218L65.759,144.87C65.759,147.124 64.602,149.209 62.759,149.209C60.916,149.209 59.759,147.124 59.759,144.87ZM271.561,135.068L271.561,111.021C271.561,106.97 268.872,103.682 265.561,103.682C262.249,103.682 259.561,106.97 259.561,111.021L259.561,135.068C259.561,139.119 262.249,142.407 265.561,142.407C268.872,142.407 271.561,139.119 271.561,135.068ZM28.439,135.068L28.439,111.021C28.439,106.97 31.128,103.682 34.439,103.682C37.751,103.682 40.439,106.97 40.439,111.021L40.439,135.068C40.439,139.119 37.751,142.407 34.439,142.407C31.128,142.407 28.439,139.119 28.439,135.068ZM268.561,135.068C268.561,137.322 267.403,139.407 265.561,139.407C263.718,139.407 262.561,137.322 262.561,135.068C262.561,135.068 262.561,111.021 262.561,111.021C262.561,108.767 263.718,106.682 265.561,106.682C267.403,106.682 268.561,108.767 268.561,111.021L268.561,135.068ZM31.439,135.068L31.439,111.021C31.439,108.767 32.597,106.682 34.439,106.682C36.282,106.682 37.439,108.767 37.439,111.021C37.439,111.021 37.439,135.068 37.439,135.068C37.439,137.322 36.282,139.407 34.439,139.407C32.597,139.407 31.439,137.322 31.439,135.068Z" style="fill:#8e8e8e;"/>
            <path d="M0,151.549L0,89.18L36.677,77.177L147.998,40.687C148.617,40.4 149.301,40.248 150,40.256C150.699,40.248 151.382,40.4 152.002,40.687L257.261,75.19C257.404,75.222 257.547,75.261 257.69,75.308L300,89.155L300,151.575L257.69,165.422C257.547,165.468 257.404,165.508 257.261,165.54L152.002,200.042C151.382,200.33 150.699,200.482 150,200.473C149.301,200.481 148.617,200.33 147.998,200.042L36.677,163.552L0,151.549ZM148,44.896L148,195.833L37.921,159.751L4,148.65L4,92.08L37.923,80.978L148,44.896ZM152,44.896L256.015,78.991L256.445,79.11C256.445,79.11 296,92.055 296,92.055L296,148.675C296,148.675 256.445,161.62 256.445,161.62L256.015,161.739L152,195.833L152,44.896Z" style="fill:#8e8e8e;"/>
            <path d="M273.602,152.161L292.994,145.654L292.994,95.156L267.225,87.477L286.528,98.41L285.763,143.962L273.602,152.161Z" style="fill:#8e8e8e;"/>
            <g transform="matrix(-1,0,0,1,299.921,0)">
                <path d="M273.602,152.161L292.994,145.654L292.994,95.156L267.225,87.477L286.528,98.41L285.763,143.962L273.602,152.161Z" style="fill:#8e8e8e;"/>
            </g>
        </g>
    </g>
</svg>
