<?xml version="1.0" encoding="UTF-8" standalone="no"?>
<!DOCTYPE svg PUBLIC "-//W3C//DTD SVG 1.1//EN" "http://www.w3.org/Graphics/SVG/1.1/DTD/svg11.dtd">
<svg width="100%" height="100%" viewBox="0 0 300 345" version="1.1" xmlns="http://www.w3.org/2000/svg" xmlns:xlink="http://www.w3.org/1999/xlink" xml:space="preserve" xmlns:serif="http://www.serif.com/" style="fill-rule:evenodd;clip-rule:evenodd;stroke-linejoin:round;stroke-miterlimit:2;">
    <g id="avatar_hat_21">
        <path d="M269.931,45.86L31.902,45.86C32.07,8.872 30.662,2.232 52.679,3.037L251.735,3.037C273.752,2.232 269.763,8.872 269.931,45.86Z" style="fill:#969696;"/>
        <path d="M270.11,24.418C270.084,30.074 269.891,37.12 269.931,45.86L31.902,45.86C31.942,37.12 31.894,30.074 32.087,24.418L120.266,24.418L120.246,3.037L181.881,3.037L181.75,24.418L270.11,24.418Z" style="fill:#848484;fill-opacity:0.5;"/>
        <path d="M269.931,45.86L31.902,45.86C32.07,8.872 30.662,2.232 52.679,3.037L251.735,3.037C273.752,2.232 269.763,8.872 269.931,45.86ZM267.926,43.86L33.91,43.86C33.954,29.643 33.8,20.186 35.09,14.028C35.854,10.381 37.094,8.029 39.491,6.686C42.325,5.098 46.498,4.812 52.606,5.036C52.631,5.037 52.655,5.037 52.679,5.037L251.735,5.037C251.759,5.037 251.783,5.037 251.808,5.036C255.584,4.898 258.557,4.975 260.895,5.424C262.864,5.802 264.324,6.427 265.365,7.514C266.844,9.059 267.462,11.416 267.805,14.778C268.437,20.986 267.917,30.259 267.926,43.86L267.926,43.86Z" style="fill:#858585;"/>
        <g transform="matrix(1,0,0,1,-8.42694,0)">
            <path d="M188.176,3.645C188.176,1.633 186.543,0 184.532,0L134.338,0C132.326,0 130.693,1.633 130.693,3.645L130.693,36.417C130.693,38.429 132.326,40.062 134.338,40.062L184.532,40.062C186.543,40.062 188.176,38.429 188.176,36.417L188.176,3.645Z" style="fill:#a8aaab;"/>
        </g>
        <path d="M179.75,21.45L122.266,21.45L122.266,36.417C122.266,38.429 123.899,40.062 125.911,40.062L176.105,40.062C178.116,40.062 179.75,38.429 179.75,36.417L179.75,21.45Z" style="fill:#969696;fill-opacity:0.5;"/>
        <g transform="matrix(1,0,0,1,-8.42694,0)">
            <path d="M188.176,3.645C188.176,1.633 186.543,0 184.532,0L134.338,0C132.326,0 130.693,1.633 130.693,3.645L130.693,36.417C130.693,38.429 132.326,40.062 134.338,40.062L184.532,40.062C186.543,40.062 188.176,38.429 188.176,36.417L188.176,3.645ZM186.176,3.645L186.176,36.417C186.176,37.325 185.439,38.062 184.532,38.062C184.532,38.062 134.338,38.062 134.338,38.062C133.43,38.062 132.693,37.325 132.693,36.417C132.693,36.417 132.693,3.645 132.693,3.645C132.693,2.737 133.43,2 134.338,2L184.532,2C185.439,2 186.176,2.737 186.176,3.645Z" style="fill:#858585;"/>
        </g>
        <path d="M263.62,30.79L36.38,30.79C16.423,30.79 -0,47.213 0,67.17L0,119.76C-0,99.803 16.423,83.38 36.38,83.38L263.62,83.38C283.577,83.38 300,99.803 300,119.76L300,67.17C300,47.213 283.577,30.79 263.62,30.79Z" style="fill:#b9bbbd;fill-rule:nonzero;"/>
        <path d="M0,93.177L0.077,92.995C6.315,78.413 23.977,69.636 37.114,69.636L263.909,69.636C276.378,69.636 292.922,77.542 299.907,90.814L300,90.993L300,119.76C300,99.803 283.577,83.38 263.62,83.38L36.38,83.38C16.423,83.38 -0,99.803 0,119.76L0,93.177Z" style="fill:#969696;fill-rule:nonzero;"/>
        <path d="M37.114,69.636C23.977,69.636 6.315,78.413 0.077,92.995C0.051,93.056 -0,93.177 -0,93.177L-0,88.742C-0,88.742 0.056,88.647 0.084,88.599C7.092,76.689 21.41,68.942 33.466,67.636L267.557,67.636C279.049,68.881 292.596,75.997 299.909,86.956C299.939,87.002 300,87.094 300,87.094L300,90.993C300,90.993 299.938,90.874 299.907,90.814C292.922,77.542 276.378,69.636 263.909,69.636L37.114,69.636Z" style="fill:#858585;"/>
        <path d="M122.266,80.23L122.266,80.407L120.266,80.407L120.266,111.308C120.266,112.916 120.94,114.369 122.021,115.398C122.247,115.757 122.516,116.097 122.829,116.41C122.829,116.41 146.796,140.377 146.796,140.377C149.047,142.628 152.704,142.628 154.955,140.377C154.955,140.377 179.187,116.145 179.187,116.145C179.288,116.044 179.384,115.941 179.476,115.835C180.854,114.809 181.75,113.162 181.75,111.308L181.75,80.407L179.75,80.407L179.75,80.23C179.75,78.218 178.116,76.585 176.105,76.585L125.911,76.585C123.899,76.585 122.266,78.218 122.266,80.23Z" style="fill:#969696;"/>
        <g transform="matrix(1,0,0,1,0,-6.51633)">
            <path d="M123.588,107.861C123.758,108.177 123.976,108.474 124.243,108.741L148.21,132.708C149.681,134.179 152.07,134.179 153.541,132.708L177.773,108.476C177.892,108.358 178.001,108.233 178.1,108.103C179.093,107.452 179.75,106.329 179.75,105.054L179.75,72.281C179.75,70.269 178.116,68.636 176.105,68.636L125.911,68.636C123.899,68.636 122.266,70.269 122.266,72.281L122.266,105.054C122.266,106.183 122.781,107.193 123.588,107.861Z" style="fill:#b9bbbd;"/>
        </g>
        <path d="M181.75,67.636L179.75,67.636L179.75,98.537C179.75,99.812 179.093,100.935 178.1,101.587C178.001,101.717 177.892,101.841 177.773,101.96L153.541,126.192C152.07,127.663 149.681,127.663 148.21,126.192L124.243,102.225C123.976,101.958 123.758,101.661 123.588,101.345C122.781,100.676 122.266,99.666 122.266,98.537L122.266,67.636L120.266,67.636L120.266,98.537C120.266,100.146 120.94,101.598 122.021,102.627C122.247,102.986 122.516,103.326 122.829,103.639C122.829,103.639 146.796,127.606 146.796,127.606C149.047,129.858 152.704,129.858 154.955,127.606C154.955,127.606 179.187,103.374 179.187,103.374C179.288,103.273 179.384,103.17 179.476,103.064C180.854,102.038 181.75,100.391 181.75,98.537L181.75,67.636Z" style="fill:#858585;"/>
        <g transform="matrix(1,0,0,1,-15.0684,0)">
            <g transform="matrix(0.950443,0,0,0.950443,-5.69961,1.83616)">
                <path d="M64.691,30.805C64.869,29.67 65.07,28.677 65.07,28.677L72.001,31.989L72.001,31.989C78.964,34.636 83.917,41.375 83.917,49.262C83.917,59.457 75.64,67.734 65.445,67.734C61.932,67.734 58.647,66.751 55.848,65.045L45.154,59.846L49.047,57.768C47.723,55.221 46.974,52.328 46.974,49.262C46.974,39.32 54.845,31.202 64.691,30.805Z" style="fill:#969696;"/>
                <path d="M64.691,30.805C64.869,29.67 65.07,28.677 65.07,28.677L72.001,31.989C78.964,34.636 83.917,41.375 83.917,49.262C83.917,59.457 75.64,67.734 65.445,67.734C61.932,67.734 58.647,66.751 55.848,65.045L45.154,59.846L49.047,57.768C47.723,55.221 46.974,52.328 46.974,49.262C46.974,39.32 54.845,31.202 64.691,30.805ZM66.669,31.773L71.983,34.313L71.988,34.257C77.769,36.783 81.813,42.554 81.813,49.262C81.813,58.295 74.479,65.629 65.445,65.629C62.333,65.629 59.423,64.759 56.944,63.248L56.768,63.152L49.787,59.759C49.787,59.759 51.875,58.644 51.875,58.644L50.914,56.797C49.741,54.541 49.078,51.978 49.078,49.262C49.078,40.453 56.052,33.259 64.775,32.908L66.501,32.838L66.669,31.773ZM69.934,31.757C69.917,31.765 69.907,31.784 69.904,31.816L72.001,34.093C71.548,33.484 71.088,32.876 70.584,32.308C70.466,32.175 70.178,31.758 69.949,31.753L69.934,31.757Z" style="fill:#858585;"/>
            </g>
            <g transform="matrix(0.908892,0,0,0.908892,-11.9226,-7.324)">
                <circle cx="64.738" cy="56.563" r="19.316" style="fill:#b9bbbd;"/>
                <path d="M64.738,37.246C75.399,37.246 84.055,45.902 84.055,56.563C84.055,67.224 75.399,75.879 64.738,75.879C54.077,75.879 45.422,67.224 45.422,56.563C45.422,45.902 54.077,37.246 64.738,37.246ZM64.738,39.447C74.185,39.447 81.854,47.116 81.854,56.563C81.854,66.009 74.185,73.679 64.738,73.679C55.292,73.679 47.623,66.009 47.623,56.563C47.623,47.116 55.292,39.447 64.738,39.447Z" style="fill:#858585;"/>
            </g>
            <g transform="matrix(1,0,0,1,13.1102,0)">
                <path d="M23.003,52.611C20.861,51.07 9.776,44.084 9.578,26.529C9.379,8.878 24.106,3.043 32.437,2.975C22.71,11.195 22.899,15.549 23.436,19.695C24.106,24.864 29.821,31.101 34.566,31.381C41.238,31.775 46.534,37.316 46.534,44.085C46.534,51.109 40.831,56.812 33.807,56.812C29.769,56.812 25.276,54.247 23.003,52.611Z" style="fill:#7b5e48;stroke:#3e2413;stroke-width:2px;"/>
            </g>
            <g transform="matrix(1,0,0,1,13.1102,0)">
                <path d="M26.767,49.801C28.822,51.264 30.941,52.784 33.266,53.797C33.519,53.908 33.814,53.792 33.924,53.539C34.034,53.286 33.918,52.991 33.665,52.881C31.403,51.895 29.346,50.41 27.347,48.987C27.122,48.827 26.81,48.879 26.65,49.104C26.49,49.329 26.542,49.641 26.767,49.801ZM33.425,52.4C33.839,52.657 34.251,52.917 34.675,53.157C34.915,53.293 35.22,53.209 35.356,52.969C35.493,52.729 35.408,52.424 35.168,52.288C34.756,52.053 34.356,51.801 33.953,51.55C33.718,51.405 33.41,51.477 33.264,51.711C33.118,51.946 33.191,52.254 33.425,52.4ZM40.857,41.09C41.329,41.318 41.798,41.546 42.25,41.813C42.487,41.953 42.794,41.874 42.934,41.636C43.074,41.398 42.995,41.092 42.757,40.951C42.282,40.671 41.789,40.429 41.292,40.189C41.043,40.069 40.744,40.173 40.624,40.422C40.504,40.67 40.608,40.97 40.857,41.09ZM13.477,37.535C13.894,38.626 14.341,39.718 14.955,40.716C15.1,40.951 15.408,41.024 15.643,40.88C15.878,40.735 15.952,40.427 15.807,40.192C15.225,39.247 14.806,38.212 14.411,37.178C14.313,36.92 14.023,36.791 13.766,36.889C13.508,36.988 13.378,37.277 13.477,37.535ZM16.208,39.359C16.285,39.528 16.362,39.696 16.439,39.863C16.555,40.114 16.853,40.223 17.103,40.107C17.353,39.991 17.463,39.693 17.347,39.443C17.27,39.278 17.194,39.112 17.119,38.946C17.005,38.694 16.708,38.583 16.457,38.697C16.205,38.811 16.094,39.108 16.208,39.359ZM38.601,37.705C39.306,38.024 40.019,38.327 40.721,38.653C40.971,38.769 41.269,38.66 41.385,38.41C41.501,38.159 41.392,37.862 41.142,37.746C40.437,37.419 39.721,37.114 39.013,36.794C38.761,36.68 38.465,36.792 38.351,37.043C38.238,37.295 38.349,37.591 38.601,37.705ZM18.241,26.672C18.736,27.663 19.293,28.608 19.89,29.54C20.039,29.772 20.349,29.84 20.581,29.691C20.814,29.542 20.881,29.232 20.732,29C20.154,28.098 19.615,27.184 19.136,26.225C19.012,25.978 18.712,25.878 18.465,26.001C18.218,26.125 18.118,26.425 18.241,26.672ZM19.316,19.193C19.355,22.505 20.341,25.548 22.403,28.163C22.574,28.38 22.888,28.417 23.105,28.246C23.322,28.075 23.359,27.761 23.188,27.544C21.267,25.106 20.352,22.268 20.316,19.181C20.312,18.905 20.086,18.684 19.81,18.687C19.534,18.69 19.312,18.917 19.316,19.193Z" style="fill:#3e2413;fill-opacity:0.5;"/>
            </g>
        </g>
        <g transform="matrix(-1,0,0,1,315.068,0)">
            <g transform="matrix(0.950443,0,0,0.950443,-5.69961,1.83616)">
                <path d="M64.691,30.805C64.869,29.67 65.07,28.677 65.07,28.677L72.001,31.989L72.001,31.989C78.964,34.636 83.917,41.375 83.917,49.262C83.917,59.457 75.64,67.734 65.445,67.734C61.932,67.734 58.647,66.751 55.848,65.045L45.154,59.846L49.047,57.768C47.723,55.221 46.974,52.328 46.974,49.262C46.974,39.32 54.845,31.202 64.691,30.805Z" style="fill:#969696;"/>
                <path d="M64.691,30.805C64.869,29.67 65.07,28.677 65.07,28.677L72.001,31.989C78.964,34.636 83.917,41.375 83.917,49.262C83.917,59.457 75.64,67.734 65.445,67.734C61.932,67.734 58.647,66.751 55.848,65.045L45.154,59.846L49.047,57.768C47.723,55.221 46.974,52.328 46.974,49.262C46.974,39.32 54.845,31.202 64.691,30.805ZM71.094,33.888L66.669,31.773L66.501,32.838L64.775,32.908C56.052,33.259 49.078,40.453 49.078,49.262C49.078,51.978 49.741,54.541 50.914,56.797L51.875,58.644L49.787,59.759C49.787,59.759 56.858,63.196 56.858,63.196L56.944,63.248C59.423,64.759 62.333,65.629 65.445,65.629C74.479,65.629 81.813,58.295 81.813,49.262C81.813,42.273 77.423,36.302 71.253,33.956L72.001,34.093L71.094,33.888Z" style="fill:#858585;"/>
            </g>
            <g transform="matrix(0.908892,0,0,0.908892,-11.9226,-7.324)">
                <circle cx="64.738" cy="56.563" r="19.316" style="fill:#b9bbbd;"/>
                <path d="M64.738,37.246C75.399,37.246 84.055,45.902 84.055,56.563C84.055,67.224 75.399,75.879 64.738,75.879C54.077,75.879 45.422,67.224 45.422,56.563C45.422,45.902 54.077,37.246 64.738,37.246ZM64.738,39.447C55.292,39.447 47.623,47.116 47.623,56.563C47.623,66.009 55.292,73.679 64.738,73.679C74.185,73.679 81.854,66.009 81.854,56.563C81.854,47.116 74.185,39.447 64.738,39.447Z" style="fill:#858585;"/>
            </g>
            <g transform="matrix(1,0,0,1,13.1102,0)">
                <path d="M23.003,52.611C20.861,51.07 9.776,44.084 9.578,26.529C9.379,8.878 24.106,3.043 32.437,2.975C22.71,11.195 22.899,15.549 23.436,19.695C24.106,24.864 29.821,31.101 34.566,31.381C41.238,31.775 46.534,37.316 46.534,44.085C46.534,51.109 40.831,56.812 33.807,56.812C29.769,56.812 25.276,54.247 23.003,52.611Z" style="fill:#7b5e48;stroke:#3e2413;stroke-width:2px;"/>
            </g>
            <g transform="matrix(1,0,0,1,13.1102,0)">
                <path d="M26.767,49.801C28.822,51.264 30.941,52.784 33.266,53.797C33.519,53.908 33.814,53.792 33.924,53.539C34.034,53.286 33.918,52.991 33.665,52.881C31.403,51.895 29.346,50.41 27.347,48.987C27.122,48.827 26.81,48.879 26.65,49.104C26.49,49.329 26.542,49.641 26.767,49.801ZM33.425,52.4C33.839,52.657 34.251,52.917 34.675,53.157C34.915,53.293 35.22,53.209 35.356,52.969C35.493,52.729 35.408,52.424 35.168,52.288C34.756,52.053 34.356,51.801 33.953,51.55C33.718,51.405 33.41,51.477 33.264,51.711C33.118,51.946 33.191,52.254 33.425,52.4ZM40.857,41.09C41.329,41.318 41.798,41.546 42.25,41.813C42.487,41.953 42.794,41.874 42.934,41.636C43.074,41.398 42.995,41.092 42.757,40.951C42.282,40.671 41.789,40.429 41.292,40.189C41.043,40.069 40.744,40.173 40.624,40.422C40.504,40.67 40.608,40.97 40.857,41.09ZM13.477,37.535C13.894,38.626 14.341,39.718 14.955,40.716C15.1,40.951 15.408,41.024 15.643,40.88C15.878,40.735 15.952,40.427 15.807,40.192C15.225,39.247 14.806,38.212 14.411,37.178C14.313,36.92 14.023,36.791 13.766,36.889C13.508,36.988 13.378,37.277 13.477,37.535ZM16.208,39.359C16.285,39.528 16.362,39.696 16.439,39.863C16.555,40.114 16.853,40.223 17.103,40.107C17.353,39.991 17.463,39.693 17.347,39.443C17.27,39.278 17.194,39.112 17.119,38.946C17.005,38.694 16.708,38.583 16.457,38.697C16.205,38.811 16.094,39.108 16.208,39.359ZM38.601,37.705C39.306,38.024 40.019,38.327 40.721,38.653C40.971,38.769 41.269,38.66 41.385,38.41C41.501,38.159 41.392,37.862 41.142,37.746C40.437,37.419 39.721,37.114 39.013,36.794C38.761,36.68 38.465,36.792 38.351,37.043C38.238,37.295 38.349,37.591 38.601,37.705ZM18.241,26.672C18.736,27.663 19.293,28.608 19.89,29.54C20.039,29.772 20.349,29.84 20.581,29.691C20.814,29.542 20.881,29.232 20.732,29C20.154,28.098 19.615,27.184 19.136,26.225C19.012,25.978 18.712,25.878 18.465,26.001C18.218,26.125 18.118,26.425 18.241,26.672ZM19.316,19.193C19.355,22.505 20.341,25.548 22.403,28.163C22.574,28.38 22.888,28.417 23.105,28.246C23.322,28.075 23.359,27.761 23.188,27.544C21.267,25.106 20.352,22.268 20.316,19.181C20.312,18.905 20.086,18.684 19.81,18.687C19.534,18.69 19.312,18.917 19.316,19.193Z" style="fill:#3e2413;fill-opacity:0.5;"/>
            </g>
        </g>
    </g>
</svg>
