<?xml version="1.0" encoding="UTF-8" standalone="no"?>
<!DOCTYPE svg PUBLIC "-//W3C//DTD SVG 1.1//EN" "http://www.w3.org/Graphics/SVG/1.1/DTD/svg11.dtd">
<svg width="100%" height="100%" viewBox="0 0 300 345" version="1.1" xmlns="http://www.w3.org/2000/svg" xmlns:xlink="http://www.w3.org/1999/xlink" xml:space="preserve" xmlns:serif="http://www.serif.com/" style="fill-rule:evenodd;clip-rule:evenodd;stroke-linejoin:round;stroke-miterlimit:2;">
    <g id="avatar_hat_17" transform="matrix(1,0,0,-1,0,343.39)">
        <g transform="matrix(0.988689,0.149978,0.149978,-0.988689,-77.0999,321.612)">
            <path d="M169.225,43.892C169.225,41.21 167.047,39.031 164.364,39.031L148.581,39.031C145.898,39.031 143.72,41.21 143.72,43.892L143.72,53.615C143.72,56.298 145.898,58.476 148.581,58.476L164.364,58.476C167.047,58.476 169.225,56.298 169.225,53.615L169.225,43.892Z"/>
        </g>
        <g transform="matrix(0.998424,-0.0561282,-0.0561282,-0.998424,-59.824,354.475)">
            <path d="M148.193,42.238C144.229,16.566 131.015,11.88 113.042,17.996L142.335,45L148.193,42.238Z"/>
        </g>
        <g transform="matrix(0.568826,-0.822458,-0.822458,-0.568826,35.5449,442.815)">
            <path d="M148.193,42.238C144.229,16.566 131.015,11.88 113.042,17.996L142.335,45L148.193,42.238Z"/>
        </g>
        <path id="base_body_1" d="M36.38,298.39C16.301,298.39 0,282.089 0,262.01L0,176.53C6.253,192.185 14.284,213.466 24.296,223.021C36.668,234.83 263.332,234.83 275.704,223.021C285.716,213.466 294.005,190.854 300,176.53L300,262.01C300,282.089 283.699,298.39 263.62,298.39L36.38,298.39Z"/>
        <g id="base_body_11" serif:id="base_body_1" transform="matrix(1,0,0,-1,0,343.39)">
            <path d="M169.423,111.617C103.879,110.905 31.155,113.822 24.296,120.369L0,118.324L0,105.93L150,45L263.62,45C283.542,45 299.745,61.048 299.997,80.91L300,81.38L169.423,111.617L169.423,111.617Z" style="fill:#141414;"/>
        </g>
        <g id="base_body_12" serif:id="base_body_1" transform="matrix(1,0,0,-1,0,343.39)">
            <path d="M208.826,45L263.62,45C276.322,45 287.513,51.524 294.021,61.401L141.528,111.532C111.742,111.671 82.584,112.547 60.728,114.161L208.826,45Z" style="fill:#1b1b1b;"/>
        </g>
        <g transform="matrix(1.01497,0,0,-1.21277,-4.49087,339.784)">
            <path d="M300,87.933C300,85.968 298.094,84.373 295.746,84.373L8.679,84.373C6.331,84.373 4.425,85.968 4.425,87.933L4.425,95.054C4.425,97.02 6.331,98.615 8.679,98.615L295.746,98.615C298.094,98.615 300,97.02 300,95.054L300,87.933Z" style="fill:#129917;"/>
        </g>
        <g transform="matrix(1.01497,0,0,-0.333333,-4.49087,259.726)">
            <rect x="4.425" y="84.373" width="295.575" height="14.242" style="fill:#215222;"/>
        </g>
    </g>
</svg>
