<?xml version="1.0" encoding="UTF-8" standalone="no"?>
<!DOCTYPE svg PUBLIC "-//W3C//DTD SVG 1.1//EN" "http://www.w3.org/Graphics/SVG/1.1/DTD/svg11.dtd">
<svg width="100%" height="100%" viewBox="0 0 300 345" version="1.1" xmlns="http://www.w3.org/2000/svg" xmlns:xlink="http://www.w3.org/1999/xlink" xml:space="preserve" xmlns:serif="http://www.serif.com/" style="fill-rule:evenodd;clip-rule:evenodd;stroke-linejoin:round;stroke-miterlimit:2;">
    <g id="avatar_hat_40">
        <g>
            <path id="base_body_1" d="M300,230.005L290.67,230.005L290.67,250.956C290.67,271.035 274.369,287.336 254.29,287.336L45.71,287.336C25.631,287.336 9.33,271.035 9.33,250.956L9.33,230.005L0,230.005L0,262.01C0,282.089 16.301,298.39 36.38,298.39L263.62,298.39C283.699,298.39 300,282.089 300,262.01L300,230.005Z" style="fill:#e6e6e6;"/>
            <path id="base_body_11" serif:id="base_body_1" d="M33.574,285.26L30.451,297.908C32.382,298.225 34.362,298.39 36.38,298.39L36.835,298.39L37.891,286.493C36.416,286.169 34.975,285.756 33.574,285.26ZM43.451,287.267L42.464,298.39L48.125,298.39L48.125,287.336L45.71,287.336C44.951,287.336 44.197,287.313 43.451,287.267ZM58.964,298.39L53.731,298.39L53.731,287.336L58.964,287.336L58.964,298.39ZM69.522,298.39L64.57,298.39L64.57,287.336L69.522,287.336L69.522,298.39ZM79.893,298.39L75.128,298.39L75.128,287.336L79.893,287.336L79.893,298.39ZM89.985,298.39L85.5,298.39L85.5,287.336L89.985,287.336L89.985,298.39ZM100.076,298.39L95.591,298.39L95.591,287.336L100.076,287.336L100.076,298.39ZM109.98,298.39L105.682,298.39L105.682,287.336L109.98,287.336L109.98,298.39ZM119.604,298.39L115.586,298.39L115.586,287.336L119.604,287.336L119.604,298.39ZM175.719,298.39L125.21,298.39L125.21,287.336L175.719,287.336L175.719,298.39ZM185.343,298.39L181.325,298.39L181.325,287.336L185.343,287.336L185.343,298.39ZM195.247,298.39L190.949,298.39L190.949,287.336L195.247,287.336L195.247,298.39ZM205.338,298.39L200.853,298.39L200.853,287.336L205.338,287.336L205.338,298.39ZM215.429,298.39L210.945,298.39L210.945,287.336L215.429,287.336L215.429,298.39ZM225.801,298.39L221.036,298.39L221.036,287.336L225.801,287.336L225.801,298.39ZM236.359,298.39L231.407,298.39L231.407,287.336L236.359,287.336L236.359,298.39ZM247.198,298.39L241.965,298.39L241.965,287.336L247.198,287.336L247.198,298.39ZM257.472,287.199C256.424,287.29 255.362,287.336 254.29,287.336L252.804,287.336L252.804,298.39L258.465,298.39L257.472,287.199ZM267.278,284.946C265.898,285.474 264.476,285.921 263.019,286.281L264.093,298.387C266.26,298.359 268.381,298.142 270.439,297.751L267.278,284.946ZM24.363,280.41L18.946,293.942C20.867,294.994 22.894,295.878 25.006,296.574L28.372,282.941C26.978,282.183 25.639,281.337 24.363,280.41ZM276.352,279.877C275.109,280.827 273.805,281.698 272.444,282.484L275.85,296.28C277.932,295.536 279.926,294.608 281.812,293.515L276.352,279.877ZM16.783,273.01L8.262,285.085C10.006,287.207 11.986,289.129 14.161,290.81L19.869,276.554C18.766,275.44 17.735,274.257 16.783,273.01ZM283.695,272.371C282.799,273.598 281.828,274.768 280.788,275.873L286.544,290.251C288.648,288.541 290.557,286.601 292.233,284.469L283.695,272.371ZM11.534,263.446L1.384,271.974C2.208,274.872 3.384,277.624 4.862,280.18L13.52,267.911C12.762,266.477 12.098,264.986 11.534,263.446ZM288.68,262.845C288.168,264.326 287.562,265.763 286.871,267.149L295.55,279.447C296.939,276.912 298.034,274.194 298.79,271.34L288.68,262.845ZM9.359,252.425L0,255.65L0,262.01C0,263.243 0.061,264.461 0.182,265.662L9.915,257.484C9.615,255.832 9.428,254.144 9.359,252.425ZM290.652,252.109C290.603,253.701 290.45,255.268 290.202,256.802L299.884,264.936C299.961,263.973 300,262.996 300,262.01L300,255.33L290.652,252.109ZM9.33,246.505L9.33,230.005L0,230.005L0,249.721L9.33,246.505ZM300,249.401L300,230.005L290.67,230.005L290.67,246.185L300,249.401Z" style="fill:#dadada;"/>
            <g transform="matrix(4.44932,0,0,1.18771,-392.214,-56.0117)">
                <rect x="116.893" y="289.074" width="9.889" height="9.316" style="fill:#b5b5b5;"/>
            </g>
            <g transform="matrix(1,0,0,1,5.47133,0)">
                <g>
                    <g transform="matrix(6.68354,0,0,1,-897.441,0)">
                        <rect x="154.453" y="286.323" width="3.449" height="13.27" style="fill:#3d3e3d;"/>
                    </g>
                    <g transform="matrix(1.03316,0,0,1.15059,-6.36316,-46.0766)">
                        <ellipse cx="144.523" cy="300.429" rx="5.477" ry="2.597" style="fill:#565656;"/>
                    </g>
                    <g transform="matrix(1.03316,0,0,1.15059,-6.36316,-59.3471)">
                        <ellipse cx="144.523" cy="300.429" rx="5.477" ry="2.597" style="fill:#565656;"/>
                    </g>
                    <g transform="matrix(1,0,0,0.912925,33.17,26.4402)">
                        <path d="M131.24,284.923C131.24,283.862 130.453,283 129.484,283L125.973,283C125.004,283 124.217,283.862 124.217,284.923L124.217,298.725C124.217,299.787 125.004,300.648 125.973,300.648L129.484,300.648C130.453,300.648 131.24,299.787 131.24,298.725L131.24,284.923Z" style="fill:#565656;"/>
                    </g>
                    <g transform="matrix(-0.406547,0,0,0.912925,207.216,26.4402)">
                        <path d="M131.24,283.782C131.24,283.35 130.453,283 129.484,283L125.973,283C125.004,283 124.217,283.35 124.217,283.782L124.217,299.866C124.217,300.298 125.004,300.648 125.973,300.648L129.484,300.648C130.453,300.648 131.24,300.298 131.24,299.866L131.24,283.782Z" style="fill:#565656;"/>
                    </g>
                </g>
                <path d="M131.671,299.125L131.671,299.154C131.671,300.123 130.884,300.91 129.915,300.91L126.403,300.91C125.434,300.91 124.647,300.123 124.647,299.154L124.647,286.554C124.647,285.584 125.434,284.798 126.403,284.798L129.915,284.798C130.884,284.798 131.671,285.584 131.671,286.554L131.671,286.644L131.673,286.644C131.718,285.617 132.566,284.798 133.604,284.798L135.649,284.798C135.649,287.934 138.864,290.48 142.824,290.48C146.785,290.48 150,287.934 150,284.798L152.97,284.798L152.97,300.91L150,300.91C150,297.773 146.785,295.227 142.824,295.227C138.864,295.227 135.649,297.773 135.649,300.91L133.604,300.91C132.587,300.91 131.752,300.122 131.676,299.125L131.671,299.125Z" style="fill:#565656;"/>
            </g>
            <g>
                <g transform="matrix(1,0,0,1.03186,1.84563,-3.24721)">
                    <path d="M291.264,129.943C291.264,114.474 278.305,101.915 262.344,101.915L33.965,101.915C18.003,101.915 5.044,114.474 5.044,129.943L5.044,214.026C5.044,229.495 18.003,242.053 33.965,242.053L262.344,242.053C278.305,242.053 291.264,229.495 291.264,214.026L291.264,129.943Z" style="fill:#dce8f6;fill-opacity:0.7;"/>
                </g>
                <g transform="matrix(2.56037,0,-0.427898,0.927945,-129.179,17.763)">
                    <rect x="107.656" y="90.686" width="38.695" height="155.832" style="fill:#fff;fill-opacity:0.5;"/>
                </g>
                <g transform="matrix(-0.958732,0,-0.427898,0.927945,412.371,17.763)">
                    <rect x="107.656" y="90.686" width="38.695" height="155.832" style="fill:#fff;fill-opacity:0.5;"/>
                </g>
            </g>
            <path id="base_body_12" serif:id="base_body_1" d="M300,246.518L286.758,246.518L286.753,245.827L286.753,153.963C286.91,150.313 285.451,147.285 282.964,144.652L256.595,119.234C253.735,116.943 250.449,115.717 246.775,115.46L53.225,115.46C49.551,115.717 46.265,116.943 43.405,119.234L17.036,144.652C14.549,147.285 13.09,150.313 13.247,153.963L13.247,245.827L13.271,246.518L0,246.518L0,81.38L300,81.38L300,246.518Z" style="fill:#6c0a16;"/>
            <path id="base_body_13" serif:id="base_body_1" d="M0,242.053L0,81.38C0,61.301 16.301,45 36.38,45L263.62,45C283.699,45 300,61.301 300,81.38L300,242.053L290.687,242.053L290.909,241.362L290.909,153.963C291.066,150.313 289.607,147.285 287.12,144.652L257.879,115.41C255.018,113.12 251.732,111.893 248.059,111.636L51.941,111.636C48.268,111.893 44.982,113.12 42.121,115.41L12.88,144.652C10.393,147.285 8.934,150.313 9.091,153.963L9.091,241.362L9.313,242.053L0,242.053Z" style="fill:#a10614;"/>
            <g>
                <g transform="matrix(1,0,0,1,0,3.32028)">
                    <path d="M0,250.107L0,252.841L11.856,252.756C14.079,252.756 15.884,250.951 15.884,248.728L15.884,245.122C15.884,242.899 15.044,241.093 12.821,241.093L0,241.178L-0,250.107L0,250.107Z" style="fill:#3d3e3d;"/>
                </g>
                <path d="M0,244.414L0,254.135L10.305,254.135C12.529,254.135 14.334,252.33 14.334,250.107L14.334,248.442C14.334,246.219 12.529,244.414 10.305,244.414L0,244.414Z" style="fill:#565656;"/>
            </g>
            <g transform="matrix(-1,0,0,1,300,0)">
                <g transform="matrix(1,0,0,1,0,3.32028)">
                    <path d="M0,250.107L0,252.841L11.856,252.756C14.079,252.756 15.884,250.951 15.884,248.728L15.884,245.122C15.884,242.899 15.044,241.093 12.821,241.093L0,241.178L-0,250.107L0,250.107Z" style="fill:#3d3e3d;"/>
                </g>
                <path d="M0,244.414L0,254.135L10.305,254.135C12.529,254.135 14.334,252.33 14.334,250.107L14.334,248.442C14.334,246.219 12.529,244.414 10.305,244.414L0,244.414Z" style="fill:#565656;"/>
            </g>
        </g>
        <g>
            <path d="M124.106,93.388C124.106,93.388 120.16,93.861 115.391,91.073C97.97,80.888 28.966,45.755 28.966,45.755C29.013,42.589 31.055,40.919 34.035,40.754L91.645,40.754L132.792,64.463C135.555,65.939 142.805,66.673 150,66.696L150.337,66.695C157.42,66.65 164.488,65.916 167.208,64.463L208.355,40.754L265.965,40.754C268.945,40.919 270.987,42.589 271.034,45.755C271.034,45.755 202.03,80.888 184.609,91.073C179.84,93.861 175.894,93.388 175.894,93.388L124.106,93.388Z" style="fill:#e6e6e6;"/>
            <path d="M31.893,41.199C45.21,49.004 100.12,75.873 115.391,84.801C120.16,87.59 124.106,87.116 124.106,87.116L175.894,87.116C175.894,87.116 179.84,87.59 184.609,84.801C199.88,75.873 254.79,49.004 268.107,41.199C269.883,41.904 270.999,43.424 271.034,45.755C271.034,45.755 202.03,80.888 184.609,91.073C179.84,93.861 175.894,93.388 175.894,93.388L124.106,93.388C124.106,93.388 120.16,93.861 115.391,91.073C97.97,80.888 28.966,45.755 28.966,45.755C29.001,43.424 30.117,41.904 31.893,41.199Z" style="fill:#bebebe;"/>
        </g>
        <g>
            <path id="base_body_14" serif:id="base_body_1" d="M149.718,63.139C143.796,63.101 137.886,62.487 135.612,61.273L107.371,45L111.041,38.63L188.959,38.63L192.629,45L164.388,61.273C162.114,62.487 156.204,63.101 150.282,63.139L150,63.14L149.718,63.139Z" style="fill:#bebebe;"/>
            <path id="base_body_15" serif:id="base_body_1" d="M149.718,55.485C143.796,55.448 137.886,54.834 135.612,53.62L112.098,40.07C109.962,38.688 111.268,37.347 114.173,37.347L185.827,37.347C188.732,37.347 190.038,38.688 187.902,40.07L164.388,53.62C162.114,54.834 156.204,55.448 150.282,55.485L150,55.487L149.718,55.485Z" style="fill:#e6e6e6;"/>
        </g>
        <g>
            <path d="M51.941,110.296C48.268,110.553 44.982,111.779 42.121,114.07L12.88,140.332C11.254,142.054 10.067,143.945 9.484,146.069L0,146.069L0,133.711L8.684,133.711L27.407,113.866L0,113.866L0,92.519L64.12,92.519C66.152,92.519 67.176,94.801 67.135,96.532C67.134,96.574 67.137,96.615 67.138,96.656C67.359,104.964 68.098,104.834 70.974,104.834L112.002,104.834C113.775,104.834 115.604,104.325 116.212,102.795C116.368,102.405 116.392,101.983 116.423,101.519C116.423,99.553 118.02,97.956 119.987,97.956L180.013,97.956C181.98,97.956 183.577,99.553 183.577,101.519C183.608,101.983 183.632,102.405 183.788,102.795C184.396,104.325 186.225,104.834 187.998,104.834L229.026,104.834C231.902,104.834 232.641,104.964 232.862,96.656C232.863,96.615 232.866,96.574 232.865,96.532C232.824,94.801 233.848,92.519 235.88,92.519L300,92.519L300,113.866L272.593,113.866L291.316,133.711L300,133.711L300,146.069L290.516,146.069C289.933,143.945 288.746,142.054 287.12,140.332L257.879,114.07C255.018,111.779 251.732,110.553 248.059,110.296L51.941,110.296Z" style="fill:#bebebe;"/>
            <path d="M51.941,111.636C48.268,111.893 44.982,113.12 42.121,115.41L12.88,144.652C11.254,146.374 10.067,148.265 9.484,150.388L0,150.388L0,138.031L8.684,138.031L27.407,118.186L0,118.186L0,96.839L59.197,96.839C60.817,96.761 62.351,98.333 62.474,100.058C62.482,100.177 62.487,100.295 62.494,100.41C62.955,107.845 65.298,109.154 68.193,109.154L114.584,109.154C116.357,109.154 118.186,108.644 118.794,107.115C118.95,106.725 118.973,106.303 119.005,105.839C119.005,103.872 120.602,102.275 122.569,102.275L177.431,102.275C179.398,102.275 180.995,103.872 180.995,105.839C181.027,106.303 181.05,106.725 181.206,107.115C181.814,108.644 183.643,109.154 185.416,109.154L231.807,109.154C234.702,109.154 237.045,107.845 237.506,100.41C237.513,100.295 237.518,100.177 237.526,100.058C237.649,98.333 239.183,96.761 240.803,96.839L300,96.839L300,118.186L272.593,118.186L291.316,138.031L300,138.031L300,150.388L290.516,150.388C289.933,148.265 288.746,146.374 287.12,144.652L257.879,115.41C255.018,113.12 251.732,111.893 248.059,111.636L51.941,111.636Z" style="fill:#e6e6e6;"/>
        </g>
        <g transform="matrix(1,0,0,1,-0.166683,0)">
            <g transform="matrix(0.999538,0,0,0.476522,-1.10343,53.5389)">
                <path d="M115.867,86.92C115.867,84.095 114.774,81.801 113.427,81.801L73.628,81.801C72.282,81.801 71.188,84.095 71.188,86.92L71.188,97.157C71.188,99.982 72.282,102.275 73.628,102.275L113.427,102.275C114.774,102.275 115.867,99.982 115.867,97.157L115.867,86.92Z" style="fill:#310104;"/>
            </g>
            <g transform="matrix(0.999538,0,0,0.476522,-1.10343,53.5389)">
                <path d="M115.867,86.92C115.867,84.095 114.774,81.801 113.427,81.801L73.628,81.801C72.282,81.801 71.188,84.095 71.188,86.92L71.188,97.157C71.188,99.982 72.282,102.275 73.628,102.275L113.427,102.275C114.774,102.275 115.867,99.982 115.867,97.157L115.867,86.92ZM113.866,86.92L113.866,97.157C113.866,97.665 113.669,98.078 113.427,98.078C113.427,98.078 73.628,98.078 73.628,98.078C73.386,98.078 73.189,97.665 73.189,97.157C73.189,97.157 73.189,86.92 73.189,86.92C73.189,86.411 73.386,85.998 73.628,85.998C73.628,85.998 113.427,85.998 113.427,85.998C113.669,85.998 113.866,86.411 113.866,86.92Z" style="fill:#6f030d;"/>
            </g>
        </g>
        <g transform="matrix(1,0,0,1,115.405,-2.77556e-17)">
            <g transform="matrix(0.999538,0,0,0.476522,-1.10343,53.5389)">
                <path d="M115.867,86.92C115.867,84.095 114.774,81.801 113.427,81.801L73.628,81.801C72.282,81.801 71.188,84.095 71.188,86.92L71.188,97.157C71.188,99.982 72.282,102.275 73.628,102.275L113.427,102.275C114.774,102.275 115.867,99.982 115.867,97.157L115.867,86.92Z" style="fill:#310104;"/>
            </g>
            <g transform="matrix(0.999538,0,0,0.476522,-1.10343,53.5389)">
                <path d="M115.867,86.92C115.867,84.095 114.774,81.801 113.427,81.801L73.628,81.801C72.282,81.801 71.188,84.095 71.188,86.92L71.188,97.157C71.188,99.982 72.282,102.275 73.628,102.275L113.427,102.275C114.774,102.275 115.867,99.982 115.867,97.157L115.867,86.92ZM113.866,86.92L113.866,97.157C113.866,97.665 113.669,98.078 113.427,98.078C113.427,98.078 73.628,98.078 73.628,98.078C73.386,98.078 73.189,97.665 73.189,97.157C73.189,97.157 73.189,86.92 73.189,86.92C73.189,86.411 73.386,85.998 73.628,85.998C73.628,85.998 113.427,85.998 113.427,85.998C113.669,85.998 113.866,86.411 113.866,86.92Z" style="fill:#6f030d;"/>
            </g>
        </g>
        <g transform="matrix(-0.707107,0.707107,-0.707107,-0.707107,497.97,-22.982)">
            <path d="M244.064,97.871L220.861,74.667C216.592,74.667 213.126,78.133 213.126,82.402L213.126,97.871C213.126,102.139 216.592,105.605 220.861,105.605L236.33,105.605C240.599,105.605 244.064,102.139 244.064,97.871Z" style="fill:#dadada;"/>
            <g transform="matrix(0.767993,0,0,0.767993,52.4485,21.9889)">
                <path d="M244.064,97.871L220.861,74.667C216.592,74.667 213.126,78.133 213.126,82.402L213.126,97.871C213.126,102.139 216.592,105.605 220.861,105.605L236.33,105.605C240.599,105.605 244.064,102.139 244.064,97.871Z" style="fill:#2f2f2f;"/>
            </g>
            <g transform="matrix(0.767993,0,0,0.767993,52.4485,21.9889)">
                <path d="M244.064,97.871L220.861,74.667C216.592,74.667 213.126,78.133 213.126,82.402L213.126,97.871C213.126,102.139 216.592,105.605 220.861,105.605L236.33,105.605C240.599,105.605 244.064,102.139 244.064,97.871ZM241.365,98.855C240.906,101.216 238.824,103.001 236.33,103.001C236.33,103.001 220.861,103.001 220.861,103.001C218.029,103.001 215.73,100.702 215.73,97.871L215.73,82.402C215.73,79.907 217.515,77.826 219.876,77.366C219.877,77.366 241.366,98.855 241.366,98.855L241.365,98.855Z" style="fill:#b4b2b2;"/>
            </g>
        </g>
        <g transform="matrix(0.707107,0.707107,0.707107,-0.707107,-197.97,-22.982)">
            <path d="M244.064,97.871L220.861,74.667C216.592,74.667 213.126,78.133 213.126,82.402L213.126,97.871C213.126,102.139 216.592,105.605 220.861,105.605L236.33,105.605C240.599,105.605 244.064,102.139 244.064,97.871Z" style="fill:#dadada;"/>
            <g transform="matrix(0.767993,0,0,0.767993,52.4485,21.9889)">
                <path d="M244.064,97.871L220.861,74.667C216.592,74.667 213.126,78.133 213.126,82.402L213.126,97.871C213.126,102.139 216.592,105.605 220.861,105.605L236.33,105.605C240.599,105.605 244.064,102.139 244.064,97.871Z" style="fill:#2f2f2f;"/>
            </g>
            <g transform="matrix(0.767993,0,0,0.767993,52.4485,21.9889)">
                <path d="M244.064,97.871L220.861,74.667C216.592,74.667 213.126,78.133 213.126,82.402L213.126,97.871C213.126,102.139 216.592,105.605 220.861,105.605L236.33,105.605C240.599,105.605 244.064,102.139 244.064,97.871ZM241.365,98.855C240.906,101.216 238.824,103.001 236.33,103.001C236.33,103.001 220.861,103.001 220.861,103.001C218.029,103.001 215.73,100.702 215.73,97.871L215.73,82.402C215.73,79.907 217.515,77.826 219.876,77.366C219.877,77.366 241.366,98.855 241.366,98.855L241.365,98.855Z" style="fill:#b4b2b2;"/>
            </g>
        </g>
    </g>
</svg>
