<?xml version="1.0" encoding="UTF-8" standalone="no"?>
<!DOCTYPE svg PUBLIC "-//W3C//DTD SVG 1.1//EN" "http://www.w3.org/Graphics/SVG/1.1/DTD/svg11.dtd">
<svg width="100%" height="100%" viewBox="0 0 300 345" version="1.1" xmlns="http://www.w3.org/2000/svg" xmlns:xlink="http://www.w3.org/1999/xlink" xml:space="preserve" xmlns:serif="http://www.serif.com/" style="fill-rule:evenodd;clip-rule:evenodd;stroke-linejoin:round;stroke-miterlimit:2;">
    <g id="avatar_hat_41">
        <g transform="matrix(1,0,0,1,-0.508708,1.49142)">
            <path d="M210.011,95.54C209.765,93.071 209.97,90.623 210.543,88.211C214.467,71.676 231.299,65.627 244.152,57.342C249.285,54.033 254.162,50.06 258.6,45.881C264.877,39.969 270.034,33.248 274.157,25.689C275.516,23.198 276.821,20.68 278.023,18.11C278.447,17.202 278.862,16.291 279.269,15.376C279.411,15.056 279.553,14.735 279.694,14.414C279.764,14.253 279.758,13.84 279.906,13.933C283.412,16.137 284.061,22.443 284.598,26.082C285.555,32.571 285.069,39.125 284.392,45.618C283.755,51.713 282.963,57.816 281.357,63.741C279.785,69.544 278.046,75.526 275.334,80.913C273.354,84.846 270.76,88.276 268.338,91.908L210.011,95.54Z" style="fill:#ffae15;"/>
            <g transform="matrix(1,0,0,1,0.508708,-1.49142)">
                <path d="M243.729,87.07C248.079,71.437 267.329,66.042 282.958,54.721C280.097,65.388 274.303,76.348 262.764,87.883L243.729,87.07Z" style="fill:#df9b1b;"/>
            </g>
            <path d="M278.755,14.064C278.623,14.366 278.489,14.668 278.355,14.97C277.951,15.879 277.538,16.785 277.117,17.686C275.924,20.238 274.628,22.737 273.279,25.21C269.207,32.676 264.114,39.314 257.914,45.153C253.521,49.291 248.693,53.225 243.611,56.501C237.168,60.654 229.73,64.25 223.409,68.876C216.913,73.63 211.591,79.463 209.57,87.98C208.972,90.5 208.759,93.059 209.016,95.639C209.069,96.175 209.536,96.572 210.073,96.538L268.4,92.906C268.712,92.886 268.997,92.722 269.17,92.463C271.615,88.796 274.229,85.332 276.228,81.363C278.969,75.916 280.733,69.87 282.323,64.003C283.942,58.026 284.745,51.87 285.386,45.722C286.073,39.146 286.557,32.508 285.587,25.936C285.257,23.696 284.875,20.472 283.854,17.761C283.108,15.782 282.014,14.077 280.438,13.086C279.928,12.766 279.527,12.889 279.197,13.161C279.087,13.252 278.975,13.382 278.892,13.563C278.844,13.668 278.776,13.969 278.755,14.064ZM280.29,15.54C281.023,16.315 281.559,17.345 281.982,18.466C282.952,21.038 283.295,24.102 283.609,26.228C284.553,32.634 284.066,39.104 283.397,45.514C282.766,51.556 281.984,57.606 280.392,63.48C278.837,69.218 277.123,75.136 274.441,80.463C272.555,84.21 270.102,87.494 267.783,90.941L210.934,94.481C210.832,92.448 211.044,90.432 211.516,88.442C213.419,80.424 218.475,74.965 224.59,70.49C230.879,65.887 238.284,62.315 244.694,58.182C249.878,54.841 254.804,50.83 259.285,46.609C265.64,40.624 270.861,33.82 275.035,26.168C276.403,23.659 277.719,21.122 278.929,18.533C279.356,17.62 279.774,16.703 280.183,15.782L280.29,15.54Z" style="fill:#9d5406;"/>
            <path d="M249.685,90.852C249.944,87.56 250.6,84.254 252.151,81.307C254.4,77.034 258.45,73.627 262.252,70.765C268.548,66.026 275.361,62.076 281.78,57.519C284.526,55.57 287.104,53.426 289.518,51.079C290.315,50.304 291.113,49.53 291.834,48.681C291.939,48.558 292.903,47.344 292.92,47.356C296.505,49.854 295.97,56.566 295.61,60.333C294.586,71.044 291.742,82.194 283.433,89.656L249.685,90.852Z" style="fill:#ffae15;"/>
            <g transform="matrix(1,0,0,1,0.508708,-1.49142)">
                <path d="M272.267,87.883C276.697,79.687 291.122,77.034 294.051,69.291L292.089,77.148L279.481,87.883L272.267,87.883Z" style="fill:#df9b1b;"/>
            </g>
            <path d="M248.688,90.774C248.666,91.058 248.766,91.338 248.963,91.544C249.16,91.749 249.436,91.861 249.721,91.851L283.468,90.656C283.702,90.647 283.926,90.557 284.101,90.4C292.6,82.768 295.558,71.384 296.605,60.428C296.829,58.088 297.105,54.65 296.498,51.716C296.053,49.56 295.127,47.675 293.491,46.535C293.441,46.5 292.721,46.073 292.142,46.72C291.971,46.913 291.168,47.921 291.072,48.034C290.372,48.859 289.595,49.609 288.82,50.362C286.444,52.673 283.905,54.784 281.201,56.704C274.774,61.266 267.954,65.221 261.65,69.967C257.735,72.914 253.582,76.44 251.266,80.841C249.652,83.908 248.957,87.347 248.688,90.774ZM293.04,48.786C293.827,49.649 294.274,50.834 294.54,52.12C295.105,54.854 294.823,58.057 294.614,60.238C293.625,70.589 290.944,81.379 283.031,88.669C283.031,88.67 250.786,89.812 250.786,89.812L250.786,89.812C251.088,87.029 251.724,84.265 253.036,81.773C255.217,77.627 259.165,74.34 262.853,71.564C269.142,66.831 275.947,62.886 282.359,58.335C285.147,56.356 287.764,54.179 290.215,51.796C291.035,50.998 291.855,50.202 292.597,49.329C292.636,49.282 292.83,49.044 293.04,48.786Z" style="fill:#9d5406;"/>
            <path d="M274.501,90.11C278.266,83.144 284.952,80.612 291.173,76.376C293.177,75.011 295.063,73.465 296.731,71.702C297.274,71.127 297.762,70.489 298.221,69.846C298.385,69.617 298.544,69.385 298.699,69.151C298.769,69.045 298.873,68.71 298.908,68.832C299.719,71.637 299.522,74.682 299.144,77.539C298.591,81.706 297.762,86.092 295.958,89.928L274.501,90.11Z" style="fill:#ffae15;"/>
            <g transform="matrix(1,0,0,1,0.508708,-1.49142)">
                <path d="M290.607,88.569C292.451,85.367 297.073,85.056 298.361,80.946L296.549,89.124L290.607,88.569Z" style="fill:#df9b1b;"/>
            </g>
            <path d="M297.848,68.626C297.705,68.841 297.558,69.054 297.408,69.264C296.975,69.87 296.517,70.473 296.004,71.015C294.386,72.726 292.555,74.224 290.61,75.549C284.254,79.877 277.468,82.517 273.621,89.635C273.453,89.946 273.461,90.323 273.644,90.626C273.826,90.929 274.155,91.113 274.509,91.11L295.966,90.928C296.351,90.925 296.699,90.702 296.863,90.354C298.71,86.426 299.569,81.937 300.135,77.67C300.531,74.679 300.717,71.492 299.869,68.554C299.744,68.123 299.475,67.971 299.298,67.892C299.019,67.768 298.71,67.754 298.384,67.94C298.303,67.986 298.212,68.052 298.123,68.15C298.062,68.218 297.895,68.535 297.848,68.626ZM298.374,71.314C298.597,73.335 298.416,75.419 298.152,77.407C297.64,81.27 296.894,85.328 295.312,88.934C295.311,88.934 276.276,89.095 276.276,89.095L276.275,89.096C280.069,83.389 286.115,81.03 291.735,77.202C293.799,75.797 295.74,74.205 297.457,72.389C297.78,72.048 298.084,71.686 298.374,71.314Z" style="fill:#9d5406;"/>
            <path d="M216.177,93.057C216.748,93.022 216.19,93.117 216.754,93.027C216.785,93.022 216.78,93.036 216.802,93.015C216.826,92.991 216.822,92.95 216.833,92.918C216.961,92.515 217.101,92.118 217.247,91.725C218.916,87.211 221.742,83.377 225.161,79.992C230.895,74.315 238.273,69.894 244.727,65.832C250.971,61.895 257.502,57.757 263.211,52.804C267.071,49.454 270.554,45.731 273.336,41.463C274.921,39.015 276.267,36.39 277.322,33.649C277.826,32.34 278.277,31.01 278.635,29.658C278.724,29.319 278.801,28.978 278.875,28.636C279,28.064 279.143,27.499 279.209,26.92C279.278,26.323 279.266,25.753 279.278,25.155C279.312,24.997 279.211,24.841 279.053,24.807C278.895,24.774 278.74,24.875 278.706,25.033C278.485,25.553 278.233,26.028 278.027,26.558C277.73,27.319 277.492,28.098 277.222,28.873C276.821,30.023 276.419,31.174 275.969,32.309C275.669,33.063 275.365,33.815 275.034,34.555C274.113,36.612 273.041,38.596 271.809,40.465C269.111,44.584 265.727,48.165 261.993,51.399C256.351,56.285 249.905,60.376 243.74,64.267C237.187,68.409 229.669,72.896 223.886,78.715C220.317,82.307 217.396,86.4 215.744,91.188C215.599,91.609 215.466,92.035 215.343,92.467C215.333,92.501 215.305,92.535 215.313,92.57C215.32,92.601 215.323,92.586 215.346,92.608C215.771,92.994 215.348,92.615 215.814,92.952C215.785,93.052 215.842,93.157 215.943,93.186C216.043,93.215 216.148,93.157 216.177,93.057Z" style="fill:#9d5406;"/>
            <path d="M256.955,88.395C257.421,88.111 257.481,88.158 257.921,87.858C257.947,87.84 257.964,87.836 257.982,87.81C258.027,87.741 258.03,87.652 258.054,87.574C259.003,84.424 260.896,82.016 263.263,80.002C265.96,77.708 269.219,75.907 272.273,74.102C276.082,71.842 280.043,69.256 283.466,66.177C284.108,65.599 284.735,65.007 285.326,64.386C286.225,63.442 287.051,62.444 287.818,61.412C287.983,61.188 288.156,60.971 288.304,60.736C288.655,60.18 288.931,59.602 289.216,59.013C289.33,58.842 289.284,58.61 289.112,58.495C288.941,58.381 288.709,58.428 288.595,58.599C288.196,59.05 287.769,59.455 287.36,59.902C286.763,60.553 286.187,61.225 285.565,61.864C284.796,62.655 283.99,63.414 283.162,64.161C282.341,64.902 281.504,65.635 280.635,66.333C277.697,68.693 274.493,70.76 271.381,72.592C267.584,74.834 263.488,77.083 260.464,80.214C258.567,82.176 256.704,84.404 256.323,87.318C256.319,87.35 256.313,87.381 256.322,87.413C256.48,87.953 256.623,87.923 256.953,88.394C256.953,88.395 256.954,88.395 256.954,88.396C256.955,88.396 256.955,88.395 256.955,88.395Z" style="fill:#9d5406;"/>
            <path d="M280.539,91.271C280.919,91.178 280.943,91.208 281.318,91.098C281.343,91.091 281.354,91.095 281.375,91.079C281.422,91.041 281.443,90.979 281.476,90.928C281.843,90.359 282.222,89.797 282.628,89.253C283.569,87.993 284.634,86.821 285.86,85.836C287.143,84.789 288.529,83.888 289.902,82.968C291.315,82.021 292.716,81.064 294.033,79.999C294.434,79.676 294.832,79.351 295.204,78.993C295.576,78.635 295.944,78.274 296.253,77.855C296.525,77.487 296.718,77.106 296.938,76.698C296.953,76.681 296.951,76.655 296.934,76.639C296.917,76.624 296.891,76.626 296.875,76.643C296.505,76.906 296.139,77.104 295.772,77.362C295.362,77.649 294.98,77.957 294.579,78.251C294.179,78.543 293.785,78.839 293.377,79.119C292.006,80.06 290.554,80.877 289.12,81.734C287.655,82.61 286.215,83.529 284.858,84.571C283.356,85.744 282.03,87.145 280.942,88.71C280.617,89.177 280.276,89.641 280.037,90.156C280.016,90.202 279.988,90.245 279.986,90.296C279.976,90.706 280.101,90.707 280.228,91.097C280.18,91.183 280.211,91.292 280.297,91.34C280.383,91.387 280.491,91.357 280.539,91.271Z" style="fill:#9d5406;"/>
            <g transform="matrix(1,0,0,1,0.508708,-1.49142)">
                <path d="M208.517,92.675C208.367,94.151 296.19,92.193 296.354,91.845C297.038,90.39 297.587,88.858 298.036,87.288C298.097,87.073 298.157,86.856 298.215,86.64C298.874,84.174 212.056,79.906 209.69,87.221C209.455,87.95 209.244,88.7 209.061,89.471C208.809,90.533 208.626,91.601 208.517,92.675Z" style="fill:#613f00;fill-opacity:0.25;"/>
            </g>
            <g transform="matrix(1,0,0,1,0.508708,-1.49142)">
                <path d="M256.011,80.647C257.433,75.162 280.467,64.844 292.204,51.804C280.396,70.595 265.005,72.863 258.116,80.936L256.011,80.647Z" style="fill:#ffc04a;"/>
            </g>
            <g transform="matrix(1,0,0,1,0.508708,-1.49142)">
                <path d="M284.378,83.579L286.179,83.981C291.117,80.936 296.398,78.344 297.338,74.291C293.722,78.244 289.385,80.826 284.378,83.579Z" style="fill:#ffc04a;"/>
            </g>
            <g transform="matrix(1,0,0,1,0.508708,-1.49142)">
                <path d="M215.053,83.142L219.681,82.599C235.468,63.592 270.435,57.298 278.358,23.366L277.618,23.227C263.522,61.952 221.573,66.37 215.053,83.142Z" style="fill:#ffc04a;"/>
            </g>
        </g>
        <g transform="matrix(-1,0,0,1,300.469,1.49142)">
            <path d="M210.011,95.54C209.765,93.071 209.97,90.623 210.543,88.211C214.467,71.676 231.299,65.627 244.152,57.342C249.285,54.033 254.162,50.06 258.6,45.881C264.877,39.969 270.034,33.248 274.157,25.689C275.516,23.198 276.821,20.68 278.023,18.11C278.447,17.202 278.862,16.291 279.269,15.376C279.411,15.056 279.553,14.735 279.694,14.414C279.764,14.253 279.758,13.84 279.906,13.933C283.412,16.137 284.061,22.443 284.598,26.082C285.555,32.571 285.069,39.125 284.392,45.618C283.755,51.713 282.963,57.816 281.357,63.741C279.785,69.544 278.046,75.526 275.334,80.913C273.354,84.846 270.76,88.276 268.338,91.908L210.011,95.54Z" style="fill:#ffae15;"/>
            <g transform="matrix(1,0,0,1,0.508708,-1.49142)">
                <path d="M243.729,87.07C248.079,71.437 267.329,66.042 282.958,54.721C280.097,65.388 274.303,76.348 262.764,87.883L243.729,87.07Z" style="fill:#df9b1b;"/>
            </g>
            <path d="M278.755,14.064C278.623,14.366 278.489,14.668 278.355,14.97C277.951,15.879 277.538,16.785 277.117,17.686C275.924,20.238 274.628,22.737 273.279,25.21C269.207,32.676 264.114,39.314 257.914,45.153C253.521,49.291 248.693,53.225 243.611,56.501C237.168,60.654 229.73,64.25 223.409,68.876C216.913,73.63 211.591,79.463 209.57,87.98C208.972,90.5 208.759,93.059 209.016,95.639C209.069,96.175 209.536,96.572 210.073,96.538L268.4,92.906C268.712,92.886 268.997,92.722 269.17,92.463C271.615,88.796 274.229,85.332 276.228,81.363C278.969,75.916 280.733,69.87 282.323,64.003C283.942,58.026 284.745,51.87 285.386,45.722C286.073,39.146 286.557,32.508 285.587,25.936C285.257,23.696 284.875,20.472 283.854,17.761C283.108,15.782 282.014,14.077 280.438,13.086C279.928,12.766 279.527,12.889 279.197,13.161C279.087,13.252 278.975,13.382 278.892,13.563C278.844,13.668 278.776,13.969 278.755,14.064ZM280.29,15.54C281.023,16.315 281.559,17.345 281.982,18.466C282.952,21.038 283.295,24.102 283.609,26.228C284.553,32.634 284.066,39.104 283.397,45.514C282.766,51.556 281.984,57.606 280.392,63.48C278.837,69.218 277.123,75.136 274.441,80.463C272.555,84.21 270.102,87.494 267.783,90.941L210.934,94.481C210.832,92.448 211.044,90.432 211.516,88.442C213.419,80.424 218.475,74.965 224.59,70.49C230.879,65.887 238.284,62.315 244.694,58.182C249.878,54.841 254.804,50.83 259.285,46.609C265.64,40.624 270.861,33.82 275.035,26.168C276.403,23.659 277.719,21.122 278.929,18.533C279.356,17.62 279.774,16.703 280.183,15.782L280.29,15.54Z" style="fill:#9d5406;"/>
            <path d="M249.685,90.852C249.944,87.56 250.6,84.254 252.151,81.307C254.4,77.034 258.45,73.627 262.252,70.765C268.548,66.026 275.361,62.076 281.78,57.519C284.526,55.57 287.104,53.426 289.518,51.079C290.315,50.304 291.113,49.53 291.834,48.681C291.939,48.558 292.903,47.344 292.92,47.356C296.505,49.854 295.97,56.566 295.61,60.333C294.586,71.044 291.742,82.194 283.433,89.656L249.685,90.852Z" style="fill:#ffae15;"/>
            <g transform="matrix(1,0,0,1,0.508708,-1.49142)">
                <path d="M272.267,87.883C276.697,79.687 291.122,77.034 294.051,69.291L292.089,77.148L279.481,87.883L272.267,87.883Z" style="fill:#df9b1b;"/>
            </g>
            <path d="M248.688,90.774C248.666,91.058 248.766,91.338 248.963,91.544C249.16,91.749 249.436,91.861 249.721,91.851L283.468,90.656C283.702,90.647 283.926,90.557 284.101,90.4C292.6,82.768 295.558,71.384 296.605,60.428C296.829,58.088 297.105,54.65 296.498,51.716C296.053,49.56 295.127,47.675 293.491,46.535C293.441,46.5 292.721,46.073 292.142,46.72C291.971,46.913 291.168,47.921 291.072,48.034C290.372,48.859 289.595,49.609 288.82,50.362C286.444,52.673 283.905,54.784 281.201,56.704C274.774,61.266 267.954,65.221 261.65,69.967C257.735,72.914 253.582,76.44 251.266,80.841C249.652,83.908 248.957,87.347 248.688,90.774ZM293.04,48.786C293.827,49.649 294.274,50.834 294.54,52.12C295.105,54.854 294.823,58.057 294.614,60.238C293.625,70.589 290.944,81.379 283.031,88.669C283.031,88.67 250.786,89.812 250.786,89.812L250.786,89.812C251.088,87.029 251.724,84.265 253.036,81.773C255.217,77.627 259.165,74.34 262.853,71.564C269.142,66.831 275.947,62.886 282.359,58.335C285.147,56.356 287.764,54.179 290.215,51.796C291.035,50.998 291.855,50.202 292.597,49.329C292.636,49.282 292.83,49.044 293.04,48.786Z" style="fill:#9d5406;"/>
            <path d="M274.501,90.11C278.266,83.144 284.952,80.612 291.173,76.376C293.177,75.011 295.063,73.465 296.731,71.702C297.274,71.127 297.762,70.489 298.221,69.846C298.385,69.617 298.544,69.385 298.699,69.151C298.769,69.045 298.873,68.71 298.908,68.832C299.719,71.637 299.522,74.682 299.144,77.539C298.591,81.706 297.762,86.092 295.958,89.928L274.501,90.11Z" style="fill:#ffae15;"/>
            <g transform="matrix(1,0,0,1,0.508708,-1.49142)">
                <path d="M290.607,88.569C292.451,85.367 297.073,85.056 298.361,80.946L296.549,89.124L290.607,88.569Z" style="fill:#df9b1b;"/>
            </g>
            <path d="M297.848,68.626C297.705,68.841 297.558,69.054 297.408,69.264C296.975,69.87 296.517,70.473 296.004,71.015C294.386,72.726 292.555,74.224 290.61,75.549C284.254,79.877 277.468,82.517 273.621,89.635C273.453,89.946 273.461,90.323 273.644,90.626C273.826,90.929 274.155,91.113 274.509,91.11L295.966,90.928C296.351,90.925 296.699,90.702 296.863,90.354C298.71,86.426 299.569,81.937 300.135,77.67C300.531,74.679 300.717,71.492 299.869,68.554C299.744,68.123 299.475,67.971 299.298,67.892C299.019,67.768 298.71,67.754 298.384,67.94C298.303,67.986 298.212,68.052 298.123,68.15C298.062,68.218 297.895,68.535 297.848,68.626ZM298.374,71.314C298.597,73.335 298.416,75.419 298.152,77.407C297.64,81.27 296.894,85.328 295.312,88.934C295.311,88.934 276.276,89.095 276.276,89.095L276.275,89.096C280.069,83.389 286.115,81.03 291.735,77.202C293.799,75.797 295.74,74.205 297.457,72.389C297.78,72.048 298.084,71.686 298.374,71.314Z" style="fill:#9d5406;"/>
            <path d="M215.814,92.952C215.348,92.615 215.771,92.994 215.346,92.608C215.323,92.586 215.32,92.601 215.313,92.57C215.305,92.535 215.333,92.501 215.343,92.467C215.466,92.035 215.599,91.609 215.744,91.188C217.396,86.4 220.317,82.307 223.886,78.715C229.669,72.896 237.187,68.409 243.74,64.267C249.905,60.376 256.351,56.285 261.993,51.399C265.727,48.165 269.111,44.584 271.809,40.465C273.041,38.596 274.113,36.612 275.034,34.555C275.365,33.815 275.669,33.063 275.968,32.309C276.419,31.174 276.821,30.023 277.222,28.873C277.492,28.098 277.73,27.319 278.027,26.558C278.233,26.028 278.485,25.553 278.706,25.033C278.74,24.875 278.895,24.774 279.053,24.807C279.211,24.841 279.312,24.997 279.278,25.155C279.266,25.753 279.278,26.323 279.209,26.92C279.143,27.499 279,28.064 278.875,28.636C278.801,28.978 278.724,29.319 278.635,29.658C278.277,31.01 277.826,32.34 277.322,33.649C276.267,36.39 274.921,39.015 273.336,41.463C270.554,45.731 267.071,49.454 263.211,52.804C257.502,57.757 250.971,61.895 244.727,65.832C238.273,69.894 230.895,74.315 225.161,79.992C221.742,83.377 218.916,87.211 217.247,91.725C217.101,92.118 216.961,92.515 216.833,92.918C216.822,92.95 216.826,92.991 216.802,93.015C216.78,93.036 216.785,93.022 216.754,93.027C216.19,93.117 216.748,93.022 216.177,93.057C216.148,93.157 216.043,93.215 215.943,93.186C215.842,93.157 215.785,93.052 215.814,92.952Z" style="fill:#9d5406;"/>
            <path d="M256.953,88.394C256.623,87.923 256.48,87.953 256.322,87.413C256.313,87.381 256.319,87.35 256.323,87.318C256.704,84.404 258.567,82.176 260.464,80.214C263.488,77.083 267.584,74.834 271.381,72.592C274.493,70.76 277.697,68.693 280.635,66.333C281.504,65.635 282.341,64.902 283.162,64.161C283.99,63.414 284.796,62.655 285.565,61.864C286.187,61.225 286.763,60.553 287.36,59.902C287.769,59.456 288.196,59.05 288.595,58.599C288.709,58.428 288.941,58.381 289.112,58.495C289.284,58.61 289.33,58.842 289.216,59.013C288.931,59.602 288.655,60.18 288.304,60.736C288.156,60.971 287.983,61.188 287.818,61.412C287.051,62.444 286.225,63.442 285.326,64.386C284.735,65.007 284.108,65.599 283.466,66.177C280.043,69.256 276.082,71.842 272.273,74.102C269.219,75.907 265.96,77.708 263.263,80.002C260.896,82.016 259.003,84.424 258.054,87.574C258.03,87.652 258.027,87.741 257.982,87.81C257.964,87.836 257.947,87.84 257.921,87.858C257.481,88.158 257.421,88.111 256.955,88.395C256.955,88.395 256.955,88.396 256.954,88.396C256.954,88.395 256.953,88.395 256.953,88.394Z" style="fill:#9d5406;"/>
            <path d="M280.228,91.097C280.101,90.707 279.976,90.706 279.986,90.296C279.988,90.245 280.016,90.202 280.037,90.156C280.276,89.641 280.617,89.177 280.942,88.71C282.03,87.145 283.356,85.744 284.858,84.571C286.215,83.529 287.655,82.61 289.12,81.734C290.554,80.877 292.006,80.06 293.377,79.119C293.785,78.839 294.179,78.543 294.579,78.251C294.98,77.957 295.362,77.649 295.772,77.362C296.139,77.104 296.505,76.906 296.875,76.643C296.891,76.626 296.917,76.624 296.934,76.639C296.951,76.655 296.953,76.681 296.938,76.698C296.718,77.106 296.525,77.487 296.253,77.855C295.944,78.274 295.576,78.635 295.204,78.993C294.832,79.351 294.434,79.676 294.033,79.999C292.716,81.064 291.315,82.021 289.902,82.968C288.529,83.888 287.143,84.789 285.86,85.836C284.634,86.821 283.569,87.993 282.628,89.253C282.222,89.797 281.843,90.359 281.476,90.928C281.443,90.979 281.422,91.041 281.375,91.079C281.354,91.095 281.343,91.091 281.318,91.098C280.943,91.208 280.919,91.178 280.539,91.271C280.491,91.357 280.383,91.387 280.297,91.34C280.211,91.292 280.18,91.183 280.228,91.097Z" style="fill:#9d5406;"/>
            <g transform="matrix(1,0,0,1,0.508708,-1.49142)">
                <path d="M208.517,92.675C208.367,94.151 296.19,92.193 296.354,91.845C297.038,90.39 297.587,88.858 298.036,87.288C298.097,87.073 298.157,86.856 298.215,86.64C298.874,84.174 212.056,79.906 209.69,87.221C209.455,87.95 209.244,88.7 209.061,89.471C208.809,90.533 208.626,91.601 208.517,92.675Z" style="fill:#613f00;fill-opacity:0.25;"/>
            </g>
            <g transform="matrix(1,0,0,1,0.508708,-1.49142)">
                <path d="M256.011,80.647C257.433,75.162 280.467,64.844 292.204,51.804C280.396,70.595 265.005,72.863 258.116,80.936L256.011,80.647Z" style="fill:#ffc04a;"/>
            </g>
            <g transform="matrix(1,0,0,1,0.508708,-1.49142)">
                <path d="M284.378,83.579L286.179,83.981C291.117,80.936 296.398,78.344 297.338,74.291C293.722,78.244 289.385,80.826 284.378,83.579Z" style="fill:#ffc04a;"/>
            </g>
            <g transform="matrix(1,0,0,1,0.508708,-1.49142)">
                <path d="M215.053,83.142L219.681,82.599C235.468,63.592 270.435,57.298 278.358,23.366L277.618,23.227C263.522,61.952 221.573,66.37 215.053,83.142Z" style="fill:#ffc04a;"/>
            </g>
        </g>
        <g>
            <path d="M285.387,103.072L285.387,205.198C285.145,219.267 284.903,247.672 249.901,259.14C252.671,262.295 257.084,268.129 257.084,268.129L266.613,268.409L261.103,277.45C261.103,277.45 263.045,285.003 263.336,287.783C277.467,285.655 300,268.85 300,253.789L300,103.072L285.387,103.072Z" style="fill:#ffae15;"/>
            <g transform="matrix(-1,0,0,1,300,0)">
                <path d="M10.59,146.239L12.525,145.331L12.201,196.822C12.231,208.784 11.942,219.242 15.251,229.854C11.792,222.399 10.215,212.142 10.343,196.822L10.59,146.239Z" style="fill:#ffc04a;"/>
            </g>
            <g transform="matrix(-1,0,0,1,300,0)">
                <path d="M43.681,260.357L40.843,264.676L31.464,265.355C30.306,265.41 29.349,266.678 29.749,267.803L34.606,277.833C22.238,271.468 10.335,257.008 9.119,244.14L7.766,223.038C16.394,248.365 25.55,251.709 43.681,260.357Z" style="fill:#ffc04a;"/>
            </g>
            <g transform="matrix(-1,0,0,1,300,0)">
                <path d="M21.663,277.833C13.321,272.864 3.171,263.31 2.921,252.919L2.28,147.931L5.862,251.521C6.352,261.178 14.827,269.918 21.663,277.833Z" style="fill:#d7961b;"/>
            </g>
            <g transform="matrix(-1,0,0,1,300,0)">
                <path d="M14.613,141.372L8.886,144.249L0,144.249L0,130.887L9.102,130.475L14.613,128.122L14.613,141.372Z" style="fill:#613f00;fill-opacity:0.25;"/>
            </g>
            <g transform="matrix(-1,0,0,1,300,0)">
                <rect x="0" y="103.072" width="14.613" height="14.446" style="fill:#613f00;fill-opacity:0.25;"/>
            </g>
            <path d="M300,104.86L300,259.642C298.554,264.017 295.637,268.374 291.891,272.336C283.886,280.801 272.135,287.47 263.485,288.772C263.215,288.813 262.94,288.741 262.724,288.574C262.508,288.407 262.37,288.159 262.342,287.887C262.055,285.146 260.134,277.699 260.134,277.699C260.067,277.438 260.108,277.16 260.249,276.93C260.249,276.93 264.864,269.358 264.864,269.358L257.055,269.129C256.752,269.12 256.469,268.974 256.286,268.732C256.286,268.732 251.902,262.934 249.149,259.8C248.928,259.547 248.848,259.2 248.936,258.876C249.025,258.552 249.27,258.294 249.589,258.19C283.956,246.93 284.15,219.009 284.387,205.19L284.387,104.86L286.387,104.86L286.387,205.198C286.387,205.204 286.387,205.21 286.387,205.216C286.144,219.344 285.85,247.647 251.623,259.613C253.891,262.313 256.694,265.967 257.591,267.144L266.643,267.409C266.999,267.42 267.322,267.619 267.492,267.932C267.662,268.245 267.653,268.625 267.467,268.929C267.467,268.929 262.175,277.612 262.175,277.611C262.534,279.034 263.722,283.823 264.183,286.622C272.376,285.032 283.053,278.771 290.438,270.962C295.475,265.635 299,259.591 299,253.789L299,104.86L300,104.86Z" style="fill:#9d5406;"/>
            <path d="M290.203,103.389C289.959,103.782 289.709,103.948 289.581,104.393C288.745,107.293 289.555,110.429 289.578,113.447C289.71,130.34 290.424,147.213 290.833,164.092C290.939,168.429 291.018,172.767 291.086,177.105C291.131,179.996 291.171,182.887 291.195,185.779C291.209,187.465 291.208,189.151 291.225,190.838C291.251,193.369 291.259,195.898 291.317,198.43C291.359,200.244 291.456,202.046 291.511,203.86C291.508,203.938 291.569,204.003 291.647,204.005C291.724,204.008 291.789,203.947 291.792,203.869C291.949,202.261 292.128,200.664 292.237,199.053C292.402,196.641 292.474,194.228 292.541,191.813C292.608,189.399 292.631,186.985 292.644,184.57C292.663,180.948 292.634,177.327 292.585,173.707C292.386,158.933 291.812,144.169 291.439,129.396C291.279,123.072 291.156,116.747 291.093,110.419C291.075,108.546 291.066,106.672 291.049,104.798C291.048,104.657 291.083,104.511 291.044,104.376C290.916,103.938 290.672,103.778 290.432,103.39C290.432,103.327 290.381,103.275 290.318,103.275C290.255,103.275 290.204,103.326 290.203,103.389Z" style="fill:#9d5406;"/>
            <path d="M290.74,213.421C290.624,214.153 290.472,214.862 290.345,215.593C290.292,215.901 290.244,216.209 290.203,216.52C289.664,220.643 288.833,224.738 287.367,228.615C286.081,232.012 284.375,235.235 282.326,238.235C281.887,238.877 281.42,239.499 280.975,240.138C280.526,240.784 280.114,241.443 279.65,242.081C279.567,242.175 279.576,242.319 279.67,242.402C279.764,242.486 279.908,242.477 279.991,242.383C280.578,241.837 281.162,241.301 281.693,240.703C282.222,240.107 282.694,239.463 283.157,238.816C285.322,235.794 287.027,232.46 288.334,228.98C289.824,225.017 290.89,220.85 291.156,216.612C291.176,216.294 291.184,215.976 291.178,215.657C291.165,214.907 291.093,214.177 291.023,213.43C291.025,213.351 290.964,213.286 290.886,213.283C290.808,213.281 290.742,213.342 290.74,213.421Z" style="fill:#9d5406;"/>
        </g>
        <g>
            <path d="M300,140.97L300,133.934C295.059,134.733 289.875,133.852 285.347,131.238C274.757,125.123 271.101,111.629 277.182,101.096L271.127,97.6C263.126,111.458 267.935,129.215 281.87,137.26C287.477,140.497 293.849,141.715 300,140.97ZM213.513,97.838C217.092,113.435 232.708,123.161 248.39,119.561C259.785,116.946 268.521,107.809 270.579,96.355L263.698,95.147C262.134,103.852 255.495,110.795 246.834,112.783C234.916,115.519 223.048,108.127 220.327,96.273L213.513,97.838Z" style="fill:#ffae15;"/>
            <g transform="matrix(-1,0,0,1,300,0)">
                <path d="M71.706,108.721C75.589,105.72 78.492,101.417 79.673,96.273L86.487,97.838C85.333,102.868 82.927,107.287 79.669,110.847C77.41,110.031 74.703,109.323 71.706,108.721ZM25.338,107.777C24.882,105.485 24.05,103.23 22.818,101.096L28.873,97.6C30.551,100.506 31.666,103.584 32.251,106.708C29.586,106.963 27.235,107.319 25.338,107.777ZM33.383,106.607C31.453,103.528 30.087,100.063 29.421,96.355L36.302,95.147C37.063,99.383 39.026,103.201 41.838,106.235C38.836,106.269 35.978,106.393 33.383,106.607Z" style="fill:#613f00;fill-opacity:0.25;"/>
            </g>
            <g transform="matrix(-0.99469,0.102918,0.102918,0.99469,290.208,-5.73977)">
                <path d="M75.881,108.711C68.068,116.696 54.166,118.511 44.313,111.686C43.86,111.372 43.236,111.485 42.922,111.938C42.608,112.392 42.721,113.016 43.174,113.33C53.828,120.711 68.862,118.744 77.31,110.11C77.696,109.715 77.689,109.082 77.295,108.696C76.9,108.31 76.267,108.317 75.881,108.711Z" style="fill:#ffc04a;"/>
            </g>
            <g transform="matrix(-1,0,0,1,300,0)">
                <path d="M28.601,112.325C27.943,125.314 17.423,135.798 6.383,136.676C5.833,136.719 5.422,137.201 5.465,137.752C5.509,138.302 5.991,138.713 6.541,138.669C18.464,137.722 29.888,126.455 30.598,112.426C30.626,111.875 30.202,111.404 29.65,111.377C29.099,111.349 28.629,111.774 28.601,112.325Z" style="fill:#ffc04a;"/>
            </g>
            <path d="M300,141.977C293.675,142.717 287.132,141.453 281.37,138.126C270.643,131.933 265.146,120.175 266.447,108.658C262.244,114.538 255.964,118.849 248.614,120.536C232.392,124.259 216.241,114.195 212.538,98.061C212.414,97.523 212.751,96.987 213.289,96.863L220.104,95.299C220.642,95.175 221.179,95.511 221.302,96.05C223.9,107.367 235.232,114.42 246.611,111.809C254.88,109.911 261.22,103.282 262.714,94.97C262.811,94.428 263.329,94.067 263.871,94.162L270.752,95.37C271.014,95.416 271.247,95.565 271.399,95.783C271.551,96.001 271.61,96.27 271.563,96.532L271.535,96.687C271.566,96.701 271.597,96.716 271.627,96.734L277.682,100.23C278.161,100.506 278.324,101.118 278.048,101.596C272.243,111.652 275.736,124.534 285.847,130.372C290.219,132.896 295.233,133.729 300,132.921L300,134.946C294.884,135.737 289.53,134.807 284.847,132.104C274.069,125.881 270.166,112.344 275.835,101.473L271.508,98.975L271.508,98.975C264.473,112.22 269.207,128.794 282.37,136.394C287.822,139.542 294.023,140.713 300,139.963L300,141.977ZM214.728,98.585L219.597,97.467C222.851,109.288 234.928,116.542 247.058,113.758C255.783,111.755 262.545,104.938 264.485,96.3C264.485,96.3 269.4,97.163 269.4,97.163C267.101,107.76 258.841,116.136 248.166,118.586C233.352,121.987 218.597,113.075 214.728,98.585L214.728,98.585Z" style="fill:#9d5406;"/>
        </g>
        <g transform="matrix(-1,0,0,1,300,0)">
            <path d="M285.387,103.072L285.387,205.198C285.145,219.267 284.903,247.672 249.901,259.14C252.671,262.295 257.084,268.129 257.084,268.129L266.613,268.409L261.103,277.45C261.103,277.45 263.045,285.003 263.336,287.783C277.467,285.655 300,268.85 300,253.789L300,103.072L285.387,103.072Z" style="fill:#ffae15;"/>
            <g transform="matrix(-1,0,0,1,300,0)">
                <path d="M10.59,146.239L12.525,145.331L12.201,196.822C12.231,208.784 11.942,219.242 15.251,229.854C11.792,222.399 10.215,212.142 10.343,196.822L10.59,146.239Z" style="fill:#ffc04a;"/>
            </g>
            <g transform="matrix(-1,0,0,1,300,0)">
                <path d="M43.681,260.357L40.843,264.676L31.464,265.355C30.306,265.41 29.349,266.678 29.749,267.803L34.606,277.833C22.238,271.468 10.335,257.008 9.119,244.14L7.766,223.038C16.394,248.365 25.55,251.709 43.681,260.357Z" style="fill:#ffc04a;"/>
            </g>
            <g transform="matrix(-1,0,0,1,300,0)">
                <path d="M21.663,277.833C13.321,272.864 3.171,263.31 2.921,252.919L2.28,147.931L5.862,251.521C6.352,261.178 14.827,269.918 21.663,277.833Z" style="fill:#d7961b;"/>
            </g>
            <g transform="matrix(-1,0,0,1,300,0)">
                <path d="M14.613,141.372L8.886,144.249L0,144.249L0,130.887L9.102,130.475L14.613,128.122L14.613,141.372Z" style="fill:#613f00;fill-opacity:0.25;"/>
            </g>
            <g transform="matrix(-1,0,0,1,300,0)">
                <rect x="0" y="103.072" width="14.613" height="14.446" style="fill:#613f00;fill-opacity:0.25;"/>
            </g>
            <path d="M300,104.86L300,259.642C298.554,264.017 295.637,268.374 291.891,272.336C283.886,280.801 272.135,287.47 263.485,288.772C263.215,288.813 262.94,288.741 262.724,288.574C262.508,288.407 262.37,288.159 262.342,287.887C262.055,285.146 260.134,277.699 260.134,277.699C260.067,277.438 260.108,277.16 260.249,276.93C260.249,276.93 264.864,269.358 264.864,269.358L257.055,269.129C256.752,269.12 256.469,268.974 256.286,268.732C256.286,268.732 251.902,262.934 249.149,259.8C248.928,259.547 248.848,259.2 248.936,258.876C249.025,258.552 249.27,258.294 249.589,258.19C283.956,246.93 284.15,219.009 284.387,205.19L284.387,104.86L286.387,104.86L286.387,205.198C286.387,205.204 286.387,205.21 286.387,205.216C286.144,219.344 285.85,247.647 251.623,259.613C253.891,262.313 256.694,265.967 257.591,267.144L266.643,267.409C266.999,267.42 267.322,267.619 267.492,267.932C267.662,268.245 267.653,268.625 267.467,268.929C267.467,268.929 262.175,277.612 262.175,277.611C262.534,279.034 263.722,283.823 264.183,286.622C272.376,285.032 283.053,278.771 290.438,270.962C295.475,265.635 299,259.591 299,253.789L299,104.86L300,104.86Z" style="fill:#9d5406;"/>
            <path d="M290.432,103.39C290.672,103.778 290.916,103.939 291.044,104.376C291.083,104.511 291.048,104.657 291.049,104.798C291.066,106.672 291.075,108.546 291.093,110.419C291.156,116.747 291.279,123.072 291.439,129.396C291.812,144.169 292.386,158.933 292.585,173.707C292.634,177.327 292.663,180.948 292.644,184.57C292.631,186.985 292.608,189.399 292.541,191.813C292.474,194.228 292.402,196.641 292.237,199.053C292.128,200.664 291.949,202.261 291.792,203.869C291.789,203.947 291.724,204.008 291.647,204.005C291.569,204.003 291.508,203.938 291.511,203.86C291.456,202.046 291.359,200.244 291.317,198.43C291.259,195.898 291.251,193.369 291.225,190.838C291.208,189.151 291.209,187.465 291.195,185.778C291.171,182.887 291.131,179.995 291.086,177.105C291.018,172.766 290.939,168.429 290.833,164.092C290.424,147.213 289.71,130.34 289.578,113.447C289.555,110.43 288.745,107.293 289.581,104.393C289.709,103.949 289.959,103.782 290.203,103.389C290.204,103.326 290.255,103.275 290.318,103.275C290.381,103.275 290.432,103.327 290.432,103.39Z" style="fill:#9d5406;"/>
            <path d="M291.023,213.43C291.093,214.176 291.165,214.907 291.178,215.657C291.184,215.976 291.176,216.294 291.156,216.612C290.89,220.85 289.824,225.017 288.334,228.98C287.027,232.46 285.322,235.794 283.157,238.816C282.694,239.463 282.222,240.107 281.693,240.703C281.162,241.301 280.578,241.837 279.991,242.383C279.908,242.477 279.764,242.486 279.67,242.402C279.576,242.319 279.567,242.175 279.65,242.081C280.114,241.443 280.526,240.784 280.975,240.138C281.42,239.499 281.887,238.877 282.326,238.235C284.375,235.235 286.081,232.012 287.367,228.615C288.833,224.738 289.664,220.643 290.203,216.52C290.244,216.209 290.292,215.901 290.345,215.593C290.472,214.862 290.624,214.153 290.74,213.421C290.742,213.342 290.808,213.281 290.886,213.283C290.964,213.286 291.025,213.351 291.023,213.43Z" style="fill:#9d5406;"/>
        </g>
        <g transform="matrix(-1,0,0,1,300,0)">
            <path d="M300,140.97L300,133.934C295.059,134.733 289.875,133.852 285.347,131.238C274.757,125.123 271.101,111.629 277.182,101.096L271.127,97.6C263.126,111.458 267.935,129.215 281.87,137.26C287.477,140.497 293.849,141.715 300,140.97ZM213.513,97.838C217.092,113.435 232.708,123.161 248.39,119.561C259.785,116.946 268.521,107.809 270.579,96.355L263.698,95.147C262.134,103.852 255.495,110.795 246.834,112.783C234.916,115.519 223.048,108.127 220.327,96.273L213.513,97.838Z" style="fill:#ffae15;"/>
            <g transform="matrix(-1,0,0,1,300,0)">
                <path d="M71.706,108.721C75.589,105.72 78.492,101.417 79.673,96.273L86.487,97.838C85.333,102.868 82.927,107.287 79.669,110.847C77.41,110.031 74.703,109.323 71.706,108.721ZM25.338,107.777C24.882,105.485 24.05,103.23 22.818,101.096L28.873,97.6C30.551,100.506 31.666,103.584 32.251,106.708C29.586,106.963 27.235,107.319 25.338,107.777ZM33.383,106.607C31.453,103.528 30.087,100.063 29.421,96.355L36.302,95.147C37.063,99.383 39.026,103.201 41.838,106.235C38.836,106.269 35.978,106.393 33.383,106.607Z" style="fill:#613f00;fill-opacity:0.25;"/>
            </g>
            <g transform="matrix(-0.99469,0.102918,0.102918,0.99469,290.208,-5.73977)">
                <path d="M75.881,108.711C68.068,116.696 54.166,118.511 44.313,111.686C43.86,111.372 43.236,111.485 42.922,111.938C42.608,112.392 42.721,113.016 43.174,113.33C53.828,120.711 68.862,118.744 77.31,110.11C77.696,109.715 77.689,109.082 77.295,108.696C76.9,108.31 76.267,108.317 75.881,108.711Z" style="fill:#ffc04a;"/>
            </g>
            <g transform="matrix(-1,0,0,1,300,0)">
                <path d="M28.601,112.325C27.943,125.314 17.423,135.798 6.383,136.676C5.833,136.719 5.422,137.201 5.465,137.752C5.509,138.302 5.991,138.713 6.541,138.669C18.464,137.722 29.888,126.455 30.598,112.426C30.626,111.875 30.202,111.404 29.65,111.377C29.099,111.349 28.629,111.774 28.601,112.325Z" style="fill:#ffc04a;"/>
            </g>
            <path d="M300,141.977C293.675,142.717 287.132,141.453 281.37,138.126C270.643,131.933 265.146,120.175 266.447,108.658C262.244,114.538 255.964,118.849 248.614,120.536C232.392,124.259 216.241,114.195 212.538,98.061C212.414,97.523 212.751,96.987 213.289,96.863L220.104,95.299C220.642,95.175 221.179,95.511 221.302,96.05C223.9,107.367 235.232,114.42 246.611,111.809C254.88,109.911 261.22,103.282 262.714,94.97C262.811,94.428 263.329,94.067 263.871,94.162L270.752,95.37C271.014,95.416 271.247,95.565 271.399,95.783C271.551,96.001 271.61,96.27 271.563,96.532L271.535,96.687C271.566,96.701 271.597,96.716 271.627,96.734L277.682,100.23C278.161,100.506 278.324,101.118 278.048,101.596C272.243,111.652 275.736,124.534 285.847,130.372C290.219,132.896 295.233,133.729 300,132.921L300,134.946C294.884,135.737 289.53,134.807 284.847,132.104C274.069,125.881 270.166,112.344 275.835,101.473L271.508,98.975L271.508,98.975C264.473,112.22 269.207,128.794 282.37,136.394C287.822,139.542 294.023,140.713 300,139.963L300,141.977ZM214.728,98.585L219.597,97.467C222.851,109.288 234.928,116.542 247.058,113.758C255.783,111.755 262.545,104.938 264.485,96.3C264.485,96.3 269.4,97.163 269.4,97.163C267.101,107.76 258.841,116.136 248.166,118.586C233.352,121.987 218.597,113.075 214.728,98.585L214.728,98.585Z" style="fill:#9d5406;"/>
        </g>
        <g>
            <path d="M148.958,151.181C138.129,139.804 125.208,126.814 111.364,118.764C77.133,98.858 36.442,100 0,105.917L0,90.927C36.776,87.181 73.216,86.392 111.364,96.251L150,106.305L188.636,96.251C226.784,86.392 263.224,87.181 300,90.927L300,105.917C263.558,100 222.867,98.858 188.636,118.764C174.347,127.073 161.039,140.646 150,152.276L148.958,151.181Z" style="fill:#ffae15;"/>
            <path d="M125.488,116.031L132.487,100.926L150,105.156L167.513,100.926L174.512,116.031L150,140.904L125.488,116.031Z" style="fill:#d7961b;"/>
            <path d="M147.223,146.17C147.008,145.571 146.864,144.988 146.576,144.418C146.302,143.876 145.911,143.399 145.569,142.894C142.529,138.397 139.065,134.116 135.304,130.074C133.07,127.672 130.724,125.362 128.287,123.144C126.665,121.668 125.011,120.225 123.306,118.843C121.41,117.307 119.465,115.829 117.462,114.44C109.362,108.822 100.469,104.445 91.246,101.576C85.394,99.764 79.49,98.593 73.519,97.811C71.727,97.576 69.929,97.366 68.123,97.207C66.326,97.049 64.523,96.925 62.713,96.846C61.991,96.815 61.27,96.786 60.545,96.784C58.855,96.781 57.179,96.866 55.48,96.922C55.419,96.918 55.367,96.965 55.363,97.026C55.36,97.087 55.407,97.139 55.468,97.142C57.197,97.386 58.894,97.676 60.615,97.9C61.044,97.956 61.474,97.997 61.903,98.04C63.911,98.244 65.911,98.453 67.906,98.674C70.905,99.006 73.893,99.36 76.862,99.842C81.541,100.601 86.183,101.617 90.79,103.048C99.873,105.858 108.577,110.239 116.618,115.673C118.611,117.02 120.573,118.418 122.483,119.887C124.202,121.21 125.891,122.573 127.523,124C129.978,126.148 132.321,128.417 134.546,130.783C138.291,134.765 141.681,139.037 144.706,143.48C145.046,143.979 145.331,144.517 145.713,144.982C146.116,145.471 146.583,145.842 147.026,146.293C147.06,146.347 147.131,146.364 147.186,146.33C147.24,146.296 147.257,146.224 147.223,146.17ZM152.945,146.293C153.388,145.842 153.855,145.471 154.257,144.982C154.639,144.516 154.924,143.979 155.264,143.48C158.29,139.037 161.679,134.765 165.425,130.783C167.649,128.417 169.993,126.148 172.447,124C174.079,122.573 175.768,121.21 177.488,119.887C179.397,118.418 181.359,117.02 183.352,115.673C191.393,110.239 200.097,105.858 209.181,103.048C213.787,101.617 218.429,100.601 223.108,99.842C226.077,99.36 229.065,99.006 232.064,98.674C234.06,98.453 236.059,98.244 238.067,98.04C238.497,97.997 238.926,97.956 239.355,97.9C241.076,97.676 242.773,97.386 244.503,97.142C244.563,97.139 244.61,97.087 244.607,97.026C244.604,96.965 244.552,96.918 244.491,96.922C242.791,96.866 241.116,96.781 239.425,96.784C238.701,96.786 237.98,96.815 237.258,96.846C235.447,96.925 233.644,97.049 231.847,97.207C230.041,97.366 228.244,97.576 226.451,97.811C220.48,98.593 214.576,99.764 208.724,101.576C199.502,104.445 190.608,108.821 182.508,114.44C180.505,115.829 178.561,117.307 176.664,118.843C174.959,120.225 173.305,121.668 171.683,123.144C169.247,125.362 166.901,127.673 164.667,130.074C160.906,134.116 157.442,138.397 154.401,142.894C154.059,143.399 153.668,143.876 153.394,144.418C153.106,144.988 152.962,145.571 152.748,146.17C152.714,146.224 152.73,146.296 152.785,146.33C152.839,146.364 152.911,146.347 152.945,146.293ZM41.855,97.536C41.603,97.442 41.406,97.323 41.142,97.271C40.594,97.164 40.026,97.238 39.467,97.229C32.348,97.11 25.136,97.528 17.967,98.351C16.065,98.57 14.166,98.826 12.273,99.108C7.835,99.768 3.415,100.5 -0.915,101.442C-1.384,101.544 -1.852,101.643 -2.311,101.775C-3.403,102.087 -4.437,102.487 -5.505,102.852C-5.626,102.877 -5.704,102.997 -5.679,103.118C-5.654,103.239 -5.534,103.317 -5.413,103.292C-4.26,103.195 -3.122,103.161 -1.966,103.018C-1.21,102.924 -0.463,102.768 0.289,102.633C5.496,101.7 10.768,100.787 16.07,100.042C18.332,99.724 20.594,99.408 22.861,99.143C28.565,98.476 34.279,98.106 39.945,97.961C40.39,97.95 40.842,98.007 41.278,97.919C41.495,97.875 41.646,97.776 41.853,97.696C41.897,97.697 41.934,97.662 41.934,97.618C41.935,97.573 41.9,97.537 41.855,97.536ZM258.117,97.696C258.324,97.776 258.475,97.875 258.692,97.919C259.128,98.007 259.58,97.95 260.025,97.961C265.692,98.106 271.406,98.476 277.109,99.143C279.376,99.408 281.639,99.724 283.901,100.042C289.203,100.787 294.474,101.7 299.681,102.633C300.433,102.768 301.181,102.924 301.936,103.018C303.092,103.161 304.23,103.195 305.383,103.292C305.505,103.317 305.624,103.239 305.649,103.118C305.674,102.997 305.596,102.877 305.475,102.852C304.407,102.487 303.373,102.087 302.282,101.775C301.822,101.643 301.354,101.544 300.886,101.442C296.555,100.5 292.135,99.768 287.697,99.108C285.804,98.826 283.906,98.57 282.003,98.351C274.834,97.528 267.622,97.11 260.503,97.229C259.944,97.238 259.376,97.164 258.828,97.271C258.564,97.323 258.367,97.442 258.115,97.536C258.071,97.537 258.035,97.573 258.036,97.618C258.037,97.662 258.073,97.697 258.117,97.696Z" style="fill:#9d5406;"/>
            <path d="M0,88.917C36.938,85.164 73.544,84.411 111.864,94.315L150,104.238L150,106.305L111.364,96.251C73.216,86.392 36.776,87.181 0,90.927L0,105.917C36.442,100 77.133,98.858 111.364,118.764C125.653,127.073 138.961,140.646 150,152.276C161.039,140.646 174.347,127.073 188.636,118.764C222.867,98.858 263.558,100 300,105.917L300,90.927C263.224,87.181 226.784,86.392 188.636,96.251L150,106.305L150,104.238L188.136,94.315C226.456,84.411 263.062,85.164 300,88.917L300,107.917C299.893,107.917 299.786,107.909 299.679,107.891C263.675,102.045 223.462,100.826 189.642,120.493C175.51,128.71 162.368,142.151 151.451,153.653C151.058,154.066 150.53,154.276 150,154.276L149.95,154.276C149.437,154.263 148.929,154.053 148.549,153.653C137.632,142.151 124.49,128.71 110.358,120.493C76.538,100.826 36.325,102.045 0.321,107.891C0.214,107.909 0.107,107.917 0,107.917L0,88.917Z" style="fill:#9d5406;"/>
            <path d="M164.088,134.988C188.887,106.597 220.161,93.185 285.065,101.858L284.975,103.032C235.364,96.582 196.014,106.521 164.088,134.988ZM135.912,134.988C111.113,106.597 79.839,93.185 14.935,101.858L15.025,103.032C64.636,96.582 103.986,106.521 135.912,134.988Z" style="fill:#d7961b;"/>
            <path d="M175.001,102.951L180.641,111.339C206.329,93.098 246.64,91.228 294.504,97.815L294.685,93.154C247.939,87.489 208.25,91.022 175.001,102.951ZM124.999,102.951L119.359,111.339C93.671,93.098 53.36,91.228 5.496,97.815L5.315,93.154C52.061,87.489 91.75,91.022 124.999,102.951Z" style="fill:#ffc04a;"/>
        </g>
        <g>
            <g transform="matrix(0.603026,0,0,1,63.5267,8.75054)">
                <path d="M143.399,66.083L175.434,106.519L143.399,130.153L111.364,106.519L143.399,66.083Z" style="fill:#65acd2;"/>
            </g>
            <path d="M167.125,115.269L150,136.22L150,79.424L167.125,115.269Z" style="fill:#87bad5;"/>
            <path d="M150,115.272L150,79.424L167.125,115.269L167.122,115.272L150,115.272Z" style="fill:#a3dbf9;"/>
            <g transform="matrix(-1,0,0,1,300,0)">
                <path d="M167.125,115.269L150,136.22L150,79.424L167.125,115.269Z" style="fill:#5196bb;"/>
            </g>
            <g transform="matrix(-1,0,0,1,300,0)">
                <path d="M150,115.272L150,79.424L167.125,115.269L167.122,115.272L150,115.272Z" style="fill:#87bad5;"/>
            </g>
            <g transform="matrix(0.603026,0,0,1,63.5267,8.75054)">
                <path d="M146.392,65.22C145.841,64.525 144.677,64.083 143.399,64.083C142.121,64.083 140.957,64.525 140.406,65.22L108.371,105.657C107.817,106.356 107.983,107.185 108.796,107.785L140.831,131.419C141.461,131.884 142.404,132.153 143.399,132.153C144.394,132.153 145.337,131.884 145.967,131.419L178.002,107.785C178.815,107.185 178.981,106.356 178.427,105.657L146.392,65.22ZM143.399,66.083L175.434,106.519L143.399,130.153L111.364,106.519L143.399,66.083Z" style="fill:#2c98d2;"/>
            </g>
        </g>
    </g>
</svg>
