<svg id="Layer_1" data-name="Layer 1" xmlns="http://www.w3.org/2000/svg" xmlns:xlink="http://www.w3.org/1999/xlink" viewBox="0 0 300 345"><defs><linearGradient id="linear-gradient" x1="45.02" y1="7015.24" x2="45.28" y2="6820.96" gradientTransform="matrix(0.99, -0.16, -0.16, -0.99, 1117.3, 7176.72)" gradientUnits="userSpaceOnUse"><stop offset="0.19" stop-color="#c5e8f5"/><stop offset="0.63" stop-color="#0baed0"/></linearGradient><radialGradient id="radial-gradient" cx="43.92" cy="300.18" r="18.09" gradientUnits="userSpaceOnUse"><stop offset="0.52" stop-color="#f1c0d9"/><stop offset="1" stop-color="#f1c0d9" stop-opacity="0"/></radialGradient><radialGradient id="radial-gradient-2" cx="44.6" cy="300.92" r="14.88" gradientUnits="userSpaceOnUse"><stop offset="0.44" stop-color="#c62c6c"/><stop offset="1" stop-color="#f1c0d9" stop-opacity="0"/></radialGradient></defs><g id="assets"><g id="item"><g id="faity"><path d="M56.44,252.39c2.46,0,4.41.94,4.65,2.38l.1.61c0,.11,0,.22,0,.32s.06.2.08.3l.7,4.35a.28.28,0,0,1,0,.09l.69,4.25c.29,1.76-2.06,3.61-5.25,4.13l-36.09,5.87a10.5,10.5,0,0,1-1.65.14c-2.46,0-4.41-.95-4.64-2.39l-.71-4.36h0l-.71-4.33a1.62,1.62,0,0,1,0-.31,2.81,2.81,0,0,1-.08-.31l-.1-.61c-.28-1.76,2.07-3.61,5.26-4.12l36.09-5.87a9.51,9.51,0,0,1,1.65-.14m0-4a13.7,13.7,0,0,0-2.29.19l-36.09,5.87a12.65,12.65,0,0,0-5.76,2.4,6.65,6.65,0,0,0-2.8,6.32l.09.61.06.3c0,.11,0,.21,0,.32l.71,4.33.71,4.35c.56,3.44,4,5.75,8.59,5.75a15,15,0,0,0,2.3-.19l36.08-5.87c5.54-.9,9.22-4.65,8.56-8.72L66,260a2,2,0,0,0,0-.24l-.71-4.36c0-.1,0-.2,0-.3s0-.21,0-.31l-.11-.62c-.57-3.44-4-5.74-8.59-5.74Z" fill="#5a4a42"/><path d="M55.69,258.09,19.61,264c-3.19.51-5.55,2.36-5.26,4.12l.71,4.36c.28,1.76,3.1,2.77,6.29,2.25l36.09-5.87c3.19-.52,5.54-2.37,5.25-4.13L62,260.34C61.7,258.57,58.88,257.57,55.69,258.09Z" fill="#d39c7e"/><path d="M71.23,268.14l-.43-2.61A9.16,9.16,0,0,0,60.29,258h0l-44.18,7.19a9.15,9.15,0,0,0-7.57,10.51L9,278.27a9.17,9.17,0,0,0-4.76,9.57l7.44,45.73a9.16,9.16,0,0,0,10.51,7.58h0L78.64,332a9.16,9.16,0,0,0,7.57-10.51h0l-7.44-45.74A9.16,9.16,0,0,0,71.23,268.14Z" fill-opacity="0.8" fill="url(#linear-gradient)"/><path d="M61.77,257.83a9.17,9.17,0,0,1,9,7.7l.43,2.61a9.16,9.16,0,0,1,7.54,7.58l7.44,45.73A9.16,9.16,0,0,1,78.64,332l-56.48,9.19h0a9.15,9.15,0,0,1-10.51-7.58L4.2,287.84A9.17,9.17,0,0,1,9,278.27l-.42-2.62a9.15,9.15,0,0,1,7.57-10.51L60.29,258a9.33,9.33,0,0,1,1.48-.12m0-3a12.85,12.85,0,0,0-2,.16l-44.18,7.19a12.15,12.15,0,0,0-10,13.95l.11.71a12.17,12.17,0,0,0-4.45,11.48l7.44,45.74a12.12,12.12,0,0,0,12,10.21,11.57,11.57,0,0,0,1.95-.16h.08l56.41-9.18a12.14,12.14,0,0,0,10-13.95l-7.44-45.74a12.13,12.13,0,0,0-7.85-9.48l-.12-.71a12.11,12.11,0,0,0-12-10.21Z" fill="#00849a"/><path d="M72.44,318.44l-49.59,8.07c-4.38.71-7.58,3.45-7.15,6.11l.15.92c.43,2.67,4.34,4.25,8.72,3.54L74.16,329c4.38-.71,7.58-3.45,7.15-6.11l-.15-.92C80.73,319.31,76.82,317.73,72.44,318.44Z" fill="#0baed0" fill-opacity="0.5"/><path d="M55,253.75,18.9,259.62c-3.19.52-5.54,2.37-5.26,4.13l.71,4.35c.29,1.76,3.11,2.77,6.3,2.25l36.08-5.87c3.2-.52,5.55-2.37,5.26-4.13l-.7-4.35C61,254.24,58.18,253.23,55,253.75Z" fill="#d39c7e"/><path d="M54.79,252.53,18.7,258.4c-3.19.51-5.54,2.36-5.26,4.12l.1.61c.29,1.76,3.11,2.77,6.3,2.25l36.09-5.87c3.19-.52,5.54-2.37,5.26-4.13l-.1-.61C60.79,253,58,252,54.79,252.53Z" fill="#dbbe99"/><circle cx="43.92" cy="300.18" r="18.09" fill="url(#radial-gradient)"/><path d="M43.89,301A75.13,75.13,0,0,1,67.8,275.69s-1,15.14-7.87,20.28C55.12,299.58,43.89,301,43.89,301Z" fill="#fdf2f7"/><path d="M45.31,300.78A75.12,75.12,0,0,0,14.6,284.35s5.74,14,13.89,16.73C34.2,303,45.31,300.78,45.31,300.78Z" fill="#fdf2f7"/><path d="M48,301.14s10.69-2.08,17.87,10.09C65.86,311.23,48.51,318.21,48,301.14Z" fill="#fdf2f7"/><path d="M41.46,302.21s-10.8,1.41-13.75,15.23C27.71,317.44,46.37,318.56,41.46,302.21Z" fill="#fdf2f7"/><circle cx="44.6" cy="300.92" r="14.88" fill="url(#radial-gradient-2)"/><circle cx="44.6" cy="300.92" r="9.96" fill="#fdf2f7"/></g></g></g></svg>