<?xml version="1.0" encoding="UTF-8" standalone="no"?>
<!DOCTYPE svg PUBLIC "-//W3C//DTD SVG 1.1//EN" "http://www.w3.org/Graphics/SVG/1.1/DTD/svg11.dtd">
<svg width="100%" height="100%" viewBox="0 0 300 345" version="1.1" xmlns="http://www.w3.org/2000/svg" xmlns:xlink="http://www.w3.org/1999/xlink" xml:space="preserve" xmlns:serif="http://www.serif.com/" style="fill-rule:evenodd;clip-rule:evenodd;stroke-linejoin:round;stroke-miterlimit:2;">
    <g id="glasses_19">
        <g transform="matrix(1,0,0,1,0,1)">
            <path d="M241.431,123.15C273.756,123.15 300,149.394 300,181.719L300,196.475C300,228.8 273.756,255.044 241.431,255.044L221.823,255.044C203.336,254.612 188.611,249.166 177.571,238.805L165.955,227.771C161.58,223.396 155.941,221.154 150.27,221.046L150,221.042C144.238,221.083 138.49,223.327 134.045,227.771L122.429,238.805C111.389,249.166 96.664,254.612 78.177,255.044L58.569,255.044C26.244,255.044 0,228.8 0,196.475L0,181.719C0,149.394 26.244,123.15 58.569,123.15L241.431,123.15Z" style="fill:#8c00d0;"/>
        </g>
        <path d="M241.431,124.15C273.756,124.15 300,150.394 300,182.719L300,197.475C300,229.8 273.756,256.044 241.431,256.044L221.823,256.044C203.336,255.612 188.611,250.166 177.571,239.805L165.955,228.771C161.58,224.396 155.941,222.154 150.27,222.046L150,222.042L149.73,222.046C144.059,222.154 138.42,224.396 134.045,228.771L122.429,239.805C111.389,250.166 96.664,255.612 78.177,256.044L58.569,256.044C26.244,256.044 0,229.8 0,197.475L0,182.719C0,150.394 26.244,124.15 58.569,124.15L241.431,124.15ZM58.569,132.15C30.659,132.15 8,154.809 8,182.719C8,182.719 8,197.475 8,197.475C8,225.384 30.659,248.044 58.569,248.044L78.079,248.044C94.278,247.65 107.257,243.065 116.941,233.984C116.941,233.984 128.467,223.036 128.467,223.036C134.363,217.179 141.952,214.193 149.577,214.047L150,214.044L150.423,214.047C158.048,214.193 165.637,217.179 171.533,223.036C171.533,223.036 183.059,233.984 183.059,233.984C192.743,243.065 205.722,247.65 221.921,248.044L241.431,248.044C269.341,248.044 292,225.384 292,197.475C292,197.475 292,182.719 292,182.719C292,154.809 269.341,132.15 241.431,132.15L58.569,132.15Z" style="fill:#b33cff;"/>
        <g transform="matrix(0.970224,0,0,0.909252,4.46644,15.1937)">
            <path d="M227.709,253.467L230.801,253.467L230.801,250.167L227.709,250.167L227.709,253.467ZM221.478,253.455L221.921,253.467L224.617,253.467L224.617,250.167L221.939,250.167C221.816,250.164 221.694,250.161 221.572,250.157L221.478,253.455ZM233.893,253.467L236.985,253.467L236.985,250.167L233.893,250.167L233.893,253.467ZM240.077,253.467L241.431,253.467C242.032,253.467 242.63,253.455 243.226,253.432L243.112,250.134C242.564,250.156 242.014,250.167 241.463,250.167L240.077,250.167L240.077,253.467ZM215.139,252.845C216.178,253.012 217.232,253.148 218.3,253.251L218.577,249.965C217.571,249.868 216.579,249.74 215.6,249.582L215.139,252.845ZM246.411,253.194C247.475,253.077 248.53,252.923 249.575,252.734L249.057,249.481C248.078,249.658 247.091,249.802 246.094,249.912L246.411,253.194ZM75.055,252.759L78.115,252.759C78.138,252.758 78.161,252.758 78.184,252.757L78.11,249.459C78.094,249.459 78.078,249.46 78.061,249.46C78.061,249.46 75.055,249.46 75.055,249.46L75.055,252.759ZM68.871,252.759L71.963,252.759L71.963,249.46L68.871,249.46L68.871,252.759ZM56.438,252.711C57.144,252.743 57.855,252.759 58.569,252.759L59.595,252.759L59.595,249.46L58.564,249.46C57.887,249.46 57.226,249.444 56.57,249.414L56.438,252.711ZM62.687,252.759L65.779,252.759L65.779,249.46L62.687,249.46L62.687,252.759ZM81.356,252.584C82.424,252.494 83.477,252.374 84.515,252.225L84.103,248.955C83.12,249.096 82.124,249.21 81.114,249.295L81.356,252.584ZM50.096,251.985C51.139,252.177 52.193,252.335 53.256,252.456L53.586,249.176C52.589,249.062 51.6,248.914 50.622,248.734L50.096,251.985ZM208.914,251.437C209.929,251.734 210.96,252.002 212.006,252.239L212.648,249.011C211.661,248.788 210.689,248.535 209.731,248.255L208.914,251.437ZM252.703,252.053C253.741,251.79 254.768,251.491 255.782,251.159L254.874,248.005C253.923,248.316 252.961,248.597 251.987,248.844L252.703,252.053ZM87.652,251.68C88.701,251.465 89.736,251.221 90.754,250.95L90.005,247.749C89.041,248.006 88.063,248.236 87.07,248.439L87.652,251.68ZM43.894,250.402C44.907,250.735 45.933,251.034 46.971,251.299L47.691,248.09C46.717,247.841 45.754,247.56 44.803,247.249L43.894,250.402ZM202.891,249.28C203.869,249.695 204.863,250.085 205.873,250.448L206.858,247.32C205.902,246.977 204.961,246.608 204.035,246.215L202.891,249.28ZM258.8,250.056C259.796,249.654 260.778,249.22 261.745,248.754L260.473,245.747C259.564,246.184 258.641,246.593 257.706,246.97L258.8,250.056ZM93.814,250.038C94.833,249.702 95.835,249.339 96.821,248.95L95.75,245.855C94.816,246.223 93.866,246.567 92.901,246.886L93.814,250.038ZM37.932,248.003C38.899,248.467 39.881,248.9 40.877,249.302L41.969,246.214C41.032,245.837 40.109,245.43 39.2,244.994L37.932,248.003ZM197.132,246.452C198.062,246.971 199.01,247.469 199.976,247.944L201.269,244.947C200.351,244.496 199.449,244.022 198.564,243.528L197.132,246.452ZM99.768,247.693C100.745,247.244 101.705,246.771 102.647,246.276L101.281,243.316C100.386,243.787 99.474,244.236 98.545,244.663L99.768,247.693ZM264.607,247.26C265.547,246.73 266.471,246.171 267.378,245.583L265.772,242.763C264.919,243.317 264.049,243.843 263.164,244.342L264.607,247.26ZM32.294,244.844C33.201,245.429 34.126,245.987 35.067,246.514L36.505,243.593C35.619,243.097 34.748,242.572 33.894,242.021L32.294,244.844ZM191.671,243.047C192.55,243.654 193.447,244.244 194.363,244.816L195.924,241.968C195.048,241.421 194.19,240.857 193.35,240.277L191.671,243.047ZM105.453,244.707C106.382,244.156 107.291,243.585 108.183,242.996L106.554,240.191C105.704,240.753 104.837,241.298 103.951,241.823L105.453,244.707ZM270.048,243.734C270.921,243.089 271.775,242.417 272.61,241.72L270.705,239.122C269.917,239.779 269.112,240.413 268.288,241.021L270.048,243.734ZM27.054,240.991C27.89,241.687 28.746,242.357 29.62,243L31.375,240.283C30.551,239.677 29.744,239.045 28.956,238.389L27.054,240.991ZM186.52,239.161C187.346,239.839 188.192,240.506 189.057,241.159L190.843,238.466C190.012,237.838 189.199,237.196 188.404,236.545L186.52,239.161ZM110.832,241.153C111.707,240.513 112.562,239.857 113.398,239.187L111.541,236.549C110.741,237.19 109.922,237.818 109.084,238.431L110.832,241.153ZM275.058,239.552C275.854,238.805 276.63,238.033 277.384,237.239L275.212,234.89C274.5,235.641 273.767,236.369 273.015,237.075L275.058,239.552ZM22.275,236.512C23.029,237.307 23.806,238.078 24.603,238.826L26.644,236.347C25.891,235.641 25.159,234.913 24.447,234.164L22.275,236.512ZM117.96,235.224L117.972,235.213C117.992,235.194 118.1,235.092 118.281,234.92L116.225,232.456L115.916,232.749C115.267,233.358 114.602,233.961 113.922,234.555L115.881,237.107C116.591,236.487 117.284,235.859 117.962,235.223L117.96,235.224ZM182.107,235.283C182.083,235.264 182.061,235.244 182.038,235.223C182.697,235.841 183.371,236.456 184.06,237.065L186.033,234.524C185.379,233.946 184.738,233.362 184.112,232.776L183.729,232.412L181.673,234.877C181.88,235.073 182.004,235.191 182.027,235.213L182.107,235.283ZM279.583,234.788C280.294,233.948 280.982,233.088 281.647,232.208L279.24,230.137C278.612,230.969 277.961,231.782 277.289,232.575L279.583,234.788ZM18.014,231.474C18.678,232.356 19.365,233.218 20.076,234.059L22.372,231.849C21.701,231.055 21.052,230.242 20.426,229.409L18.014,231.474ZM120.59,232.727C121.293,232.059 122.085,231.307 122.9,230.533L120.844,228.068C120.029,228.842 119.237,229.595 118.534,230.262L120.59,232.727ZM177.054,230.489C177.867,231.261 178.659,232.014 179.364,232.683L181.42,230.218C180.715,229.549 179.923,228.797 179.11,228.025L177.054,230.489ZM283.571,229.507C284.189,228.587 284.782,227.648 285.349,226.693L282.737,224.928C282.201,225.83 281.641,226.716 281.058,227.585L283.571,229.507ZM14.329,225.942C14.891,226.901 15.481,227.843 16.096,228.766L18.616,226.854C18.036,225.983 17.48,225.095 16.949,224.191L14.329,225.942ZM125.209,228.339C126.05,227.54 126.846,226.784 127.519,226.145L125.463,223.681C124.79,224.32 123.994,225.076 123.153,225.875L125.209,228.339ZM172.435,226.101C173.105,226.738 173.901,227.494 174.745,228.295L176.8,225.831C175.957,225.03 175.161,224.273 174.491,223.637L172.435,226.101ZM129.833,223.937C130.566,223.23 131.325,222.569 132.107,221.953L130.271,219.298C129.407,219.979 128.568,220.709 127.759,221.49L129.833,223.937ZM167.846,221.916C168.629,222.53 169.39,223.19 170.123,223.895L172.193,221.444C171.382,220.665 170.542,219.936 169.677,219.257L167.846,221.916ZM286.973,223.775C287.488,222.785 287.976,221.779 288.436,220.76L285.65,219.329C285.216,220.29 284.756,221.239 284.27,222.173L286.973,223.775ZM11.276,219.983C11.728,221.007 12.21,222.017 12.719,223.012L15.432,221.429C14.952,220.492 14.499,219.541 14.073,218.577L11.276,219.983ZM134.554,220.22C135.4,219.684 136.267,219.195 137.151,218.754L135.841,215.765C134.865,216.252 133.908,216.792 132.974,217.384L134.554,220.22ZM162.796,218.727C163.681,219.166 164.549,219.653 165.396,220.188L166.97,217.349C166.035,216.758 165.077,216.221 164.101,215.736L162.796,218.727ZM289.732,217.658C290.135,216.609 290.509,215.548 290.852,214.476L287.925,213.41C287.603,214.419 287.251,215.418 286.871,216.405L289.732,217.658ZM139.871,217.565C140.798,217.216 141.739,216.915 142.689,216.663L141.944,213.461C140.898,213.738 139.862,214.069 138.841,214.455L139.871,217.565ZM157.254,216.648C158.205,216.898 159.146,217.197 160.073,217.544L161.098,214.432C160.077,214.049 159.04,213.72 157.993,213.445L157.254,216.648ZM8.917,213.669C9.249,214.746 9.612,215.812 10.006,216.865L12.878,215.643C12.508,214.653 12.167,213.651 11.855,212.639L8.917,213.669ZM145.576,216.053C146.548,215.899 147.526,215.794 148.506,215.738L148.342,212.443C147.264,212.505 146.189,212.62 145.121,212.79L145.576,216.053ZM151.435,215.735C152.415,215.789 153.393,215.892 154.366,216.044L154.815,212.78C153.746,212.612 152.671,212.499 151.594,212.44L151.435,215.735ZM291.788,211.226C292.069,210.131 292.318,209.027 292.533,207.917L289.505,207.248C289.303,208.291 289.069,209.327 288.806,210.354L291.788,211.226ZM7.316,207.082C7.516,208.197 7.751,209.305 8.018,210.403L11.011,209.574C10.76,208.545 10.541,207.506 10.353,206.46L7.316,207.082ZM293.079,204.561C293.227,203.437 293.34,202.307 293.418,201.173L290.335,200.931C290.262,201.993 290.155,203.05 290.017,204.103L293.079,204.561ZM6.53,200.32C6.59,201.458 6.687,202.59 6.818,203.716L9.886,203.309C9.764,202.256 9.673,201.197 9.617,200.134L6.53,200.32ZM293.545,197.765C293.546,197.668 293.546,197.572 293.546,197.475C293.546,197.475 293.546,196.227 293.546,194.456L290.454,194.456L290.453,197.746L293.545,197.765ZM6.454,193.63L6.454,196.929L9.546,196.929L9.546,193.63L6.454,193.63ZM293.546,191.157L293.546,187.857L290.454,187.857L290.454,191.157L293.546,191.157ZM6.454,187.031L6.454,190.33L9.546,190.33L9.546,187.031L6.454,187.031ZM293.546,184.558C293.546,183.438 293.546,182.719 293.546,182.719C293.546,182.214 293.539,181.71 293.525,181.209L290.434,181.309C290.447,181.777 290.454,182.247 290.454,182.719L290.454,184.558L293.546,184.558ZM7.403,183.731L7.399,183.731L8,184.369L7.403,183.731L8.33,183.731C8.137,184.087 8,184.369 8,184.369C8.496,184.369 8.938,184.119 9.22,183.731L9.546,183.731L9.546,182.719C9.546,181.978 9.563,181.242 9.595,180.511L6.507,180.354C6.472,181.137 6.454,181.926 6.454,182.719L7.403,183.731ZM7.399,183.731L6.454,182.73L6.454,183.731L7.399,183.731ZM293.317,177.803C293.21,176.662 293.065,175.534 292.886,174.419L289.838,174.978C290.006,176.017 290.14,177.069 290.24,178.132L293.317,177.803ZM7.257,173.576C7.059,174.688 6.896,175.814 6.77,176.952L9.841,177.339C9.958,176.278 10.11,175.23 10.295,174.194L7.257,173.576ZM292.231,171.075C291.975,169.964 291.682,168.869 291.355,167.789L288.413,168.804C288.718,169.809 288.99,170.83 289.229,171.864L292.231,171.075ZM8.898,166.977C8.553,168.05 8.243,169.14 7.968,170.245L10.956,171.092C11.212,170.062 11.502,169.047 11.823,168.048L8.898,166.977ZM290.263,164.578C289.863,163.52 289.428,162.48 288.961,161.459L286.182,162.906C286.618,163.858 287.023,164.828 287.396,165.813L290.263,164.578ZM11.397,160.693C10.913,161.706 10.461,162.738 10.044,163.787L12.89,165.076C13.279,164.098 13.7,163.136 14.151,162.192L11.397,160.693ZM287.458,158.445C286.925,157.46 286.36,156.495 285.764,155.551L283.199,157.394C283.755,158.275 284.283,159.176 284.781,160.096L287.458,158.445ZM14.689,154.846C14.078,155.779 13.498,156.733 12.949,157.708L15.599,159.408C16.112,158.497 16.654,157.606 17.224,156.735L14.689,154.846ZM283.891,152.788C283.238,151.892 282.557,151.018 281.849,150.167L279.538,152.359C280.201,153.155 280.838,153.973 281.448,154.812L283.891,152.788ZM18.688,149.534C17.966,150.372 17.272,151.233 16.606,152.118L19.016,154.185C19.639,153.357 20.289,152.55 20.965,151.766L18.688,149.534ZM279.651,147.697C278.895,146.901 278.114,146.13 277.308,145.384L275.282,147.877C276.038,148.576 276.77,149.299 277.479,150.045L279.651,147.697ZM23.3,144.83C22.483,145.562 21.69,146.32 20.923,147.102L23.059,149.488C23.779,148.754 24.522,148.043 25.288,147.357L23.3,144.83ZM274.835,143.237C273.992,142.551 273.127,141.892 272.241,141.259L270.522,144.002C271.355,144.596 272.168,145.216 272.96,145.86L274.835,143.237ZM28.426,140.791C27.531,141.409 26.656,142.054 25.804,142.725L27.641,145.38C28.442,144.749 29.264,144.143 30.105,143.562L28.426,140.791ZM269.54,139.457C268.626,138.888 267.693,138.346 266.742,137.833L265.347,140.778C266.243,141.261 267.121,141.771 267.981,142.306L269.54,139.457ZM33.973,137.455C33.014,137.953 32.074,138.479 31.153,139.033L32.671,141.908C33.538,141.386 34.424,140.89 35.326,140.421L33.973,137.455ZM263.86,136.391C262.891,135.943 261.905,135.524 260.904,135.134L259.843,138.233C260.787,138.601 261.717,138.996 262.631,139.419L263.86,136.391ZM39.847,134.848C38.841,135.222 37.849,135.626 36.874,136.059L38.061,139.105C38.981,138.697 39.916,138.316 40.865,137.963L39.847,134.848ZM257.885,134.062C256.875,133.738 255.852,133.443 254.815,133.178L254.095,136.386C255.074,136.637 256.041,136.915 256.994,137.222L257.885,134.062ZM45.961,132.986C44.921,133.235 43.893,133.514 42.879,133.823L43.728,136.996C44.686,136.704 45.656,136.44 46.638,136.205L45.961,132.986ZM251.704,132.481C250.668,132.281 249.62,132.112 248.562,131.972L248.183,135.247C249.184,135.378 250.174,135.539 251.155,135.728L251.704,132.481ZM52.229,131.874C51.169,131.998 50.12,132.152 49.081,132.336L49.587,135.591C50.57,135.417 51.563,135.271 52.565,135.154L52.229,131.874ZM245.4,131.65C244.35,131.574 243.292,131.528 242.227,131.512L242.185,134.811C243.194,134.826 244.196,134.87 245.19,134.942L245.4,131.65ZM58.569,131.507L58.569,131.507C57.503,131.507 56.445,131.537 55.395,131.598L55.562,134.893C56.557,134.835 57.559,134.806 58.569,134.806L59.775,134.806L59.775,131.507L58.581,131.507L58.569,131.507ZM177.272,131.507L174.18,131.507L174.18,134.806L177.272,134.806L177.272,131.507ZM195.825,131.507L192.732,131.507L192.732,134.806L195.825,134.806L195.825,131.507ZM183.456,131.507L180.364,131.507L180.364,134.806L183.456,134.806L183.456,131.507ZM189.64,131.507L186.548,131.507L186.548,134.806L189.64,134.806L189.64,131.507ZM84.511,131.507L81.419,131.507L81.419,134.806L84.511,134.806L84.511,131.507ZM78.327,131.507L75.235,131.507L75.235,134.806L78.327,134.806L78.327,131.507ZM152.536,131.507L149.444,131.507L149.444,134.806L152.536,134.806L152.536,131.507ZM164.904,131.507L161.812,131.507L161.812,134.806L164.904,134.806L164.904,131.507ZM171.088,131.507L167.996,131.507L167.996,134.806L171.088,134.806L171.088,131.507ZM202.009,131.507L198.917,131.507L198.917,134.806L202.009,134.806L202.009,131.507ZM214.377,131.507L211.285,131.507L211.285,134.806L214.377,134.806L214.377,131.507ZM220.562,131.507L217.47,131.507L217.47,134.806L220.562,134.806L220.562,131.507ZM226.746,131.507L223.653,131.507L223.653,134.806L226.746,134.806L226.746,131.507ZM158.72,131.507L155.628,131.507L155.628,134.806L158.72,134.806L158.72,131.507ZM239.114,131.507L236.022,131.507L236.022,134.806L239.114,134.806L239.114,131.507ZM232.93,131.507L229.838,131.507L229.838,134.806L232.93,134.806L232.93,131.507ZM96.879,131.507L93.787,131.507L93.787,134.806L96.879,134.806L96.879,131.507ZM103.063,131.507L99.971,131.507L99.971,134.806L103.063,134.806L103.063,131.507ZM90.695,131.507L87.603,131.507L87.603,134.806L90.695,134.806L90.695,131.507ZM115.432,131.507L112.34,131.507L112.34,134.806L115.432,134.806L115.432,131.507ZM140.168,131.507L137.076,131.507L137.076,134.806L140.168,134.806L140.168,131.507ZM109.248,131.507L106.156,131.507L106.156,134.806L109.248,134.806L109.248,131.507ZM133.984,131.507L130.892,131.507L130.892,134.806L133.984,134.806L133.984,131.507ZM146.352,131.507L143.26,131.507L143.26,134.806L146.352,134.806L146.352,131.507ZM121.616,131.507L118.524,131.507L118.524,134.806L121.616,134.806L121.616,131.507ZM208.193,131.507L205.101,131.507L205.101,134.806L208.193,134.806L208.193,131.507ZM72.143,131.507L69.051,131.507L69.051,134.806L72.143,134.806L72.143,131.507ZM65.959,131.507L62.867,131.507L62.867,134.806L65.959,134.806L65.959,131.507ZM127.8,131.507L124.708,131.507L124.708,134.806L127.8,134.806L127.8,131.507Z" style="fill:#4f0081;fill-opacity:0.5;"/>
        </g>
        <path d="M70.489,256.044L66.489,256.044L66.489,248.044L70.489,248.044L70.489,256.044ZM233.619,256.044L229.619,256.044L229.619,248.044L233.619,248.044L233.619,256.044ZM51.518,247.555C52.836,247.739 54.17,247.872 55.518,247.953L55.518,255.965C54.173,255.896 52.841,255.781 51.518,255.623L51.518,247.555ZM248.59,247.54L248.59,255.609C247.271,255.771 245.937,255.888 244.59,255.959L244.59,247.946C245.938,247.863 247.273,247.727 248.59,247.54ZM214.44,247.537C215.749,247.686 217.082,247.805 218.44,247.891L218.44,255.906C217.085,255.827 215.752,255.72 214.44,255.584L214.44,247.537ZM85.669,247.524L85.669,255.573C84.356,255.71 83.023,255.819 81.669,255.9L81.669,247.884C83.026,247.796 84.36,247.676 85.669,247.524ZM200.681,244.495C201.927,244.926 203.203,245.318 204.507,245.67L202.436,253.401C201.133,253.05 199.856,252.665 198.604,252.245L200.681,244.495ZM99.418,244.461L101.495,252.212C100.244,252.634 98.967,253.021 97.665,253.374L95.593,245.643C96.898,245.288 98.172,244.895 99.418,244.461ZM38.382,243.847C39.608,244.382 40.858,244.87 42.132,245.308L40.057,253.053C38.782,252.628 37.526,252.16 36.291,251.651L38.382,243.847ZM261.715,243.805L263.806,251.611C262.572,252.122 261.317,252.592 260.043,253.019L257.967,245.274C259.24,244.833 260.49,244.343 261.715,243.805ZM187.308,237.526C188.44,238.362 189.609,239.147 190.818,239.883L188.671,247.893C187.452,247.218 186.264,246.501 185.107,245.742L187.308,237.526ZM112.782,237.459L114.985,245.681C113.829,246.443 112.642,247.162 111.423,247.841L109.275,239.826C110.482,239.088 111.651,238.299 112.782,237.459ZM26.239,236.347C27.271,237.208 28.339,238.027 29.439,238.804L25.425,245.757C24.318,244.995 23.238,244.197 22.188,243.363L26.239,236.347ZM273.835,236.287L277.886,243.304C276.837,244.139 275.759,244.94 274.653,245.704L270.638,238.75C271.736,237.971 272.802,237.149 273.835,236.287ZM176.802,239.074L176.833,239.008C176.872,238.913 176.905,238.819 176.934,238.72L179.188,230.307L175.887,227.172L173.53,235.967L176.802,239.074ZM120.898,230.225L124.199,227.09L126.556,235.885L123.273,239.003C123.234,238.913 123.201,238.818 123.174,238.72L120.898,230.225ZM16.817,225.998C17.58,227.112 18.386,228.194 19.232,229.24L13.549,234.923C12.69,233.891 11.865,232.829 11.076,231.739L16.817,225.998ZM283.227,225.934L288.969,231.676C288.182,232.768 287.358,233.832 286.5,234.864L280.816,229.18C281.662,228.131 282.466,227.048 283.227,225.934ZM162.74,216.891C164.113,217.53 165.451,218.275 166.74,219.129L166.74,228.392C166.732,228.698 166.668,228.98 166.542,229.259L166.518,229.306L165.955,228.771C164.945,227.762 163.869,226.866 162.74,226.084L162.74,216.891ZM137.369,216.841L137.369,226.009C136.2,226.808 135.087,227.729 134.045,228.771L133.556,229.236C133.435,228.98 133.369,228.694 133.369,228.392L133.369,219.058C134.658,218.212 135.996,217.473 137.369,216.841ZM148,214.118C148.525,214.081 149.051,214.057 149.577,214.047L150,214.044L150.423,214.047C150.949,214.057 151.475,214.081 152,214.118L152,222.145C151.424,222.09 150.847,222.057 150.27,222.046L149.73,222.046C149.153,222.057 148.576,222.09 148,222.145L148,214.118ZM10.449,213.052C10.868,214.345 11.337,215.615 11.854,216.859L4.875,220.889C4.337,219.658 3.84,218.405 3.385,217.13L10.449,213.052ZM289.568,212.999L296.633,217.078C296.18,218.352 295.685,219.605 295.147,220.839L288.166,216.809C288.683,215.563 289.151,214.292 289.568,212.999ZM8.072,200.185C8.144,201.547 8.27,202.895 8.448,204.225L0.664,206.311C0.463,204.986 0.306,203.647 0.196,202.295L8.072,200.185ZM291.93,200.156L299.806,202.267C299.697,203.618 299.541,204.956 299.34,206.283L291.556,204.197C291.733,202.867 291.859,201.519 291.93,200.156ZM8,186.79L8,190.79L0,190.79L0,186.79L8,186.79ZM300,190.79L292,190.79L292,186.79L300,186.79L300,190.79ZM298.775,170.758C299.046,172.062 299.274,173.382 299.456,174.716L291.657,176.806C291.5,175.464 291.291,174.138 291.032,172.832L298.775,170.758ZM1.231,170.73L8.973,172.805C8.713,174.111 8.503,175.437 8.346,176.778L0.547,174.688C0.731,173.353 0.959,172.032 1.231,170.73ZM294.062,157.01C294.65,158.211 295.199,159.435 295.705,160.68L288.7,164.725C288.219,163.465 287.69,162.228 287.114,161.021L294.062,157.01ZM5.962,156.961L12.909,160.972C12.332,162.18 11.801,163.415 11.32,164.674L4.315,160.629C4.823,159.385 5.373,158.161 5.962,156.961ZM285.272,143.899C286.16,144.901 287.014,145.933 287.833,146.995L282.123,152.705C281.325,151.626 280.485,150.579 279.605,149.567L285.272,143.899ZM14.778,143.842L20.446,149.509C19.564,150.52 18.723,151.565 17.923,152.643L12.214,146.934C13.033,145.874 13.889,144.843 14.778,143.842ZM275.613,135.166C276.704,135.953 277.767,136.775 278.802,137.634L273.118,143.318C272.068,142.473 270.985,141.669 269.87,140.909L275.613,135.166ZM24.45,135.121L30.195,140.865C29.078,141.624 27.993,142.427 26.943,143.27L21.258,137.585C22.293,136.729 23.357,135.907 24.45,135.121ZM261.501,127.685C262.77,128.148 264.018,128.654 265.244,129.201L261.219,136.174C259.98,135.646 258.716,135.167 257.429,134.737L261.501,127.685ZM38.588,127.652L42.661,134.707C41.373,135.134 40.108,135.612 38.868,136.137L34.842,129.163C36.069,128.618 37.319,128.113 38.588,127.652ZM246.935,124.406C248.283,124.532 249.617,124.703 250.939,124.919L248.856,132.692C247.531,132.497 246.188,132.353 244.83,132.263L246.935,124.406ZM53.17,124.396L55.276,132.256C53.918,132.343 52.574,132.484 51.248,132.677L49.165,124.903C50.486,124.689 51.822,124.52 53.17,124.396ZM67.614,132.15L63.614,132.15L63.614,124.15L67.614,124.15L67.614,132.15ZM81.064,132.15L77.064,132.15L77.064,124.15L81.064,124.15L81.064,132.15ZM93.91,132.15L89.91,132.15L89.91,124.15L93.91,124.15L93.91,132.15ZM107.772,132.15L103.772,132.15L103.772,124.15L107.772,124.15L107.772,132.15ZM122.276,132.15L118.276,132.15L118.276,124.15L122.276,124.15L122.276,132.15ZM136.464,132.15L132.464,132.15L132.464,124.15L136.464,124.15L136.464,132.15ZM152,132.15L148,132.15L148,124.15L152,124.15L152,132.15ZM167.644,132.15L163.644,132.15L163.644,124.15L167.644,124.15L167.644,132.15ZM181.832,132.15L177.832,132.15L177.832,124.15L181.832,124.15L181.832,132.15ZM196.336,132.15L192.336,132.15L192.336,124.15L196.336,124.15L196.336,132.15ZM210.198,132.15L206.198,132.15L206.198,124.15L210.198,124.15L210.198,132.15ZM223.044,132.15L219.044,132.15L219.044,124.15L223.044,124.15L223.044,132.15ZM236.494,132.15L232.494,132.15L232.494,124.15L236.494,124.15L236.494,132.15Z" style="fill:#cc7bff;"/>
        <g transform="matrix(1,0,0,1,-2.93335,0)">
            <path d="M40.359,204.259L35.729,209.439C34.257,211.085 34.399,213.615 36.045,215.087C37.691,216.558 40.222,216.416 41.693,214.77L47.102,208.72C53.718,212.305 61.392,214.452 69.26,215.031L69.26,222.487C69.26,224.695 71.052,226.487 73.26,226.487C75.468,226.487 77.26,224.695 77.26,222.487L77.26,215.076C85.152,214.586 92.896,212.501 99.624,208.771L104.987,214.77C106.458,216.416 108.989,216.558 110.635,215.087C112.281,213.615 112.422,211.085 110.951,209.439L106.297,204.232C110.313,200.906 113.717,196.811 116.235,191.931C117.247,189.969 116.476,187.554 114.514,186.542C112.552,185.53 110.137,186.301 109.125,188.263C102.272,201.545 87.314,207.449 72.663,207.181C58.027,206.914 43.462,200.523 37.425,188.323C36.446,186.344 34.045,185.533 32.066,186.512C30.087,187.491 29.276,189.892 30.255,191.871C32.654,196.719 36.137,200.866 40.359,204.259Z" style="fill:#4f0081;"/>
        </g>
        <g transform="matrix(1,0,0,1,156.414,0)">
            <path d="M40.359,204.259L35.729,209.439C34.257,211.085 34.399,213.615 36.045,215.087C37.691,216.558 40.222,216.416 41.693,214.77L47.102,208.72C53.718,212.305 61.392,214.452 69.26,215.031L69.26,222.487C69.26,224.695 71.052,226.487 73.26,226.487C75.468,226.487 77.26,224.695 77.26,222.487L77.26,215.076C85.152,214.586 92.896,212.501 99.624,208.771L104.987,214.77C106.458,216.416 108.989,216.558 110.635,215.087C112.281,213.615 112.422,211.085 110.951,209.439L106.297,204.232C110.313,200.906 113.717,196.811 116.235,191.931C117.247,189.969 116.476,187.554 114.514,186.542C112.552,185.53 110.137,186.301 109.125,188.263C102.272,201.545 87.314,207.449 72.663,207.181C58.027,206.914 43.462,200.523 37.425,188.323C36.446,186.344 34.045,185.533 32.066,186.512C30.087,187.491 29.276,189.892 30.255,191.871C32.654,196.719 36.137,200.866 40.359,204.259Z" style="fill:#4f0081;"/>
        </g>
    </g>
</svg>
