<?xml version="1.0" encoding="UTF-8" standalone="no"?>
<!DOCTYPE svg PUBLIC "-//W3C//DTD SVG 1.1//EN" "http://www.w3.org/Graphics/SVG/1.1/DTD/svg11.dtd">
<svg width="100%" height="100%" viewBox="0 0 300 345" version="1.1" xmlns="http://www.w3.org/2000/svg" xmlns:xlink="http://www.w3.org/1999/xlink" xml:space="preserve" xmlns:serif="http://www.serif.com/" style="fill-rule:evenodd;clip-rule:evenodd;stroke-linejoin:round;stroke-miterlimit:2;">
    <g id="glasses_15">
        <g transform="matrix(0.71005,0,0,0.755888,43.0043,63.5263)">
            <path d="M238.32,251C212.55,244.11 216.19,222 192.79,211.55C164.88,199.12 150,217.61 150,217.61C150,217.61 135.12,199.12 107.21,211.55C83.81,221.93 87.45,244.08 61.68,251C58.854,251.76 56.876,254.341 56.876,257.267C56.876,259.983 58.58,262.424 61.13,263.36C71.94,267.26 85.95,268.36 98.29,256.84C97.16,257.84 100.934,266.912 109.629,268.748C123.548,271.685 135.86,258.3 135.86,258.3C132.17,276.343 166.237,276.218 164.12,258.3C164.12,258.3 182.99,270.125 193.961,267.772C204.532,265.504 202.85,257.85 201.72,256.81C214.06,268.34 228.07,267.23 238.88,263.33C241.403,262.38 243.083,259.952 243.083,257.256C243.083,254.346 241.126,251.774 238.32,251Z" style="fill:#422200;fill-rule:nonzero;"/>
        </g>
        <path d="M117.744,175.273C113.785,199.258 114.017,234.725 150.138,234.356C186.014,233.989 185.323,199.018 180.69,175.24L180.525,175.273C158.817,166.29 137.9,166.412 117.744,175.273Z" style="fill:#dc903e;"/>
        <path d="M118.508,201.624C119.016,208.218 120.976,213.934 124.395,219.501C124.973,220.442 126.206,220.737 127.146,220.159C128.087,219.581 128.382,218.349 127.804,217.408C124.726,212.396 122.954,207.253 122.496,201.317C122.411,200.216 121.449,199.391 120.348,199.476C119.248,199.561 118.423,200.523 118.508,201.624Z" style="fill:#c87c2b;"/>
        <g transform="matrix(1.38961,0.0331914,-0.0331914,1.38961,-49.3079,-81.394)">
            <path d="M165.671,208.24C164.551,212.06 162.696,214.447 159.397,216.343C158.708,216.738 158.47,217.619 158.866,218.307C159.262,218.996 160.142,219.234 160.83,218.838C164.82,216.545 167.078,213.669 168.433,209.05C168.656,208.287 168.219,207.487 167.457,207.264C166.695,207.041 165.895,207.478 165.671,208.24Z" style="fill:#c87c2b;"/>
        </g>
        <path d="M189.481,172.5C174.023,202.136 193.471,244.733 240.942,241.931C274.552,239.947 292.103,210.735 287.859,178.613C281.344,154.279 198.986,154.279 189.481,172.5Z" style="fill:#d9e5f4;fill-opacity:0.5;"/>
        <g transform="matrix(-1,0,0,1,299.969,0)">
            <path d="M191.762,172.5C175.372,217.031 200.732,244.733 240.942,241.931C274.529,239.59 292.103,210.735 287.859,178.613C281.344,154.279 198.86,153.214 191.762,172.5Z" style="fill:#d9e5f4;fill-opacity:0.5;"/>
        </g>
        <path d="M148.98,171.914C143.637,172.168 138.222,172.726 132.525,173.558C130.211,173.896 124.497,175.343 121.548,179.29C118.488,183.387 118.232,190.03 118.045,192.7C117.042,207.063 112.858,215.165 106,227.276C97.691,241.952 75.409,245.512 59.211,244.6C44.316,243.761 31.564,237.384 23.118,227.918C17.653,221.794 10.166,207.435 8.494,195.179C7.014,184.328 5.801,181.336 0,178.608L0,167.672C33.851,149.785 83.37,150.263 114.2,166.415C114.316,166.475 116.494,165.881 119.723,164.896C126.777,162.743 137.863,161.46 149.497,161.224L150.042,161.236C161.476,161.5 172.327,162.777 179.272,164.896C182.501,165.881 184.679,166.475 184.795,166.415C215.625,150.263 265.144,149.785 298.995,167.672L298.995,178.608C293.194,181.336 291.98,184.328 290.5,195.179C288.828,207.435 281.341,221.794 275.877,227.918C267.431,237.384 254.679,243.761 239.783,244.6C223.586,245.512 201.304,241.952 192.994,227.276C186.137,215.165 181.952,207.063 180.949,192.7C180.763,190.03 180.506,183.387 177.446,179.29C174.498,175.343 168.783,173.896 166.469,173.558C160.589,172.699 155.009,172.132 149.497,171.89L148.98,171.914ZM26.591,224.936C32.001,231.347 45.354,240.334 59.844,240.407C72.948,240.474 93.467,238.913 103.213,221.321C116.187,197.902 111.282,178.894 102.177,170.747C88.976,158.933 36.012,157.349 21.883,170.751C10.619,181.434 11.355,206.879 26.591,224.936ZM272.403,224.936C266.994,231.347 253.641,240.334 239.15,240.407C226.046,240.474 205.528,238.913 195.782,221.321C182.807,197.902 187.713,178.894 196.817,170.747C210.019,158.933 262.982,157.349 277.112,170.751C288.376,181.434 287.64,206.879 272.403,224.936Z" style="fill:#ce1400;"/>
    </g>
</svg>
