<?xml version="1.0" encoding="UTF-8" standalone="no"?>
<!DOCTYPE svg PUBLIC "-//W3C//DTD SVG 1.1//EN" "http://www.w3.org/Graphics/SVG/1.1/DTD/svg11.dtd">
<svg width="100%" height="100%" viewBox="0 0 300 345" version="1.1" xmlns="http://www.w3.org/2000/svg" xmlns:xlink="http://www.w3.org/1999/xlink" xml:space="preserve" xmlns:serif="http://www.serif.com/" style="fill-rule:evenodd;clip-rule:evenodd;stroke-linejoin:round;stroke-miterlimit:2;">
    <g id="glasses_16">
        <g transform="matrix(1.38046,0,0,0.768638,-56.3961,49.583)">
            <circle cx="149.742" cy="238.625" r="21.829" style="fill:#0074ac;"/>
        </g>
        <g transform="matrix(1,0,0,1,0,1)">
            <path d="M241.431,123.15C273.756,123.15 300,149.394 300,181.719L300,196.475C300,228.8 273.756,255.044 241.431,255.044L221.823,255.044C203.336,254.612 188.611,249.166 177.571,238.805L165.955,227.771C161.58,223.396 155.941,221.154 150.27,221.046L150,221.042C144.238,221.083 138.49,223.327 134.045,227.771L122.429,238.805C111.389,249.166 96.664,254.612 78.177,255.044L58.569,255.044C26.244,255.044 0,228.8 0,196.475L0,181.719C0,149.394 26.244,123.15 58.569,123.15L241.431,123.15ZM58.569,133.15C31.763,133.15 10,154.913 10,181.719L10,196.475C10,223.281 31.763,245.044 58.569,245.044C58.569,245.044 78.055,245.044 78.079,245.043C93.695,244.655 106.229,240.285 115.569,231.529C115.569,231.529 127.074,220.6 127.066,220.609C133.465,214.257 141.726,211.06 150,211.018L150.388,211.022C158.531,211.16 166.634,214.356 172.934,220.609C172.926,220.6 184.431,231.529 184.431,231.529C193.771,240.285 206.305,244.655 221.921,245.043C221.945,245.044 241.431,245.044 241.431,245.044C268.237,245.044 290,223.281 290,196.475L290,181.719C290,154.913 268.237,133.15 241.431,133.15L58.569,133.15Z" style="fill:#008cd0;"/>
        </g>
        <g transform="matrix(1,0,0,1,0,1)">
            <path d="M241.431,133.15C268.237,133.15 290,154.913 290,181.719L290,196.475C290,223.281 268.237,245.044 241.431,245.044C241.431,245.044 221.945,245.044 221.921,245.043C206.305,244.655 193.771,240.285 184.431,231.529C184.431,231.529 172.926,220.6 172.934,220.609C166.634,214.356 158.531,211.16 150.388,211.022L150,211.018L149.612,211.022C141.469,211.16 133.366,214.356 127.066,220.609C127.074,220.6 115.569,231.529 115.569,231.529C106.229,240.285 93.695,244.655 78.079,245.043C78.055,245.044 58.569,245.044 58.569,245.044C31.763,245.044 10,223.281 10,196.475L10,181.719C10,154.913 31.763,133.15 58.569,133.15L241.431,133.15ZM58.569,137.15C33.971,137.15 14,157.121 14,181.719C14,181.719 14,196.475 14,196.475C14,221.073 33.971,241.044 58.569,241.044C58.569,241.044 77.858,241.045 77.987,241.044C92.48,240.683 104.155,236.743 112.826,228.618C113.19,228.272 122.171,219.741 123.991,218.012C124.051,217.955 124.111,217.901 124.171,217.85L124.257,217.761C131.323,210.752 140.412,207.178 149.544,207.023L150,207.021L150.456,207.023C159.588,207.178 168.677,210.752 175.743,217.761L175.829,217.85C175.889,217.901 175.949,217.955 176.009,218.012C177.829,219.741 186.81,228.272 187.174,228.618C195.845,236.743 207.52,240.683 222.013,241.044C222.142,241.045 241.431,241.044 241.431,241.044C266.029,241.044 286,221.073 286,196.475C286,196.475 286,181.719 286,181.719C286,157.121 266.029,137.15 241.431,137.15L58.569,137.15Z"/>
        </g>
        <g transform="matrix(1,0,0,1,0,1)">
            <path d="M149.544,207.023C140.412,207.178 131.323,210.752 124.257,217.761L124.171,217.85C124.111,217.901 124.051,217.955 123.991,218.012L112.826,228.618C104.155,236.743 92.48,240.683 77.987,241.044C77.858,241.045 58.569,241.044 58.569,241.044C33.971,241.044 14,221.073 14,196.475C14,196.475 14,181.719 14,181.719C14,157.121 33.971,137.15 58.569,137.15L241.431,137.15C266.029,137.15 286,157.121 286,181.719C286,181.719 286,196.475 286,196.475C286,221.073 266.029,241.044 241.431,241.044C241.431,241.044 222.142,241.045 222.013,241.044C207.52,240.683 195.845,236.743 187.174,228.618L176.009,218.012C175.949,217.955 175.889,217.901 175.829,217.85L175.743,217.761C168.677,210.752 159.588,207.178 150.456,207.023L149.544,207.023ZM58.569,141.15C36.178,141.15 18,159.328 18,181.719C18,181.719 18,196.475 18,196.475C18,218.865 36.178,237.044 58.569,237.044C58.569,237.044 58.569,237.044 58.569,237.044C58.569,237.044 76.991,237.045 77.934,237.044C91.286,236.704 102.089,233.193 110.083,225.707C110.597,225.218 121.357,214.999 121.417,214.945L121.44,214.921C129.273,207.151 139.353,203.195 149.476,203.023L149.476,203.024L150,203.022L150.524,203.024L150.524,203.023C160.647,203.195 170.727,207.151 178.56,214.921L178.583,214.945C178.643,214.999 189.403,225.218 189.917,225.707C197.911,233.193 208.714,236.704 222.066,237.044C223.009,237.045 241.431,237.044 241.431,237.044C241.431,237.044 241.431,237.044 241.431,237.044C263.822,237.044 282,218.865 282,196.475C282,196.475 282,181.719 282,181.719C282,159.328 263.822,141.15 241.431,141.15L58.569,141.15Z" style="fill:#b3aeaa;"/>
        </g>
        <g transform="matrix(1,0,0,1,0,1)">
            <path d="M149.544,207.023C140.412,207.178 131.323,210.752 124.257,217.761L124.171,217.85C124.111,217.901 124.051,217.955 123.991,218.012L112.826,228.618C104.155,236.743 92.48,240.683 77.987,241.044C77.858,241.045 58.569,241.044 58.569,241.044C33.971,241.044 14,221.073 14,196.475C14,196.475 14,181.719 14,181.719C14,157.121 33.971,137.15 58.569,137.15L241.431,137.15C266.029,137.15 286,157.121 286,181.719C286,181.719 286,196.475 286,196.475C286,221.073 266.029,241.044 241.431,241.044C241.431,241.044 222.142,241.045 222.013,241.044C207.52,240.683 195.845,236.743 187.174,228.618L176.009,218.012C175.949,217.955 175.889,217.901 175.829,217.85L175.743,217.761C168.677,210.752 159.588,207.178 150.456,207.023L149.544,207.023Z" style="fill:#dce8f6;fill-opacity:0.5;"/>
        </g>
        <path d="M37.383,236.688L99.791,138.15L184.643,138.15L139.359,209.651C133.858,211.354 128.664,214.39 124.257,218.761L124.171,218.85C124.111,218.901 124.051,218.955 123.991,219.012L112.826,229.618C104.155,237.743 92.48,241.683 77.987,242.044C77.858,242.045 58.569,242.044 58.569,242.044C50.902,242.044 43.684,240.103 37.383,236.688ZM211.065,138.15L241.431,138.15C249.357,138.15 256.802,140.223 263.253,143.856L203.024,238.954C196.953,236.906 191.661,233.823 187.174,229.618L176.009,219.012C175.949,218.955 175.889,218.901 175.829,218.85L175.743,218.761C172.462,215.506 168.744,212.992 164.789,211.218L211.065,138.15Z" style="fill:#fff;fill-opacity:0.5;"/>
    </g>
</svg>
