<?xml version="1.0" encoding="UTF-8" standalone="no"?>
<!DOCTYPE svg PUBLIC "-//W3C//DTD SVG 1.1//EN" "http://www.w3.org/Graphics/SVG/1.1/DTD/svg11.dtd">
<svg width="100%" height="100%" viewBox="0 0 300 345" version="1.1" xmlns="http://www.w3.org/2000/svg" xmlns:xlink="http://www.w3.org/1999/xlink" xml:space="preserve" xmlns:serif="http://www.serif.com/" style="fill-rule:evenodd;clip-rule:evenodd;stroke-linejoin:round;stroke-miterlimit:2;">
    <g id="glasses_21">
        <g transform="matrix(1,0,0,1,0,-1.11848)">
            <path d="M106.479,185.13C135.504,168.984 164.528,169.345 193.553,185.147L197.378,178.121C165.782,160.919 134.186,160.562 102.59,178.139L106.479,185.13Z" style="fill:#2a1602;"/>
        </g>
        <g transform="matrix(0.920939,-0.389706,0.470269,1.11132,-91.8241,30.3667)">
            <path d="M124.356,172.744C124.356,171.711 123.343,170.872 122.097,170.872L117.479,170.872C116.232,170.872 115.22,171.711 115.22,172.744L115.22,183.498C115.22,184.531 116.232,185.37 117.479,185.37L122.097,185.37C123.343,185.37 124.356,184.531 124.356,183.498L124.356,172.744Z" style="fill:#999;"/>
        </g>
        <g transform="matrix(-0.920939,-0.389706,-0.470269,1.11132,391.824,30.3667)">
            <path d="M124.356,172.744C124.356,171.711 123.343,170.872 122.097,170.872L117.479,170.872C116.232,170.872 115.22,171.711 115.22,172.744L115.22,183.498C115.22,184.531 116.232,185.37 117.479,185.37L122.097,185.37C123.343,185.37 124.356,184.531 124.356,183.498L124.356,172.744Z" style="fill:#999;"/>
        </g>
        <g>
            <path d="M56.93,247.324C55.396,247.448 53.84,247.511 52.267,247.511C23.42,247.511 -0,226.18 -0,199.907C-0,173.633 23.42,152.303 52.267,152.303C53.84,152.303 55.396,152.366 56.93,152.49L56.93,164.005C55.3,164.064 53.845,164.303 52.267,164.303C30.692,164.303 13.175,180.256 13.175,199.907C13.175,219.557 30.692,235.511 52.267,235.511C53.845,235.511 55.4,235.801 56.93,235.635L56.93,247.324Z" style="fill:#492603;"/>
            <path d="M56.93,247.324C55.396,247.448 53.84,247.511 52.267,247.511C23.42,247.511 -0,226.18 -0,199.907C-0,173.633 23.42,152.303 52.267,152.303C53.84,152.303 55.396,152.366 56.93,152.49L56.93,164.005C55.3,164.064 53.845,164.303 52.267,164.303C30.692,164.303 13.175,180.256 13.175,199.907C13.175,219.557 30.692,235.511 52.267,235.511C53.845,235.511 55.4,235.801 56.93,235.635L56.93,247.324ZM54.93,245.448C54.049,245.49 53.161,245.511 52.267,245.511C24.573,245.511 2,225.131 2,199.907C2,174.683 24.573,154.303 52.267,154.303C53.161,154.303 54.049,154.324 54.93,154.366C54.93,154.366 54.93,162.141 54.93,162.141C54.045,162.221 53.177,162.303 52.267,162.303C29.539,162.303 11.175,179.206 11.175,199.907C11.175,220.608 29.539,237.511 52.267,237.511C53.162,237.511 54.05,237.595 54.93,237.644L54.93,245.448Z" style="fill:#2a1602;"/>
            <g transform="matrix(0.756662,0,0,0.756662,6.90812,55.6184)">
                <path d="M66.109,127.777C31.386,127.777 3.195,155.968 3.195,190.691C3.195,225.414 31.386,253.605 66.109,253.605C100.832,253.605 129.023,225.414 129.023,190.691C129.023,155.968 100.832,127.777 66.109,127.777ZM66.109,143.636C92.079,143.636 113.164,164.721 113.164,190.691C113.164,216.661 92.079,237.745 66.109,237.745C40.139,237.745 19.055,216.661 19.055,190.691C19.055,164.721 40.139,143.636 66.109,143.636Z" style="fill:#2e422b;"/>
            </g>
            <g transform="matrix(1.05721,0,0,1.05721,-12.0614,-13.3381)">
                <circle cx="65.258" cy="201.706" r="34.714" style="fill:#d9e5f4;fill-opacity:0.5;"/>
            </g>
            <path d="M85.013,176.289C87.918,179.739 90.199,183.73 91.682,188.087L72.566,233.114C68.537,235.016 64.109,236.206 59.442,236.522L85.013,176.289ZM50.065,163.849C52.29,163.427 54.585,163.207 56.93,163.207C66.367,163.207 74.977,166.776 81.48,172.636L54.359,236.518C42.591,235.702 32.343,229.327 26.224,220.004L50.065,163.849Z" style="fill:#fff;fill-opacity:0.5;"/>
            <g transform="matrix(0.756662,0,0,0.756662,6.90812,55.6184)">
                <path d="M66.109,135.707C35.763,135.707 11.125,160.344 11.125,190.691C11.125,221.037 35.763,245.675 66.109,245.675C96.456,245.675 121.093,221.037 121.093,190.691C121.093,160.344 96.456,135.707 66.109,135.707ZM66.109,143.636C92.079,143.636 113.164,164.721 113.164,190.691C113.164,216.661 92.079,237.745 66.109,237.745C40.139,237.745 19.055,216.661 19.055,190.691C19.055,164.721 40.139,143.636 66.109,143.636Z" style="fill:#4d7048;"/>
            </g>
        </g>
        <g transform="matrix(-1,0,0,1,300,0)">
            <path d="M56.93,247.324C55.396,247.448 53.84,247.511 52.267,247.511C23.42,247.511 -0,226.18 -0,199.907C-0,173.633 23.42,152.303 52.267,152.303C53.84,152.303 55.396,152.366 56.93,152.49L56.93,164.005C55.3,164.064 53.845,164.303 52.267,164.303C30.692,164.303 13.175,180.256 13.175,199.907C13.175,219.557 30.692,235.511 52.267,235.511C53.845,235.511 55.4,235.801 56.93,235.635L56.93,247.324Z" style="fill:#492603;"/>
            <path d="M56.93,247.324C55.396,247.448 53.84,247.511 52.267,247.511C23.42,247.511 -0,226.18 -0,199.907C-0,173.633 23.42,152.303 52.267,152.303C53.84,152.303 55.396,152.366 56.93,152.49L56.93,164.005C55.3,164.064 53.845,164.303 52.267,164.303C30.692,164.303 13.175,180.256 13.175,199.907C13.175,219.557 30.692,235.511 52.267,235.511C53.845,235.511 55.4,235.801 56.93,235.635L56.93,247.324ZM54.93,245.448C54.049,245.49 53.161,245.511 52.267,245.511C24.573,245.511 2,225.131 2,199.907C2,174.683 24.573,154.303 52.267,154.303C53.161,154.303 54.049,154.324 54.93,154.366C54.93,154.366 54.93,162.141 54.93,162.141C54.045,162.221 53.177,162.303 52.267,162.303C29.539,162.303 11.175,179.206 11.175,199.907C11.175,220.608 29.539,237.511 52.267,237.511C53.162,237.511 54.05,237.595 54.93,237.644L54.93,245.448Z" style="fill:#2a1602;"/>
            <g transform="matrix(0.756662,0,0,0.756662,6.90812,55.6184)">
                <path d="M66.109,127.777C31.386,127.777 3.195,155.968 3.195,190.691C3.195,225.414 31.386,253.605 66.109,253.605C100.832,253.605 129.023,225.414 129.023,190.691C129.023,155.968 100.832,127.777 66.109,127.777ZM66.109,143.636C92.079,143.636 113.164,164.721 113.164,190.691C113.164,216.661 92.079,237.745 66.109,237.745C40.139,237.745 19.055,216.661 19.055,190.691C19.055,164.721 40.139,143.636 66.109,143.636Z" style="fill:#2e422b;"/>
            </g>
            <g transform="matrix(-1,0,0,1,300,0)">
                <path d="M253.499,235.779L241.324,228.182L238.678,228.196L251.476,236.169C251.476,236.169 252.772,235.936 253.499,235.779ZM270.185,227.253L262.061,217.132L264.711,217.124C264.711,217.124 268.171,221.383 271.881,225.634C271.333,226.191 270.185,227.253 270.185,227.253ZM252.155,163.77C253.078,163.934 253.99,164.132 254.888,164.363L250.221,202.889L247.576,202.894L247.459,202.762L252.155,163.77ZM231.126,166.227C232.31,165.713 233.526,165.259 234.771,164.87L228.614,181.409L223.53,196.915L220.881,196.916L231.126,166.227ZM271.903,174.202L266.384,187.134L269.032,187.129L274.004,176.532C273.337,175.726 271.903,174.202 271.903,174.202Z" style="fill:#afc4df;fill-opacity:0.5;"/>
            </g>
            <g transform="matrix(-1,0,0,1,300,0)">
                <path d="M250.85,235.779L238.675,228.182L233.732,235.406C236.713,236.19 239.843,236.607 243.07,236.607C245.739,236.607 248.343,236.321 250.85,235.779ZM255.924,234.289L262.062,217.124C262.062,217.124 265.522,221.383 269.232,225.634C265.514,229.415 260.983,232.395 255.924,234.289ZM209.486,185.094C215.185,172.207 228.085,163.207 243.07,163.207C246.236,163.207 249.308,163.609 252.239,164.363L247.572,202.889L225.965,181.409L220.881,196.915L209.486,185.094ZM254.153,164.913L266.383,187.129L271.355,176.532C266.908,171.158 260.959,167.07 254.153,164.913Z" style="fill:#d9e5f4;fill-opacity:0.5;"/>
            </g>
            <g transform="matrix(-1,0,0,1,300,0)">
                <path d="M237.652,229.677L233.732,235.406C235.934,235.985 238.216,236.364 240.558,236.522L237.652,229.677ZM243.336,231.09L245.641,236.518C247.414,236.395 249.153,236.146 250.85,235.779L243.336,231.09ZM255.924,234.289L262.062,217.124C262.062,217.124 265.521,221.382 269.232,225.634C265.513,229.415 260.983,232.394 255.924,234.289ZM224.344,186.355L218.52,172.636C225.023,166.776 233.633,163.207 243.07,163.207C245.415,163.207 247.71,163.427 249.935,163.849L251.776,168.185L247.572,202.889L225.965,181.409L224.344,186.355ZM222.129,193.112L214.987,176.289C212.761,178.933 210.901,181.894 209.486,185.094L220.881,196.915L222.129,193.112Z" style="fill:#fff;fill-opacity:0.5;"/>
            </g>
            <g transform="matrix(0.756662,0,0,0.756662,6.90812,55.6184)">
                <path d="M66.109,135.707C35.763,135.707 11.125,160.344 11.125,190.691C11.125,221.037 35.763,245.675 66.109,245.675C96.456,245.675 121.093,221.037 121.093,190.691C121.093,160.344 96.456,135.707 66.109,135.707ZM66.109,143.636C92.079,143.636 113.164,164.721 113.164,190.691C113.164,216.661 92.079,237.745 66.109,237.745C40.139,237.745 19.055,216.661 19.055,190.691C19.055,164.721 40.139,143.636 66.109,143.636Z" style="fill:#4d7048;"/>
            </g>
        </g>
    </g>
</svg>
