<?xml version="1.0" encoding="UTF-8" standalone="no"?>
<!DOCTYPE svg PUBLIC "-//W3C//DTD SVG 1.1//EN" "http://www.w3.org/Graphics/SVG/1.1/DTD/svg11.dtd">
<svg width="100%" height="100%" viewBox="0 0 300 345" version="1.1" xmlns="http://www.w3.org/2000/svg" xmlns:xlink="http://www.w3.org/1999/xlink" xml:space="preserve" xmlns:serif="http://www.serif.com/" style="fill-rule:evenodd;clip-rule:evenodd;stroke-linejoin:round;stroke-miterlimit:2;">
    <g id="glasses_18">
        <path d="M188.074,162.753L195.463,174.258L208.688,177.731L200.03,188.313L200.814,201.964L188.074,197L175.334,201.964L176.118,188.313L167.46,177.731L180.685,174.258L188.074,162.753ZM111.926,162.753L119.315,174.258L132.54,177.731L123.882,188.313L124.666,201.964L111.926,197L99.186,201.964L99.97,188.313L91.312,177.731L104.537,174.258L111.926,162.753ZM150.024,143.036L160.035,158.621L177.95,163.325L166.221,177.662L167.283,196.154L150.024,189.429L132.765,196.154L133.827,177.662L122.098,163.325L140.014,158.621L150.024,143.036Z" style="fill:#b5fffb;"/>
        <path d="M125.5,175.882L132.54,177.731L123.882,188.313L124.38,196.973L121.282,200.645L111.926,197L105.609,199.461L125.5,175.882ZM135.455,195.106L165.109,159.953L174.218,162.345L151.038,189.824L150.024,189.429L135.455,195.106ZM175.594,187.673L191.766,168.502L194.235,172.346L175.778,194.226L176.118,188.313L175.594,187.673ZM128.988,171.747L151.401,145.179L158.607,156.399L133.327,186.366L133.827,177.662L128.988,171.747Z" style="fill:#d1fffd;"/>
        <path d="M128.806,174.682L120.577,172.521C120.577,172.521 113.609,161.672 113.609,161.672C113.241,161.1 112.607,160.753 111.926,160.753C111.245,160.753 110.611,161.1 110.243,161.672L103.275,172.521C103.275,172.521 90.804,175.796 90.804,175.796C90.145,175.969 89.62,176.465 89.41,177.112C89.199,177.76 89.333,178.47 89.764,178.997L97.928,188.977C97.928,188.977 97.189,201.849 97.189,201.849C97.15,202.529 97.459,203.182 98.01,203.582C98.561,203.982 99.277,204.075 99.912,203.828L111.926,199.147C111.926,199.147 123.94,203.828 123.94,203.828C124.575,204.075 125.291,203.982 125.842,203.582C126.393,203.182 126.702,202.529 126.663,201.849L125.924,188.977L131.571,182.074L130.768,196.039C130.729,196.719 131.039,197.372 131.59,197.772C132.14,198.172 132.857,198.265 133.491,198.018L150.024,191.576C150.024,191.576 166.557,198.018 166.557,198.018C167.192,198.265 167.908,198.172 168.459,197.772C169.01,197.372 169.319,196.719 169.28,196.039L168.482,182.138L174.076,188.977C174.076,188.977 173.337,201.849 173.337,201.849C173.298,202.529 173.607,203.182 174.158,203.582C174.709,203.982 175.425,204.075 176.06,203.828L188.074,199.147C188.074,199.147 200.088,203.828 200.088,203.828C200.723,204.075 201.439,203.982 201.99,203.582C202.541,203.182 202.85,202.529 202.811,201.849L202.072,188.977C202.072,188.977 210.236,178.997 210.236,178.997C210.667,178.47 210.801,177.76 210.59,177.112C210.38,176.465 209.855,175.969 209.196,175.796L196.725,172.521C196.725,172.521 189.757,161.672 189.757,161.672C189.389,161.1 188.755,160.753 188.074,160.753C187.393,160.753 186.759,161.1 186.391,161.672L179.423,172.521L171.256,174.666L179.498,164.592C179.929,164.065 180.063,163.355 179.852,162.707C179.642,162.06 179.117,161.564 178.458,161.391L161.296,156.884C161.296,156.884 151.707,141.955 151.707,141.955C151.339,141.382 150.705,141.036 150.024,141.036C149.344,141.036 148.709,141.382 148.342,141.955L138.752,156.884C138.752,156.884 121.591,161.391 121.591,161.391C120.932,161.564 120.407,162.06 120.196,162.707C119.986,163.355 120.119,164.065 120.55,164.592L128.806,174.682ZM188.074,166.454L193.781,175.339C194.051,175.76 194.471,176.065 194.955,176.192L205.169,178.874C205.169,178.874 198.482,187.047 198.482,187.047C198.165,187.435 198.005,187.928 198.034,188.428L198.639,198.97C198.639,198.97 188.8,195.137 188.8,195.137C188.333,194.955 187.815,194.955 187.348,195.137L177.509,198.97C177.509,198.97 178.114,188.428 178.114,188.428C178.143,187.928 177.983,187.435 177.666,187.047L170.979,178.874C170.979,178.874 181.193,176.192 181.193,176.192C181.677,176.065 182.097,175.76 182.367,175.339L188.074,166.454ZM111.926,166.454L117.633,175.339C117.903,175.76 118.323,176.065 118.807,176.192L129.021,178.874C129.021,178.874 122.334,187.047 122.334,187.047C122.017,187.435 121.857,187.928 121.886,188.428L122.491,198.97C122.491,198.97 112.652,195.137 112.652,195.137C112.185,194.955 111.667,194.955 111.2,195.137L101.361,198.97C101.361,198.97 101.966,188.428 101.966,188.428C101.995,187.928 101.835,187.435 101.518,187.047L94.831,178.874C94.831,178.874 105.045,176.192 105.045,176.192C105.529,176.065 105.949,175.76 106.219,175.339L111.926,166.454ZM150.024,146.737L158.352,159.702C158.623,160.123 159.042,160.428 159.527,160.555L174.431,164.469C174.431,164.469 164.673,176.395 164.673,176.395C164.356,176.783 164.196,177.276 164.225,177.776L165.108,193.16C165.108,193.16 150.75,187.566 150.75,187.566C150.283,187.384 149.765,187.384 149.298,187.566L134.94,193.16C134.94,193.16 135.824,177.776 135.824,177.776C135.853,177.276 135.693,176.783 135.375,176.395L125.618,164.469C125.618,164.469 140.522,160.555 140.522,160.555C141.007,160.428 141.426,160.123 141.697,159.702L150.024,146.737Z" style="fill:#00fef0;"/>
        <g id="space-ship" serif:id="space ship" transform="matrix(-0.104287,0.487166,-0.535404,-0.114613,738.754,-329.588)">
            <g transform="matrix(-0.246367,-0.618989,-0.618989,0.203974,2193.94,1539.52)">
                <path d="M1045.28,869.725L1046.89,973.508C1031.07,966.805 1021.6,955.16 1011.28,941.844C996.428,922.687 993.59,895.816 995.605,883.268L995.62,883.267C997.985,870.294 1045.28,869.725 1045.28,869.725Z" style="fill:#8d2d83;"/>
            </g>
            <g transform="matrix(-0.246367,-0.618989,-0.618989,0.203974,2193.94,1539.52)">
                <path d="M992.986,882.289C993.454,880.232 994.655,878.346 996.548,876.717C998.901,874.694 1002.45,873.01 1006.63,871.697C1021.63,866.99 1045.25,866.684 1045.25,866.684C1046.77,866.666 1048.02,868.001 1048.05,869.673L1049.66,973.456C1049.67,974.467 1049.23,975.421 1048.47,976C1047.72,976.58 1046.75,976.709 1045.89,976.345C1029.61,969.444 1019.8,957.527 1009.17,943.816C993.691,923.846 990.779,895.82 992.88,882.739C992.905,882.584 992.94,882.434 992.986,882.289ZM998.322,883.849C996.408,895.89 999.185,921.556 1013.38,939.872C1022.53,951.68 1030.96,962.195 1044.05,968.883C1044.05,968.882 1042.56,872.837 1042.56,872.837L1042.56,872.837C1036.08,873.063 1019.53,873.973 1008.15,877.545C1005.28,878.445 1002.76,879.502 1000.88,880.8C999.568,881.707 998.559,882.629 998.333,883.865L998.322,883.849ZM996.289,881.124L995.625,880.253L995.62,880.226L996.289,881.124Z" style="fill:#57004e;"/>
            </g>
            <g transform="matrix(-0.246367,0.618989,-0.618989,-0.203974,2193.94,486.514)">
                <path d="M1045.28,869.725L1046.89,973.508C1031.07,966.805 1021.6,955.16 1011.28,941.844C996.428,922.687 993.59,895.816 995.605,883.268L995.62,883.267C997.985,870.294 1045.28,869.725 1045.28,869.725Z" style="fill:#8d2d83;"/>
            </g>
            <g transform="matrix(-0.246367,0.618989,-0.618989,-0.203974,2193.94,486.514)">
                <path d="M992.986,882.289C993.454,880.232 994.655,878.346 996.548,876.717C998.901,874.694 1002.45,873.01 1006.63,871.697C1021.63,866.99 1045.25,866.684 1045.25,866.684C1046.77,866.666 1048.02,868.001 1048.05,869.673L1049.66,973.456C1049.67,974.467 1049.23,975.421 1048.47,976C1047.72,976.58 1046.75,976.709 1045.89,976.345C1029.61,969.444 1019.8,957.527 1009.17,943.816C993.691,923.846 990.779,895.82 992.88,882.739C992.905,882.584 992.94,882.434 992.986,882.289ZM998.322,883.849C996.408,895.89 999.185,921.556 1013.38,939.872C1022.53,951.68 1030.96,962.195 1044.05,968.883C1044.05,968.882 1042.56,872.837 1042.56,872.837L1042.56,872.837C1036.08,873.063 1019.53,873.973 1008.15,877.545C1005.28,878.445 1002.76,879.502 1000.88,880.8C999.568,881.707 998.559,882.629 998.333,883.865L998.322,883.849ZM996.289,881.124L995.625,880.253L995.62,880.226L996.289,881.124Z" style="fill:#57004e;"/>
            </g>
            <g transform="matrix(0.5,-2.78578e-17,-3.36477e-17,1,704.345,99.1263)">
                <path d="M1464.03,871.575C1459.93,867.154 1456.14,863.565 1446.42,863.565L1387.8,863.565C1378.09,863.565 1370.2,867.154 1370.2,871.575L1370.2,954.269C1370.2,958.689 1378.09,962.278 1387.8,962.278L1446.42,962.278C1456.14,962.278 1459.93,958.689 1464.03,954.269C1477.49,926.704 1478.08,899.139 1464.03,871.575Z" style="fill:#8d2d83;"/>
            </g>
            <g transform="matrix(0.5,-2.78578e-17,-3.36477e-17,1,704.345,99.1263)">
                <path d="M1469.95,870.949C1469.87,870.796 1469.76,870.646 1469.63,870.501C1464.45,864.904 1458.72,860.798 1446.42,860.798L1387.8,860.798C1374.73,860.798 1364.12,865.627 1364.12,871.575L1364.12,954.269C1364.12,960.216 1374.73,965.045 1387.8,965.045L1446.42,965.045C1458.72,965.045 1464.45,960.939 1469.63,955.343C1469.77,955.19 1469.88,955.031 1469.96,954.869C1483.63,926.896 1484.21,898.922 1469.95,870.949ZM1458.22,872.43C1471.9,899.427 1471.32,926.424 1458.21,953.421C1456.81,954.931 1455.46,956.327 1453.8,957.464C1452.05,958.659 1449.92,959.511 1446.42,959.511C1446.42,959.511 1387.8,959.511 1387.8,959.511C1381.44,959.511 1376.28,957.162 1376.28,954.269C1376.28,954.269 1376.28,871.575 1376.28,871.575C1376.28,868.681 1381.44,866.332 1387.8,866.332C1387.8,866.332 1446.42,866.332 1446.42,866.332C1449.92,866.332 1452.05,867.184 1453.8,868.379C1455.46,869.518 1456.81,870.916 1458.21,872.424L1458.22,872.43Z" style="fill:#57004e;"/>
            </g>
            <g transform="matrix(0.5,-2.78578e-17,-3.36477e-17,1,707.175,93.2861)">
                <rect x="1393.61" y="878.78" width="70.419" height="5.534" style="fill:#57004e;"/>
            </g>
            <g transform="matrix(0.5,-2.78578e-17,-3.36477e-17,1,707.175,112.175)">
                <rect x="1393.61" y="878.78" width="70.419" height="5.534" style="fill:#57004e;"/>
            </g>
            <g transform="matrix(0.5,-2.78578e-17,-3.36477e-17,1,707.175,130.774)">
                <rect x="1393.61" y="878.78" width="70.419" height="5.534" style="fill:#57004e;"/>
            </g>
            <g transform="matrix(0.5,-2.78578e-17,-3.36477e-17,1,707.175,149.118)">
                <rect x="1393.61" y="878.78" width="70.419" height="5.534" style="fill:#57004e;"/>
            </g>
            <g transform="matrix(0.470948,-2.62391e-17,-3.36477e-17,1,747.662,167.717)">
                <rect x="1393.61" y="878.78" width="70.419" height="5.534" style="fill:#57004e;"/>
            </g>
            <g transform="matrix(9.31005e-17,-1.38346,1.52045,8.47126e-17,951.318,1213.06)">
                <path d="M145.297,148.578C151.126,148.74 156.142,151.081 161.386,155.333C169.781,162.138 174.729,167.376 181.429,175.648C191.829,188.486 199.437,208.655 201.526,221.987C204.157,238.782 204.743,264.809 194.92,283.255C186.023,299.961 169.967,305.157 155.974,305.575L145.297,305.418L134.62,305.575C120.627,305.157 104.572,299.961 95.675,283.255C85.852,264.809 86.437,238.782 89.069,221.987C91.158,208.655 98.765,188.486 109.165,175.648C115.866,167.376 120.814,162.138 129.209,155.333C134.453,151.081 139.469,148.74 145.297,148.578ZM191.039,244.728C191.039,267.699 170.543,286.348 145.297,286.348C120.052,286.348 99.556,267.699 99.556,244.728C99.556,221.757 120.052,203.107 145.297,203.107C170.543,203.107 191.039,221.757 191.039,244.728Z" style="fill:#fff;"/>
            </g>
            <g transform="matrix(9.31005e-17,-1.38346,1.52045,8.47126e-17,951.318,1213.06)">
                <path d="M104.54,182.095C106.009,179.804 107.553,177.638 109.165,175.648C115.866,167.376 120.814,162.138 129.209,155.333C134.453,151.081 139.469,148.74 145.297,148.578C151.126,148.74 156.142,151.081 161.386,155.333C169.781,162.138 174.729,167.376 181.429,175.648C183.041,177.638 184.586,179.804 186.055,182.095L104.54,182.095Z" style="fill:#8d2d83;"/>
            </g>
            <g transform="matrix(2.09034,-7.3433e-33,-5.09139e-32,2.09034,-970.844,-922.989)">
                <circle cx="1097.55" cy="925.704" r="30.273" style="fill:#dce8f6;fill-opacity:0.5;"/>
                <path d="M1097.55,891.79C1078.74,891.79 1063.28,906.896 1063.28,925.704C1063.28,944.512 1078.74,959.618 1097.55,959.618C1116.36,959.618 1131.83,944.512 1131.83,925.704C1131.83,906.896 1116.36,891.79 1097.55,891.79ZM1097.55,895.43C1114.26,895.43 1127.83,908.995 1127.83,925.704C1127.83,942.412 1114.26,955.977 1097.55,955.977C1080.84,955.977 1067.28,942.412 1067.28,925.704C1067.28,908.995 1080.84,895.43 1097.55,895.43Z" style="fill:#57004e;fill-opacity:0.5;"/>
            </g>
            <g transform="matrix(2.09034,-7.3433e-33,-5.09139e-32,2.09034,-972.742,-915.525)">
                <path d="M1111.77,894.939C1113.38,895.73 1114.91,896.659 1116.34,897.712L1092.93,951.901C1091.15,951.572 1089.43,951.088 1087.77,950.464L1111.77,894.939ZM1096.12,891.949C1096.89,891.89 1097.67,891.86 1098.46,891.86C1102.33,891.86 1106.03,892.587 1109.43,893.914L1085.43,949.462C1081.31,947.495 1077.71,944.624 1074.88,941.106L1096.12,891.949Z" style="fill:#fff;fill-opacity:0.5;"/>
            </g>
        </g>
        <g id="space-ship1" serif:id="space ship" transform="matrix(0.104287,0.487166,0.535404,-0.114613,-438.754,-329.588)">
            <g transform="matrix(-0.246367,-0.618989,-0.618989,0.203974,2193.94,1539.52)">
                <path d="M1045.28,869.725L1046.89,973.508C1031.07,966.805 1021.6,955.16 1011.28,941.844C996.428,922.687 993.59,895.816 995.605,883.268L995.62,883.267C997.985,870.294 1045.28,869.725 1045.28,869.725Z" style="fill:#8d2d83;"/>
            </g>
            <g transform="matrix(-0.246367,-0.618989,-0.618989,0.203974,2193.94,1539.52)">
                <path d="M992.986,882.289C993.454,880.232 994.655,878.346 996.548,876.717C998.901,874.694 1002.45,873.01 1006.63,871.697C1021.63,866.99 1045.25,866.684 1045.25,866.684C1046.77,866.666 1048.02,868.001 1048.05,869.673L1049.66,973.456C1049.67,974.467 1049.23,975.421 1048.47,976C1047.72,976.58 1046.75,976.709 1045.89,976.345C1029.61,969.444 1019.8,957.527 1009.17,943.816C993.691,923.846 990.779,895.82 992.88,882.739C992.905,882.584 992.94,882.434 992.986,882.289ZM998.322,883.849C996.408,895.89 999.185,921.556 1013.38,939.872C1022.53,951.68 1030.96,962.195 1044.05,968.883C1044.05,968.882 1042.56,872.837 1042.56,872.837L1042.56,872.837C1036.08,873.063 1019.53,873.973 1008.15,877.545C1005.28,878.445 1002.76,879.502 1000.88,880.8C999.568,881.707 998.559,882.629 998.333,883.865L998.322,883.849ZM996.289,881.124L995.625,880.253L995.62,880.226L996.289,881.124Z" style="fill:#57004e;"/>
            </g>
            <g transform="matrix(-0.246367,0.618989,-0.618989,-0.203974,2193.94,486.514)">
                <path d="M1045.28,869.725L1046.89,973.508C1031.07,966.805 1021.6,955.16 1011.28,941.844C996.428,922.687 993.59,895.816 995.605,883.268L995.62,883.267C997.985,870.294 1045.28,869.725 1045.28,869.725Z" style="fill:#8d2d83;"/>
            </g>
            <g transform="matrix(-0.246367,0.618989,-0.618989,-0.203974,2193.94,486.514)">
                <path d="M992.986,882.289C993.454,880.232 994.655,878.346 996.548,876.717C998.901,874.694 1002.45,873.01 1006.63,871.697C1021.63,866.99 1045.25,866.684 1045.25,866.684C1046.77,866.666 1048.02,868.001 1048.05,869.673L1049.66,973.456C1049.67,974.467 1049.23,975.421 1048.47,976C1047.72,976.58 1046.75,976.709 1045.89,976.345C1029.61,969.444 1019.8,957.527 1009.17,943.816C993.691,923.846 990.779,895.82 992.88,882.739C992.905,882.584 992.94,882.434 992.986,882.289ZM998.322,883.849C996.408,895.89 999.185,921.556 1013.38,939.872C1022.53,951.68 1030.96,962.195 1044.05,968.883C1044.05,968.882 1042.56,872.837 1042.56,872.837L1042.56,872.837C1036.08,873.063 1019.53,873.973 1008.15,877.545C1005.28,878.445 1002.76,879.502 1000.88,880.8C999.568,881.707 998.559,882.629 998.333,883.865L998.322,883.849ZM996.289,881.124L995.625,880.253L995.62,880.226L996.289,881.124Z" style="fill:#57004e;"/>
            </g>
            <g transform="matrix(0.5,-2.78578e-17,-3.36477e-17,1,704.345,99.1263)">
                <path d="M1464.03,871.575C1459.93,867.154 1456.14,863.565 1446.42,863.565L1387.8,863.565C1378.09,863.565 1370.2,867.154 1370.2,871.575L1370.2,954.269C1370.2,958.689 1378.09,962.278 1387.8,962.278L1446.42,962.278C1456.14,962.278 1459.93,958.689 1464.03,954.269C1477.49,926.704 1478.08,899.139 1464.03,871.575Z" style="fill:#8d2d83;"/>
            </g>
            <g transform="matrix(0.5,-2.78578e-17,-3.36477e-17,1,704.345,99.1263)">
                <path d="M1469.95,870.949C1469.87,870.796 1469.76,870.646 1469.63,870.501C1464.45,864.904 1458.72,860.798 1446.42,860.798L1387.8,860.798C1374.73,860.798 1364.12,865.627 1364.12,871.575L1364.12,954.269C1364.12,960.216 1374.73,965.045 1387.8,965.045L1446.42,965.045C1458.72,965.045 1464.45,960.939 1469.63,955.343C1469.77,955.19 1469.88,955.031 1469.96,954.869C1483.63,926.896 1484.21,898.922 1469.95,870.949ZM1458.22,872.43C1471.9,899.427 1471.32,926.424 1458.21,953.421C1456.81,954.931 1455.46,956.327 1453.8,957.464C1452.05,958.659 1449.92,959.511 1446.42,959.511C1446.42,959.511 1387.8,959.511 1387.8,959.511C1381.44,959.511 1376.28,957.162 1376.28,954.269C1376.28,954.269 1376.28,871.575 1376.28,871.575C1376.28,868.681 1381.44,866.332 1387.8,866.332C1387.8,866.332 1446.42,866.332 1446.42,866.332C1449.92,866.332 1452.05,867.184 1453.8,868.379C1455.46,869.518 1456.81,870.916 1458.21,872.424L1458.22,872.43Z" style="fill:#57004e;"/>
            </g>
            <g transform="matrix(0.5,-2.78578e-17,-3.36477e-17,1,707.175,93.2861)">
                <rect x="1393.61" y="878.78" width="70.419" height="5.534" style="fill:#57004e;"/>
            </g>
            <g transform="matrix(0.5,-2.78578e-17,-3.36477e-17,1,707.175,112.175)">
                <rect x="1393.61" y="878.78" width="70.419" height="5.534" style="fill:#57004e;"/>
            </g>
            <g transform="matrix(0.5,-2.78578e-17,-3.36477e-17,1,707.175,130.774)">
                <rect x="1393.61" y="878.78" width="70.419" height="5.534" style="fill:#57004e;"/>
            </g>
            <g transform="matrix(0.5,-2.78578e-17,-3.36477e-17,1,707.175,149.118)">
                <rect x="1393.61" y="878.78" width="70.419" height="5.534" style="fill:#57004e;"/>
            </g>
            <g transform="matrix(0.470948,-2.62391e-17,-3.36477e-17,1,747.662,167.717)">
                <rect x="1393.61" y="878.78" width="70.419" height="5.534" style="fill:#57004e;"/>
            </g>
            <g transform="matrix(9.31005e-17,-1.38346,1.52045,8.47126e-17,951.318,1213.06)">
                <path d="M145.297,148.578C151.126,148.74 156.142,151.081 161.386,155.333C169.781,162.138 174.729,167.376 181.429,175.648C191.829,188.486 199.437,208.655 201.526,221.987C204.157,238.782 204.743,264.809 194.92,283.255C186.023,299.961 169.967,305.157 155.974,305.575L145.297,305.418L134.62,305.575C120.627,305.157 104.572,299.961 95.675,283.255C85.852,264.809 86.437,238.782 89.069,221.987C91.158,208.655 98.765,188.486 109.165,175.648C115.866,167.376 120.814,162.138 129.209,155.333C134.453,151.081 139.469,148.74 145.297,148.578ZM191.039,244.728C191.039,267.699 170.543,286.348 145.297,286.348C120.052,286.348 99.556,267.699 99.556,244.728C99.556,221.757 120.052,203.107 145.297,203.107C170.543,203.107 191.039,221.757 191.039,244.728Z" style="fill:#fff;"/>
            </g>
            <g transform="matrix(9.31005e-17,-1.38346,1.52045,8.47126e-17,951.318,1213.06)">
                <path d="M104.54,182.095C106.009,179.804 107.553,177.638 109.165,175.648C115.866,167.376 120.814,162.138 129.209,155.333C134.453,151.081 139.469,148.74 145.297,148.578C151.126,148.74 156.142,151.081 161.386,155.333C169.781,162.138 174.729,167.376 181.429,175.648C183.041,177.638 184.586,179.804 186.055,182.095L104.54,182.095Z" style="fill:#8d2d83;"/>
            </g>
            <g transform="matrix(2.09034,-7.3433e-33,-5.09139e-32,2.09034,-970.844,-922.989)">
                <circle cx="1097.55" cy="925.704" r="30.273" style="fill:#dce8f6;fill-opacity:0.5;"/>
                <path d="M1097.55,891.79C1116.36,891.79 1131.83,906.896 1131.83,925.704C1131.83,944.512 1116.36,959.618 1097.55,959.618C1078.74,959.618 1063.28,944.512 1063.28,925.704C1063.28,906.896 1078.74,891.79 1097.55,891.79ZM1097.55,895.43C1114.26,895.43 1127.83,908.995 1127.83,925.704C1127.83,942.412 1114.26,955.977 1097.55,955.977C1080.84,955.977 1067.28,942.412 1067.28,925.704C1067.28,908.995 1080.84,895.43 1097.55,895.43Z" style="fill:#57004e;fill-opacity:0.5;"/>
            </g>
            <g transform="matrix(2.09034,-7.3433e-33,-5.09139e-32,2.09034,-972.742,-915.525)">
                <path d="M1111.77,894.939C1113.38,895.73 1114.91,896.659 1116.34,897.712L1092.93,951.901C1091.15,951.572 1089.43,951.088 1087.77,950.464L1111.77,894.939ZM1096.12,891.949C1096.89,891.89 1097.67,891.86 1098.46,891.86C1102.33,891.86 1106.03,892.587 1109.43,893.914L1085.43,949.462C1081.31,947.495 1077.71,944.624 1074.88,941.106L1096.12,891.949Z" style="fill:#fff;fill-opacity:0.5;"/>
            </g>
        </g>
    </g>
</svg>
