<?xml version="1.0" encoding="UTF-8" standalone="no"?>
<svg
   xmlns:dc="http://purl.org/dc/elements/1.1/"
   xmlns:cc="http://creativecommons.org/ns#"
   xmlns:rdf="http://www.w3.org/1999/02/22-rdf-syntax-ns#"
   xmlns:svg="http://www.w3.org/2000/svg"
   xmlns="http://www.w3.org/2000/svg"
   version="1.1"
   viewBox="0 0 300 345"
   data-name="Layer 1"
   id="Layer_1">
  <metadata
     id="metadata932">
    <rdf:RDF>
      <cc:Work
         rdf:about="">
        <dc:format>image/svg+xml</dc:format>
        <dc:type
           rdf:resource="http://purl.org/dc/dcmitype/StillImage" />
        <dc:title></dc:title>
      </cc:Work>
    </rdf:RDF>
  </metadata>
  <defs
     id="defs842">
    <style
       id="style815">.cls-1{fill:url(#linear-gradient);}.cls-2{fill:#19184d;}.cls-3{fill:#80a55d;}.cls-20,.cls-4{fill:none;}.cls-4{stroke:#066936;stroke-linecap:round;stroke-linejoin:round;stroke-width:4.6px;}.cls-5{fill:#d7df23;fill-opacity:0.8;}.cls-6{fill:url(#linear-gradient-2);}.cls-7{fill:url(#linear-gradient-3);}.cls-8{fill:#58595b;}.cls-9{fill:#e4f5fd;}.cls-10{fill:#414042;}.cls-11{fill:#fff;}.cls-12{fill:#f6a9cb;}.cls-13{fill:#dd7399;}.cls-14{fill:#cc517e;}.cls-15{fill:#bfe7fb;}.cls-16{fill:url(#linear-gradient-4);}.cls-17{fill:#032657;}.cls-18{fill:#8dc63f;}.cls-19{fill:#15141a;}.cls-20{stroke:#15141a;stroke-width:2px;}.cls-20,.cls-21{stroke-miterlimit:10;}.cls-21{fill-opacity:0.5;stroke:#19184d;stroke-width:3.94px;fill:url(#linear-gradient-5);}</style>
    <linearGradient
       gradientUnits="userSpaceOnUse"
       y2="161.16"
       x2="150"
       y1="356.11"
       x1="150"
       id="linear-gradient">
      <stop
         id="stop817"
         stop-color="#53824b"
         offset="0" />
      <stop
         id="stop819"
         stop-color="#425634"
         offset="0.69" />
    </linearGradient>
    <linearGradient
       gradientUnits="userSpaceOnUse"
       y2="204.26"
       x2="150.91"
       y1="242.78"
       x1="150.91"
       id="linear-gradient-2">
      <stop
         id="stop822"
         stop-color="#414042"
         offset="0" />
      <stop
         id="stop824"
         stop-color="#353333"
         offset="0.52" />
    </linearGradient>
    <linearGradient
       gradientUnits="userSpaceOnUse"
       y2="204.23"
       x2="150.91"
       y1="242.79"
       x1="150.91"
       id="linear-gradient-3">
      <stop
         id="stop827"
         stop-color="#bfe7fb"
         offset="0" />
      <stop
         id="stop829"
         stop-color="#4cc9f5"
         offset="0.69" />
    </linearGradient>
    <linearGradient
       gradientUnits="userSpaceOnUse"
       y2="102.98"
       x2="150.04"
       y1="174.54"
       x1="150.04"
       id="linear-gradient-4">
      <stop
         id="stop832"
         stop-color="#bfe7fb"
         offset="0.13" />
      <stop
         id="stop834"
         stop-color="#7ca1d5"
         offset="0.49" />
    </linearGradient>
    <linearGradient
       gradientUnits="userSpaceOnUse"
       y2="109.3"
       x2="150.05"
       y1="9.58"
       x1="150.05"
       id="linear-gradient-5">
      <stop
         id="stop837"
         stop-color="#00c2f3"
         offset="0" />
      <stop
         id="stop839"
         stop-color="#0086cb"
         offset="1" />
    </linearGradient>
  </defs>
  <g
     id="space">
    <path
       id="path844"
       d="M263.62,345H36.38A36.38,36.38,0,0,1,0,308.62V259.14H300v49.48A36.38,36.38,0,0,1,263.62,345Z"
       class="cls-1" />
    <rect
       id="rect846"
       rx="36.38"
       height="253.39"
       width="300"
       y="45"
       class="cls-2" />
    <rect
       id="rect848"
       rx="36.38"
       height="96.08"
       width="300"
       y="202.32"
       class="cls-3" />
    <path
       id="path850"
       d="M30.87,207.9s3.92-15.55,9.5-16,9.06,16,9.06,16,1.06-13.58,6.34-13.73,5.59,14.49,5.59,14.49"
       class="cls-3" />
    <path
       id="path852"
       d="M245.73,207.37s.91-16.52,7.82-17.43S260,207.37,260,207.37s3.82-15.34,10.06-15.48,4.43,17.19,4.43,17.19"
       class="cls-3" />
    <path
       id="path854"
       d="M230.46,251.67s-1.8-13.43,5.39-14,9.4,14,9.4,14-.2-10.26,6-10.86,6,10.86,6,10.86"
       class="cls-4" />
    <path
       id="path856"
       d="M29.94,254.69s-6.32-12.9.93-15.85,11.77,12.83,11.77,12.83.68-14.14,9.06-14,5.2,9.83,5.2,9.83"
       class="cls-4" />
    <path
       id="path858"
       d="M201.88,273.56s-.6-13.28,10-12.68,3.44,14.79,3.44,14.79"
       class="cls-4" />
    <path
       id="path860"
       d="M186.92,144.2,150,137.64l-36.91,6.56L96.94,234.14A14.36,14.36,0,0,0,100.83,247a73.18,73.18,0,0,0,50.54,20.32c25.34,0,41.12-12.62,48.34-20.25a14.49,14.49,0,0,0,3.45-12.41Z"
       class="cls-5" />
    <path
       id="path904"
       d="M279,102.39c-12-36.83-84.31-42-129-42s-117,5.13-129,42c-5.89,18.08,15.56,62.49,129,62.49S285.14,121.14,279,102.39Z"
       class="cls-15" />
    <path
       id="path906"
       d="M150,146.8c-73.9,0-111.92-15.92-129.16-32.58,4.9,20.73,36,50.66,129.19,50.66s124.42-29.47,129.26-50.4C262,131.1,223.92,146.8,150,146.8Z"
       class="cls-16" />
    <path
       id="path908"
       d="M257.54,98.51c-3.44,6.64-16.7,3.18-24.06-.63S222.29,86.82,225,81.67s10.79-6.24,18.16-2.43S261,91.86,257.54,98.51Z"
       class="cls-11" />
    <circle
       id="circle910"
       r="6.04"
       cy="106.62"
       cx="264.24"
       class="cls-11" />
    <circle
       id="circle912"
       r="3.25"
       cy="122.35"
       cx="52.11"
       class="cls-11" />
    <ellipse
       id="ellipse914"
       transform="translate(-79.63 89.09) rotate(-59.87)"
       ry="10.12"
       rx="6.04"
       cy="113.69"
       cx="37.54"
       class="cls-11" />
    <path
       id="path916"
       d="M188.12,79.56c0,7.66-17,12.26-38.07,12.26S112,87.22,112,79.56s17-12.19,38.07-12.19S188.12,71.9,188.12,79.56Z"
       class="cls-17" />
    <path
       id="path918"
       d="M150,39.74h0A16.27,16.27,0,0,0,133.73,56V90.79a122.83,122.83,0,0,0,16.32,1,121.58,121.58,0,0,0,16.22-1V56A16.27,16.27,0,0,0,150,39.74Z"
       class="cls-18" />
    <ellipse
       id="ellipse920"
       transform="translate(50.39 196.57) rotate(-72.89)"
       ry="3.12"
       rx="7.53"
       cy="64.17"
       cx="158.29"
       class="cls-19" />
    <ellipse
       id="ellipse922"
       transform="translate(-12.61 44.53) rotate(-17.11)"
       ry="7.53"
       rx="3.12"
       cy="64.17"
       cx="141.71"
       class="cls-19" />
    <line
       id="line924"
       y2="75.11"
       x2="153.81"
       y1="75.11"
       x1="146.19"
       class="cls-20" />
    <path
       id="path926"
       d="M150.05,17.23c39.81,0,55.24,31.82,60.35,47.06a16.27,16.27,0,0,1-2.81,15.45c-7.61,9.29-24.78,20-57.54,20S100.12,89,92.51,79.74A16.27,16.27,0,0,1,89.7,64.29C94.81,49.05,110.24,17.23,150.05,17.23Z"
       class="cls-21" />
  </g>
</svg>
