<svg id="Layer_1" data-name="Layer 1" xmlns="http://www.w3.org/2000/svg" xmlns:xlink="http://www.w3.org/1999/xlink" viewBox="0 0 255 321.06"><defs><style>.cls-1{fill:#4690e0;}.cls-2{fill:none;stroke:#e6f3ff;stroke-miterlimit:10;stroke-width:5px;}.cls-3{fill:#2360a3;opacity:0.6;isolation:isolate;}.cls-4{fill:url(#linear-gradient);}.cls-5{fill:url(#linear-gradient-2);}.cls-6{fill:#aab7bf;}.cls-7{fill:#3b83c4;}.cls-8{fill:#246fa8;}.cls-9{fill:url(#radial-gradient);}.cls-10{fill:#e6f3ff;}</style><linearGradient id="linear-gradient" x1="127.5" y1="102.1" x2="127.5" y2="180.1" gradientTransform="matrix(1, 0, 0, -1, 0, 324)" gradientUnits="userSpaceOnUse"><stop offset="0" stop-color="#bbd1d4"/><stop offset="1" stop-color="#8d9fa0"/></linearGradient><linearGradient id="linear-gradient-2" x1="127.5" y1="304.61" x2="127.5" y2="96.26" gradientTransform="matrix(1, 0, 0, -1, 0, 324)" gradientUnits="userSpaceOnUse"><stop offset="0" stop-color="#cbe0e3"/><stop offset="1" stop-color="#aec0c3"/></linearGradient><radialGradient id="radial-gradient" cx="-446.23" cy="340.02" r="40.87" gradientTransform="matrix(1.25, 0, 0, -1.25, 619.47, 542.38)" gradientUnits="userSpaceOnUse"><stop offset="0.27" stop-color="#f3feff"/><stop offset="0.33" stop-color="#f2fdfe" stop-opacity="0.98"/><stop offset="0.43" stop-color="#eefafb" stop-opacity="0.91"/><stop offset="0.53" stop-color="#e7f5f6" stop-opacity="0.79"/><stop offset="0.65" stop-color="#deedef" stop-opacity="0.63"/><stop offset="0.78" stop-color="#d3e4e6" stop-opacity="0.43"/><stop offset="0.91" stop-color="#c5d9dc" stop-opacity="0.18"/><stop offset="1" stop-color="#bbd1d4" stop-opacity="0"/></radialGradient></defs><path class="cls-1" d="M185.12,176.07a13,13,0,0,0-12.76-12.69H82.63a13,13,0,0,0-12.76,12.69V307.8c0,10.58,11.39,16.89,19.89,11l30.64-21.22a12.43,12.43,0,0,1,14.22,0l30.63,21.22c8.5,5.88,19.9-.42,19.9-11V176.62A5.07,5.07,0,0,0,185.12,176.07Z"/><path class="cls-2" d="M176.75,176.66V302.73c0,4.55-5.37,7.25-9.34,4.7l-29.1-18.71a20.12,20.12,0,0,0-21.62,0l-29.1,18.71c-4,2.55-9.34-.15-9.34-4.7V176.66"/><path class="cls-3" d="M185.14,175.08v51a26,26,0,0,0-25.95-26H95.68a26,26,0,0,0-25.82,23.31V174.53H185.12A5.06,5.06,0,0,1,185.14,175.08Z"/><rect class="cls-4" y="49.61" width="254.99" height="135.71" rx="12.46"/><path class="cls-5" d="M255,48.28v110.8a12.46,12.46,0,0,1-12.46,12.46H12.46A12.46,12.46,0,0,1,0,159.08H0V48.28A12.47,12.47,0,0,1,10.38,36a13.16,13.16,0,0,1,2.08-.17H242.54a13,13,0,0,1,2.07.17A12.47,12.47,0,0,1,255,48.28Z"/><path class="cls-6" d="M235.54,48.33c-2.63,5,.3,4.56,3.78,8.3,0,0,0,7.95-2,8.61-13.36,4-24.69,4.49-39.5,1.47-1.88-.38-3.84-.83-5.88-1.33h-.08c-11.44-3.73-13.4-11.15-13.5-15.4-16.67-4.26-33.6-7.08-50.88-7.16-17.29.08-34.23,2.9-50.89,7.16-.1,4.25-2,11.67-13.5,15.4H63c-2,.5-4,1-5.87,1.33-14.81,3-26.14,2.54-39.5-1.47-1.94-.66-2-8.7-2-8.7,3.48-3.75,6.4-3.2,3.77-8.21-1.93-3.67-5.25-6.72-8.11-9.68a4.55,4.55,0,0,1-1-2.66,13.16,13.16,0,0,1,2.08-.17H26.11a49.11,49.11,0,0,0,9.94,2.37,5.15,5.15,0,0,1,.23-2.37H218.73a4.89,4.89,0,0,1,.23,2.37,46,46,0,0,0,9.67-2.37h13.91a13,13,0,0,1,2.07.17,4.68,4.68,0,0,1-1,2.66C240.79,41.61,237.47,44.66,235.54,48.33Z"/><path class="cls-7" d="M67.35,55.58a2.86,2.86,0,0,1-.56,1.36,15.46,15.46,0,0,1-3.67,2.42H63c-2,.51-4,1-5.88,1.34-14.8,3-26.14,2.53-39.5-1.47a2.73,2.73,0,0,1-1.19-4.52c3.48-3.75,5.63-7.39,3-12.4-1.92-3.67-5.25-6.72-8.1-9.68A2.73,2.73,0,0,1,14,28.14a133.55,133.55,0,0,0,30,4.6c2.31.08,4.61.1,6.92.06,1.47,0,3.46-.51,4.82.27a9,9,0,0,1,2.12,2.55c1.79,2.48,3.85,4.87,5.6,7.36C66,46.71,68,50.68,67.35,55.58Z"/><path class="cls-8" d="M63.12,59.36H63c-2,.51-4,1-5.88,1.34,1-.73,7.89-5.85,5-7.83C59,50.76,47.73,51.78,47.73,51.78L63.42,43l1.72-1,11.2-1.27S79.73,53.94,63.12,59.36Z"/><path class="cls-7" d="M187.65,55.58a2.86,2.86,0,0,0,.56,1.36,15.46,15.46,0,0,0,3.67,2.42H192c2,.51,4,1,5.88,1.34,14.8,3,26.14,2.53,39.5-1.47a2.73,2.73,0,0,0,1.19-4.52c-3.48-3.75-5.63-7.39-3-12.4,1.92-3.67,5.25-6.72,8.1-9.68A2.73,2.73,0,0,0,241,28.14a133.55,133.55,0,0,1-30,4.6c-2.31.08-4.61.1-6.92.06-1.47,0-3.46-.51-4.82.27a9,9,0,0,0-2.12,2.55c-1.79,2.48-3.85,4.87-5.6,7.36C189,46.71,187,50.68,187.65,55.58Z"/><path class="cls-8" d="M191.88,59.36H192c2,.51,4,1,5.88,1.34-1-.73-7.89-5.85-5-7.83,3.12-2.14,14.42-1.12,14.42-1.12L191.58,43l-1.72-1-11.2-1.27S175.27,53.94,191.88,59.36Z"/><path class="cls-1" d="M220.54,20.14c-1-7.51-10.57-8.74-16.41-10-7.5-1.67-15-3.42-22.51-4.92a285.17,285.17,0,0,0-108.24,0c-7.53,1.5-15,3.25-22.51,4.92-5.84,1.3-15.45,2.53-16.41,10-.57,4.43,1.08,9.78,2.06,14C37.65,39,38.79,45.2,41.9,49.29c2.27,3,5.1,2.74,8.46,2,5-1.08,10-2.82,14.88-4.26,20.31-6,41-10.18,62.26-10.29,21.25.11,41.95,4.33,62.26,10.29,4.93,1.44,9.85,3.18,14.88,4.26,3.36.72,6.19,1,8.46-2,3.11-4.09,4.25-10.27,5.38-15.15C219.46,29.92,221.11,24.57,220.54,20.14Z"/><circle class="cls-9" cx="60.56" cy="117.35" r="51.19"/><path class="cls-10" d="M55,37.58a7.73,7.73,0,0,1-1.73.29,5,5,0,0,1-1.83-.29,5.12,5.12,0,0,1-1.88-1.11c-1.33-1.18-2.44-3.2-3.33-6.1a12.11,12.11,0,0,1-.59-4.43,7.69,7.69,0,0,1,.91-3.38,8.76,8.76,0,0,1,2.09-2.41,11,11,0,0,1,2.58-1.63A18.23,18.23,0,0,1,54,17.57a15.16,15.16,0,0,1,5-.7,2.08,2.08,0,0,1,1.9,1.71A8.27,8.27,0,0,1,61,21.3c-.09,1-.45,1.59-1.06,1.74a19,19,0,0,1-2,.08,11.07,11.07,0,0,0-2.63.25c-1.61.42-2.06,1.9-1.38,4.41a6,6,0,0,0,1.32,2.66,1.93,1.93,0,0,0,1.64.66c-.25-.93-.37-1.4-.62-2.34-.12-.43.24-1,1.09-1.56A7.36,7.36,0,0,1,60,26a7.94,7.94,0,0,1,1.94-.31,1.53,1.53,0,0,1,.93.24,1.36,1.36,0,0,1,.58.75c.69,2.9,1,4.35,1.73,7.24,0,.23-.38.53-1.28.89a21.88,21.88,0,0,1-2.87.94,7.61,7.61,0,0,1-2,.35c-.29,0-.51-.25-.66-.67L57.82,34l-.21,0a3.85,3.85,0,0,1-.44,2.18A3.18,3.18,0,0,1,55,37.58Z"/><path class="cls-10" d="M72.23,33.4a6.28,6.28,0,0,1-4.1-.29,4,4,0,0,1-1.31-1.17,5.19,5.19,0,0,1-.91-2.05A3.89,3.89,0,0,1,66,27.6a4.56,4.56,0,0,1,1.18-1.76,8.7,8.7,0,0,1,1.91-1.27A15.83,15.83,0,0,1,73,23.3l.93-.19a1.64,1.64,0,0,0-1.09-1.37,2.37,2.37,0,0,0-1.06,0,5.12,5.12,0,0,0-1.59.69,11.09,11.09,0,0,0-1.46,1A2.88,2.88,0,0,1,68,24c-.33.07-.88-.25-1.64-1a4.24,4.24,0,0,1-1.44-2c0-.23.23-.6.85-1.13a13.17,13.17,0,0,1,2.74-1.66A16.37,16.37,0,0,1,72.17,17a15.75,15.75,0,0,1,3.21-.33,9.92,9.92,0,0,1,2.3.28,4.45,4.45,0,0,1,1.61.81,7.39,7.39,0,0,1,1.09,1,4.64,4.64,0,0,1,.67,1.31,13.83,13.83,0,0,1,.6,2.38c.54,3.19.8,4.79,1.34,8,0,.2-.43.43-1.37.71a27.33,27.33,0,0,1-2.84.69,14.35,14.35,0,0,1-1.86.26,1.08,1.08,0,0,1-.53-.08,1.13,1.13,0,0,1-.21-.35c-.2-.58-.3-.88-.51-1.46h-.22Q75.24,32.8,72.23,33.4ZM75,28.28c-.24-1.23-.36-1.85-.61-3.09a1.44,1.44,0,0,0-1,.82,2.18,2.18,0,0,0-.17,1.4c.23,1.16.62,1.69,1.17,1.58a.92.92,0,0,0,.53-.28A.56.56,0,0,0,75,28.28Z"/><path class="cls-10" d="M109.23,19.13c.22,3.29.33,4.93.54,8.21,0,.2-.49.39-1.51.58s-2.11.33-3.18.42a9.75,9.75,0,0,1-2.16,0c-.34-.07-.52-.21-.54-.45-.28-3-.42-4.45-.69-7.41-.24-2.56-.64-3.81-1.19-3.75a.69.69,0,0,0-.38.19.7.7,0,0,0-.15.59c.42,4.2.63,6.31,1,10.51,0,.2-.48.41-1.49.63s-2.08.4-3.19.53a9.76,9.76,0,0,1-2.16.11c-.33-.06-.51-.2-.53-.43-.38-3-.57-4.44-.94-7.39-.25-2-.53-3.14-.85-3.5a.61.61,0,0,0-.54-.2c-.36,0-.51.31-.45.79.55,4.19.83,6.28,1.38,10.48,0,.19-.47.41-1.49.67a28.21,28.21,0,0,1-3.17.63,10.21,10.21,0,0,1-2.14.19c-.33-.05-.51-.19-.55-.42L82.75,17q-.09-.56,1.47-1.38a10.51,10.51,0,0,1,3.41-1.07c1.23-.17,2,.06,2.2.7l.42,1.14h.2A4.63,4.63,0,0,1,93,13.91a7.6,7.6,0,0,1,2-.49,3.8,3.8,0,0,1,3.94,2,4.16,4.16,0,0,1,1.71-1.79,6.75,6.75,0,0,1,3.25-1.1c1.91-.15,3.24.3,4,1.36A10.56,10.56,0,0,1,109.23,19.13Z"/><path class="cls-10" d="M118.73,21.47a1.55,1.55,0,0,0,1.38,1.7,1.4,1.4,0,0,0,.41,0,7.2,7.2,0,0,0,2.6-.71c1.07-.45,1.64-.68,1.7-.68.35,0,.82.5,1.4,1.52a5.44,5.44,0,0,1,.87,2.26c0,.7-.74,1.23-2.19,1.6a19.3,19.3,0,0,1-4.28.61,17.21,17.21,0,0,1-3.51-.21,9.48,9.48,0,0,1-2.34-.72,6.79,6.79,0,0,1-2.72-2.47,6.69,6.69,0,0,1-.61-1.43A10.61,10.61,0,0,1,111,20.5c-.2-3.26.57-5.56,2.33-6.89a8.36,8.36,0,0,1,3-1.45,17.39,17.39,0,0,1,4-.5c4.89-.13,7.34,1.48,7.33,4.64,0,3.35-2.65,5-8,5.14Zm-.18-3.93a17.64,17.64,0,0,0,.06,1.78,1.66,1.66,0,0,0,1.32-.66,2.26,2.26,0,0,0,.49-1.52q0-1.61-.93-1.59C118.82,15.57,118.51,16.24,118.55,17.54Z"/><path class="cls-10" d="M144.78,28.2a15.9,15.9,0,0,1-3.87-.64A8.34,8.34,0,0,1,138,25.94c-1.8-1.49-2.66-4.22-2.55-8.24a11.17,11.17,0,0,1,.92-4.38,7.1,7.1,0,0,1,2.32-2.91,11.22,11.22,0,0,1,7.39-1.77,18.07,18.07,0,0,1,4,.66,9.39,9.39,0,0,1,3.11,1.64c1.91,1.54,2.65,4.24,2.27,8-.35,3.43-1.49,5.86-3.38,7.32A10.3,10.3,0,0,1,144.78,28.2Zm-.62-4.66a1.14,1.14,0,0,0,.9.45,1.13,1.13,0,0,0,.94-.33,3.73,3.73,0,0,0,.67-1.62,21.07,21.07,0,0,0,.48-3.54,20.81,20.81,0,0,0,0-3.53,3.41,3.41,0,0,0-.46-1.65,1.42,1.42,0,0,0-1.93-.12,3.51,3.51,0,0,0-.68,1.57,20.78,20.78,0,0,0-.43,3.51,21.28,21.28,0,0,0,0,3.57A4.05,4.05,0,0,0,144.16,23.54Z"/><path class="cls-10" d="M156.67,15.23c0-.18.33-.39.91-.62A10.11,10.11,0,0,1,160,14a10.54,10.54,0,0,1,2.86,0c1.87.23,2.77.78,2.71,1.63-.17,3.42-.26,5.14-.45,8.57l.36.05c.69-3.19,1-4.78,1.75-8,.1-.44.81-.74,2.15-.88a12.53,12.53,0,0,1,3.46,0A7.33,7.33,0,0,1,175,16a2,2,0,0,1,.85.65.77.77,0,0,1,.12.47,26.17,26.17,0,0,1-1.67,2.52c-1.09,1.56-3.3,4.91-6.44,10.11-.25.4-1.75.38-4.53,0a6.25,6.25,0,0,1-1.7-.38.89.89,0,0,1-.48-.56c-.86-3.25-1.82-6.32-2.85-9.2S156.67,15.3,156.67,15.23Z"/><path class="cls-10" d="M182.86,27a1.55,1.55,0,0,0,1,1.94,1.65,1.65,0,0,0,.32.06,7.48,7.48,0,0,0,2.71-.09,16,16,0,0,1,1.82-.26c.35.08.69.68,1,1.81a5.26,5.26,0,0,1,.32,2.39c-.16.68-1,1-2.51,1a19.68,19.68,0,0,1-4.33-.41,17.27,17.27,0,0,1-3.38-1,9.24,9.24,0,0,1-2.12-1.25,6.29,6.29,0,0,1-1.33-1.49,7.32,7.32,0,0,1-.75-1.54,6.71,6.71,0,0,1-.26-1.54,10.15,10.15,0,0,1,.15-2.46c.57-3.21,1.85-5.28,3.88-6.16a8,8,0,0,1,3.24-.71,17.32,17.32,0,0,1,4,.43c4.81,1,6.83,3.16,6.09,6.23-.78,3.26-3.76,4.23-9,3.14Zm.74-3.86-.36,1.74a1.69,1.69,0,0,0,1.45-.33,2.27,2.27,0,0,0,.83-1.36c.22-1.06,0-1.64-.54-1.77s-1.12.4-1.38,1.68Z"/><path class="cls-10" d="M201.24,28.89l-2.08,7.57c-.06.19-.6.2-1.64,0a30.7,30.7,0,0,1-3.17-.65,10.55,10.55,0,0,1-2.06-.67c-.3-.18-.42-.38-.37-.61,1.27-5.14,1.91-7.72,3.17-12.87.09-.33.7-.56,1.84-.68a9.94,9.94,0,0,1,3.56.31c1.24.33,1.84.83,1.82,1.5v1.27h.19A3.49,3.49,0,0,1,204.81,23a7.38,7.38,0,0,1,3.17.18,3.76,3.76,0,0,1,2,1.06,1.38,1.38,0,0,1,.26,1.31c-.14.45-.35,1-.64,1.7a10.94,10.94,0,0,1-1.23,2.12c-.54.74-1,1-1.49.91a16.94,16.94,0,0,1-1.61-.9A9.6,9.6,0,0,0,203,28.3c-.64-.18-1.06-.2-1.26-.07A1.11,1.11,0,0,0,201.24,28.89Z"/><path class="cls-10" d="M105.44,235.48q0,.33-1.59.54a24,24,0,0,1-3.17.21,6.73,6.73,0,0,1-2-.18.6.6,0,0,1-.44-.57V218.76c0-.83,2.5-1.24,7.49-1.25a18.57,18.57,0,0,1,6,.62,4.33,4.33,0,0,1,2.39,2,8.92,8.92,0,0,1,.83,4.13q0,3.47-1.19,5a4.12,4.12,0,0,1-1.72,1.48,11.91,11.91,0,0,1-1.42.49,10.86,10.86,0,0,1-1.39.22c-.76.07-1.8.1-3.12.1h-.62Zm0-8.27h.62a1.89,1.89,0,0,0,.78-.14,1.33,1.33,0,0,0,.51-.78,6.09,6.09,0,0,0,.22-1.8,4.84,4.84,0,0,0-.25-1.77,1.34,1.34,0,0,0-.49-.72,1.52,1.52,0,0,0-.59-.12h-.8Z"/><path class="cls-10" d="M123.15,217.15v18.46c0,.19-.5.34-1.49.45a27.42,27.42,0,0,1-3,.17,8.94,8.94,0,0,1-2-.14q-.45-.15-.45-.48v-18c0-.38.48-.75,1.46-1.11a9,9,0,0,1,3.16-.55C122.38,216,123.15,216.38,123.15,217.15Z"/><path class="cls-10" d="M129.57,236.47a5.71,5.71,0,0,1-3.72-1.12,4,4,0,0,1-.95-1.38,5.18,5.18,0,0,1-.4-2.13,3.86,3.86,0,0,1,.58-2.14,4.32,4.32,0,0,1,1.42-1.4,7.73,7.73,0,0,1,1.95-.81,15.08,15.08,0,0,1,3.72-.44H133a1.63,1.63,0,0,0-.73-1.5,1.83,1.83,0,0,0-1-.19,4.53,4.53,0,0,0-1.54.34,10.56,10.56,0,0,0-1.49.69,2.17,2.17,0,0,1-.81.35c-.31,0-.73-.41-1.27-1.23a4.27,4.27,0,0,1-.81-2.25c0-.23.32-.52,1-.89a11.47,11.47,0,0,1,2.71-1,14.14,14.14,0,0,1,3.42-.45,13.82,13.82,0,0,1,2.87.27,8.85,8.85,0,0,1,2,.66,4,4,0,0,1,1.3,1,9.38,9.38,0,0,1,.81,1.17,4.57,4.57,0,0,1,.4,1.35,13.44,13.44,0,0,1,.18,2.37v7.83c0,.19-.46.34-1.39.45a23.24,23.24,0,0,1-2.76.17,11.47,11.47,0,0,1-1.76-.08.86.86,0,0,1-.48-.18.78.78,0,0,1-.13-.36l-.21-1.49h-.21C132.7,235.68,131.51,236.47,129.57,236.47Zm3.48-4.32v-3a1.28,1.28,0,0,0-1.09.57,2.11,2.11,0,0,0-.42,1.3q0,1.71.78,1.71a.82.82,0,0,0,.54-.16A.49.49,0,0,0,133.05,232.15Z"/><path class="cls-10" d="M150.31,234.54V233h-.2c-.09.08-.22.2-.39.33a4.68,4.68,0,0,1-1.23.55,6.23,6.23,0,0,1-2.14.34,5.48,5.48,0,0,1-2.08-.38,3.64,3.64,0,0,1-1.42-1,4.71,4.71,0,0,1-.8-1.71,17.87,17.87,0,0,1-.5-4.78v-3.59c0-.36.51-.72,1.54-1.08a10.06,10.06,0,0,1,3.22-.53c1.51,0,2.26.39,2.26,1.17v3.28c0,3.46.28,5.2.83,5.2.33,0,.5-.24.5-.71v-7.33c0-.36.54-.72,1.64-1.08a11.32,11.32,0,0,1,3.51-.53c1.24,0,1.87.34,1.87,1v12.3q0,5.81-7.85,5.8-4.14,0-5.62-.81c-.43-.24-.65-.49-.65-.75a7.2,7.2,0,0,1,.52-2.09c.35-1,.68-1.47,1-1.47a5.93,5.93,0,0,1,.73.16,13.36,13.36,0,0,0,3.21.51,3.27,3.27,0,0,0,1.69-.28A1.13,1.13,0,0,0,150.31,234.54Z"/><path class="cls-10" d="M96,260.94a8.3,8.3,0,0,1-2.67.29,12.84,12.84,0,0,1-3.21-.35q-1.29-.35-1.29-.9c0-.41.78-3.07,2.32-8s2.42-7.71,2.65-8.46c.09-.22.78-.41,2.09-.56a37.16,37.16,0,0,1,4.22-.22c1.49,0,2.32.26,2.48.78q4.91,16.34,4.91,16.59a.7.7,0,0,1-.31.52,5.09,5.09,0,0,1-2.89.57c-3.06,0-4.63-.36-4.7-1.09l-.18-1.69H97l-.13,1.45A1.12,1.12,0,0,1,96,260.94Zm2.87-7.43-.39-4.68h-.57l-.44,4.68Z"/><path class="cls-10" d="M116,259.51V258h-.21a2.74,2.74,0,0,1-.36.32,5.57,5.57,0,0,1-1.29.53,7.27,7.27,0,0,1-2.31.34,5.4,5.4,0,0,1-2.18-.39,3.88,3.88,0,0,1-1.37-1,4.25,4.25,0,0,1-.78-1.58,15.35,15.35,0,0,1-.45-4.16,7.24,7.24,0,0,1,1.28-4.62,3.73,3.73,0,0,1,1.47-1.11,5,5,0,0,1,2.09-.45,5.78,5.78,0,0,1,1.85.24,3,3,0,0,1,1.09.59,2.76,2.76,0,0,1,.83,1.27v.24h.2l.24-1c.17-.73,1.54-1.09,4.11-1.09,1.14,0,1.83.17,2.08.52a1.83,1.83,0,0,1,.26.59,5.47,5.47,0,0,1,0,.81V259a5.67,5.67,0,0,1-2,4.68,9.29,9.29,0,0,1-5.88,1.61q-4.11,0-5.59-.81c-.43-.24-.65-.49-.65-.75a7.75,7.75,0,0,1,.51-2.11c.34-1,.65-1.48,1-1.48a4.23,4.23,0,0,1,.72.19,13.52,13.52,0,0,0,3.22.51,3,3,0,0,0,1.66-.31A1.1,1.1,0,0,0,116,259.51Zm-1-3.27a.61.61,0,0,0,.47-.21.69.69,0,0,0,.18-.47v-5.35c-.07-.37-.26-.55-.57-.55-.66,0-1,1.08-1,3.25a9.39,9.39,0,0,0,.25,2.42c.14.61.36.91.67.91Z"/><path class="cls-10" d="M129.06,261.47a5.71,5.71,0,0,1-3.72-1.12,3.92,3.92,0,0,1-1-1.38,5.18,5.18,0,0,1-.4-2.13,3.84,3.84,0,0,1,.59-2.14,4.38,4.38,0,0,1,1.41-1.4,8.07,8.07,0,0,1,2-.81,15.08,15.08,0,0,1,3.72-.44h.86a1.58,1.58,0,0,0-.73-1.5,1.83,1.83,0,0,0-.95-.19,4.72,4.72,0,0,0-1.53.34,10.18,10.18,0,0,0-1.5.69,2.13,2.13,0,0,1-.8.35c-.32,0-.74-.41-1.28-1.23a4.18,4.18,0,0,1-.8-2.25c0-.23.32-.52,1-.89a11.54,11.54,0,0,1,2.72-1,14.12,14.12,0,0,1,6.29-.18,8.85,8.85,0,0,1,2,.66,4,4,0,0,1,1.3,1,6.77,6.77,0,0,1,.81,1.17,4.29,4.29,0,0,1,.4,1.35,13.44,13.44,0,0,1,.18,2.37v7.83c0,.19-.46.34-1.39.45a22.94,22.94,0,0,1-2.75.17,11.66,11.66,0,0,1-1.77-.08.86.86,0,0,1-.48-.18.92.92,0,0,1-.13-.36l-.21-1.49h-.21C132.19,260.68,131,261.47,129.06,261.47Zm3.48-4.32v-3a1.28,1.28,0,0,0-1.09.57A2.14,2.14,0,0,0,131,256q0,1.71.78,1.71a.83.83,0,0,0,.53-.16A.51.51,0,0,0,132.54,257.15Z"/><path class="cls-10" d="M144.66,241a5.92,5.92,0,0,1,2.69.51,1.87,1.87,0,0,1,1,1.83c0,1.56-1.22,2.34-3.64,2.34s-3.64-.78-3.64-2.34S142.25,241,144.66,241Zm3.54,6.84v12.82q0,.29-1.5.45a28.57,28.57,0,0,1-3.07.17,8.94,8.94,0,0,1-2-.14q-.45-.15-.45-.48v-12.4c0-.38.49-.76,1.47-1.13a9,9,0,0,1,3.21-.56c1.55,0,2.34.43,2.34,1.22Z"/><path class="cls-10" d="M165.49,252.6v8c0,.19-.5.34-1.49.45a28.2,28.2,0,0,1-3.05.17,8.94,8.94,0,0,1-2-.14q-.45-.15-.45-.48v-8.27a7.92,7.92,0,0,0-.1-1.54l-.16-.65a.68.68,0,0,0-.65-.49c-.49,0-.73.23-.73.7V260.6q0,.28-1.47.45a27.42,27.42,0,0,1-3,.17,8.94,8.94,0,0,1-2-.14c-.32-.1-.47-.26-.47-.48V247.79c0-.37.5-.73,1.49-1.09a9,9,0,0,1,3.16-.55c1.11,0,1.73.32,1.87,1l.24,1.15h.18a4.16,4.16,0,0,1,2.6-2.11,5.5,5.5,0,0,1,1.66-.23c1.75,0,2.94.52,3.55,1.57A10.5,10.5,0,0,1,165.49,252.6Z"/></svg>