<svg id="Layer_1" data-name="Layer 1" xmlns="http://www.w3.org/2000/svg" xmlns:xlink="http://www.w3.org/1999/xlink" viewBox="0 0 320 26.16"><defs><style>.cls-1{fill:url(#linear-gradient);}.cls-2,.cls-4{fill:#ad4f31;}.cls-2{opacity:0.5;}.cls-3{fill:#a65641;opacity:0.75;}.cls-5{fill:#91cc1a;}.cls-6{fill:#88b716;}.cls-7{fill:#7c9e12;}</style><linearGradient id="linear-gradient" x1="160" y1="28.73" x2="160" y2="15.24" gradientUnits="userSpaceOnUse"><stop offset="0" stop-color="#ce9155"/><stop offset="1" stop-color="#b06d43"/></linearGradient></defs><polygon class="cls-1" points="320 8.26 159.92 8.26 159.92 8.25 0 8.25 0 26.16 159.92 26.16 159.92 26.16 320 26.16 320 8.26"/><path class="cls-2" d="M127.05,20.8c-1.11.21-2.24.36-3.37.47Z"/><path class="cls-3" d="M13.51,23.06c0,.78-2.2,1.94-3.18,1.94a1.63,1.63,0,0,1-1.78-1.41,1.63,1.63,0,0,1,1.78-1.41C11.31,22.18,13.51,22.29,13.51,23.06Z"/><path class="cls-4" d="M125.32,17.44c-.53.09-1.07.17-1.6.23Z"/><ellipse class="cls-3" cx="16.27" cy="21.64" rx="1.05" ry="0.83"/><path class="cls-3" d="M54.2,23.24a2.06,2.06,0,0,1-2.43.4c-.81-.43-1.84-2.17-1.3-2.81s2.42.06,3.23.48A1.23,1.23,0,0,1,54.2,23.24Z"/><ellipse class="cls-3" cx="78.83" cy="16.02" rx="1.12" ry="0.89"/><path class="cls-3" d="M108.22,22c0,.89-3.08,2.24-4.2,2.24a1.86,1.86,0,0,1-2-1.61A1.86,1.86,0,0,1,104,21C105.14,21,108.22,21.13,108.22,22Z"/><ellipse class="cls-3" cx="100.43" cy="20.8" rx="1.02" ry="0.81"/><path class="cls-3" d="M123.75,15.61c0,.63-1.53,1.55-2.43,1.55s-1.64-.51-1.64-1.14.73-1.14,1.64-1.14S123.75,15,123.75,15.61Z"/><path class="cls-3" d="M33.55,17.13c.09-.62,1.74-1.41,2.63-1.33s1.56.65,1.47,1.28-.89,1.06-1.78,1S33.46,17.76,33.55,17.13Z"/><path class="cls-3" d="M144.15,21.78a1.58,1.58,0,0,1-3.07,0A2.11,2.11,0,0,1,143,20.19C143.82,20.19,144.15,21.11,144.15,21.78Z"/><path class="cls-3" d="M158,16.17c0,.57,0,1.5-.74,1.5s-1.89-.93-1.89-1.5a1.35,1.35,0,0,1,2.63,0Z"/><path class="cls-2" d="M287.13,20.8c-1.11.21-2.24.36-3.37.47Z"/><path class="cls-2" d="M317.24,19.06c-2.76-.59-5.15-1.94-7.78-2.8a22.81,22.81,0,0,0-10.77-.66l-1.48.2L285.4,17.44c-.53.09-1.07.17-1.6.23h0a38.58,38.58,0,0,1-7.89.09c-6.59-.6-12.8-2.85-19.51-2.88-6.51,0-12,2.74-18.29,3.47s-11.32-2.1-17.06-3.3c-6-1.23-10.79.23-16.11,2.31-6.07,2.37-11.32,1.22-17.44-.41-5.61-1.5-11.29-2.57-17-.69-2.63.86-5,2.21-7.78,2.8a13.64,13.64,0,0,1-2.76.3h0l-1-.05a15.55,15.55,0,0,1-1.78-.25,19.2,19.2,0,0,1-2.64-.8c-1.73-.64-3.38-1.44-5.14-2a23.08,23.08,0,0,0-10.77-.65l-1.48.2-11.81,1.64c-.53.09-1.07.17-1.61.22h0a38.6,38.6,0,0,1-7,.16l-.92-.07c-1-.1-2-.23-3.05-.39-5.49-.86-10.8-2.46-16.46-2.49-6.52,0-12,2.74-18.29,3.47a23.3,23.3,0,0,1-9.39-1.13c-2.54-.74-5-1.62-7.68-2.17-.49-.1-1-.19-1.46-.25-5.31-.74-9.77.65-14.64,2.56a21,21,0,0,1-12.15.84C31,17.89,29.2,17.44,27.38,17c-1.2-.32-2.4-.62-3.6-.87A26.69,26.69,0,0,0,12,15.81c-.53.13-1,.27-1.58.44l-1.1.4A46.07,46.07,0,0,1,2.6,19.07a13.71,13.71,0,0,1-2.6.29v3.45a21.46,21.46,0,0,0,7.13-1.33c2.52-.92,4.86-2.18,7.65-2.58,3.37-.48,6.77.29,10,1.11,5.49,1.41,11,3.1,16.86,2.1a28.92,28.92,0,0,0,4.74-1.32c4.05-1.47,7.77-3.3,12.69-2.44,5.56,1,10.4,3.58,16.24,3.7,6.8.14,12.61-3.14,19.28-3.55,7.51-.48,14.63,2.4,22.06,2.89a44.06,44.06,0,0,0,7.07-.11l3.38-.48,2.61-.36,9-1.25A19.18,19.18,0,0,1,145,18.9a20.48,20.48,0,0,1,5,1.54c.88.35,1.74.71,2.63,1a21.36,21.36,0,0,0,7.29,1.33h0a21.38,21.38,0,0,0,7.29-1.34c2.52-.93,4.87-2.18,7.65-2.58,3.37-.49,6.77.29,9.95,1.11,5.5,1.41,11,3.11,16.87,2.1a27.21,27.21,0,0,0,4.73-1.33c4.05-1.46,7.77-3.29,12.69-2.43,5.56,1,10.41,3.57,16.24,3.69,6.81.15,12.61-3.14,19.28-3.55,7.52-.47,14.63,2.41,22.06,2.9a43.08,43.08,0,0,0,7.08-.12l3.37-.47,11.56-1.62a19.46,19.46,0,0,1,6.37-.28c2.78.4,5.13,1.65,7.65,2.58A21.38,21.38,0,0,0,320,22.82V19.36A13.64,13.64,0,0,1,317.24,19.06Z"/><path class="cls-3" d="M173.59,23.06c0,.78-2.2,1.94-3.18,1.94a1.63,1.63,0,0,1-1.78-1.41,1.63,1.63,0,0,1,1.78-1.41C171.39,22.18,173.59,22.29,173.59,23.06Z"/><path class="cls-4" d="M285.4,17.44c-.53.09-1.07.17-1.6.23Z"/><ellipse class="cls-3" cx="176.35" cy="21.64" rx="1.05" ry="0.83"/><path class="cls-3" d="M214.28,23.24a2.06,2.06,0,0,1-2.43.4c-.81-.43-1.84-2.17-1.3-2.81s2.42.06,3.23.48A1.23,1.23,0,0,1,214.28,23.24Z"/><ellipse class="cls-3" cx="238.91" cy="16.02" rx="1.12" ry="0.89"/><path class="cls-3" d="M268.3,22c0,.89-3.08,2.24-4.2,2.24a1.86,1.86,0,0,1-2-1.61,1.86,1.86,0,0,1,2-1.61C265.22,21,268.3,21.13,268.3,22Z"/><ellipse class="cls-3" cx="260.51" cy="20.8" rx="1.02" ry="0.81"/><path class="cls-3" d="M283.83,15.61c0,.63-1.53,1.55-2.44,1.55s-1.63-.51-1.63-1.14.73-1.14,1.63-1.14S283.83,15,283.83,15.61Z"/><path class="cls-3" d="M193.63,17.13c.09-.62,1.74-1.41,2.63-1.33s1.55.65,1.47,1.28-.89,1.06-1.78,1S193.54,17.76,193.63,17.13Z"/><path class="cls-3" d="M304.23,21.78a1.58,1.58,0,0,1-3.07,0,2.11,2.11,0,0,1,1.89-1.59C303.9,20.19,304.23,21.11,304.23,21.78Z"/><path class="cls-3" d="M318.07,16.17c0,.57,0,1.5-.74,1.5s-1.89-.93-1.89-1.5a1.35,1.35,0,0,1,2.63,0Z"/><path class="cls-2" d="M320,9.69v3.25A3.26,3.26,0,0,0,317,15a3.35,3.35,0,0,0-.22,1.19v6.18a2.38,2.38,0,0,1-2.37,2.38H301.79a2.38,2.38,0,0,1-2.37-2.38v-7c0-.11,0-.22,0-.32A2.38,2.38,0,0,0,297,12.94h-1.13a3,3,0,0,0-2.11.88,3,3,0,0,0-.74,1.18,3.12,3.12,0,0,0-.14.93,3,3,0,0,1-3,3h-13a2.93,2.93,0,0,1-2.11-.88,3,3,0,0,1-.88-2.12,2.83,2.83,0,0,0-.15-.93A3,3,0,0,0,271,12.94h-1.08a3.56,3.56,0,0,0-3.55,3.55v3.06a3.49,3.49,0,0,1-.06.65,3.55,3.55,0,0,1-3.49,2.9H245.39a3.55,3.55,0,0,1-3.5-2.9,3.49,3.49,0,0,1-.06-.65V16.49a3.56,3.56,0,0,0-3.55-3.55h-2.14A3,3,0,0,0,233.27,15a2.93,2.93,0,0,0-.17,1v6a3,3,0,0,1-3,3.05H204.28A3,3,0,0,1,201.23,22V16a2.93,2.93,0,0,0-.17-1,3,3,0,0,0-2.87-2.06h-6.78A2.84,2.84,0,0,0,188.67,15a3,3,0,0,0-.11.79v2a2.83,2.83,0,0,1-1.39,2.44,2.9,2.9,0,0,1-1.46.4h-19.4a2.9,2.9,0,0,1-1.46-.4,2.83,2.83,0,0,1-1.39-2.44v-2a3,3,0,0,0-.11-.79,2.84,2.84,0,0,0-2.74-2.06h-3.68A3.19,3.19,0,0,0,154,15a3,3,0,0,0-.21,1.13v4.25a3.19,3.19,0,0,1-3.19,3.19H115.34a3.19,3.19,0,0,1-3.19-3.19V16.13a3,3,0,0,0-.21-1.13,3.18,3.18,0,0,0-3-2.06h-6.7A2.84,2.84,0,0,0,99.52,15a3,3,0,0,0-.11.79v6.36A2.86,2.86,0,0,1,96.56,25H67.39a2.85,2.85,0,0,1-2.85-2.85V15.79a3,3,0,0,0-.11-.79,2.85,2.85,0,0,0-2.74-2.06h-6A2.56,2.56,0,0,0,53.15,15a2.94,2.94,0,0,0,0,.51V18a2.55,2.55,0,0,1-1.2,2.16,2.58,2.58,0,0,1-1.37.4H38.39a2.16,2.16,0,0,1-2.15-2.15V15a2.15,2.15,0,0,0-2.16-2.06A2.38,2.38,0,0,0,31.72,15a1.87,1.87,0,0,0,0,.34v5.83a2.41,2.41,0,0,1-2.4,2.4H5.36A2.4,2.4,0,0,1,3,21.17V15.91A3,3,0,0,0,2.83,15a3,3,0,0,0-.73-1.19A3,3,0,0,0,0,12.94v-4l18,1.87V8.6a4.83,4.83,0,0,1,9.45-1.44,3.78,3.78,0,0,1,2.33-.64c2.07.1,2.7,1.21,2.7,3.28l4.13-.63,35.24,1.61v-.43a3.85,3.85,0,0,1,3.65-3.84,4,4,0,0,1,4,4.05v.22l35.13-1.36,3.3,1.12a4,4,0,0,1,3.55-4,3.77,3.77,0,0,1,2.43.65,4.85,4.85,0,0,1,5-3.81,5,5,0,0,1,4.53,5.05v2.37h9.29a3.81,3.81,0,0,1,5.11-2.64,3.85,3.85,0,0,1,4.25-3.07,4,4,0,0,1,3.36,4l2.51.34,29.88,3.75,2.47-7.08c0-2.38-.14-3.95,2.33-3.45a3.91,3.91,0,0,1,3,3.86v.65A3.77,3.77,0,0,1,199,6.71a4,4,0,0,1,2.62,3.81v.26h28.49V7.7a3.85,3.85,0,0,1,4.64-3.76,3.91,3.91,0,0,1,3,3.86v1a2.52,2.52,0,0,1,2.41-1.24,2.64,2.64,0,0,1,2.31,2.68v.49h13.92V9.07a2.55,2.55,0,0,1,2.81-2.53,2.64,2.64,0,0,1,2.27,2.67l1.46.16,30.5,1.41V8.85a2.86,2.86,0,0,1,5.7-.33,2.49,2.49,0,0,1,2-.92,2.68,2.68,0,0,1,2.52,2.69v.49Z"/><path class="cls-5" d="M320,8.25v2.16a3.26,3.26,0,0,0-3,2.06,3.35,3.35,0,0,0-.22,1.19v6.18a2.38,2.38,0,0,1-2.37,2.38H301.79a2.38,2.38,0,0,1-2.37-2.38v-7c0-.11,0-.22,0-.32A2.38,2.38,0,0,0,297,10.41h-1.13a3,3,0,0,0-2.11.88,3,3,0,0,0-.74,1.18,3.12,3.12,0,0,0-.14.93,3,3,0,0,1-3,3h-13a2.93,2.93,0,0,1-2.11-.88A3,3,0,0,1,274,13.4a2.83,2.83,0,0,0-.15-.93A3,3,0,0,0,271,10.41h-1.08A3.56,3.56,0,0,0,266.32,14V17a3.49,3.49,0,0,1-.06.65,3.55,3.55,0,0,1-3.49,2.9H245.39a3.55,3.55,0,0,1-3.5-2.9,3.49,3.49,0,0,1-.06-.65V14a3.56,3.56,0,0,0-3.55-3.55h-2.14a3,3,0,0,0-2.87,2.06,2.93,2.93,0,0,0-.17,1v6a3,3,0,0,1-3,3H204.28a3,3,0,0,1-3.05-3v-6a2.93,2.93,0,0,0-.17-1,3,3,0,0,0-2.87-2.06h-6.78a2.84,2.84,0,0,0-2.74,2.06,3,3,0,0,0-.11.79v2a2.83,2.83,0,0,1-1.39,2.44,2.9,2.9,0,0,1-1.46.4h-19.4a2.9,2.9,0,0,1-1.46-.4,2.83,2.83,0,0,1-1.39-2.44v-2a3,3,0,0,0-.11-.79,2.84,2.84,0,0,0-2.74-2.06h-3.68a3.19,3.19,0,0,0-3,2.06,3,3,0,0,0-.21,1.13v4.25A3.19,3.19,0,0,1,150.55,21H115.34a3.19,3.19,0,0,1-3.19-3.19V13.6a3,3,0,0,0-.21-1.13,3.18,3.18,0,0,0-3-2.06h-6.7a2.84,2.84,0,0,0-2.74,2.06,3,3,0,0,0-.11.79v6.36a2.86,2.86,0,0,1-2.85,2.85H67.39a2.85,2.85,0,0,1-2.85-2.85V13.26a3,3,0,0,0-.11-.79,2.85,2.85,0,0,0-2.74-2.06h-6a2.56,2.56,0,0,0-2.51,2.06,2.94,2.94,0,0,0,0,.51v2.53a2.55,2.55,0,0,1-1.2,2.16,2.58,2.58,0,0,1-1.37.4H38.39a2.16,2.16,0,0,1-2.15-2.15V12.47a2.15,2.15,0,0,0-2.16-2.06,2.38,2.38,0,0,0-2.36,2.06,1.87,1.87,0,0,0,0,.34v5.83a2.41,2.41,0,0,1-2.4,2.4H5.36A2.4,2.4,0,0,1,3,18.64V13.38a3,3,0,0,0-.14-.91,3,3,0,0,0-.73-1.19A3,3,0,0,0,0,10.41V8.25H18V6.07a4.83,4.83,0,0,1,9.45-1.44A3.78,3.78,0,0,1,29.77,4a4,4,0,0,1,3.64,4v.25H71.84V7.82A3.85,3.85,0,0,1,75.49,4a4,4,0,0,1,4,4v.22H118V8a4,4,0,0,1,3.55-4,3.77,3.77,0,0,1,2.43.65,4.85,4.85,0,0,1,5-3.81,5,5,0,0,1,4.53,5.05V8.25h9.29a3.81,3.81,0,0,1,5.11-2.64,3.85,3.85,0,0,1,4.25-3.07,4,4,0,0,1,3.36,4V8.25h32.55V3.84A3.85,3.85,0,0,1,192.71.08a3.91,3.91,0,0,1,3,3.86v.65A3.77,3.77,0,0,1,199,4.18,4,4,0,0,1,201.64,8v.26h28.49V5.17a3.85,3.85,0,0,1,4.64-3.76,3.91,3.91,0,0,1,3,3.86V6.32a2.52,2.52,0,0,1,2.41-1.24,2.64,2.64,0,0,1,2.31,2.68v.49h13.92V6.54A2.55,2.55,0,0,1,259.26,4a2.64,2.64,0,0,1,2.27,2.67V8.25h32V6.32a2.86,2.86,0,0,1,5.7-.33,2.49,2.49,0,0,1,2-.92,2.68,2.68,0,0,1,2.52,2.69v.49Z"/><path class="cls-6" d="M2.83,12.47H31.72a1.87,1.87,0,0,0,0,.34v5.83a2.41,2.41,0,0,1-2.4,2.4H5.36A2.4,2.4,0,0,1,3,18.64V13.38A3,3,0,0,0,2.83,12.47Z"/><path class="cls-6" d="M36.24,12.47H53.15a2.94,2.94,0,0,0,0,.51v2.53a2.57,2.57,0,0,1-2.57,2.56H38.39a2.15,2.15,0,0,1-2.15-2.15Z"/><path class="cls-6" d="M64.43,12.47H99.52a3,3,0,0,0-.11.79v6.36a2.86,2.86,0,0,1-2.85,2.85H67.39a2.85,2.85,0,0,1-2.85-2.85V13.26A3,3,0,0,0,64.43,12.47Z"/><path class="cls-6" d="M111.94,12.47h42a3,3,0,0,0-.21,1.13v4.25A3.19,3.19,0,0,1,150.55,21H115.34a3.19,3.19,0,0,1-3.19-3.19V13.6A3,3,0,0,0,111.94,12.47Z"/><path class="cls-6" d="M163.35,12.47h25.32a3,3,0,0,0-.11.79v2a2.84,2.84,0,0,1-2.85,2.84h-19.4a2.84,2.84,0,0,1-2.85-2.84v-2A3,3,0,0,0,163.35,12.47Z"/><path class="cls-6" d="M201.06,12.47h32.21a2.93,2.93,0,0,0-.17,1v6a3,3,0,0,1-3,3H204.28a3,3,0,0,1-3.05-3v-6A2.93,2.93,0,0,0,201.06,12.47Z"/><path class="cls-6" d="M241.5,12.47h25.15a3.53,3.53,0,0,0-.33,1.49V17a3.55,3.55,0,0,1-3.55,3.55H245.39A3.55,3.55,0,0,1,241.83,17V14A3.53,3.53,0,0,0,241.5,12.47Z"/><path class="cls-6" d="M273.8,12.47h19.26a3.12,3.12,0,0,0-.14.93,3,3,0,0,1-3,3h-13a2.93,2.93,0,0,1-2.11-.88A3,3,0,0,1,274,13.4,2.83,2.83,0,0,0,273.8,12.47Z"/><path class="cls-6" d="M317,12.47a3.35,3.35,0,0,0-.22,1.19v6.18a2.38,2.38,0,0,1-2.37,2.38H301.79a2.38,2.38,0,0,1-2.37-2.38v-7c0-.11,0-.22,0-.32Z"/><path class="cls-7" d="M3,17.67H31.69v1a2.41,2.41,0,0,1-2.4,2.4H5.36A2.4,2.4,0,0,1,3,18.64Z"/><path class="cls-7" d="M37.15,17.67H51.9a2.58,2.58,0,0,1-1.37.4H38.39A2.11,2.11,0,0,1,37.15,17.67Z"/><path class="cls-7" d="M64.54,17.67H99.41v1.95a2.86,2.86,0,0,1-2.85,2.85H67.39a2.85,2.85,0,0,1-2.85-2.85Z"/><path class="cls-7" d="M112.15,17.67h41.59v.18A3.19,3.19,0,0,1,150.55,21H115.34a3.19,3.19,0,0,1-3.19-3.19Z"/><path class="cls-7" d="M164.85,17.67h22.32a2.9,2.9,0,0,1-1.46.4h-19.4A2.9,2.9,0,0,1,164.85,17.67Z"/><path class="cls-7" d="M201.23,17.67H233.1v1.75a3,3,0,0,1-3,3H204.28a3,3,0,0,1-3.05-3Z"/><path class="cls-7" d="M241.89,17.67h24.37a3.55,3.55,0,0,1-3.49,2.9H245.39A3.55,3.55,0,0,1,241.89,17.67Z"/><path class="cls-7" d="M316.75,17.67v2.17a2.38,2.38,0,0,1-2.37,2.38H301.79a2.38,2.38,0,0,1-2.37-2.38V17.67Z"/></svg>