<svg id="Layer_1" data-name="Layer 1" xmlns="http://www.w3.org/2000/svg" xmlns:xlink="http://www.w3.org/1999/xlink" viewBox="0 0 320 26.16"><defs><style>.cls-1{fill:url(#linear-gradient);}.cls-2,.cls-4{fill:#ad4f31;}.cls-2{opacity:0.5;}.cls-3{fill:#a65641;opacity:0.75;}.cls-5{fill:#91cc1a;}.cls-6{fill:#88b716;}.cls-7{fill:#7c9e12;}</style><linearGradient id="linear-gradient" x1="160" y1="28.73" x2="160" y2="15.24" gradientUnits="userSpaceOnUse"><stop offset="0" stop-color="#ce9155"/><stop offset="1" stop-color="#b06d43"/></linearGradient></defs><polygon class="cls-1" points="320 8.26 159.92 8.26 159.92 8.25 0 8.25 0 26.16 159.92 26.16 159.92 26.16 320 26.16 320 8.26"/><path class="cls-2" d="M127.05,20.8c-1.11.21-2.24.36-3.37.47Z"/><path class="cls-3" d="M13.51,23.06c0,.78-2.2,1.94-3.18,1.94a1.63,1.63,0,0,1-1.78-1.41,1.63,1.63,0,0,1,1.78-1.41C11.31,22.18,13.51,22.29,13.51,23.06Z"/><path class="cls-4" d="M125.32,17.44c-.53.09-1.07.17-1.6.23Z"/><ellipse class="cls-3" cx="16.27" cy="21.64" rx="1.05" ry="0.83"/><path class="cls-3" d="M54.2,23.24a2.06,2.06,0,0,1-2.43.4c-.81-.43-1.84-2.17-1.3-2.81s2.42.06,3.23.48A1.23,1.23,0,0,1,54.2,23.24Z"/><ellipse class="cls-3" cx="78.83" cy="16.02" rx="1.12" ry="0.89"/><path class="cls-3" d="M108.22,22c0,.89-3.08,2.24-4.2,2.24a1.86,1.86,0,0,1-2-1.61A1.86,1.86,0,0,1,104,21C105.14,21,108.22,21.13,108.22,22Z"/><ellipse class="cls-3" cx="100.43" cy="20.8" rx="1.02" ry="0.81"/><path class="cls-3" d="M123.75,15.61c0,.63-1.53,1.55-2.43,1.55s-1.64-.51-1.64-1.14.73-1.14,1.64-1.14S123.75,15,123.75,15.61Z"/><path class="cls-3" d="M33.55,17.13c.09-.62,1.74-1.41,2.63-1.33s1.56.65,1.47,1.28-.89,1.06-1.78,1S33.46,17.76,33.55,17.13Z"/><path class="cls-3" d="M144.15,21.78a1.58,1.58,0,0,1-3.07,0A2.11,2.11,0,0,1,143,20.19C143.82,20.19,144.15,21.11,144.15,21.78Z"/><path class="cls-3" d="M158,16.17c0,.57,0,1.5-.74,1.5s-1.89-.93-1.89-1.5a1.35,1.35,0,0,1,2.63,0Z"/><path class="cls-2" d="M287.13,20.8c-1.11.21-2.24.36-3.37.47Z"/><path class="cls-2" d="M317.24,19.06c-2.76-.59-5.15-1.94-7.78-2.8a22.81,22.81,0,0,0-10.77-.66l-1.48.2L285.4,17.44c-.53.09-1.07.17-1.6.23h0a38.58,38.58,0,0,1-7.89.09c-6.59-.6-12.8-2.85-19.51-2.88-6.51,0-12,2.74-18.29,3.47s-11.32-2.1-17.06-3.3c-6-1.23-10.79.23-16.11,2.31-6.07,2.37-11.32,1.22-17.44-.41-5.61-1.5-11.29-2.57-17-.69-2.63.86-5,2.21-7.78,2.8a13.64,13.64,0,0,1-2.76.3h0l-1-.05a15.55,15.55,0,0,1-1.78-.25,19.2,19.2,0,0,1-2.64-.8c-1.73-.64-3.38-1.44-5.14-2a23.08,23.08,0,0,0-10.77-.65l-1.48.2-11.81,1.64c-.53.09-1.07.17-1.61.22h0a38.6,38.6,0,0,1-7,.16l-.92-.07c-1-.1-2-.23-3.05-.39-5.49-.86-10.8-2.46-16.46-2.49-6.52,0-12,2.74-18.29,3.47a23.3,23.3,0,0,1-9.39-1.13c-2.54-.74-5-1.62-7.68-2.17-.49-.1-1-.19-1.46-.25-5.31-.74-9.77.65-14.64,2.56a21,21,0,0,1-12.15.84C31,17.89,29.2,17.44,27.38,17c-1.2-.32-2.4-.62-3.6-.87A26.69,26.69,0,0,0,12,15.81c-.53.13-1,.27-1.58.44l-1.1.4A46.07,46.07,0,0,1,2.6,19.07a13.71,13.71,0,0,1-2.6.29v3.45a21.46,21.46,0,0,0,7.13-1.33c2.52-.92,4.86-2.18,7.65-2.58,3.37-.48,6.77.29,10,1.11,5.49,1.41,11,3.1,16.86,2.1a28.92,28.92,0,0,0,4.74-1.32c4.05-1.47,7.77-3.3,12.69-2.44,5.56,1,10.4,3.58,16.24,3.7,6.8.14,12.61-3.14,19.28-3.55,7.51-.48,14.63,2.4,22.06,2.89a44.06,44.06,0,0,0,7.07-.11l3.38-.48,2.61-.36,9-1.25A19.18,19.18,0,0,1,145,18.9a20.48,20.48,0,0,1,5,1.54c.88.35,1.74.71,2.63,1a21.36,21.36,0,0,0,7.29,1.33h0a21.38,21.38,0,0,0,7.29-1.34c2.52-.93,4.87-2.18,7.65-2.58,3.37-.49,6.77.29,9.95,1.11,5.5,1.41,11,3.11,16.87,2.1a27.21,27.21,0,0,0,4.73-1.33c4.05-1.46,7.77-3.29,12.69-2.43,5.56,1,10.41,3.57,16.24,3.69,6.81.15,12.61-3.14,19.28-3.55,7.52-.47,14.63,2.41,22.06,2.9a43.08,43.08,0,0,0,7.08-.12l3.37-.47,11.56-1.62a19.46,19.46,0,0,1,6.37-.28c2.78.4,5.13,1.65,7.65,2.58A21.38,21.38,0,0,0,320,22.82V19.36A13.64,13.64,0,0,1,317.24,19.06Z"/><path class="cls-3" d="M173.59,23.06c0,.78-2.2,1.94-3.18,1.94a1.63,1.63,0,0,1-1.78-1.41,1.63,1.63,0,0,1,1.78-1.41C171.39,22.18,173.59,22.29,173.59,23.06Z"/><path class="cls-4" d="M285.4,17.44c-.53.09-1.07.17-1.6.23Z"/><ellipse class="cls-3" cx="176.35" cy="21.64" rx="1.05" ry="0.83"/><path class="cls-3" d="M214.28,23.24a2.06,2.06,0,0,1-2.43.4c-.81-.43-1.84-2.17-1.3-2.81s2.42.06,3.23.48A1.23,1.23,0,0,1,214.28,23.24Z"/><ellipse class="cls-3" cx="238.91" cy="16.02" rx="1.12" ry="0.89"/><path class="cls-3" d="M268.3,22c0,.89-3.08,2.24-4.2,2.24a1.86,1.86,0,0,1-2-1.61,1.86,1.86,0,0,1,2-1.61C265.22,21,268.3,21.13,268.3,22Z"/><ellipse class="cls-3" cx="260.51" cy="20.8" rx="1.02" ry="0.81"/><path class="cls-3" d="M283.83,15.61c0,.63-1.53,1.55-2.44,1.55s-1.63-.51-1.63-1.14.73-1.14,1.63-1.14S283.83,15,283.83,15.61Z"/><path class="cls-3" d="M193.63,17.13c.09-.62,1.74-1.41,2.63-1.33s1.55.65,1.47,1.28-.89,1.06-1.78,1S193.54,17.76,193.63,17.13Z"/><path class="cls-3" d="M304.23,21.78a1.58,1.58,0,0,1-3.07,0,2.11,2.11,0,0,1,1.89-1.59C303.9,20.19,304.23,21.11,304.23,21.78Z"/><path class="cls-3" d="M318.07,16.17c0,.57,0,1.5-.74,1.5s-1.89-.93-1.89-1.5a1.35,1.35,0,0,1,2.63,0Z"/><path class="cls-2" d="M320,8.35V11a3.32,3.32,0,0,0-3,1.68,2.26,2.26,0,0,0-.22,1v5a2.19,2.19,0,0,1-2.37,1.94H301.79a2.19,2.19,0,0,1-2.37-1.94V12.93a2.11,2.11,0,0,0,0-.26A2.28,2.28,0,0,0,297,11h-1.13a3.36,3.36,0,0,0-2.11.72,2.44,2.44,0,0,0-.74,1,2.08,2.08,0,0,0-.14.75,2.76,2.76,0,0,1-3,2.44h-13a3.27,3.27,0,0,1-2.11-.71,2.24,2.24,0,0,1-.88-1.73,1.9,1.9,0,0,0-.15-.75A3,3,0,0,0,271,11h-1.08a3.66,3.66,0,0,0-3.22,1.68,2.41,2.41,0,0,0-.33,1.21v2.49a2.33,2.33,0,0,1-.06.53,3.43,3.43,0,0,1-3.49,2.36H245.39a3.44,3.44,0,0,1-3.5-2.36,2.33,2.33,0,0,1-.06-.53V13.88a2.41,2.41,0,0,0-.33-1.21A3.66,3.66,0,0,0,238.28,11h-2.14a3,3,0,0,0-2.87,1.68,2,2,0,0,0-.17.79v4.86a2.8,2.8,0,0,1-3,2.48H204.28a2.81,2.81,0,0,1-3.05-2.48V13.46a2,2,0,0,0-.17-.79A3,3,0,0,0,198.19,11h-6.78a2.82,2.82,0,0,0-2.74,1.68,2,2,0,0,0-.11.64v1.6a2.27,2.27,0,0,1-1.39,2,3.47,3.47,0,0,1-1.46.32h-19.4a3.47,3.47,0,0,1-1.46-.32,2.27,2.27,0,0,1-1.39-2v-1.6a2,2,0,0,0-.11-.64A2.82,2.82,0,0,0,160.61,11h-3.68a3.23,3.23,0,0,0-3,1.68,2,2,0,0,0-.21.92V17a2.94,2.94,0,0,1-3.19,2.6H115.34a2.94,2.94,0,0,1-3.19-2.6V13.59a2,2,0,0,0-.21-.92A3.22,3.22,0,0,0,109,11h-6.7a2.82,2.82,0,0,0-2.74,1.68,2,2,0,0,0-.11.64v5.17a2.63,2.63,0,0,1-2.85,2.32H67.39a2.62,2.62,0,0,1-2.85-2.32V13.31a2,2,0,0,0-.11-.64A2.83,2.83,0,0,0,61.69,11h-6a2.48,2.48,0,0,0-2.51,1.68,1.92,1.92,0,0,0,0,.41v2.06a2,2,0,0,1-1.2,1.76,3.07,3.07,0,0,1-1.37.32H38.39a2.48,2.48,0,0,1-1.24-.32,1.66,1.66,0,0,1-.91-1.43v-2.8a1.66,1.66,0,0,0-.63-1.17A2.51,2.51,0,0,0,34.08,11a2.28,2.28,0,0,0-2.36,1.68,1.24,1.24,0,0,0,0,.27v4.75a2.22,2.22,0,0,1-2.4,1.95H5.36A2.21,2.21,0,0,1,3,17.69V13.41a2,2,0,0,0-.14-.74,2.38,2.38,0,0,0-.73-1A3.32,3.32,0,0,0,0,11V8.77l18,.46H71.84L118,9c0-1.66,15.56.19,15.56.19h9.29c.41-1.35,44.37-.32,44.37-.32,6.11-.66,11.61-1.21,14.47.11v.21h102Z"/><path class="cls-5" d="M303.67,8.25V7.76a2.68,2.68,0,0,0-2.52-2.69,2.49,2.49,0,0,0-2,.92,2.86,2.86,0,0,0-5.7.33V8.25h-32V6.68A2.64,2.64,0,0,0,259.26,4a2.55,2.55,0,0,0-2.81,2.53V8.25H242.53V7.76a2.64,2.64,0,0,0-2.31-2.68,2.52,2.52,0,0,0-2.41,1.24V5.27a3.91,3.91,0,0,0-3-3.86,3.85,3.85,0,0,0-4.64,3.76V8.25H201.64V8A4,4,0,0,0,199,4.18a3.77,3.77,0,0,0-3.27.41V3.94a3.91,3.91,0,0,0-3-3.86,3.85,3.85,0,0,0-4.64,3.76V8.25H155.52V6.52a4,4,0,0,0-3.36-4,3.85,3.85,0,0,0-4.25,3.07,3.81,3.81,0,0,0-5.11,2.64h-9.29V5.88a5,5,0,0,0-4.53-5,4.85,4.85,0,0,0-5,3.81A3.77,3.77,0,0,0,121.5,4,4,4,0,0,0,118,8v.24H79.52V8a4,4,0,0,0-4-4,3.85,3.85,0,0,0-3.65,3.84v.43H33.41V8a4,4,0,0,0-3.64-4,3.78,3.78,0,0,0-2.33.64A4.83,4.83,0,0,0,18,6.07V8.25H0V9.74a3.74,3.74,0,0,1,2.1.6,2.13,2.13,0,0,1,.73.83A1.46,1.46,0,0,1,3,11.8v3.63c0,.91,1.07,1.66,2.39,1.66H29.29c1.32,0,2.4-.75,2.4-1.66v-4a.85.85,0,0,1,0-.23,2.26,2.26,0,0,1,2.36-1.43,2.76,2.76,0,0,1,1.53.44,1.33,1.33,0,0,1,.63,1v2.38a1.41,1.41,0,0,0,.91,1.21,2.83,2.83,0,0,0,1.24.28H50.53a3.52,3.52,0,0,0,1.37-.28,1.74,1.74,0,0,0,1.2-1.49V11.52a1.34,1.34,0,0,1,0-.35,2.5,2.5,0,0,1,2.51-1.43h6a2.89,2.89,0,0,1,2.74,1.43,1.45,1.45,0,0,1,.11.54v4.4c0,1.08,1.27,2,2.85,2H96.56c1.57,0,2.85-.89,2.85-2v-4.4a1.45,1.45,0,0,1,.11-.54,2.88,2.88,0,0,1,2.74-1.43H109a3.36,3.36,0,0,1,3,1.43,1.52,1.52,0,0,1,.21.78v2.93c0,1.22,1.43,2.21,3.19,2.21h35.21c1.76,0,3.19-1,3.19-2.21V12a1.52,1.52,0,0,1,.21-.78,3.37,3.37,0,0,1,3-1.43h3.68a2.88,2.88,0,0,1,2.74,1.43,1.45,1.45,0,0,1,.11.54v1.36a2,2,0,0,0,1.39,1.69,4,4,0,0,0,1.46.28h19.4a4,4,0,0,0,1.46-.28,2,2,0,0,0,1.39-1.69V11.71a1.45,1.45,0,0,1,.11-.54,2.88,2.88,0,0,1,2.74-1.43h6.78a3.14,3.14,0,0,1,2.87,1.43,1.45,1.45,0,0,1,.17.67V16c0,1.17,1.37,2.11,3.05,2.11h25.77c1.69,0,3-.94,3-2.11V11.84a1.45,1.45,0,0,1,.17-.67,3.14,3.14,0,0,1,2.87-1.43h2.14a3.84,3.84,0,0,1,3.22,1.43,1.83,1.83,0,0,1,.33,1v2.11a1.74,1.74,0,0,0,.06.45c.3,1.14,1.75,2,3.5,2h17.38c1.74,0,3.19-.86,3.49-2a1.74,1.74,0,0,0,.06-.45V12.2a1.83,1.83,0,0,1,.33-1,3.84,3.84,0,0,1,3.22-1.43H271a3.1,3.1,0,0,1,2.85,1.43,1.4,1.4,0,0,1,.15.64,1.81,1.81,0,0,0,.88,1.46,3.68,3.68,0,0,0,2.11.61h13c1.66,0,3-.92,3-2.07a1.53,1.53,0,0,1,.14-.64,2.2,2.2,0,0,1,.74-.82,3.78,3.78,0,0,1,2.11-.61H297a2.26,2.26,0,0,1,2.36,1.43,1.5,1.5,0,0,1,0,.22v4.87c0,.9,1.06,1.64,2.37,1.64h12.59c1.31,0,2.37-.74,2.37-1.64V12a1.68,1.68,0,0,1,.22-.82,3.47,3.47,0,0,1,3-1.43V8.25H303.67Z"/><path class="cls-6" d="M2.83,11.17H31.72a.85.85,0,0,0,0,.23v4c0,.91-1.08,1.66-2.4,1.66H5.36C4,17.09,3,16.34,3,15.43V11.8A1.46,1.46,0,0,0,2.83,11.17Z"/><path class="cls-6" d="M36.24,11.17H53.15a1.34,1.34,0,0,0,0,.35v1.75c0,1-1.15,1.77-2.57,1.77H38.39c-1.19,0-2.15-.67-2.15-1.49Z"/><path class="cls-6" d="M64.43,11.17H99.52a1.45,1.45,0,0,0-.11.54v4.4c0,1.08-1.28,2-2.85,2H67.39c-1.58,0-2.85-.89-2.85-2v-4.4A1.45,1.45,0,0,0,64.43,11.17Z"/><path class="cls-6" d="M111.94,11.17h42a1.52,1.52,0,0,0-.21.78v2.93c0,1.22-1.43,2.21-3.19,2.21H115.34c-1.76,0-3.19-1-3.19-2.21V12A1.52,1.52,0,0,0,111.94,11.17Z"/><path class="cls-6" d="M163.35,11.17h25.32a1.45,1.45,0,0,0-.11.54v1.36c0,1.09-1.27,2-2.85,2h-19.4c-1.58,0-2.85-.88-2.85-2V11.71A1.45,1.45,0,0,0,163.35,11.17Z"/><path class="cls-6" d="M201.06,11.17h32.21a1.45,1.45,0,0,0-.17.67V16c0,1.17-1.36,2.11-3,2.11H204.28c-1.68,0-3.05-.94-3.05-2.11V11.84A1.45,1.45,0,0,0,201.06,11.17Z"/><path class="cls-6" d="M241.5,11.17h25.15a1.83,1.83,0,0,0-.33,1v2.11c0,1.35-1.59,2.45-3.55,2.45H245.39c-2,0-3.56-1.1-3.56-2.45V12.2A1.83,1.83,0,0,0,241.5,11.17Z"/><path class="cls-6" d="M273.8,11.17h19.26a1.53,1.53,0,0,0-.14.64c0,1.15-1.34,2.07-3,2.07h-13a3.68,3.68,0,0,1-2.11-.61,1.81,1.81,0,0,1-.88-1.46A1.4,1.4,0,0,0,273.8,11.17Z"/><path class="cls-6" d="M317,11.17a1.68,1.68,0,0,0-.22.82v4.27c0,.9-1.06,1.64-2.37,1.64H301.79c-1.31,0-2.37-.74-2.37-1.64V11.39a1.5,1.5,0,0,0,0-.22Z"/><path class="cls-7" d="M3,14.76H31.69v.67c0,.91-1.08,1.66-2.4,1.66H5.36C4,17.09,3,16.34,3,15.43Z"/><path class="cls-7" d="M37.15,14.76H51.9a3.52,3.52,0,0,1-1.37.28H38.39A2.83,2.83,0,0,1,37.15,14.76Z"/><path class="cls-7" d="M64.54,14.76H99.41v1.35c0,1.08-1.28,2-2.85,2H67.39c-1.58,0-2.85-.89-2.85-2Z"/><path class="cls-7" d="M112.15,14.76h41.59v.12c0,1.22-1.43,2.21-3.19,2.21H115.34c-1.76,0-3.19-1-3.19-2.21Z"/><path class="cls-7" d="M164.85,14.76h22.32a4,4,0,0,1-1.46.28h-19.4A4,4,0,0,1,164.85,14.76Z"/><path class="cls-7" d="M201.23,14.76H233.1V16c0,1.17-1.36,2.11-3,2.11H204.28c-1.68,0-3.05-.94-3.05-2.11Z"/><path class="cls-7" d="M241.89,14.76h24.37c-.3,1.14-1.75,2-3.49,2H245.39C243.64,16.76,242.19,15.9,241.89,14.76Z"/><path class="cls-7" d="M316.75,14.76v1.5c0,.9-1.06,1.64-2.37,1.64H301.79c-1.31,0-2.37-.74-2.37-1.64v-1.5Z"/></svg>