<svg id="Layer_1" data-name="Layer 1" xmlns="http://www.w3.org/2000/svg" viewBox="0 0 320.1 26.4"><defs><style>.cls-1{fill:#91cc1a;}.cls-2{fill:#88b716;}.cls-3{fill:#7c9e12;}</style></defs><title>New Ground-01 (3)</title><path class="cls-1" d="M320.1,8.26v11H.1v-11h18V6.08a4.83,4.83,0,0,1,9.45-1.44A3.84,3.84,0,0,1,33.5,7.85v.43H71.94V7.83a3.84,3.84,0,1,1,7.68,0v.43H118.1V7.83A3.84,3.84,0,0,1,121.88,4a3.81,3.81,0,0,1,2.14.66,4.85,4.85,0,0,1,9.59,1V8.26h9.28V8.12a3.82,3.82,0,0,1,4.72-2.62,2.06,2.06,0,0,1,.35.12,3.84,3.84,0,0,1,7.61.74v1.9h32.56V3.85a3.84,3.84,0,1,1,7.68,0V4.6a3.82,3.82,0,0,1,5.88,3.23v.43h28.5V5.18a3.84,3.84,0,1,1,7.68,0V6.33a2.52,2.52,0,0,1,3.45-.92,2.47,2.47,0,0,1,1.26,2.21v.64H256.5V6.55a2.54,2.54,0,1,1,5.08,0V8.26h32V6.33A2.87,2.87,0,0,1,299.29,6a2.49,2.49,0,0,1,1.94-.92,2.54,2.54,0,0,1,2.53,2.54v.64Z"/><rect class="cls-2" x="0.1" y="14.61" width="320" height="8.17"/><rect class="cls-3" y="21.29" width="320.1" height="5.11"/></svg>