<svg id="Layer_1" data-name="Layer 1" xmlns="http://www.w3.org/2000/svg" xmlns:xlink="http://www.w3.org/1999/xlink" viewBox="0 0 320 26.16"><defs><style>.cls-1{fill:url(#linear-gradient);}.cls-2,.cls-4{fill:#ad4f31;}.cls-2{opacity:0.5;}.cls-3{fill:#a65641;opacity:0.75;}.cls-5{fill:#91cc1a;}.cls-6{fill:#88b716;}.cls-7{fill:#7c9e12;}</style><linearGradient id="linear-gradient" x1="160" y1="28.73" x2="160" y2="15.24" gradientUnits="userSpaceOnUse"><stop offset="0" stop-color="#ce9155"/><stop offset="1" stop-color="#b06d43"/></linearGradient></defs><polygon class="cls-1" points="320 8.26 159.92 8.26 159.92 8.25 0 8.25 0 26.16 159.92 26.16 159.92 26.16 320 26.16 320 8.26"/><path class="cls-2" d="M127.05,20.8c-1.11.21-2.24.36-3.37.47Z"/><path class="cls-3" d="M13.51,23.06c0,.78-2.2,1.93-3.18,1.93a1.62,1.62,0,0,1-1.77-1.4,1.62,1.62,0,0,1,1.77-1.41C11.31,22.18,13.51,22.28,13.51,23.06Z"/><path class="cls-4" d="M125.32,17.44c-.53.09-1.07.17-1.6.23Z"/><ellipse class="cls-3" cx="16.27" cy="21.64" rx="1.05" ry="0.83"/><path class="cls-3" d="M54.21,23.24a2.07,2.07,0,0,1-2.44.4c-.81-.43-1.83-2.17-1.3-2.81s2.42.05,3.23.48A1.23,1.23,0,0,1,54.21,23.24Z"/><ellipse class="cls-3" cx="78.83" cy="16.02" rx="1.12" ry="0.89"/><path class="cls-3" d="M108.22,22c0,.89-3.08,2.24-4.2,2.24a1.86,1.86,0,0,1-2-1.61A1.86,1.86,0,0,1,104,21C105.14,21,108.22,21.13,108.22,22Z"/><ellipse class="cls-3" cx="100.43" cy="20.8" rx="1.02" ry="0.81"/><path class="cls-3" d="M123.75,15.61c0,.63-1.53,1.55-2.43,1.55s-1.64-.51-1.64-1.14.74-1.14,1.64-1.14S123.75,15,123.75,15.61Z"/><path class="cls-3" d="M33.55,17.13c.09-.62,1.74-1.41,2.63-1.33s1.56.65,1.47,1.27-.88,1.07-1.78,1S33.46,17.76,33.55,17.13Z"/><path class="cls-3" d="M144.15,21.78a1.58,1.58,0,0,1-3.07,0,2.11,2.11,0,0,1,1.89-1.6C143.82,20.18,144.15,21.1,144.15,21.78Z"/><path class="cls-3" d="M158,16.17c0,.57,0,1.5-.74,1.5s-1.89-.93-1.89-1.5a1.35,1.35,0,0,1,2.63,0Z"/><path class="cls-2" d="M287.13,20.8c-1.11.21-2.24.36-3.37.47Z"/><path class="cls-2" d="M317.24,19.06c-2.76-.59-5.15-1.94-7.77-2.8a23,23,0,0,0-10.78-.67l-1.48.21L285.4,17.44c-.53.09-1.07.17-1.6.23h0a38.58,38.58,0,0,1-7.89.09c-6.59-.6-12.8-2.85-19.51-2.88-6.51,0-12,2.74-18.28,3.47s-11.33-2.11-17.07-3.3c-6-1.24-10.79.23-16.11,2.3-6.07,2.38-11.32,1.23-17.43-.4-5.62-1.5-11.3-2.57-17-.69-2.63.86-5,2.21-7.78,2.8a13.64,13.64,0,0,1-2.76.3h0l-1-.05a13.64,13.64,0,0,1-1.78-.26,16.78,16.78,0,0,1-2.64-.8c-1.73-.63-3.38-1.43-5.14-2a23,23,0,0,0-10.77-.65l-1.48.2-11.81,1.64c-.53.09-1.07.17-1.61.22h0a38.6,38.6,0,0,1-7,.16l-.92-.07c-1-.1-2-.23-3.05-.39-5.49-.86-10.8-2.46-16.46-2.49-6.52,0-12,2.74-18.29,3.47a23.3,23.3,0,0,1-9.39-1.13c-2.54-.74-5-1.62-7.68-2.17-.49-.1-1-.19-1.46-.25-5.31-.74-9.77.65-14.64,2.55a21,21,0,0,1-12.15.85C31,17.88,29.2,17.44,27.38,17c-1.2-.32-2.4-.62-3.6-.87A26.55,26.55,0,0,0,12,15.81c-.53.13-1,.27-1.58.44l-1.1.4A44.88,44.88,0,0,1,2.6,19.06a13,13,0,0,1-2.6.3V22.8a21.19,21.19,0,0,0,7.13-1.32c2.52-.93,4.86-2.19,7.65-2.58,3.37-.48,6.77.28,10,1.11,5.49,1.41,11,3.1,16.86,2.1a28,28,0,0,0,4.74-1.33c4.05-1.46,7.77-3.29,12.69-2.43,5.56,1,10.4,3.57,16.24,3.69,6.8.15,12.61-3.13,19.28-3.55,7.51-.47,14.63,2.4,22.06,2.9a45.25,45.25,0,0,0,7.07-.11l3.38-.48,2.61-.36,9-1.26A19.45,19.45,0,0,1,145,18.9a20.48,20.48,0,0,1,5,1.54c.88.34,1.74.71,2.63,1a21.36,21.36,0,0,0,7.29,1.33h0a21.36,21.36,0,0,0,7.29-1.33c2.52-.93,4.87-2.18,7.65-2.59,3.37-.48,6.77.29,9.95,1.11,5.5,1.42,11,3.12,16.87,2.11a28.5,28.5,0,0,0,4.74-1.33c4-1.46,7.76-3.29,12.68-2.43,5.56,1,10.41,3.57,16.24,3.69,6.81.14,12.62-3.14,19.28-3.55,7.52-.47,14.64,2.41,22.06,2.9a43.06,43.06,0,0,0,7.08-.12l3.37-.47,11.56-1.62a19.74,19.74,0,0,1,6.37-.29c2.79.41,5.13,1.66,7.65,2.59A21.36,21.36,0,0,0,320,22.81V19.36A13.79,13.79,0,0,1,317.24,19.06Z"/><path class="cls-3" d="M173.59,23.06c0,.78-2.2,1.93-3.18,1.93a1.62,1.62,0,0,1-1.77-1.4,1.62,1.62,0,0,1,1.77-1.41C171.39,22.18,173.59,22.28,173.59,23.06Z"/><path class="cls-4" d="M285.4,17.44c-.53.09-1.07.17-1.6.23Z"/><ellipse class="cls-3" cx="176.35" cy="21.64" rx="1.05" ry="0.83"/><path class="cls-3" d="M214.28,23.24a2.06,2.06,0,0,1-2.43.4c-.81-.43-1.84-2.17-1.3-2.81s2.42.05,3.23.48A1.23,1.23,0,0,1,214.28,23.24Z"/><ellipse class="cls-3" cx="238.91" cy="16.02" rx="1.12" ry="0.89"/><path class="cls-3" d="M268.3,22c0,.89-3.08,2.24-4.2,2.24a1.86,1.86,0,0,1-2-1.61,1.86,1.86,0,0,1,2-1.61C265.22,21,268.3,21.13,268.3,22Z"/><ellipse class="cls-3" cx="260.51" cy="20.8" rx="1.02" ry="0.81"/><path class="cls-3" d="M283.83,15.61c0,.63-1.53,1.55-2.43,1.55s-1.64-.51-1.64-1.14.73-1.14,1.64-1.14S283.83,15,283.83,15.61Z"/><path class="cls-3" d="M193.63,17.13c.09-.62,1.74-1.41,2.63-1.33s1.56.65,1.47,1.27-.89,1.07-1.78,1S193.54,17.76,193.63,17.13Z"/><path class="cls-3" d="M304.23,21.78a1.58,1.58,0,0,1-3.07,0,2.11,2.11,0,0,1,1.89-1.6C303.9,20.18,304.23,21.1,304.23,21.78Z"/><path class="cls-3" d="M318.07,16.17c0,.57,0,1.5-.74,1.5s-1.89-.93-1.89-1.5a1.35,1.35,0,0,1,2.63,0Z"/><path class="cls-2" d="M320,9.77v1.87h-1a8.75,8.75,0,0,0-2.84.43c-.72.27-1.17.64-1.17,1,0,.82-1.79,1.48-4,1.48H297.31a8.71,8.71,0,0,1-2.7-.39l-.14,0c-.72-.27-1.17-.64-1.17-1.05,0-.81-1.79-1.47-4-1.47h-7.85a12,12,0,0,0-4,.61c-1,.37-1.65.89-1.65,1.47s-.73,1.18-1.9,1.55a12.2,12.2,0,0,1-3.74.53h-34.7a12.13,12.13,0,0,1-4-.61c-1-.38-1.66-.9-1.66-1.47,0-1.15-2.52-2.08-5.64-2.08H208.59a9.93,9.93,0,0,0-3.25.49c-.84.31-1.35.74-1.35,1.2,0,.94-2.06,1.7-4.6,1.7H184.86a10,10,0,0,1-3.26-.49,2.38,2.38,0,0,1-1.26-.87.69.69,0,0,1-.09-.34c0-.93-2.06-1.69-4.6-1.69h-6.37a16.85,16.85,0,0,0-5.67.87c-1.45.53-2.35,1.26-2.35,2.08,0,.61-.49,1.17-1.34,1.64a6.87,6.87,0,0,1-1,.44,16.91,16.91,0,0,1-5.69.88H120.62a16.85,16.85,0,0,1-5.67-.87,4,4,0,0,1-2.21-1.53,1.25,1.25,0,0,1-.14-.56c0-1.63-3.59-2.95-8-2.95H85.16a9.93,9.93,0,0,0-3.25.49c-.83.31-1.35.74-1.35,1.2a1.1,1.1,0,0,1-.62.85,4.85,4.85,0,0,1-1.47.57A10.61,10.61,0,0,1,76,15H64.1a10,10,0,0,1-3.26-.49c-.84-.31-1.35-.74-1.35-1.21a.63.63,0,0,0,0-.19c-.27-.85-2.21-1.5-4.57-1.5H51.78a11.91,11.91,0,0,0-4,.61c-1,.37-1.65.89-1.65,1.47,0,1.14-2.53,2.08-5.64,2.08H14.4a12.24,12.24,0,0,1-4-.61,4.21,4.21,0,0,1-1.13-.6,1.13,1.13,0,0,1-.52-.87c0-1.15-2.52-2.08-5.64-2.08H0V9.77Z"/><path class="cls-5" d="M320,8.25V9.77h-1c-2.21,0-4,.54-4,1.21a.58.58,0,0,1-.27.44l-.05,0-.07,0a1.2,1.2,0,0,1-.2.11,2.08,2.08,0,0,1-.3.12l-.09,0-.31.09-.21.05-.6.13-.34.05-.38,0-.58,0H296.7l-.58,0-.4-.05-.3,0a7.23,7.23,0,0,1-.79-.17l-.34-.1-.09,0a2.08,2.08,0,0,1-.3-.12l-.27-.15-.05,0-.1-.08a.69.69,0,0,1-.15-.21.4.4,0,0,1,0-.15c0-.67-1.79-1.21-4-1.21h-7.86a16.69,16.69,0,0,0-2.67.2,11.56,11.56,0,0,0-1.3.29,3.56,3.56,0,0,0-1.4.69.94.94,0,0,0-.23.33.28.28,0,0,0,0,.13h0s0,0,0,0h0c0,.93-2.53,1.7-5.65,1.7h-34.7c-3.12,0-5.64-.77-5.64-1.7h0s0,0,0,0a.25.25,0,0,0,0-.12.37.37,0,0,0-.05-.11,2.75,2.75,0,0,0-1.59-.93c-.25-.07-.53-.14-.82-.2a16.44,16.44,0,0,0-3.16-.29H208.6c-2.55,0-4.61.62-4.61,1.39a.4.4,0,0,1,0,.15l-.05.11,0,0a1.56,1.56,0,0,1-.58.43l-.22.1a5.74,5.74,0,0,1-.79.24l-.71.14-.4.06-.36.05-.5,0-.33,0H184.26l-.33,0-.5,0-.36-.05-.4-.06-.71-.14a2.92,2.92,0,0,1-1.59-.77s0,0,0,0a.6.6,0,0,1-.06-.11.4.4,0,0,1,0-.15c0-.77-2.07-1.39-4.61-1.39h-7l-.41,0-.54,0-.57,0-.38,0a18.12,18.12,0,0,0-2,.31l-.52.11c-.19,0-.37.09-.54.15l-.56.19-.32.12-.34.15-.37.21-.2.14a1.41,1.41,0,0,0-.18.14s0,0,0,0a1,1,0,0,0-.37.72c0,.5-.5,1-1.35,1.34a15.65,15.65,0,0,1-5.4,1c-.41,0-.84,0-1.27,0H120.62a22.25,22.25,0,0,1-3.91-.32c-2.45-.41-4.1-1.19-4.1-2.1a1,1,0,0,0-.37-.72s0,0,0,0a1.41,1.41,0,0,0-.18-.14l-.2-.14-.37-.21-.34-.15-.32-.12-.56-.19c-.17-.06-.35-.1-.54-.15l-.52-.11a18,18,0,0,0-2-.31l-.38,0-.57,0-.55,0H85.17c-2.55,0-4.61.62-4.61,1.39a.4.4,0,0,1,0,.15.6.6,0,0,1-.06.11s0,0,0,0a2.92,2.92,0,0,1-1.59.77l-.71.14-.4.06-.36.05-.5,0-.33,0H63.5l-.33,0-.5,0-.36-.05-.4-.06c-.26,0-.5-.09-.72-.14a4.66,4.66,0,0,1-1.14-.41l-.17-.1a1.43,1.43,0,0,1-.28-.26l0,0a.6.6,0,0,1-.06-.11.4.4,0,0,1,0-.15c0-.77-2.06-1.39-4.6-1.39h-3.1a18.32,18.32,0,0,0-2.69.2c-.31.06-.61.12-.89.19a6.45,6.45,0,0,0-.87.27,1.57,1.57,0,0,0-.23.09,2.48,2.48,0,0,0-.7.43.94.94,0,0,0-.23.33.28.28,0,0,0,0,.13h0s0,0,0,0h0c0,.93-2.52,1.7-5.64,1.7H14.4A16.83,16.83,0,0,1,12,13c-1.89-.28-3.19-.86-3.19-1.53h0s0,0,0,0h0a.28.28,0,0,0,0-.13A.94.94,0,0,0,8.49,11a2.48,2.48,0,0,0-.7-.43,1.57,1.57,0,0,0-.23-.09,6.45,6.45,0,0,0-.87-.27c-.28-.07-.57-.13-.89-.19a18.32,18.32,0,0,0-2.69-.2H0V8.25H18V6.07a4.83,4.83,0,0,1,9.45-1.44A3.8,3.8,0,0,1,29.57,4a3.84,3.84,0,0,1,3.84,3.84v.43H71.84V7.82a3.84,3.84,0,1,1,7.68,0v.43H118V7.82A3.84,3.84,0,0,1,121.79,4a3.76,3.76,0,0,1,2.14.66,4.84,4.84,0,0,1,9.58,1V8.25h9.29a.74.74,0,0,1,0-.14,3.81,3.81,0,0,1,5.07-2.5,3.84,3.84,0,0,1,7.61.74v1.9h32.55V3.84a3.84,3.84,0,1,1,7.68,0v.75a3.82,3.82,0,0,1,5.89,3.23v.43h28.49V5.17a3.84,3.84,0,1,1,7.68,0V6.32a2.53,2.53,0,0,1,4.72,1.29v.64h13.92V6.54a2.54,2.54,0,1,1,5.08,0V8.25h32V6.32a2.86,2.86,0,0,1,5.7-.33,2.49,2.49,0,0,1,1.94-.92,2.54,2.54,0,0,1,2.54,2.54v.64Z"/><path class="cls-6" d="M320,9.34v.43h-1c-2.21,0-4,.54-4,1.21a.59.59,0,0,1-.32.47h0s0,0-.06.05a1.2,1.2,0,0,1-.2.11,2.08,2.08,0,0,1-.3.12l-.09,0-.31.09-.21.05-.6.13-.34.05-.38,0-.58,0H296.7l-.58,0-.4-.05-.3,0c-.29,0-.55-.11-.79-.17l-.34-.1-.09,0a2.08,2.08,0,0,1-.3-.12,1.75,1.75,0,0,1-.27-.16l-.15-.11a.69.69,0,0,1-.15-.21.4.4,0,0,1,0-.15c0-.67-1.79-1.21-4-1.21h-7.86a16.69,16.69,0,0,0-2.67.2,11.56,11.56,0,0,0-1.3.29,3.56,3.56,0,0,0-1.4.69.83.83,0,0,0-.23.33.28.28,0,0,0,0,.13.06.06,0,0,0,0,0v0c0,.93-2.53,1.7-5.65,1.7h-34.7c-3.12,0-5.64-.77-5.64-1.7v0a.4.4,0,0,0,0-.15.37.37,0,0,0-.05-.11,2.75,2.75,0,0,0-1.59-.93c-.25-.07-.53-.14-.82-.2a16.44,16.44,0,0,0-3.16-.29H208.6c-2.55,0-4.61.62-4.61,1.39a.4.4,0,0,1,0,.15.5.5,0,0,1-.08.14,1.47,1.47,0,0,1-.58.44l-.22.1a5.74,5.74,0,0,1-.79.24l-.71.14-.4.06-.36.05-.5,0-.33,0H184.26l-.33,0-.5,0-.36-.05-.4-.06-.71-.14a2.85,2.85,0,0,1-1.59-.78,1,1,0,0,1-.08-.14.4.4,0,0,1,0-.15c0-.77-2.07-1.39-4.61-1.39h-7l-.41,0-.54,0-.57,0-.38,0a18.12,18.12,0,0,0-2,.31l-.52.11-.54.15-.56.19-.32.12-.34.15-.37.21-.2.14a1.4,1.4,0,0,0-.22.17,1,1,0,0,0-.37.73c0,.5-.5,1-1.35,1.34a15.65,15.65,0,0,1-5.4,1c-.41,0-.84,0-1.27,0H120.62a22.25,22.25,0,0,1-3.91-.32c-2.45-.41-4.1-1.19-4.1-2.1a1,1,0,0,0-.37-.73,1.4,1.4,0,0,0-.22-.17l-.2-.14-.37-.21-.34-.15-.32-.12-.56-.19-.54-.15-.52-.11a18,18,0,0,0-2-.31l-.38,0-.57,0-.55,0H85.17c-2.55,0-4.61.62-4.61,1.39a.4.4,0,0,1,0,.15,1,1,0,0,1-.08.14,2.85,2.85,0,0,1-1.59.78l-.71.14-.4.06-.36.05-.5,0-.33,0H63.5l-.33,0-.5,0-.36-.05-.4-.06c-.26,0-.5-.09-.72-.14a4.66,4.66,0,0,1-1.14-.41l-.17-.1a1.21,1.21,0,0,1-.28-.27.5.5,0,0,1-.08-.14.4.4,0,0,1,0-.15c0-.77-2.06-1.39-4.6-1.39h-3.1a18.32,18.32,0,0,0-2.69.2c-.32.06-.61.12-.89.19a6.45,6.45,0,0,0-.87.27.92.92,0,0,0-.23.09,2.48,2.48,0,0,0-.7.43.83.83,0,0,0-.23.33.28.28,0,0,0,0,.13.06.06,0,0,0,0,0v0c0,.93-2.52,1.7-5.64,1.7H14.4A16.83,16.83,0,0,1,12,13c-1.89-.28-3.19-.86-3.19-1.53v0a.06.06,0,0,0,0,0,.28.28,0,0,0,0-.13A.83.83,0,0,0,8.49,11a2.48,2.48,0,0,0-.7-.43.92.92,0,0,0-.23-.09,6.45,6.45,0,0,0-.87-.27c-.28-.07-.57-.13-.89-.19a18.32,18.32,0,0,0-2.69-.2H0V9.34Z"/><path class="cls-7" d="M8.75,11.42h37.4s0,0,0,0h0c0,.93-2.52,1.7-5.64,1.7H14.4A16.83,16.83,0,0,1,12,13c-1.89-.28-3.19-.86-3.19-1.53h0S8.76,11.43,8.75,11.42Z"/><path class="cls-7" d="M59.58,11.42H80.47s0,0,0,0a2.92,2.92,0,0,1-1.59.77l-.71.14-.4.06-.36.05-.5,0-.33,0H63.5l-.33,0-.5,0-.36-.05-.4-.06c-.26,0-.5-.09-.72-.14a4.66,4.66,0,0,1-1.14-.41l-.17-.1a1.43,1.43,0,0,1-.28-.26Z"/><path class="cls-7" d="M112.2,11.42h49.48s0,0,0,0a1,1,0,0,0-.37.72c0,.5-.5,1-1.35,1.34a15.65,15.65,0,0,1-5.4,1c-.41,0-.84,0-1.27,0H120.62a22.25,22.25,0,0,1-3.91-.32c-2.45-.41-4.1-1.19-4.1-2.1a1,1,0,0,0-.37-.72S112.22,11.43,112.2,11.42Z"/><path class="cls-7" d="M180.35,11.42h23.56l0,0a1.56,1.56,0,0,1-.58.43l-.22.1a5.74,5.74,0,0,1-.79.24l-.71.14-.4.06-.36.05-.5,0-.33,0H184.26l-.33,0-.5,0-.36-.05-.4-.06-.71-.14a2.92,2.92,0,0,1-1.59-.77S180.36,11.43,180.35,11.42Z"/><path class="cls-7" d="M229.8,11.42h46s0,0,0,0h0c0,.93-2.53,1.7-5.65,1.7h-34.7c-3.12,0-5.64-.77-5.64-1.7h0S229.81,11.43,229.8,11.42Z"/><path class="cls-7" d="M314.69,11.42l-.05,0-.07,0a1.2,1.2,0,0,1-.2.11,2.08,2.08,0,0,1-.3.12l-.09,0-.31.09-.21.05-.6.13-.34.05-.38,0-.58,0H296.7l-.58,0-.4-.05-.3,0a7.23,7.23,0,0,1-.79-.17l-.34-.1-.09,0a2.08,2.08,0,0,1-.3-.12l-.27-.15-.05,0Z"/></svg>