<svg id="Layer_1" data-name="Layer 1" xmlns="http://www.w3.org/2000/svg" xmlns:xlink="http://www.w3.org/1999/xlink" viewBox="0 0 320 26.18"><defs><style>.cls-1{fill:url(#linear-gradient);}.cls-2,.cls-4{fill:#ad4f31;}.cls-2{opacity:0.5;}.cls-2,.cls-3{isolation:isolate;}.cls-3{fill:#a65641;opacity:0.75;}.cls-5{fill:#91cc1a;}.cls-6{fill:#88b716;}.cls-7{fill:#7c9e12;}</style><linearGradient id="linear-gradient" x1="160" y1="5.7" x2="160" y2="19.19" gradientUnits="userSpaceOnUse"><stop offset="0" stop-color="#ce9155"/><stop offset="1" stop-color="#b06d43"/></linearGradient></defs><title>New Ground-01 (1)</title><polygon class="cls-1" points="320 8.27 320 26.16 159.92 26.16 159.92 26.18 0 26.18 0 8.26 159.92 8.26 159.92 8.27 320 8.27"/><path class="cls-2" d="M127.05,20.8c-1.11.21-2.24.36-3.37.48Z"/><path class="cls-3" d="M13.51,23.06c0,.78-2.2,1.94-3.18,1.94a1.62,1.62,0,0,1-1.78-1.41,1.63,1.63,0,0,1,1.78-1.41C11.31,22.18,13.51,22.29,13.51,23.06Z"/><path class="cls-4" d="M125.32,17.44c-.53.09-1.07.17-1.6.23Z"/><ellipse class="cls-3" cx="16.27" cy="21.64" rx="1.05" ry="0.83"/><path class="cls-3" d="M54.2,23.24a2.05,2.05,0,0,1-2.43.4c-.81-.42-1.84-2.16-1.3-2.81s2.42.06,3.23.48a1.24,1.24,0,0,1,.7,1.6A1.38,1.38,0,0,1,54.2,23.24Z"/><ellipse class="cls-3" cx="78.83" cy="16.02" rx="1.12" ry="0.89"/><path class="cls-3" d="M108.22,22c0,.89-3.08,2.24-4.2,2.24a1.85,1.85,0,0,1-2-1.61A1.86,1.86,0,0,1,104,21C105.14,21,108.22,21.13,108.22,22Z"/><ellipse class="cls-3" cx="100.43" cy="20.8" rx="1.02" ry="0.81"/><path class="cls-3" d="M123.75,15.61c0,.63-1.53,1.55-2.43,1.55s-1.64-.51-1.64-1.14.73-1.14,1.64-1.14S123.75,15,123.75,15.61Z"/><path class="cls-3" d="M33.55,17.13c.09-.62,1.74-1.41,2.63-1.33s1.56.65,1.47,1.28-.89,1.07-1.78,1S33.46,17.76,33.55,17.13Z"/><path class="cls-3" d="M144.15,21.78a1.58,1.58,0,0,1-3.07,0A2.12,2.12,0,0,1,143,20.19C143.82,20.19,144.15,21.11,144.15,21.78Z"/><path class="cls-3" d="M158,16.17c0,.57,0,1.5-.74,1.5s-1.89-.93-1.89-1.5a1.35,1.35,0,0,1,2.63,0Z"/><path class="cls-2" d="M287.13,20.8c-1.11.21-2.24.36-3.37.48Z"/><path class="cls-2" d="M317.24,19.06c-2.76-.59-5.15-1.94-7.78-2.8a23,23,0,0,0-10.77-.66l-1.48.2L285.4,17.44c-.53.09-1.07.17-1.6.23h0a38.53,38.53,0,0,1-7.89.09c-6.59-.6-12.8-2.85-19.51-2.88-6.51,0-12,2.75-18.29,3.47s-11.32-2.1-17.06-3.3c-6-1.23-10.79.23-16.11,2.31-6.07,2.37-11.32,1.22-17.44-.41-5.61-1.5-11.29-2.57-17-.69-2.63.86-5,2.21-7.78,2.8a13.49,13.49,0,0,1-2.76.31h0l-1-.05a15.24,15.24,0,0,1-1.78-.25,18.67,18.67,0,0,1-2.64-.8c-1.73-.64-3.38-1.44-5.14-2a23.24,23.24,0,0,0-10.77-.66l-1.48.2-11.81,1.64c-.53.09-1.07.17-1.61.23h0a38.07,38.07,0,0,1-7,.16l-.92-.07c-1-.09-2-.23-3-.39-5.49-.86-10.8-2.46-16.46-2.49-6.52,0-12,2.75-18.29,3.47a23.2,23.2,0,0,1-9.39-1.13c-2.54-.73-5-1.62-7.68-2.17-.49-.1-1-.19-1.46-.25-5.31-.74-9.77.66-14.64,2.56a20.92,20.92,0,0,1-12.15.84C31,17.89,29.2,17.44,27.38,17c-1.2-.31-2.4-.62-3.6-.87A26.77,26.77,0,0,0,12,15.81c-.53.13-1,.27-1.58.45-.37.12-.74.25-1.1.39A45.62,45.62,0,0,1,2.6,19.07a13.45,13.45,0,0,1-2.6.29v3.45a21.19,21.19,0,0,0,7.13-1.33c2.52-.92,4.86-2.18,7.65-2.58,3.37-.48,6.77.29,10,1.11,5.49,1.41,11,3.11,16.86,2.1a27.77,27.77,0,0,0,4.74-1.32c4-1.47,7.77-3.3,12.69-2.44,5.56,1,10.4,3.58,16.24,3.7,6.8.14,12.61-3.14,19.28-3.55,7.51-.48,14.63,2.4,22.06,2.89a42.79,42.79,0,0,0,7.07-.11l3.38-.48,2.61-.36,9-1.25A19.27,19.27,0,0,1,145,18.9a20.7,20.7,0,0,1,5,1.54c.88.35,1.74.71,2.63,1a21.09,21.09,0,0,0,7.29,1.33h0a21.61,21.61,0,0,0,7.29-1.33c2.52-.94,4.87-2.19,7.65-2.59,3.37-.49,6.77.29,9.95,1.11,5.5,1.41,11,3.11,16.87,2.1a26.81,26.81,0,0,0,4.73-1.33c4.05-1.46,7.77-3.29,12.69-2.43,5.56,1,10.41,3.58,16.24,3.69,6.81.15,12.61-3.13,19.28-3.55,7.52-.46,14.63,2.41,22.06,2.9a42.91,42.91,0,0,0,7.08-.11l3.37-.48,11.56-1.62a19.75,19.75,0,0,1,6.37-.28c2.78.4,5.13,1.65,7.65,2.59A21.38,21.38,0,0,0,320,22.82V19.37A13.49,13.49,0,0,1,317.24,19.06Z"/><path class="cls-3" d="M173.59,23.06c0,.78-2.2,1.94-3.18,1.94a1.62,1.62,0,0,1-1.78-1.41,1.63,1.63,0,0,1,1.78-1.41C171.39,22.18,173.59,22.29,173.59,23.06Z"/><path class="cls-4" d="M285.4,17.44c-.53.09-1.07.17-1.6.23Z"/><ellipse class="cls-3" cx="176.35" cy="21.64" rx="1.05" ry="0.83"/><path class="cls-3" d="M214.28,23.24a2.05,2.05,0,0,1-2.43.4c-.81-.42-1.84-2.16-1.3-2.81s2.42.06,3.23.48a1.24,1.24,0,0,1,.7,1.6A1.38,1.38,0,0,1,214.28,23.24Z"/><ellipse class="cls-3" cx="238.91" cy="16.02" rx="1.12" ry="0.89"/><path class="cls-3" d="M268.3,22c0,.89-3.08,2.24-4.2,2.24a1.85,1.85,0,0,1-2-1.61,1.87,1.87,0,0,1,2-1.61C265.22,21,268.3,21.13,268.3,22Z"/><ellipse class="cls-3" cx="260.51" cy="20.8" rx="1.02" ry="0.81"/><path class="cls-3" d="M283.83,15.61c0,.63-1.53,1.55-2.44,1.55s-1.63-.51-1.63-1.14.73-1.14,1.63-1.14S283.83,15,283.83,15.61Z"/><path class="cls-3" d="M193.63,17.13c.09-.62,1.74-1.41,2.63-1.33s1.55.65,1.47,1.28-.89,1.07-1.78,1S193.54,17.76,193.63,17.13Z"/><path class="cls-3" d="M304.23,21.78a1.58,1.58,0,0,1-3.07,0,2.11,2.11,0,0,1,1.89-1.59C303.9,20.19,304.23,21.11,304.23,21.78Z"/><rect class="cls-2" y="9.79" width="320" height="6.61"/><path class="cls-5" d="M320,8.26v6.35H0V8.25H18V6.08a4.83,4.83,0,0,1,9.45-1.44A3.74,3.74,0,0,1,29.57,4a3.84,3.84,0,0,1,3.84,3.84v.42H71.84V7.83a3.84,3.84,0,1,1,7.68,0v.43H118V7.83a3.79,3.79,0,0,1,5.93-3.16,4.84,4.84,0,0,1,9.58,1V8.26h9.29V8.12a3.8,3.8,0,0,1,4.71-2.62l.36.12a3.84,3.84,0,0,1,7.61.74v1.9H188V3.85a3.84,3.84,0,1,1,7.68,0V4.6a3.82,3.82,0,0,1,5.89,3.23v.43h28.49V5.18a3.84,3.84,0,1,1,7.68,0V6.33a2.53,2.53,0,0,1,4.72,1.29v.64h13.92V6.55a2.54,2.54,0,1,1,5.08,0h0V8.26h32V6.33a2.86,2.86,0,0,1,5.7-.33,2.48,2.48,0,0,1,1.94-.92,2.54,2.54,0,0,1,2.54,2.54v.64Z"/><rect class="cls-6" y="10.47" width="320" height="4.14"/><rect class="cls-7" y="13.06" width="320" height="1.55"/></svg>