<?xml version="1.0" encoding="utf-8"?>
<!-- Generator: Adobe Illustrator 25.1.0, SVG Export Plug-In . SVG Version: 6.00 Build 0)  -->
<svg version="1.1" id="Layer_1" xmlns="http://www.w3.org/2000/svg" xmlns:xlink="http://www.w3.org/1999/xlink" x="0px" y="0px"
	 viewBox="0 0 70 450" style="enable-background:new 0 0 70 450;" xml:space="preserve">
<style type="text/css">
	.st0{fill:#095607;}
	.st1{fill:#4EC11E;}
	.st2{fill:#8BD832;}
	.st3{fill:#17A01D;}
</style>
<path class="st0" d="M67.1,19.8V450H2.9V19.8c-0.1-1.6,1.2-2.9,2.8-3h58.7C65.9,16.9,67.2,18.2,67.1,19.8z"/>
<rect x="5.7" y="19.6" class="st1" width="58.7" height="430.4"/>
<path class="st2" d="M16.3,48.4L16.3,48.4c2.8,0,5,2.3,5,5v7.8c0,2.8-2.3,5-5,5l0,0c-2.8,0-5-2.3-5-5v-7.8
	C11.2,50.7,13.5,48.4,16.3,48.4z"/>
<path class="st2" d="M21.3,76v374H11.3V76c-0.1-2.9,2.1-5.4,5-5.5c1.4,0,2.7,0.6,3.6,1.6C20.8,73.2,21.3,74.6,21.3,76z"/>
<path class="st3" d="M64.3,36.8V450H42.5V57.9c0-8.2-6.2-16.4-18.3-16.4c-12.2,0-18.3,8.2-18.3,16.3v0.3L5.7,74.3V36.8H64.3z"/>
<path class="st0" d="M63.6,0.4C62.7,0.1,61.8,0,60.8,0H9.2C4.1,0,0,4.1,0,9.2v19.9c0,5.1,4.1,9.2,9.2,9.2h51.7
	c0.9,0,1.9-0.1,2.8-0.4c3.8-1.2,6.4-4.8,6.4-8.8V9.2C70,5.2,67.4,1.6,63.6,0.4z"/>
<path class="st1" d="M67.2,9.2v19.9c0,2.8-1.8,5.3-4.5,6.1c-0.6,0.2-1.3,0.3-2,0.3H9.2c-3.5,0-6.4-2.9-6.4-6.4V9.2
	c0-3.5,2.9-6.4,6.4-6.4h51.7c0.7,0,1.4,0.1,2,0.3C65.5,3.9,67.2,6.4,67.2,9.2z"/>
<path class="st2" d="M10.5,4.7L10.5,4.7c2.1,0,3.9,1.7,3.9,3.9v2.2c0,2.1-1.7,3.9-3.9,3.9l0,0c-2.1,0-3.9-1.7-3.9-3.9V8.6
	C6.7,6.4,8.4,4.7,10.5,4.7z"/>
<path class="st2" d="M10.5,16.4L10.5,16.4c2.1,0,3.9,1.7,3.9,3.9v8.4c0,2.1-1.7,3.9-3.9,3.9l0,0c-2.1,0-3.9-1.7-3.9-3.9v-8.4
	C6.7,18.2,8.4,16.4,10.5,16.4z"/>
<path class="st3" d="M67.2,9.2v19.9c0,2.8-1.8,5.3-4.5,6.1c-0.6,0.2-1.3,0.3-2,0.3H30.5c12.4,0,18.5-8.4,18.4-16.7l0,0V2.8h12
	c0.7,0,1.4,0.1,2,0.3C65.5,4,67.2,6.4,67.2,9.2z"/>
<path class="st3" d="M67.2,29.1V9.2c0-2.8-1.8-5.3-4.5-6.1c-0.6-0.2-1.3-0.3-2-0.3H30.5c12.4,0,18.5,8.4,18.4,16.7l0,0v16.1h12
	c0.7,0,1.4-0.1,2-0.3C65.5,34.3,67.2,31.9,67.2,29.1z"/>
</svg>
