<svg id="Layer_1" data-name="Layer 1" xmlns="http://www.w3.org/2000/svg" xmlns:xlink="http://www.w3.org/1999/xlink" viewBox="0 0 70 450"><defs><style>.cls-1{fill:#4ec11e;}.cls-2{fill:url(#linear-gradient);}.cls-3{fill:#17a01d;}.cls-4{fill:#8bd832;}.cls-5{fill:url(#linear-gradient-2);}</style><linearGradient id="linear-gradient" x1="114.05" y1="242.77" x2="-22.59" y2="242.77" gradientUnits="userSpaceOnUse"><stop offset="0.01" stop-color="#4ec11e"/><stop offset="1" stop-color="#20a516"/></linearGradient><linearGradient id="linear-gradient-2" x1="135.01" y1="17.77" x2="-53.23" y2="17.77" xlink:href="#linear-gradient"/></defs><rect class="cls-1" x="3.14" y="18.28" width="63.72" height="431.72"/><rect class="cls-2" x="35" y="35.55" width="31.86" height="414.45"/><path class="cls-3" d="M66.86,15.63V40a9.26,9.26,0,0,1-5.28,1.59H8.42A9.26,9.26,0,0,1,3.14,40V15.63Z"/><path class="cls-1" d="M70,7V28.58a7,7,0,0,1-7,7H7a7,7,0,0,1-7-7V7A7,7,0,0,1,7,0H63A7,7,0,0,1,70,7Z"/><rect class="cls-4" x="4.25" y="2.12" width="8.38" height="10.76" rx="4.19"/><rect class="cls-4" x="4.25" y="14.84" width="8.38" height="17.46" rx="4.19"/><rect class="cls-4" x="7.83" y="45.74" width="10.95" height="19.38" rx="5.47"/><path class="cls-4" d="M18.78,76.93V450h-11V76.93a5.48,5.48,0,1,1,11,0Z"/><path class="cls-5" d="M70,7V28.58a7,7,0,0,1-7,7H26.11V0H63A7,7,0,0,1,70,7Z"/></svg>