<?xml version="1.0" encoding="UTF-8" standalone="no"?>
<!-- Created with Inkscape (http://www.inkscape.org/) -->

<svg
   width="50"
   height="50"
   viewBox="0 0 13.229166 13.229167"
   version="1.1"
   id="svg38530"
   inkscape:version="1.2 (dc2aedaf03, 2022-05-15)"
   sodipodi:docname="points.svg"
   xmlns:inkscape="http://www.inkscape.org/namespaces/inkscape"
   xmlns:sodipodi="http://sodipodi.sourceforge.net/DTD/sodipodi-0.dtd"
   xmlns:xlink="http://www.w3.org/1999/xlink"
   xmlns="http://www.w3.org/2000/svg"
   xmlns:svg="http://www.w3.org/2000/svg">
  <sodipodi:namedview
     id="namedview38532"
     pagecolor="#505050"
     bordercolor="#ffffff"
     borderopacity="1"
     inkscape:showpageshadow="0"
     inkscape:pageopacity="0"
     inkscape:pagecheckerboard="1"
     inkscape:deskcolor="#505050"
     inkscape:document-units="mm"
     showgrid="false"
     inkscape:zoom="5.068455"
     inkscape:cx="43.603031"
     inkscape:cy="20.321775"
     inkscape:window-width="1366"
     inkscape:window-height="705"
     inkscape:window-x="-8"
     inkscape:window-y="-8"
     inkscape:window-maximized="1"
     inkscape:current-layer="layer1" />
  <defs
     id="defs38527">
    <inkscape:path-effect
       effect="fillet_chamfer"
       id="path-effect47640"
       is_visible="true"
       lpeversion="1"
       nodesatellites_param="F,0,0,1,0,10.583333,0,1 @ F,0,0,1,0,10.583333,0,1 @ F,0,0,1,0,10.583333,0,1 @ F,0,0,1,0,10.583333,0,1 @ F,0,0,1,0,10.583333,0,1 @ F,0,0,1,0,10.583333,0,1 @ F,0,0,1,0,10.583333,0,1 @ F,0,0,1,0,10.583333,0,1 @ F,0,0,1,0,10.583333,0,1 @ F,0,0,1,0,10.583333,0,1"
       unit="px"
       method="auto"
       mode="F"
       radius="40"
       chamfer_steps="1"
       flexible="false"
       use_knot_distance="true"
       apply_no_radius="true"
       apply_with_radius="true"
       only_selected="false"
       hide_knots="false" />
    <linearGradient
       inkscape:collect="always"
       id="linearGradient43117">
      <stop
         style="stop-color:#001e5a;stop-opacity:0;"
         offset="0"
         id="stop43115" />
      <stop
         style="stop-color:#001e5a;stop-opacity:1;"
         offset="1"
         id="stop43113" />
    </linearGradient>
    <linearGradient
       inkscape:collect="always"
       id="linearGradient42762">
      <stop
         style="stop-color:#2eff6d;stop-opacity:1;"
         offset="0"
         id="stop42760" />
      <stop
         style="stop-color:#54ffa2;stop-opacity:1;"
         offset="1"
         id="stop42758" />
    </linearGradient>
    <inkscape:path-effect
       effect="fillet_chamfer"
       id="path-effect41567"
       is_visible="true"
       lpeversion="1"
       nodesatellites_param="F,0,0,1,0,0,0,1 @ F,0,0,1,0,0,0,1 @ F,0,0,1,0,0,0,1 @ F,0,0,1,0,4.1348041,0,1 @ F,0,0,1,0,4.1311733,0,1 @ F,0,0,1,0,0,0,1"
       unit="px"
       method="auto"
       mode="F"
       radius="0"
       chamfer_steps="1"
       flexible="false"
       use_knot_distance="true"
       apply_no_radius="true"
       apply_with_radius="true"
       only_selected="false"
       hide_knots="false" />
    <inkscape:path-effect
       effect="fillet_chamfer"
       id="path-effect41498"
       is_visible="true"
       lpeversion="1"
       nodesatellites_param="F,0,0,1,0,10.583333,0,1 @ F,0,0,1,0,10.583333,0,1 @ F,0,0,1,0,10.583333,0,1 @ F,0,0,1,0,10.583333,0,1 @ F,0,0,1,0,10.583333,0,1 @ F,0,0,1,0,10.583333,0,1 @ F,0,0,1,0,10.583333,0,1 @ F,0,0,1,0,10.583333,0,1 @ F,0,0,1,0,10.583333,0,1 @ F,0,0,1,0,10.583333,0,1"
       unit="px"
       method="auto"
       mode="F"
       radius="40"
       chamfer_steps="1"
       flexible="false"
       use_knot_distance="true"
       apply_no_radius="true"
       apply_with_radius="true"
       only_selected="false"
       hide_knots="false" />
    <clipPath
       clipPathUnits="userSpaceOnUse"
       id="clipPath41683">
      <circle
         style="fill:#00ff73;fill-opacity:1;fill-rule:evenodd;stroke-width:0.264583"
         id="circle41685"
         cx="105"
         cy="148.5"
         r="46.147408" />
    </clipPath>
    <clipPath
       clipPathUnits="userSpaceOnUse"
       id="clipPath42003">
      <circle
         style="fill:#00ff73;fill-opacity:1;fill-rule:evenodd;stroke-width:0.264583"
         id="circle42005"
         cx="105"
         cy="148.5"
         r="46.147408" />
    </clipPath>
    <linearGradient
       inkscape:collect="always"
       xlink:href="#linearGradient42762"
       id="linearGradient42764"
       x1="154.33672"
       y1="180.96461"
       x2="81.444"
       y2="105.05472"
       gradientUnits="userSpaceOnUse" />
    <linearGradient
       inkscape:collect="always"
       xlink:href="#linearGradient43117"
       id="linearGradient43119"
       x1="67.937325"
       y1="173.4249"
       x2="133.71918"
       y2="173.4249"
       gradientUnits="userSpaceOnUse" />
    <clipPath
       clipPathUnits="userSpaceOnUse"
       id="clipPath47642">
      <path
         sodipodi:type="star"
         style="opacity:1;fill:#00823b;fill-opacity:1;stroke:#4bff95;stroke-width:8.78724;stroke-linecap:round;stroke-linejoin:round;stroke-miterlimit:9.4;stroke-dasharray:none;stroke-opacity:1;paint-order:stroke fill markers"
         id="path47644"
         inkscape:flatsided="false"
         sodipodi:sides="5"
         sodipodi:cx="-71.587654"
         sodipodi:cy="137.8506"
         sodipodi:r1="84.678024"
         sodipodi:r2="42.339016"
         sodipodi:arg1="1.0471976"
         sodipodi:arg2="1.6755161"
         inkscape:rounded="-1.3010426e-16"
         inkscape:randomized="0"
         d="m -38.050181,205.30686 -29.161571,-19.47211 a 20.130699,20.130699 6.0000034 0 0 -18.632647,-1.95838 l -32.572801,12.98357 a 5.2231879,5.2231879 42.000003 0 1 -6.96152,-6.26818 l 9.50766,-33.75151 a 20.130699,20.130699 78.000003 0 0 -3.89528,-18.32587 L -142.18,111.54794 a 5.2231879,5.2231879 114 0 1 3.81017,-8.55776 l 35.03762,-1.38748 a 20.130699,20.130699 150 0 0 16.225234,-9.367636 l 18.720404,-29.649738 a 5.2231879,5.2231879 6.0000034 0 1 9.316325,0.979186 l 12.146786,32.89401 a 20.130699,20.130699 42.000003 0 0 13.923027,12.536348 l 33.98349909,8.64189 a 5.2231879,5.2231879 78.000003 0 1 1.94764171,9.16294 l -27.5304988,21.71709 a 20.130699,20.130699 114 0 0 -7.620327,17.11553 l 2.282554,34.99072 a 5.2231879,5.2231879 150 0 1 -8.112616,4.68382 z"
         inkscape:transform-center-x="-0.0097900714"
         inkscape:transform-center-y="-3.197593"
         transform="matrix(0.39446428,-0.04108359,0.04108359,0.39446428,127.56695,93.933708)"
         inkscape:path-effect="#path-effect47640" />
    </clipPath>
  </defs>
  <g
     inkscape:label="Layer 1"
     inkscape:groupmode="layer"
     id="layer1">
    <g
       id="g47686"
       transform="matrix(0.10937977,0,0,0.10937977,-4.8788335,-9.1677338)">
      <circle
         style="fill:url(#linearGradient42764);fill-opacity:1;fill-rule:evenodd;stroke-width:0.264583"
         id="path39260"
         cx="105"
         cy="148.5"
         r="46.147408" />
      <path
         id="circle41500"
         style="opacity:0.594164;fill:#00906f;fill-rule:evenodd;stroke-width:0.264583"
         d="m 151.14741,148.5 c 0,25.4417 -20.59101,46.08398 -46.03263,46.14726 -25.441616,0.0633 -46.135055,-20.47632 -46.261617,-45.9177 -1.115974,-3.34792 27.488712,-3.94485 46.146837,15.05748 20.31479,20.68954 48.91982,-7.50872 46.14741,-15.28704 z"
         sodipodi:nodetypes="cscsc" />
      <path
         id="path41510"
         style="opacity:0.594164;fill:url(#linearGradient43119);fill-opacity:1;fill-rule:evenodd;stroke-width:0.212442"
         d="m 73.141789,154.26035 c -3.408859,-0.004 -5.459027,3.85413 -5.179012,4.69418 0.10162,20.42763 16.717197,33.68555 37.145023,33.63475 10.97702,-0.0273 20.8291,-4.82594 27.59582,-12.42977 1.51732,-1.70503 1.27389,-4.55488 -0.32722,-6.18314 l -0.14515,-0.14762 c -1.5997,-1.62683 -4.52697,-2.0447 -6.68049,-1.2975 -6.57002,2.27958 -14.0744,1.85995 -20.53546,-4.7203 C 94.715749,157.3214 80.641277,154.26962 73.141789,154.26035 Z"
         sodipodi:nodetypes="scsccss"
         inkscape:path-effect="#path-effect41567"
         inkscape:original-d="m 73.141789,154.26035 c -3.408859,-0.004 -5.459027,3.85413 -5.179012,4.69418 0.10162,20.42763 16.717197,33.68555 37.145023,33.63475 12.46192,-0.031 23.47396,-6.21151 30.16766,-15.66468 l -5.94072,-6.04149 c -7.3358,3.8518 -16.57676,4.81335 -24.31944,-3.07216 C 94.715749,157.3214 80.641277,154.26962 73.141789,154.26035 Z" />
      <path
         sodipodi:type="star"
         style="opacity:1;fill:#00823b;fill-opacity:1;stroke:#4bff95;stroke-width:8.78724;stroke-linecap:round;stroke-linejoin:round;stroke-miterlimit:9.4;stroke-dasharray:none;stroke-opacity:1;paint-order:stroke fill markers"
         id="path41496"
         inkscape:flatsided="false"
         sodipodi:sides="5"
         sodipodi:cx="-71.587654"
         sodipodi:cy="137.8506"
         sodipodi:r1="84.678024"
         sodipodi:r2="42.339016"
         sodipodi:arg1="1.0471976"
         sodipodi:arg2="1.6755161"
         inkscape:rounded="-1.3010426e-16"
         inkscape:randomized="0"
         d="m -38.050181,205.30686 -29.161571,-19.47211 a 20.130699,20.130699 6.0000034 0 0 -18.632647,-1.95838 l -32.572801,12.98357 a 5.2231879,5.2231879 42.000003 0 1 -6.96152,-6.26818 l 9.50766,-33.75151 a 20.130699,20.130699 78.000003 0 0 -3.89528,-18.32587 L -142.18,111.54794 a 5.2231879,5.2231879 114 0 1 3.81017,-8.55776 l 35.03762,-1.38748 a 20.130699,20.130699 150 0 0 16.225234,-9.367636 l 18.720404,-29.649738 a 5.2231879,5.2231879 6.0000034 0 1 9.316325,0.979186 l 12.146786,32.89401 a 20.130699,20.130699 42.000003 0 0 13.923027,12.536348 l 33.98349909,8.64189 a 5.2231879,5.2231879 78.000003 0 1 1.94764171,9.16294 l -27.5304988,21.71709 a 20.130699,20.130699 114 0 0 -7.620327,17.11553 l 2.282554,34.99072 a 5.2231879,5.2231879 150 0 1 -8.112616,4.68382 z"
         inkscape:transform-center-x="-0.0097900714"
         inkscape:transform-center-y="-3.197593"
         transform="matrix(0.39446427,-0.04108359,0.04108359,0.39446427,127.56695,93.933708)"
         inkscape:path-effect="#path-effect41498" />
      <path
         id="rect41678"
         style="opacity:0.275862;fill:#ceffe4;stroke-width:1.223;stroke-linecap:round;stroke-linejoin:round;stroke-miterlimit:9.4;paint-order:stroke fill markers"
         d="m 53.187126,158.51216 c 38.286332,40.31377 70.548344,32.98069 99.567564,0 v 47.4885 H 53.187126 Z"
         sodipodi:nodetypes="ccccc"
         clip-path="url(#clipPath41683)" />
      <path
         id="rect41739"
         style="opacity:0.769231;fill:#ffe9e9;stroke-width:1.50158;stroke-linecap:round;stroke-linejoin:round;stroke-miterlimit:9.4;paint-order:stroke fill markers"
         d="m 36.281022,121.65226 64.554958,-45.258774 19.01206,27.117894 c -36.147935,0.88693 -51.582494,21.87801 -64.554964,45.25877 z"
         sodipodi:nodetypes="ccccc"
         clip-path="url(#clipPath42003)" />
      <path
         sodipodi:type="star"
         style="fill:#ffffff;fill-opacity:1;stroke:none;stroke-width:0.2;stroke-linecap:square;stroke-miterlimit:9.4;paint-order:stroke fill markers"
         id="path42701"
         inkscape:flatsided="false"
         sodipodi:sides="4"
         sodipodi:cx="-77"
         sodipodi:cy="-57"
         sodipodi:r1="57.107353"
         sodipodi:r2="17.132206"
         sodipodi:arg1="1.5707963"
         sodipodi:arg2="2.3561945"
         inkscape:rounded="-0.06"
         inkscape:randomized="0"
         d="m -76.999998,0.10735321 c 2.795723,3e-8 -14.091177,-46.96992921 -12.114301,-44.99305421 1.976875,1.976875 -44.993051,-14.910021 -44.993051,-12.114297 0,2.795723 46.969926,-14.091177 44.993051,-12.114301 -1.976875,1.976875 14.910021,-44.993051 12.114297,-44.993051 -2.795723,0 14.091177,46.969926 12.114301,44.993051 -1.976875,-1.976875 44.993054,14.910021 44.993054,12.114297 0,-2.795723 -46.969929,14.091177 -44.993054,12.114301 1.976875,-1.976875 -14.910021,44.99305418 -12.114297,44.99305421 z"
         transform="matrix(0.41914643,0,0,0.47234477,115.11418,137.81828)" />
      <path
         sodipodi:type="star"
         style="fill:#ffffff;fill-opacity:1;stroke:none;stroke-width:0.2;stroke-linecap:square;stroke-miterlimit:9.4;paint-order:stroke fill markers"
         id="path44809"
         inkscape:flatsided="false"
         sodipodi:sides="4"
         sodipodi:cx="-77"
         sodipodi:cy="-57"
         sodipodi:r1="57.107353"
         sodipodi:r2="17.132206"
         sodipodi:arg1="1.5707963"
         sodipodi:arg2="2.3561945"
         inkscape:rounded="-0.06"
         inkscape:randomized="0"
         d="m -76.999998,0.10735321 c 2.795723,3e-8 -14.091177,-46.96992921 -12.114301,-44.99305421 1.976875,1.976875 -44.993051,-14.910021 -44.993051,-12.114297 0,2.795723 46.969926,-14.091177 44.993051,-12.114301 -1.976875,1.976875 14.910021,-44.993051 12.114297,-44.993051 -2.795723,0 14.091177,46.969926 12.114301,44.993051 -1.976875,-1.976875 44.993054,14.910021 44.993054,12.114297 0,-2.795723 -46.969929,14.091177 -44.993054,12.114301 1.976875,-1.976875 -14.910021,44.99305418 -12.114297,44.99305421 z"
         transform="matrix(0.23787484,0,0,0.26806607,141.39776,204.62931)" />
      <path
         id="rect46663"
         style="opacity:0.769231;fill:#005332;stroke-width:3.48501;stroke-linecap:round;stroke-linejoin:round;stroke-miterlimit:9.4;paint-order:stroke fill markers"
         d="m 60.344814,153.28464 c 29.323948,6.01007 58.182226,6.89775 86.332736,0 V 180.1535 H 60.344814 Z"
         sodipodi:nodetypes="ccccc"
         clip-path="url(#clipPath47642)" />
    </g>
  </g>
</svg>
