<svg id="Layer_1" data-name="Layer 1" xmlns="http://www.w3.org/2000/svg" viewBox="0 0 300 345"><g id="assets"><g id="cheeks"><ellipse cx="125.02" cy="212.08" rx="5.64" ry="3.87" fill="#cd8e2a"/><ellipse cx="145.11" cy="202.38" rx="5.64" ry="3.87" fill="#cd8e2a"/><ellipse cx="171.32" cy="212.94" rx="5.64" ry="3.87" fill="#cd8e2a"/><ellipse cx="185.11" cy="222.49" rx="4.47" ry="3.87" fill="#cd8e2a"/><ellipse cx="197.36" cy="218.62" rx="3.27" ry="2.83" fill="#cd8e2a"/><ellipse cx="188.62" cy="209.88" rx="2.66" ry="2.3" fill="#cd8e2a"/><ellipse cx="117.7" cy="203.62" rx="2.66" ry="2.3" fill="#cd8e2a"/><ellipse cx="85.7" cy="232.68" rx="2.66" ry="2.3" fill="#cd8e2a"/><ellipse cx="210.68" cy="232.68" rx="2.66" ry="2.3" fill="#cd8e2a"/><ellipse cx="137.96" cy="214.53" rx="2.67" ry="2.3" fill="#cd8e2a"/><ellipse cx="113.64" cy="223.53" rx="3.27" ry="2.83" fill="#cd8e2a"/><ellipse cx="160.04" cy="205.21" rx="3.27" ry="2.83" fill="#cd8e2a"/><ellipse cx="198.99" cy="228.7" rx="3.27" ry="2.83" fill="#cd8e2a"/><ellipse cx="104.72" cy="215.95" rx="3.27" ry="2.83" fill="#cd8e2a"/><ellipse cx="97.03" cy="227.55" rx="3.27" ry="2.83" fill="#cd8e2a"/></g></g></svg>