<svg id="Layer_1" data-name="Layer 1" xmlns="http://www.w3.org/2000/svg" xmlns:xlink="http://www.w3.org/1999/xlink" viewBox="0 0 300 345"><defs><linearGradient id="linear-gradient" x1="149.98" y1="355.74" x2="149.98" y2="167.31" gradientUnits="userSpaceOnUse"><stop offset="0.07" stop-color="#416eb5"/><stop offset="0.54" stop-color="#032557"/></linearGradient></defs><g id="assets"><g id="clothing"><path d="M263.6,298.39H203.33l-38.88,21.78a28.48,28.48,0,0,1-27.88,0L97.69,298.39H36.36A36.38,36.38,0,0,1,0,262v46.61A36.38,36.38,0,0,0,36.36,345H263.6A36.38,36.38,0,0,0,300,308.62V262A36.38,36.38,0,0,1,263.6,298.39Z" fill="url(#linear-gradient)"/><path d="M263.6,298.39H203.33l-38.88,21.78a28.48,28.48,0,0,1-27.88,0L97.69,298.39H36.36A36.38,36.38,0,0,1,0,262v9.6A36.38,36.38,0,0,0,36.36,308H97.69l38.88,21.78a28.53,28.53,0,0,0,27.88,0L203.33,308H263.6A36.38,36.38,0,0,0,300,271.61V262A36.38,36.38,0,0,1,263.6,298.39Z" fill="#032557"/><path d="M92.38,334a3.15,3.15,0,0,0-1.44-2.64l.29-2.95,1.93-19.72a3.8,3.8,0,1,0-7.57-.75l-1.94,19.73-.29,2.95a3.1,3.1,0,0,0-1.93,2.31l-1.14,6a3.12,3.12,0,0,0,2.76,3.7l5.85.57a3.12,3.12,0,0,0,3.43-3.09Z" fill="#032557" fill-opacity="0.5"/><circle cx="93.18" cy="307.29" r="7.38" fill="#032557"/><path d="M93.18,335.31a3.5,3.5,0,0,1-3.5-3.5V307.3a3.5,3.5,0,0,1,7,0v24.51A3.5,3.5,0,0,1,93.18,335.31Z" fill="#d9e5f4"/><path d="M96.68,325.52a2.74,2.74,0,0,0-1.31-.33H91a2.8,2.8,0,0,0-1.31.33v6.29a3.5,3.5,0,0,0,7,0Z" fill="#9cc6e9"/><path d="M95.88,339.27h-5.4a2.87,2.87,0,0,1-2.86-3.13l.51-5.61A2.88,2.88,0,0,1,91,327.91h4.38a2.87,2.87,0,0,1,2.86,2.62l.51,5.61A2.87,2.87,0,0,1,95.88,339.27Z" fill="#d9e5f4"/><path d="M207.62,334a3.15,3.15,0,0,1,1.44-2.64l-.29-2.95-1.93-19.72a3.8,3.8,0,1,1,7.57-.75l1.94,19.73.29,2.95a3.1,3.1,0,0,1,1.93,2.31l1.14,6a3.12,3.12,0,0,1-2.76,3.7l-5.85.57a3.12,3.12,0,0,1-3.43-3.09Z" fill="#032557" fill-opacity="0.5"/><circle cx="206.82" cy="307.29" r="7.38" fill="#032557"/><path d="M206.82,335.31a3.5,3.5,0,0,0,3.5-3.5V307.3a3.5,3.5,0,0,0-7,0v24.51A3.5,3.5,0,0,0,206.82,335.31Z" fill="#d9e5f4"/><path d="M203.32,325.52a2.74,2.74,0,0,1,1.31-.33H209a2.8,2.8,0,0,1,1.31.33v6.29a3.5,3.5,0,0,1-7,0Z" fill="#9cc6e9"/><path d="M204.12,339.27h5.4a2.87,2.87,0,0,0,2.86-3.13l-.51-5.61a2.88,2.88,0,0,0-2.86-2.62h-4.38a2.87,2.87,0,0,0-2.86,2.62l-.51,5.61A2.87,2.87,0,0,0,204.12,339.27Z" fill="#d9e5f4"/></g></g></svg>