<svg id="Layer_1" data-name="Layer 1" xmlns="http://www.w3.org/2000/svg" viewBox="0 0 300 345"><g id="assets"><g id="clothing"><path d="M300,308.62V259.14h0V262a36.38,36.38,0,0,1-36.38,36.38H187.76L150,319.29l-37.76-20.9H36.38A36.37,36.37,0,0,1,0,262v46.6A36.38,36.38,0,0,0,36.38,345H263.62A36.38,36.38,0,0,0,300,308.62Z" fill="#d9e5f4"/><path d="M174.4,301.1l-13.25,8.58c-2.8-2.09-6.76-2.81-11.15-2.81s-8.23.82-11,2.9l-13.39-8.67A10.84,10.84,0,0,0,110.21,311v17.51a10.84,10.84,0,0,0,15.38,9.85L139,329.64c2.79,2.08,6.69,2.9,11,2.9s8.35-.72,11.15-2.81l13.25,8.58a10.85,10.85,0,0,0,15.39-9.85V311A10.85,10.85,0,0,0,174.4,301.1Z" fill="#9cc6e9"/><line x1="150" y1="317.42" x2="150" y2="345" fill="none" stroke="#7da1d4" stroke-miterlimit="10" stroke-width="3"/><path d="M174.4,294.32,150,310.12l-24.41-15.8a10.84,10.84,0,0,0-15.38,9.85v17.51a10.84,10.84,0,0,0,15.38,9.85L150,315.73l24.4,15.8a10.85,10.85,0,0,0,15.39-9.85V304.17A10.85,10.85,0,0,0,174.4,294.32Z" fill="#141319"/><ellipse cx="150" cy="312.93" rx="15.37" ry="12.83" fill="#2f2c38"/><path d="M36.38,298.39A36.38,36.38,0,0,1,0,262v46.61A36.38,36.38,0,0,0,36.38,345h73.28L61,298.39Z" fill="#141319"/><path d="M263.62,298.39H238.56L189.88,345h73.74A36.38,36.38,0,0,0,300,308.62V262A36.38,36.38,0,0,1,263.62,298.39Z" fill="#141319"/><path d="M62.05,298.39H36.78l15.37,14.72a11.66,11.66,0,0,0,8.46,3.23l8-.28-.9,2.75a11.66,11.66,0,0,0,3,12L85.46,345h25.28Z" fill="#2f2c38"/><path d="M238,298.39h25.27l-15.37,14.72a11.66,11.66,0,0,1-8.46,3.23l-7.95-.28.9,2.75a11.66,11.66,0,0,1-3,12L214.54,345H189.26Z" fill="#2f2c38"/></g></g></svg>