<svg id="Layer_1" data-name="Layer 1" xmlns="http://www.w3.org/2000/svg" viewBox="0 0 300 345"><g id="assets"><g id="eyes"><path d="M260.58,157.68A41.42,41.42,0,0,1,202,216.25c-16.18-16.17-1.55-27.77,14.63-43.94S244.4,141.5,260.58,157.68Z" fill="#fabc2e"/><path d="M98,216.25a41.42,41.42,0,0,1-58.57-58.57c16.18-16.18,27.77-1.55,43.94,14.63S114.17,200.08,98,216.25Z" fill="#fabc2e"/><path d="M268.71,165.81a41.42,41.42,0,0,1-58.57,58.57c-16.18-16.17-1.27-27.49,14.91-43.66S252.54,149.63,268.71,165.81Z" fill="#fff"/><path d="M89.86,224.38a41.42,41.42,0,0,1-58.57-58.57c16.17-16.18,27.49-1.27,43.66,14.91S106,208.21,89.86,224.38Z" fill="#fff"/><path d="M80.42,198a13.21,13.21,0,0,1-19.19-17.91,24.68,24.68,0,0,0-3.23-.23A22.9,22.9,0,1,0,80.42,198ZM48.37,217.72a5.46,5.46,0,1,1,5.45-5.45A5.45,5.45,0,0,1,48.37,217.72Z" fill="#141319"/><path d="M264.4,197.83a13.22,13.22,0,0,1-19.08-17.76,22.66,22.66,0,0,0-3.32-.25,22.93,22.93,0,1,0,22.93,22.93A23.47,23.47,0,0,0,264.4,197.83Zm-32.22,19.89a5.46,5.46,0,1,1,5.45-5.45A5.45,5.45,0,0,1,232.18,217.72Z" fill="#141319"/></g></g></svg>