<svg id="Layer_1" data-name="Layer 1" xmlns="http://www.w3.org/2000/svg" viewBox="0 0 300 345"><g id="assets"><g id="eyes"><path d="M279,189.94c0,20.13-16.32,27.32-36.45,27.32s-36.45-7.19-36.45-27.32a36.45,36.45,0,1,1,72.9,0Z" fill="#fabc2e"/><path d="M93.87,189.94c0,20.13-16.32,24.59-36.45,24.59S21,210.07,21,189.94a36.45,36.45,0,0,1,72.9,0Z" fill="#fabc2e"/><path d="M279,200.06c0,20.13-16.32,24.43-36.45,24.43s-36.45-4.3-36.45-24.43a36.45,36.45,0,1,1,72.9,0Z" fill="#fff"/><path d="M93.87,200.06c0,20.13-16.32,24.43-36.45,24.43S21,220.19,21,200.06a36.45,36.45,0,0,1,72.9,0Z" fill="#fff"/><path d="M70.84,194.48a13.21,13.21,0,0,1-19.19-17.9,22.94,22.94,0,1,0,19.19,17.9Zm-32,19.76a5.45,5.45,0,1,1,5.45-5.45A5.45,5.45,0,0,1,38.8,214.24Z" fill="#141319"/><path d="M273.75,185.71a13.22,13.22,0,0,1-19.08-17.77,24.13,24.13,0,0,0-3.32-.24,22.93,22.93,0,1,0,22.93,22.93A23.4,23.4,0,0,0,273.75,185.71ZM241.53,205.6a5.46,5.46,0,1,1,5.45-5.46A5.47,5.47,0,0,1,241.53,205.6Z" fill="#141319"/><path d="M212.22,225.26s24.3-19.47,61.58-.77" fill="#ffcc05"/><path d="M212.22,225.26a35.3,35.3,0,0,1,14.05-8.67,48.87,48.87,0,0,1,16.54-2.7,55.47,55.47,0,0,1,8.35.85c1.37.29,2.76.47,4.1.85s2.66.82,4,1.24c.66.22,1.32.41,2,.67l1.9.84q1.89.85,3.75,1.74a76.19,76.19,0,0,1,6.94,4.41c-2.71-.58-5.25-1.45-7.83-2.12-1.31-.29-2.61-.59-3.89-.91l-1.92-.49c-.64-.14-1.3-.22-1.94-.34-1.3-.23-2.59-.46-3.86-.72s-2.59-.31-3.88-.48l-1.93-.24c-.64-.09-1.29-.07-1.94-.11-1.29-.05-2.58-.16-3.87-.19a74.11,74.11,0,0,0-15.41,1.47A67.28,67.28,0,0,0,212.22,225.26Z" fill="#fabc2e"/><path d="M26.2,225.26s24.3-19.47,61.58-.77" fill="#ffcc05"/><path d="M26.2,225.26a35.3,35.3,0,0,1,14.05-8.67,48.85,48.85,0,0,1,16.53-2.7,55.6,55.6,0,0,1,8.36.85c1.37.29,2.75.47,4.09.85s2.67.82,4,1.24c.66.22,1.32.41,2,.67l1.9.84q1.9.85,3.75,1.74a76.35,76.35,0,0,1,7,4.41c-2.71-.58-5.25-1.45-7.84-2.12-1.31-.29-2.6-.59-3.88-.91L74.14,221c-.64-.14-1.3-.22-2-.34-1.29-.23-2.58-.46-3.86-.72s-2.58-.31-3.87-.48l-1.93-.24c-.64-.09-1.29-.07-1.94-.11-1.29-.05-2.58-.16-3.87-.19a74.11,74.11,0,0,0-15.41,1.47A67.12,67.12,0,0,0,26.2,225.26Z" fill="#fabc2e"/></g></g></svg>