<svg id="Layer_1" data-name="Layer 1" xmlns="http://www.w3.org/2000/svg" viewBox="0 0 300 345"><g id="assets"><g id="glasses"><path d="M21.16,172.77H121.6a10.31,10.31,0,0,1,10.31,10.31V207.4a28.18,28.18,0,0,1-28.18,28.18H39A28.18,28.18,0,0,1,10.85,207.4V183.08A10.31,10.31,0,0,1,21.16,172.77Z" fill="#d9e5f4" fill-opacity="0.5" stroke="#141319" stroke-miterlimit="10" stroke-width="9"/><path d="M178.4,172.77H278.84a10.31,10.31,0,0,1,10.31,10.31V207.4A28.18,28.18,0,0,1,261,235.57H196.27a28.18,28.18,0,0,1-28.18-28.18V183.08A10.31,10.31,0,0,1,178.4,172.77Z" fill="#d9e5f4" fill-opacity="0.5" stroke="#141319" stroke-miterlimit="10" stroke-width="9"/><line x1="131.91" y1="186.86" x2="168.09" y2="186.86" fill="none" stroke="#141319" stroke-miterlimit="10" stroke-width="9"/></g></g></svg>