<svg id="Layer_1" data-name="Layer 1" xmlns="http://www.w3.org/2000/svg" viewBox="0 0 300 345"><g id="assets"><g id="glasses"><rect x="192.99" y="182.7" width="86.04" height="44.75" rx="8.89" fill="#00bff2" opacity="0.7"/><rect x="20.97" y="182.7" width="86.04" height="44.75" rx="8.89" fill="#d62027" opacity="0.7"/><path d="M279.94,171.07H20.06A11.1,11.1,0,0,0,9,182.18V228a11.11,11.11,0,0,0,11.11,11.12h92.43a9.14,9.14,0,0,0,9.14-9.14c0-26.79,7.73-26.79,17.27-26.79h22.2c9.54,0,17.27-.26,17.27,26.79a9.14,9.14,0,0,0,9.14,9.14h92.43A11.11,11.11,0,0,0,291.05,228V182.18A11.1,11.1,0,0,0,279.94,171.07ZM107,218.56a8.89,8.89,0,0,1-8.89,8.89H29.85A8.88,8.88,0,0,1,21,218.56v-27a8.88,8.88,0,0,1,8.88-8.89H98.12a8.89,8.89,0,0,1,8.89,8.89Zm172,0a8.88,8.88,0,0,1-8.88,8.89H201.88a8.89,8.89,0,0,1-8.89-8.89v-27a8.89,8.89,0,0,1,8.89-8.89h68.27a8.88,8.88,0,0,1,8.88,8.89Z" fill="#ebf7fd"/></g></g></svg>