<svg id="Layer_1" data-name="Layer 1" xmlns="http://www.w3.org/2000/svg" viewBox="0 0 300 345"><g id="assets"><g id="glasses"><path d="M123.31,173.87c0,36-14.19,65.26-58.31,65.26S6.7,209.91,6.7,173.87c0-18,29.15-22.38,58.3-22.38S123.31,155.84,123.31,173.87Z" fill="#141319" stroke="#141319" stroke-miterlimit="10" stroke-width="7"/><path d="M293.3,173.87c0,36-14.19,65.26-58.3,65.26s-58.31-29.22-58.31-65.26c0-18,29.15-22.38,58.31-22.38S293.3,155.84,293.3,173.87Z" fill="#141319" stroke="#141319" stroke-miterlimit="10" stroke-width="7"/><path d="M187,196.33h0a245.83,245.83,0,0,0-74.06,0h0V174h0A245.83,245.83,0,0,1,187,174h0Z" fill="#141319"/><path d="M266.59,153.89,230,239c1.64.08,3.31.14,5.05.14a83.5,83.5,0,0,0,13.5-1l34.1-79.18A59.28,59.28,0,0,0,266.59,153.89Z" fill="#ebf7fd"/><path d="M244.92,151.68l-35.78,83.08a57.75,57.75,0,0,0,9.48,2.79l36.69-85.2C251.93,152,248.45,151.82,244.92,151.68Z" fill="#ebf7fd"/><path d="M97.52,154.07l-36.6,85c1.33,0,2.69.08,4.08.08a82.39,82.39,0,0,0,14.58-1.22l33.83-78.57A55.59,55.59,0,0,0,97.52,154.07Z" fill="#ebf7fd"/><path d="M75.91,151.72,40,235.1a59.8,59.8,0,0,0,9.54,2.64l36.74-85.29C82.91,152.11,79.44,151.87,75.91,151.72Z" fill="#ebf7fd"/></g></g></svg>