<svg id="Layer_1" data-name="Layer 1" xmlns="http://www.w3.org/2000/svg" viewBox="0 0 300 345"><g id="assets"><g id="hair"><polygon points="300 67.31 300 56.06 300 56.06 281.25 56.65 262.5 31.01 262.49 31.01 262.49 31.01 243.74 46.19 225.01 26.41 224.99 26.42 224.98 26.41 206.25 41.59 187.51 26.41 187.5 26.42 187.48 26.41 168.75 36.85 150.02 21.67 150 21.68 149.98 21.67 131.25 36.85 112.52 26.41 112.5 26.42 112.48 26.41 93.75 41.59 75.02 26.41 75.01 26.42 74.99 26.41 56.26 46.19 37.51 31.01 37.51 31.01 37.5 31.01 18.75 56.65 0 56.06 0 56.06 0 67.31 0 159.57 0 147.06 27.1 151.91 19.91 129.95 37.51 107.74 56.25 122.93 56.26 122.92 56.27 122.93 75.01 103.16 93.74 118.33 93.75 118.32 93.77 118.33 112.5 103.15 131.24 113.59 131.25 113.58 131.27 113.59 150 98.41 168.73 113.59 168.75 113.58 168.76 113.59 187.5 103.15 206.23 118.33 206.25 118.32 206.26 118.33 224.99 103.16 243.73 122.93 243.74 122.92 243.75 122.93 262.49 107.74 280.09 129.95 272.9 151.91 300 147.06 300 148.32 300 159.57 300 67.31" fill="#fabc2e"/><polygon points="300 45 300 45 300 45 281.25 45.59 262.5 19.94 262.49 19.95 262.49 19.94 243.74 35.13 225.01 15.35 224.99 15.36 224.98 15.35 206.25 30.53 187.51 15.35 187.5 15.36 187.48 15.35 168.75 25.79 150.02 10.61 150 10.62 149.98 10.61 131.25 25.79 112.52 15.35 112.5 15.36 112.48 15.35 93.75 30.53 75.02 15.35 75.01 15.36 74.99 15.35 56.26 35.13 37.51 19.94 37.51 19.95 37.5 19.94 18.75 45.59 0 45 0 45 0 45 0 148.5 0 148.5 0 148.5 19.11 153.35 11.45 118.89 37.51 96.68 56.25 111.86 56.26 111.86 56.27 111.86 75.01 92.09 93.74 107.27 93.75 107.26 93.77 107.27 112.5 92.09 131.24 102.53 131.25 102.52 131.27 102.53 150 87.35 168.73 102.53 168.75 102.52 168.76 102.53 187.5 92.09 206.23 107.27 206.25 107.26 206.26 107.27 224.99 92.09 243.73 111.86 243.74 111.86 243.75 111.86 262.49 96.68 288.55 118.89 280.89 153.35 300 148.5 300 148.5 300 148.5 300 45" fill="#3f1c12"/></g></g></svg>