<svg id="Layer_1" data-name="Layer 1" xmlns="http://www.w3.org/2000/svg" viewBox="0 0 300 345"><g id="assets"><g id="hair"><path d="M300,142.18V51.54A25,25,0,0,0,290,49.44a25.31,25.31,0,0,0-5.4.58A11.51,11.51,0,0,1,273,45.74a25.13,25.13,0,0,0-31.81-7A25.14,25.14,0,0,0,207.76,31c-6.15-5.33-15.23-8.71-25.36-8.71A43.54,43.54,0,0,0,170.17,24a42.81,42.81,0,0,0-40.38,0,43.29,43.29,0,0,0-26.31.62,52.7,52.7,0,0,1-21.79,3.07c-.65-.05-1.31-.08-2-.08a25,25,0,0,0-14.27,4.44c-4.21-5-7.31-11.74-5.14-20,0,0-12.79,10.55-13.85,23.78a25.09,25.09,0,0,0-19.37,9.88A11.54,11.54,0,0,1,15.45,50a25.31,25.31,0,0,0-5.4-.58,25,25,0,0,0-10,2.1v90.64a25.17,25.17,0,0,0,34.72-18.13,25.18,25.18,0,0,0,27.06-1.5,20.16,20.16,0,0,1,14.5-3.66,25.89,25.89,0,0,0,3.43.23,25.13,25.13,0,0,0,21.23-11.67A25.14,25.14,0,0,0,135.77,106a25.16,25.16,0,0,0,28.46,0,25.17,25.17,0,0,0,25.38,6.72,21.13,21.13,0,0,1,17.31,2.57,25.19,25.19,0,0,0,25.14.92,25.14,25.14,0,0,0,20.86,11.09c.77,0,1.53,0,2.28-.1-.23,4.88-1.95,10.27-7.55,13.55,0,0,14.86,1.43,21.39-7.64a25.17,25.17,0,0,0,31,9.08Z" fill="#fabc2e"/><path d="M300,133V42.35A25,25,0,0,0,290,40.25a25.31,25.31,0,0,0-5.4.58A11.49,11.49,0,0,1,273,36.54a25.14,25.14,0,0,0-31.81-7,25.14,25.14,0,0,0-33.39-7.75c-6.15-5.33-15.23-8.71-25.36-8.71a43.54,43.54,0,0,0-12.23,1.73,42.81,42.81,0,0,0-40.38,0,43.29,43.29,0,0,0-26.31.62A52.86,52.86,0,0,1,81.69,18.5c-.65-.05-1.31-.08-2-.08a25,25,0,0,0-14.27,4.44c-4.21-5-7.31-11.74-5.14-20,0,0-12.79,10.55-13.85,23.78a25.09,25.09,0,0,0-19.37,9.88,11.54,11.54,0,0,1-11.63,4.34,25.31,25.31,0,0,0-5.4-.58,25,25,0,0,0-10,2.1V133a25.17,25.17,0,0,0,34.72-18.13,25.18,25.18,0,0,0,27.06-1.5,20.11,20.11,0,0,1,14.5-3.66,25.89,25.89,0,0,0,3.43.23,25.13,25.13,0,0,0,21.23-11.67,25.14,25.14,0,0,0,34.83-1.46,25.16,25.16,0,0,0,28.46,0,25,25,0,0,0,18.17,7.77,25.29,25.29,0,0,0,7.21-1,21.06,21.06,0,0,1,17.31,2.57,25.19,25.19,0,0,0,25.14.92,25.14,25.14,0,0,0,20.86,11.09c.77,0,1.53,0,2.28-.1-.23,4.88-1.95,10.27-7.55,13.55,0,0,14.86,1.43,21.39-7.65A25.16,25.16,0,0,0,300,133Z" fill="#3f1c12"/></g></g></svg>