<svg id="Layer_1" data-name="Layer 1" xmlns="http://www.w3.org/2000/svg" viewBox="0 0 300 345"><g id="assets"><g id="hair"><path d="M263.62,43.18H36.38A36.38,36.38,0,0,0,0,79.56v80.52c84.81-.63,133.76-48.63,150-85.19,16.24,36.56,65.19,84.56,150,85.19V79.56A36.38,36.38,0,0,0,263.62,43.18Z" fill="#fabc2e"/><path d="M263.62,34.19H36.38A36.38,36.38,0,0,0,0,70.57v80.51c84.81-.62,133.76-48.62,150-85.18,16.24,36.56,65.19,84.56,150,85.18V70.57A36.38,36.38,0,0,0,263.62,34.19Z" fill="#3f1c12"/><path d="M204.85,45a55.94,55.94,0,0,0-109.7,0Z" fill="#3f1c12"/></g></g></svg>