<svg id="Layer_1" data-name="Layer 1" xmlns="http://www.w3.org/2000/svg" viewBox="0 0 300 345"><g id="assets"><g id="hair"><path d="M263.62,51.85H36.38A36.38,36.38,0,0,0,0,88.23V154c84.81-.62,165.49-1.7,212.27-66.15C231.19,147.88,284.21,154,300,154V88.23A36.38,36.38,0,0,0,263.62,51.85Z" fill="#fabc2e"/><polygon points="280.06 19.48 277.43 0 262.71 13.04 246.71 1.07 245.65 48.84 257.63 53.3 269.61 57.75 300 20.87 280.06 19.48" fill="#3f1c12"/><polygon points="19.94 19.48 22.57 0 37.29 13.04 53.3 1.07 54.35 48.84 42.37 53.3 30.39 57.75 0 20.87 19.94 19.48" fill="#3f1c12"/><path d="M263.62,41.66H36.38A36.38,36.38,0,0,0,0,78v65.77c84.81-.63,165.49-1.71,212.27-66.16,18.92,60,71.94,66.16,87.73,66.16V78A36.38,36.38,0,0,0,263.62,41.66Z" fill="#3f1c12"/></g></g></svg>