<svg id="Layer_1" data-name="Layer 1" xmlns="http://www.w3.org/2000/svg" viewBox="0 0 300 345"><g id="assets"><g id="hair"><path d="M300,84.49c0-20.09-15.34-33.66-36.38-36.38s-42.47,6.08-42.47,6.08C174,40.28,61.57,36.53,34.08,43.08,11.59,48.45,0,64.4,0,84.49v42.7s42.08,11.64,150,11.64c19.54,0,42.44.49,54.5,0,0,0,8.38-12.56,8.78-36.46,11.22,16,6.15,35.71,6.15,35.71,7.19-.42,22.68-1.71,28.26-2.21,0,0,3-4.68,2.46-16.69,7.34,4.6,6.36,15.82,6.36,15.82A361.76,361.76,0,0,0,300,127.19Z" fill="#fabc2e"/><path d="M282.89,96.05V221.42s-.38,24.51-21.19,24.51c0,13.17,20.79,21.49,33,17.76a36.31,36.31,0,0,0,1.1-8.91V96.05Z" fill="#fabc2e"/><path d="M287.11,103.29V228.65s-.38,24.51-21.19,24.51c0,13.17,34.08,24.6,34.08,8.85V103.29Z" fill="#3f1c12"/><path d="M17.11,96.05V221.42s.38,24.51,21.19,24.51c0,13.17-20.79,21.49-33,17.76a36.31,36.31,0,0,1-1.1-8.91V96.05Z" fill="#fabc2e"/><path d="M12.89,103.29V228.65s.38,24.51,21.19,24.51C34.08,266.33,0,277.76,0,262V103.29Z" fill="#3f1c12"/><path d="M300,76.06c0-20.09-15.34-33.65-36.38-36.38s-42.47,6.08-42.47,6.08C174,31.85,61.57,28.1,34.08,34.66,11.59,40,0,56,0,76.06v42.7S42.08,130.4,150,130.4c19.54,0,36.92-.38,52.29-1,0,0,10.69-16,11.2-46.49,14.3,20.43,7.83,45.54,7.83,45.54q13.76-.82,24.9-1.85s4-6.24,3.27-22.24c9.79,6.13,8.47,21.08,8.47,21.08,29.34-3.16,42-6.68,42-6.68Z" fill="#3f1c12"/></g></g></svg>