<svg id="Layer_1" data-name="Layer 1" xmlns="http://www.w3.org/2000/svg" viewBox="0 0 300 345"><g id="assets"><g id="hat"><path d="M139.33,0h21.34a24.88,24.88,0,0,1,24.88,24.88V45a0,0,0,0,1,0,0h-71.1a0,0,0,0,1,0,0V24.88A24.88,24.88,0,0,1,139.33,0Z" fill="#985b3c"/><path d="M185.55,27.87A342.94,342.94,0,0,1,150,29.51a342.94,342.94,0,0,1-35.55-1.64V45h71.1Z" fill="#d8a76c"/><path d="M202.16,51.58a6.75,6.75,0,0,1-5.65,6.66c-7.57,1.25-22.86,3.12-46.53,3.12s-38.93-1.87-46.49-3.12a6.74,6.74,0,0,1-5.65-6.65V48.07a6.75,6.75,0,0,1,7.78-6.67c8,1.21,22.44,2.74,44.38,2.74s36.37-1.53,44.38-2.74a6.75,6.75,0,0,1,7.78,6.67Z" fill="#985b3c"/></g></g></svg>