<svg id="Layer_1" data-name="Layer 1" xmlns="http://www.w3.org/2000/svg" viewBox="0 0 300 345"><g id="assets"><g id="hat"><path d="M263.62,30.79H36.38A36.38,36.38,0,0,0,0,67.17v52.59A36.38,36.38,0,0,1,36.38,83.38H263.62A36.38,36.38,0,0,1,300,119.76V67.17A36.38,36.38,0,0,0,263.62,30.79Z" fill="#a2704a"/><ellipse cx="259.13" cy="37.48" rx="29.79" ry="37.48" fill="#a2704a"/><ellipse cx="40.87" cy="37.48" rx="29.79" ry="37.48" fill="#a2704a"/><ellipse cx="73.42" cy="56.68" rx="8.4" ry="10.72" fill="#141319"/><ellipse cx="226.58" cy="56.68" rx="8.4" ry="10.72" fill="#141319"/><path d="M277.73,30.66c-1.78,6.73-22.71,1.2-20.94-5.52s6.28-11.37,13.68-9.42S279.5,23.94,277.73,30.66Z" fill="#f28cb5"/><path d="M22.27,30.66c1.78,6.73,22.71,1.2,20.94-5.52s-6.28-11.37-13.68-9.42S20.5,23.94,22.27,30.66Z" fill="#f28cb5"/><path d="M172.78,88.17c6.61-7.42,2.55-51.61-22.81-51.61S120.69,80.9,127.15,88.17,166.18,95.59,172.78,88.17Z" fill="#c58266"/><path d="M136.41,56.23c0,5.77,7.89,11.18,13.58,11.18s13.59-6.12,13.59-11.18S136.41,50.47,136.41,56.23Z" fill="#141319"/><polyline points="142.67 74.5 150 66.89 157.32 74.5" fill="none" stroke="#141319" stroke-linecap="round" stroke-miterlimit="10" stroke-width="7"/></g></g></svg>