<svg id="Layer_1" data-name="Layer 1" xmlns="http://www.w3.org/2000/svg" xmlns:xlink="http://www.w3.org/1999/xlink" viewBox="0 0 300 345"><defs><linearGradient id="linear-gradient" x1="53.02" y1="345.21" x2="53.02" y2="291.02" gradientTransform="translate(-72.07 20.81) rotate(-14.26)" gradientUnits="userSpaceOnUse"><stop offset="0.1" stop-color="#c88a4b"/><stop offset="0.3" stop-color="#af6e2f"/></linearGradient></defs><g id="assets"><g id="item"><path d="M34.16,341.28a12.1,12.1,0,0,1-11.73-9.13l-8-31.64a8.79,8.79,0,0,0-2.55-4.32,25.95,25.95,0,0,1,27.83-42.88,3.33,3.33,0,0,0,3.92-1A25.64,25.64,0,0,1,56,243.74a26.45,26.45,0,0,1,8.09-1.28A25.66,25.66,0,0,1,89.3,263.14a25.92,25.92,0,0,1-.79,13.56,8.81,8.81,0,0,0-.19,5l8.05,31.64a12.13,12.13,0,0,1-8.76,14.73L37.15,340.9a12.13,12.13,0,0,1-3,.38Z" fill="#e89f57"/><path d="M64.08,244.46a24,24,0,0,1,22.53,31.6,10.79,10.79,0,0,0-.22,6.14L93.71,311h0l.72,2.84a10.11,10.11,0,0,1-7.31,12.29L36.66,339a10.25,10.25,0,0,1-2.5.31,10.12,10.12,0,0,1-9.79-7.62l-.72-2.83h0L16.32,300a10.91,10.91,0,0,0-3.13-5.29,23.95,23.95,0,0,1,25.69-39.57,5.31,5.31,0,0,0,6.26-1.59,23.89,23.89,0,0,1,11.46-7.92,24.52,24.52,0,0,1,7.48-1.18m0-4a28.54,28.54,0,0,0-8.7,1.37A27.78,27.78,0,0,0,42,251.08a1.32,1.32,0,0,1-1,.5,1.23,1.23,0,0,1-.53-.11A28.14,28.14,0,0,0,5.53,262.65a28.11,28.11,0,0,0,4.94,35,7,7,0,0,1,2,3.35l7.32,28.81.72,2.83a14.08,14.08,0,0,0,17.15,10.2L88.11,330a14.13,14.13,0,0,0,10.2-17.15L97.59,310l-7.33-28.81a6.87,6.87,0,0,1,.14-3.89,28,28,0,0,0-26.32-36.87Z" fill="#56412d"/><path d="M87.12,326.14,36.66,339a10.12,10.12,0,0,1-12.29-7.31L21,318.33,91,300.52l3.39,13.33A10.11,10.11,0,0,1,87.12,326.14Z" fill="url(#linear-gradient)"/><path d="M33.46,333A6.63,6.63,0,0,1,27,328l-7.33-28.81a14.27,14.27,0,0,0-4.14-7,20.45,20.45,0,0,1,21.94-33.79,8.81,8.81,0,0,0,10.38-2.64A20.35,20.35,0,0,1,57.66,249a21.2,21.2,0,0,1,6.42-1,20.48,20.48,0,0,1,19.21,27,14.39,14.39,0,0,0-.3,8.12l7.33,28.82a6.64,6.64,0,0,1-4.8,8.06L35.11,332.76a6.61,6.61,0,0,1-1.65.21Z" fill="#e9b371"/><path d="M64.08,251.46A16.74,16.74,0,0,1,80.5,265a17,17,0,0,1-.52,8.84,17.81,17.81,0,0,0-.38,10.1l7.33,28.81a3.15,3.15,0,0,1-2.27,3.81L34.24,329.37a3.47,3.47,0,0,1-.78.1,3.14,3.14,0,0,1-3-2.37l-7.32-28.81A17.81,17.81,0,0,0,18,289.6a17,17,0,0,1,11.57-29.36,16.7,16.7,0,0,1,6.61,1.35,12.33,12.33,0,0,0,14.5-3.68,16.78,16.78,0,0,1,8.1-5.6,17.64,17.64,0,0,1,5.35-.85m0-7a24.52,24.52,0,0,0-7.48,1.18,23.89,23.89,0,0,0-11.46,7.92,5.31,5.31,0,0,1-6.26,1.59,23.95,23.95,0,0,0-25.69,39.57A10.91,10.91,0,0,1,16.32,300l7.33,28.81a10.14,10.14,0,0,0,9.81,7.65,10.35,10.35,0,0,0,2.51-.32l50.41-12.82A10.13,10.13,0,0,0,93.71,311L86.39,282.2a10.79,10.79,0,0,1,.22-6.14,24,24,0,0,0-22.53-31.6Z" fill="#c88a4b"/><path d="M54,319.2l-.09-.32a1.23,1.23,0,0,0-.57-.77l-3.88-2.31a1.23,1.23,0,0,1-.43-1.7l.1-.18.08-.12.32-.41a1.24,1.24,0,0,1,1.62-.32L54,314.8a1.28,1.28,0,0,0,.94.13l2-.5a1.24,1.24,0,0,0,.9-1.51l-.41-1.6a1.25,1.25,0,0,1,.75-1.46,1.25,1.25,0,0,0,.91.12l2-.5A1.26,1.26,0,0,0,62,308l-.54-2.12a1.25,1.25,0,0,0-.57-.76l-2.16-1.29a1.24,1.24,0,0,1-.44-1.7l.78-1.31a1.24,1.24,0,0,1,1.71-.44l6.73,4a1.31,1.31,0,0,0,1,.13l2.75-.7a1.24,1.24,0,0,0,.9-1.51l-.84-3.3a1.22,1.22,0,0,0-.57-.76l-11.6-6.9a1.25,1.25,0,0,1-.43-1.71l.29-.49a1.24,1.24,0,0,1,1.7-.43l2.1,1.25a1.27,1.27,0,0,0,1,.14l3.16-.81a1.24,1.24,0,0,0,.9-1.51l-.93-3.66a1.21,1.21,0,0,0-.57-.76l-6.14-3.65a1.25,1.25,0,0,1-.43-1.71h0a1.25,1.25,0,0,1,1.71-.44l1.48.89a1.19,1.19,0,0,0,.94.13l1.62-.41a1.24,1.24,0,0,0,.9-1.51l-.64-2.5a1.25,1.25,0,0,0-.57-.76l-5.42-3.23h0l-7.95-4.73a1.31,1.31,0,0,0-1-.13l-.19.05a1.24,1.24,0,0,0-.9,1.51l.08.32a1.29,1.29,0,0,0,.58.77l3.88,2.31a1.23,1.23,0,0,1,.43,1.7l-.1.18-.08.12-.32.41a1.26,1.26,0,0,1-1.63.32l-2.89-1.73a1.26,1.26,0,0,0-.95-.13l-2,.5a1.24,1.24,0,0,0-.9,1.51l.4,1.6-1.16,1.63-2.46.21a1.26,1.26,0,0,0-.9,1.52l.54,2.12a1.25,1.25,0,0,0,.57.76L45,282.25a1.24,1.24,0,0,1,.44,1.7l-.78,1.31a1.26,1.26,0,0,1-1.71.44l-6.73-4a1.31,1.31,0,0,0-1-.13l-2.75.7a1.24,1.24,0,0,0-.9,1.51l.84,3.3a1.22,1.22,0,0,0,.57.76l11.6,6.9a1.25,1.25,0,0,1,.43,1.71l-.29.49a1.24,1.24,0,0,1-1.7.43l-2.11-1.25A1.24,1.24,0,0,0,40,296l-3.16.81a1.24,1.24,0,0,0-.9,1.51l.93,3.66a1.21,1.21,0,0,0,.57.76l6.14,3.65a1.25,1.25,0,0,1-1.28,2.15l-1.48-.89a1.19,1.19,0,0,0-.94-.13l-1.62.41a1.24,1.24,0,0,0-.9,1.51l.64,2.5a1.21,1.21,0,0,0,.57.76L44,315.9h0l7.95,4.73a1.31,1.31,0,0,0,1,.13l.19-.05A1.24,1.24,0,0,0,54,319.2Z" fill="#e89f57"/></g></g></svg>