<svg id="Layer_1" data-name="Layer 1" xmlns="http://www.w3.org/2000/svg" viewBox="0 0 300 345"><g id="assets"><g id="item"><circle cx="49.11" cy="299.84" r="40.03" transform="translate(-111 41.62) rotate(-22.5)" fill="#f0613a"/><path d="M49.11,261.81a38,38,0,1,1-38,38,38,38,0,0,1,38-38m0-4a42,42,0,1,0,42,42,42.07,42.07,0,0,0-42-42Z" fill="#4c0000"/><path d="M54.31,293.32a82.71,82.71,0,0,1,19.46-1.54A106.85,106.85,0,0,1,86.52,293q-.31-1.72-.78-3.39a116.56,116.56,0,0,0-11.83-1.07,85.56,85.56,0,0,0-20.15,1.59c-7,1.22-11.4,2-17.23-2,10.56-13.24,21-20.24,31.81-21.1a37.23,37.23,0,0,0-5-2.47C53.3,266.9,43.7,274,34,286.13a11.65,11.65,0,0,1-4-8.22c-.21-4.69,2.2-9.53,4.8-13.33a37.84,37.84,0,0,0-5.33,2.66,22.39,22.39,0,0,0-2.69,10.81A14.94,14.94,0,0,0,32,288.68a77.72,77.72,0,0,0-4.48,6.66,47.52,47.52,0,0,1-11.7-13.95,35.65,35.65,0,0,0-1.72,3.51A54,54,0,0,0,26,298.17a55.52,55.52,0,0,0-2.61,5.66c-3.44-1.79-6.67-2.32-9.6-1.54a10.23,10.23,0,0,0-2.51,1c.11,1.21.28,2.41.5,3.58a7.38,7.38,0,0,1,2.83-1.51c2.24-.59,4.83-.08,7.7,1.51a34.52,34.52,0,0,0-1.37,15.43,32.63,32.63,0,0,0,.84,3.9A39.07,39.07,0,0,0,27,330.77a28.78,28.78,0,0,1-2.91-8.9,31.14,31.14,0,0,1,1-13.1c4,3.09,7,7.54,10.08,12.23,4.31,6.41,8.72,13,16,16.8a38,38,0,0,0,6.53-.92C48,334.27,42.81,326.62,37.84,319.2c-3.36-5-6.84-10.2-11.7-13.65a49.49,49.49,0,0,1,2.38-5.34A103.28,103.28,0,0,0,42,308.84a137.41,137.41,0,0,0,32.86,12.67c1.85.4,3.47.69,4.89.85.72-1,1.4-2,2-3.07a36.51,36.51,0,0,1-6.23-.93c-10.77-2.35-30.88-9.68-45.47-21a74.56,74.56,0,0,1,4.48-6.71C41.54,295.55,47,294.61,54.31,293.32Z" fill="#742b1f"/></g></g></svg>