<svg id="Layer_1" data-name="Layer 1" xmlns="http://www.w3.org/2000/svg" viewBox="0 0 300 345"><g id="assets"><g id="mouth"><path d="M170.35,266.82c0,13.29-5.74,24.05-20.35,24.05s-20.35-10.76-20.35-24.05a36.6,36.6,0,0,1,.87-8.19c2.12-9.25,36.82-9.27,39,0A36.9,36.9,0,0,1,170.35,266.82Z" fill="#680d19"/><path d="M168.53,278.4c-4.18-3.67-10.26-5.89-18.53-5.89s-14.35,2.22-18.53,5.89c2.69,7.43,8.54,12.47,18.53,12.47S165.84,285.83,168.53,278.4Z" fill="#c52639"/><path d="M150,256.21a69.59,69.59,0,0,1,19.48,2.42c-2.12-9.25-8.24-15.86-19.48-15.86s-17.36,6.61-19.48,15.86A69.59,69.59,0,0,1,150,256.21Z" fill="#f4fafd"/></g></g></svg>