<svg id="Layer_1" data-name="Layer 1" xmlns="http://www.w3.org/2000/svg" viewBox="0 0 300 345"><g id="assets"><g id="mouth"><path d="M134.65,245.56a9.54,9.54,0,0,0-3.36.44c-6.52,2.22-10.79,8.06-9.76,13.94,2.29,13.07,11.88,31.32,48.82,23.14,36.66-8.11,37.91-28.46,34.56-41.29a11.51,11.51,0,0,0-6.11-7.29,13.27,13.27,0,0,0-13.49,1.15c-3.13,2.15-9,5.3-18.54,7.41C153.78,245.94,139.3,245.72,134.65,245.56Z" fill="#f4fafd"/><path d="M121.78,261.25c2.7,12.94,12.85,29.74,48.57,21.83s37.82-27.42,34.81-40.29c0,0-8.34,7.64-40.47,14.76S121.78,261.25,121.78,261.25Z" fill="#680d19"/><ellipse cx="168.52" cy="274.85" rx="32.3" ry="8.44" transform="translate(-55.43 42.93) rotate(-12.48)" fill="#c52639"/></g></g></svg>