<svg id="Layer_1" data-name="Layer 1" xmlns="http://www.w3.org/2000/svg" viewBox="0 0 150 133.07"><defs><style>.cls-1{fill:#27631c;}.cls-2{fill:#374f26;}.cls-3{fill:#373f19;}.cls-4{fill:#b74008;}.cls-5{fill:#dd5d0a;}.cls-6{fill:#dd6b1f;}.cls-7{fill:#e88815;}.cls-8{fill:#9f3b0b;}.cls-9{fill:#87300e;opacity:0.63;}.cls-10{fill:#307a21;}</style></defs><path class="cls-1" d="M148.24,94.71c.17-2.22-2-3.45-4.53-3.75a2.08,2.08,0,0,0-.83.08,5.32,5.32,0,0,0-.79,0,1.81,1.81,0,0,0-.92.4,1.63,1.63,0,0,0-1.65.68c-2.73,3.68-5.42,7.4-7.93,11.18a1.22,1.22,0,0,1-.47.07,1.68,1.68,0,0,0-1.88,1,1.32,1.32,0,0,0,.91,1.66,1.8,1.8,0,0,0,.24,1.21,2.29,2.29,0,0,0,3,.52,1.48,1.48,0,0,0,.44.27,1.41,1.41,0,0,0,.63,1.74h0c-.05,1.44,1.49,2,2.85,1.79a7.54,7.54,0,0,0,3.59-2.17c.12-.11.23-.23.34-.34a3.5,3.5,0,0,0,2.08-3.9,6.92,6.92,0,0,0-1.14-2.63,1.92,1.92,0,0,0,.72-.35C145,100.6,148,97.36,148.24,94.71Z"/><path class="cls-2" d="M146.71,96.29c.37-.34-.63-2.31-2.12-2.41a7.24,7.24,0,0,0-4.76,1.37,4.58,4.58,0,0,0-1.58,4c.25,1.6,3.78,2,5,1.52,1.52-.54,1.31.53.32,1.52a6.74,6.74,0,0,1-1.19.94h0a1.28,1.28,0,0,1-.36,1.07,2.15,2.15,0,0,1,1.36.86l.71,0a1.33,1.33,0,0,1,1.23,2,6.74,6.74,0,0,1-3.42,2.69,1.69,1.69,0,0,1-1.53,1.23c-1.93.27-1.9,1.8-3.64,1.15l-2.8-2.29a31.55,31.55,0,0,0-1.8-3.08c-.1,0-1.88-.5-3.2-.87a6.25,6.25,0,0,1,.72-.17,1.28,1.28,0,0,1,.35-.57,1.46,1.46,0,0,1,.57-2,4.42,4.42,0,0,1,1.73-.6,1.08,1.08,0,0,1,0-.71,4.3,4.3,0,0,1,2.18-2.52,2.37,2.37,0,0,1,.74-.11,7.63,7.63,0,0,1,2.1-5.64c2-2.08,5.12-2.57,7.88-2.68,1.36-.05,2.71,0,3.51,1.11a10.32,10.32,0,0,1,.86,2.78C150.14,96.63,148.16,97.26,146.71,96.29Z"/><path class="cls-3" d="M147.72,89.7c-3.39-2.31-7.73,0-10.89,2l-12.09,7.53a1.39,1.39,0,1,0,1.46,2.35l9.58-6c1.47-.91,2.92-1.87,4.43-2.71a7.89,7.89,0,0,1,4.47-1.34c2.49.32,2.59,3.16,1.93,5a9.83,9.83,0,0,1-5.74,5.41c-1.24.46-1.7,2.51-.09,2.68,2.26.24,2.26,2.68.92,4.06-1.86,1.92-4.81,2-7.29,2a1.39,1.39,0,1,0-.08,2.77c3.81,0,8.32-.69,10.49-4.17a5.09,5.09,0,0,0-.44-6.08,12.58,12.58,0,0,0,4.92-5.51C150.49,95,150.29,91.45,147.72,89.7Z"/><path class="cls-1" d="M20.94,101.72a1.45,1.45,0,0,0-1-.56,8.91,8.91,0,0,0-1.29-1.91,1.17,1.17,0,0,0-1.18-.39l-.11-.15a1.52,1.52,0,0,0-.95-.57,3.28,3.28,0,0,0-1.78-1.89,1.93,1.93,0,0,0-.81-.12,1.52,1.52,0,0,0-1.13-.3,9.66,9.66,0,0,0-.11-1.69c-.15-.89-1.32-1.14-2.11-.78l-.19-.08a3.4,3.4,0,0,0-1.92-1.12,20.53,20.53,0,0,0-2.73-1.27c-1.4-.53-3.44-.37-3.71,1.38a2.86,2.86,0,0,0,1,2.21,19.53,19.53,0,0,0,1.63,1.77A18.57,18.57,0,0,0,6.26,97.7a8.18,8.18,0,0,0-.67,1.09,4.8,4.8,0,0,0,.14,5.07,2.79,2.79,0,0,0,1.7,1.08,1.8,1.8,0,0,0,1.8,1.13,4.11,4.11,0,0,0,.43.63,2.09,2.09,0,0,0,3.06.2,1.94,1.94,0,0,0,.31-.44,2.07,2.07,0,0,0,.49.12,2,2,0,0,0,2.54.73,2.2,2.2,0,0,0,.82-.68,2.12,2.12,0,0,0,1.39-.3,1.56,1.56,0,0,0,1.49.14,1.41,1.41,0,0,0,.84-1,1.15,1.15,0,0,0,.35-.31c.93-.18,1.71-1.11,1-2Z"/><path class="cls-2" d="M19.07,106.87a10.23,10.23,0,0,1,.08-1.84c-.21.2-.42.4-.61.61a1.37,1.37,0,0,1-2.05,0,34,34,0,0,1-6.28.85,1.35,1.35,0,0,1-1.4-1.75,4.71,4.71,0,0,1-3.88-.85,1.19,1.19,0,0,1-.41-1.24H4.27a1.38,1.38,0,1,1,0-2.75h.06a1.48,1.48,0,0,1,1.26-2.06c.51-.07-.81-.85-2.26-1.42A4,4,0,0,1,.5,93.23a3.08,3.08,0,0,1,2.07-3.17,1.47,1.47,0,0,1,1.84.9c.23.72-2.17,1.45-.59,2.6a6.72,6.72,0,0,0,2.75.94,24.28,24.28,0,0,0,7.42.33c1.2-.11,2.08,1.56,1.08,2.33-.25.19-.51.36-.76.54.56,0,1.13.09,1.68.16a1.15,1.15,0,0,1,1.07,1.27,1.41,1.41,0,0,1,1.44,1.1,1.36,1.36,0,0,1,1.6,1.38,1.46,1.46,0,0,1,.33.22,7.41,7.41,0,0,1,1.4-1.45Z"/><path class="cls-3" d="M23.89,100.93a26.49,26.49,0,0,0-6.62-6.87,24.39,24.39,0,0,0-8.51-4.24c-2.57-.67-6.38-1.13-8.15,1.36a3.63,3.63,0,0,0,.33,4.43,11,11,0,0,0,2.89,2.22A4.91,4.91,0,0,0,2.49,101c-.09,2.27,1.61,4.06,3.52,5.21,4,2.37,9.57,3.21,14,1.12a1.58,1.58,0,0,0,1.64.55,4,4,0,0,0,3-2.69A5,5,0,0,0,23.89,100.93ZM21,105.21a1.47,1.47,0,0,0-2-.47c-3.12,1.73-7,1.14-10.11-.21-1.31-.58-2.91-1.41-3.36-2.8a1.86,1.86,0,0,1,1.19-2.47,1.37,1.37,0,0,0,.61-2.32c-1.07-1.08-2.61-1.59-3.69-2.64-.84-.81-1-1.79.34-2.13a7.75,7.75,0,0,1,3.55.23A18.89,18.89,0,0,1,11.78,94a26.09,26.09,0,0,1,6.94,5.25C19.53,100.05,23.72,104.44,21,105.21Z"/><path class="cls-4" d="M145,51.16c-3.79-15.59-13.76-30-29.28-33.43a32.38,32.38,0,0,0-6-.73,21.67,21.67,0,0,0-2.26.12,10.62,10.62,0,0,1-3-.05c-.08-.11-.33-.34-.35-.38-.42-.42-.84-.85-1.27-1.24l-.09-.09A19.5,19.5,0,0,0,100,13.29a14.71,14.71,0,0,0-5.26-2.1,15.81,15.81,0,0,0-8.86,1.16,36.21,36.21,0,0,0-8.28,5c-.77.59-1.52,1.21-2.3,1.73-.09.07-.12.08-.13.11l-.15.06c-.13.08-.26.13-.39.2l-.06,0h0l-.67-.26c-2.69-1.11-5.38-2.3-8.12-3.34-1.21-.47-2.42-.9-3.66-1.29a26.64,26.64,0,0,0-7-1.47,24,24,0,0,0-7.88,1.52,19.72,19.72,0,0,0-8.75,5.23,9.32,9.32,0,0,0-4.17.26,27.06,27.06,0,0,0-6.66,2.72,44.65,44.65,0,0,0-14,12.47,42.09,42.09,0,0,0-4,6.63l0,0a51.5,51.5,0,0,0-4.6,14.31c-.3,1.9-.55,3.76-.7,5.63,0,0,0,.06,0,.09A53.33,53.33,0,0,0,5,77.43a52.7,52.7,0,0,0,2.69,9h0c3.45,8.77,9.09,16.39,16.07,21.36a16.72,16.72,0,0,1,3.68,3.18c.89,1.14,1.62,2.38,2.49,3.51A38.17,38.17,0,0,0,35.13,120a39.65,39.65,0,0,0,12.6,7.39,37.31,37.31,0,0,0,14.06,2.25,47.2,47.2,0,0,0,7.52-1.1,9.82,9.82,0,0,1,1.31-.18,9.19,9.19,0,0,1,3.43.39c1.32.38,2.58.85,3.9,1.18,9.2,2.21,20-.11,28.8-5.85l.18-.12a40.24,40.24,0,0,0,6.28-5.13c1-1,1.92-2.12,2.89-3.22a14.38,14.38,0,0,1,4.4-3.19A46,46,0,0,0,136.12,98.9c.3-.41.6-.82.89-1.24a54,54,0,0,0,3.58-5.93h0C147.13,79,148.22,64.37,145,51.16Z"/><path class="cls-5" d="M141,66.24a47.34,47.34,0,0,0-6.83-22.06A52.77,52.77,0,0,0,127,34.89c-2.77-2.88-5.82-5.83-9.63-7.13-4.06-1.39-9.32,0-12.23,5.59A23.88,23.88,0,0,0,102.9,44.8C98,42.31,92.6,40.33,86.81,42.9A14.19,14.19,0,0,0,80,49.34a21.24,21.24,0,0,0-1.75,4.9,22.23,22.23,0,0,0-1.1-2,18.5,18.5,0,0,0-5.31-5.73,18.34,18.34,0,0,0-10-2.61,17,17,0,0,0-11.7,5.55C46.45,53.19,44,58,41.8,62.66c-.46,1-.91,2-1.36,2.91a28.05,28.05,0,0,0-.26-6.64c-.71-4.32-2.52-8.65-5.69-11.39-5.78-5-13.57-3.25-17.87,1.87C11.8,55.17,11,64,11.58,71.75,12.16,79.7,14.47,88,20.4,93a13,13,0,0,0,9.06,3.38,9.24,9.24,0,0,0,6-2.63c1.76,8.08,6.62,15.14,13.39,18.78a22.6,22.6,0,0,0,23-.64,21.92,21.92,0,0,0,7.31-8,15.94,15.94,0,0,0,4.67,6.21,18,18,0,0,0,10.51,3.72c7.2.4,16.82-1.59,22.08-8.7a15.2,15.2,0,0,0,3.09-7.83,7.39,7.39,0,0,0,4.34,0c3.6-1.07,7.17-3.92,9.86-7C139.84,83.37,141.41,74.3,141,66.24Z"/><path class="cls-6" d="M20.09,56c-2.68,2.78-3.83,8.23-3.13,13.1a13,13,0,0,0,3.72,9.62,6.42,6.42,0,0,0,8.68.52c2.78-2.27,3.38-6.49,3.51-10.54.14-4.22-.38-8.9-3.35-12.33S22.76,53.2,20.09,56Z"/><path class="cls-6" d="M71.83,53.84c-2.66-2.44-8.08-4-11.65-2.64A24.91,24.91,0,0,0,48.52,62.07a37.19,37.19,0,0,0-4.16,15.72c-.29,10.81,6,18.67,14.7,21.65,8.44,2.91,16.76-4.44,19.06-13.5,1.42-5.57,1-11.48,0-17.34C77.22,63.21,75.76,57.47,71.83,53.84Z"/><path class="cls-6" d="M133.2,52.33c-2.57-5.76-8.61-15-14.94-16.46-6.08-1.42-10.08,1.77-12.15,9.65a28.7,28.7,0,0,0-.64,3.25q-.31,1.06-.54,2.13a14.58,14.58,0,0,0-4.57-3.12c-8.38-3.52-17,3.76-19.29,12.51C79,67.56,80.68,75.7,82.92,81.77c2.83,7.71,9.32,18.58,18,18.46s12.36-10.33,13.14-18.67c2.51,2.36,5.71,3.89,9.58,3,6.33-1.45,10.49-8.4,12.23-14.68C138,62.39,135.89,58.39,133.2,52.33Z"/><path class="cls-7" d="M106.63,62.11C104.7,57.64,98,48.16,92.88,54S90.44,68.77,93.1,74c1.48,2.92,6.79,10.71,11.09,7.3C109,77.56,108.5,66.46,106.63,62.11Z"/><path class="cls-7" d="M122.75,49.06c1.17-3.73,2-9.37-4.6-9-3.42.17-5.5,2.17-6.7,5.32-1.51,4,.26,7.13,3.45,8,1.5.4,3.43.77,5.08-.28A7.12,7.12,0,0,0,122.75,49.06Z"/><path class="cls-7" d="M123,55.15c-3.56,2.87-1.45,10.66-.42,13.66,1.13,3.28,3,9.77,7.44,6.29,4-3.12,2.86-10,2.14-13.95C131.32,56.44,126.66,52.21,123,55.15Z"/><path class="cls-7" d="M67.26,55.64c-2.46.06-3.72,2-4.42,3.29A8,8,0,0,0,62.32,64c.54,3,3,5.57,5.77,4.55s4-5,3.39-8.12C70.91,57.5,70.31,55.92,67.26,55.64Z"/><path class="cls-8" d="M5.53,79.63c-.18-.73-.35-1.46-.51-2.2C4.74,76.07,4.78,77.23,5.53,79.63Z"/><path class="cls-8" d="M126.74,106.13c-1.63,1.11-3.31,2.12-5,3.05s-3.49,1.59-5.06,2.61-.48,2.26-6.66,6.47c-20.76,12-29,2-31,1.53-2.12-.5,1-.63-13,2C36.44,126.15,34.68,102,33.31,101.15,14.11,100.28,7.5,86,5.53,79.63A54.36,54.36,0,0,0,7.7,86.39h0c3.45,8.77,9.09,16.38,16.07,21.36a16.5,16.5,0,0,1,3.68,3.18c.88,1.15,1.62,2.38,2.49,3.51A38.17,38.17,0,0,0,35.13,120a40,40,0,0,0,12.61,7.4,37.22,37.22,0,0,0,14,2.24,45.81,45.81,0,0,0,7.51-1.1,10.43,10.43,0,0,1,1.32-.18,9.19,9.19,0,0,1,3.43.39c1.31.38,2.58.85,3.91,1.17,9.2,2.22,20-.1,28.79-5.84l.18-.12h0c.25-.16.49-.34.73-.5l.86-.6.82-.64c.27-.2.54-.4.8-.62s.49-.42.73-.63l.84-.71c.5-.47,1-.94,1.49-1.43,1-1,1.93-2.12,2.89-3.22a14.54,14.54,0,0,1,4.41-3.19A46.1,46.1,0,0,0,136.12,98.9l.89-1.24A72.15,72.15,0,0,1,126.74,106.13Z"/><path class="cls-2" d="M12,101.59l0,0,0,0Z"/><path class="cls-2" d="M109.47,110.85l0,0h0Z"/><path class="cls-9" d="M109,33.14a20.85,20.85,0,0,1-4.56,6.33,31.79,31.79,0,0,1-13.54,7.38,30.52,30.52,0,0,1-4.91,1l-.88.07A8.34,8.34,0,0,1,81.59,54a10,10,0,0,1-4.81,1.81,16.37,16.37,0,0,1-7.21-1.13,18.39,18.39,0,0,1-7.78-5.27,15.84,15.84,0,0,1-2.08.69,26.23,26.23,0,0,1-3.64.64,30.6,30.6,0,0,1-3.42.18A28.58,28.58,0,0,1,46,50.37c-4.5-1-8.88-4.52-8.56-9.93a8.68,8.68,0,0,1,3.27-6.22c-2.51-2.93-3.48-6-2.84-8.92.29-1.31,1.48-4.44,6.3-5l.6-.06a22.51,22.51,0,0,1,6,.39,25.4,25.4,0,0,1,3.61,1,5.16,5.16,0,0,1,.47-1,6.46,6.46,0,0,1,4-2.93l.18,0a23.11,23.11,0,0,1,3.21-.63,9,9,0,0,1,2.2,0,7.35,7.35,0,0,0,.77-1.47c2.76.89,5.48,1.91,8.21,2.86l.68.22h0l.06,0,.39-.17.16-.06s0,0,.12-.09c.79-.45,1.54-1,2.31-1.48A37.18,37.18,0,0,1,85.4,12.6c.92,1.79,1.75,3.6,2.52,5.42l.3-.07.62-.08a6.55,6.55,0,0,1,5,1.31l.29.26,1.45-1,.53-.34c1.56-1,3.94-2.6,6.41-2.93l.17,0a5.49,5.49,0,0,1,4.62,1.45,5.72,5.72,0,0,1,1.16,1.59,7.13,7.13,0,0,1-.29,6.18C110,25.68,111.23,28.2,109,33.14Z"/><path class="cls-1" d="M48.66,41.68a23.84,23.84,0,0,0,5.54.46A24.34,24.34,0,0,0,60,41.46a12,12,0,0,0,3.81-1.72,6.81,6.81,0,0,0,1,1.76,14.25,14.25,0,0,0,6.26,4.34c2.49.9,5.72,1.61,8.18-.17a4.56,4.56,0,0,0,1.9-3.37A12.28,12.28,0,0,0,81,39.11a17.85,17.85,0,0,0,8.07-.72,26.51,26.51,0,0,0,11.19-6.06,16.11,16.11,0,0,0,3.5-4.87c.67-1.5,1.62-3.83-.24-4.71a4,4,0,0,0-2.76-.05,17.22,17.22,0,0,0,1.75-2.46c.7-1.22,1.42-2.78.78-4.07-1.5-3-5.6.08-7.49,1.29A49.06,49.06,0,0,0,91,20.89a2,2,0,0,0,.06-.26A2.7,2.7,0,0,0,90.37,18a3.38,3.38,0,0,0-2.73-.5,17.43,17.43,0,0,0-5.38,2c-.42.24-.84.5-1.25.77-.06-1-9.9-2.72-11.11.35-.62-.73-1.29-1.42-1.94-2.06a6,6,0,0,0-3.19-1.85,11.58,11.58,0,0,0-4.34.54c-2.58.65-2.27,3.72-1.64,5.76a21.21,21.21,0,0,0-7.32-3,18.14,18.14,0,0,0-4.77-.3c-1.43.1-3,.43-3.38,2.06-.67,3,1.9,5.93,3.94,7.68.39.33.8.63,1.2.94-2.7.48-5.31,2.11-5.5,5.07C42.74,38.81,45.65,41,48.66,41.68Z"/><path class="cls-2" d="M45.77,18.33c1.66-.5,3.66-.22,5.34-.18q2.88.06,5.73.32t5.68.72A7.5,7.5,0,0,1,66.9,21c1,1.07-.59,2.92-1.62,1.85l-.19-.17-.38.29c.28.2.56.39.82.61a1,1,0,0,1,.22,1.41l14.84,7a3,3,0,0,1,.7-1.23,47,47,0,0,0,3.19-3.57,1.07,1.07,0,0,1,1-.47,2.11,2.11,0,0,1,.09-.55c.34-1.17,1.45-2.41.52-3.52-.72-.87-1.89-1.29-2.68-2.11a1.7,1.7,0,0,1-.32-2.15A4.06,4.06,0,0,1,85.19,17a12,12,0,0,1,4.55-.56,11.88,11.88,0,0,0,4.52-.29c.85-.32,1.59-.87,2.43-.25a2.25,2.25,0,0,1,.72,1.9,10.11,10.11,0,0,1-1.11,4.46A12.27,12.27,0,0,1,94,25.33l.66,0c1.41,0,2.75.53,2.62,2.13-.1,1.25-1.19,2.15-2,3A18.8,18.8,0,0,1,88.71,35a9.12,9.12,0,0,1-5.9.27,12.62,12.62,0,0,1-3.28,1.89,5,5,0,0,1-1.36,3.43A6.1,6.1,0,0,1,73,42.49c-3.51-.31-6.3-3-7.66-6.07A13.4,13.4,0,0,1,55.08,36c-1.4-.68-3.75-1.91-3.22-3.81.34-1.26,1.73-2.09,3.14-2.63l-.12-.12c-1-.71-2.27-1.18-3.37-1.8a29.71,29.71,0,0,1-4-2.73,12.56,12.56,0,0,1-3.32-3.3A2.27,2.27,0,0,1,45.77,18.33Z"/><path class="cls-10" d="M103.81,17.14a1.26,1.26,0,0,0,.09-.93,3.6,3.6,0,0,0-1.51-1.67,1.63,1.63,0,0,0-1.7.07l-.08.07a1.39,1.39,0,0,0-.66.75l-.11.16a4.34,4.34,0,0,0-.64,3,2.78,2.78,0,0,0,.81,1.78,1.65,1.65,0,0,0,1.64.2,3.15,3.15,0,0,0,1-.68,3.78,3.78,0,0,0,1.07-2.6A.66.66,0,0,0,103.81,17.14Zm-3,1.32,0,0,0,0A.1.1,0,0,1,100.8,18.46Z"/><path class="cls-10" d="M92.11,36.31a12.93,12.93,0,0,0,5.49-3.54c1.3-1.41,2.87-3.77,1.66-5.53-.66-1-1.37-1.84-.69-3.12A5.1,5.1,0,0,1,101.42,22a3.06,3.06,0,0,1,3.27.66,3.86,3.86,0,0,1,.85,3.24,14.91,14.91,0,0,1-3.47,7.39,1.19,1.19,0,0,1-1.85,0A14.86,14.86,0,0,1,98.68,35a15.68,15.68,0,0,1-5.84,3.54A1.15,1.15,0,1,1,92.11,36.31Z"/><path class="cls-10" d="M52,43a3.27,3.27,0,0,1-2-.21,9.55,9.55,0,0,1-5.57-2.87,6.48,6.48,0,0,1-.93-7.19,4.73,4.73,0,0,1,2.62-2.28L46,30.33c-1.3-1.53-2.71-3.46-3-5.57a1.06,1.06,0,0,1-.43-.55,4.58,4.58,0,0,1,4-6,1.14,1.14,0,0,1,1,.43l.2-.09a10.6,10.6,0,0,1,5-.24c1.51.25,1,2.59-.51,2.34a8.69,8.69,0,0,0-3.59,0,3,3,0,0,0-1.82,2A6.81,6.81,0,0,0,48,28.93a1.21,1.21,0,0,1-.14,1.47,3.55,3.55,0,0,1,2,1.54c.84,1.36.72,2.94.66,4.5-.06,1.36,0,2.54,1.25,3.3a11.25,11.25,0,0,0,9.1,1,1.15,1.15,0,1,1,.75,2.17,14.37,14.37,0,0,1-7.52.33,15.23,15.23,0,0,1-1.61-.47A1.51,1.51,0,0,1,52,43Z"/><path class="cls-3" d="M47.77,44.7a26.6,26.6,0,0,0,6.27.54,29.32,29.32,0,0,0,3.2-.17,24.78,24.78,0,0,0,3.4-.6,14.68,14.68,0,0,0,1.94-.64,17.22,17.22,0,0,0,7.28,4.93,15.15,15.15,0,0,0,6.74,1.05,9.15,9.15,0,0,0,4.5-1.69,7.86,7.86,0,0,0,3.28-5.74c.27,0,.55,0,.82-.07a25.78,25.78,0,0,0,4.59-.93,29.82,29.82,0,0,0,12.66-6.9,19.75,19.75,0,0,0,4.25-5.94c2.09-4.63.93-7-.74-8.16a6.67,6.67,0,0,0,.26-5.78,5.09,5.09,0,0,0-5.39-2.85c-2.37.26-4.65,1.77-6.16,2.77l-.49.32-1.35.89-.28-.24a6.07,6.07,0,0,0-4.68-1.23l-.58.08a20.66,20.66,0,0,0-6.16,2.22,15.78,15.78,0,0,0-2-.48A21.82,21.82,0,0,0,73,15.77a11.18,11.18,0,0,0-2.59.58l-.14-.13a8.79,8.79,0,0,0-4.82-2.68,9.34,9.34,0,0,0-2.49,0,23.28,23.28,0,0,0-3,.59l-.17.05a6,6,0,0,0-3.75,2.74,6.91,6.91,0,0,0-.44.91,23.74,23.74,0,0,0-3.37-.93,21.57,21.57,0,0,0-5.61-.35l-.56.05c-4.51.49-5.62,3.42-5.89,4.65-.61,2.76.3,5.61,2.64,8.36a8.11,8.11,0,0,0-3.06,5.82C39.47,40.47,43.57,43.72,47.77,44.7ZM43,35.42c.19-3,2.8-4.59,5.5-5.07-.4-.31-.81-.61-1.2-.94-2-1.75-4.61-4.64-3.94-7.68.32-1.47,1.64-1.88,2.94-2l.44,0a18.14,18.14,0,0,1,4.77.3,21.21,21.21,0,0,1,7.32,3c-.63-2-.94-5.11,1.64-5.76a20.92,20.92,0,0,1,2.73-.56,5.77,5.77,0,0,1,1.61,0A6,6,0,0,1,68,18.52c.65.64,1.32,1.33,1.94,2.06.39-1,1.7-1.49,3.29-1.66,3.29-.36,7.78.64,7.82,1.31.41-.27.83-.53,1.25-.77a17.43,17.43,0,0,1,5.38-2l.36-.05a3.16,3.16,0,0,1,2.37.55,2.7,2.7,0,0,1,.73,2.67,2,2,0,0,1-.06.26,49.06,49.06,0,0,1,4.77-3.43c1.22-.79,3.37-2.35,5.14-2.55a2.15,2.15,0,0,1,2.35,1.26c.64,1.29-.08,2.85-.78,4.07a17.22,17.22,0,0,1-1.75,2.46,5.76,5.76,0,0,1,1-.19,3.22,3.22,0,0,1,1.77.24c1.86.88.91,3.21.24,4.71a16.11,16.11,0,0,1-3.5,4.87,26.51,26.51,0,0,1-11.19,6.06,22.82,22.82,0,0,1-4,.82,14.11,14.11,0,0,1-4.06-.1,12.28,12.28,0,0,1,.19,3.19,4.56,4.56,0,0,1-1.9,3.37,5.73,5.73,0,0,1-2.85,1.06,12.43,12.43,0,0,1-5.33-.89,14.25,14.25,0,0,1-6.26-4.34,6.81,6.81,0,0,1-1-1.76A12,12,0,0,1,60,41.46a19.68,19.68,0,0,1-2.94.52,27.45,27.45,0,0,1-2.87.16,23.84,23.84,0,0,1-5.54-.46C45.65,41,42.74,38.81,43,35.42Z"/><path class="cls-1" d="M87.54,22.05a5.73,5.73,0,0,1-.83,2.41C83.15,30.92,75,34.32,67,32.69l-.41-.13a20.8,20.8,0,0,1-7-5.79c-.19-.25-.36-.5-.52-.76a3.07,3.07,0,0,1-.58-2,2.37,2.37,0,0,1,.45-1,6,6,0,0,1,.66-.76c.86-.86,1.72-1.73,2.57-2.62.54-.52,1.07-1.06,1.6-1.59a15.9,15.9,0,0,0,3.79-5A6.93,6.93,0,0,0,68,10.76a6.19,6.19,0,0,0-1-3.91c.19-.3.42-.64.67-1,.11-.14.21-.3.33-.45s.22-.28.32-.41a9.73,9.73,0,0,1,1-1A8.13,8.13,0,0,1,72.45,2a4.43,4.43,0,0,1,1-.19s.35-.11.9-.24c.39-.1.88-.2,1.4-.29a.53.53,0,0,0-.15-.12l.27.1A12.42,12.42,0,0,1,77.4,2a2.65,2.65,0,0,1,.9.61,3.78,3.78,0,0,1,.67.59A8.08,8.08,0,0,1,80,4.65c.31.52.62,1,.92,1.56.5.87,1,1.75,1.45,2.64.66,1.23,1.27,2.48,1.85,3.75q1.48,3.17,2.65,6.4A8.14,8.14,0,0,1,87.54,22.05Z"/><path class="cls-2" d="M87.54,22.05a5.73,5.73,0,0,1-.83,2.41C83.15,30.92,75,34.32,67,32.69l-.41-.13a20.8,20.8,0,0,1-7-5.79c-.19-.25-.36-.5-.52-.76a6.77,6.77,0,0,1-.13-3,6,6,0,0,1,.66-.76c.86-.86,1.72-1.73,2.57-2.62l.18.11a1.55,1.55,0,0,1,1.69.81,1,1,0,0,1,0,.88c-.83,1.75,1.31,3.19,3,3.25,2.12.08,3.85-1.25,5.31-2.39a9.75,9.75,0,0,0,3.56-4.52,11.74,11.74,0,0,0,0-5.77c-.06-.32-.12-.63-.2-.94-.23-1.15-.51-2.27-.75-3.42-.08-.41-.17-.83-.24-1.24S74.43,5.5,74.36,5l0-.12a10.5,10.5,0,0,1-.15-2.29,3.71,3.71,0,0,1,.16-1c.39-.1.88-.2,1.4-.29a.53.53,0,0,0-.15-.12l.27.1A12.42,12.42,0,0,1,77.4,2a2.65,2.65,0,0,1,.9.61,3.78,3.78,0,0,1,.67.59A8.08,8.08,0,0,1,80,4.65c.31.52.62,1,.92,1.56.5.87,1,1.75,1.45,2.64.66,1.23,1.27,2.48,1.85,3.75q1.48,3.17,2.65,6.4A8.14,8.14,0,0,1,87.54,22.05Z"/><path class="cls-10" d="M84.25,12.6c-.17.92-1,1.54-1.69.59a44,44,0,0,0-3.18-4.27A19.24,19.24,0,0,0,76.8,6.41a14.59,14.59,0,0,0-1.75-1.2,6.27,6.27,0,0,0-.58-.29.38.38,0,0,0-.13-.06A12.07,12.07,0,0,0,69.25,4,8.13,8.13,0,0,1,72.45,2a4.43,4.43,0,0,1,1-.19s.35-.11.9-.24c.39-.1.88-.2,1.4-.29a7.82,7.82,0,0,1,1.44,1.31c.1.12.2.24.29.37a7.63,7.63,0,0,1,.93.68,13.1,13.1,0,0,1,2.45,2.74c.54.78,1,1.61,1.54,2.43s1,1.65,1.55,2.42A1.83,1.83,0,0,1,84.25,12.6Z"/><path class="cls-3" d="M77,3.76h0l0,0C77.06,3.79,77.1,3.82,77,3.76Z"/><path class="cls-3" d="M77.19,2.63a7.82,7.82,0,0,0-1.44-1.31c-.52.09-1,.19-1.4.29-.55.13-.9.24-.9.24a4.43,4.43,0,0,0-1,.19l.13,0c.5.14,1,.29,1.48.45l.13,0c.45.15.44.14,1,.36.36.13.73.29,1.09.44l.41.2.29.17h0s0,0,0,0A2.44,2.44,0,0,1,77.3,4l.29-.08A1.75,1.75,0,0,1,77.19,2.63Zm11.49,16A78.27,78.27,0,0,0,82.77,5.82c-.56-1-1.11-2-1.75-2.89a4.28,4.28,0,0,0-.38-.52c-.06-.09-.14-.18-.21-.27S80.33,2,80.27,2h0l0,0h0a2.65,2.65,0,0,0-.26-.21,1.94,1.94,0,0,0-1.16-.54,9.47,9.47,0,0,0-2.88.13l-.27-.1a.53.53,0,0,1,.15.12c-.52.09-1,.19-1.4.29-.55.13-.9.24-.9.24a4.43,4.43,0,0,0-1,.19l.13,0c.5.14,1,.29,1.48.45l.13,0c.45.15.44.14,1,.36.36.13.73.29,1.09.44l.41.2.29.17h0s0,0,0,0A2.44,2.44,0,0,1,77.3,4a2.76,2.76,0,0,1,.44.47,6.67,6.67,0,0,1,.88,1.25c.48.78.93,1.58,1.37,2.38q1.4,2.5,2.57,5.08c.54,1.13,1,2.28,1.51,3.44.63,1.56,1.82,3.72,1.55,5.33a8.14,8.14,0,0,1-2.1,3.68,16,16,0,0,1-7.72,4.93,16.46,16.46,0,0,1-8.72.32,18.46,18.46,0,0,1-4.74-3.51,11.8,11.8,0,0,1-1.83-2.24c-.46-.83.21-1.23.71-1.74.92-.94,1.85-1.87,2.76-2.81.57-.57,1.14-1.14,1.71-1.73a16.59,16.59,0,0,0,3.46-4.68,8.28,8.28,0,0,0,.71-3,8.57,8.57,0,0,0-.14-2.08,8.84,8.84,0,0,0-.4-1.34A8.12,8.12,0,0,0,68,5.39c-.12.15-.22.31-.33.45-.25.37-.48.71-.67,1A5.29,5.29,0,0,0,66,9.05s0,.09,0,.12v0a1.55,1.55,0,0,1,.07.35l0,0h0c.39,2.94-2.06,5.32-3.85,7.14-1.33,1.36-2.67,2.71-4,4.06s-2.15,2.75-1.44,4.75a14,14,0,0,0,3.77,4.89,23.15,23.15,0,0,0,5.34,3.72,2.4,2.4,0,0,0,.71.22A19.78,19.78,0,0,0,76.7,34.2a19.57,19.57,0,0,0,8.86-5A16.56,16.56,0,0,0,88.64,25C89.69,23,89.48,20.94,88.68,18.63Z"/><path class="cls-3" d="M66.1,9.55s0,0,0,0h0S66.11,9.58,66.1,9.55Z"/><path class="cls-10" d="M78.4,2.93A4.91,4.91,0,0,0,75,2.16a6.06,6.06,0,0,0-2.28.45,11.53,11.53,0,0,0-1.33.12,7.47,7.47,0,0,0-1.58.4c-.47.19-.91.43-1.4.58-1.3.4-2.3,1.39-1.82,2.9a3.65,3.65,0,0,0,3,2.13,17.47,17.47,0,0,0,3.22.2A6.06,6.06,0,0,0,76,8.05a22.15,22.15,0,0,0,2.34-1.43A2.28,2.28,0,0,0,78.4,2.93Z"/><path class="cls-3" d="M75.87,1.3a.23.23,0,0,0-.12,0,.53.53,0,0,0-.15-.12Z"/><path class="cls-3" d="M79.85,1.5A6.69,6.69,0,0,0,75.36,0a11.3,11.3,0,0,0-7.27,2.39,9.49,9.49,0,0,0-2.54,3.22,3.24,3.24,0,0,0-.13,2.63A6.49,6.49,0,0,0,66,9.3c1,1.27,3.63,1.55,3.72,1.57a9.47,9.47,0,0,0,4.56-.16A14.32,14.32,0,0,0,78.05,9,6.34,6.34,0,0,0,80.7,6.1,4.09,4.09,0,0,0,79.85,1.5ZM77.59,4c0-.15,0,.26-.06.32s-.12.31-.17.39a3.24,3.24,0,0,1-.57.73,9.07,9.07,0,0,1-2.22,1.4,7.79,7.79,0,0,1-3,.87,5.34,5.34,0,0,1-1.54-.11,3.32,3.32,0,0,1-.8-.2c-.27-.13-.36-.28-.26-.53a4.1,4.1,0,0,1,.55-.8,7,7,0,0,1,3.84-2.39,9.77,9.77,0,0,1,2.82-.29,3.45,3.45,0,0,1,1,.22,3.73,3.73,0,0,1,.37.17C77.58,3.86,77.59,4,77.59,4Z"/><path class="cls-1" d="M17.77,112.65c-4-3.29-4.44-5.25-2.41-9.73,1.37-3,4.13-5.33,6.21-8.27s3.49-7.56,1.26-10.54a8.28,8.28,0,0,0-4-2.58c-1.29-.47-2.85-.76-4,.18s-.69,3.35.63,3.06c-1.62,1.68-4.46,0-4.61-2.35s1.52-4.59,3.46-5.94a11.42,11.42,0,0,1,13.42.2c3.89,3.11,5.25,9,3.27,13.9-1.3,3.23-3.87,5.92-4.29,9.15a7.57,7.57,0,0,0,2.84,6.76c3.46,2.75,9.67,3.14,11.43,7.21.51,1.18.58,2.59,1.74,3.39a5.28,5.28,0,0,0,1.85.69,22.36,22.36,0,0,1,6.74,2.41c2.06,1.29,3.61,3.42,3.1,5.33-.45,1.74-2.45,2.81-4.54,3.18a13.15,13.15,0,0,1-10.12-2.63,4.42,4.42,0,0,0-1.53-1c-.76-.2.92.79-4.76.37-5.32-.39-5.24-6-8.27-6.45-1.43-.21-4.85.25-6-.6C16.47,116.36,17.77,112.65,17.77,112.65Z"/><path class="cls-2" d="M25.27,99.71a14.38,14.38,0,0,0,.19,6.43,9.24,9.24,0,0,0,2.9,4.12,13.34,13.34,0,0,0,4.84,2.53c2.09.59,4.38.4,6.53,1.16.87.3-3.27-3.35-5.06-3.72a10.09,10.09,0,0,1-4.09-1.77,6.7,6.7,0,0,1-2.24-2.85,10.89,10.89,0,0,1-.17-5.17,1.52,1.52,0,0,0-1.1-1.78A1.5,1.5,0,0,0,25.27,99.71Z"/><path class="cls-2" d="M53.39,128.35a9.15,9.15,0,0,1-8.91,1.1c-2.6-1-4.9-3.43-7.63-3.45a7.87,7.87,0,0,1-4-.79A10,10,0,0,1,30,122.72c-.41-.5-.78-1-1.14-1.55a7,7,0,0,0-1.17-1.59,3.34,3.34,0,0,0-2.05-.41l-2.29-.06a1.32,1.32,0,0,1-1.23-.81,6.17,6.17,0,0,1-2.12-.68,4.73,4.73,0,0,1-2.56-4.07,9.45,9.45,0,0,1,.18-1.5c0-.19.05-.44.09-.62l-.15,0a1.25,1.25,0,0,1-2.06.27,7.13,7.13,0,0,1-1.17-2,3.47,3.47,0,0,1-.26-.45l2.48-10.41c.49-.38,1-.71,1.56-1a13.31,13.31,0,0,0,2-1.43c.49-.79,1-1.63,1.4-2.49a1.35,1.35,0,0,1,1.85-.63,9.52,9.52,0,0,0-2.14-8.77c-1.24-1.31.55-3.6,1.84-2.27,4.15,4.31,4.45,10.91,1.58,16.07a19.56,19.56,0,0,1-5.43,6c-.94.71-2.12,1.36-2.6,2.47a2.24,2.24,0,0,0-.14.46c.11.47.25.94.4,1.4.54.18,1.25,0,1.75.15a2.09,2.09,0,0,1,1.65,1.64c.31,1.34-.84,3.25.1,4.41,1.1,1.35,3.09.86,4.47.61a6.56,6.56,0,0,1,5,.61,6.93,6.93,0,0,1,2.37,3.43c.52,1.24,1.4,2.59,3.1,2.32a16.78,16.78,0,0,1,2.49-.63,5.58,5.58,0,0,1,2.67.68c1.9,1,3.44,2.4,5.5,3.32,1.3.57,4.63,2,5.78,1C53.45,125,55,127.09,53.39,128.35Z"/><path class="cls-10" d="M29.72,77.66c-1-1.8-3.15-2-5.08-2.14-.95-.07-1.95-.15-2.94-.17a6.75,6.75,0,0,0-.8-.24,7.68,7.68,0,0,0-8.29,3.44c-.16.29-1,1.52-1,1.81-.62.89.36,1.78.54,3a1.29,1.29,0,0,0,1.38,1.26A1.52,1.52,0,0,0,14.79,83c-.3-2.15,2.49-2.62,3.95-2.57a8.87,8.87,0,0,1,4.84,1.71,9.75,9.75,0,0,1,3.3,4.19c.82,2.08.47,4.38,1.17,6.48a1.6,1.6,0,0,0,2.87.19C32.74,90.21,31,77.58,29.72,77.66Z"/><path class="cls-10" d="M26.28,111.84c0,.11,0,.21,0,.32a3.06,3.06,0,0,1-.05.32A2.25,2.25,0,0,1,26,113a3.11,3.11,0,0,1-.35.54,2.38,2.38,0,0,1-.84.77,1.88,1.88,0,0,1-1.51.08,2.43,2.43,0,0,1-1.57-2.07,2.74,2.74,0,0,1,.61-1.73,1.32,1.32,0,0,1,.48-.46l.33-.12h.06a0,0,0,0,0,0,0,1.36,1.36,0,0,1,1-.35,2.23,2.23,0,0,1,1.46.69,2.6,2.6,0,0,1,.51.84A2.28,2.28,0,0,1,26.28,111.84Z"/><path class="cls-10" d="M51,120.16a8,8,0,0,0-1.87-.58,7.75,7.75,0,0,1-1.59-.6c-2.47-1.25-4.43-3.06-7.07-3.84l-.32-.06a1.86,1.86,0,0,0-1.92-.86,8.61,8.61,0,0,0-3.46,1.59c-1.29,1.14-.12,3,1.67,3.27.61.08,1.21,0,1.84.12a13,13,0,0,1,1.88.55,18.75,18.75,0,0,1,3.51,1.66c1.13.68,2.08,1.61,3.24,2.27,1.43.82,3.38,1.08,4.61.13A2.15,2.15,0,0,0,51,120.16Z"/><path class="cls-3" d="M45.1,116.38c-1-.25-1.51-.41-1.85-1.28-.26-.66-.4-1.33-.71-2a7.71,7.71,0,0,0-2.54-3c-2.18-1.59-4.81-2.3-7.16-3.4-2.59-1.2-4.58-3.15-4.65-5.95-.08-3,2.35-5.66,3.73-8.41,2.84-5.62,1.93-12.48-2.48-16.55-4.63-4.26-12.59-4-17.17.61-2,2-3.47,5.24-2.18,7.89,1.09,2.22,4.05,3.52,6.15,1.61,1-.88.64-2.62-.66-2.61,0,0,0,0,0,0s0-.4,0-.42c.45-.71,2.05-.14,2.57,0,1.78.61,3.65,1.63,4.17,3.7,1,4.19-2.39,7.93-4.7,10.66s-4.37,5.65-4.7,9.08c-.26,2.76,1.34,4.85,3.37,6.65-.57,2.92.82,6.66,4.41,7.15a25.12,25.12,0,0,0,3.13.1,3.24,3.24,0,0,1,1.73.26,5.94,5.94,0,0,1,1.21,1.58,16.34,16.34,0,0,0,1.67,2.27,8.33,8.33,0,0,0,6,2.52,11.93,11.93,0,0,0,3.85-.12l.15,0c.17.14.4.34.53.43a14.26,14.26,0,0,0,4.84,2.49c3.38,1,7.29,1,10.11-.67s3.33-4.91,1.15-7.64C52.69,118.35,48.76,117.28,45.1,116.38Zm-29.53-33s0,0,0,0Zm21.24,40.74.11-.08C36.89,124.14,36.87,124.14,36.81,124.14Zm15.56,1.39c-1.25,2.15-5.31,2.18-7.84,1.46a11.22,11.22,0,0,1-3.86-2,5.16,5.16,0,0,0-2.57-1.32,1.69,1.69,0,0,0-1.38.45h-.19c-1.66.15-4,.29-5.41-.81-1.23-.94-1.84-2.38-2.72-3.53a5,5,0,0,0-4.23-2.16c-1.63,0-4.25.63-5.12-1.26a4.47,4.47,0,0,1,0-3.2,1,1,0,0,0,0-1,1.27,1.27,0,0,0-.46-.49,9.41,9.41,0,0,1-2.84-3.09,4.47,4.47,0,0,1,.1-3.24c1.15-3.52,3.86-5.92,6.24-9s4.28-7.12,3.12-11.07a7.34,7.34,0,0,0-3.6-4.3,9.13,9.13,0,0,0-5.18-1.41,3.7,3.7,0,0,0-3.43,3.53,3.49,3.49,0,0,0,0,.46,2.63,2.63,0,0,1-.7-2.3c.53-2.35,2.88-3.92,4.89-4.69a9.53,9.53,0,0,1,12.18,4.81A11.2,11.2,0,0,1,30,88.82c-.66,2.61-2.38,4.75-3.5,7.05a9.83,9.83,0,0,0-.91,7.09,9.67,9.67,0,0,0,4.32,5.45c1.87,1.15,4.05,1.81,6.1,2.81a9.08,9.08,0,0,1,2.61,1.69,6.61,6.61,0,0,1,1.35,2.73,5,5,0,0,0,2.35,2.89c1.4.74,3.21.93,4.77,1.42C49.54,120.73,53.86,123,52.37,125.53Z"/><path class="cls-1" d="M89.49,125.44c-2.06.44-2.33,3.46-.87,4.8s3.65,1.45,5.67,1.5A26.38,26.38,0,0,0,103,131c2.78-.88,5.45-2.91,6.29-5.67,2.7,1.14,6.11.29,8.57-1.7a14.84,14.84,0,0,0,4.8-8.09,10.36,10.36,0,0,0,7.62.32,7.3,7.3,0,0,0,3.84-2.71c.91-1.38,1.08-3.37.08-4.4a8.76,8.76,0,0,0-2.28-1.22c-1.31-.7-2.19-2-3.3-3.08s-2.78-1.81-4.27-1a14.25,14.25,0,0,0,.58-9.23c-1-3-3.44-5.41-6.41-5.58a6.78,6.78,0,0,0-6.71,5.65c-.24,1.61.66,3.65,2.1,3.32a2.47,2.47,0,0,1,2.25-2.83,3.5,3.5,0,0,1,3,2.15,7.5,7.5,0,0,1-2.11,8.88c-3.43,2.58-8.74,1.45-11.5,4.85a5.4,5.4,0,0,0-1,4.9c-5.93-1.28-12.81,2.83-14.6,8.74Z"/><path class="cls-2" d="M134.52,110.44c-.06,2-1.8,3.46-3.07,5.43a28.11,28.11,0,0,1-3.64.84c-.77,0-4.32.12-4.34-.5,0,0-1.67,1.88-3,3.41-1.06,1.17-1.82,2.59-2.93,3.71a8.88,8.88,0,0,1-4.2,2.34,21,21,0,0,0-4.75,1.52c-1.51.81-2.88,1.88-4.36,2.74-3.48,2-7,2.16-10.83,1.34-1.71-.37-4-.63-5.15-2.07-1-1.27,2.36-5.25,2.91-4.78a6.74,6.74,0,0,1,.34-2.17,13.94,13.94,0,0,1,4.11-6c1.11-.91,8.93-2.44,9.16-2.1.91-2.57,2.32-5.88,5.23-6.26a.65.65,0,0,1,.14,0,4.32,4.32,0,0,1,.9-.61h0l.06,0h0l0,0h0c.06,0,.14-.1.19-.15l.13-.1h0a0,0,0,0,0,0,0l.1-.07.08-.09c.25-.22,2.84-.26,4.73-.67,1.3.4,1,1.08-.23,1.72a26.73,26.73,0,0,0-3.6,2.12c-.19.13-.37.27-.55.41l-.22.19h0c-.21.21-.42.4-.61.61s-.67.69-1,1a10,10,0,0,0-.77,1.21,1.53,1.53,0,0,0,0,1.4,1.86,1.86,0,0,1-.16,2.14,2,2,0,0,1-1.64.58,16.13,16.13,0,0,1-3.25-.39,1.32,1.32,0,0,1-1.08-1.28,18.19,18.19,0,0,0-3.72,1.46A8.25,8.25,0,0,0,96.71,119c-1.38,1.44-3,3.67-2.79,5.67.21,2.26,2.44,2.77,4.43,2.77,1.82,0,4.06-.17,5.6-1.33.87-.65,1.37-1.65,2.19-2.37a5.82,5.82,0,0,1,2.25-1.22c1.7-.51,3.74-.24,5.29-1.2s2.15-2.8,3-4.2a7.29,7.29,0,0,1,4-3.46,15.06,15.06,0,0,1,3.53-.31,24,24,0,0,0,3.17-.32l.17,0a2.39,2.39,0,0,0,.83-2.35,4.94,4.94,0,0,0-1.21-2.25,5.19,5.19,0,0,0-4.85-1.59c-1,.18-1.63-1.11-1.14-2.05a29.06,29.06,0,0,0,2.73-8.11,1.33,1.33,0,1,1,2.59.57,32.23,32.23,0,0,1-2,6.67,7.42,7.42,0,0,1,5,2.83s0,.07.07.1a1.15,1.15,0,0,1,.17-.14,3.37,3.37,0,0,1,1.21-.55h0C131.69,107,134.58,108.63,134.52,110.44Z"/><path class="cls-10" d="M102.63,119a2.88,2.88,0,0,0-1.56-.28,5.31,5.31,0,0,0-4.18,4.73,2.06,2.06,0,0,0,.94,1.76,2.38,2.38,0,0,0,2.23,0,5.72,5.72,0,0,0,2.35-2.35,5.9,5.9,0,0,0,.68-1.49A2.41,2.41,0,0,0,102.63,119Z"/><path class="cls-10" d="M115.81,94.29a6.07,6.07,0,0,0,3.53,1.46,14,14,0,0,0,2,.08,2.19,2.19,0,0,0,2-2.13,2.64,2.64,0,0,0-1.2-2.33,6.29,6.29,0,0,0-1.83-.72,7,7,0,0,0-4.23-.18A4.83,4.83,0,0,0,113,94a1.42,1.42,0,1,0,2.75.61,1.55,1.55,0,0,1,0-.23v0Zm-.07.16a.39.39,0,0,1,0-.06Z"/><path class="cls-10" d="M121.91,109.68a4.44,4.44,0,0,0-3.75-1,7.55,7.55,0,0,0-3.4,1.7,15.16,15.16,0,0,0-1.45,1.44,7.23,7.23,0,0,0-1.25,1.66,2.22,2.22,0,0,0,.26,2.53,1.77,1.77,0,0,0,2.3.21,13.33,13.33,0,0,0,1.06-1.08c.38-.33.71-.7,1.06-1.07l.25-.27h0a5.45,5.45,0,0,1,.47-.37c.15-.11.32-.21.48-.31h0l.26-.12a3.28,3.28,0,0,1,.52-.2l.26-.09h0a6.55,6.55,0,0,0,2.56-.84A1.48,1.48,0,0,0,121.91,109.68ZM117,113.81Z"/><path class="cls-3" d="M136.09,110.84a4,4,0,0,0-1.21-3.35c-1.11-1-2.56-1.19-3.63-2.3-1.4-1.46-3-3.28-5-3.51A14.55,14.55,0,0,0,126,93c-1.16-3.09-3.77-5.59-7-5.94a8.15,8.15,0,0,0-7.88,4.59c-1.4,2.77-.89,7.89,2.78,7.45a1.64,1.64,0,0,0,1.31-2c-.09-.54.77-.8,1.08-.77a2.3,2.3,0,0,1,1.52,1.28,5.39,5.39,0,0,1,.42,3.84c-.67,2.8-2.87,4-5.27,4.58s-4.82.82-6.93,2.26a7.06,7.06,0,0,0-3.1,5.65,14.64,14.64,0,0,0-9.2,2.89,15.21,15.21,0,0,0-3.9,4.22,18.26,18.26,0,0,0-1.48,3.37c-2.16,1-2.58,3.93-1.55,5.79,1.5,2.7,5.19,2.79,8,2.85,3.28.07,6.7,0,9.77-1.33a10.89,10.89,0,0,0,5.32-4.8,10.33,10.33,0,0,0,8.15-1.94,15.58,15.58,0,0,0,5.34-7.7,11.75,11.75,0,0,0,7.44-.29C133.41,116,135.85,113.87,136.09,110.84Zm-6.29,3.85a9.24,9.24,0,0,1-6.5-.38,1.44,1.44,0,0,0-1.91,1,13.3,13.3,0,0,1-4.33,7.38,7.48,7.48,0,0,1-7.16,1.43,1.46,1.46,0,0,0-1.92,1c-1.46,4.45-7.1,5.33-11,5.33-2.06,0-4.74.22-6.61-.73-1-.49-1.94-2.35-.64-3a1.18,1.18,0,0,0,.75-.32,1.11,1.11,0,0,0,.45-.84c.94-2.43,2-4.62,4.19-6.34a11.44,11.44,0,0,1,9.14-2.38,1.51,1.51,0,0,0,1.61-1.9c-1.08-3.94,3.13-5.22,6-5.84,3.07-.67,6.11-1.53,8-4.56s1.89-7.21-.28-9.77a3.81,3.81,0,0,0-6.31.08,4.08,4.08,0,0,1,.13-1.07,5.17,5.17,0,0,1,1.61-2.39,4.75,4.75,0,0,1,5.58-.61c4.11,2.35,4.11,8,2.53,12.31a1.26,1.26,0,0,0,1.61,1.61c2-.92,3.53,1.36,4.7,2.55a7.62,7.62,0,0,0,2.45,1.74c.84.36,1.76.61,1.8,1.75C133.69,112.94,131.41,114.18,129.8,114.69Z"/><path class="cls-2" d="M111.11,107.25l0,0h0Z"/></svg>