<?xml version="1.0" encoding="UTF-8" standalone="no"?>
<!DOCTYPE svg PUBLIC "-//W3C//DTD SVG 1.1//EN" "http://www.w3.org/Graphics/SVG/1.1/DTD/svg11.dtd">
<svg width="100%" height="100%" viewBox="0 0 300 345" version="1.1" xmlns="http://www.w3.org/2000/svg" xmlns:xlink="http://www.w3.org/1999/xlink" xml:space="preserve" xmlns:serif="http://www.serif.com/" style="fill-rule:evenodd;clip-rule:evenodd;stroke-linejoin:round;stroke-miterlimit:2;">
    <g id="hair_26">
        <path d="M300,76.456L300,178.439L299.919,178.439C296.493,178.398 293.724,175.769 293.724,172.537C293.724,171.702 293.909,170.907 294.242,170.187C288.989,168.079 285.304,163.175 285.304,157.468C285.304,155.473 285.754,153.576 286.564,151.863C277.756,149.797 271.19,141.885 271.19,132.451C271.19,130.665 271.425,128.934 271.866,127.287C271.642,127.294 271.416,127.298 271.19,127.298C268.883,127.298 266.668,126.906 264.607,126.184L264.425,126.119C256.746,123.347 251.252,115.99 251.252,107.36C251.252,106.875 251.269,106.394 251.303,105.916C248.999,106.847 246.481,107.36 243.844,107.36C235.449,107.36 228.259,102.16 225.321,94.808C223.859,96.099 222.206,97.179 220.411,98C217.89,99.154 215.087,99.796 212.135,99.796C204.873,99.796 198.512,95.905 195.025,90.094C191.41,93.749 186.393,96.015 180.852,96.015C179.065,96.015 174.198,92.924 171.889,89.188C169.02,90.02 165.908,89.427 164.706,87.771C161.081,92.765 155.197,96.015 148.561,96.015C148.443,96.015 148.326,96.014 148.208,96.011C148.09,96.014 147.973,96.015 147.855,96.015C141.219,96.015 135.335,92.765 131.71,87.771C129.111,88.59 126.854,88.852 124.92,88.676C122.762,92.638 117.528,96.015 115.66,96.015C110.118,96.015 105.102,93.749 101.487,90.094C98,95.905 91.639,99.796 84.376,99.796C81.425,99.796 78.622,99.154 76.101,98C74.305,97.179 72.652,96.099 71.19,94.808C68.253,102.16 61.062,107.36 52.667,107.36C50.031,107.36 47.513,106.847 45.208,105.916C45.243,106.394 45.26,106.875 45.26,107.36C45.26,116.058 39.679,123.462 31.905,126.184C31.493,126.328 31.091,126.445 30.698,126.537C28.959,127.033 27.123,127.298 25.226,127.298C25,127.298 24.774,127.294 24.55,127.287C24.991,128.934 25.226,130.665 25.226,132.451C25.226,140.754 20.14,147.878 12.917,150.875C14.051,152.834 14.696,155.081 14.696,157.468C14.696,163.175 11.011,168.079 5.758,170.187C6.091,170.907 6.276,171.702 6.276,172.537C6.276,175.795 3.464,178.439 0,178.439L0,76.456L300,76.456Z" style="fill:#fabc2e;"/>
        <path d="M264.607,17.898C267.41,16.427 272.127,13.947 278.771,16.177C284.201,18 287.734,23.071 287.915,28.47C292.215,26.579 300,31.007 300,41.795L300,171.268L299.919,171.267C296.493,171.227 293.724,168.598 293.724,165.366C293.724,164.531 293.909,163.736 294.242,163.016C288.989,160.907 285.304,156.003 285.304,150.296C285.304,148.302 285.754,146.405 286.564,144.692C277.756,142.626 271.19,134.713 271.19,125.28C271.19,123.494 271.425,121.762 271.866,120.115C271.642,120.123 271.416,120.127 271.19,120.127C268.883,120.127 266.668,119.734 264.607,119.012L264.607,17.898ZM35.393,9.803L35.393,117.34C32.416,119.11 28.939,120.127 25.226,120.127C25,120.127 24.774,120.123 24.55,120.115C24.991,121.762 25.226,123.494 25.226,125.28C25.226,133.582 20.14,140.706 12.917,143.704C14.051,145.663 14.696,147.909 14.696,150.296C14.696,156.003 11.011,160.907 5.758,163.016C6.091,163.736 6.276,164.531 6.276,165.366C6.276,168.623 3.464,171.268 0,171.268L0,49.897C-0.339,39.729 7.464,35.163 15.178,37.121C11.761,33.349 11.018,25.008 17.238,21.102C23.7,17.044 29.458,19.773 32.203,21.199C32.13,17.569 32.467,13.436 35.393,9.803Z" style="fill:#00adaf;"/>
        <path d="M220.411,4.861C220.517,4.86 232.763,2.988 236.414,7.635C239.839,4.862 246.196,2.015 252.932,4.827C260.292,7.899 262.751,12.37 264.213,18.104C271.58,15.157 274.205,30.162 266.328,33.28C278.145,35.061 275.573,47.049 268.69,53.631C285.295,55.354 290.602,94.349 272.974,90.535C280.734,102.413 277.243,123.437 264.607,119.012C256.833,116.291 251.252,108.886 251.252,100.189C251.252,99.703 251.269,99.222 251.303,98.744C248.999,99.676 246.481,100.189 243.844,100.189C235.449,100.189 228.259,94.989 225.321,87.637C223.859,88.928 222.206,90.008 220.411,90.829L220.411,4.861Z" style="fill:#6ec800;"/>
        <path d="M220.411,0.002C230.843,-0.16 234.999,5.862 227.574,14.845C232.681,16.663 234.791,25.642 228.767,29.995C232.523,35.921 237.22,41.265 236.807,52.261C236.362,64.114 228.885,71.427 220.713,70.208C231.427,80.789 228.247,86.607 220.411,90.829C217.89,91.982 215.087,92.625 212.135,92.625C204.873,92.625 198.512,88.733 195.025,82.922C191.41,86.577 186.393,88.843 180.852,88.843C178.159,88.843 168.472,81.826 171.085,76.154L173.245,4.275C173.787,4.702 174.306,5.156 174.8,5.636C178.348,2.386 183.074,0.403 188.259,0.403C194.863,0.403 200.721,3.62 204.35,8.571C207.896,3.473 213.761,0.106 220.411,0.002Z" style="fill:#ffde00;"/>
        <g transform="matrix(-1,0,0,1,296.512,0)">
            <path d="M220.411,4.861C220.517,4.86 232.763,2.988 236.414,7.635C239.839,4.862 246.196,2.015 252.932,4.827C260.292,7.899 262.751,12.37 264.213,18.104C271.58,15.157 274.205,30.162 266.328,33.28C278.145,35.061 275.573,47.049 268.69,53.631C285.295,55.354 290.602,94.349 272.974,90.535C280.734,102.413 277.243,123.437 264.607,119.012C256.833,116.291 251.252,108.886 251.252,100.189C251.252,99.703 251.269,99.222 251.303,98.744C248.999,99.676 246.481,100.189 243.844,100.189C235.449,100.189 228.259,94.989 225.321,87.637C223.859,88.928 222.206,90.008 220.411,90.829L220.411,4.861Z" style="fill:#6ec800;"/>
        </g>
        <g transform="matrix(-1,0,0,1,296.512,0)">
            <path d="M220.411,0.002C230.843,-0.16 234.999,5.862 227.574,14.845C232.681,16.663 234.791,25.642 228.767,29.995C232.523,35.921 237.22,41.265 236.807,52.261C236.362,64.114 228.885,71.427 220.713,70.208C231.427,80.789 228.247,86.607 220.411,90.829C217.89,91.982 215.087,92.625 212.135,92.625C204.873,92.625 198.512,88.733 195.025,82.922C191.41,86.577 186.393,88.843 180.852,88.843C178.159,88.843 168.472,81.826 171.085,76.154L167.888,68.793L168.158,19.318L173.245,4.275C173.787,4.702 174.306,5.156 174.8,5.636C178.348,2.386 183.074,0.403 188.259,0.403C194.863,0.403 200.721,3.62 204.35,8.571C207.896,3.473 213.761,0.106 220.411,0.002Z" style="fill:#ffde00;"/>
        </g>
        <path d="M128.367,4.273C129.268,1.619 132.095,0 135.502,0C140.329,0 144.757,1.719 148.208,4.577C151.659,1.719 156.087,0 160.914,0C165.567,0 169.851,1.598 173.245,4.275C178.155,4.217 179.182,6.465 173.245,12.847C185.908,14.579 186.338,36.292 173.245,40.52C180.351,46.956 178.35,53.899 173.245,61.014C177.574,65.737 180.087,68.685 177.185,77.171C175.15,83.122 166.86,83.567 164.706,80.6C161.081,85.594 155.197,88.843 148.561,88.843C148.443,88.843 148.326,88.842 148.208,88.84C148.09,88.842 147.973,88.843 147.855,88.843C141.219,88.843 135.335,85.594 131.71,80.6C110.666,87.227 112.027,57.372 126.079,54.107C120.071,51.95 119.843,40.058 126.079,38.24C114.653,36.398 117.254,24.727 126.079,19.03C117.297,13.64 121.775,0.978 128.367,4.273Z" style="fill:#ff7c0a;"/>
    </g>
</svg>
