<?xml version="1.0" encoding="UTF-8" standalone="no"?>
<!DOCTYPE svg PUBLIC "-//W3C//DTD SVG 1.1//EN" "http://www.w3.org/Graphics/SVG/1.1/DTD/svg11.dtd">
<svg width="100%" height="100%" viewBox="0 0 300 345" version="1.1" xmlns="http://www.w3.org/2000/svg" xmlns:xlink="http://www.w3.org/1999/xlink" xml:space="preserve" xmlns:serif="http://www.serif.com/" style="fill-rule:evenodd;clip-rule:evenodd;stroke-linejoin:round;stroke-miterlimit:2;">
    <g id="hair_21">
        <path id="hair_14" d="M141.054,152.603C129.857,151.339 116.194,147.285 101.934,133.161C75.268,106.749 25.854,109.325 17.268,133.099L17.273,133.271L0,191.096L0,81.38C0,61.301 16.301,45 36.38,45L263.62,45C283.699,45 300,61.301 300,81.38L300,191.096L282.727,133.271L282.732,133.099C274.146,109.325 224.732,106.749 198.066,133.161C183.806,147.286 170.142,151.339 158.946,152.603L160.933,145.738L152.998,152.439L150,145.738L147.002,152.439L139.067,145.738L141.054,152.603Z" style="fill:#fabc2e;"/>
        <path d="M78.011,34.361C91.381,26.764 118.612,21.558 150,21.558C178.451,21.558 203.486,25.835 217.88,32.294C220.964,32.171 223.544,31.545 225.361,30.156C225.816,32.002 225.549,33.847 224.153,35.693C224.246,35.755 224.338,35.817 224.429,35.88C226.852,34.833 229.674,34.587 232.65,34.646L231.444,36.566C250.648,38.599 263.048,41.542 263.62,45C264.022,47.432 262.797,51.254 260.366,56.027C262.577,55.858 264.509,56.386 266.215,57.479C262.1,57.827 258.996,59.69 256.616,62.641L256.616,62.641C249.613,74.033 238.222,88.694 226.177,102.744C227.035,102.903 227.858,103.323 228.624,104.176L223.277,107.504C225.007,107.139 227.053,107.619 228.433,108.37L211.218,119.525C206.636,124.467 202.181,129.085 198.066,133.161C191.519,139.645 185.098,144.007 178.985,146.95C179.563,147.13 180.14,147.371 180.717,147.677L167.792,151.014C164.708,151.795 161.749,152.286 158.946,152.603L160.933,145.738L152.998,152.439L150,145.738L147.002,152.439L139.067,145.738L141.054,152.603C129.857,151.339 116.194,147.285 101.934,133.161L93.049,129.752C94.531,129.162 96.079,128.903 97.672,128.87L97.604,128.801C94.502,125.626 91.447,122.405 88.432,119.147C85.759,116.259 83.117,113.343 80.505,110.401C78.007,107.588 75.536,104.752 73.094,101.891C69.796,98.029 66.55,94.123 63.364,90.168L63.23,90.001C57.729,85.744 51.999,82.864 46.092,81.047C50.084,80.751 53.147,80.354 55.893,80.618C55.543,80.157 55.197,79.697 54.853,79.239L50.515,77.19L52.572,76.161C42.355,62.197 35.504,50.299 36.38,45C36.969,41.44 50.098,38.425 70.285,36.387L70.695,32.739C73.087,33.141 74.466,34.303 75.241,35.919C75.345,35.91 75.449,35.901 75.553,35.892C75.605,35.856 75.657,35.821 75.709,35.786L75.953,31.646C77.061,32.498 77.661,33.414 78.011,34.361Z" style="fill:#3f1c12;"/>
    </g>
</svg>
