<?xml version="1.0" encoding="UTF-8" standalone="no"?>
<!DOCTYPE svg PUBLIC "-//W3C//DTD SVG 1.1//EN" "http://www.w3.org/Graphics/SVG/1.1/DTD/svg11.dtd">
<svg width="100%" height="100%" viewBox="0 0 300 345" version="1.1" xmlns="http://www.w3.org/2000/svg" xmlns:xlink="http://www.w3.org/1999/xlink" xml:space="preserve" xmlns:serif="http://www.serif.com/" style="fill-rule:evenodd;clip-rule:evenodd;stroke-linejoin:round;stroke-miterlimit:2;">
    <g id="hair_22">
        <g transform="matrix(1,0,0,1,0,5)">
            <path d="M4.183,64.438C3.523,62.396 296.923,57.071 294.99,62.957C295.439,63.719 300,77.416 300,81.38L300,166.917C286.184,158.57 273.98,145.394 271.888,119.645C269.82,94.184 265.526,79.192 242.54,75.146C224.028,71.888 205.295,80.255 184.844,92.008C175.238,97.529 162.738,105.016 150,105.06C137.079,105.105 124.675,96.046 115.156,92.008C101.081,86.038 84.832,68.998 57.46,75.146C36.739,79.801 30.18,94.184 28.112,119.645C26.02,145.394 13.816,158.57 0,166.917L0,81.38C0,75.264 1.512,69.499 4.183,64.438Z" style="fill:#fabc2e;"/>
        </g>
        <path d="M104.2,32.662C107.537,23.772 116.477,18.161 130.432,15.486C124.93,22.714 122.462,29.942 123.246,37.171L145.363,2.299L152.224,32.486C166.512,23.962 177.682,13.357 184.723,0C200.724,13.793 204.491,22.177 199.546,38.297C206.829,28.835 217.199,28.566 230.441,25.061L227.238,38.578C232.658,25.049 247.843,22.807 258.639,11.966L259.942,38.962C264.558,32.207 270.419,28.565 278.013,29.257L271.36,45.827C276.093,46.854 280.484,48.804 284.336,51.478C289.493,50.554 294.249,47.834 297.798,45C298.018,51.101 296.923,57.071 294.99,62.957C295.439,63.719 295.861,64.499 296.255,65.296L300,62.596L298.191,70.027C299.365,73.6 300,77.416 300,81.38L300,166.917C286.184,158.57 277.853,145.394 275.761,119.645C273.693,94.184 265.526,79.192 242.54,75.146C224.028,71.888 205.295,80.255 184.844,92.008C175.238,97.529 162.738,105.016 150,105.06C137.079,105.105 124.675,96.046 115.156,92.008C101.081,86.038 84.832,68.998 57.46,75.146C36.739,79.801 26.307,94.184 24.239,119.645C22.147,145.394 13.816,158.57 0,166.917L0,81.38C0,75.264 1.512,69.499 4.183,64.438C3.523,62.396 2.487,60.605 1.118,59.036C3.117,57.052 5.741,56.695 8.853,57.604C9.153,57.257 9.46,56.916 9.773,56.58C7.723,52.949 7.027,49.11 8.094,45C10.943,47.33 15.212,48.398 20.283,48.751C24.028,46.898 28.139,45.671 32.477,45.207C27.706,34.45 31.565,22.988 42.691,10.933L78.301,45C74.048,39.759 74.157,30.94 76.905,26.89C77.485,26.036 82.402,29.981 87.867,34.803C87.188,24.961 89.096,15.749 94.872,7.478L104.2,32.662Z" style="fill:#3f1c12;"/>
    </g>
</svg>
