<?xml version="1.0" encoding="UTF-8" standalone="no"?>
<!DOCTYPE svg PUBLIC "-//W3C//DTD SVG 1.1//EN" "http://www.w3.org/Graphics/SVG/1.1/DTD/svg11.dtd">
<svg width="100%" height="100%" viewBox="0 0 300 345" version="1.1" xmlns="http://www.w3.org/2000/svg" xmlns:xlink="http://www.w3.org/1999/xlink" xml:space="preserve" xmlns:serif="http://www.serif.com/" style="fill-rule:evenodd;clip-rule:evenodd;stroke-linejoin:round;stroke-miterlimit:2;">
    <g id="avatar_eyebrows_11">
        <g transform="matrix(0.976502,-0.21551,0.21551,0.976502,-28.8519,59.8427)">
            <path d="M214.653,138.927C225.399,137.258 235.62,137.138 245.367,137.138C250.398,137.138 260.349,137.886 267.14,141.65C270.429,143.473 273.573,145.546 276.37,148.06C277.756,149.3 279.052,150.637 280.25,152.06C281.46,153.464 282.522,154.989 283.42,156.61C280.13,154.95 276.95,153.5 273.74,152.22C270.619,150.944 267.438,149.809 264.18,148.94C249.346,144.981 225.622,147.464 213.47,149.169C212.384,145.467 212.707,142.039 214.653,138.927ZM205.751,140.666C206.054,143.875 207.236,146.916 209.308,149.788L209.308,149.788C207.054,150.143 205.751,150.382 205.751,150.382C204.35,150.382 203.213,149.245 203.213,147.844L203.213,144.557C203.213,143.162 203.773,141.15 205.728,140.671L205.751,140.666ZM212.041,139.362C211.04,142.69 211.389,146.017 212.242,149.345C211.748,149.416 211.277,149.486 210.832,149.553C209.168,146.57 208.201,143.442 208.559,140.037C209.726,139.792 210.886,139.568 212.041,139.362Z" style="fill:#3f1c12;fill-rule:nonzero;"/>
        </g>
        <g transform="matrix(-0.976502,-0.21551,-0.21551,0.976502,328.852,59.8427)">
            <path d="M214.653,138.927C225.399,137.258 235.62,137.138 245.367,137.138C250.398,137.138 260.349,137.886 267.14,141.65C270.429,143.473 273.573,145.546 276.37,148.06C277.756,149.3 279.052,150.637 280.25,152.06C281.46,153.464 282.522,154.989 283.42,156.61C280.13,154.95 276.95,153.5 273.74,152.22C270.619,150.944 267.438,149.809 264.18,148.94C249.346,144.981 225.622,147.464 213.47,149.169C212.384,145.467 212.707,142.039 214.653,138.927ZM205.751,140.666C206.054,143.875 207.236,146.916 209.308,149.788L209.308,149.788C207.054,150.143 205.751,150.382 205.751,150.382C204.35,150.382 203.213,149.245 203.213,147.844L203.213,144.557C203.213,143.162 203.773,141.15 205.728,140.671L205.751,140.666ZM212.041,139.362C211.04,142.69 211.389,146.017 212.242,149.345C211.748,149.416 211.277,149.486 210.832,149.553C209.168,146.57 208.201,143.442 208.559,140.037C209.726,139.792 210.886,139.568 212.041,139.362Z" style="fill:#3f1c12;fill-rule:nonzero;"/>
        </g>
    </g>
</svg>
