<svg id="Layer_1" data-name="Layer 1" xmlns="http://www.w3.org/2000/svg" viewBox="0 0 300 345"><g id="assets"><g id="clothing"><path d="M298.49,319h-9.9c-12.52,0-25.46-9.34-27.83-20.62H213.68C212.22,311.63,203.1,315,185.85,315h-71.7c-17.25,0-26.37-3.37-27.83-16.61H39.24C36.87,309.67,23.93,319,11.41,319H1.51a36.43,36.43,0,0,0,28.58,25.44,55.77,55.77,0,0,0,6.29.55H263.62a54.8,54.8,0,0,0,6.39-.57A36.41,36.41,0,0,0,298.49,319Z" fill="#ce2135"/><path d="M78.32,298.39v.44l.05.44c1,9.07,5.08,15.61,12.14,19.43,5.5,3,12.8,4.3,23.64,4.3h71.7c10.84,0,18.14-1.33,23.64-4.3,7.06-3.82,11.14-10.36,12.14-19.43l0-.37v-.51h-3v.32l0,.23c-2,18.51-17,21.06-32.8,21.06h-71.7c-15.83,0-30.76-2.55-32.8-21.06l0-.27v-.28Z" fill="#ffcc05"/><path d="M44.22,299l-.09.42c-2.85,13.58-18,24.63-32.72,24.63h-8c.49,1,1,2,1.6,3h6.38c16.32,0,32.47-11.89,35.66-27l.14-.68,0-.69v-.28h-3v.18Z" fill="#ffcc05"/><path d="M252.79,299.4l.14.64c3.19,15.14,19.34,27,35.66,27H295c.58-1,1.11-2,1.6-3h-8c-14.7,0-29.87-11.05-32.72-24.63l-.09-.4,0-.41v-.22h-3l0,.36Z" fill="#ffcc05"/></g></g></svg>