<svg id="Layer_1" data-name="Layer 1" xmlns="http://www.w3.org/2000/svg" xmlns:xlink="http://www.w3.org/1999/xlink" viewBox="0 0 300 345"><defs><linearGradient id="linear-gradient" x1="150" y1="355.74" x2="150" y2="167.31" gradientUnits="userSpaceOnUse"><stop offset="0" stop-color="#c6e9f6"/><stop offset="0.69" stop-color="#6eb7cb"/></linearGradient></defs><g id="assets"><g id="clothing"><path d="M263.62,298.39H219.74L150,323.83,80.6,298.39H36.38A36.38,36.38,0,0,1,0,262v46.61A36.38,36.38,0,0,0,36.38,345H263.62A36.38,36.38,0,0,0,300,308.62V262A36.38,36.38,0,0,1,263.62,298.39Z" fill="url(#linear-gradient)"/><path d="M71.19,297.71l70.37,15L123.3,336.4a10.21,10.21,0,0,1-15.67.61Z" fill="#6eb7cb"/><path d="M228.81,297.71l-70.37,15L176.7,336.4a10.21,10.21,0,0,0,15.67.61Z" fill="#6eb7cb"/><polygon points="134.85 344.95 165.15 344.95 162.1 323.36 137.9 323.36 134.85 344.95" fill="#8c141c"/><path d="M162.11,323.36H137.89l-.87,6.18.31.63a9.68,9.68,0,0,0,8.7,5.43H154a9.68,9.68,0,0,0,8.7-5.43l.31-.63Z" fill="#7a0b16"/><path d="M154,329.72H146a9.67,9.67,0,0,1-8.7-5.42l-10.57-21.6h46.48l-10.57,21.6A9.67,9.67,0,0,1,154,329.72Z" fill="#ce2135"/><path d="M71.19,297.71,144,302.5l-18.26,23.72a10.2,10.2,0,0,1-15.67.61Z" fill="#c6e9f6"/><path d="M228.81,297.71l-72.76,4.79,18.26,23.72a10.2,10.2,0,0,0,15.67.61Z" fill="#c6e9f6"/></g></g></svg>