<?xml version="1.0" encoding="UTF-8" standalone="no"?>
<!DOCTYPE svg PUBLIC "-//W3C//DTD SVG 1.1//EN" "http://www.w3.org/Graphics/SVG/1.1/DTD/svg11.dtd">
<svg width="100%" height="100%" viewBox="0 0 280 62" version="1.1" xmlns="http://www.w3.org/2000/svg" xmlns:xlink="http://www.w3.org/1999/xlink" xml:space="preserve" xmlns:serif="http://www.serif.com/" style="fill-rule:evenodd;clip-rule:evenodd;stroke-linejoin:round;stroke-miterlimit:2;">
    <g id="banner_25" transform="matrix(1,0,0,1,0,-8.7)">
        <path d="M280,47.751L-0,47.751L-0,65.286C-0,67.888 2.112,70 4.714,70L275.286,70C277.888,70 280,67.888 280,65.286L280,47.751Z" style="fill:#2c0d00;"/>
        <g transform="matrix(-0.893232,-1.09389e-16,8.74808e-17,-0.714335,285.834,65.8968)">
            <path d="M320,8.028C320,5.159 318.138,2.83 315.844,2.83L10.688,2.83C8.394,2.83 6.532,5.159 6.532,8.028L6.532,74.803C6.532,77.671 8.394,80 10.688,80L315.844,80C318.138,80 320,77.671 320,74.803L320,8.028Z" style="fill:#611d00;"/>
        </g>
        <path d="M179.763,58.266L273.929,58.266L273.929,20.811L257.966,20.811L257.966,17.965L226.828,17.965L226.828,25.289L211.771,25.289L211.771,46.6L179.763,46.6L179.763,58.266ZM6.256,58.266L76.304,58.266L76.304,30.981L47.136,30.981L47.136,19.893L35.585,19.893L35.585,27.092L23.934,27.092L23.934,18.29L6.256,18.29L6.256,58.266Z" style="fill:#451500;"/>
        <path d="M-0,18.714L280,18.714L280,12.463C280,10.414 278.336,8.75 276.287,8.75L3.713,8.75C1.664,8.75 -0,10.414 -0,12.463L-0,18.714Z" style="fill:#2c0d00;"/>
        <g>
            <g transform="matrix(6.09008,0,0,1,-927.473,0)">
                <rect x="182.212" y="49.146" width="4.73" height="7.502" style="fill:#fffdb8;"/>
            </g>
            <g transform="matrix(1,0,0,1,0,-0.153504)">
                <path d="M211.021,55.385L182.212,55.385L182.212,55.858L211.021,55.858L211.021,55.385ZM211.021,54.171L182.212,54.171L182.212,54.643L211.021,54.643L211.021,54.171ZM211.021,52.897L182.212,52.897L182.212,53.37L211.021,53.37L211.021,52.897ZM211.021,51.653L182.212,51.653L182.212,52.126L211.021,52.126L211.021,51.653ZM211.021,50.359L182.212,50.359L182.212,50.832L211.021,50.832L211.021,50.359Z" style="fill:#d6d489;"/>
            </g>
            <g transform="matrix(1,0,0,1,1.21783,1.87715)">
                <path d="M210.294,55.254C210.022,55.256 209.803,55.477 209.803,55.748L209.377,55.748L209.377,46.407L209.803,46.407C209.803,46.68 210.024,46.901 210.297,46.901L210.3,46.901C210.571,46.899 210.791,46.679 210.791,46.407L211.217,46.407L211.217,55.748L210.791,55.748C210.791,55.476 210.57,55.254 210.297,55.254L210.294,55.254Z" style="fill:#3b6f30;"/>
            </g>
            <g transform="matrix(1,0,0,1,1.1964,0)">
                <path d="M210.838,48.284L210.838,57.626L211.833,57.626C211.9,57.626 211.955,57.571 211.955,57.504L211.955,48.405C211.955,48.338 211.9,48.284 211.833,48.284L210.838,48.284Z" style="fill:#3e892e;"/>
            </g>
            <g transform="matrix(1,0,0,1,1.73968,0)">
                <path d="M209.281,48.284L180.237,48.284C179.938,48.284 179.695,48.527 179.695,48.825L179.695,49.139C179.695,49.438 179.938,49.681 180.237,49.681L208.152,49.681C208.855,49.639 208.855,56.309 208.152,56.298L180.237,56.298C179.938,56.298 179.695,56.541 179.695,56.84L179.695,57.084C179.695,57.383 179.938,57.626 180.237,57.626L209.281,57.626L209.281,48.284Z" style="fill:#3e892e;"/>
            </g>
        </g>
        <g>
            <g transform="matrix(1,0,0,1.13009,-10.936,-6.17439)">
                <path d="M32.083,21.423C32.083,20.581 31.31,19.898 30.359,19.898L19.825,19.898C18.874,19.898 18.101,20.581 18.101,21.423L18.101,54.93C18.101,55.772 18.874,56.456 19.825,56.456L30.359,56.456C31.31,56.456 32.083,55.772 32.083,54.93L32.083,21.423Z" style="fill:#0068d0;"/>
            </g>
            <path d="M9.27,16.312L8.889,16.312C7.938,16.312 7.165,17.084 7.165,18.036L7.165,55.901C7.165,56.853 7.938,57.626 8.889,57.626L9.27,57.626L9.27,16.312ZM19.041,16.312L19.041,57.626L19.423,57.626C20.374,57.626 21.147,56.853 21.147,55.901L21.147,18.036C21.147,17.084 20.374,16.312 19.423,16.312L19.041,16.312Z" style="fill:#0054a9;"/>
            <g transform="matrix(1.08532,0,0,1.11063,-1.80428,-1.55152)">
                <rect x="8.264" y="26.768" width="12.883" height="16.293" style="fill:#ffd585;"/>
            </g>
            <g transform="matrix(1,0,0,0.782671,0,8.8054)">
                <path d="M9.27,24.752L7.165,24.752L7.165,47.873L9.27,47.873L9.27,24.752ZM19.041,24.752L19.041,47.873L21.147,47.873L21.147,24.752L19.041,24.752Z" style="fill:#ffc350;"/>
            </g>
            <g transform="matrix(1.08532,0,0,0.082725,-1.80428,51.7146)">
                <rect x="8.264" y="26.768" width="12.883" height="16.293" style="fill:#ffd585;"/>
            </g>
            <g transform="matrix(1,0,0,0.0582971,0,52.486)">
                <path d="M9.27,24.752L7.165,24.752L7.165,47.873L9.27,47.873L9.27,24.752ZM19.041,24.752L19.041,47.873L21.147,47.873L21.147,24.752L19.041,24.752Z" style="fill:#ffc350;"/>
            </g>
            <g transform="matrix(1.08532,0,0,0.082725,-1.80428,17.5156)">
                <rect x="8.264" y="26.768" width="12.883" height="16.293" style="fill:#ffd585;"/>
            </g>
            <g transform="matrix(1,0,0,0.0582971,0,18.287)">
                <path d="M9.27,24.752L7.165,24.752L7.165,47.873L9.27,47.873L9.27,24.752ZM19.041,24.752L19.041,47.873L21.147,47.873L21.147,24.752L19.041,24.752Z" style="fill:#ffc350;"/>
            </g>
        </g>
        <g>
            <g transform="matrix(0.600262,0,0,0.796753,18.6742,12.6442)">
                <path d="M32.083,21.197C32.083,20.48 31.31,19.898 30.359,19.898L19.825,19.898C18.874,19.898 18.101,20.48 18.101,21.197L18.101,55.157C18.101,55.874 18.874,56.456 19.825,56.456L30.359,56.456C31.31,56.456 32.083,55.874 32.083,55.157L32.083,21.197Z" style="fill:#d0a500;"/>
            </g>
            <path d="M30.645,28.498L30.574,28.498C30.003,28.498 29.54,28.962 29.54,29.533L29.54,56.591C29.54,57.162 30.003,57.626 30.574,57.626L30.645,57.626L30.645,28.498ZM36.827,28.498L36.827,57.626L36.897,57.626C37.469,57.626 37.932,57.162 37.932,56.591L37.932,29.533C37.932,28.962 37.469,28.498 36.897,28.498L36.827,28.498Z" style="fill:#b08c00;"/>
            <rect x="29.54" y="32.019" width="8.393" height="1.461" style="fill:#d06f00;"/>
            <path d="M30.645,32.019L29.54,32.019L29.54,33.481L30.645,33.481L30.645,32.019ZM36.827,32.019L36.827,33.481L37.932,33.481L37.932,32.019L36.827,32.019Z" style="fill:#ab5b00;"/>
            <g transform="matrix(1,0,0,1,0,2.48939)">
                <rect x="29.54" y="32.019" width="8.393" height="1.461" style="fill:#d06f00;"/>
            </g>
            <g transform="matrix(1,0,0,1,0,2.48939)">
                <path d="M30.645,32.019L29.54,32.019L29.54,33.481L30.645,33.481L30.645,32.019ZM36.827,32.019L36.827,33.481L37.932,33.481L37.932,32.019L36.827,32.019Z" style="fill:#ab5b00;"/>
            </g>
            <g transform="matrix(1,0,0,1,0,21.4269)">
                <rect x="29.54" y="32.019" width="8.393" height="1.461" style="fill:#d06f00;"/>
            </g>
            <g transform="matrix(1,0,0,1,0,21.4269)">
                <path d="M30.645,32.019L29.54,32.019L29.54,33.481L30.645,33.481L30.645,32.019ZM36.827,32.019L36.827,33.481L37.932,33.481L37.932,32.019L36.827,32.019Z" style="fill:#ab5b00;"/>
            </g>
            <g transform="matrix(1,0,0,1,-0.0265137,0.300651)">
                <rect x="31.493" y="36.599" width="4.54" height="0.962" style="fill:#d06f00;"/>
            </g>
        </g>
        <g transform="matrix(1,0,0,1,-8.39277,0)">
            <g transform="matrix(0.600262,0,0,0.796753,18.6742,12.6442)">
                <path d="M32.083,21.197C32.083,20.48 31.31,19.898 30.359,19.898L19.825,19.898C18.874,19.898 18.101,20.48 18.101,21.197L18.101,55.157C18.101,55.874 18.874,56.456 19.825,56.456L30.359,56.456C31.31,56.456 32.083,55.874 32.083,55.157L32.083,21.197Z" style="fill:#d0a500;"/>
            </g>
            <path d="M30.645,28.498L30.574,28.498C30.003,28.498 29.54,28.962 29.54,29.533L29.54,56.591C29.54,57.162 30.003,57.626 30.574,57.626L30.645,57.626L30.645,28.498ZM36.827,28.498L36.827,57.626L36.897,57.626C37.469,57.626 37.932,57.162 37.932,56.591L37.932,29.533C37.932,28.962 37.469,28.498 36.897,28.498L36.827,28.498Z" style="fill:#b08c00;"/>
            <rect x="29.54" y="32.019" width="8.393" height="1.461" style="fill:#d06f00;"/>
            <path d="M30.645,32.019L29.54,32.019L29.54,33.481L30.645,33.481L30.645,32.019ZM36.827,32.019L36.827,33.481L37.932,33.481L37.932,32.019L36.827,32.019Z" style="fill:#ab5b00;"/>
            <g transform="matrix(1,0,0,1,0,2.48939)">
                <rect x="29.54" y="32.019" width="8.393" height="1.461" style="fill:#d06f00;"/>
            </g>
            <g transform="matrix(1,0,0,1,0,2.48939)">
                <path d="M30.645,32.019L29.54,32.019L29.54,33.481L30.645,33.481L30.645,32.019ZM36.827,32.019L36.827,33.481L37.932,33.481L37.932,32.019L36.827,32.019Z" style="fill:#ab5b00;"/>
            </g>
            <g transform="matrix(1,0,0,1,0,21.4269)">
                <rect x="29.54" y="32.019" width="8.393" height="1.461" style="fill:#d06f00;"/>
            </g>
            <g transform="matrix(1,0,0,1,0,21.4269)">
                <path d="M30.645,32.019L29.54,32.019L29.54,33.481L30.645,33.481L30.645,32.019ZM36.827,32.019L36.827,33.481L37.932,33.481L37.932,32.019L36.827,32.019Z" style="fill:#ab5b00;"/>
            </g>
            <g transform="matrix(1,0,0,1,-0.0265137,0.300651)">
                <rect x="31.493" y="36.599" width="4.54" height="0.962" style="fill:#d06f00;"/>
            </g>
        </g>
        <g>
            <g transform="matrix(0.521625,0,0,0.987229,28.4904,1.89072)">
                <path d="M32.083,20.809C32.083,20.306 31.31,19.898 30.359,19.898L19.825,19.898C18.874,19.898 18.101,20.306 18.101,20.809L18.101,55.545C18.101,56.048 18.874,56.456 19.825,56.456L30.359,56.456C31.31,56.456 32.083,56.048 32.083,55.545L32.083,20.809Z" style="fill:#3e892e;"/>
            </g>
            <path d="M38.803,21.535C38.32,21.55 37.932,21.947 37.932,22.434L37.932,56.726C37.932,57.213 38.32,57.61 38.803,57.625L38.803,21.535ZM44.355,21.535L44.355,57.625C44.838,57.61 45.226,57.213 45.226,56.726L45.226,22.434C45.226,21.947 44.838,21.55 44.355,21.535Z" style="fill:#41633a;"/>
            <path d="M45.226,50.527L45.226,49.112L37.932,49.112L37.932,50.527L45.226,50.527ZM45.226,47.512L37.932,47.512L37.932,29.677L45.226,29.677L45.226,47.512ZM41.579,30.744C42.63,30.744 43.484,31.598 43.484,32.649C43.484,33.7 42.63,34.554 41.579,34.554C40.528,34.554 39.674,33.7 39.674,32.649C39.674,31.598 40.528,30.744 41.579,30.744ZM45.226,28.077L45.226,26.768L37.932,26.768L37.932,28.077L45.226,28.077Z" style="fill:#2c6400;"/>
            <path d="M38.803,49.112L37.932,49.112L37.932,50.527L38.803,50.527L38.803,49.112ZM45.226,50.527L45.226,49.112L44.355,49.112L44.355,50.527L45.226,50.527ZM38.803,47.512L37.932,47.512L37.932,29.677L38.803,29.677L38.803,47.512ZM45.226,47.512L44.355,47.512L44.355,29.677L45.226,29.677L45.226,47.512ZM38.803,28.077L38.803,26.768L37.932,26.768L37.932,28.077L38.803,28.077ZM45.226,28.077L45.226,26.768L44.355,26.768L44.355,28.077L45.226,28.077Z" style="fill:#1c4000;"/>
        </g>
        <g>
            <g transform="matrix(0.521625,0,0,0.664423,57.6635,20.115)">
                <path d="M32.083,21.251C32.083,20.504 31.31,19.898 30.359,19.898L19.825,19.898C18.874,19.898 18.101,20.504 18.101,21.251L18.101,55.102C18.101,55.849 18.874,56.456 19.825,56.456L30.359,56.456C31.31,56.456 32.083,55.849 32.083,55.102L32.083,21.251Z" style="fill:#9900a9;"/>
            </g>
            <path d="M68.641,33.336L68.005,33.336C67.508,33.336 67.105,33.739 67.105,34.235L67.105,56.726C67.105,57.223 67.508,57.626 68.005,57.626L68.641,57.626L68.641,33.336ZM72.863,33.336L72.863,57.626L73.499,57.626C73.996,57.626 74.399,57.223 74.399,56.726L74.399,34.235C74.399,33.739 73.996,33.336 73.499,33.336L72.863,33.336Z" style="fill:#7e008b;"/>
            <path d="M74.399,37.103L67.105,37.103L67.105,37.833L74.399,37.833L74.399,37.103ZM74.399,35L67.105,35L67.105,36.459L74.399,36.459L74.399,35Z" style="fill:#f6a6ff;"/>
            <path d="M68.641,37.103L67.105,37.103L67.105,37.833L68.641,37.833L68.641,37.103ZM72.863,37.103L72.863,37.833L74.399,37.833L74.399,37.103L72.863,37.103ZM68.641,35L67.105,35L67.105,36.459L68.641,36.459L68.641,35ZM72.863,35L72.863,36.459L74.399,36.459L74.399,35L72.863,35Z" style="fill:#e37aee;"/>
            <g transform="matrix(0.307609,0,0,5.01728,48.9881,-148.057)">
                <rect x="67.105" y="37.568" width="7.293" height="2.012" style="fill:#f6a6ff;"/>
            </g>
            <g transform="matrix(1,0,0,1,0,2.25558)">
                <circle cx="70.752" cy="52.561" r="1.122" style="fill:#f6a6ff;"/>
            </g>
        </g>
        <g transform="matrix(1,0,0,1,-14.5866,0)">
            <g transform="matrix(0.521625,0,0,0.664423,57.6635,20.115)">
                <path d="M32.083,21.251C32.083,20.504 31.31,19.898 30.359,19.898L19.825,19.898C18.874,19.898 18.101,20.504 18.101,21.251L18.101,55.102C18.101,55.849 18.874,56.456 19.825,56.456L30.359,56.456C31.31,56.456 32.083,55.849 32.083,55.102L32.083,21.251Z" style="fill:#9900a9;"/>
            </g>
            <path d="M68.641,33.336L68.005,33.336C67.508,33.336 67.105,33.739 67.105,34.235L67.105,56.726C67.105,57.223 67.508,57.626 68.005,57.626L68.641,57.626L68.641,33.336ZM72.863,33.336L72.863,57.626L73.499,57.626C73.996,57.626 74.399,57.223 74.399,56.726L74.399,34.235C74.399,33.739 73.996,33.336 73.499,33.336L72.863,33.336Z" style="fill:#7e008b;"/>
            <path d="M74.399,37.103L67.105,37.103L67.105,37.833L74.399,37.833L74.399,37.103ZM74.399,35L67.105,35L67.105,36.459L74.399,36.459L74.399,35Z" style="fill:#f6a6ff;"/>
            <path d="M68.641,37.103L67.105,37.103L67.105,37.833L68.641,37.833L68.641,37.103ZM72.863,37.103L72.863,37.833L74.399,37.833L74.399,37.103L72.863,37.103ZM68.641,35L67.105,35L67.105,36.459L68.641,36.459L68.641,35ZM72.863,35L72.863,36.459L74.399,36.459L74.399,35L72.863,35Z" style="fill:#e37aee;"/>
            <g transform="matrix(0.307609,0,0,5.01728,48.9881,-148.057)">
                <rect x="67.105" y="37.568" width="7.293" height="2.012" style="fill:#f6a6ff;"/>
            </g>
            <g transform="matrix(1,0,0,1,0,2.25558)">
                <circle cx="70.752" cy="52.561" r="1.122" style="fill:#f6a6ff;"/>
            </g>
        </g>
        <g transform="matrix(1,0,0,1,-21.8798,0)">
            <g transform="matrix(0.521625,0,0,0.664423,57.6635,20.115)">
                <path d="M32.083,21.251C32.083,20.504 31.31,19.898 30.359,19.898L19.825,19.898C18.874,19.898 18.101,20.504 18.101,21.251L18.101,55.102C18.101,55.849 18.874,56.456 19.825,56.456L30.359,56.456C31.31,56.456 32.083,55.849 32.083,55.102L32.083,21.251Z" style="fill:#9900a9;"/>
            </g>
            <path d="M68.641,33.336L68.005,33.336C67.508,33.336 67.105,33.739 67.105,34.235L67.105,56.726C67.105,57.223 67.508,57.626 68.005,57.626L68.641,57.626L68.641,33.336ZM72.863,33.336L72.863,57.626L73.499,57.626C73.996,57.626 74.399,57.223 74.399,56.726L74.399,34.235C74.399,33.739 73.996,33.336 73.499,33.336L72.863,33.336Z" style="fill:#7e008b;"/>
            <path d="M74.399,37.103L67.105,37.103L67.105,37.833L74.399,37.833L74.399,37.103ZM74.399,35L67.105,35L67.105,36.459L74.399,36.459L74.399,35Z" style="fill:#f6a6ff;"/>
            <path d="M68.641,37.103L67.105,37.103L67.105,37.833L68.641,37.833L68.641,37.103ZM72.863,37.103L72.863,37.833L74.399,37.833L74.399,37.103L72.863,37.103ZM68.641,35L67.105,35L67.105,36.459L68.641,36.459L68.641,35ZM72.863,35L72.863,36.459L74.399,36.459L74.399,35L72.863,35Z" style="fill:#e37aee;"/>
            <g transform="matrix(0.307609,0,0,5.01728,48.9881,-148.057)">
                <rect x="67.105" y="37.568" width="7.293" height="2.012" style="fill:#f6a6ff;"/>
            </g>
            <g transform="matrix(1,0,0,1,0,2.25558)">
                <circle cx="70.752" cy="52.561" r="1.122" style="fill:#f6a6ff;"/>
            </g>
        </g>
        <g transform="matrix(1,0,0,1,-7.29328,0)">
            <g transform="matrix(0.521625,0,0,0.664423,57.6635,20.115)">
                <path d="M32.083,21.251C32.083,20.504 31.31,19.898 30.359,19.898L19.825,19.898C18.874,19.898 18.101,20.504 18.101,21.251L18.101,55.102C18.101,55.849 18.874,56.456 19.825,56.456L30.359,56.456C31.31,56.456 32.083,55.849 32.083,55.102L32.083,21.251Z" style="fill:#9900a9;"/>
            </g>
            <path d="M68.641,33.336L68.005,33.336C67.508,33.336 67.105,33.739 67.105,34.235L67.105,56.726C67.105,57.223 67.508,57.626 68.005,57.626L68.641,57.626L68.641,33.336ZM72.863,33.336L72.863,57.626L73.499,57.626C73.996,57.626 74.399,57.223 74.399,56.726L74.399,34.235C74.399,33.739 73.996,33.336 73.499,33.336L72.863,33.336Z" style="fill:#7e008b;"/>
            <path d="M74.399,37.103L67.105,37.103L67.105,37.833L74.399,37.833L74.399,37.103ZM74.399,35L67.105,35L67.105,36.459L74.399,36.459L74.399,35Z" style="fill:#f6a6ff;"/>
            <path d="M68.641,37.103L67.105,37.103L67.105,37.833L68.641,37.833L68.641,37.103ZM72.863,37.103L72.863,37.833L74.399,37.833L74.399,37.103L72.863,37.103ZM68.641,35L67.105,35L67.105,36.459L68.641,36.459L68.641,35ZM72.863,35L72.863,36.459L74.399,36.459L74.399,35L72.863,35Z" style="fill:#e37aee;"/>
            <g transform="matrix(0.307609,0,0,5.01728,48.9881,-148.057)">
                <rect x="67.105" y="37.568" width="7.293" height="2.012" style="fill:#f6a6ff;"/>
            </g>
            <g transform="matrix(1,0,0,1,0,2.25558)">
                <circle cx="70.752" cy="52.561" r="1.122" style="fill:#f6a6ff;"/>
            </g>
        </g>
        <g>
            <g transform="matrix(0.639581,0,0,1.13009,234.787,-6.17439)">
                <path d="M32.083,20.874C32.083,20.335 31.31,19.898 30.359,19.898L19.825,19.898C18.874,19.898 18.101,20.335 18.101,20.874L18.101,55.48C18.101,56.019 18.874,56.456 19.825,56.456L30.359,56.456C31.31,56.456 32.083,56.019 32.083,55.48L32.083,20.874Z" style="fill:#0068d0;"/>
            </g>
            <path d="M253.898,16.312L253.898,57.626L254.204,57.626C254.813,57.626 255.307,57.131 255.307,56.523L255.307,17.415C255.307,16.806 254.813,16.312 254.204,16.312L253.898,16.312Z" style="fill:#05a;"/>
            <g transform="matrix(-1,0,0,1,501.671,0)">
                <path d="M253.898,16.312L253.898,57.626L254.204,57.626C254.813,57.626 255.307,57.131 255.307,56.523L255.307,17.415C255.307,16.806 254.813,16.312 254.204,16.312L253.898,16.312Z" style="fill:#05a;"/>
            </g>
            <g transform="matrix(1.03848,0,0,5.62667,-9.82302,-95.6972)">
                <rect x="246.696" y="20.798" width="8.611" height="1.955" style="fill:#61b0ff;"/>
            </g>
            <g transform="matrix(1.03848,0,0,1,-9.82302,0)">
                <rect x="246.696" y="20.798" width="8.611" height="1.955" style="fill:#fbd574;"/>
            </g>
            <g transform="matrix(1.03848,0,0,1,-9.82302,10.1214)">
                <rect x="246.696" y="20.798" width="8.611" height="1.955" style="fill:#fbd574;"/>
            </g>
            <g transform="matrix(0.279836,0,0,5.62667,183.863,-95.6972)">
                <rect x="250.272" y="20.798" width="5.035" height="1.955" style="fill:#4ca5ff;"/>
            </g>
            <g transform="matrix(0.279836,0,0,1,183.863,0)">
                <rect x="250.272" y="20.798" width="5.035" height="1.955" style="fill:#d8b661;"/>
            </g>
            <g transform="matrix(0.279836,0,0,1,183.863,10.1214)">
                <rect x="250.272" y="20.798" width="5.035" height="1.955" style="fill:#d8b661;"/>
            </g>
            <g transform="matrix(-0.279836,0,0,5.62667,317.808,-95.6972)">
                <rect x="250.272" y="20.798" width="5.035" height="1.955" style="fill:#4ca5ff;"/>
            </g>
            <g transform="matrix(-0.279836,0,0,1,317.808,0)">
                <rect x="250.272" y="20.798" width="5.035" height="1.955" style="fill:#d8b661;"/>
            </g>
            <g transform="matrix(-0.279836,0,0,1,317.808,10.1214)">
                <rect x="250.272" y="20.798" width="5.035" height="1.955" style="fill:#d8b661;"/>
            </g>
            <g transform="matrix(1.03848,0,0,1,-9.82302,30.6066)">
                <rect x="246.696" y="20.798" width="8.611" height="1.955" style="fill:#fbd574;"/>
            </g>
            <g transform="matrix(0.279836,0,0,1,183.863,30.6066)">
                <rect x="250.272" y="20.798" width="5.035" height="1.955" style="fill:#d8b661;"/>
            </g>
            <g transform="matrix(-0.279836,0,0,1,317.808,30.6066)">
                <rect x="250.272" y="20.798" width="5.035" height="1.955" style="fill:#d8b661;"/>
            </g>
            <g transform="matrix(1.03848,0,0,0.392362,-9.82302,41.6931)">
                <rect x="246.696" y="20.798" width="8.611" height="1.955" style="fill:#fbd574;"/>
            </g>
            <g transform="matrix(0.279836,0,0,0.392362,183.863,41.6931)">
                <rect x="250.272" y="20.798" width="5.035" height="1.955" style="fill:#d8b661;"/>
            </g>
            <g transform="matrix(-0.279836,0,0,0.392362,317.808,41.6931)">
                <rect x="250.272" y="20.798" width="5.035" height="1.955" style="fill:#d8b661;"/>
            </g>
            <g transform="matrix(1.83468,0,0,1.83468,-209.809,-21.8799)">
                <circle cx="251.077" cy="26.548" r="1.293" style="fill:#d9ecff;"/>
            </g>
        </g>
        <g transform="matrix(1,0,0,1,-8.94251,0)">
            <g transform="matrix(0.639581,0,0,1.13009,234.787,-6.17439)">
                <path d="M32.083,20.874C32.083,20.335 31.31,19.898 30.359,19.898L19.825,19.898C18.874,19.898 18.101,20.335 18.101,20.874L18.101,55.48C18.101,56.019 18.874,56.456 19.825,56.456L30.359,56.456C31.31,56.456 32.083,56.019 32.083,55.48L32.083,20.874Z" style="fill:#0068d0;"/>
            </g>
            <path d="M253.898,16.312L253.898,57.626L254.204,57.626C254.813,57.626 255.307,57.131 255.307,56.523L255.307,17.415C255.307,16.806 254.813,16.312 254.204,16.312L253.898,16.312Z" style="fill:#05a;"/>
            <g transform="matrix(-1,0,0,1,501.671,0)">
                <path d="M253.898,16.312L253.898,57.626L254.204,57.626C254.813,57.626 255.307,57.131 255.307,56.523L255.307,17.415C255.307,16.806 254.813,16.312 254.204,16.312L253.898,16.312Z" style="fill:#05a;"/>
            </g>
            <g transform="matrix(1.03848,0,0,5.62667,-9.82302,-95.6972)">
                <rect x="246.696" y="20.798" width="8.611" height="1.955" style="fill:#61b0ff;"/>
            </g>
            <g transform="matrix(1.03848,0,0,1,-9.82302,0)">
                <rect x="246.696" y="20.798" width="8.611" height="1.955" style="fill:#fbd574;"/>
            </g>
            <g transform="matrix(1.03848,0,0,1,-9.82302,10.1214)">
                <rect x="246.696" y="20.798" width="8.611" height="1.955" style="fill:#fbd574;"/>
            </g>
            <g transform="matrix(0.279836,0,0,5.62667,183.863,-95.6972)">
                <rect x="250.272" y="20.798" width="5.035" height="1.955" style="fill:#4ca5ff;"/>
            </g>
            <g transform="matrix(0.279836,0,0,1,183.863,0)">
                <rect x="250.272" y="20.798" width="5.035" height="1.955" style="fill:#d8b661;"/>
            </g>
            <g transform="matrix(0.279836,0,0,1,183.863,10.1214)">
                <rect x="250.272" y="20.798" width="5.035" height="1.955" style="fill:#d8b661;"/>
            </g>
            <g transform="matrix(-0.279836,0,0,5.62667,317.808,-95.6972)">
                <rect x="250.272" y="20.798" width="5.035" height="1.955" style="fill:#4ca5ff;"/>
            </g>
            <g transform="matrix(-0.279836,0,0,1,317.808,0)">
                <rect x="250.272" y="20.798" width="5.035" height="1.955" style="fill:#d8b661;"/>
            </g>
            <g transform="matrix(-0.279836,0,0,1,317.808,10.1214)">
                <rect x="250.272" y="20.798" width="5.035" height="1.955" style="fill:#d8b661;"/>
            </g>
            <g transform="matrix(1.03848,0,0,1,-9.82302,30.6066)">
                <rect x="246.696" y="20.798" width="8.611" height="1.955" style="fill:#fbd574;"/>
            </g>
            <g transform="matrix(0.279836,0,0,1,183.863,30.6066)">
                <rect x="250.272" y="20.798" width="5.035" height="1.955" style="fill:#d8b661;"/>
            </g>
            <g transform="matrix(-0.279836,0,0,1,317.808,30.6066)">
                <rect x="250.272" y="20.798" width="5.035" height="1.955" style="fill:#d8b661;"/>
            </g>
            <g transform="matrix(1.03848,0,0,0.392362,-9.82302,41.6931)">
                <rect x="246.696" y="20.798" width="8.611" height="1.955" style="fill:#fbd574;"/>
            </g>
            <g transform="matrix(0.279836,0,0,0.392362,183.863,41.6931)">
                <rect x="250.272" y="20.798" width="5.035" height="1.955" style="fill:#d8b661;"/>
            </g>
            <g transform="matrix(-0.279836,0,0,0.392362,317.808,41.6931)">
                <rect x="250.272" y="20.798" width="5.035" height="1.955" style="fill:#d8b661;"/>
            </g>
            <g transform="matrix(1.83468,0,0,1.83468,-209.809,-21.8799)">
                <circle cx="251.077" cy="26.548" r="1.293" style="fill:#d9ecff;"/>
            </g>
        </g>
        <g transform="matrix(1,0,0,1,-17.885,0)">
            <g transform="matrix(0.639581,0,0,1.13009,234.787,-6.17439)">
                <path d="M32.083,20.874C32.083,20.335 31.31,19.898 30.359,19.898L19.825,19.898C18.874,19.898 18.101,20.335 18.101,20.874L18.101,55.48C18.101,56.019 18.874,56.456 19.825,56.456L30.359,56.456C31.31,56.456 32.083,56.019 32.083,55.48L32.083,20.874Z" style="fill:#0068d0;"/>
            </g>
            <path d="M253.898,16.312L253.898,57.626L254.204,57.626C254.813,57.626 255.307,57.131 255.307,56.523L255.307,17.415C255.307,16.806 254.813,16.312 254.204,16.312L253.898,16.312Z" style="fill:#05a;"/>
            <g transform="matrix(-1,0,0,1,501.671,0)">
                <path d="M253.898,16.312L253.898,57.626L254.204,57.626C254.813,57.626 255.307,57.131 255.307,56.523L255.307,17.415C255.307,16.806 254.813,16.312 254.204,16.312L253.898,16.312Z" style="fill:#05a;"/>
            </g>
            <g transform="matrix(1.03848,0,0,5.62667,-9.82302,-95.6972)">
                <rect x="246.696" y="20.798" width="8.611" height="1.955" style="fill:#61b0ff;"/>
            </g>
            <g transform="matrix(1.03848,0,0,1,-9.82302,0)">
                <rect x="246.696" y="20.798" width="8.611" height="1.955" style="fill:#fbd574;"/>
            </g>
            <g transform="matrix(1.03848,0,0,1,-9.82302,10.1214)">
                <rect x="246.696" y="20.798" width="8.611" height="1.955" style="fill:#fbd574;"/>
            </g>
            <g transform="matrix(0.279836,0,0,5.62667,183.863,-95.6972)">
                <rect x="250.272" y="20.798" width="5.035" height="1.955" style="fill:#4ca5ff;"/>
            </g>
            <g transform="matrix(0.279836,0,0,1,183.863,0)">
                <rect x="250.272" y="20.798" width="5.035" height="1.955" style="fill:#d8b661;"/>
            </g>
            <g transform="matrix(0.279836,0,0,1,183.863,10.1214)">
                <rect x="250.272" y="20.798" width="5.035" height="1.955" style="fill:#d8b661;"/>
            </g>
            <g transform="matrix(-0.279836,0,0,5.62667,317.808,-95.6972)">
                <rect x="250.272" y="20.798" width="5.035" height="1.955" style="fill:#4ca5ff;"/>
            </g>
            <g transform="matrix(-0.279836,0,0,1,317.808,0)">
                <rect x="250.272" y="20.798" width="5.035" height="1.955" style="fill:#d8b661;"/>
            </g>
            <g transform="matrix(-0.279836,0,0,1,317.808,10.1214)">
                <rect x="250.272" y="20.798" width="5.035" height="1.955" style="fill:#d8b661;"/>
            </g>
            <g transform="matrix(1.03848,0,0,1,-9.82302,30.6066)">
                <rect x="246.696" y="20.798" width="8.611" height="1.955" style="fill:#fbd574;"/>
            </g>
            <g transform="matrix(0.279836,0,0,1,183.863,30.6066)">
                <rect x="250.272" y="20.798" width="5.035" height="1.955" style="fill:#d8b661;"/>
            </g>
            <g transform="matrix(-0.279836,0,0,1,317.808,30.6066)">
                <rect x="250.272" y="20.798" width="5.035" height="1.955" style="fill:#d8b661;"/>
            </g>
            <g transform="matrix(1.03848,0,0,0.392362,-9.82302,41.6931)">
                <rect x="246.696" y="20.798" width="8.611" height="1.955" style="fill:#fbd574;"/>
            </g>
            <g transform="matrix(0.279836,0,0,0.392362,183.863,41.6931)">
                <rect x="250.272" y="20.798" width="5.035" height="1.955" style="fill:#d8b661;"/>
            </g>
            <g transform="matrix(-0.279836,0,0,0.392362,317.808,41.6931)">
                <rect x="250.272" y="20.798" width="5.035" height="1.955" style="fill:#d8b661;"/>
            </g>
            <g transform="matrix(1.83468,0,0,1.83468,-209.809,-21.8799)">
                <circle cx="251.077" cy="26.548" r="1.293" style="fill:#d9ecff;"/>
            </g>
        </g>
        <g>
            <g transform="matrix(0.639581,0,0,0.964046,252.672,3.19953)">
                <path d="M32.083,21.042C32.083,20.41 31.31,19.898 30.359,19.898L19.825,19.898C18.874,19.898 18.101,20.41 18.101,21.042L18.101,55.312C18.101,55.943 18.874,56.456 19.825,56.456L30.359,56.456C31.31,56.456 32.083,55.943 32.083,55.312L32.083,21.042Z" style="fill:#f88a33;"/>
            </g>
            <path d="M265.525,22.382L265.352,22.382C264.743,22.382 264.249,22.876 264.249,23.485L264.249,56.523C264.249,57.131 264.743,57.626 265.352,57.626L265.525,57.626L265.525,22.382ZM271.916,22.382L271.916,57.626L272.089,57.626C272.698,57.626 273.192,57.131 273.192,56.523L273.192,23.485C273.192,22.876 272.698,22.382 272.089,22.382L271.916,22.382Z" style="fill:#e46c0e;"/>
            <rect x="264.249" y="29.526" width="8.943" height="13.729" style="fill:#cb0500;"/>
            <path d="M265.525,29.526L264.249,29.526L264.249,43.256L265.525,43.256L265.525,29.526ZM271.918,29.526L271.918,43.256L273.192,43.256L273.192,29.526L271.918,29.526Z" style="fill:#9a0905;"/>
            <g transform="matrix(1,0,0,0.0646555,0,42.2428)">
                <rect x="264.249" y="29.526" width="8.943" height="13.729" style="fill:#cb0500;"/>
            </g>
            <g transform="matrix(1,0,0,0.0646555,0,42.2428)">
                <path d="M265.525,29.526L264.249,29.526L264.249,43.256L265.525,43.256L265.525,29.526ZM271.918,29.526L271.918,43.256L273.192,43.256L273.192,29.526L271.918,29.526Z" style="fill:#9a0905;"/>
            </g>
            <g transform="matrix(1,0,0,0.0646555,0,25.8708)">
                <rect x="264.249" y="29.526" width="8.943" height="13.729" style="fill:#cb0500;"/>
            </g>
            <g transform="matrix(1,0,0,0.0646555,0,25.8708)">
                <path d="M265.525,29.526L264.249,29.526L264.249,43.256L265.525,43.256L265.525,29.526ZM271.918,29.526L271.918,43.256L273.192,43.256L273.192,29.526L271.918,29.526Z" style="fill:#9a0905;"/>
            </g>
            <g transform="matrix(1,0,0,0.0646555,0,52.4081)">
                <rect x="264.249" y="29.526" width="8.943" height="13.729" style="fill:#cb0500;"/>
            </g>
            <g transform="matrix(1,0,0,0.0646555,0,52.4081)">
                <path d="M265.525,29.526L264.249,29.526L264.249,43.256L265.525,43.256L265.525,29.526ZM271.918,29.526L271.918,43.256L273.192,43.256L273.192,29.526L271.918,29.526Z" style="fill:#9a0905;"/>
            </g>
        </g>
        <g transform="matrix(1,0,0,1,-8.94251,0)">
            <g transform="matrix(0.639581,0,0,0.964046,252.672,3.19953)">
                <path d="M32.083,21.042C32.083,20.41 31.31,19.898 30.359,19.898L19.825,19.898C18.874,19.898 18.101,20.41 18.101,21.042L18.101,55.312C18.101,55.943 18.874,56.456 19.825,56.456L30.359,56.456C31.31,56.456 32.083,55.943 32.083,55.312L32.083,21.042Z" style="fill:#f88a33;"/>
            </g>
            <path d="M265.525,22.382L265.352,22.382C264.743,22.382 264.249,22.876 264.249,23.485L264.249,56.523C264.249,57.131 264.743,57.626 265.352,57.626L265.525,57.626L265.525,22.382ZM271.916,22.382L271.916,57.626L272.089,57.626C272.698,57.626 273.192,57.131 273.192,56.523L273.192,23.485C273.192,22.876 272.698,22.382 272.089,22.382L271.916,22.382Z" style="fill:#e46c0e;"/>
            <rect x="264.249" y="29.526" width="8.943" height="13.729" style="fill:#cb0500;"/>
            <path d="M265.525,29.526L264.249,29.526L264.249,43.256L265.525,43.256L265.525,29.526ZM271.918,29.526L271.918,43.256L273.192,43.256L273.192,29.526L271.918,29.526Z" style="fill:#9a0905;"/>
            <g transform="matrix(1,0,0,0.0646555,0,42.2428)">
                <rect x="264.249" y="29.526" width="8.943" height="13.729" style="fill:#cb0500;"/>
            </g>
            <g transform="matrix(1,0,0,0.0646555,0,42.2428)">
                <path d="M265.525,29.526L264.249,29.526L264.249,43.256L265.525,43.256L265.525,29.526ZM271.918,29.526L271.918,43.256L273.192,43.256L273.192,29.526L271.918,29.526Z" style="fill:#9a0905;"/>
            </g>
            <g transform="matrix(1,0,0,0.0646555,0,25.8708)">
                <rect x="264.249" y="29.526" width="8.943" height="13.729" style="fill:#cb0500;"/>
            </g>
            <g transform="matrix(1,0,0,0.0646555,0,25.8708)">
                <path d="M265.525,29.526L264.249,29.526L264.249,43.256L265.525,43.256L265.525,29.526ZM271.918,29.526L271.918,43.256L273.192,43.256L273.192,29.526L271.918,29.526Z" style="fill:#9a0905;"/>
            </g>
            <g transform="matrix(1,0,0,0.0646555,0,52.4081)">
                <rect x="264.249" y="29.526" width="8.943" height="13.729" style="fill:#cb0500;"/>
            </g>
            <g transform="matrix(1,0,0,0.0646555,0,52.4081)">
                <path d="M265.525,29.526L264.249,29.526L264.249,43.256L265.525,43.256L265.525,29.526ZM271.918,29.526L271.918,43.256L273.192,43.256L273.192,29.526L271.918,29.526Z" style="fill:#9a0905;"/>
            </g>
        </g>
        <g>
            <g transform="matrix(1.09591,0,0,0.847088,193.319,9.80254)">
                <path d="M32.083,22.128C32.083,20.897 31.31,19.898 30.359,19.898L19.825,19.898C18.874,19.898 18.101,20.897 18.101,22.128L18.101,54.225C18.101,55.456 18.874,56.456 19.825,56.456L30.359,56.456C31.31,56.456 32.083,55.456 32.083,54.225L32.083,22.128Z" style="fill:#ae0d08;"/>
            </g>
            <path d="M215.492,26.658L215.046,26.658C214.003,26.658 213.156,27.504 213.156,28.547L213.156,55.736C213.156,56.779 214.003,57.626 215.046,57.626L215.492,57.626L215.492,26.658ZM226.144,26.658L226.144,57.626L226.59,57.626C227.633,57.626 228.479,56.779 228.479,55.736L228.479,28.547C228.479,27.504 227.633,26.658 226.59,26.658L226.144,26.658Z" style="fill:#8b0400;"/>
            <path d="M228.479,32.518L213.156,32.518L213.156,31.179L228.479,31.179L228.479,32.518ZM228.479,30.118L213.156,30.118L213.156,28.779L228.479,28.779L228.479,30.118Z" style="fill:#ff403b;"/>
            <path d="M215.488,31.179L215.488,32.518L213.156,32.518L213.156,31.179L215.488,31.179ZM226.114,31.179L228.479,31.179L228.479,32.518L226.114,32.518L226.114,31.179ZM215.488,28.779L215.488,30.118L213.156,30.118L213.156,28.779L215.488,28.779ZM226.114,28.779L228.479,28.779L228.479,30.118L226.114,30.118L226.114,28.779Z" style="fill:#db1f1a;"/>
            <g transform="matrix(1,0,0,1,0,22.3261)">
                <path d="M228.479,32.518L213.156,32.518L213.156,31.179L228.479,31.179L228.479,32.518ZM228.479,30.118L213.156,30.118L213.156,28.779L228.479,28.779L228.479,30.118Z" style="fill:#ff403b;"/>
            </g>
            <g transform="matrix(1,0,0,1,0,22.3261)">
                <path d="M215.488,31.179L215.488,32.518L213.156,32.518L213.156,31.179L215.488,31.179ZM226.114,31.179L228.479,31.179L228.479,32.518L226.114,32.518L226.114,31.179ZM215.488,28.779L215.488,30.118L213.156,30.118L213.156,28.779L215.488,28.779ZM226.114,28.779L228.479,28.779L228.479,30.118L226.114,30.118L226.114,28.779Z" style="fill:#db1f1a;"/>
            </g>
            <g transform="matrix(1,0,0,1,-0.659554,-0.0722108)">
                <rect x="219.356" y="35.548" width="4.242" height="13.331" style="fill:#ffaeac;"/>
            </g>
        </g>
        <g transform="matrix(-0.893232,-1.09389e-16,8.74808e-17,-0.714335,285.834,65.8968)">
            <path d="M320,8.028C320,5.159 318.138,2.83 315.844,2.83L10.688,2.83C8.394,2.83 6.532,5.159 6.532,8.028L6.532,74.803C6.532,77.671 8.394,80 10.688,80L315.844,80C318.138,80 320,77.671 320,74.803L320,8.028ZM313.003,11.58L13.529,11.58L13.529,71.251L313.003,71.251L313.003,11.58Z" style="fill:#81452c;"/>
        </g>
    </g>
</svg>
