<?xml version="1.0" encoding="UTF-8" standalone="no"?>
<!DOCTYPE svg PUBLIC "-//W3C//DTD SVG 1.1//EN" "http://www.w3.org/Graphics/SVG/1.1/DTD/svg11.dtd">
<svg width="100%" height="100%" viewBox="0 0 280 62" version="1.1" xmlns="http://www.w3.org/2000/svg" xmlns:xlink="http://www.w3.org/1999/xlink" xml:space="preserve" xmlns:serif="http://www.serif.com/" style="fill-rule:evenodd;clip-rule:evenodd;stroke-linejoin:round;stroke-miterlimit:2;">
    <g id="banner_51" transform="matrix(1,0,0,1,0.0276428,-8.708)">
        <path d="M257.893,59.147C257.891,59.147 257.89,59.147 257.89,59.146C258.166,60.069 258.379,61.354 258.014,62.388C257.297,64.416 255.109,66.246 251.631,65.664C250.15,65.416 248.905,64.683 247.853,63.647C246.59,62.405 245.617,60.689 244.782,59.116C244.229,58.073 243.569,56.894 242.559,56.211C241.48,55.481 240.533,55.168 238.926,55.433C237.763,55.625 236.554,56.35 235.951,57.745C234.807,60.396 236.284,61.344 235.304,65.156C234.764,67.254 233.168,68.357 230.828,68.357C227.256,68.357 226.541,67.418 223.373,67.28C218.833,67.082 217.084,70.008 207.66,70.008C201.725,70.008 199.273,69.217 195.712,65.752C194.135,64.217 192.792,62.179 190.608,61.104C188.308,59.971 186.055,60.201 183.762,60.561C182.039,60.832 178.037,62.179 173.252,66.334C169.843,69.295 167.554,70.008 164.898,70.003C162.206,70.008 159.261,70.008 156.889,67.945C155.17,66.45 153.835,63.711 153.55,63.023C152.934,61.541 150.618,61.243 149.1,60.911C148.688,60.821 148.277,60.924 147.861,61.046C147.142,61.257 146.422,61.576 145.702,61.838C144.296,62.349 142.882,62.636 141.493,62.318C139.772,61.924 138.081,61.187 136.334,60.934C135.216,60.772 133.996,60.908 132.901,61.157C130.92,61.609 129.147,62.651 127.653,64.007C126.237,65.292 124.95,66.904 123.239,67.805C117.783,70.677 110.297,70.164 105.185,66.716C103.303,65.447 101.274,63.657 99.007,62.416C96.995,61.314 94.282,61.14 92.294,60.958C87.522,60.521 80.902,61.056 74.348,63.037C71.737,63.826 69.726,65.704 69.412,66.134C67.505,68.746 63.431,70.008 59.873,70.008C43.598,70.008 59.873,70.008 59.873,70.008C47.989,70.008 48.919,65.127 44.775,63.098C43.102,62.279 39.183,62.265 38.195,61.616C36.935,60.789 35.691,59.883 34.827,58.255C34.642,57.907 34.519,57.444 34.462,56.892C34.438,58.079 33.968,59.228 32.934,60.147C31.674,61.268 29.699,61.809 27.984,61.764C26.665,61.73 25.518,61.338 24.839,60.823C23.157,59.548 22.398,56.91 23.133,54.711C20.63,55.89 17.926,56.693 14.901,57.129L14.9,57.129C13.818,57.284 11.378,57.458 9.002,57.182C7.224,56.975 5.491,56.499 4.248,55.692C2.873,54.8 1.258,53.275 0,51.258L0,44.294L2.059,44.294C2.063,44.424 27.546,48.437 30.78,48.595C34.324,48.768 36.167,49.84 37.19,51.003C38.342,52.314 68.03,62.534 72.2,60.335C78.75,56.881 86.975,56.922 92.191,56.793C94.816,56.728 98.362,57.312 101.008,58.761C103.39,60.066 129.293,57.706 131.976,57.095C133.555,56.735 148.607,56.537 149.991,56.84C152.733,57.44 182.197,57.046 183.57,56.82C186.287,56.373 191.277,56.329 194.23,57.059C197.427,57.85 232.42,58.46 234.038,55.403C235.015,53.556 236.188,52.312 237.061,51.962C240.033,50.768 255.985,48.128 258.101,48.039C261.076,47.914 277.964,41.483 277.927,39.984L280,39.984L280,50.697C278.718,52.28 276.91,53.5 274.993,53.843C273.56,54.099 272.045,54.034 270.609,53.889C270.455,53.873 270.3,53.857 270.148,53.839L270.087,53.785L258.805,52.194L258.801,52.198C258.379,52.117 257.652,52.119 257.347,52.367C256.605,52.971 256.622,53.918 256.763,55.01C256.819,55.448 257.002,56.017 257.073,56.377C257.071,56.137 257.073,56.377 257.073,56.377L257.89,59.146L257.893,59.147ZM27.317,57.471C26.921,57.131 26.87,56.426 27.135,55.909C27.487,55.222 28.449,54.954 29.161,55.213C29.618,55.38 30.001,55.843 30.193,56.332C30.286,56.57 30.376,56.846 30.166,57.034C29.645,57.496 28.8,57.618 28.093,57.599C27.817,57.592 27.395,57.491 27.317,57.471ZM33.073,53.126C33.492,53.636 33.837,54.21 34.073,54.815C34.251,55.268 34.371,55.733 34.427,56.198L34.426,56.09C34.431,55.451 34.613,54.595 34.164,53.892C33.949,53.554 33.598,53.305 33.073,53.126Z" style="fill:#007e53;"/>
        <path d="M179.952,19.186C183.947,18.519 187.727,16.79 191.108,14.302C191.759,13.823 194.255,12.178 197.228,10.768C201.212,8.876 203.739,9.055 204.848,9.176C207.884,9.507 209.646,12.305 210.443,13.334C211.751,15.023 213.677,16.198 215.956,16.594C217.973,16.945 219.352,16.114 220.465,14.817C221.146,14.024 221.681,12.993 222.348,12.269C223.288,11.249 224.603,10.405 225.955,10.326C228.353,10.185 230.708,11.695 232.755,12.818C235.336,14.234 239.271,17.229 242.249,18.204L242.298,18.207C246.287,19.238 250.088,19.25 253.684,16.438C256.029,14.603 259.13,13.165 262.156,13.417C263.012,13.489 263.903,13.534 264.726,13.801C265.895,14.181 267.307,15.26 268.056,16.538C268.404,17.133 268.632,17.779 268.373,18.401C267.837,19.689 266.761,20.58 265.565,21.318C264.104,22.22 262.445,22.883 261.012,23.529C257.825,24.967 256.7,26.779 256.479,28.541C256.373,29.319 256.657,30.345 257.402,31.202C258.316,32.253 259.86,32.996 261.353,32.72C262.959,32.422 268.13,31.732 269.631,31.128C270.761,30.674 271.899,30.258 273.175,30.35C275.773,30.537 277.986,32.154 279.037,34.559C279.72,36.122 279.931,37.932 280,39.625C280.053,40.944 279.978,45.995 279.568,47.256C278.877,49.384 276.863,51.392 274.626,51.792C273.382,52.014 272.066,51.942 270.818,51.816C263.702,51.097 257.076,48.723 255.587,51.246C254.865,52.468 254.681,53.903 254.828,55.395C254.994,57.081 255.34,58.109 255.815,59.492C256.011,60.065 256.304,60.974 256.049,61.694C255.6,62.967 254.158,63.974 251.975,63.609C249.356,63.171 247.853,60.457 246.622,58.139C245.914,56.804 244.938,55.508 243.646,54.634C241.971,53.501 240.127,53.171 237.838,53.895C234.354,54.996 233.187,58.264 233.421,61.263C233.559,63.015 232.594,65.202 230.94,65.848C228.997,66.607 227.144,65.496 224.921,65.537C222.114,65.588 220.639,65.855 216.706,66.707C210.641,68.021 207.117,67.903 203.699,67.248C201.572,66.84 198.509,64.834 197.138,63.386C195.323,61.47 193.426,59.554 191.518,59.082C188.797,58.409 186.568,58.385 184.065,58.796C182.387,59.073 181.075,59.508 180.059,60.032C177.074,61.569 174.572,62.648 171.648,64.922C169.897,66.272 168.046,67.512 166.69,67.922C165.831,68.182 162.297,68.145 161.133,67.803C159.612,67.356 158.47,66.832 157.416,65.703C156.158,64.356 154.926,62.163 154.543,61.634C153.154,59.718 151.675,59.341 149.546,58.875C147.037,58.326 144.467,60.861 141.957,60.287C140.182,59.881 138.435,59.134 136.634,58.872C135.267,58.674 133.775,58.821 132.438,59.126C130.107,59.657 128.011,60.869 126.253,62.465C124.964,63.634 123.826,65.142 122.269,65.962C117.458,68.494 110.857,68.029 106.35,64.989C104.42,63.688 102.332,61.861 100.007,60.588C97.678,59.313 94.551,58.984 92.243,58.875C86.95,58.625 81.253,58.366 74.531,60.524C71.999,61.337 69.381,62.137 68.028,64.048C66.183,66.654 61.733,68.07 58.605,68.05C54.999,67.949 51.804,67.521 48.499,62.604C45.909,58.749 38.358,60.464 36.667,57.278C35.946,55.92 38.415,51.053 30.679,50.676C27.788,50.534 24.954,51.536 22.367,52.77C20.01,53.894 17.461,54.655 14.604,55.067C12.964,55.302 7.898,55.577 5.382,53.944C3.195,52.526 0.291,49.227 0,44.827C-0.22,41.499 0.823,38.819 4.943,36.897C9.404,34.815 17.796,37.195 19.34,30.309C19.631,29.011 18.764,24.525 14.608,24.525C12.883,24.525 8.85,24.706 6.534,21.931C5.522,20.718 4.028,18.229 4.219,14.747C4.347,12.403 5.628,10.629 6.968,9.76C10.766,7.297 17.272,8.503 20.064,11.9C21.03,13.075 21.904,14.625 22.967,15.928C24.342,17.614 26.01,18.903 28.236,19.145C30.082,19.346 33.205,19.36 34.363,17.984C42.392,8.446 50.519,4.588 80.233,14.664C81.538,15.106 82.838,15.553 84.121,15.979C84.075,15.862 84.012,15.751 83.94,15.648C83.374,14.833 82.079,14.592 81.675,13.692C80.971,12.125 83.029,10.585 84.325,10.284C86.144,9.862 87.723,10.977 88.752,12.37C90.308,14.477 91.245,16.65 93.653,17.931C95.048,18.672 97.52,18.719 98.994,18.377C102.011,17.677 102.27,15.989 101.851,14.369C101.165,11.718 102.215,8.807 108.937,8.782C117.76,8.75 119.307,11.556 120.482,14.635C120.623,15.005 120.741,15.383 120.865,15.758C121.182,16.717 121.615,18.149 122.33,19.208C123.053,20.277 124.037,21.01 125.279,21.169C127.643,21.471 129.608,20.477 131.34,18.991C132.655,17.863 133.931,15.495 135.694,13.63C138.026,11.163 141.169,9.552 144.479,9.015C146.844,8.631 149.583,8.76 151.958,9.179C153.582,9.466 155.333,10.093 156.77,10.896C158.47,11.846 161.057,13.962 161.946,14.593C162.26,14.817 162.575,15.032 162.891,15.239C163.374,15.307 163.863,15.288 164.324,15.141C165.156,14.874 165.717,14.061 166.424,13.586C167.694,12.734 169.352,12.49 170.83,12.839C173.348,13.433 173.844,15.792 175.37,17.509C176.428,18.701 178.036,19.164 179.58,19.187C179.705,19.189 179.829,19.189 179.952,19.186ZM263.397,59.945C262.077,59.91 260.469,59.13 259.733,58.149C258.916,57.059 259.006,55.534 259.685,54.407C260.51,53.037 262.12,52.425 263.663,52.411C265.388,52.395 267.201,53.428 268.236,54.777C268.994,55.766 269.199,56.979 268.455,58.026C267.217,59.765 265.305,59.995 263.397,59.945ZM26.098,59.163C24.949,58.292 24.552,56.379 25.281,54.958C26.087,53.388 28.246,52.662 29.874,53.256C31.818,53.964 33.395,56.95 31.55,58.591C30.066,59.91 27.137,59.951 26.098,59.163ZM96.928,11.151C98.268,12.101 99.842,13.532 98.967,15.092C98.852,15.298 98.708,15.485 98.54,15.651C98.331,15.856 98.092,16.039 97.826,16.164C96.68,16.702 95.145,16.427 94.086,15.826C92.954,15.182 92.16,14.076 92.145,12.743C92.127,11.201 93.799,10.025 95.268,10.406C95.749,10.53 96.527,10.866 96.928,11.151ZM27.864,15.362C26.758,14.759 25.876,13.651 26.147,11.989C26.417,10.34 28.135,8.975 29.815,9.131C31.422,9.28 32.976,10.813 33.006,12.458C33.019,13.128 32.725,13.85 32.317,14.374C31.7,15.167 30.865,15.67 29.864,15.692C29.505,15.7 28.385,15.646 27.864,15.362ZM182.111,15.163C180.68,15.222 179.28,13.832 179.85,12.347C180.327,11.103 181.916,10.13 183.234,10.197C184.696,10.27 185.926,11.781 185.462,13.231C185.035,14.564 183.511,15.106 182.111,15.163ZM252.603,14.09C251.727,13.974 251.433,13.1 251.797,12.372C252.196,11.574 253.208,10.825 254.141,10.897C255.004,10.964 255.294,11.802 255.059,12.535C254.793,13.362 253.554,14.216 252.603,14.09Z" style="fill:#189c4e;"/>
        <path d="M179.952,19.186C183.947,18.519 187.727,16.79 191.108,14.302C191.759,13.823 194.255,12.178 197.228,10.768C201.212,8.876 203.739,9.055 204.848,9.176C207.884,9.507 209.646,12.305 210.443,13.334C211.751,15.023 213.677,16.198 215.956,16.594C217.973,16.945 219.352,16.114 220.465,14.817C221.146,14.024 221.681,12.993 222.348,12.269C223.288,11.249 224.603,10.405 225.955,10.326C228.353,10.185 230.708,11.695 232.755,12.818C235.336,14.234 239.271,17.229 242.249,18.204L242.298,18.207C246.287,19.238 250.088,19.25 253.684,16.438C256.029,14.603 259.13,13.165 262.156,13.417C263.012,13.489 263.903,13.534 264.726,13.801C265.895,14.181 267.307,15.26 268.056,16.538C268.404,17.133 268.632,17.779 268.373,18.401C267.837,19.689 266.761,20.58 265.565,21.318C264.104,22.22 262.445,22.883 261.012,23.529C257.825,24.967 256.7,26.779 256.479,28.541C256.373,29.319 256.657,30.345 257.402,31.202C258.316,32.253 259.86,32.996 261.353,32.72C262.959,32.422 268.13,31.732 269.631,31.128C270.761,30.674 271.899,30.258 273.175,30.35C275.773,30.537 277.986,32.154 279.037,34.559C279.72,36.122 279.931,37.932 280,39.625C280.053,40.944 279.978,45.995 279.568,47.256C278.877,49.384 276.863,51.392 274.626,51.792C273.382,52.014 272.066,51.942 270.818,51.816C263.702,51.097 257.076,48.723 255.587,51.246C254.865,52.468 254.681,53.903 254.828,55.395C254.994,57.081 255.34,58.109 255.815,59.492C256.011,60.065 256.304,60.974 256.049,61.694C255.6,62.967 254.158,63.974 251.975,63.609C249.356,63.171 247.853,60.457 246.622,58.139C245.914,56.804 244.938,55.508 243.646,54.634C241.971,53.501 240.127,53.171 237.838,53.895C234.354,54.996 233.187,58.264 233.421,61.263C233.559,63.015 232.594,65.202 230.94,65.848C228.997,66.607 227.144,65.496 224.921,65.537C222.114,65.588 220.639,65.855 216.706,66.707C210.641,68.021 207.117,67.903 203.699,67.248C201.572,66.84 198.509,64.834 197.138,63.386C195.323,61.47 193.426,59.554 191.518,59.082C188.797,58.409 186.568,58.385 184.065,58.796C182.387,59.073 181.075,59.508 180.059,60.032C177.074,61.569 174.572,62.648 171.648,64.922C169.897,66.272 168.046,67.512 166.69,67.922C165.831,68.182 162.297,68.145 161.133,67.803C159.612,67.356 158.47,66.832 157.416,65.703C156.158,64.356 154.926,62.163 154.543,61.634C153.154,59.718 151.675,59.341 149.546,58.875C147.037,58.326 144.467,60.861 141.957,60.287C140.182,59.881 138.435,59.134 136.634,58.872C135.267,58.674 133.775,58.821 132.438,59.126C130.107,59.657 128.011,60.869 126.253,62.465C124.964,63.634 123.826,65.142 122.269,65.962C117.458,68.494 110.857,68.029 106.35,64.989C104.42,63.688 102.332,61.861 100.007,60.588C97.678,59.313 94.551,58.984 92.243,58.875C86.95,58.625 81.253,58.366 74.531,60.524C71.999,61.337 69.381,62.137 68.028,64.048C66.183,66.654 61.733,68.07 58.605,68.05C54.999,67.949 51.804,67.521 48.499,62.604C45.909,58.749 38.358,60.464 36.667,57.278C35.946,55.92 38.415,51.053 30.679,50.676C27.788,50.534 24.954,51.536 22.367,52.77C20.01,53.894 17.461,54.655 14.604,55.067C12.964,55.302 7.898,55.577 5.382,53.944C3.195,52.526 0.291,49.227 0,44.827C-0.22,41.499 0.823,38.819 4.943,36.897C9.404,34.815 17.796,37.195 19.34,30.309C19.631,29.011 18.764,24.525 14.608,24.525C12.883,24.525 8.85,24.706 6.534,21.931C5.522,20.718 4.028,18.229 4.219,14.747C4.347,12.403 5.628,10.629 6.968,9.76C10.766,7.297 17.272,8.503 20.064,11.9C21.03,13.075 21.904,14.625 22.967,15.928C24.342,17.614 26.01,18.903 28.236,19.145C30.082,19.346 33.205,19.36 34.363,17.984C42.392,8.446 50.519,4.588 80.233,14.664C81.538,15.106 82.838,15.553 84.121,15.979C84.075,15.862 84.012,15.751 83.94,15.648C83.374,14.833 82.079,14.592 81.675,13.692C80.971,12.125 83.029,10.585 84.325,10.284C86.144,9.862 87.723,10.977 88.752,12.37C90.308,14.477 91.245,16.65 93.653,17.931C95.048,18.672 97.52,18.719 98.994,18.377C102.011,17.677 102.27,15.989 101.851,14.369C101.165,11.718 102.215,8.807 108.937,8.782C117.76,8.75 119.307,11.556 120.482,14.635C120.623,15.005 120.741,15.383 120.865,15.758C121.182,16.717 121.615,18.149 122.33,19.208C123.053,20.277 124.037,21.01 125.279,21.169C127.643,21.471 129.608,20.477 131.34,18.991C132.655,17.863 133.931,15.495 135.694,13.63C138.026,11.163 141.169,9.552 144.479,9.015C146.844,8.631 149.583,8.76 151.958,9.179C153.582,9.466 155.333,10.093 156.77,10.896C158.47,11.846 161.057,13.962 161.946,14.593C162.26,14.817 162.575,15.032 162.891,15.239C163.374,15.307 163.863,15.288 164.324,15.141C165.156,14.874 165.717,14.061 166.424,13.586C167.694,12.734 169.352,12.49 170.83,12.839C173.348,13.433 173.844,15.792 175.37,17.509C176.428,18.701 178.036,19.164 179.58,19.187C179.705,19.189 179.829,19.189 179.952,19.186ZM87.438,16.285C88.773,16.177 89.952,19.738 92.087,20.874C92.088,20.874 92.089,20.874 92.089,20.875C94.092,21.939 97.631,22.115 99.747,21.624C102.544,20.975 103.913,19.638 104.635,18.318C105.431,16.864 105.506,15.188 105.078,13.534C105.078,13.534 105.078,13.534 105.078,13.534C105.023,13.319 104.894,13.096 105.013,12.908C105.109,12.756 105.312,12.689 105.553,12.592C106.361,12.269 107.472,12.121 108.949,12.115C112.919,12.101 114.995,12.549 116.155,13.651C116.803,14.267 117.072,15.05 117.368,15.823C117.49,16.145 117.592,16.477 117.7,16.804C118.094,17.997 118.679,19.757 119.567,21.073C119.568,21.074 119.568,21.075 119.569,21.075C120.852,22.973 122.651,24.193 124.856,24.475C124.856,24.475 124.856,24.475 124.857,24.475C128.213,24.904 131.051,23.631 133.51,21.521C134.891,20.337 136.265,17.878 138.116,15.92C138.116,15.92 138.116,15.92 138.116,15.92C139.946,13.984 142.416,12.727 145.013,12.305C145.013,12.305 145.013,12.305 145.013,12.305C147.026,11.978 149.357,12.105 151.378,12.462C152.649,12.686 154.019,13.177 155.144,13.806C156.748,14.702 159.177,16.715 160.016,17.311C160.365,17.559 160.714,17.798 161.064,18.027C161.475,18.296 161.94,18.471 162.426,18.54C163.408,18.678 164.4,18.616 165.337,18.317C165.339,18.316 165.341,18.316 165.343,18.315C166.078,18.079 166.737,17.684 167.34,17.187C167.664,16.919 167.945,16.58 168.282,16.354C168.794,16.01 169.468,15.942 170.064,16.083C170.064,16.083 170.064,16.083 170.065,16.083C170.612,16.212 170.778,16.7 171.037,17.101C171.603,17.979 172.152,18.905 172.878,19.722C174.562,21.62 177.071,22.483 179.529,22.52C179.698,22.523 179.866,22.522 180.033,22.518C180.19,22.515 180.346,22.5 180.501,22.474C185.004,21.722 189.273,19.791 193.084,16.987C193.676,16.551 195.951,15.063 198.656,13.78C198.657,13.78 198.657,13.779 198.658,13.779C201.713,12.328 203.636,12.397 204.486,12.49C204.487,12.49 204.487,12.49 204.487,12.49C205.212,12.569 205.756,13 206.195,13.415C206.96,14.138 207.476,14.947 207.808,15.375C209.608,17.699 212.249,19.333 215.385,19.878C218.772,20.467 221.125,19.166 222.994,16.988C223.65,16.224 224.157,15.225 224.799,14.528C225.168,14.127 225.619,13.685 226.149,13.654C226.15,13.654 226.15,13.654 226.151,13.654C226.835,13.613 227.499,13.867 228.151,14.152C229.203,14.612 230.211,15.224 231.152,15.74C233.878,17.236 238.066,20.342 241.212,21.372C241.363,21.421 241.517,21.46 241.673,21.487C246.605,22.725 251.285,22.546 255.737,19.064C255.738,19.064 255.738,19.063 255.738,19.063C257.45,17.724 259.67,16.555 261.879,16.739C262.481,16.789 263.115,16.783 263.696,16.971C264.075,17.095 264.503,17.391 264.838,17.762C264.544,18.042 264.174,18.259 263.815,18.481C263.814,18.481 263.814,18.482 263.814,18.482C262.477,19.307 260.953,19.899 259.642,20.49C259.642,20.49 259.641,20.49 259.641,20.491C254.931,22.616 253.504,25.505 253.174,28.111C252.971,29.646 253.42,31.702 254.886,33.389C254.886,33.389 254.887,33.389 254.887,33.389C256.515,35.261 259.3,36.489 261.959,35.998C261.96,35.998 261.96,35.998 261.961,35.997C263.693,35.676 269.256,34.872 270.875,34.221C271.539,33.954 272.186,33.621 272.935,33.675C272.935,33.675 272.936,33.675 272.936,33.675C274.293,33.772 275.434,34.638 275.983,35.894C276.503,37.084 276.617,38.471 276.669,39.76C276.714,40.878 276.745,45.158 276.398,46.225C276.398,46.226 276.398,46.226 276.398,46.227C276.059,47.268 275.134,48.315 274.04,48.511C273.097,48.679 272.099,48.595 271.153,48.5C265.987,47.978 261.064,46.664 258.049,46.79C255.41,46.901 253.663,47.948 252.717,49.551C251.641,51.373 251.292,53.498 251.511,55.722C251.697,57.616 252.061,58.812 252.578,60.328L252.525,60.321C252.012,60.236 251.669,59.839 251.333,59.438C250.623,58.591 250.077,57.537 249.567,56.577C248.611,54.774 247.258,53.053 245.514,51.873C245.514,51.873 245.514,51.873 245.514,51.873C243.008,50.178 240.258,49.634 236.833,50.717C231.669,52.349 229.75,57.078 230.098,61.523C230.122,61.827 230.206,62.5 229.728,62.743C229.203,63.01 228.655,62.69 228.09,62.578C227.065,62.374 225.999,62.183 224.86,62.204C221.834,62.259 220.241,62.531 216,63.45C210.556,64.629 207.395,64.562 204.327,63.974C202.77,63.676 200.562,62.153 199.559,61.094C197.266,58.673 194.729,56.442 192.318,55.846C192.318,55.846 192.318,55.846 192.318,55.846C189.108,55.052 186.478,55.022 183.525,55.507C183.524,55.507 183.523,55.507 183.522,55.508C181.43,55.853 179.8,56.416 178.532,57.068C175.362,58.702 172.716,59.87 169.61,62.284C168.268,63.319 164.977,65.184 162.073,64.605C161.158,64.422 160.473,64.093 159.853,63.429C159.852,63.428 159.852,63.428 159.852,63.428C158.698,62.193 157.593,60.164 157.242,59.679C155.277,56.967 153.272,56.278 150.259,55.619C150.259,55.619 150.259,55.619 150.259,55.619C148.646,55.266 147.001,55.573 145.37,56.169C144.784,56.383 143.765,57.052 142.7,57.038C140.791,57.012 139.002,55.848 137.114,55.573C137.113,55.573 137.113,55.573 137.112,55.573C135.348,55.318 133.422,55.483 131.697,55.876C128.806,56.535 126.194,58.017 124.013,59.996C122.927,60.982 122.029,62.321 120.716,63.013C116.937,65.001 111.754,64.613 108.214,62.226C108.214,62.225 108.213,62.225 108.213,62.225C106.207,60.872 104.025,58.988 101.608,57.664C101.608,57.664 101.608,57.664 101.608,57.664C98.84,56.149 95.143,55.675 92.4,55.545C86.755,55.278 80.682,55.048 73.512,57.35C70.262,58.393 67.044,59.669 65.307,62.122C64.021,63.94 60.84,64.725 58.652,64.716C56.023,64.64 53.678,64.333 51.266,60.745C49.49,58.102 46.178,57.032 42.856,56.413C41.989,56.252 41.137,56.108 40.379,55.895C40.224,55.852 40.023,55.775 39.851,55.703C39.851,55.139 39.831,54.352 39.747,53.785C39.572,52.588 39.139,51.397 38.262,50.333C37.112,48.94 35.03,47.551 30.842,47.347C27.402,47.178 24.01,48.293 20.932,49.761C18.867,50.746 16.633,51.407 14.13,51.768C13.303,51.886 9.271,52.759 7.197,51.148C7.196,51.148 7.196,51.147 7.195,51.147C5.626,50.129 3.535,47.765 3.326,44.607C3.262,43.636 3.31,42.747 3.747,41.973C4.211,41.15 5.075,40.514 6.352,39.918C6.352,39.918 6.353,39.918 6.353,39.918C8.362,38.98 11.275,39.156 13.841,38.682C18.003,37.914 21.464,36.07 22.593,31.038C22.593,31.038 22.593,31.038 22.593,31.038C22.793,30.143 22.794,28.355 22.121,26.549C21.124,23.874 18.85,21.192 14.608,21.192C13.893,21.192 12.699,21.25 11.444,21C10.621,20.836 9.723,20.55 9.093,19.795C8.409,18.975 7.418,17.285 7.547,14.93C7.547,14.929 7.547,14.929 7.547,14.929C7.607,13.828 8.152,12.965 8.782,12.557C10.025,11.75 11.728,11.644 13.332,11.918C14.966,12.197 16.558,12.884 17.489,14.017C17.489,14.017 17.489,14.017 17.489,14.017C18.453,15.189 19.324,16.735 20.384,18.035C22.322,20.411 24.738,22.118 27.876,22.459C29.55,22.641 32.032,22.646 33.888,22.056C35.157,21.653 36.195,20.984 36.913,20.13C39.032,17.614 41.129,15.514 43.774,14.092C50.309,10.579 59.786,11.25 79.163,17.821C79.163,17.821 79.163,17.821 79.164,17.821C80.475,18.265 81.781,18.714 83.071,19.143C84.298,19.55 85.651,19.211 86.541,18.272C87.065,17.718 86.532,16.358 87.438,16.285ZM182.111,15.163C180.68,15.222 179.28,13.832 179.85,12.347C180.327,11.103 181.916,10.13 183.234,10.197C184.696,10.27 185.926,11.781 185.462,13.231C185.035,14.564 183.511,15.106 182.111,15.163ZM182.444,11.941C182.378,12.029 182.315,12.129 182.287,12.215C182.11,12.77 182.435,13.419 182.971,13.514C183.197,12.888 182.936,12.199 182.444,11.941Z" style="fill:#26af51;"/>
        <path d="M263.397,59.945C262.077,59.91 260.469,59.13 259.733,58.149C258.916,57.059 259.006,55.534 259.685,54.407C260.51,53.037 262.12,52.425 263.663,52.411C265.388,52.395 267.201,53.428 268.236,54.777C268.994,55.766 269.199,56.979 268.455,58.026C267.217,59.765 265.305,59.995 263.397,59.945ZM26.098,59.163C24.949,58.292 24.552,56.379 25.281,54.958C26.087,53.388 28.246,52.662 29.874,53.256C31.818,53.964 33.395,56.95 31.55,58.591C30.066,59.91 27.137,59.951 26.098,59.163ZM264.305,53.88C266.035,54.189 267.249,55.503 267.015,56.811C266.781,58.12 265.186,58.931 263.457,58.621C261.727,58.312 260.513,56.998 260.747,55.69C260.981,54.381 262.576,53.57 264.305,53.88ZM26.483,55.493C27.077,54.328 28.735,54.033 29.534,54.489C30.568,54.948 31.182,56.739 30.574,57.737C30.071,58.562 27.672,59.084 26.836,58.225C26.159,57.53 26.163,56.123 26.483,55.493ZM96.928,11.151C98.268,12.101 99.842,13.532 98.967,15.092C98.852,15.298 98.708,15.485 98.54,15.651C98.331,15.856 98.092,16.039 97.826,16.164C96.68,16.702 95.145,16.427 94.086,15.826C92.954,15.182 92.16,14.076 92.145,12.743C92.127,11.201 93.799,10.025 95.268,10.406C95.749,10.53 96.527,10.866 96.928,11.151ZM96.565,11.892C95.949,11.477 94.722,10.911 93.637,11.713C92.95,12.219 92.987,13.376 93.448,14.042C94.035,14.89 95.213,15.688 96.376,15.758C97.769,15.841 98.47,14.478 98.305,13.814C98.056,12.816 97.037,12.211 96.565,11.892ZM27.864,15.362C26.758,14.759 25.876,13.651 26.147,11.989C26.417,10.34 28.135,8.975 29.815,9.131C31.422,9.28 32.976,10.813 33.006,12.458C33.019,13.128 32.725,13.85 32.317,14.374C31.7,15.167 30.865,15.67 29.864,15.692C29.505,15.7 28.385,15.646 27.864,15.362ZM182.111,15.163C180.68,15.222 179.28,13.832 179.85,12.347C180.327,11.103 181.916,10.13 183.234,10.197C184.696,10.27 185.926,11.781 185.462,13.231C185.035,14.564 183.511,15.106 182.111,15.163ZM29.651,10.534C30.1,10.549 31.727,10.843 31.751,12.603C31.764,13.578 30.909,14.721 29.562,14.653C27.93,14.571 27.238,13.309 27.423,12.358C27.787,10.48 29.09,10.514 29.651,10.534ZM184.644,11.883C184.245,11.11 183.164,10.761 181.812,11.354C180.834,11.784 180.212,12.789 180.583,13.59C180.926,14.331 181.813,14.97 183.348,14.383C184.55,13.923 185.11,12.787 184.644,11.883Z" style="fill:#26af51;"/>
        <g transform="matrix(1,0,0,1,-0.0276428,8.708)">
            <path d="M135.219,50.075C134.332,50.085 133.433,50.206 132.591,50.39L132.466,50.418C130.135,50.949 128.039,52.161 126.281,53.757C124.992,54.926 123.854,56.434 122.297,57.254L121.679,57.558L121.074,57.819L120.43,58.059L119.638,58.307L118.783,58.521L117.912,58.686L117.03,58.803L116.139,58.871L115.476,58.891C115.142,58.894 114.808,58.887 114.475,58.871C115.007,52.891 118.022,47.331 122.214,43.01C125.928,39.182 131.078,35.644 133.342,30.668C135.032,26.953 135.717,22.576 135.3,18.523C134.907,14.718 133.934,10.787 134.042,6.972C134.432,6.446 134.844,5.912 135.287,5.403L135.309,5.377C135.406,5.266 135.504,5.157 135.604,5.049L135.722,4.922C138.054,2.455 141.197,0.844 144.507,0.307C145.467,0.151 146.49,0.08 147.525,0.078L147.764,0.079C149.199,0.091 150.65,0.235 151.986,0.471C153.61,0.758 155.361,1.385 156.798,2.188C158.498,3.138 161.085,5.254 161.974,5.885C162.288,6.109 162.603,6.324 162.919,6.531C163.1,6.556 163.282,6.57 163.463,6.569L163.553,6.567L163.638,6.563L163.643,6.563L163.645,6.562C163.824,6.551 164.002,6.526 164.176,6.482L164.178,6.482L164.181,6.481C164.238,6.467 164.295,6.451 164.352,6.433C165.184,6.166 165.745,5.353 166.452,4.878L166.905,4.608L167.373,4.39L167.857,4.22L168.312,4.104L168.732,4.031L169.156,3.989L169.452,3.978L169.557,3.978L169.606,3.978L169.711,3.98L169.719,3.981L169.747,3.982L169.845,3.986L169.882,3.988L169.999,3.996L170.03,3.999L170.141,4.01L170.158,4.011L170.281,4.026L170.31,4.03L170.433,4.048L170.45,4.051L170.564,4.07L170.586,4.074L170.707,4.098L170.733,4.103L170.858,4.131C173.376,4.725 173.872,7.084 175.398,8.801C176.456,9.993 178.064,10.456 179.608,10.479C179.733,10.481 179.857,10.481 179.98,10.478L180.167,10.446C180.229,10.435 180.291,10.424 180.354,10.412L180.504,10.384C181.016,10.286 181.525,10.171 182.031,10.039L182.041,10.036C182.16,10.887 182.243,11.743 182.297,12.599C182.681,18.603 181.129,24.233 177.418,28.972C174.16,33.133 169.648,36.469 166.965,41.062C164.277,45.662 165.079,51.016 165.224,56.084C165.252,57.096 165.346,58.231 165.341,59.368C165.133,59.377 164.912,59.382 164.684,59.383L164.477,59.384C163.22,59.383 161.815,59.287 161.161,59.095C159.64,58.648 158.498,58.124 157.444,56.995C156.186,55.648 154.953,53.455 154.57,52.926C153.182,51.01 151.703,50.633 149.574,50.167C149.439,50.138 149.305,50.117 149.17,50.105L149.166,50.104L149.163,50.104C149.064,50.095 148.966,50.09 148.866,50.089L148.807,50.089C148.736,50.089 148.665,50.091 148.593,50.096L148.59,50.096L148.584,50.096C148.283,50.115 147.981,50.165 147.679,50.238L147.676,50.238C147.557,50.267 147.438,50.299 147.319,50.334L147.317,50.334C147.09,50.4 146.863,50.476 146.636,50.558L146.626,50.561L146.612,50.567C146.383,50.649 146.154,50.737 145.925,50.826L145.899,50.836L144.971,51.188L144.952,51.195L144.34,51.399L144.34,51.399L143.87,51.525L143.868,51.525L143.401,51.615L143.396,51.616L143.039,51.654L143.035,51.655L142.598,51.66L142.592,51.66L142.182,51.618L141.985,51.579C140.21,51.173 138.463,50.426 136.662,50.164L136.533,50.146C136.189,50.102 135.839,50.079 135.485,50.075L135.352,50.074L135.219,50.075ZM83.293,6.985C83.579,7.081 83.864,7.177 84.149,7.271L84.131,7.227C84.099,7.156 84.062,7.086 84.02,7.02L84.02,7.019L84.018,7.016C84.002,6.99 83.985,6.965 83.968,6.94C83.402,6.125 82.107,5.884 81.703,4.984C80.999,3.417 83.057,1.877 84.353,1.576L84.841,1.498L85.367,1.494L85.913,1.576L86.439,1.742L87.018,2.025L87.326,2.222L87.653,2.467L87.962,2.738L88.254,3.029L88.618,3.452L88.9,3.827L89,3.967C86.517,6.498 83.574,8.496 82.133,12.088C79.654,18.268 79.954,25.108 76.699,31.1C72.673,38.511 64.348,41.608 59.023,47.808C56.288,50.991 55.26,54.89 53.802,58.565C52.022,57.865 50.29,56.519 48.527,53.896C46.209,50.446 39.919,51.457 37.411,49.425C37.108,49.172 36.864,48.89 36.695,48.57L36.622,48.387L36.604,48.322C36.591,48.267 36.58,48.21 36.572,48.149C39.824,39.474 47.992,34.665 53.292,26.715C57.386,20.574 56.926,12.649 59.884,6.034C60.676,4.261 61.69,2.608 62.881,1.107C64.194,1.364 65.574,1.668 67.025,2.022L67.027,2.023C67.234,2.073 67.443,2.125 67.653,2.177L68.751,2.458L69.865,2.754L71.307,3.153L72.455,3.483L73.754,3.868L75.022,4.254L76.292,4.652L77.586,5.068C77.586,5.068 78.908,5.502 78.908,5.502L80.261,5.956C80.82,6.146 81.379,6.336 81.936,6.525L82.213,6.619L83.183,6.948L83.293,6.985ZM223.629,2.482L224.102,2.194L224.304,2.089L224.706,1.91L224.927,1.83C225.201,1.737 225.481,1.671 225.763,1.638L225.983,1.618L226.432,1.61L227.132,1.669L227.779,1.792L228.573,2.023L229.341,2.316L229.728,2.486L230.433,2.826L231.328,3.3L232.11,3.736C232.337,3.863 232.562,3.989 232.783,4.11C235.364,5.526 239.299,8.521 242.277,9.496L242.326,9.499C242.419,9.523 242.513,9.547 242.606,9.57L242.627,9.575C242.703,9.594 242.779,9.612 242.855,9.63L242.885,9.637L242.924,9.646L243.007,9.665L243.148,9.697L243.17,9.702C243.259,9.722 243.348,9.741 243.437,9.759L243.575,9.788C243.638,9.8 243.7,9.813 243.763,9.825L243.851,9.842L243.866,9.844C244.047,9.878 244.227,9.909 244.407,9.938L244.515,9.955C244.577,9.964 244.64,9.973 244.702,9.982L244.805,9.996L244.889,10.007L244.945,10.014L244.962,10.016L244.996,10.02L245.075,10.03L245.236,10.048L245.261,10.051L245.311,10.056L245.373,10.062L245.415,10.066L245.447,10.07L245.472,10.072C245.895,10.111 246.315,10.132 246.733,10.134L246.913,10.133L247.023,10.132L247.132,10.129L247.236,10.126L247.344,10.121L247.451,10.116L247.46,10.115L247.559,10.11L247.569,10.109L247.62,10.106L247.666,10.102L247.678,10.102L247.731,10.097L247.773,10.094L247.787,10.093L247.842,10.088L247.88,10.085L247.896,10.084L247.953,10.078L248.005,10.073L248.065,10.067L248.113,10.062L248.177,10.054L248.222,10.049L248.288,10.041L248.33,10.035L248.413,10.024L248.438,10.021L248.546,10.005L248.626,9.993C249.121,12.411 249.179,14.866 248.728,17.135C247.876,21.415 244.67,25.003 245.019,29.558C245.245,32.519 247.491,35.291 248.934,37.765C250.604,40.628 251.663,43.674 252.167,46.953C252.584,49.668 252.281,52.317 251.43,54.764C250.9,54.599 250.419,54.337 249.979,54.006L249.524,53.627L249.114,53.22L248.718,52.764L248.567,52.575L248.485,52.468L248.463,52.438L248.404,52.359L248.377,52.322L248.324,52.25L248.295,52.209L248.245,52.138L248.216,52.097L248.166,52.025L248.138,51.984L248.087,51.909L248.062,51.871L248.006,51.788L247.986,51.757L247.912,51.643C247.912,51.643 247.625,51.182 247.625,51.182L247.245,50.528L247.124,50.311L247.003,50.089L246.883,49.869L246.65,49.431C245.942,48.096 244.966,46.8 243.674,45.926L243.575,45.86C242.555,45.189 241.451,44.756 240.241,44.729L240.053,44.728C239.359,44.737 238.632,44.879 237.866,45.187C234.382,46.288 233.214,49.556 233.449,52.555C233.473,52.862 233.463,53.184 233.421,53.508C233.104,54.367 232.835,55.129 232.635,55.69C232.216,56.344 231.651,56.873 230.968,57.14C230.512,57.318 230.062,57.393 229.611,57.404L229.52,57.406C229.026,57.409 228.53,57.339 228.024,57.246C228.165,55.749 228.115,54.274 227.761,52.884C226.129,46.474 220.594,42.387 218.775,36.155C216.771,29.285 221.392,23.141 222.933,16.705C223.847,12.887 223.307,9.246 222.938,5.392C222.865,4.637 222.811,3.876 222.809,3.129L223.153,2.832L223.629,2.482ZM190.982,5.706L191.428,5.387L192.109,4.934C192.364,4.769 192.656,4.584 192.98,4.386C193.02,4.571 193.059,4.756 193.099,4.94C194.152,9.847 194.401,14.864 195.631,19.734C197.252,26.149 199.297,34.096 195.439,40.101C193.189,43.604 189.073,45.4 187.207,49.182C187.103,49.393 187.001,49.606 186.904,49.819C185.978,49.836 185.056,49.93 184.093,50.088C182.415,50.365 181.103,50.8 180.086,51.324C178.832,51.97 177.662,52.535 176.511,53.142C176.601,49.944 177.351,46.839 179.196,43.947C183.532,37.147 190.397,34.217 190.584,25.206C190.711,19.145 188.674,13.054 189.008,7.026L189.018,7.019C189.686,6.61 190.341,6.172 190.982,5.706ZM29.012,44.355L29.353,44.4L29.417,44.413L29.441,44.418L29.483,44.427L29.51,44.433L29.549,44.442L29.577,44.449L29.615,44.459L29.642,44.466L29.682,44.477L29.707,44.484L29.75,44.497L29.771,44.504L29.835,44.524C29.835,44.524 30.05,44.607 30.05,44.607L30.12,44.638L30.125,44.64C30.215,44.682 30.305,44.728 30.393,44.779L30.411,44.79L30.463,44.821L30.491,44.838L30.537,44.867L30.581,44.896L30.611,44.915C30.024,46.589 28.687,46.691 27.585,44.496C27.872,44.416 28.167,44.366 28.462,44.348L29.012,44.355ZM261.992,43.973L262.089,43.942C261.847,44.179 261.548,44.336 261.19,44.367L261.141,44.342L261.486,44.168L261.992,43.973ZM30.158,41.955C29.934,41.955 29.711,41.961 29.488,41.974L29.356,41.982L29.313,41.985L29.287,41.987L29.262,41.989L29.222,41.992L29.101,42.002L29.087,42.003L29.07,42.004L28.954,42.015L28.913,42.02L28.887,42.022L28.86,42.025C28.25,42.09 27.644,42.199 27.045,42.342L27.041,42.343C27.121,40.445 28.338,38.112 28.955,36.723C30.097,34.157 31.736,31.851 33.953,30.102C38.569,26.462 43.966,24.746 45.916,18.617C46.744,16.015 46.423,13.445 46.53,10.765C46.672,7.223 47.23,3.621 48.628,0.343C50.374,0.069 52.303,-0.035 54.466,0.049C52.733,2.134 51.509,4.557 50.934,7.219C49.832,12.315 51.191,17.993 49.253,22.843C47.056,28.341 41.676,29.963 37.628,33.684C35.007,36.093 33.689,39.383 31.388,42.015C31.171,41.995 30.943,41.98 30.707,41.968C30.526,41.959 30.345,41.955 30.165,41.955L30.158,41.955ZM257.153,5.659L257.766,5.409C257.968,5.941 258.134,6.448 258.269,6.893C259.132,9.742 259.47,12.708 259.444,15.675L259.442,15.676C258.943,15.995 258.521,16.326 258.165,16.666L258.099,16.73L258.078,16.751L258.068,16.761L258.02,16.809L258.001,16.828L257.996,16.834L257.984,16.846L257.944,16.888L257.923,16.91L257.915,16.918L257.904,16.93L257.87,16.967L257.847,16.992L257.838,17.002L257.827,17.014L257.798,17.046L257.773,17.075L257.763,17.086L257.753,17.097L257.728,17.126L257.701,17.158L257.69,17.17L257.682,17.18L257.661,17.205L257.631,17.242L257.62,17.255L257.614,17.264L257.596,17.286L257.563,17.327L257.553,17.34L257.548,17.347L257.533,17.366L257.497,17.413L257.472,17.446L257.431,17.502L257.413,17.527L257.364,17.597C257.245,17.769 257.14,17.942 257.048,18.115L257.014,18.179L256.973,18.262L256.933,18.344L256.896,18.426L256.878,18.466C256.788,18.675 256.714,18.884 256.655,19.094C256.594,19.313 256.549,19.532 256.518,19.75L256.507,19.833C256.499,19.888 256.494,19.945 256.49,20.003C256.443,20.756 256.738,21.698 257.43,22.494C257.701,22.806 258.028,23.091 258.393,23.33C258.452,23.369 258.513,23.407 258.575,23.444C258.227,25.087 257.872,26.748 257.923,28.383C258.059,32.792 261.687,36.326 262.852,40.47C262.956,40.837 262.986,41.351 262.929,41.885L262.915,41.883C262.529,41.818 262.154,41.758 261.788,41.703L261.775,41.701L261.757,41.698C261.056,41.593 260.395,41.509 259.784,41.458L259.695,41.451L259.641,41.447L259.62,41.445L259.597,41.444L259.543,41.44L259.496,41.437L259.47,41.435L259.443,41.433L259.394,41.43L259.349,41.427L259.323,41.426L259.296,41.424L259.246,41.422L259.202,41.42L259.178,41.418L259.153,41.417L259.101,41.415L259.053,41.413L259.035,41.413L259.016,41.412L258.958,41.41L258.904,41.409L258.817,41.407L258.756,41.406C256.604,36.004 253.665,31.404 255.181,25.273C256.553,19.723 256.985,14.733 255.17,9.195C254.968,8.58 254.753,7.97 254.536,7.361L254.468,7.171L255.121,6.738L255.753,6.36L255.753,6.36L256.163,6.136C256.364,6.029 256.568,5.927 256.774,5.83L256.895,5.774L256.909,5.768L257.015,5.719L257.044,5.707L257.135,5.666L257.153,5.659ZM179.995,3.38L180.035,3.306C180.054,3.271 180.075,3.237 180.097,3.202C180.411,3.913 180.698,4.633 180.949,5.359C181.057,5.674 181.158,5.991 181.252,6.31C180.663,6.091 180.161,5.645 179.913,5.089L179.798,4.75L179.749,4.387L179.771,4.034L179.855,3.701L179.878,3.639L179.908,3.564L179.916,3.545L179.95,3.47L179.986,3.397L179.995,3.38ZM253.697,2.218L253.711,2.216L253.756,2.208L253.767,2.206L253.821,2.198L253.832,2.197L253.876,2.192L253.892,2.191L253.938,2.188L253.946,2.187L254,2.185L254.014,2.185L254.056,2.184L254.071,2.185L254.125,2.186L254.169,2.189C255.032,2.256 255.322,3.094 255.087,3.827L255.049,3.929C254.962,4.137 254.818,4.344 254.635,4.534L254.39,4.76C254.191,4.924 253.965,5.067 253.729,5.175C253.462,4.496 253.084,3.495 252.842,2.571L253.215,2.371L253.591,2.241L253.643,2.229L253.697,2.218Z" style="fill:#97ce55;fill-opacity:0.27;"/>
        </g>
        <path d="M55.439,62.382C54.797,62.399 54.115,62.316 53.705,61.766C53.13,60.993 53.21,59.895 54.323,59.816C55.107,59.76 55.944,60.236 56.382,60.877C56.909,61.646 56.477,62.354 55.439,62.382ZM219.106,60.718C218.823,60.693 218.23,60.509 218.029,60.328C217.708,60.038 217.404,59.714 217.363,59.256C217.29,58.444 218.245,57.775 218.98,57.833C219.375,57.864 219.771,58.053 220.133,58.201C220.357,58.293 220.561,58.42 220.749,58.573C221.117,58.87 221.383,59.461 221.174,59.92C221.061,60.168 220.832,60.344 220.598,60.469C220.126,60.723 219.609,60.763 219.106,60.718ZM229.521,52.121C229.324,53.53 229.105,54.907 228.678,56.267C228.415,57.104 227.999,58.014 227.276,58.553C226.392,59.212 224.848,59.559 223.805,59.184C223.166,58.954 222.55,58.46 222.62,57.713C222.704,56.806 223.515,56.257 224.146,55.711C224.741,55.196 225.409,54.635 225.831,53.961C226.396,53.057 226.71,51.993 227.52,51.256C227.802,51 228.22,50.693 228.626,50.765C229.255,50.875 229.6,51.548 229.521,52.121ZM51.807,58.61C51.575,58.486 51.329,58.321 51.217,58.072C50.906,57.375 51.831,57.137 52.328,57.385C52.654,57.549 52.906,57.959 52.826,58.329C52.749,58.687 52.15,58.795 51.807,58.61ZM264.803,54.764C265.531,54.858 266.231,55.29 266.56,55.964C266.759,56.37 266.557,56.884 266.15,57.081C265.91,57.198 265.582,57.207 265.321,57.189C264.641,57.142 264.275,56.553 264.076,55.968C264.003,55.755 263.924,55.459 263.983,55.233C264.072,54.89 264.488,54.778 264.803,54.764ZM78.756,53.17C77.767,52.887 76.947,52.056 77.009,50.81C77.07,49.587 78.188,48.422 79.42,48.351C80.046,48.314 80.698,48.464 81.204,48.845C82.372,49.723 82.983,51.834 81.677,52.877C81.029,53.394 79.547,53.397 78.756,53.17ZM86.026,50.626C85.006,50.383 84.401,50.265 84.6,49.323C84.635,49.157 84.704,48.997 84.796,48.855C85.177,48.27 85.902,48.034 86.575,48.064C87.33,48.097 88.135,48.449 88.562,49.092C89.118,49.928 88.337,50.869 87.483,51.058C87.044,51.155 86.432,50.723 86.026,50.626ZM9.36,49.255C9.722,49.729 11.174,49.819 12.123,49.842C14.141,49.89 16.029,49.575 17.84,48.663C18.641,48.259 19.478,47.872 20.172,47.292C20.402,47.1 20.896,46.71 20.528,46.411C20.301,46.226 19.986,46.189 19.703,46.178C19.138,46.156 18.562,46.228 18.004,46.312C15.847,46.636 13.67,47.156 11.574,47.76C11.371,47.819 11.168,47.877 10.967,47.938C10.803,47.989 10.64,48.043 10.48,48.104C10.352,48.153 10.225,48.205 10.1,48.261C10.009,48.303 9.919,48.348 9.831,48.397C9.612,48.519 9.055,48.856 9.36,49.255ZM270.737,44.293C270.69,43.151 271.008,42.14 271.69,41.375C272.706,40.237 273.828,40.687 274.041,42.429C274.18,43.56 273.889,44.674 273.245,45.556C272.277,46.88 270.804,45.898 270.737,44.293ZM231.386,19.143C232.712,20.21 234.13,21.195 235.54,22.145C236.776,22.978 238.102,23.852 239.569,24.202C241.095,24.567 242.908,24.912 244.49,24.894C245.717,24.879 246.83,24.436 248.061,24.768C249.436,25.139 250.959,26.572 250.172,28.133C249.33,29.801 247.276,30.787 245.44,30.732C244.771,30.712 244.149,30.379 243.48,30.326C242.04,30.212 240.601,30.592 239.162,30.548C237.123,30.484 234.874,29.469 233.36,28.123C231.682,26.631 231.018,24.589 229.913,22.714C229.341,21.743 228.481,20.848 228.197,19.731C228.003,18.967 228.655,18.441 229.286,18.344C230,18.235 230.823,18.583 231.386,19.143ZM47.868,15.465C50.045,14.728 52.168,14.293 54.187,14.403C57.875,14.605 61.084,15.108 64.645,15.988C66.44,16.432 68.466,17.032 70.35,17.779C72.173,18.503 73.597,19.081 75.529,19.946C76.066,20.187 77.111,20.713 76.955,21.48C76.647,22.996 74.19,23.275 72.973,23.347C72.614,23.368 72.258,23.366 71.898,23.351C71.482,23.334 71.068,23.281 70.66,23.198C67.094,22.47 63.862,20.78 60.227,20.334C57.737,20.029 55.262,20.186 52.792,20.57C50.316,20.954 47.718,21.564 45.195,21.4C43.754,21.307 42.273,20.472 43.11,18.932C43.242,18.689 43.872,17.97 44.067,17.773C45.072,16.762 46.598,15.894 47.868,15.465ZM196.213,18.369C197.878,16.8 199.93,15.422 202.202,14.948C202.983,14.784 204.522,14.657 204.612,15.813C204.623,15.957 204.598,16.103 204.549,16.238C204.49,16.398 204.395,16.544 204.28,16.67C203.597,17.426 202.368,17.718 201.434,18.016C200.072,18.449 198.759,19.011 197.398,19.44C196.822,19.622 196.256,19.831 195.681,20.018C195.534,20.066 195.219,20.222 195.057,20.174C194.867,20.118 195.091,19.674 195.149,19.585C195.528,19 195.752,18.803 196.213,18.369ZM113.535,17.88C112.895,17.464 112.433,17.052 112.4,16.246C112.375,15.639 112.724,14.877 113.415,14.844C113.778,14.826 114.191,15.064 114.462,15.287C115.219,15.911 115.714,16.804 115.909,17.761C115.97,18.057 116.066,18.428 115.976,18.728C115.889,19.021 115.488,19.169 115.215,19.179C114.519,19.207 114.012,18.19 113.535,17.88ZM95.721,13.117C95.34,13.007 94.803,12.888 94.582,12.51C94.452,12.286 94.625,12.046 94.814,11.925C95.088,11.749 95.455,11.795 95.744,11.901C96.248,12.085 96.648,12.441 97.025,12.814C97.111,12.9 97.259,13.041 97.26,13.179C97.261,13.313 97.193,13.467 97.09,13.522C96.691,13.739 96.084,13.222 95.721,13.117Z" style="fill:#97ce55;fill-opacity:0.66;"/>
        <g transform="matrix(1,0,0,1,-0.0276428,8.708)">
            <path d="M248.51,20.192C247.87,20.528 247.141,20.754 246.423,20.835C246.069,20.874 245.705,20.891 245.363,20.776C244.524,20.494 243.909,19.708 244.471,18.878C244.562,18.743 244.673,18.626 244.81,18.535C245.47,18.095 246.268,18.267 246.994,18.048C247.569,17.875 248.297,17.272 248.925,17.473C249.373,17.617 249.612,18.154 249.535,18.599C249.426,19.224 248.995,19.793 248.51,20.192Z" style="fill:#edf0b7;fill-opacity:0.41;"/>
        </g>
        <g transform="matrix(1,0,0,1,-0.0276428,8.708)">
            <path d="M246.547,17.56C246.462,17.547 246.374,17.535 246.295,17.501C246.053,17.4 246.042,17.115 246.205,16.94C246.353,16.782 246.653,16.706 246.865,16.718C247.107,16.732 247.437,16.975 247.268,17.24C247.138,17.446 246.783,17.551 246.547,17.56Z" style="fill:#edf0b7;fill-opacity:0.41;"/>
        </g>
        <g transform="matrix(1,0,0,1,-0.0276428,8.708)">
            <path d="M47.991,8.676C49.978,7.958 52.061,7.199 54.165,6.906C56.274,6.612 58.408,6.799 60.461,7.359C61.449,7.628 62.397,8.058 63.281,8.575C63.509,8.709 64.061,9.005 64.029,9.346C63.991,9.768 63.365,9.918 63.037,9.967C62.005,10.122 60.843,9.821 59.809,9.738C57.877,9.582 55.849,9.314 53.914,9.546C51.838,9.796 49.867,10.511 47.765,10.594C47.542,10.603 47.317,10.563 47.104,10.498C46.947,10.45 46.793,10.383 46.648,10.304C46.136,10.025 46.27,9.45 46.621,9.085C46.92,8.773 47.585,8.746 47.991,8.676Z" style="fill:#edf0b7;fill-opacity:0.41;"/>
        </g>
        <g transform="matrix(1,0,0,1,-0.0276428,8.708)">
            <path d="M44.963,11.804C44.747,11.818 44.475,11.763 44.276,11.663C43.814,11.433 43.681,10.901 44.029,10.506C44.312,10.185 44.849,10.079 45.26,10.085C46.022,10.096 46.48,10.678 45.973,11.33C45.694,11.691 45.405,11.799 44.963,11.804Z" style="fill:#edf0b7;fill-opacity:0.41;"/>
        </g>
        <g transform="matrix(1,0,0,1,-0.0276428,8.708)">
            <path d="M225.508,49.122C225.842,48.783 226.156,48.433 226.441,48.052C226.59,47.853 226.733,47.644 226.909,47.467C227.32,47.056 227.987,46.927 227.957,47.739C227.939,48.21 227.639,48.755 227.331,49.103C227.001,49.475 226.428,49.828 225.909,49.823C225.729,49.821 224.98,49.658 225.508,49.122Z" style="fill:#edf0b7;fill-opacity:0.41;"/>
        </g>
    </g>
</svg>
