<?xml version="1.0" encoding="UTF-8" standalone="no"?>
<!DOCTYPE svg PUBLIC "-//W3C//DTD SVG 1.1//EN" "http://www.w3.org/Graphics/SVG/1.1/DTD/svg11.dtd">
<svg width="100%" height="100%" viewBox="0 0 280 62" version="1.1" xmlns="http://www.w3.org/2000/svg" xmlns:xlink="http://www.w3.org/1999/xlink" xml:space="preserve" xmlns:serif="http://www.serif.com/" style="fill-rule:evenodd;clip-rule:evenodd;stroke-linejoin:round;stroke-miterlimit:2;">
    <g id="banner_36" transform="matrix(1,0,0,1,0,-8.69623)">
        <path d="M280,47.751L-0,47.751L-0,65.286C-0,67.888 2.112,70 4.714,70L275.286,70C277.888,70 280,67.888 280,65.286L280,47.751Z" style="fill:#b63c05;"/>
        <g transform="matrix(-0.893232,-1.09389e-16,8.74808e-17,-0.714335,285.834,65.8968)">
            <path d="M320,8.028C320,5.159 318.138,2.83 315.844,2.83L10.688,2.83C8.394,2.83 6.532,5.159 6.532,8.028L6.532,74.803C6.532,77.671 8.394,80 10.688,80L315.844,80C318.138,80 320,77.671 320,74.803L320,8.028Z" style="fill:#3d0226;"/>
        </g>
        <path d="M280,58.875L-0,58.875L-0,60.162C-0,62.211 1.664,63.875 3.713,63.875L276.287,63.875C278.336,63.875 280,62.211 280,60.162L280,58.875Z" style="fill:#fd8a29;"/>
        <g>
            <g>
                <path d="M0.79,62.451C0.295,61.82 -0,61.025 -0,60.162L-0,12.463C-0,10.414 1.664,8.75 3.713,8.75L63.892,8.75L63.892,62.45C61.106,62.214 58.569,61.817 55.611,61.812C52.668,61.806 49.463,62.342 46.521,62.428C43.442,62.518 40.403,62.242 37.331,62.098C35.214,61.998 32.966,61.873 30.836,62.083C26.514,62.51 22.514,63.211 18.11,62.998C13.07,62.753 8.414,61.121 3.302,61.763C2.45,61.87 1.607,62.119 0.79,62.451Z" style="fill:#90082b;"/>
                <g transform="matrix(1,0,0,1,-0.489141,0)">
                    <path d="M25.612,62.036C25.767,57.749 26.036,53.478 26.255,49.195C26.392,46.516 26.265,43.839 26.203,41.161C26.134,38.153 25.921,35.093 26.602,32.135C26.691,31.748 27.994,30.872 28.526,30.996C28.914,31.086 29.209,31.558 29.357,31.89C29.736,32.742 29.653,33.762 29.626,34.67C29.581,36.194 29.512,37.722 29.406,39.243C29.058,44.238 29.152,49.199 29.155,54.203C29.156,54.835 29.162,55.467 29.153,56.099C29.147,56.624 29.122,57.148 29.091,57.672C29.071,58.019 29.05,58.366 29.028,58.714C29.012,58.977 28.998,59.241 28.983,59.505C28.946,60.169 28.738,61.841 28.717,61.841C27.746,61.841 26.455,62.336 25.612,62.036Z" style="fill:#a2002a;"/>
                </g>
                <path d="M60.82,19.857C60.907,28.041 60.351,36.222 60.599,44.404C60.676,46.942 61.133,49.468 61.308,52.003C61.472,54.368 61.254,56.72 61.49,59.082C61.54,59.582 61.326,61.06 61.716,61.538C61.794,61.633 62.573,61.563 62.723,61.557C63.35,61.528 63.466,59.829 63.474,59.428C63.519,57.025 63.17,54.62 63.048,52.223C62.742,46.21 63.34,40.247 63.479,34.239C63.54,31.64 63.132,29.046 63.149,26.444C63.152,25.883 63.168,25.323 63.176,24.762C63.19,23.693 63.255,22.632 63.313,21.565C63.343,21.016 63.44,20.428 63.15,19.932C62.877,19.464 61.493,19.705 60.82,19.857Z" style="fill:#a2002a;"/>
                <path d="M43.744,61.908C43.772,59.759 43.534,57.62 43.539,55.47C43.552,50.152 43.777,44.839 43.914,39.523C44.035,34.829 43.98,30.19 43.802,25.5C43.66,21.728 43.519,17.704 44.198,13.968C44.398,12.869 44.394,11.513 44.945,10.499C45.205,10.023 45.678,9.692 46.148,9.446C47.464,8.755 50.731,8.049 51.663,9.76C52.641,11.557 52.028,13.983 51.744,15.885C51.244,19.227 50.977,22.58 50.93,25.959C50.884,29.27 51.122,32.583 50.978,35.894C50.801,39.952 51.096,43.925 51.053,47.99C51.033,49.835 51.043,51.625 51.145,53.466C51.205,54.547 51.295,55.626 51.336,56.707C51.379,57.828 51.613,61.329 51.497,61.586C51.18,62.289 49.456,61.979 48.803,61.985C47.067,62 45.485,61.874 43.744,61.908Z" style="fill:#a2002a;"/>
                <path d="M63.24,26.964C62.083,26.848 57.65,25.962 55.792,24.874C53.885,23.757 50.088,19.467 50.088,19.467C50.088,19.467 48.056,27.825 41.171,35C38.058,38.244 31.946,42.763 25.686,44.05C22.707,44.662 19.737,45.022 16.718,44.678C15.719,44.564 14.224,44.769 13.846,43.609C13.508,42.577 13.663,41.396 13.801,40.343C14.039,38.538 14.435,36.75 14.762,34.959C15.502,30.9 16.435,26.992 18.271,23.274C18.866,22.067 19.402,20.553 20.499,19.687C23.935,16.971 28.582,16.199 32.399,14.145C35.254,12.608 37.911,11.997 40.931,10.781C42.683,10.076 44.66,9.884 46.532,9.932C49.17,10 52.234,9.691 54.754,10.716C55.971,11.211 56.663,12.365 57.663,13.146C60.293,15.199 61.847,16.009 62.608,19.434C62.916,20.823 63.474,22.273 63.421,23.685C63.386,24.624 63.532,26.055 63.24,26.964Z" style="fill:#5d0018;fill-opacity:0.5;"/>
                <path d="M53.776,61.586C53.956,55.381 53.707,49.175 53.609,42.971C53.557,39.706 53.488,36.44 53.469,33.175C53.464,32.268 53.458,31.361 53.459,30.454C53.464,28.328 53.542,26.201 53.581,24.074C53.597,23.26 53.643,17.13 53.717,16.319C53.72,16.288 53.75,15.513 53.801,15.499C57.535,14.48 59.002,18.441 59.079,21.369C59.217,26.605 58.907,37.15 59.144,42.394C59.428,48.701 60.241,55.153 60.067,61.473C57.928,61.047 55.826,61.026 53.776,61.586Z" style="fill:#5d0018;fill-opacity:0.5;"/>
                <path d="M29.807,61.576C30.284,56.14 30.163,50.637 30.336,45.185C30.442,41.852 30.349,38.474 30.621,35.151C30.865,32.176 30.61,28.031 32.627,25.5C33.572,24.314 36.304,23.062 37.82,24.031C38.444,24.431 38.761,25.268 38.937,25.953C39.712,28.979 38.715,32.364 38.386,35.392C38.135,37.708 37.954,40.017 37.899,42.347C37.786,47.099 38.115,51.831 37.986,56.586C37.955,57.736 37.95,58.888 37.946,60.039C37.945,60.548 38.04,61.298 37.882,61.8C37.855,61.884 37.034,61.813 37.005,61.811C35.979,61.718 34.963,61.63 33.923,61.61C32.658,61.586 31.123,61.586 29.807,61.576Z" style="fill:#5d0018;fill-opacity:0.5;"/>
                <path d="M0.79,62.451C0.295,61.82 -0,61.025 -0,60.162L-0,12.463C-0,10.414 1.664,8.75 3.713,8.75L63.892,8.75L63.892,62.45C61.106,62.214 58.569,61.817 55.611,61.812C52.668,61.806 49.463,62.342 46.521,62.428C43.442,62.518 40.403,62.242 37.331,62.098C35.214,61.998 32.966,61.873 30.836,62.083C26.514,62.51 22.514,63.211 18.11,62.998C13.07,62.753 8.414,61.121 3.302,61.763C2.45,61.87 1.607,62.119 0.79,62.451ZM1.368,60.916C1.291,60.678 1.25,60.425 1.25,60.162L1.25,12.463C1.25,11.103 2.353,10 3.713,10L62.642,10C62.642,10 62.642,61.078 62.642,61.078C60.332,60.847 58.122,60.566 55.613,60.562C52.657,60.556 49.439,61.092 46.485,61.178C43.437,61.267 40.43,60.992 37.39,60.849C35.214,60.747 32.903,60.623 30.714,60.84C26.454,61.26 22.511,61.96 18.171,61.749C13.058,61.501 8.333,59.871 3.146,60.523C2.548,60.598 1.953,60.733 1.368,60.916L1.368,60.916Z" style="fill:#5d0018;"/>
            </g>
            <g>
                <path d="M46.038,8.75C46.305,10.09 46.443,11.465 46.443,12.865C46.443,27.285 33.363,34.255 16.819,41.363C15.867,41.772 16.801,42.332 16.297,43.132C22.3,50.532 23.7,56.489 27.447,67.771C27.683,68.482 27.427,69.263 27.387,70L4.714,70C2.112,70 -0,67.888 -0,65.286L-0,12.463C-0,10.414 1.664,8.75 3.713,8.75L46.038,8.75Z" style="fill:#c72734;"/>
                <path d="M20.889,70C20.749,69.628 20.633,69.251 20.527,68.892C19.955,66.954 19.527,64.959 19.09,62.987C17.511,55.848 17.502,48.104 13.593,41.651L14.643,43.226C16.857,46.123 18.453,49.415 19.912,52.739C21.726,56.871 23.265,61.067 24.527,65.399C24.953,66.861 25.34,68.338 25.727,69.811C25.735,69.842 25.757,69.91 25.788,70L20.889,70ZM13.16,42.696C13.63,45.812 13.735,48.988 13.933,52.131C14.054,54.057 14.142,55.986 14.246,57.914C14.351,59.877 14.47,61.842 14.479,63.809C14.482,64.472 14.462,65.134 14.445,65.797C14.438,66.055 14.431,66.312 14.425,66.57C14.422,66.709 14.459,67.12 14.415,66.988C13.432,64.059 13.608,60.795 13.163,57.761C12.405,52.583 10.578,47.367 11.728,42.128L13.16,42.696ZM-0,40.038C0.124,39.926 0.254,39.824 0.391,39.733C0.525,39.644 0.687,39.856 0.836,39.918C1.294,40.107 1.757,40.28 2.187,40.53C2.638,40.793 3.023,41.123 3.34,41.538C3.364,41.569 3.143,41.906 3.121,41.949C2.877,42.44 2.676,42.955 2.496,43.473C2.15,44.467 1.968,45.521 1.861,46.587C2.037,50.335 1.093,54.087 0.42,57.919C0.29,58.663 0.148,59.405 -0,60.145L-0,40.038ZM9.468,42.551C8.97,43.917 8.518,45.298 8.085,46.686C7.827,47.509 7.576,48.335 7.358,49.17C7.159,49.933 6.989,50.703 6.85,51.48C6.775,51.906 6.64,52.329 6.565,51.893C6.54,51.743 6.519,51.593 6.501,51.442C6.467,51.148 6.446,50.831 6.438,50.535C6.423,50.012 6.443,49.822 6.479,49.222C6.62,46.868 6.95,44.061 8.412,42.089L9.468,42.551Z" style="fill:#a91e29;fill-opacity:0.5;"/>
                <path d="M16.392,44.257C18.629,46.679 20.333,49.512 21.731,52.479C22.464,54.035 23.162,55.587 23.744,57.206C24.328,58.827 24.838,60.439 25.312,62.094C25.472,62.651 25.624,63.21 25.769,63.771C25.812,63.938 25.961,64.58 25.95,64.552C25.504,63.354 25.138,62.469 24.616,61.252C24.131,60.123 23.608,59.048 23.119,57.921C21.586,54.39 19.851,50.951 17.926,47.617C17.278,46.494 16.682,45.291 15.952,44.22L16.392,44.257ZM14.533,43.745C16.004,46.787 16.468,50.243 16.643,53.587C16.702,54.718 16.706,55.857 16.586,56.985C16.551,57.312 16.336,58.575 16.336,58.557C16.267,57.151 16.163,55.791 15.969,54.42C15.616,51.917 14.952,49.42 14.351,46.965C14.151,46.15 13.942,45.337 13.753,44.52C13.63,43.992 13.564,43.437 13.403,42.92L14.533,43.745ZM22.86,26.645C22.3,30.667 20.109,34.377 17.55,37.453C16.679,38.499 15.743,39.571 14.675,40.423C14.283,40.736 13.854,41.001 13.438,41.28L12.927,41.605C12.907,41.618 12.863,41.665 12.867,41.642C12.993,40.938 13.508,40.273 13.932,39.724C14.797,38.603 15.761,37.559 16.656,36.463C18.661,34.008 20.224,32.484 21.615,29.626C21.935,28.97 22.626,27.339 22.86,26.645ZM33.94,26.261C33.561,27.419 33.004,28.441 32.276,29.427C32.043,29.743 31.807,30.057 31.547,30.352C31.463,30.447 31.377,30.541 31.292,30.635C31.252,30.68 31.113,30.759 31.172,30.769C32.064,30.929 33.067,30.747 33.922,30.467C34.199,30.376 34.476,30.281 34.746,30.169C34.838,30.13 34.928,30.089 35.018,30.047C35.061,30.027 35.168,29.945 35.147,29.987C34.938,30.406 34.526,30.795 34.198,31.124C33.41,31.916 32.534,32.588 31.622,33.23C29.869,34.462 27.977,35.522 26.083,36.519C24.598,37.301 21.319,38.461 21.319,38.461C21.319,38.461 25.104,35.261 25.988,34.417C28.715,31.814 31.293,28.945 33.94,26.261Z" style="fill:#d63542;fill-opacity:0.65;"/>
                <path d="M37.745,16.255C36.139,20.533 33.297,24.314 30.603,27.964C28.81,30.394 26.805,32.678 24.572,34.717C22.455,36.65 20.207,38.585 17.801,40.157C16.957,40.709 16.075,41.196 15.242,41.764C14.979,41.943 14.72,42.13 14.449,42.296C14.31,42.38 13.947,42.674 14.022,42.53C15.046,40.566 16.748,39.012 18.157,37.337C19.301,35.976 20.302,34.558 21.169,33.005C23.104,29.535 24.612,25.838 26.078,22.153C26.404,21.334 26.728,20.514 27.04,19.69C27.751,17.815 27.677,16.451 29.541,15.441C29.938,15.226 30.35,15.038 30.767,14.867C31.37,14.619 31.989,14.409 32.62,14.247C33.574,14.002 34.668,13.745 35.666,13.821L37.745,16.255ZM22.481,19.6C21.465,25.137 19.493,30.536 16.271,35.193C15.216,36.719 13.992,38.168 12.56,39.355C12.079,39.755 11.574,40.125 11.071,40.496C10.933,40.597 10.796,40.698 10.656,40.796C10.606,40.83 10.489,40.955 10.505,40.897C12.026,35.549 15.959,31.02 18.493,26.151C19.629,23.968 20.395,21.414 20.86,18.982L22.481,19.6ZM7.339,40.03C9.138,37.399 10.585,34.824 11.761,31.938C12.158,30.964 12.561,29.99 12.899,28.994C12.997,28.706 13.089,28.416 13.19,28.129C13.25,27.956 13.487,27.47 13.373,27.612C11.132,30.421 9.411,33.602 6.948,36.241C5.753,37.521 4.296,38.35 3.009,39.479L7.339,40.03ZM0,14.245C0.887,13.944 1.781,13.745 2.537,13.624C3.283,13.504 4.033,13.417 4.782,13.318C5.169,13.267 5.556,13.216 5.943,13.168C7.745,12.947 8.487,13.336 9.627,14.806C9.961,15.235 10.288,15.678 10.512,16.176C11.119,17.529 10.621,19.225 10.015,20.777C7.471,25.814 4.43,30.71 1.267,35.373C0.864,35.967 0.445,36.54 0,37.093L0,14.245ZM12.557,22.286C11.646,24.24 10.598,26.081 9.463,27.91C9.119,28.465 8.773,29.019 8.401,29.557C8.271,29.746 8.148,29.939 8.026,30.134C7.97,30.222 7.761,30.422 7.863,30.401C8.945,30.175 9.956,29.412 10.785,28.725C12.605,27.217 13.992,25.086 15.186,23.068L12.557,22.286ZM40.032,19.545C39.241,22.121 37.813,24.278 36.113,26.343C35.58,26.99 35.077,27.66 34.521,28.288C34.317,28.518 34.106,28.741 33.893,28.963C33.826,29.033 33.76,29.103 33.696,29.175C33.668,29.206 33.573,29.262 33.614,29.27C34.029,29.353 34.609,29.116 34.989,28.981C36.1,28.584 37.171,27.99 38.135,27.314C40.13,25.915 41.925,23.949 43.15,21.84C43.757,20.795 44.185,19.652 44.671,18.547C45.019,17.757 45.447,16.971 45.72,16.148L40.032,19.545ZM10.015,20.777C10.116,20.577 10.216,20.377 10.315,20.176L9.178,22.854C9.409,22.23 9.724,21.52 10.015,20.777Z" style="fill:#a91e29;fill-opacity:0.5;"/>
            </g>
            <g transform="matrix(1.16328,0.178657,0.151801,-0.988411,-54.7153,80.5291)">
                <g transform="matrix(0.839831,0.151801,0.128982,-0.988411,35.5648,87.9017)">
                    <path d="M-0,37.709L17.852,40.451C18.438,40.541 18.84,41.089 18.75,41.675L18.424,43.796C18.334,44.382 17.786,44.784 17.2,44.694L-0,42.053L-0,37.709Z" style="fill:#fa0;"/>
                </g>
                <g transform="matrix(0.839831,0.151801,0.128982,-0.988411,35.5648,87.9017)">
                    <path d="M0,40.383L17.924,43.136C18.249,43.185 18.471,43.489 18.422,43.813L18.351,44.27C18.302,44.594 17.998,44.817 17.674,44.767L0,42.053L0,40.383Z" style="fill:#bd7e00;"/>
                </g>
            </g>
        </g>
        <g transform="matrix(-1,0,0,1,280,0)">
            <g>
                <path d="M0.79,62.451C0.295,61.82 -0,61.025 -0,60.162L-0,12.463C-0,10.414 1.664,8.75 3.713,8.75L63.892,8.75L63.892,62.45C61.106,62.214 58.569,61.817 55.611,61.812C52.668,61.806 49.463,62.342 46.521,62.428C43.442,62.518 40.403,62.242 37.331,62.098C35.214,61.998 32.966,61.873 30.836,62.083C26.514,62.51 22.514,63.211 18.11,62.998C13.07,62.753 8.414,61.121 3.302,61.763C2.45,61.87 1.607,62.119 0.79,62.451Z" style="fill:#90082b;"/>
                <g transform="matrix(1,0,0,1,-0.489141,0)">
                    <path d="M25.612,62.036C25.767,57.749 26.036,53.478 26.255,49.195C26.392,46.516 26.265,43.839 26.203,41.161C26.134,38.153 25.921,35.093 26.602,32.135C26.691,31.748 27.994,30.872 28.526,30.996C28.914,31.086 29.209,31.558 29.357,31.89C29.736,32.742 29.653,33.762 29.626,34.67C29.581,36.194 29.512,37.722 29.406,39.243C29.058,44.238 29.152,49.199 29.155,54.203C29.156,54.835 29.162,55.467 29.153,56.099C29.147,56.624 29.122,57.148 29.091,57.672C29.071,58.019 29.05,58.366 29.028,58.714C29.012,58.977 28.998,59.241 28.983,59.505C28.946,60.169 28.738,61.841 28.717,61.841C27.746,61.841 26.455,62.336 25.612,62.036Z" style="fill:#a2002a;"/>
                </g>
                <path d="M60.82,19.857C60.907,28.041 60.351,36.222 60.599,44.404C60.676,46.942 61.133,49.468 61.308,52.003C61.472,54.368 61.254,56.72 61.49,59.082C61.54,59.582 61.326,61.06 61.716,61.538C61.794,61.633 62.573,61.563 62.723,61.557C63.35,61.528 63.466,59.829 63.474,59.428C63.519,57.025 63.17,54.62 63.048,52.223C62.742,46.21 63.34,40.247 63.479,34.239C63.54,31.64 63.132,29.046 63.149,26.444C63.152,25.883 63.168,25.323 63.176,24.762C63.19,23.693 63.255,22.632 63.313,21.565C63.343,21.016 63.44,20.428 63.15,19.932C62.877,19.464 61.493,19.705 60.82,19.857Z" style="fill:#a2002a;"/>
                <path d="M43.744,61.908C43.772,59.759 43.534,57.62 43.539,55.47C43.552,50.152 43.777,44.839 43.914,39.523C44.035,34.829 43.98,30.19 43.802,25.5C43.66,21.728 43.519,17.704 44.198,13.968C44.398,12.869 44.394,11.513 44.945,10.499C45.205,10.023 45.678,9.692 46.148,9.446C47.464,8.755 50.731,8.049 51.663,9.76C52.641,11.557 52.028,13.983 51.744,15.885C51.244,19.227 50.977,22.58 50.93,25.959C50.884,29.27 51.122,32.583 50.978,35.894C50.801,39.952 51.096,43.925 51.053,47.99C51.033,49.835 51.043,51.625 51.145,53.466C51.205,54.547 51.295,55.626 51.336,56.707C51.379,57.828 51.613,61.329 51.497,61.586C51.18,62.289 49.456,61.979 48.803,61.985C47.067,62 45.485,61.874 43.744,61.908Z" style="fill:#a2002a;"/>
                <path d="M63.24,26.964C62.083,26.848 57.65,25.962 55.792,24.874C53.885,23.757 50.088,19.467 50.088,19.467C50.088,19.467 48.056,27.825 41.171,35C38.058,38.244 31.946,42.763 25.686,44.05C22.707,44.662 19.737,45.022 16.718,44.678C15.719,44.564 14.224,44.769 13.846,43.609C13.508,42.577 13.663,41.396 13.801,40.343C14.039,38.538 14.435,36.75 14.762,34.959C15.502,30.9 16.435,26.992 18.271,23.274C18.866,22.067 19.402,20.553 20.499,19.687C23.935,16.971 28.582,16.199 32.399,14.145C35.254,12.608 37.911,11.997 40.931,10.781C42.683,10.076 44.66,9.884 46.532,9.932C49.17,10 52.234,9.691 54.754,10.716C55.971,11.211 56.663,12.365 57.663,13.146C60.293,15.199 61.847,16.009 62.608,19.434C62.916,20.823 63.474,22.273 63.421,23.685C63.386,24.624 63.532,26.055 63.24,26.964Z" style="fill:#5d0018;fill-opacity:0.5;"/>
                <path d="M53.776,61.586C53.956,55.381 53.707,49.175 53.609,42.971C53.557,39.706 53.488,36.44 53.469,33.175C53.464,32.268 53.458,31.361 53.459,30.454C53.464,28.328 53.542,26.201 53.581,24.074C53.597,23.26 53.643,17.13 53.717,16.319C53.72,16.288 53.75,15.513 53.801,15.499C57.535,14.48 59.002,18.441 59.079,21.369C59.217,26.605 58.907,37.15 59.144,42.394C59.428,48.701 60.241,55.153 60.067,61.473C57.928,61.047 55.826,61.026 53.776,61.586Z" style="fill:#5d0018;fill-opacity:0.5;"/>
                <path d="M29.807,61.576C30.284,56.14 30.163,50.637 30.336,45.185C30.442,41.852 30.349,38.474 30.621,35.151C30.865,32.176 30.61,28.031 32.627,25.5C33.572,24.314 36.304,23.062 37.82,24.031C38.444,24.431 38.761,25.268 38.937,25.953C39.712,28.979 38.715,32.364 38.386,35.392C38.135,37.708 37.954,40.017 37.899,42.347C37.786,47.099 38.115,51.831 37.986,56.586C37.955,57.736 37.95,58.888 37.946,60.039C37.945,60.548 38.04,61.298 37.882,61.8C37.855,61.884 37.034,61.813 37.005,61.811C35.979,61.718 34.963,61.63 33.923,61.61C32.658,61.586 31.123,61.586 29.807,61.576Z" style="fill:#5d0018;fill-opacity:0.5;"/>
                <path d="M0.79,62.451C0.295,61.82 -0,61.025 -0,60.162L-0,12.463C-0,10.414 1.664,8.75 3.713,8.75L63.892,8.75L63.892,62.45C61.106,62.214 58.569,61.817 55.611,61.812C52.668,61.806 49.463,62.342 46.521,62.428C43.442,62.518 40.403,62.242 37.331,62.098C35.214,61.998 32.966,61.873 30.836,62.083C26.514,62.51 22.514,63.211 18.11,62.998C13.07,62.753 8.414,61.121 3.302,61.763C2.45,61.87 1.607,62.119 0.79,62.451ZM1.368,60.916C1.291,60.678 1.25,60.425 1.25,60.162L1.25,12.463C1.25,11.103 2.353,10 3.713,10L62.642,10C62.642,10 62.642,61.078 62.642,61.078C60.332,60.847 58.122,60.566 55.613,60.562C52.657,60.556 49.439,61.092 46.485,61.178C43.437,61.267 40.43,60.992 37.39,60.849C35.214,60.747 32.903,60.623 30.714,60.84C26.454,61.26 22.511,61.96 18.171,61.749C13.058,61.501 8.333,59.871 3.146,60.523C2.548,60.598 1.953,60.733 1.368,60.916L1.368,60.916Z" style="fill:#5d0018;"/>
            </g>
            <g>
                <path d="M46.038,8.75C46.305,10.09 46.443,11.465 46.443,12.865C46.443,27.285 33.363,34.255 16.819,41.363C15.867,41.772 16.801,42.332 16.297,43.132C22.3,50.532 23.7,56.489 27.447,67.771C27.683,68.482 27.427,69.263 27.387,70L4.714,70C2.112,70 -0,67.888 -0,65.286L-0,12.463C-0,10.414 1.664,8.75 3.713,8.75L46.038,8.75Z" style="fill:#c72734;"/>
                <path d="M20.889,70C20.749,69.628 20.633,69.251 20.527,68.892C19.955,66.954 19.527,64.959 19.09,62.987C17.511,55.848 17.502,48.104 13.593,41.651L14.643,43.226C16.857,46.123 18.453,49.415 19.912,52.739C21.726,56.871 23.265,61.067 24.527,65.399C24.953,66.861 25.34,68.338 25.727,69.811C25.735,69.842 25.757,69.91 25.788,70L20.889,70ZM13.16,42.696C13.63,45.812 13.735,48.988 13.933,52.131C14.054,54.057 14.142,55.986 14.246,57.914C14.351,59.877 14.47,61.842 14.479,63.809C14.482,64.472 14.462,65.134 14.445,65.797C14.438,66.055 14.431,66.312 14.425,66.57C14.422,66.709 14.459,67.12 14.415,66.988C13.432,64.059 13.608,60.795 13.163,57.761C12.405,52.583 10.578,47.367 11.728,42.128L13.16,42.696ZM-0,40.038C0.124,39.926 0.254,39.824 0.391,39.733C0.525,39.644 0.687,39.856 0.836,39.918C1.294,40.107 1.757,40.28 2.187,40.53C2.638,40.793 3.023,41.123 3.34,41.538C3.364,41.569 3.143,41.906 3.121,41.949C2.877,42.44 2.676,42.955 2.496,43.473C2.15,44.467 1.968,45.521 1.861,46.587C2.037,50.335 1.093,54.087 0.42,57.919C0.29,58.663 0.148,59.405 -0,60.145L-0,40.038ZM9.468,42.551C8.97,43.917 8.518,45.298 8.085,46.686C7.827,47.509 7.576,48.335 7.358,49.17C7.159,49.933 6.989,50.703 6.85,51.48C6.775,51.906 6.64,52.329 6.565,51.893C6.54,51.743 6.519,51.593 6.501,51.442C6.467,51.148 6.446,50.831 6.438,50.535C6.423,50.012 6.443,49.822 6.479,49.222C6.62,46.868 6.95,44.061 8.412,42.089L9.468,42.551Z" style="fill:#a91e29;fill-opacity:0.5;"/>
                <path d="M16.392,44.257C18.629,46.679 20.333,49.512 21.731,52.479C22.464,54.035 23.162,55.587 23.744,57.206C24.328,58.827 24.838,60.439 25.312,62.094C25.472,62.651 25.624,63.21 25.769,63.771C25.812,63.938 25.961,64.58 25.95,64.552C25.504,63.354 25.138,62.469 24.616,61.252C24.131,60.123 23.608,59.048 23.119,57.921C21.586,54.39 19.851,50.951 17.926,47.617C17.278,46.494 16.682,45.291 15.952,44.22L16.392,44.257ZM14.533,43.745C16.004,46.787 16.468,50.243 16.643,53.587C16.702,54.718 16.706,55.857 16.586,56.985C16.551,57.312 16.336,58.575 16.336,58.557C16.267,57.151 16.163,55.791 15.969,54.42C15.616,51.917 14.952,49.42 14.351,46.965C14.151,46.15 13.942,45.337 13.753,44.52C13.63,43.992 13.564,43.437 13.403,42.92L14.533,43.745ZM22.86,26.645C22.3,30.667 20.109,34.377 17.55,37.453C16.679,38.499 15.743,39.571 14.675,40.423C14.283,40.736 13.854,41.001 13.438,41.28L12.927,41.605C12.907,41.618 12.863,41.665 12.867,41.642C12.993,40.938 13.508,40.273 13.932,39.724C14.797,38.603 15.761,37.559 16.656,36.463C18.661,34.008 20.224,32.484 21.615,29.626C21.935,28.97 22.626,27.339 22.86,26.645ZM33.94,26.261C33.561,27.419 33.004,28.441 32.276,29.427C32.043,29.743 31.807,30.057 31.547,30.352C31.463,30.447 31.377,30.541 31.292,30.635C31.252,30.68 31.113,30.759 31.172,30.769C32.064,30.929 33.067,30.747 33.922,30.467C34.199,30.376 34.476,30.281 34.746,30.169C34.838,30.13 34.928,30.089 35.018,30.047C35.061,30.027 35.168,29.945 35.147,29.987C34.938,30.406 34.526,30.795 34.198,31.124C33.41,31.916 32.534,32.588 31.622,33.23C29.869,34.462 27.977,35.522 26.083,36.519C24.598,37.301 21.319,38.461 21.319,38.461C21.319,38.461 25.104,35.261 25.988,34.417C28.715,31.814 31.293,28.945 33.94,26.261Z" style="fill:#d63542;fill-opacity:0.65;"/>
                <path d="M37.745,16.255C36.139,20.533 33.297,24.314 30.603,27.964C28.81,30.394 26.805,32.678 24.572,34.717C22.455,36.65 20.207,38.585 17.801,40.157C16.957,40.709 16.075,41.196 15.242,41.764C14.979,41.943 14.72,42.13 14.449,42.296C14.31,42.38 13.947,42.674 14.022,42.53C15.046,40.566 16.748,39.012 18.157,37.337C19.301,35.976 20.302,34.558 21.169,33.005C23.104,29.535 24.612,25.838 26.078,22.153C26.404,21.334 26.728,20.514 27.04,19.69C27.751,17.815 27.677,16.451 29.541,15.441C29.938,15.226 30.35,15.038 30.767,14.867C31.37,14.619 31.989,14.409 32.62,14.247C33.574,14.002 34.668,13.745 35.666,13.821L37.745,16.255ZM22.481,19.6C21.465,25.137 19.493,30.536 16.271,35.193C15.216,36.719 13.992,38.168 12.56,39.355C12.079,39.755 11.574,40.125 11.071,40.496C10.933,40.597 10.796,40.698 10.656,40.796C10.606,40.83 10.489,40.955 10.505,40.897C12.026,35.549 15.959,31.02 18.493,26.151C19.629,23.968 20.395,21.414 20.86,18.982L22.481,19.6ZM7.339,40.03C9.138,37.399 10.585,34.824 11.761,31.938C12.158,30.964 12.561,29.99 12.899,28.994C12.997,28.706 13.089,28.416 13.19,28.129C13.25,27.956 13.487,27.47 13.373,27.612C11.132,30.421 9.411,33.602 6.948,36.241C5.753,37.521 4.296,38.35 3.009,39.479L7.339,40.03ZM0,14.245C0.887,13.944 1.781,13.745 2.537,13.624C3.283,13.504 4.033,13.417 4.782,13.318C5.169,13.267 5.556,13.216 5.943,13.168C7.745,12.947 8.487,13.336 9.627,14.806C9.961,15.235 10.288,15.678 10.512,16.176C11.119,17.529 10.621,19.225 10.015,20.777C7.471,25.814 4.43,30.71 1.267,35.373C0.864,35.967 0.445,36.54 0,37.093L0,14.245ZM12.557,22.286C11.646,24.24 10.598,26.081 9.463,27.91C9.119,28.465 8.773,29.019 8.401,29.557C8.271,29.746 8.148,29.939 8.026,30.134C7.97,30.222 7.761,30.422 7.863,30.401C8.945,30.175 9.956,29.412 10.785,28.725C12.605,27.217 13.992,25.086 15.186,23.068L12.557,22.286ZM40.032,19.545C39.241,22.121 37.813,24.278 36.113,26.343C35.58,26.99 35.077,27.66 34.521,28.288C34.317,28.518 34.106,28.741 33.893,28.963C33.826,29.033 33.76,29.103 33.696,29.175C33.668,29.206 33.573,29.262 33.614,29.27C34.029,29.353 34.609,29.116 34.989,28.981C36.1,28.584 37.171,27.99 38.135,27.314C40.13,25.915 41.925,23.949 43.15,21.84C43.757,20.795 44.185,19.652 44.671,18.547C45.019,17.757 45.447,16.971 45.72,16.148L40.032,19.545ZM10.015,20.777C10.116,20.577 10.216,20.377 10.315,20.176L9.178,22.854C9.409,22.23 9.724,21.52 10.015,20.777Z" style="fill:#a91e29;fill-opacity:0.5;"/>
            </g>
            <g transform="matrix(1.16328,0.178657,0.151801,-0.988411,-54.7153,80.5291)">
                <g transform="matrix(0.839831,0.151801,0.128982,-0.988411,35.5648,87.9017)">
                    <path d="M-0,37.709L17.852,40.451C18.438,40.541 18.84,41.089 18.75,41.675L18.424,43.796C18.334,44.382 17.786,44.784 17.2,44.694L-0,42.053L-0,37.709Z" style="fill:#fa0;"/>
                </g>
                <g transform="matrix(0.839831,0.151801,0.128982,-0.988411,35.5648,87.9017)">
                    <path d="M0,40.383L17.924,43.136C18.249,43.185 18.471,43.489 18.422,43.813L18.351,44.27C18.302,44.594 17.998,44.817 17.674,44.767L0,42.053L0,40.383Z" style="fill:#bd7e00;"/>
                </g>
            </g>
        </g>
        <path d="M210,61.375L66.282,61.375L83.701,8.696L192.58,8.696L210,61.375Z" style="fill:url(#_Linear1);"/>
        <g transform="matrix(0.7852,0,0,1,31.5318,0.0537663)">
            <path d="M210,61.375L66.282,61.375L83.701,8.696L192.58,8.696L210,61.375Z" style="fill:url(#_Linear2);"/>
        </g>
        <g>
            <path d="M3.713,8.75L49.99,8.75L49.99,8.858C49.897,18.029 37.938,25.457 23.222,25.457C13.293,25.457 4.62,22.077 -0,17.062L-0,12.463C-0,10.414 1.664,8.75 3.713,8.75ZM49.99,8.75L98.386,8.75C98.386,17.085 87.543,23.853 74.188,23.853C60.833,23.853 49.99,17.085 49.99,8.75ZM98.386,8.75L140,8.75C140,15.917 130.677,21.737 119.193,21.737C107.709,21.737 98.386,15.917 98.386,8.75Z" style="fill:#e43241;"/>
            <path d="M47.316,8.75C45.361,13.1 41.775,17.045 37.565,19.174C34.426,20.762 30.826,21.559 27.328,21.775C24.15,21.971 21.035,21.442 17.962,20.677C13.575,19.585 9.151,17.828 5.322,15.406C3.996,14.568 2.694,13.669 1.483,12.67C1.082,12.339 0.69,11.995 0.302,11.649C0.244,11.597 0.186,11.546 0.128,11.493C0.045,11.803 -0,12.127 -0,12.463L-0,14.813C0.381,15.52 0.921,16.156 1.473,16.706C3.481,18.706 6.163,20.029 8.764,21.082C10.928,21.957 13.228,22.509 15.51,22.982C23.645,24.668 32.784,24.198 40.205,20.12C43.334,18.4 46.465,15.733 48.038,12.474C48.596,11.316 48.79,9.986 48.444,8.75L47.316,8.75ZM52.35,8.75C51.941,9.662 51.872,10.766 51.953,11.71C52.336,16.14 57.252,18.729 60.93,20.153C67.978,22.881 76.211,23.517 83.59,21.871C85.908,21.353 88.243,20.787 90.35,19.652C93.242,18.095 95.431,15.654 96.716,12.628C97.264,11.338 97.461,9.889 96.809,8.75L95.589,8.75C93.711,12.483 90.605,14.887 86.802,16.685C80.555,19.638 73.521,20.368 66.784,18.751C62.872,17.813 58.928,16.182 56.048,13.295C55.063,12.308 54.301,11.182 53.682,9.935C53.487,9.543 53.303,9.146 53.117,8.75L52.35,8.75ZM100.285,8.75C100.435,12.18 103.829,14.984 106.361,16.83C112.138,21.038 119.43,21.864 126.283,20.336C129.063,19.716 131.799,18.82 134.16,17.182C136.615,15.479 138.202,12.901 139.281,10.162C139.447,9.742 139.682,9.235 139.797,8.75L137.185,8.75C135.837,12.639 132.166,15.709 128.297,16.906C124.629,18.042 120.361,18.028 116.573,17.729C114.879,17.595 113.2,17.359 111.552,16.944C108.377,16.143 105.385,14.72 103.118,12.32C102.352,11.51 101.647,10.662 101.067,9.707C100.878,9.395 100.703,9.077 100.542,8.75L100.285,8.75ZM55.123,8.75C56.829,10.461 58.742,11.993 60.839,13.192C67.268,16.87 75.041,17.039 82.149,15.556C85.381,14.882 88.495,13.498 91.158,11.541C92.175,10.793 93.196,9.993 93.907,8.934C93.948,8.874 93.988,8.812 94.027,8.75L90.548,8.75C88.041,9.809 85.88,11.577 83.437,12.796C79.184,14.918 74.073,15.104 69.502,14.043C66.094,13.252 62.741,12.068 59.693,10.344C58.941,9.918 58.195,9.472 57.489,8.974C57.385,8.901 57.283,8.826 57.181,8.75L55.123,8.75ZM4.803,8.75C4.941,8.826 5.063,8.896 5.151,8.941C6.518,9.65 7.835,10.433 9.243,11.064C15.307,13.778 22.055,14.241 28.602,13.426C32.603,12.928 36.457,11.731 40.026,9.855C40.685,9.508 41.324,9.124 41.969,8.75L44.763,8.75C39.042,13.193 31.697,15.95 24.519,16.224C21.546,16.338 18.592,15.933 15.68,15.369C11.9,14.636 7.956,13.48 4.557,11.631C3.866,11.256 3.196,10.841 2.539,10.41C2.457,10.356 1.562,9.74 1.599,9.687C1.751,9.469 1.998,9.241 2.281,9.037C2.722,8.852 3.205,8.75 3.713,8.75L4.803,8.75ZM103.11,8.75L105.834,8.75C107.11,9.485 108.306,10.411 109.58,11.113C113.716,13.391 118.906,14.071 123.545,13.313C126.509,12.829 129.524,11.882 132.121,10.36C132.906,9.901 133.643,9.365 134.309,8.75L135.906,8.75C134.285,10.393 132.432,11.841 130.358,12.843C126.828,14.549 122.906,14.995 119.028,14.998C116.42,15 113.783,14.816 111.268,14.088C108.634,13.326 105.984,12.015 104.067,10.01C103.698,9.624 103.369,9.21 103.11,8.75ZM61.131,8.75L63.45,8.75C64.333,9.215 65.212,9.683 66.165,9.994C67.332,10.376 68.547,10.553 69.75,10.779C72.483,11.292 75.315,11.606 78.096,11.348C80.944,11.084 83.71,10.113 86.341,9.037C86.56,8.947 86.774,8.851 86.985,8.75L88.79,8.75C87.908,9.581 86.729,10.208 85.757,10.766C83.739,11.924 81.257,12.795 78.933,13.019C77,13.205 75.103,12.932 73.198,12.626C71.716,12.389 70.228,12.161 68.765,11.823C66.607,11.324 64.493,10.615 62.552,9.54C62.079,9.278 61.603,9.017 61.131,8.75ZM6.828,8.75L12.319,8.75C13.521,9.27 14.733,9.764 15.959,10.203C17.642,10.805 19.397,11.088 21.169,11.275C25.262,11.706 29.614,11.32 33.537,10.045C34.716,9.662 35.894,9.272 37.01,8.75L37.306,8.75C37.053,8.904 36.787,9.037 36.531,9.16C35.298,9.751 33.971,10.24 32.682,10.7C30.963,11.315 29.194,11.896 27.395,12.222C25.987,12.477 24.538,12.522 23.112,12.59C19.631,12.755 16.096,12.537 12.684,11.778C10.518,11.296 8.442,10.27 6.828,8.75ZM106.464,8.75L109.411,8.75C109.558,8.827 109.708,8.9 109.858,8.972C110.31,9.19 110.75,9.431 111.21,9.632C112.261,10.092 113.368,10.259 114.497,10.415C116.479,10.689 118.5,10.767 120.495,10.601C122.505,10.433 124.513,10.02 126.376,9.233C126.795,9.055 127.215,8.896 127.64,8.75L130.13,8.75C129.11,9.568 127.916,10.138 126.693,10.604C123.858,11.684 120.873,12.061 117.856,12.142C116.277,12.184 114.707,12.197 113.149,11.889C111.083,11.479 108.768,10.723 107.132,9.341C107.021,9.247 106.91,9.152 106.801,9.056C106.715,8.981 106.629,8.905 106.546,8.826C106.524,8.805 106.496,8.78 106.464,8.75Z" style="fill:#b92430;fill-opacity:0.5;"/>
            <path d="M3.816,8.75C5.734,10.569 7.749,12.261 10.403,13.353C11.809,13.932 13.339,14.32 14.864,14.569C23.257,15.941 31.468,14.157 39.133,11.179C40.997,10.455 42.929,9.684 44.733,8.75L46.443,8.75C40.037,18.462 24.755,20.16 13.498,16.795C9.198,15.511 4.808,13.565 1.614,10.669C1.376,10.453 1.149,10.23 0.936,9.999C1.616,9.233 2.609,8.75 3.713,8.75L3.816,8.75ZM54.017,8.75C59.629,18.462 73.016,20.16 82.879,16.795C86.645,15.511 90.491,13.565 93.289,10.669C93.849,10.089 94.341,9.46 94.703,8.75L91.36,8.75C89.68,10.569 87.915,12.261 85.59,13.353C84.358,13.932 83.017,14.32 81.681,14.569C74.329,15.941 67.136,14.157 60.421,11.179C58.788,10.455 57.095,9.684 55.515,8.75L54.017,8.75ZM102.594,8.75L105.363,8.75C106.756,10.257 108.218,11.658 110.144,12.563C111.164,13.043 112.274,13.364 113.381,13.57C119.471,14.707 125.43,13.229 130.992,10.762C132.345,10.162 133.747,9.524 135.056,8.75L136.297,8.75C131.648,16.795 120.559,18.201 112.389,15.414C109.269,14.35 106.083,12.739 103.766,10.339C103.302,9.859 102.895,9.339 102.594,8.75ZM7.898,8.75C7.952,8.79 8.006,8.83 8.062,8.869C8.683,9.302 9.356,9.683 10.051,10.018C12.542,11.216 15.321,12.136 18.15,12.279C21.891,12.468 24.571,12.361 28.622,11.568C30.925,11.116 34.4,9.881 37.476,8.75L38.737,8.75C32.072,12.326 23.796,13.739 16.034,13.102C12.76,12.833 9.518,11.844 6.742,10.288C6.543,10.177 6.35,10.059 6.158,9.939C5.877,9.764 4.864,9.196 4.533,8.75L7.898,8.75ZM60.767,8.75C66.606,12.326 73.856,13.739 80.657,13.102C83.525,12.833 86.365,11.844 88.797,10.288C88.971,10.177 89.14,10.059 89.308,9.939C89.555,9.764 90.442,9.196 90.732,8.75L87.784,8.75C87.737,8.79 87.689,8.83 87.641,8.869C87.097,9.302 86.507,9.683 85.898,10.018C83.716,11.216 81.281,12.136 78.803,12.279C75.526,12.468 73.177,12.361 69.629,11.568C67.612,11.116 64.567,9.881 61.872,8.75L60.767,8.75ZM105.884,8.75L108.326,8.75C108.365,8.783 108.404,8.816 108.445,8.848C108.895,9.208 109.383,9.523 109.888,9.8C111.696,10.793 113.713,11.555 115.765,11.673C118.48,11.83 120.425,11.741 123.365,11.084C125.036,10.71 127.558,9.687 129.79,8.75L130.705,8.75C125.869,11.712 119.863,12.883 114.23,12.355C111.854,12.132 109.501,11.313 107.487,10.024C107.343,9.932 107.203,9.834 107.063,9.735C106.859,9.59 106.124,9.12 105.884,8.75Z" style="fill:#f73646;"/>
            <path d="M47.332,8.75L49.99,8.75L49.99,8.858C49.897,18.029 37.938,25.457 23.222,25.457C13.293,25.457 4.62,22.077 -0,17.062L-0,12.632L1.39,14.283C1.873,14.836 2.396,15.349 2.917,15.865C7.257,19.957 14.759,22.541 23.222,22.541C31.269,22.541 38.438,20.19 42.883,16.435C44.556,15.022 45.829,13.417 46.512,11.667C46.906,10.657 47.137,9.754 47.332,8.75ZM52.839,8.75C52.875,9.699 53.086,10.629 53.556,11.666C54.179,13.044 55.222,14.314 56.552,15.446C60.524,18.827 66.962,20.936 74.188,20.936C81.414,20.936 87.852,18.827 91.824,15.446C93.154,14.314 94.197,13.044 94.82,11.667C95.204,10.694 95.509,9.722 95.572,8.75L98.386,8.75C98.386,17.085 87.543,23.853 74.188,23.853C60.833,23.853 49.99,17.085 49.99,8.75L52.839,8.75ZM102.118,11.667C102.639,12.578 103.387,13.425 104.293,14.197C107.648,17.052 113.09,18.82 119.193,18.82C125.296,18.82 130.738,17.052 134.093,14.197C134.999,13.425 135.747,12.578 136.268,11.667C136.842,10.662 137.202,9.722 137.304,8.75L140,8.75C140,15.917 130.677,21.737 119.193,21.737C107.709,21.737 98.386,15.917 98.386,8.75L101.342,8.75C101.37,9.741 101.649,10.712 102.118,11.667Z" style="fill:#fa0;"/>
        </g>
        <g transform="matrix(-1,0,0,1,280,0)">
            <path d="M3.713,8.75L49.99,8.75L49.99,8.858C49.897,18.029 37.938,25.457 23.222,25.457C13.293,25.457 4.62,22.077 -0,17.062L-0,12.463C-0,10.414 1.664,8.75 3.713,8.75ZM49.99,8.75L98.386,8.75C98.386,17.085 87.543,23.853 74.188,23.853C60.833,23.853 49.99,17.085 49.99,8.75ZM98.386,8.75L140,8.75C140,15.917 130.677,21.737 119.193,21.737C107.709,21.737 98.386,15.917 98.386,8.75Z" style="fill:#e43241;"/>
            <path d="M47.316,8.75C45.361,13.1 41.775,17.045 37.565,19.174C34.426,20.762 30.826,21.559 27.328,21.775C24.15,21.971 21.035,21.442 17.962,20.677C13.575,19.585 9.151,17.828 5.322,15.406C3.996,14.568 2.694,13.669 1.483,12.67C1.082,12.339 0.69,11.995 0.302,11.649C0.244,11.597 0.186,11.546 0.128,11.493C0.045,11.803 -0,12.127 -0,12.463L-0,14.813C0.381,15.52 0.921,16.156 1.473,16.706C3.481,18.706 6.163,20.029 8.764,21.082C10.928,21.957 13.228,22.509 15.51,22.982C23.645,24.668 32.784,24.198 40.205,20.12C43.334,18.4 46.465,15.733 48.038,12.474C48.596,11.316 48.79,9.986 48.444,8.75L47.316,8.75ZM52.35,8.75C51.941,9.662 51.872,10.766 51.953,11.71C52.336,16.14 57.252,18.729 60.93,20.153C67.978,22.881 76.211,23.517 83.59,21.871C85.908,21.353 88.243,20.787 90.35,19.652C93.242,18.095 95.431,15.654 96.716,12.628C97.264,11.338 97.461,9.889 96.809,8.75L95.589,8.75C93.711,12.483 90.605,14.887 86.802,16.685C80.555,19.638 73.521,20.368 66.784,18.751C62.872,17.813 58.928,16.182 56.048,13.295C55.063,12.308 54.301,11.182 53.682,9.935C53.487,9.543 53.303,9.146 53.117,8.75L52.35,8.75ZM100.285,8.75C100.435,12.18 103.829,14.984 106.361,16.83C112.138,21.038 119.43,21.864 126.283,20.336C129.063,19.716 131.799,18.82 134.16,17.182C136.615,15.479 138.202,12.901 139.281,10.162C139.447,9.742 139.682,9.235 139.797,8.75L137.185,8.75C135.837,12.639 132.166,15.709 128.297,16.906C124.629,18.042 120.361,18.028 116.573,17.729C114.879,17.595 113.2,17.359 111.552,16.944C108.377,16.143 105.385,14.72 103.118,12.32C102.352,11.51 101.647,10.662 101.067,9.707C100.878,9.395 100.703,9.077 100.542,8.75L100.285,8.75ZM55.123,8.75C56.829,10.461 58.742,11.993 60.839,13.192C67.268,16.87 75.041,17.039 82.149,15.556C85.381,14.882 88.495,13.498 91.158,11.541C92.175,10.793 93.196,9.993 93.907,8.934C93.948,8.874 93.988,8.812 94.027,8.75L90.548,8.75C88.041,9.809 85.88,11.577 83.437,12.796C79.184,14.918 74.073,15.104 69.502,14.043C66.094,13.252 62.741,12.068 59.693,10.344C58.941,9.918 58.195,9.472 57.489,8.974C57.385,8.901 57.283,8.826 57.181,8.75L55.123,8.75ZM4.803,8.75C4.941,8.826 5.063,8.896 5.151,8.941C6.518,9.65 7.835,10.433 9.243,11.064C15.307,13.778 22.055,14.241 28.602,13.426C32.603,12.928 36.457,11.731 40.026,9.855C40.685,9.508 41.324,9.124 41.969,8.75L44.763,8.75C39.042,13.193 31.697,15.95 24.519,16.224C21.546,16.338 18.592,15.933 15.68,15.369C11.9,14.636 7.956,13.48 4.557,11.631C3.866,11.256 3.196,10.841 2.539,10.41C2.457,10.356 1.562,9.74 1.599,9.687C1.751,9.469 1.998,9.241 2.281,9.037C2.722,8.852 3.205,8.75 3.713,8.75L4.803,8.75ZM103.11,8.75L105.834,8.75C107.11,9.485 108.306,10.411 109.58,11.113C113.716,13.391 118.906,14.071 123.545,13.313C126.509,12.829 129.524,11.882 132.121,10.36C132.906,9.901 133.643,9.365 134.309,8.75L135.906,8.75C134.285,10.393 132.432,11.841 130.358,12.843C126.828,14.549 122.906,14.995 119.028,14.998C116.42,15 113.783,14.816 111.268,14.088C108.634,13.326 105.984,12.015 104.067,10.01C103.698,9.624 103.369,9.21 103.11,8.75ZM61.131,8.75L63.45,8.75C64.333,9.215 65.212,9.683 66.165,9.994C67.332,10.376 68.547,10.553 69.75,10.779C72.483,11.292 75.315,11.606 78.096,11.348C80.944,11.084 83.71,10.113 86.341,9.037C86.56,8.947 86.774,8.851 86.985,8.75L88.79,8.75C87.908,9.581 86.729,10.208 85.757,10.766C83.739,11.924 81.257,12.795 78.933,13.019C77,13.205 75.103,12.932 73.198,12.626C71.716,12.389 70.228,12.161 68.765,11.823C66.607,11.324 64.493,10.615 62.552,9.54C62.079,9.278 61.603,9.017 61.131,8.75ZM6.828,8.75L12.319,8.75C13.521,9.27 14.733,9.764 15.959,10.203C17.642,10.805 19.397,11.088 21.169,11.275C25.262,11.706 29.614,11.32 33.537,10.045C34.716,9.662 35.894,9.272 37.01,8.75L37.306,8.75C37.053,8.904 36.787,9.037 36.531,9.16C35.298,9.751 33.971,10.24 32.682,10.7C30.963,11.315 29.194,11.896 27.395,12.222C25.987,12.477 24.538,12.522 23.112,12.59C19.631,12.755 16.096,12.537 12.684,11.778C10.518,11.296 8.442,10.27 6.828,8.75ZM106.464,8.75L109.411,8.75C109.558,8.827 109.708,8.9 109.858,8.972C110.31,9.19 110.75,9.431 111.21,9.632C112.261,10.092 113.368,10.259 114.497,10.415C116.479,10.689 118.5,10.767 120.495,10.601C122.505,10.433 124.513,10.02 126.376,9.233C126.795,9.055 127.215,8.896 127.64,8.75L130.13,8.75C129.11,9.568 127.916,10.138 126.693,10.604C123.858,11.684 120.873,12.061 117.856,12.142C116.277,12.184 114.707,12.197 113.149,11.889C111.083,11.479 108.768,10.723 107.132,9.341C107.021,9.247 106.91,9.152 106.801,9.056C106.715,8.981 106.629,8.905 106.546,8.826C106.524,8.805 106.496,8.78 106.464,8.75Z" style="fill:#b92430;fill-opacity:0.5;"/>
            <path d="M3.816,8.75C5.734,10.569 7.749,12.261 10.403,13.353C11.809,13.932 13.339,14.32 14.864,14.569C23.257,15.941 31.468,14.157 39.133,11.179C40.997,10.455 42.929,9.684 44.733,8.75L46.443,8.75C40.037,18.462 24.755,20.16 13.498,16.795C9.198,15.511 4.808,13.565 1.614,10.669C1.376,10.453 1.149,10.23 0.936,9.999C1.616,9.233 2.609,8.75 3.713,8.75L3.816,8.75ZM54.017,8.75C59.629,18.462 73.016,20.16 82.879,16.795C86.645,15.511 90.491,13.565 93.289,10.669C93.849,10.089 94.341,9.46 94.703,8.75L91.36,8.75C89.68,10.569 87.915,12.261 85.59,13.353C84.358,13.932 83.017,14.32 81.681,14.569C74.329,15.941 67.136,14.157 60.421,11.179C58.788,10.455 57.095,9.684 55.515,8.75L54.017,8.75ZM102.594,8.75L105.363,8.75C106.756,10.257 108.218,11.658 110.144,12.563C111.164,13.043 112.274,13.364 113.381,13.57C119.471,14.707 125.43,13.229 130.992,10.762C132.345,10.162 133.747,9.524 135.056,8.75L136.297,8.75C131.648,16.795 120.559,18.201 112.389,15.414C109.269,14.35 106.083,12.739 103.766,10.339C103.302,9.859 102.895,9.339 102.594,8.75ZM7.898,8.75C7.952,8.79 8.006,8.83 8.062,8.869C8.683,9.302 9.356,9.683 10.051,10.018C12.542,11.216 15.321,12.136 18.15,12.279C21.891,12.468 24.571,12.361 28.622,11.568C30.925,11.116 34.4,9.881 37.476,8.75L38.737,8.75C32.072,12.326 23.796,13.739 16.034,13.102C12.76,12.833 9.518,11.844 6.742,10.288C6.543,10.177 6.35,10.059 6.158,9.939C5.877,9.764 4.864,9.196 4.533,8.75L7.898,8.75ZM60.767,8.75C66.606,12.326 73.856,13.739 80.657,13.102C83.525,12.833 86.365,11.844 88.797,10.288C88.971,10.177 89.14,10.059 89.308,9.939C89.555,9.764 90.442,9.196 90.732,8.75L87.784,8.75C87.737,8.79 87.689,8.83 87.641,8.869C87.097,9.302 86.507,9.683 85.898,10.018C83.716,11.216 81.281,12.136 78.803,12.279C75.526,12.468 73.177,12.361 69.629,11.568C67.612,11.116 64.567,9.881 61.872,8.75L60.767,8.75ZM105.884,8.75L108.326,8.75C108.365,8.783 108.404,8.816 108.445,8.848C108.895,9.208 109.383,9.523 109.888,9.8C111.696,10.793 113.713,11.555 115.765,11.673C118.48,11.83 120.425,11.741 123.365,11.084C125.036,10.71 127.558,9.687 129.79,8.75L130.705,8.75C125.869,11.712 119.863,12.883 114.23,12.355C111.854,12.132 109.501,11.313 107.487,10.024C107.343,9.932 107.203,9.834 107.063,9.735C106.859,9.59 106.124,9.12 105.884,8.75Z" style="fill:#f73646;"/>
            <path d="M47.332,8.75L49.99,8.75L49.99,8.858C49.897,18.029 37.938,25.457 23.222,25.457C13.293,25.457 4.62,22.077 -0,17.062L-0,12.632L1.39,14.283C1.873,14.836 2.396,15.349 2.917,15.865C7.257,19.957 14.759,22.541 23.222,22.541C31.269,22.541 38.438,20.19 42.883,16.435C44.556,15.022 45.829,13.417 46.512,11.667C46.906,10.657 47.137,9.754 47.332,8.75ZM52.839,8.75C52.875,9.699 53.086,10.629 53.556,11.666C54.179,13.044 55.222,14.314 56.552,15.446C60.524,18.827 66.962,20.936 74.188,20.936C81.414,20.936 87.852,18.827 91.824,15.446C93.154,14.314 94.197,13.044 94.82,11.667C95.204,10.694 95.509,9.722 95.572,8.75L98.386,8.75C98.386,17.085 87.543,23.853 74.188,23.853C60.833,23.853 49.99,17.085 49.99,8.75L52.839,8.75ZM102.118,11.667C102.639,12.578 103.387,13.425 104.293,14.197C107.648,17.052 113.09,18.82 119.193,18.82C125.296,18.82 130.738,17.052 134.093,14.197C134.999,13.425 135.747,12.578 136.268,11.667C136.842,10.662 137.202,9.722 137.304,8.75L140,8.75C140,15.917 130.677,21.737 119.193,21.737C107.709,21.737 98.386,15.917 98.386,8.75L101.342,8.75C101.37,9.741 101.649,10.712 102.118,11.667Z" style="fill:#fa0;"/>
        </g>
    </g>
    <defs>
        <linearGradient id="_Linear1" x1="0" y1="0" x2="1" y2="0" gradientUnits="userSpaceOnUse" gradientTransform="matrix(4.79894e-15,78.3727,-78.3727,4.79894e-15,140,8.75)"><stop offset="0" style="stop-color:#ffe8b3;stop-opacity:0.2"/><stop offset="1" style="stop-color:#ffa000;stop-opacity:0.2"/></linearGradient>
        <linearGradient id="_Linear2" x1="0" y1="0" x2="1" y2="0" gradientUnits="userSpaceOnUse" gradientTransform="matrix(4.79894e-15,78.3727,-78.3727,4.79894e-15,140,8.75)"><stop offset="0" style="stop-color:#ffe8b3;stop-opacity:0.2"/><stop offset="1" style="stop-color:#ffa000;stop-opacity:0.2"/></linearGradient>
    </defs>
</svg>
