<?xml version="1.0" encoding="UTF-8" standalone="no"?>
<!DOCTYPE svg PUBLIC "-//W3C//DTD SVG 1.1//EN" "http://www.w3.org/Graphics/SVG/1.1/DTD/svg11.dtd">
<svg width="100%" height="100%" viewBox="0 0 280 62" version="1.1" xmlns="http://www.w3.org/2000/svg" xmlns:xlink="http://www.w3.org/1999/xlink" xml:space="preserve" xmlns:serif="http://www.serif.com/" style="fill-rule:evenodd;clip-rule:evenodd;stroke-linejoin:round;stroke-miterlimit:2;">
    <g id="banner_67" transform="matrix(1,0,0,1,0,-8.75)">
        <g transform="matrix(1,0,0,1,0,8.75)">
            <path d="M209.673,49.814L209.673,3.713C209.673,3.713 280,3.547 280,5.596L280,19.334C280,19.334 279.452,28.673 276.711,30.65C274.909,31.95 272.441,33.737 270.117,33.805C268.05,33.866 265.623,32.147 263.666,33.42C261.489,34.836 258.761,35.887 257.765,37.254C256.311,39.249 257.335,40.655 255.346,42.773C253.644,44.585 250.424,44.028 248.977,46.238C246.963,49.316 245.795,54.885 243.172,57.887C240.36,61.106 238.225,61.3 236.424,61.3L213.386,61.3L213.336,61.25L4.714,61.25C2.112,61.25 -0,59.138 -0,56.536L-0,49.814L209.673,49.814Z" style="fill:#e9ac38;"/>
        </g>
        <g transform="matrix(1,0,0,-1,0,63.875)">
            <path d="M225.143,0L3.713,0C1.664,0 -0,1.664 -0,3.713L-0,51.412C-0,53.461 1.664,55.125 3.713,55.125L276.287,55.125C278.336,55.125 280,53.461 280,51.412L280,47.587C278.253,46.066 276.001,44.839 274.93,42.969C273.513,40.494 275.228,37.863 272.488,35.886C270.685,34.585 268.217,32.799 265.893,32.731C263.827,32.67 261.399,34.389 259.443,33.116C257.266,31.7 255.147,30.212 252.93,28.845C251.527,27.98 249.817,27.142 248.82,25.775C247.366,23.78 248.39,20.897 246.401,18.779C244.699,16.967 241.479,17.524 240.033,15.314C238.018,12.236 238.7,8.07 236.077,5.068C233.264,1.848 229.492,0.362 225.143,0Z" style="fill:#ffcf75;"/>
        </g>
        <g>
            <g transform="matrix(1,0,0,1,0,8.75)">
                <path d="M273.45,30.095C272.753,30.74 272.151,31.177 271.223,31.357C268.631,31.86 266.729,29.941 264.275,29.665C263.494,29.577 262.973,29.688 262.369,29.967C262.244,30.024 261.997,30.176 262.028,30.33C262.094,30.663 262.153,31.002 261.971,31.324C261.925,31.405 261.866,31.48 261.793,31.54C261.288,31.953 260.832,31.146 260.367,31.19C260.159,31.21 260.019,31.336 259.917,31.49C259.669,31.865 259.892,32.381 259.968,32.78C260.053,33.228 259.986,33.692 259.661,34.035C258.994,34.74 257.993,34.029 257.163,33.723C256.948,33.644 256.619,33.618 256.226,34.12C255.385,35.194 255.272,36.622 254.857,37.894C254.497,38.996 253.816,39.946 252.967,40.723C251.866,41.731 250.375,42.562 248.97,43.032C248.165,43.301 246.501,43.043 246.628,43.752C246.707,44.192 247.077,44.539 247.375,44.864C247.906,45.442 248.255,46.168 247.869,46.938C247.782,47.112 247.653,47.265 247.505,47.391C247.384,47.494 247.245,47.572 247.094,47.624C246.82,47.72 246.495,47.76 246.248,47.577C245.864,47.294 245.61,46.651 245.025,46.885C244.974,46.905 244.927,46.928 244.884,46.954C244.263,47.325 244.431,48.692 244.289,49.749C244.008,51.834 243.014,53.923 241.86,55.695C241.348,56.482 240.543,57.838 239.487,58.099C238.747,58.281 238.038,57.58 237.527,57.481C235.909,57.167 235.403,55.686 235.827,54.723C236.241,53.782 237.123,53.176 238.012,52.519C238.817,51.924 239.192,50.868 239.611,49.959C240.789,47.403 240.299,44.259 242.112,41.952C242.946,40.89 244.467,40.741 245.676,40.389C246.597,40.121 247.507,39.521 248.161,38.825C249.799,37.08 249.606,34.706 250.86,32.816C252.034,31.047 253.914,30.251 255.577,29.042C257.198,27.864 258.83,26.167 260.662,25.327C262.015,24.707 263.767,25.126 265.192,25.186C266.958,25.261 268.863,24.867 270.392,23.956C271.363,23.378 272.343,22.73 273.016,21.803C273.402,21.272 273.608,20.64 273.94,20.076C274.308,19.449 274.763,18.869 275.031,18.187C275.376,17.31 275.489,16.348 275.841,15.474C276.174,14.647 276.901,13.655 277.789,14.456C279.814,16.285 277.769,19.214 277.501,21.263C277.37,22.269 277.368,23.315 277.139,24.306C276.931,25.205 276.791,25.742 276.367,26.507C276.28,26.664 276.376,27.133 276.377,27.327C276.378,27.64 276.173,27.927 275.944,28.123C275.82,28.228 275.667,28.304 275.574,28.44C275.41,28.679 275.488,28.964 275.424,29.228C275.352,29.529 275.126,29.697 274.866,29.834C274.633,29.957 274.334,30.022 274.068,29.993C273.919,29.977 273.606,29.95 273.45,30.095Z" style="fill:#831216;"/>
            </g>
            <g transform="matrix(1,0,0,1,0,8.75)">
                <path d="M247.051,43.736C247.08,43.724 247.118,43.709 247.147,43.701C247.25,43.674 247.369,43.656 247.497,43.641C248.026,43.58 248.677,43.569 249.102,43.427C250.559,42.94 252.107,42.076 253.248,41.031C254.15,40.205 254.871,39.194 255.253,38.023C255.653,36.796 255.744,35.413 256.554,34.377C256.76,34.114 256.906,34.072 257.018,34.114C257.54,34.307 258.13,34.644 258.667,34.729C259.145,34.806 259.59,34.716 259.964,34.321C260.384,33.877 260.487,33.281 260.377,32.702C260.34,32.507 260.266,32.284 260.233,32.064C260.215,31.943 260.198,31.821 260.265,31.72C260.299,31.668 260.336,31.612 260.407,31.605C260.434,31.603 260.458,31.621 260.485,31.634C260.537,31.66 260.59,31.693 260.643,31.727C260.769,31.808 260.896,31.895 261.024,31.957C261.359,32.12 261.7,32.154 262.057,31.863C262.17,31.771 262.262,31.656 262.334,31.529C262.542,31.161 262.529,30.776 262.464,30.394C262.492,30.374 262.525,30.353 262.543,30.345C263.077,30.099 263.538,30.002 264.228,30.079C265.416,30.212 266.468,30.751 267.54,31.189C268.72,31.67 269.92,32.034 271.302,31.766C272.307,31.572 272.967,31.109 273.72,30.413C273.733,30.41 273.772,30.401 273.795,30.399C273.881,30.392 273.967,30.402 274.022,30.408C274.368,30.445 274.757,30.362 275.06,30.202C275.428,30.009 275.727,29.751 275.83,29.325C275.861,29.193 275.868,29.058 275.873,28.923C275.877,28.838 275.866,28.751 275.917,28.676C275.99,28.57 276.118,28.521 276.214,28.44C276.532,28.168 276.795,27.76 276.793,27.325C276.793,27.229 276.773,27.072 276.758,26.913C276.751,26.834 276.75,26.711 276.75,26.674C277.181,25.89 277.33,25.33 277.545,24.4C277.777,23.396 277.781,22.337 277.915,21.317C278.047,20.305 278.622,19.076 278.91,17.874C279.238,16.505 279.207,15.175 278.068,14.147C276.911,13.102 275.888,14.241 275.455,15.318C275.102,16.194 274.988,17.157 274.643,18.035C274.383,18.696 273.938,19.257 273.581,19.865C273.256,20.417 273.056,21.038 272.679,21.559C272.039,22.439 271.102,23.048 270.179,23.598C268.718,24.469 266.897,24.841 265.209,24.77C264.497,24.74 263.703,24.62 262.918,24.585C262.065,24.548 261.223,24.612 260.489,24.949C258.633,25.8 256.974,27.511 255.332,28.705C253.629,29.943 251.715,30.774 250.513,32.586C249.862,33.566 249.58,34.668 249.255,35.755C248.96,36.743 248.629,37.717 247.857,38.539C247.252,39.184 246.411,39.741 245.559,39.989C244.95,40.166 244.262,40.293 243.62,40.509C242.907,40.749 242.252,41.098 241.784,41.694C240.834,42.904 240.477,44.328 240.213,45.788C239.968,47.148 239.807,48.539 239.233,49.785C238.842,50.632 238.514,51.63 237.764,52.184C236.815,52.886 235.888,53.55 235.445,54.555C234.936,55.712 235.505,57.513 237.447,57.89C237.674,57.934 237.94,58.123 238.237,58.269C238.658,58.477 239.12,58.618 239.587,58.503C240.08,58.382 240.533,58.065 240.929,57.658C241.458,57.115 241.89,56.413 242.209,55.923C243.396,54.099 244.413,51.949 244.701,49.805C244.786,49.175 244.759,48.435 244.858,47.865C244.9,47.621 244.939,47.406 245.097,47.312C245.123,47.297 245.15,47.284 245.179,47.272C245.336,47.209 245.423,47.33 245.518,47.43C245.676,47.598 245.828,47.785 246,47.912C246.36,48.178 246.832,48.157 247.232,48.018C247.431,47.948 247.614,47.845 247.775,47.708C247.965,47.546 248.129,47.348 248.241,47.125C248.713,46.184 248.331,45.288 247.682,44.582C247.448,44.328 247.139,44.072 247.051,43.736ZM273.45,30.095C272.753,30.74 272.151,31.177 271.223,31.357C268.631,31.86 266.729,29.941 264.275,29.665C263.494,29.577 262.973,29.688 262.369,29.967C262.244,30.024 261.997,30.176 262.028,30.33C262.094,30.663 262.153,31.002 261.971,31.324C261.925,31.405 261.866,31.48 261.793,31.54C261.288,31.953 260.832,31.146 260.367,31.19C260.159,31.21 260.019,31.336 259.917,31.49C259.669,31.865 259.892,32.381 259.968,32.78C260.053,33.228 259.986,33.692 259.661,34.035C258.994,34.74 257.993,34.029 257.163,33.723C256.948,33.644 256.619,33.618 256.226,34.12C255.385,35.194 255.272,36.622 254.857,37.894C254.497,38.996 253.816,39.946 252.967,40.723C251.866,41.731 250.375,42.562 248.97,43.032C248.165,43.301 246.501,43.043 246.628,43.752C246.707,44.192 247.077,44.539 247.375,44.864C247.906,45.442 248.255,46.168 247.869,46.938C247.782,47.112 247.653,47.265 247.505,47.391C247.384,47.494 247.245,47.572 247.094,47.624C246.82,47.72 246.495,47.76 246.248,47.577C245.864,47.294 245.61,46.651 245.025,46.885C244.974,46.905 244.927,46.928 244.884,46.954C244.263,47.325 244.431,48.692 244.289,49.749C244.008,51.834 243.014,53.923 241.86,55.695C241.348,56.482 240.543,57.838 239.487,58.099C238.747,58.281 238.038,57.58 237.527,57.481C235.909,57.167 235.403,55.686 235.827,54.723C236.241,53.782 237.123,53.176 238.012,52.519C238.817,51.924 239.192,50.868 239.611,49.959C240.789,47.403 240.299,44.259 242.112,41.952C242.946,40.89 244.467,40.741 245.676,40.389C246.597,40.121 247.507,39.521 248.161,38.825C249.799,37.08 249.606,34.706 250.86,32.816C252.034,31.047 253.914,30.251 255.577,29.042C257.198,27.864 258.83,26.167 260.662,25.327C262.015,24.707 263.767,25.126 265.192,25.186C266.958,25.261 268.863,24.867 270.392,23.956C271.363,23.378 272.343,22.73 273.016,21.803C273.402,21.272 273.608,20.64 273.94,20.076C274.308,19.449 274.763,18.869 275.031,18.187C275.376,17.31 275.489,16.348 275.841,15.474C276.174,14.647 276.901,13.655 277.789,14.456C279.814,16.285 277.769,19.214 277.501,21.263C277.37,22.269 277.368,23.315 277.139,24.306C276.931,25.205 276.791,25.742 276.367,26.507C276.28,26.664 276.376,27.133 276.377,27.327C276.378,27.64 276.173,27.927 275.944,28.123C275.82,28.228 275.667,28.304 275.574,28.44C275.41,28.679 275.488,28.964 275.424,29.228C275.352,29.529 275.126,29.697 274.866,29.834C274.633,29.957 274.334,30.022 274.068,29.993C273.919,29.977 273.606,29.95 273.45,30.095Z" style="fill:#d19421;"/>
            </g>
            <g transform="matrix(1,0,0,1,0,8.75)">
                <path d="M238.357,55.958C237.778,55.968 236.931,55.392 237.183,54.774C237.656,53.613 238.535,53.434 239.166,52.858C240.107,52 240.553,51.367 240.958,50.469C241.669,48.896 241.464,47.89 241.86,46.218C242.207,44.753 242.936,43.294 243.997,42.162C244.683,41.43 246.015,41.327 246.925,41.042C248.115,40.67 249.387,39.851 250.238,38.936C251.31,37.785 250.744,36.157 251.546,34.962C251.959,34.347 252.717,34.085 253.158,33.518C253.522,33.05 253.58,32.416 253.864,31.902C254.242,31.22 254.977,30.7 255.638,30.317C256.278,29.946 257.021,29.642 257.734,29.444C258.291,29.29 258.883,29.234 259.374,28.901C260.497,28.14 260.764,26.662 262.137,26.123C263.67,25.521 264.865,26.254 266.344,26.491C267.825,26.728 269.574,26.508 270.967,25.966C271.386,25.803 271.829,25.645 272.207,25.398C273.429,24.6 273.728,23.371 274.402,22.18C274.628,21.781 275.052,21.554 275.235,21.13C275.558,20.387 275.309,19.472 275.691,18.757C275.892,18.381 276.252,18.054 276.613,18.434C277.239,19.093 276.512,20.187 276.553,20.978C276.621,22.286 276.81,23.626 276.119,24.826C275.787,25.403 275.075,25.681 274.799,26.263C274.575,26.735 274.905,27.208 274.773,27.686C274.621,28.231 274.218,28.008 273.889,28.311C273.545,28.627 273.492,29.113 273.055,29.364C272.404,29.74 271.554,29.395 270.847,29.51C270.042,29.643 269.479,30.218 268.572,30.146C267.629,30.07 266.957,29.432 266.079,29.173C264.657,28.754 263.079,29.222 261.832,28.865C261.525,28.777 261.22,28.604 260.921,28.707C260.121,28.983 260.713,29.73 260.231,30.35C259.845,30.847 259.044,30.323 258.758,30.999C258.539,31.518 258.913,32.217 258.471,32.64C257.968,33.124 257.474,32.644 256.958,32.486C256.364,32.304 255.706,32.479 255.26,32.907C254.356,33.776 254.39,35.253 253.88,36.336C253.572,36.991 252.802,37.467 252.596,38.129C252.454,38.585 252.57,39.085 252.48,39.551C252.359,40.172 251.853,40.743 251.402,41.157C250.707,41.796 249.846,42.372 248.869,42.406C247.841,42.441 245.973,41.834 245.347,43.028C245.186,43.334 245.495,43.758 245.675,43.987C246.12,44.553 247.947,45.653 247.279,46.582C247.038,46.916 246.335,47.058 245.964,46.301C245.529,45.415 245.152,44.621 244.229,45.583C243.622,46.216 243.052,47.139 243.006,48.042C242.955,49.057 243.382,49.972 243.117,51.005C242.998,51.47 242.799,51.988 242.479,52.356C242.129,52.761 241.666,53.032 241.488,53.56C241.155,54.551 241.424,55.961 240.352,56.567C239.366,57.126 239.427,55.939 238.357,55.958Z" style="fill:#9c050e;"/>
            </g>
            <g transform="matrix(1,0,0,1,0,8.75)">
                <path d="M241.178,51.449C241.018,51.8 240.53,52.293 240.456,52.358C240.236,52.553 239.447,53.112 239.33,52.463C239.29,52.243 239.445,51.956 239.529,51.765C239.794,51.16 240.247,50.634 240.542,50.037C241.28,48.542 241.174,46.776 241.683,45.209C241.843,44.716 242.038,44.089 242.458,43.752C242.624,43.619 242.868,43.482 243.085,43.565C243.381,43.677 243.355,44.028 243.289,44.279C243.123,44.905 242.798,45.489 242.59,46.103C242.35,46.813 242.424,47.504 242.356,48.235C242.264,49.232 241.591,50.548 241.178,51.449ZM249.073,41.873C249.539,42.04 250.03,41.774 250.393,41.494C251.13,40.925 251.769,40.255 251.965,39.311C252.071,38.802 252.028,38.219 252.251,37.741C252.521,37.159 253.06,36.785 253.405,36.258C253.481,36.142 253.551,36.022 253.625,35.905C253.862,35.527 254.032,35.061 253.917,34.615C253.874,34.449 253.792,34.259 253.634,34.17C253.232,33.945 252.808,34.428 252.685,34.762C252.482,35.312 252.37,35.893 252.127,36.429C251.892,36.948 251.538,37.408 251.307,37.933C251.186,38.208 251.164,38.517 251.037,38.787C250.903,39.074 250.62,39.223 250.367,39.39C249.962,39.657 249.536,39.92 249.155,40.219C248.966,40.367 248.768,40.579 248.659,40.794C248.593,40.925 248.579,41.092 248.494,41.212C248.344,41.423 248.083,41.478 247.891,41.634C247.803,41.705 247.741,41.823 247.815,41.928C247.907,42.057 248.107,42.141 248.248,42.096C248.541,42.003 248.484,41.869 248.695,41.8C248.878,41.74 248.891,41.808 249.073,41.873ZM258.64,33.355C258.768,33.377 258.899,33.352 259.016,33.297C259.849,32.902 259.261,32.068 259.411,31.421C259.493,31.068 259.795,30.815 259.864,30.454C259.911,30.21 259.802,29.814 259.519,29.761C259.141,29.689 258.792,30.069 258.591,30.34C258.307,30.725 258.452,31.218 258.37,31.654C258.31,31.97 258.074,32.146 257.959,32.431C257.764,32.913 258.229,33.288 258.64,33.355ZM262.313,28.137C262.543,28.202 262.6,28.466 262.802,28.546C263.159,28.689 263.484,28.618 263.849,28.563C264.323,28.491 264.784,28.395 265.267,28.445C265.724,28.492 266.2,28.616 266.613,28.818C267.06,29.038 267.463,29.354 267.918,29.554C268.44,29.784 269.175,29.82 269.712,29.629C270.154,29.471 270.279,28.952 270.671,28.723C271.125,28.459 271.709,28.642 272.191,28.479C272.418,28.402 272.705,28.153 272.7,27.888C272.695,27.655 272.368,27.566 272.184,27.587C271.589,27.657 271.118,27.98 270.505,27.766C269.735,27.498 269.053,27.031 268.219,26.983C267.575,26.946 266.949,27.306 266.306,27.236C265.924,27.195 265.544,27.023 265.193,26.869C264.759,26.678 264.037,26.555 263.622,26.597C262.442,26.718 261.918,27.606 261.852,27.636C261.669,27.716 260.943,27.938 261.283,28.27C261.655,28.635 261.934,28.03 262.313,28.137Z" style="fill:#ff000e;fill-opacity:0.25;"/>
            </g>
            <g transform="matrix(1,0,0,1,0,8.75)">
                <path d="M239.868,57.361C239.374,57.441 238.81,57.272 238.881,56.731C238.924,56.403 239.227,56.121 239.514,55.989C240.005,55.763 240.454,56.08 240.442,56.616C240.435,56.932 240.204,57.307 239.868,57.361ZM238.422,55.407C238.146,55.34 238.15,55.142 238.263,54.991C238.375,54.841 238.597,54.737 238.757,54.856C239.04,55.066 238.714,55.479 238.422,55.407ZM240.322,55.138C240.089,55.227 239.646,55.216 239.595,54.889C239.554,54.622 239.85,54.348 240.076,54.265C240.293,54.185 240.576,54.299 240.645,54.53C240.692,54.684 240.548,55.051 240.322,55.138ZM244.718,43.031C244.611,43.047 244.469,43.043 244.403,42.94C244.323,42.814 244.518,42.641 244.63,42.617C244.883,42.562 245.008,42.99 244.718,43.031ZM245.475,42.033C245.285,42.075 245.06,42.108 244.883,42.001C244.445,41.736 244.907,41.187 245.228,41.082C245.299,41.059 245.369,41.047 245.444,41.057C245.944,41.122 245.944,41.929 245.475,42.033ZM272.206,26.295C271.97,26.322 271.737,26.321 271.507,26.259C271.359,26.219 271.214,26.16 271.088,26.073C270.693,25.8 270.627,25.31 270.866,24.905C271.125,24.464 271.59,24.126 272.108,24.086C272.268,24.073 272.437,24.094 272.591,24.141C272.699,24.174 272.8,24.225 272.89,24.294C273.646,24.876 273.133,26.185 272.206,26.295ZM274.414,24.969C274.163,25.038 273.934,24.848 273.964,24.689C273.993,24.536 274.11,24.42 274.254,24.37C274.452,24.302 274.875,24.375 274.75,24.681C274.735,24.716 274.59,24.92 274.414,24.969ZM273.944,23.93C273.767,24.022 273.526,24.053 273.34,23.971C273.12,23.872 273.099,23.541 273.168,23.344C273.279,23.023 273.667,22.753 274.009,22.771C274.302,22.787 274.412,23.043 274.385,23.342C274.367,23.538 274.189,23.803 273.944,23.93ZM277.878,17.334C277.64,17.408 277.224,17.458 277.034,17.248C276.757,16.942 277.174,16.427 277.468,16.306C277.591,16.256 277.773,16.207 277.897,16.278C278.171,16.434 278.284,17.162 277.878,17.334ZM276.957,15.721C276.798,15.622 276.728,15.437 276.774,15.254C276.819,15.077 277.042,14.96 277.209,15.043C277.378,15.127 277.515,15.338 277.499,15.53C277.485,15.701 277.194,15.868 276.957,15.721Z" style="fill:#ff000e;fill-opacity:0.5;"/>
            </g>
        </g>
        <g>
            <g transform="matrix(1,0,0,1,0,8.75)">
                <path d="M228.589,53.41L228.589,53.433C224.917,52.505 221.251,51.514 217.454,51.283C208.345,50.729 199.402,52.715 190.33,52.315C187.081,52.171 184.115,50.355 180.806,50.4C176.555,50.458 172.272,52.067 168.101,52.788C162.334,53.785 156.409,54.03 150.567,53.82C141.838,53.505 133.215,50.932 124.482,50.838C118.113,50.77 111.943,53.302 105.559,52.929C101.461,52.689 97.886,48.884 93.961,48.994C90.173,49.101 87.087,52.425 83.131,52.579C78.838,52.747 75.531,49.873 71.412,49.767C66.259,49.635 61.238,52.38 56.04,52.691C49.972,53.055 44.126,51.113 38.055,51.16C32.262,51.206 23.37,54.312 17.251,53.521C16.272,53.395 15.306,53.234 14.368,52.92C9.187,51.186 11.743,45.924 9.949,42.033C7.835,37.452 4.112,34.576 4.951,28.939C5.526,25.071 8.814,22.698 9.869,19.049C11.395,13.769 9.742,8.267 16.347,6.127C21.233,4.544 27.303,7.343 32.277,7.66C38.419,8.052 44.352,5.672 50.532,5.867C55.972,6.038 60.872,8.782 66.344,8.836C73.913,8.912 81.022,5.323 88.623,5.215C95.947,5.112 103.135,7.542 110.499,7.669C116.402,7.77 122.087,5.449 128.085,5.958C135.106,6.553 141.714,8.7 148.859,8.739C157.665,8.787 166.217,5.735 175.022,5.477C183.727,5.221 191.782,8.676 200.336,9.54C204.078,9.918 207.96,8.932 211.642,8.4C215.936,7.781 220.449,7.303 224.788,7.699C226.085,7.817 227.345,8.006 228.589,8.206L228.589,48.761C228.61,48.748 228.631,48.735 228.652,48.722C230.455,47.631 233.62,48.074 234.241,50.359C234.49,51.277 234.229,51.881 233.511,52.362C232.427,53.088 230.839,53.741 229.517,53.632C229.202,53.607 228.91,53.507 228.604,53.434L228.589,53.41Z" style="fill:#ff6598;"/>
            </g>
            <g transform="matrix(1,0,0,1,0,8.75)">
                <path d="M233.504,52.362C228.152,51.335 222.941,49.417 217.454,49.083C208.345,48.528 199.402,50.515 190.33,50.114C187.081,49.971 184.115,48.154 180.806,48.199C176.555,48.257 172.272,49.866 168.101,50.587C162.334,51.584 156.409,51.83 150.567,51.619C141.838,51.304 133.215,48.731 124.482,48.638C118.113,48.57 111.943,51.102 105.559,50.729C101.461,50.489 97.886,46.683 93.961,46.794C90.173,46.9 87.087,50.224 83.131,50.379C78.838,50.547 75.531,47.672 71.412,47.567C66.259,47.435 61.238,50.179 56.04,50.491C49.972,50.855 44.126,48.912 38.055,48.96C32.262,49.006 23.37,52.111 17.251,51.321C16.272,51.194 15.306,51.033 14.368,50.719C9.187,48.986 11.743,43.723 9.949,39.833C7.835,35.251 4.112,32.376 4.951,26.738C5.526,22.871 8.814,20.497 9.869,16.848C11.395,11.568 9.742,6.066 16.347,3.926C21.233,2.343 27.303,5.143 32.277,5.46C38.419,5.851 44.352,3.471 50.532,3.666C55.972,3.838 60.872,6.581 66.344,6.636C73.913,6.712 81.022,3.122 88.623,3.015C95.947,2.911 103.135,5.341 110.499,5.468C116.402,5.57 122.087,3.249 128.085,3.757C135.106,4.353 141.714,6.5 148.859,6.538C157.665,6.586 166.217,3.535 175.022,3.276C183.727,3.021 191.782,6.475 200.336,7.34C204.078,7.718 207.96,6.731 211.642,6.2C215.936,5.58 220.449,5.103 224.788,5.498C229.425,5.921 233.573,7.239 238.315,6.812C245.172,6.194 251.852,4.194 258.79,4.369C262.449,4.461 265.597,5.657 269.08,6.435C270.877,6.836 274.949,5.61 276.335,7.263C276.947,7.993 277.168,8.835 277.196,9.729C276.287,10.456 275.463,11.227 274.93,12.156C273.513,14.631 275.228,17.262 272.488,19.239C270.685,20.54 268.217,22.326 265.893,22.394C263.827,22.455 261.399,20.736 259.443,22.009C257.266,23.425 255.147,24.913 252.93,26.28C251.527,27.145 249.817,27.983 248.82,29.35C247.366,31.345 248.39,34.228 246.401,36.346C244.699,38.158 241.479,37.601 240.033,39.811C238.018,42.889 238.7,47.055 236.077,50.057C235.291,50.956 234.431,51.72 233.504,52.362Z" style="fill:#ff80ab;"/>
            </g>
            <g transform="matrix(1,0,0,1,0,8.75)">
                <path d="M274.249,6.404C275.119,6.483 275.875,6.714 276.335,7.263C276.947,7.993 277.168,8.835 277.196,9.729C276.287,10.456 275.463,11.227 274.93,12.156C273.513,14.631 275.228,17.262 272.488,19.239C270.685,20.54 268.217,22.326 265.893,22.394C263.827,22.455 261.399,20.736 259.443,22.009C257.266,23.425 255.147,24.913 252.93,26.28C251.527,27.145 249.817,27.983 248.82,29.35C247.366,31.345 248.39,34.228 246.401,36.346C244.699,38.158 241.479,37.601 240.033,39.811C238.018,42.889 238.7,47.055 236.077,50.057C235.291,50.956 234.431,51.72 233.504,52.362C231.856,52.046 230.222,51.645 228.589,51.232C229.79,51.04 230.995,50.762 231.971,50.225C236.292,47.85 234.189,41.005 236.774,37.43C238.587,34.923 242.638,35.501 244.243,32.808C245.531,30.648 244.531,27.328 246.679,25.652C248.009,24.614 249.67,24 251.085,23.08C253.672,21.4 256.431,19.177 259.489,18.411C261.837,17.822 263.37,19.051 265.584,19.245C267.307,19.395 268.906,18.614 270.312,17.693C271.105,17.174 271.824,16.631 272.163,15.706C272.673,14.312 272.17,12.933 272.491,11.539C272.879,9.851 275.58,9.26 274.811,7.318C274.677,6.98 274.484,6.678 274.249,6.404Z" style="fill:#ff6598;"/>
            </g>
        </g>
        <g>
            <g transform="matrix(1.2521,0,0,0.989342,-10.027,9.70094)">
                <path d="M37.497,18.108C37.497,16.852 38.517,15.832 39.773,15.832C41.029,15.832 42.049,16.852 42.049,18.108L42.049,18.749C42.049,20.005 41.029,21.025 39.773,21.025C38.517,21.025 37.497,20.005 37.497,18.749L37.497,18.108Z" style="fill:#ff669a;"/>
            </g>
            <g transform="matrix(1,0,0,1,0,8.75)">
                <path d="M37.497,18.108L42.049,18.108L42.049,18.749C42.049,20.005 41.029,21.025 39.773,21.025C38.517,21.025 37.497,20.005 37.497,18.749L37.497,18.108Z" style="fill:#004f7f;"/>
            </g>
            <g transform="matrix(1,0,0,1,0,8.75)">
                <circle cx="39.773" cy="18.108" r="2.276" style="fill:#0076bd;"/>
            </g>
        </g>
        <g transform="matrix(1,0,0,1,174.469,23.2462)">
            <g transform="matrix(1.2521,0,0,0.989342,-10.027,9.70094)">
                <path d="M37.497,18.108C37.497,16.852 38.517,15.832 39.773,15.832C41.029,15.832 42.049,16.852 42.049,18.108L42.049,18.749C42.049,20.005 41.029,21.025 39.773,21.025C38.517,21.025 37.497,20.005 37.497,18.749L37.497,18.108Z" style="fill:#ff669a;"/>
            </g>
            <g transform="matrix(1,0,0,1,0,8.75)">
                <path d="M37.497,18.108L42.049,18.108L42.049,18.749C42.049,20.005 41.029,21.025 39.773,21.025C38.517,21.025 37.497,20.005 37.497,18.749L37.497,18.108Z" style="fill:#004f7f;"/>
            </g>
            <g transform="matrix(1,0,0,1,0,8.75)">
                <circle cx="39.773" cy="18.108" r="2.276" style="fill:#0076bd;"/>
            </g>
        </g>
        <g transform="matrix(1,0,0,1,133.36,-8.3197)">
            <g transform="matrix(1.2521,0,0,0.989342,-10.027,9.70094)">
                <path d="M37.497,18.108C37.497,16.852 38.517,15.832 39.773,15.832C41.029,15.832 42.049,16.852 42.049,18.108L42.049,18.749C42.049,20.005 41.029,21.025 39.773,21.025C38.517,21.025 37.497,20.005 37.497,18.749L37.497,18.108Z" style="fill:#ff669a;"/>
            </g>
            <g transform="matrix(1,0,0,1,0,8.75)">
                <path d="M37.497,18.108L42.049,18.108L42.049,18.749C42.049,20.005 41.029,21.025 39.773,21.025C38.517,21.025 37.497,20.005 37.497,18.749L37.497,18.108Z" style="fill:#004f7f;"/>
            </g>
            <g transform="matrix(1,0,0,1,0,8.75)">
                <circle cx="39.773" cy="18.108" r="2.276" style="fill:#0076bd;"/>
            </g>
        </g>
        <g transform="matrix(1,0,0,1,42.5773,23.2462)">
            <g transform="matrix(1.2521,0,0,0.989342,-10.027,9.70094)">
                <path d="M37.497,18.108C37.497,16.852 38.517,15.832 39.773,15.832C41.029,15.832 42.049,16.852 42.049,18.108L42.049,18.749C42.049,20.005 41.029,21.025 39.773,21.025C38.517,21.025 37.497,20.005 37.497,18.749L37.497,18.108Z" style="fill:#ff669a;"/>
            </g>
            <g transform="matrix(1,0,0,1,0,8.75)">
                <path d="M37.497,18.108L42.049,18.108L42.049,18.749C42.049,20.005 41.029,21.025 39.773,21.025C38.517,21.025 37.497,20.005 37.497,18.749L37.497,18.108Z" style="fill:#004f7f;"/>
            </g>
            <g transform="matrix(1,0,0,1,0,8.75)">
                <circle cx="39.773" cy="18.108" r="2.276" style="fill:#0076bd;"/>
            </g>
        </g>
        <g transform="matrix(1,0,0,1,215.578,-5.91941)">
            <g transform="matrix(1.2521,0,0,0.989342,-10.027,9.70094)">
                <path d="M37.497,18.108C37.497,16.852 38.517,15.832 39.773,15.832C41.029,15.832 42.049,16.852 42.049,18.108L42.049,18.749C42.049,20.005 41.029,21.025 39.773,21.025C38.517,21.025 37.497,20.005 37.497,18.749L37.497,18.108Z" style="fill:#ff669a;"/>
            </g>
            <g transform="matrix(1,0,0,1,0,8.75)">
                <path d="M37.497,18.108L42.049,18.108L42.049,18.749C42.049,20.005 41.029,21.025 39.773,21.025C38.517,21.025 37.497,20.005 37.497,18.749L37.497,18.108Z" style="fill:#004f7f;"/>
            </g>
            <g transform="matrix(1,0,0,1,0,8.75)">
                <circle cx="39.773" cy="18.108" r="2.276" style="fill:#0076bd;"/>
            </g>
        </g>
        <g transform="matrix(1,0,0,1,192.332,5.93505)">
            <g transform="matrix(1.2521,0,0,0.989342,-10.027,9.70094)">
                <path d="M37.497,18.108C37.497,16.852 38.517,15.832 39.773,15.832C41.029,15.832 42.049,16.852 42.049,18.108L42.049,18.749C42.049,20.005 41.029,21.025 39.773,21.025C38.517,21.025 37.497,20.005 37.497,18.749L37.497,18.108Z" style="fill:#ff669a;"/>
            </g>
            <g transform="matrix(1,0,0,1,0,8.75)">
                <path d="M37.497,18.108L42.049,18.108L42.049,18.749C42.049,20.005 41.029,21.025 39.773,21.025C38.517,21.025 37.497,20.005 37.497,18.749L37.497,18.108Z" style="fill:#d0a100;"/>
            </g>
            <g transform="matrix(1,0,0,1,0,8.75)">
                <circle cx="39.773" cy="18.108" r="2.276" style="fill:#fcc50a;"/>
            </g>
        </g>
        <g transform="matrix(1,0,0,1,86.3782,-5.81041)">
            <g transform="matrix(1.2521,0,0,0.989342,-10.027,9.70094)">
                <path d="M37.497,18.108C37.497,16.852 38.517,15.832 39.773,15.832C41.029,15.832 42.049,16.852 42.049,18.108L42.049,18.749C42.049,20.005 41.029,21.025 39.773,21.025C38.517,21.025 37.497,20.005 37.497,18.749L37.497,18.108Z" style="fill:#ff669a;"/>
            </g>
            <g transform="matrix(1,0,0,1,0,8.75)">
                <path d="M37.497,18.108L42.049,18.108L42.049,18.749C42.049,20.005 41.029,21.025 39.773,21.025C38.517,21.025 37.497,20.005 37.497,18.749L37.497,18.108Z" style="fill:#d0a100;"/>
            </g>
            <g transform="matrix(1,0,0,1,0,8.75)">
                <circle cx="39.773" cy="18.108" r="2.276" style="fill:#fcc50a;"/>
            </g>
        </g>
        <g transform="matrix(1,0,0,1,20.3099,11.858)">
            <g transform="matrix(1.2521,0,0,0.989342,-10.027,9.70094)">
                <path d="M37.497,18.108C37.497,16.852 38.517,15.832 39.773,15.832C41.029,15.832 42.049,16.852 42.049,18.108L42.049,18.749C42.049,20.005 41.029,21.025 39.773,21.025C38.517,21.025 37.497,20.005 37.497,18.749L37.497,18.108Z" style="fill:#ff669a;"/>
            </g>
            <g transform="matrix(1,0,0,1,0,8.75)">
                <path d="M37.497,18.108L42.049,18.108L42.049,18.749C42.049,20.005 41.029,21.025 39.773,21.025C38.517,21.025 37.497,20.005 37.497,18.749L37.497,18.108Z" style="fill:#d0a100;"/>
            </g>
            <g transform="matrix(1,0,0,1,0,8.75)">
                <circle cx="39.773" cy="18.108" r="2.276" style="fill:#fcc50a;"/>
            </g>
        </g>
        <g transform="matrix(1,0,0,1,32.7079,-2.85071)">
            <g transform="matrix(1.2521,0,0,0.989342,-10.027,9.70094)">
                <path d="M37.497,18.108C37.497,16.852 38.517,15.832 39.773,15.832C41.029,15.832 42.049,16.852 42.049,18.108L42.049,18.749C42.049,20.005 41.029,21.025 39.773,21.025C38.517,21.025 37.497,20.005 37.497,18.749L37.497,18.108Z" style="fill:#ff669a;"/>
            </g>
            <g transform="matrix(1,0,0,1,0,8.75)">
                <path d="M37.497,18.108L42.049,18.108L42.049,18.749C42.049,20.005 41.029,21.025 39.773,21.025C38.517,21.025 37.497,20.005 37.497,18.749L37.497,18.108Z" style="fill:#00761d;"/>
            </g>
            <g transform="matrix(1,0,0,1,0,8.75)">
                <circle cx="39.773" cy="18.108" r="2.276" style="fill:#00a228;"/>
            </g>
        </g>
        <g transform="matrix(1,0,0,1,-16.101,24.1639)">
            <g transform="matrix(1.2521,0,0,0.989342,-10.027,9.70094)">
                <path d="M37.497,18.108C37.497,16.852 38.517,15.832 39.773,15.832C41.029,15.832 42.049,16.852 42.049,18.108L42.049,18.749C42.049,20.005 41.029,21.025 39.773,21.025C38.517,21.025 37.497,20.005 37.497,18.749L37.497,18.108Z" style="fill:#ff669a;"/>
            </g>
            <g transform="matrix(1,0,0,1,0,8.75)">
                <path d="M37.497,18.108L42.049,18.108L42.049,18.749C42.049,20.005 41.029,21.025 39.773,21.025C38.517,21.025 37.497,20.005 37.497,18.749L37.497,18.108Z" style="fill:#00761d;"/>
            </g>
            <g transform="matrix(1,0,0,1,0,8.75)">
                <circle cx="39.773" cy="18.108" r="2.276" style="fill:#00a228;"/>
            </g>
        </g>
        <g transform="matrix(1,0,0,1,165.638,-2.07613)">
            <g transform="matrix(1.2521,0,0,0.989342,-10.027,9.70094)">
                <path d="M37.497,18.108C37.497,16.852 38.517,15.832 39.773,15.832C41.029,15.832 42.049,16.852 42.049,18.108L42.049,18.749C42.049,20.005 41.029,21.025 39.773,21.025C38.517,21.025 37.497,20.005 37.497,18.749L37.497,18.108Z" style="fill:#ff669a;"/>
            </g>
            <g transform="matrix(1,0,0,1,0,8.75)">
                <path d="M37.497,18.108L42.049,18.108L42.049,18.749C42.049,20.005 41.029,21.025 39.773,21.025C38.517,21.025 37.497,20.005 37.497,18.749L37.497,18.108Z" style="fill:#00761d;"/>
            </g>
            <g transform="matrix(1,0,0,1,0,8.75)">
                <circle cx="39.773" cy="18.108" r="2.276" style="fill:#00a228;"/>
            </g>
        </g>
        <g transform="matrix(1,0,0,1,147.149,21.8991)">
            <g transform="matrix(1.2521,0,0,0.989342,-10.027,9.70094)">
                <path d="M37.497,18.108C37.497,16.852 38.517,15.832 39.773,15.832C41.029,15.832 42.049,16.852 42.049,18.108L42.049,18.749C42.049,20.005 41.029,21.025 39.773,21.025C38.517,21.025 37.497,20.005 37.497,18.749L37.497,18.108Z" style="fill:#ff669a;"/>
            </g>
            <g transform="matrix(1,0,0,1,0,8.75)">
                <path d="M37.497,18.108L42.049,18.108L42.049,18.749C42.049,20.005 41.029,21.025 39.773,21.025C38.517,21.025 37.497,20.005 37.497,18.749L37.497,18.108Z" style="fill:#920003;"/>
            </g>
            <g transform="matrix(1,0,0,1,0,8.75)">
                <circle cx="39.773" cy="18.108" r="2.276" style="fill:#c3080b;"/>
            </g>
        </g>
        <g transform="matrix(1,0,0,1,5.76852,22.6737)">
            <g transform="matrix(1.2521,0,0,0.989342,-10.027,9.70094)">
                <path d="M37.497,18.108C37.497,16.852 38.517,15.832 39.773,15.832C41.029,15.832 42.049,16.852 42.049,18.108L42.049,18.749C42.049,20.005 41.029,21.025 39.773,21.025C38.517,21.025 37.497,20.005 37.497,18.749L37.497,18.108Z" style="fill:#ff669a;"/>
            </g>
            <g transform="matrix(1,0,0,1,0,8.75)">
                <path d="M37.497,18.108L42.049,18.108L42.049,18.749C42.049,20.005 41.029,21.025 39.773,21.025C38.517,21.025 37.497,20.005 37.497,18.749L37.497,18.108Z" style="fill:#920003;"/>
            </g>
            <g transform="matrix(1,0,0,1,0,8.75)">
                <circle cx="39.773" cy="18.108" r="2.276" style="fill:#c3080b;"/>
            </g>
        </g>
        <g transform="matrix(1,0,0,1,-18.8708,5.93505)">
            <g transform="matrix(1.2521,0,0,0.989342,-10.027,9.70094)">
                <path d="M37.497,18.108C37.497,16.852 38.517,15.832 39.773,15.832C41.029,15.832 42.049,16.852 42.049,18.108L42.049,18.749C42.049,20.005 41.029,21.025 39.773,21.025C38.517,21.025 37.497,20.005 37.497,18.749L37.497,18.108Z" style="fill:#ff669a;"/>
            </g>
            <g transform="matrix(1,0,0,1,0,8.75)">
                <path d="M37.497,18.108L42.049,18.108L42.049,18.749C42.049,20.005 41.029,21.025 39.773,21.025C38.517,21.025 37.497,20.005 37.497,18.749L37.497,18.108Z" style="fill:#920003;"/>
            </g>
            <g transform="matrix(1,0,0,1,0,8.75)">
                <circle cx="39.773" cy="18.108" r="2.276" style="fill:#c3080b;"/>
            </g>
        </g>
        <g transform="matrix(1,0,0,1,185.587,-4.39661)">
            <g transform="matrix(1.2521,0,0,0.989342,-10.027,9.70094)">
                <path d="M37.497,18.108C37.497,16.852 38.517,15.832 39.773,15.832C41.029,15.832 42.049,16.852 42.049,18.108L42.049,18.749C42.049,20.005 41.029,21.025 39.773,21.025C38.517,21.025 37.497,20.005 37.497,18.749L37.497,18.108Z" style="fill:#ff669a;"/>
            </g>
            <g transform="matrix(1,0,0,1,0,8.75)">
                <path d="M37.497,18.108L42.049,18.108L42.049,18.749C42.049,20.005 41.029,21.025 39.773,21.025C38.517,21.025 37.497,20.005 37.497,18.749L37.497,18.108Z" style="fill:#920003;"/>
            </g>
            <g transform="matrix(1,0,0,1,0,8.75)">
                <circle cx="39.773" cy="18.108" r="2.276" style="fill:#c3080b;"/>
            </g>
        </g>
        <g transform="matrix(1,0,0,1,168.883,11.8545)">
            <g transform="matrix(1.2521,0,0,0.989342,-10.027,9.70094)">
                <path d="M37.497,18.108C37.497,16.852 38.517,15.832 39.773,15.832C41.029,15.832 42.049,16.852 42.049,18.108L42.049,18.749C42.049,20.005 41.029,21.025 39.773,21.025C38.517,21.025 37.497,20.005 37.497,18.749L37.497,18.108Z" style="fill:#ff669a;"/>
            </g>
            <g transform="matrix(1,0,0,1,0,8.75)">
                <path d="M37.497,18.108L42.049,18.108L42.049,18.749C42.049,20.005 41.029,21.025 39.773,21.025C38.517,21.025 37.497,20.005 37.497,18.749L37.497,18.108Z" style="fill:#d7d7d7;"/>
            </g>
            <g transform="matrix(1,0,0,1,0,8.75)">
                <circle cx="39.773" cy="18.108" r="2.276" style="fill:#fcfcfc;"/>
            </g>
        </g>
        <g transform="matrix(1,0,0,1,106.066,-5.54622)">
            <g transform="matrix(1.2521,0,0,0.989342,-10.027,9.70094)">
                <path d="M37.497,18.108C37.497,16.852 38.517,15.832 39.773,15.832C41.029,15.832 42.049,16.852 42.049,18.108L42.049,18.749C42.049,20.005 41.029,21.025 39.773,21.025C38.517,21.025 37.497,20.005 37.497,18.749L37.497,18.108Z" style="fill:#ff669a;"/>
            </g>
            <g transform="matrix(1,0,0,1,0,8.75)">
                <path d="M37.497,18.108L42.049,18.108L42.049,18.749C42.049,20.005 41.029,21.025 39.773,21.025C38.517,21.025 37.497,20.005 37.497,18.749L37.497,18.108Z" style="fill:#d7d7d7;"/>
            </g>
            <g transform="matrix(1,0,0,1,0,8.75)">
                <circle cx="39.773" cy="18.108" r="2.276" style="fill:#fcfcfc;"/>
            </g>
        </g>
        <g transform="matrix(1,0,0,1,63.7244,19.8298)">
            <g transform="matrix(1.2521,0,0,0.989342,-10.027,9.70094)">
                <path d="M37.497,18.108C37.497,16.852 38.517,15.832 39.773,15.832C41.029,15.832 42.049,16.852 42.049,18.108L42.049,18.749C42.049,20.005 41.029,21.025 39.773,21.025C38.517,21.025 37.497,20.005 37.497,18.749L37.497,18.108Z" style="fill:#ff669a;"/>
            </g>
            <g transform="matrix(1,0,0,1,0,8.75)">
                <path d="M37.497,18.108L42.049,18.108L42.049,18.749C42.049,20.005 41.029,21.025 39.773,21.025C38.517,21.025 37.497,20.005 37.497,18.749L37.497,18.108Z" style="fill:#d7d7d7;"/>
            </g>
            <g transform="matrix(1,0,0,1,0,8.75)">
                <circle cx="39.773" cy="18.108" r="2.276" style="fill:#fcfcfc;"/>
            </g>
        </g>
        <g transform="matrix(1,0,0,1,49.8598,-9.60638)">
            <g transform="matrix(1.2521,0,0,0.989342,-10.027,9.70094)">
                <path d="M37.497,18.108C37.497,16.852 38.517,15.832 39.773,15.832C41.029,15.832 42.049,16.852 42.049,18.108L42.049,18.749C42.049,20.005 41.029,21.025 39.773,21.025C38.517,21.025 37.497,20.005 37.497,18.749L37.497,18.108Z" style="fill:#ff669a;"/>
            </g>
            <g transform="matrix(1,0,0,1,0,8.75)">
                <path d="M37.497,18.108L42.049,18.108L42.049,18.749C42.049,20.005 41.029,21.025 39.773,21.025C38.517,21.025 37.497,20.005 37.497,18.749L37.497,18.108Z" style="fill:#d7d7d7;"/>
            </g>
            <g transform="matrix(1,0,0,1,0,8.75)">
                <circle cx="39.773" cy="18.108" r="2.276" style="fill:#fcfcfc;"/>
            </g>
        </g>
        <g transform="matrix(1,0,0,1,-13.2781,-6.64668)">
            <g transform="matrix(1.2521,0,0,0.989342,-10.027,9.70094)">
                <path d="M37.497,18.108C37.497,16.852 38.517,15.832 39.773,15.832C41.029,15.832 42.049,16.852 42.049,18.108L42.049,18.749C42.049,20.005 41.029,21.025 39.773,21.025C38.517,21.025 37.497,20.005 37.497,18.749L37.497,18.108Z" style="fill:#ff669a;"/>
            </g>
            <g transform="matrix(1,0,0,1,0,8.75)">
                <path d="M37.497,18.108L42.049,18.108L42.049,18.749C42.049,20.005 41.029,21.025 39.773,21.025C38.517,21.025 37.497,20.005 37.497,18.749L37.497,18.108Z" style="fill:#d7d7d7;"/>
            </g>
            <g transform="matrix(1,0,0,1,0,8.75)">
                <circle cx="39.773" cy="18.108" r="2.276" style="fill:#fcfcfc;"/>
            </g>
        </g>
    </g>
</svg>
