<?xml version="1.0" encoding="UTF-8" standalone="no"?>
<!DOCTYPE svg PUBLIC "-//W3C//DTD SVG 1.1//EN" "http://www.w3.org/Graphics/SVG/1.1/DTD/svg11.dtd">
<svg width="100%" height="100%" viewBox="0 0 280 62" version="1.1" xmlns="http://www.w3.org/2000/svg" xmlns:xlink="http://www.w3.org/1999/xlink" xml:space="preserve" xmlns:serif="http://www.serif.com/" style="fill-rule:evenodd;clip-rule:evenodd;stroke-linejoin:round;stroke-miterlimit:2;">
    <g id="banner_47" transform="matrix(1,0,0,1,0,-8.75)">
        <path d="M280,47.751L-0,47.751L-0,65.286C-0,67.888 2.112,70 4.714,70L275.286,70C277.888,70 280,67.888 280,65.286L280,47.751Z" style="fill:#754000;"/>
        <g transform="matrix(-0.893232,-1.09389e-16,8.74808e-17,-0.714335,285.834,65.8968)">
            <path d="M320,8.028C320,5.159 318.138,2.83 315.844,2.83L10.688,2.83C8.394,2.83 6.532,5.159 6.532,8.028L6.532,74.803C6.532,77.671 8.394,80 10.688,80L315.844,80C318.138,80 320,77.671 320,74.803L320,8.028Z" style="fill:#007ab9;"/>
        </g>
        <path d="M209.234,8.75L204.892,8.75L204.892,58.875L209.234,58.875L209.234,8.75ZM280,58.875L280,16.17L274.986,16.17L274.986,10.716C274.986,9.927 274.629,9.22 274.067,8.75L238.883,8.75C238.321,9.22 237.963,9.927 237.963,10.716L237.963,16.17L221.192,16.17C217.288,16.17 214.118,19.34 214.118,23.245L214.118,58.875L280,58.875ZM262.983,16.17C263.243,15.511 263.751,14.976 264.393,14.683L248.557,14.683C249.199,14.976 249.707,15.511 249.967,16.17L262.983,16.17Z" style="fill-opacity:0.25;"/>
        <g>
            <g>
                <rect x="217.624" y="27.705" width="62.376" height="4.851" style="fill:#6b0f13;"/>
                <rect x="216.533" y="30.131" width="63.467" height="28.745" style="fill:#c81720;"/>
                <rect x="219.721" y="37.788" width="60.279" height="18.429" style="fill:#19181d;"/>
                <rect x="219.721" y="37.788" width="60.279" height="2.586" style="fill:#e0e1e3;"/>
                <rect x="219.721" y="43.735" width="60.279" height="2.586" style="fill:#e0e1e3;"/>
                <rect x="219.721" y="49.861" width="60.279" height="2.586" style="fill:#e0e1e3;"/>
                <g transform="matrix(1,0,0,1,-2.39945,0)">
                    <path d="M244.696,16.102L244.696,20.371L249.821,20.371C250.41,20.371 250.888,19.893 250.888,19.304L250.888,17.169C250.888,16.58 250.41,16.102 249.821,16.102L244.696,16.102ZM273.052,16.102L273.052,20.371L267.928,20.371C267.339,20.371 266.861,19.893 266.861,19.304L266.861,17.169C266.861,16.58 267.339,16.102 267.928,16.102L273.052,16.102Z" style="fill:#19181d;"/>
                </g>
                <g transform="matrix(1,0,0,1,-2.39945,0)">
                    <path d="M244.77,12.538L244.77,18.121L242.03,18.121L242.03,10.716C242.03,10.222 242.431,9.82 242.926,9.82L274.823,9.82C275.318,9.82 275.719,10.222 275.719,10.716L275.719,18.121L272.979,18.121L272.979,12.538L244.77,12.538Z" style="fill:#9c9c9c;"/>
                </g>
                <g transform="matrix(1,0,0,1,-2.39945,0)">
                    <path d="M246.941,13.016C246.678,13.016 246.464,12.802 246.464,12.539L246.464,9.825C246.464,9.561 246.678,9.348 246.941,9.348L270.808,9.348C271.071,9.348 271.285,9.561 271.285,9.825L271.285,12.539C271.285,12.802 271.071,13.016 270.808,13.016L246.941,13.016Z" style="fill:#19181d;"/>
                </g>
                <path d="M280,18.121L222.336,18.121C219.133,18.121 216.533,20.721 216.533,23.924L216.533,29.028L280,29.028L280,18.121Z" style="fill:#c81720;"/>
            </g>
            <g>
                <g transform="matrix(1,0,0,1,-0.148487,-0.0557554)">
                    <path d="M263.049,32.344C263.049,31.802 262.609,31.362 262.066,31.362L251.206,31.362C250.664,31.362 250.223,31.802 250.223,32.344L250.223,34.31C250.223,34.852 250.664,35.292 251.206,35.292L262.066,35.292C262.609,35.292 263.049,34.852 263.049,34.31L263.049,32.344Z" style="fill:#464646;"/>
                </g>
                <g transform="matrix(0.416476,0,0,0.22695,149.583,25.4347)">
                    <path d="M263.049,32.344C263.049,31.802 262.809,31.362 262.514,31.362L250.759,31.362C250.463,31.362 250.223,31.802 250.223,32.344L250.223,34.31C250.223,34.852 250.463,35.292 250.759,35.292L262.514,35.292C262.809,35.292 263.049,34.852 263.049,34.31L263.049,32.344Z" style="fill:#6c6c6c;"/>
                </g>
            </g>
            <g>
                <path d="M260.512,26.718C260.512,26.095 260.006,25.588 259.382,25.588L253.568,25.588C252.944,25.588 252.438,26.095 252.438,26.718L252.438,33.56C252.438,34.184 252.944,34.69 253.568,34.69L259.382,34.69C260.006,34.69 260.512,34.184 260.512,33.56L260.512,26.718ZM259.32,32.691C259.32,32.525 259.185,32.39 259.019,32.39L253.931,32.39C253.765,32.39 253.63,32.525 253.63,32.691L253.63,33.293C253.63,33.46 253.765,33.594 253.931,33.594L259.019,33.594C259.185,33.594 259.32,33.46 259.32,33.293L259.32,32.691Z" style="fill:#9c9c9c;"/>
                <g transform="matrix(1,0,0,1,-0.0769802,-0.00888049)">
                    <path d="M263.126,25.936C263.126,25.488 262.762,25.124 262.314,25.124L261.496,25.124C261.048,25.124 260.684,25.488 260.684,25.936C260.684,26.385 261.048,26.749 261.496,26.749L262.314,26.749C262.762,26.749 263.126,26.385 263.126,25.936ZM252.438,25.936C252.438,25.488 252.074,25.124 251.626,25.124L250.808,25.124C250.359,25.124 249.996,25.488 249.996,25.936C249.996,26.385 250.359,26.749 250.808,26.749L251.626,26.749C252.074,26.749 252.438,26.385 252.438,25.936Z" style="fill:#9c9c9c;"/>
                </g>
                <path d="M262.403,25.578C262.595,25.578 262.752,25.735 262.752,25.927C262.752,26.12 262.595,26.277 262.403,26.277C262.21,26.277 262.053,26.12 262.053,25.927C262.053,25.735 262.21,25.578 262.403,25.578ZM250.573,25.578C250.766,25.578 250.922,25.735 250.922,25.927C250.922,26.12 250.766,26.277 250.573,26.277C250.38,26.277 250.223,26.12 250.223,25.927C250.223,25.735 250.38,25.578 250.573,25.578Z" style="fill:#464646;"/>
                <g transform="matrix(0.953642,0,0,1,11.9568,-0.60457)">
                    <path d="M260.97,27.937C260.97,27.746 260.807,27.591 260.607,27.591L252.181,27.591C251.98,27.591 251.817,27.746 251.817,27.937C251.817,28.129 251.98,28.284 252.181,28.284L260.607,28.284C260.807,28.284 260.97,28.129 260.97,27.937Z" style="fill:#6c6c6c;"/>
                </g>
                <g transform="matrix(1,0,0,1,-0.0280644,0)">
                    <path d="M254.696,26.986L254.333,26.986L254.333,27.68L254.696,27.68L254.696,26.986ZM253.315,26.986L252.952,26.986L252.952,27.68L253.315,27.68L253.315,26.986ZM260.034,26.986L259.671,26.986L259.671,27.68L260.034,27.68L260.034,26.986ZM258.653,26.986L258.29,26.986L258.29,27.68L258.653,27.68L258.653,26.986Z" style="fill:#3e3e3e;"/>
                </g>
                <path d="M261.885,25.398C261.885,25.106 261.648,24.869 261.356,24.869L251.594,24.869C251.302,24.869 251.065,25.106 251.065,25.398L251.065,26.457C251.065,26.749 251.302,26.986 251.594,26.986L261.356,26.986C261.648,26.986 261.885,26.749 261.885,26.457L261.885,25.398Z" style="fill:#828282;"/>
            </g>
        </g>
        <g>
            <path d="M204.892,8.75L3.713,8.75C1.664,8.75 -0,10.414 -0,12.463L-0,60.162C-0,62.211 1.664,63.875 3.713,63.875L204.892,63.875L204.892,8.75Z" style="fill:#3d3e44;"/>
            <g transform="matrix(1,0,0,1,0,0.352831)">
                <path d="M56.841,52.242C57.82,52.242 58.614,53.037 58.614,54.015C58.614,54.994 57.82,55.788 56.841,55.788C55.863,55.788 55.069,54.994 55.069,54.015C55.069,53.037 55.863,52.242 56.841,52.242ZM103.805,52.242C104.783,52.242 105.578,53.037 105.578,54.015C105.578,54.994 104.783,55.788 103.805,55.788C102.826,55.788 102.032,54.994 102.032,54.015C102.032,53.037 102.826,52.242 103.805,52.242ZM92.094,52.242C93.072,52.242 93.866,53.037 93.866,54.015C93.866,54.994 93.072,55.788 92.094,55.788C91.115,55.788 90.321,54.994 90.321,54.015C90.321,53.037 91.115,52.242 92.094,52.242ZM80.485,52.242C81.463,52.242 82.258,53.037 82.258,54.015C82.258,54.994 81.463,55.788 80.485,55.788C79.507,55.788 78.712,54.994 78.712,54.015C78.712,53.037 79.507,52.242 80.485,52.242ZM86.307,52.242C87.286,52.242 88.08,53.037 88.08,54.015C88.08,54.994 87.286,55.788 86.307,55.788C85.329,55.788 84.535,54.994 84.535,54.015C84.535,53.037 85.329,52.242 86.307,52.242ZM74.596,52.242C75.574,52.242 76.369,53.037 76.369,54.015C76.369,54.994 75.574,55.788 74.596,55.788C73.618,55.788 72.823,54.994 72.823,54.015C72.823,53.037 73.618,52.242 74.596,52.242ZM62.73,52.242C63.709,52.242 64.503,53.037 64.503,54.015C64.503,54.994 63.709,55.788 62.73,55.788C61.752,55.788 60.958,54.994 60.958,54.015C60.958,53.037 61.752,52.242 62.73,52.242ZM68.553,52.242C69.531,52.242 70.326,53.037 70.326,54.015C70.326,54.994 69.531,55.788 68.553,55.788C67.574,55.788 66.78,54.994 66.78,54.015C66.78,53.037 67.574,52.242 68.553,52.242ZM4.29,52.242C5.269,52.242 6.063,53.037 6.063,54.015C6.063,54.994 5.269,55.788 4.29,55.788C3.312,55.788 2.517,54.994 2.517,54.015C2.517,53.037 3.312,52.242 4.29,52.242ZM45.233,52.242C46.211,52.242 47.006,53.037 47.006,54.015C47.006,54.994 46.211,55.788 45.233,55.788C44.254,55.788 43.46,54.994 43.46,54.015C43.46,53.037 44.254,52.242 45.233,52.242ZM51.055,52.242C52.034,52.242 52.828,53.037 52.828,54.015C52.828,54.994 52.034,55.788 51.055,55.788C50.077,55.788 49.282,54.994 49.282,54.015C49.282,53.037 50.077,52.242 51.055,52.242ZM39.344,52.242C40.322,52.242 41.117,53.037 41.117,54.015C41.117,54.994 40.322,55.788 39.344,55.788C38.365,55.788 37.571,54.994 37.571,54.015C37.571,53.037 38.365,52.242 39.344,52.242ZM27.677,52.242C28.655,52.242 29.449,53.037 29.449,54.015C29.449,54.994 28.655,55.788 27.677,55.788C26.698,55.788 25.904,54.994 25.904,54.015C25.904,53.037 26.698,52.242 27.677,52.242ZM21.788,52.242C22.766,52.242 23.56,53.037 23.56,54.015C23.56,54.994 22.766,55.788 21.788,55.788C20.809,55.788 20.015,54.994 20.015,54.015C20.015,53.037 20.809,52.242 21.788,52.242ZM10.179,52.242C11.158,52.242 11.952,53.037 11.952,54.015C11.952,54.994 11.158,55.788 10.179,55.788C9.201,55.788 8.406,54.994 8.406,54.015C8.406,53.037 9.201,52.242 10.179,52.242ZM16.002,52.242C16.98,52.242 17.774,53.037 17.774,54.015C17.774,54.994 16.98,55.788 16.002,55.788C15.023,55.788 14.229,54.994 14.229,54.015C14.229,53.037 15.023,52.242 16.002,52.242ZM144.769,52.242C145.747,52.242 146.542,53.037 146.542,54.015C146.542,54.994 145.747,55.788 144.769,55.788C143.79,55.788 142.996,54.994 142.996,54.015C142.996,53.037 143.79,52.242 144.769,52.242ZM33.499,52.242C34.478,52.242 35.272,53.037 35.272,54.015C35.272,54.994 34.478,55.788 33.499,55.788C32.521,55.788 31.726,54.994 31.726,54.015C31.726,53.037 32.521,52.242 33.499,52.242ZM97.983,52.242C98.961,52.242 99.755,53.037 99.755,54.015C99.755,54.994 98.961,55.788 97.983,55.788C97.004,55.788 96.21,54.994 96.21,54.015C96.21,53.037 97.004,52.242 97.983,52.242ZM109.65,52.242C110.628,52.242 111.422,53.037 111.422,54.015C111.422,54.994 110.628,55.788 109.65,55.788C108.671,55.788 107.877,54.994 107.877,54.015C107.877,53.037 108.671,52.242 109.65,52.242ZM121.361,52.242C122.34,52.242 123.134,53.037 123.134,54.015C123.134,54.994 122.34,55.788 121.361,55.788C120.383,55.788 119.588,54.994 119.588,54.015C119.588,53.037 120.383,52.242 121.361,52.242ZM115.539,52.242C116.517,52.242 117.311,53.037 117.311,54.015C117.311,54.994 116.517,55.788 115.539,55.788C114.56,55.788 113.766,54.994 113.766,54.015C113.766,53.037 114.56,52.242 115.539,52.242ZM127.147,52.242C128.126,52.242 128.92,53.037 128.92,54.015C128.92,54.994 128.126,55.788 127.147,55.788C126.169,55.788 125.374,54.994 125.374,54.015C125.374,53.037 126.169,52.242 127.147,52.242ZM138.859,52.242C139.837,52.242 140.631,53.037 140.631,54.015C140.631,54.994 139.837,55.788 138.859,55.788C137.88,55.788 137.086,54.994 137.086,54.015C137.086,53.037 137.88,52.242 138.859,52.242ZM133.036,52.242C134.015,52.242 134.809,53.037 134.809,54.015C134.809,54.994 134.015,55.788 133.036,55.788C132.058,55.788 131.263,54.994 131.263,54.015C131.263,53.037 132.058,52.242 133.036,52.242ZM156.48,52.242C157.459,52.242 158.253,53.037 158.253,54.015C158.253,54.994 157.459,55.788 156.48,55.788C155.502,55.788 154.707,54.994 154.707,54.015C154.707,53.037 155.502,52.242 156.48,52.242ZM150.658,52.242C151.636,52.242 152.431,53.037 152.431,54.015C152.431,54.994 151.636,55.788 150.658,55.788C149.679,55.788 148.885,54.994 148.885,54.015C148.885,53.037 149.679,52.242 150.658,52.242ZM162.266,52.242C163.245,52.242 164.039,53.037 164.039,54.015C164.039,54.994 163.245,55.788 162.266,55.788C161.288,55.788 160.494,54.994 160.494,54.015C160.494,53.037 161.288,52.242 162.266,52.242ZM173.978,52.242C174.956,52.242 175.751,53.037 175.751,54.015C175.751,54.994 174.956,55.788 173.978,55.788C172.999,55.788 172.205,54.994 172.205,54.015C172.205,53.037 172.999,52.242 173.978,52.242ZM197.32,52.242C198.299,52.242 199.093,53.037 199.093,54.015C199.093,54.994 198.299,55.788 197.32,55.788C196.342,55.788 195.547,54.994 195.547,54.015C195.547,53.037 196.342,52.242 197.32,52.242ZM168.155,52.242C169.134,52.242 169.928,53.037 169.928,54.015C169.928,54.994 169.134,55.788 168.155,55.788C167.177,55.788 166.383,54.994 166.383,54.015C166.383,53.037 167.177,52.242 168.155,52.242ZM179.823,52.242C180.801,52.242 181.595,53.037 181.595,54.015C181.595,54.994 180.801,55.788 179.823,55.788C178.844,55.788 178.05,54.994 178.05,54.015C178.05,53.037 178.844,52.242 179.823,52.242ZM191.534,52.242C192.512,52.242 193.307,53.037 193.307,54.015C193.307,54.994 192.512,55.788 191.534,55.788C190.556,55.788 189.761,54.994 189.761,54.015C189.761,53.037 190.556,52.242 191.534,52.242ZM185.712,52.242C186.69,52.242 187.484,53.037 187.484,54.015C187.484,54.994 186.69,55.788 185.712,55.788C184.733,55.788 183.939,54.994 183.939,54.015C183.939,53.037 184.733,52.242 185.712,52.242ZM16.002,44.932C16.98,44.932 17.774,45.726 17.774,46.705C17.774,47.683 16.98,48.477 16.002,48.477C15.023,48.477 14.229,47.683 14.229,46.705C14.229,45.726 15.023,44.932 16.002,44.932ZM97.983,44.932C98.961,44.932 99.755,45.726 99.755,46.705C99.755,47.683 98.961,48.477 97.983,48.477C97.004,48.477 96.21,47.683 96.21,46.705C96.21,45.726 97.004,44.932 97.983,44.932ZM109.65,44.932C110.628,44.932 111.422,45.726 111.422,46.705C111.422,47.683 110.628,48.477 109.65,48.477C108.671,48.477 107.877,47.683 107.877,46.705C107.877,45.726 108.671,44.932 109.65,44.932ZM103.805,44.932C104.783,44.932 105.578,45.726 105.578,46.705C105.578,47.683 104.783,48.477 103.805,48.477C102.826,48.477 102.032,47.683 102.032,46.705C102.032,45.726 102.826,44.932 103.805,44.932ZM92.094,44.932C93.072,44.932 93.866,45.726 93.866,46.705C93.866,47.683 93.072,48.477 92.094,48.477C91.115,48.477 90.321,47.683 90.321,46.705C90.321,45.726 91.115,44.932 92.094,44.932ZM80.485,44.932C81.463,44.932 82.258,45.726 82.258,46.705C82.258,47.683 81.463,48.477 80.485,48.477C79.507,48.477 78.712,47.683 78.712,46.705C78.712,45.726 79.507,44.932 80.485,44.932ZM86.307,44.932C87.286,44.932 88.08,45.726 88.08,46.705C88.08,47.683 87.286,48.477 86.307,48.477C85.329,48.477 84.535,47.683 84.535,46.705C84.535,45.726 85.329,44.932 86.307,44.932ZM74.596,44.932C75.574,44.932 76.369,45.726 76.369,46.705C76.369,47.683 75.574,48.477 74.596,48.477C73.618,48.477 72.823,47.683 72.823,46.705C72.823,45.726 73.618,44.932 74.596,44.932ZM62.73,44.932C63.709,44.932 64.503,45.726 64.503,46.705C64.503,47.683 63.709,48.477 62.73,48.477C61.752,48.477 60.958,47.683 60.958,46.705C60.958,45.726 61.752,44.932 62.73,44.932ZM68.553,44.932C69.531,44.932 70.326,45.726 70.326,46.705C70.326,47.683 69.531,48.477 68.553,48.477C67.574,48.477 66.78,47.683 66.78,46.705C66.78,45.726 67.574,44.932 68.553,44.932ZM56.841,44.932C57.82,44.932 58.614,45.726 58.614,46.705C58.614,47.683 57.82,48.477 56.841,48.477C55.863,48.477 55.069,47.683 55.069,46.705C55.069,45.726 55.863,44.932 56.841,44.932ZM45.233,44.932C46.211,44.932 47.006,45.726 47.006,46.705C47.006,47.683 46.211,48.477 45.233,48.477C44.254,48.477 43.46,47.683 43.46,46.705C43.46,45.726 44.254,44.932 45.233,44.932ZM51.055,44.932C52.034,44.932 52.828,45.726 52.828,46.705C52.828,47.683 52.034,48.477 51.055,48.477C50.077,48.477 49.282,47.683 49.282,46.705C49.282,45.726 50.077,44.932 51.055,44.932ZM39.344,44.932C40.322,44.932 41.117,45.726 41.117,46.705C41.117,47.683 40.322,48.477 39.344,48.477C38.365,48.477 37.571,47.683 37.571,46.705C37.571,45.726 38.365,44.932 39.344,44.932ZM27.677,44.932C28.655,44.932 29.449,45.726 29.449,46.705C29.449,47.683 28.655,48.477 27.677,48.477C26.698,48.477 25.904,47.683 25.904,46.705C25.904,45.726 26.698,44.932 27.677,44.932ZM33.499,44.932C34.478,44.932 35.272,45.726 35.272,46.705C35.272,47.683 34.478,48.477 33.499,48.477C32.521,48.477 31.726,47.683 31.726,46.705C31.726,45.726 32.521,44.932 33.499,44.932ZM21.788,44.932C22.766,44.932 23.56,45.726 23.56,46.705C23.56,47.683 22.766,48.477 21.788,48.477C20.809,48.477 20.015,47.683 20.015,46.705C20.015,45.726 20.809,44.932 21.788,44.932ZM4.29,44.932C5.269,44.932 6.063,45.726 6.063,46.705C6.063,47.683 5.269,48.477 4.29,48.477C3.312,48.477 2.517,47.683 2.517,46.705C2.517,45.726 3.312,44.932 4.29,44.932ZM121.361,44.932C122.34,44.932 123.134,45.726 123.134,46.705C123.134,47.683 122.34,48.477 121.361,48.477C120.383,48.477 119.588,47.683 119.588,46.705C119.588,45.726 120.383,44.932 121.361,44.932ZM115.539,44.932C116.517,44.932 117.311,45.726 117.311,46.705C117.311,47.683 116.517,48.477 115.539,48.477C114.56,48.477 113.766,47.683 113.766,46.705C113.766,45.726 114.56,44.932 115.539,44.932ZM127.147,44.932C128.126,44.932 128.92,45.726 128.92,46.705C128.92,47.683 128.126,48.477 127.147,48.477C126.169,48.477 125.374,47.683 125.374,46.705C125.374,45.726 126.169,44.932 127.147,44.932ZM138.859,44.932C139.837,44.932 140.631,45.726 140.631,46.705C140.631,47.683 139.837,48.477 138.859,48.477C137.88,48.477 137.086,47.683 137.086,46.705C137.086,45.726 137.88,44.932 138.859,44.932ZM133.036,44.932C134.015,44.932 134.809,45.726 134.809,46.705C134.809,47.683 134.015,48.477 133.036,48.477C132.058,48.477 131.263,47.683 131.263,46.705C131.263,45.726 132.058,44.932 133.036,44.932ZM144.769,44.932C145.747,44.932 146.542,45.726 146.542,46.705C146.542,47.683 145.747,48.477 144.769,48.477C143.79,48.477 142.996,47.683 142.996,46.705C142.996,45.726 143.79,44.932 144.769,44.932ZM156.48,44.932C157.459,44.932 158.253,45.726 158.253,46.705C158.253,47.683 157.459,48.477 156.48,48.477C155.502,48.477 154.707,47.683 154.707,46.705C154.707,45.726 155.502,44.932 156.48,44.932ZM10.179,44.932C11.158,44.932 11.952,45.726 11.952,46.705C11.952,47.683 11.158,48.477 10.179,48.477C9.201,48.477 8.406,47.683 8.406,46.705C8.406,45.726 9.201,44.932 10.179,44.932ZM150.658,44.932C151.636,44.932 152.431,45.726 152.431,46.705C152.431,47.683 151.636,48.477 150.658,48.477C149.679,48.477 148.885,47.683 148.885,46.705C148.885,45.726 149.679,44.932 150.658,44.932ZM162.266,44.932C163.245,44.932 164.039,45.726 164.039,46.705C164.039,47.683 163.245,48.477 162.266,48.477C161.288,48.477 160.494,47.683 160.494,46.705C160.494,45.726 161.288,44.932 162.266,44.932ZM173.978,44.932C174.956,44.932 175.751,45.726 175.751,46.705C175.751,47.683 174.956,48.477 173.978,48.477C172.999,48.477 172.205,47.683 172.205,46.705C172.205,45.726 172.999,44.932 173.978,44.932ZM168.155,44.932C169.134,44.932 169.928,45.726 169.928,46.705C169.928,47.683 169.134,48.477 168.155,48.477C167.177,48.477 166.383,47.683 166.383,46.705C166.383,45.726 167.177,44.932 168.155,44.932ZM179.823,44.932C180.801,44.932 181.595,45.726 181.595,46.705C181.595,47.683 180.801,48.477 179.823,48.477C178.844,48.477 178.05,47.683 178.05,46.705C178.05,45.726 178.844,44.932 179.823,44.932ZM191.534,44.932C192.512,44.932 193.307,45.726 193.307,46.705C193.307,47.683 192.512,48.477 191.534,48.477C190.556,48.477 189.761,47.683 189.761,46.705C189.761,45.726 190.556,44.932 191.534,44.932ZM185.712,44.932C186.69,44.932 187.484,45.726 187.484,46.705C187.484,47.683 186.69,48.477 185.712,48.477C184.733,48.477 183.939,47.683 183.939,46.705C183.939,45.726 184.733,44.932 185.712,44.932ZM197.32,44.932C198.299,44.932 199.093,45.726 199.093,46.705C199.093,47.683 198.299,48.477 197.32,48.477C196.342,48.477 195.547,47.683 195.547,46.705C195.547,45.726 196.342,44.932 197.32,44.932ZM4.29,37.992C5.269,37.992 6.063,38.786 6.063,39.765C6.063,40.743 5.269,41.537 4.29,41.537C3.312,41.537 2.517,40.743 2.517,39.765C2.517,38.786 3.312,37.992 4.29,37.992ZM97.983,37.992C98.961,37.992 99.755,38.786 99.755,39.765C99.755,40.743 98.961,41.537 97.983,41.537C97.004,41.537 96.21,40.743 96.21,39.765C96.21,38.786 97.004,37.992 97.983,37.992ZM144.769,37.992C145.747,37.992 146.542,38.786 146.542,39.765C146.542,40.743 145.747,41.537 144.769,41.537C143.79,41.537 142.996,40.743 142.996,39.765C142.996,38.786 143.79,37.992 144.769,37.992ZM16.002,37.992C16.98,37.992 17.774,38.786 17.774,39.765C17.774,40.743 16.98,41.537 16.002,41.537C15.023,41.537 14.229,40.743 14.229,39.765C14.229,38.786 15.023,37.992 16.002,37.992ZM10.179,37.992C11.158,37.992 11.952,38.786 11.952,39.765C11.952,40.743 11.158,41.537 10.179,41.537C9.201,41.537 8.406,40.743 8.406,39.765C8.406,38.786 9.201,37.992 10.179,37.992ZM21.788,37.992C22.766,37.992 23.56,38.786 23.56,39.765C23.56,40.743 22.766,41.537 21.788,41.537C20.809,41.537 20.015,40.743 20.015,39.765C20.015,38.786 20.809,37.992 21.788,37.992ZM33.499,37.992C34.478,37.992 35.272,38.786 35.272,39.765C35.272,40.743 34.478,41.537 33.499,41.537C32.521,41.537 31.726,40.743 31.726,39.765C31.726,38.786 32.521,37.992 33.499,37.992ZM27.677,37.992C28.655,37.992 29.449,38.786 29.449,39.765C29.449,40.743 28.655,41.537 27.677,41.537C26.698,41.537 25.904,40.743 25.904,39.765C25.904,38.786 26.698,37.992 27.677,37.992ZM39.344,37.992C40.322,37.992 41.117,38.786 41.117,39.765C41.117,40.743 40.322,41.537 39.344,41.537C38.365,41.537 37.571,40.743 37.571,39.765C37.571,38.786 38.365,37.992 39.344,37.992ZM51.055,37.992C52.034,37.992 52.828,38.786 52.828,39.765C52.828,40.743 52.034,41.537 51.055,41.537C50.077,41.537 49.282,40.743 49.282,39.765C49.282,38.786 50.077,37.992 51.055,37.992ZM45.233,37.992C46.211,37.992 47.006,38.786 47.006,39.765C47.006,40.743 46.211,41.537 45.233,41.537C44.254,41.537 43.46,40.743 43.46,39.765C43.46,38.786 44.254,37.992 45.233,37.992ZM56.841,37.992C57.82,37.992 58.614,38.786 58.614,39.765C58.614,40.743 57.82,41.537 56.841,41.537C55.863,41.537 55.069,40.743 55.069,39.765C55.069,38.786 55.863,37.992 56.841,37.992ZM68.553,37.992C69.531,37.992 70.326,38.786 70.326,39.765C70.326,40.743 69.531,41.537 68.553,41.537C67.574,41.537 66.78,40.743 66.78,39.765C66.78,38.786 67.574,37.992 68.553,37.992ZM62.73,37.992C63.709,37.992 64.503,38.786 64.503,39.765C64.503,40.743 63.709,41.537 62.73,41.537C61.752,41.537 60.958,40.743 60.958,39.765C60.958,38.786 61.752,37.992 62.73,37.992ZM74.596,37.992C75.574,37.992 76.369,38.786 76.369,39.765C76.369,40.743 75.574,41.537 74.596,41.537C73.618,41.537 72.823,40.743 72.823,39.765C72.823,38.786 73.618,37.992 74.596,37.992ZM86.307,37.992C87.286,37.992 88.08,38.786 88.08,39.765C88.08,40.743 87.286,41.537 86.307,41.537C85.329,41.537 84.535,40.743 84.535,39.765C84.535,38.786 85.329,37.992 86.307,37.992ZM80.485,37.992C81.463,37.992 82.258,38.786 82.258,39.765C82.258,40.743 81.463,41.537 80.485,41.537C79.507,41.537 78.712,40.743 78.712,39.765C78.712,38.786 79.507,37.992 80.485,37.992ZM92.094,37.992C93.072,37.992 93.866,38.786 93.866,39.765C93.866,40.743 93.072,41.537 92.094,41.537C91.115,41.537 90.321,40.743 90.321,39.765C90.321,38.786 91.115,37.992 92.094,37.992ZM103.805,37.992C104.783,37.992 105.578,38.786 105.578,39.765C105.578,40.743 104.783,41.537 103.805,41.537C102.826,41.537 102.032,40.743 102.032,39.765C102.032,38.786 102.826,37.992 103.805,37.992ZM109.65,37.992C110.628,37.992 111.422,38.786 111.422,39.765C111.422,40.743 110.628,41.537 109.65,41.537C108.671,41.537 107.877,40.743 107.877,39.765C107.877,38.786 108.671,37.992 109.65,37.992ZM121.361,37.992C122.34,37.992 123.134,38.786 123.134,39.765C123.134,40.743 122.34,41.537 121.361,41.537C120.383,41.537 119.588,40.743 119.588,39.765C119.588,38.786 120.383,37.992 121.361,37.992ZM115.539,37.992C116.517,37.992 117.311,38.786 117.311,39.765C117.311,40.743 116.517,41.537 115.539,41.537C114.56,41.537 113.766,40.743 113.766,39.765C113.766,38.786 114.56,37.992 115.539,37.992ZM127.147,37.992C128.126,37.992 128.92,38.786 128.92,39.765C128.92,40.743 128.126,41.537 127.147,41.537C126.169,41.537 125.374,40.743 125.374,39.765C125.374,38.786 126.169,37.992 127.147,37.992ZM138.859,37.992C139.837,37.992 140.631,38.786 140.631,39.765C140.631,40.743 139.837,41.537 138.859,41.537C137.88,41.537 137.086,40.743 137.086,39.765C137.086,38.786 137.88,37.992 138.859,37.992ZM133.036,37.992C134.015,37.992 134.809,38.786 134.809,39.765C134.809,40.743 134.015,41.537 133.036,41.537C132.058,41.537 131.263,40.743 131.263,39.765C131.263,38.786 132.058,37.992 133.036,37.992ZM156.48,37.992C157.459,37.992 158.253,38.786 158.253,39.765C158.253,40.743 157.459,41.537 156.48,41.537C155.502,41.537 154.707,40.743 154.707,39.765C154.707,38.786 155.502,37.992 156.48,37.992ZM150.658,37.992C151.636,37.992 152.431,38.786 152.431,39.765C152.431,40.743 151.636,41.537 150.658,41.537C149.679,41.537 148.885,40.743 148.885,39.765C148.885,38.786 149.679,37.992 150.658,37.992ZM162.266,37.992C163.245,37.992 164.039,38.786 164.039,39.765C164.039,40.743 163.245,41.537 162.266,41.537C161.288,41.537 160.494,40.743 160.494,39.765C160.494,38.786 161.288,37.992 162.266,37.992ZM173.978,37.992C174.956,37.992 175.751,38.786 175.751,39.765C175.751,40.743 174.956,41.537 173.978,41.537C172.999,41.537 172.205,40.743 172.205,39.765C172.205,38.786 172.999,37.992 173.978,37.992ZM168.155,37.992C169.134,37.992 169.928,38.786 169.928,39.765C169.928,40.743 169.134,41.537 168.155,41.537C167.177,41.537 166.383,40.743 166.383,39.765C166.383,38.786 167.177,37.992 168.155,37.992ZM179.823,37.992C180.801,37.992 181.595,38.786 181.595,39.765C181.595,40.743 180.801,41.537 179.823,41.537C178.844,41.537 178.05,40.743 178.05,39.765C178.05,38.786 178.844,37.992 179.823,37.992ZM191.534,37.992C192.512,37.992 193.307,38.786 193.307,39.765C193.307,40.743 192.512,41.537 191.534,41.537C190.556,41.537 189.761,40.743 189.761,39.765C189.761,38.786 190.556,37.992 191.534,37.992ZM185.712,37.992C186.69,37.992 187.484,38.786 187.484,39.765C187.484,40.743 186.69,41.537 185.712,41.537C184.733,41.537 183.939,40.743 183.939,39.765C183.939,38.786 184.733,37.992 185.712,37.992ZM197.32,37.992C198.299,37.992 199.093,38.786 199.093,39.765C199.093,40.743 198.299,41.537 197.32,41.537C196.342,41.537 195.547,40.743 195.547,39.765C195.547,38.786 196.342,37.992 197.32,37.992ZM103.805,31.809C104.783,31.809 105.578,32.603 105.578,33.582C105.578,34.56 104.783,35.354 103.805,35.354C102.826,35.354 102.032,34.56 102.032,33.582C102.032,32.603 102.826,31.809 103.805,31.809ZM92.094,31.809C93.072,31.809 93.866,32.603 93.866,33.582C93.866,34.56 93.072,35.354 92.094,35.354C91.115,35.354 90.321,34.56 90.321,33.582C90.321,32.603 91.115,31.809 92.094,31.809ZM80.485,31.809C81.463,31.809 82.258,32.603 82.258,33.582C82.258,34.56 81.463,35.354 80.485,35.354C79.507,35.354 78.712,34.56 78.712,33.582C78.712,32.603 79.507,31.809 80.485,31.809ZM86.307,31.809C87.286,31.809 88.08,32.603 88.08,33.582C88.08,34.56 87.286,35.354 86.307,35.354C85.329,35.354 84.535,34.56 84.535,33.582C84.535,32.603 85.329,31.809 86.307,31.809ZM74.596,31.809C75.574,31.809 76.369,32.603 76.369,33.582C76.369,34.56 75.574,35.354 74.596,35.354C73.618,35.354 72.823,34.56 72.823,33.582C72.823,32.603 73.618,31.809 74.596,31.809ZM62.73,31.809C63.709,31.809 64.503,32.603 64.503,33.582C64.503,34.56 63.709,35.354 62.73,35.354C61.752,35.354 60.958,34.56 60.958,33.582C60.958,32.603 61.752,31.809 62.73,31.809ZM68.553,31.809C69.531,31.809 70.326,32.603 70.326,33.582C70.326,34.56 69.531,35.354 68.553,35.354C67.574,35.354 66.78,34.56 66.78,33.582C66.78,32.603 67.574,31.809 68.553,31.809ZM97.983,31.809C98.961,31.809 99.755,32.603 99.755,33.582C99.755,34.56 98.961,35.354 97.983,35.354C97.004,35.354 96.21,34.56 96.21,33.582C96.21,32.603 97.004,31.809 97.983,31.809ZM45.233,31.809C46.211,31.809 47.006,32.603 47.006,33.582C47.006,34.56 46.211,35.354 45.233,35.354C44.254,35.354 43.46,34.56 43.46,33.582C43.46,32.603 44.254,31.809 45.233,31.809ZM51.055,31.809C52.034,31.809 52.828,32.603 52.828,33.582C52.828,34.56 52.034,35.354 51.055,35.354C50.077,35.354 49.282,34.56 49.282,33.582C49.282,32.603 50.077,31.809 51.055,31.809ZM39.344,31.809C40.322,31.809 41.117,32.603 41.117,33.582C41.117,34.56 40.322,35.354 39.344,35.354C38.365,35.354 37.571,34.56 37.571,33.582C37.571,32.603 38.365,31.809 39.344,31.809ZM27.677,31.809C28.655,31.809 29.449,32.603 29.449,33.582C29.449,34.56 28.655,35.354 27.677,35.354C26.698,35.354 25.904,34.56 25.904,33.582C25.904,32.603 26.698,31.809 27.677,31.809ZM33.499,31.809C34.478,31.809 35.272,32.603 35.272,33.582C35.272,34.56 34.478,35.354 33.499,35.354C32.521,35.354 31.726,34.56 31.726,33.582C31.726,32.603 32.521,31.809 33.499,31.809ZM21.788,31.809C22.766,31.809 23.56,32.603 23.56,33.582C23.56,34.56 22.766,35.354 21.788,35.354C20.809,35.354 20.015,34.56 20.015,33.582C20.015,32.603 20.809,31.809 21.788,31.809ZM10.179,31.809C11.158,31.809 11.952,32.603 11.952,33.582C11.952,34.56 11.158,35.354 10.179,35.354C9.201,35.354 8.406,34.56 8.406,33.582C8.406,32.603 9.201,31.809 10.179,31.809ZM16.002,31.809C16.98,31.809 17.774,32.603 17.774,33.582C17.774,34.56 16.98,35.354 16.002,35.354C15.023,35.354 14.229,34.56 14.229,33.582C14.229,32.603 15.023,31.809 16.002,31.809ZM4.29,31.809C5.269,31.809 6.063,32.603 6.063,33.582C6.063,34.56 5.269,35.354 4.29,35.354C3.312,35.354 2.517,34.56 2.517,33.582C2.517,32.603 3.312,31.809 4.29,31.809ZM185.712,31.809C186.69,31.809 187.484,32.603 187.484,33.582C187.484,34.56 186.69,35.354 185.712,35.354C184.733,35.354 183.939,34.56 183.939,33.582C183.939,32.603 184.733,31.809 185.712,31.809ZM197.32,31.809C198.299,31.809 199.093,32.603 199.093,33.582C199.093,34.56 198.299,35.354 197.32,35.354C196.342,35.354 195.547,34.56 195.547,33.582C195.547,32.603 196.342,31.809 197.32,31.809ZM109.65,31.809C110.628,31.809 111.422,32.603 111.422,33.582C111.422,34.56 110.628,35.354 109.65,35.354C108.671,35.354 107.877,34.56 107.877,33.582C107.877,32.603 108.671,31.809 109.65,31.809ZM121.361,31.809C122.34,31.809 123.134,32.603 123.134,33.582C123.134,34.56 122.34,35.354 121.361,35.354C120.383,35.354 119.588,34.56 119.588,33.582C119.588,32.603 120.383,31.809 121.361,31.809ZM115.539,31.809C116.517,31.809 117.311,32.603 117.311,33.582C117.311,34.56 116.517,35.354 115.539,35.354C114.56,35.354 113.766,34.56 113.766,33.582C113.766,32.603 114.56,31.809 115.539,31.809ZM127.147,31.809C128.126,31.809 128.92,32.603 128.92,33.582C128.92,34.56 128.126,35.354 127.147,35.354C126.169,35.354 125.374,34.56 125.374,33.582C125.374,32.603 126.169,31.809 127.147,31.809ZM138.859,31.809C139.837,31.809 140.631,32.603 140.631,33.582C140.631,34.56 139.837,35.354 138.859,35.354C137.88,35.354 137.086,34.56 137.086,33.582C137.086,32.603 137.88,31.809 138.859,31.809ZM133.036,31.809C134.015,31.809 134.809,32.603 134.809,33.582C134.809,34.56 134.015,35.354 133.036,35.354C132.058,35.354 131.263,34.56 131.263,33.582C131.263,32.603 132.058,31.809 133.036,31.809ZM144.769,31.809C145.747,31.809 146.542,32.603 146.542,33.582C146.542,34.56 145.747,35.354 144.769,35.354C143.79,35.354 142.996,34.56 142.996,33.582C142.996,32.603 143.79,31.809 144.769,31.809ZM156.48,31.809C157.459,31.809 158.253,32.603 158.253,33.582C158.253,34.56 157.459,35.354 156.48,35.354C155.502,35.354 154.707,34.56 154.707,33.582C154.707,32.603 155.502,31.809 156.48,31.809ZM150.658,31.809C151.636,31.809 152.431,32.603 152.431,33.582C152.431,34.56 151.636,35.354 150.658,35.354C149.679,35.354 148.885,34.56 148.885,33.582C148.885,32.603 149.679,31.809 150.658,31.809ZM162.266,31.809C163.245,31.809 164.039,32.603 164.039,33.582C164.039,34.56 163.245,35.354 162.266,35.354C161.288,35.354 160.494,34.56 160.494,33.582C160.494,32.603 161.288,31.809 162.266,31.809ZM173.978,31.809C174.956,31.809 175.751,32.603 175.751,33.582C175.751,34.56 174.956,35.354 173.978,35.354C172.999,35.354 172.205,34.56 172.205,33.582C172.205,32.603 172.999,31.809 173.978,31.809ZM168.155,31.809C169.134,31.809 169.928,32.603 169.928,33.582C169.928,34.56 169.134,35.354 168.155,35.354C167.177,35.354 166.383,34.56 166.383,33.582C166.383,32.603 167.177,31.809 168.155,31.809ZM179.823,31.809C180.801,31.809 181.595,32.603 181.595,33.582C181.595,34.56 180.801,35.354 179.823,35.354C178.844,35.354 178.05,34.56 178.05,33.582C178.05,32.603 178.844,31.809 179.823,31.809ZM191.534,31.809C192.512,31.809 193.307,32.603 193.307,33.582C193.307,34.56 192.512,35.354 191.534,35.354C190.556,35.354 189.761,34.56 189.761,33.582C189.761,32.603 190.556,31.809 191.534,31.809ZM56.841,31.809C57.82,31.809 58.614,32.603 58.614,33.582C58.614,34.56 57.82,35.354 56.841,35.354C55.863,35.354 55.069,34.56 55.069,33.582C55.069,32.603 55.863,31.809 56.841,31.809ZM97.983,24.869C98.961,24.869 99.755,25.663 99.755,26.642C99.755,27.62 98.961,28.414 97.983,28.414C97.004,28.414 96.21,27.62 96.21,26.642C96.21,25.663 97.004,24.869 97.983,24.869ZM109.65,24.869C110.628,24.869 111.422,25.663 111.422,26.642C111.422,27.62 110.628,28.414 109.65,28.414C108.671,28.414 107.877,27.62 107.877,26.642C107.877,25.663 108.671,24.869 109.65,24.869ZM121.361,24.869C122.34,24.869 123.134,25.663 123.134,26.642C123.134,27.62 122.34,28.414 121.361,28.414C120.383,28.414 119.588,27.62 119.588,26.642C119.588,25.663 120.383,24.869 121.361,24.869ZM115.539,24.869C116.517,24.869 117.311,25.663 117.311,26.642C117.311,27.62 116.517,28.414 115.539,28.414C114.56,28.414 113.766,27.62 113.766,26.642C113.766,25.663 114.56,24.869 115.539,24.869ZM127.147,24.869C128.126,24.869 128.92,25.663 128.92,26.642C128.92,27.62 128.126,28.414 127.147,28.414C126.169,28.414 125.374,27.62 125.374,26.642C125.374,25.663 126.169,24.869 127.147,24.869ZM138.859,24.869C139.837,24.869 140.631,25.663 140.631,26.642C140.631,27.62 139.837,28.414 138.859,28.414C137.88,28.414 137.086,27.62 137.086,26.642C137.086,25.663 137.88,24.869 138.859,24.869ZM133.036,24.869C134.015,24.869 134.809,25.663 134.809,26.642C134.809,27.62 134.015,28.414 133.036,28.414C132.058,28.414 131.263,27.62 131.263,26.642C131.263,25.663 132.058,24.869 133.036,24.869ZM144.769,24.869C145.747,24.869 146.542,25.663 146.542,26.642C146.542,27.62 145.747,28.414 144.769,28.414C143.79,28.414 142.996,27.62 142.996,26.642C142.996,25.663 143.79,24.869 144.769,24.869ZM156.48,24.869C157.459,24.869 158.253,25.663 158.253,26.642C158.253,27.62 157.459,28.414 156.48,28.414C155.502,28.414 154.707,27.62 154.707,26.642C154.707,25.663 155.502,24.869 156.48,24.869ZM150.658,24.869C151.636,24.869 152.431,25.663 152.431,26.642C152.431,27.62 151.636,28.414 150.658,28.414C149.679,28.414 148.885,27.62 148.885,26.642C148.885,25.663 149.679,24.869 150.658,24.869ZM162.266,24.869C163.245,24.869 164.039,25.663 164.039,26.642C164.039,27.62 163.245,28.414 162.266,28.414C161.288,28.414 160.494,27.62 160.494,26.642C160.494,25.663 161.288,24.869 162.266,24.869ZM173.978,24.869C174.956,24.869 175.751,25.663 175.751,26.642C175.751,27.62 174.956,28.414 173.978,28.414C172.999,28.414 172.205,27.62 172.205,26.642C172.205,25.663 172.999,24.869 173.978,24.869ZM168.155,24.869C169.134,24.869 169.928,25.663 169.928,26.642C169.928,27.62 169.134,28.414 168.155,28.414C167.177,28.414 166.383,27.62 166.383,26.642C166.383,25.663 167.177,24.869 168.155,24.869ZM179.823,24.869C180.801,24.869 181.595,25.663 181.595,26.642C181.595,27.62 180.801,28.414 179.823,28.414C178.844,28.414 178.05,27.62 178.05,26.642C178.05,25.663 178.844,24.869 179.823,24.869ZM191.534,24.869C192.512,24.869 193.307,25.663 193.307,26.642C193.307,27.62 192.512,28.414 191.534,28.414C190.556,28.414 189.761,27.62 189.761,26.642C189.761,25.663 190.556,24.869 191.534,24.869ZM185.712,24.869C186.69,24.869 187.484,25.663 187.484,26.642C187.484,27.62 186.69,28.414 185.712,28.414C184.733,28.414 183.939,27.62 183.939,26.642C183.939,25.663 184.733,24.869 185.712,24.869ZM197.32,24.869C198.299,24.869 199.093,25.663 199.093,26.642C199.093,27.62 198.299,28.414 197.32,28.414C196.342,28.414 195.547,27.62 195.547,26.642C195.547,25.663 196.342,24.869 197.32,24.869ZM74.596,24.869C75.574,24.869 76.369,25.663 76.369,26.642C76.369,27.62 75.574,28.414 74.596,28.414C73.618,28.414 72.823,27.62 72.823,26.642C72.823,25.663 73.618,24.869 74.596,24.869ZM4.29,24.869C5.269,24.869 6.063,25.663 6.063,26.642C6.063,27.62 5.269,28.414 4.29,28.414C3.312,28.414 2.517,27.62 2.517,26.642C2.517,25.663 3.312,24.869 4.29,24.869ZM16.002,24.869C16.98,24.869 17.774,25.663 17.774,26.642C17.774,27.62 16.98,28.414 16.002,28.414C15.023,28.414 14.229,27.62 14.229,26.642C14.229,25.663 15.023,24.869 16.002,24.869ZM10.179,24.869C11.158,24.869 11.952,25.663 11.952,26.642C11.952,27.62 11.158,28.414 10.179,28.414C9.201,28.414 8.406,27.62 8.406,26.642C8.406,25.663 9.201,24.869 10.179,24.869ZM21.788,24.869C22.766,24.869 23.56,25.663 23.56,26.642C23.56,27.62 22.766,28.414 21.788,28.414C20.809,28.414 20.015,27.62 20.015,26.642C20.015,25.663 20.809,24.869 21.788,24.869ZM33.499,24.869C34.478,24.869 35.272,25.663 35.272,26.642C35.272,27.62 34.478,28.414 33.499,28.414C32.521,28.414 31.726,27.62 31.726,26.642C31.726,25.663 32.521,24.869 33.499,24.869ZM27.677,24.869C28.655,24.869 29.449,25.663 29.449,26.642C29.449,27.62 28.655,28.414 27.677,28.414C26.698,28.414 25.904,27.62 25.904,26.642C25.904,25.663 26.698,24.869 27.677,24.869ZM39.344,24.869C40.322,24.869 41.117,25.663 41.117,26.642C41.117,27.62 40.322,28.414 39.344,28.414C38.365,28.414 37.571,27.62 37.571,26.642C37.571,25.663 38.365,24.869 39.344,24.869ZM51.055,24.869C52.034,24.869 52.828,25.663 52.828,26.642C52.828,27.62 52.034,28.414 51.055,28.414C50.077,28.414 49.282,27.62 49.282,26.642C49.282,25.663 50.077,24.869 51.055,24.869ZM45.233,24.869C46.211,24.869 47.006,25.663 47.006,26.642C47.006,27.62 46.211,28.414 45.233,28.414C44.254,28.414 43.46,27.62 43.46,26.642C43.46,25.663 44.254,24.869 45.233,24.869ZM56.841,24.869C57.82,24.869 58.614,25.663 58.614,26.642C58.614,27.62 57.82,28.414 56.841,28.414C55.863,28.414 55.069,27.62 55.069,26.642C55.069,25.663 55.863,24.869 56.841,24.869ZM68.553,24.869C69.531,24.869 70.326,25.663 70.326,26.642C70.326,27.62 69.531,28.414 68.553,28.414C67.574,28.414 66.78,27.62 66.78,26.642C66.78,25.663 67.574,24.869 68.553,24.869ZM62.73,24.869C63.709,24.869 64.503,25.663 64.503,26.642C64.503,27.62 63.709,28.414 62.73,28.414C61.752,28.414 60.958,27.62 60.958,26.642C60.958,25.663 61.752,24.869 62.73,24.869ZM86.307,24.869C87.286,24.869 88.08,25.663 88.08,26.642C88.08,27.62 87.286,28.414 86.307,28.414C85.329,28.414 84.535,27.62 84.535,26.642C84.535,25.663 85.329,24.869 86.307,24.869ZM80.485,24.869C81.463,24.869 82.258,25.663 82.258,26.642C82.258,27.62 81.463,28.414 80.485,28.414C79.507,28.414 78.712,27.62 78.712,26.642C78.712,25.663 79.507,24.869 80.485,24.869ZM92.094,24.869C93.072,24.869 93.866,25.663 93.866,26.642C93.866,27.62 93.072,28.414 92.094,28.414C91.115,28.414 90.321,27.62 90.321,26.642C90.321,25.663 91.115,24.869 92.094,24.869ZM103.805,24.869C104.783,24.869 105.578,25.663 105.578,26.642C105.578,27.62 104.783,28.414 103.805,28.414C102.826,28.414 102.032,27.62 102.032,26.642C102.032,25.663 102.826,24.869 103.805,24.869ZM103.805,18.253C104.783,18.253 105.578,19.048 105.578,20.026C105.578,21.004 104.783,21.799 103.805,21.799C102.826,21.799 102.032,21.004 102.032,20.026C102.032,19.048 102.826,18.253 103.805,18.253ZM92.094,18.253C93.072,18.253 93.866,19.048 93.866,20.026C93.866,21.004 93.072,21.799 92.094,21.799C91.115,21.799 90.321,21.004 90.321,20.026C90.321,19.048 91.115,18.253 92.094,18.253ZM80.485,18.253C81.463,18.253 82.258,19.048 82.258,20.026C82.258,21.004 81.463,21.799 80.485,21.799C79.507,21.799 78.712,21.004 78.712,20.026C78.712,19.048 79.507,18.253 80.485,18.253ZM86.307,18.253C87.286,18.253 88.08,19.048 88.08,20.026C88.08,21.004 87.286,21.799 86.307,21.799C85.329,21.799 84.535,21.004 84.535,20.026C84.535,19.048 85.329,18.253 86.307,18.253ZM74.596,18.253C75.574,18.253 76.369,19.048 76.369,20.026C76.369,21.004 75.574,21.799 74.596,21.799C73.618,21.799 72.823,21.004 72.823,20.026C72.823,19.048 73.618,18.253 74.596,18.253ZM62.73,18.253C63.709,18.253 64.503,19.048 64.503,20.026C64.503,21.004 63.709,21.799 62.73,21.799C61.752,21.799 60.958,21.004 60.958,20.026C60.958,19.048 61.752,18.253 62.73,18.253ZM68.553,18.253C69.531,18.253 70.326,19.048 70.326,20.026C70.326,21.004 69.531,21.799 68.553,21.799C67.574,21.799 66.78,21.004 66.78,20.026C66.78,19.048 67.574,18.253 68.553,18.253ZM56.841,18.253C57.82,18.253 58.614,19.048 58.614,20.026C58.614,21.004 57.82,21.799 56.841,21.799C55.863,21.799 55.069,21.004 55.069,20.026C55.069,19.048 55.863,18.253 56.841,18.253ZM45.233,18.253C46.211,18.253 47.006,19.048 47.006,20.026C47.006,21.004 46.211,21.799 45.233,21.799C44.254,21.799 43.46,21.004 43.46,20.026C43.46,19.048 44.254,18.253 45.233,18.253ZM51.055,18.253C52.034,18.253 52.828,19.048 52.828,20.026C52.828,21.004 52.034,21.799 51.055,21.799C50.077,21.799 49.282,21.004 49.282,20.026C49.282,19.048 50.077,18.253 51.055,18.253ZM39.344,18.253C40.322,18.253 41.117,19.048 41.117,20.026C41.117,21.004 40.322,21.799 39.344,21.799C38.365,21.799 37.571,21.004 37.571,20.026C37.571,19.048 38.365,18.253 39.344,18.253ZM27.677,18.253C28.655,18.253 29.449,19.048 29.449,20.026C29.449,21.004 28.655,21.799 27.677,21.799C26.698,21.799 25.904,21.004 25.904,20.026C25.904,19.048 26.698,18.253 27.677,18.253ZM33.499,18.253C34.478,18.253 35.272,19.048 35.272,20.026C35.272,21.004 34.478,21.799 33.499,21.799C32.521,21.799 31.726,21.004 31.726,20.026C31.726,19.048 32.521,18.253 33.499,18.253ZM21.788,18.253C22.766,18.253 23.56,19.048 23.56,20.026C23.56,21.004 22.766,21.799 21.788,21.799C20.809,21.799 20.015,21.004 20.015,20.026C20.015,19.048 20.809,18.253 21.788,18.253ZM10.179,18.253C11.158,18.253 11.952,19.048 11.952,20.026C11.952,21.004 11.158,21.799 10.179,21.799C9.201,21.799 8.406,21.004 8.406,20.026C8.406,19.048 9.201,18.253 10.179,18.253ZM16.002,18.253C16.98,18.253 17.774,19.048 17.774,20.026C17.774,21.004 16.98,21.799 16.002,21.799C15.023,21.799 14.229,21.004 14.229,20.026C14.229,19.048 15.023,18.253 16.002,18.253ZM4.29,18.253C5.269,18.253 6.063,19.048 6.063,20.026C6.063,21.004 5.269,21.799 4.29,21.799C3.312,21.799 2.517,21.004 2.517,20.026C2.517,19.048 3.312,18.253 4.29,18.253ZM150.658,18.253C151.636,18.253 152.431,19.048 152.431,20.026C152.431,21.004 151.636,21.799 150.658,21.799C149.679,21.799 148.885,21.004 148.885,20.026C148.885,19.048 149.679,18.253 150.658,18.253ZM109.65,18.253C110.628,18.253 111.422,19.048 111.422,20.026C111.422,21.004 110.628,21.799 109.65,21.799C108.671,21.799 107.877,21.004 107.877,20.026C107.877,19.048 108.671,18.253 109.65,18.253ZM121.361,18.253C122.34,18.253 123.134,19.048 123.134,20.026C123.134,21.004 122.34,21.799 121.361,21.799C120.383,21.799 119.588,21.004 119.588,20.026C119.588,19.048 120.383,18.253 121.361,18.253ZM115.539,18.253C116.517,18.253 117.311,19.048 117.311,20.026C117.311,21.004 116.517,21.799 115.539,21.799C114.56,21.799 113.766,21.004 113.766,20.026C113.766,19.048 114.56,18.253 115.539,18.253ZM127.147,18.253C128.126,18.253 128.92,19.048 128.92,20.026C128.92,21.004 128.126,21.799 127.147,21.799C126.169,21.799 125.374,21.004 125.374,20.026C125.374,19.048 126.169,18.253 127.147,18.253ZM138.859,18.253C139.837,18.253 140.631,19.048 140.631,20.026C140.631,21.004 139.837,21.799 138.859,21.799C137.88,21.799 137.086,21.004 137.086,20.026C137.086,19.048 137.88,18.253 138.859,18.253ZM133.036,18.253C134.015,18.253 134.809,19.048 134.809,20.026C134.809,21.004 134.015,21.799 133.036,21.799C132.058,21.799 131.263,21.004 131.263,20.026C131.263,19.048 132.058,18.253 133.036,18.253ZM144.769,18.253C145.747,18.253 146.542,19.048 146.542,20.026C146.542,21.004 145.747,21.799 144.769,21.799C143.79,21.799 142.996,21.004 142.996,20.026C142.996,19.048 143.79,18.253 144.769,18.253ZM156.48,18.253C157.459,18.253 158.253,19.048 158.253,20.026C158.253,21.004 157.459,21.799 156.48,21.799C155.502,21.799 154.707,21.004 154.707,20.026C154.707,19.048 155.502,18.253 156.48,18.253ZM162.266,18.253C163.245,18.253 164.039,19.048 164.039,20.026C164.039,21.004 163.245,21.799 162.266,21.799C161.288,21.799 160.494,21.004 160.494,20.026C160.494,19.048 161.288,18.253 162.266,18.253ZM173.978,18.253C174.956,18.253 175.751,19.048 175.751,20.026C175.751,21.004 174.956,21.799 173.978,21.799C172.999,21.799 172.205,21.004 172.205,20.026C172.205,19.048 172.999,18.253 173.978,18.253ZM168.155,18.253C169.134,18.253 169.928,19.048 169.928,20.026C169.928,21.004 169.134,21.799 168.155,21.799C167.177,21.799 166.383,21.004 166.383,20.026C166.383,19.048 167.177,18.253 168.155,18.253ZM97.983,18.253C98.961,18.253 99.755,19.048 99.755,20.026C99.755,21.004 98.961,21.799 97.983,21.799C97.004,21.799 96.21,21.004 96.21,20.026C96.21,19.048 97.004,18.253 97.983,18.253ZM179.823,18.253C180.801,18.253 181.595,19.048 181.595,20.026C181.595,21.004 180.801,21.799 179.823,21.799C178.844,21.799 178.05,21.004 178.05,20.026C178.05,19.048 178.844,18.253 179.823,18.253ZM191.534,18.253C192.512,18.253 193.307,19.048 193.307,20.026C193.307,21.004 192.512,21.799 191.534,21.799C190.556,21.799 189.761,21.004 189.761,20.026C189.761,19.048 190.556,18.253 191.534,18.253ZM185.712,18.253C186.69,18.253 187.484,19.048 187.484,20.026C187.484,21.004 186.69,21.799 185.712,21.799C184.733,21.799 183.939,21.004 183.939,20.026C183.939,19.048 184.733,18.253 185.712,18.253ZM197.32,18.253C198.299,18.253 199.093,19.048 199.093,20.026C199.093,21.004 198.299,21.799 197.32,21.799C196.342,21.799 195.547,21.004 195.547,20.026C195.547,19.048 196.342,18.253 197.32,18.253ZM168.155,11.313C169.134,11.313 169.928,12.108 169.928,13.086C169.928,14.064 169.134,14.859 168.155,14.859C167.177,14.859 166.383,14.064 166.383,13.086C166.383,12.108 167.177,11.313 168.155,11.313ZM197.32,11.313C198.299,11.313 199.093,12.108 199.093,13.086C199.093,14.064 198.299,14.859 197.32,14.859C196.342,14.859 195.547,14.064 195.547,13.086C195.547,12.108 196.342,11.313 197.32,11.313ZM185.712,11.313C186.69,11.313 187.484,12.108 187.484,13.086C187.484,14.064 186.69,14.859 185.712,14.859C184.733,14.859 183.939,14.064 183.939,13.086C183.939,12.108 184.733,11.313 185.712,11.313ZM191.534,11.313C192.512,11.313 193.307,12.108 193.307,13.086C193.307,14.064 192.512,14.859 191.534,14.859C190.556,14.859 189.761,14.064 189.761,13.086C189.761,12.108 190.556,11.313 191.534,11.313ZM179.823,11.313C180.801,11.313 181.595,12.108 181.595,13.086C181.595,14.064 180.801,14.859 179.823,14.859C178.844,14.859 178.05,14.064 178.05,13.086C178.05,12.108 178.844,11.313 179.823,11.313ZM173.978,11.313C174.956,11.313 175.751,12.108 175.751,13.086C175.751,14.064 174.956,14.859 173.978,14.859C172.999,14.859 172.205,14.064 172.205,13.086C172.205,12.108 172.999,11.313 173.978,11.313ZM162.266,11.313C163.245,11.313 164.039,12.108 164.039,13.086C164.039,14.064 163.245,14.859 162.266,14.859C161.288,14.859 160.494,14.064 160.494,13.086C160.494,12.108 161.288,11.313 162.266,11.313ZM150.658,11.313C151.636,11.313 152.431,12.108 152.431,13.086C152.431,14.064 151.636,14.859 150.658,14.859C149.679,14.859 148.885,14.064 148.885,13.086C148.885,12.108 149.679,11.313 150.658,11.313ZM156.48,11.313C157.459,11.313 158.253,12.108 158.253,13.086C158.253,14.064 157.459,14.859 156.48,14.859C155.502,14.859 154.707,14.064 154.707,13.086C154.707,12.108 155.502,11.313 156.48,11.313ZM144.769,11.313C145.747,11.313 146.542,12.108 146.542,13.086C146.542,14.064 145.747,14.859 144.769,14.859C143.79,14.859 142.996,14.064 142.996,13.086C142.996,12.108 143.79,11.313 144.769,11.313ZM133.036,11.313C134.015,11.313 134.809,12.108 134.809,13.086C134.809,14.064 134.015,14.859 133.036,14.859C132.058,14.859 131.263,14.064 131.263,13.086C131.263,12.108 132.058,11.313 133.036,11.313ZM138.859,11.313C139.837,11.313 140.631,12.108 140.631,13.086C140.631,14.064 139.837,14.859 138.859,14.859C137.88,14.859 137.086,14.064 137.086,13.086C137.086,12.108 137.88,11.313 138.859,11.313ZM127.147,11.313C128.126,11.313 128.92,12.108 128.92,13.086C128.92,14.064 128.126,14.859 127.147,14.859C126.169,14.859 125.374,14.064 125.374,13.086C125.374,12.108 126.169,11.313 127.147,11.313ZM115.539,11.313C116.517,11.313 117.311,12.108 117.311,13.086C117.311,14.064 116.517,14.859 115.539,14.859C114.56,14.859 113.766,14.064 113.766,13.086C113.766,12.108 114.56,11.313 115.539,11.313ZM121.361,11.313C122.34,11.313 123.134,12.108 123.134,13.086C123.134,14.064 122.34,14.859 121.361,14.859C120.383,14.859 119.588,14.064 119.588,13.086C119.588,12.108 120.383,11.313 121.361,11.313ZM109.65,11.313C110.628,11.313 111.422,12.108 111.422,13.086C111.422,14.064 110.628,14.859 109.65,14.859C108.671,14.859 107.877,14.064 107.877,13.086C107.877,12.108 108.671,11.313 109.65,11.313ZM97.983,11.313C98.961,11.313 99.755,12.108 99.755,13.086C99.755,14.064 98.961,14.859 97.983,14.859C97.004,14.859 96.21,14.064 96.21,13.086C96.21,12.108 97.004,11.313 97.983,11.313ZM92.094,11.313C93.072,11.313 93.866,12.108 93.866,13.086C93.866,14.064 93.072,14.859 92.094,14.859C91.115,14.859 90.321,14.064 90.321,13.086C90.321,12.108 91.115,11.313 92.094,11.313ZM80.485,11.313C81.463,11.313 82.258,12.108 82.258,13.086C82.258,14.064 81.463,14.859 80.485,14.859C79.507,14.859 78.712,14.064 78.712,13.086C78.712,12.108 79.507,11.313 80.485,11.313ZM86.307,11.313C87.286,11.313 88.08,12.108 88.08,13.086C88.08,14.064 87.286,14.859 86.307,14.859C85.329,14.859 84.535,14.064 84.535,13.086C84.535,12.108 85.329,11.313 86.307,11.313ZM4.29,11.313C5.269,11.313 6.063,12.108 6.063,13.086C6.063,14.064 5.269,14.859 4.29,14.859C3.312,14.859 2.517,14.064 2.517,13.086C2.517,12.108 3.312,11.313 4.29,11.313ZM74.596,11.313C75.574,11.313 76.369,12.108 76.369,13.086C76.369,14.064 75.574,14.859 74.596,14.859C73.618,14.859 72.823,14.064 72.823,13.086C72.823,12.108 73.618,11.313 74.596,11.313ZM62.73,11.313C63.709,11.313 64.503,12.108 64.503,13.086C64.503,14.064 63.709,14.859 62.73,14.859C61.752,14.859 60.958,14.064 60.958,13.086C60.958,12.108 61.752,11.313 62.73,11.313ZM68.553,11.313C69.531,11.313 70.326,12.108 70.326,13.086C70.326,14.064 69.531,14.859 68.553,14.859C67.574,14.859 66.78,14.064 66.78,13.086C66.78,12.108 67.574,11.313 68.553,11.313ZM56.841,11.313C57.82,11.313 58.614,12.108 58.614,13.086C58.614,14.064 57.82,14.859 56.841,14.859C55.863,14.859 55.069,14.064 55.069,13.086C55.069,12.108 55.863,11.313 56.841,11.313ZM103.805,11.313C104.783,11.313 105.578,12.108 105.578,13.086C105.578,14.064 104.783,14.859 103.805,14.859C102.826,14.859 102.032,14.064 102.032,13.086C102.032,12.108 102.826,11.313 103.805,11.313ZM45.233,11.313C46.211,11.313 47.006,12.108 47.006,13.086C47.006,14.064 46.211,14.859 45.233,14.859C44.254,14.859 43.46,14.064 43.46,13.086C43.46,12.108 44.254,11.313 45.233,11.313ZM51.055,11.313C52.034,11.313 52.828,12.108 52.828,13.086C52.828,14.064 52.034,14.859 51.055,14.859C50.077,14.859 49.282,14.064 49.282,13.086C49.282,12.108 50.077,11.313 51.055,11.313ZM39.344,11.313C40.322,11.313 41.117,12.108 41.117,13.086C41.117,14.064 40.322,14.859 39.344,14.859C38.365,14.859 37.571,14.064 37.571,13.086C37.571,12.108 38.365,11.313 39.344,11.313ZM27.677,11.313C28.655,11.313 29.449,12.108 29.449,13.086C29.449,14.064 28.655,14.859 27.677,14.859C26.698,14.859 25.904,14.064 25.904,13.086C25.904,12.108 26.698,11.313 27.677,11.313ZM33.499,11.313C34.478,11.313 35.272,12.108 35.272,13.086C35.272,14.064 34.478,14.859 33.499,14.859C32.521,14.859 31.726,14.064 31.726,13.086C31.726,12.108 32.521,11.313 33.499,11.313ZM21.788,11.313C22.766,11.313 23.56,12.108 23.56,13.086C23.56,14.064 22.766,14.859 21.788,14.859C20.809,14.859 20.015,14.064 20.015,13.086C20.015,12.108 20.809,11.313 21.788,11.313ZM10.179,11.313C11.158,11.313 11.952,12.108 11.952,13.086C11.952,14.064 11.158,14.859 10.179,14.859C9.201,14.859 8.406,14.064 8.406,13.086C8.406,12.108 9.201,11.313 10.179,11.313ZM16.002,11.313C16.98,11.313 17.774,12.108 17.774,13.086C17.774,14.064 16.98,14.859 16.002,14.859C15.023,14.859 14.229,14.064 14.229,13.086C14.229,12.108 15.023,11.313 16.002,11.313Z" style="fill-opacity:0.5;"/>
            </g>
            <g transform="matrix(1,0,0,1.90954,-0.128434,-7.83006)">
                <rect x="202.728" y="8.75" width="4.584" height="26.25" style="fill:#282828;"/>
            </g>
        </g>
        <g transform="matrix(1.04845,0,0,1.04845,-7.71517,0.0461297)">
            <g transform="matrix(0.870814,0,0,0.870814,5.35859,6.75408)">
                <path d="M78.903,41.122C80.14,39.7 81.961,38.8 83.992,38.8C87.712,38.8 90.732,41.821 90.732,45.541C90.732,49.261 87.712,52.282 83.992,52.282C81.961,52.282 80.14,51.382 78.903,49.96L52.464,49.96C51.228,51.382 49.406,52.282 47.376,52.282C44.841,52.282 42.63,50.879 41.48,48.808L47.334,48.808C48.235,48.808 48.967,48.076 48.967,47.175L48.967,43.908C48.967,43.006 48.235,42.274 47.334,42.274L41.48,42.274C42.63,40.203 44.841,38.8 47.376,38.8C49.406,38.8 51.228,39.7 52.464,41.122L78.903,41.122ZM83.992,40.843L88.06,43.192L88.06,47.89L83.992,50.239L79.923,47.89L79.923,43.192L83.992,40.843Z" style="fill:#9a9a9a;"/>
            </g>
            <g transform="matrix(0.870814,0,0,0.870814,5.35859,6.75408)">
                <path d="M78.69,40.643L52.678,40.643C51.359,39.216 49.471,38.322 47.376,38.322C44.661,38.322 42.294,39.824 41.061,42.042C40.979,42.19 40.981,42.371 41.067,42.517C41.153,42.663 41.31,42.753 41.48,42.753L47.334,42.753C47.971,42.753 48.489,43.27 48.489,43.908L48.489,47.175C48.489,47.812 47.971,48.33 47.334,48.33C47.334,48.33 41.48,48.33 41.48,48.33C41.31,48.33 41.153,48.419 41.067,48.565C40.981,48.712 40.979,48.892 41.061,49.04C42.294,51.258 44.661,52.76 47.376,52.76C49.471,52.76 51.359,51.866 52.678,50.438C52.678,50.439 78.69,50.439 78.69,50.439C80.009,51.866 81.897,52.76 83.992,52.76C87.976,52.76 91.211,49.525 91.211,45.541C91.211,41.557 87.976,38.322 83.992,38.322C81.897,38.322 80.009,39.216 78.69,40.643ZM78.903,41.6C79.042,41.6 79.173,41.54 79.264,41.436C80.413,40.115 82.105,39.279 83.992,39.279C87.448,39.279 90.254,42.085 90.254,45.541C90.254,48.997 87.448,51.803 83.992,51.803C82.105,51.803 80.413,50.967 79.264,49.646C79.173,49.542 79.042,49.482 78.903,49.482L52.464,49.482C52.326,49.482 52.194,49.542 52.103,49.646C50.954,50.967 49.262,51.803 47.376,51.803C45.323,51.803 43.5,50.814 42.358,49.286C42.358,49.287 47.334,49.287 47.334,49.287C48.499,49.287 49.446,48.34 49.446,47.175C49.446,47.175 49.446,43.908 49.446,43.908C49.446,42.742 48.499,41.796 47.334,41.796C47.334,41.796 42.358,41.796 42.358,41.796C43.5,40.269 45.323,39.279 47.376,39.279C49.262,39.279 50.954,40.115 52.103,41.436C52.194,41.54 52.326,41.6 52.464,41.6L78.903,41.6ZM84.231,40.429C84.083,40.343 83.9,40.343 83.752,40.429L79.684,42.778C79.536,42.863 79.445,43.021 79.445,43.192L79.445,47.89C79.445,48.061 79.536,48.219 79.684,48.304L83.752,50.653C83.9,50.739 84.083,50.739 84.231,50.653L88.299,48.304C88.447,48.219 88.539,48.061 88.539,47.89L88.539,43.192C88.539,43.021 88.447,42.863 88.299,42.778L84.231,40.429ZM83.992,41.396L87.582,43.468C87.582,43.468 87.582,47.614 87.582,47.614C87.582,47.614 83.992,49.687 83.992,49.687C83.992,49.687 80.402,47.614 80.402,47.614C80.401,47.614 80.401,43.468 80.401,43.468L83.992,41.396Z" style="fill:#7c7c7c;"/>
            </g>
            <g transform="matrix(0.963435,0,0,0.827149,2.26244,8.01895)">
                <path d="M73.476,44.577C73.476,44.224 73.23,43.938 72.927,43.938L51.681,43.938C51.378,43.938 51.132,44.224 51.132,44.577L51.132,48.093C51.132,48.446 51.378,48.733 51.681,48.733L72.927,48.733C73.23,48.733 73.476,48.446 73.476,48.093L73.476,44.577Z" style="fill:#bdbdbd;"/>
            </g>
            <path d="M73.476,45.137C73.476,44.475 72.939,43.938 72.278,43.938L52.33,43.938C51.669,43.938 51.132,44.475 51.132,45.137L51.132,47.534C51.132,48.196 51.669,48.733 52.33,48.733L72.278,48.733C72.939,48.733 73.476,48.196 73.476,47.534L73.476,45.137ZM72.643,45.137L72.643,47.534C72.643,47.736 72.479,47.9 72.278,47.9L52.33,47.9C52.129,47.9 51.965,47.736 51.965,47.534L51.965,45.137C51.965,44.935 52.129,44.771 52.33,44.771C52.33,44.771 72.278,44.771 72.278,44.771C72.479,44.771 72.643,44.935 72.643,45.137Z" style="fill:#7c7c7c;"/>
        </g>
        <g>
            <path d="M129.557,13.753L132.731,14.347L163.223,14.347L163.223,17.106L132.731,17.106L129.557,17.7L126.454,17.7C126.181,17.7 125.959,17.478 125.959,17.205L125.959,14.248C125.959,13.975 126.181,13.753 126.454,13.753L129.557,13.753Z" style="fill:#b6b6b6;"/>
            <path d="M126.34,16.235L126.34,14.667C126.34,14.394 126.562,14.172 126.835,14.172L129.557,14.172L132.731,14.766L163.223,14.766L163.223,16.235L126.34,16.235Z" style="fill:#dcdcdc;"/>
            <g transform="matrix(2.90654,0,0,0.847084,-303.975,1.75104)">
                <rect x="160.74" y="11.666" width="4.619" height="9.665" style="fill:#9e8900;"/>
            </g>
            <g transform="matrix(1,0,0,1,-0.692779,-0.77185)">
                <path d="M165.359,12.821C165.359,12.183 164.842,11.666 164.204,11.666L161.895,11.666C161.258,11.666 160.74,12.183 160.74,12.821L160.74,20.176C160.74,20.814 161.258,21.331 161.895,21.331L164.204,21.331C164.842,21.331 165.359,20.814 165.359,20.176L165.359,12.821Z" style="fill:#ffe329;"/>
            </g>
            <g transform="matrix(0.83226,0,0,0.705137,26.6572,3.05538)">
                <path d="M165.359,13.029C165.359,12.277 164.842,11.666 164.204,11.666L161.895,11.666C161.258,11.666 160.74,12.277 160.74,13.029L160.74,19.968C160.74,20.72 161.258,21.331 161.895,21.331L164.204,21.331C164.842,21.331 165.359,20.72 165.359,19.968L165.359,13.029Z" style="fill:#ffef86;"/>
            </g>
            <g transform="matrix(7.11654,0,0,1,-978.384,-0.77185)">
                <path d="M165.359,12.826C165.359,12.186 165.286,11.666 165.196,11.666L160.903,11.666C160.813,11.666 160.74,12.186 160.74,12.826L160.74,20.171C160.74,20.811 160.813,21.331 160.903,21.331L165.196,21.331C165.286,21.331 165.359,20.811 165.359,20.171L165.359,12.826Z" style="fill:#ffe329;"/>
            </g>
            <path d="M166.193,18.097L166.948,18.097C166.935,18.029 166.963,17.441 166.963,17.369C166.963,16.791 167.433,16.32 168.012,16.32L194.567,16.32C195.146,16.32 195.616,16.791 195.616,17.369C195.616,17.441 195.574,18.029 195.56,18.097L197.81,18.097L197.81,12.57C197.81,11.93 197.29,11.41 196.65,11.41L167.352,11.41C166.712,11.41 166.193,11.93 166.193,12.57L166.193,18.097ZM195.581,13.565C195.57,12.516 195.111,12.031 194.532,12.031L167.976,12.031C167.398,12.031 166.898,12.516 166.927,13.565C166.959,14.689 167.398,15.028 167.976,15.028L194.532,15.028C195.111,15.028 195.592,14.689 195.581,13.565Z" style="fill:#ffef86;"/>
            <g transform="matrix(5.98842,0,0,0.217077,-795.229,14.3067)">
                <path d="M165.359,16.498C165.359,13.831 165.281,11.666 165.184,11.666L160.916,11.666C160.819,11.666 160.74,13.831 160.74,16.498C160.74,19.166 160.819,21.331 160.916,21.331L165.184,21.331C165.281,21.331 165.359,19.166 165.359,16.498Z" style="fill:#b09900;"/>
            </g>
            <g transform="matrix(5.98842,0,0,0.217077,-795.229,9.98372)">
                <path d="M165.359,16.498C165.359,13.831 165.281,11.666 165.184,11.666L160.916,11.666C160.819,11.666 160.74,13.831 160.74,16.498C160.74,19.166 160.819,21.331 160.916,21.331L165.184,21.331C165.281,21.331 165.359,19.166 165.359,16.498Z" style="fill:#b09900;"/>
            </g>
        </g>
        <g transform="matrix(1,0,0,1,2.22105,1.16503)">
            <g transform="matrix(1,0,0,1,-2.22105,-1.16503)">
                <path d="M10.104,21.203C9.003,20.965 8.176,19.984 8.176,18.812L8.176,15.64C8.163,15.57 8.157,15.496 8.157,15.418C8.157,14.761 6.606,14.472 5.396,15.277C3.625,16.455 2.899,18.466 2.779,20.371C2.824,21.488 1.19,21.617 1.191,20.371C1.192,14.886 4.38,11.595 10.493,11.477L10.839,11.473L15.684,11.473C16.849,11.473 17.824,12.289 18.071,13.38L21.711,13.38L21.711,13.202C21.711,12.627 22.178,12.16 22.753,12.16L24.837,12.16C25.412,12.16 25.879,12.627 25.879,13.202L25.879,19.529C25.879,20.104 25.412,20.571 24.837,20.571L22.753,20.571C22.178,20.571 21.711,20.104 21.711,19.529L21.711,19.351L18.071,19.351C17.85,20.327 17.046,21.083 16.045,21.231L16.045,39.807L10.104,39.807L10.104,21.203Z" style="fill:#9a9a9a;"/>
            </g>
            <g transform="matrix(1,0,0,1,-2.22105,-1.16503)">
                <path d="M10.938,20.213C9.836,19.975 9.01,18.994 9.01,17.822L9.01,15.64C8.997,15.57 8.99,15.496 8.99,15.418C8.99,14.761 6.96,13.597 5.396,14.756C3.687,16.022 2.638,18.1 2.517,20.004C2.563,21.121 1.473,21.091 1.62,19.854C2.255,14.52 4.38,12.637 10.493,12.519L10.839,12.515L14.903,12.515C16.068,12.515 17.043,13.331 17.289,14.422L21.711,14.422L25.879,14.422L25.879,18.3L21.711,18.362L17.289,18.362C17.069,19.337 16.265,20.093 15.264,20.241L15.264,39.807L10.938,39.807L10.938,20.213Z" style="fill:#b1b1b1;"/>
            </g>
            <g transform="matrix(1,0,0,1,-2.22105,-1.16503)">
                <path d="M16.045,37.671L15.002,39.807L12.557,39.807L16.045,32.669L16.045,37.671ZM14.311,11.473L15.684,11.473C16.849,11.473 17.824,12.289 18.071,13.38L19.31,13.38L10.104,32.214L10.104,21.203C9.94,21.167 9.781,21.115 9.631,21.048L14.311,11.473ZM25.778,12.756C25.843,12.891 25.879,13.043 25.879,13.202L25.879,17.552L24.404,20.571L22.753,20.571C22.496,20.571 22.261,20.478 22.08,20.323L25.778,12.756ZM4.952,12.844L1.199,20.522C1.194,20.474 1.191,20.424 1.191,20.371C1.192,16.902 2.468,14.31 4.952,12.844ZM24.658,12.16L21.143,19.351L18.213,19.351L21.132,13.38L21.711,13.38L21.711,13.202C21.711,12.627 22.178,12.16 22.753,12.16L24.658,12.16ZM11.053,11.473L8.176,17.358L8.176,15.64C8.163,15.57 8.157,15.496 8.157,15.418C8.157,15.245 8.049,15.098 7.869,14.989L9.565,11.521C9.867,11.498 10.176,11.483 10.493,11.477L10.839,11.473L11.053,11.473Z" style="fill:#fff;fill-opacity:0.15;"/>
            </g>
            <g transform="matrix(1.22751,0,0,0.315215,-3.19129,25.927)">
                <rect x="9.022" y="15.727" width="4.84" height="24.609" style="fill:#7c7c7c;"/>
            </g>
            <g transform="matrix(1.04164,0,0,1.04164,-0.482189,-5.57305)">
                <path d="M7.334,39.297L7.334,56.559C7.334,57.425 8.037,58.129 8.903,58.129L13.861,58.129C14.728,58.129 15.431,57.425 15.431,56.559L15.431,53.421C15.431,52.671 14.904,52.043 14.2,51.888L14.2,39.297C14.2,38.751 13.756,38.308 13.21,38.308L8.324,38.308C7.777,38.308 7.334,38.751 7.334,39.297Z" style="fill:#1e3ecb;"/>
            </g>
            <g transform="matrix(1.15834,0,0,1.15834,-4.24651,-7.89983)">
                <path d="M9.845,39.094L16.019,39.094L16.019,37.347C16.019,36.856 15.62,36.457 15.129,36.457L10.735,36.457C10.244,36.457 9.845,36.856 9.845,37.347L9.845,39.094Z" style="fill:#031e9a;"/>
            </g>
            <g transform="matrix(0.779299,0,0,0.85197,2.49082,3.2508)">
                <path d="M13.219,42.161C13.219,41.818 12.914,41.54 12.539,41.54L8.923,41.54C8.549,41.54 8.244,41.818 8.244,42.161L8.244,55.519C8.244,55.862 8.549,56.141 8.923,56.141L12.539,56.141C12.914,56.141 13.219,55.862 13.219,55.519L13.219,42.161Z" style="fill:#e0e0e0;"/>
            </g>
            <g transform="matrix(1.04164,0,0,1.04164,-0.482189,-5.60775)">
                <path d="M15.18,37.327C15.18,36.767 14.725,36.312 14.165,36.312L7.6,36.312C7.041,36.312 6.586,36.767 6.586,37.327L6.586,39.355C6.586,39.915 7.041,40.369 7.6,40.369L14.165,40.369C14.725,40.369 15.18,39.915 15.18,39.355L15.18,37.327Z" style="fill:#dcdcdc;"/>
            </g>
            <g transform="matrix(0.898571,0,0,0.670876,1.23107,8.37721)">
                <path d="M15.18,37.327C15.18,36.767 14.84,36.312 14.422,36.312L7.343,36.312C6.925,36.312 6.586,36.767 6.586,37.327L6.586,39.355C6.586,39.915 6.925,40.369 7.343,40.369L14.422,40.369C14.84,40.369 15.18,39.915 15.18,39.355L15.18,37.327Z" style="fill:#fff;"/>
            </g>
        </g>
        <g transform="matrix(1.41068,0,0,1.36317,-16.6992,-17.3562)">
            <path d="M41.051,42.232C41.051,41.472 40.454,40.855 39.72,40.855C38.985,40.855 38.389,41.472 38.389,42.232L38.389,47.259C38.389,48.019 38.985,48.637 39.72,48.637C40.454,48.637 41.051,48.019 41.051,47.259L41.051,42.232Z"/>
        </g>
        <g transform="matrix(1.41068,0,0,1.36317,18.5496,-17.3562)">
            <path d="M41.051,42.232C41.051,41.472 40.454,40.855 39.72,40.855C38.985,40.855 38.389,41.472 38.389,42.232L38.389,47.259C38.389,48.019 38.985,48.637 39.72,48.637C40.454,48.637 41.051,48.019 41.051,47.259L41.051,42.232Z"/>
        </g>
        <g transform="matrix(1.41068,0,0,0.814196,117.952,-17.5371)">
            <path d="M41.051,43.161C41.051,41.888 40.454,40.855 39.72,40.855C38.985,40.855 38.389,41.888 38.389,43.161L38.389,46.33C38.389,47.603 38.985,48.637 39.72,48.637C40.454,48.637 41.051,47.603 41.051,46.33L41.051,43.161Z"/>
        </g>
        <g transform="matrix(1.41068,0,0,1.33599,82.7979,-42.9156)">
            <path d="M41.051,42.26C41.051,41.485 40.454,40.855 39.72,40.855C38.985,40.855 38.389,41.485 38.389,42.26L38.389,47.231C38.389,48.007 38.985,48.637 39.72,48.637C40.454,48.637 41.051,48.007 41.051,47.231L41.051,42.26Z"/>
        </g>
        <g transform="matrix(1.41068,0,0,0.814196,135.534,-17.5371)">
            <path d="M41.051,43.161C41.051,41.888 40.454,40.855 39.72,40.855C38.985,40.855 38.389,41.888 38.389,43.161L38.389,46.33C38.389,47.603 38.985,48.637 39.72,48.637C40.454,48.637 41.051,47.603 41.051,46.33L41.051,43.161Z"/>
        </g>
        <g transform="matrix(8.63792e-17,-1.41068,1.21037,7.41141e-17,-41.0642,83.017)">
            <path d="M41.051,42.406C41.051,41.55 40.454,40.855 39.72,40.855C38.985,40.855 38.389,41.55 38.389,42.406L38.389,47.085C38.389,47.942 38.985,48.637 39.72,48.637C40.454,48.637 41.051,47.942 41.051,47.085L41.051,42.406Z"/>
        </g>
        <g transform="matrix(8.63792e-17,-1.41068,1.21037,7.41141e-17,-41.0642,103.071)">
            <path d="M41.051,42.406C41.051,41.55 40.454,40.855 39.72,40.855C38.985,40.855 38.389,41.55 38.389,42.406L38.389,47.085C38.389,47.942 38.985,48.637 39.72,48.637C40.454,48.637 41.051,47.942 41.051,47.085L41.051,42.406Z"/>
        </g>
        <g transform="matrix(1,0,0,1,0,-2.49975)">
            <path d="M280,58.875L-0,58.875L-0,60.162C-0,62.211 1.664,63.875 3.713,63.875L276.287,63.875C278.336,63.875 280,62.211 280,60.162L280,58.875Z" style="fill-opacity:0.25;"/>
        </g>
        <path d="M280,58.875L-0,58.875L-0,60.162C-0,62.211 1.664,63.875 3.713,63.875L276.287,63.875C278.336,63.875 280,62.211 280,60.162L280,58.875Z" style="fill:#a45a00;"/>
    </g>
</svg>
