<?xml version="1.0" encoding="UTF-8" standalone="no"?>
<!DOCTYPE svg PUBLIC "-//W3C//DTD SVG 1.1//EN" "http://www.w3.org/Graphics/SVG/1.1/DTD/svg11.dtd">
<svg width="100%" height="100%" viewBox="0 0 300 345" version="1.1" xmlns="http://www.w3.org/2000/svg" xmlns:xlink="http://www.w3.org/1999/xlink" xml:space="preserve" xmlns:serif="http://www.serif.com/" style="fill-rule:evenodd;clip-rule:evenodd;stroke-linejoin:round;stroke-miterlimit:2;">
    <g id="glasses_17">
        <g transform="matrix(0.5,0.866025,-0.866025,0.5,189.282,-35.7344)">
            <path d="M150.852,192.858C150.573,192.859 150.288,192.856 150,192.85C134.835,192.525 127.68,180.655 127.894,165.123C128.108,149.59 135.69,130.395 150,115.421C164.019,129.894 172.252,147.932 173.613,162.957L173.596,162.775C172.957,156.11 171.116,149.59 168.551,143.419C166.966,139.605 165.092,135.91 162.978,132.362C159.537,126.589 155.455,121.208 150.852,116.313L150.852,192.858ZM150.971,192.857L150.852,192.858L151.035,192.857L150.971,192.857ZM151.162,192.855L151.052,192.856L151.217,192.855L151.162,192.855ZM151.353,192.853L151.252,192.854L151.4,192.852L151.353,192.853ZM151.543,192.849L151.452,192.85L151.581,192.848L151.543,192.849ZM151.732,192.844L151.653,192.846L151.763,192.843L151.732,192.844ZM151.92,192.837L151.854,192.84L151.944,192.837L151.92,192.837ZM152.108,192.83L152.056,192.832L152.124,192.83L152.108,192.83ZM152.294,192.822L152.26,192.824L152.304,192.822L152.294,192.822ZM152.484,192.813L152.466,192.814L152.484,192.813ZM173.796,166.003L173.796,166.004L173.796,166.003ZM173.79,165.81L173.791,165.826L173.79,165.81ZM173.784,165.617L173.785,165.647L173.784,165.617ZM173.776,165.426L173.778,165.468L173.776,165.426ZM173.77,165.271L173.77,165.289L173.768,165.235L173.77,165.271ZM173.761,165.086L173.762,165.11L173.759,165.045L173.761,165.086ZM173.752,164.902L173.753,164.931L173.75,164.855L173.752,164.902ZM173.742,164.717L173.744,164.751L173.739,164.665L173.742,164.717ZM173.732,164.532L173.734,164.572L173.728,164.476L173.732,164.532ZM173.72,164.346L173.723,164.392L173.716,164.286L173.72,164.346ZM173.708,164.16L173.712,164.212L173.704,164.097L173.708,164.16ZM173.695,163.974L173.699,164.033L173.691,163.908L173.695,163.974ZM173.682,163.788L173.687,163.853L173.677,163.718L173.682,163.788ZM173.668,163.601L173.673,163.674L173.662,163.529L173.668,163.601ZM173.653,163.413L173.659,163.494L173.647,163.34L173.653,163.413ZM173.637,163.226L173.645,163.315L173.631,163.15L173.637,163.226ZM173.621,163.038L173.629,163.136L173.614,162.961L173.621,163.038Z" style="fill:#63d945;"/>
            <path d="M150.852,116.313L150.852,122.504L148.155,125.015L150.852,126.854L150.852,171.021L142.501,173.713L150.852,175.997L150.852,178.507L147.213,180.785L150.852,182.545L150.852,192.858C183.118,192.765 179.775,146.989 150.852,116.313Z" style="fill:#75ff53;"/>
        </g>
        <g transform="matrix(0.470953,0.26526,-0.26526,0.470953,71.9545,40.7416)">
            <path d="M150.852,192.858C150.573,192.859 150.288,192.856 150,192.85C134.835,192.525 127.68,180.655 127.894,165.123C128.108,149.59 135.69,130.395 150,115.421C164.019,129.894 172.252,147.932 173.613,162.957L173.596,162.775C172.957,156.11 171.116,149.59 168.551,143.419C166.966,139.605 165.092,135.91 162.978,132.362C159.537,126.589 155.455,121.208 150.852,116.313L150.852,192.858ZM150.971,192.857L150.852,192.858L151.035,192.857L150.971,192.857ZM151.162,192.855L151.052,192.856L151.217,192.855L151.162,192.855ZM151.353,192.853L151.252,192.854L151.4,192.852L151.353,192.853ZM151.543,192.849L151.452,192.85L151.581,192.848L151.543,192.849ZM151.732,192.844L151.653,192.846L151.763,192.843L151.732,192.844ZM151.92,192.837L151.854,192.84L151.944,192.837L151.92,192.837ZM152.108,192.83L152.056,192.832L152.124,192.83L152.108,192.83ZM152.294,192.822L152.26,192.824L152.304,192.822L152.294,192.822ZM152.484,192.813L152.466,192.814L152.484,192.813ZM173.796,166.003L173.796,166.004L173.796,166.003ZM173.79,165.81L173.791,165.826L173.79,165.81ZM173.784,165.617L173.785,165.647L173.784,165.617ZM173.776,165.426L173.778,165.468L173.776,165.426ZM173.77,165.271L173.77,165.289L173.768,165.235L173.77,165.271ZM173.761,165.086L173.762,165.11L173.759,165.045L173.761,165.086ZM173.752,164.902L173.753,164.931L173.75,164.855L173.752,164.902ZM173.742,164.717L173.744,164.751L173.739,164.665L173.742,164.717ZM173.732,164.532L173.734,164.572L173.728,164.476L173.732,164.532ZM173.72,164.346L173.723,164.392L173.716,164.286L173.72,164.346ZM173.708,164.16L173.712,164.212L173.704,164.097L173.708,164.16ZM173.695,163.974L173.699,164.033L173.691,163.908L173.695,163.974ZM173.682,163.788L173.687,163.853L173.677,163.718L173.682,163.788ZM173.668,163.601L173.673,163.674L173.662,163.529L173.668,163.601ZM173.653,163.413L173.659,163.494L173.647,163.34L173.653,163.413ZM173.637,163.226L173.645,163.315L173.631,163.15L173.637,163.226ZM173.621,163.038L173.629,163.136L173.614,162.961L173.621,163.038Z" style="fill:#63d945;"/>
            <path d="M150.852,116.313L150.852,122.504L148.155,125.015L150.852,126.854L150.852,171.021L142.501,173.713L150.852,175.997L150.852,178.507L147.213,180.785L150.852,182.545L150.852,192.858C183.118,192.765 179.775,146.989 150.852,116.313Z" style="fill:#75ff53;"/>
        </g>
        <g transform="matrix(-0.599007,0.800744,0.800744,0.599007,139.758,-44.9842)">
            <path d="M150.852,192.858C150.573,192.859 150.288,192.856 150,192.85C134.835,192.525 127.68,180.655 127.894,165.123C128.108,149.59 135.69,130.395 150,115.421C164.019,129.894 172.252,147.932 173.613,162.957L173.596,162.775C172.957,156.11 171.116,149.59 168.551,143.419C166.966,139.605 165.092,135.91 162.978,132.362C159.537,126.589 155.455,121.208 150.852,116.313L150.852,192.858ZM150.971,192.857L150.852,192.858L151.035,192.857L150.971,192.857ZM151.162,192.855L151.052,192.856L151.217,192.855L151.162,192.855ZM151.353,192.853L151.252,192.854L151.4,192.852L151.353,192.853ZM151.543,192.849L151.452,192.85L151.581,192.848L151.543,192.849ZM151.732,192.844L151.653,192.846L151.763,192.843L151.732,192.844ZM151.92,192.837L151.854,192.84L151.944,192.837L151.92,192.837ZM152.108,192.83L152.056,192.832L152.124,192.83L152.108,192.83ZM152.294,192.822L152.26,192.824L152.304,192.822L152.294,192.822ZM152.484,192.813L152.466,192.814L152.484,192.813ZM173.796,166.003L173.796,166.004L173.796,166.003ZM173.79,165.81L173.791,165.826L173.79,165.81ZM173.784,165.617L173.785,165.647L173.784,165.617ZM173.776,165.426L173.778,165.468L173.776,165.426ZM173.77,165.271L173.77,165.289L173.768,165.235L173.77,165.271ZM173.761,165.086L173.762,165.11L173.759,165.045L173.761,165.086ZM173.752,164.902L173.753,164.931L173.75,164.855L173.752,164.902ZM173.742,164.717L173.744,164.751L173.739,164.665L173.742,164.717ZM173.732,164.532L173.734,164.572L173.728,164.476L173.732,164.532ZM173.72,164.346L173.723,164.392L173.716,164.286L173.72,164.346ZM173.708,164.16L173.712,164.212L173.704,164.097L173.708,164.16ZM173.695,163.974L173.699,164.033L173.691,163.908L173.695,163.974ZM173.682,163.788L173.687,163.853L173.677,163.718L173.682,163.788ZM173.668,163.601L173.673,163.674L173.662,163.529L173.668,163.601ZM173.653,163.413L173.659,163.494L173.647,163.34L173.653,163.413ZM173.637,163.226L173.645,163.315L173.631,163.15L173.637,163.226ZM173.621,163.038L173.629,163.136L173.614,162.961L173.621,163.038Z" style="fill:#63d945;"/>
            <path d="M150.852,116.313L150.852,122.504L148.155,125.015L150.852,126.854L150.852,171.021L142.501,173.713L150.852,175.997L150.852,178.507L147.213,180.785L150.852,182.545L150.852,192.858C183.118,192.765 179.775,146.989 150.852,116.313Z" style="fill:#75ff53;"/>
        </g>
        <g transform="matrix(-0.649318,0.320745,0.320745,0.649318,242.427,5.97427)">
            <path d="M150.852,192.858C150.573,192.859 150.288,192.856 150,192.85C134.835,192.525 127.68,180.655 127.894,165.123C128.108,149.59 135.69,130.395 150,115.421C164.019,129.894 172.252,147.932 173.613,162.957L173.596,162.775C172.957,156.11 171.116,149.59 168.551,143.419C166.966,139.605 165.092,135.91 162.978,132.362C159.537,126.589 155.455,121.208 150.852,116.313L150.852,192.858ZM150.971,192.857L150.852,192.858L151.035,192.857L150.971,192.857ZM151.162,192.855L151.052,192.856L151.217,192.855L151.162,192.855ZM151.353,192.853L151.252,192.854L151.4,192.852L151.353,192.853ZM151.543,192.849L151.452,192.85L151.581,192.848L151.543,192.849ZM151.732,192.844L151.653,192.846L151.763,192.843L151.732,192.844ZM151.92,192.837L151.854,192.84L151.944,192.837L151.92,192.837ZM152.108,192.83L152.056,192.832L152.124,192.83L152.108,192.83ZM152.294,192.822L152.26,192.824L152.304,192.822L152.294,192.822ZM152.484,192.813L152.466,192.814L152.484,192.813ZM173.796,166.003L173.796,166.004L173.796,166.003ZM173.79,165.81L173.791,165.826L173.79,165.81ZM173.784,165.617L173.785,165.647L173.784,165.617ZM173.776,165.426L173.778,165.468L173.776,165.426ZM173.77,165.271L173.77,165.289L173.768,165.235L173.77,165.271ZM173.761,165.086L173.762,165.11L173.759,165.045L173.761,165.086ZM173.752,164.902L173.753,164.931L173.75,164.855L173.752,164.902ZM173.742,164.717L173.744,164.751L173.739,164.665L173.742,164.717ZM173.732,164.532L173.734,164.572L173.728,164.476L173.732,164.532ZM173.72,164.346L173.723,164.392L173.716,164.286L173.72,164.346ZM173.708,164.16L173.712,164.212L173.704,164.097L173.708,164.16ZM173.695,163.974L173.699,164.033L173.691,163.908L173.695,163.974ZM173.682,163.788L173.687,163.853L173.677,163.718L173.682,163.788ZM173.668,163.601L173.673,163.674L173.662,163.529L173.668,163.601ZM173.653,163.413L173.659,163.494L173.647,163.34L173.653,163.413ZM173.637,163.226L173.645,163.315L173.631,163.15L173.637,163.226ZM173.621,163.038L173.629,163.136L173.614,162.961L173.621,163.038Z" style="fill:#63d945;"/>
            <path d="M150.852,116.313L150.852,122.504L148.155,125.015L150.852,126.854L150.852,171.021L142.501,173.713L150.852,175.997L150.852,178.507L147.213,180.785L150.852,182.545L150.852,192.858C183.118,192.765 179.775,146.989 150.852,116.313Z" style="fill:#75ff53;"/>
        </g>
        <path d="M242.667,160.851C264.767,160.851 282.709,178.793 282.709,200.892C282.709,222.991 264.767,240.933 242.667,240.933C220.568,240.933 202.626,222.991 202.626,200.892C202.626,178.793 220.568,160.851 242.667,160.851ZM57.601,160.851C79.7,160.851 97.642,178.793 97.642,200.892C97.642,222.991 79.7,240.933 57.601,240.933C35.501,240.933 17.559,222.991 17.559,200.892C17.559,178.793 35.501,160.851 57.601,160.851Z" style="fill:#dce8f6;fill-opacity:0.5;"/>
        <path d="M85.004,171.707C87.268,173.835 89.286,176.223 91.008,178.823L62.633,238.567L53.248,238.567L85.004,171.707ZM268.737,170.509C271.049,172.496 273.133,174.742 274.943,177.202L245.797,238.567L236.412,238.567L268.737,170.509ZM240.669,160.9C241.332,160.867 241.998,160.851 242.667,160.851C250.208,160.851 257.264,162.94 263.288,166.569L229.092,238.567L229.084,238.567C221.557,235.85 215.074,230.939 210.41,224.608L240.669,160.9ZM57.528,160.851L57.601,160.851C65.76,160.851 73.352,163.296 79.685,167.495L45.928,238.567L44.018,238.567C37.106,236.072 31.074,231.727 26.523,226.131L57.528,160.851Z" style="fill:#fff;fill-opacity:0.5;"/>
        <g transform="matrix(0.956368,0,0,0.956368,-85.9267,7.67305)">
            <path d="M140.247,156.478L139.332,152.468C139.15,151.67 139.058,150.853 139.058,150.034C139.058,143.994 143.961,139.092 150,139.092C156.039,139.092 160.942,143.994 160.942,150.034C160.942,150.853 160.85,151.67 160.668,152.468L159.753,156.478L160.668,152.468C160.85,151.67 161.121,150.894 161.477,150.156C164.097,144.715 170.642,142.425 176.083,145.045C181.524,147.665 183.814,154.21 181.194,159.651C180.838,160.389 180.401,161.085 179.89,161.725L177.447,164.789L179.89,161.725C180.401,161.085 180.982,160.504 181.623,159.993C186.344,156.227 193.234,157.004 197,161.725C200.765,166.447 199.988,173.337 195.267,177.102C194.626,177.613 193.93,178.05 193.192,178.406L190.01,179.938L193.192,178.406C193.93,178.05 194.706,177.779 195.505,177.597C201.393,176.253 207.264,179.942 208.607,185.829C209.951,191.717 206.262,197.588 200.375,198.932C199.576,199.114 198.759,199.206 197.94,199.206L194.88,199.206L197.94,199.206C198.759,199.206 199.576,199.298 200.375,199.481C206.262,200.824 209.951,206.695 208.607,212.583C207.264,218.471 201.393,222.16 195.505,220.816C194.706,220.633 193.93,220.362 193.192,220.007L190.872,218.889L193.192,220.007C193.93,220.362 194.626,220.799 195.267,221.31C199.988,225.075 200.765,231.966 197,236.687C193.234,241.409 186.344,242.185 181.623,238.42C180.982,237.909 180.401,237.328 179.89,236.687L178.519,234.968L179.89,236.687C180.401,237.328 180.838,238.024 181.194,238.762C183.814,244.203 181.524,250.747 176.083,253.368C170.642,255.988 164.097,253.698 161.477,248.257C161.121,247.519 160.85,246.743 160.668,245.944L160.23,244.026L160.668,245.944C160.85,246.743 160.942,247.56 160.942,248.379C160.942,254.418 156.039,259.321 150,259.321C143.961,259.321 139.058,254.418 139.058,248.379C139.058,247.56 139.15,246.743 139.332,245.944L139.77,244.026L139.332,245.944C139.15,246.743 138.879,247.519 138.523,248.257C135.903,253.698 129.358,255.988 123.917,253.368C118.476,250.747 116.186,244.203 118.806,238.762C119.162,238.024 119.599,237.328 120.11,236.687L121.481,234.968L120.11,236.687C119.599,237.328 119.018,237.909 118.377,238.42C113.656,242.185 106.766,241.409 103,236.687C99.235,231.966 100.012,225.075 104.733,221.31C105.374,220.799 106.07,220.362 106.808,220.007L109.128,218.889L106.808,220.007C106.07,220.362 105.294,220.633 104.495,220.816C98.607,222.16 92.736,218.471 91.393,212.583C90.049,206.695 93.738,200.824 99.625,199.481C100.424,199.298 101.241,199.206 102.06,199.206L105.12,199.206L102.06,199.206C101.241,199.206 100.424,199.114 99.625,198.932C93.738,197.588 90.049,191.717 91.393,185.829C92.736,179.942 98.607,176.253 104.495,177.597C105.294,177.779 106.07,178.05 106.808,178.406L109.99,179.938L106.808,178.406C106.07,178.05 105.374,177.613 104.733,177.102C100.012,173.337 99.235,166.447 103,161.725C106.766,157.004 113.656,156.227 118.377,159.993C119.018,160.504 119.599,161.085 120.11,161.725L122.553,164.789L120.11,161.725C119.599,161.085 119.162,160.389 118.806,159.651C116.186,154.21 118.476,147.665 123.917,145.045C129.358,142.425 135.903,144.715 138.523,150.156C138.879,150.894 139.15,151.67 139.332,152.468L140.247,156.478ZM150,161.413C171.466,161.413 188.893,178.841 188.893,200.306C188.893,221.772 171.466,239.199 150,239.199C128.534,239.199 111.107,221.772 111.107,200.306C111.107,178.841 128.534,161.413 150,161.413Z" style="fill:#a700ff;"/>
        </g>
        <g transform="matrix(0.956368,0,0,0.956368,99.219,7.67305)">
            <path d="M140.247,156.478L139.332,152.468C139.15,151.67 139.058,150.853 139.058,150.034C139.058,143.994 143.961,139.092 150,139.092C156.039,139.092 160.942,143.994 160.942,150.034C160.942,150.853 160.85,151.67 160.668,152.468L159.753,156.478L160.668,152.468C160.85,151.67 161.121,150.894 161.477,150.156C164.097,144.715 170.642,142.425 176.083,145.045C181.524,147.665 183.814,154.21 181.194,159.651C180.838,160.389 180.401,161.085 179.89,161.725L177.447,164.789L179.89,161.725C180.401,161.085 180.982,160.504 181.623,159.993C186.344,156.227 193.234,157.004 197,161.725C200.765,166.447 199.988,173.337 195.267,177.102C194.626,177.613 193.93,178.05 193.192,178.406L190.01,179.938L193.192,178.406C193.93,178.05 194.706,177.779 195.505,177.597C201.393,176.253 207.264,179.942 208.607,185.829C209.951,191.717 206.262,197.588 200.375,198.932C199.576,199.114 198.759,199.206 197.94,199.206L194.88,199.206L197.94,199.206C198.759,199.206 199.576,199.298 200.375,199.481C206.262,200.824 209.951,206.695 208.607,212.583C207.264,218.471 201.393,222.16 195.505,220.816C194.706,220.633 193.93,220.362 193.192,220.007L190.872,218.889L193.192,220.007C193.93,220.362 194.626,220.799 195.267,221.31C199.988,225.075 200.765,231.966 197,236.687C193.234,241.409 186.344,242.185 181.623,238.42C180.982,237.909 180.401,237.328 179.89,236.687L178.519,234.968L179.89,236.687C180.401,237.328 180.838,238.024 181.194,238.762C183.814,244.203 181.524,250.747 176.083,253.368C170.642,255.988 164.097,253.698 161.477,248.257C161.121,247.519 160.85,246.743 160.668,245.944L160.23,244.026L160.668,245.944C160.85,246.743 160.942,247.56 160.942,248.379C160.942,254.418 156.039,259.321 150,259.321C143.961,259.321 139.058,254.418 139.058,248.379C139.058,247.56 139.15,246.743 139.332,245.944L139.77,244.026L139.332,245.944C139.15,246.743 138.879,247.519 138.523,248.257C135.903,253.698 129.358,255.988 123.917,253.368C118.476,250.747 116.186,244.203 118.806,238.762C119.162,238.024 119.599,237.328 120.11,236.687L121.481,234.968L120.11,236.687C119.599,237.328 119.018,237.909 118.377,238.42C113.656,242.185 106.766,241.409 103,236.687C99.235,231.966 100.012,225.075 104.733,221.31C105.374,220.799 106.07,220.362 106.808,220.007L109.128,218.889L106.808,220.007C106.07,220.362 105.294,220.633 104.495,220.816C98.607,222.16 92.736,218.471 91.393,212.583C90.049,206.695 93.738,200.824 99.625,199.481C100.424,199.298 101.241,199.206 102.06,199.206L105.12,199.206L102.06,199.206C101.241,199.206 100.424,199.114 99.625,198.932C93.738,197.588 90.049,191.717 91.393,185.829C92.736,179.942 98.607,176.253 104.495,177.597C105.294,177.779 106.07,178.05 106.808,178.406L109.99,179.938L106.808,178.406C106.07,178.05 105.374,177.613 104.733,177.102C100.012,173.337 99.235,166.447 103,161.725C106.766,157.004 113.656,156.227 118.377,159.993C119.018,160.504 119.599,161.085 120.11,161.725L122.553,164.789L120.11,161.725C119.599,161.085 119.162,160.389 118.806,159.651C116.186,154.21 118.476,147.665 123.917,145.045C129.358,142.425 135.903,144.715 138.523,150.156C138.879,150.894 139.15,151.67 139.332,152.468L140.247,156.478ZM150,161.413C171.466,161.413 188.893,178.841 188.893,200.306C188.893,221.772 171.466,239.199 150,239.199C128.534,239.199 111.107,221.772 111.107,200.306C111.107,178.841 128.534,161.413 150,161.413Z" style="fill:#a700ff;"/>
        </g>
        <g transform="matrix(0.956368,0,0,0.956368,-85.9267,7.67305)">
            <path d="M138.242,147.691C134.874,143.212 128.702,141.58 123.464,144.103C118.225,146.625 115.653,152.469 117.055,157.894C112.077,155.32 105.808,156.528 102.183,161.073C98.558,165.619 98.775,172 102.392,176.28C96.791,176.12 91.667,179.928 90.373,185.597C89.079,191.265 92.044,196.92 97.16,199.206C92.044,201.493 89.079,207.147 90.373,212.816C91.667,218.484 96.791,222.292 102.392,222.133C98.775,226.413 98.558,232.793 102.183,237.339C105.808,241.885 112.077,243.093 117.055,240.518C115.653,245.944 118.225,251.787 123.464,254.31C128.702,256.832 134.874,255.201 138.242,250.722C139.333,256.218 144.186,260.367 150,260.367C155.814,260.367 160.667,256.218 161.758,250.722C165.126,255.201 171.298,256.832 176.536,254.31C181.775,251.787 184.347,245.944 182.945,240.518C187.923,243.093 194.192,241.885 197.817,237.339C201.442,232.793 201.225,226.413 197.608,222.133C203.209,222.292 208.333,218.484 209.627,212.816C210.921,207.147 207.956,201.493 202.84,199.206C207.956,196.92 210.921,191.265 209.627,185.597C208.333,179.928 203.209,176.12 197.608,176.28C201.225,172 201.442,165.619 197.817,161.073C194.192,156.528 187.923,155.32 182.945,157.894C184.347,152.469 181.775,146.625 176.536,144.103C171.298,141.58 165.126,143.212 161.758,147.691C160.667,142.194 155.814,138.046 150,138.046C144.186,138.046 139.333,142.194 138.242,147.691ZM191.326,217.947C191.326,217.947 193.646,219.064 193.646,219.064C194.314,219.386 195.015,219.631 195.738,219.796C201.063,221.012 206.373,217.675 207.588,212.35C208.803,207.025 205.467,201.715 200.142,200.5C199.42,200.335 198.681,200.252 197.94,200.252L194.88,200.252L194.88,198.161L197.94,198.161C198.681,198.161 199.42,198.077 200.142,197.912C205.467,196.697 208.803,191.387 207.588,186.062C206.373,180.737 201.063,177.401 195.738,178.616C195.015,178.781 194.314,179.026 193.646,179.348L190.464,180.88L189.557,178.996C189.557,178.996 192.739,177.464 192.739,177.464C193.406,177.142 194.036,176.747 194.615,176.285C198.885,172.879 199.587,166.648 196.182,162.377C192.777,158.107 186.545,157.405 182.275,160.81C181.695,161.272 181.17,161.798 180.708,162.377L178.264,165.441L176.629,164.137C176.629,164.137 179.073,161.073 179.073,161.073C179.535,160.494 179.93,159.865 180.252,159.197C182.621,154.276 180.55,148.357 175.629,145.987C170.708,143.617 164.789,145.688 162.419,150.609C162.097,151.277 161.852,151.979 161.687,152.701L160.772,156.71L158.733,156.245C158.733,156.245 159.648,152.236 159.648,152.236C159.813,151.513 159.896,150.775 159.896,150.034C159.896,144.572 155.462,140.137 150,140.137C144.538,140.137 140.104,144.572 140.104,150.034C140.104,150.775 140.187,151.513 140.352,152.236L141.267,156.245L139.228,156.71C139.228,156.71 138.313,152.701 138.313,152.701C138.148,151.979 137.903,151.277 137.581,150.609C135.211,145.688 129.292,143.617 124.371,145.987C119.45,148.357 117.379,154.276 119.748,159.197C120.07,159.865 120.465,160.494 120.927,161.073L123.371,164.137L121.736,165.441C121.736,165.441 119.292,162.377 119.292,162.377C118.83,161.798 118.305,161.272 117.725,160.81C113.455,157.405 107.223,158.107 103.818,162.377C100.413,166.648 101.115,172.879 105.385,176.285C105.964,176.747 106.594,177.142 107.261,177.464L110.443,178.996L109.536,180.88C109.536,180.88 106.354,179.348 106.354,179.348C105.686,179.026 104.985,178.781 104.262,178.616C98.937,177.401 93.627,180.737 92.412,186.062C91.197,191.387 94.533,196.697 99.858,197.912C100.58,198.077 101.319,198.161 102.06,198.161L105.12,198.161L105.12,200.252L102.06,200.252C101.319,200.252 100.58,200.335 99.858,200.5C94.533,201.715 91.197,207.025 92.412,212.35C93.627,217.675 98.937,221.012 104.262,219.796C104.985,219.631 105.686,219.386 106.354,219.064L108.674,217.947L109.581,219.831C109.581,219.831 107.261,220.949 107.261,220.949C106.594,221.27 105.964,221.666 105.385,222.128C101.115,225.533 100.413,231.765 103.818,236.035C107.223,240.305 113.455,241.008 117.725,237.602C118.305,237.14 118.83,236.615 119.292,236.035L120.664,234.316L122.299,235.62C122.299,235.62 120.927,237.339 120.927,237.339C120.465,237.918 120.07,238.548 119.748,239.215C117.379,244.136 119.45,250.056 124.371,252.426C129.292,254.795 135.211,252.724 137.581,247.803C137.903,247.136 138.148,246.434 138.313,245.711L138.751,243.794C138.751,243.794 140.79,244.259 140.79,244.259C140.79,244.259 140.352,246.177 140.352,246.177C140.187,246.899 140.104,247.638 140.104,248.379C140.104,253.841 144.538,258.275 150,258.275C155.462,258.275 159.896,253.841 159.896,248.379C159.896,247.638 159.813,246.899 159.648,246.177L159.21,244.259L161.249,243.794C161.249,243.794 161.687,245.711 161.687,245.711C161.852,246.434 162.097,247.136 162.419,247.803C164.789,252.724 170.708,254.795 175.629,252.426C180.55,250.056 182.621,244.136 180.252,239.215C179.93,238.548 179.535,237.918 179.073,237.339L177.701,235.62L179.336,234.316C179.336,234.316 180.708,236.035 180.708,236.035C181.17,236.615 181.695,237.14 182.275,237.602C186.545,241.008 192.777,240.305 196.182,236.035C199.587,231.765 198.885,225.533 194.615,222.128C194.036,221.666 193.406,221.27 192.739,220.949L190.419,219.831L191.326,217.947ZM150,160.368C127.957,160.368 110.061,178.263 110.061,200.306C110.061,222.349 127.957,240.245 150,240.245C172.043,240.245 189.939,222.349 189.939,200.306C189.939,178.263 172.043,160.368 150,160.368ZM150,162.459C170.889,162.459 187.847,179.418 187.847,200.306C187.847,221.195 170.889,238.154 150,238.154C129.111,238.154 112.153,221.195 112.153,200.306C112.153,179.418 129.111,162.459 150,162.459Z" style="fill:#7e00c1;"/>
        </g>
        <g transform="matrix(0.956368,0,0,0.956368,99.219,7.67305)">
            <path d="M138.242,147.691C134.874,143.212 128.702,141.58 123.464,144.103C118.225,146.625 115.653,152.469 117.055,157.894C112.077,155.32 105.808,156.528 102.183,161.073C98.558,165.619 98.775,172 102.392,176.28C96.791,176.12 91.667,179.928 90.373,185.597C89.079,191.265 92.044,196.92 97.16,199.206C92.044,201.493 89.079,207.147 90.373,212.816C91.667,218.484 96.791,222.292 102.392,222.133C98.775,226.413 98.558,232.793 102.183,237.339C105.808,241.885 112.077,243.093 117.055,240.518C115.653,245.944 118.225,251.787 123.464,254.31C128.702,256.832 134.874,255.201 138.242,250.722C139.333,256.218 144.186,260.367 150,260.367C155.814,260.367 160.667,256.218 161.758,250.722C165.126,255.201 171.298,256.832 176.536,254.31C181.775,251.787 184.347,245.944 182.945,240.518C187.923,243.093 194.192,241.885 197.817,237.339C201.442,232.793 201.225,226.413 197.608,222.133C203.209,222.292 208.333,218.484 209.627,212.816C210.921,207.147 207.956,201.493 202.84,199.206C207.956,196.92 210.921,191.265 209.627,185.597C208.333,179.928 203.209,176.12 197.608,176.28C201.225,172 201.442,165.619 197.817,161.073C194.192,156.528 187.923,155.32 182.945,157.894C184.347,152.469 181.775,146.625 176.536,144.103C171.298,141.58 165.126,143.212 161.758,147.691C160.667,142.194 155.814,138.046 150,138.046C144.186,138.046 139.333,142.194 138.242,147.691ZM189.557,178.996C189.557,178.996 192.739,177.464 192.739,177.464C193.406,177.142 194.036,176.747 194.615,176.285C198.885,172.879 199.587,166.648 196.182,162.377C192.777,158.107 186.545,157.405 182.275,160.81C181.695,161.272 181.17,161.798 180.708,162.377L178.264,165.441L176.629,164.137C176.629,164.137 179.073,161.073 179.073,161.073C179.535,160.494 179.93,159.865 180.252,159.197C182.621,154.276 180.55,148.357 175.629,145.987C170.708,143.617 164.789,145.688 162.419,150.609C162.097,151.277 161.852,151.979 161.687,152.701L160.772,156.71L158.733,156.245C158.733,156.245 159.648,152.236 159.648,152.236C159.813,151.513 159.896,150.775 159.896,150.034C159.896,144.572 155.462,140.137 150,140.137C144.538,140.137 140.104,144.572 140.104,150.034C140.104,150.775 140.187,151.513 140.352,152.236L141.267,156.245L139.228,156.71C139.228,156.71 138.313,152.701 138.313,152.701C138.148,151.979 137.903,151.277 137.581,150.609C135.211,145.688 129.292,143.617 124.371,145.987C119.45,148.357 117.379,154.276 119.748,159.197C120.07,159.865 120.465,160.494 120.927,161.073L123.371,164.137L121.736,165.441C121.736,165.441 119.292,162.377 119.292,162.377C118.83,161.798 118.305,161.272 117.725,160.81C113.455,157.405 107.223,158.107 103.818,162.377C100.413,166.648 101.115,172.879 105.385,176.285C105.964,176.747 106.594,177.142 107.261,177.464L110.443,178.996L109.536,180.88C109.536,180.88 106.354,179.348 106.354,179.348C105.686,179.026 104.985,178.781 104.262,178.616C98.937,177.401 93.627,180.737 92.412,186.062C91.197,191.387 94.533,196.697 99.858,197.912C100.58,198.077 101.319,198.161 102.06,198.161L105.12,198.161L105.12,200.252L102.06,200.252C101.319,200.252 100.58,200.335 99.858,200.5C94.533,201.715 91.197,207.025 92.412,212.35C93.627,217.675 98.937,221.012 104.262,219.796C104.985,219.631 105.686,219.386 106.354,219.064L108.674,217.947L109.581,219.831C109.581,219.831 107.261,220.949 107.261,220.949C106.594,221.27 105.964,221.666 105.385,222.128C101.115,225.533 100.413,231.765 103.818,236.035C107.223,240.305 113.455,241.008 117.725,237.602C118.305,237.14 118.83,236.615 119.292,236.035L120.664,234.316L122.299,235.62C122.299,235.62 120.927,237.339 120.927,237.339C120.465,237.918 120.07,238.548 119.748,239.215C117.379,244.136 119.45,250.056 124.371,252.426C129.292,254.795 135.211,252.724 137.581,247.803C137.903,247.136 138.148,246.434 138.313,245.711L138.751,243.794L140.79,244.259C140.79,244.259 140.352,246.177 140.352,246.177C140.187,246.899 140.104,247.638 140.104,248.379C140.104,253.841 144.538,258.275 150,258.275C155.462,258.275 159.896,253.841 159.896,248.379C159.896,247.638 159.813,246.899 159.648,246.177L159.21,244.259L161.249,243.794C161.249,243.794 161.687,245.711 161.687,245.711C161.852,246.434 162.097,247.136 162.419,247.803C164.789,252.724 170.708,254.795 175.629,252.426C180.55,250.056 182.621,244.136 180.252,239.215C179.93,238.548 179.535,237.918 179.073,237.339L177.701,235.62L179.336,234.316C179.336,234.316 180.708,236.035 180.708,236.035C181.17,236.615 181.695,237.14 182.275,237.602C186.545,241.008 192.777,240.305 196.182,236.035C199.587,231.765 198.885,225.533 194.615,222.128C194.036,221.666 193.406,221.27 192.739,220.949L190.419,219.831L191.326,217.947C191.326,217.947 193.646,219.064 193.646,219.064C194.314,219.386 195.015,219.631 195.738,219.796C201.063,221.012 206.373,217.675 207.588,212.35C208.803,207.025 205.467,201.715 200.142,200.5C199.42,200.335 198.681,200.252 197.94,200.252L194.88,200.252L194.88,198.161L197.94,198.161C198.681,198.161 199.42,198.077 200.142,197.912C205.467,196.697 208.803,191.387 207.588,186.062C206.373,180.737 201.063,177.401 195.738,178.616C195.015,178.781 194.314,179.026 193.646,179.348L190.464,180.88L189.557,178.996ZM150,160.368C127.957,160.368 110.061,178.263 110.061,200.306C110.061,222.349 127.957,240.245 150,240.245C172.043,240.245 189.939,222.349 189.939,200.306C189.939,178.263 172.043,160.368 150,160.368ZM150,162.459C170.889,162.459 187.847,179.418 187.847,200.306C187.847,221.195 170.889,238.154 150,238.154C129.111,238.154 112.153,221.195 112.153,200.306C112.153,179.418 129.111,162.459 150,162.459Z" style="fill:#7e00c1;"/>
        </g>
    </g>
</svg>
