<?xml version="1.0" encoding="UTF-8" standalone="no"?>
<!DOCTYPE svg PUBLIC "-//W3C//DTD SVG 1.1//EN" "http://www.w3.org/Graphics/SVG/1.1/DTD/svg11.dtd">
<svg width="100%" height="100%" viewBox="0 0 300 345" version="1.1" xmlns="http://www.w3.org/2000/svg" xmlns:xlink="http://www.w3.org/1999/xlink" xml:space="preserve" xmlns:serif="http://www.serif.com/" style="fill-rule:evenodd;clip-rule:evenodd;stroke-linejoin:round;stroke-miterlimit:2;">
    <g id="glasses_13">
        <g transform="matrix(1.01074,-0.349967,0.341051,0.984989,-63.2898,90.7914)">
            <path d="M235.422,129.373L256.851,160.181C257.34,160.883 257.942,161.499 258.635,162.001C259.327,162.504 260.098,162.887 260.917,163.135L296.839,173.995L274.161,203.896C273.644,204.578 273.245,205.341 272.981,206.155C272.717,206.969 272.591,207.821 272.608,208.676L273.38,246.196L237.935,233.868C237.127,233.587 236.277,233.443 235.422,233.443C234.566,233.443 233.717,233.587 232.909,233.868L197.464,246.196L198.235,208.676C198.253,207.821 198.127,206.969 197.863,206.155C197.598,205.341 197.199,204.578 196.682,203.896L174.004,173.995L209.926,163.135C210.745,162.887 211.517,162.504 212.209,162.001C212.901,161.499 213.504,160.883 213.993,160.181L235.422,129.373Z" style="fill:#d9e5f4;fill-opacity:0.5;"/>
        </g>
        <g transform="matrix(-1.01074,-0.349967,-0.341051,0.984989,363.201,90.7914)">
            <path d="M235.422,129.373L256.851,160.181C257.34,160.883 257.942,161.499 258.635,162.001C259.327,162.504 260.098,162.887 260.917,163.135L296.839,173.995L274.161,203.896C273.644,204.578 273.245,205.341 272.981,206.155C272.717,206.969 272.591,207.821 272.608,208.676L273.38,246.196L237.935,233.868C237.127,233.587 236.277,233.443 235.422,233.443C234.566,233.443 233.717,233.587 232.909,233.868L197.464,246.196L198.235,208.676C198.253,207.821 198.127,206.969 197.863,206.155C197.598,205.341 197.199,204.578 196.682,203.896L174.004,173.995L209.926,163.135C210.745,162.887 211.517,162.504 212.209,162.001C212.901,161.499 213.504,160.883 213.993,160.181L235.422,129.373Z" style="fill:#d9e5f4;fill-opacity:0.5;"/>
        </g>
        <g transform="matrix(1.04168,-0.360679,0.35149,1.01514,-72.4034,87.4484)">
            <path d="M235.422,129.373L256.851,160.181C257.34,160.883 257.942,161.499 258.635,162.001C259.327,162.504 260.098,162.887 260.917,163.135L296.839,173.995L274.161,203.896C273.644,204.578 273.245,205.341 272.981,206.155C272.717,206.969 272.591,207.821 272.608,208.676L273.38,246.196L237.935,233.868C237.127,233.587 236.277,233.443 235.422,233.443C234.566,233.443 233.717,233.587 232.909,233.868L197.464,246.196L198.235,208.676C198.253,207.821 198.127,206.969 197.863,206.155C197.598,205.341 197.199,204.578 196.682,203.896L174.004,173.995L209.926,163.135C210.745,162.887 211.517,162.504 212.209,162.001C212.901,161.499 213.504,160.883 213.993,160.181L235.422,129.373ZM235.422,138.987L252.421,163.425C253.262,164.634 254.298,165.694 255.489,166.56C256.669,167.417 257.983,168.071 259.379,168.493C259.379,168.493 287.636,177.036 287.636,177.036C287.636,177.036 269.866,200.466 269.866,200.466C268.968,201.649 268.277,202.976 267.817,204.388C267.356,205.81 267.136,207.299 267.166,208.794C267.166,208.794 267.774,238.349 267.774,238.349C267.774,238.349 239.682,228.578 239.682,228.578C238.312,228.102 236.872,227.858 235.422,227.858C233.971,227.858 232.531,228.102 231.161,228.578C231.161,228.578 203.069,238.349 203.069,238.349C203.069,238.349 203.677,208.794 203.677,208.794C203.708,207.299 203.488,205.81 203.026,204.388C202.567,202.976 201.875,201.649 200.978,200.466C200.978,200.466 183.207,177.036 183.207,177.036C183.207,177.036 211.464,168.493 211.464,168.493C212.86,168.071 214.175,167.417 215.354,166.56C216.545,165.694 217.582,164.634 218.423,163.425C218.423,163.425 235.422,138.987 235.422,138.987Z" style="fill:#ff5c0e;"/>
        </g>
        <g transform="matrix(-1.04168,-0.360679,-0.35149,1.01514,372.309,87.4484)">
            <path d="M235.422,129.373L256.851,160.181C257.34,160.883 257.942,161.499 258.635,162.001C259.327,162.504 260.098,162.887 260.917,163.135L296.839,173.995L274.161,203.896C273.644,204.578 273.245,205.341 272.981,206.155C272.717,206.969 272.591,207.821 272.608,208.676L273.38,246.196L237.935,233.868C237.127,233.587 236.277,233.443 235.422,233.443C234.566,233.443 233.717,233.587 232.909,233.868L197.464,246.196L198.235,208.676C198.253,207.821 198.127,206.969 197.863,206.155C197.598,205.341 197.199,204.578 196.682,203.896L174.004,173.995L209.926,163.135C210.745,162.887 211.517,162.504 212.209,162.001C212.901,161.499 213.504,160.883 213.993,160.181L235.422,129.373ZM235.422,138.987L252.421,163.425C253.262,164.634 254.298,165.694 255.489,166.56C256.669,167.417 257.983,168.071 259.379,168.493C259.379,168.493 287.636,177.036 287.636,177.036C287.636,177.036 269.866,200.466 269.866,200.466C268.968,201.649 268.277,202.976 267.817,204.388C267.356,205.81 267.136,207.299 267.166,208.794C267.166,208.794 267.774,238.349 267.774,238.349C267.774,238.349 239.682,228.578 239.682,228.578C238.312,228.102 236.872,227.858 235.422,227.858C233.971,227.858 232.531,228.102 231.161,228.578C231.161,228.578 203.069,238.349 203.069,238.349C203.069,238.349 203.677,208.794 203.677,208.794C203.708,207.299 203.488,205.81 203.026,204.388C202.567,202.976 201.875,201.649 200.978,200.466C200.978,200.466 183.207,177.036 183.207,177.036C183.207,177.036 211.464,168.493 211.464,168.493C212.86,168.071 214.175,167.417 215.354,166.56C216.545,165.694 217.582,164.634 218.423,163.425C218.423,163.425 235.422,138.987 235.422,138.987Z" style="fill:#ff5c0e;"/>
        </g>
        <path d="M117.489,195.223C128.448,186.636 139.41,182.317 150.432,182.34C161.47,182.363 172.512,186.735 183.612,195.243C184.926,196.25 186.811,196.001 187.818,194.687C188.825,193.373 188.576,191.488 187.262,190.481C174.964,181.056 162.673,176.365 150.445,176.34C138.2,176.314 125.963,180.961 113.788,190.501C112.485,191.522 112.256,193.409 113.277,194.712C114.299,196.016 116.186,196.245 117.489,195.223Z" style="fill:#ff5c0e;"/>
    </g>
</svg>
