<?xml version="1.0" encoding="UTF-8" standalone="no"?>
<!DOCTYPE svg PUBLIC "-//W3C//DTD SVG 1.1//EN" "http://www.w3.org/Graphics/SVG/1.1/DTD/svg11.dtd">
<svg width="100%" height="100%" viewBox="0 0 300 345" version="1.1" xmlns="http://www.w3.org/2000/svg" xmlns:xlink="http://www.w3.org/1999/xlink" xml:space="preserve" xmlns:serif="http://www.serif.com/" style="fill-rule:evenodd;clip-rule:evenodd;stroke-linejoin:round;stroke-miterlimit:2;">
    <g id="glasses_14">
        <path d="M0,162.725L0,201.824L9.775,201.824L9.775,221.373L19.549,221.373L19.549,240.922L97.745,240.922L97.745,221.373L107.52,221.373L107.52,201.824L117.295,201.824L117.295,182.275L182.705,182.275L182.705,201.824L192.48,201.824L192.48,221.373L202.255,221.373L202.255,240.922L280.451,240.922L280.451,221.373L290.225,221.373L290.225,201.824L300,201.824L300,162.725L0,162.725Z"/>
        <path d="M49.129,202.522L35.631,202.522L35.631,216.02L49.129,216.02L49.129,202.522ZM35.631,189.024L22.133,189.024L22.133,202.522L35.631,202.522L35.631,189.024ZM62.627,189.024L49.129,189.024L49.129,202.522L62.627,202.522L62.627,189.024ZM22.133,175.525L8.635,175.525L8.635,189.024L22.133,189.024L22.133,175.525ZM49.129,175.525L35.631,175.525L35.631,189.024L49.129,189.024L49.129,175.525Z" style="fill:#fff;"/>
        <g transform="matrix(1,0,0,1,182.705,0)">
            <path d="M49.129,202.522L35.631,202.522L35.631,216.02L49.129,216.02L49.129,202.522ZM35.631,189.024L22.133,189.024L22.133,202.522L35.631,202.522L35.631,189.024ZM62.627,189.024L49.129,189.024L49.129,202.522L62.627,202.522L62.627,189.024ZM22.133,175.525L8.635,175.525L8.635,189.024L22.133,189.024L22.133,175.525ZM49.129,175.525L35.631,175.525L35.631,189.024L49.129,189.024L49.129,175.525Z" style="fill:#fff;"/>
        </g>
    </g>
</svg>
