<?xml version="1.0" encoding="UTF-8" standalone="no"?>
<!DOCTYPE svg PUBLIC "-//W3C//DTD SVG 1.1//EN" "http://www.w3.org/Graphics/SVG/1.1/DTD/svg11.dtd">
<svg width="100%" height="100%" viewBox="0 0 300 345" version="1.1" xmlns="http://www.w3.org/2000/svg" xmlns:xlink="http://www.w3.org/1999/xlink" xml:space="preserve" xmlns:serif="http://www.serif.com/" style="fill-rule:evenodd;clip-rule:evenodd;stroke-linecap:round;">
    <g id="avatar_clothing_51">
        <g>
            <path d="M174.761,345C191.311,332.289 201.967,317.39 201.583,298.39L263.62,298.39L263.62,345L174.761,345Z" style="fill:#cef5ff;fill-rule:nonzero;"/>
            <path d="M213.288,298.39C215.188,315.148 208.147,330.564 194.567,345L206.322,345C217.418,329.263 221.687,313.74 220.399,298.39L213.288,298.39Z" style="fill:#b8f1ff;"/>
            <g transform="matrix(1,0,0,1,14.35,0)">
                <path d="M213.288,298.39C215.188,315.148 208.147,330.564 194.567,345L206.322,345C217.418,329.263 221.687,313.74 220.399,298.39L213.288,298.39Z" style="fill:#b8f1ff;"/>
            </g>
            <g transform="matrix(1,0,0,1,30.4879,0)">
                <path d="M213.288,298.39C215.188,315.148 208.147,330.564 194.567,345L206.322,345C217.418,329.263 221.687,313.74 220.399,298.39L213.288,298.39Z" style="fill:#b8f1ff;"/>
            </g>
            <path d="M174.761,345C185.395,336.833 193.596,327.762 197.998,317.28C198.054,317.147 198.164,316.88 198.164,316.88L263.62,323.904L263.62,345L174.761,345Z" style="fill:#9eecff;fill-opacity:0.5;fill-rule:nonzero;"/>
            <path d="M105.697,298.582C105.745,298.663 105.793,298.745 105.842,298.826C109.296,304.632 190.829,328.178 293.072,329.869C286.437,339.01 275.673,345 263.62,345L36.38,345C19.859,345 5.761,333.746 1.396,318.552C17.313,317.696 31.273,309.925 39.924,298.39L105.586,298.39L105.697,298.582Z" style="fill:#e6faff;fill-rule:nonzero;"/>
            <path d="M105.697,298.582C105.745,298.663 105.793,298.745 105.842,298.826C109.296,304.632 190.829,328.178 293.072,329.869C286.437,339.01 275.673,345 263.62,345L174.761,345C137.234,331.948 108.54,316.279 87.339,298.39L105.586,298.39L105.697,298.582Z" style="fill:#fff;fill-rule:nonzero;"/>
            <path d="M82.187,298.39C101.779,318.909 127.03,333.77 155.91,345C121,334.071 93.151,318.22 71.012,298.39L82.187,298.39Z" style="fill:#fff;"/>
            <path d="M55.723,298.39L67.148,313.172L69.191,298.39L55.723,298.39Z" style="fill:#fff;"/>
            <path d="M150,321.695C181.497,332.345 218.248,339.761 258.538,345L212.093,345C187.975,339.132 168.03,330.946 150,321.695Z" style="fill:#e6faff;"/>
        </g>
        <g>
            <g transform="matrix(1,0,0,1,1.00024,0)">
                <path d="M113.718,308.806C135.658,325.124 157.347,325.878 178.749,308.806" style="fill:none;stroke:#a58053;stroke-width:2px;"/>
            </g>
            <g transform="matrix(0.707107,0.707107,-0.707107,0.707107,281.367,-1.54557)">
                <path d="M150,321.489C150,318.14 147.281,315.421 143.932,315.421L131.797,315.421C128.448,315.421 125.729,318.14 125.729,321.489L125.729,333.625C125.729,336.974 128.448,339.693 131.797,339.693L143.932,339.693C147.281,339.693 150,336.974 150,333.625L150,321.489Z" style="fill:#c39760;"/>
            </g>
            <path d="M159.198,327.074C159.779,328.182 158.564,329.764 157.739,330.644L154.132,334.318" style="fill:none;stroke:#d5ac77;stroke-width:1px;"/>
            <path d="M150.861,317.389L157.402,324.174" style="fill:none;stroke:#d5ac77;stroke-width:1px;"/>
            <g transform="matrix(0.707107,0.707107,-0.707107,0.707107,281.367,-1.54557)">
                <path d="M150,321.489C150,318.14 147.281,315.421 143.932,315.421L131.797,315.421C128.448,315.421 125.729,318.14 125.729,321.489L125.729,333.625C125.729,336.974 128.448,339.693 131.797,339.693L143.932,339.693C147.281,339.693 150,336.974 150,333.625L150,321.489ZM148.5,321.489L148.5,333.625C148.5,336.146 146.453,338.193 143.932,338.193C143.932,338.193 131.797,338.193 131.797,338.193C129.275,338.193 127.229,336.146 127.229,333.625L127.229,321.489C127.229,318.968 129.275,316.921 131.797,316.921L143.932,316.921C146.453,316.921 148.5,318.968 148.5,321.489Z" style="fill:#a58053;"/>
            </g>
            <path d="M159.205,322.366L141.948,339.433L142.943,340.429C143.263,340.749 143.611,341.026 143.977,341.259L161.008,324.416C160.76,324.007 160.459,323.62 160.106,323.266L159.205,322.366ZM150.98,314.202L133.797,331.196C133.967,331.423 134.156,331.641 134.362,331.848L140.203,337.689L157.461,320.621L151.524,314.685C151.351,314.511 151.169,314.35 150.98,314.202Z" style="fill:#e9c9a0;fill-opacity:0.5;"/>
            <g>
                <g transform="matrix(0.490867,0.490867,-0.490867,0.490867,240.348,99.0971)">
                    <path d="M150,321.489C150,318.14 147.281,315.421 143.932,315.421L131.797,315.421C128.448,315.421 125.729,318.14 125.729,321.489L125.729,333.625C125.729,336.974 128.448,339.693 131.797,339.693L143.932,339.693C147.281,339.693 150,336.974 150,333.625L150,321.489Z" style="fill:#ac1f07;"/>
                </g>
                <path d="M147.234,317.389L147.234,337.725C148.312,337.725 149.39,337.315 150.212,336.493L156.169,330.536C157.813,328.892 157.813,326.222 156.169,324.579L150.212,318.622C149.39,317.8 148.312,317.389 147.234,317.389Z" style="fill:#ef2400;"/>
                <path d="M147.234,327.557L157.402,327.557C157.402,326.479 156.991,325.401 156.169,324.579L150.212,318.622C149.39,317.8 148.312,317.389 147.234,317.389L147.234,327.557Z" style="fill:#ff5436;"/>
            </g>
            <g transform="matrix(0.490867,0.490867,-0.490867,0.490867,240.348,99.0971)">
                <path d="M150,321.489C150,318.14 147.281,315.421 143.932,315.421L131.797,315.421C128.448,315.421 125.729,318.14 125.729,321.489L125.729,333.625C125.729,336.974 128.448,339.693 131.797,339.693L143.932,339.693C147.281,339.693 150,336.974 150,333.625L150,321.489ZM147.839,321.489L147.839,333.625C147.839,335.781 146.089,337.532 143.932,337.532C143.932,337.532 131.797,337.532 131.797,337.532C129.64,337.532 127.889,335.781 127.889,333.625C127.889,333.625 127.889,321.489 127.889,321.489C127.889,319.333 129.64,317.582 131.797,317.582L143.932,317.582C146.089,317.582 147.839,319.333 147.839,321.489Z" style="fill:#722600;"/>
            </g>
        </g>
        <g>
            <path d="M-0,308.62L-0,308.62L-0,262.01C-0,281.967 16.423,298.39 36.38,298.39L263.62,298.39C283.577,298.39 300,281.967 300,262.01L300,308.62L300,308.62L300,268.532C300,288.489 283.577,304.912 263.62,304.912L36.38,304.912C16.423,304.912 -0,288.489 -0,268.532L-0,308.62Z" style="fill:#c39760;fill-rule:nonzero;"/>
            <g transform="matrix(1,0,0,1,0,5.10449)">
                <path d="M-0,308.62L-0,308.62L-0,262.01C-0,281.967 16.423,298.39 36.38,298.39L263.62,298.39C283.577,298.39 300,281.967 300,262.01L300,308.62L300,308.62L300,268.532C300,288.489 283.577,304.912 263.62,304.912L36.38,304.912C16.423,304.912 -0,288.489 -0,268.532L-0,308.62Z" style="fill:#c39760;fill-rule:nonzero;"/>
            </g>
            <path d="M-0,308.62L-0,262.01C-0,281.967 16.423,298.39 36.38,298.39L263.62,298.39C283.577,298.39 300,281.967 300,262.01L300,308.62L300,268.532C300,288.489 283.577,304.912 263.62,304.912L36.38,304.912C16.423,304.912 -0,288.489 -0,268.532L-0,308.62ZM4.166,281.831C10.869,292.634 22.844,299.89 36.38,299.89L263.62,299.89C277.156,299.89 289.131,292.634 295.834,281.831C290.565,294.448 278.057,303.412 263.62,303.412C263.62,303.412 36.38,303.412 36.38,303.412C21.943,303.412 9.435,294.448 4.166,281.831Z" style="fill:#a58053;"/>
            <path d="M135.454,310.016L59.09,310.016L85.258,298.39L161.623,298.39L135.454,310.016ZM183.083,310.016L146.437,310.016L172.606,298.39L209.251,298.39L183.083,310.016ZM268.594,298.046L241.651,310.016L228.065,310.016L254.234,298.39L263.62,298.39C265.306,298.39 266.968,298.273 268.594,298.046Z" style="fill:#e9c9a0;fill-opacity:0.5;"/>
            <g transform="matrix(1,0,0,1,0,5.10449)">
                <path d="M-0,308.62L-0,262.01C-0,281.967 16.423,298.39 36.38,298.39L263.62,298.39C283.577,298.39 300,281.967 300,262.01L300,308.62L300,268.532C300,288.489 283.577,304.912 263.62,304.912L36.38,304.912C16.423,304.912 -0,288.489 -0,268.532L-0,308.62ZM4.166,281.831C10.869,292.634 22.844,299.89 36.38,299.89L263.62,299.89C277.156,299.89 289.131,292.634 295.834,281.831C290.565,294.448 278.057,303.412 263.62,303.412C263.62,303.412 36.38,303.412 36.38,303.412C21.943,303.412 9.435,294.448 4.166,281.831Z" style="fill:#a58053;"/>
            </g>
        </g>
    </g>
</svg>
