<?xml version="1.0" encoding="UTF-8" standalone="no"?>
<!DOCTYPE svg PUBLIC "-//W3C//DTD SVG 1.1//EN" "http://www.w3.org/Graphics/SVG/1.1/DTD/svg11.dtd">
<svg width="100%" height="100%" viewBox="0 0 300 345" version="1.1" xmlns="http://www.w3.org/2000/svg" xmlns:xlink="http://www.w3.org/1999/xlink" xml:space="preserve" xmlns:serif="http://www.serif.com/" style="fill-rule:evenodd;clip-rule:evenodd;stroke-linejoin:round;stroke-miterlimit:2;">
    <g id="avatar_clothing_29">
        <path d="M300,308.62C300,328.577 283.577,345 263.62,345L36.38,345C16.423,345 -0,328.577 -0,308.62L-0,301.302L113.284,312.405L186.716,312.405L300,303.481L300,308.62Z" style="fill:#e3e1ff;fill-rule:nonzero;"/>
        <g transform="matrix(1,0,0,1,0,-9.00894)">
            <path d="M155.87,331.184C164.844,330.762 169.848,335.401 172.345,343.234C159.549,343.818 160.126,337.649 155.87,334.186" style="fill:#b32214;"/>
            <g transform="matrix(-1,0,0,1,305.011,0)">
                <path d="M155.87,331.184C164.844,330.762 169.848,335.401 172.345,343.234C159.549,343.818 160.126,337.649 155.87,334.186" style="fill:#b32214;"/>
            </g>
            <path d="M97.748,311.599L149.675,331.184L149.675,336.252C123.876,334.991 102.248,326.395 84.878,310.311L97.748,311.599Z" style="fill:#de2a19;"/>
            <g transform="matrix(-1,0,0,1,305.545,0)">
                <path d="M105.306,311.599L149.675,331.184L149.675,336.252C123.876,334.991 102.248,326.395 84.878,310.311L105.306,311.599Z" style="fill:#de2a19;"/>
            </g>
            <path d="M157.549,330.5C157.549,330.019 157.159,329.629 156.678,329.629L148.42,329.629C147.939,329.629 147.549,330.019 147.549,330.5L147.549,336.02C147.549,336.501 147.939,336.891 148.42,336.891L156.678,336.891C157.159,336.891 157.549,336.501 157.549,336.02L157.549,330.5Z" style="fill:#b32214;"/>
        </g>
        <path d="M-0,308.063L0,262L-0,262.01C-0,281.962 16.418,298.38 36.37,298.38L90.675,298.38L147.321,320.048L157.338,320.048L205.594,298.38L263.62,298.38C283.577,298.38 300,281.957 300,262L300,308.063L152.73,322.716L-0,308.063Z" style="fill:#1a1741;fill-rule:nonzero;"/>
        <path d="M169.654,314.518L300,301.811L300,302.822L166.475,315.946L169.654,314.518ZM-0,301.302L-0,302.307L136.399,315.87L132.384,314.335L0.071,301.307C0.047,301.304 0.024,301.302 -0,301.302Z" style="fill:#fff;"/>
    </g>
</svg>
