<?xml version="1.0" encoding="UTF-8" standalone="no"?>
<!DOCTYPE svg PUBLIC "-//W3C//DTD SVG 1.1//EN" "http://www.w3.org/Graphics/SVG/1.1/DTD/svg11.dtd">
<svg width="100%" height="100%" viewBox="0 0 300 345" version="1.1" xmlns="http://www.w3.org/2000/svg" xmlns:xlink="http://www.w3.org/1999/xlink" xml:space="preserve" xmlns:serif="http://www.serif.com/" style="fill-rule:evenodd;clip-rule:evenodd;stroke-linejoin:round;stroke-miterlimit:2;">
    <g id="avatar_clothing_46">
        <g transform="matrix(1,0,0,0.640723,0,123.951)">
            <path d="M240.679,345L59.321,345L58.946,298.829L240.304,298.829L240.679,345Z" style="fill:#f3e8ec;fill-rule:nonzero;"/>
        </g>
        <path d="M-0,262.01C-0,281.967 16.423,298.39 36.38,298.39L59.321,298.39C60.275,305.071 64.167,310.858 71.867,315.485L71.867,345L36.38,345C16.423,345 -0,328.577 -0,308.62L-0,262.01ZM300,262.01C300,281.967 283.577,298.39 263.62,298.39L240.679,298.39C239.725,305.071 235.833,310.858 228.133,315.485L228.133,345L263.62,345C283.577,345 300,328.577 300,308.62L300,262.01Z" style="fill:#4680b7;fill-rule:nonzero;"/>
        <path d="M284.831,291.49L284.853,291.493C285.655,292.073 286.376,292.8 286.95,293.606C287.107,294.583 287.103,295.607 286.939,296.583C286.51,297.176 286,297.725 285.438,298.203C285.485,298.168 285.533,298.133 285.582,298.099C286.559,297.942 287.583,297.946 288.558,298.11C288.606,298.144 288.652,298.179 288.699,298.214C288.128,297.725 287.612,297.163 287.18,296.556C287.023,295.579 287.027,294.555 287.191,293.579C287.771,292.777 288.498,292.056 289.304,291.482C290.281,291.325 291.305,291.329 292.281,291.493C293.082,292.073 293.804,292.8 294.378,293.606C294.535,294.583 294.531,295.607 294.366,296.583C293.938,297.176 293.428,297.725 292.865,298.203C292.913,298.168 292.961,298.133 293.009,298.099C293.986,297.942 295.011,297.946 295.986,298.11C296.033,298.144 296.08,298.179 296.127,298.214C295.556,297.725 295.04,297.163 294.608,296.556C294.451,295.579 294.454,294.555 294.619,293.579C295.199,292.777 295.926,292.056 296.732,291.482C297.709,291.325 298.733,291.329 299.708,291.493C299.807,291.565 299.904,291.638 300,291.714L300,308.62C300,311.554 299.645,314.411 298.976,317.151C298.739,316.888 298.517,316.612 298.313,316.327C298.156,315.35 298.16,314.325 298.324,313.35C298.753,312.757 299.263,312.207 299.825,311.729C299.778,311.765 299.73,311.8 299.681,311.834C298.704,311.991 297.68,311.987 296.705,311.823C296.657,311.789 296.611,311.754 296.564,311.719C297.135,312.207 297.651,312.77 298.083,313.377C298.24,314.354 298.236,315.378 298.072,316.354C297.492,317.155 296.765,317.877 295.959,318.451C294.982,318.608 293.958,318.604 292.982,318.439C292.94,318.409 292.897,318.377 292.855,318.346C293.422,318.832 293.933,319.39 294.363,319.993C294.519,320.97 294.516,321.994 294.351,322.97C293.922,323.563 293.413,324.112 292.85,324.59C292.898,324.555 292.946,324.52 292.994,324.486C293.971,324.329 294.995,324.333 295.971,324.497C296.054,324.557 296.137,324.619 296.218,324.682C294.02,329.095 290.95,333.011 287.239,336.199L287.165,336.097C287.008,335.12 287.012,334.096 287.176,333.12C287.548,332.605 287.981,332.124 288.457,331.693C287.532,331.835 286.566,331.834 285.641,331.689C286.123,332.129 286.56,332.621 286.935,333.147C287.092,334.124 287.088,335.148 286.924,336.124C286.637,336.52 286.314,336.897 285.964,337.246C285.525,337.59 285.078,337.925 284.624,338.249C283.704,338.377 282.748,338.364 281.834,338.21C281.787,338.176 281.74,338.141 281.694,338.106C282.145,338.492 282.562,338.924 282.93,339.388C280.779,340.748 278.48,341.89 276.064,342.781L276.015,342.713C275.858,341.736 275.862,340.712 276.026,339.737C276.455,339.143 276.964,338.594 277.527,338.116C277.479,338.152 277.431,338.187 277.383,338.221C276.406,338.378 275.382,338.374 274.406,338.21C274.359,338.176 274.312,338.141 274.266,338.106C274.837,338.594 275.353,339.157 275.785,339.764C275.942,340.741 275.938,341.765 275.774,342.74C275.725,342.808 275.676,342.874 275.625,342.94C273.856,343.566 272.026,344.059 270.146,344.405C269.559,343.909 269.029,343.335 268.587,342.713C268.43,341.736 268.434,340.712 268.598,339.737C269.027,339.143 269.537,338.594 270.099,338.116C270.052,338.152 270.004,338.187 269.955,338.221C268.978,338.378 267.954,338.374 266.978,338.21C266.931,338.176 266.885,338.141 266.838,338.106C267.409,338.594 267.925,339.157 268.357,339.764C268.514,340.741 268.51,341.765 268.346,342.74C267.766,343.542 267.039,344.264 266.233,344.837C265.256,344.994 264.232,344.991 263.256,344.826C262.455,344.246 261.733,343.519 261.159,342.713C261.002,341.736 261.006,340.712 261.171,339.737C261.599,339.143 262.109,338.594 262.671,338.116C262.624,338.152 262.576,338.187 262.528,338.221C261.551,338.378 260.526,338.374 259.551,338.21C259.504,338.176 259.457,338.141 259.41,338.106C259.981,338.594 260.497,339.157 260.929,339.764C261.086,340.741 261.083,341.765 260.918,342.74C260.338,343.542 259.611,344.264 258.805,344.837C257.828,344.994 256.804,344.991 255.829,344.826C255.027,344.246 254.305,343.519 253.732,342.713C253.575,341.736 253.578,340.712 253.743,339.737C254.172,339.143 254.681,338.594 255.244,338.116C255.196,338.152 255.148,338.187 255.1,338.221C254.123,338.378 253.099,338.374 252.123,338.21C252.076,338.176 252.029,338.141 251.983,338.106C252.554,338.594 253.07,339.157 253.502,339.764C253.659,340.741 253.655,341.765 253.49,342.74C252.911,343.542 252.184,344.264 251.378,344.837C250.401,344.994 249.377,344.991 248.401,344.826C247.599,344.246 246.878,343.519 246.304,342.713C246.147,341.736 246.151,340.712 246.315,339.737C246.744,339.143 247.253,338.594 247.816,338.116C247.768,338.152 247.72,338.187 247.672,338.221C246.695,338.378 245.671,338.374 244.695,338.21C244.648,338.176 244.601,338.141 244.555,338.106C245.126,338.594 245.642,339.157 246.074,339.764C246.231,340.741 246.227,341.765 246.063,342.74C245.483,343.542 244.756,344.264 243.95,344.837C242.973,344.994 241.949,344.991 240.973,344.826C240.171,344.246 239.45,343.519 238.876,342.713C238.719,341.736 238.723,340.712 238.887,339.737C239.316,339.143 239.826,338.594 240.388,338.116C240.341,338.152 240.293,338.187 240.244,338.221C239.267,338.378 238.243,338.374 237.268,338.21C237.221,338.176 237.174,338.141 237.127,338.106C237.698,338.594 238.214,339.157 238.646,339.764C238.803,340.741 238.799,341.765 238.635,342.74C238.055,343.542 237.328,344.264 236.522,344.837C235.545,344.994 234.521,344.991 233.545,344.826C232.744,344.246 232.022,343.519 231.448,342.713C231.291,341.736 231.295,340.712 231.46,339.737C231.889,339.143 232.398,338.594 232.961,338.116C232.913,338.152 232.865,338.187 232.817,338.221C231.84,338.378 230.816,338.374 229.84,338.21C229.211,337.755 228.631,337.209 228.133,336.606L228.133,332.632C228.639,332.025 229.228,331.478 229.867,331.023C230.81,330.872 231.797,330.87 232.742,331.018C232.26,330.578 231.823,330.086 231.448,329.559C231.291,328.583 231.295,327.558 231.46,326.583C231.889,325.99 232.398,325.44 232.961,324.962C232.913,324.998 232.865,325.033 232.817,325.067C231.84,325.224 230.816,325.22 229.84,325.056C229.211,324.601 228.631,324.055 228.133,323.452L228.133,319.478C228.639,318.871 229.228,318.324 229.867,317.869C230.844,317.712 231.868,317.716 232.844,317.88C233.645,318.46 234.367,319.187 234.941,319.993C235.098,320.97 235.094,321.994 234.929,322.97C234.501,323.563 233.991,324.112 233.429,324.59C233.476,324.555 233.524,324.52 233.572,324.486C234.549,324.329 235.574,324.333 236.549,324.497C236.596,324.531 236.643,324.565 236.69,324.601C236.119,324.112 235.603,323.55 235.171,322.943C235.014,321.966 235.017,320.942 235.182,319.966C235.762,319.164 236.489,318.443 237.295,317.869C238.272,317.712 239.296,317.716 240.271,317.88C240.314,317.911 240.357,317.942 240.399,317.974C239.832,317.488 239.32,316.929 238.891,316.327C238.734,315.35 238.738,314.325 238.902,313.35C239.331,312.757 239.841,312.207 240.403,311.729C240.356,311.765 240.308,311.8 240.26,311.834C239.283,311.991 238.258,311.987 237.283,311.823C236.661,311.373 236.088,310.835 235.594,310.241L242.409,306.928C242.54,307.854 242.527,308.817 242.372,309.737C241.943,310.33 241.434,310.879 240.871,311.357C240.919,311.322 240.967,311.287 241.015,311.253C241.992,311.096 243.016,311.1 243.992,311.264C244.039,311.298 244.086,311.333 244.132,311.368C243.562,310.879 243.046,310.317 242.613,309.71C242.462,308.766 242.46,307.777 242.609,306.831L247.239,304.581C247.364,304.595 247.489,304.611 247.612,304.631C247.557,304.581 247.503,304.53 247.45,304.478L253.629,301.474C253.642,302.053 253.601,302.635 253.506,303.2C253.133,303.714 252.701,304.196 252.225,304.627C253.15,304.485 254.115,304.486 255.04,304.631C254.558,304.191 254.121,303.699 253.747,303.173C253.657,302.615 253.62,302.042 253.635,301.472L259.494,298.624C260.038,299.098 260.53,299.64 260.945,300.223C261.102,301.2 261.098,302.224 260.933,303.2C260.561,303.714 260.128,304.196 259.653,304.627C260.577,304.485 261.543,304.486 262.468,304.631C261.986,304.191 261.549,303.699 261.174,303.173C261.017,302.196 261.021,301.172 261.186,300.196C261.615,299.603 262.124,299.053 262.687,298.575C262.639,298.611 262.591,298.646 262.543,298.68C261.566,298.837 260.542,298.833 259.566,298.669L259.5,298.621L259.975,298.39L263.62,298.39C266.234,298.39 268.788,298.108 271.253,297.573C271.04,297.794 270.816,298.005 270.582,298.203C270.63,298.168 270.678,298.133 270.726,298.099C271.703,297.942 272.727,297.946 273.703,298.11C273.75,298.144 273.797,298.179 273.843,298.214C273.479,297.902 273.136,297.56 272.824,297.195C275.193,296.568 277.47,295.705 279.627,294.635C279.657,295.287 279.618,295.946 279.511,296.583C279.082,297.176 278.573,297.725 278.01,298.203C278.058,298.168 278.106,298.133 278.154,298.099C279.131,297.942 280.155,297.946 281.131,298.11C281.178,298.144 281.225,298.179 281.271,298.214C280.7,297.725 280.184,297.163 279.752,296.556C279.65,295.923 279.616,295.271 279.65,294.624C281.466,293.722 283.198,292.672 284.831,291.49ZM233.647,331.689C234.572,331.834 235.538,331.835 236.462,331.693C235.987,332.124 235.554,332.605 235.182,333.12C235.017,334.096 235.014,335.12 235.171,336.097C235.603,336.704 236.119,337.266 236.69,337.754C236.643,337.719 236.596,337.685 236.549,337.651C235.574,337.486 234.549,337.483 233.572,337.64C233.524,337.674 233.476,337.709 233.429,337.744C233.991,337.266 234.501,336.717 234.929,336.124C235.094,335.148 235.098,334.124 234.941,333.147C234.566,332.621 234.129,332.129 233.647,331.689ZM263.358,331.689C264.283,331.834 265.249,331.835 266.173,331.693C265.698,332.124 265.265,332.605 264.893,333.12C264.728,334.096 264.725,335.12 264.881,336.097C265.314,336.704 265.83,337.266 266.401,337.754C266.354,337.719 266.307,337.685 266.26,337.651C265.284,337.486 264.26,337.483 263.283,337.64C263.235,337.674 263.187,337.709 263.139,337.744C263.702,337.266 264.211,336.717 264.64,336.124C264.805,335.148 264.809,334.124 264.652,333.147C264.277,332.621 263.84,332.129 263.358,331.689ZM278.214,331.689C279.139,331.834 280.104,331.835 281.029,331.693C280.553,332.124 280.12,332.605 279.748,333.12C279.584,334.096 279.58,335.12 279.737,336.097C280.169,336.704 280.685,337.266 281.256,337.754C281.209,337.719 281.163,337.685 281.116,337.651C280.14,337.486 279.116,337.483 278.139,337.64C278.091,337.674 278.043,337.709 277.995,337.744C278.557,337.266 279.067,336.717 279.496,336.124C279.66,335.148 279.664,334.124 279.507,333.147C279.133,332.621 278.695,332.129 278.214,331.689ZM270.786,331.689C271.711,331.834 272.676,331.835 273.601,331.693C273.126,332.124 272.693,332.605 272.32,333.12C272.156,334.096 272.152,335.12 272.309,336.097C272.741,336.704 273.257,337.266 273.828,337.754C273.782,337.719 273.735,337.685 273.688,337.651C272.712,337.486 271.688,337.483 270.711,337.64C270.663,337.674 270.615,337.709 270.567,337.744C271.13,337.266 271.639,336.717 272.068,336.124C272.232,335.148 272.236,334.124 272.079,333.147C271.705,332.621 271.268,332.129 270.786,331.689ZM241.075,331.689C242,331.834 242.965,331.835 243.89,331.693C243.415,332.124 242.982,332.605 242.61,333.12C242.445,334.096 242.441,335.12 242.598,336.097C243.03,336.704 243.546,337.266 244.117,337.754C244.071,337.719 244.024,337.685 243.977,337.651C243.001,337.486 241.977,337.483 241,337.64C240.952,337.674 240.904,337.709 240.856,337.744C241.419,337.266 241.928,336.717 242.357,336.124C242.522,335.148 242.525,334.124 242.368,333.147C241.994,332.621 241.557,332.129 241.075,331.689ZM248.503,331.689C249.428,331.834 250.393,331.835 251.318,331.693C250.842,332.124 250.409,332.605 250.037,333.12C249.873,334.096 249.869,335.12 250.026,336.097C250.458,336.704 250.974,337.266 251.545,337.754C251.499,337.719 251.452,337.685 251.405,337.651C250.429,337.486 249.405,337.483 248.428,337.64C248.38,337.674 248.332,337.709 248.284,337.744C248.847,337.266 249.356,336.717 249.785,336.124C249.949,335.148 249.953,334.124 249.796,333.147C249.422,332.621 248.984,332.129 248.503,331.689ZM255.931,331.689C256.856,331.834 257.821,331.835 258.746,331.693C258.27,332.124 257.837,332.605 257.465,333.12C257.301,334.096 257.297,335.12 257.454,336.097C257.886,336.704 258.402,337.266 258.973,337.754C258.926,337.719 258.879,337.685 258.832,337.651C257.857,337.486 256.833,337.483 255.856,337.64C255.807,337.674 255.759,337.709 255.712,337.744C256.274,337.266 256.784,336.717 257.213,336.124C257.377,335.148 257.381,334.124 257.224,333.147C256.849,332.621 256.412,332.129 255.931,331.689ZM284.736,331.018C283.811,330.873 282.845,330.872 281.921,331.014C282.396,330.583 282.829,330.101 283.201,329.587C283.366,328.611 283.37,327.587 283.213,326.61C282.78,326.003 282.264,325.44 281.694,324.952C281.74,324.987 281.787,325.022 281.834,325.056C282.81,325.22 283.834,325.224 284.811,325.067C284.859,325.033 284.907,324.998 284.955,324.962C284.392,325.44 283.883,325.99 283.454,326.583C283.289,327.558 283.286,328.583 283.442,329.559C283.817,330.086 284.254,330.578 284.736,331.018ZM247.597,331.018C246.672,330.873 245.707,330.872 244.782,331.014C245.258,330.583 245.691,330.101 246.063,329.587C246.227,328.611 246.231,327.587 246.074,326.61C245.642,326.003 245.126,325.44 244.555,324.952C244.601,324.987 244.648,325.022 244.695,325.056C245.671,325.22 246.695,325.224 247.672,325.067C247.72,325.033 247.768,324.998 247.816,324.962C247.253,325.44 246.744,325.99 246.315,326.583C246.151,327.558 246.147,328.583 246.304,329.559C246.678,330.086 247.116,330.578 247.597,331.018ZM292.164,331.018C291.239,330.873 290.273,330.872 289.348,331.014C289.824,330.583 290.257,330.101 290.629,329.587C290.793,328.611 290.797,327.587 290.64,326.61C290.208,326.003 289.692,325.44 289.121,324.952C289.168,324.987 289.215,325.022 289.262,325.056C290.237,325.22 291.262,325.224 292.238,325.067C292.287,325.033 292.335,324.998 292.382,324.962C291.82,325.44 291.31,325.99 290.881,326.583C290.717,327.558 290.713,328.583 290.87,329.559C291.245,330.086 291.682,330.578 292.164,331.018ZM262.453,331.018C261.528,330.873 260.562,330.872 259.638,331.014C260.113,330.583 260.546,330.101 260.918,329.587C261.083,328.611 261.086,327.587 260.929,326.61C260.497,326.003 259.981,325.44 259.41,324.952C259.457,324.987 259.504,325.022 259.551,325.056C260.526,325.22 261.551,325.224 262.528,325.067C262.576,325.033 262.624,324.998 262.671,324.962C262.109,325.44 261.599,325.99 261.171,326.583C261.006,327.558 261.002,328.583 261.159,329.559C261.534,330.086 261.971,330.578 262.453,331.018ZM269.88,331.018C268.955,330.873 267.99,330.872 267.065,331.014C267.541,330.583 267.974,330.101 268.346,329.587C268.51,328.611 268.514,327.587 268.357,326.61C267.925,326.003 267.409,325.44 266.838,324.952C266.885,324.987 266.931,325.022 266.978,325.056C267.954,325.22 268.978,325.224 269.955,325.067C270.004,325.033 270.052,324.998 270.099,324.962C269.537,325.44 269.027,325.99 268.598,326.583C268.434,327.558 268.43,328.583 268.587,329.559C268.961,330.086 269.399,330.578 269.88,331.018ZM240.169,331.018C239.244,330.873 238.279,330.872 237.354,331.014C237.83,330.583 238.263,330.101 238.635,329.587C238.799,328.611 238.803,327.587 238.646,326.61C238.214,326.003 237.698,325.44 237.127,324.952C237.174,324.987 237.221,325.022 237.268,325.056C238.243,325.22 239.267,325.224 240.244,325.067C240.293,325.033 240.341,324.998 240.388,324.962C239.826,325.44 239.316,325.99 238.887,326.583C238.723,327.558 238.719,328.583 238.876,329.559C239.251,330.086 239.688,330.578 240.169,331.018ZM255.025,331.018C254.1,330.873 253.135,330.872 252.21,331.014C252.685,330.583 253.118,330.101 253.49,329.587C253.655,328.611 253.659,327.587 253.502,326.61C253.07,326.003 252.554,325.44 251.983,324.952C252.029,324.987 252.076,325.022 252.123,325.056C253.099,325.22 254.123,325.224 255.1,325.067C255.148,325.033 255.196,324.998 255.244,324.962C254.681,325.44 254.172,325.99 253.743,326.583C253.578,327.558 253.575,328.583 253.732,329.559C254.106,330.086 254.543,330.578 255.025,331.018ZM277.308,331.018C276.383,330.873 275.418,330.872 274.493,331.014C274.969,330.583 275.401,330.101 275.774,329.587C275.938,328.611 275.942,327.587 275.785,326.61C275.353,326.003 274.837,325.44 274.266,324.952C274.312,324.987 274.359,325.022 274.406,325.056C275.382,325.22 276.406,325.224 277.383,325.067C277.431,325.033 277.479,324.998 277.527,324.962C276.964,325.44 276.455,325.99 276.026,326.583C275.862,327.558 275.858,328.583 276.015,329.559C276.389,330.086 276.827,330.578 277.308,331.018ZM296.222,324.675C295.62,324.172 295.077,323.586 294.625,322.952C294.468,321.975 294.472,320.951 294.636,319.975C295.216,319.173 295.943,318.452 296.749,317.878C297.426,317.769 298.125,317.738 298.816,317.783C298.184,320.183 297.31,322.489 296.222,324.675ZM288.687,318.337C288.12,318.817 287.607,319.369 287.176,319.966C287.012,320.942 287.008,321.966 287.165,322.943C287.597,323.55 288.113,324.112 288.684,324.601C288.637,324.565 288.59,324.531 288.543,324.497C287.568,324.333 286.543,324.329 285.567,324.486C285.518,324.52 285.47,324.555 285.423,324.59C285.985,324.112 286.495,323.563 286.924,322.97C287.088,321.994 287.092,320.97 286.935,319.993C286.506,319.39 285.994,318.832 285.427,318.346C285.47,318.377 285.512,318.409 285.555,318.439C286.53,318.604 287.555,318.608 288.531,318.451C288.584,318.413 288.635,318.376 288.687,318.337ZM266.404,318.337C265.837,318.817 265.324,319.369 264.893,319.966C264.728,320.942 264.725,321.966 264.881,322.943C265.314,323.55 265.83,324.112 266.401,324.601C266.354,324.565 266.307,324.531 266.26,324.497C265.284,324.333 264.26,324.329 263.283,324.486C263.235,324.52 263.187,324.555 263.139,324.59C263.702,324.112 264.211,323.563 264.64,322.97C264.805,321.994 264.809,320.97 264.652,319.993C264.222,319.39 263.711,318.832 263.144,318.346C263.186,318.377 263.229,318.409 263.271,318.439C264.247,318.604 265.271,318.608 266.248,318.451C266.3,318.413 266.352,318.376 266.404,318.337ZM281.259,318.337C280.693,318.817 280.18,319.369 279.748,319.966C279.584,320.942 279.58,321.966 279.737,322.943C280.169,323.55 280.685,324.112 281.256,324.601C281.209,324.565 281.163,324.531 281.116,324.497C280.14,324.333 279.116,324.329 278.139,324.486C278.091,324.52 278.043,324.555 277.995,324.59C278.557,324.112 279.067,323.563 279.496,322.97C279.66,321.994 279.664,320.97 279.507,319.993C279.078,319.39 278.566,318.832 278,318.346C278.042,318.377 278.084,318.409 278.127,318.439C279.103,318.604 280.127,318.608 281.104,318.451C281.156,318.413 281.208,318.376 281.259,318.337ZM273.831,318.337C273.265,318.817 272.752,319.369 272.32,319.966C272.156,320.942 272.152,321.966 272.309,322.943C272.741,323.55 273.257,324.112 273.828,324.601C273.782,324.565 273.735,324.531 273.688,324.497C272.712,324.333 271.688,324.329 270.711,324.486C270.663,324.52 270.615,324.555 270.567,324.59C271.13,324.112 271.639,323.563 272.068,322.97C272.232,321.994 272.236,320.97 272.079,319.993C271.65,319.39 271.138,318.832 270.572,318.346C270.614,318.377 270.656,318.409 270.699,318.439C271.675,318.604 272.699,318.608 273.676,318.451C273.728,318.413 273.78,318.376 273.831,318.337ZM251.548,318.337C250.982,318.817 250.469,319.369 250.037,319.966C249.873,320.942 249.869,321.966 250.026,322.943C250.458,323.55 250.974,324.112 251.545,324.601C251.499,324.565 251.452,324.531 251.405,324.497C250.429,324.333 249.405,324.329 248.428,324.486C248.38,324.52 248.332,324.555 248.284,324.59C248.847,324.112 249.356,323.563 249.785,322.97C249.949,321.994 249.953,320.97 249.796,319.993C249.367,319.39 248.855,318.832 248.289,318.346C248.331,318.377 248.373,318.409 248.416,318.439C249.392,318.604 250.416,318.608 251.393,318.451C251.445,318.413 251.497,318.376 251.548,318.337ZM244.12,318.337C243.554,318.817 243.041,319.369 242.61,319.966C242.445,320.942 242.441,321.966 242.598,322.943C243.03,323.55 243.546,324.112 244.117,324.601C244.071,324.565 244.024,324.531 243.977,324.497C243.001,324.333 241.977,324.329 241,324.486C240.952,324.52 240.904,324.555 240.856,324.59C241.419,324.112 241.928,323.563 242.357,322.97C242.522,321.994 242.525,320.97 242.368,319.993C241.939,319.39 241.427,318.832 240.861,318.346C240.903,318.377 240.946,318.409 240.988,318.439C241.964,318.604 242.988,318.608 243.965,318.451C244.017,318.413 244.069,318.376 244.12,318.337ZM258.976,318.337C258.409,318.817 257.896,319.369 257.465,319.966C257.301,320.942 257.297,321.966 257.454,322.943C257.886,323.55 258.402,324.112 258.973,324.601C258.926,324.565 258.879,324.531 258.832,324.497C257.857,324.333 256.833,324.329 255.856,324.486C255.807,324.52 255.759,324.555 255.712,324.59C256.274,324.112 256.784,323.563 257.213,322.97C257.377,321.994 257.381,320.97 257.224,319.993C256.795,319.39 256.283,318.832 255.717,318.346C255.759,318.377 255.801,318.409 255.844,318.439C256.819,318.604 257.844,318.608 258.82,318.451C258.873,318.413 258.924,318.376 258.976,318.337ZM247.826,317.974C247.784,317.942 247.742,317.911 247.699,317.88C246.723,317.716 245.699,317.712 244.722,317.869C244.67,317.906 244.618,317.944 244.567,317.982C245.133,317.502 245.646,316.95 246.078,316.354C246.242,315.378 246.246,314.354 246.089,313.377C245.657,312.77 245.141,312.207 244.57,311.719C244.617,311.754 244.663,311.789 244.71,311.823C245.686,311.987 246.71,311.991 247.687,311.834C247.736,311.8 247.784,311.765 247.831,311.729C247.269,312.207 246.759,312.757 246.33,313.35C246.166,314.325 246.162,315.35 246.319,316.327C246.748,316.929 247.26,317.488 247.826,317.974ZM277.537,317.974C277.495,317.942 277.453,317.911 277.41,317.88C276.434,317.716 275.41,317.712 274.433,317.869C274.381,317.906 274.329,317.944 274.278,317.982C274.844,317.502 275.357,316.95 275.789,316.354C275.953,315.378 275.957,314.354 275.8,313.377C275.368,312.77 274.852,312.207 274.281,311.719C274.328,311.754 274.374,311.789 274.421,311.823C275.397,311.987 276.421,311.991 277.398,311.834C277.446,311.8 277.494,311.765 277.542,311.729C276.98,312.207 276.47,312.757 276.041,313.35C275.877,314.325 275.873,315.35 276.03,316.327C276.459,316.929 276.971,317.488 277.537,317.974ZM292.393,317.974C292.351,317.942 292.308,317.911 292.266,317.88C291.29,317.716 290.266,317.712 289.289,317.869C289.237,317.906 289.185,317.944 289.133,317.982C289.7,317.502 290.213,316.95 290.644,316.354C290.809,315.378 290.812,314.354 290.655,313.377C290.223,312.77 289.707,312.207 289.136,311.719C289.183,311.754 289.23,311.789 289.277,311.823C290.252,311.987 291.277,311.991 292.254,311.834C292.302,311.8 292.35,311.765 292.398,311.729C291.835,312.207 291.325,312.757 290.897,313.35C290.732,314.325 290.728,315.35 290.885,316.327C291.314,316.929 291.826,317.488 292.393,317.974ZM255.254,317.974C255.212,317.942 255.17,317.911 255.127,317.88C254.151,317.716 253.127,317.712 252.15,317.869C252.098,317.906 252.046,317.944 251.995,317.982C252.561,317.502 253.074,316.95 253.506,316.354C253.67,315.378 253.674,314.354 253.517,313.377C253.085,312.77 252.569,312.207 251.998,311.719C252.044,311.754 252.091,311.789 252.138,311.823C253.114,311.987 254.138,311.991 255.115,311.834C255.163,311.8 255.211,311.765 255.259,311.729C254.696,312.207 254.187,312.757 253.758,313.35C253.594,314.325 253.59,315.35 253.747,316.327C254.176,316.929 254.688,317.488 255.254,317.974ZM262.682,317.974C262.64,317.942 262.597,317.911 262.555,317.88C261.579,317.716 260.555,317.712 259.578,317.869C259.526,317.906 259.474,317.944 259.422,317.982C259.989,317.502 260.502,316.95 260.933,316.354C261.098,315.378 261.102,314.354 260.945,313.377C260.512,312.77 259.996,312.207 259.426,311.719C259.472,311.754 259.519,311.789 259.566,311.823C260.542,311.987 261.566,311.991 262.543,311.834C262.591,311.8 262.639,311.765 262.687,311.729C262.124,312.207 261.615,312.757 261.186,313.35C261.021,314.325 261.017,315.35 261.174,316.327C261.604,316.929 262.115,317.488 262.682,317.974ZM284.965,317.974C284.923,317.942 284.88,317.911 284.838,317.88C283.862,317.716 282.838,317.712 281.861,317.869C281.809,317.906 281.757,317.944 281.706,317.982C282.272,317.502 282.785,316.95 283.217,316.354C283.381,315.378 283.385,314.354 283.228,313.377C282.796,312.77 282.28,312.207 281.709,311.719C281.755,311.754 281.802,311.789 281.849,311.823C282.825,311.987 283.849,311.991 284.826,311.834C284.874,311.8 284.922,311.765 284.97,311.729C284.407,312.207 283.898,312.757 283.469,313.35C283.305,314.325 283.301,315.35 283.458,316.327C283.887,316.929 284.399,317.488 284.965,317.974ZM270.109,317.974C270.067,317.942 270.025,317.911 269.982,317.88C269.007,317.716 267.982,317.712 267.006,317.869C266.953,317.906 266.902,317.944 266.85,317.982C267.417,317.502 267.93,316.95 268.361,316.354C268.525,315.378 268.529,314.354 268.372,313.377C267.94,312.77 267.424,312.207 266.853,311.719C266.9,311.754 266.947,311.789 266.994,311.823C267.969,311.987 268.994,311.991 269.97,311.834C270.019,311.8 270.067,311.765 270.114,311.729C269.552,312.207 269.042,312.757 268.613,313.35C268.449,314.325 268.445,315.35 268.602,316.327C269.031,316.929 269.543,317.488 270.109,317.974ZM293.084,305.302C294.009,305.447 294.975,305.448 295.899,305.306C295.424,305.737 294.991,306.218 294.619,306.733C294.454,307.709 294.451,308.733 294.608,309.71C295.04,310.317 295.556,310.879 296.127,311.368C296.08,311.333 296.033,311.298 295.986,311.264C295.011,311.1 293.986,311.096 293.009,311.253C292.961,311.287 292.913,311.322 292.865,311.357C293.428,310.879 293.938,310.33 294.366,309.737C294.531,308.761 294.535,307.737 294.378,306.76C294.003,306.234 293.566,305.742 293.084,305.302ZM278.229,305.302C279.154,305.447 280.119,305.448 281.044,305.306C280.568,305.737 280.136,306.218 279.763,306.733C279.599,307.709 279.595,308.733 279.752,309.71C280.184,310.317 280.7,310.879 281.271,311.368C281.225,311.333 281.178,311.298 281.131,311.264C280.155,311.1 279.131,311.096 278.154,311.253C278.106,311.287 278.058,311.322 278.01,311.357C278.573,310.879 279.082,310.33 279.511,309.737C279.675,308.761 279.679,307.737 279.522,306.76C279.148,306.234 278.71,305.742 278.229,305.302ZM285.657,305.302C286.582,305.447 287.547,305.448 288.472,305.306C287.996,305.737 287.563,306.218 287.191,306.733C287.027,307.709 287.023,308.733 287.18,309.71C287.612,310.317 288.128,310.879 288.699,311.368C288.652,311.333 288.606,311.298 288.558,311.264C287.583,311.1 286.559,311.096 285.582,311.253C285.533,311.287 285.485,311.322 285.438,311.357C286,310.879 286.51,310.33 286.939,309.737C287.103,308.761 287.107,307.737 286.95,306.76C286.576,306.234 286.138,305.742 285.657,305.302ZM270.801,305.302C271.726,305.447 272.692,305.448 273.616,305.306C273.141,305.737 272.708,306.218 272.336,306.733C272.171,307.709 272.167,308.733 272.324,309.71C272.757,310.317 273.272,310.879 273.843,311.368C273.797,311.333 273.75,311.298 273.703,311.264C272.727,311.1 271.703,311.096 270.726,311.253C270.678,311.287 270.63,311.322 270.582,311.357C271.145,310.879 271.654,310.33 272.083,309.737C272.248,308.761 272.251,307.737 272.094,306.76C271.72,306.234 271.283,305.742 270.801,305.302ZM248.518,305.302C249.443,305.447 250.408,305.448 251.333,305.306C250.858,305.737 250.425,306.218 250.052,306.733C249.888,307.709 249.884,308.733 250.041,309.71C250.473,310.317 250.989,310.879 251.56,311.368C251.514,311.333 251.467,311.298 251.42,311.264C250.444,311.1 249.42,311.096 248.443,311.253C248.395,311.287 248.347,311.322 248.299,311.357C248.862,310.879 249.371,310.33 249.8,309.737C249.964,308.761 249.968,307.737 249.811,306.76C249.437,306.234 249,305.742 248.518,305.302ZM255.946,305.302C256.871,305.447 257.836,305.448 258.761,305.306C258.285,305.737 257.852,306.218 257.48,306.733C257.316,307.709 257.312,308.733 257.469,309.71C257.901,310.317 258.417,310.879 258.988,311.368C258.941,311.333 258.895,311.298 258.848,311.264C257.872,311.1 256.848,311.096 255.871,311.253C255.822,311.287 255.774,311.322 255.727,311.357C256.289,310.879 256.799,310.33 257.228,309.737C257.392,308.761 257.396,307.737 257.239,306.76C256.865,306.234 256.427,305.742 255.946,305.302ZM263.373,305.302C264.298,305.447 265.264,305.448 266.189,305.306C265.713,305.737 265.28,306.218 264.908,306.733C264.744,307.709 264.74,308.733 264.897,309.71C265.329,310.317 265.845,310.879 266.416,311.368C266.369,311.333 266.322,311.298 266.275,311.264C265.3,311.1 264.275,311.096 263.298,311.253C263.25,311.287 263.202,311.322 263.155,311.357C263.717,310.879 264.227,310.33 264.656,309.737C264.82,308.761 264.824,307.737 264.667,306.76C264.292,306.234 263.855,305.742 263.373,305.302ZM292.179,304.631C291.254,304.486 290.288,304.485 289.364,304.627C289.839,304.196 290.272,303.714 290.644,303.2C290.809,302.224 290.812,301.2 290.655,300.223C290.223,299.616 289.707,299.053 289.136,298.565C289.183,298.6 289.23,298.635 289.277,298.669C290.252,298.833 291.277,298.837 292.254,298.68C292.302,298.646 292.35,298.611 292.398,298.575C291.835,299.053 291.325,299.603 290.897,300.196C290.732,301.172 290.728,302.196 290.885,303.173C291.26,303.699 291.697,304.191 292.179,304.631ZM277.323,304.631C276.398,304.486 275.433,304.485 274.508,304.627C274.984,304.196 275.417,303.714 275.789,303.2C275.953,302.224 275.957,301.2 275.8,300.223C275.368,299.616 274.852,299.053 274.281,298.565C274.328,298.6 274.374,298.635 274.421,298.669C275.397,298.833 276.421,298.837 277.398,298.68C277.446,298.646 277.494,298.611 277.542,298.575C276.98,299.053 276.47,299.603 276.041,300.196C275.877,301.172 275.873,302.196 276.03,303.173C276.404,303.699 276.842,304.191 277.323,304.631ZM299.606,304.631C298.681,304.486 297.716,304.485 296.791,304.627C297.267,304.196 297.7,303.714 298.072,303.2C298.236,302.224 298.24,301.2 298.083,300.223C297.651,299.616 297.135,299.053 296.564,298.565C296.611,298.6 296.657,298.635 296.705,298.669C297.68,298.833 298.704,298.837 299.681,298.68C299.73,298.646 299.778,298.611 299.825,298.575C299.263,299.053 298.753,299.603 298.324,300.196C298.16,301.172 298.156,302.196 298.313,303.173C298.687,303.699 299.125,304.191 299.606,304.631ZM269.896,304.631C268.971,304.486 268.005,304.485 267.08,304.627C267.556,304.196 267.989,303.714 268.361,303.2C268.525,302.224 268.529,301.2 268.372,300.223C267.94,299.616 267.424,299.053 266.853,298.565C266.9,298.6 266.947,298.635 266.994,298.669C267.969,298.833 268.994,298.837 269.97,298.68C270.019,298.646 270.067,298.611 270.114,298.575C269.552,299.053 269.042,299.603 268.613,300.196C268.449,301.172 268.445,302.196 268.602,303.173C268.977,303.699 269.414,304.191 269.896,304.631ZM284.751,304.631C283.826,304.486 282.861,304.485 281.936,304.627C282.411,304.196 282.844,303.714 283.217,303.2C283.381,302.224 283.385,301.2 283.228,300.223C282.796,299.616 282.28,299.053 281.709,298.565C281.755,298.6 281.802,298.635 281.849,298.669C282.825,298.833 283.849,298.837 284.826,298.68C284.874,298.646 284.922,298.611 284.97,298.575C284.407,299.053 283.898,299.603 283.469,300.196C283.305,301.172 283.301,302.196 283.458,303.173C283.832,303.699 284.269,304.191 284.751,304.631Z" style="fill:url(#_Linear1);"/>
        <path d="M0,308.62L0,291.714C0.096,291.638 0.193,291.565 0.292,291.493C1.267,291.329 2.291,291.325 3.268,291.482C4.074,292.056 4.801,292.777 5.381,293.579C5.546,294.555 5.549,295.579 5.392,296.556C4.96,297.163 4.444,297.725 3.873,298.214C3.92,298.179 3.967,298.144 4.014,298.11C4.989,297.946 6.014,297.942 6.991,298.099C7.039,298.133 7.087,298.168 7.135,298.203C6.572,297.725 6.062,297.176 5.634,296.583C5.469,295.607 5.465,294.583 5.622,293.606C6.196,292.8 6.918,292.073 7.719,291.493C8.695,291.329 9.719,291.325 10.696,291.482C11.502,292.056 12.229,292.777 12.809,293.579C12.973,294.555 12.977,295.579 12.82,296.556C12.388,297.163 11.872,297.725 11.301,298.214C11.348,298.179 11.394,298.144 11.442,298.11C12.417,297.946 13.441,297.942 14.418,298.099C14.467,298.133 14.515,298.168 14.562,298.203C14,297.725 13.49,297.176 13.061,296.583C12.897,295.607 12.893,294.583 13.05,293.606C13.624,292.8 14.345,292.073 15.147,291.493L15.169,291.49C16.802,292.672 18.534,293.722 20.35,294.624C20.384,295.271 20.35,295.923 20.248,296.556C19.816,297.163 19.3,297.725 18.729,298.214C18.775,298.179 18.822,298.144 18.869,298.11C19.845,297.946 20.869,297.942 21.846,298.099C21.894,298.133 21.942,298.168 21.99,298.203C21.427,297.725 20.918,297.176 20.489,296.583C20.382,295.946 20.343,295.287 20.373,294.635C22.531,295.706 24.808,296.568 27.176,297.195C26.864,297.56 26.521,297.902 26.157,298.214C26.203,298.179 26.25,298.144 26.297,298.11C27.273,297.946 28.297,297.942 29.274,298.099C29.322,298.133 29.37,298.168 29.418,298.203C29.184,298.005 28.96,297.794 28.747,297.573C31.212,298.108 33.766,298.39 36.38,298.39L40.686,298.39L46.353,301.196C46.391,301.857 46.357,302.525 46.253,303.173C45.879,303.699 45.442,304.191 44.96,304.631C45.885,304.486 46.85,304.485 47.775,304.627C47.299,304.196 46.867,303.714 46.494,303.2C46.385,302.548 46.347,301.875 46.38,301.209L52.696,304.336C52.595,304.437 52.493,304.535 52.388,304.631C52.63,304.593 52.875,304.565 53.121,304.547L57.282,306.607C57.314,306.649 57.345,306.691 57.375,306.733C57.54,307.709 57.544,308.733 57.387,309.71C56.954,310.317 56.438,310.879 55.868,311.368C55.914,311.333 55.961,311.298 56.008,311.264C56.984,311.1 58.008,311.096 58.985,311.253C59.033,311.287 59.081,311.322 59.129,311.357C58.566,310.879 58.057,310.33 57.628,309.737C57.464,308.765 57.459,307.745 57.615,306.772L64.468,310.165C63.961,310.79 63.365,311.354 62.717,311.823C61.742,311.987 60.717,311.991 59.74,311.834C59.692,311.8 59.644,311.765 59.597,311.729C60.159,312.207 60.669,312.757 61.098,313.35C61.262,314.325 61.266,315.35 61.109,316.327C60.68,316.929 60.168,317.488 59.601,317.974C59.643,317.942 59.686,317.911 59.729,317.88C60.704,317.716 61.728,317.712 62.705,317.869C63.511,318.443 64.238,319.164 64.818,319.966C64.983,320.942 64.986,321.966 64.829,322.943C64.397,323.55 63.881,324.112 63.31,324.601C63.357,324.565 63.404,324.531 63.451,324.497C64.426,324.333 65.451,324.329 66.428,324.486C66.476,324.52 66.524,324.555 66.571,324.59C66.009,324.112 65.499,323.563 65.071,322.97C64.906,321.994 64.902,320.97 65.059,319.993C65.633,319.187 66.355,318.46 67.156,317.88C68.132,317.716 69.156,317.712 70.133,317.869C70.772,318.324 71.361,318.871 71.867,319.478L71.867,323.452C71.369,324.055 70.789,324.601 70.16,325.056C69.184,325.22 68.16,325.224 67.183,325.067C67.135,325.033 67.087,324.998 67.039,324.962C67.602,325.44 68.111,325.99 68.54,326.583C68.705,327.558 68.709,328.583 68.552,329.559C68.177,330.086 67.74,330.578 67.258,331.018C68.203,330.87 69.19,330.872 70.133,331.023C70.772,331.478 71.361,332.025 71.867,332.632L71.867,336.606C71.369,337.209 70.789,337.755 70.16,338.21C69.184,338.374 68.16,338.378 67.183,338.221C67.135,338.187 67.087,338.152 67.039,338.116C67.602,338.594 68.111,339.143 68.54,339.737C68.705,340.712 68.709,341.736 68.552,342.713C67.978,343.519 67.256,344.246 66.455,344.826C65.479,344.991 64.455,344.994 63.478,344.837C62.672,344.264 61.945,343.542 61.365,342.74C61.201,341.765 61.197,340.741 61.354,339.764C61.786,339.157 62.302,338.594 62.873,338.106C62.826,338.141 62.779,338.176 62.732,338.21C61.757,338.374 60.733,338.378 59.756,338.221C59.707,338.187 59.659,338.152 59.612,338.116C60.174,338.594 60.684,339.143 61.113,339.737C61.277,340.712 61.281,341.736 61.124,342.713C60.55,343.519 59.829,344.246 59.027,344.826C58.051,344.991 57.027,344.994 56.05,344.837C55.244,344.264 54.517,343.542 53.937,342.74C53.773,341.765 53.769,340.741 53.926,339.764C54.358,339.157 54.874,338.594 55.445,338.106C55.399,338.141 55.352,338.176 55.305,338.21C54.329,338.374 53.305,338.378 52.328,338.221C52.28,338.187 52.232,338.152 52.184,338.116C52.747,338.594 53.256,339.143 53.685,339.737C53.849,340.712 53.853,341.736 53.696,342.713C53.122,343.519 52.401,344.246 51.599,344.826C50.623,344.991 49.599,344.994 48.622,344.837C47.816,344.264 47.089,343.542 46.51,342.74C46.345,341.765 46.341,340.741 46.498,339.764C46.93,339.157 47.446,338.594 48.017,338.106C47.971,338.141 47.924,338.176 47.877,338.21C46.901,338.374 45.877,338.378 44.9,338.221C44.852,338.187 44.804,338.152 44.756,338.116C45.319,338.594 45.828,339.143 46.257,339.737C46.422,340.712 46.425,341.736 46.268,342.713C45.695,343.519 44.973,344.246 44.171,344.826C43.196,344.991 42.172,344.994 41.195,344.837C40.389,344.264 39.662,343.542 39.082,342.74C38.917,341.765 38.914,340.741 39.071,339.764C39.503,339.157 40.019,338.594 40.59,338.106C40.543,338.141 40.496,338.176 40.449,338.21C39.474,338.374 38.449,338.378 37.472,338.221C37.424,338.187 37.376,338.152 37.329,338.116C37.891,338.594 38.401,339.143 38.829,339.737C38.994,340.712 38.998,341.736 38.841,342.713C38.267,343.519 37.545,344.246 36.744,344.826C35.768,344.991 34.744,344.994 33.767,344.837C32.961,344.264 32.234,343.542 31.654,342.74C31.49,341.765 31.486,340.741 31.643,339.764C32.075,339.157 32.591,338.594 33.162,338.106C33.115,338.141 33.069,338.176 33.022,338.21C32.046,338.374 31.022,338.378 30.045,338.221C29.996,338.187 29.948,338.152 29.901,338.116C30.463,338.594 30.973,339.143 31.402,339.737C31.566,340.712 31.57,341.736 31.413,342.713C30.971,343.335 30.441,343.909 29.854,344.405C27.974,344.059 26.143,343.566 24.375,342.94C24.324,342.874 24.275,342.808 24.226,342.74C24.062,341.765 24.058,340.741 24.215,339.764C24.647,339.157 25.163,338.594 25.734,338.106C25.688,338.141 25.641,338.176 25.594,338.21C24.618,338.374 23.594,338.378 22.617,338.221C22.569,338.187 22.521,338.152 22.473,338.116C23.036,338.594 23.545,339.143 23.974,339.737C24.138,340.712 24.142,341.736 23.985,342.713L23.936,342.781C21.519,341.89 19.22,340.748 17.07,339.388C17.438,338.924 17.855,338.492 18.306,338.106C18.26,338.141 18.213,338.176 18.166,338.21C17.252,338.364 16.296,338.377 15.376,338.249C14.922,337.924 14.475,337.59 14.036,337.246C13.686,336.897 13.363,336.52 13.076,336.124C12.912,335.148 12.908,334.124 13.065,333.147C13.44,332.621 13.877,332.129 14.359,331.689C13.434,331.834 12.468,331.835 11.543,331.693C12.019,332.124 12.452,332.605 12.824,333.12C12.988,334.096 12.992,335.12 12.835,336.097L12.761,336.199C9.051,333.012 5.981,329.096 3.782,324.682C3.863,324.619 3.946,324.557 4.029,324.497C5.005,324.333 6.029,324.329 7.006,324.486C7.054,324.52 7.102,324.555 7.15,324.59C6.587,324.112 6.078,323.563 5.649,322.97C5.484,321.994 5.481,320.97 5.637,319.993C6.067,319.39 6.578,318.832 7.145,318.346C7.103,318.377 7.06,318.409 7.018,318.439C6.042,318.604 5.018,318.608 4.041,318.451C3.235,317.877 2.508,317.155 1.928,316.354C1.764,315.378 1.76,314.354 1.917,313.377C2.349,312.77 2.865,312.207 3.436,311.719C3.389,311.754 3.343,311.789 3.295,311.823C2.32,311.987 1.296,311.991 0.319,311.834C0.27,311.8 0.222,311.765 0.175,311.729C0.737,312.207 1.247,312.757 1.676,313.35C1.84,314.325 1.844,315.35 1.687,316.327C1.483,316.612 1.261,316.888 1.024,317.151C0.355,314.411 -0,311.554 0,308.62ZM66.353,331.689C65.428,331.834 64.462,331.835 63.538,331.693C64.013,332.124 64.446,332.605 64.818,333.12C64.983,334.096 64.986,335.12 64.829,336.097C64.397,336.704 63.881,337.266 63.31,337.754C63.357,337.719 63.404,337.685 63.451,337.651C64.426,337.486 65.451,337.483 66.428,337.64C66.476,337.674 66.524,337.709 66.571,337.744C66.009,337.266 65.499,336.717 65.071,336.124C64.906,335.148 64.902,334.124 65.059,333.147C65.434,332.621 65.871,332.129 66.353,331.689ZM36.642,331.689C35.717,331.834 34.751,331.835 33.827,331.693C34.302,332.124 34.735,332.605 35.107,333.12C35.272,334.096 35.275,335.12 35.119,336.097C34.686,336.704 34.17,337.266 33.599,337.754C33.646,337.719 33.693,337.685 33.74,337.651C34.716,337.486 35.74,337.483 36.717,337.64C36.765,337.674 36.813,337.709 36.861,337.744C36.298,337.266 35.789,336.717 35.36,336.124C35.195,335.148 35.191,334.124 35.348,333.147C35.723,332.621 36.16,332.129 36.642,331.689ZM29.214,331.689C28.289,331.834 27.324,331.835 26.399,331.693C26.874,332.124 27.307,332.605 27.68,333.12C27.844,334.096 27.848,335.12 27.691,336.097C27.259,336.704 26.743,337.266 26.172,337.754C26.218,337.719 26.265,337.685 26.312,337.651C27.288,337.486 28.312,337.483 29.289,337.64C29.337,337.674 29.385,337.709 29.433,337.744C28.87,337.266 28.361,336.717 27.932,336.124C27.768,335.148 27.764,334.124 27.921,333.147C28.295,332.621 28.732,332.129 29.214,331.689ZM21.786,331.689C20.861,331.834 19.896,331.835 18.971,331.693C19.447,332.124 19.88,332.605 20.252,333.12C20.416,334.096 20.42,335.12 20.263,336.097C19.831,336.704 19.315,337.266 18.744,337.754C18.791,337.719 18.837,337.685 18.884,337.651C19.86,337.486 20.884,337.483 21.861,337.64C21.909,337.674 21.957,337.709 22.005,337.744C21.443,337.266 20.933,336.717 20.504,336.124C20.34,335.148 20.336,334.124 20.493,333.147C20.867,332.621 21.305,332.129 21.786,331.689ZM58.925,331.689C58,331.834 57.035,331.835 56.11,331.693C56.585,332.124 57.018,332.605 57.39,333.12C57.555,334.096 57.559,335.12 57.402,336.097C56.97,336.704 56.454,337.266 55.883,337.754C55.929,337.719 55.976,337.685 56.023,337.651C56.999,337.486 58.023,337.483 59,337.64C59.048,337.674 59.096,337.709 59.144,337.744C58.581,337.266 58.072,336.717 57.643,336.124C57.478,335.148 57.475,334.124 57.632,333.147C58.006,332.621 58.443,332.129 58.925,331.689ZM51.497,331.689C50.572,331.834 49.607,331.835 48.682,331.693C49.158,332.124 49.591,332.605 49.963,333.12C50.127,334.096 50.131,335.12 49.974,336.097C49.542,336.704 49.026,337.266 48.455,337.754C48.501,337.719 48.548,337.685 48.595,337.651C49.571,337.486 50.595,337.483 51.572,337.64C51.62,337.674 51.668,337.709 51.716,337.744C51.153,337.266 50.644,336.717 50.215,336.124C50.051,335.148 50.047,334.124 50.204,333.147C50.578,332.621 51.016,332.129 51.497,331.689ZM44.069,331.689C43.144,331.834 42.179,331.835 41.254,331.693C41.73,332.124 42.163,332.605 42.535,333.12C42.699,334.096 42.703,335.12 42.546,336.097C42.114,336.704 41.598,337.266 41.027,337.754C41.074,337.719 41.121,337.685 41.168,337.651C42.143,337.486 43.167,337.483 44.144,337.64C44.193,337.674 44.241,337.709 44.288,337.744C43.726,337.266 43.216,336.717 42.787,336.124C42.623,335.148 42.619,334.124 42.776,333.147C43.151,332.621 43.588,332.129 44.069,331.689ZM15.264,331.018C16.189,330.873 17.155,330.872 18.079,331.014C17.604,330.583 17.171,330.101 16.799,329.587C16.634,328.611 16.63,327.587 16.787,326.61C17.22,326.003 17.736,325.44 18.306,324.952C18.26,324.987 18.213,325.022 18.166,325.056C17.19,325.22 16.166,325.224 15.189,325.067C15.141,325.033 15.093,324.998 15.045,324.962C15.608,325.44 16.117,325.99 16.546,326.583C16.711,327.558 16.714,328.583 16.558,329.559C16.183,330.086 15.746,330.578 15.264,331.018ZM52.403,331.018C53.328,330.873 54.293,330.872 55.218,331.014C54.742,330.583 54.309,330.101 53.937,329.587C53.773,328.611 53.769,327.587 53.926,326.61C54.358,326.003 54.874,325.44 55.445,324.952C55.399,324.987 55.352,325.022 55.305,325.056C54.329,325.22 53.305,325.224 52.328,325.067C52.28,325.033 52.232,324.998 52.184,324.962C52.747,325.44 53.256,325.99 53.685,326.583C53.849,327.558 53.853,328.583 53.696,329.559C53.322,330.086 52.884,330.578 52.403,331.018ZM30.12,331.018C31.045,330.873 32.01,330.872 32.935,331.014C32.459,330.583 32.026,330.101 31.654,329.587C31.49,328.611 31.486,327.587 31.643,326.61C32.075,326.003 32.591,325.44 33.162,324.952C33.115,324.987 33.069,325.022 33.022,325.056C32.046,325.22 31.022,325.224 30.045,325.067C29.996,325.033 29.948,324.998 29.901,324.962C30.463,325.44 30.973,325.99 31.402,326.583C31.566,327.558 31.57,328.583 31.413,329.559C31.039,330.086 30.601,330.578 30.12,331.018ZM7.836,331.018C8.761,330.873 9.727,330.872 10.652,331.014C10.176,330.583 9.743,330.101 9.371,329.587C9.207,328.611 9.203,327.587 9.36,326.61C9.792,326.003 10.308,325.44 10.879,324.952C10.832,324.987 10.785,325.022 10.738,325.056C9.763,325.22 8.738,325.224 7.762,325.067C7.713,325.033 7.665,324.998 7.618,324.962C8.18,325.44 8.69,325.99 9.119,326.583C9.283,327.558 9.287,328.583 9.13,329.559C8.755,330.086 8.318,330.578 7.836,331.018ZM44.975,331.018C45.9,330.873 46.865,330.872 47.79,331.014C47.315,330.583 46.882,330.101 46.51,329.587C46.345,328.611 46.341,327.587 46.498,326.61C46.93,326.003 47.446,325.44 48.017,324.952C47.971,324.987 47.924,325.022 47.877,325.056C46.901,325.22 45.877,325.224 44.9,325.067C44.852,325.033 44.804,324.998 44.756,324.962C45.319,325.44 45.828,325.99 46.257,326.583C46.422,327.558 46.425,328.583 46.268,329.559C45.894,330.086 45.457,330.578 44.975,331.018ZM37.547,331.018C38.472,330.873 39.438,330.872 40.362,331.014C39.887,330.583 39.454,330.101 39.082,329.587C38.917,328.611 38.914,327.587 39.071,326.61C39.503,326.003 40.019,325.44 40.59,324.952C40.543,324.987 40.496,325.022 40.449,325.056C39.474,325.22 38.449,325.224 37.472,325.067C37.424,325.033 37.376,324.998 37.329,324.962C37.891,325.44 38.401,325.99 38.829,326.583C38.994,327.558 38.998,328.583 38.841,329.559C38.466,330.086 38.029,330.578 37.547,331.018ZM59.831,331.018C60.756,330.873 61.721,330.872 62.646,331.014C62.17,330.583 61.737,330.101 61.365,329.587C61.201,328.611 61.197,327.587 61.354,326.61C61.786,326.003 62.302,325.44 62.873,324.952C62.826,324.987 62.779,325.022 62.732,325.056C61.757,325.22 60.733,325.224 59.756,325.067C59.707,325.033 59.659,324.998 59.612,324.962C60.174,325.44 60.684,325.99 61.113,326.583C61.277,327.558 61.281,328.583 61.124,329.559C60.749,330.086 60.312,330.578 59.831,331.018ZM22.692,331.018C23.617,330.873 24.582,330.872 25.507,331.014C25.031,330.583 24.599,330.101 24.226,329.587C24.062,328.611 24.058,327.587 24.215,326.61C24.647,326.003 25.163,325.44 25.734,324.952C25.688,324.987 25.641,325.022 25.594,325.056C24.618,325.22 23.594,325.224 22.617,325.067C22.569,325.033 22.521,324.998 22.473,324.962C23.036,325.44 23.545,325.99 23.974,326.583C24.138,327.558 24.142,328.583 23.985,329.559C23.611,330.086 23.173,330.578 22.692,331.018ZM1.184,317.783C1.875,317.738 2.574,317.769 3.251,317.878C4.057,318.452 4.784,319.173 5.364,319.975C5.528,320.951 5.532,321.975 5.375,322.952C4.923,323.586 4.38,324.172 3.778,324.675C2.691,322.49 1.816,320.184 1.184,317.783ZM26.169,318.337C26.735,318.817 27.248,319.369 27.68,319.966C27.844,320.942 27.848,321.966 27.691,322.943C27.259,323.55 26.743,324.112 26.172,324.601C26.218,324.565 26.265,324.531 26.312,324.497C27.288,324.333 28.312,324.329 29.289,324.486C29.337,324.52 29.385,324.555 29.433,324.59C28.87,324.112 28.361,323.563 27.932,322.97C27.768,321.994 27.764,320.97 27.921,319.993C28.35,319.39 28.862,318.832 29.428,318.346C29.386,318.377 29.344,318.409 29.301,318.439C28.325,318.604 27.301,318.608 26.324,318.451C26.272,318.413 26.22,318.376 26.169,318.337ZM18.741,318.337C19.307,318.817 19.82,319.369 20.252,319.966C20.416,320.942 20.42,321.966 20.263,322.943C19.831,323.55 19.315,324.112 18.744,324.601C18.791,324.565 18.837,324.531 18.884,324.497C19.86,324.333 20.884,324.329 21.861,324.486C21.909,324.52 21.957,324.555 22.005,324.59C21.443,324.112 20.933,323.563 20.504,322.97C20.34,321.994 20.336,320.97 20.493,319.993C20.922,319.39 21.434,318.832 22,318.346C21.958,318.377 21.916,318.409 21.873,318.439C20.897,318.604 19.873,318.608 18.896,318.451C18.844,318.413 18.792,318.376 18.741,318.337ZM33.596,318.337C34.163,318.817 34.676,319.369 35.107,319.966C35.272,320.942 35.275,321.966 35.119,322.943C34.686,323.55 34.17,324.112 33.599,324.601C33.646,324.565 33.693,324.531 33.74,324.497C34.716,324.333 35.74,324.329 36.717,324.486C36.765,324.52 36.813,324.555 36.861,324.59C36.298,324.112 35.789,323.563 35.36,322.97C35.195,321.994 35.191,320.97 35.348,319.993C35.778,319.39 36.289,318.832 36.856,318.346C36.814,318.377 36.771,318.409 36.729,318.439C35.753,318.604 34.729,318.608 33.752,318.451C33.7,318.413 33.648,318.376 33.596,318.337ZM11.313,318.337C11.88,318.817 12.393,319.369 12.824,319.966C12.988,320.942 12.992,321.966 12.835,322.943C12.403,323.55 11.887,324.112 11.316,324.601C11.363,324.565 11.41,324.531 11.457,324.497C12.432,324.333 13.457,324.329 14.433,324.486C14.482,324.52 14.53,324.555 14.577,324.59C14.015,324.112 13.505,323.563 13.076,322.97C12.912,321.994 12.908,320.97 13.065,319.993C13.494,319.39 14.006,318.832 14.573,318.346C14.53,318.377 14.488,318.409 14.445,318.439C13.47,318.604 12.445,318.608 11.469,318.451C11.416,318.413 11.365,318.376 11.313,318.337ZM55.88,318.337C56.446,318.817 56.959,319.369 57.39,319.966C57.555,320.942 57.559,321.966 57.402,322.943C56.97,323.55 56.454,324.112 55.883,324.601C55.929,324.565 55.976,324.531 56.023,324.497C56.999,324.333 58.023,324.329 59,324.486C59.048,324.52 59.096,324.555 59.144,324.59C58.581,324.112 58.072,323.563 57.643,322.97C57.478,321.994 57.475,320.97 57.632,319.993C58.061,319.39 58.573,318.832 59.139,318.346C59.097,318.377 59.054,318.409 59.012,318.439C58.036,318.604 57.012,318.608 56.035,318.451C55.983,318.413 55.931,318.376 55.88,318.337ZM48.452,318.337C49.018,318.817 49.531,319.369 49.963,319.966C50.127,320.942 50.131,321.966 49.974,322.943C49.542,323.55 49.026,324.112 48.455,324.601C48.501,324.565 48.548,324.531 48.595,324.497C49.571,324.333 50.595,324.329 51.572,324.486C51.62,324.52 51.668,324.555 51.716,324.59C51.153,324.112 50.644,323.563 50.215,322.97C50.051,321.994 50.047,320.97 50.204,319.993C50.633,319.39 51.145,318.832 51.711,318.346C51.669,318.377 51.627,318.409 51.584,318.439C50.608,318.604 49.584,318.608 48.607,318.451C48.555,318.413 48.503,318.376 48.452,318.337ZM41.024,318.337C41.591,318.817 42.104,319.369 42.535,319.966C42.699,320.942 42.703,321.966 42.546,322.943C42.114,323.55 41.598,324.112 41.027,324.601C41.074,324.565 41.121,324.531 41.168,324.497C42.143,324.333 43.167,324.329 44.144,324.486C44.193,324.52 44.241,324.555 44.288,324.59C43.726,324.112 43.216,323.563 42.787,322.97C42.623,321.994 42.619,320.97 42.776,319.993C43.205,319.39 43.717,318.832 44.283,318.346C44.241,318.377 44.199,318.409 44.156,318.439C43.181,318.604 42.156,318.608 41.18,318.451C41.127,318.413 41.076,318.376 41.024,318.337ZM52.174,317.974C52.216,317.942 52.258,317.911 52.301,317.88C53.277,317.716 54.301,317.712 55.278,317.869C55.33,317.906 55.382,317.944 55.433,317.982C54.867,317.502 54.354,316.95 53.922,316.354C53.758,315.378 53.754,314.354 53.911,313.377C54.343,312.77 54.859,312.207 55.43,311.719C55.383,311.754 55.337,311.789 55.29,311.823C54.314,311.987 53.29,311.991 52.313,311.834C52.264,311.8 52.216,311.765 52.169,311.729C52.731,312.207 53.241,312.757 53.67,313.35C53.834,314.325 53.838,315.35 53.681,316.327C53.252,316.929 52.74,317.488 52.174,317.974ZM22.463,317.974C22.505,317.942 22.547,317.911 22.59,317.88C23.566,317.716 24.59,317.712 25.567,317.869C25.619,317.906 25.671,317.944 25.722,317.982C25.156,317.502 24.643,316.95 24.211,316.354C24.047,315.378 24.043,314.354 24.2,313.377C24.632,312.77 25.148,312.207 25.719,311.719C25.672,311.754 25.626,311.789 25.579,311.823C24.603,311.987 23.579,311.991 22.602,311.834C22.554,311.8 22.506,311.765 22.458,311.729C23.02,312.207 23.53,312.757 23.959,313.35C24.123,314.325 24.127,315.35 23.97,316.327C23.541,316.929 23.029,317.488 22.463,317.974ZM7.607,317.974C7.649,317.942 7.692,317.911 7.734,317.88C8.71,317.716 9.734,317.712 10.711,317.869C10.763,317.906 10.815,317.944 10.867,317.982C10.3,317.502 9.787,316.95 9.356,316.354C9.191,315.378 9.188,314.354 9.345,313.377C9.777,312.77 10.293,312.207 10.864,311.719C10.817,311.754 10.77,311.789 10.723,311.823C9.748,311.987 8.723,311.991 7.746,311.834C7.698,311.8 7.65,311.765 7.602,311.729C8.165,312.207 8.675,312.757 9.103,313.35C9.268,314.325 9.272,315.35 9.115,316.327C8.686,316.929 8.174,317.488 7.607,317.974ZM44.746,317.974C44.788,317.942 44.83,317.911 44.873,317.88C45.849,317.716 46.873,317.712 47.85,317.869C47.902,317.906 47.954,317.944 48.005,317.982C47.439,317.502 46.926,316.95 46.494,316.354C46.33,315.378 46.326,314.354 46.483,313.377C46.915,312.77 47.431,312.207 48.002,311.719C47.956,311.754 47.909,311.789 47.862,311.823C46.886,311.987 45.862,311.991 44.885,311.834C44.837,311.8 44.789,311.765 44.741,311.729C45.304,312.207 45.813,312.757 46.242,313.35C46.406,314.325 46.41,315.35 46.253,316.327C45.824,316.929 45.312,317.488 44.746,317.974ZM37.318,317.974C37.36,317.942 37.403,317.911 37.445,317.88C38.421,317.716 39.445,317.712 40.422,317.869C40.474,317.906 40.526,317.944 40.578,317.982C40.011,317.502 39.498,316.95 39.067,316.354C38.902,315.378 38.898,314.354 39.055,313.377C39.488,312.77 40.004,312.207 40.574,311.719C40.528,311.754 40.481,311.789 40.434,311.823C39.458,311.987 38.434,311.991 37.457,311.834C37.409,311.8 37.361,311.765 37.313,311.729C37.876,312.207 38.385,312.757 38.814,313.35C38.979,314.325 38.983,315.35 38.826,316.327C38.396,316.929 37.885,317.488 37.318,317.974ZM15.035,317.974C15.077,317.942 15.12,317.911 15.162,317.88C16.138,317.716 17.162,317.712 18.139,317.869C18.191,317.906 18.243,317.944 18.294,317.982C17.728,317.502 17.215,316.95 16.783,316.354C16.619,315.378 16.615,314.354 16.772,313.377C17.204,312.77 17.72,312.207 18.291,311.719C18.245,311.754 18.198,311.789 18.151,311.823C17.175,311.987 16.151,311.991 15.174,311.834C15.126,311.8 15.078,311.765 15.03,311.729C15.593,312.207 16.102,312.757 16.531,313.35C16.695,314.325 16.699,315.35 16.542,316.327C16.113,316.929 15.601,317.488 15.035,317.974ZM29.891,317.974C29.933,317.942 29.975,317.911 30.018,317.88C30.993,317.716 32.018,317.712 32.994,317.869C33.047,317.906 33.098,317.944 33.15,317.982C32.583,317.502 32.07,316.95 31.639,316.354C31.475,315.378 31.471,314.354 31.628,313.377C32.06,312.77 32.576,312.207 33.147,311.719C33.1,311.754 33.053,311.789 33.006,311.823C32.031,311.987 31.006,311.991 30.03,311.834C29.981,311.8 29.933,311.765 29.886,311.729C30.448,312.207 30.958,312.757 31.387,313.35C31.551,314.325 31.555,315.35 31.398,316.327C30.969,316.929 30.457,317.488 29.891,317.974ZM14.343,305.302C13.418,305.447 12.453,305.448 11.528,305.306C12.004,305.737 12.437,306.218 12.809,306.733C12.973,307.709 12.977,308.733 12.82,309.71C12.388,310.317 11.872,310.879 11.301,311.368C11.348,311.333 11.394,311.298 11.442,311.264C12.417,311.1 13.441,311.096 14.418,311.253C14.467,311.287 14.515,311.322 14.562,311.357C14,310.879 13.49,310.33 13.061,309.737C12.897,308.761 12.893,307.737 13.05,306.76C13.424,306.234 13.862,305.742 14.343,305.302ZM29.199,305.302C28.274,305.447 27.308,305.448 26.384,305.306C26.859,305.737 27.292,306.218 27.664,306.733C27.829,307.709 27.833,308.733 27.676,309.71C27.243,310.317 26.728,310.879 26.157,311.368C26.203,311.333 26.25,311.298 26.297,311.264C27.273,311.1 28.297,311.096 29.274,311.253C29.322,311.287 29.37,311.322 29.418,311.357C28.855,310.879 28.346,310.33 27.917,309.737C27.752,308.761 27.749,307.737 27.906,306.76C28.28,306.234 28.717,305.742 29.199,305.302ZM6.916,305.302C5.991,305.447 5.025,305.448 4.101,305.306C4.576,305.737 5.009,306.218 5.381,306.733C5.546,307.709 5.549,308.733 5.392,309.71C4.96,310.317 4.444,310.879 3.873,311.368C3.92,311.333 3.967,311.298 4.014,311.264C4.989,311.1 6.014,311.096 6.991,311.253C7.039,311.287 7.087,311.322 7.135,311.357C6.572,310.879 6.062,310.33 5.634,309.737C5.469,308.761 5.465,307.737 5.622,306.76C5.997,306.234 6.434,305.742 6.916,305.302ZM21.771,305.302C20.846,305.447 19.881,305.448 18.956,305.306C19.432,305.737 19.864,306.218 20.237,306.733C20.401,307.709 20.405,308.733 20.248,309.71C19.816,310.317 19.3,310.879 18.729,311.368C18.775,311.333 18.822,311.298 18.869,311.264C19.845,311.1 20.869,311.096 21.846,311.253C21.894,311.287 21.942,311.322 21.99,311.357C21.427,310.879 20.918,310.33 20.489,309.737C20.325,308.761 20.321,307.737 20.478,306.76C20.852,306.234 21.29,305.742 21.771,305.302ZM44.054,305.302C43.129,305.447 42.164,305.448 41.239,305.306C41.715,305.737 42.148,306.218 42.52,306.733C42.684,307.709 42.688,308.733 42.531,309.71C42.099,310.317 41.583,310.879 41.012,311.368C41.059,311.333 41.105,311.298 41.152,311.264C42.128,311.1 43.152,311.096 44.129,311.253C44.178,311.287 44.226,311.322 44.273,311.357C43.711,310.879 43.201,310.33 42.772,309.737C42.608,308.761 42.604,307.737 42.761,306.76C43.135,306.234 43.573,305.742 44.054,305.302ZM51.482,305.302C50.557,305.447 49.592,305.448 48.667,305.306C49.142,305.737 49.575,306.218 49.948,306.733C50.112,307.709 50.116,308.733 49.959,309.71C49.527,310.317 49.011,310.879 48.44,311.368C48.486,311.333 48.533,311.298 48.58,311.264C49.556,311.1 50.58,311.096 51.557,311.253C51.605,311.287 51.653,311.322 51.701,311.357C51.138,310.879 50.629,310.33 50.2,309.737C50.036,308.761 50.032,307.737 50.189,306.76C50.563,306.234 51,305.742 51.482,305.302ZM36.627,305.302C35.702,305.447 34.736,305.448 33.811,305.306C34.287,305.737 34.72,306.218 35.092,306.733C35.256,307.709 35.26,308.733 35.103,309.71C34.671,310.317 34.155,310.879 33.584,311.368C33.631,311.333 33.678,311.298 33.725,311.264C34.7,311.1 35.725,311.096 36.702,311.253C36.75,311.287 36.798,311.322 36.845,311.357C36.283,310.879 35.773,310.33 35.344,309.737C35.18,308.761 35.176,307.737 35.333,306.76C35.708,306.234 36.145,305.742 36.627,305.302ZM7.821,304.631C8.746,304.486 9.712,304.485 10.636,304.627C10.161,304.196 9.728,303.714 9.356,303.2C9.191,302.224 9.188,301.2 9.345,300.223C9.777,299.616 10.293,299.053 10.864,298.565C10.817,298.6 10.77,298.635 10.723,298.669C9.748,298.833 8.723,298.837 7.746,298.68C7.698,298.646 7.65,298.611 7.602,298.575C8.165,299.053 8.675,299.603 9.103,300.196C9.268,301.172 9.272,302.196 9.115,303.173C8.74,303.699 8.303,304.191 7.821,304.631ZM22.677,304.631C23.602,304.486 24.567,304.485 25.492,304.627C25.016,304.196 24.583,303.714 24.211,303.2C24.047,302.224 24.043,301.2 24.2,300.223C24.632,299.616 25.148,299.053 25.719,298.565C25.672,298.6 25.626,298.635 25.579,298.669C24.603,298.833 23.579,298.837 22.602,298.68C22.554,298.646 22.506,298.611 22.458,298.575C23.02,299.053 23.53,299.603 23.959,300.196C24.123,301.172 24.127,302.196 23.97,303.173C23.596,303.699 23.158,304.191 22.677,304.631ZM0.394,304.631C1.319,304.486 2.284,304.485 3.209,304.627C2.733,304.196 2.3,303.714 1.928,303.2C1.764,302.224 1.76,301.2 1.917,300.223C2.349,299.616 2.865,299.053 3.436,298.565C3.389,298.6 3.343,298.635 3.295,298.669C2.32,298.833 1.296,298.837 0.319,298.68C0.27,298.646 0.222,298.611 0.175,298.575C0.737,299.053 1.247,299.603 1.676,300.196C1.84,301.172 1.844,302.196 1.687,303.173C1.313,303.699 0.875,304.191 0.394,304.631ZM30.104,304.631C31.029,304.486 31.995,304.485 32.92,304.627C32.444,304.196 32.011,303.714 31.639,303.2C31.475,302.224 31.471,301.2 31.628,300.223C32.06,299.616 32.576,299.053 33.147,298.565C33.1,298.6 33.053,298.635 33.006,298.669C32.031,298.833 31.006,298.837 30.03,298.68C29.981,298.646 29.933,298.611 29.886,298.575C30.448,299.053 30.958,299.603 31.387,300.196C31.551,301.172 31.555,302.196 31.398,303.173C31.023,303.699 30.586,304.191 30.104,304.631ZM37.532,304.631C38.457,304.486 39.423,304.485 40.347,304.627C39.872,304.196 39.439,303.714 39.067,303.2C38.902,302.224 38.898,301.2 39.055,300.223C39.488,299.616 40.004,299.053 40.574,298.565C40.528,298.6 40.481,298.635 40.434,298.669C39.458,298.833 38.434,298.837 37.457,298.68C37.409,298.646 37.361,298.611 37.313,298.575C37.876,299.053 38.385,299.603 38.814,300.196C38.979,301.172 38.983,302.196 38.826,303.173C38.451,303.699 38.014,304.191 37.532,304.631ZM15.249,304.631C16.174,304.486 17.139,304.485 18.064,304.627C17.589,304.196 17.156,303.714 16.783,303.2C16.619,302.224 16.615,301.2 16.772,300.223C17.204,299.616 17.72,299.053 18.291,298.565C18.245,298.6 18.198,298.635 18.151,298.669C17.175,298.833 16.151,298.837 15.174,298.68C15.126,298.646 15.078,298.611 15.03,298.575C15.593,299.053 16.102,299.603 16.531,300.196C16.695,301.172 16.699,302.196 16.542,303.173C16.168,303.699 15.731,304.191 15.249,304.631Z" style="fill:url(#_Linear2);"/>
        <path d="M229.046,345L229.046,342.142C228.804,342.065 228.549,342.017 228.284,342.004C209.156,341.042 190.968,339.82 173.957,338.27C192.554,334.685 210.767,330.112 228.595,324.559C228.752,324.51 228.903,324.449 229.046,324.378L229.046,319.012C228.562,318.77 228.008,318.655 227.434,318.707C175.936,323.341 124.155,323.161 72.123,318.706C71.759,318.675 71.405,318.71 71.072,318.802L71.072,325.447C86.374,331.035 105.882,335.45 128.738,338.927C110.167,340.89 91.223,341.916 71.909,342C71.618,342.001 71.337,342.044 71.072,342.122L71.072,345L128.359,345C136.304,344.175 144.177,343.182 151.985,342.02C161.622,343.138 171.716,344.127 182.219,345L229.046,345ZM95.346,326.421C111.494,330.36 130.498,333.492 151.801,335.98C167.496,333.622 182.92,330.574 198.073,326.838C163.949,328.694 129.705,328.504 95.346,326.421Z" style="fill:#e4a6c2;"/>
        <g transform="matrix(1,0,0,1,-0.430566,0)">
            <path d="M250.252,298.39C250.895,299.932 250.309,301.75 248.824,302.609C248.199,302.97 247.478,303.119 246.769,303.042C246.747,303.115 246.724,303.187 246.701,303.26C247.339,303.629 247.843,304.199 248.128,304.888C248.842,306.609 248.024,308.586 246.304,309.299C245.578,309.6 244.774,309.638 244.028,309.411L243.995,309.469C244.532,309.99 244.884,310.678 244.988,311.427C245.245,313.272 243.956,314.979 242.11,315.236C241.415,315.333 240.712,315.21 240.097,314.892C240.072,314.92 240.046,314.948 240.021,314.975C240.395,315.529 240.599,316.186 240.599,316.865C240.599,318.698 239.134,320.192 237.312,320.239C238.54,321.562 238.511,323.634 237.224,324.922C236.673,325.472 235.951,325.813 235.183,325.892L235.183,325.928C235.951,326.007 236.673,326.348 237.224,326.899C238.541,328.216 238.541,330.356 237.224,331.673C236.673,332.224 235.951,332.564 235.183,332.644L235.183,332.68C235.951,332.759 236.673,333.1 237.224,333.65C238.541,334.968 238.541,337.107 237.224,338.424C236.673,338.975 235.951,339.316 235.183,339.395L235.183,339.431C235.951,339.51 236.673,339.851 237.224,340.402C238.484,341.662 238.539,343.675 237.387,345L236.069,345C236.272,344.887 236.46,344.746 236.627,344.579C237.615,343.591 237.615,341.987 236.627,340.998C236.235,340.606 235.727,340.356 235.183,340.281L235.186,345L228.133,345L228.133,315.485C228.296,315.388 228.457,315.29 228.616,315.19L228.668,315.158L228.844,315.048L228.878,315.026C229.279,314.773 229.669,314.517 230.049,314.257L230.199,314.153L230.362,314.04L230.387,314.023C230.565,313.897 230.741,313.771 230.915,313.644L231.002,313.581L231.124,313.49C231.382,313.299 231.635,313.105 231.881,312.91C232.074,312.758 232.264,312.605 232.45,312.45C232.578,312.345 232.704,312.238 232.829,312.131L232.931,312.044C232.977,312.003 233.024,311.963 233.07,311.923L233.109,311.888C233.74,311.333 234.33,310.766 234.88,310.186L235,310.059C235.039,310.017 235.079,309.974 235.118,309.932L235.146,309.901C235.484,309.534 235.806,309.161 236.113,308.783C236.25,308.615 236.383,308.447 236.513,308.277L236.541,308.241L236.641,308.108L236.673,308.065C237.315,307.208 237.88,306.328 238.37,305.425C238.571,305.053 238.76,304.678 238.937,304.299C239.008,304.146 239.077,303.993 239.144,303.839C239.223,303.66 239.298,303.48 239.371,303.3C239.727,302.415 240.02,301.51 240.25,300.587C240.295,300.405 240.338,300.223 240.379,300.04C240.398,299.955 240.416,299.87 240.434,299.784C240.473,299.596 240.51,299.408 240.545,299.219C240.568,299.089 240.591,298.958 240.612,298.827L240.632,298.703L240.652,298.576C240.661,298.514 240.67,298.452 240.679,298.39L248.007,298.39L247.008,302.215C247.492,302.239 247.976,302.124 248.402,301.878C249.611,301.179 250.026,299.629 249.326,298.419C249.321,298.409 249.315,298.4 249.309,298.39L250.252,298.39ZM232.891,343.559C233.245,343.559 233.533,343.847 233.533,344.202C233.533,344.556 233.245,344.844 232.891,344.844C232.536,344.844 232.248,344.556 232.248,344.202C232.248,343.847 232.536,343.559 232.891,343.559ZM232.891,341.978C233.245,341.978 233.533,342.266 233.533,342.62C233.533,342.975 233.245,343.262 232.891,343.262C232.536,343.262 232.248,342.975 232.248,342.62C232.248,342.266 232.536,341.978 232.891,341.978ZM232.891,340.381C233.245,340.381 233.533,340.669 233.533,341.023C233.533,341.378 233.245,341.666 232.891,341.666C232.536,341.666 232.248,341.378 232.248,341.023C232.248,340.669 232.536,340.381 232.891,340.381ZM232.891,338.784C233.245,338.784 233.533,339.072 233.533,339.426C233.533,339.781 233.245,340.069 232.891,340.069C232.536,340.069 232.248,339.781 232.248,339.426C232.248,339.072 232.536,338.784 232.891,338.784ZM235.183,333.529L235.183,338.545C235.727,338.47 236.235,338.22 236.627,337.828C237.615,336.84 237.615,335.235 236.627,334.247C236.235,333.855 235.727,333.605 235.183,333.529ZM232.891,337.203C233.245,337.203 233.533,337.49 233.533,337.845C233.533,338.199 233.245,338.487 232.891,338.487C232.536,338.487 232.248,338.199 232.248,337.845C232.248,337.49 232.536,337.203 232.891,337.203ZM232.891,335.606C233.245,335.606 233.533,335.894 233.533,336.248C233.533,336.603 233.245,336.89 232.891,336.89C232.536,336.89 232.248,336.603 232.248,336.248C232.248,335.894 232.536,335.606 232.891,335.606ZM232.891,334.018C233.245,334.018 233.533,334.306 233.533,334.66C233.533,335.015 233.245,335.302 232.891,335.302C232.536,335.302 232.248,335.015 232.248,334.66C232.248,334.306 232.536,334.018 232.891,334.018ZM232.891,332.436C233.245,332.436 233.533,332.724 233.533,333.079C233.533,333.433 233.245,333.721 232.891,333.721C232.536,333.721 232.248,333.433 232.248,333.079C232.248,332.724 232.536,332.436 232.891,332.436ZM232.891,330.839C233.245,330.839 233.533,331.127 233.533,331.482C233.533,331.836 233.245,332.124 232.891,332.124C232.536,332.124 232.248,331.836 232.248,331.482C232.248,331.127 232.536,330.839 232.891,330.839ZM235.183,326.778L235.183,331.794C235.727,331.719 236.235,331.468 236.627,331.076C237.615,330.088 237.615,328.484 236.627,327.496C236.235,327.103 235.727,326.853 235.183,326.778ZM232.891,329.243C233.245,329.243 233.533,329.53 233.533,329.885C233.533,330.239 233.245,330.527 232.891,330.527C232.536,330.527 232.248,330.239 232.248,329.885C232.248,329.53 232.536,329.243 232.891,329.243ZM232.891,327.661C233.245,327.661 233.533,327.949 233.533,328.304C233.533,328.658 233.245,328.946 232.891,328.946C232.536,328.946 232.248,328.658 232.248,328.304C232.248,327.949 232.536,327.661 232.891,327.661ZM232.891,326.064C233.245,326.064 233.533,326.352 233.533,326.707C233.533,327.061 233.245,327.349 232.891,327.349C232.536,327.349 232.248,327.061 232.248,326.707C232.248,326.352 232.536,326.064 232.891,326.064ZM232.891,324.482C233.245,324.482 233.533,324.77 233.533,325.124C233.533,325.479 233.245,325.767 232.891,325.767C232.536,325.767 232.248,325.479 232.248,325.124C232.248,324.77 232.536,324.482 232.891,324.482ZM235.183,320.027L235.183,325.042C235.727,324.967 236.235,324.717 236.627,324.325C237.615,323.337 237.615,321.732 236.627,320.744C236.235,320.352 235.727,320.102 235.183,320.027ZM232.891,322.885C233.245,322.885 233.533,323.173 233.533,323.527C233.533,323.882 233.245,324.17 232.891,324.17C232.536,324.17 232.248,323.882 232.248,323.527C232.248,323.173 232.536,322.885 232.891,322.885ZM232.891,321.304C233.245,321.304 233.533,321.592 233.533,321.946C233.533,322.301 233.245,322.588 232.891,322.588C232.536,322.588 232.248,322.301 232.248,321.946C232.248,321.592 232.536,321.304 232.891,321.304ZM232.891,319.707C233.245,319.707 233.533,319.995 233.533,320.349C233.533,320.704 233.245,320.992 232.891,320.992C232.536,320.992 232.248,320.704 232.248,320.349C232.248,319.995 232.536,319.707 232.891,319.707ZM239.423,315.611C238.291,316.778 237.036,317.868 235.651,318.849C236.097,319.202 236.65,319.396 237.224,319.396C238.621,319.396 239.755,318.262 239.755,316.865C239.755,316.421 239.639,315.99 239.423,315.611ZM232.891,318.11C233.245,318.11 233.533,318.398 233.533,318.752C233.533,319.107 233.245,319.395 232.891,319.395C232.536,319.395 232.248,319.107 232.248,318.752C232.248,318.398 232.536,318.11 232.891,318.11ZM234.538,316.882C234.715,317.189 234.609,317.582 234.302,317.76C233.995,317.937 233.602,317.831 233.425,317.524C233.248,317.217 233.353,316.824 233.66,316.647C233.967,316.47 234.36,316.575 234.538,316.882ZM235.804,315.772C236.055,316.023 236.055,316.43 235.804,316.68C235.554,316.931 235.147,316.931 234.896,316.68C234.645,316.43 234.645,316.023 234.896,315.772C235.147,315.521 235.554,315.521 235.804,315.772ZM236.933,314.74C237.184,314.991 237.184,315.398 236.933,315.649C236.683,315.899 236.276,315.899 236.025,315.649C235.774,315.398 235.774,314.991 236.025,314.74C236.276,314.489 236.683,314.489 236.933,314.74ZM238.063,313.708C238.313,313.959 238.313,314.366 238.063,314.617C237.812,314.867 237.405,314.867 237.154,314.617C236.904,314.366 236.904,313.959 237.154,313.708C237.405,313.457 237.812,313.457 238.063,313.708ZM243.552,310.228C242.722,311.604 241.766,312.952 240.677,314.232C241.089,314.403 241.544,314.463 241.994,314.4C243.378,314.207 244.345,312.927 244.153,311.543C244.084,311.052 243.874,310.596 243.552,310.228ZM239.192,312.579C239.442,312.83 239.442,313.237 239.192,313.487C238.941,313.738 238.534,313.738 238.283,313.487C238.033,313.237 238.033,312.83 238.283,312.579C238.534,312.328 238.941,312.328 239.192,312.579ZM240.149,311.45C240.399,311.7 240.399,312.108 240.149,312.358C239.898,312.609 239.491,312.609 239.24,312.358C238.989,312.108 238.989,311.7 239.24,311.45C239.491,311.199 239.898,311.199 240.149,311.45ZM241.305,310.905C241.246,310.992 241.187,311.078 241.127,311.164C240.897,311.365 240.55,311.38 240.304,311.184C240.026,310.963 239.98,310.558 240.201,310.281C240.421,310.004 240.826,309.958 241.103,310.178C241.326,310.356 241.4,310.652 241.305,310.905ZM241.869,308.839C242.161,309.041 242.235,309.441 242.033,309.733C241.832,310.025 241.432,310.098 241.14,309.897C240.848,309.696 240.774,309.295 240.976,309.003C241.177,308.712 241.577,308.638 241.869,308.839ZM246.428,304.084C245.908,305.586 245.25,307.125 244.445,308.649C244.954,308.766 245.491,308.723 245.98,308.52C247.271,307.985 247.884,306.502 247.349,305.211C247.158,304.75 246.836,304.359 246.428,304.084ZM242.912,308.252C242.886,308.301 242.859,308.35 242.833,308.398C242.642,308.664 242.277,308.746 241.989,308.578C241.682,308.4 241.578,308.006 241.756,307.7C241.935,307.393 242.328,307.289 242.635,307.467C242.911,307.628 243.023,307.963 242.912,308.252ZM243.311,306.089C243.618,306.268 243.722,306.661 243.544,306.968C243.366,307.274 242.972,307.378 242.666,307.2C242.359,307.022 242.255,306.628 242.433,306.322C242.611,306.015 243.005,305.911 243.311,306.089ZM243.939,304.679C244.246,304.857 244.35,305.251 244.172,305.557C243.993,305.863 243.6,305.968 243.294,305.789C242.987,305.611 242.883,305.218 243.061,304.911C243.239,304.605 243.633,304.501 243.939,304.679ZM244.836,303.865L244.768,304.056C244.765,304.062 244.762,304.068 244.759,304.073C244.581,304.379 244.187,304.484 243.881,304.305C243.574,304.127 243.47,303.734 243.648,303.427C243.826,303.121 244.22,303.017 244.526,303.195C244.767,303.335 244.882,303.607 244.836,303.865ZM244.872,301.649C245.204,301.774 245.371,302.145 245.246,302.477C245.121,302.808 244.75,302.976 244.418,302.851C244.087,302.726 243.919,302.355 244.044,302.023C244.17,301.691 244.54,301.524 244.872,301.649ZM245.288,300.149C245.62,300.274 245.787,300.645 245.662,300.976C245.537,301.308 245.166,301.476 244.834,301.35C244.503,301.225 244.335,300.854 244.46,300.523C244.585,300.191 244.956,300.023 245.288,300.149ZM246.052,299.225C246.04,299.294 246.028,299.364 246.015,299.433C245.905,299.744 245.573,299.924 245.248,299.839C244.905,299.75 244.699,299.399 244.788,299.056C244.877,298.713 245.228,298.507 245.572,298.596C245.863,298.672 246.056,298.937 246.052,299.225Z" style="fill:#cfcfea;"/>
        </g>
        <g transform="matrix(-1,0,0,1,300.055,0)">
            <path d="M250.252,298.39C250.895,299.932 250.309,301.75 248.824,302.609C248.199,302.97 247.478,303.119 246.769,303.042C246.747,303.115 246.724,303.187 246.701,303.26C247.339,303.629 247.843,304.199 248.128,304.888C248.842,306.609 248.024,308.586 246.304,309.299C245.578,309.6 244.774,309.638 244.028,309.411L243.995,309.469C244.532,309.99 244.884,310.678 244.988,311.427C245.245,313.272 243.956,314.979 242.11,315.236C241.415,315.333 240.712,315.21 240.097,314.892C240.072,314.92 240.046,314.948 240.021,314.975C240.395,315.529 240.599,316.186 240.599,316.865C240.599,318.698 239.134,320.192 237.312,320.239C238.54,321.562 238.511,323.634 237.224,324.922C236.673,325.472 235.951,325.813 235.183,325.892L235.183,325.928C235.951,326.007 236.673,326.348 237.224,326.899C238.541,328.216 238.541,330.356 237.224,331.673C236.673,332.224 235.951,332.564 235.183,332.644L235.183,332.68C235.951,332.759 236.673,333.1 237.224,333.65C238.541,334.968 238.541,337.107 237.224,338.424C236.673,338.975 235.951,339.316 235.183,339.395L235.183,339.431C235.951,339.51 236.673,339.851 237.224,340.402C238.484,341.662 238.539,343.675 237.387,345L236.069,345C236.272,344.887 236.46,344.746 236.627,344.579C237.615,343.591 237.615,341.987 236.627,340.998C236.235,340.606 235.727,340.356 235.183,340.281L235.186,345L228.133,345L228.133,315.485C228.296,315.388 228.457,315.29 228.616,315.19L228.668,315.158L228.844,315.048L228.878,315.026C229.279,314.773 229.669,314.517 230.049,314.257L230.199,314.153L230.362,314.04L230.387,314.023C230.565,313.897 230.741,313.771 230.915,313.644L231.002,313.581L231.124,313.49C231.382,313.299 231.635,313.105 231.881,312.91C232.074,312.758 232.264,312.605 232.45,312.45C232.578,312.345 232.704,312.238 232.829,312.131L232.931,312.044C232.977,312.003 233.024,311.963 233.07,311.923L233.109,311.888C233.74,311.333 234.33,310.766 234.88,310.186L235,310.059C235.039,310.017 235.079,309.974 235.118,309.932L235.146,309.901C235.484,309.534 235.806,309.161 236.113,308.783C236.25,308.615 236.383,308.447 236.513,308.277L236.541,308.241L236.641,308.108L236.673,308.065C237.315,307.208 237.88,306.328 238.37,305.425C238.571,305.053 238.76,304.678 238.937,304.299C239.008,304.146 239.077,303.993 239.144,303.839C239.223,303.66 239.298,303.48 239.371,303.3C239.727,302.415 240.02,301.51 240.25,300.587C240.295,300.405 240.338,300.223 240.379,300.04C240.398,299.955 240.416,299.87 240.434,299.784C240.473,299.596 240.51,299.408 240.545,299.219C240.568,299.089 240.591,298.958 240.612,298.827L240.632,298.703L240.652,298.576C240.661,298.514 240.67,298.452 240.679,298.39L248.007,298.39L247.008,302.215C247.492,302.239 247.976,302.124 248.402,301.878C249.611,301.179 250.026,299.629 249.326,298.419C249.321,298.409 249.315,298.4 249.309,298.39L250.252,298.39ZM232.891,343.559C233.245,343.559 233.533,343.847 233.533,344.202C233.533,344.556 233.245,344.844 232.891,344.844C232.536,344.844 232.248,344.556 232.248,344.202C232.248,343.847 232.536,343.559 232.891,343.559ZM232.891,341.978C233.245,341.978 233.533,342.266 233.533,342.62C233.533,342.975 233.245,343.262 232.891,343.262C232.536,343.262 232.248,342.975 232.248,342.62C232.248,342.266 232.536,341.978 232.891,341.978ZM232.891,340.381C233.245,340.381 233.533,340.669 233.533,341.023C233.533,341.378 233.245,341.666 232.891,341.666C232.536,341.666 232.248,341.378 232.248,341.023C232.248,340.669 232.536,340.381 232.891,340.381ZM232.891,338.784C233.245,338.784 233.533,339.072 233.533,339.426C233.533,339.781 233.245,340.069 232.891,340.069C232.536,340.069 232.248,339.781 232.248,339.426C232.248,339.072 232.536,338.784 232.891,338.784ZM235.183,333.529L235.183,338.545C235.727,338.47 236.235,338.22 236.627,337.828C237.615,336.84 237.615,335.235 236.627,334.247C236.235,333.855 235.727,333.605 235.183,333.529ZM232.891,337.203C233.245,337.203 233.533,337.49 233.533,337.845C233.533,338.199 233.245,338.487 232.891,338.487C232.536,338.487 232.248,338.199 232.248,337.845C232.248,337.49 232.536,337.203 232.891,337.203ZM232.891,335.606C233.245,335.606 233.533,335.894 233.533,336.248C233.533,336.603 233.245,336.89 232.891,336.89C232.536,336.89 232.248,336.603 232.248,336.248C232.248,335.894 232.536,335.606 232.891,335.606ZM232.891,334.018C233.245,334.018 233.533,334.306 233.533,334.66C233.533,335.015 233.245,335.302 232.891,335.302C232.536,335.302 232.248,335.015 232.248,334.66C232.248,334.306 232.536,334.018 232.891,334.018ZM232.891,332.436C233.245,332.436 233.533,332.724 233.533,333.079C233.533,333.433 233.245,333.721 232.891,333.721C232.536,333.721 232.248,333.433 232.248,333.079C232.248,332.724 232.536,332.436 232.891,332.436ZM232.891,330.839C233.245,330.839 233.533,331.127 233.533,331.482C233.533,331.836 233.245,332.124 232.891,332.124C232.536,332.124 232.248,331.836 232.248,331.482C232.248,331.127 232.536,330.839 232.891,330.839ZM235.183,326.778L235.183,331.794C235.727,331.719 236.235,331.468 236.627,331.076C237.615,330.088 237.615,328.484 236.627,327.496C236.235,327.103 235.727,326.853 235.183,326.778ZM232.891,329.243C233.245,329.243 233.533,329.53 233.533,329.885C233.533,330.239 233.245,330.527 232.891,330.527C232.536,330.527 232.248,330.239 232.248,329.885C232.248,329.53 232.536,329.243 232.891,329.243ZM232.891,327.661C233.245,327.661 233.533,327.949 233.533,328.304C233.533,328.658 233.245,328.946 232.891,328.946C232.536,328.946 232.248,328.658 232.248,328.304C232.248,327.949 232.536,327.661 232.891,327.661ZM232.891,326.064C233.245,326.064 233.533,326.352 233.533,326.707C233.533,327.061 233.245,327.349 232.891,327.349C232.536,327.349 232.248,327.061 232.248,326.707C232.248,326.352 232.536,326.064 232.891,326.064ZM232.891,324.482C233.245,324.482 233.533,324.77 233.533,325.124C233.533,325.479 233.245,325.767 232.891,325.767C232.536,325.767 232.248,325.479 232.248,325.124C232.248,324.77 232.536,324.482 232.891,324.482ZM235.183,320.027L235.183,325.042C235.727,324.967 236.235,324.717 236.627,324.325C237.615,323.337 237.615,321.732 236.627,320.744C236.235,320.352 235.727,320.102 235.183,320.027ZM232.891,322.885C233.245,322.885 233.533,323.173 233.533,323.527C233.533,323.882 233.245,324.17 232.891,324.17C232.536,324.17 232.248,323.882 232.248,323.527C232.248,323.173 232.536,322.885 232.891,322.885ZM232.891,321.304C233.245,321.304 233.533,321.592 233.533,321.946C233.533,322.301 233.245,322.588 232.891,322.588C232.536,322.588 232.248,322.301 232.248,321.946C232.248,321.592 232.536,321.304 232.891,321.304ZM232.891,319.707C233.245,319.707 233.533,319.995 233.533,320.349C233.533,320.704 233.245,320.992 232.891,320.992C232.536,320.992 232.248,320.704 232.248,320.349C232.248,319.995 232.536,319.707 232.891,319.707ZM239.423,315.611C238.291,316.778 237.036,317.868 235.651,318.849C236.097,319.202 236.65,319.396 237.224,319.396C238.621,319.396 239.755,318.262 239.755,316.865C239.755,316.421 239.639,315.99 239.423,315.611ZM232.891,318.11C233.245,318.11 233.533,318.398 233.533,318.752C233.533,319.107 233.245,319.395 232.891,319.395C232.536,319.395 232.248,319.107 232.248,318.752C232.248,318.398 232.536,318.11 232.891,318.11ZM234.538,316.882C234.715,317.189 234.609,317.582 234.302,317.76C233.995,317.937 233.602,317.831 233.425,317.524C233.248,317.217 233.353,316.824 233.66,316.647C233.967,316.47 234.36,316.575 234.538,316.882ZM235.804,315.772C236.055,316.023 236.055,316.43 235.804,316.68C235.554,316.931 235.147,316.931 234.896,316.68C234.645,316.43 234.645,316.023 234.896,315.772C235.147,315.521 235.554,315.521 235.804,315.772ZM236.933,314.74C237.184,314.991 237.184,315.398 236.933,315.649C236.683,315.899 236.276,315.899 236.025,315.649C235.774,315.398 235.774,314.991 236.025,314.74C236.276,314.489 236.683,314.489 236.933,314.74ZM238.063,313.708C238.313,313.959 238.313,314.366 238.063,314.617C237.812,314.867 237.405,314.867 237.154,314.617C236.904,314.366 236.904,313.959 237.154,313.708C237.405,313.457 237.812,313.457 238.063,313.708ZM243.552,310.228C242.722,311.604 241.766,312.952 240.677,314.232C241.089,314.403 241.544,314.463 241.994,314.4C243.378,314.207 244.345,312.927 244.153,311.543C244.084,311.052 243.874,310.596 243.552,310.228ZM239.192,312.579C239.442,312.83 239.442,313.237 239.192,313.487C238.941,313.738 238.534,313.738 238.283,313.487C238.033,313.237 238.033,312.83 238.283,312.579C238.534,312.328 238.941,312.328 239.192,312.579ZM240.149,311.45C240.399,311.7 240.399,312.108 240.149,312.358C239.898,312.609 239.491,312.609 239.24,312.358C238.989,312.108 238.989,311.7 239.24,311.45C239.491,311.199 239.898,311.199 240.149,311.45ZM241.305,310.905C241.246,310.992 241.187,311.078 241.127,311.164C240.897,311.365 240.55,311.38 240.304,311.184C240.026,310.963 239.98,310.558 240.201,310.281C240.421,310.004 240.826,309.958 241.103,310.178C241.326,310.356 241.4,310.652 241.305,310.905ZM241.869,308.839C242.161,309.041 242.235,309.441 242.033,309.733C241.832,310.025 241.432,310.098 241.14,309.897C240.848,309.696 240.774,309.295 240.976,309.003C241.177,308.712 241.577,308.638 241.869,308.839ZM246.428,304.084C245.908,305.586 245.25,307.125 244.445,308.649C244.954,308.766 245.491,308.723 245.98,308.52C247.271,307.985 247.884,306.502 247.349,305.211C247.158,304.75 246.836,304.359 246.428,304.084ZM242.912,308.252C242.886,308.301 242.859,308.35 242.833,308.398C242.642,308.664 242.277,308.746 241.989,308.578C241.682,308.4 241.578,308.006 241.756,307.7C241.935,307.393 242.328,307.289 242.635,307.467C242.911,307.628 243.023,307.963 242.912,308.252ZM243.311,306.089C243.618,306.268 243.722,306.661 243.544,306.968C243.366,307.274 242.972,307.378 242.666,307.2C242.359,307.022 242.255,306.628 242.433,306.322C242.611,306.015 243.005,305.911 243.311,306.089ZM243.939,304.679C244.246,304.857 244.35,305.251 244.172,305.557C243.993,305.863 243.6,305.968 243.294,305.789C242.987,305.611 242.883,305.218 243.061,304.911C243.239,304.605 243.633,304.501 243.939,304.679ZM244.836,303.865L244.768,304.056C244.765,304.062 244.762,304.068 244.759,304.073C244.581,304.379 244.187,304.484 243.881,304.305C243.574,304.127 243.47,303.734 243.648,303.427C243.826,303.121 244.22,303.017 244.526,303.195C244.767,303.335 244.882,303.607 244.836,303.865ZM244.872,301.649C245.204,301.774 245.371,302.145 245.246,302.477C245.121,302.808 244.75,302.976 244.418,302.851C244.087,302.726 243.919,302.355 244.044,302.023C244.17,301.691 244.54,301.524 244.872,301.649ZM245.288,300.149C245.62,300.274 245.787,300.645 245.662,300.976C245.537,301.308 245.166,301.476 244.834,301.35C244.503,301.225 244.335,300.854 244.46,300.523C244.585,300.191 244.956,300.023 245.288,300.149ZM246.052,299.225C246.04,299.294 246.028,299.364 246.015,299.433C245.905,299.744 245.573,299.924 245.248,299.839C244.905,299.75 244.699,299.399 244.788,299.056C244.877,298.713 245.228,298.507 245.572,298.596C245.863,298.672 246.056,298.937 246.052,299.225Z" style="fill:#cfcfea;"/>
        </g>
        <path d="M0,263.159L0,288.413C19.305,303.505 77.832,327.608 116.947,333.456C118.493,334.088 120.315,333.367 121.012,331.847L127.917,318.729C128.614,317.209 127.925,315.462 126.379,314.83C79.527,307.057 37.319,289.996 0,263.159Z" style="fill:#fff;"/>
        <g transform="matrix(-1,0,0,1,300,0)">
            <path d="M0,263.159L0,288.413C19.305,303.505 77.832,327.608 116.947,333.456C118.493,334.088 120.315,333.367 121.012,331.847L127.917,318.729C128.614,317.209 127.925,315.462 126.379,314.83C79.527,307.057 37.319,289.996 0,263.159Z" style="fill:#fff;"/>
        </g>
        <g>
            <path d="M158.381,327.724C172.382,331.847 175.893,350.168 181.687,341.428L183.516,337.943C176.839,346.118 169.631,323.695 157.68,324.404L158.381,327.724Z" style="fill:#d5739f;"/>
            <path d="M158.381,325.969C170.602,317.581 182.744,312.521 193.29,313.61L187.934,310.52C178.935,309.245 166.772,313.791 158.381,321.948L158.381,325.969Z" style="fill:#d5739f;"/>
            <path d="M158.381,327.724C176.535,327.774 187.496,322.349 193.29,313.61L187.934,310.52C181.257,318.695 170.331,322.995 158.381,323.703L158.381,327.724Z" style="fill:#d690b0;"/>
        </g>
        <g transform="matrix(-1,0,0,1,301.788,0)">
            <path d="M158.381,327.724C172.382,331.847 175.893,350.168 181.687,341.428L183.516,337.943C176.839,346.118 169.631,323.695 157.68,324.404L158.381,327.724Z" style="fill:#d5739f;"/>
            <path d="M158.381,325.969C170.602,317.581 182.744,312.521 193.29,313.61L187.934,310.52C178.935,309.245 166.772,313.791 158.381,321.948L158.381,325.969Z" style="fill:#d5739f;"/>
            <path d="M158.381,327.724C176.535,327.774 187.496,322.349 193.29,313.61L187.934,310.52C181.257,318.695 170.331,322.995 158.381,323.703L158.381,327.724Z" style="fill:#d690b0;"/>
        </g>
        <path d="M158.887,322.754C158.887,321.383 157.773,320.269 156.402,320.269L144.974,320.269C143.603,320.269 142.489,321.383 142.489,322.754L142.489,327.724C142.489,329.095 143.603,330.209 144.974,330.209L156.402,330.209C157.773,330.209 158.887,329.095 158.887,327.724L158.887,322.754Z" style="fill:#d78dae;"/>
    </g>
    <defs>
        <linearGradient id="_Linear1" x1="0" y1="0" x2="1" y2="0" gradientUnits="userSpaceOnUse" gradientTransform="matrix(-63.2011,65.2446,-48.3507,-46.8363,284.399,300.813)"><stop offset="0" style="stop-color:#28b6ff;stop-opacity:0.5"/><stop offset="0.61" style="stop-color:#4e93d5;stop-opacity:0.5"/><stop offset="0.79" style="stop-color:#4b87c0;stop-opacity:0.5"/><stop offset="1" style="stop-color:#4a84bb;stop-opacity:0.5"/></linearGradient>
        <linearGradient id="_Linear2" x1="0" y1="0" x2="1" y2="0" gradientUnits="userSpaceOnUse" gradientTransform="matrix(-63.2011,65.2446,-48.3507,-46.8363,284.399,300.813)"><stop offset="0" style="stop-color:#28b6ff;stop-opacity:0.5"/><stop offset="0.61" style="stop-color:#4e93d5;stop-opacity:0.5"/><stop offset="0.79" style="stop-color:#4b87c0;stop-opacity:0.5"/><stop offset="1" style="stop-color:#4a84bb;stop-opacity:0.5"/></linearGradient>
    </defs>
</svg>
