<?xml version="1.0" encoding="UTF-8" standalone="no"?>
<!DOCTYPE svg PUBLIC "-//W3C//DTD SVG 1.1//EN" "http://www.w3.org/Graphics/SVG/1.1/DTD/svg11.dtd">
<svg width="100%" height="100%" viewBox="0 0 300 345" version="1.1" xmlns="http://www.w3.org/2000/svg" xmlns:xlink="http://www.w3.org/1999/xlink" xml:space="preserve" xmlns:serif="http://www.serif.com/" style="fill-rule:evenodd;clip-rule:evenodd;stroke-linejoin:round;stroke-miterlimit:2;">
    <g id="avatar_clothing_53">
        <g>
            <path d="M108.161,329.521L108.161,298.317L130.088,298.317L150,308.539L169.912,298.317L191.839,298.317L191.839,329.521L108.161,329.521Z" style="fill:#fff;"/>
            <path d="M108.161,329.521L108.161,298.317L119.018,298.317L150,315.358L180.729,298.317L191.839,298.317L191.839,329.521L108.161,329.521Z" style="fill:#e8e8e8;"/>
            <path d="M300,308.62C300,328.577 283.577,345 263.62,345L36.38,345C16.423,345 -0,328.577 -0,308.62L-0,262.01L0,262L-0,262.01C-0,281.962 16.418,298.38 36.37,298.38L112.706,298.317L149.849,318.907L187.089,298.317L263.62,298.38C283.577,298.38 300,281.957 300,262L300,308.62Z" style="fill:#3fb2e5;fill-rule:nonzero;"/>
            <g>
                <g>
                    <path d="M276.875,295.851C278.343,295.577 279.936,295.538 281.629,295.86L281.286,305.718C273.882,309.246 266.852,302.152 266.852,302.152C266.852,302.152 269.243,299.008 273.188,297.087C274.444,296.74 275.675,296.327 276.875,295.851Z" style="fill:#6ca249;fill-rule:nonzero;"/>
                    <path d="M300,282.351L300,293.288C299.512,293.91 298.938,294.504 298.262,295.051L292.002,289.376C293.19,284.876 297.333,283.063 300,282.351Z" style="fill:#90c973;fill-rule:nonzero;"/>
                    <path d="M281.973,297.395L286.715,306.042C282.163,312.858 272.487,310.352 272.487,310.352C272.487,310.352 273.618,300.451 281.973,297.395Z" style="fill:#90c973;fill-rule:nonzero;"/>
                    <path d="M297.031,307.795C297.031,307.795 298.163,313.808 295.943,317.275C295.943,317.275 290,314.673 289.376,308.005L297.031,307.795Z" style="fill:#6ca249;fill-rule:nonzero;"/>
                    <path d="M289.367,298.459C290.954,298.017 293.125,300.832 294.211,304.741C295.297,308.649 294.89,312.18 293.303,312.621C291.715,313.062 289.545,310.247 288.459,306.339C287.372,302.431 287.78,298.9 289.367,298.459Z" style="fill:#9ad4ee;"/>
                    <path d="M289.203,287.765C289.624,288.622 289.999,289.603 290.294,290.665C291.38,294.573 290.973,298.104 289.386,298.545C287.799,298.986 285.628,296.171 284.542,292.263C284.497,292.1 284.454,291.939 284.414,291.777C286.122,290.576 287.725,289.233 289.203,287.765Z" style="fill:#9ad4ee;"/>
                    <path d="M281.541,297.582C285.45,296.496 288.981,296.903 289.422,298.49C289.863,300.077 287.048,302.248 283.14,303.334C279.232,304.42 275.701,304.013 275.259,302.426C274.818,300.838 277.633,298.668 281.541,297.582Z" style="fill:#9ad4ee;"/>
                    <path d="M300,298.387C299.171,298.785 298.23,299.14 297.216,299.422C293.308,300.508 289.777,300.101 289.335,298.514C288.894,296.926 291.709,294.756 295.617,293.67C297.2,293.23 298.721,293.035 300,293.064L300,298.387Z" style="fill:#9ad4ee;"/>
                    <path d="M290.219,290.682C292.206,287.153 294.984,284.944 296.417,285.751C297.85,286.558 297.4,290.079 295.413,293.608C293.425,297.137 290.648,299.347 289.214,298.539C287.781,297.732 288.231,294.211 290.219,290.682Z" style="fill:#9ad4ee;"/>
                    <path d="M283.187,303.395C285.182,299.864 287.967,297.655 289.401,298.465C290.836,299.276 290.38,302.801 288.385,306.333C286.389,309.864 283.604,312.073 282.17,311.263C280.735,310.452 281.191,306.927 283.187,303.395Z" style="fill:#9ad4ee;"/>
                    <path d="M300,306.548C298.474,306.524 296.375,305.882 294.274,304.695C290.743,302.699 288.534,299.915 289.344,298.48C290.155,297.046 293.68,297.502 297.212,299.497C298.277,300.099 299.222,300.773 300,301.46L300,306.548Z" style="fill:#9ad4ee;"/>
                    <path d="M284.02,292.05C284.175,292.132 284.329,292.216 284.484,292.304C288.016,294.299 290.225,297.084 289.414,298.518C288.604,299.953 285.078,299.497 281.547,297.502C280.31,296.803 279.236,296.008 278.397,295.207C280.369,294.319 282.25,293.26 284.02,292.05Z" style="fill:#9ad4ee;"/>
                    <path d="M289.346,298.456C290.914,297.391 294.316,299.661 296.938,303.522C299.56,307.383 300.416,311.383 298.848,312.447C297.28,313.512 293.878,311.242 291.256,307.381C288.634,303.52 287.778,299.52 289.346,298.456Z" style="fill:#d0ebf6;"/>
                    <path d="M287.387,289.451C287.425,289.505 287.462,289.56 287.499,289.615C290.122,293.476 290.977,297.475 289.409,298.54C287.841,299.605 284.439,297.334 281.817,293.473L281.803,293.453C283.79,292.293 285.659,290.951 287.387,289.451Z" style="fill:#d0ebf6;"/>
                    <path d="M280.494,300.376C284.356,297.754 288.355,296.898 289.42,298.466C290.485,300.034 288.214,303.436 284.353,306.058C280.492,308.68 276.493,309.536 275.428,307.968C274.363,306.4 276.633,302.998 280.494,300.376Z" style="fill:#d0ebf6;"/>
                    <path d="M300,288.388L300,295.294C299.466,295.748 298.884,296.192 298.261,296.615C294.4,299.237 290.4,300.093 289.335,298.525C288.271,296.957 290.541,293.555 294.402,290.933C296.367,289.598 298.368,288.721 300,288.388Z" style="fill:#d0ebf6;"/>
                    <path d="M293.543,282.586C294.658,283.956 295.022,287.24 294.325,290.887C293.449,295.471 291.226,298.904 289.364,298.549C287.503,298.193 286.702,294.182 287.579,289.598C287.603,289.47 287.629,289.343 287.655,289.216C289.873,287.253 291.852,285.026 293.543,282.586Z" style="fill:#ebf7fd;"/>
                    <path d="M284.424,306.106C285.3,301.522 287.523,298.089 289.385,298.444C291.246,298.8 292.047,302.811 291.171,307.395C290.294,311.98 288.071,315.413 286.21,315.057C284.348,314.701 283.548,310.69 284.424,306.106Z" style="fill:#ebf7fd;"/>
                    <path d="M300,303.797C299.05,303.765 298.034,303.652 296.988,303.452C292.404,302.576 288.971,300.353 289.327,298.491C289.682,296.629 293.693,295.829 298.277,296.705C298.873,296.819 299.449,296.956 300,297.111L300,303.797Z" style="fill:#ebf7fd;"/>
                    <path d="M281.672,293.529C281.703,293.535 281.734,293.54 281.765,293.546C286.349,294.422 289.782,296.645 289.426,298.507C289.07,300.369 285.06,301.169 280.475,300.293C277.238,299.674 274.575,298.384 273.415,297.023C276.328,296.199 279.099,295.017 281.672,293.529Z" style="fill:#ebf7fd;"/>
                    <circle cx="289.371" cy="298.551" r="6.202" style="fill:#d0ebf6;"/>
                    <circle cx="289.371" cy="298.551" r="4.414" style="fill:#ffdd15;"/>
                </g>
                <g transform="matrix(-0.340216,-0.940347,0.940347,-0.340216,34.0496,701.14)">
                    <g transform="matrix(-0.340216,0.940347,-0.940347,-0.340216,670.9,206.52)">
                        <path d="M222.698,345C220.068,343.172 217.174,340.186 216.446,335.655L225.833,332.624C229.784,336.525 229.099,341.921 228.245,345L222.698,345Z" style="fill:#6ca249;fill-rule:nonzero;"/>
                    </g>
                    <g transform="matrix(-0.340216,0.940347,-0.940347,-0.340216,670.9,206.52)">
                        <path d="M210.027,320.29L206.82,328.107C199.816,328.732 196.283,320.925 196.283,320.925C196.283,320.925 203.509,316.354 210.027,320.29Z" style="fill:#90c973;fill-rule:nonzero;"/>
                    </g>
                    <g transform="matrix(-0.340216,0.940347,-0.940347,-0.340216,670.9,206.52)">
                        <path d="M217.773,334.81L224.291,327.409C232.249,329.37 233.184,339.321 233.184,339.321C233.184,339.321 223.489,341.626 217.773,334.81Z" style="fill:#90c973;fill-rule:nonzero;"/>
                    </g>
                    <g transform="matrix(-0.340216,0.940347,-0.940347,-0.340216,670.9,206.52)">
                        <path d="M222.429,317.112C222.429,317.112 227.698,314.001 231.714,314.91C231.714,314.91 231.289,321.383 225.231,324.238L222.429,317.112Z" style="fill:#6ca249;fill-rule:nonzero;"/>
                    </g>
                    <g transform="matrix(-0.340216,0.940347,-0.940347,-0.340216,670.9,206.52)">
                        <path d="M216.257,327.495C215.302,326.152 217.211,323.153 220.517,320.802C223.822,318.451 227.281,317.633 228.236,318.976C229.191,320.318 227.282,323.317 223.977,325.668C220.671,328.019 217.212,328.837 216.257,327.495Z" style="fill:#9ad4ee;"/>
                    </g>
                    <g transform="matrix(-0.340216,0.940347,-0.940347,-0.340216,670.9,206.52)">
                        <path d="M204.353,335.967C203.398,334.624 205.307,331.625 208.613,329.274C211.918,326.923 215.377,326.105 216.332,327.447C217.287,328.79 215.379,331.789 212.073,334.14C208.767,336.491 205.308,337.309 204.353,335.967Z" style="fill:#9ad4ee;"/>
                    </g>
                    <g transform="matrix(-0.340216,0.940347,-0.940347,-0.340216,670.9,206.52)">
                        <path d="M218.095,335.152C215.744,331.846 214.925,328.387 216.268,327.432C217.611,326.477 220.61,328.386 222.96,331.692C225.311,334.997 226.13,338.456 224.787,339.411C223.445,340.366 220.446,338.457 218.095,335.152Z" style="fill:#9ad4ee;"/>
                    </g>
                    <g transform="matrix(-0.340216,0.940347,-0.940347,-0.340216,670.9,206.52)">
                        <path d="M209.627,323.246C207.276,319.941 206.458,316.482 207.801,315.527C209.143,314.572 212.142,316.48 214.493,319.786C216.844,323.092 217.662,326.551 216.32,327.506C214.977,328.46 211.978,326.552 209.627,323.246Z" style="fill:#9ad4ee;"/>
                    </g>
                    <g transform="matrix(-0.340216,0.940347,-0.940347,-0.340216,670.9,206.52)">
                        <path d="M208.655,329.34C204.66,328.671 201.638,326.811 201.909,325.189C202.181,323.566 205.644,322.791 209.639,323.46C213.634,324.128 216.656,325.988 216.385,327.611C216.113,329.233 212.65,330.008 208.655,329.34Z" style="fill:#9ad4ee;"/>
                    </g>
                    <g transform="matrix(-0.340216,0.940347,-0.940347,-0.340216,670.9,206.52)">
                        <path d="M223.002,331.627C219.002,330.952 215.978,329.085 216.252,327.46C216.526,325.835 219.996,325.065 223.996,325.74C227.996,326.415 231.02,328.282 230.746,329.906C230.472,331.531 227.002,332.302 223.002,331.627Z" style="fill:#9ad4ee;"/>
                    </g>
                    <g transform="matrix(-0.340216,0.940347,-0.940347,-0.340216,670.9,206.52)">
                        <path d="M216.285,327.509C214.661,327.234 213.89,323.765 214.565,319.765C215.24,315.765 217.107,312.74 218.732,313.014C220.356,313.289 221.127,316.759 220.452,320.758C219.777,324.758 217.91,327.783 216.285,327.509Z" style="fill:#9ad4ee;"/>
                    </g>
                    <g transform="matrix(-0.340216,0.940347,-0.940347,-0.340216,670.9,206.52)">
                        <path d="M213.851,341.924C212.227,341.65 211.456,338.18 212.131,334.18C212.806,330.181 214.673,327.156 216.298,327.43C217.922,327.704 218.693,331.174 218.018,335.174C217.343,339.174 215.476,342.198 213.851,341.924Z" style="fill:#9ad4ee;"/>
                    </g>
                    <g transform="matrix(-0.340216,0.940347,-0.940347,-0.340216,670.9,206.52)">
                        <path d="M216.262,327.515C214.727,326.403 215.704,322.432 218.443,318.653C221.182,314.873 224.651,312.708 226.186,313.82C227.721,314.932 226.743,318.904 224.005,322.683C221.266,326.462 217.796,328.628 216.262,327.515Z" style="fill:#d0ebf6;"/>
                    </g>
                    <g transform="matrix(-0.340216,0.940347,-0.940347,-0.340216,670.9,206.52)">
                        <path d="M206.395,341.123C204.86,340.01 205.837,336.039 208.576,332.26C211.315,328.48 214.784,326.315 216.319,327.427C217.854,328.54 216.877,332.511 214.138,336.29C211.399,340.069 207.93,342.235 206.395,341.123Z" style="fill:#d0ebf6;"/>
                    </g>
                    <g transform="matrix(-0.340216,0.940347,-0.940347,-0.340216,670.9,206.52)">
                        <path d="M221.079,335.186C217.299,332.447 215.134,328.977 216.246,327.442C217.359,325.908 221.33,326.885 225.109,329.624C228.889,332.363 231.054,335.832 229.942,337.367C228.829,338.902 224.858,337.924 221.079,335.186Z" style="fill:#d0ebf6;"/>
                    </g>
                    <g transform="matrix(-0.340216,0.940347,-0.940347,-0.340216,670.9,206.52)">
                        <path d="M207.467,325.32C203.688,322.582 201.523,319.112 202.635,317.577C203.747,316.042 207.719,317.02 211.498,319.759C215.277,322.497 217.442,325.967 216.33,327.502C215.218,329.037 211.247,328.059 207.467,325.32Z" style="fill:#d0ebf6;"/>
                    </g>
                    <g transform="matrix(-0.340216,0.940347,-0.940347,-0.340216,670.9,206.52)">
                        <path d="M208.533,332.191C203.924,332.927 199.94,332.004 199.641,330.133C199.342,328.261 202.842,326.144 207.451,325.408C212.06,324.672 216.044,325.595 216.343,327.467C216.642,329.338 213.142,331.455 208.533,332.191Z" style="fill:#ebf7fd;"/>
                    </g>
                    <g transform="matrix(-0.340216,0.940347,-0.940347,-0.340216,670.9,206.52)">
                        <path d="M225.13,329.541C220.521,330.277 216.537,329.355 216.238,327.483C215.939,325.611 219.438,323.494 224.047,322.758C228.656,322.023 232.641,322.945 232.94,324.817C233.238,326.688 229.739,328.805 225.13,329.541Z" style="fill:#ebf7fd;"/>
                    </g>
                    <g transform="matrix(-0.340216,0.940347,-0.940347,-0.340216,670.9,206.52)">
                        <path d="M216.302,327.522C214.43,327.82 212.313,324.321 211.577,319.712C210.841,315.103 211.764,311.119 213.636,310.82C215.507,310.521 217.624,314.02 218.36,318.629C219.096,323.238 218.174,327.223 216.302,327.522Z" style="fill:#ebf7fd;"/>
                    </g>
                    <g transform="matrix(-0.340216,0.940347,-0.940347,-0.340216,670.9,206.52)">
                        <path d="M218.949,344.124C217.077,344.423 214.96,340.924 214.224,336.315C213.489,331.706 214.411,327.721 216.283,327.423C218.154,327.124 220.271,330.623 221.007,335.232C221.743,339.841 220.821,343.825 218.949,344.124Z" style="fill:#ebf7fd;"/>
                    </g>
                    <g transform="matrix(-0.340216,0.940347,-0.940347,-0.340216,670.9,206.52)">
                        <path d="M210.511,329.569C209.347,326.351 211.014,322.792 214.233,321.628C217.452,320.463 221.01,322.131 222.175,325.35C223.339,328.568 221.672,332.127 218.453,333.291C215.234,334.456 211.676,332.788 210.511,329.569Z" style="fill:#d0ebf6;"/>
                    </g>
                    <g transform="matrix(-0.340216,0.940347,-0.940347,-0.340216,670.9,206.52)">
                        <path d="M212.192,328.961C211.363,326.67 212.55,324.137 214.841,323.309C217.132,322.48 219.665,323.667 220.494,325.958C221.323,328.249 220.136,330.782 217.845,331.611C215.554,332.439 213.021,331.252 212.192,328.961Z" style="fill:#ffdd15;"/>
                    </g>
                </g>
                <g transform="matrix(-0.656153,-0.754628,0.754628,-0.656153,14.7632,733.522)">
                    <g transform="matrix(-0.656153,0.754628,-0.754628,-0.656153,563.223,470.162)">
                        <path d="M53.235,326.867L60.899,320.658C68.42,323.93 67.68,333.89 67.68,333.89C67.68,333.89 57.711,334.544 53.235,326.867Z" style="fill:#6ca249;fill-rule:nonzero;"/>
                    </g>
                    <g transform="matrix(-0.656153,0.754628,-0.754628,-0.656153,563.223,470.162)">
                        <path d="M41.711,314.847L41.536,323.295C35.228,326.401 29.12,320.391 29.12,320.391C29.12,320.391 34.213,313.523 41.711,314.847Z" style="fill:#90c973;fill-rule:nonzero;"/>
                    </g>
                    <g transform="matrix(-0.656153,0.754628,-0.754628,-0.656153,563.223,470.162)">
                        <path d="M54.169,325.601L57.582,316.349C65.713,315.311 70.17,324.257 70.17,324.257C70.17,324.257 61.956,329.9 54.169,325.601Z" style="fill:#90c973;fill-rule:nonzero;"/>
                    </g>
                    <g transform="matrix(-0.656153,0.754628,-0.754628,-0.656153,563.223,470.162)">
                        <path d="M52.136,307.414C52.136,307.414 55.93,302.614 60.004,302.014C60.004,302.014 61.94,308.206 57.317,313.052L52.136,307.414Z" style="fill:#6ca249;fill-rule:nonzero;"/>
                    </g>
                    <g transform="matrix(-0.656153,0.754628,-0.754628,-0.656153,563.223,470.162)">
                        <path d="M50.119,319.323C48.745,318.415 49.445,314.93 51.681,311.546C53.918,308.162 56.85,306.152 58.224,307.06C59.599,307.969 58.899,311.454 56.662,314.838C54.426,318.222 51.494,320.232 50.119,319.323Z" style="fill:#9ad4ee;"/>
                    </g>
                    <g transform="matrix(-0.656153,0.754628,-0.754628,-0.656153,563.223,470.162)">
                        <path d="M42.067,331.515C40.692,330.606 41.392,327.121 43.629,323.737C45.866,320.353 48.798,318.344 50.172,319.252C51.547,320.161 50.847,323.645 48.61,327.029C46.373,330.413 43.441,332.423 42.067,331.515Z" style="fill:#9ad4ee;"/>
                    </g>
                    <g transform="matrix(-0.656153,0.754628,-0.754628,-0.656153,563.223,470.162)">
                        <path d="M54.592,325.804C51.208,323.567 49.198,320.635 50.107,319.261C51.015,317.886 54.5,318.586 57.884,320.823C61.268,323.06 63.278,325.992 62.37,327.366C61.461,328.741 57.976,328.041 54.592,325.804Z" style="fill:#9ad4ee;"/>
                    </g>
                    <g transform="matrix(-0.656153,0.754628,-0.754628,-0.656153,563.223,470.162)">
                        <path d="M42.404,317.749C39.02,315.512 37.01,312.58 37.919,311.206C38.827,309.831 42.312,310.531 45.696,312.768C49.08,315.005 51.09,317.936 50.181,319.311C49.273,320.685 45.788,319.985 42.404,317.749Z" style="fill:#9ad4ee;"/>
                    </g>
                    <g transform="matrix(-0.656153,0.754628,-0.754628,-0.656153,563.223,470.162)">
                        <path d="M43.692,323.783C39.725,324.599 36.235,323.953 35.904,322.341C35.572,320.73 38.524,318.759 42.492,317.944C46.459,317.128 49.949,317.774 50.28,319.385C50.611,320.997 47.66,322.967 43.692,323.783Z" style="fill:#9ad4ee;"/>
                    </g>
                    <g transform="matrix(-0.656153,0.754628,-0.754628,-0.656153,563.223,470.162)">
                        <path d="M57.9,320.748C53.925,321.559 50.431,320.907 50.102,319.293C49.772,317.678 52.731,315.709 56.706,314.898C60.68,314.087 64.174,314.739 64.504,316.353C64.833,317.967 61.874,319.936 57.9,320.748Z" style="fill:#9ad4ee;"/>
                    </g>
                    <g transform="matrix(-0.656153,0.754628,-0.754628,-0.656153,563.223,470.162)">
                        <path d="M50.15,319.326C48.536,319.656 46.567,316.696 45.756,312.722C44.944,308.748 45.596,305.253 47.211,304.924C48.825,304.594 50.794,307.553 51.605,311.528C52.417,315.502 51.765,318.997 50.15,319.326Z" style="fill:#9ad4ee;"/>
                    </g>
                    <g transform="matrix(-0.656153,0.754628,-0.754628,-0.656153,563.223,470.162)">
                        <path d="M53.073,333.651C51.459,333.98 49.49,331.021 48.679,327.046C47.867,323.072 48.519,319.578 50.133,319.248C51.748,318.919 53.717,321.878 54.528,325.852C55.34,329.827 54.688,333.321 53.073,333.651Z" style="fill:#9ad4ee;"/>
                    </g>
                    <g transform="matrix(-0.656153,0.754628,-0.754628,-0.656153,563.223,470.162)">
                        <path d="M50.131,319.341C48.298,318.856 47.779,314.8 48.972,310.287C50.166,305.775 52.622,302.505 54.455,302.99C56.287,303.474 56.806,307.531 55.613,312.043C54.42,316.556 51.963,319.825 50.131,319.341Z" style="fill:#d0ebf6;"/>
                    </g>
                    <g transform="matrix(-0.656153,0.754628,-0.754628,-0.656153,563.223,470.162)">
                        <path d="M45.829,335.589C43.996,335.104 43.477,331.048 44.671,326.535C45.864,322.023 48.32,318.753 50.153,319.238C51.985,319.723 52.504,323.779 51.311,328.292C50.118,332.804 47.661,336.074 45.829,335.589Z" style="fill:#d0ebf6;"/>
                    </g>
                    <g transform="matrix(-0.656153,0.754628,-0.754628,-0.656153,563.223,470.162)">
                        <path d="M57.388,324.761C52.876,323.567 49.606,321.111 50.09,319.278C50.575,317.446 54.632,316.927 59.144,318.12C63.656,319.313 66.926,321.77 66.441,323.602C65.957,325.435 61.9,325.954 57.388,324.761Z" style="fill:#d0ebf6;"/>
                    </g>
                    <g transform="matrix(-0.656153,0.754628,-0.754628,-0.656153,563.223,470.162)">
                        <path d="M41.136,320.462C36.624,319.268 33.354,316.812 33.839,314.979C34.323,313.147 38.38,312.628 42.892,313.821C47.404,315.015 50.674,317.471 50.19,319.304C49.705,321.136 45.648,321.655 41.136,320.462Z" style="fill:#d0ebf6;"/>
                    </g>
                    <g transform="matrix(-0.656153,0.754628,-0.754628,-0.656153,563.223,470.162)">
                        <path d="M44.606,326.487C40.572,328.834 36.522,329.409 35.569,327.77C34.616,326.132 37.118,322.896 41.152,320.55C45.187,318.203 49.236,317.628 50.189,319.266C51.142,320.904 48.64,324.14 44.606,326.487Z" style="fill:#ebf7fd;"/>
                    </g>
                    <g transform="matrix(-0.656153,0.754628,-0.754628,-0.656153,563.223,470.162)">
                        <path d="M59.134,318.035C55.099,320.382 51.05,320.957 50.097,319.319C49.144,317.681 51.645,314.445 55.68,312.098C59.714,309.751 63.763,309.176 64.716,310.815C65.669,312.453 63.168,315.689 59.134,318.035Z" style="fill:#ebf7fd;"/>
                    </g>
                    <g transform="matrix(-0.656153,0.754628,-0.754628,-0.656153,563.223,470.162)">
                        <path d="M50.17,319.332C48.532,320.285 45.296,317.784 42.95,313.749C40.603,309.715 40.028,305.666 41.666,304.713C43.304,303.76 46.54,306.261 48.887,310.296C51.234,314.33 51.809,318.379 50.17,319.332Z" style="fill:#ebf7fd;"/>
                    </g>
                    <g transform="matrix(-0.656153,0.754628,-0.754628,-0.656153,563.223,470.162)">
                        <path d="M58.621,333.866C56.983,334.819 53.747,332.318 51.401,328.283C49.054,324.249 48.479,320.2 50.117,319.247C51.755,318.294 54.991,320.795 57.338,324.83C59.685,328.864 60.26,332.913 58.621,333.866Z" style="fill:#ebf7fd;"/>
                    </g>
                    <g transform="matrix(-0.656153,0.754628,-0.754628,-0.656153,563.223,470.162)">
                        <path d="M45.507,323.329C43.261,320.746 43.534,316.825 46.117,314.579C48.7,312.333 52.621,312.607 54.867,315.19C57.113,317.773 56.839,321.694 54.256,323.939C51.673,326.185 47.752,325.912 45.507,323.329Z" style="fill:#d0ebf6;"/>
                    </g>
                    <g transform="matrix(-0.656153,0.754628,-0.754628,-0.656153,563.223,470.162)">
                        <path d="M46.855,322.156C45.257,320.317 45.452,317.527 47.29,315.928C49.129,314.33 51.919,314.524 53.518,316.363C55.116,318.201 54.922,320.992 53.083,322.591C51.245,324.189 48.454,323.994 46.855,322.156Z" style="fill:#ffdd15;"/>
                    </g>
                </g>
                <g transform="matrix(0.64338,-0.765547,0.765547,0.64338,-405.06,319.73)">
                    <g transform="matrix(0.64338,0.765547,-0.765547,0.64338,505.376,104.385)">
                        <path d="M-0,297.396C0.68,296.357 1.541,295.367 2.629,294.479L9.955,301.085C8.49,306.724 3.042,308.77 0.01,309.482C0.003,309.194 -0,308.907 -0,308.62L-0,297.396Z" style="fill:#6ca249;fill-rule:nonzero;"/>
                    </g>
                    <g transform="matrix(0.64338,0.765547,-0.765547,0.64338,505.376,104.385)">
                        <path d="M2.832,276.003C3.739,278.154 4.849,280.202 6.137,282.122L4.339,282.367C2.866,280.276 2.588,278.023 2.832,276.003Z" style="fill:#90c973;fill-rule:nonzero;"/>
                    </g>
                    <g transform="matrix(0.64338,0.765547,-0.765547,0.64338,505.376,104.385)">
                        <path d="M4.026,295.204L13.696,297.137C15.986,305.008 7.842,310.802 7.842,310.802C7.842,310.802 0.99,303.566 4.026,295.204Z" style="fill:#90c973;fill-rule:nonzero;"/>
                    </g>
                    <g transform="matrix(0.64338,0.765547,-0.765547,0.64338,505.376,104.385)">
                        <path d="M18.902,293.858C21.735,295.427 24.795,296.63 28.014,297.398C26.908,297.87 21.788,299.74 16.911,296.363L18.902,293.858Z" style="fill:#6ca249;fill-rule:nonzero;"/>
                    </g>
                    <g transform="matrix(0.64338,0.765547,-0.765547,0.64338,505.376,104.385)">
                        <path d="M23.085,295.838C23.078,296.011 23.041,296.175 22.971,296.327C22.288,297.826 18.736,297.677 15.045,295.993C11.355,294.31 8.913,291.727 9.597,290.228C9.93,289.499 10.941,289.159 12.317,289.197C15.472,291.996 19.111,294.259 23.085,295.838Z" style="fill:#9ad4ee;"/>
                    </g>
                    <g transform="matrix(0.64338,0.765547,-0.765547,0.64338,505.376,104.385)">
                        <path d="M-0,283.222C1.266,283.393 2.735,283.823 4.227,284.503C7.918,286.186 10.359,288.77 9.675,290.269C8.992,291.768 5.44,291.619 1.75,289.936C1.128,289.652 0.542,289.343 -0,289.018L-0,283.222Z" style="fill:#9ad4ee;"/>
                    </g>
                    <g transform="matrix(0.64338,0.765547,-0.765547,0.64338,505.376,104.385)">
                        <path d="M3.891,295.654C5.574,291.964 8.157,289.522 9.656,290.206C11.156,290.89 11.006,294.441 9.323,298.132C7.64,301.822 5.057,304.264 3.557,303.58C2.058,302.897 2.208,299.345 3.891,295.654Z" style="fill:#9ad4ee;"/>
                    </g>
                    <g transform="matrix(0.64338,0.765547,-0.765547,0.64338,505.376,104.385)">
                        <path d="M8.834,285.664C9.933,286.939 11.118,288.139 12.38,289.253C11.355,290.204 10.356,290.623 9.619,290.287C8.583,289.815 8.334,287.974 8.834,285.664Z" style="fill:#9ad4ee;"/>
                    </g>
                    <g transform="matrix(0.64338,0.765547,-0.765547,0.64338,505.376,104.385)">
                        <path d="M3.537,277.568C5.356,281.365 7.817,284.806 10.775,287.748C10.719,289.127 10.312,290.115 9.561,290.397C8.02,290.974 5.615,288.365 4.192,284.573C3.116,281.706 2.908,278.978 3.537,277.568Z" style="fill:#9ad4ee;"/>
                    </g>
                    <g transform="matrix(0.64338,0.765547,-0.765547,0.64338,505.376,104.385)">
                        <path d="M9.4,298.135C7.98,294.336 8.081,290.782 9.624,290.206C11.168,289.629 13.573,292.246 14.993,296.046C16.412,299.846 16.312,303.399 14.769,303.975C13.225,304.552 10.82,301.935 9.4,298.135Z" style="fill:#9ad4ee;"/>
                    </g>
                    <g transform="matrix(0.64338,0.765547,-0.765547,0.64338,505.376,104.385)">
                        <path d="M10.712,287.686C11.999,288.973 13.382,290.165 14.847,291.249C12.18,291.77 10.036,291.428 9.599,290.259C9.326,289.529 9.768,288.606 10.712,287.686Z" style="fill:#9ad4ee;"/>
                    </g>
                    <g transform="matrix(0.64338,0.765547,-0.765547,0.64338,505.376,104.385)">
                        <path d="M-0,290.765C0.544,290.492 1.128,290.236 1.744,290.006C5.543,288.586 9.096,288.687 9.673,290.23C10.25,291.774 7.633,294.179 3.833,295.599C2.483,296.103 1.165,296.416 -0,296.54L-0,290.765Z" style="fill:#9ad4ee;"/>
                    </g>
                    <g transform="matrix(0.64338,0.765547,-0.765547,0.64338,505.376,104.385)">
                        <path d="M11.43,288.384C14.067,290.881 17.073,292.991 20.354,294.62C19.496,294.649 18.584,294.619 17.643,294.522C13,294.045 9.388,292.127 9.581,290.242C9.659,289.484 10.341,288.845 11.43,288.384Z" style="fill:#d0ebf6;"/>
                    </g>
                    <g transform="matrix(0.64338,0.765547,-0.765547,0.64338,505.376,104.385)">
                        <path d="M-0,285.864C0.528,285.877 1.071,285.911 1.625,285.967C6.268,286.444 9.88,288.362 9.686,290.248C9.493,292.133 5.566,293.277 0.923,292.8C0.611,292.768 0.303,292.729 -0,292.685L-0,285.864Z" style="fill:#d0ebf6;"/>
                    </g>
                    <g transform="matrix(0.64338,0.765547,-0.765547,0.64338,505.376,104.385)">
                        <path d="M5.356,298.254C5.833,293.611 7.751,289.999 9.637,290.192C11.522,290.386 12.666,294.313 12.189,298.956C11.712,303.598 9.794,307.211 7.909,307.017C6.023,306.823 4.879,302.897 5.356,298.254Z" style="fill:#d0ebf6;"/>
                    </g>
                    <g transform="matrix(0.64338,0.765547,-0.765547,0.64338,505.376,104.385)">
                        <path d="M6.969,283.313C8.417,285.299 10.06,287.135 11.869,288.793C11.185,289.809 10.403,290.374 9.627,290.295C7.989,290.126 6.91,287.139 6.969,283.313Z" style="fill:#d0ebf6;"/>
                    </g>
                    <g transform="matrix(0.64338,0.765547,-0.765547,0.64338,505.376,104.385)">
                        <path d="M-0,276.821C1.076,276.78 2.551,277.457 4.085,278.665C5.673,281.711 7.68,284.51 10.028,286.985C10.462,288.494 10.376,289.709 9.664,290.288C8.194,291.484 4.609,289.516 1.663,285.896C1.023,285.11 0.466,284.31 -0,283.526L-0,276.821Z" style="fill:#ebf7fd;"/>
                    </g>
                    <g transform="matrix(0.64338,0.765547,-0.765547,0.64338,505.376,104.385)">
                        <path d="M12.271,298.932C9.325,295.312 8.127,291.402 9.598,290.205C11.068,289.009 14.653,290.977 17.599,294.597C20.545,298.217 21.743,302.128 20.272,303.324C18.802,304.52 15.217,302.552 12.271,298.932Z" style="fill:#ebf7fd;"/>
                    </g>
                    <g transform="matrix(0.64338,0.765547,-0.765547,0.64338,505.376,104.385)">
                        <path d="M9.949,286.9C11.12,288.142 12.377,289.303 13.709,290.372C11.83,291.089 10.275,291.115 9.596,290.28C9.007,289.556 9.185,288.32 9.949,286.9Z" style="fill:#ebf7fd;"/>
                    </g>
                    <g transform="matrix(0.64338,0.765547,-0.765547,0.64338,505.376,104.385)">
                        <path d="M-0,293.705C0.301,293.428 0.616,293.155 0.945,292.887C4.565,289.942 8.476,288.744 9.672,290.214C10.869,291.684 8.901,295.269 5.28,298.215C3.467,299.69 1.582,300.727 -0,301.21L-0,293.705Z" style="fill:#ebf7fd;"/>
                    </g>
                    <g transform="matrix(0.64338,0.765547,-0.765547,0.64338,505.376,104.385)">
                        <path d="M7.777,284.379C10.024,287.239 12.688,289.759 15.674,291.844C15.449,292.711 15.033,293.543 14.418,294.275C12.216,296.895 8.301,297.234 5.68,295.032C3.06,292.83 2.72,288.915 4.923,286.294C5.703,285.366 6.699,284.723 7.777,284.379Z" style="fill:#d0ebf6;"/>
                    </g>
                    <g transform="matrix(0.64338,0.765547,-0.765547,0.64338,505.376,104.385)">
                        <path d="M9.052,285.915C10.572,287.647 12.252,289.235 14.069,290.657C13.995,291.535 13.659,292.399 13.05,293.125C11.482,294.99 8.695,295.231 6.83,293.664C4.965,292.096 4.724,289.31 6.291,287.444C7.02,286.578 8.012,286.061 9.052,285.915Z" style="fill:#ffdd15;"/>
                    </g>
                </g>
            </g>
            <g transform="matrix(1,0,0,1,6.5754,18.1808)">
                <path d="M214.623,280.136L220.465,280.136L133.663,326.819L128.263,326.819L214.623,280.136Z" style="fill:#2d9fd7;"/>
            </g>
            <g transform="matrix(1,0,0,1,-30.6354,18.1808)">
                <path d="M162.815,307.999L168.658,307.999L133.663,326.819L128.263,326.819L162.815,307.999Z" style="fill:#2d9fd7;"/>
            </g>
            <g transform="matrix(-1,0,0,1,266.285,4.24947)">
                <path d="M188.392,294.067L194.234,294.067L133.663,326.819L128.263,326.819L188.392,294.067Z" style="fill:#2d9fd7;"/>
            </g>
            <path d="M152.738,320.404L133.663,329.521L77.351,298.317L112.879,298.317L152.738,320.404Z" style="fill:#63cfff;"/>
            <path d="M146.195,316.778L152.738,320.404L133.663,329.521L128.263,326.529L146.195,316.778Z" style="fill:#2d9fd7;"/>
            <g transform="matrix(1,0,-1.68721,0.934947,588.259,14.5604)">
                <rect x="110.656" y="303.5" width="35.528" height="49.931" style="fill:#63cfff;"/>
            </g>
        </g>
        <path d="M298.384,319.288C293.779,334.11 279.871,345 263.62,345L36.38,345C20.129,345 6.221,334.11 1.616,319.288L298.384,319.288Z" style="fill:#2d9fd7;fill-opacity:0.5;fill-rule:nonzero;"/>
        <g>
            <g transform="matrix(0.971497,0,0,1.09141,4.64708,-25.1597)">
                <path d="M18.021,336.765C16.142,336.765 14.568,336.185 11.769,334.581C8.465,332.688 3.336,329.521 1.492,326.796C0.439,325.24 1.525,323.15 3.404,323.15L296.596,323.15C298.475,323.15 299.561,325.24 298.508,326.796C296.664,329.521 291.802,332.703 288.594,334.581C285.813,336.209 284.221,336.765 282.342,336.765L18.021,336.765Z" style="fill:#c31123;"/>
            </g>
            <g transform="matrix(1,0,0,1.12343,0,-39.887)">
                <path d="M13.484,336.765C11.605,336.765 9.169,336.991 7.232,334.581C5.204,332.057 3.336,329.521 1.492,326.796C0.439,325.24 1.525,323.15 3.404,323.15L296.596,323.15C298.475,323.15 299.561,325.24 298.508,326.796C296.664,329.521 294.796,332.057 292.768,334.581C290.831,336.991 288.395,336.765 286.516,336.765L13.484,336.765Z" style="fill:#c31123;"/>
            </g>
        </g>
        <g>
            <g>
                <g transform="matrix(1,0,0,1,58.7908,0.130051)">
                    <g transform="matrix(1,0,0,1,-58.7908,-0.130051)">
                        <circle cx="150" cy="330.801" r="1.121" style="fill:#ffbb13;"/>
                    </g>
                    <g transform="matrix(1,0,0,1,-58.7908,-0.130051)">
                        <path d="M150,332.461C150.272,332.461 150.493,333.286 150.493,334.302C150.493,335.318 150.272,336.143 150,336.143C149.728,336.143 149.507,335.318 149.507,334.302C149.507,333.286 149.728,332.461 150,332.461ZM147.329,335.428C147.093,335.292 147.314,334.467 147.822,333.587C148.33,332.707 148.934,332.103 149.17,332.239C149.405,332.375 149.184,333.2 148.676,334.08C148.168,334.96 147.564,335.564 147.329,335.428ZM150.83,332.239C151.066,332.103 151.67,332.707 152.178,333.587C152.686,334.467 152.907,335.292 152.671,335.428C152.436,335.564 151.832,334.96 151.324,334.08C150.816,333.2 150.595,332.375 150.83,332.239ZM145.373,333.472C145.237,333.236 145.841,332.632 146.721,332.124C147.601,331.616 148.426,331.395 148.562,331.631C148.698,331.867 148.094,332.471 147.214,332.979C146.334,333.487 145.509,333.708 145.373,333.472ZM151.438,331.631C151.574,331.395 152.399,331.616 153.279,332.124C154.159,332.632 154.763,333.236 154.627,333.472C154.491,333.708 153.666,333.487 152.786,332.979C151.906,332.471 151.302,331.867 151.438,331.631ZM144.657,330.801C144.657,330.528 145.482,330.307 146.498,330.307C147.514,330.307 148.339,330.528 148.339,330.801C148.339,331.073 147.514,331.294 146.498,331.294C145.482,331.294 144.657,331.073 144.657,330.801ZM151.661,330.801C151.661,330.528 152.486,330.307 153.502,330.307C154.518,330.307 155.343,330.528 155.343,330.801C155.343,331.073 154.518,331.294 153.502,331.294C152.486,331.294 151.661,331.073 151.661,330.801ZM151.438,329.97C151.302,329.735 151.906,329.131 152.786,328.623C153.666,328.115 154.491,327.893 154.627,328.129C154.763,328.365 154.159,328.969 153.279,329.477C152.399,329.985 151.574,330.206 151.438,329.97ZM145.373,328.129C145.509,327.893 146.334,328.115 147.214,328.623C148.094,329.131 148.698,329.735 148.562,329.97C148.426,330.206 147.601,329.985 146.721,329.477C145.841,328.969 145.237,328.365 145.373,328.129ZM150.83,329.362C150.595,329.226 150.816,328.401 151.324,327.521C151.832,326.641 152.436,326.038 152.671,326.174C152.907,326.31 152.686,327.135 152.178,328.015C151.67,328.895 151.066,329.499 150.83,329.362ZM147.329,326.174C147.564,326.038 148.168,326.641 148.676,327.521C149.184,328.401 149.405,329.226 149.17,329.362C148.934,329.499 148.33,328.895 147.822,328.015C147.314,327.135 147.093,326.31 147.329,326.174ZM150,325.458C150.272,325.458 150.493,326.283 150.493,327.299C150.493,328.315 150.272,329.14 150,329.14C149.728,329.14 149.507,328.315 149.507,327.299C149.507,326.283 149.728,325.458 150,325.458Z" style="fill:#ffe2e5;"/>
                    </g>
                </g>
                <g transform="matrix(1,0,0,1,41.5155,-7.52084)">
                    <g transform="matrix(1,0,0,1,-41.5155,7.52084)">
                        <path d="M133.845,323.15C133.845,323.768 133.343,324.27 132.725,324.27C132.106,324.27 131.604,323.768 131.604,323.15L133.845,323.15Z" style="fill:#ffbb13;"/>
                    </g>
                    <g transform="matrix(1,0,0,1,-41.5155,7.52084)">
                        <path d="M132.725,324.81C132.997,324.81 133.218,325.635 133.218,326.651C133.218,327.668 132.997,328.493 132.725,328.493C132.452,328.493 132.231,327.668 132.231,326.651C132.231,325.635 132.452,324.81 132.725,324.81ZM130.053,327.777C129.818,327.641 130.039,326.816 130.547,325.936C131.055,325.056 131.659,324.452 131.894,324.588C132.13,324.724 131.909,325.549 131.401,326.429C130.893,327.309 130.289,327.913 130.053,327.777ZM133.555,324.588C133.791,324.452 134.395,325.056 134.903,325.936C135.411,326.816 135.632,327.641 135.396,327.777C135.16,327.913 134.556,327.309 134.048,326.429C133.54,325.549 133.319,324.724 133.555,324.588ZM128.098,325.821C127.962,325.585 128.566,324.982 129.445,324.473C130.325,323.965 131.15,323.744 131.286,323.98C131.423,324.216 130.819,324.82 129.939,325.328C129.059,325.836 128.234,326.057 128.098,325.821ZM134.163,323.98C134.299,323.744 135.124,323.965 136.004,324.473C136.884,324.982 137.488,325.585 137.352,325.821C137.216,326.057 136.391,325.836 135.511,325.328C134.631,324.82 134.027,324.216 134.163,323.98ZM131.064,323.15C131.064,323.422 130.239,323.643 129.223,323.643C128.207,323.643 127.382,323.422 127.382,323.15L131.064,323.15ZM138.067,323.15C138.067,323.422 137.242,323.643 136.226,323.643C135.21,323.643 134.385,323.422 134.385,323.15L138.067,323.15Z" style="fill:#ffe2e5;"/>
                    </g>
                </g>
                <g transform="matrix(1,0,0,1,41.5155,7.78094)">
                    <g transform="matrix(1,0,0,1,-41.5155,-7.78094)">
                        <circle cx="132.725" cy="338.452" r="1.121" style="fill:#ffbb13;"/>
                    </g>
                    <g transform="matrix(1,0,0,1,-41.5155,-7.78094)">
                        <path d="M130.034,342.389C130.128,342.063 130.305,341.657 130.547,341.237C131.055,340.358 131.659,339.754 131.894,339.89C132.13,340.026 131.909,340.851 131.401,341.731C131.26,341.975 131.112,342.197 130.966,342.389L130.034,342.389ZM132.245,342.389C132.236,342.249 132.231,342.103 132.231,341.953C132.231,340.937 132.452,340.112 132.725,340.112C132.997,340.112 133.218,340.937 133.218,341.953C133.218,342.103 133.213,342.249 133.204,342.389L132.245,342.389ZM134.483,342.389C134.337,342.197 134.189,341.975 134.048,341.731C133.54,340.851 133.319,340.026 133.555,339.89C133.791,339.754 134.395,340.358 134.903,341.237C135.145,341.657 135.322,342.063 135.415,342.389L134.483,342.389ZM128.098,341.123C127.962,340.887 128.566,340.283 129.445,339.775C130.325,339.267 131.15,339.046 131.286,339.282C131.423,339.518 130.819,340.121 129.939,340.629C129.059,341.138 128.234,341.359 128.098,341.123ZM134.163,339.282C134.299,339.046 135.124,339.267 136.004,339.775C136.884,340.283 137.488,340.887 137.352,341.123C137.216,341.359 136.391,341.138 135.511,340.629C134.631,340.121 134.027,339.518 134.163,339.282ZM127.382,338.452C127.382,338.179 128.207,337.958 129.223,337.958C130.239,337.958 131.064,338.179 131.064,338.452C131.064,338.724 130.239,338.945 129.223,338.945C128.207,338.945 127.382,338.724 127.382,338.452ZM134.385,338.452C134.385,338.179 135.21,337.958 136.226,337.958C137.242,337.958 138.067,338.179 138.067,338.452C138.067,338.724 137.242,338.945 136.226,338.945C135.21,338.945 134.385,338.724 134.385,338.452ZM134.163,337.621C134.027,337.385 134.631,336.782 135.511,336.274C136.391,335.765 137.216,335.544 137.352,335.78C137.488,336.016 136.884,336.62 136.004,337.128C135.124,337.636 134.299,337.857 134.163,337.621ZM128.098,335.78C128.234,335.544 129.059,335.765 129.939,336.274C130.819,336.782 131.423,337.385 131.286,337.621C131.15,337.857 130.325,337.636 129.445,337.128C128.566,336.62 127.962,336.016 128.098,335.78ZM133.555,337.013C133.319,336.877 133.54,336.052 134.048,335.172C134.556,334.292 135.16,333.688 135.396,333.825C135.632,333.961 135.411,334.786 134.903,335.666C134.395,336.546 133.791,337.149 133.555,337.013ZM130.053,333.825C130.289,333.688 130.893,334.292 131.401,335.172C131.909,336.052 132.13,336.877 131.894,337.013C131.659,337.149 131.055,336.546 130.547,335.666C130.039,334.786 129.818,333.961 130.053,333.825ZM132.725,333.109C132.997,333.109 133.218,333.934 133.218,334.95C133.218,335.966 132.997,336.791 132.725,336.791C132.452,336.791 132.231,335.966 132.231,334.95C132.231,333.934 132.452,333.109 132.725,333.109Z" style="fill:#ffe2e5;"/>
                    </g>
                </g>
                <g transform="matrix(1,0,0,1,24.9973,0.130051)">
                    <g transform="matrix(1,0,0,1,-24.9973,-0.130051)">
                        <circle cx="116.207" cy="330.801" r="1.121" style="fill:#ffbb13;"/>
                    </g>
                    <g transform="matrix(1,0,0,1,-24.9973,-0.130051)">
                        <path d="M116.207,332.461C116.479,332.461 116.7,333.286 116.7,334.302C116.7,335.318 116.479,336.143 116.207,336.143C115.934,336.143 115.713,335.318 115.713,334.302C115.713,333.286 115.934,332.461 116.207,332.461ZM113.535,335.428C113.299,335.292 113.52,334.467 114.029,333.587C114.537,332.707 115.14,332.103 115.376,332.239C115.612,332.375 115.391,333.2 114.883,334.08C114.375,334.96 113.771,335.564 113.535,335.428ZM117.037,332.239C117.273,332.103 117.876,332.707 118.384,333.587C118.893,334.467 119.114,335.292 118.878,335.428C118.642,335.564 118.038,334.96 117.53,334.08C117.022,333.2 116.801,332.375 117.037,332.239ZM111.58,333.472C111.443,333.236 112.047,332.632 112.927,332.124C113.807,331.616 114.632,331.395 114.768,331.631C114.904,331.867 114.3,332.471 113.421,332.979C112.541,333.487 111.716,333.708 111.58,333.472ZM117.645,331.631C117.781,331.395 118.606,331.616 119.486,332.124C120.366,332.632 120.97,333.236 120.833,333.472C120.697,333.708 119.872,333.487 118.992,332.979C118.113,332.471 117.509,331.867 117.645,331.631ZM110.864,330.801C110.864,330.528 111.689,330.307 112.705,330.307C113.721,330.307 114.546,330.528 114.546,330.801C114.546,331.073 113.721,331.294 112.705,331.294C111.689,331.294 110.864,331.073 110.864,330.801ZM117.867,330.801C117.867,330.528 118.692,330.307 119.708,330.307C120.724,330.307 121.549,330.528 121.549,330.801C121.549,331.073 120.724,331.294 119.708,331.294C118.692,331.294 117.867,331.073 117.867,330.801ZM117.645,329.97C117.509,329.735 118.113,329.131 118.992,328.623C119.872,328.115 120.697,327.893 120.833,328.129C120.97,328.365 120.366,328.969 119.486,329.477C118.606,329.985 117.781,330.206 117.645,329.97ZM111.58,328.129C111.716,327.893 112.541,328.115 113.421,328.623C114.3,329.131 114.904,329.735 114.768,329.97C114.632,330.206 113.807,329.985 112.927,329.477C112.047,328.969 111.443,328.365 111.58,328.129ZM117.037,329.362C116.801,329.226 117.022,328.401 117.53,327.521C118.038,326.641 118.642,326.038 118.878,326.174C119.114,326.31 118.893,327.135 118.384,328.015C117.876,328.895 117.273,329.499 117.037,329.362ZM113.535,326.174C113.771,326.038 114.375,326.641 114.883,327.521C115.391,328.401 115.612,329.226 115.376,329.362C115.14,329.499 114.537,328.895 114.029,328.015C113.52,327.135 113.299,326.31 113.535,326.174ZM116.207,325.458C116.479,325.458 116.7,326.283 116.7,327.299C116.7,328.315 116.479,329.14 116.207,329.14C115.934,329.14 115.713,328.315 115.713,327.299C115.713,326.283 115.934,325.458 116.207,325.458Z" style="fill:#ffe2e5;"/>
                    </g>
                </g>
                <g transform="matrix(1,0,0,1,7.72196,-7.52084)">
                    <g transform="matrix(1,0,0,1,-7.72196,7.52084)">
                        <path d="M100.052,323.15C100.052,323.768 99.55,324.27 98.931,324.27C98.313,324.27 97.811,323.768 97.811,323.15L100.052,323.15Z" style="fill:#ffbb13;"/>
                    </g>
                    <g transform="matrix(1,0,0,1,-7.72196,7.52084)">
                        <path d="M98.931,324.81C99.203,324.81 99.424,325.635 99.424,326.651C99.424,327.668 99.203,328.493 98.931,328.493C98.659,328.493 98.438,327.668 98.438,326.651C98.438,325.635 98.659,324.81 98.931,324.81ZM96.26,327.777C96.024,327.641 96.245,326.816 96.753,325.936C97.261,325.056 97.865,324.452 98.101,324.588C98.337,324.724 98.115,325.549 97.607,326.429C97.099,327.309 96.496,327.913 96.26,327.777ZM99.761,324.588C99.997,324.452 100.601,325.056 101.109,325.936C101.617,326.816 101.838,327.641 101.603,327.777C101.367,327.913 100.763,327.309 100.255,326.429C99.747,325.549 99.526,324.724 99.761,324.588ZM94.304,325.821C94.168,325.585 94.772,324.982 95.652,324.473C96.532,323.965 97.357,323.744 97.493,323.98C97.629,324.216 97.025,324.82 96.145,325.328C95.265,325.836 94.44,326.057 94.304,325.821ZM100.369,323.98C100.505,323.744 101.33,323.965 102.21,324.473C103.09,324.982 103.694,325.585 103.558,325.821C103.422,326.057 102.597,325.836 101.717,325.328C100.837,324.82 100.233,324.216 100.369,323.98ZM97.271,323.15C97.271,323.422 96.446,323.643 95.429,323.643C94.413,323.643 93.588,323.422 93.588,323.15L97.271,323.15ZM104.274,323.15C104.274,323.422 103.449,323.643 102.433,323.643C101.417,323.643 100.592,323.422 100.592,323.15L104.274,323.15Z" style="fill:#ffe2e5;"/>
                    </g>
                </g>
                <g transform="matrix(1,0,0,1,7.72196,7.78094)">
                    <g transform="matrix(1,0,0,1,-7.72196,-7.78094)">
                        <circle cx="98.931" cy="338.452" r="1.121" style="fill:#ffbb13;"/>
                    </g>
                    <g transform="matrix(1,0,0,1,-7.72196,-7.78094)">
                        <path d="M96.241,342.389C96.334,342.063 96.511,341.657 96.753,341.237C97.261,340.358 97.865,339.754 98.101,339.89C98.337,340.026 98.115,340.851 97.607,341.731C97.467,341.975 97.318,342.197 97.173,342.389L96.241,342.389ZM98.452,342.389C98.443,342.249 98.438,342.103 98.438,341.953C98.438,340.937 98.659,340.112 98.931,340.112C99.203,340.112 99.424,340.937 99.424,341.953C99.424,342.103 99.42,342.249 99.41,342.389L98.452,342.389ZM100.69,342.389C100.544,342.197 100.396,341.975 100.255,341.731C99.747,340.851 99.526,340.026 99.761,339.89C99.997,339.754 100.601,340.358 101.109,341.237C101.351,341.657 101.528,342.063 101.621,342.389L100.69,342.389ZM94.304,341.123C94.168,340.887 94.772,340.283 95.652,339.775C96.532,339.267 97.357,339.046 97.493,339.282C97.629,339.518 97.025,340.121 96.145,340.629C95.265,341.138 94.44,341.359 94.304,341.123ZM100.369,339.282C100.505,339.046 101.33,339.267 102.21,339.775C103.09,340.283 103.694,340.887 103.558,341.123C103.422,341.359 102.597,341.138 101.717,340.629C100.837,340.121 100.233,339.518 100.369,339.282ZM93.588,338.452C93.588,338.179 94.413,337.958 95.429,337.958C96.446,337.958 97.271,338.179 97.271,338.452C97.271,338.724 96.446,338.945 95.429,338.945C94.413,338.945 93.588,338.724 93.588,338.452ZM100.592,338.452C100.592,338.179 101.417,337.958 102.433,337.958C103.449,337.958 104.274,338.179 104.274,338.452C104.274,338.724 103.449,338.945 102.433,338.945C101.417,338.945 100.592,338.724 100.592,338.452ZM100.369,337.621C100.233,337.385 100.837,336.782 101.717,336.274C102.597,335.765 103.422,335.544 103.558,335.78C103.694,336.016 103.09,336.62 102.21,337.128C101.33,337.636 100.505,337.857 100.369,337.621ZM94.304,335.78C94.44,335.544 95.265,335.765 96.145,336.274C97.025,336.782 97.629,337.385 97.493,337.621C97.357,337.857 96.532,337.636 95.652,337.128C94.772,336.62 94.168,336.016 94.304,335.78ZM99.761,337.013C99.526,336.877 99.747,336.052 100.255,335.172C100.763,334.292 101.367,333.688 101.603,333.825C101.838,333.961 101.617,334.786 101.109,335.666C100.601,336.546 99.997,337.149 99.761,337.013ZM96.26,333.825C96.496,333.688 97.099,334.292 97.607,335.172C98.115,336.052 98.337,336.877 98.101,337.013C97.865,337.149 97.261,336.546 96.753,335.666C96.245,334.786 96.024,333.961 96.26,333.825ZM98.931,333.109C99.203,333.109 99.424,333.934 99.424,334.95C99.424,335.966 99.203,336.791 98.931,336.791C98.659,336.791 98.438,335.966 98.438,334.95C98.438,333.934 98.659,333.109 98.931,333.109Z" style="fill:#ffe2e5;"/>
                    </g>
                </g>
                <g transform="matrix(1,0,0,1,-9.14366,0.130051)">
                    <g transform="matrix(1,0,0,1,9.14366,-0.130051)">
                        <circle cx="82.066" cy="330.801" r="1.121" style="fill:#ffbb13;"/>
                    </g>
                    <g transform="matrix(1,0,0,1,9.14366,-0.130051)">
                        <path d="M82.066,332.461C82.338,332.461 82.559,333.286 82.559,334.302C82.559,335.318 82.338,336.143 82.066,336.143C81.793,336.143 81.572,335.318 81.572,334.302C81.572,333.286 81.793,332.461 82.066,332.461ZM79.394,335.428C79.158,335.292 79.38,334.467 79.888,333.587C80.396,332.707 80.999,332.103 81.235,332.239C81.471,332.375 81.25,333.2 80.742,334.08C80.234,334.96 79.63,335.564 79.394,335.428ZM82.896,332.239C83.132,332.103 83.735,332.707 84.244,333.587C84.752,334.467 84.973,335.292 84.737,335.428C84.501,335.564 83.897,334.96 83.389,334.08C82.881,333.2 82.66,332.375 82.896,332.239ZM77.439,333.472C77.302,333.236 77.906,332.632 78.786,332.124C79.666,331.616 80.491,331.395 80.627,331.631C80.763,331.867 80.16,332.471 79.28,332.979C78.4,333.487 77.575,333.708 77.439,333.472ZM83.504,331.631C83.64,331.395 84.465,331.616 85.345,332.124C86.225,332.632 86.829,333.236 86.693,333.472C86.556,333.708 85.732,333.487 84.852,332.979C83.972,332.471 83.368,331.867 83.504,331.631ZM76.723,330.801C76.723,330.528 77.548,330.307 78.564,330.307C79.58,330.307 80.405,330.528 80.405,330.801C80.405,331.073 79.58,331.294 78.564,331.294C77.548,331.294 76.723,331.073 76.723,330.801ZM83.726,330.801C83.726,330.528 84.551,330.307 85.567,330.307C86.583,330.307 87.408,330.528 87.408,330.801C87.408,331.073 86.583,331.294 85.567,331.294C84.551,331.294 83.726,331.073 83.726,330.801ZM83.504,329.97C83.368,329.735 83.972,329.131 84.852,328.623C85.732,328.115 86.556,327.893 86.693,328.129C86.829,328.365 86.225,328.969 85.345,329.477C84.465,329.985 83.64,330.206 83.504,329.97ZM77.439,328.129C77.575,327.893 78.4,328.115 79.28,328.623C80.16,329.131 80.763,329.735 80.627,329.97C80.491,330.206 79.666,329.985 78.786,329.477C77.906,328.969 77.302,328.365 77.439,328.129ZM82.896,329.362C82.66,329.226 82.881,328.401 83.389,327.521C83.897,326.641 84.501,326.038 84.737,326.174C84.973,326.31 84.752,327.135 84.244,328.015C83.735,328.895 83.132,329.499 82.896,329.362ZM79.394,326.174C79.63,326.038 80.234,326.641 80.742,327.521C81.25,328.401 81.471,329.226 81.235,329.362C80.999,329.499 80.396,328.895 79.888,328.015C79.38,327.135 79.158,326.31 79.394,326.174ZM82.066,325.458C82.338,325.458 82.559,326.283 82.559,327.299C82.559,328.315 82.338,329.14 82.066,329.14C81.793,329.14 81.572,328.315 81.572,327.299C81.572,326.283 81.793,325.458 82.066,325.458Z" style="fill:#ffe2e5;"/>
                    </g>
                </g>
                <g transform="matrix(1,0,0,1,-26.419,-7.52084)">
                    <g transform="matrix(1,0,0,1,26.419,7.52084)">
                        <path d="M65.911,323.15C65.911,323.768 65.409,324.27 64.79,324.27C64.172,324.27 63.67,323.768 63.67,323.15L65.911,323.15Z" style="fill:#ffbb13;"/>
                    </g>
                    <g transform="matrix(1,0,0,1,26.419,7.52084)">
                        <path d="M64.79,324.81C65.062,324.81 65.283,325.635 65.283,326.651C65.283,327.668 65.062,328.493 64.79,328.493C64.518,328.493 64.297,327.668 64.297,326.651C64.297,325.635 64.518,324.81 64.79,324.81ZM62.119,327.777C61.883,327.641 62.104,326.816 62.612,325.936C63.12,325.056 63.724,324.452 63.96,324.588C64.196,324.724 63.975,325.549 63.466,326.429C62.958,327.309 62.355,327.913 62.119,327.777ZM65.621,324.588C65.856,324.452 66.46,325.056 66.968,325.936C67.476,326.816 67.697,327.641 67.462,327.777C67.226,327.913 66.622,327.309 66.114,326.429C65.606,325.549 65.385,324.724 65.621,324.588ZM60.163,325.821C60.027,325.585 60.631,324.982 61.511,324.473C62.391,323.965 63.216,323.744 63.352,323.98C63.488,324.216 62.884,324.82 62.004,325.328C61.124,325.836 60.299,326.057 60.163,325.821ZM66.228,323.98C66.364,323.744 67.189,323.965 68.069,324.473C68.949,324.982 69.553,325.585 69.417,325.821C69.281,326.057 68.456,325.836 67.576,325.328C66.696,324.82 66.092,324.216 66.228,323.98ZM63.13,323.15C63.13,323.422 62.305,323.643 61.288,323.643C60.272,323.643 59.447,323.422 59.447,323.15L63.13,323.15ZM70.133,323.15C70.133,323.422 69.308,323.643 68.292,323.643C67.276,323.643 66.451,323.422 66.451,323.15L70.133,323.15Z" style="fill:#ffe2e5;"/>
                    </g>
                </g>
                <g transform="matrix(1,0,0,1,-26.419,7.78094)">
                    <g transform="matrix(1,0,0,1,26.419,-7.78094)">
                        <circle cx="64.79" cy="338.452" r="1.121" style="fill:#ffbb13;"/>
                    </g>
                    <g transform="matrix(1,0,0,1,26.419,-7.78094)">
                        <path d="M62.1,342.389C62.193,342.063 62.37,341.657 62.612,341.237C63.12,340.358 63.724,339.754 63.96,339.89C64.196,340.026 63.975,340.851 63.466,341.731C63.326,341.975 63.177,342.197 63.032,342.389L62.1,342.389ZM64.311,342.389C64.302,342.249 64.297,342.103 64.297,341.953C64.297,340.937 64.518,340.112 64.79,340.112C65.062,340.112 65.283,340.937 65.283,341.953C65.283,342.103 65.279,342.249 65.269,342.389L64.311,342.389ZM66.549,342.389C66.403,342.197 66.255,341.975 66.114,341.731C65.606,340.851 65.385,340.026 65.621,339.89C65.856,339.754 66.46,340.358 66.968,341.237C67.21,341.657 67.387,342.063 67.48,342.389L66.549,342.389ZM60.163,341.123C60.027,340.887 60.631,340.283 61.511,339.775C62.391,339.267 63.216,339.046 63.352,339.282C63.488,339.518 62.884,340.121 62.004,340.629C61.124,341.138 60.299,341.359 60.163,341.123ZM66.228,339.282C66.364,339.046 67.189,339.267 68.069,339.775C68.949,340.283 69.553,340.887 69.417,341.123C69.281,341.359 68.456,341.138 67.576,340.629C66.696,340.121 66.092,339.518 66.228,339.282ZM59.447,338.452C59.447,338.179 60.272,337.958 61.288,337.958C62.305,337.958 63.13,338.179 63.13,338.452C63.13,338.724 62.305,338.945 61.288,338.945C60.272,338.945 59.447,338.724 59.447,338.452ZM66.451,338.452C66.451,338.179 67.276,337.958 68.292,337.958C69.308,337.958 70.133,338.179 70.133,338.452C70.133,338.724 69.308,338.945 68.292,338.945C67.276,338.945 66.451,338.724 66.451,338.452ZM66.228,337.621C66.092,337.385 66.696,336.782 67.576,336.274C68.456,335.765 69.281,335.544 69.417,335.78C69.553,336.016 68.949,336.62 68.069,337.128C67.189,337.636 66.364,337.857 66.228,337.621ZM60.163,335.78C60.299,335.544 61.124,335.765 62.004,336.274C62.884,336.782 63.488,337.385 63.352,337.621C63.216,337.857 62.391,337.636 61.511,337.128C60.631,336.62 60.027,336.016 60.163,335.78ZM65.621,337.013C65.385,336.877 65.606,336.052 66.114,335.172C66.622,334.292 67.226,333.688 67.462,333.825C67.697,333.961 67.476,334.786 66.968,335.666C66.46,336.546 65.856,337.149 65.621,337.013ZM62.119,333.825C62.355,333.688 62.958,334.292 63.466,335.172C63.975,336.052 64.196,336.877 63.96,337.013C63.724,337.149 63.12,336.546 62.612,335.666C62.104,334.786 61.883,333.961 62.119,333.825ZM64.79,333.109C65.062,333.109 65.283,333.934 65.283,334.95C65.283,335.966 65.062,336.791 64.79,336.791C64.518,336.791 64.297,335.966 64.297,334.95C64.297,333.934 64.518,333.109 64.79,333.109Z" style="fill:#ffe2e5;"/>
                    </g>
                </g>
                <g transform="matrix(1,0,0,1,-42.2198,0.130051)">
                    <g transform="matrix(1,0,0,1,42.2198,-0.130051)">
                        <circle cx="48.989" cy="330.801" r="1.121" style="fill:#ffbb13;"/>
                    </g>
                    <g transform="matrix(1,0,0,1,42.2198,-0.130051)">
                        <path d="M48.989,332.461C49.262,332.461 49.483,333.286 49.483,334.302C49.483,335.318 49.262,336.143 48.989,336.143C48.717,336.143 48.496,335.318 48.496,334.302C48.496,333.286 48.717,332.461 48.989,332.461ZM46.318,335.428C46.082,335.292 46.303,334.467 46.811,333.587C47.319,332.707 47.923,332.103 48.159,332.239C48.395,332.375 48.174,333.2 47.666,334.08C47.158,334.96 46.554,335.564 46.318,335.428ZM49.82,332.239C50.055,332.103 50.659,332.707 51.167,333.587C51.675,334.467 51.896,335.292 51.661,335.428C51.425,335.564 50.821,334.96 50.313,334.08C49.805,333.2 49.584,332.375 49.82,332.239ZM44.362,333.472C44.226,333.236 44.83,332.632 45.71,332.124C46.59,331.616 47.415,331.395 47.551,331.631C47.687,331.867 47.083,332.471 46.203,332.979C45.323,333.487 44.498,333.708 44.362,333.472ZM50.428,331.631C50.564,331.395 51.389,331.616 52.269,332.124C53.149,332.632 53.752,333.236 53.616,333.472C53.48,333.708 52.655,333.487 51.775,332.979C50.895,332.471 50.291,331.867 50.428,331.631ZM43.647,330.801C43.647,330.528 44.472,330.307 45.488,330.307C46.504,330.307 47.329,330.528 47.329,330.801C47.329,331.073 46.504,331.294 45.488,331.294C44.472,331.294 43.647,331.073 43.647,330.801ZM50.65,330.801C50.65,330.528 51.475,330.307 52.491,330.307C53.507,330.307 54.332,330.528 54.332,330.801C54.332,331.073 53.507,331.294 52.491,331.294C51.475,331.294 50.65,331.073 50.65,330.801ZM50.428,329.97C50.291,329.735 50.895,329.131 51.775,328.623C52.655,328.115 53.48,327.893 53.616,328.129C53.752,328.365 53.149,328.969 52.269,329.477C51.389,329.985 50.564,330.206 50.428,329.97ZM44.362,328.129C44.498,327.893 45.323,328.115 46.203,328.623C47.083,329.131 47.687,329.735 47.551,329.97C47.415,330.206 46.59,329.985 45.71,329.477C44.83,328.969 44.226,328.365 44.362,328.129ZM49.82,329.362C49.584,329.226 49.805,328.401 50.313,327.521C50.821,326.641 51.425,326.038 51.661,326.174C51.896,326.31 51.675,327.135 51.167,328.015C50.659,328.895 50.055,329.499 49.82,329.362ZM46.318,326.174C46.554,326.038 47.158,326.641 47.666,327.521C48.174,328.401 48.395,329.226 48.159,329.362C47.923,329.499 47.319,328.895 46.811,328.015C46.303,327.135 46.082,326.31 46.318,326.174ZM48.989,325.458C49.262,325.458 49.483,326.283 49.483,327.299C49.483,328.315 49.262,329.14 48.989,329.14C48.717,329.14 48.496,328.315 48.496,327.299C48.496,326.283 48.717,325.458 48.989,325.458Z" style="fill:#ffe2e5;"/>
                    </g>
                </g>
                <g transform="matrix(1,0,0,1,-59.4952,-7.52084)">
                    <g transform="matrix(1,0,0,1,59.4952,7.52084)">
                        <path d="M32.835,323.15C32.835,323.768 32.333,324.27 31.714,324.27C31.096,324.27 30.593,323.768 30.593,323.15L32.835,323.15Z" style="fill:#ffbb13;"/>
                    </g>
                    <g transform="matrix(1,0,0,1,59.4952,7.52084)">
                        <path d="M31.714,324.81C31.986,324.81 32.207,325.635 32.207,326.651C32.207,327.668 31.986,328.493 31.714,328.493C31.442,328.493 31.221,327.668 31.221,326.651C31.221,325.635 31.442,324.81 31.714,324.81ZM29.043,327.777C28.807,327.641 29.028,326.816 29.536,325.936C30.044,325.056 30.648,324.452 30.884,324.588C31.119,324.724 30.898,325.549 30.39,326.429C29.882,327.309 29.278,327.913 29.043,327.777ZM32.544,324.588C32.78,324.452 33.384,325.056 33.892,325.936C34.4,326.816 34.621,327.641 34.385,327.777C34.15,327.913 33.546,327.309 33.038,326.429C32.53,325.549 32.309,324.724 32.544,324.588ZM27.087,325.821C26.951,325.585 27.555,324.982 28.435,324.473C29.315,323.965 30.14,323.744 30.276,323.98C30.412,324.216 29.808,324.82 28.928,325.328C28.048,325.836 27.223,326.057 27.087,325.821ZM33.152,323.98C33.288,323.744 34.113,323.965 34.993,324.473C35.873,324.982 36.477,325.585 36.341,325.821C36.205,326.057 35.38,325.836 34.5,325.328C33.62,324.82 33.016,324.216 33.152,323.98ZM30.053,323.15C30.053,323.422 29.228,323.643 28.212,323.643C27.196,323.643 26.371,323.422 26.371,323.15L30.053,323.15ZM37.057,323.15C37.057,323.422 36.232,323.643 35.216,323.643C34.2,323.643 33.375,323.422 33.375,323.15L37.057,323.15Z" style="fill:#ffe2e5;"/>
                    </g>
                </g>
                <g transform="matrix(1,0,0,1,-59.4952,7.78094)">
                    <g transform="matrix(1,0,0,1,59.4952,-7.78094)">
                        <circle cx="31.714" cy="338.452" r="1.121" style="fill:#ffbb13;"/>
                    </g>
                    <g transform="matrix(1,0,0,1,59.4952,-7.78094)">
                        <path d="M29.024,342.389C29.117,342.063 29.294,341.657 29.536,341.237C30.044,340.358 30.648,339.754 30.884,339.89C31.119,340.026 30.898,340.851 30.39,341.731C30.249,341.975 30.101,342.197 29.956,342.389L29.024,342.389ZM31.235,342.389C31.226,342.249 31.221,342.103 31.221,341.953C31.221,340.937 31.442,340.112 31.714,340.112C31.986,340.112 32.207,340.937 32.207,341.953C32.207,342.103 32.202,342.249 32.193,342.389L31.235,342.389ZM33.472,342.389C33.327,342.197 33.179,341.975 33.038,341.731C32.53,340.851 32.309,340.026 32.544,339.89C32.78,339.754 33.384,340.358 33.892,341.237C34.134,341.657 34.311,342.063 34.404,342.389L33.472,342.389ZM27.087,341.123C26.951,340.887 27.555,340.283 28.435,339.775C29.315,339.267 30.14,339.046 30.276,339.282C30.412,339.518 29.808,340.121 28.928,340.629C28.048,341.138 27.223,341.359 27.087,341.123ZM33.152,339.282C33.288,339.046 34.113,339.267 34.993,339.775C35.873,340.283 36.477,340.887 36.341,341.123C36.205,341.359 35.38,341.138 34.5,340.629C33.62,340.121 33.016,339.518 33.152,339.282ZM26.371,338.452C26.371,338.179 27.196,337.958 28.212,337.958C29.228,337.958 30.053,338.179 30.053,338.452C30.053,338.724 29.228,338.945 28.212,338.945C27.196,338.945 26.371,338.724 26.371,338.452ZM33.375,338.452C33.375,338.179 34.2,337.958 35.216,337.958C36.232,337.958 37.057,338.179 37.057,338.452C37.057,338.724 36.232,338.945 35.216,338.945C34.2,338.945 33.375,338.724 33.375,338.452ZM33.152,337.621C33.016,337.385 33.62,336.782 34.5,336.274C35.38,335.765 36.205,335.544 36.341,335.78C36.477,336.016 35.873,336.62 34.993,337.128C34.113,337.636 33.288,337.857 33.152,337.621ZM27.087,335.78C27.223,335.544 28.048,335.765 28.928,336.274C29.808,336.782 30.412,337.385 30.276,337.621C30.14,337.857 29.315,337.636 28.435,337.128C27.555,336.62 26.951,336.016 27.087,335.78ZM32.544,337.013C32.309,336.877 32.53,336.052 33.038,335.172C33.546,334.292 34.15,333.688 34.385,333.825C34.621,333.961 34.4,334.786 33.892,335.666C33.384,336.546 32.78,337.149 32.544,337.013ZM29.043,333.825C29.278,333.688 29.882,334.292 30.39,335.172C30.898,336.052 31.119,336.877 30.884,337.013C30.648,337.149 30.044,336.546 29.536,335.666C29.028,334.786 28.807,333.961 29.043,333.825ZM31.714,333.109C31.986,333.109 32.207,333.934 32.207,334.95C32.207,335.966 31.986,336.791 31.714,336.791C31.442,336.791 31.221,335.966 31.221,334.95C31.221,333.934 31.442,333.109 31.714,333.109Z" style="fill:#ffe2e5;"/>
                    </g>
                </g>
                <g transform="matrix(1,0,0,1,-74.225,0.130051)">
                    <g transform="matrix(1,0,0,1,74.225,-0.130051)">
                        <circle cx="16.984" cy="330.801" r="1.121" style="fill:#ffbb13;"/>
                    </g>
                    <g transform="matrix(1,0,0,1,74.225,-0.130051)">
                        <path d="M16.984,332.461C17.256,332.461 17.477,333.286 17.477,334.302C17.477,335.318 17.256,336.143 16.984,336.143C16.712,336.143 16.491,335.318 16.491,334.302C16.491,333.286 16.712,332.461 16.984,332.461ZM14.313,335.428C14.077,335.292 14.298,334.467 14.806,333.587C15.314,332.707 15.918,332.103 16.154,332.239C16.39,332.375 16.168,333.2 15.66,334.08C15.152,334.96 14.549,335.564 14.313,335.428ZM17.815,332.239C18.05,332.103 18.654,332.707 19.162,333.587C19.67,334.467 19.891,335.292 19.656,335.428C19.42,335.564 18.816,334.96 18.308,334.08C17.8,333.2 17.579,332.375 17.815,332.239ZM12.357,333.472C12.221,333.236 12.825,332.632 13.705,332.124C14.585,331.616 15.41,331.395 15.546,331.631C15.682,331.867 15.078,332.471 14.198,332.979C13.318,333.487 12.493,333.708 12.357,333.472ZM18.422,331.631C18.558,331.395 19.383,331.616 20.263,332.124C21.143,332.632 21.747,333.236 21.611,333.472C21.475,333.708 20.65,333.487 19.77,332.979C18.89,332.471 18.286,331.867 18.422,331.631ZM11.641,330.801C11.641,330.528 12.466,330.307 13.482,330.307C14.499,330.307 15.324,330.528 15.324,330.801C15.324,331.073 14.499,331.294 13.482,331.294C12.466,331.294 11.641,331.073 11.641,330.801ZM18.645,330.801C18.645,330.528 19.47,330.307 20.486,330.307C21.502,330.307 22.327,330.528 22.327,330.801C22.327,331.073 21.502,331.294 20.486,331.294C19.47,331.294 18.645,331.073 18.645,330.801ZM18.422,329.97C18.286,329.735 18.89,329.131 19.77,328.623C20.65,328.115 21.475,327.893 21.611,328.129C21.747,328.365 21.143,328.969 20.263,329.477C19.383,329.985 18.558,330.206 18.422,329.97ZM12.357,328.129C12.493,327.893 13.318,328.115 14.198,328.623C15.078,329.131 15.682,329.735 15.546,329.97C15.41,330.206 14.585,329.985 13.705,329.477C12.825,328.969 12.221,328.365 12.357,328.129ZM17.815,329.362C17.579,329.226 17.8,328.401 18.308,327.521C18.816,326.641 19.42,326.038 19.656,326.174C19.891,326.31 19.67,327.135 19.162,328.015C18.654,328.895 18.05,329.499 17.815,329.362ZM14.313,326.174C14.549,326.038 15.152,326.641 15.66,327.521C16.168,328.401 16.39,329.226 16.154,329.362C15.918,329.499 15.314,328.895 14.806,328.015C14.298,327.135 14.077,326.31 14.313,326.174ZM16.984,325.458C17.256,325.458 17.477,326.283 17.477,327.299C17.477,328.315 17.256,329.14 16.984,329.14C16.712,329.14 16.491,328.315 16.491,327.299C16.491,326.283 16.712,325.458 16.984,325.458Z" style="fill:#ffe2e5;"/>
                    </g>
                </g>
                <g>
                    <path d="M1.192,324.965C1.415,325.206 1.66,325.544 1.887,325.936C2.395,326.816 2.616,327.641 2.38,327.777C2.183,327.891 1.728,327.486 1.287,326.836C1.038,326.217 1.024,325.555 1.192,324.965ZM1.738,323.935C2.078,324.018 2.525,324.206 2.988,324.473C3.868,324.982 4.472,325.585 4.336,325.821C4.2,326.057 3.375,325.836 2.495,325.328C2.014,325.05 1.616,324.744 1.376,324.485C1.474,324.285 1.596,324.1 1.738,323.935ZM5.052,323.15C5.052,323.422 4.227,323.643 3.211,323.643C2.817,323.643 2.451,323.61 2.152,323.553C2.504,323.3 2.928,323.15 3.404,323.15L5.052,323.15Z" style="fill:#ffe2e5;"/>
                </g>
                <g transform="matrix(1,0,0,1,93.6037,0.130051)">
                    <g transform="matrix(1,0,0,1,-93.6037,-0.130051)">
                        <circle cx="184.813" cy="330.801" r="1.121" style="fill:#ffbb13;"/>
                    </g>
                    <g transform="matrix(1,0,0,1,-93.6037,-0.130051)">
                        <path d="M184.813,332.461C185.085,332.461 185.306,333.286 185.306,334.302C185.306,335.318 185.085,336.143 184.813,336.143C184.541,336.143 184.32,335.318 184.32,334.302C184.32,333.286 184.541,332.461 184.813,332.461ZM182.142,335.428C181.906,335.292 182.127,334.467 182.635,333.587C183.143,332.707 183.747,332.103 183.983,332.239C184.218,332.375 183.997,333.2 183.489,334.08C182.981,334.96 182.377,335.564 182.142,335.428ZM185.643,332.239C185.879,332.103 186.483,332.707 186.991,333.587C187.499,334.467 187.72,335.292 187.484,335.428C187.249,335.564 186.645,334.96 186.137,334.08C185.629,333.2 185.408,332.375 185.643,332.239ZM180.186,333.472C180.05,333.236 180.654,332.632 181.534,332.124C182.414,331.616 183.239,331.395 183.375,331.631C183.511,331.867 182.907,332.471 182.027,332.979C181.147,333.487 180.322,333.708 180.186,333.472ZM186.251,331.631C186.387,331.395 187.212,331.616 188.092,332.124C188.972,332.632 189.576,333.236 189.44,333.472C189.304,333.708 188.479,333.487 187.599,332.979C186.719,332.471 186.115,331.867 186.251,331.631ZM179.47,330.801C179.47,330.528 180.295,330.307 181.311,330.307C182.327,330.307 183.152,330.528 183.152,330.801C183.152,331.073 182.327,331.294 181.311,331.294C180.295,331.294 179.47,331.073 179.47,330.801ZM186.474,330.801C186.474,330.528 187.299,330.307 188.315,330.307C189.331,330.307 190.156,330.528 190.156,330.801C190.156,331.073 189.331,331.294 188.315,331.294C187.299,331.294 186.474,331.073 186.474,330.801ZM186.251,329.97C186.115,329.735 186.719,329.131 187.599,328.623C188.479,328.115 189.304,327.893 189.44,328.129C189.576,328.365 188.972,328.969 188.092,329.477C187.212,329.985 186.387,330.206 186.251,329.97ZM180.186,328.129C180.322,327.893 181.147,328.115 182.027,328.623C182.907,329.131 183.511,329.735 183.375,329.97C183.239,330.206 182.414,329.985 181.534,329.477C180.654,328.969 180.05,328.365 180.186,328.129ZM185.643,329.362C185.408,329.226 185.629,328.401 186.137,327.521C186.645,326.641 187.249,326.038 187.484,326.174C187.72,326.31 187.499,327.135 186.991,328.015C186.483,328.895 185.879,329.499 185.643,329.362ZM182.142,326.174C182.377,326.038 182.981,326.641 183.489,327.521C183.997,328.401 184.218,329.226 183.983,329.362C183.747,329.499 183.143,328.895 182.635,328.015C182.127,327.135 181.906,326.31 182.142,326.174ZM184.813,325.458C185.085,325.458 185.306,326.283 185.306,327.299C185.306,328.315 185.085,329.14 184.813,329.14C184.541,329.14 184.32,328.315 184.32,327.299C184.32,326.283 184.541,325.458 184.813,325.458Z" style="fill:#ffe2e5;"/>
                    </g>
                </g>
                <g transform="matrix(1,0,0,1,76.3284,-7.52084)">
                    <g transform="matrix(1,0,0,1,-76.3284,7.52084)">
                        <path d="M168.658,323.15C168.658,323.768 168.156,324.27 167.538,324.27C166.919,324.27 166.417,323.768 166.417,323.15L168.658,323.15Z" style="fill:#ffbb13;"/>
                    </g>
                    <g transform="matrix(1,0,0,1,-76.3284,7.52084)">
                        <path d="M167.538,324.81C167.81,324.81 168.031,325.635 168.031,326.651C168.031,327.668 167.81,328.493 167.538,328.493C167.265,328.493 167.044,327.668 167.044,326.651C167.044,325.635 167.265,324.81 167.538,324.81ZM164.866,327.777C164.63,327.641 164.852,326.816 165.36,325.936C165.868,325.056 166.472,324.452 166.707,324.588C166.943,324.724 166.722,325.549 166.214,326.429C165.706,327.309 165.102,327.913 164.866,327.777ZM168.368,324.588C168.604,324.452 169.208,325.056 169.716,325.936C170.224,326.816 170.445,327.641 170.209,327.777C169.973,327.913 169.369,327.309 168.861,326.429C168.353,325.549 168.132,324.724 168.368,324.588ZM162.911,325.821C162.775,325.585 163.378,324.982 164.258,324.473C165.138,323.965 165.963,323.744 166.099,323.98C166.236,324.216 165.632,324.82 164.752,325.328C163.872,325.836 163.047,326.057 162.911,325.821ZM168.976,323.98C169.112,323.744 169.937,323.965 170.817,324.473C171.697,324.982 172.301,325.585 172.165,325.821C172.028,326.057 171.204,325.836 170.324,325.328C169.444,324.82 168.84,324.216 168.976,323.98ZM165.877,323.15C165.877,323.422 165.052,323.643 164.036,323.643C163.02,323.643 162.195,323.422 162.195,323.15L165.877,323.15ZM172.88,323.15C172.88,323.422 172.055,323.643 171.039,323.643C170.023,323.643 169.198,323.422 169.198,323.15L172.88,323.15Z" style="fill:#ffe2e5;"/>
                    </g>
                </g>
                <g transform="matrix(1,0,0,1,76.3284,7.78094)">
                    <g transform="matrix(1,0,0,1,-76.3284,-7.78094)">
                        <circle cx="167.538" cy="338.452" r="1.121" style="fill:#ffbb13;"/>
                    </g>
                    <g transform="matrix(1,0,0,1,-76.3284,-7.78094)">
                        <path d="M164.847,342.389C164.941,342.063 165.118,341.657 165.36,341.237C165.868,340.358 166.472,339.754 166.707,339.89C166.943,340.026 166.722,340.851 166.214,341.731C166.073,341.975 165.925,342.197 165.779,342.389L164.847,342.389ZM167.058,342.389C167.049,342.249 167.044,342.103 167.044,341.953C167.044,340.937 167.265,340.112 167.538,340.112C167.81,340.112 168.031,340.937 168.031,341.953C168.031,342.103 168.026,342.249 168.017,342.389L167.058,342.389ZM169.296,342.389C169.15,342.197 169.002,341.975 168.861,341.731C168.353,340.851 168.132,340.026 168.368,339.89C168.604,339.754 169.208,340.358 169.716,341.237C169.958,341.657 170.134,342.063 170.228,342.389L169.296,342.389ZM162.911,341.123C162.775,340.887 163.378,340.283 164.258,339.775C165.138,339.267 165.963,339.046 166.099,339.282C166.236,339.518 165.632,340.121 164.752,340.629C163.872,341.138 163.047,341.359 162.911,341.123ZM168.976,339.282C169.112,339.046 169.937,339.267 170.817,339.775C171.697,340.283 172.301,340.887 172.165,341.123C172.028,341.359 171.204,341.138 170.324,340.629C169.444,340.121 168.84,339.518 168.976,339.282ZM162.195,338.452C162.195,338.179 163.02,337.958 164.036,337.958C165.052,337.958 165.877,338.179 165.877,338.452C165.877,338.724 165.052,338.945 164.036,338.945C163.02,338.945 162.195,338.724 162.195,338.452ZM169.198,338.452C169.198,338.179 170.023,337.958 171.039,337.958C172.055,337.958 172.88,338.179 172.88,338.452C172.88,338.724 172.055,338.945 171.039,338.945C170.023,338.945 169.198,338.724 169.198,338.452ZM168.976,337.621C168.84,337.385 169.444,336.782 170.324,336.274C171.204,335.765 172.028,335.544 172.165,335.78C172.301,336.016 171.697,336.62 170.817,337.128C169.937,337.636 169.112,337.857 168.976,337.621ZM162.911,335.78C163.047,335.544 163.872,335.765 164.752,336.274C165.632,336.782 166.236,337.385 166.099,337.621C165.963,337.857 165.138,337.636 164.258,337.128C163.378,336.62 162.775,336.016 162.911,335.78ZM168.368,337.013C168.132,336.877 168.353,336.052 168.861,335.172C169.369,334.292 169.973,333.688 170.209,333.825C170.445,333.961 170.224,334.786 169.716,335.666C169.208,336.546 168.604,337.149 168.368,337.013ZM164.866,333.825C165.102,333.688 165.706,334.292 166.214,335.172C166.722,336.052 166.943,336.877 166.707,337.013C166.472,337.149 165.868,336.546 165.36,335.666C164.852,334.786 164.63,333.961 164.866,333.825ZM167.538,333.109C167.81,333.109 168.031,333.934 168.031,334.95C168.031,335.966 167.81,336.791 167.538,336.791C167.265,336.791 167.044,335.966 167.044,334.95C167.044,333.934 167.265,333.109 167.538,333.109Z" style="fill:#ffe2e5;"/>
                    </g>
                </g>
                <g transform="matrix(1,0,0,1,129.22,0.130051)">
                    <g transform="matrix(1,0,0,1,-129.22,-0.130051)">
                        <circle cx="220.43" cy="330.801" r="1.121" style="fill:#ffbb13;"/>
                    </g>
                    <g transform="matrix(1,0,0,1,-129.22,-0.130051)">
                        <path d="M220.43,332.461C220.702,332.461 220.923,333.286 220.923,334.302C220.923,335.318 220.702,336.143 220.43,336.143C220.157,336.143 219.936,335.318 219.936,334.302C219.936,333.286 220.157,332.461 220.43,332.461ZM217.758,335.428C217.522,335.292 217.744,334.467 218.252,333.587C218.76,332.707 219.364,332.103 219.599,332.239C219.835,332.375 219.614,333.2 219.106,334.08C218.598,334.96 217.994,335.564 217.758,335.428ZM221.26,332.239C221.496,332.103 222.1,332.707 222.608,333.587C223.116,334.467 223.337,335.292 223.101,335.428C222.865,335.564 222.261,334.96 221.753,334.08C221.245,333.2 221.024,332.375 221.26,332.239ZM215.803,333.472C215.667,333.236 216.27,332.632 217.15,332.124C218.03,331.616 218.855,331.395 218.991,331.631C219.128,331.867 218.524,332.471 217.644,332.979C216.764,333.487 215.939,333.708 215.803,333.472ZM221.868,331.631C222.004,331.395 222.829,331.616 223.709,332.124C224.589,332.632 225.193,333.236 225.057,333.472C224.92,333.708 224.096,333.487 223.216,332.979C222.336,332.471 221.732,331.867 221.868,331.631ZM215.087,330.801C215.087,330.528 215.912,330.307 216.928,330.307C217.944,330.307 218.769,330.528 218.769,330.801C218.769,331.073 217.944,331.294 216.928,331.294C215.912,331.294 215.087,331.073 215.087,330.801ZM222.09,330.801C222.09,330.528 222.915,330.307 223.931,330.307C224.947,330.307 225.772,330.528 225.772,330.801C225.772,331.073 224.947,331.294 223.931,331.294C222.915,331.294 222.09,331.073 222.09,330.801ZM221.868,329.97C221.732,329.735 222.336,329.131 223.216,328.623C224.096,328.115 224.92,327.893 225.057,328.129C225.193,328.365 224.589,328.969 223.709,329.477C222.829,329.985 222.004,330.206 221.868,329.97ZM215.803,328.129C215.939,327.893 216.764,328.115 217.644,328.623C218.524,329.131 219.128,329.735 218.991,329.97C218.855,330.206 218.03,329.985 217.15,329.477C216.27,328.969 215.667,328.365 215.803,328.129ZM221.26,329.362C221.024,329.226 221.245,328.401 221.753,327.521C222.261,326.641 222.865,326.038 223.101,326.174C223.337,326.31 223.116,327.135 222.608,328.015C222.1,328.895 221.496,329.499 221.26,329.362ZM217.758,326.174C217.994,326.038 218.598,326.641 219.106,327.521C219.614,328.401 219.835,329.226 219.599,329.362C219.364,329.499 218.76,328.895 218.252,328.015C217.744,327.135 217.522,326.31 217.758,326.174ZM220.43,325.458C220.702,325.458 220.923,326.283 220.923,327.299C220.923,328.315 220.702,329.14 220.43,329.14C220.157,329.14 219.936,328.315 219.936,327.299C219.936,326.283 220.157,325.458 220.43,325.458Z" style="fill:#ffe2e5;"/>
                    </g>
                </g>
                <g transform="matrix(1,0,0,1,111.945,-7.52084)">
                    <g transform="matrix(1,0,0,1,-111.945,7.52084)">
                        <path d="M204.275,323.15C204.275,323.768 203.773,324.27 203.154,324.27C202.536,324.27 202.034,323.768 202.034,323.15L204.275,323.15Z" style="fill:#ffbb13;"/>
                    </g>
                    <g transform="matrix(1,0,0,1,-111.945,7.52084)">
                        <path d="M203.154,324.81C203.426,324.81 203.647,325.635 203.647,326.651C203.647,327.668 203.426,328.493 203.154,328.493C202.882,328.493 202.661,327.668 202.661,326.651C202.661,325.635 202.882,324.81 203.154,324.81ZM200.483,327.777C200.247,327.641 200.468,326.816 200.976,325.936C201.484,325.056 202.088,324.452 202.324,324.588C202.56,324.724 202.339,325.549 201.831,326.429C201.322,327.309 200.719,327.913 200.483,327.777ZM203.985,324.588C204.22,324.452 204.824,325.056 205.332,325.936C205.84,326.816 206.061,327.641 205.826,327.777C205.59,327.913 204.986,327.309 204.478,326.429C203.97,325.549 203.749,324.724 203.985,324.588ZM198.527,325.821C198.391,325.585 198.995,324.982 199.875,324.473C200.755,323.965 201.58,323.744 201.716,323.98C201.852,324.216 201.248,324.82 200.368,325.328C199.488,325.836 198.663,326.057 198.527,325.821ZM204.592,323.98C204.729,323.744 205.553,323.965 206.433,324.473C207.313,324.982 207.917,325.585 207.781,325.821C207.645,326.057 206.82,325.836 205.94,325.328C205.06,324.82 204.456,324.216 204.592,323.98ZM201.494,323.15C201.494,323.422 200.669,323.643 199.653,323.643C198.636,323.643 197.812,323.422 197.812,323.15L201.494,323.15ZM208.497,323.15C208.497,323.422 207.672,323.643 206.656,323.643C205.64,323.643 204.815,323.422 204.815,323.15L208.497,323.15Z" style="fill:#ffe2e5;"/>
                    </g>
                </g>
                <g transform="matrix(1,0,0,1,111.945,7.78094)">
                    <g transform="matrix(1,0,0,1,-111.945,-7.78094)">
                        <circle cx="203.154" cy="338.452" r="1.121" style="fill:#ffbb13;"/>
                    </g>
                    <g transform="matrix(1,0,0,1,-111.945,-7.78094)">
                        <path d="M200.464,342.389C200.557,342.063 200.734,341.657 200.976,341.237C201.484,340.358 202.088,339.754 202.324,339.89C202.56,340.026 202.339,340.851 201.831,341.731C201.69,341.975 201.542,342.197 201.396,342.389L200.464,342.389ZM202.675,342.389C202.666,342.249 202.661,342.103 202.661,341.953C202.661,340.937 202.882,340.112 203.154,340.112C203.426,340.112 203.647,340.937 203.647,341.953C203.647,342.103 203.643,342.249 203.634,342.389L202.675,342.389ZM204.913,342.389C204.767,342.197 204.619,341.975 204.478,341.731C203.97,340.851 203.749,340.026 203.985,339.89C204.22,339.754 204.824,340.358 205.332,341.237C205.574,341.657 205.751,342.063 205.844,342.389L204.913,342.389ZM198.527,341.123C198.391,340.887 198.995,340.283 199.875,339.775C200.755,339.267 201.58,339.046 201.716,339.282C201.852,339.518 201.248,340.121 200.368,340.629C199.488,341.138 198.663,341.359 198.527,341.123ZM204.592,339.282C204.729,339.046 205.553,339.267 206.433,339.775C207.313,340.283 207.917,340.887 207.781,341.123C207.645,341.359 206.82,341.138 205.94,340.629C205.06,340.121 204.456,339.518 204.592,339.282ZM197.812,338.452C197.812,338.179 198.636,337.958 199.653,337.958C200.669,337.958 201.494,338.179 201.494,338.452C201.494,338.724 200.669,338.945 199.653,338.945C198.636,338.945 197.812,338.724 197.812,338.452ZM204.815,338.452C204.815,338.179 205.64,337.958 206.656,337.958C207.672,337.958 208.497,338.179 208.497,338.452C208.497,338.724 207.672,338.945 206.656,338.945C205.64,338.945 204.815,338.724 204.815,338.452ZM204.592,337.621C204.456,337.385 205.06,336.782 205.94,336.274C206.82,335.765 207.645,335.544 207.781,335.78C207.917,336.016 207.313,336.62 206.433,337.128C205.553,337.636 204.729,337.857 204.592,337.621ZM198.527,335.78C198.663,335.544 199.488,335.765 200.368,336.274C201.248,336.782 201.852,337.385 201.716,337.621C201.58,337.857 200.755,337.636 199.875,337.128C198.995,336.62 198.391,336.016 198.527,335.78ZM203.985,337.013C203.749,336.877 203.97,336.052 204.478,335.172C204.986,334.292 205.59,333.688 205.826,333.825C206.061,333.961 205.84,334.786 205.332,335.666C204.824,336.546 204.22,337.149 203.985,337.013ZM200.483,333.825C200.719,333.688 201.322,334.292 201.831,335.172C202.339,336.052 202.56,336.877 202.324,337.013C202.088,337.149 201.484,336.546 200.976,335.666C200.468,334.786 200.247,333.961 200.483,333.825ZM203.154,333.109C203.426,333.109 203.647,333.934 203.647,334.95C203.647,335.966 203.426,336.791 203.154,336.791C202.882,336.791 202.661,335.966 202.661,334.95C202.661,333.934 202.882,333.109 203.154,333.109Z" style="fill:#ffe2e5;"/>
                    </g>
                </g>
                <g transform="matrix(1,0,0,1,164.837,0.130051)">
                    <g transform="matrix(1,0,0,1,-164.837,-0.130051)">
                        <circle cx="256.046" cy="330.801" r="1.121" style="fill:#ffbb13;"/>
                    </g>
                    <g transform="matrix(1,0,0,1,-164.837,-0.130051)">
                        <path d="M256.046,332.461C256.318,332.461 256.539,333.286 256.539,334.302C256.539,335.318 256.318,336.143 256.046,336.143C255.774,336.143 255.553,335.318 255.553,334.302C255.553,333.286 255.774,332.461 256.046,332.461ZM253.375,335.428C253.139,335.292 253.36,334.467 253.868,333.587C254.376,332.707 254.98,332.103 255.216,332.239C255.452,332.375 255.231,333.2 254.723,334.08C254.214,334.96 253.611,335.564 253.375,335.428ZM256.877,332.239C257.112,332.103 257.716,332.707 258.224,333.587C258.732,334.467 258.953,335.292 258.718,335.428C258.482,335.564 257.878,334.96 257.37,334.08C256.862,333.2 256.641,332.375 256.877,332.239ZM251.419,333.472C251.283,333.236 251.887,332.632 252.767,332.124C253.647,331.616 254.472,331.395 254.608,331.631C254.744,331.867 254.14,332.471 253.26,332.979C252.38,333.487 251.555,333.708 251.419,333.472ZM257.484,331.631C257.621,331.395 258.445,331.616 259.325,332.124C260.205,332.632 260.809,333.236 260.673,333.472C260.537,333.708 259.712,333.487 258.832,332.979C257.952,332.471 257.348,331.867 257.484,331.631ZM250.704,330.801C250.704,330.528 251.528,330.307 252.545,330.307C253.561,330.307 254.386,330.528 254.386,330.801C254.386,331.073 253.561,331.294 252.545,331.294C251.528,331.294 250.704,331.073 250.704,330.801ZM257.707,330.801C257.707,330.528 258.532,330.307 259.548,330.307C260.564,330.307 261.389,330.528 261.389,330.801C261.389,331.073 260.564,331.294 259.548,331.294C258.532,331.294 257.707,331.073 257.707,330.801ZM257.484,329.97C257.348,329.735 257.952,329.131 258.832,328.623C259.712,328.115 260.537,327.893 260.673,328.129C260.809,328.365 260.205,328.969 259.325,329.477C258.445,329.985 257.621,330.206 257.484,329.97ZM251.419,328.129C251.555,327.893 252.38,328.115 253.26,328.623C254.14,329.131 254.744,329.735 254.608,329.97C254.472,330.206 253.647,329.985 252.767,329.477C251.887,328.969 251.283,328.365 251.419,328.129ZM256.877,329.362C256.641,329.226 256.862,328.401 257.37,327.521C257.878,326.641 258.482,326.038 258.718,326.174C258.953,326.31 258.732,327.135 258.224,328.015C257.716,328.895 257.112,329.499 256.877,329.362ZM253.375,326.174C253.611,326.038 254.214,326.641 254.723,327.521C255.231,328.401 255.452,329.226 255.216,329.362C254.98,329.499 254.376,328.895 253.868,328.015C253.36,327.135 253.139,326.31 253.375,326.174ZM256.046,325.458C256.318,325.458 256.539,326.283 256.539,327.299C256.539,328.315 256.318,329.14 256.046,329.14C255.774,329.14 255.553,328.315 255.553,327.299C255.553,326.283 255.774,325.458 256.046,325.458Z" style="fill:#ffe2e5;"/>
                    </g>
                </g>
                <g transform="matrix(1,0,0,1,147.562,-7.52084)">
                    <g transform="matrix(1,0,0,1,-147.562,7.52084)">
                        <path d="M239.892,323.15C239.892,323.768 239.389,324.27 238.771,324.27C238.152,324.27 237.65,323.768 237.65,323.15L239.892,323.15Z" style="fill:#ffbb13;"/>
                    </g>
                    <g transform="matrix(1,0,0,1,-147.562,7.52084)">
                        <path d="M238.771,324.81C239.043,324.81 239.264,325.635 239.264,326.651C239.264,327.668 239.043,328.493 238.771,328.493C238.499,328.493 238.278,327.668 238.278,326.651C238.278,325.635 238.499,324.81 238.771,324.81ZM236.1,327.777C235.864,327.641 236.085,326.816 236.593,325.936C237.101,325.056 237.705,324.452 237.941,324.588C238.176,324.724 237.955,325.549 237.447,326.429C236.939,327.309 236.335,327.913 236.1,327.777ZM239.601,324.588C239.837,324.452 240.441,325.056 240.949,325.936C241.457,326.816 241.678,327.641 241.442,327.777C241.207,327.913 240.603,327.309 240.095,326.429C239.587,325.549 239.366,324.724 239.601,324.588ZM234.144,325.821C234.008,325.585 234.612,324.982 235.492,324.473C236.372,323.965 237.197,323.744 237.333,323.98C237.469,324.216 236.865,324.82 235.985,325.328C235.105,325.836 234.28,326.057 234.144,325.821ZM240.209,323.98C240.345,323.744 241.17,323.965 242.05,324.473C242.93,324.982 243.534,325.585 243.398,325.821C243.262,326.057 242.437,325.836 241.557,325.328C240.677,324.82 240.073,324.216 240.209,323.98ZM237.11,323.15C237.11,323.422 236.285,323.643 235.269,323.643C234.253,323.643 233.428,323.422 233.428,323.15L237.11,323.15ZM244.114,323.15C244.114,323.422 243.289,323.643 242.273,323.643C241.257,323.643 240.432,323.422 240.432,323.15L244.114,323.15Z" style="fill:#ffe2e5;"/>
                    </g>
                </g>
                <g transform="matrix(1,0,0,1,147.562,7.78094)">
                    <g transform="matrix(1,0,0,1,-147.562,-7.78094)">
                        <circle cx="238.771" cy="338.452" r="1.121" style="fill:#ffbb13;"/>
                    </g>
                    <g transform="matrix(1,0,0,1,-147.562,-7.78094)">
                        <path d="M236.081,342.389C236.174,342.063 236.351,341.657 236.593,341.237C237.101,340.358 237.705,339.754 237.941,339.89C238.176,340.026 237.955,340.851 237.447,341.731C237.306,341.975 237.158,342.197 237.013,342.389L236.081,342.389ZM238.292,342.389C238.283,342.249 238.278,342.103 238.278,341.953C238.278,340.937 238.499,340.112 238.771,340.112C239.043,340.112 239.264,340.937 239.264,341.953C239.264,342.103 239.259,342.249 239.25,342.389L238.292,342.389ZM240.529,342.389C240.384,342.197 240.236,341.975 240.095,341.731C239.587,340.851 239.366,340.026 239.601,339.89C239.837,339.754 240.441,340.358 240.949,341.237C241.191,341.657 241.368,342.063 241.461,342.389L240.529,342.389ZM234.144,341.123C234.008,340.887 234.612,340.283 235.492,339.775C236.372,339.267 237.197,339.046 237.333,339.282C237.469,339.518 236.865,340.121 235.985,340.629C235.105,341.138 234.28,341.359 234.144,341.123ZM240.209,339.282C240.345,339.046 241.17,339.267 242.05,339.775C242.93,340.283 243.534,340.887 243.398,341.123C243.262,341.359 242.437,341.138 241.557,340.629C240.677,340.121 240.073,339.518 240.209,339.282ZM233.428,338.452C233.428,338.179 234.253,337.958 235.269,337.958C236.285,337.958 237.11,338.179 237.11,338.452C237.11,338.724 236.285,338.945 235.269,338.945C234.253,338.945 233.428,338.724 233.428,338.452ZM240.432,338.452C240.432,338.179 241.257,337.958 242.273,337.958C243.289,337.958 244.114,338.179 244.114,338.452C244.114,338.724 243.289,338.945 242.273,338.945C241.257,338.945 240.432,338.724 240.432,338.452ZM240.209,337.621C240.073,337.385 240.677,336.782 241.557,336.274C242.437,335.765 243.262,335.544 243.398,335.78C243.534,336.016 242.93,336.62 242.05,337.128C241.17,337.636 240.345,337.857 240.209,337.621ZM234.144,335.78C234.28,335.544 235.105,335.765 235.985,336.274C236.865,336.782 237.469,337.385 237.333,337.621C237.197,337.857 236.372,337.636 235.492,337.128C234.612,336.62 234.008,336.016 234.144,335.78ZM239.601,337.013C239.366,336.877 239.587,336.052 240.095,335.172C240.603,334.292 241.207,333.688 241.442,333.825C241.678,333.961 241.457,334.786 240.949,335.666C240.441,336.546 239.837,337.149 239.601,337.013ZM236.1,333.825C236.335,333.688 236.939,334.292 237.447,335.172C237.955,336.052 238.176,336.877 237.941,337.013C237.705,337.149 237.101,336.546 236.593,335.666C236.085,334.786 235.864,333.961 236.1,333.825ZM238.771,333.109C239.043,333.109 239.264,333.934 239.264,334.95C239.264,335.966 239.043,336.791 238.771,336.791C238.499,336.791 238.278,335.966 238.278,334.95C238.278,333.934 238.499,333.109 238.771,333.109Z" style="fill:#ffe2e5;"/>
                    </g>
                </g>
                <g transform="matrix(1,0,0,1,200.703,0.130051)">
                    <g transform="matrix(1,0,0,1,-200.703,-0.130051)">
                        <circle cx="291.912" cy="330.801" r="1.121" style="fill:#ffbb13;"/>
                    </g>
                    <g transform="matrix(1,0,0,1,-200.703,-0.130051)">
                        <path d="M291.912,332.461C292.184,332.461 292.405,333.286 292.405,334.302C292.405,335.318 292.184,336.143 291.912,336.143C291.64,336.143 291.419,335.318 291.419,334.302C291.419,333.286 291.64,332.461 291.912,332.461ZM289.241,335.428C289.005,335.292 289.226,334.467 289.734,333.587C290.242,332.707 290.846,332.103 291.082,332.239C291.317,332.375 291.096,333.2 290.588,334.08C290.08,334.96 289.476,335.564 289.241,335.428ZM293.662,334.727C293.519,334.538 293.374,334.319 293.236,334.08C292.728,333.2 292.507,332.375 292.742,332.239C292.978,332.103 293.582,332.707 294.09,333.587C294.147,333.685 294.2,333.782 294.249,333.878C294.054,334.161 293.859,334.444 293.662,334.727ZM287.285,333.472C287.149,333.236 287.753,332.632 288.633,332.124C289.513,331.616 290.338,331.395 290.474,331.631C290.61,331.867 290.006,332.471 289.126,332.979C288.246,333.487 287.421,333.708 287.285,333.472ZM294.815,333.045C294.776,333.023 294.737,333.001 294.698,332.979C293.818,332.471 293.214,331.867 293.35,331.631C293.486,331.395 294.311,331.616 295.191,332.124C295.249,332.158 295.307,332.192 295.362,332.226C295.181,332.5 294.998,332.773 294.815,333.045ZM286.569,330.801C286.569,330.528 287.394,330.307 288.41,330.307C289.426,330.307 290.251,330.528 290.251,330.801C290.251,331.073 289.426,331.294 288.41,331.294C287.394,331.294 286.569,331.073 286.569,330.801ZM295.991,331.269C295.809,331.285 295.615,331.294 295.414,331.294C294.398,331.294 293.573,331.073 293.573,330.801C293.573,330.528 294.398,330.307 295.414,330.307C295.84,330.307 296.232,330.346 296.544,330.411C296.361,330.699 296.176,330.984 295.991,331.269ZM293.35,329.97C293.214,329.735 293.818,329.131 294.698,328.623C295.578,328.115 296.403,327.893 296.539,328.129C296.675,328.365 296.071,328.969 295.191,329.477C294.311,329.985 293.486,330.206 293.35,329.97ZM287.285,328.129C287.421,327.893 288.246,328.115 289.126,328.623C290.006,329.131 290.61,329.735 290.474,329.97C290.338,330.206 289.513,329.985 288.633,329.477C287.753,328.969 287.149,328.365 287.285,328.129ZM292.742,329.362C292.507,329.226 292.728,328.401 293.236,327.521C293.744,326.641 294.348,326.038 294.583,326.174C294.819,326.31 294.598,327.135 294.09,328.015C293.582,328.895 292.978,329.499 292.742,329.362ZM289.241,326.174C289.476,326.038 290.08,326.641 290.588,327.521C291.096,328.401 291.317,329.226 291.082,329.362C290.846,329.499 290.242,328.895 289.734,328.015C289.226,327.135 289.005,326.31 289.241,326.174ZM291.912,325.458C292.184,325.458 292.405,326.283 292.405,327.299C292.405,328.315 292.184,329.14 291.912,329.14C291.64,329.14 291.419,328.315 291.419,327.299C291.419,326.283 291.64,325.458 291.912,325.458Z" style="fill:#ffe2e5;"/>
                    </g>
                </g>
                <g transform="matrix(1,0,0,1,183.427,-7.52084)">
                    <g transform="matrix(1,0,0,1,-183.427,7.52084)">
                        <path d="M275.757,323.15C275.757,323.768 275.255,324.27 274.637,324.27C274.018,324.27 273.516,323.768 273.516,323.15L275.757,323.15Z" style="fill:#ffbb13;"/>
                    </g>
                    <g transform="matrix(1,0,0,1,-183.427,7.52084)">
                        <path d="M274.637,324.81C274.909,324.81 275.13,325.635 275.13,326.651C275.13,327.668 274.909,328.493 274.637,328.493C274.364,328.493 274.143,327.668 274.143,326.651C274.143,325.635 274.364,324.81 274.637,324.81ZM271.965,327.777C271.73,327.641 271.951,326.816 272.459,325.936C272.967,325.056 273.571,324.452 273.806,324.588C274.042,324.724 273.821,325.549 273.313,326.429C272.805,327.309 272.201,327.913 271.965,327.777ZM275.467,324.588C275.703,324.452 276.307,325.056 276.815,325.936C277.323,326.816 277.544,327.641 277.308,327.777C277.072,327.913 276.468,327.309 275.96,326.429C275.452,325.549 275.231,324.724 275.467,324.588ZM270.01,325.821C269.874,325.585 270.478,324.982 271.358,324.473C272.237,323.965 273.062,323.744 273.199,323.98C273.335,324.216 272.731,324.82 271.851,325.328C270.971,325.836 270.146,326.057 270.01,325.821ZM276.075,323.98C276.211,323.744 277.036,323.965 277.916,324.473C278.796,324.982 279.4,325.585 279.264,325.821C279.128,326.057 278.303,325.836 277.423,325.328C276.543,324.82 275.939,324.216 276.075,323.98ZM272.976,323.15C272.976,323.422 272.151,323.643 271.135,323.643C270.119,323.643 269.294,323.422 269.294,323.15L272.976,323.15ZM279.979,323.15C279.979,323.422 279.155,323.643 278.138,323.643C277.122,323.643 276.297,323.422 276.297,323.15L279.979,323.15Z" style="fill:#ffe2e5;"/>
                    </g>
                </g>
                <g transform="matrix(1,0,0,1,183.427,7.78094)">
                    <g transform="matrix(1,0,0,1,-183.427,-7.78094)">
                        <circle cx="274.637" cy="338.452" r="1.121" style="fill:#ffbb13;"/>
                    </g>
                    <g transform="matrix(1,0,0,1,-183.427,-7.78094)">
                        <path d="M271.946,342.389C272.04,342.063 272.217,341.657 272.459,341.237C272.967,340.358 273.571,339.754 273.806,339.89C274.042,340.026 273.821,340.851 273.313,341.731C273.172,341.975 273.024,342.197 272.878,342.389L271.946,342.389ZM274.157,342.389C274.148,342.249 274.143,342.103 274.143,341.953C274.143,340.937 274.364,340.112 274.637,340.112C274.909,340.112 275.13,340.937 275.13,341.953C275.13,342.103 275.125,342.249 275.116,342.389L274.157,342.389ZM276.395,342.389C276.249,342.197 276.101,341.975 275.96,341.731C275.452,340.851 275.231,340.026 275.467,339.89C275.703,339.754 276.307,340.358 276.815,341.237C277.057,341.657 277.234,342.063 277.327,342.389L276.395,342.389ZM270.01,341.123C269.874,340.887 270.478,340.283 271.358,339.775C272.237,339.267 273.062,339.046 273.199,339.282C273.335,339.518 272.731,340.121 271.851,340.629C270.971,341.138 270.146,341.359 270.01,341.123ZM276.075,339.282C276.211,339.046 277.036,339.267 277.916,339.775C278.796,340.283 279.4,340.887 279.264,341.123C279.128,341.359 278.303,341.138 277.423,340.629C276.543,340.121 275.939,339.518 276.075,339.282ZM269.294,338.452C269.294,338.179 270.119,337.958 271.135,337.958C272.151,337.958 272.976,338.179 272.976,338.452C272.976,338.724 272.151,338.945 271.135,338.945C270.119,338.945 269.294,338.724 269.294,338.452ZM276.297,338.452C276.297,338.179 277.122,337.958 278.138,337.958C279.155,337.958 279.979,338.179 279.979,338.452C279.979,338.724 279.155,338.945 278.138,338.945C277.122,338.945 276.297,338.724 276.297,338.452ZM276.075,337.621C275.939,337.385 276.543,336.782 277.423,336.274C278.303,335.765 279.128,335.544 279.264,335.78C279.4,336.016 278.796,336.62 277.916,337.128C277.036,337.636 276.211,337.857 276.075,337.621ZM270.01,335.78C270.146,335.544 270.971,335.765 271.851,336.274C272.731,336.782 273.335,337.385 273.199,337.621C273.062,337.857 272.237,337.636 271.358,337.128C270.478,336.62 269.874,336.016 270.01,335.78ZM275.467,337.013C275.231,336.877 275.452,336.052 275.96,335.172C276.468,334.292 277.072,333.688 277.308,333.825C277.544,333.961 277.323,334.786 276.815,335.666C276.307,336.546 275.703,337.149 275.467,337.013ZM271.965,333.825C272.201,333.688 272.805,334.292 273.313,335.172C273.821,336.052 274.042,336.877 273.806,337.013C273.571,337.149 272.967,336.546 272.459,335.666C271.951,334.786 271.73,333.961 271.965,333.825ZM274.637,333.109C274.909,333.109 275.13,333.934 275.13,334.95C275.13,335.966 274.909,336.791 274.637,336.791C274.364,336.791 274.143,335.966 274.143,334.95C274.143,333.934 274.364,333.109 274.637,333.109Z" style="fill:#ffe2e5;"/>
                    </g>
                </g>
            </g>
        </g>
    </g>
</svg>
