<?xml version="1.0" encoding="UTF-8" standalone="no"?>
<!DOCTYPE svg PUBLIC "-//W3C//DTD SVG 1.1//EN" "http://www.w3.org/Graphics/SVG/1.1/DTD/svg11.dtd">
<svg width="100%" height="100%" viewBox="0 0 300 345" version="1.1" xmlns="http://www.w3.org/2000/svg" xmlns:xlink="http://www.w3.org/1999/xlink" xml:space="preserve" xmlns:serif="http://www.serif.com/" style="fill-rule:evenodd;clip-rule:evenodd;stroke-linejoin:round;stroke-miterlimit:2;">
    <g id="avatar_clothing_33">
        <g>
            <path d="M263.62,298.39L36.38,298.39C16.423,298.39 -0,281.967 -0,262.01C-0,262.007 -0,262.003 0,262L0,308.61C-0,308.613 -0,308.617 -0,308.62C-0,328.577 16.423,345 36.38,345L263.62,345C283.577,345 300,328.577 300,308.62L300,262C300,262.003 300,262.007 300,262.01C300,281.967 283.577,298.39 263.62,298.39Z" style="fill:#b7a593;fill-rule:nonzero;"/>
            <path d="M72.722,298.39L59.58,298.39L59.58,345L72.722,345L72.722,298.39ZM100.665,298.39L87.524,298.39L87.524,345L100.665,345L100.665,298.39ZM129.296,298.39L116.155,298.39L116.155,345L129.296,345L129.296,298.39ZM157.01,298.39L143.869,298.39L143.869,345L157.01,345L157.01,298.39ZM185.183,298.39L172.042,298.39L172.042,345L185.183,345L185.183,298.39ZM213.126,298.39L199.985,298.39L199.985,345L213.126,345L213.126,298.39ZM240.955,298.39L227.814,298.39L227.814,345L240.955,345L240.955,298.39ZM268.67,298.036C267.019,298.269 265.332,298.39 263.62,298.39L255.528,298.39L255.528,345L263.62,345C265.332,345 267.019,344.879 268.67,344.646L268.67,298.036ZM31.408,298.046L31.408,344.656C33.036,344.883 34.696,345 36.38,345L44.549,345L44.549,298.39L36.38,298.39C34.696,298.39 33.036,298.273 31.408,298.046ZM3.693,277.893L3.693,324.503C6.65,330.522 11.225,335.628 16.835,339.238L16.835,292.628C11.225,289.018 6.651,283.913 3.693,277.893ZM296.842,276.753C294.007,283.07 289.414,288.457 283.701,292.275L283.701,338.885C289.413,335.068 294.006,329.681 296.842,323.363L296.842,276.753Z" style="fill:#9d8465;"/>
            <path d="M291.444,331.951L8.556,331.951C11.146,335.029 14.232,337.678 17.686,339.769L282.314,339.769C285.768,337.678 288.854,335.029 291.444,331.951Z" style="fill:#893d1d;"/>
            <path d="M283.875,338.769L16.125,338.769C17.193,339.492 18.302,340.16 19.446,340.769L280.554,340.769C281.697,340.161 282.806,339.493 283.875,338.769ZM292.256,330.951L7.744,330.951C8.282,331.637 8.844,332.305 9.429,332.951L290.571,332.951C291.156,332.305 291.718,331.638 292.256,330.951Z" style="fill:#563020;"/>
            <path d="M147.925,298.657L191.938,298.381C191.938,298.381 193.379,296.769 194.066,296.421L194.592,296.155L197.756,292.427C198.299,292.901 198.569,293.481 198.414,294.224C220.844,282.909 245.462,270.802 260.999,263.87L262.07,261.797C262.528,262.042 262.861,262.373 263.017,262.823L265.436,259.972C265.947,260.418 266.216,260.956 266.118,261.635C270.691,259.692 274.018,258.452 275.635,258.161C288.067,255.927 300,253.93 300,253.93L300,308.62C300,328.577 283.577,345 263.62,345L209.274,342.489C209.418,343.173 209.254,343.916 209.011,344.535L203.273,342.202L170.363,340.746C170.239,341.39 169.962,342.098 169.409,342.629L166.521,340.701C166.535,341.059 165.999,341.413 165.801,341.766L164.324,340.571C164.556,341.698 163.076,342.422 161.773,342.346C160.54,342.274 159.271,340.08 159.271,340.08C159.384,340.544 159.438,341.351 159.428,341.972C159.406,343.335 158.029,344.326 156.831,344.528C155.455,344.76 154.114,344.587 153.547,343.362L149.632,344.412C142.683,346.229 134.671,342.807 132.809,335.86C132.321,334.038 132.243,332.202 132.519,330.451L129.775,330.919L124.974,334.583C124.344,333.733 124.145,332.817 124.619,331.798L79.082,339.565L75.235,342.501C74.841,341.971 74.616,341.414 74.617,340.823L73.722,341.507C73.496,341.202 73.325,340.889 73.221,340.565L36.38,345C16.423,345 0,328.577 0,308.62L0,253.93C0,253.93 11.933,255.927 24.365,258.161C28.199,258.85 43.755,263.538 63.506,269.793C63.102,268.822 63.309,267.944 63.914,267.128L70.191,271.919C82.445,275.83 95.891,280.202 108.942,284.523C109.041,284.216 109.231,283.94 109.492,283.686L110.894,285.17C124.359,289.635 147.925,298.657 147.925,298.657ZM140.946,327.165C140.535,328.501 140.622,329.959 140.901,331.887C141.357,335.042 143.618,338.162 147.159,339.071C143.596,339.482 140.17,335.949 139.214,332.381C138.75,330.65 138.944,328.896 139.644,327.387L140.946,327.165Z" style="fill:#341d00;fill-opacity:0.5;fill-rule:nonzero;"/>
        </g>
        <g>
            <g>
                <path d="M74.102,338.566L36.38,345C16.423,345 0,328.577 0,308.62L0,253.93C0,253.93 11.933,255.927 24.365,258.161C28.199,258.85 43.755,263.538 63.506,269.793C63.102,268.822 63.309,267.944 63.914,267.128L70.191,271.919C82.445,275.83 95.891,280.202 108.942,284.523C109.041,284.216 109.231,283.94 109.492,283.686L110.894,285.17C128.914,291.145 146.019,296.97 157.975,301.276C157.664,300.437 157.896,299.775 158.465,299.222L161.069,301.979C161.112,301.267 161.499,300.788 162.111,300.461L163.593,303.33C169.91,305.679 173.926,307.342 174.604,307.984C179.904,313.003 180.363,318.988 180.396,320.436L130.656,328.92L125.855,332.585C125.225,331.735 125.025,330.819 125.499,329.8L79.962,337.567L76.115,340.503C75.722,339.972 75.497,339.416 75.498,338.825L74.602,339.508C74.376,339.203 74.206,338.89 74.102,338.566Z" style="fill:#432c10;fill-rule:nonzero;"/>
                <g transform="matrix(0.965926,-0.258819,0.258819,0.965926,-78.1098,48.6663)">
                    <path d="M143.768,317.216L147.82,317.216C148.044,315.879 149.208,314.859 150.608,314.859C152.168,314.859 153.435,316.126 153.435,317.686L153.435,320.092C153.435,321.653 152.168,322.934 150.608,322.934L143.768,322.934L143.768,322.935C139.742,322.978 136.487,326.259 136.487,330.295C136.487,334.331 139.742,337.613 143.768,337.656L143.768,337.656L150.608,337.656L150.608,337.657C152.168,337.657 153.435,338.924 153.435,340.484L153.435,342.89C153.435,344.45 152.168,345.717 150.608,345.717C149.213,345.717 148.052,344.705 147.822,343.375L143.768,343.375C136.586,343.332 130.769,337.487 130.769,330.295C130.769,323.103 136.586,317.259 143.768,317.216Z" style="fill:#cd9b2c;"/>
                </g>
                <path d="M143.667,341.8C145.775,342.491 147.968,342.51 150.228,341.981C150.765,341.855 151.099,341.317 150.974,340.78C150.848,340.242 150.31,339.908 149.772,340.034C147.884,340.475 146.051,340.477 144.29,339.9C143.766,339.728 143.201,340.014 143.029,340.539C142.857,341.063 143.143,341.628 143.667,341.8ZM140.623,320.159C133.129,324.679 133.074,336.166 140.918,340.374C141.404,340.635 142.011,340.452 142.271,339.965C142.532,339.479 142.349,338.872 141.863,338.611C135.368,335.127 135.45,325.614 141.656,321.872C142.129,321.587 142.281,320.972 141.996,320.499C141.711,320.026 141.096,319.874 140.623,320.159Z" style="fill:#e5b854;"/>
                <path d="M266.118,261.635C270.691,259.692 274.018,258.452 275.635,258.161C288.067,255.927 300,253.93 300,253.93L300,308.62C300,328.577 283.577,345 263.62,345L208.146,341.728C208.525,342.278 208.53,342.87 208.287,343.489L203.273,341.441L169.436,339.445C169.823,340.09 169.761,340.723 169.409,341.348L166.091,339.42C166.105,339.778 165.999,340.132 165.801,340.485L163.399,339.089L150,338.299C144.841,337.708 141.47,335.819 140.901,331.887C140.222,327.193 140.68,325.284 146.693,321.135C147.274,320.735 149.429,319.537 152.792,317.737C153.708,317.248 154.713,316.713 155.799,316.138C155.953,316.057 156.109,315.975 156.266,315.892L158.677,313.051C158.982,313.317 159.162,313.631 159.161,314.015L159.98,313.051C160.199,313.242 160.353,313.457 160.423,313.706C163.548,312.069 167.099,310.223 170.971,308.224L173.176,305.626C173.547,305.95 173.734,306.345 173.634,306.851L173.679,306.827C180.463,303.335 187.259,299.867 194.066,296.421L194.592,296.155L197.756,292.427C198.299,292.901 198.569,293.481 198.414,294.224C220.844,282.909 245.462,270.802 260.999,263.87L262.07,261.797C262.528,262.042 262.861,262.373 263.017,262.823L265.436,259.972C265.947,260.418 266.216,260.956 266.118,261.635Z" style="fill:#4f4435;fill-rule:nonzero;"/>
                <g transform="matrix(-0.258819,-0.965926,0.965926,-0.258819,-108.242,578.25)">
                    <path d="M165.06,313.72L171.18,317.253L166.256,320.096L161.948,320.096C160.713,320.096 159.607,321.03 159.219,322.202C158.794,323.483 159.306,324.571 160.54,324.571L185.705,324.571C186.94,324.571 187.807,323.423 187.523,322.221C187.039,320.167 185.509,320.096 184.274,320.096L180.579,320.096L175.655,317.253L181.775,313.72L182.637,313.72C183.871,313.72 184.094,312.049 184.042,311.641C183.798,309.726 182.448,309.245 181.214,309.245L165.743,309.245C164.509,309.245 163.344,310.161 162.993,311.345C162.622,312.595 163.572,313.765 164.159,313.72L165.06,313.72ZM173.418,318.545L170.731,320.096L176.105,320.096L173.418,318.545ZM177.301,313.72L169.534,313.72L173.418,315.962L177.301,313.72Z" style="fill:#140b00;"/>
                </g>
            </g>
            <path d="M182.286,337.085C182.169,337.047 182.019,337.001 181.838,336.955C181.474,336.861 180.995,336.751 180.451,336.652C180.336,336.631 180.219,336.617 180.099,336.6C177.619,336.255 174.214,335.831 174.214,335.831C174.214,335.831 177.506,336.796 179.919,337.466C180.036,337.499 180.149,337.532 180.262,337.559C180.801,337.684 181.285,337.774 181.656,337.833C182.173,337.914 182.492,337.93 182.492,337.93L182.728,337.979L182.846,337.693C183.065,336.972 183.082,336.303 182.771,335.689C182.527,335.21 182.099,334.767 181.41,334.379C181.397,334.37 181.379,334.373 181.37,334.386C181.361,334.399 181.365,334.416 181.377,334.425C181.928,334.899 182.245,335.367 182.38,335.843C182.498,336.258 182.45,336.669 182.286,337.085ZM268.563,327.292C268.801,327.606 268.918,327.891 268.938,328.161C268.957,328.412 268.88,328.641 268.734,328.859C268.672,328.824 268.591,328.779 268.49,328.73C268.302,328.637 268.054,328.521 267.769,328.403C267.709,328.378 267.647,328.356 267.584,328.332C266.277,327.845 264.476,327.2 264.476,327.2C264.476,327.2 266.165,328.098 267.405,328.737C267.465,328.768 267.523,328.799 267.582,328.826C267.861,328.957 268.114,329.063 268.309,329.14C268.601,329.254 268.788,329.297 268.788,329.297L268.865,329.331L268.945,329.214C269.15,328.854 269.239,328.495 269.145,328.128C269.077,327.858 268.917,327.587 268.633,327.313C269.663,327.621 271.976,328.308 273.79,328.824C273.907,328.857 274.02,328.892 274.133,328.919C274.671,329.047 275.154,329.141 275.525,329.201C276.044,329.286 276.363,329.304 276.363,329.304L276.597,329.354L276.716,329.07C276.94,328.35 276.961,327.681 276.653,327.065C276.413,326.584 275.988,326.138 275.301,325.746C275.288,325.737 275.27,325.74 275.261,325.753C275.252,325.766 275.255,325.783 275.268,325.793C275.816,326.27 276.129,326.74 276.262,327.216C276.377,327.633 276.326,328.043 276.159,328.458C276.043,328.419 275.893,328.372 275.713,328.325C275.35,328.228 274.871,328.116 274.327,328.013C274.213,327.991 274.096,327.976 273.976,327.959C271.498,327.598 268.096,327.153 268.096,327.153C268.096,327.153 268.268,327.204 268.563,327.292ZM242.388,313.49C242.624,313.87 242.744,314.265 242.702,314.696C242.654,315.188 242.426,315.704 241.968,316.269C241.957,316.28 241.957,316.298 241.968,316.309C241.98,316.32 241.998,316.32 242.009,316.309C242.618,315.804 242.96,315.292 243.114,314.777C243.311,314.117 243.175,313.462 242.831,312.792L242.675,312.548C242.675,312.548 242.358,312.645 242.358,312.645C242.358,312.645 242.326,312.655 242.293,312.665C242.182,312.699 241.949,312.757 241.635,312.866C241.281,312.99 240.821,313.165 240.313,313.385C240.206,313.431 240.1,313.484 239.991,313.537C237.737,314.626 234.67,316.162 234.67,316.162C234.67,316.162 237.944,315.139 240.323,314.357C240.438,314.319 240.551,314.284 240.66,314.243C241.177,314.048 241.63,313.855 241.971,313.698C242.14,313.62 242.28,313.548 242.388,313.49ZM189.497,309.376C189.621,309.001 189.634,308.686 189.568,308.416C189.478,308.048 189.233,307.773 188.882,307.55L188.755,307.476C188.755,307.476 188.641,307.605 188.641,307.605C188.641,307.605 188.628,307.619 188.615,307.633C188.571,307.68 188.476,307.774 188.355,307.914C188.219,308.073 188.045,308.286 187.86,308.532C187.821,308.584 187.784,308.639 187.745,308.694C186.95,309.84 185.879,311.425 185.879,311.425C185.879,311.425 187.167,310.011 188.093,308.968C188.138,308.917 188.182,308.869 188.224,308.819C188.419,308.58 188.585,308.362 188.707,308.192C188.773,308.101 188.824,308.023 188.862,307.963C189.093,308.087 189.269,308.253 189.37,308.484C189.478,308.732 189.509,309.039 189.445,309.427C189.226,309.643 189.099,309.769 189.099,309.769C189.099,309.769 191.895,307.782 193.914,306.302C194.012,306.23 194.109,306.162 194.2,306.089C194.631,305.743 195.002,305.42 195.278,305.164C195.414,305.038 195.525,304.926 195.61,304.837C195.952,305.125 196.189,305.464 196.282,305.886C196.388,306.369 196.332,306.931 196.071,307.609C196.064,307.623 196.07,307.641 196.084,307.648C196.098,307.655 196.115,307.649 196.122,307.635C196.545,306.967 196.712,306.374 196.699,305.836C196.682,305.147 196.35,304.567 195.814,304.036L195.627,303.852C195.627,303.852 195.32,304.043 195.32,304.043C195.32,304.043 195.292,304.063 195.264,304.083C195.169,304.149 194.965,304.277 194.701,304.478C194.402,304.705 194.019,305.014 193.604,305.38C193.517,305.457 193.433,305.54 193.345,305.624C191.984,306.931 190.263,308.622 189.497,309.376ZM288.124,271.924C288.359,272.304 288.48,272.7 288.438,273.13C288.389,273.622 288.161,274.139 287.704,274.703C287.693,274.714 287.693,274.732 287.704,274.743C287.715,274.754 287.733,274.754 287.744,274.743C288.353,274.238 288.695,273.726 288.85,273.211C289.047,272.551 288.911,271.896 288.566,271.226L288.416,271.005C288.416,271.005 288.094,271.079 288.094,271.079C288.094,271.079 288.061,271.089 288.028,271.099C287.917,271.133 287.684,271.191 287.371,271.301C287.016,271.424 286.556,271.599 286.049,271.819C285.942,271.865 285.836,271.918 285.727,271.971C283.472,273.06 280.405,274.596 280.405,274.596C280.405,274.596 283.679,273.573 286.058,272.791C286.173,272.753 286.286,272.718 286.395,272.677C286.913,272.482 287.365,272.289 287.707,272.132C287.876,272.054 288.015,271.982 288.124,271.924Z" style="fill:#302619;"/>
            <path d="M88.54,329.412C88.376,328.996 88.327,328.586 88.446,328.17C88.581,327.694 88.897,327.226 89.448,326.753C89.461,326.744 89.464,326.726 89.455,326.713C89.446,326.7 89.428,326.697 89.416,326.706C88.726,327.094 88.298,327.537 88.055,328.017C87.743,328.631 87.76,329.3 87.98,330.021L88.097,330.307L88.333,330.258C88.333,330.258 88.652,330.241 89.169,330.16C89.541,330.102 90.024,330.011 90.563,329.886C90.676,329.86 90.79,329.826 90.907,329.794C93.319,329.124 96.611,328.158 96.611,328.158C96.611,328.158 93.207,328.582 90.727,328.927C90.607,328.944 90.489,328.958 90.375,328.979C89.831,329.079 89.351,329.188 88.987,329.282C88.807,329.329 88.657,329.375 88.54,329.412ZM33.882,324.936C33.597,325.21 33.437,325.481 33.369,325.751C33.276,326.118 33.364,326.477 33.57,326.838L33.65,326.955L33.727,326.92C33.727,326.92 33.914,326.877 34.206,326.763C34.401,326.686 34.654,326.58 34.933,326.449C34.992,326.422 35.05,326.391 35.11,326.36C36.35,325.721 38.038,324.823 38.038,324.823C38.038,324.823 36.238,325.468 34.931,325.955C34.868,325.979 34.806,326.001 34.746,326.026C34.461,326.144 34.212,326.26 34.024,326.353C33.924,326.403 33.842,326.448 33.781,326.482C33.635,326.264 33.558,326.036 33.576,325.784C33.597,325.515 33.714,325.229 33.952,324.915C34.246,324.828 34.418,324.776 34.418,324.776C34.418,324.776 31.017,325.221 28.539,325.582C28.419,325.599 28.302,325.615 28.188,325.636C27.644,325.739 27.165,325.851 26.802,325.948C26.622,325.996 26.472,326.043 26.355,326.081C26.188,325.666 26.138,325.256 26.253,324.839C26.385,324.363 26.699,323.893 27.247,323.416C27.259,323.407 27.262,323.389 27.253,323.376C27.244,323.363 27.227,323.36 27.214,323.369C26.527,323.762 26.102,324.207 25.861,324.688C25.554,325.304 25.575,325.973 25.799,326.693L25.918,326.977L26.152,326.928C26.152,326.928 26.471,326.909 26.989,326.825C27.36,326.764 27.843,326.67 28.381,326.542C28.494,326.515 28.608,326.48 28.724,326.447C30.539,325.931 32.852,325.244 33.882,324.936ZM47,300.49C47.05,300.362 47,300.49 47,300.49C46.79,301.027 46.733,301.556 46.892,302.088C47.046,302.604 47.388,303.116 47.997,303.62C48.008,303.631 48.026,303.632 48.037,303.621C48.049,303.609 48.049,303.591 48.038,303.58C47.58,303.016 47.352,302.499 47.304,302.007C47.261,301.577 47.382,301.181 47.618,300.802C47.726,300.859 47.866,300.931 48.035,301.009C48.376,301.167 48.829,301.36 49.346,301.555C49.455,301.596 49.568,301.631 49.683,301.669C52.062,302.45 55.336,303.474 55.336,303.474C55.336,303.474 52.269,301.937 50.014,300.848C49.905,300.795 49.8,300.742 49.693,300.696C49.185,300.477 48.725,300.302 48.37,300.178C48.057,300.069 47.824,300.011 47.713,299.977C47.245,299.834 47,300.49 47,300.49ZM112.809,298.638C112.745,298.249 112.776,297.942 112.884,297.694C112.985,297.463 113.161,297.297 113.392,297.173C113.43,297.233 113.481,297.311 113.547,297.402C113.669,297.572 113.835,297.79 114.031,298.029C114.072,298.079 114.116,298.127 114.161,298.178C115.087,299.221 116.375,300.635 116.375,300.635C116.375,300.635 115.305,299.05 114.509,297.904C114.47,297.849 114.433,297.794 114.394,297.742C114.209,297.496 114.036,297.283 113.899,297.125C113.779,296.984 113.683,296.89 113.639,296.843C113.493,296.683 113.245,296.847 113.245,296.847C113.286,296.817 113.245,296.847 113.245,296.847C112.962,297.053 112.764,297.304 112.686,297.627C112.62,297.896 112.634,298.211 112.757,298.586C111.991,297.832 110.27,296.141 108.909,294.834C108.821,294.75 108.737,294.667 108.65,294.59C108.235,294.224 107.852,293.915 107.553,293.688C107.289,293.487 107.086,293.36 106.991,293.293C106.613,293.028 106.193,293.512 106.193,293.512C106.269,293.422 106.193,293.512 106.193,293.512C105.804,293.971 105.57,294.471 105.556,295.046C105.542,295.584 105.709,296.177 106.132,296.845C106.139,296.859 106.156,296.865 106.17,296.858C106.184,296.851 106.19,296.834 106.183,296.82C105.922,296.141 105.866,295.579 105.972,295.097C106.065,294.674 106.303,294.336 106.644,294.048C106.729,294.136 106.84,294.248 106.977,294.374C107.252,294.63 107.623,294.953 108.055,295.299C108.145,295.372 108.242,295.44 108.34,295.512C110.36,296.992 113.155,298.979 113.155,298.979C113.155,298.979 113.028,298.853 112.809,298.638ZM13.773,269.236C13.823,269.107 13.773,269.236 13.773,269.236C13.564,269.772 13.506,270.302 13.665,270.834C13.819,271.349 14.162,271.862 14.77,272.366C14.781,272.377 14.799,272.377 14.811,272.366C14.822,272.355 14.822,272.337 14.811,272.326C14.353,271.762 14.125,271.245 14.077,270.753C14.035,270.323 14.155,269.927 14.391,269.547C14.499,269.605 14.639,269.677 14.808,269.755C15.149,269.912 15.602,270.106 16.12,270.3C16.228,270.341 16.341,270.376 16.456,270.414C18.836,271.196 22.11,272.219 22.11,272.219C22.11,272.219 19.043,270.683 16.788,269.594C16.679,269.541 16.573,269.488 16.466,269.442C15.958,269.222 15.499,269.047 15.144,268.924C14.83,268.815 14.597,268.756 14.486,268.723C14.018,268.579 13.773,269.236 13.773,269.236Z" style="fill:#1a0e00;"/>
        </g>
    </g>
</svg>
