<?xml version="1.0" encoding="UTF-8" standalone="no"?>
<!DOCTYPE svg PUBLIC "-//W3C//DTD SVG 1.1//EN" "http://www.w3.org/Graphics/SVG/1.1/DTD/svg11.dtd">
<svg width="100%" height="100%" viewBox="0 0 300 345" version="1.1" xmlns="http://www.w3.org/2000/svg" xmlns:xlink="http://www.w3.org/1999/xlink" xml:space="preserve" xmlns:serif="http://www.serif.com/" style="fill-rule:evenodd;clip-rule:evenodd;stroke-linejoin:round;stroke-miterlimit:2;">
    <g id="avatar_clothing_18">
        <path d="M300,308.62C300,328.577 283.577,345 263.62,345L36.38,345C16.423,345 -0,328.577 -0,308.62L-0,262.01L0,262L-0,262.01C-0,281.962 16.418,298.38 36.37,298.38L113.284,298.38C113.757,311.848 186.243,311.848 186.716,298.38L263.62,298.38C283.577,298.38 300,281.957 300,262L300,308.62Z" style="fill:#eb61a1;fill-rule:nonzero;"/>
        <path d="M104.665,298.38L113.284,298.38C113.757,311.848 186.243,311.848 186.716,298.38L195.265,298.38C194.824,301.188 194.16,304.08 191.692,306.805C190.258,308.388 188.347,309.842 185.9,311.066C178.523,314.758 164.285,316.907 150,316.907C135.714,316.907 121.477,314.758 114.1,311.066C111.653,309.842 109.742,308.388 108.308,306.806C106.168,304.442 104.595,301.251 104.665,298.38Z" style="fill:#c35989;"/>
        <path d="M150.75,308.479L150.75,316.905C150.5,316.906 150.25,316.907 150,316.907C149.75,316.907 149.5,316.906 149.25,316.905L149.25,308.479C149.749,308.482 150.248,308.482 150.75,308.479ZM144.056,308.361C144.554,308.381 145.053,308.399 145.555,308.414L145.181,316.826C144.68,316.809 144.18,316.789 143.682,316.767L143.682,316.765L144.056,308.361ZM156.318,316.765L156.318,316.767C155.819,316.789 155.319,316.809 154.819,316.826L154.445,308.414C154.946,308.399 155.446,308.381 155.944,308.361L156.318,316.765ZM138.648,308.033C139.144,308.074 139.643,308.111 140.144,308.146L139.314,316.507C138.814,316.469 138.316,316.428 137.819,316.385L138.648,308.033ZM161.352,308.033L162.181,316.385C161.685,316.428 161.187,316.469 160.686,316.507L159.856,308.146C160.357,308.111 160.855,308.074 161.352,308.033ZM133.654,307.52C134.151,307.583 134.653,307.642 135.161,307.699L132.996,315.495C132.958,315.628 132.887,315.745 132.788,315.841L132.781,315.847C132.398,315.798 132.018,315.747 131.64,315.695C131.531,315.522 131.492,315.306 131.551,315.094L133.654,307.52ZM168.449,315.094C168.503,315.3 168.472,315.513 168.361,315.694L168.36,315.695C167.982,315.747 167.602,315.798 167.219,315.847C167.119,315.755 167.043,315.635 167.004,315.495L164.839,307.699C165.346,307.642 165.849,307.583 166.346,307.52L168.449,315.094ZM128.897,306.799C129.419,306.893 129.949,306.984 130.486,307.07L125.865,314.721L125.861,314.727C125.395,314.634 124.935,314.538 124.481,314.439C124.457,314.274 124.488,314.1 124.581,313.945L128.897,306.799ZM175.419,313.945C175.504,314.092 175.54,314.256 175.521,314.425L175.519,314.439C175.066,314.538 174.606,314.634 174.139,314.727L174.135,314.721L169.514,307.07C170.051,306.984 170.581,306.894 171.103,306.799L175.419,313.945ZM123.781,305.671C124.335,305.82 124.905,305.962 125.494,306.1L118.545,312.836L118.532,312.848C118.104,312.707 117.687,312.563 117.282,312.416C117.245,312.183 117.318,311.936 117.501,311.759L123.781,305.671ZM182.499,311.759C182.673,311.931 182.753,312.169 182.719,312.411L182.718,312.416C182.313,312.563 181.897,312.707 181.468,312.848L181.455,312.836L174.506,306.1C175.093,305.963 175.665,305.82 176.219,305.671L182.499,311.759ZM118.748,303.945C119.304,304.192 119.897,304.429 120.521,304.655L111.735,309.707C111.283,309.409 110.855,309.101 110.451,308.786C110.51,308.707 110.586,308.638 110.677,308.586L118.748,303.945ZM189.323,308.586C189.41,308.637 189.485,308.702 189.547,308.782L189.549,308.786C189.145,309.102 188.717,309.409 188.265,309.707L179.479,304.655C180.104,304.429 180.696,304.192 181.252,303.945L189.323,308.586ZM114.647,301.293C115.017,301.68 115.458,302.052 115.963,302.407L107.309,305.586C107.007,305.177 106.723,304.753 106.461,304.317C106.505,304.289 106.553,304.265 106.604,304.247L114.647,301.293ZM193.396,304.247C193.426,304.258 193.455,304.271 193.484,304.285L193.484,304.286C193.249,304.72 192.982,305.152 192.678,305.581L184.037,302.407C184.542,302.052 184.983,301.68 185.353,301.293L193.396,304.247ZM112.766,298.38L113.284,298.38C113.3,298.845 113.402,299.293 113.584,299.726L105.242,301.74C105.075,301.259 104.94,300.775 104.843,300.293L112.766,298.38ZM187.234,298.38L194.926,300.237C194.821,300.721 194.699,301.206 194.553,301.69L186.416,299.726C186.598,299.293 186.7,298.845 186.716,298.38L187.234,298.38Z" style="fill:#993f68;"/>
        <path d="M112.927,299.613C113.375,299.754 113.703,300.176 113.925,300.609C114.143,301.032 114.279,301.478 114.212,301.752C114.157,301.975 114.207,302.211 114.348,302.392C114.489,302.574 114.705,302.68 114.935,302.682C116.747,302.695 117.839,303.501 118.42,304.877C118.563,305.216 118.93,305.402 119.288,305.315C121.09,304.876 122.541,305.324 123.587,306.801C123.782,307.077 124.139,307.188 124.457,307.072C126.223,306.424 127.706,306.67 128.91,307.819C129.106,308.006 129.387,308.072 129.646,307.994C131.152,307.536 132.565,307.779 133.888,308.697C134.093,308.839 134.354,308.87 134.586,308.78C136.151,308.175 137.636,308.371 139.062,309.154C139.28,309.273 139.543,309.277 139.764,309.164C141.4,308.331 142.989,308.562 144.552,309.389C144.743,309.49 144.968,309.504 145.17,309.427C146.688,308.848 148.15,308.904 149.556,309.589C149.762,309.689 150.004,309.69 150.21,309.59C151.729,308.857 153.31,308.92 154.941,309.573C155.152,309.658 155.39,309.642 155.588,309.53C157.162,308.644 158.738,308.678 160.313,309.247C160.513,309.319 160.733,309.303 160.921,309.203C162.37,308.43 163.858,308.347 165.382,308.877C165.615,308.959 165.874,308.92 166.073,308.773C167.379,307.809 168.824,307.59 170.404,308.088C170.671,308.173 170.963,308.101 171.161,307.903C172.308,306.752 173.779,306.439 175.602,307.002C175.904,307.096 176.233,306.989 176.423,306.736C177.439,305.385 178.793,304.868 180.531,305.292C180.867,305.374 181.217,305.215 181.375,304.906C182.143,303.415 183.323,302.61 185.048,302.714C185.263,302.727 185.474,302.647 185.626,302.493C185.778,302.339 185.856,302.127 185.841,301.912C185.793,301.252 185.872,300.752 186.133,300.408C186.371,300.096 186.755,299.949 187.24,299.891C187.651,299.842 187.945,299.469 187.896,299.058C187.848,298.647 187.474,298.353 187.063,298.402C186.113,298.514 185.404,298.889 184.939,299.5C184.611,299.931 184.398,300.496 184.343,301.216C182.567,301.324 181.253,302.202 180.323,303.72C178.371,303.401 176.793,304.004 175.55,305.432C173.499,304.926 171.804,305.333 170.427,306.536C168.651,306.083 167.009,306.349 165.503,307.342C163.804,306.836 162.138,306.946 160.51,307.73C158.73,307.153 156.949,307.158 155.167,308.055C153.354,307.401 151.589,307.37 149.886,308.091C148.298,307.405 146.654,307.34 144.954,307.911C143.151,307.032 141.318,306.83 139.438,307.659C137.83,306.866 136.161,306.678 134.415,307.249C132.908,306.309 131.311,306.039 129.624,306.446C128.183,305.24 126.47,304.898 124.468,305.489C123.194,303.966 121.54,303.403 119.533,303.734C118.77,302.321 117.544,301.418 115.681,301.222C115.622,300.813 115.482,300.357 115.259,299.923C114.854,299.136 114.191,298.439 113.379,298.182C112.984,298.058 112.562,298.277 112.438,298.672C112.313,299.066 112.532,299.488 112.927,299.613Z" style="fill:#993f68;"/>
        <g>
            <g transform="matrix(-1.02425,0.0212011,-0.0212011,1.01854,311.476,-11.9179)">
                <path d="M139.412,319.036L162.577,339.291L161.919,340.044L138.754,319.789L139.412,319.036Z" style="fill:#993f68;"/>
            </g>
            <g transform="matrix(1.02939,0.0256942,0.0256942,1.02247,-12.2941,-13.7977)">
                <path d="M138.754,319.789L161.919,340.044L162.577,339.291L139.412,319.036L138.754,319.789Z" style="fill:#993f68;"/>
            </g>
            <path d="M194.221,298.347C194.185,298.14 196.214,298.11 196.264,298.347C196.267,298.358 196.265,298.369 196.265,298.38C196.265,298.432 196.261,298.483 196.253,298.535C195.784,301.519 195.055,304.581 192.433,307.476C190.926,309.141 188.92,310.673 186.347,311.96C178.878,315.699 164.466,317.907 150,317.907C135.534,317.907 121.122,315.699 113.653,311.96C111.08,310.673 109.074,309.141 107.567,307.477C105.26,304.929 103.599,301.477 103.665,298.38C103.665,298.372 103.665,298.364 103.666,298.356C103.707,298.003 105.607,298.047 105.631,298.347L105.709,299.38L105.709,299.38C105.969,301.744 107.322,304.227 109.049,306.134C110.409,307.636 112.226,309.01 114.548,310.172C121.831,313.817 135.895,315.907 150,315.907C164.105,315.907 178.169,313.817 185.452,310.172C187.774,309.01 189.591,307.636 190.951,306.134C192.928,303.951 193.653,301.647 194.08,299.38L194.221,298.347Z" style="fill:#993f68;"/>
        </g>
        <path d="M8.541,330.639C8.808,330.221 9.078,329.804 9.351,329.389L8.098,328.564C7.821,328.985 7.547,329.408 7.277,329.831L8.541,330.639ZM290.809,330.639C290.541,330.221 290.271,329.804 289.998,329.389L291.251,328.564C291.528,328.985 291.802,329.408 292.073,329.831L290.809,330.639ZM264.566,298.368C277.08,306.063 286.774,316.61 294.169,328.271C293.872,328.729 293.565,329.181 293.249,329.624C285.519,317.277 275.201,306.154 261.65,298.38L263.62,298.38C263.935,298.38 264.25,298.376 264.566,298.368ZM34.818,298.347C35.331,298.369 35.849,298.38 36.37,298.38L37.699,298.38C24.326,306.052 14.103,316.984 6.408,329.135C6.098,328.684 5.797,328.226 5.506,327.761C12.865,316.293 22.469,305.931 34.818,298.347ZM10.179,328.151C10.457,327.74 10.739,327.331 11.023,326.924L9.794,326.065C9.505,326.478 9.22,326.892 8.937,327.309L10.179,328.151ZM289.17,328.151C288.892,327.74 288.61,327.331 288.326,326.924L289.555,326.065C289.844,326.478 290.129,326.892 290.412,327.309L289.17,328.151ZM11.885,325.709C12.175,325.306 12.468,324.906 12.764,324.507L11.56,323.613C11.259,324.017 10.962,324.424 10.668,324.832L11.885,325.709ZM287.464,325.709C287.174,325.306 286.881,324.906 286.585,324.507L287.79,323.613C288.09,324.017 288.387,324.424 288.681,324.832L287.464,325.709ZM13.66,323.318C13.962,322.924 14.266,322.532 14.574,322.142L13.396,321.213C13.084,321.609 12.775,322.006 12.469,322.406L13.66,323.318ZM285.689,323.318C285.388,322.924 285.083,322.532 284.776,322.142L285.953,321.213C286.266,321.609 286.575,322.006 286.88,322.406L285.689,323.318ZM15.504,320.98C15.817,320.596 16.133,320.213 16.453,319.833L15.304,318.868C14.98,319.255 14.659,319.643 14.341,320.033L15.504,320.98ZM283.845,320.98C283.532,320.596 283.216,320.213 282.897,319.833L284.046,318.868C284.37,319.255 284.691,319.643 285.008,320.033L283.845,320.98ZM17.418,318.7C17.743,318.325 18.07,317.953 18.401,317.583L17.283,316.583C16.947,316.959 16.614,317.337 16.284,317.718L17.418,318.7ZM281.931,318.7C281.607,318.325 281.279,317.953 280.948,317.583L282.066,316.583C282.402,316.959 282.735,317.337 283.065,317.718L281.931,318.7ZM19.402,316.481C19.738,316.117 20.077,315.755 20.42,315.396L19.334,314.361C18.986,314.726 18.641,315.094 18.299,315.464L19.402,316.481ZM279.948,316.481C279.612,316.117 279.272,315.755 278.93,315.396L280.016,314.361C280.364,314.726 280.708,315.094 281.05,315.464L279.948,316.481ZM21.455,314.327C21.802,313.974 22.153,313.624 22.507,313.276L21.456,312.206C21.096,312.56 20.739,312.916 20.386,313.275L21.455,314.327ZM277.895,314.327C277.547,313.974 277.196,313.624 276.842,313.276L277.893,312.206C278.253,312.56 278.61,312.916 278.963,313.275L277.895,314.327ZM275.772,312.242C275.413,311.901 275.051,311.563 274.686,311.227L275.701,310.122C276.072,310.464 276.441,310.808 276.806,311.155L275.772,312.242ZM23.577,312.242C23.936,311.901 24.298,311.563 24.664,311.227L23.649,310.122C23.277,310.464 22.909,310.808 22.544,311.155L23.577,312.242ZM273.582,310.23C273.212,309.901 272.838,309.576 272.461,309.253L273.438,308.114C273.821,308.442 274.201,308.774 274.578,309.108L273.582,310.23ZM25.767,310.23C26.137,309.901 26.511,309.576 26.888,309.253L25.911,308.114C25.528,308.442 25.148,308.774 24.771,309.108L25.767,310.23ZM28.025,308.294C28.406,307.979 28.791,307.666 29.179,307.357L28.243,306.184C27.848,306.5 27.457,306.818 27.069,307.139L28.025,308.294ZM271.324,308.294C270.943,307.979 270.558,307.666 270.171,307.357L271.107,306.184C271.501,306.5 271.893,306.818 272.281,307.139L271.324,308.294ZM30.349,306.439C30.741,306.137 31.136,305.838 31.534,305.543L30.641,304.338C30.235,304.639 29.832,304.943 29.433,305.251L30.349,306.439ZM269.001,306.439C268.609,306.137 268.213,305.838 267.815,305.543L268.709,304.338C269.114,304.639 269.517,304.943 269.916,305.251L269.001,306.439ZM32.736,304.667C33.138,304.38 33.544,304.095 33.953,303.814L33.103,302.578C32.687,302.865 32.274,303.154 31.864,303.447L32.736,304.667ZM266.613,304.667C266.211,304.38 265.805,304.095 265.396,303.814L266.246,302.578C266.663,302.865 267.076,303.154 267.485,303.447L266.613,304.667ZM35.185,302.983C35.598,302.71 36.014,302.441 36.433,302.174L35.628,300.908C35.201,301.179 34.778,301.454 34.358,301.732L35.185,302.983ZM264.164,302.983C263.751,302.71 263.336,302.441 262.917,302.174L263.721,300.908C264.148,301.179 264.571,301.454 264.991,301.732L264.164,302.983ZM261.655,301.388C261.233,301.131 260.808,300.877 260.379,300.626L261.137,299.331C261.574,299.587 262.007,299.846 262.437,300.108L261.655,301.388ZM37.694,301.388C38.116,301.131 38.541,300.877 38.97,300.626L38.212,299.331C37.776,299.587 37.343,299.846 36.913,300.108L37.694,301.388ZM41.137,298.38L39.881,298.38C39.762,298.446 39.644,298.512 39.525,298.579L40.259,299.887C40.69,299.645 41.124,299.406 41.562,299.171L41.137,298.38ZM259.468,298.38C259.587,298.446 259.706,298.512 259.824,298.579L259.09,299.887C258.659,299.645 258.225,299.406 257.787,299.171L258.212,298.38L259.468,298.38ZM42.878,298.48L42.826,298.38L43.073,298.38L42.878,298.48ZM256.472,298.48L256.276,298.38L256.523,298.38L256.472,298.48Z" style="fill:#993f68;"/>
    </g>
</svg>
