<?xml version="1.0" encoding="UTF-8" standalone="no"?>
<!DOCTYPE svg PUBLIC "-//W3C//DTD SVG 1.1//EN" "http://www.w3.org/Graphics/SVG/1.1/DTD/svg11.dtd">
<svg width="100%" height="100%" viewBox="0 0 300 345" version="1.1" xmlns="http://www.w3.org/2000/svg" xmlns:xlink="http://www.w3.org/1999/xlink" xml:space="preserve" xmlns:serif="http://www.serif.com/" style="fill-rule:evenodd;clip-rule:evenodd;stroke-linejoin:round;stroke-miterlimit:2;">
    <g id="avatar_clothing_30">
        <path d="M300,308.62C300,328.577 283.577,345 263.62,345L36.38,345C16.423,345 -0,328.577 -0,308.62L-0,301.88L62.754,302.85L149.675,320.247L234.851,300.658L300,301.589L300,308.62Z" style="fill:url(#_Linear1);fill-rule:nonzero;"/>
        <path d="M158.907,323.654L153.153,324.796L129.524,324.796L57.613,298.329L90.107,298.329L158.907,323.654Z" style="fill:#6fafe9;"/>
        <path d="M158.907,323.654L153.153,324.796L129.524,324.796L125.851,323.448L142.553,317.648L158.907,323.654Z" style="fill:#4d96d8;"/>
        <path d="M209.597,298.38L129.587,324.796L129.587,329.396C129.587,330.242 130.274,330.929 131.121,330.929L160.608,330.929C161.454,330.929 162.141,330.242 162.141,329.396L162.141,324.775L242.091,298.38L209.597,298.38Z" style="fill:#6fafe9;"/>
        <path d="M-0,262.01C-0,281.962 16.418,298.38 36.37,298.38L89.26,298.38L89.26,345L36.38,345C16.423,345 -0,328.577 -0,308.62L0,262L-0,262.01ZM210.74,298.38L263.62,298.38C283.577,298.38 300,281.957 300,262L300,308.62C300,328.577 283.577,345 263.62,345L210.74,345L210.74,298.38Z" style="fill:#e3f2ff;fill-rule:nonzero;"/>
        <g transform="matrix(1,0,0,1,-1.04908,0)">
            <g transform="matrix(1,0,0,1,1.82265,0)">
                <path d="M210.74,345L240.269,321.923L224.531,300.17L210.861,300.17L208.918,345L210.74,345Z" style="fill:#a4d5ff;"/>
            </g>
            <path d="M210.74,345L239.568,321.222L224.531,300.17L210.861,300.17L210.74,345Z" style="fill:#fff;"/>
            <path d="M210.74,319.799L247.967,306.058L245.108,298.38L210.736,298.38L210.74,319.799Z" style="fill:#a4d5ff;"/>
            <path d="M210.821,318.905L245.715,305.111L242.891,298.329L210.736,298.38L210.821,318.905Z" style="fill:#fff;"/>
        </g>
        <g transform="matrix(-1,0,0,1,300.848,0)">
            <g transform="matrix(1,0,0,1,1.82265,0)">
                <path d="M210.74,345L240.269,321.923L224.531,299.368L210.861,299.368L208.918,345L210.74,345Z" style="fill:#a4d5ff;"/>
            </g>
            <path d="M210.74,345L239.568,321.222L224.531,299.368L210.861,299.368L210.74,345Z" style="fill:#fff;"/>
            <path d="M210.74,319.799L247.967,306.058L245.113,298.38L210.74,298.532L210.74,319.799Z" style="fill:#a4d5ff;"/>
            <path d="M210.821,318.905L245.715,305.111L242.895,298.38L210.74,298.329L210.821,318.905Z" style="fill:#fff;"/>
        </g>
        <path d="M265.309,307.482C273.204,307.482 279.614,313.892 279.614,321.787C279.614,329.682 273.204,336.092 265.309,336.092C257.413,336.092 251.003,329.682 251.003,321.787C251.003,313.892 257.413,307.482 265.309,307.482ZM261.828,318.306L257.767,318.306C256.807,318.306 256.027,319.086 256.027,320.047L256.027,323.527C256.027,324.488 256.807,325.268 257.767,325.268L261.828,325.268L261.828,329.329C261.828,330.289 262.608,331.069 263.568,331.069L267.049,331.069C268.01,331.069 268.79,330.289 268.79,329.329L268.79,325.268L272.85,325.268C273.811,325.268 274.591,324.488 274.591,323.527L274.591,320.047C274.591,319.086 273.811,318.306 272.85,318.306L268.79,318.306L268.79,314.245C268.79,313.285 268.01,312.505 267.049,312.505L263.568,312.505C262.608,312.505 261.828,313.285 261.828,314.245L261.828,318.306Z" style="fill:#354051;"/>
    </g>
    <defs>
        <linearGradient id="_Linear1" x1="0" y1="0" x2="1" y2="0" gradientUnits="userSpaceOnUse" gradientTransform="matrix(4.28838e-15,-70.0345,19.3762,1.18645e-15,150,351.818)"><stop offset="0" style="stop-color:#6da9df;stop-opacity:1"/><stop offset="1" style="stop-color:#4c8cc4;stop-opacity:1"/></linearGradient>
    </defs>
</svg>
