<?xml version="1.0" encoding="UTF-8" standalone="no"?>
<!DOCTYPE svg PUBLIC "-//W3C//DTD SVG 1.1//EN" "http://www.w3.org/Graphics/SVG/1.1/DTD/svg11.dtd">
<svg width="100%" height="100%" viewBox="0 0 300 345" version="1.1" xmlns="http://www.w3.org/2000/svg" xmlns:xlink="http://www.w3.org/1999/xlink" xml:space="preserve" xmlns:serif="http://www.serif.com/" style="fill-rule:evenodd;clip-rule:evenodd;stroke-linejoin:round;stroke-miterlimit:2;">
    <g id="avatar_clothing_54">
        <g>
            <g transform="matrix(1,0,0,0.69181,0,91.9609)">
                <path d="M173.056,298.39L170.142,298.39C170.71,317.25 130.1,319.128 130.103,298.39L126.773,298.39L137.949,339.64L160.784,339.64L173.056,298.39Z" style="fill:#fff;"/>
            </g>
            <path d="M177.67,304.762L263.62,298.39C283.577,298.39 300,281.967 300,262.01L300,308.62C300,308.697 300,308.774 299.999,308.851L299.997,309.077L299.997,309.087L299.996,309.175L299.994,309.306L299.993,309.32L299.991,309.412L299.989,309.534L299.988,309.553L299.985,309.645L299.982,309.761L299.981,309.785L299.978,309.877L299.974,309.988L299.973,310.017L299.969,310.108L299.965,310.215L299.963,310.249L299.959,310.339L299.954,310.442L299.952,310.48L299.947,310.568L299.942,310.668L299.941,310.69L299.94,310.711L299.934,310.797L299.929,310.894L299.927,310.918L299.926,310.942L299.92,311.026L299.914,311.119L299.912,311.146L299.91,311.172L299.904,311.254L299.897,311.345L299.895,311.374L299.893,311.402L299.887,311.481L299.88,311.569L299.877,311.601L299.875,311.631L299.868,311.709L299.861,311.794L299.858,311.828L299.855,311.86L299.848,311.935L299.84,312.018L299.837,312.055L299.833,312.089L299.826,312.162L299.818,312.242L299.814,312.281L299.811,312.317L299.803,312.387L299.795,312.465L299.791,312.507L299.787,312.545L299.779,312.613L299.771,312.688L299.765,312.732L299.761,312.773L299.753,312.838L299.745,312.91L299.739,312.957L299.734,313L299.726,313.062L299.717,313.132L299.711,313.182L299.705,313.227L299.698,313.287L299.689,313.354L299.682,313.406L299.676,313.453L299.668,313.51L299.659,313.575L299.651,313.63L299.644,313.679L299.636,313.734L299.627,313.796L299.619,313.854L299.612,313.904L299.604,313.956L299.595,314.017L299.585,314.077L299.578,314.129L299.57,314.179L299.561,314.237L299.551,314.3L299.542,314.354L299.534,314.401L299.525,314.457L299.514,314.523L299.505,314.578L299.498,314.622L299.489,314.676L299.477,314.745L299.467,314.802L299.46,314.844L299.451,314.895L299.438,314.967L299.427,315.025L299.42,315.064L299.411,315.113L299.397,315.189L299.387,315.248L299.38,315.284L299.371,315.331L299.356,315.41L299.344,315.47L299.337,315.504L299.329,315.549L299.312,315.631L299.3,315.692L299.294,315.723L299.286,315.766L299.268,315.852L299.255,315.913L299.249,315.942L299.241,315.982L299.222,316.073L299.209,316.134L299.203,316.161L299.195,316.199L299.174,316.293L299.161,316.355L299.156,316.378L299.148,316.414L299.126,316.514L299.112,316.575L299.107,316.596L299.1,316.63L299.075,316.734L299.062,316.794L299.057,316.813L299.05,316.844L299.023,316.955L299.01,317.013L299.006,317.029L298.999,317.059L298.97,317.176L298.957,317.231L298.953,317.245L298.946,317.273L298.915,317.398L298.902,317.45L298.893,317.486L298.858,317.62L298.846,317.667L298.838,317.699L298.799,317.845L298.782,317.911L298.738,318.073L298.725,318.123L298.671,318.317C298.45,319.108 298.202,319.887 297.929,320.656L297.866,320.831L297.792,321.036L297.716,321.24L297.639,321.443L297.561,321.646L297.541,321.698L297.534,321.715L297.482,321.848L297.46,321.904L297.453,321.921L297.401,322.05L297.377,322.11L297.37,322.127L297.32,322.251L297.297,322.307L297.237,322.452L297.212,322.511L297.153,322.652L297.126,322.715L297.068,322.851L297.039,322.918L296.981,323.05L296.95,323.12L296.894,323.248L296.861,323.322L296.805,323.446L296.77,323.524L296.716,323.643L296.678,323.725L296.625,323.839L296.584,323.925L296.533,324.035L296.49,324.126L296.44,324.23L296.394,324.325L296.345,324.425L296.296,324.524L296.25,324.618L296.198,324.723L296.154,324.812L296.056,325.004L295.957,325.196L295.893,325.319C294.94,327.141 293.838,328.875 292.602,330.503L292.502,330.634L292.371,330.804L292.334,330.851L292.322,330.867L292.239,330.973L292.206,331.015L292.106,331.141L292.072,331.184L292.063,331.195L292.044,331.219L291.973,331.308L291.938,331.352L291.926,331.366L291.904,331.394L291.838,331.475L291.802,331.519L291.788,331.536L291.763,331.566L291.702,331.641L291.666,331.685L291.649,331.705L291.622,331.738L291.565,331.806L291.529,331.849L291.509,331.873L291.479,331.909L291.428,331.97L291.391,332.013L291.368,332.041L291.336,332.078L291.289,332.134L291.253,332.176L291.226,332.208L291.192,332.247L291.15,332.296L291.114,332.337L291.083,332.373L291.048,332.414L291.009,332.458L290.975,332.498L290.939,332.538L290.902,332.581L290.868,332.619L290.834,332.657L290.795,332.702L290.755,332.746L290.726,332.779L290.694,332.815L290.649,332.865L290.608,332.911L290.583,332.939L290.553,332.971L290.502,333.028L290.46,333.074L290.438,333.097L290.412,333.127L290.354,333.189L290.31,333.236L290.293,333.255L290.27,333.28L290.206,333.35L290.16,333.398L290.148,333.412L290.128,333.432L290.056,333.509L290.009,333.559L289.905,333.668L289.845,333.731C283.206,340.66 273.88,345 263.62,345L36.38,345C26.12,345 16.794,340.66 10.155,333.731L10.095,333.668L10.013,333.582L9.944,333.509L9.872,333.432L9.852,333.412L9.84,333.398L9.794,333.35L9.73,333.28L9.707,333.255L9.69,333.236L9.646,333.189L9.588,333.127L9.562,333.097L9.54,333.074L9.498,333.028L9.447,332.971L9.417,332.939L9.392,332.911L9.351,332.865L9.306,332.815L9.274,332.779L9.245,332.746L9.205,332.702L9.166,332.657L9.132,332.619L9.098,332.581L9.061,332.538L9.025,332.498L8.991,332.458L8.952,332.414L8.917,332.373L8.886,332.337L8.85,332.296L8.808,332.247L8.774,332.208L8.747,332.176L8.711,332.134L8.664,332.078L8.632,332.041L8.609,332.013L8.572,331.97L8.521,331.909L8.491,331.873L8.471,331.849L8.435,331.806L8.378,331.738L8.351,331.705L8.334,331.685L8.298,331.641L8.237,331.566L8.212,331.536L8.198,331.519L8.162,331.475L8.096,331.394L8.074,331.366L8.062,331.352L8.027,331.308L7.956,331.219L7.937,331.195L7.928,331.184L7.894,331.141L7.817,331.044L7.761,330.973L7.678,330.867L7.629,330.804L7.54,330.688L7.498,330.634L7.398,330.503C6.162,328.875 5.06,327.141 4.107,325.319L4.043,325.196L3.944,325.004L3.846,324.812L3.75,324.618L3.71,324.538L3.655,324.425L3.614,324.341L3.56,324.23L3.519,324.143L3.467,324.035L3.425,323.945L3.375,323.839L3.332,323.746L3.284,323.643L3.24,323.546L3.195,323.446L3.15,323.346L3.106,323.248L3.06,323.144L3.019,323.05L2.972,322.943L2.932,322.851L2.885,322.74L2.847,322.652L2.799,322.537L2.763,322.452L2.714,322.332L2.68,322.251L2.63,322.127L2.599,322.05L2.547,321.921L2.518,321.848L2.466,321.715L2.439,321.646L2.385,321.507L2.361,321.443L2.306,321.297L2.284,321.24L2.227,321.087L2.208,321.036L2.134,320.831L2.071,320.656C1.798,319.887 1.55,319.107 1.329,318.317L1.275,318.123L1.218,317.911L1.211,317.884L1.201,317.845L1.162,317.699L1.154,317.667L1.142,317.62L1.107,317.486L1.098,317.45L1.085,317.398L1.054,317.273L1.047,317.245L1.043,317.231L1.03,317.176L1.001,317.059L0.994,317.029L0.99,317.013L0.977,316.955L0.95,316.844L0.943,316.813L0.938,316.794L0.925,316.734L0.9,316.63L0.893,316.596L0.888,316.575L0.874,316.514L0.852,316.414L0.844,316.378L0.839,316.355L0.826,316.293L0.805,316.199L0.797,316.161L0.791,316.134L0.778,316.073L0.759,315.982L0.751,315.942L0.745,315.913L0.732,315.852L0.714,315.766L0.706,315.723L0.7,315.692L0.688,315.631L0.671,315.549L0.663,315.504L0.656,315.47L0.644,315.41L0.629,315.331L0.62,315.284L0.613,315.248L0.603,315.189L0.589,315.113L0.58,315.064L0.573,315.025L0.562,314.967L0.549,314.895L0.54,314.844L0.533,314.802L0.523,314.745L0.511,314.676L0.502,314.622L0.495,314.578L0.486,314.523L0.475,314.457L0.466,314.401L0.458,314.354L0.449,314.3L0.439,314.237L0.43,314.179L0.422,314.129L0.415,314.077L0.405,314.017L0.396,313.956L0.388,313.904L0.381,313.854L0.373,313.796L0.364,313.734L0.356,313.679L0.349,313.63L0.341,313.575L0.332,313.51L0.324,313.453L0.318,313.406L0.311,313.354L0.302,313.287L0.295,313.227L0.289,313.182L0.283,313.132L0.274,313.062L0.266,313L0.261,312.957L0.255,312.91L0.247,312.838L0.239,312.773L0.235,312.732L0.229,312.688L0.221,312.613L0.213,312.545L0.209,312.507L0.205,312.465L0.197,312.387L0.189,312.317L0.186,312.281L0.182,312.242L0.174,312.162L0.167,312.089L0.163,312.055L0.16,312.018L0.152,311.935L0.145,311.86L0.142,311.828L0.139,311.794L0.132,311.709L0.125,311.631L0.123,311.601L0.12,311.569L0.113,311.481L0.107,311.402L0.105,311.374L0.103,311.345L0.096,311.254L0.09,311.172L0.088,311.146L0.086,311.119L0.08,311.026L0.074,310.942L0.073,310.918L0.071,310.894L0.066,310.797L0.06,310.711L0.059,310.69L0.058,310.668L0.053,310.568L0.048,310.48L0.046,310.442L0.041,310.339L0.037,310.249L0.035,310.215L0.031,310.108L0.027,310.017L0.026,309.988L0.022,309.877L0.019,309.785L0.018,309.761L0.015,309.645L0.012,309.553L0.011,309.534L0.009,309.412L0.007,309.32L0.006,309.306L0.004,309.175L0.003,309.087L0.003,309.077L0.001,308.928L0.001,308.851C0,308.774 -0,308.697 -0,308.62L-0,262.01C-0,281.967 16.423,298.39 36.38,298.39L123.184,304.883L133.34,328.06L166.66,328.06L177.67,304.762Z" style="fill:#6c0b16;fill-rule:nonzero;"/>
            <path d="M7.417,330.527L7.398,330.503C6.162,328.875 5.06,327.141 4.107,325.319L3.56,324.23L3.106,323.248L2.68,322.251L2.361,321.443L2.071,320.656C1.798,319.887 1.55,319.107 1.329,318.317L1.03,317.176L0.732,315.852L0.458,314.354L0.255,312.91L0.12,311.569L0.046,310.442L0.006,309.306L-0,308.62L-0,262.01C-0,281.967 16.423,298.39 36.38,298.39L123.184,304.883L133.34,328.06L136.82,328.06L128.916,343.869C128.916,343.869 119.954,325.946 119.954,325.946C119.615,325.269 118.923,324.841 118.165,324.841C117.408,324.841 116.715,325.269 116.377,325.946L107.26,344.18C107.26,344.18 98.143,325.946 98.143,325.946C97.804,325.269 97.112,324.841 96.354,324.841C95.596,324.841 94.904,325.269 94.565,325.946L85.75,343.577C85.75,343.577 76.934,325.946 76.934,325.946C76.595,325.269 75.903,324.841 75.145,324.841C74.388,324.841 73.695,325.269 73.357,325.946L64.395,343.869C64.395,343.869 55.433,325.946 55.433,325.946C55.095,325.269 54.402,324.841 53.645,324.841C52.887,324.841 52.195,325.269 51.856,325.946L43.174,343.309C43.174,343.309 34.493,325.946 34.493,325.946C34.154,325.269 33.462,324.841 32.704,324.841C31.947,324.841 31.254,325.269 30.916,325.946L22.732,342.313C22.186,342.089 21.646,341.852 21.113,341.602L13.285,325.946C12.946,325.269 12.253,324.841 11.496,324.841C10.738,324.841 10.046,325.269 9.707,325.946L7.417,330.527ZM163.721,328.06L166.66,328.06L177.67,304.762L263.62,298.39C283.577,298.39 300,281.967 300,262.01L300,308.62L299.981,309.785L299.91,311.172L299.787,312.545L299.595,314.017L299.371,315.331L299.148,316.414L298.893,317.486L298.671,318.317C298.45,319.108 298.202,319.887 297.929,320.656L297.534,321.715L297.115,322.74L296.625,323.839L296.154,324.812L295.893,325.319C295.118,326.802 294.243,328.226 293.278,329.583L291.46,325.946C291.121,325.269 290.429,324.841 289.671,324.841C288.913,324.841 288.221,325.269 287.882,325.946L280.441,340.829C279.717,341.211 278.979,341.569 278.229,341.902L270.251,325.946C269.912,325.269 269.22,324.841 268.462,324.841C267.705,324.841 267.012,325.269 266.674,325.946L257.712,343.869C257.712,343.869 248.75,325.946 248.75,325.946C248.412,325.269 247.719,324.841 246.962,324.841C246.204,324.841 245.512,325.269 245.173,325.946L236.065,344.162C236.065,344.162 226.957,325.946 226.957,325.946C226.619,325.269 225.926,324.841 225.169,324.841C224.411,324.841 223.718,325.269 223.38,325.946L214.564,343.577C214.564,343.577 205.749,325.946 205.749,325.946C205.41,325.269 204.717,324.841 203.96,324.841C203.202,324.841 202.51,325.269 202.171,325.946L193.21,343.869C193.21,343.869 184.248,325.946 184.248,325.946C183.909,325.269 183.217,324.841 182.459,324.841C181.702,324.841 181.009,325.269 180.67,325.946L171.667,343.953L163.721,328.06ZM150.271,343.577L142.512,328.06L158.029,328.06L150.271,343.577Z" style="fill:#a10013;fill-rule:nonzero;"/>
            <path d="M-0,307.613L-0,262.01C-0,281.967 16.423,298.39 36.38,298.39L122.064,303.002L124.809,307.613L-0,307.613ZM300,307.613L175.191,307.613L177.636,303.505L263.62,298.39C283.577,298.39 300,281.967 300,262.01L300,307.613Z" style="fill:#6c0b16;fill-rule:nonzero;"/>
            <path d="M-0,306.621L1,306.613L123.05,306.613C123.05,306.613 121.478,303.972 121.478,303.972L112.815,303.505L123.528,303.505L125.669,307.102C125.853,307.411 125.857,307.795 125.679,308.107C125.501,308.42 125.169,308.613 124.809,308.613L-0,308.613C-0,308.613 -0,306.621 -0,306.621ZM300,308.613C300,308.613 175.191,308.613 175.191,308.613C174.831,308.613 174.499,308.42 174.321,308.107C174.143,307.795 174.147,307.411 174.331,307.102L176.472,303.505L194.475,303.505L178.224,304.472C178.224,304.472 176.95,306.613 176.95,306.613L299,306.613L300,306.614L300,308.613Z" style="fill:#a10013;"/>
        </g>
        <g>
            <g transform="matrix(1,0,0,1,0,9.22324)">
                <g transform="matrix(0.820818,0.268288,-0.376086,1.15062,138.547,-81.9141)">
                    <path d="M166.298,304.126C166.298,303.071 165.097,302.214 163.618,302.214L136.08,302.214C134.601,302.214 133.4,303.071 133.4,304.126C133.4,305.181 134.601,306.037 136.08,306.037L163.618,306.037C165.097,306.037 166.298,305.181 166.298,304.126Z" style="fill:#dadada;"/>
                </g>
                <g transform="matrix(-0.820818,0.268288,0.376086,1.15062,161.453,-81.9141)">
                    <path d="M166.298,304.126C166.298,303.071 165.097,302.214 163.618,302.214L136.08,302.214C134.601,302.214 133.4,303.071 133.4,304.126C133.4,305.181 134.601,306.037 136.08,306.037L163.618,306.037C165.097,306.037 166.298,305.181 166.298,304.126Z" style="fill:#c4c4c4;"/>
                </g>
            </g>
            <g transform="matrix(1,0,0,1,0,9.22324)">
                <path d="M141.665,323.945C135.244,324.087 131.063,322.61 129.433,319.292L116.377,297.652L136.555,297.652L150,314.255L162.653,297.864L182.831,297.864L170.567,319.292C168.937,322.61 164.756,324.087 158.335,323.945L141.665,323.945ZM141.389,309.205C142.877,309.205 144.085,310.413 144.085,311.9C144.085,313.388 142.877,314.596 141.389,314.596C139.901,314.596 138.693,313.388 138.693,311.9C138.693,310.413 139.901,309.205 141.389,309.205ZM158.611,309.205C157.123,309.205 155.915,310.413 155.915,311.9C155.915,313.388 157.123,314.596 158.611,314.596C160.099,314.596 161.307,313.388 161.307,311.9C161.307,310.413 160.099,309.205 158.611,309.205ZM135.456,301.821C136.944,301.821 138.152,303.029 138.152,304.517C138.152,306.005 136.944,307.213 135.456,307.213C133.969,307.213 132.761,306.005 132.761,304.517C132.761,303.029 133.969,301.821 135.456,301.821ZM164.544,301.821C163.056,301.821 161.848,303.029 161.848,304.517C161.848,306.005 163.056,307.213 164.544,307.213C166.031,307.213 167.239,306.005 167.239,304.517C167.239,303.029 166.031,301.821 164.544,301.821Z" style="fill:#7d1521;"/>
            </g>
            <g transform="matrix(1,0,0,1,0,9.22324)">
                <g transform="matrix(-0.655613,1.42482e-16,4.21444e-17,1.0357,248.243,-2.73117)">
                    <path d="M166.298,304.126C166.298,303.071 164.944,302.214 163.278,302.214L136.42,302.214C134.753,302.214 133.4,303.071 133.4,304.126C133.4,305.181 134.753,306.037 136.42,306.037L163.278,306.037C164.944,306.037 166.298,305.181 166.298,304.126Z" style="fill:#fff;"/>
                </g>
                <g transform="matrix(0.99846,-0.0554755,0.0554755,0.99846,-13.3075,-3.72186)">
                    <path d="M132.437,338.723C132.437,338.341 132.127,338.032 131.746,338.032C131.364,338.032 131.054,338.341 131.054,338.723L131.054,342.911C131.054,343.292 131.364,343.602 131.746,343.602C132.127,343.602 132.437,343.292 132.437,342.911L132.437,338.723Z" style="fill:#919191;"/>
                </g>
                <g transform="matrix(0.96583,0.259176,-0.259176,0.96583,124.052,-34.5551)">
                    <path d="M132.437,338.723C132.437,338.341 132.127,338.032 131.746,338.032C131.364,338.032 131.054,338.341 131.054,338.723L131.054,342.911C131.054,343.292 131.364,343.602 131.746,343.602C132.127,343.602 132.437,343.292 132.437,342.911L132.437,338.723Z" style="fill:#919191;"/>
                </g>
                <path d="M134.464,302.638C133.245,303.319 132.01,304.191 131.08,305.242C128.039,308.677 128.017,314.163 130.262,318.019C131.01,319.304 131.925,320.471 132.759,321.661C133.67,322.963 134.521,324.277 134.511,326.033C134.503,327.358 135.571,328.44 136.896,328.448C138.221,328.456 139.302,327.387 139.311,326.062C139.325,323.643 138.491,321.68 137.325,319.852C136.419,318.432 135.286,317.109 134.41,315.604C133.15,313.44 132.967,310.351 134.674,308.423C135.254,307.768 136.046,307.252 136.806,306.828C137.962,306.181 138.376,304.718 137.73,303.562C137.083,302.405 135.62,301.991 134.464,302.638Z" style="fill:#fff;"/>
                <g transform="matrix(1,0,0,1,0.14393,-0.00788745)">
                    <path d="M163.113,306.84C164.684,307.71 165.399,309.246 165.634,310.898C165.916,312.882 165.532,315.047 164.828,316.825C164.397,317.913 163.691,318.882 163.161,319.923C162.331,321.554 161.74,323.256 161.419,325.057C161.187,326.361 162.058,327.608 163.362,327.84C164.666,328.072 165.913,327.201 166.145,325.897C166.382,324.565 166.825,323.307 167.439,322.101C168.036,320.927 168.805,319.82 169.29,318.593C171.392,313.288 171.065,305.755 165.437,302.641C164.278,301.999 162.816,302.42 162.175,303.579C161.533,304.738 161.954,306.199 163.113,306.84Z" style="fill:#fff;"/>
                </g>
            </g>
            <path d="M263.187,298.39C256.966,299.619 203.136,306.875 182.425,307.613L162.237,307.613C159.562,304.063 164.083,299.002 168.895,298.39L263.187,298.39Z" style="fill:#fff;"/>
            <g transform="matrix(-1,0,0,1,299.389,0)">
                <path d="M263.187,298.39C256.966,299.619 203.136,306.875 182.425,307.613L162.237,307.613C159.562,304.063 164.083,299.002 168.895,298.39L263.187,298.39Z" style="fill:#fff;"/>
            </g>
        </g>
    </g>
</svg>
