<?xml version="1.0" encoding="UTF-8" standalone="no"?>
<!DOCTYPE svg PUBLIC "-//W3C//DTD SVG 1.1//EN" "http://www.w3.org/Graphics/SVG/1.1/DTD/svg11.dtd">
<svg width="100%" height="100%" viewBox="0 0 300 345" version="1.1" xmlns="http://www.w3.org/2000/svg" xmlns:xlink="http://www.w3.org/1999/xlink" xml:space="preserve" xmlns:serif="http://www.serif.com/" style="fill-rule:evenodd;clip-rule:evenodd;stroke-linejoin:round;stroke-miterlimit:2;">
    <g id="avatar_clothing_56">
        <path d="M-0,262.01C-0,281.967 16.423,298.39 36.38,298.39L120.879,298.39L125.294,312.187L125.294,345L36.38,345C16.423,345 -0,328.577 -0,308.62L-0,262.01Z" style="fill:#c5f5ff;fill-rule:nonzero;"/>
        <path d="M4,286.016C2.078,283.449 0.831,280.732 -0,277.923L-0,262.01C-0,281.967 16.423,298.39 36.38,298.39L120.879,298.39L125.294,312.187L125.294,345L121.263,345L121.294,341C121.294,341 121.294,312.811 121.294,312.811C121.294,312.811 117.96,302.39 117.96,302.39L36.38,302.39C23.189,302.39 11.389,295.926 4,286.016Z" style="fill:#e9fbff;"/>
        <path d="M95.274,312.18L125.292,312.18L125.294,312.187L174.706,312.187L179.121,298.39L263.62,298.39C283.577,298.39 300,281.967 300,262.01L300,308.62C300,328.577 283.577,345 263.62,345L95.274,345L95.274,312.18Z" style="fill:#d7f8ff;fill-rule:nonzero;"/>
        <path d="M300,277.262C299.293,280.258 297.898,283.168 296,286.016C288.611,295.926 276.811,302.39 263.62,302.39C263.62,302.39 182.04,302.39 182.04,302.39L177.625,316.187C177.625,316.187 125.294,316.187 125.294,316.187L125.285,316.18L99.274,316.18L99.274,341L99.402,341L99.402,345L95.274,345L95.274,312.18L125.292,312.18L125.294,312.187L174.706,312.187L179.121,298.39L263.62,298.39C283.577,298.39 300,281.967 300,262.01L300,277.262Z" style="fill:#e9fbff;"/>
        <path d="M124.019,308.187L125.294,312.187L125.292,312.18L95.274,312.18L95.274,345L91.274,345L91.274,308.18L124.016,308.18L124.019,308.187Z" style="fill:#97edff;fill-opacity:0.4;"/>
        <g transform="matrix(1.76116,0,0,1.76116,-146.824,-213.907)">
            <g transform="matrix(1,0,0,1,-0.716108,0.0832963)">
                <circle cx="150.259" cy="309.592" r="4.969" style="fill:#3a3a3a;"/>
            </g>
            <g transform="matrix(1,0,0,1,-0.716108,0.0832963)">
                <path d="M150.259,304.056C147.203,304.056 144.723,306.536 144.723,309.592C144.723,312.648 147.203,315.128 150.259,315.128C153.315,315.128 155.795,312.648 155.795,309.592C155.795,306.536 153.315,304.056 150.259,304.056ZM150.259,305.191C152.688,305.191 154.66,307.163 154.66,309.592C154.66,312.021 152.688,313.993 150.259,313.993C147.83,313.993 145.858,312.021 145.858,309.592C145.858,307.163 147.83,305.191 150.259,305.191Z" style="fill:#1b1b1b;"/>
            </g>
            <path d="M150.948,310.137C150.427,310.137 150.003,310.561 150.003,311.083C150.003,311.604 150.427,312.028 150.948,312.028C151.47,312.028 151.894,311.604 151.894,311.083C151.894,310.561 151.47,310.137 150.948,310.137ZM148.202,310.137C147.68,310.137 147.257,310.561 147.257,311.083C147.257,311.604 147.68,312.028 148.202,312.028C148.724,312.028 149.147,311.604 149.147,311.083C149.147,310.561 148.724,310.137 148.202,310.137ZM150.948,310.637C151.194,310.637 151.394,310.837 151.394,311.083C151.394,311.328 151.194,311.528 150.948,311.528C150.703,311.528 150.503,311.328 150.503,311.083C150.503,310.837 150.703,310.637 150.948,310.637ZM148.202,310.637C148.448,310.637 148.647,310.837 148.647,311.083C148.647,311.328 148.448,311.528 148.202,311.528C147.956,311.528 147.757,311.328 147.757,311.083C147.757,310.837 147.956,310.637 148.202,310.637ZM148.202,307.323C147.68,307.323 147.257,307.746 147.257,308.268C147.257,308.79 147.68,309.213 148.202,309.213C148.724,309.213 149.147,308.79 149.147,308.268C149.147,307.746 148.724,307.323 148.202,307.323ZM150.948,307.323C150.427,307.323 150.003,307.746 150.003,308.268C150.003,308.79 150.427,309.213 150.948,309.213C151.47,309.213 151.894,308.79 151.894,308.268C151.894,307.746 151.47,307.323 150.948,307.323ZM148.202,307.823C148.448,307.823 148.647,308.022 148.647,308.268C148.647,308.514 148.448,308.713 148.202,308.713C147.956,308.713 147.757,308.514 147.757,308.268C147.757,308.022 147.956,307.823 148.202,307.823ZM150.948,307.823C151.194,307.823 151.394,308.022 151.394,308.268C151.394,308.514 151.194,308.713 150.948,308.713C150.703,308.713 150.503,308.514 150.503,308.268C150.503,308.022 150.703,307.823 150.948,307.823Z" style="fill:#1b1b1b;"/>
            <path d="M147.996,308.622L150.495,311.218C150.648,311.377 150.901,311.382 151.06,311.228C151.219,311.075 151.224,310.822 151.071,310.663L148.572,308.067C148.419,307.908 148.165,307.904 148.006,308.057C147.847,308.21 147.842,308.463 147.996,308.622Z" style="fill:#d7f8ff;"/>
            <g transform="matrix(-1,0,0,1,299.067,0)">
                <path d="M147.996,308.622L150.495,311.218C150.648,311.377 150.901,311.382 151.06,311.228C151.219,311.075 151.224,310.822 151.071,310.663L148.572,308.067C148.419,307.908 148.165,307.904 148.006,308.057C147.847,308.21 147.842,308.463 147.996,308.622Z" style="fill:#d7f8ff;"/>
            </g>
        </g>
        <g transform="matrix(1.76116,0,0,1.76116,-71.639,-213.907)">
            <g transform="matrix(1,0,0,1,-0.716108,0.0832963)">
                <circle cx="150.259" cy="309.592" r="4.969" style="fill:#3a3a3a;"/>
            </g>
            <g transform="matrix(1,0,0,1,-0.716108,0.0832963)">
                <path d="M150.259,304.056C147.203,304.056 144.723,306.536 144.723,309.592C144.723,312.648 147.203,315.128 150.259,315.128C153.315,315.128 155.795,312.648 155.795,309.592C155.795,306.536 153.315,304.056 150.259,304.056ZM150.259,305.191C152.688,305.191 154.66,307.163 154.66,309.592C154.66,312.021 152.688,313.993 150.259,313.993C147.83,313.993 145.858,312.021 145.858,309.592C145.858,307.163 147.83,305.191 150.259,305.191Z" style="fill:#1b1b1b;"/>
            </g>
            <path d="M150.948,310.137C150.427,310.137 150.003,310.561 150.003,311.083C150.003,311.604 150.427,312.028 150.948,312.028C151.47,312.028 151.894,311.604 151.894,311.083C151.894,310.561 151.47,310.137 150.948,310.137ZM148.202,310.137C147.68,310.137 147.257,310.561 147.257,311.083C147.257,311.604 147.68,312.028 148.202,312.028C148.724,312.028 149.147,311.604 149.147,311.083C149.147,310.561 148.724,310.137 148.202,310.137ZM150.948,310.637C151.194,310.637 151.394,310.837 151.394,311.083C151.394,311.328 151.194,311.528 150.948,311.528C150.703,311.528 150.503,311.328 150.503,311.083C150.503,310.837 150.703,310.637 150.948,310.637ZM148.202,310.637C148.448,310.637 148.647,310.837 148.647,311.083C148.647,311.328 148.448,311.528 148.202,311.528C147.956,311.528 147.757,311.328 147.757,311.083C147.757,310.837 147.956,310.637 148.202,310.637ZM148.202,307.323C147.68,307.323 147.257,307.746 147.257,308.268C147.257,308.79 147.68,309.213 148.202,309.213C148.724,309.213 149.147,308.79 149.147,308.268C149.147,307.746 148.724,307.323 148.202,307.323ZM150.948,307.323C150.427,307.323 150.003,307.746 150.003,308.268C150.003,308.79 150.427,309.213 150.948,309.213C151.47,309.213 151.894,308.79 151.894,308.268C151.894,307.746 151.47,307.323 150.948,307.323ZM148.202,307.823C148.448,307.823 148.647,308.022 148.647,308.268C148.647,308.514 148.448,308.713 148.202,308.713C147.956,308.713 147.757,308.514 147.757,308.268C147.757,308.022 147.956,307.823 148.202,307.823ZM150.948,307.823C151.194,307.823 151.394,308.022 151.394,308.268C151.394,308.514 151.194,308.713 150.948,308.713C150.703,308.713 150.503,308.514 150.503,308.268C150.503,308.022 150.703,307.823 150.948,307.823Z" style="fill:#1b1b1b;"/>
            <path d="M147.996,308.622L150.495,311.218C150.648,311.377 150.901,311.382 151.06,311.228C151.219,311.075 151.224,310.822 151.071,310.663L148.572,308.067C148.419,307.908 148.165,307.904 148.006,308.057C147.847,308.21 147.842,308.463 147.996,308.622Z" style="fill:#d7f8ff;"/>
            <g transform="matrix(-1,0,0,1,299.067,0)">
                <path d="M147.996,308.622L150.495,311.218C150.648,311.377 150.901,311.382 151.06,311.228C151.219,311.075 151.224,310.822 151.071,310.663L148.572,308.067C148.419,307.908 148.165,307.904 148.006,308.057C147.847,308.21 147.842,308.463 147.996,308.622Z" style="fill:#d7f8ff;"/>
            </g>
        </g>
    </g>
</svg>
