<?xml version="1.0" encoding="UTF-8" standalone="no"?>
<!DOCTYPE svg PUBLIC "-//W3C//DTD SVG 1.1//EN" "http://www.w3.org/Graphics/SVG/1.1/DTD/svg11.dtd">
<svg width="100%" height="100%" viewBox="0 0 300 345" version="1.1" xmlns="http://www.w3.org/2000/svg" xmlns:xlink="http://www.w3.org/1999/xlink" xml:space="preserve" xmlns:serif="http://www.serif.com/" style="fill-rule:evenodd;clip-rule:evenodd;stroke-linejoin:round;stroke-miterlimit:2;">
    <g id="avatar_clothing_58">
        <path d="M36.38,345L263.62,345C283.577,345 300,328.577 300,308.62L300,271.978L287.172,300.047L13.03,300.047L-0,273.637L-0,308.62C-0,328.577 16.423,345 36.38,345Z" style="fill:#fd2b14;fill-rule:nonzero;"/>
        <path d="M21.892,295.346L21.892,341.956C26.34,343.912 31.243,345 36.38,345L59.751,345L59.751,298.39L36.38,298.39C31.243,298.39 26.34,297.302 21.892,295.346ZM132.066,345L94.208,345L94.208,298.39L132.066,298.39L132.066,345ZM205.793,345L167.934,345L167.934,298.39L205.793,298.39L205.793,345ZM278.814,295.026C274.181,297.183 269.03,298.39 263.62,298.39L240.955,298.39L240.955,345L263.62,345C269.03,345 274.181,343.793 278.814,341.636L278.814,295.026Z" style="fill:#fffcfc;"/>
        <path d="M-0,308.62L-0,264.01C-0,275.859 5.789,286.462 14.671,293.123L15.449,293.691C15.819,293.953 16.194,294.209 16.574,294.458L17.267,294.901C17.594,295.105 17.924,295.304 18.258,295.498L19.16,296.005L20.032,296.464L20.951,296.916L21.833,297.32L22.781,297.723L22.957,297.794L23.877,298.149L24.823,298.485C25.266,298.636 25.713,298.777 26.163,298.911C26.674,299.062 27.19,299.203 27.709,299.332L28.516,299.522L29.287,299.686L30.121,299.843L30.912,299.974L31.728,300.089L32.571,300.189L33.348,300.263L34.211,300.325L35.006,300.364L35.861,300.386L36.38,300.39L263.62,300.39L264.498,300.379L265.351,300.349L266.141,300.302L266.997,300.232L267.764,300.152L268.612,300.044L269.41,299.923L270.201,299.785L271.005,299.626L271.516,299.515L272.45,299.292C272.916,299.174 273.378,299.047 273.837,298.911C274.282,298.779 274.724,298.639 275.162,298.49L276.182,298.128L277.279,297.698L278.345,297.241L279.382,296.756L280.325,296.28L281.423,295.681L282.236,295.206L283.106,294.665L283.599,294.344L284.4,293.797L285.201,293.218L285.329,293.123C294.211,286.462 300,275.859 300,264.01L300,284.745C300,286.168 299.917,287.484 299.754,288.698L300,288.622L295.562,315.692C296.864,315.907 298.049,316.626 298.836,317.705C298.106,320.502 297.048,323.174 295.706,325.673C293.2,326.161 290.674,324.692 289.899,322.199C289.311,320.305 289.891,318.325 291.231,317.037L278.201,303.458C275.924,303.581 273.527,303.622 271.04,303.633L264.824,325.003C266.865,325.598 268.502,327.298 268.909,329.53C269.484,332.678 267.395,335.701 264.247,336.276C261.098,336.851 258.075,334.761 257.5,331.613C257.093,329.381 258.024,327.213 259.722,325.935L242.964,303.627L238.585,303.627L224.98,330.837C227.041,331.871 228.458,334.004 228.458,336.465C228.458,339.938 225.638,342.757 222.166,342.757C218.693,342.757 215.874,339.938 215.874,336.465C215.874,334.004 217.29,331.871 219.352,330.837L205.746,303.627L202.51,303.627L188.904,330.837C190.966,331.871 192.382,334.004 192.382,336.465C192.382,339.938 189.563,342.757 186.09,342.757C182.618,342.757 179.799,339.938 179.799,336.465C179.799,334.004 181.215,331.871 183.276,330.837L169.671,303.627L166.404,303.627L152.799,330.837C154.86,331.871 156.277,334.004 156.277,336.465C156.277,339.938 153.458,342.757 149.985,342.757C146.512,342.757 143.693,339.938 143.693,336.465C143.693,334.004 145.11,331.871 147.171,330.837L133.566,303.627L130.329,303.627L116.724,330.837C118.785,331.871 120.201,334.004 120.201,336.465C120.201,339.938 117.382,342.757 113.91,342.757C110.437,342.757 107.618,339.938 107.618,336.465C107.618,334.004 109.034,331.871 111.096,330.837L97.49,303.627L94.254,303.627L80.648,330.837C82.71,331.871 84.126,334.004 84.126,336.465C84.126,339.938 81.307,342.757 77.834,342.757C74.362,342.757 71.542,339.938 71.542,336.465C71.542,334.004 72.959,331.871 75.02,330.837L61.415,303.627L57.036,303.627L40.278,325.935C41.976,327.213 42.907,329.381 42.5,331.613C41.925,334.761 38.902,336.851 35.753,336.276C32.605,335.701 30.516,332.678 31.091,329.53C31.498,327.298 33.135,325.598 35.176,325.003L28.96,303.633C26.473,303.622 24.076,303.581 21.799,303.458L8.769,317.037C10.109,318.325 10.689,320.305 10.101,322.199C9.326,324.692 6.8,326.161 4.294,325.673C2.952,323.173 1.894,320.503 1.164,317.705C1.951,316.626 3.136,315.907 4.438,315.692L0,288.622L0.246,288.698C0.083,287.484 -0,286.168 -0,284.745L-0,308.62L-0,308.62Z" style="fill:#452926;fill-opacity:0.5;fill-rule:nonzero;"/>
        <path d="M272.45,297.292C272.916,297.174 273.378,297.047 273.837,296.911C274.282,296.779 274.724,296.639 275.162,296.49L275.189,296.481L275.342,296.429L275.39,296.412L275.531,296.363L275.589,296.342L275.724,296.295L275.788,296.272L275.919,296.224L275.986,296.2L276.114,296.153L276.182,296.128L276.31,296.079L276.372,296.056L276.506,296.005C276.568,295.981 276.631,295.957 276.693,295.933L276.812,295.886L276.886,295.857L276.993,295.814L277.083,295.778L277.185,295.736L277.279,295.698L277.378,295.657L277.476,295.617L277.572,295.576L277.672,295.534L277.766,295.494L277.868,295.45L277.959,295.411L278.066,295.364L278.152,295.326L278.267,295.275L278.345,295.241L278.493,295.174L278.537,295.154L278.726,295.067L278.792,295.036L278.918,294.978L278.995,294.941L279.108,294.888L279.19,294.849L279.299,294.796L279.382,294.756L279.489,294.704L279.573,294.662L279.679,294.61L279.762,294.568L279.869,294.514L279.951,294.473L280.061,294.417L280.138,294.377L280.26,294.314L280.325,294.28L280.507,294.184L280.575,294.148L280.692,294.085L280.776,294.04L280.876,293.986L280.966,293.937L281.06,293.885L281.152,293.834L281.242,293.783L281.336,293.73L281.423,293.681L281.519,293.626L281.603,293.578L281.702,293.522L281.781,293.475L281.883,293.416L281.954,293.374L282.064,293.309L282.236,293.206L282.407,293.103L282.533,293.025L282.584,292.994L282.703,292.92L282.759,292.885L282.876,292.811L282.934,292.775L283.051,292.701L283.106,292.665L283.225,292.589L283.276,292.556L283.4,292.475L283.442,292.447L283.574,292.361L283.599,292.344C283.865,292.167 284.13,291.987 284.392,291.803L284.4,291.797L284.546,291.694L284.567,291.679L284.707,291.579L284.732,291.561L284.871,291.461L284.894,291.444L285.036,291.34L285.052,291.328L285.201,291.218L285.329,291.123C294.211,284.462 300,273.859 300,262.01L300,282.745C300,284.168 299.917,285.484 299.754,286.698L300,286.622L294.741,318.695L278.201,301.458C275.924,301.581 273.527,301.622 271.04,301.633L263.205,328.571L242.964,301.627L238.585,301.627L222.166,334.465L205.746,301.627L202.51,301.627L186.09,334.465L169.671,301.627L166.404,301.627L149.985,334.465L133.566,301.627L130.329,301.627L113.91,334.465L97.49,301.627L94.254,301.627L77.834,334.465L61.415,301.627L57.036,301.627L36.795,328.571L28.96,301.633C26.473,301.622 24.076,301.581 21.799,301.458L5.259,318.695L0,286.622L0.246,286.698C0.083,285.484 -0,284.168 -0,282.745L-0,308.62L-0,262.01C-0,273.859 5.789,284.462 14.671,291.123L14.799,291.218L14.949,291.329L14.963,291.34L15.107,291.445L15.128,291.46L15.27,291.563L15.29,291.577L15.436,291.681L15.449,291.691C15.819,291.953 16.194,292.209 16.574,292.458L16.592,292.47L16.738,292.565L16.764,292.582L16.906,292.673L16.935,292.692L17.078,292.782L17.104,292.799L17.251,292.891L17.267,292.901C17.594,293.105 17.924,293.304 18.258,293.498L18.283,293.513L18.426,293.595L18.462,293.616L18.601,293.695L18.641,293.718L18.778,293.795L18.819,293.817L18.958,293.895L18.994,293.914L19.139,293.994L19.16,294.005C19.438,294.156 19.717,294.304 19.999,294.447L20.032,294.464L20.172,294.535L20.218,294.558L20.352,294.625L20.403,294.65L20.536,294.716L20.588,294.741L20.722,294.806L20.772,294.83L20.909,294.896L20.951,294.916L21.098,294.985L21.114,294.993C21.342,295.099 21.571,295.204 21.801,295.306L21.833,295.32L21.976,295.382L22.024,295.404L22.161,295.463L22.216,295.486L22.35,295.543L22.406,295.567L22.542,295.624L22.596,295.646L22.735,295.704L22.781,295.723L22.929,295.783L22.957,295.794C23.251,295.912 23.548,296.027 23.846,296.138L23.877,296.149L24.032,296.206L24.072,296.221L24.224,296.276L24.266,296.291L24.419,296.345L24.459,296.359L24.617,296.414L24.647,296.425L24.815,296.483L24.823,296.485C25.266,296.636 25.713,296.777 26.163,296.911C26.674,297.062 27.19,297.203 27.709,297.332L27.971,297.396C28.058,297.416 28.145,297.437 28.233,297.458L28.484,297.515L28.516,297.522L28.735,297.571L28.782,297.581L28.995,297.626L29.036,297.635L29.287,297.686L29.551,297.738L29.799,297.785L29.858,297.796L30.05,297.831L30.121,297.843L30.308,297.876L30.376,297.887L30.59,297.923L30.627,297.929L30.885,297.97L30.912,297.974L31.135,298.007L31.209,298.018L31.388,298.044L31.472,298.055L31.646,298.079L31.728,298.089L31.921,298.114L31.981,298.122L32.236,298.152L32.272,298.156L32.489,298.18L32.571,298.189L32.744,298.207L32.835,298.216L33.003,298.232L33.093,298.24L33.276,298.257L33.348,298.263L33.604,298.283L33.636,298.286L33.859,298.302L33.944,298.308L34.116,298.319L34.211,298.325L34.377,298.334L34.471,298.34L34.649,298.349L34.728,298.352L34.985,298.363L35.006,298.364L35.243,298.372L35.327,298.375L35.502,298.379L35.598,298.381L35.765,298.385L35.861,298.386L36.038,298.388L36.121,298.389L36.38,298.39L263.62,298.39L263.879,298.389L263.962,298.388L264.139,298.386L264.235,298.385L264.402,298.381L264.498,298.379L264.673,298.375L264.757,298.372L264.994,298.364L265.015,298.363L265.272,298.352L265.351,298.349L265.529,298.34L265.623,298.334L265.789,298.325L265.884,298.319L266.056,298.308L266.141,298.302L266.364,298.286L266.396,298.283L266.652,298.263L266.724,298.257L266.907,298.24L266.997,298.232L267.165,298.216L267.256,298.207L267.429,298.189L267.511,298.18L267.728,298.156L267.764,298.152L268.019,298.122L268.079,298.114L268.272,298.089L268.354,298.079L268.528,298.055L268.612,298.044L268.791,298.018L268.865,298.007L269.088,297.974L269.115,297.97L269.373,297.929L269.41,297.923L269.624,297.887L269.692,297.876L269.879,297.843L269.95,297.831L270.142,297.796L270.201,297.785L270.449,297.738L270.713,297.686L270.964,297.635L271.005,297.626L271.218,297.581L271.265,297.571L271.484,297.522L271.516,297.515C271.775,297.457 272.033,297.396 272.291,297.332L272.45,297.292Z" style="fill:#7946c6;fill-rule:nonzero;"/>
        <path d="M113.91,328.174C117.382,328.174 120.201,330.993 120.201,334.465C120.201,337.938 117.382,340.757 113.91,340.757C110.437,340.757 107.618,337.938 107.618,334.465C107.618,330.993 110.437,328.174 113.91,328.174ZM186.09,328.174C182.618,328.174 179.799,330.993 179.799,334.465C179.799,337.938 182.618,340.757 186.09,340.757C189.563,340.757 192.382,337.938 192.382,334.465C192.382,330.993 189.563,328.174 186.09,328.174ZM262.163,322.867C259.015,323.442 256.925,326.465 257.5,329.613C258.075,332.761 261.098,334.851 264.247,334.276C267.395,333.701 269.484,330.678 268.909,327.53C268.334,324.381 265.312,322.292 262.163,322.867ZM37.837,322.867C40.985,323.442 43.075,326.465 42.5,329.613C41.925,332.761 38.902,334.851 35.753,334.276C32.605,333.701 30.516,330.678 31.091,327.53C31.666,324.381 34.688,322.292 37.837,322.867Z" style="fill:#ffde00;"/>
        <path d="M149.985,328.174C153.458,328.174 156.277,330.993 156.277,334.465C156.277,337.938 153.458,340.757 149.985,340.757C146.512,340.757 143.693,337.938 143.693,334.465C143.693,330.993 146.512,328.174 149.985,328.174ZM77.834,328.174C81.307,328.174 84.126,330.993 84.126,334.465C84.126,337.938 81.307,340.757 77.834,340.757C74.362,340.757 71.542,337.938 71.542,334.465C71.542,330.993 74.362,328.174 77.834,328.174ZM222.166,328.174C218.693,328.174 215.874,330.993 215.874,334.465C215.874,337.938 218.693,340.757 222.166,340.757C225.638,340.757 228.458,337.938 228.458,334.465C228.458,330.993 225.638,328.174 222.166,328.174ZM293.238,313.853C290.565,314.683 289.069,317.527 289.899,320.199C290.729,322.871 293.573,324.367 296.245,323.537C298.918,322.707 300.413,319.864 299.583,317.191C298.753,314.519 295.91,313.023 293.238,313.853ZM6.762,313.853C9.435,314.683 10.931,317.527 10.101,320.199C9.271,322.871 6.427,324.367 3.755,323.537C1.082,322.707 -0.413,319.864 0.417,317.191C1.247,314.519 4.09,313.023 6.762,313.853Z" style="fill:#00adaf;"/>
    </g>
</svg>
