<?xml version="1.0" encoding="UTF-8" standalone="no"?>
<!DOCTYPE svg PUBLIC "-//W3C//DTD SVG 1.1//EN" "http://www.w3.org/Graphics/SVG/1.1/DTD/svg11.dtd">
<svg width="100%" height="100%" viewBox="0 0 300 345" version="1.1" xmlns="http://www.w3.org/2000/svg" xmlns:xlink="http://www.w3.org/1999/xlink" xml:space="preserve" xmlns:serif="http://www.serif.com/" style="fill-rule:evenodd;clip-rule:evenodd;stroke-linejoin:round;stroke-miterlimit:2;">
    <g id="avatar_clothing_17">
        <path d="M95.599,298.38L113.284,298.38C113.757,311.848 186.243,311.848 186.716,298.38L202.579,298.38L202.579,345L95.599,345L95.599,298.38Z" style="fill:url(#_Linear1);fill-rule:nonzero;"/>
        <path d="M104.665,298.38L113.284,298.38C113.757,311.848 186.243,311.848 186.716,298.38L195.265,298.38C194.824,301.188 194.16,304.08 191.692,306.805C190.258,308.388 188.347,309.842 185.9,311.066C178.523,314.758 164.285,316.907 150,316.907C135.714,316.907 121.477,314.758 114.1,311.066C111.653,309.842 109.742,308.388 108.308,306.806C106.168,304.442 104.595,301.251 104.665,298.38Z" style="fill:#fff;"/>
        <path d="M198.909,298.38L263.62,298.38C283.577,298.38 300,281.957 300,262L300,308.62C300,328.577 283.577,345 263.62,345L36.38,345C16.423,345 -0,328.577 -0,308.62L0,262L-0,262.01C-0,281.962 16.418,298.38 36.37,298.38L101.091,298.38L101.091,345L198.909,345L198.909,298.38Z" style="fill:#2d2d2d;fill-rule:nonzero;"/>
        <g transform="matrix(-1,0,0,1,300,0.128014)">
            <g transform="matrix(0.809186,0,0,0.927936,-12.4456,22.5511)">
                <path d="M93.18,335.31C91.26,335.31 89.68,333.73 89.68,331.81L89.68,307.3C89.68,305.38 91.26,303.8 93.18,303.8C95.1,303.8 96.68,305.38 96.68,307.3L96.68,331.81C96.68,333.73 95.1,335.31 93.18,335.31Z" style="fill:#d9e5f4;fill-rule:nonzero;"/>
            </g>
            <g transform="matrix(0.809186,0,0,0.809186,-12.4456,62.3692)">
                <path d="M96.68,325.52C96.278,325.302 95.827,325.189 95.37,325.19L91,325.19C90.543,325.191 90.093,325.305 89.69,325.52L89.69,331.81C89.69,333.73 91.27,335.31 93.19,335.31C95.11,335.31 96.69,333.73 96.69,331.81L96.68,325.52Z" style="fill:#9cc6e9;fill-rule:nonzero;"/>
            </g>
            <g transform="matrix(0.809186,0,0,0.809186,-12.4456,62.3692)">
                <path d="M95.88,339.27L90.48,339.27C90.479,339.27 90.479,339.27 90.478,339.27C88.904,339.27 87.608,337.974 87.608,336.4C87.608,336.313 87.612,336.226 87.62,336.14L88.13,330.53C88.264,329.053 89.517,327.909 91,327.91L95.38,327.91C96.861,327.91 98.111,329.055 98.24,330.53L98.75,336.14C98.758,336.226 98.762,336.313 98.762,336.4C98.762,337.974 97.466,339.27 95.892,339.27C95.888,339.27 95.884,339.27 95.88,339.27Z" style="fill:#d9e5f4;fill-rule:nonzero;"/>
            </g>
            <path d="M101.091,298.38L101.091,345L91.157,345C84.585,318.103 64.663,304.176 36.37,298.38L101.091,298.38Z" style="fill:#0e0e0e;fill-rule:nonzero;"/>
            <path d="M50.712,298.252C54.513,299.409 57.975,300.898 61.342,302.38C77.464,310.242 88.914,322.648 94.229,341L95.378,345L91.157,345C84.585,318.103 64.663,303.98 36.37,298.184L50.712,298.252Z" style="fill:#b5b5b5;"/>
            <g>
                <g transform="matrix(0.865665,-0.500623,0.500623,0.865665,-178.333,61.9033)">
                    <g transform="matrix(0.967365,-0.253389,0.253389,0.967365,-98.2279,67.1838)">
                        <path d="M111.522,314.314L111.522,314.212C111.522,313.727 111.916,313.333 112.402,313.333L114.161,313.333C114.647,313.333 115.041,313.727 115.041,314.212L115.041,316.647C115.041,317.133 114.647,317.527 114.161,317.527L112.402,317.527C111.916,317.527 111.522,317.133 111.522,316.647L111.522,316.545L111.071,316.545C110.779,316.848 110.369,317.036 109.916,317.036C109.029,317.036 108.309,316.316 108.309,315.43C108.309,314.543 109.029,313.823 109.916,313.823C110.369,313.823 110.779,314.011 111.071,314.314L111.522,314.314Z" style="fill:#747474;"/>
                    </g>
                    <g transform="matrix(0.967365,-0.253389,0.253389,0.967365,-98.3232,66.8198)">
                        <path d="M111.522,314.314L111.522,314.212C111.522,313.727 111.916,313.333 112.402,313.333L114.161,313.333C114.647,313.333 115.041,313.727 115.041,314.212L115.041,316.647C115.041,317.133 114.647,317.527 114.161,317.527L112.402,317.527C111.916,317.527 111.522,317.133 111.522,316.647L111.522,316.545L111.071,316.545C110.779,316.848 110.369,317.036 109.916,317.036C109.029,317.036 108.309,316.316 108.309,315.43C108.309,314.543 109.029,313.823 109.916,313.823C110.369,313.823 110.779,314.011 111.071,314.314L111.522,314.314Z" style="fill:#929292;"/>
                    </g>
                </g>
                <g transform="matrix(0.907094,-0.420929,0.420929,0.907094,-151.576,43.6267)">
                    <g transform="matrix(0.967365,-0.253389,0.253389,0.967365,-98.2279,67.1838)">
                        <path d="M111.522,314.314L111.522,314.212C111.522,313.727 111.916,313.333 112.402,313.333L114.161,313.333C114.647,313.333 115.041,313.727 115.041,314.212L115.041,316.647C115.041,317.133 114.647,317.527 114.161,317.527L112.402,317.527C111.916,317.527 111.522,317.133 111.522,316.647L111.522,316.545L111.071,316.545C110.779,316.848 110.369,317.036 109.916,317.036C109.029,317.036 108.309,316.316 108.309,315.43C108.309,314.543 109.029,313.823 109.916,313.823C110.369,313.823 110.779,314.011 111.071,314.314L111.522,314.314Z" style="fill:#747474;"/>
                    </g>
                    <g transform="matrix(0.967365,-0.253389,0.253389,0.967365,-98.3232,66.8198)">
                        <path d="M111.522,314.314L111.522,314.212C111.522,313.727 111.916,313.333 112.402,313.333L114.161,313.333C114.647,313.333 115.041,313.727 115.041,314.212L115.041,316.647C115.041,317.133 114.647,317.527 114.161,317.527L112.402,317.527C111.916,317.527 111.522,317.133 111.522,316.647L111.522,316.545L111.071,316.545C110.779,316.848 110.369,317.036 109.916,317.036C109.029,317.036 108.309,316.316 108.309,315.43C108.309,314.543 109.029,313.823 109.916,313.823C110.369,313.823 110.779,314.011 111.071,314.314L111.522,314.314Z" style="fill:#929292;"/>
                    </g>
                </g>
                <g transform="matrix(0.907094,-0.420929,0.420929,0.907094,-148.689,47.036)">
                    <g transform="matrix(0.967365,-0.253389,0.253389,0.967365,-98.2279,67.1838)">
                        <path d="M111.522,314.314L111.522,314.212C111.522,313.727 111.916,313.333 112.402,313.333L114.161,313.333C114.647,313.333 115.041,313.727 115.041,314.212L115.041,316.647C115.041,317.133 114.647,317.527 114.161,317.527L112.402,317.527C111.916,317.527 111.522,317.133 111.522,316.647L111.522,316.545L111.071,316.545C110.779,316.848 110.369,317.036 109.916,317.036C109.029,317.036 108.309,316.316 108.309,315.43C108.309,314.543 109.029,313.823 109.916,313.823C110.369,313.823 110.779,314.011 111.071,314.314L111.522,314.314Z" style="fill:#747474;"/>
                    </g>
                    <g transform="matrix(0.967365,-0.253389,0.253389,0.967365,-98.3232,66.8198)">
                        <path d="M111.522,314.314L111.522,314.212C111.522,313.727 111.916,313.333 112.402,313.333L114.161,313.333C114.647,313.333 115.041,313.727 115.041,314.212L115.041,316.647C115.041,317.133 114.647,317.527 114.161,317.527L112.402,317.527C111.916,317.527 111.522,317.133 111.522,316.647L111.522,316.545L111.071,316.545C110.779,316.848 110.369,317.036 109.916,317.036C109.029,317.036 108.309,316.316 108.309,315.43C108.309,314.543 109.029,313.823 109.916,313.823C110.369,313.823 110.779,314.011 111.071,314.314L111.522,314.314Z" style="fill:#929292;"/>
                    </g>
                </g>
                <g transform="matrix(0.94988,-0.312614,0.312614,0.94988,-112.452,25.8276)">
                    <g transform="matrix(0.967365,-0.253389,0.253389,0.967365,-98.2279,67.1838)">
                        <path d="M111.522,314.314L111.522,314.212C111.522,313.727 111.916,313.333 112.402,313.333L114.161,313.333C114.647,313.333 115.041,313.727 115.041,314.212L115.041,316.647C115.041,317.133 114.647,317.527 114.161,317.527L112.402,317.527C111.916,317.527 111.522,317.133 111.522,316.647L111.522,316.545L111.071,316.545C110.779,316.848 110.369,317.036 109.916,317.036C109.029,317.036 108.309,316.316 108.309,315.43C108.309,314.543 109.029,313.823 109.916,313.823C110.369,313.823 110.779,314.011 111.071,314.314L111.522,314.314Z" style="fill:#747474;"/>
                    </g>
                    <g transform="matrix(0.967365,-0.253389,0.253389,0.967365,-98.3232,66.8198)">
                        <path d="M111.522,314.314L111.522,314.212C111.522,313.727 111.916,313.333 112.402,313.333L114.161,313.333C114.647,313.333 115.041,313.727 115.041,314.212L115.041,316.647C115.041,317.133 114.647,317.527 114.161,317.527L112.402,317.527C111.916,317.527 111.522,317.133 111.522,316.647L111.522,316.545L111.071,316.545C110.779,316.848 110.369,317.036 109.916,317.036C109.029,317.036 108.309,316.316 108.309,315.43C108.309,314.543 109.029,313.823 109.916,313.823C110.369,313.823 110.779,314.011 111.071,314.314L111.522,314.314Z" style="fill:#929292;"/>
                    </g>
                </g>
                <g transform="matrix(0.973327,-0.229422,0.229422,0.973327,-83.3797,13.7865)">
                    <g transform="matrix(0.967365,-0.253389,0.253389,0.967365,-98.2279,67.1838)">
                        <path d="M111.522,314.314L111.522,314.212C111.522,313.727 111.916,313.333 112.402,313.333L114.161,313.333C114.647,313.333 115.041,313.727 115.041,314.212L115.041,316.647C115.041,317.133 114.647,317.527 114.161,317.527L112.402,317.527C111.916,317.527 111.522,317.133 111.522,316.647L111.522,316.545L111.071,316.545C110.779,316.848 110.369,317.036 109.916,317.036C109.029,317.036 108.309,316.316 108.309,315.43C108.309,314.543 109.029,313.823 109.916,313.823C110.369,313.823 110.779,314.011 111.071,314.314L111.522,314.314Z" style="fill:#747474;"/>
                    </g>
                    <g transform="matrix(0.967365,-0.253389,0.253389,0.967365,-98.3232,66.8198)">
                        <path d="M111.522,314.314L111.522,314.212C111.522,313.727 111.916,313.333 112.402,313.333L114.161,313.333C114.647,313.333 115.041,313.727 115.041,314.212L115.041,316.647C115.041,317.133 114.647,317.527 114.161,317.527L112.402,317.527C111.916,317.527 111.522,317.133 111.522,316.647L111.522,316.545L111.071,316.545C110.779,316.848 110.369,317.036 109.916,317.036C109.029,317.036 108.309,316.316 108.309,315.43C108.309,314.543 109.029,313.823 109.916,313.823C110.369,313.823 110.779,314.011 111.071,314.314L111.522,314.314Z" style="fill:#929292;"/>
                    </g>
                </g>
                <g transform="matrix(0.99101,-0.133791,0.133791,0.99101,-49.9633,2.90456)">
                    <g transform="matrix(0.967365,-0.253389,0.253389,0.967365,-98.2279,67.1838)">
                        <path d="M111.522,314.314L111.522,314.212C111.522,313.727 111.916,313.333 112.402,313.333L114.161,313.333C114.647,313.333 115.041,313.727 115.041,314.212L115.041,316.647C115.041,317.133 114.647,317.527 114.161,317.527L112.402,317.527C111.916,317.527 111.522,317.133 111.522,316.647L111.522,316.545L111.071,316.545C110.779,316.848 110.369,317.036 109.916,317.036C109.029,317.036 108.309,316.316 108.309,315.43C108.309,314.543 109.029,313.823 109.916,313.823C110.369,313.823 110.779,314.011 111.071,314.314L111.522,314.314Z" style="fill:#747474;"/>
                    </g>
                    <g transform="matrix(0.967365,-0.253389,0.253389,0.967365,-98.3232,66.8198)">
                        <path d="M111.522,314.314L111.522,314.212C111.522,313.727 111.916,313.333 112.402,313.333L114.161,313.333C114.647,313.333 115.041,313.727 115.041,314.212L115.041,316.647C115.041,317.133 114.647,317.527 114.161,317.527L112.402,317.527C111.916,317.527 111.522,317.133 111.522,316.647L111.522,316.545L111.071,316.545C110.779,316.848 110.369,317.036 109.916,317.036C109.029,317.036 108.309,316.316 108.309,315.43C108.309,314.543 109.029,313.823 109.916,313.823C110.369,313.823 110.779,314.011 111.071,314.314L111.522,314.314Z" style="fill:#929292;"/>
                    </g>
                </g>
                <g transform="matrix(1,0,0,1,-2.97719,-8.32148)">
                    <g transform="matrix(0.967365,-0.253389,0.253389,0.967365,-98.2279,67.1838)">
                        <path d="M111.522,314.314L111.522,314.212C111.522,313.727 111.916,313.333 112.402,313.333L114.161,313.333C114.647,313.333 115.041,313.727 115.041,314.212L115.041,316.647C115.041,317.133 114.647,317.527 114.161,317.527L112.402,317.527C111.916,317.527 111.522,317.133 111.522,316.647L111.522,316.545L111.071,316.545C110.779,316.848 110.369,317.036 109.916,317.036C109.029,317.036 108.309,316.316 108.309,315.43C108.309,314.543 109.029,313.823 109.916,313.823C110.369,313.823 110.779,314.011 111.071,314.314L111.522,314.314Z" style="fill:#747474;"/>
                    </g>
                    <g transform="matrix(0.967365,-0.253389,0.253389,0.967365,-98.3232,66.8198)">
                        <path d="M111.522,314.314L111.522,314.212C111.522,313.727 111.916,313.333 112.402,313.333L114.161,313.333C114.647,313.333 115.041,313.727 115.041,314.212L115.041,316.647C115.041,317.133 114.647,317.527 114.161,317.527L112.402,317.527C111.916,317.527 111.522,317.133 111.522,316.647L111.522,316.545L111.071,316.545C110.779,316.848 110.369,317.036 109.916,317.036C109.029,317.036 108.309,316.316 108.309,315.43C108.309,314.543 109.029,313.823 109.916,313.823C110.369,313.823 110.779,314.011 111.071,314.314L111.522,314.314Z" style="fill:#929292;"/>
                    </g>
                </g>
                <g transform="matrix(1,0,0,1,-1.59434,-4.13227)">
                    <g transform="matrix(0.967365,-0.253389,0.253389,0.967365,-98.2279,67.1838)">
                        <path d="M111.522,314.314L111.522,314.212C111.522,313.727 111.916,313.333 112.402,313.333L114.161,313.333C114.647,313.333 115.041,313.727 115.041,314.212L115.041,316.647C115.041,317.133 114.647,317.527 114.161,317.527L112.402,317.527C111.916,317.527 111.522,317.133 111.522,316.647L111.522,316.545L111.071,316.545C110.779,316.848 110.369,317.036 109.916,317.036C109.029,317.036 108.309,316.316 108.309,315.43C108.309,314.543 109.029,313.823 109.916,313.823C110.369,313.823 110.779,314.011 111.071,314.314L111.522,314.314Z" style="fill:#747474;"/>
                    </g>
                    <g transform="matrix(0.967365,-0.253389,0.253389,0.967365,-98.3232,66.8198)">
                        <path d="M111.522,314.314L111.522,314.212C111.522,313.727 111.916,313.333 112.402,313.333L114.161,313.333C114.647,313.333 115.041,313.727 115.041,314.212L115.041,316.647C115.041,317.133 114.647,317.527 114.161,317.527L112.402,317.527C111.916,317.527 111.522,317.133 111.522,316.647L111.522,316.545L111.071,316.545C110.779,316.848 110.369,317.036 109.916,317.036C109.029,317.036 108.309,316.316 108.309,315.43C108.309,314.543 109.029,313.823 109.916,313.823C110.369,313.823 110.779,314.011 111.071,314.314L111.522,314.314Z" style="fill:#929292;"/>
                    </g>
                </g>
                <g>
                    <g transform="matrix(0.967365,-0.253389,0.253389,0.967365,-98.2279,67.1838)">
                        <path d="M111.522,314.314L111.522,314.212C111.522,313.727 111.916,313.333 112.402,313.333L114.161,313.333C114.647,313.333 115.041,313.727 115.041,314.212L115.041,316.647C115.041,317.133 114.647,317.527 114.161,317.527L112.402,317.527C111.916,317.527 111.522,317.133 111.522,316.647L111.522,316.545L111.071,316.545C110.779,316.848 110.369,317.036 109.916,317.036C109.029,317.036 108.309,316.316 108.309,315.43C108.309,314.543 109.029,313.823 109.916,313.823C110.369,313.823 110.779,314.011 111.071,314.314L111.522,314.314Z" style="fill:#747474;"/>
                    </g>
                    <g transform="matrix(0.967365,-0.253389,0.253389,0.967365,-98.3232,66.8198)">
                        <path d="M111.522,314.314L111.522,314.212C111.522,313.727 111.916,313.333 112.402,313.333L114.161,313.333C114.647,313.333 115.041,313.727 115.041,314.212L115.041,316.647C115.041,317.133 114.647,317.527 114.161,317.527L112.402,317.527C111.916,317.527 111.522,317.133 111.522,316.647L111.522,316.545L111.071,316.545C110.779,316.848 110.369,317.036 109.916,317.036C109.029,317.036 108.309,316.316 108.309,315.43C108.309,314.543 109.029,313.823 109.916,313.823C110.369,313.823 110.779,314.011 111.071,314.314L111.522,314.314Z" style="fill:#929292;"/>
                    </g>
                </g>
            </g>
            <path d="M66.595,311.45L65.927,310.261C56.025,304.608 45.322,300.712 33.962,298.252L37.352,298.184C45.513,299.499 59.474,303.779 67.929,310.306L69.254,308.82L71.804,311.396L69.091,314.081C68.736,314.433 68.161,314.43 67.809,314.074L66.534,312.786C66.183,312.43 66.186,311.856 66.541,311.504L66.595,311.45Z" style="fill:#0e0e0e;"/>
            <path d="M92.346,345.217C87.237,322.261 69.446,304.739 40.961,298.352C40.866,298.331 40.696,298.252 40.696,298.252L45.534,298.252C69.276,303.936 88.843,321.036 94.299,344.783C94.422,345.321 94.078,345.856 93.54,345.976C93.001,346.096 92.466,345.756 92.346,345.217Z" style="fill:#808080;"/>
        </g>
        <g transform="matrix(1,0,0,1,0.00203322,0.128014)">
            <g transform="matrix(0.809186,0,0,0.927936,-12.4456,22.5511)">
                <path d="M93.18,335.31C91.26,335.31 89.68,333.73 89.68,331.81L89.68,307.3C89.68,305.38 91.26,303.8 93.18,303.8C95.1,303.8 96.68,305.38 96.68,307.3L96.68,331.81C96.68,333.73 95.1,335.31 93.18,335.31Z" style="fill:#d9e5f4;fill-rule:nonzero;"/>
            </g>
            <g transform="matrix(0.809186,0,0,0.809186,-12.4456,62.3692)">
                <path d="M96.68,325.52C96.278,325.302 95.827,325.189 95.37,325.19L91,325.19C90.543,325.191 90.093,325.305 89.69,325.52L89.69,331.81C89.69,333.73 91.27,335.31 93.19,335.31C95.11,335.31 96.69,333.73 96.69,331.81L96.68,325.52Z" style="fill:#9cc6e9;fill-rule:nonzero;"/>
            </g>
            <g transform="matrix(0.809186,0,0,0.809186,-12.4456,62.3692)">
                <path d="M95.88,339.27L90.48,339.27C90.479,339.27 90.479,339.27 90.478,339.27C88.904,339.27 87.608,337.974 87.608,336.4C87.608,336.313 87.612,336.226 87.62,336.14L88.13,330.53C88.264,329.053 89.517,327.909 91,327.91L95.38,327.91C96.861,327.91 98.111,329.055 98.24,330.53L98.75,336.14C98.758,336.226 98.762,336.313 98.762,336.4C98.762,337.974 97.466,339.27 95.892,339.27C95.888,339.27 95.884,339.27 95.88,339.27Z" style="fill:#d9e5f4;fill-rule:nonzero;"/>
            </g>
            <path d="M101.091,298.38L101.091,345L91.157,345C84.585,318.103 64.663,304.176 36.37,298.38L101.091,298.38Z" style="fill:#0e0e0e;fill-rule:nonzero;"/>
            <path d="M50.712,298.252C54.513,299.409 57.975,300.898 61.342,302.38C77.464,310.242 88.914,322.648 94.229,341L95.378,345L91.157,345C84.585,318.103 64.663,303.98 36.37,298.184L50.712,298.252Z" style="fill:#b5b5b5;"/>
            <g>
                <g transform="matrix(0.865665,-0.500623,0.500623,0.865665,-178.333,61.9033)">
                    <g transform="matrix(0.967365,-0.253389,0.253389,0.967365,-98.2279,67.1838)">
                        <path d="M111.522,314.314L111.522,314.212C111.522,313.727 111.916,313.333 112.402,313.333L114.161,313.333C114.647,313.333 115.041,313.727 115.041,314.212L115.041,316.647C115.041,317.133 114.647,317.527 114.161,317.527L112.402,317.527C111.916,317.527 111.522,317.133 111.522,316.647L111.522,316.545L111.071,316.545C110.779,316.848 110.369,317.036 109.916,317.036C109.029,317.036 108.309,316.316 108.309,315.43C108.309,314.543 109.029,313.823 109.916,313.823C110.369,313.823 110.779,314.011 111.071,314.314L111.522,314.314Z" style="fill:#747474;"/>
                    </g>
                    <g transform="matrix(0.967365,-0.253389,0.253389,0.967365,-98.3232,66.8198)">
                        <path d="M111.522,314.314L111.522,314.212C111.522,313.727 111.916,313.333 112.402,313.333L114.161,313.333C114.647,313.333 115.041,313.727 115.041,314.212L115.041,316.647C115.041,317.133 114.647,317.527 114.161,317.527L112.402,317.527C111.916,317.527 111.522,317.133 111.522,316.647L111.522,316.545L111.071,316.545C110.779,316.848 110.369,317.036 109.916,317.036C109.029,317.036 108.309,316.316 108.309,315.43C108.309,314.543 109.029,313.823 109.916,313.823C110.369,313.823 110.779,314.011 111.071,314.314L111.522,314.314Z" style="fill:#929292;"/>
                    </g>
                </g>
                <g transform="matrix(0.907094,-0.420929,0.420929,0.907094,-151.576,43.6267)">
                    <g transform="matrix(0.967365,-0.253389,0.253389,0.967365,-98.2279,67.1838)">
                        <path d="M111.522,314.314L111.522,314.212C111.522,313.727 111.916,313.333 112.402,313.333L114.161,313.333C114.647,313.333 115.041,313.727 115.041,314.212L115.041,316.647C115.041,317.133 114.647,317.527 114.161,317.527L112.402,317.527C111.916,317.527 111.522,317.133 111.522,316.647L111.522,316.545L111.071,316.545C110.779,316.848 110.369,317.036 109.916,317.036C109.029,317.036 108.309,316.316 108.309,315.43C108.309,314.543 109.029,313.823 109.916,313.823C110.369,313.823 110.779,314.011 111.071,314.314L111.522,314.314Z" style="fill:#747474;"/>
                    </g>
                    <g transform="matrix(0.967365,-0.253389,0.253389,0.967365,-98.3232,66.8198)">
                        <path d="M111.522,314.314L111.522,314.212C111.522,313.727 111.916,313.333 112.402,313.333L114.161,313.333C114.647,313.333 115.041,313.727 115.041,314.212L115.041,316.647C115.041,317.133 114.647,317.527 114.161,317.527L112.402,317.527C111.916,317.527 111.522,317.133 111.522,316.647L111.522,316.545L111.071,316.545C110.779,316.848 110.369,317.036 109.916,317.036C109.029,317.036 108.309,316.316 108.309,315.43C108.309,314.543 109.029,313.823 109.916,313.823C110.369,313.823 110.779,314.011 111.071,314.314L111.522,314.314Z" style="fill:#929292;"/>
                    </g>
                </g>
                <g transform="matrix(0.907094,-0.420929,0.420929,0.907094,-148.689,47.036)">
                    <g transform="matrix(0.967365,-0.253389,0.253389,0.967365,-98.2279,67.1838)">
                        <path d="M111.522,314.314L111.522,314.212C111.522,313.727 111.916,313.333 112.402,313.333L114.161,313.333C114.647,313.333 115.041,313.727 115.041,314.212L115.041,316.647C115.041,317.133 114.647,317.527 114.161,317.527L112.402,317.527C111.916,317.527 111.522,317.133 111.522,316.647L111.522,316.545L111.071,316.545C110.779,316.848 110.369,317.036 109.916,317.036C109.029,317.036 108.309,316.316 108.309,315.43C108.309,314.543 109.029,313.823 109.916,313.823C110.369,313.823 110.779,314.011 111.071,314.314L111.522,314.314Z" style="fill:#747474;"/>
                    </g>
                    <g transform="matrix(0.967365,-0.253389,0.253389,0.967365,-98.3232,66.8198)">
                        <path d="M111.522,314.314L111.522,314.212C111.522,313.727 111.916,313.333 112.402,313.333L114.161,313.333C114.647,313.333 115.041,313.727 115.041,314.212L115.041,316.647C115.041,317.133 114.647,317.527 114.161,317.527L112.402,317.527C111.916,317.527 111.522,317.133 111.522,316.647L111.522,316.545L111.071,316.545C110.779,316.848 110.369,317.036 109.916,317.036C109.029,317.036 108.309,316.316 108.309,315.43C108.309,314.543 109.029,313.823 109.916,313.823C110.369,313.823 110.779,314.011 111.071,314.314L111.522,314.314Z" style="fill:#929292;"/>
                    </g>
                </g>
                <g transform="matrix(0.94988,-0.312614,0.312614,0.94988,-112.452,25.8276)">
                    <g transform="matrix(0.967365,-0.253389,0.253389,0.967365,-98.2279,67.1838)">
                        <path d="M111.522,314.314L111.522,314.212C111.522,313.727 111.916,313.333 112.402,313.333L114.161,313.333C114.647,313.333 115.041,313.727 115.041,314.212L115.041,316.647C115.041,317.133 114.647,317.527 114.161,317.527L112.402,317.527C111.916,317.527 111.522,317.133 111.522,316.647L111.522,316.545L111.071,316.545C110.779,316.848 110.369,317.036 109.916,317.036C109.029,317.036 108.309,316.316 108.309,315.43C108.309,314.543 109.029,313.823 109.916,313.823C110.369,313.823 110.779,314.011 111.071,314.314L111.522,314.314Z" style="fill:#747474;"/>
                    </g>
                    <g transform="matrix(0.967365,-0.253389,0.253389,0.967365,-98.3232,66.8198)">
                        <path d="M111.522,314.314L111.522,314.212C111.522,313.727 111.916,313.333 112.402,313.333L114.161,313.333C114.647,313.333 115.041,313.727 115.041,314.212L115.041,316.647C115.041,317.133 114.647,317.527 114.161,317.527L112.402,317.527C111.916,317.527 111.522,317.133 111.522,316.647L111.522,316.545L111.071,316.545C110.779,316.848 110.369,317.036 109.916,317.036C109.029,317.036 108.309,316.316 108.309,315.43C108.309,314.543 109.029,313.823 109.916,313.823C110.369,313.823 110.779,314.011 111.071,314.314L111.522,314.314Z" style="fill:#929292;"/>
                    </g>
                </g>
                <g transform="matrix(0.973327,-0.229422,0.229422,0.973327,-83.3797,13.7865)">
                    <g transform="matrix(0.967365,-0.253389,0.253389,0.967365,-98.2279,67.1838)">
                        <path d="M111.522,314.314L111.522,314.212C111.522,313.727 111.916,313.333 112.402,313.333L114.161,313.333C114.647,313.333 115.041,313.727 115.041,314.212L115.041,316.647C115.041,317.133 114.647,317.527 114.161,317.527L112.402,317.527C111.916,317.527 111.522,317.133 111.522,316.647L111.522,316.545L111.071,316.545C110.779,316.848 110.369,317.036 109.916,317.036C109.029,317.036 108.309,316.316 108.309,315.43C108.309,314.543 109.029,313.823 109.916,313.823C110.369,313.823 110.779,314.011 111.071,314.314L111.522,314.314Z" style="fill:#747474;"/>
                    </g>
                    <g transform="matrix(0.967365,-0.253389,0.253389,0.967365,-98.3232,66.8198)">
                        <path d="M111.522,314.314L111.522,314.212C111.522,313.727 111.916,313.333 112.402,313.333L114.161,313.333C114.647,313.333 115.041,313.727 115.041,314.212L115.041,316.647C115.041,317.133 114.647,317.527 114.161,317.527L112.402,317.527C111.916,317.527 111.522,317.133 111.522,316.647L111.522,316.545L111.071,316.545C110.779,316.848 110.369,317.036 109.916,317.036C109.029,317.036 108.309,316.316 108.309,315.43C108.309,314.543 109.029,313.823 109.916,313.823C110.369,313.823 110.779,314.011 111.071,314.314L111.522,314.314Z" style="fill:#929292;"/>
                    </g>
                </g>
                <g transform="matrix(0.99101,-0.133791,0.133791,0.99101,-49.9633,2.90456)">
                    <g transform="matrix(0.967365,-0.253389,0.253389,0.967365,-98.2279,67.1838)">
                        <path d="M111.522,314.314L111.522,314.212C111.522,313.727 111.916,313.333 112.402,313.333L114.161,313.333C114.647,313.333 115.041,313.727 115.041,314.212L115.041,316.647C115.041,317.133 114.647,317.527 114.161,317.527L112.402,317.527C111.916,317.527 111.522,317.133 111.522,316.647L111.522,316.545L111.071,316.545C110.779,316.848 110.369,317.036 109.916,317.036C109.029,317.036 108.309,316.316 108.309,315.43C108.309,314.543 109.029,313.823 109.916,313.823C110.369,313.823 110.779,314.011 111.071,314.314L111.522,314.314Z" style="fill:#747474;"/>
                    </g>
                    <g transform="matrix(0.967365,-0.253389,0.253389,0.967365,-98.3232,66.8198)">
                        <path d="M111.522,314.314L111.522,314.212C111.522,313.727 111.916,313.333 112.402,313.333L114.161,313.333C114.647,313.333 115.041,313.727 115.041,314.212L115.041,316.647C115.041,317.133 114.647,317.527 114.161,317.527L112.402,317.527C111.916,317.527 111.522,317.133 111.522,316.647L111.522,316.545L111.071,316.545C110.779,316.848 110.369,317.036 109.916,317.036C109.029,317.036 108.309,316.316 108.309,315.43C108.309,314.543 109.029,313.823 109.916,313.823C110.369,313.823 110.779,314.011 111.071,314.314L111.522,314.314Z" style="fill:#929292;"/>
                    </g>
                </g>
                <g transform="matrix(1,0,0,1,-2.97719,-8.32148)">
                    <g transform="matrix(0.967365,-0.253389,0.253389,0.967365,-98.2279,67.1838)">
                        <path d="M111.522,314.314L111.522,314.212C111.522,313.727 111.916,313.333 112.402,313.333L114.161,313.333C114.647,313.333 115.041,313.727 115.041,314.212L115.041,316.647C115.041,317.133 114.647,317.527 114.161,317.527L112.402,317.527C111.916,317.527 111.522,317.133 111.522,316.647L111.522,316.545L111.071,316.545C110.779,316.848 110.369,317.036 109.916,317.036C109.029,317.036 108.309,316.316 108.309,315.43C108.309,314.543 109.029,313.823 109.916,313.823C110.369,313.823 110.779,314.011 111.071,314.314L111.522,314.314Z" style="fill:#747474;"/>
                    </g>
                    <g transform="matrix(0.967365,-0.253389,0.253389,0.967365,-98.3232,66.8198)">
                        <path d="M111.522,314.314L111.522,314.212C111.522,313.727 111.916,313.333 112.402,313.333L114.161,313.333C114.647,313.333 115.041,313.727 115.041,314.212L115.041,316.647C115.041,317.133 114.647,317.527 114.161,317.527L112.402,317.527C111.916,317.527 111.522,317.133 111.522,316.647L111.522,316.545L111.071,316.545C110.779,316.848 110.369,317.036 109.916,317.036C109.029,317.036 108.309,316.316 108.309,315.43C108.309,314.543 109.029,313.823 109.916,313.823C110.369,313.823 110.779,314.011 111.071,314.314L111.522,314.314Z" style="fill:#929292;"/>
                    </g>
                </g>
                <g transform="matrix(1,0,0,1,-1.59434,-4.13227)">
                    <g transform="matrix(0.967365,-0.253389,0.253389,0.967365,-98.2279,67.1838)">
                        <path d="M111.522,314.314L111.522,314.212C111.522,313.727 111.916,313.333 112.402,313.333L114.161,313.333C114.647,313.333 115.041,313.727 115.041,314.212L115.041,316.647C115.041,317.133 114.647,317.527 114.161,317.527L112.402,317.527C111.916,317.527 111.522,317.133 111.522,316.647L111.522,316.545L111.071,316.545C110.779,316.848 110.369,317.036 109.916,317.036C109.029,317.036 108.309,316.316 108.309,315.43C108.309,314.543 109.029,313.823 109.916,313.823C110.369,313.823 110.779,314.011 111.071,314.314L111.522,314.314Z" style="fill:#747474;"/>
                    </g>
                    <g transform="matrix(0.967365,-0.253389,0.253389,0.967365,-98.3232,66.8198)">
                        <path d="M111.522,314.314L111.522,314.212C111.522,313.727 111.916,313.333 112.402,313.333L114.161,313.333C114.647,313.333 115.041,313.727 115.041,314.212L115.041,316.647C115.041,317.133 114.647,317.527 114.161,317.527L112.402,317.527C111.916,317.527 111.522,317.133 111.522,316.647L111.522,316.545L111.071,316.545C110.779,316.848 110.369,317.036 109.916,317.036C109.029,317.036 108.309,316.316 108.309,315.43C108.309,314.543 109.029,313.823 109.916,313.823C110.369,313.823 110.779,314.011 111.071,314.314L111.522,314.314Z" style="fill:#929292;"/>
                    </g>
                </g>
                <g>
                    <g transform="matrix(0.967365,-0.253389,0.253389,0.967365,-98.2279,67.1838)">
                        <path d="M111.522,314.314L111.522,314.212C111.522,313.727 111.916,313.333 112.402,313.333L114.161,313.333C114.647,313.333 115.041,313.727 115.041,314.212L115.041,316.647C115.041,317.133 114.647,317.527 114.161,317.527L112.402,317.527C111.916,317.527 111.522,317.133 111.522,316.647L111.522,316.545L111.071,316.545C110.779,316.848 110.369,317.036 109.916,317.036C109.029,317.036 108.309,316.316 108.309,315.43C108.309,314.543 109.029,313.823 109.916,313.823C110.369,313.823 110.779,314.011 111.071,314.314L111.522,314.314Z" style="fill:#747474;"/>
                    </g>
                    <g transform="matrix(0.967365,-0.253389,0.253389,0.967365,-98.3232,66.8198)">
                        <path d="M111.522,314.314L111.522,314.212C111.522,313.727 111.916,313.333 112.402,313.333L114.161,313.333C114.647,313.333 115.041,313.727 115.041,314.212L115.041,316.647C115.041,317.133 114.647,317.527 114.161,317.527L112.402,317.527C111.916,317.527 111.522,317.133 111.522,316.647L111.522,316.545L111.071,316.545C110.779,316.848 110.369,317.036 109.916,317.036C109.029,317.036 108.309,316.316 108.309,315.43C108.309,314.543 109.029,313.823 109.916,313.823C110.369,313.823 110.779,314.011 111.071,314.314L111.522,314.314Z" style="fill:#929292;"/>
                    </g>
                </g>
            </g>
            <path d="M66.595,311.45L65.927,310.261C56.025,304.608 45.322,300.712 33.962,298.252L37.352,298.184C45.513,299.499 59.474,303.779 67.929,310.306L69.254,308.82L71.804,311.396L69.091,314.081C68.736,314.433 68.161,314.43 67.809,314.074L66.534,312.786C66.183,312.43 66.186,311.856 66.541,311.504L66.595,311.45Z" style="fill:#0e0e0e;"/>
            <path d="M92.346,345.217C87.237,322.261 69.446,304.739 40.961,298.352C40.866,298.331 40.696,298.252 40.696,298.252L45.534,298.252C69.276,303.936 88.843,321.036 94.299,344.783C94.422,345.321 94.078,345.856 93.54,345.976C93.001,346.096 92.466,345.756 92.346,345.217Z" style="fill:#808080;"/>
        </g>
    </g>
    <defs>
        <linearGradient id="_Linear1" x1="0" y1="0" x2="1" y2="0" gradientUnits="userSpaceOnUse" gradientTransform="matrix(4.28838e-15,-70.0345,19.3762,1.18645e-15,150,351.818)"><stop offset="0" style="stop-color:#fff;stop-opacity:1"/><stop offset="1" style="stop-color:#d8d8d8;stop-opacity:1"/></linearGradient>
    </defs>
</svg>
