<?xml version="1.0" encoding="UTF-8" standalone="no"?>
<!DOCTYPE svg PUBLIC "-//W3C//DTD SVG 1.1//EN" "http://www.w3.org/Graphics/SVG/1.1/DTD/svg11.dtd">
<svg width="100%" height="100%" viewBox="0 0 300 345" version="1.1" xmlns="http://www.w3.org/2000/svg" xmlns:xlink="http://www.w3.org/1999/xlink" xml:space="preserve" xmlns:serif="http://www.serif.com/" style="fill-rule:evenodd;clip-rule:evenodd;stroke-linejoin:round;stroke-miterlimit:2;">
    <g id="avatar_clothing_52">
        <path d="M1.084,317.394C0.376,314.58 11.071,292.395 26.079,296.879C29.348,297.855 32.802,298.38 36.37,298.38L37.094,298.38L37.983,299.296L66.373,299.529L68.747,298.38L141.522,298.38L152.847,311.227L163.902,298.38L231.474,298.38L233.267,299.173L262.189,299.118L262.931,298.38L263.62,298.38C268.499,298.38 273.166,297.399 277.434,295.624C290.625,290.14 299.575,314.946 298.78,317.919C297.958,320.991 296.739,323.908 295.184,326.611C294.999,326.932 294.549,327.673 294.549,327.673C288.11,338.038 276.614,345 263.62,345L240.849,345C240.909,344.944 240.968,344.889 241.028,344.833C240.347,344.944 239.976,345 239.976,345L60.068,345C60.068,345 59.678,344.941 58.963,344.825C59.027,344.884 59.089,344.942 59.151,345L36.38,345C23.386,345 11.89,338.038 5.451,327.673C5.451,327.673 5.001,326.932 4.816,326.611C3.172,323.754 1.905,320.658 1.084,317.394Z" style="fill:#dc6504;fill-rule:nonzero;"/>
        <path d="M37.083,298.38L68.747,298.38L36.38,345C23.518,345 12.125,338.179 5.651,327.99L37.083,298.38ZM-0,262.01C-0,278.802 11.629,293.09 27.204,297.195L2.15,320.877C0.759,317.04 -0,312.911 -0,308.62L0,262L-0,262.01Z" style="fill:#b84303;fill-rule:nonzero;"/>
        <g transform="matrix(-1,0,0,1,300,0)">
            <path d="M37.083,298.38L68.747,298.38L36.38,345C23.518,345 12.125,338.179 5.651,327.99L37.083,298.38ZM-0,262.01C-0,278.802 11.629,293.09 27.204,297.195L2.15,320.877C0.759,317.04 -0,312.911 -0,308.62L0,262L-0,262.01Z" style="fill:#b84303;fill-rule:nonzero;"/>
        </g>
        <path d="M254.879,345L257.314,345L258.957,343.859C258.957,343.859 257.152,341.26 254.394,337.288L251.109,339.569L254.879,345ZM45.121,345L42.686,345L41.043,343.859C41.043,343.859 42.848,341.26 45.606,337.288L48.891,339.569L45.121,345ZM249.832,330.716C248.384,328.631 246.843,326.411 245.27,324.145L241.984,326.426C243.557,328.693 245.099,330.913 246.546,332.998L249.832,330.716ZM50.168,330.716C51.616,328.631 53.157,326.411 54.73,324.145L58.016,326.426C56.443,328.693 54.901,330.913 53.454,332.998L50.168,330.716ZM240.707,317.574C239.14,315.316 237.599,313.097 236.145,311.002L232.859,313.283C234.313,315.378 235.854,317.598 237.421,319.855L240.707,317.574ZM59.293,317.574C60.86,315.316 62.401,313.097 63.855,311.002L67.141,313.283C65.687,315.378 64.146,317.598 62.579,319.855L59.293,317.574ZM227.381,298.38L226.27,298.38L223.734,300.14C224.474,301.206 226.121,303.578 228.297,306.712L231.582,304.431L227.381,298.38ZM72.619,298.38L73.73,298.38L76.266,300.14C75.526,301.206 73.879,303.578 71.703,306.712L68.418,304.431L72.619,298.38Z" style="fill:#b84303;"/>
        <g transform="matrix(1.50873,0,0,1.50873,-74.6927,-175.538)">
            <g transform="matrix(1.04519,0,0,0.948276,-5.68075,17.8447)">
                <path d="M156.741,312.44C153.679,314.249 150.888,316.435 149.73,320.891C148.393,316.75 145.702,314.305 142.548,312.44L142.548,345L156.741,345L156.741,312.44Z" style="fill:#8b3303;"/>
            </g>
            <g transform="matrix(0.663308,0,0,0.780125,51.5554,77.0748)">
                <path d="M156.741,313.526C156.741,312.926 156.168,312.44 155.463,312.44L143.825,312.44C143.12,312.44 142.548,312.926 142.548,313.526L142.548,343.914C142.548,344.513 143.12,345 143.825,345L155.463,345C156.168,345 156.741,344.513 156.741,343.914L156.741,313.526Z" style="fill:#828282;"/>
            </g>
            <g transform="matrix(1,0,0,1,-1.21793,1.21793)">
                <g transform="matrix(0.965926,0.258819,-0.258819,0.965926,155.734,-33.4552)">
                    <g transform="matrix(0.967365,-0.253389,0.253389,0.967365,-98.2279,67.1838)">
                        <path d="M111.522,314.314L111.522,314.212C111.522,313.727 111.916,313.333 112.402,313.333L114.161,313.333C114.647,313.333 115.041,313.727 115.041,314.212L115.041,316.647C115.041,317.133 114.647,317.527 114.161,317.527L112.402,317.527C111.916,317.527 111.522,317.133 111.522,316.647L111.522,316.545L111.071,316.545C110.779,316.848 110.369,317.036 109.916,317.036C109.029,317.036 108.309,316.316 108.309,315.43C108.309,314.543 109.029,313.823 109.916,313.823C110.369,313.823 110.779,314.011 111.071,314.314L111.522,314.314Z" style="fill:#747474;"/>
                    </g>
                    <g transform="matrix(0.967365,-0.253389,0.253389,0.967365,-98.3232,66.8198)">
                        <path d="M111.522,314.314L111.522,314.212C111.522,313.727 111.916,313.333 112.402,313.333L114.161,313.333C114.647,313.333 115.041,313.727 115.041,314.212L115.041,316.647C115.041,317.133 114.647,317.527 114.161,317.527L112.402,317.527C111.916,317.527 111.522,317.133 111.522,316.647L111.522,316.545L111.071,316.545C110.779,316.848 110.369,317.036 109.916,317.036C109.029,317.036 108.309,316.316 108.309,315.43C108.309,314.543 109.029,313.823 109.916,313.823C110.369,313.823 110.779,314.011 111.071,314.314L111.522,314.314Z" style="fill:#929292;"/>
                    </g>
                </g>
                <g transform="matrix(-0.965926,0.258819,0.258819,0.965926,148.334,-30.4159)">
                    <g transform="matrix(0.967365,-0.253389,0.253389,0.967365,-98.2279,67.1838)">
                        <path d="M111.522,314.314L111.522,314.212C111.522,313.727 111.916,313.333 112.402,313.333L114.161,313.333C114.647,313.333 115.041,313.727 115.041,314.212L115.041,316.647C115.041,317.133 114.647,317.527 114.161,317.527L112.402,317.527C111.916,317.527 111.522,317.133 111.522,316.647L111.522,316.545L111.071,316.545C110.779,316.848 110.369,317.036 109.916,317.036C109.029,317.036 108.309,316.316 108.309,315.43C108.309,314.543 109.029,313.823 109.916,313.823C110.369,313.823 110.779,314.011 111.071,314.314L111.522,314.314Z" style="fill:#747474;"/>
                    </g>
                    <g transform="matrix(0.967365,-0.253389,0.253389,0.967365,-98.3232,66.8198)">
                        <path d="M111.522,314.314L111.522,314.212C111.522,313.727 111.916,313.333 112.402,313.333L114.161,313.333C114.647,313.333 115.041,313.727 115.041,314.212L115.041,316.647C115.041,317.133 114.647,317.527 114.161,317.527L112.402,317.527C111.916,317.527 111.522,317.133 111.522,316.647L111.522,316.545L111.071,316.545C110.779,316.848 110.369,317.036 109.916,317.036C109.029,317.036 108.309,316.316 108.309,315.43C108.309,314.543 109.029,313.823 109.916,313.823C110.369,313.823 110.779,314.011 111.071,314.314L111.522,314.314Z" style="fill:#929292;"/>
                    </g>
                </g>
                <g transform="matrix(0.965926,0.258819,-0.258819,0.965926,155.734,-27.3779)">
                    <g transform="matrix(0.967365,-0.253389,0.253389,0.967365,-98.2279,67.1838)">
                        <path d="M111.522,314.314L111.522,314.212C111.522,313.727 111.916,313.333 112.402,313.333L114.161,313.333C114.647,313.333 115.041,313.727 115.041,314.212L115.041,316.647C115.041,317.133 114.647,317.527 114.161,317.527L112.402,317.527C111.916,317.527 111.522,317.133 111.522,316.647L111.522,316.545L111.071,316.545C110.779,316.848 110.369,317.036 109.916,317.036C109.029,317.036 108.309,316.316 108.309,315.43C108.309,314.543 109.029,313.823 109.916,313.823C110.369,313.823 110.779,314.011 111.071,314.314L111.522,314.314Z" style="fill:#747474;"/>
                    </g>
                    <g transform="matrix(0.967365,-0.253389,0.253389,0.967365,-98.3232,66.8198)">
                        <path d="M111.522,314.314L111.522,314.212C111.522,313.727 111.916,313.333 112.402,313.333L114.161,313.333C114.647,313.333 115.041,313.727 115.041,314.212L115.041,316.647C115.041,317.133 114.647,317.527 114.161,317.527L112.402,317.527C111.916,317.527 111.522,317.133 111.522,316.647L111.522,316.545L111.071,316.545C110.779,316.848 110.369,317.036 109.916,317.036C109.029,317.036 108.309,316.316 108.309,315.43C108.309,314.543 109.029,313.823 109.916,313.823C110.369,313.823 110.779,314.011 111.071,314.314L111.522,314.314Z" style="fill:#929292;"/>
                    </g>
                </g>
                <g transform="matrix(-0.965926,0.258819,0.258819,0.965926,148.334,-24.3386)">
                    <g transform="matrix(0.967365,-0.253389,0.253389,0.967365,-98.2279,67.1838)">
                        <path d="M111.522,314.314L111.522,314.212C111.522,313.727 111.916,313.333 112.402,313.333L114.161,313.333C114.647,313.333 115.041,313.727 115.041,314.212L115.041,316.647C115.041,317.133 114.647,317.527 114.161,317.527L112.402,317.527C111.916,317.527 111.522,317.133 111.522,316.647L111.522,316.545L111.071,316.545C110.779,316.848 110.369,317.036 109.916,317.036C109.029,317.036 108.309,316.316 108.309,315.43C108.309,314.543 109.029,313.823 109.916,313.823C110.369,313.823 110.779,314.011 111.071,314.314L111.522,314.314Z" style="fill:#747474;"/>
                    </g>
                    <g transform="matrix(0.967365,-0.253389,0.253389,0.967365,-98.3232,66.8198)">
                        <path d="M111.522,314.314L111.522,314.212C111.522,313.727 111.916,313.333 112.402,313.333L114.161,313.333C114.647,313.333 115.041,313.727 115.041,314.212L115.041,316.647C115.041,317.133 114.647,317.527 114.161,317.527L112.402,317.527C111.916,317.527 111.522,317.133 111.522,316.647L111.522,316.545L111.071,316.545C110.779,316.848 110.369,317.036 109.916,317.036C109.029,317.036 108.309,316.316 108.309,315.43C108.309,314.543 109.029,313.823 109.916,313.823C110.369,313.823 110.779,314.011 111.071,314.314L111.522,314.314Z" style="fill:#929292;"/>
                    </g>
                </g>
                <g transform="matrix(0.965926,0.258819,-0.258819,0.965926,155.734,-21.2856)">
                    <g transform="matrix(0.967365,-0.253389,0.253389,0.967365,-98.2279,67.1838)">
                        <path d="M111.522,314.314L111.522,314.212C111.522,313.727 111.916,313.333 112.402,313.333L114.161,313.333C114.647,313.333 115.041,313.727 115.041,314.212L115.041,316.647C115.041,317.133 114.647,317.527 114.161,317.527L112.402,317.527C111.916,317.527 111.522,317.133 111.522,316.647L111.522,316.545L111.071,316.545C110.779,316.848 110.369,317.036 109.916,317.036C109.029,317.036 108.309,316.316 108.309,315.43C108.309,314.543 109.029,313.823 109.916,313.823C110.369,313.823 110.779,314.011 111.071,314.314L111.522,314.314Z" style="fill:#747474;"/>
                    </g>
                    <g transform="matrix(0.967365,-0.253389,0.253389,0.967365,-98.3232,66.8198)">
                        <path d="M111.522,314.314L111.522,314.212C111.522,313.727 111.916,313.333 112.402,313.333L114.161,313.333C114.647,313.333 115.041,313.727 115.041,314.212L115.041,316.647C115.041,317.133 114.647,317.527 114.161,317.527L112.402,317.527C111.916,317.527 111.522,317.133 111.522,316.647L111.522,316.545L111.071,316.545C110.779,316.848 110.369,317.036 109.916,317.036C109.029,317.036 108.309,316.316 108.309,315.43C108.309,314.543 109.029,313.823 109.916,313.823C110.369,313.823 110.779,314.011 111.071,314.314L111.522,314.314Z" style="fill:#929292;"/>
                    </g>
                </g>
                <g transform="matrix(-0.965926,0.258819,0.258819,0.965926,148.334,-18.2462)">
                    <g transform="matrix(0.967365,-0.253389,0.253389,0.967365,-98.2279,67.1838)">
                        <path d="M111.522,314.314L111.522,314.212C111.522,313.727 111.916,313.333 112.402,313.333L114.161,313.333C114.647,313.333 115.041,313.727 115.041,314.212L115.041,316.647C115.041,317.133 114.647,317.527 114.161,317.527L112.402,317.527C111.916,317.527 111.522,317.133 111.522,316.647L111.522,316.545L111.071,316.545C110.779,316.848 110.369,317.036 109.916,317.036C109.029,317.036 108.309,316.316 108.309,315.43C108.309,314.543 109.029,313.823 109.916,313.823C110.369,313.823 110.779,314.011 111.071,314.314L111.522,314.314Z" style="fill:#747474;"/>
                    </g>
                    <g transform="matrix(0.967365,-0.253389,0.253389,0.967365,-98.3232,66.8198)">
                        <path d="M111.522,314.314L111.522,314.212C111.522,313.727 111.916,313.333 112.402,313.333L114.161,313.333C114.647,313.333 115.041,313.727 115.041,314.212L115.041,316.647C115.041,317.133 114.647,317.527 114.161,317.527L112.402,317.527C111.916,317.527 111.522,317.133 111.522,316.647L111.522,316.545L111.071,316.545C110.779,316.848 110.369,317.036 109.916,317.036C109.029,317.036 108.309,316.316 108.309,315.43C108.309,314.543 109.029,313.823 109.916,313.823C110.369,313.823 110.779,314.011 111.071,314.314L111.522,314.314Z" style="fill:#929292;"/>
                    </g>
                </g>
                <g transform="matrix(0.965926,0.258819,-0.258819,0.965926,155.734,-15.1963)">
                    <g transform="matrix(0.967365,-0.253389,0.253389,0.967365,-98.2279,67.1838)">
                        <path d="M111.522,314.314L111.522,314.212C111.522,313.727 111.916,313.333 112.402,313.333L114.161,313.333C114.647,313.333 115.041,313.727 115.041,314.212L115.041,316.647C115.041,317.133 114.647,317.527 114.161,317.527L112.402,317.527C111.916,317.527 111.522,317.133 111.522,316.647L111.522,316.545L111.071,316.545C110.779,316.848 110.369,317.036 109.916,317.036C109.029,317.036 108.309,316.316 108.309,315.43C108.309,314.543 109.029,313.823 109.916,313.823C110.369,313.823 110.779,314.011 111.071,314.314L111.522,314.314Z" style="fill:#747474;"/>
                    </g>
                    <g transform="matrix(0.967365,-0.253389,0.253389,0.967365,-98.3232,66.8198)">
                        <path d="M111.522,314.314L111.522,314.212C111.522,313.727 111.916,313.333 112.402,313.333L114.161,313.333C114.647,313.333 115.041,313.727 115.041,314.212L115.041,316.647C115.041,317.133 114.647,317.527 114.161,317.527L112.402,317.527C111.916,317.527 111.522,317.133 111.522,316.647L111.522,316.545L111.071,316.545C110.779,316.848 110.369,317.036 109.916,317.036C109.029,317.036 108.309,316.316 108.309,315.43C108.309,314.543 109.029,313.823 109.916,313.823C110.369,313.823 110.779,314.011 111.071,314.314L111.522,314.314Z" style="fill:#929292;"/>
                    </g>
                </g>
                <g transform="matrix(-0.965926,0.258819,0.258819,0.965926,148.334,-12.1569)">
                    <g transform="matrix(0.967365,-0.253389,0.253389,0.967365,-98.2279,67.1838)">
                        <path d="M111.522,314.314L111.522,314.212C111.522,313.727 111.916,313.333 112.402,313.333L114.161,313.333C114.647,313.333 115.041,313.727 115.041,314.212L115.041,316.647C115.041,317.133 114.647,317.527 114.161,317.527L112.402,317.527C111.916,317.527 111.522,317.133 111.522,316.647L111.522,316.545L111.071,316.545C110.779,316.848 110.369,317.036 109.916,317.036C109.029,317.036 108.309,316.316 108.309,315.43C108.309,314.543 109.029,313.823 109.916,313.823C110.369,313.823 110.779,314.011 111.071,314.314L111.522,314.314Z" style="fill:#747474;"/>
                    </g>
                    <g transform="matrix(0.967365,-0.253389,0.253389,0.967365,-98.3232,66.8198)">
                        <path d="M111.522,314.314L111.522,314.212C111.522,313.727 111.916,313.333 112.402,313.333L114.161,313.333C114.647,313.333 115.041,313.727 115.041,314.212L115.041,316.647C115.041,317.133 114.647,317.527 114.161,317.527L112.402,317.527C111.916,317.527 111.522,317.133 111.522,316.647L111.522,316.545L111.071,316.545C110.779,316.848 110.369,317.036 109.916,317.036C109.029,317.036 108.309,316.316 108.309,315.43C108.309,314.543 109.029,313.823 109.916,313.823C110.369,313.823 110.779,314.011 111.071,314.314L111.522,314.314Z" style="fill:#929292;"/>
                    </g>
                </g>
            </g>
            <path d="M146.109,327.722L146.109,328.583C145.739,328.596 145.444,328.9 145.444,329.272L145.444,331.723C145.444,332.103 145.752,332.412 146.133,332.412L155.629,332.412C156.009,332.412 156.318,332.103 156.318,331.723L156.318,329.272C156.318,328.933 156.073,328.651 155.75,328.594L155.75,327.711C156.073,327.653 156.318,327.371 156.318,327.031L156.318,324.496C156.264,321.236 145.384,321.053 145.444,324.496L145.444,327.031C145.444,327.404 145.739,327.708 146.109,327.722Z" style="fill:#b3b3b3;"/>
            <g transform="matrix(0.951092,-0.308909,0.308909,0.951092,-94.6396,63.2486)">
                <g transform="matrix(1,0,0,1,0,2.58729)">
                    <path d="M154.357,326.783C154.357,325.81 153.568,325.021 152.595,325.021L149.072,325.021C148.099,325.021 147.31,325.81 147.31,326.783L147.31,336.483C147.31,337.456 148.099,338.245 149.072,338.245L152.595,338.245C153.568,338.245 154.357,337.456 154.357,336.483L154.357,326.783ZM150.881,325.774C151.94,325.774 152.8,326.634 152.8,327.693C152.8,328.753 151.94,329.612 150.881,329.612C149.821,329.612 148.961,328.753 148.961,327.693C148.961,326.634 149.821,325.774 150.881,325.774Z" style="fill:#e4e4e4;"/>
                </g>
                <path d="M155.014,334.435C155.014,334.114 154.753,333.853 154.432,333.853L147.408,333.853C147.087,333.853 146.826,334.114 146.826,334.435L146.826,340.947C146.826,341.268 147.087,341.529 147.408,341.529L154.432,341.529C154.753,341.529 155.014,341.268 155.014,340.947L155.014,334.435Z" style="fill:#b84303;"/>
                <g transform="matrix(0.83904,0,0,0.48473,24.2921,175.362)">
                    <path d="M155.014,334.435C155.014,334.114 154.863,333.853 154.678,333.853L147.162,333.853C146.977,333.853 146.826,334.114 146.826,334.435L146.826,340.947C146.826,341.268 146.977,341.529 147.162,341.529L154.678,341.529C154.863,341.529 155.014,341.268 155.014,340.947L155.014,334.435Z" style="fill:#8b3303;"/>
                </g>
            </g>
            <path d="M152.153,323.301C152.153,322.932 151.854,322.632 151.485,322.632L150.147,322.632C149.778,322.632 149.478,322.932 149.478,323.301L149.478,330.834C149.478,331.203 149.778,331.503 150.147,331.503L151.485,331.503C151.854,331.503 152.153,331.203 152.153,330.834L152.153,323.301Z" style="fill:#d5d5d5;"/>
        </g>
    </g>
</svg>
