<?xml version="1.0" encoding="UTF-8" standalone="no"?>
<!DOCTYPE svg PUBLIC "-//W3C//DTD SVG 1.1//EN" "http://www.w3.org/Graphics/SVG/1.1/DTD/svg11.dtd">
<svg width="100%" height="100%" viewBox="0 0 300 345" version="1.1" xmlns="http://www.w3.org/2000/svg" xmlns:xlink="http://www.w3.org/1999/xlink" xml:space="preserve" xmlns:serif="http://www.serif.com/" style="fill-rule:evenodd;clip-rule:evenodd;stroke-linejoin:round;stroke-miterlimit:2;">
    <g id="avatar_clothing_45">
        <path d="M300,262.01L300,308.62C300,328.577 283.577,345 263.62,345L36.38,345C16.423,345 -0,328.577 -0,308.62L-0,285.901L-0,285.901L-0,262.01C-0,281.967 16.423,298.39 36.38,298.39L147.143,298.39L147.143,298.38L155.221,298.38L155.221,298.39L263.62,298.39C283.577,298.39 300,281.967 300,262.01Z" style="fill:#4c4c4c;fill-rule:nonzero;"/>
        <path d="M150,286.629C150,286.629 234.798,294.978 234.798,294.978L239.292,298.389L247.755,298.39C252.273,315.234 260.395,330.502 282.52,339.643C276.996,343.037 270.519,345 263.62,345L36.38,345C29.481,345 23.004,343.037 17.48,339.643C39.605,330.502 47.727,315.234 52.245,298.39L60.708,298.389L65.202,294.978L150,286.629ZM7.491,330.625C2.8,324.498 -0,316.86 -0,308.62L-0,262.01C-0,281.967 16.423,298.39 36.38,298.39L7.491,330.625ZM292.509,330.625C297.2,324.498 300,316.86 300,308.62L300,262.01C300,281.967 283.577,298.39 263.62,298.39L292.509,330.625Z" style="fill:#a0a0a0;fill-rule:nonzero;"/>
        <path d="M24.104,296.233C27.946,297.628 32.081,298.39 36.38,298.39L7.491,330.625C5.316,327.784 3.547,324.618 2.276,321.218L24.104,296.233ZM274.972,296.554C271.392,297.745 267.576,298.39 263.62,298.39L292.509,330.625C294.388,328.17 295.964,325.474 297.178,322.593L274.972,296.554Z" style="fill:#828282;fill-rule:nonzero;"/>
        <path d="M150,286.629L150,345L253.094,345L234.798,294.978L150,286.629Z" style="fill:#b3b3b3;"/>
        <path d="M65.202,294.978L60.708,298.389L43.478,345L47.03,345L65.202,294.978Z" style="fill:#828282;"/>
        <g transform="matrix(-1,0,0,1,300,0)">
            <path d="M65.202,294.978L60.708,298.389L43.478,345L47.03,345L65.202,294.978Z" style="fill:#828282;"/>
        </g>
        <path d="M253.114,298.373L245.13,298.373C245.251,298.486 245.381,298.594 245.519,298.693C248.898,318.444 260.685,332.499 279.957,341.751C281.936,342.702 284.027,342.525 285.414,340.873C285.735,340.489 286.973,338.634 285.458,337.651C267.846,329.465 256.109,314.911 253.114,298.373ZM46.951,298.373L54.935,298.373C54.814,298.486 54.684,298.594 54.546,298.693C51.167,318.444 39.38,332.499 20.108,341.751C18.128,342.702 16.038,342.525 14.651,340.873C14.329,340.489 13.091,338.634 14.606,337.651C32.218,329.465 43.956,314.911 46.951,298.373ZM29.339,297.697C31.622,298.152 33.975,298.39 36.38,298.39L39.809,298.39L10.088,333.237C8.581,335.004 5.923,335.215 4.156,333.708C2.389,332.201 2.178,329.542 3.685,327.776L29.339,297.697ZM270.661,297.697L296.315,327.776C297.822,329.542 297.611,332.201 295.844,333.708C294.077,335.215 291.419,335.004 289.912,333.237L260.191,298.39L263.62,298.39C266.025,298.39 268.378,298.152 270.661,297.697Z" style="fill:#eb9e25;"/>
        <path d="M253.114,298.373L245.13,298.373C245.251,298.486 245.381,298.594 245.519,298.693C248.898,318.444 260.685,332.499 279.957,341.751C281.936,342.702 284.027,342.525 285.414,340.873C285.735,340.489 286.973,338.634 285.458,337.651C267.846,329.465 256.109,314.911 253.114,298.373ZM46.951,298.373L54.935,298.373C54.814,298.486 54.684,298.594 54.546,298.693C51.167,318.444 39.38,332.499 20.108,341.751C18.128,342.702 16.038,342.525 14.651,340.873C14.329,340.489 13.091,338.634 14.606,337.651C32.218,329.465 43.956,314.911 46.951,298.373ZM29.339,297.697C31.622,298.152 33.975,298.39 36.38,298.39L39.809,298.39L10.088,333.237C8.581,335.004 5.923,335.215 4.156,333.708C2.389,332.201 2.178,329.542 3.685,327.776L29.339,297.697ZM270.661,297.697L296.315,327.776C297.822,329.542 297.611,332.201 295.844,333.708C294.077,335.215 291.419,335.004 289.912,333.237L260.191,298.39L263.62,298.39C266.025,298.39 268.378,298.152 270.661,297.697Z" style="fill:#eb9e25;"/>
        <path d="M245.049,340.744L230.75,300.942L166.102,294.228L167.109,340.744L245.049,340.744Z" style="fill:#ccc;"/>
        <g transform="matrix(-1,0,0,1,299.872,0)">
            <path d="M245.049,340.744L230.75,300.942L210.999,298.891L222.139,340.744L245.049,340.744Z" style="fill:#8e8e8e;"/>
        </g>
        <path d="M228.987,304.161L240.124,336.849L211.033,302.057L228.987,304.161Z" style="fill:#ddd;"/>
        <g transform="matrix(1,0,0,1,0.405466,-0.722757)">
            <path d="M23.438,316.578L33.916,304.131C34.45,303.498 34.368,302.551 33.735,302.018C33.102,301.485 32.155,301.566 31.621,302.199L21.143,314.646C20.61,315.279 20.692,316.226 21.325,316.759C21.958,317.292 22.905,317.211 23.438,316.578Z" style="fill:#ffbf00;"/>
        </g>
        <g transform="matrix(1,0,0,1,-0.593944,0)">
            <path d="M284.948,337.886C266.016,329.001 256.727,314.416 253.459,302.059C253.247,301.259 252.425,300.781 251.625,300.992C250.825,301.204 250.347,302.026 250.558,302.826C254.001,315.84 263.735,331.244 283.674,340.602C284.423,340.953 285.317,340.63 285.669,339.881C286.021,339.132 285.698,338.238 284.948,337.886Z" style="fill:#ffbf00;"/>
        </g>
        <path d="M268.66,301.1L293.973,331.09C294.507,331.723 295.454,331.803 296.087,331.269C296.719,330.735 296.799,329.788 296.265,329.155L270.953,299.165C270.419,298.533 269.471,298.452 268.839,298.986C268.206,299.52 268.126,300.468 268.66,301.1Z" style="fill:#ffbf00;"/>
        <path d="M49.894,303.11C46.883,314.135 40.703,323.203 31.362,330.464C30.708,330.972 30.59,331.915 31.098,332.569C31.606,333.222 32.549,333.341 33.203,332.833C43.081,325.154 49.604,315.558 52.788,303.9C53.007,303.102 52.535,302.276 51.737,302.058C50.938,301.84 50.113,302.311 49.894,303.11Z" style="fill:#ffbf00;"/>
    </g>
</svg>
