<?xml version="1.0" encoding="UTF-8" standalone="no"?>
<!DOCTYPE svg PUBLIC "-//W3C//DTD SVG 1.1//EN" "http://www.w3.org/Graphics/SVG/1.1/DTD/svg11.dtd">
<svg width="100%" height="100%" viewBox="0 0 300 345" version="1.1" xmlns="http://www.w3.org/2000/svg" xmlns:xlink="http://www.w3.org/1999/xlink" xml:space="preserve" xmlns:serif="http://www.serif.com/" style="fill-rule:evenodd;clip-rule:evenodd;stroke-linejoin:round;">
    <g id="avatar_item_26" transform="matrix(0.538371,-0.0949244,0.0949244,0.538371,-62.5392,193.923)">
        <g transform="matrix(0.895288,1.25909e-16,1.40635e-16,4.46065,17.3103,-1190)">
            <path d="M162.469,295.267C162.469,294.48 159.282,293.84 155.357,293.84L141.133,293.84C137.207,293.84 134.02,294.48 134.02,295.267L134.02,332.485C134.02,333.273 137.207,333.913 141.133,333.913L155.357,333.913C159.282,333.913 162.469,333.273 162.469,332.485L162.469,295.267Z" style="fill:#8e5900;"/>
        </g>
        <g transform="matrix(1.46415,-5.95003e-17,5.95003e-17,1.46415,-69.6219,-180.096)">
            <path d="M158.72,319.258L141.324,319.258L141.324,321.45L158.72,321.45L158.72,319.258ZM158.72,314.214L141.324,314.214L141.324,316.406L158.72,316.406L158.72,314.214ZM158.72,308.6L141.324,308.6L141.324,310.793L158.72,310.793L158.72,308.6ZM158.72,303.649L141.324,303.649L141.324,305.842L158.72,305.842L158.72,303.649ZM158.72,298.605L141.324,298.605L141.324,300.797L158.72,300.797L158.72,298.605ZM158.72,292.991L141.324,292.991L141.324,295.184L158.72,295.184L158.72,292.991Z" style="fill:#a4a4a4;"/>
        </g>
        <g transform="matrix(1.46415,-5.95003e-17,5.95003e-17,1.46415,-69.6219,-171.333)">
            <path d="M150.101,272.273L158.72,267.297L158.72,269.829L152.294,273.539L158.72,277.249L158.72,279.781L150.101,274.805L141.324,279.872L141.324,277.34L147.908,273.539L141.324,269.737L141.324,267.205L150.101,272.273ZM150.101,248.877L158.72,243.9L158.72,246.432L152.294,250.142L158.72,253.853L158.72,256.384L150.101,251.408L141.324,256.476L141.324,253.944L147.908,250.142L141.324,246.341L141.324,243.809L150.101,248.877Z" style="fill:#694200;"/>
        </g>
        <g transform="matrix(1.46415,-5.95003e-17,5.95003e-17,1.46415,-69.6219,-180.096)">
            <path d="M172.203,262.529C202.474,258.98 207.366,222.713 197.504,207.303C197.504,207.303 190.694,213.56 179.855,213.56C157.643,213.56 134.059,212.998 134.059,212.998C129.985,213.03 126.78,212.368 124.563,210.914C118.897,220.749 119.94,232.635 126.787,241.82L133.487,241.915C132.999,235.374 134.369,230.853 138.431,230.65L158.72,231.201C167.411,231.445 176.075,235.848 167.561,252.454C170.441,254.843 172.518,257.816 172.203,262.529Z" style="fill:#a4a4a4;"/>
        </g>
        <g transform="matrix(1.46415,-5.95003e-17,5.95003e-17,1.46415,-69.6219,-180.096)">
            <path d="M190.97,216.934L194.325,218.431L191.56,220.858C190.97,221.322 190.997,222.132 191.713,222.467L193.991,223.579L191.832,224.685C192.156,236.263 187.734,245.862 177.688,253.119C177.62,253.167 177.484,253.265 177.484,253.265L177.518,255.956L175.043,254.893C175.043,254.893 174.893,254.986 174.818,255.033C173.697,255.724 172.519,256.39 171.281,257.032C171.281,257.032 172.348,260.368 172.203,262.529C202.474,258.98 207.366,222.713 197.504,207.303L189.765,211.749C190.25,213.512 190.652,215.242 190.97,216.934Z" style="fill:#b8b8b8;"/>
        </g>
        <g transform="matrix(-1.46415,-1.19806e-16,1.52481e-16,-1.86347,370.454,616.252)">
            <path d="M158.72,243.096L142.328,243.096L146.426,235.784L154.622,235.784L158.72,243.096Z" style="fill:#a4a4a4;"/>
        </g>
        <g transform="matrix(1.12182,-4.55888e-17,5.03588e-17,1.2392,-15.2879,-130.76)">
            <rect x="136.049" y="237.283" width="22.671" height="3.302" style="fill:#252525;fill-opacity:0.5;"/>
        </g>
        <g transform="matrix(1.46415,-5.95003e-17,5.95003e-17,1.46415,-69.6219,-180.096)">
            <path d="M160.109,213.438L160.109,231.277C160.951,231.346 161.784,231.459 162.592,231.623L162.592,213.465C161.756,213.456 160.928,213.447 160.109,213.438ZM139.101,213.106L138.327,213.091L138.327,230.656C138.362,230.654 138.396,230.652 138.431,230.65L140.81,230.715L140.81,213.14L140.207,213.128C139.838,213.121 139.469,213.114 139.101,213.106Z" style="fill:#252525;fill-opacity:0.2;"/>
        </g>
        <g transform="matrix(1.41625,-5.75538e-17,5.95003e-17,1.46415,-62.9776,-180.096)">
            <path d="M162.137,213.223C162.137,211.723 160.877,210.505 159.326,210.505L141.529,210.505C139.978,210.505 138.719,211.723 138.719,213.223L138.719,232.423C138.719,233.924 139.978,235.142 141.529,235.142L159.326,235.142C160.877,235.142 162.137,233.924 162.137,232.423L162.137,213.223Z" style="fill:#b8b8b8;"/>
        </g>
        <g>
            <g transform="matrix(1.16057,-4.71636e-17,4.87586e-17,1.19982,-24.5168,-121.199)">
                <path d="M162.767,213.223C162.767,211.386 161.225,209.895 159.326,209.895L141.529,209.895C139.63,209.895 138.088,211.386 138.088,213.223L138.088,232.423C138.088,234.26 139.63,235.752 141.529,235.752L159.326,235.752C161.226,235.752 162.767,234.26 162.767,232.423L162.767,213.223ZM161.506,213.223L161.506,232.423C161.506,233.587 160.529,234.531 159.326,234.531C159.326,234.531 141.529,234.531 141.529,234.531C140.326,234.531 139.349,233.587 139.349,232.423C139.349,232.423 139.349,213.223 139.349,213.223C139.349,212.059 140.326,211.115 141.529,211.115C141.529,211.115 159.326,211.115 159.326,211.115C160.529,211.115 161.506,212.059 161.506,213.223Z" style="fill:#8c8c8c;"/>
            </g>
            <g transform="matrix(1.46415,-5.95003e-17,5.95003e-17,1.46415,-60.338,-178.796)">
                <path d="M144.013,213.895C143.817,213.7 143.501,213.7 143.306,213.895L135.619,221.582C135.424,221.777 135.424,222.094 135.619,222.289L143.306,229.976C143.501,230.171 143.817,230.171 144.013,229.976L151.699,222.289C151.895,222.094 151.895,221.777 151.699,221.582L144.013,213.895ZM143.659,214.956L150.639,221.935C150.639,221.935 143.659,228.915 143.659,228.915C143.659,228.915 136.68,221.935 136.68,221.935L143.659,214.956Z" style="fill:#8c8c8c;"/>
            </g>
            <g transform="matrix(1.72035,0.303329,-0.303329,1.72035,174.973,-310.687)">
                <path d="M31.367,254.019C28.056,254.019 25.368,256.707 25.368,260.018C25.368,263.328 28.056,266.016 31.367,266.016C34.678,266.016 37.366,263.328 37.366,260.018C37.366,256.707 34.678,254.019 31.367,254.019ZM31.367,254.542C34.389,254.542 36.843,256.996 36.843,260.018C36.843,263.039 34.389,265.493 31.367,265.493C28.345,265.493 25.892,263.039 25.892,260.018C25.892,256.996 28.345,254.542 31.367,254.542Z" style="fill:#8c8c8c;"/>
            </g>
            <g transform="matrix(1.46415,-5.55112e-17,5.55112e-17,1.46415,-69.6219,-180.096)">
                <path d="M189.541,213.462C189.506,213.269 189.381,213.103 189.205,213.015C189.029,212.928 188.822,212.928 188.646,213.017C187.051,213.821 182.691,214.296 180.357,214.314C180.357,214.314 163.434,214.314 163.434,214.314C163.089,214.314 162.809,214.594 162.809,214.939L162.809,229.207C162.809,229.485 162.993,229.73 163.261,229.807C166.868,230.845 169.495,232.555 170.993,235.016C173.269,238.754 172.926,244.149 169.718,251.333C169.605,251.585 169.671,251.881 169.88,252.061C170.863,252.909 171.129,253.545 171.675,254.999C171.741,255.174 171.882,255.311 172.059,255.371C172.236,255.431 172.431,255.408 172.59,255.31C187.402,246.096 192.948,232.092 189.541,213.462ZM188.445,214.438C191.417,231.846 186.243,245.04 172.569,253.845C172.139,252.772 171.781,252.137 171.041,251.427C174.299,243.945 174.452,238.295 172.06,234.366C170.479,231.77 167.782,229.894 164.058,228.741C164.058,228.741 164.058,215.564 164.058,215.564L180.365,215.564C182.546,215.547 186.381,215.12 188.445,214.438L188.445,214.438Z" style="fill:#8c8c8c;"/>
            </g>
            <g transform="matrix(1.80145,0.317628,-0.317628,1.80145,174.257,-329.479)">
                <path d="M55.363,256.945C53.386,256.28 51.29,255.858 49.144,255.625C50.516,254.792 51.324,253.834 51.671,252.799C52.132,251.427 51.806,249.881 50.8,248.21L49.944,248.726C50.769,250.097 51.102,251.354 50.724,252.48C50.339,253.626 49.239,254.601 47.329,255.436L47.345,255.473C45.774,255.377 44.187,255.372 42.608,255.438L42.649,256.437C44.256,256.37 45.874,256.376 47.472,256.48C48.208,257.025 49.065,258.037 49.551,259.23C50.071,260.511 50.155,262.014 49.11,263.37L49.902,263.981C51.197,262.3 51.122,260.441 50.477,258.854C50.131,258.001 49.617,257.232 49.074,256.618C51.1,256.838 53.078,257.232 54.946,257.851L54.934,257.864C56.542,259.396 57.331,261.649 57.457,264.389C57.655,268.657 56.248,274.079 53.678,279.899L54.593,280.303C57.236,274.316 58.659,268.733 58.456,264.343C58.352,262.071 57.812,260.111 56.8,258.558C59.292,259.643 61.528,261.202 63.338,263.375L64.107,262.735C62.089,260.312 59.566,258.611 56.752,257.461C61.225,255.393 62.42,251.203 61.875,245.895L60.88,245.997C61.413,251.18 60.211,255.238 55.363,256.945Z" style="fill:#8c8c8c;"/>
            </g>
            <g transform="matrix(1.46415,-5.55112e-17,5.55112e-17,1.46415,-107.719,-180.096)">
                <path d="M164.058,214.937C164.057,214.598 163.785,214.322 163.446,214.315L156.544,214.174C154.45,214.094 152.944,213.669 151.784,213.028C151.635,212.946 151.459,212.928 151.297,212.978C151.135,213.028 151,213.143 150.924,213.295C146.56,222.008 147.831,231.238 152.824,240.071C152.938,240.272 153.153,240.394 153.384,240.389L157.157,240.292C157.326,240.287 157.487,240.214 157.602,240.089C157.716,239.964 157.775,239.797 157.764,239.628C157.404,233.981 159.288,230.428 163.653,229.143C163.919,229.064 164.102,228.819 164.101,228.542L164.058,214.937ZM162.811,215.551L162.85,228.086C158.398,229.586 156.276,233.256 156.485,239.059C156.485,239.059 153.729,239.13 153.729,239.13C149.211,230.972 147.977,222.476 151.767,214.418C152.977,214.973 154.496,215.346 156.501,215.423L162.811,215.551Z" style="fill:#8c8c8c;"/>
            </g>
            <g transform="matrix(1.80145,0.317628,-0.317628,1.80145,174.257,-329.479)">
                <path d="M14.831,254.801C14.674,257.531 16.057,259.807 18.822,260.554C14.745,264.88 15.634,269.57 18.027,274.523" style="fill:none;stroke:#8c8c8c;stroke-width:1px;"/>
            </g>
            <g transform="matrix(1.80145,0.317628,-0.317628,1.80145,174.257,-329.479)">
                <path d="M22.023,259.369L10.783,261.438L10.964,262.422L22.204,260.353L22.023,259.369Z" style="fill:#8c8c8c;"/>
            </g>
        </g>
        <g transform="matrix(1.46415,-5.95003e-17,5.95003e-17,1.46415,-69.6219,-180.096)">
            <path d="M195.296,209.462L197.113,208.392C207.257,232.561 194.859,258.22 173.339,261.331C195.803,256.021 205.068,229.025 195.296,209.462Z" style="fill:#c7c7c7;"/>
        </g>
    </g>
</svg>
