<?xml version="1.0" encoding="UTF-8" standalone="no"?>
<!DOCTYPE svg PUBLIC "-//W3C//DTD SVG 1.1//EN" "http://www.w3.org/Graphics/SVG/1.1/DTD/svg11.dtd">
<svg width="100%" height="100%" viewBox="0 0 300 345" version="1.1" xmlns="http://www.w3.org/2000/svg" xmlns:xlink="http://www.w3.org/1999/xlink" xml:space="preserve" xmlns:serif="http://www.serif.com/" style="fill-rule:evenodd;clip-rule:evenodd;stroke-linejoin:round;stroke-miterlimit:2;">
    <g id="avatar_item_27" transform="matrix(0.58021,-0.186037,0.186037,0.58021,-91.2695,139.326)">
        <g>
            <g transform="matrix(1.31677,0,0,1,-41.6605,72.2711)">
                <path d="M152.766,157.026C152.698,150.727 150.872,146.049 147.541,142.758L122.37,118.869C117.734,114.173 112.812,116.679 113.175,125.46L113.175,256.967L152.766,256.967L152.766,157.026Z" style="fill:#7ae03b;"/>
            </g>
            <g transform="matrix(1.13052,0,0,0.961475,-17.1428,82.1708)">
                <path d="M152.766,154.826C152.698,148.527 150.872,143.849 147.541,140.559L122.37,118.869C117.734,114.173 112.812,116.679 113.175,125.46L113.175,256.967L152.766,256.967L152.766,154.826Z" style="fill:#24b422;"/>
            </g>
            <g transform="matrix(0.86357,0,0,0.898433,18.7204,98.3704)">
                <path d="M152.766,151.239C152.698,144.94 150.872,140.262 147.541,136.971L122.37,118.869C116.451,114.958 112.812,116.679 113.175,125.46L113.175,256.967L152.766,256.967L152.766,151.239Z" style="fill:#92e863;"/>
            </g>
            <g transform="matrix(0.646282,0,0,0.824884,48.2259,117.27)">
                <path d="M152.766,145.888C152.698,139.589 150.872,134.911 147.541,131.62L122.37,115.9C116.238,112.297 112.812,113.709 113.175,122.49L113.175,256.967L152.766,256.967L152.766,145.888Z" style="fill:#d5f6c0;"/>
            </g>
        </g>
        <g>
            <g transform="matrix(1,0,0,0.60557,-0.434438,182.151)">
                <path d="M167.846,246.547C167.846,245.761 167.46,245.124 166.984,245.124L100.746,245.124C100.271,245.124 99.885,245.761 99.885,246.547L99.885,256.668C99.885,257.454 100.271,258.091 100.746,258.091L166.984,258.091C167.46,258.091 167.846,257.454 167.846,256.668L167.846,246.547Z" style="fill:#4f687b;"/>
                <path d="M171.128,246.547C171.128,242.77 169.271,239.703 166.984,239.703L100.746,239.703C98.459,239.703 96.602,242.77 96.602,246.547C96.602,246.547 96.602,256.668 96.602,256.668C96.602,260.445 98.459,263.512 100.746,263.512C100.746,263.512 166.984,263.512 166.984,263.512C169.271,263.512 171.128,260.445 171.128,256.668L171.128,246.547ZM167.846,246.547C167.846,245.761 167.46,245.124 166.984,245.124L100.746,245.124C100.271,245.124 99.885,245.761 99.885,246.547L99.885,256.668C99.885,257.454 100.271,258.091 100.746,258.091L166.984,258.091C167.46,258.091 167.846,257.454 167.846,256.668L167.846,246.547Z" style="fill:#6a8091;"/>
            </g>
            <g transform="matrix(1.23976e-17,0.202468,-1.23036,7.53379e-17,443.306,348.106)">
                <rect x="99.885" y="245.124" width="67.961" height="12.968" style="fill:#4f687b;"/>
            </g>
            <g transform="matrix(4.51977e-18,0.0738135,-1.67698,1.02685e-16,555.678,374.296)">
                <path d="M167.846,245.452C167.846,245.271 164.504,245.124 160.387,245.124L107.344,245.124C103.227,245.124 99.885,245.271 99.885,245.452L99.885,257.763C99.885,257.944 103.227,258.091 107.344,258.091L160.387,258.091C164.504,258.091 167.846,257.944 167.846,257.763L167.846,245.452Z" style="fill:#343434;"/>
            </g>
            <g transform="matrix(3.79277e-17,0.619406,-1.67698,1.02685e-16,555.678,272.647)">
                <path d="M167.846,246.547C167.846,245.761 166.119,245.124 163.992,245.124L103.738,245.124C101.611,245.124 99.885,245.761 99.885,246.547L99.885,256.668C99.885,257.454 101.611,258.091 103.738,258.091L163.992,258.091C166.119,258.091 167.846,257.454 167.846,256.668L167.846,246.547Z" style="fill:#343434;"/>
            </g>
            <g transform="matrix(2.20561e-18,0.0360203,-1.67698,1.02685e-16,555.678,366.317)">
                <rect x="99.885" y="245.124" width="67.961" height="12.968" style="fill:#8a9fb0;"/>
            </g>
            <g transform="matrix(2.20561e-18,0.0360203,-1.67698,1.02685e-16,555.678,360.777)">
                <rect x="99.885" y="245.124" width="67.961" height="12.968" style="fill:#8a9fb0;"/>
            </g>
            <g transform="matrix(1,0,0,1,-16.5692,74.5457)">
                <path d="M111.251,263.897L121.928,231.858L121.928,256.044L177.934,256.044L177.934,231.858L188.611,263.897L111.251,263.897Z" style="fill:#4f687b;"/>
            </g>
            <g transform="matrix(1,0,0,1,-16.5692,74.5457)">
                <path d="M175.934,254.044L175.934,231.858C175.934,230.877 176.645,230.04 177.614,229.883C178.582,229.726 179.521,230.295 179.831,231.225L190.508,263.265C190.712,263.875 190.609,264.545 190.233,265.067C189.857,265.588 189.254,265.897 188.611,265.897L111.251,265.897C110.608,265.897 110.005,265.588 109.629,265.067C109.253,264.545 109.151,263.875 109.354,263.265L120.031,231.225C120.341,230.295 121.28,229.726 122.248,229.883C123.217,230.04 123.928,230.877 123.928,231.858L123.928,254.044L175.934,254.044ZM188.611,263.897L111.251,263.897L121.928,231.858L121.928,256.081L177.934,256.081L177.934,231.858L188.611,263.897Z" style="fill:#6a8091;"/>
            </g>
            <g transform="matrix(1,0,0,1.14015,12.7331,47.458)">
                <path d="M120.698,174.246L133.431,251.627L120.698,270.632L107.965,251.627L120.698,174.246Z" style="fill:#8a9fb0;"/>
            </g>
            <g transform="matrix(1,0,0,1.14015,12.7331,47.458)">
                <path d="M122.677,173.995C122.535,173.132 121.692,172.491 120.698,172.491C119.703,172.491 118.86,173.132 118.718,173.995L105.985,251.377C105.92,251.771 106.01,252.173 106.24,252.516L118.973,271.521C119.333,272.057 119.989,272.387 120.698,272.387C121.407,272.387 122.063,272.057 122.422,271.521L135.155,252.516C135.385,252.173 135.475,251.771 135.41,251.377L122.677,173.995ZM120.698,174.246L133.431,251.627L120.698,270.632L107.965,251.627L120.698,174.246Z" style="fill:#6a8091;"/>
            </g>
            <g transform="matrix(1,0,0,1,0,73.6236)">
                <path d="M133.431,282.395L133.431,172.5" style="fill:none;"/>
            </g>
            <g transform="matrix(1,0,0,1,0,73.6236)">
                <path d="M134.431,282.395L134.431,172.5C134.431,171.948 133.983,171.5 133.431,171.5C132.879,171.5 132.431,171.948 132.431,172.5L132.431,282.395C132.431,282.947 132.879,283.395 133.431,283.395C133.983,283.395 134.431,282.947 134.431,282.395Z" style="fill:#6a8091;"/>
            </g>
        </g>
    </g>
</svg>
