<?xml version="1.0" encoding="UTF-8" standalone="no"?>
<!DOCTYPE svg PUBLIC "-//W3C//DTD SVG 1.1//EN" "http://www.w3.org/Graphics/SVG/1.1/DTD/svg11.dtd">
<svg width="100%" height="100%" viewBox="0 0 300 345" version="1.1" xmlns="http://www.w3.org/2000/svg" xmlns:xlink="http://www.w3.org/1999/xlink" xml:space="preserve" xmlns:serif="http://www.serif.com/" style="fill-rule:evenodd;clip-rule:evenodd;stroke-linejoin:round;stroke-miterlimit:2;">
    <g id="avatar_item_35" transform="matrix(0.98665,0.162853,-0.162853,0.98665,-49.1726,-25.8455)">
        <g>
            <g transform="matrix(0.959275,0,0,0.887373,6.23189,39.3722)">
                <ellipse cx="153.025" cy="322.033" rx="46.545" ry="12.916" style="fill:#c1f8ff;"/>
            </g>
            <path d="M197.675,325.135L197.675,323.312L195.675,325.135C195.675,325.62 195.369,326.052 194.935,326.502C194.217,327.248 193.149,327.941 191.801,328.608C184.535,332.205 169.885,334.597 153.025,334.597C136.166,334.597 121.516,332.205 114.25,328.608C112.902,327.941 111.833,327.248 111.116,326.502C110.682,326.052 110.376,325.62 110.376,325.135L108.376,322.587L108.376,325.135C108.376,331.461 128.382,336.597 153.025,336.597C177.668,336.597 197.675,331.461 197.675,325.135Z" style="fill:#abf5ff;"/>
            <g transform="matrix(1,0,0,0.925045,0,23.1698)">
                <ellipse cx="153.025" cy="322.033" rx="46.545" ry="12.916" style="fill:#e6fcff;"/>
            </g>
            <path d="M160.606,309.274C172.146,309.761 182.263,311.338 189.293,313.578L150.584,332.997C138.757,332.839 128.093,331.547 120.216,329.536L160.606,309.274ZM194.769,315.776C196.862,316.862 198.332,318.042 199.056,319.284L174.327,331.689C170.126,332.246 165.555,332.643 160.735,332.849L194.769,315.776Z" style="fill:#fff;"/>
            <path d="M194.769,315.776C196.862,316.862 198.332,318.042 199.056,319.284L174.327,331.689C170.126,332.246 165.555,332.643 160.735,332.849L194.769,315.776ZM194.755,316.902C195.935,317.55 196.878,318.221 197.539,318.926C197.539,318.926 174.029,330.72 174.029,330.72C171.329,331.074 168.476,331.362 165.504,331.575C165.506,331.575 194.755,316.902 194.755,316.902L194.755,316.902ZM160.606,309.274C172.146,309.761 182.263,311.338 189.293,313.578L150.584,332.997C138.757,332.839 128.093,331.547 120.216,329.536L160.606,309.274ZM160.823,310.285C170.892,310.724 179.855,311.997 186.577,313.822C186.577,313.822 150.354,331.993 150.354,331.993C139.997,331.842 130.549,330.816 123.125,329.196C123.125,329.196 160.823,310.285 160.823,310.285L160.823,310.285Z" style="fill:#fff;"/>
            <g transform="matrix(1,0,0,0.925045,0,23.1698)">
                <path d="M153.025,309.116C178.715,309.116 199.571,314.904 199.571,322.033C199.571,329.161 178.715,334.949 153.025,334.949C127.336,334.949 106.48,329.161 106.48,322.033C106.48,314.904 127.336,309.116 153.025,309.116ZM153.025,311.278C170.617,311.278 185.903,313.98 193.485,318.037C194.901,318.794 196.022,319.582 196.776,320.429C197.245,320.956 197.571,321.466 197.571,322.033C197.571,322.6 197.245,323.109 196.776,323.636C196.022,324.484 194.901,325.271 193.485,326.029C185.903,330.085 170.617,332.787 153.025,332.787C135.433,332.787 120.148,330.085 112.566,326.029C111.15,325.271 110.029,324.484 109.275,323.636C108.806,323.109 108.48,322.6 108.48,322.033C108.48,321.466 108.806,320.956 109.275,320.429C110.029,319.582 111.15,318.794 112.566,318.037C120.148,313.98 135.433,311.278 153.025,311.278Z" style="fill:#abf5ff;"/>
            </g>
            <g transform="matrix(0.766246,0,0,0.553828,35.7703,142.476)">
                <ellipse cx="153.025" cy="322.033" rx="46.545" ry="12.916" style="fill:#c1f8ff;"/>
            </g>
            <g transform="matrix(0.766246,0,0,0.553828,35.7703,142.476)">
                <path d="M153.025,309.116C178.715,309.116 199.571,314.904 199.571,322.033C199.571,329.161 178.715,334.949 153.025,334.949C127.336,334.949 106.48,329.161 106.48,322.033C106.48,314.904 127.336,309.116 153.025,309.116ZM153.025,310.922C170.802,310.922 186.24,313.684 193.902,317.783C195.407,318.589 196.593,319.431 197.394,320.332C197.903,320.904 198.266,321.418 198.266,322.033C198.266,322.648 197.903,323.162 197.394,323.734C196.593,324.635 195.407,325.477 193.902,326.282C186.24,330.382 170.802,333.143 153.025,333.143C135.249,333.143 119.811,330.382 112.149,326.282C110.644,325.477 109.458,324.635 108.657,323.734C108.148,323.162 107.785,322.648 107.785,322.033C107.785,321.418 108.148,320.904 108.657,320.332C109.458,319.431 110.644,318.589 112.149,317.783C119.811,313.684 135.249,310.922 153.025,310.922Z" style="fill:#abf5ff;"/>
            </g>
        </g>
        <g>
            <g>
                <path d="M179.068,314.607C179.294,314.047 179.766,313.55 180.242,313.225C181.959,312.052 184.223,311.906 186.179,311.369C191.374,309.94 195.587,307.451 197.479,302.081C198.015,300.561 198.272,298.986 198.184,297.372C198.076,295.408 197.412,293.479 196.311,291.85C193.524,287.724 188.271,285.79 183.775,288.505C179.327,291.19 178.255,297.774 183.388,300.446C184.367,300.956 185.576,300.575 186.086,299.596C186.596,298.617 186.214,297.408 185.235,296.898C183.085,295.778 183.979,293.054 185.842,291.929C188.432,290.365 191.391,291.713 192.997,294.089C193.695,295.123 194.122,296.345 194.19,297.591C194.249,298.674 194.066,299.731 193.707,300.752C192.293,304.764 189,306.445 185.119,307.512C182.751,308.163 180.063,308.503 177.986,309.922C176.47,310.958 175.159,312.819 174.958,314.69C174.79,316.261 175.407,317.621 176.316,318.245C177.061,318.756 178.115,319.027 179.505,318.373C180.504,317.902 180.933,316.709 180.462,315.711C180.185,315.123 179.659,314.733 179.068,314.607Z" style="fill:#e6fcff;"/>
                <path d="M188.734,289.556C191.561,289.758 194.265,291.605 195.574,294.134C196.454,295.834 196.728,297.927 196.417,299.793C196.372,300.065 196.556,300.323 196.828,300.368C197.1,300.414 197.358,300.23 197.403,299.957C197.749,297.885 197.44,295.562 196.462,293.674C194.998,290.844 191.969,288.784 188.805,288.559C188.53,288.539 188.29,288.747 188.271,289.022C188.251,289.297 188.459,289.537 188.734,289.556Z" style="fill:#fff;"/>
                <path d="M192.385,305.903C190.401,307.312 188.425,308.501 186.074,309.236C185.811,309.318 185.664,309.599 185.746,309.863C185.829,310.126 186.109,310.273 186.373,310.191C188.827,309.424 190.893,308.189 192.964,306.719C193.189,306.559 193.242,306.246 193.082,306.021C192.922,305.796 192.61,305.743 192.385,305.903Z" style="fill:#fff;"/>
                <path d="M179.791,314.338C179.995,314.059 180.26,313.818 180.525,313.638C182.196,312.496 184.407,312.374 186.311,311.851C191.671,310.377 195.999,307.787 197.951,302.247C198.509,300.664 198.775,299.025 198.683,297.345C198.571,295.291 197.876,293.274 196.726,291.57C193.791,287.225 188.251,285.218 183.516,288.077C178.745,290.958 177.65,298.023 183.157,300.89C184.381,301.527 185.892,301.05 186.529,299.827C187.166,298.603 186.69,297.092 185.466,296.455C183.685,295.527 184.557,293.289 186.101,292.357C188.452,290.937 191.125,292.211 192.583,294.369C193.23,295.328 193.627,296.462 193.691,297.618C193.746,298.636 193.573,299.627 193.235,300.586C191.881,304.428 188.704,306.008 184.986,307.03C182.567,307.695 179.826,308.059 177.704,309.509C176.075,310.622 174.676,312.627 174.461,314.637C174.271,316.418 175.002,317.949 176.033,318.657C176.894,319.247 178.112,319.582 179.718,318.825C180.967,318.237 181.503,316.746 180.915,315.498C180.669,314.977 180.267,314.581 179.791,314.338L179.791,314.338ZM178.604,314.42C178.549,314.557 178.557,314.712 178.627,314.842C178.696,314.973 178.82,315.066 178.964,315.096C179.407,315.191 179.802,315.483 180.01,315.924C180.363,316.673 180.041,317.567 179.292,317.92C178.119,318.473 177.228,318.264 176.599,317.832C175.812,317.292 175.31,316.103 175.456,314.743C175.641,313.011 176.864,311.294 178.268,310.335C180.3,308.947 182.935,308.631 185.251,307.994C189.297,306.882 192.705,305.1 194.178,300.918C194.56,299.834 194.752,298.713 194.689,297.563C194.616,296.227 194.16,294.917 193.411,293.81C191.658,291.214 188.411,289.794 185.584,291.501C183.399,292.82 182.483,296.029 185.004,297.342C185.739,297.724 186.025,298.63 185.642,299.365C185.26,300.099 184.353,300.385 183.619,300.003C178.86,297.525 179.909,291.423 184.033,288.933C188.291,286.362 193.258,288.223 195.897,292.13C196.947,293.685 197.582,295.525 197.685,297.399C197.769,298.947 197.521,300.457 197.008,301.915C195.176,307.115 191.077,309.503 186.046,310.887C184.039,311.438 181.722,311.609 179.96,312.812C179.408,313.19 178.867,313.77 178.604,314.42Z" style="fill:#abf5ff;"/>
            </g>
            <g>
                <g transform="matrix(1.09049,0,0,1.09049,-12.8484,-29.3261)">
                    <path d="M152.109,322.504C156.211,322.494 160.313,322.184 164.415,321.559C165.445,321.065 166.208,320.362 166.266,321.065C166.341,321.97 164.882,323.147 163.88,323.601C162.004,324.452 157.352,324.986 152.144,325.049L152.144,325.05L152.109,325.049L152.075,325.05L152.075,325.049C146.867,324.986 142.214,324.452 140.339,323.601C139.337,323.147 137.877,321.97 137.952,321.065C138.011,320.362 138.773,321.065 139.803,321.559C143.905,322.184 148.007,322.494 152.109,322.504Z" style="fill:#76ceda;"/>
                </g>
                <g transform="matrix(1,0,0,1,1.81269,-3.25509)">
                    <path d="M179.699,289.397L122.727,289.397L122.727,303.482C122.727,315.972 132.867,326.112 145.357,326.112L157.069,326.112C169.559,326.112 179.699,315.972 179.699,303.482L179.699,289.397Z" style="fill:#e6fcff;"/>
                </g>
                <path d="M135.687,293.372C148.402,294.254 164.998,295.003 178.82,290.415C179.201,293.547 179.262,298.639 178.82,303.208C178.248,309.116 173.965,314.91 169.295,317.401C168.525,317.812 167.537,318.183 166.39,318.514C165.591,318.62 164.753,318.7 163.873,318.75L145.632,318.75C139.707,318.415 135.491,311.154 135.687,305.45L135.687,293.372Z" style="fill:#fff;"/>
                <g transform="matrix(1,0,0,1,1.81269,-3.25509)">
                    <path d="M179.699,289.397L122.727,289.397L122.727,303.482C122.727,315.972 132.867,326.112 145.357,326.112L157.069,326.112C169.559,326.112 179.699,315.972 179.699,303.482L179.699,289.397ZM178.699,290.397L178.699,303.482C178.699,315.42 169.007,325.112 157.069,325.112C157.069,325.112 145.357,325.112 145.357,325.112C133.419,325.112 123.727,315.42 123.727,303.482C123.727,303.482 123.727,290.397 123.727,290.397L178.699,290.397Z" style="fill:#abf5ff;"/>
                </g>
                <g transform="matrix(0.612,0,0,0.442342,59.3739,143.766)">
                    <ellipse cx="153.025" cy="322.033" rx="46.545" ry="12.916" style="fill:#abf5ff;"/>
                </g>
                <g transform="matrix(0.531655,0,0,0.325229,71.6687,181.48)">
                    <ellipse cx="153.025" cy="322.033" rx="46.545" ry="12.916" style="fill:#82d0db;"/>
                </g>
                <path d="M175.448,287.993C171.5,289.423 162.94,290.415 153.025,290.415C143.111,290.415 134.551,289.423 130.603,287.993C145.551,285.638 160.5,285.63 175.448,287.993Z" style="fill:#ad927c;"/>
            </g>
        </g>
    </g>
</svg>
