<?xml version="1.0" encoding="UTF-8" standalone="no"?>
<!DOCTYPE svg PUBLIC "-//W3C//DTD SVG 1.1//EN" "http://www.w3.org/Graphics/SVG/1.1/DTD/svg11.dtd">
<svg width="100%" height="100%" viewBox="0 0 300 345" version="1.1" xmlns="http://www.w3.org/2000/svg" xmlns:xlink="http://www.w3.org/1999/xlink" xml:space="preserve" xmlns:serif="http://www.serif.com/" style="fill-rule:evenodd;clip-rule:evenodd;stroke-linejoin:round;stroke-miterlimit:2;">
    <g id="avatar_item_20" transform="matrix(0.525163,-0.509799,0.509799,0.525163,-141.307,173.2)">
        <g transform="matrix(0.995813,0.629186,-0.629186,0.995813,196.526,-41.7021)">
            <path d="M47.681,261.313L44.456,261.313C42.122,261.313 40.226,263.209 40.226,265.543L40.226,275.314C40.226,277.649 42.122,279.544 44.456,279.544L47.681,279.544C50.586,283.765 55.45,286.533 60.956,286.533L109.505,286.533C118.393,286.533 125.609,279.317 125.609,270.429C125.609,261.54 118.393,254.324 109.505,254.324L60.956,254.324C55.45,254.324 50.586,257.092 47.681,261.313Z" style="fill:#5f08df;"/>
        </g>
        <g transform="matrix(0.995813,0.629186,-0.629186,0.995813,193.507,-36.9229)">
            <path d="M69.054,286.31L77.771,286.31L77.771,248.802C77.771,247.6 76.795,246.623 75.592,246.623L71.234,246.623C70.031,246.623 69.054,247.6 69.054,248.802L69.054,286.31ZM94.352,286.31L103.068,286.31L103.068,248.802C103.068,247.6 102.092,246.623 100.889,246.623L96.531,246.623C95.328,246.623 94.352,247.6 94.352,248.802L94.352,286.31Z" style="fill:#eb3123;"/>
        </g>
        <g transform="matrix(0.995813,0.629186,-1.19511,1.89151,364.038,-306.822)">
            <rect x="111.239" y="297.982" width="38.761" height="4.409" style="fill:#5f08df;"/>
        </g>
        <g transform="matrix(0.995813,0.629186,-0.54682,0.865452,170.887,-1.12229)">
            <path d="M156.448,296.88C156.448,295.572 155.525,294.511 154.389,294.511L150.271,294.511C149.134,294.511 148.212,295.572 148.212,296.88L148.212,308.919C148.212,310.226 149.134,311.288 150.271,311.288L154.389,311.288C155.525,311.288 156.448,310.226 156.448,308.919L156.448,296.88Z" style="fill:#42bacd;"/>
        </g>
        <g transform="matrix(0.995813,0.629186,-0.629186,0.995813,196.526,-41.7021)">
            <path d="M20.094,326.968L18.936,326.3C17.999,325.759 16.8,326.081 16.259,327.017L14.3,330.411C13.759,331.348 14.08,332.547 15.017,333.088L35.588,344.965C36.525,345.505 37.724,345.184 38.265,344.247L40.224,340.854C40.765,339.917 40.444,338.718 39.507,338.177L38.381,337.527C38.392,337.501 38.404,337.476 38.415,337.45L45.979,320.054L52.814,320.054C53.896,320.054 54.774,319.176 54.774,318.094L54.774,314.497L120.598,314.497C124.357,314.497 127.409,311.445 127.409,307.686L127.409,300.669C127.409,296.911 124.357,293.859 120.598,293.859L109.495,293.859C109.354,291.862 107.688,290.284 105.656,290.284L65.869,290.284C63.837,290.284 62.171,291.862 62.03,293.859L52.898,293.859C52.868,291.881 51.252,290.284 49.266,290.284L42.002,290.284C40.016,290.284 38.401,291.881 38.37,293.859C36.217,294.205 35.092,293.122 35.022,290.576L35.022,277.52L38.516,277.52C40.589,277.52 42.272,275.837 42.272,273.765L42.272,266.254C42.272,264.181 40.589,262.498 38.516,262.498L31.186,262.498C29.181,262.498 25.788,264.042 25.368,266.131L17.13,302.047C17.306,309.542 23.384,313.069 25.674,314.134L20.094,326.968Z" style="fill:#5bd94b;"/>
        </g>
        <g transform="matrix(0.995813,0.629186,-0.629186,0.995813,193.507,-36.9229)">
            <path d="M52.87,288.959L52.87,294.902C52.87,295.953 53.723,296.806 54.774,296.806L60.179,296.806C61.23,296.806 62.084,295.953 62.084,294.902L62.084,288.959L52.87,288.959Z" style="fill:#4eb641;"/>
        </g>
        <g transform="matrix(0.995813,0.629186,-0.629186,0.995813,193.507,-36.9229)">
            <path d="M56.779,309.697L120.598,309.697C121.002,309.697 121.397,309.662 121.781,309.595L121.781,304.198L121.78,304.198C121.729,301.951 119.888,300.142 117.629,300.142L60.931,300.142C58.672,300.142 56.831,301.951 56.78,304.198L56.779,304.198L56.779,309.697Z" style="fill:#4eb641;"/>
        </g>
        <g transform="matrix(0.995813,0.629186,-0.629186,0.995813,193.507,-36.9229)">
            <path d="M106.033,290.23C106.033,289.217 105.21,288.395 104.197,288.395L67.699,288.395C66.685,288.395 65.863,289.217 65.863,290.23L65.863,293.901C65.863,294.914 66.685,295.737 67.699,295.737L104.197,295.737C105.21,295.737 106.033,294.914 106.033,293.901L106.033,290.23Z" style="fill:#4eb641;"/>
        </g>
        <g transform="matrix(0.995813,0.629186,-0.647581,1.02493,202.448,-49.4593)">
            <path d="M45.353,261.684C45.353,260.376 44.259,259.313 42.912,259.313L38.032,259.313C36.685,259.313 35.591,260.376 35.591,261.684L35.591,279.896C35.591,281.205 36.685,282.267 38.032,282.267L42.912,282.267C44.259,282.267 45.353,281.205 45.353,279.896L45.353,261.684Z" style="fill:#42bacd;"/>
        </g>
        <g transform="matrix(0.995813,0.629186,-0.629186,0.995813,192.146,-44.4698)">
            <path d="M73.413,309.528L73.413,317.225C73.413,317.956 73.617,318.64 73.972,319.222C75.044,321.744 77.545,323.514 80.457,323.514C82.313,323.514 84.002,322.795 85.261,321.619C86.52,322.795 88.21,323.514 90.066,323.514C91.875,323.514 93.525,322.831 94.773,321.708C96.021,322.831 97.672,323.514 99.481,323.514C101.452,323.514 103.235,322.703 104.514,321.396C105.793,322.703 107.576,323.514 109.547,323.514C111.175,323.514 112.676,322.96 113.87,322.03C115.064,322.96 116.564,323.514 118.192,323.514C121.104,323.514 123.605,321.744 124.678,319.222C125.032,318.64 125.237,317.956 125.237,317.225L125.237,309.528C125.237,307.403 123.512,305.679 121.388,305.679L77.262,305.679C75.137,305.679 73.413,307.403 73.413,309.528Z" style="fill:#eb3123;"/>
        </g>
        <g transform="matrix(0.995813,0.629186,-0.629186,0.995813,193.507,-36.9229)">
            <path d="M35.022,285.617L32.378,293.955C32.102,294.823 32.583,295.751 33.451,296.026L34.338,296.307C35.206,296.582 36.133,296.101 36.409,295.234L38.366,289.06C36.215,289.405 35.092,288.322 35.022,285.777L35.022,285.617Z" style="fill:#4eb641;"/>
        </g>
        <g transform="matrix(0.995813,0.629186,-0.629186,0.995813,193.507,-36.9229)">
            <path d="M113.694,289.055L109.465,289.055L109.465,294.839C109.465,295.75 110.204,296.489 111.114,296.489L112.045,296.489C112.955,296.489 113.694,295.75 113.694,294.839L113.694,289.055Z" style="fill:#4eb641;"/>
        </g>
        <g transform="matrix(0.980347,0.951666,-0.951666,0.980347,303.359,-35.3192)">
            <path d="M76.546,249.178C84.033,247.145 88.028,249.931 91.25,255.325" style="fill:#5f08df;"/>
        </g>
        <g transform="matrix(0.980347,0.951666,-0.951666,0.980347,303.359,-35.3192)">
            <path d="M62.527,251.918L54.785,253.481" style="fill:none;"/>
        </g>
        <g transform="matrix(0.980347,0.951666,-0.951666,0.980347,303.359,-35.3192)">
            <path d="M62.23,250.448L54.489,252.011C53.677,252.174 53.151,252.966 53.315,253.778C53.479,254.589 54.271,255.115 55.082,254.951L62.823,253.389C63.635,253.225 64.161,252.433 63.997,251.622C63.833,250.81 63.041,250.284 62.23,250.448Z" style="fill:#822dff;"/>
        </g>
        <g transform="matrix(0.980347,0.951666,-0.951666,0.980347,278.877,-50.5875)">
            <path d="M62.23,250.448L58.333,251.235C57.522,251.398 56.996,252.19 57.16,253.002C57.324,253.813 58.115,254.339 58.927,254.175L62.823,253.389C63.635,253.225 64.161,252.433 63.997,251.622C63.833,250.81 63.041,250.284 62.23,250.448Z" style="fill:#822dff;"/>
        </g>
        <g transform="matrix(0.980347,0.951666,-0.951666,0.980347,303.359,-35.3192)">
            <path d="M76.939,250.626C80.247,249.727 82.785,249.833 84.851,250.82C86.941,251.818 88.521,253.681 89.962,256.094C90.387,256.805 91.308,257.037 92.019,256.613C92.73,256.188 92.962,255.266 92.538,254.556C90.757,251.574 88.728,249.347 86.144,248.113C83.534,246.866 80.332,246.596 76.153,247.731C75.354,247.947 74.882,248.772 75.099,249.571C75.316,250.37 76.14,250.843 76.939,250.626Z" style="fill:#822dff;"/>
        </g>
    </g>
</svg>
