<?xml version="1.0" encoding="UTF-8" standalone="no"?>
<!DOCTYPE svg PUBLIC "-//W3C//DTD SVG 1.1//EN" "http://www.w3.org/Graphics/SVG/1.1/DTD/svg11.dtd">
<svg width="100%" height="100%" viewBox="0 0 300 345" version="1.1" xmlns="http://www.w3.org/2000/svg" xmlns:xlink="http://www.w3.org/1999/xlink" xml:space="preserve" xmlns:serif="http://www.serif.com/" style="fill-rule:evenodd;clip-rule:evenodd;stroke-linejoin:round;stroke-miterlimit:2;">
    <g id="avatar_item_31" transform="matrix(1,0,0,1,3.64039,0)">
        <g>
            <g transform="matrix(0.911183,0,0,0.911183,-95.2775,30.0474)">
                <path d="M174.6,304.497L165.28,310.236L177.506,331.467C177.667,331.746 177.845,332.009 178.037,332.256C179.861,335.845 183.59,338.307 187.888,338.307L234.061,338.307C240.156,338.307 245.105,337.726 245.105,331.631L245.105,325.103C244.561,316.776 240.018,315.803 231.11,317.569L196.832,321.883C186.168,321.711 181.565,315.9 175.289,305.665L174.6,304.497Z" style="fill:#26252c;"/>
            </g>
            <path d="M57.2,315.99L66.252,311.444C65.661,310.532 65.061,309.571 64.443,308.564L61.476,303.535L52.655,308.097L57.2,315.99Z" style="fill:#e32438;"/>
            <path d="M61.804,304.091L13.727,222.603L5.362,225.968L52.918,308.554L61.804,304.091Z" style="fill:#d5b78f;"/>
            <path d="M17.561,228.265L15.648,225.023L6.969,229.801L9.221,233.712L17.561,228.265Z" style="fill:#bc9a6c;"/>
            <g transform="matrix(0.866025,-0.5,0.362585,0.628016,-81.6764,88.9056)">
                <path d="M17.347,221.655C17.347,220.627 16.742,219.792 15.996,219.792L6.713,219.792C5.967,219.792 5.362,220.627 5.362,221.655L5.362,225.38C5.362,226.408 5.967,227.243 6.713,227.243L15.996,227.243C16.742,227.243 17.347,226.408 17.347,225.38L17.347,221.655Z" style="fill:#d5b78f;"/>
            </g>
        </g>
        <g>
            <path d="M52.999,308.638L7.363,229.443L5.63,230.442L51.221,309.558L52.999,308.638ZM63.581,303.166L16.856,223.97L15.123,224.969L61.801,304.086L63.581,303.166Z" style="fill:#bc9a6c;"/>
            <path d="M68.055,310.558L66.252,311.444C71.132,318.974 75.405,323.202 84.073,323.342L115.306,319.411C123.423,317.801 127.562,318.689 128.058,326.276L128.058,332.224C128.058,337.778 123.549,338.307 117.995,338.307L75.923,338.307C72.006,338.307 68.609,336.064 66.947,332.794C66.772,332.569 66.609,332.328 66.463,332.074L57.209,316.004L55.42,316.906L64.73,333.073C64.891,333.353 65.066,333.618 65.253,333.87C67.268,337.693 71.293,340.307 75.923,340.307L117.995,340.307C120.548,340.307 122.897,340.176 124.766,339.607C126.314,339.136 127.574,338.37 128.486,337.249C129.448,336.065 130.058,334.458 130.058,332.224C130.058,332.224 130.058,326.211 130.058,326.211L130.054,326.146C129.808,322.39 128.691,320.02 126.977,318.585C124.567,316.567 120.611,316.327 114.977,317.437C114.988,317.435 83.967,321.339 83.967,321.339C76.211,321.169 72.402,317.266 68.055,310.558Z" style="fill:#040404;"/>
            <path d="M55.42,316.906L51.219,309.547L52.987,308.632L57.2,315.99L57.213,315.984L57.207,315.991L57.213,316.002L55.42,316.906ZM66.252,311.444C65.661,310.532 65.061,309.571 64.443,308.564L61.799,304.075L63.579,303.155C63.579,303.155 66.157,307.533 66.163,307.543C66.766,308.526 67.352,309.464 67.93,310.356L68.06,310.556L66.252,311.444Z" style="fill:#b81627;"/>
            <g transform="matrix(0.866025,-0.5,0.362585,0.628016,-81.6764,88.9056)">
                <path d="M19.347,225.38L19.347,221.655C19.347,219.105 17.845,217.034 15.996,217.034C15.996,217.034 6.713,217.034 6.713,217.034C4.863,217.034 3.362,219.105 3.362,221.655C3.362,221.655 3.362,225.38 3.362,225.38C3.362,227.93 4.863,230.001 6.713,230.001C6.713,230.001 15.996,230.001 15.996,230.001C17.845,230.001 19.347,227.93 19.347,225.38ZM17.347,221.655C17.347,220.627 16.742,219.792 15.996,219.792L6.713,219.792C5.967,219.792 5.362,220.627 5.362,221.655L5.362,225.38C5.362,226.408 5.967,227.243 6.713,227.243L15.996,227.243C16.742,227.243 17.347,226.408 17.347,225.38L17.347,221.655Z" style="fill:#bc9a6c;"/>
            </g>
        </g>
        <g transform="matrix(1,0,0,1,-3.64039,0)">
            <path d="M72.1,330.08C85.563,334.745 103.867,329.897 121.329,326.702C123.121,326.37 124.021,327.141 124.01,329.041L124.074,333.812C124.025,334.752 124.686,335.927 125.919,336.153L80.351,336.386C75.263,335.954 72.788,333.655 72.1,330.08" style="fill:#191919;"/>
        </g>
        <g transform="matrix(1,0,0,1,-3.64039,0)">
            <path d="M63.012,302.168L21.95,231.742C21.533,231.027 20.614,230.785 19.899,231.202C19.184,231.619 18.941,232.538 19.358,233.253L60.42,303.679C60.837,304.394 61.757,304.636 62.472,304.219C63.187,303.802 63.429,302.883 63.012,302.168Z" style="fill:#e1c299;"/>
        </g>
        <g transform="matrix(0.758409,-0.414354,-0.414354,0.289339,141.344,248.664)">
            <path d="M63.012,302.168L21.95,231.742C13.217,216.764 5.546,204.942 4.831,205.359C4.116,205.776 10.625,218.275 19.358,233.253L60.42,303.679C69.154,318.657 76.825,330.479 77.54,330.062C78.255,329.645 71.745,317.146 63.012,302.168Z" style="fill:#e23f50;"/>
        </g>
        <g transform="matrix(0.784647,-0.369353,-0.369353,0.36652,134.66,237.2)">
            <path d="M213.34,476.616L194.643,436.88C194.618,436.827 194.592,436.773 194.566,436.719C185.957,418.615 174.484,401.985 166.439,395.244L104.275,343.386C104.209,343.331 104.145,343.281 104.084,343.237C94.78,336.47 70.39,310.867 44.336,268.607C44.264,268.49 21.363,230.756 21.363,230.756C18.541,226.105 15.931,223.109 15.54,224.071C15.149,225.032 17.123,229.589 19.945,234.24L42.956,272.155C43.026,272.271 43.097,272.386 43.167,272.501C73.224,321.326 101.794,351.964 112.613,359.882C112.6,359.872 174.653,411.637 174.653,411.637C178.383,414.763 183.388,421.215 187.388,429.592C187.411,429.64 206.06,469.274 206.06,469.274C208.081,473.569 211.353,478.702 213.362,480.728C215.371,482.754 215.361,480.912 213.34,476.616Z" style="fill:#343434;"/>
        </g>
    </g>
</svg>
