<?xml version="1.0" encoding="UTF-8" standalone="no"?>
<!DOCTYPE svg PUBLIC "-//W3C//DTD SVG 1.1//EN" "http://www.w3.org/Graphics/SVG/1.1/DTD/svg11.dtd">
<svg width="100%" height="100%" viewBox="0 0 300 345" version="1.1" xmlns="http://www.w3.org/2000/svg" xmlns:xlink="http://www.w3.org/1999/xlink" xml:space="preserve" xmlns:serif="http://www.serif.com/" style="fill-rule:evenodd;clip-rule:evenodd;stroke-linejoin:round;stroke-miterlimit:2;">
    <g id="avatar_item_19" transform="matrix(0.717693,-0.453461,0.453461,0.717693,-122.135,119.046)">
        <g transform="matrix(1.0846,0.459523,-0.459523,1.0846,133.36,-51.2034)">
            <path d="M40.417,247.817L60.2,276.294L94.696,279.814L66.219,299.597L62.699,334.093L42.916,305.615L8.42,302.096L36.898,282.313L40.417,247.817ZM51.558,280.622C57.261,280.622 61.891,285.252 61.891,290.955C61.891,296.658 57.261,301.288 51.558,301.288C45.855,301.288 41.225,296.658 41.225,290.955C41.225,285.252 45.855,280.622 51.558,280.622Z" style="fill:#363636;"/>
        </g>
        <g transform="matrix(1.16658,0.16315,-0.16315,1.16658,42.9025,-59.7744)">
            <path d="M58.66,298.46L63.431,303.231L51.155,335.506L51.155,301.282C53.97,301.394 56.67,300.339 58.66,298.46ZM39.282,302.828L7.007,290.551L41.231,290.551C41.119,293.367 42.174,296.066 44.053,298.057L39.282,302.828ZM96.11,291.358L61.885,291.358C61.997,288.543 60.942,285.843 59.064,283.853L63.835,279.082L96.11,291.358ZM39.685,278.678L51.962,246.403L51.962,280.628C49.146,280.516 46.447,281.57 44.456,283.449L39.685,278.678Z" style="fill:#4a4a4a;"/>
        </g>
        <g transform="matrix(1.16658,0.16315,-0.16315,1.16658,42.9025,-59.7744)">
            <path d="M51.558,280.66C57.24,280.66 61.853,285.273 61.853,290.955C61.853,296.637 57.24,301.25 51.558,301.25C45.876,301.25 41.263,296.637 41.263,290.955C41.263,285.273 45.876,280.66 51.558,280.66ZM51.558,282.819C56.048,282.819 59.694,286.465 59.694,290.955C59.694,295.445 56.048,299.09 51.558,299.09C47.068,299.09 43.423,295.445 43.423,290.955C43.423,286.465 47.068,282.819 51.558,282.819Z" style="fill:#4a4a4a;"/>
        </g>
        <g transform="matrix(1.16658,0.16315,-0.16315,1.16658,42.9025,-59.7744)">
            <path d="M51.558,279.66C45.324,279.66 40.263,284.721 40.263,290.955C40.263,297.189 45.324,302.25 51.558,302.25C57.792,302.25 62.853,297.189 62.853,290.955C62.853,284.721 57.792,279.66 51.558,279.66ZM51.558,280.66C57.24,280.66 61.853,285.273 61.853,290.955C61.853,296.637 57.24,301.25 51.558,301.25C45.876,301.25 41.263,296.637 41.263,290.955C41.263,285.273 45.876,280.66 51.558,280.66ZM51.558,282.819C56.048,282.819 59.694,286.465 59.694,290.955C59.694,295.445 56.048,299.09 51.558,299.09C47.068,299.09 43.423,295.445 43.423,290.955C43.423,286.465 47.068,282.819 51.558,282.819ZM51.558,283.819C55.496,283.819 58.694,287.017 58.694,290.955C58.694,294.893 55.496,298.09 51.558,298.09C47.62,298.09 44.423,294.893 44.423,290.955C44.423,287.017 47.62,283.819 51.558,283.819Z" style="fill:#2a2a2a;"/>
        </g>
    </g>
</svg>
