<?xml version="1.0" encoding="UTF-8" standalone="no"?>
<!DOCTYPE svg PUBLIC "-//W3C//DTD SVG 1.1//EN" "http://www.w3.org/Graphics/SVG/1.1/DTD/svg11.dtd">
<svg width="100%" height="100%" viewBox="0 0 300 345" version="1.1" xmlns="http://www.w3.org/2000/svg" xmlns:xlink="http://www.w3.org/1999/xlink" xml:space="preserve" xmlns:serif="http://www.serif.com/" style="fill-rule:evenodd;clip-rule:evenodd;stroke-linecap:round;stroke-linejoin:round;">
    <g id="avatar_item_24" transform="matrix(0.576976,-0.076654,0.076654,0.576976,-60.0266,142.155)">
        <g transform="matrix(1,0,0,1.13017,0,-30.6689)">
            <path d="M208.11,329.942C208.11,328.973 207.221,328.186 206.126,328.186L94.286,328.186C93.191,328.186 92.302,328.973 92.302,329.942L92.302,333.453C92.302,334.422 93.191,335.208 94.286,335.208L206.126,335.208C207.221,335.208 208.11,334.422 208.11,333.453L208.11,329.942Z" style="fill:#ff6e99;"/>
        </g>
        <g transform="matrix(1,0,0,1,-0.687595,0)">
            <path d="M91.777,345C88.823,345 86.65,335.712 86.425,333.144C84.559,311.882 88.615,295.349 92.634,277.47C94.547,268.959 101.567,261.81 112.57,261.81L188.806,261.81C199.809,261.81 206.829,268.959 208.741,277.47C212.76,295.349 216.817,311.882 214.95,333.144C214.725,335.712 212.552,345 209.598,345L91.777,345Z" style="fill:#ffb8cd;"/>
        </g>
        <g transform="matrix(0.966761,0,0,0.966761,4.32107,10.0848)">
            <path d="M90.813,344.671L91.396,343.817C91.52,343.902 91.644,343.966 91.777,343.966L91.777,345C91.445,345 91.123,344.883 90.813,344.671ZM92.721,345L93.755,345L93.755,343.966L92.721,343.966L92.721,345ZM94.79,345L95.824,345L95.824,343.966L94.79,343.966L94.79,345ZM97.893,345L97.893,343.966L96.858,343.966L96.858,345L97.893,345ZM99.962,345L99.962,343.966L98.927,343.966L98.927,345L99.962,345ZM102.03,345L102.03,343.966L100.996,343.966L100.996,345L102.03,345ZM103.065,345L104.099,345L104.099,343.966L103.065,343.966L103.065,345ZM106.168,345L106.168,343.966L105.133,343.966L105.133,345L106.168,345ZM108.237,345L108.237,343.966L107.202,343.966L107.202,345L108.237,345ZM110.305,345L110.305,343.966L109.271,343.966L109.271,345L110.305,345ZM111.34,345L112.374,345L112.374,343.966L111.34,343.966L111.34,345ZM114.443,345L114.443,343.966L113.408,343.966L113.408,345L114.443,345ZM116.512,345L116.512,343.966L115.477,343.966L115.477,345L116.512,345ZM118.58,345L118.58,343.966L117.546,343.966L117.546,345L118.58,345ZM119.615,345L120.649,345L120.649,343.966L119.615,343.966L119.615,345ZM122.718,345L122.718,343.966L121.683,343.966L121.683,345L122.718,345ZM124.787,345L124.787,343.966L123.752,343.966L123.752,345L124.787,345ZM126.855,345L126.855,343.966L125.821,343.966L125.821,345L126.855,345ZM128.924,345L128.924,343.966L127.89,343.966L127.89,345L128.924,345ZM130.993,345L130.993,343.966L129.958,343.966L129.958,345L130.993,345ZM133.062,345L133.062,343.966L132.027,343.966L132.027,345L133.062,345ZM135.13,345L135.13,343.966L134.096,343.966L134.096,345L135.13,345ZM137.199,345L137.199,343.966L136.165,343.966L136.165,345L137.199,345ZM139.268,345L139.268,343.966L138.233,343.966L138.233,345L139.268,345ZM141.337,345L141.337,343.966L140.302,343.966L140.302,345L141.337,345ZM143.405,345L143.405,343.966L142.371,343.966L142.371,345L143.405,345ZM145.474,345L145.474,343.966L144.44,343.966L144.44,345L145.474,345ZM147.543,345L147.543,343.966L146.509,343.966L146.509,345L147.543,345ZM149.612,345L149.612,343.966L148.577,343.966L148.577,345L149.612,345ZM151.68,345L151.68,343.966L150.646,343.966L150.646,345L151.68,345ZM153.749,345L153.749,343.966L152.715,343.966L152.715,345L153.749,345ZM154.784,345L155.818,345L155.818,343.966L154.784,343.966L154.784,345ZM157.887,345L157.887,343.966L156.852,343.966L156.852,345L157.887,345ZM159.955,345L159.955,343.966L158.921,343.966L158.921,345L159.955,345ZM162.024,345L162.024,343.966L160.99,343.966L160.99,345L162.024,345ZM164.093,345L164.093,343.966L163.059,343.966L163.059,345L164.093,345ZM166.162,345L166.162,343.966L165.127,343.966L165.127,345L166.162,345ZM168.23,345L168.23,343.966L167.196,343.966L167.196,345L168.23,345ZM170.299,345L170.299,343.966L169.265,343.966L169.265,345L170.299,345ZM172.368,345L172.368,343.966L171.333,343.966L171.333,345L172.368,345ZM174.437,345L174.437,343.966L173.402,343.966L173.402,345L174.437,345ZM175.471,345L176.505,345L176.505,343.966L175.471,343.966L175.471,345ZM178.574,345L178.574,343.966L177.54,343.966L177.54,345L178.574,345ZM180.643,345L180.643,343.966L179.609,343.966L179.609,345L180.643,345ZM182.712,345L182.712,343.966L181.677,343.966L181.677,345L182.712,345ZM184.781,345L184.781,343.966L183.746,343.966L183.746,345L184.781,345ZM186.849,345L186.849,343.966L185.815,343.966L185.815,345L186.849,345ZM188.918,345L188.918,343.966L187.884,343.966L187.884,345L188.918,345ZM190.987,345L190.987,343.966L189.952,343.966L189.952,345L190.987,345ZM193.055,345L193.055,343.966L192.021,343.966L192.021,345L193.055,345ZM195.124,345L195.124,343.966L194.09,343.966L194.09,345L195.124,345ZM197.193,345L197.193,343.966L196.159,343.966L196.159,345L197.193,345ZM198.228,345L199.262,345L199.262,343.966L198.228,343.966L198.228,345ZM201.331,345L201.331,343.966L200.296,343.966L200.296,345L201.331,345ZM203.399,345L203.399,343.966L202.365,343.966L202.365,345L203.399,345ZM205.468,345L205.468,343.966L204.434,343.966L204.434,345L205.468,345ZM207.537,345L207.537,343.966L206.503,343.966L206.503,345L207.537,345ZM208.571,345L208.571,343.966L209.6,343.966C210.23,343.972 210.274,344.419 210.141,344.896C209.963,344.964 209.782,345 209.598,345L208.571,345ZM211.315,343.956C211.075,344.249 210.826,344.49 210.568,344.667L209.983,343.814C210.168,343.687 210.343,343.511 210.515,343.3L211.315,343.956ZM89.473,343.114L90.358,342.579C90.521,342.848 90.689,343.093 90.864,343.305L90.065,343.962C89.861,343.714 89.663,343.429 89.473,343.114ZM212.399,342.199C212.24,342.522 212.076,342.826 211.906,343.108L211.021,342.573C211.176,342.316 211.326,342.038 211.471,341.743L212.399,342.199ZM88.552,341.264L89.506,340.864C89.635,341.171 89.768,341.467 89.907,341.749L88.98,342.206C88.832,341.906 88.689,341.59 88.552,341.264ZM213.204,340.294C213.083,340.623 212.957,340.945 212.826,341.257L211.872,340.857C211.997,340.559 212.118,340.251 212.233,339.937L213.204,340.294ZM87.835,339.324L88.818,339.002C88.922,339.319 89.031,339.635 89.145,339.944L88.174,340.301C88.056,339.98 87.943,339.653 87.835,339.324ZM213.848,338.329C213.752,338.658 213.65,338.988 213.542,339.317L212.559,338.995C212.663,338.677 212.762,338.357 212.856,338.038L213.848,338.329ZM87.251,337.34L88.251,337.076C88.335,337.395 88.425,337.719 88.521,338.045L87.529,338.336C87.43,338.001 87.338,337.668 87.251,337.34ZM214.376,336.329C214.299,336.655 214.216,336.991 214.126,337.332L213.126,337.069C213.214,336.736 213.295,336.409 213.37,336.092L214.376,336.329ZM86.777,335.326L87.79,335.117C87.854,335.429 87.927,335.758 88.007,336.099L87.001,336.336L86.941,336.08C86.907,335.928 86.874,335.777 86.84,335.626L86.777,335.326ZM214.791,334.303C214.739,334.614 214.674,334.955 214.599,335.319L213.587,335.11C213.659,334.759 213.721,334.43 213.772,334.129L214.791,334.303ZM86.439,333.286L87.467,333.178C87.495,333.442 87.541,333.766 87.604,334.136L86.585,334.31C86.517,333.915 86.468,333.568 86.439,333.286ZM215.026,332.248C215.002,332.545 214.977,332.844 214.95,333.144C214.947,333.187 214.942,333.232 214.937,333.279L213.909,333.172L213.995,332.165L215.026,332.248ZM86.271,331.224L87.303,331.15C87.327,331.49 87.354,331.83 87.381,332.173L86.35,332.256L86.342,332.15C86.329,331.986 86.316,331.821 86.303,331.656L86.271,331.224ZM215.142,330.673C215.131,330.837 215.12,331 215.108,331.164L215.104,331.217L214.073,331.142C214.097,330.8 214.121,330.459 214.142,330.119L215.174,330.185L215.142,330.673ZM86.14,329.16L87.173,329.103C87.192,329.443 87.212,329.784 87.234,330.127L86.201,330.192C86.179,329.847 86.159,329.502 86.14,329.16ZM215.282,328.244C215.274,328.405 215.266,328.566 215.258,328.727L215.236,329.152L214.203,329.095C214.222,328.753 214.239,328.411 214.255,328.071L215.288,328.119L215.282,328.244ZM86.044,327.093L87.077,327.054C87.09,327.394 87.105,327.736 87.121,328.079L86.088,328.127L86.071,327.763C86.064,327.603 86.058,327.443 86.051,327.284L86.044,327.093ZM215.358,326.329C215.353,326.488 215.347,326.647 215.342,326.805L215.331,327.086L214.298,327.046C214.311,326.704 214.323,326.362 214.332,326.022L215.366,326.052L215.358,326.329ZM85.983,325.025L87.017,325.004C87.024,325.345 87.033,325.686 87.043,326.029L86.009,326.059L86.003,325.854C85.999,325.696 85.995,325.538 85.991,325.38L85.983,325.025ZM215.403,324.438C215.4,324.594 215.397,324.751 215.395,324.908L215.392,325.018L214.358,324.996C214.365,324.653 214.371,324.312 214.375,323.971L215.409,323.984L215.403,324.438ZM85.958,322.957L86.992,322.953C86.994,323.294 86.996,323.636 87,323.979L85.966,323.991C85.962,323.645 85.959,323.301 85.958,322.957ZM215.417,322.105C215.418,322.26 215.418,322.414 215.418,322.569L215.417,322.949L214.383,322.946C214.384,322.603 214.384,322.261 214.382,321.92L215.416,321.915L215.417,322.105ZM85.969,320.888L87.003,320.902C86.998,321.243 86.995,321.585 86.993,321.928L85.959,321.923L85.96,321.643C85.962,321.489 85.963,321.335 85.965,321.182L85.969,320.888ZM215.397,320.263C215.399,320.416 215.402,320.569 215.404,320.722L215.407,320.881L214.372,320.895C214.368,320.552 214.362,320.21 214.354,319.869L215.388,319.846L215.397,320.263ZM86.014,318.82L87.048,318.852C87.038,319.192 87.029,319.534 87.021,319.877L85.987,319.854C85.995,319.508 86.004,319.163 86.014,318.82ZM215.333,317.989C215.338,318.14 215.343,318.291 215.349,318.442L215.361,318.812L214.327,318.844C214.316,318.501 214.304,318.16 214.291,317.819L215.324,317.779L215.333,317.989ZM86.095,316.753L87.128,316.802C87.112,317.143 87.097,317.484 87.084,317.827L86.051,317.786L86.06,317.538C86.067,317.388 86.073,317.238 86.08,317.088L86.095,316.753ZM215.226,315.712C215.245,316.056 215.263,316.4 215.28,316.745L214.246,316.794C214.23,316.452 214.212,316.11 214.193,315.77L215.226,315.712ZM86.211,314.687L87.243,314.753C87.221,315.094 87.2,315.435 87.181,315.778L86.149,315.72L86.173,315.299C86.182,315.151 86.191,315.003 86.2,314.854L86.211,314.687ZM215.147,314.411L215.093,313.648L214.062,313.722C214.087,314.063 214.11,314.404 214.132,314.746L215.164,314.68L215.147,314.411ZM86.36,312.624L87.391,312.707C87.363,313.047 87.337,313.388 87.313,313.73L86.281,313.655C86.306,313.31 86.333,312.966 86.36,312.624ZM214.944,311.771L214.927,311.586L213.898,311.677C213.928,312.017 213.956,312.357 213.984,312.699L215.015,312.616L214.944,311.771ZM86.542,310.563L86.51,310.899L86.447,311.593L87.477,311.684C87.507,311.343 87.539,311.002 87.571,310.662L86.542,310.563ZM214.781,310.03L214.729,309.526L213.701,309.633C213.736,309.973 213.77,310.313 213.803,310.655L214.832,310.556L214.781,310.03ZM86.756,308.506L86.683,309.165L86.645,309.534L87.673,309.641C87.709,309.3 87.745,308.959 87.783,308.62L86.756,308.506ZM214.597,308.303L214.501,307.47L213.474,307.592C213.514,307.932 213.553,308.272 213.591,308.612L214.619,308.498L214.597,308.303ZM86.999,306.451L88.025,306.58C87.983,306.919 87.941,307.259 87.9,307.6L86.873,307.478C86.914,307.135 86.956,306.793 86.999,306.451ZM214.284,305.736L214.242,305.418L213.217,305.554C213.262,305.893 213.306,306.233 213.349,306.573L214.375,306.444L214.284,305.736ZM87.272,304.401L87.204,304.886L87.132,305.425L88.157,305.562C88.202,305.222 88.249,304.882 88.296,304.544L87.272,304.401ZM214.053,304.039L213.956,303.369L212.933,303.519C212.982,303.857 213.031,304.196 213.078,304.536L214.102,304.393L214.053,304.039ZM87.571,302.354L87.445,303.194L87.418,303.377L88.442,303.526C88.491,303.187 88.542,302.848 88.594,302.51L87.571,302.354ZM213.673,301.511L213.643,301.324L212.622,301.486C212.676,301.825 212.728,302.163 212.78,302.502L213.803,302.346L213.673,301.511ZM87.897,300.311L87.837,300.672L87.731,301.332L88.752,301.494C88.806,301.155 88.861,300.817 88.917,300.479L87.897,300.311ZM213.4,299.836L213.306,299.283L212.287,299.457C212.345,299.795 212.401,300.133 212.457,300.471L213.477,300.303L213.4,299.836ZM88.244,298.271L88.117,299.001L88.068,299.29L89.087,299.464C89.145,299.126 89.203,298.788 89.263,298.451L88.244,298.271ZM212.947,297.245C213.009,297.584 213.069,297.923 213.129,298.264L212.111,298.443C212.051,298.105 211.991,297.767 211.93,297.43L212.947,297.245ZM88.614,296.236L88.563,296.506L88.427,297.253L89.444,297.438C89.505,297.1 89.568,296.762 89.63,296.425L88.614,296.236ZM212.657,295.677L212.568,295.212L211.552,295.406C211.617,295.743 211.68,296.08 211.743,296.418L212.76,296.228L212.657,295.677ZM89.002,294.204L88.876,294.85L88.806,295.219L89.821,295.413C89.886,295.076 89.951,294.739 90.017,294.402L89.002,294.204ZM212.171,293.181C212.239,293.52 212.306,293.858 212.372,294.196L211.357,294.395C211.291,294.057 211.224,293.721 211.157,293.384L212.171,293.181ZM89.407,292.175L89.367,292.371L89.202,293.189L90.217,293.391C90.284,293.054 90.352,292.718 90.42,292.381L89.407,292.175ZM211.84,291.546L211.759,291.154L210.746,291.364C210.816,291.7 210.885,292.037 210.953,292.374L211.967,292.167L211.84,291.546ZM89.826,290.149L89.706,290.722L89.615,291.162L90.627,291.371C90.697,291.035 90.767,290.698 90.838,290.362L89.826,290.149ZM211.496,289.898L211.334,289.13L210.322,289.345C210.394,289.682 210.465,290.018 210.536,290.354L211.548,290.142L211.496,289.898ZM90.257,288.126L91.268,288.344C91.195,288.68 91.123,289.016 91.052,289.353L90.04,289.137C90.112,288.8 90.184,288.463 90.257,288.126ZM210.967,287.425L210.897,287.107L209.887,287.328C209.96,287.664 210.033,288 210.106,288.336L211.117,288.118L210.967,287.425ZM90.698,286.104L90.477,287.115L91.487,287.335C91.56,286.999 91.634,286.663 91.708,286.327L90.698,286.104ZM210.605,285.775L210.452,285.087L209.443,285.311C209.518,285.647 209.592,285.983 209.666,286.319L210.676,286.097L210.605,285.775ZM91.145,284.085L91.137,284.123L90.921,285.094L91.931,285.318C92.005,284.982 92.08,284.646 92.155,284.31L91.145,284.085ZM210.002,283.068L208.993,283.294C209.069,283.63 209.144,283.967 209.219,284.302L210.228,284.077L210.002,283.068ZM91.598,282.066L91.507,282.468L91.371,283.075L92.38,283.302C92.456,282.966 92.531,282.63 92.607,282.293L91.598,282.066ZM209.548,281.049L208.539,281.277C208.615,281.613 208.691,281.95 208.767,282.286L209.776,282.059L209.548,281.049ZM92.053,280.048L91.881,280.808L91.825,281.057L92.834,281.284C92.91,280.948 92.986,280.612 93.062,280.276L92.053,280.048ZM209.093,279.031L208.084,279.259C208.16,279.596 208.236,279.932 208.312,280.268L209.321,280.04L209.093,279.031ZM92.507,278.03L92.28,279.039L93.289,279.266C93.365,278.93 93.441,278.594 93.517,278.257L92.507,278.03ZM208.634,277.014C208.671,277.165 208.707,277.317 208.741,277.47L208.866,278.022L207.857,278.249C207.815,278.065 207.774,277.881 207.732,277.696C207.7,277.551 207.666,277.407 207.63,277.263L208.634,277.014ZM93.012,276.024L94.003,276.32C93.909,276.634 93.822,276.951 93.744,277.27L92.74,277.022C92.822,276.687 92.913,276.354 93.012,276.024ZM208.04,275.033C208.155,275.358 208.262,275.686 208.361,276.017L207.37,276.313C207.276,275.999 207.174,275.687 207.065,275.378L208.04,275.033ZM93.7,274.074L94.657,274.466C94.533,274.769 94.417,275.075 94.308,275.385L93.332,275.041C93.447,274.715 93.57,274.393 93.7,274.074ZM207.256,273.12C207.403,273.432 207.541,273.748 207.672,274.067L206.715,274.459C206.591,274.156 206.459,273.855 206.32,273.559L207.256,273.12ZM94.578,272.202L95.491,272.687C95.338,272.976 95.191,273.269 95.052,273.566L94.116,273.127C94.262,272.814 94.416,272.506 94.578,272.202ZM206.285,271.294C206.462,271.59 206.632,271.89 206.794,272.195L205.881,272.681C205.727,272.392 205.566,272.107 205.398,271.826L206.285,271.294ZM95.641,270.428L96.499,271.004C96.317,271.276 96.142,271.552 95.974,271.832L95.087,271.301C95.263,271.006 95.448,270.715 95.641,270.428ZM205.131,269.578C205.338,269.854 205.538,270.135 205.73,270.421L204.872,270.998C204.69,270.727 204.5,270.461 204.304,270.199L205.131,269.578ZM96.882,268.774L97.675,269.438C97.465,269.688 97.262,269.944 97.067,270.205L96.239,269.584C96.446,269.309 96.66,269.038 96.882,268.774ZM203.803,267.993C204.039,268.245 204.267,268.504 204.488,268.768L203.695,269.432C203.486,269.182 203.27,268.938 203.047,268.699L203.803,267.993ZM98.292,267.262L99.009,268.007C98.774,268.233 98.545,268.466 98.323,268.704L97.567,267.999C97.801,267.747 98.043,267.501 98.292,267.262ZM202.313,266.56C202.575,266.786 202.83,267.018 203.078,267.256L202.361,268.002C202.126,267.776 201.885,267.557 201.638,267.343L202.313,266.56ZM99.858,265.911L100.489,266.73C100.231,266.93 99.978,267.136 99.732,267.348L99.057,266.565C99.317,266.341 99.584,266.122 99.858,265.911ZM200.675,265.298C200.96,265.494 201.239,265.697 201.511,265.906L200.88,266.726C200.623,266.528 200.359,266.336 200.09,266.151L200.675,265.298ZM101.562,264.74L102.1,265.623C101.821,265.794 101.547,265.971 101.28,266.155L100.694,265.302C100.977,265.108 101.266,264.92 101.562,264.74ZM198.909,264.223C199.214,264.387 199.514,264.558 199.807,264.736L199.269,265.619C198.992,265.451 198.709,265.289 198.42,265.134L198.909,264.223ZM103.384,263.762L103.823,264.698C103.526,264.837 103.234,264.984 102.949,265.137L102.46,264.226C102.761,264.064 103.069,263.909 103.384,263.762ZM197.037,263.345C197.358,263.475 197.674,263.613 197.985,263.759L197.545,264.695C197.252,264.557 196.953,264.426 196.648,264.303L197.037,263.345ZM105.299,262.983L105.638,263.961C105.327,264.069 105.021,264.184 104.72,264.306L104.331,263.347C104.648,263.219 104.971,263.097 105.299,262.983ZM195.083,262.668C195.416,262.765 195.745,262.869 196.068,262.981L195.73,263.958C195.424,263.852 195.112,263.753 194.795,263.662L195.083,262.668ZM107.285,262.407L107.523,263.414C107.202,263.49 106.885,263.573 106.573,263.664L106.285,262.671C106.613,262.575 106.947,262.487 107.285,262.407ZM193.07,262.193C193.412,262.256 193.749,262.327 194.082,262.406L193.845,263.412C193.528,263.337 193.207,263.27 192.881,263.209L193.07,262.193ZM109.318,262.029L109.46,263.053C109.131,263.099 108.806,263.151 108.486,263.211L108.297,262.194C108.633,262.132 108.973,262.076 109.318,262.029ZM191.022,261.91C191.369,261.942 191.712,261.981 192.049,262.028L191.908,263.052C191.586,263.008 191.259,262.971 190.927,262.94L191.022,261.91ZM111.378,261.839L111.427,262.872C111.094,262.888 110.765,262.911 110.441,262.941L110.346,261.911C110.686,261.88 111.03,261.856 111.378,261.839ZM188.956,261.811C189.304,261.813 189.648,261.822 189.99,261.839L189.94,262.872C189.614,262.856 189.284,262.847 188.95,262.845L188.956,261.811ZM113.446,261.81L113.446,262.845L112.418,262.845L112.417,262.59C112.304,262.393 112.155,262.104 112.06,261.815C112.229,261.812 112.399,261.81 112.57,261.81L113.446,261.81ZM127.927,261.81L126.893,261.81L126.893,262.845L127.927,262.845L127.927,261.81ZM125.859,261.81L124.824,261.81L124.824,262.845L125.859,262.845L125.859,261.81ZM132.065,261.81L131.031,261.81L131.031,262.845L132.065,262.845L132.065,261.81ZM150.684,261.81L149.649,261.81L149.649,262.845L150.684,262.845L150.684,261.81ZM152.753,261.81L151.718,261.81L151.718,262.845L152.753,262.845L152.753,261.81ZM129.996,261.81L128.962,261.81L128.962,262.845L129.996,262.845L129.996,261.81ZM165.165,261.81L164.131,261.81L164.131,262.845L165.165,262.845L165.165,261.81ZM117.584,261.81L116.549,261.81L116.549,262.845L117.584,262.845L117.584,261.81ZM167.234,261.81L166.2,261.81L166.2,262.845L167.234,262.845L167.234,261.81ZM173.44,261.81L172.406,261.81L172.406,262.845L173.44,262.845L173.44,261.81ZM121.721,261.81L120.687,261.81L120.687,262.845L121.721,262.845L121.721,261.81ZM175.509,261.81L174.474,261.81L174.474,262.845L175.509,262.845L175.509,261.81ZM123.79,261.81L122.755,261.81L122.755,262.845L123.79,262.845L123.79,261.81ZM148.615,261.81L147.581,261.81L147.581,262.845L148.615,262.845L148.615,261.81ZM158.959,261.81L157.925,261.81L157.925,262.845L158.959,262.845L158.959,261.81ZM154.821,261.81L153.787,261.81L153.787,262.845L154.821,262.845L154.821,261.81ZM156.89,261.81L155.856,261.81L155.856,262.845L156.89,262.845L156.89,261.81ZM161.028,261.81L159.993,261.81L159.993,262.845L161.028,262.845L161.028,261.81ZM163.096,261.81L162.062,261.81L162.062,262.845L163.096,262.845L163.096,261.81ZM115.515,261.81L114.48,261.81L114.48,262.845L115.515,262.845L115.515,261.81ZM134.134,261.81L133.099,261.81L133.099,262.845L134.134,262.845L134.134,261.81ZM136.203,261.81L135.168,261.81L135.168,262.845L136.203,262.845L136.203,261.81ZM169.303,261.81L168.268,261.81L168.268,262.845L169.303,262.845L169.303,261.81ZM171.371,261.81L170.337,261.81L170.337,262.845L171.371,262.845L171.371,261.81ZM119.652,261.81L118.618,261.81L118.618,262.845L119.652,262.845L119.652,261.81ZM177.578,261.81L176.543,261.81L176.543,262.845L177.578,262.845L177.578,261.81ZM185.853,261.81L184.818,261.81L184.818,262.845L185.853,262.845L185.853,261.81ZM146.546,261.81L145.512,261.81L145.512,262.845L146.546,262.845L146.546,261.81ZM144.478,261.81L143.443,261.81L143.443,262.845L144.478,262.845L144.478,261.81ZM138.271,261.81L137.237,261.81L137.237,262.845L138.271,262.845L138.271,261.81ZM183.784,261.81L182.75,261.81L182.75,262.845L183.784,262.845L183.784,261.81ZM187.921,261.81L186.887,261.81L186.887,262.845L187.921,262.845L187.921,261.81ZM181.715,261.81L180.681,261.81L180.681,262.845L181.715,262.845L181.715,261.81ZM179.646,261.81L178.612,261.81L178.612,262.845L179.646,262.845L179.646,261.81ZM140.34,261.81L139.306,261.81L139.306,262.845L140.34,262.845L140.34,261.81ZM142.409,261.81L141.374,261.81L141.374,262.845L142.409,262.845L142.409,261.81Z" style="fill:#ff6e99;"/>
        </g>
        <path d="M118.843,244.367C119.255,228.902 132.932,216.482 149.743,216.482C166.554,216.482 180.23,228.902 180.642,244.367L180.651,244.367L180.651,256.119L170.55,256.119C171.988,252.235 172.793,248.352 172.915,244.469C172.562,232.907 162.323,223.633 149.743,223.633C137.162,223.633 126.923,232.907 126.57,244.469C126.603,248.415 127.257,252.31 128.935,256.119L118.834,256.119L118.834,244.367L118.843,244.367Z" style="fill:#ff6e99;"/>
        <g transform="matrix(1,0,0,1,0.78822,28.0091)">
            <g transform="matrix(1.2131,0,0,0.434155,-26.1123,125.335)">
                <path d="M129.822,245.38C129.822,243.701 129.334,242.338 128.733,242.338L117.353,242.338C116.752,242.338 116.265,243.701 116.265,245.38L116.265,263.096C116.265,264.775 116.752,266.139 117.353,266.139L128.733,266.139C129.334,266.139 129.822,264.775 129.822,263.096L129.822,245.38Z" style="fill:none;stroke:#939393;stroke-width:3.77px;"/>
            </g>
            <path d="M129.822,243.709C129.822,242.952 129.208,242.338 128.451,242.338L117.636,242.338C116.879,242.338 116.265,242.952 116.265,243.709L116.265,264.768C116.265,265.524 116.879,266.139 117.636,266.139L128.451,266.139C129.208,266.139 129.822,265.524 129.822,264.768L129.822,243.709Z" style="fill:#ffb8cd;"/>
            <g transform="matrix(1,0,0,0.186176,0,193.548)">
                <path d="M129.822,248.288C129.822,245.004 129.326,242.338 128.714,242.338L117.372,242.338C116.761,242.338 116.265,245.004 116.265,248.288L116.265,260.188C116.265,263.472 116.761,266.139 117.372,266.139L128.714,266.139C129.326,266.139 129.822,263.472 129.822,260.188L129.822,248.288Z" style="fill:#ffb8cd;"/>
            </g>
            <g transform="matrix(1,0,0,-0.186176,0,277.658)">
                <path d="M129.822,248.288C129.822,245.004 129.326,242.338 128.714,242.338L117.372,242.338C116.761,242.338 116.265,245.004 116.265,248.288L116.265,260.188C116.265,263.472 116.761,266.139 117.372,266.139L128.714,266.139C129.326,266.139 129.822,263.472 129.822,260.188L129.822,248.288Z" style="fill:#ffb8cd;"/>
            </g>
            <g transform="matrix(0.755684,0,0,0.867826,30.0615,33.6037)">
                <path d="M129.822,242.338L116.265,242.338L116.265,266.139L129.822,266.139L129.822,242.338ZM129.425,242.684L129.425,265.793C129.425,265.793 116.662,265.793 116.662,265.793C116.662,265.793 116.662,242.684 116.662,242.684L129.425,242.684Z" style="fill:#ff6e99;"/>
            </g>
            <g transform="matrix(1,0,0,1,-0.78822,-15.9581)">
                <path d="M117.402,258.753C117.185,258.996 117.053,259.316 117.053,259.667L117.053,280.726C117.053,281.482 117.667,282.097 118.424,282.097L129.239,282.097C129.996,282.097 130.61,281.482 130.61,280.726L130.61,259.667C130.61,259.316 130.478,258.996 130.261,258.753C130.476,258.551 130.61,258.264 130.61,257.946L130.61,255.731C130.61,255.119 130.114,254.623 129.502,254.623L118.161,254.623C117.549,254.623 117.053,255.119 117.053,255.731L117.053,257.946C117.053,258.264 117.187,258.551 117.402,258.753ZM129.61,259.667L129.61,280.726C129.61,280.93 129.444,281.097 129.239,281.097L118.424,281.097C118.219,281.097 118.053,280.93 118.053,280.726L118.053,259.667C118.053,259.462 118.219,259.296 118.424,259.296L129.239,259.296C129.444,259.296 129.61,259.462 129.61,259.667ZM129.61,255.731L129.61,257.946C129.61,258.006 129.562,258.054 129.502,258.054L118.161,258.054C118.101,258.054 118.053,258.006 118.053,257.946L118.053,255.731C118.053,255.671 118.101,255.623 118.161,255.623C118.161,255.623 129.502,255.623 129.502,255.623C129.562,255.623 129.61,255.671 129.61,255.731ZM130.61,247.391C130.61,248.003 130.114,248.499 129.502,248.499L118.161,248.499C117.549,248.499 117.053,248.003 117.053,247.391L117.053,245.176C117.053,244.564 117.549,244.068 118.161,244.068L129.502,244.068C130.114,244.068 130.61,244.564 130.61,245.176L130.61,247.391ZM129.61,247.391C129.61,247.451 129.562,247.499 129.502,247.499L118.161,247.499C118.101,247.499 118.053,247.451 118.053,247.391L118.053,245.176C118.053,245.116 118.101,245.068 118.161,245.068L129.502,245.068C129.562,245.068 129.61,245.116 129.61,245.176C129.61,245.176 129.61,247.391 129.61,247.391Z" style="fill:#ff6e99;"/>
            </g>
        </g>
        <g transform="matrix(1,0,0,1,52.9086,28.0091)">
            <g transform="matrix(1.2131,0,0,0.434155,-26.1123,125.335)">
                <path d="M129.822,245.38C129.822,243.701 129.334,242.338 128.733,242.338L117.353,242.338C116.752,242.338 116.265,243.701 116.265,245.38L116.265,263.096C116.265,264.775 116.752,266.139 117.353,266.139L128.733,266.139C129.334,266.139 129.822,264.775 129.822,263.096L129.822,245.38Z" style="fill:none;stroke:#939393;stroke-width:3.77px;"/>
            </g>
            <path d="M129.822,243.709C129.822,242.952 129.208,242.338 128.451,242.338L117.636,242.338C116.879,242.338 116.265,242.952 116.265,243.709L116.265,264.768C116.265,265.524 116.879,266.139 117.636,266.139L128.451,266.139C129.208,266.139 129.822,265.524 129.822,264.768L129.822,243.709Z" style="fill:#ffb8cd;"/>
            <g transform="matrix(1,0,0,0.186176,0,193.548)">
                <path d="M129.822,248.288C129.822,245.004 129.326,242.338 128.714,242.338L117.372,242.338C116.761,242.338 116.265,245.004 116.265,248.288L116.265,260.188C116.265,263.472 116.761,266.139 117.372,266.139L128.714,266.139C129.326,266.139 129.822,263.472 129.822,260.188L129.822,248.288Z" style="fill:#ffb8cd;"/>
            </g>
            <g transform="matrix(1,0,0,-0.186176,0,277.658)">
                <path d="M129.822,248.288C129.822,245.004 129.326,242.338 128.714,242.338L117.372,242.338C116.761,242.338 116.265,245.004 116.265,248.288L116.265,260.188C116.265,263.472 116.761,266.139 117.372,266.139L128.714,266.139C129.326,266.139 129.822,263.472 129.822,260.188L129.822,248.288Z" style="fill:#ffb8cd;"/>
            </g>
            <g transform="matrix(0.755684,0,0,0.867826,30.0615,33.6037)">
                <path d="M129.822,242.338L116.265,242.338L116.265,266.139L129.822,266.139L129.822,242.338ZM129.425,242.684L129.425,265.793C129.425,265.793 116.662,265.793 116.662,265.793C116.662,265.793 116.662,242.684 116.662,242.684L129.425,242.684Z" style="fill:#ff6e99;"/>
            </g>
            <g transform="matrix(1,0,0,1,-52.9086,-15.9581)">
                <path d="M169.522,258.753C169.305,258.996 169.173,259.316 169.173,259.667L169.173,280.726C169.173,281.482 169.788,282.097 170.544,282.097L181.36,282.097C182.116,282.097 182.731,281.482 182.731,280.726L182.731,259.667C182.731,259.316 182.598,258.996 182.381,258.753C182.596,258.551 182.731,258.264 182.731,257.946L182.731,255.731C182.731,255.119 182.234,254.623 181.623,254.623L170.281,254.623C169.67,254.623 169.173,255.119 169.173,255.731L169.173,257.946C169.173,258.264 169.307,258.551 169.522,258.753ZM181.731,259.667L181.731,280.726C181.731,280.93 181.564,281.097 181.36,281.097L170.544,281.097C170.339,281.097 170.173,280.93 170.173,280.726C170.173,280.726 170.173,259.667 170.173,259.667C170.173,259.462 170.339,259.296 170.544,259.296L181.36,259.296C181.564,259.296 181.731,259.462 181.731,259.667ZM181.731,255.731L181.731,257.946C181.731,258.006 181.682,258.054 181.623,258.054L170.281,258.054C170.221,258.054 170.173,258.006 170.173,257.946C170.173,257.946 170.173,255.731 170.173,255.731C170.173,255.671 170.221,255.623 170.281,255.623C170.281,255.623 181.623,255.623 181.623,255.623C181.682,255.623 181.731,255.671 181.731,255.731ZM182.731,247.391C182.731,248.003 182.234,248.499 181.623,248.499L170.281,248.499C169.67,248.499 169.173,248.003 169.173,247.391L169.173,245.176C169.173,244.564 169.67,244.068 170.281,244.068L181.623,244.068C182.234,244.068 182.731,244.564 182.731,245.176L182.731,247.391ZM181.731,247.391C181.731,247.451 181.682,247.499 181.623,247.499L170.281,247.499C170.221,247.499 170.173,247.451 170.173,247.391C170.173,247.391 170.173,245.176 170.173,245.176C170.173,245.116 170.221,245.068 170.281,245.068L181.623,245.068C181.682,245.068 181.731,245.116 181.731,245.176L181.731,247.391Z" style="fill:#ff6e99;"/>
            </g>
        </g>
    </g>
</svg>
