<?xml version="1.0" encoding="UTF-8" standalone="no"?>
<!DOCTYPE svg PUBLIC "-//W3C//DTD SVG 1.1//EN" "http://www.w3.org/Graphics/SVG/1.1/DTD/svg11.dtd">
<svg width="100%" height="100%" viewBox="0 0 300 345" version="1.1" xmlns="http://www.w3.org/2000/svg" xmlns:xlink="http://www.w3.org/1999/xlink" xml:space="preserve" xmlns:serif="http://www.serif.com/" style="fill-rule:evenodd;clip-rule:evenodd;stroke-linejoin:round;stroke-miterlimit:2;">
    <g id="avatar_item_13">
        <g transform="matrix(0.965926,-0.258819,0.258819,0.965926,-80.3416,29.9174)">
            <path d="M83.355,256.549C83.355,247.879 76.316,240.84 67.645,240.84L36.227,240.84C27.557,240.84 20.518,247.879 20.518,256.549L20.518,317.524C20.518,326.194 27.557,333.233 36.227,333.233L67.645,333.233C76.316,333.233 83.355,326.194 83.355,317.524L83.355,256.549Z" style="fill:#8ec700;"/>
            <path d="M83.355,256.549C83.355,247.879 76.316,240.84 67.645,240.84L36.227,240.84C27.557,240.84 20.518,247.879 20.518,256.549L20.518,317.524C20.518,326.194 27.557,333.233 36.227,333.233L67.645,333.233C76.316,333.233 83.355,326.194 83.355,317.524L83.355,256.549ZM81.355,256.549L81.355,317.524C81.355,325.09 75.212,331.233 67.645,331.233L36.227,331.233C28.661,331.233 22.518,325.09 22.518,317.524C22.518,317.524 22.518,256.549 22.518,256.549C22.518,248.983 28.661,242.84 36.227,242.84L67.645,242.84C75.212,242.84 81.355,248.983 81.355,256.549Z" style="fill:#8ec700;"/>
        </g>
        <g transform="matrix(0.965926,-0.258819,0.258819,0.965926,-73.4264,27.9174)">
            <path d="M83.355,256.549C83.355,247.879 76.316,240.84 67.645,240.84L36.227,240.84C27.557,240.84 20.518,247.879 20.518,256.549L20.518,317.524C20.518,326.194 27.557,333.233 36.227,333.233L67.645,333.233C76.316,333.233 83.355,326.194 83.355,317.524L83.355,256.549Z" style="fill:#b0f600;"/>
            <path d="M83.355,256.549C83.355,247.879 76.316,240.84 67.645,240.84L36.227,240.84C27.557,240.84 20.518,247.879 20.518,256.549L20.518,317.524C20.518,326.194 27.557,333.233 36.227,333.233L67.645,333.233C76.316,333.233 83.355,326.194 83.355,317.524L83.355,256.549ZM81.355,256.549L81.355,317.524C81.355,325.09 75.212,331.233 67.645,331.233L36.227,331.233C28.661,331.233 22.518,325.09 22.518,317.524C22.518,317.524 22.518,256.549 22.518,256.549C22.518,248.983 28.661,242.84 36.227,242.84C36.227,242.84 67.645,242.84 67.645,242.84C75.212,242.84 81.355,248.983 81.355,256.549Z" style="fill:#8ec700;"/>
        </g>
        <path d="M10.076,288.084L10.594,290.016L20.081,287.416L19.552,285.487L10.076,288.084ZM8.879,283.616L9.396,285.548L18.81,282.968L18.281,281.039L8.879,283.616ZM7.616,278.903L8.134,280.835L17.666,278.223L17.138,276.294L7.616,278.903Z" style="fill:#b0f600;"/>
        <g transform="matrix(0.965926,-0.258819,0.258819,0.965926,-83.2767,32.0517)">
            <path d="M77.237,320.261C77.905,320.261 78.448,320.803 78.448,321.472C78.448,322.141 77.905,322.683 77.237,322.683C76.568,322.683 76.025,322.141 76.025,321.472C76.025,320.803 76.568,320.261 77.237,320.261ZM80.566,320.261C81.235,320.261 81.778,320.803 81.778,321.472C81.778,322.141 81.235,322.683 80.566,322.683C79.898,322.683 79.355,322.141 79.355,321.472C79.355,320.803 79.898,320.261 80.566,320.261ZM83.854,320.261C84.522,320.261 85.065,320.803 85.065,321.472C85.065,322.141 84.522,322.683 83.854,322.683C83.185,322.683 82.642,322.141 82.642,321.472C82.642,320.803 83.185,320.261 83.854,320.261ZM77.237,316.97C77.905,316.97 78.448,317.513 78.448,318.182C78.448,318.85 77.905,319.393 77.237,319.393C76.568,319.393 76.025,318.85 76.025,318.182C76.025,317.513 76.568,316.97 77.237,316.97ZM80.566,316.97C81.235,316.97 81.778,317.513 81.778,318.182C81.778,318.85 81.235,319.393 80.566,319.393C79.898,319.393 79.355,318.85 79.355,318.182C79.355,317.513 79.898,316.97 80.566,316.97ZM83.854,316.97C84.522,316.97 85.065,317.513 85.065,318.182C85.065,318.85 84.522,319.393 83.854,319.393C83.185,319.393 82.642,318.85 82.642,318.182C82.642,317.513 83.185,316.97 83.854,316.97ZM77.237,313.555C77.905,313.555 78.448,314.098 78.448,314.767C78.448,315.435 77.905,315.978 77.237,315.978C76.568,315.978 76.025,315.435 76.025,314.767C76.025,314.098 76.568,313.555 77.237,313.555ZM80.566,313.555C81.235,313.555 81.778,314.098 81.778,314.767C81.778,315.435 81.235,315.978 80.566,315.978C79.898,315.978 79.355,315.435 79.355,314.767C79.355,314.098 79.898,313.555 80.566,313.555ZM83.854,313.555C84.522,313.555 85.065,314.098 85.065,314.767C85.065,315.435 84.522,315.978 83.854,315.978C83.185,315.978 82.642,315.435 82.642,314.767C82.642,314.098 83.185,313.555 83.854,313.555Z" style="fill:#8ec700;"/>
        </g>
        <g transform="matrix(0.965926,-0.258819,0.258819,0.965926,-83.2767,32.0517)">
            <path d="M77.237,320.261C77.905,320.261 78.448,320.803 78.448,321.472C78.448,322.141 77.905,322.683 77.237,322.683C76.568,322.683 76.025,322.141 76.025,321.472C76.025,320.803 76.568,320.261 77.237,320.261ZM80.566,320.261C81.235,320.261 81.778,320.803 81.778,321.472C81.778,322.141 81.235,322.683 80.566,322.683C79.898,322.683 79.355,322.141 79.355,321.472C79.355,320.803 79.898,320.261 80.566,320.261ZM83.854,320.261C84.522,320.261 85.065,320.803 85.065,321.472C85.065,322.141 84.522,322.683 83.854,322.683C83.185,322.683 82.642,322.141 82.642,321.472C82.642,320.803 83.185,320.261 83.854,320.261ZM77.237,320.761C77.63,320.761 77.948,321.079 77.948,321.472C77.948,321.865 77.63,322.183 77.237,322.183C76.844,322.183 76.525,321.865 76.525,321.472C76.525,321.079 76.844,320.761 77.237,320.761ZM80.566,320.761C80.959,320.761 81.278,321.079 81.278,321.472C81.278,321.865 80.959,322.183 80.566,322.183C80.173,322.183 79.855,321.865 79.855,321.472C79.855,321.079 80.173,320.761 80.566,320.761ZM83.854,320.761C84.246,320.761 84.565,321.079 84.565,321.472C84.565,321.865 84.246,322.183 83.854,322.183C83.461,322.183 83.142,321.865 83.142,321.472C83.142,321.079 83.461,320.761 83.854,320.761ZM77.237,316.97C77.905,316.97 78.448,317.513 78.448,318.182C78.448,318.85 77.905,319.393 77.237,319.393C76.568,319.393 76.025,318.85 76.025,318.182C76.025,317.513 76.568,316.97 77.237,316.97ZM80.566,316.97C81.235,316.97 81.778,317.513 81.778,318.182C81.778,318.85 81.235,319.393 80.566,319.393C79.898,319.393 79.355,318.85 79.355,318.182C79.355,317.513 79.898,316.97 80.566,316.97ZM83.854,316.97C84.522,316.97 85.065,317.513 85.065,318.182C85.065,318.85 84.522,319.393 83.854,319.393C83.185,319.393 82.642,318.85 82.642,318.182C82.642,317.513 83.185,316.97 83.854,316.97ZM77.237,317.47C77.63,317.47 77.948,317.789 77.948,318.182C77.948,318.574 77.63,318.893 77.237,318.893C76.844,318.893 76.525,318.574 76.525,318.182C76.525,317.789 76.844,317.47 77.237,317.47ZM80.566,317.47C80.959,317.47 81.278,317.789 81.278,318.182C81.278,318.574 80.959,318.893 80.566,318.893C80.173,318.893 79.855,318.574 79.855,318.182C79.855,317.789 80.173,317.47 80.566,317.47ZM83.854,317.47C84.246,317.47 84.565,317.789 84.565,318.182C84.565,318.574 84.246,318.893 83.854,318.893C83.461,318.893 83.142,318.574 83.142,318.182C83.142,317.789 83.461,317.47 83.854,317.47ZM77.237,313.555C77.905,313.555 78.448,314.098 78.448,314.767C78.448,315.435 77.905,315.978 77.237,315.978C76.568,315.978 76.025,315.435 76.025,314.767C76.025,314.098 76.568,313.555 77.237,313.555ZM80.566,313.555C81.235,313.555 81.778,314.098 81.778,314.767C81.778,315.435 81.235,315.978 80.566,315.978C79.898,315.978 79.355,315.435 79.355,314.767C79.355,314.098 79.898,313.555 80.566,313.555ZM83.854,313.555C84.522,313.555 85.065,314.098 85.065,314.767C85.065,315.435 84.522,315.978 83.854,315.978C83.185,315.978 82.642,315.435 82.642,314.767C82.642,314.098 83.185,313.555 83.854,313.555ZM77.237,314.055C77.63,314.055 77.948,314.374 77.948,314.767C77.948,315.159 77.63,315.478 77.237,315.478C76.844,315.478 76.525,315.159 76.525,314.767C76.525,314.374 76.844,314.055 77.237,314.055ZM80.566,314.055C80.959,314.055 81.278,314.374 81.278,314.767C81.278,315.159 80.959,315.478 80.566,315.478C80.173,315.478 79.855,315.159 79.855,314.767C79.855,314.374 80.173,314.055 80.566,314.055ZM83.854,314.055C84.246,314.055 84.565,314.374 84.565,314.767C84.565,315.159 84.246,315.478 83.854,315.478C83.461,315.478 83.142,315.159 83.142,314.767C83.142,314.374 83.461,314.055 83.854,314.055Z" style="fill:#74a200;"/>
        </g>
        <g transform="matrix(0.965926,-0.258819,0.258819,0.965926,-69.7984,12.2268)">
            <path d="M69.156,272.137C69.156,267.171 65.125,263.14 60.16,263.14L29.894,263.14C24.929,263.14 20.898,267.171 20.898,272.137L20.898,290.129C20.898,295.094 24.929,299.126 29.894,299.126L60.16,299.126C65.125,299.126 69.156,295.094 69.156,290.129L69.156,272.137Z" style="fill:#3a3a3a;"/>
        </g>
        <g transform="matrix(0.965926,-0.258819,0.258819,0.965926,-74.3896,17.6513)">
            <rect x="32.694" y="264.689" width="36.343" height="24.785" style="fill:#9f9f9f;"/>
        </g>
        <g transform="matrix(0.965926,-0.258819,0.258819,0.965926,-67.1098,20.6969)">
            <text x="30.107px" y="272.637px" style="font-family:'Nunito-BoldItalic', 'Nunito';font-weight:700;font-style:italic;font-size:6px;">Blook Boy</text>
        </g>
        <g transform="matrix(0.965926,-0.258819,0.258819,0.965926,-74.3249,12.5476)">
            <text x="46.457px" y="290.226px" style="font-family:'Nunito-Bold', 'Nunito';font-weight:700;font-size:2px;">Blooket</text>
        </g>
        <g transform="matrix(0.965926,-0.258819,0.258819,0.965926,-74.3896,17.6513)">
            <path d="M69.037,264.689L32.694,264.689L32.694,289.474L69.037,289.474L69.037,264.689ZM68.037,265.689L68.037,288.474C68.037,288.474 33.694,288.474 33.694,288.474C33.694,288.474 33.694,265.689 33.694,265.689L68.037,265.689Z"/>
        </g>
        <g transform="matrix(0.764336,-0.204803,0.204803,0.764336,-50.3225,88.4633)">
            <path d="M55.301,320.256C55.301,319.746 54.888,319.333 54.378,319.333L49.314,319.333C48.804,319.333 48.39,319.746 48.39,320.256L48.39,322.103C48.39,322.613 48.804,323.026 49.314,323.026L54.378,323.026C54.888,323.026 55.301,322.613 55.301,322.103L55.301,320.256ZM68.528,320.256C68.528,319.746 68.114,319.333 67.604,319.333L62.54,319.333C62.031,319.333 61.617,319.746 61.617,320.256L61.617,322.103C61.617,322.613 62.031,323.026 62.54,323.026L67.604,323.026C68.114,323.026 68.528,322.613 68.528,322.103L68.528,320.256Z" style="fill:#070707;"/>
        </g>
        <g transform="matrix(0.764336,-0.204803,0.204803,0.764336,-49.6428,88.2779)">
            <path d="M55.301,320.256C55.301,319.746 54.888,319.333 54.378,319.333L49.314,319.333C48.804,319.333 48.39,319.746 48.39,320.256L48.39,322.103C48.39,322.613 48.804,323.026 49.314,323.026L54.378,323.026C54.888,323.026 55.301,322.613 55.301,322.103L55.301,320.256ZM68.528,320.256C68.528,319.746 68.114,319.333 67.604,319.333L62.54,319.333C62.031,319.333 61.617,319.746 61.617,320.256L61.617,322.103C61.617,322.613 62.031,323.026 62.54,323.026L67.604,323.026C68.114,323.026 68.528,322.613 68.528,322.103L68.528,320.256Z" style="fill:#3a3a3a;"/>
        </g>
        <g transform="matrix(0.965926,-0.258819,0.258819,0.965926,-74.6509,32.874)">
            <circle cx="63.769" cy="297.876" r="4.144" style="fill:#070707;"/>
            <g transform="matrix(1,0,0,1,1.11236,0)">
                <circle cx="63.769" cy="297.876" r="4.144" style="fill:#3a3a3a;"/>
            </g>
            <g transform="matrix(1,0,0,1,-0.179211,0.364605)">
                <text x="62.906px" y="300.003px" style="font-family:'Nunito-Bold', 'Nunito';font-weight:700;font-size:7px;">B</text>
            </g>
        </g>
        <g transform="matrix(0.965926,-0.258819,0.258819,0.965926,-65.1163,26.0286)">
            <circle cx="63.769" cy="297.876" r="4.144" style="fill:#070707;"/>
            <g transform="matrix(1,0,0,1,1.11236,0)">
                <circle cx="63.769" cy="297.876" r="4.144" style="fill:#3a3a3a;"/>
            </g>
            <g transform="matrix(1,0,0,1,-0.495516,-0.138921)">
                <text x="62.906px" y="300.003px" style="font-family:'Nunito-Bold', 'Nunito';font-weight:700;font-size:7px;">A</text>
            </g>
        </g>
        <g transform="matrix(0.965926,-0.258819,0.258819,0.965926,-81.8025,26.3937)">
            <g transform="matrix(1,0,0,1,-2,0)">
                <path d="M43.789,302.12L39.939,302.12C38.939,302.12 38.128,302.931 38.128,303.93L38.128,307.551C38.128,308.55 38.939,309.361 39.939,309.361L43.789,309.361L43.789,313.212C43.789,314.211 44.6,315.022 45.6,315.022L49.22,315.022C50.22,315.022 51.031,314.211 51.031,313.212L51.031,309.361L54.881,309.361C55.88,309.361 56.692,308.55 56.692,307.551L56.692,303.93C56.692,302.931 55.88,302.12 54.881,302.12L51.031,302.12L51.031,298.269C51.031,297.27 50.22,296.459 49.22,296.459L45.6,296.459C44.6,296.459 43.789,297.27 43.789,298.269L43.789,302.12Z" style="fill:#070707;"/>
            </g>
            <path d="M43.789,302.12L39.939,302.12C38.939,302.12 38.128,302.931 38.128,303.93L38.128,307.551C38.128,308.55 38.939,309.361 39.939,309.361L43.789,309.361L43.789,313.212C43.789,314.211 44.6,315.022 45.6,315.022L49.22,315.022C50.22,315.022 51.031,314.211 51.031,313.212L51.031,309.361L54.881,309.361C55.88,309.361 56.692,308.55 56.692,307.551L56.692,303.93C56.692,302.931 55.88,302.12 54.881,302.12L51.031,302.12L51.031,298.269C51.031,297.27 50.22,296.459 49.22,296.459L45.6,296.459C44.6,296.459 43.789,297.27 43.789,298.269L43.789,302.12Z" style="fill:#3a3a3a;"/>
            <g transform="matrix(0.965926,0.258819,-0.258819,0.965926,86.2416,-1.27805)">
                <circle cx="41.954" cy="306.608" r="2.101" style="fill:#3a3a3a;"/>
            </g>
            <g transform="matrix(0.965926,0.258819,-0.258819,0.965926,86.2416,-1.27805)">
                <path d="M41.954,304.507C43.113,304.507 44.055,305.448 44.055,306.608C44.055,307.767 43.113,308.709 41.954,308.709C40.794,308.709 39.853,307.767 39.853,306.608C39.853,305.448 40.794,304.507 41.954,304.507ZM41.954,305.007C42.837,305.007 43.555,305.724 43.555,306.608C43.555,307.491 42.837,308.209 41.954,308.209C41.07,308.209 40.353,307.491 40.353,306.608C40.353,305.724 41.07,305.007 41.954,305.007Z" style="fill:#222;"/>
            </g>
            <g transform="matrix(1,0,0,1,5.39767,0.0494097)">
                <path d="M42.012,297.678L43.98,300.708L40.044,300.708L42.012,297.678Z" style="fill:#3a3a3a;"/>
            </g>
            <g transform="matrix(1,0,0,1,5.39767,0.0494097)">
                <path d="M42.012,297.678L43.98,300.708L40.044,300.708L42.012,297.678ZM42.012,298.596L43.059,300.208C43.059,300.208 40.965,300.208 40.965,300.208L42.012,298.596Z" style="fill:#222;"/>
            </g>
            <g transform="matrix(1,0,0,-1,5.39767,611.618)">
                <path d="M42.012,297.678L43.98,300.708L40.044,300.708L42.012,297.678Z" style="fill:#3a3a3a;"/>
            </g>
            <g transform="matrix(1,0,0,-1,5.39767,611.618)">
                <path d="M42.012,297.678L43.98,300.708L40.044,300.708L42.012,297.678ZM42.012,298.596L40.965,300.208C40.965,300.208 43.059,300.208 43.059,300.208L42.012,298.596Z" style="fill:#222;"/>
            </g>
            <g transform="matrix(6.12323e-17,-1,1,6.12323e-17,-258.374,347.886)">
                <path d="M42.012,297.678L43.98,300.708L40.044,300.708L42.012,297.678Z" style="fill:#3a3a3a;"/>
            </g>
            <g transform="matrix(6.12323e-17,-1,1,6.12323e-17,-258.374,347.886)">
                <path d="M42.012,297.678L43.98,300.708L40.044,300.708L42.012,297.678ZM42.012,298.596L43.059,300.208C43.059,300.208 40.965,300.208 40.965,300.208L42.012,298.596Z" style="fill:#222;"/>
            </g>
            <g transform="matrix(6.12323e-17,-1,-1,-6.12323e-17,353.194,347.886)">
                <path d="M42.012,297.678L43.98,300.708L40.044,300.708L42.012,297.678Z" style="fill:#3a3a3a;"/>
            </g>
            <g transform="matrix(6.12323e-17,-1,-1,-6.12323e-17,353.194,347.886)">
                <path d="M42.012,297.678L43.98,300.708L40.044,300.708L42.012,297.678ZM42.012,298.596L40.965,300.208C40.965,300.208 43.059,300.208 43.059,300.208L42.012,298.596Z" style="fill:#222;"/>
            </g>
        </g>
    </g>
</svg>
