<?xml version="1.0" encoding="UTF-8" standalone="no"?>
<!DOCTYPE svg PUBLIC "-//W3C//DTD SVG 1.1//EN" "http://www.w3.org/Graphics/SVG/1.1/DTD/svg11.dtd">
<svg width="100%" height="100%" viewBox="0 0 300 345" version="1.1" xmlns="http://www.w3.org/2000/svg" xmlns:xlink="http://www.w3.org/1999/xlink" xml:space="preserve" xmlns:serif="http://www.serif.com/" style="fill-rule:evenodd;clip-rule:evenodd;stroke-linejoin:round;stroke-miterlimit:2;">
    <g id="avatar_clothing_36">
        <path d="M300,308.62C300,315.145 298.245,321.292 295.184,326.611C288.884,337.561 239.976,345 239.976,345L60.068,345C60.068,345 11.116,337.561 4.816,326.611C1.755,321.292 -0,315.145 -0,308.62L-0,262.01L0,262L-0,262.01C-0,281.962 16.418,298.38 36.37,298.38L263.62,298.38C283.577,298.38 300,281.957 300,262L300,308.62Z" style="fill:#141414;fill-rule:nonzero;"/>
        <g transform="matrix(1,0,0,0.827057,-5.55915e-07,51.6028)">
            <path d="M202.949,298.38C190.315,305.65 171.278,310.28 150,310.28C128.722,310.28 109.685,305.65 97.051,298.38L101.284,298.38C113.569,304.501 130.865,308.28 150,308.28C169.135,308.28 186.431,304.501 198.716,298.38L202.949,298.38Z"/>
        </g>
        <path d="M5.451,327.673C8.215,315.99 10.298,306.19 19.315,308.585C33.537,312.364 46.675,333.429 59.151,345L36.38,345C23.386,345 11.89,338.038 5.451,327.673ZM240.849,345C253.325,333.429 266.463,312.364 280.685,308.585C289.702,306.19 291.785,315.99 294.549,327.673C288.11,338.038 276.614,345 263.62,345L240.849,345Z" style="fill:#0074ac;"/>
        <path d="M4.002,325.117C5.247,319.896 6.465,315.184 8.287,311.883C9.501,309.685 10.994,308.061 12.829,307.131C14.719,306.171 17,305.901 19.829,306.652C25.811,308.242 31.651,312.679 37.297,318.284C45.335,326.261 53.04,336.604 60.511,343.534C60.927,343.92 61.151,344.454 61.151,345L36.38,345C36.38,345 59.151,345 59.151,345C46.675,333.429 33.537,312.364 19.315,308.585C10.298,306.19 8.215,315.99 5.451,327.673L5.598,327.908C5.027,327.003 4.494,326.072 4.002,325.117ZM238.849,345C238.849,344.454 239.073,343.92 239.489,343.534C246.96,336.604 254.665,326.261 262.703,318.284C268.349,312.679 274.189,308.242 280.171,306.652C283,305.901 285.281,306.171 287.171,307.131C289.006,308.061 290.499,309.685 291.713,311.883C293.535,315.184 294.753,319.896 295.998,325.117C295.506,326.072 294.973,327.003 294.402,327.908L294.549,327.673C291.785,315.99 289.702,306.19 280.685,308.585C266.463,312.364 253.325,333.429 240.849,345L238.849,345ZM36.123,344.999L36.172,344.999L36.146,344.999L36.123,344.999ZM263.854,344.999L263.828,344.999L263.877,344.999L263.854,344.999ZM264.102,344.997L264.083,344.997L264.102,344.997ZM35.898,344.997L35.917,344.997L35.898,344.997ZM264.32,344.993L264.293,344.994L264.341,344.993L264.32,344.993ZM35.659,344.993L35.707,344.994L35.68,344.993L35.659,344.993ZM264.575,344.987L264.545,344.988L264.575,344.987ZM35.425,344.987L35.455,344.988L35.425,344.987ZM264.785,344.981L264.757,344.982L264.803,344.981L264.785,344.981ZM35.197,344.981L35.243,344.982L35.215,344.981L35.197,344.981ZM265.017,344.973L265.005,344.974L265.044,344.972L265.017,344.973ZM34.956,344.972L34.995,344.974L34.983,344.973L34.956,344.972ZM265.249,344.963L265.222,344.965L265.263,344.963L265.249,344.963ZM34.737,344.963L34.778,344.965L34.751,344.963L34.737,344.963ZM265.48,344.952L265.465,344.953L265.508,344.951L265.48,344.952ZM34.492,344.951L34.535,344.953L34.52,344.952L34.492,344.951ZM265.721,344.939L265.687,344.941L265.721,344.939ZM34.279,344.939L34.313,344.941L34.279,344.939ZM265.942,344.926L265.923,344.927L265.969,344.924L265.942,344.926ZM34.031,344.924L34.077,344.927L34.058,344.926L34.031,344.924ZM266.178,344.91L266.153,344.911L266.178,344.91ZM33.822,344.91L33.847,344.911L33.822,344.91ZM266.402,344.893L266.38,344.895L266.428,344.891L266.402,344.893ZM33.572,344.891L33.62,344.895L33.598,344.893L33.572,344.891ZM266.633,344.874L266.624,344.875L266.633,344.874ZM33.367,344.874L33.376,344.875L33.367,344.874ZM266.86,344.855L266.836,344.857L266.884,344.853L266.86,344.855ZM33.116,344.853L33.164,344.857L33.14,344.855L33.116,344.853ZM267.097,344.833L267.087,344.834L267.097,344.833ZM32.903,344.833L32.913,344.834L32.903,344.833ZM267.317,344.811L267.292,344.813L267.339,344.808L267.317,344.811ZM32.661,344.808L32.708,344.813L32.683,344.811L32.661,344.808ZM267.563,344.784L267.539,344.787L267.563,344.784ZM32.437,344.784L32.461,344.787L32.437,344.784ZM267.773,344.761L267.746,344.764L267.791,344.759L267.773,344.761ZM32.209,344.759L32.254,344.764L32.227,344.761L32.209,344.759ZM268.023,344.731L267.99,344.735L268.023,344.731ZM31.977,344.731L32.01,344.735L31.977,344.731ZM268.227,344.705L268.201,344.709L268.241,344.704L268.227,344.705ZM31.759,344.704L31.799,344.709L31.773,344.705L31.759,344.704ZM268.453,344.676L268.44,344.677L268.478,344.672L268.453,344.676ZM31.522,344.672L31.56,344.677L31.547,344.676L31.522,344.672ZM268.689,344.643L268.655,344.648L268.689,344.643ZM31.31,344.643L31.345,344.648L31.31,344.643ZM268.904,344.612L268.888,344.614L268.93,344.608L268.904,344.612ZM31.07,344.608L31.112,344.614L31.096,344.612L31.07,344.608ZM269.136,344.577L269.11,344.58L269.136,344.577ZM30.864,344.577L30.89,344.58L30.864,344.577ZM269.583,344.504L269.321,344.547C269.408,344.533 269.496,344.519 269.583,344.504ZM30.417,344.504C30.503,344.519 30.591,344.533 30.679,344.547L30.417,344.504ZM269.802,344.467L269.617,344.499L269.846,344.459L269.802,344.467ZM30.154,344.459L30.383,344.499L30.198,344.467L30.154,344.459ZM270.025,344.427L269.932,344.444L270.116,344.411L270.025,344.427ZM29.884,344.411L30.068,344.444L29.975,344.427L29.884,344.411ZM270.248,344.387L270.203,344.395L270.426,344.353L270.248,344.387ZM29.574,344.353L29.797,344.395L29.752,344.387L29.574,344.353ZM270.723,344.294L270.465,344.345C270.551,344.328 270.637,344.311 270.723,344.294ZM29.277,344.294C29.364,344.312 29.45,344.329 29.535,344.345L29.277,344.294ZM270.913,344.255L270.804,344.278L270.987,344.24L270.913,344.255ZM29.013,344.24L29.196,344.278L29.087,344.255L29.013,344.24ZM271.134,344.209L271.077,344.221L271.271,344.179L271.134,344.209ZM28.729,344.179L28.923,344.221L28.866,344.209L28.729,344.179ZM271.592,344.108L271.338,344.165C271.423,344.146 271.508,344.127 271.592,344.108ZM28.408,344.108C28.492,344.127 28.577,344.146 28.662,344.165L28.408,344.108ZM271.794,344.062L271.664,344.091L271.852,344.048L271.794,344.062ZM28.148,344.048L28.336,344.091L28.206,344.062L28.148,344.048ZM272.013,344.01L271.944,344.026L272.122,343.983L272.013,344.01ZM27.878,343.983L28.056,344.026L27.987,344.01L27.878,343.983ZM272.455,343.901L272.204,343.963C272.288,343.943 272.372,343.922 272.455,343.901ZM27.545,343.901C27.627,343.922 27.711,343.943 27.796,343.963L27.545,343.901ZM272.667,343.846L272.508,343.887L272.711,343.835L272.667,343.846ZM27.289,343.835L27.492,343.887L27.333,343.846L27.289,343.835ZM272.884,343.789L272.802,343.811L272.972,343.765L272.884,343.789ZM27.028,343.765L27.198,343.811L27.116,343.789L27.028,343.765ZM273.1,343.731L273.062,343.741L273.273,343.683L273.1,343.731ZM26.726,343.683L26.937,343.741L26.9,343.731L26.726,343.683ZM273.562,343.601L273.316,343.671C273.398,343.648 273.48,343.625 273.562,343.601ZM26.438,343.601C26.518,343.624 26.601,343.648 26.684,343.671L26.438,343.601ZM273.747,343.548L273.651,343.575L273.817,343.527L273.747,343.548ZM26.183,343.527L26.349,343.575L26.253,343.548L26.183,343.527ZM273.961,343.484L273.912,343.498L274.09,343.445L273.961,343.484ZM25.91,343.445L26.087,343.498L26.039,343.484L25.91,343.445ZM274.405,343.347L274.165,343.422C274.245,343.398 274.325,343.373 274.405,343.347ZM25.595,343.347C25.675,343.373 25.755,343.398 25.835,343.422L25.595,343.347ZM274.601,343.285L274.49,343.321L274.656,343.268L274.601,343.285ZM25.344,343.268L25.51,343.321L25.399,343.285L25.344,343.268ZM274.813,343.217L274.754,343.236L274.915,343.183L274.813,343.217ZM25.085,343.183L25.246,343.236L25.187,343.217L25.085,343.183ZM275.241,343.074L275.005,343.153C275.083,343.127 275.162,343.1 275.241,343.074ZM24.759,343.074C24.836,343.1 24.916,343.127 24.995,343.153L24.759,343.074ZM275.447,343.003L275.316,343.048L275.487,342.988L275.447,343.003ZM24.513,342.988L24.684,343.048L24.553,343.003L24.513,342.988ZM275.657,342.929L275.587,342.953L275.738,342.9L275.657,342.929ZM24.262,342.9L24.413,342.953L24.343,342.929L24.262,342.9ZM275.866,342.854L275.836,342.864L276.023,342.796L275.866,342.854ZM23.977,342.796L24.164,342.864L24.134,342.854L23.977,342.796ZM276.283,342.7L276.12,342.76L276.31,342.689L276.283,342.7ZM23.69,342.689L23.88,342.76L23.717,342.7L23.69,342.689ZM276.491,342.621L276.411,342.651L276.555,342.596L276.491,342.621ZM23.445,342.596L23.589,342.651L23.509,342.621L23.445,342.596ZM276.698,342.541L276.659,342.556L276.813,342.496L276.698,342.541ZM23.187,342.496L23.341,342.556L23.302,342.541L23.187,342.496ZM277.125,342.371L276.901,342.461C276.976,342.431 277.05,342.401 277.125,342.371ZM22.875,342.371C22.949,342.401 23.024,342.431 23.099,342.461L22.875,342.371ZM277.315,342.293L277.225,342.33L277.364,342.273L277.315,342.293ZM22.636,342.273L22.775,342.33L22.685,342.293L22.636,342.273ZM277.52,342.208L277.472,342.228L277.61,342.17L277.52,342.208ZM22.39,342.17L22.528,342.228L22.48,342.208L22.39,342.17ZM277.93,342.034L277.712,342.127C277.785,342.096 277.857,342.065 277.93,342.034ZM22.07,342.034C22.142,342.065 22.215,342.096 22.288,342.127L22.07,342.034ZM278.13,341.946L278.028,341.991L278.166,341.93L278.13,341.946ZM21.834,341.93L21.972,341.991L21.87,341.946L21.834,341.93ZM278.332,341.856L278.276,341.881L278.403,341.824L278.332,341.856ZM21.597,341.824L21.724,341.881L21.668,341.856L21.597,341.824ZM278.534,341.765L278.513,341.775L278.663,341.706L278.534,341.765ZM21.337,341.706L21.487,341.775L21.466,341.765L21.337,341.706ZM278.935,341.58L278.819,341.634L278.958,341.569L278.935,341.58ZM21.042,341.569L21.181,341.634L21.065,341.58L21.042,341.569ZM279.135,341.485L279.071,341.515L279.19,341.459L279.135,341.485ZM20.81,341.459L20.929,341.515L20.865,341.485L20.81,341.459ZM279.334,341.39L279.305,341.403L279.428,341.343L279.334,341.39ZM20.572,341.343L20.695,341.403L20.666,341.39L20.572,341.343ZM279.729,341.195L279.587,341.265L279.74,341.189L279.729,341.195ZM20.26,341.189L20.413,341.265L20.271,341.195L20.26,341.189ZM279.926,341.095L279.857,341.131L279.968,341.074L279.926,341.095ZM20.032,341.074L20.143,341.131L20.074,341.095L20.032,341.074ZM280.123,340.995L280.087,341.013L280.197,340.957L280.123,340.995ZM19.803,340.957L19.913,341.013L19.877,340.995L19.803,340.957ZM280.318,340.893L280.314,340.896L280.504,340.796L280.318,340.893ZM19.496,340.796L19.686,340.896L19.682,340.893L19.496,340.796ZM280.708,340.687L280.633,340.727L280.737,340.671L280.708,340.687ZM19.263,340.671L19.367,340.727L19.292,340.687L19.263,340.671ZM280.901,340.582L280.859,340.605L280.959,340.55L280.901,340.582ZM19.04,340.55L19.141,340.605L19.099,340.582L19.04,340.55ZM281.094,340.476L281.083,340.482L281.182,340.427L281.094,340.476ZM18.818,340.427L18.917,340.482L18.906,340.476L18.818,340.427ZM281.478,340.26L281.401,340.304L281.495,340.25L281.478,340.26ZM18.505,340.25L18.599,340.304L18.522,340.26L18.505,340.25ZM281.669,340.151L281.621,340.178L281.714,340.125L281.669,340.151ZM18.286,340.125L18.379,340.178L18.331,340.151L18.286,340.125ZM281.859,340.04L281.84,340.051L281.928,340L281.859,340.04ZM18.072,340L18.16,340.051L18.141,340.04L18.072,340ZM282.237,339.816L282.17,339.856L282.243,339.812L282.237,339.816ZM17.757,339.812L17.83,339.856L17.763,339.816L17.757,339.812ZM282.425,339.702L282.373,339.733L282.458,339.681L282.425,339.702ZM17.542,339.681L17.627,339.733L17.575,339.702L17.542,339.681ZM282.612,339.587L282.587,339.602L282.668,339.552L282.612,339.587ZM17.332,339.552L17.413,339.602L17.388,339.587L17.332,339.552ZM283.169,339.235L283.117,339.269L283.191,339.221L283.169,339.235ZM16.809,339.221L16.883,339.269L16.831,339.235L16.809,339.221ZM283.353,339.116L283.323,339.135L283.398,339.086L283.353,339.116ZM16.602,339.086L16.677,339.135L16.647,339.116L16.602,339.086ZM283.571,338.973L283.533,338.998L283.571,338.973ZM16.429,338.973L16.467,338.998L16.429,338.973ZM283.901,338.751L283.853,338.784L283.914,338.743L283.901,338.751ZM16.086,338.743L16.147,338.784L16.099,338.751L16.086,338.743ZM284.082,338.628L284.049,338.651L284.117,338.604L284.082,338.628ZM15.883,338.604L15.951,338.651L15.918,338.628L15.883,338.604ZM284.263,338.503L284.253,338.51L284.305,338.473L284.263,338.503ZM15.695,338.473L15.747,338.51L15.737,338.503L15.695,338.473ZM284.625,338.248L284.596,338.269L284.625,338.248ZM15.375,338.248L15.404,338.269L15.375,338.248ZM284.799,338.123L284.763,338.149L284.825,338.104L284.799,338.123ZM15.175,338.104L15.237,338.149L15.201,338.123L15.175,338.104ZM284.977,337.994L284.961,338.005L285.016,337.965L284.977,337.994ZM14.984,337.965L15.039,338.005L15.023,337.994L14.984,337.965ZM285.504,337.601L285.467,337.629L285.521,337.588L285.504,337.601ZM14.479,337.588L14.533,337.629L14.496,337.601L14.479,337.588ZM285.678,337.468L285.657,337.484L285.712,337.442L285.678,337.468ZM14.288,337.442L14.343,337.484L14.322,337.468L14.288,337.442ZM286.195,337.063L286.164,337.088L286.205,337.056L286.195,337.063ZM13.795,337.056L13.836,337.088L13.805,337.063L13.795,337.056ZM286.366,336.926L286.341,336.946L286.394,336.903L286.366,336.926ZM13.606,336.903L13.659,336.946L13.634,336.926L13.606,336.903ZM286.557,336.771L286.532,336.791L286.557,336.771ZM13.443,336.771L13.468,336.791L13.443,336.771ZM286.875,336.508L286.862,336.519L286.875,336.508ZM13.125,336.508L13.138,336.519L13.125,336.508ZM287.041,336.368L287.013,336.392L287.063,336.35L287.041,336.368ZM12.937,336.35L12.987,336.392L12.959,336.368L12.937,336.35ZM287.208,336.226L287.197,336.235L287.236,336.201L287.208,336.226ZM12.764,336.201L12.803,336.235L12.792,336.226L12.764,336.201ZM287.702,335.795L287.673,335.82L287.718,335.781L287.702,335.795ZM12.282,335.781L12.327,335.82L12.298,335.795L12.282,335.781ZM287.865,335.649L287.85,335.663L287.894,335.623L287.865,335.649ZM12.106,335.623L12.15,335.663L12.135,335.649L12.106,335.623ZM288.35,335.206L288.322,335.232L288.359,335.197L288.35,335.206ZM11.641,335.197L11.678,335.232L11.65,335.206L11.641,335.197ZM288.509,335.056L288.488,335.076L288.536,335.031L288.509,335.056ZM11.464,335.031L11.512,335.076L11.491,335.056L11.464,335.031ZM288.682,334.892L288.666,334.908L288.682,334.892ZM11.318,334.892L11.334,334.908L11.318,334.892ZM288.987,334.598L288.963,334.621L288.987,334.598ZM11.013,334.598L11.037,334.621L11.013,334.598ZM289.139,334.448L289.112,334.475L289.162,334.426L289.139,334.448ZM10.838,334.426L10.888,334.475L10.861,334.448L10.838,334.426ZM289.294,334.294L289.285,334.304L289.325,334.263L289.294,334.294ZM10.675,334.263L10.715,334.304L10.706,334.294L10.675,334.263ZM289.754,333.826L289.722,333.859L289.773,333.806L289.754,333.826ZM10.227,333.806L10.278,333.859L10.246,333.826L10.227,333.806ZM289.905,333.668L289.889,333.686L289.94,333.632L289.905,333.668ZM10.06,333.632L10.111,333.686L10.095,333.668L10.06,333.632ZM290.354,333.189L290.316,333.23L290.369,333.173L290.354,333.189ZM9.631,333.173L9.684,333.23L9.646,333.189L9.631,333.173ZM290.502,333.028L290.477,333.055L290.536,332.99L290.502,333.028ZM9.464,332.99L9.523,333.055L9.498,333.028L9.464,332.99ZM290.649,332.865L290.643,332.871L290.688,332.822L290.649,332.865ZM9.312,332.822L9.357,332.871L9.351,332.865L9.312,332.822ZM290.939,332.538L290.893,332.591L290.95,332.526L290.939,332.538ZM9.05,332.526L9.107,332.591L9.061,332.538L9.05,332.526ZM291.083,332.373L291.049,332.412L291.115,332.337L291.083,332.373ZM8.885,332.337L8.951,332.412L8.917,332.373L8.885,332.337ZM291.226,332.208L291.212,332.224L291.278,332.146L291.226,332.208ZM8.722,332.146L8.788,332.224L8.774,332.208L8.722,332.146ZM291.509,331.873L291.444,331.951L291.515,331.866L291.509,331.873ZM8.485,331.866L8.556,331.951L8.491,331.873L8.485,331.866ZM291.649,331.705L291.604,331.759L291.678,331.67L291.649,331.705ZM8.322,331.67L8.396,331.759L8.351,331.705L8.322,331.67ZM291.788,331.536L291.764,331.565L291.842,331.47L291.788,331.536ZM8.158,331.47L8.236,331.565L8.212,331.536L8.158,331.47ZM292.066,331.192L291.923,331.37C291.97,331.311 292.018,331.252 292.066,331.192ZM7.934,331.192C7.981,331.251 8.029,331.311 8.077,331.37L7.934,331.192ZM292.199,331.024L292.139,331.1L292.225,330.991L292.199,331.024ZM7.775,330.991L7.861,331.1L7.801,331.024L7.775,330.991ZM292.334,330.851L292.299,330.896L292.387,330.783L292.334,330.851ZM7.613,330.783L7.701,330.896L7.666,330.851L7.613,330.783ZM292.468,330.678L292.455,330.695L292.59,330.518L292.468,330.678ZM7.41,330.518L7.545,330.695L7.532,330.678L7.41,330.518ZM292.733,330.329L292.646,330.444L292.755,330.299L292.733,330.329ZM7.245,330.299L7.354,330.444L7.267,330.329L7.245,330.299ZM292.864,330.153L292.815,330.218L292.914,330.086L292.864,330.153ZM7.086,330.086L7.185,330.218L7.136,330.153L7.086,330.086ZM292.994,329.977L292.97,330.009L293.096,329.836L292.994,329.977ZM6.904,329.836L7.03,330.009L7.006,329.977L6.904,329.836ZM293.27,329.594L293.12,329.803C293.17,329.734 293.22,329.664 293.27,329.594ZM6.73,329.594C6.78,329.664 6.83,329.733 6.88,329.803L6.73,329.594ZM293.377,329.442L293.311,329.536L293.424,329.376L293.377,329.442ZM6.576,329.376L6.689,329.536L6.623,329.442L6.576,329.376ZM293.503,329.263L293.467,329.315L293.595,329.13L293.503,329.263ZM6.405,329.13L6.533,329.315L6.497,329.263L6.405,329.13ZM293.768,328.877L293.614,329.102C293.666,329.026 293.717,328.952 293.768,328.877ZM6.232,328.877C6.283,328.952 6.334,329.027 6.386,329.102L6.232,328.877ZM293.874,328.719L293.782,328.856L293.917,328.654L293.874,328.719ZM6.083,328.654L6.218,328.856L6.126,328.719L6.083,328.654ZM293.995,328.537L293.944,328.613L294.08,328.408L293.995,328.537ZM5.92,328.408L6.056,328.613L6.005,328.537L5.92,328.408ZM294.393,327.921L294.243,328.156L294.091,328.391C294.193,328.235 294.294,328.078 294.393,327.921ZM5.757,328.156L5.607,327.921C5.706,328.078 5.807,328.235 5.909,328.391L5.757,328.156Z"/>
        <path d="M62.151,345L61.151,345C61.151,344.673 61.071,344.349 60.916,344.06L61.799,343.589C62.03,344.024 62.151,344.509 62.151,345L62.151,345ZM238.849,345C238.849,345 238.849,345 238.849,345ZM239.094,344.041C238.933,344.335 238.849,344.666 238.849,345L237.849,345C237.849,344.498 237.975,344.003 238.216,343.562L239.094,344.041ZM58.63,344.771L58.63,344.511C58.741,344.617 58.852,344.721 58.964,344.825L58.853,344.807L58.63,344.771ZM241.679,344.727L241.425,344.459C241.665,344.231 241.905,344 242.146,343.766L242.844,344.482L242.782,344.543L242.623,344.57C242.445,344.599 242.268,344.629 242.09,344.659L241.679,344.727ZM58.13,344.688C57.695,344.616 56.66,343.995 56.66,343.995L57.363,343.284C57.602,343.52 58.13,344.034 58.13,344.034L58.13,344.688ZM243.563,342.354L244.276,343.055C244.039,343.297 243.801,343.536 243.564,343.772L242.858,343.064C243.093,342.829 243.329,342.592 243.563,342.354ZM59.543,342.618L60.236,341.897C60.475,342.127 60.713,342.354 60.951,342.577L60.268,343.306L59.543,342.618ZM240.19,342.874L239.747,343.292L239.064,342.563C239.302,342.34 239.54,342.113 239.779,341.883L240.472,342.603L240.19,342.874ZM56.215,342.127L56.657,342.576L55.945,343.28C55.71,343.042 55.475,342.801 55.239,342.558L55.957,341.862L56.215,342.127ZM244.951,340.914L245.677,341.602C245.444,341.847 245.212,342.091 244.98,342.331L244.26,341.637L244.951,340.914ZM58.119,341.213L58.829,340.509C59.063,340.745 59.296,340.978 59.529,341.208L58.827,341.92L58.119,341.213ZM241.596,341.5L241.188,341.905L240.486,341.193C240.719,340.963 240.952,340.73 241.185,340.495L241.896,341.198L241.596,341.5ZM55.033,340.897L54.578,340.414L53.848,341.098C54.079,341.344 54.31,341.588 54.54,341.83L55.264,341.141L55.033,340.897ZM246.315,339.452L245.636,340.186L246.367,340.868C246.595,340.624 246.823,340.378 247.051,340.13L246.315,339.452ZM56.725,339.779L57.448,339.089C57.678,339.329 57.907,339.567 58.136,339.803L57.419,340.499C57.188,340.262 56.957,340.022 56.725,339.779ZM243.289,339.764C243.058,340.006 242.827,340.247 242.596,340.484L241.879,339.788C242.107,339.552 242.336,339.314 242.566,339.074L243.289,339.764ZM53.219,338.946C53.445,339.193 53.671,339.439 53.896,339.682L53.162,340.361C52.935,340.116 52.708,339.869 52.481,339.62L53.219,338.946ZM247.662,337.974L246.991,338.715L247.731,339.388C247.955,339.142 248.18,338.893 248.405,338.643L247.662,337.974ZM55.356,338.321L56.089,337.642C56.315,337.886 56.541,338.128 56.766,338.368L56.038,339.053C55.811,338.811 55.584,338.568 55.356,338.321ZM244.659,338.306C244.431,338.552 244.204,338.796 243.977,339.038L243.248,338.353C243.473,338.113 243.699,337.871 243.925,337.627L244.659,338.306ZM52.061,337.666L51.878,337.462L51.133,338.13C51.357,338.38 51.581,338.629 51.805,338.876L52.547,338.206L52.061,337.666ZM248.995,336.482L248.33,337.229L249.076,337.896C249.298,337.647 249.521,337.397 249.743,337.146L248.995,336.482ZM54.006,336.846L54.747,336.175C54.97,336.422 55.193,336.667 55.416,336.911L54.678,337.586C54.455,337.341 54.231,337.095 54.006,336.846ZM246.008,336.83C245.784,337.078 245.56,337.325 245.336,337.57L244.598,336.895C244.821,336.652 245.044,336.407 245.267,336.16L246.008,336.83ZM50.864,336.324L50.55,335.967L49.8,336.629C50.022,336.881 50.243,337.131 50.465,337.38L51.213,336.716L50.864,336.324ZM250.317,334.982L249.657,335.733L250.408,336.394C250.628,336.144 250.848,335.893 251.069,335.641L250.317,334.982ZM52.67,335.357L53.336,336.103L54.081,335.435C53.86,335.189 53.639,334.941 53.418,334.692L52.67,335.357ZM247.343,335.341L246.596,334.677C246.375,334.926 246.154,335.174 245.933,335.42L246.678,336.087L247.343,335.341ZM49.663,334.96L49.23,334.464L48.477,335.123C48.697,335.375 48.917,335.626 49.137,335.876L49.889,335.217L49.663,334.96ZM251.633,333.475L250.976,334.229L251.729,334.887C251.948,334.636 252.167,334.384 252.387,334.132L251.633,333.475ZM51.347,333.858L52.007,334.608L52.757,333.946C52.537,333.698 52.318,333.448 52.098,333.198L51.347,333.858ZM248.667,333.842L247.916,333.182C247.696,333.433 247.476,333.682 247.257,333.931L248.007,334.593L248.667,333.842ZM48.458,333.58L47.916,332.956L47.161,333.613C47.381,333.865 47.6,334.117 47.818,334.368L48.573,333.711L48.458,333.58ZM252.945,331.966L252.289,332.721L253.044,333.377C253.262,333.125 253.481,332.874 253.7,332.622L252.945,331.966ZM50.03,332.352L50.688,333.105L51.44,332.447C51.222,332.197 51.003,331.947 50.784,331.695L50.03,332.352ZM249.984,332.336L249.23,331.679C249.011,331.931 248.792,332.182 248.573,332.432L249.326,333.09L249.984,332.336ZM47.248,332.188L46.604,331.447L45.849,332.102C46.068,332.354 46.287,332.606 46.505,332.857L47.26,332.202L47.248,332.188ZM254.257,330.456L253.6,331.211L254.355,331.867C254.574,331.615 254.792,331.364 255.011,331.112L254.257,330.456ZM48.718,330.843L49.374,331.598L50.128,330.942C49.91,330.691 49.692,330.439 49.473,330.187L48.718,330.843ZM251.296,330.827L250.541,330.171C250.322,330.423 250.104,330.675 249.885,330.926L250.64,331.582L251.296,330.827ZM45.292,329.938L44.538,330.594C44.757,330.846 44.976,331.097 45.194,331.348L45.948,330.692L45.292,329.938ZM255.571,328.949L254.913,329.702L255.667,330.359C255.886,330.109 256.104,329.858 256.324,329.607L255.571,328.949ZM5.477,327.564L5.875,325.882L6.848,326.113C6.771,326.435 6.695,326.759 6.618,327.085C6.618,327.085 6.191,328.444 5.477,327.564ZM47.407,329.333L48.062,330.088L48.817,329.432C48.599,329.18 48.38,328.928 48.161,328.677L47.407,329.333ZM252.607,329.317L251.852,328.661C251.633,328.913 251.415,329.165 251.196,329.416L251.951,330.072L252.607,329.317ZM44.203,328.69L43.976,328.432L43.224,329.091C43.444,329.341 43.663,329.592 43.882,329.842L44.634,329.184L44.203,328.69ZM256.892,327.447L256.23,328.197L256.981,328.857C257.201,328.607 257.421,328.358 257.641,328.109L256.892,327.447ZM46.093,327.824L46.75,328.578L47.504,327.921C47.285,327.67 47.066,327.418 46.846,327.166L46.093,327.824ZM253.921,327.809L253.167,327.151C252.948,327.402 252.728,327.654 252.509,327.906L253.263,328.562L253.921,327.809ZM293.624,328.529L293.562,327.364L294.427,327.16L294.523,327.564C294.259,327.889 293.958,328.211 293.624,328.529ZM42.976,327.297L42.652,326.932L41.905,327.596C42.125,327.844 42.345,328.093 42.565,328.342L43.315,327.681L42.976,327.297ZM258.221,325.953L257.555,326.699L258.302,327.363C258.523,327.115 258.744,326.867 258.966,326.62L258.221,325.953ZM44.774,326.321L45.435,327.072L46.186,326.412C45.966,326.161 45.745,325.91 45.525,325.659L44.774,326.321ZM255.239,326.305L254.489,325.644C254.268,325.894 254.048,326.145 253.827,326.397L254.579,327.056L255.239,326.305ZM41.744,325.914L41.319,325.442L40.577,326.111C40.799,326.357 41.02,326.604 41.242,326.852L41.987,326.186L41.744,325.914ZM4.849,326.668L4.849,326.668L4.816,326.611L4.783,326.554L4.849,326.668ZM4.748,326.492L4.716,326.436L4.716,326.436L4.748,326.492ZM294.037,325.507L293.966,325.213L292.994,325.445C293.071,325.767 293.147,326.091 293.224,326.416L294.197,326.186L294.037,325.507ZM4.156,325.412L4.156,325.412C4.312,325.708 4.471,326 4.634,326.291L4.634,326.291C4.471,326 4.311,325.707 4.156,325.412ZM259.563,324.47L258.89,325.21L259.632,325.88C259.855,325.634 260.078,325.388 260.301,325.144L259.563,324.47ZM43.447,324.825L44.112,325.572L44.86,324.908C44.638,324.657 44.416,324.407 44.193,324.158L43.447,324.825ZM256.567,324.809L255.821,324.143C255.598,324.392 255.376,324.642 255.154,324.892L255.902,325.556L256.567,324.809ZM40.508,324.547L39.972,323.963L39.237,324.64C39.461,324.883 39.685,325.128 39.908,325.373L40.648,324.7L40.508,324.547ZM6.34,323.937L7.312,324.173C7.234,324.493 7.156,324.817 7.078,325.142L6.106,324.909L6.34,323.937ZM4.235,324.144L4.002,325.117C3.804,324.732 3.612,324.343 3.427,323.949L4.235,324.144ZM296.561,323.974C296.38,324.358 296.192,324.74 295.998,325.117L295.77,324.165L296.561,323.974ZM293.733,324.241L293.497,323.269L292.526,323.508C292.605,323.828 292.683,324.15 292.762,324.475L293.733,324.241ZM260.92,323.001L260.239,323.733L260.974,324.411C261.199,324.168 261.424,323.925 261.65,323.683L260.92,323.001ZM42.108,323.339L42.848,322.666C43.073,322.913 43.298,323.162 43.522,323.411L42.779,324.08C42.556,323.832 42.332,323.585 42.108,323.339ZM257.906,323.323C257.682,323.569 257.458,323.816 257.235,324.065L256.492,323.395C256.716,323.146 256.941,322.898 257.166,322.65L257.906,323.323ZM38.609,322.499C38.837,322.741 39.065,322.984 39.293,323.229L38.562,323.91C38.335,323.667 38.109,323.426 37.882,323.186L38.609,322.499ZM6.822,321.996L7.791,322.244C7.71,322.562 7.629,322.883 7.548,323.207L6.578,322.966C6.659,322.64 6.74,322.317 6.822,321.996ZM295.292,322.223L296.262,321.979C296.343,322.301 296.424,322.627 296.504,322.954L295.533,323.193C295.453,322.867 295.373,322.543 295.292,322.223ZM4.713,322.202L3.743,321.958C3.662,322.281 3.581,322.606 3.501,322.934L4.472,323.173L4.713,322.202ZM262.296,321.549L263.016,322.243C262.788,322.48 262.559,322.72 262.331,322.96L261.605,322.272C261.836,322.029 262.066,321.788 262.296,321.549ZM40.755,321.866L41.487,321.185C41.715,321.43 41.943,321.676 42.17,321.924L41.434,322.601C41.208,322.355 40.981,322.11 40.755,321.866ZM259.259,321.851C259.033,322.095 258.807,322.339 258.58,322.585L257.844,321.908C258.072,321.661 258.299,321.415 258.527,321.17L259.259,321.851ZM293.006,321.331C293.089,321.65 293.172,321.973 293.255,322.299L292.286,322.544C292.204,322.221 292.121,321.901 292.038,321.584L293.006,321.331ZM37.394,321.228L37.92,321.774L37.198,322.466C36.969,322.227 36.739,321.989 36.509,321.752L37.226,321.055L37.394,321.228ZM263.695,320.12L264.403,320.825C264.171,321.059 263.939,321.294 263.707,321.531L262.992,320.831L263.695,320.12ZM7.336,320.063L8.299,320.331C8.212,320.645 8.126,320.963 8.04,321.285L7.074,321.028C7.16,320.703 7.248,320.38 7.336,320.063ZM294.789,320.287L295.755,320.027C295.842,320.349 295.927,320.674 296.013,321.003L295.045,321.254L294.789,320.287ZM5.181,320.399L4.961,321.234L3.993,320.982C4.078,320.654 4.164,320.328 4.251,320.007L5.216,320.267L5.181,320.399ZM39.383,320.411L40.106,319.72C40.337,319.962 40.568,320.205 40.799,320.45L40.071,321.136C39.842,320.893 39.613,320.651 39.383,320.411ZM260.632,320.396C260.402,320.636 260.173,320.878 259.943,321.121L259.215,320.435C259.446,320.19 259.677,319.947 259.909,319.705L260.632,320.396ZM35.818,319.634C36.054,319.868 36.29,320.104 36.525,320.341L35.815,321.045C35.582,320.809 35.348,320.576 35.115,320.344L35.818,319.634ZM292.484,319.425L292.747,320.364L291.783,320.628C291.695,320.307 291.607,319.99 291.517,319.678L292.478,319.402L292.484,319.425ZM265.12,318.717L265.814,319.437C265.577,319.665 265.341,319.895 265.105,320.127L264.404,319.415L265.12,318.717ZM37.989,318.977L38.7,318.274C38.936,318.512 39.171,318.752 39.406,318.994L38.689,319.691C38.456,319.452 38.223,319.213 37.989,318.977ZM262.026,318.962C261.792,319.199 261.559,319.437 261.326,319.676L260.609,318.979C260.844,318.737 261.079,318.497 261.315,318.259L262.026,318.962ZM34.564,318.414L35.104,318.934L34.408,319.652C34.171,319.421 33.933,319.193 33.695,318.967L34.383,318.242L34.564,318.414ZM7.898,318.144L8.853,318.441C8.757,318.75 8.662,319.064 8.569,319.382L7.61,319.102L7.791,318.492L7.898,318.144ZM294.247,318.362L295.206,318.078C295.301,318.398 295.394,318.723 295.487,319.052L294.524,319.323L294.247,318.362ZM5.674,318.632L5.482,319.303L4.519,319.032C4.612,318.703 4.705,318.378 4.8,318.058L5.759,318.342L5.674,318.632ZM266.577,317.346L267.253,318.083C267.011,318.304 266.77,318.529 266.53,318.755L265.844,318.027L266.577,317.346ZM291.925,317.586L292.194,318.443L291.237,318.735C291.141,318.418 291.043,318.106 290.942,317.8L291.893,317.489L291.925,317.586ZM32.914,316.884C33.161,317.106 33.407,317.331 33.653,317.558L32.974,318.292C32.731,318.067 32.488,317.846 32.245,317.627L32.914,316.884ZM36.569,317.569L37.282,318.269L37.987,317.559C37.747,317.321 37.506,317.085 37.266,316.851L36.569,317.569ZM263.446,317.554L262.749,316.837C262.509,317.07 262.268,317.306 262.028,317.544L262.732,318.255L263.446,317.554ZM8.534,316.248L9.474,316.59C9.365,316.89 9.258,317.197 9.153,317.51L8.205,317.193C8.313,316.871 8.423,316.556 8.534,316.248ZM268.069,316.015L268.724,316.771C268.477,316.984 268.23,317.201 267.984,317.421L267.318,316.675C267.568,316.452 267.818,316.232 268.069,316.015ZM293.646,316.454L294.594,316.136C294.701,316.453 294.806,316.777 294.909,317.106L293.955,317.405C293.854,317.083 293.751,316.766 293.646,316.454ZM6.361,316.435C6.256,316.746 6.153,317.063 6.051,317.385L5.097,317.085C5.2,316.757 5.305,316.433 5.412,316.115L6.361,316.435ZM31.706,315.82L32.167,316.22L31.508,316.972C31.26,316.755 31.011,316.541 30.763,316.33L31.409,315.567L31.706,315.82ZM35.118,316.192L35.798,315.458C36.045,315.686 36.291,315.917 36.536,316.151L35.848,316.876C35.605,316.646 35.362,316.418 35.118,316.192ZM291.224,315.604C291.343,315.91 291.458,316.223 291.571,316.542L290.628,316.876C290.519,316.566 290.407,316.262 290.292,315.965L291.224,315.604ZM264.897,316.177C264.653,316.403 264.41,316.631 264.168,316.862L263.479,316.136C263.725,315.903 263.971,315.672 264.217,315.444L264.897,316.177ZM269.602,314.73L270.231,315.508C269.978,315.713 269.725,315.921 269.472,316.132L268.83,315.366C269.087,315.151 269.344,314.939 269.602,314.73ZM30.106,314.496L30.64,314.928L30.007,315.702C29.753,315.493 29.497,315.288 29.242,315.087L29.86,314.302L30.106,314.496ZM9.278,314.392L10.191,314.797C10.064,315.085 9.94,315.381 9.819,315.684L8.89,315.314C9.016,314.998 9.145,314.69 9.278,314.392ZM33.634,314.852L34.293,314.1C34.546,314.322 34.799,314.547 35.051,314.774L34.381,315.517C34.132,315.292 33.883,315.071 33.634,314.852ZM292.962,314.575L293.892,314.207C294.016,314.52 294.138,314.841 294.257,315.169L293.316,315.51C293.201,315.192 293.083,314.88 292.962,314.575ZM266.167,315.027L265.635,315.503L264.965,314.76C265.217,314.533 265.47,314.308 265.723,314.086L266.382,314.838L266.167,315.027ZM7.046,314.556C6.925,314.861 6.806,315.172 6.691,315.491L5.751,315.149C5.87,314.821 5.991,314.5 6.116,314.187L7.046,314.556ZM290.434,313.768C290.576,314.062 290.713,314.366 290.847,314.678L289.928,315.072C289.8,314.773 289.669,314.483 289.533,314.201L290.434,313.768ZM271.181,313.504L271.778,314.306C271.518,314.499 271.259,314.697 270.999,314.899L270.386,314.109C270.651,313.903 270.916,313.701 271.181,313.504ZM28.497,313.266L29.069,313.691L28.466,314.489C28.204,314.291 27.942,314.098 27.679,313.908L28.264,313.097L28.497,313.266ZM32.11,313.556L32.746,312.784C33.006,312.998 33.266,313.215 33.525,313.436L32.877,314.198C32.622,313.981 32.367,313.767 32.11,313.556ZM267.906,313.543C267.65,313.753 267.394,313.967 267.139,314.184L266.491,313.422C266.75,313.202 267.01,312.984 267.27,312.77L267.906,313.543ZM10.176,312.606L11.043,313.104C10.89,313.371 10.741,313.648 10.598,313.935L9.704,313.487C9.856,313.182 10.014,312.888 10.176,312.606ZM272.813,312.347L273.371,313.176C273.103,313.357 272.836,313.541 272.569,313.731L271.99,312.916C272.264,312.722 272.538,312.532 272.813,312.347ZM292.159,312.744L293.058,312.305C293.207,312.611 293.353,312.927 293.495,313.251L292.578,313.652C292.442,313.34 292.302,313.038 292.159,312.744ZM7.85,312.725C7.706,313.019 7.566,313.322 7.431,313.633L6.514,313.231C6.656,312.907 6.802,312.591 6.952,312.285L7.85,312.725ZM289.468,312.018C289.643,312.292 289.813,312.579 289.977,312.878L289.101,313.36C288.948,313.081 288.789,312.813 288.626,312.557L289.468,312.018ZM26.879,312.141L27.446,312.522L26.881,313.347C26.611,313.163 26.341,312.983 26.07,312.808L26.613,311.968L26.879,312.141ZM30.544,312.312L31.152,311.517C31.42,311.722 31.688,311.931 31.955,312.144L31.333,312.927C31.071,312.718 30.808,312.513 30.544,312.312ZM269.472,312.299C269.209,312.501 268.946,312.705 268.683,312.914L268.061,312.131C268.329,311.918 268.597,311.709 268.865,311.505L269.472,312.299ZM274.501,311.276L275.012,312.135C274.736,312.299 274.461,312.469 274.185,312.644L273.65,311.8C273.933,311.62 274.217,311.445 274.501,311.276ZM11.297,310.953L12.074,311.582C11.887,311.813 11.707,312.058 11.533,312.316L10.704,311.757C10.894,311.474 11.092,311.205 11.297,310.953ZM24.904,310.931C25.192,311.094 25.479,311.262 25.766,311.437L25.247,312.291C24.969,312.122 24.691,311.959 24.412,311.801L24.904,310.931ZM291.188,310.997L292.032,310.461C292.218,310.753 292.398,311.057 292.573,311.372L291.698,311.857C291.533,311.56 291.363,311.273 291.188,310.997ZM8.823,310.979C8.648,311.255 8.477,311.541 8.312,311.839L7.438,311.353C7.613,311.038 7.794,310.734 7.98,310.442L8.823,310.979ZM288.251,310.434C288.474,310.672 288.689,310.927 288.896,311.198L288.101,311.804C287.915,311.561 287.723,311.332 287.522,311.118L288.251,310.434ZM28.931,311.131L29.504,310.311C29.781,310.505 30.058,310.703 30.335,310.906L29.744,311.713C29.473,311.514 29.202,311.32 28.931,311.131ZM271.086,311.119C270.815,311.308 270.544,311.502 270.273,311.701L269.682,310.893C269.959,310.691 270.236,310.493 270.513,310.299L271.086,311.119ZM276.253,310.311L276.705,311.202C276.42,311.346 276.136,311.497 275.852,311.654L275.369,310.779C275.663,310.616 275.957,310.46 276.253,310.311ZM23.13,310.007C23.429,310.149 23.727,310.298 24.025,310.454L23.563,311.34C23.276,311.19 22.989,311.047 22.701,310.91L23.13,310.007ZM12.719,309.553L13.325,310.349C13.098,310.522 12.88,310.713 12.67,310.92L11.967,310.21C12.208,309.971 12.458,309.752 12.719,309.553ZM278.069,309.474L278.45,310.399C278.156,310.52 277.863,310.648 277.571,310.783L277.153,309.875C277.458,309.734 277.763,309.601 278.069,309.474ZM27.265,310.024L27.797,309.177C28.085,309.358 28.372,309.544 28.658,309.734L28.105,310.567C27.825,310.381 27.545,310.2 27.265,310.024ZM272.753,310.013C272.472,310.189 272.192,310.37 271.913,310.556L271.359,309.722C271.646,309.532 271.933,309.346 272.221,309.166L272.753,310.013ZM286.714,309.165C286.995,309.337 287.266,309.532 287.525,309.748L286.886,310.516C286.664,310.332 286.433,310.165 286.192,310.017L286.714,309.165ZM21.292,309.222C21.601,309.339 21.911,309.463 22.219,309.596L21.826,310.515C21.531,310.388 21.235,310.269 20.939,310.157L21.292,309.222ZM290,309.391L290.755,308.735C290.987,309.002 291.211,309.283 291.429,309.578L290.624,310.171C290.422,309.898 290.214,309.637 290,309.391ZM10.014,309.375C9.799,309.621 9.591,309.882 9.389,310.155L8.584,309.56C8.803,309.265 9.028,308.984 9.26,308.718L10.014,309.375ZM279.95,308.797L280.244,309.752C279.942,309.845 279.641,309.946 279.341,310.054L279.001,309.114C279.317,309 279.633,308.894 279.95,308.797ZM14.468,308.599L14.803,309.541C14.537,309.636 14.282,309.751 14.037,309.885L13.557,309.008C13.848,308.848 14.151,308.712 14.468,308.599ZM19.39,308.606C19.711,308.692 20.031,308.787 20.348,308.891L20.039,309.842C19.737,309.743 19.433,309.653 19.129,309.571L19.39,308.606ZM284.873,308.405C285.203,308.483 285.519,308.586 285.824,308.711L285.442,309.635C285.186,309.529 284.92,309.443 284.643,309.378L284.873,308.405ZM25.543,309.008L26.026,308.132C26.324,308.296 26.622,308.466 26.92,308.642L26.411,309.504C26.122,309.333 25.833,309.167 25.543,309.008ZM281.893,308.33L282.044,309.319C281.755,309.363 281.458,309.423 281.151,309.498L280.912,308.527C281.249,308.445 281.575,308.379 281.893,308.33ZM274.475,308.998C274.186,309.157 273.896,309.322 273.607,309.493L273.098,308.631C273.396,308.456 273.694,308.286 273.993,308.121L274.475,308.998ZM17.425,308.25C17.745,308.276 18.075,308.32 18.415,308.383L18.234,309.366C17.928,309.309 17.632,309.27 17.344,309.247L17.425,308.25ZM16.426,308.229L16.467,309.228C16.173,309.24 15.889,309.272 15.616,309.323L15.433,308.34C15.751,308.281 16.082,308.243 16.426,308.229ZM282.887,308.23C283.232,308.215 283.565,308.221 283.886,308.249L283.802,309.245C283.522,309.221 283.232,309.216 282.932,309.229L282.887,308.23ZM150.258,307.722L149.261,307.72L149.256,308.72L150.259,308.722L150.258,307.722ZM152.252,307.708C151.92,307.712 151.588,307.715 151.255,307.718L151.262,308.718C151.597,308.715 151.931,308.712 152.265,308.708L152.252,307.708ZM148.263,307.713C147.931,307.71 147.598,307.706 147.266,307.701L147.251,308.701C147.585,308.706 147.919,308.71 148.254,308.713L148.263,307.713ZM154.246,307.671C153.914,307.679 153.582,307.686 153.249,307.692L153.268,308.692C153.602,308.686 153.937,308.679 154.27,308.67L154.246,307.671ZM146.269,307.682C145.937,307.675 145.604,307.667 145.273,307.658L145.246,308.658C145.579,308.667 145.913,308.675 146.248,308.682L146.269,307.682ZM288.555,308.012L289.169,307.222C289.456,307.445 289.734,307.685 290.003,307.944L289.311,308.666C289.067,308.432 288.815,308.214 288.555,308.012ZM11.461,307.999C11.201,308.2 10.949,308.418 10.704,308.652L10.013,307.928C10.283,307.67 10.562,307.43 10.849,307.208L11.461,307.999ZM156.239,307.611C155.908,307.623 155.576,307.634 155.243,307.644L155.273,308.643C155.607,308.633 155.942,308.622 156.275,308.61L156.239,307.611ZM144.276,307.629C143.943,307.618 143.611,307.606 143.279,307.593L143.241,308.592C143.574,308.605 143.908,308.617 144.243,308.628L144.276,307.629ZM158.232,307.528C157.9,307.544 157.568,307.559 157.236,307.573L157.277,308.572C157.612,308.558 157.946,308.543 158.279,308.527L158.232,307.528ZM142.283,307.552C141.95,307.537 141.618,307.521 141.287,307.505L141.237,308.504C141.57,308.52 141.904,308.536 142.239,308.551L142.283,307.552ZM23.761,308.1L24.184,307.194C24.495,307.338 24.805,307.49 25.114,307.648L24.66,308.539C24.361,308.386 24.061,308.24 23.761,308.1ZM276.258,308.091C275.958,308.231 275.658,308.377 275.359,308.529L274.905,307.638C275.215,307.48 275.525,307.329 275.835,307.184L276.258,308.091ZM160.223,307.422C159.892,307.442 159.56,307.46 159.228,307.478L159.281,308.477C159.615,308.459 159.949,308.44 160.282,308.42L160.223,307.422ZM140.291,307.452C139.959,307.433 139.627,307.414 139.296,307.393L139.234,308.391C139.567,308.412 139.901,308.431 140.235,308.45L140.291,307.452ZM162.213,307.292C161.882,307.316 161.55,307.339 161.218,307.36L161.283,308.358C161.618,308.336 161.951,308.314 162.284,308.29L162.213,307.292ZM138.301,307.328C137.969,307.306 137.637,307.282 137.307,307.258L137.233,308.255C137.565,308.279 137.899,308.303 138.233,308.326L138.301,307.328ZM164.201,307.139C163.87,307.166 163.539,307.193 163.207,307.219L163.284,308.216C163.618,308.19 163.952,308.163 164.284,308.135L164.201,307.139ZM136.313,307.181C135.981,307.154 135.65,307.127 135.319,307.098L135.233,308.094C135.565,308.123 135.899,308.151 136.233,308.178L136.313,307.181ZM166.187,306.961C165.857,306.992 165.526,307.023 165.194,307.053L165.283,308.049C165.617,308.019 165.95,307.988 166.282,307.956L166.187,306.961ZM134.326,307.009C133.995,306.978 133.664,306.947 133.334,306.914L133.236,307.909C133.567,307.942 133.9,307.974 134.234,308.005L134.326,307.009ZM168.17,306.758C167.841,306.794 167.51,306.829 167.179,306.863L167.28,307.857C167.614,307.823 167.946,307.788 168.278,307.752L168.17,306.758ZM132.342,306.813C132.011,306.778 131.681,306.742 131.351,306.705L131.24,307.699C131.572,307.736 131.904,307.772 132.238,307.807L132.342,306.813ZM21.919,307.324L22.27,306.387C22.593,306.508 22.915,306.636 23.236,306.772L22.848,307.694C22.538,307.563 22.229,307.44 21.919,307.324ZM278.101,307.316C277.79,307.432 277.481,307.556 277.172,307.686L276.783,306.764C277.105,306.628 277.428,306.5 277.75,306.379L278.101,307.316ZM170.151,306.53C169.822,306.57 169.492,306.609 169.161,306.647L169.275,307.641C169.608,307.603 169.94,307.563 170.271,307.523L170.151,306.53ZM130.361,306.592C130.03,306.553 129.7,306.513 129.372,306.472L129.248,307.464C129.579,307.505 129.911,307.545 130.244,307.585L130.361,306.592ZM286.85,306.976L287.264,306.066C287.385,306.121 287.505,306.179 287.624,306.239C287.838,306.347 288.047,306.464 288.253,306.589L287.733,307.444C287.549,307.332 287.362,307.228 287.171,307.131C287.065,307.077 286.958,307.025 286.85,306.976ZM13.169,306.968C13.054,307.019 12.941,307.074 12.829,307.131C12.644,307.224 12.463,307.325 12.285,307.433L11.767,306.577C11.966,306.457 12.169,306.344 12.376,306.239C12.502,306.175 12.629,306.114 12.757,306.056L13.169,306.968ZM172.128,306.277C171.8,306.321 171.47,306.365 171.14,306.407L171.267,307.399C171.599,307.356 171.931,307.312 172.261,307.268L172.128,306.277ZM128.383,306.345C128.053,306.301 127.723,306.257 127.395,306.212L127.258,307.202C127.589,307.248 127.92,307.293 128.253,307.336L128.383,306.345ZM174.101,305.997C173.774,306.046 173.445,306.094 173.115,306.14L173.255,307.13C173.588,307.083 173.919,307.035 174.248,306.986L174.101,305.997ZM149.557,307.067L150.56,307.067L150.557,306.067L149.56,306.067L149.557,307.067ZM147.552,307.051C147.885,307.055 148.22,307.059 148.555,307.062L148.563,306.062C148.23,306.059 147.898,306.056 147.566,306.051L147.552,307.051ZM126.408,306.072C126.079,306.024 125.75,305.975 125.423,305.926L125.272,306.914C125.602,306.964 125.933,307.013 126.265,307.062L126.408,306.072ZM151.563,307.061C151.898,307.058 152.232,307.054 152.566,307.049L152.551,306.049C152.22,306.054 151.887,306.058 151.554,306.061L151.563,307.061ZM145.546,307.011C145.88,307.02 146.214,307.027 146.549,307.034L146.569,306.034C146.236,306.028 145.904,306.02 145.572,306.012L145.546,307.011ZM153.569,307.032C153.903,307.025 154.238,307.017 154.571,307.008L154.545,306.009C154.213,306.017 153.881,306.025 153.548,306.032L153.569,307.032ZM20.018,306.704L20.284,305.74C20.618,305.832 20.952,305.933 21.286,306.041L20.975,306.992C20.657,306.888 20.338,306.792 20.018,306.704ZM280.002,306.699C279.682,306.786 279.363,306.882 279.045,306.986L278.735,306.035C279.069,305.926 279.403,305.826 279.737,305.734L280.002,306.699ZM143.542,306.948C143.875,306.961 144.209,306.972 144.544,306.983L144.575,305.983C144.242,305.973 143.91,305.961 143.579,305.949L143.542,306.948ZM155.574,306.979C155.909,306.968 156.243,306.957 156.576,306.944L156.538,305.945C156.207,305.957 155.875,305.969 155.542,305.98L155.574,306.979ZM141.538,306.862C141.871,306.878 142.205,306.894 142.539,306.908L142.582,305.909C142.25,305.895 141.918,305.88 141.587,305.863L141.538,306.862ZM157.578,306.903C157.913,306.889 158.247,306.873 158.58,306.856L158.53,305.858C158.199,305.874 157.867,305.89 157.534,305.904L157.578,306.903ZM176.071,305.69C175.744,305.744 175.416,305.796 175.087,305.847L175.24,306.835C175.572,306.784 175.902,306.731 176.231,306.677L176.071,305.69ZM139.535,306.752C139.868,306.772 140.201,306.792 140.536,306.81L140.591,305.812C140.258,305.793 139.926,305.774 139.595,305.754L139.535,306.752ZM159.582,306.804C159.916,306.785 160.25,306.765 160.583,306.745L160.521,305.747C160.19,305.767 159.859,305.787 159.526,305.805L159.582,306.804ZM124.438,305.772C124.109,305.72 123.781,305.667 123.454,305.612L123.29,306.599C123.619,306.653 123.949,306.707 124.281,306.76L124.438,305.772ZM137.533,306.618C137.866,306.642 138.199,306.666 138.534,306.688L138.601,305.69C138.268,305.668 137.937,305.645 137.606,305.621L137.533,306.618ZM161.584,306.68C161.918,306.657 162.252,306.634 162.584,306.609L162.511,305.612C162.18,305.636 161.849,305.66 161.516,305.682L161.584,306.68ZM284.948,306.374L285.133,305.391C285.506,305.462 285.868,305.553 286.219,305.664L285.917,306.618C285.604,306.519 285.281,306.437 284.948,306.374ZM15.073,306.37C14.739,306.432 14.416,306.513 14.103,306.611L13.804,305.657C14.154,305.547 14.516,305.456 14.89,305.387L15.073,306.37ZM135.533,306.459C135.866,306.488 136.199,306.515 136.533,306.542L136.612,305.545C136.28,305.518 135.949,305.491 135.618,305.463L135.533,306.459ZM163.585,306.532C163.919,306.506 164.252,306.478 164.584,306.449L164.498,305.453C164.168,305.481 163.837,305.509 163.505,305.536L163.585,306.532ZM178.035,305.356C177.709,305.414 177.382,305.471 177.054,305.527L177.221,306.513C177.552,306.456 177.882,306.399 178.21,306.341L178.035,305.356ZM18.06,306.304L18.184,305.311C18.53,305.354 18.885,305.413 19.248,305.488L19.046,306.467C18.71,306.398 18.381,306.344 18.06,306.304ZM281.961,306.301C281.64,306.341 281.311,306.394 280.974,306.463L280.774,305.484C281.137,305.409 281.492,305.351 281.839,305.309L281.961,306.301ZM122.472,305.445C122.144,305.388 121.817,305.33 121.491,305.271L121.313,306.255C121.641,306.315 121.97,306.373 122.301,306.43L122.472,305.445ZM133.535,306.276C133.867,306.308 134.2,306.34 134.534,306.371L134.625,305.375C134.294,305.344 133.963,305.313 133.633,305.281L133.535,306.276ZM165.583,306.36C165.917,306.329 166.25,306.297 166.582,306.264L166.483,305.269C166.154,305.302 165.823,305.333 165.491,305.364L165.583,306.36ZM282.957,306.225L282.927,305.225C283.305,305.213 283.672,305.221 284.03,305.248L283.957,306.245C283.633,306.222 283.3,306.214 282.957,306.225ZM16.064,306.244L15.993,305.246C16.351,305.22 16.718,305.213 17.096,305.225L17.064,306.225C16.721,306.214 16.388,306.221 16.064,306.244ZM131.54,306.067C131.871,306.104 132.204,306.14 132.537,306.175L132.641,305.18C132.31,305.145 131.98,305.11 131.65,305.073L131.54,306.067ZM167.58,306.162C167.913,306.127 168.246,306.091 168.577,306.054L168.466,305.06C168.137,305.097 167.806,305.133 167.475,305.168L167.58,306.162ZM179.994,304.993C179.67,305.056 179.343,305.118 179.016,305.178L179.198,306.162C179.528,306.1 179.857,306.038 180.184,305.975L179.994,304.993ZM120.511,305.09C120.184,305.028 119.858,304.965 119.533,304.901L119.34,305.882C119.667,305.947 119.996,306.01 120.326,306.072L120.511,305.09ZM129.547,305.832C129.878,305.873 130.21,305.914 130.543,305.953L130.66,304.96C130.329,304.921 129.999,304.881 129.671,304.84L129.547,305.832ZM169.574,305.939C169.907,305.899 170.239,305.859 170.57,305.818L170.446,304.825C170.117,304.866 169.787,304.907 169.456,304.946L169.574,305.939ZM181.948,304.601C181.624,304.669 181.299,304.735 180.972,304.801L181.169,305.781C181.498,305.715 181.826,305.648 182.152,305.58L181.948,304.601ZM127.557,305.571C127.888,305.617 128.219,305.661 128.552,305.705L128.682,304.713C128.352,304.67 128.022,304.626 127.694,304.58L127.557,305.571ZM171.565,305.69C171.898,305.646 172.229,305.601 172.559,305.555L172.422,304.564C172.094,304.61 171.765,304.655 171.434,304.698L171.565,305.69ZM118.556,304.705C118.23,304.638 117.905,304.571 117.581,304.502L117.373,305.48C117.699,305.549 118.027,305.618 118.356,305.685L118.556,304.705ZM125.571,305.283C125.901,305.333 126.232,305.382 126.564,305.43L126.708,304.441C126.378,304.393 126.049,304.344 125.722,304.294L125.571,305.283ZM173.553,305.413C173.885,305.365 174.216,305.315 174.545,305.265L174.394,304.276C174.067,304.327 173.738,304.376 173.408,304.424L173.553,305.413ZM183.894,304.178C183.572,304.251 183.248,304.323 182.922,304.394L183.134,305.371C183.463,305.3 183.789,305.227 184.114,305.154L183.894,304.178ZM116.608,304.291C116.282,304.219 115.959,304.146 115.636,304.072L115.413,305.046C115.737,305.121 116.064,305.195 116.392,305.267L116.608,304.291ZM123.589,304.967C123.918,305.021 124.248,305.075 124.58,305.128L124.737,304.141C124.408,304.088 124.08,304.035 123.754,303.98L123.589,304.967ZM175.537,305.11C175.868,305.056 176.198,305.002 176.527,304.947L176.362,303.961C176.035,304.016 175.707,304.069 175.378,304.122L175.537,305.11ZM185.834,303.724C185.513,303.802 185.19,303.879 184.865,303.955L185.093,304.929C185.42,304.852 185.746,304.775 186.07,304.696L185.834,303.724ZM114.667,303.845C114.342,303.767 114.02,303.689 113.699,303.61L113.459,304.58C113.782,304.66 114.108,304.739 114.435,304.817L114.667,303.845ZM121.612,304.622C121.94,304.681 122.269,304.74 122.6,304.798L122.772,303.813C122.443,303.755 122.116,303.697 121.791,303.638L121.612,304.622ZM177.516,304.777C177.847,304.72 178.176,304.661 178.504,304.601L178.324,303.617C177.999,303.676 177.672,303.735 177.344,303.792L177.516,304.777ZM187.764,303.237C187.445,303.321 187.123,303.403 186.8,303.485L187.045,304.455C187.371,304.372 187.695,304.289 188.018,304.205L187.764,303.237ZM119.639,304.247C119.966,304.312 120.295,304.376 120.625,304.438L120.811,303.456C120.484,303.394 120.158,303.33 119.834,303.266L119.639,304.247ZM179.491,304.416C179.821,304.353 180.149,304.289 180.476,304.224L180.281,303.243C179.957,303.308 179.631,303.371 179.304,303.434L179.491,304.416ZM112.734,303.366C112.411,303.283 112.09,303.199 111.771,303.114L111.513,304.081C111.835,304.167 112.159,304.251 112.485,304.335L112.734,303.366ZM117.673,303.842C117.999,303.912 118.326,303.981 118.655,304.049L118.857,303.069C118.531,303.002 118.206,302.934 117.882,302.864L117.673,303.842ZM181.46,304.025C181.789,303.957 182.117,303.887 182.443,303.817L182.232,302.84C181.909,302.909 181.584,302.978 181.258,303.045L181.46,304.025ZM189.686,302.716C189.368,302.805 189.048,302.894 188.726,302.981L188.988,303.946C189.313,303.858 189.636,303.769 189.957,303.678L189.686,302.716ZM110.81,302.854C110.489,302.765 110.169,302.675 109.852,302.584L109.577,303.546C109.897,303.638 110.219,303.728 110.544,303.818L110.81,302.854ZM115.713,303.405C116.037,303.48 116.364,303.554 116.692,303.628L116.91,302.652C116.584,302.579 116.26,302.505 115.939,302.431L115.713,303.405ZM183.423,303.602C183.751,303.528 184.078,303.454 184.402,303.378L184.176,302.404C183.854,302.479 183.53,302.553 183.205,302.626L183.423,303.602ZM191.596,302.158C191.28,302.254 190.963,302.348 190.642,302.442L190.922,303.402C191.246,303.307 191.567,303.212 191.886,303.115L191.596,302.158ZM108.896,302.306C108.577,302.211 108.259,302.115 107.944,302.018L107.65,302.974C107.968,303.072 108.289,303.169 108.612,303.265L108.896,302.306ZM113.76,302.935C114.083,303.016 114.408,303.095 114.735,303.174L114.969,302.202C114.645,302.124 114.323,302.045 114.003,301.965L113.76,302.935ZM185.379,303.146C185.706,303.067 186.031,302.987 186.355,302.906L186.111,301.936C185.791,302.017 185.468,302.096 185.144,302.174L185.379,303.146ZM193.495,301.563C193.181,301.665 192.865,301.766 192.547,301.865L192.846,302.82C193.168,302.719 193.487,302.617 193.804,302.514L193.495,301.563ZM111.815,302.43C112.137,302.516 112.461,302.602 112.787,302.687L113.038,301.719C112.715,301.635 112.394,301.55 112.076,301.464L111.815,302.43ZM106.995,301.72C106.677,301.619 106.362,301.517 106.049,301.413L105.735,302.362C106.051,302.467 106.37,302.571 106.691,302.673L106.995,301.72ZM187.328,302.657C187.653,302.572 187.977,302.486 188.299,302.399L188.037,301.434C187.719,301.52 187.398,301.605 187.075,301.689L187.328,302.657ZM195.379,300.927C195.068,301.036 194.755,301.144 194.439,301.25L194.758,302.198C195.078,302.09 195.395,301.981 195.71,301.871L195.379,300.927ZM109.88,301.888C110.2,301.981 110.522,302.073 110.847,302.164L111.116,301.2C110.795,301.111 110.476,301.02 110.159,300.928L109.88,301.888ZM189.267,302.132C189.591,302.04 189.913,301.948 190.233,301.855L189.953,300.895C189.637,300.987 189.318,301.079 188.997,301.169L189.267,302.132ZM105.106,301.096C104.791,300.987 104.478,300.878 104.168,300.768L103.832,301.71C104.146,301.821 104.463,301.932 104.782,302.041L105.106,301.096ZM107.955,301.308C108.273,301.407 108.594,301.506 108.916,301.603L109.205,300.645C108.886,300.549 108.569,300.452 108.254,300.353L107.955,301.308ZM191.197,301.569C191.519,301.471 191.839,301.372 192.157,301.272L191.858,300.318C191.543,300.417 191.226,300.515 190.907,300.612L191.197,301.569ZM197.248,300.249C196.94,300.365 196.63,300.48 196.316,300.594L196.657,301.534C196.974,301.419 197.289,301.302 197.601,301.185L197.248,300.249ZM103.233,300.429C102.92,300.313 102.61,300.197 102.303,300.079L101.945,301.012C102.256,301.132 102.57,301.25 102.887,301.367L103.233,300.429ZM106.043,300.687C106.359,300.793 106.677,300.899 106.998,301.003L107.306,300.051C106.989,299.949 106.674,299.844 106.362,299.739L106.043,300.687ZM193.115,300.966C193.436,300.862 193.754,300.756 194.069,300.649L193.749,299.702C193.437,299.807 193.122,299.912 192.805,300.015L193.115,300.966ZM199.099,299.526C198.794,299.649 198.487,299.772 198.176,299.893L198.54,300.825C198.855,300.702 199.167,300.578 199.475,300.452L199.099,299.526ZM101.377,299.717C101.068,299.594 100.761,299.469 100.457,299.344L100.075,300.268C100.383,300.395 100.694,300.521 101.008,300.646L101.377,299.717ZM104.144,300.023C104.457,300.136 104.773,300.249 105.092,300.36L105.422,299.416C105.107,299.306 104.795,299.195 104.486,299.083L104.144,300.023ZM195.02,300.321C195.338,300.209 195.654,300.096 195.967,299.982L195.624,299.043C195.315,299.155 195.003,299.267 194.689,299.378L195.02,300.321ZM200.984,298.88C200.984,298.88 200.225,299.058 200.017,299.146L200.406,300.067C200.717,299.936 201.026,299.803 201.331,299.669L200.984,298.88ZM99.362,298.88L98.534,298.78L98.224,299.472C98.529,299.608 98.836,299.743 99.147,299.877L99.542,298.958L99.362,298.88ZM102.261,299.312C102.571,299.433 102.884,299.554 103.2,299.673L103.554,298.738C103.242,298.62 102.933,298.501 102.626,298.381L102.261,299.312ZM197.499,298.38L197.375,298.38C197.104,298.486 196.831,298.592 196.556,298.696L196.91,299.631C197.226,299.511 197.539,299.39 197.849,299.268L197.499,298.38ZM203.164,298.831L202.949,298.38L201.849,298.38L202.25,299.257C202.558,299.117 202.863,298.975 203.164,298.831ZM97.534,298.568L97.28,298.38L96.806,298.38C96.887,298.63 97.051,298.88 97.051,298.88C96.977,298.88 97.534,298.88 97.534,298.88L97.534,298.568ZM101.554,298.38L100.534,298.38L100.534,298.88L101.186,298.88C101.232,298.899 101.279,298.919 101.326,298.938L101.554,298.38ZM199.584,298.38L198.573,298.38L198.783,298.893C198.794,298.889 199.584,298.88 199.584,298.88L199.584,298.38Z"/>
        <path d="M118.176,330.176C117.305,329.046 116.838,327.849 116.838,326.611C116.838,319.633 131.697,313.967 150,313.967C168.303,313.967 183.162,319.633 183.162,326.611C183.162,326.998 183.134,327.256 183.045,327.634L174.929,328.059C174.419,328.016 168.649,327.169 166.636,325.361C160.091,319.483 153.845,316.116 144.81,316.878C145.231,317.906 146.42,320.493 145.427,323.757C141.638,320.827 138.546,319.654 132.007,320.271C136.741,324.956 135.261,328.371 128.195,329.653L118.176,330.176Z" style="fill:#fff;"/>
        <path d="M132.077,320.341L132.007,320.271C138.546,319.654 141.638,320.827 145.427,323.757L145.45,323.681C146.402,320.452 145.227,317.898 144.81,316.878C145.621,316.809 146.41,316.774 147.18,316.771L147.28,316.771L147.38,316.771C155.068,316.798 160.73,320.057 166.636,325.361C168.649,327.169 174.419,328.016 174.929,328.059L183.045,327.634C183.042,327.703 183.026,327.764 183.026,327.764C181.496,334.203 167.283,339.255 150,339.255C135.002,339.255 122.317,335.451 118.224,330.237C118.187,330.189 118.176,330.176 118.176,330.176L118.176,330.176L118.176,330.176L118.176,330.176L118.176,330.176L128.195,329.653C132.382,328.894 134.607,327.385 134.741,325.307C134.808,323.881 133.938,322.207 132.091,320.355L132.077,320.341Z" style="fill:#008cd0;"/>
        <path d="M150,311.967C138.636,311.967 128.564,314.123 122.317,317.371C117.452,319.901 114.838,323.237 114.838,326.611C114.838,329.985 117.452,333.321 122.317,335.851C128.564,339.099 138.636,341.255 150,341.255C161.364,341.255 171.436,339.099 177.683,335.851C182.548,333.321 185.162,329.985 185.162,326.611C185.162,323.237 182.548,319.901 177.683,317.371C171.436,314.123 161.364,311.967 150,311.967ZM182.667,328.799C178.665,329.137 174.923,329.286 171.81,328.721C169.487,328.3 167.5,327.481 165.968,326.105C159.973,320.721 154.25,317.486 146.233,317.792C146.719,319.239 147.175,321.448 146.384,324.048C146.288,324.363 146.044,324.61 145.73,324.71C145.417,324.81 145.075,324.749 144.815,324.548C141.638,322.091 138.973,320.954 134.105,321.132C135.344,322.758 135.847,324.259 135.727,325.545C135.57,327.232 134.4,328.699 132.092,329.711C129.421,330.883 125.083,331.484 119.174,331.278C124.049,335.95 136.02,339.255 150,339.255C166.346,339.255 179.946,334.736 182.667,328.799ZM183.16,326.752C183.162,326.706 183.162,326.658 183.162,326.611C183.162,319.633 168.303,313.967 150,313.967C131.697,313.967 116.838,319.633 116.838,326.611C116.838,327.498 117.078,328.364 117.535,329.2C117.551,329.2 117.567,329.201 117.583,329.202C123.649,329.554 128.129,329.12 130.91,328.036C132.609,327.374 133.627,326.525 133.735,325.359C133.853,324.095 132.988,322.649 131.304,320.982C131.028,320.709 130.935,320.3 131.065,319.935C131.196,319.569 131.526,319.312 131.913,319.275C138.055,318.696 141.305,319.632 144.766,322.031C145.016,319.771 144.2,318.028 143.884,317.256C143.764,316.962 143.791,316.627 143.957,316.356C144.123,316.084 144.409,315.908 144.726,315.881C154.067,315.094 160.538,318.54 167.304,324.617C168.911,326.06 171.136,326.712 173.735,326.969C176.514,327.244 179.706,327.053 183.074,326.756C183.103,326.754 183.132,326.752 183.16,326.752Z"/>
    </g>
</svg>
