<?xml version="1.0" encoding="UTF-8" standalone="no"?>
<!DOCTYPE svg PUBLIC "-//W3C//DTD SVG 1.1//EN" "http://www.w3.org/Graphics/SVG/1.1/DTD/svg11.dtd">
<svg width="100%" height="100%" viewBox="0 0 300 345" version="1.1" xmlns="http://www.w3.org/2000/svg" xmlns:xlink="http://www.w3.org/1999/xlink" xml:space="preserve" xmlns:serif="http://www.serif.com/" style="fill-rule:evenodd;clip-rule:evenodd;stroke-linejoin:round;stroke-miterlimit:2;">
    <g id="avatar_clothing_48">
        <path d="M181.99,315.422C196.648,312.445 207.188,307.484 210.151,301.676L300,301.589L300,308.62C300,328.577 283.577,345 263.62,345L36.38,345C16.423,345 -0,328.577 -0,308.62L-0,301.88L89.909,301.793C94.899,311.228 119.904,318.401 150,318.401C155.772,318.401 161.357,318.137 166.647,317.645L171.492,328.698L174,316.788C174.649,316.696 175.292,316.601 175.927,316.503L180.987,323.295L181.99,315.422Z" style="fill:#a4f0e6;fill-rule:nonzero;"/>
        <path d="M168.335,321.496C167.753,321.555 167.168,321.611 166.58,321.664L133.42,321.664C121.578,320.589 111.129,318.394 103.169,315.47C95.937,312.812 90.671,309.403 87.787,305.795C87.787,305.795 4,305.876 4,305.876L-0,305.845L-0,301.88L89.909,301.793C94.899,311.228 119.904,318.401 150,318.401C155.772,318.401 161.357,318.137 166.647,317.645L168.335,321.496ZM175.927,316.503L178.617,320.113C176.834,320.416 175.002,320.692 173.126,320.939L174,316.788C174.649,316.696 175.292,316.601 175.927,316.503ZM181.99,315.422C196.648,312.445 207.188,307.484 210.151,301.676L300,301.589L300,305.541C300,305.541 296,305.593 296,305.593L212.305,305.674C209.457,309.305 204.21,312.74 196.977,315.416C192.526,317.062 187.289,318.48 181.458,319.599L181.99,315.422Z" style="fill:#56ddcb;"/>
        <path d="M-0,262.01C-0,281.962 16.418,298.38 36.37,298.38L89.26,298.38L89.26,345L36.38,345C16.423,345 -0,328.577 -0,308.62L0,262L-0,262.01ZM210.74,298.38L263.62,298.38C283.577,298.38 300,281.957 300,262L300,308.62C300,328.577 283.577,345 263.62,345L210.74,345L210.74,298.38Z" style="fill:#eff8ff;fill-rule:nonzero;"/>
        <path d="M257.393,345C256.579,342.657 256.693,340.043 258.268,337.972C262.134,332.886 267.786,340.374 271.572,336.947C273.159,335.511 273.262,332.967 273.422,331.004C273.721,327.339 273.497,323.67 275.916,320.621C276.681,319.658 277.637,318.869 278.684,318.231C279.575,317.688 280.57,317.288 281.588,317.056C284.558,316.38 287.65,317.765 289.306,320.26C290.024,321.344 290.546,323.19 291.731,323.883C293.158,324.718 294.653,324.772 296.029,325.056C289.986,336.849 277.68,345 263.62,345L257.393,345ZM2.784,322.502C3.667,321.986 4.642,321.49 5.616,321.222C6.54,320.969 7.388,320.803 8.342,320.882C12.897,321.26 13.513,326.311 13.014,329.991C12.796,331.603 12.172,333.491 13.279,334.911C15.08,337.219 18.434,336.941 20.867,338.1C22.583,338.917 23.975,340.869 24.708,343.056C14.819,339.662 6.796,332.096 2.784,322.502Z" style="fill:#ff1cfc;"/>
        <g transform="matrix(1,0,0,1,-1.04908,0)">
            <g transform="matrix(1,0,0,1,1.82265,0)">
                <path d="M210.74,345L240.269,321.923L224.531,300.17L210.861,300.17L208.918,345L210.74,345Z" style="fill:#a4d5ff;"/>
            </g>
            <path d="M210.74,345L239.568,321.222L224.531,300.17L210.861,300.17L210.74,345Z" style="fill:#fff;"/>
            <path d="M210.74,319.799L247.967,306.058L245.108,298.38L210.736,298.38L210.74,319.799Z" style="fill:#a4d5ff;"/>
            <path d="M210.821,318.905L245.715,305.111L242.891,298.329L210.736,298.38L210.821,318.905Z" style="fill:#fff;"/>
        </g>
        <g transform="matrix(-1,0,0,1,300.848,0)">
            <g transform="matrix(1,0,0,1,1.82265,0)">
                <path d="M210.74,345L240.269,321.923L224.531,299.368L210.861,299.368L208.918,345L210.74,345Z" style="fill:#a4d5ff;"/>
            </g>
            <path d="M210.74,345L239.568,321.222L224.531,299.368L210.861,299.368L210.74,345Z" style="fill:#fff;"/>
            <path d="M210.74,319.799L247.967,306.058L245.113,298.38L210.74,298.532L210.74,319.799Z" style="fill:#a4d5ff;"/>
            <path d="M210.821,318.905L245.715,305.111L242.895,298.38L210.74,298.329L210.821,318.905Z" style="fill:#fff;"/>
        </g>
    </g>
</svg>
