<?xml version="1.0" encoding="UTF-8" standalone="no"?>
<!DOCTYPE svg PUBLIC "-//W3C//DTD SVG 1.1//EN" "http://www.w3.org/Graphics/SVG/1.1/DTD/svg11.dtd">
<svg width="100%" height="100%" viewBox="0 0 300 345" version="1.1" xmlns="http://www.w3.org/2000/svg" xmlns:xlink="http://www.w3.org/1999/xlink" xml:space="preserve" xmlns:serif="http://www.serif.com/" style="fill-rule:evenodd;clip-rule:evenodd;stroke-linejoin:round;stroke-miterlimit:2;">
    <g id="avatar_clothing_55">
        <g>
            <path d="M36.38,345C16.423,345 -0,328.577 -0,308.62L0,262L-0,262.01C-0,281.967 16.423,298.39 36.38,298.39L263.62,298.39C283.577,298.39 300,281.967 300,262.01L300,308.62C300,328.577 283.577,345 263.62,345L36.38,345Z" style="fill:#2a4386;fill-rule:nonzero;"/>
            <path d="M2.272,311.511C2.208,312.363 2.131,313.188 2.035,313.976L1.735,316.449L3.661,314.871C6.184,312.804 8.387,310.759 10.255,308.777C10.805,311.061 11.319,313.295 11.645,315.322L12.04,317.781L13.455,315.731C14.661,313.985 15.739,312.286 16.689,310.645C17.567,313.547 18.808,316.721 20.418,320.1L21.49,322.348L22.271,319.983C22.965,317.879 23.915,315.573 24.899,313.224C25.783,316.479 27.15,320.105 29.008,324.005L30.08,326.253L30.861,323.888C31.504,321.938 32.367,319.814 33.274,317.644C34.996,320.791 37.392,324.234 40.439,327.844L42.045,329.747L42.201,327.262C42.31,325.513 42.542,323.602 42.811,321.632C44.055,324.523 45.732,327.661 47.84,330.974L49.177,333.075L49.664,330.633C50.068,328.61 50.67,326.386 51.309,324.112C52.583,327.734 54.628,331.843 57.439,336.261L58.775,338.363L59.263,335.92C59.938,332.537 61.164,328.593 62.198,324.786C64.294,329.236 67.658,334.287 72.237,339.639L73.856,341.531L73.995,339.044C74.059,337.913 74.164,336.725 74.296,335.499C74.604,337.878 74.869,340.187 74.987,342.298L75.126,344.785L76.745,342.892C80.581,338.408 83.565,334.138 85.663,330.256C87.538,333.225 89.879,336.375 92.671,339.639L94.29,341.531L94.429,339.044C94.561,336.696 94.874,334.1 95.227,331.436C97.616,334.436 100.621,337.597 104.209,340.825L106.061,342.491L105.875,340.007C105.7,337.66 105.673,335.045 105.676,332.356C107.469,335.682 109.814,339.262 112.698,343.008L114.217,344.982L114.484,342.505C114.819,339.399 115.496,335.878 116.163,332.335C116.594,334.697 116.978,336.992 117.205,339.096L117.472,341.572L118.991,339.599C121.274,336.633 123.219,333.772 124.819,331.06C125.558,335.027 126.362,339.027 126.737,342.505L127.005,344.982L128.524,343.008C131.114,339.644 133.268,336.414 134.979,333.383C137.328,336.751 140.416,340.356 144.206,344.073L145.984,345.817L145.905,343.327C145.868,342.148 145.871,340.903 145.899,339.616C146.805,341.264 147.81,342.959 148.914,344.695L150.251,346.797L150.739,344.354C151.332,341.381 152.282,338.046 153.234,334.68C153.805,336.767 154.323,338.792 154.699,340.673L155.186,343.115L156.523,341.014C158.156,338.448 159.572,335.97 160.77,333.606C162.881,336.563 165.514,339.689 168.648,342.908L170.386,344.692L170.365,342.201C170.342,339.491 170.538,336.438 170.755,333.329C171.972,335.548 173.386,337.861 174.995,340.249L176.388,342.314L176.81,339.859C177.238,337.371 177.906,334.625 178.615,331.819C179.545,335.487 180.504,339.15 181.06,342.379L181.482,344.834L182.874,342.769C185.802,338.428 188.081,334.331 189.703,330.602C190.878,333.239 192.002,335.823 192.846,338.196L193.681,340.542L194.7,338.27C196.426,334.424 197.766,330.806 198.724,327.48C200.084,330.01 201.389,332.49 202.401,334.782L203.408,337.06L204.256,334.718C205.036,332.566 205.706,330.489 206.27,328.499C206.925,331.06 207.766,333.776 208.797,336.624L209.645,338.966L210.652,336.688C212.211,333.162 214.458,329.189 216.539,325.277C219.141,328.769 222.639,332.51 226.977,336.339L228.844,337.988L228.635,335.506C228.448,333.281 228.392,330.814 228.368,328.271C229.519,330.528 230.864,332.884 232.403,335.32L233.734,337.426L234.229,334.985C234.935,331.502 236.131,327.524 237.248,323.583C238.055,326.414 238.822,329.187 239.332,331.702L239.827,334.142L241.157,332.037C242.692,329.607 244.035,327.257 245.183,325.006C246.217,326.965 247.395,328.995 248.714,331.084L250.045,333.189L250.54,330.748C251.297,327.013 252.619,322.709 253.802,318.488C256.484,321.214 259.789,324.033 263.677,326.858L265.692,328.323L265.249,325.872C264.775,323.249 264.455,320.264 264.147,317.216C266.552,319.509 269.386,321.857 272.624,324.211L274.638,325.675L274.196,323.224C273.554,319.67 273.193,315.454 272.764,311.316C274.823,313.164 277.153,315.042 279.741,316.923L281.756,318.388L281.313,315.937C280.887,313.579 280.585,310.93 280.305,308.204C282.219,311.552 284.172,314.894 285.6,317.914L286.665,320.165L287.453,317.803C288.941,313.339 289.979,309.205 290.583,305.49C291.3,306.802 291.968,308.083 292.548,309.311L293.613,311.562L294.401,309.2C295.385,306.25 296.172,303.444 296.766,300.809C297.454,301.754 298.104,302.682 298.694,303.584L300.058,305.668L300.514,303.219C300.688,302.284 300.846,301.364 300.988,300.461L301,300.384L301,281.071L149.995,320.13L-1,282.638L-1,305.594L-0.955,305.738C-0.466,307.319 0.105,308.963 0.76,310.663L1.655,312.987L2.272,311.511ZM149.759,322.132L150.005,322.193L299,283.654C299,283.654 299,300.227 299,300.227C298.989,300.298 298.977,300.37 298.966,300.441C298.356,299.583 297.709,298.708 297.041,297.823L295.685,296.025L295.261,298.237C294.782,300.735 294.112,303.41 293.249,306.236C292.514,304.825 291.702,303.367 290.862,301.886L289.322,299.174L288.998,302.276C288.61,305.983 287.716,310.208 286.3,314.839C284.338,311.074 281.825,306.961 279.701,303.03L277.827,303.611C278.195,307.085 278.504,310.639 278.955,313.842C276.398,311.883 274.132,309.935 272.175,308.029L270.158,306.065L270.484,308.861C270.962,312.958 271.298,317.295 271.838,321.129C268.616,318.661 265.857,316.211 263.594,313.839L261.578,311.727L261.876,314.631C262.196,317.755 262.486,320.907 262.891,323.777C259.376,321.085 256.413,318.414 254.042,315.843L252.815,314.512L252.342,316.259C251.282,320.175 250.023,324.241 249.124,327.93C247.974,326.004 246.953,324.135 246.063,322.335L245.149,320.486L244.264,322.348C243.272,324.435 242.099,326.62 240.747,328.884C240.031,325.941 239.085,322.759 238.194,319.606L237.198,316.084L236.264,319.623C235.162,323.8 233.779,328.201 232.813,332.166C230.955,329.056 229.436,326.095 228.259,323.331L226.339,323.731C226.365,326.958 226.351,330.22 226.486,333.197C222.593,329.582 219.488,326.073 217.229,322.812L216.286,321.449L215.52,322.919C213.645,326.517 211.543,330.219 209.874,333.631C208.723,330.185 207.871,326.957 207.314,323.998L205.355,323.967C204.816,326.398 204.092,328.993 203.18,331.726C202.018,329.349 200.646,326.832 199.286,324.307L198.047,322.007L197.433,324.547C196.65,327.792 195.456,331.369 193.85,335.206C192.883,332.79 191.725,330.224 190.575,327.649L189.588,325.437L188.727,327.702C187.358,331.305 185.296,335.316 182.559,339.605C181.745,335.771 180.559,331.526 179.601,327.467L177.657,327.455C176.84,330.725 175.958,334.034 175.311,337.084C173.567,334.352 172.097,331.731 170.905,329.257L169.255,325.83L169.006,329.625C168.782,333.058 168.492,336.553 168.396,339.737C165.613,336.731 163.292,333.823 161.455,331.081L160.477,329.621L159.721,331.207C158.71,333.329 157.51,335.553 156.123,337.86C155.574,335.573 154.888,333.143 154.195,330.693L153.215,327.228L152.268,330.702C151.272,334.358 150.138,338.112 149.314,341.54C148.024,339.395 146.896,337.321 145.931,335.334L144.032,335.727C143.954,337.504 143.892,339.249 143.88,340.909C140.495,337.417 137.765,334.05 135.728,330.916L134.8,329.489L134.005,330.994C132.539,333.771 130.669,336.734 128.408,339.831C127.857,336.092 126.985,331.95 126.294,327.972L125.794,325.096L124.425,327.675C122.966,330.425 121.113,333.358 118.875,336.421C118.418,333.317 117.74,329.936 117.127,326.6L115.156,326.62C114.441,330.999 113.428,335.665 112.814,339.83C109.617,335.454 107.204,331.343 105.607,327.656L103.69,328.052C103.687,331.33 103.639,334.65 103.748,337.678C100.321,334.435 97.515,331.283 95.369,328.318L93.903,326.293L93.568,328.771C93.212,331.403 92.854,334.019 92.623,336.458C90.141,333.404 88.078,330.468 86.45,327.709L85.508,326.112L84.691,327.777C82.905,331.417 80.258,335.449 76.793,339.713C76.431,335.904 75.762,331.665 75.275,327.613L73.291,327.6C72.887,330.622 72.455,333.656 72.189,336.459C67.67,330.899 64.543,325.736 62.907,321.327L61.765,318.251L60.997,321.44C60.079,325.249 58.763,329.391 57.847,333.108C54.992,328.305 53.118,323.945 52.258,320.282L50.321,320.242C49.606,322.809 48.843,325.404 48.248,327.82C45.979,324.002 44.329,320.462 43.315,317.328L41.373,317.497C41.031,319.934 40.665,322.384 40.42,324.664C37.634,321.152 35.511,317.836 34.086,314.844L33.125,312.828L32.261,314.888C31.4,316.94 30.533,318.986 29.796,320.924C27.988,316.811 26.774,313.057 26.154,309.797L25.53,306.509L24.248,309.6C23.208,312.11 22.109,314.646 21.207,317.019C19.736,313.675 18.659,310.568 17.974,307.771L17.346,305.206L16.118,307.543C15.271,309.154 14.286,310.833 13.166,312.566C12.764,310.615 12.259,308.548 11.756,306.472L11.302,304.598L10.031,306.049C8.416,307.895 6.487,309.806 4.259,311.748C4.392,310.02 4.474,308.185 4.553,306.332L2.658,305.845C2.355,306.455 2.062,307.058 1.783,307.651C1.502,306.851 1.241,306.064 1,305.293C1,305.291 1,285.196 1,285.196C1,285.196 149.759,322.132 149.759,322.132Z" style="fill:#253151;"/>
            <path d="M150,321.162L300,282.362L300,300.306C299.86,301.2 299.704,302.11 299.531,303.036C298.563,301.557 297.438,300.009 296.243,298.425C295.627,301.639 294.699,305.144 293.452,308.883C292.482,306.831 291.27,304.631 289.992,302.38C289.534,306.761 288.381,311.857 286.504,317.486C284.465,313.175 281.363,308.21 278.822,303.505C279.283,307.87 279.651,312.36 280.329,316.115C276.913,313.632 273.952,311.155 271.477,308.745C272.058,313.723 272.426,319.056 273.212,323.402C269.081,320.4 265.616,317.407 262.87,314.529C263.282,318.545 263.643,322.607 264.265,326.05C259.82,322.819 256.146,319.599 253.307,316.521C252.015,321.294 250.424,326.291 249.56,330.549C247.854,327.85 246.389,325.25 245.167,322.778C243.858,325.532 242.238,328.454 240.312,331.503C239.592,327.954 238.367,323.893 237.231,319.878C235.904,324.908 234.166,330.264 233.249,334.786C230.767,330.858 228.795,327.141 227.339,323.723C227.372,327.846 227.339,332.027 227.638,335.59C222.816,331.332 219.045,327.19 216.407,323.381C214.122,327.767 211.495,332.308 209.737,336.284C208.151,331.904 207.02,327.84 206.331,324.183C205.635,327.329 204.632,330.744 203.316,334.377C201.998,331.395 200.191,328.096 198.406,324.781C197.458,328.704 195.922,333.106 193.788,337.861C192.709,334.828 191.178,331.45 189.662,328.057C188.055,332.287 185.508,337.075 182.045,342.21C181.289,337.814 179.79,332.618 178.628,327.697C177.593,331.836 176.452,336.039 175.825,339.689C173.452,336.171 171.509,332.815 170.004,329.69C169.721,334.016 169.333,338.441 169.365,342.21C165.774,338.523 162.849,334.96 160.624,331.637C159.296,334.424 157.646,337.385 155.679,340.477C155.095,337.552 154.169,334.277 153.233,330.966C152.002,335.482 150.559,340.148 149.758,344.158C147.897,341.233 146.321,338.425 145.031,335.771C144.914,338.434 144.832,341.024 144.906,343.359C140.654,339.188 137.296,335.163 134.89,331.461C133.093,334.862 130.702,338.54 127.732,342.398C127.267,338.095 126.152,332.997 125.309,328.143C123.518,331.518 121.143,335.165 118.199,338.988C117.8,335.288 116.919,330.998 116.143,326.781C115.286,332.028 113.998,337.69 113.49,342.398C109.497,337.211 106.549,332.348 104.69,328.053C104.686,332.227 104.608,336.47 104.878,340.082C100.564,336.201 97.104,332.421 94.559,328.905C94.083,332.425 93.603,335.916 93.431,338.988C90.196,335.207 87.574,331.582 85.589,328.217C83.512,332.45 80.292,337.209 75.985,342.242C75.741,337.876 74.875,332.665 74.282,327.733C73.759,331.642 73.188,335.574 72.997,338.988C67.534,332.604 63.82,326.662 61.969,321.675C60.849,326.322 59.132,331.466 58.282,335.725C54.63,329.984 52.287,324.78 51.285,320.511C50.33,323.936 49.288,327.41 48.684,330.437C45.694,325.738 43.581,321.398 42.363,317.636C41.898,320.956 41.385,324.3 41.203,327.199C37.581,322.908 34.892,318.861 33.183,315.275C31.978,318.149 30.757,321.011 29.911,323.574C27.491,318.496 25.914,313.89 25.172,309.983C23.791,313.315 22.304,316.694 21.321,319.67C19.288,315.404 17.851,311.472 17.003,308.009C15.812,310.274 14.354,312.67 12.632,315.163C12.216,312.573 11.496,309.649 10.784,306.708C8.702,309.088 6.106,311.575 3.028,314.097C3.315,311.731 3.437,309.031 3.553,306.29C2.865,307.676 2.227,309.025 1.693,310.303C1.047,308.626 0.483,307.003 0,305.443L0,283.917L150,321.162Z" style="fill:#d4e0ff;"/>
            <g transform="matrix(1,0,0,1,0,3.30545)">
                <path d="M150,298.39L150,298.39C208.903,298.39 257.39,287.474 300,265.68L300,285.804C264.01,315.142 200.373,317.266 150,324.365C99.627,317.266 35.99,315.142 0,285.804L0,265.68C42.61,287.474 91.097,298.39 150,298.39Z" style="fill:#a5baf3;"/>
            </g>
            <path d="M150,298.39L150,298.39C208.903,298.39 257.39,287.474 300,265.68L300,285.804C264.01,315.142 200.373,317.266 150,324.365C99.627,317.266 35.99,315.142 0,285.804L0,265.68C42.61,287.474 91.097,298.39 150,298.39Z" style="fill:#4365c0;"/>
            <path d="M78.473,292.159C91.808,294.664 105.727,296.414 120.311,297.408C128.365,298.998 137.082,300.784 146.122,302.559L145.912,323.803C128,321.398 108.591,319.499 89.447,316.715C89.465,316.387 89.514,316.075 89.596,315.787C84.072,314.839 81.913,309.184 83.32,306.211C74.92,305.567 71.92,296.57 75.038,293.573C75.747,292.892 76.908,292.431 78.473,292.159ZM221.744,292.118C223.436,292.383 224.682,292.856 225.428,293.573C228.546,296.57 225.546,305.567 217.146,306.211C218.553,309.184 216.394,314.839 210.87,315.787C210.947,316.055 210.994,316.344 211.015,316.648C191.886,319.444 172.48,321.346 154.553,323.741L154.344,302.559C163.475,300.766 172.277,298.962 180.406,297.358C194.81,296.35 208.563,294.603 221.744,292.118Z" style="fill:#35529d;"/>
            <path d="M116.026,327.485L95.619,324.978C91.718,324.068 89.288,319.694 89.447,316.715C110.056,319.712 130.974,321.684 150,324.365C169.167,321.664 190.254,319.683 211.015,316.648C211.187,319.22 209.395,322.873 206.376,324.416C206.361,324.338 206.346,324.261 206.331,324.183C206.31,324.278 206.289,324.374 206.267,324.47C205.819,324.689 205.345,324.862 204.847,324.978L198.905,325.708L198.406,324.781C198.324,325.118 198.239,325.457 198.149,325.801L178.744,328.185C178.705,328.022 178.666,327.859 178.628,327.697C178.584,327.87 178.541,328.042 178.498,328.215L166.722,329.661C165.398,331.243 163.854,332.634 162.138,333.788C161.602,333.061 161.097,332.343 160.624,331.637C159.987,332.974 159.276,334.35 158.491,335.763C157.331,336.255 156.118,336.649 154.865,336.935C154.376,335.007 153.806,332.993 153.233,330.966C152.646,333.117 152.012,335.303 151.422,337.435C150.951,337.466 150.477,337.481 150,337.481C148.517,337.481 147.069,337.333 145.669,337.05C145.449,336.62 145.236,336.193 145.031,335.771C145.015,336.149 144.999,336.526 144.984,336.9C140.302,335.796 136.201,333.18 133.225,329.598L125.395,328.636C125.366,328.472 125.337,328.308 125.309,328.143C125.229,328.294 125.148,328.444 125.066,328.595L116.279,327.516C116.234,327.271 116.188,327.026 116.143,326.781C116.105,327.015 116.066,327.25 116.026,327.485Z" style="fill:#a5baf3;"/>
        </g>
        <g transform="matrix(1.27214,0,0,1.27214,-48.8412,-89.2881)">
            <g transform="matrix(0.786079,0,0,0.786079,38.393,70.1875)">
                <path d="M300.885,278.1L300,278.536L300,274.307C299.702,274.307 299.4,274.373 299.115,274.514C199.702,323.589 100.289,322.954 0.876,274.509C0.594,274.372 0.295,274.307 0,274.307L0,278.531C0.051,278.555 0.102,278.58 0.154,278.605C100.398,327.125 200.641,327.586 300.885,278.1Z" style="fill:#7b4204;"/>
            </g>
            <g>
                <g transform="matrix(0.786079,0,0,0.786079,38.393,71.7653)">
                    <path d="M149.95,298.212C185.324,291.267 215.759,284.155 221.034,289.226C224.153,292.224 221.152,301.22 212.752,301.864C214.16,304.838 212,310.493 206.477,311.441C207.303,314.34 204.785,319.621 200.454,320.632L150.233,326.801L149.95,298.212Z" style="fill:#ffae15;"/>
                </g>
                <g transform="matrix(0.786079,0,0,0.786079,38.393,70.1875)">
                    <path d="M175.293,318.75C175.864,321.982 173.615,324.529 171.397,326.208L150.233,328.808L149.95,300.219C156.726,298.889 163.32,297.553 169.591,296.297C173.276,297.809 174.912,304.571 173.523,307.122C184.052,305.13 194.617,303.195 205.716,302.112C195.161,304.294 185.053,306.731 175.18,309.302C176.189,311.06 176.469,313.706 174.457,316.485C174.477,316.522 174.497,316.559 174.517,316.595L198.365,312.773L175.293,318.75Z" style="fill:#613f00;fill-opacity:0.25;"/>
                </g>
                <g transform="matrix(0.786079,0,0,0.786079,38.393,71.7653)">
                    <path d="M149.95,298.212C185.324,291.267 215.759,284.155 221.034,289.226C224.153,292.224 221.152,301.22 212.752,301.864C214.16,304.838 212,310.493 206.477,311.441C207.303,314.34 204.785,319.621 200.454,320.632L150.233,326.801L149.95,298.212ZM151.967,299.854C175.968,295.118 197.517,290.382 210.161,289.614C213.278,289.425 215.818,289.472 217.67,289.863C218.544,290.047 219.23,290.266 219.648,290.668C220.436,291.426 220.391,292.816 219.971,294.206C219.169,296.861 216.654,299.559 212.599,299.87L209.701,300.093L210.945,302.72C211.311,303.494 211.228,304.546 210.86,305.571C210.222,307.348 208.632,309.042 206.139,309.469L203.943,309.846L204.553,311.989C204.779,312.782 204.562,313.825 204.123,314.849C203.406,316.521 202.015,318.169 200.097,318.66C200.094,318.661 152.211,324.543 152.211,324.543L151.967,299.854Z" style="fill:#9d5406;"/>
                </g>
                <g transform="matrix(0.786079,0,0,0.786079,38.393,70.1875)">
                    <path d="M167.441,308.531C167.795,309.229 167.058,308.782 167.752,309.143C167.812,309.174 167.885,309.124 167.951,309.114C169.144,308.934 170.335,308.738 171.525,308.527C175.081,307.896 178.626,307.178 182.174,306.475C184.534,306.007 186.896,305.548 189.254,305.08C190.245,304.884 191.234,304.68 192.223,304.478C194.535,304.007 196.835,303.506 199.162,303.13C200.586,302.9 202.021,302.752 203.45,302.555C204.404,302.424 205.359,302.308 206.307,302.138C206.404,302.121 206.498,302.104 206.592,302.075C206.742,302.029 206.866,301.968 207.013,301.911C207.033,301.909 207.049,301.891 207.047,301.87C207.046,301.849 207.027,301.834 207.007,301.836C206.864,301.805 206.741,301.768 206.596,301.749C206.461,301.731 206.328,301.727 206.191,301.726C205.788,301.722 205.387,301.757 204.984,301.778C204.441,301.806 203.898,301.833 203.356,301.878C202.093,301.984 200.838,302.166 199.578,302.305C196.635,302.629 193.692,302.915 190.761,303.349C189.507,303.534 188.258,303.747 187.009,303.966C184.042,304.487 181.083,305.062 178.126,305.638C175.172,306.213 172.217,306.775 169.268,307.349C168.678,307.464 167.91,307.268 167.501,307.708C166.969,308.281 167.514,307.613 167.417,308.389C167.378,308.396 167.351,308.433 167.358,308.472C167.365,308.511 167.402,308.538 167.441,308.531Z" style="fill:#9d5406;"/>
                </g>
                <g transform="matrix(0.671752,0,0,0.671752,56.6627,113.026)">
                    <path d="M167.443,308.543C167.878,309.496 166.856,308.761 167.773,309.265C167.832,309.297 167.907,309.247 167.973,309.238C169.167,309.062 170.359,308.869 171.549,308.66C175.107,308.033 178.652,307.314 182.2,306.608C184.559,306.139 186.92,305.679 189.277,305.204C190.267,305.005 191.254,304.796 192.242,304.589C194.551,304.105 196.845,303.581 199.171,303.195C200.594,302.959 202.029,302.817 203.456,302.613C204.41,302.477 205.364,302.358 206.311,302.173C206.407,302.154 206.501,302.135 206.594,302.103C206.747,302.051 206.865,301.982 207.013,301.917C207.038,301.915 207.056,301.894 207.054,301.87C207.052,301.845 207.03,301.827 207.006,301.829C206.861,301.791 206.742,301.747 206.594,301.722C206.458,301.699 206.325,301.692 206.188,301.689C205.784,301.679 205.383,301.714 204.979,301.732C204.435,301.756 203.893,301.777 203.35,301.82C202.086,301.921 200.83,302.107 199.569,302.242C196.623,302.555 193.676,302.811 190.74,303.231C189.485,303.411 188.235,303.622 186.986,303.839C184.017,304.355 181.057,304.928 178.1,305.504C175.146,306.078 172.192,306.638 169.245,307.22C168.655,307.336 167.879,307.136 167.48,307.586C166.785,308.369 167.502,307.334 167.415,308.377C167.369,308.385 167.338,308.429 167.346,308.474C167.354,308.52 167.398,308.551 167.443,308.543Z" style="fill:#9d5406;"/>
                </g>
                <g transform="matrix(0.786079,0,0,0.786079,38.393,70.1875)">
                    <path d="M175.768,305.167C186.6,303.288 197.445,301.636 208.345,300.902C213.705,300.722 214.684,300.206 214.791,299.622C201.809,299.517 189.247,301.515 175.929,303.453C175.945,303.955 175.887,304.53 175.768,305.167Z" style="fill:#d7961b;"/>
                </g>
                <g transform="matrix(0.786079,0,0,0.786079,32.913,78.1372)">
                    <path d="M185.987,302.806C185.928,303.29 185.746,303.89 185.387,304.375C188.865,303.296 200.767,302.038 207.465,301.462C212.713,301.01 214.684,300.206 214.791,299.622C204.978,299.542 185.987,302.806 185.987,302.806Z" style="fill:#d7961b;"/>
                </g>
                <g transform="matrix(0.786079,0,0,0.786079,38.393,70.1875)">
                    <path d="M175.768,322.909L198.904,320.003C200.06,319.879 200.918,319.515 201.434,318.878L176.127,322.034C176.075,322.299 175.956,322.59 175.768,322.909Z" style="fill:#d7961b;"/>
                </g>
                <g transform="matrix(0.729736,-0.0272715,0.0262923,0.703533,41.004,101.254)">
                    <path d="M201.08,317.453C193.512,317.683 180.572,319.295 180.093,318.578L180.087,318.569C185.733,317.246 191.972,315.597 196.367,314.678C198.701,314.19 200.65,314.003 201.985,314.212C203.076,314.382 203.381,315.28 203.365,315.786C203.331,316.889 202.183,317.419 201.08,317.453Z" style="fill:#ffc04a;"/>
                </g>
                <g transform="matrix(0.786079,0,0,0.786079,38.393,70.1875)">
                    <path d="M206.845,307.675C200.549,306.725 182.75,308.451 179.739,309.083C187.096,307.61 193.673,305.751 198.867,304.621C202.787,303.768 205.986,303.347 208.232,303.667C209.325,303.823 210.085,304.836 209.93,305.929C209.774,307.022 209.158,308.024 206.845,307.675Z" style="fill:#ffc04a;"/>
                </g>
                <g transform="matrix(0.786079,0,0,0.786079,38.393,70.1875)">
                    <path d="M174.98,298.508C186.094,296.277 207.744,295.885 216.446,296.918C217.542,297.049 218.538,296.264 218.668,295.168C218.798,294.072 218.014,293.076 216.918,292.946C207.945,291.881 190.407,295.324 174.98,298.508Z" style="fill:#ffc04a;"/>
                </g>
            </g>
            <g transform="matrix(-1,0,0,1,312.532,0)">
                <g transform="matrix(0.786079,0,0,0.786079,38.393,71.7653)">
                    <path d="M149.95,298.212C185.324,291.267 215.759,284.155 221.034,289.226C224.153,292.224 221.152,301.22 212.752,301.864C214.16,304.838 212,310.493 206.477,311.441C207.303,314.34 204.785,319.621 200.454,320.632L150.233,326.801L149.95,298.212Z" style="fill:#ffae15;"/>
                </g>
                <g transform="matrix(0.786079,0,0,0.786079,38.393,70.1875)">
                    <path d="M175.293,318.75C175.864,321.982 173.615,324.529 171.397,326.208L150.233,328.808L149.95,300.219C156.726,298.889 163.32,297.553 169.591,296.297C173.276,297.809 174.912,304.571 173.523,307.122C184.052,305.13 194.617,303.195 205.716,302.112C195.161,304.294 185.053,306.731 175.18,309.302C176.189,311.06 176.469,313.706 174.457,316.485C174.477,316.522 174.497,316.559 174.517,316.595L198.365,312.773L175.293,318.75Z" style="fill:#613f00;fill-opacity:0.25;"/>
                </g>
                <g transform="matrix(0.786079,0,0,0.786079,38.393,71.7653)">
                    <path d="M149.95,298.212C185.324,291.267 215.759,284.155 221.034,289.226C224.153,292.224 221.152,301.22 212.752,301.864C214.16,304.838 212,310.493 206.477,311.441C207.303,314.34 204.785,319.621 200.454,320.632L150.233,326.801L149.95,298.212ZM151.967,299.854C175.968,295.118 197.517,290.382 210.161,289.614C213.278,289.425 215.818,289.472 217.67,289.863C218.544,290.047 219.23,290.266 219.648,290.668C220.436,291.426 220.391,292.816 219.971,294.206C219.169,296.861 216.654,299.559 212.599,299.87L209.701,300.093L210.945,302.72C211.311,303.494 211.228,304.546 210.86,305.571C210.222,307.348 208.632,309.042 206.139,309.469L203.943,309.846L204.553,311.989C204.779,312.782 204.562,313.825 204.123,314.849C203.406,316.521 202.015,318.169 200.097,318.66C200.094,318.661 152.211,324.543 152.211,324.543L151.967,299.854Z" style="fill:#9d5406;"/>
                </g>
                <g transform="matrix(0.786079,0,0,0.786079,38.393,70.1875)">
                    <path d="M167.417,308.389C167.514,307.613 166.969,308.281 167.501,307.708C167.91,307.268 168.678,307.464 169.268,307.349C172.217,306.775 175.172,306.213 178.126,305.638C181.083,305.062 184.042,304.487 187.009,303.966C188.258,303.747 189.507,303.534 190.761,303.349C193.692,302.915 196.635,302.629 199.578,302.305C200.838,302.166 202.093,301.984 203.356,301.878C203.898,301.833 204.441,301.806 204.984,301.778C205.387,301.757 205.788,301.722 206.191,301.726C206.328,301.727 206.461,301.731 206.596,301.749C206.741,301.768 206.864,301.805 207.007,301.836C207.027,301.834 207.046,301.849 207.047,301.87C207.049,301.891 207.033,301.909 207.013,301.911C206.866,301.968 206.742,302.029 206.592,302.075C206.498,302.104 206.404,302.121 206.307,302.138C205.359,302.308 204.404,302.424 203.45,302.555C202.021,302.752 200.586,302.9 199.163,303.13C196.835,303.506 194.535,304.007 192.223,304.478C191.234,304.68 190.245,304.884 189.254,305.08C186.896,305.548 184.534,306.007 182.174,306.475C178.626,307.178 175.081,307.896 171.525,308.527C170.335,308.738 169.144,308.934 167.951,309.114C167.885,309.124 167.812,309.174 167.752,309.143C167.058,308.782 167.795,309.229 167.441,308.531C167.402,308.538 167.365,308.511 167.358,308.472C167.351,308.433 167.378,308.396 167.417,308.389Z" style="fill:#9d5406;"/>
                </g>
                <g transform="matrix(0.671752,0,0,0.671752,56.6627,113.026)">
                    <path d="M167.415,308.377C167.502,307.334 166.785,308.369 167.48,307.586C167.879,307.136 168.655,307.336 169.245,307.22C172.192,306.638 175.146,306.078 178.1,305.504C181.057,304.928 184.017,304.355 186.986,303.839C188.235,303.622 189.485,303.411 190.74,303.231C193.676,302.811 196.623,302.555 199.569,302.242C200.83,302.107 202.086,301.921 203.35,301.82C203.893,301.777 204.435,301.756 204.979,301.732C205.383,301.714 205.784,301.679 206.188,301.689C206.325,301.692 206.458,301.699 206.594,301.722C206.742,301.747 206.861,301.791 207.006,301.829C207.03,301.827 207.052,301.845 207.054,301.87C207.056,301.894 207.038,301.915 207.013,301.917C206.865,301.982 206.747,302.051 206.594,302.103C206.501,302.135 206.407,302.154 206.311,302.173C205.364,302.358 204.41,302.477 203.456,302.613C202.029,302.817 200.594,302.959 199.171,303.195C196.845,303.581 194.551,304.105 192.242,304.589C191.254,304.796 190.267,305.005 189.277,305.204C186.92,305.679 184.559,306.139 182.2,306.608C178.652,307.314 175.107,308.033 171.549,308.66C170.359,308.869 169.167,309.062 167.973,309.238C167.907,309.247 167.832,309.297 167.773,309.265C166.856,308.761 167.878,309.496 167.443,308.543C167.398,308.551 167.354,308.52 167.346,308.474C167.338,308.429 167.369,308.385 167.415,308.377Z" style="fill:#9d5406;"/>
                </g>
                <g transform="matrix(0.786079,0,0,0.786079,38.393,70.1875)">
                    <path d="M175.768,305.167C186.6,303.288 197.445,301.636 208.345,300.902C213.705,300.722 214.684,300.206 214.791,299.622C201.809,299.517 189.247,301.515 175.929,303.453C175.945,303.955 175.887,304.53 175.768,305.167Z" style="fill:#d7961b;"/>
                </g>
                <g transform="matrix(0.786079,0,0,0.786079,32.913,78.1372)">
                    <path d="M185.987,302.806C185.928,303.29 185.746,303.89 185.387,304.375C188.865,303.296 200.767,302.038 207.465,301.462C212.713,301.01 214.684,300.206 214.791,299.622C204.978,299.542 185.987,302.806 185.987,302.806Z" style="fill:#d7961b;"/>
                </g>
                <g transform="matrix(0.786079,0,0,0.786079,38.393,70.1875)">
                    <path d="M175.768,322.909L198.904,320.003C200.06,319.879 200.918,319.515 201.434,318.878L176.127,322.034C176.075,322.299 175.956,322.59 175.768,322.909Z" style="fill:#d7961b;"/>
                </g>
                <g transform="matrix(0.729736,-0.0272715,0.0262923,0.703533,41.004,101.254)">
                    <path d="M201.08,317.453C193.512,317.683 180.572,319.295 180.093,318.578L180.087,318.569C185.733,317.246 191.972,315.597 196.367,314.678C198.701,314.19 200.65,314.003 201.985,314.212C203.076,314.382 203.381,315.28 203.365,315.786C203.331,316.889 202.183,317.419 201.08,317.453Z" style="fill:#ffc04a;"/>
                </g>
                <g transform="matrix(0.786079,0,0,0.786079,38.393,70.1875)">
                    <path d="M206.845,307.675C200.549,306.725 182.75,308.451 179.739,309.083C187.096,307.61 193.673,305.751 198.867,304.621C202.787,303.768 205.986,303.347 208.232,303.667C209.325,303.823 210.085,304.836 209.93,305.929C209.774,307.022 209.158,308.024 206.845,307.675Z" style="fill:#ffc04a;"/>
                </g>
                <g transform="matrix(0.786079,0,0,0.786079,38.393,70.1875)">
                    <path d="M174.98,298.508C186.094,296.277 207.744,295.885 216.446,296.918C217.542,297.049 218.538,296.264 218.668,295.168C218.798,294.072 218.014,293.076 216.918,292.946C207.945,291.881 190.407,295.324 174.98,298.508Z" style="fill:#ffc04a;"/>
                </g>
            </g>
            <g>
                <g transform="matrix(0.786079,0,0,0.786079,38.393,70.1875)">
                    <path d="M59.401,294.027C64.323,295.377 69.246,296.589 74.161,297.661L80.587,309.44C74.686,308.28 68.898,307.042 63.219,305.67L59.401,294.027ZM43.139,289.058C46.483,290.186 49.837,291.25 53.193,292.251L57.087,304.124C53.739,303.242 50.428,302.306 47.155,301.302L43.139,289.058ZM27.802,283.42C30.789,284.611 33.784,285.749 36.785,286.837L40.864,299.274C37.855,298.254 34.878,297.169 31.931,296.01L27.802,283.42ZM13.784,277.422C16.28,278.564 18.785,279.67 21.298,280.74L25.418,293.301C22.863,292.179 20.332,290.993 17.824,289.738L13.784,277.422ZM0.853,271.132C2.937,272.206 5.028,273.255 7.128,274.278L11.013,286.123C8.823,284.892 6.652,283.601 4.499,282.246L0.853,271.132Z" style="fill:#ffae15;"/>
                </g>
                <g transform="matrix(0.786079,0,0,0.786079,38.393,70.1875)">
                    <path d="M75.494,305.764L72.63,299.74L62.953,297.403L75.494,305.764Z" style="fill:#ffc04a;"/>
                </g>
                <g transform="matrix(0.786079,0,0,0.786079,38.393,70.1875)">
                    <path d="M53.369,300.658L51.517,293.972L46.683,292.532L53.369,300.658Z" style="fill:#ffc04a;"/>
                </g>
                <g transform="matrix(0.786079,0,0,0.786079,38.393,70.1875)">
                    <path d="M37.759,295.841L35.652,289.516L32.196,288.567L37.759,295.841Z" style="fill:#ffc04a;"/>
                </g>
                <g transform="matrix(0.786079,0,0,0.786079,38.393,70.1875)">
                    <path d="M22.144,289.516L20.086,283.243L18.029,282.173L22.144,289.516Z" style="fill:#ffc04a;"/>
                </g>
                <g transform="matrix(0.786079,0,0,0.786079,38.393,70.1875)">
                    <path d="M8.188,282.494L5.686,275.351L4.369,274.693L8.188,282.494Z" style="fill:#ffc04a;"/>
                </g>
                <g transform="matrix(0.786079,0,0,0.786079,38.393,70.1875)">
                    <path d="M63.66,301.584L64.469,304.225L69.807,305.579L63.66,301.584Z" style="fill:#d7961b;"/>
                </g>
                <g transform="matrix(0.786079,0,0,0.786079,38.393,70.1875)">
                    <path d="M47.639,297.426L48.482,299.912L51.031,300.67L47.639,297.426Z" style="fill:#d7961b;"/>
                </g>
                <g transform="matrix(0.786079,0,0,0.786079,38.393,70.1875)">
                    <path d="M32.651,293.159L33.204,294.818L34.81,295.503L32.651,293.159Z" style="fill:#d7961b;"/>
                </g>
                <g transform="matrix(0.786079,0,0,0.786079,38.393,70.1875)">
                    <path d="M18.678,287.266L19.126,288.688L20.311,289.188L18.678,287.266Z" style="fill:#d7961b;"/>
                </g>
                <g transform="matrix(0.786079,0,0,0.786079,38.393,70.1875)">
                    <path d="M5.403,280.25L5.74,281.261L6.582,281.935L5.403,280.25Z" style="fill:#d7961b;"/>
                </g>
                <g transform="matrix(0.786079,0,0,0.786079,38.393,70.1875)">
                    <path d="M59.665,293.063C59.31,292.965 58.93,293.071 58.676,293.338C58.423,293.604 58.336,293.989 58.451,294.339L62.269,305.982C62.377,306.311 62.648,306.561 62.985,306.642C68.677,308.017 74.479,309.259 80.394,310.421C80.774,310.496 81.164,310.344 81.393,310.032C81.623,309.719 81.65,309.302 81.465,308.961L75.039,297.183C74.9,296.928 74.658,296.746 74.375,296.684C69.476,295.615 64.57,294.408 59.665,293.063ZM60.929,295.477C65.122,296.598 69.315,297.62 73.502,298.541C73.502,298.541 78.685,308.043 78.685,308.043C73.709,307.044 68.813,305.983 63.996,304.829C63.996,304.829 60.929,295.477 60.929,295.477L60.929,295.477ZM43.458,288.111C43.1,287.99 42.704,288.082 42.435,288.348C42.166,288.615 42.071,289.01 42.189,289.37L46.204,301.614C46.306,301.923 46.551,302.163 46.862,302.258C50.148,303.266 53.471,304.206 56.832,305.091C57.187,305.185 57.564,305.077 57.815,304.81C58.066,304.543 58.151,304.161 58.037,303.813L54.143,291.939C54.041,291.628 53.793,291.386 53.479,291.292C50.134,290.295 46.792,289.234 43.458,288.111ZM44.709,290.636C47.271,291.481 49.837,292.289 52.406,293.059C52.406,293.059 55.562,302.682 55.562,302.682C53,301.99 50.461,301.263 47.943,300.498C47.943,300.498 44.709,290.636 44.709,290.636L44.709,290.636ZM28.173,282.491C27.812,282.347 27.401,282.425 27.118,282.691C26.835,282.957 26.731,283.363 26.852,283.732L30.981,296.321C31.074,296.604 31.288,296.831 31.565,296.94C34.527,298.105 37.519,299.196 40.543,300.221C40.902,300.343 41.299,300.251 41.568,299.985C41.837,299.718 41.932,299.322 41.814,298.962L37.735,286.525C37.639,286.233 37.415,286.001 37.126,285.896C34.134,284.813 31.15,283.678 28.173,282.491ZM29.417,285.132C31.603,285.986 33.793,286.812 35.987,287.611C35.986,287.61 39.287,297.673 39.287,297.673C37.086,296.903 34.902,296.097 32.735,295.251C32.735,295.25 29.416,285.132 29.416,285.132L29.417,285.132ZM14.201,276.513C13.839,276.347 13.414,276.411 13.118,276.676C12.822,276.941 12.71,277.356 12.834,277.734L16.874,290.05C16.957,290.303 17.138,290.513 17.376,290.633C19.9,291.895 22.446,293.087 25.016,294.216C25.377,294.375 25.798,294.306 26.09,294.041C26.382,293.776 26.491,293.364 26.368,292.989L22.248,280.428C22.159,280.155 21.955,279.933 21.69,279.82C19.185,278.754 16.688,277.651 14.201,276.513ZM15.444,279.272C17.122,280.025 18.804,280.762 20.489,281.482C20.489,281.482 23.763,291.466 23.763,291.466C22.047,290.684 20.341,289.873 18.644,289.03C18.644,289.03 15.444,279.272 15.444,279.272L15.444,279.272ZM1.312,270.243C0.951,270.057 0.514,270.108 0.205,270.371C-0.104,270.634 -0.223,271.058 -0.097,271.444L3.548,282.558C3.621,282.779 3.769,282.968 3.966,283.093C6.133,284.456 8.319,285.755 10.523,286.995C10.882,287.197 11.329,287.158 11.648,286.896C11.966,286.634 12.092,286.203 11.963,285.811L8.078,273.966C7.994,273.709 7.809,273.497 7.566,273.379C5.473,272.359 3.388,271.314 1.312,270.243ZM2.561,273.127C3.808,273.758 5.057,274.379 6.31,274.991C6.309,274.991 9.251,283.96 9.251,283.96C7.94,283.193 6.635,282.404 5.336,281.591C5.336,281.591 2.56,273.127 2.56,273.127L2.561,273.127Z" style="fill:#9d5406;"/>
                </g>
            </g>
            <g transform="matrix(-1,0,0,1,312.495,0)">
                <g transform="matrix(0.786079,0,0,0.786079,38.393,70.1875)">
                    <path d="M59.401,294.027C64.323,295.377 69.246,296.589 74.161,297.661L80.587,309.44C74.686,308.28 68.898,307.042 63.219,305.67L59.401,294.027ZM43.139,289.058C46.483,290.186 49.837,291.25 53.193,292.251L57.087,304.124C53.739,303.242 50.428,302.306 47.155,301.302L43.139,289.058ZM27.802,283.42C30.789,284.611 33.784,285.749 36.785,286.837L40.864,299.274C37.855,298.254 34.878,297.169 31.931,296.01L27.802,283.42ZM13.784,277.422C16.28,278.564 18.785,279.67 21.298,280.74L25.418,293.301C22.863,292.179 20.332,290.993 17.824,289.738L13.784,277.422ZM0.853,271.132C2.937,272.206 5.028,273.255 7.128,274.278L11.013,286.123C8.823,284.892 6.652,283.601 4.499,282.246L0.853,271.132Z" style="fill:#ffae15;"/>
                </g>
                <g transform="matrix(0.786079,0,0,0.786079,38.393,70.1875)">
                    <path d="M75.494,305.764L72.63,299.74L62.953,297.403L75.494,305.764Z" style="fill:#ffc04a;"/>
                </g>
                <g transform="matrix(0.786079,0,0,0.786079,38.393,70.1875)">
                    <path d="M53.369,300.658L51.517,293.972L46.683,292.532L53.369,300.658Z" style="fill:#ffc04a;"/>
                </g>
                <g transform="matrix(0.786079,0,0,0.786079,38.393,70.1875)">
                    <path d="M37.759,295.841L35.652,289.516L32.196,288.567L37.759,295.841Z" style="fill:#ffc04a;"/>
                </g>
                <g transform="matrix(0.786079,0,0,0.786079,38.393,70.1875)">
                    <path d="M22.144,289.516L20.086,283.243L18.029,282.173L22.144,289.516Z" style="fill:#ffc04a;"/>
                </g>
                <g transform="matrix(0.786079,0,0,0.786079,38.393,70.1875)">
                    <path d="M8.188,282.494L5.686,275.351L4.369,274.693L8.188,282.494Z" style="fill:#ffc04a;"/>
                </g>
                <g transform="matrix(0.786079,0,0,0.786079,38.393,70.1875)">
                    <path d="M63.66,301.584L64.469,304.225L69.807,305.579L63.66,301.584Z" style="fill:#d7961b;"/>
                </g>
                <g transform="matrix(0.786079,0,0,0.786079,38.393,70.1875)">
                    <path d="M47.639,297.426L48.482,299.912L51.031,300.67L47.639,297.426Z" style="fill:#d7961b;"/>
                </g>
                <g transform="matrix(0.786079,0,0,0.786079,38.393,70.1875)">
                    <path d="M32.651,293.159L33.204,294.818L34.81,295.503L32.651,293.159Z" style="fill:#d7961b;"/>
                </g>
                <g transform="matrix(0.786079,0,0,0.786079,38.393,70.1875)">
                    <path d="M18.678,287.266L19.126,288.688L20.311,289.188L18.678,287.266Z" style="fill:#d7961b;"/>
                </g>
                <g transform="matrix(0.786079,0,0,0.786079,38.393,70.1875)">
                    <path d="M5.403,280.25L5.74,281.261L6.582,281.935L5.403,280.25Z" style="fill:#d7961b;"/>
                </g>
                <g transform="matrix(0.786079,0,0,0.786079,38.393,70.1875)">
                    <path d="M59.665,293.063C59.31,292.965 58.93,293.071 58.676,293.338C58.423,293.604 58.336,293.989 58.451,294.339L62.269,305.982C62.377,306.311 62.648,306.561 62.985,306.642C68.677,308.017 74.479,309.259 80.394,310.421C80.774,310.496 81.164,310.344 81.393,310.032C81.623,309.719 81.65,309.302 81.465,308.961L75.039,297.183C74.9,296.928 74.658,296.746 74.375,296.684C69.476,295.615 64.57,294.408 59.665,293.063ZM60.929,295.477C65.122,296.598 69.315,297.62 73.502,298.541C73.502,298.541 78.685,308.043 78.685,308.043C73.709,307.044 68.813,305.983 63.996,304.829C63.996,304.829 60.929,295.477 60.929,295.477L60.929,295.477ZM43.458,288.111C43.1,287.99 42.704,288.082 42.435,288.348C42.166,288.615 42.071,289.01 42.189,289.37L46.204,301.614C46.306,301.923 46.551,302.163 46.862,302.258C50.148,303.266 53.471,304.206 56.832,305.091C57.187,305.185 57.564,305.077 57.815,304.81C58.066,304.543 58.151,304.161 58.037,303.813L54.143,291.939C54.041,291.628 53.793,291.386 53.479,291.292C50.134,290.295 46.792,289.234 43.458,288.111ZM44.709,290.636C47.271,291.481 49.837,292.289 52.406,293.059C52.406,293.059 55.562,302.682 55.562,302.682C53,301.99 50.461,301.263 47.943,300.498C47.943,300.498 44.709,290.636 44.709,290.636L44.709,290.636ZM28.173,282.491C27.812,282.347 27.401,282.425 27.118,282.691C26.835,282.957 26.731,283.363 26.852,283.732L30.981,296.321C31.074,296.604 31.288,296.831 31.565,296.94C34.527,298.105 37.519,299.196 40.543,300.221C40.902,300.343 41.299,300.251 41.568,299.985C41.837,299.718 41.932,299.322 41.814,298.962L37.735,286.525C37.639,286.233 37.415,286.001 37.126,285.896C34.134,284.813 31.15,283.678 28.173,282.491ZM29.417,285.132C31.603,285.986 33.793,286.812 35.987,287.611C35.986,287.61 39.287,297.673 39.287,297.673C37.086,296.903 34.902,296.097 32.735,295.251C32.735,295.25 29.416,285.132 29.416,285.132L29.417,285.132ZM14.201,276.513C13.839,276.347 13.414,276.411 13.118,276.676C12.822,276.941 12.71,277.356 12.834,277.734L16.874,290.05C16.957,290.303 17.138,290.513 17.376,290.633C19.9,291.895 22.446,293.087 25.016,294.216C25.377,294.375 25.798,294.306 26.09,294.041C26.382,293.776 26.491,293.364 26.368,292.989L22.248,280.428C22.159,280.155 21.955,279.933 21.69,279.82C19.185,278.754 16.688,277.651 14.201,276.513ZM15.444,279.272C17.122,280.025 18.804,280.762 20.489,281.482C20.489,281.482 23.763,291.466 23.763,291.466C22.047,290.684 20.341,289.873 18.644,289.03C18.644,289.03 15.444,279.272 15.444,279.272L15.444,279.272ZM1.312,270.243C0.951,270.057 0.514,270.108 0.205,270.371C-0.104,270.634 -0.223,271.058 -0.097,271.444L3.548,282.558C3.621,282.779 3.769,282.968 3.966,283.093C6.133,284.456 8.319,285.755 10.523,286.995C10.882,287.197 11.329,287.158 11.648,286.896C11.966,286.634 12.092,286.203 11.963,285.811L8.078,273.966C7.994,273.709 7.809,273.497 7.566,273.379C5.473,272.359 3.388,271.314 1.312,270.243ZM2.561,273.127C3.808,273.758 5.057,274.379 6.31,274.991C6.309,274.991 9.251,283.96 9.251,283.96C7.94,283.193 6.635,282.404 5.336,281.591C5.336,281.591 2.56,273.127 2.56,273.127L2.561,273.127Z" style="fill:#9d5406;"/>
                </g>
            </g>
            <g transform="matrix(0.912927,0,0,0.912927,19.3659,30.5257)">
                <g transform="matrix(0.748493,0,0,0.748493,37.3096,78.5973)">
                    <circle cx="150.556" cy="313.514" r="24.479" style="fill:#ffae15;"/>
                </g>
                <path d="M144.805,300.719C142.886,300.584 140.921,301.25 139.455,302.715C136.771,305.4 136.771,309.759 139.455,312.444L140.272,313.26L139.455,314.077C136.771,316.762 136.771,321.121 139.455,323.805C140.921,325.271 142.886,325.936 144.805,325.802C146.067,327.254 147.927,328.173 150,328.173C152.073,328.173 153.933,327.254 155.195,325.802C157.114,325.936 159.079,325.271 160.545,323.805C163.229,321.121 163.229,316.762 160.545,314.077L159.728,313.26L160.545,312.444C163.229,309.759 163.229,305.4 160.545,302.715C159.079,301.25 157.114,300.584 155.195,300.719C153.933,299.267 152.073,298.348 150,298.348C147.927,298.348 146.067,299.267 144.805,300.719ZM150,322.988L149.183,323.805C148.274,324.714 147.173,325.316 146.009,325.609C147.058,326.58 148.46,327.173 150,327.173C151.54,327.173 152.942,326.58 153.991,325.609C152.827,325.316 151.726,324.714 150.817,323.805L150,322.988ZM140.979,313.967L140.162,314.784C137.868,317.079 137.868,320.804 140.162,323.098C141.251,324.187 142.662,324.759 144.09,324.814C143.475,323.784 143.121,322.58 143.121,321.294L143.121,316.11L140.979,313.967ZM159.021,313.967L156.879,316.11L156.879,321.294C156.879,322.58 156.525,323.784 155.91,324.814C157.338,324.759 158.749,324.187 159.838,323.098C162.132,320.804 162.132,317.079 159.838,314.784L159.021,313.967ZM144.121,317.11L149.293,322.281L148.476,323.098C147.564,324.01 146.427,324.559 145.242,324.746C144.537,323.777 144.121,322.584 144.121,321.294L144.121,317.11ZM155.879,317.11L155.879,321.294C155.879,322.584 155.463,323.777 154.758,324.746C153.573,324.559 152.436,324.01 151.524,323.098L150.707,322.281L155.879,317.11ZM144.121,310.825L144.121,315.695L150,321.574L155.879,315.695L155.879,310.825L150,304.946L144.121,310.825ZM141.686,313.26L143.121,314.695L143.121,311.825L141.686,313.26ZM156.879,314.695L158.314,313.26L156.879,311.825L156.879,314.695ZM155.91,301.706C156.525,302.737 156.879,303.941 156.879,305.226L156.879,310.411L159.021,312.553L159.838,311.736C162.132,309.442 162.132,305.717 159.838,303.423C158.749,302.334 157.338,301.762 155.91,301.706ZM144.09,301.706C142.662,301.762 141.251,302.334 140.162,303.423C137.868,305.717 137.868,309.442 140.162,311.736L140.979,312.553L143.121,310.411L143.121,305.226C143.121,303.941 143.475,302.737 144.09,301.706ZM154.758,301.774C155.463,302.744 155.879,303.937 155.879,305.226L155.879,309.411L150.707,304.239L151.524,303.423C152.436,302.511 153.573,301.961 154.758,301.774ZM145.242,301.774C146.427,301.961 147.564,302.511 148.476,303.423L149.293,304.239L144.121,309.411L144.121,305.226C144.121,303.937 144.537,302.744 145.242,301.774ZM153.991,300.912C152.942,299.941 151.54,299.348 150,299.348C148.46,299.348 147.058,299.941 146.009,300.912C147.173,301.205 148.274,301.806 149.183,302.715L150,303.532L150.817,302.715C151.726,301.806 152.827,301.205 153.991,300.912Z" style="fill:#9d5406;"/>
                <path d="M144.593,300.207C142.614,300.134 140.611,300.853 139.102,302.362C136.222,305.242 136.222,309.917 139.102,312.797C139.102,312.797 139.565,313.26 139.565,313.26C139.565,313.26 139.102,313.724 139.102,313.724C136.222,316.603 136.222,321.279 139.102,324.159C140.611,325.668 142.614,326.387 144.594,326.314C145.941,327.765 147.865,328.673 150,328.673C152.135,328.673 154.059,327.765 155.407,326.313C157.386,326.387 159.389,325.668 160.898,324.159C163.778,321.279 163.778,316.603 160.898,313.724C160.898,313.724 160.435,313.26 160.435,313.26C160.435,313.26 160.898,312.797 160.898,312.797C163.778,309.917 163.778,305.242 160.898,302.362C159.389,300.852 157.386,300.134 155.406,300.207C154.059,298.756 152.135,297.848 150,297.848C147.865,297.848 145.941,298.756 144.593,300.207ZM144.805,300.719C142.886,300.584 140.921,301.25 139.455,302.715C136.771,305.4 136.771,309.759 139.455,312.444L140.272,313.26L139.455,314.077C136.771,316.762 136.771,321.121 139.455,323.805C140.921,325.271 142.886,325.936 144.805,325.802C146.067,327.254 147.927,328.173 150,328.173C152.073,328.173 153.933,327.254 155.195,325.802C157.114,325.936 159.079,325.271 160.545,323.805C163.229,321.121 163.229,316.762 160.545,314.077L159.728,313.26L160.545,312.444C163.229,309.759 163.229,305.4 160.545,302.715C159.079,301.25 157.114,300.584 155.195,300.719C153.933,299.267 152.073,298.348 150,298.348C147.927,298.348 146.067,299.267 144.805,300.719ZM150,322.988L149.183,323.805C148.274,324.714 147.173,325.316 146.009,325.609C147.058,326.58 148.46,327.173 150,327.173C151.54,327.173 152.942,326.58 153.991,325.609C152.827,325.316 151.726,324.714 150.817,323.805L150,322.988ZM150,323.696L150.463,324.159C151.194,324.89 152.041,325.435 152.944,325.795C152.099,326.35 151.087,326.673 150,326.673C148.913,326.673 147.901,326.35 147.055,325.795C147.959,325.435 148.806,324.89 149.537,324.159L150,323.696ZM140.979,313.967L140.162,314.784C137.868,317.079 137.868,320.804 140.162,323.098C141.251,324.187 142.662,324.759 144.09,324.814C143.475,323.784 143.121,322.58 143.121,321.294L143.121,316.11L140.979,313.967ZM159.021,313.967L156.879,316.11L156.879,321.294C156.879,322.58 156.525,323.784 155.91,324.814C157.338,324.759 158.749,324.187 159.838,323.098C162.132,320.804 162.132,317.079 159.838,314.784L159.021,313.967ZM144.121,317.11L149.293,322.281L148.476,323.098C147.564,324.01 146.427,324.559 145.242,324.746C144.537,323.777 144.121,322.584 144.121,321.294L144.121,317.11ZM155.879,317.11L155.879,321.294C155.879,322.584 155.463,323.777 154.758,324.746C153.573,324.559 152.436,324.01 151.524,323.098L150.707,322.281L155.879,317.11ZM159.021,314.675L159.484,315.138C161.583,317.237 161.583,320.645 159.484,322.745C158.716,323.513 157.772,324 156.781,324.206C157.166,323.312 157.379,322.328 157.379,321.294L157.379,316.317L159.021,314.675ZM140.979,314.675L142.621,316.317C142.621,316.317 142.621,321.294 142.621,321.294C142.621,322.328 142.834,323.312 143.219,324.206C142.228,324 141.284,323.513 140.516,322.745C138.417,320.645 138.417,317.237 140.516,315.138L140.979,314.675ZM144.621,318.317L148.586,322.281C148.586,322.281 148.123,322.745 148.123,322.745C147.368,323.5 146.443,323.983 145.471,324.195C144.933,323.358 144.621,322.362 144.621,321.294L144.621,318.317ZM155.379,318.317L155.379,321.294C155.379,322.362 155.067,323.358 154.529,324.195C153.557,323.983 152.632,323.5 151.877,322.745C151.877,322.745 151.414,322.281 151.414,322.281L155.379,318.317ZM144.121,310.825L144.121,315.695L150,321.574L155.879,315.695L155.879,310.825L150,304.946L144.121,310.825ZM144.621,311.032L150,305.654C150,305.654 155.379,311.032 155.379,311.032C155.379,311.032 155.379,315.488 155.379,315.488C155.379,315.488 150,320.867 150,320.867C150,320.867 144.621,315.488 144.621,315.488L144.621,311.032ZM141.686,313.26L143.121,314.695L143.121,311.825L141.686,313.26ZM156.879,314.695L158.314,313.26L156.879,311.825L156.879,314.695ZM157.379,313.488L157.379,313.032C157.379,313.032 157.607,313.26 157.607,313.26L157.379,313.488ZM142.393,313.26L142.621,313.032C142.621,313.032 142.621,313.488 142.621,313.488L142.393,313.26ZM155.91,301.706C156.525,302.737 156.879,303.941 156.879,305.226L156.879,310.411L159.021,312.553L159.838,311.736C162.132,309.442 162.132,305.717 159.838,303.423C158.749,302.334 157.338,301.762 155.91,301.706ZM144.09,301.706C142.662,301.762 141.251,302.334 140.162,303.423C137.868,305.717 137.868,309.442 140.162,311.736L140.979,312.553L143.121,310.411L143.121,305.226C143.121,303.941 143.475,302.737 144.09,301.706ZM143.219,302.315C142.834,303.209 142.621,304.193 142.621,305.226C142.621,305.226 142.621,310.204 142.621,310.204C142.621,310.204 140.979,311.846 140.979,311.846C140.979,311.846 140.516,311.383 140.516,311.383C138.417,309.284 138.417,305.875 140.516,303.776C141.284,303.008 142.228,302.521 143.219,302.315L143.219,302.315ZM156.781,302.315C157.772,302.521 158.716,303.008 159.484,303.776C161.583,305.875 161.583,309.284 159.484,311.383C159.484,311.383 159.021,311.846 159.021,311.846C159.021,311.846 157.379,310.204 157.379,310.204C157.379,310.204 157.379,305.226 157.379,305.226C157.379,304.193 157.166,303.209 156.781,302.315L156.781,302.315ZM154.758,301.774C155.463,302.744 155.879,303.937 155.879,305.226L155.879,309.411L150.707,304.239L151.524,303.423C152.436,302.511 153.573,301.961 154.758,301.774ZM145.242,301.774C146.427,301.961 147.564,302.511 148.476,303.423L149.293,304.239L144.121,309.411L144.121,305.226C144.121,303.937 144.537,302.744 145.242,301.774ZM154.529,302.326C155.067,303.163 155.379,304.159 155.379,305.226C155.379,305.226 155.379,308.204 155.379,308.204C155.379,308.204 151.414,304.239 151.414,304.239C151.414,304.239 151.877,303.776 151.877,303.776C152.632,303.021 153.557,302.538 154.529,302.326L154.529,302.326ZM145.471,302.326C146.443,302.538 147.368,303.021 148.123,303.776C148.123,303.776 148.586,304.239 148.586,304.239C148.586,304.239 144.621,308.204 144.621,308.204C144.621,308.204 144.621,305.226 144.621,305.226C144.621,304.159 144.933,303.163 145.471,302.326L145.471,302.326ZM153.991,300.912C152.942,299.941 151.54,299.348 150,299.348C148.46,299.348 147.058,299.941 146.009,300.912C147.173,301.205 148.274,301.806 149.183,302.715L150,303.532L150.817,302.715C151.726,301.806 152.827,301.205 153.991,300.912ZM152.944,300.726C152.041,301.086 151.194,301.631 150.463,302.362C150.463,302.362 150,302.825 150,302.825C150,302.825 149.537,302.362 149.537,302.362C148.806,301.631 147.959,301.086 147.056,300.726C147.901,300.171 148.913,299.848 150,299.848C151.087,299.848 152.099,300.171 152.945,300.726L152.944,300.726Z" style="fill:#7f501e;"/>
                <g transform="matrix(1,0,0,1,-0.611217,-0.890714)">
                    <circle cx="150.611" cy="314.151" r="2.991" style="fill:#5196bb;"/>
                </g>
                <g transform="matrix(0.607544,0,0,0.607544,58.8574,122.132)">
                    <circle cx="150.611" cy="314.151" r="2.991" style="fill:#87bad5;"/>
                </g>
                <g transform="matrix(0.424916,0,0,0.424916,86.6538,179.277)">
                    <circle cx="150.611" cy="314.151" r="2.991" style="fill:#a3dbf9;"/>
                </g>
                <g transform="matrix(1,0,0,1,-0.611217,-0.890714)">
                    <path d="M150.611,310.16C152.814,310.16 154.602,311.948 154.602,314.151C154.602,316.354 152.814,318.142 150.611,318.142C148.408,318.142 146.62,316.354 146.62,314.151C146.62,311.948 148.408,310.16 150.611,310.16ZM150.611,311.16C152.262,311.16 153.602,312.5 153.602,314.151C153.602,315.802 152.262,317.142 150.611,317.142C148.96,317.142 147.62,315.802 147.62,314.151C147.62,312.5 148.96,311.16 150.611,311.16Z" style="fill:#9d5406;"/>
                </g>
                <g transform="matrix(1,0,0,1,-0.611217,-0.890714)">
                    <path d="M150.611,309.66C148.132,309.66 146.12,311.672 146.12,314.151C146.12,316.63 148.132,318.642 150.611,318.642C153.09,318.642 155.102,316.63 155.102,314.151C155.102,311.672 153.09,309.66 150.611,309.66ZM150.611,310.16C152.814,310.16 154.602,311.948 154.602,314.151C154.602,316.354 152.814,318.142 150.611,318.142C148.408,318.142 146.62,316.354 146.62,314.151C146.62,311.948 148.408,310.16 150.611,310.16ZM150.611,311.16C152.262,311.16 153.602,312.5 153.602,314.151C153.602,315.802 152.262,317.142 150.611,317.142C148.96,317.142 147.62,315.802 147.62,314.151C147.62,312.5 148.96,311.16 150.611,311.16ZM150.611,311.66C151.986,311.66 153.102,312.776 153.102,314.151C153.102,315.526 151.986,316.642 150.611,316.642C149.236,316.642 148.12,315.526 148.12,314.151C148.12,312.776 149.236,311.66 150.611,311.66Z" style="fill:#7f501e;"/>
                </g>
                <g transform="matrix(0.748493,0,0,0.748493,37.3096,78.5973)">
                    <path d="M150.556,289.035C164.067,289.035 175.036,300.004 175.036,313.514C175.036,327.025 164.067,337.994 150.556,337.994C137.046,337.994 126.077,327.025 126.077,313.514C126.077,300.004 137.046,289.035 150.556,289.035ZM150.556,291.707C162.592,291.707 172.364,301.478 172.364,313.514C172.364,325.55 162.592,335.321 150.556,335.321C138.521,335.321 128.749,325.55 128.749,313.514C128.749,301.478 138.521,291.707 150.556,291.707Z" style="fill:#9d5406;"/>
                </g>
                <g transform="matrix(0.748493,0,0,0.748493,37.3096,78.5973)">
                    <path d="M150.556,291.039C138.152,291.039 128.081,301.11 128.081,313.514C128.081,325.919 138.152,335.99 150.556,335.99C162.961,335.99 173.032,325.919 173.032,313.514C173.032,301.11 162.961,291.039 150.556,291.039ZM150.556,292.375C162.224,292.375 171.696,301.847 171.696,313.514C171.696,325.181 162.224,334.653 150.556,334.653C138.889,334.653 129.417,325.181 129.417,313.514C129.417,301.847 138.889,292.375 150.556,292.375Z" style="fill:#7f501e;"/>
                </g>
                <path d="M163.887,301.312C164.176,301.648 164.454,301.995 164.719,302.352C164.881,302.57 165.039,302.793 165.192,303.019L165.611,303.668L165.668,303.762C166.307,304.813 166.843,305.932 167.262,307.108L150.556,331.575C150.411,331.579 150.265,331.582 150.118,331.583L149.882,331.583C147.794,331.569 145.79,331.206 143.923,330.549L163.887,301.312ZM150.546,294.946C154.92,295.074 158.912,296.739 162,299.419L141.474,329.48C140.405,328.916 139.397,328.249 138.466,327.493C137.751,326.913 137.081,326.28 136.461,325.601C136.173,325.285 135.895,324.959 135.63,324.623C135.518,324.482 135.409,324.34 135.301,324.196C134.44,323.04 133.712,321.78 133.139,320.438L150.546,294.946Z" style="fill:#ffdfa3;fill-opacity:0.2;"/>
            </g>
        </g>
    </g>
</svg>
