<?xml version="1.0" encoding="UTF-8" standalone="no"?>
<!DOCTYPE svg PUBLIC "-//W3C//DTD SVG 1.1//EN" "http://www.w3.org/Graphics/SVG/1.1/DTD/svg11.dtd">
<svg width="100%" height="100%" viewBox="0 0 300 345" version="1.1" xmlns="http://www.w3.org/2000/svg" xmlns:xlink="http://www.w3.org/1999/xlink" xml:space="preserve" xmlns:serif="http://www.serif.com/" style="fill-rule:evenodd;clip-rule:evenodd;stroke-linejoin:round;stroke-miterlimit:2;">
    <g id="avatar_clothing_42">
        <path d="M300,275.71L300,308.62C300,328.577 283.577,345 263.62,345L36.38,345C16.423,345 -0,328.577 -0,308.62L-0,279.071C8.19,294.172 20.722,301.235 36.349,302.563L258.671,302.563C281.145,301.473 295.431,292.982 300,275.71Z" style="fill:#bc0010;fill-rule:nonzero;"/>
        <path d="M91.265,345L91.265,324.524L74.429,308.342L36.38,307.952C25.626,307.952 15.714,304.043 8,297.58L8,297.759C4.845,294.172 2.517,291.451 -0,285.901L-0,262.01C-0,281.967 16.423,298.39 36.38,298.39L147.143,298.39L147.143,298.38L155.221,298.38L155.221,298.39L263.62,298.39C283.577,298.39 300,281.967 300,262.01L300,286.373C297.483,291.923 295.155,294.644 292,298.231L292,298.051C284.286,304.515 274.374,308.424 263.62,308.424L225.571,308.424L208.579,324.524L208.579,345L91.265,345Z" style="fill:#74010b;"/>
        <path d="M89.087,326.214C89.087,326.214 72.806,310.39 72.806,310.39C72.806,310.39 36.38,310.39 36.38,310.39C25.085,310.39 14.64,306.44 6.371,299.85C5.851,299.619 5.381,299.276 4.997,298.839C3.177,296.771 1.618,294.965 0.146,292.821C0.097,292.75 0,292.607 0,292.607L-0,284.34C0.043,284.435 0.086,284.529 0.129,284.622C2.597,289.983 8,296.018 8,296.018C8.454,296.398 8.916,296.77 9.386,297.132C9.386,297.132 10.502,297.975 11.178,298.446C18.353,303.448 27.05,306.39 36.38,306.39L74.429,306.39L93.087,324.524L93.087,345L89.087,345L89.087,326.214ZM210.913,345L206.913,345L206.913,324.524L225.571,306.39L263.62,306.39C272.95,306.39 281.647,303.448 288.822,298.446C289.695,297.838 290.614,297.132 290.614,297.132C291.084,296.77 291.546,296.398 292,296.018C292,296.018 297.297,290.098 299.868,284.625C299.913,284.53 299.957,284.435 300,284.34L300,292.607C300,292.607 299.915,292.733 299.872,292.796C298.395,294.951 296.83,296.763 295.003,298.839C294.619,299.276 294.149,299.619 293.629,299.85C285.36,306.44 274.915,310.39 263.62,310.39C263.62,310.39 227.194,310.39 227.194,310.39C227.194,310.39 210.913,326.214 210.913,326.214L210.913,345Z" style="fill:#490006;"/>
        <g transform="matrix(1,0,0,1,-1.42818,-0.791893)">
            <g transform="matrix(0.76426,0,0,0.863826,35.4104,43.9145)">
                <ellipse cx="151.804" cy="322.487" rx="38.773" ry="16.668" style="fill:#fff;"/>
            </g>
            <g transform="matrix(0.76426,0,0,0.863826,35.4104,43.9145)">
                <path d="M151.804,304.662C138.664,304.662 127.016,307.446 119.793,311.681C114.655,314.693 111.723,318.469 111.723,322.487C111.723,326.505 114.655,330.281 119.793,333.293C127.016,337.528 138.664,340.312 151.804,340.312C164.944,340.312 176.592,337.528 183.815,333.293C188.953,330.281 191.885,326.505 191.885,322.487C191.885,318.469 188.953,314.693 183.815,311.681C176.592,307.446 164.944,304.662 151.804,304.662ZM151.804,306.977C164.343,306.977 175.476,309.57 182.369,313.611C186.642,316.116 189.269,319.145 189.269,322.487C189.269,325.829 186.642,328.858 182.369,331.363C175.476,335.404 164.343,337.997 151.804,337.997C139.265,337.997 128.132,335.404 121.239,331.363C116.966,328.858 114.339,325.829 114.339,322.487C114.339,319.145 116.966,316.116 121.239,313.611C128.132,309.57 139.265,306.977 151.804,306.977Z" style="fill:#490006;"/>
            </g>
            <path d="M151.428,310.613L154.635,319.28L163.302,322.487L154.635,325.694L151.428,334.361L148.221,325.694L139.554,322.487L148.221,319.28L151.428,310.613ZM132.701,315.633L134.552,320.636L139.554,322.487L134.552,324.338L132.701,329.341L130.849,324.338L125.847,322.487L130.849,320.636L132.701,315.633ZM170.156,315.633L172.007,320.636L177.01,322.487L172.007,324.338L170.156,329.341L168.305,324.338L163.302,322.487L168.305,320.636L170.156,315.633Z" style="fill:#ff0016;"/>
        </g>
    </g>
</svg>
