<?xml version="1.0" encoding="UTF-8" standalone="no"?>
<!DOCTYPE svg PUBLIC "-//W3C//DTD SVG 1.1//EN" "http://www.w3.org/Graphics/SVG/1.1/DTD/svg11.dtd">
<svg width="100%" height="100%" viewBox="0 0 300 345" version="1.1" xmlns="http://www.w3.org/2000/svg" xmlns:xlink="http://www.w3.org/1999/xlink" xml:space="preserve" xmlns:serif="http://www.serif.com/" style="fill-rule:evenodd;clip-rule:evenodd;stroke-linejoin:round;stroke-miterlimit:2;">
    <g id="avatar_clothing_16">
        <path d="M300,308.62C300,328.577 283.577,345 263.62,345L36.38,345C16.423,345 -0,328.577 -0,308.62L-0,262.01L0,262L-0,262.01C-0,281.962 16.418,298.38 36.37,298.38L113.284,298.38C113.757,311.848 186.243,311.848 186.716,298.38L263.62,298.38C283.577,298.38 300,281.957 300,262L300,308.62Z" style="fill:#dfdfdf;fill-rule:nonzero;"/>
        <path d="M55.061,313.309L68.915,307.204L68.915,298.41L78.182,298.41L78.182,307.204C80.701,310.521 85.352,312.536 92.036,313.309C130.679,315.463 169.321,315.493 207.964,313.309C213.453,312.145 217.777,309.816 221.818,307.204L221.818,298.41L231.085,298.41L231.085,307.204L244.939,313.309C263.191,320.111 281.443,318.514 299.695,313.309C297.366,331.085 281.991,345 263.62,345L36.38,345C18.009,345 2.634,331.085 0.305,313.309C15.827,321.045 34.244,320.577 55.061,313.309Z" style="fill:#f2f2ed;"/>
        <path d="M292.916,330.083C286.269,339.103 275.579,345 263.62,345L36.38,345C24.421,345 13.731,339.103 7.084,330.083L292.916,330.083Z" style="fill:#dbe9c3;"/>
        <path d="M87.597,312.542C88.959,312.869 90.439,313.124 92.036,313.309C105.023,314.033 118.011,314.517 130.996,314.757L130.996,345L87.597,345L87.597,312.542ZM217.694,309.665L217.694,345L174.295,345L174.295,314.653C185.521,314.39 196.743,313.943 207.964,313.309C211.642,312.529 214.798,311.226 217.694,309.665ZM263.368,317.505C275.478,318.627 287.586,316.762 299.695,313.309C297.366,331.085 281.991,345 263.62,345L263.368,345L263.368,317.505ZM0.305,313.309C12.941,319.607 27.497,320.467 43.705,316.648L43.705,345L36.38,345C18.009,345 2.634,331.085 0.305,313.309Z" style="fill:#9abb6a;"/>
        <g transform="matrix(1.2,0,0,6.83333,-14.0841,-1807.13)">
            <rect x="70.42" y="308.128" width="5.553" height="1.666" style="fill:#6a883b;"/>
        </g>
        <g transform="matrix(1.2,0,0,6.83333,138.582,-1807.13)">
            <rect x="70.42" y="308.128" width="5.553" height="1.666" style="fill:#6a883b;"/>
        </g>
        <path d="M4.472,318.372C2.867,317.78 0.82,317.239 0.305,313.309C15.827,321.045 34.244,320.577 55.061,313.309L68.915,307.204L68.915,298.41L78.182,298.41L78.182,307.204C80.701,310.521 85.352,312.536 92.036,313.309C130.679,315.463 169.321,315.493 207.964,313.309C213.453,312.145 217.777,309.816 221.818,307.204L221.818,298.41L231.085,298.41L231.085,307.204L244.939,313.309C263.191,320.111 281.443,318.514 299.695,313.309C299.18,317.239 296.765,317.216 295.797,317.458C278.495,321.78 261.193,322.568 243.891,316.12C243.836,316.099 243.782,316.077 243.729,316.054L229.876,309.949C228.788,309.47 228.085,308.393 228.085,307.204C228.085,307.204 228.085,301.41 228.085,301.41C228.085,301.41 224.818,301.41 224.818,301.41L224.818,307.204C224.818,308.222 224.301,309.17 223.447,309.723C219.116,312.523 214.47,314.996 208.587,316.243C208.438,316.275 208.286,316.295 208.134,316.304C169.379,318.494 130.624,318.464 91.869,316.304C91.809,316.301 91.75,316.296 91.691,316.289C83.973,315.397 78.702,312.849 75.793,309.018C75.397,308.496 75.182,307.859 75.182,307.204C75.182,307.204 75.182,301.41 75.182,301.41C75.182,301.41 71.915,301.41 71.915,301.41L71.915,307.204C71.915,308.393 71.212,309.47 70.124,309.949L56.271,316.054C56.199,316.086 56.125,316.115 56.05,316.141C36.76,322.876 19.446,323.894 4.472,318.372Z" style="fill:#6a883b;"/>
    </g>
</svg>
