<?xml version="1.0" encoding="UTF-8" standalone="no"?>
<!DOCTYPE svg PUBLIC "-//W3C//DTD SVG 1.1//EN" "http://www.w3.org/Graphics/SVG/1.1/DTD/svg11.dtd">
<svg width="100%" height="100%" viewBox="0 0 300 345" version="1.1" xmlns="http://www.w3.org/2000/svg" xmlns:xlink="http://www.w3.org/1999/xlink" xml:space="preserve" xmlns:serif="http://www.serif.com/" style="fill-rule:evenodd;clip-rule:evenodd;stroke-linecap:round;">
    <g id="avatar_clothing_50">
        <g>
            <path d="M36.38,345C16.423,345 -0,328.577 -0,308.62L0,262L-0,262.01C-0,281.967 16.423,298.39 36.38,298.39L263.62,298.39C283.577,298.39 300,281.967 300,262.01L300,308.62C300,328.577 283.577,345 263.62,345L36.38,345Z" style="fill:#8fb2eb;fill-rule:nonzero;"/>
            <g transform="matrix(0.752818,0,0,0.752818,37.0773,74.2675)">
                <path d="M235.066,297.71L151.96,300.513L153.572,302.821L174.019,332.081C175.95,334.589 178.943,336.061 182.108,336.061C184.997,336.061 187.906,334.835 190.375,332.767L235.066,297.71Z" style="fill:#7e9ccc;fill-rule:nonzero;"/>
            </g>
            <g transform="matrix(0.752818,0,0,0.752818,37.0773,74.2675)">
                <path d="M228.81,297.71L154.709,297.71L174.31,326.22C176.239,328.731 179.232,330.206 182.399,330.206C185.289,330.206 187.62,329.161 190.224,327.196L228.81,297.71Z" style="fill:#afcdff;fill-rule:nonzero;"/>
            </g>
            <g transform="matrix(0.752818,0,0,0.752818,37.4214,73.7564)">
                <path d="M154.1,300.911L154.1,345L138.791,345L138.791,313.775L125.524,332.76C123.592,335.268 120.6,336.74 117.435,336.74C114.546,336.74 111.636,335.514 109.168,333.446L64.477,298.389L71.795,298.389L154.1,300.911Z" style="fill:#7e9ccc;"/>
            </g>
            <g transform="matrix(-0.752818,0,0,0.752818,262.923,74.2675)">
                <path d="M228.81,297.71L154.709,297.71L174.31,326.22C176.239,328.731 179.232,330.206 182.399,330.206C185.289,330.206 187.62,329.161 190.224,327.196L228.81,297.71Z" style="fill:#afcdff;fill-rule:nonzero;"/>
            </g>
            <g transform="matrix(1,0,0,0.989536,0,7.57224)">
                <rect x="142.096" y="293.892" width="14.895" height="47.104" style="fill:#afcdff;"/>
            </g>
        </g>
        <g transform="matrix(-1,5.55112e-17,5.55112e-17,1,301.409,-2.84217e-14)">
            <g transform="matrix(-1,5.55112e-17,5.55112e-17,1,301.409,1.16902e-14)">
                <path d="M265.029,298.39C265.123,298.39 265.216,298.39 265.31,298.389C271.291,309.232 283.779,317.083 298.623,318.486C294.28,333.714 280.165,345 263.62,345L183.044,345L183.044,324.5L214.152,298.39L265.029,298.39Z" style="fill:#cd7435;fill-rule:nonzero;"/>
            </g>
            <g>
                <g>
                    <g transform="matrix(-0.800711,-0.0684753,-0.0684753,0.800711,299.45,80.775)">
                        <path d="M209.655,321.813C209.655,320.79 208.825,319.959 207.802,319.959L204.095,319.959C203.072,319.959 202.241,320.79 202.241,321.813L202.241,339.147C202.241,340.17 203.072,341 204.095,341L207.802,341C208.825,341 209.655,340.17 209.655,339.147L209.655,321.813Z" style="fill:#90562e;"/>
                    </g>
                    <g transform="matrix(-0.800711,-0.0684753,-0.0684753,0.800711,298.678,80.709)">
                        <path d="M209.655,321.813C209.655,320.79 208.825,319.959 207.802,319.959L204.095,319.959C203.072,319.959 202.241,320.79 202.241,321.813L202.241,339.147C202.241,340.17 203.072,341 204.095,341L207.802,341C208.825,341 209.655,340.17 209.655,339.147L209.655,321.813Z" style="fill:#df8240;"/>
                    </g>
                </g>
                <g>
                    <g transform="matrix(-0.794746,-0.119192,-0.119192,0.794746,307.46,92.2414)">
                        <path d="M209.655,321.813C209.655,320.79 208.825,319.959 207.802,319.959L204.095,319.959C203.072,319.959 202.241,320.79 202.241,321.813L202.241,339.147C202.241,340.17 203.072,341 204.095,341L207.802,341C208.825,341 209.655,340.17 209.655,339.147L209.655,321.813Z" style="fill:#90562e;"/>
                    </g>
                    <g transform="matrix(-0.794746,-0.119192,-0.119192,0.794746,306.694,92.1265)">
                        <path d="M209.655,321.813C209.655,320.79 208.825,319.959 207.802,319.959L204.095,319.959C203.072,319.959 202.241,320.79 202.241,321.813L202.241,339.147C202.241,340.17 203.072,341 204.095,341L207.802,341C208.825,341 209.655,340.17 209.655,339.147L209.655,321.813Z" style="fill:#df8240;"/>
                    </g>
                </g>
                <g>
                    <g transform="matrix(-0.802933,-0.0335634,-0.0335634,0.802933,272.817,70.9917)">
                        <path d="M209.655,321.813C209.655,320.79 208.825,319.959 207.802,319.959L204.095,319.959C203.072,319.959 202.241,320.79 202.241,321.813L202.241,339.147C202.241,340.17 203.072,341 204.095,341L207.802,341C208.825,341 209.655,340.17 209.655,339.147L209.655,321.813Z" style="fill:#90562e;"/>
                    </g>
                    <g transform="matrix(-0.802933,-0.0335634,-0.0335634,0.802933,272.042,70.9593)">
                        <path d="M209.655,321.813C209.655,320.79 208.825,319.959 207.802,319.959L204.095,319.959C203.072,319.959 202.241,320.79 202.241,321.813L202.241,339.147C202.241,340.17 203.072,341 204.095,341L207.802,341C208.825,341 209.655,340.17 209.655,339.147L209.655,321.813Z" style="fill:#df8240;"/>
                    </g>
                </g>
                <g>
                    <g transform="matrix(-0.802933,-0.0335634,-0.0335634,0.802933,265.505,68.6297)">
                        <path d="M209.655,321.813C209.655,320.79 208.825,319.959 207.802,319.959L204.095,319.959C203.072,319.959 202.241,320.79 202.241,321.813L202.241,339.147C202.241,340.17 203.072,341 204.095,341L207.802,341C208.825,341 209.655,340.17 209.655,339.147L209.655,321.813Z" style="fill:#90562e;"/>
                    </g>
                    <g transform="matrix(-0.802933,-0.0335634,-0.0335634,0.802933,264.731,68.5973)">
                        <path d="M209.655,321.813C209.655,320.79 208.825,319.959 207.802,319.959L204.095,319.959C203.072,319.959 202.241,320.79 202.241,321.813L202.241,339.147C202.241,340.17 203.072,341 204.095,341L207.802,341C208.825,341 209.655,340.17 209.655,339.147L209.655,321.813Z" style="fill:#df8240;"/>
                    </g>
                </g>
                <g>
                    <g transform="matrix(-0.793637,-0.126366,-0.126366,0.793637,286.181,89.4733)">
                        <path d="M209.655,321.813C209.655,320.79 208.825,319.959 207.802,319.959L204.095,319.959C203.072,319.959 202.241,320.79 202.241,321.813L202.241,339.147C202.241,340.17 203.072,341 204.095,341L207.802,341C208.825,341 209.655,340.17 209.655,339.147L209.655,321.813Z" style="fill:#90562e;"/>
                    </g>
                    <g transform="matrix(-0.793637,-0.126366,-0.126366,0.793637,285.416,89.3514)">
                        <path d="M209.655,321.813C209.655,320.79 208.825,319.959 207.802,319.959L204.095,319.959C203.072,319.959 202.241,320.79 202.241,321.813L202.241,339.147C202.241,340.17 203.072,341 204.095,341L207.802,341C208.825,341 209.655,340.17 209.655,339.147L209.655,321.813Z" style="fill:#df8240;"/>
                    </g>
                </g>
                <g>
                    <g transform="matrix(-0.799586,-0.0805596,-0.0805596,0.799586,264.159,76.5088)">
                        <path d="M209.655,321.813C209.655,320.79 208.825,319.959 207.802,319.959L204.095,319.959C203.072,319.959 202.241,320.79 202.241,321.813L202.241,339.147C202.241,340.17 203.072,341 204.095,341L207.802,341C208.825,341 209.655,340.17 209.655,339.147L209.655,321.813Z" style="fill:#90562e;"/>
                    </g>
                    <g transform="matrix(-0.799586,-0.0805596,-0.0805596,0.799586,263.388,76.4312)">
                        <path d="M209.655,321.813C209.655,320.79 208.825,319.959 207.802,319.959L204.095,319.959C203.072,319.959 202.241,320.79 202.241,321.813L202.241,339.147C202.241,340.17 203.072,341 204.095,341L207.802,341C208.825,341 209.655,340.17 209.655,339.147L209.655,321.813Z" style="fill:#df8240;"/>
                    </g>
                </g>
                <g>
                    <g transform="matrix(-0.802767,0.037329,0.037329,0.802767,217.316,50.3989)">
                        <path d="M209.655,321.813C209.655,320.79 208.825,319.959 207.802,319.959L204.095,319.959C203.072,319.959 202.241,320.79 202.241,321.813L202.241,339.147C202.241,340.17 203.072,341 204.095,341L207.802,341C208.825,341 209.655,340.17 209.655,339.147L209.655,321.813Z" style="fill:#90562e;"/>
                    </g>
                    <g transform="matrix(-0.802767,0.037329,0.037329,0.802767,216.542,50.4349)">
                        <path d="M209.655,321.813C209.655,320.79 208.825,319.959 207.802,319.959L204.095,319.959C203.072,319.959 202.241,320.79 202.241,321.813L202.241,339.147C202.241,340.17 203.072,341 204.095,341L207.802,341C208.825,341 209.655,340.17 209.655,339.147L209.655,321.813Z" style="fill:#df8240;"/>
                    </g>
                </g>
                <g>
                    <g transform="matrix(-0.788531,-0.155071,-0.155071,0.788531,269.39,97.1896)">
                        <path d="M209.655,321.813C209.655,320.79 208.825,319.959 207.802,319.959L204.095,319.959C203.072,319.959 202.241,320.79 202.241,321.813L202.241,339.147C202.241,340.17 203.072,341 204.095,341L207.802,341C208.825,341 209.655,340.17 209.655,339.147L209.655,321.813Z" style="fill:#90562e;"/>
                    </g>
                    <g transform="matrix(-0.788531,-0.155071,-0.155071,0.788531,268.63,97.0401)">
                        <path d="M209.655,321.813C209.655,320.79 208.825,319.959 207.802,319.959L204.095,319.959C203.072,319.959 202.241,320.79 202.241,321.813L202.241,339.147C202.241,340.17 203.072,341 204.095,341L207.802,341C208.825,341 209.655,340.17 209.655,339.147L209.655,321.813Z" style="fill:#df8240;"/>
                    </g>
                </g>
                <g>
                    <g transform="matrix(-0.80207,-0.0501135,-0.0501135,0.80207,229.293,74.0103)">
                        <path d="M209.655,321.813C209.655,320.79 208.825,319.959 207.802,319.959L204.095,319.959C203.072,319.959 202.241,320.79 202.241,321.813L202.241,339.147C202.241,340.17 203.072,341 204.095,341L207.802,341C208.825,341 209.655,340.17 209.655,339.147L209.655,321.813Z" style="fill:#90562e;"/>
                    </g>
                    <g transform="matrix(-0.80207,-0.0501135,-0.0501135,0.80207,228.519,73.962)">
                        <path d="M209.655,321.813C209.655,320.79 208.825,319.959 207.802,319.959L204.095,319.959C203.072,319.959 202.241,320.79 202.241,321.813L202.241,339.147C202.241,340.17 203.072,341 204.095,341L207.802,341C208.825,341 209.655,340.17 209.655,339.147L209.655,321.813Z" style="fill:#df8240;"/>
                    </g>
                </g>
                <g>
                    <g transform="matrix(-0.803603,-0.00701304,-0.00701304,0.803603,207.482,66.5114)">
                        <path d="M209.655,321.813C209.655,320.79 208.825,319.959 207.802,319.959L204.095,319.959C203.072,319.959 202.241,320.79 202.241,321.813L202.241,339.147C202.241,340.17 203.072,341 204.095,341L207.802,341C208.825,341 209.655,340.17 209.655,339.147L209.655,321.813Z" style="fill:#90562e;"/>
                    </g>
                    <g transform="matrix(-0.803603,-0.00701304,-0.00701304,0.803603,206.707,66.5047)">
                        <path d="M209.655,321.813C209.655,320.79 208.825,319.959 207.802,319.959L204.095,319.959C203.072,319.959 202.241,320.79 202.241,321.813L202.241,339.147C202.241,340.17 203.072,341 204.095,341L207.802,341C208.825,341 209.655,340.17 209.655,339.147L209.655,321.813Z" style="fill:#df8240;"/>
                    </g>
                </g>
                <g>
                    <g transform="matrix(-0.803603,-0.00701304,-0.00701304,0.803603,199.46,66.5182)">
                        <path d="M209.655,321.813C209.655,320.79 208.825,319.959 207.802,319.959L204.095,319.959C203.072,319.959 202.241,320.79 202.241,321.813L202.241,339.147C202.241,340.17 203.072,341 204.095,341L207.802,341C208.825,341 209.655,340.17 209.655,339.147L209.655,321.813Z" style="fill:#90562e;"/>
                    </g>
                    <g transform="matrix(-0.803603,-0.00701304,-0.00701304,0.803603,198.686,66.5114)">
                        <path d="M209.655,321.813C209.655,320.79 208.825,319.959 207.802,319.959L204.095,319.959C203.072,319.959 202.241,320.79 202.241,321.813L202.241,339.147C202.241,340.17 203.072,341 204.095,341L207.802,341C208.825,341 209.655,340.17 209.655,339.147L209.655,321.813Z" style="fill:#df8240;"/>
                    </g>
                </g>
                <g>
                    <g transform="matrix(-0.799213,-0.0841803,-0.0841803,0.799213,215.611,83.8853)">
                        <path d="M209.655,321.813C209.655,320.79 208.825,319.959 207.802,319.959L204.095,319.959C203.072,319.959 202.241,320.79 202.241,321.813L202.241,339.147C202.241,340.17 203.072,341 204.095,341L207.802,341C208.825,341 209.655,340.17 209.655,339.147L209.655,321.813Z" style="fill:#90562e;"/>
                    </g>
                    <g transform="matrix(-0.799213,-0.0841803,-0.0841803,0.799213,214.841,83.8041)">
                        <path d="M209.655,321.813C209.655,320.79 208.825,319.959 207.802,319.959L204.095,319.959C203.072,319.959 202.241,320.79 202.241,321.813L202.241,339.147C202.241,340.17 203.072,341 204.095,341L207.802,341C208.825,341 209.655,340.17 209.655,339.147L209.655,321.813Z" style="fill:#df8240;"/>
                    </g>
                </g>
                <g>
                    <g transform="matrix(-0.780195,-0.192676,-0.13033,0.527738,219.081,193.108)">
                        <path d="M209.655,322.699C209.655,321.187 208.825,319.959 207.802,319.959L204.095,319.959C203.072,319.959 202.241,321.187 202.241,322.699L202.241,338.26C202.241,339.773 203.072,341 204.095,341L207.802,341C208.825,341 209.655,339.773 209.655,338.26L209.655,322.699Z" style="fill:#90562e;"/>
                    </g>
                    <g transform="matrix(-0.780195,-0.192676,-0.13033,0.527738,218.329,192.922)">
                        <path d="M209.655,322.699C209.655,321.187 208.825,319.959 207.802,319.959L204.095,319.959C203.072,319.959 202.241,321.187 202.241,322.699L202.241,338.26C202.241,339.773 203.072,341 204.095,341L207.802,341C208.825,341 209.655,339.773 209.655,338.26L209.655,322.699Z" style="fill:#df8240;"/>
                    </g>
                </g>
            </g>
            <g transform="matrix(-1,5.55112e-17,5.55112e-17,1,301.409,1.16902e-14)">
                <path d="M297.443,321.945C280.724,328.479 255.123,326.234 234.346,316.418L183.431,326.462C183.301,326.488 183.172,326.5 183.044,326.5L183.044,324.5L186.21,321.837L234.876,312.236L235.477,312.525C255.381,322.114 280.114,324.543 296.098,318.182C296.931,318.304 297.773,318.406 298.623,318.486C298.287,319.665 297.892,320.82 297.443,321.945Z" style="fill:#90562e;"/>
            </g>
            <g transform="matrix(-1,5.55112e-17,5.55112e-17,1,301.409,1.16902e-14)">
                <path d="M274.548,319.958C275.223,319.962 275.894,319.956 276.563,319.941C276.839,319.935 277.057,319.706 277.051,319.43C277.045,319.154 276.816,318.935 276.54,318.941C275.881,318.956 275.219,318.962 274.554,318.958C274.278,318.956 274.053,319.179 274.051,319.455C274.05,319.731 274.272,319.956 274.548,319.958ZM270.524,319.822C271.196,319.863 271.867,319.895 272.535,319.917C272.811,319.927 273.042,319.71 273.052,319.435C273.061,319.159 272.845,318.927 272.569,318.918C271.91,318.896 271.248,318.864 270.585,318.824C270.309,318.807 270.072,319.017 270.055,319.292C270.038,319.568 270.248,319.805 270.524,319.822ZM189.898,318.747L188.958,319.537C189.042,319.772 189.291,319.913 189.54,319.855C189.54,319.855 190.249,319.692 191.489,319.407C191.758,319.345 191.927,319.077 191.865,318.808C191.803,318.539 191.534,318.371 191.265,318.433L189.898,318.747ZM278.576,319.865C279.25,319.829 279.921,319.783 280.587,319.727C280.862,319.704 281.066,319.462 281.043,319.187C281.02,318.912 280.778,318.707 280.503,318.731C279.847,318.786 279.187,318.831 278.523,318.866C278.248,318.881 278.036,319.116 278.05,319.392C278.065,319.668 278.301,319.879 278.576,319.865ZM266.514,319.473C267.183,319.548 267.85,319.615 268.516,319.673C268.791,319.697 269.034,319.493 269.058,319.218C269.082,318.943 268.878,318.701 268.603,318.677C267.946,318.619 267.286,318.553 266.626,318.479C266.351,318.448 266.104,318.646 266.073,318.92C266.042,319.194 266.239,319.442 266.514,319.473ZM282.593,319.525C283.264,319.447 283.93,319.357 284.592,319.257C284.865,319.216 285.053,318.961 285.011,318.688C284.97,318.415 284.715,318.227 284.442,318.269C283.792,318.367 283.136,318.455 282.477,318.532C282.203,318.564 282.006,318.813 282.038,319.087C282.07,319.361 282.319,319.558 282.593,319.525ZM262.527,318.924C263.192,319.032 263.855,319.131 264.517,319.223C264.79,319.26 265.043,319.069 265.081,318.795C265.118,318.522 264.927,318.27 264.653,318.232C263.999,318.142 263.344,318.044 262.687,317.937C262.415,317.893 262.158,318.078 262.114,318.351C262.07,318.623 262.255,318.88 262.527,318.924ZM193.439,318.959C194.034,318.822 194.686,318.672 195.388,318.51C195.657,318.449 195.825,318.18 195.763,317.911C195.701,317.642 195.432,317.474 195.163,317.536C194.462,317.697 193.81,317.847 193.214,317.984C192.945,318.046 192.777,318.315 192.839,318.584C192.901,318.852 193.17,319.021 193.439,318.959ZM286.581,318.92C287.245,318.795 287.904,318.659 288.558,318.511C288.827,318.45 288.996,318.182 288.935,317.913C288.874,317.644 288.606,317.475 288.337,317.536C287.695,317.681 287.049,317.815 286.396,317.937C286.125,317.988 285.946,318.25 285.997,318.521C286.048,318.792 286.31,318.971 286.581,318.92ZM258.572,318.188C259.231,318.326 259.888,318.457 260.546,318.579C260.817,318.63 261.078,318.45 261.129,318.179C261.179,317.908 261,317.646 260.729,317.596C260.079,317.475 259.429,317.346 258.778,317.21C258.508,317.153 258.242,317.326 258.186,317.596C258.129,317.866 258.302,318.132 258.572,318.188ZM197.337,318.062C197.961,317.918 198.612,317.769 199.286,317.614C199.555,317.552 199.723,317.283 199.661,317.014C199.599,316.745 199.331,316.577 199.062,316.639C198.388,316.794 197.737,316.944 197.113,317.087C196.844,317.149 196.676,317.418 196.737,317.687C196.799,317.956 197.068,318.124 197.337,318.062ZM290.446,317.012C291.085,317.184 291.731,317.344 292.382,317.492C291.767,317.682 291.145,317.861 290.518,318.028C290.251,318.099 289.977,317.941 289.906,317.674C289.835,317.407 289.993,317.133 290.26,317.062C290.322,317.045 290.384,317.029 290.446,317.012ZM254.656,317.275C255.307,317.442 255.958,317.602 256.609,317.753C256.878,317.816 257.147,317.649 257.209,317.38C257.272,317.111 257.105,316.842 256.836,316.779C256.192,316.629 255.548,316.472 254.904,316.307C254.637,316.238 254.364,316.399 254.296,316.667C254.227,316.934 254.389,317.207 254.656,317.275ZM201.235,317.165C201.871,317.019 202.521,316.869 203.184,316.717C203.453,316.655 203.621,316.387 203.559,316.118C203.497,315.849 203.229,315.681 202.96,315.742C202.297,315.895 201.646,316.045 201.011,316.191C200.742,316.253 200.574,316.521 200.636,316.79C200.698,317.059 200.966,317.227 201.235,317.165ZM250.783,316.193C251.426,316.388 252.07,316.575 252.714,316.755C252.979,316.829 253.255,316.674 253.33,316.408C253.404,316.142 253.248,315.866 252.983,315.792C252.346,315.614 251.709,315.429 251.072,315.236C250.808,315.156 250.529,315.306 250.449,315.57C250.369,315.834 250.519,316.114 250.783,316.193ZM205.133,316.269C205.775,316.121 206.426,315.971 207.082,315.82C207.351,315.758 207.519,315.49 207.457,315.221C207.396,314.952 207.127,314.784 206.858,314.846C206.202,314.997 205.551,315.146 204.909,315.294C204.64,315.356 204.472,315.624 204.534,315.893C204.596,316.162 204.864,316.33 205.133,316.269ZM246.96,314.95C247.594,315.171 248.229,315.385 248.865,315.592C249.127,315.677 249.41,315.533 249.495,315.271C249.58,315.008 249.437,314.726 249.174,314.641C248.545,314.436 247.916,314.224 247.288,314.006C247.028,313.915 246.743,314.053 246.652,314.314C246.561,314.574 246.699,314.859 246.96,314.95ZM209.031,315.372C209.678,315.223 210.329,315.073 210.98,314.924C211.249,314.862 211.418,314.593 211.356,314.324C211.294,314.055 211.025,313.887 210.756,313.949C210.105,314.099 209.454,314.248 208.807,314.397C208.538,314.459 208.37,314.728 208.432,314.997C208.494,315.266 208.762,315.434 209.031,315.372ZM212.93,314.475C213.581,314.325 214.231,314.176 214.879,314.027C215.148,313.965 215.316,313.696 215.254,313.427C215.192,313.159 214.923,312.99 214.655,313.052C214.007,313.201 213.357,313.351 212.705,313.501C212.436,313.562 212.268,313.831 212.33,314.1C212.392,314.369 212.661,314.537 212.93,314.475ZM243.191,313.552C243.815,313.798 244.441,314.037 245.068,314.27C245.327,314.366 245.615,314.234 245.711,313.975C245.807,313.717 245.675,313.429 245.416,313.333C244.795,313.102 244.176,312.865 243.558,312.621C243.301,312.52 243.01,312.646 242.909,312.903C242.808,313.16 242.934,313.45 243.191,313.552ZM216.828,313.578C217.484,313.427 218.135,313.278 218.777,313.13C219.046,313.068 219.214,312.8 219.152,312.531C219.09,312.262 218.822,312.094 218.553,312.156C217.91,312.303 217.26,312.453 216.604,312.604C216.335,312.666 216.167,312.934 216.228,313.203C216.29,313.472 216.559,313.64 216.828,313.578ZM239.482,312.003C240.095,312.273 240.711,312.538 241.328,312.796C241.583,312.902 241.876,312.782 241.983,312.527C242.089,312.272 241.968,311.979 241.714,311.873C241.103,311.618 240.493,311.356 239.885,311.088C239.633,310.976 239.337,311.091 239.226,311.343C239.115,311.596 239.229,311.891 239.482,312.003ZM220.726,312.682C221.389,312.529 222.039,312.38 222.675,312.233C222.944,312.172 223.112,311.903 223.05,311.634C222.988,311.365 222.72,311.197 222.451,311.259C221.815,311.405 221.164,311.555 220.502,311.707C220.233,311.769 220.065,312.038 220.127,312.307C220.188,312.575 220.457,312.744 220.726,312.682ZM224.624,311.785C225.297,311.63 225.948,311.48 226.573,311.337C226.842,311.275 227.01,311.006 226.948,310.737C226.887,310.468 226.618,310.3 226.349,310.362C225.724,310.506 225.073,310.656 224.4,310.81C224.131,310.872 223.963,311.141 224.025,311.41C224.087,311.679 224.355,311.847 224.624,311.785ZM235.837,310.307C236.439,310.602 237.044,310.891 237.651,311.173C237.901,311.289 238.199,311.181 238.315,310.931C238.432,310.68 238.323,310.383 238.073,310.266C237.472,309.987 236.873,309.701 236.277,309.409C236.029,309.288 235.729,309.391 235.608,309.638C235.486,309.886 235.589,310.186 235.837,310.307ZM228.522,310.888C229.222,310.727 229.874,310.577 230.471,310.44C230.74,310.378 230.909,310.11 230.847,309.841C230.785,309.572 230.516,309.404 230.247,309.465C229.65,309.603 228.998,309.753 228.298,309.914C228.029,309.976 227.861,310.244 227.923,310.513C227.985,310.782 228.253,310.95 228.522,310.888ZM232.421,309.992C233.418,309.762 234.096,309.606 234.37,309.543C234.639,309.481 234.807,309.213 234.745,308.944C234.683,308.675 234.414,308.507 234.145,308.569C233.872,308.632 233.194,308.788 232.196,309.017C231.927,309.079 231.759,309.347 231.821,309.616C231.883,309.885 232.152,310.053 232.421,309.992Z" style="fill:#90562e;"/>
            </g>
        </g>
        <g transform="matrix(1,5.55112e-17,-5.55112e-17,1,-1.40059,-2.84217e-14)">
            <g transform="matrix(-1,5.55112e-17,5.55112e-17,1,301.409,1.16902e-14)">
                <path d="M265.029,298.39C265.123,298.39 265.216,298.39 265.31,298.389C271.291,309.232 283.779,317.083 298.623,318.486C294.28,333.714 280.165,345 263.62,345L183.044,345L183.044,324.5L214.152,298.39L265.029,298.39Z" style="fill:#cd7435;fill-rule:nonzero;"/>
            </g>
            <g>
                <g>
                    <g transform="matrix(-0.800711,-0.0684753,-0.0684753,0.800711,299.45,80.775)">
                        <path d="M209.655,321.813C209.655,320.79 208.825,319.959 207.802,319.959L204.095,319.959C203.072,319.959 202.241,320.79 202.241,321.813L202.241,339.147C202.241,340.17 203.072,341 204.095,341L207.802,341C208.825,341 209.655,340.17 209.655,339.147L209.655,321.813Z" style="fill:#90562e;"/>
                    </g>
                    <g transform="matrix(-0.800711,-0.0684753,-0.0684753,0.800711,298.678,80.709)">
                        <path d="M209.655,321.813C209.655,320.79 208.825,319.959 207.802,319.959L204.095,319.959C203.072,319.959 202.241,320.79 202.241,321.813L202.241,339.147C202.241,340.17 203.072,341 204.095,341L207.802,341C208.825,341 209.655,340.17 209.655,339.147L209.655,321.813Z" style="fill:#df8240;"/>
                    </g>
                </g>
                <g>
                    <g transform="matrix(-0.794746,-0.119192,-0.119192,0.794746,307.46,92.2414)">
                        <path d="M209.655,321.813C209.655,320.79 208.825,319.959 207.802,319.959L204.095,319.959C203.072,319.959 202.241,320.79 202.241,321.813L202.241,339.147C202.241,340.17 203.072,341 204.095,341L207.802,341C208.825,341 209.655,340.17 209.655,339.147L209.655,321.813Z" style="fill:#90562e;"/>
                    </g>
                    <g transform="matrix(-0.794746,-0.119192,-0.119192,0.794746,306.694,92.1265)">
                        <path d="M209.655,321.813C209.655,320.79 208.825,319.959 207.802,319.959L204.095,319.959C203.072,319.959 202.241,320.79 202.241,321.813L202.241,339.147C202.241,340.17 203.072,341 204.095,341L207.802,341C208.825,341 209.655,340.17 209.655,339.147L209.655,321.813Z" style="fill:#df8240;"/>
                    </g>
                </g>
                <g>
                    <g transform="matrix(-0.802933,-0.0335634,-0.0335634,0.802933,272.817,70.9917)">
                        <path d="M209.655,321.813C209.655,320.79 208.825,319.959 207.802,319.959L204.095,319.959C203.072,319.959 202.241,320.79 202.241,321.813L202.241,339.147C202.241,340.17 203.072,341 204.095,341L207.802,341C208.825,341 209.655,340.17 209.655,339.147L209.655,321.813Z" style="fill:#90562e;"/>
                    </g>
                    <g transform="matrix(-0.802933,-0.0335634,-0.0335634,0.802933,272.042,70.9593)">
                        <path d="M209.655,321.813C209.655,320.79 208.825,319.959 207.802,319.959L204.095,319.959C203.072,319.959 202.241,320.79 202.241,321.813L202.241,339.147C202.241,340.17 203.072,341 204.095,341L207.802,341C208.825,341 209.655,340.17 209.655,339.147L209.655,321.813Z" style="fill:#df8240;"/>
                    </g>
                </g>
                <g>
                    <g transform="matrix(-0.802933,-0.0335634,-0.0335634,0.802933,265.505,68.6297)">
                        <path d="M209.655,321.813C209.655,320.79 208.825,319.959 207.802,319.959L204.095,319.959C203.072,319.959 202.241,320.79 202.241,321.813L202.241,339.147C202.241,340.17 203.072,341 204.095,341L207.802,341C208.825,341 209.655,340.17 209.655,339.147L209.655,321.813Z" style="fill:#90562e;"/>
                    </g>
                    <g transform="matrix(-0.802933,-0.0335634,-0.0335634,0.802933,264.731,68.5973)">
                        <path d="M209.655,321.813C209.655,320.79 208.825,319.959 207.802,319.959L204.095,319.959C203.072,319.959 202.241,320.79 202.241,321.813L202.241,339.147C202.241,340.17 203.072,341 204.095,341L207.802,341C208.825,341 209.655,340.17 209.655,339.147L209.655,321.813Z" style="fill:#df8240;"/>
                    </g>
                </g>
                <g>
                    <g transform="matrix(-0.793637,-0.126366,-0.126366,0.793637,286.181,89.4733)">
                        <path d="M209.655,321.813C209.655,320.79 208.825,319.959 207.802,319.959L204.095,319.959C203.072,319.959 202.241,320.79 202.241,321.813L202.241,339.147C202.241,340.17 203.072,341 204.095,341L207.802,341C208.825,341 209.655,340.17 209.655,339.147L209.655,321.813Z" style="fill:#90562e;"/>
                    </g>
                    <g transform="matrix(-0.793637,-0.126366,-0.126366,0.793637,285.416,89.3514)">
                        <path d="M209.655,321.813C209.655,320.79 208.825,319.959 207.802,319.959L204.095,319.959C203.072,319.959 202.241,320.79 202.241,321.813L202.241,339.147C202.241,340.17 203.072,341 204.095,341L207.802,341C208.825,341 209.655,340.17 209.655,339.147L209.655,321.813Z" style="fill:#df8240;"/>
                    </g>
                </g>
                <g>
                    <g transform="matrix(-0.799586,-0.0805596,-0.0805596,0.799586,264.159,76.5088)">
                        <path d="M209.655,321.813C209.655,320.79 208.825,319.959 207.802,319.959L204.095,319.959C203.072,319.959 202.241,320.79 202.241,321.813L202.241,339.147C202.241,340.17 203.072,341 204.095,341L207.802,341C208.825,341 209.655,340.17 209.655,339.147L209.655,321.813Z" style="fill:#90562e;"/>
                    </g>
                    <g transform="matrix(-0.799586,-0.0805596,-0.0805596,0.799586,263.388,76.4312)">
                        <path d="M209.655,321.813C209.655,320.79 208.825,319.959 207.802,319.959L204.095,319.959C203.072,319.959 202.241,320.79 202.241,321.813L202.241,339.147C202.241,340.17 203.072,341 204.095,341L207.802,341C208.825,341 209.655,340.17 209.655,339.147L209.655,321.813Z" style="fill:#df8240;"/>
                    </g>
                </g>
                <g>
                    <g transform="matrix(-0.802767,0.037329,0.037329,0.802767,217.316,50.3989)">
                        <path d="M209.655,321.813C209.655,320.79 208.825,319.959 207.802,319.959L204.095,319.959C203.072,319.959 202.241,320.79 202.241,321.813L202.241,339.147C202.241,340.17 203.072,341 204.095,341L207.802,341C208.825,341 209.655,340.17 209.655,339.147L209.655,321.813Z" style="fill:#90562e;"/>
                    </g>
                    <g transform="matrix(-0.802767,0.037329,0.037329,0.802767,216.542,50.4349)">
                        <path d="M209.655,321.813C209.655,320.79 208.825,319.959 207.802,319.959L204.095,319.959C203.072,319.959 202.241,320.79 202.241,321.813L202.241,339.147C202.241,340.17 203.072,341 204.095,341L207.802,341C208.825,341 209.655,340.17 209.655,339.147L209.655,321.813Z" style="fill:#df8240;"/>
                    </g>
                </g>
                <g>
                    <g transform="matrix(-0.788531,-0.155071,-0.155071,0.788531,269.39,97.1896)">
                        <path d="M209.655,321.813C209.655,320.79 208.825,319.959 207.802,319.959L204.095,319.959C203.072,319.959 202.241,320.79 202.241,321.813L202.241,339.147C202.241,340.17 203.072,341 204.095,341L207.802,341C208.825,341 209.655,340.17 209.655,339.147L209.655,321.813Z" style="fill:#90562e;"/>
                    </g>
                    <g transform="matrix(-0.788531,-0.155071,-0.155071,0.788531,268.63,97.0401)">
                        <path d="M209.655,321.813C209.655,320.79 208.825,319.959 207.802,319.959L204.095,319.959C203.072,319.959 202.241,320.79 202.241,321.813L202.241,339.147C202.241,340.17 203.072,341 204.095,341L207.802,341C208.825,341 209.655,340.17 209.655,339.147L209.655,321.813Z" style="fill:#df8240;"/>
                    </g>
                </g>
                <g>
                    <g transform="matrix(-0.80207,-0.0501135,-0.0501135,0.80207,229.293,74.0103)">
                        <path d="M209.655,321.813C209.655,320.79 208.825,319.959 207.802,319.959L204.095,319.959C203.072,319.959 202.241,320.79 202.241,321.813L202.241,339.147C202.241,340.17 203.072,341 204.095,341L207.802,341C208.825,341 209.655,340.17 209.655,339.147L209.655,321.813Z" style="fill:#90562e;"/>
                    </g>
                    <g transform="matrix(-0.80207,-0.0501135,-0.0501135,0.80207,228.519,73.962)">
                        <path d="M209.655,321.813C209.655,320.79 208.825,319.959 207.802,319.959L204.095,319.959C203.072,319.959 202.241,320.79 202.241,321.813L202.241,339.147C202.241,340.17 203.072,341 204.095,341L207.802,341C208.825,341 209.655,340.17 209.655,339.147L209.655,321.813Z" style="fill:#df8240;"/>
                    </g>
                </g>
                <g>
                    <g transform="matrix(-0.803603,-0.00701304,-0.00701304,0.803603,207.482,66.5114)">
                        <path d="M209.655,321.813C209.655,320.79 208.825,319.959 207.802,319.959L204.095,319.959C203.072,319.959 202.241,320.79 202.241,321.813L202.241,339.147C202.241,340.17 203.072,341 204.095,341L207.802,341C208.825,341 209.655,340.17 209.655,339.147L209.655,321.813Z" style="fill:#90562e;"/>
                    </g>
                    <g transform="matrix(-0.803603,-0.00701304,-0.00701304,0.803603,206.707,66.5047)">
                        <path d="M209.655,321.813C209.655,320.79 208.825,319.959 207.802,319.959L204.095,319.959C203.072,319.959 202.241,320.79 202.241,321.813L202.241,339.147C202.241,340.17 203.072,341 204.095,341L207.802,341C208.825,341 209.655,340.17 209.655,339.147L209.655,321.813Z" style="fill:#df8240;"/>
                    </g>
                </g>
                <g>
                    <g transform="matrix(-0.803603,-0.00701304,-0.00701304,0.803603,199.46,66.5182)">
                        <path d="M209.655,321.813C209.655,320.79 208.825,319.959 207.802,319.959L204.095,319.959C203.072,319.959 202.241,320.79 202.241,321.813L202.241,339.147C202.241,340.17 203.072,341 204.095,341L207.802,341C208.825,341 209.655,340.17 209.655,339.147L209.655,321.813Z" style="fill:#90562e;"/>
                    </g>
                    <g transform="matrix(-0.803603,-0.00701304,-0.00701304,0.803603,198.686,66.5114)">
                        <path d="M209.655,321.813C209.655,320.79 208.825,319.959 207.802,319.959L204.095,319.959C203.072,319.959 202.241,320.79 202.241,321.813L202.241,339.147C202.241,340.17 203.072,341 204.095,341L207.802,341C208.825,341 209.655,340.17 209.655,339.147L209.655,321.813Z" style="fill:#df8240;"/>
                    </g>
                </g>
                <g>
                    <g transform="matrix(-0.799213,-0.0841803,-0.0841803,0.799213,215.611,83.8853)">
                        <path d="M209.655,321.813C209.655,320.79 208.825,319.959 207.802,319.959L204.095,319.959C203.072,319.959 202.241,320.79 202.241,321.813L202.241,339.147C202.241,340.17 203.072,341 204.095,341L207.802,341C208.825,341 209.655,340.17 209.655,339.147L209.655,321.813Z" style="fill:#90562e;"/>
                    </g>
                    <g transform="matrix(-0.799213,-0.0841803,-0.0841803,0.799213,214.841,83.8041)">
                        <path d="M209.655,321.813C209.655,320.79 208.825,319.959 207.802,319.959L204.095,319.959C203.072,319.959 202.241,320.79 202.241,321.813L202.241,339.147C202.241,340.17 203.072,341 204.095,341L207.802,341C208.825,341 209.655,340.17 209.655,339.147L209.655,321.813Z" style="fill:#df8240;"/>
                    </g>
                </g>
                <g>
                    <g transform="matrix(-0.780195,-0.192676,-0.13033,0.527738,219.081,193.108)">
                        <path d="M209.655,322.699C209.655,321.187 208.825,319.959 207.802,319.959L204.095,319.959C203.072,319.959 202.241,321.187 202.241,322.699L202.241,338.26C202.241,339.773 203.072,341 204.095,341L207.802,341C208.825,341 209.655,339.773 209.655,338.26L209.655,322.699Z" style="fill:#90562e;"/>
                    </g>
                    <g transform="matrix(-0.780195,-0.192676,-0.13033,0.527738,218.329,192.922)">
                        <path d="M209.655,322.699C209.655,321.187 208.825,319.959 207.802,319.959L204.095,319.959C203.072,319.959 202.241,321.187 202.241,322.699L202.241,338.26C202.241,339.773 203.072,341 204.095,341L207.802,341C208.825,341 209.655,339.773 209.655,338.26L209.655,322.699Z" style="fill:#df8240;"/>
                    </g>
                </g>
            </g>
            <g transform="matrix(-1,5.55112e-17,5.55112e-17,1,301.409,1.16902e-14)">
                <path d="M297.443,321.945C280.724,328.479 255.123,326.234 234.346,316.418L183.431,326.462C183.301,326.488 183.172,326.5 183.044,326.5L183.044,324.5L186.21,321.837L234.876,312.236L235.477,312.525C255.381,322.114 280.114,324.543 296.098,318.182C296.931,318.304 297.773,318.406 298.623,318.486C298.287,319.665 297.892,320.82 297.443,321.945Z" style="fill:#90562e;"/>
            </g>
            <g transform="matrix(-1,5.55112e-17,5.55112e-17,1,301.409,1.16902e-14)">
                <path d="M274.548,319.958C275.223,319.962 275.894,319.956 276.563,319.941C276.839,319.935 277.057,319.706 277.051,319.43C277.045,319.154 276.816,318.935 276.54,318.941C275.881,318.956 275.219,318.962 274.554,318.958C274.278,318.956 274.053,319.179 274.051,319.455C274.05,319.731 274.272,319.956 274.548,319.958ZM270.524,319.822C271.196,319.863 271.867,319.895 272.535,319.917C272.811,319.927 273.042,319.71 273.052,319.435C273.061,319.159 272.845,318.927 272.569,318.918C271.91,318.896 271.248,318.864 270.585,318.824C270.309,318.807 270.072,319.017 270.055,319.292C270.038,319.568 270.248,319.805 270.524,319.822ZM189.898,318.747L188.958,319.537C189.042,319.772 189.291,319.913 189.54,319.855C189.54,319.855 190.249,319.692 191.489,319.407C191.758,319.345 191.927,319.077 191.865,318.808C191.803,318.539 191.534,318.371 191.265,318.433L189.898,318.747ZM278.576,319.865C279.25,319.829 279.921,319.783 280.587,319.727C280.862,319.704 281.066,319.462 281.043,319.187C281.02,318.912 280.778,318.707 280.503,318.731C279.847,318.786 279.187,318.831 278.523,318.866C278.248,318.881 278.036,319.116 278.05,319.392C278.065,319.668 278.301,319.879 278.576,319.865ZM266.514,319.473C267.183,319.548 267.85,319.615 268.516,319.673C268.791,319.697 269.034,319.493 269.058,319.218C269.082,318.943 268.878,318.701 268.603,318.677C267.946,318.619 267.286,318.553 266.626,318.479C266.351,318.448 266.104,318.646 266.073,318.92C266.042,319.194 266.239,319.442 266.514,319.473ZM282.593,319.525C283.264,319.447 283.93,319.357 284.592,319.257C284.865,319.216 285.053,318.961 285.011,318.688C284.97,318.415 284.715,318.227 284.442,318.269C283.792,318.367 283.136,318.455 282.477,318.532C282.203,318.564 282.006,318.813 282.038,319.087C282.07,319.361 282.319,319.558 282.593,319.525ZM262.527,318.924C263.192,319.032 263.855,319.131 264.517,319.223C264.79,319.26 265.043,319.069 265.081,318.795C265.118,318.522 264.927,318.27 264.653,318.232C263.999,318.142 263.344,318.044 262.687,317.937C262.415,317.893 262.158,318.078 262.114,318.351C262.07,318.623 262.255,318.88 262.527,318.924ZM193.439,318.959C194.034,318.822 194.686,318.672 195.388,318.51C195.657,318.449 195.825,318.18 195.763,317.911C195.701,317.642 195.432,317.474 195.163,317.536C194.462,317.697 193.81,317.847 193.214,317.984C192.945,318.046 192.777,318.315 192.839,318.584C192.901,318.852 193.17,319.021 193.439,318.959ZM286.581,318.92C287.245,318.795 287.904,318.659 288.558,318.511C288.827,318.45 288.996,318.182 288.935,317.913C288.874,317.644 288.606,317.475 288.337,317.536C287.695,317.681 287.049,317.815 286.396,317.937C286.125,317.988 285.946,318.25 285.997,318.521C286.048,318.792 286.31,318.971 286.581,318.92ZM258.572,318.188C259.231,318.326 259.888,318.457 260.546,318.579C260.817,318.63 261.078,318.45 261.129,318.179C261.179,317.908 261,317.646 260.729,317.596C260.079,317.475 259.429,317.346 258.778,317.21C258.508,317.153 258.242,317.326 258.186,317.596C258.129,317.866 258.302,318.132 258.572,318.188ZM197.337,318.062C197.961,317.918 198.612,317.769 199.286,317.614C199.555,317.552 199.723,317.283 199.661,317.014C199.599,316.745 199.331,316.577 199.062,316.639C198.388,316.794 197.737,316.944 197.113,317.087C196.844,317.149 196.676,317.418 196.737,317.687C196.799,317.956 197.068,318.124 197.337,318.062ZM290.446,317.012C291.085,317.184 291.731,317.344 292.382,317.492C291.767,317.682 291.145,317.861 290.518,318.028C290.251,318.099 289.977,317.941 289.906,317.674C289.835,317.407 289.993,317.133 290.26,317.062C290.322,317.045 290.384,317.029 290.446,317.012ZM254.656,317.275C255.307,317.442 255.958,317.602 256.609,317.753C256.878,317.816 257.147,317.649 257.209,317.38C257.272,317.111 257.105,316.842 256.836,316.779C256.192,316.629 255.548,316.472 254.904,316.307C254.637,316.238 254.364,316.399 254.296,316.667C254.227,316.934 254.389,317.207 254.656,317.275ZM201.235,317.165C201.871,317.019 202.521,316.869 203.184,316.717C203.453,316.655 203.621,316.387 203.559,316.118C203.497,315.849 203.229,315.681 202.96,315.742C202.297,315.895 201.646,316.045 201.011,316.191C200.742,316.253 200.574,316.521 200.636,316.79C200.698,317.059 200.966,317.227 201.235,317.165ZM250.783,316.193C251.426,316.388 252.07,316.575 252.714,316.755C252.979,316.829 253.255,316.674 253.33,316.408C253.404,316.142 253.248,315.866 252.983,315.792C252.346,315.614 251.709,315.429 251.072,315.236C250.808,315.156 250.529,315.306 250.449,315.57C250.369,315.834 250.519,316.114 250.783,316.193ZM205.133,316.269C205.775,316.121 206.426,315.971 207.082,315.82C207.351,315.758 207.519,315.49 207.457,315.221C207.396,314.952 207.127,314.784 206.858,314.846C206.202,314.997 205.551,315.146 204.909,315.294C204.64,315.356 204.472,315.624 204.534,315.893C204.596,316.162 204.864,316.33 205.133,316.269ZM246.96,314.95C247.594,315.171 248.229,315.385 248.865,315.592C249.127,315.677 249.41,315.533 249.495,315.271C249.58,315.008 249.437,314.726 249.174,314.641C248.545,314.436 247.916,314.224 247.288,314.006C247.028,313.915 246.743,314.053 246.652,314.314C246.561,314.574 246.699,314.859 246.96,314.95ZM209.031,315.372C209.678,315.223 210.329,315.073 210.98,314.924C211.249,314.862 211.418,314.593 211.356,314.324C211.294,314.055 211.025,313.887 210.756,313.949C210.105,314.099 209.454,314.248 208.807,314.397C208.538,314.459 208.37,314.728 208.432,314.997C208.494,315.266 208.762,315.434 209.031,315.372ZM212.93,314.475C213.581,314.325 214.231,314.176 214.879,314.027C215.148,313.965 215.316,313.696 215.254,313.427C215.192,313.159 214.923,312.99 214.655,313.052C214.007,313.201 213.357,313.351 212.705,313.501C212.436,313.562 212.268,313.831 212.33,314.1C212.392,314.369 212.661,314.537 212.93,314.475ZM243.191,313.552C243.815,313.798 244.441,314.037 245.068,314.27C245.327,314.366 245.615,314.234 245.711,313.975C245.807,313.717 245.675,313.429 245.416,313.333C244.795,313.102 244.176,312.865 243.558,312.621C243.301,312.52 243.01,312.646 242.909,312.903C242.808,313.16 242.934,313.45 243.191,313.552ZM216.828,313.578C217.484,313.427 218.135,313.278 218.777,313.13C219.046,313.068 219.214,312.8 219.152,312.531C219.09,312.262 218.822,312.094 218.553,312.156C217.91,312.303 217.26,312.453 216.604,312.604C216.335,312.666 216.167,312.934 216.228,313.203C216.29,313.472 216.559,313.64 216.828,313.578ZM239.482,312.003C240.095,312.273 240.711,312.538 241.328,312.796C241.583,312.902 241.876,312.782 241.983,312.527C242.089,312.272 241.968,311.979 241.714,311.873C241.103,311.618 240.493,311.356 239.885,311.088C239.633,310.976 239.337,311.091 239.226,311.343C239.115,311.596 239.229,311.891 239.482,312.003ZM220.726,312.682C221.389,312.529 222.039,312.38 222.675,312.233C222.944,312.172 223.112,311.903 223.05,311.634C222.988,311.365 222.72,311.197 222.451,311.259C221.815,311.405 221.164,311.555 220.502,311.707C220.233,311.769 220.065,312.038 220.127,312.307C220.188,312.575 220.457,312.744 220.726,312.682ZM224.624,311.785C225.297,311.63 225.948,311.48 226.573,311.337C226.842,311.275 227.01,311.006 226.948,310.737C226.887,310.468 226.618,310.3 226.349,310.362C225.724,310.506 225.073,310.656 224.4,310.81C224.131,310.872 223.963,311.141 224.025,311.41C224.087,311.679 224.355,311.847 224.624,311.785ZM235.837,310.307C236.439,310.602 237.044,310.891 237.651,311.173C237.901,311.289 238.199,311.181 238.315,310.931C238.432,310.68 238.323,310.383 238.073,310.266C237.472,309.987 236.873,309.701 236.277,309.409C236.029,309.288 235.729,309.391 235.608,309.638C235.486,309.886 235.589,310.186 235.837,310.307ZM228.522,310.888C229.222,310.727 229.874,310.577 230.471,310.44C230.74,310.378 230.909,310.11 230.847,309.841C230.785,309.572 230.516,309.404 230.247,309.465C229.65,309.603 228.998,309.753 228.298,309.914C228.029,309.976 227.861,310.244 227.923,310.513C227.985,310.782 228.253,310.95 228.522,310.888ZM232.421,309.992C233.418,309.762 234.096,309.606 234.37,309.543C234.639,309.481 234.807,309.213 234.745,308.944C234.683,308.675 234.414,308.507 234.145,308.569C233.872,308.632 233.194,308.788 232.196,309.017C231.927,309.079 231.759,309.347 231.821,309.616C231.883,309.885 232.152,310.053 232.421,309.992Z" style="fill:#90562e;"/>
            </g>
        </g>
        <g transform="matrix(1,0,0,1,0,-5.45282)">
            <path d="M-0,262.01C-0,281.967 16.454,285.1 37.408,287.764C78.575,292.997 137.087,296.237 193.02,298.39C211.481,296.456 241.23,289.527 261.426,281.862C275.949,276.35 300,268.845 300,248.888L300,290.732C274.233,307.61 217.146,321.742 193.02,332.991C111.88,311.187 39.957,319.959 -0,290.063L-0,262.01Z" style="fill:#e63135;fill-rule:nonzero;"/>
            <path d="M-0.785,283.489C51.192,316.539 123.942,306.138 193.02,325.607C231.669,310.344 271.338,301.61 301.15,281.654" style="fill:none;stroke:#fff;stroke-width:2px;"/>
            <path d="M192.241,309.07C194.877,309.07 197.016,311.209 197.016,313.844C197.016,316.48 194.877,318.619 192.241,318.619C189.606,318.619 187.467,316.48 187.467,313.844C187.467,311.209 189.606,309.07 192.241,309.07ZM192.241,311.07C193.773,311.07 195.016,312.313 195.016,313.844C195.016,315.376 193.773,316.619 192.241,316.619C190.71,316.619 189.467,315.376 189.467,313.844C189.467,312.313 190.71,311.07 192.241,311.07ZM180.394,309.94C177.697,309.174 175.167,309.751 174.748,311.227C174.33,312.703 176.179,314.522 178.876,315.288C181.573,316.054 184.103,315.477 184.522,314.001C184.941,312.525 183.092,310.706 180.394,309.94ZM154.233,305.27C156.781,305.943 158.304,308.558 157.631,311.106C156.959,313.654 154.344,315.176 151.796,314.504C149.248,313.831 147.725,311.216 148.398,308.668C149.071,306.12 151.685,304.598 154.233,305.27ZM180.121,310.902C181.5,311.294 182.635,311.982 183.233,312.762C183.482,313.088 183.65,313.413 183.56,313.728C183.471,314.043 183.158,314.232 182.774,314.378C181.856,314.728 180.528,314.717 179.149,314.326C177.77,313.935 176.635,313.247 176.038,312.466C175.789,312.14 175.621,311.815 175.71,311.5C175.8,311.185 176.113,310.996 176.496,310.85C177.415,310.5 178.742,310.511 180.121,310.902ZM203.471,308.598C206.168,307.833 208.698,308.409 209.117,309.885C209.536,311.361 207.686,313.18 204.989,313.946C202.292,314.712 199.762,314.135 199.343,312.659C198.924,311.184 200.774,309.364 203.471,308.598ZM203.744,309.56C205.123,309.169 206.451,309.158 207.369,309.508C207.752,309.655 208.066,309.843 208.155,310.158C208.245,310.473 208.077,310.798 207.828,311.124C207.23,311.905 206.095,312.593 204.716,312.984C203.337,313.376 202.01,313.387 201.091,313.036C200.708,312.89 200.395,312.701 200.305,312.386C200.216,312.071 200.383,311.746 200.633,311.42C201.23,310.64 202.365,309.952 203.744,309.56ZM165.212,307.681C168.015,307.629 170.314,308.832 170.342,310.366C170.371,311.9 168.118,313.187 165.314,313.239C162.511,313.291 160.212,312.088 160.184,310.554C160.156,309.02 162.408,307.732 165.212,307.681ZM153.723,307.204C155.204,307.595 156.088,309.114 155.698,310.595C155.307,312.076 153.787,312.961 152.306,312.57C150.826,312.179 149.941,310.659 150.332,309.179C150.723,307.698 152.242,306.813 153.723,307.204ZM165.23,308.68C166.663,308.654 167.949,308.982 168.748,309.555C169.081,309.795 169.336,310.057 169.342,310.384C169.348,310.711 169.103,310.983 168.779,311.234C168.002,311.837 166.729,312.212 165.296,312.239C163.863,312.266 162.577,311.937 161.778,311.364C161.445,311.125 161.19,310.862 161.184,310.535C161.178,310.208 161.423,309.936 161.747,309.685C162.524,309.082 163.797,308.707 165.23,308.68ZM218.331,305.25C215.683,305.425 213.604,306.733 213.691,308.17C213.778,309.607 215.998,310.631 218.646,310.457C221.294,310.282 223.373,308.974 223.286,307.537C223.199,306.101 220.979,305.076 218.331,305.25ZM114.144,300.293C116.779,300.344 118.877,302.524 118.826,305.159C118.775,307.794 116.595,309.892 113.96,309.841C111.325,309.79 109.227,307.61 109.278,304.975C109.329,302.34 111.509,300.243 114.144,300.293ZM218.388,306.187C219.741,306.098 220.97,306.348 221.748,306.849C222.072,307.058 222.323,307.293 222.342,307.599C222.36,307.906 222.139,308.172 221.843,308.422C221.132,309.022 219.943,309.431 218.589,309.52C217.236,309.609 216.007,309.36 215.229,308.858C214.905,308.649 214.654,308.414 214.635,308.108C214.617,307.801 214.838,307.535 215.134,307.285C215.845,306.685 217.034,306.276 218.388,306.187ZM228.639,300.742C230.993,299.91 233.572,301.126 234.395,303.455C235.218,305.784 233.976,308.351 231.623,309.183C229.269,310.014 226.69,308.799 225.867,306.469C225.043,304.14 226.286,301.573 228.639,300.742ZM182.867,307.787C181.483,306.532 180.916,304.899 181.602,304.142C182.289,303.384 183.97,303.788 185.354,305.042C186.738,306.297 187.305,307.93 186.619,308.687C185.932,309.445 184.251,309.041 182.867,307.787ZM142.557,303.088C140.144,301.66 137.551,301.571 136.769,302.891C135.987,304.211 137.311,306.443 139.724,307.872C142.136,309.3 144.729,309.388 145.511,308.068C146.293,306.748 144.969,304.517 142.557,303.088ZM201.06,306.977C202.444,305.722 203.011,304.089 202.324,303.332C201.638,302.574 199.957,302.978 198.572,304.232C197.188,305.487 196.621,307.12 197.308,307.877C197.994,308.635 199.675,308.231 201.06,306.977ZM183.538,307.046C182.986,306.545 182.586,305.977 182.403,305.45C182.348,305.293 182.314,305.143 182.311,305.004C182.309,304.931 182.301,304.86 182.343,304.813C182.386,304.766 182.457,304.768 182.53,304.762C182.669,304.752 182.822,304.771 182.983,304.81C183.525,304.94 184.13,305.283 184.683,305.783C185.235,306.284 185.635,306.852 185.818,307.379C185.873,307.536 185.907,307.686 185.91,307.826C185.912,307.898 185.92,307.969 185.878,308.016C185.835,308.063 185.764,308.061 185.691,308.067C185.552,308.077 185.4,308.058 185.238,308.019C184.696,307.889 184.091,307.547 183.538,307.046ZM142.047,303.949C143.28,304.679 144.202,305.634 144.581,306.541C144.738,306.92 144.817,307.277 144.651,307.559C144.484,307.841 144.133,307.943 143.725,307.986C142.747,308.091 141.467,307.742 140.233,307.011C139,306.281 138.078,305.326 137.7,304.418C137.542,304.04 137.463,303.683 137.63,303.401C137.796,303.119 138.147,303.017 138.555,302.973C139.533,302.869 140.814,303.218 142.047,303.949ZM114.105,302.293C115.637,302.322 116.856,303.589 116.826,305.121C116.797,306.652 115.53,307.871 113.999,307.842C112.467,307.812 111.248,306.545 111.278,305.014C111.307,303.483 112.574,302.263 114.105,302.293ZM229.264,302.509C230.632,302.026 232.131,302.733 232.609,304.086C233.088,305.44 232.366,306.931 230.998,307.415C229.63,307.898 228.131,307.192 227.653,305.838C227.174,304.484 227.896,302.993 229.264,302.509ZM200.388,306.236C199.836,306.737 199.231,307.079 198.689,307.209C198.527,307.248 198.374,307.267 198.235,307.257C198.163,307.251 198.092,307.253 198.049,307.206C198.006,307.159 198.015,307.088 198.016,307.015C198.02,306.876 198.054,306.726 198.108,306.569C198.291,306.042 198.691,305.474 199.244,304.973C199.796,304.473 200.401,304.13 200.943,304C201.105,303.961 201.258,303.942 201.397,303.952C201.469,303.958 201.54,303.956 201.583,304.003C201.626,304.05 201.617,304.121 201.616,304.194C201.612,304.333 201.578,304.483 201.524,304.64C201.341,305.167 200.941,305.735 200.388,306.236ZM191.701,300.283L195.177,303.759L191.701,307.236L188.225,303.759L191.701,300.283ZM102.282,300.936C99.6,300.118 97.06,300.646 96.613,302.113C96.165,303.581 97.98,305.436 100.662,306.253C103.343,307.071 105.884,306.543 106.331,305.075C106.778,303.608 104.964,301.753 102.282,300.936ZM163.294,305.497C164.952,304.638 165.917,303.203 165.447,302.296C164.976,301.388 163.248,301.349 161.589,302.209C159.931,303.068 158.966,304.503 159.436,305.411C159.907,306.318 161.635,306.357 163.294,305.497ZM191.701,301.698L193.763,303.759C193.763,303.759 191.701,305.821 191.701,305.821C191.701,305.821 189.639,303.759 189.639,303.759L191.701,301.698ZM125.381,300.038C128.092,299.325 130.61,299.95 131.001,301.433C131.391,302.917 129.507,304.701 126.796,305.414C124.084,306.128 121.566,305.503 121.175,304.019C120.785,302.536 122.669,300.752 125.381,300.038ZM101.991,301.892C103.362,302.31 104.484,303.02 105.066,303.812C105.309,304.143 105.47,304.471 105.375,304.784C105.279,305.097 104.962,305.28 104.576,305.418C103.651,305.751 102.324,305.715 100.953,305.297C99.582,304.879 98.46,304.169 97.878,303.377C97.635,303.046 97.474,302.718 97.569,302.405C97.665,302.092 97.981,301.909 98.368,301.77C99.293,301.438 100.62,301.474 101.991,301.892ZM162.834,304.61C162.172,304.953 161.499,305.13 160.942,305.117C160.776,305.113 160.623,305.093 160.491,305.047C160.422,305.023 160.353,305.007 160.324,304.95C160.295,304.894 160.321,304.828 160.341,304.758C160.38,304.624 160.452,304.488 160.544,304.35C160.855,303.887 161.388,303.44 162.049,303.097C162.711,302.754 163.384,302.577 163.941,302.589C164.107,302.593 164.26,302.613 164.392,302.659C164.461,302.683 164.53,302.699 164.559,302.756C164.588,302.812 164.562,302.878 164.542,302.948C164.503,303.082 164.431,303.219 164.339,303.357C164.028,303.819 163.495,304.267 162.834,304.61ZM125.635,301.005C127.021,300.64 128.349,300.655 129.26,301.023C129.641,301.177 129.95,301.371 130.034,301.688C130.117,302.004 129.943,302.326 129.688,302.647C129.075,303.416 127.927,304.082 126.541,304.447C125.155,304.812 123.828,304.797 122.916,304.429C122.535,304.276 122.226,304.081 122.142,303.765C122.059,303.448 122.233,303.126 122.488,302.805C123.101,302.036 124.249,301.37 125.635,301.005ZM75.316,295.154C77.859,295.847 79.36,298.475 78.666,301.017C77.972,303.559 75.345,305.06 72.803,304.367C70.26,303.673 68.759,301.046 69.453,298.503C70.147,295.961 72.774,294.46 75.316,295.154ZM145.497,301.637C144.478,300.071 144.347,298.347 145.204,297.79C146.061,297.233 147.584,298.052 148.602,299.618C149.62,301.185 149.751,302.908 148.894,303.466C148.037,304.023 146.515,303.204 145.497,301.637ZM155.692,296.789L156.052,296.807L158.427,300.885L154.179,303.359L151.705,299.111L155.692,296.789ZM86.274,297.655C89.078,297.626 91.367,298.848 91.382,300.382C91.398,301.916 89.135,303.185 86.331,303.214C83.528,303.242 81.239,302.02 81.223,300.486C81.207,298.952 83.471,297.683 86.274,297.655ZM219.867,302.567C218.238,301.895 217.222,300.63 217.599,299.744C217.975,298.858 219.602,298.684 221.23,299.356C222.859,300.027 223.875,301.292 223.498,302.179C223.122,303.065 221.495,303.239 219.867,302.567ZM146.335,301.092C145.929,300.467 145.687,299.815 145.644,299.26C145.632,299.094 145.637,298.94 145.67,298.804C145.687,298.734 145.696,298.663 145.75,298.629C145.803,298.594 145.871,298.614 145.943,298.627C146.08,298.652 146.223,298.71 146.369,298.789C146.86,299.053 147.357,299.538 147.764,300.163C148.17,300.789 148.412,301.44 148.454,301.996C148.467,302.162 148.462,302.316 148.429,302.451C148.412,302.522 148.403,302.593 148.349,302.627C148.296,302.662 148.228,302.642 148.156,302.629C148.019,302.604 147.876,302.546 147.73,302.467C147.239,302.203 146.741,301.717 146.335,301.092ZM74.79,297.083C76.267,297.486 77.14,299.013 76.737,300.491C76.333,301.968 74.807,302.84 73.329,302.437C71.852,302.034 70.979,300.507 71.383,299.03C71.786,297.552 73.312,296.68 74.79,297.083ZM238.521,296.78C240.691,295.252 243.13,294.963 243.965,296.136C244.8,297.308 243.717,299.5 241.547,301.028C239.378,302.556 236.938,302.845 236.103,301.673C235.268,300.501 236.351,298.308 238.521,296.78ZM86.285,298.655C87.718,298.64 89.001,298.979 89.795,299.559C90.127,299.801 90.379,300.065 90.383,300.392C90.386,300.72 90.139,300.989 89.812,301.238C89.031,301.834 87.754,302.199 86.321,302.214C84.888,302.228 83.604,301.89 82.81,301.31C82.479,301.068 82.226,300.803 82.223,300.476C82.22,300.149 82.467,299.879 82.793,299.63C83.575,299.034 84.851,298.669 86.285,298.655ZM220.235,301.7C219.585,301.432 219.05,301.056 218.722,300.648C218.624,300.526 218.547,300.404 218.501,300.282C218.476,300.218 218.447,300.159 218.47,300.103C218.493,300.048 218.557,300.027 218.621,300C218.741,299.946 218.884,299.915 219.04,299.899C219.565,299.843 220.212,299.954 220.862,300.223C221.512,300.491 222.047,300.867 222.375,301.275C222.473,301.396 222.55,301.518 222.596,301.64C222.621,301.704 222.65,301.764 222.627,301.819C222.604,301.874 222.54,301.895 222.476,301.923C222.356,301.976 222.213,302.007 222.057,302.024C221.532,302.08 220.885,301.968 220.235,301.7ZM155.593,298.004L157.06,300.524C157.06,300.524 154.54,301.992 154.54,301.992C154.54,301.992 153.073,299.472 153.073,299.472L155.593,298.004ZM239.065,297.544C240.175,296.763 241.357,296.335 242.286,296.354C242.674,296.363 243.013,296.431 243.191,296.681C243.37,296.931 243.321,297.271 243.201,297.638C242.911,298.516 242.112,299.483 241.003,300.264C239.894,301.045 238.712,301.474 237.782,301.454C237.394,301.446 237.055,301.378 236.877,301.128C236.699,300.878 236.747,300.538 236.868,300.171C237.157,299.292 237.956,298.326 239.065,297.544ZM104.796,298.83C103.436,297.55 102.901,295.906 103.602,295.161C104.303,294.417 105.976,294.853 107.335,296.134C108.695,297.415 109.23,299.059 108.53,299.803C107.829,300.547 106.156,300.111 104.796,298.83ZM122.349,295.017L121.413,294.961C121.126,295.133 120.841,295.339 120.567,295.579C119.159,296.806 118.561,298.428 119.232,299.199C119.904,299.969 121.593,299.598 123.001,298.371C124.2,297.325 124.811,295.994 124.552,295.146L122.349,295.017ZM225.412,293.146L229.602,295.121L227.584,299.291L223.394,297.316L225.412,293.146ZM105.481,298.102C104.939,297.591 104.549,297.015 104.377,296.485C104.325,296.327 104.294,296.176 104.294,296.037C104.293,295.964 104.286,295.893 104.33,295.847C104.373,295.801 104.444,295.804 104.517,295.8C104.656,295.792 104.808,295.814 104.969,295.856C105.509,295.997 106.107,296.351 106.65,296.862C107.193,297.373 107.582,297.949 107.754,298.479C107.806,298.637 107.837,298.788 107.838,298.928C107.838,299 107.845,299.071 107.802,299.117C107.758,299.164 107.687,299.161 107.614,299.165C107.475,299.173 107.323,299.15 107.162,299.108C106.622,298.968 106.024,298.614 105.481,298.102ZM63.658,292.875C61.257,291.427 58.665,291.317 57.872,292.63C57.08,293.944 58.385,296.186 60.786,297.635C63.186,299.084 65.779,299.193 66.571,297.88C67.364,296.566 66.059,294.324 63.658,292.875ZM122.344,297.617C121.782,298.107 121.17,298.438 120.626,298.557C120.463,298.593 120.31,298.61 120.171,298.596C120.099,298.589 120.028,298.59 119.986,298.542C119.944,298.494 119.954,298.423 119.957,298.351C119.963,298.212 120,298.062 120.058,297.906C120.251,297.383 120.662,296.822 121.224,296.332C121.786,295.842 122.397,295.512 122.942,295.392C123.104,295.356 123.257,295.34 123.396,295.353C123.469,295.36 123.54,295.36 123.581,295.408C123.623,295.456 123.613,295.526 123.61,295.599C123.604,295.738 123.567,295.887 123.51,296.043C123.317,296.566 122.906,297.127 122.344,297.617ZM112.192,294.393L112.206,294.394L111.644,294.934C111.644,294.934 113.666,297.035 113.666,297.035C113.666,297.035 115.767,295.013 115.767,295.013L115.362,294.592L116.838,294.684L117.181,295.041L113.639,298.449L110.23,294.907L110.853,294.307L112.192,294.393ZM235.861,296.108C236.705,294.563 236.701,292.94 235.851,292.487C235.002,292.034 233.626,292.922 232.782,294.467C231.938,296.013 231.942,297.636 232.792,298.089C233.641,298.541 235.016,297.654 235.861,296.108ZM225.854,294.396L228.339,295.568C228.339,295.568 227.142,298.041 227.142,298.041C227.142,298.041 224.657,296.869 224.657,296.869L225.854,294.396ZM63.141,293.731C64.369,294.472 65.283,295.435 65.653,296.345C65.808,296.725 65.884,297.083 65.715,297.363C65.546,297.643 65.194,297.743 64.786,297.783C63.807,297.879 62.53,297.519 61.302,296.779C60.075,296.038 59.161,295.076 58.79,294.165C58.636,293.785 58.56,293.427 58.729,293.147C58.898,292.867 59.25,292.767 59.658,292.727C60.636,292.631 61.914,292.991 63.141,293.731ZM235.03,295.665C234.693,296.282 234.259,296.776 233.816,297.062C233.684,297.148 233.553,297.213 233.426,297.247C233.359,297.266 233.296,297.289 233.244,297.261C233.191,297.233 233.176,297.168 233.155,297.103C233.114,296.979 233.098,296.835 233.098,296.679C233.096,296.156 233.276,295.527 233.613,294.91C233.95,294.294 234.383,293.8 234.827,293.514C234.959,293.428 235.09,293.363 235.217,293.328C235.284,293.31 235.346,293.286 235.399,293.315C235.452,293.343 235.466,293.408 235.488,293.473C235.528,293.597 235.545,293.74 235.545,293.897C235.547,294.42 235.367,295.049 235.03,295.665ZM253.788,291.777C251.135,291.777 248.974,292.945 248.966,294.385C248.958,295.824 251.106,296.993 253.76,296.993C256.413,296.993 258.574,295.825 258.582,294.385C258.59,292.946 256.442,291.777 253.788,291.777ZM264.371,287.957C266.774,287.282 269.268,288.665 269.936,291.044C270.604,293.422 269.195,295.901 266.792,296.576C264.389,297.251 261.895,295.868 261.227,293.49C260.559,291.111 261.968,288.632 264.371,287.957ZM33.608,287.265C34.856,287.435 36.124,287.601 37.408,287.764C37.75,287.807 38.093,287.851 38.443,287.894C39.788,288.952 40.519,290.701 40.193,292.5C39.724,295.094 37.238,296.818 34.644,296.349C32.051,295.88 30.327,293.393 30.796,290.8C31.092,289.166 32.188,287.877 33.608,287.265ZM82.47,292.275C83.859,292.386 85.255,292.496 86.657,292.604C86.784,293.503 85.849,294.707 84.375,295.456C82.709,296.302 80.981,296.249 80.518,295.337C80.077,294.468 80.944,293.13 82.47,292.275ZM253.783,292.715C255.14,292.715 256.349,293.046 257.092,293.597C257.402,293.828 257.637,294.078 257.636,294.385C257.634,294.692 257.396,294.943 257.083,295.173C256.335,295.725 255.121,296.055 253.765,296.055C252.408,296.054 251.199,295.724 250.456,295.173C250.146,294.942 249.911,294.692 249.912,294.385C249.914,294.078 250.152,293.827 250.464,293.597C251.213,293.045 252.426,292.715 253.783,292.715ZM83.922,294.564C83.257,294.902 82.583,295.073 82.026,295.056C81.86,295.051 81.707,295.029 81.576,294.983C81.507,294.958 81.438,294.941 81.41,294.884C81.381,294.828 81.408,294.762 81.428,294.692C81.468,294.559 81.541,294.423 81.635,294.285C81.95,293.825 82.485,293.382 83.15,293.045C83.815,292.707 84.489,292.536 85.046,292.553C85.212,292.558 85.365,292.58 85.496,292.627C85.565,292.651 85.634,292.668 85.662,292.725C85.691,292.781 85.664,292.847 85.644,292.917C85.604,293.051 85.531,293.186 85.437,293.324C85.122,293.784 84.587,294.227 83.922,294.564ZM264.878,289.762C266.275,289.37 267.724,290.174 268.112,291.556C268.5,292.938 267.682,294.379 266.285,294.771C264.888,295.163 263.439,294.36 263.051,292.977C262.663,291.595 263.482,290.154 264.878,289.762ZM35.988,288.92C37.495,289.192 38.498,290.637 38.225,292.144C37.952,293.651 36.507,294.653 35,294.381C33.493,294.108 32.491,292.663 32.764,291.156C33.037,289.649 34.481,288.647 35.988,288.92ZM45.889,288.787C47.902,289.017 49.949,289.243 52.022,289.465C52.476,289.825 52.757,290.265 52.806,290.759C52.955,292.285 50.811,293.747 48.021,294.02C45.23,294.293 42.843,293.275 42.694,291.749C42.574,290.528 43.92,289.35 45.889,288.787ZM66.706,290.921L67.508,290.995C67.899,291.583 68.37,292.041 68.836,292.297C68.982,292.377 69.124,292.436 69.261,292.462C69.333,292.476 69.401,292.496 69.454,292.462C69.508,292.428 69.518,292.358 69.536,292.287C69.57,292.152 69.576,291.998 69.565,291.832C69.551,291.623 69.508,291.4 69.44,291.17L70.088,291.228L70.493,291.264C70.682,292.183 70.523,292.967 69.993,293.305C69.131,293.855 67.615,293.023 66.61,291.449C66.491,291.262 66.384,291.072 66.289,290.883L66.706,290.921ZM74.661,291.628L75.551,291.704L75.65,291.878L75.902,291.734L76.974,291.824L77.66,291.881L75.278,293.242L74.34,291.6L74.661,291.628ZM47.576,289.482C49.003,289.343 50.311,289.568 51.152,290.077C51.504,290.289 51.778,290.53 51.81,290.856C51.842,291.182 51.619,291.472 51.316,291.748C50.589,292.41 49.35,292.885 47.923,293.025C46.497,293.164 45.189,292.939 44.347,292.43C43.996,292.218 43.721,291.977 43.689,291.651C43.657,291.325 43.88,291.035 44.183,290.759C44.91,290.097 46.15,289.622 47.576,289.482ZM20.475,284.896C21.88,285.249 23.338,285.566 24.842,285.858C27.171,287.109 28.517,289.11 27.871,290.43C27.196,291.808 24.604,291.925 22.086,290.691C19.568,289.458 18.072,287.338 18.747,285.96C19.032,285.379 19.658,285.022 20.475,284.896ZM24.092,286.597C25.379,287.228 26.374,288.107 26.822,288.982C27.01,289.347 27.117,289.696 26.973,289.99C26.829,290.284 26.487,290.414 26.083,290.49C25.117,290.671 23.813,290.424 22.526,289.793C21.239,289.162 20.244,288.283 19.795,287.409C19.608,287.044 19.501,286.694 19.645,286.4C19.789,286.106 20.131,285.976 20.534,285.901C21.5,285.719 22.805,285.966 24.092,286.597ZM274.492,284.655C276.758,283.274 279.211,283.146 279.967,284.371C280.723,285.595 279.498,287.712 277.232,289.093C274.967,290.475 272.514,290.603 271.758,289.378C271.001,288.153 272.227,286.037 274.492,284.655ZM255.497,289.2C253.917,288.423 252.986,287.094 253.42,286.234C253.854,285.375 255.489,285.308 257.07,286.086C258.65,286.864 259.581,288.193 259.147,289.052C258.713,289.912 257.078,289.978 255.497,289.2ZM274.985,285.454C276.143,284.747 277.351,284.397 278.277,284.478C278.664,284.512 278.998,284.602 279.159,284.864C279.32,285.125 279.25,285.461 279.105,285.819C278.758,286.677 277.898,287.589 276.739,288.295C275.581,289.002 274.374,289.351 273.447,289.27C273.06,289.237 272.727,289.147 272.566,288.885C272.404,288.624 272.475,288.288 272.619,287.93C272.966,287.072 273.827,286.16 274.985,285.454ZM255.922,288.36C255.291,288.049 254.782,287.639 254.482,287.21C254.392,287.082 254.323,286.956 254.285,286.831C254.265,286.765 254.239,286.704 254.266,286.65C254.293,286.597 254.358,286.58 254.423,286.557C254.547,286.512 254.691,286.49 254.849,286.484C255.376,286.462 256.014,286.616 256.645,286.927C257.276,287.237 257.785,287.648 258.085,288.076C258.175,288.204 258.244,288.331 258.282,288.456C258.302,288.521 258.328,288.583 258.301,288.636C258.274,288.689 258.209,288.706 258.144,288.73C258.02,288.775 257.876,288.796 257.718,288.803C257.191,288.824 256.552,288.67 255.922,288.36ZM263.384,281.126L265.702,282.412L263.414,286.44L259.362,284.193L260.486,282.215C260.802,282.097 261.115,281.98 261.426,281.862L261.865,281.696L260.652,283.831C260.652,283.831 263.055,285.164 263.055,285.164C263.055,285.164 264.413,282.775 264.413,282.775L262.224,281.56L262.815,281.339L263.384,281.126ZM271.882,283.81C272.826,282.323 272.929,280.704 272.111,280.196C271.293,279.688 269.862,280.483 268.918,281.969C267.974,283.456 267.871,285.076 268.689,285.583C269.507,286.091 270.938,285.296 271.882,283.81ZM271.082,283.313C270.705,283.906 270.24,284.37 269.779,284.627C269.641,284.703 269.507,284.76 269.377,284.786C269.31,284.799 269.245,284.819 269.195,284.788C269.144,284.756 269.134,284.69 269.117,284.624C269.084,284.497 269.077,284.353 269.087,284.197C269.12,283.675 269.341,283.06 269.718,282.466C270.095,281.873 270.56,281.409 271.021,281.152C271.159,281.076 271.293,281.019 271.423,280.993C271.49,280.98 271.555,280.96 271.606,280.992C271.657,281.023 271.667,281.089 271.683,281.155C271.716,281.282 271.723,281.426 271.713,281.582C271.68,282.104 271.459,282.72 271.082,283.313ZM6.495,278.391C6.803,278.662 7.12,278.925 7.446,279.178C7.353,279.191 7.262,279.208 7.175,279.228C6.775,279.319 6.438,279.461 6.306,279.761C6.173,280.06 6.293,280.405 6.494,280.763C6.977,281.62 8.004,282.46 9.315,283.041C10.625,283.622 11.938,283.818 12.896,283.6C13.296,283.509 13.633,283.366 13.766,283.067C13.808,282.971 13.825,282.87 13.821,282.766C14.137,282.896 14.458,283.022 14.783,283.145C14.761,283.257 14.727,283.366 14.68,283.472C14.058,284.875 11.473,285.091 8.909,283.955C6.346,282.819 4.77,280.758 5.391,279.356C5.586,278.915 5.975,278.592 6.495,278.391ZM288.539,277.738C286.071,278.712 284.49,280.593 285.011,281.934C285.532,283.276 287.959,283.574 290.428,282.6C292.896,281.626 294.477,279.745 293.956,278.404C293.434,277.062 291.007,276.764 288.539,277.738ZM288.879,278.613C290.141,278.115 291.387,277.978 292.28,278.218C292.653,278.318 292.964,278.465 293.075,278.751C293.186,279.038 293.057,279.358 292.851,279.687C292.357,280.475 291.35,281.227 290.088,281.725C288.826,282.224 287.58,282.361 286.686,282.12C286.313,282.02 286.003,281.873 285.891,281.587C285.78,281.301 285.909,280.98 286.116,280.651C286.61,279.863 287.617,279.111 288.879,278.613ZM-0,271.023C0.591,271.126 1.169,271.342 1.699,271.673C2.301,273.138 3.054,274.455 3.946,275.643C3.966,276.748 3.605,277.864 2.844,278.779C2.092,279.683 1.075,280.239 -0,280.427L-0,278.374C0.494,278.221 0.951,277.927 1.307,277.5C2.286,276.322 2.125,274.571 0.948,273.592C0.66,273.353 0.337,273.181 -0,273.076L-0,271.023ZM300,278.342C298.529,278.456 297.038,277.851 296.087,276.599C294.592,274.632 294.992,271.809 296.98,270.299C297.881,269.614 298.956,269.316 300,269.378L300,271.268C299.353,271.196 298.676,271.365 298.114,271.792C296.959,272.669 296.727,274.31 297.595,275.453C298.176,276.218 299.104,276.567 300,276.452L300,278.342ZM289.182,274.714C287.427,274.571 286.073,273.677 286.161,272.718C286.249,271.759 287.746,271.097 289.501,271.24C291.257,271.383 292.61,272.277 292.522,273.236C292.434,274.195 290.938,274.857 289.182,274.714ZM289.268,273.776C288.568,273.719 287.943,273.524 287.507,273.236C287.377,273.15 287.266,273.057 287.184,272.955C287.142,272.902 287.095,272.854 287.101,272.794C287.106,272.735 287.161,272.695 287.212,272.65C287.311,272.562 287.437,272.489 287.581,272.425C288.064,272.212 288.714,272.121 289.415,272.178C290.116,272.235 290.74,272.43 291.177,272.718C291.307,272.804 291.418,272.897 291.499,272.999C291.542,273.052 291.588,273.1 291.583,273.159C291.577,273.219 291.523,273.258 291.471,273.304C291.372,273.392 291.246,273.465 291.102,273.529C290.62,273.742 289.969,273.833 289.268,273.776ZM293.903,264.354L296.182,264.653L295.532,269.239L290.939,268.637L291.163,267.049C291.536,266.722 291.901,266.389 292.257,266.049L292.005,267.827C292.005,267.827 294.73,268.184 294.73,268.184C294.73,268.184 295.115,265.463 295.115,265.463L293.112,265.2C293.382,264.923 293.645,264.641 293.903,264.354ZM300,260.863L300,262.944C299.976,263.037 299.955,263.132 299.937,263.228C299.804,263.918 299.825,264.572 299.986,265.07L300,265.112L300,266.474C299.134,266.195 298.693,264.712 299.01,263.06C299.184,262.153 299.553,261.374 300,260.863Z" style="fill:#fff;"/>
        </g>
    </g>
</svg>
