<?xml version="1.0" encoding="UTF-8" standalone="no"?>
<!DOCTYPE svg PUBLIC "-//W3C//DTD SVG 1.1//EN" "http://www.w3.org/Graphics/SVG/1.1/DTD/svg11.dtd">
<svg width="100%" height="100%" viewBox="0 0 300 345" version="1.1" xmlns="http://www.w3.org/2000/svg" xmlns:xlink="http://www.w3.org/1999/xlink" xml:space="preserve" xmlns:serif="http://www.serif.com/" style="fill-rule:evenodd;clip-rule:evenodd;stroke-linecap:round;stroke-linejoin:round;">
    <g id="avatar_clothing_14">
        <path d="M36.38,345C16.423,345 -0,328.577 -0,308.62L0,262L-0,262.01C-0,281.967 16.423,298.39 36.38,298.39L70.733,298.389L79.309,300.842L217.709,300.842L228.353,298.39L263.62,298.39C283.577,298.39 300,281.967 300,262.01L300,308.62C300,328.577 283.577,345 263.62,345L36.38,345Z" style="fill:#7b3041;fill-rule:nonzero;"/>
        <path d="M7.176,330.206L292.824,330.206C297.326,324.15 300,316.673 300,308.62L300,303.5L-0,303.5L-0,308.62C-0,316.673 2.674,324.15 7.176,330.206Z" style="fill:#e8393e;fill-rule:nonzero;"/>
        <g transform="matrix(1,0,0,1,-0.457096,0.678918)">
            <path d="M235.066,297.71L151.96,300.513L153.572,302.821L174.019,332.081C175.95,334.589 178.943,336.061 182.108,336.061C184.997,336.061 187.906,334.835 190.375,332.767L235.066,297.71Z" style="fill:#7b3041;fill-opacity:0.5;fill-rule:nonzero;"/>
        </g>
        <g transform="matrix(1,0,0,1,-0.457096,0.678918)">
            <path d="M228.81,297.71L154.709,297.71L174.31,326.22C176.239,328.731 179.232,330.206 182.399,330.206C185.289,330.206 187.62,329.161 190.224,327.196L228.81,297.71Z" style="fill:#fff;fill-rule:nonzero;"/>
        </g>
        <path d="M154.1,300.911L154.1,345L138.791,345L138.791,313.775L125.524,332.76C123.592,335.268 120.6,336.74 117.435,336.74C114.546,336.74 111.636,335.514 109.168,333.446L64.477,298.389L71.795,298.389L154.1,300.911Z" style="fill:#6d1c2e;fill-opacity:0.5;"/>
        <g transform="matrix(-1,0,0,1,299.543,0.678918)">
            <path d="M228.81,297.71L154.709,297.71L174.31,326.22C176.239,328.731 179.232,330.206 182.399,330.206C185.289,330.206 187.62,329.161 190.224,327.196L228.81,297.71Z" style="fill:#fff;fill-rule:nonzero;"/>
        </g>
        <g transform="matrix(1,0,0,0.989536,0,7.57224)">
            <rect x="142.096" y="293.892" width="14.895" height="47.104" style="fill:#fff;"/>
        </g>
        <g transform="matrix(0.825109,0,0,0.825109,26.6107,58.8868)">
            <g transform="matrix(1,0,0,1,-0.716108,0.0832963)">
                <circle cx="150.259" cy="309.592" r="4.969" style="fill:#a8a8a8;stroke:#828282;stroke-width:1.21px;"/>
            </g>
            <path d="M150.948,310.137C150.427,310.137 150.003,310.561 150.003,311.083C150.003,311.604 150.427,312.028 150.948,312.028C151.47,312.028 151.894,311.604 151.894,311.083C151.894,310.561 151.47,310.137 150.948,310.137ZM148.202,310.137C147.68,310.137 147.257,310.561 147.257,311.083C147.257,311.604 147.68,312.028 148.202,312.028C148.724,312.028 149.147,311.604 149.147,311.083C149.147,310.561 148.724,310.137 148.202,310.137ZM150.948,310.637C151.194,310.637 151.394,310.837 151.394,311.083C151.394,311.328 151.194,311.528 150.948,311.528C150.703,311.528 150.503,311.328 150.503,311.083C150.503,310.837 150.703,310.637 150.948,310.637ZM148.202,310.637C148.448,310.637 148.647,310.837 148.647,311.083C148.647,311.328 148.448,311.528 148.202,311.528C147.956,311.528 147.757,311.328 147.757,311.083C147.757,310.837 147.956,310.637 148.202,310.637ZM148.202,307.323C147.68,307.323 147.257,307.746 147.257,308.268C147.257,308.79 147.68,309.213 148.202,309.213C148.724,309.213 149.147,308.79 149.147,308.268C149.147,307.746 148.724,307.323 148.202,307.323ZM150.948,307.323C150.427,307.323 150.003,307.746 150.003,308.268C150.003,308.79 150.427,309.213 150.948,309.213C151.47,309.213 151.894,308.79 151.894,308.268C151.894,307.746 151.47,307.323 150.948,307.323ZM148.202,307.823C148.448,307.823 148.647,308.022 148.647,308.268C148.647,308.514 148.448,308.713 148.202,308.713C147.956,308.713 147.757,308.514 147.757,308.268C147.757,308.022 147.956,307.823 148.202,307.823ZM150.948,307.823C151.194,307.823 151.394,308.022 151.394,308.268C151.394,308.514 151.194,308.713 150.948,308.713C150.703,308.713 150.503,308.514 150.503,308.268C150.503,308.022 150.703,307.823 150.948,307.823Z" style="fill:#828282;"/>
            <path d="M147.996,308.622L150.495,311.218C150.648,311.377 150.901,311.382 151.06,311.228C151.219,311.075 151.224,310.822 151.071,310.663L148.572,308.067C148.419,307.908 148.165,307.904 148.006,308.057C147.847,308.21 147.842,308.463 147.996,308.622Z" style="fill:#606060;"/>
            <g transform="matrix(-1,0,0,1,299.067,0)">
                <path d="M147.996,308.622L150.495,311.218C150.648,311.377 150.901,311.382 151.06,311.228C151.219,311.075 151.224,310.822 151.071,310.663L148.572,308.067C148.419,307.908 148.165,307.904 148.006,308.057C147.847,308.21 147.842,308.463 147.996,308.622Z" style="fill:#606060;"/>
            </g>
        </g>
        <g transform="matrix(0.738489,-0.368022,0.368022,0.738489,-74.403,162.16)">
            <g transform="matrix(1,0,0,1,-0.716108,0.0832963)">
                <circle cx="150.259" cy="309.592" r="4.969" style="fill:#a8a8a8;stroke:#828282;stroke-width:1.21px;"/>
            </g>
            <path d="M150.948,310.137C150.427,310.137 150.003,310.561 150.003,311.083C150.003,311.604 150.427,312.028 150.948,312.028C151.47,312.028 151.894,311.604 151.894,311.083C151.894,310.561 151.47,310.137 150.948,310.137ZM148.202,310.137C147.68,310.137 147.257,310.561 147.257,311.083C147.257,311.604 147.68,312.028 148.202,312.028C148.724,312.028 149.147,311.604 149.147,311.083C149.147,310.561 148.724,310.137 148.202,310.137ZM150.948,310.637C151.194,310.637 151.394,310.837 151.394,311.083C151.394,311.328 151.194,311.528 150.948,311.528C150.703,311.528 150.503,311.328 150.503,311.083C150.503,310.837 150.703,310.637 150.948,310.637ZM148.202,310.637C148.448,310.637 148.647,310.837 148.647,311.083C148.647,311.328 148.448,311.528 148.202,311.528C147.956,311.528 147.757,311.328 147.757,311.083C147.757,310.837 147.956,310.637 148.202,310.637ZM148.202,307.323C147.68,307.323 147.257,307.746 147.257,308.268C147.257,308.79 147.68,309.213 148.202,309.213C148.724,309.213 149.147,308.79 149.147,308.268C149.147,307.746 148.724,307.323 148.202,307.323ZM150.948,307.323C150.427,307.323 150.003,307.746 150.003,308.268C150.003,308.79 150.427,309.213 150.948,309.213C151.47,309.213 151.894,308.79 151.894,308.268C151.894,307.746 151.47,307.323 150.948,307.323ZM148.202,307.823C148.448,307.823 148.647,308.022 148.647,308.268C148.647,308.514 148.448,308.713 148.202,308.713C147.956,308.713 147.757,308.514 147.757,308.268C147.757,308.022 147.956,307.823 148.202,307.823ZM150.948,307.823C151.194,307.823 151.394,308.022 151.394,308.268C151.394,308.514 151.194,308.713 150.948,308.713C150.703,308.713 150.503,308.514 150.503,308.268C150.503,308.022 150.703,307.823 150.948,307.823Z" style="fill:#828282;"/>
            <path d="M147.996,308.622L150.495,311.218C150.648,311.377 150.901,311.382 151.06,311.228C151.219,311.075 151.224,310.822 151.071,310.663L148.572,308.067C148.419,307.908 148.165,307.904 148.006,308.057C147.847,308.21 147.842,308.463 147.996,308.622Z" style="fill:#606060;"/>
            <g transform="matrix(-1,0,0,1,299.067,0)">
                <path d="M147.996,308.622L150.495,311.218C150.648,311.377 150.901,311.382 151.06,311.228C151.219,311.075 151.224,310.822 151.071,310.663L148.572,308.067C148.419,307.908 148.165,307.904 148.006,308.057C147.847,308.21 147.842,308.463 147.996,308.622Z" style="fill:#606060;"/>
            </g>
        </g>
    </g>
</svg>
