<?xml version="1.0" encoding="UTF-8" standalone="no"?>
<!DOCTYPE svg PUBLIC "-//W3C//DTD SVG 1.1//EN" "http://www.w3.org/Graphics/SVG/1.1/DTD/svg11.dtd">
<svg width="100%" height="100%" viewBox="0 0 300 345" version="1.1" xmlns="http://www.w3.org/2000/svg" xmlns:xlink="http://www.w3.org/1999/xlink" xml:space="preserve" xmlns:serif="http://www.serif.com/" style="fill-rule:evenodd;clip-rule:evenodd;stroke-linejoin:round;stroke-miterlimit:2;">
    <g id="avatar_clothing_57">
        <path d="M263.62,298.39L179,298.39C175,305.18 166.59,314.16 150,314.16C133.41,314.16 125,305.16 121,298.39L36.38,298.39C16.423,298.39 -0,281.967 -0,262.01C-0,262.007 -0,262.003 0,262L0,308.61C-0,308.613 -0,308.617 -0,308.62C-0,328.577 16.423,345 36.38,345L263.62,345C283.577,345 300,328.577 300,308.62L300,262C300,262.003 300,262.007 300,262.01C300,281.967 283.577,298.39 263.62,298.39Z" style="fill:#363636;fill-rule:nonzero;"/>
        <path d="M150,321.3C171.61,321.3 183.19,308.76 189.07,298.39L179,298.39C175,305.18 166.59,314.16 150,314.16C133.41,314.16 125,305.16 121,298.39L110.9,298.39C116.81,308.76 128.39,321.3 150,321.3Z" style="fill:#202020;fill-rule:nonzero;"/>
        <path d="M43.378,345L44.025,315.729C44.162,312.077 46.199,310.103 50.182,309.845L249.181,309.845C253.164,310.103 255.202,312.077 255.339,315.729L255.985,345L43.378,345Z" style="fill:#c0ae96;fill-rule:nonzero;"/>
        <path d="M150.05,312.42L150.05,312.42C150.045,312.42 150.04,312.421 150.035,312.423L150.035,312.42L52.619,312.42C52.608,312.42 52.598,312.421 52.587,312.421C50.454,312.559 48.849,313.176 47.752,314.229C46.643,315.292 46.036,316.808 45.962,318.785L45.265,344.987C45.261,345.122 45.312,345.252 45.406,345.349C45.5,345.445 45.63,345.5 45.765,345.5L254.017,345.5C254.152,345.5 254.281,345.446 254.375,345.35C254.469,345.253 254.52,345.123 254.517,344.989L253.921,318.785C253.847,316.808 253.24,315.292 252.131,314.229C251.034,313.176 249.429,312.559 247.296,312.421C247.285,312.421 247.274,312.42 247.264,312.42L150.05,312.42L150.05,312.42ZM46.278,344.5L46.961,318.82C47.025,317.147 47.505,315.851 48.444,314.95C49.391,314.042 50.788,313.543 52.626,313.421C52.636,313.42 150.035,313.42 150.035,313.42L247.247,313.42C249.089,313.542 250.49,314.04 251.439,314.95C252.378,315.851 252.858,317.147 252.921,318.82C252.921,318.819 253.506,344.5 253.506,344.5L46.278,344.5Z" style="fill:#a5937a;"/>
        <g transform="matrix(1,0,0,1,0,-2.97991)">
            <path d="M122.961,312.92L81.732,312.92C81.698,315.895 82.156,319 84.734,320.858C89.304,324.15 91.964,318.181 96.31,319.057C99.532,319.706 101.104,323.257 103.444,325.214C107.974,329.005 116.07,329.27 120.097,324.698C123.122,321.263 123.865,316.942 122.961,312.92Z" style="fill:#ef1d19;"/>
        </g>
        <path d="M105.64,321.987C106.753,322.842 107.985,323.413 109.36,323.707C110.17,323.88 110.968,323.363 111.141,322.553C111.314,321.744 110.797,320.946 109.987,320.773C109.055,320.574 108.221,320.187 107.468,319.608C106.811,319.103 105.869,319.227 105.364,319.884C104.86,320.54 104.984,321.483 105.64,321.987ZM118.88,315.014C118.789,316.477 117.908,317.813 116.765,318.683C116.106,319.184 115.979,320.126 116.48,320.785C116.982,321.444 117.923,321.571 118.582,321.07C120.398,319.688 121.73,317.524 121.874,315.2C121.925,314.373 121.296,313.661 120.47,313.61C119.644,313.558 118.931,314.188 118.88,315.014ZM88.598,317.783C89.353,317.594 90.055,317.309 90.741,316.94C91.471,316.549 91.745,315.639 91.354,314.909C90.962,314.18 90.052,313.906 89.323,314.297C88.857,314.547 88.382,314.745 87.868,314.873C87.065,315.075 86.577,315.89 86.778,316.693C86.979,317.496 87.795,317.985 88.598,317.783Z" style="fill:#ee514e;"/>
        <path d="M66.789,345C70.341,341.974 75.645,340.919 80.277,341.999C82.012,342.403 84.364,343.476 86.112,345L66.789,345Z" style="fill:#00ae4e;"/>
        <path d="M151.096,345C151.363,343.778 151.841,342.605 152.41,341.495C152.875,340.586 153.496,339.682 154.296,339.033C161.235,333.414 166.442,343.086 173.4,339.704C176.262,338.313 177.118,335.027 178.358,332.354C179.938,328.948 182.406,325.771 185.976,324.318C192.093,321.828 198.479,324.586 202.06,329.774C203.598,332.002 204.479,335.246 206.883,336.749C208.996,338.069 211.249,337.728 213.534,338.323C216.735,339.157 219.185,341.938 220.234,345L151.096,345Z" style="fill:#009ee0;"/>
        <path d="M213.17,342.427C213.572,342.604 214.045,342.753 214.357,343.078C214.931,343.675 215.881,343.693 216.478,343.119C217.075,342.545 217.093,341.595 216.519,340.998C215.939,340.396 215.124,340.01 214.378,339.682C213.62,339.348 212.734,339.693 212.401,340.45C212.068,341.208 212.412,342.094 213.17,342.427ZM157.33,342.243C158.202,341.447 159.362,341.66 160.384,342.098C161.145,342.424 162.028,342.07 162.353,341.309C162.679,340.548 162.326,339.666 161.565,339.34C159.46,338.439 157.105,338.388 155.308,340.026C154.696,340.584 154.653,341.534 155.21,342.145C155.768,342.757 156.718,342.801 157.33,342.243ZM197.427,331.77C198.095,332.44 198.625,333.445 198.993,334.322C199.313,335.086 200.193,335.446 200.957,335.126C201.72,334.805 202.08,333.926 201.76,333.162C201.25,331.948 200.478,330.582 199.554,329.653C198.97,329.067 198.019,329.064 197.432,329.648C196.846,330.233 196.843,331.183 197.427,331.77ZM183.023,333.962C184.251,331.514 186.07,328.97 188.846,328.236C189.367,328.099 189.905,328.122 190.44,328.115C190.976,328.108 191.48,328.084 191.997,328.248C192.787,328.499 193.63,328.061 193.881,327.272C194.131,326.483 193.694,325.639 192.905,325.389C192.071,325.124 191.265,325.104 190.401,325.115C189.621,325.125 188.839,325.135 188.079,325.336C184.467,326.291 181.939,329.432 180.342,332.618C179.971,333.358 180.27,334.26 181.01,334.631C181.75,335.002 182.652,334.702 183.023,333.962Z" style="fill:#0fb8ff;"/>
        <path d="M238.212,317.027C243.612,317.027 247.996,321.411 247.996,326.81C247.996,332.21 243.612,336.594 238.212,336.594C232.812,336.594 228.428,332.21 228.428,326.81C228.428,321.411 232.812,317.027 238.212,317.027ZM62.785,317.027C68.185,317.027 72.569,321.411 72.569,326.81C72.569,332.21 68.185,336.594 62.785,336.594C57.385,336.594 53.001,332.21 53.001,326.81C53.001,321.411 57.385,317.027 62.785,317.027Z" style="fill:#363636;"/>
        <path d="M238.106,314.887C244.687,314.887 250.03,320.23 250.03,326.81C250.03,333.391 244.687,338.734 238.106,338.734C231.526,338.734 226.183,333.391 226.183,326.81C226.183,320.23 231.526,314.887 238.106,314.887ZM62.67,314.887C69.251,314.887 74.594,320.23 74.594,326.81C74.594,333.391 69.251,338.734 62.67,338.734C56.09,338.734 50.747,333.391 50.747,326.81C50.747,320.23 56.09,314.887 62.67,314.887ZM238.106,317.887C243.031,317.887 247.03,321.885 247.03,326.81C247.03,331.736 243.031,335.734 238.106,335.734C233.181,335.734 229.183,331.736 229.183,326.81C229.183,321.885 233.181,317.887 238.106,317.887ZM62.67,317.887C67.595,317.887 71.594,321.885 71.594,326.81C71.594,331.736 67.595,335.734 62.67,335.734C57.745,335.734 53.747,331.736 53.747,326.81C53.747,321.885 57.745,317.887 62.67,317.887Z" style="fill:#cd8e2a;"/>
        <path d="M54.722,298.39L54.722,322.587C54.722,326.037 57.561,328.877 61.012,328.877L63.473,328.877C66.924,328.877 69.763,326.037 69.763,322.587L69.763,298.39L54.722,298.39ZM230.237,298.39L230.237,322.587C230.237,326.037 233.076,328.877 236.527,328.877L238.988,328.877C242.439,328.877 245.278,326.037 245.278,322.587L245.278,298.39L230.237,298.39Z" style="fill:#70604b;fill-rule:nonzero;"/>
    </g>
</svg>
