<?xml version="1.0" encoding="UTF-8" standalone="no"?>
<!DOCTYPE svg PUBLIC "-//W3C//DTD SVG 1.1//EN" "http://www.w3.org/Graphics/SVG/1.1/DTD/svg11.dtd">
<svg width="100%" height="100%" viewBox="0 0 300 345" version="1.1" xmlns="http://www.w3.org/2000/svg" xmlns:xlink="http://www.w3.org/1999/xlink" xml:space="preserve" xmlns:serif="http://www.serif.com/" style="fill-rule:evenodd;clip-rule:evenodd;stroke-linecap:round;stroke-linejoin:round;stroke-miterlimit:1.5;">
    <g id="avatar_clothing_19">
        <g>
            <path d="M-0,262.01C-0,281.962 16.418,298.38 36.37,298.38L130.683,298.38L162.114,319.689C165.768,322.111 167.612,325.437 167.399,329.792L167.399,345L36.38,345C16.423,345 -0,328.577 -0,308.62L0,262L-0,262.01Z" style="fill:#0e289a;fill-rule:nonzero;"/>
            <path d="M41.684,345C41.351,344.637 41.149,344.154 41.149,343.624C41.149,342.498 42.063,341.584 43.188,341.584C44.314,341.584 45.228,342.498 45.228,343.624C45.228,344.154 45.025,344.637 44.693,345L41.684,345ZM48.418,345C48.085,344.637 47.883,344.154 47.883,343.624C47.883,342.498 48.796,341.584 49.922,341.584C51.048,341.584 51.962,342.498 51.962,343.624C51.962,344.154 51.759,344.637 51.427,345L48.418,345ZM55.442,345C55.11,344.637 54.907,344.154 54.907,343.624C54.907,342.498 55.821,341.584 56.947,341.584C58.073,341.584 58.987,342.498 58.987,343.624C58.987,344.154 58.784,344.637 58.451,345L55.442,345ZM62.176,345C61.844,344.637 61.641,344.154 61.641,343.624C61.641,342.498 62.555,341.584 63.681,341.584C64.807,341.584 65.72,342.498 65.72,343.624C65.72,344.154 65.518,344.637 65.185,345L62.176,345ZM34.6,344.956C34.291,344.599 34.104,344.133 34.104,343.624C34.104,342.498 35.018,341.584 36.143,341.584C37.269,341.584 38.183,342.498 38.183,343.624C38.183,344.154 37.98,344.637 37.648,345L36.072,344.999L35.028,344.975L34.6,344.956ZM69.221,345C68.889,344.637 68.686,344.154 68.686,343.624C68.686,342.498 69.6,341.584 70.726,341.584C71.851,341.584 72.765,342.498 72.765,343.624C72.765,344.154 72.562,344.637 72.23,345L69.221,345ZM75.955,345C75.623,344.637 75.42,344.154 75.42,343.624C75.42,342.498 76.334,341.584 77.46,341.584C78.585,341.584 79.499,342.498 79.499,343.624C79.499,344.154 79.296,344.637 78.964,345L75.955,345ZM82.812,345C82.48,344.637 82.277,344.154 82.277,343.624C82.277,342.498 83.191,341.584 84.317,341.584C85.443,341.584 86.357,342.498 86.357,343.624C86.357,344.154 86.154,344.637 85.821,345L82.812,345ZM89.546,345C89.214,344.637 89.011,344.154 89.011,343.624C89.011,342.498 89.925,341.584 91.051,341.584C92.177,341.584 93.09,342.498 93.09,343.624C93.09,344.154 92.888,344.637 92.555,345L89.546,345ZM96.591,345C96.259,344.637 96.056,344.154 96.056,343.624C96.056,342.498 96.97,341.584 98.096,341.584C99.221,341.584 100.135,342.498 100.135,343.624C100.135,344.154 99.932,344.637 99.6,345L96.591,345ZM103.325,345C102.993,344.637 102.79,344.154 102.79,343.624C102.79,342.498 103.704,341.584 104.829,341.584C105.955,341.584 106.869,342.498 106.869,343.624C106.869,344.154 106.666,344.637 106.334,345L103.325,345ZM110.492,345C110.16,344.637 109.957,344.154 109.957,343.624C109.957,342.498 110.871,341.584 111.997,341.584C113.123,341.584 114.037,342.498 114.037,343.624C114.037,344.154 113.834,344.637 113.501,345L110.492,345ZM117.226,345C116.894,344.637 116.691,344.154 116.691,343.624C116.691,342.498 117.605,341.584 118.731,341.584C119.857,341.584 120.77,342.498 120.77,343.624C120.77,344.154 120.568,344.637 120.235,345L117.226,345ZM124.271,345C123.939,344.637 123.736,344.154 123.736,343.624C123.736,342.498 124.65,341.584 125.776,341.584C126.901,341.584 127.815,342.498 127.815,343.624C127.815,344.154 127.612,344.637 127.28,345L124.271,345ZM131.005,345C130.673,344.637 130.47,344.154 130.47,343.624C130.47,342.498 131.384,341.584 132.51,341.584C133.635,341.584 134.549,342.498 134.549,343.624C134.549,344.154 134.346,344.637 134.014,345L131.005,345ZM137.862,342.247L137.862,345C137.53,344.637 137.327,344.154 137.327,343.624C137.327,343.093 137.53,342.61 137.862,342.247ZM27.614,343.918L27.384,343.859C27.375,343.782 27.37,343.703 27.37,343.624C27.37,342.498 28.284,341.584 29.41,341.584C30.535,341.584 31.449,342.498 31.449,343.624C31.449,343.987 31.354,344.329 31.186,344.625C30.219,344.484 29.264,344.305 28.323,344.088L27.614,343.918ZM21.594,341.823C21.88,341.67 22.206,341.584 22.552,341.584C23.453,341.584 24.218,342.169 24.488,342.98C23.504,342.635 22.539,342.249 21.594,341.823ZM128.997,334.599C130.123,334.599 131.037,335.513 131.037,336.639C131.037,337.764 130.123,338.678 128.997,338.678C127.872,338.678 126.958,337.764 126.958,336.639C126.958,335.513 127.872,334.599 128.997,334.599ZM25.774,334.599C26.9,334.599 27.813,335.513 27.813,336.639C27.813,337.764 26.9,338.678 25.774,338.678C24.648,338.678 23.734,337.764 23.734,336.639C23.734,335.513 24.648,334.599 25.774,334.599ZM32.631,334.599C33.757,334.599 34.671,335.513 34.671,336.639C34.671,337.764 33.757,338.678 32.631,338.678C31.506,338.678 30.592,337.764 30.592,336.639C30.592,335.513 31.506,334.599 32.631,334.599ZM39.365,334.599C40.491,334.599 41.405,335.513 41.405,336.639C41.405,337.764 40.491,338.678 39.365,338.678C38.24,338.678 37.326,337.764 37.326,336.639C37.326,335.513 38.24,334.599 39.365,334.599ZM53.144,334.599C54.27,334.599 55.183,335.513 55.183,336.639C55.183,337.764 54.27,338.678 53.144,338.678C52.018,338.678 51.104,337.764 51.104,336.639C51.104,335.513 52.018,334.599 53.144,334.599ZM60.169,334.599C61.294,334.599 62.208,335.513 62.208,336.639C62.208,337.764 61.294,338.678 60.169,338.678C59.043,338.678 58.129,337.764 58.129,336.639C58.129,335.513 59.043,334.599 60.169,334.599ZM66.903,334.599C68.028,334.599 68.942,335.513 68.942,336.639C68.942,337.764 68.028,338.678 66.903,338.678C65.777,338.678 64.863,337.764 64.863,336.639C64.863,335.513 65.777,334.599 66.903,334.599ZM73.947,334.599C75.073,334.599 75.987,335.513 75.987,336.639C75.987,337.764 75.073,338.678 73.947,338.678C72.822,338.678 71.908,337.764 71.908,336.639C71.908,335.513 72.822,334.599 73.947,334.599ZM87.539,334.599C88.664,334.599 89.578,335.513 89.578,336.639C89.578,337.764 88.664,338.678 87.539,338.678C86.413,338.678 85.499,337.764 85.499,336.639C85.499,335.513 86.413,334.599 87.539,334.599ZM94.273,334.599C95.398,334.599 96.312,335.513 96.312,336.639C96.312,337.764 95.398,338.678 94.273,338.678C93.147,338.678 92.233,337.764 92.233,336.639C92.233,335.513 93.147,334.599 94.273,334.599ZM101.317,334.599C102.443,334.599 103.357,335.513 103.357,336.639C103.357,337.764 102.443,338.678 101.317,338.678C100.192,338.678 99.278,337.764 99.278,336.639C99.278,335.513 100.192,334.599 101.317,334.599ZM108.051,334.599C109.177,334.599 110.091,335.513 110.091,336.639C110.091,337.764 109.177,338.678 108.051,338.678C106.926,338.678 106.012,337.764 106.012,336.639C106.012,335.513 106.926,334.599 108.051,334.599ZM46.41,334.599C47.536,334.599 48.45,335.513 48.45,336.639C48.45,337.764 47.536,338.678 46.41,338.678C45.284,338.678 44.37,337.764 44.37,336.639C44.37,335.513 45.284,334.599 46.41,334.599ZM121.953,334.599C123.078,334.599 123.992,335.513 123.992,336.639C123.992,337.764 123.078,338.678 121.953,338.678C120.827,338.678 119.913,337.764 119.913,336.639C119.913,335.513 120.827,334.599 121.953,334.599ZM135.731,334.599C136.857,334.599 137.771,335.513 137.771,336.639C137.771,337.764 136.857,338.678 135.731,338.678C134.606,338.678 133.692,337.764 133.692,336.639C133.692,335.513 134.606,334.599 135.731,334.599ZM80.681,334.599C81.807,334.599 82.721,335.513 82.721,336.639C82.721,337.764 81.807,338.678 80.681,338.678C79.556,338.678 78.642,337.764 78.642,336.639C78.642,335.513 79.556,334.599 80.681,334.599ZM115.219,334.599C116.344,334.599 117.258,335.513 117.258,336.639C117.258,337.764 116.344,338.678 115.219,338.678C114.093,338.678 113.179,337.764 113.179,336.639C113.179,335.513 114.093,334.599 115.219,334.599ZM19.04,334.599C20.166,334.599 21.08,335.513 21.08,336.639C21.08,337.764 20.166,338.678 19.04,338.678C17.914,338.678 17,337.764 17,336.639C17,335.513 17.914,334.599 19.04,334.599ZM11.187,334.766C11.434,334.658 11.708,334.599 11.995,334.599C13.121,334.599 14.035,335.513 14.035,336.639C14.035,336.828 14.009,337.012 13.96,337.186L13.098,336.485L12.257,335.758L11.506,335.07L11.187,334.766ZM29.41,328.499C30.535,328.499 31.449,329.413 31.449,330.538C31.449,331.664 30.535,332.578 29.41,332.578C28.284,332.578 27.37,331.664 27.37,330.538C27.37,329.413 28.284,328.499 29.41,328.499ZM36.143,328.499C37.269,328.499 38.183,329.413 38.183,330.538C38.183,331.664 37.269,332.578 36.143,332.578C35.018,332.578 34.104,331.664 34.104,330.538C34.104,329.413 35.018,328.499 36.143,328.499ZM49.922,328.499C51.048,328.499 51.962,329.413 51.962,330.538C51.962,331.664 51.048,332.578 49.922,332.578C48.796,332.578 47.883,331.664 47.883,330.538C47.883,329.413 48.796,328.499 49.922,328.499ZM56.947,328.499C58.073,328.499 58.987,329.413 58.987,330.538C58.987,331.664 58.073,332.578 56.947,332.578C55.821,332.578 54.907,331.664 54.907,330.538C54.907,329.413 55.821,328.499 56.947,328.499ZM70.726,328.499C71.851,328.499 72.765,329.413 72.765,330.538C72.765,331.664 71.851,332.578 70.726,332.578C69.6,332.578 68.686,331.664 68.686,330.538C68.686,329.413 69.6,328.499 70.726,328.499ZM77.46,328.499C78.585,328.499 79.499,329.413 79.499,330.538C79.499,331.664 78.585,332.578 77.46,332.578C76.334,332.578 75.42,331.664 75.42,330.538C75.42,329.413 76.334,328.499 77.46,328.499ZM84.317,328.499C85.443,328.499 86.357,329.413 86.357,330.538C86.357,331.664 85.443,332.578 84.317,332.578C83.191,332.578 82.277,331.664 82.277,330.538C82.277,329.413 83.191,328.499 84.317,328.499ZM91.051,328.499C92.177,328.499 93.09,329.413 93.09,330.538C93.09,331.664 92.177,332.578 91.051,332.578C89.925,332.578 89.011,331.664 89.011,330.538C89.011,329.413 89.925,328.499 91.051,328.499ZM98.096,328.499C99.221,328.499 100.135,329.413 100.135,330.538C100.135,331.664 99.221,332.578 98.096,332.578C96.97,332.578 96.056,331.664 96.056,330.538C96.056,329.413 96.97,328.499 98.096,328.499ZM104.829,328.499C105.955,328.499 106.869,329.413 106.869,330.538C106.869,331.664 105.955,332.578 104.829,332.578C103.704,332.578 102.79,331.664 102.79,330.538C102.79,329.413 103.704,328.499 104.829,328.499ZM111.997,328.499C113.123,328.499 114.037,329.413 114.037,330.538C114.037,331.664 113.123,332.578 111.997,332.578C110.871,332.578 109.957,331.664 109.957,330.538C109.957,329.413 110.871,328.499 111.997,328.499ZM43.188,328.499C44.314,328.499 45.228,329.413 45.228,330.538C45.228,331.664 44.314,332.578 43.188,332.578C42.063,332.578 41.149,331.664 41.149,330.538C41.149,329.413 42.063,328.499 43.188,328.499ZM118.731,328.499C119.857,328.499 120.77,329.413 120.77,330.538C120.77,331.664 119.857,332.578 118.731,332.578C117.605,332.578 116.691,331.664 116.691,330.538C116.691,329.413 117.605,328.499 118.731,328.499ZM125.776,328.499C126.901,328.499 127.815,329.413 127.815,330.538C127.815,331.664 126.901,332.578 125.776,332.578C124.65,332.578 123.736,331.664 123.736,330.538C123.736,329.413 124.65,328.499 125.776,328.499ZM132.51,328.499C133.635,328.499 134.549,329.413 134.549,330.538C134.549,331.664 133.635,332.578 132.51,332.578C131.384,332.578 130.47,331.664 130.47,330.538C130.47,329.413 131.384,328.499 132.51,328.499ZM63.681,328.499C64.807,328.499 65.72,329.413 65.72,330.538C65.72,331.664 64.807,332.578 63.681,332.578C62.555,332.578 61.641,331.664 61.641,330.538C61.641,329.413 62.555,328.499 63.681,328.499ZM15.818,328.499C16.944,328.499 17.858,329.413 17.858,330.538C17.858,331.664 16.944,332.578 15.818,332.578C14.693,332.578 13.779,331.664 13.779,330.538C13.779,329.413 14.693,328.499 15.818,328.499ZM22.552,328.499C23.678,328.499 24.592,329.413 24.592,330.538C24.592,331.664 23.678,332.578 22.552,332.578C21.426,332.578 20.513,331.664 20.513,330.538C20.513,329.413 21.426,328.499 22.552,328.499ZM9.076,332.556C8.299,331.672 7.564,330.751 6.874,329.795C7.171,329.036 7.91,328.499 8.774,328.499C9.899,328.499 10.813,329.413 10.813,330.538C10.813,331.561 10.058,332.409 9.076,332.556ZM137.557,329.598C137.707,330.261 137.809,330.946 137.862,331.652L137.862,331.915C137.53,331.552 137.327,331.069 137.327,330.538C137.327,330.199 137.41,329.879 137.557,329.598ZM128.997,322.387C130.123,322.387 131.037,323.301 131.037,324.426C131.037,325.552 130.123,326.466 128.997,326.466C127.872,326.466 126.958,325.552 126.958,324.426C126.958,323.301 127.872,322.387 128.997,322.387ZM3.336,323.754C3.614,322.958 4.371,322.387 5.261,322.387C6.387,322.387 7.301,323.301 7.301,324.426C7.301,325.552 6.387,326.466 5.261,326.466C5.062,326.466 4.869,326.437 4.686,326.384C4.506,326.065 4.33,325.743 4.159,325.418L3.818,324.754L3.487,324.077L3.336,323.754ZM19.04,322.387C20.166,322.387 21.08,323.301 21.08,324.426C21.08,325.552 20.166,326.466 19.04,326.466C17.914,326.466 17,325.552 17,324.426C17,323.301 17.914,322.387 19.04,322.387ZM25.774,322.387C26.9,322.387 27.813,323.301 27.813,324.426C27.813,325.552 26.9,326.466 25.774,326.466C24.648,326.466 23.734,325.552 23.734,324.426C23.734,323.301 24.648,322.387 25.774,322.387ZM32.631,322.387C33.757,322.387 34.671,323.301 34.671,324.426C34.671,325.552 33.757,326.466 32.631,326.466C31.506,326.466 30.592,325.552 30.592,324.426C30.592,323.301 31.506,322.387 32.631,322.387ZM46.41,322.387C47.536,322.387 48.45,323.301 48.45,324.426C48.45,325.552 47.536,326.466 46.41,326.466C45.284,326.466 44.37,325.552 44.37,324.426C44.37,323.301 45.284,322.387 46.41,322.387ZM53.144,322.387C54.27,322.387 55.183,323.301 55.183,324.426C55.183,325.552 54.27,326.466 53.144,326.466C52.018,326.466 51.104,325.552 51.104,324.426C51.104,323.301 52.018,322.387 53.144,322.387ZM60.169,322.387C61.294,322.387 62.208,323.301 62.208,324.426C62.208,325.552 61.294,326.466 60.169,326.466C59.043,326.466 58.129,325.552 58.129,324.426C58.129,323.301 59.043,322.387 60.169,322.387ZM66.903,322.387C68.028,322.387 68.942,323.301 68.942,324.426C68.942,325.552 68.028,326.466 66.903,326.466C65.777,326.466 64.863,325.552 64.863,324.426C64.863,323.301 65.777,322.387 66.903,322.387ZM73.947,322.387C75.073,322.387 75.987,323.301 75.987,324.426C75.987,325.552 75.073,326.466 73.947,326.466C72.822,326.466 71.908,325.552 71.908,324.426C71.908,323.301 72.822,322.387 73.947,322.387ZM11.995,322.387C13.121,322.387 14.035,323.301 14.035,324.426C14.035,325.552 13.121,326.466 11.995,326.466C10.87,326.466 9.956,325.552 9.956,324.426C9.956,323.301 10.87,322.387 11.995,322.387ZM87.539,322.387C88.664,322.387 89.578,323.301 89.578,324.426C89.578,325.552 88.664,326.466 87.539,326.466C86.413,326.466 85.499,325.552 85.499,324.426C85.499,323.301 86.413,322.387 87.539,322.387ZM94.273,322.387C95.398,322.387 96.312,323.301 96.312,324.426C96.312,325.552 95.398,326.466 94.273,326.466C93.147,326.466 92.233,325.552 92.233,324.426C92.233,323.301 93.147,322.387 94.273,322.387ZM101.317,322.387C102.443,322.387 103.357,323.301 103.357,324.426C103.357,325.552 102.443,326.466 101.317,326.466C100.192,326.466 99.278,325.552 99.278,324.426C99.278,323.301 100.192,322.387 101.317,322.387ZM108.051,322.387C109.177,322.387 110.091,323.301 110.091,324.426C110.091,325.552 109.177,326.466 108.051,326.466C106.926,326.466 106.012,325.552 106.012,324.426C106.012,323.301 106.926,322.387 108.051,322.387ZM115.219,322.387C116.344,322.387 117.258,323.301 117.258,324.426C117.258,325.552 116.344,326.466 115.219,326.466C114.093,326.466 113.179,325.552 113.179,324.426C113.179,323.301 114.093,322.387 115.219,322.387ZM121.953,322.387C123.078,322.387 123.992,323.301 123.992,324.426C123.992,325.552 123.078,326.466 121.953,326.466C120.827,326.466 119.913,325.552 119.913,324.426C119.913,323.301 120.827,322.387 121.953,322.387ZM134.039,323.288C134.987,324.237 135.757,325.265 136.352,326.369C136.157,326.432 135.948,326.466 135.731,326.466C134.606,326.466 133.692,325.552 133.692,324.426C133.692,324.005 133.82,323.613 134.039,323.288ZM39.365,322.387C40.491,322.387 41.405,323.301 41.405,324.426C41.405,325.552 40.491,326.466 39.365,326.466C38.24,326.466 37.326,325.552 37.326,324.426C37.326,323.301 38.24,322.387 39.365,322.387ZM80.681,322.387C81.807,322.387 82.721,323.301 82.721,324.426C82.721,325.552 81.807,326.466 80.681,326.466C79.556,326.466 78.642,325.552 78.642,324.426C78.642,323.301 79.556,322.387 80.681,322.387ZM118.406,316.125C119.531,316.125 120.445,317.039 120.445,318.165C120.445,319.29 119.531,320.204 118.406,320.204C117.28,320.204 116.366,319.29 116.366,318.165C116.366,317.039 117.28,316.125 118.406,316.125ZM111.672,316.125C112.797,316.125 113.711,317.039 113.711,318.165C113.711,319.29 112.797,320.204 111.672,320.204C110.546,320.204 109.632,319.29 109.632,318.165C109.632,317.039 110.546,316.125 111.672,316.125ZM104.504,316.125C105.63,316.125 106.544,317.039 106.544,318.165C106.544,319.29 105.63,320.204 104.504,320.204C103.378,320.204 102.465,319.29 102.465,318.165C102.465,317.039 103.378,316.125 104.504,316.125ZM97.77,316.125C98.896,316.125 99.81,317.039 99.81,318.165C99.81,319.29 98.896,320.204 97.77,320.204C96.645,320.204 95.731,319.29 95.731,318.165C95.731,317.039 96.645,316.125 97.77,316.125ZM90.725,316.125C91.851,316.125 92.765,317.039 92.765,318.165C92.765,319.29 91.851,320.204 90.725,320.204C89.6,320.204 88.686,319.29 88.686,318.165C88.686,317.039 89.6,316.125 90.725,316.125ZM83.992,316.125C85.117,316.125 86.031,317.039 86.031,318.165C86.031,319.29 85.117,320.204 83.992,320.204C82.866,320.204 81.952,319.29 81.952,318.165C81.952,317.039 82.866,316.125 83.992,316.125ZM77.134,316.125C78.26,316.125 79.174,317.039 79.174,318.165C79.174,319.29 78.26,320.204 77.134,320.204C76.008,320.204 75.095,319.29 75.095,318.165C75.095,317.039 76.008,316.125 77.134,316.125ZM70.4,316.125C71.526,316.125 72.44,317.039 72.44,318.165C72.44,319.29 71.526,320.204 70.4,320.204C69.275,320.204 68.361,319.29 68.361,318.165C68.361,317.039 69.275,316.125 70.4,316.125ZM56.622,316.125C57.747,316.125 58.661,317.039 58.661,318.165C58.661,319.29 57.747,320.204 56.622,320.204C55.496,320.204 54.582,319.29 54.582,318.165C54.582,317.039 55.496,316.125 56.622,316.125ZM49.597,316.125C50.722,316.125 51.636,317.039 51.636,318.165C51.636,319.29 50.722,320.204 49.597,320.204C48.471,320.204 47.557,319.29 47.557,318.165C47.557,317.039 48.471,316.125 49.597,316.125ZM63.355,316.125C64.481,316.125 65.395,317.039 65.395,318.165C65.395,319.29 64.481,320.204 63.355,320.204C62.23,320.204 61.316,319.29 61.316,318.165C61.316,317.039 62.23,316.125 63.355,316.125ZM42.863,316.125C43.989,316.125 44.902,317.039 44.902,318.165C44.902,319.29 43.989,320.204 42.863,320.204C41.737,320.204 40.823,319.29 40.823,318.165C40.823,317.039 41.737,316.125 42.863,316.125ZM29.084,316.125C30.21,316.125 31.124,317.039 31.124,318.165C31.124,319.29 30.21,320.204 29.084,320.204C27.959,320.204 27.045,319.29 27.045,318.165C27.045,317.039 27.959,316.125 29.084,316.125ZM22.227,316.125C23.352,316.125 24.266,317.039 24.266,318.165C24.266,319.29 23.352,320.204 22.227,320.204C21.101,320.204 20.187,319.29 20.187,318.165C20.187,317.039 21.101,316.125 22.227,316.125ZM15.493,316.125C16.619,316.125 17.532,317.039 17.532,318.165C17.532,319.29 16.619,320.204 15.493,320.204C14.367,320.204 13.453,319.29 13.453,318.165C13.453,317.039 14.367,316.125 15.493,316.125ZM8.448,316.125C9.574,316.125 10.488,317.039 10.488,318.165C10.488,319.29 9.574,320.204 8.448,320.204C7.322,320.204 6.409,319.29 6.409,318.165C6.409,317.039 7.322,316.125 8.448,316.125ZM35.818,316.125C36.944,316.125 37.858,317.039 37.858,318.165C37.858,319.29 36.944,320.204 35.818,320.204C34.692,320.204 33.779,319.29 33.779,318.165C33.779,317.039 34.692,316.125 35.818,316.125ZM124.338,316.455L127.454,318.546C127.276,319.49 126.446,320.204 125.45,320.204C124.325,320.204 123.411,319.29 123.411,318.165C123.411,317.449 123.78,316.819 124.338,316.455ZM0.833,316.325C1.099,316.197 1.398,316.125 1.714,316.125C2.84,316.125 3.754,317.039 3.754,318.165C3.754,319.224 2.944,320.096 1.911,320.195L1.595,319.22L1.381,318.499L1.114,317.511L0.943,316.815L0.833,316.325ZM4.799,310.075C5.925,310.075 6.838,310.989 6.838,312.115C6.838,313.24 5.925,314.154 4.799,314.154C3.673,314.154 2.759,313.24 2.759,312.115C2.759,310.989 3.673,310.075 4.799,310.075ZM11.844,310.075C12.969,310.075 13.883,310.989 13.883,312.115C13.883,313.24 12.969,314.154 11.844,314.154C10.718,314.154 9.804,313.24 9.804,312.115C9.804,310.989 10.718,310.075 11.844,310.075ZM18.577,310.075C19.703,310.075 20.617,310.989 20.617,312.115C20.617,313.24 19.703,314.154 18.577,314.154C17.452,314.154 16.538,313.24 16.538,312.115C16.538,310.989 17.452,310.075 18.577,310.075ZM25.435,310.075C26.561,310.075 27.474,310.989 27.474,312.115C27.474,313.24 26.561,314.154 25.435,314.154C24.309,314.154 23.395,313.24 23.395,312.115C23.395,310.989 24.309,310.075 25.435,310.075ZM32.169,310.075C33.294,310.075 34.208,310.989 34.208,312.115C34.208,313.24 33.294,314.154 32.169,314.154C31.043,314.154 30.129,313.24 30.129,312.115C30.129,310.989 31.043,310.075 32.169,310.075ZM39.214,310.075C40.339,310.075 41.253,310.989 41.253,312.115C41.253,313.24 40.339,314.154 39.214,314.154C38.088,314.154 37.174,313.24 37.174,312.115C37.174,310.989 38.088,310.075 39.214,310.075ZM45.947,310.075C47.073,310.075 47.987,310.989 47.987,312.115C47.987,313.24 47.073,314.154 45.947,314.154C44.822,314.154 43.908,313.24 43.908,312.115C43.908,310.989 44.822,310.075 45.947,310.075ZM52.972,310.075C54.098,310.075 55.012,310.989 55.012,312.115C55.012,313.24 54.098,314.154 52.972,314.154C51.847,314.154 50.933,313.24 50.933,312.115C50.933,310.989 51.847,310.075 52.972,310.075ZM59.706,310.075C60.832,310.075 61.746,310.989 61.746,312.115C61.746,313.24 60.832,314.154 59.706,314.154C58.58,314.154 57.667,313.24 57.667,312.115C57.667,310.989 58.58,310.075 59.706,310.075ZM66.751,310.075C67.877,310.075 68.79,310.989 68.79,312.115C68.79,313.24 67.877,314.154 66.751,314.154C65.625,314.154 64.711,313.24 64.711,312.115C64.711,310.989 65.625,310.075 66.751,310.075ZM73.485,310.075C74.61,310.075 75.524,310.989 75.524,312.115C75.524,313.24 74.61,314.154 73.485,314.154C72.359,314.154 71.445,313.24 71.445,312.115C71.445,310.989 72.359,310.075 73.485,310.075ZM80.342,310.075C81.468,310.075 82.382,310.989 82.382,312.115C82.382,313.24 81.468,314.154 80.342,314.154C79.217,314.154 78.303,313.24 78.303,312.115C78.303,310.989 79.217,310.075 80.342,310.075ZM87.076,310.075C88.202,310.075 89.116,310.989 89.116,312.115C89.116,313.24 88.202,314.154 87.076,314.154C85.95,314.154 85.037,313.24 85.037,312.115C85.037,310.989 85.95,310.075 87.076,310.075ZM94.121,310.075C95.247,310.075 96.16,310.989 96.16,312.115C96.16,313.24 95.247,314.154 94.121,314.154C92.995,314.154 92.081,313.24 92.081,312.115C92.081,310.989 92.995,310.075 94.121,310.075ZM108.022,310.075C109.148,310.075 110.062,310.989 110.062,312.115C110.062,313.24 109.148,314.154 108.022,314.154C106.897,314.154 105.983,313.24 105.983,312.115C105.983,310.989 106.897,310.075 108.022,310.075ZM116.614,311.273C116.731,311.529 116.796,311.814 116.796,312.115C116.796,313.24 115.882,314.154 114.756,314.154C113.631,314.154 112.717,313.24 112.717,312.115C112.717,310.989 113.631,310.075 114.756,310.075C114.781,310.075 114.807,310.075 114.832,310.076L116.614,311.273ZM100.855,310.075C101.98,310.075 102.894,310.989 102.894,312.115C102.894,313.24 101.98,314.154 100.855,314.154C99.729,314.154 98.815,313.24 98.815,312.115C98.815,310.989 99.729,310.075 100.855,310.075ZM21.58,304.15C22.706,304.15 23.62,305.064 23.62,306.19C23.62,307.315 22.706,308.229 21.58,308.229C20.454,308.229 19.54,307.315 19.54,306.19C19.54,305.064 20.454,304.15 21.58,304.15ZM28.314,304.15C29.44,304.15 30.354,305.064 30.354,306.19C30.354,307.315 29.44,308.229 28.314,308.229C27.188,308.229 26.274,307.315 26.274,306.19C26.274,305.064 27.188,304.15 28.314,304.15ZM42.093,304.15C43.218,304.15 44.132,305.064 44.132,306.19C44.132,307.315 43.218,308.229 42.093,308.229C40.967,308.229 40.053,307.315 40.053,306.19C40.053,305.064 40.967,304.15 42.093,304.15ZM49.117,304.15C50.243,304.15 51.157,305.064 51.157,306.19C51.157,307.315 50.243,308.229 49.117,308.229C47.992,308.229 47.078,307.315 47.078,306.19C47.078,305.064 47.992,304.15 49.117,304.15ZM55.851,304.15C56.977,304.15 57.891,305.064 57.891,306.19C57.891,307.315 56.977,308.229 55.851,308.229C54.726,308.229 53.812,307.315 53.812,306.19C53.812,305.064 54.726,304.15 55.851,304.15ZM76.487,304.15C77.613,304.15 78.527,305.064 78.527,306.19C78.527,307.315 77.613,308.229 76.487,308.229C75.362,308.229 74.448,307.315 74.448,306.19C74.448,305.064 75.362,304.15 76.487,304.15ZM83.221,304.15C84.347,304.15 85.261,305.064 85.261,306.19C85.261,307.315 84.347,308.229 83.221,308.229C82.096,308.229 81.182,307.315 81.182,306.19C81.182,305.064 82.096,304.15 83.221,304.15ZM90.266,304.15C91.392,304.15 92.306,305.064 92.306,306.19C92.306,307.315 91.392,308.229 90.266,308.229C89.14,308.229 88.226,307.315 88.226,306.19C88.226,305.064 89.14,304.15 90.266,304.15ZM97,304.15C98.126,304.15 99.04,305.064 99.04,306.19C99.04,307.315 98.126,308.229 97,308.229C95.874,308.229 94.96,307.315 94.96,306.19C94.96,305.064 95.874,304.15 97,304.15ZM104.167,304.15C105.293,304.15 106.207,305.064 106.207,306.19C106.207,307.315 105.293,308.229 104.167,308.229C103.042,308.229 102.128,307.315 102.128,306.19C102.128,305.064 103.042,304.15 104.167,304.15ZM108.865,306.073L111.781,308.03C111.515,308.158 111.216,308.229 110.901,308.229C109.776,308.229 108.862,307.315 108.862,306.19C108.862,306.151 108.863,306.112 108.865,306.073ZM62.896,304.15C64.022,304.15 64.936,305.064 64.936,306.19C64.936,307.315 64.022,308.229 62.896,308.229C61.77,308.229 60.856,307.315 60.856,306.19C60.856,305.064 61.77,304.15 62.896,304.15ZM-0,304.382C0.282,304.234 0.603,304.15 0.944,304.15C2.07,304.15 2.984,305.064 2.984,306.19C2.984,307.315 2.07,308.229 0.944,308.229C0.603,308.229 0.282,308.146 -0,307.998L-0,304.382ZM7.989,304.15C9.114,304.15 10.028,305.064 10.028,306.19C10.028,307.315 9.114,308.229 7.989,308.229C6.863,308.229 5.949,307.315 5.949,306.19C5.949,305.064 6.863,304.15 7.989,304.15ZM69.63,304.15C70.756,304.15 71.67,305.064 71.67,306.19C71.67,307.315 70.756,308.229 69.63,308.229C68.504,308.229 67.59,307.315 67.59,306.19C67.59,305.064 68.504,304.15 69.63,304.15ZM14.723,304.15C15.848,304.15 16.762,305.064 16.762,306.19C16.762,307.315 15.848,308.229 14.723,308.229C13.597,308.229 12.683,307.315 12.683,306.19C12.683,305.064 13.597,304.15 14.723,304.15ZM35.359,304.15C36.484,304.15 37.398,305.064 37.398,306.19C37.398,307.315 36.484,308.229 35.359,308.229C34.233,308.229 33.319,307.315 33.319,306.19C33.319,305.064 34.233,304.15 35.359,304.15ZM39.111,298.38C39.893,298.666 40.451,299.416 40.451,300.296C40.451,301.422 39.537,302.336 38.411,302.336C37.285,302.336 36.372,301.422 36.372,300.296C36.372,299.416 36.93,298.666 37.711,298.38L39.111,298.38ZM46.136,298.38C46.917,298.666 47.476,299.416 47.476,300.296C47.476,301.422 46.562,302.336 45.436,302.336C44.31,302.336 43.396,301.422 43.396,300.296C43.396,299.416 43.955,298.666 44.736,298.38L46.136,298.38ZM51.47,298.38L52.87,298.38C53.651,298.666 54.21,299.416 54.21,300.296C54.21,301.422 53.296,302.336 52.17,302.336C51.044,302.336 50.13,301.422 50.13,300.296C50.13,299.416 50.688,298.666 51.47,298.38ZM24.633,298.256C25.758,298.256 26.672,299.17 26.672,300.296C26.672,301.422 25.758,302.336 24.633,302.336C23.507,302.336 22.593,301.422 22.593,300.296C22.593,299.17 23.507,298.256 24.633,298.256ZM31.677,298.256C32.803,298.256 33.717,299.17 33.717,300.296C33.717,301.422 32.803,302.336 31.677,302.336C30.552,302.336 29.638,301.422 29.638,300.296C29.638,299.17 30.552,298.256 31.677,298.256ZM72.106,298.38L73.506,298.38C74.287,298.666 74.846,299.416 74.846,300.296C74.846,301.422 73.932,302.336 72.806,302.336C71.68,302.336 70.766,301.422 70.766,300.296C70.766,299.416 71.325,298.666 72.106,298.38ZM80.24,298.38C81.021,298.666 81.579,299.416 81.579,300.296C81.579,301.422 80.666,302.336 79.54,302.336C78.414,302.336 77.5,301.422 77.5,300.296C77.5,299.416 78.058,298.666 78.84,298.38L80.24,298.38ZM85.884,298.38L87.285,298.38C88.066,298.666 88.624,299.416 88.624,300.296C88.624,301.422 87.71,302.336 86.585,302.336C85.459,302.336 84.545,301.422 84.545,300.296C84.545,299.416 85.103,298.666 85.884,298.38ZM11.041,298.256C12.167,298.256 13.081,299.17 13.081,300.296C13.081,301.422 12.167,302.336 11.041,302.336C9.916,302.336 9.002,301.422 9.002,300.296C9.002,299.17 9.916,298.256 11.041,298.256ZM98.724,299.269L102.104,301.537C101.731,302.022 101.145,302.336 100.486,302.336C99.36,302.336 98.446,301.422 98.446,300.296C98.446,299.922 98.548,299.57 98.724,299.269ZM66.649,298.38C67.43,298.666 67.988,299.416 67.988,300.296C67.988,301.422 67.074,302.336 65.949,302.336C64.823,302.336 63.909,301.422 63.909,300.296C63.909,299.416 64.467,298.666 65.248,298.38L66.649,298.38ZM4.307,298.256C5.433,298.256 6.347,299.17 6.347,300.296C6.347,301.422 5.433,302.336 4.307,302.336C3.182,302.336 2.268,301.422 2.268,300.296C2.268,299.17 3.182,298.256 4.307,298.256ZM94.019,298.38C94.8,298.666 95.358,299.416 95.358,300.296C95.358,301.422 94.444,302.336 93.319,302.336C92.193,302.336 91.279,301.422 91.279,300.296C91.279,299.416 91.837,298.666 92.618,298.38L94.019,298.38ZM17.899,298.256C19.024,298.256 19.938,299.17 19.938,300.296C19.938,301.422 19.024,302.336 17.899,302.336C16.773,302.336 15.859,301.422 15.859,300.296C15.859,299.17 16.773,298.256 17.899,298.256ZM59.915,298.38C60.696,298.666 61.254,299.416 61.254,300.296C61.254,301.422 60.34,302.336 59.215,302.336C58.089,302.336 57.175,301.422 57.175,300.296C57.175,299.416 57.733,298.666 58.514,298.38L59.915,298.38ZM14.472,292.288C15.598,292.288 16.512,293.202 16.512,294.328C16.512,295.453 15.598,296.367 14.472,296.367C13.347,296.367 12.433,295.453 12.433,294.328C12.433,293.202 13.347,292.288 14.472,292.288ZM7.615,292.288C8.741,292.288 9.655,293.202 9.655,294.328C9.655,295.453 8.741,296.367 7.615,296.367C6.489,296.367 5.575,295.453 5.575,294.328C5.575,293.202 6.489,292.288 7.615,292.288ZM19.191,294.016C20.32,294.628 21.484,295.182 22.679,295.674L22.722,295.692C22.349,296.107 21.808,296.367 21.206,296.367C20.081,296.367 19.167,295.453 19.167,294.328L19.191,294.016ZM-0,292.488C0.267,292.36 0.566,292.288 0.881,292.288C2.007,292.288 2.921,293.202 2.921,294.328C2.921,295.453 2.007,296.367 0.881,296.367C0.566,296.367 0.267,296.296 -0,296.167L-0,292.488ZM4.04,286.12C5.165,286.12 6.079,287.033 6.079,288.159C6.079,289.285 5.165,290.199 4.04,290.199C2.914,290.199 2,289.285 2,288.159C2,287.033 2.914,286.12 4.04,286.12ZM9.632,286.56L10.396,287.366L10.506,287.478C11.156,288.138 11.831,288.774 12.528,289.383C12.156,289.878 11.564,290.199 10.897,290.199C9.771,290.199 8.857,289.285 8.857,288.159C8.857,287.511 9.16,286.934 9.632,286.56ZM-0,280.328C0.258,280.21 0.545,280.144 0.847,280.144C1.973,280.144 2.887,281.058 2.887,282.184C2.887,283.309 1.973,284.223 0.847,284.223C0.545,284.223 0.258,284.157 -0,284.039L-0,280.328ZM5.764,281.555L6.68,282.911L7.45,283.957L7.654,284.223C6.552,284.196 5.665,283.292 5.665,282.184C5.665,281.964 5.7,281.753 5.764,281.555Z" style="fill:#001a8e;"/>
            <path d="M166.397,345L166.399,344L166.399,329.792C166.399,329.775 166.399,329.759 166.4,329.743C166.595,325.765 164.898,322.734 161.562,320.523C161.559,320.521 161.556,320.519 161.553,320.517C161.553,320.517 130.376,299.38 130.376,299.38L128.043,298.38L130.683,298.38L162.114,319.689C165.768,322.111 167.612,325.437 167.399,329.792L167.399,345L166.397,345Z" style="fill:#3c56ca;"/>
            <path d="M99.36,298.329C98.659,297.917 96.484,298.123 96.705,298.329L130.521,321.474C133.989,323.965 136.942,326.938 136.942,331.155C136.942,331.155 136.942,345 136.942,345L138.442,345L138.442,331.155C138.442,326.441 135.267,323.034 131.389,320.251C131.384,320.248 131.38,320.244 131.375,320.241C131.375,320.241 107.508,303.905 99.435,298.38C99.41,298.363 99.386,298.344 99.36,298.329Z" style="fill:#fff;"/>
            <g transform="matrix(-1,0,0,1,299.675,0)">
                <path d="M-0,262.01C-0,281.962 16.418,298.38 36.37,298.38L113.284,298.38C124.362,306.098 149.39,320.39 152.461,321.361C158.753,323.348 159.54,327.037 159.505,330.832L159.505,345L36.38,345C16.423,345 -0,328.577 -0,308.62L0,262L-0,262.01Z" style="fill:#0e289a;fill-rule:nonzero;"/>
            </g>
            <path d="M254.5,345C254.168,344.637 253.965,344.154 253.965,343.624C253.965,342.498 254.879,341.584 256.005,341.584C257.13,341.584 258.044,342.498 258.044,343.624C258.044,344.154 257.841,344.637 257.509,345L254.5,345ZM261.545,345C261.213,344.637 261.01,344.154 261.01,343.624C261.01,342.498 261.924,341.584 263.049,341.584C264.175,341.584 265.089,342.498 265.089,343.624C265.089,344.143 264.894,344.617 264.574,344.977L263.583,344.999L263.295,345L261.545,345ZM247.766,345C247.434,344.637 247.231,344.154 247.231,343.624C247.231,342.498 248.145,341.584 249.271,341.584C250.396,341.584 251.31,342.498 251.31,343.624C251.31,344.154 251.107,344.637 250.775,345L247.766,345ZM240.909,345C240.576,344.637 240.374,344.154 240.374,343.624C240.374,342.498 241.288,341.584 242.413,341.584C243.539,341.584 244.453,342.498 244.453,343.624C244.453,344.154 244.25,344.637 243.918,345L240.909,345ZM234.175,345C233.843,344.637 233.64,344.154 233.64,343.624C233.64,342.498 234.554,341.584 235.679,341.584C236.805,341.584 237.719,342.498 237.719,343.624C237.719,344.154 237.516,344.637 237.184,345L234.175,345ZM227.13,345C226.798,344.637 226.595,344.154 226.595,343.624C226.595,342.498 227.509,341.584 228.635,341.584C229.76,341.584 230.674,342.498 230.674,343.624C230.674,344.154 230.471,344.637 230.139,345L227.13,345ZM220.396,345C220.064,344.637 219.861,344.154 219.861,343.624C219.861,342.498 220.775,341.584 221.901,341.584C223.026,341.584 223.94,342.498 223.94,343.624C223.94,344.154 223.737,344.637 223.405,345L220.396,345ZM213.282,345C212.95,344.637 212.747,344.154 212.747,343.624C212.747,342.498 213.661,341.584 214.787,341.584C215.913,341.584 216.826,342.498 216.826,343.624C216.826,344.154 216.624,344.637 216.291,345L213.282,345ZM206.548,345C206.216,344.637 206.013,344.154 206.013,343.624C206.013,342.498 206.927,341.584 208.053,341.584C209.179,341.584 210.093,342.498 210.093,343.624C210.093,344.154 209.89,344.637 209.557,345L206.548,345ZM199.504,345C199.171,344.637 198.969,344.154 198.969,343.624C198.969,342.498 199.883,341.584 201.008,341.584C202.134,341.584 203.048,342.498 203.048,343.624C203.048,344.154 202.845,344.637 202.513,345L199.504,345ZM192.77,345C192.438,344.637 192.235,344.154 192.235,343.624C192.235,342.498 193.149,341.584 194.274,341.584C195.4,341.584 196.314,342.498 196.314,343.624C196.314,344.154 196.111,344.637 195.779,345L192.77,345ZM185.912,345C185.58,344.637 185.377,344.154 185.377,343.624C185.377,342.498 186.291,341.584 187.417,341.584C188.543,341.584 189.456,342.498 189.456,343.624C189.456,344.154 189.254,344.637 188.921,345L185.912,345ZM179.178,345C178.846,344.637 178.643,344.154 178.643,343.624C178.643,342.498 179.557,341.584 180.683,341.584C181.809,341.584 182.723,342.498 182.723,343.624C182.723,344.154 182.52,344.637 182.187,345L179.178,345ZM172.134,345C171.801,344.637 171.599,344.154 171.599,343.624C171.599,342.498 172.513,341.584 173.638,341.584C174.764,341.584 175.678,342.498 175.678,343.624C175.678,344.154 175.475,344.637 175.143,345L172.134,345ZM268.043,344.687C267.853,344.377 267.744,344.013 267.744,343.624C267.744,342.498 268.658,341.584 269.783,341.584C270.909,341.584 271.823,342.498 271.823,343.624C271.823,343.747 271.812,343.867 271.791,343.985L270.859,344.198L270.398,344.294C269.933,344.388 269.465,344.472 268.994,344.548L268.274,344.655L268.043,344.687ZM275.025,343.036L274.836,343.1C275.068,342.228 275.863,341.584 276.808,341.584C277.211,341.584 277.586,341.701 277.903,341.903L277.526,342.067C276.961,342.31 276.39,342.54 275.811,342.754L275.025,343.036ZM176.86,334.599C177.986,334.599 178.9,335.513 178.9,336.639C178.9,337.764 177.986,338.678 176.86,338.678C175.734,338.678 174.82,337.764 174.82,336.639C174.82,335.513 175.734,334.599 176.86,334.599ZM190.639,334.599C191.764,334.599 192.678,335.513 192.678,336.639C192.678,337.764 191.764,338.678 190.639,338.678C189.513,338.678 188.599,337.764 188.599,336.639C188.599,335.513 189.513,334.599 190.639,334.599ZM197.496,334.599C198.622,334.599 199.536,335.513 199.536,336.639C199.536,337.764 198.622,338.678 197.496,338.678C196.37,338.678 195.456,337.764 195.456,336.639C195.456,335.513 196.37,334.599 197.496,334.599ZM204.23,334.599C205.356,334.599 206.27,335.513 206.27,336.639C206.27,337.764 205.356,338.678 204.23,338.678C203.104,338.678 202.19,337.764 202.19,336.639C202.19,335.513 203.104,334.599 204.23,334.599ZM225.122,334.599C226.248,334.599 227.162,335.513 227.162,336.639C227.162,337.764 226.248,338.678 225.122,338.678C223.997,338.678 223.083,337.764 223.083,336.639C223.083,335.513 223.997,334.599 225.122,334.599ZM231.856,334.599C232.982,334.599 233.896,335.513 233.896,336.639C233.896,337.764 232.982,338.678 231.856,338.678C230.731,338.678 229.817,337.764 229.817,336.639C229.817,335.513 230.731,334.599 231.856,334.599ZM238.901,334.599C240.027,334.599 240.941,335.513 240.941,336.639C240.941,337.764 240.027,338.678 238.901,338.678C237.775,338.678 236.861,337.764 236.861,336.639C236.861,335.513 237.775,334.599 238.901,334.599ZM245.635,334.599C246.761,334.599 247.675,335.513 247.675,336.639C247.675,337.764 246.761,338.678 245.635,338.678C244.509,338.678 243.595,337.764 243.595,336.639C243.595,335.513 244.509,334.599 245.635,334.599ZM259.226,334.599C260.352,334.599 261.266,335.513 261.266,336.639C261.266,337.764 260.352,338.678 259.226,338.678C258.101,338.678 257.187,337.764 257.187,336.639C257.187,335.513 258.101,334.599 259.226,334.599ZM266.271,334.599C267.397,334.599 268.311,335.513 268.311,336.639C268.311,337.764 267.397,338.678 266.271,338.678C265.145,338.678 264.231,337.764 264.231,336.639C264.231,335.513 265.145,334.599 266.271,334.599ZM273.005,334.599C274.131,334.599 275.045,335.513 275.045,336.639C275.045,337.764 274.131,338.678 273.005,338.678C271.879,338.678 270.965,337.764 270.965,336.639C270.965,335.513 271.879,334.599 273.005,334.599ZM280.03,334.599C281.155,334.599 282.069,335.513 282.069,336.639C282.069,337.764 281.155,338.678 280.03,338.678C278.904,338.678 277.99,337.764 277.99,336.639C277.99,335.513 278.904,334.599 280.03,334.599ZM252.492,334.599C253.618,334.599 254.532,335.513 254.532,336.639C254.532,337.764 253.618,338.678 252.492,338.678C251.367,338.678 250.453,337.764 250.453,336.639C250.453,335.513 251.367,334.599 252.492,334.599ZM169.166,334.839C169.452,334.686 169.779,334.599 170.126,334.599C171.252,334.599 172.166,335.513 172.166,336.639C172.166,337.764 171.252,338.678 170.126,338.678C169.779,338.678 169.452,338.591 169.166,338.438L169.166,334.839ZM218.009,334.599C219.134,334.599 220.048,335.513 220.048,336.639C220.048,337.764 219.134,338.678 218.009,338.678C216.883,338.678 215.969,337.764 215.969,336.639C215.969,335.513 216.883,334.599 218.009,334.599ZM211.275,334.599C212.4,334.599 213.314,335.513 213.314,336.639C213.314,337.764 212.4,338.678 211.275,338.678C210.149,338.678 209.235,337.764 209.235,336.639C209.235,335.513 210.149,334.599 211.275,334.599ZM183.905,334.599C185.03,334.599 185.944,335.513 185.944,336.639C185.944,337.764 185.03,338.678 183.905,338.678C182.779,338.678 181.865,337.764 181.865,336.639C181.865,335.513 182.779,334.599 183.905,334.599ZM285.03,337.713C284.836,337.401 284.724,337.033 284.724,336.639C284.724,335.513 285.638,334.599 286.764,334.599C287.284,334.599 287.759,334.794 288.12,335.116L287.934,335.289C287.626,335.574 287.314,335.854 286.996,336.128L286.605,336.461L285.821,337.102L285.222,337.567L285.03,337.713ZM180.683,328.499C181.809,328.499 182.723,329.413 182.723,330.538C182.723,331.664 181.809,332.578 180.683,332.578C179.557,332.578 178.643,331.664 178.643,330.538C178.643,329.413 179.557,328.499 180.683,328.499ZM187.417,328.499C188.543,328.499 189.456,329.413 189.456,330.538C189.456,331.664 188.543,332.578 187.417,332.578C186.291,332.578 185.377,331.664 185.377,330.538C185.377,329.413 186.291,328.499 187.417,328.499ZM194.274,328.499C195.4,328.499 196.314,329.413 196.314,330.538C196.314,331.664 195.4,332.578 194.274,332.578C193.149,332.578 192.235,331.664 192.235,330.538C192.235,329.413 193.149,328.499 194.274,328.499ZM201.008,328.499C202.134,328.499 203.048,329.413 203.048,330.538C203.048,331.664 202.134,332.578 201.008,332.578C199.883,332.578 198.969,331.664 198.969,330.538C198.969,329.413 199.883,328.499 201.008,328.499ZM208.053,328.499C209.179,328.499 210.093,329.413 210.093,330.538C210.093,331.664 209.179,332.578 208.053,332.578C206.927,332.578 206.013,331.664 206.013,330.538C206.013,329.413 206.927,328.499 208.053,328.499ZM214.787,328.499C215.913,328.499 216.826,329.413 216.826,330.538C216.826,331.664 215.913,332.578 214.787,332.578C213.661,332.578 212.747,331.664 212.747,330.538C212.747,329.413 213.661,328.499 214.787,328.499ZM221.901,328.499C223.026,328.499 223.94,329.413 223.94,330.538C223.94,331.664 223.026,332.578 221.901,332.578C220.775,332.578 219.861,331.664 219.861,330.538C219.861,329.413 220.775,328.499 221.901,328.499ZM228.635,328.499C229.76,328.499 230.674,329.413 230.674,330.538C230.674,331.664 229.76,332.578 228.635,332.578C227.509,332.578 226.595,331.664 226.595,330.538C226.595,329.413 227.509,328.499 228.635,328.499ZM235.679,328.499C236.805,328.499 237.719,329.413 237.719,330.538C237.719,331.664 236.805,332.578 235.679,332.578C234.554,332.578 233.64,331.664 233.64,330.538C233.64,329.413 234.554,328.499 235.679,328.499ZM242.413,328.499C243.539,328.499 244.453,329.413 244.453,330.538C244.453,331.664 243.539,332.578 242.413,332.578C241.288,332.578 240.374,331.664 240.374,330.538C240.374,329.413 241.288,328.499 242.413,328.499ZM249.271,328.499C250.396,328.499 251.31,329.413 251.31,330.538C251.31,331.664 250.396,332.578 249.271,332.578C248.145,332.578 247.231,331.664 247.231,330.538C247.231,329.413 248.145,328.499 249.271,328.499ZM256.005,328.499C257.13,328.499 258.044,329.413 258.044,330.538C258.044,331.664 257.13,332.578 256.005,332.578C254.879,332.578 253.965,331.664 253.965,330.538C253.965,329.413 254.879,328.499 256.005,328.499ZM263.049,328.499C264.175,328.499 265.089,329.413 265.089,330.538C265.089,331.664 264.175,332.578 263.049,332.578C261.924,332.578 261.01,331.664 261.01,330.538C261.01,329.413 261.924,328.499 263.049,328.499ZM269.783,328.499C270.909,328.499 271.823,329.413 271.823,330.538C271.823,331.664 270.909,332.578 269.783,332.578C268.658,332.578 267.744,331.664 267.744,330.538C267.744,329.413 268.658,328.499 269.783,328.499ZM276.808,328.499C277.934,328.499 278.848,329.413 278.848,330.538C278.848,331.664 277.934,332.578 276.808,332.578C275.682,332.578 274.768,331.664 274.768,330.538C274.768,329.413 275.682,328.499 276.808,328.499ZM283.542,328.499C284.668,328.499 285.582,329.413 285.582,330.538C285.582,331.664 284.668,332.578 283.542,332.578C282.416,332.578 281.502,331.664 281.502,330.538C281.502,329.413 282.416,328.499 283.542,328.499ZM173.638,328.499C174.764,328.499 175.678,329.413 175.678,330.538C175.678,331.664 174.764,332.578 173.638,332.578C172.513,332.578 171.599,331.664 171.599,330.538C171.599,329.413 172.513,328.499 173.638,328.499ZM290.695,332.446L290.579,332.578C289.457,332.574 288.547,331.661 288.547,330.538C288.547,329.413 289.461,328.499 290.587,328.499C291.562,328.499 292.378,329.184 292.579,330.099L291.954,330.922L291.346,331.678L290.695,332.446ZM183.905,322.387C185.03,322.387 185.944,323.301 185.944,324.426C185.944,325.552 185.03,326.466 183.905,326.466C182.779,326.466 181.865,325.552 181.865,324.426C181.865,323.301 182.779,322.387 183.905,322.387ZM197.496,322.387C198.622,322.387 199.536,323.301 199.536,324.426C199.536,325.552 198.622,326.466 197.496,326.466C196.37,326.466 195.456,325.552 195.456,324.426C195.456,323.301 196.37,322.387 197.496,322.387ZM211.275,322.387C212.4,322.387 213.314,323.301 213.314,324.426C213.314,325.552 212.4,326.466 211.275,326.466C210.149,326.466 209.235,325.552 209.235,324.426C209.235,323.301 210.149,322.387 211.275,322.387ZM218.009,322.387C219.134,322.387 220.048,323.301 220.048,324.426C220.048,325.552 219.134,326.466 218.009,326.466C216.883,326.466 215.969,325.552 215.969,324.426C215.969,323.301 216.883,322.387 218.009,322.387ZM225.122,322.387C226.248,322.387 227.162,323.301 227.162,324.426C227.162,325.552 226.248,326.466 225.122,326.466C223.997,326.466 223.083,325.552 223.083,324.426C223.083,323.301 223.997,322.387 225.122,322.387ZM231.856,322.387C232.982,322.387 233.896,323.301 233.896,324.426C233.896,325.552 232.982,326.466 231.856,326.466C230.731,326.466 229.817,325.552 229.817,324.426C229.817,323.301 230.731,322.387 231.856,322.387ZM238.901,322.387C240.027,322.387 240.941,323.301 240.941,324.426C240.941,325.552 240.027,326.466 238.901,326.466C237.775,326.466 236.861,325.552 236.861,324.426C236.861,323.301 237.775,322.387 238.901,322.387ZM245.635,322.387C246.761,322.387 247.675,323.301 247.675,324.426C247.675,325.552 246.761,326.466 245.635,326.466C244.509,326.466 243.595,325.552 243.595,324.426C243.595,323.301 244.509,322.387 245.635,322.387ZM259.226,322.387C260.352,322.387 261.266,323.301 261.266,324.426C261.266,325.552 260.352,326.466 259.226,326.466C258.101,326.466 257.187,325.552 257.187,324.426C257.187,323.301 258.101,322.387 259.226,322.387ZM266.271,322.387C267.397,322.387 268.311,323.301 268.311,324.426C268.311,325.552 267.397,326.466 266.271,326.466C265.145,326.466 264.231,325.552 264.231,324.426C264.231,323.301 265.145,322.387 266.271,322.387ZM190.639,322.387C191.764,322.387 192.678,323.301 192.678,324.426C192.678,325.552 191.764,326.466 190.639,326.466C189.513,326.466 188.599,325.552 188.599,324.426C188.599,323.301 189.513,322.387 190.639,322.387ZM280.03,322.387C281.155,322.387 282.069,323.301 282.069,324.426C282.069,325.552 281.155,326.466 280.03,326.466C278.904,326.466 277.99,325.552 277.99,324.426C277.99,323.301 278.904,322.387 280.03,322.387ZM286.764,322.387C287.889,322.387 288.803,323.301 288.803,324.426C288.803,325.552 287.889,326.466 286.764,326.466C285.638,326.466 284.724,325.552 284.724,324.426C284.724,323.301 285.638,322.387 286.764,322.387ZM295.8,324.867C295.64,325.184 295.475,325.499 295.306,325.81C294.933,326.214 294.4,326.466 293.808,326.466C292.683,326.466 291.769,325.552 291.769,324.426C291.769,323.301 292.683,322.387 293.808,322.387C294.934,322.387 295.848,323.301 295.848,324.426C295.848,324.578 295.832,324.725 295.8,324.867ZM252.492,322.387C253.618,322.387 254.532,323.301 254.532,324.426C254.532,325.552 253.618,326.466 252.492,326.466C251.367,326.466 250.453,325.552 250.453,324.426C250.453,323.301 251.367,322.387 252.492,322.387ZM204.23,322.387C205.356,322.387 206.27,323.301 206.27,324.426C206.27,325.552 205.356,326.466 204.23,326.466C203.104,326.466 202.19,325.552 202.19,324.426C202.19,323.301 203.104,322.387 204.23,322.387ZM177.365,322.45C178.247,322.675 178.9,323.475 178.9,324.426C178.9,325.552 177.986,326.466 176.86,326.466C175.734,326.466 174.82,325.552 174.82,324.426C174.82,324.291 174.834,324.158 174.859,324.03L177.365,322.45ZM273.005,322.387C274.131,322.387 275.045,323.301 275.045,324.426C275.045,325.552 274.131,326.466 273.005,326.466C271.879,326.466 270.965,325.552 270.965,324.426C270.965,323.301 271.879,322.387 273.005,322.387ZM187.369,316.144C188.363,316.279 189.131,317.133 189.131,318.165C189.131,319.29 188.217,320.204 187.092,320.204C185.966,320.204 185.052,319.29 185.052,318.165C185.052,317.948 185.086,317.739 185.148,317.544L187.369,316.144ZM193.949,316.125C195.075,316.125 195.989,317.039 195.989,318.165C195.989,319.29 195.075,320.204 193.949,320.204C192.823,320.204 191.909,319.29 191.909,318.165C191.909,317.039 192.823,316.125 193.949,316.125ZM200.683,316.125C201.809,316.125 202.722,317.039 202.722,318.165C202.722,319.29 201.809,320.204 200.683,320.204C199.557,320.204 198.643,319.29 198.643,318.165C198.643,317.039 199.557,316.125 200.683,316.125ZM207.728,316.125C208.853,316.125 209.767,317.039 209.767,318.165C209.767,319.29 208.853,320.204 207.728,320.204C206.602,320.204 205.688,319.29 205.688,318.165C205.688,317.039 206.602,316.125 207.728,316.125ZM214.461,316.125C215.587,316.125 216.501,317.039 216.501,318.165C216.501,319.29 215.587,320.204 214.461,320.204C213.336,320.204 212.422,319.29 212.422,318.165C212.422,317.039 213.336,316.125 214.461,316.125ZM221.575,316.125C222.701,316.125 223.615,317.039 223.615,318.165C223.615,319.29 222.701,320.204 221.575,320.204C220.45,320.204 219.536,319.29 219.536,318.165C219.536,317.039 220.45,316.125 221.575,316.125ZM228.309,316.125C229.435,316.125 230.349,317.039 230.349,318.165C230.349,319.29 229.435,320.204 228.309,320.204C227.184,320.204 226.27,319.29 226.27,318.165C226.27,317.039 227.184,316.125 228.309,316.125ZM235.354,316.125C236.48,316.125 237.394,317.039 237.394,318.165C237.394,319.29 236.48,320.204 235.354,320.204C234.228,320.204 233.314,319.29 233.314,318.165C233.314,317.039 234.228,316.125 235.354,316.125ZM242.088,316.125C243.214,316.125 244.127,317.039 244.127,318.165C244.127,319.29 243.214,320.204 242.088,320.204C240.962,320.204 240.048,319.29 240.048,318.165C240.048,317.039 240.962,316.125 242.088,316.125ZM248.945,316.125C250.071,316.125 250.985,317.039 250.985,318.165C250.985,319.29 250.071,320.204 248.945,320.204C247.82,320.204 246.906,319.29 246.906,318.165C246.906,317.039 247.82,316.125 248.945,316.125ZM255.679,316.125C256.805,316.125 257.719,317.039 257.719,318.165C257.719,319.29 256.805,320.204 255.679,320.204C254.554,320.204 253.64,319.29 253.64,318.165C253.64,317.039 254.554,316.125 255.679,316.125ZM262.724,316.125C263.85,316.125 264.764,317.039 264.764,318.165C264.764,319.29 263.85,320.204 262.724,320.204C261.598,320.204 260.684,319.29 260.684,318.165C260.684,317.039 261.598,316.125 262.724,316.125ZM269.458,316.125C270.584,316.125 271.497,317.039 271.497,318.165C271.497,319.29 270.584,320.204 269.458,320.204C268.332,320.204 267.418,319.29 267.418,318.165C267.418,317.039 268.332,316.125 269.458,316.125ZM276.483,316.125C277.608,316.125 278.522,317.039 278.522,318.165C278.522,319.29 277.608,320.204 276.483,320.204C275.357,320.204 274.443,319.29 274.443,318.165C274.443,317.039 275.357,316.125 276.483,316.125ZM283.217,316.125C284.342,316.125 285.256,317.039 285.256,318.165C285.256,319.29 284.342,320.204 283.217,320.204C282.091,320.204 281.177,319.29 281.177,318.165C281.177,317.039 282.091,316.125 283.217,316.125ZM297.819,320.031C297.567,320.142 297.288,320.204 296.995,320.204C295.87,320.204 294.956,319.29 294.956,318.165C294.956,317.039 295.87,316.125 296.995,316.125C297.697,316.125 298.316,316.48 298.683,317.02L298.457,317.911L298.222,318.747L297.953,319.623L297.819,320.031ZM290.261,316.125C291.387,316.125 292.301,317.039 292.301,318.165C292.301,319.29 291.387,320.204 290.261,320.204C289.136,320.204 288.222,319.29 288.222,318.165C288.222,317.039 289.136,316.125 290.261,316.125ZM181.608,319.776L181.268,319.99C181.389,319.929 181.502,319.858 181.608,319.776ZM204.078,310.075C205.204,310.075 206.118,310.989 206.118,312.115C206.118,313.24 205.204,314.154 204.078,314.154C202.953,314.154 202.039,313.24 202.039,312.115C202.039,310.989 202.953,310.075 204.078,310.075ZM210.812,310.075C211.938,310.075 212.852,310.989 212.852,312.115C212.852,313.24 211.938,314.154 210.812,314.154C209.686,314.154 208.773,313.24 208.773,312.115C208.773,310.989 209.686,310.075 210.812,310.075ZM217.926,310.075C219.052,310.075 219.966,310.989 219.966,312.115C219.966,313.24 219.052,314.154 217.926,314.154C216.8,314.154 215.886,313.24 215.886,312.115C215.886,310.989 216.8,310.075 217.926,310.075ZM224.66,310.075C225.786,310.075 226.7,310.989 226.7,312.115C226.7,313.24 225.786,314.154 224.66,314.154C223.534,314.154 222.62,313.24 222.62,312.115C222.62,310.989 223.534,310.075 224.66,310.075ZM231.705,310.075C232.83,310.075 233.744,310.989 233.744,312.115C233.744,313.24 232.83,314.154 231.705,314.154C230.579,314.154 229.665,313.24 229.665,312.115C229.665,310.989 230.579,310.075 231.705,310.075ZM238.439,310.075C239.564,310.075 240.478,310.989 240.478,312.115C240.478,313.24 239.564,314.154 238.439,314.154C237.313,314.154 236.399,313.24 236.399,312.115C236.399,310.989 237.313,310.075 238.439,310.075ZM245.296,310.075C246.422,310.075 247.336,310.989 247.336,312.115C247.336,313.24 246.422,314.154 245.296,314.154C244.17,314.154 243.256,313.24 243.256,312.115C243.256,310.989 244.17,310.075 245.296,310.075ZM252.03,310.075C253.156,310.075 254.069,310.989 254.069,312.115C254.069,313.24 253.156,314.154 252.03,314.154C250.904,314.154 249.99,313.24 249.99,312.115C249.99,310.989 250.904,310.075 252.03,310.075ZM259.075,310.075C260.2,310.075 261.114,310.989 261.114,312.115C261.114,313.24 260.2,314.154 259.075,314.154C257.949,314.154 257.035,313.24 257.035,312.115C257.035,310.989 257.949,310.075 259.075,310.075ZM265.809,310.075C266.934,310.075 267.848,310.989 267.848,312.115C267.848,313.24 266.934,314.154 265.809,314.154C264.683,314.154 263.769,313.24 263.769,312.115C263.769,310.989 264.683,310.075 265.809,310.075ZM272.833,310.075C273.959,310.075 274.873,310.989 274.873,312.115C274.873,313.24 273.959,314.154 272.833,314.154C271.708,314.154 270.794,313.24 270.794,312.115C270.794,310.989 271.708,310.075 272.833,310.075ZM279.567,310.075C280.693,310.075 281.607,310.989 281.607,312.115C281.607,313.24 280.693,314.154 279.567,314.154C278.442,314.154 277.528,313.24 277.528,312.115C277.528,310.989 278.442,310.075 279.567,310.075ZM286.612,310.075C287.738,310.075 288.652,310.989 288.652,312.115C288.652,313.24 287.738,314.154 286.612,314.154C285.486,314.154 284.572,313.24 284.572,312.115C284.572,310.989 285.486,310.075 286.612,310.075ZM293.346,310.075C294.472,310.075 295.385,310.989 295.385,312.115C295.385,313.24 294.472,314.154 293.346,314.154C292.22,314.154 291.306,313.24 291.306,312.115C291.306,310.989 292.22,310.075 293.346,310.075ZM196.995,310.075L197.034,310.075C198.159,310.075 199.073,310.989 199.073,312.115C199.073,313.24 198.159,314.154 197.034,314.154C195.908,314.154 194.994,313.24 194.994,312.115C194.994,311.786 195.072,311.476 195.21,311.201L196.995,310.075ZM192.018,313.213L190.549,314.139C191.166,314.064 191.698,313.713 192.018,313.213ZM299.631,310.389L299.589,311.112L299.553,311.584C299.488,312.374 299.397,313.157 299.282,313.934C298.619,313.597 298.164,312.909 298.164,312.115C298.164,311.183 298.789,310.397 299.642,310.153L299.631,310.389ZM296.348,304.15C297.474,304.15 298.388,305.064 298.388,306.19C298.388,307.315 297.474,308.229 296.348,308.229C295.223,308.229 294.309,307.315 294.309,306.19C294.309,305.064 295.223,304.15 296.348,304.15ZM282.757,304.15C283.883,304.15 284.797,305.064 284.797,306.19C284.797,307.315 283.883,308.229 282.757,308.229C281.631,308.229 280.718,307.315 280.718,306.19C280.718,305.064 281.631,304.15 282.757,304.15ZM275.712,304.15C276.838,304.15 277.752,305.064 277.752,306.19C277.752,307.315 276.838,308.229 275.712,308.229C274.587,308.229 273.673,307.315 273.673,306.19C273.673,305.064 274.587,304.15 275.712,304.15ZM268.978,304.15C270.104,304.15 271.018,305.064 271.018,306.19C271.018,307.315 270.104,308.229 268.978,308.229C267.853,308.229 266.939,307.315 266.939,306.19C266.939,305.064 267.853,304.15 268.978,304.15ZM261.954,304.15C263.079,304.15 263.993,305.064 263.993,306.19C263.993,307.315 263.079,308.229 261.954,308.229C260.828,308.229 259.914,307.315 259.914,306.19C259.914,305.064 260.828,304.15 261.954,304.15ZM255.22,304.15C256.345,304.15 257.259,305.064 257.259,306.19C257.259,307.315 256.345,308.229 255.22,308.229C254.094,308.229 253.18,307.315 253.18,306.19C253.18,305.064 254.094,304.15 255.22,304.15ZM248.175,304.15C249.301,304.15 250.215,305.064 250.215,306.19C250.215,307.315 249.301,308.229 248.175,308.229C247.049,308.229 246.135,307.315 246.135,306.19C246.135,305.064 247.049,304.15 248.175,304.15ZM241.441,304.15C242.567,304.15 243.481,305.064 243.481,306.19C243.481,307.315 242.567,308.229 241.441,308.229C240.315,308.229 239.401,307.315 239.401,306.19C239.401,305.064 240.315,304.15 241.441,304.15ZM234.584,304.15C235.709,304.15 236.623,305.064 236.623,306.19C236.623,307.315 235.709,308.229 234.584,308.229C233.458,308.229 232.544,307.315 232.544,306.19C232.544,305.064 233.458,304.15 234.584,304.15ZM227.85,304.15C228.975,304.15 229.889,305.064 229.889,306.19C229.889,307.315 228.975,308.229 227.85,308.229C226.724,308.229 225.81,307.315 225.81,306.19C225.81,305.064 226.724,304.15 227.85,304.15ZM220.805,304.15C221.931,304.15 222.845,305.064 222.845,306.19C222.845,307.315 221.931,308.229 220.805,308.229C219.679,308.229 218.765,307.315 218.765,306.19C218.765,305.064 219.679,304.15 220.805,304.15ZM214.071,304.15C215.197,304.15 216.111,305.064 216.111,306.19C216.111,307.315 215.197,308.229 214.071,308.229C212.945,308.229 212.032,307.315 212.032,306.19C212.032,305.064 212.945,304.15 214.071,304.15ZM206.08,304.348C206.346,304.221 206.643,304.15 206.957,304.15C208.083,304.15 208.997,305.064 208.997,306.19C208.997,307.315 208.083,308.229 206.957,308.229C205.832,308.229 204.918,307.315 204.918,306.19C204.918,305.548 205.215,304.975 205.679,304.601L206.08,304.348ZM202.164,306.817C201.9,307.636 201.13,308.229 200.223,308.229C200.131,308.229 200.041,308.223 199.952,308.211L202.164,306.817ZM289.491,304.15C290.617,304.15 291.531,305.064 291.531,306.19C291.531,307.315 290.617,308.229 289.491,308.229C288.365,308.229 287.451,307.315 287.451,306.19C287.451,305.064 288.365,304.15 289.491,304.15ZM212.429,300.346C212.402,301.449 211.499,302.336 210.39,302.336C210.092,302.336 209.81,302.272 209.555,302.157L212.429,300.346ZM216.423,298.38L217.824,298.38C218.605,298.666 219.163,299.416 219.163,300.296C219.163,301.422 218.249,302.336 217.124,302.336C215.998,302.336 215.084,301.422 215.084,300.296C215.084,299.416 215.642,298.666 216.423,298.38ZM230.202,298.38L231.602,298.38C232.384,298.666 232.942,299.416 232.942,300.296C232.942,301.422 232.028,302.336 230.902,302.336C229.777,302.336 228.863,301.422 228.863,300.296C228.863,299.416 229.421,298.666 230.202,298.38ZM237.06,298.38L238.46,298.38C239.241,298.666 239.799,299.416 239.799,300.296C239.799,301.422 238.885,302.336 237.76,302.336C236.634,302.336 235.72,301.422 235.72,300.296C235.72,299.416 236.278,298.666 237.06,298.38ZM243.793,298.38L245.194,298.38C245.975,298.666 246.533,299.416 246.533,300.296C246.533,301.422 245.619,302.336 244.494,302.336C243.368,302.336 242.454,301.422 242.454,300.296C242.454,299.416 243.012,298.666 243.793,298.38ZM250.838,298.38L252.238,298.38C253.02,298.666 253.578,299.416 253.578,300.296C253.578,301.422 252.664,302.336 251.538,302.336C250.413,302.336 249.499,301.422 249.499,300.296C249.499,299.416 250.057,298.666 250.838,298.38ZM257.572,298.38L258.972,298.38C259.754,298.666 260.312,299.416 260.312,300.296C260.312,301.422 259.398,302.336 258.272,302.336C257.147,302.336 256.233,301.422 256.233,300.296C256.233,299.416 256.791,298.666 257.572,298.38ZM265.715,298.3C266.641,298.493 267.337,299.314 267.337,300.296C267.337,301.422 266.423,302.336 265.297,302.336C264.171,302.336 263.257,301.422 263.257,300.296C263.257,299.388 263.852,298.618 264.673,298.354C265.021,298.341 265.367,298.323 265.715,298.3ZM272.031,298.256C273.157,298.256 274.071,299.17 274.071,300.296C274.071,301.422 273.157,302.336 272.031,302.336C270.905,302.336 269.991,301.422 269.991,300.296C269.991,299.17 270.905,298.256 272.031,298.256ZM279.076,298.256C280.201,298.256 281.115,299.17 281.115,300.296C281.115,301.422 280.201,302.336 279.076,302.336C277.95,302.336 277.036,301.422 277.036,300.296C277.036,299.17 277.95,298.256 279.076,298.256ZM285.81,298.256C286.935,298.256 287.849,299.17 287.849,300.296C287.849,301.422 286.935,302.336 285.81,302.336C284.684,302.336 283.77,301.422 283.77,300.296C283.77,299.17 284.684,298.256 285.81,298.256ZM292.667,298.256C293.793,298.256 294.707,299.17 294.707,300.296C294.707,301.422 293.793,302.336 292.667,302.336C291.541,302.336 290.627,301.422 290.627,300.296C290.627,299.17 291.541,298.256 292.667,298.256ZM299.675,302.317C299.585,302.329 299.494,302.336 299.401,302.336C298.275,302.336 297.361,301.422 297.361,300.296C297.361,299.17 298.275,298.256 299.401,298.256C299.494,298.256 299.585,298.263 299.675,298.275L299.675,302.317ZM223.468,298.38L224.869,298.38C225.65,298.666 226.208,299.416 226.208,300.296C226.208,301.422 225.294,302.336 224.168,302.336C223.043,302.336 222.129,301.422 222.129,300.296C222.129,299.416 222.687,298.666 223.468,298.38ZM283.134,292.431C283.889,292.73 284.423,293.467 284.423,294.328C284.423,295.453 283.509,296.367 282.383,296.367C281.258,296.367 280.344,295.453 280.344,294.328C280.344,294.245 280.349,294.164 280.359,294.084L281.455,293.47L281.797,293.268C282.131,293.069 282.462,292.864 282.789,292.654L283.134,292.431ZM295.975,292.288C297.101,292.288 298.014,293.202 298.014,294.328C298.014,295.453 297.101,296.367 295.975,296.367C294.849,296.367 293.935,295.453 293.935,294.328C293.935,293.202 294.849,292.288 295.975,292.288ZM277.277,295.557C276.904,296.049 276.314,296.367 275.65,296.367C275.521,296.367 275.395,296.355 275.272,296.332L276.379,295.922L277.277,295.557ZM289.241,292.288C290.367,292.288 291.281,293.202 291.281,294.328C291.281,295.453 290.367,296.367 289.241,296.367C288.115,296.367 287.201,295.453 287.201,294.328C287.201,293.202 288.115,292.288 289.241,292.288ZM292.399,286.12C293.525,286.12 294.439,287.033 294.439,288.159C294.439,289.285 293.525,290.199 292.399,290.199C291.274,290.199 290.36,289.285 290.36,288.159C290.36,287.033 291.274,286.12 292.399,286.12ZM299.675,286.133L299.675,290.186C299.599,290.194 299.522,290.199 299.444,290.199C298.318,290.199 297.404,289.285 297.404,288.159C297.404,287.033 298.318,286.12 299.444,286.12C299.522,286.12 299.599,286.124 299.675,286.133ZM287.483,289.086C287.361,289.323 287.195,289.533 286.995,289.705C286.795,289.878 286.561,290.012 286.304,290.096C286.704,289.768 287.097,289.431 287.483,289.086ZM296.252,280.144C297.377,280.144 298.291,281.058 298.291,282.184C298.291,283.309 297.377,284.223 296.252,284.223C295.126,284.223 294.212,283.309 294.212,282.184C294.212,281.058 295.126,280.144 296.252,280.144Z" style="fill:#001a8e;"/>
            <path d="M188.122,298.38L186.705,299.379C175.428,307.188 150.582,321.345 147.514,322.314C144.681,323.209 143.06,324.448 142.178,325.93C141.294,327.415 141.153,329.11 141.169,330.822L141.169,344L141.188,345L140.169,345L140.169,330.832C140.134,327.037 140.922,323.348 147.213,321.361C150.284,320.39 175.313,306.098 186.391,298.38L188.122,298.38Z" style="fill:#3c56ca;"/>
            <g transform="matrix(-1,0,0,1,293.233,0)">
                <path d="M76.705,298.102C76.756,297.588 78.643,297.496 79.164,298.096C79.181,298.116 79.206,298.128 79.227,298.144C90.88,306.913 106.607,315.682 118.161,322.792C122.049,325.185 124.856,327.924 124.856,332.681C124.856,332.681 124.856,344.764 124.856,344.764C124.856,344.839 124.821,345 124.821,345L123.384,345C123.384,345 123.356,344.839 123.356,344.764L123.356,332.681C123.356,328.504 120.788,326.17 117.375,324.07C105.26,316.614 88.576,307.336 76.759,298.144C76.741,298.13 76.703,298.124 76.705,298.102Z" style="fill:#fff;"/>
            </g>
        </g>
        <g transform="matrix(0.0280588,0,0,0.0280588,234.317,319.284)">
            <path d="M-237.141,437.289L-237.141,-358.536C-233.556,-389.877 -172.504,-404.388 -84.795,-411.092C2.992,-417.78 93.131,-419.174 184.672,-417.414C247.732,-415.802 303.627,-409.017 349.791,-395.202C459.064,-364.085 502.23,-297.962 509.18,-208.642C517.324,-103.978 489.181,-10.579 407.531,11.908C485.654,31.358 528.421,83.776 535.415,169.549C540.954,243.451 534.651,312.367 494.503,367.032C448.056,429.258 356.819,459.614 232.273,466.27L-157.907,466.27C-211.686,465.264 -236.793,460.842 -237.141,437.289ZM51.848,284.002L51.848,122.085C68.319,118.916 137.865,116.509 154.514,122.121C206.534,139.656 217.532,258.41 154.514,284.327C140.5,290.091 69.004,287.811 51.848,284.002ZM51.848,-69.352L51.848,-231.269C68.319,-234.438 137.865,-236.846 154.514,-231.233C206.534,-213.698 217.532,-94.944 154.514,-69.028C140.5,-63.264 69.004,-65.543 51.848,-69.352Z" style="fill:#fff;stroke:#4f6df3;stroke-width:35.64px;"/>
        </g>
        <g transform="matrix(1.98782,0,0,1.98782,-137.134,-318.252)">
            <g transform="matrix(1,0,0,1,0,-11.3414)">
                <path d="M150.505,345L143.439,345C143.439,343.05 145.022,341.467 146.972,341.467C148.922,341.467 150.505,343.05 150.505,345Z" style="fill:#a9a9a9;"/>
            </g>
            <g transform="matrix(1,0,0,1,0,-11.3414)">
                <path d="M144.439,345L143.439,345C143.439,343.05 145.022,341.467 146.972,341.467C148.922,341.467 150.505,343.05 150.505,345L149.505,345C149.505,343.602 148.37,342.467 146.972,342.467C145.574,342.467 144.439,343.602 144.439,345Z" style="fill:#8c8c8c;"/>
            </g>
            <g transform="matrix(1,0,0,1,0,-11.3414)">
                <path d="M146.055,343.917C146.297,343.917 146.493,344.114 146.493,344.355C146.493,344.597 146.297,344.793 146.055,344.793C145.814,344.793 145.617,344.597 145.617,344.355C145.617,344.114 145.814,343.917 146.055,343.917ZM147.607,343.667C147.849,343.667 148.045,343.863 148.045,344.105C148.045,344.347 147.849,344.543 147.607,344.543C147.365,344.543 147.169,344.347 147.169,344.105C147.169,343.863 147.365,343.667 147.607,343.667Z" style="fill:#0e268f;"/>
            </g>
            <g transform="matrix(1,0,0,1,0,-11.3414)">
                <path d="M145.977,343.782C146.299,343.727 146.605,343.944 146.66,344.266C146.715,344.588 146.498,344.894 146.176,344.949C145.854,345.004 145.548,344.787 145.493,344.465C145.438,344.143 145.655,343.837 145.977,343.782ZM146.01,343.98C146.224,343.943 146.426,344.087 146.463,344.3C146.499,344.513 146.356,344.716 146.142,344.752C145.929,344.788 145.727,344.645 145.69,344.432C145.654,344.219 145.797,344.016 146.01,343.98ZM147.507,343.521C147.829,343.466 148.135,343.683 148.19,344.005C148.245,344.327 148.028,344.633 147.706,344.688C147.384,344.743 147.078,344.526 147.023,344.204C146.968,343.882 147.185,343.576 147.507,343.521ZM147.54,343.718C147.753,343.682 147.956,343.825 147.993,344.038C148.029,344.252 147.885,344.454 147.672,344.491C147.459,344.527 147.257,344.384 147.22,344.17C147.184,343.957 147.327,343.755 147.54,343.718Z" style="fill:#8c8c8c;"/>
            </g>
            <g transform="matrix(1,0,0,1,0,-11.3414)">
                <path d="M146.45,345L147.482,345L147.391,344.935L147.696,344.504C147.791,344.369 147.759,344.182 147.624,344.086C147.489,343.99 147.302,344.022 147.206,344.157L146.902,344.586L146.432,344.25C146.298,344.154 146.11,344.186 146.014,344.32C145.918,344.455 145.949,344.643 146.084,344.739L146.45,345Z" style="fill:#000e4b;"/>
            </g>
        </g>
    </g>
</svg>
