<?xml version="1.0" encoding="UTF-8" standalone="no"?>
<!DOCTYPE svg PUBLIC "-//W3C//DTD SVG 1.1//EN" "http://www.w3.org/Graphics/SVG/1.1/DTD/svg11.dtd">
<svg width="100%" height="100%" viewBox="0 0 300 345" version="1.1" xmlns="http://www.w3.org/2000/svg" xmlns:xlink="http://www.w3.org/1999/xlink" xml:space="preserve" xmlns:serif="http://www.serif.com/" style="fill-rule:evenodd;clip-rule:evenodd;stroke-linejoin:round;stroke-miterlimit:2;">
    <g id="avatar_clothing_20">
        <path d="M300,308.62C300,328.577 283.577,345 263.62,345L36.38,345C16.423,345 -0,328.577 -0,308.62L-0,262.01L0,262L-0,262.01C-0,281.962 16.418,298.38 36.37,298.38L263.62,298.38C283.577,298.38 300,281.957 300,262L300,308.62Z" style="fill-rule:nonzero;"/>
        <path d="M300,308.62C300,328.577 283.577,345 263.62,345L36.38,345C16.423,345 -0,328.577 -0,308.62L-0,262.01L0,262L-0,262.01C-0,281.962 16.418,298.38 36.37,298.38L113.284,298.38L150,318.734L186.716,298.38L263.62,298.38C283.577,298.38 300,281.957 300,262L300,308.62Z" style="fill:#202020;fill-rule:nonzero;"/>
        <path d="M152.738,320.404L133.663,329.521L77.351,298.317L112.879,298.317L152.738,320.404Z" style="fill:#333;"/>
        <path d="M146.195,316.778L152.738,320.404L133.663,329.521L128.263,326.529L146.195,316.778Z" style="fill:#272727;"/>
        <path d="M138.06,326.796L87.949,298.367L91.913,298.317L140.072,325.638L138.06,326.796ZM144.768,322.935L101.461,298.367L105.495,298.356L146.78,321.777L144.768,322.935Z" style="fill:#474747;"/>
        <path d="M138.06,326.796L133.023,323.938L135.094,322.814L140.072,325.638L138.06,326.796ZM144.768,322.935L139.924,320.188L141.993,319.062L146.78,321.777L144.768,322.935Z" style="fill:#333;"/>
        <g transform="matrix(1,0,-1.68721,0.934947,588.259,14.5604)">
            <rect x="110.656" y="303.5" width="35.528" height="49.931" style="fill:#333;"/>
        </g>
        <path d="M111.599,345L115.652,345L197.852,298.367L193.804,298.364L111.599,345ZM125.117,345L129.165,345L211.364,298.367L207.33,298.356L125.117,345Z" style="fill:#474747;"/>
        <path d="M-0,262.01C-0,281.962 16.418,298.38 36.37,298.38L77.019,298.38L119.011,345L36.38,345L-0,308.62L0,262L-0,262.01ZM300,308.62L263.62,345L180.58,345L222.571,298.38L263.62,298.38C283.577,298.38 300,281.957 300,262L300,308.62Z" style="fill:#129917;fill-rule:nonzero;"/>
        <path d="M36.69,345L37.369,345L39.044,344.343C39.301,344.242 39.428,343.951 39.327,343.695C39.226,343.438 38.936,343.311 38.679,343.412C38.055,343.656 37.434,343.9 36.817,344.142C36.56,344.243 36.433,344.534 36.534,344.791C36.568,344.876 36.622,344.947 36.69,345ZM68.19,345L68.869,345C68.937,344.947 68.991,344.876 69.025,344.791C69.126,344.534 68.999,344.243 68.742,344.142C68.125,343.9 67.504,343.656 66.88,343.412C66.624,343.311 66.333,343.438 66.232,343.695C66.132,343.951 66.258,344.242 66.515,344.343L68.19,345ZM70.054,345L70.927,345L70.604,344.873C70.407,344.796 70.189,344.853 70.054,345ZM99.727,345L101.903,345L100.392,344.407C100.135,344.306 99.845,344.433 99.744,344.69C99.704,344.793 99.7,344.901 99.727,345ZM197.272,345L198.782,344.407C199.039,344.306 199.33,344.433 199.431,344.69C199.471,344.793 199.475,344.901 199.448,345L197.272,345ZM228.247,345L228.571,344.873C228.768,344.796 228.985,344.853 229.121,345L228.247,345ZM230.306,345C230.238,344.947 230.183,344.876 230.15,344.791C230.049,344.534 230.175,344.243 230.432,344.142C231.05,343.9 231.671,343.656 232.294,343.412C232.551,343.311 232.841,343.438 232.942,343.695C233.043,343.951 232.916,344.242 232.659,344.343L230.984,345L230.306,345ZM261.806,345L260.131,344.343C259.874,344.242 259.747,343.951 259.848,343.695C259.949,343.438 260.239,343.311 260.496,343.412C261.119,343.656 261.74,343.9 262.358,344.142C262.615,344.243 262.741,344.534 262.64,344.791C262.607,344.876 262.552,344.947 262.484,345L261.806,345ZM96.303,343.877C96.952,344.131 97.574,344.375 98.165,344.607C98.422,344.708 98.712,344.581 98.813,344.324C98.914,344.068 98.787,343.777 98.53,343.676C97.939,343.444 97.318,343.2 96.669,342.946C96.412,342.845 96.121,342.972 96.02,343.228C95.92,343.485 96.046,343.776 96.303,343.877ZM202.871,343.877C202.222,344.131 201.601,344.375 201.01,344.607C200.753,344.708 200.462,344.581 200.361,344.324C200.261,344.068 200.387,343.777 200.644,343.676C201.236,343.444 201.857,343.2 202.506,342.946C202.763,342.845 203.053,342.972 203.154,343.228C203.255,343.485 203.128,343.776 202.871,343.877ZM236.383,342.881C235.76,343.126 235.14,343.369 234.521,343.612C234.264,343.713 233.974,343.586 233.873,343.329C233.772,343.072 233.899,342.782 234.156,342.681C234.774,342.438 235.395,342.195 236.018,341.95C236.274,341.85 236.565,341.976 236.666,342.233C236.766,342.49 236.64,342.78 236.383,342.881ZM62.792,342.881C63.414,343.126 64.035,343.369 64.653,343.612C64.91,343.713 65.201,343.586 65.301,343.329C65.402,343.072 65.276,342.782 65.019,342.681C64.4,342.438 63.78,342.195 63.157,341.95C62.9,341.85 62.61,341.976 62.509,342.233C62.408,342.49 62.535,342.78 62.792,342.881ZM42.402,341.95C41.779,342.195 41.159,342.438 40.54,342.681C40.284,342.782 40.157,343.072 40.258,343.329C40.358,343.586 40.649,343.713 40.906,343.612C41.524,343.369 42.145,343.126 42.767,342.881C43.024,342.78 43.151,342.49 43.05,342.233C42.949,341.976 42.659,341.85 42.402,341.95ZM256.772,341.95C257.395,342.195 258.016,342.438 258.634,342.681C258.891,342.782 259.018,343.072 258.917,343.329C258.816,343.586 258.526,343.713 258.269,343.612C257.65,343.369 257.03,343.126 256.407,342.881C256.15,342.78 256.023,342.49 256.124,342.233C256.225,341.976 256.516,341.85 256.772,341.95ZM92.58,342.415C93.219,342.666 93.84,342.91 94.441,343.146C94.698,343.247 94.989,343.12 95.09,342.863C95.19,342.606 95.064,342.316 94.807,342.215C94.205,341.979 93.584,341.735 92.945,341.484C92.688,341.384 92.398,341.51 92.297,341.767C92.196,342.024 92.323,342.314 92.58,342.415ZM206.595,342.415C205.956,342.666 205.335,342.91 204.733,343.146C204.476,343.247 204.186,343.12 204.085,342.863C203.984,342.606 204.111,342.316 204.368,342.215C204.969,341.979 205.59,341.735 206.23,341.484C206.486,341.384 206.777,341.51 206.878,341.767C206.978,342.024 206.852,342.314 206.595,342.415ZM46.126,340.489C45.504,340.733 44.883,340.977 44.264,341.22C44.007,341.321 43.88,341.611 43.981,341.868C44.082,342.125 44.372,342.251 44.629,342.151C45.248,341.908 45.869,341.664 46.491,341.42C46.748,341.319 46.875,341.029 46.774,340.772C46.673,340.515 46.383,340.388 46.126,340.489ZM253.049,340.489C253.671,340.733 254.291,340.977 254.911,341.22C255.168,341.321 255.294,341.611 255.193,341.868C255.093,342.125 254.802,342.251 254.545,342.151C253.926,341.908 253.305,341.664 252.684,341.42C252.427,341.319 252.3,341.029 252.401,340.772C252.502,340.515 252.792,340.388 253.049,340.489ZM240.106,341.42C239.485,341.664 238.864,341.908 238.245,342.151C237.988,342.251 237.697,342.125 237.597,341.868C237.496,341.611 237.622,341.321 237.879,341.22C238.498,340.977 239.119,340.733 239.741,340.489C239.998,340.388 240.288,340.515 240.389,340.772C240.49,341.029 240.363,341.319 240.106,341.42ZM59.068,341.42C59.69,341.664 60.311,341.908 60.93,342.151C61.187,342.251 61.477,342.125 61.578,341.868C61.679,341.611 61.552,341.321 61.295,341.22C60.676,340.977 60.055,340.733 59.433,340.489C59.177,340.388 58.886,340.515 58.785,340.772C58.685,341.029 58.811,341.319 59.068,341.42ZM88.856,340.954C89.49,341.203 90.111,341.446 90.718,341.685C90.975,341.785 91.265,341.659 91.366,341.402C91.467,341.145 91.34,340.855 91.083,340.754C90.476,340.516 89.856,340.272 89.222,340.023C88.965,339.922 88.674,340.049 88.573,340.306C88.473,340.563 88.599,340.853 88.856,340.954ZM210.318,340.954C209.684,341.203 209.063,341.446 208.457,341.685C208.2,341.785 207.909,341.659 207.808,341.402C207.708,341.145 207.834,340.855 208.091,340.754C208.698,340.516 209.319,340.272 209.953,340.023C210.21,339.922 210.5,340.049 210.601,340.306C210.702,340.563 210.575,340.853 210.318,340.954ZM249.325,339.028C249.946,339.271 250.567,339.515 251.187,339.758C251.444,339.859 251.571,340.15 251.47,340.406C251.369,340.663 251.079,340.79 250.822,340.689C250.202,340.446 249.581,340.202 248.96,339.959C248.703,339.858 248.576,339.567 248.677,339.31C248.778,339.054 249.068,338.927 249.325,339.028ZM55.345,339.959C55.966,340.202 56.586,340.446 57.206,340.689C57.463,340.79 57.754,340.663 57.854,340.406C57.955,340.15 57.829,339.859 57.572,339.758C56.952,339.515 56.331,339.271 55.71,339.028C55.453,338.927 55.163,339.054 55.062,339.31C54.961,339.567 55.088,339.858 55.345,339.959ZM49.849,339.028C49.228,339.271 48.607,339.515 47.987,339.758C47.731,339.859 47.604,340.15 47.705,340.406C47.806,340.663 48.096,340.79 48.353,340.689C48.973,340.446 49.593,340.202 50.215,339.959C50.471,339.858 50.598,339.567 50.497,339.31C50.397,339.054 50.106,338.927 49.849,339.028ZM243.83,339.959C243.209,340.202 242.588,340.446 241.968,340.689C241.711,340.79 241.421,340.663 241.32,340.406C241.219,340.15 241.346,339.859 241.603,339.758C242.223,339.515 242.843,339.271 243.465,339.028C243.722,338.927 244.012,339.054 244.113,339.31C244.214,339.567 244.087,339.858 243.83,339.959ZM85.133,339.493C85.764,339.74 86.384,339.984 86.994,340.223C87.251,340.324 87.542,340.197 87.643,339.94C87.743,339.684 87.617,339.393 87.36,339.292C86.75,339.053 86.129,338.809 85.498,338.562C85.241,338.461 84.951,338.588 84.85,338.844C84.749,339.101 84.876,339.392 85.133,339.493ZM214.042,339.493C213.411,339.74 212.79,339.984 212.18,340.223C211.923,340.324 211.633,340.197 211.532,339.94C211.431,339.684 211.558,339.393 211.815,339.292C212.425,339.053 213.046,338.809 213.676,338.562C213.933,338.461 214.224,338.588 214.325,338.844C214.425,339.101 214.299,339.392 214.042,339.493ZM52.78,337.878L51.986,337.566C51.73,337.466 51.439,337.592 51.338,337.849C51.253,338.067 51.331,338.308 51.513,338.439C51.397,338.574 51.359,338.768 51.428,338.945C51.529,339.202 51.819,339.329 52.076,339.228L52.78,338.952L53.483,339.228C53.74,339.329 54.03,339.202 54.131,338.945C54.2,338.768 54.162,338.574 54.046,338.439C54.228,338.308 54.306,338.067 54.221,337.849C54.12,337.592 53.83,337.466 53.573,337.566L52.78,337.878ZM246.395,337.878L247.188,337.566C247.445,337.466 247.735,337.592 247.836,337.849C247.922,338.067 247.844,338.308 247.662,338.439C247.777,338.574 247.816,338.768 247.746,338.945C247.645,339.202 247.355,339.329 247.098,339.228L246.395,338.952L245.692,339.228C245.435,339.329 245.144,339.202 245.044,338.945C244.974,338.768 245.013,338.574 245.128,338.439C244.946,338.308 244.868,338.067 244.954,337.849C245.055,337.592 245.345,337.466 245.602,337.566L246.395,337.878ZM81.409,338.031C82.038,338.278 82.659,338.522 83.271,338.762C83.528,338.863 83.818,338.736 83.919,338.479C84.02,338.222 83.893,337.932 83.636,337.831C83.024,337.591 82.403,337.347 81.775,337.1C81.518,337 81.227,337.126 81.126,337.383C81.026,337.64 81.152,337.93 81.409,338.031ZM217.765,338.031C217.137,338.278 216.516,338.522 215.904,338.762C215.647,338.863 215.356,338.736 215.255,338.479C215.155,338.222 215.281,337.932 215.538,337.831C216.151,337.591 216.771,337.347 217.4,337.1C217.657,337 217.947,337.126 218.048,337.383C218.149,337.64 218.022,337.93 217.765,338.031ZM57.296,336.105C56.676,336.348 56.056,336.592 55.434,336.836C55.178,336.937 55.051,337.227 55.152,337.484C55.253,337.741 55.543,337.867 55.8,337.767C56.421,337.523 57.042,337.279 57.662,337.036C57.918,336.935 58.045,336.645 57.944,336.388C57.843,336.131 57.553,336.004 57.296,336.105ZM47.898,337.036C48.517,337.279 49.138,337.523 49.759,337.767C50.016,337.867 50.307,337.741 50.407,337.484C50.508,337.227 50.382,336.937 50.125,336.836C49.503,336.592 48.883,336.348 48.263,336.105C48.006,336.004 47.716,336.131 47.615,336.388C47.514,336.645 47.641,336.935 47.898,337.036ZM241.878,336.105C242.498,336.348 243.119,336.592 243.74,336.836C243.997,336.937 244.124,337.227 244.023,337.484C243.922,337.741 243.632,337.867 243.375,337.767C242.754,337.523 242.133,337.279 241.513,337.036C241.256,336.935 241.129,336.645 241.23,336.388C241.331,336.131 241.621,336.004 241.878,336.105ZM251.277,337.036C250.657,337.279 250.036,337.523 249.415,337.767C249.158,337.867 248.868,337.741 248.767,337.484C248.666,337.227 248.793,336.937 249.05,336.836C249.671,336.592 250.292,336.348 250.912,336.105C251.168,336.004 251.459,336.131 251.56,336.388C251.661,336.645 251.534,336.935 251.277,337.036ZM221.489,336.57C220.862,336.816 220.241,337.06 219.627,337.301C219.37,337.401 219.08,337.275 218.979,337.018C218.878,336.761 219.005,336.471 219.262,336.37C219.876,336.129 220.497,335.885 221.124,335.639C221.38,335.538 221.671,335.665 221.772,335.922C221.872,336.179 221.746,336.469 221.489,336.57ZM77.686,336.57C78.312,336.816 78.933,337.06 79.547,337.301C79.804,337.401 80.095,337.275 80.196,337.018C80.296,336.761 80.17,336.471 79.913,336.37C79.299,336.129 78.678,335.885 78.051,335.639C77.794,335.538 77.504,335.665 77.403,335.922C77.302,336.179 77.429,336.469 77.686,336.57ZM271.839,336.781L271.301,336.57C271.044,336.469 270.918,336.179 271.018,335.922C271.119,335.665 271.41,335.538 271.666,335.639L272.61,336.01L271.839,336.781ZM27.157,335.777L27.926,336.546C28.147,336.428 28.25,336.161 28.156,335.922C28.055,335.665 27.765,335.538 27.508,335.639L27.157,335.777ZM238.155,334.644C238.774,334.887 239.395,335.13 240.017,335.374C240.274,335.475 240.4,335.766 240.299,336.023C240.199,336.279 239.908,336.406 239.651,336.305C239.029,336.061 238.409,335.818 237.79,335.575C237.533,335.474 237.406,335.183 237.507,334.927C237.608,334.67 237.898,334.543 238.155,334.644ZM44.174,335.575C44.793,335.818 45.414,336.061 46.036,336.305C46.293,336.406 46.583,336.279 46.684,336.023C46.785,335.766 46.658,335.475 46.401,335.374C45.779,335.13 45.159,334.887 44.54,334.644C44.283,334.543 43.992,334.67 43.891,334.927C43.791,335.183 43.917,335.474 44.174,335.575ZM255,335.575C254.381,335.818 253.761,336.061 253.139,336.305C252.882,336.406 252.591,336.279 252.491,336.023C252.39,335.766 252.516,335.475 252.773,335.374C253.395,335.13 254.016,334.887 254.635,334.644C254.892,334.543 255.182,334.67 255.283,334.927C255.384,335.183 255.257,335.474 255,335.575ZM61.02,334.644C60.4,334.887 59.78,335.13 59.158,335.374C58.901,335.475 58.774,335.766 58.875,336.023C58.976,336.279 59.266,336.406 59.523,336.305C60.145,336.061 60.766,335.818 61.385,335.575C61.642,335.474 61.768,335.183 61.668,334.927C61.567,334.67 61.276,334.543 61.02,334.644ZM267.943,334.178C268.568,334.423 269.189,334.667 269.805,334.908C270.062,335.009 270.188,335.3 270.087,335.556C269.987,335.813 269.696,335.94 269.439,335.839C268.824,335.598 268.203,335.354 267.578,335.109C267.321,335.008 267.194,334.717 267.295,334.46C267.396,334.204 267.686,334.077 267.943,334.178ZM31.232,334.178C30.606,334.423 29.985,334.667 29.37,334.908C29.113,335.009 28.986,335.3 29.087,335.556C29.188,335.813 29.478,335.94 29.735,335.839C30.351,335.598 30.971,335.354 31.597,335.109C31.854,335.008 31.981,334.717 31.88,334.46C31.779,334.204 31.488,334.077 31.232,334.178ZM73.962,335.109C74.588,335.354 75.208,335.598 75.824,335.839C76.081,335.94 76.371,335.813 76.472,335.556C76.573,335.3 76.446,335.009 76.189,334.908C75.574,334.667 74.953,334.423 74.327,334.178C74.071,334.077 73.78,334.204 73.679,334.46C73.579,334.717 73.705,335.008 73.962,335.109ZM225.212,335.109C224.587,335.354 223.966,335.598 223.351,335.839C223.094,335.94 222.803,335.813 222.702,335.556C222.602,335.3 222.728,335.009 222.985,334.908C223.601,334.667 224.222,334.423 224.847,334.178C225.104,334.077 225.394,334.204 225.495,334.46C225.596,334.717 225.469,335.008 225.212,335.109ZM258.724,334.113C258.105,334.356 257.485,334.6 256.862,334.844C256.605,334.945 256.315,334.818 256.214,334.561C256.113,334.304 256.24,334.014 256.497,333.913C257.119,333.669 257.74,333.425 258.359,333.182C258.615,333.082 258.906,333.208 259.007,333.465C259.107,333.722 258.981,334.012 258.724,334.113ZM234.431,333.182C235.05,333.425 235.671,333.669 236.293,333.913C236.55,334.014 236.677,334.304 236.576,334.561C236.475,334.818 236.185,334.945 235.928,334.844C235.305,334.6 234.684,334.356 234.066,334.113C233.809,334.012 233.683,333.722 233.783,333.465C233.884,333.208 234.175,333.082 234.431,333.182ZM64.743,333.182C64.125,333.425 63.504,333.669 62.881,333.913C62.624,334.014 62.498,334.304 62.599,334.561C62.699,334.818 62.99,334.945 63.247,334.844C63.869,334.6 64.49,334.356 65.108,334.113C65.365,334.012 65.492,333.722 65.391,333.465C65.29,333.208 65,333.082 64.743,333.182ZM40.451,334.113C41.069,334.356 41.69,334.6 42.312,334.844C42.569,334.945 42.86,334.818 42.961,334.561C43.061,334.304 42.935,334.014 42.678,333.913C42.055,333.669 41.434,333.425 40.816,333.182C40.559,333.082 40.269,333.208 40.168,333.465C40.067,333.722 40.194,334.012 40.451,334.113ZM195.424,333.737C194.426,334.129 193.787,334.38 193.563,334.468C193.306,334.569 193.015,334.442 192.914,334.185C192.814,333.928 192.94,333.638 193.197,333.537C193.421,333.449 194.06,333.198 195.059,332.806C195.316,332.706 195.606,332.832 195.707,333.089C195.808,333.346 195.681,333.636 195.424,333.737ZM103.75,333.737C104.749,334.129 105.388,334.38 105.612,334.468C105.869,334.569 106.159,334.442 106.26,334.185C106.361,333.928 106.234,333.638 105.977,333.537C105.753,333.449 105.114,333.198 104.116,332.806C103.859,332.706 103.568,332.832 103.467,333.089C103.367,333.346 103.493,333.636 103.75,333.737ZM70.239,333.647C70.863,333.892 71.484,334.136 72.1,334.378C72.357,334.479 72.648,334.352 72.749,334.095C72.849,333.838 72.723,333.548 72.466,333.447C71.849,333.205 71.228,332.961 70.604,332.716C70.347,332.616 70.057,332.742 69.956,332.999C69.855,333.256 69.982,333.546 70.239,333.647ZM264.219,332.716C264.844,332.961 265.465,333.205 266.081,333.447C266.338,333.548 266.465,333.838 266.364,334.095C266.263,334.352 265.973,334.479 265.716,334.378C265.099,334.136 264.479,333.892 263.854,333.647C263.597,333.546 263.471,333.256 263.571,332.999C263.672,332.742 263.963,332.616 264.219,332.716ZM228.936,333.647C228.311,333.892 227.691,334.136 227.074,334.378C226.817,334.479 226.527,334.352 226.426,334.095C226.325,333.838 226.452,333.548 226.709,333.447C227.325,333.205 227.946,332.961 228.571,332.716C228.827,332.616 229.118,332.742 229.219,332.999C229.319,333.256 229.193,333.546 228.936,333.647ZM34.955,332.716C34.331,332.961 33.71,333.205 33.093,333.447C32.836,333.548 32.71,333.838 32.811,334.095C32.911,334.352 33.202,334.479 33.459,334.378C34.075,334.136 34.696,333.892 35.32,333.647C35.577,333.546 35.704,333.256 35.603,332.999C35.502,332.742 35.212,332.616 34.955,332.716ZM232.276,332.336L232.57,332.452C232.827,332.553 232.953,332.843 232.853,333.1C232.752,333.357 232.461,333.483 232.204,333.383L230.907,332.874L230.798,332.917C230.541,333.017 230.25,332.891 230.15,332.634C230.129,332.581 230.118,332.527 230.115,332.473C230.023,332.34 229.996,332.165 230.06,332.004C230.161,331.747 230.451,331.62 230.708,331.721L230.907,331.799L232.294,331.255C232.551,331.154 232.841,331.281 232.942,331.538C233.043,331.795 232.916,332.085 232.659,332.186L232.276,332.336ZM66.899,332.336L66.605,332.452C66.348,332.553 66.221,332.843 66.322,333.1C66.423,333.357 66.713,333.483 66.97,333.383L68.267,332.874L68.377,332.917C68.634,333.017 68.924,332.891 69.025,332.634C69.046,332.581 69.057,332.527 69.059,332.473C69.151,332.34 69.178,332.165 69.115,332.004C69.014,331.747 68.723,331.62 68.467,331.721L68.267,331.799L66.88,331.255C66.624,331.154 66.333,331.281 66.232,331.538C66.132,331.795 66.258,332.085 66.515,332.186L66.899,332.336ZM37.292,331.799L37.093,331.721C36.836,331.62 36.545,331.747 36.444,332.004C36.381,332.165 36.408,332.34 36.5,332.473C36.502,332.527 36.513,332.581 36.534,332.634C36.635,332.891 36.925,333.017 37.182,332.917L37.292,332.874L38.589,333.383C38.846,333.483 39.136,333.357 39.237,333.1C39.338,332.843 39.211,332.553 38.954,332.452L38.66,332.336L39.044,332.186C39.301,332.085 39.428,331.795 39.327,331.538C39.226,331.281 38.936,331.154 38.679,331.255L37.292,331.799ZM261.883,331.799L262.082,331.721C262.339,331.62 262.629,331.747 262.73,332.004C262.794,332.165 262.767,332.34 262.674,332.473C262.672,332.527 262.661,332.581 262.64,332.634C262.54,332.891 262.249,333.017 261.992,332.917L261.883,332.874L260.586,333.383C260.329,333.483 260.038,333.357 259.937,333.1C259.837,332.843 259.963,332.553 260.22,332.452L260.514,332.336L260.131,332.186C259.874,332.085 259.747,331.795 259.848,331.538C259.949,331.281 260.239,331.154 260.496,331.255L261.883,331.799ZM100.027,332.276C100.702,332.541 101.324,332.785 101.888,333.007C102.145,333.107 102.436,332.981 102.537,332.724C102.637,332.467 102.511,332.176 102.254,332.076C101.689,331.854 101.067,331.61 100.392,331.345C100.135,331.244 99.845,331.371 99.744,331.628C99.643,331.885 99.77,332.175 100.027,332.276ZM199.148,332.276C198.473,332.541 197.851,332.785 197.286,333.007C197.029,333.107 196.739,332.981 196.638,332.724C196.537,332.467 196.664,332.176 196.921,332.076C197.486,331.854 198.107,331.61 198.782,331.345C199.039,331.244 199.33,331.371 199.431,331.628C199.531,331.885 199.405,332.175 199.148,332.276ZM33.004,331.191C33.62,331.433 34.241,331.676 34.865,331.921C35.122,332.022 35.413,331.895 35.513,331.638C35.614,331.382 35.488,331.091 35.231,330.99C34.606,330.745 33.986,330.502 33.369,330.26C33.112,330.159 32.822,330.286 32.721,330.542C32.62,330.799 32.747,331.09 33.004,331.191ZM72.19,330.26C71.574,330.502 70.953,330.745 70.328,330.99C70.072,331.091 69.945,331.382 70.046,331.638C70.146,331.895 70.437,332.022 70.694,331.921C71.318,331.676 71.939,331.433 72.556,331.191C72.812,331.09 72.939,330.799 72.838,330.542C72.738,330.286 72.447,330.159 72.19,330.26ZM226.984,330.26C227.601,330.502 228.222,330.745 228.846,330.99C229.103,331.091 229.23,331.382 229.129,331.638C229.028,331.895 228.738,332.022 228.481,331.921C227.856,331.676 227.236,331.433 226.619,331.191C226.362,331.09 226.235,330.799 226.336,330.542C226.437,330.286 226.727,330.159 226.984,330.26ZM266.171,331.191C265.554,331.433 264.934,331.676 264.309,331.921C264.052,332.022 263.762,331.895 263.661,331.638C263.56,331.382 263.687,331.091 263.944,330.99C264.568,330.745 265.189,330.502 265.806,330.26C266.063,330.159 266.353,330.286 266.454,330.542C266.555,330.799 266.428,331.09 266.171,331.191ZM96.303,330.815C96.952,331.069 97.574,331.313 98.165,331.545C98.422,331.646 98.712,331.519 98.813,331.262C98.914,331.006 98.787,330.715 98.53,330.614C97.939,330.382 97.318,330.138 96.669,329.884C96.412,329.783 96.121,329.91 96.02,330.166C95.92,330.423 96.046,330.714 96.303,330.815ZM202.871,330.815C202.222,331.069 201.601,331.313 201.01,331.545C200.753,331.646 200.462,331.519 200.361,331.262C200.261,331.006 200.387,330.715 200.644,330.614C201.236,330.382 201.857,330.138 202.506,329.884C202.763,329.783 203.053,329.91 203.154,330.166C203.255,330.423 203.128,330.714 202.871,330.815ZM256.772,329.794C257.395,330.038 258.016,330.282 258.634,330.524C258.891,330.625 259.018,330.916 258.917,331.172C258.816,331.429 258.526,331.556 258.269,331.455C257.65,331.212 257.03,330.969 256.407,330.725C256.15,330.624 256.023,330.333 256.124,330.076C256.225,329.82 256.516,329.693 256.772,329.794ZM42.402,329.794C41.779,330.038 41.159,330.282 40.54,330.524C40.284,330.625 40.157,330.916 40.258,331.172C40.358,331.429 40.649,331.556 40.906,331.455C41.524,331.212 42.145,330.969 42.767,330.725C43.024,330.624 43.151,330.333 43.05,330.076C42.949,329.82 42.659,329.693 42.402,329.794ZM236.383,330.725C235.76,330.969 235.14,331.212 234.521,331.455C234.264,331.556 233.974,331.429 233.873,331.172C233.772,330.916 233.899,330.625 234.156,330.524C234.774,330.282 235.395,330.038 236.018,329.794C236.274,329.693 236.565,329.82 236.666,330.076C236.766,330.333 236.64,330.624 236.383,330.725ZM62.792,330.725C63.414,330.969 64.035,331.212 64.653,331.455C64.91,331.556 65.201,331.429 65.301,331.172C65.402,330.916 65.276,330.625 65.019,330.524C64.4,330.282 63.78,330.038 63.157,329.794C62.9,329.693 62.61,329.82 62.509,330.076C62.408,330.333 62.535,330.624 62.792,330.725ZM269.895,329.729C269.279,329.971 268.658,330.214 268.033,330.46C267.776,330.561 267.486,330.434 267.385,330.177C267.284,329.92 267.411,329.63 267.667,329.529C268.293,329.284 268.914,329.04 269.529,328.798C269.786,328.698 270.077,328.824 270.177,329.081C270.278,329.338 270.151,329.628 269.895,329.729ZM75.914,328.798C75.298,329.04 74.678,329.284 74.052,329.529C73.795,329.63 73.668,329.92 73.769,330.177C73.87,330.434 74.16,330.561 74.417,330.46C75.043,330.214 75.664,329.971 76.279,329.729C76.536,329.628 76.663,329.338 76.562,329.081C76.461,328.824 76.171,328.698 75.914,328.798ZM29.28,329.729C29.895,329.971 30.516,330.214 31.142,330.46C31.399,330.561 31.689,330.434 31.79,330.177C31.891,329.92 31.764,329.63 31.507,329.529C30.882,329.284 30.261,329.04 29.645,328.798C29.388,328.698 29.098,328.824 28.997,329.081C28.896,329.338 29.023,329.628 29.28,329.729ZM223.261,328.798C223.876,329.04 224.497,329.284 225.122,329.529C225.379,329.63 225.506,329.92 225.405,330.177C225.304,330.434 225.014,330.561 224.757,330.46C224.132,330.214 223.511,329.971 222.895,329.729C222.639,329.628 222.512,329.338 222.613,329.081C222.713,328.824 223.004,328.698 223.261,328.798ZM206.595,329.353C205.956,329.604 205.335,329.848 204.733,330.084C204.476,330.185 204.186,330.058 204.085,329.801C203.984,329.544 204.111,329.254 204.368,329.153C204.969,328.917 205.59,328.673 206.23,328.422C206.486,328.322 206.777,328.448 206.878,328.705C206.978,328.962 206.852,329.252 206.595,329.353ZM92.58,329.353C93.219,329.604 93.84,329.848 94.441,330.084C94.698,330.185 94.989,330.058 95.09,329.801C95.19,329.544 95.064,329.254 94.807,329.153C94.205,328.917 93.584,328.673 92.945,328.422C92.688,328.322 92.398,328.448 92.297,328.705C92.196,328.962 92.323,329.252 92.58,329.353ZM46.126,328.332C45.504,328.576 44.883,328.82 44.264,329.063C44.007,329.164 43.88,329.454 43.981,329.711C44.082,329.968 44.372,330.095 44.629,329.994C45.248,329.751 45.869,329.507 46.491,329.263C46.748,329.162 46.875,328.872 46.774,328.615C46.673,328.358 46.383,328.231 46.126,328.332ZM59.068,329.263C59.69,329.507 60.311,329.751 60.93,329.994C61.187,330.095 61.477,329.968 61.578,329.711C61.679,329.454 61.552,329.164 61.295,329.063C60.676,328.82 60.055,328.576 59.433,328.332C59.177,328.231 58.886,328.358 58.785,328.615C58.685,328.872 58.811,329.162 59.068,329.263ZM240.106,329.263C239.485,329.507 238.864,329.751 238.245,329.994C237.988,330.095 237.697,329.968 237.597,329.711C237.496,329.454 237.622,329.164 237.879,329.063C238.498,328.82 239.119,328.576 239.741,328.332C239.998,328.231 240.288,328.358 240.389,328.615C240.49,328.872 240.363,329.162 240.106,329.263ZM253.049,328.332C253.671,328.576 254.291,328.82 254.911,329.063C255.168,329.164 255.294,329.454 255.193,329.711C255.093,329.968 254.802,330.095 254.545,329.994C253.926,329.751 253.305,329.507 252.684,329.263C252.427,329.162 252.3,328.872 252.401,328.615C252.502,328.358 252.792,328.231 253.049,328.332ZM25.557,328.268C26.171,328.509 26.791,328.753 27.418,328.999C27.675,329.099 27.966,328.973 28.066,328.716C28.167,328.459 28.04,328.168 27.784,328.068C27.157,327.822 26.536,327.578 25.922,327.337C25.665,327.236 25.375,327.363 25.274,327.62C25.173,327.877 25.3,328.167 25.557,328.268ZM79.637,327.337C79.023,327.578 78.402,327.822 77.776,328.068C77.519,328.168 77.392,328.459 77.493,328.716C77.594,328.973 77.884,329.099 78.141,328.999C78.768,328.753 79.388,328.509 80.003,328.268C80.259,328.167 80.386,327.877 80.285,327.62C80.185,327.363 79.894,327.236 79.637,327.337ZM219.537,327.337C220.151,327.578 220.772,327.822 221.399,328.068C221.656,328.168 221.783,328.459 221.682,328.716C221.581,328.973 221.291,329.099 221.034,328.999C220.407,328.753 219.786,328.509 219.172,328.268C218.915,328.167 218.788,327.877 218.889,327.62C218.99,327.363 219.28,327.236 219.537,327.337ZM273.618,328.268C273.004,328.509 272.383,328.753 271.756,328.999C271.499,329.099 271.209,328.973 271.108,328.716C271.007,328.459 271.134,328.168 271.391,328.068C272.018,327.822 272.639,327.578 273.253,327.337C273.51,327.236 273.8,327.363 273.901,327.62C274.002,327.877 273.875,328.167 273.618,328.268ZM88.856,327.892C89.49,328.141 90.111,328.384 90.718,328.623C90.975,328.723 91.265,328.597 91.366,328.34C91.467,328.083 91.34,327.792 91.083,327.692C90.476,327.454 89.856,327.21 89.222,326.961C88.965,326.86 88.674,326.987 88.573,327.244C88.473,327.501 88.599,327.791 88.856,327.892ZM210.318,327.892C209.684,328.141 209.063,328.384 208.457,328.623C208.2,328.723 207.909,328.597 207.808,328.34C207.708,328.083 207.834,327.792 208.091,327.692C208.698,327.454 209.319,327.21 209.953,326.961C210.21,326.86 210.5,326.987 210.601,327.244C210.702,327.501 210.575,327.791 210.318,327.892ZM49.849,326.871C49.228,327.115 48.607,327.358 47.987,327.602C47.731,327.702 47.604,327.993 47.705,328.25C47.806,328.507 48.096,328.633 48.353,328.533C48.973,328.289 49.593,328.046 50.215,327.802C50.471,327.701 50.598,327.411 50.497,327.154C50.397,326.897 50.106,326.77 49.849,326.871ZM55.345,327.802C55.966,328.046 56.586,328.289 57.206,328.533C57.463,328.633 57.754,328.507 57.854,328.25C57.955,327.993 57.829,327.702 57.572,327.602C56.952,327.358 56.331,327.115 55.71,326.871C55.453,326.77 55.163,326.897 55.062,327.154C54.961,327.411 55.088,327.701 55.345,327.802ZM249.325,326.871C249.946,327.115 250.567,327.358 251.187,327.602C251.444,327.702 251.571,327.993 251.47,328.25C251.369,328.507 251.079,328.633 250.822,328.533C250.202,328.289 249.581,328.046 248.96,327.802C248.703,327.701 248.576,327.411 248.677,327.154C248.778,326.897 249.068,326.77 249.325,326.871ZM243.83,327.802C243.209,328.046 242.588,328.289 241.968,328.533C241.711,328.633 241.421,328.507 241.32,328.25C241.219,327.993 241.346,327.702 241.603,327.602C242.223,327.358 242.843,327.115 243.465,326.871C243.722,326.77 244.012,326.897 244.113,327.154C244.214,327.411 244.087,327.701 243.83,327.802ZM83.361,325.876C82.748,326.116 82.128,326.36 81.499,326.606C81.242,326.707 81.115,326.998 81.216,327.254C81.317,327.511 81.607,327.638 81.864,327.537C82.493,327.291 83.114,327.047 83.726,326.807C83.983,326.706 84.11,326.415 84.009,326.158C83.908,325.902 83.618,325.775 83.361,325.876ZM21.833,326.807C22.445,327.047 23.066,327.291 23.695,327.537C23.952,327.638 24.242,327.511 24.343,327.254C24.444,326.998 24.317,326.707 24.06,326.606C23.432,326.36 22.811,326.116 22.198,325.876C21.942,325.775 21.651,325.902 21.55,326.158C21.449,326.415 21.576,326.706 21.833,326.807ZM277.341,326.807C276.729,327.047 276.108,327.291 275.48,327.537C275.223,327.638 274.932,327.511 274.832,327.254C274.731,326.998 274.858,326.707 275.114,326.606C275.743,326.36 276.364,326.116 276.976,325.876C277.233,325.775 277.523,325.902 277.624,326.158C277.725,326.415 277.598,326.706 277.341,326.807ZM215.814,325.876C216.426,326.116 217.047,326.36 217.676,326.606C217.932,326.707 218.059,326.998 217.958,327.254C217.857,327.511 217.567,327.638 217.31,327.537C216.682,327.291 216.061,327.047 215.448,326.807C215.192,326.706 215.065,326.415 215.166,326.158C215.267,325.902 215.557,325.775 215.814,325.876ZM279.892,325.805L280.975,326.23C281.232,326.331 281.359,326.622 281.258,326.878C281.157,327.135 280.867,327.262 280.61,327.161C280,326.922 279.379,326.678 278.748,326.431C278.491,326.33 278.365,326.039 278.465,325.782C278.481,325.743 278.501,325.707 278.525,325.674C278.496,325.452 278.62,325.23 278.838,325.145C279.469,324.897 280.09,324.654 280.7,324.414C280.957,324.314 281.247,324.44 281.348,324.697C281.449,324.954 281.322,325.244 281.065,325.345L279.892,325.805ZM214.265,325.674C214.289,325.707 214.309,325.743 214.325,325.782C214.425,326.039 214.299,326.33 214.042,326.431C213.411,326.678 212.79,326.922 212.18,327.161C211.923,327.262 211.633,327.135 211.532,326.878C211.431,326.622 211.558,326.331 211.815,326.23L212.897,325.805L211.725,325.345C211.468,325.244 211.341,324.954 211.442,324.697C211.543,324.44 211.833,324.314 212.09,324.414C212.7,324.654 213.321,324.897 213.952,325.145C214.17,325.23 214.294,325.452 214.265,325.674ZM84.909,325.674C84.885,325.707 84.865,325.743 84.85,325.782C84.749,326.039 84.876,326.33 85.133,326.431C85.764,326.678 86.384,326.922 86.994,327.161C87.251,327.262 87.542,327.135 87.643,326.878C87.743,326.622 87.617,326.331 87.36,326.23L86.277,325.805L87.45,325.345C87.706,325.244 87.833,324.954 87.732,324.697C87.632,324.44 87.341,324.314 87.084,324.414C86.474,324.654 85.853,324.897 85.222,325.145C85.005,325.23 84.881,325.452 84.909,325.674ZM17.911,326.531L18.547,327.167L18.565,327.161C19.175,326.922 19.796,326.678 20.426,326.431C20.683,326.33 20.81,326.039 20.709,325.782C20.694,325.743 20.674,325.707 20.65,325.674C20.678,325.452 20.554,325.23 20.337,325.145C19.706,324.897 19.085,324.654 18.475,324.414C18.218,324.314 17.928,324.44 17.827,324.697C17.726,324.954 17.853,325.244 18.11,325.345L19.282,325.805L18.199,326.23C18.058,326.286 17.957,326.398 17.911,326.531ZM51.513,326.282C51.397,326.418 51.359,326.611 51.428,326.788C51.529,327.045 51.819,327.172 52.076,327.071L52.78,326.795L53.483,327.071C53.74,327.172 54.03,327.045 54.131,326.788C54.2,326.611 54.162,326.418 54.046,326.282C54.228,326.152 54.306,325.91 54.221,325.692C54.12,325.436 53.83,325.309 53.573,325.41L52.78,325.721L51.986,325.41C51.73,325.309 51.439,325.436 51.338,325.692C51.253,325.91 51.331,326.152 51.513,326.282ZM247.662,326.282C247.777,326.418 247.816,326.611 247.746,326.788C247.645,327.045 247.355,327.172 247.098,327.071L246.395,326.795L245.692,327.071C245.435,327.172 245.144,327.045 245.044,326.788C244.974,326.611 245.013,326.418 245.128,326.282C244.946,326.152 244.868,325.91 244.954,325.692C245.055,325.436 245.345,325.309 245.602,325.41L246.395,325.721L247.188,325.41C247.445,325.309 247.735,325.436 247.836,325.692C247.922,325.91 247.844,326.152 247.662,326.282ZM23.785,324.038C23.156,324.285 22.535,324.529 21.923,324.769C21.666,324.87 21.539,325.16 21.64,325.417C21.741,325.674 22.031,325.801 22.288,325.7C22.901,325.46 23.521,325.216 24.15,324.969C24.407,324.868 24.533,324.578 24.433,324.321C24.332,324.064 24.041,323.938 23.785,324.038ZM217.765,324.969C217.137,325.216 216.516,325.46 215.904,325.7C215.647,325.801 215.356,325.674 215.255,325.417C215.155,325.16 215.281,324.87 215.538,324.769C216.151,324.529 216.771,324.285 217.4,324.038C217.657,323.938 217.947,324.064 218.048,324.321C218.149,324.578 218.022,324.868 217.765,324.969ZM81.409,324.969C82.038,325.216 82.659,325.46 83.271,325.7C83.528,325.801 83.818,325.674 83.919,325.417C84.02,325.16 83.893,324.87 83.636,324.769C83.024,324.529 82.403,324.285 81.775,324.038C81.518,323.938 81.227,324.064 81.126,324.321C81.026,324.578 81.152,324.868 81.409,324.969ZM275.39,324.038C276.019,324.285 276.639,324.529 277.252,324.769C277.509,324.87 277.635,325.16 277.535,325.417C277.434,325.674 277.143,325.801 276.886,325.7C276.274,325.46 275.653,325.216 275.025,324.969C274.768,324.868 274.641,324.578 274.742,324.321C274.843,324.064 275.133,323.938 275.39,324.038ZM47.898,324.879C48.517,325.122 49.138,325.366 49.759,325.61C50.016,325.711 50.307,325.584 50.407,325.327C50.508,325.07 50.382,324.78 50.125,324.679C49.503,324.435 48.883,324.192 48.263,323.948C48.006,323.847 47.716,323.974 47.615,324.231C47.514,324.488 47.641,324.778 47.898,324.879ZM251.277,324.879C250.657,325.122 250.036,325.366 249.415,325.61C249.158,325.711 248.868,325.584 248.767,325.327C248.666,325.07 248.793,324.78 249.05,324.679C249.671,324.435 250.292,324.192 250.912,323.948C251.168,323.847 251.459,323.974 251.56,324.231C251.661,324.488 251.534,324.778 251.277,324.879ZM241.878,323.948C242.498,324.192 243.119,324.435 243.74,324.679C243.997,324.78 244.124,325.07 244.023,325.327C243.922,325.584 243.632,325.711 243.375,325.61C242.754,325.366 242.133,325.122 241.513,324.879C241.256,324.778 241.129,324.488 241.23,324.231C241.331,323.974 241.621,323.847 241.878,323.948ZM57.296,323.948C56.676,324.192 56.056,324.435 55.434,324.679C55.178,324.78 55.051,325.07 55.152,325.327C55.253,325.584 55.543,325.711 55.8,325.61C56.421,325.366 57.042,325.122 57.662,324.879C57.918,324.778 58.045,324.488 57.944,324.231C57.843,323.974 57.553,323.847 57.296,323.948ZM208.367,322.953C208.974,323.191 209.594,323.435 210.229,323.684C210.485,323.785 210.612,324.075 210.511,324.332C210.411,324.589 210.12,324.715 209.863,324.615C209.229,324.366 208.608,324.122 208.001,323.884C207.745,323.783 207.618,323.493 207.719,323.236C207.82,322.979 208.11,322.852 208.367,322.953ZM90.808,322.953C90.201,323.191 89.58,323.435 88.946,323.684C88.689,323.785 88.562,324.075 88.663,324.332C88.764,324.589 89.054,324.715 89.311,324.615C89.945,324.366 90.566,324.122 91.173,323.884C91.43,323.783 91.557,323.493 91.456,323.236C91.355,322.979 91.065,322.852 90.808,322.953ZM14.35,322.97L15.831,324.451L16.248,324.615C16.505,324.715 16.795,324.589 16.896,324.332C16.997,324.075 16.87,323.785 16.613,323.684C15.979,323.435 15.358,323.191 14.751,322.953C14.616,322.9 14.471,322.91 14.35,322.97ZM284.702,323.918L282.927,324.615C282.67,324.715 282.379,324.589 282.279,324.332C282.178,324.075 282.304,323.785 282.561,323.684C283.196,323.435 283.816,323.191 284.423,322.953C284.68,322.852 284.97,322.979 285.071,323.236C285.109,323.332 285.115,323.432 285.094,323.526L284.702,323.918ZM77.686,323.508C78.312,323.754 78.933,323.997 79.547,324.239C79.804,324.339 80.095,324.213 80.196,323.956C80.296,323.699 80.17,323.408 79.913,323.308C79.299,323.067 78.678,322.823 78.051,322.577C77.794,322.476 77.504,322.603 77.403,322.86C77.302,323.117 77.429,323.407 77.686,323.508ZM221.489,323.508C220.862,323.754 220.241,323.997 219.627,324.239C219.37,324.339 219.08,324.213 218.979,323.956C218.878,323.699 219.005,323.408 219.262,323.308C219.876,323.067 220.497,322.823 221.124,322.577C221.38,322.476 221.671,322.603 221.772,322.86C221.872,323.117 221.746,323.407 221.489,323.508ZM27.508,322.577C26.881,322.823 26.261,323.067 25.646,323.308C25.389,323.408 25.263,323.699 25.364,323.956C25.464,324.213 25.755,324.339 26.012,324.239C26.626,323.997 27.247,323.754 27.873,323.508C28.13,323.407 28.257,323.117 28.156,322.86C28.055,322.603 27.765,322.476 27.508,322.577ZM271.666,322.577C272.293,322.823 272.914,323.067 273.528,323.308C273.785,323.408 273.912,323.699 273.811,323.956C273.71,324.213 273.42,324.339 273.163,324.239C272.549,323.997 271.928,323.754 271.301,323.508C271.044,323.407 270.918,323.117 271.018,322.86C271.119,322.603 271.41,322.476 271.666,322.577ZM44.174,323.418C44.793,323.661 45.414,323.904 46.036,324.149C46.293,324.249 46.583,324.123 46.684,323.866C46.785,323.609 46.658,323.318 46.401,323.218C45.779,322.974 45.159,322.73 44.54,322.487C44.283,322.386 43.992,322.513 43.891,322.77C43.791,323.027 43.917,323.317 44.174,323.418ZM255,323.418C254.381,323.661 253.761,323.904 253.139,324.149C252.882,324.249 252.591,324.123 252.491,323.866C252.39,323.609 252.516,323.318 252.773,323.218C253.395,322.974 254.016,322.73 254.635,322.487C254.892,322.386 255.182,322.513 255.283,322.77C255.384,323.027 255.257,323.317 255,323.418ZM61.02,322.487C60.4,322.73 59.78,322.974 59.158,323.218C58.901,323.318 58.774,323.609 58.875,323.866C58.976,324.123 59.266,324.249 59.523,324.149C60.145,323.904 60.766,323.661 61.385,323.418C61.642,323.317 61.768,323.027 61.668,322.77C61.567,322.513 61.276,322.386 61.02,322.487ZM238.155,322.487C238.774,322.73 239.395,322.974 240.017,323.218C240.274,323.318 240.4,323.609 240.299,323.866C240.199,324.123 239.908,324.249 239.651,324.149C239.029,323.904 238.409,323.661 237.79,323.418C237.533,323.317 237.406,323.027 237.507,322.77C237.608,322.513 237.898,322.386 238.155,322.487ZM94.531,321.492C93.93,321.728 93.309,321.971 92.669,322.222C92.413,322.323 92.286,322.614 92.387,322.87C92.488,323.127 92.778,323.254 93.035,323.153C93.674,322.902 94.295,322.659 94.897,322.423C95.153,322.322 95.28,322.031 95.179,321.774C95.079,321.518 94.788,321.391 94.531,321.492ZM204.643,321.492C205.245,321.728 205.866,321.971 206.505,322.222C206.762,322.323 206.889,322.614 206.788,322.87C206.687,323.127 206.397,323.254 206.14,323.153C205.5,322.902 204.879,322.659 204.278,322.423C204.021,322.322 203.894,322.031 203.995,321.774C204.096,321.518 204.386,321.391 204.643,321.492ZM73.962,322.047C74.588,322.292 75.208,322.536 75.824,322.777C76.081,322.878 76.371,322.751 76.472,322.494C76.573,322.238 76.446,321.947 76.189,321.846C75.574,321.605 74.953,321.361 74.327,321.116C74.071,321.015 73.78,321.142 73.679,321.398C73.579,321.655 73.705,321.946 73.962,322.047ZM267.943,321.116C268.568,321.361 269.189,321.605 269.805,321.846C270.062,321.947 270.188,322.238 270.087,322.494C269.987,322.751 269.696,322.878 269.439,322.777C268.824,322.536 268.203,322.292 267.578,322.047C267.321,321.946 267.194,321.655 267.295,321.398C267.396,321.142 267.686,321.015 267.943,321.116ZM225.212,322.047C224.587,322.292 223.966,322.536 223.351,322.777C223.094,322.878 222.803,322.751 222.702,322.494C222.602,322.238 222.728,321.947 222.985,321.846C223.601,321.605 224.222,321.361 224.847,321.116C225.104,321.015 225.394,321.142 225.495,321.398C225.596,321.655 225.469,321.946 225.212,322.047ZM31.232,321.116C30.606,321.361 29.985,321.605 29.37,321.846C29.113,321.947 28.986,322.238 29.087,322.494C29.188,322.751 29.478,322.878 29.735,322.777C30.351,322.536 30.971,322.292 31.597,322.047C31.854,321.946 31.981,321.655 31.88,321.398C31.779,321.142 31.488,321.015 31.232,321.116ZM64.743,321.026C64.125,321.268 63.504,321.512 62.881,321.756C62.624,321.857 62.498,322.148 62.599,322.404C62.699,322.661 62.99,322.788 63.247,322.687C63.869,322.443 64.49,322.199 65.108,321.957C65.365,321.856 65.492,321.565 65.391,321.308C65.29,321.052 65,320.925 64.743,321.026ZM40.451,321.957C41.069,322.199 41.69,322.443 42.312,322.687C42.569,322.788 42.86,322.661 42.961,322.404C43.061,322.148 42.935,321.857 42.678,321.756C42.055,321.512 41.434,321.268 40.816,321.026C40.559,320.925 40.269,321.052 40.168,321.308C40.067,321.565 40.194,321.856 40.451,321.957ZM234.431,321.026C235.05,321.268 235.671,321.512 236.293,321.756C236.55,321.857 236.677,322.148 236.576,322.404C236.475,322.661 236.185,322.788 235.928,322.687C235.305,322.443 234.684,322.199 234.066,321.957C233.809,321.856 233.683,321.565 233.783,321.308C233.884,321.052 234.175,320.925 234.431,321.026ZM258.724,321.957C258.105,322.199 257.485,322.443 256.862,322.687C256.605,322.788 256.315,322.661 256.214,322.404C256.113,322.148 256.24,321.857 256.497,321.756C257.119,321.512 257.74,321.268 258.359,321.026C258.615,320.925 258.906,321.052 259.007,321.308C259.107,321.565 258.981,321.856 258.724,321.957ZM286.47,322.15L285.97,322.65C285.983,322.465 286.1,322.295 286.285,322.222L286.47,322.15ZM96.973,320.533L96.393,320.761C96.136,320.862 96.009,321.152 96.11,321.409C96.211,321.666 96.501,321.793 96.758,321.692L97.688,321.327L96.973,320.533ZM202.509,320.654L202.782,320.761C203.038,320.862 203.165,321.152 203.064,321.409C202.964,321.666 202.673,321.793 202.416,321.692L201.794,321.448L202.509,320.654ZM70.186,319.679C70.085,319.733 70.001,319.822 69.956,319.937C69.855,320.194 69.982,320.484 70.239,320.585C70.863,320.83 71.484,321.074 72.1,321.316C72.357,321.417 72.648,321.29 72.749,321.033C72.849,320.776 72.723,320.486 72.466,320.385L70.789,319.727L72.556,319.034C72.812,318.933 72.939,318.643 72.838,318.386C72.738,318.129 72.447,318.002 72.19,318.103C71.574,318.345 70.953,318.589 70.328,318.834C70.072,318.934 69.945,319.225 70.046,319.482C70.077,319.561 70.126,319.627 70.186,319.679ZM34.77,319.727L33.093,320.385C32.836,320.486 32.71,320.776 32.811,321.033C32.911,321.29 33.202,321.417 33.459,321.316C34.075,321.074 34.696,320.83 35.32,320.585C35.577,320.484 35.704,320.194 35.603,319.937C35.558,319.822 35.475,319.733 35.373,319.679C35.434,319.627 35.482,319.561 35.513,319.482C35.614,319.225 35.488,318.934 35.231,318.834C34.606,318.589 33.986,318.345 33.369,318.103C33.112,318.002 32.822,318.129 32.721,318.386C32.62,318.643 32.747,318.933 33.004,319.034L34.77,319.727ZM228.989,319.679C229.09,319.733 229.173,319.822 229.219,319.937C229.319,320.194 229.193,320.484 228.936,320.585C228.311,320.83 227.691,321.074 227.074,321.316C226.817,321.417 226.527,321.29 226.426,321.033C226.325,320.776 226.452,320.486 226.709,320.385L228.385,319.727L226.619,319.034C226.362,318.933 226.235,318.643 226.336,318.386C226.437,318.129 226.727,318.002 226.984,318.103C227.601,318.345 228.222,318.589 228.846,318.834C229.103,318.934 229.23,319.225 229.129,319.482C229.098,319.561 229.049,319.627 228.989,319.679ZM264.405,319.727L266.081,320.385C266.338,320.486 266.465,320.776 266.364,321.033C266.263,321.29 265.973,321.417 265.716,321.316C265.099,321.074 264.479,320.83 263.854,320.585C263.597,320.484 263.471,320.194 263.571,319.937C263.617,319.822 263.7,319.733 263.801,319.679C263.741,319.627 263.692,319.561 263.661,319.482C263.56,319.225 263.687,318.934 263.944,318.834C264.568,318.589 265.189,318.345 265.806,318.103C266.063,318.002 266.353,318.129 266.454,318.386C266.555,318.643 266.428,318.933 266.171,319.034L264.405,319.727ZM231.122,319.727L232.57,320.295C232.827,320.396 232.953,320.686 232.853,320.943C232.752,321.2 232.461,321.327 232.204,321.226C231.581,320.981 230.96,320.738 230.343,320.495C230.086,320.394 229.959,320.104 230.06,319.847C230.09,319.771 230.136,319.707 230.193,319.657C230.176,319.63 230.161,319.602 230.15,319.572C230.049,319.315 230.175,319.024 230.432,318.924C231.05,318.681 231.671,318.438 232.294,318.193C232.551,318.092 232.841,318.219 232.942,318.476C233.043,318.733 232.916,319.023 232.659,319.124L231.122,319.727ZM68.052,319.727L66.605,320.295C66.348,320.396 66.221,320.686 66.322,320.943C66.423,321.2 66.713,321.327 66.97,321.226C67.594,320.981 68.214,320.738 68.832,320.495C69.089,320.394 69.216,320.104 69.115,319.847C69.085,319.771 69.039,319.707 68.982,319.657C68.999,319.63 69.013,319.602 69.025,319.572C69.126,319.315 68.999,319.024 68.742,318.924C68.125,318.681 67.504,318.438 66.88,318.193C66.624,318.092 66.333,318.219 66.232,318.476C66.132,318.733 66.258,319.023 66.515,319.124L68.052,319.727ZM262.597,319.657C262.654,319.707 262.7,319.771 262.73,319.847C262.831,320.104 262.704,320.394 262.447,320.495C261.83,320.738 261.209,320.981 260.586,321.226C260.329,321.327 260.038,321.2 259.937,320.943C259.837,320.686 259.963,320.396 260.22,320.295L261.667,319.727L260.131,319.124C259.874,319.023 259.747,318.733 259.848,318.476C259.949,318.219 260.239,318.092 260.496,318.193C261.119,318.438 261.74,318.681 262.358,318.924C262.615,319.024 262.741,319.315 262.64,319.572C262.629,319.602 262.614,319.63 262.597,319.657ZM36.577,319.657C36.52,319.707 36.474,319.771 36.444,319.847C36.344,320.104 36.47,320.394 36.727,320.495C37.345,320.738 37.965,320.981 38.589,321.226C38.846,321.327 39.136,321.2 39.237,320.943C39.338,320.686 39.211,320.396 38.954,320.295L37.507,319.727L39.044,319.124C39.301,319.023 39.428,318.733 39.327,318.476C39.226,318.219 38.936,318.092 38.679,318.193C38.055,318.438 37.434,318.681 36.817,318.924C36.56,319.024 36.433,319.315 36.534,319.572C36.546,319.602 36.56,319.63 36.577,319.657ZM290.043,318.577L289.919,318.528C289.662,318.428 289.535,318.137 289.636,317.88C289.737,317.623 290.027,317.497 290.284,317.598L290.814,317.806L290.043,318.577ZM42.402,316.732C41.779,316.976 41.159,317.22 40.54,317.462C40.284,317.563 40.157,317.854 40.258,318.11C40.358,318.367 40.649,318.494 40.906,318.393C41.524,318.15 42.145,317.907 42.767,317.663C43.024,317.562 43.151,317.271 43.05,317.014C42.949,316.758 42.659,316.631 42.402,316.732ZM256.772,316.732C257.395,316.976 258.016,317.22 258.634,317.462C258.891,317.563 259.018,317.854 258.917,318.11C258.816,318.367 258.526,318.494 258.269,318.393C257.65,318.15 257.03,317.907 256.407,317.663C256.15,317.562 256.023,317.271 256.124,317.014C256.225,316.758 256.516,316.631 256.772,316.732ZM236.383,317.663C235.76,317.907 235.14,318.15 234.521,318.393C234.264,318.494 233.974,318.367 233.873,318.11C233.772,317.854 233.899,317.563 234.156,317.462C234.774,317.22 235.395,316.976 236.018,316.732C236.274,316.631 236.565,316.758 236.666,317.014C236.766,317.271 236.64,317.562 236.383,317.663ZM62.792,317.663C63.414,317.907 64.035,318.15 64.653,318.393C64.91,318.494 65.201,318.367 65.301,318.11C65.402,317.854 65.276,317.563 65.019,317.462C64.4,317.22 63.78,316.976 63.157,316.732C62.9,316.631 62.61,316.758 62.509,317.014C62.408,317.271 62.535,317.562 62.792,317.663ZM75.914,316.642C75.298,316.883 74.678,317.127 74.052,317.372C73.795,317.473 73.668,317.763 73.769,318.02C73.87,318.277 74.16,318.404 74.417,318.303C75.043,318.058 75.664,317.814 76.279,317.572C76.536,317.472 76.663,317.181 76.562,316.924C76.461,316.667 76.171,316.541 75.914,316.642ZM29.28,317.572C29.895,317.814 30.516,318.058 31.142,318.303C31.399,318.404 31.689,318.277 31.79,318.02C31.891,317.763 31.764,317.473 31.507,317.372C30.882,317.127 30.261,316.883 29.645,316.642C29.388,316.541 29.098,316.667 28.997,316.924C28.896,317.181 29.023,317.472 29.28,317.572ZM223.261,316.642C223.876,316.883 224.497,317.127 225.122,317.372C225.379,317.473 225.506,317.763 225.405,318.02C225.304,318.277 225.014,318.404 224.757,318.303C224.132,318.058 223.511,317.814 222.895,317.572C222.639,317.472 222.512,317.181 222.613,316.924C222.713,316.667 223.004,316.541 223.261,316.642ZM269.895,317.572C269.279,317.814 268.658,318.058 268.033,318.303C267.776,318.404 267.486,318.277 267.385,318.02C267.284,317.763 267.411,317.473 267.667,317.372C268.293,317.127 268.914,316.883 269.529,316.642C269.786,316.541 270.077,316.667 270.177,316.924C270.278,317.181 270.151,317.472 269.895,317.572ZM8.957,317.577L9.559,318.179C9.583,318.083 9.578,317.979 9.539,317.88C9.446,317.645 9.196,317.519 8.957,317.577ZM12.614,316.136C11.975,316.387 11.354,316.631 10.752,316.867C10.495,316.968 10.369,317.258 10.47,317.515C10.57,317.772 10.861,317.899 11.118,317.798C11.719,317.562 12.34,317.318 12.979,317.067C13.236,316.966 13.363,316.676 13.262,316.419C13.161,316.162 12.871,316.035 12.614,316.136ZM286.56,316.136C287.2,316.387 287.821,316.631 288.422,316.867C288.679,316.968 288.806,317.258 288.705,317.515C288.604,317.772 288.314,317.899 288.057,317.798C287.455,317.562 286.834,317.318 286.195,317.067C285.938,316.966 285.812,316.676 285.912,316.419C286.013,316.162 286.304,316.035 286.56,316.136ZM94.533,317.824L93.05,316.177L92.945,316.136C92.688,316.035 92.398,316.162 92.297,316.419C92.196,316.676 92.323,316.966 92.58,317.067C93.219,317.318 93.84,317.562 94.441,317.798C94.471,317.81 94.502,317.818 94.533,317.824ZM206.582,316.132C206.713,316.179 206.823,316.28 206.878,316.419C206.978,316.676 206.852,316.966 206.595,317.067L205.272,317.586L206.582,316.132ZM240.106,316.201C239.485,316.445 238.864,316.689 238.245,316.932C237.988,317.033 237.697,316.906 237.597,316.649C237.496,316.392 237.622,316.102 237.879,316.001C238.498,315.758 239.119,315.514 239.741,315.27C239.998,315.169 240.288,315.296 240.389,315.553C240.49,315.81 240.363,316.1 240.106,316.201ZM59.068,316.201C59.69,316.445 60.311,316.689 60.93,316.932C61.187,317.033 61.477,316.906 61.578,316.649C61.679,316.392 61.552,316.102 61.295,316.001C60.676,315.758 60.055,315.514 59.433,315.27C59.177,315.169 58.886,315.296 58.785,315.553C58.685,315.81 58.811,316.1 59.068,316.201ZM46.126,315.27C45.504,315.514 44.883,315.758 44.264,316.001C44.007,316.102 43.88,316.392 43.981,316.649C44.082,316.906 44.372,317.033 44.629,316.932C45.248,316.689 45.869,316.445 46.491,316.201C46.748,316.1 46.875,315.81 46.774,315.553C46.673,315.296 46.383,315.169 46.126,315.27ZM253.049,315.27C253.671,315.514 254.291,315.758 254.911,316.001C255.168,316.102 255.294,316.392 255.193,316.649C255.093,316.906 254.802,317.033 254.545,316.932C253.926,316.689 253.305,316.445 252.684,316.201C252.427,316.1 252.3,315.81 252.401,315.553C252.502,315.296 252.792,315.169 253.049,315.27ZM273.618,316.111C273.004,316.352 272.383,316.596 271.756,316.842C271.499,316.943 271.209,316.816 271.108,316.559C271.007,316.302 271.134,316.012 271.391,315.911C272.018,315.665 272.639,315.421 273.253,315.18C273.51,315.079 273.8,315.206 273.901,315.463C274.002,315.72 273.875,316.01 273.618,316.111ZM79.637,315.18C79.023,315.421 78.402,315.665 77.776,315.911C77.519,316.012 77.392,316.302 77.493,316.559C77.594,316.816 77.884,316.943 78.141,316.842C78.768,316.596 79.388,316.352 80.003,316.111C80.259,316.01 80.386,315.72 80.285,315.463C80.185,315.206 79.894,315.079 79.637,315.18ZM25.557,316.111C26.171,316.352 26.791,316.596 27.418,316.842C27.675,316.943 27.966,316.816 28.066,316.559C28.167,316.302 28.04,316.012 27.784,315.911C27.157,315.665 26.536,315.421 25.922,315.18C25.665,315.079 25.375,315.206 25.274,315.463C25.173,315.72 25.3,316.01 25.557,316.111ZM219.537,315.18C220.151,315.421 220.772,315.665 221.399,315.911C221.656,316.012 221.783,316.302 221.682,316.559C221.581,316.816 221.291,316.943 221.034,316.842C220.407,316.596 219.786,316.352 219.172,316.111C218.915,316.01 218.788,315.72 218.889,315.463C218.99,315.206 219.28,315.079 219.537,315.18ZM16.338,314.675C15.704,314.924 15.083,315.167 14.476,315.406C14.219,315.506 14.092,315.797 14.193,316.054C14.294,316.311 14.584,316.437 14.841,316.336C15.448,316.098 16.069,315.855 16.703,315.606C16.96,315.505 17.086,315.215 16.986,314.958C16.885,314.701 16.594,314.574 16.338,314.675ZM88.856,315.606C89.49,315.855 90.111,316.098 90.718,316.336C90.975,316.437 91.265,316.311 91.366,316.054C91.467,315.797 91.34,315.506 91.083,315.406C90.476,315.167 89.856,314.924 89.222,314.675C88.965,314.574 88.674,314.701 88.573,314.958C88.473,315.215 88.599,315.505 88.856,315.606ZM282.837,314.675C283.471,314.924 284.092,315.167 284.699,315.406C284.956,315.506 285.082,315.797 284.981,316.054C284.881,316.311 284.59,316.437 284.333,316.336C283.727,316.098 283.106,315.855 282.472,315.606C282.215,315.505 282.088,315.215 282.189,314.958C282.29,314.701 282.58,314.574 282.837,314.675ZM210.318,315.606C209.684,315.855 209.063,316.098 208.457,316.336C208.2,316.437 207.909,316.311 207.808,316.054C207.708,315.797 207.834,315.506 208.091,315.406C208.698,315.167 209.319,314.924 209.953,314.675C210.21,314.574 210.5,314.701 210.601,314.958C210.702,315.215 210.575,315.505 210.318,315.606ZM55.345,314.74C55.966,314.984 56.586,315.227 57.206,315.47C57.463,315.571 57.754,315.445 57.854,315.188C57.955,314.931 57.829,314.64 57.572,314.54C56.952,314.296 56.331,314.053 55.71,313.809C55.453,313.708 55.163,313.835 55.062,314.092C54.961,314.349 55.088,314.639 55.345,314.74ZM49.849,313.809C49.228,314.053 48.607,314.296 47.987,314.54C47.731,314.64 47.604,314.931 47.705,315.188C47.806,315.445 48.096,315.571 48.353,315.47C48.973,315.227 49.593,314.984 50.215,314.74C50.471,314.639 50.598,314.349 50.497,314.092C50.397,313.835 50.106,313.708 49.849,313.809ZM243.83,314.74C243.209,314.984 242.588,315.227 241.968,315.47C241.711,315.571 241.421,315.445 241.32,315.188C241.219,314.931 241.346,314.64 241.603,314.54C242.223,314.296 242.843,314.053 243.465,313.809C243.722,313.708 244.012,313.835 244.113,314.092C244.214,314.349 244.087,314.639 243.83,314.74ZM249.325,313.809C249.946,314.053 250.567,314.296 251.187,314.54C251.444,314.64 251.571,314.931 251.47,315.188C251.369,315.445 251.079,315.571 250.822,315.47C250.202,315.227 249.581,314.984 248.96,314.74C248.703,314.639 248.576,314.349 248.677,314.092C248.778,313.835 249.068,313.708 249.325,313.809ZM83.361,313.719C82.748,313.959 82.128,314.203 81.499,314.45C81.242,314.55 81.115,314.841 81.216,315.098C81.317,315.355 81.607,315.481 81.864,315.38C82.493,315.134 83.114,314.89 83.726,314.65C83.983,314.549 84.11,314.259 84.009,314.002C83.908,313.745 83.618,313.618 83.361,313.719ZM277.341,314.65C276.729,314.89 276.108,315.134 275.48,315.38C275.223,315.481 274.932,315.355 274.832,315.098C274.731,314.841 274.858,314.55 275.114,314.45C275.743,314.203 276.364,313.959 276.976,313.719C277.233,313.618 277.523,313.745 277.624,314.002C277.725,314.259 277.598,314.549 277.341,314.65ZM215.814,313.719C216.426,313.959 217.047,314.203 217.676,314.45C217.932,314.55 218.059,314.841 217.958,315.098C217.857,315.355 217.567,315.481 217.31,315.38C216.682,315.134 216.061,314.89 215.448,314.65C215.192,314.549 215.065,314.259 215.166,314.002C215.267,313.745 215.557,313.618 215.814,313.719ZM21.833,314.65C22.445,314.89 23.066,315.134 23.695,315.38C23.952,315.481 24.242,315.355 24.343,315.098C24.444,314.841 24.317,314.55 24.06,314.45C23.432,314.203 22.811,313.959 22.198,313.719C21.942,313.618 21.651,313.745 21.55,314.002C21.449,314.259 21.576,314.549 21.833,314.65ZM19.117,313.584L18.199,313.944C17.942,314.045 17.816,314.335 17.917,314.592C18.017,314.849 18.308,314.976 18.565,314.875C19.175,314.636 19.796,314.392 20.426,314.144C20.683,314.044 20.81,313.753 20.709,313.496C20.694,313.457 20.673,313.42 20.649,313.387C20.626,313.213 20.511,313.057 20.337,312.988C19.706,312.741 19.085,312.497 18.475,312.258C18.218,312.157 17.928,312.283 17.827,312.54C17.726,312.797 17.853,313.088 18.11,313.188L19.117,313.584ZM84.91,313.387C84.886,313.42 84.866,313.457 84.85,313.496C84.749,313.753 84.876,314.044 85.133,314.144C85.764,314.392 86.384,314.636 86.994,314.875C87.251,314.976 87.542,314.849 87.643,314.592C87.743,314.335 87.617,314.045 87.36,313.944L86.442,313.584L87.45,313.188C87.706,313.088 87.833,312.797 87.732,312.54C87.632,312.283 87.341,312.157 87.084,312.258C86.474,312.497 85.853,312.741 85.222,312.988C85.048,313.057 84.933,313.213 84.91,313.387ZM280.057,313.584L280.975,313.944C281.232,314.045 281.359,314.335 281.258,314.592C281.157,314.849 280.867,314.976 280.61,314.875C280,314.636 279.379,314.392 278.748,314.144C278.491,314.044 278.365,313.753 278.465,313.496C278.481,313.457 278.501,313.42 278.525,313.387C278.549,313.213 278.663,313.057 278.838,312.988C279.469,312.741 280.09,312.497 280.7,312.258C280.957,312.157 281.247,312.283 281.348,312.54C281.449,312.797 281.322,313.088 281.065,313.188L280.057,313.584ZM214.265,313.387C214.289,313.42 214.309,313.457 214.325,313.496C214.425,313.753 214.299,314.044 214.042,314.144C213.411,314.392 212.79,314.636 212.18,314.875C211.923,314.976 211.633,314.849 211.532,314.592C211.431,314.335 211.558,314.045 211.815,313.944L212.733,313.584L211.725,313.188C211.468,313.088 211.341,312.797 211.442,312.54C211.543,312.283 211.833,312.157 212.09,312.258C212.7,312.497 213.321,312.741 213.952,312.988C214.127,313.057 214.241,313.213 214.265,313.387ZM52.78,312.659L51.986,312.348C51.73,312.247 51.439,312.373 51.338,312.63C51.253,312.848 51.331,313.09 51.513,313.22C51.397,313.356 51.359,313.549 51.428,313.726C51.529,313.983 51.819,314.11 52.076,314.009L52.78,313.733L53.483,314.009C53.74,314.11 54.03,313.983 54.131,313.726C54.2,313.549 54.162,313.356 54.046,313.22C54.228,313.09 54.306,312.848 54.221,312.63C54.12,312.373 53.83,312.247 53.573,312.348L52.78,312.659ZM246.395,312.659L247.188,312.348C247.445,312.247 247.735,312.373 247.836,312.63C247.922,312.848 247.844,313.09 247.662,313.22C247.777,313.356 247.816,313.549 247.746,313.726C247.645,313.983 247.355,314.11 247.098,314.009L246.395,313.733L245.692,314.009C245.435,314.11 245.144,313.983 245.044,313.726C244.974,313.549 245.013,313.356 245.128,313.22C244.946,313.09 244.868,312.848 244.954,312.63C245.055,312.373 245.345,312.247 245.602,312.348L246.395,312.659ZM217.765,312.683C217.137,312.93 216.516,313.173 215.904,313.414C215.647,313.515 215.356,313.388 215.255,313.131C215.155,312.874 215.281,312.584 215.538,312.483C216.151,312.243 216.771,311.999 217.4,311.752C217.657,311.651 217.947,311.778 218.048,312.035C218.149,312.292 218.022,312.582 217.765,312.683ZM81.409,312.683C82.038,312.93 82.659,313.173 83.271,313.414C83.528,313.515 83.818,313.388 83.919,313.131C84.02,312.874 83.893,312.584 83.636,312.483C83.024,312.243 82.403,311.999 81.775,311.752C81.518,311.651 81.227,311.778 81.126,312.035C81.026,312.292 81.152,312.582 81.409,312.683ZM23.785,311.752C23.156,311.999 22.535,312.243 21.923,312.483C21.666,312.584 21.539,312.874 21.64,313.131C21.741,313.388 22.031,313.515 22.288,313.414C22.901,313.173 23.521,312.93 24.15,312.683C24.407,312.582 24.533,312.292 24.433,312.035C24.332,311.778 24.041,311.651 23.785,311.752ZM275.39,311.752C276.019,311.999 276.639,312.243 277.252,312.483C277.509,312.584 277.635,312.874 277.535,313.131C277.434,313.388 277.143,313.515 276.886,313.414C276.274,313.173 275.653,312.93 275.025,312.683C274.768,312.582 274.641,312.292 274.742,312.035C274.843,311.778 275.133,311.651 275.39,311.752ZM241.878,310.886C242.498,311.13 243.119,311.373 243.74,311.617C243.997,311.718 244.124,312.008 244.023,312.265C243.922,312.522 243.632,312.649 243.375,312.548C242.754,312.304 242.133,312.06 241.513,311.817C241.256,311.716 241.129,311.426 241.23,311.169C241.331,310.912 241.621,310.785 241.878,310.886ZM251.277,311.817C250.657,312.06 250.036,312.304 249.415,312.548C249.158,312.649 248.868,312.522 248.767,312.265C248.666,312.008 248.793,311.718 249.05,311.617C249.671,311.373 250.292,311.13 250.912,310.886C251.168,310.785 251.459,310.912 251.56,311.169C251.661,311.426 251.534,311.716 251.277,311.817ZM47.898,311.817C48.517,312.06 49.138,312.304 49.759,312.548C50.016,312.649 50.307,312.522 50.407,312.265C50.508,312.008 50.382,311.718 50.125,311.617C49.503,311.373 48.883,311.13 48.263,310.886C48.006,310.785 47.716,310.912 47.615,311.169C47.514,311.426 47.641,311.716 47.898,311.817ZM57.296,310.886C56.676,311.13 56.056,311.373 55.434,311.617C55.178,311.718 55.051,312.008 55.152,312.265C55.253,312.522 55.543,312.649 55.8,312.548C56.421,312.304 57.042,312.06 57.662,311.817C57.918,311.716 58.045,311.426 57.944,311.169C57.843,310.912 57.553,310.785 57.296,310.886ZM14.386,311.727C14.993,311.965 15.614,312.209 16.248,312.458C16.505,312.559 16.795,312.432 16.896,312.175C16.997,311.918 16.87,311.628 16.613,311.527C15.979,311.278 15.358,311.034 14.751,310.796C14.494,310.695 14.204,310.822 14.103,311.079C14.002,311.336 14.129,311.626 14.386,311.727ZM284.788,311.727C284.182,311.965 283.561,312.209 282.927,312.458C282.67,312.559 282.379,312.432 282.279,312.175C282.178,311.918 282.304,311.628 282.561,311.527C283.196,311.278 283.816,311.034 284.423,310.796C284.68,310.695 284.97,310.822 285.071,311.079C285.172,311.336 285.045,311.626 284.788,311.727ZM88.887,311.555C88.67,311.674 88.57,311.939 88.663,312.175C88.764,312.432 89.054,312.559 89.311,312.458L89.598,312.345L88.887,311.555ZM210.499,311.783C210.555,311.902 210.563,312.043 210.511,312.175C210.413,312.425 210.136,312.552 209.885,312.465L210.499,311.783ZM27.508,310.291C26.881,310.537 26.261,310.781 25.646,311.022C25.389,311.122 25.263,311.413 25.364,311.67C25.464,311.927 25.755,312.053 26.012,311.952C26.626,311.711 27.247,311.468 27.873,311.222C28.13,311.121 28.257,310.831 28.156,310.574C28.055,310.317 27.765,310.19 27.508,310.291ZM271.666,310.291C272.293,310.537 272.914,310.781 273.528,311.022C273.785,311.122 273.912,311.413 273.811,311.67C273.71,311.927 273.42,312.053 273.163,311.952C272.549,311.711 271.928,311.468 271.301,311.222C271.044,311.121 270.918,310.831 271.018,310.574C271.119,310.317 271.41,310.19 271.666,310.291ZM77.686,311.222C78.312,311.468 78.933,311.711 79.547,311.952C79.804,312.053 80.095,311.927 80.196,311.67C80.296,311.413 80.17,311.122 79.913,311.022C79.299,310.781 78.678,310.537 78.051,310.291C77.794,310.19 77.504,310.317 77.403,310.574C77.302,310.831 77.429,311.121 77.686,311.222ZM221.489,311.222C220.862,311.468 220.241,311.711 219.627,311.952C219.37,312.053 219.08,311.927 218.979,311.67C218.878,311.413 219.005,311.122 219.262,311.022C219.876,310.781 220.497,310.537 221.124,310.291C221.38,310.19 221.671,310.317 221.772,310.574C221.872,310.831 221.746,311.121 221.489,311.222ZM255,310.356C254.381,310.599 253.761,310.842 253.139,311.086C252.882,311.187 252.591,311.061 252.491,310.804C252.39,310.547 252.516,310.256 252.773,310.156C253.395,309.912 254.016,309.668 254.635,309.425C254.892,309.324 255.182,309.451 255.283,309.708C255.384,309.965 255.257,310.255 255,310.356ZM61.02,309.425C60.4,309.668 59.78,309.912 59.158,310.156C58.901,310.256 58.774,310.547 58.875,310.804C58.976,311.061 59.266,311.187 59.523,311.086C60.145,310.842 60.766,310.599 61.385,310.356C61.642,310.255 61.768,309.965 61.668,309.708C61.567,309.451 61.276,309.324 61.02,309.425ZM44.174,310.356C44.793,310.599 45.414,310.842 46.036,311.086C46.293,311.187 46.583,311.061 46.684,310.804C46.785,310.547 46.658,310.256 46.401,310.156C45.779,309.912 45.159,309.668 44.54,309.425C44.283,309.324 43.992,309.451 43.891,309.708C43.791,309.965 43.917,310.255 44.174,310.356ZM238.155,309.425C238.774,309.668 239.395,309.912 240.017,310.156C240.274,310.256 240.4,310.547 240.299,310.804C240.199,311.061 239.908,311.187 239.651,311.086C239.029,310.842 238.409,310.599 237.79,310.356C237.533,310.255 237.406,309.965 237.507,309.708C237.608,309.451 237.898,309.324 238.155,309.425ZM288.512,310.266C287.911,310.502 287.29,310.745 286.65,310.996C286.393,311.097 286.103,310.971 286.002,310.714C285.901,310.457 286.028,310.166 286.285,310.066C286.924,309.815 287.545,309.571 288.147,309.335C288.404,309.234 288.694,309.361 288.795,309.618C288.896,309.875 288.769,310.165 288.512,310.266ZM10.663,310.266C11.264,310.502 11.885,310.745 12.524,310.996C12.781,311.097 13.072,310.971 13.172,310.714C13.273,310.457 13.147,310.166 12.89,310.066C12.25,309.815 11.629,309.571 11.028,309.335C10.771,309.234 10.481,309.361 10.38,309.618C10.279,309.875 10.406,310.165 10.663,310.266ZM298.03,310.59L297.366,310.329C297.109,310.228 296.982,309.938 297.083,309.681C297.184,309.424 297.474,309.297 297.731,309.398L298.802,309.818L298.03,310.59ZM31.232,308.83C30.606,309.075 29.985,309.319 29.37,309.56C29.113,309.661 28.986,309.951 29.087,310.208C29.188,310.465 29.478,310.592 29.735,310.491C30.351,310.25 30.971,310.006 31.597,309.76C31.854,309.66 31.981,309.369 31.88,309.112C31.779,308.855 31.488,308.729 31.232,308.83ZM225.212,309.76C224.587,310.006 223.966,310.25 223.351,310.491C223.094,310.592 222.803,310.465 222.702,310.208C222.602,309.951 222.728,309.661 222.985,309.56C223.601,309.319 224.222,309.075 224.847,308.83C225.104,308.729 225.394,308.855 225.495,309.112C225.596,309.369 225.469,309.66 225.212,309.76ZM73.962,309.76C74.588,310.006 75.208,310.25 75.824,310.491C76.081,310.592 76.371,310.465 76.472,310.208C76.573,309.951 76.446,309.661 76.189,309.56C75.574,309.319 74.953,309.075 74.327,308.83C74.071,308.729 73.78,308.855 73.679,309.112C73.579,309.369 73.705,309.66 73.962,309.76ZM267.943,308.83C268.568,309.075 269.189,309.319 269.805,309.56C270.062,309.661 270.188,309.951 270.087,310.208C269.987,310.465 269.696,310.592 269.439,310.491C268.824,310.25 268.203,310.006 267.578,309.76C267.321,309.66 267.194,309.369 267.295,309.112C267.396,308.855 267.686,308.729 267.943,308.83ZM0.966,309.586L1.737,310.357L1.809,310.329C2.066,310.228 2.192,309.938 2.092,309.681C1.991,309.424 1.7,309.297 1.444,309.398L0.966,309.586ZM234.431,307.964C235.05,308.206 235.671,308.45 236.293,308.694C236.55,308.795 236.677,309.086 236.576,309.342C236.475,309.599 236.185,309.726 235.928,309.625C235.305,309.381 234.684,309.137 234.066,308.895C233.809,308.794 233.683,308.503 233.783,308.246C233.884,307.99 234.175,307.863 234.431,307.964ZM258.724,308.895C258.105,309.137 257.485,309.381 256.862,309.625C256.605,309.726 256.315,309.599 256.214,309.342C256.113,309.086 256.24,308.795 256.497,308.694C257.119,308.45 257.74,308.206 258.359,307.964C258.615,307.863 258.906,307.99 259.007,308.246C259.107,308.503 258.981,308.794 258.724,308.895ZM64.743,307.964C64.125,308.206 63.504,308.45 62.881,308.694C62.624,308.795 62.498,309.086 62.599,309.342C62.699,309.599 62.99,309.726 63.247,309.625C63.869,309.381 64.49,309.137 65.108,308.895C65.365,308.794 65.492,308.503 65.391,308.246C65.29,307.99 65,307.863 64.743,307.964ZM40.451,308.895C41.069,309.137 41.69,309.381 42.312,309.625C42.569,309.726 42.86,309.599 42.961,309.342C43.061,309.086 42.935,308.795 42.678,308.694C42.055,308.45 41.434,308.206 40.816,307.964C40.559,307.863 40.269,307.99 40.168,308.246C40.067,308.503 40.194,308.794 40.451,308.895ZM294.227,308.023L295.869,308.667C296.126,308.768 296.253,309.059 296.152,309.316C296.051,309.572 295.761,309.699 295.504,309.598C294.939,309.377 294.317,309.133 293.642,308.868C293.385,308.767 293.259,308.476 293.359,308.22C293.402,308.111 293.478,308.026 293.571,307.972C293.519,307.923 293.477,307.862 293.449,307.791C293.348,307.534 293.475,307.244 293.732,307.143C294.408,306.878 295.03,306.633 295.594,306.412C295.851,306.311 296.141,306.438 296.242,306.695C296.343,306.952 296.216,307.242 295.959,307.343L294.227,308.023ZM4.948,308.023L3.305,308.667C3.048,308.768 2.922,309.059 3.023,309.316C3.123,309.572 3.414,309.699 3.671,309.598C4.236,309.377 4.857,309.133 5.532,308.868C5.789,308.767 5.916,308.476 5.815,308.22C5.773,308.111 5.697,308.026 5.603,307.972C5.655,307.923 5.698,307.862 5.725,307.791C5.826,307.534 5.7,307.244 5.443,307.143C4.766,306.878 4.145,306.633 3.581,306.412C3.324,306.311 3.034,306.438 2.933,306.695C2.832,306.952 2.959,307.242 3.216,307.343L4.948,308.023ZM292.374,307.956C292.436,308.008 292.487,308.076 292.518,308.156C292.619,308.413 292.492,308.704 292.236,308.804C291.645,309.036 291.023,309.28 290.374,309.535C290.117,309.636 289.826,309.509 289.726,309.252C289.625,308.995 289.752,308.705 290.008,308.604L291.49,308.023L289.919,307.406C289.662,307.306 289.535,307.015 289.636,306.758C289.737,306.501 290.027,306.375 290.284,306.475C290.933,306.73 291.554,306.974 292.146,307.206C292.403,307.307 292.529,307.597 292.428,307.854C292.414,307.891 292.396,307.925 292.374,307.956ZM6.8,307.956C6.738,308.008 6.688,308.076 6.656,308.156C6.555,308.413 6.682,308.704 6.939,308.804C7.53,309.036 8.151,309.28 8.801,309.535C9.058,309.636 9.348,309.509 9.449,309.252C9.55,308.995 9.423,308.705 9.166,308.604L7.685,308.023L9.256,307.406C9.513,307.306 9.64,307.015 9.539,306.758C9.438,306.501 9.147,306.375 8.891,306.475C8.241,306.73 7.62,306.974 7.029,307.206C6.772,307.307 6.645,307.597 6.746,307.854C6.76,307.891 6.779,307.925 6.8,307.956ZM228.936,308.299C228.311,308.544 227.691,308.788 227.074,309.03C226.817,309.131 226.527,309.004 226.426,308.747C226.325,308.49 226.452,308.2 226.709,308.099C227.325,307.857 227.946,307.613 228.571,307.368C228.827,307.267 229.118,307.394 229.219,307.651C229.319,307.908 229.193,308.198 228.936,308.299ZM70.239,308.299C70.863,308.544 71.484,308.788 72.1,309.03C72.357,309.131 72.648,309.004 72.749,308.747C72.849,308.49 72.723,308.2 72.466,308.099C71.849,307.857 71.228,307.613 70.604,307.368C70.347,307.267 70.057,307.394 69.956,307.651C69.855,307.908 69.982,308.198 70.239,308.299ZM264.219,307.368C264.844,307.613 265.465,307.857 266.081,308.099C266.338,308.2 266.465,308.49 266.364,308.747C266.263,309.004 265.973,309.131 265.716,309.03C265.099,308.788 264.479,308.544 263.854,308.299C263.597,308.198 263.471,307.908 263.571,307.651C263.672,307.394 263.963,307.267 264.219,307.368ZM34.955,307.368C34.331,307.613 33.71,307.857 33.093,308.099C32.836,308.2 32.71,308.49 32.811,308.747C32.911,309.004 33.202,309.131 33.459,309.03C34.075,308.788 34.696,308.544 35.32,308.299C35.577,308.198 35.704,307.908 35.603,307.651C35.502,307.394 35.212,307.267 34.955,307.368ZM232.111,307.053L232.57,307.233C232.827,307.334 232.953,307.624 232.853,307.881C232.752,308.138 232.461,308.265 232.204,308.164L230.737,307.588C230.504,307.647 230.259,307.53 230.159,307.308C230.032,307.172 229.987,306.97 230.06,306.785C230.161,306.528 230.451,306.401 230.708,306.502L230.742,306.516L232.294,305.907C232.551,305.806 232.841,305.933 232.942,306.19C233.043,306.447 232.916,306.737 232.659,306.838L232.111,307.053ZM37.127,306.516L37.093,306.502C36.836,306.401 36.545,306.528 36.444,306.785C36.372,306.97 36.417,307.172 36.544,307.308C36.643,307.53 36.889,307.647 37.121,307.588L38.589,308.164C38.846,308.265 39.136,308.138 39.237,307.881C39.338,307.624 39.211,307.334 38.954,307.233L38.496,307.053L39.044,306.838C39.301,306.737 39.428,306.447 39.327,306.19C39.226,305.933 38.936,305.806 38.679,305.907L37.127,306.516ZM67.063,307.053L66.605,307.233C66.348,307.334 66.221,307.624 66.322,307.881C66.423,308.138 66.713,308.265 66.97,308.164L68.438,307.588C68.67,307.647 68.916,307.53 69.016,307.308C69.142,307.172 69.187,306.97 69.115,306.785C69.014,306.528 68.723,306.401 68.467,306.502L68.432,306.516L66.88,305.907C66.624,305.806 66.333,305.933 66.232,306.19C66.132,306.447 66.258,306.737 66.515,306.838L67.063,307.053ZM262.048,306.516L262.082,306.502C262.339,306.401 262.629,306.528 262.73,306.785C262.803,306.97 262.757,307.172 262.631,307.308C262.531,307.53 262.286,307.647 262.053,307.588L260.586,308.164C260.329,308.265 260.038,308.138 259.937,307.881C259.837,307.624 259.963,307.334 260.22,307.233L260.679,307.053L260.131,306.838C259.874,306.737 259.747,306.447 259.848,306.19C259.949,305.933 260.239,305.806 260.496,305.907L262.048,306.516ZM33.004,305.972C33.62,306.214 34.241,306.457 34.865,306.702C35.122,306.803 35.413,306.677 35.513,306.42C35.614,306.163 35.488,305.872 35.231,305.772C34.606,305.527 33.986,305.283 33.369,305.041C33.112,304.94 32.822,305.067 32.721,305.324C32.62,305.581 32.747,305.871 33.004,305.972ZM72.19,305.041C71.574,305.283 70.953,305.527 70.328,305.772C70.072,305.872 69.945,306.163 70.046,306.42C70.146,306.677 70.437,306.803 70.694,306.702C71.318,306.457 71.939,306.214 72.556,305.972C72.812,305.871 72.939,305.581 72.838,305.324C72.738,305.067 72.447,304.94 72.19,305.041ZM266.171,305.972C265.554,306.214 264.934,306.457 264.309,306.702C264.052,306.803 263.762,306.677 263.661,306.42C263.56,306.163 263.687,305.872 263.944,305.772C264.568,305.527 265.189,305.283 265.806,305.041C266.063,304.94 266.353,305.067 266.454,305.324C266.555,305.581 266.428,305.871 266.171,305.972ZM226.984,305.041C227.601,305.283 228.222,305.527 228.846,305.772C229.103,305.872 229.23,306.163 229.129,306.42C229.028,306.677 228.738,306.803 228.481,306.702C227.856,306.457 227.236,306.214 226.619,305.972C226.362,305.871 226.235,305.581 226.336,305.324C226.437,305.067 226.727,304.94 226.984,305.041ZM12.614,305.014C11.975,305.265 11.354,305.509 10.752,305.745C10.495,305.846 10.369,306.136 10.47,306.393C10.57,306.65 10.861,306.776 11.118,306.676C11.719,306.44 12.34,306.196 12.979,305.945C13.236,305.844 13.363,305.554 13.262,305.297C13.161,305.04 12.871,304.913 12.614,305.014ZM286.56,305.014C287.2,305.265 287.821,305.509 288.422,305.745C288.679,305.846 288.806,306.136 288.705,306.393C288.604,306.65 288.314,306.776 288.057,306.676C287.455,306.44 286.834,306.196 286.195,305.945C285.938,305.844 285.812,305.554 285.912,305.297C286.013,305.04 286.304,304.913 286.56,305.014ZM-0,305.007L-0,306.081L1.354,306.612C1.611,306.713 1.901,306.587 2.002,306.33C2.103,306.073 1.976,305.782 1.719,305.682L-0,305.007ZM299.683,305.882C299.683,305.882 299.028,306.139 297.821,306.612C297.564,306.713 297.274,306.587 297.173,306.33C297.072,306.073 297.199,305.782 297.455,305.682C298.662,305.208 299.317,304.951 299.317,304.951C299.574,304.85 299.865,304.977 299.965,305.234C300.066,305.491 299.939,305.781 299.683,305.882ZM42.402,304.446C41.779,304.69 41.159,304.934 40.54,305.176C40.284,305.277 40.157,305.567 40.258,305.824C40.358,306.081 40.649,306.208 40.906,306.107C41.524,305.864 42.145,305.621 42.767,305.376C43.024,305.276 43.151,304.985 43.05,304.728C42.949,304.471 42.659,304.345 42.402,304.446ZM256.772,304.446C257.395,304.69 258.016,304.934 258.634,305.176C258.891,305.277 259.018,305.567 258.917,305.824C258.816,306.081 258.526,306.208 258.269,306.107C257.65,305.864 257.03,305.621 256.407,305.376C256.15,305.276 256.023,304.985 256.124,304.728C256.225,304.471 256.516,304.345 256.772,304.446ZM236.383,305.376C235.76,305.621 235.14,305.864 234.521,306.107C234.264,306.208 233.974,306.081 233.873,305.824C233.772,305.567 233.899,305.277 234.156,305.176C234.774,304.934 235.395,304.69 236.018,304.446C236.274,304.345 236.565,304.471 236.666,304.728C236.766,304.985 236.64,305.276 236.383,305.376ZM62.792,305.376C63.414,305.621 64.035,305.864 64.653,306.107C64.91,306.208 65.201,306.081 65.301,305.824C65.402,305.567 65.276,305.277 65.019,305.176C64.4,304.934 63.78,304.69 63.157,304.446C62.9,304.345 62.61,304.471 62.509,304.728C62.408,304.985 62.535,305.276 62.792,305.376ZM29.28,304.51C29.895,304.752 30.516,304.996 31.142,305.241C31.399,305.342 31.689,305.215 31.79,304.958C31.891,304.701 31.764,304.411 31.507,304.31C30.882,304.065 30.261,303.821 29.645,303.58C29.388,303.479 29.098,303.605 28.997,303.862C28.896,304.119 29.023,304.41 29.28,304.51ZM75.914,303.58C75.298,303.821 74.678,304.065 74.052,304.31C73.795,304.411 73.668,304.701 73.769,304.958C73.87,305.215 74.16,305.342 74.417,305.241C75.043,304.996 75.664,304.752 76.279,304.51C76.536,304.41 76.663,304.119 76.562,303.862C76.461,303.605 76.171,303.479 75.914,303.58ZM269.895,304.51C269.279,304.752 268.658,304.996 268.033,305.241C267.776,305.342 267.486,305.215 267.385,304.958C267.284,304.701 267.411,304.411 267.667,304.31C268.293,304.065 268.914,303.821 269.529,303.58C269.786,303.479 270.077,303.605 270.177,303.862C270.278,304.119 270.151,304.41 269.895,304.51ZM223.261,303.58C223.876,303.821 224.497,304.065 225.122,304.31C225.379,304.411 225.506,304.701 225.405,304.958C225.304,305.215 225.014,305.342 224.757,305.241C224.132,304.996 223.511,304.752 222.895,304.51C222.639,304.41 222.512,304.119 222.613,303.862C222.713,303.605 223.004,303.479 223.261,303.58ZM16.338,303.553C15.704,303.802 15.083,304.045 14.476,304.283C14.219,304.384 14.092,304.675 14.193,304.932C14.294,305.188 14.584,305.315 14.841,305.214C15.448,304.976 16.069,304.733 16.703,304.484C16.96,304.383 17.086,304.092 16.986,303.836C16.885,303.579 16.594,303.452 16.338,303.553ZM282.837,303.553C283.471,303.802 284.092,304.045 284.699,304.283C284.956,304.384 285.082,304.675 284.981,304.932C284.881,305.188 284.59,305.315 284.333,305.214C283.727,304.976 283.106,304.733 282.472,304.484C282.215,304.383 282.088,304.092 282.189,303.836C282.29,303.579 282.58,303.452 282.837,303.553ZM46.126,302.984C45.504,303.228 44.883,303.472 44.264,303.715C44.007,303.816 43.88,304.106 43.981,304.363C44.082,304.62 44.372,304.747 44.629,304.646C45.248,304.403 45.869,304.159 46.491,303.915C46.748,303.814 46.875,303.524 46.774,303.267C46.673,303.01 46.383,302.883 46.126,302.984ZM253.049,302.984C253.671,303.228 254.291,303.472 254.911,303.715C255.168,303.816 255.294,304.106 255.193,304.363C255.093,304.62 254.802,304.747 254.545,304.646C253.926,304.403 253.305,304.159 252.684,303.915C252.427,303.814 252.3,303.524 252.401,303.267C252.502,303.01 252.792,302.883 253.049,302.984ZM240.106,303.915C239.485,304.159 238.864,304.403 238.245,304.646C237.988,304.747 237.697,304.62 237.597,304.363C237.496,304.106 237.622,303.816 237.879,303.715C238.498,303.472 239.119,303.228 239.741,302.984C239.998,302.883 240.288,303.01 240.389,303.267C240.49,303.524 240.363,303.814 240.106,303.915ZM59.068,303.915C59.69,304.159 60.311,304.403 60.93,304.646C61.187,304.747 61.477,304.62 61.578,304.363C61.679,304.106 61.552,303.816 61.295,303.715C60.676,303.472 60.055,303.228 59.433,302.984C59.177,302.883 58.886,303.01 58.785,303.267C58.685,303.524 58.811,303.814 59.068,303.915ZM79.637,302.118C79.023,302.359 78.402,302.603 77.776,302.849C77.519,302.95 77.392,303.24 77.493,303.497C77.594,303.754 77.884,303.881 78.141,303.78C78.768,303.534 79.388,303.29 80.003,303.049C80.259,302.948 80.386,302.658 80.285,302.401C80.185,302.144 79.894,302.017 79.637,302.118ZM219.218,302.103C219.319,302.074 219.431,302.077 219.537,302.118C220.151,302.359 220.772,302.603 221.399,302.849C221.656,302.95 221.783,303.24 221.682,303.497C221.581,303.754 221.291,303.881 221.034,303.78C220.407,303.534 219.786,303.29 219.172,303.049C218.947,302.961 218.822,302.727 218.862,302.498L219.218,302.103ZM25.557,303.049C26.171,303.29 26.791,303.534 27.418,303.78C27.675,303.881 27.966,303.754 28.066,303.497C28.167,303.24 28.04,302.95 27.784,302.849C27.157,302.603 26.536,302.359 25.922,302.118C25.665,302.017 25.375,302.144 25.274,302.401C25.173,302.658 25.3,302.948 25.557,303.049ZM273.618,303.049C273.004,303.29 272.383,303.534 271.756,303.78C271.499,303.881 271.209,303.754 271.108,303.497C271.007,303.24 271.134,302.95 271.391,302.849C272.018,302.603 272.639,302.359 273.253,302.118C273.51,302.017 273.8,302.144 273.901,302.401C274.002,302.658 273.875,302.948 273.618,303.049ZM20.061,302.091C19.43,302.339 18.809,302.583 18.199,302.822C17.942,302.923 17.816,303.213 17.917,303.47C18.017,303.727 18.308,303.854 18.565,303.753C19.175,303.514 19.796,303.27 20.426,303.022C20.683,302.922 20.81,302.631 20.709,302.374C20.608,302.117 20.318,301.991 20.061,302.091ZM279.113,302.091C279.744,302.339 280.365,302.583 280.975,302.822C281.232,302.923 281.359,303.213 281.258,303.47C281.157,303.727 280.867,303.854 280.61,303.753C280,303.514 279.379,303.27 278.748,303.022C278.491,302.922 278.365,302.631 278.465,302.374C278.566,302.117 278.857,301.991 279.113,302.091ZM55.345,302.454C55.966,302.698 56.586,302.941 57.206,303.184C57.463,303.285 57.754,303.159 57.854,302.902C57.955,302.645 57.829,302.354 57.572,302.254C56.952,302.01 56.331,301.767 55.71,301.523C55.453,301.422 55.163,301.549 55.062,301.806C54.961,302.062 55.088,302.353 55.345,302.454ZM49.849,301.523C49.228,301.767 48.607,302.01 47.987,302.254C47.731,302.354 47.604,302.645 47.705,302.902C47.806,303.159 48.096,303.285 48.353,303.184C48.973,302.941 49.593,302.698 50.215,302.454C50.471,302.353 50.598,302.062 50.497,301.806C50.397,301.549 50.106,301.422 49.849,301.523ZM249.325,301.523C249.946,301.767 250.567,302.01 251.187,302.254C251.444,302.354 251.571,302.645 251.47,302.902C251.369,303.159 251.079,303.285 250.822,303.184C250.202,302.941 249.581,302.698 248.96,302.454C248.703,302.353 248.576,302.062 248.677,301.806C248.778,301.549 249.068,301.422 249.325,301.523ZM243.83,302.454C243.209,302.698 242.588,302.941 241.968,303.184C241.711,303.285 241.421,303.159 241.32,302.902C241.219,302.645 241.346,302.354 241.603,302.254C242.223,302.01 242.843,301.767 243.465,301.523C243.722,301.422 244.012,301.549 244.113,301.806C244.214,302.062 244.087,302.353 243.83,302.454ZM22.957,300.955L22.198,300.657C21.942,300.556 21.651,300.683 21.55,300.94C21.467,301.152 21.539,301.387 21.711,301.519C21.606,301.654 21.573,301.839 21.64,302.009C21.741,302.266 22.031,302.393 22.288,302.292L22.957,302.029L23.695,302.318C23.952,302.419 24.242,302.293 24.343,302.036C24.415,301.851 24.37,301.649 24.243,301.512C24.436,301.385 24.52,301.136 24.433,300.913C24.332,300.656 24.041,300.529 23.785,300.63L22.957,300.955ZM276.217,300.955L276.976,300.657C277.233,300.556 277.523,300.683 277.624,300.94C277.708,301.152 277.636,301.387 277.463,301.519C277.568,301.654 277.601,301.839 277.535,302.009C277.434,302.266 277.143,302.393 276.886,302.292L276.217,302.029L275.48,302.318C275.223,302.419 274.932,302.293 274.832,302.036C274.759,301.851 274.804,301.649 274.931,301.512C274.739,301.385 274.654,301.136 274.742,300.913C274.843,300.656 275.133,300.529 275.39,300.63L276.217,300.955ZM246.395,300.373L247.188,300.062C247.445,299.961 247.735,300.087 247.836,300.344C247.922,300.562 247.844,300.804 247.662,300.934C247.777,301.07 247.816,301.263 247.746,301.44C247.645,301.697 247.355,301.824 247.098,301.723L246.395,301.447L245.692,301.723C245.435,301.824 245.144,301.697 245.044,301.44C244.974,301.263 245.013,301.07 245.128,300.934C244.946,300.804 244.868,300.562 244.954,300.344C245.055,300.087 245.345,299.961 245.602,300.062L246.395,300.373ZM52.78,300.373L51.986,300.062C51.73,299.961 51.439,300.087 51.338,300.344C51.253,300.562 51.331,300.804 51.513,300.934C51.397,301.07 51.359,301.263 51.428,301.44C51.529,301.697 51.819,301.824 52.076,301.723L52.78,301.447L53.483,301.723C53.74,301.824 54.03,301.697 54.131,301.44C54.2,301.263 54.162,301.07 54.046,300.934C54.228,300.804 54.306,300.562 54.221,300.344C54.12,300.087 53.83,299.961 53.573,300.062L52.78,300.373ZM281.065,300.126C280.455,300.366 279.834,300.61 279.203,300.857C278.946,300.958 278.656,300.831 278.555,300.574C278.454,300.317 278.581,300.027 278.838,299.926C279.469,299.679 280.09,299.435 280.7,299.196C280.957,299.095 281.247,299.221 281.348,299.478C281.449,299.735 281.322,300.026 281.065,300.126ZM18.11,300.126C18.72,300.366 19.34,300.61 19.971,300.857C20.228,300.958 20.519,300.831 20.619,300.574C20.72,300.317 20.594,300.027 20.337,299.926C19.706,299.679 19.085,299.435 18.475,299.196C18.218,299.095 17.928,299.221 17.827,299.478C17.726,299.735 17.853,300.026 18.11,300.126ZM27.508,299.169C26.881,299.415 26.261,299.658 25.646,299.899C25.389,300 25.263,300.291 25.364,300.548C25.464,300.804 25.755,300.931 26.012,300.83C26.626,300.589 27.247,300.346 27.873,300.1C28.13,299.999 28.257,299.708 28.156,299.452C28.055,299.195 27.765,299.068 27.508,299.169ZM271.666,299.169C272.293,299.415 272.914,299.658 273.528,299.899C273.785,300 273.912,300.291 273.811,300.548C273.71,300.804 273.42,300.931 273.163,300.83C272.549,300.589 271.928,300.346 271.301,300.1C271.044,299.999 270.918,299.708 271.018,299.452C271.119,299.195 271.41,299.068 271.666,299.169ZM241.878,298.6C242.498,298.843 243.119,299.087 243.74,299.331C243.997,299.432 244.124,299.722 244.023,299.979C243.922,300.236 243.632,300.363 243.375,300.262C242.754,300.018 242.133,299.774 241.513,299.531C241.256,299.43 241.129,299.14 241.23,298.883C241.331,298.626 241.621,298.499 241.878,298.6ZM57.296,298.6C56.676,298.843 56.056,299.087 55.434,299.331C55.178,299.432 55.051,299.722 55.152,299.979C55.253,300.236 55.543,300.363 55.8,300.262C56.421,300.018 57.042,299.774 57.662,299.531C57.918,299.43 58.045,299.14 57.944,298.883C57.843,298.626 57.553,298.499 57.296,298.6ZM47.898,299.531C48.517,299.774 49.138,300.018 49.759,300.262C50.016,300.363 50.307,300.236 50.407,299.979C50.508,299.722 50.382,299.432 50.125,299.331C49.503,299.087 48.883,298.843 48.263,298.6C48.006,298.499 47.716,298.626 47.615,298.883C47.514,299.14 47.641,299.43 47.898,299.531ZM251.277,299.531C250.657,299.774 250.036,300.018 249.415,300.262C249.158,300.363 248.868,300.236 248.767,299.979C248.666,299.722 248.793,299.432 249.05,299.331C249.671,299.087 250.292,298.843 250.912,298.6C251.168,298.499 251.459,298.626 251.56,298.883C251.661,299.14 251.534,299.43 251.277,299.531ZM14.386,298.665C14.993,298.903 15.614,299.147 16.248,299.396C16.505,299.497 16.795,299.37 16.896,299.113C16.997,298.856 16.87,298.566 16.613,298.465C15.979,298.216 15.358,297.972 14.751,297.734C14.494,297.633 14.204,297.76 14.103,298.017C14.002,298.274 14.129,298.564 14.386,298.665ZM284.788,298.665C284.182,298.903 283.561,299.147 282.927,299.396C282.67,299.497 282.379,299.37 282.279,299.113C282.178,298.856 282.304,298.566 282.561,298.465C283.196,298.216 283.816,297.972 284.423,297.734C284.68,297.633 284.97,297.76 285.071,298.017C285.172,298.274 285.045,298.564 284.788,298.665ZM30.672,297.927C31.082,297.993 31.495,298.052 31.909,298.103C31.941,298.327 31.817,298.552 31.597,298.638C30.971,298.884 30.351,299.127 29.735,299.369C29.478,299.47 29.188,299.343 29.087,299.086C28.986,298.829 29.113,298.539 29.37,298.438L30.672,297.927ZM268.731,298.017L269.805,298.438C270.062,298.539 270.188,298.829 270.087,299.086C269.987,299.343 269.696,299.47 269.439,299.369C268.824,299.127 268.203,298.884 267.578,298.638C267.388,298.564 267.27,298.387 267.261,298.196C267.755,298.146 268.245,298.086 268.731,298.017ZM297.731,297.371C298.73,297.763 299.369,298.013 299.593,298.101C299.85,298.202 299.976,298.493 299.876,298.75C299.775,299.006 299.484,299.133 299.227,299.032C299.003,298.944 298.364,298.694 297.366,298.302C297.109,298.201 296.982,297.91 297.083,297.653C297.184,297.397 297.474,297.27 297.731,297.371ZM-0,297.937L-0,299.012L1.809,298.302C2.066,298.201 2.192,297.91 2.092,297.653C1.991,297.397 1.7,297.27 1.444,297.371L-0,297.937ZM46.716,298.38L44.965,298.38L46.036,298.8C46.293,298.901 46.583,298.775 46.684,298.518C46.702,298.472 46.712,298.426 46.716,298.38ZM254.21,298.38L253.139,298.8C252.882,298.901 252.591,298.775 252.491,298.518C252.473,298.472 252.462,298.426 252.458,298.38L254.21,298.38ZM60.594,298.38L58.843,298.38C58.847,298.426 58.857,298.472 58.875,298.518C58.976,298.775 59.266,298.901 59.523,298.8L60.594,298.38ZM240.332,298.38C240.328,298.426 240.317,298.472 240.299,298.518C240.199,298.775 239.908,298.901 239.651,298.8L238.58,298.38L240.332,298.38ZM10.663,297.204C11.264,297.44 11.885,297.683 12.524,297.934C12.781,298.035 13.072,297.909 13.172,297.652C13.273,297.395 13.147,297.104 12.89,297.004C12.25,296.753 11.629,296.509 11.028,296.273C10.771,296.172 10.481,296.299 10.38,296.556C10.279,296.813 10.406,297.103 10.663,297.204ZM288.512,297.204C287.911,297.44 287.29,297.683 286.65,297.934C286.393,298.035 286.103,297.909 286.002,297.652C285.901,297.395 286.028,297.104 286.285,297.004C286.924,296.753 287.545,296.509 288.147,296.273C288.404,296.172 288.694,296.299 288.795,296.556C288.896,296.813 288.769,297.103 288.512,297.204ZM294.007,295.909C294.682,296.174 295.304,296.418 295.869,296.64C296.126,296.741 296.253,297.031 296.152,297.288C296.051,297.545 295.761,297.672 295.504,297.571C294.939,297.349 294.317,297.105 293.642,296.84C293.385,296.739 293.259,296.449 293.359,296.192C293.46,295.935 293.751,295.809 294.007,295.909ZM5.167,295.909C4.492,296.174 3.87,296.418 3.305,296.64C3.048,296.741 2.922,297.031 3.023,297.288C3.123,297.545 3.414,297.672 3.671,297.571C4.236,297.349 4.857,297.105 5.532,296.84C5.789,296.739 5.916,296.449 5.815,296.192C5.714,295.935 5.424,295.809 5.167,295.909ZM291.54,294.941L291.87,294.812C292.127,294.711 292.417,294.837 292.518,295.094C292.583,295.259 292.554,295.437 292.457,295.57C292.47,295.654 292.462,295.742 292.428,295.827C292.328,296.084 292.037,296.21 291.78,296.11L291.54,296.015L290.374,296.473C290.117,296.574 289.826,296.447 289.726,296.19C289.625,295.933 289.752,295.643 290.008,295.542L290.172,295.478L289.919,295.379C289.662,295.278 289.535,294.988 289.636,294.731C289.737,294.474 290.027,294.347 290.284,294.448L291.54,294.941ZM7.634,294.941L7.304,294.812C7.047,294.711 6.757,294.837 6.656,295.094C6.592,295.259 6.62,295.437 6.717,295.57C6.704,295.654 6.713,295.742 6.746,295.827C6.847,296.084 7.137,296.21 7.394,296.11L7.634,296.015L8.801,296.473C9.058,296.574 9.348,296.447 9.449,296.19C9.55,295.933 9.423,295.643 9.166,295.542L9.003,295.478L9.256,295.379C9.513,295.278 9.64,294.988 9.539,294.731C9.438,294.474 9.147,294.347 8.891,294.448L7.634,294.941ZM295.959,294.281C295.395,294.502 294.773,294.746 294.097,295.012C293.84,295.113 293.55,294.986 293.449,294.729C293.348,294.472 293.475,294.182 293.732,294.081C294.408,293.816 295.03,293.571 295.594,293.35C295.851,293.249 296.141,293.376 296.242,293.633C296.343,293.89 296.216,294.18 295.959,294.281ZM3.216,294.281C3.779,294.502 4.401,294.746 5.077,295.012C5.334,295.113 5.625,294.986 5.725,294.729C5.826,294.472 5.7,294.182 5.443,294.081C4.766,293.816 4.145,293.571 3.581,293.35C3.324,293.249 3.034,293.376 2.933,293.633C2.832,293.89 2.959,294.18 3.216,294.281ZM286.56,292.987C287.2,293.238 287.821,293.481 288.422,293.717C288.679,293.818 288.806,294.109 288.705,294.365C288.604,294.622 288.314,294.749 288.057,294.648C287.455,294.412 286.834,294.168 286.195,293.918C285.938,293.817 285.812,293.526 285.912,293.269C286.013,293.013 286.304,292.886 286.56,292.987ZM12.614,292.987C11.975,293.238 11.354,293.481 10.752,293.717C10.495,293.818 10.369,294.109 10.47,294.365C10.57,294.622 10.861,294.749 11.118,294.648C11.719,294.412 12.34,294.168 12.979,293.918C13.236,293.817 13.363,293.526 13.262,293.269C13.161,293.013 12.871,292.886 12.614,292.987ZM-0,291.945L-0,293.019L1.354,293.55C1.611,293.651 1.901,293.525 2.002,293.268C2.103,293.011 1.976,292.72 1.719,292.62L-0,291.945ZM299.683,292.82C299.683,292.82 299.028,293.077 297.821,293.55C297.564,293.651 297.274,293.525 297.173,293.268C297.072,293.011 297.199,292.72 297.455,292.62C298.662,292.146 299.317,291.889 299.317,291.889C299.574,291.788 299.865,291.915 299.965,292.172C300.066,292.429 299.939,292.719 299.683,292.82ZM284.076,292.012L284.699,292.256C284.956,292.357 285.082,292.647 284.981,292.904C284.881,293.161 284.59,293.288 284.333,293.187L283.057,292.686C283.4,292.467 283.74,292.242 284.076,292.012ZM15.621,291.806C15.953,292.039 16.288,292.265 16.626,292.486L14.841,293.187C14.584,293.288 14.294,293.161 14.193,292.904C14.092,292.647 14.219,292.357 14.476,292.256L15.621,291.806ZM6.641,282.854C6.801,283.082 6.964,283.307 7.131,283.532L6.939,283.456C6.699,283.348 6.582,283.114 6.64,282.857L6.641,282.854ZM3.216,281.995C3.779,282.216 4.401,282.46 5.077,282.726C5.334,282.827 5.625,282.7 5.725,282.443C5.826,282.186 5.7,281.896 5.443,281.795C4.766,281.529 4.145,281.285 3.581,281.064C3.324,280.963 3.034,281.09 2.933,281.347C2.832,281.604 2.959,281.894 3.216,281.995ZM294.193,281.614L295.594,281.064C295.851,280.963 296.141,281.09 296.242,281.347C296.343,281.604 296.216,281.894 295.959,281.995C295.395,282.216 294.773,282.46 294.097,282.726C293.896,282.805 293.674,282.744 293.539,282.59L293.751,282.281C293.833,282.16 293.914,282.038 293.995,281.917L294.193,281.614ZM-0,279.659L-0,280.733L1.354,281.264C1.611,281.365 1.901,281.238 2.002,280.982C2.103,280.725 1.976,280.434 1.719,280.333L-0,279.659ZM299.683,280.534C299.683,280.534 299.028,280.791 297.821,281.264C297.564,281.365 297.274,281.238 297.173,280.982C297.072,280.725 297.199,280.434 297.455,280.333C298.662,279.86 299.317,279.603 299.317,279.603C299.574,279.502 299.865,279.629 299.965,279.886C300.066,280.142 299.939,280.433 299.683,280.534Z" style="fill:#268428;"/>
        <path d="M4.162,278.809C4.162,278.809 4.053,286.084 4,286.012L4,306.963C4,306.963 38.037,341 38.037,341C38.037,341 110.024,341 110.024,341L75.241,302.382L71.552,298.38L77.019,298.38L119.011,345L36.38,345L-0,308.62L-0,266C0,266 0.2,265.8 0.2,265.8L0.201,265.809L-0,266.01L0.224,266.004C0.731,270.572 2.1,274.897 4.162,278.809ZM295.73,279.007C298.452,273.921 300,268.127 300,262L300,308.62L263.62,345L180.58,345L222.571,298.38L228.234,298.38L224.352,302.38C224.352,302.38 189.566,341 189.566,341C189.566,341 261.963,341 261.963,341L296,306.963L296,286.006C295.911,286.125 295.73,279.007 295.73,279.007Z" style="fill:#215222;"/>
        <path d="M289.548,334.038C282.926,340.789 273.726,345 263.62,345L36.38,345C26.274,345 17.074,340.789 10.452,334.038L289.548,334.038Z" style="fill:#157018;fill-rule:nonzero;"/>
        <path d="M10.452,335.064C10.214,335.06 9.987,335.083 9.736,334.857C9.436,334.588 9.374,334.022 9.53,333.651C9.686,333.279 10.05,333.038 10.452,333.038L289.548,333.038C289.95,333.038 290.314,333.279 290.47,333.651C290.626,334.022 290.544,334.45 290.262,334.738C290.154,334.848 289.942,335.063 289.548,335.064L287.019,335.064L287.049,335.037L287.048,335.038C287.048,335.038 12.952,335.038 12.952,335.037L12.981,335.064L10.452,335.064Z" style="fill:#215222;"/>
    </g>
</svg>
