<?xml version="1.0" encoding="UTF-8" standalone="no"?>
<!DOCTYPE svg PUBLIC "-//W3C//DTD SVG 1.1//EN" "http://www.w3.org/Graphics/SVG/1.1/DTD/svg11.dtd">
<svg width="100%" height="100%" viewBox="0 0 300 345" version="1.1" xmlns="http://www.w3.org/2000/svg" xmlns:xlink="http://www.w3.org/1999/xlink" xml:space="preserve" xmlns:serif="http://www.serif.com/" style="fill-rule:evenodd;clip-rule:evenodd;stroke-linejoin:round;stroke-miterlimit:2;">
    <g id="avatar_clothing_49">
        <path d="M-0,262.01C-0,281.967 16.423,298.39 36.38,298.39L108.15,298.39L150,309.4L191.85,298.39L263.62,298.39C283.577,298.39 300,281.967 300,262.01L300,308.62C300,328.577 283.577,345 263.62,345L36.38,345C16.423,345 -0,328.577 -0,308.62L-0,262.01Z" style="fill:#207d00;fill-rule:nonzero;"/>
        <g transform="matrix(1,0,0,1,75.7897,5.48366)">
            <path d="M124.893,331.852L112.706,331.852L112.706,327.165L115.606,327.165L115.606,317.951C115.079,318.088 114.356,318.156 113.438,318.156C113.145,318.156 112.901,318.141 112.706,318.112L112.706,313.6C112.823,313.61 112.945,313.615 113.072,313.615C114.351,313.615 115.538,313.366 116.632,312.868C117.745,312.36 118.541,311.759 119.019,311.066L122.081,311.066L122.081,327.165L124.893,327.165L124.893,331.852Z" style="fill:#fff;fill-rule:nonzero;"/>
            <path d="M132.088,321.554C132.088,324.103 132.279,325.768 132.66,326.549C133.04,327.34 133.568,327.736 134.242,327.736C134.925,327.736 135.448,327.321 135.809,326.491C136.17,325.68 136.351,324.035 136.351,321.554C136.351,318.976 136.161,317.301 135.78,316.53C135.389,315.768 134.867,315.387 134.212,315.387C133.568,315.387 133.055,315.768 132.674,316.53C132.284,317.301 132.088,318.976 132.088,321.554ZM125.453,321.554C125.453,318.224 126.317,315.646 128.045,313.82C129.774,311.984 131.829,311.066 134.212,311.066C136.693,311.066 138.778,312.013 140.467,313.908C142.147,315.802 142.987,318.351 142.987,321.554C142.987,324.923 142.118,327.511 140.379,329.318C138.641,331.134 136.585,332.043 134.212,332.043C131.742,332.043 129.662,331.095 127.972,329.201C126.292,327.316 125.453,324.767 125.453,321.554Z" style="fill:#fff;fill-rule:nonzero;"/>
        </g>
        <path d="M-0,291.545L47.914,322.079L47.914,322.079L47.907,322.088C42.729,328.252 38.874,335.707 36.467,344.674L36.38,345C16.423,345 -0,328.577 -0,308.62L-0,291.545Z" style="fill:#2caa00;fill-rule:nonzero;"/>
        <path d="M-0,262.01C-0,281.962 16.418,298.38 36.37,298.38L96.364,298.38C75.236,302.004 58.706,309.237 47.914,322.079L47.914,322.079L0,291.545L-0,291.545L0,262L-0,262.01Z" style="fill:#155300;fill-rule:nonzero;"/>
        <g transform="matrix(-1,0,0,1,300,0)">
            <path d="M-0,291.545L47.914,322.079L47.914,322.079L47.907,322.088C42.729,328.252 38.874,335.707 36.467,344.674L36.38,345C16.423,345 -0,328.577 -0,308.62L-0,291.545Z" style="fill:#2caa00;fill-rule:nonzero;"/>
        </g>
        <g transform="matrix(-1,0,0,1,300,0)">
            <path d="M-0,262.01C-0,281.962 16.418,298.38 36.37,298.38L96.364,298.38C75.236,302.004 58.706,309.237 47.914,322.079L47.914,322.079L0,291.545L-0,291.545L0,262L-0,262.01Z" style="fill:#155300;fill-rule:nonzero;"/>
        </g>
        <path d="M108.15,298.39C107.659,299.73 106.465,300.764 104.954,300.978C73.933,305.374 49.552,320.288 40.548,345L36.38,345C35.007,345 33.651,344.922 32.315,344.771C32.335,344.42 32.402,344.067 32.52,343.718C35.229,335.709 39.341,328.559 44.64,322.316L-0,292.89L-0,288.099L47.348,319.311C56.163,310.089 67.747,303.059 81.3,298.39L108.15,298.39Z" style="fill:#fff;"/>
        <g transform="matrix(-1,0,0,1,300,0)">
            <path d="M108.15,298.39C107.659,299.73 106.465,300.764 104.954,300.978C73.933,305.374 49.552,320.288 40.548,345L36.38,345C35.007,345 33.651,344.922 32.315,344.771C32.335,344.42 32.402,344.067 32.52,343.718C35.229,335.709 39.341,328.559 44.64,322.316L-0,292.89L-0,288.099L47.348,319.311C56.163,310.089 67.747,303.059 81.3,298.39L108.15,298.39Z" style="fill:#fff;"/>
        </g>
        <path d="M206.377,298.39L150,313.152L93.164,298.39L115.09,298.39L150,306.468L184.91,298.39L206.377,298.39Z" style="fill:#fff;"/>
    </g>
</svg>
