<?xml version="1.0" encoding="UTF-8" standalone="no"?>
<!DOCTYPE svg PUBLIC "-//W3C//DTD SVG 1.1//EN" "http://www.w3.org/Graphics/SVG/1.1/DTD/svg11.dtd">
<svg width="100%" height="100%" viewBox="0 0 300 345" version="1.1" xmlns="http://www.w3.org/2000/svg" xmlns:xlink="http://www.w3.org/1999/xlink" xml:space="preserve" xmlns:serif="http://www.serif.com/" style="fill-rule:evenodd;clip-rule:evenodd;stroke-linejoin:round;stroke-miterlimit:2;">
    <g id="avatar_clothing_21">
        <g>
            <path d="M186.716,298.38L187.02,345L115.045,345L113.284,298.38L186.716,298.38Z" style="fill-rule:nonzero;"/>
            <path d="M300,308.62C300,328.577 283.577,345 263.62,345L36.38,345C16.423,345 -0,328.577 -0,308.62L-0,262.01L0,262L-0,262.01C-0,281.962 16.418,298.38 36.37,298.38L113.133,298.553L149.849,318.907L186.716,298.38L263.62,298.38C283.577,298.38 300,281.957 300,262L300,308.62Z" style="fill:#fff;fill-rule:nonzero;"/>
            <path d="M152.738,320.404L133.663,329.521L77.351,298.317L112.879,298.317L152.738,320.404Z" style="fill:#dfdfdf;"/>
            <path d="M146.195,316.778L152.738,320.404L133.663,329.521L128.263,326.529L146.195,316.778Z" style="fill:#c7c7c7;"/>
            <path d="M138.06,326.796L87.949,298.367L91.913,298.317L140.072,325.638L138.06,326.796ZM144.768,322.935L101.461,298.367L105.495,298.356L146.78,321.777L144.768,322.935Z" style="fill:#c4c4c4;"/>
            <path d="M138.06,326.796L133.023,323.938L135.094,322.814L140.072,325.638L138.06,326.796ZM144.768,322.935L139.924,320.188L141.993,319.062L146.78,321.777L144.768,322.935Z" style="fill:#aeaeae;"/>
            <g transform="matrix(1,0,-1.68721,0.934947,588.259,14.5604)">
                <rect x="110.656" y="303.5" width="35.528" height="49.931" style="fill:#dfdfdf;"/>
            </g>
            <path d="M111.599,345L115.652,345L197.852,298.367L193.804,298.364L111.599,345ZM125.117,345L129.165,345L211.364,298.367L207.33,298.356L125.117,345Z" style="fill:#c4c4c4;"/>
        </g>
        <g>
            <g transform="matrix(0.764859,-0.376511,0.415428,0.843916,-106.678,105.095)">
                <path d="M161.481,334.448C161.481,333.805 160.905,333.282 160.194,333.282L149.897,333.282C149.187,333.282 148.61,333.805 148.61,334.448L148.61,349.821C148.61,350.465 149.187,350.987 149.897,350.987L160.194,350.987C160.905,350.987 161.481,350.465 161.481,349.821L161.481,334.448Z" style="fill:#374148;"/>
            </g>
            <path d="M13.484,336.765C11.605,336.765 9.169,336.991 7.232,334.581C5.204,332.057 3.336,329.521 1.492,326.796C0.439,325.24 1.525,323.15 3.404,323.15L296.596,323.15C298.475,323.15 299.561,325.24 298.508,326.796C296.664,329.521 294.796,332.057 292.768,334.581C290.831,336.991 288.395,336.765 286.516,336.765L13.484,336.765Z" style="fill:#2f353a;"/>
            <g transform="matrix(-0.764859,-0.376511,-0.501575,1.01892,432.126,43.6717)">
                <path d="M161.481,334.248C161.481,333.715 160.905,333.282 160.194,333.282L149.897,333.282C149.187,333.282 148.61,333.715 148.61,334.248L148.61,350.021C148.61,350.554 149.187,350.987 149.897,350.987L160.194,350.987C160.905,350.987 161.481,350.554 161.481,350.021L161.481,334.248Z" style="fill:#1a1c1e;"/>
            </g>
            <g transform="matrix(0.820949,-0.0482853,0.0482853,0.820949,7.11629,64.8477)">
                <path d="M143.42,334.231L159.859,336.383L157.507,320.831C157.359,319.855 156.447,319.182 155.471,319.33L143.255,321.177C142.278,321.325 141.606,322.237 141.753,323.213L143.42,334.231Z" style="fill:#1a232a;"/>
            </g>
            <g transform="matrix(0.418245,0.53021,-0.725865,0.572584,326.036,61.271)">
                <path d="M161.481,321.826C161.481,320.948 160.505,320.235 159.303,320.235L144.258,320.235C143.056,320.235 142.08,320.948 142.08,321.826L142.08,337.714C142.08,338.592 143.056,339.305 144.258,339.305L159.303,339.305C160.505,339.305 161.481,338.592 161.481,337.714L161.481,321.826Z" style="fill:#374148;"/>
            </g>
        </g>
    </g>
</svg>
