<?xml version="1.0" encoding="UTF-8" standalone="no"?>
<!DOCTYPE svg PUBLIC "-//W3C//DTD SVG 1.1//EN" "http://www.w3.org/Graphics/SVG/1.1/DTD/svg11.dtd">
<svg width="100%" height="100%" viewBox="0 0 300 345" version="1.1" xmlns="http://www.w3.org/2000/svg" xmlns:xlink="http://www.w3.org/1999/xlink" xml:space="preserve" xmlns:serif="http://www.serif.com/" style="fill-rule:evenodd;clip-rule:evenodd;stroke-linejoin:round;stroke-miterlimit:2;">
    <g id="avatar_clothing_35">
        <g transform="matrix(0.944751,0,0,1,9.1887,0)">
            <rect x="109.358" y="298.147" width="78.941" height="46.853" style="fill:#fff;"/>
        </g>
        <path d="M-0,262.01C-0,281.962 16.418,298.38 36.37,298.38L41.622,298.38L149.204,324.87L150,325.438L150,325.438L150.908,324.789L259.824,298.38L263.63,298.38C283.582,298.38 300,281.962 300,262.01L300,308.62L299.999,308.854C299.872,328.705 283.5,345 263.62,345L36.38,345C16.423,345 -0,328.577 -0,308.62L-0,262.01Z" style="fill:#d43102;fill-rule:nonzero;"/>
        <path d="M61.955,345L57.779,345L70.954,318.651L84.128,345L79.953,345L70.954,327.003L61.955,345ZM88.304,345L84.128,345L97.303,318.651L110.477,345L106.301,345L97.303,327.003L88.304,345ZM114.653,345L110.477,345L123.651,318.651L136.826,345L132.65,345L123.651,327.003L114.653,345ZM141.001,345L136.826,345L147.5,323.652L150,325.438L152.5,323.652L163.174,345L158.999,345L150,326.987L141.001,345ZM167.35,345L163.174,345L176.349,318.651L189.523,345L185.347,345L176.349,327.003L167.35,345ZM193.699,345L189.523,345L202.697,318.651L215.872,345L211.696,345L202.697,327.003L193.699,345ZM220.047,345L215.872,345L229.046,318.651L242.221,345L238.045,345L229.046,327.003L220.047,345ZM246.396,345L242.221,345L255.395,318.651L268.41,344.681C267.09,344.858 265.748,344.963 264.39,344.992L255.395,327.003L246.396,345ZM35.61,344.992C34.251,344.963 32.91,344.858 31.59,344.681L44.605,318.651L57.779,345L53.604,345L44.605,327.003L35.61,344.992ZM13.393,336.73C12.392,335.908 11.435,335.034 10.526,334.112L18.256,318.651L31.248,344.634C29.656,344.405 28.096,344.071 26.575,343.64L18.256,327.003L13.393,336.73ZM273.425,343.64C271.904,344.071 270.344,344.405 268.752,344.634L281.744,318.651L289.474,334.112C288.565,335.034 287.608,335.908 286.607,336.729L281.744,327.003L273.425,343.64Z" style="fill:#ffbb4a;"/>
        <path d="M181.137,303.197L189.458,319.839L198.207,302.34L207.057,302.34L215.807,319.839L224.556,302.34L233.406,302.34L242.155,319.839L250.905,302.34L259.755,302.34L268.504,319.839L277.253,302.34L286.104,302.34L292.901,315.843C293.33,314.94 298.837,302.34 298.837,302.34L299.999,302.34C299.947,310.471 297.169,318.006 292.542,324.067L283.527,306.037L279.83,306.037L268.504,328.689L257.178,306.037L253.481,306.037L242.155,328.689L230.829,306.037L227.133,306.037L215.807,328.689L204.481,306.037L200.784,306.037L189.458,328.689L178.132,306.037L177.161,306.037L181.137,303.197ZM163.109,328.689L158.462,319.394L161.722,317.065L163.109,319.839L166.037,313.983L172.921,309.066L163.109,328.689ZM126.876,308.921L133.76,313.838L136.76,319.839L138.182,316.996L141.442,319.325L136.76,328.689L126.876,308.921ZM122.839,306.037L121.738,306.037L110.412,328.689L99.086,306.037L95.389,306.037L84.063,328.689L72.737,306.037L69.04,306.037L57.714,328.689L46.388,306.037L42.692,306.037L31.366,328.689L20.04,306.037L16.343,306.037L7.379,323.964C2.799,317.92 0.053,310.425 0.001,302.34L1.163,302.34C1.163,302.34 6.632,314.848 7.035,315.709L7.035,315.708L13.766,302.34L22.616,302.34L31.366,319.839L40.115,302.34L48.965,302.34L57.714,319.839L66.464,302.34L75.314,302.34L84.063,319.839L92.812,302.34L101.662,302.34L110.412,319.839L118.767,303.128L122.839,306.037Z" style="fill:#55b46c;"/>
        <g>
            <path d="M270.182,297.78L150,326.309L150,325.438L194.151,303.505L262.5,298.381L262.515,298.38L263.63,298.38C265.865,298.38 268.055,298.174 270.182,297.78Z" style="fill:#661700;fill-opacity:0.5;"/>
            <g transform="matrix(-0.809186,0,0,0.927936,311.723,17.7985)">
                <path d="M93.18,335.31C91.26,335.31 89.68,333.73 89.68,331.81L89.68,307.3C89.68,305.38 91.26,303.8 93.18,303.8C95.1,303.8 96.68,305.38 96.68,307.3L96.68,331.81C96.68,333.73 95.1,335.31 93.18,335.31Z" style="fill:#d9e5f4;fill-rule:nonzero;"/>
            </g>
            <g transform="matrix(-0.809186,0,0,0.809186,311.723,57.6166)">
                <path d="M96.68,325.52C96.278,325.302 95.827,325.189 95.37,325.19L91,325.19C90.543,325.191 90.093,325.305 89.69,325.52L89.69,331.81C89.69,333.73 91.27,335.31 93.19,335.31C95.11,335.31 96.69,333.73 96.69,331.81L96.68,325.52Z" style="fill:#9cc6e9;fill-rule:nonzero;"/>
            </g>
            <path d="M232.005,328.945L232.228,325.077C232.333,323.883 233.344,322.956 234.542,322.957L238.087,322.957C239.286,322.956 240.301,323.882 240.409,325.077L240.632,328.945L239.874,331.382L239.116,328.945L238.236,331.772L237.357,328.945L236.36,332.149L236.326,332.149L235.329,328.945L234.455,331.753L233.582,328.945L232.793,331.48L232.005,328.945Z" style="fill:#d9e5f4;fill-rule:nonzero;"/>
            <path d="M150.763,324.882L187.203,298.009L254.516,298.009L150.763,324.882Z" style="fill:#ffbba8;"/>
            <path d="M150,325.438L155.816,320.885L248.694,298.009C253.555,297.641 258.124,297.827 262.5,298.38L150,325.438Z" style="fill:#9e2300;"/>
        </g>
        <g transform="matrix(-1,0,0,1,300,0)">
            <path d="M270.182,297.78L150,326.309L150,325.438L194.151,303.505L262.5,298.381L262.515,298.38L263.63,298.38C265.865,298.38 268.055,298.174 270.182,297.78Z" style="fill:#661700;fill-opacity:0.5;"/>
            <g transform="matrix(-0.809186,0,0,0.927936,311.723,17.7985)">
                <path d="M93.18,335.31C91.26,335.31 89.68,333.73 89.68,331.81L89.68,307.3C89.68,305.38 91.26,303.8 93.18,303.8C95.1,303.8 96.68,305.38 96.68,307.3L96.68,331.81C96.68,333.73 95.1,335.31 93.18,335.31Z" style="fill:#d9e5f4;fill-rule:nonzero;"/>
            </g>
            <g transform="matrix(-0.809186,0,0,0.809186,311.723,57.6166)">
                <path d="M96.68,325.52C96.278,325.302 95.827,325.189 95.37,325.19L91,325.19C90.543,325.191 90.093,325.305 89.69,325.52L89.69,331.81C89.69,333.73 91.27,335.31 93.19,335.31C95.11,335.31 96.69,333.73 96.69,331.81L96.68,325.52Z" style="fill:#9cc6e9;fill-rule:nonzero;"/>
            </g>
            <path d="M232.005,328.945L232.228,325.077C232.333,323.883 233.344,322.956 234.542,322.957L238.087,322.957C239.286,322.956 240.301,323.882 240.409,325.077L240.632,328.945L239.874,331.382L239.116,328.945L238.236,331.772L237.357,328.945L236.36,332.149L236.326,332.149L235.329,328.945L234.455,331.753L233.582,328.945L232.793,331.48L232.005,328.945Z" style="fill:#d9e5f4;fill-rule:nonzero;"/>
            <path d="M150.763,324.882L187.203,298.009L254.516,298.009L150.763,324.882Z" style="fill:#ffbba8;"/>
            <path d="M150,325.438L155.816,320.885L248.694,298.009C253.555,297.641 258.124,297.827 262.5,298.38L150,325.438Z" style="fill:#9e2300;"/>
        </g>
    </g>
</svg>
