<?xml version="1.0" encoding="UTF-8" standalone="no"?>
<!DOCTYPE svg PUBLIC "-//W3C//DTD SVG 1.1//EN" "http://www.w3.org/Graphics/SVG/1.1/DTD/svg11.dtd">
<svg width="100%" height="100%" viewBox="0 0 300 345" version="1.1" xmlns="http://www.w3.org/2000/svg" xmlns:xlink="http://www.w3.org/1999/xlink" xml:space="preserve" xmlns:serif="http://www.serif.com/" style="fill-rule:evenodd;clip-rule:evenodd;stroke-linejoin:round;stroke-miterlimit:2;">
    <g id="avatar_clothing_34">
        <path d="M296.357,324.401L296.347,324.42L296.358,324.398L296.357,324.401C290.438,336.547 277.939,345 263.62,345L36.38,345C24.007,345 12.993,338.688 6.409,329.135L5.95,328.453L5.195,327.253L4.545,326.131L3.781,324.679L3.778,324.674L3.234,323.531L3.232,323.527L2.979,322.958C1.618,319.825 0.687,316.469 0.262,312.967L0.249,312.854C0.09,311.515 0.006,310.154 0,308.777C0,308.724 -0,308.672 -0,308.62L-0,296.217L40.914,298.961L46.678,298.38L119.733,298.38C124.489,302.726 136.254,305.805 150,305.805C163.746,305.805 175.511,302.726 180.267,298.38L253.322,298.38L258.862,298.7L300,297.725L300,308.62L299.987,309.594L299.962,310.283L299.925,310.954L299.874,311.637L299.809,312.331L299.731,313.02L299.685,313.38L299.57,314.177L299.458,314.851L299.335,315.518L299.202,316.166L299.058,316.811C298.833,317.772 298.57,318.719 298.269,319.651L297.956,320.579C297.609,321.563 297.22,322.529 296.792,323.474L296.444,324.22C296.415,324.28 296.386,324.34 296.357,324.401ZM294.187,328.243L294.169,328.271L294.187,328.243ZM5.299,327.426L5.313,327.448L5.299,327.426ZM294.739,327.363L294.709,327.412L294.739,327.363ZM5.078,327.058L5.083,327.067L5.078,327.058ZM4.985,326.901L5.006,326.936L4.985,326.901ZM4.918,326.786L4.928,326.804L4.899,326.754L4.918,326.786ZM4.742,326.481L4.758,326.51L4.742,326.481ZM4.663,326.343L4.671,326.356L4.663,326.343ZM295.487,326.074L295.458,326.126L295.487,326.074ZM295.79,325.514L295.768,325.555L295.79,325.514ZM4.1,325.305L4.163,325.426L4.095,325.296L4.1,325.305ZM4.035,325.18L4.071,325.249L4.025,325.161L4.035,325.18ZM295.978,325.156L295.956,325.198L295.978,325.156ZM3.97,325.055L3.997,325.107L3.955,325.026L3.97,325.055ZM3.906,324.929L3.926,324.969L3.886,324.889L3.906,324.929ZM3.843,324.803L3.857,324.832L3.817,324.751L3.843,324.803ZM3.788,324.695L3.746,324.609L3.78,324.677L3.788,324.695ZM3.717,324.551L3.721,324.559L3.661,324.436L3.717,324.551ZM3.593,324.297L3.642,324.397L3.589,324.289L3.593,324.297ZM3.532,324.17L3.562,324.233L3.523,324.152L3.532,324.17ZM3.471,324.043L3.494,324.091L3.458,324.014L3.471,324.043ZM3.411,323.915L3.428,323.951L3.393,323.876L3.411,323.915ZM3.351,323.787L3.363,323.812L3.328,323.738L3.351,323.787ZM296.699,323.678L296.721,323.63L296.699,323.678ZM3.292,323.659L3.299,323.674L3.263,323.596L3.292,323.659ZM3.189,323.432L3.236,323.535L3.233,323.53L3.189,323.432Z" style="fill:#000d29;fill-rule:nonzero;"/>
        <path d="M21.764,308.414C24.289,310.015 25.014,312.096 23.634,314.739L11.438,335.005C9.564,333.232 7.876,331.264 6.409,329.135L5.95,328.453L5.195,327.253L4.545,326.131L3.781,324.679L3.778,324.674L3.234,323.531L3.232,323.527L2.979,322.958C1.618,319.825 0.687,316.469 0.262,312.967L0.249,312.854C0.09,311.515 0.006,310.154 0,308.777C0,308.724 -0,308.672 -0,308.62L-0,294.092L21.764,308.414ZM5.299,327.426L5.313,327.448L5.299,327.426ZM5.078,327.058L5.083,327.067L5.078,327.058ZM4.985,326.901L5.006,326.936L4.985,326.901ZM4.918,326.786L4.928,326.804L4.899,326.754L4.918,326.786ZM4.742,326.481L4.758,326.51L4.742,326.481ZM4.663,326.343L4.671,326.356L4.663,326.343ZM4.1,325.305L4.163,325.426L4.095,325.296L4.1,325.305ZM4.035,325.18L4.071,325.249L4.025,325.161L4.035,325.18ZM3.97,325.055L3.997,325.107L3.955,325.026L3.97,325.055ZM3.906,324.929L3.926,324.969L3.886,324.889L3.906,324.929ZM3.843,324.803L3.857,324.832L3.817,324.751L3.843,324.803ZM3.788,324.695L3.746,324.609L3.78,324.677L3.788,324.695ZM3.717,324.551L3.721,324.559L3.661,324.436L3.717,324.551ZM3.593,324.297L3.642,324.397L3.589,324.289L3.593,324.297ZM3.532,324.17L3.562,324.233L3.523,324.152L3.532,324.17ZM3.471,324.043L3.494,324.091L3.458,324.014L3.471,324.043ZM3.411,323.915L3.428,323.951L3.393,323.876L3.411,323.915ZM3.351,323.787L3.363,323.812L3.328,323.738L3.351,323.787ZM3.292,323.659L3.299,323.674L3.263,323.596L3.292,323.659ZM3.189,323.432L3.236,323.535L3.233,323.53L3.189,323.432Z" style="fill:#2a384d;fill-rule:nonzero;"/>
        <g transform="matrix(-1,0,0,1,300,0)">
            <path d="M21.764,308.414C24.289,310.015 25.014,312.096 23.634,314.739L11.438,335.005C9.564,333.232 7.876,331.264 6.409,329.135L5.95,328.453L5.195,327.253L4.545,326.131L3.781,324.679L3.778,324.674L3.234,323.531L3.232,323.527L2.979,322.958C1.618,319.825 0.687,316.469 0.262,312.967L0.249,312.854C0.09,311.515 0.006,310.154 0,308.777C0,308.724 -0,308.672 -0,308.62L-0,294.092L21.764,308.414ZM5.299,327.426L5.313,327.448L5.299,327.426ZM5.078,327.058L5.083,327.067L5.078,327.058ZM4.985,326.901L5.006,326.936L4.985,326.901ZM4.918,326.786L4.928,326.804L4.899,326.754L4.918,326.786ZM4.742,326.481L4.758,326.51L4.742,326.481ZM4.663,326.343L4.671,326.356L4.663,326.343ZM4.1,325.305L4.163,325.426L4.095,325.296L4.1,325.305ZM4.035,325.18L4.071,325.249L4.025,325.161L4.035,325.18ZM3.97,325.055L3.997,325.107L3.955,325.026L3.97,325.055ZM3.906,324.929L3.926,324.969L3.886,324.889L3.906,324.929ZM3.843,324.803L3.857,324.832L3.817,324.751L3.843,324.803ZM3.788,324.695L3.746,324.609L3.78,324.677L3.788,324.695ZM3.717,324.551L3.721,324.559L3.661,324.436L3.717,324.551ZM3.593,324.297L3.642,324.397L3.589,324.289L3.593,324.297ZM3.532,324.17L3.562,324.233L3.523,324.152L3.532,324.17ZM3.471,324.043L3.494,324.091L3.458,324.014L3.471,324.043ZM3.411,323.915L3.428,323.951L3.393,323.876L3.411,323.915ZM3.351,323.787L3.363,323.812L3.328,323.738L3.351,323.787ZM3.292,323.659L3.299,323.674L3.263,323.596L3.292,323.659ZM3.189,323.432L3.236,323.535L3.233,323.53L3.189,323.432Z" style="fill:#2a384d;fill-rule:nonzero;"/>
        </g>
        <path d="M0.006,262.622L0.026,263.368C0.036,263.655 0.051,263.942 0.068,264.227L0.085,264.48L0.102,264.722L0.118,264.926L0.136,265.138L0.237,266.148L0.224,266.032L0.236,266.134L0.251,266.263L0.349,267.015L0.376,267.206L0.407,267.415L0.48,267.874L0.605,268.592L0.634,268.742L0.678,268.968L0.833,269.717C0.876,269.915 0.921,270.112 0.968,270.308L1.023,270.536L1.069,270.723L1.071,270.732L1.13,270.965L1.133,270.975L1.194,271.209L1.196,271.215L1.237,271.37L1.365,271.83L1.505,272.313C1.778,273.224 2.085,274.12 2.426,275.001L2.521,275.244L2.849,276.042C3.016,276.437 3.19,276.828 3.37,277.215L3.384,277.246C3.499,277.491 3.616,277.734 3.735,277.976L3.775,278.056L3.735,277.976C3.898,278.305 4.066,278.632 4.238,278.954L4.467,279.378L4.687,279.772L4.808,279.984C5.086,280.468 5.376,280.946 5.676,281.417C5.676,281.417 5.814,281.633 5.814,281.633L5.935,281.818C6.294,282.365 6.667,282.901 7.052,283.426L7.176,283.594L7.443,283.948L7.636,284.199L7.835,284.454L8.386,285.134L8.524,285.299C15.136,293.178 25.001,298.255 35.965,298.378L36.37,298.38L46.678,298.38L41.662,301.012L28.227,308.56C25.972,309.765 23.773,309.76 21.623,308.674L0,298.406L-0,298.406L0,262L0.006,262.622ZM8.524,285.299C8.524,285.299 8.519,285.294 8.519,285.294L8.524,285.299ZM8.379,285.126L8.387,285.135L8.379,285.126ZM8.24,284.957L8.25,284.969L8.24,284.957ZM7.835,284.454L7.846,284.468L7.83,284.447L7.835,284.454ZM7.443,283.948L7.45,283.957L7.428,283.928L7.443,283.948ZM7.296,283.754L7.32,283.785L7.296,283.754ZM7.176,283.594L7.19,283.613L7.165,283.579L7.176,283.594ZM7.052,283.426L7.062,283.439L7.035,283.403L7.052,283.426ZM6.906,283.226L6.934,283.264L6.906,283.226ZM6.652,282.871L6.682,282.913L6.652,282.871ZM5.935,281.818L5.948,281.838L5.913,281.785L5.935,281.818ZM5.814,281.633L5.83,281.656L5.794,281.601L5.814,281.633ZM5.676,281.417L5.712,281.473L5.676,281.417ZM4.808,279.984C4.808,279.984 4.768,279.916 4.768,279.916L4.808,279.984ZM4.687,279.772L4.699,279.794L4.66,279.725L4.687,279.772ZM4.467,279.378L4.486,279.413L4.447,279.341L4.467,279.378ZM4.256,278.989L4.277,279.029L4.238,278.954L4.256,278.989ZM3.933,278.369L3.973,278.447L3.933,278.369ZM3.37,277.215L3.378,277.232L3.393,277.266L3.354,277.182L3.37,277.215ZM3.171,276.781L3.21,276.866L3.171,276.781ZM2.992,276.377L3.03,276.465L2.992,276.377ZM2.849,276.042L2.856,276.06L2.818,275.971L2.849,276.042ZM2.566,275.357L2.603,275.449L2.566,275.357ZM2.506,275.207L2.521,275.244L2.485,275.152L2.506,275.207ZM2.326,274.738L2.361,274.832L2.326,274.738ZM2.248,274.531L2.283,274.626L2.248,274.531ZM1.496,272.282L1.505,272.313L1.475,272.211L1.496,272.282ZM1.433,272.069L1.442,272.1L1.412,271.997L1.433,272.069ZM1.365,271.83L1.38,271.886L1.351,271.782L1.365,271.83ZM1.237,271.37L1.26,271.456L1.232,271.351L1.237,271.37ZM1.202,271.24L1.175,271.135L1.202,271.24ZM1.118,270.919L1.145,271.024L1.118,270.919ZM1.064,270.701L1.09,270.808L1.064,270.701ZM1.023,270.536L1.036,270.59L1.01,270.484L1.023,270.536ZM0.968,270.308L0.983,270.373L0.958,270.266L0.968,270.308ZM0.827,269.692L0.833,269.717L0.809,269.608L0.827,269.692ZM0.678,268.968L0.695,269.056L0.673,268.946L0.678,268.968ZM0.634,268.742L0.651,268.835L0.63,268.725L0.634,268.742ZM0.565,268.371L0.569,268.392L0.549,268.28L0.565,268.371ZM0.48,267.874L0.491,267.947L0.473,267.834L0.48,267.874ZM0.407,267.415L0.419,267.5L0.402,267.386L0.407,267.415ZM0.376,267.206L0.386,267.275L0.369,267.162L0.376,267.206ZM0.349,267.015L0.353,267.051L0.337,266.937L0.349,267.015ZM0.251,266.263L0.264,266.374L0.251,266.259L0.251,266.263ZM0.211,265.908L0.212,265.921L0.2,265.805L0.211,265.908ZM0.136,265.138L0.144,265.239L0.134,265.121L0.136,265.138ZM0.118,264.926L0.125,265.011L0.115,264.892L0.118,264.926ZM0.097,264.663L0.106,264.782L0.097,264.663ZM0.085,264.48L0.089,264.553L0.081,264.433L0.085,264.48ZM0.068,264.227L0.074,264.324L0.067,264.203L0.068,264.227ZM0.026,263.368L0.027,263.403L0.022,263.277L0.026,263.368ZM0.006,262.622L0.007,262.708L0.004,262.569L0.006,262.622Z" style="fill:#d9d9d9;fill-rule:nonzero;"/>
        <g transform="matrix(-1,0,0,1,300,0)">
            <path d="M0.006,262.622L0.026,263.368C0.036,263.655 0.051,263.942 0.068,264.227L0.085,264.48L0.102,264.722L0.118,264.926L0.136,265.138L0.237,266.148L0.224,266.032L0.236,266.134L0.251,266.263L0.349,267.015L0.376,267.206L0.407,267.415L0.48,267.874L0.605,268.592L0.634,268.742L0.678,268.968L0.833,269.717C0.876,269.915 0.921,270.112 0.968,270.308L1.023,270.536L1.069,270.723L1.071,270.732L1.13,270.965L1.133,270.975L1.194,271.209L1.196,271.215L1.237,271.37L1.365,271.83L1.505,272.313C1.778,273.224 2.085,274.12 2.426,275.001L2.521,275.244L2.849,276.042C3.016,276.437 3.19,276.828 3.37,277.215L3.384,277.246C3.499,277.491 3.616,277.734 3.735,277.976L3.775,278.056L3.735,277.976C3.898,278.305 4.066,278.632 4.238,278.954L4.467,279.378L4.687,279.772L4.808,279.984C5.086,280.468 5.376,280.946 5.676,281.417C5.676,281.417 5.814,281.633 5.814,281.633L5.935,281.818C6.294,282.365 6.667,282.901 7.052,283.426L7.176,283.594L7.443,283.948L7.636,284.199L7.835,284.454L8.386,285.134L8.524,285.299C15.136,293.178 25.001,298.255 35.965,298.378L36.37,298.38L46.678,298.38L41.662,301.012L28.227,308.56C25.972,309.765 23.773,309.76 21.623,308.674L0,298.406L-0,298.406L0,262L0.006,262.622ZM8.524,285.299C8.524,285.299 8.519,285.294 8.519,285.294L8.524,285.299ZM8.379,285.126L8.387,285.135L8.379,285.126ZM8.24,284.957L8.25,284.969L8.24,284.957ZM7.835,284.454L7.846,284.468L7.83,284.447L7.835,284.454ZM7.443,283.948L7.45,283.957L7.428,283.928L7.443,283.948ZM7.296,283.754L7.32,283.785L7.296,283.754ZM7.176,283.594L7.19,283.613L7.165,283.579L7.176,283.594ZM7.052,283.426L7.062,283.439L7.035,283.403L7.052,283.426ZM6.906,283.226L6.934,283.264L6.906,283.226ZM6.652,282.871L6.682,282.913L6.652,282.871ZM5.935,281.818L5.948,281.838L5.913,281.785L5.935,281.818ZM5.814,281.633L5.83,281.656L5.794,281.601L5.814,281.633ZM5.676,281.417L5.712,281.473L5.676,281.417ZM4.808,279.984C4.808,279.984 4.768,279.916 4.768,279.916L4.808,279.984ZM4.687,279.772L4.699,279.794L4.66,279.725L4.687,279.772ZM4.467,279.378L4.486,279.413L4.447,279.341L4.467,279.378ZM4.256,278.989L4.277,279.029L4.238,278.954L4.256,278.989ZM3.933,278.369L3.973,278.447L3.933,278.369ZM3.37,277.215L3.378,277.232L3.393,277.266L3.354,277.182L3.37,277.215ZM3.171,276.781L3.21,276.866L3.171,276.781ZM2.992,276.377L3.03,276.465L2.992,276.377ZM2.849,276.042L2.856,276.06L2.818,275.971L2.849,276.042ZM2.566,275.357L2.603,275.449L2.566,275.357ZM2.506,275.207L2.521,275.244L2.485,275.152L2.506,275.207ZM2.326,274.738L2.361,274.832L2.326,274.738ZM2.248,274.531L2.283,274.626L2.248,274.531ZM1.496,272.282L1.505,272.313L1.475,272.211L1.496,272.282ZM1.433,272.069L1.442,272.1L1.412,271.997L1.433,272.069ZM1.365,271.83L1.38,271.886L1.351,271.782L1.365,271.83ZM1.237,271.37L1.26,271.456L1.232,271.351L1.237,271.37ZM1.202,271.24L1.175,271.135L1.202,271.24ZM1.118,270.919L1.145,271.024L1.118,270.919ZM1.064,270.701L1.09,270.808L1.064,270.701ZM1.023,270.536L1.036,270.59L1.01,270.484L1.023,270.536ZM0.968,270.308L0.983,270.373L0.958,270.266L0.968,270.308ZM0.827,269.692L0.833,269.717L0.809,269.608L0.827,269.692ZM0.678,268.968L0.695,269.056L0.673,268.946L0.678,268.968ZM0.634,268.742L0.651,268.835L0.63,268.725L0.634,268.742ZM0.565,268.371L0.569,268.392L0.549,268.28L0.565,268.371ZM0.48,267.874L0.491,267.947L0.473,267.834L0.48,267.874ZM0.407,267.415L0.419,267.5L0.402,267.386L0.407,267.415ZM0.376,267.206L0.386,267.275L0.369,267.162L0.376,267.206ZM0.349,267.015L0.353,267.051L0.337,266.937L0.349,267.015ZM0.251,266.263L0.264,266.374L0.251,266.259L0.251,266.263ZM0.211,265.908L0.212,265.921L0.2,265.805L0.211,265.908ZM0.136,265.138L0.144,265.239L0.134,265.121L0.136,265.138ZM0.118,264.926L0.125,265.011L0.115,264.892L0.118,264.926ZM0.097,264.663L0.106,264.782L0.097,264.663ZM0.085,264.48L0.089,264.553L0.081,264.433L0.085,264.48ZM0.068,264.227L0.074,264.324L0.067,264.203L0.068,264.227ZM0.026,263.368L0.027,263.403L0.022,263.277L0.026,263.368ZM0.006,262.622L0.007,262.708L0.004,262.569L0.006,262.622Z" style="fill:#d9d9d9;fill-rule:nonzero;"/>
        </g>
        <path d="M32.567,344.799C31.316,344.666 30.084,344.468 28.873,344.21L41.382,325.757C46.267,316.645 49.264,313.287 58.972,313.287L150,308.62L242.66,313.287C252.368,313.287 255.364,316.645 260.25,325.757L272.535,343.88C269.679,344.611 266.691,345 263.62,345L36.38,345L36.163,344.999L36.123,344.999L35.915,344.997L35.875,344.996L35.658,344.993L35.443,344.988L35.402,344.987L35.194,344.981L35.156,344.979L34.94,344.971L34.724,344.962L34.686,344.96L34.477,344.95L34.443,344.948L34.226,344.936L34.008,344.922L33.974,344.92L33.761,344.905L33.735,344.903L33.515,344.887L33.293,344.868L33.268,344.866L33.048,344.846L33.034,344.845L32.807,344.823L32.58,344.8L32.567,344.799Z" style="fill:#2a384d;"/>
        <g>
            <g transform="matrix(1.04519,0,0,1,-5.68075,0)">
                <rect x="142.548" y="312.44" width="14.193" height="32.56"/>
            </g>
            <g transform="matrix(0.663308,0,0,0.780125,51.5554,77.0748)">
                <path d="M156.741,313.526C156.741,312.926 156.168,312.44 155.463,312.44L143.825,312.44C143.12,312.44 142.548,312.926 142.548,313.526L142.548,343.914C142.548,344.513 143.12,345 143.825,345L155.463,345C156.168,345 156.741,344.513 156.741,343.914L156.741,313.526Z" style="fill:#828282;"/>
            </g>
            <g transform="matrix(1,0,0,1,-1.21793,1.21793)">
                <g transform="matrix(0.965926,0.258819,-0.258819,0.965926,155.734,-33.4552)">
                    <g transform="matrix(0.967365,-0.253389,0.253389,0.967365,-98.2279,67.1838)">
                        <path d="M111.522,314.314L111.522,314.212C111.522,313.727 111.916,313.333 112.402,313.333L114.161,313.333C114.647,313.333 115.041,313.727 115.041,314.212L115.041,316.647C115.041,317.133 114.647,317.527 114.161,317.527L112.402,317.527C111.916,317.527 111.522,317.133 111.522,316.647L111.522,316.545L111.071,316.545C110.779,316.848 110.369,317.036 109.916,317.036C109.029,317.036 108.309,316.316 108.309,315.43C108.309,314.543 109.029,313.823 109.916,313.823C110.369,313.823 110.779,314.011 111.071,314.314L111.522,314.314Z" style="fill:#747474;"/>
                    </g>
                    <g transform="matrix(0.967365,-0.253389,0.253389,0.967365,-98.3232,66.8198)">
                        <path d="M111.522,314.314L111.522,314.212C111.522,313.727 111.916,313.333 112.402,313.333L114.161,313.333C114.647,313.333 115.041,313.727 115.041,314.212L115.041,316.647C115.041,317.133 114.647,317.527 114.161,317.527L112.402,317.527C111.916,317.527 111.522,317.133 111.522,316.647L111.522,316.545L111.071,316.545C110.779,316.848 110.369,317.036 109.916,317.036C109.029,317.036 108.309,316.316 108.309,315.43C108.309,314.543 109.029,313.823 109.916,313.823C110.369,313.823 110.779,314.011 111.071,314.314L111.522,314.314Z" style="fill:#929292;"/>
                    </g>
                </g>
                <g transform="matrix(-0.965926,0.258819,0.258819,0.965926,148.334,-30.4159)">
                    <g transform="matrix(0.967365,-0.253389,0.253389,0.967365,-98.2279,67.1838)">
                        <path d="M111.522,314.314L111.522,314.212C111.522,313.727 111.916,313.333 112.402,313.333L114.161,313.333C114.647,313.333 115.041,313.727 115.041,314.212L115.041,316.647C115.041,317.133 114.647,317.527 114.161,317.527L112.402,317.527C111.916,317.527 111.522,317.133 111.522,316.647L111.522,316.545L111.071,316.545C110.779,316.848 110.369,317.036 109.916,317.036C109.029,317.036 108.309,316.316 108.309,315.43C108.309,314.543 109.029,313.823 109.916,313.823C110.369,313.823 110.779,314.011 111.071,314.314L111.522,314.314Z" style="fill:#747474;"/>
                    </g>
                    <g transform="matrix(0.967365,-0.253389,0.253389,0.967365,-98.3232,66.8198)">
                        <path d="M111.522,314.314L111.522,314.212C111.522,313.727 111.916,313.333 112.402,313.333L114.161,313.333C114.647,313.333 115.041,313.727 115.041,314.212L115.041,316.647C115.041,317.133 114.647,317.527 114.161,317.527L112.402,317.527C111.916,317.527 111.522,317.133 111.522,316.647L111.522,316.545L111.071,316.545C110.779,316.848 110.369,317.036 109.916,317.036C109.029,317.036 108.309,316.316 108.309,315.43C108.309,314.543 109.029,313.823 109.916,313.823C110.369,313.823 110.779,314.011 111.071,314.314L111.522,314.314Z" style="fill:#929292;"/>
                    </g>
                </g>
                <g transform="matrix(0.965926,0.258819,-0.258819,0.965926,155.734,-27.3779)">
                    <g transform="matrix(0.967365,-0.253389,0.253389,0.967365,-98.2279,67.1838)">
                        <path d="M111.522,314.314L111.522,314.212C111.522,313.727 111.916,313.333 112.402,313.333L114.161,313.333C114.647,313.333 115.041,313.727 115.041,314.212L115.041,316.647C115.041,317.133 114.647,317.527 114.161,317.527L112.402,317.527C111.916,317.527 111.522,317.133 111.522,316.647L111.522,316.545L111.071,316.545C110.779,316.848 110.369,317.036 109.916,317.036C109.029,317.036 108.309,316.316 108.309,315.43C108.309,314.543 109.029,313.823 109.916,313.823C110.369,313.823 110.779,314.011 111.071,314.314L111.522,314.314Z" style="fill:#747474;"/>
                    </g>
                    <g transform="matrix(0.967365,-0.253389,0.253389,0.967365,-98.3232,66.8198)">
                        <path d="M111.522,314.314L111.522,314.212C111.522,313.727 111.916,313.333 112.402,313.333L114.161,313.333C114.647,313.333 115.041,313.727 115.041,314.212L115.041,316.647C115.041,317.133 114.647,317.527 114.161,317.527L112.402,317.527C111.916,317.527 111.522,317.133 111.522,316.647L111.522,316.545L111.071,316.545C110.779,316.848 110.369,317.036 109.916,317.036C109.029,317.036 108.309,316.316 108.309,315.43C108.309,314.543 109.029,313.823 109.916,313.823C110.369,313.823 110.779,314.011 111.071,314.314L111.522,314.314Z" style="fill:#929292;"/>
                    </g>
                </g>
                <g transform="matrix(-0.965926,0.258819,0.258819,0.965926,148.334,-24.3386)">
                    <g transform="matrix(0.967365,-0.253389,0.253389,0.967365,-98.2279,67.1838)">
                        <path d="M111.522,314.314L111.522,314.212C111.522,313.727 111.916,313.333 112.402,313.333L114.161,313.333C114.647,313.333 115.041,313.727 115.041,314.212L115.041,316.647C115.041,317.133 114.647,317.527 114.161,317.527L112.402,317.527C111.916,317.527 111.522,317.133 111.522,316.647L111.522,316.545L111.071,316.545C110.779,316.848 110.369,317.036 109.916,317.036C109.029,317.036 108.309,316.316 108.309,315.43C108.309,314.543 109.029,313.823 109.916,313.823C110.369,313.823 110.779,314.011 111.071,314.314L111.522,314.314Z" style="fill:#747474;"/>
                    </g>
                    <g transform="matrix(0.967365,-0.253389,0.253389,0.967365,-98.3232,66.8198)">
                        <path d="M111.522,314.314L111.522,314.212C111.522,313.727 111.916,313.333 112.402,313.333L114.161,313.333C114.647,313.333 115.041,313.727 115.041,314.212L115.041,316.647C115.041,317.133 114.647,317.527 114.161,317.527L112.402,317.527C111.916,317.527 111.522,317.133 111.522,316.647L111.522,316.545L111.071,316.545C110.779,316.848 110.369,317.036 109.916,317.036C109.029,317.036 108.309,316.316 108.309,315.43C108.309,314.543 109.029,313.823 109.916,313.823C110.369,313.823 110.779,314.011 111.071,314.314L111.522,314.314Z" style="fill:#929292;"/>
                    </g>
                </g>
                <g transform="matrix(0.965926,0.258819,-0.258819,0.965926,155.734,-21.2856)">
                    <g transform="matrix(0.967365,-0.253389,0.253389,0.967365,-98.2279,67.1838)">
                        <path d="M111.522,314.314L111.522,314.212C111.522,313.727 111.916,313.333 112.402,313.333L114.161,313.333C114.647,313.333 115.041,313.727 115.041,314.212L115.041,316.647C115.041,317.133 114.647,317.527 114.161,317.527L112.402,317.527C111.916,317.527 111.522,317.133 111.522,316.647L111.522,316.545L111.071,316.545C110.779,316.848 110.369,317.036 109.916,317.036C109.029,317.036 108.309,316.316 108.309,315.43C108.309,314.543 109.029,313.823 109.916,313.823C110.369,313.823 110.779,314.011 111.071,314.314L111.522,314.314Z" style="fill:#747474;"/>
                    </g>
                    <g transform="matrix(0.967365,-0.253389,0.253389,0.967365,-98.3232,66.8198)">
                        <path d="M111.522,314.314L111.522,314.212C111.522,313.727 111.916,313.333 112.402,313.333L114.161,313.333C114.647,313.333 115.041,313.727 115.041,314.212L115.041,316.647C115.041,317.133 114.647,317.527 114.161,317.527L112.402,317.527C111.916,317.527 111.522,317.133 111.522,316.647L111.522,316.545L111.071,316.545C110.779,316.848 110.369,317.036 109.916,317.036C109.029,317.036 108.309,316.316 108.309,315.43C108.309,314.543 109.029,313.823 109.916,313.823C110.369,313.823 110.779,314.011 111.071,314.314L111.522,314.314Z" style="fill:#929292;"/>
                    </g>
                </g>
                <g transform="matrix(-0.965926,0.258819,0.258819,0.965926,148.334,-18.2462)">
                    <g transform="matrix(0.967365,-0.253389,0.253389,0.967365,-98.2279,67.1838)">
                        <path d="M111.522,314.314L111.522,314.212C111.522,313.727 111.916,313.333 112.402,313.333L114.161,313.333C114.647,313.333 115.041,313.727 115.041,314.212L115.041,316.647C115.041,317.133 114.647,317.527 114.161,317.527L112.402,317.527C111.916,317.527 111.522,317.133 111.522,316.647L111.522,316.545L111.071,316.545C110.779,316.848 110.369,317.036 109.916,317.036C109.029,317.036 108.309,316.316 108.309,315.43C108.309,314.543 109.029,313.823 109.916,313.823C110.369,313.823 110.779,314.011 111.071,314.314L111.522,314.314Z" style="fill:#747474;"/>
                    </g>
                    <g transform="matrix(0.967365,-0.253389,0.253389,0.967365,-98.3232,66.8198)">
                        <path d="M111.522,314.314L111.522,314.212C111.522,313.727 111.916,313.333 112.402,313.333L114.161,313.333C114.647,313.333 115.041,313.727 115.041,314.212L115.041,316.647C115.041,317.133 114.647,317.527 114.161,317.527L112.402,317.527C111.916,317.527 111.522,317.133 111.522,316.647L111.522,316.545L111.071,316.545C110.779,316.848 110.369,317.036 109.916,317.036C109.029,317.036 108.309,316.316 108.309,315.43C108.309,314.543 109.029,313.823 109.916,313.823C110.369,313.823 110.779,314.011 111.071,314.314L111.522,314.314Z" style="fill:#929292;"/>
                    </g>
                </g>
                <g transform="matrix(0.965926,0.258819,-0.258819,0.965926,155.734,-15.1963)">
                    <g transform="matrix(0.967365,-0.253389,0.253389,0.967365,-98.2279,67.1838)">
                        <path d="M111.522,314.314L111.522,314.212C111.522,313.727 111.916,313.333 112.402,313.333L114.161,313.333C114.647,313.333 115.041,313.727 115.041,314.212L115.041,316.647C115.041,317.133 114.647,317.527 114.161,317.527L112.402,317.527C111.916,317.527 111.522,317.133 111.522,316.647L111.522,316.545L111.071,316.545C110.779,316.848 110.369,317.036 109.916,317.036C109.029,317.036 108.309,316.316 108.309,315.43C108.309,314.543 109.029,313.823 109.916,313.823C110.369,313.823 110.779,314.011 111.071,314.314L111.522,314.314Z" style="fill:#747474;"/>
                    </g>
                    <g transform="matrix(0.967365,-0.253389,0.253389,0.967365,-98.3232,66.8198)">
                        <path d="M111.522,314.314L111.522,314.212C111.522,313.727 111.916,313.333 112.402,313.333L114.161,313.333C114.647,313.333 115.041,313.727 115.041,314.212L115.041,316.647C115.041,317.133 114.647,317.527 114.161,317.527L112.402,317.527C111.916,317.527 111.522,317.133 111.522,316.647L111.522,316.545L111.071,316.545C110.779,316.848 110.369,317.036 109.916,317.036C109.029,317.036 108.309,316.316 108.309,315.43C108.309,314.543 109.029,313.823 109.916,313.823C110.369,313.823 110.779,314.011 111.071,314.314L111.522,314.314Z" style="fill:#929292;"/>
                    </g>
                </g>
                <g transform="matrix(-0.965926,0.258819,0.258819,0.965926,148.334,-12.1569)">
                    <g transform="matrix(0.967365,-0.253389,0.253389,0.967365,-98.2279,67.1838)">
                        <path d="M111.522,314.314L111.522,314.212C111.522,313.727 111.916,313.333 112.402,313.333L114.161,313.333C114.647,313.333 115.041,313.727 115.041,314.212L115.041,316.647C115.041,317.133 114.647,317.527 114.161,317.527L112.402,317.527C111.916,317.527 111.522,317.133 111.522,316.647L111.522,316.545L111.071,316.545C110.779,316.848 110.369,317.036 109.916,317.036C109.029,317.036 108.309,316.316 108.309,315.43C108.309,314.543 109.029,313.823 109.916,313.823C110.369,313.823 110.779,314.011 111.071,314.314L111.522,314.314Z" style="fill:#747474;"/>
                    </g>
                    <g transform="matrix(0.967365,-0.253389,0.253389,0.967365,-98.3232,66.8198)">
                        <path d="M111.522,314.314L111.522,314.212C111.522,313.727 111.916,313.333 112.402,313.333L114.161,313.333C114.647,313.333 115.041,313.727 115.041,314.212L115.041,316.647C115.041,317.133 114.647,317.527 114.161,317.527L112.402,317.527C111.916,317.527 111.522,317.133 111.522,316.647L111.522,316.545L111.071,316.545C110.779,316.848 110.369,317.036 109.916,317.036C109.029,317.036 108.309,316.316 108.309,315.43C108.309,314.543 109.029,313.823 109.916,313.823C110.369,313.823 110.779,314.011 111.071,314.314L111.522,314.314Z" style="fill:#929292;"/>
                    </g>
                </g>
            </g>
            <path d="M146.109,327.722L146.109,328.583C145.739,328.596 145.444,328.9 145.444,329.272L145.444,331.723C145.444,332.103 145.752,332.412 146.133,332.412L155.629,332.412C156.009,332.412 156.318,332.103 156.318,331.723L156.318,329.272C156.318,328.933 156.073,328.651 155.75,328.594L155.75,327.711C156.073,327.653 156.318,327.371 156.318,327.031L156.318,324.496C156.264,321.236 145.384,321.053 145.444,324.496L145.444,327.031C145.444,327.404 145.739,327.708 146.109,327.722Z" style="fill:#b3b3b3;"/>
            <g transform="matrix(0.951092,-0.308909,0.308909,0.951092,-94.6396,63.2486)">
                <g transform="matrix(1,0,0,1,0,2.58729)">
                    <path d="M154.357,326.783C154.357,325.81 153.568,325.021 152.595,325.021L149.072,325.021C148.099,325.021 147.31,325.81 147.31,326.783L147.31,336.483C147.31,337.456 148.099,338.245 149.072,338.245L152.595,338.245C153.568,338.245 154.357,337.456 154.357,336.483L154.357,326.783ZM150.881,325.774C151.94,325.774 152.8,326.634 152.8,327.693C152.8,328.753 151.94,329.612 150.881,329.612C149.821,329.612 148.961,328.753 148.961,327.693C148.961,326.634 149.821,325.774 150.881,325.774Z" style="fill:#e4e4e4;"/>
                </g>
                <path d="M155.014,334.435C155.014,334.114 154.753,333.853 154.432,333.853L147.408,333.853C147.087,333.853 146.826,334.114 146.826,334.435L146.826,340.947C146.826,341.268 147.087,341.529 147.408,341.529L154.432,341.529C154.753,341.529 155.014,341.268 155.014,340.947L155.014,334.435Z" style="fill:#000d29;"/>
                <g transform="matrix(0.83904,0,0,0.48473,24.2921,175.362)">
                    <path d="M155.014,334.435C155.014,334.114 154.863,333.853 154.678,333.853L147.162,333.853C146.977,333.853 146.826,334.114 146.826,334.435L146.826,340.947C146.826,341.268 146.977,341.529 147.162,341.529L154.678,341.529C154.863,341.529 155.014,341.268 155.014,340.947L155.014,334.435Z" style="fill:#00143f;"/>
                </g>
            </g>
            <path d="M152.153,323.301C152.153,322.932 151.854,322.632 151.485,322.632L150.147,322.632C149.778,322.632 149.478,322.932 149.478,323.301L149.478,330.834C149.478,331.203 149.778,331.503 150.147,331.503L151.485,331.503C151.854,331.503 152.153,331.203 152.153,330.834L152.153,323.301Z" style="fill:#d5d5d5;"/>
        </g>
        <g transform="matrix(1.22091,0,0,1.57905,-33.8641,-186.448)">
            <path d="M159.125,318.582C159.125,317.978 158.491,317.488 157.711,317.488L144.817,317.488C144.036,317.488 143.403,317.978 143.403,318.582L143.403,320.768C143.403,321.372 144.036,321.861 144.817,321.861L157.711,321.861C158.491,321.861 159.125,321.372 159.125,320.768L159.125,318.582Z"/>
        </g>
        <path d="M180.365,298.289L194.777,298.289L194.776,298.411C194.62,308.785 174.617,317.187 150,317.187C125.287,317.187 105.223,308.719 105.223,298.289L119.635,298.289C124.326,302.683 136.159,305.805 150,305.805C163.842,305.805 175.676,302.683 180.365,298.289Z"/>
        <g transform="matrix(0.851922,0,0,0.851922,155.663,53.9836)">
            <ellipse cx="70.434" cy="323.45" rx="26.996" ry="13.498" style="fill:#d9d9d9;"/>
        </g>
        <g transform="matrix(1,0,0,1,-16.4957,7.86426)">
            <path d="M245.188,331.15C241.484,332.425 236.997,333.173 232.163,333.173L232.163,321.673L245.188,321.673L245.188,331.15ZM219.138,331.15C213.116,329.075 209.164,325.603 209.164,321.673L219.138,321.673L219.138,331.15ZM232.163,321.673L219.138,321.673L219.138,312.197C222.842,310.921 227.33,310.174 232.163,310.174L232.163,321.673ZM245.188,312.197C251.211,314.271 255.162,317.743 255.162,321.673L245.188,321.673L245.188,312.197Z"/>
        </g>
        <g transform="matrix(0.851922,0,0,0.851922,155.663,53.9836)">
            <path d="M70.434,308.952C61.26,308.952 53.128,311.215 48.085,314.654C44.489,317.106 42.437,320.179 42.437,323.45C42.437,326.721 44.489,329.793 48.085,332.246C53.128,335.685 61.26,337.948 70.434,337.948C79.608,337.948 87.739,335.685 92.782,332.246C96.378,329.793 98.43,326.721 98.43,323.45C98.43,320.179 96.378,317.106 92.782,314.654C87.739,311.215 79.608,308.952 70.434,308.952ZM70.434,310.952C79.139,310.952 86.869,313.043 91.655,316.306C94.611,318.322 96.43,320.761 96.43,323.45C96.43,326.139 94.611,328.577 91.655,330.593C86.869,333.857 79.139,335.948 70.434,335.948C61.728,335.948 53.998,333.857 49.212,330.593C46.256,328.577 44.437,326.139 44.437,323.45C44.437,320.761 46.256,318.322 49.212,316.306C53.998,313.043 61.728,310.952 70.434,310.952Z" style="fill:#535353;"/>
        </g>
    </g>
</svg>
