<?xml version="1.0" encoding="UTF-8" standalone="no"?>
<!DOCTYPE svg PUBLIC "-//W3C//DTD SVG 1.1//EN" "http://www.w3.org/Graphics/SVG/1.1/DTD/svg11.dtd">
<svg width="100%" height="100%" viewBox="0 0 300 345" version="1.1" xmlns="http://www.w3.org/2000/svg" xmlns:xlink="http://www.w3.org/1999/xlink" xml:space="preserve" xmlns:serif="http://www.serif.com/" style="fill-rule:evenodd;clip-rule:evenodd;stroke-linejoin:round;stroke-miterlimit:2;">
    <g id="avatar_clothing_47">
        <path d="M-0,262.01C-0,281.967 16.423,298.39 36.38,298.39L100.972,298.39C106.198,310.03 126.165,318.697 150,318.697C173.835,318.697 193.802,310.03 199.028,298.39L263.62,298.39C283.577,298.39 300,281.967 300,262.01L300,308.62C300,328.577 283.577,345 263.62,345L36.38,345C16.423,345 -0,328.577 -0,308.62L-0,262.01Z" style="fill:#fff2ee;fill-rule:nonzero;"/>
        <g>
            <path d="M118.365,345L36.38,345C19.877,345 5.791,333.771 1.409,318.597C16.854,317.564 29.934,309.567 36.099,298.389C36.192,298.39 36.286,298.39 36.38,298.39L87.326,298.39L118.365,324.5L118.365,345Z" style="fill:#ff752d;fill-rule:nonzero;"/>
            <path d="M18.285,340.124C12.545,336.796 7.778,331.945 4.551,326.142L48.378,326.142L48.378,298.39L73.664,298.39L73.664,326.142L118.365,326.142L118.365,340.124L18.285,340.124Z" style="fill:#eef300;fill-rule:nonzero;"/>
            <path d="M7.441,330.559L54.401,330.559L54.401,298.39L67.721,298.39L67.721,330.559L118.365,330.559L118.365,336.108L12.656,336.108C10.733,334.444 8.984,332.583 7.441,330.559Z" style="fill:#fcff81;fill-rule:nonzero;"/>
            <path d="M82.911,298.39L87.326,298.39L118.365,324.5L118.365,345L115.365,345L115.365,325.897C115.365,325.897 86.232,301.39 86.232,301.39L82.911,298.39ZM39.151,298.39C38.838,299.423 38.387,300.421 37.817,301.39C31.474,311.624 19.646,319.173 5.536,321.181C5.519,321.183 5.487,321.188 5.487,321.188L2.458,321.694C2.458,321.694 1.713,319.649 1.409,318.597C16.854,317.564 29.934,309.567 36.099,298.389C36.192,298.39 36.286,298.39 36.38,298.39L39.151,298.39Z" style="fill:#3f1600;"/>
        </g>
        <g transform="matrix(-1,0,0,1,301.409,0)">
            <path d="M118.365,345L36.38,345C19.877,345 5.791,333.771 1.409,318.597C16.854,317.564 29.934,309.567 36.099,298.389C36.192,298.39 36.286,298.39 36.38,298.39L87.326,298.39L118.365,324.5L118.365,345Z" style="fill:#ff752d;fill-rule:nonzero;"/>
            <path d="M18.285,340.124C12.545,336.796 7.778,331.945 4.551,326.142L48.378,326.142L48.378,298.39L73.664,298.39L73.664,326.142L118.365,326.142L118.365,340.124L18.285,340.124Z" style="fill:#eef300;fill-rule:nonzero;"/>
            <path d="M7.441,330.559L54.401,330.559L54.401,298.39L67.721,298.39L67.721,330.559L118.365,330.559L118.365,336.108L12.656,336.108C10.733,334.444 8.984,332.583 7.441,330.559Z" style="fill:#fcff81;fill-rule:nonzero;"/>
            <path d="M82.911,298.39L87.326,298.39L118.365,324.5L118.365,345L115.365,345L115.365,325.897C115.365,325.897 86.232,301.39 86.232,301.39L82.911,298.39ZM39.151,298.39C38.838,299.423 38.387,300.421 37.817,301.39C31.474,311.624 19.646,319.173 5.536,321.181C5.519,321.183 5.487,321.188 5.487,321.188L2.458,321.694C2.458,321.694 1.713,319.649 1.409,318.597C16.854,317.564 29.934,309.567 36.099,298.389C36.192,298.39 36.286,298.39 36.38,298.39L39.151,298.39Z" style="fill:#3f1600;"/>
        </g>
    </g>
</svg>
