<svg id="Layer_1" data-name="Layer 1" xmlns="http://www.w3.org/2000/svg" viewBox="0 0 300 345"><g id="assets"><g id="glasses"><path d="M295.18,195.36a57.69,57.69,0,0,1-115.38,0c0-31.87,25.83-44.2,57.69-44.2S295.18,163.49,295.18,195.36Z" fill="#141319"/><path d="M143.25,131.15c-23.57-33.32-37.71-67-43.77-83.21A4.52,4.52,0,0,0,95.25,45h0A4.52,4.52,0,0,0,91,51.09a384.06,384.06,0,0,0,44.76,85.06c19.64,27.8,41.75,50,65.73,65.92,30.15,20,63.29,30.2,98.5,30.2v-9C239.23,223.27,186.49,192.27,143.25,131.15Z" fill="#141319"/></g></g></svg>