<svg id="Layer_1" data-name="Layer 1" xmlns="http://www.w3.org/2000/svg" xmlns:xlink="http://www.w3.org/1999/xlink" viewBox="0 0 300 345"><defs><linearGradient id="linear-gradient" x1="150" y1="355.74" x2="150" y2="167.31" gradientUnits="userSpaceOnUse"><stop offset="0.08" stop-color="#bee7fa"/><stop offset="0.61" stop-color="#0eafda"/></linearGradient></defs><g id="assets"><g id="clothing"><path d="M263.62,298.39h-9.48L225,313.33l-28-14.94H177.36S170,325.76,150,325.76s-27.36-27.37-27.36-27.37H103L72.55,312.71,45.86,298.39H36.38A36.37,36.37,0,0,1,0,262v46.6A36.38,36.38,0,0,0,36.38,345H263.62A36.38,36.38,0,0,0,300,308.62V262A36.38,36.38,0,0,1,263.62,298.39Z" fill="url(#linear-gradient)"/><path d="M263.62,298.39h-9.51S203.36,338.13,150,338.13,45.86,298.39,45.86,298.39H36.38c-1.15,0-2.29-.06-3.42-.16A137.28,137.28,0,0,0,59.1,345H240.9A137.28,137.28,0,0,0,267,298.23C265.91,298.33,264.77,298.39,263.62,298.39Z" fill="#4cc8f4" fill-opacity="0.35"/><path d="M196.85,298.39s.65,39.74-46.85,39.74-46.85-39.73-46.85-39.74H45.86A142.42,142.42,0,0,0,69.08,345H230.92a142.42,142.42,0,0,0,23.22-46.61Z" fill="#fff"/><path d="M191.82,298.39H177.36S170,325.76,150,325.76s-27.36-27.37-27.36-27.37H108.18c-2.77,4.69-10.33,19.95.29,31.9a19.6,19.6,0,0,0,15.25,6.77c10.72,0,21.52-7,26.28-10.49,4.76,3.51,15.56,10.49,26.28,10.49h0a19.6,19.6,0,0,0,15.25-6.77C202.15,318.34,194.59,303.08,191.82,298.39Z" fill="#9ad4ee"/><path d="M194.68,298.39h-5.81s12.06,17.55.79,30.24a17.16,17.16,0,0,1-13.38,5.93c-9.09,0-18.54-5.63-23.41-9a18.83,18.83,0,0,1-5.74,0c-4.87,3.39-14.32,9-23.41,9a17.19,17.19,0,0,1-13.38-5.93c-11.27-12.69.79-30.24.79-30.24h-5.81C102,304.6,95.74,319.73,106.6,332a22.27,22.27,0,0,0,17.12,7.61c10.41,0,20.75-6.06,26.28-9.92,5.53,3.86,15.87,9.92,26.28,9.92A22.27,22.27,0,0,0,193.4,332C204.26,319.73,198,304.6,194.68,298.39Z" fill="#4cc8f4"/></g></g></svg>