<svg id="Layer_1" data-name="Layer 1" xmlns="http://www.w3.org/2000/svg" xmlns:xlink="http://www.w3.org/1999/xlink" viewBox="0 0 300 345"><defs><linearGradient id="linear-gradient" x1="150" y1="437.81" x2="150" y2="172.32" gradientUnits="userSpaceOnUse"><stop offset="0.36" stop-color="#c6e9f6"/><stop offset="1" stop-color="#6eb7cb"/></linearGradient><linearGradient id="linear-gradient-2" x1="150" y1="329.12" x2="150" y2="282.35" gradientUnits="userSpaceOnUse"><stop offset="0" stop-color="#c6e9f6"/><stop offset="1" stop-color="#6eb7cb"/></linearGradient><linearGradient id="linear-gradient-3" x1="233.22" y1="364.59" x2="233.22" y2="292.7" xlink:href="#linear-gradient"/><linearGradient id="linear-gradient-4" x1="66.78" y1="364.59" x2="66.78" y2="292.7" xlink:href="#linear-gradient"/></defs><g id="assets"><g id="clothing"><path d="M263.62,298.39H179c-4,6.79-12.41,15.77-29,15.77s-25-9-29-15.77H36.38A36.38,36.38,0,0,1,0,262v46.61A36.38,36.38,0,0,0,36.38,345H263.62A36.38,36.38,0,0,0,300,308.62V262A36.38,36.38,0,0,1,263.62,298.39Z" fill="url(#linear-gradient)"/><path d="M150,321.3c21.61,0,33.19-12.54,39.07-22.91H179c-4,6.79-12.41,15.77-29,15.77s-25-9-29-15.77h-10.1C116.81,308.76,128.39,321.3,150,321.3Z" fill="url(#linear-gradient-2)"/><path d="M244.93,310.51v-9.12H221.51v9.12a6.27,6.27,0,0,0-6.12,6.25v.84a11.25,11.25,0,0,0,7.74,10.7,9.11,9.11,0,0,1,2.33,1.07,11,11,0,0,0,1,1.67,7.85,7.85,0,0,0-1,3.91,8,8,0,0,0,.21,1.79,8.12,8.12,0,0,0-.21,1.79c0,4.32,15.64,4.32,15.64,0a8.12,8.12,0,0,0-.21-1.79A8,8,0,0,0,241,335a7.85,7.85,0,0,0-1-3.91,11,11,0,0,0,1-1.67,9.11,9.11,0,0,1,2.33-1.07,11.25,11.25,0,0,0,7.74-10.7v-.84A6.27,6.27,0,0,0,244.93,310.51Zm3.12,7.09a8.27,8.27,0,0,1-5.68,7.85c-1.22.4-3.54,1.33-4,2.47a6.68,6.68,0,0,1-.41.8,7.79,7.79,0,0,0-9.43,0,8.52,8.52,0,0,1-.4-.8c-.49-1.14-2.81-2.07-4-2.47a8.27,8.27,0,0,1-5.68-7.85v-.84a3.26,3.26,0,0,1,3.12-3.24v3.37a6.29,6.29,0,0,0,6.29,6.29h10.84a6.29,6.29,0,0,0,6.29-6.29v-3.37a3.26,3.26,0,0,1,3.12,3.24Z" fill="url(#linear-gradient-3)"/><path d="M78.49,310.51v-9.12H55.07v9.12A6.27,6.27,0,0,0,49,316.76v.84a11.25,11.25,0,0,0,7.74,10.7A9.11,9.11,0,0,1,59,329.37,11,11,0,0,0,60,331,7.85,7.85,0,0,0,59,335a8,8,0,0,0,.21,1.79,8.12,8.12,0,0,0-.21,1.79c0,4.32,15.64,4.32,15.64,0a8.12,8.12,0,0,0-.21-1.79A8,8,0,0,0,74.6,335a7.85,7.85,0,0,0-1-3.91,11,11,0,0,0,1-1.67,9.06,9.06,0,0,1,2.34-1.07,11.26,11.26,0,0,0,7.73-10.7v-.84A6.27,6.27,0,0,0,78.49,310.51Zm3.12,7.09a8.27,8.27,0,0,1-5.68,7.85c-1.22.4-3.54,1.33-4,2.47a8.52,8.52,0,0,1-.4.8,7.79,7.79,0,0,0-9.43,0,6.68,6.68,0,0,1-.41-.8c-.49-1.14-2.81-2.07-4-2.47A8.27,8.27,0,0,1,52,317.6v-.84a3.26,3.26,0,0,1,3.12-3.24v3.37a6.29,6.29,0,0,0,6.29,6.29H72.2a6.29,6.29,0,0,0,6.29-6.29v-3.37a3.26,3.26,0,0,1,3.12,3.24Z" fill="url(#linear-gradient-4)"/><path d="M42.89,345H263.24l-2.38-9.79a17.69,17.69,0,0,0-17.19-13.51H62.46a17.69,17.69,0,0,0-17.19,13.51Z" fill="#10aed1"/><path d="M255.26,345l-.84-3.47c0-.14-.07-.28-.11-.42" fill="none" stroke="#00849a" stroke-linejoin="round" stroke-width="3"/><path d="M250.53,334.23a16.61,16.61,0,0,0-12.27-5.41H67.87a16.65,16.65,0,0,0-14.58,8.63" fill="none" stroke="#00849a" stroke-linejoin="round" stroke-width="3" stroke-dasharray="7.92 7.92"/><path d="M51.82,341.11c0,.14-.08.28-.11.42L50.87,345" fill="none" stroke="#00849a" stroke-linejoin="round" stroke-width="3"/><path d="M244.79,310.51a3.25,3.25,0,0,1,3.26,3.25v.84a8.27,8.27,0,0,1-5.68,7.85c-1.22.4-3.54,1.33-4,2.47a5.35,5.35,0,0,1-10.24,0c-.49-1.14-2.81-2.07-4-2.47a8.27,8.27,0,0,1-5.68-7.85v-.84a3.25,3.25,0,0,1,3.26-3.25h23.14m0-3H221.65a6.26,6.26,0,0,0-6.26,6.25v.84a11.25,11.25,0,0,0,7.74,10.7,9.11,9.11,0,0,1,2.33,1.07,8.3,8.3,0,0,0,15.52,0,9.11,9.11,0,0,1,2.33-1.07,11.25,11.25,0,0,0,7.74-10.7v-.84a6.26,6.26,0,0,0-6.26-6.25Z" fill="#cd8e2a"/><path d="M221.51,298.39v15.5a6.29,6.29,0,0,0,6.29,6.29h10.84a6.29,6.29,0,0,0,6.29-6.29v-15.5Z" fill="#10aed1"/><circle cx="233.22" cy="335.53" r="7.82" fill="#00849a" fill-opacity="0.6"/><path d="M233.22,338.78A6.83,6.83,0,1,1,240,332,6.83,6.83,0,0,1,233.22,338.78Z" fill="#fabc2e"/><path d="M233.22,326.13A5.83,5.83,0,1,1,227.4,332a5.83,5.83,0,0,1,5.82-5.82m0-2A7.83,7.83,0,1,0,241,332a7.82,7.82,0,0,0-7.82-7.82Z" fill="#cd8e2a"/><line x1="225.46" y1="298.39" x2="225.46" y2="302.39" fill="none" stroke="#00849a" stroke-linejoin="round" stroke-width="3"/><path d="M225.46,310.42v1.92a4.17,4.17,0,0,0,4.17,4.17h7.18a4.17,4.17,0,0,0,4.17-4.17v-5.93" fill="none" stroke="#00849a" stroke-linejoin="round" stroke-width="3" stroke-dasharray="8.03 8.03"/><line x1="240.98" y1="302.39" x2="240.98" y2="298.39" fill="none" stroke="#00849a" stroke-linejoin="round" stroke-width="3"/><path d="M78.35,310.51a3.25,3.25,0,0,1,3.26,3.25v.84a8.27,8.27,0,0,1-5.68,7.85c-1.22.4-3.54,1.33-4,2.47a5.35,5.35,0,0,1-10.24,0c-.49-1.14-2.81-2.07-4-2.47A8.27,8.27,0,0,1,52,314.6v-.84a3.25,3.25,0,0,1,3.26-3.25H78.35m0-3H55.21A6.26,6.26,0,0,0,49,313.76v.84a11.25,11.25,0,0,0,7.74,10.7A9.11,9.11,0,0,1,59,326.37a8.3,8.3,0,0,0,15.52,0,9.06,9.06,0,0,1,2.34-1.07,11.26,11.26,0,0,0,7.73-10.7v-.84a6.26,6.26,0,0,0-6.26-6.25Z" fill="#cd8e2a"/><path d="M55.07,298.39v15.5a6.29,6.29,0,0,0,6.29,6.29H72.2a6.29,6.29,0,0,0,6.29-6.29v-15.5Z" fill="#10aed1"/><circle cx="66.78" cy="335.53" r="7.82" fill="#00849a" fill-opacity="0.6"/><path d="M66.78,338.78A6.83,6.83,0,1,1,73.6,332,6.83,6.83,0,0,1,66.78,338.78Z" fill="#fabc2e"/><path d="M66.78,326.13A5.83,5.83,0,1,1,61,332a5.83,5.83,0,0,1,5.82-5.82m0-2A7.83,7.83,0,1,0,74.6,332a7.82,7.82,0,0,0-7.82-7.82Z" fill="#cd8e2a"/><line x1="59.02" y1="298.39" x2="59.02" y2="302.39" fill="none" stroke="#00849a" stroke-linejoin="round" stroke-width="3"/><path d="M59,310.42v1.92a4.17,4.17,0,0,0,4.17,4.17h7.18a4.17,4.17,0,0,0,4.17-4.17v-5.93" fill="none" stroke="#00849a" stroke-linejoin="round" stroke-width="3" stroke-dasharray="8.03 8.03"/><line x1="74.54" y1="302.39" x2="74.54" y2="298.39" fill="none" stroke="#00849a" stroke-linejoin="round" stroke-width="3"/></g></g></svg>