<svg id="Layer_1" data-name="Layer 1" xmlns="http://www.w3.org/2000/svg" xmlns:xlink="http://www.w3.org/1999/xlink" viewBox="0 0 300 345"><defs><linearGradient id="linear-gradient" x1="150" y1="355.74" x2="150" y2="167.31" gradientUnits="userSpaceOnUse"><stop offset="0" stop-color="#f2c0d9"/><stop offset="0.69" stop-color="#e573ab"/></linearGradient><linearGradient id="linear-gradient-2" x1="150" y1="345.51" x2="150" y2="295.79" gradientUnits="userSpaceOnUse"><stop offset="0" stop-color="#f2c0d9"/><stop offset="0.62" stop-color="#e573ab"/></linearGradient></defs><g id="assets"><g id="clothing"><path d="M263.62,298.39H180.49C180.49,317,150,323,150,323s-30.55-5.52-30.55-24.61H36.38A36.38,36.38,0,0,1,0,262v46.61A36.38,36.38,0,0,0,36.38,345H263.62A36.38,36.38,0,0,0,300,308.62V262A36.37,36.37,0,0,1,263.62,298.39Z" fill="url(#linear-gradient)"/><path d="M227.49,342.17l4.59-6.36a4.8,4.8,0,0,1,8,.3l.76,1.24A6.8,6.8,0,0,0,253.08,336l.16-.45a4.8,4.8,0,0,1,8.09-1.69l.33.37a6.8,6.8,0,0,0,11.76-3.65l.1-.72a4.81,4.81,0,0,1,7.54-3.26l.17.12a6.8,6.8,0,0,0,10.69-6.3l-.06-.55a4.81,4.81,0,0,1,6.34-5.06,7.59,7.59,0,0,0,1.21.29h0a36.6,36.6,0,0,0,.59-6.49V296.93a4.29,4.29,0,0,1-1.15-.24,6.81,6.81,0,0,0-9,7.18l.06.55a4.8,4.8,0,0,1-7.55,4.44l-.17-.12a6.81,6.81,0,0,0-10.67,4.62l-.1.72a4.81,4.81,0,0,1-8.3,2.58l-.33-.37a6.81,6.81,0,0,0-11.47,2.39l-.15.45a4.81,4.81,0,0,1-8.65.95l-.76-1.24a6.8,6.8,0,0,0-11.33-.43l-4.58,6.36a4.8,4.8,0,0,1-7.8,0l-5-6.91a6.72,6.72,0,0,0-5.52-2.83h0a6.71,6.71,0,0,0-5.52,2.83l-5,6.91a4.8,4.8,0,0,1-7.8,0l-5-6.91a6.81,6.81,0,0,0-11.05,0l-5,6.91a4.82,4.82,0,0,1-7.8,0l-5-6.91A6.72,6.72,0,0,0,150,315h0a6.71,6.71,0,0,0-5.52,2.83l-5,6.91a4.82,4.82,0,0,1-7.8,0l-5-6.91a6.8,6.8,0,0,0-11,0l-5,6.91a4.82,4.82,0,0,1-7.8,0l-5-6.91a6.81,6.81,0,0,0-11,0l-5,6.91a4.75,4.75,0,0,1-3.9,2h0a4.73,4.73,0,0,1-3.9-2l-4.45-6.18a6.8,6.8,0,0,0-11.41.55l-1,1.73a4.8,4.8,0,0,1-8.6-.59l-.49-1.19a6.8,6.8,0,0,0-11.51-1.8l-.5.59a4.81,4.81,0,0,1-8.41-2.22l-.2-1.12a6.81,6.81,0,0,0-10.69-4.27l-.37.26a4.8,4.8,0,0,1-7.6-4.39l.09-.8A6.81,6.81,0,0,0,.2,298.12l-.2.07v10.43a36.27,36.27,0,0,0,.81,7.64h0a4.75,4.75,0,0,1,4.45.89A4.73,4.73,0,0,1,7,321.36l-.09.8a6.81,6.81,0,0,0,10.77,6.22l.36-.26a4.81,4.81,0,0,1,7.55,3l.21,1.12a6.8,6.8,0,0,0,11.9,3.14l.5-.59a4.72,4.72,0,0,1,4.42-1.66,4.77,4.77,0,0,1,3.71,2.92l.49,1.2a6.8,6.8,0,0,0,12.18.84l1-1.73a4.81,4.81,0,0,1,8.06-.4l4.45,6.18a6.78,6.78,0,0,0,11,0l5-6.9a4.8,4.8,0,0,1,7.8,0l5,6.91a6.81,6.81,0,0,0,11,0l5-6.91a4.8,4.8,0,0,1,7.8,0l5,6.91a6.81,6.81,0,0,0,11.05,0l5-6.91a4.74,4.74,0,0,1,3.9-2h0a4.77,4.77,0,0,1,3.9,2l5,6.91a6.81,6.81,0,0,0,11,0l5-6.91a4.8,4.8,0,0,1,7.8,0l5,6.91a6.81,6.81,0,0,0,11,0l5-6.91a4.8,4.8,0,0,1,7.8,0l5,6.91A6.71,6.71,0,0,0,222,345h0A6.71,6.71,0,0,0,227.49,342.17Z" fill="url(#linear-gradient-2)"/><path d="M298.85,312.93a6.8,6.8,0,0,0-9,7.17l.06.55a4.8,4.8,0,0,1-7.55,4.44l-.17-.12a6.81,6.81,0,0,0-10.67,4.62l-.1.72a4.8,4.8,0,0,1-8.3,2.58l-.33-.37a6.81,6.81,0,0,0-11.47,2.39l-.15.45a4.81,4.81,0,0,1-8.65.95l-.76-1.24a6.8,6.8,0,0,0-11.33-.43L225.87,341a4.8,4.8,0,0,1-7.8,0l-5-6.91a6.72,6.72,0,0,0-5.52-2.83h0a6.71,6.71,0,0,0-5.52,2.83l-5,6.91a4.8,4.8,0,0,1-7.8,0l-5-6.91a6.81,6.81,0,0,0-11.05,0l-5,6.91a4.8,4.8,0,0,1-7.8,0l-5-6.91a6.72,6.72,0,0,0-5.52-2.83h0a6.71,6.71,0,0,0-5.52,2.83l-5,6.91a4.8,4.8,0,0,1-7.8,0l-5-6.91a6.8,6.8,0,0,0-11,0l-5,6.91a4.8,4.8,0,0,1-7.8,0l-5-6.91a6.81,6.81,0,0,0-11,0l-5,6.91a4.76,4.76,0,0,1-3.9,2h0a4.74,4.74,0,0,1-3.9-2l-4.45-6.18a6.8,6.8,0,0,0-11.41.55l-1,1.73a4.8,4.8,0,0,1-8.6-.59l-.49-1.19a6.8,6.8,0,0,0-11.51-1.8l-.5.59a4.81,4.81,0,0,1-8.41-2.22l-.2-1.11a6.81,6.81,0,0,0-10.69-4.28l-.37.26a4.8,4.8,0,0,1-7.6-4.39l.09-.8A6.79,6.79,0,0,0,.44,314.3c.11.66.23,1.31.37,2a4.75,4.75,0,0,1,4.45.89A4.73,4.73,0,0,1,7,321.36l-.09.8a6.81,6.81,0,0,0,10.77,6.22l.36-.26a4.81,4.81,0,0,1,7.55,3l.21,1.12a6.8,6.8,0,0,0,11.9,3.14l.5-.59a4.72,4.72,0,0,1,4.42-1.66,4.77,4.77,0,0,1,3.71,2.92l.49,1.2a6.8,6.8,0,0,0,12.18.84l1-1.73a4.81,4.81,0,0,1,8.06-.4l4.45,6.18a6.78,6.78,0,0,0,11,0l5-6.9a4.8,4.8,0,0,1,7.8,0l5,6.91a6.81,6.81,0,0,0,11,0l5-6.91a4.8,4.8,0,0,1,7.8,0l5,6.91a6.81,6.81,0,0,0,11.05,0l5-6.91a4.74,4.74,0,0,1,3.9-2h0a4.77,4.77,0,0,1,3.9,2l5,6.91a6.81,6.81,0,0,0,11,0l5-6.91a4.8,4.8,0,0,1,7.8,0l5,6.91a6.81,6.81,0,0,0,11,0l5-6.91a4.8,4.8,0,0,1,7.8,0l5,6.91A6.71,6.71,0,0,0,222,345h0a6.71,6.71,0,0,0,5.52-2.83l4.59-6.36a4.8,4.8,0,0,1,8,.3l.76,1.24A6.8,6.8,0,0,0,253.08,336l.16-.45a4.8,4.8,0,0,1,8.09-1.69l.33.37a6.8,6.8,0,0,0,11.76-3.65l.1-.72a4.81,4.81,0,0,1,7.54-3.26l.17.12a6.8,6.8,0,0,0,10.69-6.3l-.06-.55a4.81,4.81,0,0,1,6.34-5.06,7.59,7.59,0,0,0,1.21.29q.18-1,.3-2A5.34,5.34,0,0,1,298.85,312.93Z" fill="#dc7398"/><path d="M0,300.25c.15,0,.3-.06.45-.11l.34-.1a4.73,4.73,0,0,1,4.47.87A4.75,4.75,0,0,1,7,305.13l-.09.8a6.81,6.81,0,0,0,10.77,6.22l.36-.26a4.8,4.8,0,0,1,7.55,3l.21,1.11a6.8,6.8,0,0,0,11.9,3.15l.5-.6a4.81,4.81,0,0,1,8.13,1.27l.49,1.2a6.8,6.8,0,0,0,12.18.84l1-1.73a4.81,4.81,0,0,1,8.06-.4l4.45,6.18a6.8,6.8,0,0,0,11,0l5-6.9a4.8,4.8,0,0,1,7.8,0l5,6.9a6.81,6.81,0,0,0,11,0l5-6.9a4.8,4.8,0,0,1,7.8,0l5,6.9a6.81,6.81,0,0,0,11.05,0l5-6.9a4.74,4.74,0,0,1,3.9-2h0a4.77,4.77,0,0,1,3.9,2l5,6.91a6.82,6.82,0,0,0,11,0l5-6.9a4.8,4.8,0,0,1,7.8,0l5,6.91a6.8,6.8,0,0,0,11,0l5-6.9a4.81,4.81,0,0,1,7.8,0l5,6.92a6.8,6.8,0,0,0,11,0l4.59-6.36a4.8,4.8,0,0,1,8,.3l.76,1.24a6.8,6.8,0,0,0,12.24-1.34l.16-.45a4.73,4.73,0,0,1,3.56-3.15,4.78,4.78,0,0,1,4.53,1.46l.33.36a6.8,6.8,0,0,0,11.76-3.65l.1-.71a4.81,4.81,0,0,1,7.54-3.26l.17.12a6.8,6.8,0,0,0,10.69-6.3l-.06-.55a4.81,4.81,0,0,1,6.34-5.06,7.16,7.16,0,0,0,1.8.35v-2a4.29,4.29,0,0,1-1.15-.24,6.81,6.81,0,0,0-9,7.18l.06.55a4.8,4.8,0,0,1-7.55,4.44l-.17-.12a6.81,6.81,0,0,0-10.67,4.62l-.1.72a4.81,4.81,0,0,1-8.3,2.58l-.33-.37a6.81,6.81,0,0,0-11.47,2.39l-.15.45a4.81,4.81,0,0,1-8.65.95l-.76-1.24a6.8,6.8,0,0,0-11.33-.43l-4.58,6.36a4.8,4.8,0,0,1-7.8,0l-5-6.91a6.72,6.72,0,0,0-5.52-2.83h0a6.71,6.71,0,0,0-5.52,2.83l-5,6.91a4.8,4.8,0,0,1-7.8,0l-5-6.91a6.81,6.81,0,0,0-11.05,0l-5,6.91a4.82,4.82,0,0,1-7.8,0l-5-6.91A6.72,6.72,0,0,0,150,315h0a6.71,6.71,0,0,0-5.52,2.83l-5,6.91a4.82,4.82,0,0,1-7.8,0l-5-6.91a6.8,6.8,0,0,0-11,0l-5,6.91a4.82,4.82,0,0,1-7.8,0l-5-6.91a6.81,6.81,0,0,0-11,0l-5,6.91a4.75,4.75,0,0,1-3.9,2h0a4.73,4.73,0,0,1-3.9-2l-4.45-6.18a6.8,6.8,0,0,0-11.41.55l-1,1.73a4.8,4.8,0,0,1-8.6-.59l-.49-1.19a6.8,6.8,0,0,0-11.51-1.8l-.5.59a4.81,4.81,0,0,1-8.41-2.22l-.2-1.12a6.81,6.81,0,0,0-10.69-4.27l-.37.26a4.8,4.8,0,0,1-7.6-4.39l.09-.8A6.81,6.81,0,0,0,.2,298.12l-.2.07Z" fill="#e06aa7"/></g></g></svg>