<svg id="Layer_1" data-name="Layer 1" xmlns="http://www.w3.org/2000/svg" xmlns:xlink="http://www.w3.org/1999/xlink" viewBox="0 0 300 345"><defs><linearGradient id="linear-gradient" x1="150" y1="288.4" x2="150" y2="356.84" gradientUnits="userSpaceOnUse"><stop offset="0" stop-color="#292439"/><stop offset="1" stop-color="#140d3d"/></linearGradient></defs><g id="assets"><g id="clothing"><path d="M300,308.62V259.14h0V262a36.38,36.38,0,0,1-36.38,36.38H187.76L150,334.1l-37.76-35.71H36.38A36.37,36.37,0,0,1,0,262v46.6A36.38,36.38,0,0,0,36.38,345H263.62A36.38,36.38,0,0,0,300,308.62Z" fill="url(#linear-gradient)"/><path d="M87.62,325.17C57,325.17,56,299.89,51.68,275.12S0,253.93,0,253.93H0v54.69A36.38,36.38,0,0,0,36.38,345h81.11C117.43,342.4,116,325.17,87.62,325.17Z" fill="#8c68a2"/><path d="M212.38,325.17c30.64,0,31.66-25.28,35.94-50.05S300,253.93,300,253.93h0v54.69A36.38,36.38,0,0,1,263.62,345H182.51C182.57,342.4,184.05,325.17,212.38,325.17Z" fill="#8c68a2"/><path d="M79,332.26c-26.6,0-29.73-19.5-33.35-42.09-.36-2.22-.72-4.47-1.11-6.7C41.23,264.13,14.24,261.08,0,260.84v3.05c13.51.31,38.69,3.17,41.61,20.09.38,2.22.74,4.45,1.1,6.67,3.52,21.93,7.15,44.61,36.31,44.61,15.07,0,22.14,4.92,25.46,9.74h3.42C104.59,339.05,96.9,332.26,79,332.26Z" fill="#fabc2e"/><path d="M220.81,335.26c29.16,0,32.8-22.68,36.31-44.61.36-2.22.72-4.45,1.1-6.67,2.94-17,28.32-19.82,41.78-20.1V262h0v-1.16c-14.22.23-41.39,3.26-44.73,22.62-.39,2.23-.75,4.48-1.11,6.7-3.62,22.59-6.75,42.09-33.35,42.09-17.88,0-25.57,6.79-28.87,12.74h3.41C198.67,340.18,205.74,335.26,220.81,335.26Z" fill="#fabc2e"/></g></g></svg>