<svg id="Layer_1" data-name="Layer 1" xmlns="http://www.w3.org/2000/svg" xmlns:xlink="http://www.w3.org/1999/xlink" viewBox="0 0 300 345"><defs><linearGradient id="linear-gradient" x1="225" y1="355.74" x2="225" y2="167.31" gradientUnits="userSpaceOnUse"><stop offset="0.08" stop-color="#bee7fa"/><stop offset="0.61" stop-color="#0eafda"/></linearGradient><linearGradient id="linear-gradient-2" x1="75" y1="355.74" x2="75" y2="167.31" xlink:href="#linear-gradient"/></defs><g id="assets"><g id="item"><path d="M263.62,298.39H198.57L150,345H263.62A36.38,36.38,0,0,0,300,308.62V262A36.38,36.38,0,0,1,263.62,298.39Z" fill="url(#linear-gradient)"/><path d="M101.43,298.39H36.38A36.38,36.38,0,0,1,0,262v46.61A36.38,36.38,0,0,0,36.38,345H150Z" fill="url(#linear-gradient-2)"/><path d="M222.46,281.88c-26.88,4.6-17.9,49.61-14.58,63.12h55.74A36.38,36.38,0,0,0,300,308.62V281.45C266.44,285.54,249.58,277.23,222.46,281.88Z" fill="#4ab86d"/><path d="M77.54,281.88c-27.12-4.65-44,3.66-77.54-.43v27.17A36.38,36.38,0,0,0,36.38,345H92.12C95.44,331.49,104.42,286.48,77.54,281.88Z" fill="#4ab86d"/><path d="M127.81,280.94c3.13,5.57,2.92,13.87,0,20.47a31.16,31.16,0,0,0-2.14,19c1.34,7.07-.31,15.2-4.59,19.94-3.68,4.07-8.49,5.8-13.07,3.9-14.82-6.16-33.93-18.22-31.59-39s23.66-28.28,39.48-31C120.83,273.4,125.13,276.15,127.81,280.94Z" fill="#dc7398"/><path d="M24.2,269.26c-4.29,4.74-5.93,12.87-4.59,19.94a32.68,32.68,0,0,1,.42,9.66,32.79,32.79,0,0,1-2.56,9.33c-2.88,6.6-3.09,14.89,0,20.46,2.68,4.79,7,7.54,11.88,6.71,15.81-2.71,37.13-10.21,39.47-31s-16.77-32.85-31.58-39C32.69,263.46,27.88,265.19,24.2,269.26Z" fill="#dc7398"/><path d="M56,276.21a9.62,9.62,0,1,1-16.42-9.85l-2.31-1c-4.58-1.9-9.39-.17-13.07,3.9A18.18,18.18,0,0,0,20.79,275c.23,0,.46,0,.69,0a9.62,9.62,0,1,1,.5,19.23,9.79,9.79,0,0,1-1.8-.12,29.82,29.82,0,0,1-.15,4.77,32.79,32.79,0,0,1-2.56,9.33,27.2,27.2,0,0,0-2.2,12.08A9.61,9.61,0,1,1,27,335.48a10.42,10.42,0,0,0,2.35-.12,88.38,88.38,0,0,0,12.13-2.94,9.24,9.24,0,0,1-.24-1.91,9.62,9.62,0,0,1,16.78-6.67,28.58,28.58,0,0,0,10.8-19.47C70.23,292.16,64.2,283,56,276.21ZM40.52,317.73a9.62,9.62,0,1,1,9.36-9.87A9.62,9.62,0,0,1,40.52,317.73Z" fill="#914f93"/><path d="M108.52,336.3a9.61,9.61,0,0,1,16.69-3.83,27.22,27.22,0,0,0,.5-12.08,32.68,32.68,0,0,1-.42-9.66,29.81,29.81,0,0,1,.95-4.82,10.79,10.79,0,0,1-1.84-.28A9.62,9.62,0,0,1,129.1,287c.25.06.49.14.73.22a18,18,0,0,0-2-6.25c-2.68-4.79-7-7.54-11.87-6.71l-2.57.48a9.61,9.61,0,1,1-18.2,6c-9.46,4.76-17.34,12.37-18.71,24.53a28.66,28.66,0,0,0,6.24,21.45,9.62,9.62,0,0,1,15,10.16,9.8,9.8,0,0,1-.69,1.88,89.28,89.28,0,0,0,11.09,5.52,10.45,10.45,0,0,0,2.5.68A9.61,9.61,0,0,1,108.52,336.3Zm-7.34-11.77a9.62,9.62,0,1,1,11.68-7A9.62,9.62,0,0,1,101.18,324.53Z" fill="#914f93"/><path d="M100.5,315.6c-1.9-1.72-3.85-3.33-5.85-4.89-1.09-.84-2.21-1.67-3.33-2.47q.11-.64.18-1.32c.07-.58.09-1.13.12-1.68,1.34-.61,2.66-1.23,4-1.9,2.29-1.16,4.56-2.39,6.78-3.74a60,60,0,0,0,6.51-4.49,59.43,59.43,0,0,0-7.87.78c-2.57.4-5.09.93-7.59,1.52-.83.19-1.64.42-2.46.63-2.09-7.34-8.47-10.67-16.25-11.55-7.61-.85-14.51,1.51-18.22,7.74-.81-.42-1.62-.85-2.44-1.26-2.31-1.13-4.66-2.21-7.07-3.17a58.39,58.39,0,0,0-7.5-2.51,60.81,60.81,0,0,0,5.35,5.82c1.87,1.81,3.8,3.52,5.78,5.16,1.13,1,2.29,1.85,3.46,2.74-.1.54-.2,1.09-.26,1.66s-.07.88-.1,1.31c-1.28.54-2.55,1.1-3.82,1.69-2.29,1.07-4.56,2.21-6.79,3.46a58.36,58.36,0,0,0-6.55,4.19,60,60,0,0,0,7.76-.49c2.54-.31,5-.73,7.52-1.22l2.56-.56c2.1,7.19,8.41,11.17,16.2,12.05s15-1,18.63-8.07c.73.35,1.46.7,2.21,1,2.31,1,4.65,2,7.06,2.87a59.45,59.45,0,0,0,7.45,2.2A58.27,58.27,0,0,0,100.5,315.6Z" fill="#5b2c60"/><path d="M49,312.12a9.49,9.49,0,0,0,.88-4.26,9.93,9.93,0,0,0-.28-2.05c-2.19,1-4.36,2.12-6.49,3.32a58.36,58.36,0,0,0-6.55,4.19,58.26,58.26,0,0,0,7.76-.49C45.89,312.64,47.45,312.39,49,312.12Z" fill="#c62b6b"/><path d="M106,321.14a58.27,58.27,0,0,0-5.45-5.54c-1.81-1.64-3.69-3.19-5.59-4.68a9.61,9.61,0,0,0-.78,6.3c1.44.6,2.89,1.18,4.37,1.72A59.45,59.45,0,0,0,106,321.14Z" fill="#c62b6b"/></g></g></svg>