<svg id="Layer_1" data-name="Layer 1" xmlns="http://www.w3.org/2000/svg" xmlns:xlink="http://www.w3.org/1999/xlink" viewBox="0 0 300 345"><defs><linearGradient id="linear-gradient" x1="150" y1="355.74" x2="150" y2="167.31" gradientUnits="userSpaceOnUse"><stop offset="0" stop-color="#f89e1b"/><stop offset="0.66" stop-color="#bc6334"/></linearGradient></defs><g id="assets"><g id="clothing"><path d="M263.62,298.39H36.38A36.38,36.38,0,0,1,0,262v46.61A36.38,36.38,0,0,0,36.38,345H263.62A36.38,36.38,0,0,0,300,308.62V262A36.38,36.38,0,0,1,263.62,298.39Z" fill="url(#linear-gradient)"/><path d="M263.62,334.14H36.38A36.38,36.38,0,0,1,0,297.76v10.86A36.38,36.38,0,0,0,36.38,345H263.62A36.38,36.38,0,0,0,300,308.62V297.76A36.38,36.38,0,0,1,263.62,334.14Z" fill="#2f2c38"/><path d="M263.62,312.14H36.38A36.38,36.38,0,0,1,0,275.76v10.86A36.38,36.38,0,0,0,36.38,323H263.62A36.38,36.38,0,0,0,300,286.62V275.76A36.38,36.38,0,0,1,263.62,312.14Z" fill="#2f2c38"/></g></g></svg>