<svg id="Layer_1" data-name="Layer 1" xmlns="http://www.w3.org/2000/svg" viewBox="0 0 300 345"><g id="assets"><g id="eyebrows"><path d="M206.34,156.63a48.63,48.63,0,0,1,16.6-14.47,48.12,48.12,0,0,1,5.13-2.42c.88-.35,1.78-.66,2.69-1l1.36-.45,1.39-.37c.93-.24,1.86-.49,2.8-.67l2.85-.49c1-.16,1.92-.19,2.88-.29s1.93-.13,2.9-.14a46.12,46.12,0,0,1,22.2,5.32,45,45,0,0,1,9.23,6.41,39.5,39.5,0,0,1,3.88,4,27,27,0,0,1,3.17,4.55c-3.29-1.66-6.47-3.11-9.68-4.39a87.87,87.87,0,0,0-9.56-3.28,66.18,66.18,0,0,0-19.1-2.6,23.76,23.76,0,0,0-2.39.06c-.8.06-1.6.08-2.39.17l-2.39.24c-.8.1-1.59.27-2.39.37l-1.2.17-1.19.26c-.79.19-1.6.3-2.4.49-1.57.44-3.2.74-4.78,1.27C219.53,151.23,213.17,153.9,206.34,156.63Z" fill="#3f1c12"/><path d="M16.58,156.63a48.63,48.63,0,0,1,16.6-14.47,49.06,49.06,0,0,1,5.13-2.42c.88-.35,1.78-.66,2.69-1l1.36-.45,1.39-.37c.93-.24,1.86-.49,2.8-.67l2.85-.49c1-.16,1.93-.19,2.89-.29s1.93-.13,2.9-.14a46.11,46.11,0,0,1,22.19,5.32,44.75,44.75,0,0,1,9.23,6.41,38.45,38.45,0,0,1,3.88,4,27,27,0,0,1,3.17,4.55c-3.29-1.66-6.47-3.11-9.68-4.39A87.87,87.87,0,0,0,74.42,149a66.18,66.18,0,0,0-19.1-2.6,23.76,23.76,0,0,0-2.39.06c-.8.06-1.59.08-2.39.17l-2.39.24c-.8.1-1.58.27-2.39.37l-1.2.17-1.19.26c-.79.19-1.6.3-2.39.49-1.58.44-3.21.74-4.79,1.27C29.77,151.23,23.41,153.9,16.58,156.63Z" fill="#3f1c12"/></g></g></svg>