<svg id="Layer_1" data-name="Layer 1" xmlns="http://www.w3.org/2000/svg" viewBox="0 0 300 345"><g id="assets"><g id="eyes"><circle cx="242.58" cy="189.94" r="36.45" fill="#fabc2e"/><circle cx="57.42" cy="189.94" r="36.45" fill="#fabc2e"/><circle cx="242.58" cy="200.06" r="36.45" fill="#fff"/><circle cx="57.42" cy="200.06" r="36.45" fill="#fff"/><path d="M89.18,194.77A13.21,13.21,0,0,1,70,176.86a23,23,0,1,0,19.19,17.91Zm-32,19.76a5.46,5.46,0,1,1,5.45-5.45A5.45,5.45,0,0,1,57.14,214.53Z" fill="#141319"/><path d="M255.63,194.64a13.22,13.22,0,0,1-19.07-17.77,24.25,24.25,0,0,0-3.32-.24,23,23,0,1,0,22.39,18Zm-32.22,19.89a5.46,5.46,0,1,1,5.46-5.45A5.45,5.45,0,0,1,223.41,214.53Z" fill="#141319"/></g></g></svg>