<svg id="Layer_1" data-name="Layer 1" xmlns="http://www.w3.org/2000/svg" viewBox="0 0 300 345"><g id="assets"><g id="hair"><path d="M263.62,57H36.38A36.16,36.16,0,0,0,18.7,61.59c-4.68-5.29-7,.11-6.46,4.59A36.24,36.24,0,0,0,0,93.38V155.3s35.81,9.55,75.41-19.54A130.31,130.31,0,0,0,105.13,139c60.68,0,89.89-35.66,89.89-35.66h0s10,41.09,53.88,41.09l-9.28-26.72S254.87,155.3,300,155.3V93.38A36.38,36.38,0,0,0,263.62,57Z" fill="#fabc2e"/><path d="M263.62,45H36.38A36.38,36.38,0,0,0,0,81.38V143.3s45.81,12.23,91.09-33.06L195,91.34s10,41.09,53.88,41.09l-9.28-26.72S254.87,143.3,300,143.3V81.38A36.38,36.38,0,0,0,263.62,45Z" fill="#592a1e"/><path d="M195,91.35S165.81,127,105.13,127,11.39,92.13,11.39,40.28c0,0,22.42,34.37,53.21,34.37S149.7,19,195,91.35Z" fill="#3f1c12"/></g></g></svg>