<svg id="Layer_1" data-name="Layer 1" xmlns="http://www.w3.org/2000/svg" viewBox="0 0 300 345"><g id="assets"><g id="hair"><path d="M263.62,42.1H36.38A36.38,36.38,0,0,0,0,78.48v75.88c73.49,0,129-45.53,129-45.53-19.37,32.29-38,47.83-38,47.83,57.19,0,88.85-41.39,88.85-41.39-12,26.32-49,46.65-49,46.65,86,0,102.67-79.09,102.67-79.09C251.85,145.35,300,154.36,300,154.36V78.48A36.38,36.38,0,0,0,263.62,42.1Z" fill="#fabc2e"/><path d="M263.62,34.19H36.38A36.38,36.38,0,0,0,0,70.57v75.87c73.49,0,129-45.53,129-45.53-19.37,32.29-38,47.83-38,47.83,57.19,0,88.85-41.39,88.85-41.39-12,26.33-49,46.65-49,46.65,86,0,102.67-79.08,102.67-79.08C251.85,137.44,300,146.44,300,146.44V70.57A36.38,36.38,0,0,0,263.62,34.19Z" fill="#3f1c12"/></g></g></svg>