<svg id="Layer_1" data-name="Layer 1" xmlns="http://www.w3.org/2000/svg" viewBox="0 0 300 345"><g id="assets"><g id="hair"><path d="M36.38,45A36.38,36.38,0,0,0,0,81.38v33.67s91.08,30,150-42.56c58.92,72.51,150,42.56,150,42.56V81.38A36.38,36.38,0,0,0,263.62,45H36.38Z" fill="#fabc2e"/><path d="M149.15,68.15s-8.94,43.4,21.32,59c0,0-4-41.62,16.72-62.68" fill="#fabc2e"/><path d="M169.1,88.56s2.88,44.22,36.18,51.23c0,0-14.84-39.08-.47-64.87" fill="#fabc2e"/><path d="M288.51,95.44H260.18l-5.28,14.39s-7.91,21.19,3.83,36,16.6,26.29,11.49,41.61-12,33.2-6.89,52.86,7.15,42.63-5.36,42.63c0,0,16.13,5.44,30.54-4.37Z" fill="#fabc2e"/><path d="M300,100.91H271.67l-5.28,14.38s-7.91,21.2,3.83,36,16.6,26.3,11.49,41.62-12,33.19-6.89,52.85,7.15,42.64-5.36,42.64c0,0,16.13,5.44,30.54-4.37Z" fill="#3f1c12"/><path d="M11.49,95.44H39.82l5.28,14.39s7.91,21.19-3.83,36-16.6,26.29-11.49,41.61,12,33.2,6.89,52.86S29.52,282.93,42,282.93c0,0-16.13,5.44-30.54-4.37Z" fill="#fabc2e"/><path d="M0,100.91H28.33l5.28,14.38s7.91,21.2-3.83,36-16.6,26.3-11.49,41.62,12,33.19,6.89,52.85S18,288.4,30.54,288.4c0,0-16.13,5.44-30.54-4.37Z" fill="#3f1c12"/><path d="M36.38,34.19A36.38,36.38,0,0,0,0,70.57v33.66s91.08,30,150-42.55c58.92,72.51,150,42.55,150,42.55V70.57a36.38,36.38,0,0,0-36.38-36.38H36.38Z" fill="#3f1c12"/><path d="M149.15,57.34s-8.94,43.4,21.32,59c0,0-4-41.62,16.72-62.68" fill="#3f1c12"/><path d="M169.1,77.75S172,122,205.28,129c0,0-14.84-39.08-.47-64.87" fill="#3f1c12"/></g></g></svg>