<svg id="Layer_1" data-name="Layer 1" xmlns="http://www.w3.org/2000/svg" viewBox="0 0 300 345"><g id="assets"><g id="hat"><path d="M267.88,95a51.47,51.47,0,0,1,9.05.79A10.62,10.62,0,0,0,289,88.65a101.43,101.43,0,0,0,4.41-30.11c0-30.64-1.6-55.48-25.43-55.48S242.58,27.9,242.58,58.54A101.32,101.32,0,0,0,247,88.69a10.52,10.52,0,0,0,11.94,7.08A51.27,51.27,0,0,1,267.88,95Z" fill="#c6e9f6"/><path d="M267.9,91a41.76,41.76,0,0,1,7.24.63,8.48,8.48,0,0,0,9.65-5.7,81,81,0,0,0,3.52-24c0-24.47-1.27-44.31-20.31-44.31s-20.3,19.84-20.3,44.31a80.86,80.86,0,0,0,3.53,24.08,8.4,8.4,0,0,0,9.53,5.65A41.77,41.77,0,0,1,267.9,91Z" fill="#ebf7fd"/><path d="M268,86.82a23.19,23.19,0,0,1,4.2.38,4.9,4.9,0,0,0,5.6-3.45A50.79,50.79,0,0,0,279.8,69.2c0-14.81-.74-26.82-11.8-26.82s-11.79,12-11.79,26.82a50.88,50.88,0,0,0,2.05,14.57,4.86,4.86,0,0,0,5.54,3.42A23.47,23.47,0,0,1,268,86.82Z" fill="#f5a9ca"/><path d="M264.51,88.7s-.81-7.15,8.89-11.23L274,88.7" fill="#ebf7fd"/><path d="M32.12,95a51.47,51.47,0,0,0-9,.79A10.62,10.62,0,0,1,11,88.65,101.43,101.43,0,0,1,6.57,58.54C6.57,27.9,8.17,3.06,32,3.06S57.42,27.9,57.42,58.54A101.32,101.32,0,0,1,53,88.69a10.52,10.52,0,0,1-11.94,7.08A51.27,51.27,0,0,0,32.12,95Z" fill="#c6e9f6"/><path d="M32.1,91a41.76,41.76,0,0,0-7.24.63,8.48,8.48,0,0,1-9.65-5.7,81,81,0,0,1-3.52-24C11.69,37.36,13,17.52,32,17.52S52.3,37.36,52.3,61.83a80.86,80.86,0,0,1-3.53,24.08,8.4,8.4,0,0,1-9.53,5.65A41.77,41.77,0,0,0,32.1,91Z" fill="#ebf7fd"/><path d="M32.05,86.82a23.19,23.19,0,0,0-4.2.38,4.9,4.9,0,0,1-5.6-3.45A50.79,50.79,0,0,1,20.2,69.2c0-14.81.74-26.82,11.8-26.82s11.79,12,11.79,26.82a50.88,50.88,0,0,1-2,14.57,4.86,4.86,0,0,1-5.54,3.42A23.47,23.47,0,0,0,32.05,86.82Z" fill="#f5a9ca"/><path d="M35.49,88.7s.81-7.15-8.89-11.23L26,88.7" fill="#ebf7fd"/></g></g></svg>