<svg id="Layer_1" data-name="Layer 1" xmlns="http://www.w3.org/2000/svg" viewBox="0 0 300 345"><g id="assets"><g id="hat"><ellipse cx="65.43" cy="71.37" rx="67.17" ry="19.45" transform="translate(-15.03 17.51) rotate(-13.69)" fill="#42308a"/><path d="M38.88,9l-23,72.63s19.51,5,51.39-2.79,46.92-21.15,46.92-21.15L60.33,3.8A12.91,12.91,0,0,0,38.88,9Z" fill="#5a459b"/><path d="M77.83,39.66l2.68,4.42a2.22,2.22,0,0,0,1.77,1.06l5.16.3A2.21,2.21,0,0,1,89,49.09L85.62,53a2.21,2.21,0,0,0-.46,2l1.31,5a2.21,2.21,0,0,1-3,2.6l-4.77-2a2.22,2.22,0,0,0-2,.18l-4.35,2.8a2.21,2.21,0,0,1-3.4-2l.42-5.15a2.2,2.2,0,0,0-.81-1.9l-4-3.27a2.22,2.22,0,0,1,.89-3.87l5-1.19A2.21,2.21,0,0,0,72,44.83L73.87,40A2.22,2.22,0,0,1,77.83,39.66Z" fill="#ffcc05"/><path d="M47.82,10.5l-5.51,1.85A2.48,2.48,0,0,1,40,12l-1.69-1.27L32.75,28.36a2.42,2.42,0,0,1,.78,1.15l1.72,5.55a2.48,2.48,0,0,0,4.4.71L43,31A2.5,2.5,0,0,1,45.08,30l5.8.09a2.49,2.49,0,0,0,2-4l-3.46-4.66a2.5,2.5,0,0,1-.36-2.29L51,13.65A2.48,2.48,0,0,0,47.82,10.5Z" fill="#ffcc05"/><path d="M48.54,77.85a2.51,2.51,0,0,1-.36-2.29l1.88-5.5a2.48,2.48,0,0,0-3.15-3.15l-5.5,1.85a2.5,2.5,0,0,1-2.29-.36l-4.65-3.49a2.48,2.48,0,0,0-4,2l.06,5.81a2.5,2.5,0,0,1-1,2.06l-4.75,3.34a2.49,2.49,0,0,0,.69,4.41l1.62.51a127.42,127.42,0,0,0,24.47-1.18Z" fill="#ffcc05"/></g></g></svg>