<svg id="Layer_1" data-name="Layer 1" xmlns="http://www.w3.org/2000/svg" viewBox="0 0 300 345"><g id="assets"><g id="hat"><path d="M255.2,56.9l-6.8-15.18c8.59-10.84,24.5-5.32,24.5-5.32S269.65,52.93,255.2,56.9Z" fill="#6ca249"/><path d="M287.5,87.16,275.19,76c3.53-13.37,20.33-14.68,20.33-14.68S299.14,77.74,287.5,87.16Z" fill="#90c973"/><path d="M253.54,54.83l-13.6-9.57c1.83-13.7,18.34-17.09,18.34-17.09S263.92,44,253.54,54.83Z" fill="#90c973"/><path d="M120.39,69.86s1.78,9.45-1.71,14.9c0,0-9.34-4.09-10.32-14.57" fill="#6ca249"/><path d="M126.43,58.83S135.68,61.43,139,67c0,0-7.81,6.55-17.63,2.77" fill="#6ca249"/><path d="M125,65.42s7.29,6.27,8,12.7c0,0-9.85,2.64-17.15-4.93" fill="#90c973"/><path d="M91.4,75.35s1.8,9.44,7,13.24c0,0,7.19-7.22,4.27-17.33" fill="#6ca249"/><path d="M81.74,67.3S74.08,73.1,73,79.48c0,0,9.67,3.25,17.43-3.86" fill="#6ca249"/><path d="M85.52,72.9S81,81.39,82.75,87.63c0,0,10.13-1.15,14.16-10.87" fill="#90c973"/><ellipse cx="91.28" cy="49.56" rx="16.21" ry="20.9" transform="translate(-11.8 36.83) rotate(-21.46)" fill="#e874ac"/><ellipse cx="111.46" cy="45.74" rx="16.21" ry="20.9" fill="#e874ac"/><ellipse cx="102.45" cy="53.83" rx="18.94" ry="17.56" transform="translate(-8.23 20.01) rotate(-10.73)" fill="#e05ba0"/><ellipse cx="102.73" cy="55.29" rx="9.82" ry="11.63" transform="matrix(0.98, -0.19, 0.19, 0.98, -8.5, 20.09)" fill="#d04393"/><path d="M105,66.09A20,20,0,0,0,131.12,35.7c-8.4-7.21-9.88-2.44-20.62,10.06S96.62,58.88,105,66.09Z" fill="#f28dba"/><path d="M104,66.27A20,20,0,1,1,68.63,47.54c5.17-9.78,8.3-5.88,22.87,1.82S109.21,56.5,104,66.27Z" fill="#f28dba"/><path d="M123.1,55.2a20,20,0,1,1-39.36,7.45c-2.06-10.87,2.82-9.77,19-12.84S121,44.33,123.1,55.2Z" fill="#f5a9ca"/><path d="M228.28,75.73s-2,9.39-7.38,13c0,0-7-7.4-3.82-17.43" fill="#6ca249"/><path d="M238.15,67.94s7.5,6,8.41,12.4c0,0-9.74,3-17.31-4.31" fill="#6ca249"/><path d="M234.22,73.43s4.27,8.61,2.39,14.8c0,0-10.1-1.41-13.87-11.23" fill="#90c973"/><path d="M199.45,69.49s-2,9.39,1.32,14.93c0,0,9.44-3.84,10.69-14.29" fill="#6ca249"/><path d="M193.7,58.31s-9.32,2.35-12.8,7.81c0,0,7.63,6.75,17.55,3.23" fill="#6ca249"/><path d="M195,64.93S187.54,71,186.7,77.42c0,0,9.77,2.89,17.27-4.49" fill="#90c973"/><path d="M262.1,90.58s-3.42,6.14-7.93,7.56c0,0-3.33-6.67,1-13" fill="#6ca249"/><path d="M270.66,87.23s4,5.79,3.25,10.46c0,0-7.45,0-11.19-6.7" fill="#6ca249"/><path d="M266.75,90.24s1.15,6.93-1.48,10.86c0,0-6.76-3.14-7.31-10.81" fill="#90c973"/><path d="M243.27,80.09s-3.42,6.14-2.26,10.72c0,0,7.43-.68,10.52-7.72" fill="#6ca249"/><path d="M241.62,71s-7-.33-10.61,2.74c0,0,3.9,6.35,11.59,6" fill="#6ca249"/><path d="M241.12,76s-6.5,2.67-8.46,7c0,0,6.22,4.11,13,.54" fill="#90c973"/><ellipse cx="209.4" cy="45.69" rx="20.9" ry="16.21" transform="translate(158.26 253.83) rotate(-88.51)" fill="#e874ac"/><ellipse cx="229.47" cy="50.04" rx="20.9" ry="16.21" transform="translate(93.91 241.83) rotate(-67.05)" fill="#e874ac"/><ellipse cx="218.02" cy="53.98" rx="17.56" ry="18.94" transform="translate(119.11 255.63) rotate(-77.78)" fill="#e05ba0"/><ellipse cx="217.7" cy="55.43" rx="11.63" ry="9.82" transform="translate(117.44 256.47) rotate(-77.78)" fill="#d04393"/><path d="M215.6,66.26a20,20,0,1,0,35.88-17.8c-4.91-9.91-8.14-6.1-22.9,1.23S210.68,56.36,215.6,66.26Z" fill="#f28dba"/><path d="M214.63,66.05A20,20,0,0,1,189.33,35c8.57-7,9.93-2.17,20.34,10.6S223.2,59.07,214.63,66.05Z" fill="#f28dba"/><path d="M236.5,63.29a20,20,0,0,1-39.15-8.48c2.34-10.82,6.4-7.91,22.51-4.42S238.84,52.48,236.5,63.29Z" fill="#f5a9ca"/><ellipse cx="255.28" cy="65.56" rx="15.28" ry="11.85" transform="translate(112.5 287.1) rotate(-71.6)" fill="#e874ac"/><ellipse cx="268.4" cy="72.87" rx="15.28" ry="11.85" transform="translate(40.45 232.2) rotate(-50.14)" fill="#e874ac"/><ellipse cx="259.55" cy="73.18" rx="12.84" ry="13.85" transform="translate(69.28 264.28) rotate(-60.87)" fill="#e05ba0"/><ellipse cx="259.02" cy="74.14" rx="8.5" ry="7.18" transform="translate(68.17 264.31) rotate(-60.87)" fill="#d04393"/><path d="M255.25,81.26a14.64,14.64,0,1,0,28.88-4.82c-1.33-8-4.4-6-16.28-4S253.91,73.29,255.25,81.26Z" fill="#f28dba"/><path d="M254.61,80.91a14.64,14.64,0,1,1-11.09-27.1c7.48-3.06,7.41.59,12,11.74S262.1,77.85,254.61,80.91Z" fill="#f28dba"/><path d="M270.5,83.62a14.64,14.64,0,1,1-25.58-14.25c3.93-7.06,6.16-4.17,16.68,1.7S274.43,76.56,270.5,83.62Z" fill="#f5a9ca"/><path d="M52.12,49.52l-16.62.61c-6.83-12,4.27-24.71,4.27-24.71S53.87,34.64,52.12,49.52Z" fill="#6ca249"/><path d="M83.19,65.41,72.66,52.53C78.11,39.82,94.92,41,94.92,41S96.09,57.8,83.19,65.41Z" fill="#90c973"/><path d="M49.58,50.29l-14,9c-12-6.84-9-23.41-9-23.41S43.47,36.61,49.58,50.29Z" fill="#90c973"/><path d="M36.77,62.54l-14,16.95C4.92,75.69,2.13,53.62,2.13,53.62S23.6,47.78,36.77,62.54Z" fill="#6ca249"/><path d="M35.29,65.72,31.94,87.43C14.64,93.3,1,75.75,1,75.75S16.43,59.76,35.29,65.72Z" fill="#90c973"/><ellipse cx="26.77" cy="109.19" rx="4.58" ry="11.27" transform="translate(-17.56 5.88) rotate(-9.45)" fill="#9ad4ee"/><ellipse cx="23.09" cy="87.09" rx="4.58" ry="11.27" transform="translate(-13.98 4.97) rotate(-9.45)" fill="#9ad4ee"/><ellipse cx="13.88" cy="99.98" rx="11.27" ry="4.58" transform="translate(-16.22 3.63) rotate(-9.45)" fill="#9ad4ee"/><ellipse cx="35.99" cy="96.3" rx="11.27" ry="4.58" transform="translate(-15.32 7.21) rotate(-9.45)" fill="#9ad4ee"/><ellipse cx="31.45" cy="89.02" rx="11.27" ry="4.58" transform="translate(-59.27 62.85) rotate(-54.45)" fill="#9ad4ee"/><ellipse cx="18.42" cy="107.26" rx="11.27" ry="4.58" transform="translate(-79.55 59.88) rotate(-54.45)" fill="#9ad4ee"/><ellipse cx="34.05" cy="104.66" rx="4.58" ry="11.27" transform="translate(-70.9 71.51) rotate(-54.45)" fill="#9ad4ee"/><ellipse cx="15.82" cy="91.63" rx="4.58" ry="11.27" transform="translate(-67.93 51.22) rotate(-54.45)" fill="#9ad4ee"/><ellipse cx="31" cy="109.51" rx="5.27" ry="12.97" transform="translate(-47.92 27.5) rotate(-28.09)" fill="#d0ebf6"/><ellipse cx="18.86" cy="86.77" rx="5.27" ry="12.97" transform="translate(-38.64 19.11) rotate(-28.09)" fill="#d0ebf6"/><ellipse cx="13.56" cy="104.21" rx="12.97" ry="5.27" transform="translate(-47.48 18.66) rotate(-28.09)" fill="#d0ebf6"/><ellipse cx="36.3" cy="92.07" rx="12.97" ry="5.27" transform="translate(-39.08 27.94) rotate(-28.09)" fill="#d0ebf6"/><ellipse cx="28.68" cy="85.81" rx="12.97" ry="5.27" transform="translate(-61.76 88.3) rotate(-73.09)" fill="#ebf7fd"/><ellipse cx="21.18" cy="110.47" rx="12.97" ry="5.27" transform="translate(-90.68 98.62) rotate(-73.09)" fill="#ebf7fd"/><ellipse cx="37.27" cy="101.89" rx="5.27" ry="12.97" transform="translate(-71.06 107.91) rotate(-73.09)" fill="#ebf7fd"/><ellipse cx="12.6" cy="94.39" rx="5.27" ry="12.97" transform="translate(-81.38 79) rotate(-73.09)" fill="#ebf7fd"/><circle cx="24.91" cy="98.22" r="9.51" fill="#d0ebf6"/><circle cx="24.91" cy="98.22" r="6.77" fill="#ffdd15"/><ellipse cx="268.44" cy="109.98" rx="11.27" ry="4.58" transform="translate(14.93 251) rotate(-51.37)" fill="#9ad4ee"/><ellipse cx="282.43" cy="92.47" rx="11.27" ry="4.58" transform="translate(33.86 255.35) rotate(-51.37)" fill="#9ad4ee"/><ellipse cx="266.68" cy="94.23" rx="4.58" ry="11.27" transform="translate(26.57 243.71) rotate(-51.37)" fill="#9ad4ee"/><ellipse cx="284.19" cy="108.22" rx="4.58" ry="11.27" transform="translate(22.22 262.64) rotate(-51.37)" fill="#9ad4ee"/><ellipse cx="286.57" cy="99.98" rx="11.27" ry="4.58" transform="translate(-9.32 32.39) rotate(-6.37)" fill="#9ad4ee"/><ellipse cx="264.3" cy="102.47" rx="11.27" ry="4.58" transform="translate(-9.73 29.93) rotate(-6.37)" fill="#9ad4ee"/><ellipse cx="276.68" cy="112.36" rx="4.58" ry="11.27" transform="translate(-10.75 31.37) rotate(-6.37)" fill="#9ad4ee"/><ellipse cx="274.19" cy="90.09" rx="4.58" ry="11.27" transform="translate(-8.3 30.95) rotate(-6.37)" fill="#9ad4ee"/><ellipse cx="271.03" cy="113.34" rx="12.97" ry="5.27" transform="translate(71.87 329.3) rotate(-70.01)" fill="#d0ebf6"/><ellipse cx="279.84" cy="89.11" rx="12.97" ry="5.27" transform="translate(100.44 321.63) rotate(-70.01)" fill="#d0ebf6"/><ellipse cx="263.32" cy="96.82" rx="5.27" ry="12.97" transform="translate(82.32 311.18) rotate(-70.01)" fill="#d0ebf6"/><ellipse cx="287.55" cy="105.63" rx="5.27" ry="12.97" transform="translate(89.99 339.75) rotate(-70.01)" fill="#d0ebf6"/><ellipse cx="287.12" cy="95.78" rx="12.97" ry="5.27" transform="translate(-13.57 130.37) rotate(-25.01)" fill="#ebf7fd"/><ellipse cx="263.75" cy="106.67" rx="12.97" ry="5.27" transform="translate(-20.37 121.52) rotate(-25.01)" fill="#ebf7fd"/><ellipse cx="280.89" cy="112.91" rx="5.27" ry="12.97" transform="translate(-21.4 129.34) rotate(-25.01)" fill="#ebf7fd"/><ellipse cx="269.99" cy="89.54" rx="5.27" ry="12.97" transform="translate(-12.54 122.55) rotate(-25.01)" fill="#ebf7fd"/><circle cx="275.36" cy="101.26" r="9.51" fill="#d0ebf6"/><circle cx="275.36" cy="101.26" r="6.77" fill="#ffdd15"/><ellipse cx="71.88" cy="81.44" rx="6.58" ry="16.2" transform="translate(-36.74 81.13) rotate(-48.4)" fill="#9ad4ee"/><ellipse cx="47.79" cy="60.05" rx="6.58" ry="16.2" transform="translate(-28.85 55.93) rotate(-48.4)" fill="#9ad4ee"/><ellipse cx="49.15" cy="82.79" rx="16.2" ry="6.58" transform="translate(-45.39 64.58) rotate(-48.4)" fill="#9ad4ee"/><ellipse cx="70.53" cy="58.7" rx="16.2" ry="6.58" transform="translate(-20.19 72.47) rotate(-48.4)" fill="#9ad4ee"/><ellipse cx="58.88" cy="54.67" rx="6.58" ry="16.2" transform="translate(-3.14 3.59) rotate(-3.4)" fill="#9ad4ee"/><ellipse cx="60.79" cy="86.82" rx="6.58" ry="16.2" transform="translate(-5.04 3.76) rotate(-3.4)" fill="#9ad4ee"/><ellipse cx="75.91" cy="69.79" rx="16.2" ry="6.58" transform="translate(-4.01 4.63) rotate(-3.4)" fill="#9ad4ee"/><ellipse cx="43.76" cy="71.7" rx="16.2" ry="6.58" transform="translate(-4.18 2.72) rotate(-3.4)" fill="#9ad4ee"/><ellipse cx="76.9" cy="77.97" rx="7.57" ry="18.64" transform="translate(-24.89 118.38) rotate(-67.05)" fill="#d0ebf6"/><ellipse cx="42.78" cy="63.52" rx="7.57" ry="18.64" transform="translate(-32.4 78.14) rotate(-67.05)" fill="#d0ebf6"/><ellipse cx="52.61" cy="87.81" rx="18.64" ry="7.57" transform="translate(-48.76 102.01) rotate(-67.05)" fill="#d0ebf6"/><ellipse cx="67.06" cy="53.69" rx="18.64" ry="7.57" transform="translate(-8.53 94.5) rotate(-67.05)" fill="#d0ebf6"/><ellipse cx="52.88" cy="53.57" rx="7.57" ry="18.64" transform="translate(-16.24 23.77) rotate(-22.05)" fill="#ebf7fd"/><ellipse cx="66.79" cy="87.92" rx="7.57" ry="18.64" transform="translate(-28.12 31.5) rotate(-22.05)" fill="#ebf7fd"/><ellipse cx="77.01" cy="63.79" rx="18.64" ry="7.57" transform="translate(-18.31 33.57) rotate(-22.05)" fill="#ebf7fd"/><ellipse cx="42.67" cy="77.7" rx="18.64" ry="7.57" transform="translate(-26.05 21.7) rotate(-22.05)" fill="#ebf7fd"/><circle cx="59.88" cy="70.85" r="13.67" fill="#d0ebf6"/><circle cx="59.88" cy="70.85" r="9.73" fill="#ffdd15"/><ellipse cx="159.76" cy="75.9" rx="6.58" ry="16.2" transform="translate(-14.49 45.55) rotate(-15.53)" fill="#9ad4ee"/><ellipse cx="151.13" cy="44.87" rx="6.58" ry="16.2" transform="translate(-6.5 42.11) rotate(-15.53)" fill="#9ad4ee"/><ellipse cx="139.93" cy="64.7" rx="16.2" ry="6.58" transform="translate(-12.21 39.83) rotate(-15.53)" fill="#9ad4ee"/><ellipse cx="170.96" cy="56.07" rx="16.2" ry="6.58" transform="translate(-8.77 47.83) rotate(-15.53)" fill="#9ad4ee"/><ellipse cx="163.37" cy="46.37" rx="16.2" ry="6.58" transform="matrix(0.49, -0.87, 0.87, 0.49, 42.63, 165.79)" fill="#9ad4ee"/><ellipse cx="147.52" cy="74.41" rx="16.2" ry="6.58" transform="translate(10.17 166.24) rotate(-60.53)" fill="#9ad4ee"/><ellipse cx="169.47" cy="68.31" rx="6.58" ry="16.2" transform="translate(26.63 182.25) rotate(-60.53)" fill="#9ad4ee"/><ellipse cx="141.43" cy="52.46" rx="6.58" ry="16.2" transform="translate(26.17 149.78) rotate(-60.53)" fill="#9ad4ee"/><ellipse cx="165.85" cy="75.71" rx="7.57" ry="18.64" transform="translate(-13.89 106.25) rotate(-34.18)" fill="#d0ebf6"/><ellipse cx="145.04" cy="45.06" rx="7.57" ry="18.64" transform="translate(-0.26 89.26) rotate(-34.18)" fill="#d0ebf6"/><ellipse cx="140.12" cy="70.79" rx="18.64" ry="7.57" transform="translate(-15.57 90.94) rotate(-34.18)" fill="#d0ebf6"/><ellipse cx="170.77" cy="49.98" rx="18.64" ry="7.57" transform="translate(1.42 104.56) rotate(-34.18)" fill="#d0ebf6"/><ellipse cx="158.93" cy="42.19" rx="18.64" ry="7.57" transform="translate(87.64 190.37) rotate(-79.18)" fill="#ebf7fd"/><ellipse cx="151.97" cy="78.58" rx="18.64" ry="7.57" transform="translate(46.25 213.09) rotate(-79.18)" fill="#ebf7fd"/><ellipse cx="173.64" cy="63.87" rx="7.57" ry="18.64" transform="translate(78.31 222.43) rotate(-79.18)" fill="#ebf7fd"/><ellipse cx="137.25" cy="56.91" rx="7.57" ry="18.64" transform="translate(55.58 181.03) rotate(-79.18)" fill="#ebf7fd"/><circle cx="155.43" cy="60.5" r="13.67" fill="#d0ebf6"/><circle cx="155.43" cy="60.5" r="9.73" fill="#ffdd15"/></g></g></svg>