<svg id="Layer_1" data-name="Layer 1" xmlns="http://www.w3.org/2000/svg" xmlns:xlink="http://www.w3.org/1999/xlink" viewBox="0 0 300 345"><defs><linearGradient id="linear-gradient" x1="55.21" y1="384.31" x2="55.21" y2="322.9" gradientTransform="translate(-41.85 -37) rotate(-8.1)" gradientUnits="userSpaceOnUse"><stop offset="0" stop-color="#f39749"/><stop offset="0.69" stop-color="#d15927"/></linearGradient></defs><g id="assets"><g id="item"><path d="M93.5,231c.14.27,7.59,15.11,5.1,27.32a44.6,44.6,0,0,1,8,20.5l2.85,20,.13.89,2.07,14.54a11.47,11.47,0,0,1-9.74,13l-18,2.57L49.1,334.7l-18,2.57a11.26,11.26,0,0,1-1.63.11,11.45,11.45,0,0,1-11.33-9.84L16,313l-.13-.89-2.85-20a44.84,44.84,0,0,1,2-21.93c-5.79-11-2.78-27.36-2.73-27.65.24,0,11.54,1.66,20.31,7.32a59.11,59.11,0,0,1,21.18-6.94,68.24,68.24,0,0,1,9.59-.7,53.39,53.39,0,0,1,12.68,1.46c6.84-7.89,17.23-12.61,17.45-12.71m1.85-5.22-3.49,1.58a63.3,63.3,0,0,0-17.19,12,59.12,59.12,0,0,0-11.3-1.06,72.8,72.8,0,0,0-10.16.74,64.32,64.32,0,0,0-20.51,6.29,63.28,63.28,0,0,0-19.85-6.67L9.06,238l-.7,3.76c-.13.7-3,16.61,2.34,28.64a49.28,49.28,0,0,0-1.61,22.24l2.85,20,.13.9,2.07,14.53a15.53,15.53,0,0,0,15.29,13.28,16,16,0,0,0,2.19-.15l18-2.57,34.79-5,18-2.57a15.48,15.48,0,0,0,13.13-17.49l-2.07-14.53-.13-.9-2.85-20a49.26,49.26,0,0,0-7.75-20.91c1.78-13.05-5.42-27.51-5.75-28.15l-1.72-3.42Z" fill="#d15927"/><path d="M101.93,327.18,31.06,337.27a11.46,11.46,0,0,1-13-9.73l-2.2-15.43,93.56-13.32,2.2,15.43A11.47,11.47,0,0,1,101.93,327.18Z" fill="url(#linear-gradient)"/><path d="M53.78,242.91C24.9,247,9.38,266.27,13.05,292.11L16,313a11.45,11.45,0,0,0,13,9.73l70.87-10.09a11.46,11.46,0,0,0,9.73-13l-3-20.9C102.93,253,82.65,238.8,53.78,242.91Z" fill="#f39749"/><path d="M47.12,320.15l34.61-4.92.09,0S85.54,283.4,60.06,287s-13,33.15-13,33.15Z" fill="#fbc194"/><rect x="47.89" y="317.62" width="35.14" height="14.68" transform="translate(-45.15 12.47) rotate(-8.1)" fill="#f7aa74"/><path d="M70.5,306.81c-6-1.66-8.7-7.56-8.7-7.56s-.95,6.41-6.25,9.69" fill="none" stroke="#404041" stroke-linecap="round" stroke-miterlimit="10" stroke-width="3.15"/><path d="M54.29,296.07c.42,2.94,4.83,5.12,7.73,4.71s6.47-4.1,6.1-6.67S53.87,293.14,54.29,296.07Z" fill="#404041"/><line x1="94.5" y1="304.89" x2="103.35" y2="306.58" fill="none" stroke="#404041" stroke-linecap="round" stroke-miterlimit="10" stroke-width="2.2"/><line x1="93.81" y1="300.33" x2="103.34" y2="299.38" fill="none" stroke="#404041" stroke-linecap="round" stroke-miterlimit="10" stroke-width="2.2"/><line x1="31.97" y1="313.8" x2="23.94" y2="317.89" fill="none" stroke="#404041" stroke-linecap="round" stroke-miterlimit="10" stroke-width="2.2"/><line x1="31.36" y1="309.22" x2="21.95" y2="310.97" fill="none" stroke="#404041" stroke-linecap="round" stroke-miterlimit="10" stroke-width="2.2"/><path d="M99.72,284.12,79.52,293l-.06,0S67,277.54,81.86,271s17.91,13.11,17.91,13.11Z" fill="#fbc194"/><path d="M21.16,295.3,43,298.22h.06s7.66-18.38-8.46-20.53S21.1,295.29,21.1,295.29Z" fill="#fbc194"/><path d="M42.94,292.24a11.48,11.48,0,1,1-22.74,3.24c-.89-6.28,3.74-10.21,10-11.1S42.05,286,42.94,292.24Z" fill="#404041"/><path d="M43.29,294.66c.83,5.87-3.58,11.36-9.86,12.25s-12-3.14-12.88-9,3.84-9.47,10.12-10.37S42.45,288.79,43.29,294.66Z" fill="#fff"/><path d="M36.9,295.47a4.16,4.16,0,0,1-4.33-5.92c-3.52.57-4.35,3.9-3.8,7.77s2.37,6.89,5.93,6.38,4.46-3.87,3.91-7.78q-.07-.51-.18-1A4.11,4.11,0,0,1,36.9,295.47Zm-4.24,6.06a1.72,1.72,0,1,1-.48-3.4,1.7,1.7,0,0,1,1.94,1.45A1.72,1.72,0,0,1,32.66,301.53Z" fill="#404041"/><path d="M100.68,284A11.48,11.48,0,1,1,78,287.26c-.9-6.28,3.74-10.21,10-11.1S99.79,277.74,100.68,284Z" fill="#404041"/><path d="M101,286.44c.84,5.87-3.58,11.36-9.86,12.25s-12-3.14-12.88-9,3.85-9.47,10.13-10.37S100.19,280.57,101,286.44Z" fill="#fff"/><path d="M91.5,287.69a4.15,4.15,0,0,1-4.32-5.91h-.13c-3.62.52-4.47,3.88-3.91,7.79s2.37,6.89,5.92,6.38,4.47-3.87,3.92-7.78c0-.31-.1-.62-.16-.91A4.08,4.08,0,0,1,91.5,287.69Zm-4.23,6.06a1.72,1.72,0,0,1-.49-3.4,1.72,1.72,0,1,1,.49,3.4Z" fill="#404041"/><path d="M71.21,251.65C75.7,238.94,93.52,231,93.52,231h0s8.83,17.41,4.34,30.12c0,0-4.34,1.32-14.22-2.17S71.21,251.65,71.21,251.65Z" fill="#f39749"/><path d="M39.48,256.16c-7.86-10.94-27.2-13.64-27.2-13.64h0s-3.62,19.19,4.24,30.13c0,0,4.54.07,13-6S39.48,256.16,39.48,256.16Z" fill="#f39749"/><path d="M30.22,257c-3.79-5.27-13.11-6.57-13.11-6.57h0s-1.74,9.24,2,14.51c0,0,2.19,0,6.29-2.91S30.22,257,30.22,257Z" fill="#dc7398"/><path d="M80.32,249.82c2.16-6.12,10.75-10,10.75-10h0s4.25,8.39,2.09,14.51c0,0-2.09.64-6.85-1S80.32,249.82,80.32,249.82Z" fill="#dc7398"/><path d="M45.19,250.13l-3.9,13.42s9.73,0,14.69-8.21l1,9.81s11.81-5.1,10.29-15.77" fill="#f39749"/><path d="M45.19,250.13A66.66,66.66,0,0,1,43.93,257,55.86,55.86,0,0,1,42,263.75l-.71-.94h0a18.58,18.58,0,0,0,4.13-.65,18.85,18.85,0,0,0,3.91-1.55,15.06,15.06,0,0,0,3.39-2.42A16,16,0,0,0,55.35,255l1.16-1.74.21,2.05,1,9.81-1-.6h0a26.12,26.12,0,0,0,4-2.68,20.57,20.57,0,0,0,3.39-3.4,14,14,0,0,0,2.22-4.19,22.71,22.71,0,0,0,1-4.83,9.39,9.39,0,0,1,.37,5.18,13.12,13.12,0,0,1-2.17,4.85,18.23,18.23,0,0,1-3.67,3.77,17.59,17.59,0,0,1-2.17,1.47,17.92,17.92,0,0,1-2.36,1.18h0l-.92.41-.11-1-1-9.82,1.36.31a17.51,17.51,0,0,1-2.88,3.54A16.41,16.41,0,0,1,50,261.91a20.47,20.47,0,0,1-8.73,2.37h0l-.92.08.21-1a55.88,55.88,0,0,1,2-6.7A63.81,63.81,0,0,1,45.19,250.13Z" fill="#d15927"/><ellipse cx="38.77" cy="278.93" rx="3.99" ry="5.94" transform="translate(-242.58 291.12) rotate(-84.57)" fill="#d15927"/><ellipse cx="78.25" cy="273.33" rx="5.94" ry="3.99" transform="translate(-95.27 48.11) rotate(-21.64)" fill="#d15927"/></g></g></svg>