<svg id="Layer_1" data-name="Layer 1" xmlns="http://www.w3.org/2000/svg" xmlns:xlink="http://www.w3.org/1999/xlink" viewBox="0 0 300 345"><defs><linearGradient id="linear-gradient" x1="51.66" y1="434.41" x2="51.66" y2="373" gradientTransform="translate(-45.39 -87.1) rotate(-8.1)" gradientUnits="userSpaceOnUse"><stop offset="0" stop-color="#f5a9ca"/><stop offset="0.69" stop-color="#cd5383"/></linearGradient></defs><g id="assets"><g id="item"><path d="M89.21,224.24a5.57,5.57,0,0,1,5.36,4c.69,2.29,1.38,4.8,1.92,7.19a11.45,11.45,0,0,1,5.08,8l7.89,55.44.13.89,2.07,14.54a11.47,11.47,0,0,1-9.74,13L31.06,337.27a11.26,11.26,0,0,1-1.63.11,11.45,11.45,0,0,1-11.33-9.84L16,313l-.13-.89L8,256.67a11.43,11.43,0,0,1,2.65-9.06c-.15-2.45-.19-5-.16-7.44a5.58,5.58,0,0,1,5.58-5.51,5.52,5.52,0,0,1,2.81.77,79,79,0,0,1,9.94,6.7l48.69-6.93A78,78,0,0,1,85.19,226a5.48,5.48,0,0,1,4-1.75m0-4a9.47,9.47,0,0,0-6.93,3,91.88,91.88,0,0,0-7,8.24L30,237.93a92.08,92.08,0,0,0-9-6A9.57,9.57,0,0,0,6.5,240.13q0,3.36.09,6.23a15.39,15.39,0,0,0-2.54,10.88l7.89,55.43.13.9,2.07,14.53a15.53,15.53,0,0,0,15.29,13.28,16,16,0,0,0,2.19-.15l70.87-10.09a15.48,15.48,0,0,0,13.13-17.49l-2.07-14.53-.13-.9-7.89-55.43a15.49,15.49,0,0,0-5.48-9.74c-.45-1.85-1-3.86-1.65-6a9.54,9.54,0,0,0-9.19-6.81Z" fill="#c62b6b"/><path d="M101.93,327.18,31.06,337.27a11.46,11.46,0,0,1-13-9.73l-2.2-15.43,93.56-13.32,2.2,15.43A11.47,11.47,0,0,1,101.93,327.18Z" fill="url(#linear-gradient)"/><rect x="11.55" y="238.27" width="94.5" height="79.82" rx="11.46" transform="translate(-38.62 11.07) rotate(-8.1)" fill="#f5a9ca"/><path d="M60.5,290.12c-11.64,1.65-19,21.27-14.77,24.41s32.89-1.28,35.76-5.09S72.13,288.46,60.5,290.12Z" fill="#dc7398"/><path d="M75.58,302.66a4.49,4.49,0,1,1-6.86,5.81c-1.6-1.89-1-8.13-1-8.13S74,300.77,75.58,302.66Z" fill="#cb4d8c"/><path d="M75,305.1a4.45,4.45,0,0,1,1,2.66,4.49,4.49,0,0,0-.49-5.1c-1.6-1.89-7.85-2.32-7.85-2.32s-.11,1.08-.11,2.48C69.08,303,73.68,303.51,75,305.1Z" fill="#c62b6b"/><path d="M49.51,306.37A4.5,4.5,0,0,0,57.72,310c1-2.27-1.31-8.09-1.31-8.09S50.52,304.11,49.51,306.37Z" fill="#cb4d8c"/><path d="M50.73,308.56c.85-1.9,5.11-3.72,6.48-4.26-.4-1.34-.8-2.35-.8-2.35s-5.89,2.16-6.9,4.42a4.49,4.49,0,0,0,1,5A4.52,4.52,0,0,1,50.73,308.56Z" fill="#c62b6b"/><circle cx="89.1" cy="284.15" r="11.48" fill="#dc7398"/><circle cx="31.36" cy="292.37" r="11.48" fill="#dc7398"/><circle cx="89.55" cy="287.3" r="11.48" fill="#fff"/><circle cx="31.81" cy="295.52" r="11.48" fill="#fff"/><path d="M41.48,292.46A4.08,4.08,0,0,1,39,293.82a4.17,4.17,0,0,1-4.72-3.54,4.11,4.11,0,0,1,.46-2.55,7,7,0,0,0-1,.07,7.22,7.22,0,1,0,7.8,4.66Zm-9.12,7.59a1.72,1.72,0,1,1,1.46-1.94A1.72,1.72,0,0,1,32.36,300.05Z" fill="#404041"/><path d="M93.38,285a4.17,4.17,0,0,1-6.74-4.69,7.37,7.37,0,0,0-1,.07,7.22,7.22,0,1,0,8.17,6.13A7.61,7.61,0,0,0,93.38,285Zm-9.16,7.63a1.7,1.7,0,0,1-1.94-1.45,1.72,1.72,0,1,1,1.94,1.45Z" fill="#404041"/><ellipse cx="56.54" cy="262.31" rx="17.1" ry="12.92" transform="translate(-62.19 21.67) rotate(-14.1)" fill="#f6c4db"/><path d="M97.33,244.58A11.27,11.27,0,0,1,75.4,239.4c.78-3.32,5.6-9,9.79-13.41a5.57,5.57,0,0,1,9.38,2.21C96.33,234,98.11,241.26,97.33,244.58Z" fill="#dc7398"/><path d="M88.13,229a11,11,0,0,1,2.79,4,16.18,16.18,0,0,1,1,9.52A12.15,12.15,0,0,1,90.12,247c-.27-1.64-.32-3.14-.48-4.63s-.26-2.93-.4-4.38-.33-2.89-.52-4.36Z" fill="#c62b6b"/><path d="M90.12,236.54c.12,0,0,0-.09,0l-.25.06a4.3,4.3,0,0,0-.57.2,6.3,6.3,0,0,0-1.2.63,10.81,10.81,0,0,0-2.27,2.1,23.07,23.07,0,0,0-2,2.8l-.93,1.56c-.31.53-.6,1.08-.94,1.62,0-.63,0-1.25,0-1.9s.13-1.26.22-1.9.29-1.25.45-1.89a19.18,19.18,0,0,1,.73-1.85,10.5,10.5,0,0,1,2.46-3.41,8,8,0,0,1,1.9-1.28,7.58,7.58,0,0,1,1.13-.44c.22,0,.41-.1.64-.13a5.06,5.06,0,0,1,.81-.06Z" fill="#c62b6b"/><path d="M12.42,256.66A11.26,11.26,0,1,0,32,245.58c-1.68-3-7.88-7.06-13.14-10.15a5.57,5.57,0,0,0-8.39,4.74C10.43,246.27,10.74,253.7,12.42,256.66Z" fill="#dc7398"/><path d="M16.91,239.15l.72,4.58c.22,1.47.44,2.91.71,4.34s.52,2.86.84,4.31.64,2.93.83,4.59a12.12,12.12,0,0,1-3-3.81,16,16,0,0,1-1.68-9.42A10.88,10.88,0,0,1,16.91,239.15Z" fill="#c62b6b"/><path d="M15.94,243.26a4.84,4.84,0,0,1,.8-.17c.23,0,.43,0,.65,0a6.82,6.82,0,0,1,1.21.09,8,8,0,0,1,2.18.71,10.62,10.62,0,0,1,3.32,2.58A16.16,16.16,0,0,1,25.31,248c.33.57.68,1.11,1,1.69s.53,1.17.75,1.76.39,1.21.54,1.82c-.49-.42-.91-.87-1.36-1.29l-1.33-1.24a22.86,22.86,0,0,0-2.72-2.13,10.69,10.69,0,0,0-2.77-1.38,6.59,6.59,0,0,0-1.32-.27,4.16,4.16,0,0,0-.6,0h-.27c-.05,0-.21,0-.09,0Z" fill="#c62b6b"/></g></g></svg>