<svg id="Layer_1" data-name="Layer 1" xmlns="http://www.w3.org/2000/svg" viewBox="0 0 300 345"><g id="assets"><g id="item"><path d="M33.05,290.63a8,8,0,0,1-7.46-5L5.89,236.05a8.53,8.53,0,0,1,15.2-7.6L48.88,274a8,8,0,0,1-1.67,10.3,29,29,0,0,1-5.83,3.8,29.15,29.15,0,0,1-6.54,2.38A7.74,7.74,0,0,1,33.05,290.63Z" fill="#779923"/><path d="M13.81,226.37a6.54,6.54,0,0,1,5.57,3.13L47.18,275a6,6,0,0,1-1.27,7.74,27.16,27.16,0,0,1-5.43,3.53,26.86,26.86,0,0,1-6.08,2.22,6.21,6.21,0,0,1-1.35.15,6,6,0,0,1-5.6-3.78L7.75,235.31a6.52,6.52,0,0,1,3.14-8.25,6.62,6.62,0,0,1,2.92-.69m0-4h0a10.56,10.56,0,0,0-4.71,1.12A10.45,10.45,0,0,0,4,236.79l19.7,49.54a10,10,0,0,0,9.32,6.3,9.84,9.84,0,0,0,2.23-.25,30.83,30.83,0,0,0,7-2.54,30.89,30.89,0,0,0,6.23-4.07,10,10,0,0,0,2.09-12.87l-27.8-45.49a10.47,10.47,0,0,0-9-5Z" fill="#45560a"/><path d="M12.9,231.09h0a4,4,0,0,1,5.21,1.49l17,27.9a3.7,3.7,0,0,1-.78,4.75,16.28,16.28,0,0,1-3.33,2.16,16.54,16.54,0,0,1-3.73,1.37,3.7,3.7,0,0,1-4.26-2.23L11,236.15A4,4,0,0,1,12.9,231.09Z" fill="#8fb83e"/><path d="M34.23,292.54A6.1,6.1,0,0,1,28.36,289c-1.58-2.68-.65-6.2,2.27-8.45a33.36,33.36,0,0,1,5.33-3.3,33,33,0,0,1,5.84-2.28,8.37,8.37,0,0,1,2.25-.32,6.11,6.11,0,0,1,5.87,3.57c1.58,2.69.65,6.21-2.27,8.46a32.21,32.21,0,0,1-5.33,3.29,32.29,32.29,0,0,1-5.84,2.29,8.32,8.32,0,0,1-2.25.32Z" fill="#d0ebf6"/><path d="M44.05,276.61a4.15,4.15,0,0,1,4.08,2.47c1.16,1.81.43,4.34-1.7,6a30.25,30.25,0,0,1-5,3.09A31.16,31.16,0,0,1,36,290.3a6.6,6.6,0,0,1-1.72.24,4.14,4.14,0,0,1-4.07-2.47c-1.17-1.81-.44-4.34,1.69-6a29.94,29.94,0,0,1,5-3.1,30.43,30.43,0,0,1,5.48-2.15,6.47,6.47,0,0,1,1.71-.24m0-4a10.32,10.32,0,0,0-2.79.39,37.06,37.06,0,0,0-11.85,5.93c-3.64,2.8-4.81,7.42-2.84,10.93a8.17,8.17,0,0,0,7.66,4.68,10.32,10.32,0,0,0,2.79-.39,35.18,35.18,0,0,0,6.19-2.43,34.45,34.45,0,0,0,5.66-3.5c3.64-2.8,4.82-7.43,2.84-10.93a8.15,8.15,0,0,0-7.66-4.68Z" fill="#6eb7cb"/><path d="M36,290.3a31.16,31.16,0,0,0,5.48-2.16,30.25,30.25,0,0,0,5-3.09,5.14,5.14,0,0,0,2.22-4.32,5.18,5.18,0,0,0-4.78-.81,33,33,0,0,0-10.49,5.24,5.2,5.2,0,0,0-2.22,4.32A5.22,5.22,0,0,0,36,290.3Z" fill="#6eb7cb"/><path d="M28,314.93c-5.49-11-2.93-23.36,13.13-31.39a22.21,22.21,0,0,1,29.8,9.93c3.73,7.45,3.38,17.27-.16,23.28-5.56,9.44-.41,25.25-.41,25.25S41.8,342.57,28,314.93Z" fill="#c59974"/><path d="M30.24,314.15c0-15.36,4.06-17.75,4.06-17.75,5.36,6.6,9.64,18.51,9.64,18.51,10-9.26,3.73-23.41,3.73-23.41,5.7,2.84,12.65,17,12.65,17,3.24-9.87-3.24-22.17-3.24-22.17,3.13-.66,9,2.08,11.36,3.27a22.23,22.23,0,0,0-27.32-6C28.4,289.9,24.15,299,25.66,308A54.8,54.8,0,0,0,30.24,314.15Z" fill="#b6785f"/><path d="M51,281.19v4h0a18.12,18.12,0,0,1,16.3,10.07c3,6,3,14.35,0,19.46-4.17,7.08-3.33,16.74-2.17,22.8a44.62,44.62,0,0,1-33.58-24.37c-5.17-10.36-1-19.85,11.35-26A18.13,18.13,0,0,1,51,285.19v-4m0,0a22.05,22.05,0,0,0-9.91,2.35C25.06,291.57,22.5,304,28,314.93,41.25,341.48,68.11,342,70.21,342h.14s-5.15-15.81.41-25.25c3.54-6,3.89-15.83.16-23.28A22.22,22.22,0,0,0,51,281.19Z" fill="#7c3522"/></g></g></svg>