<svg id="Layer_1" data-name="Layer 1" xmlns="http://www.w3.org/2000/svg" viewBox="0 0 300 345"><g id="assets"><g id="item"><path d="M57.4,257.84a6.77,6.77,0,0,1,2.12.35c3.87,1.25,5,4.8,4.7,9.64a5.54,5.54,0,0,1,.9-.07,5.36,5.36,0,0,1,3.28,1.14c2.63,1.94,2.8,4.87,1.52,8.38a23.62,23.62,0,0,1,7.81-1.72c2.87,0,5.1,1.05,6.41,3.61,1.85,3.62.18,7-3.49,10.14a5.37,5.37,0,0,1,2.2,3.71c.47,3.23-1.47,5.43-4.86,7,6.39,3,10.3,6.5,8.72,11.39-1.12,3.45-4,4.76-8.1,4.76-.5,0-1,0-1.54-.06a5.7,5.7,0,0,1-5.65,6.48,11.16,11.16,0,0,1-3.8-.78c2.44,6.6,2.69,11.88-1.89,14.22a6.59,6.59,0,0,1-3,.76c-2.5,0-4.87-1.61-7.16-4.26a5.34,5.34,0,0,1-3.71,2.2,6.3,6.3,0,0,1-1,.08c-2.72,0-4.64-1.89-6-4.93-2.5,5.43-5.44,9.07-9.27,9.07a6.77,6.77,0,0,1-2.12-.35c-3.87-1.26-5.05-4.8-4.7-9.64a7,7,0,0,1-.9.07,5.36,5.36,0,0,1-3.28-1.14c-2.63-1.95-2.8-4.88-1.52-8.38a23.62,23.62,0,0,1-7.81,1.72c-2.87,0-5.1-1.05-6.41-3.61-1.85-3.63-.18-7,3.49-10.14a5.4,5.4,0,0,1-2.2-3.71c-.47-3.24,1.47-5.43,4.86-7-6.39-2.94-10.3-6.49-8.72-11.38,1.12-3.45,4.05-4.76,8.1-4.76.49,0,1,0,1.54.05A5.33,5.33,0,0,1,17,276.5a5.39,5.39,0,0,1,4.58-2.3,11.16,11.16,0,0,1,3.8.78c-2.44-6.6-2.69-11.88,1.89-14.22a6.43,6.43,0,0,1,3-.76c2.5,0,4.87,1.61,7.16,4.25a5.37,5.37,0,0,1,3.71-2.2,6.16,6.16,0,0,1,.95-.07c2.72,0,4.64,1.88,6.05,4.92,2.5-5.42,5.44-9.06,9.27-9.06m0-4h0c-4.47,0-7.68,2.93-9.83,5.93A9.14,9.14,0,0,0,42.08,258a10.08,10.08,0,0,0-1.54.12,9.81,9.81,0,0,0-2.82.84A11.61,11.61,0,0,0,30.26,256a10.43,10.43,0,0,0-4.8,1.2c-4.71,2.4-6.54,6.81-5.49,13.12a9.32,9.32,0,0,0-6.17,3.79,9.86,9.86,0,0,0-1.4,2.61c-6.7.69-9.07,4.85-9.91,7.42-1.62,5,.19,9.45,5.41,13.17a9.42,9.42,0,0,0-1.69,7,9.7,9.7,0,0,0,.85,2.83c-4,4.91-3.27,9.28-1.75,12.26,1.35,2.64,4.17,5.79,10,5.79a18.13,18.13,0,0,0,3.17-.29,9.35,9.35,0,0,0,3.78,6.16,9.57,9.57,0,0,0,2.6,1.41c.64,6.29,4.24,8.86,7.43,9.89a10.63,10.63,0,0,0,3.35.55c4.47,0,7.68-2.93,9.83-5.93a9.2,9.2,0,0,0,5.49,1.79,10.08,10.08,0,0,0,1.54-.12,9.82,9.82,0,0,0,2.82-.85,11.57,11.57,0,0,0,7.46,3,10.56,10.56,0,0,0,4.8-1.2c4.71-2.41,6.54-6.81,5.49-13.13a9.27,9.27,0,0,0,6.17-3.79,9.81,9.81,0,0,0,1.4-2.6c6.7-.69,9.07-4.86,9.9-7.43,1.63-5-.19-9.44-5.4-13.17a9.42,9.42,0,0,0,1.69-7A9.79,9.79,0,0,0,86,289.6c4-4.9,3.27-9.27,1.75-12.25-1.35-2.64-4.17-5.79-10-5.79a19,19,0,0,0-3.17.28,9.41,9.41,0,0,0-3.78-6.16,9.81,9.81,0,0,0-2.6-1.4c-.64-6.3-4.24-8.87-7.43-9.9a10.91,10.91,0,0,0-3.35-.54Z" fill="#032557"/><ellipse cx="49.18" cy="316.51" rx="7.48" ry="18.42" transform="translate(-45.78 10.6) rotate(-8.41)" fill="#9ad4ee"/><ellipse cx="43.83" cy="280.28" rx="7.48" ry="18.42" transform="translate(-40.54 9.43) rotate(-8.41)" fill="#9ad4ee"/><ellipse cx="28.39" cy="301.07" rx="18.42" ry="7.48" transform="translate(-43.75 7.39) rotate(-8.41)" fill="#9ad4ee"/><ellipse cx="64.62" cy="295.71" rx="18.42" ry="7.48" transform="translate(-42.58 12.64) rotate(-8.41)" fill="#9ad4ee"/><ellipse cx="57.42" cy="283.69" rx="18.42" ry="7.48" transform="translate(-204.6 160.71) rotate(-53.41)" fill="#9ad4ee"/><ellipse cx="35.59" cy="313.1" rx="18.42" ry="7.48" transform="translate(-237.03 155.06) rotate(-53.41)" fill="#9ad4ee"/><ellipse cx="61.21" cy="309.31" rx="7.48" ry="18.42" transform="translate(-223.64 174.1) rotate(-53.41)" fill="#9ad4ee"/><ellipse cx="31.8" cy="287.48" rx="7.48" ry="18.42" transform="matrix(0.6, -0.8, 0.8, 0.6, -217.99, 141.67)" fill="#9ad4ee"/><ellipse cx="56.09" cy="317.15" rx="8.61" ry="21.19" transform="translate(-138.14 60.24) rotate(-27.06)" fill="#d0ebf6"/><ellipse cx="36.92" cy="279.63" rx="8.61" ry="21.19" transform="translate(-123.17 47.41) rotate(-27.06)" fill="#d0ebf6"/><ellipse cx="27.75" cy="307.98" rx="21.19" ry="8.61" transform="translate(-137.07 46.34) rotate(-27.06)" fill="#d0ebf6"/><ellipse cx="65.26" cy="288.81" rx="21.19" ry="8.61" transform="translate(-124.24 61.31) rotate(-27.06)" fill="#d0ebf6"/><ellipse cx="52.99" cy="278.35" rx="21.19" ry="8.61" transform="translate(-228.15 243.03) rotate(-72.06)" fill="#ebf7fd"/><ellipse cx="40.02" cy="318.44" rx="21.19" ry="8.61" transform="translate(-275.26 258.42) rotate(-72.06)" fill="#ebf7fd"/><ellipse cx="66.55" cy="304.88" rx="8.61" ry="21.19" transform="translate(-244.01 274.29) rotate(-72.06)" fill="#ebf7fd"/><ellipse cx="26.46" cy="291.9" rx="8.61" ry="21.19" transform="translate(-259.4 227.17) rotate(-72.06)" fill="#ebf7fd"/><circle cx="46.47" cy="298.51" r="15.55" fill="#d0ebf6"/><circle cx="46.47" cy="298.51" r="11.06" fill="#ffdd15"/></g></g></svg>