<svg id="Layer_1" data-name="Layer 1" xmlns="http://www.w3.org/2000/svg" xmlns:xlink="http://www.w3.org/1999/xlink" viewBox="0 0 300 345"><defs><linearGradient id="linear-gradient" x1="48.09" y1="484.8" x2="48.09" y2="423.39" gradientTransform="translate(-48.96 -137.49) rotate(-8.1)" gradientUnits="userSpaceOnUse"><stop offset="0" stop-color="#e7be99"/><stop offset="0.69" stop-color="#a2704a"/></linearGradient><linearGradient id="linear-gradient-2" x1="48.09" y1="483.2" x2="48.09" y2="449.86" gradientTransform="translate(17.37 -149)" gradientUnits="userSpaceOnUse"><stop offset="0" stop-color="#fbe2cd"/><stop offset="0.69" stop-color="#e7be99"/></linearGradient></defs><g id="assets"><g id="item"><path d="M75.16,221.3c7.35,0,16.15,10.19,20.34,21a11.47,11.47,0,0,1,7.21,9.07l6.75,47.4.13.89,2.07,14.54a11.47,11.47,0,0,1-9.74,13l-19.28,2.74-32.3,4.6-19.28,2.75a11.26,11.26,0,0,1-1.63.11,11.45,11.45,0,0,1-11.33-9.84L16,313l-.13-.89-6.75-47.4A11.47,11.47,0,0,1,13.54,254c1.11-12.68,7.72-26.17,15.74-26.17a7.54,7.54,0,0,1,1.25.11c4.51.79,7.17,10.59,7.28,21.13l5.3-.76,22.41-3.19,5.31-.75c-2.84-10.15-3-20.31,1.09-22.32a7.21,7.21,0,0,1,3.24-.74m0-4a11.15,11.15,0,0,0-5,1.15c-6,3-6.27,12.92-4.26,22.57l-.94.13-22.41,3.19-.94.13c-.76-9.82-3.78-19.33-10.39-20.48a11.47,11.47,0,0,0-1.94-.17C19,223.82,11.41,237.88,9.73,252a15.47,15.47,0,0,0-4.54,13.26l6.75,47.4.13.9,2.07,14.53a15.53,15.53,0,0,0,15.29,13.28,16,16,0,0,0,2.19-.15l19.28-2.75,32.31-4.6,19.28-2.74a15.48,15.48,0,0,0,13.13-17.49l-2.07-14.53-.13-.9-6.75-47.39a15.47,15.47,0,0,0-8.06-11.47c-4.76-11.2-14.07-22.06-23.45-22.06Z" fill="#906a4a"/><path d="M101.93,327.18,31.06,337.27a11.46,11.46,0,0,1-13-9.73l-2.2-15.43,93.56-13.32,2.2,15.43A11.47,11.47,0,0,1,101.93,327.18Z" fill="url(#linear-gradient)"/><rect x="12.12" y="246.35" width="94.5" height="71.7" rx="11.46" transform="matrix(0.99, -0.14, 0.14, 0.99, -39.19, 11.19)" fill="#e7be99"/><path d="M21.11,316.32s-3.15,6.43.43,9.12c1.92,1.44,3.92.25,5.36-1.16a4.73,4.73,0,0,0,3.69,2.5c4.47.27,4.13-7.25,4.13-7.25" fill="#e7be99"/><path d="M21.11,316.32a18.85,18.85,0,0,0-.6,3.86,6.13,6.13,0,0,0,.64,3.41A2.63,2.63,0,0,0,23.44,325a4.77,4.77,0,0,0,2.69-1.53l1-.94.67,1.14a4.47,4.47,0,0,0,2,1.89,2.84,2.84,0,0,0,1.28.22,5.78,5.78,0,0,0,.6-.08c.17-.12.39-.14.55-.3a5.2,5.2,0,0,0,1.64-2.53,20,20,0,0,0,.83-3.37,11.41,11.41,0,0,1,.17,3.6,5.81,5.81,0,0,1-1.57,3.57,4.43,4.43,0,0,1-.91.66,4.5,4.5,0,0,1-1.09.32,4.86,4.86,0,0,1-2.18-.17A6.07,6.07,0,0,1,26,324.86l1.69.2a8.15,8.15,0,0,1-1.77,1.38,5,5,0,0,1-2.4.71,3.94,3.94,0,0,1-2.45-.86,7.86,7.86,0,0,1-.87-.86,4.63,4.63,0,0,1-.61-1.05,6,6,0,0,1-.46-2.24,9.68,9.68,0,0,1,.29-2.12A11.5,11.5,0,0,1,21.11,316.32Z" fill="#aa7750"/><path d="M93.47,311.28s1.78,7.31,6,5.8a4.73,4.73,0,0,0,2.85-3.43c1.78,1,4,1.53,5.47-.38,2.68-3.58-2.13-8.88-2.13-8.88" fill="#e7be99"/><path d="M93.47,311.28a19.83,19.83,0,0,0,1.74,3,5.21,5.21,0,0,0,2.28,2,2.78,2.78,0,0,0,.61.13,4.25,4.25,0,0,0,.61-.08,2.93,2.93,0,0,0,1.16-.57,4.5,4.5,0,0,0,1.39-2.38l.33-1.28,1.24.62a4.78,4.78,0,0,0,3,.71,2.61,2.61,0,0,0,1.79-2,6.18,6.18,0,0,0-.33-3.45,19.8,19.8,0,0,0-1.65-3.54,11.32,11.32,0,0,1,2.68,3.07,9.56,9.56,0,0,1,.87,2,6,6,0,0,1,.19,2.28,4.85,4.85,0,0,1-.29,1.18,8.2,8.2,0,0,1-.6,1.08,4,4,0,0,1-2.12,1.5,5,5,0,0,1-2.5,0,8.15,8.15,0,0,1-2.08-.83l1.56-.66a6.08,6.08,0,0,1-2.3,3.42,4.48,4.48,0,0,1-3.18.77,4,4,0,0,1-1.06-.38,5.79,5.79,0,0,1-2.5-3A11.36,11.36,0,0,1,93.47,311.28Z" fill="#aa7750"/><path d="M21.05,305.71s-5.42,4.72-3.31,8.5,7.68-.8,9.57-1.5" fill="#e7be99"/><path d="M21.05,305.71a24.34,24.34,0,0,0-2.36,4.41c-.52,1.48-.57,2.9.21,3.83a1.65,1.65,0,0,0,1.35.68,7.09,7.09,0,0,0,2.16-.34,43.36,43.36,0,0,1,4.9-1.58,24.15,24.15,0,0,1-4.24,3.17,6.67,6.67,0,0,1-2.81.85,3.55,3.55,0,0,1-.85-.06,2.72,2.72,0,0,1-.86-.25,3.5,3.5,0,0,1-1.39-1.12,5.11,5.11,0,0,1-.77-1.48,5.26,5.26,0,0,1-.17-1.62,6.24,6.24,0,0,1,.92-2.82A10,10,0,0,1,21.05,305.71Z" fill="#aa7750"/><path d="M102.73,294.11s6.52,3,5.56,7.24-7.6,1.37-9.61,1.22" fill="#e7be99"/><path d="M102.73,294.11a10.06,10.06,0,0,1,4.78,2.43,6.21,6.21,0,0,1,1.67,2.46,4.92,4.92,0,0,1,.29,1.59,5.24,5.24,0,0,1-.32,1.64,2.7,2.7,0,0,1-.42.78,2.47,2.47,0,0,1-.61.68,2.82,2.82,0,0,1-.76.49,3,3,0,0,1-.79.29,6.9,6.9,0,0,1-2.94,0,23.65,23.65,0,0,1-4.95-1.87,45.1,45.1,0,0,1,5.14.16,7.44,7.44,0,0,0,2.17-.27,1.66,1.66,0,0,0,1.11-1c.49-1.11,0-2.46-.87-3.73A24.49,24.49,0,0,0,102.73,294.11Z" fill="#aa7750"/><circle cx="89.36" cy="285.91" r="11.48" fill="#c59974"/><circle cx="31.61" cy="294.13" r="11.48" fill="#c59974"/><circle cx="89.8" cy="289.07" r="11.48" fill="#fff"/><circle cx="32.06" cy="297.29" r="11.48" fill="#fff"/><path d="M41.73,294.23A4.16,4.16,0,0,1,35,289.5a7.22,7.22,0,1,0,6.78,4.73Zm-9.11,7.58a1.72,1.72,0,1,1,1.45-1.94A1.72,1.72,0,0,1,32.62,301.81Z" fill="#404041"/><path d="M93.63,286.8a4.06,4.06,0,0,1-2.38,1.2,4.16,4.16,0,0,1-4.35-5.9,7.42,7.42,0,0,0-1.05.08A7.22,7.22,0,1,0,94,288.31,7.44,7.44,0,0,0,93.63,286.8Zm-9.16,7.63a1.72,1.72,0,1,1,1.46-1.94A1.72,1.72,0,0,1,84.47,294.43Z" fill="#404041"/><rect x="49.14" y="317.62" width="32.63" height="14.68" transform="translate(-45.15 12.47) rotate(-8.1)" fill="url(#linear-gradient-2)"/><path d="M80.57,315.39,48.27,320s-15.45-27.56,12-31.47S80.57,315.39,80.57,315.39Z" fill="#fbe2cd"/><path d="M72.11,293.68l-21.77,3.1s-21-39.74,4.92-43.44S72.11,293.68,72.11,293.68Z" fill="#fbe2cd"/><path d="M62.44,303.77l-8,5c.79,3.85,3,7,9.54,6.08s7.76-4.49,7.46-8.39Z" fill="#808184"/><path d="M62.3,302.81l-6.25,5.63c.64,3.14,2.39,5.51,7.73,4.75s6.34-3.46,6.11-6.63Z" fill="#fff"/><line x1="62.13" y1="301.56" x2="63.87" y2="313.79" fill="none" stroke="#808184" stroke-miterlimit="10" stroke-width="1.57"/><path d="M74.74,300.69c1,7.06-11.63,7.77-12.92-1.3,1.29,9.07-11,11.92-12,4.85" fill="none" stroke="#404041" stroke-linecap="round" stroke-miterlimit="10" stroke-width="2.51"/><path d="M67.79,294.62a7.64,7.64,0,0,1-13,1.85" fill="none" stroke="#dc7398" stroke-linecap="round" stroke-miterlimit="10" stroke-width="2.83"/><path d="M65.52,245.11c5.15,13.15,13.71,23.85,23,18.95,7.49-3.93,8.84-12.67,6.71-22a11.45,11.45,0,0,0-5.1-.42Z" fill="#c59974"/><path d="M19.32,251.69a11.38,11.38,0,0,0-5.62,2.45c.67,9.36,4.43,17.14,12.57,18.79C36.6,275,41.84,262.36,43.11,248.3Z" fill="#c59974"/><path d="M30.53,227.93c-15.14-2.64-26.17,43.74-6.77,47.69C41.49,279.22,40.9,229.74,30.53,227.93Z" fill="#e7be99"/><path d="M29.21,254.28c-6.35-1.11-11.27,16.24-3.14,17.89C33.5,273.68,33.55,255,29.21,254.28Z" fill="#f5a9ca"/><path d="M71.92,222c13.8-6.76,37.34,34.7,19.8,43.9C75.7,274.35,62.47,226.67,71.92,222Z" fill="#e7be99"/><path d="M80.54,247c5.79-2.83,15.35,12.45,8,16.31C81.83,266.8,76.58,248.91,80.54,247Z" fill="#f5a9ca"/></g></g></svg>