<svg id="Layer_1" data-name="Layer 1" xmlns="http://www.w3.org/2000/svg" viewBox="0 0 300 345"><g id="assets"><g id="item"><path d="M60.68,326.3s-.45,19.43,18.44,21.13" fill="none" stroke="#000" stroke-linecap="round" stroke-miterlimit="10" stroke-width="4"/><path d="M52,258.24a2.63,2.63,0,0,1,2.57,2.08l13,61a7.1,7.1,0,0,1-5,8.3l-5.71,1.63a7,7,0,0,1-1.95.28,7.1,7.1,0,0,1-6.68-4.69l-20.05-59A2.64,2.64,0,0,1,30,264.42l21.28-6.08a2.62,2.62,0,0,1,.73-.1m0-4h0a6.68,6.68,0,0,0-1.83.25l-21.28,6.08a6.62,6.62,0,0,0-4.43,8.59l20,59,0,0v0A11.13,11.13,0,0,0,55,335.52a11.34,11.34,0,0,0,3-.43l5.71-1.63a11.13,11.13,0,0,0,7.81-13l-13-61A6.65,6.65,0,0,0,52,254.24Z"/><path d="M37.1,223.49a25.64,25.64,0,0,1,24.11,17A2.06,2.06,0,0,1,62.78,242l.84,2.93a2.06,2.06,0,0,1-1,2.36A25.64,25.64,0,0,1,57.14,265l.85,4.19a5.19,5.19,0,0,1-1.83,5.1,30.41,30.41,0,0,1-18.66,6.44,29.59,29.59,0,0,1-3.27-.18A5.2,5.2,0,0,1,30,277.17l-1.48-4a25.67,25.67,0,0,1-14-12.07l-.37,0a1.18,1.18,0,0,1-.26,0,2.06,2.06,0,0,1-2-1.49l-.84-2.93a2.05,2.05,0,0,1,1-2.37,25.6,25.6,0,0,1,25-30.87m0-4A29.58,29.58,0,0,0,7.81,253.14a6.07,6.07,0,0,0-.59,4.69l.83,2.93a6.11,6.11,0,0,0,4,4.12,29.52,29.52,0,0,0,13.28,11.34l.86,2.34a9.14,9.14,0,0,0,7.55,5.94,33,33,0,0,0,3.72.21,34.21,34.21,0,0,0,9.4-1.33,33.57,33.57,0,0,0,11.74-6,9.12,9.12,0,0,0,3.27-9l-.5-2.44a29.52,29.52,0,0,0,5.29-17.14,6,6,0,0,0,.76-5l-.83-2.93a6.09,6.09,0,0,0-2.24-3.21A29.63,29.63,0,0,0,37.1,219.49Z" fill="#404089"/><path d="M62.61,329.61l-5.71,1.63a7.1,7.1,0,0,1-8.63-4.41l-20.05-59A2.64,2.64,0,0,1,30,264.42l21.28-6.08a2.63,2.63,0,0,1,3.3,2l13,61A7.1,7.1,0,0,1,62.61,329.61Z" fill="#141319"/><path d="M30,277.17a5.2,5.2,0,0,0,4.25,3.36,30.35,30.35,0,0,0,21.93-6.26,5.19,5.19,0,0,0,1.83-5.1l-1.33-6.54a5.22,5.22,0,0,0-6.53-4l-19,5.43a5.21,5.21,0,0,0-3.45,6.82Z" fill="#8080a8"/><circle cx="37.11" cy="249.08" r="24.48" fill="#c1c1db"/><path d="M57.25,243.33a23.11,23.11,0,0,1-.73-9.16,26.63,26.63,0,0,0-1.9-2.19A25.48,25.48,0,0,0,61,254.36a23,23,0,0,0,.45-2.86A23.33,23.33,0,0,1,57.25,243.33Z" fill="#aeaecc"/><path d="M53.31,257.75a26.39,26.39,0,0,0,4.91,3.71c.37-.65.72-1.3,1-2a23.36,23.36,0,0,1-5.43-4.39,25.55,25.55,0,0,0-5.69-19.94,23.13,23.13,0,0,1,2.29-6.59,22.08,22.08,0,0,0-1.93-1.13,25.92,25.92,0,0,0-2.21,5.74A25.79,25.79,0,0,0,42.35,230a23.58,23.58,0,0,1,3-4,23.16,23.16,0,0,0-2.33-.7,25.67,25.67,0,0,0-2.55,3.59,27,27,0,0,0-2.9-1.31,23.3,23.3,0,0,1,3.36-2.71,24.24,24.24,0,0,0-9.57.41c-.35.23-.7.46-1,.71-.39,0-.79-.05-1.19-.06A24.25,24.25,0,0,0,21,230.68a23,23,0,0,1,4,.52,25.77,25.77,0,0,0-1.76,2.64,26.38,26.38,0,0,0-3.83-1.63c-.56.59-1.08,1.2-1.58,1.83a22.73,22.73,0,0,1,4.37,1.77,25.24,25.24,0,0,0-1.7,4.74A25.26,25.26,0,0,0,15.83,237a21.86,21.86,0,0,0-1,2A23.51,23.51,0,0,1,20,243.2a25.42,25.42,0,0,0,5.69,19.94,23,23,0,0,1-2.13,6.28,22.09,22.09,0,0,0,1.91,1.16,25.7,25.7,0,0,0,2.07-5.46,25.79,25.79,0,0,0,3.94,3.13,23.82,23.82,0,0,1-2.77,3.8,22.71,22.71,0,0,0,2.3.72,25.69,25.69,0,0,0,2.39-3.4,27.8,27.8,0,0,0,2.89,1.31,22.67,22.67,0,0,1-3.12,2.55,24.23,24.23,0,0,0,9.39-.28c.33-.22.66-.44,1-.68q.63,0,1.26.06a24.37,24.37,0,0,0,8.34-4.71,23.41,23.41,0,0,1-4.28-.53,25.77,25.77,0,0,0,1.76-2.64,26,26,0,0,0,4.07,1.71c.57-.59,1.1-1.2,1.61-1.83a23.28,23.28,0,0,1-4.64-1.85A25.4,25.4,0,0,0,53.31,257.75Zm-5.54-19.41a23.32,23.32,0,0,1,4.06,14.23,23.27,23.27,0,0,1-4.06-14.23Zm-8.38-7.45a26.27,26.27,0,0,0-1.71,4.74,25.79,25.79,0,0,0-3.94-3.13,24.65,24.65,0,0,1,2.16-3.11A24,24,0,0,1,39.39,230.89Zm3,16.69a23.3,23.3,0,0,1,.87,7.45,23.19,23.19,0,0,1-4.07-14.23A23.24,23.24,0,0,1,42.36,247.58Zm.5,10.65a23.58,23.58,0,0,1-1.78,5.58,23.14,23.14,0,0,1-4.47-3.8,25.45,25.45,0,0,0-.72-10.58,25.59,25.59,0,0,0-5-9.37,23.58,23.58,0,0,1,1.78-5.58,23.43,23.43,0,0,1,4.46,3.8,25.51,25.51,0,0,0,5.7,20Zm-5.52-33.45a24.88,24.88,0,0,0-2.16,2.07c-.51-.14-1-.26-1.53-.36A23.39,23.39,0,0,1,37.34,224.78Zm-6.4,3.53a25.93,25.93,0,0,1,2.64.43,25.77,25.77,0,0,0-1.76,2.64,27.8,27.8,0,0,0-2.89-1.31A22.6,22.6,0,0,1,30.94,228.31Zm-7.3.39a23.39,23.39,0,0,1,4-.51c-.38.37-.75.73-1.1,1.12A22.41,22.41,0,0,0,23.64,228.7Zm3.66,3.15a24.34,24.34,0,0,1,3.48,1.5,25.24,25.24,0,0,0-1.7,4.74A25.75,25.75,0,0,0,25.13,235,23.73,23.73,0,0,1,27.3,231.85ZM33.75,250a23.3,23.3,0,0,1,.87,7.45,23.19,23.19,0,0,1-4.07-14.23A23.24,23.24,0,0,1,33.75,250ZM26,260a23.24,23.24,0,0,1-4.07-14.23,23.12,23.12,0,0,1,3.2,6.78A23.3,23.3,0,0,1,26,260Zm2,2.52a25.62,25.62,0,0,0-.73-10.58,25.51,25.51,0,0,0-5-9.37,23.43,23.43,0,0,1,1.78-5.58,23.14,23.14,0,0,1,4.47,3.8,25.45,25.45,0,0,0,5.69,19.95,23.58,23.58,0,0,1-1.78,5.58A23.43,23.43,0,0,1,28,262.47Zm6.38,4.93a25.5,25.5,0,0,0,1.7-4.74A26.37,26.37,0,0,0,40,265.79a23.73,23.73,0,0,1-2.17,3.11A24.34,24.34,0,0,1,34.39,267.4Zm2,6.11a25,25,0,0,0,2.17-2.07q.75.21,1.53.36A23.5,23.5,0,0,1,36.43,273.51ZM42.84,270a25.93,25.93,0,0,1-2.64-.43A25.77,25.77,0,0,0,42,266.91a27.8,27.8,0,0,0,2.89,1.31A24.11,24.11,0,0,1,42.84,270Zm7.3-.39a23.39,23.39,0,0,1-4,.51c.37-.37.74-.73,1.1-1.12A22.41,22.41,0,0,0,50.14,269.59Zm-3.66-3.15a24.34,24.34,0,0,1-3.48-1.5,25.24,25.24,0,0,0,1.7-4.74,25.75,25.75,0,0,0,3.95,3.13A23.73,23.73,0,0,1,46.48,266.44Zm-1.26-8.89a25.45,25.45,0,0,0-5.69-20A23.58,23.58,0,0,1,41.31,232a23.74,23.74,0,0,1,4.46,3.8,25.62,25.62,0,0,0,.73,10.58,25.36,25.36,0,0,0,5,9.37,23,23,0,0,1-1.79,5.58A23.38,23.38,0,0,1,45.22,257.55Z" fill="#aeaecc"/><path d="M16.53,255a23.13,23.13,0,0,1,.79,8.54,25.52,25.52,0,0,0,1.93,2.32,25.3,25.3,0,0,0-.58-11.47,25.3,25.3,0,0,0-5.56-10,24.85,24.85,0,0,0-.42,3A23.28,23.28,0,0,1,16.53,255Z" fill="#aeaecc"/><path d="M44.13,273.69a25.59,25.59,0,1,1,17.58-31.63A25.62,25.62,0,0,1,44.13,273.69ZM30.69,226.62a23.36,23.36,0,1,0,28.88,16A23.4,23.4,0,0,0,30.69,226.62Z" fill="#9d9cbc"/><path d="M63.62,244.89a2.07,2.07,0,0,1-1.13,2.44,174.88,174.88,0,0,1-23.65,8.74,173.54,173.54,0,0,1-24.7,5.06,2.05,2.05,0,0,1-2.24-1.47l-.84-2.93a2.06,2.06,0,0,1,1.7-2.6,181.87,181.87,0,0,0,24.11-5A180.83,180.83,0,0,0,60,240.65,2.05,2.05,0,0,1,62.78,242Z" fill="#9d9cbc"/></g></g></svg>