<svg id="Layer_1" data-name="Layer 1" xmlns="http://www.w3.org/2000/svg" viewBox="0 0 300 345"><g id="assets"><g id="item"><path d="M51.89,242.41c12.41,0,21.77,3.19,22.35,8.18l.82,2.93c4.17,2.07,6.78,4.82,7.16,8.06,1,8.78-14.65,17.83-35,20.21a84.15,84.15,0,0,1-9.73.57c-15.88,0-28.13-4.82-29-12.16-.38-3.23,1.52-6.5,5.08-9.46l.12-3.61s0-.09,0-.13v-.11h0c.38-5.93,13-12,29-13.92a78.09,78.09,0,0,1,9.21-.56m0-4a84.56,84.56,0,0,0-9.68.58c-15.06,1.76-31.53,7.93-32.47,17.35,0,.14,0,.27,0,.42v.1a1,1,0,0,1,0,.17l-.06,1.86c-4.78,4.57-5.45,8.88-5.11,11.78,1.11,9.53,14.05,15.69,33,15.69a88.65,88.65,0,0,0,10.2-.6C71,283,87.52,272.45,86.2,261.12c-.35-2.91-2-7-7.74-10.31l-.29-1.05c-1.14-7-11.14-11.35-26.28-11.35Z" fill="#123a13"/><path d="M47.61,341.21c-13,0-18.33-5.49-19-10.69L12.16,273.38l66.17-7.73-1.74,59.24c.33,3.32-1.26,6.75-4.37,9.43-3.9,3.36-10,5.54-18.11,6.49a55.72,55.72,0,0,1-6.49.4Z" fill="#d0ebf6"/><path d="M76.27,267.9,74.59,325c.52,4.46-3.42,11.84-20.71,13.86a53.56,53.56,0,0,1-6.27.39c-12.39,0-16.62-5.23-17.08-9.1l-15.8-55,61.54-7.2m4.13-4.51-4.6.54-61.54,7.2-4.68.54,1.3,4.53,15.73,54.74c.9,6,6.85,12.27,21,12.27a59.9,59.9,0,0,0,6.74-.41c8.52-1,15-3.34,19.17-7,3.58-3.09,5.42-7.08,5.08-11L80.26,268l.14-4.63Z" fill="#00849a"/><ellipse cx="45.36" cy="265.89" rx="37.12" ry="16" transform="translate(-30.56 7.06) rotate(-6.67)" fill="#6c9255"/><path d="M76.91,260.2l-2.67-9.61-21.15,2.2a84.7,84.7,0,0,0-9.2.57c-2.41.28-4.75.66-7,1.12l-23.2,2.41-.37,10.77a4.64,4.64,0,0,0-.05,1.34c.77,6.57,15.72,10.22,33.39,8.16s31.38-9.07,30.61-15.64A4.33,4.33,0,0,0,76.91,260.2Z" fill="#3f7646"/><ellipse cx="43.98" cy="254.12" rx="30.47" ry="11.23" transform="translate(-29.21 6.82) rotate(-6.67)" fill="#6c9255"/><path d="M36.22,262.29c-7.63,0-15.94-1.41-16.4-5.34-.25-2.15,2.1-4.41,6.64-6.38a61.47,61.47,0,0,1,16.63-4.09,74,74,0,0,1,8.65-.52c7.63,0,15.94,1.4,16.4,5.34.56,4.78-11.39,9.08-23.27,10.46A74,74,0,0,1,36.22,262.29Z" fill="#3f7646"/><path d="M51.74,246.46c9,0,15.55,1.86,15.91,4.9.46,3.94-9.76,8.38-22.83,9.91a75.23,75.23,0,0,1-8.6.52c-9,0-15.55-1.86-15.91-4.9-.46-3.95,9.76-8.38,22.84-9.91a74.93,74.93,0,0,1,8.59-.52m0-1h0A77.25,77.25,0,0,0,43,246a61.76,61.76,0,0,0-16.77,4.13c-4.82,2.09-7.22,4.48-6.94,6.9.5,4.26,9.06,5.78,16.9,5.78a75,75,0,0,0,8.71-.53c12-1.4,24.33-5.73,23.71-11-.5-4.26-9-5.78-16.9-5.78Z" fill="#3f7646"/><path d="M36.22,262.29c-6.84,0-12.23-1.06-14.77-2.91l-.43-.32.35-.41c2.92-3.41,11.86-6.51,22.24-7.72a74,74,0,0,1,8.65-.52c6.84,0,12.23,1.06,14.77,2.9l.43.32-.35.41c-2.92,3.41-11.86,6.51-22.24,7.73a76.22,76.22,0,0,1-8.65.52Z" fill="#6c9255"/><path d="M52.26,250.91c6.67,0,12,1,14.47,2.81C64,256.94,55.31,260,44.82,261.27a75,75,0,0,1-8.6.52c-6.67,0-12-1-14.47-2.81,2.76-3.22,11.42-6.33,21.91-7.56a75,75,0,0,1,8.6-.51m0-1a75,75,0,0,0-8.71.52c-10.5,1.23-19.56,4.4-22.56,7.89l-.71.83.88.63c2.62,1.91,8.11,3,15.06,3a75,75,0,0,0,8.71-.53c10.5-1.23,19.56-4.4,22.56-7.89l.71-.82-.88-.64c-2.62-1.91-8.11-3-15.06-3Z" fill="#3f7646"/><path d="M18,256.23l-2.18.26a.69.69,0,0,1-.75-.84l.15-.65a.68.68,0,0,1,.59-.53l2.18-.26a.69.69,0,0,1,.75.84l-.15.65A.68.68,0,0,1,18,256.23Z" fill="#3f7646"/><path d="M44.22,327.62c-11.33,0-16.64-3.12-16.86-3.25l-.67-.41L16.16,287.32l3.77,1.47c4.93,1.93,11.64,3,18.89,3a83.11,83.11,0,0,0,9.5-.56c10.4-1.22,20-4.29,26.37-8.44l3.2-2.1-1.1,37.45-.57.57c-.26.26-6.65,6.42-23.71,8.42a72.75,72.75,0,0,1-8.29.5Z" fill="#be8858"/><path d="M75.78,284.45l-1,32.83s-6,5.91-22.54,7.85a69,69,0,0,1-8.06.49c-10.9,0-15.83-3-15.83-3l-9.19-32c5.1,2,11.94,3.12,19.62,3.12a84.28,84.28,0,0,0,9.73-.57c11.14-1.31,20.86-4.6,27.23-8.76M80,276.92l-6.41,4.18c-6.1,4-15.4,6.95-25.51,8.13a79,79,0,0,1-9.26.55c-7,0-13.46-1-18.16-2.85L13.12,284l2.23,7.78,9.2,32,.43,1.51,1.35.81c.6.36,6.21,3.54,17.89,3.54a72.45,72.45,0,0,0,8.52-.52c17.44-2,24.18-8.28,24.89-9L78.77,319l0-1.6,1-32.82.22-7.65Z" fill="#56412d"/></g></g></svg>