<svg id="Layer_1" data-name="Layer 1" xmlns="http://www.w3.org/2000/svg" viewBox="0 0 300 345"><g id="assets"><g id="mouth"><path d="M196.54,278.7c-24.32,4-66.25,4.44-89.67,0-9.5-1.79-15.08-9-15.08-17.81h0a17.94,17.94,0,0,1,3.46-10.65l113.08.24a18,18,0,0,1,3.29,10.41h0C211.62,269.71,204.46,277.42,196.54,278.7Z" fill="#8b1834"/><path d="M209,251.46a18.05,18.05,0,0,0-18.41-8.39l-4.83.81a205.66,205.66,0,0,1-68.06,0l-4.82-.81a18.08,18.08,0,0,0-18.42,8.39A358.42,358.42,0,0,0,209,251.46Z" fill="#f4fafd"/><path d="M114.39,279.88c21.72,2.82,53.26,2.49,75.31-.21-6.68-8.38-21-14.18-37.58-14.18S121,271.39,114.39,279.88Z" fill="#ce1f3d"/></g></g></svg>