<svg id="Layer_1" data-name="Layer 1" xmlns="http://www.w3.org/2000/svg" xmlns:xlink="http://www.w3.org/1999/xlink" viewBox="0 0 320 26.17"><defs><style>.cls-1{fill:url(#linear-gradient);}.cls-2,.cls-4{fill:#ad4f31;}.cls-2{opacity:0.5;}.cls-3{fill:#a65641;opacity:0.75;}.cls-5{fill:#91cc1a;}.cls-6{fill:#88b716;}.cls-7{fill:#7c9e12;}</style><linearGradient id="linear-gradient" x1="160" y1="28.73" x2="160" y2="15.24" gradientUnits="userSpaceOnUse"><stop offset="0" stop-color="#ce9155"/><stop offset="1" stop-color="#b06d43"/></linearGradient></defs><polygon class="cls-1" points="320 8.26 159.92 8.26 159.92 8.25 0 8.25 0 26.17 159.92 26.17 159.92 26.16 320 26.16 320 8.26"/><path class="cls-2" d="M127.05,20.8c-1.11.21-2.24.36-3.37.48Z"/><path class="cls-3" d="M13.51,23.06c0,.78-2.2,1.94-3.18,1.94a1.63,1.63,0,0,1-1.78-1.41,1.63,1.63,0,0,1,1.78-1.41C11.31,22.18,13.51,22.29,13.51,23.06Z"/><path class="cls-4" d="M125.32,17.44c-.53.09-1.07.17-1.6.23Z"/><ellipse class="cls-3" cx="16.27" cy="21.64" rx="1.05" ry="0.83"/><path class="cls-3" d="M54.2,23.24a2.06,2.06,0,0,1-2.43.4c-.81-.42-1.84-2.16-1.3-2.81s2.42.06,3.23.48A1.23,1.23,0,0,1,54.2,23.24Z"/><ellipse class="cls-3" cx="78.83" cy="16.02" rx="1.12" ry="0.89"/><path class="cls-3" d="M108.22,22c0,.89-3.08,2.24-4.2,2.24a1.86,1.86,0,0,1-2-1.61A1.86,1.86,0,0,1,104,21C105.14,21,108.22,21.13,108.22,22Z"/><ellipse class="cls-3" cx="100.43" cy="20.8" rx="1.02" ry="0.81"/><path class="cls-3" d="M123.75,15.61c0,.63-1.53,1.55-2.43,1.55s-1.64-.51-1.64-1.14.73-1.14,1.64-1.14S123.75,15,123.75,15.61Z"/><path class="cls-3" d="M33.55,17.13c.09-.62,1.74-1.41,2.63-1.33s1.56.65,1.47,1.28-.89,1.07-1.78,1S33.46,17.76,33.55,17.13Z"/><path class="cls-3" d="M144.15,21.78a1.58,1.58,0,0,1-3.07,0A2.11,2.11,0,0,1,143,20.19C143.82,20.19,144.15,21.11,144.15,21.78Z"/><path class="cls-3" d="M158,16.17c0,.57,0,1.5-.74,1.5s-1.89-.93-1.89-1.5a1.35,1.35,0,0,1,2.63,0Z"/><path class="cls-2" d="M287.13,20.8c-1.11.21-2.24.36-3.37.48Z"/><path class="cls-2" d="M317.24,19.06c-2.76-.59-5.15-1.94-7.78-2.8a22.94,22.94,0,0,0-10.77-.66l-1.48.2L285.4,17.44c-.53.09-1.07.17-1.6.23h0a38.58,38.58,0,0,1-7.89.09c-6.59-.6-12.8-2.85-19.51-2.88-6.51,0-12,2.75-18.29,3.47s-11.32-2.1-17.06-3.3c-6-1.23-10.79.23-16.11,2.31-6.07,2.37-11.32,1.22-17.44-.41-5.61-1.5-11.29-2.57-17-.69-2.63.86-5,2.21-7.78,2.8a14.41,14.41,0,0,1-2.76.31h0l-1-.05a15.55,15.55,0,0,1-1.78-.25,19.2,19.2,0,0,1-2.64-.8c-1.73-.64-3.38-1.44-5.14-2a23.08,23.08,0,0,0-10.77-.66l-1.48.2-11.81,1.64c-.53.09-1.07.17-1.61.23h0a38.6,38.6,0,0,1-7,.16l-.92-.07c-1-.09-2-.23-3.05-.39-5.49-.86-10.8-2.46-16.46-2.49-6.52,0-12,2.75-18.29,3.47a23.3,23.3,0,0,1-9.39-1.13c-2.54-.73-5-1.62-7.68-2.17-.49-.1-1-.19-1.46-.25-5.31-.74-9.77.66-14.64,2.56a21,21,0,0,1-12.15.84C31,17.89,29.2,17.44,27.38,17c-1.2-.31-2.4-.62-3.6-.87A26.69,26.69,0,0,0,12,15.81c-.53.13-1,.27-1.58.45-.37.12-.74.25-1.1.39A46.07,46.07,0,0,1,2.6,19.07a13.71,13.71,0,0,1-2.6.29v3.45a21.46,21.46,0,0,0,7.13-1.33c2.52-.92,4.86-2.18,7.65-2.58,3.37-.48,6.77.29,10,1.11,5.49,1.41,11,3.11,16.86,2.1a28,28,0,0,0,4.74-1.32c4.05-1.47,7.77-3.3,12.69-2.44,5.56,1,10.4,3.58,16.24,3.7,6.8.14,12.61-3.14,19.28-3.55,7.51-.48,14.63,2.4,22.06,2.89a44.06,44.06,0,0,0,7.07-.11l3.38-.48,2.61-.36,9-1.25A19.18,19.18,0,0,1,145,18.9a20.48,20.48,0,0,1,5,1.54c.88.35,1.74.71,2.63,1a21.36,21.36,0,0,0,7.29,1.33h0a21.6,21.6,0,0,0,7.29-1.33c2.52-.94,4.87-2.19,7.65-2.59,3.37-.49,6.77.29,9.95,1.11,5.5,1.41,11,3.11,16.87,2.1a27.21,27.21,0,0,0,4.73-1.33c4.05-1.46,7.77-3.29,12.69-2.43,5.56,1,10.41,3.58,16.24,3.69,6.81.15,12.61-3.13,19.28-3.55,7.52-.46,14.63,2.41,22.06,2.9a44.2,44.2,0,0,0,7.08-.11l3.37-.48,11.56-1.62a19.46,19.46,0,0,1,6.37-.28c2.78.4,5.13,1.65,7.65,2.59A21.6,21.6,0,0,0,320,22.82V19.37A14.41,14.41,0,0,1,317.24,19.06Z"/><path class="cls-3" d="M173.59,23.06c0,.78-2.2,1.94-3.18,1.94a1.63,1.63,0,0,1-1.78-1.41,1.63,1.63,0,0,1,1.78-1.41C171.39,22.18,173.59,22.29,173.59,23.06Z"/><path class="cls-4" d="M285.4,17.44c-.53.09-1.07.17-1.6.23Z"/><ellipse class="cls-3" cx="176.35" cy="21.64" rx="1.05" ry="0.83"/><path class="cls-3" d="M214.28,23.24a2.06,2.06,0,0,1-2.43.4c-.81-.42-1.84-2.16-1.3-2.81s2.42.06,3.23.48A1.23,1.23,0,0,1,214.28,23.24Z"/><ellipse class="cls-3" cx="238.91" cy="16.02" rx="1.12" ry="0.89"/><path class="cls-3" d="M268.3,22c0,.89-3.08,2.24-4.2,2.24a1.86,1.86,0,0,1-2-1.61,1.86,1.86,0,0,1,2-1.61C265.22,21,268.3,21.13,268.3,22Z"/><ellipse class="cls-3" cx="260.51" cy="20.8" rx="1.02" ry="0.81"/><path class="cls-3" d="M283.83,15.61c0,.63-1.53,1.55-2.44,1.55s-1.63-.51-1.63-1.14.73-1.14,1.63-1.14S283.83,15,283.83,15.61Z"/><path class="cls-3" d="M193.63,17.13c.09-.62,1.74-1.41,2.63-1.33s1.55.65,1.47,1.28-.89,1.07-1.78,1S193.54,17.76,193.63,17.13Z"/><path class="cls-3" d="M304.23,21.78a1.58,1.58,0,0,1-3.07,0,2.11,2.11,0,0,1,1.89-1.59C303.9,20.19,304.23,21.11,304.23,21.78Z"/><path class="cls-3" d="M318.07,16.17c0,.57,0,1.5-.74,1.5s-1.89-.93-1.89-1.5a1.35,1.35,0,0,1,2.63,0Z"/><path class="cls-2" d="M320,10.93v3h-1a5.68,5.68,0,0,0-2.84.7A2.07,2.07,0,0,0,315,16.33c0,1.32-1.79,2.39-4,2.39H297.31a5.7,5.7,0,0,1-2.7-.63.61.61,0,0,1-.14-.07,2.07,2.07,0,0,1-1.17-1.69c0-1.31-1.79-2.38-4-2.38h-7.85a8,8,0,0,0-4,1,2.91,2.91,0,0,0-1.65,2.38,3,3,0,0,1-1.9,2.51,8,8,0,0,1-3.74.85h-34.7a7.9,7.9,0,0,1-4-1,2.88,2.88,0,0,1-1.66-2.37c0-1.86-2.52-3.36-5.64-3.36H208.59a6.51,6.51,0,0,0-3.25.8A2.38,2.38,0,0,0,204,16.69c0,1.51-2.06,2.74-4.6,2.74H184.86a6.52,6.52,0,0,1-3.26-.8,2.75,2.75,0,0,1-1.26-1.4,1.7,1.7,0,0,1-.09-.54c0-1.51-2.06-2.74-4.6-2.74h-6.37a11.19,11.19,0,0,0-5.67,1.4,4.12,4.12,0,0,0-2.35,3.37,3.54,3.54,0,0,1-1.34,2.64,6.7,6.7,0,0,1-1,.72,11.24,11.24,0,0,1-5.69,1.41H120.62A11.29,11.29,0,0,1,115,22.1a4.78,4.78,0,0,1-2.21-2.48,3,3,0,0,1-.14-.9c0-2.63-3.59-4.77-8-4.77H85.16a6.51,6.51,0,0,0-3.25.8,2.4,2.4,0,0,0-1.35,1.94,2,2,0,0,1-.62,1.36,4,4,0,0,1-1.47.93,7,7,0,0,1-2.52.45H64.1a6.52,6.52,0,0,1-3.26-.8,2.38,2.38,0,0,1-1.35-1.94,1.73,1.73,0,0,0,0-.32C59.19,15,57.25,14,54.89,14H51.78a7.93,7.93,0,0,0-4,1,2.91,2.91,0,0,0-1.65,2.38c0,1.85-2.53,3.36-5.64,3.36H14.4a8,8,0,0,1-4-1,3.75,3.75,0,0,1-1.13-1,2.21,2.21,0,0,1-.52-1.4C8.75,15.45,6.23,14,3.11,14H0v-3Z"/><path class="cls-5" d="M320,8.25v3h-1c-2.21,0-4,1.07-4,2.39a1.59,1.59,0,0,1-.32.94.27.27,0,0,1-.07.08,1,1,0,0,1-.2.22,1.81,1.81,0,0,1-.3.25l-.09.07a2.29,2.29,0,0,1-.31.18,1.06,1.06,0,0,1-.21.11,5.36,5.36,0,0,1-.6.24l-.34.1-.38.08a5.4,5.4,0,0,1-.58.08,6.08,6.08,0,0,1-.61,0H297.31a6.08,6.08,0,0,1-.61,0,5.77,5.77,0,0,1-.58-.08,2.88,2.88,0,0,1-.4-.09l-.3-.08a5.21,5.21,0,0,1-.79-.34,2.77,2.77,0,0,1-.34-.2l-.09-.07a1.81,1.81,0,0,1-.3-.25,2.52,2.52,0,0,1-.27-.3,2.22,2.22,0,0,1-.15-.23,1.56,1.56,0,0,1-.15-.41,1.53,1.53,0,0,1,0-.3c0-1.32-1.79-2.39-4-2.39h-7.86a8.6,8.6,0,0,0-2.67.4,6.45,6.45,0,0,0-1.3.57,3.62,3.62,0,0,0-1.4,1.37,2.19,2.19,0,0,0-.23.65,1,1,0,0,0,0,.25.28.28,0,0,0,0,.09v0c0,1.85-2.53,3.36-5.65,3.36h-34.7c-3.12,0-5.64-1.51-5.64-3.36v0a1.55,1.55,0,0,0,0-.31,1.42,1.42,0,0,0-.05-.22,3.3,3.3,0,0,0-1.59-1.83,6.24,6.24,0,0,0-.82-.4,8.6,8.6,0,0,0-3.16-.57H208.6c-2.55,0-4.61,1.23-4.61,2.74a1.53,1.53,0,0,1,0,.3,1.57,1.57,0,0,1-.08.29,2.26,2.26,0,0,1-.58.86l-.22.19a4.07,4.07,0,0,1-.79.49,6.56,6.56,0,0,1-.71.28l-.4.11-.36.09-.5.07-.33,0-.6,0H184.86l-.6,0-.33,0-.5-.07-.36-.09-.4-.11a6.56,6.56,0,0,1-.71-.28,3,3,0,0,1-1.59-1.54c0-.1-.06-.19-.08-.29a1.53,1.53,0,0,1,0-.3c0-1.51-2.07-2.74-4.61-2.74h-6.37l-.66,0a2.73,2.73,0,0,0-.41,0l-.54,0-.57.08-.38.07a10.74,10.74,0,0,0-2,.61,4.83,4.83,0,0,0-.52.23,4.63,4.63,0,0,0-.54.29c-.2.12-.38.24-.56.37a2.72,2.72,0,0,0-.32.25c-.12.09-.23.2-.34.3a4.61,4.61,0,0,0-.37.4,2.83,2.83,0,0,0-.2.28,2.25,2.25,0,0,0-.22.35,3.05,3.05,0,0,0-.37,1.44,3.58,3.58,0,0,1-1.35,2.65,9.42,9.42,0,0,1-5.4,2.06,10.58,10.58,0,0,1-1.27.07H120.62a12.05,12.05,0,0,1-3.91-.62c-2.45-.81-4.1-2.37-4.1-4.16a3.05,3.05,0,0,0-.37-1.44,2.25,2.25,0,0,0-.22-.35,2.83,2.83,0,0,0-.2-.28,4.61,4.61,0,0,0-.37-.4c-.11-.1-.22-.21-.34-.3a2.72,2.72,0,0,0-.32-.25c-.18-.13-.36-.25-.56-.37a4.63,4.63,0,0,0-.54-.29,4.83,4.83,0,0,0-.52-.23,9.94,9.94,0,0,0-2-.61l-.38-.07-.57-.08c-.18,0-.36,0-.55-.06l-.4,0-.66,0H85.17c-2.55,0-4.61,1.23-4.61,2.74a1.53,1.53,0,0,1,0,.3c0,.1,0,.19-.08.29a3,3,0,0,1-1.59,1.54,6.56,6.56,0,0,1-.71.28l-.4.11-.36.09-.5.07-.33,0-.6,0H64.1l-.6,0-.33,0-.5-.07-.36-.09-.4-.11a6,6,0,0,1-.72-.28,3.67,3.67,0,0,1-1.14-.82,1.63,1.63,0,0,1-.17-.2,2.39,2.39,0,0,1-.28-.52,1.57,1.57,0,0,1-.08-.29,1.53,1.53,0,0,1,0-.3c0-1.51-2.06-2.74-4.6-2.74h-3.1a9.09,9.09,0,0,0-2.69.4,6.37,6.37,0,0,0-.89.36,4.6,4.6,0,0,0-.87.54,1.3,1.3,0,0,0-.23.18,3,3,0,0,0-.7.86,2.19,2.19,0,0,0-.23.65,1,1,0,0,0,0,.25.28.28,0,0,0,0,.09v0c0,1.85-2.52,3.36-5.64,3.36H14.4A8.63,8.63,0,0,1,12,17.65c-1.89-.54-3.19-1.69-3.19-3v0a.28.28,0,0,0,0-.09,1,1,0,0,0,0-.25,2.19,2.19,0,0,0-.23-.65,3,3,0,0,0-.7-.86,1.3,1.3,0,0,0-.23-.18A4.6,4.6,0,0,0,6.69,12a5.91,5.91,0,0,0-.89-.36,9.09,9.09,0,0,0-2.69-.4H0v-3H18V6.07a4.83,4.83,0,0,1,9.45-1.44A3.8,3.8,0,0,1,29.57,4a3.84,3.84,0,0,1,3.84,3.84v.43H71.84V7.82a3.84,3.84,0,1,1,7.68,0v.43H118V7.82A3.84,3.84,0,0,1,121.79,4a3.76,3.76,0,0,1,2.14.66,4.84,4.84,0,0,1,9.58,1V8.25h9.29a.74.74,0,0,1,0-.14,3.81,3.81,0,0,1,5.07-2.5,3.84,3.84,0,0,1,7.61.74v1.9h32.55V3.84a3.84,3.84,0,1,1,7.68,0v.75a3.82,3.82,0,0,1,5.89,3.23v.43h28.49V5.17a3.84,3.84,0,1,1,7.68,0V6.32a2.53,2.53,0,0,1,4.72,1.29v.64h13.92V6.54a2.54,2.54,0,1,1,5.08,0V8.25h32V6.32a2.86,2.86,0,0,1,5.7-.33,2.49,2.49,0,0,1,1.94-.92,2.54,2.54,0,0,1,2.54,2.54v.64Z"/><path class="cls-6" d="M320,10.41v.86h-1c-2.21,0-4,1.07-4,2.39a1.59,1.59,0,0,1-.32.94h0a.21.21,0,0,1-.06.08,1,1,0,0,1-.2.22,1.81,1.81,0,0,1-.3.25l-.09.07a3.14,3.14,0,0,1-.31.18,1.06,1.06,0,0,1-.21.11,5.36,5.36,0,0,1-.6.24l-.34.1-.38.08a5.4,5.4,0,0,1-.58.08,6.08,6.08,0,0,1-.61,0H297.31a6.08,6.08,0,0,1-.61,0,5.77,5.77,0,0,1-.58-.08,2.88,2.88,0,0,1-.4-.09l-.3-.08a5.21,5.21,0,0,1-.79-.34,2.77,2.77,0,0,1-.34-.2l-.09-.07a1.81,1.81,0,0,1-.3-.25,2.52,2.52,0,0,1-.27-.3,2.22,2.22,0,0,1-.15-.23,1.56,1.56,0,0,1-.15-.41,1.53,1.53,0,0,1,0-.3c0-1.32-1.79-2.39-4-2.39h-7.86a8.6,8.6,0,0,0-2.67.4,5.94,5.94,0,0,0-1.3.57,3.62,3.62,0,0,0-1.4,1.37,2,2,0,0,0-.23.65,1,1,0,0,0,0,.25.28.28,0,0,0,0,.09v0c0,1.85-2.53,3.36-5.65,3.36h-34.7c-3.12,0-5.64-1.51-5.64-3.36v0a1.55,1.55,0,0,0,0-.31,1.42,1.42,0,0,0-.05-.22,3.3,3.3,0,0,0-1.59-1.83,6.24,6.24,0,0,0-.82-.4,8.6,8.6,0,0,0-3.16-.57H208.6c-2.55,0-4.61,1.23-4.61,2.74a1.53,1.53,0,0,1,0,.3,1.57,1.57,0,0,1-.08.29,2.26,2.26,0,0,1-.58.86l-.22.19a4.07,4.07,0,0,1-.79.49,6.56,6.56,0,0,1-.71.28l-.4.11-.36.09-.5.07-.33,0-.6,0H184.86l-.6,0-.33,0-.5-.07-.36-.09-.4-.11a6.56,6.56,0,0,1-.71-.28,3,3,0,0,1-1.59-1.54c0-.1-.06-.19-.08-.29a1.53,1.53,0,0,1,0-.3c0-1.51-2.07-2.74-4.61-2.74h-6.37l-.66,0a2.73,2.73,0,0,0-.41,0,4.93,4.93,0,0,0-.54,0l-.57.08-.38.07a10.74,10.74,0,0,0-2,.61l-.52.23c-.19.09-.37.19-.54.29s-.38.24-.56.37a3.92,3.92,0,0,0-.32.25,3.17,3.17,0,0,0-.34.3,4.61,4.61,0,0,0-.37.4l-.2.28a2.25,2.25,0,0,0-.22.35,3.05,3.05,0,0,0-.37,1.44,3.58,3.58,0,0,1-1.35,2.65,9.42,9.42,0,0,1-5.4,2.06,10.58,10.58,0,0,1-1.27.07H120.62a12.05,12.05,0,0,1-3.91-.62c-2.45-.81-4.1-2.37-4.1-4.16a3.05,3.05,0,0,0-.37-1.44,2.25,2.25,0,0,0-.22-.35l-.2-.28a4.61,4.61,0,0,0-.37-.4,3.17,3.17,0,0,0-.34-.3,3.92,3.92,0,0,0-.32-.25c-.18-.13-.36-.25-.56-.37s-.35-.2-.54-.29l-.52-.23a9.94,9.94,0,0,0-2-.61l-.38-.07-.57-.08c-.18,0-.36,0-.55-.06l-.4,0-.66,0H85.17c-2.55,0-4.61,1.23-4.61,2.74a1.53,1.53,0,0,1,0,.3c0,.1,0,.19-.08.29a3,3,0,0,1-1.59,1.54,6.56,6.56,0,0,1-.71.28l-.4.11-.36.09-.5.07-.33,0-.6,0H64.1l-.6,0-.33,0-.5-.07-.36-.09-.4-.11a6,6,0,0,1-.72-.28,3.67,3.67,0,0,1-1.14-.82,1.63,1.63,0,0,1-.17-.2,2.39,2.39,0,0,1-.28-.52,1.57,1.57,0,0,1-.08-.29,1.53,1.53,0,0,1,0-.3c0-1.51-2.06-2.74-4.6-2.74h-3.1a9.09,9.09,0,0,0-2.69.4,5.91,5.91,0,0,0-.89.36,4.6,4.6,0,0,0-.87.54,1.3,1.3,0,0,0-.23.18,3,3,0,0,0-.7.86,2,2,0,0,0-.23.65,1,1,0,0,0,0,.25.28.28,0,0,0,0,.09v0c0,1.85-2.52,3.36-5.64,3.36H14.4A8.63,8.63,0,0,1,12,17.65c-1.89-.54-3.19-1.69-3.19-3v0a.28.28,0,0,0,0-.09,1,1,0,0,0,0-.25,2,2,0,0,0-.23-.65,3,3,0,0,0-.7-.86,1.3,1.3,0,0,0-.23-.18A4.6,4.6,0,0,0,6.69,12a5.91,5.91,0,0,0-.89-.36,9.09,9.09,0,0,0-2.69-.4H0v-.86Z"/><path class="cls-7" d="M8.76,14.6H46.14v0c0,1.85-2.52,3.36-5.64,3.36H14.4c-3.12,0-5.64-1.51-5.64-3.36Z"/><path class="cls-7" d="M59.6,14.6H80.45C80,15.84,78.16,16.75,76,16.75H64.1C61.9,16.75,60.05,15.84,59.6,14.6Z"/><path class="cls-7" d="M112.24,14.6h49.4a3.05,3.05,0,0,0-.37,1.44c0,2.64-3.59,4.78-8,4.78H120.62c-4.42,0-8-2.14-8-4.78A3.05,3.05,0,0,0,112.24,14.6Z"/><path class="cls-7" d="M180.37,14.6h23.51c-.45,1.24-2.29,2.15-4.49,2.15H184.86C182.66,16.75,180.82,15.84,180.37,14.6Z"/><path class="cls-7" d="M229.81,14.6h46v0c0,1.85-2.53,3.36-5.65,3.36h-34.7c-3.12,0-5.64-1.51-5.64-3.36Z"/><path class="cls-7" d="M314.64,14.6A4.64,4.64,0,0,1,311,16H297.31a4.64,4.64,0,0,1-3.68-1.44Z"/></svg>