<svg id="Layer_1" data-name="Layer 1" xmlns="http://www.w3.org/2000/svg" xmlns:xlink="http://www.w3.org/1999/xlink" viewBox="0 0 70 450"><defs><style>.cls-1{fill:#095607;}.cls-2{fill:#4ec11e;}.cls-3{fill:url(#linear-gradient);}.cls-4{fill:#17a01d;}.cls-5{fill:#8bd832;}.cls-6{fill:url(#linear-gradient-2);}</style><linearGradient id="linear-gradient" x1="107.8" y1="242.76" x2="-18.04" y2="242.76" gradientUnits="userSpaceOnUse"><stop offset="0.01" stop-color="#4ec11e"/><stop offset="1" stop-color="#20a516"/></linearGradient><linearGradient id="linear-gradient-2" x1="127.12" y1="19.13" x2="-46.26" y2="19.13" xlink:href="#linear-gradient"/></defs><path class="cls-1" d="M67.11,19.85V450H2.89V19.85a2.9,2.9,0,0,1,2.77-3H64.34A2.9,2.9,0,0,1,67.11,19.85Z"/><rect class="cls-2" x="5.66" y="19.6" width="58.68" height="430.4"/><rect class="cls-3" x="35" y="35.51" width="29.34" height="414.49"/><path class="cls-4" d="M64.34,17.16V39.58a8.59,8.59,0,0,1-4.86,1.47h-49a8.59,8.59,0,0,1-4.86-1.47V17.16Z"/><path class="cls-1" d="M63.62.44A9,9,0,0,0,60.83,0H9.17A9.19,9.19,0,0,0,0,9.17V29.09a9.19,9.19,0,0,0,9.17,9.18H60.83a9.53,9.53,0,0,0,2.78-.43A9.17,9.17,0,0,0,70,29.09V9.17A9.13,9.13,0,0,0,63.62.44Z"/><path class="cls-2" d="M67.24,9.17V29.09a6.43,6.43,0,0,1-6.41,6.42H9.17a6.43,6.43,0,0,1-6.41-6.42V9.17A6.42,6.42,0,0,1,9.17,2.76H60.83A6.42,6.42,0,0,1,67.24,9.17Z"/><rect class="cls-5" x="6.67" y="4.71" width="7.72" height="9.91" rx="3.86"/><rect class="cls-5" x="6.67" y="16.43" width="7.72" height="16.08" rx="3.86"/><rect class="cls-5" x="9.97" y="44.89" width="10.08" height="17.85" rx="5.04"/><path class="cls-5" d="M20.06,74.09V450H10V74.09a5.29,5.29,0,0,1,5-5.51,4.88,4.88,0,0,1,3.58,1.61A5.78,5.78,0,0,1,20.06,74.09Z"/><path class="cls-6" d="M67.24,9.17V29.09a6.43,6.43,0,0,1-6.41,6.42h-34V2.76h34A6.42,6.42,0,0,1,67.24,9.17Z"/></svg>