<?xml version="1.0" encoding="UTF-8" standalone="no"?>
<!-- Created with Inkscape (http://www.inkscape.org/) -->

<svg
   width="50"
   height="50"
   viewBox="0 0 13.229166 13.229167"
   version="1.1"
   id="svg22808"
   inkscape:version="1.2 (dc2aedaf03, 2022-05-15)"
   sodipodi:docname="Players Defeated.svg"
   xmlns:inkscape="http://www.inkscape.org/namespaces/inkscape"
   xmlns:sodipodi="http://sodipodi.sourceforge.net/DTD/sodipodi-0.dtd"
   xmlns="http://www.w3.org/2000/svg"
   xmlns:svg="http://www.w3.org/2000/svg">
  <sodipodi:namedview
     id="namedview22810"
     pagecolor="#505050"
     bordercolor="#ffffff"
     borderopacity="1"
     inkscape:showpageshadow="0"
     inkscape:pageopacity="0"
     inkscape:pagecheckerboard="1"
     inkscape:deskcolor="#505050"
     inkscape:document-units="mm"
     showgrid="false"
     inkscape:zoom="7.2883749"
     inkscape:cx="23.599225"
     inkscape:cy="28.401393"
     inkscape:window-width="1366"
     inkscape:window-height="705"
     inkscape:window-x="-8"
     inkscape:window-y="-8"
     inkscape:window-maximized="1"
     inkscape:current-layer="layer1" />
  <defs
     id="defs22805">
    <filter
       style="color-interpolation-filters:sRGB"
       inkscape:label="Drop Shadow"
       id="filter24968"
       x="0"
       y="0"
       width="1.0303687"
       height="1.0159116">
      <feFlood
         flood-opacity="1"
         flood-color="rgb(128,0,36)"
         result="flood"
         id="feFlood24958" />
      <feComposite
         in="flood"
         in2="SourceGraphic"
         operator="in"
         result="composite1"
         id="feComposite24960" />
      <feGaussianBlur
         in="composite1"
         stdDeviation="0"
         result="blur"
         id="feGaussianBlur24962" />
      <feOffset
         dx="0.9"
         dy="0.5"
         result="offset"
         id="feOffset24964" />
      <feComposite
         in="SourceGraphic"
         in2="offset"
         operator="over"
         result="composite2"
         id="feComposite24966" />
    </filter>
    <clipPath
       clipPathUnits="userSpaceOnUse"
       id="clipPath25353">
      <g
         aria-label="x"
         id="g25357"
         style="font-weight:bold;font-size:61.736px;font-family:'Titan One';-inkscape-font-specification:'Titan One Bold';fill:#ff0c2f;stroke-width:1.223;stroke-linecap:round;stroke-linejoin:round;stroke-miterlimit:9.4;paint-order:stroke fill markers">
        <path
           d="m 111.64137,160.04877 q -2.03728,0 -3.272,-1.11124 -1.23472,-1.11125 -1.29646,-2.83986 0,-1.72861 1.41993,-3.51895 l 9.13693,-11.11248 v 4.87714 l -8.3961,-10.24817 q -1.41993,-1.85208 -1.41993,-3.51896 0.0617,-1.7286 1.29646,-2.83985 1.23472,-1.11125 3.27201,-1.11125 1.97555,0 3.21027,0.6791 1.29645,0.61736 2.46944,2.09902 l 5.74145,7.40832 h -3.82764 l 5.74145,-7.40832 q 1.17299,-1.48166 2.46944,-2.09902 1.29646,-0.6791 3.21027,-0.6791 2.09903,0 3.27201,1.11125 1.23472,1.11125 1.23472,2.83985 0.0617,1.72861 -1.41993,3.51896 l -8.39609,10.24817 v -4.87714 l 9.19866,11.11248 q 1.48167,1.72861 1.41993,3.45721 -0.0617,1.72861 -1.29646,2.9016 -1.23472,1.11124 -3.33374,1.11124 -1.91382,0 -3.21027,-0.61736 -1.29646,-0.67909 -2.46944,-2.16076 l -6.42055,-8.21088 h 3.7659 l -6.48228,8.21088 q -1.11125,1.41993 -2.4077,2.09903 -1.23472,0.67909 -3.21028,0.67909 z"
           style="font-weight:900;font-family:Nunito;-inkscape-font-specification:'Nunito Heavy'"
           id="path25355" />
      </g>
    </clipPath>
    <clipPath
       clipPathUnits="userSpaceOnUse"
       id="clipPath25365">
      <g
         aria-label="x"
         id="g25369"
         style="font-weight:bold;font-size:61.736px;font-family:'Titan One';-inkscape-font-specification:'Titan One Bold';fill:#ff0c2f;stroke-width:1.223;stroke-linecap:round;stroke-linejoin:round;stroke-miterlimit:9.4;paint-order:stroke fill markers"
         transform="rotate(39.486459)">
        <path
           d="m 111.64137,160.04877 q -2.03728,0 -3.272,-1.11124 -1.23472,-1.11125 -1.29646,-2.83986 0,-1.72861 1.41993,-3.51895 l 9.13693,-11.11248 v 4.87714 l -8.3961,-10.24817 q -1.41993,-1.85208 -1.41993,-3.51896 0.0617,-1.7286 1.29646,-2.83985 1.23472,-1.11125 3.27201,-1.11125 1.97555,0 3.21027,0.6791 1.29645,0.61736 2.46944,2.09902 l 5.74145,7.40832 h -3.82764 l 5.74145,-7.40832 q 1.17299,-1.48166 2.46944,-2.09902 1.29646,-0.6791 3.21027,-0.6791 2.09903,0 3.27201,1.11125 1.23472,1.11125 1.23472,2.83985 0.0617,1.72861 -1.41993,3.51896 l -8.39609,10.24817 v -4.87714 l 9.19866,11.11248 q 1.48167,1.72861 1.41993,3.45721 -0.0617,1.72861 -1.29646,2.9016 -1.23472,1.11124 -3.33374,1.11124 -1.91382,0 -3.21027,-0.61736 -1.29646,-0.67909 -2.46944,-2.16076 l -6.42055,-8.21088 h 3.7659 l -6.48228,8.21088 q -1.11125,1.41993 -2.4077,2.09903 -1.23472,0.67909 -3.21028,0.67909 z"
           style="font-weight:900;font-family:Nunito;-inkscape-font-specification:'Nunito Heavy'"
           id="path25367" />
      </g>
    </clipPath>
    <clipPath
       clipPathUnits="userSpaceOnUse"
       id="clipPath25584">
      <g
         aria-label="x"
         id="g25588"
         style="font-weight:bold;font-size:61.736px;font-family:'Titan One';-inkscape-font-specification:'Titan One Bold';fill:#ff0c2f;stroke-width:1.223;stroke-linecap:round;stroke-linejoin:round;stroke-miterlimit:9.4;paint-order:stroke fill markers"
         transform="rotate(40.616412)">
        <path
           d="m 111.64137,160.04877 q -2.03728,0 -3.272,-1.11124 -1.23472,-1.11125 -1.29646,-2.83986 0,-1.72861 1.41993,-3.51895 l 9.13693,-11.11248 v 4.87714 l -8.3961,-10.24817 q -1.41993,-1.85208 -1.41993,-3.51896 0.0617,-1.7286 1.29646,-2.83985 1.23472,-1.11125 3.27201,-1.11125 1.97555,0 3.21027,0.6791 1.29645,0.61736 2.46944,2.09902 l 5.74145,7.40832 h -3.82764 l 5.74145,-7.40832 q 1.17299,-1.48166 2.46944,-2.09902 1.29646,-0.6791 3.21027,-0.6791 2.09903,0 3.27201,1.11125 1.23472,1.11125 1.23472,2.83985 0.0617,1.72861 -1.41993,3.51896 l -8.39609,10.24817 v -4.87714 l 9.19866,11.11248 q 1.48167,1.72861 1.41993,3.45721 -0.0617,1.72861 -1.29646,2.9016 -1.23472,1.11124 -3.33374,1.11124 -1.91382,0 -3.21027,-0.61736 -1.29646,-0.67909 -2.46944,-2.16076 l -6.42055,-8.21088 h 3.7659 l -6.48228,8.21088 q -1.11125,1.41993 -2.4077,2.09903 -1.23472,0.67909 -3.21028,0.67909 z"
           style="font-weight:900;font-family:Nunito;-inkscape-font-specification:'Nunito Heavy'"
           id="path25586" />
      </g>
    </clipPath>
    <clipPath
       clipPathUnits="userSpaceOnUse"
       id="clipPath26705">
      <g
         aria-label="x"
         id="g26709"
         style="font-weight:bold;font-size:61.736px;font-family:'Titan One';-inkscape-font-specification:'Titan One Bold';fill:#ff0c2f;stroke-width:1.223;stroke-linecap:round;stroke-linejoin:round;stroke-miterlimit:9.4;paint-order:stroke fill markers">
        <path
           d="m 111.64137,160.04877 q -2.03728,0 -3.272,-1.11124 -1.23472,-1.11125 -1.29646,-2.83986 0,-1.72861 1.41993,-3.51895 l 9.13693,-11.11248 v 4.87714 l -8.3961,-10.24817 q -1.41993,-1.85208 -1.41993,-3.51896 0.0617,-1.7286 1.29646,-2.83985 1.23472,-1.11125 3.27201,-1.11125 1.97555,0 3.21027,0.6791 1.29645,0.61736 2.46944,2.09902 l 5.74145,7.40832 h -3.82764 l 5.74145,-7.40832 q 1.17299,-1.48166 2.46944,-2.09902 1.29646,-0.6791 3.21027,-0.6791 2.09903,0 3.27201,1.11125 1.23472,1.11125 1.23472,2.83985 0.0617,1.72861 -1.41993,3.51896 l -8.39609,10.24817 v -4.87714 l 9.19866,11.11248 q 1.48167,1.72861 1.41993,3.45721 -0.0617,1.72861 -1.29646,2.9016 -1.23472,1.11124 -3.33374,1.11124 -1.91382,0 -3.21027,-0.61736 -1.29646,-0.67909 -2.46944,-2.16076 l -6.42055,-8.21088 h 3.7659 l -6.48228,8.21088 q -1.11125,1.41993 -2.4077,2.09903 -1.23472,0.67909 -3.21028,0.67909 z"
           style="font-weight:900;font-family:Nunito;-inkscape-font-specification:'Nunito Heavy'"
           id="path26707" />
      </g>
    </clipPath>
  </defs>
  <g
     inkscape:label="Layer 1"
     inkscape:groupmode="layer"
     id="layer1">
    <g
       id="g28927"
       transform="matrix(0.40707978,0,0,0.40707978,-43.187876,-52.243844)">
      <g
         aria-label="x"
         id="text22866"
         style="font-weight:bold;font-size:61.736px;font-family:'Titan One';-inkscape-font-specification:'Titan One Bold';fill:#ff0c2f;stroke-width:1.223;stroke-linecap:round;stroke-linejoin:round;stroke-miterlimit:9.4;paint-order:stroke fill markers;filter:url(#filter24968)">
        <path
           d="m 111.64137,160.04877 q -2.03728,0 -3.272,-1.11124 -1.23472,-1.11125 -1.29646,-2.83986 0,-1.72861 1.41993,-3.51895 l 9.13693,-11.11248 v 4.87714 l -8.3961,-10.24817 q -1.41993,-1.85208 -1.41993,-3.51896 0.0617,-1.7286 1.29646,-2.83985 1.23472,-1.11125 3.27201,-1.11125 1.97555,0 3.21027,0.6791 1.29645,0.61736 2.46944,2.09902 l 5.74145,7.40832 h -3.82764 l 5.74145,-7.40832 q 1.17299,-1.48166 2.46944,-2.09902 1.29646,-0.6791 3.21027,-0.6791 2.09903,0 3.27201,1.11125 1.23472,1.11125 1.23472,2.83985 0.0617,1.72861 -1.41993,3.51896 l -8.39609,10.24817 v -4.87714 l 9.19866,11.11248 q 1.48167,1.72861 1.41993,3.45721 -0.0617,1.72861 -1.29646,2.9016 -1.23472,1.11124 -3.33374,1.11124 -1.91382,0 -3.21027,-0.61736 -1.29646,-0.67909 -2.46944,-2.16076 l -6.42055,-8.21088 h 3.7659 l -6.48228,8.21088 q -1.11125,1.41993 -2.4077,2.09903 -1.23472,0.67909 -3.21028,0.67909 z"
           style="font-weight:900;font-family:Nunito;-inkscape-font-specification:'Nunito Heavy'"
           id="path24223" />
      </g>
      <g
         aria-label="x"
         id="g24497"
         style="font-weight:bold;font-size:61.736px;font-family:'Titan One';-inkscape-font-specification:'Titan One Bold';fill:#ff0c2f;stroke-width:1.223;stroke-linecap:round;stroke-linejoin:round;stroke-miterlimit:9.4;paint-order:stroke fill markers">
        <path
           d="m 111.64137,160.04877 q -2.03728,0 -3.272,-1.11124 -1.23472,-1.11125 -1.29646,-2.83986 0,-1.72861 1.41993,-3.51895 l 9.13693,-11.11248 v 4.87714 l -8.3961,-10.24817 q -1.41993,-1.85208 -1.41993,-3.51896 0.0617,-1.7286 1.29646,-2.83985 1.23472,-1.11125 3.27201,-1.11125 1.97555,0 3.21027,0.6791 1.29645,0.61736 2.46944,2.09902 l 5.74145,7.40832 h -3.82764 l 5.74145,-7.40832 q 1.17299,-1.48166 2.46944,-2.09902 1.29646,-0.6791 3.21027,-0.6791 2.09903,0 3.27201,1.11125 1.23472,1.11125 1.23472,2.83985 0.0617,1.72861 -1.41993,3.51896 l -8.39609,10.24817 v -4.87714 l 9.19866,11.11248 q 1.48167,1.72861 1.41993,3.45721 -0.0617,1.72861 -1.29646,2.9016 -1.23472,1.11124 -3.33374,1.11124 -1.91382,0 -3.21027,-0.61736 -1.29646,-0.67909 -2.46944,-2.16076 l -6.42055,-8.21088 h 3.7659 l -6.48228,8.21088 q -1.11125,1.41993 -2.4077,2.09903 -1.23472,0.67909 -3.21028,0.67909 z"
           style="font-weight:900;font-family:Nunito;-inkscape-font-specification:'Nunito Heavy'"
           id="path24495" />
      </g>
      <path
         id="rect24278"
         style="opacity:0.312668;fill:#7c0012;stroke-width:0.852486;stroke-linecap:round;stroke-linejoin:round;stroke-miterlimit:9.4;paint-order:stroke fill markers"
         d="m 104.07824,165.23827 31.60512,-37.78028 28.32257,23.69328 -31.60512,37.78028 z"
         sodipodi:nodetypes="ccccc"
         clip-path="url(#clipPath25353)" />
      <rect
         style="opacity:0.444744;fill:#7c0012;fill-opacity:1;stroke-width:0.729085;stroke-linecap:round;stroke-linejoin:round;stroke-miterlimit:9.4;paint-order:stroke fill markers"
         id="rect25359"
         width="11.413531"
         height="21.70809"
         x="-12.232817"
         y="162.79013"
         transform="rotate(-39.486459)"
         clip-path="url(#clipPath25365)" />
      <rect
         style="opacity:0.544474;fill:#ff0c2f;fill-opacity:1;stroke-width:1.223;stroke-linecap:round;stroke-linejoin:round;stroke-miterlimit:9.4;paint-order:stroke fill markers"
         id="rect25371"
         width="9.4143429"
         height="20.188534"
         x="2.1149468"
         y="192.60727"
         transform="rotate(-40.616412)"
         clip-path="url(#clipPath25584)" />
      <path
         id="rect25590"
         style="opacity:0.336927;mix-blend-mode:multiply;fill:#68001d;fill-opacity:0.872781;stroke-width:0.860127;stroke-linecap:round;stroke-linejoin:round;stroke-miterlimit:9.4;paint-order:stroke fill markers"
         d="m 105.57672,143.56517 c 11.55972,8.02032 22.47123,6.31737 33.07511,0 v 24.32698 h -33.07511 z"
         sodipodi:nodetypes="ccccc"
         clip-path="url(#clipPath26705)" />
    </g>
  </g>
</svg>
