<?xml version="1.0" encoding="UTF-8" standalone="no"?>
<!-- Created with Inkscape (http://www.inkscape.org/) -->

<svg
   width="50"
   height="50"
   viewBox="0 0 13.229167 13.229166"
   version="1.1"
   id="svg5"
   xml:space="preserve"
   inkscape:version="1.2 (dc2aedaf03, 2022-05-15)"
   sodipodi:docname="Time Before Reset.svg"
   xmlns:inkscape="http://www.inkscape.org/namespaces/inkscape"
   xmlns:sodipodi="http://sodipodi.sourceforge.net/DTD/sodipodi-0.dtd"
   xmlns="http://www.w3.org/2000/svg"
   xmlns:svg="http://www.w3.org/2000/svg"><sodipodi:namedview
     id="namedview7"
     pagecolor="#505050"
     bordercolor="#ffffff"
     borderopacity="1"
     inkscape:showpageshadow="0"
     inkscape:pageopacity="0"
     inkscape:pagecheckerboard="1"
     inkscape:deskcolor="#505050"
     inkscape:document-units="mm"
     showgrid="false"
     inkscape:zoom="3.9598095"
     inkscape:cx="17.172543"
     inkscape:cy="24.24359"
     inkscape:window-width="1366"
     inkscape:window-height="705"
     inkscape:window-x="-8"
     inkscape:window-y="-8"
     inkscape:window-maximized="1"
     inkscape:current-layer="g55030" /><defs
     id="defs2"><filter
       style="color-interpolation-filters:sRGB"
       inkscape:label="Drop Shadow"
       id="filter11699"
       x="-0.011877438"
       y="-0.015849797"
       width="1.0118774"
       height="1.0158498"><feFlood
         flood-opacity="1"
         flood-color="rgb(160,85,4)"
         result="flood"
         id="feFlood11689" /><feComposite
         in="flood"
         in2="SourceGraphic"
         operator="in"
         result="composite1"
         id="feComposite11691" /><feGaussianBlur
         in="composite1"
         stdDeviation="0"
         result="blur"
         id="feGaussianBlur11693" /><feOffset
         dx="-1.5"
         dy="-2.2"
         result="offset"
         id="feOffset11695" /><feComposite
         in="SourceGraphic"
         in2="offset"
         operator="over"
         result="composite2"
         id="feComposite11697" /></filter><filter
       style="color-interpolation-filters:sRGB"
       inkscape:label="Drop Shadow"
       id="filter14418"
       x="0"
       y="0"
       width="1.128338"
       height="1"><feFlood
         flood-opacity="1"
         flood-color="rgb(200,133,0)"
         result="flood"
         id="feFlood14408" /><feComposite
         in="flood"
         in2="SourceGraphic"
         operator="in"
         result="composite1"
         id="feComposite14410" /><feGaussianBlur
         in="composite1"
         stdDeviation="0"
         result="blur"
         id="feGaussianBlur14412" /><feOffset
         dx="1.5"
         dy="0"
         result="offset"
         id="feOffset14414" /><feComposite
         in="SourceGraphic"
         in2="offset"
         operator="over"
         result="composite2"
         id="feComposite14416" /></filter></defs><g
     inkscape:label="Layer 1"
     inkscape:groupmode="layer"
     id="layer1"
     transform="translate(-63.545681,-61.622234)"><g
       id="g14466" /><g
       id="g55030"
       transform="matrix(0.06121635,0,0,0.06121635,59.801331,58.005727)"><g
         id="g13504"
         transform="matrix(0.18355959,0.64111296,-0.64111296,0.18355959,258.95415,-86.990041)"><rect
           style="fill:#d69607;fill-opacity:1;stroke-width:1.00751;stroke-linecap:round;stroke-linejoin:round;stroke-miterlimit:9.4"
           id="rect13492"
           width="35.358761"
           height="56.812386"
           x="323.17172"
           y="84.031479" /><rect
           style="fill:#b27d06;fill-opacity:1;stroke-width:0.65706;stroke-linecap:round;stroke-linejoin:round;stroke-miterlimit:9.4"
           id="rect13494"
           width="35.358761"
           height="24.163219"
           x="323.17172"
           y="84.031479" /><rect
           style="fill:#ffffff;fill-opacity:1;stroke-width:0.231139;stroke-linecap:round;stroke-linejoin:round;stroke-miterlimit:9.4"
           id="rect13496"
           width="1.860985"
           height="56.812386"
           x="323.17172"
           y="84.031479" /><rect
           style="fill:#fea800;fill-opacity:1;stroke-width:1.10289;stroke-linecap:round;stroke-linejoin:round;stroke-miterlimit:9.4"
           id="rect13498"
           width="71.232323"
           height="26.618395"
           x="305.23492"
           y="79.661293"
           ry="13.309197" /><path
           id="path13500"
           style="fill:#d69607;fill-opacity:1;stroke-width:1.10289;stroke-linecap:round;stroke-linejoin:round;stroke-miterlimit:9.4"
           d="m 366.36602,80.049892 c 2.6332,4.653875 3.99363,10.017087 3.58789,15.426965 -0.29533,3.937829 -1.49243,7.445863 -3.3693,10.359063 5.70185,-1.50459 9.8826,-6.6779 9.8826,-12.86537 0,-6.266222 -4.28798,-11.491982 -10.10119,-12.920658 z" /><path
           id="path13502"
           style="fill:#ffffff;stroke-width:0.264385;stroke-linecap:round;stroke-linejoin:round;stroke-miterlimit:9.4"
           d="m 309.68895,85.315595 h 4.48028 c -3.29012,4.492108 -2.9484,8.791978 0,13.018298 h -4.48028 c -1.1605,-4.33943 -1.71776,-8.67887 0,-13.018298 z"
           sodipodi:nodetypes="ccccc" /></g><g
         id="g13490"
         transform="rotate(40.776022,290.7129,-56.180375)"><rect
           style="fill:#d69607;fill-opacity:1;stroke-width:1.00751;stroke-linecap:round;stroke-linejoin:round;stroke-miterlimit:9.4"
           id="rect12630"
           width="35.358761"
           height="56.812386"
           x="323.17172"
           y="84.031479" /><rect
           style="fill:#b27d06;fill-opacity:1;stroke-width:0.65706;stroke-linecap:round;stroke-linejoin:round;stroke-miterlimit:9.4"
           id="rect13275"
           width="35.358761"
           height="24.163219"
           x="323.17172"
           y="84.031479" /><rect
           style="fill:#ffffff;fill-opacity:1;stroke-width:0.231139;stroke-linecap:round;stroke-linejoin:round;stroke-miterlimit:9.4"
           id="rect12757"
           width="1.860985"
           height="56.812386"
           x="323.17172"
           y="84.031479" /><rect
           style="fill:#fea800;fill-opacity:1;stroke-width:1.10289;stroke-linecap:round;stroke-linejoin:round;stroke-miterlimit:9.4"
           id="rect12759"
           width="71.232323"
           height="26.618395"
           x="305.23492"
           y="79.661293"
           ry="13.309197" /><path
           id="rect13020"
           style="fill:#d69607;fill-opacity:1;stroke-width:1.10289;stroke-linecap:round;stroke-linejoin:round;stroke-miterlimit:9.4"
           d="m 366.36602,80.049892 c 2.6332,4.653875 3.99363,10.017087 3.58789,15.426965 -0.29533,3.937829 -1.49243,7.445863 -3.3693,10.359063 5.70185,-1.50459 9.8826,-6.6779 9.8826,-12.86537 0,-6.266222 -4.28798,-11.491982 -10.10119,-12.920658 z" /><path
           id="rect13255"
           style="fill:#ffffff;stroke-width:0.264385;stroke-linecap:round;stroke-linejoin:round;stroke-miterlimit:9.4"
           d="m 309.68895,85.315595 h 4.48028 c -3.29012,4.492108 -2.9484,8.791978 0,13.018298 h -4.48028 c -1.1605,-4.33943 -1.71776,-8.67887 0,-13.018298 z"
           sodipodi:nodetypes="ccccc" /></g><circle
         style="opacity:1;fill:#ffa800;fill-opacity:1;fill-rule:evenodd;stroke-width:0.292183"
         id="path4996"
         cx="156.58833"
         cy="179.59534"
         r="93.04248" /><path
         id="path12242"
         style="opacity:0.485185;mix-blend-mode:normal;fill:#ffdba9;fill-opacity:1;stroke-width:0.735035;stroke-linecap:round;stroke-linejoin:round;stroke-miterlimit:9.4"
         d="m 3.9089574,145.83502 a 93.04248,93.04248 0 0 0 -1.4275482,-0.20232 93.04248,93.04248 0 0 0 -6.6261337,-0.45977 93.04248,93.04248 0 0 0 -6.6418485,0.014 93.04248,93.04248 0 0 0 -6.623915,0.48795 93.04248,93.04248 0 0 0 -4.744327,0.69219 l 7.1e-5,183.59877 a 93.04248,93.04248 0 0 0 5.136641,0.72712 93.04248,93.04248 0 0 0 6.626134,0.45977 93.04248,93.04248 0 0 0 6.6418485,-0.014 93.04248,93.04248 0 0 0 6.6235635,-0.48758 93.04248,93.04248 0 0 0 1.0357087,-0.15108 z"
         transform="rotate(-42.833063)" /><path
         id="path12247"
         style="opacity:0.485185;mix-blend-mode:normal;fill:#ffdba9;fill-opacity:1;stroke-width:1.11957;stroke-linecap:round;stroke-linejoin:round;stroke-miterlimit:9.4"
         d="m -61.175092,162.42604 a 93.04248,93.04248 0 0 0 -2.303761,1.59336 93.04248,93.04248 0 0 0 -6.248511,5.18101 93.04248,93.04248 0 0 0 -5.772656,5.70602 93.04248,93.04248 0 0 0 -5.253477,6.18735 93.04248,93.04248 0 0 0 -4.694006,6.62216 93.04248,93.04248 0 0 0 -4.099548,7.00557 93.04248,93.04248 0 0 0 -3.4727,7.33654 93.04248,93.04248 0 0 0 -2.820931,7.611 93.04248,93.04248 0 0 0 -2.14611,7.8279 93.04248,93.04248 0 0 0 -1.455971,7.98572 93.04248,93.04248 0 0 0 -0.754277,8.08167 93.04248,93.04248 0 0 0 -0.0472,8.11635 93.04248,93.04248 0 0 0 0.660459,8.09031 93.04248,93.04248 0 0 0 1.36284,8.00156 93.04248,93.04248 0 0 0 2.055247,7.85213 93.04248,93.04248 0 0 0 2.731894,7.64369 93.04248,93.04248 0 0 0 3.387285,7.3761 93.04248,93.04248 0 0 0 4.01791,7.05311 93.04248,93.04248 0 0 0 4.616494,6.67576 93.04248,93.04248 0 0 0 5.18136,6.24813 93.04248,93.04248 0 0 0 5.706402,5.77301 93.04248,93.04248 0 0 0 6.187344,5.25348 93.04248,93.04248 0 0 0 3.162298,2.24183 z"
         transform="rotate(-42.833063)" /><circle
         style="opacity:1;fill:#ba6305;fill-opacity:1;fill-rule:evenodd;stroke-width:0.217948;filter:url(#filter11699)"
         id="circle4998"
         cx="156.58832"
         cy="179.59534"
         r="69.403023" /><path
         id="rect12302"
         style="opacity:1;fill:#ffffff;stroke-width:0.808927;stroke-linecap:round;stroke-linejoin:round;stroke-miterlimit:9.4"
         d="m 133.50162,89.463817 a 93.04248,93.04248 0 0 0 -0.0522,0.01189 93.04248,93.04248 0 0 0 -5.61258,1.630908 93.04248,93.04248 0 0 0 -5.49992,1.980241 93.04248,93.04248 0 0 0 -5.36402,2.321305 93.04248,93.04248 0 0 0 -5.20795,2.653585 93.04248,93.04248 0 0 0 -5.03121,2.975004 93.04248,93.04248 0 0 0 -4.83433,3.28559 93.04248,93.04248 0 0 0 -4.618844,3.58273 93.04248,93.04248 0 0 0 -4.384229,3.8654 93.04248,93.04248 0 0 0 -4.133081,4.13308 93.04248,93.04248 0 0 0 -3.865397,4.38423 93.04248,93.04248 0 0 0 -3.582727,4.61832 93.04248,93.04248 0 0 0 -3.285071,4.83433 93.04248,93.04248 0 0 0 -2.975529,5.03122 93.04248,93.04248 0 0 0 -2.653585,5.20795 93.04248,93.04248 0 0 0 -2.321305,5.36453 93.04248,93.04248 0 0 0 -1.979724,5.4994 93.04248,93.04248 0 0 0 -0.466638,1.60559 C 82.511776,125.19659 101.64635,104.183 136.18983,99.756212 Z" /><path
         id="circle12422"
         style="opacity:1;fill:#ffffff;fill-opacity:1;fill-rule:evenodd;stroke-width:0.217948"
         d="m 234.4014,177.78349 -4.20026,1.0635 a 69.403023,69.403023 0 0 1 0.0238,0.74828 69.403023,69.403023 0 0 1 -18.9482,47.56299 l 2.85615,1.45314 a 69.403023,69.403023 0 0 0 20.32538,-49.01613 69.403023,69.403023 0 0 0 -0.0568,-1.81178 z" /><path
         id="circle12504"
         style="opacity:1;fill:#d69607;fill-opacity:1;fill-rule:evenodd;stroke-width:0.292183"
         d="m 228.06897,120.03559 a 93.04248,93.04248 0 0 1 17.85783,54.79718 93.04248,93.04248 0 0 1 -93.04238,93.04238 93.04248,93.04248 0 0 1 -71.414249,-33.48633 93.04248,93.04248 0 0 0 75.118409,38.24883 93.04248,93.04248 0 0 0 93.04239,-93.04238 93.04248,93.04248 0 0 0 -21.562,-59.55968 z" /><path
         style="opacity:1;fill:#ffffff;fill-opacity:1;fill-rule:evenodd;stroke-width:0.217948;filter:url(#filter11699)"
         id="circle53765"
         sodipodi:type="arc"
         sodipodi:cx="156.58832"
         sodipodi:cy="179.59534"
         sodipodi:rx="69.403023"
         sodipodi:ry="69.403023"
         sodipodi:start="0.60998012"
         sodipodi:end="4.7030875"
         sodipodi:arc-type="slice"
         d="m 213.47516,219.35294 a 69.403023,69.403023 0 0 1 -84.1406,24.07039 69.403023,69.403023 0 0 1 -40.805175,-77.42068 69.403023,69.403023 0 0 1 67.413395,-55.80733 l 0.64554,69.40002 z" /><g
         id="g14443"
         inkscape:transform-center-x="-1.6108128"
         inkscape:transform-center-y="1.0408444"
         transform="rotate(35.784836,153.87842,178.96875)"><path
           id="rect13560"
           style="opacity:1;fill:#ffa800;stroke-width:0.859983;stroke-linecap:round;stroke-linejoin:round;stroke-miterlimit:9.4"
           d="m 156.50543,173.28384 68.55113,3.60795 -68.55113,6.81503 z"
           sodipodi:nodetypes="cccc" /><circle
           style="opacity:1;fill:#ffa800;fill-opacity:1;fill-rule:evenodd;stroke-width:0.0183519;filter:url(#filter14418)"
           id="circle13506"
           cx="155.13272"
           cy="178.49533"
           r="5.8439412" /><path
           id="path14429"
           style="opacity:0.674074;fill:#ffdba9;fill-opacity:1;stroke-width:0.847964;stroke-linecap:round;stroke-linejoin:round;stroke-miterlimit:9.4"
           d="m 171.30943,208.80341 -13.22875,-3.06043 7e-5,5.09961 13.22882,1.00339 z"
           transform="rotate(-10.013227)" /><path
           id="rect14432"
           style="opacity:0.560886;fill:#ffdba9;fill-opacity:1;stroke-width:1.312;stroke-linecap:round;stroke-linejoin:round;stroke-miterlimit:9.4"
           d="m -13.454111,230.3079 a 5.8439412,5.8439412 0 0 0 -0.04896,7.3e-4 5.8439412,5.8439412 0 0 0 -0.823593,0.13106 5.8439412,5.8439412 0 0 0 -0.796283,0.24686 5.8439412,5.8439412 0 0 0 -0.752975,0.35731 5.8439412,5.8439412 0 0 0 -0.694779,0.46133 5.8439412,5.8439412 0 0 0 -0.621749,0.55525 5.8439412,5.8439412 0 0 0 -0.536822,0.63841 5.8439412,5.8439412 0 0 0 -0.440398,0.70823 5.8439412,5.8439412 0 0 0 -0.334692,0.7633 5.8439412,5.8439412 0 0 0 -0.223,0.80329 5.8439412,5.8439412 0 0 0 -0.106432,0.82713 5.8439412,5.8439412 0 0 0 0.01244,0.83377 5.8439412,5.8439412 0 0 0 0.131057,0.82359 5.8439412,5.8439412 0 0 0 0.246862,0.79629 5.8439412,5.8439412 0 0 0 0.357683,0.75333 5.8439412,5.8439412 0 0 0 0.460957,0.69442 5.8439412,5.8439412 0 0 0 0.555625,0.62211 5.8439412,5.8439412 0 0 0 0.638036,0.53646 5.8439412,5.8439412 0 0 0 0.70823,0.4404 5.8439412,5.8439412 0 0 0 0.763669,0.33505 5.8439412,5.8439412 0 0 0 0.803293,0.223 5.8439412,5.8439412 0 0 0 0.701907,0.09 z"
           transform="rotate(-44.145338)" /></g></g></g></svg>
