<?xml version="1.0" encoding="UTF-8" standalone="no"?>
<!-- Created with Inkscape (http://www.inkscape.org/) -->

<svg
   xmlns:dc="http://purl.org/dc/elements/1.1/"
   xmlns:cc="http://creativecommons.org/ns#"
   xmlns:rdf="http://www.w3.org/1999/02/22-rdf-syntax-ns#"
   xmlns:svg="http://www.w3.org/2000/svg"
   xmlns="http://www.w3.org/2000/svg"
   xmlns:sodipodi="http://sodipodi.sourceforge.net/DTD/sodipodi-0.dtd"
   xmlns:inkscape="http://www.inkscape.org/namespaces/inkscape"
   width="50"
   height="50"
   viewBox="0 0 13.229166 13.229167"
   version="1.1"
   id="svg9696"
   inkscape:version="0.92.4 (5da689c313, 2019-01-14)"
   sodipodi:docname="bigMissile.svg">
  <defs
     id="defs9690" />
  <sodipodi:namedview
     id="base"
     pagecolor="#ffffff"
     bordercolor="#666666"
     borderopacity="1.0"
     inkscape:pageopacity="0.0"
     inkscape:pageshadow="2"
     inkscape:zoom="5.6"
     inkscape:cx="10.856486"
     inkscape:cy="47.609849"
     inkscape:document-units="px"
     inkscape:current-layer="use8949"
     showgrid="false"
     units="px"
     inkscape:window-width="1920"
     inkscape:window-height="1001"
     inkscape:window-x="-9"
     inkscape:window-y="-9"
     inkscape:window-maximized="1" />
  <metadata
     id="metadata9693">
    <rdf:RDF>
      <cc:Work
         rdf:about="">
        <dc:format>image/svg+xml</dc:format>
        <dc:type
           rdf:resource="http://purl.org/dc/dcmitype/StillImage" />
        <dc:title></dc:title>
      </cc:Work>
    </rdf:RDF>
  </metadata>
  <g
     inkscape:label="Layer 1"
     inkscape:groupmode="layer"
     id="layer1"
     transform="translate(0,-283.7708)">
    <g
       id="g8951"
       transform="matrix(1.6166826,0,0,1.2507817,-609.55535,-286.94306)">
      <g
         transform="matrix(0.26458333,0,0,0.26458333,0,283.7708)"
         id="use8949">
        <g
           id="g11041"
           transform="matrix(1.0756544,0,0,1,-108.98017,-1.6391392e-6)">
          <path
             d="m 1443.95,690 h 2.6 l 1.45,-6.85 -3.25,-3.1 -2.15,6.6 1.35,3.35 m -9.5,0 h 2.6 l 1.35,-3.35 -2.1,-6.6 -3.3,3.1 1.45,6.85 m 6.05,-24.4 q 2.35,0.15 4.7,-0.4 -1.15,-7.55 -4.7,-11.2 -3.5,3.65 -4.7,11.2 2.35,0.55 4.7,0.4 z"
             id="path10305"
             inkscape:connector-curvature="0"
             style="fill:#9f62af;fill-opacity:1;stroke:none" />
          <path
             d="m 1442.6,686.65 h -4.2 l 1.35,2 h 1.5 l 1.35,-2 m -7.1,-18.45 q 0,-0.4 0,-0.8 0.15,-1.15 0.3,-2.2 h -2 q -0.15,0.95 -0.25,1.95 -0.05,0.15 -0.05,0.25 0,0.4 0,0.8 0,0.05 0,0.15 0.05,0.55 0.05,1.15 v 0.05 q 0.1,4.4 0.5,8.6 0.05,0.55 0.15,1.15 l 2.1,0.75 q -0.15,-1.05 -0.25,-2.1 -0.4,-4.15 -0.5,-8.45 0,-0.65 -0.05,-1.3 m 9.7,-3 q 0.2,1.05 0.3,2.2 0,0.4 0,0.8 0,0.65 0,1.3 -0.1,4.3 -0.55,8.45 -0.1,1.05 -0.2,2.1 l 2.1,-0.75 q 0.05,-0.6 0.1,-1.15 0.45,-4.2 0.55,-8.6 v -0.05 q 0,-0.65 0,-1.3 0,-0.4 0,-0.8 0,-0.1 0,-0.15 -0.1,-1.1 -0.25,-2.05 z"
             id="path10307"
             inkscape:connector-curvature="0"
             style="fill:#809395;stroke:none" />
          <path
             d="m 1446.85,679.3 -2.1,0.75 3.25,3.1 -1.45,6.85 h -2.6 l -1.35,-3.35 -1.35,2 0.85,2.1 q 0.2,0.55 0.75,0.9 0.5,0.35 1.1,0.35 h 2.6 q 0.7,0 1.25,-0.45 0.55,-0.45 0.7,-1.1 l 1.45,-6.85 q 0.1,-0.55 -0.05,-1.05 -0.15,-0.5 -0.5,-0.85 l -2.55,-2.4 m -10.55,0.75 -2.1,-0.75 -2.55,2.4 q -0.4,0.35 -0.55,0.85 -0.15,0.5 -0.05,1.05 l 1.45,6.85 q 0.15,0.65 0.7,1.1 0.55,0.45 1.25,0.45 h 2.6 q 0.6,0 1.15,-0.35 0.5,-0.35 0.7,-0.9 l 0.85,-2.1 -1.35,-2 -1.35,3.35 h -2.6 l -1.45,-6.85 3.3,-3.1 m 3.7,-27.95 q -0.55,0.15 -0.95,0.55 -3.9,3.95 -5.2,12.25 v 0.05 q 0,0.1 -0.05,0.25 h 2 q 1.2,-7.55 4.7,-11.2 3.55,3.65 4.7,11.2 h 2.05 q 0,-0.2 -0.05,-0.35 v 0.05 q -1.3,-8.3 -5.25,-12.3 -0.4,-0.4 -0.9,-0.5 -0.55,-0.15 -1.05,0 z"
             id="path10309"
             inkscape:connector-curvature="0"
             style="fill:#9a49aa;fill-opacity:1;stroke:none" />
          <path
             d="m 1435.55,669.5 q 0.1,4.3 0.5,8.45 h 8.9 q 0.45,-4.15 0.55,-8.45 0,-0.65 0,-1.3 -2.5,0.35 -5,0.25 -2.5,0.1 -5,-0.25 0.05,0.65 0.05,1.3 z"
             id="path10311"
             inkscape:connector-curvature="0"
             style="fill:#bdd6db;stroke:none" />
          <path
             d="m 1436.05,677.95 q 0.1,1.05 0.25,2.1 l 2.1,6.6 h 4.2 l 2.15,-6.6 q 0.1,-1.05 0.2,-2.1 h -8.9 m 9.45,-10.55 q -0.1,-1.15 -0.3,-2.2 -2.35,0.55 -4.7,0.4 -2.35,0.15 -4.7,-0.4 -0.15,1.05 -0.3,2.2 0,0.4 0,0.8 2.5,0.35 5,0.25 2.5,0.1 5,-0.25 0,-0.4 0,-0.8 z"
             id="path10313"
             inkscape:connector-curvature="0"
             style="fill:#9fb5b8;stroke:none" />
        </g>
      </g>
    </g>
  </g>
</svg>
