<?xml version="1.0" encoding="UTF-8" standalone="no"?>
<svg
   xmlns:dc="http://purl.org/dc/elements/1.1/"
   xmlns:cc="http://creativecommons.org/ns#"
   xmlns:rdf="http://www.w3.org/1999/02/22-rdf-syntax-ns#"
   xmlns:svg="http://www.w3.org/2000/svg"
   xmlns="http://www.w3.org/2000/svg"
   viewBox="0 0 50 50"
   height="50"
   width="50"
   id="svg3669"
   version="1.1">
  <metadata
     id="metadata3675">
    <rdf:RDF>
      <cc:Work
         rdf:about="">
        <dc:format>image/svg+xml</dc:format>
        <dc:type
           rdf:resource="http://purl.org/dc/dcmitype/StillImage" />
        <dc:title></dc:title>
      </cc:Work>
    </rdf:RDF>
  </metadata>
  <defs
     id="defs3673" />
  <g
     transform="matrix(0.48874126,0,0,0.48874126,-12.353053,-11.952039)"
     id="g4233">
    <path
       style="fill:#f9f9f9;fill-opacity:1;fill-rule:nonzero;stroke-width:0.63559324"
       d="m 52.590137,71.19011 c -7.423302,-3.800441 -5.447955,-18.861974 3.96619,-30.241208 3.891447,-4.70374 5.016281,-5.669132 8.612324,-8.513572 5.528733,-4.373179 10.399189,-5.593492 13.506356,-3.685819 2.528385,1.552325 3.226194,3.867142 1.256944,9.569687 -0.961607,2.784616 -1.500685,6.552637 -1.824516,12.374018 -0.5096,9.160876 -1.513869,11.114787 -5.372361,14.870689 -2.750645,2.677511 -6.376559,5.026532 -10.744389,6.193282 -4.173939,1.114956 -6.805026,0.761729 -9.400548,-0.567077 z"
       id="path4224" />
    <path
       style="fill:#f2f2f2;fill-opacity:1;fill-rule:nonzero;stroke-width:0.63559324"
       d="m 61.911236,115.69874 c -4.659382,-0.66387 -11.951255,-3.33332 -14.925087,-5.34877 -0.879284,-1.09159 0.02467,1.39505 -1.776788,-2.21502 -0.339368,-0.50053 -0.480421,-1.07038 -1.063805,-2.28152 -0.484072,-1.09197 -1.002162,-2.20532 -1.283723,-2.87135 -0.714311,-2.45385 -1.447168,-5.011042 -1.892759,-7.128901 -1.422801,-6.82002 -1.29909,-19.298057 0.265081,-26.737243 1.366053,-6.496941 2.476337,-10.679604 3.097669,-11.669541 0.219411,-0.349577 0.428011,-0.778602 0.463556,-0.95339 0.244097,-1.200328 4.12356,-9.413205 5.545382,-11.739649 1.792423,-2.932838 7.725327,-10.831074 9.048607,-12.046045 3.523909,-3.235483 5.045853,-4.360745 8.437497,-6.238335 3.20472,-1.77411 4.199427,-2.004313 8.703014,-2.014116 5.377746,-0.01171 7.938314,0.814586 12.394067,3.999553 3.384835,3.572874 7.095897,7.227528 9.973783,10.61934 0.52402,0.706321 1.67466,2.448066 1.56828,3.58806 1.47166,3.1702 3.87967,12.311084 4.75936,17.781676 0.99079,6.161498 0.71219,20.897529 -0.6951,26.160745 -2.52227,9.433209 -9.556019,19.206676 -16.31969,23.501936 -7.207057,4.57683 -17.744657,6.81145 -26.299344,5.59257 z m 2.182718,-45.308577 c 4.72077,-1.594229 9.893286,-5.578591 11.646603,-8.971317 0.856789,-1.657916 1.415022,-4.656909 1.833797,-9.851695 0.331126,-4.107518 1.161135,-9.677267 1.844465,-12.377221 1.54382,-6.099904 1.563786,-8.268394 0.08842,-9.603579 -1.968089,-1.781096 -4.753969,-1.952684 -8.047775,-0.495677 -7.44847,3.294813 -14.510257,10.663404 -18.931684,19.754184 -2.246883,4.619755 -2.655364,6.105314 -2.885756,10.494853 -0.324283,6.178386 0.724212,9.239094 3.809351,11.120051 2.697245,1.644465 5.623624,1.625328 10.642576,-0.0696 z"
       id="path4226" />
    <path
       style="fill:#eeeeee;fill-opacity:1;fill-rule:nonzero;stroke-width:0.63559324"
       d="m 69.358177,126.34395 c -1.573093,-0.31609 -3.861229,-0.97417 -5.084746,-1.46241 -1.223517,-0.48824 -3.154131,-1.24465 -4.290254,-1.68092 -1.136123,-0.43627 -2.86017,-1.09097 -4.051907,-1.88306 -1.580956,-0.70124 -11.121808,-8.89433 -9.896526,-11.90305 0.190718,-0.19071 2.441829,0.6845 5.002469,1.94494 6.181463,3.04272 12.787139,4.40758 19.099313,3.94627 5.751769,-0.42034 13.545675,-2.86736 17.804963,-5.59014 6.557695,-4.19206 12.601481,-12.756811 15.546771,-22.031589 1.18954,-3.745898 1.63192,-6.873797 1.91792,-13.561027 0.42443,-9.923843 -0.24892,-15.329158 -3.11457,-25.002221 -1.03562,-3.495763 -2.04656,-6.927966 -2.24653,-7.627119 -0.303851,-1.062353 -0.152688,-1.010145 0.92014,0.317797 2.82951,5.736681 7.64111,12.401894 8.77006,18.273305 0.21579,1.310911 0.64192,2.955508 0.94695,3.654661 0.30504,0.699152 1.02185,3.731408 1.59293,6.738346 1.91291,11.58125 -1.28875,30.313517 -1.90195,32.603867 -0.89886,2.52473 -4.55284,9.05921 -8.90763,13.57092 -1.667946,2.01036 -3.890449,3.90681 -5.711007,5.21666 -0.955043,0.6698 -1.854932,1.10082 -7.646396,3.31591 -3.678672,1.407 -14.260255,2.06101 -18.75,1.15886 z"
       id="path4228" />
  </g>
</svg>
