<?xml version="1.0" encoding="UTF-8" standalone="no"?>
<svg
   xmlns:dc="http://purl.org/dc/elements/1.1/"
   xmlns:cc="http://creativecommons.org/ns#"
   xmlns:rdf="http://www.w3.org/1999/02/22-rdf-syntax-ns#"
   xmlns:svg="http://www.w3.org/2000/svg"
   xmlns="http://www.w3.org/2000/svg"
   height="50"
   width="50"
   xml:space="preserve"
   viewBox="0 0 50 50"
   y="0px"
   x="0px"
   id="Layer_1"
   version="1.1"><metadata
   id="metadata1547"><rdf:RDF><cc:Work
       rdf:about=""><dc:format>image/svg+xml</dc:format><dc:type
         rdf:resource="http://purl.org/dc/dcmitype/StillImage" /><dc:title></dc:title></cc:Work></rdf:RDF></metadata><defs
   id="defs1545"><clipPath
     id="clipPath8233"
     clipPathUnits="userSpaceOnUse"><rect
       y="952.17145"
       x="65.600731"
       height="18.84617"
       width="48.130219"
       id="rect8235"
       style="fill:#ff9100;fill-opacity:1;fill-rule:nonzero;stroke:none;stroke-width:156.48490906;stroke-miterlimit:4;stroke-dasharray:none;stroke-opacity:1" /></clipPath><clipPath
     id="clipPath8237"
     clipPathUnits="userSpaceOnUse"><rect
       y="952.17145"
       x="65.600731"
       height="18.84617"
       width="48.130219"
       id="rect8239"
       style="fill:#ff9100;fill-opacity:1;fill-rule:nonzero;stroke:none;stroke-width:156.48490906;stroke-miterlimit:4;stroke-dasharray:none;stroke-opacity:1" /></clipPath></defs>
<style
   id="style1182"
   type="text/css">
	.st0{fill:#F4F2F2;}
	.st1{fill:#9B9797;}
	.st2{fill:#E2E2E2;}
	.st3{fill:#C4C2C2;}
	.st4{opacity:0.27;fill:#FFFFFF;}
	.st5{fill:#00E0D6;}
	.st6{fill:#04BCAE;}
	.st7{opacity:0.41;fill:#FFFFFF;}
	.st8{opacity:0.41;}
	.st9{fill:#FFFFFF;}
	.st10{opacity:0.39;fill:#FFFFFF;}
	.st11{fill:#BCBBBB;}
	.st12{fill:#EFA522;}
	.st13{fill:#D68A12;}
	.st14{fill:#BF7408;}
	.st15{fill:#2CF4E1;}
	.st16{fill:#02C6B7;}
	.st17{opacity:0.45;fill:#FFFFFF;}
	.st18{fill:#706E6C;}
	.st19{fill:#494745;}
	.st20{fill:#15E5CC;}
	.st21{fill:#04AA9A;}
	.st22{fill:#9B9997;}
	.st23{opacity:0.27;}
	.st24{fill:#C13065;}
	.st25{fill:#991A4E;}
	.st26{fill:#EC5A89;}
	.st27{fill:#7C1142;}
	.st28{opacity:0.58;fill:#FFFFFF;}
	.st29{fill:#B6C3C6;}
	.st30{fill:#13C1D8;}
	.st31{fill:#0FA9B5;}
	.st32{fill:#F7CE69;}
	.st33{fill:#B78509;}
	.st34{fill:#FCBE00;}
	.st35{fill:#E2A805;}
	.st36{fill:#DDA300;}
	.st37{fill:#F4712F;}
	.st38{fill:#D85921;}
	.st39{fill:#BA4917;}
	.st40{fill:#F9A37D;}
	.st41{fill:#545250;}
	.st42{fill:#A09D9C;}
	.st43{fill:#FF9566;}
</style>
<g
   transform="translate(0,-930)"
   id="g1540">
	
	
	
	
	<g
   id="g1396">
		
			
		
			
		
			
		
		
			
		
		
		
		
		
		
		
			
		
		
		
		
		
		
	<g
   transform="matrix(0.9967965,0,0,0.9967965,0.08008712,2.9466)"
   id="g8392"><path
     class="st15"
     d="m 34.218029,943.09596 -9.238395,-13.05322 -9.238404,13.05322 c 0,0 5.221708,3.6597 3.500268,16.6232 h 1.912709 c 0.401668,-8.98469 -2.467401,-15.54621 -3.653279,-16.70296 l 7.478702,-10.56025 7.478712,10.56025 c -1.18588,1.15674 -4.035827,7.70829 -3.653283,16.70296 h 1.912715 c -1.702315,-12.97347 3.500255,-16.6232 3.500255,-16.6232 z"
     id="path5568"
     style="fill:#2cf4e1;stroke-width:0.19531211" /><path
     class="st5"
     d="M 32.458342,943.0162 24.97963,932.45595 17.500928,943.0162 c 1.185878,1.15675 4.03582,7.70829 3.653279,16.70296 h 7.650852 c -0.382544,-8.99467 2.486528,-15.55619 3.653283,-16.70296 z"
     id="path5572"
     style="fill:#00e0d6;stroke-width:0.19531211" /><path
     class="st16"
     d="m 34.218029,943.09596 -9.20014,-13.01334 -3e-6,29.63654 h 5.699888 c -1.702315,-12.97347 3.500255,-16.6232 3.500255,-16.6232 z"
     id="path5574"
     style="fill:#02c6b7;stroke-width:0.19531211" /><path
     class="st17"
     d="m 25.668207,938.93768 v 20.76153 H 24.29106 l -4e-6,-20.76153 c 3e-6,-0.35898 0.01913,-0.708 0.09563,-1.04706 l 0.573814,-3.31066 0.592943,3.3007 c 0.09564,0.34902 0.114763,0.69804 0.114761,1.05702 z"
     id="path5576"
     style="opacity:0.45;fill:#ffffff;stroke-width:0.19531211" /><path
     class="st21"
     d="m 34.218029,943.09596 -9.20014,-13.01334 -3e-6,2.41321 7.440456,10.52037 c -1.18588,1.15674 -4.035827,7.70829 -3.653283,16.70296 h 1.912715 c -1.702315,-12.97347 3.500255,-16.6232 3.500255,-16.6232 z"
     id="path5594"
     style="fill:#04aa9a;stroke-width:0.19531211" /><path
     class="st15"
     d="m 24.998761,930.03276 -9.238405,13.05325 c 0,0 5.221708,3.65968 3.500269,16.62318 h 1.912709 c 0.401674,-8.9847 -2.467395,-15.54622 -3.65328,-16.70296 l 7.478709,-10.56026 0.03828,0.0399 4e-6,-2.41321 z"
     id="path5596"
     style="fill:#2cf4e1;stroke-width:0.19531211" /><g
     transform="matrix(0.19127127,0.09971917,-0.19127127,0.09971917,-81.328931,840.03621)"
     class="st23"
     id="g5606"
     style="opacity:0.27000002"><path
       class="st9"
       d="m 842.6,255.9 c 6.5,8.1 14.8,17.4 25.3,27.9 l -3,4.8 -15.4,25.1 -3.1,5.1 c -9.8,-10.3 -18.7,-18.7 -26.7,-25.6 l 2.3,-3.8 18.3,-29.8 z"
       id="path5602"
       style="fill:#ffffff" /><path
       class="st9"
       d="m 818.8,214.7 c 0,0 1.2,7.9 10.8,23.2 l -2.5,4.1 -21.5,35 -2.2,3.5 c -21.8,-15.8 -33,-17.5 -33,-17.5 l -4,-8.6 3.7,-6.1 23.6,-38.6 3.1,-5.1 z"
       id="path5604"
       style="fill:#ffffff" /></g><path
     class="st5"
     d="m 20.860712,960.41039 h 8.071646 c -0.09564,-0.58012 -0.172145,-1.15356 -0.191271,-1.707 h -7.650851 c -0.07651,0.54677 -0.153012,1.12022 -0.229524,1.707 z"
     id="path5570"
     style="fill:#00e0d6;stroke-width:0.15971185" /><path
     class="st18"
     d="m 105.65376,953.90488 c 2.63081,5.76784 -7.964945,3.89992 -10.994889,3.25624 l -10.813472,10e-6 c -3.048093,0.63105 -13.643846,2.49897 -10.994903,-3.25625 0,0 -14.296982,9.86968 0.562422,16.34433 0,0 -2.39492,-6.71442 3.737563,-7.57266 0,0 5.207157,0.7194 6.821917,2.01937 0.235887,0.1893 0.39916,0.37863 0.435439,0.58056 0.45359,1.65338 -6e-6,13.42888 -6e-6,13.42888 l 9.652297,-5e-5 c 0,0 -0.453578,-11.77545 1.2e-5,-13.42883 0.05443,-0.21455 0.21772,-0.40386 0.43544,-0.58056 1.596622,-1.28735 6.82191,-2.01937 6.82191,-2.01937 6.11433,0.87085 3.73755,7.57264 3.73755,7.57264 14.89574,-6.47461 0.59872,-16.34431 0.59872,-16.34431 z"
     id="path5578"
     style="fill:#706e6c;stroke-width:0.21400446"
     clip-path="url(#clipPath8237)"
     transform="matrix(0.86382503,0,0,0.83035479,-52.095997,163.79351)" /><path
     class="st19"
     d="m 105.65376,953.90488 c 2.63081,5.76784 -7.964945,3.89992 -10.994889,3.25624 l -5.381707,0.007 0.106003,21.3919 4.695078,0.13237 c 0,0 -0.453552,-11.77551 3.8e-5,-13.42887 0.05442,-0.21457 0.217719,-0.40388 0.435439,-0.58058 1.596616,-1.28734 6.821918,-2.01936 6.821918,-2.01936 6.11433,0.87085 3.73755,7.57264 3.73755,7.57264 14.87759,-6.46199 0.58057,-16.33169 0.58057,-16.33169 z"
     id="path5580"
     style="fill:#494745;stroke-width:0.21400446"
     clip-path="url(#clipPath8233)"
     transform="matrix(0.86382503,0,0,0.83035479,-52.095997,163.79351)" /><polygon
     transform="matrix(0.15672728,0.10902414,-0.15672728,0.10902414,-62.052268,821.35618)"
     class="st18"
     points="953.3,449.4 1006.4,450.5 1005.2,397.4 976.6,394.3 950.1,420.7 "
     id="polygon5582"
     style="fill:#706e6c" /><polygon
     transform="matrix(0.15672728,0.10902414,-0.15672728,0.10902414,-62.052268,821.35618)"
     class="st19"
     points="976.6,394.3 963.4,407.4 1006.4,450.4 1005.2,397.4 "
     id="polygon5584"
     style="fill:#494745" /><polygon
     transform="matrix(0.15672728,0.10902414,-0.15672728,0.10902414,-62.052268,821.35618)"
     class="st15"
     points="960.8,424.5 980.3,404.9 995.2,406.6 995.9,440.1 962.4,439.4 "
     id="polygon5586"
     style="fill:#2cf4e1" /><polygon
     transform="matrix(0.15672728,0.10902414,-0.15672728,0.10902414,-62.052268,821.35618)"
     class="st20"
     points="980.3,404.9 970.7,414.5 995.9,439.8 995.2,406.6 "
     id="polygon5588"
     style="fill:#15e5cc" /><path
     class="st15"
     d="m 28.795029,959.52002 -3.714433,0.19914 -3.714439,-0.19914 -6.112359,2.68288 c 0,0 6.378797,0.82793 7.601267,2.71432 0.438838,0.67071 0.940365,1.38336 1.410542,2.03312 0.282116,0.39823 0.564221,0.75455 0.79931,1.07943 0.06269,-0.0838 0.109711,-0.1572 0.188078,-0.25151 0.125383,-0.16768 0.266434,-0.34584 0.391816,-0.53448 0.07836,-0.0943 0.141056,-0.19913 0.219416,-0.29344 0.470188,-0.64976 0.971711,-1.3624 1.410548,-2.03313 1.238143,-1.89687 7.601275,-2.71431 7.601275,-2.71431 z"
     id="path5590"
     style="fill:#2cf4e1;stroke-width:0.18124564" /><path
     class="st20"
     d="m 28.795029,959.52002 -3.714433,0.19914 h -0.06271 l -1e-6,8.23726 c 0.01571,0.0314 0.04704,0.0524 0.06269,0.0838 0.06269,-0.0838 0.109705,-0.15721 0.188071,-0.25153 0.125384,-0.16768 0.266434,-0.34584 0.391817,-0.53447 0.07836,-0.0943 0.141061,-0.19913 0.219416,-0.29345 0.470188,-0.64975 0.97171,-1.36239 1.410549,-2.03312 1.238148,-1.89687 7.601271,-2.71431 7.601271,-2.71431 z"
     id="path5592"
     style="fill:#15e5cc;stroke-width:0.18124564" /><path
     class="st22"
     d="m 20.919176,969.49599 c -0.03133,0.79202 -2.2e-5,1.31048 -2.2e-5,1.31048 l 8.290873,0.0109 c 0,0 -8.22e-4,-0.53793 -0.01037,-1.32138 z"
     id="path5598"
     style="fill:#9b9997;stroke-width:0.16427398" /><path
     class="st18"
     d="m 25.089259,969.51079 c -0.0027,0.78688 -0.0012,1.29568 -0.0012,1.29568 l 4.121927,0.0109 c 0,0 0.021,-0.53453 -0.01033,-1.32138 z"
     id="path5600"
     style="fill:#706e6c;stroke-width:0.16373271" /></g></g>
	
	
	
</g>
</svg>