<?xml version="1.0" encoding="UTF-8" standalone="no"?>
<svg
   xmlns:dc="http://purl.org/dc/elements/1.1/"
   xmlns:cc="http://creativecommons.org/ns#"
   xmlns:rdf="http://www.w3.org/1999/02/22-rdf-syntax-ns#"
   xmlns:svg="http://www.w3.org/2000/svg"
   xmlns="http://www.w3.org/2000/svg"
   id="svg1307"
   version="1.1"
   viewBox="0 0 13.229166 13.229167"
   height="50"
   width="50">
  <defs
     id="defs1301" />
  <metadata
     id="metadata1304">
    <rdf:RDF>
      <cc:Work
         rdf:about="">
        <dc:format>image/svg+xml</dc:format>
        <dc:type
           rdf:resource="http://purl.org/dc/dcmitype/StillImage" />
        <dc:title></dc:title>
      </cc:Work>
    </rdf:RDF>
  </metadata>
  <g
     transform="translate(0,-283.77082)"
     id="layer1">
    <g
       style="fill:#ffffff;fill-opacity:1"
       transform="translate(8.3975317,-11.265402)"
       id="g1924">
      <path
         d="m -2.1366411,295.39003 v 12.52155 c 0,0.1951 0.1587071,0.35381 0.3538014,0.35381 0.1950981,0 0.3538052,-0.15871 0.3538052,-0.35381 v -12.52155 c 0,-0.1951 -0.1587071,-0.35381 -0.3538052,-0.35381 -0.1961068,0 -0.3538014,0.15871 -0.3538014,0.35381"
         id="path1158"
         style="fill:#ffffff;fill-opacity:1;stroke-width:0.10108629" />
      <path
         d="m -0.64966202,297.66043 -1.13317768,1.13317 -1.1331777,-1.13317 c -0.1384847,-0.13849 -0.3618857,-0.13849 -0.5003742,0 -0.1384886,0.13848 -0.1384886,0.36189 0,0.50037 l 1.3838691,1.38387 c 0.065706,0.0657 0.156686,0.10412 0.2496828,0.10412 0.093001,0 0.1839802,-0.0374 0.2496828,-0.10412 l 1.38387298,-1.38387 c 0.13848854,-0.13848 0.13848854,-0.36189 0,-0.50037 -0.13848854,-0.13849 -0.36289819,-0.13849 -0.5003781,0 z"
         id="path1160"
         style="fill:#ffffff;fill-opacity:1;stroke-width:0.10108629" />
      <path
         d="m -2.9119714,297.06199 0.8784402,0.87844 c 0.065706,0.0657 0.1566822,0.10412 0.2496829,0.10412 0.092997,0 0.1839764,-0.0374 0.2496828,-0.10412 l 0.87844022,-0.87844 c 0.13848853,-0.13848 0.13848853,-0.36188 0,-0.50037 -0.13848854,-0.13849 -0.36188962,-0.13849 -0.50037812,0 l -0.6287574,0.62876 -0.6287574,-0.62876 c -0.1384885,-0.13849 -0.3618857,-0.13849 -0.5003742,0 -0.1364675,0.13849 -0.1364675,0.3629 0.00191,0.50037 z"
         id="path1162"
         style="fill:#ffffff;fill-opacity:1;stroke-width:0.10108629" />
      <path
         d="m -0.14928392,305.14081 -1.38387298,-1.38286 c -0.1384847,-0.13849 -0.3618857,-0.13849 -0.5003743,0 l -1.3828604,1.38286 c -0.1384886,0.13849 -0.1384886,0.36189 0,0.50038 0.1384885,0.13849 0.3618895,0.13849 0.5003742,0 l 1.1331777,-1.13318 1.13317768,1.13318 c 0.13848854,0.13849 0.36188956,0.13849 0.5003781,0 0.13747609,-0.13748 0.13747609,-0.36189 0,-0.50038 z"
         id="path1164"
         style="fill:#ffffff;fill-opacity:1;stroke-width:0.10108629" />
      <path
         d="m -2.4115933,306.73999 0.6287536,-0.62875 0.6287574,0.62875 c 0.1384885,0.13849 0.36188957,0.13849 0.5003781,0 0.13848854,-0.13848 0.13848854,-0.36188 0,-0.50037 l -0.8784402,-0.87844 c -0.1384886,-0.13849 -0.3618896,-0.13849 -0.5003781,0 l -0.8784402,0.87844 c -0.1384886,0.13849 -0.1384886,0.36189 0,0.50037 0.1374799,0.13849 0.3608809,0.13849 0.4993694,0 z"
         id="path1166"
         style="fill:#ffffff;fill-opacity:1;stroke-width:0.10108629" />
      <path
         d="m 3.4615197,298.21438 -10.8435276,6.26027 c -0.1688141,0.0981 -0.2274444,0.31438 -0.1293906,0.4832 0.098054,0.16881 0.3143783,0.22744 0.4831923,0.12939 l 10.8435273,-6.26028 c 0.1688125,-0.0981 0.2274432,-0.31438 0.1293917,-0.48319 -0.098055,-0.16881 -0.3133681,-0.22744 -0.4831931,-0.12939"
         id="path1168"
         style="fill:#ffffff;fill-opacity:1;stroke-width:0.10108629" />
      <path
         d="m 2.2393836,300.63742 -1.54763084,-0.41446 0.41445694,-1.54763 c 0.050542,-0.18903 -0.061664,-0.38312 -0.25069524,-0.43366 -0.18903105,-0.0505 -0.38311673,0.0617 -0.43365924,0.2507 l -0.50644518,1.89031 c -0.05054251,0.18903 0.06166422,0.38312 0.24968282,0.43366 l 1.88930564,0.50644 c 0.1890311,0.0505 0.3831167,-0.0617 0.4336593,-0.24968 0.051555,-0.19105 -0.059639,-0.38514 -0.2486742,-0.43568 z"
         id="path1170"
         style="fill:#ffffff;fill-opacity:1;stroke-width:0.10108629" />
      <path
         d="m 1.6257901,298.37915 -0.3214525,1.19989 c -0.024261,0.09 -0.011118,0.18802 0.035379,0.26889 0.0465,0.0809 0.1243371,0.14051 0.2153129,0.16477 l 1.1998965,0.32146 c 0.189031,0.0505 0.3831167,-0.0617 0.4336592,-0.24968 0.050542,-0.18903 -0.061664,-0.38312 -0.2496828,-0.43367 l -0.8582255,-0.23047 0.2304767,-0.85823 c 0.050546,-0.18903 -0.06166,-0.38311 -0.249679,-0.43365 -0.1910521,-0.0506 -0.3851378,0.0617 -0.4356845,0.25069 z"
         id="path1172"
         style="fill:#ffffff;fill-opacity:1;stroke-width:0.10108629" />
      <path
         d="m -3.9885394,304.81127 0.5054289,-1.89032 c 0.050543,-0.18903 -0.06166,-0.38311 -0.2496828,-0.43365 l -1.8903132,-0.50645 c -0.1890314,-0.0505 -0.3831171,0.0617 -0.4336603,0.24969 -0.050543,0.18903 0.061663,0.38311 0.2496832,0.43366 l 1.5476304,0.41445 -0.4144532,1.54763 c -0.050542,0.18903 0.061664,0.38312 0.2506953,0.43366 0.1900397,0.0516 0.3831167,-0.0607 0.4346717,-0.24867 z"
         id="path1174"
         style="fill:#ffffff;fill-opacity:1;stroke-width:0.10108629" />
      <path
         d="m -6.5045791,303.6508 0.8582229,0.23048 -0.2304768,0.85822 c -0.050543,0.18903 0.061662,0.38312 0.2496828,0.43366 0.1890315,0.0505 0.3831171,-0.0617 0.4336596,-0.24968 l 0.3214564,-1.1999 c 0.024261,-0.09 0.011118,-0.18802 -0.035379,-0.26889 -0.0465,-0.0809 -0.1253457,-0.14051 -0.2153128,-0.16477 l -1.2009051,-0.32145 c -0.1890315,-0.0506 -0.3831171,0.0617 -0.43366,0.25069 -0.048522,0.18701 0.063684,0.38109 0.2527156,0.43164 z"
         id="path1176"
         style="fill:#ffffff;fill-opacity:1;stroke-width:0.10108629" />
      <path
         d="m -7.3820079,298.82696 10.8445362,6.26129 c 0.1688164,0.0981 0.3851417,0.0394 0.4831931,-0.1294 0.098055,-0.16881 0.039425,-0.38513 -0.1293879,-0.48319 l -10.8445397,-6.26128 c -0.168814,-0.0981 -0.3851386,-0.0394 -0.4831923,0.12939 -0.098054,0.16881 -0.040434,0.38514 0.1293906,0.48319"
         id="path1178"
         style="fill:#ffffff;fill-opacity:1;stroke-width:0.10108629" />
      <path
         d="m -4.6728939,298.67432 0.4144531,1.54763 -1.5476319,0.41446 c -0.1890314,0.0505 -0.301237,0.24462 -0.2506941,0.43365 0.050543,0.18904 0.2446289,0.30124 0.4336603,0.2507 l 1.8903132,-0.50644 c 0.089967,-0.0243 0.1678039,-0.0839 0.2153128,-0.16477 0.047513,-0.0809 0.059643,-0.17893 0.035379,-0.26889 l -0.5064375,-1.89032 c -0.050546,-0.18903 -0.244632,-0.30123 -0.4336631,-0.24968 -0.189031,0.0505 -0.3012378,0.24463 -0.2506918,0.43366 z"
         id="path1180"
         style="fill:#ffffff;fill-opacity:1;stroke-width:0.10108629" />
      <path
         d="m -6.3216128,300.33416 1.1998957,-0.32146 c 0.1890311,-0.0505 0.301234,-0.24463 0.2496829,-0.43366 l -0.3214564,-1.19989 c -0.050543,-0.18903 -0.2446281,-0.30124 -0.4336596,-0.24969 -0.189031,0.0505 -0.301237,0.24464 -0.2496828,0.43367 l 0.2304768,0.85822 -0.8582229,0.23048 c -0.1890314,0.0505 -0.301237,0.24462 -0.2496832,0.43365 0.050543,0.18701 0.244629,0.29922 0.4326495,0.24868 z"
         id="path1182"
         style="fill:#ffffff;fill-opacity:1;stroke-width:0.10108629" />
      <path
         d="m 2.0564196,301.98187 -1.89031429,0.50644 c -0.08996712,0.0243 -0.16780388,0.0839 -0.21531284,0.16477 -0.04650034,0.0809 -0.05964314,0.17892 -0.03537861,0.26889 l 0.50644136,1.8893 c 0.0505425,0.18903 0.24462819,0.30124 0.43365924,0.24968 0.18903104,-0.0505 0.30123774,-0.24463 0.24968284,-0.43366 l -0.41445318,-1.54763 1.54763078,-0.41445 c 0.1890311,-0.0505 0.3012378,-0.24463 0.2496829,-0.43366 -0.048522,-0.18903 -0.2426071,-0.30124 -0.4316382,-0.24968 z"
         id="path1184"
         style="fill:#ffffff;fill-opacity:1;stroke-width:0.10108629" />
      <path
         d="m 2.3101446,304.7395 -0.2304767,-0.85822 0.8582254,-0.23048 c 0.1890311,-0.0505 0.3002254,-0.24463 0.2496829,-0.43366 -0.050543,-0.18903 -0.2446282,-0.30023 -0.4336631,-0.24969 l -1.1998927,0.32146 c -0.189031,0.0505 -0.3002253,0.24463 -0.2496828,0.43366 l 0.3214525,1.19989 c 0.050546,0.18904 0.244632,0.30124 0.433663,0.24969 0.1890311,-0.0495 0.301234,-0.24362 0.2506915,-0.43265 z"
         id="path1186"
         style="fill:#ffffff;fill-opacity:1;stroke-width:0.10108629" />
    </g>
  </g>
</svg>
