<?xml version="1.0" encoding="UTF-8" standalone="no"?>
<svg
   xmlns:dc="http://purl.org/dc/elements/1.1/"
   xmlns:cc="http://creativecommons.org/ns#"
   xmlns:rdf="http://www.w3.org/1999/02/22-rdf-syntax-ns#"
   xmlns:svg="http://www.w3.org/2000/svg"
   xmlns="http://www.w3.org/2000/svg"
   height="50"
   width="50"
   xml:space="preserve"
   viewBox="0 0 50 50"
   y="0px"
   x="0px"
   id="Layer_1"
   version="1.1"><metadata
   id="metadata1547"><rdf:RDF><cc:Work
       rdf:about=""><dc:format>image/svg+xml</dc:format><dc:type
         rdf:resource="http://purl.org/dc/dcmitype/StillImage" /><dc:title></dc:title></cc:Work></rdf:RDF></metadata><defs
   id="defs1545" />
<style
   id="style1182"
   type="text/css">
	.st0{fill:#F4F2F2;}
	.st1{fill:#9B9797;}
	.st2{fill:#E2E2E2;}
	.st3{fill:#C4C2C2;}
	.st4{opacity:0.27;fill:#FFFFFF;}
	.st5{fill:#00E0D6;}
	.st6{fill:#04BCAE;}
	.st7{opacity:0.41;fill:#FFFFFF;}
	.st8{opacity:0.41;}
	.st9{fill:#FFFFFF;}
	.st10{opacity:0.39;fill:#FFFFFF;}
	.st11{fill:#BCBBBB;}
	.st12{fill:#EFA522;}
	.st13{fill:#D68A12;}
	.st14{fill:#BF7408;}
	.st15{fill:#2CF4E1;}
	.st16{fill:#02C6B7;}
	.st17{opacity:0.45;fill:#FFFFFF;}
	.st18{fill:#706E6C;}
	.st19{fill:#494745;}
	.st20{fill:#15E5CC;}
	.st21{fill:#04AA9A;}
	.st22{fill:#9B9997;}
	.st23{opacity:0.27;}
	.st24{fill:#C13065;}
	.st25{fill:#991A4E;}
	.st26{fill:#EC5A89;}
	.st27{fill:#7C1142;}
	.st28{opacity:0.58;fill:#FFFFFF;}
	.st29{fill:#B6C3C6;}
	.st30{fill:#13C1D8;}
	.st31{fill:#0FA9B5;}
	.st32{fill:#F7CE69;}
	.st33{fill:#B78509;}
	.st34{fill:#FCBE00;}
	.st35{fill:#E2A805;}
	.st36{fill:#DDA300;}
	.st37{fill:#F4712F;}
	.st38{fill:#D85921;}
	.st39{fill:#BA4917;}
	.st40{fill:#F9A37D;}
	.st41{fill:#545250;}
	.st42{fill:#A09D9C;}
	.st43{fill:#FF9566;}
</style>
<g
   transform="translate(0,-930)"
   id="g1540">
	
	
	
	
	<g
   id="g1396">
		
			
		
			
		
			
		
		
			
		
		
		
		
		
		
		
			
		
		
		
		
		
		
	<g
   transform="matrix(0.99677008,0,0,0.99677008,0.08074772,3.3943095)"
   id="g1813"><polygon
     transform="translate(142.63555,-170.879)"
     class="st1"
     points=""
     id="polygon1378"
     style="fill:#9b9797" /><g
     id="g1790"
     transform="matrix(1.0634525,0,0,0.94265686,-1.5863125,55.467071)"><g
       transform="translate(-0.56969881)"
       id="g1780"><g
         id="g1771"><rect
           id="rect1360"
           height="8.0891762"
           width="7.7298307"
           class="st30"
           y="967.28857"
           x="21.700754"
           style="fill:#ffa93b;fill-opacity:1;stroke-width:0.13181081" /><rect
           id="rect1362"
           height="8.0891762"
           width="0.61111915"
           class="st28"
           y="967.28351"
           x="21.698088"
           style="opacity:0.57999998;fill:#ffffff;stroke-width:0.13181081" /><rect
           id="rect1364"
           height="8.0891762"
           width="3.3528969"
           class="st31"
           y="967.28442"
           x="26.073915"
           style="fill:#ff9100;fill-opacity:1;stroke-width:0.13181081" /><path
           style="fill:#ffa93b;fill-opacity:1;stroke-width:0.16196291"
           id="path1366"
           d="m 30.460641,975.21796 -9.787198,2e-5 1.8e-5,1.77434 c 2e-6,1.95409 1.646771,3.53754 3.67895,3.53754 h 2.429271 c 2.032179,0 3.678979,-1.58345 3.678976,-3.53754 z"
           class="st30" /><rect
           id="rect1368"
           height="0.9529056"
           width="9.7944231"
           class="st31"
           y="975.20435"
           x="20.672487"
           style="fill:#ff9100;fill-opacity:1;stroke-width:0.16196136" /><path
           style="fill:#ff9100;fill-opacity:1;stroke-width:0.16196291"
           id="path1370"
           d="m 26.127673,975.20671 -4.8e-5,1.77441 c 2.8e-5,1.63955 -1.15619,3.02092 -2.732876,3.41396 0.303613,0.0674 0.618939,0.12358 0.945983,0.12358 h 2.429271 c 2.032179,0 3.678979,-1.58354 3.678976,-3.53754 l -1.7e-5,-1.77439 z"
           class="st31" /></g></g></g><polygon
     transform="matrix(0.1283199,0.09931263,-0.1283199,0.09931263,44.613697,839.17417)"
     class="st2"
     points="384.6,605.2 516.3,737 584.8,668.5 453.1,536.7 379.2,531.4 "
     id="polygon1372"
     style="fill:#e2e2e2" /><polygon
     transform="matrix(0.1283199,0.09931263,-0.1283199,0.09931263,44.613697,839.17417)"
     class="st3"
     points="584.8,668.5 453.1,536.7 380.7,531.5 551.3,702.1 "
     id="polygon1374"
     style="fill:#c4c2c2" /><polygon
     transform="matrix(0.1283199,0.09931263,-0.1283199,0.09931263,44.613697,839.17417)"
     class="st0"
     points="516.3,737 520.9,732.4 390.9,602.3 386.3,538.4 387.7,538.6 380.7,531.5 379.2,531.4 384.6,605.2 "
     id="polygon1376"
     style="fill:#f4f2f2" /><polygon
     transform="matrix(0.1283199,0.09931263,-0.1283199,0.09931263,44.613697,839.17417)"
     class="st1"
     points="387.7,538.6 450.2,543.1 580.2,673.1 584.8,668.5 453.1,536.7 380.7,531.5 "
     id="polygon1380"
     style="fill:#9b9797" /><rect
     style="fill:#13c1d8;stroke-width:0.16193831"
     x="17.476919"
     y="963.49371"
     class="st30"
     width="15.207187"
     height="3.4104083"
     id="rect1382" /><polygon
     transform="matrix(0.1283199,0.10218415,-0.1283199,0.10218415,44.613697,835.42384)"
     class="st30"
     points="615.7,664.3 594,659 506.6,746.3 511.8,769.1 531.7,771.4 619,684 "
     id="polygon1384"
     style="fill:#ffa93b;fill-opacity:1" /><polygon
     transform="matrix(0.1283199,0.10218415,-0.1283199,0.10218415,44.613697,835.42384)"
     class="st31"
     points="615.8,664.2 594,658.9 581,671.9 602.7,677.3 606,697 619.1,683.9 "
     id="polygon1386"
     style="fill:#ff9100;fill-opacity:1" /><polygon
     transform="matrix(0.1283199,0.10218415,-0.1283199,0.10218415,44.613697,835.42384)"
     class="st31"
     points="508.6,754.5 602.2,660.9 594,658.9 506.7,746.2 "
     id="polygon1388"
     style="fill:#ff9100;fill-opacity:1" /><polygon
     transform="matrix(0.1283199,0.10218415,-0.1283199,0.10218415,44.613697,835.42384)"
     class="st28"
     points="513.8,767.1 508.7,744.3 506.7,746.2 511.9,769 531.8,771.3 533.7,769.3 "
     id="polygon1390"
     style="opacity:0.57999998;fill:#ffffff" /><polygon
     transform="matrix(0.1283199,0.09931263,-0.1283199,0.09931263,44.613697,839.17417)"
     class="st4"
     points="437.5,658.2 404.9,625.6 459.2,542.9 491.9,575.5 "
     id="polygon1392"
     style="opacity:0.27000002;fill:#ffffff" /><polygon
     transform="matrix(0.1283199,0.09931263,-0.1283199,0.09931263,44.613697,839.17417)"
     class="st4"
     points="492.3,713 447.2,667.9 501.5,585.2 546.6,630.3 "
     id="polygon1394"
     style="opacity:0.27000002;fill:#ffffff" /></g></g>
	
	
	
</g>
</svg>