<?xml version="1.0" encoding="UTF-8" standalone="no"?>
<!DOCTYPE svg PUBLIC "-//W3C//DTD SVG 1.1//EN" "http://www.w3.org/Graphics/SVG/1.1/DTD/svg11.dtd">
<svg width="100%" height="100%" viewBox="0 0 300 345" version="1.1" xmlns="http://www.w3.org/2000/svg" xmlns:xlink="http://www.w3.org/1999/xlink" xml:space="preserve" xmlns:serif="http://www.serif.com/" style="fill-rule:evenodd;clip-rule:evenodd;stroke-linejoin:round;stroke-miterlimit:2;">
    <g id="halloween">
        <path d="M250.77,341.43L240.77,336.43C221.48,326.9 198.96,330.25 179.24,338.86C160.624,346.988 139.436,346.988 120.82,338.86C101.1,330.25 78.58,326.86 59.29,336.43L49.29,341.43C27.34,352.24 1,337.29 0,312.9L0,261.92L300,261.92L300,312.9C299,337.29 272.66,352.24 250.77,341.43Z" style="fill:#bb7a1f;fill-rule:nonzero;"/>
        <path d="M135.492,330.355C137.61,330.355 139.33,332.074 139.33,334.192C139.33,336.31 137.61,338.03 135.492,338.03C133.374,338.03 131.655,336.31 131.655,334.192C131.655,332.074 133.374,330.355 135.492,330.355ZM24.488,335.619C24.858,335.619 25.158,336.045 25.158,336.569C25.158,337.094 24.858,337.52 24.488,337.52C24.118,337.52 23.817,337.094 23.817,336.569C23.817,336.045 24.118,335.619 24.488,335.619ZM278.774,333.21C279.777,333.21 280.59,334.023 280.59,335.026C280.59,336.028 279.777,336.841 278.774,336.841C277.772,336.841 276.959,336.028 276.959,335.026C276.959,334.023 277.772,333.21 278.774,333.21ZM143.727,334.192C144.389,334.192 144.926,334.73 144.926,335.392C144.926,336.054 144.389,336.591 143.727,336.591C143.065,336.591 142.528,336.054 142.528,335.392C142.528,334.73 143.065,334.192 143.727,334.192ZM19.011,327.956C20.923,327.956 22.476,329.373 22.476,331.117C22.476,332.862 20.923,334.278 19.011,334.278C17.098,334.278 15.546,332.862 15.546,331.117C15.546,329.373 17.098,327.956 19.011,327.956ZM243.463,329.759C244.25,329.759 244.888,330.532 244.888,331.485C244.888,332.437 244.25,333.21 243.463,333.21C242.676,333.21 242.038,332.437 242.038,331.485C242.038,330.532 242.676,329.759 243.463,329.759ZM235.629,325.915C237.184,325.915 238.447,327.177 238.447,328.733C238.447,330.288 237.184,331.55 235.629,331.55C234.074,331.55 232.811,330.288 232.811,328.733C232.811,327.177 234.074,325.915 235.629,325.915ZM180.636,325.915C182.025,325.915 183.151,326.979 183.151,328.29C183.151,329.601 182.025,330.665 180.636,330.665C179.248,330.665 178.122,329.601 178.122,328.29C178.122,326.979 179.248,325.915 180.636,325.915ZM144.926,325.558C146.25,325.558 147.325,326.633 147.325,327.956C147.325,329.28 146.25,330.355 144.926,330.355C143.602,330.355 142.528,329.28 142.528,327.956C142.528,326.633 143.602,325.558 144.926,325.558ZM189.928,325.915C190.352,325.915 190.696,326.447 190.696,327.102C190.696,327.758 190.352,328.29 189.928,328.29C189.504,328.29 189.159,327.758 189.159,327.102C189.159,326.447 189.504,325.915 189.928,325.915ZM100.377,325.558C101.349,325.558 102.137,326.095 102.137,326.757C102.137,327.419 101.349,327.956 100.377,327.956C99.405,327.956 98.616,327.419 98.616,326.757C98.616,326.095 99.405,325.558 100.377,325.558ZM77.826,324.299C78.844,324.299 79.67,325.118 79.67,326.128C79.67,327.137 78.844,327.956 77.826,327.956C76.808,327.956 75.982,327.137 75.982,326.128C75.982,325.118 76.808,324.299 77.826,324.299ZM90.96,320.641C93.181,320.641 94.984,322.28 94.984,324.299C94.984,326.318 93.181,327.956 90.96,327.956C88.739,327.956 86.936,326.318 86.936,324.299C86.936,322.28 88.739,320.641 90.96,320.641ZM98.616,318.294C99.634,318.294 100.461,319.171 100.461,320.25C100.461,321.33 99.634,322.206 98.616,322.206C97.599,322.206 96.772,321.33 96.772,320.25C96.772,319.171 97.599,318.294 98.616,318.294ZM255.209,318.155C255.751,318.155 256.192,318.667 256.192,319.298C256.192,319.928 255.751,320.44 255.209,320.44C254.666,320.44 254.225,319.928 254.225,319.298C254.225,318.667 254.666,318.155 255.209,318.155ZM249.306,311.474C250.357,311.474 251.21,312.327 251.21,313.379C251.21,314.43 250.357,315.283 249.306,315.283C248.255,315.283 247.401,314.43 247.401,313.379C247.401,312.327 248.255,311.474 249.306,311.474ZM294.771,310.069C295.779,310.069 296.596,310.81 296.596,311.724C296.596,312.637 295.779,313.379 294.771,313.379C293.764,313.379 292.946,312.637 292.946,311.724C292.946,310.81 293.764,310.069 294.771,310.069ZM257.914,304.817C259.95,304.817 261.603,306.561 261.603,308.708C261.603,310.856 259.95,312.6 257.914,312.6C255.878,312.6 254.225,310.856 254.225,308.708C254.225,306.561 255.878,304.817 257.914,304.817ZM71.238,308.077C72.369,308.077 73.287,308.771 73.287,309.626C73.287,310.481 72.369,311.175 71.238,311.175C70.107,311.175 69.189,310.481 69.189,309.626C69.189,308.771 70.107,308.077 71.238,308.077ZM26.109,306.781C27.003,306.781 27.729,307.582 27.729,308.569C27.729,309.557 27.003,310.358 26.109,310.358C25.214,310.358 24.488,309.557 24.488,308.569C24.488,307.582 25.214,306.781 26.109,306.781ZM285.145,306.768C286.166,306.768 286.995,307.508 286.995,308.418C286.995,309.329 286.166,310.069 285.145,310.069C284.123,310.069 283.294,309.329 283.294,308.418C283.294,307.508 284.123,306.768 285.145,306.768ZM120.133,308.077C120.615,308.077 121.007,308.468 121.007,308.95C121.007,309.432 120.615,309.823 120.133,309.823C119.651,309.823 119.26,309.432 119.26,308.95C119.26,308.468 119.651,308.077 120.133,308.077ZM60.896,299.782C64.279,299.782 67.294,301.969 67.625,304.662C67.956,307.355 65.478,309.541 62.095,309.541C58.713,309.541 55.698,307.355 55.367,304.662C55.036,301.969 57.514,299.782 60.896,299.782ZM211.864,303.46C212.982,303.46 213.89,304.204 213.89,305.121C213.89,306.037 212.982,306.781 211.864,306.781C210.746,306.781 209.838,306.037 209.838,305.121C209.838,304.204 210.746,303.46 211.864,303.46ZM16.328,299.068C18.364,299.068 20.017,300.796 20.017,302.925C20.017,305.053 18.364,306.781 16.328,306.781C14.292,306.781 12.64,305.053 12.64,302.925C12.64,300.796 14.292,299.068 16.328,299.068ZM292.946,296.567C294.961,296.567 296.596,298.415 296.596,300.692C296.596,302.969 294.961,304.817 292.946,304.817C290.931,304.817 289.295,302.969 289.295,300.692C289.295,298.415 290.931,296.567 292.946,296.567ZM202.084,296.015C204.667,296.015 206.764,297.987 206.764,300.416C206.764,302.845 204.667,304.817 202.084,304.817C199.5,304.817 197.403,302.845 197.403,300.416C197.403,297.987 199.5,296.015 202.084,296.015ZM71.238,299.782C72.369,299.782 73.287,300.875 73.287,302.222C73.287,303.568 72.369,304.662 71.238,304.662C70.107,304.662 69.189,303.568 69.189,302.222C69.189,300.875 70.107,299.782 71.238,299.782ZM121.007,297.546C122.645,297.546 123.976,298.876 123.976,300.515C123.976,302.153 122.645,303.484 121.007,303.484C119.368,303.484 118.038,302.153 118.038,300.515C118.038,298.876 119.368,297.546 121.007,297.546ZM211.864,294.478C212.982,294.478 213.89,295.506 213.89,296.773C213.89,298.04 212.982,299.068 211.864,299.068C210.746,299.068 209.838,298.04 209.838,296.773C209.838,295.506 210.746,294.478 211.864,294.478Z" style="fill:#ac6b0b;"/>
        <path d="M270.169,304.249C269.544,316.858 269.031,329.482 269.242,342.11C269.256,342.938 269.939,343.598 270.767,343.585C271.595,343.571 272.256,342.887 272.242,342.06C272.032,329.498 272.543,316.94 273.166,304.398C273.207,303.571 272.569,302.867 271.742,302.826C270.915,302.785 270.21,303.423 270.169,304.249ZM35.134,302.162C35.271,314.759 34.316,327.333 34.232,339.93C34.226,340.757 34.894,341.434 35.721,341.44C36.549,341.445 37.226,340.777 37.231,339.95C37.316,327.336 38.271,314.744 38.134,302.129C38.125,301.301 37.446,300.637 36.618,300.645C35.79,300.654 35.125,301.334 35.134,302.162ZM159.919,303.214C159.977,315.301 159.54,327.354 160.128,339.435C160.168,340.262 160.872,340.901 161.699,340.86C162.526,340.82 163.165,340.116 163.124,339.289C162.538,327.252 162.976,315.242 162.919,303.199C162.915,302.372 162.24,301.703 161.412,301.707C160.584,301.711 159.915,302.386 159.919,303.214ZM166.803,321.942C166.604,324.961 166.434,327.98 166.317,331.003C166.285,331.83 166.93,332.528 167.758,332.56C168.585,332.592 169.283,331.946 169.315,331.119C169.431,328.123 169.599,325.131 169.796,322.139C169.851,321.313 169.224,320.598 168.398,320.544C167.572,320.49 166.857,321.116 166.803,321.942ZM42.558,313.283C42.298,318.272 42.227,323.259 42.104,328.252C42.083,329.08 42.738,329.768 43.566,329.789C44.394,329.809 45.082,329.154 45.103,328.326C45.226,323.36 45.296,318.401 45.554,313.439C45.597,312.612 44.961,311.906 44.134,311.863C43.307,311.82 42.601,312.456 42.558,313.283ZM287.621,322.033C287.657,324.068 287.728,326.112 287.69,328.149C287.675,328.977 288.335,329.662 289.162,329.677C289.99,329.692 290.674,329.032 290.69,328.205C290.728,326.132 290.657,324.051 290.621,321.981C290.606,321.153 289.923,320.493 289.095,320.508C288.267,320.522 287.607,321.206 287.621,322.033ZM48.539,327.26C48.535,327.373 48.531,327.486 48.527,327.599C48.497,328.427 49.145,329.123 49.972,329.153C50.799,329.182 51.495,328.535 51.525,327.707C51.529,327.594 51.533,327.481 51.537,327.367C51.567,326.54 50.919,325.844 50.092,325.814C49.265,325.785 48.569,326.432 48.539,327.26ZM263.326,316.352C263.541,320.086 263.594,323.82 263.615,327.559C263.619,328.387 264.295,329.055 265.123,329.051C265.951,329.046 266.619,328.371 266.615,327.543C266.594,323.751 266.539,319.965 266.321,316.179C266.274,315.353 265.564,314.72 264.738,314.768C263.911,314.815 263.279,315.525 263.326,316.352ZM217.88,290.092C217.88,299.803 217.541,309.513 217.536,319.227C217.536,320.055 218.208,320.727 219.035,320.728C219.863,320.728 220.536,320.056 220.536,319.228C220.541,309.514 220.88,299.803 220.88,290.092C220.88,289.264 220.208,288.592 219.38,288.592C218.552,288.592 217.88,289.264 217.88,290.092ZM112.304,314.077C112.26,314.529 112.265,314.468 112.212,314.919C112.115,315.741 112.704,316.487 113.526,316.584C114.349,316.681 115.095,316.092 115.192,315.27C115.249,314.786 115.243,314.851 115.29,314.365C115.369,313.541 114.765,312.808 113.941,312.728C113.117,312.649 112.383,313.253 112.304,314.077ZM108.408,296.909C108.552,302.816 108.608,308.74 108.307,314.643C108.265,315.47 108.902,316.176 109.729,316.218C110.556,316.26 111.261,315.623 111.303,314.796C111.608,308.817 111.553,302.818 111.407,296.836C111.387,296.009 110.698,295.353 109.871,295.373C109.043,295.393 108.388,296.082 108.408,296.909ZM222.98,308.884C222.993,310.037 223.002,311.191 223.008,312.345C223.012,313.173 223.687,313.842 224.515,313.837C225.343,313.833 226.012,313.158 226.008,312.33C226.002,311.171 225.993,310.011 225.98,308.852C225.972,308.024 225.292,307.359 224.464,307.368C223.637,307.377 222.972,308.056 222.98,308.884ZM8.428,310.423C8.391,310.923 8.354,311.423 8.313,311.922C8.245,312.747 8.859,313.472 9.685,313.54C10.51,313.608 11.235,312.993 11.302,312.168C11.344,311.661 11.382,311.154 11.42,310.646C11.482,309.821 10.861,309.1 10.036,309.039C9.21,308.977 8.49,309.598 8.428,310.423ZM4.572,298.15C4.578,300.51 4.552,302.843 4.355,305.195C4.286,306.02 4.899,306.746 5.724,306.815C6.549,306.884 7.275,306.271 7.344,305.446C7.549,303.008 7.579,300.588 7.572,298.142C7.569,297.314 6.895,296.644 6.067,296.646C5.24,296.649 4.569,297.323 4.572,298.15Z" style="fill:#a56b1b;"/>
        <path d="M263.62,45C283.532,45.066 299.88,61.468 299.88,81.38L299.88,266.29C298.89,290.68 272.57,305.64 250.68,294.82L240.68,289.82C221.39,280.25 198.87,283.64 179.15,292.25C160.536,300.386 139.344,300.386 120.73,292.25C101.01,283.64 78.49,280.29 59.2,289.82L49.2,294.82C27.31,305.64 1,290.68 0,266.29L0,81.38C-0,72.583 3.191,64.472 8.468,58.155C8.452,58.519 8.445,58.885 8.445,59.253C8.445,73.563 20.063,85.182 34.373,85.182C38.487,85.182 42.379,84.221 45.836,82.513C52.182,92.723 63.499,99.525 76.392,99.525C89.603,99.525 101.159,92.384 107.407,81.755C112.057,83.953 117.253,85.182 122.733,85.182C137.773,85.182 150.668,75.926 156.028,62.806C165.15,60.594 172.49,53.799 175.468,45L263.62,45Z" style="fill:#e5a144;fill-rule:nonzero;"/>
        <path d="M156.489,294.948C156.952,294.948 157.327,295.324 157.327,295.786C157.327,296.249 156.952,296.624 156.489,296.624C156.027,296.624 155.651,296.249 155.651,295.786C155.651,295.324 156.027,294.948 156.489,294.948ZM149.164,294.948C149.625,294.948 150,295.323 150,295.784C150,296.246 149.625,296.62 149.164,296.62C148.703,296.62 148.328,296.246 148.328,295.784C148.328,295.323 148.703,294.948 149.164,294.948ZM274.832,293.391C275.37,293.391 275.807,293.828 275.807,294.366C275.807,294.905 275.37,295.342 274.832,295.342C274.293,295.342 273.856,294.905 273.856,294.366C273.856,293.828 274.293,293.391 274.832,293.391ZM29.016,292.696C29.746,292.696 30.339,293.289 30.339,294.019C30.339,294.749 29.746,295.342 29.016,295.342C28.286,295.342 27.693,294.749 27.693,294.019C27.693,293.289 28.286,292.696 29.016,292.696ZM152.327,290.293C153.612,290.293 154.655,291.336 154.655,292.621C154.655,293.905 153.612,294.948 152.327,294.948C151.043,294.948 150,293.905 150,292.621C150,291.336 151.043,290.293 152.327,290.293ZM146.381,292.621C146.847,292.621 147.226,293 147.226,293.466C147.226,293.933 146.847,294.312 146.381,294.312C145.914,294.312 145.535,293.933 145.535,293.466C145.535,293 145.914,292.621 146.381,292.621ZM267.591,283.636C270.283,283.636 272.468,285.822 272.468,288.514C272.468,291.205 270.283,293.391 267.591,293.391C264.899,293.391 262.714,291.205 262.714,288.514C262.714,285.822 264.899,283.636 267.591,283.636ZM278.372,284.792C280.261,284.792 281.795,286.326 281.795,288.215C281.795,290.105 280.261,291.638 278.372,291.638C276.483,291.638 274.949,290.105 274.949,288.215C274.949,286.326 276.483,284.792 278.372,284.792ZM23.898,283.636C25.242,283.636 26.334,284.728 26.334,286.072C26.334,287.416 25.242,288.507 23.898,288.507C22.554,288.507 21.462,287.416 21.462,286.072C21.462,284.728 22.554,283.636 23.898,283.636ZM14.398,279.609C16.598,279.609 18.383,281.414 18.383,283.636C18.383,285.859 16.598,287.664 14.398,287.664C12.199,287.664 10.414,285.859 10.414,283.636C10.414,281.414 12.199,279.609 14.398,279.609ZM98.323,282.44C98.693,282.44 98.994,282.741 98.994,283.112C98.994,283.482 98.693,283.783 98.323,283.783C97.952,283.783 97.651,283.482 97.651,283.112C97.651,282.741 97.952,282.44 98.323,282.44ZM284.474,279.609C285.391,279.609 286.134,280.353 286.134,281.269C286.134,282.185 285.391,282.929 284.474,282.929C283.558,282.929 282.814,282.185 282.814,281.269C282.814,280.353 283.558,279.609 284.474,279.609ZM203.335,281.335C203.64,281.335 203.888,281.583 203.888,281.888C203.888,282.193 203.64,282.44 203.335,282.44C203.03,282.44 202.783,282.193 202.783,281.888C202.783,281.583 203.03,281.335 203.335,281.335ZM199.26,280.231C199.87,280.231 200.365,280.726 200.365,281.335C200.365,281.945 199.87,282.44 199.26,282.44C198.65,282.44 198.155,281.945 198.155,281.335C198.155,280.726 198.65,280.231 199.26,280.231ZM89.639,279.593C90.424,279.593 91.062,280.231 91.062,281.017C91.062,281.803 90.424,282.44 89.639,282.44C88.853,282.44 88.215,281.803 88.215,281.017C88.215,280.231 88.853,279.593 89.639,279.593ZM94.004,278.888C94.745,278.888 95.347,279.49 95.347,280.231C95.347,280.971 94.745,281.573 94.004,281.573C93.264,281.573 92.662,280.971 92.662,280.231C92.662,279.49 93.264,278.888 94.004,278.888ZM2.942,248.088C3.884,248.088 4.649,248.853 4.649,249.795C4.649,250.737 3.884,251.502 2.942,251.502C2,251.502 1.235,250.737 1.235,249.795C1.235,248.853 2,248.088 2.942,248.088ZM297.326,243.947C298.318,243.947 299.124,244.753 299.124,245.745C299.124,246.738 298.318,247.543 297.326,247.543C296.333,247.543 295.528,246.738 295.528,245.745C295.528,244.753 296.333,243.947 297.326,243.947ZM6.356,235.001C8.083,235.001 9.486,236.404 9.486,238.131C9.486,239.858 8.083,241.26 6.356,241.26C4.629,241.26 3.227,239.858 3.227,238.131C3.227,236.404 4.629,235.001 6.356,235.001ZM293.912,208.886C294.804,208.886 295.528,209.61 295.528,210.502C295.528,211.394 294.804,212.118 293.912,212.118C293.02,212.118 292.296,211.394 292.296,210.502C292.296,209.61 293.02,208.886 293.912,208.886ZM296.256,199.054C297.839,199.054 299.124,200.339 299.124,201.922C299.124,203.505 297.839,204.789 296.256,204.789C294.673,204.789 293.388,203.505 293.388,201.922C293.388,200.339 294.673,199.054 296.256,199.054ZM295.533,154.065C296.087,154.065 296.536,154.515 296.536,155.068C296.536,155.622 296.087,156.072 295.533,156.072C294.98,156.072 294.53,155.622 294.53,155.068C294.53,154.515 294.98,154.065 295.533,154.065ZM298.144,153.155C298.646,153.155 299.054,153.563 299.054,154.065C299.054,154.568 298.646,154.975 298.144,154.975C297.642,154.975 297.234,154.568 297.234,154.065C297.234,153.563 297.642,153.155 298.144,153.155ZM294.919,145.552C296.342,145.552 297.498,146.708 297.498,148.131C297.498,149.554 296.342,150.71 294.919,150.71C293.496,150.71 292.34,149.554 292.34,148.131C292.34,146.708 293.496,145.552 294.919,145.552ZM297.234,112.756C297.619,112.756 297.931,113.068 297.931,113.453C297.931,113.838 297.619,114.15 297.234,114.15C296.849,114.15 296.536,113.838 296.536,113.453C296.536,113.068 296.849,112.756 297.234,112.756ZM295.533,109.591C296.087,109.591 296.536,110.04 296.536,110.594C296.536,111.147 296.087,111.597 295.533,111.597C294.98,111.597 294.53,111.147 294.53,110.594C294.53,110.04 294.98,109.591 295.533,109.591ZM297.498,106.984C298.028,106.984 298.459,107.415 298.459,107.945C298.459,108.475 298.028,108.906 297.498,108.906C296.967,108.906 296.536,108.475 296.536,107.945C296.536,107.415 296.967,106.984 297.498,106.984ZM295.533,91.282C296.087,91.282 296.536,91.731 296.536,92.285C296.536,92.839 296.087,93.288 295.533,93.288C294.98,93.288 294.53,92.839 294.53,92.285C294.53,91.731 294.98,91.282 295.533,91.282ZM297.403,86.565C298.328,86.565 299.078,87.316 299.078,88.24C299.078,89.165 298.328,89.915 297.403,89.915C296.479,89.915 295.728,89.165 295.728,88.24C295.728,87.316 296.479,86.565 297.403,86.565ZM2.706,84.378C3.329,84.378 3.836,84.884 3.836,85.507C3.836,86.131 3.329,86.637 2.706,86.637C2.083,86.637 1.576,86.131 1.576,85.507C1.576,84.884 2.083,84.378 2.706,84.378ZM295.032,84.517C295.309,84.517 295.533,84.742 295.533,85.019C295.533,85.295 295.309,85.52 295.032,85.52C294.755,85.52 294.53,85.295 294.53,85.019C294.53,84.742 294.755,84.517 295.032,84.517ZM5.936,76.423C7.674,76.423 9.086,77.834 9.086,79.573C9.086,81.312 7.674,82.723 5.936,82.723C4.197,82.723 2.786,81.312 2.786,79.573C2.786,77.834 4.197,76.423 5.936,76.423ZM293.658,72.664C294.14,72.664 294.53,73.055 294.53,73.536C294.53,74.017 294.14,74.408 293.658,74.408C293.177,74.408 292.786,74.017 292.786,73.536C292.786,73.055 293.177,72.664 293.658,72.664ZM5.51,70.552C6.101,70.552 6.58,71.032 6.58,71.622C6.58,72.213 6.101,72.692 5.51,72.692C4.92,72.692 4.44,72.213 4.44,71.622C4.44,71.032 4.92,70.552 5.51,70.552ZM296.536,70.901C296.983,70.901 297.345,71.263 297.345,71.71C297.345,72.156 296.983,72.518 296.536,72.518C296.09,72.518 295.728,72.156 295.728,71.71C295.728,71.263 296.09,70.901 296.536,70.901ZM11.254,70.996C11.082,71.399 10.681,71.682 10.215,71.682C9.592,71.682 9.086,71.176 9.086,70.552C9.086,69.929 9.592,69.423 10.215,69.423C10.328,69.423 10.436,69.439 10.539,69.47C10.761,69.987 11,70.496 11.254,70.996ZM292.786,66.457C294.013,66.457 295.008,67.453 295.008,68.679C295.008,69.906 294.013,70.901 292.786,70.901C291.56,70.901 290.564,69.906 290.564,68.679C290.564,67.453 291.56,66.457 292.786,66.457ZM288.914,64.422C289.619,64.422 290.192,64.995 290.192,65.7C290.192,66.406 289.619,66.979 288.914,66.979C288.208,66.979 287.635,66.406 287.635,65.7C287.635,64.995 288.208,64.422 288.914,64.422ZM282.298,52.704C283.298,52.704 284.11,53.516 284.11,54.516C284.11,55.517 283.298,56.329 282.298,56.329C281.297,56.329 280.485,55.517 280.485,54.516C280.485,53.516 281.297,52.704 282.298,52.704ZM277.674,53.486C277.958,53.486 278.189,53.717 278.189,54.001C278.189,54.286 277.958,54.516 277.674,54.516C277.39,54.516 277.159,54.286 277.159,54.001C277.159,53.717 277.39,53.486 277.674,53.486ZM272.597,48.211C274.053,48.211 275.235,49.393 275.235,50.849C275.235,52.305 274.053,53.486 272.597,53.486C271.141,53.486 269.959,52.305 269.959,50.849C269.959,49.393 271.141,48.211 272.597,48.211ZM279.824,50.849C280.336,50.849 280.752,51.264 280.752,51.777C280.752,52.289 280.336,52.704 279.824,52.704C279.312,52.704 278.897,52.289 278.897,51.777C278.897,51.264 279.312,50.849 279.824,50.849ZM265.152,48.847C265.595,48.847 265.955,49.207 265.955,49.65C265.955,50.093 265.595,50.453 265.152,50.453C264.709,50.453 264.349,50.093 264.349,49.65C264.349,49.207 264.709,48.847 265.152,48.847ZM237.338,48.211C237.858,48.211 238.281,48.634 238.281,49.154C238.281,49.674 237.858,50.096 237.338,50.096C236.818,50.096 236.396,49.674 236.396,49.154C236.396,48.634 236.818,48.211 237.338,48.211ZM239.791,46.326C240.487,46.326 241.051,46.891 241.051,47.587C241.051,48.282 240.487,48.847 239.791,48.847C239.095,48.847 238.531,48.282 238.531,47.587C238.531,46.891 239.095,46.326 239.791,46.326ZM233.684,46.85C234.216,46.85 234.648,47.281 234.648,47.813C234.648,48.344 234.216,48.776 233.684,48.776C233.153,48.776 232.721,48.344 232.721,47.813C232.721,47.281 233.153,46.85 233.684,46.85Z" style="fill:#dc9637;"/>
        <path d="M173.636,49.204L254.129,49.204C254.135,49.204 254.142,49.204 254.148,49.204C275.65,49.275 293.304,66.877 293.304,88.246L293.304,257.094C293.304,257.172 293.302,257.251 293.299,257.33C292.218,283.788 263.538,300.102 239.643,288.365L230.441,283.792C214.265,275.82 195.395,278.959 178.861,286.133C160.263,294.212 139.089,294.212 120.493,286.134C109.887,281.532 98.322,278.606 87.124,279.192C87.042,279.174 86.959,279.159 86.877,279.149C85.08,278.921 83.164,279.244 81.452,279.803L81.441,279.806C79.557,280.12 77.689,280.545 75.845,281.091C74.756,281.129 73.664,281.166 72.59,281.481C70.981,281.953 69.385,282.692 67.96,283.576C67.129,284.092 66.41,284.754 65.529,285.194C63.815,286.047 61.876,286.253 60.122,287.021C58.881,287.564 57.858,288.476 56.662,289.102C55.743,289.583 54.69,289.721 53.77,290.204C53.121,290.544 52.522,290.888 51.913,291.191C29.992,296.493 7.028,280.957 6.053,257.332C6.05,257.253 6.048,257.173 6.048,257.094L6.048,88.246C6.048,81.626 7.743,75.368 10.72,69.882C12.563,73.975 15.438,77.504 19.013,80.138C18.202,82.703 17.765,85.428 17.765,88.246C17.765,88.246 17.765,255.724 17.765,255.724C17.765,255.724 17.765,256.968 17.765,256.976C18.594,274.986 38.215,285.927 54.509,277.93L63.707,273.36C82.976,263.899 105.483,266.916 125.181,275.463C125.182,275.463 125.183,275.464 125.183,275.464C140.791,282.244 158.561,282.244 174.169,275.464C174.169,275.464 174.17,275.463 174.171,275.463C193.872,266.915 216.383,263.863 235.654,273.364L244.843,277.93C261.14,285.928 280.772,274.984 281.587,256.969L281.587,88.246C281.587,73.252 269.202,60.901 254.116,60.848L254.116,60.848L161.477,60.848C166.648,58.34 170.912,54.248 173.636,49.204Z" style="fill:#cb8c37;"/>
        <g transform="matrix(0.981245,0,0,0.976571,2.85172,3.8118)">
            <g transform="matrix(1.01911,0,0,1.02399,-3.95427,-6.06203)">
                <path d="M193.912,55.922L175.828,55.922C171.873,61.189 165.633,65.506 159.259,67.642C152.53,81.433 139.1,90.667 122.733,90.667C118.102,90.667 113.647,89.905 109.487,88.5C101.923,98.527 91.523,104.831 78.006,104.831C64.813,104.831 53.158,98.374 45.568,88.752C42.578,89.697 39.396,90.208 36.095,90.208C28.438,90.208 19.696,87.922 14.243,83.362C13.938,85.14 13.78,86.966 13.78,88.825L13.78,109.594L193.912,109.594L193.912,55.922Z" style="fill:#9fcff5;fill-rule:nonzero;"/>
            </g>
            <g transform="matrix(1.01911,0,0,1.02399,-2.90623,-3.90325)">
                <path d="M253.345,55.922L175.828,55.922C171.873,61.189 166.368,65.231 159.994,67.367C153.265,81.157 139.1,90.667 122.733,90.667C118.102,90.667 113.647,89.905 109.487,88.5C101.923,98.527 89.909,105.011 76.392,105.011C63.199,105.011 51.436,98.833 43.846,89.211C40.856,90.157 37.674,90.667 34.373,90.667C26.717,90.667 19.696,87.922 14.243,83.362C13.938,85.14 13.78,86.966 13.78,88.825L13.78,256.062C14.689,278.121 38.598,291.651 58.491,281.865L67.578,277.343C85.108,268.724 105.573,271.754 123.494,279.541C140.409,286.899 159.668,286.899 176.583,279.541C194.504,271.754 214.969,268.688 232.499,277.343L241.586,281.865C261.479,291.651 285.397,278.121 286.297,256.062L286.297,88.825C286.297,70.816 271.441,55.981 253.345,55.922Z" style="fill:#c2def4;fill-rule:nonzero;"/>
            </g>
            <g transform="matrix(0.926123,0,0,0.926123,11.1372,11.6846)">
                <path d="M42.32,222.76C42.32,222.76 57.39,203.13 91.93,210.76C110.26,214.81 116.56,228.65 113.15,240.76C109.74,252.87 96.86,255.28 74.15,255C57.86,254.81 51.68,267.48 51.68,267.48" style="fill:#c2def4;fill-rule:nonzero;"/>
            </g>
            <g transform="matrix(0.926123,0,0,0.926123,11.1372,11.6846)">
                <path d="M257.68,222.76C257.68,222.76 242.61,203.13 208.07,210.76C189.74,214.81 183.44,228.65 186.85,240.76C190.26,252.87 203.14,255.28 225.85,255C242.14,254.81 248.32,267.48 248.32,267.48" style="fill:#c2def4;fill-rule:nonzero;"/>
            </g>
            <path d="M106.652,231.8C112.692,226.199 104.551,216.965 98.941,214.674C95.038,213.079 91.297,214.102 87.216,214.008C82.184,213.893 77.231,212.758 72.195,213.765C67.551,214.694 64.461,217.019 60.362,218.983C58.703,219.778 56.813,219.739 55.191,220.618C51.987,222.354 48.774,227.472 48.728,231.128C48.664,236.226 53.599,236.961 57.651,236.558C62.938,236.033 68.098,236.687 73.33,236.283C76.9,236.007 80.414,234.514 84.003,234.753C88.31,235.04 92.338,237.082 96.655,237.393C100.458,237.667 104.081,234.184 106.652,231.8ZM193.348,231.8C187.308,226.199 195.449,216.965 201.059,214.674C204.962,213.079 208.703,214.102 212.784,214.008C217.816,213.893 222.769,212.758 227.805,213.765C232.449,214.694 235.539,217.019 239.638,218.983C241.297,219.778 243.187,219.739 244.809,220.618C248.013,222.354 251.226,227.472 251.272,231.128C251.336,236.226 246.401,236.961 242.349,236.558C237.062,236.033 231.902,236.687 226.67,236.283C223.1,236.007 219.586,234.514 215.997,234.753C211.69,235.04 207.662,237.082 203.345,237.393C199.542,237.667 195.919,234.184 193.348,231.8Z" style="fill:#cce8ff;"/>
            <g transform="matrix(1.01911,0,0,1.02399,-2.90623,-3.90325)">
                <path d="M175.828,55.922L231.176,55.922C228.842,57.96 226.531,60.01 224.236,62.079C223.35,63.072 222.291,63.913 221.294,64.791C218.297,67.431 215.869,70.202 213.674,73.532C212.176,75.804 210.931,78.342 208.945,80.248C205.944,83.13 202.224,85.165 199.517,88.374C195.497,93.142 193.641,98.801 188.74,103.091C184.453,106.843 179.361,109.679 174.784,113.101C171.073,117.541 167.463,122.035 163.96,126.581C163.077,128.267 162.155,129.935 161.024,131.49C158.889,134.424 156.528,137.177 154.12,139.895C147.194,149.673 140.743,159.706 134.796,170.013C134.322,171.933 133.876,173.869 133.074,175.649C130.831,180.623 127.401,184.732 124.455,189.269L124.397,189.358C123.834,190.489 123.275,191.622 122.724,192.757C120.099,199.749 120.934,207.996 113.882,212.481C110.099,221.671 106.692,231.067 103.682,240.676C103.501,244.348 103.667,248.105 103.121,251.653C102.627,254.856 101.064,257.829 100.44,261.01C99.894,263.798 100.28,266.474 99.179,269.197C97.77,272.682 92.655,274.261 89.712,272.15C82.098,272.306 74.603,273.889 67.578,277.343L58.491,281.865C38.598,291.651 14.689,278.121 13.78,256.062L13.78,166.224C14.599,164.596 15.431,162.986 16.275,161.397C16.59,160.543 16.871,159.675 17.069,158.763C17.775,155.512 18.02,152.01 19.489,148.973C22.004,143.771 27.235,140.747 30.563,136.177C33.567,132.052 34.364,126.867 37.402,122.754C40.966,117.928 46.536,115.777 50.919,111.929C54.348,108.919 56.689,104.852 59.853,101.574C64.921,103.785 70.515,105.011 76.392,105.011C89.909,105.011 101.923,98.527 109.487,88.5C113.647,89.905 118.102,90.667 122.733,90.667C139.1,90.667 153.265,81.157 159.994,67.367C166.368,65.231 171.873,61.189 175.828,55.922ZM261.586,275.001C260.861,278.27 260.178,281.542 259.537,284.819C253.665,285.609 247.451,284.75 241.586,281.865L232.499,277.343C228.85,275.541 225.073,274.247 221.217,273.398L219.78,274.202C217.663,262.729 224.198,255.78 228.755,245.844C230.669,241.67 230.911,237.013 233.201,232.914C234.047,231.399 235.177,230.073 236.332,228.766C238.296,224.35 240.334,219.991 242.445,215.692C242.921,212.908 243.416,210.134 244.841,207.568C246.288,204.964 248.272,202.741 250.305,200.547C253.56,194.605 256.958,188.774 260.495,183.051C262.389,176.515 263.808,169.633 267.89,164.504C270.454,161.282 274.224,159.585 277.687,157.514C280.492,153.675 283.362,149.886 286.297,146.147L286.297,198.605C285.133,201.339 283.997,204.077 282.889,206.822C283.593,207.716 283.232,210.461 283.141,211.356C282.662,216.066 281.568,220.734 279.133,224.846C273.539,234.298 272.558,244.965 269.424,255.272C268.332,258.861 265.836,261.728 264.474,265.195C263.197,268.448 262.94,271.904 261.586,275.001ZM153.297,283.832C153.169,284.219 153.042,284.608 152.915,284.998C143.024,285.425 133.06,283.648 123.789,279.668C124.624,276.885 125.476,274.119 126.349,271.366C125.656,262.669 129.704,254.615 133.165,246.787C135.33,241.891 135.247,236.452 137.52,231.615C139.411,227.592 142.45,224.336 145.163,220.846C147.393,215.673 149.692,210.571 152.052,205.547C153.091,201.464 154.084,197.34 156.083,193.663C157.363,191.308 159.188,189.318 161.035,187.36C163.952,181.736 166.953,176.199 170.034,170.754C171.089,167.04 172.192,163.345 174.358,160.11C176.281,157.238 178.671,154.757 181.024,152.231C183.805,147.757 186.643,143.341 189.536,138.981C190.515,135.548 191.018,131.989 192.568,128.737C196.002,121.535 202.58,117.376 207.391,111.338C210.679,107.211 211.517,102.227 215.774,98.705C217.872,96.97 220.174,95.601 222.555,94.36C233.446,81.078 244.873,68.353 256.767,56.111C262.599,56.738 267.997,58.901 272.538,62.181L271.579,63.436C272.076,63.809 272.529,64.374 272.922,65.17C272.931,65.188 270.492,65.975 270.455,65.988C270.081,66.117 269.703,66.251 269.33,66.398C267.563,68.735 265.808,71.079 264.059,73.44C263.207,75.922 262.504,78.471 261.415,80.847C260.218,83.46 258.279,85.72 256.52,87.968C254.286,90.821 251.716,93.571 250.076,96.826C248.234,100.482 247.355,104.443 245.173,107.955C242.767,111.83 239.24,114.81 236.69,118.599C233.308,123.624 231.668,129.596 228.31,134.608C225.656,138.57 221.609,141.182 218.602,144.829C215.238,148.909 213.055,153.669 209.391,157.326C199.39,175.038 190.079,193.209 181.526,211.881C181.345,212.694 181.182,213.51 181.035,214.331C179.778,221.339 175.725,226.698 172.44,232.592C171.115,235.751 169.811,238.925 168.529,242.113C167.145,247.813 167.136,253.804 165.509,259.461C164.172,264.107 160.968,267.723 159.123,272.137C157.31,276.472 156.418,280.286 153.297,283.832Z" style="fill:#e3f2ff;fill-opacity:0.35;"/>
            </g>
            <g transform="matrix(0.926123,0,0,0.926123,11.1372,11.6846)">
                <path d="M181.89,197.6C181.89,220.68 170.51,239.38 150,239.38C129.49,239.38 118.11,220.68 118.11,197.6C118.11,197.6 132.39,208.04 150,208.04C167.61,208.04 181.89,197.6 181.89,197.6Z" style="fill:#252525;fill-rule:nonzero;"/>
            </g>
            <path d="M124.98,204.644C124.911,203.365 125.425,202.368 126.924,202.973C127.966,203.394 128.668,204.366 129.704,204.781C131.078,205.33 132.6,205.244 133.957,205.925C135.117,206.508 135.987,207.501 137.248,207.899C139.331,208.555 141.639,208.05 143.78,208.557C146.026,209.09 148.143,210.121 150.486,210.148C153.051,210.177 155.601,209.261 158.107,208.833C159.472,208.6 160.846,208.95 162.168,208.467C163.608,207.941 164.597,206.806 165.928,206.102C166.738,205.673 167.595,205.622 168.48,205.457C169.061,205.349 169.65,205.2 170.166,204.901C170.467,204.726 170.738,204.485 170.993,204.25C171.839,203.469 173.482,201.304 174.653,202.781C174.801,202.967 174.888,203.173 174.925,203.408C175.156,204.855 174.037,206.157 173.708,207.519C173.344,209.024 173.295,210.6 172.63,212.025C171.888,213.617 170.536,214.872 169.608,216.361C168.842,217.59 168.353,219.033 167.29,220.055C166.247,221.058 164.723,221.425 163.608,222.369C162.258,223.512 161.145,225.435 159.493,226.141C157.687,226.915 155.771,226.027 153.929,226.211C152.327,226.37 150.999,227.411 149.4,227.601C147.1,227.874 145.681,226.668 143.548,226.228C141.358,225.777 138.823,226.183 136.933,224.729C135.466,223.601 134.852,221.851 133.652,220.504C133.031,219.807 132.18,219.521 131.507,218.919C130.891,218.369 130.479,217.565 130.145,216.822C129.434,215.24 129.732,213.447 129.001,211.913C128.296,210.434 126.758,209.859 125.936,208.557C125.231,207.438 125.097,205.958 124.98,204.644Z" style="fill:#333;"/>
            <path d="M162.689,204.605C162.018,205.538 161.201,206.423 160.686,207.16C158.697,210.003 157.055,213.11 155.811,216.35C154.408,220.004 153.77,223.883 152.902,227.686C152.643,228.82 152.412,229.963 152.207,231.109C152.195,231.174 152.185,231.237 152.175,231.3C151.483,231.353 150.776,231.38 150.056,231.38C144.54,231.38 139.809,229.809 135.903,227.045C137.214,222.717 138.923,218.749 141.477,214.949C142.789,212.996 144.345,211.285 145.938,209.563C146.997,208.419 148.092,207.309 149.27,206.348C149.532,206.353 149.793,206.355 150.056,206.355C154.559,206.355 158.836,205.646 162.689,204.605Z" style="fill:#4b4b4b;fill-opacity:0.5;"/>
            <g transform="matrix(0.926123,0,0,0.926123,11.1372,11.6846)">
                <path d="M260.56,146C254.908,140.8 248.116,136.995 240.73,134.89C230.369,131.877 219.361,131.877 209,134.89C201.62,137.002 194.833,140.806 189.18,146C179.18,155.43 174.93,168.5 180.64,180.76C186.58,193.53 199.83,185.39 214.03,181.59C221.085,179.39 228.645,179.39 235.7,181.59C249.91,185.39 263.15,193.53 269.1,180.76C274.8,168.54 270.6,155.47 260.56,146Z" style="fill:#252525;fill-rule:nonzero;"/>
            </g>
            <path d="M188.424,179.007C183.867,178.66 183.023,174.737 183.106,170.953C183.16,168.489 182.612,166.123 183.48,163.724C184.214,161.696 185.913,160.212 186.837,158.278C187.753,156.363 188.203,154.222 189.434,152.465C191.416,149.635 194.645,148.944 197.499,147.39C200.101,145.973 202.129,143.631 204.954,142.594C208.142,141.425 211.742,142.225 215.044,142.101C217.823,141.997 220.522,141.152 223.317,141.174C227.316,141.205 229.964,143.114 233.581,144.47C236.159,145.436 239.053,145.601 241.504,146.907C243.095,147.756 244.976,149.088 246.097,150.529C246.985,151.67 247.501,153.006 248.497,154.1C250.706,156.525 253.112,158.125 254.919,160.965C256.345,163.205 256.218,165.556 256.115,168.106C256.064,169.374 256.319,170.674 256.164,171.93C255.964,173.548 255.203,174.867 254.413,176.256C253.777,177.374 253.498,178.85 252.3,179.525C248.681,181.566 246.511,178.347 243.369,177.592C241.812,177.218 240.218,177.245 238.764,176.476C237.036,175.561 235.747,173.879 233.859,173.249C231.432,172.44 229.07,173.398 226.626,173.068C223.773,172.683 221.286,171.132 218.375,170.902C215.546,170.678 213.71,172.751 211.167,173.465C208.616,174.182 205.933,173.1 203.365,173.925C201.093,174.655 199.418,176.526 197.282,177.551C195.096,178.599 190.87,178.918 188.424,179.007Z" style="fill:#333;"/>
            <path d="M214.832,136.722C221.092,136.156 227.434,136.759 233.524,138.53C233.528,138.531 233.531,138.532 233.534,138.533C236.38,139.344 239.125,140.439 241.731,141.798C241.499,142.051 241.274,142.294 241.066,142.526C237.257,146.769 233.271,150.736 229.871,155.331C224.962,161.965 221.388,168.696 218.085,176.237L218.032,176.357C214.912,176.476 211.803,177.004 208.787,177.941C202.31,179.678 196.044,182.418 190.715,183.254C189.146,183.5 187.67,183.582 186.316,183.365C186.45,173.124 191.892,163.139 197.889,155.206C202.102,149.634 206.184,144.335 211.424,139.66C212.504,138.697 213.641,137.692 214.832,136.722ZM250.7,148.013C250.83,148.129 250.957,148.245 251.084,148.362L251.084,148.362C252.855,150.033 254.419,151.833 255.745,153.729C254.295,155.237 252.715,156.649 251.355,158.104C246.702,163.08 242.183,168.171 238.371,173.831C237.151,175.643 236.067,177.531 235.1,179.484C233.417,178.934 231.703,178.399 229.973,177.936C229.511,177.792 229.047,177.658 228.581,177.535C230.633,172.754 233.077,168.217 236.17,163.945C238.667,160.498 241.378,157.281 244.35,154.234C246.434,152.098 248.459,149.949 250.7,148.013Z" style="fill:#4b4b4b;fill-opacity:0.5;"/>
            <g transform="matrix(0.926123,0,0,0.926123,11.1372,11.6846)">
                <path d="M110.82,146C105.166,140.817 98.378,137.026 91,134.93C80.636,131.917 69.624,131.917 59.26,134.93C51.883,137.03 45.097,140.821 39.44,146C29.44,155.43 25.2,168.5 30.9,180.76C36.9,193.53 50.09,185.39 64.3,181.59C67.826,180.592 71.466,180.057 75.13,180C78.809,180.068 82.463,180.616 86,181.63C100.2,185.43 113.44,193.57 119.39,180.8C125.07,168.54 120.86,155.47 110.82,146Z" style="fill:#252525;fill-rule:nonzero;"/>
            </g>
            <g transform="matrix(-1,0,0,1,300.327,0)">
                <path d="M188.424,179.007C183.867,178.66 183.023,174.737 183.106,170.953C183.16,168.489 182.612,166.123 183.48,163.724C184.214,161.696 185.913,160.212 186.837,158.278C187.753,156.363 188.203,154.222 189.434,152.465C191.416,149.635 194.645,148.944 197.499,147.39C200.101,145.973 202.129,143.631 204.954,142.594C208.142,141.425 211.742,142.225 215.044,142.101C217.823,141.997 220.522,141.152 223.317,141.174C227.316,141.205 229.964,143.114 233.581,144.47C236.159,145.436 239.053,145.601 241.504,146.907C243.095,147.756 244.976,149.088 246.097,150.529C246.985,151.67 247.501,153.006 248.497,154.1C250.706,156.525 253.112,158.125 254.919,160.965C256.345,163.205 256.218,165.556 256.115,168.106C256.064,169.374 256.319,170.674 256.164,171.93C255.964,173.548 255.203,174.867 254.413,176.256C253.777,177.374 253.498,178.85 252.3,179.525C248.681,181.566 246.511,178.347 243.369,177.592C241.812,177.218 240.218,177.245 238.764,176.476C237.036,175.561 235.747,173.879 233.859,173.249C231.432,172.44 229.07,173.398 226.626,173.068C223.773,172.683 221.286,171.132 218.375,170.902C215.546,170.678 213.71,172.751 211.167,173.465C208.616,174.182 205.933,173.1 203.365,173.925C201.093,174.655 199.418,176.526 197.282,177.551C195.096,178.599 190.87,178.918 188.424,179.007Z" style="fill:#333;"/>
            </g>
            <path d="M87.463,136.5C90.001,136.838 92.519,137.367 94.996,138.087C94.999,138.087 95.001,138.088 95.004,138.089C100.934,139.774 106.438,142.681 111.165,146.614C110.589,147.686 109.03,148.734 108.329,149.263C104.791,151.935 101.52,154.98 98.691,158.407C94.785,163.141 91.907,168.333 89.079,173.735C88.434,174.967 87.951,176.272 87.459,177.572C85.246,177.158 83,176.929 80.744,176.887C80.727,176.887 80.71,176.887 80.693,176.887C77.174,176.942 73.676,177.455 70.289,178.413C64.622,179.929 59.135,182.205 54.286,183.325C54.285,179.791 55.153,176.25 56.033,172.852C59.829,158.179 71.235,145.266 84.444,138.17C85.316,137.702 86.364,137.058 87.463,136.5ZM119.114,156.04C120.376,158.282 121.318,160.628 121.896,163.035C120.168,163.855 117.893,164.167 116.385,164.895C111.982,167.019 108.311,169.932 105.182,173.674C103.522,175.659 101.993,177.835 100.697,180.076C100.482,180.448 100.308,180.861 100.144,181.273C98.735,180.804 97.296,180.316 95.836,179.844C97.941,175.661 100.1,171.584 103.149,167.964C105.29,165.422 107.78,163.031 110.495,161.105C113.041,159.3 116.002,157.084 119.114,156.04Z" style="fill:#4b4b4b;fill-opacity:0.5;"/>
            <g transform="matrix(0.926123,0,0,0.926123,11.1372,11.6846)">
                <path d="M184.05,197.6C184.05,196.787 183.593,196.043 182.868,195.674C182.142,195.306 181.272,195.377 180.615,195.857C180.615,195.857 166.906,205.88 150,205.88C133.094,205.88 119.385,195.857 119.385,195.857C118.728,195.377 117.858,195.306 117.132,195.674C116.407,196.043 115.95,196.787 115.95,197.6C115.95,222.01 128.308,241.54 150,241.54C171.692,241.54 184.05,222.01 184.05,197.6ZM179.611,201.602C178.405,221.501 168.13,237.22 150,237.22C131.87,237.22 121.595,221.501 120.389,201.602C125.857,204.784 137.065,210.2 150,210.2C162.935,210.2 174.143,204.784 179.61,201.602L179.611,201.602Z"/>
            </g>
            <g transform="matrix(0.926123,0,0,0.926123,11.1372,11.6846)">
                <path d="M262.042,144.429C262.035,144.423 262.029,144.417 262.022,144.411C256.123,138.984 249.035,135.013 241.327,132.815C230.576,129.69 219.153,129.69 208.402,132.815C200.7,135.019 193.618,138.99 187.719,144.41C187.712,144.416 187.705,144.422 187.698,144.429C176.993,154.524 172.57,168.546 178.682,181.671C180.08,184.676 181.855,186.668 183.88,187.943C186.884,189.832 190.505,190.16 194.572,189.522C200.466,188.598 207.41,185.597 214.588,183.676C214.617,183.669 214.645,183.66 214.673,183.652C221.309,181.582 228.421,181.582 235.057,183.652C235.085,183.66 235.114,183.669 235.142,183.676C242.326,185.597 249.269,188.598 255.163,189.522C259.23,190.16 262.851,189.832 265.855,187.943C267.881,186.669 269.658,184.676 271.057,181.672C277.159,168.59 272.79,154.567 262.042,144.429ZM259.088,147.58C268.413,156.381 272.439,168.493 267.143,179.847C267.143,179.847 267.143,179.848 267.143,179.848C266.162,181.952 264.975,183.394 263.556,184.287C261.392,185.647 258.761,185.714 255.832,185.255C250.076,184.353 243.307,181.393 236.293,179.513C228.849,177.201 220.868,177.203 213.417,179.519C206.423,181.395 199.657,184.353 193.903,185.255C190.974,185.714 188.343,185.647 186.18,184.287C184.762,183.395 183.577,181.953 182.598,179.849C182.598,179.849 182.598,179.849 182.598,179.848C177.292,168.457 181.364,156.345 190.651,147.581C196.055,142.619 202.541,138.984 209.594,136.966C209.597,136.965 209.6,136.965 209.603,136.964C219.57,134.065 230.16,134.065 240.127,136.964C240.131,136.965 240.134,136.966 240.138,136.967C247.196,138.979 253.686,142.613 259.088,147.58L259.088,147.58Z"/>
            </g>
            <g transform="matrix(0.926123,0,0,0.926123,11.1372,11.6846)">
                <path d="M111.931,144.822C111.926,144.816 111.92,144.811 111.914,144.806C106.075,139.454 99.066,135.539 91.447,133.373C80.79,130.276 69.469,130.276 58.812,133.373C51.195,135.543 44.188,139.457 38.346,144.805C38.34,144.811 38.335,144.816 38.329,144.822C27.8,154.75 23.43,168.534 29.431,181.443C29.432,181.445 29.433,181.447 29.434,181.449C30.792,184.338 32.5,186.261 34.452,187.487C37.357,189.309 40.852,189.604 44.772,188.989C50.644,188.068 57.555,185.07 64.718,183.155C64.726,183.153 64.734,183.151 64.741,183.148C68.116,182.193 71.601,181.679 75.108,181.62C78.656,181.687 82.161,182.214 85.554,183.187C85.563,183.19 85.572,183.192 85.581,183.195C92.74,185.11 99.661,188.108 105.538,189.029C109.462,189.644 112.959,189.349 115.858,187.526C117.808,186.3 119.511,184.376 120.858,181.484C120.859,181.483 120.859,181.482 120.86,181.481C126.839,168.574 122.501,154.791 111.931,144.822ZM109.717,147.186C119.221,156.155 123.299,168.508 117.921,180.117C116.889,182.333 115.628,183.844 114.134,184.784C111.865,186.21 109.11,186.31 106.04,185.829C100.263,184.923 93.469,181.954 86.433,180.069C82.765,179.019 78.975,178.451 75.16,178.381C75.141,178.38 75.123,178.38 75.105,178.381C71.304,178.44 67.528,178.994 63.87,180.028C56.828,181.913 50.043,184.883 44.27,185.789C41.202,186.27 38.448,186.17 36.174,184.743C34.676,183.802 33.409,182.291 32.367,180.074C26.972,168.467 31.078,156.116 40.543,147.187C46.012,142.181 52.573,138.518 59.704,136.488C59.706,136.487 59.709,136.486 59.712,136.485C69.781,133.558 80.479,133.558 90.548,136.485C90.551,136.486 90.554,136.487 90.557,136.488C97.689,138.514 104.251,142.178 109.717,147.186L109.717,147.186Z"/>
            </g>
            <path d="M98.808,244.055C99.942,243.812 101.068,243.532 102.184,243.215C104.877,242.541 107.386,241.276 109.528,239.511C111.443,237.749 112.718,235.399 113.15,232.833C113.724,230.15 113.696,227.373 113.066,224.702C111.779,219.414 107.861,215.033 102.749,212.459C100.12,211.123 97.313,210.169 94.414,209.625C92.905,209.338 91.395,209.013 89.876,208.754L85.246,208.245C79.152,207.803 73.027,208.376 67.121,209.94C61.046,211.482 55.338,214.217 50.331,217.988C51.126,216.53 52.103,215.179 53.239,213.968C54.364,212.716 55.604,211.571 56.943,210.551L57.934,209.773L58.971,209.06C59.685,208.606 60.37,208.087 61.12,207.708L63.361,206.504C63.523,206.428 63.686,206.354 63.849,206.282C64.443,205.554 65.067,204.832 65.915,204.429C67.421,203.713 69.403,204.008 71.08,203.748C71.343,203.685 71.607,203.625 71.872,203.567C72.83,203.262 73.645,202.676 74.576,202.284C76.204,201.597 78.014,201.225 79.775,201.138C81.862,201.035 84.194,201.315 86.207,201.89C87.074,202.137 87.909,202.428 88.745,202.703L90.691,202.864C92.349,203.096 93.997,203.392 95.655,203.66L95.748,203.676C98.748,203.504 101.784,203.027 104.546,204.507C106.183,205.384 107.307,206.929 108.441,208.408C110.584,209.786 112.531,211.457 114.224,213.376C115.441,214.763 116.473,216.276 117.31,217.876C117.749,218.455 118.164,219.062 118.546,219.707C119.264,220.919 120.477,223.822 119.738,225.531C120.118,228.393 119.963,231.339 119.234,234.213C119.123,234.658 119.03,235.139 118.901,235.556L118.419,236.899C118.094,237.806 117.692,238.683 117.215,239.52C116.991,239.954 116.728,240.366 116.428,240.752C116.15,241.159 115.872,241.557 115.576,241.946L114.567,243.03C114.245,243.394 113.891,243.728 113.511,244.03C110.642,246.365 107.263,247.99 103.648,248.772C100.347,249.52 96.988,249.985 93.608,250.161C90.293,250.365 87.024,250.365 83.754,250.337L81.319,250.282C80.504,250.282 79.661,250.235 78.966,250.282C77.497,250.259 76.029,250.358 74.577,250.578C68.482,251.557 62.941,254.706 58.981,259.441C60.751,254.612 64.241,250.601 68.779,248.179C70.338,247.382 71.982,246.761 73.678,246.327C75.381,245.905 77.121,245.657 78.874,245.586C79.8,245.512 80.541,245.521 81.347,245.503L82.379,245.503C83.518,244.998 84.676,244.561 85.92,244.421C87.427,244.251 88.859,244.861 90.321,245.194C91.279,245.127 92.233,245.046 93.182,244.947C93.417,244.923 93.651,244.897 93.884,244.87C94.238,244.72 94.591,244.561 94.953,244.425C96.333,243.908 97.419,243.836 98.808,244.055Z" style="fill:#80aecf;fill-rule:nonzero;"/>
            <path d="M219.079,245.373C219.755,245.375 220.42,245.386 221.191,245.456C222.943,245.527 224.684,245.775 226.387,246.197C228.083,246.631 229.726,247.252 231.286,248.05C232.057,248.454 232.8,248.912 233.508,249.42C237.046,251.8 239.708,255.275 241.084,259.311C237.124,254.576 231.583,251.428 225.488,250.448C224.036,250.229 222.567,250.13 221.098,250.152L218.746,250.152L216.31,250.207C213.041,250.207 209.772,250.207 206.456,250.031C203.077,249.855 199.718,249.39 196.417,248.642C192.811,247.866 189.438,246.251 186.573,243.928C186.192,243.627 185.839,243.292 185.517,242.928L184.507,241.845C184.211,241.456 183.933,241.057 183.655,240.65C183.355,240.264 183.092,239.852 182.868,239.418C182.392,238.581 181.989,237.704 181.664,236.797L181.183,235.454C181.053,235.01 180.96,234.528 180.849,234.111C178.989,226.771 180.866,218.966 185.859,213.274C186.795,212.213 187.809,211.228 188.891,210.326C189.451,209.446 190.007,208.563 190.784,207.911C191.869,207.002 193.269,206.778 194.511,206.175C195.96,205.472 196.894,204.285 198.476,203.778C200.594,203.099 202.799,203.239 204.989,203.216C205.826,203.207 206.655,203.138 207.484,203.063C208.122,202.96 208.761,202.861 209.401,202.771L213.134,202.463C214.906,202.228 216.675,202.051 218.454,202.336L218.537,202.35C218.86,202.353 219.183,202.355 219.505,202.355C221.191,202.355 222.886,202.623 224.571,202.781C226.257,202.938 227.915,203.373 229.563,203.79C230.378,204.022 231.193,204.281 232.008,204.531C232.406,204.661 232.814,204.772 233.212,204.92L234.398,205.411C235.175,205.744 235.963,206.05 236.731,206.411L238.973,207.615C239.723,207.995 240.408,208.541 241.121,208.967L242.158,209.68L243.149,210.458C244.489,211.479 245.729,212.623 246.854,213.876C248.003,215.114 248.987,216.496 249.78,217.988C244.759,214.212 239.035,211.476 232.944,209.94C227.038,208.376 220.913,207.803 214.819,208.245L210.189,208.754C208.67,209.013 207.16,209.338 205.651,209.625C202.752,210.169 199.945,211.123 197.316,212.459C192.203,215.033 188.286,219.414 186.999,224.702C186.369,227.373 186.34,230.15 186.915,232.833C187.347,235.399 188.622,237.749 190.536,239.511C192.458,241.093 194.673,242.274 197.052,242.987C198.059,242.856 199.095,242.514 200.113,242.623C202.491,242.877 204.514,244.18 206.831,244.618C209.373,245.098 211.917,244.653 214.478,244.651C216.006,244.65 217.627,244.833 219.079,245.373Z" style="fill:#80aecf;fill-rule:nonzero;"/>
            <g transform="matrix(1.01911,0,0,1.02399,-2.90623,-3.90325)">
                <path d="M177.792,52.992L178.406,52.992C182.794,52.446 187.173,51.916 191.657,51.904C194.491,51.896 197.245,52.433 199.993,52.992L222.99,52.992C225,52.885 227.012,52.818 229.035,52.737C231.418,52.64 233.979,52.329 236.341,52.794C236.614,52.848 236.882,52.915 237.147,52.992L253.355,52.992C273.062,53.057 289.241,69.212 289.241,88.825L289.241,99.078C289.753,101.007 290.182,102.948 290.257,104.884C290.388,108.265 289.175,111.586 289.344,114.997C289.591,119.983 290.873,124.66 290.596,129.716C290.392,133.441 289.787,137.15 289.241,140.863L289.241,210.899C289.905,213.029 290.695,215.096 290.701,217.402C290.706,219.782 289.857,222.092 289.241,224.422L289.241,232.57C289.834,234.941 290.618,237.261 290.501,239.792C290.396,242.081 289.825,244.354 289.241,246.613L289.241,256.062C289.241,256.101 289.24,256.141 289.238,256.181C289.097,259.639 288.44,262.907 287.355,265.935C287.235,268.467 286.879,270.953 285.642,273.3C285.176,274.186 283.722,276.921 282.34,276.6C282.05,276.533 281.878,276.069 281.783,275.679C272.255,287.157 255.236,291.848 240.282,284.491L231.187,279.966C220.244,274.563 208.105,274.008 196.23,276.348C195.025,277.161 193.798,277.932 192.339,278.258C190.422,278.687 188.436,278.819 186.442,278.919C183.497,279.881 180.596,280.994 177.762,282.225C175.153,283.36 172.49,284.328 169.789,285.128C168.009,286.132 165.903,286.62 163.93,287.038C162.096,287.427 160.194,287.526 158.266,287.502C153.268,288.096 148.221,288.147 143.214,287.654C139.727,288.229 136.216,288.99 132.78,288.346C129.599,287.749 127.287,285.241 124.289,284.148C121.431,283.107 117.976,283.387 115.34,281.781C113.751,280.814 112.656,279.365 111.307,278.198C97.14,274.002 82.138,273.454 68.887,279.967L59.795,284.491C38.526,294.955 13.088,281.046 10.953,257.902C7.189,251.964 10.466,244.435 10.836,237.826L10.836,235.606C10.54,230.578 8.345,225.775 8.448,220.682C8.538,216.27 10.082,212.069 10.276,207.669C10.455,203.601 9.36,199.554 9.836,195.485C10.054,193.622 10.442,191.819 10.836,190.023L10.836,88.825C10.836,86.141 11.139,83.523 11.713,81.001C12.424,77.88 17.313,82.075 16.925,85.373C16.792,86.508 16.724,87.659 16.724,88.825L16.724,103.196C17.529,106.221 18.633,109.172 18.895,112.31C19.439,118.848 16.87,125.144 16.932,131.648C16.961,134.733 18.055,137.698 18.17,140.783C18.36,145.848 17.057,150.931 17.066,156.02C17.073,160.29 18.466,164.392 18.631,168.673C18.821,173.62 17.696,178.878 17.11,183.797C16.978,184.909 16.846,186.044 16.724,187.194L16.724,201.306C17.533,203.812 18.936,206.144 19.132,208.81C19.339,211.624 17.837,214.381 17.7,217.189C17.527,220.722 18.509,224.203 18.302,227.725C18.118,230.86 17.349,233.969 16.724,237.056L16.724,254.705C16.724,254.705 16.724,255.999 16.725,256.018C17.598,275.923 39.213,288.077 57.182,279.241L66.274,274.716C84.58,265.716 105.958,268.724 124.672,276.856C124.672,276.856 124.672,276.856 124.673,276.856C130.413,279.353 136.435,280.964 142.54,281.687C144.398,280.81 146.246,279.858 148.244,279.88C151.259,279.914 154.528,281.327 157.717,281.666C159.449,281.455 161.175,281.174 162.889,280.82C162.969,280.777 163.049,280.733 163.129,280.686C165.401,279.36 167.322,277.477 170.012,276.945C171.486,276.653 173.289,277.089 174.892,277.076L175.405,276.856C176.206,276.508 177.012,276.169 177.823,275.84C178.623,274.774 179.014,273.252 180.323,272.693C181.374,272.244 182.654,272.857 183.279,273.802C199.954,268.114 218.022,266.925 233.807,274.718L242.895,279.241C252.103,283.769 262.271,282.785 270.114,278.07C271.385,276.101 273.762,275.047 275.738,273.631C276.749,272.596 277.681,271.479 278.521,270.287C279.165,268.349 278.685,266.268 279.42,264.251C280.281,261.888 282.116,260.221 283.189,258.053C283.268,257.38 283.323,256.695 283.353,256L283.353,248.728C282.462,245.365 280.996,242.039 280.269,238.862C279.414,235.125 278.265,230.775 278.858,226.921C279.376,223.554 281.155,220.365 282.505,217.27C282.775,216.651 283.063,216.014 283.353,215.362L283.353,195.64C282.825,193.552 282.609,191.436 283.314,189.337C283.327,189.299 283.34,189.26 283.353,189.222L283.353,106.89C283.04,104.899 282.765,102.905 282.795,100.851C282.828,98.541 282.907,96.217 283.218,93.926C283.261,93.614 283.306,93.303 283.353,92.994L283.353,88.825C283.353,86.533 283.089,84.298 282.59,82.15C281.679,80.142 280.513,78.239 279.857,76.101C279.675,75.506 279.582,74.904 279.536,74.298C274.382,65.144 264.542,58.889 253.339,58.851L209.682,58.851C202.633,59.644 195.626,60.705 188.508,61.336C182.791,61.842 177.124,61.152 171.445,60.699C167.831,60.042 171.48,52.332 177.792,52.992Z" style="fill:#80aecf;"/>
            </g>
        </g>
        <path d="M67.842,66.364C68.363,65.882 68.961,65.44 69.641,65.044C71.649,63.875 74.066,63.367 76.338,62.983C80.999,62.195 85.519,61.144 87.96,66.201C88.935,68.222 89.243,70.399 89.604,72.572L91.281,73.051L91.211,79.551C91.357,80.694 91.27,81.834 90.663,82.939C89.381,85.268 86.763,86.706 84.323,87.503C77.787,89.638 69.331,85.416 66.246,78.974C65.454,77.16 64.995,75.254 64.969,73.415L64.969,73.12L64.977,65.7L67.842,66.364ZM31.51,70.974L31.507,70.974L31.507,63.922L41.452,64.299L41.452,70.807C41.57,71.522 41.521,72.246 41.251,72.923C40.195,75.57 37.498,76.205 34.461,75.003C32.305,74.151 31.457,72.705 31.51,70.974ZM91.387,55.922L91.387,55.922L91.405,48.487L95.741,48.905L110.664,52.875L110.664,60.606L110.656,60.611C110.651,60.717 110.641,60.823 110.628,60.929C110.16,64.735 106.545,67.623 103.203,69.038C101.959,69.565 96.897,72.062 95.571,68.784C94.332,65.719 93.228,62.622 92.164,59.495C91.735,58.234 91.287,57.163 91.387,55.922Z" style="fill:#bb7a1f;"/>
        <path d="M66.246,71.561C64.026,66.477 64.423,60.668 69.641,57.631C71.649,56.463 74.066,55.955 76.338,55.57C80.999,54.783 85.519,53.732 87.96,58.788C89.37,61.71 89.386,64.96 90.181,68.048C90.808,70.485 92.003,73.089 90.663,75.526C89.381,77.856 86.763,79.294 84.323,80.091C77.787,82.225 69.331,78.004 66.246,71.561ZM34.461,67.591C32.04,66.633 31.268,64.929 31.569,62.911C31.981,60.149 34.305,58.022 37.168,58.657C39.812,59.243 42.346,62.762 41.251,65.51C40.195,68.157 37.498,68.792 34.461,67.591ZM95.571,61.371C94.332,58.306 93.228,55.21 92.164,52.082C91.623,50.492 91.052,49.204 91.588,47.494C92.244,45.404 93.872,44.556 95.853,43.869C99.404,42.639 105.412,43.047 107.864,46.286C109.275,48.15 110.928,51.082 110.628,53.516C110.16,57.322 106.545,60.21 103.203,61.625C101.959,62.152 96.897,64.65 95.571,61.371Z" style="fill:#e5a144;"/>
        <path d="M82.751,75.131C83.256,75.131 83.667,75.542 83.667,76.048C83.667,76.554 83.256,76.965 82.751,76.965C82.245,76.965 81.834,76.554 81.834,76.048C81.834,75.542 82.245,75.131 82.751,75.131ZM86.441,71.401C87.47,71.401 88.306,72.237 88.306,73.266C88.306,74.296 87.47,75.131 86.441,75.131C85.412,75.131 84.576,74.296 84.576,73.266C84.576,72.237 85.412,71.401 86.441,71.401ZM70.387,65.28C71.214,65.28 71.885,65.951 71.885,66.777C71.885,67.604 71.214,68.275 70.387,68.275C69.561,68.275 68.89,67.604 68.89,66.777C68.89,65.951 69.561,65.28 70.387,65.28ZM75.931,61.939C77.314,61.939 78.437,63.062 78.437,64.445C78.437,65.828 77.314,66.951 75.931,66.951C74.548,66.951 73.425,65.828 73.425,64.445C73.425,63.062 74.548,61.939 75.931,61.939ZM36.027,64.294C36.365,64.294 36.64,64.569 36.64,64.907C36.64,65.245 36.365,65.52 36.027,65.52C35.688,65.52 35.413,65.245 35.413,64.907C35.413,64.569 35.688,64.294 36.027,64.294ZM38.441,63.561C38.846,63.561 39.174,63.89 39.174,64.294C39.174,64.698 38.846,65.026 38.441,65.026C38.037,65.026 37.709,64.698 37.709,64.294C37.709,63.89 38.037,63.561 38.441,63.561ZM70.275,61.939C70.722,61.939 71.086,62.303 71.086,62.75C71.086,63.198 70.722,63.561 70.275,63.561C69.827,63.561 69.464,63.198 69.464,62.75C69.464,62.303 69.827,61.939 70.275,61.939ZM101.481,51.794C101.838,51.794 102.127,52.083 102.127,52.439C102.127,52.796 101.838,53.085 101.481,53.085C101.125,53.085 100.836,52.796 100.836,52.439C100.836,52.083 101.125,51.794 101.481,51.794ZM97.44,50.04C97.924,50.04 98.317,50.433 98.317,50.917C98.317,51.401 97.924,51.794 97.44,51.794C96.956,51.794 96.563,51.401 96.563,50.917C96.563,50.433 96.956,50.04 97.44,50.04ZM101.41,46.214C102.465,46.214 103.323,47.071 103.323,48.127C103.323,49.183 102.465,50.04 101.41,50.04C100.354,50.04 99.497,49.183 99.497,48.127C99.497,47.071 100.354,46.214 101.41,46.214Z" style="fill:#dc9637;"/>
        <path d="M87.261,82.404C87.213,82.78 87.166,83.155 87.124,83.531C87.094,83.806 87.292,84.053 87.566,84.083C87.841,84.113 88.088,83.915 88.118,83.641C88.159,83.271 88.205,82.902 88.253,82.532C88.288,82.259 88.095,82.008 87.821,81.972C87.547,81.937 87.296,82.131 87.261,82.404ZM89.054,78.955C88.928,80.201 88.758,81.443 88.672,82.692C88.653,82.968 88.862,83.206 89.137,83.225C89.412,83.244 89.651,83.036 89.67,82.761C89.755,81.522 89.924,80.291 90.049,79.056C90.077,78.781 89.877,78.536 89.602,78.508C89.328,78.48 89.082,78.68 89.054,78.955ZM68.896,77.471C68.87,78.613 68.843,79.755 68.817,80.898C68.81,81.173 69.029,81.403 69.305,81.409C69.581,81.415 69.81,81.197 69.817,80.921C69.843,79.779 69.87,78.636 69.896,77.494C69.903,77.218 69.684,76.989 69.408,76.983C69.132,76.976 68.903,77.195 68.896,77.471ZM67.325,75.783C67.321,76.745 67.285,77.701 67.245,78.662C67.233,78.938 67.448,79.171 67.723,79.183C67.999,79.194 68.232,78.98 68.244,78.704C68.285,77.731 68.32,76.762 68.325,75.788C68.326,75.512 68.103,75.287 67.827,75.285C67.551,75.284 67.326,75.507 67.325,75.783ZM37.909,69.62C37.859,70.785 37.735,71.944 37.632,73.105C37.608,73.38 37.812,73.623 38.087,73.647C38.361,73.671 38.604,73.468 38.629,73.193C38.732,72.017 38.857,70.843 38.908,69.663C38.92,69.387 38.706,69.154 38.43,69.142C38.154,69.13 37.921,69.344 37.909,69.62ZM39.028,71.653C39.017,71.895 39.008,72.136 38.989,72.377C38.968,72.652 39.174,72.893 39.449,72.915C39.724,72.936 39.965,72.73 39.986,72.455C40.006,72.203 40.016,71.95 40.027,71.697C40.039,71.421 39.825,71.187 39.549,71.175C39.273,71.163 39.04,71.377 39.028,71.653ZM32.467,69.489C32.467,69.807 32.467,70.125 32.467,70.444C32.468,70.72 32.693,70.943 32.969,70.942C33.245,70.942 33.468,70.717 33.467,70.441C33.467,70.124 33.467,69.806 33.467,69.489C33.467,69.213 33.242,68.989 32.967,68.989C32.691,68.989 32.467,69.213 32.467,69.489ZM96.897,64.145C96.785,65.42 96.713,66.699 96.62,67.976C96.6,68.251 96.807,68.491 97.082,68.511C97.357,68.531 97.597,68.324 97.617,68.049C97.71,66.777 97.782,65.503 97.894,64.232C97.918,63.957 97.714,63.714 97.439,63.69C97.164,63.666 96.921,63.87 96.897,64.145ZM98.106,66.778C98.083,67.009 98.062,67.241 98.042,67.472C98.018,67.747 98.222,67.99 98.497,68.013C98.772,68.037 99.014,67.833 99.038,67.558C99.058,67.33 99.079,67.102 99.101,66.874C99.127,66.6 98.926,66.355 98.651,66.328C98.377,66.302 98.132,66.503 98.106,66.778ZM102.977,66.638C102.968,66.757 102.96,66.876 102.947,66.995C102.916,67.269 103.114,67.516 103.389,67.547C103.663,67.578 103.91,67.38 103.941,67.106C103.956,66.974 103.965,66.842 103.974,66.709C103.994,66.434 103.787,66.194 103.511,66.175C103.236,66.155 102.997,66.363 102.977,66.638ZM108.8,59.13C108.706,60.354 108.554,61.577 108.351,62.789C108.305,63.061 108.489,63.319 108.761,63.364C109.033,63.41 109.291,63.226 109.337,62.954C109.545,61.714 109.7,60.461 109.797,59.207C109.818,58.932 109.612,58.691 109.337,58.67C109.062,58.649 108.821,58.855 108.8,59.13ZM106.652,60.944C106.572,61.528 106.487,62.113 106.38,62.692C106.329,62.964 106.509,63.225 106.78,63.275C107.052,63.326 107.313,63.146 107.363,62.875C107.473,62.28 107.56,61.68 107.642,61.08C107.68,60.807 107.489,60.554 107.215,60.517C106.942,60.479 106.689,60.671 106.652,60.944Z" style="fill:#a56b1b;"/>
    </g>
</svg>