<?xml version="1.0" encoding="UTF-8" standalone="no"?>
<!DOCTYPE svg PUBLIC "-//W3C//DTD SVG 1.1//EN" "http://www.w3.org/Graphics/SVG/1.1/DTD/svg11.dtd">
<svg width="100%" height="100%" viewBox="0 0 300 345" version="1.1" xmlns="http://www.w3.org/2000/svg" xmlns:xlink="http://www.w3.org/1999/xlink" xml:space="preserve" xmlns:serif="http://www.serif.com/" style="fill-rule:evenodd;clip-rule:evenodd;stroke-linejoin:round;stroke-miterlimit:2;">
    <g id="avatar_hat_18">
        <g transform="matrix(1.11607,0,0,1,-9.73012,0)">
            <path d="M277.518,85.327C187.918,62.399 98.318,62.486 8.718,85.327L8.718,111.8C98.318,102.896 187.918,102.861 277.518,111.8L277.518,85.327Z" style="fill:#fff;"/>
        </g>
        <path d="M115.21,69.094C110.157,69.363 105.098,69.691 100.038,70.078L100.038,105.855C105.093,105.705 110.151,105.577 115.21,105.472L115.21,69.094ZM175.239,68.645L175.239,105.296C180.294,105.372 185.352,105.47 190.411,105.592L190.411,69.402C185.351,69.09 180.295,68.838 175.239,68.645Z" style="fill:#2f353a;"/>
        <g transform="matrix(1,0,0,1,0.337744,-0.692324)">
            <path d="M156.192,81.622C156.192,78.383 153.562,75.753 150.324,75.753L138.587,75.753C135.348,75.753 132.719,78.383 132.719,81.622L132.719,93.358C132.719,96.597 135.348,99.226 138.587,99.226L150.324,99.226C153.562,99.226 156.192,96.597 156.192,93.358L156.192,81.622Z" style="fill:#2f353a;"/>
        </g>
        <path d="M0.791,86.907L3.91,86.494C1.671,86.999 1.471,88.315 3.794,88.819L6.871,89.44C8.266,89.772 8.753,90.481 7.375,91.355L2.94,94.431C2.489,94.724 2.308,95.094 2.787,95.538L4.239,97.002C4.763,97.568 4.642,97.933 4.34,98.609L3.855,99.614C3.202,100.615 3.234,101.38 4.546,101.702L7.707,102.429C9.048,102.759 9.482,103.206 8.37,104.059L3.86,107.983C2.902,108.976 2.899,109.548 4.213,109.437L1.284,110.225L0.791,86.907Z" style="fill:#c4c4c4;"/>
        <g transform="matrix(-1,0,0,1,300.011,0)">
            <path d="M0.791,86.907L3.91,86.494C1.671,86.999 1.471,88.315 3.794,88.819L6.871,89.44C8.266,89.772 8.753,90.481 7.375,91.355L2.94,94.431C2.489,94.724 2.308,95.094 2.787,95.538L4.239,97.002C4.763,97.568 4.642,97.933 4.34,98.609L3.855,99.614C3.202,100.615 3.234,101.38 4.546,101.702L7.707,102.429C9.048,102.759 9.482,103.206 8.37,104.059L3.86,107.983C2.902,108.976 2.899,109.548 4.213,109.437L1.284,110.225L0.791,86.907Z" style="fill:#c4c4c4;"/>
        </g>
        <g transform="matrix(1.11607,0,0,1,-9.73012,0)">
            <path d="M277.518,85.327C187.918,62.399 98.318,62.486 8.718,85.327L8.718,111.8C98.318,102.896 187.918,102.861 277.518,111.8L277.518,85.327ZM275.726,86.923L275.726,109.615C187.321,100.924 98.916,100.957 10.51,109.615C10.51,109.615 10.51,86.924 10.51,86.924C98.915,64.62 187.321,64.536 275.726,86.922L275.726,86.923Z" style="fill:#c4c4c4;"/>
        </g>
        <path d="M33.245,100.041C49.382,96.714 65.519,95.563 81.655,96.439L33.245,100.041Z" style="fill:#dadada;"/>
        <path d="M12.266,89.982C18.945,87.559 25.99,86.722 33.245,86.798L12.266,89.982Z" style="fill:#dadada;"/>
        <path d="M209.356,101.14C233.486,100.612 257.616,101.964 281.745,105.855L209.356,101.14Z" style="fill:#dadada;"/>
        <path d="M293.414,96.835C288.371,94.51 283.327,93.804 278.283,94.169L293.414,96.835Z" style="fill:#dadada;"/>
    </g>
</svg>
