<?xml version="1.0" encoding="UTF-8" standalone="no"?>
<!DOCTYPE svg PUBLIC "-//W3C//DTD SVG 1.1//EN" "http://www.w3.org/Graphics/SVG/1.1/DTD/svg11.dtd">
<svg width="100%" height="100%" viewBox="0 0 300 345" version="1.1" xmlns="http://www.w3.org/2000/svg" xmlns:xlink="http://www.w3.org/1999/xlink" xml:space="preserve" xmlns:serif="http://www.serif.com/" style="fill-rule:evenodd;clip-rule:evenodd;stroke-linejoin:round;stroke-miterlimit:2;">
    <g id="avatar_hat_14">
        <path d="M151.58,59.67C170.476,59.55 188.934,65.411 204.3,76.41C205.059,76.961 205.972,77.259 206.91,77.26C209.346,77.253 211.347,75.246 211.347,72.81C211.347,71.506 210.774,70.265 209.78,69.42C176.169,41.529 127.001,41.529 93.39,69.42C92.396,70.265 91.823,71.506 91.823,72.81C91.823,75.246 93.824,77.253 96.26,77.26C97.198,77.259 98.111,76.961 98.87,76.41C114.233,65.413 132.687,59.552 151.58,59.67Z" style="fill:#141319;fill-rule:nonzero;"/>
        <g transform="matrix(0.91915,0,0,0.91915,11.1047,2.42015)">
            <path d="M162.732,54.459C168.991,58.77 174.748,62.458 179.503,71.065C183.301,77.94 188.432,84.037 190.954,91.274C186.506,89.671 181.844,88.66 176.718,88.922C173.555,91.215 170.855,94.742 168.203,98.398C167.753,89.671 162.732,82.128 160.125,74.269C159.035,67.806 163.259,65.307 162.732,62.881L161.252,60.963L162.732,54.459Z" style="fill:url(#_Linear1);"/>
        </g>
        <g transform="matrix(-0.91915,0,0,0.91915,288.895,2.42015)">
            <path d="M162.732,54.459C168.991,58.77 174.748,62.458 179.503,71.065C183.301,77.94 188.432,84.037 190.954,91.274C186.506,89.671 181.844,88.66 176.718,88.922C173.555,91.215 170.855,94.742 168.203,98.398C167.753,89.671 162.732,82.128 160.125,74.269C159.035,67.806 163.259,65.307 162.732,62.881L161.252,60.963L162.732,54.459Z" style="fill:url(#_Linear2);"/>
        </g>
        <g transform="matrix(-0.812696,0,0,0.812696,270.218,10.5563)">
            <path d="M168.589,96.749C168.514,96.897 168.367,97.003 168.19,97.018C167.92,97.041 167.681,96.839 167.659,96.569C167.632,96.246 167.598,95.926 167.559,95.609C167.526,95.339 167.717,95.094 167.987,95.06C168.257,95.027 168.503,95.218 168.536,95.488C168.555,95.644 168.573,95.8 168.59,95.957C168.96,95.457 169.329,94.97 169.698,94.495C169.865,94.28 170.174,94.242 170.389,94.408C170.603,94.575 170.642,94.885 170.475,95.099C170.082,95.605 169.689,96.125 169.294,96.659C169.132,96.878 168.824,96.924 168.606,96.762L168.589,96.749ZM167.248,93.703C167.12,93.066 166.969,92.439 166.8,91.821C166.728,91.559 166.882,91.288 167.144,91.217C167.406,91.145 167.677,91.299 167.749,91.561C167.924,92.2 168.08,92.849 168.213,93.509C168.267,93.775 168.094,94.035 167.828,94.088C167.562,94.142 167.302,93.97 167.248,93.703ZM172.332,92.841C172.119,93.083 171.908,93.329 171.699,93.58C171.524,93.788 171.214,93.815 171.005,93.641C170.797,93.467 170.77,93.156 170.944,92.948C171.159,92.691 171.374,92.439 171.592,92.191C171.771,91.987 172.082,91.967 172.286,92.146C172.49,92.325 172.511,92.636 172.332,92.841ZM175.052,90.086C174.572,90.509 174.106,90.954 173.65,91.417C173.46,91.611 173.148,91.613 172.954,91.423C172.761,91.233 172.758,90.921 172.948,90.727C173.421,90.247 173.903,89.787 174.401,89.347C174.605,89.168 174.916,89.187 175.096,89.391C175.275,89.594 175.256,89.906 175.052,90.086ZM189.287,90.262C189.199,90.028 189.3,89.762 189.528,89.648C189.771,89.527 190.067,89.626 190.188,89.869C190.282,90.059 190.376,90.249 190.469,90.44C190.557,90.62 190.527,90.836 190.393,90.985C190.259,91.134 190.048,91.187 189.86,91.119C189.75,91.079 189.64,91.04 189.53,91.001C189.274,90.91 189.14,90.628 189.231,90.372C189.245,90.332 189.264,90.295 189.287,90.262ZM187.68,90.374C187.056,90.174 186.435,89.989 185.814,89.821C185.552,89.75 185.397,89.48 185.468,89.217C185.539,88.955 185.809,88.8 186.071,88.871C186.707,89.043 187.341,89.232 187.98,89.436C188.239,89.519 188.382,89.796 188.299,90.055C188.216,90.314 187.939,90.457 187.68,90.374ZM166.231,89.967C166.127,89.66 166.019,89.354 165.907,89.05C165.814,88.795 165.945,88.512 166.2,88.419C166.455,88.325 166.738,88.457 166.832,88.712C166.946,89.023 167.057,89.336 167.163,89.652C167.25,89.909 167.112,90.189 166.855,90.276C166.597,90.363 166.318,90.224 166.231,89.967ZM183.928,89.367C183.613,89.3 183.296,89.239 182.977,89.183C182.71,89.136 182.531,88.88 182.578,88.613C182.625,88.345 182.881,88.166 183.148,88.213C183.477,88.272 183.804,88.335 184.13,88.403C184.396,88.459 184.567,88.72 184.511,88.986C184.455,89.252 184.194,89.422 183.928,89.367ZM177.196,88.768C177.019,88.774 176.84,88.78 176.659,88.789C176.621,88.816 176.584,88.843 176.548,88.87C176.33,89.032 176.022,88.987 175.859,88.769C175.697,88.551 175.742,88.243 175.96,88.08C176.039,88.022 176.118,87.964 176.198,87.906C176.275,87.85 176.366,87.818 176.462,87.813C176.699,87.801 176.935,87.791 177.167,87.784C177.439,87.776 177.666,87.99 177.674,88.262C177.682,88.533 177.468,88.76 177.196,88.768ZM181.062,88.912C180.432,88.845 179.791,88.799 179.132,88.774C178.861,88.765 178.648,88.536 178.658,88.265C178.668,87.993 178.897,87.781 179.168,87.791C179.85,87.816 180.514,87.864 181.166,87.933C181.436,87.962 181.632,88.204 181.603,88.475C181.574,88.745 181.332,88.941 181.062,88.912ZM188.334,86.369C188.654,86.941 188.971,87.52 189.282,88.107C189.409,88.347 189.318,88.646 189.078,88.773C188.838,88.9 188.54,88.809 188.412,88.569C188.104,87.988 187.792,87.416 187.475,86.85C187.343,86.613 187.427,86.313 187.664,86.18C187.902,86.047 188.202,86.132 188.334,86.369ZM165.198,87.236C164.948,86.634 164.689,86.036 164.423,85.441C164.312,85.193 164.423,84.902 164.671,84.791C164.919,84.68 165.21,84.791 165.321,85.039C165.591,85.643 165.854,86.249 166.107,86.86C166.211,87.111 166.092,87.399 165.841,87.503C165.59,87.606 165.301,87.487 165.198,87.236ZM186.85,83.801C187.018,84.084 187.185,84.368 187.352,84.653C187.489,84.887 187.41,85.189 187.175,85.326C186.941,85.463 186.639,85.384 186.502,85.149C186.337,84.867 186.171,84.585 186.004,84.305C185.865,84.071 185.942,83.769 186.175,83.63C186.409,83.491 186.711,83.568 186.85,83.801ZM163.606,83.658C163.468,83.361 163.329,83.064 163.19,82.768C163.074,82.522 163.18,82.228 163.426,82.113C163.672,81.998 163.966,82.104 164.081,82.35C164.221,82.647 164.36,82.945 164.499,83.242C164.613,83.489 164.507,83.782 164.26,83.896C164.014,84.011 163.721,83.904 163.606,83.658ZM184.794,80.432C185.141,80.99 185.486,81.549 185.829,82.111C185.971,82.343 185.898,82.646 185.666,82.787C185.434,82.929 185.131,82.856 184.99,82.624C184.648,82.065 184.303,81.508 183.958,80.951C183.815,80.721 183.886,80.417 184.116,80.274C184.347,80.13 184.651,80.201 184.794,80.432ZM162.354,80.983C162.077,80.386 161.803,79.787 161.535,79.184C161.424,78.936 161.536,78.645 161.785,78.534C162.033,78.424 162.324,78.536 162.434,78.784C162.7,79.382 162.972,79.976 163.247,80.568C163.362,80.815 163.254,81.108 163.008,81.222C162.762,81.336 162.469,81.229 162.354,80.983ZM183.232,77.925C183.406,78.204 183.579,78.482 183.753,78.76C183.897,78.991 183.826,79.295 183.596,79.438C183.365,79.582 183.061,79.512 182.918,79.281C182.744,79.003 182.57,78.725 182.397,78.445C182.253,78.215 182.324,77.911 182.554,77.768C182.785,77.624 183.089,77.695 183.232,77.925ZM160.754,77.361C160.628,77.055 160.505,76.748 160.385,76.438C160.287,76.185 160.413,75.9 160.666,75.801C160.919,75.703 161.204,75.829 161.303,76.082C161.421,76.386 161.541,76.687 161.665,76.988C161.768,77.239 161.647,77.527 161.396,77.63C161.145,77.733 160.857,77.613 160.754,77.361ZM181.176,74.576C181.515,75.14 181.856,75.699 182.197,76.254C182.339,76.485 182.267,76.789 182.036,76.931C181.804,77.073 181.501,77.001 181.359,76.769C181.016,76.212 180.673,75.65 180.332,75.083C180.193,74.851 180.268,74.548 180.501,74.408C180.734,74.268 181.036,74.343 181.176,74.576ZM159.706,74.567L159.64,74.351C159.528,73.685 159.47,73.059 159.456,72.471C159.449,72.199 159.665,71.973 159.936,71.967C160.208,71.961 160.434,72.176 160.44,72.447C160.452,72.979 160.504,73.544 160.603,74.144C160.616,74.184 160.627,74.219 160.639,74.253C160.725,74.511 160.587,74.79 160.329,74.876C160.072,74.963 159.792,74.824 159.706,74.567ZM179.688,72.039C179.85,72.324 180.013,72.607 180.177,72.888C180.313,73.123 180.234,73.424 179.999,73.561C179.764,73.698 179.463,73.618 179.326,73.383C179.161,73.099 178.996,72.814 178.832,72.527C178.698,72.291 178.78,71.99 179.016,71.855C179.252,71.721 179.553,71.803 179.688,72.039ZM177.717,68.612C178.054,69.16 178.39,69.73 178.725,70.323C178.859,70.56 178.776,70.86 178.539,70.994C178.303,71.128 178.002,71.044 177.869,70.808C177.539,70.225 177.209,69.666 176.878,69.127C176.736,68.896 176.808,68.593 177.04,68.45C177.271,68.308 177.574,68.38 177.717,68.612ZM159.591,70.42C159.646,70.069 159.717,69.733 159.8,69.411C159.868,69.148 160.136,68.989 160.399,69.057C160.662,69.125 160.821,69.393 160.753,69.656C160.678,69.949 160.614,70.255 160.563,70.574C160.52,70.843 160.268,71.026 159.999,70.983C159.731,70.941 159.548,70.688 159.591,70.42ZM160.479,67.479C160.77,66.82 161.088,66.229 161.378,65.687C161.507,65.448 161.805,65.358 162.045,65.486C162.284,65.614 162.374,65.913 162.246,66.152C161.966,66.674 161.66,67.242 161.379,67.877C161.269,68.126 160.978,68.238 160.73,68.129C160.481,68.019 160.369,67.728 160.479,67.479ZM176.075,66.12C176.264,66.387 176.452,66.66 176.64,66.939C176.792,67.164 176.733,67.47 176.507,67.622C176.282,67.774 175.976,67.714 175.824,67.489C175.64,67.216 175.456,66.949 175.271,66.688C175.114,66.466 175.167,66.159 175.389,66.002C175.611,65.845 175.918,65.898 176.075,66.12ZM173.618,62.983C174.044,63.473 174.467,63.985 174.886,64.521C175.053,64.735 175.016,65.045 174.802,65.212C174.588,65.379 174.278,65.341 174.111,65.128C173.702,64.605 173.29,64.107 172.875,63.628C172.696,63.423 172.718,63.112 172.923,62.934C173.128,62.756 173.439,62.777 173.618,62.983ZM162.17,63.992C162.254,63.72 162.3,63.459 162.282,63.201C162.263,62.93 162.468,62.695 162.739,62.676C163.01,62.657 163.245,62.862 163.264,63.133C163.29,63.508 163.233,63.888 163.111,64.282C163.031,64.542 162.755,64.687 162.495,64.607C162.236,64.527 162.09,64.251 162.17,63.992ZM171.567,60.804C171.803,61.036 172.037,61.272 172.27,61.512C172.459,61.708 172.453,62.019 172.258,62.208C172.063,62.397 171.751,62.392 171.562,62.196C171.335,61.962 171.107,61.732 170.878,61.507C170.684,61.316 170.681,61.005 170.871,60.811C171.062,60.617 171.374,60.614 171.567,60.804ZM161.783,60.846L162.096,61.251C162.262,61.466 162.222,61.775 162.007,61.941C161.792,62.107 161.483,62.067 161.317,61.852C161.088,61.557 160.868,61.272 160.868,61.272L160.919,61.296C160.809,61.202 160.726,61.057 160.775,60.84C160.795,60.754 160.899,60.296 161.044,59.659C161.104,59.394 161.368,59.228 161.633,59.288C161.898,59.349 162.064,59.613 162.004,59.878L161.783,60.846ZM168.595,58.155C169.108,58.574 169.613,59.002 170.111,59.444C170.314,59.625 170.332,59.936 170.152,60.139C169.971,60.342 169.66,60.36 169.457,60.18C168.97,59.747 168.476,59.328 167.973,58.919C167.762,58.747 167.731,58.437 167.902,58.226C168.074,58.016 168.384,57.984 168.595,58.155ZM161.481,57.739C161.554,57.417 161.628,57.093 161.699,56.78C161.76,56.515 162.024,56.349 162.288,56.409C162.553,56.469 162.719,56.733 162.659,56.998C162.588,57.311 162.514,57.636 162.441,57.958C162.38,58.223 162.116,58.389 161.851,58.329C161.587,58.268 161.421,58.004 161.481,57.739ZM166.238,56.337C166.505,56.533 166.77,56.731 167.032,56.93C167.249,57.094 167.291,57.403 167.127,57.619C166.963,57.836 166.654,57.878 166.438,57.714C166.179,57.518 165.918,57.323 165.654,57.129C165.436,56.968 165.389,56.66 165.55,56.441C165.711,56.222 166.019,56.176 166.238,56.337ZM163.017,55.254C162.906,55.411 162.707,55.495 162.507,55.449C162.242,55.389 162.076,55.125 162.136,54.86C162.201,54.573 162.243,54.389 162.251,54.355L162.252,54.352C162.265,54.292 162.29,54.233 162.327,54.179C162.481,53.956 162.788,53.899 163.012,54.053C163.562,54.433 164.102,54.807 164.632,55.181C164.854,55.338 164.907,55.645 164.75,55.867C164.594,56.089 164.286,56.142 164.064,55.985C163.72,55.742 163.371,55.499 163.017,55.254Z" style="fill:#ff62a3;"/>
        </g>
        <g transform="matrix(0.812696,0,0,0.812696,29.6049,10.5563)">
            <path d="M168.589,96.749C168.514,96.897 168.367,97.003 168.19,97.018C167.92,97.041 167.681,96.839 167.659,96.569C167.632,96.246 167.598,95.926 167.559,95.609C167.526,95.339 167.717,95.094 167.987,95.06C168.257,95.027 168.503,95.218 168.536,95.488C168.555,95.644 168.573,95.8 168.59,95.957C168.96,95.457 169.329,94.97 169.698,94.495C169.865,94.28 170.174,94.242 170.389,94.408C170.603,94.575 170.642,94.885 170.475,95.099C170.082,95.605 169.689,96.125 169.294,96.659C169.132,96.878 168.824,96.924 168.606,96.762L168.589,96.749ZM167.248,93.703C167.12,93.066 166.969,92.439 166.8,91.821C166.728,91.559 166.882,91.288 167.144,91.217C167.406,91.145 167.677,91.299 167.749,91.561C167.924,92.2 168.08,92.849 168.213,93.509C168.267,93.775 168.094,94.035 167.828,94.088C167.562,94.142 167.302,93.97 167.248,93.703ZM172.332,92.841C172.119,93.083 171.908,93.329 171.699,93.58C171.524,93.788 171.214,93.815 171.005,93.641C170.797,93.467 170.77,93.156 170.944,92.948C171.159,92.691 171.374,92.439 171.592,92.191C171.771,91.987 172.082,91.967 172.286,92.146C172.49,92.325 172.511,92.636 172.332,92.841ZM175.052,90.086C174.572,90.509 174.106,90.954 173.65,91.417C173.46,91.611 173.148,91.613 172.954,91.423C172.761,91.233 172.758,90.921 172.948,90.727C173.421,90.247 173.903,89.787 174.401,89.347C174.605,89.168 174.916,89.187 175.096,89.391C175.275,89.594 175.256,89.906 175.052,90.086ZM189.287,90.262C189.199,90.028 189.3,89.762 189.528,89.648C189.771,89.527 190.067,89.626 190.188,89.869C190.282,90.059 190.376,90.249 190.469,90.44C190.557,90.62 190.527,90.836 190.393,90.985C190.259,91.134 190.048,91.187 189.86,91.119C189.75,91.079 189.64,91.04 189.53,91.001C189.274,90.91 189.14,90.628 189.231,90.372C189.245,90.332 189.264,90.295 189.287,90.262ZM187.68,90.374C187.056,90.174 186.435,89.989 185.814,89.821C185.552,89.75 185.397,89.48 185.468,89.217C185.539,88.955 185.809,88.8 186.071,88.871C186.707,89.043 187.341,89.232 187.98,89.436C188.239,89.519 188.382,89.796 188.299,90.055C188.216,90.314 187.939,90.457 187.68,90.374ZM166.231,89.967C166.127,89.66 166.019,89.354 165.907,89.05C165.814,88.795 165.945,88.512 166.2,88.419C166.455,88.325 166.738,88.457 166.832,88.712C166.946,89.023 167.057,89.336 167.163,89.652C167.25,89.909 167.112,90.189 166.855,90.276C166.597,90.363 166.318,90.224 166.231,89.967ZM183.928,89.367C183.613,89.3 183.296,89.239 182.977,89.183C182.71,89.136 182.531,88.88 182.578,88.613C182.625,88.345 182.881,88.166 183.148,88.213C183.477,88.272 183.804,88.335 184.13,88.403C184.396,88.459 184.567,88.72 184.511,88.986C184.455,89.252 184.194,89.422 183.928,89.367ZM177.196,88.768C177.019,88.774 176.84,88.78 176.659,88.789C176.621,88.816 176.584,88.843 176.548,88.87C176.33,89.032 176.022,88.987 175.859,88.769C175.697,88.551 175.742,88.243 175.96,88.08C176.039,88.022 176.118,87.964 176.198,87.906C176.275,87.85 176.366,87.818 176.462,87.813C176.699,87.801 176.935,87.791 177.167,87.784C177.439,87.776 177.666,87.99 177.674,88.262C177.682,88.533 177.468,88.76 177.196,88.768ZM181.062,88.912C180.432,88.845 179.791,88.799 179.132,88.774C178.861,88.765 178.648,88.536 178.658,88.265C178.668,87.993 178.897,87.781 179.168,87.791C179.85,87.816 180.514,87.864 181.166,87.933C181.436,87.962 181.632,88.204 181.603,88.475C181.574,88.745 181.332,88.941 181.062,88.912ZM188.334,86.369C188.654,86.941 188.971,87.52 189.282,88.107C189.409,88.347 189.318,88.646 189.078,88.773C188.838,88.9 188.54,88.809 188.412,88.569C188.104,87.988 187.792,87.416 187.475,86.85C187.343,86.613 187.427,86.313 187.664,86.18C187.902,86.047 188.202,86.132 188.334,86.369ZM165.198,87.236C164.948,86.634 164.689,86.036 164.423,85.441C164.312,85.193 164.423,84.902 164.671,84.791C164.919,84.68 165.21,84.791 165.321,85.039C165.591,85.643 165.854,86.249 166.107,86.86C166.211,87.111 166.092,87.399 165.841,87.503C165.59,87.606 165.301,87.487 165.198,87.236ZM186.85,83.801C187.018,84.084 187.185,84.368 187.352,84.653C187.489,84.887 187.41,85.189 187.175,85.326C186.941,85.463 186.639,85.384 186.502,85.149C186.337,84.867 186.171,84.585 186.004,84.305C185.865,84.071 185.942,83.769 186.175,83.63C186.409,83.491 186.711,83.568 186.85,83.801ZM163.606,83.658C163.468,83.361 163.329,83.064 163.19,82.768C163.074,82.522 163.18,82.228 163.426,82.113C163.672,81.998 163.966,82.104 164.081,82.35C164.221,82.647 164.36,82.945 164.499,83.242C164.613,83.489 164.507,83.782 164.26,83.896C164.014,84.011 163.721,83.904 163.606,83.658ZM184.794,80.432C185.141,80.99 185.486,81.549 185.829,82.111C185.971,82.343 185.898,82.646 185.666,82.787C185.434,82.929 185.131,82.856 184.99,82.624C184.648,82.065 184.303,81.508 183.958,80.951C183.815,80.721 183.886,80.417 184.116,80.274C184.347,80.13 184.651,80.201 184.794,80.432ZM162.354,80.983C162.077,80.386 161.803,79.787 161.535,79.184C161.424,78.936 161.536,78.645 161.785,78.534C162.033,78.424 162.324,78.536 162.434,78.784C162.7,79.382 162.972,79.976 163.247,80.568C163.362,80.815 163.254,81.108 163.008,81.222C162.762,81.336 162.469,81.229 162.354,80.983ZM183.232,77.925C183.406,78.204 183.579,78.482 183.753,78.76C183.897,78.991 183.826,79.295 183.596,79.438C183.365,79.582 183.061,79.512 182.918,79.281C182.744,79.003 182.57,78.725 182.397,78.445C182.253,78.215 182.324,77.911 182.554,77.768C182.785,77.624 183.089,77.695 183.232,77.925ZM160.754,77.361C160.628,77.055 160.505,76.748 160.385,76.438C160.287,76.185 160.413,75.9 160.666,75.801C160.919,75.703 161.204,75.829 161.303,76.082C161.421,76.386 161.541,76.687 161.665,76.988C161.768,77.239 161.647,77.527 161.396,77.63C161.145,77.733 160.857,77.613 160.754,77.361ZM181.176,74.576C181.515,75.14 181.856,75.699 182.197,76.254C182.339,76.485 182.267,76.789 182.036,76.931C181.804,77.073 181.501,77.001 181.359,76.769C181.016,76.212 180.673,75.65 180.332,75.083C180.193,74.851 180.268,74.548 180.501,74.408C180.734,74.268 181.036,74.343 181.176,74.576ZM159.706,74.567L159.64,74.351C159.528,73.685 159.47,73.059 159.456,72.471C159.449,72.199 159.665,71.973 159.936,71.967C160.208,71.961 160.434,72.176 160.44,72.447C160.452,72.979 160.504,73.544 160.603,74.144C160.616,74.184 160.627,74.219 160.639,74.253C160.725,74.511 160.587,74.79 160.329,74.876C160.072,74.963 159.792,74.824 159.706,74.567ZM179.688,72.039C179.85,72.324 180.013,72.607 180.177,72.888C180.313,73.123 180.234,73.424 179.999,73.561C179.764,73.698 179.463,73.618 179.326,73.383C179.161,73.099 178.996,72.814 178.832,72.527C178.698,72.291 178.78,71.99 179.016,71.855C179.252,71.721 179.553,71.803 179.688,72.039ZM177.717,68.612C178.054,69.16 178.39,69.73 178.725,70.323C178.859,70.56 178.776,70.86 178.539,70.994C178.303,71.128 178.002,71.044 177.869,70.808C177.539,70.225 177.209,69.666 176.878,69.127C176.736,68.896 176.808,68.593 177.04,68.45C177.271,68.308 177.574,68.38 177.717,68.612ZM159.591,70.42C159.646,70.069 159.717,69.733 159.8,69.411C159.868,69.148 160.136,68.989 160.399,69.057C160.662,69.125 160.821,69.393 160.753,69.656C160.678,69.949 160.614,70.255 160.563,70.574C160.52,70.843 160.268,71.026 159.999,70.983C159.731,70.941 159.548,70.688 159.591,70.42ZM160.479,67.479C160.77,66.82 161.088,66.229 161.378,65.687C161.507,65.448 161.805,65.358 162.045,65.486C162.284,65.614 162.374,65.913 162.246,66.152C161.966,66.674 161.66,67.242 161.379,67.877C161.269,68.126 160.978,68.238 160.73,68.129C160.481,68.019 160.369,67.728 160.479,67.479ZM176.075,66.12C176.264,66.387 176.452,66.66 176.64,66.939C176.792,67.164 176.733,67.47 176.507,67.622C176.282,67.774 175.976,67.714 175.824,67.489C175.64,67.216 175.456,66.949 175.271,66.688C175.114,66.466 175.167,66.159 175.389,66.002C175.611,65.845 175.918,65.898 176.075,66.12ZM173.618,62.983C174.044,63.473 174.467,63.985 174.886,64.521C175.053,64.735 175.016,65.045 174.802,65.212C174.588,65.379 174.278,65.341 174.111,65.128C173.702,64.605 173.29,64.107 172.875,63.628C172.696,63.423 172.718,63.112 172.923,62.934C173.128,62.756 173.439,62.777 173.618,62.983ZM162.17,63.992C162.254,63.72 162.3,63.459 162.282,63.201C162.263,62.93 162.468,62.695 162.739,62.676C163.01,62.657 163.245,62.862 163.264,63.133C163.29,63.508 163.233,63.888 163.111,64.282C163.031,64.542 162.755,64.687 162.495,64.607C162.236,64.527 162.09,64.251 162.17,63.992ZM171.567,60.804C171.803,61.036 172.037,61.272 172.27,61.512C172.459,61.708 172.453,62.019 172.258,62.208C172.063,62.397 171.751,62.392 171.562,62.196C171.335,61.962 171.107,61.732 170.878,61.507C170.684,61.316 170.681,61.005 170.871,60.811C171.062,60.617 171.374,60.614 171.567,60.804ZM161.783,60.846L162.096,61.251C162.262,61.466 162.222,61.775 162.007,61.941C161.792,62.107 161.483,62.067 161.317,61.852C161.088,61.557 160.868,61.272 160.868,61.272L160.919,61.296C160.809,61.202 160.726,61.057 160.775,60.84C160.795,60.754 160.899,60.296 161.044,59.659C161.104,59.394 161.368,59.228 161.633,59.288C161.898,59.349 162.064,59.613 162.004,59.878L161.783,60.846ZM168.595,58.155C169.108,58.574 169.613,59.002 170.111,59.444C170.314,59.625 170.332,59.936 170.152,60.139C169.971,60.342 169.66,60.36 169.457,60.18C168.97,59.747 168.476,59.328 167.973,58.919C167.762,58.747 167.731,58.437 167.902,58.226C168.074,58.016 168.384,57.984 168.595,58.155ZM161.481,57.739C161.554,57.417 161.628,57.093 161.699,56.78C161.76,56.515 162.024,56.349 162.288,56.409C162.553,56.469 162.719,56.733 162.659,56.998C162.588,57.311 162.514,57.636 162.441,57.958C162.38,58.223 162.116,58.389 161.851,58.329C161.587,58.268 161.421,58.004 161.481,57.739ZM166.238,56.337C166.505,56.533 166.77,56.731 167.032,56.93C167.249,57.094 167.291,57.403 167.127,57.619C166.963,57.836 166.654,57.878 166.438,57.714C166.179,57.518 165.918,57.323 165.654,57.129C165.436,56.968 165.389,56.66 165.55,56.441C165.711,56.222 166.019,56.176 166.238,56.337ZM163.017,55.254C162.906,55.411 162.707,55.495 162.507,55.449C162.242,55.389 162.076,55.125 162.136,54.86C162.201,54.573 162.243,54.389 162.251,54.355L162.252,54.352C162.265,54.292 162.29,54.233 162.327,54.179C162.481,53.956 162.788,53.899 163.012,54.053C163.562,54.433 164.102,54.807 164.632,55.181C164.854,55.338 164.907,55.645 164.75,55.867C164.594,56.089 164.286,56.142 164.064,55.985C163.72,55.742 163.371,55.499 163.017,55.254Z" style="fill:#ff62a3;"/>
        </g>
        <g transform="matrix(0.91915,0,0,0.91915,11.9261,4.03976)">
            <path d="M162.732,48.495C164.265,43.708 166.892,40.641 170.798,39.582L189.726,33.686C195.168,32.068 197.677,34.084 198.88,37.72L194.942,65.307C194.204,70.464 190.947,73.535 185.443,71.771C176.99,68.151 172.689,68.852 166.037,63.58C163.867,61.86 163.577,60.353 162.732,58.045L160.125,57.673L160.125,49.221L162.732,48.495Z" style="fill:url(#_Linear3);"/>
        </g>
        <g transform="matrix(-0.91915,0,0,0.91915,288.074,4.03976)">
            <path d="M162.732,48.495C164.265,43.708 166.892,40.641 170.798,39.582L189.726,33.686C195.168,32.068 197.677,34.084 198.88,37.72L194.942,65.307C194.204,70.464 190.947,73.535 185.443,71.771C176.99,68.151 172.689,68.852 166.037,63.58C163.867,61.86 163.577,60.353 162.732,58.045L160.125,57.673L160.125,49.221L162.732,48.495Z" style="fill:url(#_Linear4);"/>
        </g>
        <path d="M184.561,69.18C185.161,69.197 185.723,69.14 186.25,69.019C186.465,68.969 186.6,68.755 186.551,68.54C186.502,68.324 186.287,68.19 186.072,68.239C185.607,68.345 185.112,68.395 184.584,68.38C184.363,68.374 184.179,68.548 184.173,68.769C184.166,68.989 184.34,69.173 184.561,69.18ZM182.098,68.743C182.372,68.828 182.639,68.901 182.9,68.96C183.115,69.009 183.33,68.875 183.379,68.659C183.428,68.444 183.293,68.229 183.078,68.18C182.837,68.125 182.589,68.058 182.336,67.979C182.125,67.914 181.9,68.032 181.835,68.243C181.769,68.453 181.887,68.678 182.098,68.743ZM187.843,68.417C188.091,68.283 188.331,68.134 188.563,67.969C188.743,67.842 188.786,67.592 188.659,67.412C188.531,67.231 188.281,67.189 188.101,67.316C187.895,67.462 187.683,67.594 187.463,67.713C187.269,67.818 187.196,68.061 187.301,68.255C187.406,68.449 187.649,68.522 187.843,68.417ZM179.057,67.717C179.632,67.912 180.148,68.086 180.572,68.23C180.781,68.301 181.008,68.189 181.079,67.98C181.15,67.771 181.038,67.543 180.829,67.472C180.405,67.329 179.888,67.154 179.313,66.959C179.104,66.888 178.877,67 178.806,67.209C178.735,67.419 178.847,67.646 179.057,67.717ZM176.783,66.946C177.039,67.033 177.293,67.119 177.541,67.203C177.75,67.274 177.978,67.162 178.048,66.953C178.119,66.744 178.007,66.516 177.798,66.445C177.549,66.361 177.296,66.275 177.04,66.189C176.831,66.118 176.604,66.23 176.533,66.439C176.462,66.648 176.574,66.876 176.783,66.946ZM173.753,65.919C174.245,66.086 174.755,66.259 175.268,66.433C175.477,66.504 175.704,66.392 175.775,66.182C175.846,65.973 175.734,65.746 175.525,65.675C175.012,65.502 174.502,65.329 174.009,65.162C173.8,65.091 173.573,65.203 173.502,65.412C173.431,65.621 173.544,65.849 173.753,65.919ZM171.48,65.149C171.718,65.23 171.972,65.316 172.237,65.406C172.446,65.477 172.674,65.365 172.745,65.156C172.815,64.946 172.703,64.719 172.494,64.648C172.229,64.558 171.975,64.472 171.736,64.392C171.527,64.321 171.3,64.433 171.229,64.642C171.158,64.851 171.271,65.078 171.48,65.149ZM168.435,64.06C168.745,64.196 169.065,64.324 169.397,64.443L169.532,64.467C169.532,64.467 169.409,64.448 169.409,64.448C169.409,64.448 169.644,64.527 169.964,64.636C170.173,64.707 170.401,64.594 170.472,64.385C170.542,64.176 170.43,63.949 170.221,63.878L169.665,63.69C169.352,63.577 169.05,63.456 168.757,63.328C168.555,63.238 168.319,63.33 168.23,63.532C168.141,63.734 168.233,63.97 168.435,64.06ZM166.274,62.865C166.499,63.018 166.731,63.165 166.97,63.307C167.159,63.42 167.405,63.357 167.518,63.167C167.63,62.977 167.567,62.731 167.378,62.619C167.153,62.486 166.935,62.347 166.723,62.203C166.541,62.079 166.292,62.126 166.168,62.309C166.044,62.492 166.091,62.741 166.274,62.865ZM163.801,60.696C164.167,61.103 164.555,61.49 164.971,61.855C165.136,62 165.389,61.984 165.535,61.818C165.681,61.653 165.665,61.4 165.499,61.254C165.107,60.91 164.741,60.545 164.396,60.161C164.249,59.997 163.995,59.984 163.831,60.131C163.667,60.279 163.654,60.532 163.801,60.696ZM162.306,58.746C162.456,58.974 162.611,59.199 162.771,59.419C162.901,59.598 163.151,59.638 163.33,59.508C163.508,59.378 163.548,59.128 163.418,58.949C163.266,58.739 163.118,58.524 162.974,58.306C162.853,58.122 162.605,58.07 162.42,58.192C162.236,58.313 162.185,58.561 162.306,58.746ZM160.734,55.896C160.965,56.39 161.209,56.874 161.467,57.346C161.573,57.54 161.816,57.611 162.01,57.505C162.204,57.399 162.275,57.155 162.169,56.962C161.918,56.505 161.682,56.036 161.458,55.557C161.365,55.357 161.127,55.27 160.927,55.364C160.727,55.457 160.64,55.696 160.734,55.896Z" style="fill:#ff62a3;"/>
        <g transform="matrix(-1,0,0,1,299.686,0)">
            <path d="M184.561,69.18C185.161,69.197 185.723,69.14 186.25,69.019C186.465,68.969 186.6,68.755 186.551,68.54C186.502,68.324 186.287,68.19 186.072,68.239C185.607,68.345 185.112,68.395 184.584,68.38C184.363,68.374 184.179,68.548 184.173,68.769C184.166,68.989 184.34,69.173 184.561,69.18ZM182.098,68.743C182.372,68.828 182.639,68.901 182.9,68.96C183.115,69.009 183.33,68.875 183.379,68.659C183.428,68.444 183.293,68.229 183.078,68.18C182.837,68.125 182.589,68.058 182.336,67.979C182.125,67.914 181.9,68.032 181.835,68.243C181.769,68.453 181.887,68.678 182.098,68.743ZM187.843,68.417C188.091,68.283 188.331,68.134 188.563,67.969C188.743,67.842 188.786,67.592 188.659,67.412C188.531,67.231 188.281,67.189 188.101,67.316C187.895,67.462 187.683,67.594 187.463,67.713C187.269,67.818 187.196,68.061 187.301,68.255C187.406,68.449 187.649,68.522 187.843,68.417ZM179.057,67.717C179.632,67.912 180.148,68.086 180.572,68.23C180.781,68.301 181.008,68.189 181.079,67.98C181.15,67.771 181.038,67.543 180.829,67.472C180.405,67.329 179.888,67.154 179.313,66.959C179.104,66.888 178.877,67 178.806,67.209C178.735,67.419 178.847,67.646 179.057,67.717ZM176.783,66.946C177.039,67.033 177.293,67.119 177.541,67.203C177.75,67.274 177.978,67.162 178.048,66.953C178.119,66.744 178.007,66.516 177.798,66.445C177.549,66.361 177.296,66.275 177.04,66.189C176.831,66.118 176.604,66.23 176.533,66.439C176.462,66.648 176.574,66.876 176.783,66.946ZM173.753,65.919C174.245,66.086 174.755,66.259 175.268,66.433C175.477,66.504 175.704,66.392 175.775,66.182C175.846,65.973 175.734,65.746 175.525,65.675C175.012,65.502 174.502,65.329 174.009,65.162C173.8,65.091 173.573,65.203 173.502,65.412C173.431,65.621 173.544,65.849 173.753,65.919ZM171.48,65.149C171.718,65.23 171.972,65.316 172.237,65.406C172.446,65.477 172.674,65.365 172.745,65.156C172.815,64.946 172.703,64.719 172.494,64.648C172.229,64.558 171.975,64.472 171.736,64.392C171.527,64.321 171.3,64.433 171.229,64.642C171.158,64.851 171.271,65.078 171.48,65.149ZM168.435,64.06C168.745,64.196 169.065,64.324 169.397,64.443L169.532,64.467C169.532,64.467 169.409,64.448 169.409,64.448C169.409,64.448 169.644,64.527 169.964,64.636C170.173,64.707 170.401,64.594 170.472,64.385C170.542,64.176 170.43,63.949 170.221,63.878L169.665,63.69C169.352,63.577 169.05,63.456 168.757,63.328C168.555,63.238 168.319,63.33 168.23,63.532C168.141,63.734 168.233,63.97 168.435,64.06ZM166.274,62.865C166.499,63.018 166.731,63.165 166.97,63.307C167.159,63.42 167.405,63.357 167.518,63.167C167.63,62.977 167.567,62.731 167.378,62.619C167.153,62.486 166.935,62.347 166.723,62.203C166.541,62.079 166.292,62.126 166.168,62.309C166.044,62.492 166.091,62.741 166.274,62.865ZM163.801,60.696C164.167,61.103 164.555,61.49 164.971,61.855C165.136,62 165.389,61.984 165.535,61.818C165.681,61.653 165.665,61.4 165.499,61.254C165.107,60.91 164.741,60.545 164.396,60.161C164.249,59.997 163.995,59.984 163.831,60.131C163.667,60.279 163.654,60.532 163.801,60.696ZM162.306,58.746C162.456,58.974 162.611,59.199 162.771,59.419C162.901,59.598 163.151,59.638 163.33,59.508C163.508,59.378 163.548,59.128 163.418,58.949C163.266,58.739 163.118,58.524 162.974,58.306C162.853,58.122 162.605,58.07 162.42,58.192C162.236,58.313 162.185,58.561 162.306,58.746ZM160.734,55.896C160.965,56.39 161.209,56.874 161.467,57.346C161.573,57.54 161.816,57.611 162.01,57.505C162.204,57.399 162.275,57.155 162.169,56.962C161.918,56.505 161.682,56.036 161.458,55.557C161.365,55.357 161.127,55.27 160.927,55.364C160.727,55.457 160.64,55.696 160.734,55.896Z" style="fill:#ff62a3;"/>
        </g>
        <path d="M160.416,53.823C160.959,55.046 161.347,55.859 162.034,56.57C162.72,57.281 163.705,57.89 165.441,58.702L160.416,53.823ZM160.946,53.447C163.573,55.601 168.275,52.899 175.591,52.476L160.839,52.476L160.946,53.447ZM159.955,51.306C161.631,51.581 163.188,51.393 164.633,50.764C166.077,50.135 167.408,49.066 168.632,47.578L159.955,51.306Z" style="fill:#ff62a3;"/>
        <g transform="matrix(-1,0,0,1,299.883,0)">
            <path d="M160.416,53.823C160.959,55.046 161.347,55.859 162.034,56.57C162.72,57.281 163.705,57.89 165.441,58.702L160.416,53.823ZM160.946,53.447C163.573,55.601 168.275,52.899 175.591,52.476L160.839,52.476L160.946,53.447ZM159.955,51.306C161.631,51.581 163.188,51.393 164.633,50.764C166.077,50.135 167.408,49.066 168.632,47.578L159.955,51.306Z" style="fill:#ff62a3;"/>
        </g>
        <path d="M163.655,46.515C167.506,42.425 180.951,41.175 191.604,36.15C190.758,35.501 189.596,35.341 187.938,35.802L168.927,41.713C166.21,42.896 164.525,44.528 163.655,46.515Z" style="fill:#ff62a3;"/>
        <g transform="matrix(-1,0,0,1,299.91,0)">
            <path d="M163.655,46.515C167.506,42.425 180.951,41.175 191.604,36.15C190.758,35.501 189.596,35.341 187.938,35.802L168.927,41.713C166.21,42.896 164.525,44.528 163.655,46.515Z" style="fill:#ff62a3;"/>
        </g>
        <g transform="matrix(0.951783,0,0,0.810975,7.46572,9.97696)">
            <path d="M161.839,47.643C161.839,44.587 159.725,42.106 157.121,42.106L141.966,42.106C139.362,42.106 137.248,44.587 137.248,47.643L137.248,61.16C137.248,64.216 139.362,66.697 141.966,66.697L157.121,66.697C159.725,66.697 161.839,64.216 161.839,61.16L161.839,47.643Z" style="fill:#ff96c2;"/>
        </g>
        <path d="M157.011,64.067L142.586,64.067C140.108,64.067 138.096,62.055 138.096,59.576L138.214,59.563C148.264,58.376 154.097,52.778 157.011,44.124L157.069,44.124C159.501,44.155 161.471,46.124 161.501,48.557L161.501,48.614C161.015,53.868 159.863,59.026 157.077,63.951L157.011,64.067Z" style="fill:#ff80b5;"/>
    </g>
    <defs>
        <linearGradient id="_Linear1" x1="0" y1="0" x2="1" y2="0" gradientUnits="userSpaceOnUse" gradientTransform="matrix(12.6237,29.4912,-29.2991,12.5415,164.222,60.3665)"><stop offset="0" style="stop-color:#ff6fab;stop-opacity:1"/><stop offset="0.42" style="stop-color:#ff7bb2;stop-opacity:1"/><stop offset="1" style="stop-color:#ff96c2;stop-opacity:1"/></linearGradient>
        <linearGradient id="_Linear2" x1="0" y1="0" x2="1" y2="0" gradientUnits="userSpaceOnUse" gradientTransform="matrix(12.6237,29.4912,-29.2991,12.5415,164.222,60.3665)"><stop offset="0" style="stop-color:#ff6fab;stop-opacity:1"/><stop offset="0.42" style="stop-color:#ff7bb2;stop-opacity:1"/><stop offset="1" style="stop-color:#ff96c2;stop-opacity:1"/></linearGradient>
        <linearGradient id="_Linear3" x1="0" y1="0" x2="1" y2="0" gradientUnits="userSpaceOnUse" gradientTransform="matrix(38.7551,0,0,39.1505,160.125,52.6964)"><stop offset="0" style="stop-color:#ff6fab;stop-opacity:1"/><stop offset="0.19" style="stop-color:#ff7fb5;stop-opacity:1"/><stop offset="0.4" style="stop-color:#ff8fbe;stop-opacity:1"/><stop offset="1" style="stop-color:#ff96c2;stop-opacity:1"/></linearGradient>
        <linearGradient id="_Linear4" x1="0" y1="0" x2="1" y2="0" gradientUnits="userSpaceOnUse" gradientTransform="matrix(38.7551,0,0,39.1505,160.125,52.6964)"><stop offset="0" style="stop-color:#ff6fab;stop-opacity:1"/><stop offset="0.19" style="stop-color:#ff7fb5;stop-opacity:1"/><stop offset="0.4" style="stop-color:#ff8fbe;stop-opacity:1"/><stop offset="1" style="stop-color:#ff96c2;stop-opacity:1"/></linearGradient>
    </defs>
</svg>
