<?xml version="1.0" encoding="UTF-8" standalone="no"?>
<!DOCTYPE svg PUBLIC "-//W3C//DTD SVG 1.1//EN" "http://www.w3.org/Graphics/SVG/1.1/DTD/svg11.dtd">
<svg width="100%" height="100%" viewBox="0 0 300 345" version="1.1" xmlns="http://www.w3.org/2000/svg" xmlns:xlink="http://www.w3.org/1999/xlink" xml:space="preserve" xmlns:serif="http://www.serif.com/" style="fill-rule:evenodd;clip-rule:evenodd;stroke-linejoin:round;stroke-miterlimit:2;">
    <g id="avatar_hat_35" transform="matrix(1,0,0,1,0,-25.9251)">
        <g>
            <g transform="matrix(1.11856,0,0,0.612994,0,59.9722)">
                <rect x="0" y="87.976" width="268.201" height="26.782" style="fill:#2a2a2a;"/>
            </g>
            <g transform="matrix(1,0,0,1,0,25.9251)">
                <rect x="0" y="104.393" width="300" height="2" style="fill:#090500;"/>
            </g>
        </g>
        <g>
            <path id="base_body_1" d="M0,123.239L0,81.38C0,61.301 16.301,45 36.38,45L263.62,45C283.699,45 300,61.301 300,81.38L300,123.239L0,123.239Z" style="fill:url(#_Linear1);"/>
            <g transform="matrix(1,0,0,1,0,25.9251)">
                <path d="M19.829,58.194C16.473,58.195 14.464,59.853 14.497,64.024L14.497,73.462L0,84.349L300,84.349L300,73.462L286.85,73.462L286.85,64.709C287.024,60.424 285.231,58.309 281.625,58.194L281.625,22.155L268.501,22.155L268.501,73.462L251.201,73.462L251.201,18.672L238.076,18.672L238.076,58.194C234.861,58.604 232.855,60.542 232.735,64.861L232.735,73.462L214.362,73.462L214.362,18.672L201.238,18.672L201.238,73.462L99.943,73.462L99.943,18.672L86.818,18.672L86.818,73.462L69.739,73.462L69.739,63.745C69.897,59.728 68.388,57.911 65.288,58.194L65.288,18.344L52.163,18.344L52.163,73.462L32.954,73.462L32.954,21.207L19.829,21.207L19.829,58.194Z" style="fill:#d1b600;fill-opacity:0.5;"/>
            </g>
            <path d="M-2,123.239C-2,124.343 -1.105,125.239 -0,125.239L300,125.239C301.105,125.239 302,124.343 302,123.239L302,81.38C302,60.198 284.802,43 263.62,43C263.62,43 36.38,43 36.38,43C15.198,43 -2,60.198 -2,81.38L-2,123.239ZM0,123.239L0,81.38C0,61.301 16.301,45 36.38,45L263.62,45C283.699,45 300,61.301 300,81.38L300,123.239L0,123.239Z" style="fill:#c6892b;"/>
        </g>
        <g>
            <g transform="matrix(0.823789,0,0,1.20748,48.3498,23.0434)">
                <path d="M277.831,17.939C277.831,16.1 275.643,14.608 272.948,14.608L240.395,14.608C237.7,14.608 235.512,16.1 235.512,17.939L235.512,63.476C235.512,65.314 237.7,66.807 240.395,66.807L272.948,66.807C275.643,66.807 277.831,65.314 277.831,63.476L277.831,17.939Z" style="fill:#ffe535;"/>
            </g>
            <g transform="matrix(0.823789,0,0,1.20748,48.3498,23.0434)">
                <path d="M280.259,17.939C280.259,15.186 276.983,12.951 272.948,12.951C272.948,12.951 240.395,12.951 240.395,12.951C236.36,12.951 233.084,15.186 233.084,17.939L233.084,63.476C233.084,66.229 236.36,68.464 240.395,68.464C240.395,68.464 272.948,68.464 272.948,68.464C276.983,68.464 280.259,66.229 280.259,63.476L280.259,17.939ZM277.831,17.939C277.831,16.1 275.643,14.608 272.948,14.608L240.395,14.608C237.7,14.608 235.512,16.1 235.512,17.939L235.512,63.476C235.512,65.314 237.7,66.807 240.395,66.807L272.948,66.807C275.643,66.807 277.831,65.314 277.831,63.476L277.831,17.939Z" style="fill:#c6892b;"/>
            </g>
        </g>
        <g>
            <g transform="matrix(0.823789,0,0,1.20748,-169.027,23.0434)">
                <path d="M277.831,17.939C277.831,16.1 275.643,14.608 272.948,14.608L240.395,14.608C237.7,14.608 235.512,16.1 235.512,17.939L235.512,63.476C235.512,65.314 237.7,66.807 240.395,66.807L272.948,66.807C275.643,66.807 277.831,65.314 277.831,63.476L277.831,17.939Z" style="fill:#ffe535;"/>
            </g>
            <g transform="matrix(0.823789,0,0,1.20748,-169.027,23.0434)">
                <path d="M280.259,17.939C280.259,15.186 276.983,12.951 272.948,12.951C272.948,12.951 240.395,12.951 240.395,12.951C236.36,12.951 233.084,15.186 233.084,17.939L233.084,63.476C233.084,66.229 236.36,68.464 240.395,68.464C240.395,68.464 272.948,68.464 272.948,68.464C276.983,68.464 280.259,66.229 280.259,63.476L280.259,17.939ZM277.831,17.939C277.831,16.1 275.643,14.608 272.948,14.608L240.395,14.608C237.7,14.608 235.512,16.1 235.512,17.939L235.512,63.476C235.512,65.314 237.7,66.807 240.395,66.807L272.948,66.807C275.643,66.807 277.831,65.314 277.831,63.476L277.831,17.939Z" style="fill:#c6892b;"/>
            </g>
        </g>
        <g>
            <path d="M93.863,104.563L207.97,104.563L207.97,46.908C207.97,39.457 201.921,33.408 194.47,33.408L107.363,33.408C99.912,33.408 93.863,39.457 93.863,46.908L93.863,104.563Z" style="fill:#ffde00;"/>
            <path d="M91.863,46.908L91.863,106.563L209.97,106.563L209.97,46.908C209.97,38.353 203.025,31.408 194.47,31.408C194.47,31.408 107.363,31.408 107.363,31.408C98.808,31.408 91.863,38.353 91.863,46.908ZM93.863,104.563L207.97,104.563L207.97,46.908C207.97,39.457 201.921,33.408 194.47,33.408L107.363,33.408C99.912,33.408 93.863,39.457 93.863,46.908L93.863,104.563Z" style="fill:#c6892b;"/>
        </g>
        <g>
            <g transform="matrix(0.633359,0,0,0.65349,164.881,68.2995)">
                <path d="M184.923,36.637C184.923,33.807 182.552,31.51 179.632,31.51L120.076,31.51C117.157,31.51 114.786,33.807 114.786,36.637L114.786,67.958C114.786,70.788 117.157,73.086 120.076,73.086L179.632,73.086C182.552,73.086 184.923,70.788 184.923,67.958L184.923,36.637Z" style="fill:#e2c606;"/>
            </g>
            <g transform="matrix(0.633359,0,0,0.65349,164.881,68.2995)">
                <path d="M188.08,36.637C188.08,32.118 184.295,28.449 179.632,28.449C179.632,28.449 120.076,28.449 120.076,28.449C115.414,28.449 111.628,32.118 111.628,36.637C111.628,36.637 111.628,67.958 111.628,67.958C111.628,72.477 115.414,76.146 120.076,76.146L179.632,76.146C184.295,76.146 188.08,72.477 188.08,67.958C188.08,67.958 188.08,36.637 188.08,36.637ZM184.923,36.637C184.923,33.807 182.552,31.51 179.632,31.51L120.076,31.51C117.157,31.51 114.786,33.807 114.786,36.637L114.786,67.958C114.786,70.788 117.157,73.086 120.076,73.086L179.632,73.086C182.552,73.086 184.923,70.788 184.923,67.958L184.923,36.637Z" style="fill:#c6892b;"/>
            </g>
        </g>
        <g>
            <g transform="matrix(0.633359,0,0,0.65349,-52.8716,68.2995)">
                <path d="M184.923,36.637C184.923,33.807 182.552,31.51 179.632,31.51L120.076,31.51C117.157,31.51 114.786,33.807 114.786,36.637L114.786,67.958C114.786,70.788 117.157,73.086 120.076,73.086L179.632,73.086C182.552,73.086 184.923,70.788 184.923,67.958L184.923,36.637Z" style="fill:#e2c606;"/>
            </g>
            <g transform="matrix(0.633359,0,0,0.65349,-52.8716,68.2995)">
                <path d="M188.08,36.637C188.08,32.118 184.295,28.449 179.632,28.449C179.632,28.449 120.076,28.449 120.076,28.449C115.414,28.449 111.628,32.118 111.628,36.637C111.628,36.637 111.628,67.958 111.628,67.958C111.628,72.477 115.414,76.146 120.076,76.146L179.632,76.146C184.295,76.146 188.08,72.477 188.08,67.958L188.08,36.637ZM184.923,36.637C184.923,33.807 182.552,31.51 179.632,31.51L120.076,31.51C117.157,31.51 114.786,33.807 114.786,36.637L114.786,67.958C114.786,70.788 117.157,73.086 120.076,73.086L179.632,73.086C182.552,73.086 184.923,70.788 184.923,67.958L184.923,36.637Z" style="fill:#c6892b;"/>
            </g>
        </g>
        <g>
            <g transform="matrix(1.39429,0,0,8.56545,-51.9547,0.296532)">
                <path d="M131.767,4.019C131.767,3.598 129.668,3.256 127.084,3.256L117.718,3.256C115.133,3.256 113.035,3.598 113.035,4.019L113.035,10.369C113.035,10.789 115.133,11.131 117.718,11.131L127.084,11.131C129.668,11.131 131.767,10.789 131.767,10.369L131.767,4.019Z" style="fill:#ffe535;"/>
            </g>
            <g transform="matrix(1.39429,0,0,8.56545,-51.9547,0.296532)">
                <path d="M133.201,4.019C133.201,3.469 130.46,3.023 127.084,3.023L117.718,3.023C114.341,3.023 111.6,3.469 111.6,4.019C111.6,4.019 111.6,10.369 111.6,10.369C111.6,10.918 114.341,11.365 117.718,11.365C117.718,11.365 127.084,11.365 127.084,11.365C130.46,11.365 133.201,10.918 133.201,10.369L133.201,4.019ZM131.767,4.019C131.767,3.598 129.668,3.256 127.084,3.256L117.718,3.256C115.133,3.256 113.035,3.598 113.035,4.019L113.035,10.369C113.035,10.789 115.133,11.131 117.718,11.131L127.084,11.131C129.668,11.131 131.767,10.789 131.767,10.369L131.767,4.019Z" style="fill:#c6892b;"/>
            </g>
        </g>
        <g>
            <g transform="matrix(1.39429,0,0,8.56545,12.5957,0.296532)">
                <path d="M131.767,4.019C131.767,3.598 129.668,3.256 127.084,3.256L117.718,3.256C115.133,3.256 113.035,3.598 113.035,4.019L113.035,10.369C113.035,10.789 115.133,11.131 117.718,11.131L127.084,11.131C129.668,11.131 131.767,10.789 131.767,10.369L131.767,4.019Z" style="fill:#ffe535;"/>
            </g>
            <g transform="matrix(1.39429,0,0,8.56545,12.5957,0.296532)">
                <path d="M133.201,4.019C133.201,3.469 130.46,3.023 127.084,3.023L117.718,3.023C114.341,3.023 111.6,3.469 111.6,4.019C111.6,4.019 111.6,10.369 111.6,10.369C111.6,10.918 114.341,11.365 117.718,11.365C117.718,11.365 127.084,11.365 127.084,11.365C130.46,11.365 133.201,10.918 133.201,10.369L133.201,4.019ZM131.767,4.019C131.767,3.598 129.668,3.256 127.084,3.256L117.718,3.256C115.133,3.256 113.035,3.598 113.035,4.019L113.035,10.369C113.035,10.789 115.133,11.131 117.718,11.131L127.084,11.131C129.668,11.131 131.767,10.789 131.767,10.369L131.767,4.019Z" style="fill:#c6892b;"/>
            </g>
        </g>
        <g>
            <path d="M105.578,88.582L105.578,113.901L196.187,113.901L196.187,88.582C196.187,69.441 175.903,53.925 150.882,53.925C125.862,53.925 105.578,69.441 105.578,88.582Z" style="fill:#f4d712;"/>
            <path d="M103.578,88.582C103.578,88.582 103.578,115.901 103.578,115.901L198.187,115.901L198.187,88.582L196.187,90.582L198.187,88.582C198.187,68.5 177.134,51.925 150.882,51.925C124.631,51.925 103.578,68.5 103.578,88.582ZM105.578,88.582L105.578,113.901L196.187,113.901L196.187,88.582C196.187,69.441 175.903,53.925 150.882,53.925C125.862,53.925 105.578,69.441 105.578,88.582Z" style="fill:#c6892b;"/>
            <path d="M188.953,69.787C191.918,73.295 194.077,77.238 195.23,81.464L172.226,109.757L156.455,109.757L188.953,69.787ZM150.973,53.925L105.578,109.757L145.9,109.757L182.994,64.135C174.811,57.844 163.488,53.943 150.973,53.925Z" style="fill:#fff08a;fill-opacity:0.5;"/>
        </g>
        <g>
            <path d="M19.897,112.281C107.955,151.792 192.992,151.792 281.05,112.281L271.829,104.563L29.741,104.563L19.897,112.281Z" style="fill:#e2c606;"/>
            <path d="M184.622,139.866C176.313,140.862 168.011,141.495 159.717,141.764L208.47,113.901L230.053,113.901L184.622,139.866ZM137.648,141.625L186.157,113.901L136.155,113.901L96.187,136.743C110.03,139.375 123.842,141.002 137.648,141.625Z" style="fill:#fff08a;fill-opacity:0.5;"/>
            <path d="M19.28,111.494C19.004,111.711 18.862,112.055 18.904,112.403C18.947,112.75 19.168,113.05 19.487,113.194C107.822,152.828 193.125,152.828 281.46,113.194C281.774,113.053 281.993,112.76 282.041,112.419C282.088,112.077 281.956,111.736 281.692,111.515L272.471,103.796C272.291,103.645 272.064,103.563 271.829,103.563L29.741,103.563C29.518,103.563 29.3,103.638 29.124,103.776L19.28,111.494ZM21.82,112.044L30.087,105.563C30.087,105.563 271.466,105.563 271.466,105.563C271.466,105.563 279.181,112.021 279.181,112.021C192.423,150.531 108.577,150.539 21.82,112.044L21.82,112.044Z" style="fill:#c6892b;"/>
        </g>
        <g>
            <g transform="matrix(1,0,0,0.819367,0,22.2609)">
                <rect x="0" y="100.446" width="300" height="22.793" style="fill:#f0e718;"/>
            </g>
            <g transform="matrix(1,0,0,0.819367,0,22.2609)">
                <path d="M302,125.68L302,98.005L-2,98.005L-2,125.68L302,125.68ZM300,100.446L0,100.446L0,123.239L300,123.239L300,100.446Z" style="fill:#c6892b;"/>
            </g>
            <path d="M148.486,123.239L74.691,123.239L98.695,104.563L172.49,104.563L148.486,123.239ZM215.625,123.239L184.701,123.239L208.705,104.563L239.629,104.563L215.625,123.239Z" style="fill:#fff08a;fill-opacity:0.5;"/>
        </g>
        <g transform="matrix(1,0,0,1,1.3296,0)">
            <g transform="matrix(1,0,0,1,3.0825,3.0825)">
                <path d="M267.314,55.521C267.314,54.64 266.599,53.925 265.718,53.925L245.044,53.925C244.163,53.925 243.447,54.64 243.447,55.521L243.447,58.713C243.447,59.594 244.163,60.309 245.044,60.309L265.718,60.309C266.599,60.309 267.314,59.594 267.314,58.713L267.314,55.521Z" style="fill:#726600;"/>
            </g>
            <g transform="matrix(1,0,0,1,3.0825,18.38)">
                <path d="M267.314,55.521C267.314,54.64 266.599,53.925 265.718,53.925L245.044,53.925C244.163,53.925 243.447,54.64 243.447,55.521L243.447,58.713C243.447,59.594 244.163,60.309 245.044,60.309L265.718,60.309C266.599,60.309 267.314,59.594 267.314,58.713L267.314,55.521Z" style="fill:#726600;"/>
            </g>
            <g transform="matrix(1,0,0,1,3.0825,3.0825)">
                <path d="M267.314,57.829C267.314,56.949 266.599,56.233 265.718,56.233L245.044,56.233C244.163,56.233 243.447,56.949 243.447,57.829L243.447,58.713C243.447,59.594 244.163,60.309 245.044,60.309L265.718,60.309C266.599,60.309 267.314,59.594 267.314,58.713L267.314,57.829Z" style="fill:#453e00;"/>
            </g>
            <g transform="matrix(1,0,0,1,3.0825,18.38)">
                <path d="M267.314,57.829C267.314,56.949 266.599,56.233 265.718,56.233L245.044,56.233C244.163,56.233 243.447,56.949 243.447,57.829L243.447,58.713C243.447,59.594 244.163,60.309 245.044,60.309L265.718,60.309C266.599,60.309 267.314,59.594 267.314,58.713L267.314,57.829Z" style="fill:#453e00;"/>
            </g>
            <g transform="matrix(1,0,0,1,3.0825,3.0825)">
                <path d="M269.314,55.521C269.314,53.536 267.702,51.925 265.718,51.925C265.718,51.925 245.044,51.925 245.044,51.925C243.059,51.925 241.447,53.536 241.447,55.521L241.447,58.713C241.447,60.698 243.059,62.309 245.044,62.309C245.044,62.309 265.718,62.309 265.718,62.309C267.702,62.309 269.314,60.698 269.314,58.713C269.314,58.713 269.314,55.521 269.314,55.521ZM267.314,55.521C267.314,54.64 266.599,53.925 265.718,53.925L245.044,53.925C244.163,53.925 243.447,54.64 243.447,55.521L243.447,58.713C243.447,59.594 244.163,60.309 245.044,60.309L265.718,60.309C266.599,60.309 267.314,59.594 267.314,58.713L267.314,55.521Z" style="fill:#c6892b;"/>
            </g>
            <g transform="matrix(1,0,0,1,3.0825,18.38)">
                <path d="M269.314,55.521C269.314,53.536 267.702,51.925 265.718,51.925C265.718,51.925 245.044,51.925 245.044,51.925C243.059,51.925 241.447,53.536 241.447,55.521L241.447,58.713C241.447,60.698 243.059,62.309 245.044,62.309C245.044,62.309 265.718,62.309 265.718,62.309C267.702,62.309 269.314,60.698 269.314,58.713C269.314,58.713 269.314,55.521 269.314,55.521ZM267.314,55.521C267.314,54.64 266.599,53.925 265.718,53.925L245.044,53.925C244.163,53.925 243.447,54.64 243.447,55.521L243.447,58.713C243.447,59.594 244.163,60.309 245.044,60.309L265.718,60.309C266.599,60.309 267.314,59.594 267.314,58.713L267.314,55.521Z" style="fill:#c6892b;"/>
            </g>
        </g>
        <g transform="matrix(1,0,0,1,-216.047,0)">
            <g transform="matrix(1,0,0,1,3.0825,3.0825)">
                <path d="M267.314,55.521C267.314,54.64 266.599,53.925 265.718,53.925L245.044,53.925C244.163,53.925 243.447,54.64 243.447,55.521L243.447,58.713C243.447,59.594 244.163,60.309 245.044,60.309L265.718,60.309C266.599,60.309 267.314,59.594 267.314,58.713L267.314,55.521Z" style="fill:#726600;"/>
            </g>
            <g transform="matrix(1,0,0,1,3.0825,18.38)">
                <path d="M267.314,55.521C267.314,54.64 266.599,53.925 265.718,53.925L245.044,53.925C244.163,53.925 243.447,54.64 243.447,55.521L243.447,58.713C243.447,59.594 244.163,60.309 245.044,60.309L265.718,60.309C266.599,60.309 267.314,59.594 267.314,58.713L267.314,55.521Z" style="fill:#726600;"/>
            </g>
            <g transform="matrix(1,0,0,1,3.0825,3.0825)">
                <path d="M267.314,57.829C267.314,56.949 266.599,56.233 265.718,56.233L245.044,56.233C244.163,56.233 243.447,56.949 243.447,57.829L243.447,58.713C243.447,59.594 244.163,60.309 245.044,60.309L265.718,60.309C266.599,60.309 267.314,59.594 267.314,58.713L267.314,57.829Z" style="fill:#453e00;"/>
            </g>
            <g transform="matrix(1,0,0,1,3.0825,18.38)">
                <path d="M267.314,57.829C267.314,56.949 266.599,56.233 265.718,56.233L245.044,56.233C244.163,56.233 243.447,56.949 243.447,57.829L243.447,58.713C243.447,59.594 244.163,60.309 245.044,60.309L265.718,60.309C266.599,60.309 267.314,59.594 267.314,58.713L267.314,57.829Z" style="fill:#453e00;"/>
            </g>
            <g transform="matrix(1,0,0,1,3.0825,3.0825)">
                <path d="M269.314,55.521C269.314,53.536 267.702,51.925 265.718,51.925C265.718,51.925 245.044,51.925 245.044,51.925C243.059,51.925 241.447,53.536 241.447,55.521L241.447,58.713C241.447,60.698 243.059,62.309 245.044,62.309C245.044,62.309 265.718,62.309 265.718,62.309C267.702,62.309 269.314,60.698 269.314,58.713C269.314,58.713 269.314,55.521 269.314,55.521ZM267.314,55.521C267.314,54.64 266.599,53.925 265.718,53.925L245.044,53.925C244.163,53.925 243.447,54.64 243.447,55.521L243.447,58.713C243.447,59.594 244.163,60.309 245.044,60.309L265.718,60.309C266.599,60.309 267.314,59.594 267.314,58.713L267.314,55.521Z" style="fill:#c6892b;"/>
            </g>
            <g transform="matrix(1,0,0,1,3.0825,18.38)">
                <path d="M269.314,55.521C269.314,53.536 267.702,51.925 265.718,51.925C265.718,51.925 245.044,51.925 245.044,51.925C243.059,51.925 241.447,53.536 241.447,55.521L241.447,58.713C241.447,60.698 243.059,62.309 245.044,62.309C245.044,62.309 265.718,62.309 265.718,62.309C267.702,62.309 269.314,60.698 269.314,58.713C269.314,58.713 269.314,55.521 269.314,55.521ZM267.314,55.521C267.314,54.64 266.599,53.925 265.718,53.925L245.044,53.925C244.163,53.925 243.447,54.64 243.447,55.521L243.447,58.713C243.447,59.594 244.163,60.309 245.044,60.309L265.718,60.309C266.599,60.309 267.314,59.594 267.314,58.713L267.314,55.521Z" style="fill:#c6892b;"/>
            </g>
        </g>
        <g>
            <g transform="matrix(1,0,0,0.920156,-13.721,25.557)">
                <path d="M193.735,9.161C193.735,7.05 192.158,5.336 190.216,5.336C188.273,5.336 186.696,7.05 186.696,9.161L186.696,22.987C186.696,25.099 188.273,26.813 190.216,26.813C192.158,26.813 193.735,25.099 193.735,22.987L193.735,9.161Z" style="fill:#f7f086;"/>
            </g>
            <g transform="matrix(2.70088,0,0,0.372956,-477.62,40.2288)">
                <path d="M193.735,16.074C193.735,10.148 193.071,5.336 192.252,5.336L188.179,5.336C187.36,5.336 186.696,10.148 186.696,16.074C186.696,22.001 187.36,26.813 188.179,26.813L192.252,26.813C193.071,26.813 193.735,22.001 193.735,16.074Z" style="fill:#f7f086;"/>
            </g>
            <g transform="matrix(2.22664,0,0,0.372956,-171.585,40.2288)">
                <path d="M193.735,16.074C193.735,10.148 192.929,5.336 191.937,5.336L188.494,5.336C187.502,5.336 186.696,10.148 186.696,16.074C186.696,22.001 187.502,26.813 188.494,26.813L191.937,26.813C192.929,26.813 193.735,22.001 193.735,16.074Z" style="fill:#f7f086;"/>
            </g>
            <g transform="matrix(1,0,0,1.26738,-78.2457,23.7041)">
                <path d="M193.735,8.113C193.735,6.581 192.158,5.336 190.216,5.336C188.273,5.336 186.696,6.581 186.696,8.113L186.696,24.035C186.696,25.568 188.273,26.813 190.216,26.813C192.158,26.813 193.735,25.568 193.735,24.035L193.735,8.113Z" style="fill:#f7f086;"/>
            </g>
            <g transform="matrix(6.12323e-17,-1,1.26738,7.76045e-17,14.8909,284.49)">
                <path d="M193.735,8.113C193.735,6.581 192.158,5.336 190.216,5.336C188.273,5.336 186.696,6.581 186.696,8.113L186.696,24.035C186.696,25.568 188.273,26.813 190.216,26.813C192.158,26.813 193.735,25.568 193.735,24.035L193.735,8.113Z" style="fill:#ffe533;"/>
            </g>
            <g transform="matrix(6.12323e-17,-1,0.82319,5.04058e-17,235.361,284.49)">
                <path d="M193.735,9.612C193.735,7.252 192.158,5.336 190.216,5.336C188.273,5.336 186.696,7.252 186.696,9.612L186.696,22.537C186.696,24.897 188.273,26.813 190.216,26.813C192.158,26.813 193.735,24.897 193.735,22.537L193.735,9.612Z" style="fill:#ffe533;"/>
            </g>
        </g>
    </g>
    <defs>
        <linearGradient id="_Linear1" x1="0" y1="0" x2="1" y2="0" gradientUnits="userSpaceOnUse" gradientTransform="matrix(5.50055e-15,89.8308,-23.4275,1.43452e-15,150,33.4079)"><stop offset="0" style="stop-color:#f0e718;stop-opacity:1"/><stop offset="0.44" style="stop-color:#f3da13;stop-opacity:1"/><stop offset="1" style="stop-color:#f4d712;stop-opacity:1"/></linearGradient>
    </defs>
</svg>
