<?xml version="1.0" encoding="UTF-8" standalone="no"?>
<!DOCTYPE svg PUBLIC "-//W3C//DTD SVG 1.1//EN" "http://www.w3.org/Graphics/SVG/1.1/DTD/svg11.dtd">
<svg width="100%" height="100%" viewBox="0 0 300 345" version="1.1" xmlns="http://www.w3.org/2000/svg" xmlns:xlink="http://www.w3.org/1999/xlink" xml:space="preserve" xmlns:serif="http://www.serif.com/" style="fill-rule:evenodd;clip-rule:evenodd;stroke-linejoin:round;stroke-miterlimit:2;">
    <g id="avatar_hat_22">
        <path d="M6.972,45.86L293.028,45.86C293.028,45.86 268.177,0 241.607,0L58.393,0C31.823,0 6.972,45.86 6.972,45.86Z" style="fill:#507665;"/>
        <g transform="matrix(1,0,0,1,3.99213,0)">
            <path d="M83.791,0L83.791,45.86C83.791,46.964 84.687,47.86 85.791,47.86C86.895,47.86 87.791,46.964 87.791,45.86L87.791,-0C87.791,-1.104 86.895,-2 85.791,-2C84.687,-2 83.791,-1.104 83.791,0Z" style="fill:#004f2c;"/>
        </g>
        <g transform="matrix(1,0,0,1,10.1706,0)">
            <path d="M84.791,40L84.791,44C84.791,44.552 85.239,45 85.791,45C86.343,45 86.791,44.552 86.791,44L86.791,40C86.791,39.448 86.343,39 85.791,39C85.239,39 84.791,39.448 84.791,40ZM84.791,32L84.791,36C84.791,36.552 85.239,37 85.791,37C86.343,37 86.791,36.552 86.791,36L86.791,32C86.791,31.448 86.343,31 85.791,31C85.239,31 84.791,31.448 84.791,32ZM84.791,24L84.791,28C84.791,28.552 85.239,29 85.791,29C86.343,29 86.791,28.552 86.791,28L86.791,24C86.791,23.448 86.343,23 85.791,23C85.239,23 84.791,23.448 84.791,24ZM84.791,16L84.791,20C84.791,20.552 85.239,21 85.791,21C86.343,21 86.791,20.552 86.791,20L86.791,16C86.791,15.448 86.343,15 85.791,15C85.239,15 84.791,15.448 84.791,16ZM84.791,8L84.791,12C84.791,12.552 85.239,13 85.791,13C86.343,13 86.791,12.552 86.791,12L86.791,8C86.791,7.448 86.343,7 85.791,7C85.239,7 84.791,7.448 84.791,8ZM84.791,-0L84.791,4C84.791,4.552 85.239,5 85.791,5C86.343,5 86.791,4.552 86.791,4L86.791,0C86.791,-0.552 86.343,-1 85.791,-1C85.239,-1 84.791,-0.552 84.791,-0Z" style="fill:#004f2c;"/>
        </g>
        <g transform="matrix(-1,0,0,1,296.008,0)">
            <path d="M83.791,0L83.791,45.86C83.791,46.964 84.687,47.86 85.791,47.86C86.895,47.86 87.791,46.964 87.791,45.86L87.791,-0C87.791,-1.104 86.895,-2 85.791,-2C84.687,-2 83.791,-1.104 83.791,0Z" style="fill:#004f2c;"/>
        </g>
        <g transform="matrix(-1,0,0,1,289.829,0)">
            <path d="M84.791,40L84.791,44C84.791,44.552 85.239,45 85.791,45C86.343,45 86.791,44.552 86.791,44L86.791,40C86.791,39.448 86.343,39 85.791,39C85.239,39 84.791,39.448 84.791,40ZM84.791,32L84.791,36C84.791,36.552 85.239,37 85.791,37C86.343,37 86.791,36.552 86.791,36L86.791,32C86.791,31.448 86.343,31 85.791,31C85.239,31 84.791,31.448 84.791,32ZM84.791,24L84.791,28C84.791,28.552 85.239,29 85.791,29C86.343,29 86.791,28.552 86.791,28L86.791,24C86.791,23.448 86.343,23 85.791,23C85.239,23 84.791,23.448 84.791,24ZM84.791,16L84.791,20C84.791,20.552 85.239,21 85.791,21C86.343,21 86.791,20.552 86.791,20L86.791,16C86.791,15.448 86.343,15 85.791,15C85.239,15 84.791,15.448 84.791,16ZM84.791,8L84.791,12C84.791,12.552 85.239,13 85.791,13C86.343,13 86.791,12.552 86.791,12L86.791,8C86.791,7.448 86.343,7 85.791,7C85.239,7 84.791,7.448 84.791,8ZM84.791,-0L84.791,4C84.791,4.552 85.239,5 85.791,5C86.343,5 86.791,4.552 86.791,4L86.791,0C86.791,-0.552 86.343,-1 85.791,-1C85.239,-1 84.791,-0.552 84.791,-0Z" style="fill:#004f2c;"/>
        </g>
        <path d="M263.62,30.79L36.38,30.79C16.423,30.79 -0,47.213 0,67.17L0,119.76C-0,99.803 16.423,83.38 36.38,83.38L263.62,83.38C283.577,83.38 300,99.803 300,119.76L300,67.17C300,47.213 283.577,30.79 263.62,30.79Z" style="fill:#769c8b;fill-rule:nonzero;"/>
        <path d="M287.685,121.099C285.332,119.466 283.757,116.501 283.757,113.118C283.757,107.975 287.396,103.8 291.879,103.8C296.361,103.8 300,107.975 300,113.118C300,116.501 298.425,119.466 296.072,121.099C298.425,122.731 300,125.696 300,129.079C300,132.079 298.761,134.75 296.84,136.455C298.761,138.16 300,140.831 300,143.831C300,147.35 298.296,150.416 295.784,152.002C298.296,153.588 300,156.654 300,160.173C300,163.059 298.854,165.641 297.056,167.351C298.854,169.061 300,171.643 300,174.529C300,177.772 298.553,180.631 296.36,182.3C298.553,183.97 300,186.828 300,190.072C300,193.315 298.553,196.173 296.36,197.843C298.553,199.512 300,202.371 300,205.614C300,208.953 298.466,211.885 296.163,213.531C298.466,215.176 300,218.108 300,221.447C300,224.69 298.553,227.549 296.36,229.218C298.553,230.888 300,233.746 300,236.99C300,242.133 296.361,246.308 291.879,246.308C287.396,246.308 283.757,242.133 283.757,236.99C283.757,233.746 285.204,230.888 287.398,229.218C285.204,227.549 283.757,224.69 283.757,221.447C283.757,218.108 285.291,215.176 287.595,213.531C285.291,211.885 283.757,208.953 283.757,205.614C283.757,202.371 285.204,199.512 287.398,197.843C285.204,196.173 283.757,193.315 283.757,190.072C283.757,186.828 285.204,183.97 287.398,182.3C285.204,180.631 283.757,177.772 283.757,174.529C283.757,171.643 284.903,169.061 286.702,167.351C284.903,165.641 283.757,163.059 283.757,160.173C283.757,156.654 285.461,153.588 287.973,152.002C285.461,150.416 283.757,147.35 283.757,143.831C283.757,140.831 284.996,138.16 286.918,136.455C284.996,134.75 283.757,132.079 283.757,129.079C283.757,125.696 285.332,122.731 287.685,121.099Z" style="fill:#c6ffe6;"/>
        <g transform="matrix(-1,0,0,1,300.998,-4.64823)">
            <path d="M287.685,121.099C285.332,119.466 283.757,116.501 283.757,113.118C283.757,107.975 287.396,103.8 291.879,103.8C296.361,103.8 300,107.975 300,113.118C300,116.501 298.425,119.466 296.072,121.099C298.425,122.731 300,125.696 300,129.079C300,132.079 298.761,134.75 296.84,136.455C298.761,138.16 300,140.831 300,143.831C300,147.35 298.296,150.416 295.784,152.002C298.296,153.588 300,156.654 300,160.173C300,163.059 298.854,165.641 297.056,167.351C298.854,169.061 300,171.643 300,174.529C300,177.772 298.553,180.631 296.36,182.3C298.553,183.97 300,186.828 300,190.072C300,193.315 298.553,196.173 296.36,197.843C298.553,199.512 300,202.371 300,205.614C300,208.953 298.466,211.885 296.163,213.531C298.466,215.176 300,218.108 300,221.447C300,224.69 298.553,227.549 296.36,229.218C298.553,230.888 300,233.746 300,236.99C300,242.133 296.361,246.308 291.879,246.308C287.396,246.308 283.757,242.133 283.757,236.99C283.757,233.746 285.204,230.888 287.398,229.218C285.204,227.549 283.757,224.69 283.757,221.447C283.757,218.108 285.291,215.176 287.595,213.531C285.291,211.885 283.757,208.953 283.757,205.614C283.757,202.371 285.204,199.512 287.398,197.843C285.204,196.173 283.757,193.315 283.757,190.072C283.757,186.828 285.204,183.97 287.398,182.3C285.204,180.631 283.757,177.772 283.757,174.529C283.757,171.643 284.903,169.061 286.702,167.351C284.903,165.641 283.757,163.059 283.757,160.173C283.757,156.654 285.461,153.588 287.973,152.002C285.461,150.416 283.757,147.35 283.757,143.831C283.757,140.831 284.996,138.16 286.918,136.455C284.996,134.75 283.757,132.079 283.757,129.079C283.757,125.696 285.332,122.731 287.685,121.099Z" style="fill:#c6ffe6;"/>
        </g>
        <g transform="matrix(0.512291,0,0,1.19354,-3.57178,-6.93259)">
            <path d="M24.773,79.095C24.773,76.987 20.785,75.275 15.872,75.275C10.96,75.275 6.972,76.987 6.972,79.095L6.972,209.362C6.972,211.47 10.96,213.182 15.872,213.182C20.785,213.182 24.773,211.47 24.773,209.362L24.773,79.095Z" style="fill:#769c8b;"/>
        </g>
        <g transform="matrix(0.512291,0,0,1.19354,287.309,-6.93259)">
            <path d="M24.773,79.095C24.773,76.987 20.785,75.275 15.872,75.275C10.96,75.275 6.972,76.987 6.972,79.095L6.972,209.362C6.972,211.47 10.96,213.182 15.872,213.182C20.785,213.182 24.773,211.47 24.773,209.362L24.773,79.095Z" style="fill:#769c8b;"/>
        </g>
        <path d="M247.473,41.225C249.654,38.239 253.181,36.298 257.158,36.298C262.027,36.298 266.221,39.207 268.096,43.379C270.2,41.553 272.946,40.446 275.948,40.446C282.563,40.446 287.934,45.817 287.934,52.432C287.934,53.112 287.877,53.778 287.768,54.428C292.428,56.071 295.771,60.516 295.771,65.735C295.771,68.736 294.665,71.481 292.84,73.584C294.665,75.688 295.771,78.433 295.771,81.434C295.771,83.928 295.007,86.246 293.701,88.165C295.007,90.085 295.771,92.402 295.771,94.897C295.771,98.857 293.846,102.371 290.881,104.554L290.881,119.76C290.881,114.949 289.673,110.376 287.524,106.287C286.347,106.673 285.09,106.882 283.785,106.882C279.015,106.882 274.891,104.089 272.963,100.05C271.186,101.093 269.117,101.691 266.909,101.691C263.298,101.691 260.058,100.091 257.859,97.561C255.661,100.091 252.421,101.691 248.81,101.691C245.481,101.691 242.466,100.331 240.294,98.136C238.122,100.331 235.108,101.691 231.778,101.691C228.882,101.691 226.225,100.662 224.152,98.95C222.08,100.662 219.422,101.691 216.526,101.691C213.689,101.691 211.081,100.703 209.028,99.053C206.974,100.703 204.366,101.691 201.529,101.691C198.264,101.691 195.303,100.383 193.14,98.263C190.977,100.383 188.016,101.691 184.751,101.691C181.357,101.691 178.29,100.277 176.109,98.006C173.928,100.277 170.861,101.691 167.466,101.691C164.024,101.691 160.919,100.237 158.733,97.911C156.547,100.237 153.442,101.691 150,101.691C146.472,101.691 143.297,100.163 141.103,97.733C138.909,100.163 135.734,101.691 132.206,101.691C128.539,101.691 125.254,100.04 123.055,97.442C120.856,100.04 117.571,101.691 113.904,101.691C110.443,101.691 107.322,100.221 105.134,97.872C102.945,100.221 99.825,101.691 96.364,101.691C93.034,101.691 90.02,100.331 87.848,98.136C85.676,100.331 82.662,101.691 79.332,101.691C75.665,101.691 72.38,100.04 70.181,97.442C67.982,100.04 64.697,101.691 61.03,101.691C57.474,101.691 54.278,100.14 52.082,97.676C49.886,100.14 46.69,101.691 43.134,101.691C40.443,101.691 37.957,100.802 35.956,99.302C34.272,103.884 29.866,107.157 24.702,107.157C21.135,107.157 17.93,105.596 15.734,103.12C15.319,103.085 14.911,103.028 14.51,102.952C11.101,107.823 9.119,113.596 9.119,119.76L9.119,100.404C6.47,98.205 4.782,94.887 4.782,91.179C4.782,87.546 6.402,84.288 8.959,82.089C6.402,79.89 4.782,76.633 4.782,73C4.782,68.12 7.704,63.918 11.893,62.049C10.161,59.97 9.119,57.298 9.119,54.384C9.119,47.769 14.49,42.398 21.105,42.398C23.022,42.398 24.835,42.85 26.444,43.652C28.256,39.334 32.527,36.298 37.5,36.298C40.862,36.298 43.902,37.685 46.08,39.917C48.257,37.685 51.297,36.298 54.659,36.298C58.12,36.298 61.24,37.768 63.429,40.117C65.618,37.768 68.738,36.298 72.199,36.298C75.609,36.298 78.689,37.725 80.873,40.016C83.057,37.725 86.137,36.298 89.548,36.298C93.215,36.298 96.5,37.948 98.699,40.546C100.898,37.948 104.183,36.298 107.85,36.298C111.311,36.298 114.432,37.768 116.62,40.117C118.809,37.768 121.929,36.298 125.39,36.298C128.973,36.298 132.192,37.873 134.389,40.37C136.586,37.873 139.804,36.298 143.387,36.298C147.138,36.298 150.488,38.024 152.686,40.724C154.885,38.024 158.235,36.298 161.985,36.298C165.917,36.298 169.408,38.194 171.594,41.122C173.78,38.194 177.272,36.298 181.203,36.298C184.913,36.298 188.231,37.987 190.43,40.637C192.63,37.987 195.948,36.298 199.658,36.298C203.499,36.298 206.92,38.108 209.114,40.922C211.309,38.108 214.73,36.298 218.57,36.298C222.502,36.298 225.993,38.194 228.179,41.122C230.365,38.194 233.857,36.298 237.788,36.298C241.765,36.298 245.292,38.239 247.473,41.225Z" style="fill:#c6ffe6;fill-rule:nonzero;"/>
    </g>
</svg>
