<?xml version="1.0" encoding="UTF-8" standalone="no"?>
<!DOCTYPE svg PUBLIC "-//W3C//DTD SVG 1.1//EN" "http://www.w3.org/Graphics/SVG/1.1/DTD/svg11.dtd">
<svg width="100%" height="100%" viewBox="0 0 300 345" version="1.1" xmlns="http://www.w3.org/2000/svg" xmlns:xlink="http://www.w3.org/1999/xlink" xml:space="preserve" xmlns:serif="http://www.serif.com/" style="fill-rule:evenodd;clip-rule:evenodd;stroke-linecap:round;stroke-linejoin:round;">
    <g id="avatar_hat_15">
        <path d="M6.972,45.86C13.611,36.753 24.354,30.79 36.38,30.79L263.62,30.79C275.646,30.79 286.389,36.753 293.028,45.86C290.097,20.065 268.177,0 241.607,0L58.393,0C31.823,0 9.903,20.065 6.972,45.86Z" style="fill:#90e4ea;"/>
        <path d="M6.972,45.86C13.611,36.753 24.354,30.79 36.38,30.79L263.62,30.79C275.646,30.79 286.389,36.753 293.028,45.86C290.097,20.065 268.177,0 241.607,0L58.393,0C31.823,0 9.903,20.065 6.972,45.86ZM14.281,33.443C21.47,16.161 38.523,4 58.393,4L241.607,4C261.477,4 278.53,16.161 285.719,33.443C279.352,29.242 271.749,26.79 263.62,26.79L36.38,26.79C28.251,26.79 20.648,29.242 14.282,33.442L14.281,33.443Z" style="fill:#65cfd6;"/>
        <path d="M152,30.79L152,1.901C152,0.797 151.104,-0.099 150,-0.099C148.896,-0.099 148,0.797 148,1.901L148,30.79C148,31.894 148.896,32.79 150,32.79C151.104,32.79 152,31.894 152,30.79Z" style="fill:#65cfd6;"/>
        <path d="M263.62,30.79L36.38,30.79C16.423,30.79 -0,47.213 0,67.17L0,119.76C-0,99.803 16.423,83.38 36.38,83.38L263.62,83.38C283.577,83.38 300,99.803 300,119.76L300,67.17C300,47.213 283.577,30.79 263.62,30.79Z" style="fill:#605bcb;fill-rule:nonzero;"/>
        <path d="M300,119.76C300,119.76 300,67.17 300,67.17C300,47.213 283.577,30.79 263.62,30.79L36.38,30.79C16.423,30.79 -0,47.213 0,67.17L0,119.76C-0,99.803 16.423,83.38 36.38,83.38L263.62,83.38C283.577,83.38 300,99.803 300,119.76ZM298,102.795C291.693,90.151 278.6,81.38 263.62,81.38C263.62,81.38 36.38,81.38 36.38,81.38C21.4,81.38 8.307,90.151 2,102.795L2,67.17C2,48.31 17.52,32.79 36.38,32.79L263.62,32.79C282.48,32.79 298,48.31 298,67.17L298,102.795Z" style="fill:#4540b7;"/>
        <path d="M288.982,41.188L288.982,93.778C289.676,94.455 290.343,95.16 290.982,95.891L290.982,43.301C290.343,42.57 289.676,41.865 288.982,41.188ZM12.069,40.201C11.378,40.824 10.711,41.475 10.069,42.149L10.069,94.739C10.71,94.065 11.378,93.415 12.069,92.791L12.069,40.201ZM277.868,33.73L277.868,86.32C278.545,86.611 279.212,86.924 279.868,87.255L279.868,34.665C279.211,34.333 278.544,34.021 277.868,33.73ZM23.184,33.296C22.507,33.563 21.84,33.849 21.184,34.155L21.184,86.745C21.839,86.44 22.507,86.153 23.184,85.886L23.184,33.296ZM266.799,30.93L266.799,83.52C267.47,83.579 268.137,83.657 268.799,83.753L268.799,31.163C268.136,31.067 267.47,30.989 266.799,30.93ZM34.734,30.827C34.063,30.858 33.396,30.907 32.734,30.974L32.734,83.564C33.394,83.497 34.062,83.448 34.734,83.417L34.734,30.827ZM45.812,83.38L43.812,83.38L43.812,30.79L45.812,30.79L45.812,83.38ZM56.881,83.38L54.881,83.38L54.881,30.79L56.881,30.79L56.881,83.38ZM67.995,83.38L65.995,83.38L65.995,30.79L67.995,30.79L67.995,83.38ZM79.546,83.38L77.546,83.38L77.546,30.79L79.546,30.79L79.546,83.38ZM90.266,83.38L88.266,83.38L88.266,30.79L90.266,30.79L90.266,83.38ZM101.335,83.38L99.335,83.38L99.335,30.79L101.335,30.79L101.335,83.38ZM112.45,83.38L110.45,83.38L110.45,30.79L112.45,30.79L112.45,83.38ZM124,83.38L122,83.38L122,30.79L124,30.79L124,83.38ZM135.078,83.38L133.078,83.38L133.078,30.79L135.078,30.79L135.078,83.38ZM146.147,83.38L144.147,83.38L144.147,30.79L146.147,30.79L146.147,83.38ZM157.261,83.38L155.261,83.38L155.261,30.79L157.261,30.79L157.261,83.38ZM168.812,83.38L166.812,83.38L166.812,30.79L168.812,30.79L168.812,83.38ZM179.532,83.38L177.532,83.38L177.532,30.79L179.532,30.79L179.532,83.38ZM190.601,83.38L188.601,83.38L188.601,30.79L190.601,30.79L190.601,83.38ZM201.716,83.38L199.716,83.38L199.716,30.79L201.716,30.79L201.716,83.38ZM213.267,83.38L211.267,83.38L211.267,30.79L213.267,30.79L213.267,83.38ZM224.344,83.38L222.344,83.38L222.344,30.79L224.344,30.79L224.344,83.38ZM235.413,83.38L233.413,83.38L233.413,30.79L235.413,30.79L235.413,83.38ZM246.528,83.38L244.528,83.38L244.528,30.79L246.528,30.79L246.528,83.38ZM258.078,83.38L256.078,83.38L256.078,30.79L258.078,30.79L258.078,83.38Z" style="fill:#4540b7;"/>
        <path d="M1.156,98.467C6.992,87.407 17.853,77.487 27.778,77.554C43.091,77.657 188.89,76.843 270.7,77.554C284.71,77.676 294.797,87.368 300,101.738" style="fill:none;stroke:#4540b7;stroke-width:2px;stroke-dasharray:4,4,4,4;"/>
        <g transform="matrix(1.1913,0,0,1.25944,-53.0579,-7.50164)">
            <path d="M267.175,31.261C267.175,28.695 264.973,26.613 262.261,26.613L239.24,26.613C236.527,26.613 234.326,28.695 234.326,31.261L234.326,51.601C234.326,54.166 236.527,56.249 239.24,56.249L262.261,56.249C264.973,56.249 267.175,54.166 267.175,51.601L267.175,31.261Z" style="fill:#f8ff9a;"/>
        </g>
        <g transform="matrix(1.11752,0,0,1.18143,-34.5561,-4.26981)">
            <path d="M267.175,31.261C267.175,28.695 264.973,26.613 262.261,26.613L239.24,26.613C236.527,26.613 234.326,28.695 234.326,31.261L234.326,51.601C234.326,54.166 236.527,56.249 239.24,56.249L262.261,56.249C264.973,56.249 267.175,54.166 267.175,51.601L267.175,31.261Z" style="fill:#f8ff9a;"/>
        </g>
        <g transform="matrix(1.11752,0,0,1.18143,-34.5561,-4.26981)">
            <path d="M261.041,56.46L262.261,56.46C262.462,56.46 262.66,56.45 262.855,56.428C262.977,56.415 263.065,56.31 263.051,56.194C263.037,56.078 262.926,55.995 262.803,56.008C262.626,56.027 262.445,56.037 262.261,56.037L261.041,56.037C260.917,56.037 260.817,56.132 260.817,56.249C260.817,56.366 260.917,56.46 261.041,56.46ZM250.303,56.46L252.092,56.46C252.216,56.46 252.316,56.366 252.316,56.249C252.316,56.132 252.216,56.037 252.092,56.037L250.303,56.037C250.179,56.037 250.079,56.132 250.079,56.249C250.079,56.366 250.179,56.46 250.303,56.46ZM246.723,56.46L248.513,56.46C248.636,56.46 248.737,56.366 248.737,56.249C248.737,56.132 248.636,56.037 248.513,56.037L246.723,56.037C246.6,56.037 246.499,56.132 246.499,56.249C246.499,56.366 246.6,56.46 246.723,56.46ZM243.144,56.46L244.933,56.46C245.057,56.46 245.157,56.366 245.157,56.249C245.157,56.132 245.057,56.037 244.933,56.037L243.144,56.037C243.02,56.037 242.92,56.132 242.92,56.249C242.92,56.366 243.02,56.46 243.144,56.46ZM239.564,56.46L241.354,56.46C241.478,56.46 241.578,56.366 241.578,56.249C241.578,56.132 241.478,56.037 241.354,56.037L239.564,56.037C239.441,56.037 239.341,56.132 239.341,56.249C239.341,56.366 239.441,56.46 239.564,56.46ZM257.461,56.46L259.251,56.46C259.374,56.46 259.475,56.366 259.475,56.249C259.475,56.132 259.374,56.037 259.251,56.037L257.461,56.037C257.338,56.037 257.238,56.132 257.238,56.249C257.238,56.366 257.338,56.46 257.461,56.46ZM253.882,56.46L255.672,56.46C255.795,56.46 255.895,56.366 255.895,56.249C255.895,56.132 255.795,56.037 255.672,56.037L253.882,56.037C253.758,56.037 253.658,56.132 253.658,56.249C253.658,56.366 253.758,56.46 253.882,56.46ZM236.081,55.433C236.568,55.793 237.126,56.071 237.73,56.247C237.849,56.281 237.974,56.219 238.01,56.107C238.046,55.995 237.98,55.877 237.862,55.842C237.31,55.682 236.801,55.428 236.356,55.099C236.259,55.027 236.118,55.043 236.042,55.136C235.966,55.228 235.983,55.361 236.081,55.433ZM264.634,55.912C265.19,55.637 265.687,55.269 266.101,54.829C266.183,54.742 266.174,54.608 266.082,54.53C265.99,54.452 265.848,54.46 265.766,54.548C265.389,54.949 264.935,55.286 264.427,55.536C264.317,55.591 264.275,55.718 264.332,55.822C264.389,55.926 264.524,55.966 264.634,55.912ZM234.184,52.471C234.298,53.064 234.525,53.62 234.844,54.117C234.909,54.217 235.046,54.249 235.152,54.188C235.257,54.128 235.291,53.998 235.227,53.898C234.936,53.444 234.728,52.937 234.624,52.396C234.602,52.281 234.486,52.205 234.364,52.225C234.243,52.246 234.162,52.356 234.184,52.471ZM266.952,51.601L266.952,51.601C266.952,52.154 266.844,52.685 266.648,53.174C266.604,53.283 266.662,53.405 266.778,53.447C266.893,53.488 267.022,53.433 267.066,53.324C267.281,52.788 267.399,52.207 267.399,51.601L267.399,51.601L267.399,51.593C267.399,51.476 267.299,51.381 267.175,51.381C267.052,51.381 266.952,51.476 266.952,51.593L266.952,51.601ZM234.102,49.052L234.102,50.745C234.102,50.862 234.202,50.957 234.326,50.957C234.449,50.957 234.549,50.862 234.549,50.745L234.549,49.052C234.549,48.936 234.449,48.841 234.326,48.841C234.202,48.841 234.102,48.936 234.102,49.052ZM267.399,49.9L267.399,48.207C267.399,48.09 267.299,47.995 267.175,47.995C267.052,47.995 266.952,48.09 266.952,48.207L266.952,49.9C266.952,50.017 267.052,50.112 267.175,50.112C267.299,50.112 267.399,50.017 267.399,49.9ZM234.102,45.667L234.102,47.36C234.102,47.476 234.202,47.571 234.326,47.571C234.449,47.571 234.549,47.476 234.549,47.36L234.549,45.667C234.549,45.55 234.449,45.455 234.326,45.455C234.202,45.455 234.102,45.55 234.102,45.667ZM267.399,46.514L267.399,44.821C267.399,44.705 267.299,44.61 267.175,44.61C267.052,44.61 266.952,44.705 266.952,44.821L266.952,46.514C266.952,46.631 267.052,46.726 267.175,46.726C267.299,46.726 267.399,46.631 267.399,46.514ZM234.102,42.281L234.102,43.974C234.102,44.091 234.202,44.185 234.326,44.185C234.449,44.185 234.549,44.091 234.549,43.974L234.549,42.281C234.549,42.164 234.449,42.069 234.326,42.069C234.202,42.069 234.102,42.164 234.102,42.281ZM267.399,43.128L267.399,41.436C267.399,41.319 267.299,41.224 267.175,41.224C267.052,41.224 266.952,41.319 266.952,41.436L266.952,43.128C266.952,43.245 267.052,43.34 267.175,43.34C267.299,43.34 267.399,43.245 267.399,43.128ZM234.102,38.895L234.102,40.588C234.102,40.705 234.202,40.8 234.326,40.8C234.449,40.8 234.549,40.705 234.549,40.588L234.549,38.895C234.549,38.779 234.449,38.684 234.326,38.684C234.202,38.684 234.102,38.779 234.102,38.895ZM267.399,39.743L267.399,38.05C267.399,37.933 267.299,37.838 267.175,37.838C267.052,37.838 266.952,37.933 266.952,38.05L266.952,39.743C266.952,39.86 267.052,39.954 267.175,39.954C267.299,39.954 267.399,39.86 267.399,39.743ZM234.102,35.51L234.102,37.202C234.102,37.319 234.202,37.414 234.326,37.414C234.449,37.414 234.549,37.319 234.549,37.202L234.549,35.51C234.549,35.393 234.449,35.298 234.326,35.298C234.202,35.298 234.102,35.393 234.102,35.51ZM267.399,36.357L267.399,34.664C267.399,34.547 267.299,34.453 267.175,34.453C267.052,34.453 266.952,34.547 266.952,34.664L266.952,36.357C266.952,36.474 267.052,36.569 267.175,36.569C267.299,36.569 267.399,36.474 267.399,36.357ZM234.102,32.124L234.102,33.817C234.102,33.934 234.202,34.028 234.326,34.028C234.449,34.028 234.549,33.934 234.549,33.817L234.549,32.124C234.549,32.007 234.449,31.912 234.326,31.912C234.202,31.912 234.102,32.007 234.102,32.124ZM266.952,31.27L266.952,31.278L266.952,32.971C266.952,33.088 267.052,33.183 267.175,33.183C267.299,33.183 267.399,33.088 267.399,32.971L267.399,31.278L267.399,31.27L267.399,31.261C267.399,30.651 267.28,30.068 267.063,29.53C267.019,29.42 266.89,29.366 266.774,29.407C266.659,29.449 266.601,29.571 266.645,29.681C266.843,30.172 266.952,30.704 266.952,31.261L266.952,31.27ZM234.84,28.751C234.522,29.249 234.295,29.805 234.183,30.398C234.161,30.513 234.242,30.623 234.363,30.644C234.485,30.664 234.601,30.588 234.623,30.473C234.726,29.931 234.933,29.424 235.223,28.97C235.287,28.87 235.253,28.74 235.147,28.679C235.042,28.619 234.904,28.651 234.84,28.751ZM266.095,28.026C265.68,27.587 265.183,27.22 264.626,26.946C264.517,26.892 264.381,26.933 264.325,27.036C264.268,27.14 264.31,27.268 264.42,27.321C264.928,27.572 265.383,27.907 265.761,28.308C265.843,28.395 265.985,28.403 266.077,28.325C266.169,28.247 266.177,28.114 266.095,28.026ZM237.722,26.617C237.118,26.794 236.561,27.073 236.074,27.434C235.977,27.506 235.96,27.639 236.036,27.731C236.112,27.823 236.253,27.839 236.35,27.767C236.794,27.438 237.303,27.182 237.854,27.021C237.972,26.987 238.039,26.868 238.002,26.756C237.966,26.645 237.84,26.582 237.722,26.617ZM262.846,26.432C262.654,26.412 262.459,26.401 262.261,26.401C262.261,26.401 261.809,26.401 261.032,26.401C260.909,26.401 260.809,26.496 260.809,26.613C260.809,26.729 260.909,26.824 261.032,26.824L262.261,26.824C262.442,26.824 262.62,26.834 262.796,26.853C262.918,26.866 263.029,26.782 263.043,26.666C263.057,26.55 262.969,26.445 262.846,26.432ZM259.243,26.401L257.453,26.401C257.33,26.401 257.229,26.496 257.229,26.613C257.229,26.729 257.33,26.824 257.453,26.824L259.243,26.824C259.366,26.824 259.466,26.729 259.466,26.613C259.466,26.496 259.366,26.401 259.243,26.401ZM241.346,26.401L239.556,26.401C239.433,26.401 239.332,26.496 239.332,26.613C239.332,26.729 239.433,26.824 239.556,26.824L241.346,26.824C241.469,26.824 241.57,26.729 241.57,26.613C241.57,26.496 241.469,26.401 241.346,26.401ZM248.505,26.401L246.715,26.401C246.591,26.401 246.491,26.496 246.491,26.613C246.491,26.729 246.591,26.824 246.715,26.824L248.505,26.824C248.628,26.824 248.728,26.729 248.728,26.613C248.728,26.496 248.628,26.401 248.505,26.401ZM255.663,26.401L253.874,26.401C253.75,26.401 253.65,26.496 253.65,26.613C253.65,26.729 253.75,26.824 253.874,26.824L255.663,26.824C255.787,26.824 255.887,26.729 255.887,26.613C255.887,26.496 255.787,26.401 255.663,26.401ZM244.925,26.401L243.136,26.401C243.012,26.401 242.912,26.496 242.912,26.613C242.912,26.729 243.012,26.824 243.136,26.824L244.925,26.824C245.049,26.824 245.149,26.729 245.149,26.613C245.149,26.496 245.049,26.401 244.925,26.401ZM252.084,26.401L250.294,26.401C250.171,26.401 250.071,26.496 250.071,26.613C250.071,26.729 250.171,26.824 250.294,26.824L252.084,26.824C252.207,26.824 252.308,26.729 252.308,26.613C252.308,26.496 252.207,26.401 252.084,26.401Z" style="fill:#cfc51e;"/>
        </g>
        <g transform="matrix(0.0280588,0,0,0.0280588,242.361,44.0022)">
            <path d="M-237.141,437.289L-237.141,-358.536C-233.556,-389.877 -172.504,-404.388 -84.795,-411.092C2.992,-417.78 93.131,-419.174 184.672,-417.414C247.732,-415.802 303.627,-409.017 349.791,-395.202C459.064,-364.085 502.23,-297.962 509.18,-208.642C517.324,-103.978 489.181,-10.579 407.531,11.908C485.654,31.358 528.421,83.776 535.415,169.549C540.954,243.451 534.651,312.367 494.503,367.032C448.056,429.258 356.819,459.614 232.273,466.27L-157.907,466.27C-211.686,465.264 -236.793,460.842 -237.141,437.289ZM51.848,284.002L51.848,122.085C68.319,118.916 137.865,116.509 154.514,122.121C206.534,139.656 217.532,258.41 154.514,284.327C140.5,290.091 69.004,287.811 51.848,284.002ZM51.848,-69.352L51.848,-231.269C68.319,-234.438 137.865,-236.846 154.514,-231.233C206.534,-213.698 217.532,-94.944 154.514,-69.028C140.5,-63.264 69.004,-65.543 51.848,-69.352Z" style="fill:#fff;"/>
        </g>
        <g transform="matrix(0.0280588,0,0,0.0280588,242.361,44.0022)">
            <path d="M-116.736,457.36L-157.779,457.365C-168.974,457.149 -178.741,456.797 -187.323,456.157C-192.227,455.791 -196.505,459.475 -196.871,464.379C-197.237,469.283 -193.553,473.561 -188.649,473.927C-179.713,474.594 -169.534,474.964 -158.073,475.178L-116.736,475.179C-111.818,475.179 -107.826,471.187 -107.826,466.27C-107.826,461.352 -111.818,457.36 -116.736,457.36ZM25.822,457.36L-45.457,457.36C-50.374,457.36 -54.367,461.352 -54.367,466.27C-54.367,471.187 -50.374,475.179 -45.457,475.179L25.822,475.179C30.74,475.179 34.732,471.187 34.732,466.27C34.732,461.352 30.74,457.36 25.822,457.36ZM168.38,457.36L97.101,457.36C92.184,457.36 88.191,461.352 88.191,466.27C88.191,471.187 92.184,475.179 97.101,475.179L168.38,475.179C173.298,475.179 177.29,471.187 177.29,466.27C177.29,461.352 173.298,457.36 168.38,457.36ZM309.064,449.397C287.172,452.934 263.818,455.428 239.099,456.952C234.19,457.255 230.451,461.486 230.754,466.394C231.057,471.302 235.287,475.041 240.195,474.738C265.532,473.176 289.468,470.614 311.906,466.988C316.761,466.204 320.065,461.626 319.281,456.772C318.497,451.917 313.918,448.612 309.064,449.397ZM439.739,404.902C421.593,416.373 400.628,425.824 377.069,433.445C372.391,434.958 369.821,439.985 371.334,444.664C372.848,449.343 377.875,451.913 382.554,450.399C407.638,442.286 429.94,432.178 449.261,419.964C453.417,417.337 454.659,411.829 452.031,407.672C449.404,403.516 443.896,402.274 439.739,404.902ZM-228.232,437.289L-228.232,366.011C-228.232,361.093 -232.224,357.101 -237.141,357.101C-242.059,357.101 -246.051,361.093 -246.051,366.011L-246.051,437.289C-246.051,442.207 -242.059,446.199 -237.141,446.199C-232.224,446.199 -228.232,442.207 -228.232,437.289ZM517.952,297.679C511.825,319.629 502.574,340.264 489.195,359.16C486.354,363.174 487.305,368.739 491.319,371.581C495.332,374.422 500.897,373.471 503.739,369.457C518.319,348.863 528.439,326.391 535.116,302.469C536.438,297.733 533.666,292.814 528.929,291.492C524.193,290.17 519.274,292.942 517.952,297.679ZM-228.232,294.732L-228.232,223.453C-228.232,218.536 -232.224,214.544 -237.141,214.544C-242.059,214.544 -246.051,218.536 -246.051,223.453L-246.051,294.732C-246.051,299.649 -242.059,303.642 -237.141,303.642C-232.224,303.642 -228.232,299.649 -228.232,294.732ZM172.735,259.372C167.163,266.599 160.012,272.432 151.125,276.087C145.863,278.251 131.695,278.807 115.782,278.9C110.865,278.929 106.896,282.945 106.925,287.863C106.954,292.78 110.97,296.749 115.887,296.72C134.836,296.608 151.637,295.144 157.903,292.567C169.792,287.678 179.393,279.921 186.848,270.253C189.85,266.358 189.126,260.759 185.232,257.756C181.337,254.754 175.738,255.478 172.735,259.372ZM60.758,284.002L60.758,212.723C60.758,207.806 56.765,203.813 51.848,203.813C46.93,203.813 42.938,207.806 42.938,212.723L42.938,284.002C42.938,288.92 46.93,292.912 51.848,292.912C56.765,292.912 60.758,288.92 60.758,284.002ZM525.453,159.611C525.878,163.094 526.237,166.638 526.532,170.243C528.041,190.391 528.66,210.161 527.918,229.361C527.728,234.275 531.563,238.418 536.476,238.608C541.39,238.798 545.534,234.963 545.724,230.05C546.493,210.185 545.862,189.729 544.299,168.883L543.142,157.453C542.546,152.572 538.1,149.092 533.218,149.688C528.337,150.283 524.857,154.73 525.453,159.611ZM165.428,139.074C179.215,152.059 187.204,174.601 188.62,197.826C188.919,202.734 193.147,206.476 198.055,206.177C202.964,205.878 206.706,201.65 206.407,196.742C204.697,168.697 194.294,141.781 177.646,126.102C174.066,122.731 168.423,122.9 165.051,126.48C161.68,130.059 161.849,135.703 165.428,139.074ZM-228.232,152.174L-228.232,80.895C-228.232,75.978 -232.224,71.986 -237.141,71.986C-242.059,71.986 -246.051,75.978 -246.051,80.895C-246.051,104.98 -246.051,128.859 -246.051,152.174C-246.051,157.092 -242.059,161.084 -237.141,161.084C-232.224,161.084 -228.232,157.092 -228.232,152.174ZM60.758,129.845C71.034,128.755 87.412,127.924 103.739,127.713C108.657,127.649 112.597,123.605 112.533,118.688C112.469,113.771 108.425,109.831 103.508,109.894C81.154,110.184 58.717,111.69 50.164,113.336L51.848,130.995L42.938,122.308C42.938,122.308 42.938,130.804 42.938,141.444C42.938,146.362 46.93,150.354 51.848,150.354C56.765,150.354 60.758,146.362 60.758,141.444L60.758,129.845ZM462.454,45.13C481.155,57.862 495.812,74.364 506.419,94.643C508.698,99.001 514.086,100.688 518.443,98.409C522.801,96.13 524.488,90.742 522.209,86.385C510.215,63.452 493.63,44.798 472.483,30.401C468.418,27.633 462.871,28.686 460.103,32.751C457.336,36.816 458.389,42.363 462.454,45.13ZM463.449,-35.536C449.848,-18.279 432.251,-5.323 410.209,1.809C405.53,3.323 402.96,8.35 404.474,13.029C405.988,17.708 411.016,20.277 415.694,18.763C441.251,10.495 461.675,-4.497 477.445,-24.506C480.489,-28.368 479.824,-33.975 475.962,-37.019C472.1,-40.063 466.493,-39.398 463.449,-35.536ZM-228.232,9.617C-228.232,-14.406 -228.232,-38.283 -228.232,-61.662C-228.232,-66.579 -232.224,-70.572 -237.141,-70.572C-242.059,-70.572 -246.051,-66.579 -246.051,-61.662L-246.051,9.617C-246.051,14.534 -242.059,18.527 -237.141,18.527C-232.224,18.527 -228.232,14.534 -228.232,9.617ZM172.735,-93.982C167.163,-86.755 160.012,-80.923 151.125,-77.268C145.863,-75.104 131.695,-74.548 115.782,-74.454C110.865,-74.425 106.896,-70.409 106.925,-65.492C106.954,-60.575 110.97,-56.606 115.887,-56.635C134.836,-56.746 151.637,-58.21 157.903,-60.787C169.792,-65.677 179.393,-73.433 186.848,-83.102C189.85,-86.996 189.126,-92.596 185.232,-95.598C181.337,-98.601 175.738,-97.877 172.735,-93.982ZM60.758,-69.352L60.758,-140.631C60.758,-145.549 56.765,-149.541 51.848,-149.541C46.93,-149.541 42.938,-145.549 42.938,-140.631L42.938,-69.352C42.938,-64.435 46.93,-60.443 51.848,-60.443C56.765,-60.443 60.758,-64.435 60.758,-69.352ZM501.485,-164.647C500.846,-140.338 497.875,-117.229 492.274,-96.23C491.007,-91.479 493.836,-86.592 498.587,-85.325C503.338,-84.057 508.225,-86.886 509.492,-91.637C515.431,-113.904 518.621,-138.402 519.299,-164.178C519.428,-169.094 515.542,-173.19 510.626,-173.319C505.711,-173.449 501.615,-169.563 501.485,-164.647ZM-228.232,-132.941C-228.232,-158.006 -228.232,-181.941 -228.232,-204.22C-228.232,-209.137 -232.224,-213.13 -237.141,-213.13C-242.059,-213.13 -246.051,-209.137 -246.051,-204.22C-246.051,-181.941 -246.051,-158.006 -246.051,-132.941C-246.051,-128.023 -242.059,-124.031 -237.141,-124.031C-232.224,-124.031 -228.232,-128.023 -228.232,-132.941ZM165.428,-214.28C179.215,-201.295 187.204,-178.754 188.62,-155.529C188.919,-150.62 193.147,-146.878 198.055,-147.177C202.964,-147.477 206.706,-151.704 206.407,-156.613C204.697,-184.657 194.294,-211.573 177.646,-227.252C174.066,-230.624 168.423,-230.455 165.051,-226.875C161.68,-223.295 161.849,-217.652 165.428,-214.28ZM60.758,-223.51C71.034,-224.599 87.412,-225.43 103.739,-225.642C108.657,-225.706 112.597,-229.75 112.533,-234.667C112.469,-239.584 108.425,-243.524 103.508,-243.46C81.154,-243.17 58.717,-241.664 50.164,-240.019L51.848,-222.359C51.848,-222.359 42.938,-231.046 42.938,-231.046C42.938,-231.046 42.938,-222.55 42.938,-211.91C42.938,-206.993 46.93,-203 51.848,-203C56.765,-203 60.758,-206.993 60.758,-211.91L60.758,-223.51ZM474.736,-297.924C485.81,-278.732 493.003,-257.294 497.078,-233.91C497.922,-229.066 502.541,-225.818 507.385,-226.662C512.23,-227.506 515.478,-232.125 514.633,-236.969C510.185,-262.498 502.261,-285.877 490.171,-306.83C487.713,-311.089 482.26,-312.552 478,-310.094C473.741,-307.637 472.278,-302.183 474.736,-297.924ZM-228.232,-275.499C-228.232,-308.249 -228.232,-333.133 -228.232,-346.778C-228.232,-351.695 -232.224,-355.688 -237.141,-355.688C-242.059,-355.688 -246.051,-351.695 -246.051,-346.778C-246.051,-333.133 -246.051,-308.249 -246.051,-275.499C-246.051,-270.581 -242.059,-266.589 -237.141,-266.589C-232.224,-266.589 -228.232,-270.581 -228.232,-275.499ZM369.242,-379.6C393.083,-370.996 413.16,-360.402 429.882,-347.936C433.825,-344.997 439.412,-345.812 442.351,-349.754C445.29,-353.697 444.475,-359.284 440.533,-362.223C422.534,-375.641 400.953,-387.101 375.291,-396.362C370.665,-398.031 365.555,-395.631 363.886,-391.005C362.216,-386.38 364.616,-381.269 369.242,-379.6ZM-190.414,-385.372C-172.29,-391.134 -149.114,-395.382 -122.19,-398.566C-117.307,-399.144 -113.811,-403.577 -114.388,-408.461C-114.966,-413.344 -119.399,-416.84 -124.283,-416.263C-152.517,-412.924 -176.807,-408.396 -195.812,-402.355C-200.499,-400.865 -203.094,-395.851 -201.604,-391.164C-200.114,-386.478 -195.1,-383.883 -190.414,-385.372ZM232.072,-406.162C256.772,-404.302 280.087,-401.445 301.822,-397.444C306.659,-396.554 311.308,-399.758 312.198,-404.594C313.088,-409.43 309.885,-414.079 305.048,-414.97C282.724,-419.079 258.779,-422.021 233.41,-423.931C228.506,-424.3 224.225,-420.619 223.856,-415.715C223.487,-410.812 227.168,-406.531 232.072,-406.162ZM-51.668,-404.436C-28.173,-405.876 -4.52,-406.958 19.274,-407.725C24.189,-407.883 28.051,-412.002 27.893,-416.917C27.734,-421.832 23.615,-425.694 18.7,-425.535C-5.267,-424.763 -29.092,-423.672 -52.758,-422.222C-57.666,-421.921 -61.407,-417.692 -61.106,-412.784C-60.805,-407.875 -56.576,-404.135 -51.668,-404.436ZM90.318,-409.11C113.903,-409.287 137.606,-409.198 161.41,-408.882C166.327,-408.816 170.372,-412.755 170.437,-417.673C170.503,-422.59 166.564,-426.635 161.647,-426.7C137.719,-427.018 113.892,-427.107 90.184,-426.93C85.267,-426.893 81.304,-422.871 81.341,-417.953C81.378,-413.036 85.4,-409.074 90.318,-409.11Z" style="fill:#cfc51e;"/>
        </g>
    </g>
</svg>
