<?xml version="1.0" encoding="UTF-8" standalone="no"?>
<!DOCTYPE svg PUBLIC "-//W3C//DTD SVG 1.1//EN" "http://www.w3.org/Graphics/SVG/1.1/DTD/svg11.dtd">
<svg width="100%" height="100%" viewBox="0 0 300 345" version="1.1" xmlns="http://www.w3.org/2000/svg" xmlns:xlink="http://www.w3.org/1999/xlink" xml:space="preserve" xmlns:serif="http://www.serif.com/" style="fill-rule:evenodd;clip-rule:evenodd;stroke-linejoin:round;stroke-miterlimit:2;">
    <g id="avatar_hat_42">
        <path d="M4.073,67.436L295.927,67.436L295.927,13.809C295.927,7.633 290.913,2.618 284.736,2.618L15.264,2.618C9.087,2.618 4.073,7.633 4.073,13.809L4.073,67.436Z" style="fill:#c5f5ff;"/>
        <path d="M102.861,2.618L107.833,0L109.346,0.493L109.053,5.806C109.053,5.806 108.467,8.009 107.54,7.277C106.613,6.545 105.195,4.932 105.195,4.932L102.861,2.618ZM129.121,2.618L123.64,0L121.258,1.512C121.258,1.512 120.633,5.371 121.141,5.371C121.648,5.371 124.694,7.291 125.982,6.744C127.271,6.198 128.559,5.143 128.794,4.714C129.028,4.284 129.121,2.618 129.121,2.618ZM270.573,2.618L275.617,0L277.325,0L276.934,6.194C276.934,6.194 269.923,6.15 270.248,5.171C270.573,4.193 270.573,2.618 270.573,2.618ZM69.497,2.618L75.045,0C75.045,0 77.918,1.994 77.793,2.618C77.669,3.242 76.607,6.147 75.701,5.772C74.795,5.398 70.609,4.554 70.609,4.554L69.497,2.618ZM97.842,2.618L91.873,0L89.14,5.032C89.14,5.032 93.289,5.52 94.07,5.325C94.85,5.129 97.842,2.618 97.842,2.618ZM134.139,2.618L139.765,0C139.765,0 141.444,2.24 141.64,2.618C141.835,2.996 142.85,5.104 142.03,5.182C141.21,5.261 136.798,5.573 136.368,5.065C135.939,4.558 133.518,3.421 133.518,3.421L134.139,2.618ZM167.205,2.618L172.692,0L174.141,0.569L173.316,4.193C173.316,4.193 172.417,5.695 171.292,5.067C170.168,4.439 167.205,2.618 167.205,2.618ZM265.555,2.618L259.608,0C259.608,0 257.9,-0.63 258.095,0C258.29,0.63 258.486,4.439 258.486,4.439C258.486,4.439 263.073,5.218 263.854,5.169C264.635,5.12 265.555,2.618 265.555,2.618ZM197.04,2.618L191.192,0L189.933,2.685L190.652,4.439C190.652,4.439 194.131,4.773 194.611,4.606C195.09,4.439 196.31,4.027 196.45,3.847C196.59,3.667 197.04,2.618 197.04,2.618ZM35.537,2.618L41.341,0L42.934,2.618L42.341,4.554L37.062,4.304L35.537,2.618ZM202.058,2.618L207.185,0L208.424,0C208.424,0 208.864,3.167 208.764,3.347C208.664,3.527 207.805,4.439 206.485,4.439C205.166,4.439 202.387,4.366 202.227,4.127C202.067,3.887 202.058,2.618 202.058,2.618ZM162.187,2.618L156.555,0L155.149,3.035L159.238,4.377C159.238,4.377 161.177,4.617 161.417,4.157C161.657,3.697 162.187,2.618 162.187,2.618ZM30.519,2.618L25.354,0L23.743,2.618L25.467,3.995L29.69,3.395L30.519,2.618ZM64.478,2.618L58.864,-0.412L58.458,3.995L62.457,3.995L64.478,2.618ZM236.465,2.618L241.83,0L242.629,0L242.589,3.766L236.472,3.766L236.465,2.618ZM231.446,2.618L225.837,0L225.277,0L225.157,3.727C225.157,3.727 228.156,3.847 229.075,3.667C229.995,3.487 231.574,3.107 231.574,3.107L231.446,2.618Z" style="fill:#c5f5ff;"/>
        <path d="M25.354,67.436L25.354,0L15.743,0C9.302,0 4.073,4.424 4.073,10.865L4.073,67.436L25.354,67.436ZM59.099,67.436L41.354,67.436L41.354,0L59.099,0L59.099,67.436ZM91.867,67.436L75.099,67.436L75.099,0L91.867,0L91.867,67.436ZM123.704,67.436L107.867,67.436L107.867,0L123.704,0L123.704,67.436ZM156.751,67.436L139.704,67.436L139.704,0L156.751,0L156.751,67.436ZM191.195,67.436L172.751,67.436L172.751,0L191.195,0L191.195,67.436ZM225.825,67.436L207.195,67.436L207.195,0L225.825,0L225.825,67.436ZM259.71,67.436L241.825,67.436L241.825,0L259.71,0L259.71,67.436ZM275.71,67.436L295.927,67.436L295.927,10.865C295.927,4.424 290.698,0 284.257,0L275.71,0L275.71,67.436Z" style="fill:#d7f8ff;"/>
        <path d="M3.073,61.149L3.073,11.694C3.073,4.783 8.731,-0 15.743,-0L25.354,-0C25.906,-0 26.354,0.441 26.354,0.986L26.354,61.149L24.354,61.149L24.354,1.971L15.743,1.971C9.873,1.971 5.073,5.909 5.073,11.694L5.073,61.149L3.073,61.149ZM40.354,61.149L40.354,0.986C40.354,0.441 40.801,-0 41.354,-0L59.099,-0C59.651,-0 60.099,0.441 60.099,0.986L60.099,61.149L58.099,61.149L58.099,1.971C58.099,1.971 42.354,1.971 42.354,1.971L42.354,61.149L40.354,61.149ZM74.099,61.149L74.099,0.986C74.099,0.441 74.547,-0 75.099,-0L91.867,-0C92.419,-0 92.867,0.441 92.867,0.986L92.867,61.149L90.867,61.149L90.867,1.971C90.867,1.971 76.099,1.971 76.099,1.971L76.099,61.149L74.099,61.149ZM106.867,61.149L106.867,0.986C106.867,0.441 107.315,-0 107.867,-0L123.704,-0C124.256,-0 124.704,0.441 124.704,0.986L124.704,61.149L122.704,61.149L122.704,1.971C122.704,1.971 108.867,1.971 108.867,1.971L108.867,61.149L106.867,61.149ZM138.704,61.149L138.704,0.986C138.704,0.441 139.152,-0 139.704,-0L156.751,-0C157.304,-0 157.751,0.441 157.751,0.986L157.751,61.149L155.751,61.149L155.751,1.971C155.751,1.971 140.704,1.971 140.704,1.971L140.704,61.149L138.704,61.149ZM171.751,61.149L171.751,0.986C171.751,0.441 172.199,-0 172.751,-0L191.195,-0C191.747,-0 192.195,0.441 192.195,0.986L192.195,61.149L190.195,61.149L190.195,1.971C190.195,1.971 173.751,1.971 173.751,1.971L173.751,61.149L171.751,61.149ZM206.195,61.149L206.195,0.986C206.195,0.441 206.643,-0 207.195,-0L225.825,-0C226.377,-0 226.825,0.441 226.825,0.986L226.825,61.149L224.825,61.149L224.825,1.971C224.825,1.971 208.195,1.971 208.195,1.971L208.195,61.149L206.195,61.149ZM240.825,61.149L240.825,0.986C240.825,0.441 241.273,-0 241.825,-0L259.71,-0C260.262,-0 260.71,0.441 260.71,0.986L260.71,61.149L258.71,61.149L258.71,1.971C258.71,1.971 242.825,1.971 242.825,1.971L242.825,61.149L240.825,61.149ZM274.71,61.149L274.71,0.986C274.71,0.441 275.158,-0 275.71,-0L284.257,-0C291.269,-0 296.927,4.783 296.927,11.694L296.927,61.149L294.927,61.149L294.927,11.694C294.927,5.909 290.127,1.971 284.257,1.971C284.257,1.971 276.71,1.971 276.71,1.971L276.71,61.149L274.71,61.149Z" style="fill:#95ecff;"/>
        <path d="M270.573,2.618L265.555,2.618L265.555,70.313L270.573,70.313L270.573,2.618ZM236.465,2.618L231.446,2.618L231.446,70.313L236.465,70.313L236.465,2.618ZM202.058,2.618L197.04,2.618L197.04,70.313L202.058,70.313L202.058,2.618ZM167.205,2.618L162.187,2.618L162.187,70.313L167.205,70.313L167.205,2.618ZM134.139,2.618L129.121,2.618L129.121,70.313L134.139,70.313L134.139,2.618ZM35.537,2.618L30.519,2.618L30.519,70.313L35.537,70.313L35.537,2.618ZM102.861,2.618L97.842,2.618L97.842,70.313L102.861,70.313L102.861,2.618ZM69.497,2.618L64.478,2.618L64.478,70.313L69.497,70.313L69.497,2.618Z" style="fill:#69e5ff;fill-opacity:0.3;"/>
        <g transform="matrix(1,0,0,2.1,0,-115.22)">
            <rect x="4.073" y="79.622" width="291.855" height="8.727" style="fill:#69e5ff;fill-opacity:0.3;"/>
        </g>
        <path d="M0,61.028L0,146.524C-0,126.566 16.423,110.144 36.38,110.144L263.62,110.144C283.577,110.144 300,126.566 300,146.524L300,104.082L300,104.081L300,61.028C300,58.765 298.163,56.927 295.9,56.927L4.1,56.927C1.837,56.927 0,58.765 0,61.028Z" style="fill:#e9fbff;"/>
        <path d="M36.38,108.144L263.62,108.144C278.6,108.144 291.693,116.914 298,129.558C298.958,131.66 299.575,133.932 300,136.3L300,157.248C298.222,153.525 297.696,149.969 298,146.524C298,127.663 282.48,112.144 263.62,112.144L36.38,112.144C17.52,112.144 2,127.663 2,146.524C2.304,149.969 1.778,153.525 0,157.248L0,136.3C0.425,133.932 1.042,131.66 2,129.558C8.307,116.914 21.4,108.144 36.38,108.144ZM4.1,58.927C2.941,58.927 2,59.868 2,61.028C1.892,62.243 1.276,63.171 0,63.727L0,61.028C0,58.765 1.837,56.927 4.1,56.927L295.9,56.927C298.163,56.927 300,58.765 300,61.028L300,63.727C298.724,63.171 298.108,62.243 298,61.028C298,59.868 297.059,58.927 295.9,58.927L4.1,58.927Z" style="fill:#95ecff;"/>
    </g>
</svg>
