<?xml version="1.0" encoding="UTF-8" standalone="no"?>
<!DOCTYPE svg PUBLIC "-//W3C//DTD SVG 1.1//EN" "http://www.w3.org/Graphics/SVG/1.1/DTD/svg11.dtd">
<svg width="100%" height="100%" viewBox="0 0 300 345" version="1.1" xmlns="http://www.w3.org/2000/svg" xmlns:xlink="http://www.w3.org/1999/xlink" xml:space="preserve" xmlns:serif="http://www.serif.com/" style="fill-rule:evenodd;clip-rule:evenodd;stroke-linejoin:round;stroke-miterlimit:2;">
    <g id="avatar_hat_33">
        <g>
            <g>
                <g transform="matrix(-0.778685,0,0,0.778685,242.909,19.1237)">
                    <path d="M150.348,48.196C163.7,49.408 173.273,49.248 179.376,47.489C183.434,46.319 185.576,44.495 185.23,41.3C184.77,37.058 179.548,35.731 175.13,39.345C173.484,40.691 171.055,40.448 169.709,38.802C168.363,37.157 168.606,34.727 170.252,33.381C174.099,30.234 178.197,29.185 181.752,29.525C187.626,30.088 192.228,34.365 192.89,40.47C193.512,46.203 191.215,50.52 185.571,53.34C179.254,56.497 167.493,57.489 149.652,55.869C147.534,55.677 145.971,53.802 146.163,51.684C146.355,49.567 148.231,48.003 150.348,48.196Z" style="fill:#b3b3b3;"/>
                </g>
                <g transform="matrix(-0.778685,0,0,0.778685,242.909,19.1237)">
                    <path d="M175.241,30.448C177.49,29.593 179.548,35.731 175.13,39.345C173.484,40.691 171.055,40.448 169.709,38.802C168.363,37.157 168.606,34.727 170.252,33.381C171.89,32.041 173.573,31.081 175.241,30.448Z" style="fill:#939393;"/>
                </g>
                <g transform="matrix(-0.778685,0,0,0.778685,242.909,19.1237)">
                    <path d="M150.406,47.556C163.65,48.758 173.145,48.617 179.198,46.872C182.869,45.814 184.905,44.259 184.591,41.37C184.181,37.583 179.48,36.616 175.537,39.842C173.617,41.413 170.783,41.129 169.212,39.209C167.641,37.289 167.925,34.455 169.845,32.884C173.847,29.61 178.115,28.532 181.813,28.886C187.993,29.478 192.832,33.979 193.528,40.4C194.181,46.418 191.781,50.955 185.858,53.915C179.48,57.102 167.608,58.144 149.594,56.509C147.123,56.285 145.299,54.097 145.524,51.626C145.748,49.156 147.936,47.332 150.406,47.556ZM150.29,48.835C148.526,48.675 146.963,49.978 146.803,51.742C146.642,53.507 147.945,55.07 149.71,55.23C167.378,56.834 179.028,55.892 185.284,52.766C190.648,50.086 192.843,45.989 192.252,40.539C191.624,34.751 187.26,30.698 181.691,30.165C178.279,29.838 174.35,30.858 170.658,33.878C169.287,35 169.084,37.024 170.206,38.396C171.328,39.767 173.352,39.97 174.724,38.848C179.618,34.844 185.358,36.531 185.868,41.231C186.248,44.732 184.001,46.824 179.553,48.106C173.401,49.879 163.751,50.057 150.29,48.835Z" style="fill:#939393;"/>
                </g>
                <g transform="matrix(-1,0,0,1,300,2)">
                    <path d="M150.271,49.045C163.767,50.27 173.443,50.086 179.612,48.308C184.187,46.989 186.468,44.81 186.077,41.208C185.551,36.358 179.641,34.553 174.59,38.685C173.309,39.733 171.417,39.544 170.369,38.263C169.321,36.981 169.51,35.089 170.791,34.041C174.433,31.062 178.306,30.052 181.671,30.374C187.14,30.898 191.426,34.878 192.042,40.561C192.623,45.918 190.463,49.943 185.19,52.578C178.954,55.694 167.341,56.619 149.729,55.02C148.08,54.871 146.863,53.41 147.012,51.761C147.162,50.112 148.622,48.895 150.271,49.045Z" style="fill:#b3b3b3;"/>
                </g>
                <g transform="matrix(-1,0,0,1,300,2)">
                    <path d="M150.316,48.547C163.728,49.764 173.344,49.595 179.473,47.828C183.745,46.596 185.945,44.625 185.58,41.262C185.093,36.769 179.586,35.244 174.907,39.072C173.412,40.295 171.205,40.074 169.982,38.579C168.759,37.084 168.98,34.877 170.475,33.654C174.237,30.577 178.242,29.544 181.718,29.877C187.425,30.423 191.896,34.577 192.539,40.508C193.144,46.086 190.904,50.282 185.414,53.025C179.13,56.165 167.43,57.129 149.684,55.518C147.76,55.344 146.34,53.64 146.514,51.716C146.689,49.792 148.393,48.372 150.316,48.547ZM150.226,49.543C148.852,49.418 147.635,50.432 147.51,51.806C147.385,53.181 148.4,54.398 149.774,54.522C167.251,56.109 178.778,55.223 184.967,52.13C190.021,49.605 192.102,45.751 191.545,40.615C190.956,35.179 186.854,31.373 181.623,30.872C178.37,30.56 174.629,31.548 171.108,34.428C170.04,35.302 169.882,36.878 170.756,37.946C171.629,39.014 173.206,39.172 174.274,38.298C179.697,33.862 186.01,35.947 186.574,41.154C186.991,44.995 184.629,47.382 179.75,48.789C173.543,50.578 163.807,50.776 150.226,49.543Z" style="fill:#939393;"/>
                </g>
                <g transform="matrix(-1,0,0,1,300,2)">
                    <path d="M178.365,30.486C179.502,30.303 179.641,34.553 174.59,38.685C173.309,39.733 171.417,39.544 170.369,38.263C169.321,36.981 169.51,35.089 170.791,34.041C173.287,32 175.89,30.883 178.365,30.486Z" style="fill:#939393;"/>
                </g>
                <g transform="matrix(-0.778685,0,0,0.778685,242.909,19.1237)">
                    <path d="M150.348,48.196C157.614,48.855 163.761,49.109 168.839,48.919C173.092,48.76 182.117,54.768 179.882,55.277C173.071,56.828 163.085,57.089 149.652,55.869C147.534,55.677 145.971,53.802 146.163,51.684C146.355,49.567 148.231,48.003 150.348,48.196Z" style="fill:#939393;"/>
                </g>
                <g transform="matrix(-1,0,0,1,300,2)">
                    <path d="M150.271,49.045C159.48,49.881 166.91,50.061 172.661,49.526C175.339,49.277 184.521,52.899 184.164,53.05C177.719,55.784 166.417,56.535 149.729,55.02C148.08,54.871 146.863,53.41 147.012,51.761C147.162,50.112 148.622,48.895 150.271,49.045Z" style="fill:#939393;"/>
                </g>
            </g>
            <g transform="matrix(-1,0,0,1,300,0)">
                <g transform="matrix(-0.778685,0,0,0.778685,242.909,19.1237)">
                    <path d="M150.348,48.196C163.7,49.408 173.273,49.248 179.376,47.489C183.434,46.319 185.576,44.495 185.23,41.3C184.77,37.058 179.548,35.731 175.13,39.345C173.484,40.691 171.055,40.448 169.709,38.802C168.363,37.157 168.606,34.727 170.252,33.381C174.099,30.234 178.197,29.185 181.752,29.525C187.626,30.088 192.228,34.365 192.89,40.47C193.512,46.203 191.215,50.52 185.571,53.34C179.254,56.497 167.493,57.489 149.652,55.869C147.534,55.677 145.971,53.802 146.163,51.684C146.355,49.567 148.231,48.003 150.348,48.196Z" style="fill:#b3b3b3;"/>
                </g>
                <g transform="matrix(-0.778685,0,0,0.778685,242.909,19.1237)">
                    <path d="M150.406,47.556C147.936,47.332 145.748,49.156 145.524,51.626C145.299,54.097 147.123,56.285 149.594,56.509C167.608,58.144 179.48,57.102 185.858,53.915C191.781,50.955 194.181,46.418 193.528,40.4C192.832,33.979 187.993,29.478 181.813,28.886C178.115,28.532 173.847,29.61 169.845,32.884C167.925,34.455 167.641,37.289 169.212,39.209C170.783,41.129 173.617,41.413 175.537,39.842C179.48,36.616 184.181,37.583 184.591,41.37C184.905,44.259 182.869,45.814 179.198,46.872C173.145,48.617 163.65,48.758 150.406,47.556ZM150.29,48.835C163.751,50.057 173.401,49.879 179.553,48.106C184.001,46.824 186.248,44.732 185.868,41.231C185.358,36.531 179.618,34.844 174.724,38.848C173.352,39.97 171.328,39.767 170.206,38.396C169.084,37.024 169.287,35 170.658,33.878C174.35,30.858 178.279,29.838 181.691,30.165C187.26,30.698 191.624,34.751 192.252,40.539C192.843,45.989 190.648,50.086 185.284,52.766C179.028,55.892 167.378,56.834 149.71,55.23C147.945,55.07 146.642,53.507 146.803,51.742C146.963,49.978 148.526,48.675 150.29,48.835Z" style="fill:#939393;"/>
                </g>
                <g transform="matrix(-0.778685,0,0,0.778685,242.909,19.1237)">
                    <path d="M175.241,30.448C177.49,29.593 179.548,35.731 175.13,39.345C173.484,40.691 171.055,40.448 169.709,38.802C168.363,37.157 168.606,34.727 170.252,33.381C171.89,32.041 173.573,31.081 175.241,30.448Z" style="fill:#939393;"/>
                </g>
                <g transform="matrix(-1,0,0,1,300,2)">
                    <path d="M150.271,49.045C163.767,50.27 173.443,50.086 179.612,48.308C184.187,46.989 186.468,44.81 186.077,41.208C185.551,36.358 179.641,34.553 174.59,38.685C173.309,39.733 171.417,39.544 170.369,38.263C169.321,36.981 169.51,35.089 170.791,34.041C174.433,31.062 178.306,30.052 181.671,30.374C187.14,30.898 191.426,34.878 192.042,40.561C192.623,45.918 190.463,49.943 185.19,52.578C178.954,55.694 167.341,56.619 149.729,55.02C148.08,54.871 146.863,53.41 147.012,51.761C147.162,50.112 148.622,48.895 150.271,49.045Z" style="fill:#b3b3b3;"/>
                </g>
                <g transform="matrix(-1,0,0,1,300,2)">
                    <path d="M150.316,48.547C148.393,48.372 146.689,49.792 146.514,51.716C146.34,53.64 147.76,55.344 149.684,55.518C167.43,57.129 179.13,56.165 185.414,53.025C190.904,50.282 193.144,46.086 192.539,40.508C191.896,34.577 187.425,30.423 181.718,29.877C178.242,29.544 174.237,30.577 170.475,33.654C168.98,34.877 168.759,37.084 169.982,38.579C171.205,40.074 173.412,40.295 174.907,39.072C179.586,35.244 185.093,36.769 185.58,41.262C185.945,44.625 183.745,46.596 179.473,47.828C173.344,49.595 163.728,49.764 150.316,48.547ZM150.226,49.543C163.807,50.776 173.543,50.578 179.75,48.789C184.629,47.382 186.991,44.995 186.574,41.154C186.01,35.947 179.697,33.862 174.274,38.298C173.206,39.172 171.629,39.014 170.756,37.946C169.882,36.878 170.04,35.302 171.108,34.428C174.629,31.548 178.37,30.56 181.623,30.872C186.854,31.373 190.956,35.179 191.545,40.615C192.102,45.751 190.021,49.605 184.967,52.13C178.778,55.223 167.251,56.109 149.774,54.522C148.4,54.398 147.385,53.181 147.51,51.806C147.635,50.432 148.852,49.418 150.226,49.543Z" style="fill:#939393;"/>
                </g>
                <g transform="matrix(-1,0,0,1,300,2)">
                    <path d="M178.365,30.486C179.502,30.303 179.641,34.553 174.59,38.685C173.309,39.733 171.417,39.544 170.369,38.263C169.321,36.981 169.51,35.089 170.791,34.041C173.287,32 175.89,30.883 178.365,30.486Z" style="fill:#939393;"/>
                </g>
                <g transform="matrix(-0.778685,0,0,0.778685,242.184,19.1237)">
                    <path d="M150.348,48.196C157.614,48.855 163.761,49.109 168.839,48.919C173.092,48.76 182.117,54.768 179.882,55.277C173.071,56.828 163.085,57.089 149.652,55.869C147.534,55.677 145.971,53.802 146.163,51.684C146.355,49.567 148.231,48.003 150.348,48.196Z" style="fill:#939393;"/>
                </g>
                <g transform="matrix(-1,0,0,1,299.275,2)">
                    <path d="M150.271,49.045C159.48,49.881 166.91,50.061 172.661,49.526C175.339,49.277 184.521,52.899 184.164,53.05C177.719,55.784 166.417,56.535 149.729,55.02C148.08,54.871 146.863,53.41 147.012,51.761C147.162,50.112 148.622,48.895 150.271,49.045Z" style="fill:#939393;"/>
                </g>
            </g>
            <g transform="matrix(0.858391,0.325514,-0.320644,0.845549,33.2155,-31.0322)">
                <g>
                    <circle cx="115.128" cy="39.71" r="1.001" style="fill:#b3b3b3;"/>
                    <path d="M115.128,38.156C114.272,38.156 113.582,38.855 113.582,39.71C113.582,40.565 114.272,41.264 115.128,41.264C115.983,41.264 116.673,40.565 116.673,39.71C116.673,38.855 115.983,38.156 115.128,38.156L115.128,38.156ZM115.128,38.709C115.68,38.709 116.128,39.157 116.128,39.71C116.128,40.262 115.68,40.711 115.128,40.711C114.575,40.711 114.127,40.262 114.127,39.71C114.127,39.157 114.575,38.709 115.128,38.709Z" style="fill:#939393;"/>
                    <g transform="matrix(1,0,0,1,8.09829,0)">
                        <circle cx="115.128" cy="39.71" r="1.001" style="fill:#b3b3b3;"/>
                        <path d="M115.128,38.156C114.272,38.156 113.582,38.855 113.582,39.71C113.582,40.565 114.272,41.264 115.128,41.264C115.983,41.264 116.673,40.565 116.673,39.71C116.673,38.855 115.983,38.156 115.128,38.156L115.128,38.156ZM115.128,38.709C115.68,38.709 116.128,39.157 116.128,39.71C116.128,40.262 115.68,40.711 115.128,40.711C114.575,40.711 114.127,40.262 114.127,39.71C114.127,39.157 114.575,38.709 115.128,38.709Z" style="fill:#939393;"/>
                    </g>
                    <g transform="matrix(1,0,0,1,0,7.8364)">
                        <circle cx="115.128" cy="39.71" r="1.001" style="fill:#b3b3b3;"/>
                        <path d="M115.128,38.156C114.272,38.156 113.582,38.855 113.582,39.71C113.582,40.565 114.272,41.264 115.128,41.264C115.983,41.264 116.673,40.565 116.673,39.71C116.673,38.855 115.983,38.156 115.128,38.156ZM115.128,38.709C115.68,38.709 116.128,39.157 116.128,39.71C116.128,40.262 115.68,40.711 115.128,40.711C114.575,40.711 114.127,40.262 114.127,39.71C114.127,39.157 114.575,38.709 115.128,38.709Z" style="fill:#939393;"/>
                    </g>
                    <g transform="matrix(1,0,0,1,8.09829,7.8364)">
                        <circle cx="115.128" cy="39.71" r="1.001" style="fill:#b3b3b3;"/>
                        <path d="M115.128,38.156C114.272,38.156 113.582,38.855 113.582,39.71C113.582,40.565 114.272,41.264 115.128,41.264C115.983,41.264 116.673,40.565 116.673,39.71C116.673,38.855 115.983,38.156 115.128,38.156ZM115.128,38.709C115.68,38.709 116.128,39.157 116.128,39.71C116.128,40.262 115.68,40.711 115.128,40.711C114.575,40.711 114.127,40.262 114.127,39.71C114.127,39.157 114.575,38.709 115.128,38.709Z" style="fill:#939393;"/>
                    </g>
                </g>
                <g>
                    <g>
                        <g transform="matrix(1.058,0,0,1.058,11.8385,9.86966)">
                            <path d="M101.59,26.828L105.281,28.357L106.81,32.048L105.281,35.74L101.59,37.269L97.898,35.74L96.369,32.048L97.898,28.357L101.59,26.828Z" style="fill:#fe5385;"/>
                        </g>
                        <path d="M119.32,43.777L115.415,39.871L119.32,38.254L119.32,43.777Z" style="fill:#ff2d6a;"/>
                        <path d="M113.797,43.777L119.32,43.777L119.32,49.3L115.415,47.682L113.797,43.777Z" style="fill:#ff3c75;"/>
                        <path d="M115.415,47.682L119.32,43.777L119.32,49.3L115.415,47.682Z" style="fill:#ff2968;"/>
                    </g>
                    <g>
                        <path d="M119.32,38.254L123.226,39.871L124.844,43.777L123.226,47.682L119.32,49.3L119.32,38.254Z" style="fill:#fb9eb9;"/>
                        <path d="M123.226,39.871L119.32,43.777L119.32,38.254L123.226,39.871Z" style="fill:#ff8bad;"/>
                        <path d="M124.844,43.777L123.226,47.682L119.32,49.3L119.32,43.777L124.844,43.777Z" style="fill:#ff83a7;"/>
                        <path d="M123.226,47.682L119.32,49.3L119.32,43.777L123.226,47.682Z" style="fill:#ff6e99;"/>
                    </g>
                </g>
            </g>
            <g transform="matrix(0.515427,0.195457,-0.192533,0.507716,50.5363,6.83038)">
                <g>
                    <circle cx="115.128" cy="39.71" r="1.001" style="fill:#b3b3b3;"/>
                    <path d="M115.128,37.788C114.071,37.788 113.22,38.653 113.22,39.71C113.22,40.767 114.071,41.631 115.128,41.631C116.184,41.631 117.035,40.767 117.035,39.71C117.035,38.653 116.184,37.788 115.128,37.788L115.128,37.788ZM115.128,38.709C115.68,38.709 116.128,39.157 116.128,39.71C116.128,40.262 115.68,40.711 115.128,40.711C114.575,40.711 114.127,40.262 114.127,39.71C114.127,39.157 114.575,38.709 115.128,38.709Z" style="fill:#939393;"/>
                    <g transform="matrix(1,0,0,1,8.09829,0)">
                        <circle cx="115.128" cy="39.71" r="1.001" style="fill:#b3b3b3;"/>
                        <path d="M115.128,37.788C114.071,37.788 113.22,38.653 113.22,39.71C113.22,40.767 114.071,41.631 115.128,41.631C116.184,41.631 117.035,40.767 117.035,39.71C117.035,38.653 116.184,37.788 115.128,37.788L115.128,37.788ZM115.128,38.709C115.68,38.709 116.128,39.157 116.128,39.71C116.128,40.262 115.68,40.711 115.128,40.711C114.575,40.711 114.127,40.262 114.127,39.71C114.127,39.157 114.575,38.709 115.128,38.709Z" style="fill:#939393;"/>
                    </g>
                    <g transform="matrix(1,0,0,1,0,7.8364)">
                        <circle cx="115.128" cy="39.71" r="1.001" style="fill:#b3b3b3;"/>
                        <path d="M115.128,37.788C114.071,37.788 113.22,38.653 113.22,39.71C113.22,40.767 114.071,41.631 115.128,41.631C116.184,41.631 117.035,40.767 117.035,39.71C117.035,38.653 116.184,37.788 115.128,37.788L115.128,37.788ZM115.128,38.709C115.68,38.709 116.128,39.157 116.128,39.71C116.128,40.262 115.68,40.711 115.128,40.711C114.575,40.711 114.127,40.262 114.127,39.71C114.127,39.157 114.575,38.709 115.128,38.709Z" style="fill:#939393;"/>
                    </g>
                    <g transform="matrix(1,0,0,1,8.09829,7.8364)">
                        <circle cx="115.128" cy="39.71" r="1.001" style="fill:#b3b3b3;"/>
                        <path d="M115.128,37.788C114.071,37.788 113.22,38.653 113.22,39.71C113.22,40.767 114.071,41.631 115.128,41.631C116.184,41.631 117.035,40.767 117.035,39.71C117.035,38.653 116.184,37.788 115.128,37.788ZM115.128,38.709C115.68,38.709 116.128,39.157 116.128,39.71C116.128,40.262 115.68,40.711 115.128,40.711C114.575,40.711 114.127,40.262 114.127,39.71C114.127,39.157 114.575,38.709 115.128,38.709Z" style="fill:#939393;"/>
                    </g>
                </g>
                <g>
                    <g>
                        <g transform="matrix(1.058,0,0,1.058,11.8385,9.86966)">
                            <path d="M101.59,26.828L105.281,28.357L106.81,32.048L105.281,35.74L101.59,37.269L97.898,35.74L96.369,32.048L97.898,28.357L101.59,26.828Z" style="fill:#fe5385;"/>
                        </g>
                        <path d="M119.32,43.777L115.415,39.871L119.32,38.254L119.32,43.777Z" style="fill:#ff2d6a;"/>
                        <path d="M113.797,43.777L119.32,43.777L119.32,49.3L115.415,47.682L113.797,43.777Z" style="fill:#ff3c75;"/>
                        <path d="M115.415,47.682L119.32,43.777L119.32,49.3L115.415,47.682Z" style="fill:#ff2968;"/>
                    </g>
                    <g>
                        <path d="M119.32,38.254L123.226,39.871L124.844,43.777L123.226,47.682L119.32,49.3L119.32,38.254Z" style="fill:#fb9eb9;"/>
                        <path d="M123.226,39.871L119.32,43.777L119.32,38.254L123.226,39.871Z" style="fill:#ff8bad;"/>
                        <path d="M124.844,43.777L123.226,47.682L119.32,49.3L119.32,43.777L124.844,43.777Z" style="fill:#ff83a7;"/>
                        <path d="M123.226,47.682L119.32,49.3L119.32,43.777L123.226,47.682Z" style="fill:#ff6e99;"/>
                    </g>
                </g>
            </g>
            <g transform="matrix(-0.858391,0.325514,0.320644,0.845549,266.745,-31.0322)">
                <g>
                    <circle cx="115.128" cy="39.71" r="1.001" style="fill:#b3b3b3;"/>
                    <path d="M115.128,38.156C115.983,38.156 116.673,38.855 116.673,39.71C116.673,40.565 115.983,41.264 115.128,41.264C114.272,41.264 113.582,40.565 113.582,39.71C113.582,38.855 114.272,38.156 115.128,38.156ZM115.128,38.709C115.68,38.709 116.128,39.157 116.128,39.71C116.128,40.262 115.68,40.711 115.128,40.711C114.575,40.711 114.127,40.262 114.127,39.71C114.127,39.157 114.575,38.709 115.128,38.709Z" style="fill:#939393;"/>
                    <g transform="matrix(1,0,0,1,8.09829,0)">
                        <circle cx="115.128" cy="39.71" r="1.001" style="fill:#b3b3b3;"/>
                        <path d="M115.128,38.156C115.983,38.156 116.673,38.855 116.673,39.71C116.673,40.565 115.983,41.264 115.128,41.264C114.272,41.264 113.582,40.565 113.582,39.71C113.582,38.855 114.272,38.156 115.128,38.156ZM115.128,38.709C115.68,38.709 116.128,39.157 116.128,39.71C116.128,40.262 115.68,40.711 115.128,40.711C114.575,40.711 114.127,40.262 114.127,39.71C114.127,39.157 114.575,38.709 115.128,38.709Z" style="fill:#939393;"/>
                    </g>
                    <g transform="matrix(1,0,0,1,0,7.8364)">
                        <circle cx="115.128" cy="39.71" r="1.001" style="fill:#b3b3b3;"/>
                        <path d="M115.128,38.156C115.983,38.156 116.673,38.855 116.673,39.71C116.673,40.565 115.983,41.264 115.128,41.264C114.272,41.264 113.582,40.565 113.582,39.71C113.582,38.855 114.272,38.156 115.128,38.156ZM115.128,38.709C115.68,38.709 116.128,39.157 116.128,39.71C116.128,40.262 115.68,40.711 115.128,40.711C114.575,40.711 114.127,40.262 114.127,39.71C114.127,39.157 114.575,38.709 115.128,38.709Z" style="fill:#939393;"/>
                    </g>
                    <g transform="matrix(1,0,0,1,8.09829,7.8364)">
                        <circle cx="115.128" cy="39.71" r="1.001" style="fill:#b3b3b3;"/>
                        <path d="M115.128,38.156C115.983,38.156 116.673,38.855 116.673,39.71C116.673,40.565 115.983,41.264 115.128,41.264C114.272,41.264 113.582,40.565 113.582,39.71C113.582,38.855 114.272,38.156 115.128,38.156ZM115.128,38.709C115.68,38.709 116.128,39.157 116.128,39.71C116.128,40.262 115.68,40.711 115.128,40.711C114.575,40.711 114.127,40.262 114.127,39.71C114.127,39.157 114.575,38.709 115.128,38.709Z" style="fill:#939393;"/>
                    </g>
                </g>
                <g>
                    <g>
                        <g transform="matrix(1.058,0,0,1.058,11.8385,9.86966)">
                            <path d="M101.59,26.828L105.281,28.357L106.81,32.048L105.281,35.74L101.59,37.269L97.898,35.74L96.369,32.048L97.898,28.357L101.59,26.828Z" style="fill:#fe5385;"/>
                        </g>
                        <path d="M119.32,43.777L115.415,39.871L119.32,38.254L119.32,43.777Z" style="fill:#ff2d6a;"/>
                        <path d="M113.797,43.777L119.32,43.777L119.32,49.3L115.415,47.682L113.797,43.777Z" style="fill:#ff3c75;"/>
                        <path d="M115.415,47.682L119.32,43.777L119.32,49.3L115.415,47.682Z" style="fill:#ff2968;"/>
                    </g>
                    <g>
                        <path d="M119.32,38.254L123.226,39.871L124.844,43.777L123.226,47.682L119.32,49.3L119.32,38.254Z" style="fill:#fb9eb9;"/>
                        <path d="M123.226,39.871L119.32,43.777L119.32,38.254L123.226,39.871Z" style="fill:#ff8bad;"/>
                        <path d="M124.844,43.777L123.226,47.682L119.32,49.3L119.32,43.777L124.844,43.777Z" style="fill:#ff83a7;"/>
                        <path d="M123.226,47.682L119.32,49.3L119.32,43.777L123.226,47.682Z" style="fill:#ff6e99;"/>
                    </g>
                </g>
            </g>
            <g transform="matrix(-0.515427,0.195457,0.192533,0.507716,249.424,6.83038)">
                <g>
                    <circle cx="115.128" cy="39.71" r="1.001" style="fill:#b3b3b3;"/>
                    <path d="M115.128,37.788C116.184,37.788 117.035,38.653 117.035,39.71C117.035,40.767 116.184,41.631 115.128,41.631C114.071,41.631 113.22,40.767 113.22,39.71C113.22,38.653 114.071,37.788 115.128,37.788ZM115.128,38.709C115.68,38.709 116.128,39.157 116.128,39.71C116.128,40.262 115.68,40.711 115.128,40.711C114.575,40.711 114.127,40.262 114.127,39.71C114.127,39.157 114.575,38.709 115.128,38.709Z" style="fill:#939393;"/>
                    <g transform="matrix(1,0,0,1,8.09829,0)">
                        <circle cx="115.128" cy="39.71" r="1.001" style="fill:#b3b3b3;"/>
                        <path d="M115.128,37.788C116.184,37.788 117.035,38.653 117.035,39.71C117.035,40.767 116.184,41.631 115.128,41.631C114.071,41.631 113.22,40.767 113.22,39.71C113.22,38.653 114.071,37.788 115.128,37.788ZM115.128,38.709C115.68,38.709 116.128,39.157 116.128,39.71C116.128,40.262 115.68,40.711 115.128,40.711C114.575,40.711 114.127,40.262 114.127,39.71C114.127,39.157 114.575,38.709 115.128,38.709Z" style="fill:#939393;"/>
                    </g>
                    <g transform="matrix(1,0,0,1,0,7.8364)">
                        <circle cx="115.128" cy="39.71" r="1.001" style="fill:#b3b3b3;"/>
                        <path d="M115.128,37.788C116.184,37.788 117.035,38.653 117.035,39.71C117.035,40.767 116.184,41.631 115.128,41.631C114.071,41.631 113.22,40.767 113.22,39.71C113.22,38.653 114.071,37.788 115.128,37.788ZM115.128,38.709C115.68,38.709 116.128,39.157 116.128,39.71C116.128,40.262 115.68,40.711 115.128,40.711C114.575,40.711 114.127,40.262 114.127,39.71C114.127,39.157 114.575,38.709 115.128,38.709Z" style="fill:#939393;"/>
                    </g>
                    <g transform="matrix(1,0,0,1,8.09829,7.8364)">
                        <circle cx="115.128" cy="39.71" r="1.001" style="fill:#b3b3b3;"/>
                        <path d="M115.128,37.788C116.184,37.788 117.035,38.653 117.035,39.71C117.035,40.767 116.184,41.631 115.128,41.631C114.071,41.631 113.22,40.767 113.22,39.71C113.22,38.653 114.071,37.788 115.128,37.788ZM115.128,38.709C115.68,38.709 116.128,39.157 116.128,39.71C116.128,40.262 115.68,40.711 115.128,40.711C114.575,40.711 114.127,40.262 114.127,39.71C114.127,39.157 114.575,38.709 115.128,38.709Z" style="fill:#939393;"/>
                    </g>
                </g>
                <g>
                    <g>
                        <g transform="matrix(1.058,0,0,1.058,11.8385,9.86966)">
                            <path d="M101.59,26.828L105.281,28.357L106.81,32.048L105.281,35.74L101.59,37.269L97.898,35.74L96.369,32.048L97.898,28.357L101.59,26.828Z" style="fill:#fe5385;"/>
                        </g>
                        <path d="M119.32,43.777L115.415,39.871L119.32,38.254L119.32,43.777Z" style="fill:#ff2d6a;"/>
                        <path d="M113.797,43.777L119.32,43.777L119.32,49.3L115.415,47.682L113.797,43.777Z" style="fill:#ff3c75;"/>
                        <path d="M115.415,47.682L119.32,43.777L119.32,49.3L115.415,47.682Z" style="fill:#ff2968;"/>
                    </g>
                    <g>
                        <path d="M119.32,38.254L123.226,39.871L124.844,43.777L123.226,47.682L119.32,49.3L119.32,38.254Z" style="fill:#fb9eb9;"/>
                        <path d="M123.226,39.871L119.32,43.777L119.32,38.254L123.226,39.871Z" style="fill:#ff8bad;"/>
                        <path d="M124.844,43.777L123.226,47.682L119.32,49.3L119.32,43.777L124.844,43.777Z" style="fill:#ff83a7;"/>
                        <path d="M123.226,47.682L119.32,49.3L119.32,43.777L123.226,47.682Z" style="fill:#ff6e99;"/>
                    </g>
                </g>
            </g>
            <g>
                <g transform="matrix(0.796928,0,0,0.796928,30.0437,0.447876)">
                    <path d="M150.523,2.59L158.131,10.198L150.523,17.805L142.916,10.198L150.523,2.59Z" style="fill:#fe5385;"/>
                </g>
                <path d="M150,14.637L150,2.512L156.063,8.575L150,14.637Z" style="fill:#ff6e99;"/>
                <path d="M156.063,8.575L150,8.575L150,2.512L156.063,8.575Z" style="fill:#ff8bad;"/>
            </g>
            <g>
                <path d="M138.172,15.366L144.622,9.303C145.024,8.925 145.044,8.292 144.666,7.89C144.288,7.488 143.655,7.468 143.252,7.846L136.803,13.909C136.4,14.287 136.381,14.92 136.759,15.322C137.137,15.724 137.77,15.744 138.172,15.366Z" style="fill:#939393;"/>
                <g transform="matrix(-1,0,0,1,300,0)">
                    <path d="M136.803,13.909L143.252,7.846C143.655,7.468 144.288,7.488 144.666,7.89C145.044,8.292 145.024,8.925 144.622,9.303L138.172,15.366C137.77,15.744 137.137,15.724 136.759,15.322C136.381,14.92 136.4,14.287 136.803,13.909Z" style="fill:#939393;"/>
                </g>
                <path d="M149,14.637L149,24.221C149,24.773 149.448,25.221 150,25.221C150.552,25.221 151,24.773 151,24.221L151,14.637C151,14.086 150.552,13.637 150,13.637C149.448,13.637 149,14.086 149,14.637Z" style="fill:#939393;"/>
                <g transform="matrix(0.796928,0,0,0.796928,30.0437,0.447876)">
                    <path d="M151.854,1.259C151.119,0.524 149.927,0.524 149.192,1.259L141.585,8.867C140.85,9.602 140.85,10.794 141.585,11.529L149.192,19.136C149.927,19.871 151.119,19.871 151.854,19.136L159.462,11.529C160.197,10.794 160.197,9.602 159.462,8.867L151.854,1.259ZM150.523,5.252L155.469,10.198C155.469,10.198 150.523,15.143 150.523,15.143C150.523,15.143 145.578,10.198 145.578,10.198C145.578,10.198 150.523,5.252 150.523,5.252Z" style="fill:#b3b3b3;"/>
                </g>
                <g transform="matrix(0.796928,0,0,0.796928,30.0437,0.447876)">
                    <path d="M151.854,1.259C151.119,0.524 149.927,0.524 149.192,1.259L141.585,8.867C140.85,9.602 140.85,10.794 141.585,11.529L149.192,19.136C149.927,19.871 151.119,19.871 151.854,19.136L159.462,11.529C160.197,10.794 160.197,9.602 159.462,8.867L151.854,1.259ZM150.967,2.147L158.574,9.754C158.819,9.999 158.819,10.396 158.574,10.641C158.574,10.641 150.967,18.249 150.967,18.249C150.722,18.494 150.325,18.494 150.08,18.249C150.08,18.249 142.472,10.641 142.472,10.641C142.227,10.396 142.227,9.999 142.472,9.754C142.472,9.754 150.08,2.147 150.08,2.147C150.325,1.902 150.722,1.902 150.967,2.147ZM144.761,9.246C144.781,9.222 144.804,9.197 144.829,9.172C145.634,8.367 149.662,4.34 149.662,4.34C150.156,3.874 150.931,3.885 151.411,4.365L156.356,9.31C156.715,9.669 156.822,10.209 156.628,10.678C156.563,10.835 156.469,10.973 156.353,11.087L156.355,11.087L151.411,16.031C151.175,16.266 150.856,16.398 150.523,16.398C150.523,16.398 150.087,16.481 149.634,16.029L144.69,11.085L145.015,10.951C144.602,10.63 144.323,10.198 144.323,10.198C144.323,9.825 144.487,9.48 144.761,9.246ZM150.523,5.252L155.469,10.198C155.469,10.198 150.523,15.143 150.523,15.143C150.523,15.143 145.578,10.198 145.578,10.198C145.578,10.198 150.523,5.252 150.523,5.252Z" style="fill:#939393;"/>
                </g>
            </g>
            <g transform="matrix(1,0,0,1,0,2)">
                <path d="M151.58,59.67C170.476,59.55 188.934,65.411 204.3,76.41C205.059,76.961 205.972,77.259 206.91,77.26C209.346,77.253 211.347,75.246 211.347,72.81C211.347,71.506 210.774,70.265 209.78,69.42C176.169,41.529 127.001,41.529 93.39,69.42C92.396,70.265 91.823,71.506 91.823,72.81C91.823,75.246 93.824,77.253 96.26,77.26C97.198,77.259 98.111,76.961 98.87,76.41C114.233,65.413 132.687,59.552 151.58,59.67Z" style="fill:#b3b3b3;fill-rule:nonzero;"/>
            </g>
            <path d="M104.991,64.881C133.416,47.661 168.409,48.271 197.095,64.881L193.419,69.743C180.554,63.068 166.198,59.581 151.58,59.674C136.366,59.578 121.435,63.361 108.173,70.582L104.991,64.881Z" style="fill:#c2c2c2;fill-rule:nonzero;"/>
            <path d="M131.163,60.514L130.432,56.641C139.709,53.732 166.245,48.44 195.099,65.768L193.419,68.356C180.554,61.681 166.198,58.194 151.58,58.287C144.673,58.243 131.163,60.514 131.163,60.514Z" style="fill:#ccc;fill-rule:nonzero;"/>
            <g transform="matrix(1,0,0,1,0,2)">
                <path d="M151.577,60.17C151.579,60.17 151.581,60.17 151.583,60.17C170.374,60.051 188.729,65.879 204.009,76.817C204.85,77.428 205.866,77.759 206.909,77.76C206.91,77.76 206.911,77.76 206.911,77.76C209.622,77.752 211.847,75.52 211.847,72.81C211.847,71.359 211.209,69.979 210.104,69.039C210.102,69.038 210.101,69.037 210.099,69.035C176.304,40.991 126.866,40.991 93.071,69.035C93.069,69.037 93.068,69.038 93.066,69.039C91.961,69.979 91.323,71.359 91.323,72.81C91.323,75.52 93.548,77.752 96.259,77.76C96.259,77.76 96.26,77.76 96.261,77.76C97.304,77.759 98.32,77.428 99.164,76.814C114.438,65.881 132.79,60.052 151.577,60.17ZM151.58,59.17C132.583,59.052 114.026,64.945 98.579,76.003C98.578,76.004 98.577,76.005 98.576,76.006C97.903,76.495 97.092,76.759 96.26,76.76C94.098,76.753 92.323,74.972 92.323,72.81C92.323,71.653 92.831,70.553 93.712,69.803C127.137,42.067 176.033,42.067 209.458,69.803C210.339,70.553 210.847,71.653 210.847,72.81C210.847,74.972 209.072,76.753 206.91,76.76C206.078,76.759 205.267,76.495 204.594,76.006C204.593,76.005 204.592,76.004 204.591,76.003C189.14,64.944 170.58,59.05 151.58,59.17L151.58,59.17Z" style="fill:#939393;"/>
            </g>
            <path d="M150,57.791L134.413,52.118C145.55,50.395 155.175,50.528 166.312,52.118L150,57.791Z" style="fill:#939393;"/>
            <path d="M150,57.791L134.413,52.118C145.55,50.395 155.175,50.528 166.312,52.118L150,57.791ZM150.015,55.668L143.053,53.134C147.848,52.781 152.493,52.797 157.28,53.142L150.015,55.668Z" style="fill:#939393;"/>
            <g>
                <g>
                    <g transform="matrix(1.08649,0,0,1,-22.7352,5.53092)">
                        <path d="M158.985,19.984C163.869,7.947 173.636,7.947 178.519,12.002C183.403,16.058 183.403,24.169 178.519,32.28C175.101,38.363 166.31,44.446 158.985,48.502C151.66,44.446 142.869,38.363 139.451,32.28C134.567,24.169 134.567,16.058 139.451,12.002C144.335,7.947 154.102,7.947 158.985,19.984Z" style="fill:#fe5385;"/>
                    </g>
                    <path d="M127.606,18.581C127.962,18.207 128.352,17.857 128.776,17.533C134.082,13.478 144.694,13.478 150,25.515C151.061,23.109 150,32.953 150,32.953L127.606,18.581Z" style="fill:#ff2d6a;"/>
                    <path d="M173.78,32.953C173.142,34.55 172.29,36.18 171.223,37.811C167.509,43.894 157.959,49.977 150,54.033C142.041,49.977 132.491,43.894 128.776,37.811C127.71,36.18 126.858,34.55 126.22,32.953L173.78,32.953Z" style="fill:#ff2968;"/>
                    <path d="M150,32.953L136.768,45.921C133.363,43.345 130.466,40.578 128.776,37.811C127.71,36.18 126.858,34.55 126.22,32.953L150,32.953Z" style="fill:#ff3c75;"/>
                </g>
                <g>
                    <path d="M150,25.514C155.306,13.478 165.918,13.478 171.223,17.533C176.53,21.589 176.53,29.7 171.223,37.811C167.509,43.894 157.959,49.977 150,54.032L150,25.514Z" style="fill:#ff8bad;"/>
                    <path d="M174.231,21.322C176.19,25.69 175.188,31.75 171.223,37.811C167.509,43.894 157.959,49.977 150,54.032L150,32.953L174.231,21.322Z" style="fill:#fb9eb9;"/>
                    <path d="M150,32.953L173.78,32.953C173.142,34.55 172.29,36.18 171.223,37.811C167.509,43.894 157.959,49.977 150,54.032L150,32.953Z" style="fill:#ff6e99;"/>
                    <path d="M163.759,45.517L150,32.953L173.78,32.953C173.142,34.55 172.29,36.18 171.223,37.811C169.622,40.434 166.935,43.057 163.759,45.517Z" style="fill:#ff83a7;"/>
                    <path d="M154.716,29.731L170.388,22.065C169.551,20.844 168.383,19.931 166.868,19.339L154.716,29.731Z" style="fill:#ffa4bf;"/>
                </g>
                <path d="M164.798,15.144C167.254,15.341 169.514,16.227 171.223,17.533C172.233,18.305 173.05,19.223 173.675,20.259L157.032,50.111C154.674,51.552 152.272,52.875 150,54.033C148.289,53.161 146.504,52.195 144.72,51.156L164.798,15.144ZM156.262,17.473L139.363,47.784C137.547,46.543 135.816,45.241 134.259,43.903L147.175,20.737C148.219,22.058 149.174,23.641 150,25.515C151.671,21.723 153.869,19.126 156.262,17.473Z" style="fill:#ffd5e1;fill-opacity:0.25;"/>
                <g transform="matrix(1.08649,0,0,1,-22.7352,5.53092)">
                    <path d="M158.985,13.961C157.078,11.136 154.856,9.252 152.579,8.091C147.207,5.352 141.404,6.605 137.774,9.619C131.924,14.477 131.286,24.18 137.125,33.897C140.76,40.324 149.977,46.881 157.731,51.175L158.985,51.869L160.239,51.175C167.997,46.879 177.218,40.319 180.858,33.875C186.684,24.171 186.044,14.475 180.196,9.619C176.566,6.605 170.763,5.352 165.391,8.091C163.114,9.252 160.892,11.136 158.985,13.962L158.985,13.961ZM156.458,21.194L158.985,27.422L161.512,21.194C165.387,11.642 172.967,11.167 176.842,14.386L176.842,14.386C180.76,17.639 180.126,24.131 176.209,30.637L176.185,30.676C173.145,36.086 165.594,41.348 158.985,45.123C152.376,41.348 144.825,36.086 141.808,30.716L141.785,30.677C137.844,24.131 137.21,17.639 141.128,14.386C145.003,11.167 152.583,11.642 156.458,21.194Z" style="fill:#b3b3b3;"/>
                </g>
                <g transform="matrix(1.08649,0,0,1,-22.7352,5.53092)">
                    <path d="M158.985,13.133C157.112,10.525 154.967,8.756 152.774,7.638C147.23,4.812 141.241,6.111 137.495,9.222C131.483,14.214 130.739,24.18 136.737,34.165C140.408,40.652 149.696,47.287 157.523,51.62C157.523,51.62 158.776,52.314 158.776,52.314C158.907,52.387 159.063,52.387 159.194,52.314L160.448,51.62C168.278,47.285 177.57,40.646 181.247,34.143C187.231,24.171 186.485,14.212 180.475,9.222C176.729,6.111 170.74,4.812 165.196,7.638C163.003,8.756 160.858,10.525 158.985,13.133ZM158.614,14.257L158.627,14.275C158.647,14.302 158.669,14.326 158.693,14.347L158.709,14.361L158.731,14.378L158.744,14.388L158.753,14.394L158.772,14.404L158.777,14.407L158.8,14.419C158.809,14.424 158.818,14.428 158.828,14.431L158.851,14.44L158.859,14.442L158.866,14.444L158.877,14.448L158.89,14.451L158.904,14.454L158.913,14.455L158.921,14.457L158.93,14.458L158.943,14.459L158.953,14.46L158.958,14.461L158.985,14.462L159.013,14.461C159.149,14.452 159.275,14.378 159.356,14.257C161.211,11.508 163.371,9.673 165.587,8.543C170.786,5.893 176.403,7.099 179.917,10.016C185.602,14.738 186.137,24.168 180.472,33.602C180.47,33.606 180.468,33.61 180.465,33.614C176.861,39.996 167.714,46.475 160.03,50.729C160.03,50.729 158.985,51.307 158.985,51.307C158.985,51.307 157.94,50.729 157.94,50.729C150.259,46.477 141.117,40.001 137.517,33.635C137.515,33.632 137.513,33.628 137.511,33.624C131.833,24.176 132.365,14.74 138.054,10.016C141.567,7.099 147.184,5.893 152.383,8.543C154.599,9.673 156.759,11.508 158.614,14.257ZM141.419,30.98L141.415,30.977C144.466,36.407 152.087,41.748 158.771,45.566C158.905,45.643 159.066,45.643 159.2,45.566C165.883,41.748 173.504,36.408 176.578,30.937C176.494,31.086 176.345,31.176 176.185,31.176L176.249,31.135C176.388,31.122 176.515,31.041 176.593,30.912L176.593,30.912L176.593,30.912L176.594,30.911C178.603,27.574 179.761,24.238 179.923,21.322C180.092,18.3 179.204,15.717 177.122,13.989C177.279,14.119 177.342,14.343 177.278,14.546C177.215,14.749 177.04,14.886 176.842,14.886L176.842,14.886C177.04,14.886 177.215,14.749 177.278,14.546C177.342,14.343 177.279,14.119 177.122,13.989C173.079,10.631 165.134,11.026 161.091,20.992C161.091,20.992 158.985,26.182 158.985,26.182L156.88,20.992C152.836,11.026 144.892,10.631 140.848,13.989C138.766,15.718 137.879,18.3 138.05,21.327C138.216,24.248 139.379,27.594 141.4,30.95C141.406,30.96 141.413,30.97 141.419,30.98ZM176.563,14.783C176.643,14.85 176.741,14.886 176.842,14.886L176.842,14.886C176.741,14.886 176.643,14.85 176.563,14.783C178.399,16.307 179.153,18.597 179.004,21.261C178.85,24.031 177.732,27.194 175.823,30.364L176.209,31.137C176.209,31.137 175.823,30.365 175.823,30.365C175.823,30.365 175.8,30.402 175.8,30.402C175.8,30.402 176.185,31.176 176.185,31.176C176.019,31.176 175.865,31.079 175.784,30.921C175.702,30.763 175.705,30.57 175.792,30.416C172.819,35.707 165.469,40.835 158.986,44.558C152.502,40.835 145.152,35.708 142.2,30.456L142.201,30.457L142.2,30.455C142.197,30.45 142.182,30.423 142.179,30.417L142.17,30.403C140.25,27.213 139.126,24.041 138.969,21.266C138.818,18.597 139.572,16.307 141.407,14.783C145.115,11.704 152.329,12.256 156.037,21.396L158.564,27.624C158.638,27.805 158.803,27.922 158.985,27.922C159.167,27.922 159.333,27.805 159.406,27.624L161.933,21.396C165.641,12.256 172.855,11.704 176.563,14.783ZM142.262,30.638C142.278,30.748 142.26,30.861 142.209,30.961C142.128,31.119 141.974,31.216 141.808,31.216C141.808,31.216 141.86,31.194 141.93,31.151C142.039,31.112 142.133,31.028 142.19,30.914L142.191,30.912C142.242,30.834 142.274,30.743 142.262,30.638ZM141.808,31.216L141.745,31.174L141.737,31.174L141.808,31.216Z" style="fill:#939393;"/>
                </g>
            </g>
        </g>
        <path d="M123.716,29.318C129.757,43.395 138.241,48.808 150,55.055C135.908,49.649 126.317,40.386 123.716,29.318Z" style="fill:#939393;"/>
        <g>
            <path d="M150.611,2.695L155.951,8.068C156.354,8.458 156.417,8.629 156.006,9.024L150.593,14.434L155.208,9.392C155.627,8.828 155.599,8.264 155.165,7.701L150.611,2.695Z" style="fill:#cecece;"/>
            <path d="M179.066,33.876C186.488,33.937 191.093,40.136 189.225,47.874C193.782,39.252 186.37,32.317 179.066,33.876Z" style="fill:#cecece;"/>
            <g transform="matrix(0.87507,0,0,0.87507,39.6809,13.6282)">
                <path d="M179.066,33.876C186.488,33.937 191.093,40.136 189.225,47.874C193.782,39.252 186.37,32.317 179.066,33.876Z" style="fill:#cecece;"/>
            </g>
            <path d="M150,24.221C147.547,17.866 143.487,14.468 137.487,14.637C142.38,16.101 146.526,19.353 150,24.221Z" style="fill:#cecece;"/>
            <path d="M162.513,14.637C174.299,14.637 179.335,27.378 171.223,37.811C181.491,26.877 175.646,11.606 162.513,14.637Z" style="fill:#cecece;"/>
        </g>
    </g>
</svg>
