<?xml version="1.0" encoding="UTF-8" standalone="no"?>
<!DOCTYPE svg PUBLIC "-//W3C//DTD SVG 1.1//EN" "http://www.w3.org/Graphics/SVG/1.1/DTD/svg11.dtd">
<svg width="100%" height="100%" viewBox="0 0 280 62" version="1.1" xmlns="http://www.w3.org/2000/svg" xmlns:xlink="http://www.w3.org/1999/xlink" xml:space="preserve" xmlns:serif="http://www.serif.com/" style="fill-rule:evenodd;clip-rule:evenodd;stroke-linejoin:round;stroke-miterlimit:2;">
    <g id="banner_31_2" transform="matrix(1,0,0,1,0,-8.75)">
        <path d="M280,47.751L-0,47.751L-0,65.286C-0,67.888 2.112,70 4.714,70L275.286,70C277.888,70 280,67.888 280,65.286L280,47.751Z" style="fill:#804d1b;"/>
        <path d="M-0,60.162C-0,62.211 1.664,63.875 3.713,63.875L276.287,63.875C278.336,63.875 280,62.211 280,60.162L280,12.463C280,10.414 278.336,8.75 276.287,8.75L3.713,8.75C1.664,8.75 -0,10.414 -0,12.463L-0,60.162Z" style="fill:url(#_Radial1);"/>
        <g>
            <g opacity="0.75">
                <g transform="matrix(1,0,0,1,0,8.75)">
                    <path d="M17.888,38.758C17.926,38.737 18.645,38.247 18.645,38.13C18.645,38.019 18.011,37.579 17.871,37.507C17.797,37.468 17.708,37.478 17.624,37.471C17.215,37.435 16.801,37.446 16.386,37.461C15.975,37.476 15.564,37.52 15.152,37.563C14.637,37.618 14.123,37.688 13.614,37.773C13.098,37.86 12.588,37.963 12.088,38.083C11.706,38.174 11.462,38.547 11.529,38.933C11.597,39.319 11.954,39.586 12.344,39.542C12.344,39.542 15.39,39.245 17.125,38.975C17.252,38.955 17.373,38.941 17.481,38.907C17.599,38.869 17.858,38.775 17.888,38.758ZM6.698,37.828C6.64,37.768 6.57,37.706 6.485,37.642C6.46,37.623 6.43,37.617 6.395,37.61C5.962,37.524 5.187,37.548 5.187,37.548C4.838,37.538 4.529,37.773 4.445,38.111C4.361,38.45 4.524,38.801 4.836,38.956C5.195,39.128 5.724,39.246 6.287,39.113C6.421,39.081 6.582,39.083 6.667,38.967C6.692,38.934 6.713,38.907 6.731,38.884L6.787,38.957C6.807,38.982 6.833,38.991 6.871,39.004C7.009,39.052 7.216,39.066 7.441,39.086C8.043,39.14 8.776,39.134 8.776,39.134C9.087,39.142 9.37,38.957 9.486,38.669C9.602,38.38 9.526,38.051 9.296,37.842C9.074,37.641 8.769,37.51 8.392,37.465C8.057,37.426 7.64,37.427 7.212,37.512C7.127,37.529 7.046,37.557 6.961,37.581C6.936,37.59 6.908,37.593 6.886,37.608C6.774,37.688 6.75,37.746 6.698,37.828ZM26.6,34.539C26.541,34.591 24.628,35.3 24.096,35.453C23.012,35.765 21.881,36.144 21.881,36.144C21.506,36.263 21.289,36.656 21.389,37.037C21.489,37.418 21.871,37.654 22.257,37.573C22.965,37.425 23.693,37.253 24.408,37.036C25.121,36.82 25.821,36.56 26.479,36.242C26.475,36.244 28.057,35.742 28.057,35.742C28.283,35.671 28.46,35.497 28.535,35.273C28.611,35.049 28.574,34.802 28.438,34.61C28.157,34.235 27.746,34.079 27.262,34.217C27.048,34.278 26.792,34.371 26.6,34.539ZM35.501,29.024C35.229,28.768 34.509,29.024 34.509,29.024C34.457,29.042 34.401,29.064 34.341,29.091C34.266,29.126 34.197,29.18 34.122,29.233C32.978,30.046 31.088,31.598 31.088,31.598C30.786,31.837 30.717,32.268 30.929,32.589C31.142,32.911 31.565,33.017 31.904,32.832C32.334,32.597 32.75,32.311 33.15,31.998C33.709,31.561 34.24,31.072 34.754,30.622C34.895,30.483 35.25,30.205 35.463,29.96C35.619,29.781 35.828,29.334 35.501,29.024ZM63.631,30.264C63.028,30.65 63.167,31.113 63.417,31.353C63.551,31.482 63.794,31.643 63.964,31.729C64.597,32.051 65.337,32.205 66.062,32.249C66.588,32.269 67.11,32.217 67.599,32.086C68.136,31.943 68.632,31.705 69.055,31.371C69.301,31.176 69.397,30.848 69.296,30.551C69.195,30.254 68.919,30.052 68.605,30.047C68.605,30.047 66.028,29.964 64.548,30.01C64.451,30.013 64.359,30.012 64.274,30.03C63.948,30.099 63.749,30.188 63.631,30.264ZM72.321,28.045C72.184,28.349 71.87,29.214 72.067,29.347C72.302,29.506 72.964,29.343 73.125,29.298C73.405,29.221 73.583,28.954 73.798,28.773C74.56,28.133 75.221,27.436 75.799,26.516C75.881,26.382 76.301,25.682 76.345,25.287C76.404,24.748 76.158,24.409 75.697,24.283C75.405,24.203 75.094,24.309 74.911,24.55C74.911,24.55 73.31,26.586 72.468,27.811C72.413,27.891 72.357,27.965 72.321,28.045ZM54.981,23.662C54.728,23.763 54.708,24.347 54.725,24.579C54.765,25.136 55.08,25.99 55.256,26.352C55.606,27 56.059,27.467 56.577,27.842C57.265,28.341 58.078,28.661 58.892,29.082C59.211,29.246 59.602,29.158 59.821,28.874C60.04,28.59 60.024,28.19 59.783,27.923C59.783,27.923 57.782,25.645 56.564,24.401C56.485,24.32 56.412,24.24 56.33,24.179C56.03,23.952 55.375,23.504 54.981,23.662ZM41.398,22.13C41.398,22.13 40.301,23.073 40.071,23.3C39.89,23.412 39.709,23.563 39.515,23.716C38.48,24.533 37.264,25.613 37.264,25.613C36.982,25.852 36.919,26.263 37.117,26.576C37.314,26.888 37.712,27.007 38.049,26.854C38.531,26.636 38.969,26.346 39.378,26.012C40.213,25.333 40.925,24.463 41.734,23.771C41.605,23.881 42.402,23.211 42.402,23.211C42.883,22.929 43.374,22.417 43.521,22.259L43.536,22.245C43.598,22.187 43.64,22.141 43.658,22.118C44.056,21.62 43.689,21.207 43.583,21.112C43.312,20.866 42.9,20.858 42.62,21.095C42.62,21.095 41.815,21.6 41.398,22.13ZM75.089,21.285C75.277,21.648 75.747,22.442 76.01,22.407C76.514,22.341 76.679,21.32 76.687,21.226C76.721,20.802 76.742,20.323 76.73,19.827C76.719,19.347 76.663,18.854 76.578,18.381C76.425,17.546 76.139,16.775 75.669,16.203C75.295,15.748 74.807,15.41 74.175,15.245C73.91,15.177 73.63,15.259 73.444,15.459C73.258,15.659 73.197,15.946 73.285,16.204C73.285,16.204 74.259,19.24 74.935,20.941C74.984,21.066 75.035,21.181 75.089,21.285ZM53.347,20.186C53.437,20.306 54.01,21.011 54.45,21.026C55.052,21.048 55.064,20.046 55.063,19.992C55.056,19.673 55.046,19.221 55.016,18.73C54.934,17.401 54.762,15.796 54.762,15.796C54.726,15.401 54.385,15.104 53.989,15.122C53.592,15.14 53.28,15.466 53.28,15.863C53.281,16.684 53.151,17.501 53.098,18.321C53.074,18.71 53.065,19.099 53.089,19.489C53.118,19.749 53.196,19.986 53.347,20.186ZM50.997,16.491C51.036,16.447 51.243,16.122 51.264,15.985C51.264,15.985 51.368,15.642 51.048,15.374C50.838,15.198 50.319,15.314 50.276,15.324C49.78,15.429 49.072,15.827 48.968,15.882C48.565,16.12 48.176,16.375 47.797,16.642C46.944,17.242 46.135,17.899 45.281,18.502C44.956,18.733 44.871,19.179 45.088,19.513C45.305,19.847 45.747,19.95 46.089,19.747C46.089,19.747 48.736,18.228 50.205,17.274C50.301,17.212 50.395,17.156 50.471,17.088C50.755,16.834 50.892,16.612 50.997,16.491ZM70.49,14.445C71.148,14.542 71.8,14.585 71.908,14.187C71.958,14.006 71.763,13.558 71.68,13.36C71.598,13.162 71.383,13.052 71.215,12.916C70.598,12.419 69.835,12.087 69.052,11.819C68.511,11.646 67.951,11.518 67.396,11.429C66.824,11.337 66.256,11.287 65.719,11.269C65.353,11.258 65.034,11.514 64.966,11.874C64.898,12.233 65.102,12.588 65.446,12.711C65.446,12.711 68.399,13.816 70.129,14.349C70.256,14.388 70.374,14.428 70.49,14.445ZM60.285,12.845C60.361,12.836 60.429,12.824 60.487,12.811C60.788,12.744 61.305,12.453 61.296,12.019C61.288,11.645 60.637,11.568 60.413,11.531C60.321,11.516 60.195,11.498 60.063,11.48C59.734,11.435 59.384,11.4 59.302,11.399C58.944,11.412 58.599,11.485 58.262,11.595C57.614,11.806 57.003,12.174 56.383,12.43C56.025,12.579 55.842,12.979 55.963,13.347C56.084,13.716 56.469,13.929 56.845,13.837C56.845,13.837 58.475,13.49 59.589,13.163C59.695,13.131 59.794,13.095 59.887,13.06C59.967,13.03 60.043,13.008 60.107,12.97C60.178,12.927 60.237,12.885 60.285,12.845ZM57.874,8.423C57.886,8.369 57.933,8.167 57.95,8.062C57.95,8.062 58.054,7.484 57.728,7.326C57.414,7.174 56.921,7.442 56.893,7.457C56.412,7.707 55.64,8.723 55.56,8.827C55.051,9.545 54.591,10.267 54.3,11.051C54.091,11.614 53.968,12.209 53.967,12.854C53.967,13.188 54.19,13.481 54.512,13.57C54.834,13.659 55.176,13.522 55.347,13.235C55.347,13.235 56.596,11.244 57.39,9.811C57.466,9.675 57.53,9.541 57.593,9.416C57.641,9.322 57.695,9.236 57.725,9.147C57.841,8.81 57.844,8.57 57.874,8.423Z" style="fill:#fff;"/>
                </g>
            </g>
            <g transform="matrix(0.824541,0.134249,-0.126211,0.77517,9.5038,2.19628)">
                <g opacity="0.75">
                    <g transform="matrix(1.18148,-0.204616,0.192364,1.25672,-9.96781,10.1808)">
                        <path d="M14.172,32.503C14.174,32.503 14.176,32.504 14.178,32.504C14.206,32.512 14.213,32.485 14.235,32.469C14.25,32.457 14.252,32.44 14.257,32.415C14.262,32.392 14.25,32.364 14.249,32.351C14.233,32.203 14.219,32.053 14.195,31.904C14.179,31.803 14.159,31.702 14.131,31.604C14.123,31.575 14.131,31.539 14.133,31.505C14.136,31.463 14.133,31.422 14.121,31.39C14.108,31.357 14.086,31.33 14.051,31.31C14.018,31.292 13.969,31.289 13.915,31.303C13.849,31.32 13.77,31.363 13.737,31.375C13.6,31.428 13.444,31.527 13.292,31.584C13.233,31.606 13.175,31.623 13.118,31.623C13.071,31.623 13.049,31.645 13.038,31.66C13.019,31.684 13.01,31.715 13.024,31.752C13.029,31.764 13.038,31.78 13.056,31.797C13.083,31.822 13.151,31.863 13.18,31.884L13.713,32.211C13.838,32.298 13.961,32.39 14.116,32.497C14.132,32.51 14.154,32.512 14.172,32.503ZM15.422,25.664C15.374,25.692 15.164,25.797 15.166,25.889C15.021,25.944 14.925,26.437 14.925,26.437L14.625,27.303C14.434,27.919 14.191,28.543 14.011,29.174C13.929,29.459 13.86,29.746 13.813,30.034C13.788,30.183 13.842,30.275 13.89,30.335C13.945,30.403 14.018,30.451 14.114,30.47C14.163,30.479 14.231,30.482 14.309,30.456C14.335,30.448 14.408,30.408 14.435,30.393L14.649,30.316L15.601,30.123L15.704,30.105C15.712,30.178 15.718,30.25 15.723,30.323C15.744,30.636 15.742,30.953 15.745,31.261L15.739,31.725L15.727,31.882C15.724,31.925 15.713,32.028 15.716,32.053C15.734,32.206 15.82,32.281 15.873,32.319C15.955,32.376 16.048,32.4 16.155,32.38C16.202,32.372 16.321,32.354 16.413,32.198C16.588,31.9 16.739,31.587 16.875,31.266C17.175,30.56 17.407,29.815 17.731,29.129C17.808,28.965 17.883,28.795 17.967,28.631C18.018,28.532 18.073,28.434 18.134,28.341C18.176,28.278 18.346,28.102 18.389,27.997C18.423,27.914 18.429,27.837 18.421,27.775C18.402,27.626 18.325,27.544 18.235,27.494C18.184,27.464 18.122,27.444 18.05,27.444C18.012,27.444 17.907,27.477 17.854,27.494L17.573,27.528C17.443,27.559 17.313,27.598 17.183,27.64C17.338,27.319 17.527,27.014 17.685,26.695C17.763,26.538 17.831,26.377 17.892,26.212C17.904,26.18 18.045,25.899 18.079,25.779C18.128,25.608 18.063,25.49 18.026,25.447C17.967,25.38 17.864,25.317 17.719,25.318C17.599,25.319 17.405,25.38 17.35,25.387C17.018,25.429 16.692,25.496 16.362,25.539C16.229,25.557 16.095,25.57 15.96,25.576C15.884,25.58 15.807,25.586 15.732,25.601C15.64,25.618 15.433,25.657 15.422,25.664ZM13.977,31.471C13.949,31.512 13.829,31.518 13.798,31.531C13.661,31.587 13.508,31.69 13.356,31.749C13.345,31.754 13.334,31.758 13.322,31.762L13.529,31.89C13.632,31.953 13.721,32.016 13.807,32.085C13.901,32.162 13.991,32.245 14.096,32.338C14.082,32.202 14.069,32.064 14.047,31.928C14.032,31.833 14.012,31.739 13.985,31.647C13.978,31.625 13.975,31.6 13.975,31.574C13.974,31.546 13.977,31.516 13.978,31.488C13.978,31.482 13.978,31.477 13.977,31.471ZM21.771,23.708C21.743,23.715 21.456,24.161 21.427,24.197L21.066,24.753C20.828,25.115 20.521,25.45 20.267,25.811C20.146,25.984 20.039,26.163 19.948,26.348L19.76,26.756C19.733,26.792 19.602,26.971 19.584,27.066C19.566,27.161 19.585,27.245 19.617,27.315C19.669,27.425 19.791,27.538 19.988,27.591C20.197,27.647 20.565,27.633 20.654,27.641C20.745,27.65 20.829,27.667 20.913,27.688L21.204,27.779L21.067,27.912C20.836,28.131 20.617,28.369 20.41,28.616C20.107,28.979 19.828,29.364 19.564,29.744L19.115,30.359L18.972,30.566C18.939,30.614 18.856,30.731 18.845,30.762C18.763,30.978 18.86,31.122 18.933,31.198C18.987,31.255 19.152,31.422 19.433,31.274C19.512,31.232 19.588,31.183 19.663,31.129C19.794,31.034 19.918,30.923 20.049,30.837L21.456,29.888L24.326,28.029C24.419,27.965 24.565,27.908 24.653,27.821C24.713,27.762 24.76,27.695 24.791,27.619C24.833,27.517 24.873,27.291 24.65,27.108C24.561,27.036 24.293,26.905 24.259,26.89L23.339,26.476L24.396,25.338L24.902,24.839L25.068,24.689C25.108,24.66 25.205,24.591 25.23,24.562C25.31,24.467 25.332,24.368 25.332,24.288C25.333,24.152 25.296,23.981 25.058,23.889C24.971,23.855 24.871,23.834 24.766,23.823C24.614,23.809 24.445,23.821 24.314,23.813C23.905,23.791 23.495,23.813 23.087,23.795C22.93,23.788 22.773,23.775 22.617,23.748C22.504,23.729 21.967,23.656 21.771,23.708ZM22.774,30.911C22.804,30.925 22.828,30.94 22.865,30.948C22.917,30.959 22.972,30.956 23.027,30.959C23.386,30.977 23.776,31.028 24.142,31.034C24.361,31.038 24.573,31.019 24.766,30.956C24.784,30.95 24.83,30.925 24.839,30.859C24.846,30.806 24.842,30.67 24.841,30.658C24.839,30.606 24.832,30.555 24.823,30.505C24.804,30.4 24.772,30.297 24.762,30.191C24.755,30.123 24.784,30.052 24.771,29.989C24.763,29.945 24.744,29.903 24.703,29.867C24.685,29.851 24.648,29.83 24.593,29.84C24.499,29.857 24.283,29.958 24.253,29.969C24.068,30.03 23.84,30.143 23.611,30.276C23.285,30.466 22.955,30.695 22.726,30.841C22.706,30.853 22.7,30.879 22.712,30.899C22.724,30.919 22.75,30.926 22.77,30.914L22.774,30.911ZM24.589,30.015C24.493,30.033 24.324,30.102 24.299,30.109C24.162,30.153 24.001,30.229 23.832,30.316C23.56,30.455 23.267,30.625 23.023,30.767C23.118,30.763 23.216,30.767 23.314,30.773C23.767,30.799 24.245,30.894 24.648,30.789C24.648,30.741 24.649,30.671 24.648,30.664C24.647,30.622 24.641,30.58 24.634,30.539C24.615,30.429 24.584,30.32 24.574,30.209C24.569,30.149 24.588,30.088 24.589,30.032C24.589,30.026 24.589,30.021 24.589,30.015ZM17.299,25.984C17.007,26.017 16.718,26.065 16.426,26.095C16.277,26.11 16.127,26.121 15.975,26.123C15.892,26.119 15.809,26.124 15.726,26.128C15.732,26.218 15.719,26.292 15.709,26.331L15.629,26.638L15.327,27.519C15.166,28.046 14.965,28.578 14.799,29.116C14.754,29.262 14.712,29.408 14.674,29.554C14.674,29.554 16.144,29.303 16.195,29.329C16.299,29.384 16.45,30.041 16.466,30.273L16.467,30.288C16.658,29.79 16.842,29.288 17.068,28.814C17.141,28.662 17.213,28.505 17.291,28.352C17.176,28.388 16.357,28.53 16.309,28.501C16.207,28.438 17.299,25.984 17.299,25.984ZM21.975,24.502C21.975,24.502 21.583,25.067 21.583,25.067C21.368,25.451 21.091,25.819 20.852,26.2C20.759,26.349 20.671,26.498 20.6,26.655C20.561,26.741 20.534,26.83 20.5,26.916C20.6,26.897 22.107,27.265 22.168,27.378C22.241,27.516 21.182,28.96 20.979,29.21L23.604,27.507L22.799,27.144C22.799,27.144 22.146,26.796 22.132,26.713C22.118,26.632 22.117,26.525 22.196,26.403C22.232,26.347 22.28,26.292 22.336,26.24C22.437,26.145 22.589,26.061 22.675,25.971L23.799,24.761L23.935,24.627C23.64,24.623 23.344,24.631 23.049,24.617C22.858,24.608 22.667,24.591 22.477,24.558C22.412,24.546 21.975,24.502 21.975,24.502ZM12.028,25.964C12.023,25.964 11.959,25.971 11.929,26.011C11.885,26.034 11.851,26.069 11.879,26.114C11.879,26.116 11.879,26.117 11.88,26.117L11.973,26.229L12.137,26.507C12.236,26.678 12.289,26.975 12.409,27.188C12.453,27.267 12.5,27.343 12.568,27.385C12.598,27.403 12.626,27.413 12.658,27.42C12.676,27.437 12.703,27.444 12.728,27.435C12.761,27.422 12.777,27.384 12.765,27.351C12.782,27.33 12.785,27.348 12.792,27.322C12.795,27.314 12.791,27.305 12.79,27.296C12.764,27.171 12.755,27.031 12.772,26.885C12.801,26.625 12.876,26.352 12.901,26.135C12.908,26.07 12.944,25.981 12.96,25.901C12.97,25.848 12.973,25.797 12.965,25.754C12.957,25.716 12.92,25.652 12.826,25.663C12.765,25.669 12.607,25.73 12.601,25.732C12.529,25.759 12.185,25.962 12.028,25.964ZM12.737,25.912L12.677,25.932C12.614,25.956 12.359,26.096 12.173,26.152L12.318,26.404C12.403,26.557 12.457,26.801 12.542,27.009L12.549,27.024L12.55,26.995C12.562,26.696 12.659,26.365 12.688,26.111C12.694,26.055 12.719,25.983 12.737,25.912ZM26.334,26.409C26.343,26.428 26.341,26.435 26.368,26.449C26.397,26.465 26.436,26.45 26.472,26.446C26.636,26.428 26.836,26.348 26.979,26.339L27.655,26.296C27.68,26.294 27.763,26.308 27.812,26.298C27.854,26.289 27.883,26.267 27.896,26.241C27.913,26.208 27.915,26.168 27.899,26.127C27.874,26.062 27.788,25.983 27.764,25.945C27.713,25.862 27.656,25.59 27.564,25.457C27.519,25.391 27.464,25.355 27.405,25.353C27.363,25.351 27.311,25.371 27.26,25.406C27.181,25.462 27.099,25.555 27.062,25.585C26.908,25.715 26.651,25.882 26.476,26.069C26.389,26.162 26.323,26.259 26.294,26.357C26.288,26.378 26.299,26.4 26.32,26.407C26.324,26.409 26.329,26.409 26.334,26.409ZM27.736,26.146C27.73,26.138 27.725,26.13 27.719,26.123C27.687,26.083 27.651,26.045 27.637,26.022C27.593,25.949 27.546,25.73 27.474,25.586C27.451,25.539 27.434,25.495 27.4,25.493C27.374,25.492 27.344,25.516 27.312,25.54C27.244,25.593 27.178,25.664 27.146,25.69C26.989,25.81 26.73,25.966 26.548,26.14C26.495,26.191 26.448,26.242 26.414,26.295C26.584,26.282 26.811,26.191 26.967,26.179L27.643,26.143C27.655,26.142 27.7,26.144 27.736,26.146ZM18.501,23.303C18.498,23.302 18.496,23.302 18.494,23.301C18.487,23.3 18.482,23.3 18.48,23.3C18.43,23.296 18.409,23.324 18.404,23.33C18.374,23.363 18.357,23.406 18.4,23.454C18.414,23.534 18.424,23.71 18.425,23.72C18.452,23.934 18.479,24.215 18.531,24.478C18.556,24.602 18.584,24.722 18.623,24.829C18.636,24.863 18.65,24.895 18.665,24.926L18.665,24.943C18.658,24.983 18.685,25.021 18.726,25.027C18.766,25.034 18.804,25.007 18.81,24.966C18.82,24.938 18.835,24.913 18.846,24.885C18.886,24.776 18.927,24.663 18.985,24.556C19.101,24.344 19.246,24.139 19.345,23.936C19.375,23.872 19.407,23.807 19.431,23.74C19.449,23.692 19.463,23.643 19.472,23.593C19.48,23.55 19.497,23.474 19.504,23.44C19.506,23.433 19.51,23.426 19.508,23.425C19.477,23.418 19.456,23.429 19.442,23.444C19.464,23.391 19.481,23.317 19.406,23.305C19.351,23.296 19.229,23.278 19.16,23.279C19.111,23.28 19.063,23.284 19.016,23.29C18.913,23.302 18.812,23.323 18.709,23.33L18.57,23.318C18.554,23.315 18.505,23.293 18.501,23.303ZM19.301,23.484L19.163,23.469L18.723,23.52C18.695,23.522 18.67,23.521 18.644,23.519L18.597,23.511C18.605,23.596 18.61,23.691 18.611,23.698C18.63,23.877 18.654,24.101 18.683,24.325C18.698,24.435 18.715,24.544 18.733,24.648C18.744,24.624 18.755,24.601 18.766,24.578C18.884,24.328 19.061,24.089 19.174,23.854C19.202,23.795 19.231,23.736 19.253,23.675C19.267,23.637 19.279,23.599 19.286,23.56C19.289,23.539 19.295,23.512 19.301,23.484Z" style="fill:#fff;"/>
                    </g>
                </g>
            </g>
            <g opacity="0.5">
                <g transform="matrix(1,0,0,1,0,8.75)">
                    <path d="M49.729,29.053C49.715,29.039 49.702,29.026 49.688,29.012C49.607,28.931 49.528,28.846 49.439,28.773C49.336,28.69 49.232,28.629 49.121,28.557C49.004,28.481 48.901,28.426 48.781,28.351C48.742,28.303 48.671,28.296 48.623,28.335C48.574,28.375 48.567,28.446 48.607,28.494C48.689,28.706 48.753,28.888 48.853,29.089C48.878,29.14 48.905,29.187 48.937,29.234C48.983,29.304 49.036,29.367 49.09,29.43C49.161,29.513 49.234,29.594 49.309,29.674C49.195,29.694 48.998,29.716 48.844,29.772C48.807,29.786 48.777,29.798 48.751,29.821C48.661,29.9 48.663,29.925 48.623,29.988C48.555,30.004 48.512,30.073 48.528,30.142C48.544,30.211 48.613,30.254 48.682,30.238C48.733,30.271 48.724,30.299 48.808,30.34C48.846,30.359 48.879,30.371 48.927,30.376C49.074,30.392 49.245,30.373 49.369,30.356L49.293,30.462C49.191,30.605 48.945,30.846 48.731,31.08C48.716,31.096 48.703,31.112 48.693,31.132C48.658,31.199 48.665,31.239 48.639,31.305C48.579,31.346 48.562,31.428 48.603,31.488C48.644,31.549 48.726,31.565 48.786,31.524C48.871,31.525 48.915,31.538 49.001,31.512C49.059,31.495 49.105,31.451 49.155,31.415C49.421,31.224 49.648,30.973 49.765,30.837C49.855,30.728 49.945,30.618 50.032,30.506C50.101,30.84 50.163,31.173 50.227,31.5C50.231,31.52 50.235,31.54 50.242,31.559C50.278,31.648 50.326,31.705 50.369,31.79C50.375,31.883 50.456,31.955 50.55,31.949C50.644,31.943 50.715,31.862 50.709,31.768C50.744,31.663 50.779,31.582 50.797,31.471C50.804,31.426 50.802,31.381 50.801,31.335C50.796,31.2 50.776,31.065 50.755,30.931L51.011,31.129C51.033,31.147 51.083,31.225 51.158,31.282C51.194,31.309 51.226,31.346 51.269,31.343C51.308,31.341 51.335,31.341 51.355,31.341C51.376,31.356 51.433,31.342 51.355,31.341L51.355,31.341C51.339,31.329 51.342,31.302 51.433,31.24C51.485,31.29 51.567,31.288 51.616,31.236C51.665,31.185 51.663,31.103 51.612,31.054C51.683,30.937 51.708,30.961 51.715,30.988L51.715,30.989C51.716,31.036 51.721,31.011 51.715,30.988C51.715,30.969 51.715,30.939 51.718,30.893C51.719,30.857 51.695,30.827 51.674,30.795C51.598,30.682 51.496,30.599 51.465,30.573L50.813,30.056C51.049,29.992 51.285,29.922 51.523,29.852C51.577,29.835 51.82,29.807 52.073,29.765C52.121,29.758 52.169,29.752 52.213,29.732C52.236,29.722 52.246,29.713 52.259,29.692C52.274,29.668 52.286,29.649 52.296,29.634L52.296,29.634C52.32,29.621 52.354,29.546 52.296,29.634C52.279,29.643 52.267,29.624 52.29,29.511C52.363,29.511 52.422,29.452 52.422,29.379C52.422,29.306 52.363,29.247 52.29,29.247C52.272,29.154 52.277,29.124 52.288,29.121C52.278,29.107 52.265,29.089 52.25,29.066C52.234,29.042 52.217,29.039 52.19,29.029C52.134,29.008 52.072,29.014 52.011,29.014C51.681,29.015 51.373,29.107 51.303,29.128C51.192,29.162 51.082,29.196 50.972,29.229C51.003,29.186 51.035,29.143 51.066,29.1C51.202,28.91 51.41,28.76 51.483,28.538C51.516,28.437 51.471,28.409 51.47,28.302C51.528,28.237 51.522,28.138 51.457,28.08C51.392,28.022 51.292,28.028 51.235,28.093C51.123,28.105 51.086,28.075 50.988,28.13C50.772,28.25 50.684,28.519 50.538,28.717L50.356,28.973C50.333,28.87 50.31,28.768 50.289,28.667C50.225,28.368 50.21,27.838 50.049,27.482C50.022,27.423 50.004,27.361 49.959,27.323C49.884,27.26 49.848,27.244 49.762,27.225C49.708,27.159 49.611,27.15 49.545,27.204C49.48,27.258 49.471,27.355 49.525,27.42C49.527,27.481 49.482,27.5 49.486,27.567C49.488,27.596 49.496,27.624 49.504,27.655C49.524,27.725 49.547,27.801 49.563,27.88C49.626,28.196 49.64,28.556 49.679,28.784C49.695,28.873 49.712,28.962 49.729,29.053ZM52.288,29.121C52.31,29.114 52.361,29.224 52.288,29.121L52.288,29.121Z" style="fill:#fff;"/>
                </g>
                <g>
                    <path d="M33.529,47.234C33.496,47.297 33.48,47.3 33.46,47.369C33.448,47.409 33.449,47.444 33.452,47.486C33.461,47.604 33.5,47.716 33.531,47.824C33.584,48.016 33.65,48.186 33.689,48.308C33.805,48.661 33.917,49.015 34.039,49.366C34.122,49.602 34.211,49.836 34.301,50.068C34.37,50.231 34.44,50.431 34.56,50.63C34.588,50.675 34.611,50.722 34.656,50.755C34.718,50.8 34.729,50.778 34.802,50.804C34.838,50.889 34.935,50.93 35.02,50.895C35.105,50.86 35.146,50.762 35.111,50.677C35.145,50.606 35.166,50.612 35.177,50.535C35.185,50.478 35.165,50.427 35.15,50.374C35.091,50.159 34.991,49.982 34.935,49.822L34.301,48.096C34.256,47.975 34.196,47.803 34.119,47.619C34.077,47.519 34.039,47.411 33.979,47.314C33.958,47.28 33.938,47.254 33.907,47.228C33.852,47.184 33.836,47.193 33.774,47.16C33.754,47.093 33.682,47.054 33.615,47.075C33.547,47.095 33.509,47.167 33.529,47.234Z" style="fill:#fff;"/>
                    <path d="M33.007,48.332C33.021,48.335 33.012,48.361 33.026,48.373C33.069,48.409 33.054,48.469 33.101,48.524C33.14,48.569 33.184,48.61 33.228,48.648C33.293,48.707 33.357,48.752 33.395,48.78C33.544,48.884 33.691,48.991 33.843,49.09C34.197,49.322 34.565,49.533 34.93,49.747C35.019,49.797 35.24,49.971 35.454,50.038C35.49,50.049 35.519,50.056 35.551,50.045C35.796,49.964 35.531,50.058 35.707,49.903C35.758,49.934 35.825,49.919 35.857,49.868C35.889,49.817 35.873,49.75 35.822,49.718C35.885,49.491 35.916,49.768 35.875,49.512C35.869,49.476 35.845,49.454 35.816,49.426C35.651,49.268 35.379,49.17 35.29,49.118L33.733,48.238C33.657,48.204 33.513,48.084 33.357,48.057C33.22,48.033 33.135,48.036 33.043,48.074C33.006,48.09 32.975,48.084 32.948,48.107C32.886,48.123 32.849,48.187 32.865,48.249C32.881,48.311 32.944,48.349 33.007,48.332Z" style="fill:#fff;"/>
                    <path d="M33.719,50.432C33.824,50.318 33.924,50.225 34.023,50.105C34.084,50.03 34.14,49.954 34.191,49.87C34.485,49.394 34.708,48.879 34.95,48.373L35.382,47.436C35.401,47.39 35.464,47.312 35.486,47.224C35.49,47.208 35.49,47.198 35.487,47.182C35.465,47.049 35.458,47.048 35.418,46.966C35.444,46.906 35.417,46.836 35.358,46.81C35.298,46.784 35.228,46.811 35.202,46.87C35.119,46.9 35.078,46.842 34.968,46.916C34.877,46.977 34.839,47.101 34.808,47.152L34.374,48.111C34.154,48.618 33.882,49.1 33.679,49.613C33.643,49.704 33.615,49.794 33.591,49.889C33.554,50.04 33.539,50.176 33.512,50.329C33.483,50.386 33.506,50.456 33.564,50.484C33.621,50.513 33.69,50.489 33.719,50.432Z" style="fill:#fff;"/>
                    <path d="M32.649,49.128C32.363,49.213 32.416,49.578 32.747,49.605C32.847,49.612 33.017,49.579 33.18,49.553C33.386,49.522 33.58,49.477 33.605,49.473L33.878,49.42C34.547,49.282 35.243,49.049 35.893,48.838C35.967,48.814 36.024,48.772 36.096,48.744C36.23,48.728 36.327,48.606 36.311,48.471C36.295,48.337 36.172,48.24 36.038,48.256C35.965,48.243 35.902,48.228 35.828,48.228C35.728,48.23 35.63,48.26 35.531,48.284C34.935,48.427 34.346,48.716 33.756,48.848L33.489,48.906C33.465,48.912 33.268,48.949 33.065,49.003C32.906,49.045 32.745,49.1 32.649,49.128Z" style="fill:#fff;"/>
                </g>
                <g>
                    <path d="M57.871,43.413C57.84,43.441 57.839,43.415 57.822,43.452C57.806,43.488 57.816,43.53 57.816,43.57C57.817,44.034 57.711,44.517 57.648,44.969C57.638,45.053 57.633,45.171 57.643,45.287C57.647,45.341 57.651,45.393 57.666,45.439C57.688,45.508 57.746,45.48 57.763,45.538C57.734,45.591 57.754,45.657 57.807,45.687C57.86,45.716 57.926,45.696 57.955,45.643C58.044,45.636 58.019,45.642 58.097,45.579C58.115,45.564 58.115,45.537 58.125,45.514C58.152,45.445 58.164,45.365 58.169,45.282C58.175,45.187 58.157,45.092 58.163,45.024C58.193,44.654 58.275,44.261 58.267,43.878C58.263,43.716 58.301,43.53 58.205,43.404C58.178,43.369 58.174,43.382 58.135,43.362C58.121,43.289 58.05,43.242 57.977,43.256C57.905,43.27 57.857,43.341 57.871,43.413Z" style="fill:#fff;"/>
                    <path d="M57.112,43.905C57.111,43.951 57.1,43.988 57.132,44.076C57.15,44.126 57.189,44.168 57.199,44.19L57.31,44.397C57.393,44.541 57.485,44.673 57.586,44.798C57.688,44.923 57.802,45.037 57.925,45.148C57.986,45.195 58.134,45.377 58.303,45.421C58.379,45.441 58.396,45.417 58.459,45.403C58.566,45.379 58.525,45.374 58.596,45.351C58.62,45.372 58.656,45.37 58.677,45.346C58.698,45.322 58.696,45.285 58.671,45.264C58.683,45.161 58.707,45.195 58.685,45.021C58.681,44.993 58.678,44.978 58.661,44.953C58.567,44.818 58.374,44.725 58.319,44.677C58.213,44.594 58.114,44.506 58.022,44.411C57.931,44.316 57.844,44.217 57.766,44.106L57.634,43.911C57.605,43.879 57.54,43.788 57.449,43.756C57.372,43.729 57.338,43.758 57.298,43.751C57.256,43.699 57.18,43.692 57.128,43.734C57.077,43.777 57.069,43.853 57.112,43.905Z" style="fill:#fff;"/>
                    <path d="M57.222,45.222L57.933,44.835C58.091,44.741 58.318,44.686 58.52,44.613C58.713,44.543 58.888,44.46 58.999,44.344C59.088,44.253 59.17,44.147 59.162,44.017C59.161,44.004 59.167,43.99 59.157,43.98C59.082,43.895 59.172,43.965 59.059,43.927C59.059,43.865 59.009,43.815 58.948,43.815C58.886,43.815 58.836,43.865 58.836,43.927C58.76,43.966 58.777,43.889 58.725,43.949C58.664,44.019 58.607,44.067 58.505,44.109C58.245,44.215 57.906,44.283 57.684,44.41C57.622,44.451 57.536,44.507 57.461,44.585C57.279,44.775 57.124,45.032 57.095,45.07C57.053,45.106 57.047,45.168 57.082,45.21C57.117,45.252 57.18,45.258 57.222,45.222Z" style="fill:#fff;"/>
                    <path d="M56.525,44.736C56.554,44.757 56.594,44.814 56.705,44.855C56.77,44.88 56.84,44.874 56.859,44.878L57.08,44.884L57.753,44.92C58.178,44.969 58.637,44.979 59.084,44.982C59.267,44.983 59.446,44.98 59.623,44.984C59.65,44.984 59.677,44.992 59.702,44.981C59.817,44.933 59.762,44.913 59.853,44.829C59.88,44.834 59.906,44.817 59.912,44.79C59.918,44.763 59.9,44.736 59.873,44.731C59.823,44.614 59.875,44.616 59.778,44.532C59.699,44.464 59.58,44.474 59.475,44.454C59.362,44.432 59.246,44.419 59.129,44.411C58.688,44.382 58.232,44.415 57.81,44.374L57.08,44.357L56.859,44.363C56.837,44.367 56.751,44.365 56.677,44.404C56.576,44.456 56.547,44.52 56.52,44.542C56.467,44.543 56.424,44.588 56.425,44.641C56.427,44.695 56.471,44.738 56.525,44.736Z" style="fill:#fff;"/>
                </g>
                <g transform="matrix(1,0,0,1,0,8.75)">
                    <path d="M39.442,48.352C39.44,48.347 39.438,48.342 39.436,48.336C39.42,48.294 39.408,48.251 39.384,48.215C39.354,48.171 39.321,48.145 39.284,48.112C39.25,48.046 39.17,48.019 39.103,48.052C39.037,48.085 39.01,48.166 39.043,48.233C39.046,48.274 39.034,48.308 39.041,48.352C39.047,48.388 39.061,48.423 39.072,48.46C39.106,48.573 39.137,48.694 39.17,48.815C39.057,48.818 38.946,48.829 38.837,48.854C38.707,48.884 38.606,48.944 38.484,48.993C38.407,48.999 38.349,49.068 38.355,49.145C38.362,49.223 38.43,49.281 38.508,49.275C38.634,49.302 38.742,49.344 38.872,49.355C38.889,49.357 38.906,49.358 38.923,49.359C38.771,49.49 38.622,49.623 38.469,49.749C38.407,49.793 38.392,49.878 38.436,49.939C38.479,50.001 38.564,50.015 38.626,49.972C38.662,49.95 38.698,49.928 38.734,49.906C38.72,49.945 38.707,49.985 38.691,50.024C38.653,50.084 38.671,50.164 38.732,50.202C38.792,50.24 38.872,50.222 38.91,50.161C38.98,50.085 39.048,50.014 39.109,49.932C39.149,49.878 39.183,49.821 39.216,49.764C39.261,49.688 39.304,49.611 39.345,49.533C39.369,49.519 39.392,49.505 39.416,49.491C39.514,49.666 39.638,49.815 39.816,49.841C39.835,49.843 39.85,49.841 39.87,49.841C39.98,49.842 40.113,49.831 40.127,49.769C40.14,49.71 40.012,49.518 39.961,49.454C40.129,49.502 40.3,49.555 40.469,49.574C40.527,49.581 40.587,49.597 40.642,49.58C40.677,49.57 40.689,49.558 40.719,49.537C40.833,49.537 40.925,49.444 40.925,49.33C40.925,49.216 40.833,49.124 40.719,49.124C40.686,49.108 40.671,49.081 40.636,49.069C40.541,49.038 40.441,49.01 40.34,48.985C40.412,48.951 40.484,48.918 40.558,48.888C40.587,48.877 40.662,48.836 40.685,48.815C40.758,48.751 40.808,48.623 40.799,48.586C40.791,48.548 40.624,48.441 40.523,48.428C40.304,48.399 40.1,48.545 39.905,48.643C39.848,48.672 39.792,48.703 39.737,48.736C39.774,48.66 39.932,48.388 39.972,48.217C39.978,48.189 39.99,47.954 39.874,47.902C39.801,47.869 39.716,47.929 39.656,47.974C39.641,47.985 39.597,48.033 39.583,48.054C39.535,48.131 39.484,48.248 39.442,48.352Z" style="fill:#fff;"/>
                </g>
            </g>
            <g transform="matrix(0.689492,0.453591,-0.453591,0.689492,36.0414,-5.56175)">
                <g opacity="0.75">
                    <path d="M37.972,53.4C37.975,53.41 37.979,53.419 37.984,53.428C37.999,53.612 37.989,53.75 38.024,53.919C38.058,54.076 38.119,54.215 38.177,54.354C38.513,55.147 38.89,55.748 39.292,56.257C39.923,57.054 40.711,57.589 42.028,58.026C42.336,58.127 42.721,58.142 43.119,58.099C43.612,58.046 44.128,57.909 44.498,57.805C44.752,57.735 44.992,57.64 45.225,57.531C45.715,57.302 46.167,57.006 46.657,56.769C47.078,56.566 47.506,56.373 47.938,56.187C48.957,55.747 49.999,55.341 51.014,54.906C52.422,54.304 54.003,53.814 55.306,52.992C56.249,52.396 57.051,51.631 57.57,50.555C57.724,50.236 57.735,49.879 57.643,49.513C57.498,48.937 57.058,48.329 56.869,47.946C56.824,47.855 56.794,47.761 56.77,47.664C56.721,47.476 56.693,47.281 56.653,47.09C56.644,47.043 56.614,46.869 56.569,46.766C56.514,46.64 56.433,46.553 56.36,46.502C56.207,46.393 56.037,46.366 55.852,46.433C55.709,46.485 55.568,46.6 55.477,46.791C55.392,46.972 55.359,47.301 55.339,47.405C55.293,47.649 55.297,48.075 55.239,48.451C55.228,48.527 55.223,48.603 55.207,48.666C55.089,48.537 54.947,48.31 54.845,48.224C54.587,48.008 54.322,47.95 54.123,47.995C53.863,48.054 53.645,48.257 53.558,48.622C53.515,48.801 53.503,49.042 53.492,49.276C53.489,49.346 53.48,49.436 53.471,49.51C53.406,49.491 53.325,49.465 53.267,49.438C52.96,49.296 52.645,49.107 52.408,49.038C52.246,48.99 52.099,48.983 51.977,49.005C51.917,49.016 51.55,49.13 51.543,49.545C51.542,49.639 51.559,49.882 51.559,49.89C51.563,50.007 51.576,50.145 51.586,50.288C51.325,50.176 50.952,49.991 50.675,49.918C50.402,49.845 50.172,49.868 50.028,49.934C49.972,49.959 49.897,50.008 49.825,50.091C49.725,49.655 49.634,49.216 49.558,48.774C49.516,48.533 49.448,48.273 49.402,48.011C49.516,48.044 49.619,48.083 49.719,48.131C49.867,48.201 50.005,48.29 50.154,48.404C50.252,48.48 50.503,48.602 50.708,48.606C50.912,48.61 51.087,48.535 51.215,48.39C51.27,48.328 51.328,48.233 51.353,48.099C51.38,47.95 51.339,47.613 51.33,47.536C51.311,47.385 51.217,47.064 51.147,46.733C51.139,46.692 51.132,46.646 51.126,46.599C51.376,46.755 51.676,47.011 51.978,47.124C52.249,47.225 52.523,47.242 52.789,47.142C52.936,47.087 53.061,46.984 53.152,46.833C53.271,46.633 53.306,46.274 53.329,46.115C53.357,45.91 53.367,45.676 53.378,45.437L53.709,45.934C53.731,45.965 53.748,45.987 53.756,45.997C53.807,46.059 53.851,46.088 53.87,46.101C54.04,46.216 54.188,46.197 54.272,46.179C54.422,46.146 54.54,46.064 54.618,45.921C54.764,45.656 54.824,45.345 54.828,45.012C54.832,44.681 54.766,44.321 54.742,43.99L54.949,44.017L55.533,44.109C55.654,44.134 55.773,44.164 55.888,44.205C55.984,44.239 56.077,44.282 56.163,44.34C56.336,44.457 56.467,44.436 56.514,44.431C56.655,44.416 56.756,44.355 56.831,44.276C56.904,44.201 56.96,44.102 56.973,43.969C56.978,43.913 56.985,43.799 56.907,43.663C56.892,43.635 56.815,43.541 56.787,43.501L56.598,43.233L56.179,42.472C55.999,42.149 55.802,41.831 55.588,41.524C55.373,41.216 55.141,40.919 54.891,40.641C54.777,40.514 54.59,40.287 54.399,40.143C54.24,40.023 54.071,39.952 53.918,39.936C53.668,39.91 53.397,39.947 53.122,40.029C52.64,40.174 52.139,40.463 51.76,40.637L48.969,41.872C48.677,42.005 48.363,42.222 48.048,42.377C47.945,42.428 47.842,42.471 47.739,42.494C47.318,42.586 46.992,42.387 46.665,42.197C46.341,42.008 46.02,41.812 45.668,41.709C45.414,41.635 45.145,41.605 44.852,41.648C44.185,41.747 43.552,41.91 42.937,42.111C41.541,42.569 40.239,43.229 38.818,43.747C38.161,43.988 37.344,44.214 36.714,44.637C36.225,44.966 35.84,45.405 35.671,46.024C35.544,46.488 35.554,47.029 35.645,47.578C35.766,48.306 36.024,49.051 36.199,49.623C36.287,49.866 36.369,50.157 36.464,50.426C36.511,50.558 36.558,50.685 36.613,50.799C37.05,51.717 37.399,52.214 37.841,53.151C37.877,53.227 37.877,53.335 37.951,53.388C37.962,53.396 37.968,53.4 37.972,53.4ZM53.771,40.926C53.605,40.918 53.424,40.97 53.242,41.037C52.855,41.178 52.47,41.397 52.167,41.533L49.367,42.749C49.081,42.878 48.774,43.088 48.466,43.237C48.29,43.321 48.114,43.388 47.941,43.425C47.644,43.488 47.372,43.478 47.117,43.419C46.746,43.334 46.411,43.143 46.079,42.945C45.741,42.743 45.412,42.511 44.986,42.572C44.161,42.69 43.393,42.918 42.644,43.192C41.47,43.622 40.343,44.164 39.129,44.602C38.532,44.817 37.786,45.005 37.214,45.385C36.9,45.594 36.642,45.866 36.532,46.261C36.435,46.612 36.456,47.021 36.52,47.438C36.627,48.128 36.86,48.837 37.016,49.38L37.272,50.531C37.566,51.393 37.829,51.909 38.119,52.718C38.175,52.875 38.233,53.042 38.291,53.226C38.295,53.237 38.305,53.248 38.302,53.26C38.3,53.267 38.299,53.272 38.298,53.276C38.432,53.383 38.545,53.448 38.658,53.565C38.728,53.638 38.779,53.719 38.833,53.799C39.128,54.238 39.358,54.64 39.597,54.992C39.866,55.387 40.124,55.725 40.436,56.013C40.908,56.45 41.493,56.774 42.347,57.05C42.534,57.111 42.768,57.104 43.009,57.078C43.442,57.031 43.896,56.906 44.221,56.815C44.42,56.759 44.607,56.684 44.789,56.6C45.275,56.372 45.723,56.077 46.208,55.842C46.642,55.632 47.083,55.433 47.529,55.241C48.549,54.8 49.591,54.392 50.607,53.956C51.966,53.374 53.496,52.91 54.752,52.116C55.533,51.622 56.205,50.996 56.635,50.104C56.708,49.951 56.649,49.776 56.582,49.601C56.488,49.352 56.347,49.106 56.214,48.885C56.141,49.162 56.017,49.392 55.851,49.542C55.599,49.771 55.326,49.802 55.042,49.702C54.876,49.643 54.695,49.516 54.525,49.358C54.517,49.531 54.51,49.705 54.482,49.841C54.434,50.068 54.336,50.238 54.22,50.343C54.007,50.537 53.746,50.609 53.453,50.578C53.201,50.551 52.909,50.424 52.631,50.286C52.639,50.408 52.645,50.533 52.642,50.652C52.637,50.822 52.615,50.982 52.572,51.119C52.523,51.273 52.373,51.51 52.014,51.495C51.885,51.49 51.553,51.383 51.527,51.376C51.382,51.337 51.109,51.21 50.827,51.087C50.758,51.057 50.67,51.024 50.587,50.995C50.523,51.261 50.432,51.63 50.407,51.701C50.394,51.74 50.3,51.989 50.259,52.09C50.015,52.689 49.264,52.11 49.253,52.071C49.112,51.56 48.977,51.045 48.853,50.527C48.73,50.006 48.618,49.481 48.527,48.952C48.468,48.612 48.361,48.234 48.327,47.867C48.308,47.668 48.309,47.472 48.339,47.283C48.354,47.183 48.504,46.79 48.962,46.84C49.1,46.856 49.446,46.942 49.473,46.948C49.734,47.009 49.958,47.085 50.169,47.186L50.19,47.196C50.115,46.882 50.031,46.496 50.045,46.213C50.062,45.899 50.182,45.662 50.355,45.52C50.474,45.423 50.64,45.362 50.842,45.378C51.067,45.395 51.401,45.558 51.501,45.61C51.693,45.71 51.923,45.904 52.165,46.053C52.201,46.076 52.238,46.097 52.275,46.115L52.295,45.97C52.349,45.582 52.335,45.094 52.393,44.656C52.425,44.411 52.478,44.179 52.562,43.976C52.625,43.823 52.732,43.731 52.866,43.681C52.964,43.644 53.144,43.609 53.348,43.732C53.451,43.794 53.671,44.028 53.727,44.089C53.704,43.812 53.693,43.546 53.736,43.315C53.74,43.291 53.911,42.846 54.379,42.898C54.573,42.92 55.059,42.989 55.087,42.993L55.323,43.032L55.287,42.964C55.126,42.669 54.95,42.38 54.757,42.1C54.567,41.824 54.362,41.558 54.141,41.308C54.06,41.217 53.817,40.972 53.771,40.926Z" style="fill:#fff;"/>
                    <g transform="matrix(1.40863,-0.632931,0.496601,1.10522,-38.3649,33.3675)">
                        <ellipse cx="45.433" cy="38.956" rx="0.43" ry="0.842" style="fill:#f8fcfb;"/>
                    </g>
                    <path d="M42.457,50.563C42.516,50.701 42.488,50.7 42.614,50.838C42.681,50.912 42.753,50.936 42.845,50.969C42.973,51.014 43.111,51.004 43.244,51.004C43.802,51.003 44.328,50.823 44.787,50.556C45.49,50.146 46.037,49.471 46.288,48.584C46.365,48.314 46.462,47.885 46.444,47.522C46.432,47.285 46.372,47.071 46.265,46.905C46.114,46.672 45.78,46.461 45.343,46.335C44.706,46.151 43.838,46.098 43.483,46.085C43.142,46.075 42.803,46.052 42.465,46.02C41.95,45.972 41.436,45.906 40.922,45.837C40.693,45.806 40.362,45.682 40.137,45.729C39.905,45.778 39.707,45.906 39.618,46.22C39.443,46.826 39.456,47.389 39.599,47.919C39.801,48.669 40.268,49.352 40.822,49.985C40.874,50.044 40.983,50.15 41.148,50.252C41.336,50.368 41.589,50.516 41.879,50.592C41.98,50.619 42.074,50.638 42.179,50.638C42.228,50.638 42.263,50.644 42.308,50.626C42.373,50.602 42.356,50.598 42.412,50.558C42.427,50.563 42.442,50.565 42.457,50.563ZM40.396,46.69C40.302,47.161 40.364,47.597 40.523,48.008C40.722,48.521 41.063,48.995 41.447,49.446C41.492,49.504 41.637,49.612 41.819,49.739C41.935,49.819 42.065,49.899 42.193,49.989C42.226,50.012 42.252,50.038 42.282,50.065C42.339,50.116 42.391,50.152 42.434,50.215C42.474,50.273 42.454,50.279 42.481,50.343C42.488,50.345 42.494,50.348 42.5,50.351C42.616,50.238 42.576,50.197 42.748,50.104C42.823,50.063 42.896,50.047 42.979,50.034C43.096,50.017 43.213,50.019 43.328,50.005C43.794,49.949 44.227,49.785 44.577,49.498C44.929,49.209 45.196,48.807 45.337,48.313C45.378,48.169 45.432,47.964 45.452,47.759C45.464,47.639 45.488,47.517 45.437,47.437C45.407,47.39 45.335,47.373 45.259,47.342C45.08,47.268 44.857,47.215 44.629,47.173C44.163,47.088 43.676,47.054 43.441,47.042C43.081,47.022 42.724,46.989 42.367,46.947C41.84,46.884 41.316,46.803 40.791,46.718C40.697,46.702 40.512,46.72 40.396,46.69Z" style="fill:#fff;"/>
                    <path d="M58.348,40.349L58.358,40.334L58.371,40.312L58.371,40.312L58.372,40.31L58.371,40.312C58.445,40.298 58.558,40.298 58.607,40.277C58.778,40.205 58.882,40.104 58.92,40C58.962,39.889 58.987,39.761 58.9,39.604C58.823,39.466 58.672,39.351 58.426,39.406C58.309,39.431 58.104,39.555 57.939,39.664C57.888,39.69 57.843,39.721 57.804,39.756C57.742,39.8 57.697,39.833 57.685,39.843C57.286,40.168 56.929,40.463 56.646,40.833C56.451,41.089 56.29,41.379 56.174,41.737C56.109,41.954 56.05,42.18 56.01,42.409C55.969,42.646 55.945,42.886 55.951,43.122C55.953,43.217 55.974,43.355 56.017,43.486C56.035,43.542 56.05,43.597 56.079,43.638C56.121,43.701 56.158,43.643 56.199,43.686C56.221,43.71 56.221,43.682 56.241,43.705C56.219,43.763 56.249,43.827 56.307,43.848C56.365,43.869 56.429,43.84 56.45,43.782C56.545,43.766 56.486,43.763 56.58,43.696C56.617,43.669 56.615,43.648 56.634,43.599C56.662,43.529 56.641,43.441 56.631,43.354C56.621,43.267 56.594,43.182 56.595,43.122C56.6,42.929 56.631,42.735 56.675,42.543C56.721,42.344 56.784,42.148 56.851,41.959C56.942,41.688 57.068,41.468 57.219,41.275C57.24,41.248 57.261,41.222 57.283,41.196C57.265,41.458 57.293,41.699 57.366,41.876C57.522,42.248 57.849,42.421 58.263,42.435C58.851,42.455 59.653,42.086 59.93,41.893C60.481,41.512 60.941,40.99 61.28,40.396C61.616,39.807 61.831,39.146 61.897,38.482C61.917,38.282 61.918,38.087 61.904,37.895C62.021,38.057 62.119,38.232 62.197,38.414C62.34,38.746 62.412,39.106 62.406,39.466C62.406,39.476 62.403,39.534 62.397,39.611L62.371,39.681C62.359,39.715 62.317,40.098 62.326,40.249C62.353,40.697 62.769,40.773 62.85,40.773C62.925,40.773 63.316,40.698 63.383,40.26C63.398,40.161 63.411,39.988 63.421,39.829C63.867,38.717 64.593,37.885 65.485,37.261C66.462,36.577 67.635,36.141 68.859,35.859C69.364,35.743 69.878,35.637 70.396,35.586L70.463,35.579C70.078,35.816 69.72,36.105 69.427,36.432C68.8,37.131 68.47,37.993 68.684,38.881C68.735,39.091 68.859,39.255 69.037,39.374C69.248,39.515 69.57,39.574 69.77,39.6C70.126,39.647 70.505,39.633 70.871,39.557C71.223,39.485 71.563,39.353 71.858,39.166C71.82,39.231 71.778,39.295 71.732,39.356C71.216,40.047 70.309,40.523 69.589,40.892C69.442,40.967 69.217,40.981 69.009,41.027C68.771,41.079 68.546,41.155 68.373,41.27C68.193,41.39 68.057,41.55 67.98,41.759C67.916,41.934 67.909,42.195 68.18,42.402C68.325,42.513 68.816,42.663 68.842,42.667C69.033,42.702 69.222,42.778 69.411,42.847C69.188,42.983 68.953,43.11 68.71,43.206C68.409,43.324 68.094,43.397 67.765,43.366C67.503,43.34 66.731,43.226 66.266,43.336C65.986,43.402 65.782,43.544 65.665,43.721C65.3,44.273 65.439,44.735 65.787,45.092C65.964,45.273 66.219,45.417 66.479,45.517C66.353,45.577 66.232,45.635 66.128,45.696C65.615,45.995 65.082,46.164 64.537,46.274C63.643,46.452 62.718,46.475 61.783,46.586C61.45,46.626 61.123,46.683 60.8,46.76C60.475,46.838 60.155,46.937 59.839,47.06C59.716,47.108 59.44,47.193 59.276,47.298C59.149,47.38 59.06,47.479 59.007,47.575C58.886,47.796 58.886,48.042 59.042,48.278L58.965,48.289C58.805,48.311 58.642,48.321 58.465,48.301L57.798,48.223C57.716,48.208 57.209,47.995 56.808,47.946C56.762,47.941 56.722,47.941 56.68,47.95C56.611,47.966 56.588,47.976 56.537,48.011C56.284,48.184 56.393,48.143 56.279,48.266C56.233,48.256 56.187,48.285 56.177,48.331C56.167,48.377 56.196,48.423 56.242,48.433C56.291,48.59 56.202,48.506 56.332,48.777C56.358,48.831 56.369,48.853 56.419,48.9C56.449,48.929 56.482,48.949 56.523,48.968C56.926,49.151 57.518,49.252 57.608,49.268L58.342,49.356C58.546,49.379 58.737,49.378 58.923,49.362C59.294,49.33 59.637,49.23 60.027,49.191C60.154,49.178 60.452,49.18 60.646,49.129C60.793,49.09 60.909,49.024 60.989,48.952C61.178,48.781 61.194,48.593 61.155,48.426C61.13,48.319 61.066,48.176 60.893,48.073C60.822,48.031 60.628,47.98 60.489,47.952C60.674,47.89 60.86,47.837 61.048,47.791C61.33,47.723 61.617,47.674 61.908,47.639C62.871,47.524 63.825,47.497 64.745,47.312C65.402,47.18 66.043,46.971 66.662,46.61C66.934,46.451 67.318,46.308 67.618,46.105C67.807,45.976 67.969,45.825 68.084,45.651C68.226,45.435 68.225,45.258 68.198,45.131C68.169,44.991 68.097,44.874 67.984,44.782C67.895,44.71 67.761,44.649 67.601,44.628C67.468,44.61 67.302,44.623 67.232,44.623C67.102,44.623 66.9,44.568 66.725,44.478C66.662,44.446 66.602,44.409 66.555,44.365L66.554,44.364C66.627,44.353 66.735,44.34 66.815,44.341C67.151,44.343 67.511,44.403 67.665,44.418C68.067,44.456 68.457,44.4 68.833,44.282C69.34,44.123 69.82,43.847 70.259,43.561C70.397,43.471 70.638,43.36 70.806,43.219C70.956,43.093 71.064,42.945 71.117,42.787C71.205,42.529 71.138,42.349 71.051,42.221C70.969,42.099 70.84,42.002 70.66,41.961C70.527,41.931 70.312,41.959 70.21,41.959C70.126,41.959 70.043,41.941 69.96,41.918L69.903,41.901C69.963,41.88 70.019,41.857 70.07,41.831C70.92,41.395 71.968,40.802 72.576,39.986C73.041,39.362 73.272,38.617 73.053,37.722C73.015,37.566 72.64,37.068 72.169,37.461C72.076,37.539 71.858,37.776 71.846,37.789C71.767,37.877 71.682,37.965 71.592,38.046C71.508,38.123 71.42,38.194 71.328,38.256C71.13,38.389 70.898,38.478 70.657,38.528C70.408,38.58 70.148,38.59 69.905,38.558C69.856,38.552 69.75,38.529 69.682,38.514C69.587,37.864 70,37.267 70.543,36.808C71.169,36.279 71.997,35.927 72.656,35.926C72.972,35.926 73.073,35.735 73.093,35.708C73.146,35.634 73.35,35.023 72.781,34.889C72.76,34.884 72.661,34.867 72.632,34.862L72.41,34.776C72.241,34.711 72.067,34.645 71.89,34.597C71.75,34.559 71.609,34.532 71.465,34.522C71.073,34.493 70.681,34.505 70.291,34.545C69.729,34.602 69.172,34.716 68.624,34.842C67.268,35.156 65.972,35.651 64.889,36.411C64.22,36.88 63.631,37.449 63.157,38.14C63.138,38.095 63.118,38.051 63.097,38.007C62.882,37.556 62.575,37.148 62.19,36.826C62.123,36.77 61.66,36.381 61.437,36.287C61.241,36.204 61.08,36.233 60.985,36.277C60.962,36.287 60.645,36.493 60.747,36.87C60.789,37.025 60.911,37.413 60.915,37.43C60.959,37.594 60.991,37.754 61.008,37.916C61.024,38.074 61.026,38.233 61.011,38.399C60.962,38.942 60.791,39.483 60.521,39.968C60.251,40.452 59.884,40.881 59.44,41.195C59.295,41.298 58.946,41.472 58.604,41.555C58.471,41.587 58.34,41.609 58.226,41.593C58.188,41.588 58.147,41.587 58.132,41.551C58.069,41.407 58.097,41.179 58.141,40.955C58.188,40.723 58.262,40.493 58.348,40.349ZM58.371,40.312C58.321,40.322 58.289,40.338 58.308,40.371C58.317,40.389 58.334,40.371 58.348,40.349L58.354,40.338L58.371,40.312ZM58.303,39.602C58.314,39.587 58.327,39.573 58.346,39.564C58.352,39.562 58.354,39.534 58.356,39.543C58.363,39.577 58.341,39.593 58.303,39.602Z" style="fill:#fff;"/>
                    <path d="M58.029,43.786C57.989,43.835 57.954,43.881 57.925,43.922C57.886,43.975 57.761,44.149 57.695,44.306C57.639,44.437 57.622,44.565 57.635,44.663C57.663,44.874 57.776,45.041 58.058,45.084C58.232,45.111 58.406,45.102 58.578,45.068C58.884,45.009 59.186,44.864 59.471,44.779C60.008,44.618 60.498,44.511 60.965,44.315C61.297,44.176 61.618,43.993 61.934,43.726L62.56,43.163C62.474,43.364 62.361,43.549 62.257,43.691C61.906,44.177 61.438,44.594 60.92,44.94C60.394,45.292 59.815,45.57 59.239,45.758C58.996,45.838 58.478,45.926 58.092,46.069C57.799,46.177 57.571,46.329 57.454,46.488C57.324,46.665 57.303,46.877 57.429,47.097C57.45,47.134 57.479,47.172 57.513,47.21C57.362,47.274 57.217,47.322 57.11,47.346C57.009,47.372 56.717,47.373 56.57,47.516C56.385,47.695 56.471,47.743 56.432,47.867C56.349,47.898 56.307,47.99 56.338,48.072C56.369,48.155 56.461,48.197 56.544,48.166C56.65,48.23 56.595,48.334 56.837,48.374C57.014,48.404 57.226,48.27 57.315,48.252C57.561,48.197 57.958,48.052 58.293,47.865C58.577,47.706 58.812,47.509 58.93,47.322C59.035,47.156 59.015,47.019 58.989,46.928C58.976,46.883 58.957,46.837 58.93,46.794C59.169,46.736 59.393,46.689 59.53,46.644C60.184,46.429 60.844,46.116 61.44,45.712C62.048,45.3 62.588,44.794 62.994,44.216C63.202,43.914 63.428,43.475 63.516,43.034C63.584,42.689 63.575,42.344 63.446,42.045C63.381,41.895 63.148,41.637 62.79,41.853C62.656,41.934 62.341,42.235 62.334,42.241L61.399,43.098C61.154,43.308 60.904,43.452 60.646,43.562C60.207,43.75 59.743,43.85 59.237,44.005C59.07,44.056 58.898,44.131 58.722,44.193C58.818,44.081 58.935,43.956 59.062,43.845C59.218,43.71 59.376,43.573 59.525,43.572C59.516,43.572 59.509,43.572 59.505,43.571L59.57,43.572C59.711,43.57 59.78,43.495 59.791,43.486C59.823,43.463 60.077,42.79 59.525,42.789L59.492,42.79C59.479,42.731 59.425,42.763 59.38,42.801L59.427,42.794C59.444,42.793 59.46,42.791 59.477,42.79L59.492,42.79L59.493,42.794C59.498,42.821 59.423,42.828 59.349,42.83L59.37,42.81L59.38,42.801C59.337,42.809 59.293,42.819 59.249,42.832L59.232,42.833L58.622,42.863C58.32,42.91 57.745,43.169 57.254,43.466C57.045,43.593 56.843,43.713 56.701,43.84C56.677,43.861 56.654,43.879 56.639,43.905C56.617,43.944 56.624,43.965 56.607,44.001C56.584,44.047 56.551,44.074 56.529,44.109C56.462,44.166 56.454,44.268 56.512,44.336C56.569,44.404 56.671,44.412 56.739,44.354C56.77,44.341 56.8,44.32 56.842,44.318C56.869,44.317 56.864,44.334 56.892,44.334C56.919,44.333 56.942,44.326 56.97,44.315C57.027,44.293 57.084,44.263 57.147,44.23C57.405,44.093 57.729,43.922 58.029,43.786Z" style="fill:#fff;"/>
                    <path d="M44.575,49.684L44.579,49.682C44.579,49.682 44.583,49.685 44.582,49.654C44.577,49.538 44.589,49.661 44.576,49.353C44.574,49.311 44.596,49.328 44.572,49.291C44.567,49.283 44.555,49.281 44.545,49.277C44.367,49.189 44.107,49.074 44.094,49.066C43.947,48.977 43.823,48.851 43.715,48.712C43.595,48.557 43.494,48.386 43.416,48.214C43.293,48 43.261,47.81 43.31,47.618C43.413,47.215 43.68,46.839 43.91,46.454C43.958,46.396 43.95,46.309 43.891,46.261C43.833,46.213 43.747,46.221 43.699,46.28C43.318,46.622 42.896,46.947 42.665,47.361C42.472,47.708 42.447,48.101 42.595,48.572C42.696,48.812 42.826,49.053 42.989,49.268C43.165,49.5 43.378,49.7 43.621,49.847C43.637,49.856 43.923,50.004 44.137,50.102C44.151,50.109 44.164,50.122 44.179,50.121C44.534,50.076 44.357,49.989 44.465,49.903C44.482,49.889 44.485,49.889 44.485,49.889C44.485,49.889 44.636,49.8 44.642,49.805C44.654,49.753 44.624,49.701 44.575,49.684Z" style="fill:#fff;"/>
                    <g transform="matrix(-0.00928112,-0.899943,0.981511,-0.0101223,15.2028,83.515)">
                        <ellipse cx="45.433" cy="38.956" rx="0.43" ry="0.842" style="fill:#f8fcfb;"/>
                    </g>
                    <path d="M35.928,48.064C35.937,48.062 36.167,47.841 36.167,47.734C36.167,47.627 36.087,47.553 35.952,47.402C35.903,47.348 35.837,47.322 35.766,47.29C35.386,47.118 34.964,46.869 34.604,46.745C34.361,46.664 34.113,46.611 33.862,46.575C33.522,46.526 33.177,46.51 32.834,46.472C32.677,46.454 32.523,46.427 32.37,46.395C32.255,46.371 32.141,46.344 32.027,46.317C32.189,46.235 32.365,46.163 32.547,46.097C33.373,45.799 34.332,45.66 34.973,45.569C35.192,45.536 35.412,45.511 35.633,45.493C35.852,45.475 36.072,45.463 36.292,45.462C36.329,45.461 36.644,45.506 36.785,45.474C36.805,45.469 36.999,44.616 36.929,44.542C36.919,44.531 36.901,44.533 36.884,44.529C36.72,44.493 36.337,44.497 36.292,44.497C36.048,44.495 35.803,44.503 35.559,44.52C35.316,44.537 35.075,44.564 34.834,44.597C34.142,44.695 33.104,44.849 32.213,45.174C31.517,45.427 30.912,45.79 30.56,46.273C30.482,46.379 30.341,46.895 30.857,47.051C31,47.095 31.388,47.158 31.409,47.163C31.667,47.221 31.921,47.285 32.178,47.336C32.362,47.373 32.547,47.403 32.735,47.422C33.071,47.454 33.409,47.468 33.744,47.506C33.943,47.528 34.141,47.556 34.336,47.611C34.707,47.713 35.125,48.03 35.543,48.082C35.68,48.098 35.802,48.095 35.928,48.064Z" style="fill:#fff;"/>
                </g>
            </g>
            <g transform="matrix(0.809496,0.121049,-0.121049,0.809496,-6.71156,-3.59808)">
                <g opacity="0.75">
                    <path d="M41.407,28.064C41.335,28.112 41.265,28.166 41.198,28.226C40.675,28.684 40.329,29.431 40.375,29.927C40.403,30.234 40.569,30.354 40.65,30.409C40.852,30.546 41.104,30.597 41.379,30.385C41.428,30.347 41.511,30.268 41.58,30.135C41.626,30.047 41.69,29.857 41.739,29.78C41.907,29.51 42.103,29.256 42.275,28.987C42.479,29.029 42.65,29.22 42.852,29.363C43.105,29.543 43.375,29.693 43.667,29.756C44.022,29.831 44.599,29.807 45.003,29.598C45.395,29.396 45.656,29.059 45.656,28.566C45.656,28.229 45.383,27.955 45.045,27.955C44.727,27.955 44.465,28.199 44.437,28.51C44.401,28.526 44.339,28.55 44.297,28.558C44.164,28.584 44.022,28.582 43.922,28.561C43.684,28.51 43.492,28.316 43.292,28.171C43.155,28.073 43.017,27.985 42.878,27.917C43.22,27.24 43.523,26.493 43.638,25.848C43.75,25.224 43.631,24.307 43.284,23.69C43.058,23.287 42.737,23.005 42.36,22.896C41.983,22.786 41.52,22.827 40.992,23.206C40.754,23.377 40.542,23.58 40.364,23.813C40.207,24.021 40.084,24.323 40,24.657C39.907,25.029 39.855,25.446 39.79,25.726C39.714,26.055 39.918,26.383 40.247,26.46C40.575,26.536 40.904,26.332 40.98,26.003C41.035,25.769 41.08,25.439 41.147,25.12C41.194,24.902 41.237,24.684 41.337,24.553C41.441,24.416 41.566,24.298 41.704,24.199C41.833,24.107 41.928,24.042 42.02,24.069C42.111,24.095 42.164,24.191 42.219,24.289C42.435,24.673 42.505,25.244 42.436,25.633C42.297,26.408 41.829,27.349 41.407,28.064Z" style="fill:#fff;"/>
                    <path d="M46.899,23.858C46.77,23.961 46.859,23.803 46.789,23.942C46.77,23.98 46.777,24.014 46.78,24.049C46.789,24.172 46.808,24.237 46.812,24.267C46.829,24.367 46.832,24.467 46.836,24.568C46.842,24.738 46.835,24.909 46.832,25.078C46.836,25.392 46.841,25.705 46.859,26.017C46.877,26.336 46.91,26.654 46.958,26.972C46.984,27.109 46.888,27.325 47.07,27.527C47.228,27.703 47.125,27.539 47.384,27.618C47.396,27.697 47.47,27.752 47.549,27.74C47.628,27.728 47.683,27.654 47.671,27.575C47.898,27.422 47.846,27.605 47.942,27.386C48.051,27.137 47.873,26.965 47.853,26.827C47.813,26.594 47.785,26.361 47.76,26.128C47.723,25.769 47.696,25.41 47.675,25.048C47.658,24.862 47.646,24.676 47.616,24.492C47.594,24.356 47.567,24.222 47.525,24.091C47.51,24.052 47.506,23.944 47.398,23.799C47.378,23.771 47.366,23.739 47.329,23.727C47.169,23.673 47.369,23.719 47.192,23.74C47.16,23.659 47.067,23.62 46.987,23.652C46.906,23.685 46.867,23.777 46.899,23.858Z" style="fill:#fff;"/>
                    <path d="M45.674,26.589C45.74,26.705 45.658,26.654 45.779,26.754C45.817,26.785 45.859,26.788 45.914,26.797C45.942,26.802 45.97,26.798 45.999,26.796C46.418,26.776 46.987,26.676 47.185,26.636C47.438,26.579 47.69,26.515 47.934,26.425C48.035,26.387 48.14,26.355 48.231,26.297C48.275,26.27 48.306,26.24 48.341,26.203C48.44,26.098 48.479,26.024 48.567,25.911C48.659,25.876 48.705,25.773 48.67,25.682C48.635,25.591 48.533,25.544 48.441,25.579C48.3,25.553 48.221,25.525 48.077,25.513C48.027,25.509 47.984,25.507 47.934,25.515C47.833,25.532 47.737,25.574 47.64,25.608C47.42,25.684 47.205,25.774 46.982,25.838C46.804,25.892 46.285,26.003 45.907,26.083C45.881,26.089 45.856,26.092 45.833,26.102C45.787,26.121 45.756,26.138 45.728,26.17C45.629,26.286 45.713,26.229 45.661,26.348C45.595,26.352 45.544,26.408 45.547,26.475C45.551,26.541 45.608,26.592 45.674,26.589Z" style="fill:#fff;"/>
                    <path d="M50.75,26.811C50.705,26.881 50.661,26.956 50.635,27.023C50.588,27.146 50.576,27.264 50.589,27.366C50.619,27.613 50.757,27.706 50.816,27.746C50.924,27.821 51.039,27.848 51.159,27.838C51.261,27.829 51.427,27.792 51.553,27.605C51.577,27.569 51.637,27.399 51.665,27.33L51.67,27.32C51.709,27.264 51.757,27.194 51.776,27.161L51.961,26.911C51.981,26.892 52.009,26.869 52.027,26.856C52.061,26.872 52.137,26.908 52.181,26.935C52.327,27.022 52.479,27.114 52.641,27.171C52.829,27.237 53.03,27.264 53.249,27.223C53.488,27.178 53.668,27.097 53.817,27C53.967,26.902 54.083,26.787 54.195,26.674C54.289,26.579 54.381,26.536 54.615,26.496C54.69,26.483 54.735,26.447 54.815,26.4C54.891,26.356 54.858,26.349 54.929,26.286C55.057,26.316 55.184,26.236 55.214,26.108C55.243,25.981 55.163,25.853 55.035,25.824C54.975,25.707 54.989,25.706 54.909,25.619C54.83,25.534 54.744,25.513 54.651,25.487C54.525,25.45 54.405,25.482 54.303,25.495C53.936,25.542 53.715,25.7 53.515,25.889C53.397,26 53.305,26.15 53.059,26.195C53.002,26.205 52.956,26.172 52.91,26.148C52.814,26.098 52.724,26.037 52.633,25.986C52.548,25.938 52.462,25.897 52.375,25.865L52.376,25.864C52.769,25.145 53.173,24.246 53.275,23.354C53.351,22.697 53.271,22.045 52.945,21.46C52.675,20.972 52.25,20.719 51.804,20.682C51.368,20.646 50.905,20.809 50.557,21.191C50.2,21.587 49.964,22.044 49.862,22.537C49.841,22.636 49.809,22.735 49.816,22.835C49.835,23.089 49.927,23.278 50.041,23.512C50.047,23.593 50.117,23.654 50.197,23.648C50.278,23.643 50.338,23.573 50.333,23.492C50.403,23.287 50.522,23.162 50.595,22.963C50.602,22.946 50.602,22.926 50.606,22.908C50.642,22.725 50.699,22.549 50.776,22.38C50.875,22.163 51.011,21.962 51.187,21.782C51.339,21.624 51.532,21.549 51.716,21.57C51.885,21.59 52.032,21.706 52.128,21.894C52.339,22.311 52.359,22.77 52.292,23.227C52.182,23.987 51.816,24.747 51.467,25.355L50.885,26.51L50.75,26.811Z" style="fill:#fff;"/>
                    <path d="M55.539,23.094C55.657,23.23 55.479,23.191 55.684,23.248C55.891,23.306 56.191,23.084 56.341,23.035C56.596,22.931 56.852,22.833 57.105,22.728C57.365,22.62 57.622,22.505 57.876,22.382C57.939,22.352 58.176,22.323 58.329,22.178C58.447,22.068 58.317,22.072 58.387,21.93C58.502,21.918 58.586,21.815 58.574,21.7C58.563,21.586 58.46,21.502 58.345,21.513C58.238,21.35 58.331,21.408 58.155,21.317C58.142,21.31 58.128,21.315 58.114,21.317C57.827,21.341 57.573,21.533 57.488,21.573L56,22.233C55.866,22.305 55.519,22.369 55.41,22.545C55.3,22.722 55.417,22.576 55.414,22.753C55.32,22.788 55.272,22.892 55.306,22.986C55.34,23.079 55.445,23.128 55.539,23.094Z" style="fill:#fff;"/>
                    <path d="M56.08,24.415C56.178,24.599 56.008,24.448 56.177,24.574C56.186,24.581 56.196,24.578 56.207,24.579C56.512,24.588 56.807,24.407 56.935,24.365L58.813,23.69C58.973,23.622 59.175,23.569 59.412,23.425C59.467,23.391 59.531,23.361 59.575,23.303C59.587,23.288 59.59,23.282 59.593,23.263C59.609,23.144 59.594,23.253 59.578,23.13C59.697,23.065 59.74,22.915 59.675,22.796C59.609,22.677 59.459,22.634 59.34,22.699C59.243,22.621 59.346,22.651 59.232,22.609C59.218,22.603 59.208,22.604 59.193,22.606C59.138,22.614 59.091,22.632 59.045,22.65C58.8,22.747 58.63,22.837 58.479,22.9L56.623,23.612C56.551,23.645 56.413,23.711 56.257,23.783C56.186,23.816 56.093,23.824 56.042,23.887C55.933,24.02 56.052,23.916 56.017,24.083C55.925,24.1 55.865,24.189 55.882,24.28C55.9,24.372 55.988,24.432 56.08,24.415Z" style="fill:#fff;"/>
                    <path d="M61.676,21.144C61.672,21.094 61.668,21.047 61.66,21.025C61.619,20.917 61.607,20.801 61.607,20.683C61.608,20.274 61.716,19.84 61.705,19.455C61.697,19.364 61.719,18.968 61.528,18.676C61.489,18.616 61.464,18.554 61.4,18.526C61.254,18.461 61.287,18.472 61.133,18.481C61.091,18.428 61.015,18.42 60.963,18.461C60.91,18.503 60.901,18.579 60.943,18.631C60.917,18.76 60.848,18.727 60.822,18.861C60.818,18.886 60.81,18.905 60.813,18.93C60.817,18.984 60.818,19.036 60.824,19.088C60.842,19.257 60.838,19.409 60.836,19.455C60.825,19.835 60.686,20.255 60.666,20.657C60.653,20.896 60.68,21.128 60.754,21.349C60.786,21.442 60.828,21.635 60.892,21.758C60.945,21.858 61.014,21.933 61.083,21.986C61.178,22.06 61.325,22.115 61.499,22.131C61.701,22.15 61.954,22.111 62.071,22.078C62.26,22.026 62.451,21.954 62.641,21.87C63.032,21.696 63.419,21.467 63.777,21.282C63.809,21.266 64.113,21.096 64.362,20.972C64.377,20.964 64.396,20.963 64.406,20.95C64.418,20.935 64.409,20.934 64.411,20.915C64.443,20.641 64.404,20.743 64.424,20.559C64.51,20.521 64.548,20.42 64.51,20.334C64.472,20.249 64.371,20.21 64.286,20.248C64.128,20.135 64.221,20.193 63.969,20.053C63.951,20.043 63.956,20.037 63.935,20.037C63.917,20.038 63.903,20.055 63.887,20.064C63.644,20.196 63.343,20.368 63.311,20.384C63.014,20.539 62.696,20.724 62.375,20.883C62.181,20.979 61.987,21.068 61.794,21.126C61.773,21.133 61.723,21.139 61.676,21.144ZM61.686,21.217C61.695,21.273 61.712,21.314 61.748,21.294C61.781,21.275 61.722,21.24 61.686,21.217Z" style="fill:#fff;"/>
                    <path d="M62.583,18.075L62.418,18.569L62.444,18.851L62.573,19.8C62.633,20.267 62.699,20.725 62.781,21.18C62.863,21.64 62.963,22.096 63.083,22.557C63.164,22.855 63.225,23.302 63.289,23.68C63.294,23.711 63.286,23.748 63.305,23.771C63.521,24.021 63.445,23.825 63.727,23.915C63.743,23.996 63.821,24.05 63.903,24.035C63.985,24.019 64.038,23.94 64.023,23.859C64.251,23.675 64.252,23.894 64.372,23.59C64.382,23.563 64.363,23.533 64.358,23.504C64.291,23.088 64.216,22.6 64.127,22.274C64.005,21.842 63.904,21.412 63.815,20.98C63.725,20.544 63.646,20.105 63.575,19.657C63.542,19.483 63.506,19.311 63.461,19.14C63.416,18.973 63.366,18.809 63.315,18.644L63.185,18.339L62.823,18.036C62.812,17.97 62.75,17.925 62.683,17.936C62.617,17.946 62.572,18.009 62.583,18.075Z" style="fill:#fff;"/>
                </g>
            </g>
            <path d="M9.088,20.403C9.089,20.944 9.103,21.478 9.144,22.017C9.187,22.571 9.247,23.129 9.315,23.688C8.981,23.932 8.643,24.168 8.296,24.387C8.209,24.442 8.055,24.484 7.897,24.539C7.662,24.623 7.421,24.724 7.254,24.854C7.01,25.043 6.887,25.286 6.929,25.586C6.946,25.711 6.998,25.8 7.063,25.867C7.149,25.957 7.268,26.017 7.426,26.021C7.508,26.023 7.614,26.005 7.725,25.973C7.783,25.957 7.843,25.926 7.889,25.926C8.208,25.926 8.469,26.039 8.761,26.158C9.066,26.283 9.366,26.38 9.663,26.456C9.751,27.212 9.823,27.965 9.856,28.709C9.859,28.787 9.884,28.859 9.924,28.92C9.958,29.082 10.078,29.156 10.151,29.192C10.243,29.236 10.379,29.272 10.544,29.181C10.578,29.162 10.662,29.098 10.75,28.979C10.885,28.795 11.147,28.371 11.222,28.263C11.561,27.775 11.837,27.253 12.123,26.735C12.604,26.747 13.096,26.752 13.611,26.776C13.855,26.787 14.543,26.952 15.042,26.959C15.379,26.964 15.652,26.883 15.801,26.755C15.914,26.659 15.984,26.516 15.964,26.326C15.946,26.154 15.759,25.847 15.724,25.789C15.444,25.316 15.149,24.856 14.814,24.42C14.601,24.142 14.375,23.866 14.141,23.592C14.386,23.208 14.616,22.816 14.819,22.409C14.959,22.127 15.167,21.757 15.275,21.386C15.366,21.071 15.385,20.754 15.29,20.467C15.249,20.341 15.136,20.161 14.852,20.174C14.794,20.177 14.673,20.204 14.534,20.256C14.333,20.332 14.063,20.457 14.037,20.467C13.37,20.749 12.821,21.167 12.246,21.575C11.848,21.182 11.448,20.799 11.056,20.429C10.928,20.307 10.335,19.624 9.979,19.423C9.729,19.282 9.51,19.306 9.371,19.385C9.267,19.444 9.168,19.554 9.117,19.722C9.059,19.916 9.085,20.35 9.088,20.403ZM10.519,26.622C10.558,26.97 10.593,27.317 10.622,27.663C10.831,27.349 11.016,27.022 11.197,26.692C10.97,26.676 10.744,26.653 10.519,26.622ZM13.663,24.317C13.303,24.847 12.935,25.373 12.598,25.916C12.939,25.921 13.288,25.927 13.648,25.943C13.858,25.953 14.396,26.076 14.861,26.116C14.889,26.118 14.92,26.119 14.951,26.12C14.705,25.709 14.446,25.309 14.154,24.928C13.996,24.723 13.832,24.519 13.663,24.317ZM12.144,22.653C11.477,23.093 10.841,23.587 10.199,24.067C10.27,24.634 10.346,25.202 10.417,25.769C10.825,25.839 11.23,25.873 11.641,25.892C12.084,25.126 12.607,24.406 13.1,23.669C12.791,23.325 12.47,22.986 12.144,22.653ZM9.432,24.628C9.205,24.788 8.975,24.943 8.742,25.091C8.688,25.125 8.616,25.157 8.534,25.19C8.715,25.242 8.892,25.311 9.077,25.387C9.237,25.453 9.395,25.51 9.552,25.559L9.528,25.369L9.432,24.628ZM9.922,20.436C9.922,20.944 9.936,21.446 9.975,21.952C10.005,22.338 10.043,22.725 10.086,23.113C10.566,22.751 11.046,22.388 11.543,22.052C11.189,21.704 10.833,21.365 10.484,21.035C10.41,20.965 10.167,20.674 9.922,20.436ZM14.463,21.193L14.361,21.235C13.794,21.474 13.321,21.822 12.838,22.172C13.085,22.426 13.329,22.683 13.567,22.944C13.748,22.649 13.919,22.348 14.072,22.038C14.176,21.83 14.325,21.569 14.426,21.297C14.439,21.263 14.452,21.228 14.463,21.193Z" style="fill:#fff;fill-opacity:0.75;"/>
            <path d="M267.576,50.822L267.386,50.782C267.251,50.754 266.615,50.693 266.081,50.61C266.039,50.569 265.996,50.532 265.955,50.498C265.552,50.175 265.16,50.164 264.881,50.433C264.741,50.568 264.72,50.714 264.744,50.846C264.763,50.955 264.86,51.146 265.134,51.249C265.254,51.293 265.445,51.336 265.664,51.375C265.949,51.695 266.221,52.118 266.369,52.343C266.101,52.705 265.842,53.076 265.6,53.465C265.403,53.781 265.21,54.099 265.013,54.415C265.002,54.434 264.767,54.804 264.673,55.01C264.617,55.135 264.601,55.241 264.602,55.296C264.605,55.45 264.674,55.549 264.747,55.614C264.819,55.678 264.911,55.723 265.033,55.723C265.119,55.723 265.199,55.697 265.265,55.652C265.419,55.732 265.612,55.707 265.742,55.583C265.764,55.575 265.906,55.52 266.003,55.496C266.314,55.42 266.683,55.368 266.857,55.307C267.352,55.135 267.851,54.97 268.348,54.799C268.457,54.938 268.565,55.078 268.672,55.219C268.875,55.489 269.069,55.761 269.213,56.069C269.233,56.113 269.424,56.613 269.477,56.703C269.672,57.034 269.992,56.904 270.063,56.861C270.138,56.816 270.246,56.71 270.295,56.52C270.347,56.32 270.358,55.89 270.366,55.815C270.433,55.21 270.437,54.607 270.435,54C270.55,53.949 270.664,53.897 270.777,53.843C271.174,53.655 271.557,53.424 271.977,53.286C272.133,53.235 272.289,53.201 272.45,53.171C272.475,53.166 272.71,53.117 272.751,53.1C272.871,53.051 272.924,52.975 272.947,52.939C273.059,52.766 273.038,52.608 272.933,52.465C272.849,52.35 272.685,52.231 272.471,52.14C272.161,52.008 271.717,51.914 271.535,51.845C271.133,51.692 270.727,51.562 270.318,51.447C270.186,50.45 270.366,49.485 270.285,48.492C270.272,48.337 270.195,48.246 270.111,48.186C270.08,48.164 269.797,47.991 269.554,48.251C269.481,48.329 269.123,48.788 269.098,48.826C268.86,49.194 268.61,49.553 268.335,49.895C268.083,50.208 267.828,50.515 267.576,50.822ZM269.602,54.345C269.461,54.4 269.318,54.454 269.176,54.506C269.23,54.576 269.284,54.647 269.337,54.717C269.423,54.832 269.507,54.946 269.587,55.063C269.598,54.824 269.601,54.585 269.602,54.345ZM266.903,53.024C266.696,53.309 266.496,53.602 266.307,53.906C266.146,54.164 265.988,54.424 265.828,54.682C266.11,54.617 266.429,54.574 266.583,54.52C266.985,54.381 267.39,54.246 267.795,54.109C267.499,53.746 267.199,53.386 266.903,53.024ZM267.9,51.74C267.738,51.938 267.577,52.138 267.419,52.339C267.822,52.834 268.231,53.322 268.632,53.818C268.957,53.701 269.281,53.58 269.601,53.45C269.6,53 269.589,52.552 269.552,52.106C269.006,51.969 268.455,51.854 267.9,51.74ZM270.404,52.34C270.419,52.588 270.427,52.836 270.431,53.085C270.727,52.944 271.017,52.784 271.318,52.65C271.288,52.641 271.262,52.632 271.239,52.624C270.962,52.519 270.684,52.425 270.404,52.34ZM266.895,51.64L266.903,51.651L266.913,51.638L266.974,51.562L266.861,51.548L266.83,51.544L266.895,51.64ZM269.464,49.775C269.311,49.994 269.152,50.209 268.984,50.418C268.822,50.618 268.66,50.816 268.497,51.013C268.819,51.081 269.14,51.151 269.458,51.226C269.424,50.739 269.447,50.257 269.464,49.775Z" style="fill:#fff;fill-opacity:0.75;"/>
            <g opacity="0.75">
                <g transform="matrix(0.582686,0,0,0.582686,3.04767,23.087)">
                    <path d="M12.035,48.19C11.697,50.311 11.208,52.407 10.917,54.534C10.837,55.121 11.248,55.662 11.835,55.742C12.421,55.822 12.963,55.411 13.043,54.825C13.331,52.713 13.818,50.633 14.154,48.528C14.247,47.943 13.848,47.393 13.263,47.3C12.679,47.207 12.128,47.606 12.035,48.19Z" style="fill:#fff;"/>
                </g>
                <g transform="matrix(0.582686,0,0,0.582686,3.04767,23.087)">
                    <path d="M15.54,48.141C14.754,51.08 14.516,54.137 13.787,57.094C13.645,57.669 13.997,58.251 14.571,58.392C15.146,58.534 15.728,58.183 15.87,57.608C16.596,54.665 16.83,51.621 17.613,48.695C17.766,48.123 17.426,47.535 16.854,47.382C16.282,47.229 15.693,47.569 15.54,48.141Z" style="fill:#fff;"/>
                </g>
                <g transform="matrix(0.582686,0,0,0.582686,3.04767,23.087)">
                    <path d="M18.468,48.232C17.762,50.805 17.401,53.461 16.88,56.078C16.764,56.658 17.142,57.224 17.722,57.339C18.303,57.455 18.868,57.077 18.984,56.497C19.495,53.929 19.845,51.324 20.537,48.799C20.693,48.228 20.357,47.637 19.786,47.481C19.215,47.325 18.624,47.661 18.468,48.232Z" style="fill:#fff;"/>
                </g>
                <g transform="matrix(0.582686,0,0,0.582686,3.04767,23.087)">
                    <path d="M20.595,50.135C20.39,52.006 20.089,53.928 19.651,55.757C19.513,56.333 19.869,56.912 20.444,57.05C21.02,57.188 21.599,56.832 21.737,56.257C22.196,54.341 22.513,52.328 22.728,50.369C22.792,49.78 22.367,49.25 21.778,49.186C21.19,49.121 20.66,49.547 20.595,50.135Z" style="fill:#fff;"/>
                </g>
                <g transform="matrix(0.582686,0,0,0.582686,3.04767,23.087)">
                    <path d="M9.493,53.614C10.772,53.703 12.081,53.617 13.361,53.613C17.294,53.602 21.236,53.347 25.164,53.164C25.756,53.137 26.214,52.634 26.186,52.043C26.159,51.451 25.656,50.994 25.065,51.021C21.168,51.203 17.257,51.457 13.355,51.468C12.126,51.472 10.869,51.559 9.642,51.474C9.051,51.433 8.539,51.879 8.498,52.47C8.457,53.06 8.903,53.573 9.493,53.614Z" style="fill:#fff;"/>
                </g>
            </g>
            <g opacity="0.75">
                <g transform="matrix(0.707822,0,0,0.638451,5.57899,18.2282)">
                    <path d="M21.532,47.947C21.212,50.711 21.189,53.507 20.806,56.264C20.732,56.798 21.063,57.299 21.545,57.381C22.026,57.463 22.478,57.096 22.552,56.562C22.937,53.789 22.962,50.976 23.284,48.196C23.346,47.66 23.004,47.169 22.521,47.1C22.037,47.032 21.595,47.411 21.532,47.947Z" style="fill:#fff;"/>
                </g>
                <g transform="matrix(0.707822,0,0,0.638451,5.57899,18.2282)">
                    <path d="M23.99,47.456C23.947,48.627 23.755,49.815 23.657,50.981C23.517,52.645 23.504,54.359 23.148,55.997C23.034,56.522 23.326,57.051 23.8,57.177C24.274,57.304 24.751,56.98 24.865,56.455C25.24,54.726 25.267,52.919 25.415,51.163C25.516,49.963 25.711,48.741 25.755,47.535C25.775,46.996 25.395,46.539 24.909,46.517C24.422,46.495 24.01,46.916 23.99,47.456Z" style="fill:#fff;"/>
                </g>
                <g transform="matrix(0.707822,0,0,0.638451,5.57899,18.2282)">
                    <path d="M26.177,48.1C26.177,50.65 25.77,53.252 25.337,55.759C25.246,56.289 25.56,56.803 26.039,56.904C26.518,57.005 26.981,56.657 27.072,56.126C27.525,53.5 27.943,50.772 27.943,48.1C27.943,47.56 27.547,47.121 27.06,47.121C26.573,47.121 26.177,47.56 26.177,48.1Z" style="fill:#fff;"/>
                </g>
                <g transform="matrix(0.707822,0,0,0.638451,5.57899,18.2282)">
                    <path d="M28.298,48.174C28.312,50.383 28.218,52.679 27.892,54.884C27.814,55.417 28.14,55.921 28.621,56.008C29.102,56.096 29.556,55.733 29.635,55.2C29.977,52.887 30.078,50.478 30.064,48.16C30.06,47.62 29.662,47.184 29.175,47.188C28.687,47.192 28.295,47.633 28.298,48.174Z" style="fill:#fff;"/>
                </g>
                <g transform="matrix(0.707822,0,0,0.638451,5.57899,18.2282)">
                    <path d="M18.995,51.188C22.836,52.666 26.886,53.865 30.951,54.534C31.433,54.614 31.883,54.244 31.954,53.71C32.026,53.175 31.693,52.677 31.211,52.598C27.254,51.946 23.313,50.777 19.574,49.339C19.114,49.162 18.61,49.432 18.451,49.942C18.291,50.453 18.535,51.011 18.995,51.188Z" style="fill:#fff;"/>
                </g>
            </g>
            <g transform="matrix(0.976398,0.21598,-0.21598,0.976398,10.2967,-58.07)">
                <g opacity="0.75">
                    <path d="M266.323,27.591C266.477,27.684 266.675,27.69 266.84,27.591C267.169,27.392 267.507,26.87 267.762,26.576C268.727,25.462 269.592,24.073 269.564,22.551C269.551,21.828 269.33,21.254 268.853,20.7C268.749,20.579 268.627,20.43 268.486,20.322C268.331,20.204 268.157,20.129 267.965,20.116C267.366,20.074 266.904,20.159 266.518,20.376C266.156,20.579 265.854,20.904 265.587,21.399C265.307,21.136 264.968,20.938 264.607,20.82C263.641,20.504 262.54,20.753 261.969,21.809C261.773,22.172 261.773,22.546 261.778,22.948C261.784,23.499 261.912,23.995 262.147,24.494C262.464,25.169 262.93,25.719 263.418,26.274C264.054,26.997 264.795,27.55 265.709,27.857C265.953,27.94 266.218,27.821 266.323,27.591ZM265.333,23.08C265.333,22.432 264.848,21.95 264.296,21.77C263.77,21.598 263.16,21.708 262.849,22.284C262.738,22.49 262.775,22.709 262.778,22.937C262.782,23.341 262.88,23.703 263.052,24.069C263.328,24.657 263.744,25.13 264.169,25.613C264.687,26.201 265.284,26.659 266.027,26.909C266.063,26.921 266.096,26.937 266.126,26.955C266.166,26.867 266.233,26.789 266.322,26.735C266.424,26.674 266.518,26.552 266.613,26.43C266.755,26.249 266.889,26.057 267.006,25.921C267.815,24.987 268.587,23.845 268.564,22.57C268.555,22.094 268.409,21.717 268.095,21.352C268.046,21.295 267.993,21.227 267.933,21.166C267.916,21.149 267.884,21.123 267.87,21.112C267.517,21.089 267.238,21.118 267.009,21.247C266.773,21.38 266.599,21.613 266.428,21.949C266.315,22.17 266.333,22.381 266.333,22.622L266.333,23.088L266.333,23.092C266.33,23.677 266.081,23.784 265.833,23.691C265.585,23.784 265.336,23.677 265.333,23.092L265.333,23.08Z" style="fill:#fff;"/>
                    <path d="M259.884,27.864L259.877,27.858C259.677,27.688 258.996,27.437 258.53,27.478C258.266,27.501 258.067,27.615 257.982,27.816C257.911,27.982 257.903,28.177 257.942,28.374C257.994,28.638 258.13,28.903 258.269,29.074C258.786,29.709 259.692,30.269 260.531,30.269C260.59,30.269 260.644,30.244 260.682,30.204C260.689,30.225 260.7,30.246 260.715,30.264C260.767,30.33 260.831,30.359 260.9,30.365C260.961,30.37 261.039,30.352 261.118,30.292C261.322,30.136 261.654,29.5 261.684,29.435C261.856,29.065 262.091,28.264 262.011,27.641C261.949,27.157 261.71,26.775 261.186,26.682C260.445,26.552 259.963,27.217 259.884,27.864ZM261.037,30.001L261.042,30.006C261.041,30.004 261.039,30.003 261.037,30.001ZM260.896,29.928C260.919,29.902 260.951,29.865 260.975,29.832C261.127,29.62 261.287,29.302 261.306,29.26C261.456,28.937 261.667,28.238 261.598,27.694C261.56,27.399 261.434,27.149 261.114,27.093C260.861,27.048 260.663,27.161 260.526,27.335C260.371,27.532 260.289,27.803 260.289,28.049C260.289,28.1 260.282,28.205 260.284,28.309C260.291,28.321 260.297,28.335 260.302,28.35C260.331,28.423 260.358,28.537 260.359,28.575C260.36,28.653 260.326,28.701 260.304,28.726C260.268,28.765 260.226,28.786 260.177,28.793C260.137,28.799 260.071,28.801 260.002,28.739C259.948,28.689 259.901,28.6 259.882,28.486C259.881,28.476 259.879,28.466 259.878,28.456C259.794,28.356 259.707,28.26 259.607,28.176C259.474,28.063 259.063,27.914 258.721,27.892C258.621,27.886 258.528,27.89 258.452,27.915C258.414,27.928 258.38,27.944 258.365,27.979C258.325,28.072 258.329,28.183 258.351,28.293C258.389,28.489 258.489,28.684 258.592,28.811C259.037,29.358 259.809,29.853 260.531,29.853C260.622,29.853 260.699,29.911 260.727,29.992C260.734,29.985 260.742,29.978 260.75,29.972C260.793,29.938 260.845,29.924 260.896,29.928Z" style="fill:#fff;"/>
                    <path d="M267.449,33.27C267.476,33.354 267.555,33.414 267.647,33.414C267.745,33.414 267.845,33.38 267.941,33.326C268.034,33.275 268.123,33.202 268.204,33.161C268.493,33.018 268.832,32.887 269.099,32.697C269.411,32.474 269.635,32.177 269.635,31.718C269.635,31.603 269.643,31.47 269.616,31.353C269.59,31.239 269.535,31.137 269.435,31.059C269.243,30.907 269,30.868 268.755,30.911C268.449,30.966 268.142,31.151 267.957,31.354C267.946,31.29 267.932,31.226 267.914,31.165C267.842,30.92 267.711,30.712 267.497,30.592C267.37,30.521 267.255,30.515 267.154,30.543C267.06,30.57 266.974,30.632 266.902,30.725C266.679,31.016 266.605,31.693 266.622,31.866C266.668,32.333 266.93,32.807 267.176,33.197C267.234,33.29 267.354,33.321 267.449,33.27ZM268.036,31.982C268.033,31.997 267.995,32.161 267.988,32.178C267.939,32.308 267.83,32.314 267.794,32.315C267.774,32.315 267.582,32.305 267.582,32.092C267.582,31.903 267.588,31.646 267.544,31.409C267.509,31.222 267.449,31.043 267.294,30.956C267.284,30.95 267.277,30.941 267.268,30.944C267.258,30.948 267.25,30.958 267.241,30.968C267.218,30.994 267.199,31.029 267.181,31.067C267.063,31.317 267.025,31.712 267.036,31.825C267.076,32.23 267.315,32.637 267.528,32.975C267.538,32.99 267.545,33.005 267.55,33.021C267.579,33.006 267.612,32.997 267.647,32.997C267.692,32.997 267.734,32.967 267.777,32.94C267.862,32.887 267.944,32.826 268.019,32.788C268.289,32.654 268.607,32.536 268.857,32.358C269.063,32.211 269.218,32.02 269.218,31.718C269.218,31.655 269.223,31.585 269.219,31.517C269.217,31.468 269.217,31.417 269.177,31.386C269.079,31.308 268.953,31.299 268.828,31.322C268.599,31.362 268.369,31.507 268.243,31.66C268.162,31.758 268.099,31.871 268.036,31.982Z" style="fill:#fff;"/>
                </g>
            </g>
            <g opacity="0.75">
                <g transform="matrix(1,0,0,1,0,8.75)">
                    <path d="M252.72,41.907C252.22,41.984 251.856,42.423 251.872,42.929C251.889,43.435 252.281,43.848 252.786,43.892C254.003,43.997 255.054,44.003 256.085,43.857C257.134,43.709 258.163,43.406 259.319,42.882C259.774,42.676 260.006,42.165 259.864,41.686C259.722,41.208 259.248,40.907 258.754,40.983L252.72,41.907ZM243.538,39.363C243.115,39.131 242.587,39.233 242.281,39.606C241.976,39.979 241.98,40.518 242.292,40.886C242.929,41.636 243.82,42.285 244.801,42.798C245.735,43.287 246.748,43.656 247.672,43.889C248.159,44.012 248.662,43.753 248.847,43.286C249.031,42.818 248.839,42.286 248.399,42.043L243.538,39.363ZM226.959,37.634C226.453,37.517 225.941,37.808 225.782,38.303C225.623,38.798 225.871,39.333 226.351,39.532C226.964,39.786 227.529,39.963 228.104,40.091C228.665,40.216 229.236,40.294 229.873,40.35C230.396,40.396 230.866,40.029 230.948,39.51C231.031,38.992 230.698,38.498 230.186,38.379L226.959,37.634ZM263.264,38.564C262.885,38.859 262.769,39.382 262.988,39.809C263.207,40.237 263.698,40.448 264.159,40.313C264.986,40.071 265.846,39.562 266.62,38.932C267.353,38.336 268.009,37.636 268.489,36.991C268.787,36.59 268.744,36.03 268.386,35.68C268.029,35.33 267.468,35.298 267.073,35.605L263.264,38.564ZM234.515,38.045C234.064,38.147 233.743,38.544 233.736,39.006C233.73,39.468 234.041,39.874 234.488,39.988C235.466,40.239 236.431,40.161 237.367,39.895C238.2,39.658 239.01,39.269 239.781,38.864C240.225,38.63 240.427,38.103 240.253,37.632C240.079,37.161 239.583,36.892 239.093,37.004L234.515,38.045ZM221.403,33.587C220.988,33.254 220.385,33.305 220.031,33.701C219.677,34.098 219.696,34.702 220.073,35.077C220.467,35.468 220.862,35.8 221.268,36.114C221.649,36.408 222.04,36.687 222.453,36.99C222.892,37.313 223.507,37.225 223.839,36.793C224.17,36.362 224.095,35.745 223.671,35.404L221.403,33.587ZM234.961,33.998C234.979,34.033 234.991,34.058 234.997,34.069C235.427,34.893 235.976,35.653 236.485,36.43C236.785,36.888 237.399,37.019 237.86,36.724C238.322,36.428 238.46,35.816 238.169,35.351L236.709,33.021C236.588,32.778 236.359,32.338 236.212,32.135C236.038,31.896 235.846,31.778 235.734,31.727C235.449,31.597 235.192,31.616 234.977,31.69C234.795,31.752 234.625,31.863 234.487,32.051C234.244,32.381 234.228,32.826 234.445,33.173L234.961,33.998ZM242.495,34.668C242.083,35.009 242.012,35.612 242.333,36.04C242.654,36.467 243.253,36.566 243.695,36.266C244.234,35.899 244.843,35.527 245.407,35.109C246.061,34.623 246.651,34.072 247.06,33.424C247.321,33.008 247.242,32.464 246.873,32.14C246.504,31.816 245.955,31.808 245.576,32.121L242.495,34.668ZM268.833,32.364C268.608,32.849 268.806,33.426 269.282,33.671C269.757,33.916 270.342,33.744 270.608,33.28C271.039,32.53 271.574,31.725 272.021,30.889C272.529,29.939 272.921,28.947 273.005,27.95C273.046,27.466 272.734,27.023 272.264,26.899C271.795,26.775 271.304,27.006 271.101,27.447L268.833,32.364ZM217.075,27.051C216.861,26.644 216.397,26.435 215.951,26.545C215.504,26.655 215.19,27.056 215.19,27.516C215.19,28.299 215.571,29.163 216.091,29.976C216.492,30.604 216.969,31.205 217.262,31.705C217.537,32.173 218.136,32.336 218.61,32.072C219.085,31.808 219.262,31.214 219.01,30.733L217.075,27.051ZM247.292,29.122C247.136,29.596 247.353,30.112 247.8,30.332C248.248,30.552 248.789,30.409 249.069,29.996C249.647,29.144 250.103,28.275 250.416,27.359C250.737,26.423 250.911,25.438 250.911,24.37C250.911,23.879 250.554,23.461 250.069,23.383C249.584,23.305 249.115,23.591 248.961,24.057L247.292,29.122ZM233.034,24.826C232.948,24.341 232.523,23.99 232.03,24C231.538,24.009 231.126,24.375 231.058,24.863C230.949,25.655 230.968,26.512 231.112,27.345C231.257,28.187 231.53,29.003 231.918,29.708C232.154,30.136 232.665,30.331 233.126,30.168C233.587,30.005 233.863,29.533 233.778,29.051L233.034,24.826ZM271.536,23.659C271.344,24.165 271.59,24.732 272.091,24.938C272.592,25.144 273.165,24.914 273.385,24.419L275.139,20.465C275.355,19.98 275.153,19.411 274.681,19.169C274.208,18.927 273.629,19.097 273.361,19.556C272.976,20.216 272.647,20.904 272.347,21.606C272.058,22.282 271.796,22.971 271.536,23.659ZM235.492,18.265C235.757,17.822 235.641,17.251 235.224,16.946C234.808,16.641 234.228,16.703 233.886,17.089C233.4,17.636 233.016,18.135 232.693,18.666C232.364,19.209 232.098,19.787 231.863,20.486C231.7,20.97 231.928,21.5 232.392,21.713C232.857,21.927 233.407,21.757 233.669,21.318L235.492,18.265ZM246.956,15.458C246.552,15.183 246.009,15.24 245.671,15.592C245.333,15.945 245.299,16.49 245.591,16.882L247.765,19.802C248.038,20.169 248.526,20.304 248.949,20.129C249.372,19.954 249.622,19.515 249.557,19.062C249.418,18.104 249.09,17.426 248.614,16.853C248.191,16.344 247.637,15.922 246.956,15.458ZM242.075,16.062C242.576,16.026 242.972,15.623 243.001,15.122C243.029,14.621 242.682,14.176 242.188,14.082C241.233,13.902 240.519,13.853 239.817,13.913C239.131,13.972 238.455,14.138 237.565,14.412C237.079,14.562 236.783,15.053 236.877,15.553C236.972,16.053 237.426,16.402 237.933,16.365L242.075,16.062Z" style="fill:#fff;"/>
                </g>
            </g>
            <g transform="matrix(0.82393,0,0,0.818495,-0.287546,-7.51244)">
                <g opacity="0.75">
                    <g transform="matrix(1.2137,0,0,1.22175,0.348993,19.8687)">
                        <path d="M213.232,15.77C213.073,15.563 212.9,15.366 212.712,15.207C212.747,15.113 212.778,15.018 212.806,14.922C212.804,14.931 213.252,13.653 213.252,13.653C213.297,13.528 213.343,13.403 213.387,13.278C213.427,13.162 213.417,13.176 213.457,13.073C213.48,13.012 213.503,12.951 213.528,12.891C213.603,12.715 213.627,12.63 213.631,12.614C213.718,12.211 213.446,12.042 213.375,11.997C213.347,11.979 212.787,11.741 212.528,12.246C212.464,12.371 212.205,12.938 212.167,13.021C211.939,13.519 211.847,14.055 211.693,14.571L211.605,14.823C211.563,14.828 211.522,14.836 211.483,14.846C211.357,14.878 211.239,14.932 211.131,15.007C210.774,14.394 210.383,13.8 209.957,13.232C209.744,12.949 209.524,12.672 209.283,12.412C209.171,12.29 209.001,12.169 208.956,12.149C208.732,12.05 208.559,12.11 208.46,12.158C208.399,12.188 207.874,12.526 208.274,13.079L208.27,13.074L210.405,16.088C210.422,16.112 210.441,16.135 210.461,16.155L210.454,16.185C210.386,16.145 210.321,16.107 210.301,16.098C209.81,15.863 209.339,15.532 208.829,15.348C207.301,14.797 205.424,14.796 203.943,15.463C203.034,15.873 202.181,16.921 202.297,17.977C202.391,18.833 203.399,20.546 204.341,21.274C205.49,22.162 206.968,22.245 207.848,22.174C208.128,22.151 208.427,22.116 208.728,22.065C208.522,22.608 208.356,23.223 208.322,23.825C208.275,24.672 208.481,25.493 209.114,26.128C209.905,26.919 211.463,27.118 212.331,26.27C212.724,25.887 212.958,25.461 213.088,24.941C213.088,24.941 213.098,24.931 213.172,25.004C213.538,25.368 213.927,25.595 214.216,25.646C214.699,25.732 215.05,25.652 215.321,25.531C215.62,25.397 215.84,25.151 215.976,24.819C216.052,24.633 216.097,24.414 216.121,24.183C216.479,24.512 216.968,24.684 217.39,24.736C217.922,24.802 218.467,24.672 218.968,24.472C220.554,23.836 220.542,21.773 219.644,20.616C219.406,20.309 219.062,20.001 218.679,19.75C221.472,17.897 222.778,13.484 219.293,11.419C218.883,11.176 218.397,11.096 217.898,11.137C217.249,11.191 216.577,11.451 216.078,11.734C214.625,12.559 213.544,14.117 213.232,15.77ZM210.421,21.487L211.987,24.518C211.977,24.567 211.966,24.62 211.964,24.631C211.888,24.946 211.752,25.205 211.516,25.436C211.09,25.852 210.328,25.692 209.94,25.303C209.554,24.917 209.458,24.407 209.487,23.891C209.521,23.28 209.731,22.657 209.955,22.146C210.032,21.97 210.192,21.714 210.389,21.521C210.4,21.51 210.411,21.499 210.421,21.487ZM211.777,15.99C211.796,15.997 211.822,16.006 211.841,16.016C212.024,16.109 212.174,16.287 212.315,16.472C212.504,16.721 212.667,16.993 212.814,17.211C213.917,18.849 214.522,20.895 214.891,22.818C214.928,23.013 214.973,23.313 214.983,23.627C214.989,23.825 214.982,24.03 214.945,24.211C214.93,24.283 214.911,24.351 214.881,24.41C214.871,24.431 214.859,24.447 214.846,24.465C214.533,24.87 213.328,23.622 213.042,23.261C211.987,21.922 211.526,19.935 211.46,18.351C211.451,18.135 211.461,17.92 211.461,17.704C211.461,17.525 211.468,17.079 211.545,16.644C211.567,16.525 211.593,16.407 211.628,16.296C211.661,16.189 211.744,16.044 211.777,15.99ZM216.875,20.239C217.582,20.251 218.391,20.904 218.723,21.332C218.981,21.664 219.129,22.13 219.097,22.558C219.07,22.909 218.939,23.306 218.577,23.483C218.293,23.622 217.764,23.675 217.39,23.57C217.091,23.485 216.81,23.225 216.665,23.063C216.646,23.038 216.585,22.957 216.52,22.881L215.966,20.369C216.107,20.369 216.779,20.321 216.875,20.239ZM209.781,17.142L209.834,17.174C209.854,17.186 209.874,17.198 209.894,17.21L209.964,17.249L210.302,20.235C210.312,20.32 210.254,20.481 210.095,20.603C210.014,20.666 209.352,21.207 207.995,21.284C207.214,21.328 206.061,21.299 205.098,20.532C204.435,20.005 203.492,18.748 203.457,17.85C203.434,17.271 203.927,16.75 204.422,16.527C205.638,15.979 207.179,15.994 208.433,16.446C208.902,16.615 209.331,16.925 209.781,17.142ZM217.366,19.141C217.293,19.173 216.374,19.775 215.876,19.553C215.65,19.452 215.388,19.05 215.19,18.644C215.026,18.306 214.362,17.307 214.366,17.379C214.032,15.608 215.08,13.642 216.654,12.749C216.965,12.573 217.363,12.404 217.768,12.33C218.096,12.271 218.43,12.264 218.698,12.423C220.123,13.267 220.448,14.636 220.109,15.926C219.75,17.29 218.685,18.575 217.366,19.141Z" style="fill:#fff;"/>
                    </g>
                </g>
            </g>
        </g>
        <path d="M0,15.617L4.167,15.617L4.167,15.234L275.833,15.234L275.833,15.617L280,15.617L280,14.78C280,12.731 278.336,11.067 276.287,11.067L3.713,11.067C1.664,11.067 0,12.731 0,14.78L0,15.617Z" style="fill:#804d1b;"/>
        <g transform="matrix(0.796417,-1.96332e-32,0,0.796417,33.7348,12.1754)">
            <g transform="matrix(1.03414,0,0,1,-7.5781,0)">
                <path d="M252.33,57.001C252.33,56.485 251.924,56.066 251.425,56.066L222.879,56.066C222.38,56.066 221.975,56.485 221.975,57.001L221.975,58.871C221.975,59.387 222.38,59.805 222.879,59.805L251.425,59.805C251.924,59.805 252.33,59.387 252.33,58.871L252.33,57.001Z" style="fill:#2c2c2c;"/>
            </g>
            <g transform="matrix(1.25562,3.09535e-32,0,1.25562,-42.3582,-15.2877)">
                <path d="M210.52,58.316L235.52,58.316L235.52,57.572C235.52,57.161 235.186,56.827 234.775,56.827L211.264,56.827C210.853,56.827 210.52,57.161 210.52,57.572L210.52,58.316Z" style="fill:#090909;"/>
            </g>
            <g transform="matrix(0.984035,0,0,1,3.7944,-0.240526)">
                <path d="M222.457,53.657C222.449,52.995 221.909,52.461 221.246,52.461L221.246,52.355L254.095,52.355L254.095,52.461C253.432,52.461 252.892,52.995 252.884,53.657C252.892,54.318 253.432,54.853 254.095,54.853L254.095,54.958L221.246,54.958L221.246,54.853C221.909,54.853 222.449,54.318 222.457,53.657Z" style="fill:#9d6c32;"/>
            </g>
            <g transform="matrix(1.08221,0,0,0.704417,-18.9776,14.8061)">
                <path d="M252.33,57.001C252.33,56.485 252.057,56.066 251.721,56.066L222.584,56.066C222.248,56.066 221.975,56.485 221.975,57.001L221.975,58.871C221.975,59.387 222.248,59.805 222.584,59.805L251.721,59.805C252.057,59.805 252.33,59.387 252.33,58.871L252.33,57.001Z" style="fill:#b58449;"/>
            </g>
            <g transform="matrix(1.23558,3.04594e-32,0,1.00127,-37.8876,-0.92437)">
                <path d="M236.101,56.47L209.939,56.47L209.939,56.994C209.939,57.284 210.174,57.519 210.463,57.519L235.576,57.519C235.866,57.519 236.101,57.284 236.101,56.994L236.101,56.47Z" style="fill:#a0733d;"/>
            </g>
            <g transform="matrix(1.08221,0,0,0.704417,-18.9776,10.5376)">
                <path d="M252.33,57.001C252.33,56.485 252.057,56.066 251.721,56.066L222.584,56.066C222.248,56.066 221.975,56.485 221.975,57.001L221.975,58.871C221.975,59.387 222.248,59.805 222.584,59.805L251.721,59.805C252.057,59.805 252.33,59.387 252.33,58.871L252.33,57.001Z" style="fill:#b58449;"/>
            </g>
            <g transform="matrix(1.23558,3.04594e-32,0,1.00127,-37.8876,-5.17177)">
                <path d="M236.101,56.885L209.939,56.885L209.939,56.994C209.939,57.284 210.174,57.519 210.463,57.519L235.576,57.519C235.866,57.519 236.101,57.284 236.101,56.994L236.101,56.885Z" style="fill:#a0733d;"/>
            </g>
        </g>
        <g transform="matrix(0.796417,-1.96332e-32,0,0.796417,33.7348,12.1754)">
            <g transform="matrix(1.08389,0,0,1,-23.3717,-0.434298)">
                <path d="M215.893,56.838C215.893,56.212 215.425,55.704 214.847,55.704L202.56,55.704C201.982,55.704 201.513,56.212 201.513,56.838L201.513,59.106C201.513,59.732 201.982,60.24 202.56,60.24L214.847,60.24C215.425,60.24 215.893,59.732 215.893,59.106L215.893,56.838Z" style="fill:#804d1b;"/>
                <path d="M215.893,56.838C215.893,56.212 215.425,55.704 214.847,55.704L202.56,55.704C201.982,55.704 201.513,56.212 201.513,56.838L201.513,59.106C201.513,59.732 201.982,60.24 202.56,60.24L214.847,60.24C215.425,60.24 215.893,59.732 215.893,59.106L215.893,56.838Z" style="fill:#fff;"/>
            </g>
            <path d="M210.658,50.577C210.376,50.44 210.071,50.364 209.698,50.457L205.457,51.368C205.161,51.455 204.964,51.671 204.939,51.897C204.898,52.258 205.159,52.605 205.495,52.803L216.975,59.556C217.514,59.873 218.21,59.693 218.527,59.154L219.677,57.199C219.994,56.659 219.814,55.964 219.275,55.646L210.658,50.577Z" style="fill:#804d1b;"/>
            <path d="M210.658,50.577C210.376,50.44 210.071,50.364 209.698,50.457L205.457,51.368C205.161,51.455 204.964,51.671 204.939,51.897C204.898,52.258 205.159,52.605 205.495,52.803L216.975,59.556C217.514,59.873 218.21,59.693 218.527,59.154L219.677,57.199C219.994,56.659 219.814,55.964 219.275,55.646L210.658,50.577Z" style="fill:#fff;"/>
            <path d="M205.544,51.583C205.181,51.722 205.178,52.166 205.524,52.336L206.046,52.514C206.532,52.669 207.599,52.692 208.119,52.642C209.029,52.554 210.409,52.041 210.831,51.412C210.913,51.291 210.901,51.163 210.835,51.094L210.477,50.837C210.263,50.71 210.012,50.662 209.703,50.733L205.544,51.583Z" style="fill:#ebebeb;"/>
        </g>
        <g transform="matrix(-0.893232,-1.09389e-16,8.74808e-17,-0.714335,285.834,65.8968)">
            <path d="M320,8.028C320,5.159 318.138,2.83 315.844,2.83L10.688,2.83C8.394,2.83 6.532,5.159 6.532,8.028L6.532,74.803C6.532,77.671 8.394,80 10.688,80L315.844,80C318.138,80 320,77.671 320,74.803L320,8.028ZM315.335,8.663L11.196,8.663L11.196,74.167L315.335,74.167L315.335,8.663Z" style="fill:#b47639;"/>
        </g>
    </g>
    <defs>
        <radialGradient id="_Radial1" cx="0" cy="0" r="1" gradientUnits="userSpaceOnUse" gradientTransform="matrix(206.812,-2.93029e-13,4.61358e-14,50.9131,163.266,41.4152)"><stop offset="0" style="stop-color:#4cb39d;stop-opacity:1"/><stop offset="1" style="stop-color:#066c50;stop-opacity:1"/></radialGradient>
    </defs>
</svg>
