<svg id="Layer_1" data-name="Layer 1" xmlns="http://www.w3.org/2000/svg" viewBox="0 0 300 345"><g id="assets"><g id="hat"><ellipse cx="243.79" cy="74.65" rx="26.3" ry="55.72" transform="translate(99.63 284.95) rotate(-72.59)" fill="#753f78"/><path d="M279.88,80.67c-3.22,10.26-21.31,13.73-40.4,7.74s-32-19.16-28.75-29.42l10.11-49,78.73,24.68Z" fill="#914f93"/><ellipse cx="260.2" cy="22.31" rx="19.47" ry="41.25" transform="translate(161.08 263.92) rotate(-72.59)" fill="#a668aa"/><path d="M213.41,46l-5.25-25.68s9.84,11.74,21.4,15.37l-4.29,22.68-4,12.58-8.5-10.26Z" fill="#f1f1f2"/><path d="M245.84,68.13c-15.94-5-28.25-13.77-32.43-22.14l-2.68,13c-3.22,10.26,9.66,23.43,28.75,29.42s37.18,2.52,40.4-7.74l5.22-12.21C276.89,73,261.78,73.13,245.84,68.13Z" fill="#4ab86d"/></g></g></svg>