<svg id="Layer_1" data-name="Layer 1" xmlns="http://www.w3.org/2000/svg" viewBox="0 0 300 345"><g id="assets"><g id="hat"><path d="M138.81,50.43s-22-7.81-22-40.42a25.1,25.1,0,0,0,14.49,4.53c8.76,0,21.7,10.2,21.7,35.89" fill="#141319"/><path d="M164.15,50.43s22-7.81,22-40.42a25.1,25.1,0,0,1-14.49,4.53c-8.76,0-21.7,10.2-21.7,35.89" fill="#141319"/><path d="M151.58,59.67A89.6,89.6,0,0,1,204.3,76.41a4.45,4.45,0,0,0,2.61.85h0a4.45,4.45,0,0,0,2.87-7.84,91.13,91.13,0,0,0-116.39,0,4.45,4.45,0,0,0,2.87,7.84h0a4.45,4.45,0,0,0,2.61-.85A89.59,89.59,0,0,1,151.58,59.67Z" fill="#141319"/></g></g></svg>