<svg id="Layer_1" data-name="Layer 1" xmlns="http://www.w3.org/2000/svg" viewBox="0 0 300 345"><g id="assets"><g id="hat"><path d="M200.87,55.07c19.8-37.91,79.38-55,79.38-55l-.06,0s20,58.69.18,96.6c0,0-14.23,2.23-43.71-13.17S200.87,55.07,200.87,55.07Z" fill="#141319"/><path d="M99.13,55.07C79.33,17.16,19.75,0,19.75,0l.06,0s-20,58.69-.18,96.6c0,0,14.23,2.23,43.71-13.17S99.13,55.07,99.13,55.07Z" fill="#141319"/><path d="M69.68,53.41C60.14,35.15,31.43,26.9,31.43,26.9l0,0s-9.62,28.28-.08,46.54c0,0,6.86,1.07,21.06-6.34S69.68,53.41,69.68,53.41Z" fill="#dc7398"/><path d="M230.32,53.41c9.54-18.26,38.25-26.51,38.25-26.51l0,0s9.62,28.28.08,46.54c0,0-6.86,1.07-21.06-6.34S230.32,53.41,230.32,53.41Z" fill="#dc7398"/><path d="M99.09,55.09l6.81-24.76c-13.59,2.63-18,12.13-18,12.13" fill="#141319"/><path d="M93.87,49.6l-1-25.67c-12.16,6.6-13.55,17-13.55,17" fill="#141319"/><path d="M200.91,55.09,194.1,30.33c13.59,2.63,18,12.13,18,12.13" fill="#141319"/><path d="M206.13,49.6l1-25.67c12.16,6.6,13.55,17,13.55,17" fill="#141319"/></g></g></svg>