<svg id="Layer_1" data-name="Layer 1" xmlns="http://www.w3.org/2000/svg" viewBox="0 0 300 345"><g id="assets"><g id="hat"><path d="M263.62,30.79H36.38A36.38,36.38,0,0,0,0,67.17v52.59A36.38,36.38,0,0,1,36.38,83.38H263.62A36.38,36.38,0,0,1,300,119.76V67.17A36.38,36.38,0,0,0,263.62,30.79Z" fill="#87c668"/><path d="M150,48.6c-9.6,0-21.93-.79-21.93-.79-2.83,10.7-4.7,31,21.93,31,26.29,0,24.8-20.08,22-31C172,47.82,159.66,48.6,150,48.6Z" fill="#659f44"/><ellipse cx="40.87" cy="37.48" rx="29.79" ry="37.48" fill="#87c668"/><ellipse cx="40.87" cy="25.19" rx="8.4" ry="10.72" fill="#141319"/><ellipse cx="259.13" cy="37.48" rx="29.79" ry="37.48" fill="#87c668"/><ellipse cx="259.13" cy="25.19" rx="8.4" ry="10.72" fill="#141319"/><path d="M150,47.59c-7.27,0-16.61-.71-16.61-.71-2.14,9.73-3.56,28.23,16.61,28.23,19.91,0,18.78-18.27,16.69-28.23C166.69,46.88,157.32,47.59,150,47.59Z" fill="#e22a59"/><path d="M150,65.58a3.89,3.89,0,0,1-3.89-3.89V49.39c0-2.15,7.78-2.15,7.78,0v12.3A3.89,3.89,0,0,1,150,65.58Z" fill="#b61e48"/><path d="M65.35,42.9s19,5.23,84.65,5.23,84.65-5.23,84.65-5.23" fill="none" stroke="#141319" stroke-linecap="round" stroke-miterlimit="10" stroke-width="3"/><circle cx="30.92" cy="52.51" r="12.45" fill="#f5a9ca"/><circle cx="269.08" cy="52.51" r="12.45" fill="#f5a9ca"/></g></g></svg>