<?xml version="1.0" encoding="UTF-8" standalone="no"?>
<!DOCTYPE svg PUBLIC "-//W3C//DTD SVG 1.1//EN" "http://www.w3.org/Graphics/SVG/1.1/DTD/svg11.dtd">
<svg width="100%" height="100%" viewBox="0 0 300 345" version="1.1" xmlns="http://www.w3.org/2000/svg" xmlns:xlink="http://www.w3.org/1999/xlink" xml:space="preserve" xmlns:serif="http://www.serif.com/" style="fill-rule:evenodd;clip-rule:evenodd;stroke-linejoin:round;stroke-miterlimit:2;">
    <g id="hair_23">
        <path d="M300,210.186C299.866,206.651 299.409,203.139 298.599,199.695C298.146,197.77 297.589,195.871 296.936,194.005C293.471,184.093 287.407,175.367 280.872,167.248C279.877,166.012 278.868,164.787 277.851,163.57C276.534,161.992 275.201,160.427 273.866,158.863L273.326,158.233C204.826,149.038 164.455,107.432 150,74.89C136.045,106.306 104.33,110.003 36.368,141.902C26.42,161.858 2.346,180.187 0,210.186L0,79.56C-0,59.603 16.423,43.18 36.38,43.18L263.62,43.18C283.577,43.18 300,59.603 300,79.56L300,210.186Z" style="fill:#fabc2e;fill-rule:nonzero;"/>
        <path d="M140.199,45C108.845,7.158 123.443,0.049 150,0.049L150.311,0.049C176.67,0.105 191.033,7.306 159.801,45L140.199,45Z" style="fill:#3f1c12;fill-rule:nonzero;"/>
        <g transform="matrix(0.476439,-0.137094,0.201584,0.700561,59.4314,-53.1488)">
            <path d="M259.042,155.685C259.042,154.374 258.266,153.31 257.31,153.31L34.907,155.703C33.951,155.703 33.175,156.767 33.175,158.078L33.175,158.662C33.175,159.974 33.951,161.038 34.907,161.038L257.31,163.336C258.266,163.336 259.042,162.272 259.042,160.961L259.042,155.685Z" style="fill:#c31123;"/>
        </g>
        <g transform="matrix(0.393126,-0.302061,0.444153,0.578056,24.8778,-2.7795)">
            <path d="M259.042,155.685C259.042,154.374 258.266,153.31 257.31,153.31L34.907,155.703C33.951,155.703 33.175,156.767 33.175,158.078L33.175,158.662C33.175,159.974 33.951,161.038 34.907,161.038L257.31,163.336C258.266,163.336 259.042,162.272 259.042,160.961L259.042,155.685Z" style="fill:#c31123;"/>
        </g>
        <g transform="matrix(-0.470601,-0.155959,-0.229323,0.691977,246.425,-47.4748)">
            <path d="M259.042,155.685C259.042,154.374 258.266,153.31 257.31,153.31L34.907,155.703C33.951,155.703 33.175,156.767 33.175,158.078L33.175,158.662C33.175,159.974 33.951,161.038 34.907,161.038L257.31,163.336C258.266,163.336 259.042,162.272 259.042,160.961L259.042,155.685Z" style="fill:#c31123;"/>
        </g>
        <g transform="matrix(-0.418134,-0.266368,0.391671,-0.614829,134.71,169.957)">
            <path d="M259.042,155.685C259.042,154.374 258.266,153.31 257.31,153.31L34.907,155.703C33.951,155.703 33.175,156.767 33.175,158.078L33.175,158.662C33.175,159.974 33.951,161.038 34.907,161.038L257.31,163.336C258.266,163.336 259.042,162.272 259.042,160.961L259.042,155.685Z" style="fill:#c31123;"/>
        </g>
        <path d="M300,195.121C299.921,193.007 299.663,190.904 299.212,188.837C298.942,187.601 298.606,186.379 298.209,185.177C295.985,178.434 277.005,154.016 275.674,152.182L275.49,151.928C237.393,142.51 168.206,104.642 150,65.9C137.276,94.545 77.6,114.059 32.627,134.118C28.975,156.774 0.892,169.492 0,195.121L0,70.57C-0,50.613 16.423,34.19 36.38,34.19L263.62,34.19C283.577,34.19 300,50.613 300,70.57L300,195.121Z" style="fill:#3f1c12;fill-rule:nonzero;"/>
        <g transform="matrix(0.554471,-0.960372,0.866025,0.5,22.4791,105.771)">
            <path d="M112.801,6.48C112.801,6.123 112.539,5.832 112.217,5.832L106.755,5.811C106.433,5.811 106.171,6.101 106.171,6.459L106.15,7.763C106.15,8.121 106.412,8.412 106.735,8.412L112.144,8.404C112.467,8.404 112.729,8.113 112.729,7.755L112.801,6.48Z" style="fill:#95000f;"/>
        </g>
        <g transform="matrix(-0.255456,-1.07912,-0.973105,0.23036,248.511,139.07)">
            <path d="M112.801,6.48C112.801,6.123 112.539,5.832 112.217,5.832L106.755,5.811C106.433,5.811 106.171,6.101 106.171,6.459L106.15,7.763C106.15,8.121 106.412,8.412 106.735,8.412L112.144,8.404C112.467,8.404 112.729,8.113 112.729,7.755L112.801,6.48Z" style="fill:#95000f;"/>
        </g>
        <g transform="matrix(-0.634047,-0.909801,-0.820422,0.571758,271.409,106.687)">
            <path d="M112.801,6.48C112.801,6.123 112.539,5.832 112.217,5.832L106.755,5.811C106.433,5.811 106.171,6.101 106.171,6.459L106.15,7.763C106.15,8.121 106.412,8.412 106.735,8.412L112.144,8.404C112.467,8.404 112.729,8.113 112.729,7.755L112.801,6.48Z" style="fill:#95000f;"/>
        </g>
        <g transform="matrix(-0.386961,1.03924,0.937143,0.348946,125.149,-94.1504)">
            <path d="M112.801,6.48C112.801,6.123 112.539,5.832 112.217,5.832L106.771,5.704C106.448,5.704 106.186,5.994 106.186,6.352L106.166,7.656C106.166,8.014 106.428,8.305 106.751,8.305L112.144,8.404C112.467,8.404 112.729,8.113 112.729,7.755L112.801,6.48Z" style="fill:#95000f;"/>
        </g>
    </g>
</svg>
