<?xml version="1.0" encoding="UTF-8" standalone="no"?>
<!DOCTYPE svg PUBLIC "-//W3C//DTD SVG 1.1//EN" "http://www.w3.org/Graphics/SVG/1.1/DTD/svg11.dtd">
<svg width="100%" height="100%" viewBox="0 0 300 345" version="1.1" xmlns="http://www.w3.org/2000/svg" xmlns:xlink="http://www.w3.org/1999/xlink" xml:space="preserve" xmlns:serif="http://www.serif.com/" style="fill-rule:evenodd;clip-rule:evenodd;stroke-linejoin:round;stroke-miterlimit:2;">
    <g id="hair_25">
        <path d="M145.134,102.573C129.421,98.578 123.977,105.265 115.06,116.717C100.234,135.758 77.473,135.526 54.397,138.345C45.884,150.663 37.506,158.682 22.843,168.253L22.843,229.16C29.134,231.451 34.294,236.91 34.192,243.864C49.756,245.598 61.602,256.778 56.924,271.892C75.118,266.096 81.098,288.334 81.098,288.334C82.47,292.29 85.387,295.475 88.843,298.39L36.38,298.39C21.919,298.39 9.418,289.935 3.553,277.7L3.125,276.774L2.691,275.756L2.305,274.772L2.007,273.946L1.704,273.037L1.393,272.006L1.146,271.097L0.932,270.222L0.702,269.151L0.525,268.196L0.383,267.302L0.263,266.402L0.165,265.495L0.073,264.326L0.026,263.403L0.003,262.476L0,262.01L0,81.38C0,61.301 16.301,45 36.38,45L48.312,45C56.93,45 67.441,43.438 75.188,40.92C102.316,32.103 122.546,26.362 140.496,37.362C140.651,35.998 141.294,34.451 142.614,32.603L150.977,42.636L157.593,26.863C159.692,30.704 160.413,34.1 159.209,37.545C177.234,26.3 197.537,32.055 224.812,40.92C232.559,43.438 243.07,45 251.688,45L263.62,45C283.699,45 300,61.301 300,81.38L300,262.01L299.997,262.476L299.974,263.403L299.927,264.326L299.835,265.495L299.737,266.402L299.617,267.302L299.475,268.196L299.298,269.151L299.068,270.222L298.854,271.097L298.607,272.006L298.296,273.037L297.993,273.946L297.695,274.772L297.309,275.756L296.875,276.774L296.447,277.7C290.582,289.935 278.081,298.39 263.62,298.39L212.042,298.39C215.499,295.475 218.415,292.29 219.787,288.334C219.787,288.334 225.767,266.825 243.961,272.621C239.283,257.507 251.129,246.327 266.693,244.593C266.591,237.639 271.751,232.18 278.042,229.889L278.042,165.325C262.671,158.669 256.183,151.848 246.488,138.874C223.412,136.055 202.986,133.348 185.825,116.717C176.657,104.943 169.958,98.205 153.525,102.936C162.859,109.358 171.002,120.085 177.339,133.159C184.477,147.883 189.39,172.286 184.182,186.886C173.556,160.426 161.424,128.374 151.648,103.52C151.11,103.699 150.565,103.89 150.015,104.095L150,104.088L149.985,104.095C149.061,103.752 148.151,103.443 147.258,103.169C134.455,119.791 116.336,142.907 101.365,162.626C105.91,147.775 114.288,128.803 122.052,119.71C128.631,112.004 136.34,106.318 145.134,102.573Z" style="fill:#fabc2e;"/>
        <path d="M145.134,102.573C129.421,98.578 118.407,105.265 109.49,116.717C92.329,133.348 71.903,129.995 48.827,132.814C43.047,146.954 32.976,157.316 17.273,162.722L17.273,232.492C23.564,234.783 28.723,240.242 28.621,247.196C44.186,248.93 56.031,260.11 51.353,275.224C69.548,269.428 75.527,288.334 75.527,288.334C76.9,292.29 79.816,295.475 83.272,298.39L36.38,298.39C21.919,298.39 9.418,289.935 3.553,277.7L3.125,276.774L2.691,275.756L2.305,274.772L2.007,273.946L1.704,273.037L1.393,272.006L1.146,271.097L0.932,270.222L0.702,269.151L0.525,268.196L0.383,267.302L0.263,266.402L0.165,265.495L0.073,264.326L0.026,263.403L0.003,262.476L0,262.01L0,81.38C0,61.301 16.301,45 36.38,45L48.312,45C56.93,45 67.441,43.438 75.188,40.92C102.316,32.103 122.546,26.362 140.496,37.362C140.651,35.998 141.294,34.451 142.614,32.603L150.977,42.636L157.593,26.863C159.692,30.704 160.413,34.1 159.209,37.545C177.234,26.3 197.537,32.055 224.812,40.92C232.559,43.438 243.07,45 251.688,45L263.62,45C283.699,45 300,61.301 300,81.38L300,262.01L299.997,262.476L299.974,263.403L299.927,264.326L299.835,265.495L299.737,266.402L299.617,267.302L299.475,268.196L299.298,269.151L299.068,270.222L298.854,271.097L298.607,272.006L298.296,273.037L297.993,273.946L297.695,274.772L297.309,275.756L296.875,276.774L296.447,277.7C290.582,289.935 278.081,298.39 263.62,298.39L216.728,298.39C220.184,295.475 223.1,292.29 224.473,288.334C224.473,288.334 230.452,269.428 248.647,275.224C243.969,260.11 255.814,248.93 271.379,247.196C271.277,240.242 276.436,234.783 282.727,232.492L282.727,162.722C267.024,157.316 256.953,146.954 251.173,132.814C228.097,129.995 207.671,133.348 190.51,116.717C181.342,104.943 169.958,98.205 153.525,102.936C162.859,109.358 171.978,120.573 178.315,133.647C185.453,148.371 189.064,165.454 185.483,180.704C177.297,153.431 165.979,127.724 151.648,103.52C151.11,103.699 150.565,103.89 150.015,104.095L150,104.088L149.985,104.095C149.061,103.752 148.151,103.443 147.258,103.169C131.123,117.812 116.752,135.634 103.552,155.562C108.097,140.71 114.288,128.803 122.052,119.71C128.631,112.004 136.34,106.318 145.134,102.573Z" style="fill:#3f1c12;"/>
    </g>
</svg>
